<?xml version="1.0" encoding="utf-8" standalone="no"?>
<!DOCTYPE svg PUBLIC "-//W3C//DTD SVG 1.1//EN"
  "http://www.w3.org/Graphics/SVG/1.1/DTD/svg11.dtd">
<svg xmlns:xlink="http://www.w3.org/1999/xlink" width="382.150386pt" height="265.600613pt" viewBox="0 0 382.150386 265.600613" xmlns="http://www.w3.org/2000/svg" version="1.1">
 <metadata>
  <rdf:RDF xmlns:dc="http://purl.org/dc/elements/1.1/" xmlns:cc="http://creativecommons.org/ns#" xmlns:rdf="http://www.w3.org/1999/02/22-rdf-syntax-ns#">
   <cc:Work>
    <dc:type rdf:resource="http://purl.org/dc/dcmitype/StillImage"/>
    <dc:date>2025-07-16T22:56:43.356519</dc:date>
    <dc:format>image/svg+xml</dc:format>
    <dc:creator>
     <cc:Agent>
      <dc:title>Matplotlib v3.10.3, https://matplotlib.org/</dc:title>
     </cc:Agent>
    </dc:creator>
   </cc:Work>
  </rdf:RDF>
 </metadata>
 <defs>
  <style type="text/css">*{stroke-linejoin: round; stroke-linecap: butt}</style>
 </defs>
 <g id="figure_1">
  <g id="patch_1">
   <path d="M 0 265.600613 
L 382.150386 265.600613 
L 382.150386 0 
L 0 0 
z
" style="fill: #ffffff"/>
  </g>
  <g id="axes_1">
   <g id="patch_2">
    <path d="M 40.150386 228.96 
L 374.950386 228.96 
L 374.950386 7.2 
L 40.150386 7.2 
z
" style="fill: #ffffff"/>
   </g>
   <g id="matplotlib.axis_1">
    <g id="xtick_1">
     <g id="line2d_1">
      <defs>
       <path id="m4ffb86f70c" d="M 0 0 
L 0 3.5 
" style="stroke: #000000; stroke-width: 0.8"/>
      </defs>
      <g>
       <use xlink:href="#m4ffb86f70c" x="55.368567" y="228.96" style="stroke: #000000; stroke-width: 0.8"/>
      </g>
     </g>
     <g id="text_1">
      <!-- $\mathdefault{0}$ -->
      <g transform="translate(52.8779 243.05832) scale(0.1 -0.1)">
       <defs>
        <path id="CMR17-30" d="M 2688 2038 
C 2688 2430 2682 3099 2413 3613 
C 2176 4063 1798 4224 1466 4224 
C 1158 4224 768 4082 525 3620 
C 269 3137 243 2539 243 2038 
C 243 1671 250 1112 448 623 
C 723 -39 1216 -128 1466 -128 
C 1760 -128 2208 -7 2470 604 
C 2662 1048 2688 1568 2688 2038 
z
M 1466 -26 
C 1056 -26 813 328 723 816 
C 653 1196 653 1749 653 2109 
C 653 2604 653 3015 736 3407 
C 858 3954 1216 4121 1466 4121 
C 1728 4121 2067 3947 2189 3420 
C 2272 3054 2278 2623 2278 2109 
C 2278 1691 2278 1176 2202 797 
C 2067 96 1690 -26 1466 -26 
z
" transform="scale(0.015625)"/>
       </defs>
       <use xlink:href="#CMR17-30" transform="scale(0.996264)"/>
      </g>
     </g>
    </g>
    <g id="xtick_2">
     <g id="line2d_2">
      <g>
       <use xlink:href="#m4ffb86f70c" x="98.12828" y="228.96" style="stroke: #000000; stroke-width: 0.8"/>
      </g>
     </g>
     <g id="text_2">
      <!-- $\mathdefault{500}$ -->
      <g transform="translate(90.656277 243.05832) scale(0.1 -0.1)">
       <defs>
        <path id="CMR17-35" d="M 730 3750 
C 794 3724 1056 3641 1325 3641 
C 1920 3641 2246 3961 2432 4140 
C 2432 4191 2432 4224 2394 4224 
C 2387 4224 2374 4224 2323 4198 
C 2099 4102 1837 4032 1517 4032 
C 1325 4032 1037 4055 723 4191 
C 653 4224 640 4224 634 4224 
C 602 4224 595 4217 595 4090 
L 595 2231 
C 595 2113 595 2080 659 2080 
C 691 2080 704 2093 736 2139 
C 941 2435 1222 2560 1542 2560 
C 1766 2560 2246 2415 2246 1293 
C 2246 1087 2246 716 2054 422 
C 1894 159 1645 25 1370 25 
C 947 25 518 319 403 812 
C 429 806 480 793 506 793 
C 589 793 749 838 749 1036 
C 749 1209 627 1280 506 1280 
C 358 1280 262 1190 262 1011 
C 262 454 704 -128 1382 -128 
C 2042 -128 2669 441 2669 1267 
C 2669 2054 2170 2662 1549 2662 
C 1222 2662 947 2540 730 2304 
L 730 3750 
z
" transform="scale(0.015625)"/>
       </defs>
       <use xlink:href="#CMR17-35" transform="scale(0.996264)"/>
       <use xlink:href="#CMR17-30" transform="translate(45.690477 0) scale(0.996264)"/>
       <use xlink:href="#CMR17-30" transform="translate(91.380954 0) scale(0.996264)"/>
      </g>
     </g>
    </g>
    <g id="xtick_3">
     <g id="line2d_3">
      <g>
       <use xlink:href="#m4ffb86f70c" x="140.887993" y="228.96" style="stroke: #000000; stroke-width: 0.8"/>
      </g>
     </g>
     <g id="text_3">
      <!-- $\mathdefault{1000}$ -->
      <g transform="translate(130.925323 243.05832) scale(0.1 -0.1)">
       <defs>
        <path id="CMR17-31" d="M 1702 4083 
C 1702 4217 1696 4224 1606 4224 
C 1357 3927 979 3833 621 3820 
C 602 3820 570 3820 563 3808 
C 557 3795 557 3782 557 3648 
C 755 3648 1088 3686 1344 3839 
L 1344 467 
C 1344 243 1331 166 781 166 
L 589 166 
L 589 0 
C 896 6 1216 12 1523 12 
C 1830 12 2150 6 2458 0 
L 2458 166 
L 2266 166 
C 1715 166 1702 236 1702 467 
L 1702 4083 
z
" transform="scale(0.015625)"/>
       </defs>
       <use xlink:href="#CMR17-31" transform="scale(0.996264)"/>
       <use xlink:href="#CMR17-30" transform="translate(45.690477 0) scale(0.996264)"/>
       <use xlink:href="#CMR17-30" transform="translate(91.380954 0) scale(0.996264)"/>
       <use xlink:href="#CMR17-30" transform="translate(137.071431 0) scale(0.996264)"/>
      </g>
     </g>
    </g>
    <g id="xtick_4">
     <g id="line2d_4">
      <g>
       <use xlink:href="#m4ffb86f70c" x="183.647706" y="228.96" style="stroke: #000000; stroke-width: 0.8"/>
      </g>
     </g>
     <g id="text_4">
      <!-- $\mathdefault{1500}$ -->
      <g transform="translate(173.685036 243.05832) scale(0.1 -0.1)">
       <use xlink:href="#CMR17-31" transform="scale(0.996264)"/>
       <use xlink:href="#CMR17-35" transform="translate(45.690477 0) scale(0.996264)"/>
       <use xlink:href="#CMR17-30" transform="translate(91.380954 0) scale(0.996264)"/>
       <use xlink:href="#CMR17-30" transform="translate(137.071431 0) scale(0.996264)"/>
      </g>
     </g>
    </g>
    <g id="xtick_5">
     <g id="line2d_5">
      <g>
       <use xlink:href="#m4ffb86f70c" x="226.407419" y="228.96" style="stroke: #000000; stroke-width: 0.8"/>
      </g>
     </g>
     <g id="text_5">
      <!-- $\mathdefault{2000}$ -->
      <g transform="translate(216.444749 243.05832) scale(0.1 -0.1)">
       <defs>
        <path id="CMR17-32" d="M 2669 990 
L 2554 990 
C 2490 537 2438 460 2413 422 
C 2381 371 1920 371 1830 371 
L 602 371 
C 832 620 1280 1073 1824 1596 
C 2214 1966 2669 2400 2669 3033 
C 2669 3788 2067 4224 1395 4224 
C 691 4224 262 3603 262 3027 
C 262 2777 448 2745 525 2745 
C 589 2745 781 2783 781 3007 
C 781 3206 614 3264 525 3264 
C 486 3264 448 3257 422 3244 
C 544 3788 915 4057 1306 4057 
C 1862 4057 2227 3616 2227 3033 
C 2227 2477 1901 1998 1536 1583 
L 262 147 
L 262 0 
L 2515 0 
L 2669 990 
z
" transform="scale(0.015625)"/>
       </defs>
       <use xlink:href="#CMR17-32" transform="scale(0.996264)"/>
       <use xlink:href="#CMR17-30" transform="translate(45.690477 0) scale(0.996264)"/>
       <use xlink:href="#CMR17-30" transform="translate(91.380954 0) scale(0.996264)"/>
       <use xlink:href="#CMR17-30" transform="translate(137.071431 0) scale(0.996264)"/>
      </g>
     </g>
    </g>
    <g id="xtick_6">
     <g id="line2d_6">
      <g>
       <use xlink:href="#m4ffb86f70c" x="269.167132" y="228.96" style="stroke: #000000; stroke-width: 0.8"/>
      </g>
     </g>
     <g id="text_6">
      <!-- $\mathdefault{2500}$ -->
      <g transform="translate(259.204461 243.05832) scale(0.1 -0.1)">
       <use xlink:href="#CMR17-32" transform="scale(0.996264)"/>
       <use xlink:href="#CMR17-35" transform="translate(45.690477 0) scale(0.996264)"/>
       <use xlink:href="#CMR17-30" transform="translate(91.380954 0) scale(0.996264)"/>
       <use xlink:href="#CMR17-30" transform="translate(137.071431 0) scale(0.996264)"/>
      </g>
     </g>
    </g>
    <g id="xtick_7">
     <g id="line2d_7">
      <g>
       <use xlink:href="#m4ffb86f70c" x="311.926845" y="228.96" style="stroke: #000000; stroke-width: 0.8"/>
      </g>
     </g>
     <g id="text_7">
      <!-- $\mathdefault{3000}$ -->
      <g transform="translate(301.964174 243.05832) scale(0.1 -0.1)">
       <defs>
        <path id="CMR17-33" d="M 1414 2176 
C 1984 2176 2234 1673 2234 1094 
C 2234 322 1824 25 1453 25 
C 1114 25 563 193 390 691 
C 422 678 454 678 486 678 
C 640 678 755 780 755 947 
C 755 1132 614 1216 486 1216 
C 378 1216 211 1164 211 927 
C 211 335 787 -128 1466 -128 
C 2176 -128 2720 432 2720 1087 
C 2720 1718 2208 2176 1600 2246 
C 2086 2347 2554 2776 2554 3353 
C 2554 3856 2048 4224 1472 4224 
C 890 4224 378 3862 378 3347 
C 378 3123 544 3084 627 3084 
C 762 3084 877 3167 877 3334 
C 877 3500 762 3584 627 3584 
C 602 3584 570 3584 544 3571 
C 730 3999 1235 4076 1459 4076 
C 1683 4076 2106 3966 2106 3347 
C 2106 3167 2080 2851 1862 2574 
C 1670 2329 1453 2316 1242 2297 
C 1210 2297 1062 2284 1037 2284 
C 992 2278 966 2272 966 2227 
C 966 2182 973 2176 1101 2176 
L 1414 2176 
z
" transform="scale(0.015625)"/>
       </defs>
       <use xlink:href="#CMR17-33" transform="scale(0.996264)"/>
       <use xlink:href="#CMR17-30" transform="translate(45.690477 0) scale(0.996264)"/>
       <use xlink:href="#CMR17-30" transform="translate(91.380954 0) scale(0.996264)"/>
       <use xlink:href="#CMR17-30" transform="translate(137.071431 0) scale(0.996264)"/>
      </g>
     </g>
    </g>
    <g id="xtick_8">
     <g id="line2d_8">
      <g>
       <use xlink:href="#m4ffb86f70c" x="354.686558" y="228.96" style="stroke: #000000; stroke-width: 0.8"/>
      </g>
     </g>
     <g id="text_8">
      <!-- $\mathdefault{3500}$ -->
      <g transform="translate(344.723887 243.05832) scale(0.1 -0.1)">
       <use xlink:href="#CMR17-33" transform="scale(0.996264)"/>
       <use xlink:href="#CMR17-35" transform="translate(45.690477 0) scale(0.996264)"/>
       <use xlink:href="#CMR17-30" transform="translate(91.380954 0) scale(0.996264)"/>
       <use xlink:href="#CMR17-30" transform="translate(137.071431 0) scale(0.996264)"/>
      </g>
     </g>
    </g>
    <g id="text_9">
     <!-- Iteration -->
     <g transform="translate(189.603009 256.278627) scale(0.1 -0.1)">
      <defs>
       <path id="NimbusSanL-Regu-49" d="M 1242 4672 
L 640 4672 
L 640 0 
L 1242 0 
L 1242 4672 
z
" transform="scale(0.015625)"/>
       <path id="NimbusSanL-Regu-74" d="M 1626 3328 
L 1075 3328 
L 1075 4249 
L 544 4249 
L 544 3328 
L 90 3328 
L 90 2892 
L 544 2892 
L 544 402 
C 544 64 774 -128 1190 -128 
C 1318 -128 1446 -116 1626 -84 
L 1626 364 
C 1555 345 1472 339 1370 339 
C 1139 339 1075 402 1075 634 
L 1075 2892 
L 1626 2892 
L 1626 3328 
z
" transform="scale(0.015625)"/>
       <path id="NimbusSanL-Regu-65" d="M 3283 1484 
C 3283 1998 3245 2311 3149 2565 
C 2931 3123 2419 3456 1792 3456 
C 858 3456 256 2734 256 1619 
C 256 545 838 -128 1779 -128 
C 2547 -128 3078 307 3213 1018 
L 2675 1018 
C 2528 588 2227 364 1798 364 
C 1459 364 1171 514 992 787 
C 864 974 819 1161 813 1484 
L 3283 1484 
z
M 826 1920 
C 870 2552 1248 2963 1786 2963 
C 2310 2963 2714 2519 2714 1959 
C 2714 1946 2714 1933 2707 1920 
L 826 1920 
z
" transform="scale(0.015625)"/>
       <path id="NimbusSanL-Regu-72" d="M 442 3328 
L 442 0 
L 979 0 
L 979 1727 
C 979 2203 1101 2514 1357 2698 
C 1523 2819 1683 2857 2054 2863 
L 2054 3404 
C 1965 3449 1920 3456 1850 3456 
C 1504 3456 1242 3251 934 2750 
L 934 3328 
L 442 3328 
z
" transform="scale(0.015625)"/>
       <path id="NimbusSanL-Regu-61" d="M 3424 332 
C 3366 320 3341 320 3309 320 
C 3123 320 3021 415 3021 581 
L 3021 2542 
C 3021 3135 2586 3456 1760 3456 
C 1274 3456 870 3315 646 3065 
C 493 2893 429 2702 416 2370 
L 954 2370 
C 998 2778 1242 2963 1741 2963 
C 2221 2963 2490 2784 2490 2466 
L 2490 2326 
C 2490 2103 2355 2007 1933 1956 
C 1178 1861 1062 1835 858 1753 
C 467 1593 269 1294 269 861 
C 269 256 691 -128 1370 -128 
C 1792 -128 2131 19 2509 364 
C 2547 25 2714 -128 3059 -128 
C 3168 -128 3251 -116 3424 -71 
L 3424 332 
z
M 2490 1071 
C 2490 893 2438 785 2278 638 
C 2061 441 1798 339 1485 339 
C 1069 339 826 536 826 874 
C 826 1224 1062 1402 1632 1485 
C 2195 1562 2310 1587 2490 1670 
L 2490 1071 
z
" transform="scale(0.015625)"/>
       <path id="NimbusSanL-Regu-69" d="M 960 3358 
L 429 3358 
L 429 0 
L 960 0 
L 960 3358 
z
M 960 4672 
L 422 4672 
L 422 3999 
L 960 3999 
L 960 4672 
z
" transform="scale(0.015625)"/>
       <path id="NimbusSanL-Regu-6f" d="M 1741 3456 
C 800 3456 230 2784 230 1663 
C 230 543 794 -128 1747 -128 
C 2688 -128 3264 543 3264 1638 
C 3264 2791 2707 3456 1741 3456 
z
M 1747 2963 
C 2349 2963 2707 2472 2707 1644 
C 2707 861 2336 364 1747 364 
C 1152 364 787 855 787 1663 
C 787 2466 1152 2963 1747 2963 
z
" transform="scale(0.015625)"/>
       <path id="NimbusSanL-Regu-6e" d="M 448 3328 
L 448 0 
L 986 0 
L 986 1835 
C 986 2539 1344 2988 1894 2988 
C 2317 2988 2586 2732 2586 2328 
L 2586 0 
L 3117 0 
L 3117 2539 
C 3117 3097 2701 3456 2054 3456 
C 1555 3456 1235 3263 941 2796 
L 941 3328 
L 448 3328 
z
" transform="scale(0.015625)"/>
      </defs>
      <use xlink:href="#NimbusSanL-Regu-49" transform="scale(0.996264)"/>
      <use xlink:href="#NimbusSanL-Regu-74" transform="translate(27.69517 0) scale(0.996264)"/>
      <use xlink:href="#NimbusSanL-Regu-65" transform="translate(55.390339 0) scale(0.996264)"/>
      <use xlink:href="#NimbusSanL-Regu-72" transform="translate(110.782016 0) scale(0.996264)"/>
      <use xlink:href="#NimbusSanL-Regu-61" transform="translate(142.961149 0) scale(0.996264)"/>
      <use xlink:href="#NimbusSanL-Regu-74" transform="translate(198.352826 0) scale(0.996264)"/>
      <use xlink:href="#NimbusSanL-Regu-69" transform="translate(226.047996 0) scale(0.996264)"/>
      <use xlink:href="#NimbusSanL-Regu-6f" transform="translate(248.16478 0) scale(0.996264)"/>
      <use xlink:href="#NimbusSanL-Regu-6e" transform="translate(303.556457 0) scale(0.996264)"/>
     </g>
    </g>
   </g>
   <g id="matplotlib.axis_2">
    <g id="ytick_1">
     <g id="line2d_9">
      <defs>
       <path id="m4d03dc169d" d="M 0 0 
L -3.5 0 
" style="stroke: #000000; stroke-width: 0.8"/>
      </defs>
      <g>
       <use xlink:href="#m4d03dc169d" x="40.150386" y="199.539074" style="stroke: #000000; stroke-width: 0.8"/>
      </g>
     </g>
     <g id="text_10">
      <!-- $\mathdefault{−6}$ -->
      <g transform="translate(20.420307 203.088234) scale(0.1 -0.1)">
       <defs>
        <path id="CMSY10-0" d="M 4218 1472 
C 4326 1472 4442 1472 4442 1600 
C 4442 1728 4326 1728 4218 1728 
L 755 1728 
C 646 1728 531 1728 531 1600 
C 531 1472 646 1472 755 1472 
L 4218 1472 
z
" transform="scale(0.015625)"/>
        <path id="CMR17-36" d="M 678 2198 
C 678 3712 1395 4076 1811 4076 
C 1946 4076 2272 4049 2400 3782 
C 2298 3782 2106 3782 2106 3558 
C 2106 3385 2246 3328 2336 3328 
C 2394 3328 2566 3353 2566 3571 
C 2566 3987 2246 4224 1805 4224 
C 1043 4224 243 3411 243 2011 
C 243 257 966 -128 1478 -128 
C 2099 -128 2688 431 2688 1295 
C 2688 2101 2170 2688 1517 2688 
C 1126 2688 838 2430 678 1979 
L 678 2198 
z
M 1478 25 
C 691 25 691 1212 691 1450 
C 691 1914 909 2585 1504 2585 
C 1613 2585 1926 2585 2138 2140 
C 2253 1889 2253 1624 2253 1302 
C 2253 954 2253 696 2118 438 
C 1978 173 1773 25 1478 25 
z
" transform="scale(0.015625)"/>
       </defs>
       <use xlink:href="#CMSY10-0" transform="scale(0.996264)"/>
       <use xlink:href="#CMR17-36" transform="translate(77.487468 0) scale(0.996264)"/>
      </g>
     </g>
    </g>
    <g id="ytick_2">
     <g id="line2d_10">
      <g>
       <use xlink:href="#m4d03dc169d" x="40.150386" y="160.860371" style="stroke: #000000; stroke-width: 0.8"/>
      </g>
     </g>
     <g id="text_11">
      <!-- $\mathdefault{−4}$ -->
      <g transform="translate(20.420307 164.409531) scale(0.1 -0.1)">
       <defs>
        <path id="CMR17-34" d="M 2150 4147 
C 2150 4281 2144 4288 2029 4288 
L 128 1254 
L 128 1088 
L 1779 1088 
L 1779 460 
C 1779 230 1766 166 1318 166 
L 1197 166 
L 1197 0 
C 1402 12 1747 12 1965 12 
C 2182 12 2528 12 2733 0 
L 2733 166 
L 2611 166 
C 2163 166 2150 230 2150 460 
L 2150 1088 
L 2803 1088 
L 2803 1254 
L 2150 1254 
L 2150 4147 
z
M 1798 3723 
L 1798 1254 
L 256 1254 
L 1798 3723 
z
" transform="scale(0.015625)"/>
       </defs>
       <use xlink:href="#CMSY10-0" transform="scale(0.996264)"/>
       <use xlink:href="#CMR17-34" transform="translate(77.487468 0) scale(0.996264)"/>
      </g>
     </g>
    </g>
    <g id="ytick_3">
     <g id="line2d_11">
      <g>
       <use xlink:href="#m4d03dc169d" x="40.150386" y="122.181669" style="stroke: #000000; stroke-width: 0.8"/>
      </g>
     </g>
     <g id="text_12">
      <!-- $\mathdefault{−2}$ -->
      <g transform="translate(20.420307 125.730829) scale(0.1 -0.1)">
       <use xlink:href="#CMSY10-0" transform="scale(0.996264)"/>
       <use xlink:href="#CMR17-32" transform="translate(77.487468 0) scale(0.996264)"/>
      </g>
     </g>
    </g>
    <g id="ytick_4">
     <g id="line2d_12">
      <g>
       <use xlink:href="#m4d03dc169d" x="40.150386" y="83.502966" style="stroke: #000000; stroke-width: 0.8"/>
      </g>
     </g>
     <g id="text_13">
      <!-- $\mathdefault{0}$ -->
      <g transform="translate(28.16905 87.052126) scale(0.1 -0.1)">
       <use xlink:href="#CMR17-30" transform="scale(0.996264)"/>
      </g>
     </g>
    </g>
    <g id="ytick_5">
     <g id="line2d_13">
      <g>
       <use xlink:href="#m4d03dc169d" x="40.150386" y="44.824263" style="stroke: #000000; stroke-width: 0.8"/>
      </g>
     </g>
     <g id="text_14">
      <!-- $\mathdefault{2}$ -->
      <g transform="translate(28.16905 48.373423) scale(0.1 -0.1)">
       <use xlink:href="#CMR17-32" transform="scale(0.996264)"/>
      </g>
     </g>
    </g>
    <g id="text_15">
     <!-- RMS residual - Blade_1 -->
     <g transform="translate(14.29832 169.700806) rotate(-90) scale(0.1 -0.1)">
      <defs>
       <path id="NimbusSanL-Regu-52" d="M 1190 2035 
L 2726 2035 
C 3258 2035 3494 1775 3494 1191 
L 3488 770 
C 3488 478 3539 192 3622 0 
L 4346 0 
L 4346 147 
C 4122 303 4077 471 4064 1101 
C 4058 1879 3936 2111 3430 2329 
C 3955 2585 4166 2907 4166 3432 
C 4166 4230 3661 4672 2746 4672 
L 595 4672 
L 595 0 
L 1190 0 
L 1190 2035 
z
M 1190 2560 
L 1190 4147 
L 2630 4147 
C 2963 4147 3155 4096 3302 3970 
C 3462 3837 3546 3628 3546 3350 
C 3546 2806 3264 2560 2630 2560 
L 1190 2560 
z
" transform="scale(0.015625)"/>
       <path id="NimbusSanL-Regu-4d" d="M 2995 0 
L 4307 3915 
L 4307 0 
L 4870 0 
L 4870 4672 
L 4045 4672 
L 2688 602 
L 1306 4672 
L 480 4672 
L 480 0 
L 1043 0 
L 1043 3915 
L 2368 0 
L 2995 0 
z
" transform="scale(0.015625)"/>
       <path id="NimbusSanL-Regu-53" d="M 3814 3295 
C 3808 4204 3181 4736 2106 4736 
C 1082 4736 448 4211 448 3372 
C 448 2806 749 2450 1363 2291 
L 2522 1986 
C 3110 1833 3379 1598 3379 1236 
C 3379 988 3245 733 3046 593 
C 2861 466 2566 396 2189 396 
C 1683 396 1338 517 1114 784 
C 941 988 864 1210 870 1496 
L 307 1496 
C 314 1070 397 790 582 536 
C 902 102 1440 -128 2150 -128 
C 2707 -128 3162 0 3462 230 
C 3776 479 3974 892 3974 1293 
C 3974 1865 3616 2284 2982 2456 
L 1811 2768 
C 1248 2920 1043 3098 1043 3454 
C 1043 3925 1459 4236 2086 4236 
C 2829 4236 3245 3899 3251 3295 
L 3814 3295 
z
" transform="scale(0.015625)"/>
       <path id="NimbusSanL-Regu-73" d="M 2803 2428 
C 2797 3084 2362 3456 1587 3456 
C 806 3456 301 3052 301 2434 
C 301 1912 570 1663 1363 1472 
L 1862 1351 
C 2234 1262 2381 1129 2381 887 
C 2381 574 2067 364 1600 364 
C 1312 364 1069 447 934 587 
C 851 683 813 778 781 1014 
L 218 1014 
C 243 243 678 -128 1555 -128 
C 2400 -128 2938 288 2938 931 
C 2938 1428 2656 1702 1990 1861 
L 1478 1982 
C 1043 2084 858 2224 858 2459 
C 858 2765 1133 2963 1568 2963 
C 1997 2963 2227 2778 2240 2428 
L 2803 2428 
z
" transform="scale(0.015625)"/>
       <path id="NimbusSanL-Regu-64" d="M 3168 4672 
L 2637 4672 
L 2637 2937 
C 2413 3276 2054 3456 1606 3456 
C 736 3456 166 2759 166 1695 
C 166 568 723 -128 1626 -128 
C 2086 -128 2406 44 2694 460 
L 2694 19 
L 3168 19 
L 3168 4672 
z
M 1696 2956 
C 2272 2956 2637 2447 2637 1651 
C 2637 880 2266 371 1702 371 
C 1114 371 723 887 723 1663 
C 723 2440 1114 2956 1696 2956 
z
" transform="scale(0.015625)"/>
       <path id="NimbusSanL-Regu-75" d="M 3085 19 
L 3085 3328 
L 2554 3328 
L 2554 1454 
C 2554 780 2195 339 1638 339 
C 1216 339 947 591 947 988 
L 947 3328 
L 416 3328 
L 416 780 
C 416 230 832 -128 1485 -128 
C 1978 -128 2291 44 2605 484 
L 2605 19 
L 3085 19 
z
" transform="scale(0.015625)"/>
       <path id="NimbusSanL-Regu-6c" d="M 973 4672 
L 435 4672 
L 435 0 
L 973 0 
L 973 4672 
z
" transform="scale(0.015625)"/>
       <path id="NimbusSanL-Regu-2d" d="M 1818 1996 
L 294 1996 
L 294 1536 
L 1818 1536 
L 1818 1996 
z
" transform="scale(0.015625)"/>
       <path id="NimbusSanL-Regu-42" d="M 506 0 
L 2611 0 
C 3053 0 3379 121 3629 390 
C 3859 632 3987 961 3987 1321 
C 3987 1878 3731 2214 3136 2444 
C 3558 2643 3782 2994 3782 3476 
C 3782 3821 3654 4127 3411 4345 
C 3168 4569 2848 4672 2400 4672 
L 506 4672 
L 506 0 
z
M 1101 2636 
L 1101 4147 
L 2253 4147 
C 2586 4147 2771 4101 2931 3977 
C 3098 3847 3187 3652 3187 3391 
C 3187 3138 3098 2936 2931 2806 
C 2771 2682 2586 2636 2253 2636 
L 1101 2636 
z
M 1101 524 
L 1101 2112 
L 2554 2112 
C 2842 2112 3034 2042 3174 1890 
C 3315 1745 3392 1542 3392 1315 
C 3392 1093 3315 891 3174 746 
C 3034 594 2842 524 2554 524 
L 1101 524 
z
" transform="scale(0.015625)"/>
       <path id="NimbusSanL-Regu-31" d="M 1658 3232 
L 1658 0 
L 2221 0 
L 2221 4537 
L 1850 4537 
C 1651 3840 1523 3744 653 3635 
L 653 3232 
L 1658 3232 
z
" transform="scale(0.015625)"/>
      </defs>
      <use xlink:href="#NimbusSanL-Regu-52" transform="scale(0.996264)"/>
      <use xlink:href="#NimbusSanL-Regu-4d" transform="translate(71.929985 0) scale(0.996264)"/>
      <use xlink:href="#NimbusSanL-Regu-53" transform="translate(154.918415 0) scale(0.996264)"/>
      <use xlink:href="#NimbusSanL-Regu-72" transform="translate(249.063616 0) scale(0.996264)"/>
      <use xlink:href="#NimbusSanL-Regu-65" transform="translate(282.238846 0) scale(0.996264)"/>
      <use xlink:href="#NimbusSanL-Regu-73" transform="translate(337.630523 0) scale(0.996264)"/>
      <use xlink:href="#NimbusSanL-Regu-69" transform="translate(387.443723 0) scale(0.996264)"/>
      <use xlink:href="#NimbusSanL-Regu-64" transform="translate(409.560507 0) scale(0.996264)"/>
      <use xlink:href="#NimbusSanL-Regu-75" transform="translate(464.952184 0) scale(0.996264)"/>
      <use xlink:href="#NimbusSanL-Regu-61" transform="translate(520.343861 0) scale(0.996264)"/>
      <use xlink:href="#NimbusSanL-Regu-6c" transform="translate(575.735538 0) scale(0.996264)"/>
      <use xlink:href="#NimbusSanL-Regu-2d" transform="translate(625.547492 0) scale(0.996264)"/>
      <use xlink:href="#NimbusSanL-Regu-42" transform="translate(686.417892 0) scale(0.996264)"/>
      <use xlink:href="#NimbusSanL-Regu-6c" transform="translate(752.867923 0) scale(0.996264)"/>
      <use xlink:href="#NimbusSanL-Regu-61" transform="translate(774.984707 0) scale(0.996264)"/>
      <use xlink:href="#NimbusSanL-Regu-64" transform="translate(830.376384 0) scale(0.996264)"/>
      <use xlink:href="#NimbusSanL-Regu-65" transform="translate(885.768061 0) scale(0.996264)"/>
      <use xlink:href="#NimbusSanL-Regu-31" transform="translate(977.025303 0) scale(0.996264)"/>
      <path d="M 947.137079 0 
L 977.025303 0 
L 977.025303 0.3985 
L 947.137079 0.3985 
L 947.137079 0 
z
"/>
     </g>
    </g>
   </g>
   <g id="line2d_14">
    <path d="M 55.368567 123.673718 
L 55.710645 137.460959 
L 55.796165 137.563085 
L 56.394801 136.443153 
L 56.822398 134.852029 
L 57.078956 136.818798 
L 57.249995 136.65885 
L 57.421034 136.669826 
L 57.592073 135.777743 
L 57.848631 134.611087 
L 58.789344 137.404653 
L 59.045903 137.795546 
L 59.216942 137.89469 
L 59.815578 138.689327 
L 59.986616 138.584097 
L 60.157655 138.122257 
L 60.328694 137.118764 
L 60.414214 137.313676 
L 60.841811 138.41937 
L 61.01285 138.47835 
L 61.098369 138.374731 
L 61.269408 137.588931 
L 61.525966 135.836483 
L 61.611486 135.921766 
L 61.782524 136.334429 
L 62.124602 137.508733 
L 62.295641 137.530296 
L 62.46668 136.998966 
L 62.552199 136.50924 
L 62.637719 136.592113 
L 62.894277 137.180336 
L 63.150835 137.716854 
L 63.321874 137.768849 
L 63.492913 137.55711 
L 63.749471 136.594141 
L 63.834991 136.000999 
L 64.091549 137.024761 
L 64.348107 137.762874 
L 64.604665 137.930739 
L 64.775704 137.627328 
L 64.946743 137.001329 
L 65.288821 138.697496 
L 65.716418 140.897517 
L 65.801937 140.95779 
L 65.972976 140.213177 
L 66.058496 140.338387 
L 66.400573 140.918203 
L 66.657132 141.595733 
L 66.742651 141.561609 
L 66.91369 140.86493 
L 67.170248 139.785509 
L 67.683365 139.751909 
L 67.854404 139.708835 
L 68.025442 139.445829 
L 68.282001 138.514225 
L 68.36752 138.105983 
L 68.45304 138.153626 
L 68.709598 138.494902 
L 69.051676 138.928116 
L 69.222714 138.959534 
L 69.479273 138.674912 
L 69.564792 138.539289 
L 69.82135 139.106478 
L 70.334467 140.348522 
L 70.505506 140.444325 
L 70.591025 140.340493 
L 71.018622 140.837845 
L 71.531739 141.5303 
L 71.702778 141.430737 
L 71.788297 141.252319 
L 71.873817 141.295956 
L 72.215894 141.624715 
L 72.729011 142.341023 
L 72.90005 142.073583 
L 73.071089 141.305457 
L 73.156608 141.361688 
L 73.413166 141.72827 
L 73.669725 142.143263 
L 73.755244 142.130242 
L 73.926283 141.753316 
L 74.182841 140.398952 
L 74.268361 139.776688 
L 74.35388 139.84467 
L 74.524919 140.196133 
L 74.866997 141.039411 
L 75.380113 140.915277 
L 75.465633 140.722032 
L 75.636671 140.984144 
L 76.235307 142.378466 
L 76.491866 142.402272 
L 76.662904 141.993559 
L 76.748424 142.05505 
L 77.004982 142.487781 
L 77.432579 143.449838 
L 77.603618 143.419412 
L 78.031215 142.87359 
L 78.202254 143.137712 
L 78.715371 144.55355 
L 78.80089 144.550339 
L 78.971929 143.811188 
L 79.228487 141.424703 
L 79.314007 141.513904 
L 79.485046 142.13619 
L 79.827123 143.812648 
L 79.998162 143.995387 
L 80.169201 143.012806 
L 80.511279 140.007504 
L 80.938876 142.766919 
L 81.195434 144.657476 
L 81.537512 142.171583 
L 81.79407 140.622624 
L 81.879589 140.78697 
L 82.050628 142.556414 
L 82.307187 145.619927 
L 82.392706 145.405319 
L 82.905823 141.921755 
L 82.991342 141.956487 
L 83.076861 141.891377 
L 83.2479 143.022632 
L 83.675497 146.997974 
L 83.761017 146.976461 
L 84.188614 144.769936 
L 84.445172 146.238628 
L 84.701731 148.201406 
L 84.872769 148.338994 
L 85.043808 147.499019 
L 85.300366 144.937943 
L 85.385886 145.264499 
L 85.642444 147.28117 
L 85.899002 148.885004 
L 85.984522 149.044606 
L 86.070041 148.81551 
L 86.497638 145.782956 
L 86.754197 147.818097 
L 87.181794 151.194982 
L 87.267313 150.915475 
L 87.609391 148.367187 
L 87.78043 149.060942 
L 88.293546 152.229524 
L 88.379066 152.295993 
L 88.721144 150.480798 
L 88.806663 150.553421 
L 89.23426 152.570082 
L 89.576338 153.704192 
L 89.918415 151.822103 
L 90.003935 151.88072 
L 90.174974 152.162795 
L 90.602571 154.02351 
L 90.68809 153.952593 
L 90.859129 152.954954 
L 91.286726 148.803724 
L 91.457765 149.421919 
L 91.970882 152.93206 
L 92.141921 151.494897 
L 92.312959 150.180707 
L 92.398479 150.092557 
L 92.569518 150.721898 
L 93.424712 156.301333 
L 93.510231 156.420796 
L 93.68127 155.807609 
L 93.852309 154.352278 
L 93.937828 154.509917 
L 94.108867 155.06695 
L 94.450945 156.443633 
L 94.621984 156.419596 
L 94.793023 155.729316 
L 95.049581 154.050178 
L 95.306139 154.834241 
L 95.648217 156.5262 
L 95.733736 156.606259 
L 95.819256 156.516578 
L 96.075814 155.15501 
L 96.246853 154.326279 
L 96.332372 154.367432 
L 96.417892 154.511337 
L 96.588931 155.54914 
L 96.845489 156.913745 
L 96.931008 156.842806 
L 97.102047 156.16361 
L 97.358606 154.960082 
L 97.529644 155.332383 
L 98.042761 157.097262 
L 98.12828 157.151716 
L 98.2138 157.045947 
L 98.470358 155.918814 
L 98.555877 155.309914 
L 98.897955 156.850689 
L 99.240033 157.849889 
L 99.325552 157.750926 
L 99.496591 156.675395 
L 99.753149 154.479215 
L 99.924188 155.139072 
L 100.437305 158.142956 
L 100.522824 157.883662 
L 100.864902 155.678009 
L 101.549057 156.759184 
L 102.147693 155.662354 
L 102.404252 157.072062 
L 102.746329 159.676135 
L 102.831849 159.685613 
L 103.173926 157.059057 
L 103.259446 157.080514 
L 103.430485 157.508159 
L 103.687043 159.596421 
L 103.943601 161.028345 
L 104.029121 160.991961 
L 104.542237 158.245077 
L 104.798796 157.873597 
L 104.969834 158.429162 
L 105.397432 161.26726 
L 105.482951 161.173526 
L 105.65399 159.717492 
L 105.910548 157.326237 
L 106.081587 157.612373 
L 106.252626 158.845151 
L 106.594704 161.557683 
L 106.680223 161.366729 
L 107.10782 157.859001 
L 107.278859 158.133823 
L 107.449898 159.551372 
L 107.706456 162.02904 
L 107.791975 162.132342 
L 107.877495 161.752073 
L 108.219573 158.244592 
L 108.390611 158.51882 
L 108.56165 159.587329 
L 108.903728 161.978623 
L 108.989247 161.813493 
L 109.245806 158.736318 
L 109.416845 157.179459 
L 109.587883 157.621154 
L 109.758922 158.822715 
L 110.015481 160.817491 
L 110.101 160.921528 
L 110.186519 160.769645 
L 110.699636 156.806855 
L 110.785155 157.075083 
L 110.956194 158.023163 
L 111.298272 160.877907 
L 111.383791 160.896585 
L 111.469311 160.743619 
L 111.811388 158.096043 
L 111.896908 158.671602 
L 112.153466 160.245093 
L 112.410024 161.769459 
L 112.581063 161.802201 
L 112.752102 160.947151 
L 112.923141 159.743421 
L 113.521777 163.229603 
L 113.778335 163.061561 
L 113.949374 162.393281 
L 114.120413 161.375628 
L 114.205932 161.513492 
L 114.376971 161.813881 
L 114.804568 163.377888 
L 114.890088 163.344658 
L 115.061127 162.804223 
L 115.317685 161.795116 
L 115.488724 161.827477 
L 115.745282 162.844434 
L 115.916321 163.186569 
L 116.08736 163.033003 
L 116.258399 162.335909 
L 116.514957 161.1496 
L 116.600476 161.169434 
L 116.771515 161.631422 
L 117.113593 162.937586 
L 117.284632 162.63034 
L 117.626709 160.821999 
L 117.712229 160.841429 
L 117.968787 161.169328 
L 118.139826 161.907325 
L 118.481904 163.541786 
L 118.567423 163.576843 
L 118.652943 163.375676 
L 119.08054 160.920608 
L 119.251579 160.82716 
L 119.337098 160.898351 
L 119.508137 161.901459 
L 119.850214 164.422928 
L 119.935734 164.470369 
L 120.021253 164.217392 
L 120.44885 161.472396 
L 120.53437 161.487352 
L 120.705409 162.698715 
L 120.961967 164.518938 
L 121.047486 164.517748 
L 121.133006 164.319018 
L 121.646122 161.309956 
L 121.731642 161.45659 
L 121.902681 162.838593 
L 122.159239 164.600252 
L 122.244758 164.643745 
L 122.330278 164.395904 
L 122.757875 161.954389 
L 122.843394 161.981994 
L 123.014433 163.058628 
L 123.270992 164.879767 
L 123.356511 165.030307 
L 123.44203 164.94238 
L 123.955147 162.084181 
L 124.040666 162.171482 
L 124.211705 163.334994 
L 124.468263 165.115135 
L 124.553783 165.291934 
L 124.639302 165.186807 
L 125.152419 161.908892 
L 125.237938 162.039076 
L 125.408977 163.462218 
L 125.665535 165.415993 
L 125.751055 165.60445 
L 125.836574 165.263713 
L 126.264171 161.563923 
L 126.43521 161.575328 
L 126.52073 161.880695 
L 127.033846 165.981622 
L 127.119366 165.55869 
L 127.375924 162.81321 
L 127.546963 162.790292 
L 127.632482 163.031596 
L 128.145599 166.615337 
L 128.231118 166.364216 
L 128.573196 162.799632 
L 128.829754 163.488033 
L 129.342871 167.226658 
L 129.42839 166.995969 
L 129.770468 164.545672 
L 129.855987 164.591495 
L 130.112546 164.196132 
L 130.369104 165.543427 
L 130.711182 168.591943 
L 130.796701 168.78524 
L 130.88222 168.701789 
L 131.395337 166.049624 
L 131.480856 166.13415 
L 131.651895 167.083494 
L 131.993973 168.831906 
L 132.079492 168.760398 
L 132.42157 166.592838 
L 132.849167 168.225373 
L 133.191245 169.735204 
L 133.276764 169.674173 
L 133.618842 167.777053 
L 133.704361 167.719692 
L 133.789881 167.798547 
L 134.388517 169.995493 
L 134.559556 168.888447 
L 134.730595 167.875554 
L 135.500269 171.053361 
L 135.585789 170.963628 
L 136.013386 168.620095 
L 136.184425 168.553089 
L 136.269944 168.751905 
L 136.783061 171.646689 
L 136.9541 170.553246 
L 137.125139 169.69761 
L 137.381697 169.708964 
L 137.552736 169.61714 
L 137.638255 169.802643 
L 138.151372 172.616902 
L 138.493449 171.153146 
L 139.263124 174.118377 
L 139.348644 174.082573 
L 139.776241 172.332732 
L 139.94728 172.217565 
L 140.032799 172.363946 
L 140.545916 174.648634 
L 140.887993 173.680364 
L 140.973513 173.739178 
L 141.40111 173.777127 
L 141.572149 174.426785 
L 141.999746 177.594634 
L 142.085265 177.623942 
L 142.256304 177.021453 
L 142.512862 175.798281 
L 143.282537 178.817686 
L 143.368057 178.655082 
L 143.624615 177.150903 
L 143.710134 177.190002 
L 143.795654 177.224246 
L 143.966693 177.77184 
L 144.223251 178.906066 
L 144.479809 179.248502 
L 144.650848 178.740674 
L 144.821887 178.216884 
L 145.163965 179.046489 
L 145.591562 180.114916 
L 145.677081 180.051622 
L 146.019159 178.7254 
L 146.104678 178.701309 
L 146.874353 181.973083 
L 146.959872 181.875545 
L 147.216431 180.85602 
L 147.729547 182.06471 
L 147.986106 182.60016 
L 148.071625 182.576394 
L 148.413703 181.327106 
L 149.268897 183.846758 
L 149.525455 182.559642 
L 149.696494 182.611676 
L 149.867533 182.906485 
L 150.29513 184.381483 
L 150.38065 184.473937 
L 150.551688 183.858681 
L 150.722727 183.060359 
L 151.321363 185.792169 
L 151.492402 185.811581 
L 151.663441 185.060183 
L 151.919999 184.044607 
L 152.262077 184.802784 
L 152.775193 185.355748 
L 153.031752 185.718959 
L 153.801427 187.375832 
L 153.886946 187.359166 
L 154.229024 188.440525 
L 154.485582 189.602332 
L 154.656621 189.448745 
L 154.913179 188.695699 
L 155.169737 188.040441 
L 155.340776 187.986164 
L 155.511815 188.682469 
L 155.768373 189.656751 
L 155.939412 189.737515 
L 156.367009 188.409024 
L 156.452529 188.437815 
L 156.623568 189.044911 
L 156.880126 190.092001 
L 157.051165 190.198915 
L 157.222204 189.553041 
L 157.393242 188.513739 
L 158.077398 190.620551 
L 158.248437 190.339125 
L 158.590514 188.348996 
L 158.676034 188.672397 
L 159.27467 190.650175 
L 159.360189 190.619888 
L 159.531228 189.878189 
L 159.702267 188.976902 
L 160.129864 190.489514 
L 160.386422 191.107709 
L 160.557461 191.251513 
L 160.899539 189.890558 
L 161.669214 192.155915 
L 161.754733 192.104625 
L 162.011291 190.919887 
L 162.096811 191.125351 
L 162.353369 191.664347 
L 162.609927 192.523354 
L 162.780966 192.49496 
L 162.952005 192.164404 
L 163.208563 190.931716 
L 163.294083 191.03964 
L 163.465122 191.141687 
L 163.892719 192.343879 
L 163.978238 192.295637 
L 164.149277 192.004012 
L 164.576874 190.541181 
L 164.833432 190.889514 
L 165.26103 192.299223 
L 165.432068 192.165804 
L 165.603107 191.514047 
L 165.688627 191.04194 
L 165.774146 191.182339 
L 165.945185 191.385226 
L 166.458302 192.559884 
L 166.62934 192.236333 
L 166.885899 190.743659 
L 166.971418 191.019539 
L 167.313496 192.178499 
L 167.484535 192.646569 
L 167.655574 192.636739 
L 167.826612 192.09225 
L 168.083171 190.913721 
L 168.254209 191.154215 
L 168.596287 191.55152 
L 169.451481 192.252205 
L 169.879079 192.130964 
L 170.392195 191.969869 
L 171.16187 192.092377 
L 172.786739 192.59128 
L 173.214336 192.833018 
L 173.898492 194.495758 
L 174.15505 194.390187 
L 174.411608 193.339521 
L 174.497128 193.523601 
L 174.668166 193.675326 
L 175.181283 194.748791 
L 175.352322 194.696162 
L 175.779919 193.450884 
L 175.950958 193.484146 
L 176.549594 195.104488 
L 176.891671 194.845563 
L 177.06271 194.168984 
L 177.14823 194.315402 
L 177.319269 194.379402 
L 177.490307 194.838714 
L 177.661346 195.340305 
L 177.917905 195.322075 
L 178.003424 195.26922 
L 178.174463 194.709087 
L 178.259982 194.269652 
L 178.944138 195.64249 
L 179.200696 195.436167 
L 179.371735 194.711842 
L 179.457254 194.890376 
L 179.713813 195.207749 
L 180.05589 196.01557 
L 180.312449 195.827278 
L 180.569007 194.664922 
L 180.654526 194.847602 
L 180.911085 195.260989 
L 181.167643 196.131646 
L 181.424201 196.102834 
L 181.59524 195.577692 
L 181.851798 194.83863 
L 181.937318 194.728393 
L 182.621473 196.352346 
L 182.792512 196.288784 
L 182.963551 195.81649 
L 183.04907 195.433581 
L 183.733226 196.518602 
L 183.989784 196.503021 
L 184.160823 195.962981 
L 184.246342 195.529385 
L 184.331862 195.665451 
L 184.5029 195.718969 
L 184.673939 196.187979 
L 184.844978 196.634462 
L 185.187056 196.593683 
L 185.358095 195.991621 
L 185.443614 196.11689 
L 185.700172 196.231379 
L 186.04225 196.909112 
L 186.384328 196.758738 
L 186.555367 196.071597 
L 186.640886 196.229206 
L 186.897444 196.462971 
L 187.239522 197.161509 
L 187.49608 197.08882 
L 187.667119 196.567434 
L 187.752639 196.164622 
L 188.351275 197.470675 
L 188.607833 197.399832 
L 188.778872 197.014688 
L 188.864391 196.623337 
L 189.120949 196.929548 
L 189.291988 197.300128 
L 189.548547 197.754972 
L 189.805105 197.60557 
L 189.976144 197.001986 
L 190.061663 196.574065 
L 190.745818 197.917883 
L 191.002377 197.708892 
L 191.344454 196.661733 
L 191.515493 196.58233 
L 192.02861 198.061734 
L 192.199649 198.101913 
L 192.456207 197.865761 
L 192.627246 197.18551 
L 192.712765 197.363875 
L 192.969324 197.634859 
L 193.225882 198.264201 
L 193.56796 198.204809 
L 193.738998 197.689276 
L 193.824518 197.257957 
L 194.508673 198.374998 
L 194.765231 198.331547 
L 194.93627 197.740096 
L 195.02179 197.885197 
L 195.278348 198.027588 
L 195.620426 198.665374 
L 195.962503 198.486967 
L 196.133542 197.783371 
L 196.219062 197.941306 
L 196.47562 198.164992 
L 196.817698 198.870528 
L 197.074256 198.764429 
L 197.416334 197.652689 
L 197.501853 197.857654 
L 197.758411 198.353133 
L 198.01497 199.115705 
L 198.271528 199.00641 
L 198.442567 198.536315 
L 198.528086 198.133339 
L 199.297761 199.270509 
L 199.4688 199.120754 
L 199.725358 198.049258 
L 199.810878 198.19724 
L 199.981916 198.311364 
L 200.152955 198.787919 
L 200.409514 199.34003 
L 200.580552 199.266815 
L 200.751591 198.829052 
L 201.00815 198.050394 
L 201.179188 198.035751 
L 201.606786 198.205247 
L 203.146135 198.028413 
L 204.343407 197.925071 
L 205.027563 197.807908 
L 205.113082 197.670855 
L 205.882757 198.954058 
L 206.053796 198.770514 
L 206.224835 198.018349 
L 206.310354 198.095083 
L 206.481393 198.053919 
L 206.652432 198.443715 
L 206.90899 199.025303 
L 207.165548 198.942173 
L 207.336587 198.323346 
L 207.422107 197.84257 
L 207.507626 197.89233 
L 207.678665 197.846602 
L 207.849704 198.36435 
L 208.106262 199.001784 
L 208.36282 198.907778 
L 208.533859 198.194883 
L 208.619378 198.242634 
L 208.790417 198.14249 
L 208.875937 198.227393 
L 209.218014 199.111122 
L 209.474573 199.079848 
L 209.645612 198.496604 
L 209.731131 198.017813 
L 209.81665 198.05278 
L 209.987689 197.968927 
L 210.158728 198.42207 
L 210.415286 199.099888 
L 210.671845 199.031699 
L 210.842884 198.358961 
L 210.928403 197.877109 
L 211.013922 197.921893 
L 211.184961 197.882978 
L 211.356 198.456649 
L 211.527039 199.092348 
L 211.783597 199.109613 
L 211.954636 198.670602 
L 212.040155 198.215453 
L 212.125675 198.246282 
L 212.296714 198.125558 
L 212.382233 198.225884 
L 212.724311 199.219425 
L 212.980869 199.162163 
L 213.151908 198.497247 
L 213.237427 197.987533 
L 213.322947 198.012014 
L 213.493986 197.919286 
L 213.665025 198.427978 
L 213.921583 199.153998 
L 214.178141 199.029483 
L 214.520219 197.438108 
L 214.691258 197.487432 
L 214.776777 197.588618 
L 215.204374 198.965218 
L 215.375413 198.916494 
L 215.546452 198.387438 
L 215.631971 197.862728 
L 215.717491 197.884656 
L 215.88853 197.794454 
L 216.059569 198.259614 
L 216.316127 198.980257 
L 216.572685 198.897905 
L 216.743724 198.114296 
L 216.829243 197.536867 
L 216.914763 197.556179 
L 217.085802 197.501538 
L 217.25684 198.092204 
L 217.513399 198.850174 
L 217.684438 198.868483 
L 217.769957 198.737139 
L 218.112035 196.994977 
L 218.197554 197.079599 
L 218.368593 197.271465 
L 218.79619 198.737522 
L 218.967229 198.728755 
L 219.138268 198.081361 
L 219.223787 197.523426 
L 219.309307 197.565176 
L 219.480346 197.550183 
L 219.651384 198.10958 
L 219.907943 198.873162 
L 220.164501 198.832617 
L 220.592098 197.375546 
L 220.677617 197.418606 
L 220.848656 198.090724 
L 221.105215 198.898568 
L 221.276253 198.954574 
L 221.361773 198.79154 
L 221.78937 196.934971 
L 222.045928 197.383305 
L 222.473525 198.84001 
L 222.644564 198.79569 
L 222.815603 198.102592 
L 222.901123 197.514127 
L 222.986642 197.560156 
L 223.157681 197.561044 
L 223.32872 198.160586 
L 223.585278 198.916099 
L 223.756317 198.93956 
L 223.841836 198.809293 
L 224.269433 197.177786 
L 224.354953 197.238372 
L 224.525992 197.978629 
L 224.78255 198.81088 
L 224.953589 198.838434 
L 225.124628 198.12264 
L 225.381186 196.748914 
L 225.552225 196.549175 
L 225.894302 197.598531 
L 226.150861 198.60166 
L 226.3219 198.629636 
L 226.407419 198.546586 
L 226.578458 197.659876 
L 226.663977 197.01153 
L 226.749497 197.093283 
L 226.920536 197.203472 
L 227.519172 198.726046 
L 227.604691 198.563034 
L 227.861249 196.788136 
L 227.946769 196.859143 
L 228.117808 197.012627 
L 228.630924 198.779754 
L 228.716444 198.789348 
L 228.887482 197.923799 
L 229.144041 196.662574 
L 229.400599 196.669235 
L 229.742677 197.766903 
L 229.999235 198.768985 
L 230.170274 198.82718 
L 230.255793 198.736329 
L 230.426832 197.813937 
L 230.512351 197.164526 
L 230.597871 197.251666 
L 230.76891 197.354237 
L 231.367546 198.93734 
L 231.453065 198.767341 
L 231.709623 196.950285 
L 231.795143 197.020745 
L 231.966182 197.180949 
L 232.479298 198.964948 
L 232.564818 198.968724 
L 232.735857 198.062344 
L 232.821376 197.366525 
L 232.906895 197.422465 
L 233.077934 197.48595 
L 233.248973 198.158473 
L 233.505531 198.992267 
L 233.67657 199.111363 
L 233.76209 198.974703 
L 234.018648 197.090003 
L 234.104167 197.154595 
L 234.275206 197.297707 
L 234.788323 199.043154 
L 234.873842 199.079622 
L 235.044881 198.223578 
L 235.301439 196.711438 
L 235.557998 197.256514 
L 235.985595 198.952845 
L 236.156634 198.969224 
L 236.413192 197.259533 
L 236.584231 197.412499 
L 236.75527 197.861724 
L 237.097347 199.11811 
L 237.268386 199.274691 
L 237.353906 199.094708 
L 237.610464 197.180522 
L 237.695983 197.283416 
L 237.867022 197.519343 
L 238.380139 199.34207 
L 238.465658 199.374135 
L 238.636697 198.410677 
L 238.893255 196.974358 
L 239.149813 197.56949 
L 239.577411 199.279515 
L 239.748449 199.294038 
L 240.005008 197.548023 
L 240.176047 197.722655 
L 240.347085 198.201653 
L 240.603644 199.366394 
L 240.860202 199.612044 
L 240.945721 199.400443 
L 241.20228 197.425034 
L 241.287799 197.537606 
L 241.458838 197.808413 
L 241.971955 199.632096 
L 242.057474 199.638071 
L 242.228513 198.589431 
L 242.485071 197.293985 
L 242.57059 197.12879 
L 242.912668 198.385965 
L 243.169226 199.453594 
L 243.340265 199.584856 
L 243.425785 199.444564 
L 243.682343 197.632927 
L 243.767862 197.781403 
L 243.938901 198.107839 
L 244.366498 199.645307 
L 244.537537 199.823075 
L 244.623057 199.55051 
L 244.879615 197.527056 
L 244.965134 197.689347 
L 245.136173 198.08933 
L 245.56377 199.828594 
L 245.734809 199.940763 
L 246.162406 197.61085 
L 246.247926 197.670407 
L 246.333445 197.605457 
L 246.761042 199.436753 
L 247.017601 200.042655 
L 247.10312 200.075737 
L 247.188639 199.889467 
L 247.445198 198.085639 
L 247.530717 198.263764 
L 247.701756 198.632853 
L 248.129353 200.121614 
L 248.300392 200.312343 
L 248.471431 199.309076 
L 248.64247 197.986068 
L 248.899028 198.628202 
L 249.326625 200.330589 
L 249.497664 200.416142 
L 249.754222 198.451066 
L 249.839742 198.59947 
L 250.010781 198.946826 
L 250.523897 200.60238 
L 250.609417 200.68564 
L 250.694936 200.425935 
L 250.951494 198.318576 
L 251.037014 198.493635 
L 251.208053 198.927387 
L 251.63565 200.58122 
L 251.806688 200.72468 
L 251.977727 199.53598 
L 252.234286 198.19207 
L 252.576363 199.520596 
L 252.832922 200.559204 
L 253.00396 200.798543 
L 253.08948 200.631967 
L 253.346038 198.649081 
L 253.431558 198.846362 
L 253.688116 199.723433 
L 253.944674 200.7583 
L 254.201232 201.07207 
L 254.372271 199.989988 
L 254.54331 198.633533 
L 254.799868 199.38865 
L 255.227466 201.058563 
L 255.398504 201.178058 
L 255.826101 198.60177 
L 256.168179 199.994948 
L 256.424737 201.015846 
L 256.595776 201.274704 
L 256.681296 201.063427 
L 256.937854 199.056962 
L 257.023373 199.273029 
L 257.279932 200.206419 
L 257.53649 201.211635 
L 257.793048 201.540026 
L 257.964087 200.371291 
L 258.135126 199.031709 
L 258.477204 200.287295 
L 258.733762 201.352126 
L 258.904801 201.666984 
L 258.99032 201.588239 
L 259.417917 199.165739 
L 259.503437 199.053143 
L 260.273112 201.676885 
L 260.44415 200.741986 
L 260.615189 199.423029 
L 260.957267 200.66001 
L 261.213825 201.604507 
L 261.470384 201.93348 
L 261.641422 200.657298 
L 261.812461 199.360837 
L 262.154539 200.769655 
L 262.411097 201.795032 
L 262.582136 202.142271 
L 262.667656 202.018857 
L 263.009733 199.58822 
L 263.095253 199.609044 
L 263.43733 199.996686 
L 263.864928 200.060986 
L 264.463563 200.195947 
L 266.002913 200.695705 
L 268.739535 201.694727 
L 268.825054 201.48948 
L 269.338171 203.409241 
L 269.594729 203.892193 
L 269.680248 203.664205 
L 269.936807 201.776882 
L 270.706482 204.128096 
L 270.792001 204.191245 
L 271.134079 201.756367 
L 271.219598 202.118833 
L 271.732715 204.030333 
L 271.903754 204.483514 
L 271.989273 204.370405 
L 272.331351 202.01629 
L 272.844467 202.464426 
L 273.101026 202.50882 
L 273.528623 202.679799 
L 274.127259 202.851793 
L 282.251604 206.342909 
L 282.337123 206.119401 
L 282.764721 207.679576 
L 282.935759 207.94271 
L 283.106798 208.331209 
L 283.192318 208.073121 
L 283.448876 206.281078 
L 283.876473 207.96745 
L 284.047512 208.066976 
L 284.30407 208.58599 
L 284.646148 206.252614 
L 285.073745 208.236904 
L 285.244784 208.377776 
L 285.415823 208.886045 
L 285.501342 208.717073 
L 285.84342 206.553652 
L 285.928939 206.469379 
L 286.356536 208.364907 
L 286.527575 208.637454 
L 286.698614 208.969886 
L 287.040692 206.672451 
L 287.126211 207.118921 
L 287.468289 208.720646 
L 287.639328 208.801866 
L 287.810367 209.258813 
L 287.895886 209.175352 
L 288.237964 206.715312 
L 288.665561 208.881841 
L 288.8366 209.03329 
L 289.007639 209.465775 
L 289.093158 209.153502 
L 289.349716 207.033087 
L 289.435236 207.048837 
L 289.691794 207.584632 
L 289.862833 207.559441 
L 290.033872 207.500832 
L 290.37595 207.824273 
L 291.658741 208.702667 
L 292.941532 209.378101 
L 293.967765 209.666774 
L 295.250557 210.058038 
L 298.756853 211.494019 
L 301.664514 212.612169 
L 304.828732 213.69389 
L 314.321389 215.736787 
L 320.649826 216.852825 
L 321.248462 217.2191 
L 321.419501 217.183522 
L 321.676059 216.965236 
L 322.103656 217.260872 
L 322.616773 217.289289 
L 322.873331 217.094135 
L 323.04437 217.163754 
L 323.386448 217.351322 
L 323.814045 217.429418 
L 324.070603 217.151216 
L 324.4982 217.456157 
L 325.011317 217.471555 
L 325.267875 217.196126 
L 325.695472 217.517092 
L 326.208589 217.502015 
L 326.465147 217.284521 
L 326.807225 217.276316 
L 327.320341 217.194153 
L 328.517613 217.334066 
L 329.116249 217.700325 
L 329.372808 217.713877 
L 329.629366 217.551584 
L 330.142482 217.793209 
L 330.826638 217.850321 
L 333.135662 217.848194 
L 333.306701 217.839783 
L 333.990857 218.038547 
L 334.247415 217.902326 
L 334.418454 217.884401 
L 334.93157 218.055371 
L 335.273648 218.058321 
L 335.615726 217.90289 
L 336.128842 218.091251 
L 336.47092 218.076266 
L 336.812998 217.875582 
L 337.326114 218.097415 
L 337.668192 218.132423 
L 338.01027 217.974897 
L 338.523386 218.173045 
L 338.865464 218.167461 
L 339.207542 218.016646 
L 339.720658 218.220907 
L 340.062736 218.204062 
L 341.345527 218.255177 
L 343.055916 218.322269 
L 343.91111 217.952319 
L 344.851824 217.872901 
L 345.36494 217.965202 
L 346.134615 218.440714 
L 346.818771 218.449043 
L 347.417407 218.544104 
L 347.845004 218.406239 
L 348.614678 218.637855 
L 349.042276 218.559492 
L 349.726431 218.730896 
L 350.410586 218.674838 
L 351.009222 218.754032 
L 351.693378 218.480337 
L 352.377533 218.372769 
L 353.745844 218.417629 
L 359.732204 218.88 
L 359.732204 218.88 
" clip-path="url(#p7095215feb)" style="fill: none; stroke: #1f77b4; stroke-width: 1.5; stroke-linecap: square"/>
   </g>
   <g id="line2d_15">
    <path d="M 55.368567 98.078908 
L 55.454087 87.722002 
L 55.539606 90.194727 
L 55.625126 91.187521 
L 55.710645 90.805376 
L 55.796165 90.923544 
L 56.138242 91.650583 
L 56.309281 91.326461 
L 56.48032 90.580925 
L 56.822398 88.661993 
L 57.677592 92.090653 
L 57.848631 92.123006 
L 58.01967 91.612589 
L 58.276228 91.667282 
L 58.618306 92.012879 
L 58.874864 91.432491 
L 59.131422 90.490709 
L 59.216942 90.588315 
L 59.644539 91.025456 
L 59.815578 90.864359 
L 60.072136 89.79775 
L 60.328694 88.349915 
L 60.414214 88.455232 
L 60.92733 88.941283 
L 61.098369 88.628428 
L 61.525966 87.185059 
L 62.38116 89.240222 
L 62.637719 89.050113 
L 63.065316 89.544609 
L 63.321874 89.739785 
L 63.749471 89.108543 
L 63.834991 88.728908 
L 64.433627 89.719666 
L 64.604665 89.027138 
L 64.946743 86.178269 
L 65.032263 86.297555 
L 65.545379 87.132136 
L 65.630899 87.074911 
L 65.972976 86.276326 
L 66.229535 86.750354 
L 66.91369 88.901332 
L 67.255768 90.012475 
L 67.597845 90.843555 
L 68.025442 92.431964 
L 68.45304 94.02381 
L 68.966156 94.775594 
L 69.137195 94.939062 
L 69.308234 94.262482 
L 69.564792 92.412628 
L 69.650312 92.472802 
L 69.992389 92.842771 
L 70.248948 93.156512 
L 70.334467 93.058499 
L 70.591025 92.020307 
L 70.676545 92.047683 
L 71.104142 92.354322 
L 71.3607 92.517183 
L 71.531739 92.342834 
L 71.788297 91.824737 
L 71.873817 91.880941 
L 72.729011 92.436549 
L 72.985569 92.108784 
L 73.071089 91.927851 
L 73.584205 92.546759 
L 73.926283 92.967423 
L 74.097322 92.769936 
L 74.268361 92.451219 
L 74.781477 93.242191 
L 75.123555 94.250085 
L 75.209074 94.217065 
L 75.465633 93.534004 
L 75.551152 93.650763 
L 76.320827 94.731263 
L 76.577385 94.076103 
L 76.662904 93.794729 
L 77.34706 94.613404 
L 77.518099 94.443072 
L 77.860176 93.764346 
L 78.544332 94.766768 
L 78.715371 94.794471 
L 78.971929 94.251115 
L 79.228487 93.489234 
L 79.485046 93.92952 
L 79.656084 94.074477 
L 80.083682 94.899794 
L 80.25472 94.705772 
L 80.425759 93.65793 
L 80.511279 92.63221 
L 80.596798 92.852278 
L 80.682317 92.949857 
L 80.853356 92.791877 
L 80.938876 92.933824 
L 81.109915 93.56687 
L 81.280953 92.660966 
L 81.708551 89.963985 
L 82.050628 91.130565 
L 82.221667 91.485021 
L 82.307187 91.395239 
L 82.734784 89.653967 
L 82.905823 89.984816 
L 83.589978 92.432922 
L 84.188614 93.574939 
L 84.958289 95.943912 
L 85.214847 96.212538 
L 85.300366 96.142266 
L 85.642444 97.314393 
L 85.984522 98.747914 
L 86.070041 98.688274 
L 86.3266 98.260933 
L 86.497638 98.232004 
L 87.010755 99.737247 
L 87.181794 99.786102 
L 87.609391 99.164681 
L 88.208027 100.721228 
L 88.379066 100.737043 
L 88.806663 100.254551 
L 89.576338 102.137495 
L 89.832896 101.399817 
L 89.918415 101.087751 
L 90.346013 101.929555 
L 90.68809 102.544114 
L 91.286726 101.0649 
L 91.628804 102.409626 
L 91.885362 102.859818 
L 91.970882 102.792247 
L 92.398479 101.393056 
L 92.483998 101.356204 
L 92.655037 101.655644 
L 93.424712 103.517261 
L 93.852309 103.155171 
L 94.536464 104.064829 
L 94.707503 103.907342 
L 95.049581 103.403039 
L 95.562698 104.451795 
L 95.733736 104.459687 
L 95.990295 103.774444 
L 96.246853 103.069898 
L 96.845489 104.716911 
L 97.016528 104.258532 
L 97.273086 103.41988 
L 97.358606 103.322654 
L 97.957241 104.716912 
L 98.12828 104.489845 
L 98.384839 104.146996 
L 98.641397 104.121596 
L 99.240033 104.904562 
L 99.496591 104.331187 
L 99.753149 103.48314 
L 99.838669 103.684887 
L 100.351785 104.817162 
L 100.522824 104.434175 
L 100.779383 103.789751 
L 100.950421 103.748751 
L 101.20698 104.264698 
L 101.720096 105.259357 
L 102.062174 105.550058 
L 102.147693 105.461083 
L 102.66081 107.059836 
L 102.746329 107.08895 
L 102.917368 106.607422 
L 103.259446 105.694554 
L 103.772562 107.073767 
L 103.943601 107.139812 
L 104.542237 105.956372 
L 104.713276 106.057827 
L 104.798796 105.918445 
L 105.311912 107.139728 
L 105.397432 107.169307 
L 105.56847 106.795489 
L 105.910548 105.813629 
L 106.338145 106.862999 
L 106.594704 107.010907 
L 106.765742 106.524901 
L 107.10782 105.139025 
L 107.706456 106.858672 
L 107.791975 106.723913 
L 108.219573 104.715663 
L 108.305092 104.954241 
L 108.732689 106.159675 
L 108.818209 106.216323 
L 108.903728 106.116741 
L 109.160286 104.812264 
L 109.416845 103.404379 
L 109.929961 104.7967 
L 110.015481 104.724129 
L 110.699636 102.614757 
L 110.785155 102.816491 
L 111.127233 103.56107 
L 111.298272 103.550586 
L 111.811388 103.054458 
L 112.581063 104.106134 
L 112.923141 104.034678 
L 113.607296 104.714848 
L 113.863855 104.616342 
L 114.120413 104.558268 
L 114.63353 104.927315 
L 114.890088 104.907988 
L 115.232166 104.593786 
L 115.659763 104.951856 
L 116.00184 104.938538 
L 116.343918 104.48297 
L 116.429437 104.356251 
L 116.857035 104.639983 
L 117.113593 104.599724 
L 117.370151 104.245239 
L 117.626709 103.979414 
L 117.883268 104.154139 
L 118.310865 104.591598 
L 118.481904 104.628319 
L 118.738462 104.345102 
L 118.99502 104.125679 
L 119.166059 104.215197 
L 119.679176 105.087673 
L 119.850214 105.156808 
L 120.277812 104.68007 
L 120.363331 104.824984 
L 120.790928 105.362455 
L 120.961967 105.410449 
L 121.133006 105.218486 
L 121.475084 104.722277 
L 121.9882 105.38791 
L 122.159239 105.448886 
L 122.330278 105.211276 
L 122.586836 104.83494 
L 123.185472 105.591751 
L 123.356511 105.564401 
L 123.698589 105.179922 
L 123.784108 105.163619 
L 124.382744 105.90058 
L 124.553783 105.947705 
L 124.98138 105.439628 
L 125.665535 106.67178 
L 125.836574 106.485431 
L 126.178652 105.99506 
L 126.264171 105.951611 
L 126.862807 107.318294 
L 126.948327 107.380353 
L 127.119366 107.12858 
L 127.375924 106.680165 
L 128.060079 107.795189 
L 128.145599 107.745238 
L 128.573196 106.895794 
L 129.342871 108.540675 
L 129.599429 108.385722 
L 129.770468 108.482085 
L 130.198065 109.18428 
L 130.711182 110.323491 
L 130.88222 110.218389 
L 131.138779 109.908938 
L 131.224298 109.95058 
L 131.822934 110.963412 
L 131.993973 111.009624 
L 132.336051 110.613754 
L 132.42157 110.598048 
L 133.191245 111.730914 
L 133.533323 111.691158 
L 134.302997 112.562826 
L 134.730595 112.195978 
L 135.500269 113.471836 
L 135.842347 113.309784 
L 136.098905 113.584406 
L 136.612022 114.445997 
L 136.783061 114.368487 
L 137.039619 114.149426 
L 137.210658 114.388001 
L 137.809294 115.739999 
L 138.065852 116.22664 
L 138.236891 116.030003 
L 138.493449 115.834075 
L 139.348644 117.231548 
L 139.519682 117.232261 
L 139.776241 117.571666 
L 140.460396 118.694099 
L 140.802474 118.499498 
L 140.973513 118.781673 
L 141.657668 120.707979 
L 141.999746 121.221625 
L 142.512862 121.066673 
L 143.282537 122.561429 
L 143.539095 122.376015 
L 143.710134 122.579906 
L 144.223251 123.396358 
L 144.39429 123.386682 
L 144.565329 123.293405 
L 144.907406 123.715344 
L 145.506042 124.440525 
L 145.677081 124.446305 
L 145.933639 124.357142 
L 146.104678 124.428218 
L 146.788834 125.785514 
L 147.216431 125.809193 
L 147.986106 126.74316 
L 148.242664 126.457878 
L 148.413703 126.519164 
L 148.926819 127.321791 
L 149.525455 127.569413 
L 149.953052 127.90497 
L 150.808247 128.451843 
L 151.577921 129.376256 
L 151.919999 129.167725 
L 152.262077 129.590595 
L 152.689674 130.004872 
L 153.031752 130.377298 
L 153.801427 131.498571 
L 153.972465 131.639717 
L 154.485582 132.290512 
L 154.656621 132.263691 
L 155.084218 131.720899 
L 155.511815 132.340838 
L 155.768373 132.303439 
L 156.110451 132.185555 
L 156.19597 132.17634 
L 156.709087 132.709445 
L 157.478762 132.934609 
L 157.991878 133.412551 
L 158.333956 133.416353 
L 158.676034 133.307084 
L 159.103631 133.730147 
L 159.360189 133.659006 
L 159.787786 133.479361 
L 160.215383 133.841297 
L 160.471942 133.782879 
L 160.985058 133.549556 
L 161.412655 133.97181 
L 161.754733 133.943003 
L 162.096811 133.779656 
L 162.524408 134.15658 
L 162.780966 134.114345 
L 163.037525 133.837157 
L 163.208563 133.52779 
L 163.72168 134.064934 
L 163.978238 133.944441 
L 164.576874 133.442115 
L 165.004471 133.99716 
L 165.26103 134.018598 
L 165.774146 133.990278 
L 166.201743 134.421079 
L 166.543821 134.394186 
L 166.971418 134.321064 
L 167.399015 134.757581 
L 167.741093 134.686751 
L 168.681807 134.247547 
L 171.16187 134.211752 
L 173.299856 134.867162 
L 173.727453 135.4164 
L 173.984011 135.409802 
L 174.497128 135.243775 
L 174.924725 135.76964 
L 175.181283 135.715835 
L 175.6944 135.474326 
L 176.036477 135.580071 
L 176.464074 136.103325 
L 176.806152 136.043055 
L 177.14823 135.996035 
L 177.575827 136.460164 
L 177.832385 136.42588 
L 178.345502 136.294655 
L 178.773099 136.761045 
L 179.115177 136.71165 
L 179.457254 136.652393 
L 179.884851 137.074974 
L 180.226929 137.031608 
L 180.654526 136.861099 
L 181.082123 137.287625 
L 181.424201 137.224832 
L 181.937318 136.88644 
L 182.450434 137.448381 
L 182.792512 137.36832 
L 183.13459 137.266538 
L 183.562187 137.685186 
L 183.818745 137.644438 
L 184.331862 137.418085 
L 184.759459 137.85476 
L 185.101536 137.784145 
L 185.443614 137.717218 
L 185.871211 138.125124 
L 186.213289 138.075994 
L 186.640886 137.945987 
L 187.068483 138.350325 
L 187.410561 138.303876 
L 187.838158 138.182748 
L 188.265755 138.600773 
L 188.607833 138.533859 
L 188.949911 138.443682 
L 189.377508 138.831783 
L 189.719585 138.780622 
L 190.147182 138.592216 
L 190.57478 138.995711 
L 190.831338 138.965841 
L 191.601013 138.670379 
L 192.02861 139.1048 
L 192.370688 139.046178 
L 192.712765 138.941945 
L 193.140362 139.349956 
L 193.396921 139.32003 
L 193.910037 139.088076 
L 194.337634 139.525777 
L 194.679712 139.47463 
L 195.02179 139.382334 
L 195.534906 139.810414 
L 195.876984 139.706334 
L 196.219062 139.57374 
L 196.646659 139.983357 
L 196.903217 139.979267 
L 197.501853 139.746195 
L 197.92945 140.169118 
L 198.186009 140.143262 
L 198.613606 139.975995 
L 199.041203 140.363989 
L 199.297761 140.351117 
L 199.639839 140.057439 
L 199.725358 139.935452 
L 200.238475 140.436345 
L 200.495033 140.41064 
L 201.521266 139.890205 
L 203.402693 139.776071 
L 205.027563 139.690304 
L 205.113082 139.61023 
L 205.626199 140.211472 
L 205.882757 140.206002 
L 206.139315 139.996064 
L 206.224835 139.87079 
L 206.823471 140.408337 
L 207.080029 140.329742 
L 207.422107 139.928019 
L 207.507626 140.03993 
L 207.935223 140.493264 
L 208.191781 140.486534 
L 208.619378 140.233015 
L 209.046976 140.640645 
L 209.303534 140.647757 
L 209.560092 140.431396 
L 209.731131 140.179632 
L 210.329767 140.716124 
L 210.586325 140.644751 
L 210.928403 140.207713 
L 211.013922 140.322142 
L 211.44152 140.760525 
L 211.698078 140.734659 
L 211.954636 140.468903 
L 212.040155 140.335981 
L 212.638791 140.858667 
L 212.89535 140.787737 
L 213.237427 140.306697 
L 213.322947 140.413776 
L 213.750544 140.849301 
L 214.007102 140.838363 
L 214.263661 140.572429 
L 214.520219 140.221234 
L 215.033335 140.809818 
L 215.289894 140.782436 
L 215.546452 140.502758 
L 215.631971 140.360433 
L 216.230607 140.92447 
L 216.487166 140.832449 
L 216.829243 140.313272 
L 216.914763 140.430717 
L 217.34236 140.900127 
L 217.598918 140.89624 
L 217.855476 140.623296 
L 218.112035 140.272222 
L 218.539632 140.852205 
L 218.79619 140.903606 
L 219.052748 140.709143 
L 219.223787 140.452241 
L 219.736904 141.017771 
L 219.993462 141.013659 
L 220.25002 140.731113 
L 220.421059 140.433039 
L 220.934176 141.041556 
L 221.190734 141.042237 
L 221.447292 140.762882 
L 221.78937 140.363781 
L 222.216967 140.954154 
L 222.559045 140.993026 
L 222.815603 140.71874 
L 222.901123 140.557817 
L 223.414239 141.13586 
L 223.670797 141.125087 
L 223.927356 140.818968 
L 224.098395 140.501969 
L 224.611511 141.14124 
L 224.868069 141.149478 
L 225.124628 140.846606 
L 225.381186 140.545566 
L 225.637744 140.547223 
L 225.979822 141.009737 
L 226.3219 141.080745 
L 226.578458 140.789066 
L 226.663977 140.610655 
L 227.177094 141.205544 
L 227.433652 141.210801 
L 227.69021 140.914523 
L 227.861249 140.607462 
L 228.374366 141.269794 
L 228.630924 141.294906 
L 228.887482 140.993622 
L 229.144041 140.697644 
L 229.486118 140.696303 
L 229.828196 141.185239 
L 230.170274 141.27607 
L 230.426832 140.969882 
L 230.512351 140.781909 
L 231.025468 141.394498 
L 231.282026 141.415667 
L 231.538585 141.135123 
L 231.709623 140.828751 
L 232.22274 141.504622 
L 232.479298 141.542143 
L 232.735857 141.243366 
L 232.821376 141.086893 
L 233.334493 141.682499 
L 233.591051 141.727625 
L 233.847609 141.451534 
L 234.018648 141.131159 
L 234.531764 141.76185 
L 234.788323 141.810783 
L 235.044881 141.529645 
L 235.301439 141.155132 
L 235.729036 141.763447 
L 236.071114 141.855915 
L 236.327672 141.581532 
L 236.413192 141.425106 
L 236.926308 142.006599 
L 237.182867 142.050698 
L 237.439425 141.780943 
L 237.610464 141.473657 
L 238.12358 142.104525 
L 238.380139 142.162422 
L 238.636697 141.893502 
L 238.893255 141.511018 
L 239.320852 142.12842 
L 239.66293 142.237865 
L 239.919488 141.969063 
L 240.005008 141.8084 
L 240.518124 142.395428 
L 240.774683 142.449233 
L 241.031241 142.186942 
L 241.20228 141.881429 
L 241.715396 142.516054 
L 241.971955 142.588131 
L 242.228513 142.327356 
L 242.57059 141.92395 
L 242.998188 142.537755 
L 243.340265 142.688333 
L 243.511304 142.560312 
L 243.682343 142.264535 
L 244.19546 142.834935 
L 244.537537 142.858182 
L 244.879615 142.373759 
L 244.965134 142.514726 
L 245.307212 142.958494 
L 245.64929 143.092234 
L 245.905848 142.85046 
L 246.162406 142.564005 
L 246.418965 142.598891 
L 246.761042 143.071572 
L 247.10312 143.248017 
L 247.274159 143.123699 
L 247.445198 142.811893 
L 247.530717 142.935642 
L 247.872795 143.339521 
L 248.300392 143.430331 
L 248.55695 143.127603 
L 248.64247 142.964282 
L 249.070067 143.547093 
L 249.497664 143.662065 
L 249.754222 143.316971 
L 249.839742 143.433969 
L 250.267339 143.863006 
L 250.609417 143.933422 
L 250.865975 143.615859 
L 250.951494 143.450323 
L 251.464611 144.039933 
L 251.806688 144.117654 
L 252.148766 143.701873 
L 252.234286 143.561766 
L 252.661883 144.137352 
L 253.08948 144.281939 
L 253.346038 143.933533 
L 253.431558 144.049242 
L 253.859155 144.467782 
L 254.201232 144.533496 
L 254.457791 144.220858 
L 254.54331 144.053766 
L 255.056427 144.649816 
L 255.398504 144.730797 
L 255.740582 144.294574 
L 255.826101 144.143843 
L 256.253699 144.73918 
L 256.595776 144.929197 
L 256.766815 144.807194 
L 256.937854 144.515482 
L 257.023373 144.633974 
L 257.450971 145.065763 
L 257.793048 145.136139 
L 258.049607 144.811812 
L 258.135126 144.638826 
L 258.648243 145.253046 
L 258.904801 145.379465 
L 259.07584 145.258003 
L 259.503437 144.714779 
L 259.931034 145.339008 
L 260.273112 145.563547 
L 260.44415 145.438577 
L 260.615189 145.116773 
L 260.700709 145.23522 
L 261.128306 145.670638 
L 261.470384 145.756158 
L 261.726942 145.442087 
L 261.812461 145.269099 
L 262.325578 145.89683 
L 262.582136 146.034393 
L 262.753175 145.911527 
L 263.180772 145.44844 
L 264.634602 145.52244 
L 265.831874 145.838471 
L 268.825054 146.868788 
L 269.338171 147.566467 
L 269.680248 147.79033 
L 269.851287 147.674389 
L 269.936807 147.545782 
L 270.535443 148.1252 
L 270.792001 148.279142 
L 271.048559 148.129757 
L 271.134079 147.986285 
L 271.647195 148.521662 
L 271.989273 148.725566 
L 272.160312 148.610091 
L 272.41687 148.320646 
L 272.673428 148.338329 
L 273.186545 148.395459 
L 273.699661 148.498603 
L 275.324531 149.096247 
L 282.251604 152.328584 
L 282.337123 152.301872 
L 282.935759 153.052306 
L 283.192318 153.248711 
L 283.363357 153.162096 
L 283.448876 153.035142 
L 284.30407 153.769984 
L 284.475109 153.757228 
L 284.731667 153.615993 
L 285.586862 154.282376 
L 285.84342 153.996918 
L 285.928939 153.85524 
L 286.784134 154.75167 
L 286.955172 154.632226 
L 287.040692 154.464279 
L 287.126211 154.530188 
L 288.066925 155.065587 
L 288.237964 154.774511 
L 288.323483 154.851187 
L 289.178678 155.480339 
L 289.777314 155.023705 
L 290.204911 155.085629 
L 290.632508 155.178247 
L 292.513935 156.108953 
L 294.224324 156.896512 
L 296.704387 158.016 
L 298.927892 159.115204 
L 300.980358 160.462364 
L 302.861786 161.589736 
L 310.558534 165.749498 
L 313.380675 166.968912 
L 321.248462 169.996711 
L 321.59054 170.329986 
L 322.103656 170.228908 
L 322.360215 170.386318 
L 322.787812 170.791089 
L 323.12989 170.641297 
L 323.471967 170.67716 
L 323.814045 171.084519 
L 323.985084 171.182275 
L 324.4982 171.002156 
L 324.754759 171.11867 
L 325.182356 171.46484 
L 325.524434 171.310554 
L 325.780992 171.305666 
L 326.03755 171.520782 
L 326.294108 171.731099 
L 327.063783 171.481583 
L 328.175536 171.562069 
L 329.03073 171.804822 
L 329.629366 172.167576 
L 330.313521 172.226772 
L 330.741118 172.53078 
L 332.451507 172.638586 
L 332.964624 172.864541 
L 333.905337 172.838054 
L 334.247415 173.069507 
L 335.01709 172.973168 
L 335.444687 173.236857 
L 336.043323 173.049576 
L 336.299881 173.186405 
L 336.641959 173.344082 
L 337.155075 173.134625 
L 337.411634 173.177453 
L 337.92475 173.394751 
L 338.608906 173.328321 
L 339.036503 173.529058 
L 339.4641 173.374513 
L 339.806178 173.440618 
L 340.233775 173.63199 
L 342.713838 173.746239 
L 343.141435 173.813855 
L 344.680785 173.42181 
L 345.621499 173.376785 
L 346.049096 173.516604 
L 346.391173 173.664002 
L 346.989809 173.59064 
L 347.331887 173.74373 
L 347.588445 173.814869 
L 348.187081 173.688745 
L 348.529159 173.824274 
L 348.785717 173.935504 
L 349.469873 173.846661 
L 350.154028 173.981462 
L 350.752664 173.955934 
L 351.180261 174.07306 
L 352.035456 173.735198 
L 353.489286 173.366413 
L 354.943116 173.233235 
L 357.25214 173.272442 
L 359.219087 173.502729 
L 359.732204 173.588108 
L 359.732204 173.588108 
" clip-path="url(#p7095215feb)" style="fill: none; stroke: #ff7f0e; stroke-width: 1.5; stroke-linecap: square"/>
   </g>
   <g id="line2d_16">
    <path d="M 55.368567 17.28 
L 55.710645 31.043804 
L 55.796165 31.162579 
L 56.309281 30.390078 
L 56.822398 28.210967 
L 57.164475 30.500451 
L 57.421034 30.453696 
L 57.677592 28.592183 
L 57.848631 27.991503 
L 58.276228 29.469813 
L 59.045903 31.133129 
L 59.131422 31.062352 
L 59.815578 32.043008 
L 59.986616 31.945304 
L 60.157655 31.550753 
L 60.328694 30.561505 
L 60.414214 30.81707 
L 60.841811 32.168791 
L 61.01285 32.185048 
L 61.183888 31.656044 
L 61.525966 29.279587 
L 61.611486 29.404813 
L 61.782524 29.898573 
L 62.124602 31.086063 
L 62.295641 31.020918 
L 62.46668 30.355507 
L 62.552199 29.763099 
L 62.637719 29.880217 
L 62.894277 30.569398 
L 63.150835 31.17263 
L 63.321874 31.178814 
L 63.492913 30.833101 
L 63.749471 29.693819 
L 63.834991 29.028825 
L 64.091549 30.264812 
L 64.348107 31.262815 
L 64.519146 31.342167 
L 64.690185 31.046455 
L 64.946743 29.988895 
L 65.288821 32.046306 
L 65.716418 34.51129 
L 65.801937 34.44471 
L 65.972976 33.562099 
L 66.058496 33.753828 
L 66.400573 34.719355 
L 66.742651 35.731667 
L 66.91369 34.901159 
L 67.170248 33.662526 
L 67.597845 33.756702 
L 67.854404 33.758679 
L 68.025442 33.41622 
L 68.282001 32.171022 
L 68.36752 31.619096 
L 68.45304 31.707983 
L 68.795117 32.409382 
L 69.051676 32.774735 
L 69.222714 32.726434 
L 69.479273 32.223649 
L 69.564792 32.016032 
L 69.82135 32.771828 
L 70.248948 34.113015 
L 70.419986 34.264643 
L 70.676545 34.164778 
L 71.104142 34.93723 
L 71.531739 35.670755 
L 71.702778 35.569079 
L 71.788297 35.386596 
L 72.130375 35.819874 
L 72.729011 37.026531 
L 72.81453 36.927983 
L 72.985569 36.211305 
L 73.071089 35.636474 
L 73.156608 35.730457 
L 73.413166 36.262581 
L 73.669725 36.836538 
L 73.755244 36.823734 
L 73.926283 36.321551 
L 74.182841 34.551471 
L 74.268361 33.775744 
L 74.35388 33.864981 
L 74.524919 34.288726 
L 74.866997 35.270786 
L 75.294594 34.950311 
L 75.465633 34.404215 
L 75.551152 34.547327 
L 75.80771 35.369113 
L 76.149788 36.347893 
L 76.320827 36.365221 
L 76.491866 36.13992 
L 76.662904 35.567323 
L 76.748424 35.672637 
L 77.004982 36.229606 
L 77.432579 37.304603 
L 77.603618 37.247236 
L 77.860176 36.616303 
L 77.945696 36.667287 
L 78.116735 36.886624 
L 78.458812 38.106286 
L 78.715371 38.617497 
L 78.80089 38.543796 
L 78.971929 37.646807 
L 79.228487 35.133602 
L 79.314007 35.331188 
L 79.570565 36.805997 
L 79.827123 38.138946 
L 79.912643 38.276088 
L 79.998162 38.20451 
L 80.169201 36.927532 
L 80.511279 33.312775 
L 81.195434 38.742809 
L 81.708551 34.392195 
L 81.79407 34.4352 
L 81.879589 34.670002 
L 82.050628 36.567287 
L 82.307187 39.995536 
L 82.478225 38.94839 
L 82.905823 35.767828 
L 82.991342 35.835859 
L 83.076861 35.773227 
L 83.2479 37.051775 
L 83.675497 41.437755 
L 83.761017 41.297682 
L 84.188614 38.634363 
L 84.445172 40.303336 
L 84.78725 42.882266 
L 84.872769 42.893374 
L 85.043808 41.849994 
L 85.300366 38.873363 
L 85.385886 39.250579 
L 85.642444 41.4808 
L 85.899002 43.391942 
L 85.984522 43.532574 
L 86.070041 43.170294 
L 86.497638 39.706807 
L 86.754197 42.113801 
L 87.096274 45.367437 
L 87.181794 45.662432 
L 87.267313 45.216463 
L 87.523872 42.445402 
L 87.609391 42.27101 
L 87.865949 43.835857 
L 88.208027 46.496227 
L 88.379066 46.7808 
L 88.721144 44.571973 
L 88.806663 44.6882 
L 89.576338 48.885908 
L 89.918415 46.584127 
L 90.003935 46.681784 
L 90.174974 47.025235 
L 90.602571 49.170104 
L 90.68809 49.091505 
L 90.859129 47.80683 
L 91.286726 42.97494 
L 91.457765 43.728705 
L 91.885362 47.559228 
L 91.970882 47.539074 
L 92.141921 45.840986 
L 92.312959 44.410377 
L 92.398479 44.327444 
L 92.569518 45.040269 
L 93.082634 49.830277 
L 93.339193 51.6219 
L 93.510231 51.907023 
L 93.68127 50.888456 
L 93.852309 49.061435 
L 93.937828 49.257195 
L 94.108867 49.90034 
L 94.450945 51.483842 
L 94.621984 51.517758 
L 94.793023 50.64011 
L 95.049581 48.520016 
L 95.306139 49.513759 
L 95.648217 51.573116 
L 95.733736 51.657997 
L 95.819256 51.506747 
L 96.246853 48.734964 
L 96.332372 48.862575 
L 96.503411 49.624045 
L 96.845489 52.443123 
L 96.931008 52.410221 
L 97.102047 51.452235 
L 97.358606 49.839588 
L 97.529644 50.380565 
L 98.042761 52.985119 
L 98.12828 53.00057 
L 98.299319 52.21345 
L 98.555877 50.163397 
L 98.641397 50.530494 
L 99.240033 53.293376 
L 99.325552 53.121614 
L 99.582111 50.548975 
L 99.753149 48.817493 
L 100.009708 50.280339 
L 100.351785 53.25546 
L 100.437305 53.396762 
L 100.522824 52.971773 
L 100.864902 50.174629 
L 101.463538 51.58696 
L 101.549057 51.529317 
L 102.147693 50.027229 
L 102.404252 51.807699 
L 102.746329 55.083249 
L 102.831849 55.095335 
L 103.259446 51.581398 
L 103.430485 52.245304 
L 103.687043 54.94656 
L 103.943601 57.020978 
L 104.029121 56.942637 
L 104.456718 53.52688 
L 104.713276 52.791502 
L 104.798796 52.517488 
L 104.969834 53.222641 
L 105.397432 56.757367 
L 105.482951 56.571566 
L 105.739509 53.269931 
L 105.910548 51.680961 
L 106.081587 52.119846 
L 106.252626 53.571585 
L 106.594704 56.761754 
L 106.680223 56.505685 
L 107.10782 52.381005 
L 107.278859 52.796775 
L 107.449898 54.437629 
L 107.706456 57.500451 
L 107.791975 57.759837 
L 107.877495 57.368815 
L 108.219573 53.061498 
L 108.390611 53.451597 
L 108.56165 54.64109 
L 108.903728 57.397825 
L 108.989247 57.293418 
L 109.245806 53.546074 
L 109.416845 51.814491 
L 109.673403 52.857004 
L 110.101 56.515619 
L 110.186519 56.225226 
L 110.699636 51.42704 
L 110.870675 52.123853 
L 111.041714 53.85536 
L 111.298272 56.358774 
L 111.383791 56.348511 
L 111.469311 56.040104 
L 111.811388 52.868438 
L 112.495544 57.708838 
L 112.581063 57.654368 
L 112.752102 56.571274 
L 112.923141 55.035437 
L 113.521777 58.850245 
L 113.778335 58.937965 
L 113.949374 58.026187 
L 114.120413 56.596352 
L 114.205932 56.760048 
L 114.376971 57.112888 
L 114.890088 59.521207 
L 114.975607 59.408509 
L 115.403204 57.58456 
L 115.488724 57.699792 
L 115.659763 58.678038 
L 115.916321 60.096444 
L 116.00184 60.140622 
L 116.08736 60.022579 
L 116.258399 58.855678 
L 116.429437 56.819181 
L 116.514957 56.836285 
L 116.600476 56.850806 
L 116.685996 57.02783 
L 117.113593 59.480693 
L 117.199112 59.382599 
L 117.370151 58.387058 
L 117.626709 56.178774 
L 117.797748 56.066318 
L 118.054307 56.649088 
L 118.567423 59.639944 
L 118.652943 59.325646 
L 119.08054 55.545014 
L 119.251579 55.396419 
L 119.337098 55.491438 
L 119.508137 56.653957 
L 119.850214 60.224522 
L 119.935734 60.47505 
L 120.021253 60.207159 
L 120.44885 56.322613 
L 120.53437 56.322103 
L 120.705409 57.738126 
L 120.961967 60.288263 
L 121.047486 60.430435 
L 121.133006 60.193602 
L 121.646122 55.91637 
L 121.731642 56.085241 
L 121.902681 57.654888 
L 122.159239 60.030481 
L 122.244758 60.220313 
L 122.330278 59.919655 
L 122.672356 56.94586 
L 122.757875 56.75213 
L 122.843394 56.800105 
L 123.014433 58.108702 
L 123.270992 60.534929 
L 123.356511 60.744776 
L 123.44203 60.557959 
L 123.955147 56.780758 
L 124.040666 56.893929 
L 124.211705 58.245855 
L 124.553783 60.99203 
L 124.639302 60.919771 
L 125.152419 56.393682 
L 125.237938 56.548463 
L 125.408977 58.231919 
L 125.665535 61.100311 
L 125.751055 61.366015 
L 125.922094 59.295191 
L 126.178652 56.197507 
L 126.264171 55.862287 
L 126.349691 55.898909 
L 126.43521 55.945327 
L 126.606249 57.114872 
L 126.948327 61.004189 
L 127.033846 61.327843 
L 127.119366 60.768429 
L 127.375924 57.351468 
L 127.546963 57.320157 
L 127.632482 57.578242 
L 127.889041 60.239455 
L 128.145599 62.131375 
L 128.231118 61.694377 
L 128.573196 57.138115 
L 128.829754 57.966332 
L 129.342871 62.834037 
L 129.42839 62.52759 
L 129.770468 59.232053 
L 129.855987 59.212341 
L 130.112546 58.601963 
L 130.369104 60.077333 
L 130.796701 64.603118 
L 130.88222 64.484473 
L 131.224298 60.858536 
L 131.309818 60.886815 
L 131.395337 60.834594 
L 131.480856 60.955925 
L 131.651895 62.130706 
L 131.993973 64.834664 
L 132.079492 64.64307 
L 132.42157 61.18195 
L 132.763648 62.422835 
L 133.191245 65.907399 
L 133.276764 65.547409 
L 133.533323 62.561476 
L 133.789881 62.605324 
L 133.96092 63.778716 
L 134.302997 66.082852 
L 134.388517 65.966304 
L 134.730595 62.440149 
L 135.072672 64.192806 
L 135.41475 67.066856 
L 135.500269 67.382229 
L 135.585789 67.14906 
L 135.927867 63.87408 
L 136.184425 63.592864 
L 136.269944 63.814396 
L 136.526503 66.410476 
L 136.783061 68.242437 
L 137.125139 64.50409 
L 137.210658 64.515287 
L 137.381697 64.727263 
L 137.552736 64.683811 
L 137.638255 64.946001 
L 137.894813 67.665047 
L 138.065852 69.018398 
L 138.151372 68.790364 
L 138.493449 65.988662 
L 138.750008 66.734682 
L 139.263124 70.69693 
L 139.434163 69.243478 
L 139.605202 67.776557 
L 139.86176 67.507381 
L 139.94728 67.387722 
L 140.032799 67.549547 
L 140.289357 69.918959 
L 140.460396 71.306728 
L 140.545916 71.301464 
L 140.887993 68.555296 
L 141.059032 68.728359 
L 141.572149 69.733509 
L 142.085265 73.887938 
L 142.256304 72.67702 
L 142.512862 70.82415 
L 142.85494 72.401116 
L 143.197018 75.289138 
L 143.282537 75.314027 
L 143.453576 74.03637 
L 143.710134 72.51842 
L 143.795654 72.456886 
L 143.881173 72.61605 
L 144.052212 73.921089 
L 144.30877 75.791108 
L 144.39429 75.997833 
L 144.479809 75.795894 
L 144.821887 73.105788 
L 145.335003 75.473219 
L 145.591562 76.670786 
L 145.677081 76.293228 
L 146.019159 73.673396 
L 146.104678 73.57109 
L 146.361236 74.864426 
L 146.788834 78.516481 
L 146.874353 78.502396 
L 147.216431 76.15544 
L 147.558508 76.965187 
L 147.986106 79.394143 
L 148.071625 79.184292 
L 148.413703 76.283966 
L 148.670261 77.007886 
L 149.183378 80.222543 
L 149.268897 79.935445 
L 149.525455 77.58191 
L 149.610975 77.651241 
L 149.782014 77.832665 
L 150.038572 79.421302 
L 150.29513 80.503147 
L 150.38065 80.384296 
L 150.722727 77.87403 
L 151.406883 81.71263 
L 151.492402 81.638435 
L 151.663441 80.554648 
L 151.919999 79.192737 
L 152.176557 79.811174 
L 152.433116 79.844393 
L 152.946232 80.550579 
L 153.28831 81.441943 
L 153.715907 82.423284 
L 153.886946 82.48199 
L 154.229024 83.726773 
L 154.485582 85.307804 
L 154.571101 85.360638 
L 154.74214 85.003011 
L 155.255257 82.882937 
L 155.340776 82.936724 
L 155.511815 83.863851 
L 155.768373 85.183533 
L 155.853893 85.248233 
L 155.939412 85.075496 
L 156.367009 83.32015 
L 156.452529 83.382875 
L 156.623568 84.188275 
L 156.880126 85.532365 
L 157.051165 85.588572 
L 157.222204 84.65499 
L 157.393242 83.345824 
L 157.82084 85.330883 
L 157.991878 85.949651 
L 158.162917 85.876751 
L 158.333956 85.087861 
L 158.590514 83.10764 
L 159.27467 85.905778 
L 159.360189 85.864866 
L 159.531228 84.820637 
L 159.702267 83.616309 
L 160.044345 85.077398 
L 160.386422 86.364837 
L 160.557461 86.46568 
L 160.899539 84.606706 
L 161.583694 87.280605 
L 161.669214 87.387151 
L 161.754733 87.298161 
L 162.011291 85.872534 
L 162.695447 87.896768 
L 162.866486 87.764901 
L 163.037525 87.013037 
L 163.208563 85.984197 
L 163.294083 86.094339 
L 163.465122 86.173824 
L 163.63616 86.880779 
L 163.807199 87.62159 
L 163.978238 87.590644 
L 164.149277 87.148461 
L 164.576874 85.315801 
L 164.833432 85.778628 
L 165.26103 87.418653 
L 165.432068 87.140642 
L 165.688627 85.827694 
L 165.774146 86.003122 
L 165.945185 86.274716 
L 166.372782 87.721303 
L 166.543821 87.54248 
L 166.71486 86.738164 
L 166.885899 85.490705 
L 167.570054 87.779702 
L 167.655574 87.728146 
L 167.826612 87.052031 
L 168.083171 85.591986 
L 168.254209 85.841877 
L 168.596287 86.26668 
L 169.451481 87.041867 
L 169.793559 86.932963 
L 170.392195 86.706623 
L 170.990831 86.854326 
L 173.128817 87.607818 
L 173.214336 87.666777 
L 173.898492 89.607665 
L 174.15505 89.434999 
L 174.411608 88.209459 
L 174.497128 88.425791 
L 174.668166 88.609152 
L 175.181283 89.827733 
L 175.266802 89.832995 
L 175.352322 89.718803 
L 175.779919 88.242378 
L 175.950958 88.267061 
L 176.549594 90.127354 
L 176.891671 89.76291 
L 177.06271 88.981224 
L 177.14823 89.142993 
L 177.319269 89.216304 
L 177.490307 89.786576 
L 177.661346 90.399945 
L 177.917905 90.350497 
L 178.003424 90.26982 
L 178.174463 89.578838 
L 178.259982 89.074312 
L 178.944138 90.693816 
L 179.029657 90.645944 
L 179.115177 90.603444 
L 179.286215 90.068823 
L 179.371735 89.568314 
L 180.05589 91.09393 
L 180.312449 90.866959 
L 180.569007 89.462792 
L 180.654526 89.678423 
L 180.825565 89.911889 
L 181.253162 91.22185 
L 181.338682 91.192368 
L 181.424201 91.149139 
L 181.59524 90.501392 
L 181.766279 89.720939 
L 181.937318 89.533781 
L 182.535954 91.489301 
L 182.792512 91.348533 
L 182.963551 90.762187 
L 183.04907 90.319491 
L 183.733226 91.646839 
L 183.989784 91.583839 
L 184.160823 90.903554 
L 184.246342 90.391988 
L 184.331862 90.546666 
L 184.5029 90.609251 
L 184.673939 91.190617 
L 184.844978 91.727095 
L 185.187056 91.60665 
L 185.358095 90.877188 
L 185.443614 91.019279 
L 185.614653 91.033971 
L 185.785692 91.445091 
L 186.04225 92.007687 
L 186.384328 91.78798 
L 186.555367 90.965141 
L 186.640886 91.14602 
L 186.811925 91.246829 
L 186.982964 91.769074 
L 187.154003 92.299487 
L 187.49608 92.183141 
L 187.667119 91.54864 
L 187.752639 91.081018 
L 188.351275 92.673468 
L 188.607833 92.558891 
L 188.778872 92.08242 
L 188.864391 91.612306 
L 189.120949 91.981146 
L 189.291988 92.451433 
L 189.463027 92.978937 
L 189.634066 92.940489 
L 189.805105 92.799184 
L 190.061663 91.53781 
L 190.147182 91.779072 
L 190.403741 92.25553 
L 190.660299 93.181569 
L 190.916857 93.078538 
L 191.087896 92.52194 
L 191.344454 91.638097 
L 191.515493 91.56525 
L 192.02861 93.385409 
L 192.199649 93.391447 
L 192.370688 93.266876 
L 192.541726 92.719171 
L 192.627246 92.25354 
L 192.883804 92.628403 
L 193.311401 93.589338 
L 193.396921 93.531638 
L 193.56796 93.501377 
L 193.738998 92.837492 
L 193.824518 92.311185 
L 193.995557 92.547239 
L 194.081076 92.60981 
L 194.594193 93.65674 
L 194.765231 93.606219 
L 194.93627 92.870559 
L 195.02179 93.047209 
L 195.278348 93.230204 
L 195.620426 94.047301 
L 195.962503 93.802463 
L 196.133542 92.923283 
L 196.219062 93.118603 
L 196.390101 93.224765 
L 196.561139 93.749855 
L 196.732178 94.303071 
L 196.988737 94.233283 
L 197.074256 94.146303 
L 197.416334 92.760695 
L 197.501853 93.01664 
L 197.758411 93.660107 
L 198.01497 94.618601 
L 198.271528 94.437817 
L 198.442567 93.82788 
L 198.528086 93.3174 
L 199.212242 94.822365 
L 199.4688 94.571848 
L 199.725358 93.187535 
L 199.810878 93.383196 
L 199.981916 93.547583 
L 200.152955 94.184636 
L 200.323994 94.844021 
L 200.495033 94.813053 
L 200.666072 94.561574 
L 201.00815 93.187963 
L 201.179188 93.194846 
L 201.521266 93.429157 
L 201.948863 93.335931 
L 202.804058 93.250901 
L 204.086849 93.201821 
L 205.027563 93.005118 
L 205.113082 92.840668 
L 205.540679 94.053065 
L 205.711718 94.595484 
L 205.968276 94.421445 
L 206.139315 93.787822 
L 206.224835 93.215332 
L 206.310354 93.310762 
L 206.481393 93.266082 
L 206.652432 93.809352 
L 206.90899 94.59908 
L 207.165548 94.435071 
L 207.336587 93.584897 
L 207.422107 92.969406 
L 207.507626 93.031227 
L 207.678665 92.987196 
L 207.849704 93.685516 
L 208.020742 94.485685 
L 208.277301 94.475547 
L 208.36282 94.337819 
L 208.533859 93.386549 
L 208.619378 93.445294 
L 208.790417 93.324371 
L 208.875937 93.44802 
L 209.218014 94.638762 
L 209.474573 94.550093 
L 209.645612 93.760332 
L 209.731131 93.149735 
L 209.81665 93.194847 
L 209.987689 93.104095 
L 210.158728 93.719292 
L 210.415286 94.607637 
L 210.671845 94.462766 
L 211.099442 92.961467 
L 211.184961 92.990689 
L 211.356 93.75762 
L 211.527039 94.60304 
L 211.783597 94.586011 
L 211.954636 93.980364 
L 212.040155 93.391982 
L 212.125675 93.43028 
L 212.296714 93.285869 
L 212.382233 93.42866 
L 212.724311 94.758291 
L 212.980869 94.6519 
L 213.151908 93.764031 
L 213.237427 93.117957 
L 213.322947 93.149533 
L 213.493986 93.046213 
L 213.665025 93.728638 
L 213.921583 94.68438 
L 214.178141 94.480968 
L 214.520219 92.45316 
L 214.605738 92.522611 
L 214.691258 92.530993 
L 214.776777 92.671675 
L 215.204374 94.472855 
L 215.375413 94.374727 
L 215.546452 93.636048 
L 215.631971 92.968195 
L 215.717491 92.997766 
L 215.88853 92.901011 
L 216.059569 93.53302 
L 216.316127 94.502332 
L 216.572685 94.353892 
L 216.743724 93.304191 
L 216.829243 92.58188 
L 216.914763 92.610487 
L 217.085802 92.564148 
L 217.25684 93.348355 
L 217.513399 94.338012 
L 217.684438 94.321025 
L 217.769957 94.121387 
L 218.112035 91.929794 
L 218.197554 92.042791 
L 218.368593 92.307705 
L 218.79619 94.19451 
L 218.967229 94.127369 
L 219.138268 93.230617 
L 219.223787 92.537012 
L 219.309307 92.595391 
L 219.480346 92.602926 
L 219.651384 93.353758 
L 219.907943 94.361836 
L 220.078982 94.394005 
L 220.164501 94.250432 
L 220.592098 92.396293 
L 220.677617 92.46632 
L 220.848656 93.350811 
L 221.105215 94.384236 
L 221.276253 94.41572 
L 221.447292 93.61044 
L 221.703851 92.131866 
L 221.78937 91.890144 
L 222.045928 92.484982 
L 222.388006 94.34765 
L 222.473525 94.332041 
L 222.644564 94.218071 
L 222.815603 93.279541 
L 222.901123 92.558427 
L 222.986642 92.62551 
L 223.157681 92.65658 
L 223.32872 93.463125 
L 223.585278 94.458416 
L 223.756317 94.459305 
L 223.841836 94.265891 
L 224.269433 92.196969 
L 224.354953 92.289064 
L 224.525992 93.255009 
L 224.697031 94.243807 
L 224.953589 94.313075 
L 225.124628 93.340671 
L 225.381186 91.677515 
L 225.552225 91.473532 
L 225.894302 92.824417 
L 226.150861 94.099986 
L 226.3219 94.074746 
L 226.407419 93.925119 
L 226.663977 91.968962 
L 226.835016 92.123582 
L 226.920536 92.256334 
L 227.433652 94.176351 
L 227.519172 94.207959 
L 227.604691 93.954286 
L 227.861249 91.70035 
L 227.946769 91.804222 
L 228.032288 91.850699 
L 228.203327 92.463179 
L 228.459885 94.091044 
L 228.716444 94.233477 
L 228.887482 93.069054 
L 229.144041 91.572963 
L 229.400599 91.613276 
L 229.742677 93.021231 
L 229.999235 94.288336 
L 230.170274 94.299677 
L 230.255793 94.143636 
L 230.512351 92.157814 
L 230.68339 92.316207 
L 230.76891 92.445364 
L 231.282026 94.405024 
L 231.367546 94.457447 
L 231.453065 94.195267 
L 231.709623 91.892622 
L 231.795143 91.99561 
L 231.880662 92.040016 
L 232.051701 92.679908 
L 232.308259 94.308302 
L 232.564818 94.447661 
L 232.735857 93.239155 
L 232.821376 92.385406 
L 232.906895 92.467873 
L 233.077934 92.574171 
L 233.248973 93.45672 
L 233.505531 94.527686 
L 233.67657 94.657288 
L 233.76209 94.452776 
L 234.018648 92.048426 
L 234.104167 92.144922 
L 234.189687 92.186537 
L 234.275206 92.353922 
L 234.788323 94.551079 
L 234.873842 94.579792 
L 235.044881 93.418413 
L 235.301439 91.612608 
L 235.557998 92.330185 
L 235.985595 94.437325 
L 236.071114 94.510114 
L 236.156634 94.404125 
L 236.413192 92.216194 
L 236.498711 92.350506 
L 236.66975 92.629409 
L 237.182867 94.725232 
L 237.268386 94.816018 
L 237.353906 94.548768 
L 237.610464 92.122375 
L 237.695983 92.267564 
L 237.867022 92.590674 
L 238.380139 94.873861 
L 238.465658 94.899392 
L 238.636697 93.599418 
L 238.893255 91.891794 
L 239.149813 92.673583 
L 239.577411 94.794536 
L 239.66293 94.886778 
L 239.748449 94.76387 
L 240.005008 92.5297 
L 240.090527 92.678843 
L 240.261566 92.99169 
L 240.774683 95.108672 
L 240.860202 95.200802 
L 240.945721 94.89178 
L 241.20228 92.384426 
L 241.287799 92.54211 
L 241.458838 92.908062 
L 241.971955 95.200304 
L 242.057474 95.19514 
L 242.228513 93.784149 
L 242.485071 92.23937 
L 242.57059 92.05979 
L 242.912668 93.675392 
L 243.169226 95.002499 
L 243.340265 95.123129 
L 243.425785 94.90132 
L 243.682343 92.598175 
L 243.767862 92.802229 
L 243.938901 93.247196 
L 244.366498 95.226287 
L 244.537537 95.428444 
L 244.708576 94.131902 
L 244.879615 92.460136 
L 245.136173 93.212725 
L 245.56377 95.401607 
L 245.734809 95.519597 
L 246.162406 92.566707 
L 246.247926 92.65051 
L 246.333445 92.576509 
L 247.10312 95.683909 
L 247.188639 95.396175 
L 247.445198 93.089974 
L 247.530717 93.335277 
L 247.701756 93.841774 
L 248.129353 95.772016 
L 248.300392 95.994986 
L 248.471431 94.588622 
L 248.64247 92.954361 
L 248.899028 93.814944 
L 249.326625 95.980087 
L 249.412145 96.157629 
L 249.497664 96.076573 
L 249.754222 93.49809 
L 249.839742 93.705061 
L 250.010781 94.178295 
L 250.438378 96.189561 
L 250.609417 96.459623 
L 250.694936 96.074502 
L 250.951494 93.32721 
L 251.208053 94.154401 
L 251.63565 96.290317 
L 251.806688 96.470257 
L 252.234286 93.180753 
L 252.319805 93.540719 
L 252.576363 94.939075 
L 252.832922 96.265844 
L 253.00396 96.562117 
L 253.08948 96.301092 
L 253.346038 93.683159 
L 253.431558 93.955904 
L 253.688116 95.142846 
L 253.944674 96.516825 
L 254.201232 96.912157 
L 254.372271 95.366227 
L 254.54331 93.652989 
L 254.885388 95.252131 
L 255.141946 96.677251 
L 255.312985 97.075864 
L 255.398504 97.006441 
L 255.826101 93.618812 
L 256.253699 96.108774 
L 256.510257 97.010329 
L 256.595776 97.139782 
L 256.681296 96.804262 
L 256.937854 94.123952 
L 257.279932 95.705745 
L 257.53649 97.056743 
L 257.793048 97.480399 
L 257.964087 95.787323 
L 258.135126 94.085091 
L 258.477204 95.793074 
L 258.733762 97.20232 
L 258.904801 97.624366 
L 258.99032 97.495505 
L 259.417917 94.25467 
L 259.503437 94.127408 
L 260.273112 97.61651 
L 260.44415 96.217786 
L 260.615189 94.515343 
L 260.957267 96.234023 
L 261.213825 97.519609 
L 261.470384 97.943613 
L 261.812461 94.42069 
L 261.897981 94.79525 
L 262.154539 96.348378 
L 262.411097 97.715645 
L 262.582136 98.191627 
L 262.667656 97.987753 
L 263.009733 94.683533 
L 263.180772 94.888541 
L 263.43733 95.217252 
L 263.779408 95.242826 
L 264.292525 95.408632 
L 265.062199 95.629187 
L 266.51603 96.234256 
L 267.96986 96.832618 
L 268.739535 97.102855 
L 268.825054 96.822802 
L 269.338171 99.594576 
L 269.594729 100.261077 
L 269.680248 99.835793 
L 269.936807 97.07569 
L 270.706482 100.51454 
L 270.792001 100.599005 
L 271.134079 97.003378 
L 271.219598 97.519298 
L 271.732715 100.262782 
L 271.903754 100.974249 
L 271.989273 100.763283 
L 272.331351 97.311046 
L 272.844467 97.912861 
L 273.015506 97.906737 
L 273.614142 98.185382 
L 274.127259 98.358403 
L 275.923167 99.376729 
L 277.120439 100.006838 
L 280.199138 101.449304 
L 281.567449 102.191724 
L 282.251604 102.407127 
L 282.337123 102.047468 
L 282.764721 104.705591 
L 282.935759 105.093592 
L 283.106798 105.810123 
L 283.277837 103.932609 
L 283.448876 102.101395 
L 283.961993 105.051756 
L 284.047512 105.095697 
L 284.30407 106.08384 
L 284.646148 101.977995 
L 285.073745 105.365419 
L 285.244784 105.501527 
L 285.415823 106.523049 
L 285.501342 106.140586 
L 285.757901 102.419815 
L 285.928939 102.252639 
L 286.356536 105.507832 
L 286.527575 105.93716 
L 286.698614 106.595207 
L 287.040692 102.461337 
L 287.468289 106.052471 
L 287.553808 106.039057 
L 287.639328 106.085299 
L 287.810367 107.049843 
L 287.895886 106.858153 
L 288.237964 102.474917 
L 288.75108 106.23509 
L 288.8366 106.397344 
L 289.007639 107.353782 
L 289.093158 106.637889 
L 289.349716 102.875347 
L 289.435236 102.90689 
L 289.691794 103.735924 
L 289.862833 103.691353 
L 290.033872 103.587351 
L 290.29043 103.937304 
L 290.632508 104.284813 
L 291.060105 104.640085 
L 292.086338 105.669154 
L 293.28361 106.468755 
L 294.309843 106.725528 
L 295.079518 106.994669 
L 296.105751 107.661407 
L 297.474062 108.497151 
L 300.552761 110.251516 
L 304.657694 113.210582 
L 305.683927 113.594192 
L 307.052238 114.107056 
L 312.439961 117.070896 
L 313.979311 117.84871 
L 316.117297 118.90103 
L 319.024957 120.416985 
L 320.478787 121.166194 
L 320.735346 123.131291 
L 320.820865 123.227688 
L 320.991904 122.845881 
L 321.077423 122.960741 
L 321.333982 124.13497 
L 321.676059 120.917873 
L 322.018137 124.047404 
L 322.274695 123.419417 
L 322.445734 124.610199 
L 322.531254 124.441069 
L 322.787812 121.00465 
L 322.958851 121.192033 
L 323.300928 124.151906 
L 323.471967 123.777652 
L 323.557487 124.017157 
L 323.728526 124.971176 
L 324.070603 121.017741 
L 324.156123 121.843359 
L 324.412681 124.492614 
L 324.4982 124.475322 
L 324.669239 124.044988 
L 324.925798 125.015699 
L 325.267875 120.936373 
L 325.609953 124.629433 
L 325.695472 124.591588 
L 325.866511 124.355611 
L 326.03755 125.365873 
L 326.123069 124.901611 
L 326.379628 121.301516 
L 326.465147 121.399114 
L 326.721705 122.369916 
L 326.892744 122.168738 
L 327.063783 121.922099 
L 327.234822 122.087499 
L 327.5769 122.492516 
L 328.090016 122.709417 
L 328.432094 123.073105 
L 328.774172 125.266568 
L 328.945211 125.184744 
L 329.03073 125.327478 
L 329.201769 126.22894 
L 329.287288 126.147782 
L 329.629366 123.073513 
L 329.971444 126.188686 
L 330.056963 126.112018 
L 330.228002 125.873407 
L 330.399041 126.845228 
L 330.48456 126.653114 
L 330.57008 125.38491 
L 330.655599 125.57262 
L 330.826638 125.872121 
L 331.254235 126.259621 
L 331.852871 127.03831 
L 332.194949 126.844582 
L 332.537026 127.712874 
L 332.622546 127.650092 
L 332.793585 126.849487 
L 333.135662 124.667177 
L 333.221182 124.215931 
L 333.56326 126.95954 
L 333.819818 127.147649 
L 333.990857 127.633534 
L 334.161896 125.752606 
L 334.332934 123.97926 
L 334.760531 127.341797 
L 334.93157 127.106459 
L 335.188129 127.784681 
L 335.530206 123.673627 
L 335.615726 124.428494 
L 335.957803 127.13428 
L 336.128842 126.977699 
L 336.299881 127.668387 
L 336.385401 127.449091 
L 336.727478 123.852939 
L 336.812998 123.82825 
L 337.155075 126.858682 
L 337.411634 126.906755 
L 337.582673 127.509731 
L 337.753711 125.32162 
L 337.92475 123.519846 
L 338.352347 127.036159 
L 338.437867 126.980236 
L 338.523386 126.932844 
L 338.694425 127.565879 
L 338.779945 127.525855 
L 339.122022 123.518395 
L 339.549619 127.145312 
L 339.720658 127.112194 
L 339.891697 127.863851 
L 339.977216 127.524991 
L 340.062736 126.187348 
L 340.148255 126.341067 
L 341.345527 126.833232 
L 341.687605 127.320165 
L 342.029683 127.850068 
L 342.37176 127.960354 
L 342.628319 128.607383 
L 342.713838 128.559673 
L 342.884877 127.948862 
L 343.312474 125.229494 
L 343.996629 125.919989 
L 344.338707 126.306455 
L 345.022863 126.526648 
L 345.279421 126.718105 
L 345.535979 127.884538 
L 345.707018 128.079381 
L 345.878057 128.220074 
L 346.134615 128.945377 
L 346.305654 127.604169 
L 346.476693 126.324194 
L 346.90429 128.69044 
L 347.075329 128.599197 
L 347.331887 129.19333 
L 347.759484 126.30636 
L 348.101562 128.615112 
L 348.35812 128.775818 
L 348.529159 129.425924 
L 348.614678 129.190798 
L 348.871237 126.437283 
L 349.298834 128.968495 
L 349.555392 129.117051 
L 349.726431 129.557205 
L 349.89747 127.982646 
L 350.068509 126.312255 
L 350.496106 128.978788 
L 350.667145 129.070639 
L 350.923703 129.585869 
L 351.265781 126.668601 
L 351.607858 127.550261 
L 351.864417 127.262978 
L 352.035456 127.225213 
L 352.463053 127.441711 
L 352.976169 127.486413 
L 354.772077 128.402669 
L 355.712791 128.702933 
L 356.567985 128.738415 
L 358.107335 128.753276 
L 359.133568 129.046212 
L 359.732204 129.283187 
L 359.732204 129.283187 
" clip-path="url(#p7095215feb)" style="fill: none; stroke: #2ca02c; stroke-width: 1.5; stroke-linecap: square"/>
   </g>
   <g id="patch_3">
    <path d="M 40.150386 228.96 
L 40.150386 7.2 
" style="fill: none; stroke: #000000; stroke-width: 0.8; stroke-linejoin: miter; stroke-linecap: square"/>
   </g>
   <g id="patch_4">
    <path d="M 374.950386 228.96 
L 374.950386 7.2 
" style="fill: none; stroke: #000000; stroke-width: 0.8; stroke-linejoin: miter; stroke-linecap: square"/>
   </g>
   <g id="patch_5">
    <path d="M 40.150386 228.96 
L 374.950386 228.96 
" style="fill: none; stroke: #000000; stroke-width: 0.8; stroke-linejoin: miter; stroke-linecap: square"/>
   </g>
   <g id="patch_6">
    <path d="M 40.150386 7.2 
L 374.950386 7.2 
" style="fill: none; stroke: #000000; stroke-width: 0.8; stroke-linejoin: miter; stroke-linecap: square"/>
   </g>
   <g id="legend_1">
    <g id="patch_7">
     <path d="M 323.445187 57.86092 
L 367.950386 57.86092 
Q 369.950386 57.86092 369.950386 55.86092 
L 369.950386 14.2 
Q 369.950386 12.2 367.950386 12.2 
L 323.445187 12.2 
Q 321.445187 12.2 321.445187 14.2 
L 321.445187 55.86092 
Q 321.445187 57.86092 323.445187 57.86092 
z
" style="fill: #ffffff; opacity: 0.8; stroke: #cccccc; stroke-linejoin: miter"/>
    </g>
    <g id="line2d_17">
     <path d="M 325.445187 19.79832 
L 335.445187 19.79832 
L 345.445187 19.79832 
" style="fill: none; stroke: #1f77b4; stroke-width: 1.5; stroke-linecap: square"/>
    </g>
    <g id="text_16">
     <!-- $\rho$ -->
     <g transform="translate(353.445187 23.29832) scale(0.1 -0.1)">
      <defs>
       <path id="CMMI12-1a" d="M 198 -1085 
C 192 -1116 179 -1154 179 -1191 
C 179 -1287 256 -1351 352 -1351 
C 448 -1351 538 -1287 576 -1198 
C 602 -1141 781 -390 986 389 
C 1114 70 1350 -64 1600 -64 
C 2323 -64 3142 830 3142 1794 
C 3142 2477 2726 2816 2285 2816 
C 1722 2816 1037 2234 826 1385 
L 198 -1085 
z
M 1594 64 
C 1158 64 1050 568 1050 645 
C 1050 683 1210 1289 1229 1385 
C 1555 2656 2182 2687 2278 2687 
C 2566 2687 2726 2426 2726 2049 
C 2726 1724 2554 1091 2445 823 
C 2253 383 1920 64 1594 64 
z
" transform="scale(0.015625)"/>
      </defs>
      <use xlink:href="#CMMI12-1a" transform="scale(0.996264)"/>
     </g>
    </g>
    <g id="line2d_18">
     <path d="M 325.445187 34.018627 
L 335.445187 34.018627 
L 345.445187 34.018627 
" style="fill: none; stroke: #ff7f0e; stroke-width: 1.5; stroke-linecap: square"/>
    </g>
    <g id="text_17">
     <!-- $\rho u$ -->
     <g transform="translate(353.445187 37.518627) scale(0.1 -0.1)">
      <defs>
       <path id="CMMI12-75" d="M 2182 370 
C 2266 12 2573 -64 2726 -64 
C 2931 -64 3085 70 3187 287 
C 3296 517 3379 893 3379 913 
C 3379 944 3354 970 3315 970 
C 3258 970 3251 938 3226 842 
C 3110 402 2995 64 2739 64 
C 2547 64 2547 274 2547 357 
C 2547 504 2566 568 2630 836 
C 2675 1008 2720 1181 2758 1359 
L 3021 2400 
C 3066 2560 3066 2572 3066 2591 
C 3066 2687 2989 2752 2893 2752 
C 2707 2752 2662 2591 2624 2432 
C 2560 2183 2214 810 2170 587 
C 2163 587 1914 64 1446 64 
C 1114 64 1050 351 1050 587 
C 1050 951 1229 1462 1395 1890 
C 1472 2094 1504 2177 1504 2305 
C 1504 2579 1306 2816 998 2816 
C 410 2816 173 1890 173 1838 
C 173 1813 198 1781 243 1781 
C 301 1781 307 1807 333 1896 
C 486 2445 736 2687 979 2687 
C 1043 2687 1146 2681 1146 2477 
C 1146 2311 1075 2126 979 1883 
C 698 1123 666 881 666 689 
C 666 38 1158 -64 1421 -64 
C 1830 -64 2054 217 2182 370 
z
" transform="scale(0.015625)"/>
      </defs>
      <use xlink:href="#CMMI12-1a" transform="scale(0.996264)"/>
      <use xlink:href="#CMMI12-75" transform="translate(50.314373 0) scale(0.996264)"/>
     </g>
    </g>
    <g id="line2d_19">
     <path d="M 325.445187 48.238934 
L 335.445187 48.238934 
L 345.445187 48.238934 
" style="fill: none; stroke: #2ca02c; stroke-width: 1.5; stroke-linecap: square"/>
    </g>
    <g id="text_18">
     <!-- $\rho E$ -->
     <g transform="translate(353.445187 51.738934) scale(0.1 -0.1)">
      <defs>
       <path id="CMMI12-45" d="M 4448 1489 
C 4454 1508 4474 1553 4474 1578 
C 4474 1611 4448 1643 4410 1643 
C 4384 1643 4371 1636 4352 1617 
C 4339 1611 4339 1598 4282 1469 
C 3904 570 3629 185 2605 185 
L 1670 185 
C 1581 185 1568 185 1530 192 
C 1459 198 1453 211 1453 262 
C 1453 307 1466 346 1478 403 
L 1920 2176 
L 2554 2176 
C 3053 2176 3091 2066 3091 1874 
C 3091 1810 3091 1752 3046 1559 
C 3034 1534 3027 1508 3027 1489 
C 3027 1444 3059 1424 3098 1424 
C 3155 1424 3162 1469 3187 1559 
L 3552 3036 
C 3552 3068 3526 3099 3488 3099 
C 3430 3099 3424 3074 3398 2986 
C 3270 2500 3142 2361 2573 2361 
L 1965 2361 
L 2362 3913 
C 2419 4134 2432 4153 2694 4153 
L 3610 4153 
C 4397 4153 4557 3945 4557 3465 
C 4557 3459 4557 3282 4531 3074 
C 4525 3049 4518 3011 4518 2998 
C 4518 2948 4550 2929 4589 2929 
C 4634 2929 4659 2954 4672 3068 
L 4806 4172 
C 4806 4191 4819 4255 4819 4268 
C 4819 4339 4762 4339 4646 4339 
L 1523 4339 
C 1402 4339 1338 4339 1338 4223 
C 1338 4153 1382 4153 1491 4153 
C 1888 4153 1888 4109 1888 4039 
C 1888 4008 1882 3983 1862 3913 
L 998 474 
C 941 249 928 185 480 185 
C 358 185 294 185 294 70 
C 294 0 333 0 461 0 
L 3674 0 
C 3814 0 3821 6 3866 108 
L 4448 1489 
z
" transform="scale(0.015625)"/>
      </defs>
      <use xlink:href="#CMMI12-1a" transform="scale(0.996264)"/>
      <use xlink:href="#CMMI12-45" transform="translate(50.314373 0) scale(0.996264)"/>
     </g>
    </g>
   </g>
  </g>
 </g>
 <defs>
  <clipPath id="p7095215feb">
   <rect x="40.150386" y="7.2" width="334.8" height="221.76"/>
  </clipPath>
 </defs>
</svg>
