<?xml version="1.0" encoding="utf-8" standalone="no"?>
<!DOCTYPE svg PUBLIC "-//W3C//DTD SVG 1.1//EN"
  "http://www.w3.org/Graphics/SVG/1.1/DTD/svg11.dtd">
<svg xmlns:xlink="http://www.w3.org/1999/xlink" width="379.567344pt" height="265.600613pt" viewBox="0 0 379.567344 265.600613" xmlns="http://www.w3.org/2000/svg" version="1.1">
 <metadata>
  <rdf:RDF xmlns:dc="http://purl.org/dc/elements/1.1/" xmlns:cc="http://creativecommons.org/ns#" xmlns:rdf="http://www.w3.org/1999/02/22-rdf-syntax-ns#">
   <cc:Work>
    <dc:type rdf:resource="http://purl.org/dc/dcmitype/StillImage"/>
    <dc:date>2025-07-17T12:58:13.146526</dc:date>
    <dc:format>image/svg+xml</dc:format>
    <dc:creator>
     <cc:Agent>
      <dc:title>Matplotlib v3.10.3, https://matplotlib.org/</dc:title>
     </cc:Agent>
    </dc:creator>
   </cc:Work>
  </rdf:RDF>
 </metadata>
 <defs>
  <style type="text/css">*{stroke-linejoin: round; stroke-linecap: butt}</style>
 </defs>
 <g id="figure_1">
  <g id="patch_1">
   <path d="M 0 265.600613 
L 379.567344 265.600613 
L 379.567344 0 
L 0 0 
z
" style="fill: #ffffff"/>
  </g>
  <g id="axes_1">
   <g id="patch_2">
    <path d="M 37.567344 228.96 
L 372.367344 228.96 
L 372.367344 7.2 
L 37.567344 7.2 
z
" style="fill: #ffffff"/>
   </g>
   <g id="matplotlib.axis_1">
    <g id="xtick_1">
     <g id="line2d_1">
      <defs>
       <path id="mcdc0a61db3" d="M 0 0 
L 0 3.5 
" style="stroke: #000000; stroke-width: 0.8"/>
      </defs>
      <g>
       <use xlink:href="#mcdc0a61db3" x="52.785526" y="228.96" style="stroke: #000000; stroke-width: 0.8"/>
      </g>
     </g>
     <g id="text_1">
      <!-- $\mathdefault{0}$ -->
      <g transform="translate(50.294859 243.05832) scale(0.1 -0.1)">
       <defs>
        <path id="CMR17-30" d="M 2688 2038 
C 2688 2430 2682 3099 2413 3613 
C 2176 4063 1798 4224 1466 4224 
C 1158 4224 768 4082 525 3620 
C 269 3137 243 2539 243 2038 
C 243 1671 250 1112 448 623 
C 723 -39 1216 -128 1466 -128 
C 1760 -128 2208 -7 2470 604 
C 2662 1048 2688 1568 2688 2038 
z
M 1466 -26 
C 1056 -26 813 328 723 816 
C 653 1196 653 1749 653 2109 
C 653 2604 653 3015 736 3407 
C 858 3954 1216 4121 1466 4121 
C 1728 4121 2067 3947 2189 3420 
C 2272 3054 2278 2623 2278 2109 
C 2278 1691 2278 1176 2202 797 
C 2067 96 1690 -26 1466 -26 
z
" transform="scale(0.015625)"/>
       </defs>
       <use xlink:href="#CMR17-30" transform="scale(0.996264)"/>
      </g>
     </g>
    </g>
    <g id="xtick_2">
     <g id="line2d_2">
      <g>
       <use xlink:href="#mcdc0a61db3" x="94.824702" y="228.96" style="stroke: #000000; stroke-width: 0.8"/>
      </g>
     </g>
     <g id="text_2">
      <!-- $\mathdefault{500}$ -->
      <g transform="translate(87.3527 243.05832) scale(0.1 -0.1)">
       <defs>
        <path id="CMR17-35" d="M 730 3750 
C 794 3724 1056 3641 1325 3641 
C 1920 3641 2246 3961 2432 4140 
C 2432 4191 2432 4224 2394 4224 
C 2387 4224 2374 4224 2323 4198 
C 2099 4102 1837 4032 1517 4032 
C 1325 4032 1037 4055 723 4191 
C 653 4224 640 4224 634 4224 
C 602 4224 595 4217 595 4090 
L 595 2231 
C 595 2113 595 2080 659 2080 
C 691 2080 704 2093 736 2139 
C 941 2435 1222 2560 1542 2560 
C 1766 2560 2246 2415 2246 1293 
C 2246 1087 2246 716 2054 422 
C 1894 159 1645 25 1370 25 
C 947 25 518 319 403 812 
C 429 806 480 793 506 793 
C 589 793 749 838 749 1036 
C 749 1209 627 1280 506 1280 
C 358 1280 262 1190 262 1011 
C 262 454 704 -128 1382 -128 
C 2042 -128 2669 441 2669 1267 
C 2669 2054 2170 2662 1549 2662 
C 1222 2662 947 2540 730 2304 
L 730 3750 
z
" transform="scale(0.015625)"/>
       </defs>
       <use xlink:href="#CMR17-35" transform="scale(0.996264)"/>
       <use xlink:href="#CMR17-30" transform="translate(45.690477 0) scale(0.996264)"/>
       <use xlink:href="#CMR17-30" transform="translate(91.380954 0) scale(0.996264)"/>
      </g>
     </g>
    </g>
    <g id="xtick_3">
     <g id="line2d_3">
      <g>
       <use xlink:href="#mcdc0a61db3" x="136.863879" y="228.96" style="stroke: #000000; stroke-width: 0.8"/>
      </g>
     </g>
     <g id="text_3">
      <!-- $\mathdefault{1000}$ -->
      <g transform="translate(126.901208 243.05832) scale(0.1 -0.1)">
       <defs>
        <path id="CMR17-31" d="M 1702 4083 
C 1702 4217 1696 4224 1606 4224 
C 1357 3927 979 3833 621 3820 
C 602 3820 570 3820 563 3808 
C 557 3795 557 3782 557 3648 
C 755 3648 1088 3686 1344 3839 
L 1344 467 
C 1344 243 1331 166 781 166 
L 589 166 
L 589 0 
C 896 6 1216 12 1523 12 
C 1830 12 2150 6 2458 0 
L 2458 166 
L 2266 166 
C 1715 166 1702 236 1702 467 
L 1702 4083 
z
" transform="scale(0.015625)"/>
       </defs>
       <use xlink:href="#CMR17-31" transform="scale(0.996264)"/>
       <use xlink:href="#CMR17-30" transform="translate(45.690477 0) scale(0.996264)"/>
       <use xlink:href="#CMR17-30" transform="translate(91.380954 0) scale(0.996264)"/>
       <use xlink:href="#CMR17-30" transform="translate(137.071431 0) scale(0.996264)"/>
      </g>
     </g>
    </g>
    <g id="xtick_4">
     <g id="line2d_4">
      <g>
       <use xlink:href="#mcdc0a61db3" x="178.903055" y="228.96" style="stroke: #000000; stroke-width: 0.8"/>
      </g>
     </g>
     <g id="text_4">
      <!-- $\mathdefault{1500}$ -->
      <g transform="translate(168.940385 243.05832) scale(0.1 -0.1)">
       <use xlink:href="#CMR17-31" transform="scale(0.996264)"/>
       <use xlink:href="#CMR17-35" transform="translate(45.690477 0) scale(0.996264)"/>
       <use xlink:href="#CMR17-30" transform="translate(91.380954 0) scale(0.996264)"/>
       <use xlink:href="#CMR17-30" transform="translate(137.071431 0) scale(0.996264)"/>
      </g>
     </g>
    </g>
    <g id="xtick_5">
     <g id="line2d_5">
      <g>
       <use xlink:href="#mcdc0a61db3" x="220.942231" y="228.96" style="stroke: #000000; stroke-width: 0.8"/>
      </g>
     </g>
     <g id="text_5">
      <!-- $\mathdefault{2000}$ -->
      <g transform="translate(210.979561 243.05832) scale(0.1 -0.1)">
       <defs>
        <path id="CMR17-32" d="M 2669 990 
L 2554 990 
C 2490 537 2438 460 2413 422 
C 2381 371 1920 371 1830 371 
L 602 371 
C 832 620 1280 1073 1824 1596 
C 2214 1966 2669 2400 2669 3033 
C 2669 3788 2067 4224 1395 4224 
C 691 4224 262 3603 262 3027 
C 262 2777 448 2745 525 2745 
C 589 2745 781 2783 781 3007 
C 781 3206 614 3264 525 3264 
C 486 3264 448 3257 422 3244 
C 544 3788 915 4057 1306 4057 
C 1862 4057 2227 3616 2227 3033 
C 2227 2477 1901 1998 1536 1583 
L 262 147 
L 262 0 
L 2515 0 
L 2669 990 
z
" transform="scale(0.015625)"/>
       </defs>
       <use xlink:href="#CMR17-32" transform="scale(0.996264)"/>
       <use xlink:href="#CMR17-30" transform="translate(45.690477 0) scale(0.996264)"/>
       <use xlink:href="#CMR17-30" transform="translate(91.380954 0) scale(0.996264)"/>
       <use xlink:href="#CMR17-30" transform="translate(137.071431 0) scale(0.996264)"/>
      </g>
     </g>
    </g>
    <g id="xtick_6">
     <g id="line2d_6">
      <g>
       <use xlink:href="#mcdc0a61db3" x="262.981408" y="228.96" style="stroke: #000000; stroke-width: 0.8"/>
      </g>
     </g>
     <g id="text_6">
      <!-- $\mathdefault{2500}$ -->
      <g transform="translate(253.018737 243.05832) scale(0.1 -0.1)">
       <use xlink:href="#CMR17-32" transform="scale(0.996264)"/>
       <use xlink:href="#CMR17-35" transform="translate(45.690477 0) scale(0.996264)"/>
       <use xlink:href="#CMR17-30" transform="translate(91.380954 0) scale(0.996264)"/>
       <use xlink:href="#CMR17-30" transform="translate(137.071431 0) scale(0.996264)"/>
      </g>
     </g>
    </g>
    <g id="xtick_7">
     <g id="line2d_7">
      <g>
       <use xlink:href="#mcdc0a61db3" x="305.020584" y="228.96" style="stroke: #000000; stroke-width: 0.8"/>
      </g>
     </g>
     <g id="text_7">
      <!-- $\mathdefault{3000}$ -->
      <g transform="translate(295.057913 243.05832) scale(0.1 -0.1)">
       <defs>
        <path id="CMR17-33" d="M 1414 2176 
C 1984 2176 2234 1673 2234 1094 
C 2234 322 1824 25 1453 25 
C 1114 25 563 193 390 691 
C 422 678 454 678 486 678 
C 640 678 755 780 755 947 
C 755 1132 614 1216 486 1216 
C 378 1216 211 1164 211 927 
C 211 335 787 -128 1466 -128 
C 2176 -128 2720 432 2720 1087 
C 2720 1718 2208 2176 1600 2246 
C 2086 2347 2554 2776 2554 3353 
C 2554 3856 2048 4224 1472 4224 
C 890 4224 378 3862 378 3347 
C 378 3123 544 3084 627 3084 
C 762 3084 877 3167 877 3334 
C 877 3500 762 3584 627 3584 
C 602 3584 570 3584 544 3571 
C 730 3999 1235 4076 1459 4076 
C 1683 4076 2106 3966 2106 3347 
C 2106 3167 2080 2851 1862 2574 
C 1670 2329 1453 2316 1242 2297 
C 1210 2297 1062 2284 1037 2284 
C 992 2278 966 2272 966 2227 
C 966 2182 973 2176 1101 2176 
L 1414 2176 
z
" transform="scale(0.015625)"/>
       </defs>
       <use xlink:href="#CMR17-33" transform="scale(0.996264)"/>
       <use xlink:href="#CMR17-30" transform="translate(45.690477 0) scale(0.996264)"/>
       <use xlink:href="#CMR17-30" transform="translate(91.380954 0) scale(0.996264)"/>
       <use xlink:href="#CMR17-30" transform="translate(137.071431 0) scale(0.996264)"/>
      </g>
     </g>
    </g>
    <g id="xtick_8">
     <g id="line2d_8">
      <g>
       <use xlink:href="#mcdc0a61db3" x="347.05976" y="228.96" style="stroke: #000000; stroke-width: 0.8"/>
      </g>
     </g>
     <g id="text_8">
      <!-- $\mathdefault{3500}$ -->
      <g transform="translate(337.09709 243.05832) scale(0.1 -0.1)">
       <use xlink:href="#CMR17-33" transform="scale(0.996264)"/>
       <use xlink:href="#CMR17-35" transform="translate(45.690477 0) scale(0.996264)"/>
       <use xlink:href="#CMR17-30" transform="translate(91.380954 0) scale(0.996264)"/>
       <use xlink:href="#CMR17-30" transform="translate(137.071431 0) scale(0.996264)"/>
      </g>
     </g>
    </g>
    <g id="text_9">
     <!-- Iteration -->
     <g transform="translate(187.019968 256.278627) scale(0.1 -0.1)">
      <defs>
       <path id="NimbusSanL-Regu-49" d="M 1242 4672 
L 640 4672 
L 640 0 
L 1242 0 
L 1242 4672 
z
" transform="scale(0.015625)"/>
       <path id="NimbusSanL-Regu-74" d="M 1626 3328 
L 1075 3328 
L 1075 4249 
L 544 4249 
L 544 3328 
L 90 3328 
L 90 2892 
L 544 2892 
L 544 402 
C 544 64 774 -128 1190 -128 
C 1318 -128 1446 -116 1626 -84 
L 1626 364 
C 1555 345 1472 339 1370 339 
C 1139 339 1075 402 1075 634 
L 1075 2892 
L 1626 2892 
L 1626 3328 
z
" transform="scale(0.015625)"/>
       <path id="NimbusSanL-Regu-65" d="M 3283 1484 
C 3283 1998 3245 2311 3149 2565 
C 2931 3123 2419 3456 1792 3456 
C 858 3456 256 2734 256 1619 
C 256 545 838 -128 1779 -128 
C 2547 -128 3078 307 3213 1018 
L 2675 1018 
C 2528 588 2227 364 1798 364 
C 1459 364 1171 514 992 787 
C 864 974 819 1161 813 1484 
L 3283 1484 
z
M 826 1920 
C 870 2552 1248 2963 1786 2963 
C 2310 2963 2714 2519 2714 1959 
C 2714 1946 2714 1933 2707 1920 
L 826 1920 
z
" transform="scale(0.015625)"/>
       <path id="NimbusSanL-Regu-72" d="M 442 3328 
L 442 0 
L 979 0 
L 979 1727 
C 979 2203 1101 2514 1357 2698 
C 1523 2819 1683 2857 2054 2863 
L 2054 3404 
C 1965 3449 1920 3456 1850 3456 
C 1504 3456 1242 3251 934 2750 
L 934 3328 
L 442 3328 
z
" transform="scale(0.015625)"/>
       <path id="NimbusSanL-Regu-61" d="M 3424 332 
C 3366 320 3341 320 3309 320 
C 3123 320 3021 415 3021 581 
L 3021 2542 
C 3021 3135 2586 3456 1760 3456 
C 1274 3456 870 3315 646 3065 
C 493 2893 429 2702 416 2370 
L 954 2370 
C 998 2778 1242 2963 1741 2963 
C 2221 2963 2490 2784 2490 2466 
L 2490 2326 
C 2490 2103 2355 2007 1933 1956 
C 1178 1861 1062 1835 858 1753 
C 467 1593 269 1294 269 861 
C 269 256 691 -128 1370 -128 
C 1792 -128 2131 19 2509 364 
C 2547 25 2714 -128 3059 -128 
C 3168 -128 3251 -116 3424 -71 
L 3424 332 
z
M 2490 1071 
C 2490 893 2438 785 2278 638 
C 2061 441 1798 339 1485 339 
C 1069 339 826 536 826 874 
C 826 1224 1062 1402 1632 1485 
C 2195 1562 2310 1587 2490 1670 
L 2490 1071 
z
" transform="scale(0.015625)"/>
       <path id="NimbusSanL-Regu-69" d="M 960 3358 
L 429 3358 
L 429 0 
L 960 0 
L 960 3358 
z
M 960 4672 
L 422 4672 
L 422 3999 
L 960 3999 
L 960 4672 
z
" transform="scale(0.015625)"/>
       <path id="NimbusSanL-Regu-6f" d="M 1741 3456 
C 800 3456 230 2784 230 1663 
C 230 543 794 -128 1747 -128 
C 2688 -128 3264 543 3264 1638 
C 3264 2791 2707 3456 1741 3456 
z
M 1747 2963 
C 2349 2963 2707 2472 2707 1644 
C 2707 861 2336 364 1747 364 
C 1152 364 787 855 787 1663 
C 787 2466 1152 2963 1747 2963 
z
" transform="scale(0.015625)"/>
       <path id="NimbusSanL-Regu-6e" d="M 448 3328 
L 448 0 
L 986 0 
L 986 1835 
C 986 2539 1344 2988 1894 2988 
C 2317 2988 2586 2732 2586 2328 
L 2586 0 
L 3117 0 
L 3117 2539 
C 3117 3097 2701 3456 2054 3456 
C 1555 3456 1235 3263 941 2796 
L 941 3328 
L 448 3328 
z
" transform="scale(0.015625)"/>
      </defs>
      <use xlink:href="#NimbusSanL-Regu-49" transform="scale(0.996264)"/>
      <use xlink:href="#NimbusSanL-Regu-74" transform="translate(27.69517 0) scale(0.996264)"/>
      <use xlink:href="#NimbusSanL-Regu-65" transform="translate(55.390339 0) scale(0.996264)"/>
      <use xlink:href="#NimbusSanL-Regu-72" transform="translate(110.782016 0) scale(0.996264)"/>
      <use xlink:href="#NimbusSanL-Regu-61" transform="translate(142.961149 0) scale(0.996264)"/>
      <use xlink:href="#NimbusSanL-Regu-74" transform="translate(198.352826 0) scale(0.996264)"/>
      <use xlink:href="#NimbusSanL-Regu-69" transform="translate(226.047996 0) scale(0.996264)"/>
      <use xlink:href="#NimbusSanL-Regu-6f" transform="translate(248.16478 0) scale(0.996264)"/>
      <use xlink:href="#NimbusSanL-Regu-6e" transform="translate(303.556457 0) scale(0.996264)"/>
     </g>
    </g>
   </g>
   <g id="matplotlib.axis_2">
    <g id="ytick_1">
     <g id="line2d_9">
      <defs>
       <path id="m31ceca202b" d="M 0 0 
L -3.5 0 
" style="stroke: #000000; stroke-width: 0.8"/>
      </defs>
      <g>
       <use xlink:href="#m31ceca202b" x="37.567344" y="194.480156" style="stroke: #000000; stroke-width: 0.8"/>
      </g>
     </g>
     <g id="text_10">
      <!-- $\mathdefault{5}$ -->
      <g transform="translate(25.586009 198.029316) scale(0.1 -0.1)">
       <use xlink:href="#CMR17-35" transform="scale(0.996264)"/>
      </g>
     </g>
    </g>
    <g id="ytick_2">
     <g id="line2d_10">
      <g>
       <use xlink:href="#m31ceca202b" x="37.567344" y="158.74324" style="stroke: #000000; stroke-width: 0.8"/>
      </g>
     </g>
     <g id="text_11">
      <!-- $\mathdefault{10}$ -->
      <g transform="translate(20.604674 162.2924) scale(0.1 -0.1)">
       <use xlink:href="#CMR17-31" transform="scale(0.996264)"/>
       <use xlink:href="#CMR17-30" transform="translate(45.690477 0) scale(0.996264)"/>
      </g>
     </g>
    </g>
    <g id="ytick_3">
     <g id="line2d_11">
      <g>
       <use xlink:href="#m31ceca202b" x="37.567344" y="123.006323" style="stroke: #000000; stroke-width: 0.8"/>
      </g>
     </g>
     <g id="text_12">
      <!-- $\mathdefault{15}$ -->
      <g transform="translate(20.604674 126.555483) scale(0.1 -0.1)">
       <use xlink:href="#CMR17-31" transform="scale(0.996264)"/>
       <use xlink:href="#CMR17-35" transform="translate(45.690477 0) scale(0.996264)"/>
      </g>
     </g>
    </g>
    <g id="ytick_4">
     <g id="line2d_12">
      <g>
       <use xlink:href="#m31ceca202b" x="37.567344" y="87.269407" style="stroke: #000000; stroke-width: 0.8"/>
      </g>
     </g>
     <g id="text_13">
      <!-- $\mathdefault{20}$ -->
      <g transform="translate(20.604674 90.818567) scale(0.1 -0.1)">
       <use xlink:href="#CMR17-32" transform="scale(0.996264)"/>
       <use xlink:href="#CMR17-30" transform="translate(45.690477 0) scale(0.996264)"/>
      </g>
     </g>
    </g>
    <g id="ytick_5">
     <g id="line2d_13">
      <g>
       <use xlink:href="#m31ceca202b" x="37.567344" y="51.532491" style="stroke: #000000; stroke-width: 0.8"/>
      </g>
     </g>
     <g id="text_14">
      <!-- $\mathdefault{25}$ -->
      <g transform="translate(20.604674 55.081651) scale(0.1 -0.1)">
       <use xlink:href="#CMR17-32" transform="scale(0.996264)"/>
       <use xlink:href="#CMR17-35" transform="translate(45.690477 0) scale(0.996264)"/>
      </g>
     </g>
    </g>
    <g id="ytick_6">
     <g id="line2d_14">
      <g>
       <use xlink:href="#m31ceca202b" x="37.567344" y="15.795574" style="stroke: #000000; stroke-width: 0.8"/>
      </g>
     </g>
     <g id="text_15">
      <!-- $\mathdefault{30}$ -->
      <g transform="translate(20.604674 19.344734) scale(0.1 -0.1)">
       <use xlink:href="#CMR17-33" transform="scale(0.996264)"/>
       <use xlink:href="#CMR17-30" transform="translate(45.690477 0) scale(0.996264)"/>
      </g>
     </g>
    </g>
    <g id="text_16">
     <!-- Average CFL - Blade_1 -->
     <g transform="translate(14.482687 168.77932) rotate(-90) scale(0.1 -0.1)">
      <defs>
       <path id="NimbusSanL-Regu-41" d="M 3034 1408 
L 3514 0 
L 4179 0 
L 2541 4672 
L 1773 4672 
L 109 0 
L 742 0 
L 1235 1408 
L 3034 1408 
z
M 2867 1907 
L 1382 1907 
L 2150 4032 
L 2867 1907 
z
" transform="scale(0.015625)"/>
       <path id="NimbusSanL-Regu-76" d="M 1824 0 
L 3110 3328 
L 2509 3328 
L 1562 629 
L 666 3328 
L 64 3328 
L 1242 0 
L 1824 0 
z
" transform="scale(0.015625)"/>
       <path id="NimbusSanL-Regu-67" d="M 2637 3359 
L 2637 2873 
C 2368 3270 2042 3456 1613 3456 
C 762 3456 186 2714 186 1632 
C 186 1084 333 638 608 320 
C 858 38 1216 -128 1568 -128 
C 1990 -128 2285 51 2586 473 
L 2586 300 
C 2586 -155 2528 -441 2394 -634 
C 2253 -841 1978 -960 1651 -960 
C 1408 -960 1190 -894 1043 -774 
C 922 -674 870 -581 838 -375 
L 294 -375 
C 352 -1031 845 -1408 1632 -1408 
C 2131 -1408 2560 -1248 2778 -980 
C 3034 -661 3130 -222 3130 568 
L 3130 3359 
L 2637 3359 
z
M 1670 2963 
C 2246 2963 2586 2479 2586 1644 
C 2586 848 2240 364 1677 364 
C 1094 364 742 855 742 1663 
C 742 2466 1101 2963 1670 2963 
z
" transform="scale(0.015625)"/>
       <path id="NimbusSanL-Regu-43" d="M 4237 3219 
C 4051 4236 3462 4736 2438 4736 
C 1811 4736 1306 4537 960 4154 
C 538 3696 307 3035 307 2284 
C 307 1522 544 867 986 415 
C 1344 44 1805 -128 2413 -128 
C 3552 -128 4192 485 4333 1712 
L 3718 1712 
C 3667 1394 3603 1178 3507 994 
C 3315 612 2918 396 2419 396 
C 1491 396 902 1134 902 2291 
C 902 3480 1466 4211 2368 4211 
C 2746 4211 3098 4096 3290 3918 
C 3462 3759 3558 3562 3629 3219 
L 4237 3219 
z
" transform="scale(0.015625)"/>
       <path id="NimbusSanL-Regu-46" d="M 1171 2112 
L 3398 2112 
L 3398 2636 
L 1171 2636 
L 1171 4147 
L 3706 4147 
L 3706 4672 
L 576 4672 
L 576 0 
L 1171 0 
L 1171 2112 
z
" transform="scale(0.015625)"/>
       <path id="NimbusSanL-Regu-4c" d="M 1107 4672 
L 512 4672 
L 512 0 
L 3411 0 
L 3411 524 
L 1107 524 
L 1107 4672 
z
" transform="scale(0.015625)"/>
       <path id="NimbusSanL-Regu-2d" d="M 1818 1996 
L 294 1996 
L 294 1536 
L 1818 1536 
L 1818 1996 
z
" transform="scale(0.015625)"/>
       <path id="NimbusSanL-Regu-42" d="M 506 0 
L 2611 0 
C 3053 0 3379 121 3629 390 
C 3859 632 3987 961 3987 1321 
C 3987 1878 3731 2214 3136 2444 
C 3558 2643 3782 2994 3782 3476 
C 3782 3821 3654 4127 3411 4345 
C 3168 4569 2848 4672 2400 4672 
L 506 4672 
L 506 0 
z
M 1101 2636 
L 1101 4147 
L 2253 4147 
C 2586 4147 2771 4101 2931 3977 
C 3098 3847 3187 3652 3187 3391 
C 3187 3138 3098 2936 2931 2806 
C 2771 2682 2586 2636 2253 2636 
L 1101 2636 
z
M 1101 524 
L 1101 2112 
L 2554 2112 
C 2842 2112 3034 2042 3174 1890 
C 3315 1745 3392 1542 3392 1315 
C 3392 1093 3315 891 3174 746 
C 3034 594 2842 524 2554 524 
L 1101 524 
z
" transform="scale(0.015625)"/>
       <path id="NimbusSanL-Regu-6c" d="M 973 4672 
L 435 4672 
L 435 0 
L 973 0 
L 973 4672 
z
" transform="scale(0.015625)"/>
       <path id="NimbusSanL-Regu-64" d="M 3168 4672 
L 2637 4672 
L 2637 2937 
C 2413 3276 2054 3456 1606 3456 
C 736 3456 166 2759 166 1695 
C 166 568 723 -128 1626 -128 
C 2086 -128 2406 44 2694 460 
L 2694 19 
L 3168 19 
L 3168 4672 
z
M 1696 2956 
C 2272 2956 2637 2447 2637 1651 
C 2637 880 2266 371 1702 371 
C 1114 371 723 887 723 1663 
C 723 2440 1114 2956 1696 2956 
z
" transform="scale(0.015625)"/>
       <path id="NimbusSanL-Regu-31" d="M 1658 3232 
L 1658 0 
L 2221 0 
L 2221 4537 
L 1850 4537 
C 1651 3840 1523 3744 653 3635 
L 653 3232 
L 1658 3232 
z
" transform="scale(0.015625)"/>
      </defs>
      <use xlink:href="#NimbusSanL-Regu-41" transform="scale(0.996264)"/>
      <use xlink:href="#NimbusSanL-Regu-76" transform="translate(62.465918 0) scale(0.996264)"/>
      <use xlink:href="#NimbusSanL-Regu-65" transform="translate(109.788488 0) scale(0.996264)"/>
      <use xlink:href="#NimbusSanL-Regu-72" transform="translate(165.180165 0) scale(0.996264)"/>
      <use xlink:href="#NimbusSanL-Regu-61" transform="translate(197.359298 0) scale(0.996264)"/>
      <use xlink:href="#NimbusSanL-Regu-67" transform="translate(252.750975 0) scale(0.996264)"/>
      <use xlink:href="#NimbusSanL-Regu-65" transform="translate(308.142652 0) scale(0.996264)"/>
      <use xlink:href="#NimbusSanL-Regu-43" transform="translate(391.229499 0) scale(0.996264)"/>
      <use xlink:href="#NimbusSanL-Regu-46" transform="translate(463.159484 0) scale(0.996264)"/>
      <use xlink:href="#NimbusSanL-Regu-4c" transform="translate(524.031114 0) scale(0.996264)"/>
      <use xlink:href="#NimbusSanL-Regu-2d" transform="translate(607.117961 0) scale(0.996264)"/>
      <use xlink:href="#NimbusSanL-Regu-42" transform="translate(667.98836 0) scale(0.996264)"/>
      <use xlink:href="#NimbusSanL-Regu-6c" transform="translate(734.438391 0) scale(0.996264)"/>
      <use xlink:href="#NimbusSanL-Regu-61" transform="translate(756.555176 0) scale(0.996264)"/>
      <use xlink:href="#NimbusSanL-Regu-64" transform="translate(811.946853 0) scale(0.996264)"/>
      <use xlink:href="#NimbusSanL-Regu-65" transform="translate(867.33853 0) scale(0.996264)"/>
      <use xlink:href="#NimbusSanL-Regu-31" transform="translate(958.595772 0) scale(0.996264)"/>
      <path d="M 928.707548 0 
L 958.595772 0 
L 958.595772 0.3985 
L 928.707548 0.3985 
L 928.707548 0 
z
"/>
     </g>
    </g>
   </g>
   <g id="line2d_15">
    <path d="M 52.785526 128.259361 
L 52.953683 85.122171 
L 53.037761 215.707582 
L 53.12184 212.805684 
L 53.374075 200.130194 
L 53.62631 178.226946 
L 53.878545 140.378134 
L 54.13078 75.199618 
L 54.214858 214.715327 
L 54.298937 211.614978 
L 54.551172 198.072653 
L 54.803407 174.671516 
L 55.055642 134.234351 
L 55.307877 64.546361 
L 55.476033 31.502868 
L 55.560112 210.345652 
L 55.64419 206.371368 
L 55.896425 189.011695 
L 56.14866 159.01418 
L 56.569052 82.598928 
L 56.65313 215.455258 
L 56.737209 212.502895 
L 56.989444 199.606974 
L 57.241679 177.32304 
L 57.493914 138.871172 
L 57.914306 41.551143 
L 57.998384 211.350479 
L 58.082462 207.577161 
L 58.334697 191.095305 
L 58.586933 162.632912 
L 58.839168 113.513921 
L 59.007324 90.207554 
L 59.091403 90.207554 
L 59.175481 62.249759 
L 59.259559 213.420341 
L 59.343638 210.060995 
L 59.595873 195.38737 
L 59.848108 170.032095 
L 60.100343 126.260276 
L 60.2685 105.492451 
L 60.520735 105.492451 
L 60.604813 217.74461 
L 60.688891 215.250118 
L 60.941126 204.354175 
L 61.193361 185.527721 
L 61.445597 152.995811 
L 61.78191 96.812747 
L 61.865988 216.87664 
L 61.950067 214.208553 
L 62.202302 202.554352 
L 62.454537 182.415891 
L 62.706772 147.639774 
L 62.874929 111.342476 
L 62.959007 218.329613 
L 63.043085 215.952121 
L 63.29532 205.567236 
L 63.547555 187.622155 
L 63.79979 156.619363 
L 64.052025 103.06135 
L 64.136104 77.633699 
L 64.220182 214.958735 
L 64.304261 211.907068 
L 64.556496 198.577384 
L 64.808731 175.543691 
L 65.060966 135.741469 
L 65.229122 116.846348 
L 65.649514 116.846348 
L 65.733592 218.88 
L 65.817671 216.612586 
L 66.069906 206.708519 
L 66.322141 189.594292 
L 66.574376 160.020908 
L 66.826611 108.918101 
L 66.910689 218.087175 
L 66.994768 215.661196 
L 67.247003 205.064518 
L 67.499238 186.753458 
L 67.751473 155.111946 
L 68.003708 100.435415 
L 68.087786 74.479083 
L 68.171865 214.643273 
L 68.255943 211.528514 
L 68.508178 197.923243 
L 68.760413 174.413335 
L 69.012648 133.788214 
L 69.096727 114.502443 
L 69.180805 218.645609 
L 69.264883 216.331317 
L 69.517118 206.222487 
L 69.769353 188.754428 
L 70.021588 158.569624 
L 70.273824 106.410281 
L 70.357902 217.836393 
L 70.44198 215.360257 
L 70.694215 204.544496 
L 70.94645 185.854861 
L 71.198685 153.55917 
L 71.45092 97.754416 
L 71.534999 71.273317 
L 71.619077 214.322697 
L 71.703156 211.143822 
L 71.955391 197.258495 
L 72.207626 173.264651 
L 72.459861 131.803288 
L 72.712096 60.158054 
L 72.796174 213.211171 
L 72.880252 209.80999 
L 73.132488 194.953634 
L 73.384723 169.281851 
L 73.636958 124.92101 
L 73.889193 48.265477 
L 73.973271 212.021913 
L 74.057349 208.382881 
L 74.309584 192.48759 
L 74.56182 165.020526 
L 74.814055 117.55744 
L 75.06629 67.987202 
L 75.150368 67.987202 
L 75.234446 213.994085 
L 75.318525 210.749488 
L 75.57076 196.577087 
L 75.822995 172.087177 
L 76.07523 129.768613 
L 76.243387 85.576323 
L 76.327465 215.752998 
L 76.411543 212.860183 
L 76.663778 200.224367 
L 76.916013 178.389677 
L 77.168248 140.659333 
L 77.58864 44.510144 
L 77.672719 211.64638 
L 77.756797 207.932241 
L 78.009032 191.708884 
L 78.261267 163.674922 
L 78.513502 115.232237 
L 78.681659 64.63891 
L 78.765737 213.659256 
L 78.849816 210.347693 
L 79.102051 195.882785 
L 79.354286 170.887423 
L 79.606521 127.695438 
L 79.858756 53.059689 
L 79.942834 212.501334 
L 80.026912 208.958186 
L 80.279147 193.481717 
L 80.531383 166.738379 
L 80.783618 120.52589 
L 81.035853 40.671148 
L 81.119931 211.26248 
L 81.204009 207.471561 
L 81.456244 190.91283 
L 81.708479 162.299341 
L 81.960715 112.855232 
L 82.128871 61.216022 
L 82.21295 213.316967 
L 82.297028 209.936946 
L 82.549263 195.173015 
L 82.801498 169.660941 
L 83.053733 125.576077 
L 83.390047 49.397432 
L 83.474125 212.135108 
L 83.558203 208.518716 
L 83.810438 192.722312 
L 84.062673 165.426126 
L 84.314908 118.258317 
L 84.567143 68.996465 
L 85.23977 68.996465 
L 85.323849 36.752343 
L 85.407927 210.870599 
L 85.492005 207.001305 
L 85.74424 190.100226 
L 85.996475 160.895162 
L 86.248711 110.428811 
L 86.416867 57.732236 
L 86.500946 212.968589 
L 86.585024 209.518892 
L 86.837259 194.450617 
L 87.089494 168.412637 
L 87.341729 123.419008 
L 87.593964 45.692609 
L 87.678043 211.764626 
L 87.762121 208.074137 
L 88.014356 191.95408 
L 88.266591 164.098621 
L 88.518826 115.964389 
L 88.686983 65.693208 
L 88.771061 213.764686 
L 88.855139 210.474209 
L 89.107375 196.101404 
L 89.35961 171.265197 
L 89.611845 128.348232 
L 89.86408 54.187716 
L 89.948158 212.614137 
L 90.032236 209.09355 
L 90.284471 193.715625 
L 90.536707 167.142571 
L 90.788942 121.224335 
L 91.041177 41.877622 
L 91.125255 211.383127 
L 91.209333 207.616338 
L 91.461568 191.163004 
L 91.713803 162.731642 
L 91.966039 113.602249 
L 92.134195 62.291726 
L 92.218274 213.424538 
L 92.302352 210.066031 
L 92.554587 195.396073 
L 92.806822 170.046385 
L 93.059057 126.242124 
L 93.311292 50.548362 
L 93.39537 212.250201 
L 93.479449 208.656827 
L 93.731684 192.960969 
L 93.983919 165.838525 
L 94.236154 118.970943 
L 94.404311 70.022645 
L 94.488389 214.19763 
L 94.572467 210.993741 
L 94.824702 196.999156 
L 95.076938 172.816513 
L 95.329173 131.028906 
L 95.581408 58.81992 
L 95.665486 213.077357 
L 95.749564 209.649414 
L 96.001799 194.676159 
L 96.254034 168.802374 
L 96.50627 124.092473 
L 96.674426 77.39765 
L 96.758505 214.93513 
L 96.842583 211.878742 
L 97.094818 198.528437 
L 97.347053 175.45911 
L 97.599288 135.595314 
L 97.851523 66.710674 
L 97.935602 213.866433 
L 98.01968 210.596305 
L 98.271915 196.312386 
L 98.52415 171.629774 
L 98.776385 128.97822 
L 99.112698 55.276335 
L 99.196777 212.722999 
L 99.280855 209.224184 
L 99.53309 193.941361 
L 99.785325 167.532643 
L 100.03756 121.898379 
L 100.205717 74.238154 
L 100.289795 214.619181 
L 100.373874 211.499602 
L 100.626109 197.873284 
L 100.878344 174.327006 
L 101.130579 133.639037 
L 101.382814 63.330228 
L 101.466892 213.528388 
L 101.550971 210.190651 
L 101.803206 195.611416 
L 102.055441 170.418499 
L 102.307676 126.885137 
L 102.643989 51.659488 
L 102.728068 212.361314 
L 102.812146 208.790162 
L 103.064381 193.191372 
L 103.316616 166.236662 
L 103.568851 119.658923 
L 103.821086 71.013337 
L 103.905165 71.013337 
L 103.989243 39.17259 
L 104.073321 211.112624 
L 104.1574 207.291734 
L 104.409635 190.602088 
L 104.66187 161.76238 
L 104.914105 111.927364 
L 105.082262 59.879892 
L 105.16634 213.183354 
L 105.250418 209.776611 
L 105.502653 194.895955 
L 105.754888 169.182181 
L 106.007123 124.74878 
L 106.259358 47.96862 
L 106.343437 211.992227 
L 106.427515 208.347258 
L 106.67975 192.426033 
L 106.931985 164.914157 
L 107.18422 117.373634 
L 107.352377 67.722522 
L 107.436455 213.967617 
L 107.520534 210.717726 
L 107.772769 196.522202 
L 108.025004 171.992337 
L 108.277239 129.60473 
L 108.529474 56.358944 
L 108.613552 212.83126 
L 108.697631 209.354097 
L 108.949866 194.165851 
L 109.202101 167.920562 
L 109.454336 122.568702 
L 109.706571 44.200688 
L 109.790649 211.615434 
L 109.874728 207.895106 
L 110.126963 191.644715 
L 110.379198 163.564039 
L 110.631433 115.04063 
L 110.883668 64.362996 
L 110.967746 64.362996 
L 111.051825 31.193832 
L 111.135903 210.314748 
L 111.219981 206.334284 
L 111.472216 188.947613 
L 111.724451 158.903447 
L 111.976686 106.987128 
L 112.313 17.28 
L 112.397078 208.923365 
L 112.481157 204.664624 
L 112.733392 186.062441 
L 112.985627 153.917869 
L 113.237862 98.37205 
L 113.406018 40.36024 
L 113.490097 211.231389 
L 113.574175 207.434252 
L 113.82641 190.84836 
L 114.078645 162.187937 
L 114.33088 112.662726 
L 114.583115 60.938813 
L 114.751272 60.938813 
L 114.83535 27.099181 
L 114.919429 209.905283 
L 115.003507 205.842925 
L 115.255742 188.098546 
L 115.507977 157.436259 
L 115.760212 104.451827 
L 115.928369 49.148321 
L 116.012447 212.110197 
L 116.096526 208.488822 
L 116.348761 192.670656 
L 116.600996 165.336865 
L 116.853231 118.104074 
L 117.021388 68.796361 
L 117.105466 214.075001 
L 117.189544 210.846587 
L 117.441779 196.744874 
L 117.694014 172.377113 
L 117.946249 130.269623 
L 118.198485 57.566683 
L 118.282563 212.952033 
L 118.366641 209.499026 
L 118.618876 194.416288 
L 118.871111 168.353316 
L 119.123346 123.316502 
L 119.375581 76.280251 
L 119.543738 76.280251 
L 119.627817 45.528948 
L 119.711895 211.74826 
L 119.795973 208.054497 
L 120.048208 191.920143 
L 120.300443 164.039978 
L 120.552678 115.863054 
L 120.720835 65.547285 
L 120.804913 213.750094 
L 120.888992 210.456698 
L 121.141227 196.071145 
L 121.393462 171.21291 
L 121.645697 128.257881 
L 121.897932 54.031589 
L 121.98201 212.598524 
L 122.066089 209.074814 
L 122.318324 193.683251 
L 122.570559 167.086628 
L 122.822794 121.127665 
L 122.990951 73.128326 
L 123.075029 214.508198 
L 123.159107 211.366423 
L 123.411342 197.64315 
L 123.663577 173.929334 
L 123.915812 132.951861 
L 124.168048 62.142787 
L 124.252126 213.409644 
L 124.336204 210.048158 
L 124.588439 195.365189 
L 124.840674 169.993017 
L 125.092909 126.149905 
L 125.345144 50.389007 
L 125.429223 212.234266 
L 125.513301 208.637705 
L 125.765536 192.927925 
L 126.017771 165.781425 
L 126.270006 118.872274 
L 126.438163 69.880563 
L 126.522241 214.183421 
L 126.60632 210.976691 
L 126.858555 196.969694 
L 127.11079 172.765602 
L 127.363025 130.940932 
L 127.61526 58.690691 
L 127.699338 213.064434 
L 127.783417 209.633907 
L 128.035652 194.649362 
L 128.287887 168.756069 
L 128.540122 124.012458 
L 128.792357 77.287723 
L 128.876435 77.287723 
L 128.960514 46.717845 
L 129.044592 211.86715 
L 129.12867 208.197165 
L 129.380905 192.166673 
L 129.63314 164.465981 
L 129.885376 116.599187 
L 130.221689 33.885367 
L 130.305767 210.583902 
L 130.389846 206.657268 
L 130.642081 189.50573 
L 130.894316 159.867873 
L 131.146551 108.653655 
L 131.314708 55.165752 
L 131.398786 212.71194 
L 131.482864 209.210914 
L 131.735099 193.918431 
L 131.987334 167.493019 
L 132.239569 121.829909 
L 132.407726 74.139556 
L 132.491804 214.609321 
L 132.575883 211.48777 
L 132.828118 197.852839 
L 133.080353 174.291677 
L 133.332588 133.577988 
L 133.584823 63.224735 
L 133.668901 213.517839 
L 133.75298 210.177992 
L 134.005215 195.589541 
L 134.25745 170.380699 
L 134.509685 126.819819 
L 134.845998 51.546618 
L 134.930077 212.350027 
L 135.014155 208.776618 
L 135.26639 193.167967 
L 135.518625 166.196218 
L 135.77086 119.589036 
L 136.023095 70.912701 
L 136.107174 70.912701 
L 136.191252 39.051826 
L 136.27533 211.100548 
L 136.359409 207.277243 
L 136.611644 190.577047 
L 136.863879 161.719108 
L 137.116114 111.852591 
L 137.284271 59.772219 
L 137.368349 213.172587 
L 137.452427 209.76369 
L 137.704662 194.873628 
L 137.956897 169.1436 
L 138.209132 124.682112 
L 138.545446 47.85266 
L 138.629524 211.980631 
L 138.713603 208.333343 
L 138.965838 192.401988 
L 139.218073 164.872606 
L 139.470308 117.301835 
L 139.638464 67.619131 
L 139.722543 213.957278 
L 139.806621 210.705319 
L 140.058856 196.500763 
L 140.311091 171.95529 
L 140.563326 129.540713 
L 140.815561 56.248323 
L 140.89964 212.820197 
L 140.983718 209.340822 
L 141.235953 194.142912 
L 141.488188 167.880924 
L 141.740423 122.500208 
L 141.992658 44.082331 
L 142.076737 211.603598 
L 142.160815 207.880903 
L 142.41305 191.620172 
L 142.665285 163.521629 
L 142.91752 114.967346 
L 143.085677 64.257467 
L 143.169755 213.621112 
L 143.253834 210.30192 
L 143.506069 195.803689 
L 143.758304 170.750745 
L 144.010539 127.459259 
L 144.262774 52.651571 
L 144.346852 212.460522 
L 144.430931 208.909212 
L 144.683166 193.39709 
L 144.935401 166.592143 
L 145.187636 120.273194 
L 145.523949 40.234051 
L 145.608027 211.21877 
L 145.692106 207.41911 
L 145.944341 190.822193 
L 146.196576 162.142721 
L 146.448811 112.584593 
L 146.616968 60.826302 
L 146.701046 213.277995 
L 146.785124 209.89018 
L 147.037359 195.092202 
L 147.289595 169.521297 
L 147.54183 125.334772 
L 147.794065 48.980457 
L 147.878143 212.093411 
L 147.962221 208.468679 
L 148.214456 192.635848 
L 148.466691 165.276716 
L 148.718927 118.000137 
L 149.05524 36.306209 
L 149.139318 210.825986 
L 149.223397 206.947769 
L 149.475632 190.007716 
L 149.727867 160.735304 
L 149.980102 110.152577 
L 150.148258 57.324198 
L 150.232337 212.927785 
L 150.316415 209.469928 
L 150.56865 194.366006 
L 150.820885 168.26643 
L 151.07312 123.166362 
L 151.325355 45.233445 
L 151.409434 211.71871 
L 151.493512 208.019037 
L 151.745747 191.858867 
L 151.997982 163.934094 
L 152.250217 115.680086 
L 152.586531 32.29716 
L 152.670609 210.425081 
L 152.754687 206.466683 
L 153.006922 189.176399 
L 153.259158 159.298789 
L 153.511393 107.670279 
L 153.679549 53.74969 
L 153.763628 212.570334 
L 153.847706 209.040987 
L 154.099941 193.624796 
L 154.352176 166.985619 
L 154.604411 120.953121 
L 154.940725 41.408964 
L 155.024803 211.336262 
L 155.108881 207.560099 
L 155.361116 191.065823 
L 155.613351 162.563713 
L 155.865586 113.312068 
L 156.117822 61.873866 
L 156.538213 61.873866 
L 156.622292 28.205225 
L 156.70637 210.015888 
L 156.790448 205.975651 
L 157.042683 188.327896 
L 157.294918 157.832575 
L 157.547154 105.136661 
L 157.71531 50.10128 
L 157.799389 212.205493 
L 157.883467 208.603177 
L 158.135702 192.868262 
L 158.387937 165.678327 
L 158.640172 118.694121 
L 158.892407 69.624023 
L 159.144642 69.624023 
L 159.228721 37.505413 
L 159.312799 210.945906 
L 159.396877 207.091673 
L 159.649112 190.256383 
L 159.901347 161.165001 
L 160.153582 110.895092 
L 160.321739 58.393421 
L 160.405818 213.034707 
L 160.489896 209.598234 
L 160.742131 194.58772 
L 160.994366 168.649551 
L 161.246601 123.828396 
L 161.498836 46.37744 
L 161.582914 211.833109 
L 161.666993 208.156317 
L 161.919228 192.096086 
L 162.171463 164.344008 
L 162.423698 116.388418 
L 162.591855 66.30381 
L 162.675933 213.825746 
L 162.760011 210.547481 
L 163.012246 196.228018 
L 163.264481 171.483987 
L 163.516717 128.7263 
L 163.768952 54.841018 
L 163.85303 212.679467 
L 163.937108 209.171946 
L 164.189343 193.851094 
L 164.441578 167.376661 
L 164.693813 121.628842 
L 164.946049 73.850021 
L 165.114205 73.850021 
L 165.198284 42.576611 
L 165.282362 211.453026 
L 165.36644 207.700217 
L 165.618675 191.307946 
L 165.87091 162.982102 
L 166.123145 114.035044 
L 166.291302 62.914952 
L 166.375381 213.48686 
L 166.459459 210.140818 
L 166.711694 195.525305 
L 166.963929 170.269698 
L 167.216164 126.628009 
L 167.552477 51.215171 
L 167.636556 212.316882 
L 167.720634 208.736844 
L 167.972869 193.099238 
L 168.225104 166.077455 
L 168.477339 119.383813 
L 168.645496 70.617179 
L 168.729574 214.257083 
L 168.813653 211.065085 
L 169.065888 197.122439 
L 169.318123 173.029545 
L 169.570358 131.397025 
L 169.822593 59.456031 
L 169.906671 213.140968 
L 169.99075 209.725747 
L 170.242985 194.808063 
L 170.49522 169.030304 
L 170.747455 124.486336 
L 170.915612 77.964813 
L 170.99969 214.991846 
L 171.083768 211.946801 
L 171.336003 198.646044 
L 171.588238 175.662335 
L 171.840473 135.946486 
L 172.092709 67.317499 
L 172.176787 213.927115 
L 172.260865 210.669124 
L 172.5131 196.438217 
L 172.765335 171.84721 
L 173.01757 129.35395 
L 173.353884 55.925598 
L 173.437962 212.787925 
L 173.522041 209.302095 
L 173.774276 194.075992 
L 174.026511 167.765286 
L 174.278746 122.300385 
L 174.446902 74.817043 
L 174.530981 214.677069 
L 174.615059 211.569069 
L 174.867294 197.993322 
L 175.119529 174.534432 
L 175.371764 133.99747 
L 175.623999 63.949599 
L 175.708078 213.590325 
L 175.792156 210.264976 
L 176.044391 195.739849 
L 176.296626 170.640431 
L 176.548861 127.268636 
L 176.885175 52.322174 
L 176.969253 212.427583 
L 177.053331 208.869685 
L 177.305566 193.328786 
L 177.557801 166.474114 
L 177.810036 120.06924 
L 177.978193 71.604194 
L 178.062272 214.355785 
L 178.14635 211.183527 
L 178.398585 197.327106 
L 178.65082 173.38321 
L 178.903055 132.008159 
L 179.15529 60.512069 
L 179.239368 213.246572 
L 179.323447 209.852472 
L 179.575682 195.027043 
L 179.827917 169.408702 
L 180.080152 125.140208 
L 180.332387 78.906387 
L 181.677641 78.906387 
L 181.761719 48.64425 
L 181.845797 212.05979 
L 181.929876 208.428334 
L 182.182111 192.566132 
L 182.434346 165.156247 
L 182.686581 117.791967 
L 182.854738 68.32492 
L 182.938816 214.027857 
L 183.022894 210.790014 
L 183.275129 196.647116 
L 183.527364 172.208187 
L 183.7796 129.977719 
L 184.031835 57.003469 
L 184.115913 212.895712 
L 184.199991 209.43144 
L 184.452226 194.2995 
L 184.704461 168.151507 
L 184.956696 122.967775 
L 185.208932 75.778084 
L 186.133793 75.778084 
L 186.217872 44.890286 
L 186.30195 211.684394 
L 186.386028 207.977858 
L 186.638264 191.78771 
L 186.890499 163.811134 
L 187.142734 115.467611 
L 187.31089 64.977848 
L 187.394969 213.69315 
L 187.479047 210.388366 
L 187.731282 195.953067 
L 187.983517 171.008871 
L 188.235752 127.9053 
L 188.487987 53.42233 
L 188.572066 212.537598 
L 188.656144 209.001703 
L 188.908379 193.556915 
L 189.160614 166.86832 
L 189.412849 120.750428 
L 189.581006 72.585104 
L 189.665084 214.453876 
L 189.749163 211.301236 
L 190.001398 197.530507 
L 190.253633 173.734688 
L 190.505868 132.615513 
L 190.758103 61.561577 
L 190.842181 213.351523 
L 190.92626 209.978413 
L 191.178495 195.244669 
L 191.43073 169.784759 
L 191.682965 125.790035 
L 191.9352 49.767152 
L 192.019278 212.17208 
L 192.103356 208.563082 
L 192.355591 192.798977 
L 192.607827 165.558603 
L 192.860062 118.487238 
L 193.112297 69.326111 
L 193.532688 69.326111 
L 193.616767 214.127976 
L 193.700845 210.910157 
L 193.95308 196.854723 
L 194.205315 172.566932 
L 194.45755 130.59763 
L 194.709785 58.074675 
L 194.793864 213.002833 
L 194.877942 209.559985 
L 195.130177 194.521625 
L 195.382412 168.535339 
L 195.634647 123.631037 
L 195.886882 76.733182 
L 195.970961 76.733182 
L 196.055039 46.036404 
L 196.139117 211.799006 
L 196.223196 208.115392 
L 196.475431 192.025369 
L 196.727666 164.221809 
L 196.979901 116.177257 
L 197.148058 65.999738 
L 197.232136 213.795339 
L 197.316214 210.510992 
L 197.568449 196.164966 
L 197.820684 171.375033 
L 198.072919 128.538028 
L 198.325155 54.515683 
L 198.409233 212.646933 
L 198.493311 209.132906 
L 198.745546 193.783632 
L 198.997781 167.260088 
L 199.250016 121.427403 
L 199.418173 73.559949 
L 199.502251 214.55136 
L 199.58633 211.418218 
L 199.838565 197.732651 
L 200.0908 174.083993 
L 200.343035 133.21911 
L 200.59527 62.604594 
L 200.679348 213.455825 
L 200.763427 210.103575 
L 201.015662 195.460949 
L 201.267897 170.158491 
L 201.520132 126.435844 
L 201.772367 50.883109 
L 201.856445 212.283676 
L 201.940524 208.696997 
L 202.192759 193.030382 
L 202.444994 165.958471 
L 202.697229 119.178209 
L 202.949464 70.32111 
L 203.117621 70.32111 
L 203.201699 214.227476 
L 203.285777 211.029557 
L 203.538012 197.061046 
L 203.790247 172.923458 
L 204.042483 131.213707 
L 204.294718 59.139256 
L 204.378796 213.109291 
L 204.462874 209.687734 
L 204.715109 194.742376 
L 204.967344 168.916798 
L 205.219579 124.290198 
L 205.387736 77.682373 
L 205.471814 214.963602 
L 205.555893 211.912909 
L 205.808128 198.587477 
L 206.060363 175.561132 
L 206.312598 135.771607 
L 206.564833 67.015308 
L 206.648911 213.896896 
L 206.73299 210.632861 
L 206.985225 196.375555 
L 207.23746 171.73893 
L 207.489695 129.166842 
L 207.74193 55.602274 
L 207.826008 212.755593 
L 207.910087 209.263297 
L 208.162322 194.008948 
L 208.414557 167.649433 
L 208.666792 122.100192 
L 208.834949 74.528764 
L 208.919027 214.648242 
L 209.003105 211.534475 
L 209.25534 197.933545 
L 209.507575 174.431137 
L 209.75981 133.818975 
L 210.012046 63.641161 
L 210.096124 213.559481 
L 210.180202 210.227963 
L 210.432437 195.675891 
L 210.684672 170.529912 
L 210.936907 127.077659 
L 211.189142 81.696317 
L 211.273221 81.696317 
L 211.357299 51.992165 
L 211.441378 212.394582 
L 211.525456 208.830084 
L 211.777691 193.260356 
L 212.029926 166.355866 
L 212.282161 119.864908 
L 212.534396 71.309955 
L 213.038866 71.309955 
L 213.122945 214.326361 
L 213.207023 211.148218 
L 213.459258 197.266093 
L 213.711493 173.277779 
L 213.963728 131.825974 
L 214.215963 60.197254 
L 214.300042 213.215091 
L 214.38412 209.814694 
L 214.636355 194.961763 
L 214.88859 169.295897 
L 215.140825 124.945282 
L 215.308982 78.625694 
L 215.39306 215.057935 
L 215.477138 212.026107 
L 215.729374 198.783084 
L 215.981609 175.899141 
L 216.233844 136.355687 
L 216.486079 68.024598 
L 216.570157 213.997825 
L 216.654235 210.753975 
L 216.90647 196.584841 
L 217.158706 172.100576 
L 217.410941 129.791767 
L 217.663176 56.682145 
L 217.747254 212.86358 
L 217.831332 209.392881 
L 218.083567 194.23287 
L 218.335802 168.03637 
L 218.588038 122.768819 
L 218.756194 75.491588 
L 218.840273 214.744524 
L 218.924351 211.650014 
L 219.176586 198.133196 
L 219.428821 174.776134 
L 219.681056 134.415131 
L 219.933291 64.671317 
L 220.017369 213.662497 
L 220.101448 210.351582 
L 220.353683 195.889505 
L 220.605918 170.899035 
L 220.858153 127.715504 
L 221.02631 82.614814 
L 221.110388 215.456847 
L 221.194466 212.504801 
L 221.446701 199.610268 
L 221.698937 177.328515 
L 221.951172 138.825645 
L 222.203407 72.292685 
L 222.287485 214.424634 
L 222.371563 211.266146 
L 222.623798 197.469871 
L 222.876033 173.629909 
L 223.128269 132.434454 
L 223.380504 61.248708 
L 223.464582 213.320236 
L 223.54866 209.940869 
L 223.800895 195.179792 
L 224.05313 169.672653 
L 224.305365 125.596315 
L 224.557601 79.563182 
L 224.725757 79.563182 
L 224.809836 215.151683 
L 224.893914 212.138606 
L 225.146149 198.977482 
L 225.398384 176.23506 
L 225.650619 136.936154 
L 225.902854 69.027646 
L 225.986933 214.09813 
L 226.071011 210.874341 
L 226.323246 196.792833 
L 226.575481 172.459987 
L 226.827716 130.412828 
L 227.164029 57.755338 
L 227.248108 212.970899 
L 227.332186 209.521664 
L 227.584421 194.455407 
L 227.836656 168.420915 
L 228.088891 123.433312 
L 228.341126 76.448458 
L 229.013753 76.448458 
L 229.097832 214.840211 
L 229.18191 211.764839 
L 229.434145 198.331612 
L 229.68638 175.118998 
L 229.938615 135.007599 
L 230.19085 65.695103 
L 230.274929 213.764875 
L 230.359007 210.474436 
L 230.611242 196.101797 
L 230.863477 171.265876 
L 231.115712 128.349405 
L 231.283869 83.527632 
L 231.367947 215.548128 
L 231.452025 212.61434 
L 231.704261 199.79955 
L 231.956496 177.655594 
L 232.208731 139.390837 
L 232.460966 73.269338 
L 232.545044 214.522299 
L 232.629122 211.383344 
L 232.881357 197.67239 
L 233.133592 173.979862 
L 233.385828 133.039172 
L 233.638063 62.293661 
L 233.722141 213.424731 
L 233.806219 210.066263 
L 234.058454 195.396474 
L 234.310689 170.047078 
L 234.562924 126.243322 
L 234.731081 80.494872 
L 234.81516 215.244852 
L 234.899238 212.250408 
L 235.151473 199.170677 
L 235.403708 176.568901 
L 235.655943 137.513032 
L 235.908178 70.024491 
L 235.992256 214.197814 
L 236.076335 210.993963 
L 236.32857 196.999539 
L 236.580805 172.817174 
L 236.83304 131.030048 
L 237.001197 87.387757 
L 237.085275 215.934141 
L 237.169353 213.077555 
L 237.421588 200.599986 
L 237.673824 179.038746 
L 237.926059 141.780925 
L 238.178294 77.39941 
L 238.262372 214.935306 
L 238.34645 211.878953 
L 238.598685 198.528802 
L 238.85092 175.459741 
L 239.103156 135.596404 
L 239.355391 66.712557 
L 239.439469 213.866621 
L 239.523547 210.596531 
L 239.775782 196.312776 
L 240.028017 171.630448 
L 240.280252 128.979386 
L 240.616566 55.27835 
L 240.700644 212.7232 
L 240.784723 209.224426 
L 241.036958 193.941779 
L 241.289193 167.533365 
L 241.541428 121.899627 
L 241.709584 74.239951 
L 241.793663 214.61936 
L 241.877741 211.499818 
L 242.129976 197.873656 
L 242.382211 174.32765 
L 242.634446 133.64015 
L 242.886681 91.146304 
L 242.97076 91.146304 
L 243.054838 63.33215 
L 243.138916 213.52858 
L 243.222995 210.190882 
L 243.47523 195.611815 
L 243.727465 170.419188 
L 243.9797 126.886327 
L 244.147857 81.420799 
L 244.231935 215.337445 
L 244.316013 212.36152 
L 244.568248 199.362677 
L 244.820484 176.900678 
L 245.072719 138.086342 
L 245.324954 71.01517 
L 245.409032 214.296882 
L 245.49311 211.112844 
L 245.745345 197.204966 
L 245.99758 173.172153 
L 246.249816 131.643451 
L 246.502051 88.271058 
L 247.342834 88.271058 
L 247.426912 59.881854 
L 247.510991 213.183551 
L 247.595069 209.776846 
L 247.847304 194.896362 
L 248.099539 169.182884 
L 248.351774 124.749995 
L 248.604009 78.344481 
L 249.781106 78.344481 
L 249.865185 215.029813 
L 249.949263 211.992361 
L 250.201498 198.724772 
L 250.453733 175.798377 
L 250.705968 136.181567 
L 250.958203 67.723719 
L 251.042282 213.967737 
L 251.12636 210.71787 
L 251.378595 196.522451 
L 251.63083 171.992766 
L 251.883065 129.605471 
L 252.051222 85.336366 
L 252.1353 215.729002 
L 252.219379 212.831388 
L 252.471614 200.174609 
L 252.723849 178.303696 
L 252.976084 140.510758 
L 253.228319 75.204561 
L 253.312397 214.715821 
L 253.396475 211.615571 
L 253.648711 198.073678 
L 253.900946 174.673287 
L 254.153181 134.237411 
L 254.405416 64.364218 
L 254.489494 213.631787 
L 254.573572 210.31473 
L 254.825807 195.825824 
L 255.078043 170.788996 
L 255.330278 127.525356 
L 255.498434 82.341001 
L 255.582513 215.429465 
L 255.666591 212.471944 
L 255.918826 199.55349 
L 256.171061 177.230402 
L 256.423296 138.656107 
L 256.675531 71.999724 
L 256.75961 214.395338 
L 256.843688 211.230991 
L 257.095923 197.409123 
L 257.348158 173.524936 
L 257.600393 132.25306 
L 257.852628 60.93526 
L 257.936707 213.288891 
L 258.020785 209.903255 
L 258.27302 195.114796 
L 258.525255 169.560338 
L 258.77749 125.402236 
L 259.113803 49.097035 
L 259.197882 212.105069 
L 259.28196 208.482668 
L 259.534195 192.660021 
L 259.78643 165.318488 
L 260.038665 118.072319 
L 260.206822 68.728627 
L 260.2909 214.068228 
L 260.374979 210.838459 
L 260.627214 196.730828 
L 260.879449 172.352843 
L 261.131684 130.227684 
L 261.383919 86.232353 
L 262.476938 86.232353 
L 262.561016 57.435409 
L 262.645094 212.938906 
L 262.729173 209.483273 
L 262.981408 194.389067 
L 263.233643 168.306278 
L 263.485878 123.23522 
L 263.654034 76.163206 
L 263.738113 214.811686 
L 263.822191 211.730608 
L 264.074426 198.272463 
L 264.326661 175.016787 
L 264.578896 134.830979 
L 264.831131 92.861097 
L 264.91521 92.861097 
L 264.999288 65.389902 
L 265.083366 213.734355 
L 265.167445 210.437812 
L 265.41968 196.03851 
L 265.671915 171.156517 
L 265.92415 128.160433 
L 266.092307 83.255512 
L 266.176385 215.520916 
L 266.260463 212.581685 
L 266.512698 199.743123 
L 266.764934 177.558088 
L 267.017169 139.222348 
L 267.269404 72.978188 
L 267.353482 214.493184 
L 267.43756 211.348406 
L 267.689795 197.612017 
L 267.94203 173.875537 
L 268.194266 132.8589 
L 268.446501 61.98215 
L 268.530579 213.39358 
L 268.614657 210.028882 
L 268.866892 195.331879 
L 269.119127 169.935458 
L 269.371362 126.050443 
L 269.623598 50.217136 
L 269.707676 212.217079 
L 269.791754 208.61708 
L 270.043989 192.892286 
L 270.296224 165.719841 
L 270.548459 118.765856 
L 270.716616 69.727321 
L 270.800694 214.168097 
L 270.884773 210.958302 
L 271.137008 196.937918 
L 271.389243 172.710693 
L 271.641478 130.846049 
L 271.893713 87.122798 
L 272.06187 87.122798 
L 272.145948 58.503943 
L 272.230026 213.04576 
L 272.314105 209.611497 
L 272.56634 194.610638 
L 272.818575 168.689154 
L 273.07081 123.896829 
L 273.238967 77.115922 
L 273.323045 214.906957 
L 273.407123 211.844934 
L 273.659358 198.470018 
L 273.911594 175.358162 
L 274.163829 135.420875 
L 274.416064 66.409244 
L 274.500142 213.83629 
L 274.58422 210.560133 
L 274.836455 196.249881 
L 275.08869 171.521766 
L 275.340925 128.791583 
L 275.509082 84.164367 
L 275.593161 215.611802 
L 275.677239 212.690748 
L 275.929474 199.931583 
L 276.181709 177.883747 
L 276.433944 139.785087 
L 276.686179 73.950601 
L 276.770257 214.590425 
L 276.854336 211.465096 
L 277.106571 197.813657 
L 277.358806 174.223971 
L 277.611041 133.460992 
L 277.863276 63.022566 
L 277.947354 213.497622 
L 278.031433 210.153732 
L 278.283668 195.54762 
L 278.535903 170.308258 
L 278.788138 126.694641 
L 279.040373 51.330311 
L 279.124451 212.328396 
L 279.20853 208.750661 
L 279.460765 193.123114 
L 279.713 166.118712 
L 279.965235 119.455105 
L 280.21747 70.719839 
L 280.637862 70.719839 
L 280.72194 214.267349 
L 280.806018 211.077404 
L 281.058253 197.143726 
L 281.310489 173.06633 
L 281.562724 131.46059 
L 281.814959 59.56587 
L 281.899037 213.151952 
L 281.983115 209.738928 
L 282.23535 194.830839 
L 282.487585 169.069661 
L 282.739821 124.554346 
L 282.907977 78.062746 
L 282.992056 215.00164 
L 283.076134 211.958553 
L 283.328369 198.666351 
L 283.580604 175.697426 
L 283.832839 136.007124 
L 284.085074 67.422282 
L 284.169153 213.937593 
L 284.253231 210.681698 
L 284.505466 196.459945 
L 284.757701 171.884756 
L 285.009936 129.418829 
L 285.178093 85.067602 
L 285.262171 215.702125 
L 285.346249 212.799136 
L 285.598485 200.118878 
L 285.85072 178.207393 
L 286.102955 140.344346 
L 286.35519 74.917001 
L 286.439268 214.687065 
L 286.523346 211.581064 
L 286.775581 198.01405 
L 287.027817 174.570249 
L 287.280052 134.059362 
L 287.532287 64.056548 
L 287.616365 213.60102 
L 287.700443 210.27781 
L 287.952678 195.762026 
L 288.204913 170.678752 
L 288.457149 127.334855 
L 288.709384 52.436602 
L 288.793462 212.439025 
L 288.87754 208.883416 
L 289.129775 193.352514 
L 289.38201 166.515115 
L 289.634245 120.140091 
L 289.970559 40.004048 
L 290.054637 211.19577 
L 290.138716 207.391509 
L 290.390951 190.7745 
L 290.643186 162.060307 
L 290.895421 112.442181 
L 291.063577 60.621229 
L 291.147656 213.257488 
L 291.231734 209.865571 
L 291.483969 195.049678 
L 291.736204 169.447815 
L 291.988439 125.207796 
L 292.240674 79.003715 
L 293.50185 79.003715 
L 293.585928 215.095737 
L 293.670006 212.07147 
L 293.922241 198.861471 
L 294.174476 176.034593 
L 294.426712 136.589747 
L 294.678947 68.429054 
L 294.763025 214.038271 
L 294.847103 210.80251 
L 295.099338 196.668709 
L 295.351573 172.2455 
L 295.603808 130.042196 
L 295.856044 85.96525 
L 295.940122 85.96525 
L 296.0242 57.114886 
L 296.108279 212.906854 
L 296.192357 209.44481 
L 296.444592 194.322603 
L 296.696827 168.191429 
L 296.949062 123.036761 
L 297.285376 45.009495 
L 297.369454 211.696315 
L 297.453532 207.992163 
L 297.705767 191.812429 
L 297.958002 163.853849 
L 298.210237 115.541422 
L 298.462472 65.084136 
L 299.135099 65.084136 
L 299.219178 213.703779 
L 299.303256 210.40112 
L 299.555491 195.975107 
L 299.807726 171.046956 
L 300.059961 127.97111 
L 300.312196 53.53605 
L 300.396275 212.54897 
L 300.480353 209.01535 
L 300.732588 193.580496 
L 300.984823 166.909068 
L 301.237058 120.82084 
L 301.405215 72.686498 
L 301.489293 214.464015 
L 301.573372 211.313404 
L 301.825607 197.551533 
L 302.077842 173.77102 
L 302.330077 132.678293 
L 302.66639 61.670062 
L 302.750468 213.362371 
L 302.834547 209.991431 
L 303.086782 195.267164 
L 303.339017 169.823631 
L 303.591252 125.857206 
L 303.759409 79.938865 
L 303.843487 215.189252 
L 303.927565 212.183687 
L 304.1798 199.055383 
L 304.432035 176.369674 
L 304.684271 137.168767 
L 304.936506 69.429601 
L 305.020584 214.138325 
L 305.104662 210.922576 
L 305.356897 196.876182 
L 305.609132 172.604014 
L 305.861367 130.661708 
L 306.113603 58.185403 
L 306.197681 213.013905 
L 306.281759 209.573272 
L 306.533994 194.544585 
L 306.786229 168.575015 
L 307.038464 123.699597 
L 307.290699 46.154875 
L 307.374778 211.810853 
L 307.458856 208.129609 
L 307.711091 192.049935 
L 307.963326 164.264259 
L 308.215561 116.250611 
L 308.467796 66.105368 
L 308.80411 66.105368 
L 308.888188 213.805902 
L 308.972267 210.523668 
L 309.224502 196.186869 
L 309.476737 171.412882 
L 309.728972 128.603431 
L 309.981207 54.6287 
L 310.065285 212.658235 
L 310.149363 209.146468 
L 310.401599 193.807067 
L 310.653834 167.300584 
L 310.906069 121.49738 
L 311.074225 73.660716 
L 311.158304 214.561437 
L 311.242382 211.43031 
L 311.494617 197.753546 
L 311.746852 174.120099 
L 311.999087 133.281503 
L 312.335401 62.712408 
L 312.419479 213.466606 
L 312.503557 210.116513 
L 312.755792 195.483305 
L 313.008027 170.197123 
L 313.260263 126.502599 
L 313.428419 80.868231 
L 313.512498 215.282188 
L 313.596576 212.295211 
L 313.848811 199.248097 
L 314.101046 176.702682 
L 314.353281 137.744206 
L 314.605516 70.42396 
L 314.689595 214.237761 
L 314.773673 211.041899 
L 315.025908 197.082373 
L 315.278143 172.960311 
L 315.530378 131.277389 
L 315.782613 59.249299 
L 315.866691 213.120295 
L 315.95077 209.70094 
L 316.203005 194.765195 
L 316.45524 168.956228 
L 316.707475 124.358334 
L 317.043788 47.293172 
L 317.127867 211.924682 
L 317.211945 208.266204 
L 317.46418 192.285972 
L 317.716415 164.672132 
L 317.96865 116.955415 
L 318.220885 67.120285 
L 318.893512 67.120285 
L 318.97759 213.907394 
L 319.061669 210.645458 
L 319.313904 196.397323 
L 319.566139 171.776545 
L 319.818374 129.231841 
L 320.070609 55.714592 
L 320.154687 212.766824 
L 320.238766 209.276775 
L 320.491001 194.032238 
L 320.743236 167.689679 
L 320.995471 122.169736 
L 321.163628 74.628908 
L 321.247706 214.658256 
L 321.331784 211.546493 
L 321.584019 197.954311 
L 321.836254 174.46702 
L 322.08849 133.880982 
L 322.340725 63.748308 
L 322.424803 213.570196 
L 322.508881 210.240821 
L 322.761116 195.698109 
L 323.013351 170.568304 
L 323.265586 127.144001 
L 323.433743 81.79185 
L 323.517822 215.37455 
L 323.6019 212.406046 
L 323.854135 199.439618 
L 324.10637 177.033632 
L 324.358605 138.316087 
L 324.61084 71.412169 
L 324.694918 214.336582 
L 324.778997 211.160484 
L 325.031232 197.287288 
L 325.283467 173.314404 
L 325.535702 131.889262 
L 325.787937 60.306616 
L 325.872015 213.226027 
L 325.956094 209.827818 
L 326.208329 194.98444 
L 326.460564 169.335084 
L 326.712799 125.012996 
L 326.965034 48.424429 
L 327.049112 212.037808 
L 327.133191 208.401955 
L 327.385426 192.52055 
L 327.637661 165.077482 
L 327.889896 117.655859 
L 328.142131 68.128926 
L 328.982914 68.128926 
L 329.066993 214.008258 
L 329.151071 210.766495 
L 329.403306 196.606474 
L 329.655541 172.137959 
L 329.907776 129.856364 
L 330.160011 56.793769 
L 330.24409 212.874742 
L 330.328168 209.406276 
L 330.580403 194.256016 
L 330.832638 168.076367 
L 331.084873 122.837934 
L 331.25303 75.591113 
L 331.337108 214.754476 
L 331.421187 211.661957 
L 331.673422 198.153833 
L 331.925657 174.811795 
L 332.177892 134.476754 
L 332.430127 64.777802 
L 332.514205 213.673145 
L 332.598284 210.36436 
L 332.850519 195.911585 
L 333.102754 170.937191 
L 333.354989 127.781437 
L 333.691302 53.208294 
L 333.775381 212.516195 
L 333.859459 208.976019 
L 334.111694 193.512532 
L 334.363929 166.791627 
L 334.616164 120.617902 
L 334.784321 72.394267 
L 334.868399 214.434792 
L 334.952477 211.278336 
L 335.204713 197.490936 
L 335.456948 173.666308 
L 335.709183 132.497351 
L 335.961418 61.357395 
L 336.045496 213.331105 
L 336.129574 209.953911 
L 336.381809 195.20233 
L 336.634045 169.711597 
L 336.88628 125.663611 
L 337.138515 49.54869 
L 337.222593 212.150234 
L 337.306671 208.536867 
L 337.558906 192.753677 
L 337.811141 165.480325 
L 338.063377 118.351972 
L 338.315612 69.131328 
L 339.156395 69.131328 
L 339.240473 214.108498 
L 339.324552 210.886783 
L 339.576787 196.814332 
L 339.829022 172.497138 
L 340.081257 130.477026 
L 340.333492 57.866271 
L 340.41757 212.981992 
L 340.501649 209.534976 
L 340.753884 194.47841 
L 341.006119 168.460664 
L 341.258354 123.501999 
L 341.510589 76.547367 
L 342.939921 76.547367 
L 343.023999 45.813426 
L 343.108078 211.776708 
L 343.192156 208.088635 
L 343.444391 191.979132 
L 343.696626 164.141912 
L 343.948861 116.039195 
L 344.117018 65.800929 
L 344.201096 213.775458 
L 344.285175 210.487135 
L 344.53741 196.123741 
L 344.789645 171.303796 
L 345.04188 128.41493 
L 345.294115 54.30297 
L 345.378193 212.625662 
L 345.462272 209.10738 
L 345.714507 193.739524 
L 345.966742 167.183869 
L 346.218977 121.295697 
L 346.471212 42.000936 
L 346.55529 211.395459 
L 346.639368 207.631136 
L 346.891604 191.188574 
L 347.143839 162.775828 
L 347.396074 113.678602 
L 347.56423 62.401674 
L 347.648309 213.435533 
L 347.732387 210.079225 
L 347.984622 195.418871 
L 348.236857 170.085781 
L 348.489092 126.310201 
L 348.741327 50.665999 
L 348.825406 212.261965 
L 348.909484 208.670944 
L 349.161719 192.985362 
L 349.413954 165.880677 
L 349.666189 119.04378 
L 349.834346 70.127532 
L 349.918424 214.208118 
L 350.002503 211.006328 
L 350.254738 197.020905 
L 350.506973 172.854096 
L 350.759208 131.093848 
L 351.011443 58.932141 
L 351.095521 213.088579 
L 351.1796 209.662881 
L 351.431835 194.699429 
L 351.68407 168.842585 
L 351.936305 124.161958 
L 352.18854 46.953834 
L 352.272618 211.890749 
L 352.356696 208.225484 
L 352.608932 192.215607 
L 352.861167 164.550541 
L 353.113402 116.745306 
L 353.365637 66.817729 
L 354.038264 66.817729 
L 354.122342 34.13786 
L 354.20642 210.609151 
L 354.290499 206.687567 
L 354.542734 189.558087 
L 354.794969 159.958345 
L 355.047204 108.809992 
L 355.21536 55.390877 
L 355.299439 212.734453 
L 355.383517 209.237929 
L 355.635752 193.965112 
L 355.887987 167.573686 
L 356.140222 121.9693 
L 356.392457 43.164922 
L 356.476536 211.511857 
L 356.560614 207.770814 
L 356.812849 191.429938 
L 357.065084 163.192905 
L 357.149163 149.788072 
L 357.149163 149.788072 
" clip-path="url(#p17229394b7)" style="fill: none; stroke: #1f77b4; stroke-width: 1.5; stroke-linecap: square"/>
   </g>
   <g id="patch_3">
    <path d="M 37.567344 228.96 
L 37.567344 7.2 
" style="fill: none; stroke: #000000; stroke-width: 0.8; stroke-linejoin: miter; stroke-linecap: square"/>
   </g>
   <g id="patch_4">
    <path d="M 372.367344 228.96 
L 372.367344 7.2 
" style="fill: none; stroke: #000000; stroke-width: 0.8; stroke-linejoin: miter; stroke-linecap: square"/>
   </g>
   <g id="patch_5">
    <path d="M 37.567344 228.96 
L 372.367344 228.96 
" style="fill: none; stroke: #000000; stroke-width: 0.8; stroke-linejoin: miter; stroke-linecap: square"/>
   </g>
   <g id="patch_6">
    <path d="M 37.567344 7.2 
L 372.367344 7.2 
" style="fill: none; stroke: #000000; stroke-width: 0.8; stroke-linejoin: miter; stroke-linecap: square"/>
   </g>
   <g id="legend_1">
    <g id="patch_7">
     <path d="M 314.548024 29.420307 
L 365.367344 29.420307 
Q 367.367344 29.420307 367.367344 27.420307 
L 367.367344 14.2 
Q 367.367344 12.2 365.367344 12.2 
L 314.548024 12.2 
Q 312.548024 12.2 312.548024 14.2 
L 312.548024 27.420307 
Q 312.548024 29.420307 314.548024 29.420307 
z
" style="fill: #ffffff; opacity: 0.8; stroke: #cccccc; stroke-linejoin: miter"/>
    </g>
    <g id="line2d_16">
     <path d="M 316.548024 19.79832 
L 326.548024 19.79832 
L 336.548024 19.79832 
" style="fill: none; stroke: #1f77b4; stroke-width: 1.5; stroke-linecap: square"/>
    </g>
    <g id="text_17">
     <!-- CFL -->
     <g transform="translate(344.548024 23.29832) scale(0.1 -0.1)">
      <use xlink:href="#NimbusSanL-Regu-43" transform="scale(0.996264)"/>
      <use xlink:href="#NimbusSanL-Regu-46" transform="translate(71.929985 0) scale(0.996264)"/>
      <use xlink:href="#NimbusSanL-Regu-4c" transform="translate(132.801616 0) scale(0.996264)"/>
     </g>
    </g>
   </g>
  </g>
 </g>
 <defs>
  <clipPath id="p17229394b7">
   <rect x="37.567344" y="7.2" width="334.8" height="221.76"/>
  </clipPath>
 </defs>
</svg>
