<?xml version="1.0" encoding="utf-8" standalone="no"?>
<!DOCTYPE svg PUBLIC "-//W3C//DTD SVG 1.1//EN"
  "http://www.w3.org/Graphics/SVG/1.1/DTD/svg11.dtd">
<svg xmlns:xlink="http://www.w3.org/1999/xlink" width="379.567344pt" height="265.600613pt" viewBox="0 0 379.567344 265.600613" xmlns="http://www.w3.org/2000/svg" version="1.1">
 <metadata>
  <rdf:RDF xmlns:dc="http://purl.org/dc/elements/1.1/" xmlns:cc="http://creativecommons.org/ns#" xmlns:rdf="http://www.w3.org/1999/02/22-rdf-syntax-ns#">
   <cc:Work>
    <dc:type rdf:resource="http://purl.org/dc/dcmitype/StillImage"/>
    <dc:date>2025-07-17T20:38:06.457052</dc:date>
    <dc:format>image/svg+xml</dc:format>
    <dc:creator>
     <cc:Agent>
      <dc:title>Matplotlib v3.10.3, https://matplotlib.org/</dc:title>
     </cc:Agent>
    </dc:creator>
   </cc:Work>
  </rdf:RDF>
 </metadata>
 <defs>
  <style type="text/css">*{stroke-linejoin: round; stroke-linecap: butt}</style>
 </defs>
 <g id="figure_1">
  <g id="patch_1">
   <path d="M 0 265.600613 
L 379.567344 265.600613 
L 379.567344 0 
L 0 0 
z
" style="fill: #ffffff"/>
  </g>
  <g id="axes_1">
   <g id="patch_2">
    <path d="M 37.567344 228.96 
L 372.367344 228.96 
L 372.367344 7.2 
L 37.567344 7.2 
z
" style="fill: #ffffff"/>
   </g>
   <g id="matplotlib.axis_1">
    <g id="xtick_1">
     <g id="line2d_1">
      <defs>
       <path id="m3897ca2ed9" d="M 0 0 
L 0 3.5 
" style="stroke: #000000; stroke-width: 0.8"/>
      </defs>
      <g>
       <use xlink:href="#m3897ca2ed9" x="52.785526" y="228.96" style="stroke: #000000; stroke-width: 0.8"/>
      </g>
     </g>
     <g id="text_1">
      <!-- $\mathdefault{0}$ -->
      <g transform="translate(50.294859 243.05832) scale(0.1 -0.1)">
       <defs>
        <path id="CMR17-30" d="M 2688 2038 
C 2688 2430 2682 3099 2413 3613 
C 2176 4063 1798 4224 1466 4224 
C 1158 4224 768 4082 525 3620 
C 269 3137 243 2539 243 2038 
C 243 1671 250 1112 448 623 
C 723 -39 1216 -128 1466 -128 
C 1760 -128 2208 -7 2470 604 
C 2662 1048 2688 1568 2688 2038 
z
M 1466 -26 
C 1056 -26 813 328 723 816 
C 653 1196 653 1749 653 2109 
C 653 2604 653 3015 736 3407 
C 858 3954 1216 4121 1466 4121 
C 1728 4121 2067 3947 2189 3420 
C 2272 3054 2278 2623 2278 2109 
C 2278 1691 2278 1176 2202 797 
C 2067 96 1690 -26 1466 -26 
z
" transform="scale(0.015625)"/>
       </defs>
       <use xlink:href="#CMR17-30" transform="scale(0.996264)"/>
      </g>
     </g>
    </g>
    <g id="xtick_2">
     <g id="line2d_2">
      <g>
       <use xlink:href="#m3897ca2ed9" x="119.385884" y="228.96" style="stroke: #000000; stroke-width: 0.8"/>
      </g>
     </g>
     <g id="text_2">
      <!-- $\mathdefault{100}$ -->
      <g transform="translate(111.913881 243.05832) scale(0.1 -0.1)">
       <defs>
        <path id="CMR17-31" d="M 1702 4083 
C 1702 4217 1696 4224 1606 4224 
C 1357 3927 979 3833 621 3820 
C 602 3820 570 3820 563 3808 
C 557 3795 557 3782 557 3648 
C 755 3648 1088 3686 1344 3839 
L 1344 467 
C 1344 243 1331 166 781 166 
L 589 166 
L 589 0 
C 896 6 1216 12 1523 12 
C 1830 12 2150 6 2458 0 
L 2458 166 
L 2266 166 
C 1715 166 1702 236 1702 467 
L 1702 4083 
z
" transform="scale(0.015625)"/>
       </defs>
       <use xlink:href="#CMR17-31" transform="scale(0.996264)"/>
       <use xlink:href="#CMR17-30" transform="translate(45.690477 0) scale(0.996264)"/>
       <use xlink:href="#CMR17-30" transform="translate(91.380954 0) scale(0.996264)"/>
      </g>
     </g>
    </g>
    <g id="xtick_3">
     <g id="line2d_3">
      <g>
       <use xlink:href="#m3897ca2ed9" x="185.986242" y="228.96" style="stroke: #000000; stroke-width: 0.8"/>
      </g>
     </g>
     <g id="text_3">
      <!-- $\mathdefault{200}$ -->
      <g transform="translate(178.514239 243.05832) scale(0.1 -0.1)">
       <defs>
        <path id="CMR17-32" d="M 2669 990 
L 2554 990 
C 2490 537 2438 460 2413 422 
C 2381 371 1920 371 1830 371 
L 602 371 
C 832 620 1280 1073 1824 1596 
C 2214 1966 2669 2400 2669 3033 
C 2669 3788 2067 4224 1395 4224 
C 691 4224 262 3603 262 3027 
C 262 2777 448 2745 525 2745 
C 589 2745 781 2783 781 3007 
C 781 3206 614 3264 525 3264 
C 486 3264 448 3257 422 3244 
C 544 3788 915 4057 1306 4057 
C 1862 4057 2227 3616 2227 3033 
C 2227 2477 1901 1998 1536 1583 
L 262 147 
L 262 0 
L 2515 0 
L 2669 990 
z
" transform="scale(0.015625)"/>
       </defs>
       <use xlink:href="#CMR17-32" transform="scale(0.996264)"/>
       <use xlink:href="#CMR17-30" transform="translate(45.690477 0) scale(0.996264)"/>
       <use xlink:href="#CMR17-30" transform="translate(91.380954 0) scale(0.996264)"/>
      </g>
     </g>
    </g>
    <g id="xtick_4">
     <g id="line2d_4">
      <g>
       <use xlink:href="#m3897ca2ed9" x="252.5866" y="228.96" style="stroke: #000000; stroke-width: 0.8"/>
      </g>
     </g>
     <g id="text_4">
      <!-- $\mathdefault{300}$ -->
      <g transform="translate(245.114598 243.05832) scale(0.1 -0.1)">
       <defs>
        <path id="CMR17-33" d="M 1414 2176 
C 1984 2176 2234 1673 2234 1094 
C 2234 322 1824 25 1453 25 
C 1114 25 563 193 390 691 
C 422 678 454 678 486 678 
C 640 678 755 780 755 947 
C 755 1132 614 1216 486 1216 
C 378 1216 211 1164 211 927 
C 211 335 787 -128 1466 -128 
C 2176 -128 2720 432 2720 1087 
C 2720 1718 2208 2176 1600 2246 
C 2086 2347 2554 2776 2554 3353 
C 2554 3856 2048 4224 1472 4224 
C 890 4224 378 3862 378 3347 
C 378 3123 544 3084 627 3084 
C 762 3084 877 3167 877 3334 
C 877 3500 762 3584 627 3584 
C 602 3584 570 3584 544 3571 
C 730 3999 1235 4076 1459 4076 
C 1683 4076 2106 3966 2106 3347 
C 2106 3167 2080 2851 1862 2574 
C 1670 2329 1453 2316 1242 2297 
C 1210 2297 1062 2284 1037 2284 
C 992 2278 966 2272 966 2227 
C 966 2182 973 2176 1101 2176 
L 1414 2176 
z
" transform="scale(0.015625)"/>
       </defs>
       <use xlink:href="#CMR17-33" transform="scale(0.996264)"/>
       <use xlink:href="#CMR17-30" transform="translate(45.690477 0) scale(0.996264)"/>
       <use xlink:href="#CMR17-30" transform="translate(91.380954 0) scale(0.996264)"/>
      </g>
     </g>
    </g>
    <g id="xtick_5">
     <g id="line2d_5">
      <g>
       <use xlink:href="#m3897ca2ed9" x="319.186958" y="228.96" style="stroke: #000000; stroke-width: 0.8"/>
      </g>
     </g>
     <g id="text_5">
      <!-- $\mathdefault{400}$ -->
      <g transform="translate(311.714956 243.05832) scale(0.1 -0.1)">
       <defs>
        <path id="CMR17-34" d="M 2150 4147 
C 2150 4281 2144 4288 2029 4288 
L 128 1254 
L 128 1088 
L 1779 1088 
L 1779 460 
C 1779 230 1766 166 1318 166 
L 1197 166 
L 1197 0 
C 1402 12 1747 12 1965 12 
C 2182 12 2528 12 2733 0 
L 2733 166 
L 2611 166 
C 2163 166 2150 230 2150 460 
L 2150 1088 
L 2803 1088 
L 2803 1254 
L 2150 1254 
L 2150 4147 
z
M 1798 3723 
L 1798 1254 
L 256 1254 
L 1798 3723 
z
" transform="scale(0.015625)"/>
       </defs>
       <use xlink:href="#CMR17-34" transform="scale(0.996264)"/>
       <use xlink:href="#CMR17-30" transform="translate(45.690477 0) scale(0.996264)"/>
       <use xlink:href="#CMR17-30" transform="translate(91.380954 0) scale(0.996264)"/>
      </g>
     </g>
    </g>
    <g id="text_6">
     <!-- Iteration -->
     <g transform="translate(187.019968 256.278627) scale(0.1 -0.1)">
      <defs>
       <path id="NimbusSanL-Regu-49" d="M 1242 4672 
L 640 4672 
L 640 0 
L 1242 0 
L 1242 4672 
z
" transform="scale(0.015625)"/>
       <path id="NimbusSanL-Regu-74" d="M 1626 3328 
L 1075 3328 
L 1075 4249 
L 544 4249 
L 544 3328 
L 90 3328 
L 90 2892 
L 544 2892 
L 544 402 
C 544 64 774 -128 1190 -128 
C 1318 -128 1446 -116 1626 -84 
L 1626 364 
C 1555 345 1472 339 1370 339 
C 1139 339 1075 402 1075 634 
L 1075 2892 
L 1626 2892 
L 1626 3328 
z
" transform="scale(0.015625)"/>
       <path id="NimbusSanL-Regu-65" d="M 3283 1484 
C 3283 1998 3245 2311 3149 2565 
C 2931 3123 2419 3456 1792 3456 
C 858 3456 256 2734 256 1619 
C 256 545 838 -128 1779 -128 
C 2547 -128 3078 307 3213 1018 
L 2675 1018 
C 2528 588 2227 364 1798 364 
C 1459 364 1171 514 992 787 
C 864 974 819 1161 813 1484 
L 3283 1484 
z
M 826 1920 
C 870 2552 1248 2963 1786 2963 
C 2310 2963 2714 2519 2714 1959 
C 2714 1946 2714 1933 2707 1920 
L 826 1920 
z
" transform="scale(0.015625)"/>
       <path id="NimbusSanL-Regu-72" d="M 442 3328 
L 442 0 
L 979 0 
L 979 1727 
C 979 2203 1101 2514 1357 2698 
C 1523 2819 1683 2857 2054 2863 
L 2054 3404 
C 1965 3449 1920 3456 1850 3456 
C 1504 3456 1242 3251 934 2750 
L 934 3328 
L 442 3328 
z
" transform="scale(0.015625)"/>
       <path id="NimbusSanL-Regu-61" d="M 3424 332 
C 3366 320 3341 320 3309 320 
C 3123 320 3021 415 3021 581 
L 3021 2542 
C 3021 3135 2586 3456 1760 3456 
C 1274 3456 870 3315 646 3065 
C 493 2893 429 2702 416 2370 
L 954 2370 
C 998 2778 1242 2963 1741 2963 
C 2221 2963 2490 2784 2490 2466 
L 2490 2326 
C 2490 2103 2355 2007 1933 1956 
C 1178 1861 1062 1835 858 1753 
C 467 1593 269 1294 269 861 
C 269 256 691 -128 1370 -128 
C 1792 -128 2131 19 2509 364 
C 2547 25 2714 -128 3059 -128 
C 3168 -128 3251 -116 3424 -71 
L 3424 332 
z
M 2490 1071 
C 2490 893 2438 785 2278 638 
C 2061 441 1798 339 1485 339 
C 1069 339 826 536 826 874 
C 826 1224 1062 1402 1632 1485 
C 2195 1562 2310 1587 2490 1670 
L 2490 1071 
z
" transform="scale(0.015625)"/>
       <path id="NimbusSanL-Regu-69" d="M 960 3358 
L 429 3358 
L 429 0 
L 960 0 
L 960 3358 
z
M 960 4672 
L 422 4672 
L 422 3999 
L 960 3999 
L 960 4672 
z
" transform="scale(0.015625)"/>
       <path id="NimbusSanL-Regu-6f" d="M 1741 3456 
C 800 3456 230 2784 230 1663 
C 230 543 794 -128 1747 -128 
C 2688 -128 3264 543 3264 1638 
C 3264 2791 2707 3456 1741 3456 
z
M 1747 2963 
C 2349 2963 2707 2472 2707 1644 
C 2707 861 2336 364 1747 364 
C 1152 364 787 855 787 1663 
C 787 2466 1152 2963 1747 2963 
z
" transform="scale(0.015625)"/>
       <path id="NimbusSanL-Regu-6e" d="M 448 3328 
L 448 0 
L 986 0 
L 986 1835 
C 986 2539 1344 2988 1894 2988 
C 2317 2988 2586 2732 2586 2328 
L 2586 0 
L 3117 0 
L 3117 2539 
C 3117 3097 2701 3456 2054 3456 
C 1555 3456 1235 3263 941 2796 
L 941 3328 
L 448 3328 
z
" transform="scale(0.015625)"/>
      </defs>
      <use xlink:href="#NimbusSanL-Regu-49" transform="scale(0.996264)"/>
      <use xlink:href="#NimbusSanL-Regu-74" transform="translate(27.69517 0) scale(0.996264)"/>
      <use xlink:href="#NimbusSanL-Regu-65" transform="translate(55.390339 0) scale(0.996264)"/>
      <use xlink:href="#NimbusSanL-Regu-72" transform="translate(110.782016 0) scale(0.996264)"/>
      <use xlink:href="#NimbusSanL-Regu-61" transform="translate(142.961149 0) scale(0.996264)"/>
      <use xlink:href="#NimbusSanL-Regu-74" transform="translate(198.352826 0) scale(0.996264)"/>
      <use xlink:href="#NimbusSanL-Regu-69" transform="translate(226.047996 0) scale(0.996264)"/>
      <use xlink:href="#NimbusSanL-Regu-6f" transform="translate(248.16478 0) scale(0.996264)"/>
      <use xlink:href="#NimbusSanL-Regu-6e" transform="translate(303.556457 0) scale(0.996264)"/>
     </g>
    </g>
   </g>
   <g id="matplotlib.axis_2">
    <g id="ytick_1">
     <g id="line2d_6">
      <defs>
       <path id="m62bfbfe876" d="M 0 0 
L -3.5 0 
" style="stroke: #000000; stroke-width: 0.8"/>
      </defs>
      <g>
       <use xlink:href="#m62bfbfe876" x="37.567344" y="219.546119" style="stroke: #000000; stroke-width: 0.8"/>
      </g>
     </g>
     <g id="text_7">
      <!-- $\mathdefault{0}$ -->
      <g transform="translate(25.586009 223.095279) scale(0.1 -0.1)">
       <use xlink:href="#CMR17-30" transform="scale(0.996264)"/>
      </g>
     </g>
    </g>
    <g id="ytick_2">
     <g id="line2d_7">
      <g>
       <use xlink:href="#m62bfbfe876" x="37.567344" y="186.240176" style="stroke: #000000; stroke-width: 0.8"/>
      </g>
     </g>
     <g id="text_8">
      <!-- $\mathdefault{5}$ -->
      <g transform="translate(25.586009 189.789336) scale(0.1 -0.1)">
       <defs>
        <path id="CMR17-35" d="M 730 3750 
C 794 3724 1056 3641 1325 3641 
C 1920 3641 2246 3961 2432 4140 
C 2432 4191 2432 4224 2394 4224 
C 2387 4224 2374 4224 2323 4198 
C 2099 4102 1837 4032 1517 4032 
C 1325 4032 1037 4055 723 4191 
C 653 4224 640 4224 634 4224 
C 602 4224 595 4217 595 4090 
L 595 2231 
C 595 2113 595 2080 659 2080 
C 691 2080 704 2093 736 2139 
C 941 2435 1222 2560 1542 2560 
C 1766 2560 2246 2415 2246 1293 
C 2246 1087 2246 716 2054 422 
C 1894 159 1645 25 1370 25 
C 947 25 518 319 403 812 
C 429 806 480 793 506 793 
C 589 793 749 838 749 1036 
C 749 1209 627 1280 506 1280 
C 358 1280 262 1190 262 1011 
C 262 454 704 -128 1382 -128 
C 2042 -128 2669 441 2669 1267 
C 2669 2054 2170 2662 1549 2662 
C 1222 2662 947 2540 730 2304 
L 730 3750 
z
" transform="scale(0.015625)"/>
       </defs>
       <use xlink:href="#CMR17-35" transform="scale(0.996264)"/>
      </g>
     </g>
    </g>
    <g id="ytick_3">
     <g id="line2d_8">
      <g>
       <use xlink:href="#m62bfbfe876" x="37.567344" y="152.934233" style="stroke: #000000; stroke-width: 0.8"/>
      </g>
     </g>
     <g id="text_9">
      <!-- $\mathdefault{10}$ -->
      <g transform="translate(20.604674 156.483393) scale(0.1 -0.1)">
       <use xlink:href="#CMR17-31" transform="scale(0.996264)"/>
       <use xlink:href="#CMR17-30" transform="translate(45.690477 0) scale(0.996264)"/>
      </g>
     </g>
    </g>
    <g id="ytick_4">
     <g id="line2d_9">
      <g>
       <use xlink:href="#m62bfbfe876" x="37.567344" y="119.62829" style="stroke: #000000; stroke-width: 0.8"/>
      </g>
     </g>
     <g id="text_10">
      <!-- $\mathdefault{15}$ -->
      <g transform="translate(20.604674 123.17745) scale(0.1 -0.1)">
       <use xlink:href="#CMR17-31" transform="scale(0.996264)"/>
       <use xlink:href="#CMR17-35" transform="translate(45.690477 0) scale(0.996264)"/>
      </g>
     </g>
    </g>
    <g id="ytick_5">
     <g id="line2d_10">
      <g>
       <use xlink:href="#m62bfbfe876" x="37.567344" y="86.322347" style="stroke: #000000; stroke-width: 0.8"/>
      </g>
     </g>
     <g id="text_11">
      <!-- $\mathdefault{20}$ -->
      <g transform="translate(20.604674 89.871507) scale(0.1 -0.1)">
       <use xlink:href="#CMR17-32" transform="scale(0.996264)"/>
       <use xlink:href="#CMR17-30" transform="translate(45.690477 0) scale(0.996264)"/>
      </g>
     </g>
    </g>
    <g id="ytick_6">
     <g id="line2d_11">
      <g>
       <use xlink:href="#m62bfbfe876" x="37.567344" y="53.016404" style="stroke: #000000; stroke-width: 0.8"/>
      </g>
     </g>
     <g id="text_12">
      <!-- $\mathdefault{25}$ -->
      <g transform="translate(20.604674 56.565564) scale(0.1 -0.1)">
       <use xlink:href="#CMR17-32" transform="scale(0.996264)"/>
       <use xlink:href="#CMR17-35" transform="translate(45.690477 0) scale(0.996264)"/>
      </g>
     </g>
    </g>
    <g id="ytick_7">
     <g id="line2d_12">
      <g>
       <use xlink:href="#m62bfbfe876" x="37.567344" y="19.710461" style="stroke: #000000; stroke-width: 0.8"/>
      </g>
     </g>
     <g id="text_13">
      <!-- $\mathdefault{30}$ -->
      <g transform="translate(20.604674 23.259621) scale(0.1 -0.1)">
       <use xlink:href="#CMR17-33" transform="scale(0.996264)"/>
       <use xlink:href="#CMR17-30" transform="translate(45.690477 0) scale(0.996264)"/>
      </g>
     </g>
    </g>
    <g id="text_14">
     <!-- Average CFL - Blade_18 -->
     <g transform="translate(14.482687 171.548902) rotate(-90) scale(0.1 -0.1)">
      <defs>
       <path id="NimbusSanL-Regu-41" d="M 3034 1408 
L 3514 0 
L 4179 0 
L 2541 4672 
L 1773 4672 
L 109 0 
L 742 0 
L 1235 1408 
L 3034 1408 
z
M 2867 1907 
L 1382 1907 
L 2150 4032 
L 2867 1907 
z
" transform="scale(0.015625)"/>
       <path id="NimbusSanL-Regu-76" d="M 1824 0 
L 3110 3328 
L 2509 3328 
L 1562 629 
L 666 3328 
L 64 3328 
L 1242 0 
L 1824 0 
z
" transform="scale(0.015625)"/>
       <path id="NimbusSanL-Regu-67" d="M 2637 3359 
L 2637 2873 
C 2368 3270 2042 3456 1613 3456 
C 762 3456 186 2714 186 1632 
C 186 1084 333 638 608 320 
C 858 38 1216 -128 1568 -128 
C 1990 -128 2285 51 2586 473 
L 2586 300 
C 2586 -155 2528 -441 2394 -634 
C 2253 -841 1978 -960 1651 -960 
C 1408 -960 1190 -894 1043 -774 
C 922 -674 870 -581 838 -375 
L 294 -375 
C 352 -1031 845 -1408 1632 -1408 
C 2131 -1408 2560 -1248 2778 -980 
C 3034 -661 3130 -222 3130 568 
L 3130 3359 
L 2637 3359 
z
M 1670 2963 
C 2246 2963 2586 2479 2586 1644 
C 2586 848 2240 364 1677 364 
C 1094 364 742 855 742 1663 
C 742 2466 1101 2963 1670 2963 
z
" transform="scale(0.015625)"/>
       <path id="NimbusSanL-Regu-43" d="M 4237 3219 
C 4051 4236 3462 4736 2438 4736 
C 1811 4736 1306 4537 960 4154 
C 538 3696 307 3035 307 2284 
C 307 1522 544 867 986 415 
C 1344 44 1805 -128 2413 -128 
C 3552 -128 4192 485 4333 1712 
L 3718 1712 
C 3667 1394 3603 1178 3507 994 
C 3315 612 2918 396 2419 396 
C 1491 396 902 1134 902 2291 
C 902 3480 1466 4211 2368 4211 
C 2746 4211 3098 4096 3290 3918 
C 3462 3759 3558 3562 3629 3219 
L 4237 3219 
z
" transform="scale(0.015625)"/>
       <path id="NimbusSanL-Regu-46" d="M 1171 2112 
L 3398 2112 
L 3398 2636 
L 1171 2636 
L 1171 4147 
L 3706 4147 
L 3706 4672 
L 576 4672 
L 576 0 
L 1171 0 
L 1171 2112 
z
" transform="scale(0.015625)"/>
       <path id="NimbusSanL-Regu-4c" d="M 1107 4672 
L 512 4672 
L 512 0 
L 3411 0 
L 3411 524 
L 1107 524 
L 1107 4672 
z
" transform="scale(0.015625)"/>
       <path id="NimbusSanL-Regu-2d" d="M 1818 1996 
L 294 1996 
L 294 1536 
L 1818 1536 
L 1818 1996 
z
" transform="scale(0.015625)"/>
       <path id="NimbusSanL-Regu-42" d="M 506 0 
L 2611 0 
C 3053 0 3379 121 3629 390 
C 3859 632 3987 961 3987 1321 
C 3987 1878 3731 2214 3136 2444 
C 3558 2643 3782 2994 3782 3476 
C 3782 3821 3654 4127 3411 4345 
C 3168 4569 2848 4672 2400 4672 
L 506 4672 
L 506 0 
z
M 1101 2636 
L 1101 4147 
L 2253 4147 
C 2586 4147 2771 4101 2931 3977 
C 3098 3847 3187 3652 3187 3391 
C 3187 3138 3098 2936 2931 2806 
C 2771 2682 2586 2636 2253 2636 
L 1101 2636 
z
M 1101 524 
L 1101 2112 
L 2554 2112 
C 2842 2112 3034 2042 3174 1890 
C 3315 1745 3392 1542 3392 1315 
C 3392 1093 3315 891 3174 746 
C 3034 594 2842 524 2554 524 
L 1101 524 
z
" transform="scale(0.015625)"/>
       <path id="NimbusSanL-Regu-6c" d="M 973 4672 
L 435 4672 
L 435 0 
L 973 0 
L 973 4672 
z
" transform="scale(0.015625)"/>
       <path id="NimbusSanL-Regu-64" d="M 3168 4672 
L 2637 4672 
L 2637 2937 
C 2413 3276 2054 3456 1606 3456 
C 736 3456 166 2759 166 1695 
C 166 568 723 -128 1626 -128 
C 2086 -128 2406 44 2694 460 
L 2694 19 
L 3168 19 
L 3168 4672 
z
M 1696 2956 
C 2272 2956 2637 2447 2637 1651 
C 2637 880 2266 371 1702 371 
C 1114 371 723 887 723 1663 
C 723 2440 1114 2956 1696 2956 
z
" transform="scale(0.015625)"/>
       <path id="NimbusSanL-Regu-31" d="M 1658 3232 
L 1658 0 
L 2221 0 
L 2221 4537 
L 1850 4537 
C 1651 3840 1523 3744 653 3635 
L 653 3232 
L 1658 3232 
z
" transform="scale(0.015625)"/>
       <path id="NimbusSanL-Regu-38" d="M 2502 2399 
C 2970 2681 3123 2910 3123 3337 
C 3123 4044 2566 4544 1760 4544 
C 960 4544 397 4044 397 3337 
C 397 2917 550 2687 1011 2399 
C 493 2150 237 1774 237 1276 
C 237 447 864 -128 1760 -128 
C 2656 -128 3283 447 3283 1270 
C 3283 1774 3027 2150 2502 2399 
z
M 1760 4044 
C 2240 4044 2547 3764 2547 3324 
C 2547 2904 2234 2624 1760 2624 
C 1286 2624 973 2904 973 3331 
C 973 3764 1286 4044 1760 4044 
z
M 1760 2150 
C 2323 2150 2707 1793 2707 1264 
C 2707 728 2323 371 1747 371 
C 1197 371 813 734 813 1264 
C 813 1793 1197 2150 1760 2150 
z
" transform="scale(0.015625)"/>
      </defs>
      <use xlink:href="#NimbusSanL-Regu-41" transform="scale(0.996264)"/>
      <use xlink:href="#NimbusSanL-Regu-76" transform="translate(62.465918 0) scale(0.996264)"/>
      <use xlink:href="#NimbusSanL-Regu-65" transform="translate(109.788488 0) scale(0.996264)"/>
      <use xlink:href="#NimbusSanL-Regu-72" transform="translate(165.180165 0) scale(0.996264)"/>
      <use xlink:href="#NimbusSanL-Regu-61" transform="translate(197.359298 0) scale(0.996264)"/>
      <use xlink:href="#NimbusSanL-Regu-67" transform="translate(252.750975 0) scale(0.996264)"/>
      <use xlink:href="#NimbusSanL-Regu-65" transform="translate(308.142652 0) scale(0.996264)"/>
      <use xlink:href="#NimbusSanL-Regu-43" transform="translate(391.229499 0) scale(0.996264)"/>
      <use xlink:href="#NimbusSanL-Regu-46" transform="translate(463.159484 0) scale(0.996264)"/>
      <use xlink:href="#NimbusSanL-Regu-4c" transform="translate(524.031114 0) scale(0.996264)"/>
      <use xlink:href="#NimbusSanL-Regu-2d" transform="translate(607.117961 0) scale(0.996264)"/>
      <use xlink:href="#NimbusSanL-Regu-42" transform="translate(667.98836 0) scale(0.996264)"/>
      <use xlink:href="#NimbusSanL-Regu-6c" transform="translate(734.438391 0) scale(0.996264)"/>
      <use xlink:href="#NimbusSanL-Regu-61" transform="translate(756.555176 0) scale(0.996264)"/>
      <use xlink:href="#NimbusSanL-Regu-64" transform="translate(811.946853 0) scale(0.996264)"/>
      <use xlink:href="#NimbusSanL-Regu-65" transform="translate(867.33853 0) scale(0.996264)"/>
      <use xlink:href="#NimbusSanL-Regu-31" transform="translate(958.595772 0) scale(0.996264)"/>
      <use xlink:href="#NimbusSanL-Regu-38" transform="translate(1013.987449 0) scale(0.996264)"/>
      <path d="M 928.707548 0 
L 958.595772 0 
L 958.595772 0.3985 
L 928.707548 0.3985 
L 928.707548 0 
z
"/>
     </g>
    </g>
   </g>
   <g id="line2d_13">
    <path d="M 52.785526 124.604889 
L 53.45153 106.533224 
L 54.117533 84.598196 
L 54.783537 206.051327 
L 55.449541 203.352368 
L 56.115544 200.113618 
L 56.781548 196.227118 
L 57.447551 191.563318 
L 58.113555 185.966757 
L 58.779558 179.250885 
L 59.445562 171.191838 
L 60.111566 161.520982 
L 60.777569 149.915955 
L 61.443573 135.989922 
L 62.109576 119.278683 
L 62.77558 99.225453 
L 63.441583 75.296541 
L 64.107587 205.121161 
L 64.773591 202.23617 
L 65.439594 198.77418 
L 66.105598 194.619792 
L 66.771601 189.634526 
L 67.437605 183.652208 
L 68.103609 176.473426 
L 68.769612 167.858887 
L 69.435616 157.521441 
L 70.101619 145.116505 
L 70.767623 130.230583 
L 71.433626 112.367475 
L 72.09963 90.953818 
L 72.765634 65.328554 
L 74.763644 65.328554 
L 75.429648 34.55973 
L 76.095652 201.04748 
L 76.761655 197.347752 
L 77.427659 192.908079 
L 78.093662 187.580471 
L 78.759666 181.187341 
L 79.425669 173.515586 
L 80.091673 164.309479 
L 80.757677 153.262151 
L 81.42368 140.00587 
L 82.089684 124.10479 
L 82.755687 105.036818 
L 83.421691 82.205212 
L 84.087694 54.953555 
L 88.74972 54.953555 
L 89.415723 22.71862 
L 90.081727 199.863369 
L 90.74773 195.926819 
L 91.413734 191.202959 
L 92.079737 185.534327 
L 92.745741 178.731969 
L 93.411745 170.569139 
L 94.077748 160.779348 
L 94.743752 149.034287 
L 95.409755 134.939684 
L 96.075759 118.024117 
L 96.741763 97.723538 
L 97.407766 73.361338 
L 98.07377 44.158125 
L 98.739773 202.00732 
L 99.405777 198.49956 
L 100.07178 194.290248 
L 100.737784 189.239074 
L 101.403788 183.177665 
L 102.069791 175.903974 
L 102.735795 167.175545 
L 103.401798 156.701566 
L 104.067802 144.138549 
L 104.733805 129.068534 
L 105.399809 110.988319 
L 106.065813 89.295724 
L 106.731816 63.270818 
L 107.39782 63.270818 
L 108.063823 32.05123 
L 108.729827 200.79663 
L 109.395831 197.046732 
L 110.061834 192.546855 
L 110.727838 187.147002 
L 111.393841 180.667179 
L 112.059845 172.891391 
L 112.725848 163.560445 
L 113.391852 152.364037 
L 114.057856 138.932459 
L 114.723859 122.817229 
L 115.389863 103.483625 
L 116.055866 80.292654 
L 116.72187 52.481755 
L 118.719881 52.481755 
L 119.385884 19.167163 
L 120.051888 199.508223 
L 120.717891 195.500688 
L 121.383895 190.691601 
L 122.049899 184.920698 
L 122.715902 177.996063 
L 123.381906 169.688008 
L 124.047909 159.724607 
L 124.713913 147.773156 
L 125.379916 133.43558 
L 126.04592 116.234049 
L 126.711924 95.597907 
L 127.377927 70.842928 
L 128.043931 41.144854 
L 133.371959 41.144854 
L 134.037963 201.705992 
L 134.703967 198.137967 
L 135.36997 193.856337 
L 136.035974 188.71838 
L 136.701977 182.552833 
L 137.367981 175.154523 
L 138.033985 166.277651 
L 138.699988 155.629243 
L 139.365992 142.853816 
L 140.031995 127.527534 
L 140.697999 109.138134 
L 141.364002 87.076172 
L 142.030006 60.609205 
L 143.362013 60.609205 
L 144.028017 203.652427 
L 144.69402 200.473689 
L 145.360024 196.659203 
L 146.026027 192.08182 
L 146.692031 186.58896 
L 147.358035 179.997529 
L 148.024038 172.088637 
L 148.690042 162.598876 
L 149.356045 151.211868 
L 150.022049 137.551211 
L 150.688053 121.160313 
L 151.354056 101.494783 
L 152.02006 101.494783 
L 152.686063 77.903774 
L 153.352067 205.381884 
L 154.01807 202.549037 
L 154.684074 199.149621 
L 155.350078 195.070322 
L 156.016081 190.175162 
L 156.682085 184.300971 
L 157.348088 177.251941 
L 158.014092 168.793657 
L 158.680096 158.646404 
L 159.346099 146.474846 
L 160.012103 131.874473 
L 160.678106 114.359158 
L 161.34411 93.350609 
L 162.010113 68.156643 
L 162.676117 68.156643 
L 163.342121 204.407171 
L 164.008124 201.379382 
L 164.674128 197.746034 
L 165.340131 193.386017 
L 166.006135 188.153997 
L 166.672138 181.875573 
L 167.338142 174.342116 
L 168.004146 165.304796 
L 168.670149 154.464876 
L 169.336153 141.460832 
L 170.002156 125.860939 
L 170.66816 107.140022 
L 171.334164 84.669182 
L 172.000167 57.698813 
L 172.666171 203.361388 
L 173.332174 200.124442 
L 173.998178 196.240107 
L 174.664181 191.578904 
L 175.330185 185.985462 
L 175.996189 179.27333 
L 176.662192 171.218772 
L 177.328196 161.553303 
L 177.994199 149.95474 
L 178.660203 136.036464 
L 179.326207 119.334533 
L 179.99221 99.292216 
L 180.658214 75.241436 
L 181.324217 205.115651 
L 181.990221 202.229557 
L 182.656224 198.766244 
L 183.322228 194.61027 
L 183.988232 189.6231 
L 184.654235 183.638496 
L 185.320239 176.456971 
L 185.986242 167.839142 
L 186.652246 157.497746 
L 187.318249 145.088072 
L 187.984253 130.196463 
L 188.650257 112.326531 
L 189.31626 90.882614 
L 189.982264 65.149913 
L 190.648267 204.106498 
L 191.314271 201.018574 
L 191.980275 197.313065 
L 192.646278 192.866454 
L 193.312282 187.530522 
L 193.978285 181.127402 
L 194.644289 173.443659 
L 195.310292 164.223167 
L 195.976296 153.158576 
L 196.6423 139.881068 
L 197.308303 123.948058 
L 197.974307 104.828445 
L 198.64031 81.884911 
L 199.306314 54.352669 
L 203.968339 54.352669 
L 204.634343 203.026774 
L 205.300346 199.722905 
L 205.96635 195.758262 
L 206.632353 191.000691 
L 207.298357 185.291605 
L 207.96436 178.440702 
L 208.630364 170.219619 
L 209.296368 160.354319 
L 209.962371 148.515959 
L 210.628375 134.309927 
L 211.294378 117.262689 
L 211.960382 96.806003 
L 212.626386 72.257979 
L 213.292389 42.800352 
L 213.958393 201.871542 
L 214.624396 198.336627 
L 215.2904 194.094728 
L 215.956403 189.00445 
L 216.622407 182.896117 
L 217.288411 175.566116 
L 217.954414 166.770116 
L 218.620418 156.214915 
L 219.286421 143.548674 
L 219.952425 128.349185 
L 220.618429 110.109798 
L 221.284432 88.222534 
L 221.950436 61.957817 
L 225.946457 61.957817 
L 226.612461 30.447461 
L 227.278464 200.636253 
L 227.944468 196.85428 
L 228.610471 192.315912 
L 229.276475 186.869871 
L 229.942479 180.334621 
L 230.608482 172.492322 
L 231.274486 163.081562 
L 231.940489 151.788651 
L 232.606493 138.237157 
L 233.272497 121.975365 
L 233.9385 102.461214 
L 234.604504 79.044675 
L 235.270507 50.957866 
L 235.936511 50.957866 
L 236.602514 17.28 
L 237.268518 199.319507 
L 237.934522 195.274185 
L 238.600525 190.419798 
L 239.266529 184.594534 
L 239.932532 177.604216 
L 240.598536 169.215836 
L 241.26454 159.149779 
L 241.930543 147.070511 
L 242.596547 132.57539 
L 243.26255 115.181244 
L 243.928554 94.308269 
L 244.594557 69.260699 
L 245.260561 218.88 
L 247.258572 218.395065 
L 248.590579 217.888602 
L 249.922586 217.159295 
L 251.254593 216.109092 
L 252.5866 214.5968 
L 253.918608 212.4191 
L 254.584611 210.993696 
L 255.250615 209.283211 
L 255.916618 207.23063 
L 256.582622 204.767532 
L 257.248625 201.811814 
L 257.914629 198.264954 
L 258.580633 194.008721 
L 259.246636 188.901241 
L 259.91264 182.772265 
L 260.578643 175.417495 
L 261.244647 166.59177 
L 261.910651 156.0009 
L 262.576654 143.291856 
L 263.242658 128.041004 
L 263.908661 109.73998 
L 264.574665 87.779305 
L 265.240668 61.425942 
L 265.906672 29.802237 
L 266.572676 218.88 
L 268.570686 218.395065 
L 269.902693 217.888602 
L 271.234701 217.159295 
L 272.566708 216.109092 
L 273.898715 214.5968 
L 275.230722 212.4191 
L 275.896726 210.993696 
L 276.562729 209.283211 
L 277.228733 207.23063 
L 277.894736 204.767532 
L 278.56074 201.811814 
L 279.226744 198.264954 
L 279.892747 194.008721 
L 280.558751 188.901241 
L 281.224754 182.772265 
L 281.890758 175.417495 
L 282.556762 166.59177 
L 283.222765 156.0009 
L 283.888769 143.291856 
L 284.554772 128.041004 
L 285.220776 109.74067 
L 285.886779 87.783351 
L 286.552783 61.43477 
L 287.218787 29.832254 
L 287.88479 218.88 
L 289.882801 218.395065 
L 291.214808 217.888602 
L 292.546815 217.159295 
L 293.878822 216.109092 
L 295.21083 214.5968 
L 296.542837 212.4191 
L 297.20884 210.993696 
L 297.874844 209.283211 
L 298.540847 207.23063 
L 299.206851 204.767532 
L 299.872855 201.811814 
L 300.538858 198.264954 
L 301.204862 194.008774 
L 301.870865 188.901359 
L 302.536869 182.77246 
L 303.202873 175.417728 
L 303.868876 166.59205 
L 304.53488 156.001369 
L 305.200883 143.292552 
L 305.866887 128.04293 
L 306.53289 109.748117 
L 307.198894 87.800303 
L 307.864898 61.468086 
L 308.530901 203.738316 
L 309.196905 200.576755 
L 309.862908 196.782882 
L 310.528912 192.230235 
L 311.194915 186.767058 
L 311.860919 180.211246 
L 312.526923 172.344271 
L 313.192926 162.90402 
L 313.85893 151.575719 
L 314.524933 137.98227 
L 315.190937 121.670081 
L 315.856941 102.100066 
L 316.522944 207.801514 
L 317.188948 205.452592 
L 317.854951 202.633887 
L 318.520955 199.251461 
L 319.186958 195.19253 
L 319.852962 190.321837 
L 320.518966 184.477005 
L 321.184969 177.463207 
L 321.850973 169.046649 
L 322.516976 158.948884 
L 323.18298 146.834053 
L 323.848984 132.300945 
L 324.514987 114.865643 
L 325.180991 209.078071 
L 325.846994 206.984462 
L 326.512998 204.47213 
L 327.179001 201.457333 
L 327.845005 197.839575 
L 328.511009 193.498267 
L 329.177012 188.288696 
L 329.843016 182.037212 
L 330.509019 174.535619 
L 331.175023 165.535537 
L 331.841026 154.736955 
L 332.50703 141.780781 
L 333.173034 211.769585 
L 333.839037 210.214278 
L 334.505041 208.347934 
L 335.171044 206.108297 
L 335.837048 203.420732 
L 336.503052 200.195655 
L 337.169055 196.325603 
L 337.835059 191.681499 
L 338.501062 186.108716 
L 339.167066 179.422314 
L 339.833069 171.399251 
L 340.499073 161.77233 
L 341.165077 218.88 
L 343.163087 218.395065 
L 344.495095 217.888602 
L 345.827102 217.159295 
L 347.159109 216.109092 
L 348.491116 214.5968 
L 349.823123 212.419127 
L 350.489127 210.993741 
L 351.15513 209.283278 
L 351.821134 207.230722 
L 352.487137 204.767655 
L 353.153141 201.812012 
L 353.819145 198.26524 
L 354.485148 194.009542 
L 355.151152 188.902993 
L 355.817155 182.775927 
L 356.483159 175.423803 
L 357.149163 166.602239 
L 357.149163 166.602239 
" clip-path="url(#p4767266e0a)" style="fill: none; stroke: #1f77b4; stroke-width: 1.5; stroke-linecap: square"/>
   </g>
   <g id="patch_3">
    <path d="M 37.567344 228.96 
L 37.567344 7.2 
" style="fill: none; stroke: #000000; stroke-width: 0.8; stroke-linejoin: miter; stroke-linecap: square"/>
   </g>
   <g id="patch_4">
    <path d="M 372.367344 228.96 
L 372.367344 7.2 
" style="fill: none; stroke: #000000; stroke-width: 0.8; stroke-linejoin: miter; stroke-linecap: square"/>
   </g>
   <g id="patch_5">
    <path d="M 37.567344 228.96 
L 372.367344 228.96 
" style="fill: none; stroke: #000000; stroke-width: 0.8; stroke-linejoin: miter; stroke-linecap: square"/>
   </g>
   <g id="patch_6">
    <path d="M 37.567344 7.2 
L 372.367344 7.2 
" style="fill: none; stroke: #000000; stroke-width: 0.8; stroke-linejoin: miter; stroke-linecap: square"/>
   </g>
   <g id="legend_1">
    <g id="patch_7">
     <path d="M 314.548024 29.420307 
L 365.367344 29.420307 
Q 367.367344 29.420307 367.367344 27.420307 
L 367.367344 14.2 
Q 367.367344 12.2 365.367344 12.2 
L 314.548024 12.2 
Q 312.548024 12.2 312.548024 14.2 
L 312.548024 27.420307 
Q 312.548024 29.420307 314.548024 29.420307 
z
" style="fill: #ffffff; opacity: 0.8; stroke: #cccccc; stroke-linejoin: miter"/>
    </g>
    <g id="line2d_14">
     <path d="M 316.548024 19.79832 
L 326.548024 19.79832 
L 336.548024 19.79832 
" style="fill: none; stroke: #1f77b4; stroke-width: 1.5; stroke-linecap: square"/>
    </g>
    <g id="text_15">
     <!-- CFL -->
     <g transform="translate(344.548024 23.29832) scale(0.1 -0.1)">
      <use xlink:href="#NimbusSanL-Regu-43" transform="scale(0.996264)"/>
      <use xlink:href="#NimbusSanL-Regu-46" transform="translate(71.929985 0) scale(0.996264)"/>
      <use xlink:href="#NimbusSanL-Regu-4c" transform="translate(132.801616 0) scale(0.996264)"/>
     </g>
    </g>
   </g>
  </g>
 </g>
 <defs>
  <clipPath id="p4767266e0a">
   <rect x="37.567344" y="7.2" width="334.8" height="221.76"/>
  </clipPath>
 </defs>
</svg>
