<?xml version="1.0" encoding="utf-8" standalone="no"?>
<!DOCTYPE svg PUBLIC "-//W3C//DTD SVG 1.1//EN"
  "http://www.w3.org/Graphics/SVG/1.1/DTD/svg11.dtd">
<svg xmlns:xlink="http://www.w3.org/1999/xlink" width="379.567344pt" height="265.600613pt" viewBox="0 0 379.567344 265.600613" xmlns="http://www.w3.org/2000/svg" version="1.1">
 <metadata>
  <rdf:RDF xmlns:dc="http://purl.org/dc/elements/1.1/" xmlns:cc="http://creativecommons.org/ns#" xmlns:rdf="http://www.w3.org/1999/02/22-rdf-syntax-ns#">
   <cc:Work>
    <dc:type rdf:resource="http://purl.org/dc/dcmitype/StillImage"/>
    <dc:date>2025-07-16T23:04:08.878292</dc:date>
    <dc:format>image/svg+xml</dc:format>
    <dc:creator>
     <cc:Agent>
      <dc:title>Matplotlib v3.10.3, https://matplotlib.org/</dc:title>
     </cc:Agent>
    </dc:creator>
   </cc:Work>
  </rdf:RDF>
 </metadata>
 <defs>
  <style type="text/css">*{stroke-linejoin: round; stroke-linecap: butt}</style>
 </defs>
 <g id="figure_1">
  <g id="patch_1">
   <path d="M 0 265.600613 
L 379.567344 265.600613 
L 379.567344 0 
L 0 0 
z
" style="fill: #ffffff"/>
  </g>
  <g id="axes_1">
   <g id="patch_2">
    <path d="M 37.567344 228.96 
L 372.367344 228.96 
L 372.367344 7.2 
L 37.567344 7.2 
z
" style="fill: #ffffff"/>
   </g>
   <g id="matplotlib.axis_1">
    <g id="xtick_1">
     <g id="line2d_1">
      <defs>
       <path id="m03817bde93" d="M 0 0 
L 0 3.5 
" style="stroke: #000000; stroke-width: 0.8"/>
      </defs>
      <g>
       <use xlink:href="#m03817bde93" x="52.785526" y="228.96" style="stroke: #000000; stroke-width: 0.8"/>
      </g>
     </g>
     <g id="text_1">
      <!-- $\mathdefault{0}$ -->
      <g transform="translate(50.294859 243.05832) scale(0.1 -0.1)">
       <defs>
        <path id="CMR17-30" d="M 2688 2038 
C 2688 2430 2682 3099 2413 3613 
C 2176 4063 1798 4224 1466 4224 
C 1158 4224 768 4082 525 3620 
C 269 3137 243 2539 243 2038 
C 243 1671 250 1112 448 623 
C 723 -39 1216 -128 1466 -128 
C 1760 -128 2208 -7 2470 604 
C 2662 1048 2688 1568 2688 2038 
z
M 1466 -26 
C 1056 -26 813 328 723 816 
C 653 1196 653 1749 653 2109 
C 653 2604 653 3015 736 3407 
C 858 3954 1216 4121 1466 4121 
C 1728 4121 2067 3947 2189 3420 
C 2272 3054 2278 2623 2278 2109 
C 2278 1691 2278 1176 2202 797 
C 2067 96 1690 -26 1466 -26 
z
" transform="scale(0.015625)"/>
       </defs>
       <use xlink:href="#CMR17-30" transform="scale(0.996264)"/>
      </g>
     </g>
    </g>
    <g id="xtick_2">
     <g id="line2d_2">
      <g>
       <use xlink:href="#m03817bde93" x="96.591461" y="228.96" style="stroke: #000000; stroke-width: 0.8"/>
      </g>
     </g>
     <g id="text_2">
      <!-- $\mathdefault{500}$ -->
      <g transform="translate(89.119458 243.05832) scale(0.1 -0.1)">
       <defs>
        <path id="CMR17-35" d="M 730 3750 
C 794 3724 1056 3641 1325 3641 
C 1920 3641 2246 3961 2432 4140 
C 2432 4191 2432 4224 2394 4224 
C 2387 4224 2374 4224 2323 4198 
C 2099 4102 1837 4032 1517 4032 
C 1325 4032 1037 4055 723 4191 
C 653 4224 640 4224 634 4224 
C 602 4224 595 4217 595 4090 
L 595 2231 
C 595 2113 595 2080 659 2080 
C 691 2080 704 2093 736 2139 
C 941 2435 1222 2560 1542 2560 
C 1766 2560 2246 2415 2246 1293 
C 2246 1087 2246 716 2054 422 
C 1894 159 1645 25 1370 25 
C 947 25 518 319 403 812 
C 429 806 480 793 506 793 
C 589 793 749 838 749 1036 
C 749 1209 627 1280 506 1280 
C 358 1280 262 1190 262 1011 
C 262 454 704 -128 1382 -128 
C 2042 -128 2669 441 2669 1267 
C 2669 2054 2170 2662 1549 2662 
C 1222 2662 947 2540 730 2304 
L 730 3750 
z
" transform="scale(0.015625)"/>
       </defs>
       <use xlink:href="#CMR17-35" transform="scale(0.996264)"/>
       <use xlink:href="#CMR17-30" transform="translate(45.690477 0) scale(0.996264)"/>
       <use xlink:href="#CMR17-30" transform="translate(91.380954 0) scale(0.996264)"/>
      </g>
     </g>
    </g>
    <g id="xtick_3">
     <g id="line2d_3">
      <g>
       <use xlink:href="#m03817bde93" x="140.397396" y="228.96" style="stroke: #000000; stroke-width: 0.8"/>
      </g>
     </g>
     <g id="text_3">
      <!-- $\mathdefault{1000}$ -->
      <g transform="translate(130.434726 243.05832) scale(0.1 -0.1)">
       <defs>
        <path id="CMR17-31" d="M 1702 4083 
C 1702 4217 1696 4224 1606 4224 
C 1357 3927 979 3833 621 3820 
C 602 3820 570 3820 563 3808 
C 557 3795 557 3782 557 3648 
C 755 3648 1088 3686 1344 3839 
L 1344 467 
C 1344 243 1331 166 781 166 
L 589 166 
L 589 0 
C 896 6 1216 12 1523 12 
C 1830 12 2150 6 2458 0 
L 2458 166 
L 2266 166 
C 1715 166 1702 236 1702 467 
L 1702 4083 
z
" transform="scale(0.015625)"/>
       </defs>
       <use xlink:href="#CMR17-31" transform="scale(0.996264)"/>
       <use xlink:href="#CMR17-30" transform="translate(45.690477 0) scale(0.996264)"/>
       <use xlink:href="#CMR17-30" transform="translate(91.380954 0) scale(0.996264)"/>
       <use xlink:href="#CMR17-30" transform="translate(137.071431 0) scale(0.996264)"/>
      </g>
     </g>
    </g>
    <g id="xtick_4">
     <g id="line2d_4">
      <g>
       <use xlink:href="#m03817bde93" x="184.203331" y="228.96" style="stroke: #000000; stroke-width: 0.8"/>
      </g>
     </g>
     <g id="text_4">
      <!-- $\mathdefault{1500}$ -->
      <g transform="translate(174.240661 243.05832) scale(0.1 -0.1)">
       <use xlink:href="#CMR17-31" transform="scale(0.996264)"/>
       <use xlink:href="#CMR17-35" transform="translate(45.690477 0) scale(0.996264)"/>
       <use xlink:href="#CMR17-30" transform="translate(91.380954 0) scale(0.996264)"/>
       <use xlink:href="#CMR17-30" transform="translate(137.071431 0) scale(0.996264)"/>
      </g>
     </g>
    </g>
    <g id="xtick_5">
     <g id="line2d_5">
      <g>
       <use xlink:href="#m03817bde93" x="228.009266" y="228.96" style="stroke: #000000; stroke-width: 0.8"/>
      </g>
     </g>
     <g id="text_5">
      <!-- $\mathdefault{2000}$ -->
      <g transform="translate(218.046596 243.05832) scale(0.1 -0.1)">
       <defs>
        <path id="CMR17-32" d="M 2669 990 
L 2554 990 
C 2490 537 2438 460 2413 422 
C 2381 371 1920 371 1830 371 
L 602 371 
C 832 620 1280 1073 1824 1596 
C 2214 1966 2669 2400 2669 3033 
C 2669 3788 2067 4224 1395 4224 
C 691 4224 262 3603 262 3027 
C 262 2777 448 2745 525 2745 
C 589 2745 781 2783 781 3007 
C 781 3206 614 3264 525 3264 
C 486 3264 448 3257 422 3244 
C 544 3788 915 4057 1306 4057 
C 1862 4057 2227 3616 2227 3033 
C 2227 2477 1901 1998 1536 1583 
L 262 147 
L 262 0 
L 2515 0 
L 2669 990 
z
" transform="scale(0.015625)"/>
       </defs>
       <use xlink:href="#CMR17-32" transform="scale(0.996264)"/>
       <use xlink:href="#CMR17-30" transform="translate(45.690477 0) scale(0.996264)"/>
       <use xlink:href="#CMR17-30" transform="translate(91.380954 0) scale(0.996264)"/>
       <use xlink:href="#CMR17-30" transform="translate(137.071431 0) scale(0.996264)"/>
      </g>
     </g>
    </g>
    <g id="xtick_6">
     <g id="line2d_6">
      <g>
       <use xlink:href="#m03817bde93" x="271.815201" y="228.96" style="stroke: #000000; stroke-width: 0.8"/>
      </g>
     </g>
     <g id="text_6">
      <!-- $\mathdefault{2500}$ -->
      <g transform="translate(261.852531 243.05832) scale(0.1 -0.1)">
       <use xlink:href="#CMR17-32" transform="scale(0.996264)"/>
       <use xlink:href="#CMR17-35" transform="translate(45.690477 0) scale(0.996264)"/>
       <use xlink:href="#CMR17-30" transform="translate(91.380954 0) scale(0.996264)"/>
       <use xlink:href="#CMR17-30" transform="translate(137.071431 0) scale(0.996264)"/>
      </g>
     </g>
    </g>
    <g id="xtick_7">
     <g id="line2d_7">
      <g>
       <use xlink:href="#m03817bde93" x="315.621136" y="228.96" style="stroke: #000000; stroke-width: 0.8"/>
      </g>
     </g>
     <g id="text_7">
      <!-- $\mathdefault{3000}$ -->
      <g transform="translate(305.658466 243.05832) scale(0.1 -0.1)">
       <defs>
        <path id="CMR17-33" d="M 1414 2176 
C 1984 2176 2234 1673 2234 1094 
C 2234 322 1824 25 1453 25 
C 1114 25 563 193 390 691 
C 422 678 454 678 486 678 
C 640 678 755 780 755 947 
C 755 1132 614 1216 486 1216 
C 378 1216 211 1164 211 927 
C 211 335 787 -128 1466 -128 
C 2176 -128 2720 432 2720 1087 
C 2720 1718 2208 2176 1600 2246 
C 2086 2347 2554 2776 2554 3353 
C 2554 3856 2048 4224 1472 4224 
C 890 4224 378 3862 378 3347 
C 378 3123 544 3084 627 3084 
C 762 3084 877 3167 877 3334 
C 877 3500 762 3584 627 3584 
C 602 3584 570 3584 544 3571 
C 730 3999 1235 4076 1459 4076 
C 1683 4076 2106 3966 2106 3347 
C 2106 3167 2080 2851 1862 2574 
C 1670 2329 1453 2316 1242 2297 
C 1210 2297 1062 2284 1037 2284 
C 992 2278 966 2272 966 2227 
C 966 2182 973 2176 1101 2176 
L 1414 2176 
z
" transform="scale(0.015625)"/>
       </defs>
       <use xlink:href="#CMR17-33" transform="scale(0.996264)"/>
       <use xlink:href="#CMR17-30" transform="translate(45.690477 0) scale(0.996264)"/>
       <use xlink:href="#CMR17-30" transform="translate(91.380954 0) scale(0.996264)"/>
       <use xlink:href="#CMR17-30" transform="translate(137.071431 0) scale(0.996264)"/>
      </g>
     </g>
    </g>
    <g id="xtick_8">
     <g id="line2d_8">
      <g>
       <use xlink:href="#m03817bde93" x="359.427071" y="228.96" style="stroke: #000000; stroke-width: 0.8"/>
      </g>
     </g>
     <g id="text_8">
      <!-- $\mathdefault{3500}$ -->
      <g transform="translate(349.464401 243.05832) scale(0.1 -0.1)">
       <use xlink:href="#CMR17-33" transform="scale(0.996264)"/>
       <use xlink:href="#CMR17-35" transform="translate(45.690477 0) scale(0.996264)"/>
       <use xlink:href="#CMR17-30" transform="translate(91.380954 0) scale(0.996264)"/>
       <use xlink:href="#CMR17-30" transform="translate(137.071431 0) scale(0.996264)"/>
      </g>
     </g>
    </g>
    <g id="text_9">
     <!-- Iteration -->
     <g transform="translate(187.019968 256.278627) scale(0.1 -0.1)">
      <defs>
       <path id="NimbusSanL-Regu-49" d="M 1242 4672 
L 640 4672 
L 640 0 
L 1242 0 
L 1242 4672 
z
" transform="scale(0.015625)"/>
       <path id="NimbusSanL-Regu-74" d="M 1626 3328 
L 1075 3328 
L 1075 4249 
L 544 4249 
L 544 3328 
L 90 3328 
L 90 2892 
L 544 2892 
L 544 402 
C 544 64 774 -128 1190 -128 
C 1318 -128 1446 -116 1626 -84 
L 1626 364 
C 1555 345 1472 339 1370 339 
C 1139 339 1075 402 1075 634 
L 1075 2892 
L 1626 2892 
L 1626 3328 
z
" transform="scale(0.015625)"/>
       <path id="NimbusSanL-Regu-65" d="M 3283 1484 
C 3283 1998 3245 2311 3149 2565 
C 2931 3123 2419 3456 1792 3456 
C 858 3456 256 2734 256 1619 
C 256 545 838 -128 1779 -128 
C 2547 -128 3078 307 3213 1018 
L 2675 1018 
C 2528 588 2227 364 1798 364 
C 1459 364 1171 514 992 787 
C 864 974 819 1161 813 1484 
L 3283 1484 
z
M 826 1920 
C 870 2552 1248 2963 1786 2963 
C 2310 2963 2714 2519 2714 1959 
C 2714 1946 2714 1933 2707 1920 
L 826 1920 
z
" transform="scale(0.015625)"/>
       <path id="NimbusSanL-Regu-72" d="M 442 3328 
L 442 0 
L 979 0 
L 979 1727 
C 979 2203 1101 2514 1357 2698 
C 1523 2819 1683 2857 2054 2863 
L 2054 3404 
C 1965 3449 1920 3456 1850 3456 
C 1504 3456 1242 3251 934 2750 
L 934 3328 
L 442 3328 
z
" transform="scale(0.015625)"/>
       <path id="NimbusSanL-Regu-61" d="M 3424 332 
C 3366 320 3341 320 3309 320 
C 3123 320 3021 415 3021 581 
L 3021 2542 
C 3021 3135 2586 3456 1760 3456 
C 1274 3456 870 3315 646 3065 
C 493 2893 429 2702 416 2370 
L 954 2370 
C 998 2778 1242 2963 1741 2963 
C 2221 2963 2490 2784 2490 2466 
L 2490 2326 
C 2490 2103 2355 2007 1933 1956 
C 1178 1861 1062 1835 858 1753 
C 467 1593 269 1294 269 861 
C 269 256 691 -128 1370 -128 
C 1792 -128 2131 19 2509 364 
C 2547 25 2714 -128 3059 -128 
C 3168 -128 3251 -116 3424 -71 
L 3424 332 
z
M 2490 1071 
C 2490 893 2438 785 2278 638 
C 2061 441 1798 339 1485 339 
C 1069 339 826 536 826 874 
C 826 1224 1062 1402 1632 1485 
C 2195 1562 2310 1587 2490 1670 
L 2490 1071 
z
" transform="scale(0.015625)"/>
       <path id="NimbusSanL-Regu-69" d="M 960 3358 
L 429 3358 
L 429 0 
L 960 0 
L 960 3358 
z
M 960 4672 
L 422 4672 
L 422 3999 
L 960 3999 
L 960 4672 
z
" transform="scale(0.015625)"/>
       <path id="NimbusSanL-Regu-6f" d="M 1741 3456 
C 800 3456 230 2784 230 1663 
C 230 543 794 -128 1747 -128 
C 2688 -128 3264 543 3264 1638 
C 3264 2791 2707 3456 1741 3456 
z
M 1747 2963 
C 2349 2963 2707 2472 2707 1644 
C 2707 861 2336 364 1747 364 
C 1152 364 787 855 787 1663 
C 787 2466 1152 2963 1747 2963 
z
" transform="scale(0.015625)"/>
       <path id="NimbusSanL-Regu-6e" d="M 448 3328 
L 448 0 
L 986 0 
L 986 1835 
C 986 2539 1344 2988 1894 2988 
C 2317 2988 2586 2732 2586 2328 
L 2586 0 
L 3117 0 
L 3117 2539 
C 3117 3097 2701 3456 2054 3456 
C 1555 3456 1235 3263 941 2796 
L 941 3328 
L 448 3328 
z
" transform="scale(0.015625)"/>
      </defs>
      <use xlink:href="#NimbusSanL-Regu-49" transform="scale(0.996264)"/>
      <use xlink:href="#NimbusSanL-Regu-74" transform="translate(27.69517 0) scale(0.996264)"/>
      <use xlink:href="#NimbusSanL-Regu-65" transform="translate(55.390339 0) scale(0.996264)"/>
      <use xlink:href="#NimbusSanL-Regu-72" transform="translate(110.782016 0) scale(0.996264)"/>
      <use xlink:href="#NimbusSanL-Regu-61" transform="translate(142.961149 0) scale(0.996264)"/>
      <use xlink:href="#NimbusSanL-Regu-74" transform="translate(198.352826 0) scale(0.996264)"/>
      <use xlink:href="#NimbusSanL-Regu-69" transform="translate(226.047996 0) scale(0.996264)"/>
      <use xlink:href="#NimbusSanL-Regu-6f" transform="translate(248.16478 0) scale(0.996264)"/>
      <use xlink:href="#NimbusSanL-Regu-6e" transform="translate(303.556457 0) scale(0.996264)"/>
     </g>
    </g>
   </g>
   <g id="matplotlib.axis_2">
    <g id="ytick_1">
     <g id="line2d_9">
      <defs>
       <path id="m43f799ab19" d="M 0 0 
L -3.5 0 
" style="stroke: #000000; stroke-width: 0.8"/>
      </defs>
      <g>
       <use xlink:href="#m43f799ab19" x="37.567344" y="227.183301" style="stroke: #000000; stroke-width: 0.8"/>
      </g>
     </g>
     <g id="text_10">
      <!-- $\mathdefault{0}$ -->
      <g transform="translate(25.586009 230.732461) scale(0.1 -0.1)">
       <use xlink:href="#CMR17-30" transform="scale(0.996264)"/>
      </g>
     </g>
    </g>
    <g id="ytick_2">
     <g id="line2d_10">
      <g>
       <use xlink:href="#m43f799ab19" x="37.567344" y="190.258347" style="stroke: #000000; stroke-width: 0.8"/>
      </g>
     </g>
     <g id="text_11">
      <!-- $\mathdefault{5}$ -->
      <g transform="translate(25.586009 193.807507) scale(0.1 -0.1)">
       <use xlink:href="#CMR17-35" transform="scale(0.996264)"/>
      </g>
     </g>
    </g>
    <g id="ytick_3">
     <g id="line2d_11">
      <g>
       <use xlink:href="#m43f799ab19" x="37.567344" y="153.333392" style="stroke: #000000; stroke-width: 0.8"/>
      </g>
     </g>
     <g id="text_12">
      <!-- $\mathdefault{10}$ -->
      <g transform="translate(20.604674 156.882552) scale(0.1 -0.1)">
       <use xlink:href="#CMR17-31" transform="scale(0.996264)"/>
       <use xlink:href="#CMR17-30" transform="translate(45.690477 0) scale(0.996264)"/>
      </g>
     </g>
    </g>
    <g id="ytick_4">
     <g id="line2d_12">
      <g>
       <use xlink:href="#m43f799ab19" x="37.567344" y="116.408438" style="stroke: #000000; stroke-width: 0.8"/>
      </g>
     </g>
     <g id="text_13">
      <!-- $\mathdefault{15}$ -->
      <g transform="translate(20.604674 119.957598) scale(0.1 -0.1)">
       <use xlink:href="#CMR17-31" transform="scale(0.996264)"/>
       <use xlink:href="#CMR17-35" transform="translate(45.690477 0) scale(0.996264)"/>
      </g>
     </g>
    </g>
    <g id="ytick_5">
     <g id="line2d_13">
      <g>
       <use xlink:href="#m43f799ab19" x="37.567344" y="79.483484" style="stroke: #000000; stroke-width: 0.8"/>
      </g>
     </g>
     <g id="text_14">
      <!-- $\mathdefault{20}$ -->
      <g transform="translate(20.604674 83.032644) scale(0.1 -0.1)">
       <use xlink:href="#CMR17-32" transform="scale(0.996264)"/>
       <use xlink:href="#CMR17-30" transform="translate(45.690477 0) scale(0.996264)"/>
      </g>
     </g>
    </g>
    <g id="ytick_6">
     <g id="line2d_14">
      <g>
       <use xlink:href="#m43f799ab19" x="37.567344" y="42.558529" style="stroke: #000000; stroke-width: 0.8"/>
      </g>
     </g>
     <g id="text_15">
      <!-- $\mathdefault{25}$ -->
      <g transform="translate(20.604674 46.107689) scale(0.1 -0.1)">
       <use xlink:href="#CMR17-32" transform="scale(0.996264)"/>
       <use xlink:href="#CMR17-35" transform="translate(45.690477 0) scale(0.996264)"/>
      </g>
     </g>
    </g>
    <g id="text_16">
     <!-- Average CFL - Blade_1 -->
     <g transform="translate(14.482687 168.77932) rotate(-90) scale(0.1 -0.1)">
      <defs>
       <path id="NimbusSanL-Regu-41" d="M 3034 1408 
L 3514 0 
L 4179 0 
L 2541 4672 
L 1773 4672 
L 109 0 
L 742 0 
L 1235 1408 
L 3034 1408 
z
M 2867 1907 
L 1382 1907 
L 2150 4032 
L 2867 1907 
z
" transform="scale(0.015625)"/>
       <path id="NimbusSanL-Regu-76" d="M 1824 0 
L 3110 3328 
L 2509 3328 
L 1562 629 
L 666 3328 
L 64 3328 
L 1242 0 
L 1824 0 
z
" transform="scale(0.015625)"/>
       <path id="NimbusSanL-Regu-67" d="M 2637 3359 
L 2637 2873 
C 2368 3270 2042 3456 1613 3456 
C 762 3456 186 2714 186 1632 
C 186 1084 333 638 608 320 
C 858 38 1216 -128 1568 -128 
C 1990 -128 2285 51 2586 473 
L 2586 300 
C 2586 -155 2528 -441 2394 -634 
C 2253 -841 1978 -960 1651 -960 
C 1408 -960 1190 -894 1043 -774 
C 922 -674 870 -581 838 -375 
L 294 -375 
C 352 -1031 845 -1408 1632 -1408 
C 2131 -1408 2560 -1248 2778 -980 
C 3034 -661 3130 -222 3130 568 
L 3130 3359 
L 2637 3359 
z
M 1670 2963 
C 2246 2963 2586 2479 2586 1644 
C 2586 848 2240 364 1677 364 
C 1094 364 742 855 742 1663 
C 742 2466 1101 2963 1670 2963 
z
" transform="scale(0.015625)"/>
       <path id="NimbusSanL-Regu-43" d="M 4237 3219 
C 4051 4236 3462 4736 2438 4736 
C 1811 4736 1306 4537 960 4154 
C 538 3696 307 3035 307 2284 
C 307 1522 544 867 986 415 
C 1344 44 1805 -128 2413 -128 
C 3552 -128 4192 485 4333 1712 
L 3718 1712 
C 3667 1394 3603 1178 3507 994 
C 3315 612 2918 396 2419 396 
C 1491 396 902 1134 902 2291 
C 902 3480 1466 4211 2368 4211 
C 2746 4211 3098 4096 3290 3918 
C 3462 3759 3558 3562 3629 3219 
L 4237 3219 
z
" transform="scale(0.015625)"/>
       <path id="NimbusSanL-Regu-46" d="M 1171 2112 
L 3398 2112 
L 3398 2636 
L 1171 2636 
L 1171 4147 
L 3706 4147 
L 3706 4672 
L 576 4672 
L 576 0 
L 1171 0 
L 1171 2112 
z
" transform="scale(0.015625)"/>
       <path id="NimbusSanL-Regu-4c" d="M 1107 4672 
L 512 4672 
L 512 0 
L 3411 0 
L 3411 524 
L 1107 524 
L 1107 4672 
z
" transform="scale(0.015625)"/>
       <path id="NimbusSanL-Regu-2d" d="M 1818 1996 
L 294 1996 
L 294 1536 
L 1818 1536 
L 1818 1996 
z
" transform="scale(0.015625)"/>
       <path id="NimbusSanL-Regu-42" d="M 506 0 
L 2611 0 
C 3053 0 3379 121 3629 390 
C 3859 632 3987 961 3987 1321 
C 3987 1878 3731 2214 3136 2444 
C 3558 2643 3782 2994 3782 3476 
C 3782 3821 3654 4127 3411 4345 
C 3168 4569 2848 4672 2400 4672 
L 506 4672 
L 506 0 
z
M 1101 2636 
L 1101 4147 
L 2253 4147 
C 2586 4147 2771 4101 2931 3977 
C 3098 3847 3187 3652 3187 3391 
C 3187 3138 3098 2936 2931 2806 
C 2771 2682 2586 2636 2253 2636 
L 1101 2636 
z
M 1101 524 
L 1101 2112 
L 2554 2112 
C 2842 2112 3034 2042 3174 1890 
C 3315 1745 3392 1542 3392 1315 
C 3392 1093 3315 891 3174 746 
C 3034 594 2842 524 2554 524 
L 1101 524 
z
" transform="scale(0.015625)"/>
       <path id="NimbusSanL-Regu-6c" d="M 973 4672 
L 435 4672 
L 435 0 
L 973 0 
L 973 4672 
z
" transform="scale(0.015625)"/>
       <path id="NimbusSanL-Regu-64" d="M 3168 4672 
L 2637 4672 
L 2637 2937 
C 2413 3276 2054 3456 1606 3456 
C 736 3456 166 2759 166 1695 
C 166 568 723 -128 1626 -128 
C 2086 -128 2406 44 2694 460 
L 2694 19 
L 3168 19 
L 3168 4672 
z
M 1696 2956 
C 2272 2956 2637 2447 2637 1651 
C 2637 880 2266 371 1702 371 
C 1114 371 723 887 723 1663 
C 723 2440 1114 2956 1696 2956 
z
" transform="scale(0.015625)"/>
       <path id="NimbusSanL-Regu-31" d="M 1658 3232 
L 1658 0 
L 2221 0 
L 2221 4537 
L 1850 4537 
C 1651 3840 1523 3744 653 3635 
L 653 3232 
L 1658 3232 
z
" transform="scale(0.015625)"/>
      </defs>
      <use xlink:href="#NimbusSanL-Regu-41" transform="scale(0.996264)"/>
      <use xlink:href="#NimbusSanL-Regu-76" transform="translate(62.465918 0) scale(0.996264)"/>
      <use xlink:href="#NimbusSanL-Regu-65" transform="translate(109.788488 0) scale(0.996264)"/>
      <use xlink:href="#NimbusSanL-Regu-72" transform="translate(165.180165 0) scale(0.996264)"/>
      <use xlink:href="#NimbusSanL-Regu-61" transform="translate(197.359298 0) scale(0.996264)"/>
      <use xlink:href="#NimbusSanL-Regu-67" transform="translate(252.750975 0) scale(0.996264)"/>
      <use xlink:href="#NimbusSanL-Regu-65" transform="translate(308.142652 0) scale(0.996264)"/>
      <use xlink:href="#NimbusSanL-Regu-43" transform="translate(391.229499 0) scale(0.996264)"/>
      <use xlink:href="#NimbusSanL-Regu-46" transform="translate(463.159484 0) scale(0.996264)"/>
      <use xlink:href="#NimbusSanL-Regu-4c" transform="translate(524.031114 0) scale(0.996264)"/>
      <use xlink:href="#NimbusSanL-Regu-2d" transform="translate(607.117961 0) scale(0.996264)"/>
      <use xlink:href="#NimbusSanL-Regu-42" transform="translate(667.98836 0) scale(0.996264)"/>
      <use xlink:href="#NimbusSanL-Regu-6c" transform="translate(734.438391 0) scale(0.996264)"/>
      <use xlink:href="#NimbusSanL-Regu-61" transform="translate(756.555176 0) scale(0.996264)"/>
      <use xlink:href="#NimbusSanL-Regu-64" transform="translate(811.946853 0) scale(0.996264)"/>
      <use xlink:href="#NimbusSanL-Regu-65" transform="translate(867.33853 0) scale(0.996264)"/>
      <use xlink:href="#NimbusSanL-Regu-31" transform="translate(958.595772 0) scale(0.996264)"/>
      <path d="M 928.707548 0 
L 958.595772 0 
L 958.595772 0.3985 
L 928.707548 0.3985 
L 928.707548 0 
z
"/>
     </g>
    </g>
   </g>
   <g id="line2d_15">
    <path d="M 52.785526 121.794913 
L 52.96075 77.139447 
L 53.048362 212.178915 
L 53.135974 209.178038 
L 53.398809 196.070207 
L 53.661645 173.419875 
L 53.924481 134.280101 
L 54.187316 66.862252 
L 54.274928 211.151196 
L 54.36254 207.944775 
L 54.625375 193.939128 
L 54.888211 169.73737 
L 55.151047 127.916733 
L 55.413882 55.813184 
L 55.501494 21.79286 
L 55.589106 206.644257 
L 55.676718 202.536448 
L 55.939554 184.593539 
L 56.202389 153.588192 
L 56.465225 100.015751 
L 56.552837 74.611146 
L 56.640448 211.926085 
L 56.72806 208.874642 
L 56.990896 195.545939 
L 57.253732 172.517692 
L 57.516567 132.788537 
L 57.779403 64.511817 
L 57.867015 32.350318 
L 57.954627 207.700003 
L 58.042238 203.803343 
L 58.305074 186.782734 
L 58.56791 157.392299 
L 58.830745 106.678724 
L 59.005969 82.617083 
L 59.181193 82.617083 
L 59.268805 212.726679 
L 59.356416 209.835355 
L 59.619252 197.20605 
L 59.882088 175.382611 
L 60.144923 137.682692 
L 60.320147 98.328029 
L 60.407759 214.297774 
L 60.495371 211.720668 
L 60.758206 200.463872 
L 61.021042 181.012127 
L 61.283878 147.403297 
L 61.546713 89.329507 
L 61.634325 213.397921 
L 61.721937 210.640846 
L 61.984773 198.597938 
L 62.247608 177.787794 
L 62.510444 141.837504 
L 62.773279 104.321602 
L 62.860891 214.897131 
L 62.948503 212.439897 
L 63.211339 201.706699 
L 63.474174 183.159733 
L 63.73701 151.1239 
L 64.087457 95.789464 
L 64.175069 214.043917 
L 64.262681 211.41604 
L 64.525517 199.937475 
L 64.788352 180.102514 
L 65.051188 145.8277 
L 65.226412 110.031236 
L 65.314024 215.468094 
L 65.401635 213.125053 
L 65.664471 202.890649 
L 65.927307 185.205598 
L 66.190142 154.64583 
L 66.277754 140.138336 
L 66.365366 218.478804 
L 66.452978 216.737905 
L 66.715814 209.133657 
L 66.978649 195.993516 
L 67.241485 173.287353 
L 67.50432 134.051103 
L 67.591932 217.870081 
L 67.679544 216.007437 
L 67.94238 207.871408 
L 68.205215 193.812351 
L 68.468051 169.518299 
L 68.643275 144.150292 
L 68.730887 218.88 
L 68.818498 217.21934 
L 69.081334 209.965576 
L 69.34417 197.431073 
L 69.607005 175.77145 
L 69.869841 138.343623 
L 70.045065 99.254165 
L 70.132676 214.390387 
L 70.220288 211.831805 
L 70.483124 200.655915 
L 70.74596 181.343979 
L 71.008795 147.972952 
L 71.184019 113.120399 
L 71.271631 215.777011 
L 71.359243 213.495753 
L 71.622078 203.531217 
L 71.884914 186.312501 
L 72.147749 156.558558 
L 72.410585 105.143746 
L 72.498197 214.979345 
L 72.585809 212.538554 
L 72.848644 201.877179 
L 73.11148 183.454322 
L 73.374316 151.619625 
L 73.637151 96.609269 
L 73.724763 70.494462 
L 73.812375 211.514417 
L 73.899987 208.38064 
L 74.162822 194.692303 
L 74.425658 171.038857 
L 74.688494 130.165702 
L 74.776106 110.762182 
L 74.863717 215.541189 
L 74.951329 213.212767 
L 75.214165 203.042218 
L 75.477001 185.467509 
L 75.739836 155.098413 
L 76.002672 102.620614 
L 76.090284 77.708077 
L 76.177895 212.235778 
L 76.265507 209.246274 
L 76.528343 196.188118 
L 76.791179 173.623626 
L 77.054014 134.632182 
L 77.31685 67.254968 
L 77.404462 35.269301 
L 77.492074 207.991901 
L 77.579685 204.153621 
L 77.842521 187.388014 
L 78.105357 158.417045 
L 78.368192 108.355211 
L 78.543416 56.070851 
L 78.631028 210.072056 
L 78.71864 206.649807 
L 78.981475 191.701423 
L 79.244311 165.870616 
L 79.507147 121.234982 
L 79.857594 44.109902 
L 79.945206 208.875961 
L 80.032818 205.214493 
L 80.295653 189.221201 
L 80.558489 161.584792 
L 80.821325 113.829078 
L 80.996548 63.95322 
L 81.08416 210.860293 
L 81.171772 207.595691 
L 81.434608 193.335911 
L 81.697443 168.695012 
L 81.960279 126.115537 
L 82.223115 52.538205 
L 82.310726 209.718791 
L 82.398338 206.225889 
L 82.661174 190.968894 
L 82.924009 164.604805 
L 83.186845 119.047661 
L 83.537293 40.324915 
L 83.624904 208.497462 
L 83.712516 204.760295 
L 83.975352 188.436346 
L 84.238188 160.228563 
L 84.501023 111.485513 
L 84.676247 60.578487 
L 84.763859 210.522819 
L 84.851471 207.190723 
L 85.114306 192.636127 
L 85.377142 167.485784 
L 85.639977 124.025991 
L 85.902813 78.636775 
L 86.165649 78.636775 
L 86.253261 48.92747 
L 86.340872 209.357718 
L 86.428484 205.792601 
L 86.69132 190.220172 
L 86.954155 163.311014 
L 87.216991 116.811989 
L 87.479827 36.461673 
L 87.567439 208.111138 
L 87.65505 204.296706 
L 87.917886 187.635264 
L 88.180722 158.844294 
L 88.443557 109.093496 
L 88.706393 57.133982 
L 88.794005 57.133982 
L 88.881617 23.161109 
L 88.969229 206.781082 
L 89.05684 202.700638 
L 89.319676 184.877259 
L 89.582512 154.078461 
L 89.845347 100.858137 
L 90.020571 45.289224 
L 90.108183 208.993893 
L 90.195795 205.356012 
L 90.45863 189.465745 
L 90.721466 162.007364 
L 90.984302 114.559283 
L 91.247137 32.568997 
L 91.334749 207.721871 
L 91.422361 203.829584 
L 91.685196 186.828079 
L 91.948032 157.449477 
L 92.210868 106.683254 
L 92.386091 53.663233 
L 92.473703 209.831294 
L 92.561315 206.360893 
L 92.824151 191.20218 
L 93.086986 165.007923 
L 93.349822 119.744248 
L 93.612658 41.528618 
L 93.700269 208.617833 
L 93.787881 204.904739 
L 94.050717 188.685946 
L 94.313553 160.659871 
L 94.576388 112.230815 
L 94.751612 61.651721 
L 94.839224 210.630143 
L 94.926836 207.319511 
L 95.189671 192.858672 
L 95.452507 167.870343 
L 95.715342 124.69051 
L 95.978178 50.075758 
L 96.06579 209.472547 
L 96.153402 205.930396 
L 96.416237 190.458281 
L 96.679073 163.722466 
L 96.941909 117.522978 
L 97.204744 37.690263 
L 97.292356 208.233997 
L 97.379968 204.444136 
L 97.642804 187.890025 
L 97.905639 159.284519 
L 98.168475 109.854207 
L 98.343699 58.229405 
L 98.43131 210.287911 
L 98.518922 206.908833 
L 98.781758 192.149021 
L 99.044594 166.644065 
L 99.307429 122.571502 
L 99.570265 46.414112 
L 99.657877 209.106382 
L 99.745489 205.490998 
L 100.008324 189.699002 
L 100.27116 162.410432 
L 100.533995 115.255784 
L 100.709219 66.007677 
L 100.796831 211.065738 
L 100.884443 207.842226 
L 101.147278 193.761923 
L 101.410114 169.431161 
L 101.67295 127.387602 
L 101.935785 54.736334 
L 102.023397 209.938604 
L 102.111009 206.489665 
L 102.373845 191.424698 
L 102.63668 165.392435 
L 102.899516 120.408684 
L 103.249963 42.676763 
L 103.337575 208.732647 
L 103.425187 205.042516 
L 103.688023 188.924025 
L 103.950858 161.071273 
L 104.213694 112.941716 
L 104.388918 62.675419 
L 104.476529 210.732513 
L 104.564141 207.442355 
L 104.826977 193.070946 
L 105.089813 168.237152 
L 105.352648 125.324356 
L 105.615484 51.171045 
L 105.703096 209.582075 
L 105.790708 206.06183 
L 106.053543 190.685399 
L 106.316379 164.114927 
L 106.579214 118.201151 
L 106.84205 38.862146 
L 106.929662 208.351185 
L 107.017274 204.584762 
L 107.280109 188.133026 
L 107.542945 159.704426 
L 107.805781 110.579806 
L 108.068616 59.274268 
L 108.156228 59.274268 
L 108.24384 25.692461 
L 108.331452 207.034217 
L 108.419064 203.0044 
L 108.681899 185.40216 
L 108.944735 154.98549 
L 109.20757 102.425484 
L 109.382794 47.532044 
L 109.470406 209.218175 
L 109.558018 205.62515 
L 109.820854 189.930816 
L 110.083689 162.811008 
L 110.346525 115.947978 
L 110.696972 34.968663 
L 110.784584 207.961837 
L 110.872196 204.117544 
L 111.135032 187.325674 
L 111.397867 158.309321 
L 111.660703 108.169063 
L 111.923538 55.802799 
L 112.01115 55.802799 
L 112.098762 21.526698 
L 112.186374 206.617641 
L 112.273986 202.504509 
L 112.536822 184.538348 
L 112.799657 153.492822 
L 113.062493 99.846153 
L 113.237716 43.817808 
L 113.325328 208.846752 
L 113.41294 205.179442 
L 113.675776 189.160632 
L 113.938611 161.48013 
L 114.201447 113.648221 
L 114.464283 30.994683 
L 114.551895 207.564439 
L 114.639506 203.640667 
L 114.902342 186.501629 
L 115.165178 156.885372 
L 115.428013 105.70848 
L 115.778461 17.28 
L 115.866073 206.192971 
L 115.953684 201.994905 
L 116.21652 183.657752 
L 116.479356 151.971153 
L 116.742191 97.21671 
L 116.917415 40.036037 
L 117.005027 208.468574 
L 117.092639 204.725629 
L 117.355474 188.376444 
L 117.61831 160.125053 
L 117.881146 111.306648 
L 118.056369 60.324221 
L 118.143981 210.497393 
L 118.231593 207.160211 
L 118.494429 192.583402 
L 118.757264 167.394676 
L 119.0201 123.868557 
L 119.282936 48.685294 
L 119.370547 209.3335 
L 119.458159 205.76354 
L 119.720995 190.169954 
L 119.98383 163.224238 
L 120.246666 116.66204 
L 120.42189 68.065748 
L 120.509502 211.271546 
L 120.597114 208.089195 
L 120.859949 194.188685 
L 121.122785 170.168605 
L 121.38562 128.661906 
L 121.648456 57.015958 
L 121.736068 210.166567 
L 121.82368 206.76322 
L 122.086515 191.897401 
L 122.349351 166.209265 
L 122.612187 121.820167 
L 122.78741 75.470902 
L 122.875022 212.012061 
L 122.962634 208.977813 
L 123.22547 195.724218 
L 123.488305 172.822005 
L 123.751141 133.246982 
L 124.1892 32.533863 
L 124.276812 207.718357 
L 124.364424 203.825368 
L 124.62726 186.820794 
L 124.890095 157.436888 
L 125.152931 106.6615 
L 125.328155 53.631907 
L 125.415766 209.828161 
L 125.503378 206.357134 
L 125.766214 191.195684 
L 126.02905 164.996699 
L 126.291885 119.724852 
L 126.554721 41.495102 
L 126.642333 208.614481 
L 126.729944 204.900717 
L 126.99278 188.678996 
L 127.255616 160.647862 
L 127.518451 112.210062 
L 127.693675 61.621837 
L 127.781287 210.627155 
L 127.868899 207.315925 
L 128.131734 192.852476 
L 128.39457 167.859635 
L 128.657406 124.672006 
L 128.920241 50.043784 
L 129.007853 209.469349 
L 129.095465 205.926559 
L 129.358301 190.451651 
L 129.621136 163.711009 
L 129.883972 117.503181 
L 130.146807 37.656054 
L 130.234419 208.230576 
L 130.322031 204.440031 
L 130.584867 187.882931 
L 130.847702 159.272262 
L 131.110538 109.833025 
L 131.373374 58.213017 
L 131.460985 58.213017 
L 131.548597 24.453503 
L 131.636209 206.910321 
L 131.723821 202.855725 
L 131.986657 185.14525 
L 132.249492 154.541549 
L 132.512328 101.658353 
L 132.687552 46.445188 
L 132.775164 209.10949 
L 132.862775 205.494727 
L 133.125611 189.705446 
L 133.388447 162.421567 
L 133.651282 115.275025 
L 133.914118 66.035384 
L 134.00173 66.035384 
L 134.089342 33.805801 
L 134.176953 207.845551 
L 134.264565 203.978001 
L 134.527401 187.084542 
L 134.790237 157.892646 
L 135.053072 107.44905 
L 135.228296 54.76598 
L 135.315908 209.941569 
L 135.40352 206.493222 
L 135.666355 191.430845 
L 135.929191 165.403057 
L 136.192026 120.42704 
L 136.542474 42.708482 
L 136.630086 208.735819 
L 136.717698 205.046323 
L 136.980533 188.930602 
L 137.243369 161.082638 
L 137.506204 112.961355 
L 137.681428 62.703699 
L 137.76904 210.735341 
L 137.856652 207.445749 
L 138.119488 193.076811 
L 138.382323 168.247286 
L 138.645159 125.341867 
L 138.995606 51.201303 
L 139.083218 209.585101 
L 139.17083 206.065461 
L 139.433666 190.691674 
L 139.696501 164.125769 
L 139.959337 118.219886 
L 140.134561 70.275984 
L 140.222172 211.492569 
L 140.309784 208.354423 
L 140.57262 194.647 
L 140.835456 170.960572 
L 141.098291 130.030426 
L 141.361127 59.303133 
L 141.448739 210.395284 
L 141.536351 207.037681 
L 141.799186 192.371669 
L 142.062022 167.028801 
L 142.324857 123.236326 
L 142.587693 47.562928 
L 142.675305 209.221264 
L 142.762917 205.628856 
L 143.025752 189.93722 
L 143.288588 162.822074 
L 143.551424 115.9671 
L 143.726647 67.031972 
L 143.814259 211.168168 
L 143.901871 207.965141 
L 144.164707 193.974321 
L 144.427542 169.798184 
L 144.690378 128.021819 
L 144.953213 55.832261 
L 145.040825 210.048197 
L 145.128437 206.621176 
L 145.391273 191.651949 
L 145.654108 165.785125 
L 145.916944 121.087253 
L 146.17978 43.849331 
L 146.267391 208.849904 
L 146.355003 205.183224 
L 146.617839 189.167169 
L 146.880675 161.491425 
L 147.14351 113.667739 
L 147.406346 63.720892 
L 147.493958 63.720892 
L 147.58157 31.02841 
L 147.669181 207.567812 
L 147.756793 203.644714 
L 148.019629 186.508623 
L 148.282464 156.897457 
L 148.5453 105.729362 
L 148.720524 52.28963 
L 148.808136 209.693934 
L 148.895748 206.19606 
L 149.158583 190.917349 
L 149.421419 164.515736 
L 149.684254 118.893749 
L 150.034702 40.058956 
L 150.122314 208.470866 
L 150.209926 204.728379 
L 150.472761 188.381197 
L 150.735597 160.133265 
L 150.998432 111.320839 
L 151.261268 60.341355 
L 151.436492 60.341355 
L 151.524104 26.972966 
L 151.611716 207.162267 
L 151.699327 203.158061 
L 151.962163 185.667686 
L 152.224999 155.444318 
L 152.487834 103.218339 
L 152.663058 48.673755 
L 152.75067 209.332346 
L 152.838282 205.762155 
L 153.101117 190.167562 
L 153.363953 163.220103 
L 153.626789 116.654895 
L 153.889624 36.190216 
L 153.977236 208.083992 
L 154.064848 204.264131 
L 154.327684 187.578975 
L 154.590519 158.747025 
L 154.853355 108.925417 
L 155.028578 56.891948 
L 155.11619 210.154166 
L 155.203802 206.748339 
L 155.466638 191.871686 
L 155.729473 166.16483 
L 155.992309 121.743384 
L 156.255145 44.983124 
L 156.342757 208.963283 
L 156.430368 205.31928 
L 156.693204 189.402272 
L 156.95604 161.897683 
L 157.218875 114.369754 
L 157.569323 32.241492 
L 157.656935 207.68912 
L 157.744546 203.790284 
L 158.007382 186.760167 
L 158.270218 157.332126 
L 158.533053 106.480471 
L 158.708277 53.371226 
L 158.795889 209.802093 
L 158.883501 206.325852 
L 159.146336 191.141629 
L 159.409172 164.903292 
L 159.672008 119.563445 
L 159.934843 41.21619 
L 160.022455 208.58659 
L 160.110067 204.867248 
L 160.372903 188.621161 
L 160.635738 160.547923 
L 160.898574 112.037368 
L 161.073798 61.373157 
L 161.161409 210.602286 
L 161.249021 207.286084 
L 161.511857 192.800909 
L 161.774692 167.770528 
L 162.037528 124.51803 
L 162.300364 49.777713 
L 162.387976 209.442742 
L 162.475587 205.89463 
L 162.738423 190.396478 
L 163.001259 163.615671 
L 163.264094 117.338437 
L 163.614542 37.371376 
L 163.702154 208.202108 
L 163.789765 204.40587 
L 164.052601 187.8239 
L 164.315437 159.170256 
L 164.578272 109.65676 
L 164.753496 57.945082 
L 164.841108 210.259479 
L 164.92872 206.874715 
L 165.191555 192.090064 
L 165.454391 166.542187 
L 165.717227 122.395456 
L 165.980062 46.109906 
L 166.067674 209.075961 
L 166.155286 205.454493 
L 166.418122 189.635922 
L 166.680957 162.30143 
L 166.943793 115.067427 
L 167.206628 65.736443 
L 167.557076 65.736443 
L 167.644688 33.447071 
L 167.7323 207.809678 
L 167.819912 203.934953 
L 168.082747 187.010156 
L 168.345583 157.764107 
L 168.608418 107.226934 
L 168.783642 54.446133 
L 168.871254 209.909584 
L 168.958866 206.454841 
L 169.221701 191.364522 
L 169.484537 165.28845 
L 169.747373 120.228999 
L 170.010208 42.366268 
L 170.09782 208.701598 
L 170.185432 205.005257 
L 170.448268 188.859641 
L 170.711103 160.960016 
L 170.973939 112.749465 
L 171.149163 62.398578 
L 171.236774 210.704829 
L 171.324386 207.409134 
L 171.587222 193.013541 
L 171.850058 168.137955 
L 172.112893 125.152944 
L 172.375729 50.874843 
L 172.463341 209.552455 
L 172.550952 206.026286 
L 172.813788 190.623979 
L 173.076624 164.008793 
L 173.339459 118.017751 
L 173.602295 69.984909 
L 174.566025 69.984909 
L 174.653637 38.545231 
L 174.741249 208.319494 
L 174.828861 204.546732 
L 175.091697 188.067311 
L 175.354532 159.59087 
L 175.617368 110.38358 
L 175.792592 58.991703 
L 175.880204 210.364141 
L 175.967815 207.000309 
L 176.230651 192.307091 
L 176.493487 166.91721 
L 176.756322 123.043497 
L 177.019158 47.229719 
L 177.10677 209.187943 
L 177.194382 205.588871 
L 177.457217 189.868126 
L 177.720053 162.702679 
L 177.982888 115.760786 
L 178.158112 66.73488 
L 178.245724 211.138459 
L 178.333336 207.92949 
L 178.596172 193.912716 
L 178.859007 169.691731 
L 179.121843 127.837868 
L 179.384678 55.514392 
L 179.47229 210.01641 
L 179.559902 206.583032 
L 179.822738 191.586036 
L 180.085573 165.671227 
L 180.348409 120.890437 
L 180.698856 43.509233 
L 180.786468 208.815894 
L 180.87408 205.142413 
L 181.136916 189.096646 
L 181.399751 161.369561 
L 181.662587 113.457159 
L 181.925423 63.417657 
L 182.713929 63.417657 
L 182.801541 210.806736 
L 182.889153 207.531424 
L 183.151989 193.224857 
L 183.414824 168.50311 
L 183.67766 125.78393 
L 183.940496 51.965189 
L 184.028107 209.66149 
L 184.115719 206.157127 
L 184.378555 190.850073 
L 184.641391 164.399483 
L 184.904226 118.692864 
L 185.167062 39.711826 
L 185.254674 208.436153 
L 185.342286 204.686724 
L 185.605121 188.309216 
L 185.867957 160.008882 
L 186.130792 111.105905 
L 186.306016 60.031851 
L 186.393628 210.468156 
L 186.48124 207.125127 
L 186.744075 192.522776 
L 187.006911 167.289914 
L 187.269747 123.687529 
L 187.532582 48.342607 
L 187.620194 209.299231 
L 187.707806 205.722418 
L 187.970642 190.098895 
L 188.233477 163.101447 
L 188.496313 116.449857 
L 188.671537 67.727142 
L 188.759148 211.237685 
L 188.84676 208.048562 
L 189.109596 194.118472 
L 189.372432 170.047276 
L 189.635267 128.45225 
L 189.898103 56.576045 
L 189.985715 210.122575 
L 190.073326 206.71043 
L 190.336162 191.80618 
L 190.598998 166.051637 
L 190.861833 121.547785 
L 191.124669 44.645129 
L 191.212281 208.929484 
L 191.299893 205.27872 
L 191.562728 189.332186 
L 191.825564 161.776574 
L 192.088399 114.160476 
L 192.351235 64.430433 
L 192.876906 64.430433 
L 192.964518 210.908014 
L 193.05213 207.652957 
L 193.314966 193.434866 
L 193.577801 168.866006 
L 193.840637 126.411015 
L 194.103473 53.048791 
L 194.191084 209.76985 
L 194.278696 206.28716 
L 194.541532 191.074769 
L 194.804367 164.787758 
L 195.067203 119.363802 
L 195.330039 40.871207 
L 195.417651 208.552092 
L 195.505262 204.82585 
L 195.768098 188.549625 
L 196.030934 160.424309 
L 196.293769 111.823763 
L 196.556605 61.065567 
L 196.81944 61.065567 
L 196.907052 210.571527 
L 196.994664 207.249173 
L 197.2575 192.737128 
L 197.520335 167.660313 
L 197.783171 124.327578 
L 198.133619 49.448612 
L 198.22123 209.409832 
L 198.308842 205.855138 
L 198.571678 190.328236 
L 198.834513 163.497749 
L 199.097349 117.134667 
L 199.272573 68.713267 
L 199.360185 211.336298 
L 199.447797 208.166897 
L 199.710632 194.322955 
L 199.973468 170.400623 
L 200.236303 129.062833 
L 200.499139 57.631132 
L 200.586751 210.228084 
L 200.674363 206.837041 
L 200.937198 192.024963 
L 201.200034 166.429693 
L 201.46287 122.201067 
L 201.725705 45.774001 
L 201.813317 209.042371 
L 201.900929 205.414185 
L 202.163765 189.566268 
L 202.4266 162.181069 
L 202.689436 114.859444 
L 202.86466 65.436947 
L 202.952271 211.008665 
L 203.039883 207.773738 
L 203.302719 193.643577 
L 203.565554 169.226658 
L 203.82839 127.034222 
L 204.091226 54.125692 
L 204.178838 209.87754 
L 204.266449 206.416388 
L 204.529285 191.298075 
L 204.792121 165.173631 
L 205.054956 120.030591 
L 205.317792 42.023418 
L 205.405404 208.667313 
L 205.493016 204.964115 
L 205.755851 188.788548 
L 206.018687 160.837167 
L 206.281522 112.537182 
L 206.544358 62.09289 
L 206.894806 62.09289 
L 206.982417 210.67426 
L 207.070029 207.372452 
L 207.332865 192.950153 
L 207.5957 168.028422 
L 207.858536 124.96367 
L 208.121372 79.987032 
L 208.208984 79.987032 
L 208.296595 50.547778 
L 208.384207 209.519749 
L 208.471819 205.987038 
L 208.734655 190.556159 
L 208.99749 163.891599 
L 209.260326 117.815241 
L 209.523162 69.693294 
L 209.610773 69.693294 
L 209.698385 38.195293 
L 209.785997 208.2845 
L 209.873609 204.50474 
L 210.136445 187.994748 
L 210.39928 159.465481 
L 210.662116 110.166908 
L 210.83734 58.679695 
L 210.924952 210.33294 
L 211.012563 206.962868 
L 211.275399 192.242393 
L 211.538235 166.805412 
L 211.80107 122.850309 
L 212.063906 46.895892 
L 212.151518 209.15456 
L 212.23913 205.548812 
L 212.501965 189.798904 
L 212.764801 162.583063 
L 213.027636 115.554089 
L 213.20286 66.437236 
L 213.290472 211.108694 
L 213.378084 207.893773 
L 213.64092 193.850997 
L 213.903755 169.585079 
L 214.166591 127.653574 
L 214.429426 55.195933 
L 214.517038 209.984564 
L 214.60465 206.544817 
L 214.867486 191.52 
L 215.130321 165.557118 
L 215.393157 120.693256 
L 215.655993 43.168504 
L 215.743604 208.781821 
L 215.831216 205.101525 
L 216.094052 189.025992 
L 216.356887 161.247472 
L 216.619723 113.246189 
L 216.794947 63.113859 
L 216.882559 210.776357 
L 216.970171 207.494968 
L 217.233006 193.161861 
L 217.495842 168.394254 
L 217.758677 125.595827 
L 218.021513 80.897339 
L 218.109125 80.897339 
L 218.196737 51.640146 
L 218.284349 209.628985 
L 218.37196 206.118122 
L 218.634796 190.782672 
L 218.897632 164.283015 
L 219.160467 118.491606 
L 219.423303 70.667261 
L 219.510915 70.667261 
L 219.598527 39.364053 
L 219.686139 208.401376 
L 219.77375 204.644991 
L 220.036586 188.237102 
L 220.299422 159.884269 
L 220.562257 110.890573 
L 220.737481 59.721773 
L 220.825093 210.437148 
L 220.912705 207.087917 
L 221.17554 192.458478 
L 221.438376 167.178808 
L 221.701212 123.495537 
L 221.964047 48.010844 
L 222.051659 209.266055 
L 222.139271 205.682606 
L 222.402107 190.0301 
L 222.664942 162.98257 
L 222.927778 116.244438 
L 223.103001 67.431339 
L 223.190613 211.208105 
L 223.278225 208.013065 
L 223.541061 194.057134 
L 223.803896 169.941284 
L 224.066732 128.269097 
L 224.329568 56.259556 
L 224.41718 210.090926 
L 224.504791 206.672451 
L 224.767627 191.740553 
L 225.030463 165.938233 
L 225.293298 121.351823 
L 225.556134 44.306507 
L 225.643746 208.895622 
L 225.731358 205.238086 
L 225.994193 189.261969 
L 226.257029 161.655239 
L 226.519864 113.950811 
L 226.695088 64.128515 
L 226.7827 210.877822 
L 226.870312 207.616727 
L 227.133147 193.37226 
L 227.395983 168.757823 
L 227.658819 126.224075 
L 228.009266 52.725759 
L 228.096878 209.737547 
L 228.18449 206.248396 
L 228.447326 191.007785 
L 228.710161 164.672009 
L 228.972997 119.163789 
L 229.148221 71.635204 
L 229.235832 211.628491 
L 229.323444 208.517529 
L 229.58628 194.928847 
L 229.849115 171.447605 
L 230.111951 130.872019 
L 230.374787 60.757406 
L 230.462399 210.540711 
L 230.55001 207.212193 
L 230.812846 192.673227 
L 231.075682 167.549894 
L 231.338517 124.136773 
L 231.601353 49.118901 
L 231.688965 209.376861 
L 231.776577 205.815573 
L 232.039412 190.259867 
L 232.302248 163.379607 
L 232.565083 116.930518 
L 232.740307 68.419294 
L 232.827919 211.3069 
L 232.915531 208.13162 
L 233.178367 194.261996 
L 233.441202 170.295287 
L 233.704038 128.880812 
L 233.966873 57.316601 
L 234.054485 210.196631 
L 234.142097 206.799297 
L 234.404933 191.959742 
L 234.667768 166.316991 
L 234.930604 122.006317 
L 235.105828 75.728445 
L 235.19344 212.037815 
L 235.281051 209.008718 
L 235.543887 195.777622 
L 235.806723 172.914288 
L 236.069558 133.406446 
L 236.332394 65.136895 
L 236.420006 210.97866 
L 236.507618 207.737732 
L 236.770453 193.581358 
L 237.033289 169.119144 
L 237.296124 126.848438 
L 237.55896 53.804658 
L 237.646572 209.845437 
L 237.734184 206.377864 
L 237.997019 191.231505 
L 238.259855 165.058598 
L 238.522691 119.831815 
L 238.697914 72.597161 
L 238.785526 211.724687 
L 238.873138 208.632964 
L 239.135974 195.128319 
L 239.398809 171.792292 
L 239.661645 131.467638 
L 239.924481 61.786635 
L 240.012092 210.643634 
L 240.099704 207.335701 
L 240.36254 192.886648 
L 240.625375 167.918685 
L 240.888211 124.774045 
L 241.238659 50.220106 
L 241.32627 209.486981 
L 241.413882 205.947717 
L 241.676718 190.488213 
L 241.939554 163.774189 
L 242.202389 117.612355 
L 242.465225 69.401139 
L 243.078508 69.401139 
L 243.16612 211.405085 
L 243.253732 208.249441 
L 243.516567 194.465592 
L 243.779403 170.647099 
L 244.042238 129.488745 
L 244.305074 58.367108 
L 244.392686 210.301682 
L 244.480298 206.925358 
L 244.743133 192.177575 
L 245.005969 166.693407 
L 245.268805 122.656764 
L 245.444028 76.665088 
L 245.53164 212.13148 
L 245.619252 209.121115 
L 245.882088 195.971844 
L 246.144923 173.249904 
L 246.407759 133.986391 
L 246.670595 66.13904 
L 246.758206 211.078875 
L 246.845818 207.85799 
L 247.108654 193.789163 
L 247.371489 169.47823 
L 247.634325 127.468939 
L 247.984773 54.876884 
L 248.072384 209.952659 
L 248.159996 206.506531 
L 248.422832 191.453842 
L 248.685668 165.442796 
L 248.948503 120.495709 
L 249.123727 73.553169 
L 249.211339 211.820288 
L 249.298951 208.747685 
L 249.561786 195.326557 
L 249.824622 172.134847 
L 250.087457 132.059572 
L 250.350293 62.809498 
L 250.437905 210.745921 
L 250.525517 207.458445 
L 250.788352 193.098749 
L 251.051188 168.285195 
L 251.314024 125.407375 
L 251.664471 51.314501 
L 251.752083 209.596421 
L 251.839695 206.079045 
L 252.10253 190.715146 
L 252.365366 164.16633 
L 252.628202 118.289975 
L 252.891037 70.376912 
L 253.679544 70.376912 
L 253.767156 211.502662 
L 253.854768 208.366534 
L 254.117603 194.667928 
L 254.380439 170.996737 
L 254.643275 130.092918 
L 254.90611 59.411119 
L 254.993722 210.406083 
L 255.081334 207.050639 
L 255.34417 192.394061 
L 255.607005 167.067495 
L 255.869841 123.303188 
L 256.045065 77.595938 
L 256.132676 212.224565 
L 256.220288 209.232817 
L 256.483124 196.164865 
L 256.74596 173.583444 
L 257.008795 134.562749 
L 257.271631 67.134987 
L 257.359243 211.178469 
L 257.446855 207.977503 
L 257.70969 193.995682 
L 257.972526 169.835096 
L 258.235361 128.085603 
L 258.585809 55.94248 
L 258.673421 210.059219 
L 258.761033 206.634402 
L 259.023868 191.674804 
L 259.286704 165.824619 
L 259.549539 121.155498 
L 259.724763 74.503265 
L 259.812375 211.915297 
L 259.899987 208.861697 
L 260.162822 195.523569 
L 260.425658 172.475283 
L 260.688494 132.647847 
L 260.951329 63.826036 
L 261.038941 210.847574 
L 261.126553 207.580429 
L 261.389389 193.309538 
L 261.652224 168.649439 
L 261.91506 126.036788 
L 262.177895 52.402127 
L 262.265507 209.705183 
L 262.353119 206.20956 
L 262.615955 190.940677 
L 262.87879 164.556046 
L 263.141626 118.963405 
L 263.404462 71.346651 
L 263.492074 71.346651 
L 263.579685 40.179321 
L 263.667297 208.482903 
L 263.754909 204.742823 
L 264.017745 188.406156 
L 264.28058 160.176394 
L 264.543416 111.395365 
L 264.71864 60.448674 
L 264.806252 210.509838 
L 264.893863 207.175146 
L 265.156699 192.609209 
L 265.419535 167.439269 
L 265.68237 123.945614 
L 265.945206 78.521032 
L 266.208042 78.521032 
L 266.295653 48.788579 
L 266.383265 209.343829 
L 266.470877 205.775934 
L 266.733713 190.191371 
L 266.996548 163.261247 
L 267.259384 116.725991 
L 267.434608 68.124775 
L 267.52222 211.277448 
L 267.609831 208.096278 
L 267.872667 194.200925 
L 268.135503 170.189755 
L 268.398338 128.698454 
L 268.661174 57.001485 
L 268.748786 210.165119 
L 268.836398 206.761483 
L 269.099233 191.8944 
L 269.362069 166.204079 
L 269.624904 121.811206 
L 269.800128 75.447485 
L 269.88774 212.009719 
L 269.975352 208.975003 
L 270.238188 195.719362 
L 270.501023 172.813614 
L 270.763859 133.232483 
L 271.026694 64.836287 
L 271.114306 210.9486 
L 271.201918 207.701659 
L 271.464754 193.519024 
L 271.727589 169.011431 
L 271.990425 126.662309 
L 272.253261 53.483027 
L 272.340872 209.813273 
L 272.428484 206.339268 
L 272.69132 191.164812 
L 272.954155 164.943352 
L 273.216991 119.63267 
L 273.567439 41.33581 
L 273.65505 208.598552 
L 273.742662 204.881602 
L 274.005498 188.645965 
L 274.268334 160.590785 
L 274.531169 112.111433 
L 274.706393 61.479811 
L 274.794005 210.612952 
L 274.881617 207.298882 
L 275.144452 192.823025 
L 275.407288 167.808745 
L 275.670123 124.584068 
L 275.932959 49.891826 
L 276.020571 209.454153 
L 276.108183 205.908324 
L 276.371018 190.420141 
L 276.633854 163.65656 
L 276.89669 117.409093 
L 277.071913 69.108441 
L 277.159525 211.375815 
L 277.247137 208.214318 
L 277.509973 194.404898 
L 277.772808 170.542221 
L 278.035644 129.307514 
L 278.29848 58.053942 
L 278.386091 210.270365 
L 278.473703 206.887778 
L 278.736539 192.112637 
L 278.999375 166.581194 
L 279.26221 122.462859 
L 279.437434 76.385865 
L 279.525046 212.103557 
L 279.612658 209.087609 
L 279.875493 195.913945 
L 280.138329 173.149853 
L 280.401164 133.813503 
L 280.664 65.840291 
L 280.751612 211.049 
L 280.839224 207.82214 
L 281.102059 193.727214 
L 281.364895 169.371183 
L 281.627731 127.283962 
L 281.890566 54.557243 
L 281.978178 209.920695 
L 282.06579 206.468174 
L 282.328626 191.387561 
L 282.591461 165.328263 
L 282.854297 120.297796 
L 283.204744 42.485148 
L 283.292356 208.713486 
L 283.379968 205.019523 
L 283.642804 188.884292 
L 283.905639 161.002613 
L 284.168475 112.823073 
L 284.343699 62.504573 
L 284.43131 210.715428 
L 284.518922 207.421853 
L 284.781758 193.03552 
L 285.044594 168.175935 
L 285.307429 125.218573 
L 285.570265 50.988251 
L 285.657877 209.563796 
L 285.745489 206.039895 
L 286.008324 190.647495 
L 286.27116 164.049429 
L 286.533995 118.08797 
L 286.796831 70.086024 
L 289.688023 70.086024 
L 289.775635 38.666569 
L 289.863246 208.331628 
L 289.950858 204.561293 
L 290.213694 188.092471 
L 290.476529 159.634347 
L 290.739365 110.458709 
L 290.914589 59.099889 
L 291.002201 210.37496 
L 291.089813 207.013291 
L 291.352648 192.329525 
L 291.615484 166.955976 
L 291.878319 123.110483 
L 292.141155 47.345471 
L 292.228767 209.199518 
L 292.316379 205.602761 
L 292.579214 189.892128 
L 292.84205 162.744155 
L 293.104886 115.832457 
L 293.367721 66.838085 
L 294.419064 66.838085 
L 294.506676 211.148779 
L 294.594287 207.941875 
L 294.857123 193.934117 
L 295.119959 169.728711 
L 295.382794 127.90177 
L 295.64563 55.624815 
L 295.733242 210.027452 
L 295.820854 206.596283 
L 296.083689 191.608933 
L 296.346525 165.710794 
L 296.60936 120.958808 
L 296.959808 43.627378 
L 297.04742 208.827709 
L 297.135032 205.15659 
L 297.397867 189.121145 
L 297.660703 161.411895 
L 297.923538 113.530311 
L 298.098762 63.522996 
L 298.186374 210.81727 
L 298.273986 207.544064 
L 298.536822 193.2467 
L 298.799657 168.540855 
L 299.062493 125.849154 
L 299.325328 52.077895 
L 299.41294 209.67276 
L 299.500552 206.170652 
L 299.763388 190.873444 
L 300.026223 164.439868 
L 300.289059 118.762649 
L 300.551895 39.832414 
L 300.639506 208.448212 
L 300.727118 204.701194 
L 300.989954 188.334221 
L 301.25279 160.052091 
L 301.515625 111.18057 
L 301.690849 60.139368 
L 301.778461 210.478908 
L 301.866073 207.138029 
L 302.128908 192.545071 
L 302.391744 167.32844 
L 302.654579 123.754101 
L 302.917415 48.457643 
L 303.005027 209.310735 
L 303.092639 205.736222 
L 303.355474 190.122748 
L 303.61831 163.142666 
L 303.881146 116.521084 
L 304.056369 67.829709 
L 304.143981 211.247942 
L 304.231593 208.06087 
L 304.494429 194.13974 
L 304.757264 170.084028 
L 305.0201 128.515757 
L 305.282936 56.685785 
L 305.370547 210.133549 
L 305.458159 206.723599 
L 305.720995 191.828936 
L 305.98383 166.090958 
L 306.246666 121.615733 
L 306.597114 44.762544 
L 306.684725 208.941225 
L 306.772337 205.29281 
L 307.035173 189.356533 
L 307.298009 161.818645 
L 307.560844 114.233176 
L 307.736068 64.535121 
L 307.82368 210.918483 
L 307.911292 207.665519 
L 308.174127 193.456574 
L 308.436963 168.903518 
L 308.699798 126.475835 
L 308.962634 53.1608 
L 309.050246 209.781051 
L 309.137858 206.300601 
L 309.400693 191.097995 
L 309.663529 164.827893 
L 309.926365 119.433155 
L 310.1892 40.991049 
L 310.276812 208.564076 
L 310.364424 204.840231 
L 310.62726 188.574476 
L 310.890095 160.467251 
L 311.152931 111.897966 
L 311.415766 61.172419 
L 311.678602 61.172419 
L 311.766214 210.582213 
L 311.853826 207.261995 
L 312.116661 192.759284 
L 312.379497 167.6986 
L 312.642333 124.393739 
L 312.905168 49.562937 
L 312.99278 209.421265 
L 313.080392 205.868857 
L 313.343228 190.351942 
L 313.606063 163.538713 
L 313.868899 117.205453 
L 314.131734 68.815201 
L 316.672479 68.815201 
L 316.76009 37.14158 
L 316.847702 208.179129 
L 316.935314 204.378294 
L 317.19815 187.77625 
L 317.460985 159.087916 
L 317.723821 109.514477 
L 317.899045 57.740194 
L 317.986657 210.23899 
L 318.074269 206.850128 
L 318.337104 192.047578 
L 318.59994 166.468772 
L 318.862775 122.268595 
L 319.125611 45.89069 
L 319.213223 209.05404 
L 319.300835 205.428188 
L 319.56367 189.590465 
L 319.826506 162.22288 
L 320.089342 114.931694 
L 320.264565 65.540988 
L 320.352177 211.01907 
L 320.439789 207.786223 
L 320.702625 193.665151 
L 320.96546 169.263938 
L 321.228296 127.098641 
L 321.491131 54.237009 
L 321.578743 209.888672 
L 321.666355 206.429746 
L 321.929191 191.321158 
L 322.192026 165.213517 
L 322.454862 120.099515 
L 322.80531 42.142519 
L 322.892921 208.679223 
L 322.980533 204.978407 
L 323.243369 188.813244 
L 323.506204 160.879843 
L 323.76904 112.610926 
L 323.944264 62.199081 
L 324.031876 210.684879 
L 324.119488 207.385195 
L 324.382323 192.972173 
L 324.645159 168.066472 
L 324.907994 125.029421 
L 325.17083 50.661396 
L 325.258442 209.53111 
L 325.346054 206.000672 
L 325.608889 190.579719 
L 325.871725 163.932311 
L 326.134561 117.88559 
L 326.397396 38.316857 
L 326.485008 208.296656 
L 326.57262 204.519328 
L 326.835456 188.019955 
L 327.098291 159.509039 
L 327.361127 110.242177 
L 327.536351 58.788082 
L 327.623962 210.343779 
L 327.711574 206.975875 
L 327.97441 192.264868 
L 328.237245 166.844249 
L 328.500081 122.91742 
L 328.762917 47.011859 
L 328.850529 209.166157 
L 328.93814 205.562728 
L 329.200976 189.822951 
L 329.463812 162.624616 
L 329.726647 115.625893 
L 329.989483 66.540633 
L 336.385149 66.540633 
L 336.472761 34.412099 
L 336.560373 207.906181 
L 336.647985 204.050757 
L 336.910821 187.210265 
L 337.173656 158.109894 
L 337.436492 107.824454 
L 337.611716 55.306561 
L 337.699327 209.995627 
L 337.786939 206.558092 
L 338.049775 191.54294 
L 338.312611 165.596758 
L 338.575446 120.761754 
L 338.838282 43.286868 
L 338.925894 208.793658 
L 339.013505 205.115729 
L 339.276341 189.050537 
L 339.539177 161.289884 
L 339.802012 113.319477 
L 340.15246 30.426613 
L 340.240072 207.507632 
L 340.327684 203.572498 
L 340.590519 186.383834 
L 340.853355 156.681822 
L 341.11619 105.356746 
L 341.291414 51.753061 
L 341.379026 209.640277 
L 341.466638 206.131672 
L 341.729473 190.806086 
L 341.992309 164.323474 
L 342.255145 118.561521 
L 342.51798 39.484864 
L 342.605592 208.413457 
L 342.693204 204.659488 
L 342.95604 188.262153 
L 343.218875 159.927557 
L 343.481711 110.965376 
L 343.832158 26.358727 
L 343.91977 207.100843 
L 344.007382 203.084352 
L 344.270218 185.540317 
L 344.533053 155.224225 
L 344.795889 102.838018 
L 344.971113 48.126094 
L 345.058725 209.27758 
L 345.146336 205.696436 
L 345.409172 190.053998 
L 345.672008 163.023866 
L 345.934843 116.315798 
L 346.197679 35.604256 
L 346.285291 208.025396 
L 346.372903 204.193815 
L 346.635738 187.45747 
L 346.898574 158.537065 
L 347.161409 108.562606 
L 347.424245 56.3695 
L 356.360656 56.3695 
L 356.448268 210.101921 
L 356.535879 206.685645 
L 356.798715 191.763351 
L 357.061551 165.977628 
L 357.149163 153.736493 
L 357.149163 153.736493 
" clip-path="url(#p655d8ff958)" style="fill: none; stroke: #1f77b4; stroke-width: 1.5; stroke-linecap: square"/>
   </g>
   <g id="patch_3">
    <path d="M 37.567344 228.96 
L 37.567344 7.2 
" style="fill: none; stroke: #000000; stroke-width: 0.8; stroke-linejoin: miter; stroke-linecap: square"/>
   </g>
   <g id="patch_4">
    <path d="M 372.367344 228.96 
L 372.367344 7.2 
" style="fill: none; stroke: #000000; stroke-width: 0.8; stroke-linejoin: miter; stroke-linecap: square"/>
   </g>
   <g id="patch_5">
    <path d="M 37.567344 228.96 
L 372.367344 228.96 
" style="fill: none; stroke: #000000; stroke-width: 0.8; stroke-linejoin: miter; stroke-linecap: square"/>
   </g>
   <g id="patch_6">
    <path d="M 37.567344 7.2 
L 372.367344 7.2 
" style="fill: none; stroke: #000000; stroke-width: 0.8; stroke-linejoin: miter; stroke-linecap: square"/>
   </g>
   <g id="legend_1">
    <g id="patch_7">
     <path d="M 179.557684 29.420307 
L 230.377004 29.420307 
Q 232.377004 29.420307 232.377004 27.420307 
L 232.377004 14.2 
Q 232.377004 12.2 230.377004 12.2 
L 179.557684 12.2 
Q 177.557684 12.2 177.557684 14.2 
L 177.557684 27.420307 
Q 177.557684 29.420307 179.557684 29.420307 
z
" style="fill: #ffffff; opacity: 0.8; stroke: #cccccc; stroke-linejoin: miter"/>
    </g>
    <g id="line2d_16">
     <path d="M 181.557684 19.79832 
L 191.557684 19.79832 
L 201.557684 19.79832 
" style="fill: none; stroke: #1f77b4; stroke-width: 1.5; stroke-linecap: square"/>
    </g>
    <g id="text_17">
     <!-- CFL -->
     <g transform="translate(209.557684 23.29832) scale(0.1 -0.1)">
      <use xlink:href="#NimbusSanL-Regu-43" transform="scale(0.996264)"/>
      <use xlink:href="#NimbusSanL-Regu-46" transform="translate(71.929985 0) scale(0.996264)"/>
      <use xlink:href="#NimbusSanL-Regu-4c" transform="translate(132.801616 0) scale(0.996264)"/>
     </g>
    </g>
   </g>
  </g>
 </g>
 <defs>
  <clipPath id="p655d8ff958">
   <rect x="37.567344" y="7.2" width="334.8" height="221.76"/>
  </clipPath>
 </defs>
</svg>
