<?xml version="1.0" encoding="utf-8" standalone="no"?>
<!DOCTYPE svg PUBLIC "-//W3C//DTD SVG 1.1//EN"
  "http://www.w3.org/Graphics/SVG/1.1/DTD/svg11.dtd">
<svg xmlns:xlink="http://www.w3.org/1999/xlink" width="385.959092pt" height="267.29662pt" viewBox="0 0 385.959092 267.29662" xmlns="http://www.w3.org/2000/svg" version="1.1">
 <metadata>
  <rdf:RDF xmlns:dc="http://purl.org/dc/elements/1.1/" xmlns:cc="http://creativecommons.org/ns#" xmlns:rdf="http://www.w3.org/1999/02/22-rdf-syntax-ns#">
   <cc:Work>
    <dc:type rdf:resource="http://purl.org/dc/dcmitype/StillImage"/>
    <dc:date>2025-07-17T17:55:32.613226</dc:date>
    <dc:format>image/svg+xml</dc:format>
    <dc:creator>
     <cc:Agent>
      <dc:title>Matplotlib v3.10.3, https://matplotlib.org/</dc:title>
     </cc:Agent>
    </dc:creator>
   </cc:Work>
  </rdf:RDF>
 </metadata>
 <defs>
  <style type="text/css">*{stroke-linejoin: round; stroke-linecap: butt}</style>
 </defs>
 <g id="figure_1">
  <g id="patch_1">
   <path d="M 0 267.29662 
L 385.959092 267.29662 
L 385.959092 0 
L 0 0 
z
" style="fill: #ffffff"/>
  </g>
  <g id="axes_1">
   <g id="patch_2">
    <path d="M 37.567344 230.656006 
L 372.367344 230.656006 
L 372.367344 8.896006 
L 37.567344 8.896006 
z
" style="fill: #ffffff"/>
   </g>
   <g id="matplotlib.axis_1">
    <g id="xtick_1">
     <g id="line2d_1">
      <defs>
       <path id="me57ab2f031" d="M 0 0 
L 0 3.5 
" style="stroke: #000000; stroke-width: 0.8"/>
      </defs>
      <g>
       <use xlink:href="#me57ab2f031" x="52.785526" y="230.656006" style="stroke: #000000; stroke-width: 0.8"/>
      </g>
     </g>
     <g id="text_1">
      <!-- $\mathdefault{0}$ -->
      <g transform="translate(50.294859 244.754326) scale(0.1 -0.1)">
       <defs>
        <path id="CMR17-30" d="M 2688 2038 
C 2688 2430 2682 3099 2413 3613 
C 2176 4063 1798 4224 1466 4224 
C 1158 4224 768 4082 525 3620 
C 269 3137 243 2539 243 2038 
C 243 1671 250 1112 448 623 
C 723 -39 1216 -128 1466 -128 
C 1760 -128 2208 -7 2470 604 
C 2662 1048 2688 1568 2688 2038 
z
M 1466 -26 
C 1056 -26 813 328 723 816 
C 653 1196 653 1749 653 2109 
C 653 2604 653 3015 736 3407 
C 858 3954 1216 4121 1466 4121 
C 1728 4121 2067 3947 2189 3420 
C 2272 3054 2278 2623 2278 2109 
C 2278 1691 2278 1176 2202 797 
C 2067 96 1690 -26 1466 -26 
z
" transform="scale(0.015625)"/>
       </defs>
       <use xlink:href="#CMR17-30" transform="scale(0.996264)"/>
      </g>
     </g>
    </g>
    <g id="xtick_2">
     <g id="line2d_2">
      <g>
       <use xlink:href="#me57ab2f031" x="97.92994" y="230.656006" style="stroke: #000000; stroke-width: 0.8"/>
      </g>
     </g>
     <g id="text_2">
      <!-- $\mathdefault{1000}$ -->
      <g transform="translate(87.967269 244.754326) scale(0.1 -0.1)">
       <defs>
        <path id="CMR17-31" d="M 1702 4083 
C 1702 4217 1696 4224 1606 4224 
C 1357 3927 979 3833 621 3820 
C 602 3820 570 3820 563 3808 
C 557 3795 557 3782 557 3648 
C 755 3648 1088 3686 1344 3839 
L 1344 467 
C 1344 243 1331 166 781 166 
L 589 166 
L 589 0 
C 896 6 1216 12 1523 12 
C 1830 12 2150 6 2458 0 
L 2458 166 
L 2266 166 
C 1715 166 1702 236 1702 467 
L 1702 4083 
z
" transform="scale(0.015625)"/>
       </defs>
       <use xlink:href="#CMR17-31" transform="scale(0.996264)"/>
       <use xlink:href="#CMR17-30" transform="translate(45.690477 0) scale(0.996264)"/>
       <use xlink:href="#CMR17-30" transform="translate(91.380954 0) scale(0.996264)"/>
       <use xlink:href="#CMR17-30" transform="translate(137.071431 0) scale(0.996264)"/>
      </g>
     </g>
    </g>
    <g id="xtick_3">
     <g id="line2d_3">
      <g>
       <use xlink:href="#me57ab2f031" x="143.074353" y="230.656006" style="stroke: #000000; stroke-width: 0.8"/>
      </g>
     </g>
     <g id="text_3">
      <!-- $\mathdefault{2000}$ -->
      <g transform="translate(133.111683 244.754326) scale(0.1 -0.1)">
       <defs>
        <path id="CMR17-32" d="M 2669 990 
L 2554 990 
C 2490 537 2438 460 2413 422 
C 2381 371 1920 371 1830 371 
L 602 371 
C 832 620 1280 1073 1824 1596 
C 2214 1966 2669 2400 2669 3033 
C 2669 3788 2067 4224 1395 4224 
C 691 4224 262 3603 262 3027 
C 262 2777 448 2745 525 2745 
C 589 2745 781 2783 781 3007 
C 781 3206 614 3264 525 3264 
C 486 3264 448 3257 422 3244 
C 544 3788 915 4057 1306 4057 
C 1862 4057 2227 3616 2227 3033 
C 2227 2477 1901 1998 1536 1583 
L 262 147 
L 262 0 
L 2515 0 
L 2669 990 
z
" transform="scale(0.015625)"/>
       </defs>
       <use xlink:href="#CMR17-32" transform="scale(0.996264)"/>
       <use xlink:href="#CMR17-30" transform="translate(45.690477 0) scale(0.996264)"/>
       <use xlink:href="#CMR17-30" transform="translate(91.380954 0) scale(0.996264)"/>
       <use xlink:href="#CMR17-30" transform="translate(137.071431 0) scale(0.996264)"/>
      </g>
     </g>
    </g>
    <g id="xtick_4">
     <g id="line2d_4">
      <g>
       <use xlink:href="#me57ab2f031" x="188.218767" y="230.656006" style="stroke: #000000; stroke-width: 0.8"/>
      </g>
     </g>
     <g id="text_4">
      <!-- $\mathdefault{3000}$ -->
      <g transform="translate(178.256096 244.754326) scale(0.1 -0.1)">
       <defs>
        <path id="CMR17-33" d="M 1414 2176 
C 1984 2176 2234 1673 2234 1094 
C 2234 322 1824 25 1453 25 
C 1114 25 563 193 390 691 
C 422 678 454 678 486 678 
C 640 678 755 780 755 947 
C 755 1132 614 1216 486 1216 
C 378 1216 211 1164 211 927 
C 211 335 787 -128 1466 -128 
C 2176 -128 2720 432 2720 1087 
C 2720 1718 2208 2176 1600 2246 
C 2086 2347 2554 2776 2554 3353 
C 2554 3856 2048 4224 1472 4224 
C 890 4224 378 3862 378 3347 
C 378 3123 544 3084 627 3084 
C 762 3084 877 3167 877 3334 
C 877 3500 762 3584 627 3584 
C 602 3584 570 3584 544 3571 
C 730 3999 1235 4076 1459 4076 
C 1683 4076 2106 3966 2106 3347 
C 2106 3167 2080 2851 1862 2574 
C 1670 2329 1453 2316 1242 2297 
C 1210 2297 1062 2284 1037 2284 
C 992 2278 966 2272 966 2227 
C 966 2182 973 2176 1101 2176 
L 1414 2176 
z
" transform="scale(0.015625)"/>
       </defs>
       <use xlink:href="#CMR17-33" transform="scale(0.996264)"/>
       <use xlink:href="#CMR17-30" transform="translate(45.690477 0) scale(0.996264)"/>
       <use xlink:href="#CMR17-30" transform="translate(91.380954 0) scale(0.996264)"/>
       <use xlink:href="#CMR17-30" transform="translate(137.071431 0) scale(0.996264)"/>
      </g>
     </g>
    </g>
    <g id="xtick_5">
     <g id="line2d_5">
      <g>
       <use xlink:href="#me57ab2f031" x="233.363181" y="230.656006" style="stroke: #000000; stroke-width: 0.8"/>
      </g>
     </g>
     <g id="text_5">
      <!-- $\mathdefault{4000}$ -->
      <g transform="translate(223.40051 244.754326) scale(0.1 -0.1)">
       <defs>
        <path id="CMR17-34" d="M 2150 4147 
C 2150 4281 2144 4288 2029 4288 
L 128 1254 
L 128 1088 
L 1779 1088 
L 1779 460 
C 1779 230 1766 166 1318 166 
L 1197 166 
L 1197 0 
C 1402 12 1747 12 1965 12 
C 2182 12 2528 12 2733 0 
L 2733 166 
L 2611 166 
C 2163 166 2150 230 2150 460 
L 2150 1088 
L 2803 1088 
L 2803 1254 
L 2150 1254 
L 2150 4147 
z
M 1798 3723 
L 1798 1254 
L 256 1254 
L 1798 3723 
z
" transform="scale(0.015625)"/>
       </defs>
       <use xlink:href="#CMR17-34" transform="scale(0.996264)"/>
       <use xlink:href="#CMR17-30" transform="translate(45.690477 0) scale(0.996264)"/>
       <use xlink:href="#CMR17-30" transform="translate(91.380954 0) scale(0.996264)"/>
       <use xlink:href="#CMR17-30" transform="translate(137.071431 0) scale(0.996264)"/>
      </g>
     </g>
    </g>
    <g id="xtick_6">
     <g id="line2d_6">
      <g>
       <use xlink:href="#me57ab2f031" x="278.507594" y="230.656006" style="stroke: #000000; stroke-width: 0.8"/>
      </g>
     </g>
     <g id="text_6">
      <!-- $\mathdefault{5000}$ -->
      <g transform="translate(268.544924 244.754326) scale(0.1 -0.1)">
       <defs>
        <path id="CMR17-35" d="M 730 3750 
C 794 3724 1056 3641 1325 3641 
C 1920 3641 2246 3961 2432 4140 
C 2432 4191 2432 4224 2394 4224 
C 2387 4224 2374 4224 2323 4198 
C 2099 4102 1837 4032 1517 4032 
C 1325 4032 1037 4055 723 4191 
C 653 4224 640 4224 634 4224 
C 602 4224 595 4217 595 4090 
L 595 2231 
C 595 2113 595 2080 659 2080 
C 691 2080 704 2093 736 2139 
C 941 2435 1222 2560 1542 2560 
C 1766 2560 2246 2415 2246 1293 
C 2246 1087 2246 716 2054 422 
C 1894 159 1645 25 1370 25 
C 947 25 518 319 403 812 
C 429 806 480 793 506 793 
C 589 793 749 838 749 1036 
C 749 1209 627 1280 506 1280 
C 358 1280 262 1190 262 1011 
C 262 454 704 -128 1382 -128 
C 2042 -128 2669 441 2669 1267 
C 2669 2054 2170 2662 1549 2662 
C 1222 2662 947 2540 730 2304 
L 730 3750 
z
" transform="scale(0.015625)"/>
       </defs>
       <use xlink:href="#CMR17-35" transform="scale(0.996264)"/>
       <use xlink:href="#CMR17-30" transform="translate(45.690477 0) scale(0.996264)"/>
       <use xlink:href="#CMR17-30" transform="translate(91.380954 0) scale(0.996264)"/>
       <use xlink:href="#CMR17-30" transform="translate(137.071431 0) scale(0.996264)"/>
      </g>
     </g>
    </g>
    <g id="xtick_7">
     <g id="line2d_7">
      <g>
       <use xlink:href="#me57ab2f031" x="323.652008" y="230.656006" style="stroke: #000000; stroke-width: 0.8"/>
      </g>
     </g>
     <g id="text_7">
      <!-- $\mathdefault{6000}$ -->
      <g transform="translate(313.689337 244.754326) scale(0.1 -0.1)">
       <defs>
        <path id="CMR17-36" d="M 678 2198 
C 678 3712 1395 4076 1811 4076 
C 1946 4076 2272 4049 2400 3782 
C 2298 3782 2106 3782 2106 3558 
C 2106 3385 2246 3328 2336 3328 
C 2394 3328 2566 3353 2566 3571 
C 2566 3987 2246 4224 1805 4224 
C 1043 4224 243 3411 243 2011 
C 243 257 966 -128 1478 -128 
C 2099 -128 2688 431 2688 1295 
C 2688 2101 2170 2688 1517 2688 
C 1126 2688 838 2430 678 1979 
L 678 2198 
z
M 1478 25 
C 691 25 691 1212 691 1450 
C 691 1914 909 2585 1504 2585 
C 1613 2585 1926 2585 2138 2140 
C 2253 1889 2253 1624 2253 1302 
C 2253 954 2253 696 2118 438 
C 1978 173 1773 25 1478 25 
z
" transform="scale(0.015625)"/>
       </defs>
       <use xlink:href="#CMR17-36" transform="scale(0.996264)"/>
       <use xlink:href="#CMR17-30" transform="translate(45.690477 0) scale(0.996264)"/>
       <use xlink:href="#CMR17-30" transform="translate(91.380954 0) scale(0.996264)"/>
       <use xlink:href="#CMR17-30" transform="translate(137.071431 0) scale(0.996264)"/>
      </g>
     </g>
    </g>
    <g id="xtick_8">
     <g id="line2d_8">
      <g>
       <use xlink:href="#me57ab2f031" x="368.796421" y="230.656006" style="stroke: #000000; stroke-width: 0.8"/>
      </g>
     </g>
     <g id="text_8">
      <!-- $\mathdefault{7000}$ -->
      <g transform="translate(358.833751 244.754326) scale(0.1 -0.1)">
       <defs>
        <path id="CMR17-37" d="M 2886 3955 
L 2886 4096 
L 1382 4096 
C 634 4096 621 4166 595 4288 
L 480 4288 
L 294 3104 
L 410 3104 
C 429 3226 474 3552 550 3673 
C 589 3724 1062 3724 1171 3724 
L 2579 3724 
L 1869 2670 
C 1395 1961 1069 1003 1069 166 
C 1069 89 1069 -128 1299 -128 
C 1530 -128 1530 89 1530 172 
L 1530 466 
C 1530 1514 1709 2204 2003 2644 
L 2886 3955 
z
" transform="scale(0.015625)"/>
       </defs>
       <use xlink:href="#CMR17-37" transform="scale(0.996264)"/>
       <use xlink:href="#CMR17-30" transform="translate(45.690477 0) scale(0.996264)"/>
       <use xlink:href="#CMR17-30" transform="translate(91.380954 0) scale(0.996264)"/>
       <use xlink:href="#CMR17-30" transform="translate(137.071431 0) scale(0.996264)"/>
      </g>
     </g>
    </g>
    <g id="text_9">
     <!-- Iteration -->
     <g transform="translate(187.019968 257.974633) scale(0.1 -0.1)">
      <defs>
       <path id="NimbusSanL-Regu-49" d="M 1242 4672 
L 640 4672 
L 640 0 
L 1242 0 
L 1242 4672 
z
" transform="scale(0.015625)"/>
       <path id="NimbusSanL-Regu-74" d="M 1626 3328 
L 1075 3328 
L 1075 4249 
L 544 4249 
L 544 3328 
L 90 3328 
L 90 2892 
L 544 2892 
L 544 402 
C 544 64 774 -128 1190 -128 
C 1318 -128 1446 -116 1626 -84 
L 1626 364 
C 1555 345 1472 339 1370 339 
C 1139 339 1075 402 1075 634 
L 1075 2892 
L 1626 2892 
L 1626 3328 
z
" transform="scale(0.015625)"/>
       <path id="NimbusSanL-Regu-65" d="M 3283 1484 
C 3283 1998 3245 2311 3149 2565 
C 2931 3123 2419 3456 1792 3456 
C 858 3456 256 2734 256 1619 
C 256 545 838 -128 1779 -128 
C 2547 -128 3078 307 3213 1018 
L 2675 1018 
C 2528 588 2227 364 1798 364 
C 1459 364 1171 514 992 787 
C 864 974 819 1161 813 1484 
L 3283 1484 
z
M 826 1920 
C 870 2552 1248 2963 1786 2963 
C 2310 2963 2714 2519 2714 1959 
C 2714 1946 2714 1933 2707 1920 
L 826 1920 
z
" transform="scale(0.015625)"/>
       <path id="NimbusSanL-Regu-72" d="M 442 3328 
L 442 0 
L 979 0 
L 979 1727 
C 979 2203 1101 2514 1357 2698 
C 1523 2819 1683 2857 2054 2863 
L 2054 3404 
C 1965 3449 1920 3456 1850 3456 
C 1504 3456 1242 3251 934 2750 
L 934 3328 
L 442 3328 
z
" transform="scale(0.015625)"/>
       <path id="NimbusSanL-Regu-61" d="M 3424 332 
C 3366 320 3341 320 3309 320 
C 3123 320 3021 415 3021 581 
L 3021 2542 
C 3021 3135 2586 3456 1760 3456 
C 1274 3456 870 3315 646 3065 
C 493 2893 429 2702 416 2370 
L 954 2370 
C 998 2778 1242 2963 1741 2963 
C 2221 2963 2490 2784 2490 2466 
L 2490 2326 
C 2490 2103 2355 2007 1933 1956 
C 1178 1861 1062 1835 858 1753 
C 467 1593 269 1294 269 861 
C 269 256 691 -128 1370 -128 
C 1792 -128 2131 19 2509 364 
C 2547 25 2714 -128 3059 -128 
C 3168 -128 3251 -116 3424 -71 
L 3424 332 
z
M 2490 1071 
C 2490 893 2438 785 2278 638 
C 2061 441 1798 339 1485 339 
C 1069 339 826 536 826 874 
C 826 1224 1062 1402 1632 1485 
C 2195 1562 2310 1587 2490 1670 
L 2490 1071 
z
" transform="scale(0.015625)"/>
       <path id="NimbusSanL-Regu-69" d="M 960 3358 
L 429 3358 
L 429 0 
L 960 0 
L 960 3358 
z
M 960 4672 
L 422 4672 
L 422 3999 
L 960 3999 
L 960 4672 
z
" transform="scale(0.015625)"/>
       <path id="NimbusSanL-Regu-6f" d="M 1741 3456 
C 800 3456 230 2784 230 1663 
C 230 543 794 -128 1747 -128 
C 2688 -128 3264 543 3264 1638 
C 3264 2791 2707 3456 1741 3456 
z
M 1747 2963 
C 2349 2963 2707 2472 2707 1644 
C 2707 861 2336 364 1747 364 
C 1152 364 787 855 787 1663 
C 787 2466 1152 2963 1747 2963 
z
" transform="scale(0.015625)"/>
       <path id="NimbusSanL-Regu-6e" d="M 448 3328 
L 448 0 
L 986 0 
L 986 1835 
C 986 2539 1344 2988 1894 2988 
C 2317 2988 2586 2732 2586 2328 
L 2586 0 
L 3117 0 
L 3117 2539 
C 3117 3097 2701 3456 2054 3456 
C 1555 3456 1235 3263 941 2796 
L 941 3328 
L 448 3328 
z
" transform="scale(0.015625)"/>
      </defs>
      <use xlink:href="#NimbusSanL-Regu-49" transform="scale(0.996264)"/>
      <use xlink:href="#NimbusSanL-Regu-74" transform="translate(27.69517 0) scale(0.996264)"/>
      <use xlink:href="#NimbusSanL-Regu-65" transform="translate(55.390339 0) scale(0.996264)"/>
      <use xlink:href="#NimbusSanL-Regu-72" transform="translate(110.782016 0) scale(0.996264)"/>
      <use xlink:href="#NimbusSanL-Regu-61" transform="translate(142.961149 0) scale(0.996264)"/>
      <use xlink:href="#NimbusSanL-Regu-74" transform="translate(198.352826 0) scale(0.996264)"/>
      <use xlink:href="#NimbusSanL-Regu-69" transform="translate(226.047996 0) scale(0.996264)"/>
      <use xlink:href="#NimbusSanL-Regu-6f" transform="translate(248.16478 0) scale(0.996264)"/>
      <use xlink:href="#NimbusSanL-Regu-6e" transform="translate(303.556457 0) scale(0.996264)"/>
     </g>
    </g>
   </g>
   <g id="matplotlib.axis_2">
    <g id="ytick_1">
     <g id="line2d_9">
      <defs>
       <path id="m97e250ec0c" d="M 0 0 
L -3.5 0 
" style="stroke: #000000; stroke-width: 0.8"/>
      </defs>
      <g>
       <use xlink:href="#m97e250ec0c" x="37.567344" y="221.277768" style="stroke: #000000; stroke-width: 0.8"/>
      </g>
     </g>
     <g id="text_10">
      <!-- $\mathdefault{0}$ -->
      <g transform="translate(25.586009 224.826928) scale(0.1 -0.1)">
       <use xlink:href="#CMR17-30" transform="scale(0.996264)"/>
      </g>
     </g>
    </g>
    <g id="ytick_2">
     <g id="line2d_10">
      <g>
       <use xlink:href="#m97e250ec0c" x="37.567344" y="186.189667" style="stroke: #000000; stroke-width: 0.8"/>
      </g>
     </g>
     <g id="text_11">
      <!-- $\mathdefault{5}$ -->
      <g transform="translate(25.586009 189.738827) scale(0.1 -0.1)">
       <use xlink:href="#CMR17-35" transform="scale(0.996264)"/>
      </g>
     </g>
    </g>
    <g id="ytick_3">
     <g id="line2d_11">
      <g>
       <use xlink:href="#m97e250ec0c" x="37.567344" y="151.101566" style="stroke: #000000; stroke-width: 0.8"/>
      </g>
     </g>
     <g id="text_12">
      <!-- $\mathdefault{10}$ -->
      <g transform="translate(20.604674 154.650726) scale(0.1 -0.1)">
       <use xlink:href="#CMR17-31" transform="scale(0.996264)"/>
       <use xlink:href="#CMR17-30" transform="translate(45.690477 0) scale(0.996264)"/>
      </g>
     </g>
    </g>
    <g id="ytick_4">
     <g id="line2d_12">
      <g>
       <use xlink:href="#m97e250ec0c" x="37.567344" y="116.013464" style="stroke: #000000; stroke-width: 0.8"/>
      </g>
     </g>
     <g id="text_13">
      <!-- $\mathdefault{15}$ -->
      <g transform="translate(20.604674 119.562624) scale(0.1 -0.1)">
       <use xlink:href="#CMR17-31" transform="scale(0.996264)"/>
       <use xlink:href="#CMR17-35" transform="translate(45.690477 0) scale(0.996264)"/>
      </g>
     </g>
    </g>
    <g id="ytick_5">
     <g id="line2d_13">
      <g>
       <use xlink:href="#m97e250ec0c" x="37.567344" y="80.925363" style="stroke: #000000; stroke-width: 0.8"/>
      </g>
     </g>
     <g id="text_14">
      <!-- $\mathdefault{20}$ -->
      <g transform="translate(20.604674 84.474523) scale(0.1 -0.1)">
       <use xlink:href="#CMR17-32" transform="scale(0.996264)"/>
       <use xlink:href="#CMR17-30" transform="translate(45.690477 0) scale(0.996264)"/>
      </g>
     </g>
    </g>
    <g id="ytick_6">
     <g id="line2d_14">
      <g>
       <use xlink:href="#m97e250ec0c" x="37.567344" y="45.837261" style="stroke: #000000; stroke-width: 0.8"/>
      </g>
     </g>
     <g id="text_15">
      <!-- $\mathdefault{25}$ -->
      <g transform="translate(20.604674 49.386422) scale(0.1 -0.1)">
       <use xlink:href="#CMR17-32" transform="scale(0.996264)"/>
       <use xlink:href="#CMR17-35" transform="translate(45.690477 0) scale(0.996264)"/>
      </g>
     </g>
    </g>
    <g id="ytick_7">
     <g id="line2d_15">
      <g>
       <use xlink:href="#m97e250ec0c" x="37.567344" y="10.74916" style="stroke: #000000; stroke-width: 0.8"/>
      </g>
     </g>
     <g id="text_16">
      <!-- $\mathdefault{30}$ -->
      <g transform="translate(20.604674 14.29832) scale(0.1 -0.1)">
       <use xlink:href="#CMR17-33" transform="scale(0.996264)"/>
       <use xlink:href="#CMR17-30" transform="translate(45.690477 0) scale(0.996264)"/>
      </g>
     </g>
    </g>
    <g id="text_17">
     <!-- Average CFL - Blade_1 -->
     <g transform="translate(14.482687 170.475326) rotate(-90) scale(0.1 -0.1)">
      <defs>
       <path id="NimbusSanL-Regu-41" d="M 3034 1408 
L 3514 0 
L 4179 0 
L 2541 4672 
L 1773 4672 
L 109 0 
L 742 0 
L 1235 1408 
L 3034 1408 
z
M 2867 1907 
L 1382 1907 
L 2150 4032 
L 2867 1907 
z
" transform="scale(0.015625)"/>
       <path id="NimbusSanL-Regu-76" d="M 1824 0 
L 3110 3328 
L 2509 3328 
L 1562 629 
L 666 3328 
L 64 3328 
L 1242 0 
L 1824 0 
z
" transform="scale(0.015625)"/>
       <path id="NimbusSanL-Regu-67" d="M 2637 3359 
L 2637 2873 
C 2368 3270 2042 3456 1613 3456 
C 762 3456 186 2714 186 1632 
C 186 1084 333 638 608 320 
C 858 38 1216 -128 1568 -128 
C 1990 -128 2285 51 2586 473 
L 2586 300 
C 2586 -155 2528 -441 2394 -634 
C 2253 -841 1978 -960 1651 -960 
C 1408 -960 1190 -894 1043 -774 
C 922 -674 870 -581 838 -375 
L 294 -375 
C 352 -1031 845 -1408 1632 -1408 
C 2131 -1408 2560 -1248 2778 -980 
C 3034 -661 3130 -222 3130 568 
L 3130 3359 
L 2637 3359 
z
M 1670 2963 
C 2246 2963 2586 2479 2586 1644 
C 2586 848 2240 364 1677 364 
C 1094 364 742 855 742 1663 
C 742 2466 1101 2963 1670 2963 
z
" transform="scale(0.015625)"/>
       <path id="NimbusSanL-Regu-43" d="M 4237 3219 
C 4051 4236 3462 4736 2438 4736 
C 1811 4736 1306 4537 960 4154 
C 538 3696 307 3035 307 2284 
C 307 1522 544 867 986 415 
C 1344 44 1805 -128 2413 -128 
C 3552 -128 4192 485 4333 1712 
L 3718 1712 
C 3667 1394 3603 1178 3507 994 
C 3315 612 2918 396 2419 396 
C 1491 396 902 1134 902 2291 
C 902 3480 1466 4211 2368 4211 
C 2746 4211 3098 4096 3290 3918 
C 3462 3759 3558 3562 3629 3219 
L 4237 3219 
z
" transform="scale(0.015625)"/>
       <path id="NimbusSanL-Regu-46" d="M 1171 2112 
L 3398 2112 
L 3398 2636 
L 1171 2636 
L 1171 4147 
L 3706 4147 
L 3706 4672 
L 576 4672 
L 576 0 
L 1171 0 
L 1171 2112 
z
" transform="scale(0.015625)"/>
       <path id="NimbusSanL-Regu-4c" d="M 1107 4672 
L 512 4672 
L 512 0 
L 3411 0 
L 3411 524 
L 1107 524 
L 1107 4672 
z
" transform="scale(0.015625)"/>
       <path id="NimbusSanL-Regu-2d" d="M 1818 1996 
L 294 1996 
L 294 1536 
L 1818 1536 
L 1818 1996 
z
" transform="scale(0.015625)"/>
       <path id="NimbusSanL-Regu-42" d="M 506 0 
L 2611 0 
C 3053 0 3379 121 3629 390 
C 3859 632 3987 961 3987 1321 
C 3987 1878 3731 2214 3136 2444 
C 3558 2643 3782 2994 3782 3476 
C 3782 3821 3654 4127 3411 4345 
C 3168 4569 2848 4672 2400 4672 
L 506 4672 
L 506 0 
z
M 1101 2636 
L 1101 4147 
L 2253 4147 
C 2586 4147 2771 4101 2931 3977 
C 3098 3847 3187 3652 3187 3391 
C 3187 3138 3098 2936 2931 2806 
C 2771 2682 2586 2636 2253 2636 
L 1101 2636 
z
M 1101 524 
L 1101 2112 
L 2554 2112 
C 2842 2112 3034 2042 3174 1890 
C 3315 1745 3392 1542 3392 1315 
C 3392 1093 3315 891 3174 746 
C 3034 594 2842 524 2554 524 
L 1101 524 
z
" transform="scale(0.015625)"/>
       <path id="NimbusSanL-Regu-6c" d="M 973 4672 
L 435 4672 
L 435 0 
L 973 0 
L 973 4672 
z
" transform="scale(0.015625)"/>
       <path id="NimbusSanL-Regu-64" d="M 3168 4672 
L 2637 4672 
L 2637 2937 
C 2413 3276 2054 3456 1606 3456 
C 736 3456 166 2759 166 1695 
C 166 568 723 -128 1626 -128 
C 2086 -128 2406 44 2694 460 
L 2694 19 
L 3168 19 
L 3168 4672 
z
M 1696 2956 
C 2272 2956 2637 2447 2637 1651 
C 2637 880 2266 371 1702 371 
C 1114 371 723 887 723 1663 
C 723 2440 1114 2956 1696 2956 
z
" transform="scale(0.015625)"/>
       <path id="NimbusSanL-Regu-31" d="M 1658 3232 
L 1658 0 
L 2221 0 
L 2221 4537 
L 1850 4537 
C 1651 3840 1523 3744 653 3635 
L 653 3232 
L 1658 3232 
z
" transform="scale(0.015625)"/>
      </defs>
      <use xlink:href="#NimbusSanL-Regu-41" transform="scale(0.996264)"/>
      <use xlink:href="#NimbusSanL-Regu-76" transform="translate(62.465918 0) scale(0.996264)"/>
      <use xlink:href="#NimbusSanL-Regu-65" transform="translate(109.788488 0) scale(0.996264)"/>
      <use xlink:href="#NimbusSanL-Regu-72" transform="translate(165.180165 0) scale(0.996264)"/>
      <use xlink:href="#NimbusSanL-Regu-61" transform="translate(197.359298 0) scale(0.996264)"/>
      <use xlink:href="#NimbusSanL-Regu-67" transform="translate(252.750975 0) scale(0.996264)"/>
      <use xlink:href="#NimbusSanL-Regu-65" transform="translate(308.142652 0) scale(0.996264)"/>
      <use xlink:href="#NimbusSanL-Regu-43" transform="translate(391.229499 0) scale(0.996264)"/>
      <use xlink:href="#NimbusSanL-Regu-46" transform="translate(463.159484 0) scale(0.996264)"/>
      <use xlink:href="#NimbusSanL-Regu-4c" transform="translate(524.031114 0) scale(0.996264)"/>
      <use xlink:href="#NimbusSanL-Regu-2d" transform="translate(607.117961 0) scale(0.996264)"/>
      <use xlink:href="#NimbusSanL-Regu-42" transform="translate(667.98836 0) scale(0.996264)"/>
      <use xlink:href="#NimbusSanL-Regu-6c" transform="translate(734.438391 0) scale(0.996264)"/>
      <use xlink:href="#NimbusSanL-Regu-61" transform="translate(756.555176 0) scale(0.996264)"/>
      <use xlink:href="#NimbusSanL-Regu-64" transform="translate(811.946853 0) scale(0.996264)"/>
      <use xlink:href="#NimbusSanL-Regu-65" transform="translate(867.33853 0) scale(0.996264)"/>
      <use xlink:href="#NimbusSanL-Regu-31" transform="translate(958.595772 0) scale(0.996264)"/>
      <path d="M 928.707548 0 
L 958.595772 0 
L 958.595772 0.3985 
L 928.707548 0.3985 
L 928.707548 0 
z
"/>
     </g>
    </g>
   </g>
   <g id="line2d_16">
    <path d="M 52.785526 120.861599 
L 52.875815 77.837674 
L 52.920959 206.933759 
L 53.011248 200.622395 
L 53.23697 169.880589 
L 53.417548 114.700578 
L 53.462692 210.620049 
L 53.552981 205.930653 
L 53.778703 183.089234 
L 54.004425 126.281231 
L 54.04957 211.778115 
L 54.139859 207.598267 
L 54.365581 187.238792 
L 54.591303 136.577902 
L 54.636447 212.807782 
L 54.726736 209.080987 
L 54.952458 190.928275 
L 55.17818 145.780342 
L 55.223325 130.745345 
L 55.268469 212.224526 
L 55.358758 208.241099 
L 55.58448 188.838364 
L 55.810202 140.613237 
L 55.855346 213.211315 
L 55.945635 209.662076 
L 56.171357 192.374208 
L 56.397079 149.363238 
L 56.442224 134.989733 
L 56.487368 212.648965 
L 56.577657 208.852291 
L 56.803379 190.359205 
L 57.029101 144.342489 
L 57.074245 213.58424 
L 57.164534 210.199088 
L 57.390256 193.710467 
L 57.615978 152.6815 
L 57.661123 138.962247 
L 57.706267 213.046216 
L 57.796556 209.424333 
L 58.022278 191.782629 
L 58.248 147.884422 
L 58.293145 213.938434 
L 58.383433 210.709126 
L 58.609156 194.979605 
L 58.834878 155.839524 
L 58.880022 142.751875 
L 58.925166 213.425179 
L 59.015455 209.97004 
L 59.241177 193.140521 
L 59.466899 151.263293 
L 59.512044 214.276321 
L 59.602333 211.195684 
L 59.828055 196.190316 
L 60.053777 158.852159 
L 60.098921 146.367037 
L 60.144066 213.786695 
L 60.234354 210.490623 
L 60.460077 194.435899 
L 60.685799 154.486608 
L 60.730943 141.128376 
L 60.776087 213.262829 
L 60.866376 209.736256 
L 61.092098 192.558792 
L 61.31782 149.815765 
L 61.362965 214.131568 
L 61.453254 210.98724 
L 61.678976 195.67164 
L 61.904698 157.561528 
L 61.949842 214.906144 
L 62.040131 212.10263 
L 62.265853 198.447087 
L 62.491575 164.467729 
L 62.53672 215.596764 
L 62.627008 213.097123 
L 62.85273 200.921704 
L 63.078452 170.625366 
L 63.123597 160.494886 
L 63.168741 215.19948 
L 63.25903 212.525033 
L 63.484752 199.498163 
L 63.710474 167.08314 
L 63.800763 143.237503 
L 63.845908 213.473742 
L 63.936196 210.03997 
L 64.161918 193.31453 
L 64.38764 151.696284 
L 64.523074 101.040964 
L 64.568218 209.254088 
L 64.658507 203.963668 
L 64.884229 178.194747 
L 65.245384 114.073425 
L 65.290529 210.557334 
L 65.380818 205.840343 
L 65.60654 182.864514 
L 65.832262 125.693299 
L 65.877406 106.576406 
L 65.922551 209.807632 
L 66.012839 204.760772 
L 66.238561 180.178196 
L 66.464284 119.008881 
L 66.599717 44.557131 
L 66.644861 203.605705 
L 66.73515 195.829997 
L 66.960872 157.955569 
L 67.186594 63.711873 
L 67.231739 205.521179 
L 67.322027 198.588279 
L 67.547749 164.819059 
L 67.773472 80.790434 
L 67.908905 18.976006 
L 67.954049 201.047592 
L 68.044338 192.146314 
L 68.27006 148.789389 
L 68.586071 70.965866 
L 68.631215 206.246578 
L 68.721504 199.632854 
L 68.947226 167.418296 
L 69.172948 87.258166 
L 69.218093 207.875808 
L 69.308382 201.978946 
L 69.534104 173.256122 
L 69.759826 101.784545 
L 69.80497 209.328446 
L 69.895259 204.070744 
L 70.120981 178.461186 
L 70.346703 114.73641 
L 70.391847 93.428138 
L 70.436992 208.492805 
L 70.527281 202.867421 
L 70.753003 175.466934 
L 70.978725 107.285754 
L 71.023869 84.487351 
L 71.069014 207.598726 
L 71.159303 201.579948 
L 71.385025 172.263289 
L 71.610747 99.314058 
L 71.701035 45.650026 
L 71.74618 203.714994 
L 71.836469 195.987373 
L 72.062191 158.347173 
L 72.333057 64.686309 
L 72.378202 33.368017 
L 72.423346 202.486793 
L 72.513635 194.218764 
L 72.739357 153.946307 
L 72.965079 53.735546 
L 73.010223 20.227102 
L 73.055368 201.172702 
L 73.145657 192.326472 
L 73.371379 149.23768 
L 73.597101 42.018975 
L 73.642245 203.351889 
L 73.732534 195.464502 
L 73.958256 157.046102 
L 74.319411 29.483039 
L 74.364556 202.098295 
L 74.454845 193.659327 
L 74.680567 152.554249 
L 74.906289 50.271661 
L 74.951433 204.177158 
L 75.041722 196.652889 
L 75.267444 160.003188 
L 75.493166 68.807006 
L 75.538311 206.030692 
L 75.628599 199.321978 
L 75.854322 166.644737 
L 76.080044 85.333305 
L 76.125188 58.144412 
L 76.170332 204.964433 
L 76.260621 197.786565 
L 76.486343 162.824137 
L 76.712065 75.826429 
L 76.75721 206.732634 
L 76.847499 200.332775 
L 77.073221 169.159924 
L 77.298943 91.591893 
L 77.344087 65.654718 
L 77.389232 205.715463 
L 77.47952 198.868049 
L 77.705242 165.515216 
L 77.930965 82.522694 
L 77.976109 54.771679 
L 78.021253 204.627159 
L 78.111542 197.300891 
L 78.337264 161.615626 
L 78.69842 43.127566 
L 78.743564 203.462748 
L 78.833853 195.624139 
L 79.059575 157.44333 
L 79.285297 62.437258 
L 79.330441 205.393717 
L 79.42073 198.404735 
L 79.646452 164.362342 
L 79.872174 79.653974 
L 79.917319 51.329215 
L 79.962463 204.282913 
L 80.052752 196.805177 
L 80.278474 160.382129 
L 80.504196 69.749931 
L 80.549341 206.124985 
L 80.639629 199.45776 
L 80.865351 166.982605 
L 81.091074 86.174027 
L 81.136218 59.153279 
L 81.181362 205.065319 
L 81.271651 197.931842 
L 81.497373 163.185632 
L 81.723095 76.725945 
L 81.76824 206.822586 
L 81.858529 200.462306 
L 82.084251 169.482236 
L 82.309973 92.39391 
L 82.355117 66.617139 
L 82.400262 205.811705 
L 82.49055 199.006638 
L 82.716272 165.860068 
L 82.941994 83.380797 
L 82.987139 55.801403 
L 83.032283 204.730132 
L 83.122572 197.449172 
L 83.348294 161.984595 
L 83.574016 73.737379 
L 83.619161 44.229301 
L 83.664305 203.572922 
L 83.754594 195.782789 
L 83.980316 157.838102 
L 84.206038 63.419577 
L 84.251182 205.491949 
L 84.341471 198.546189 
L 84.567193 164.714324 
L 84.792915 80.529819 
L 84.83806 52.380229 
L 84.883204 204.388014 
L 84.973493 196.956523 
L 85.199215 160.758726 
L 85.424937 70.687026 
L 85.470082 40.568877 
L 85.515226 203.206879 
L 85.605515 195.255688 
L 85.831237 156.526505 
L 86.056959 60.155906 
L 86.102103 205.165582 
L 86.192392 198.07622 
L 86.418114 163.544892 
L 86.643836 77.619897 
L 86.688981 206.911981 
L 86.77927 200.591035 
L 87.004992 169.802556 
L 87.230714 93.190968 
L 87.275858 67.573607 
L 87.321003 205.907352 
L 87.411291 199.144369 
L 87.637013 166.202788 
L 87.862736 84.233595 
L 87.90788 56.82476 
L 87.953024 204.832467 
L 88.043313 197.596535 
L 88.269035 162.351282 
L 88.494757 74.649814 
L 88.539902 206.614973 
L 88.630191 200.163343 
L 88.855913 168.738321 
L 89.081635 90.542811 
L 89.126779 64.39582 
L 89.171924 205.589573 
L 89.262212 198.686768 
L 89.487934 165.06413 
L 89.713657 81.400247 
L 89.758801 53.424743 
L 89.803945 204.492466 
L 89.894234 197.106933 
L 90.119956 161.132995 
L 90.345678 71.618325 
L 90.390823 206.311824 
L 90.481112 199.726808 
L 90.706834 167.652084 
L 91.067989 61.152333 
L 91.113133 205.265225 
L 91.203422 198.219706 
L 91.429144 163.90193 
L 91.7903 49.954432 
L 91.835444 204.145435 
L 91.925733 196.607208 
L 92.151455 159.889519 
L 92.422321 68.524161 
L 92.467466 206.002408 
L 92.557755 199.281249 
L 92.783477 166.543389 
L 93.189776 85.081118 
L 93.596076 85.081118 
L 93.64122 57.841787 
L 93.686365 204.93417 
L 93.776654 197.742987 
L 94.002376 162.715701 
L 94.228098 75.556606 
L 94.273242 206.705652 
L 94.363531 200.293921 
L 94.589253 169.063241 
L 94.814975 91.351316 
L 94.86012 208.285123 
L 94.950408 202.568359 
L 95.176131 174.722771 
L 95.401853 105.434039 
L 95.446997 82.265293 
L 95.492141 207.376521 
L 95.58243 201.259972 
L 95.808152 171.467085 
L 96.169308 72.543865 
L 96.214452 206.404378 
L 96.304741 199.860086 
L 96.530463 167.983722 
L 96.756185 88.665126 
L 96.801329 208.016504 
L 96.891618 202.181548 
L 97.11734 173.760261 
L 97.343062 103.039004 
L 97.388207 79.391252 
L 97.433351 207.089117 
L 97.52364 200.84611 
L 97.749362 170.437264 
L 97.975084 94.770325 
L 98.020229 69.468836 
L 98.065373 206.096875 
L 98.155662 199.417282 
L 98.381384 166.881883 
L 98.607106 85.923399 
L 98.65225 207.742331 
L 98.742539 201.786739 
L 98.968261 172.777851 
L 99.193983 100.594453 
L 99.239128 76.45779 
L 99.284272 206.79577 
L 99.374561 200.423691 
L 99.600283 169.386152 
L 99.826005 92.154821 
L 99.87115 66.330232 
L 99.916294 205.783015 
L 100.006583 198.965323 
L 100.232305 165.757264 
L 100.458027 83.124988 
L 100.503171 207.46249 
L 100.59346 201.383768 
L 100.819182 171.775129 
L 101.090049 98.099362 
L 101.135193 73.463681 
L 101.180338 206.496359 
L 101.270626 199.99254 
L 101.496348 168.313308 
L 101.722071 89.485243 
L 101.767215 208.098516 
L 101.857504 202.299645 
L 102.083226 174.054124 
L 102.308948 103.770229 
L 102.354092 80.268721 
L 102.399237 207.176864 
L 102.489526 200.972465 
L 102.715248 170.751677 
L 102.94097 95.552685 
L 102.986114 70.407669 
L 103.031259 206.190758 
L 103.121547 199.552474 
L 103.347269 167.218284 
L 103.618136 86.760472 
L 103.66328 59.857013 
L 103.708425 205.135693 
L 103.798714 198.033179 
L 104.024436 163.437793 
L 104.250158 77.353401 
L 104.295302 206.885332 
L 104.385591 200.552659 
L 104.611313 169.707065 
L 105.017613 92.953357 
L 105.153046 92.953357 
L 105.19819 208.445327 
L 105.288479 202.799053 
L 105.514201 175.296812 
L 105.739923 106.862434 
L 105.785068 83.979367 
L 105.830212 207.547928 
L 105.920501 201.506799 
L 106.146223 172.081269 
L 106.371945 98.861135 
L 106.41709 74.377808 
L 106.462234 206.587772 
L 106.552523 200.124174 
L 106.778245 168.640857 
L 107.1394 64.104792 
L 107.184545 205.560471 
L 107.274833 198.64486 
L 107.500555 164.959849 
L 107.726278 81.140764 
L 107.771422 207.264068 
L 107.861711 201.09804 
L 108.087433 171.064146 
L 108.313155 96.330208 
L 108.358299 208.783012 
L 108.448588 203.28532 
L 108.67431 176.506798 
L 108.900032 109.873268 
L 108.945177 87.592368 
L 108.990321 207.909228 
L 109.08061 202.027071 
L 109.306332 173.375872 
L 109.577198 102.082523 
L 109.622343 78.243474 
L 109.667487 206.974339 
L 109.757776 200.68083 
L 109.983498 170.025994 
L 110.20922 93.746954 
L 110.254365 208.524687 
L 110.344654 202.913331 
L 110.570376 175.581172 
L 110.796098 107.570014 
L 110.841242 84.828463 
L 110.886386 207.632838 
L 110.976675 201.629068 
L 111.202397 172.385515 
L 111.563553 75.286283 
L 111.608697 206.67862 
L 111.698986 200.254994 
L 111.924708 168.966379 
L 112.15043 91.110293 
L 112.195574 208.261021 
L 112.285863 202.533652 
L 112.511585 174.636408 
L 112.737307 105.21914 
L 112.782452 82.007414 
L 112.827596 207.350733 
L 112.917885 201.222837 
L 113.143607 171.374682 
L 113.549907 97.102922 
L 113.595051 97.102922 
L 113.640196 208.860284 
L 113.730485 203.39659 
L 113.956207 176.783676 
L 114.181929 110.562228 
L 114.227073 88.41912 
L 114.272217 207.991903 
L 114.362506 202.146123 
L 114.588228 173.672112 
L 114.859095 102.819663 
L 114.904239 79.128041 
L 114.949384 207.062796 
L 115.039673 200.808208 
L 115.265395 170.342951 
L 115.491117 94.535644 
L 115.536261 208.603556 
L 115.62655 203.026902 
L 115.852272 175.863774 
L 116.077994 108.273217 
L 116.123138 85.672307 
L 116.168283 207.717222 
L 116.258572 201.750582 
L 116.484294 172.68788 
L 116.890593 100.370577 
L 117.658049 100.370577 
L 117.703193 209.187049 
L 117.793482 203.867133 
L 118.019204 177.954536 
L 118.244926 113.475702 
L 118.29007 91.915289 
L 118.335215 208.34152 
L 118.425504 202.649571 
L 118.651226 174.924853 
L 118.922092 105.936882 
L 118.967237 82.868705 
L 119.012381 207.436862 
L 119.10267 201.346863 
L 119.328392 171.683298 
L 119.554114 97.870857 
L 119.599258 208.937077 
L 119.689547 203.507173 
L 119.915269 177.058841 
L 120.140991 111.246926 
L 120.186136 89.240758 
L 120.23128 208.074067 
L 120.321569 202.264439 
L 120.547291 173.96652 
L 120.773013 103.552244 
L 120.818157 209.505216 
L 120.908446 204.325293 
L 121.134168 179.094584 
L 121.35989 116.312508 
L 121.405035 95.319456 
L 121.450179 208.681937 
L 121.540468 203.139771 
L 121.76619 176.144628 
L 122.037057 108.972072 
L 122.082201 86.510933 
L 122.127345 207.801085 
L 122.217634 201.871344 
L 122.443356 172.988374 
L 122.669078 101.118304 
L 122.714223 209.261822 
L 122.804512 203.974805 
L 123.030234 178.22246 
L 123.255956 114.142383 
L 123.3011 92.715306 
L 123.346245 208.421522 
L 123.436533 202.764774 
L 123.662256 175.211513 
L 123.887978 106.650185 
L 123.933122 209.81501 
L 124.023411 204.771396 
L 124.249133 180.204633 
L 124.474855 119.074664 
L 124.519999 98.634043 
L 124.565144 209.013396 
L 124.655433 203.617072 
L 124.881155 177.332304 
L 125.106877 111.927391 
L 125.152021 90.057315 
L 125.197166 208.155723 
L 125.287454 202.382023 
L 125.513176 174.259108 
L 125.738899 104.280294 
L 125.784043 209.578021 
L 125.874332 204.430132 
L 126.100054 179.355458 
L 126.325776 116.961645 
L 126.37092 96.098421 
L 126.416065 208.759833 
L 126.506354 203.251942 
L 126.732076 176.423745 
L 126.957798 109.666605 
L 127.002942 210.116652 
L 127.093231 205.205761 
L 127.318953 181.28547 
L 127.544675 121.764134 
L 127.58982 101.861407 
L 127.634964 209.336132 
L 127.725253 204.081812 
L 127.950975 178.488727 
L 128.31213 93.510375 
L 128.357275 208.501029 
L 128.447563 202.879264 
L 128.673285 175.496401 
L 128.899007 107.359077 
L 128.944152 209.885899 
L 129.034441 204.873477 
L 129.260163 180.458642 
L 129.485885 119.706719 
L 129.531029 99.392509 
L 129.576174 209.089242 
L 129.666463 203.726291 
L 129.892185 177.604076 
L 130.117907 112.603647 
L 130.163051 90.868823 
L 130.208195 208.236874 
L 130.298484 202.49888 
L 130.524206 174.549885 
L 130.749928 105.003842 
L 130.795073 209.650376 
L 130.885362 204.534323 
L 131.111084 179.614718 
L 131.336806 117.606768 
L 131.38195 96.872568 
L 131.427095 208.837248 
L 131.517383 203.363419 
L 131.743106 176.701136 
L 131.968828 110.356842 
L 132.013972 210.185676 
L 132.104261 205.305155 
L 132.329983 181.532795 
L 132.555705 122.379556 
L 132.600849 102.599914 
L 132.645994 209.409983 
L 132.736283 204.188157 
L 132.962005 178.753347 
L 133.232871 115.463401 
L 133.278016 94.300528 
L 133.32316 208.580044 
L 133.413449 202.993046 
L 133.639171 175.779527 
L 133.864893 108.063585 
L 133.910037 209.95635 
L 134.000326 204.974926 
L 134.226048 180.71108 
L 134.45177 120.334865 
L 134.496915 100.146285 
L 134.542059 209.16462 
L 134.632348 203.834835 
L 134.85807 177.874168 
L 135.083792 113.275721 
L 135.128937 91.675312 
L 135.174081 208.317523 
L 135.26437 202.615014 
L 135.490092 174.838865 
L 135.715814 105.722916 
L 135.760958 209.722283 
L 135.851247 204.63787 
L 136.076969 179.872375 
L 136.302691 118.247901 
L 136.347836 97.641928 
L 136.39298 208.914184 
L 136.483269 203.474207 
L 136.708991 176.976811 
L 137.070146 88.99582 
L 137.115291 208.049573 
L 137.20558 202.229168 
L 137.431302 173.878754 
L 137.657024 103.333854 
L 137.702168 209.483377 
L 137.792457 204.293845 
L 138.018179 179.016331 
L 138.108468 160.421299 
L 138.243901 220.576006 
L 138.424479 220.576006 
L 138.650201 219.53156 
L 138.875923 216.932643 
L 139.101645 210.465706 
L 139.327367 194.373896 
L 139.553089 154.332326 
L 139.688522 105.596044 
L 139.733667 209.709596 
L 139.823956 204.6196 
L 140.049678 179.826915 
L 140.2754 118.134781 
L 140.320544 97.506183 
L 140.365689 208.90061 
L 140.455977 203.45466 
L 140.681699 176.928172 
L 140.952566 110.92178 
L 140.99771 88.850582 
L 141.042855 208.03505 
L 141.133144 202.208253 
L 141.358866 173.826713 
L 141.584588 103.204359 
L 141.629732 209.470427 
L 141.720021 204.275197 
L 141.945743 178.969931 
L 142.171465 116.00233 
L 142.21661 94.947243 
L 142.261754 208.644716 
L 142.352043 203.086173 
L 142.577765 176.011257 
L 142.93892 86.11269 
L 142.984065 207.76126 
L 143.074353 201.813997 
L 143.300075 172.845677 
L 143.525797 100.763227 
L 143.570942 209.226314 
L 143.661231 203.923674 
L 143.886953 178.095229 
L 144.112675 113.825792 
L 144.157819 92.335397 
L 144.202964 208.383531 
L 144.293253 202.710067 
L 144.428686 220.576006 
L 145.015563 220.576006 
L 145.241285 219.53156 
L 145.467007 216.932643 
L 145.692729 210.465706 
L 145.918451 194.373896 
L 146.144173 154.332326 
L 146.41504 105.596044 
L 146.505329 105.596044 
L 146.550473 82.459699 
L 146.595618 207.395961 
L 146.685906 201.287966 
L 146.911629 171.536744 
L 147.137351 97.506183 
L 147.182495 208.90061 
L 147.272784 203.45466 
L 147.498506 176.928172 
L 147.724228 110.92178 
L 147.769372 88.850582 
L 147.814517 208.03505 
L 147.904806 202.208253 
L 148.130528 173.826713 
L 148.35625 103.204359 
L 148.401394 209.470427 
L 148.491683 204.275197 
L 148.717405 178.969931 
L 148.943127 116.00233 
L 148.988272 94.947243 
L 149.033416 208.644716 
L 149.123705 203.086173 
L 149.349427 176.011257 
L 149.575149 108.640203 
L 149.620293 86.11269 
L 149.665438 207.76126 
L 149.755727 201.813997 
L 149.981449 172.845677 
L 150.207171 100.763227 
L 150.252315 209.226314 
L 150.342604 203.923674 
L 150.568326 178.095229 
L 150.794048 113.825792 
L 150.839192 92.335397 
L 150.884337 208.383531 
L 150.974626 202.710067 
L 151.200348 175.075385 
L 151.561503 83.318192 
L 151.606648 207.481811 
L 151.696936 201.411589 
L 151.922658 171.844358 
L 152.14838 98.271625 
L 152.193525 208.977154 
L 152.283814 203.564884 
L 152.509536 177.202443 
L 152.735258 111.604255 
L 152.780402 89.669552 
L 152.825547 208.116947 
L 152.915836 202.326185 
L 153.141558 174.120165 
L 153.412424 103.934561 
L 153.457568 80.46592 
L 153.502713 207.196583 
L 153.593002 201.000862 
L 153.818724 170.822337 
L 154.044446 95.728509 
L 154.08959 208.722842 
L 154.179879 203.198675 
L 154.405601 176.291199 
L 154.631323 109.336788 
L 154.676468 86.948592 
L 154.721612 207.844851 
L 154.811901 201.934367 
L 155.037623 173.145196 
L 155.263345 101.508525 
L 155.308489 77.554677 
L 155.353634 206.905459 
L 155.443923 200.581643 
L 155.669645 169.779186 
L 155.895367 93.132816 
L 155.940511 208.463273 
L 156.0308 202.824895 
L 156.256522 175.361115 
L 156.662822 84.171377 
L 156.707966 207.567129 
L 156.798255 201.534448 
L 157.023977 172.150069 
L 157.249699 99.032332 
L 157.294844 209.053225 
L 157.385132 203.674425 
L 157.610855 177.475018 
L 157.836577 112.28251 
L 157.881721 90.483458 
L 157.926865 208.198337 
L 158.017154 202.443388 
L 158.242876 174.411802 
L 158.468598 104.660247 
L 158.513743 209.616016 
L 158.604032 204.484845 
L 158.829754 179.491602 
L 159.055476 117.300415 
L 159.10062 96.504944 
L 159.145765 208.800486 
L 159.236053 203.310482 
L 159.461775 176.56941 
L 159.687498 110.029065 
L 159.732642 87.779325 
L 159.777786 207.927924 
L 159.868075 202.053992 
L 160.093797 173.442862 
L 160.319519 102.249215 
L 160.364664 209.374913 
L 160.454953 204.137657 
L 160.680675 178.627686 
L 160.906397 115.150715 
L 160.951541 93.925304 
L 160.996686 208.542522 
L 161.086974 202.939013 
L 161.312696 175.645078 
L 161.673852 85.019284 
L 161.718996 207.65192 
L 161.809285 201.656547 
L 162.035007 172.45389 
L 162.260729 99.788335 
L 162.305874 209.128825 
L 162.396162 203.78329 
L 162.621884 177.745908 
L 162.847607 112.956569 
L 162.892751 91.29233 
L 162.937895 208.279224 
L 163.028184 202.559865 
L 163.253906 174.701635 
L 163.479628 105.381446 
L 163.524773 209.688136 
L 163.615062 204.588698 
L 163.840784 179.75002 
L 164.066506 117.943443 
L 164.11165 97.276578 
L 164.156795 208.877649 
L 164.247083 203.421597 
L 164.472805 176.8459 
L 164.698527 110.717061 
L 164.743672 88.60492 
L 164.788816 208.010483 
L 164.879105 202.172878 
L 165.104827 173.738688 
L 165.330549 102.985324 
L 165.375694 209.448524 
L 165.465982 204.243656 
L 165.691705 178.891447 
L 165.917427 115.807037 
L 165.962571 94.71289 
L 166.007715 208.62128 
L 166.098004 203.052426 
L 166.323726 175.927284 
L 166.684882 85.861949 
L 166.730026 207.736186 
L 166.820315 201.77789 
L 167.046037 172.755832 
L 167.271759 100.539663 
L 167.316903 209.203958 
L 167.407192 203.891481 
L 167.632914 178.015122 
L 167.858636 113.626461 
L 167.903781 92.096199 
L 167.948925 208.359611 
L 168.039214 202.675622 
L 168.264936 174.989677 
L 168.490658 106.098184 
L 168.535803 209.75981 
L 168.626091 204.691908 
L 168.851814 180.006841 
L 169.077536 118.582494 
L 169.12268 98.043439 
L 169.167824 208.954335 
L 169.258113 203.532025 
L 169.483835 177.12068 
L 169.709557 111.400802 
L 169.754702 89.425409 
L 169.799846 208.092532 
L 169.890135 202.291029 
L 170.115857 174.032684 
L 170.341579 103.716881 
L 170.386724 209.521679 
L 170.477012 204.349 
L 170.702734 179.153577 
L 170.928457 116.4593 
L 170.973601 95.495606 
L 171.018745 208.699552 
L 171.109034 203.165137 
L 171.334756 176.207745 
L 171.605623 109.129129 
L 171.650767 86.699401 
L 171.695912 207.819932 
L 171.7862 201.898483 
L 172.011922 173.055906 
L 172.237645 101.286344 
L 172.282789 209.278626 
L 172.373078 203.999003 
L 172.5988 178.282672 
L 172.824522 114.29221 
L 172.869666 92.895098 
L 172.914811 208.439501 
L 173.0051 202.790664 
L 173.230822 175.275936 
L 173.591977 83.917034 
L 173.637121 207.541695 
L 173.72741 201.497822 
L 173.953132 172.058934 
L 174.178854 98.805558 
L 174.223999 209.030547 
L 174.314288 203.64177 
L 174.54001 177.393761 
L 174.765732 112.080315 
L 174.810876 90.240825 
L 174.856021 208.174074 
L 174.946309 202.408448 
L 175.172031 174.324862 
L 175.397753 104.443913 
L 175.442898 209.594383 
L 175.533187 204.453693 
L 175.758909 179.414086 
L 175.984631 117.107529 
L 176.029775 96.273482 
L 176.07492 208.77734 
L 176.165209 203.277151 
L 176.390931 176.486472 
L 176.661797 109.822691 
L 176.706941 87.531675 
L 176.752086 207.903159 
L 176.842375 202.018331 
L 177.068097 173.354125 
L 177.293819 102.028408 
L 177.338963 209.352832 
L 177.429252 204.10586 
L 177.654974 178.548566 
L 177.880696 114.953841 
L 177.925841 93.689055 
L 177.970985 208.518897 
L 178.061274 202.904994 
L 178.286996 175.560426 
L 178.557862 107.51839 
L 178.603007 84.766515 
L 178.648151 207.626643 
L 178.73844 201.620148 
L 178.964162 172.363318 
L 179.189884 99.562963 
L 179.235029 209.106288 
L 179.325317 203.750836 
L 179.55104 177.665153 
L 179.776762 112.755626 
L 179.821906 91.051197 
L 179.86705 208.255111 
L 179.957339 202.525142 
L 180.183061 174.615233 
L 180.544217 81.944186 
L 180.589361 207.34441 
L 180.67965 201.213732 
L 180.905372 171.352026 
L 181.131094 97.046546 
L 181.176238 208.854646 
L 181.266527 203.388472 
L 181.492249 176.763475 
L 181.717971 110.511963 
L 181.763116 88.358802 
L 181.80826 207.985872 
L 181.898549 202.137437 
L 182.124271 173.650499 
L 182.349993 102.765883 
L 182.395138 209.42658 
L 182.485426 204.212057 
L 182.711148 178.812817 
L 182.936871 115.611381 
L 182.982015 94.478103 
L 183.027159 208.597802 
L 183.117448 203.018616 
L 183.34317 175.843156 
L 183.614037 108.221913 
L 183.659181 85.610742 
L 183.704326 207.711066 
L 183.794614 201.741716 
L 184.020336 172.66582 
L 184.246059 100.315685 
L 184.291203 209.18156 
L 184.381492 203.859228 
L 184.607214 177.934867 
L 184.832936 113.42676 
L 184.87808 91.856558 
L 184.923225 208.335647 
L 185.013514 202.641114 
L 185.239236 174.903809 
L 185.510102 105.884517 
L 185.555247 82.805867 
L 185.600391 207.430578 
L 185.69068 201.337814 
L 185.916402 171.660782 
L 186.142124 97.81483 
L 186.187268 208.931474 
L 186.277557 203.499105 
L 186.503279 177.038765 
L 186.729001 111.196973 
L 186.774146 89.180813 
L 186.81929 208.068073 
L 186.909579 202.255807 
L 187.135301 173.945041 
L 187.361023 103.498796 
L 187.406167 209.499871 
L 187.496456 204.317596 
L 187.722178 179.075433 
L 187.9479 116.264854 
L 187.993045 95.262271 
L 188.038189 208.676219 
L 188.128478 203.131537 
L 188.3542 176.124137 
L 188.579922 108.921085 
L 188.625067 86.449748 
L 188.670211 207.794966 
L 188.7605 201.862533 
L 188.986222 172.966451 
L 189.211944 101.063751 
L 189.257088 209.256367 
L 189.347377 203.96695 
L 189.573099 178.202913 
L 189.798821 114.093743 
L 189.843966 92.656938 
L 189.88911 208.415685 
L 189.979399 202.756369 
L 190.205121 175.190599 
L 190.475988 106.598144 
L 190.521132 83.66222 
L 190.566276 207.516213 
L 190.656565 201.461129 
L 190.882287 171.967629 
L 191.108009 98.578363 
L 191.153154 209.007828 
L 191.243443 203.609054 
L 191.469165 177.312353 
L 191.694887 111.877746 
L 191.740031 89.997741 
L 191.785176 208.149766 
L 191.875464 202.373444 
L 192.101187 174.237761 
L 192.372053 104.227178 
L 192.417197 80.817059 
L 192.462342 207.231697 
L 192.552631 201.051426 
L 192.778353 170.948157 
L 193.004075 96.041589 
L 193.049219 208.75415 
L 193.139508 203.243758 
L 193.36523 176.403381 
L 193.590952 109.615933 
L 193.636097 87.283566 
L 193.681241 207.878348 
L 193.77153 201.982603 
L 193.997252 173.265223 
L 194.222974 101.807192 
L 194.268118 209.330711 
L 194.358407 204.074005 
L 194.584129 178.469301 
L 194.809851 114.756602 
L 194.854996 93.452369 
L 194.90014 208.495228 
L 194.990429 202.870911 
L 195.216151 175.475617 
L 195.487018 107.307358 
L 195.532162 84.513276 
L 195.577306 207.601319 
L 195.667595 201.583681 
L 195.893317 172.272578 
L 196.119039 99.337173 
L 196.164184 209.083709 
L 196.254473 203.718323 
L 196.480195 177.584248 
L 196.705917 112.554309 
L 196.751061 90.809617 
L 196.796206 208.230953 
L 196.886494 202.490354 
L 197.112216 174.528671 
L 197.383083 104.951054 
L 197.428227 81.685711 
L 197.473372 207.318563 
L 197.563661 201.176512 
L 197.789383 171.25941 
L 198.015105 96.816088 
L 198.060249 208.8316 
L 198.150538 203.355286 
L 198.37626 176.680898 
L 198.601982 110.306484 
L 198.647126 88.112227 
L 198.692271 207.961214 
L 198.78256 202.10193 
L 199.008282 173.562147 
L 199.369437 78.799687 
L 199.414582 207.02996 
L 199.50487 200.760925 
L 199.730592 170.225296 
L 199.956314 94.24288 
L 200.001459 208.574279 
L 200.091748 202.984744 
L 200.31747 175.758871 
L 200.543192 108.012186 
L 200.588336 85.35907 
L 200.633481 207.685898 
L 200.72377 201.705476 
L 200.949492 172.575641 
L 201.175214 100.091291 
L 201.220358 209.159121 
L 201.310647 203.826916 
L 201.536369 177.854462 
L 201.762091 113.226688 
L 201.807235 91.616472 
L 201.85238 208.311639 
L 201.942669 202.606542 
L 202.168391 174.817782 
L 202.439257 105.670454 
L 202.484402 82.548991 
L 202.529546 207.404891 
L 202.619835 201.300824 
L 202.845557 171.568739 
L 203.071279 97.585797 
L 203.116423 208.908571 
L 203.206712 203.466124 
L 203.432434 176.956699 
L 203.658156 110.992764 
L 203.703301 88.935764 
L 203.748445 208.043568 
L 203.838734 202.22052 
L 204.064456 173.857235 
L 204.335323 103.280308 
L 204.380467 79.680815 
L 204.425611 207.118073 
L 204.5159 200.887807 
L 204.741622 170.54102 
L 204.967344 95.028503 
L 205.012489 208.652842 
L 205.102778 203.097874 
L 205.3285 176.040374 
L 205.554222 108.712655 
L 205.599366 86.199632 
L 205.644511 207.769955 
L 205.734799 201.826517 
L 205.960521 172.87683 
L 206.321677 76.753341 
L 206.366821 206.825326 
L 206.45711 200.466251 
L 206.682832 169.492053 
L 206.908554 92.418337 
L 206.953699 208.391825 
L 207.043987 202.72201 
L 207.269709 175.105104 
L 207.495432 106.385405 
L 207.540576 83.406933 
L 207.58572 207.490685 
L 207.676009 201.424368 
L 207.901731 171.876155 
L 208.127453 98.350746 
L 208.172598 208.985066 
L 208.262887 203.576277 
L 208.488609 177.230794 
L 208.714331 111.674801 
L 208.759475 89.754207 
L 208.80462 208.125412 
L 208.894908 202.338375 
L 209.12063 174.150498 
L 209.391497 104.01004 
L 209.436641 80.556494 
L 209.481786 207.205641 
L 209.572075 201.013905 
L 209.797797 170.854792 
L 210.023519 95.809267 
L 210.068663 208.730918 
L 210.158952 203.210304 
L 210.384674 176.320136 
L 210.610396 109.408792 
L 210.65554 87.034997 
L 210.700685 207.853491 
L 210.790974 201.946809 
L 211.016696 173.176156 
L 211.377851 77.647124 
L 211.422996 206.914704 
L 211.513284 200.594955 
L 211.739006 169.812312 
L 211.964728 93.215243 
L 212.009873 208.471516 
L 212.100162 202.836765 
L 212.325884 175.39065 
L 212.551606 107.095935 
L 212.59675 84.259568 
L 212.641895 207.575948 
L 212.732184 201.547147 
L 212.957906 172.18167 
L 213.183628 99.110964 
L 213.228772 209.061088 
L 213.319061 203.685748 
L 213.544783 177.503194 
L 213.770505 112.352619 
L 213.815649 90.567589 
L 213.860794 208.20675 
L 213.951083 202.455502 
L 214.176805 174.441948 
L 214.447671 104.735259 
L 214.492816 81.426758 
L 214.53796 207.292667 
L 214.628249 201.139223 
L 214.853971 171.166623 
L 215.079693 96.585202 
L 215.124837 208.808512 
L 215.215126 203.322039 
L 215.440848 176.598167 
L 215.66657 110.100624 
L 215.711715 87.865195 
L 215.756859 207.936511 
L 215.847148 202.066358 
L 216.07287 173.473631 
L 216.343737 102.325778 
L 216.388881 78.53538 
L 216.434025 207.003529 
L 216.524314 200.722864 
L 216.750036 170.13059 
L 216.975758 94.007221 
L 217.020903 208.550714 
L 217.111192 202.950809 
L 217.336914 175.67443 
L 217.562636 107.80207 
L 217.60778 85.10693 
L 217.652925 207.660684 
L 217.743213 201.669168 
L 217.968935 172.485295 
L 218.194658 99.866481 
L 218.239802 209.13664 
L 218.330091 203.794543 
L 218.555813 177.773909 
L 218.781535 113.026245 
L 218.826679 91.375941 
L 218.871824 208.287585 
L 218.962113 202.571905 
L 219.187835 174.731595 
L 219.458701 105.455994 
L 219.503846 82.291639 
L 219.54899 207.379155 
L 219.639279 201.263766 
L 219.865001 171.476525 
L 220.090723 97.356339 
L 220.135867 208.885625 
L 220.226156 203.433082 
L 220.451878 176.87448 
L 220.6776 110.788178 
L 220.722745 88.690259 
L 220.767889 208.019017 
L 220.858178 202.185167 
L 221.0839 173.769267 
L 221.354767 103.061414 
L 221.399911 79.418143 
L 221.445055 207.091806 
L 221.535344 200.849982 
L 221.761066 170.4469 
L 221.986788 94.794301 
L 222.031933 208.629422 
L 222.122222 203.064149 
L 222.347944 175.956455 
L 222.573666 108.503838 
L 222.61881 85.949052 
L 222.663955 207.744897 
L 222.754243 201.790433 
L 222.979965 172.787043 
L 223.205687 100.617326 
L 223.250832 209.211724 
L 223.341121 203.902665 
L 223.566843 178.04295 
L 223.792565 113.695706 
L 223.837709 92.179293 
L 223.882854 208.367921 
L 223.973143 202.687588 
L 224.198865 175.019451 
L 224.469731 106.172271 
L 224.514875 83.151172 
L 224.56002 207.465109 
L 224.650309 201.387538 
L 224.876031 171.784511 
L 225.101753 98.122707 
L 225.146897 208.962262 
L 225.237186 203.543439 
L 225.462908 177.149083 
L 225.68863 111.471479 
L 225.733775 89.510221 
L 225.778919 208.101014 
L 225.869208 202.303241 
L 226.09493 174.063074 
L 226.365796 103.7925 
L 226.410941 80.295446 
L 226.456085 207.179536 
L 226.546374 200.976314 
L 226.772096 170.761253 
L 226.997818 95.576514 
L 227.042963 208.707643 
L 227.133251 203.176788 
L 227.358974 176.236736 
L 227.584696 109.201267 
L 227.62984 86.785967 
L 227.674984 207.828588 
L 227.765273 201.910949 
L 227.990995 173.086924 
L 228.216717 101.363527 
L 228.261862 209.286344 
L 228.352151 204.010117 
L 228.577873 178.310328 
L 228.803595 114.361026 
L 228.848739 92.977678 
L 228.893884 208.447759 
L 228.984172 202.802555 
L 229.209894 175.305526 
L 229.480761 106.884119 
L 229.525905 84.005389 
L 229.57105 207.55053 
L 229.661339 201.510546 
L 229.887061 172.090593 
L 230.112783 98.884336 
L 230.157927 209.038425 
L 230.248216 203.653114 
L 230.473938 177.421989 
L 230.69966 112.150555 
L 230.744805 90.325112 
L 230.789949 208.182503 
L 230.880238 202.420586 
L 231.10596 174.355064 
L 231.376826 104.519064 
L 231.421971 81.167324 
L 231.467115 207.266724 
L 231.557404 201.101864 
L 231.783126 171.073663 
L 232.008848 96.353889 
L 232.053993 208.78538 
L 232.144281 203.28873 
L 232.370003 176.515283 
L 232.595725 109.894382 
L 232.64087 87.617705 
L 232.686014 207.911762 
L 232.776303 202.030719 
L 233.002025 173.384951 
L 233.227747 102.105113 
L 233.272892 209.360503 
L 233.363181 204.116906 
L 233.588903 178.576051 
L 233.814625 115.022232 
L 233.859769 93.771125 
L 233.904913 208.527104 
L 233.995202 202.916812 
L 234.220924 175.589833 
L 234.491791 107.591564 
L 234.536935 84.854323 
L 234.58208 207.635424 
L 234.672369 201.632792 
L 234.898091 172.394781 
L 235.123813 99.641254 
L 235.168957 209.114117 
L 235.259246 203.76211 
L 235.484968 177.693206 
L 235.71069 112.825431 
L 235.755834 91.134963 
L 235.800979 208.263488 
L 235.891268 202.537204 
L 236.11699 174.645248 
L 236.387856 105.241136 
L 236.433001 82.033809 
L 236.478145 207.353372 
L 236.568434 201.226638 
L 236.794156 171.38414 
L 237.019878 97.126456 
L 237.065022 208.862637 
L 237.155311 203.399979 
L 237.381033 176.792108 
L 237.606755 110.583211 
L 237.6519 88.4443 
L 237.697044 207.994421 
L 237.787333 202.149749 
L 238.013055 173.681135 
L 238.238777 102.842113 
L 238.283922 209.434203 
L 238.37421 204.223034 
L 238.599933 178.840132 
L 238.825655 115.679349 
L 238.870799 94.559665 
L 238.915943 208.605958 
L 239.006232 203.030361 
L 239.231954 175.872381 
L 239.502821 108.294634 
L 239.547965 85.698008 
L 239.59311 207.719792 
L 239.683398 201.754283 
L 239.90912 172.697089 
L 240.134843 100.393492 
L 240.179987 209.189341 
L 240.270276 203.870432 
L 240.495998 177.962746 
L 240.72172 113.496133 
L 240.766864 91.939806 
L 240.812009 208.343972 
L 240.902298 202.653102 
L 241.12802 174.933638 
L 241.398886 105.958742 
L 241.444031 82.894937 
L 241.489175 207.439485 
L 241.579464 201.35064 
L 241.805186 171.692698 
L 242.030908 97.894246 
L 242.076052 208.939416 
L 242.166341 203.510541 
L 242.392063 177.067221 
L 242.617785 111.26778 
L 242.66293 89.265782 
L 242.708074 208.07657 
L 242.798363 202.268042 
L 243.024085 173.975487 
L 243.249807 103.574556 
L 243.294952 209.507447 
L 243.38524 204.328506 
L 243.610962 179.102579 
L 243.836684 116.332402 
L 243.881829 95.343328 
L 243.926973 208.684324 
L 244.017262 203.143209 
L 244.242984 176.153182 
L 244.513851 108.993357 
L 244.558995 86.536474 
L 244.60414 207.803639 
L 244.694428 201.875022 
L 244.92015 172.997526 
L 245.145872 101.141077 
L 245.191017 209.264099 
L 245.281306 203.978085 
L 245.507028 178.23062 
L 245.73275 114.162688 
L 245.777894 92.739672 
L 245.823039 208.423959 
L 245.913328 202.768282 
L 246.13905 175.220244 
L 246.409916 106.67191 
L 246.45506 83.750738 
L 246.500205 207.525065 
L 246.590494 201.473876 
L 246.816216 171.999347 
L 247.041938 98.657287 
L 247.087082 209.01572 
L 247.177371 203.620419 
L 247.403093 177.340633 
L 247.628815 111.948115 
L 247.67396 90.082185 
L 247.719104 208.15821 
L 247.809393 202.385604 
L 248.035115 174.268019 
L 248.260837 104.302468 
L 248.305981 209.580238 
L 248.39627 204.433325 
L 248.621992 179.363403 
L 248.847714 116.981416 
L 248.892859 96.122145 
L 248.938003 208.762206 
L 249.028292 203.255359 
L 249.254014 176.432246 
L 249.524881 109.687758 
L 249.570025 87.369756 
L 249.615169 207.886967 
L 249.705458 201.995014 
L 249.93118 173.296106 
L 250.156902 101.884039 
L 250.202047 209.338395 
L 250.292336 204.085071 
L 250.518058 178.496836 
L 250.74378 114.82512 
L 250.788924 93.53459 
L 250.834069 208.50345 
L 250.924357 202.882751 
L 251.150079 175.505078 
L 251.420946 107.380668 
L 251.46609 84.601248 
L 251.511235 207.610116 
L 251.601524 201.596349 
L 251.827246 172.3041 
L 252.052968 99.41561 
L 252.098112 209.091552 
L 252.188401 203.729617 
L 252.414123 177.612354 
L 252.639845 112.624243 
L 252.68499 90.893539 
L 252.730134 208.239345 
L 252.820423 202.502439 
L 253.046145 174.558741 
L 253.271867 105.025879 
L 253.317011 209.652579 
L 253.4073 204.537496 
L 253.633022 179.622615 
L 253.858744 117.626416 
L 253.903889 96.896146 
L 253.949033 208.839606 
L 254.039322 203.366815 
L 254.265044 176.709584 
L 254.53591 110.377865 
L 254.581055 88.197884 
L 254.626199 207.96978 
L 254.716488 202.114265 
L 254.94221 173.59284 
L 255.167932 102.622406 
L 255.213077 209.412232 
L 255.303366 204.191396 
L 255.529088 178.761407 
L 255.75481 115.483456 
L 255.799954 94.324593 
L 255.845098 208.582451 
L 255.935387 202.996511 
L 256.161109 175.78815 
L 256.522265 85.446497 
L 256.567409 207.694641 
L 256.657698 201.718065 
L 256.88342 172.606968 
L 257.109142 100.169242 
L 257.154286 209.166916 
L 257.244575 203.838141 
L 257.470297 177.882394 
L 257.696019 113.29619 
L 257.741164 91.699875 
L 257.786308 208.319979 
L 257.876597 202.618552 
L 258.102319 174.847666 
L 258.328041 105.744817 
L 258.373186 209.724473 
L 258.463474 204.641023 
L 258.689197 179.880223 
L 258.914919 118.267428 
L 258.960063 97.66536 
L 259.005207 208.916527 
L 259.095496 203.477581 
L 259.321218 176.985207 
L 259.592085 111.063703 
L 259.637229 89.02089 
L 259.682374 208.05208 
L 259.772662 202.232778 
L 259.998385 173.887738 
L 260.224107 103.356207 
L 260.269251 209.485612 
L 260.35954 204.297063 
L 260.585262 179.024341 
L 260.810984 116.13772 
L 260.856128 95.109711 
L 260.901273 208.660962 
L 260.991562 203.109568 
L 261.217284 176.069472 
L 261.443006 108.785061 
L 261.48815 210.028497 
L 261.578439 205.078818 
L 261.804161 180.969597 
L 262.029883 120.97814 
L 262.075028 100.918215 
L 262.120172 209.241813 
L 262.210461 203.945993 
L 262.436183 178.150764 
L 262.707049 113.963981 
L 262.752194 92.501224 
L 262.797338 208.400114 
L 262.887627 202.733946 
L 263.113349 175.134804 
L 263.339071 106.459308 
L 263.384216 209.795922 
L 263.474504 204.74391 
L 263.700226 180.136238 
L 263.925949 118.904476 
L 263.971093 98.429817 
L 264.016237 208.992973 
L 264.106526 203.587663 
L 264.332248 177.259126 
L 264.603115 111.745301 
L 264.648259 89.838807 
L 264.693404 208.133872 
L 264.783692 202.350558 
L 265.009414 174.180812 
L 265.235137 104.08547 
L 265.280281 209.558538 
L 265.37057 204.402077 
L 265.596292 179.285649 
L 265.822014 116.787938 
L 265.867158 95.889972 
L 265.912303 208.738989 
L 266.002592 203.221926 
L 266.228314 176.349054 
L 266.454036 109.48075 
L 266.49918 210.098066 
L 266.589469 205.178998 
L 266.815191 181.218875 
L 267.040913 121.598424 
L 267.086057 101.662555 
L 267.131202 209.316247 
L 267.221491 204.053178 
L 267.447213 178.417475 
L 267.718079 114.627642 
L 267.763224 93.297617 
L 267.808368 208.479753 
L 267.898657 202.848626 
L 268.124379 175.420166 
L 268.350101 107.16938 
L 268.395245 209.866929 
L 268.485534 204.84616 
L 268.711256 180.39067 
L 268.936978 119.537583 
L 268.982123 99.189546 
L 269.027267 209.068946 
L 269.117556 203.697064 
L 269.343278 177.531351 
L 269.569 112.422683 
L 269.614145 210.39226 
L 269.704433 205.602636 
L 269.930156 182.273023 
L 270.155878 124.221481 
L 270.201022 104.810223 
L 270.246166 209.631014 
L 270.336455 204.506442 
L 270.562177 179.545341 
L 270.787899 117.434135 
L 270.833044 96.665409 
L 270.878188 208.816532 
L 270.968477 203.333588 
L 271.194199 176.626907 
L 271.419921 110.172137 
L 271.465066 210.167205 
L 271.555354 205.278557 
L 271.781076 181.466612 
L 272.006799 122.214871 
L 272.051943 102.402292 
L 272.097087 209.390221 
L 272.187376 204.1597 
L 272.413098 178.682536 
L 272.683965 115.287199 
L 272.729109 94.089086 
L 272.774254 208.5589 
L 272.864542 202.962598 
L 273.090264 175.703764 
L 273.315987 107.875061 
L 273.361131 209.937498 
L 273.45142 204.947778 
L 273.677142 180.643528 
L 273.902864 120.166776 
L 273.948008 99.944577 
L 273.993153 209.144449 
L 274.083442 203.805789 
L 274.309164 177.801892 
L 274.534886 113.095876 
L 274.58003 210.459579 
L 274.670319 205.699576 
L 274.896041 182.51424 
L 275.121763 124.821707 
L 275.166908 105.530494 
L 275.212052 209.703041 
L 275.302341 204.610161 
L 275.528063 179.803427 
L 275.798929 118.076336 
L 275.844074 97.43605 
L 275.889218 208.893596 
L 275.979507 203.444561 
L 276.205229 176.903041 
L 276.430951 110.859248 
L 276.476095 210.235916 
L 276.566384 205.377501 
L 276.792106 181.712816 
L 277.017828 122.827507 
L 277.062973 103.137454 
L 277.108117 209.463737 
L 277.198406 204.265563 
L 277.424128 178.945958 
L 277.785283 94.875659 
L 277.830428 208.637557 
L 277.920717 203.075865 
L 278.146439 175.985607 
L 278.372161 108.576378 
L 278.417305 210.007629 
L 278.507594 205.048768 
L 278.733316 180.894823 
L 278.959038 120.792077 
L 279.004183 100.694939 
L 279.049327 209.219485 
L 279.139616 203.913841 
L 279.365338 178.07076 
L 279.59106 113.764906 
L 279.636204 210.526482 
L 279.726493 205.795916 
L 279.952215 182.753966 
L 280.177937 125.41822 
L 280.223082 106.246311 
L 280.268226 209.774622 
L 280.358515 204.713238 
L 280.584237 180.059917 
L 280.855104 118.714565 
L 280.900248 98.201925 
L 280.945392 208.970184 
L 281.035681 203.554847 
L 281.261403 177.177468 
L 281.487125 111.54211 
L 281.53227 210.304202 
L 281.622559 205.475833 
L 281.848281 181.957498 
L 282.074003 123.436353 
L 282.119147 103.86807 
L 282.164292 209.536798 
L 282.25458 204.370772 
L 282.480303 179.207751 
L 282.706025 116.594102 
L 282.751169 210.809402 
L 282.841458 206.20332 
L 283.06718 183.767718 
L 283.292902 127.94076 
L 283.338046 109.273358 
L 283.383191 210.077327 
L 283.47348 205.149133 
L 283.699202 181.144563 
L 283.924924 121.413511 
L 283.970068 101.44066 
L 284.015213 209.294057 
L 284.105501 204.021225 
L 284.331223 178.337966 
L 284.556946 114.429799 
L 284.60209 210.592971 
L 284.692379 205.891661 
L 284.918101 182.992209 
L 285.143823 126.011045 
L 285.188967 106.957701 
L 285.234112 209.845761 
L 285.324401 204.815678 
L 285.550123 180.314821 
L 285.820989 119.348848 
L 285.866134 98.963064 
L 285.911278 209.046298 
L 286.001567 203.664451 
L 286.227289 177.450198 
L 286.453011 112.220749 
L 286.498155 210.372066 
L 286.588444 205.573557 
L 286.814166 182.200666 
L 287.039888 124.041434 
L 287.085033 104.594167 
L 287.130177 209.609408 
L 287.220466 204.47533 
L 287.446188 179.467924 
L 287.807343 96.434244 
L 287.852488 208.793416 
L 287.942777 203.300301 
L 288.168499 176.544076 
L 288.394221 109.966028 
L 288.439365 210.146594 
L 288.529654 205.248878 
L 288.755376 181.392759 
L 288.981098 122.031102 
L 289.026242 102.181769 
L 289.071387 209.368168 
L 289.161676 204.127944 
L 289.387398 178.603518 
L 289.61312 115.090579 
L 289.658264 210.659049 
L 289.748553 205.986813 
L 289.974275 183.228978 
L 290.199997 126.600204 
L 290.245142 107.664691 
L 290.290286 209.91646 
L 290.380575 204.917485 
L 290.606297 180.568148 
L 290.877163 119.979207 
L 290.922308 99.719495 
L 290.967452 209.121941 
L 291.057741 203.773377 
L 291.283463 177.721241 
L 291.509185 112.895191 
L 291.55433 210.43951 
L 291.644618 205.670677 
L 291.870341 182.442331 
L 292.096063 124.642774 
L 292.141207 105.315775 
L 292.186351 209.681569 
L 292.27664 204.579241 
L 292.502362 179.726489 
L 292.863518 97.206314 
L 292.908662 208.870623 
L 292.998951 203.411479 
L 293.224673 176.820723 
L 293.450395 110.654414 
L 293.495539 210.215433 
L 293.585828 205.348005 
L 293.81155 181.63942 
L 294.037272 122.644874 
L 294.082417 102.918295 
L 294.127561 209.441821 
L 294.21785 204.234004 
L 294.443572 178.867429 
L 294.669294 115.747273 
L 294.714439 210.724719 
L 294.804727 206.081377 
L 295.030449 183.464284 
L 295.256172 127.185719 
L 295.301316 108.367309 
L 295.34646 209.986722 
L 295.436749 205.018662 
L 295.662471 180.819909 
L 295.888193 120.605668 
L 295.933338 100.471249 
L 295.978482 209.197116 
L 296.068771 203.881629 
L 296.294493 177.990608 
L 296.520215 113.565462 
L 296.56536 210.506538 
L 296.655648 205.767196 
L 296.88137 182.682501 
L 297.107093 125.240394 
L 297.152237 106.032919 
L 297.197381 209.753283 
L 297.28767 204.68251 
L 297.513392 179.983455 
L 297.784259 118.524303 
L 297.829403 97.97361 
L 297.874548 208.947352 
L 297.964836 203.521969 
L 298.190558 177.095659 
L 298.41628 111.338542 
L 298.461425 210.283846 
L 298.551714 205.44652 
L 298.777436 181.884556 
L 299.003158 123.25485 
L 299.048302 103.650266 
L 299.093447 209.515018 
L 299.183736 204.339408 
L 299.409458 179.129708 
L 299.815757 116.399906 
L 304.465632 116.399906 
L 304.510776 95.424334 
L 304.555921 208.692425 
L 304.64621 203.154874 
L 304.871932 176.182207 
L 305.097654 109.065582 
L 305.142798 210.05655 
L 305.233087 205.119213 
L 305.458809 181.070113 
L 305.684531 121.228256 
L 305.729675 101.218353 
L 305.77482 209.271827 
L 305.865109 203.989212 
L 306.090831 178.258309 
L 306.451986 92.822352 
L 306.497131 208.432227 
L 306.587419 202.780188 
L 306.813141 175.24987 
L 307.038863 106.745628 
L 307.084008 209.824554 
L 307.174297 204.78514 
L 307.400019 180.238832 
L 307.625741 119.159762 
L 307.670885 98.736161 
L 307.806319 219.807269 
L 307.941752 220.576006 
L 307.986896 220.435654 
L 308.032041 220.576006 
L 308.799496 220.576006 
L 309.025218 219.53156 
L 309.25094 216.932643 
L 309.476662 210.465706 
L 309.702384 194.373896 
L 309.928106 154.332326 
L 310.063539 105.596044 
L 310.108684 209.709596 
L 310.198972 204.6196 
L 310.424695 179.826915 
L 310.650417 118.134781 
L 310.695561 97.506183 
L 310.740705 208.90061 
L 310.830994 203.45466 
L 311.056716 176.928172 
L 311.282438 110.92178 
L 311.327583 210.242169 
L 311.417872 205.386506 
L 311.643594 181.735222 
L 311.869316 122.88326 
L 311.91446 103.204359 
L 311.959605 209.470427 
L 312.049893 204.275197 
L 312.275615 178.969931 
L 312.501338 116.00233 
L 312.546482 94.947243 
L 312.591626 208.644716 
L 312.681915 203.086173 
L 312.907637 176.011257 
L 313.133359 108.640203 
L 313.178504 210.014012 
L 313.268793 205.057959 
L 313.494515 180.917692 
L 313.720237 120.848983 
L 313.765381 100.763227 
L 313.810526 209.226314 
L 313.900814 203.923674 
L 313.991103 196.287873 
L 314.126536 220.576006 
L 314.397403 220.576006 
L 314.623125 219.53156 
L 314.848847 216.932643 
L 315.074569 210.465706 
L 315.300291 194.373896 
L 315.526013 154.332326 
L 315.661446 105.596044 
L 315.706591 209.709596 
L 315.79688 204.6196 
L 316.022602 179.826915 
L 316.248324 118.134781 
L 316.293468 97.506183 
L 316.338613 208.90061 
L 316.428902 203.45466 
L 316.654624 176.928172 
L 317.060923 110.92178 
L 322.794264 110.92178 
L 322.839408 88.850582 
L 322.884553 208.03505 
L 322.974841 202.208253 
L 323.200564 173.826713 
L 323.426286 103.204359 
L 323.47143 209.470427 
L 323.561719 204.275197 
L 323.787441 178.969931 
L 324.013163 116.00233 
L 324.058307 94.947243 
L 324.103452 208.644716 
L 324.193741 203.086173 
L 324.419463 176.011257 
L 324.780618 86.11269 
L 324.825762 207.76126 
L 324.916051 201.813997 
L 325.141773 172.845677 
L 325.367495 100.763227 
L 325.41264 209.226314 
L 325.502929 203.923674 
L 325.728651 178.095229 
L 325.954373 113.825792 
L 325.999517 92.335397 
L 326.044662 208.383531 
L 326.13495 202.710067 
L 326.360673 175.075385 
L 326.766972 106.311455 
L 327.263561 106.311455 
L 327.398994 219.898172 
L 327.444138 220.576006 
L 327.534427 220.267231 
L 327.760149 218.763228 
L 327.985871 215.020788 
L 328.211593 205.708398 
L 328.437316 182.536193 
L 328.663038 124.876331 
L 328.798471 105.596044 
L 329.836792 105.596044 
L 329.881937 82.459699 
L 329.927081 207.395961 
L 330.01737 201.287966 
L 330.243092 171.536744 
L 330.468814 97.506183 
L 330.513959 208.90061 
L 330.604247 203.45466 
L 330.829969 176.928172 
L 331.055692 110.92178 
L 331.100836 88.850582 
L 331.14598 208.03505 
L 331.236269 202.208253 
L 331.461991 173.826713 
L 331.687713 103.204359 
L 331.732858 209.470427 
L 331.823147 204.275197 
L 332.048869 178.969931 
L 332.274591 116.00233 
L 332.319735 94.947243 
L 332.36488 208.644716 
L 332.455168 203.086173 
L 332.68089 176.011257 
L 332.951757 108.640203 
L 332.996901 86.11269 
L 333.042046 207.76126 
L 333.132335 201.813997 
L 333.267768 187.644371 
L 333.403201 220.576006 
L 333.809501 220.576006 
L 334.035223 219.53156 
L 334.125512 218.763228 
L 334.260945 220.576006 
L 334.441523 220.576006 
L 334.667245 219.53156 
L 334.892967 216.932643 
L 335.118689 210.465706 
L 335.344411 194.373896 
L 335.570133 154.332326 
L 335.840999 105.596044 
L 336.292443 105.596044 
L 336.337588 209.709596 
L 336.427877 204.6196 
L 336.653599 179.826915 
L 336.879321 118.134781 
L 336.924465 97.506183 
L 336.96961 208.90061 
L 337.059899 203.45466 
L 337.285621 176.928172 
L 337.511343 110.92178 
L 337.556487 88.850582 
L 337.601631 208.03505 
L 337.69192 202.208253 
L 337.917642 173.826713 
L 338.143364 103.204359 
L 338.188509 209.470427 
L 338.278798 204.275197 
L 338.50452 178.969931 
L 338.730242 116.00233 
L 338.775386 94.947243 
L 338.820531 208.644716 
L 338.910819 203.086173 
L 339.136542 176.011257 
L 339.362264 108.640203 
L 339.407408 86.11269 
L 339.452552 207.76126 
L 339.542841 201.813997 
L 339.768563 172.845677 
L 339.994285 100.763227 
L 340.03943 209.226314 
L 340.129719 203.923674 
L 340.355441 178.095229 
L 340.581163 113.825792 
L 340.626307 92.335397 
L 340.671452 208.383531 
L 340.76174 202.710067 
L 340.987463 175.075385 
L 341.393762 106.311455 
L 357.149163 106.311455 
L 357.149163 106.311455 
" clip-path="url(#p4f056da141)" style="fill: none; stroke: #1f77b4; stroke-width: 1.5; stroke-linecap: square"/>
   </g>
   <g id="patch_3">
    <path d="M 37.567344 230.656006 
L 37.567344 8.896006 
" style="fill: none; stroke: #000000; stroke-width: 0.8; stroke-linejoin: miter; stroke-linecap: square"/>
   </g>
   <g id="patch_4">
    <path d="M 372.367344 230.656006 
L 372.367344 8.896006 
" style="fill: none; stroke: #000000; stroke-width: 0.8; stroke-linejoin: miter; stroke-linecap: square"/>
   </g>
   <g id="patch_5">
    <path d="M 37.567344 230.656006 
L 372.367344 230.656006 
" style="fill: none; stroke: #000000; stroke-width: 0.8; stroke-linejoin: miter; stroke-linecap: square"/>
   </g>
   <g id="patch_6">
    <path d="M 37.567344 8.896006 
L 372.367344 8.896006 
" style="fill: none; stroke: #000000; stroke-width: 0.8; stroke-linejoin: miter; stroke-linecap: square"/>
   </g>
   <g id="legend_1">
    <g id="patch_7">
     <path d="M 314.548024 31.116313 
L 365.367344 31.116313 
Q 367.367344 31.116313 367.367344 29.116313 
L 367.367344 15.896006 
Q 367.367344 13.896006 365.367344 13.896006 
L 314.548024 13.896006 
Q 312.548024 13.896006 312.548024 15.896006 
L 312.548024 29.116313 
Q 312.548024 31.116313 314.548024 31.116313 
z
" style="fill: #ffffff; opacity: 0.8; stroke: #cccccc; stroke-linejoin: miter"/>
    </g>
    <g id="line2d_17">
     <path d="M 316.548024 21.494326 
L 326.548024 21.494326 
L 336.548024 21.494326 
" style="fill: none; stroke: #1f77b4; stroke-width: 1.5; stroke-linecap: square"/>
    </g>
    <g id="text_18">
     <!-- CFL -->
     <g transform="translate(344.548024 24.994326) scale(0.1 -0.1)">
      <use xlink:href="#NimbusSanL-Regu-43" transform="scale(0.996264)"/>
      <use xlink:href="#NimbusSanL-Regu-46" transform="translate(71.929985 0) scale(0.996264)"/>
      <use xlink:href="#NimbusSanL-Regu-4c" transform="translate(132.801616 0) scale(0.996264)"/>
     </g>
    </g>
   </g>
  </g>
 </g>
 <defs>
  <clipPath id="p4f056da141">
   <rect x="37.567344" y="8.896006" width="334.8" height="221.76"/>
  </clipPath>
 </defs>
</svg>
