<?xml version="1.0" encoding="utf-8" standalone="no"?>
<!DOCTYPE svg PUBLIC "-//W3C//DTD SVG 1.1//EN"
  "http://www.w3.org/Graphics/SVG/1.1/DTD/svg11.dtd">
<svg xmlns:xlink="http://www.w3.org/1999/xlink" width="388.515425pt" height="265.600613pt" viewBox="0 0 388.515425 265.600613" xmlns="http://www.w3.org/2000/svg" version="1.1">
 <metadata>
  <rdf:RDF xmlns:dc="http://purl.org/dc/elements/1.1/" xmlns:cc="http://creativecommons.org/ns#" xmlns:rdf="http://www.w3.org/1999/02/22-rdf-syntax-ns#">
   <cc:Work>
    <dc:type rdf:resource="http://purl.org/dc/dcmitype/StillImage"/>
    <dc:date>2025-07-17T17:55:33.273945</dc:date>
    <dc:format>image/svg+xml</dc:format>
    <dc:creator>
     <cc:Agent>
      <dc:title>Matplotlib v3.10.3, https://matplotlib.org/</dc:title>
     </cc:Agent>
    </dc:creator>
   </cc:Work>
  </rdf:RDF>
 </metadata>
 <defs>
  <style type="text/css">*{stroke-linejoin: round; stroke-linecap: butt}</style>
 </defs>
 <g id="figure_1">
  <g id="patch_1">
   <path d="M 0 265.600613 
L 388.515425 265.600613 
L 388.515425 0 
L 0 0 
z
" style="fill: #ffffff"/>
  </g>
  <g id="axes_1">
   <g id="patch_2">
    <path d="M 40.150386 228.96 
L 374.950386 228.96 
L 374.950386 7.2 
L 40.150386 7.2 
z
" style="fill: #ffffff"/>
   </g>
   <g id="PathCollection_1">
    <defs>
     <path id="ma9626918d7" d="M 0 0.353553 
C 0.093763 0.353553 0.183699 0.316301 0.25 0.25 
C 0.316301 0.183699 0.353553 0.093763 0.353553 0 
C 0.353553 -0.093763 0.316301 -0.183699 0.25 -0.25 
C 0.183699 -0.316301 0.093763 -0.353553 0 -0.353553 
C -0.093763 -0.353553 -0.183699 -0.316301 -0.25 -0.25 
C -0.316301 -0.183699 -0.353553 -0.093763 -0.353553 0 
C -0.353553 0.093763 -0.316301 0.183699 -0.25 0.25 
C -0.183699 0.316301 -0.093763 0.353553 0 0.353553 
z
" style="stroke: #ff0000"/>
    </defs>
    <g clip-path="url(#pc1d9f0ab0a)">
     <use xlink:href="#ma9626918d7" x="40.150386" y="218.879726" style="fill: #ff0000; stroke: #ff0000"/>
     <use xlink:href="#ma9626918d7" x="41.244847" y="218.065791" style="fill: #ff0000; stroke: #ff0000"/>
     <use xlink:href="#ma9626918d7" x="42.539518" y="208.362113" style="fill: #ff0000; stroke: #ff0000"/>
     <use xlink:href="#ma9626918d7" x="44.15225" y="198.351977" style="fill: #ff0000; stroke: #ff0000"/>
     <use xlink:href="#ma9626918d7" x="46.086055" y="190.136221" style="fill: #ff0000; stroke: #ff0000"/>
     <use xlink:href="#ma9626918d7" x="48.312475" y="184.460314" style="fill: #ff0000; stroke: #ff0000"/>
     <use xlink:href="#ma9626918d7" x="50.866664" y="179.89494" style="fill: #ff0000; stroke: #ff0000"/>
     <use xlink:href="#ma9626918d7" x="53.850736" y="176.668506" style="fill: #ff0000; stroke: #ff0000"/>
     <use xlink:href="#ma9626918d7" x="57.440127" y="174.282845" style="fill: #ff0000; stroke: #ff0000"/>
     <use xlink:href="#ma9626918d7" x="61.837056" y="172.970745" style="fill: #ff0000; stroke: #ff0000"/>
     <use xlink:href="#ma9626918d7" x="66.708061" y="172.36851" style="fill: #ff0000; stroke: #ff0000"/>
     <use xlink:href="#ma9626918d7" x="71.323279" y="172.327977" style="fill: #ff0000; stroke: #ff0000"/>
     <use xlink:href="#ma9626918d7" x="75.584613" y="172.565968" style="fill: #ff0000; stroke: #ff0000"/>
     <use xlink:href="#ma9626918d7" x="79.585138" y="172.933773" style="fill: #ff0000; stroke: #ff0000"/>
     <use xlink:href="#ma9626918d7" x="83.407885" y="173.353886" style="fill: #ff0000; stroke: #ff0000"/>
     <use xlink:href="#ma9626918d7" x="87.104077" y="173.782215" style="fill: #ff0000; stroke: #ff0000"/>
     <use xlink:href="#ma9626918d7" x="90.709873" y="174.193838" style="fill: #ff0000; stroke: #ff0000"/>
     <use xlink:href="#ma9626918d7" x="94.249713" y="174.573966" style="fill: #ff0000; stroke: #ff0000"/>
     <use xlink:href="#ma9626918d7" x="97.741008" y="174.917396" style="fill: #ff0000; stroke: #ff0000"/>
     <use xlink:href="#ma9626918d7" x="101.195809" y="175.219472" style="fill: #ff0000; stroke: #ff0000"/>
     <use xlink:href="#ma9626918d7" x="104.625835" y="175.472252" style="fill: #ff0000; stroke: #ff0000"/>
     <use xlink:href="#ma9626918d7" x="108.037447" y="175.681213" style="fill: #ff0000; stroke: #ff0000"/>
     <use xlink:href="#ma9626918d7" x="111.436671" y="175.847177" style="fill: #ff0000; stroke: #ff0000"/>
     <use xlink:href="#ma9626918d7" x="114.826856" y="175.970417" style="fill: #ff0000; stroke: #ff0000"/>
     <use xlink:href="#ma9626918d7" x="118.214362" y="176.049017" style="fill: #ff0000; stroke: #ff0000"/>
     <use xlink:href="#ma9626918d7" x="121.600195" y="176.089276" style="fill: #ff0000; stroke: #ff0000"/>
     <use xlink:href="#ma9626918d7" x="124.988036" y="176.089823" style="fill: #ff0000; stroke: #ff0000"/>
     <use xlink:href="#ma9626918d7" x="128.381569" y="176.0471" style="fill: #ff0000; stroke: #ff0000"/>
     <use xlink:href="#ma9626918d7" x="131.782467" y="175.965214" style="fill: #ff0000; stroke: #ff0000"/>
     <use xlink:href="#ma9626918d7" x="135.193744" y="175.843616" style="fill: #ff0000; stroke: #ff0000"/>
     <use xlink:href="#ma9626918d7" x="138.618414" y="175.684773" style="fill: #ff0000; stroke: #ff0000"/>
     <use xlink:href="#ma9626918d7" x="142.058149" y="175.492244" style="fill: #ff0000; stroke: #ff0000"/>
     <use xlink:href="#ma9626918d7" x="145.515628" y="175.264386" style="fill: #ff0000; stroke: #ff0000"/>
     <use xlink:href="#ma9626918d7" x="148.990183" y="175.011059" style="fill: #ff0000; stroke: #ff0000"/>
     <use xlink:href="#ma9626918d7" x="152.48449" y="174.725415" style="fill: #ff0000; stroke: #ff0000"/>
     <use xlink:href="#ma9626918d7" x="155.998886" y="174.412932" style="fill: #ff0000; stroke: #ff0000"/>
     <use xlink:href="#ma9626918d7" x="159.53203" y="174.077992" style="fill: #ff0000; stroke: #ff0000"/>
     <use xlink:href="#ma9626918d7" x="163.083924" y="173.717856" style="fill: #ff0000; stroke: #ff0000"/>
     <use xlink:href="#ma9626918d7" x="166.65557" y="173.336084" style="fill: #ff0000; stroke: #ff0000"/>
     <use xlink:href="#ma9626918d7" x="170.244626" y="172.937607" style="fill: #ff0000; stroke: #ff0000"/>
     <use xlink:href="#ma9626918d7" x="173.851092" y="172.519411" style="fill: #ff0000; stroke: #ff0000"/>
     <use xlink:href="#ma9626918d7" x="177.471954" y="172.088069" style="fill: #ff0000; stroke: #ff0000"/>
     <use xlink:href="#ma9626918d7" x="181.107547" y="171.638653" style="fill: #ff0000; stroke: #ff0000"/>
     <use xlink:href="#ma9626918d7" x="184.756197" y="171.174447" style="fill: #ff0000; stroke: #ff0000"/>
     <use xlink:href="#ma9626918d7" x="188.417905" y="170.693261" style="fill: #ff0000; stroke: #ff0000"/>
     <use xlink:href="#ma9626918d7" x="192.089656" y="170.199752" style="fill: #ff0000; stroke: #ff0000"/>
     <use xlink:href="#ma9626918d7" x="195.772122" y="169.687072" style="fill: #ff0000; stroke: #ff0000"/>
     <use xlink:href="#ma9626918d7" x="199.464296" y="169.158233" style="fill: #ff0000; stroke: #ff0000"/>
     <use xlink:href="#ma9626918d7" x="203.165175" y="168.612689" style="fill: #ff0000; stroke: #ff0000"/>
     <use xlink:href="#ma9626918d7" x="206.875094" y="168.045235" style="fill: #ff0000; stroke: #ff0000"/>
     <use xlink:href="#ma9626918d7" x="210.593048" y="167.462171" style="fill: #ff0000; stroke: #ff0000"/>
     <use xlink:href="#ma9626918d7" x="214.318702" y="166.854459" style="fill: #ff0000; stroke: #ff0000"/>
     <use xlink:href="#ma9626918d7" x="218.054066" y="166.223194" style="fill: #ff0000; stroke: #ff0000"/>
     <use xlink:href="#ma9626918d7" x="221.798469" y="165.569472" style="fill: #ff0000; stroke: #ff0000"/>
     <use xlink:href="#ma9626918d7" x="225.551912" y="164.888363" style="fill: #ff0000; stroke: #ff0000"/>
     <use xlink:href="#ma9626918d7" x="229.317408" y="164.17795" style="fill: #ff0000; stroke: #ff0000"/>
     <use xlink:href="#ma9626918d7" x="233.092612" y="163.440151" style="fill: #ff0000; stroke: #ff0000"/>
     <use xlink:href="#ma9626918d7" x="236.882214" y="162.666201" style="fill: #ff0000; stroke: #ff0000"/>
     <use xlink:href="#ma9626918d7" x="240.684872" y="161.863768" style="fill: #ff0000; stroke: #ff0000"/>
     <use xlink:href="#ma9626918d7" x="244.501927" y="161.025733" style="fill: #ff0000; stroke: #ff0000"/>
     <use xlink:href="#ma9626918d7" x="248.335052" y="160.150179" style="fill: #ff0000; stroke: #ff0000"/>
     <use xlink:href="#ma9626918d7" x="252.186256" y="159.236556" style="fill: #ff0000; stroke: #ff0000"/>
     <use xlink:href="#ma9626918d7" x="256.056544" y="158.284044" style="fill: #ff0000; stroke: #ff0000"/>
     <use xlink:href="#ma9626918d7" x="259.94826" y="157.289083" style="fill: #ff0000; stroke: #ff0000"/>
     <use xlink:href="#ma9626918d7" x="263.862072" y="156.253042" style="fill: #ff0000; stroke: #ff0000"/>
     <use xlink:href="#ma9626918d7" x="267.799989" y="155.171812" style="fill: #ff0000; stroke: #ff0000"/>
     <use xlink:href="#ma9626918d7" x="271.763017" y="154.045121" style="fill: #ff0000; stroke: #ff0000"/>
     <use xlink:href="#ma9626918d7" x="275.755172" y="152.870777" style="fill: #ff0000; stroke: #ff0000"/>
     <use xlink:href="#ma9626918d7" x="279.774781" y="151.650148" style="fill: #ff0000; stroke: #ff0000"/>
     <use xlink:href="#ma9626918d7" x="283.825526" y="150.374747" style="fill: #ff0000; stroke: #ff0000"/>
     <use xlink:href="#ma9626918d7" x="287.909751" y="149.050323" style="fill: #ff0000; stroke: #ff0000"/>
     <use xlink:href="#ma9626918d7" x="292.028461" y="147.670852" style="fill: #ff0000; stroke: #ff0000"/>
     <use xlink:href="#ma9626918d7" x="296.18132" y="146.239071" style="fill: #ff0000; stroke: #ff0000"/>
     <use xlink:href="#ma9626918d7" x="300.372346" y="144.744302" style="fill: #ff0000; stroke: #ff0000"/>
     <use xlink:href="#ma9626918d7" x="304.602544" y="143.191198" style="fill: #ff0000; stroke: #ff0000"/>
     <use xlink:href="#ma9626918d7" x="308.873253" y="141.572367" style="fill: #ff0000; stroke: #ff0000"/>
     <use xlink:href="#ma9626918d7" x="313.188825" y="139.882056" style="fill: #ff0000; stroke: #ff0000"/>
     <use xlink:href="#ma9626918d7" x="317.546917" y="138.124921" style="fill: #ff0000; stroke: #ff0000"/>
     <use xlink:href="#ma9626918d7" x="321.95188" y="136.280148" style="fill: #ff0000; stroke: #ff0000"/>
     <use xlink:href="#ma9626918d7" x="326.403381" y="134.359788" style="fill: #ff0000; stroke: #ff0000"/>
     <use xlink:href="#ma9626918d7" x="330.907446" y="132.321118" style="fill: #ff0000; stroke: #ff0000"/>
     <use xlink:href="#ma9626918d7" x="335.460391" y="130.201108" style="fill: #ff0000; stroke: #ff0000"/>
     <use xlink:href="#ma9626918d7" x="340.068913" y="127.896786" style="fill: #ff0000; stroke: #ff0000"/>
     <use xlink:href="#ma9626918d7" x="344.729329" y="125.516602" style="fill: #ff0000; stroke: #ff0000"/>
     <use xlink:href="#ma9626918d7" x="349.450344" y="122.777104" style="fill: #ff0000; stroke: #ff0000"/>
     <use xlink:href="#ma9626918d7" x="354.235305" y="119.992692" style="fill: #ff0000; stroke: #ff0000"/>
     <use xlink:href="#ma9626918d7" x="359.092249" y="116.320948" style="fill: #ff0000; stroke: #ff0000"/>
     <use xlink:href="#ma9626918d7" x="364.051976" y="112.697405" style="fill: #ff0000; stroke: #ff0000"/>
     <use xlink:href="#ma9626918d7" x="369.221958" y="104.771128" style="fill: #ff0000; stroke: #ff0000"/>
     <use xlink:href="#ma9626918d7" x="374.950386" y="94.563533" style="fill: #ff0000; stroke: #ff0000"/>
     <use xlink:href="#ma9626918d7" x="40.150386" y="218.88" style="fill: #ff0000; stroke: #ff0000"/>
     <use xlink:href="#ma9626918d7" x="41.024548" y="196.104345" style="fill: #ff0000; stroke: #ff0000"/>
     <use xlink:href="#ma9626918d7" x="42.012543" y="150.171263" style="fill: #ff0000; stroke: #ff0000"/>
     <use xlink:href="#ma9626918d7" x="43.166599" y="91.284242" style="fill: #ff0000; stroke: #ff0000"/>
     <use xlink:href="#ma9626918d7" x="44.424442" y="52.215926" style="fill: #ff0000; stroke: #ff0000"/>
     <use xlink:href="#ma9626918d7" x="45.752929" y="38.209513" style="fill: #ff0000; stroke: #ff0000"/>
     <use xlink:href="#ma9626918d7" x="47.175494" y="35.448654" style="fill: #ff0000; stroke: #ff0000"/>
     <use xlink:href="#ma9626918d7" x="48.728296" y="35.298026" style="fill: #ff0000; stroke: #ff0000"/>
     <use xlink:href="#ma9626918d7" x="50.448834" y="35.632693" style="fill: #ff0000; stroke: #ff0000"/>
     <use xlink:href="#ma9626918d7" x="52.375942" y="35.823852" style="fill: #ff0000; stroke: #ff0000"/>
     <use xlink:href="#ma9626918d7" x="54.543772" y="35.609962" style="fill: #ff0000; stroke: #ff0000"/>
     <use xlink:href="#ma9626918d7" x="56.977768" y="34.969659" style="fill: #ff0000; stroke: #ff0000"/>
     <use xlink:href="#ma9626918d7" x="59.680274" y="33.893907" style="fill: #ff0000; stroke: #ff0000"/>
     <use xlink:href="#ma9626918d7" x="62.627184" y="32.399685" style="fill: #ff0000; stroke: #ff0000"/>
     <use xlink:href="#ma9626918d7" x="65.770621" y="30.419896" style="fill: #ff0000; stroke: #ff0000"/>
     <use xlink:href="#ma9626918d7" x="69.057687" y="28.986746" style="fill: #ff0000; stroke: #ff0000"/>
     <use xlink:href="#ma9626918d7" x="72.440841" y="28.116669" style="fill: #ff0000; stroke: #ff0000"/>
     <use xlink:href="#ma9626918d7" x="75.884594" y="26.519199" style="fill: #ff0000; stroke: #ff0000"/>
     <use xlink:href="#ma9626918d7" x="79.362496" y="24.475325" style="fill: #ff0000; stroke: #ff0000"/>
     <use xlink:href="#ma9626918d7" x="82.856804" y="22.599057" style="fill: #ff0000; stroke: #ff0000"/>
     <use xlink:href="#ma9626918d7" x="86.355129" y="21.045406" style="fill: #ff0000; stroke: #ff0000"/>
     <use xlink:href="#ma9626918d7" x="89.848432" y="19.799035" style="fill: #ff0000; stroke: #ff0000"/>
     <use xlink:href="#ma9626918d7" x="93.330687" y="18.836664" style="fill: #ff0000; stroke: #ff0000"/>
     <use xlink:href="#ma9626918d7" x="96.797541" y="18.125977" style="fill: #ff0000; stroke: #ff0000"/>
     <use xlink:href="#ma9626918d7" x="100.245981" y="17.624252" style="fill: #ff0000; stroke: #ff0000"/>
     <use xlink:href="#ma9626918d7" x="103.674333" y="17.356135" style="fill: #ff0000; stroke: #ff0000"/>
     <use xlink:href="#ma9626918d7" x="107.080588" y="17.28" style="fill: #ff0000; stroke: #ff0000"/>
     <use xlink:href="#ma9626918d7" x="110.465751" y="17.366816" style="fill: #ff0000; stroke: #ff0000"/>
     <use xlink:href="#ma9626918d7" x="113.829152" y="17.618774" style="fill: #ff0000; stroke: #ff0000"/>
     <use xlink:href="#ma9626918d7" x="117.170791" y="18.005475" style="fill: #ff0000; stroke: #ff0000"/>
     <use xlink:href="#ma9626918d7" x="120.491672" y="18.50994" style="fill: #ff0000; stroke: #ff0000"/>
     <use xlink:href="#ma9626918d7" x="123.792465" y="19.122855" style="fill: #ff0000; stroke: #ff0000"/>
     <use xlink:href="#ma9626918d7" x="127.074844" y="19.813002" style="fill: #ff0000; stroke: #ff0000"/>
     <use xlink:href="#ma9626918d7" x="130.340484" y="20.568877" style="fill: #ff0000; stroke: #ff0000"/>
     <use xlink:href="#ma9626918d7" x="133.590387" y="21.362545" style="fill: #ff0000; stroke: #ff0000"/>
     <use xlink:href="#ma9626918d7" x="136.826564" y="22.193459" style="fill: #ff0000; stroke: #ff0000"/>
     <use xlink:href="#ma9626918d7" x="140.050353" y="23.056416" style="fill: #ff0000; stroke: #ff0000"/>
     <use xlink:href="#ma9626918d7" x="143.264433" y="23.940187" style="fill: #ff0000; stroke: #ff0000"/>
     <use xlink:href="#ma9626918d7" x="146.470478" y="24.834091" style="fill: #ff0000; stroke: #ff0000"/>
     <use xlink:href="#ma9626918d7" x="149.670496" y="25.755656" style="fill: #ff0000; stroke: #ff0000"/>
     <use xlink:href="#ma9626918d7" x="152.867167" y="26.689818" style="fill: #ff0000; stroke: #ff0000"/>
     <use xlink:href="#ma9626918d7" x="156.062833" y="27.652463" style="fill: #ff0000; stroke: #ff0000"/>
     <use xlink:href="#ma9626918d7" x="159.260508" y="28.649068" style="fill: #ff0000; stroke: #ff0000"/>
     <use xlink:href="#ma9626918d7" x="162.46287" y="29.663747" style="fill: #ff0000; stroke: #ff0000"/>
     <use xlink:href="#ma9626918d7" x="165.672597" y="30.720603" style="fill: #ff0000; stroke: #ff0000"/>
     <use xlink:href="#ma9626918d7" x="168.893708" y="31.821003" style="fill: #ff0000; stroke: #ff0000"/>
     <use xlink:href="#ma9626918d7" x="172.12888" y="32.959471" style="fill: #ff0000; stroke: #ff0000"/>
     <use xlink:href="#ma9626918d7" x="175.382132" y="34.139566" style="fill: #ff0000; stroke: #ff0000"/>
     <use xlink:href="#ma9626918d7" x="178.656476" y="35.364576" style="fill: #ff0000; stroke: #ff0000"/>
     <use xlink:href="#ma9626918d7" x="181.956934" y="36.637239" style="fill: #ff0000; stroke: #ff0000"/>
     <use xlink:href="#ma9626918d7" x="185.286855" y="37.939754" style="fill: #ff0000; stroke: #ff0000"/>
     <use xlink:href="#ma9626918d7" x="188.650256" y="39.269929" style="fill: #ff0000; stroke: #ff0000"/>
     <use xlink:href="#ma9626918d7" x="192.05082" y="40.639815" style="fill: #ff0000; stroke: #ff0000"/>
     <use xlink:href="#ma9626918d7" x="195.494238" y="42.025859" style="fill: #ff0000; stroke: #ff0000"/>
     <use xlink:href="#ma9626918d7" x="198.984193" y="43.424501" style="fill: #ff0000; stroke: #ff0000"/>
     <use xlink:href="#ma9626918d7" x="202.524703" y="44.831907" style="fill: #ff0000; stroke: #ff0000"/>
     <use xlink:href="#ma9626918d7" x="206.12012" y="46.233288" style="fill: #ff0000; stroke: #ff0000"/>
     <use xlink:href="#ma9626918d7" x="209.774462" y="47.636312" style="fill: #ff0000; stroke: #ff0000"/>
     <use xlink:href="#ma9626918d7" x="213.492751" y="49.022903" style="fill: #ff0000; stroke: #ff0000"/>
     <use xlink:href="#ma9626918d7" x="217.278334" y="50.400184" style="fill: #ff0000; stroke: #ff0000"/>
     <use xlink:href="#ma9626918d7" x="221.136904" y="51.754733" style="fill: #ff0000; stroke: #ff0000"/>
     <use xlink:href="#ma9626918d7" x="225.0698" y="53.086004" style="fill: #ff0000; stroke: #ff0000"/>
     <use xlink:href="#ma9626918d7" x="229.082043" y="54.398652" style="fill: #ff0000; stroke: #ff0000"/>
     <use xlink:href="#ma9626918d7" x="233.177986" y="55.691307" style="fill: #ff0000; stroke: #ff0000"/>
     <use xlink:href="#ma9626918d7" x="237.359638" y="56.961779" style="fill: #ff0000; stroke: #ff0000"/>
     <use xlink:href="#ma9626918d7" x="241.631686" y="58.214449" style="fill: #ff0000; stroke: #ff0000"/>
     <use xlink:href="#ma9626918d7" x="245.99413" y="59.453701" style="fill: #ff0000; stroke: #ff0000"/>
     <use xlink:href="#ma9626918d7" x="250.453666" y="60.68364" style="fill: #ff0000; stroke: #ff0000"/>
     <use xlink:href="#ma9626918d7" x="255.00862" y="61.907555" style="fill: #ff0000; stroke: #ff0000"/>
     <use xlink:href="#ma9626918d7" x="259.666693" y="63.133112" style="fill: #ff0000; stroke: #ff0000"/>
     <use xlink:href="#ma9626918d7" x="264.426879" y="64.359766" style="fill: #ff0000; stroke: #ff0000"/>
     <use xlink:href="#ma9626918d7" x="269.294536" y="65.597921" style="fill: #ff0000; stroke: #ff0000"/>
     <use xlink:href="#ma9626918d7" x="274.271338" y="66.844841" style="fill: #ff0000; stroke: #ff0000"/>
     <use xlink:href="#ma9626918d7" x="279.35762" y="68.112026" style="fill: #ff0000; stroke: #ff0000"/>
     <use xlink:href="#ma9626918d7" x="284.561082" y="69.394001" style="fill: #ff0000; stroke: #ff0000"/>
     <use xlink:href="#ma9626918d7" x="289.882393" y="70.711304" style="fill: #ff0000; stroke: #ff0000"/>
     <use xlink:href="#ma9626918d7" x="295.325236" y="72.040384" style="fill: #ff0000; stroke: #ff0000"/>
     <use xlink:href="#ma9626918d7" x="300.888273" y="73.412461" style="fill: #ff0000; stroke: #ff0000"/>
     <use xlink:href="#ma9626918d7" x="306.572173" y="74.803708" style="fill: #ff0000; stroke: #ff0000"/>
     <use xlink:href="#ma9626918d7" x="312.375261" y="76.246717" style="fill: #ff0000; stroke: #ff0000"/>
     <use xlink:href="#ma9626918d7" x="318.290173" y="77.710266" style="fill: #ff0000; stroke: #ff0000"/>
     <use xlink:href="#ma9626918d7" x="324.310546" y="79.257618" style="fill: #ff0000; stroke: #ff0000"/>
     <use xlink:href="#ma9626918d7" x="330.420312" y="80.81346" style="fill: #ff0000; stroke: #ff0000"/>
     <use xlink:href="#ma9626918d7" x="336.606076" y="82.499389" style="fill: #ff0000; stroke: #ff0000"/>
     <use xlink:href="#ma9626918d7" x="342.848422" y="84.184497" style="fill: #ff0000; stroke: #ff0000"/>
     <use xlink:href="#ma9626918d7" x="349.130944" y="86.075827" style="fill: #ff0000; stroke: #ff0000"/>
     <use xlink:href="#ma9626918d7" x="355.442259" y="87.902798" style="fill: #ff0000; stroke: #ff0000"/>
     <use xlink:href="#ma9626918d7" x="361.783371" y="90.078402" style="fill: #ff0000; stroke: #ff0000"/>
     <use xlink:href="#ma9626918d7" x="368.200148" y="91.955765" style="fill: #ff0000; stroke: #ff0000"/>
     <use xlink:href="#ma9626918d7" x="374.950386" y="94.563533" style="fill: #ff0000; stroke: #ff0000"/>
    </g>
   </g>
   <g id="matplotlib.axis_1">
    <g id="xtick_1">
     <g id="line2d_1">
      <defs>
       <path id="md267f08446" d="M 0 0 
L 0 3.5 
" style="stroke: #000000; stroke-width: 0.8"/>
      </defs>
      <g>
       <use xlink:href="#md267f08446" x="40.150386" y="228.96" style="stroke: #000000; stroke-width: 0.8"/>
      </g>
     </g>
     <g id="text_1">
      <!-- $\mathdefault{0.0}$ -->
      <g transform="translate(33.785346 243.05832) scale(0.1 -0.1)">
       <defs>
        <path id="CMR17-30" d="M 2688 2038 
C 2688 2430 2682 3099 2413 3613 
C 2176 4063 1798 4224 1466 4224 
C 1158 4224 768 4082 525 3620 
C 269 3137 243 2539 243 2038 
C 243 1671 250 1112 448 623 
C 723 -39 1216 -128 1466 -128 
C 1760 -128 2208 -7 2470 604 
C 2662 1048 2688 1568 2688 2038 
z
M 1466 -26 
C 1056 -26 813 328 723 816 
C 653 1196 653 1749 653 2109 
C 653 2604 653 3015 736 3407 
C 858 3954 1216 4121 1466 4121 
C 1728 4121 2067 3947 2189 3420 
C 2272 3054 2278 2623 2278 2109 
C 2278 1691 2278 1176 2202 797 
C 2067 96 1690 -26 1466 -26 
z
" transform="scale(0.015625)"/>
        <path id="CMMI12-3a" d="M 1178 307 
C 1178 492 1024 620 870 620 
C 685 620 557 467 557 313 
C 557 128 710 0 864 0 
C 1050 0 1178 153 1178 307 
z
" transform="scale(0.015625)"/>
       </defs>
       <use xlink:href="#CMR17-30" transform="scale(0.996264)"/>
       <use xlink:href="#CMMI12-3a" transform="translate(45.690477 0) scale(0.996264)"/>
       <use xlink:href="#CMR17-30" transform="translate(72.787654 0) scale(0.996264)"/>
      </g>
     </g>
    </g>
    <g id="xtick_2">
     <g id="line2d_2">
      <g>
       <use xlink:href="#md267f08446" x="107.110386" y="228.96" style="stroke: #000000; stroke-width: 0.8"/>
      </g>
     </g>
     <g id="text_2">
      <!-- $\mathdefault{0.2}$ -->
      <g transform="translate(100.745346 243.05832) scale(0.1 -0.1)">
       <defs>
        <path id="CMR17-32" d="M 2669 990 
L 2554 990 
C 2490 537 2438 460 2413 422 
C 2381 371 1920 371 1830 371 
L 602 371 
C 832 620 1280 1073 1824 1596 
C 2214 1966 2669 2400 2669 3033 
C 2669 3788 2067 4224 1395 4224 
C 691 4224 262 3603 262 3027 
C 262 2777 448 2745 525 2745 
C 589 2745 781 2783 781 3007 
C 781 3206 614 3264 525 3264 
C 486 3264 448 3257 422 3244 
C 544 3788 915 4057 1306 4057 
C 1862 4057 2227 3616 2227 3033 
C 2227 2477 1901 1998 1536 1583 
L 262 147 
L 262 0 
L 2515 0 
L 2669 990 
z
" transform="scale(0.015625)"/>
       </defs>
       <use xlink:href="#CMR17-30" transform="scale(0.996264)"/>
       <use xlink:href="#CMMI12-3a" transform="translate(45.690477 0) scale(0.996264)"/>
       <use xlink:href="#CMR17-32" transform="translate(72.787654 0) scale(0.996264)"/>
      </g>
     </g>
    </g>
    <g id="xtick_3">
     <g id="line2d_3">
      <g>
       <use xlink:href="#md267f08446" x="174.070386" y="228.96" style="stroke: #000000; stroke-width: 0.8"/>
      </g>
     </g>
     <g id="text_3">
      <!-- $\mathdefault{0.4}$ -->
      <g transform="translate(167.705346 243.05832) scale(0.1 -0.1)">
       <defs>
        <path id="CMR17-34" d="M 2150 4147 
C 2150 4281 2144 4288 2029 4288 
L 128 1254 
L 128 1088 
L 1779 1088 
L 1779 460 
C 1779 230 1766 166 1318 166 
L 1197 166 
L 1197 0 
C 1402 12 1747 12 1965 12 
C 2182 12 2528 12 2733 0 
L 2733 166 
L 2611 166 
C 2163 166 2150 230 2150 460 
L 2150 1088 
L 2803 1088 
L 2803 1254 
L 2150 1254 
L 2150 4147 
z
M 1798 3723 
L 1798 1254 
L 256 1254 
L 1798 3723 
z
" transform="scale(0.015625)"/>
       </defs>
       <use xlink:href="#CMR17-30" transform="scale(0.996264)"/>
       <use xlink:href="#CMMI12-3a" transform="translate(45.690477 0) scale(0.996264)"/>
       <use xlink:href="#CMR17-34" transform="translate(72.787654 0) scale(0.996264)"/>
      </g>
     </g>
    </g>
    <g id="xtick_4">
     <g id="line2d_4">
      <g>
       <use xlink:href="#md267f08446" x="241.030386" y="228.96" style="stroke: #000000; stroke-width: 0.8"/>
      </g>
     </g>
     <g id="text_4">
      <!-- $\mathdefault{0.6}$ -->
      <g transform="translate(234.665346 243.05832) scale(0.1 -0.1)">
       <defs>
        <path id="CMR17-36" d="M 678 2198 
C 678 3712 1395 4076 1811 4076 
C 1946 4076 2272 4049 2400 3782 
C 2298 3782 2106 3782 2106 3558 
C 2106 3385 2246 3328 2336 3328 
C 2394 3328 2566 3353 2566 3571 
C 2566 3987 2246 4224 1805 4224 
C 1043 4224 243 3411 243 2011 
C 243 257 966 -128 1478 -128 
C 2099 -128 2688 431 2688 1295 
C 2688 2101 2170 2688 1517 2688 
C 1126 2688 838 2430 678 1979 
L 678 2198 
z
M 1478 25 
C 691 25 691 1212 691 1450 
C 691 1914 909 2585 1504 2585 
C 1613 2585 1926 2585 2138 2140 
C 2253 1889 2253 1624 2253 1302 
C 2253 954 2253 696 2118 438 
C 1978 173 1773 25 1478 25 
z
" transform="scale(0.015625)"/>
       </defs>
       <use xlink:href="#CMR17-30" transform="scale(0.996264)"/>
       <use xlink:href="#CMMI12-3a" transform="translate(45.690477 0) scale(0.996264)"/>
       <use xlink:href="#CMR17-36" transform="translate(72.787654 0) scale(0.996264)"/>
      </g>
     </g>
    </g>
    <g id="xtick_5">
     <g id="line2d_5">
      <g>
       <use xlink:href="#md267f08446" x="307.990386" y="228.96" style="stroke: #000000; stroke-width: 0.8"/>
      </g>
     </g>
     <g id="text_5">
      <!-- $\mathdefault{0.8}$ -->
      <g transform="translate(301.625346 243.05832) scale(0.1 -0.1)">
       <defs>
        <path id="CMR17-38" d="M 1741 2289 
C 2144 2494 2554 2803 2554 3298 
C 2554 3884 1990 4224 1472 4224 
C 890 4224 378 3800 378 3215 
C 378 3054 416 2777 666 2533 
C 730 2469 998 2276 1171 2154 
C 883 2006 211 1652 211 945 
C 211 282 838 -128 1459 -128 
C 2144 -128 2720 366 2720 1022 
C 2720 1607 2330 1877 2074 2051 
L 1741 2289 
z
M 902 2855 
C 851 2887 595 3086 595 3388 
C 595 3781 998 4076 1459 4076 
C 1965 4076 2336 3716 2336 3298 
C 2336 2700 1670 2359 1638 2359 
C 1632 2359 1626 2359 1574 2398 
L 902 2855 
z
M 2080 1536 
C 2176 1466 2483 1253 2483 861 
C 2483 385 2010 25 1472 25 
C 890 25 448 443 448 951 
C 448 1459 838 1884 1280 2083 
L 2080 1536 
z
" transform="scale(0.015625)"/>
       </defs>
       <use xlink:href="#CMR17-30" transform="scale(0.996264)"/>
       <use xlink:href="#CMMI12-3a" transform="translate(45.690477 0) scale(0.996264)"/>
       <use xlink:href="#CMR17-38" transform="translate(72.787654 0) scale(0.996264)"/>
      </g>
     </g>
    </g>
    <g id="xtick_6">
     <g id="line2d_6">
      <g>
       <use xlink:href="#md267f08446" x="374.950386" y="228.96" style="stroke: #000000; stroke-width: 0.8"/>
      </g>
     </g>
     <g id="text_6">
      <!-- $\mathdefault{1.0}$ -->
      <g transform="translate(368.585346 243.05832) scale(0.1 -0.1)">
       <defs>
        <path id="CMR17-31" d="M 1702 4083 
C 1702 4217 1696 4224 1606 4224 
C 1357 3927 979 3833 621 3820 
C 602 3820 570 3820 563 3808 
C 557 3795 557 3782 557 3648 
C 755 3648 1088 3686 1344 3839 
L 1344 467 
C 1344 243 1331 166 781 166 
L 589 166 
L 589 0 
C 896 6 1216 12 1523 12 
C 1830 12 2150 6 2458 0 
L 2458 166 
L 2266 166 
C 1715 166 1702 236 1702 467 
L 1702 4083 
z
" transform="scale(0.015625)"/>
       </defs>
       <use xlink:href="#CMR17-31" transform="scale(0.996264)"/>
       <use xlink:href="#CMMI12-3a" transform="translate(45.690477 0) scale(0.996264)"/>
       <use xlink:href="#CMR17-30" transform="translate(72.787654 0) scale(0.996264)"/>
      </g>
     </g>
    </g>
    <g id="text_7">
     <!-- S/S_{total} -->
     <g transform="translate(188.312842 256.278627) scale(0.1 -0.1)">
      <defs>
       <path id="NimbusSanL-Regu-53" d="M 3814 3295 
C 3808 4204 3181 4736 2106 4736 
C 1082 4736 448 4211 448 3372 
C 448 2806 749 2450 1363 2291 
L 2522 1986 
C 3110 1833 3379 1598 3379 1236 
C 3379 988 3245 733 3046 593 
C 2861 466 2566 396 2189 396 
C 1683 396 1338 517 1114 784 
C 941 988 864 1210 870 1496 
L 307 1496 
C 314 1070 397 790 582 536 
C 902 102 1440 -128 2150 -128 
C 2707 -128 3162 0 3462 230 
C 3776 479 3974 892 3974 1293 
C 3974 1865 3616 2284 2982 2456 
L 1811 2768 
C 1248 2920 1043 3098 1043 3454 
C 1043 3925 1459 4236 2086 4236 
C 2829 4236 3245 3899 3251 3295 
L 3814 3295 
z
" transform="scale(0.015625)"/>
       <path id="NimbusSanL-Regu-2f" d="M 1466 4672 
L -51 -128 
L 301 -128 
L 1818 4672 
L 1466 4672 
z
" transform="scale(0.015625)"/>
       <path id="NimbusSanL-Regu-74" d="M 1626 3328 
L 1075 3328 
L 1075 4249 
L 544 4249 
L 544 3328 
L 90 3328 
L 90 2892 
L 544 2892 
L 544 402 
C 544 64 774 -128 1190 -128 
C 1318 -128 1446 -116 1626 -84 
L 1626 364 
C 1555 345 1472 339 1370 339 
C 1139 339 1075 402 1075 634 
L 1075 2892 
L 1626 2892 
L 1626 3328 
z
" transform="scale(0.015625)"/>
       <path id="NimbusSanL-Regu-6f" d="M 1741 3456 
C 800 3456 230 2784 230 1663 
C 230 543 794 -128 1747 -128 
C 2688 -128 3264 543 3264 1638 
C 3264 2791 2707 3456 1741 3456 
z
M 1747 2963 
C 2349 2963 2707 2472 2707 1644 
C 2707 861 2336 364 1747 364 
C 1152 364 787 855 787 1663 
C 787 2466 1152 2963 1747 2963 
z
" transform="scale(0.015625)"/>
       <path id="NimbusSanL-Regu-61" d="M 3424 332 
C 3366 320 3341 320 3309 320 
C 3123 320 3021 415 3021 581 
L 3021 2542 
C 3021 3135 2586 3456 1760 3456 
C 1274 3456 870 3315 646 3065 
C 493 2893 429 2702 416 2370 
L 954 2370 
C 998 2778 1242 2963 1741 2963 
C 2221 2963 2490 2784 2490 2466 
L 2490 2326 
C 2490 2103 2355 2007 1933 1956 
C 1178 1861 1062 1835 858 1753 
C 467 1593 269 1294 269 861 
C 269 256 691 -128 1370 -128 
C 1792 -128 2131 19 2509 364 
C 2547 25 2714 -128 3059 -128 
C 3168 -128 3251 -116 3424 -71 
L 3424 332 
z
M 2490 1071 
C 2490 893 2438 785 2278 638 
C 2061 441 1798 339 1485 339 
C 1069 339 826 536 826 874 
C 826 1224 1062 1402 1632 1485 
C 2195 1562 2310 1587 2490 1670 
L 2490 1071 
z
" transform="scale(0.015625)"/>
       <path id="NimbusSanL-Regu-6c" d="M 973 4672 
L 435 4672 
L 435 0 
L 973 0 
L 973 4672 
z
" transform="scale(0.015625)"/>
      </defs>
      <use xlink:href="#NimbusSanL-Regu-53" transform="scale(0.996264)"/>
      <use xlink:href="#NimbusSanL-Regu-2f" transform="translate(66.450031 0) scale(0.996264)"/>
      <use xlink:href="#NimbusSanL-Regu-53" transform="translate(94.145201 0) scale(0.996264)"/>
      <use xlink:href="#NimbusSanL-Regu-74" transform="translate(196.460797 0) scale(0.996264)"/>
      <use xlink:href="#NimbusSanL-Regu-6f" transform="translate(224.155967 0) scale(0.996264)"/>
      <use xlink:href="#NimbusSanL-Regu-74" transform="translate(279.547644 0) scale(0.996264)"/>
      <use xlink:href="#NimbusSanL-Regu-61" transform="translate(307.242813 0) scale(0.996264)"/>
      <use xlink:href="#NimbusSanL-Regu-6c" transform="translate(362.63449 0) scale(0.996264)"/>
      <path d="M 166.572573 0 
L 196.460797 0 
L 196.460797 0.3985 
L 166.572573 0.3985 
L 166.572573 0 
z
"/>
     </g>
    </g>
   </g>
   <g id="matplotlib.axis_2">
    <g id="ytick_1">
     <g id="line2d_7">
      <defs>
       <path id="m47ad0183ce" d="M 0 0 
L -3.5 0 
" style="stroke: #000000; stroke-width: 0.8"/>
      </defs>
      <g>
       <use xlink:href="#m47ad0183ce" x="40.150386" y="207.463553" style="stroke: #000000; stroke-width: 0.8"/>
      </g>
     </g>
     <g id="text_8">
      <!-- $\mathdefault{0.1}$ -->
      <g transform="translate(20.420307 211.012713) scale(0.1 -0.1)">
       <use xlink:href="#CMR17-30" transform="scale(0.996264)"/>
       <use xlink:href="#CMMI12-3a" transform="translate(45.690477 0) scale(0.996264)"/>
       <use xlink:href="#CMR17-31" transform="translate(72.787654 0) scale(0.996264)"/>
      </g>
     </g>
    </g>
    <g id="ytick_2">
     <g id="line2d_8">
      <g>
       <use xlink:href="#m47ad0183ce" x="40.150386" y="180.076789" style="stroke: #000000; stroke-width: 0.8"/>
      </g>
     </g>
     <g id="text_9">
      <!-- $\mathdefault{0.2}$ -->
      <g transform="translate(20.420307 183.625949) scale(0.1 -0.1)">
       <use xlink:href="#CMR17-30" transform="scale(0.996264)"/>
       <use xlink:href="#CMMI12-3a" transform="translate(45.690477 0) scale(0.996264)"/>
       <use xlink:href="#CMR17-32" transform="translate(72.787654 0) scale(0.996264)"/>
      </g>
     </g>
    </g>
    <g id="ytick_3">
     <g id="line2d_9">
      <g>
       <use xlink:href="#m47ad0183ce" x="40.150386" y="152.690024" style="stroke: #000000; stroke-width: 0.8"/>
      </g>
     </g>
     <g id="text_10">
      <!-- $\mathdefault{0.3}$ -->
      <g transform="translate(20.420307 156.239184) scale(0.1 -0.1)">
       <defs>
        <path id="CMR17-33" d="M 1414 2176 
C 1984 2176 2234 1673 2234 1094 
C 2234 322 1824 25 1453 25 
C 1114 25 563 193 390 691 
C 422 678 454 678 486 678 
C 640 678 755 780 755 947 
C 755 1132 614 1216 486 1216 
C 378 1216 211 1164 211 927 
C 211 335 787 -128 1466 -128 
C 2176 -128 2720 432 2720 1087 
C 2720 1718 2208 2176 1600 2246 
C 2086 2347 2554 2776 2554 3353 
C 2554 3856 2048 4224 1472 4224 
C 890 4224 378 3862 378 3347 
C 378 3123 544 3084 627 3084 
C 762 3084 877 3167 877 3334 
C 877 3500 762 3584 627 3584 
C 602 3584 570 3584 544 3571 
C 730 3999 1235 4076 1459 4076 
C 1683 4076 2106 3966 2106 3347 
C 2106 3167 2080 2851 1862 2574 
C 1670 2329 1453 2316 1242 2297 
C 1210 2297 1062 2284 1037 2284 
C 992 2278 966 2272 966 2227 
C 966 2182 973 2176 1101 2176 
L 1414 2176 
z
" transform="scale(0.015625)"/>
       </defs>
       <use xlink:href="#CMR17-30" transform="scale(0.996264)"/>
       <use xlink:href="#CMMI12-3a" transform="translate(45.690477 0) scale(0.996264)"/>
       <use xlink:href="#CMR17-33" transform="translate(72.787654 0) scale(0.996264)"/>
      </g>
     </g>
    </g>
    <g id="ytick_4">
     <g id="line2d_10">
      <g>
       <use xlink:href="#m47ad0183ce" x="40.150386" y="125.303259" style="stroke: #000000; stroke-width: 0.8"/>
      </g>
     </g>
     <g id="text_11">
      <!-- $\mathdefault{0.4}$ -->
      <g transform="translate(20.420307 128.852419) scale(0.1 -0.1)">
       <use xlink:href="#CMR17-30" transform="scale(0.996264)"/>
       <use xlink:href="#CMMI12-3a" transform="translate(45.690477 0) scale(0.996264)"/>
       <use xlink:href="#CMR17-34" transform="translate(72.787654 0) scale(0.996264)"/>
      </g>
     </g>
    </g>
    <g id="ytick_5">
     <g id="line2d_11">
      <g>
       <use xlink:href="#m47ad0183ce" x="40.150386" y="97.916494" style="stroke: #000000; stroke-width: 0.8"/>
      </g>
     </g>
     <g id="text_12">
      <!-- $\mathdefault{0.5}$ -->
      <g transform="translate(20.420307 101.465655) scale(0.1 -0.1)">
       <defs>
        <path id="CMR17-35" d="M 730 3750 
C 794 3724 1056 3641 1325 3641 
C 1920 3641 2246 3961 2432 4140 
C 2432 4191 2432 4224 2394 4224 
C 2387 4224 2374 4224 2323 4198 
C 2099 4102 1837 4032 1517 4032 
C 1325 4032 1037 4055 723 4191 
C 653 4224 640 4224 634 4224 
C 602 4224 595 4217 595 4090 
L 595 2231 
C 595 2113 595 2080 659 2080 
C 691 2080 704 2093 736 2139 
C 941 2435 1222 2560 1542 2560 
C 1766 2560 2246 2415 2246 1293 
C 2246 1087 2246 716 2054 422 
C 1894 159 1645 25 1370 25 
C 947 25 518 319 403 812 
C 429 806 480 793 506 793 
C 589 793 749 838 749 1036 
C 749 1209 627 1280 506 1280 
C 358 1280 262 1190 262 1011 
C 262 454 704 -128 1382 -128 
C 2042 -128 2669 441 2669 1267 
C 2669 2054 2170 2662 1549 2662 
C 1222 2662 947 2540 730 2304 
L 730 3750 
z
" transform="scale(0.015625)"/>
       </defs>
       <use xlink:href="#CMR17-30" transform="scale(0.996264)"/>
       <use xlink:href="#CMMI12-3a" transform="translate(45.690477 0) scale(0.996264)"/>
       <use xlink:href="#CMR17-35" transform="translate(72.787654 0) scale(0.996264)"/>
      </g>
     </g>
    </g>
    <g id="ytick_6">
     <g id="line2d_12">
      <g>
       <use xlink:href="#m47ad0183ce" x="40.150386" y="70.52973" style="stroke: #000000; stroke-width: 0.8"/>
      </g>
     </g>
     <g id="text_13">
      <!-- $\mathdefault{0.6}$ -->
      <g transform="translate(20.420307 74.07889) scale(0.1 -0.1)">
       <use xlink:href="#CMR17-30" transform="scale(0.996264)"/>
       <use xlink:href="#CMMI12-3a" transform="translate(45.690477 0) scale(0.996264)"/>
       <use xlink:href="#CMR17-36" transform="translate(72.787654 0) scale(0.996264)"/>
      </g>
     </g>
    </g>
    <g id="ytick_7">
     <g id="line2d_13">
      <g>
       <use xlink:href="#m47ad0183ce" x="40.150386" y="43.142965" style="stroke: #000000; stroke-width: 0.8"/>
      </g>
     </g>
     <g id="text_14">
      <!-- $\mathdefault{0.7}$ -->
      <g transform="translate(20.420307 46.692125) scale(0.1 -0.1)">
       <defs>
        <path id="CMR17-37" d="M 2886 3955 
L 2886 4096 
L 1382 4096 
C 634 4096 621 4166 595 4288 
L 480 4288 
L 294 3104 
L 410 3104 
C 429 3226 474 3552 550 3673 
C 589 3724 1062 3724 1171 3724 
L 2579 3724 
L 1869 2670 
C 1395 1961 1069 1003 1069 166 
C 1069 89 1069 -128 1299 -128 
C 1530 -128 1530 89 1530 172 
L 1530 466 
C 1530 1514 1709 2204 2003 2644 
L 2886 3955 
z
" transform="scale(0.015625)"/>
       </defs>
       <use xlink:href="#CMR17-30" transform="scale(0.996264)"/>
       <use xlink:href="#CMMI12-3a" transform="translate(45.690477 0) scale(0.996264)"/>
       <use xlink:href="#CMR17-37" transform="translate(72.787654 0) scale(0.996264)"/>
      </g>
     </g>
    </g>
    <g id="ytick_8">
     <g id="line2d_14">
      <g>
       <use xlink:href="#m47ad0183ce" x="40.150386" y="15.7562" style="stroke: #000000; stroke-width: 0.8"/>
      </g>
     </g>
     <g id="text_15">
      <!-- $\mathdefault{0.8}$ -->
      <g transform="translate(20.420307 19.305361) scale(0.1 -0.1)">
       <use xlink:href="#CMR17-30" transform="scale(0.996264)"/>
       <use xlink:href="#CMMI12-3a" transform="translate(45.690477 0) scale(0.996264)"/>
       <use xlink:href="#CMR17-38" transform="translate(72.787654 0) scale(0.996264)"/>
      </g>
     </g>
    </g>
    <g id="text_16">
     <!-- Mach Number - Blade_1 -->
     <g transform="translate(14.29832 171.085628) rotate(-90) scale(0.1 -0.1)">
      <defs>
       <path id="NimbusSanL-Regu-4d" d="M 2995 0 
L 4307 3915 
L 4307 0 
L 4870 0 
L 4870 4672 
L 4045 4672 
L 2688 602 
L 1306 4672 
L 480 4672 
L 480 0 
L 1043 0 
L 1043 3915 
L 2368 0 
L 2995 0 
z
" transform="scale(0.015625)"/>
       <path id="NimbusSanL-Regu-63" d="M 3014 2237 
C 2989 2561 2918 2771 2790 2956 
C 2560 3270 2157 3456 1690 3456 
C 787 3456 198 2740 198 1632 
C 198 555 774 -128 1683 -128 
C 2483 -128 2989 352 3053 1167 
L 2515 1167 
C 2426 632 2150 364 1696 364 
C 1107 364 755 842 755 1632 
C 755 2466 1101 2963 1683 2963 
C 2131 2963 2413 2701 2477 2237 
L 3014 2237 
z
" transform="scale(0.015625)"/>
       <path id="NimbusSanL-Regu-68" d="M 448 4672 
L 448 0 
L 979 0 
L 979 1853 
C 979 2539 1338 2988 1888 2988 
C 2061 2988 2234 2930 2362 2834 
C 2515 2725 2579 2565 2579 2328 
L 2579 0 
L 3110 0 
L 3110 2539 
C 3110 3103 2707 3456 2054 3456 
C 1581 3456 1293 3308 979 2898 
L 979 4672 
L 448 4672 
z
" transform="scale(0.015625)"/>
       <path id="NimbusSanL-Regu-4e" d="M 4134 4672 
L 3571 4672 
L 3571 852 
L 1133 4672 
L 486 4672 
L 486 0 
L 1050 0 
L 1050 3787 
L 3462 0 
L 4134 0 
L 4134 4672 
z
" transform="scale(0.015625)"/>
       <path id="NimbusSanL-Regu-75" d="M 3085 19 
L 3085 3328 
L 2554 3328 
L 2554 1454 
C 2554 780 2195 339 1638 339 
C 1216 339 947 591 947 988 
L 947 3328 
L 416 3328 
L 416 780 
C 416 230 832 -128 1485 -128 
C 1978 -128 2291 44 2605 484 
L 2605 19 
L 3085 19 
z
" transform="scale(0.015625)"/>
       <path id="NimbusSanL-Regu-6d" d="M 448 3328 
L 448 0 
L 986 0 
L 986 2089 
C 986 2597 1338 2988 1773 2988 
C 2170 2988 2394 2744 2394 2315 
L 2394 0 
L 2931 0 
L 2931 2109 
C 2931 2597 3283 2988 3718 2988 
C 4109 2988 4339 2738 4339 2315 
L 4339 0 
L 4877 0 
L 4877 2520 
C 4877 3123 4531 3456 3904 3456 
C 3456 3456 3187 3321 2874 2943 
C 2675 3302 2406 3456 1971 3456 
C 1523 3456 1229 3289 941 2886 
L 941 3328 
L 448 3328 
z
" transform="scale(0.015625)"/>
       <path id="NimbusSanL-Regu-62" d="M 346 4672 
L 346 19 
L 826 19 
L 826 447 
C 1082 57 1421 -128 1888 -128 
C 2771 -128 3347 594 3347 1702 
C 3347 2784 2797 3456 1914 3456 
C 1453 3456 1126 3283 877 2905 
L 877 4672 
L 346 4672 
z
M 1811 2956 
C 2406 2956 2790 2440 2790 1644 
C 2790 887 2394 371 1811 371 
C 1248 371 877 880 877 1663 
C 877 2447 1248 2956 1811 2956 
z
" transform="scale(0.015625)"/>
       <path id="NimbusSanL-Regu-65" d="M 3283 1484 
C 3283 1998 3245 2311 3149 2565 
C 2931 3123 2419 3456 1792 3456 
C 858 3456 256 2734 256 1619 
C 256 545 838 -128 1779 -128 
C 2547 -128 3078 307 3213 1018 
L 2675 1018 
C 2528 588 2227 364 1798 364 
C 1459 364 1171 514 992 787 
C 864 974 819 1161 813 1484 
L 3283 1484 
z
M 826 1920 
C 870 2552 1248 2963 1786 2963 
C 2310 2963 2714 2519 2714 1959 
C 2714 1946 2714 1933 2707 1920 
L 826 1920 
z
" transform="scale(0.015625)"/>
       <path id="NimbusSanL-Regu-72" d="M 442 3328 
L 442 0 
L 979 0 
L 979 1727 
C 979 2203 1101 2514 1357 2698 
C 1523 2819 1683 2857 2054 2863 
L 2054 3404 
C 1965 3449 1920 3456 1850 3456 
C 1504 3456 1242 3251 934 2750 
L 934 3328 
L 442 3328 
z
" transform="scale(0.015625)"/>
       <path id="NimbusSanL-Regu-2d" d="M 1818 1996 
L 294 1996 
L 294 1536 
L 1818 1536 
L 1818 1996 
z
" transform="scale(0.015625)"/>
       <path id="NimbusSanL-Regu-42" d="M 506 0 
L 2611 0 
C 3053 0 3379 121 3629 390 
C 3859 632 3987 961 3987 1321 
C 3987 1878 3731 2214 3136 2444 
C 3558 2643 3782 2994 3782 3476 
C 3782 3821 3654 4127 3411 4345 
C 3168 4569 2848 4672 2400 4672 
L 506 4672 
L 506 0 
z
M 1101 2636 
L 1101 4147 
L 2253 4147 
C 2586 4147 2771 4101 2931 3977 
C 3098 3847 3187 3652 3187 3391 
C 3187 3138 3098 2936 2931 2806 
C 2771 2682 2586 2636 2253 2636 
L 1101 2636 
z
M 1101 524 
L 1101 2112 
L 2554 2112 
C 2842 2112 3034 2042 3174 1890 
C 3315 1745 3392 1542 3392 1315 
C 3392 1093 3315 891 3174 746 
C 3034 594 2842 524 2554 524 
L 1101 524 
z
" transform="scale(0.015625)"/>
       <path id="NimbusSanL-Regu-64" d="M 3168 4672 
L 2637 4672 
L 2637 2937 
C 2413 3276 2054 3456 1606 3456 
C 736 3456 166 2759 166 1695 
C 166 568 723 -128 1626 -128 
C 2086 -128 2406 44 2694 460 
L 2694 19 
L 3168 19 
L 3168 4672 
z
M 1696 2956 
C 2272 2956 2637 2447 2637 1651 
C 2637 880 2266 371 1702 371 
C 1114 371 723 887 723 1663 
C 723 2440 1114 2956 1696 2956 
z
" transform="scale(0.015625)"/>
       <path id="NimbusSanL-Regu-31" d="M 1658 3232 
L 1658 0 
L 2221 0 
L 2221 4537 
L 1850 4537 
C 1651 3840 1523 3744 653 3635 
L 653 3232 
L 1658 3232 
z
" transform="scale(0.015625)"/>
      </defs>
      <use xlink:href="#NimbusSanL-Regu-4d" transform="scale(0.996264)"/>
      <use xlink:href="#NimbusSanL-Regu-61" transform="translate(82.98843 0) scale(0.996264)"/>
      <use xlink:href="#NimbusSanL-Regu-63" transform="translate(138.380107 0) scale(0.996264)"/>
      <use xlink:href="#NimbusSanL-Regu-68" transform="translate(188.193308 0) scale(0.996264)"/>
      <use xlink:href="#NimbusSanL-Regu-4e" transform="translate(271.280154 0) scale(0.996264)"/>
      <use xlink:href="#NimbusSanL-Regu-75" transform="translate(343.210139 0) scale(0.996264)"/>
      <use xlink:href="#NimbusSanL-Regu-6d" transform="translate(398.601816 0) scale(0.996264)"/>
      <use xlink:href="#NimbusSanL-Regu-62" transform="translate(481.590246 0) scale(0.996264)"/>
      <use xlink:href="#NimbusSanL-Regu-65" transform="translate(536.981923 0) scale(0.996264)"/>
      <use xlink:href="#NimbusSanL-Regu-72" transform="translate(592.3736 0) scale(0.996264)"/>
      <use xlink:href="#NimbusSanL-Regu-2d" transform="translate(653.244 0) scale(0.996264)"/>
      <use xlink:href="#NimbusSanL-Regu-42" transform="translate(714.114399 0) scale(0.996264)"/>
      <use xlink:href="#NimbusSanL-Regu-6c" transform="translate(780.56443 0) scale(0.996264)"/>
      <use xlink:href="#NimbusSanL-Regu-61" transform="translate(802.681214 0) scale(0.996264)"/>
      <use xlink:href="#NimbusSanL-Regu-64" transform="translate(858.072891 0) scale(0.996264)"/>
      <use xlink:href="#NimbusSanL-Regu-65" transform="translate(913.464568 0) scale(0.996264)"/>
      <use xlink:href="#NimbusSanL-Regu-31" transform="translate(1004.72181 0) scale(0.996264)"/>
      <path d="M 974.833586 0 
L 1004.72181 0 
L 1004.72181 0.3985 
L 974.833586 0.3985 
L 974.833586 0 
z
"/>
     </g>
    </g>
   </g>
   <g id="line2d_15">
    <path d="M 40.150386 74.837013 
L 41.411532 39.134917 
L 42.675639 30.506 
L 47.608468 42.909541 
L 51.287433 36.298835 
L 54.96695 34.920341 
L 58.646657 34.255124 
L 62.326445 32.5851 
L 66.006276 30.597384 
L 69.686125 28.710619 
L 73.365984 26.961448 
L 77.045852 25.292467 
L 80.725717 23.81502 
L 84.405582 22.53494 
L 88.085443 21.472136 
L 91.765299 20.638628 
L 95.445149 20.024749 
L 99.124989 19.594517 
L 102.804819 19.334323 
L 106.484646 19.277267 
L 110.164461 19.421014 
L 113.844263 20.077829 
L 117.524056 20.699675 
L 121.203841 21.815072 
L 124.883613 22.858478 
L 128.563378 23.823294 
L 132.243132 24.724518 
L 135.922878 25.600964 
L 139.60262 26.487154 
L 143.282357 27.641543 
L 146.962085 28.470577 
L 150.641816 29.529989 
L 154.321547 30.717652 
L 158.001281 31.837754 
L 161.681018 32.967021 
L 165.360764 34.1937 
L 169.040518 35.529561 
L 172.720286 36.854917 
L 176.400064 38.232005 
L 180.07986 39.64587 
L 183.75967 41.140162 
L 187.439494 42.550421 
L 191.119338 44.160487 
L 194.799197 45.481986 
L 198.479071 47.009237 
L 202.158962 48.550893 
L 205.838866 49.86679 
L 209.518785 51.296407 
L 213.198716 52.693906 
L 216.878658 53.994392 
L 220.558611 55.272401 
L 224.238572 56.516924 
L 227.91854 57.71408 
L 231.598518 58.878764 
L 235.2785 59.994148 
L 238.958489 61.076491 
L 242.638482 62.14068 
L 246.318481 63.175673 
L 249.998482 64.180894 
L 253.678488 65.17057 
L 257.358497 66.148902 
L 261.038508 67.099247 
L 264.718522 68.04903 
L 268.398537 68.979357 
L 272.078555 69.90096 
L 275.758574 70.811817 
L 279.438595 71.731888 
L 283.118616 72.635413 
L 286.79864 73.553549 
L 290.478665 74.43841 
L 294.15869 75.366346 
L 297.838716 76.239618 
L 301.518743 77.154833 
L 305.198771 78.062856 
L 308.878799 78.949155 
L 312.558827 79.885635 
L 316.238856 80.804593 
L 319.918886 81.687047 
L 323.598916 82.703561 
L 327.278946 83.603191 
L 330.958976 84.566667 
L 334.639007 85.571811 
L 338.319037 86.543135 
L 341.999068 87.613767 
L 345.679099 88.645004 
L 349.35913 89.745865 
L 353.039161 90.858558 
L 356.719192 91.947095 
L 360.399222 93.108144 
L 364.079253 94.206906 
L 367.759283 94.954971 
L 372.618116 97.128716 
L 373.784567 91.351261 
L 374.950386 99.287503 
" clip-path="url(#pc1d9f0ab0a)" style="fill: none; stroke: #00008b; stroke-width: 1.5; stroke-linecap: square"/>
    <defs>
     <path id="m29cb0ebf73" d="M 0 0.25 
C 0.066301 0.25 0.129895 0.223658 0.176777 0.176777 
C 0.223658 0.129895 0.25 0.066301 0.25 0 
C 0.25 -0.066301 0.223658 -0.129895 0.176777 -0.176777 
C 0.129895 -0.223658 0.066301 -0.25 0 -0.25 
C -0.066301 -0.25 -0.129895 -0.223658 -0.176777 -0.176777 
C -0.223658 -0.129895 -0.25 -0.066301 -0.25 0 
C -0.25 0.066301 -0.223658 0.129895 -0.176777 0.176777 
C -0.129895 0.223658 -0.066301 0.25 0 0.25 
z
" style="stroke: #00008b"/>
    </defs>
    <g clip-path="url(#pc1d9f0ab0a)">
     <use xlink:href="#m29cb0ebf73" x="40.150386" y="74.837013" style="fill: #00008b; stroke: #00008b"/>
     <use xlink:href="#m29cb0ebf73" x="41.411532" y="39.134917" style="fill: #00008b; stroke: #00008b"/>
     <use xlink:href="#m29cb0ebf73" x="42.675639" y="30.506" style="fill: #00008b; stroke: #00008b"/>
     <use xlink:href="#m29cb0ebf73" x="47.608468" y="42.909541" style="fill: #00008b; stroke: #00008b"/>
     <use xlink:href="#m29cb0ebf73" x="51.287433" y="36.298835" style="fill: #00008b; stroke: #00008b"/>
     <use xlink:href="#m29cb0ebf73" x="54.96695" y="34.920341" style="fill: #00008b; stroke: #00008b"/>
     <use xlink:href="#m29cb0ebf73" x="58.646657" y="34.255124" style="fill: #00008b; stroke: #00008b"/>
     <use xlink:href="#m29cb0ebf73" x="62.326445" y="32.5851" style="fill: #00008b; stroke: #00008b"/>
     <use xlink:href="#m29cb0ebf73" x="66.006276" y="30.597384" style="fill: #00008b; stroke: #00008b"/>
     <use xlink:href="#m29cb0ebf73" x="69.686125" y="28.710619" style="fill: #00008b; stroke: #00008b"/>
     <use xlink:href="#m29cb0ebf73" x="73.365984" y="26.961448" style="fill: #00008b; stroke: #00008b"/>
     <use xlink:href="#m29cb0ebf73" x="77.045852" y="25.292467" style="fill: #00008b; stroke: #00008b"/>
     <use xlink:href="#m29cb0ebf73" x="80.725717" y="23.81502" style="fill: #00008b; stroke: #00008b"/>
     <use xlink:href="#m29cb0ebf73" x="84.405582" y="22.53494" style="fill: #00008b; stroke: #00008b"/>
     <use xlink:href="#m29cb0ebf73" x="88.085443" y="21.472136" style="fill: #00008b; stroke: #00008b"/>
     <use xlink:href="#m29cb0ebf73" x="91.765299" y="20.638628" style="fill: #00008b; stroke: #00008b"/>
     <use xlink:href="#m29cb0ebf73" x="95.445149" y="20.024749" style="fill: #00008b; stroke: #00008b"/>
     <use xlink:href="#m29cb0ebf73" x="99.124989" y="19.594517" style="fill: #00008b; stroke: #00008b"/>
     <use xlink:href="#m29cb0ebf73" x="102.804819" y="19.334323" style="fill: #00008b; stroke: #00008b"/>
     <use xlink:href="#m29cb0ebf73" x="106.484646" y="19.277267" style="fill: #00008b; stroke: #00008b"/>
     <use xlink:href="#m29cb0ebf73" x="110.164461" y="19.421014" style="fill: #00008b; stroke: #00008b"/>
     <use xlink:href="#m29cb0ebf73" x="113.844263" y="20.077829" style="fill: #00008b; stroke: #00008b"/>
     <use xlink:href="#m29cb0ebf73" x="117.524056" y="20.699675" style="fill: #00008b; stroke: #00008b"/>
     <use xlink:href="#m29cb0ebf73" x="121.203841" y="21.815072" style="fill: #00008b; stroke: #00008b"/>
     <use xlink:href="#m29cb0ebf73" x="124.883613" y="22.858478" style="fill: #00008b; stroke: #00008b"/>
     <use xlink:href="#m29cb0ebf73" x="128.563378" y="23.823294" style="fill: #00008b; stroke: #00008b"/>
     <use xlink:href="#m29cb0ebf73" x="132.243132" y="24.724518" style="fill: #00008b; stroke: #00008b"/>
     <use xlink:href="#m29cb0ebf73" x="135.922878" y="25.600964" style="fill: #00008b; stroke: #00008b"/>
     <use xlink:href="#m29cb0ebf73" x="139.60262" y="26.487154" style="fill: #00008b; stroke: #00008b"/>
     <use xlink:href="#m29cb0ebf73" x="143.282357" y="27.641543" style="fill: #00008b; stroke: #00008b"/>
     <use xlink:href="#m29cb0ebf73" x="146.962085" y="28.470577" style="fill: #00008b; stroke: #00008b"/>
     <use xlink:href="#m29cb0ebf73" x="150.641816" y="29.529989" style="fill: #00008b; stroke: #00008b"/>
     <use xlink:href="#m29cb0ebf73" x="154.321547" y="30.717652" style="fill: #00008b; stroke: #00008b"/>
     <use xlink:href="#m29cb0ebf73" x="158.001281" y="31.837754" style="fill: #00008b; stroke: #00008b"/>
     <use xlink:href="#m29cb0ebf73" x="161.681018" y="32.967021" style="fill: #00008b; stroke: #00008b"/>
     <use xlink:href="#m29cb0ebf73" x="165.360764" y="34.1937" style="fill: #00008b; stroke: #00008b"/>
     <use xlink:href="#m29cb0ebf73" x="169.040518" y="35.529561" style="fill: #00008b; stroke: #00008b"/>
     <use xlink:href="#m29cb0ebf73" x="172.720286" y="36.854917" style="fill: #00008b; stroke: #00008b"/>
     <use xlink:href="#m29cb0ebf73" x="176.400064" y="38.232005" style="fill: #00008b; stroke: #00008b"/>
     <use xlink:href="#m29cb0ebf73" x="180.07986" y="39.64587" style="fill: #00008b; stroke: #00008b"/>
     <use xlink:href="#m29cb0ebf73" x="183.75967" y="41.140162" style="fill: #00008b; stroke: #00008b"/>
     <use xlink:href="#m29cb0ebf73" x="187.439494" y="42.550421" style="fill: #00008b; stroke: #00008b"/>
     <use xlink:href="#m29cb0ebf73" x="191.119338" y="44.160487" style="fill: #00008b; stroke: #00008b"/>
     <use xlink:href="#m29cb0ebf73" x="194.799197" y="45.481986" style="fill: #00008b; stroke: #00008b"/>
     <use xlink:href="#m29cb0ebf73" x="198.479071" y="47.009237" style="fill: #00008b; stroke: #00008b"/>
     <use xlink:href="#m29cb0ebf73" x="202.158962" y="48.550893" style="fill: #00008b; stroke: #00008b"/>
     <use xlink:href="#m29cb0ebf73" x="205.838866" y="49.86679" style="fill: #00008b; stroke: #00008b"/>
     <use xlink:href="#m29cb0ebf73" x="209.518785" y="51.296407" style="fill: #00008b; stroke: #00008b"/>
     <use xlink:href="#m29cb0ebf73" x="213.198716" y="52.693906" style="fill: #00008b; stroke: #00008b"/>
     <use xlink:href="#m29cb0ebf73" x="216.878658" y="53.994392" style="fill: #00008b; stroke: #00008b"/>
     <use xlink:href="#m29cb0ebf73" x="220.558611" y="55.272401" style="fill: #00008b; stroke: #00008b"/>
     <use xlink:href="#m29cb0ebf73" x="224.238572" y="56.516924" style="fill: #00008b; stroke: #00008b"/>
     <use xlink:href="#m29cb0ebf73" x="227.91854" y="57.71408" style="fill: #00008b; stroke: #00008b"/>
     <use xlink:href="#m29cb0ebf73" x="231.598518" y="58.878764" style="fill: #00008b; stroke: #00008b"/>
     <use xlink:href="#m29cb0ebf73" x="235.2785" y="59.994148" style="fill: #00008b; stroke: #00008b"/>
     <use xlink:href="#m29cb0ebf73" x="238.958489" y="61.076491" style="fill: #00008b; stroke: #00008b"/>
     <use xlink:href="#m29cb0ebf73" x="242.638482" y="62.14068" style="fill: #00008b; stroke: #00008b"/>
     <use xlink:href="#m29cb0ebf73" x="246.318481" y="63.175673" style="fill: #00008b; stroke: #00008b"/>
     <use xlink:href="#m29cb0ebf73" x="249.998482" y="64.180894" style="fill: #00008b; stroke: #00008b"/>
     <use xlink:href="#m29cb0ebf73" x="253.678488" y="65.17057" style="fill: #00008b; stroke: #00008b"/>
     <use xlink:href="#m29cb0ebf73" x="257.358497" y="66.148902" style="fill: #00008b; stroke: #00008b"/>
     <use xlink:href="#m29cb0ebf73" x="261.038508" y="67.099247" style="fill: #00008b; stroke: #00008b"/>
     <use xlink:href="#m29cb0ebf73" x="264.718522" y="68.04903" style="fill: #00008b; stroke: #00008b"/>
     <use xlink:href="#m29cb0ebf73" x="268.398537" y="68.979357" style="fill: #00008b; stroke: #00008b"/>
     <use xlink:href="#m29cb0ebf73" x="272.078555" y="69.90096" style="fill: #00008b; stroke: #00008b"/>
     <use xlink:href="#m29cb0ebf73" x="275.758574" y="70.811817" style="fill: #00008b; stroke: #00008b"/>
     <use xlink:href="#m29cb0ebf73" x="279.438595" y="71.731888" style="fill: #00008b; stroke: #00008b"/>
     <use xlink:href="#m29cb0ebf73" x="283.118616" y="72.635413" style="fill: #00008b; stroke: #00008b"/>
     <use xlink:href="#m29cb0ebf73" x="286.79864" y="73.553549" style="fill: #00008b; stroke: #00008b"/>
     <use xlink:href="#m29cb0ebf73" x="290.478665" y="74.43841" style="fill: #00008b; stroke: #00008b"/>
     <use xlink:href="#m29cb0ebf73" x="294.15869" y="75.366346" style="fill: #00008b; stroke: #00008b"/>
     <use xlink:href="#m29cb0ebf73" x="297.838716" y="76.239618" style="fill: #00008b; stroke: #00008b"/>
     <use xlink:href="#m29cb0ebf73" x="301.518743" y="77.154833" style="fill: #00008b; stroke: #00008b"/>
     <use xlink:href="#m29cb0ebf73" x="305.198771" y="78.062856" style="fill: #00008b; stroke: #00008b"/>
     <use xlink:href="#m29cb0ebf73" x="308.878799" y="78.949155" style="fill: #00008b; stroke: #00008b"/>
     <use xlink:href="#m29cb0ebf73" x="312.558827" y="79.885635" style="fill: #00008b; stroke: #00008b"/>
     <use xlink:href="#m29cb0ebf73" x="316.238856" y="80.804593" style="fill: #00008b; stroke: #00008b"/>
     <use xlink:href="#m29cb0ebf73" x="319.918886" y="81.687047" style="fill: #00008b; stroke: #00008b"/>
     <use xlink:href="#m29cb0ebf73" x="323.598916" y="82.703561" style="fill: #00008b; stroke: #00008b"/>
     <use xlink:href="#m29cb0ebf73" x="327.278946" y="83.603191" style="fill: #00008b; stroke: #00008b"/>
     <use xlink:href="#m29cb0ebf73" x="330.958976" y="84.566667" style="fill: #00008b; stroke: #00008b"/>
     <use xlink:href="#m29cb0ebf73" x="334.639007" y="85.571811" style="fill: #00008b; stroke: #00008b"/>
     <use xlink:href="#m29cb0ebf73" x="338.319037" y="86.543135" style="fill: #00008b; stroke: #00008b"/>
     <use xlink:href="#m29cb0ebf73" x="341.999068" y="87.613767" style="fill: #00008b; stroke: #00008b"/>
     <use xlink:href="#m29cb0ebf73" x="345.679099" y="88.645004" style="fill: #00008b; stroke: #00008b"/>
     <use xlink:href="#m29cb0ebf73" x="349.35913" y="89.745865" style="fill: #00008b; stroke: #00008b"/>
     <use xlink:href="#m29cb0ebf73" x="353.039161" y="90.858558" style="fill: #00008b; stroke: #00008b"/>
     <use xlink:href="#m29cb0ebf73" x="356.719192" y="91.947095" style="fill: #00008b; stroke: #00008b"/>
     <use xlink:href="#m29cb0ebf73" x="360.399222" y="93.108144" style="fill: #00008b; stroke: #00008b"/>
     <use xlink:href="#m29cb0ebf73" x="364.079253" y="94.206906" style="fill: #00008b; stroke: #00008b"/>
     <use xlink:href="#m29cb0ebf73" x="367.759283" y="94.954971" style="fill: #00008b; stroke: #00008b"/>
     <use xlink:href="#m29cb0ebf73" x="372.618116" y="97.128716" style="fill: #00008b; stroke: #00008b"/>
     <use xlink:href="#m29cb0ebf73" x="373.784567" y="91.351261" style="fill: #00008b; stroke: #00008b"/>
     <use xlink:href="#m29cb0ebf73" x="374.950386" y="99.287503" style="fill: #00008b; stroke: #00008b"/>
    </g>
   </g>
   <g id="line2d_16">
    <path d="M 40.150386 181.593808 
L 41.412875 217.64254 
L 42.677447 208.719261 
L 47.610977 194.59983 
L 51.2903 180.372863 
L 54.970108 177.752259 
L 58.650044 175.028451 
L 62.330014 173.617483 
L 66.009992 172.953018 
L 69.689967 172.679323 
L 73.369935 172.711039 
L 77.049894 172.922137 
L 80.729843 173.240029 
L 84.409782 173.622545 
L 88.089709 174.0189 
L 91.76963 174.425237 
L 95.449544 174.800157 
L 99.129449 175.137196 
L 102.809348 175.435719 
L 106.489246 175.690825 
L 110.169139 175.891795 
L 113.849031 176.052649 
L 117.52892 176.163882 
L 121.20881 176.221019 
L 124.8887 176.24269 
L 128.568592 176.209194 
L 132.248485 176.135575 
L 135.928377 176.010494 
L 139.608273 175.853836 
L 143.288171 175.644702 
L 146.968074 175.409903 
L 150.647976 175.136612 
L 154.327883 174.82641 
L 158.007794 174.499638 
L 161.687705 174.148624 
L 165.367619 173.764399 
L 169.047537 173.380477 
L 172.727455 172.96071 
L 176.407376 172.533039 
L 180.087297 172.088427 
L 183.767221 171.630835 
L 187.447145 171.154682 
L 191.12707 170.663678 
L 194.806997 170.164035 
L 198.486924 169.638247 
L 202.166853 169.099237 
L 205.846781 168.549928 
L 209.52671 167.964933 
L 213.206641 167.383436 
L 216.886572 166.759337 
L 220.566504 166.125207 
L 224.246436 165.461585 
L 227.926369 164.764525 
L 231.606302 164.059729 
L 235.286238 163.302154 
L 238.966174 162.546618 
L 242.64611 161.725089 
L 246.326048 160.914239 
L 250.005987 160.032452 
L 253.685927 159.136657 
L 257.365868 158.204298 
L 261.045811 157.241747 
L 264.725755 156.236224 
L 268.4057 155.217405 
L 272.085646 154.145819 
L 275.765594 153.049073 
L 279.445543 151.920045 
L 283.125493 150.771893 
L 286.805444 149.557191 
L 290.485398 148.328424 
L 294.165352 147.058912 
L 297.845306 145.742562 
L 301.525263 144.413254 
L 305.205221 143.006916 
L 308.885179 141.574021 
L 312.565139 140.101258 
L 316.2451 138.58563 
L 319.925062 137.016725 
L 323.605024 135.402673 
L 327.284988 133.725016 
L 330.964952 131.988754 
L 334.644918 130.182352 
L 338.324884 128.285949 
L 342.00485 126.290052 
L 345.684818 124.165596 
L 349.364786 121.865851 
L 353.044754 119.345823 
L 356.724724 116.456719 
L 360.404693 113.08205 
L 364.084663 108.388918 
L 367.764633 102.699007 
L 372.620163 80.434314 
L 373.784272 79.078315 
L 374.950386 96.433486 
" clip-path="url(#pc1d9f0ab0a)" style="fill: none; stroke: #add8e6; stroke-width: 1.5; stroke-linecap: square"/>
    <defs>
     <path id="mb9f23bfca2" d="M 0 0.25 
C 0.066301 0.25 0.129895 0.223658 0.176777 0.176777 
C 0.223658 0.129895 0.25 0.066301 0.25 0 
C 0.25 -0.066301 0.223658 -0.129895 0.176777 -0.176777 
C 0.129895 -0.223658 0.066301 -0.25 0 -0.25 
C -0.066301 -0.25 -0.129895 -0.223658 -0.176777 -0.176777 
C -0.223658 -0.129895 -0.25 -0.066301 -0.25 0 
C -0.25 0.066301 -0.223658 0.129895 -0.176777 0.176777 
C -0.129895 0.223658 -0.066301 0.25 0 0.25 
z
" style="stroke: #add8e6"/>
    </defs>
    <g clip-path="url(#pc1d9f0ab0a)">
     <use xlink:href="#mb9f23bfca2" x="40.150386" y="181.593808" style="fill: #add8e6; stroke: #add8e6"/>
     <use xlink:href="#mb9f23bfca2" x="41.412875" y="217.64254" style="fill: #add8e6; stroke: #add8e6"/>
     <use xlink:href="#mb9f23bfca2" x="42.677447" y="208.719261" style="fill: #add8e6; stroke: #add8e6"/>
     <use xlink:href="#mb9f23bfca2" x="47.610977" y="194.59983" style="fill: #add8e6; stroke: #add8e6"/>
     <use xlink:href="#mb9f23bfca2" x="51.2903" y="180.372863" style="fill: #add8e6; stroke: #add8e6"/>
     <use xlink:href="#mb9f23bfca2" x="54.970108" y="177.752259" style="fill: #add8e6; stroke: #add8e6"/>
     <use xlink:href="#mb9f23bfca2" x="58.650044" y="175.028451" style="fill: #add8e6; stroke: #add8e6"/>
     <use xlink:href="#mb9f23bfca2" x="62.330014" y="173.617483" style="fill: #add8e6; stroke: #add8e6"/>
     <use xlink:href="#mb9f23bfca2" x="66.009992" y="172.953018" style="fill: #add8e6; stroke: #add8e6"/>
     <use xlink:href="#mb9f23bfca2" x="69.689967" y="172.679323" style="fill: #add8e6; stroke: #add8e6"/>
     <use xlink:href="#mb9f23bfca2" x="73.369935" y="172.711039" style="fill: #add8e6; stroke: #add8e6"/>
     <use xlink:href="#mb9f23bfca2" x="77.049894" y="172.922137" style="fill: #add8e6; stroke: #add8e6"/>
     <use xlink:href="#mb9f23bfca2" x="80.729843" y="173.240029" style="fill: #add8e6; stroke: #add8e6"/>
     <use xlink:href="#mb9f23bfca2" x="84.409782" y="173.622545" style="fill: #add8e6; stroke: #add8e6"/>
     <use xlink:href="#mb9f23bfca2" x="88.089709" y="174.0189" style="fill: #add8e6; stroke: #add8e6"/>
     <use xlink:href="#mb9f23bfca2" x="91.76963" y="174.425237" style="fill: #add8e6; stroke: #add8e6"/>
     <use xlink:href="#mb9f23bfca2" x="95.449544" y="174.800157" style="fill: #add8e6; stroke: #add8e6"/>
     <use xlink:href="#mb9f23bfca2" x="99.129449" y="175.137196" style="fill: #add8e6; stroke: #add8e6"/>
     <use xlink:href="#mb9f23bfca2" x="102.809348" y="175.435719" style="fill: #add8e6; stroke: #add8e6"/>
     <use xlink:href="#mb9f23bfca2" x="106.489246" y="175.690825" style="fill: #add8e6; stroke: #add8e6"/>
     <use xlink:href="#mb9f23bfca2" x="110.169139" y="175.891795" style="fill: #add8e6; stroke: #add8e6"/>
     <use xlink:href="#mb9f23bfca2" x="113.849031" y="176.052649" style="fill: #add8e6; stroke: #add8e6"/>
     <use xlink:href="#mb9f23bfca2" x="117.52892" y="176.163882" style="fill: #add8e6; stroke: #add8e6"/>
     <use xlink:href="#mb9f23bfca2" x="121.20881" y="176.221019" style="fill: #add8e6; stroke: #add8e6"/>
     <use xlink:href="#mb9f23bfca2" x="124.8887" y="176.24269" style="fill: #add8e6; stroke: #add8e6"/>
     <use xlink:href="#mb9f23bfca2" x="128.568592" y="176.209194" style="fill: #add8e6; stroke: #add8e6"/>
     <use xlink:href="#mb9f23bfca2" x="132.248485" y="176.135575" style="fill: #add8e6; stroke: #add8e6"/>
     <use xlink:href="#mb9f23bfca2" x="135.928377" y="176.010494" style="fill: #add8e6; stroke: #add8e6"/>
     <use xlink:href="#mb9f23bfca2" x="139.608273" y="175.853836" style="fill: #add8e6; stroke: #add8e6"/>
     <use xlink:href="#mb9f23bfca2" x="143.288171" y="175.644702" style="fill: #add8e6; stroke: #add8e6"/>
     <use xlink:href="#mb9f23bfca2" x="146.968074" y="175.409903" style="fill: #add8e6; stroke: #add8e6"/>
     <use xlink:href="#mb9f23bfca2" x="150.647976" y="175.136612" style="fill: #add8e6; stroke: #add8e6"/>
     <use xlink:href="#mb9f23bfca2" x="154.327883" y="174.82641" style="fill: #add8e6; stroke: #add8e6"/>
     <use xlink:href="#mb9f23bfca2" x="158.007794" y="174.499638" style="fill: #add8e6; stroke: #add8e6"/>
     <use xlink:href="#mb9f23bfca2" x="161.687705" y="174.148624" style="fill: #add8e6; stroke: #add8e6"/>
     <use xlink:href="#mb9f23bfca2" x="165.367619" y="173.764399" style="fill: #add8e6; stroke: #add8e6"/>
     <use xlink:href="#mb9f23bfca2" x="169.047537" y="173.380477" style="fill: #add8e6; stroke: #add8e6"/>
     <use xlink:href="#mb9f23bfca2" x="172.727455" y="172.96071" style="fill: #add8e6; stroke: #add8e6"/>
     <use xlink:href="#mb9f23bfca2" x="176.407376" y="172.533039" style="fill: #add8e6; stroke: #add8e6"/>
     <use xlink:href="#mb9f23bfca2" x="180.087297" y="172.088427" style="fill: #add8e6; stroke: #add8e6"/>
     <use xlink:href="#mb9f23bfca2" x="183.767221" y="171.630835" style="fill: #add8e6; stroke: #add8e6"/>
     <use xlink:href="#mb9f23bfca2" x="187.447145" y="171.154682" style="fill: #add8e6; stroke: #add8e6"/>
     <use xlink:href="#mb9f23bfca2" x="191.12707" y="170.663678" style="fill: #add8e6; stroke: #add8e6"/>
     <use xlink:href="#mb9f23bfca2" x="194.806997" y="170.164035" style="fill: #add8e6; stroke: #add8e6"/>
     <use xlink:href="#mb9f23bfca2" x="198.486924" y="169.638247" style="fill: #add8e6; stroke: #add8e6"/>
     <use xlink:href="#mb9f23bfca2" x="202.166853" y="169.099237" style="fill: #add8e6; stroke: #add8e6"/>
     <use xlink:href="#mb9f23bfca2" x="205.846781" y="168.549928" style="fill: #add8e6; stroke: #add8e6"/>
     <use xlink:href="#mb9f23bfca2" x="209.52671" y="167.964933" style="fill: #add8e6; stroke: #add8e6"/>
     <use xlink:href="#mb9f23bfca2" x="213.206641" y="167.383436" style="fill: #add8e6; stroke: #add8e6"/>
     <use xlink:href="#mb9f23bfca2" x="216.886572" y="166.759337" style="fill: #add8e6; stroke: #add8e6"/>
     <use xlink:href="#mb9f23bfca2" x="220.566504" y="166.125207" style="fill: #add8e6; stroke: #add8e6"/>
     <use xlink:href="#mb9f23bfca2" x="224.246436" y="165.461585" style="fill: #add8e6; stroke: #add8e6"/>
     <use xlink:href="#mb9f23bfca2" x="227.926369" y="164.764525" style="fill: #add8e6; stroke: #add8e6"/>
     <use xlink:href="#mb9f23bfca2" x="231.606302" y="164.059729" style="fill: #add8e6; stroke: #add8e6"/>
     <use xlink:href="#mb9f23bfca2" x="235.286238" y="163.302154" style="fill: #add8e6; stroke: #add8e6"/>
     <use xlink:href="#mb9f23bfca2" x="238.966174" y="162.546618" style="fill: #add8e6; stroke: #add8e6"/>
     <use xlink:href="#mb9f23bfca2" x="242.64611" y="161.725089" style="fill: #add8e6; stroke: #add8e6"/>
     <use xlink:href="#mb9f23bfca2" x="246.326048" y="160.914239" style="fill: #add8e6; stroke: #add8e6"/>
     <use xlink:href="#mb9f23bfca2" x="250.005987" y="160.032452" style="fill: #add8e6; stroke: #add8e6"/>
     <use xlink:href="#mb9f23bfca2" x="253.685927" y="159.136657" style="fill: #add8e6; stroke: #add8e6"/>
     <use xlink:href="#mb9f23bfca2" x="257.365868" y="158.204298" style="fill: #add8e6; stroke: #add8e6"/>
     <use xlink:href="#mb9f23bfca2" x="261.045811" y="157.241747" style="fill: #add8e6; stroke: #add8e6"/>
     <use xlink:href="#mb9f23bfca2" x="264.725755" y="156.236224" style="fill: #add8e6; stroke: #add8e6"/>
     <use xlink:href="#mb9f23bfca2" x="268.4057" y="155.217405" style="fill: #add8e6; stroke: #add8e6"/>
     <use xlink:href="#mb9f23bfca2" x="272.085646" y="154.145819" style="fill: #add8e6; stroke: #add8e6"/>
     <use xlink:href="#mb9f23bfca2" x="275.765594" y="153.049073" style="fill: #add8e6; stroke: #add8e6"/>
     <use xlink:href="#mb9f23bfca2" x="279.445543" y="151.920045" style="fill: #add8e6; stroke: #add8e6"/>
     <use xlink:href="#mb9f23bfca2" x="283.125493" y="150.771893" style="fill: #add8e6; stroke: #add8e6"/>
     <use xlink:href="#mb9f23bfca2" x="286.805444" y="149.557191" style="fill: #add8e6; stroke: #add8e6"/>
     <use xlink:href="#mb9f23bfca2" x="290.485398" y="148.328424" style="fill: #add8e6; stroke: #add8e6"/>
     <use xlink:href="#mb9f23bfca2" x="294.165352" y="147.058912" style="fill: #add8e6; stroke: #add8e6"/>
     <use xlink:href="#mb9f23bfca2" x="297.845306" y="145.742562" style="fill: #add8e6; stroke: #add8e6"/>
     <use xlink:href="#mb9f23bfca2" x="301.525263" y="144.413254" style="fill: #add8e6; stroke: #add8e6"/>
     <use xlink:href="#mb9f23bfca2" x="305.205221" y="143.006916" style="fill: #add8e6; stroke: #add8e6"/>
     <use xlink:href="#mb9f23bfca2" x="308.885179" y="141.574021" style="fill: #add8e6; stroke: #add8e6"/>
     <use xlink:href="#mb9f23bfca2" x="312.565139" y="140.101258" style="fill: #add8e6; stroke: #add8e6"/>
     <use xlink:href="#mb9f23bfca2" x="316.2451" y="138.58563" style="fill: #add8e6; stroke: #add8e6"/>
     <use xlink:href="#mb9f23bfca2" x="319.925062" y="137.016725" style="fill: #add8e6; stroke: #add8e6"/>
     <use xlink:href="#mb9f23bfca2" x="323.605024" y="135.402673" style="fill: #add8e6; stroke: #add8e6"/>
     <use xlink:href="#mb9f23bfca2" x="327.284988" y="133.725016" style="fill: #add8e6; stroke: #add8e6"/>
     <use xlink:href="#mb9f23bfca2" x="330.964952" y="131.988754" style="fill: #add8e6; stroke: #add8e6"/>
     <use xlink:href="#mb9f23bfca2" x="334.644918" y="130.182352" style="fill: #add8e6; stroke: #add8e6"/>
     <use xlink:href="#mb9f23bfca2" x="338.324884" y="128.285949" style="fill: #add8e6; stroke: #add8e6"/>
     <use xlink:href="#mb9f23bfca2" x="342.00485" y="126.290052" style="fill: #add8e6; stroke: #add8e6"/>
     <use xlink:href="#mb9f23bfca2" x="345.684818" y="124.165596" style="fill: #add8e6; stroke: #add8e6"/>
     <use xlink:href="#mb9f23bfca2" x="349.364786" y="121.865851" style="fill: #add8e6; stroke: #add8e6"/>
     <use xlink:href="#mb9f23bfca2" x="353.044754" y="119.345823" style="fill: #add8e6; stroke: #add8e6"/>
     <use xlink:href="#mb9f23bfca2" x="356.724724" y="116.456719" style="fill: #add8e6; stroke: #add8e6"/>
     <use xlink:href="#mb9f23bfca2" x="360.404693" y="113.08205" style="fill: #add8e6; stroke: #add8e6"/>
     <use xlink:href="#mb9f23bfca2" x="364.084663" y="108.388918" style="fill: #add8e6; stroke: #add8e6"/>
     <use xlink:href="#mb9f23bfca2" x="367.764633" y="102.699007" style="fill: #add8e6; stroke: #add8e6"/>
     <use xlink:href="#mb9f23bfca2" x="372.620163" y="80.434314" style="fill: #add8e6; stroke: #add8e6"/>
     <use xlink:href="#mb9f23bfca2" x="373.784272" y="79.078315" style="fill: #add8e6; stroke: #add8e6"/>
     <use xlink:href="#mb9f23bfca2" x="374.950386" y="96.433486" style="fill: #add8e6; stroke: #add8e6"/>
    </g>
   </g>
   <g id="patch_3">
    <path d="M 40.150386 228.96 
L 40.150386 7.2 
" style="fill: none; stroke: #000000; stroke-width: 0.8; stroke-linejoin: miter; stroke-linecap: square"/>
   </g>
   <g id="patch_4">
    <path d="M 374.950386 228.96 
L 374.950386 7.2 
" style="fill: none; stroke: #000000; stroke-width: 0.8; stroke-linejoin: miter; stroke-linecap: square"/>
   </g>
   <g id="patch_5">
    <path d="M 40.150386 228.96 
L 374.950386 228.96 
" style="fill: none; stroke: #000000; stroke-width: 0.8; stroke-linejoin: miter; stroke-linecap: square"/>
   </g>
   <g id="patch_6">
    <path d="M 40.150386 7.2 
L 374.950386 7.2 
" style="fill: none; stroke: #000000; stroke-width: 0.8; stroke-linejoin: miter; stroke-linecap: square"/>
   </g>
   <g id="legend_1">
    <g id="patch_7">
     <path d="M 45.150386 58.229654 
L 130.973042 58.229654 
L 130.973042 12.2 
L 45.150386 12.2 
z
" style="fill: #ffffff; opacity: 0.8; stroke: #000000; stroke-linejoin: miter"/>
    </g>
    <g id="line2d_17">
     <path d="M 49.150386 19.982687 
L 59.150386 19.982687 
L 69.150386 19.982687 
" style="fill: none; stroke: #00008b; stroke-width: 1.5; stroke-linecap: square"/>
     <g>
      <use xlink:href="#m29cb0ebf73" x="59.150386" y="19.982687" style="fill: #00008b; stroke: #00008b"/>
     </g>
    </g>
    <g id="text_17">
     <!-- SU2 (SS) -->
     <g transform="translate(77.150386 23.482687) scale(0.1 -0.1)">
      <defs>
       <path id="NimbusSanL-Regu-55" d="M 3533 4672 
L 3533 1404 
C 3533 779 3078 396 2330 396 
C 1984 396 1702 479 1478 639 
C 1248 817 1139 1053 1139 1404 
L 1139 4672 
L 544 4672 
L 544 1404 
C 544 460 1222 -128 2330 -128 
C 3424 -128 4128 473 4128 1404 
L 4128 4672 
L 3533 4672 
z
" transform="scale(0.015625)"/>
       <path id="NimbusSanL-Regu-32" d="M 3238 556 
L 851 556 
C 909 928 1114 1165 1670 1493 
L 2310 1839 
C 2944 2185 3270 2653 3270 3211 
C 3270 3589 3117 3942 2848 4185 
C 2579 4428 2246 4544 1818 4544 
C 1242 4544 813 4339 563 3955 
C 403 3711 333 3429 320 2967 
L 883 2967 
C 902 3275 941 3461 1018 3608 
C 1165 3884 1459 4051 1798 4051 
C 2310 4051 2694 3685 2694 3198 
C 2694 2839 2483 2531 2080 2300 
L 1491 1967 
C 544 1428 269 999 218 0 
L 3238 0 
L 3238 556 
z
" transform="scale(0.015625)"/>
       <path id="NimbusSanL-Regu-28" d="M 1510 4672 
C 870 3833 467 2668 467 1663 
C 467 652 870 -513 1510 -1351 
L 1862 -1351 
C 1299 -436 986 639 986 1663 
C 986 2681 1299 3763 1862 4672 
L 1510 4672 
z
" transform="scale(0.015625)"/>
       <path id="NimbusSanL-Regu-29" d="M 595 -1351 
C 1235 -513 1638 652 1638 1657 
C 1638 2668 1235 3833 595 4672 
L 243 4672 
C 806 3756 1120 2681 1120 1657 
C 1120 639 806 -442 243 -1351 
L 595 -1351 
z
" transform="scale(0.015625)"/>
      </defs>
      <use xlink:href="#NimbusSanL-Regu-53" transform="scale(0.996264)"/>
      <use xlink:href="#NimbusSanL-Regu-55" transform="translate(66.450031 0) scale(0.996264)"/>
      <use xlink:href="#NimbusSanL-Regu-32" transform="translate(138.380016 0) scale(0.996264)"/>
      <use xlink:href="#NimbusSanL-Regu-28" transform="translate(221.466863 0) scale(0.996264)"/>
      <use xlink:href="#NimbusSanL-Regu-53" transform="translate(254.642092 0) scale(0.996264)"/>
      <use xlink:href="#NimbusSanL-Regu-53" transform="translate(321.092123 0) scale(0.996264)"/>
      <use xlink:href="#NimbusSanL-Regu-29" transform="translate(387.542155 0) scale(0.996264)"/>
     </g>
    </g>
    <g id="line2d_18">
     <path d="M 49.150386 34.387361 
L 59.150386 34.387361 
L 69.150386 34.387361 
" style="fill: none; stroke: #add8e6; stroke-width: 1.5; stroke-linecap: square"/>
     <g>
      <use xlink:href="#mb9f23bfca2" x="59.150386" y="34.387361" style="fill: #add8e6; stroke: #add8e6"/>
     </g>
    </g>
    <g id="text_18">
     <!-- SU2 (PS) -->
     <g transform="translate(77.150386 37.887361) scale(0.1 -0.1)">
      <defs>
       <path id="NimbusSanL-Regu-50" d="M 1178 1984 
L 2643 1984 
C 3008 1984 3296 2092 3546 2316 
C 3827 2572 3949 2873 3949 3302 
C 3949 4179 3430 4672 2509 4672 
L 582 4672 
L 582 0 
L 1178 0 
L 1178 1984 
z
M 1178 2508 
L 1178 4147 
L 2419 4147 
C 2989 4147 3328 3839 3328 3327 
C 3328 2816 2989 2508 2419 2508 
L 1178 2508 
z
" transform="scale(0.015625)"/>
      </defs>
      <use xlink:href="#NimbusSanL-Regu-53" transform="scale(0.996264)"/>
      <use xlink:href="#NimbusSanL-Regu-55" transform="translate(66.450031 0) scale(0.996264)"/>
      <use xlink:href="#NimbusSanL-Regu-32" transform="translate(138.380016 0) scale(0.996264)"/>
      <use xlink:href="#NimbusSanL-Regu-28" transform="translate(221.466863 0) scale(0.996264)"/>
      <use xlink:href="#NimbusSanL-Regu-50" transform="translate(254.642092 0) scale(0.996264)"/>
      <use xlink:href="#NimbusSanL-Regu-53" transform="translate(321.092123 0) scale(0.996264)"/>
      <use xlink:href="#NimbusSanL-Regu-29" transform="translate(387.542155 0) scale(0.996264)"/>
     </g>
    </g>
    <g id="PathCollection_2">
     <g>
      <use xlink:href="#ma9626918d7" x="59.150386" y="49.482668" style="fill: #ff0000; stroke: #ff0000"/>
     </g>
    </g>
    <g id="text_19">
     <!-- Mises Data -->
     <g transform="translate(77.150386 52.107668) scale(0.1 -0.1)">
      <defs>
       <path id="NimbusSanL-Regu-69" d="M 960 3358 
L 429 3358 
L 429 0 
L 960 0 
L 960 3358 
z
M 960 4672 
L 422 4672 
L 422 3999 
L 960 3999 
L 960 4672 
z
" transform="scale(0.015625)"/>
       <path id="NimbusSanL-Regu-73" d="M 2803 2428 
C 2797 3084 2362 3456 1587 3456 
C 806 3456 301 3052 301 2434 
C 301 1912 570 1663 1363 1472 
L 1862 1351 
C 2234 1262 2381 1129 2381 887 
C 2381 574 2067 364 1600 364 
C 1312 364 1069 447 934 587 
C 851 683 813 778 781 1014 
L 218 1014 
C 243 243 678 -128 1555 -128 
C 2400 -128 2938 288 2938 931 
C 2938 1428 2656 1702 1990 1861 
L 1478 1982 
C 1043 2084 858 2224 858 2459 
C 858 2765 1133 2963 1568 2963 
C 1997 2963 2227 2778 2240 2428 
L 2803 2428 
z
" transform="scale(0.015625)"/>
       <path id="NimbusSanL-Regu-44" d="M 570 0 
L 2368 0 
C 3546 0 4269 883 4269 2339 
C 4269 3788 3552 4672 2368 4672 
L 570 4672 
L 570 0 
z
M 1165 524 
L 1165 4147 
L 2266 4147 
C 3187 4147 3674 3525 3674 2332 
C 3674 1153 3187 524 2266 524 
L 1165 524 
z
" transform="scale(0.015625)"/>
      </defs>
      <use xlink:href="#NimbusSanL-Regu-4d" transform="scale(0.996264)"/>
      <use xlink:href="#NimbusSanL-Regu-69" transform="translate(82.98843 0) scale(0.996264)"/>
      <use xlink:href="#NimbusSanL-Regu-73" transform="translate(105.105215 0) scale(0.996264)"/>
      <use xlink:href="#NimbusSanL-Regu-65" transform="translate(154.918415 0) scale(0.996264)"/>
      <use xlink:href="#NimbusSanL-Regu-73" transform="translate(210.310092 0) scale(0.996264)"/>
      <use xlink:href="#NimbusSanL-Regu-44" transform="translate(287.818462 0) scale(0.996264)"/>
      <use xlink:href="#NimbusSanL-Regu-61" transform="translate(359.748447 0) scale(0.996264)"/>
      <use xlink:href="#NimbusSanL-Regu-74" transform="translate(415.140124 0) scale(0.996264)"/>
      <use xlink:href="#NimbusSanL-Regu-61" transform="translate(442.835294 0) scale(0.996264)"/>
     </g>
    </g>
   </g>
  </g>
 </g>
 <defs>
  <clipPath id="pc1d9f0ab0a">
   <rect x="40.150386" y="7.2" width="334.8" height="221.76"/>
  </clipPath>
 </defs>
</svg>
