<?xml version="1.0" encoding="utf-8" standalone="no"?>
<!DOCTYPE svg PUBLIC "-//W3C//DTD SVG 1.1//EN"
  "http://www.w3.org/Graphics/SVG/1.1/DTD/svg11.dtd">
<svg xmlns:xlink="http://www.w3.org/1999/xlink" width="391.006093pt" height="265.600613pt" viewBox="0 0 391.006093 265.600613" xmlns="http://www.w3.org/2000/svg" version="1.1">
 <metadata>
  <rdf:RDF xmlns:dc="http://purl.org/dc/elements/1.1/" xmlns:cc="http://creativecommons.org/ns#" xmlns:rdf="http://www.w3.org/1999/02/22-rdf-syntax-ns#">
   <cc:Work>
    <dc:type rdf:resource="http://purl.org/dc/dcmitype/StillImage"/>
    <dc:date>2025-07-17T17:55:33.571379</dc:date>
    <dc:format>image/svg+xml</dc:format>
    <dc:creator>
     <cc:Agent>
      <dc:title>Matplotlib v3.10.3, https://matplotlib.org/</dc:title>
     </cc:Agent>
    </dc:creator>
   </cc:Work>
  </rdf:RDF>
 </metadata>
 <defs>
  <style type="text/css">*{stroke-linejoin: round; stroke-linecap: butt}</style>
 </defs>
 <g id="figure_1">
  <g id="patch_1">
   <path d="M 0 265.600613 
L 391.006093 265.600613 
L 391.006093 0 
L 0 0 
z
" style="fill: #ffffff"/>
  </g>
  <g id="axes_1">
   <g id="patch_2">
    <path d="M 40.150386 228.96 
L 374.950386 228.96 
L 374.950386 7.2 
L 40.150386 7.2 
z
" style="fill: #ffffff"/>
   </g>
   <g id="matplotlib.axis_1">
    <g id="xtick_1">
     <g id="line2d_1">
      <defs>
       <path id="md9e8eb9be4" d="M 0 0 
L 0 3.5 
" style="stroke: #000000; stroke-width: 0.8"/>
      </defs>
      <g>
       <use xlink:href="#md9e8eb9be4" x="40.150386" y="228.96" style="stroke: #000000; stroke-width: 0.8"/>
      </g>
     </g>
     <g id="text_1">
      <!-- $\mathdefault{−1.00}$ -->
      <g transform="translate(27.420307 243.05832) scale(0.1 -0.1)">
       <defs>
        <path id="CMSY10-0" d="M 4218 1472 
C 4326 1472 4442 1472 4442 1600 
C 4442 1728 4326 1728 4218 1728 
L 755 1728 
C 646 1728 531 1728 531 1600 
C 531 1472 646 1472 755 1472 
L 4218 1472 
z
" transform="scale(0.015625)"/>
        <path id="CMR17-31" d="M 1702 4083 
C 1702 4217 1696 4224 1606 4224 
C 1357 3927 979 3833 621 3820 
C 602 3820 570 3820 563 3808 
C 557 3795 557 3782 557 3648 
C 755 3648 1088 3686 1344 3839 
L 1344 467 
C 1344 243 1331 166 781 166 
L 589 166 
L 589 0 
C 896 6 1216 12 1523 12 
C 1830 12 2150 6 2458 0 
L 2458 166 
L 2266 166 
C 1715 166 1702 236 1702 467 
L 1702 4083 
z
" transform="scale(0.015625)"/>
        <path id="CMMI12-3a" d="M 1178 307 
C 1178 492 1024 620 870 620 
C 685 620 557 467 557 313 
C 557 128 710 0 864 0 
C 1050 0 1178 153 1178 307 
z
" transform="scale(0.015625)"/>
        <path id="CMR17-30" d="M 2688 2038 
C 2688 2430 2682 3099 2413 3613 
C 2176 4063 1798 4224 1466 4224 
C 1158 4224 768 4082 525 3620 
C 269 3137 243 2539 243 2038 
C 243 1671 250 1112 448 623 
C 723 -39 1216 -128 1466 -128 
C 1760 -128 2208 -7 2470 604 
C 2662 1048 2688 1568 2688 2038 
z
M 1466 -26 
C 1056 -26 813 328 723 816 
C 653 1196 653 1749 653 2109 
C 653 2604 653 3015 736 3407 
C 858 3954 1216 4121 1466 4121 
C 1728 4121 2067 3947 2189 3420 
C 2272 3054 2278 2623 2278 2109 
C 2278 1691 2278 1176 2202 797 
C 2067 96 1690 -26 1466 -26 
z
" transform="scale(0.015625)"/>
       </defs>
       <use xlink:href="#CMSY10-0" transform="scale(0.996264)"/>
       <use xlink:href="#CMR17-31" transform="translate(77.487468 0) scale(0.996264)"/>
       <use xlink:href="#CMMI12-3a" transform="translate(123.177945 0) scale(0.996264)"/>
       <use xlink:href="#CMR17-30" transform="translate(150.275122 0) scale(0.996264)"/>
       <use xlink:href="#CMR17-30" transform="translate(195.965599 0) scale(0.996264)"/>
      </g>
     </g>
    </g>
    <g id="xtick_2">
     <g id="line2d_2">
      <g>
       <use xlink:href="#md9e8eb9be4" x="82.000386" y="228.96" style="stroke: #000000; stroke-width: 0.8"/>
      </g>
     </g>
     <g id="text_2">
      <!-- $\mathdefault{−0.75}$ -->
      <g transform="translate(69.270307 243.05832) scale(0.1 -0.1)">
       <defs>
        <path id="CMR17-37" d="M 2886 3955 
L 2886 4096 
L 1382 4096 
C 634 4096 621 4166 595 4288 
L 480 4288 
L 294 3104 
L 410 3104 
C 429 3226 474 3552 550 3673 
C 589 3724 1062 3724 1171 3724 
L 2579 3724 
L 1869 2670 
C 1395 1961 1069 1003 1069 166 
C 1069 89 1069 -128 1299 -128 
C 1530 -128 1530 89 1530 172 
L 1530 466 
C 1530 1514 1709 2204 2003 2644 
L 2886 3955 
z
" transform="scale(0.015625)"/>
        <path id="CMR17-35" d="M 730 3750 
C 794 3724 1056 3641 1325 3641 
C 1920 3641 2246 3961 2432 4140 
C 2432 4191 2432 4224 2394 4224 
C 2387 4224 2374 4224 2323 4198 
C 2099 4102 1837 4032 1517 4032 
C 1325 4032 1037 4055 723 4191 
C 653 4224 640 4224 634 4224 
C 602 4224 595 4217 595 4090 
L 595 2231 
C 595 2113 595 2080 659 2080 
C 691 2080 704 2093 736 2139 
C 941 2435 1222 2560 1542 2560 
C 1766 2560 2246 2415 2246 1293 
C 2246 1087 2246 716 2054 422 
C 1894 159 1645 25 1370 25 
C 947 25 518 319 403 812 
C 429 806 480 793 506 793 
C 589 793 749 838 749 1036 
C 749 1209 627 1280 506 1280 
C 358 1280 262 1190 262 1011 
C 262 454 704 -128 1382 -128 
C 2042 -128 2669 441 2669 1267 
C 2669 2054 2170 2662 1549 2662 
C 1222 2662 947 2540 730 2304 
L 730 3750 
z
" transform="scale(0.015625)"/>
       </defs>
       <use xlink:href="#CMSY10-0" transform="scale(0.996264)"/>
       <use xlink:href="#CMR17-30" transform="translate(77.487468 0) scale(0.996264)"/>
       <use xlink:href="#CMMI12-3a" transform="translate(123.177945 0) scale(0.996264)"/>
       <use xlink:href="#CMR17-37" transform="translate(150.275122 0) scale(0.996264)"/>
       <use xlink:href="#CMR17-35" transform="translate(195.965599 0) scale(0.996264)"/>
      </g>
     </g>
    </g>
    <g id="xtick_3">
     <g id="line2d_3">
      <g>
       <use xlink:href="#md9e8eb9be4" x="123.850386" y="228.96" style="stroke: #000000; stroke-width: 0.8"/>
      </g>
     </g>
     <g id="text_3">
      <!-- $\mathdefault{−0.50}$ -->
      <g transform="translate(111.120307 243.05832) scale(0.1 -0.1)">
       <use xlink:href="#CMSY10-0" transform="scale(0.996264)"/>
       <use xlink:href="#CMR17-30" transform="translate(77.487468 0) scale(0.996264)"/>
       <use xlink:href="#CMMI12-3a" transform="translate(123.177945 0) scale(0.996264)"/>
       <use xlink:href="#CMR17-35" transform="translate(150.275122 0) scale(0.996264)"/>
       <use xlink:href="#CMR17-30" transform="translate(195.965599 0) scale(0.996264)"/>
      </g>
     </g>
    </g>
    <g id="xtick_4">
     <g id="line2d_4">
      <g>
       <use xlink:href="#md9e8eb9be4" x="165.700386" y="228.96" style="stroke: #000000; stroke-width: 0.8"/>
      </g>
     </g>
     <g id="text_4">
      <!-- $\mathdefault{−0.25}$ -->
      <g transform="translate(152.970307 243.05832) scale(0.1 -0.1)">
       <defs>
        <path id="CMR17-32" d="M 2669 990 
L 2554 990 
C 2490 537 2438 460 2413 422 
C 2381 371 1920 371 1830 371 
L 602 371 
C 832 620 1280 1073 1824 1596 
C 2214 1966 2669 2400 2669 3033 
C 2669 3788 2067 4224 1395 4224 
C 691 4224 262 3603 262 3027 
C 262 2777 448 2745 525 2745 
C 589 2745 781 2783 781 3007 
C 781 3206 614 3264 525 3264 
C 486 3264 448 3257 422 3244 
C 544 3788 915 4057 1306 4057 
C 1862 4057 2227 3616 2227 3033 
C 2227 2477 1901 1998 1536 1583 
L 262 147 
L 262 0 
L 2515 0 
L 2669 990 
z
" transform="scale(0.015625)"/>
       </defs>
       <use xlink:href="#CMSY10-0" transform="scale(0.996264)"/>
       <use xlink:href="#CMR17-30" transform="translate(77.487468 0) scale(0.996264)"/>
       <use xlink:href="#CMMI12-3a" transform="translate(123.177945 0) scale(0.996264)"/>
       <use xlink:href="#CMR17-32" transform="translate(150.275122 0) scale(0.996264)"/>
       <use xlink:href="#CMR17-35" transform="translate(195.965599 0) scale(0.996264)"/>
      </g>
     </g>
    </g>
    <g id="xtick_5">
     <g id="line2d_5">
      <g>
       <use xlink:href="#md9e8eb9be4" x="207.550386" y="228.96" style="stroke: #000000; stroke-width: 0.8"/>
      </g>
     </g>
     <g id="text_5">
      <!-- $\mathdefault{0.00}$ -->
      <g transform="translate(198.694679 243.05832) scale(0.1 -0.1)">
       <use xlink:href="#CMR17-30" transform="scale(0.996264)"/>
       <use xlink:href="#CMMI12-3a" transform="translate(45.690477 0) scale(0.996264)"/>
       <use xlink:href="#CMR17-30" transform="translate(72.787654 0) scale(0.996264)"/>
       <use xlink:href="#CMR17-30" transform="translate(118.478131 0) scale(0.996264)"/>
      </g>
     </g>
    </g>
    <g id="xtick_6">
     <g id="line2d_6">
      <g>
       <use xlink:href="#md9e8eb9be4" x="249.400386" y="228.96" style="stroke: #000000; stroke-width: 0.8"/>
      </g>
     </g>
     <g id="text_6">
      <!-- $\mathdefault{0.25}$ -->
      <g transform="translate(240.544679 243.05832) scale(0.1 -0.1)">
       <use xlink:href="#CMR17-30" transform="scale(0.996264)"/>
       <use xlink:href="#CMMI12-3a" transform="translate(45.690477 0) scale(0.996264)"/>
       <use xlink:href="#CMR17-32" transform="translate(72.787654 0) scale(0.996264)"/>
       <use xlink:href="#CMR17-35" transform="translate(118.478131 0) scale(0.996264)"/>
      </g>
     </g>
    </g>
    <g id="xtick_7">
     <g id="line2d_7">
      <g>
       <use xlink:href="#md9e8eb9be4" x="291.250386" y="228.96" style="stroke: #000000; stroke-width: 0.8"/>
      </g>
     </g>
     <g id="text_7">
      <!-- $\mathdefault{0.50}$ -->
      <g transform="translate(282.394679 243.05832) scale(0.1 -0.1)">
       <use xlink:href="#CMR17-30" transform="scale(0.996264)"/>
       <use xlink:href="#CMMI12-3a" transform="translate(45.690477 0) scale(0.996264)"/>
       <use xlink:href="#CMR17-35" transform="translate(72.787654 0) scale(0.996264)"/>
       <use xlink:href="#CMR17-30" transform="translate(118.478131 0) scale(0.996264)"/>
      </g>
     </g>
    </g>
    <g id="xtick_8">
     <g id="line2d_8">
      <g>
       <use xlink:href="#md9e8eb9be4" x="333.100386" y="228.96" style="stroke: #000000; stroke-width: 0.8"/>
      </g>
     </g>
     <g id="text_8">
      <!-- $\mathdefault{0.75}$ -->
      <g transform="translate(324.244679 243.05832) scale(0.1 -0.1)">
       <use xlink:href="#CMR17-30" transform="scale(0.996264)"/>
       <use xlink:href="#CMMI12-3a" transform="translate(45.690477 0) scale(0.996264)"/>
       <use xlink:href="#CMR17-37" transform="translate(72.787654 0) scale(0.996264)"/>
       <use xlink:href="#CMR17-35" transform="translate(118.478131 0) scale(0.996264)"/>
      </g>
     </g>
    </g>
    <g id="xtick_9">
     <g id="line2d_9">
      <g>
       <use xlink:href="#md9e8eb9be4" x="374.950386" y="228.96" style="stroke: #000000; stroke-width: 0.8"/>
      </g>
     </g>
     <g id="text_9">
      <!-- $\mathdefault{1.00}$ -->
      <g transform="translate(366.094679 243.05832) scale(0.1 -0.1)">
       <use xlink:href="#CMR17-31" transform="scale(0.996264)"/>
       <use xlink:href="#CMMI12-3a" transform="translate(45.690477 0) scale(0.996264)"/>
       <use xlink:href="#CMR17-30" transform="translate(72.787654 0) scale(0.996264)"/>
       <use xlink:href="#CMR17-30" transform="translate(118.478131 0) scale(0.996264)"/>
      </g>
     </g>
    </g>
    <g id="text_10">
     <!-- S/S_{total} -->
     <g transform="translate(188.312842 256.278627) scale(0.1 -0.1)">
      <defs>
       <path id="NimbusSanL-Regu-53" d="M 3814 3295 
C 3808 4204 3181 4736 2106 4736 
C 1082 4736 448 4211 448 3372 
C 448 2806 749 2450 1363 2291 
L 2522 1986 
C 3110 1833 3379 1598 3379 1236 
C 3379 988 3245 733 3046 593 
C 2861 466 2566 396 2189 396 
C 1683 396 1338 517 1114 784 
C 941 988 864 1210 870 1496 
L 307 1496 
C 314 1070 397 790 582 536 
C 902 102 1440 -128 2150 -128 
C 2707 -128 3162 0 3462 230 
C 3776 479 3974 892 3974 1293 
C 3974 1865 3616 2284 2982 2456 
L 1811 2768 
C 1248 2920 1043 3098 1043 3454 
C 1043 3925 1459 4236 2086 4236 
C 2829 4236 3245 3899 3251 3295 
L 3814 3295 
z
" transform="scale(0.015625)"/>
       <path id="NimbusSanL-Regu-2f" d="M 1466 4672 
L -51 -128 
L 301 -128 
L 1818 4672 
L 1466 4672 
z
" transform="scale(0.015625)"/>
       <path id="NimbusSanL-Regu-74" d="M 1626 3328 
L 1075 3328 
L 1075 4249 
L 544 4249 
L 544 3328 
L 90 3328 
L 90 2892 
L 544 2892 
L 544 402 
C 544 64 774 -128 1190 -128 
C 1318 -128 1446 -116 1626 -84 
L 1626 364 
C 1555 345 1472 339 1370 339 
C 1139 339 1075 402 1075 634 
L 1075 2892 
L 1626 2892 
L 1626 3328 
z
" transform="scale(0.015625)"/>
       <path id="NimbusSanL-Regu-6f" d="M 1741 3456 
C 800 3456 230 2784 230 1663 
C 230 543 794 -128 1747 -128 
C 2688 -128 3264 543 3264 1638 
C 3264 2791 2707 3456 1741 3456 
z
M 1747 2963 
C 2349 2963 2707 2472 2707 1644 
C 2707 861 2336 364 1747 364 
C 1152 364 787 855 787 1663 
C 787 2466 1152 2963 1747 2963 
z
" transform="scale(0.015625)"/>
       <path id="NimbusSanL-Regu-61" d="M 3424 332 
C 3366 320 3341 320 3309 320 
C 3123 320 3021 415 3021 581 
L 3021 2542 
C 3021 3135 2586 3456 1760 3456 
C 1274 3456 870 3315 646 3065 
C 493 2893 429 2702 416 2370 
L 954 2370 
C 998 2778 1242 2963 1741 2963 
C 2221 2963 2490 2784 2490 2466 
L 2490 2326 
C 2490 2103 2355 2007 1933 1956 
C 1178 1861 1062 1835 858 1753 
C 467 1593 269 1294 269 861 
C 269 256 691 -128 1370 -128 
C 1792 -128 2131 19 2509 364 
C 2547 25 2714 -128 3059 -128 
C 3168 -128 3251 -116 3424 -71 
L 3424 332 
z
M 2490 1071 
C 2490 893 2438 785 2278 638 
C 2061 441 1798 339 1485 339 
C 1069 339 826 536 826 874 
C 826 1224 1062 1402 1632 1485 
C 2195 1562 2310 1587 2490 1670 
L 2490 1071 
z
" transform="scale(0.015625)"/>
       <path id="NimbusSanL-Regu-6c" d="M 973 4672 
L 435 4672 
L 435 0 
L 973 0 
L 973 4672 
z
" transform="scale(0.015625)"/>
      </defs>
      <use xlink:href="#NimbusSanL-Regu-53" transform="scale(0.996264)"/>
      <use xlink:href="#NimbusSanL-Regu-2f" transform="translate(66.450031 0) scale(0.996264)"/>
      <use xlink:href="#NimbusSanL-Regu-53" transform="translate(94.145201 0) scale(0.996264)"/>
      <use xlink:href="#NimbusSanL-Regu-74" transform="translate(196.460797 0) scale(0.996264)"/>
      <use xlink:href="#NimbusSanL-Regu-6f" transform="translate(224.155967 0) scale(0.996264)"/>
      <use xlink:href="#NimbusSanL-Regu-74" transform="translate(279.547644 0) scale(0.996264)"/>
      <use xlink:href="#NimbusSanL-Regu-61" transform="translate(307.242813 0) scale(0.996264)"/>
      <use xlink:href="#NimbusSanL-Regu-6c" transform="translate(362.63449 0) scale(0.996264)"/>
      <path d="M 166.572573 0 
L 196.460797 0 
L 196.460797 0.3985 
L 166.572573 0.3985 
L 166.572573 0 
z
"/>
     </g>
    </g>
   </g>
   <g id="matplotlib.axis_2">
    <g id="ytick_1">
     <g id="line2d_10">
      <defs>
       <path id="m7bf5d663da" d="M 0 0 
L -3.5 0 
" style="stroke: #000000; stroke-width: 0.8"/>
      </defs>
      <g>
       <use xlink:href="#m7bf5d663da" x="40.150386" y="227.890991" style="stroke: #000000; stroke-width: 0.8"/>
      </g>
     </g>
     <g id="text_11">
      <!-- $\mathdefault{0.0}$ -->
      <g transform="translate(20.420307 231.440151) scale(0.1 -0.1)">
       <use xlink:href="#CMR17-30" transform="scale(0.996264)"/>
       <use xlink:href="#CMMI12-3a" transform="translate(45.690477 0) scale(0.996264)"/>
       <use xlink:href="#CMR17-30" transform="translate(72.787654 0) scale(0.996264)"/>
      </g>
     </g>
    </g>
    <g id="ytick_2">
     <g id="line2d_11">
      <g>
       <use xlink:href="#m7bf5d663da" x="40.150386" y="197.686106" style="stroke: #000000; stroke-width: 0.8"/>
      </g>
     </g>
     <g id="text_12">
      <!-- $\mathdefault{0.2}$ -->
      <g transform="translate(20.420307 201.235266) scale(0.1 -0.1)">
       <use xlink:href="#CMR17-30" transform="scale(0.996264)"/>
       <use xlink:href="#CMMI12-3a" transform="translate(45.690477 0) scale(0.996264)"/>
       <use xlink:href="#CMR17-32" transform="translate(72.787654 0) scale(0.996264)"/>
      </g>
     </g>
    </g>
    <g id="ytick_3">
     <g id="line2d_12">
      <g>
       <use xlink:href="#m7bf5d663da" x="40.150386" y="167.481222" style="stroke: #000000; stroke-width: 0.8"/>
      </g>
     </g>
     <g id="text_13">
      <!-- $\mathdefault{0.4}$ -->
      <g transform="translate(20.420307 171.030382) scale(0.1 -0.1)">
       <defs>
        <path id="CMR17-34" d="M 2150 4147 
C 2150 4281 2144 4288 2029 4288 
L 128 1254 
L 128 1088 
L 1779 1088 
L 1779 460 
C 1779 230 1766 166 1318 166 
L 1197 166 
L 1197 0 
C 1402 12 1747 12 1965 12 
C 2182 12 2528 12 2733 0 
L 2733 166 
L 2611 166 
C 2163 166 2150 230 2150 460 
L 2150 1088 
L 2803 1088 
L 2803 1254 
L 2150 1254 
L 2150 4147 
z
M 1798 3723 
L 1798 1254 
L 256 1254 
L 1798 3723 
z
" transform="scale(0.015625)"/>
       </defs>
       <use xlink:href="#CMR17-30" transform="scale(0.996264)"/>
       <use xlink:href="#CMMI12-3a" transform="translate(45.690477 0) scale(0.996264)"/>
       <use xlink:href="#CMR17-34" transform="translate(72.787654 0) scale(0.996264)"/>
      </g>
     </g>
    </g>
    <g id="ytick_4">
     <g id="line2d_13">
      <g>
       <use xlink:href="#m7bf5d663da" x="40.150386" y="137.276337" style="stroke: #000000; stroke-width: 0.8"/>
      </g>
     </g>
     <g id="text_14">
      <!-- $\mathdefault{0.6}$ -->
      <g transform="translate(20.420307 140.825497) scale(0.1 -0.1)">
       <defs>
        <path id="CMR17-36" d="M 678 2198 
C 678 3712 1395 4076 1811 4076 
C 1946 4076 2272 4049 2400 3782 
C 2298 3782 2106 3782 2106 3558 
C 2106 3385 2246 3328 2336 3328 
C 2394 3328 2566 3353 2566 3571 
C 2566 3987 2246 4224 1805 4224 
C 1043 4224 243 3411 243 2011 
C 243 257 966 -128 1478 -128 
C 2099 -128 2688 431 2688 1295 
C 2688 2101 2170 2688 1517 2688 
C 1126 2688 838 2430 678 1979 
L 678 2198 
z
M 1478 25 
C 691 25 691 1212 691 1450 
C 691 1914 909 2585 1504 2585 
C 1613 2585 1926 2585 2138 2140 
C 2253 1889 2253 1624 2253 1302 
C 2253 954 2253 696 2118 438 
C 1978 173 1773 25 1478 25 
z
" transform="scale(0.015625)"/>
       </defs>
       <use xlink:href="#CMR17-30" transform="scale(0.996264)"/>
       <use xlink:href="#CMMI12-3a" transform="translate(45.690477 0) scale(0.996264)"/>
       <use xlink:href="#CMR17-36" transform="translate(72.787654 0) scale(0.996264)"/>
      </g>
     </g>
    </g>
    <g id="ytick_5">
     <g id="line2d_14">
      <g>
       <use xlink:href="#m7bf5d663da" x="40.150386" y="107.071453" style="stroke: #000000; stroke-width: 0.8"/>
      </g>
     </g>
     <g id="text_15">
      <!-- $\mathdefault{0.8}$ -->
      <g transform="translate(20.420307 110.620613) scale(0.1 -0.1)">
       <defs>
        <path id="CMR17-38" d="M 1741 2289 
C 2144 2494 2554 2803 2554 3298 
C 2554 3884 1990 4224 1472 4224 
C 890 4224 378 3800 378 3215 
C 378 3054 416 2777 666 2533 
C 730 2469 998 2276 1171 2154 
C 883 2006 211 1652 211 945 
C 211 282 838 -128 1459 -128 
C 2144 -128 2720 366 2720 1022 
C 2720 1607 2330 1877 2074 2051 
L 1741 2289 
z
M 902 2855 
C 851 2887 595 3086 595 3388 
C 595 3781 998 4076 1459 4076 
C 1965 4076 2336 3716 2336 3298 
C 2336 2700 1670 2359 1638 2359 
C 1632 2359 1626 2359 1574 2398 
L 902 2855 
z
M 2080 1536 
C 2176 1466 2483 1253 2483 861 
C 2483 385 2010 25 1472 25 
C 890 25 448 443 448 951 
C 448 1459 838 1884 1280 2083 
L 2080 1536 
z
" transform="scale(0.015625)"/>
       </defs>
       <use xlink:href="#CMR17-30" transform="scale(0.996264)"/>
       <use xlink:href="#CMMI12-3a" transform="translate(45.690477 0) scale(0.996264)"/>
       <use xlink:href="#CMR17-38" transform="translate(72.787654 0) scale(0.996264)"/>
      </g>
     </g>
    </g>
    <g id="ytick_6">
     <g id="line2d_15">
      <g>
       <use xlink:href="#m7bf5d663da" x="40.150386" y="76.866568" style="stroke: #000000; stroke-width: 0.8"/>
      </g>
     </g>
     <g id="text_16">
      <!-- $\mathdefault{1.0}$ -->
      <g transform="translate(20.420307 80.415728) scale(0.1 -0.1)">
       <use xlink:href="#CMR17-31" transform="scale(0.996264)"/>
       <use xlink:href="#CMMI12-3a" transform="translate(45.690477 0) scale(0.996264)"/>
       <use xlink:href="#CMR17-30" transform="translate(72.787654 0) scale(0.996264)"/>
      </g>
     </g>
    </g>
    <g id="ytick_7">
     <g id="line2d_16">
      <g>
       <use xlink:href="#m7bf5d663da" x="40.150386" y="46.661684" style="stroke: #000000; stroke-width: 0.8"/>
      </g>
     </g>
     <g id="text_17">
      <!-- $\mathdefault{1.2}$ -->
      <g transform="translate(20.420307 50.210844) scale(0.1 -0.1)">
       <use xlink:href="#CMR17-31" transform="scale(0.996264)"/>
       <use xlink:href="#CMMI12-3a" transform="translate(45.690477 0) scale(0.996264)"/>
       <use xlink:href="#CMR17-32" transform="translate(72.787654 0) scale(0.996264)"/>
      </g>
     </g>
    </g>
    <g id="ytick_8">
     <g id="line2d_17">
      <g>
       <use xlink:href="#m7bf5d663da" x="40.150386" y="16.456799" style="stroke: #000000; stroke-width: 0.8"/>
      </g>
     </g>
     <g id="text_18">
      <!-- $\mathdefault{1.4}$ -->
      <g transform="translate(20.420307 20.005959) scale(0.1 -0.1)">
       <use xlink:href="#CMR17-31" transform="scale(0.996264)"/>
       <use xlink:href="#CMMI12-3a" transform="translate(45.690477 0) scale(0.996264)"/>
       <use xlink:href="#CMR17-34" transform="translate(72.787654 0) scale(0.996264)"/>
      </g>
     </g>
    </g>
    <g id="text_19">
     <!-- Y Plus - Blade_1 -->
     <g transform="translate(14.29832 154.204049) rotate(-90) scale(0.1 -0.1)">
      <defs>
       <path id="NimbusSanL-Regu-59" d="M 2477 1832 
L 4230 4672 
L 3520 4672 
L 2189 2396 
L 819 4672 
L 83 4672 
L 1882 1832 
L 1882 0 
L 2477 0 
L 2477 1832 
z
" transform="scale(0.015625)"/>
       <path id="NimbusSanL-Regu-50" d="M 1178 1984 
L 2643 1984 
C 3008 1984 3296 2092 3546 2316 
C 3827 2572 3949 2873 3949 3302 
C 3949 4179 3430 4672 2509 4672 
L 582 4672 
L 582 0 
L 1178 0 
L 1178 1984 
z
M 1178 2508 
L 1178 4147 
L 2419 4147 
C 2989 4147 3328 3839 3328 3327 
C 3328 2816 2989 2508 2419 2508 
L 1178 2508 
z
" transform="scale(0.015625)"/>
       <path id="NimbusSanL-Regu-75" d="M 3085 19 
L 3085 3328 
L 2554 3328 
L 2554 1454 
C 2554 780 2195 339 1638 339 
C 1216 339 947 591 947 988 
L 947 3328 
L 416 3328 
L 416 780 
C 416 230 832 -128 1485 -128 
C 1978 -128 2291 44 2605 484 
L 2605 19 
L 3085 19 
z
" transform="scale(0.015625)"/>
       <path id="NimbusSanL-Regu-73" d="M 2803 2428 
C 2797 3084 2362 3456 1587 3456 
C 806 3456 301 3052 301 2434 
C 301 1912 570 1663 1363 1472 
L 1862 1351 
C 2234 1262 2381 1129 2381 887 
C 2381 574 2067 364 1600 364 
C 1312 364 1069 447 934 587 
C 851 683 813 778 781 1014 
L 218 1014 
C 243 243 678 -128 1555 -128 
C 2400 -128 2938 288 2938 931 
C 2938 1428 2656 1702 1990 1861 
L 1478 1982 
C 1043 2084 858 2224 858 2459 
C 858 2765 1133 2963 1568 2963 
C 1997 2963 2227 2778 2240 2428 
L 2803 2428 
z
" transform="scale(0.015625)"/>
       <path id="NimbusSanL-Regu-2d" d="M 1818 1996 
L 294 1996 
L 294 1536 
L 1818 1536 
L 1818 1996 
z
" transform="scale(0.015625)"/>
       <path id="NimbusSanL-Regu-42" d="M 506 0 
L 2611 0 
C 3053 0 3379 121 3629 390 
C 3859 632 3987 961 3987 1321 
C 3987 1878 3731 2214 3136 2444 
C 3558 2643 3782 2994 3782 3476 
C 3782 3821 3654 4127 3411 4345 
C 3168 4569 2848 4672 2400 4672 
L 506 4672 
L 506 0 
z
M 1101 2636 
L 1101 4147 
L 2253 4147 
C 2586 4147 2771 4101 2931 3977 
C 3098 3847 3187 3652 3187 3391 
C 3187 3138 3098 2936 2931 2806 
C 2771 2682 2586 2636 2253 2636 
L 1101 2636 
z
M 1101 524 
L 1101 2112 
L 2554 2112 
C 2842 2112 3034 2042 3174 1890 
C 3315 1745 3392 1542 3392 1315 
C 3392 1093 3315 891 3174 746 
C 3034 594 2842 524 2554 524 
L 1101 524 
z
" transform="scale(0.015625)"/>
       <path id="NimbusSanL-Regu-64" d="M 3168 4672 
L 2637 4672 
L 2637 2937 
C 2413 3276 2054 3456 1606 3456 
C 736 3456 166 2759 166 1695 
C 166 568 723 -128 1626 -128 
C 2086 -128 2406 44 2694 460 
L 2694 19 
L 3168 19 
L 3168 4672 
z
M 1696 2956 
C 2272 2956 2637 2447 2637 1651 
C 2637 880 2266 371 1702 371 
C 1114 371 723 887 723 1663 
C 723 2440 1114 2956 1696 2956 
z
" transform="scale(0.015625)"/>
       <path id="NimbusSanL-Regu-65" d="M 3283 1484 
C 3283 1998 3245 2311 3149 2565 
C 2931 3123 2419 3456 1792 3456 
C 858 3456 256 2734 256 1619 
C 256 545 838 -128 1779 -128 
C 2547 -128 3078 307 3213 1018 
L 2675 1018 
C 2528 588 2227 364 1798 364 
C 1459 364 1171 514 992 787 
C 864 974 819 1161 813 1484 
L 3283 1484 
z
M 826 1920 
C 870 2552 1248 2963 1786 2963 
C 2310 2963 2714 2519 2714 1959 
C 2714 1946 2714 1933 2707 1920 
L 826 1920 
z
" transform="scale(0.015625)"/>
       <path id="NimbusSanL-Regu-31" d="M 1658 3232 
L 1658 0 
L 2221 0 
L 2221 4537 
L 1850 4537 
C 1651 3840 1523 3744 653 3635 
L 653 3232 
L 1658 3232 
z
" transform="scale(0.015625)"/>
      </defs>
      <use xlink:href="#NimbusSanL-Regu-59" transform="scale(0.996264)"/>
      <use xlink:href="#NimbusSanL-Regu-50" transform="translate(94.145201 0) scale(0.996264)"/>
      <use xlink:href="#NimbusSanL-Regu-6c" transform="translate(160.595232 0) scale(0.996264)"/>
      <use xlink:href="#NimbusSanL-Regu-75" transform="translate(182.712016 0) scale(0.996264)"/>
      <use xlink:href="#NimbusSanL-Regu-73" transform="translate(238.103693 0) scale(0.996264)"/>
      <use xlink:href="#NimbusSanL-Regu-2d" transform="translate(315.612063 0) scale(0.996264)"/>
      <use xlink:href="#NimbusSanL-Regu-42" transform="translate(376.482463 0) scale(0.996264)"/>
      <use xlink:href="#NimbusSanL-Regu-6c" transform="translate(442.932494 0) scale(0.996264)"/>
      <use xlink:href="#NimbusSanL-Regu-61" transform="translate(465.049278 0) scale(0.996264)"/>
      <use xlink:href="#NimbusSanL-Regu-64" transform="translate(520.440955 0) scale(0.996264)"/>
      <use xlink:href="#NimbusSanL-Regu-65" transform="translate(575.832632 0) scale(0.996264)"/>
      <use xlink:href="#NimbusSanL-Regu-31" transform="translate(667.089874 0) scale(0.996264)"/>
      <path d="M 637.20165 0 
L 667.089874 0 
L 667.089874 0.3985 
L 637.20165 0.3985 
L 637.20165 0 
z
"/>
     </g>
    </g>
   </g>
   <g id="line2d_18">
    <path d="M 207.550386 17.28 
L 208.180959 38.844898 
L 208.813012 66.846615 
L 211.279427 103.835437 
L 213.118909 110.648323 
L 214.958668 118.060819 
L 216.798521 122.884047 
L 218.638415 125.580178 
L 220.478331 127.535738 
L 222.318255 129.303523 
L 224.158185 130.978257 
L 225.998119 132.675007 
L 227.838051 134.482912 
L 229.677984 136.417473 
L 231.517914 138.482149 
L 233.357842 140.652127 
L 235.197767 142.885665 
L 237.037688 145.187809 
L 238.877602 147.57851 
L 240.717516 149.796827 
L 242.557424 150.841488 
L 244.397324 148.25043 
L 246.237221 141.327531 
L 248.077113 133.15158 
L 249.916999 126.264754 
L 251.756882 121.378656 
L 253.596759 118.167208 
L 255.436632 116.194378 
L 257.276503 115.165842 
L 259.116371 114.396243 
L 260.956236 114.069466 
L 262.796101 114.135301 
L 264.635966 114.294858 
L 266.475834 114.52441 
L 268.315702 114.954094 
L 270.155575 115.564018 
L 271.995452 116.21919 
L 273.835336 116.924816 
L 275.675225 117.705767 
L 277.515123 118.566972 
L 279.355028 119.420254 
L 281.19494 120.365269 
L 283.034862 121.136007 
L 284.874791 122.013663 
L 286.714728 122.955272 
L 288.554674 123.705505 
L 290.394626 124.47989 
L 292.234585 125.292813 
L 294.074551 126.004675 
L 295.914522 126.662503 
L 297.754498 127.306667 
L 299.594479 127.918941 
L 301.434463 128.501817 
L 303.274452 129.050029 
L 305.114443 129.579286 
L 306.954437 130.115232 
L 308.794434 130.649625 
L 310.634433 131.17604 
L 312.474434 131.711816 
L 314.314437 132.2633 
L 316.154441 132.818344 
L 317.994447 133.391269 
L 319.834454 133.976715 
L 321.674461 134.572246 
L 323.51447 135.188273 
L 325.35448 135.838377 
L 327.19449 136.511087 
L 329.034501 137.205826 
L 330.874513 137.90762 
L 332.714525 138.646049 
L 334.554538 139.379531 
L 336.394551 140.14769 
L 338.234564 140.948654 
L 340.074578 141.750418 
L 341.914592 142.61264 
L 343.754606 143.490154 
L 345.594621 144.370518 
L 347.434636 145.386472 
L 349.274651 146.376945 
L 351.114666 147.394713 
L 352.954681 148.532799 
L 354.794696 149.711625 
L 356.634712 151.012111 
L 358.474727 152.393086 
L 360.314742 153.872135 
L 362.154758 155.451415 
L 363.994773 157.088339 
L 365.834789 158.861287 
L 367.674804 160.499854 
L 369.514819 161.34885 
L 371.354835 160.829271 
L 373.784251 156.459913 
L 374.367476 184.213008 
L 374.950386 218.88 
" clip-path="url(#p0240933bd5)" style="fill: none; stroke: #00008b; stroke-width: 1.5; stroke-linecap: square"/>
    <defs>
     <path id="m7741a1b10f" d="M 0 0.25 
C 0.066301 0.25 0.129895 0.223658 0.176777 0.176777 
C 0.223658 0.129895 0.25 0.066301 0.25 0 
C 0.25 -0.066301 0.223658 -0.129895 0.176777 -0.176777 
C 0.129895 -0.223658 0.066301 -0.25 0 -0.25 
C -0.066301 -0.25 -0.129895 -0.223658 -0.176777 -0.176777 
C -0.223658 -0.129895 -0.25 -0.066301 -0.25 0 
C -0.25 0.066301 -0.223658 0.129895 -0.176777 0.176777 
C -0.129895 0.223658 -0.066301 0.25 0 0.25 
z
" style="stroke: #00008b"/>
    </defs>
    <g clip-path="url(#p0240933bd5)">
     <use xlink:href="#m7741a1b10f" x="207.550386" y="17.28" style="fill: #00008b; stroke: #00008b"/>
     <use xlink:href="#m7741a1b10f" x="208.180959" y="38.844898" style="fill: #00008b; stroke: #00008b"/>
     <use xlink:href="#m7741a1b10f" x="208.813012" y="66.846615" style="fill: #00008b; stroke: #00008b"/>
     <use xlink:href="#m7741a1b10f" x="211.279427" y="103.835437" style="fill: #00008b; stroke: #00008b"/>
     <use xlink:href="#m7741a1b10f" x="213.118909" y="110.648323" style="fill: #00008b; stroke: #00008b"/>
     <use xlink:href="#m7741a1b10f" x="214.958668" y="118.060819" style="fill: #00008b; stroke: #00008b"/>
     <use xlink:href="#m7741a1b10f" x="216.798521" y="122.884047" style="fill: #00008b; stroke: #00008b"/>
     <use xlink:href="#m7741a1b10f" x="218.638415" y="125.580178" style="fill: #00008b; stroke: #00008b"/>
     <use xlink:href="#m7741a1b10f" x="220.478331" y="127.535738" style="fill: #00008b; stroke: #00008b"/>
     <use xlink:href="#m7741a1b10f" x="222.318255" y="129.303523" style="fill: #00008b; stroke: #00008b"/>
     <use xlink:href="#m7741a1b10f" x="224.158185" y="130.978257" style="fill: #00008b; stroke: #00008b"/>
     <use xlink:href="#m7741a1b10f" x="225.998119" y="132.675007" style="fill: #00008b; stroke: #00008b"/>
     <use xlink:href="#m7741a1b10f" x="227.838051" y="134.482912" style="fill: #00008b; stroke: #00008b"/>
     <use xlink:href="#m7741a1b10f" x="229.677984" y="136.417473" style="fill: #00008b; stroke: #00008b"/>
     <use xlink:href="#m7741a1b10f" x="231.517914" y="138.482149" style="fill: #00008b; stroke: #00008b"/>
     <use xlink:href="#m7741a1b10f" x="233.357842" y="140.652127" style="fill: #00008b; stroke: #00008b"/>
     <use xlink:href="#m7741a1b10f" x="235.197767" y="142.885665" style="fill: #00008b; stroke: #00008b"/>
     <use xlink:href="#m7741a1b10f" x="237.037688" y="145.187809" style="fill: #00008b; stroke: #00008b"/>
     <use xlink:href="#m7741a1b10f" x="238.877602" y="147.57851" style="fill: #00008b; stroke: #00008b"/>
     <use xlink:href="#m7741a1b10f" x="240.717516" y="149.796827" style="fill: #00008b; stroke: #00008b"/>
     <use xlink:href="#m7741a1b10f" x="242.557424" y="150.841488" style="fill: #00008b; stroke: #00008b"/>
     <use xlink:href="#m7741a1b10f" x="244.397324" y="148.25043" style="fill: #00008b; stroke: #00008b"/>
     <use xlink:href="#m7741a1b10f" x="246.237221" y="141.327531" style="fill: #00008b; stroke: #00008b"/>
     <use xlink:href="#m7741a1b10f" x="248.077113" y="133.15158" style="fill: #00008b; stroke: #00008b"/>
     <use xlink:href="#m7741a1b10f" x="249.916999" y="126.264754" style="fill: #00008b; stroke: #00008b"/>
     <use xlink:href="#m7741a1b10f" x="251.756882" y="121.378656" style="fill: #00008b; stroke: #00008b"/>
     <use xlink:href="#m7741a1b10f" x="253.596759" y="118.167208" style="fill: #00008b; stroke: #00008b"/>
     <use xlink:href="#m7741a1b10f" x="255.436632" y="116.194378" style="fill: #00008b; stroke: #00008b"/>
     <use xlink:href="#m7741a1b10f" x="257.276503" y="115.165842" style="fill: #00008b; stroke: #00008b"/>
     <use xlink:href="#m7741a1b10f" x="259.116371" y="114.396243" style="fill: #00008b; stroke: #00008b"/>
     <use xlink:href="#m7741a1b10f" x="260.956236" y="114.069466" style="fill: #00008b; stroke: #00008b"/>
     <use xlink:href="#m7741a1b10f" x="262.796101" y="114.135301" style="fill: #00008b; stroke: #00008b"/>
     <use xlink:href="#m7741a1b10f" x="264.635966" y="114.294858" style="fill: #00008b; stroke: #00008b"/>
     <use xlink:href="#m7741a1b10f" x="266.475834" y="114.52441" style="fill: #00008b; stroke: #00008b"/>
     <use xlink:href="#m7741a1b10f" x="268.315702" y="114.954094" style="fill: #00008b; stroke: #00008b"/>
     <use xlink:href="#m7741a1b10f" x="270.155575" y="115.564018" style="fill: #00008b; stroke: #00008b"/>
     <use xlink:href="#m7741a1b10f" x="271.995452" y="116.21919" style="fill: #00008b; stroke: #00008b"/>
     <use xlink:href="#m7741a1b10f" x="273.835336" y="116.924816" style="fill: #00008b; stroke: #00008b"/>
     <use xlink:href="#m7741a1b10f" x="275.675225" y="117.705767" style="fill: #00008b; stroke: #00008b"/>
     <use xlink:href="#m7741a1b10f" x="277.515123" y="118.566972" style="fill: #00008b; stroke: #00008b"/>
     <use xlink:href="#m7741a1b10f" x="279.355028" y="119.420254" style="fill: #00008b; stroke: #00008b"/>
     <use xlink:href="#m7741a1b10f" x="281.19494" y="120.365269" style="fill: #00008b; stroke: #00008b"/>
     <use xlink:href="#m7741a1b10f" x="283.034862" y="121.136007" style="fill: #00008b; stroke: #00008b"/>
     <use xlink:href="#m7741a1b10f" x="284.874791" y="122.013663" style="fill: #00008b; stroke: #00008b"/>
     <use xlink:href="#m7741a1b10f" x="286.714728" y="122.955272" style="fill: #00008b; stroke: #00008b"/>
     <use xlink:href="#m7741a1b10f" x="288.554674" y="123.705505" style="fill: #00008b; stroke: #00008b"/>
     <use xlink:href="#m7741a1b10f" x="290.394626" y="124.47989" style="fill: #00008b; stroke: #00008b"/>
     <use xlink:href="#m7741a1b10f" x="292.234585" y="125.292813" style="fill: #00008b; stroke: #00008b"/>
     <use xlink:href="#m7741a1b10f" x="294.074551" y="126.004675" style="fill: #00008b; stroke: #00008b"/>
     <use xlink:href="#m7741a1b10f" x="295.914522" y="126.662503" style="fill: #00008b; stroke: #00008b"/>
     <use xlink:href="#m7741a1b10f" x="297.754498" y="127.306667" style="fill: #00008b; stroke: #00008b"/>
     <use xlink:href="#m7741a1b10f" x="299.594479" y="127.918941" style="fill: #00008b; stroke: #00008b"/>
     <use xlink:href="#m7741a1b10f" x="301.434463" y="128.501817" style="fill: #00008b; stroke: #00008b"/>
     <use xlink:href="#m7741a1b10f" x="303.274452" y="129.050029" style="fill: #00008b; stroke: #00008b"/>
     <use xlink:href="#m7741a1b10f" x="305.114443" y="129.579286" style="fill: #00008b; stroke: #00008b"/>
     <use xlink:href="#m7741a1b10f" x="306.954437" y="130.115232" style="fill: #00008b; stroke: #00008b"/>
     <use xlink:href="#m7741a1b10f" x="308.794434" y="130.649625" style="fill: #00008b; stroke: #00008b"/>
     <use xlink:href="#m7741a1b10f" x="310.634433" y="131.17604" style="fill: #00008b; stroke: #00008b"/>
     <use xlink:href="#m7741a1b10f" x="312.474434" y="131.711816" style="fill: #00008b; stroke: #00008b"/>
     <use xlink:href="#m7741a1b10f" x="314.314437" y="132.2633" style="fill: #00008b; stroke: #00008b"/>
     <use xlink:href="#m7741a1b10f" x="316.154441" y="132.818344" style="fill: #00008b; stroke: #00008b"/>
     <use xlink:href="#m7741a1b10f" x="317.994447" y="133.391269" style="fill: #00008b; stroke: #00008b"/>
     <use xlink:href="#m7741a1b10f" x="319.834454" y="133.976715" style="fill: #00008b; stroke: #00008b"/>
     <use xlink:href="#m7741a1b10f" x="321.674461" y="134.572246" style="fill: #00008b; stroke: #00008b"/>
     <use xlink:href="#m7741a1b10f" x="323.51447" y="135.188273" style="fill: #00008b; stroke: #00008b"/>
     <use xlink:href="#m7741a1b10f" x="325.35448" y="135.838377" style="fill: #00008b; stroke: #00008b"/>
     <use xlink:href="#m7741a1b10f" x="327.19449" y="136.511087" style="fill: #00008b; stroke: #00008b"/>
     <use xlink:href="#m7741a1b10f" x="329.034501" y="137.205826" style="fill: #00008b; stroke: #00008b"/>
     <use xlink:href="#m7741a1b10f" x="330.874513" y="137.90762" style="fill: #00008b; stroke: #00008b"/>
     <use xlink:href="#m7741a1b10f" x="332.714525" y="138.646049" style="fill: #00008b; stroke: #00008b"/>
     <use xlink:href="#m7741a1b10f" x="334.554538" y="139.379531" style="fill: #00008b; stroke: #00008b"/>
     <use xlink:href="#m7741a1b10f" x="336.394551" y="140.14769" style="fill: #00008b; stroke: #00008b"/>
     <use xlink:href="#m7741a1b10f" x="338.234564" y="140.948654" style="fill: #00008b; stroke: #00008b"/>
     <use xlink:href="#m7741a1b10f" x="340.074578" y="141.750418" style="fill: #00008b; stroke: #00008b"/>
     <use xlink:href="#m7741a1b10f" x="341.914592" y="142.61264" style="fill: #00008b; stroke: #00008b"/>
     <use xlink:href="#m7741a1b10f" x="343.754606" y="143.490154" style="fill: #00008b; stroke: #00008b"/>
     <use xlink:href="#m7741a1b10f" x="345.594621" y="144.370518" style="fill: #00008b; stroke: #00008b"/>
     <use xlink:href="#m7741a1b10f" x="347.434636" y="145.386472" style="fill: #00008b; stroke: #00008b"/>
     <use xlink:href="#m7741a1b10f" x="349.274651" y="146.376945" style="fill: #00008b; stroke: #00008b"/>
     <use xlink:href="#m7741a1b10f" x="351.114666" y="147.394713" style="fill: #00008b; stroke: #00008b"/>
     <use xlink:href="#m7741a1b10f" x="352.954681" y="148.532799" style="fill: #00008b; stroke: #00008b"/>
     <use xlink:href="#m7741a1b10f" x="354.794696" y="149.711625" style="fill: #00008b; stroke: #00008b"/>
     <use xlink:href="#m7741a1b10f" x="356.634712" y="151.012111" style="fill: #00008b; stroke: #00008b"/>
     <use xlink:href="#m7741a1b10f" x="358.474727" y="152.393086" style="fill: #00008b; stroke: #00008b"/>
     <use xlink:href="#m7741a1b10f" x="360.314742" y="153.872135" style="fill: #00008b; stroke: #00008b"/>
     <use xlink:href="#m7741a1b10f" x="362.154758" y="155.451415" style="fill: #00008b; stroke: #00008b"/>
     <use xlink:href="#m7741a1b10f" x="363.994773" y="157.088339" style="fill: #00008b; stroke: #00008b"/>
     <use xlink:href="#m7741a1b10f" x="365.834789" y="158.861287" style="fill: #00008b; stroke: #00008b"/>
     <use xlink:href="#m7741a1b10f" x="367.674804" y="160.499854" style="fill: #00008b; stroke: #00008b"/>
     <use xlink:href="#m7741a1b10f" x="369.514819" y="161.34885" style="fill: #00008b; stroke: #00008b"/>
     <use xlink:href="#m7741a1b10f" x="371.354835" y="160.829271" style="fill: #00008b; stroke: #00008b"/>
     <use xlink:href="#m7741a1b10f" x="373.784251" y="156.459913" style="fill: #00008b; stroke: #00008b"/>
     <use xlink:href="#m7741a1b10f" x="374.367476" y="184.213008" style="fill: #00008b; stroke: #00008b"/>
     <use xlink:href="#m7741a1b10f" x="374.950386" y="218.88" style="fill: #00008b; stroke: #00008b"/>
    </g>
   </g>
   <g id="line2d_19">
    <path d="M 207.550386 61.253485 
L 206.919141 116.966359 
L 206.286855 182.380926 
L 203.82009 143.797854 
L 201.980428 140.663897 
L 200.140524 144.891215 
L 198.300557 150.22521 
L 196.460571 155.858055 
L 194.620583 161.245496 
L 192.780595 166.219787 
L 190.940611 170.769403 
L 189.100631 174.870048 
L 187.260657 178.518594 
L 185.420687 181.701514 
L 183.580724 184.410898 
L 181.740764 186.630365 
L 179.900806 188.367139 
L 178.060854 189.675717 
L 176.220904 190.603311 
L 174.380956 191.191237 
L 172.541009 191.5016 
L 170.701063 191.577711 
L 168.861118 191.45252 
L 167.021173 191.179868 
L 165.181228 190.778809 
L 163.341283 190.273243 
L 161.501336 189.693503 
L 159.66139 189.068887 
L 157.821442 188.411571 
L 155.981493 187.745977 
L 154.141541 187.083872 
L 152.30159 186.429851 
L 150.461637 185.812841 
L 148.621682 185.228077 
L 146.781726 184.660426 
L 144.941769 184.128221 
L 143.10181 183.611523 
L 141.261851 183.109609 
L 139.421891 182.63131 
L 137.58193 182.16264 
L 135.741968 181.695802 
L 133.902006 181.230574 
L 132.062043 180.767228 
L 130.22208 180.288727 
L 128.382117 179.799935 
L 126.542152 179.306249 
L 124.702188 178.788983 
L 122.862223 178.262868 
L 121.022258 177.708344 
L 119.182293 177.124719 
L 117.342327 176.515789 
L 115.502361 175.874424 
L 113.662394 175.219717 
L 111.822427 174.53321 
L 109.982459 173.828836 
L 108.142492 173.090061 
L 106.302523 172.332692 
L 104.462554 171.531927 
L 102.622585 170.695861 
L 100.782615 169.84296 
L 98.942644 168.951588 
L 97.102673 168.010326 
L 95.262701 167.012986 
L 93.422729 165.911743 
L 91.582755 164.677144 
L 89.742781 163.28194 
L 87.902807 161.698861 
L 86.062832 159.965828 
L 84.222856 158.194906 
L 82.38288 156.434435 
L 80.542903 154.682587 
L 78.702925 152.955354 
L 76.862947 151.222125 
L 75.022968 149.506833 
L 73.182989 147.831653 
L 71.343009 146.178438 
L 69.503029 144.535161 
L 67.663048 142.901042 
L 65.823067 141.265753 
L 63.983085 139.62344 
L 62.143103 137.963291 
L 60.30312 136.261262 
L 58.463136 134.498909 
L 56.623153 132.643385 
L 54.783169 130.640614 
L 52.943185 128.423378 
L 51.103201 125.875109 
L 49.263217 122.801595 
L 47.423232 118.534263 
L 45.583247 111.607559 
L 43.743262 99.574605 
L 41.315497 111.207193 
L 40.733443 194.469243 
L 40.150386 130.709918 
" clip-path="url(#p0240933bd5)" style="fill: none; stroke: #add8e6; stroke-width: 1.5; stroke-linecap: square"/>
    <defs>
     <path id="m24a165f08e" d="M 0 0.25 
C 0.066301 0.25 0.129895 0.223658 0.176777 0.176777 
C 0.223658 0.129895 0.25 0.066301 0.25 0 
C 0.25 -0.066301 0.223658 -0.129895 0.176777 -0.176777 
C 0.129895 -0.223658 0.066301 -0.25 0 -0.25 
C -0.066301 -0.25 -0.129895 -0.223658 -0.176777 -0.176777 
C -0.223658 -0.129895 -0.25 -0.066301 -0.25 0 
C -0.25 0.066301 -0.223658 0.129895 -0.176777 0.176777 
C -0.129895 0.223658 -0.066301 0.25 0 0.25 
z
" style="stroke: #add8e6"/>
    </defs>
    <g clip-path="url(#p0240933bd5)">
     <use xlink:href="#m24a165f08e" x="207.550386" y="61.253485" style="fill: #add8e6; stroke: #add8e6"/>
     <use xlink:href="#m24a165f08e" x="206.919141" y="116.966359" style="fill: #add8e6; stroke: #add8e6"/>
     <use xlink:href="#m24a165f08e" x="206.286855" y="182.380926" style="fill: #add8e6; stroke: #add8e6"/>
     <use xlink:href="#m24a165f08e" x="203.82009" y="143.797854" style="fill: #add8e6; stroke: #add8e6"/>
     <use xlink:href="#m24a165f08e" x="201.980428" y="140.663897" style="fill: #add8e6; stroke: #add8e6"/>
     <use xlink:href="#m24a165f08e" x="200.140524" y="144.891215" style="fill: #add8e6; stroke: #add8e6"/>
     <use xlink:href="#m24a165f08e" x="198.300557" y="150.22521" style="fill: #add8e6; stroke: #add8e6"/>
     <use xlink:href="#m24a165f08e" x="196.460571" y="155.858055" style="fill: #add8e6; stroke: #add8e6"/>
     <use xlink:href="#m24a165f08e" x="194.620583" y="161.245496" style="fill: #add8e6; stroke: #add8e6"/>
     <use xlink:href="#m24a165f08e" x="192.780595" y="166.219787" style="fill: #add8e6; stroke: #add8e6"/>
     <use xlink:href="#m24a165f08e" x="190.940611" y="170.769403" style="fill: #add8e6; stroke: #add8e6"/>
     <use xlink:href="#m24a165f08e" x="189.100631" y="174.870048" style="fill: #add8e6; stroke: #add8e6"/>
     <use xlink:href="#m24a165f08e" x="187.260657" y="178.518594" style="fill: #add8e6; stroke: #add8e6"/>
     <use xlink:href="#m24a165f08e" x="185.420687" y="181.701514" style="fill: #add8e6; stroke: #add8e6"/>
     <use xlink:href="#m24a165f08e" x="183.580724" y="184.410898" style="fill: #add8e6; stroke: #add8e6"/>
     <use xlink:href="#m24a165f08e" x="181.740764" y="186.630365" style="fill: #add8e6; stroke: #add8e6"/>
     <use xlink:href="#m24a165f08e" x="179.900806" y="188.367139" style="fill: #add8e6; stroke: #add8e6"/>
     <use xlink:href="#m24a165f08e" x="178.060854" y="189.675717" style="fill: #add8e6; stroke: #add8e6"/>
     <use xlink:href="#m24a165f08e" x="176.220904" y="190.603311" style="fill: #add8e6; stroke: #add8e6"/>
     <use xlink:href="#m24a165f08e" x="174.380956" y="191.191237" style="fill: #add8e6; stroke: #add8e6"/>
     <use xlink:href="#m24a165f08e" x="172.541009" y="191.5016" style="fill: #add8e6; stroke: #add8e6"/>
     <use xlink:href="#m24a165f08e" x="170.701063" y="191.577711" style="fill: #add8e6; stroke: #add8e6"/>
     <use xlink:href="#m24a165f08e" x="168.861118" y="191.45252" style="fill: #add8e6; stroke: #add8e6"/>
     <use xlink:href="#m24a165f08e" x="167.021173" y="191.179868" style="fill: #add8e6; stroke: #add8e6"/>
     <use xlink:href="#m24a165f08e" x="165.181228" y="190.778809" style="fill: #add8e6; stroke: #add8e6"/>
     <use xlink:href="#m24a165f08e" x="163.341283" y="190.273243" style="fill: #add8e6; stroke: #add8e6"/>
     <use xlink:href="#m24a165f08e" x="161.501336" y="189.693503" style="fill: #add8e6; stroke: #add8e6"/>
     <use xlink:href="#m24a165f08e" x="159.66139" y="189.068887" style="fill: #add8e6; stroke: #add8e6"/>
     <use xlink:href="#m24a165f08e" x="157.821442" y="188.411571" style="fill: #add8e6; stroke: #add8e6"/>
     <use xlink:href="#m24a165f08e" x="155.981493" y="187.745977" style="fill: #add8e6; stroke: #add8e6"/>
     <use xlink:href="#m24a165f08e" x="154.141541" y="187.083872" style="fill: #add8e6; stroke: #add8e6"/>
     <use xlink:href="#m24a165f08e" x="152.30159" y="186.429851" style="fill: #add8e6; stroke: #add8e6"/>
     <use xlink:href="#m24a165f08e" x="150.461637" y="185.812841" style="fill: #add8e6; stroke: #add8e6"/>
     <use xlink:href="#m24a165f08e" x="148.621682" y="185.228077" style="fill: #add8e6; stroke: #add8e6"/>
     <use xlink:href="#m24a165f08e" x="146.781726" y="184.660426" style="fill: #add8e6; stroke: #add8e6"/>
     <use xlink:href="#m24a165f08e" x="144.941769" y="184.128221" style="fill: #add8e6; stroke: #add8e6"/>
     <use xlink:href="#m24a165f08e" x="143.10181" y="183.611523" style="fill: #add8e6; stroke: #add8e6"/>
     <use xlink:href="#m24a165f08e" x="141.261851" y="183.109609" style="fill: #add8e6; stroke: #add8e6"/>
     <use xlink:href="#m24a165f08e" x="139.421891" y="182.63131" style="fill: #add8e6; stroke: #add8e6"/>
     <use xlink:href="#m24a165f08e" x="137.58193" y="182.16264" style="fill: #add8e6; stroke: #add8e6"/>
     <use xlink:href="#m24a165f08e" x="135.741968" y="181.695802" style="fill: #add8e6; stroke: #add8e6"/>
     <use xlink:href="#m24a165f08e" x="133.902006" y="181.230574" style="fill: #add8e6; stroke: #add8e6"/>
     <use xlink:href="#m24a165f08e" x="132.062043" y="180.767228" style="fill: #add8e6; stroke: #add8e6"/>
     <use xlink:href="#m24a165f08e" x="130.22208" y="180.288727" style="fill: #add8e6; stroke: #add8e6"/>
     <use xlink:href="#m24a165f08e" x="128.382117" y="179.799935" style="fill: #add8e6; stroke: #add8e6"/>
     <use xlink:href="#m24a165f08e" x="126.542152" y="179.306249" style="fill: #add8e6; stroke: #add8e6"/>
     <use xlink:href="#m24a165f08e" x="124.702188" y="178.788983" style="fill: #add8e6; stroke: #add8e6"/>
     <use xlink:href="#m24a165f08e" x="122.862223" y="178.262868" style="fill: #add8e6; stroke: #add8e6"/>
     <use xlink:href="#m24a165f08e" x="121.022258" y="177.708344" style="fill: #add8e6; stroke: #add8e6"/>
     <use xlink:href="#m24a165f08e" x="119.182293" y="177.124719" style="fill: #add8e6; stroke: #add8e6"/>
     <use xlink:href="#m24a165f08e" x="117.342327" y="176.515789" style="fill: #add8e6; stroke: #add8e6"/>
     <use xlink:href="#m24a165f08e" x="115.502361" y="175.874424" style="fill: #add8e6; stroke: #add8e6"/>
     <use xlink:href="#m24a165f08e" x="113.662394" y="175.219717" style="fill: #add8e6; stroke: #add8e6"/>
     <use xlink:href="#m24a165f08e" x="111.822427" y="174.53321" style="fill: #add8e6; stroke: #add8e6"/>
     <use xlink:href="#m24a165f08e" x="109.982459" y="173.828836" style="fill: #add8e6; stroke: #add8e6"/>
     <use xlink:href="#m24a165f08e" x="108.142492" y="173.090061" style="fill: #add8e6; stroke: #add8e6"/>
     <use xlink:href="#m24a165f08e" x="106.302523" y="172.332692" style="fill: #add8e6; stroke: #add8e6"/>
     <use xlink:href="#m24a165f08e" x="104.462554" y="171.531927" style="fill: #add8e6; stroke: #add8e6"/>
     <use xlink:href="#m24a165f08e" x="102.622585" y="170.695861" style="fill: #add8e6; stroke: #add8e6"/>
     <use xlink:href="#m24a165f08e" x="100.782615" y="169.84296" style="fill: #add8e6; stroke: #add8e6"/>
     <use xlink:href="#m24a165f08e" x="98.942644" y="168.951588" style="fill: #add8e6; stroke: #add8e6"/>
     <use xlink:href="#m24a165f08e" x="97.102673" y="168.010326" style="fill: #add8e6; stroke: #add8e6"/>
     <use xlink:href="#m24a165f08e" x="95.262701" y="167.012986" style="fill: #add8e6; stroke: #add8e6"/>
     <use xlink:href="#m24a165f08e" x="93.422729" y="165.911743" style="fill: #add8e6; stroke: #add8e6"/>
     <use xlink:href="#m24a165f08e" x="91.582755" y="164.677144" style="fill: #add8e6; stroke: #add8e6"/>
     <use xlink:href="#m24a165f08e" x="89.742781" y="163.28194" style="fill: #add8e6; stroke: #add8e6"/>
     <use xlink:href="#m24a165f08e" x="87.902807" y="161.698861" style="fill: #add8e6; stroke: #add8e6"/>
     <use xlink:href="#m24a165f08e" x="86.062832" y="159.965828" style="fill: #add8e6; stroke: #add8e6"/>
     <use xlink:href="#m24a165f08e" x="84.222856" y="158.194906" style="fill: #add8e6; stroke: #add8e6"/>
     <use xlink:href="#m24a165f08e" x="82.38288" y="156.434435" style="fill: #add8e6; stroke: #add8e6"/>
     <use xlink:href="#m24a165f08e" x="80.542903" y="154.682587" style="fill: #add8e6; stroke: #add8e6"/>
     <use xlink:href="#m24a165f08e" x="78.702925" y="152.955354" style="fill: #add8e6; stroke: #add8e6"/>
     <use xlink:href="#m24a165f08e" x="76.862947" y="151.222125" style="fill: #add8e6; stroke: #add8e6"/>
     <use xlink:href="#m24a165f08e" x="75.022968" y="149.506833" style="fill: #add8e6; stroke: #add8e6"/>
     <use xlink:href="#m24a165f08e" x="73.182989" y="147.831653" style="fill: #add8e6; stroke: #add8e6"/>
     <use xlink:href="#m24a165f08e" x="71.343009" y="146.178438" style="fill: #add8e6; stroke: #add8e6"/>
     <use xlink:href="#m24a165f08e" x="69.503029" y="144.535161" style="fill: #add8e6; stroke: #add8e6"/>
     <use xlink:href="#m24a165f08e" x="67.663048" y="142.901042" style="fill: #add8e6; stroke: #add8e6"/>
     <use xlink:href="#m24a165f08e" x="65.823067" y="141.265753" style="fill: #add8e6; stroke: #add8e6"/>
     <use xlink:href="#m24a165f08e" x="63.983085" y="139.62344" style="fill: #add8e6; stroke: #add8e6"/>
     <use xlink:href="#m24a165f08e" x="62.143103" y="137.963291" style="fill: #add8e6; stroke: #add8e6"/>
     <use xlink:href="#m24a165f08e" x="60.30312" y="136.261262" style="fill: #add8e6; stroke: #add8e6"/>
     <use xlink:href="#m24a165f08e" x="58.463136" y="134.498909" style="fill: #add8e6; stroke: #add8e6"/>
     <use xlink:href="#m24a165f08e" x="56.623153" y="132.643385" style="fill: #add8e6; stroke: #add8e6"/>
     <use xlink:href="#m24a165f08e" x="54.783169" y="130.640614" style="fill: #add8e6; stroke: #add8e6"/>
     <use xlink:href="#m24a165f08e" x="52.943185" y="128.423378" style="fill: #add8e6; stroke: #add8e6"/>
     <use xlink:href="#m24a165f08e" x="51.103201" y="125.875109" style="fill: #add8e6; stroke: #add8e6"/>
     <use xlink:href="#m24a165f08e" x="49.263217" y="122.801595" style="fill: #add8e6; stroke: #add8e6"/>
     <use xlink:href="#m24a165f08e" x="47.423232" y="118.534263" style="fill: #add8e6; stroke: #add8e6"/>
     <use xlink:href="#m24a165f08e" x="45.583247" y="111.607559" style="fill: #add8e6; stroke: #add8e6"/>
     <use xlink:href="#m24a165f08e" x="43.743262" y="99.574605" style="fill: #add8e6; stroke: #add8e6"/>
     <use xlink:href="#m24a165f08e" x="41.315497" y="111.207193" style="fill: #add8e6; stroke: #add8e6"/>
     <use xlink:href="#m24a165f08e" x="40.733443" y="194.469243" style="fill: #add8e6; stroke: #add8e6"/>
     <use xlink:href="#m24a165f08e" x="40.150386" y="130.709918" style="fill: #add8e6; stroke: #add8e6"/>
    </g>
   </g>
   <g id="patch_3">
    <path d="M 40.150386 228.96 
L 40.150386 7.2 
" style="fill: none; stroke: #000000; stroke-width: 0.8; stroke-linejoin: miter; stroke-linecap: square"/>
   </g>
   <g id="patch_4">
    <path d="M 374.950386 228.96 
L 374.950386 7.2 
" style="fill: none; stroke: #000000; stroke-width: 0.8; stroke-linejoin: miter; stroke-linecap: square"/>
   </g>
   <g id="patch_5">
    <path d="M 40.150386 228.96 
L 374.950386 228.96 
" style="fill: none; stroke: #000000; stroke-width: 0.8; stroke-linejoin: miter; stroke-linecap: square"/>
   </g>
   <g id="patch_6">
    <path d="M 40.150386 7.2 
L 374.950386 7.2 
" style="fill: none; stroke: #000000; stroke-width: 0.8; stroke-linejoin: miter; stroke-linecap: square"/>
   </g>
   <g id="legend_1">
    <g id="patch_7">
     <path d="M 45.150386 44.009348 
L 123.222094 44.009348 
L 123.222094 12.2 
L 45.150386 12.2 
z
" style="fill: #ffffff; opacity: 0.8; stroke: #000000; stroke-linejoin: miter"/>
    </g>
    <g id="line2d_20">
     <path d="M 49.150386 19.982687 
L 59.150386 19.982687 
L 69.150386 19.982687 
" style="fill: none; stroke: #00008b; stroke-width: 1.5; stroke-linecap: square"/>
     <g>
      <use xlink:href="#m7741a1b10f" x="59.150386" y="19.982687" style="fill: #00008b; stroke: #00008b"/>
     </g>
    </g>
    <g id="text_20">
     <!-- SU2 (SS) -->
     <g transform="translate(77.150386 23.482687) scale(0.1 -0.1)">
      <defs>
       <path id="NimbusSanL-Regu-55" d="M 3533 4672 
L 3533 1404 
C 3533 779 3078 396 2330 396 
C 1984 396 1702 479 1478 639 
C 1248 817 1139 1053 1139 1404 
L 1139 4672 
L 544 4672 
L 544 1404 
C 544 460 1222 -128 2330 -128 
C 3424 -128 4128 473 4128 1404 
L 4128 4672 
L 3533 4672 
z
" transform="scale(0.015625)"/>
       <path id="NimbusSanL-Regu-32" d="M 3238 556 
L 851 556 
C 909 928 1114 1165 1670 1493 
L 2310 1839 
C 2944 2185 3270 2653 3270 3211 
C 3270 3589 3117 3942 2848 4185 
C 2579 4428 2246 4544 1818 4544 
C 1242 4544 813 4339 563 3955 
C 403 3711 333 3429 320 2967 
L 883 2967 
C 902 3275 941 3461 1018 3608 
C 1165 3884 1459 4051 1798 4051 
C 2310 4051 2694 3685 2694 3198 
C 2694 2839 2483 2531 2080 2300 
L 1491 1967 
C 544 1428 269 999 218 0 
L 3238 0 
L 3238 556 
z
" transform="scale(0.015625)"/>
       <path id="NimbusSanL-Regu-28" d="M 1510 4672 
C 870 3833 467 2668 467 1663 
C 467 652 870 -513 1510 -1351 
L 1862 -1351 
C 1299 -436 986 639 986 1663 
C 986 2681 1299 3763 1862 4672 
L 1510 4672 
z
" transform="scale(0.015625)"/>
       <path id="NimbusSanL-Regu-29" d="M 595 -1351 
C 1235 -513 1638 652 1638 1657 
C 1638 2668 1235 3833 595 4672 
L 243 4672 
C 806 3756 1120 2681 1120 1657 
C 1120 639 806 -442 243 -1351 
L 595 -1351 
z
" transform="scale(0.015625)"/>
      </defs>
      <use xlink:href="#NimbusSanL-Regu-53" transform="scale(0.996264)"/>
      <use xlink:href="#NimbusSanL-Regu-55" transform="translate(66.450031 0) scale(0.996264)"/>
      <use xlink:href="#NimbusSanL-Regu-32" transform="translate(138.380016 0) scale(0.996264)"/>
      <use xlink:href="#NimbusSanL-Regu-28" transform="translate(221.466863 0) scale(0.996264)"/>
      <use xlink:href="#NimbusSanL-Regu-53" transform="translate(254.642092 0) scale(0.996264)"/>
      <use xlink:href="#NimbusSanL-Regu-53" transform="translate(321.092123 0) scale(0.996264)"/>
      <use xlink:href="#NimbusSanL-Regu-29" transform="translate(387.542155 0) scale(0.996264)"/>
     </g>
    </g>
    <g id="line2d_21">
     <path d="M 49.150386 34.387361 
L 59.150386 34.387361 
L 69.150386 34.387361 
" style="fill: none; stroke: #add8e6; stroke-width: 1.5; stroke-linecap: square"/>
     <g>
      <use xlink:href="#m24a165f08e" x="59.150386" y="34.387361" style="fill: #add8e6; stroke: #add8e6"/>
     </g>
    </g>
    <g id="text_21">
     <!-- SU2 (PS) -->
     <g transform="translate(77.150386 37.887361) scale(0.1 -0.1)">
      <use xlink:href="#NimbusSanL-Regu-53" transform="scale(0.996264)"/>
      <use xlink:href="#NimbusSanL-Regu-55" transform="translate(66.450031 0) scale(0.996264)"/>
      <use xlink:href="#NimbusSanL-Regu-32" transform="translate(138.380016 0) scale(0.996264)"/>
      <use xlink:href="#NimbusSanL-Regu-28" transform="translate(221.466863 0) scale(0.996264)"/>
      <use xlink:href="#NimbusSanL-Regu-50" transform="translate(254.642092 0) scale(0.996264)"/>
      <use xlink:href="#NimbusSanL-Regu-53" transform="translate(321.092123 0) scale(0.996264)"/>
      <use xlink:href="#NimbusSanL-Regu-29" transform="translate(387.542155 0) scale(0.996264)"/>
     </g>
    </g>
   </g>
  </g>
 </g>
 <defs>
  <clipPath id="p0240933bd5">
   <rect x="40.150386" y="7.2" width="334.8" height="221.76"/>
  </clipPath>
 </defs>
</svg>
