<?xml version="1.0" encoding="utf-8" standalone="no"?>
<!DOCTYPE svg PUBLIC "-//W3C//DTD SVG 1.1//EN"
  "http://www.w3.org/Graphics/SVG/1.1/DTD/svg11.dtd">
<svg xmlns:xlink="http://www.w3.org/1999/xlink" width="391.19046pt" height="265.600613pt" viewBox="0 0 391.19046 265.600613" xmlns="http://www.w3.org/2000/svg" version="1.1">
 <metadata>
  <rdf:RDF xmlns:dc="http://purl.org/dc/elements/1.1/" xmlns:cc="http://creativecommons.org/ns#" xmlns:rdf="http://www.w3.org/1999/02/22-rdf-syntax-ns#">
   <cc:Work>
    <dc:type rdf:resource="http://purl.org/dc/dcmitype/StillImage"/>
    <dc:date>2025-07-17T17:55:34.521772</dc:date>
    <dc:format>image/svg+xml</dc:format>
    <dc:creator>
     <cc:Agent>
      <dc:title>Matplotlib v3.10.3, https://matplotlib.org/</dc:title>
     </cc:Agent>
    </dc:creator>
   </cc:Work>
  </rdf:RDF>
 </metadata>
 <defs>
  <style type="text/css">*{stroke-linejoin: round; stroke-linecap: butt}</style>
 </defs>
 <g id="figure_1">
  <g id="patch_1">
   <path d="M 0 265.600613 
L 391.19046 265.600613 
L 391.19046 0 
L 0 0 
z
" style="fill: #ffffff"/>
  </g>
  <g id="axes_1">
   <g id="patch_2">
    <path d="M 40.334753 228.96 
L 375.134753 228.96 
L 375.134753 7.2 
L 40.334753 7.2 
z
" style="fill: #ffffff"/>
   </g>
   <g id="PathCollection_1">
    <defs>
     <path id="m2ddea26f22" d="M 0 0.353553 
C 0.093763 0.353553 0.183699 0.316301 0.25 0.25 
C 0.316301 0.183699 0.353553 0.093763 0.353553 0 
C 0.353553 -0.093763 0.316301 -0.183699 0.25 -0.25 
C 0.183699 -0.316301 0.093763 -0.353553 0 -0.353553 
C -0.093763 -0.353553 -0.183699 -0.316301 -0.25 -0.25 
C -0.316301 -0.183699 -0.353553 -0.093763 -0.353553 0 
C -0.353553 0.093763 -0.316301 0.183699 -0.25 0.25 
C -0.183699 0.316301 -0.093763 0.353553 0 0.353553 
z
" style="stroke: #ff0000"/>
    </defs>
    <g clip-path="url(#paa04a6df11)">
     <use xlink:href="#m2ddea26f22" x="207.734753" y="173.765985" style="fill: #ff0000; stroke: #ff0000"/>
     <use xlink:href="#m2ddea26f22" x="207.187575" y="173.765985" style="fill: #ff0000; stroke: #ff0000"/>
     <use xlink:href="#m2ddea26f22" x="206.540286" y="177.03113" style="fill: #ff0000; stroke: #ff0000"/>
     <use xlink:href="#m2ddea26f22" x="205.733869" y="174.355058" style="fill: #ff0000; stroke: #ff0000"/>
     <use xlink:href="#m2ddea26f22" x="204.767005" y="135.341624" style="fill: #ff0000; stroke: #ff0000"/>
     <use xlink:href="#m2ddea26f22" x="203.653822" y="153.036241" style="fill: #ff0000; stroke: #ff0000"/>
     <use xlink:href="#m2ddea26f22" x="202.376678" y="148.665884" style="fill: #ff0000; stroke: #ff0000"/>
     <use xlink:href="#m2ddea26f22" x="200.884873" y="158.893306" style="fill: #ff0000; stroke: #ff0000"/>
     <use xlink:href="#m2ddea26f22" x="199.0902" y="154.982986" style="fill: #ff0000; stroke: #ff0000"/>
     <use xlink:href="#m2ddea26f22" x="196.891704" y="168.486773" style="fill: #ff0000; stroke: #ff0000"/>
     <use xlink:href="#m2ddea26f22" x="194.456161" y="176.458889" style="fill: #ff0000; stroke: #ff0000"/>
     <use xlink:href="#m2ddea26f22" x="192.148111" y="183.146265" style="fill: #ff0000; stroke: #ff0000"/>
     <use xlink:href="#m2ddea26f22" x="190.017808" y="187.017313" style="fill: #ff0000; stroke: #ff0000"/>
     <use xlink:href="#m2ddea26f22" x="188.017962" y="190.024388" style="fill: #ff0000; stroke: #ff0000"/>
     <use xlink:href="#m2ddea26f22" x="186.107064" y="192.492883" style="fill: #ff0000; stroke: #ff0000"/>
     <use xlink:href="#m2ddea26f22" x="184.25843" y="194.630374" style="fill: #ff0000; stroke: #ff0000"/>
     <use xlink:href="#m2ddea26f22" x="182.455752" y="196.532237" style="fill: #ff0000; stroke: #ff0000"/>
     <use xlink:href="#m2ddea26f22" x="180.685688" y="198.310675" style="fill: #ff0000; stroke: #ff0000"/>
     <use xlink:href="#m2ddea26f22" x="178.940826" y="200.072283" style="fill: #ff0000; stroke: #ff0000"/>
     <use xlink:href="#m2ddea26f22" x="177.212271" y="201.643143" style="fill: #ff0000; stroke: #ff0000"/>
     <use xlink:href="#m2ddea26f22" x="175.498541" y="203.107409" style="fill: #ff0000; stroke: #ff0000"/>
     <use xlink:href="#m2ddea26f22" x="173.792224" y="204.453861" style="fill: #ff0000; stroke: #ff0000"/>
     <use xlink:href="#m2ddea26f22" x="172.093318" y="205.710549" style="fill: #ff0000; stroke: #ff0000"/>
     <use xlink:href="#m2ddea26f22" x="170.397378" y="206.888694" style="fill: #ff0000; stroke: #ff0000"/>
     <use xlink:href="#m2ddea26f22" x="168.704402" y="208.010737" style="fill: #ff0000; stroke: #ff0000"/>
     <use xlink:href="#m2ddea26f22" x="167.011427" y="209.065457" style="fill: #ff0000; stroke: #ff0000"/>
     <use xlink:href="#m2ddea26f22" x="165.316969" y="210.069686" style="fill: #ff0000; stroke: #ff0000"/>
     <use xlink:href="#m2ddea26f22" x="163.621028" y="210.978541" style="fill: #ff0000; stroke: #ff0000"/>
     <use xlink:href="#m2ddea26f22" x="161.92064" y="211.803242" style="fill: #ff0000; stroke: #ff0000"/>
     <use xlink:href="#m2ddea26f22" x="160.214322" y="212.555011" style="fill: #ff0000; stroke: #ff0000"/>
     <use xlink:href="#m2ddea26f22" x="158.502075" y="213.245067" style="fill: #ff0000; stroke: #ff0000"/>
     <use xlink:href="#m2ddea26f22" x="156.782415" y="213.867801" style="fill: #ff0000; stroke: #ff0000"/>
     <use xlink:href="#m2ddea26f22" x="155.05386" y="214.434433" style="fill: #ff0000; stroke: #ff0000"/>
     <use xlink:href="#m2ddea26f22" x="153.316411" y="214.939352" style="fill: #ff0000; stroke: #ff0000"/>
     <use xlink:href="#m2ddea26f22" x="151.568584" y="215.39378" style="fill: #ff0000; stroke: #ff0000"/>
     <use xlink:href="#m2ddea26f22" x="149.811862" y="215.780885" style="fill: #ff0000; stroke: #ff0000"/>
     <use xlink:href="#m2ddea26f22" x="148.046246" y="216.095057" style="fill: #ff0000; stroke: #ff0000"/>
     <use xlink:href="#m2ddea26f22" x="146.270252" y="216.347516" style="fill: #ff0000; stroke: #ff0000"/>
     <use xlink:href="#m2ddea26f22" x="144.483881" y="216.555094" style="fill: #ff0000; stroke: #ff0000"/>
     <use xlink:href="#m2ddea26f22" x="142.690098" y="216.71218" style="fill: #ff0000; stroke: #ff0000"/>
     <use xlink:href="#m2ddea26f22" x="140.885938" y="216.841215" style="fill: #ff0000; stroke: #ff0000"/>
     <use xlink:href="#m2ddea26f22" x="139.075847" y="216.930979" style="fill: #ff0000; stroke: #ff0000"/>
     <use xlink:href="#m2ddea26f22" x="137.258345" y="217.003911" style="fill: #ff0000; stroke: #ff0000"/>
     <use xlink:href="#m2ddea26f22" x="135.43343" y="217.054403" style="fill: #ff0000; stroke: #ff0000"/>
     <use xlink:href="#m2ddea26f22" x="133.602585" y="217.093675" style="fill: #ff0000; stroke: #ff0000"/>
     <use xlink:href="#m2ddea26f22" x="131.767293" y="217.110505" style="fill: #ff0000; stroke: #ff0000"/>
     <use xlink:href="#m2ddea26f22" x="129.926071" y="217.132946" style="fill: #ff0000; stroke: #ff0000"/>
     <use xlink:href="#m2ddea26f22" x="128.080401" y="217.144167" style="fill: #ff0000; stroke: #ff0000"/>
     <use xlink:href="#m2ddea26f22" x="126.230284" y="217.149777" style="fill: #ff0000; stroke: #ff0000"/>
     <use xlink:href="#m2ddea26f22" x="124.374237" y="217.155387" style="fill: #ff0000; stroke: #ff0000"/>
     <use xlink:href="#m2ddea26f22" x="122.515226" y="217.160997" style="fill: #ff0000; stroke: #ff0000"/>
     <use xlink:href="#m2ddea26f22" x="120.653249" y="217.166608" style="fill: #ff0000; stroke: #ff0000"/>
     <use xlink:href="#m2ddea26f22" x="118.785343" y="217.183438" style="fill: #ff0000; stroke: #ff0000"/>
     <use xlink:href="#m2ddea26f22" x="116.912989" y="217.205879" style="fill: #ff0000; stroke: #ff0000"/>
     <use xlink:href="#m2ddea26f22" x="115.036187" y="217.22832" style="fill: #ff0000; stroke: #ff0000"/>
     <use xlink:href="#m2ddea26f22" x="113.153456" y="217.245151" style="fill: #ff0000; stroke: #ff0000"/>
     <use xlink:href="#m2ddea26f22" x="111.266278" y="217.256371" style="fill: #ff0000; stroke: #ff0000"/>
     <use xlink:href="#m2ddea26f22" x="109.371687" y="217.273202" style="fill: #ff0000; stroke: #ff0000"/>
     <use xlink:href="#m2ddea26f22" x="107.469684" y="217.273202" style="fill: #ff0000; stroke: #ff0000"/>
     <use xlink:href="#m2ddea26f22" x="105.561751" y="217.273202" style="fill: #ff0000; stroke: #ff0000"/>
     <use xlink:href="#m2ddea26f22" x="103.644923" y="217.261981" style="fill: #ff0000; stroke: #ff0000"/>
     <use xlink:href="#m2ddea26f22" x="101.7192" y="217.245151" style="fill: #ff0000; stroke: #ff0000"/>
     <use xlink:href="#m2ddea26f22" x="99.784583" y="217.2171" style="fill: #ff0000; stroke: #ff0000"/>
     <use xlink:href="#m2ddea26f22" x="97.838106" y="217.183438" style="fill: #ff0000; stroke: #ff0000"/>
     <use xlink:href="#m2ddea26f22" x="95.881251" y="217.138557" style="fill: #ff0000; stroke: #ff0000"/>
     <use xlink:href="#m2ddea26f22" x="93.912537" y="217.076844" style="fill: #ff0000; stroke: #ff0000"/>
     <use xlink:href="#m2ddea26f22" x="91.931963" y="217.009522" style="fill: #ff0000; stroke: #ff0000"/>
     <use xlink:href="#m2ddea26f22" x="89.935082" y="216.930979" style="fill: #ff0000; stroke: #ff0000"/>
     <use xlink:href="#m2ddea26f22" x="87.926342" y="216.835605" style="fill: #ff0000; stroke: #ff0000"/>
     <use xlink:href="#m2ddea26f22" x="85.899811" y="216.729011" style="fill: #ff0000; stroke: #ff0000"/>
     <use xlink:href="#m2ddea26f22" x="83.858456" y="216.622417" style="fill: #ff0000; stroke: #ff0000"/>
     <use xlink:href="#m2ddea26f22" x="81.799312" y="216.504602" style="fill: #ff0000; stroke: #ff0000"/>
     <use xlink:href="#m2ddea26f22" x="79.722378" y="216.375567" style="fill: #ff0000; stroke: #ff0000"/>
     <use xlink:href="#m2ddea26f22" x="77.627654" y="216.240922" style="fill: #ff0000; stroke: #ff0000"/>
     <use xlink:href="#m2ddea26f22" x="75.512176" y="216.089446" style="fill: #ff0000; stroke: #ff0000"/>
     <use xlink:href="#m2ddea26f22" x="73.377426" y="215.937971" style="fill: #ff0000; stroke: #ff0000"/>
     <use xlink:href="#m2ddea26f22" x="71.218956" y="215.775274" style="fill: #ff0000; stroke: #ff0000"/>
     <use xlink:href="#m2ddea26f22" x="69.039732" y="215.595747" style="fill: #ff0000; stroke: #ff0000"/>
     <use xlink:href="#m2ddea26f22" x="66.83827" y="215.427441" style="fill: #ff0000; stroke: #ff0000"/>
     <use xlink:href="#m2ddea26f22" x="64.611607" y="215.242304" style="fill: #ff0000; stroke: #ff0000"/>
     <use xlink:href="#m2ddea26f22" x="62.359742" y="215.073997" style="fill: #ff0000; stroke: #ff0000"/>
     <use xlink:href="#m2ddea26f22" x="60.084158" y="214.87203" style="fill: #ff0000; stroke: #ff0000"/>
     <use xlink:href="#m2ddea26f22" x="57.783371" y="214.720554" style="fill: #ff0000; stroke: #ff0000"/>
     <use xlink:href="#m2ddea26f22" x="55.455901" y="214.484925" style="fill: #ff0000; stroke: #ff0000"/>
     <use xlink:href="#m2ddea26f22" x="53.083956" y="214.406382" style="fill: #ff0000; stroke: #ff0000"/>
     <use xlink:href="#m2ddea26f22" x="50.697186" y="214.09782" style="fill: #ff0000; stroke: #ff0000"/>
     <use xlink:href="#m2ddea26f22" x="48.265943" y="214.193194" style="fill: #ff0000; stroke: #ff0000"/>
     <use xlink:href="#m2ddea26f22" x="45.790226" y="213.693885" style="fill: #ff0000; stroke: #ff0000"/>
     <use xlink:href="#m2ddea26f22" x="43.210736" y="214.591519" style="fill: #ff0000; stroke: #ff0000"/>
     <use xlink:href="#m2ddea26f22" x="40.334753" y="213.351662" style="fill: #ff0000; stroke: #ff0000"/>
     <use xlink:href="#m2ddea26f22" x="207.734753" y="173.160082" style="fill: #ff0000; stroke: #ff0000"/>
     <use xlink:href="#m2ddea26f22" x="208.171897" y="173.160082" style="fill: #ff0000; stroke: #ff0000"/>
     <use xlink:href="#m2ddea26f22" x="208.665755" y="179.954052" style="fill: #ff0000; stroke: #ff0000"/>
     <use xlink:href="#m2ddea26f22" x="209.242988" y="164.795252" style="fill: #ff0000; stroke: #ff0000"/>
     <use xlink:href="#m2ddea26f22" x="209.871789" y="160.497827" style="fill: #ff0000; stroke: #ff0000"/>
     <use xlink:href="#m2ddea26f22" x="210.535932" y="145.16511" style="fill: #ff0000; stroke: #ff0000"/>
     <use xlink:href="#m2ddea26f22" x="211.247316" y="143.712064" style="fill: #ff0000; stroke: #ff0000"/>
     <use xlink:href="#m2ddea26f22" x="212.023732" y="139.846626" style="fill: #ff0000; stroke: #ff0000"/>
     <use xlink:href="#m2ddea26f22" x="212.884052" y="139.717591" style="fill: #ff0000; stroke: #ff0000"/>
     <use xlink:href="#m2ddea26f22" x="213.847509" y="140.233731" style="fill: #ff0000; stroke: #ff0000"/>
     <use xlink:href="#m2ddea26f22" x="214.931534" y="141.456758" style="fill: #ff0000; stroke: #ff0000"/>
     <use xlink:href="#m2ddea26f22" x="216.148508" y="142.881752" style="fill: #ff0000; stroke: #ff0000"/>
     <use xlink:href="#m2ddea26f22" x="217.499753" y="144.267476" style="fill: #ff0000; stroke: #ff0000"/>
     <use xlink:href="#m2ddea26f22" x="218.973128" y="145.703691" style="fill: #ff0000; stroke: #ff0000"/>
     <use xlink:href="#m2ddea26f22" x="220.545192" y="146.590105" style="fill: #ff0000; stroke: #ff0000"/>
     <use xlink:href="#m2ddea26f22" x="222.188419" y="157.530024" style="fill: #ff0000; stroke: #ff0000"/>
     <use xlink:href="#m2ddea26f22" x="223.879729" y="177.104063" style="fill: #ff0000; stroke: #ff0000"/>
     <use xlink:href="#m2ddea26f22" x="225.602293" y="188.492799" style="fill: #ff0000; stroke: #ff0000"/>
     <use xlink:href="#m2ddea26f22" x="227.340483" y="192.68363" style="fill: #ff0000; stroke: #ff0000"/>
     <use xlink:href="#m2ddea26f22" x="229.08829" y="194.445237" style="fill: #ff0000; stroke: #ff0000"/>
     <use xlink:href="#m2ddea26f22" x="230.837299" y="195.56167" style="fill: #ff0000; stroke: #ff0000"/>
     <use xlink:href="#m2ddea26f22" x="232.583904" y="196.521017" style="fill: #ff0000; stroke: #ff0000"/>
     <use xlink:href="#m2ddea26f22" x="234.324499" y="197.429872" style="fill: #ff0000; stroke: #ff0000"/>
     <use xlink:href="#m2ddea26f22" x="236.057881" y="198.192861" style="fill: #ff0000; stroke: #ff0000"/>
     <use xlink:href="#m2ddea26f22" x="237.782849" y="198.787544" style="fill: #ff0000; stroke: #ff0000"/>
     <use xlink:href="#m2ddea26f22" x="239.496998" y="199.404667" style="fill: #ff0000; stroke: #ff0000"/>
     <use xlink:href="#m2ddea26f22" x="241.200328" y="199.819823" style="fill: #ff0000; stroke: #ff0000"/>
     <use xlink:href="#m2ddea26f22" x="242.89284" y="200.117165" style="fill: #ff0000; stroke: #ff0000"/>
     <use xlink:href="#m2ddea26f22" x="244.574533" y="200.324743" style="fill: #ff0000; stroke: #ff0000"/>
     <use xlink:href="#m2ddea26f22" x="246.245408" y="200.487439" style="fill: #ff0000; stroke: #ff0000"/>
     <use xlink:href="#m2ddea26f22" x="247.905464" y="200.638915" style="fill: #ff0000; stroke: #ff0000"/>
     <use xlink:href="#m2ddea26f22" x="249.555903" y="200.77917" style="fill: #ff0000; stroke: #ff0000"/>
     <use xlink:href="#m2ddea26f22" x="251.196726" y="200.919425" style="fill: #ff0000; stroke: #ff0000"/>
     <use xlink:href="#m2ddea26f22" x="252.830337" y="201.070901" style="fill: #ff0000; stroke: #ff0000"/>
     <use xlink:href="#m2ddea26f22" x="254.455533" y="201.239208" style="fill: #ff0000; stroke: #ff0000"/>
     <use xlink:href="#m2ddea26f22" x="256.073516" y="201.407514" style="fill: #ff0000; stroke: #ff0000"/>
     <use xlink:href="#m2ddea26f22" x="257.68549" y="201.587041" style="fill: #ff0000; stroke: #ff0000"/>
     <use xlink:href="#m2ddea26f22" x="259.291453" y="201.766568" style="fill: #ff0000; stroke: #ff0000"/>
     <use xlink:href="#m2ddea26f22" x="260.895011" y="201.957315" style="fill: #ff0000; stroke: #ff0000"/>
     <use xlink:href="#m2ddea26f22" x="262.494964" y="202.136842" style="fill: #ff0000; stroke: #ff0000"/>
     <use xlink:href="#m2ddea26f22" x="264.093715" y="202.321979" style="fill: #ff0000; stroke: #ff0000"/>
     <use xlink:href="#m2ddea26f22" x="265.691263" y="202.490286" style="fill: #ff0000; stroke: #ff0000"/>
     <use xlink:href="#m2ddea26f22" x="267.290014" y="202.652982" style="fill: #ff0000; stroke: #ff0000"/>
     <use xlink:href="#m2ddea26f22" x="268.891168" y="202.804458" style="fill: #ff0000; stroke: #ff0000"/>
     <use xlink:href="#m2ddea26f22" x="270.495929" y="202.939103" style="fill: #ff0000; stroke: #ff0000"/>
     <use xlink:href="#m2ddea26f22" x="272.1067" y="203.056917" style="fill: #ff0000; stroke: #ff0000"/>
     <use xlink:href="#m2ddea26f22" x="273.724684" y="203.163511" style="fill: #ff0000; stroke: #ff0000"/>
     <use xlink:href="#m2ddea26f22" x="275.351082" y="203.247665" style="fill: #ff0000; stroke: #ff0000"/>
     <use xlink:href="#m2ddea26f22" x="276.988299" y="203.320597" style="fill: #ff0000; stroke: #ff0000"/>
     <use xlink:href="#m2ddea26f22" x="278.638738" y="203.376699" style="fill: #ff0000; stroke: #ff0000"/>
     <use xlink:href="#m2ddea26f22" x="280.303602" y="203.427191" style="fill: #ff0000; stroke: #ff0000"/>
     <use xlink:href="#m2ddea26f22" x="281.985296" y="203.466463" style="fill: #ff0000; stroke: #ff0000"/>
     <use xlink:href="#m2ddea26f22" x="283.68502" y="203.494514" style="fill: #ff0000; stroke: #ff0000"/>
     <use xlink:href="#m2ddea26f22" x="285.407584" y="203.528175" style="fill: #ff0000; stroke: #ff0000"/>
     <use xlink:href="#m2ddea26f22" x="287.151784" y="203.556226" style="fill: #ff0000; stroke: #ff0000"/>
     <use xlink:href="#m2ddea26f22" x="288.922431" y="203.595498" style="fill: #ff0000; stroke: #ff0000"/>
     <use xlink:href="#m2ddea26f22" x="290.719522" y="203.64038" style="fill: #ff0000; stroke: #ff0000"/>
     <use xlink:href="#m2ddea26f22" x="292.546666" y="203.696482" style="fill: #ff0000; stroke: #ff0000"/>
     <use xlink:href="#m2ddea26f22" x="294.406265" y="203.769415" style="fill: #ff0000; stroke: #ff0000"/>
     <use xlink:href="#m2ddea26f22" x="296.299522" y="203.853568" style="fill: #ff0000; stroke: #ff0000"/>
     <use xlink:href="#m2ddea26f22" x="298.228842" y="203.960162" style="fill: #ff0000; stroke: #ff0000"/>
     <use xlink:href="#m2ddea26f22" x="300.194223" y="204.083587" style="fill: #ff0000; stroke: #ff0000"/>
     <use xlink:href="#m2ddea26f22" x="302.200475" y="204.223842" style="fill: #ff0000; stroke: #ff0000"/>
     <use xlink:href="#m2ddea26f22" x="304.248799" y="204.380928" style="fill: #ff0000; stroke: #ff0000"/>
     <use xlink:href="#m2ddea26f22" x="306.339195" y="204.549234" style="fill: #ff0000; stroke: #ff0000"/>
     <use xlink:href="#m2ddea26f22" x="308.47527" y="204.728761" style="fill: #ff0000; stroke: #ff0000"/>
     <use xlink:href="#m2ddea26f22" x="310.657023" y="204.913898" style="fill: #ff0000; stroke: #ff0000"/>
     <use xlink:href="#m2ddea26f22" x="312.88686" y="205.104646" style="fill: #ff0000; stroke: #ff0000"/>
     <use xlink:href="#m2ddea26f22" x="315.164779" y="205.289783" style="fill: #ff0000; stroke: #ff0000"/>
     <use xlink:href="#m2ddea26f22" x="317.493185" y="205.47492" style="fill: #ff0000; stroke: #ff0000"/>
     <use xlink:href="#m2ddea26f22" x="319.873279" y="205.648836" style="fill: #ff0000; stroke: #ff0000"/>
     <use xlink:href="#m2ddea26f22" x="322.307467" y="205.805923" style="fill: #ff0000; stroke: #ff0000"/>
     <use xlink:href="#m2ddea26f22" x="324.795748" y="205.951788" style="fill: #ff0000; stroke: #ff0000"/>
     <use xlink:href="#m2ddea26f22" x="327.339324" y="206.075213" style="fill: #ff0000; stroke: #ff0000"/>
     <use xlink:href="#m2ddea26f22" x="329.936993" y="206.176197" style="fill: #ff0000; stroke: #ff0000"/>
     <use xlink:href="#m2ddea26f22" x="332.605584" y="206.249129" style="fill: #ff0000; stroke: #ff0000"/>
     <use xlink:href="#m2ddea26f22" x="335.322258" y="206.299621" style="fill: #ff0000; stroke: #ff0000"/>
     <use xlink:href="#m2ddea26f22" x="338.099035" y="206.316452" style="fill: #ff0000; stroke: #ff0000"/>
     <use xlink:href="#m2ddea26f22" x="340.947937" y="206.299621" style="fill: #ff0000; stroke: #ff0000"/>
     <use xlink:href="#m2ddea26f22" x="343.844921" y="206.237909" style="fill: #ff0000; stroke: #ff0000"/>
     <use xlink:href="#m2ddea26f22" x="346.802008" y="206.136925" style="fill: #ff0000; stroke: #ff0000"/>
     <use xlink:href="#m2ddea26f22" x="349.819199" y="205.957398" style="fill: #ff0000; stroke: #ff0000"/>
     <use xlink:href="#m2ddea26f22" x="352.872452" y="205.7386" style="fill: #ff0000; stroke: #ff0000"/>
     <use xlink:href="#m2ddea26f22" x="355.961767" y="205.379546" style="fill: #ff0000; stroke: #ff0000"/>
     <use xlink:href="#m2ddea26f22" x="359.087144" y="204.95878" style="fill: #ff0000; stroke: #ff0000"/>
     <use xlink:href="#m2ddea26f22" x="362.224542" y="204.302385" style="fill: #ff0000; stroke: #ff0000"/>
     <use xlink:href="#m2ddea26f22" x="365.385981" y="203.601108" style="fill: #ff0000; stroke: #ff0000"/>
     <use xlink:href="#m2ddea26f22" x="368.54742" y="202.445404" style="fill: #ff0000; stroke: #ff0000"/>
     <use xlink:href="#m2ddea26f22" x="371.756942" y="201.463616" style="fill: #ff0000; stroke: #ff0000"/>
     <use xlink:href="#m2ddea26f22" x="375.134753" y="199.4776" style="fill: #ff0000; stroke: #ff0000"/>
    </g>
   </g>
   <g id="matplotlib.axis_1">
    <g id="xtick_1">
     <g id="line2d_1">
      <defs>
       <path id="m7685012251" d="M 0 0 
L 0 3.5 
" style="stroke: #000000; stroke-width: 0.8"/>
      </defs>
      <g>
       <use xlink:href="#m7685012251" x="40.334753" y="228.96" style="stroke: #000000; stroke-width: 0.8"/>
      </g>
     </g>
     <g id="text_1">
      <!-- $\mathdefault{−1.00}$ -->
      <g transform="translate(27.604674 243.05832) scale(0.1 -0.1)">
       <defs>
        <path id="CMSY10-0" d="M 4218 1472 
C 4326 1472 4442 1472 4442 1600 
C 4442 1728 4326 1728 4218 1728 
L 755 1728 
C 646 1728 531 1728 531 1600 
C 531 1472 646 1472 755 1472 
L 4218 1472 
z
" transform="scale(0.015625)"/>
        <path id="CMR17-31" d="M 1702 4083 
C 1702 4217 1696 4224 1606 4224 
C 1357 3927 979 3833 621 3820 
C 602 3820 570 3820 563 3808 
C 557 3795 557 3782 557 3648 
C 755 3648 1088 3686 1344 3839 
L 1344 467 
C 1344 243 1331 166 781 166 
L 589 166 
L 589 0 
C 896 6 1216 12 1523 12 
C 1830 12 2150 6 2458 0 
L 2458 166 
L 2266 166 
C 1715 166 1702 236 1702 467 
L 1702 4083 
z
" transform="scale(0.015625)"/>
        <path id="CMMI12-3a" d="M 1178 307 
C 1178 492 1024 620 870 620 
C 685 620 557 467 557 313 
C 557 128 710 0 864 0 
C 1050 0 1178 153 1178 307 
z
" transform="scale(0.015625)"/>
        <path id="CMR17-30" d="M 2688 2038 
C 2688 2430 2682 3099 2413 3613 
C 2176 4063 1798 4224 1466 4224 
C 1158 4224 768 4082 525 3620 
C 269 3137 243 2539 243 2038 
C 243 1671 250 1112 448 623 
C 723 -39 1216 -128 1466 -128 
C 1760 -128 2208 -7 2470 604 
C 2662 1048 2688 1568 2688 2038 
z
M 1466 -26 
C 1056 -26 813 328 723 816 
C 653 1196 653 1749 653 2109 
C 653 2604 653 3015 736 3407 
C 858 3954 1216 4121 1466 4121 
C 1728 4121 2067 3947 2189 3420 
C 2272 3054 2278 2623 2278 2109 
C 2278 1691 2278 1176 2202 797 
C 2067 96 1690 -26 1466 -26 
z
" transform="scale(0.015625)"/>
       </defs>
       <use xlink:href="#CMSY10-0" transform="scale(0.996264)"/>
       <use xlink:href="#CMR17-31" transform="translate(77.487468 0) scale(0.996264)"/>
       <use xlink:href="#CMMI12-3a" transform="translate(123.177945 0) scale(0.996264)"/>
       <use xlink:href="#CMR17-30" transform="translate(150.275122 0) scale(0.996264)"/>
       <use xlink:href="#CMR17-30" transform="translate(195.965599 0) scale(0.996264)"/>
      </g>
     </g>
    </g>
    <g id="xtick_2">
     <g id="line2d_2">
      <g>
       <use xlink:href="#m7685012251" x="82.184753" y="228.96" style="stroke: #000000; stroke-width: 0.8"/>
      </g>
     </g>
     <g id="text_2">
      <!-- $\mathdefault{−0.75}$ -->
      <g transform="translate(69.454674 243.05832) scale(0.1 -0.1)">
       <defs>
        <path id="CMR17-37" d="M 2886 3955 
L 2886 4096 
L 1382 4096 
C 634 4096 621 4166 595 4288 
L 480 4288 
L 294 3104 
L 410 3104 
C 429 3226 474 3552 550 3673 
C 589 3724 1062 3724 1171 3724 
L 2579 3724 
L 1869 2670 
C 1395 1961 1069 1003 1069 166 
C 1069 89 1069 -128 1299 -128 
C 1530 -128 1530 89 1530 172 
L 1530 466 
C 1530 1514 1709 2204 2003 2644 
L 2886 3955 
z
" transform="scale(0.015625)"/>
        <path id="CMR17-35" d="M 730 3750 
C 794 3724 1056 3641 1325 3641 
C 1920 3641 2246 3961 2432 4140 
C 2432 4191 2432 4224 2394 4224 
C 2387 4224 2374 4224 2323 4198 
C 2099 4102 1837 4032 1517 4032 
C 1325 4032 1037 4055 723 4191 
C 653 4224 640 4224 634 4224 
C 602 4224 595 4217 595 4090 
L 595 2231 
C 595 2113 595 2080 659 2080 
C 691 2080 704 2093 736 2139 
C 941 2435 1222 2560 1542 2560 
C 1766 2560 2246 2415 2246 1293 
C 2246 1087 2246 716 2054 422 
C 1894 159 1645 25 1370 25 
C 947 25 518 319 403 812 
C 429 806 480 793 506 793 
C 589 793 749 838 749 1036 
C 749 1209 627 1280 506 1280 
C 358 1280 262 1190 262 1011 
C 262 454 704 -128 1382 -128 
C 2042 -128 2669 441 2669 1267 
C 2669 2054 2170 2662 1549 2662 
C 1222 2662 947 2540 730 2304 
L 730 3750 
z
" transform="scale(0.015625)"/>
       </defs>
       <use xlink:href="#CMSY10-0" transform="scale(0.996264)"/>
       <use xlink:href="#CMR17-30" transform="translate(77.487468 0) scale(0.996264)"/>
       <use xlink:href="#CMMI12-3a" transform="translate(123.177945 0) scale(0.996264)"/>
       <use xlink:href="#CMR17-37" transform="translate(150.275122 0) scale(0.996264)"/>
       <use xlink:href="#CMR17-35" transform="translate(195.965599 0) scale(0.996264)"/>
      </g>
     </g>
    </g>
    <g id="xtick_3">
     <g id="line2d_3">
      <g>
       <use xlink:href="#m7685012251" x="124.034753" y="228.96" style="stroke: #000000; stroke-width: 0.8"/>
      </g>
     </g>
     <g id="text_3">
      <!-- $\mathdefault{−0.50}$ -->
      <g transform="translate(111.304674 243.05832) scale(0.1 -0.1)">
       <use xlink:href="#CMSY10-0" transform="scale(0.996264)"/>
       <use xlink:href="#CMR17-30" transform="translate(77.487468 0) scale(0.996264)"/>
       <use xlink:href="#CMMI12-3a" transform="translate(123.177945 0) scale(0.996264)"/>
       <use xlink:href="#CMR17-35" transform="translate(150.275122 0) scale(0.996264)"/>
       <use xlink:href="#CMR17-30" transform="translate(195.965599 0) scale(0.996264)"/>
      </g>
     </g>
    </g>
    <g id="xtick_4">
     <g id="line2d_4">
      <g>
       <use xlink:href="#m7685012251" x="165.884753" y="228.96" style="stroke: #000000; stroke-width: 0.8"/>
      </g>
     </g>
     <g id="text_4">
      <!-- $\mathdefault{−0.25}$ -->
      <g transform="translate(153.154674 243.05832) scale(0.1 -0.1)">
       <defs>
        <path id="CMR17-32" d="M 2669 990 
L 2554 990 
C 2490 537 2438 460 2413 422 
C 2381 371 1920 371 1830 371 
L 602 371 
C 832 620 1280 1073 1824 1596 
C 2214 1966 2669 2400 2669 3033 
C 2669 3788 2067 4224 1395 4224 
C 691 4224 262 3603 262 3027 
C 262 2777 448 2745 525 2745 
C 589 2745 781 2783 781 3007 
C 781 3206 614 3264 525 3264 
C 486 3264 448 3257 422 3244 
C 544 3788 915 4057 1306 4057 
C 1862 4057 2227 3616 2227 3033 
C 2227 2477 1901 1998 1536 1583 
L 262 147 
L 262 0 
L 2515 0 
L 2669 990 
z
" transform="scale(0.015625)"/>
       </defs>
       <use xlink:href="#CMSY10-0" transform="scale(0.996264)"/>
       <use xlink:href="#CMR17-30" transform="translate(77.487468 0) scale(0.996264)"/>
       <use xlink:href="#CMMI12-3a" transform="translate(123.177945 0) scale(0.996264)"/>
       <use xlink:href="#CMR17-32" transform="translate(150.275122 0) scale(0.996264)"/>
       <use xlink:href="#CMR17-35" transform="translate(195.965599 0) scale(0.996264)"/>
      </g>
     </g>
    </g>
    <g id="xtick_5">
     <g id="line2d_5">
      <g>
       <use xlink:href="#m7685012251" x="207.734753" y="228.96" style="stroke: #000000; stroke-width: 0.8"/>
      </g>
     </g>
     <g id="text_5">
      <!-- $\mathdefault{0.00}$ -->
      <g transform="translate(198.879046 243.05832) scale(0.1 -0.1)">
       <use xlink:href="#CMR17-30" transform="scale(0.996264)"/>
       <use xlink:href="#CMMI12-3a" transform="translate(45.690477 0) scale(0.996264)"/>
       <use xlink:href="#CMR17-30" transform="translate(72.787654 0) scale(0.996264)"/>
       <use xlink:href="#CMR17-30" transform="translate(118.478131 0) scale(0.996264)"/>
      </g>
     </g>
    </g>
    <g id="xtick_6">
     <g id="line2d_6">
      <g>
       <use xlink:href="#m7685012251" x="249.584753" y="228.96" style="stroke: #000000; stroke-width: 0.8"/>
      </g>
     </g>
     <g id="text_6">
      <!-- $\mathdefault{0.25}$ -->
      <g transform="translate(240.729046 243.05832) scale(0.1 -0.1)">
       <use xlink:href="#CMR17-30" transform="scale(0.996264)"/>
       <use xlink:href="#CMMI12-3a" transform="translate(45.690477 0) scale(0.996264)"/>
       <use xlink:href="#CMR17-32" transform="translate(72.787654 0) scale(0.996264)"/>
       <use xlink:href="#CMR17-35" transform="translate(118.478131 0) scale(0.996264)"/>
      </g>
     </g>
    </g>
    <g id="xtick_7">
     <g id="line2d_7">
      <g>
       <use xlink:href="#m7685012251" x="291.434753" y="228.96" style="stroke: #000000; stroke-width: 0.8"/>
      </g>
     </g>
     <g id="text_7">
      <!-- $\mathdefault{0.50}$ -->
      <g transform="translate(282.579046 243.05832) scale(0.1 -0.1)">
       <use xlink:href="#CMR17-30" transform="scale(0.996264)"/>
       <use xlink:href="#CMMI12-3a" transform="translate(45.690477 0) scale(0.996264)"/>
       <use xlink:href="#CMR17-35" transform="translate(72.787654 0) scale(0.996264)"/>
       <use xlink:href="#CMR17-30" transform="translate(118.478131 0) scale(0.996264)"/>
      </g>
     </g>
    </g>
    <g id="xtick_8">
     <g id="line2d_8">
      <g>
       <use xlink:href="#m7685012251" x="333.284753" y="228.96" style="stroke: #000000; stroke-width: 0.8"/>
      </g>
     </g>
     <g id="text_8">
      <!-- $\mathdefault{0.75}$ -->
      <g transform="translate(324.429046 243.05832) scale(0.1 -0.1)">
       <use xlink:href="#CMR17-30" transform="scale(0.996264)"/>
       <use xlink:href="#CMMI12-3a" transform="translate(45.690477 0) scale(0.996264)"/>
       <use xlink:href="#CMR17-37" transform="translate(72.787654 0) scale(0.996264)"/>
       <use xlink:href="#CMR17-35" transform="translate(118.478131 0) scale(0.996264)"/>
      </g>
     </g>
    </g>
    <g id="xtick_9">
     <g id="line2d_9">
      <g>
       <use xlink:href="#m7685012251" x="375.134753" y="228.96" style="stroke: #000000; stroke-width: 0.8"/>
      </g>
     </g>
     <g id="text_9">
      <!-- $\mathdefault{1.00}$ -->
      <g transform="translate(366.279046 243.05832) scale(0.1 -0.1)">
       <use xlink:href="#CMR17-31" transform="scale(0.996264)"/>
       <use xlink:href="#CMMI12-3a" transform="translate(45.690477 0) scale(0.996264)"/>
       <use xlink:href="#CMR17-30" transform="translate(72.787654 0) scale(0.996264)"/>
       <use xlink:href="#CMR17-30" transform="translate(118.478131 0) scale(0.996264)"/>
      </g>
     </g>
    </g>
    <g id="text_10">
     <!-- S/S_{total} -->
     <g transform="translate(188.497209 256.278627) scale(0.1 -0.1)">
      <defs>
       <path id="NimbusSanL-Regu-53" d="M 3814 3295 
C 3808 4204 3181 4736 2106 4736 
C 1082 4736 448 4211 448 3372 
C 448 2806 749 2450 1363 2291 
L 2522 1986 
C 3110 1833 3379 1598 3379 1236 
C 3379 988 3245 733 3046 593 
C 2861 466 2566 396 2189 396 
C 1683 396 1338 517 1114 784 
C 941 988 864 1210 870 1496 
L 307 1496 
C 314 1070 397 790 582 536 
C 902 102 1440 -128 2150 -128 
C 2707 -128 3162 0 3462 230 
C 3776 479 3974 892 3974 1293 
C 3974 1865 3616 2284 2982 2456 
L 1811 2768 
C 1248 2920 1043 3098 1043 3454 
C 1043 3925 1459 4236 2086 4236 
C 2829 4236 3245 3899 3251 3295 
L 3814 3295 
z
" transform="scale(0.015625)"/>
       <path id="NimbusSanL-Regu-2f" d="M 1466 4672 
L -51 -128 
L 301 -128 
L 1818 4672 
L 1466 4672 
z
" transform="scale(0.015625)"/>
       <path id="NimbusSanL-Regu-74" d="M 1626 3328 
L 1075 3328 
L 1075 4249 
L 544 4249 
L 544 3328 
L 90 3328 
L 90 2892 
L 544 2892 
L 544 402 
C 544 64 774 -128 1190 -128 
C 1318 -128 1446 -116 1626 -84 
L 1626 364 
C 1555 345 1472 339 1370 339 
C 1139 339 1075 402 1075 634 
L 1075 2892 
L 1626 2892 
L 1626 3328 
z
" transform="scale(0.015625)"/>
       <path id="NimbusSanL-Regu-6f" d="M 1741 3456 
C 800 3456 230 2784 230 1663 
C 230 543 794 -128 1747 -128 
C 2688 -128 3264 543 3264 1638 
C 3264 2791 2707 3456 1741 3456 
z
M 1747 2963 
C 2349 2963 2707 2472 2707 1644 
C 2707 861 2336 364 1747 364 
C 1152 364 787 855 787 1663 
C 787 2466 1152 2963 1747 2963 
z
" transform="scale(0.015625)"/>
       <path id="NimbusSanL-Regu-61" d="M 3424 332 
C 3366 320 3341 320 3309 320 
C 3123 320 3021 415 3021 581 
L 3021 2542 
C 3021 3135 2586 3456 1760 3456 
C 1274 3456 870 3315 646 3065 
C 493 2893 429 2702 416 2370 
L 954 2370 
C 998 2778 1242 2963 1741 2963 
C 2221 2963 2490 2784 2490 2466 
L 2490 2326 
C 2490 2103 2355 2007 1933 1956 
C 1178 1861 1062 1835 858 1753 
C 467 1593 269 1294 269 861 
C 269 256 691 -128 1370 -128 
C 1792 -128 2131 19 2509 364 
C 2547 25 2714 -128 3059 -128 
C 3168 -128 3251 -116 3424 -71 
L 3424 332 
z
M 2490 1071 
C 2490 893 2438 785 2278 638 
C 2061 441 1798 339 1485 339 
C 1069 339 826 536 826 874 
C 826 1224 1062 1402 1632 1485 
C 2195 1562 2310 1587 2490 1670 
L 2490 1071 
z
" transform="scale(0.015625)"/>
       <path id="NimbusSanL-Regu-6c" d="M 973 4672 
L 435 4672 
L 435 0 
L 973 0 
L 973 4672 
z
" transform="scale(0.015625)"/>
      </defs>
      <use xlink:href="#NimbusSanL-Regu-53" transform="scale(0.996264)"/>
      <use xlink:href="#NimbusSanL-Regu-2f" transform="translate(66.450031 0) scale(0.996264)"/>
      <use xlink:href="#NimbusSanL-Regu-53" transform="translate(94.145201 0) scale(0.996264)"/>
      <use xlink:href="#NimbusSanL-Regu-74" transform="translate(196.460797 0) scale(0.996264)"/>
      <use xlink:href="#NimbusSanL-Regu-6f" transform="translate(224.155967 0) scale(0.996264)"/>
      <use xlink:href="#NimbusSanL-Regu-74" transform="translate(279.547644 0) scale(0.996264)"/>
      <use xlink:href="#NimbusSanL-Regu-61" transform="translate(307.242813 0) scale(0.996264)"/>
      <use xlink:href="#NimbusSanL-Regu-6c" transform="translate(362.63449 0) scale(0.996264)"/>
      <path d="M 166.572573 0 
L 196.460797 0 
L 196.460797 0.3985 
L 166.572573 0.3985 
L 166.572573 0 
z
"/>
     </g>
    </g>
   </g>
   <g id="matplotlib.axis_2">
    <g id="ytick_1">
     <g id="line2d_10">
      <defs>
       <path id="m4e4a0416f0" d="M 0 0 
L -3.5 0 
" style="stroke: #000000; stroke-width: 0.8"/>
      </defs>
      <g>
       <use xlink:href="#m4e4a0416f0" x="40.334753" y="218.154005" style="stroke: #000000; stroke-width: 0.8"/>
      </g>
     </g>
     <g id="text_11">
      <!-- $\mathdefault{1.5}$ -->
      <g transform="translate(20.604674 221.703166) scale(0.1 -0.1)">
       <use xlink:href="#CMR17-31" transform="scale(0.996264)"/>
       <use xlink:href="#CMMI12-3a" transform="translate(45.690477 0) scale(0.996264)"/>
       <use xlink:href="#CMR17-35" transform="translate(72.787654 0) scale(0.996264)"/>
      </g>
     </g>
    </g>
    <g id="ytick_2">
     <g id="line2d_11">
      <g>
       <use xlink:href="#m4e4a0416f0" x="40.334753" y="190.102931" style="stroke: #000000; stroke-width: 0.8"/>
      </g>
     </g>
     <g id="text_12">
      <!-- $\mathdefault{2.0}$ -->
      <g transform="translate(20.604674 193.652091) scale(0.1 -0.1)">
       <use xlink:href="#CMR17-32" transform="scale(0.996264)"/>
       <use xlink:href="#CMMI12-3a" transform="translate(45.690477 0) scale(0.996264)"/>
       <use xlink:href="#CMR17-30" transform="translate(72.787654 0) scale(0.996264)"/>
      </g>
     </g>
    </g>
    <g id="ytick_3">
     <g id="line2d_12">
      <g>
       <use xlink:href="#m4e4a0416f0" x="40.334753" y="162.051857" style="stroke: #000000; stroke-width: 0.8"/>
      </g>
     </g>
     <g id="text_13">
      <!-- $\mathdefault{2.5}$ -->
      <g transform="translate(20.604674 165.601017) scale(0.1 -0.1)">
       <use xlink:href="#CMR17-32" transform="scale(0.996264)"/>
       <use xlink:href="#CMMI12-3a" transform="translate(45.690477 0) scale(0.996264)"/>
       <use xlink:href="#CMR17-35" transform="translate(72.787654 0) scale(0.996264)"/>
      </g>
     </g>
    </g>
    <g id="ytick_4">
     <g id="line2d_13">
      <g>
       <use xlink:href="#m4e4a0416f0" x="40.334753" y="134.000782" style="stroke: #000000; stroke-width: 0.8"/>
      </g>
     </g>
     <g id="text_14">
      <!-- $\mathdefault{3.0}$ -->
      <g transform="translate(20.604674 137.549942) scale(0.1 -0.1)">
       <defs>
        <path id="CMR17-33" d="M 1414 2176 
C 1984 2176 2234 1673 2234 1094 
C 2234 322 1824 25 1453 25 
C 1114 25 563 193 390 691 
C 422 678 454 678 486 678 
C 640 678 755 780 755 947 
C 755 1132 614 1216 486 1216 
C 378 1216 211 1164 211 927 
C 211 335 787 -128 1466 -128 
C 2176 -128 2720 432 2720 1087 
C 2720 1718 2208 2176 1600 2246 
C 2086 2347 2554 2776 2554 3353 
C 2554 3856 2048 4224 1472 4224 
C 890 4224 378 3862 378 3347 
C 378 3123 544 3084 627 3084 
C 762 3084 877 3167 877 3334 
C 877 3500 762 3584 627 3584 
C 602 3584 570 3584 544 3571 
C 730 3999 1235 4076 1459 4076 
C 1683 4076 2106 3966 2106 3347 
C 2106 3167 2080 2851 1862 2574 
C 1670 2329 1453 2316 1242 2297 
C 1210 2297 1062 2284 1037 2284 
C 992 2278 966 2272 966 2227 
C 966 2182 973 2176 1101 2176 
L 1414 2176 
z
" transform="scale(0.015625)"/>
       </defs>
       <use xlink:href="#CMR17-33" transform="scale(0.996264)"/>
       <use xlink:href="#CMMI12-3a" transform="translate(45.690477 0) scale(0.996264)"/>
       <use xlink:href="#CMR17-30" transform="translate(72.787654 0) scale(0.996264)"/>
      </g>
     </g>
    </g>
    <g id="ytick_5">
     <g id="line2d_14">
      <g>
       <use xlink:href="#m4e4a0416f0" x="40.334753" y="105.949708" style="stroke: #000000; stroke-width: 0.8"/>
      </g>
     </g>
     <g id="text_15">
      <!-- $\mathdefault{3.5}$ -->
      <g transform="translate(20.604674 109.498868) scale(0.1 -0.1)">
       <use xlink:href="#CMR17-33" transform="scale(0.996264)"/>
       <use xlink:href="#CMMI12-3a" transform="translate(45.690477 0) scale(0.996264)"/>
       <use xlink:href="#CMR17-35" transform="translate(72.787654 0) scale(0.996264)"/>
      </g>
     </g>
    </g>
    <g id="ytick_6">
     <g id="line2d_15">
      <g>
       <use xlink:href="#m4e4a0416f0" x="40.334753" y="77.898634" style="stroke: #000000; stroke-width: 0.8"/>
      </g>
     </g>
     <g id="text_16">
      <!-- $\mathdefault{4.0}$ -->
      <g transform="translate(20.604674 81.447794) scale(0.1 -0.1)">
       <defs>
        <path id="CMR17-34" d="M 2150 4147 
C 2150 4281 2144 4288 2029 4288 
L 128 1254 
L 128 1088 
L 1779 1088 
L 1779 460 
C 1779 230 1766 166 1318 166 
L 1197 166 
L 1197 0 
C 1402 12 1747 12 1965 12 
C 2182 12 2528 12 2733 0 
L 2733 166 
L 2611 166 
C 2163 166 2150 230 2150 460 
L 2150 1088 
L 2803 1088 
L 2803 1254 
L 2150 1254 
L 2150 4147 
z
M 1798 3723 
L 1798 1254 
L 256 1254 
L 1798 3723 
z
" transform="scale(0.015625)"/>
       </defs>
       <use xlink:href="#CMR17-34" transform="scale(0.996264)"/>
       <use xlink:href="#CMMI12-3a" transform="translate(45.690477 0) scale(0.996264)"/>
       <use xlink:href="#CMR17-30" transform="translate(72.787654 0) scale(0.996264)"/>
      </g>
     </g>
    </g>
    <g id="ytick_7">
     <g id="line2d_16">
      <g>
       <use xlink:href="#m4e4a0416f0" x="40.334753" y="49.847559" style="stroke: #000000; stroke-width: 0.8"/>
      </g>
     </g>
     <g id="text_17">
      <!-- $\mathdefault{4.5}$ -->
      <g transform="translate(20.604674 53.396719) scale(0.1 -0.1)">
       <use xlink:href="#CMR17-34" transform="scale(0.996264)"/>
       <use xlink:href="#CMMI12-3a" transform="translate(45.690477 0) scale(0.996264)"/>
       <use xlink:href="#CMR17-35" transform="translate(72.787654 0) scale(0.996264)"/>
      </g>
     </g>
    </g>
    <g id="ytick_8">
     <g id="line2d_17">
      <g>
       <use xlink:href="#m4e4a0416f0" x="40.334753" y="21.796485" style="stroke: #000000; stroke-width: 0.8"/>
      </g>
     </g>
     <g id="text_18">
      <!-- $\mathdefault{5.0}$ -->
      <g transform="translate(20.604674 25.345645) scale(0.1 -0.1)">
       <use xlink:href="#CMR17-35" transform="scale(0.996264)"/>
       <use xlink:href="#CMMI12-3a" transform="translate(45.690477 0) scale(0.996264)"/>
       <use xlink:href="#CMR17-30" transform="translate(72.787654 0) scale(0.996264)"/>
      </g>
     </g>
    </g>
    <g id="text_19">
     <!-- Shape Factor - Blade_1 -->
     <g transform="translate(14.482687 169.461637) rotate(-90) scale(0.1 -0.1)">
      <defs>
       <path id="NimbusSanL-Regu-68" d="M 448 4672 
L 448 0 
L 979 0 
L 979 1853 
C 979 2539 1338 2988 1888 2988 
C 2061 2988 2234 2930 2362 2834 
C 2515 2725 2579 2565 2579 2328 
L 2579 0 
L 3110 0 
L 3110 2539 
C 3110 3103 2707 3456 2054 3456 
C 1581 3456 1293 3308 979 2898 
L 979 4672 
L 448 4672 
z
" transform="scale(0.015625)"/>
       <path id="NimbusSanL-Regu-70" d="M 346 -1408 
L 883 -1408 
L 883 371 
C 1165 25 1478 -128 1914 -128 
C 2778 -128 3347 568 3347 1632 
C 3347 2752 2797 3456 1907 3456 
C 1453 3456 1088 3251 838 2854 
L 838 3359 
L 346 3359 
L 346 -1408 
z
M 1818 2956 
C 2406 2956 2790 2440 2790 1644 
C 2790 887 2400 371 1818 371 
C 1254 371 883 880 883 1663 
C 883 2447 1254 2956 1818 2956 
z
" transform="scale(0.015625)"/>
       <path id="NimbusSanL-Regu-65" d="M 3283 1484 
C 3283 1998 3245 2311 3149 2565 
C 2931 3123 2419 3456 1792 3456 
C 858 3456 256 2734 256 1619 
C 256 545 838 -128 1779 -128 
C 2547 -128 3078 307 3213 1018 
L 2675 1018 
C 2528 588 2227 364 1798 364 
C 1459 364 1171 514 992 787 
C 864 974 819 1161 813 1484 
L 3283 1484 
z
M 826 1920 
C 870 2552 1248 2963 1786 2963 
C 2310 2963 2714 2519 2714 1959 
C 2714 1946 2714 1933 2707 1920 
L 826 1920 
z
" transform="scale(0.015625)"/>
       <path id="NimbusSanL-Regu-46" d="M 1171 2112 
L 3398 2112 
L 3398 2636 
L 1171 2636 
L 1171 4147 
L 3706 4147 
L 3706 4672 
L 576 4672 
L 576 0 
L 1171 0 
L 1171 2112 
z
" transform="scale(0.015625)"/>
       <path id="NimbusSanL-Regu-63" d="M 3014 2237 
C 2989 2561 2918 2771 2790 2956 
C 2560 3270 2157 3456 1690 3456 
C 787 3456 198 2740 198 1632 
C 198 555 774 -128 1683 -128 
C 2483 -128 2989 352 3053 1167 
L 2515 1167 
C 2426 632 2150 364 1696 364 
C 1107 364 755 842 755 1632 
C 755 2466 1101 2963 1683 2963 
C 2131 2963 2413 2701 2477 2237 
L 3014 2237 
z
" transform="scale(0.015625)"/>
       <path id="NimbusSanL-Regu-72" d="M 442 3328 
L 442 0 
L 979 0 
L 979 1727 
C 979 2203 1101 2514 1357 2698 
C 1523 2819 1683 2857 2054 2863 
L 2054 3404 
C 1965 3449 1920 3456 1850 3456 
C 1504 3456 1242 3251 934 2750 
L 934 3328 
L 442 3328 
z
" transform="scale(0.015625)"/>
       <path id="NimbusSanL-Regu-2d" d="M 1818 1996 
L 294 1996 
L 294 1536 
L 1818 1536 
L 1818 1996 
z
" transform="scale(0.015625)"/>
       <path id="NimbusSanL-Regu-42" d="M 506 0 
L 2611 0 
C 3053 0 3379 121 3629 390 
C 3859 632 3987 961 3987 1321 
C 3987 1878 3731 2214 3136 2444 
C 3558 2643 3782 2994 3782 3476 
C 3782 3821 3654 4127 3411 4345 
C 3168 4569 2848 4672 2400 4672 
L 506 4672 
L 506 0 
z
M 1101 2636 
L 1101 4147 
L 2253 4147 
C 2586 4147 2771 4101 2931 3977 
C 3098 3847 3187 3652 3187 3391 
C 3187 3138 3098 2936 2931 2806 
C 2771 2682 2586 2636 2253 2636 
L 1101 2636 
z
M 1101 524 
L 1101 2112 
L 2554 2112 
C 2842 2112 3034 2042 3174 1890 
C 3315 1745 3392 1542 3392 1315 
C 3392 1093 3315 891 3174 746 
C 3034 594 2842 524 2554 524 
L 1101 524 
z
" transform="scale(0.015625)"/>
       <path id="NimbusSanL-Regu-64" d="M 3168 4672 
L 2637 4672 
L 2637 2937 
C 2413 3276 2054 3456 1606 3456 
C 736 3456 166 2759 166 1695 
C 166 568 723 -128 1626 -128 
C 2086 -128 2406 44 2694 460 
L 2694 19 
L 3168 19 
L 3168 4672 
z
M 1696 2956 
C 2272 2956 2637 2447 2637 1651 
C 2637 880 2266 371 1702 371 
C 1114 371 723 887 723 1663 
C 723 2440 1114 2956 1696 2956 
z
" transform="scale(0.015625)"/>
       <path id="NimbusSanL-Regu-31" d="M 1658 3232 
L 1658 0 
L 2221 0 
L 2221 4537 
L 1850 4537 
C 1651 3840 1523 3744 653 3635 
L 653 3232 
L 1658 3232 
z
" transform="scale(0.015625)"/>
      </defs>
      <use xlink:href="#NimbusSanL-Regu-53" transform="scale(0.996264)"/>
      <use xlink:href="#NimbusSanL-Regu-68" transform="translate(66.450031 0) scale(0.996264)"/>
      <use xlink:href="#NimbusSanL-Regu-61" transform="translate(121.841708 0) scale(0.996264)"/>
      <use xlink:href="#NimbusSanL-Regu-70" transform="translate(177.233385 0) scale(0.996264)"/>
      <use xlink:href="#NimbusSanL-Regu-65" transform="translate(232.625062 0) scale(0.996264)"/>
      <use xlink:href="#NimbusSanL-Regu-46" transform="translate(315.711909 0) scale(0.996264)"/>
      <use xlink:href="#NimbusSanL-Regu-61" transform="translate(371.602189 0) scale(0.996264)"/>
      <use xlink:href="#NimbusSanL-Regu-63" transform="translate(426.993866 0) scale(0.996264)"/>
      <use xlink:href="#NimbusSanL-Regu-74" transform="translate(476.807066 0) scale(0.996264)"/>
      <use xlink:href="#NimbusSanL-Regu-6f" transform="translate(504.502236 0) scale(0.996264)"/>
      <use xlink:href="#NimbusSanL-Regu-72" transform="translate(559.893913 0) scale(0.996264)"/>
      <use xlink:href="#NimbusSanL-Regu-2d" transform="translate(620.764312 0) scale(0.996264)"/>
      <use xlink:href="#NimbusSanL-Regu-42" transform="translate(681.634712 0) scale(0.996264)"/>
      <use xlink:href="#NimbusSanL-Regu-6c" transform="translate(748.084743 0) scale(0.996264)"/>
      <use xlink:href="#NimbusSanL-Regu-61" transform="translate(770.201527 0) scale(0.996264)"/>
      <use xlink:href="#NimbusSanL-Regu-64" transform="translate(825.593204 0) scale(0.996264)"/>
      <use xlink:href="#NimbusSanL-Regu-65" transform="translate(880.984881 0) scale(0.996264)"/>
      <use xlink:href="#NimbusSanL-Regu-31" transform="translate(972.242123 0) scale(0.996264)"/>
      <path d="M 942.353899 0 
L 972.242123 0 
L 972.242123 0.3985 
L 942.353899 0.3985 
L 942.353899 0 
z
"/>
     </g>
    </g>
   </g>
   <g id="line2d_18">
    <path d="M 208.997379 213.064283 
L 211.463794 156.239683 
L 213.303277 218.88 
L 215.143035 217.152542 
M 218.822783 84.827932 
L 220.662698 145.045061 
L 222.502623 163.41963 
L 224.342552 173.736314 
L 226.182486 177.531288 
L 228.022419 176.29769 
L 229.862351 179.657859 
L 231.702282 179.263346 
L 233.542209 178.828266 
L 235.382134 178.326541 
L 237.222055 181.389274 
L 239.061969 180.924025 
L 240.901883 180.311836 
L 242.741791 179.552908 
L 244.581692 178.655059 
L 246.421588 177.63284 
L 248.261481 176.493227 
L 250.101367 179.216094 
L 251.941249 178.385491 
L 253.781126 178.198864 
L 255.620999 179.801097 
L 257.46087 184.156831 
L 259.300739 189.650266 
L 261.140603 194.450555 
L 262.980468 199.765164 
L 264.820333 202.332301 
L 266.660201 204.135623 
L 268.500069 206.818094 
L 270.339942 207.927138 
L 272.179819 208.745091 
L 274.019703 210.493147 
L 275.859592 211.126383 
L 277.69949 211.615342 
L 279.539395 211.962005 
L 281.379307 212.995767 
L 283.219229 213.317345 
L 285.059159 213.53637 
L 286.899096 213.662805 
L 288.739041 213.718067 
L 290.578993 213.723251 
L 292.418953 213.699222 
L 294.258918 213.678935 
L 296.098889 213.631606 
L 297.938865 213.571556 
L 299.778846 213.541515 
L 301.61883 213.521323 
L 303.458819 213.503436 
L 305.29881 213.512901 
L 307.138805 213.549979 
L 308.978801 213.604218 
L 310.818801 213.67419 
L 312.658801 213.760932 
L 314.498804 213.863054 
L 316.338809 213.973825 
L 318.178814 214.087809 
L 320.018821 214.202446 
L 321.858829 214.317503 
L 323.698838 214.429568 
L 325.538847 214.534602 
L 327.378857 214.633125 
L 329.218868 214.724188 
L 331.05888 214.806396 
L 332.898892 214.881851 
L 334.738905 214.944253 
L 336.578918 214.990007 
L 338.418931 215.02178 
L 340.258945 215.042491 
L 342.098959 215.051701 
L 343.938974 215.056137 
L 345.778988 215.048983 
L 347.619003 215.031253 
L 349.459018 215.006648 
L 351.299033 214.969343 
L 353.139048 214.922066 
L 354.979064 214.86574 
L 356.819079 214.788365 
L 358.659094 214.694672 
L 360.499109 214.590288 
L 362.339125 214.465934 
L 364.179141 214.314683 
L 366.019156 214.137493 
L 367.859171 213.939681 
L 369.699186 213.707588 
L 371.539202 213.428088 
L 373.968618 213.104285 
L 374.551844 212.736251 
L 375.134753 212.314068 
" clip-path="url(#paa04a6df11)" style="fill: none; stroke: #00008b; stroke-width: 1.5; stroke-linecap: square"/>
    <defs>
     <path id="mefb6105742" d="M 0 0.25 
C 0.066301 0.25 0.129895 0.223658 0.176777 0.176777 
C 0.223658 0.129895 0.25 0.066301 0.25 0 
C 0.25 -0.066301 0.223658 -0.129895 0.176777 -0.176777 
C 0.129895 -0.223658 0.066301 -0.25 0 -0.25 
C -0.066301 -0.25 -0.129895 -0.223658 -0.176777 -0.176777 
C -0.223658 -0.129895 -0.25 -0.066301 -0.25 0 
C -0.25 0.066301 -0.223658 0.129895 -0.176777 0.176777 
C -0.129895 0.223658 -0.066301 0.25 0 0.25 
z
" style="stroke: #00008b"/>
    </defs>
    <g clip-path="url(#paa04a6df11)">
     <use xlink:href="#mefb6105742" x="208.997379" y="213.064283" style="fill: #00008b; stroke: #00008b"/>
     <use xlink:href="#mefb6105742" x="211.463794" y="156.239683" style="fill: #00008b; stroke: #00008b"/>
     <use xlink:href="#mefb6105742" x="213.303277" y="218.88" style="fill: #00008b; stroke: #00008b"/>
     <use xlink:href="#mefb6105742" x="215.143035" y="217.152542" style="fill: #00008b; stroke: #00008b"/>
     <use xlink:href="#mefb6105742" x="218.822783" y="84.827932" style="fill: #00008b; stroke: #00008b"/>
     <use xlink:href="#mefb6105742" x="220.662698" y="145.045061" style="fill: #00008b; stroke: #00008b"/>
     <use xlink:href="#mefb6105742" x="222.502623" y="163.41963" style="fill: #00008b; stroke: #00008b"/>
     <use xlink:href="#mefb6105742" x="224.342552" y="173.736314" style="fill: #00008b; stroke: #00008b"/>
     <use xlink:href="#mefb6105742" x="226.182486" y="177.531288" style="fill: #00008b; stroke: #00008b"/>
     <use xlink:href="#mefb6105742" x="228.022419" y="176.29769" style="fill: #00008b; stroke: #00008b"/>
     <use xlink:href="#mefb6105742" x="229.862351" y="179.657859" style="fill: #00008b; stroke: #00008b"/>
     <use xlink:href="#mefb6105742" x="231.702282" y="179.263346" style="fill: #00008b; stroke: #00008b"/>
     <use xlink:href="#mefb6105742" x="233.542209" y="178.828266" style="fill: #00008b; stroke: #00008b"/>
     <use xlink:href="#mefb6105742" x="235.382134" y="178.326541" style="fill: #00008b; stroke: #00008b"/>
     <use xlink:href="#mefb6105742" x="237.222055" y="181.389274" style="fill: #00008b; stroke: #00008b"/>
     <use xlink:href="#mefb6105742" x="239.061969" y="180.924025" style="fill: #00008b; stroke: #00008b"/>
     <use xlink:href="#mefb6105742" x="240.901883" y="180.311836" style="fill: #00008b; stroke: #00008b"/>
     <use xlink:href="#mefb6105742" x="242.741791" y="179.552908" style="fill: #00008b; stroke: #00008b"/>
     <use xlink:href="#mefb6105742" x="244.581692" y="178.655059" style="fill: #00008b; stroke: #00008b"/>
     <use xlink:href="#mefb6105742" x="246.421588" y="177.63284" style="fill: #00008b; stroke: #00008b"/>
     <use xlink:href="#mefb6105742" x="248.261481" y="176.493227" style="fill: #00008b; stroke: #00008b"/>
     <use xlink:href="#mefb6105742" x="250.101367" y="179.216094" style="fill: #00008b; stroke: #00008b"/>
     <use xlink:href="#mefb6105742" x="251.941249" y="178.385491" style="fill: #00008b; stroke: #00008b"/>
     <use xlink:href="#mefb6105742" x="253.781126" y="178.198864" style="fill: #00008b; stroke: #00008b"/>
     <use xlink:href="#mefb6105742" x="255.620999" y="179.801097" style="fill: #00008b; stroke: #00008b"/>
     <use xlink:href="#mefb6105742" x="257.46087" y="184.156831" style="fill: #00008b; stroke: #00008b"/>
     <use xlink:href="#mefb6105742" x="259.300739" y="189.650266" style="fill: #00008b; stroke: #00008b"/>
     <use xlink:href="#mefb6105742" x="261.140603" y="194.450555" style="fill: #00008b; stroke: #00008b"/>
     <use xlink:href="#mefb6105742" x="262.980468" y="199.765164" style="fill: #00008b; stroke: #00008b"/>
     <use xlink:href="#mefb6105742" x="264.820333" y="202.332301" style="fill: #00008b; stroke: #00008b"/>
     <use xlink:href="#mefb6105742" x="266.660201" y="204.135623" style="fill: #00008b; stroke: #00008b"/>
     <use xlink:href="#mefb6105742" x="268.500069" y="206.818094" style="fill: #00008b; stroke: #00008b"/>
     <use xlink:href="#mefb6105742" x="270.339942" y="207.927138" style="fill: #00008b; stroke: #00008b"/>
     <use xlink:href="#mefb6105742" x="272.179819" y="208.745091" style="fill: #00008b; stroke: #00008b"/>
     <use xlink:href="#mefb6105742" x="274.019703" y="210.493147" style="fill: #00008b; stroke: #00008b"/>
     <use xlink:href="#mefb6105742" x="275.859592" y="211.126383" style="fill: #00008b; stroke: #00008b"/>
     <use xlink:href="#mefb6105742" x="277.69949" y="211.615342" style="fill: #00008b; stroke: #00008b"/>
     <use xlink:href="#mefb6105742" x="279.539395" y="211.962005" style="fill: #00008b; stroke: #00008b"/>
     <use xlink:href="#mefb6105742" x="281.379307" y="212.995767" style="fill: #00008b; stroke: #00008b"/>
     <use xlink:href="#mefb6105742" x="283.219229" y="213.317345" style="fill: #00008b; stroke: #00008b"/>
     <use xlink:href="#mefb6105742" x="285.059159" y="213.53637" style="fill: #00008b; stroke: #00008b"/>
     <use xlink:href="#mefb6105742" x="286.899096" y="213.662805" style="fill: #00008b; stroke: #00008b"/>
     <use xlink:href="#mefb6105742" x="288.739041" y="213.718067" style="fill: #00008b; stroke: #00008b"/>
     <use xlink:href="#mefb6105742" x="290.578993" y="213.723251" style="fill: #00008b; stroke: #00008b"/>
     <use xlink:href="#mefb6105742" x="292.418953" y="213.699222" style="fill: #00008b; stroke: #00008b"/>
     <use xlink:href="#mefb6105742" x="294.258918" y="213.678935" style="fill: #00008b; stroke: #00008b"/>
     <use xlink:href="#mefb6105742" x="296.098889" y="213.631606" style="fill: #00008b; stroke: #00008b"/>
     <use xlink:href="#mefb6105742" x="297.938865" y="213.571556" style="fill: #00008b; stroke: #00008b"/>
     <use xlink:href="#mefb6105742" x="299.778846" y="213.541515" style="fill: #00008b; stroke: #00008b"/>
     <use xlink:href="#mefb6105742" x="301.61883" y="213.521323" style="fill: #00008b; stroke: #00008b"/>
     <use xlink:href="#mefb6105742" x="303.458819" y="213.503436" style="fill: #00008b; stroke: #00008b"/>
     <use xlink:href="#mefb6105742" x="305.29881" y="213.512901" style="fill: #00008b; stroke: #00008b"/>
     <use xlink:href="#mefb6105742" x="307.138805" y="213.549979" style="fill: #00008b; stroke: #00008b"/>
     <use xlink:href="#mefb6105742" x="308.978801" y="213.604218" style="fill: #00008b; stroke: #00008b"/>
     <use xlink:href="#mefb6105742" x="310.818801" y="213.67419" style="fill: #00008b; stroke: #00008b"/>
     <use xlink:href="#mefb6105742" x="312.658801" y="213.760932" style="fill: #00008b; stroke: #00008b"/>
     <use xlink:href="#mefb6105742" x="314.498804" y="213.863054" style="fill: #00008b; stroke: #00008b"/>
     <use xlink:href="#mefb6105742" x="316.338809" y="213.973825" style="fill: #00008b; stroke: #00008b"/>
     <use xlink:href="#mefb6105742" x="318.178814" y="214.087809" style="fill: #00008b; stroke: #00008b"/>
     <use xlink:href="#mefb6105742" x="320.018821" y="214.202446" style="fill: #00008b; stroke: #00008b"/>
     <use xlink:href="#mefb6105742" x="321.858829" y="214.317503" style="fill: #00008b; stroke: #00008b"/>
     <use xlink:href="#mefb6105742" x="323.698838" y="214.429568" style="fill: #00008b; stroke: #00008b"/>
     <use xlink:href="#mefb6105742" x="325.538847" y="214.534602" style="fill: #00008b; stroke: #00008b"/>
     <use xlink:href="#mefb6105742" x="327.378857" y="214.633125" style="fill: #00008b; stroke: #00008b"/>
     <use xlink:href="#mefb6105742" x="329.218868" y="214.724188" style="fill: #00008b; stroke: #00008b"/>
     <use xlink:href="#mefb6105742" x="331.05888" y="214.806396" style="fill: #00008b; stroke: #00008b"/>
     <use xlink:href="#mefb6105742" x="332.898892" y="214.881851" style="fill: #00008b; stroke: #00008b"/>
     <use xlink:href="#mefb6105742" x="334.738905" y="214.944253" style="fill: #00008b; stroke: #00008b"/>
     <use xlink:href="#mefb6105742" x="336.578918" y="214.990007" style="fill: #00008b; stroke: #00008b"/>
     <use xlink:href="#mefb6105742" x="338.418931" y="215.02178" style="fill: #00008b; stroke: #00008b"/>
     <use xlink:href="#mefb6105742" x="340.258945" y="215.042491" style="fill: #00008b; stroke: #00008b"/>
     <use xlink:href="#mefb6105742" x="342.098959" y="215.051701" style="fill: #00008b; stroke: #00008b"/>
     <use xlink:href="#mefb6105742" x="343.938974" y="215.056137" style="fill: #00008b; stroke: #00008b"/>
     <use xlink:href="#mefb6105742" x="345.778988" y="215.048983" style="fill: #00008b; stroke: #00008b"/>
     <use xlink:href="#mefb6105742" x="347.619003" y="215.031253" style="fill: #00008b; stroke: #00008b"/>
     <use xlink:href="#mefb6105742" x="349.459018" y="215.006648" style="fill: #00008b; stroke: #00008b"/>
     <use xlink:href="#mefb6105742" x="351.299033" y="214.969343" style="fill: #00008b; stroke: #00008b"/>
     <use xlink:href="#mefb6105742" x="353.139048" y="214.922066" style="fill: #00008b; stroke: #00008b"/>
     <use xlink:href="#mefb6105742" x="354.979064" y="214.86574" style="fill: #00008b; stroke: #00008b"/>
     <use xlink:href="#mefb6105742" x="356.819079" y="214.788365" style="fill: #00008b; stroke: #00008b"/>
     <use xlink:href="#mefb6105742" x="358.659094" y="214.694672" style="fill: #00008b; stroke: #00008b"/>
     <use xlink:href="#mefb6105742" x="360.499109" y="214.590288" style="fill: #00008b; stroke: #00008b"/>
     <use xlink:href="#mefb6105742" x="362.339125" y="214.465934" style="fill: #00008b; stroke: #00008b"/>
     <use xlink:href="#mefb6105742" x="364.179141" y="214.314683" style="fill: #00008b; stroke: #00008b"/>
     <use xlink:href="#mefb6105742" x="366.019156" y="214.137493" style="fill: #00008b; stroke: #00008b"/>
     <use xlink:href="#mefb6105742" x="367.859171" y="213.939681" style="fill: #00008b; stroke: #00008b"/>
     <use xlink:href="#mefb6105742" x="369.699186" y="213.707588" style="fill: #00008b; stroke: #00008b"/>
     <use xlink:href="#mefb6105742" x="371.539202" y="213.428088" style="fill: #00008b; stroke: #00008b"/>
     <use xlink:href="#mefb6105742" x="373.968618" y="213.104285" style="fill: #00008b; stroke: #00008b"/>
     <use xlink:href="#mefb6105742" x="374.551844" y="212.736251" style="fill: #00008b; stroke: #00008b"/>
     <use xlink:href="#mefb6105742" x="375.134753" y="212.314068" style="fill: #00008b; stroke: #00008b"/>
    </g>
   </g>
   <g id="line2d_19">
    <path d="M 207.734753 211.869777 
L 207.103508 211.74457 
L 206.471222 212.61529 
L 204.004457 213.769526 
L 202.164796 206.639256 
L 200.324892 101.859091 
L 198.484924 17.28 
" clip-path="url(#paa04a6df11)" style="fill: none; stroke: #add8e6; stroke-width: 1.5; stroke-linecap: square"/>
    <defs>
     <path id="m7df9a28aed" d="M 0 0.25 
C 0.066301 0.25 0.129895 0.223658 0.176777 0.176777 
C 0.223658 0.129895 0.25 0.066301 0.25 0 
C 0.25 -0.066301 0.223658 -0.129895 0.176777 -0.176777 
C 0.129895 -0.223658 0.066301 -0.25 0 -0.25 
C -0.066301 -0.25 -0.129895 -0.223658 -0.176777 -0.176777 
C -0.223658 -0.129895 -0.25 -0.066301 -0.25 0 
C -0.25 0.066301 -0.223658 0.129895 -0.176777 0.176777 
C -0.129895 0.223658 -0.066301 0.25 0 0.25 
z
" style="stroke: #add8e6"/>
    </defs>
    <g clip-path="url(#paa04a6df11)">
     <use xlink:href="#m7df9a28aed" x="207.734753" y="211.869777" style="fill: #add8e6; stroke: #add8e6"/>
     <use xlink:href="#m7df9a28aed" x="207.103508" y="211.74457" style="fill: #add8e6; stroke: #add8e6"/>
     <use xlink:href="#m7df9a28aed" x="206.471222" y="212.61529" style="fill: #add8e6; stroke: #add8e6"/>
     <use xlink:href="#m7df9a28aed" x="204.004457" y="213.769526" style="fill: #add8e6; stroke: #add8e6"/>
     <use xlink:href="#m7df9a28aed" x="202.164796" y="206.639256" style="fill: #add8e6; stroke: #add8e6"/>
     <use xlink:href="#m7df9a28aed" x="200.324892" y="101.859091" style="fill: #add8e6; stroke: #add8e6"/>
     <use xlink:href="#m7df9a28aed" x="198.484924" y="17.28" style="fill: #add8e6; stroke: #add8e6"/>
    </g>
   </g>
   <g id="patch_3">
    <path d="M 40.334753 228.96 
L 40.334753 7.2 
" style="fill: none; stroke: #000000; stroke-width: 0.8; stroke-linejoin: miter; stroke-linecap: square"/>
   </g>
   <g id="patch_4">
    <path d="M 375.134753 228.96 
L 375.134753 7.2 
" style="fill: none; stroke: #000000; stroke-width: 0.8; stroke-linejoin: miter; stroke-linecap: square"/>
   </g>
   <g id="patch_5">
    <path d="M 40.334753 228.96 
L 375.134753 228.96 
" style="fill: none; stroke: #000000; stroke-width: 0.8; stroke-linejoin: miter; stroke-linecap: square"/>
   </g>
   <g id="patch_6">
    <path d="M 40.334753 7.2 
L 375.134753 7.2 
" style="fill: none; stroke: #000000; stroke-width: 0.8; stroke-linejoin: miter; stroke-linecap: square"/>
   </g>
   <g id="legend_1">
    <g id="patch_7">
     <path d="M 45.334753 58.229654 
L 131.157409 58.229654 
L 131.157409 12.2 
L 45.334753 12.2 
z
" style="fill: #ffffff; opacity: 0.8; stroke: #000000; stroke-linejoin: miter"/>
    </g>
    <g id="line2d_20">
     <path d="M 49.334753 19.982687 
L 59.334753 19.982687 
L 69.334753 19.982687 
" style="fill: none; stroke: #00008b; stroke-width: 1.5; stroke-linecap: square"/>
     <g>
      <use xlink:href="#mefb6105742" x="59.334753" y="19.982687" style="fill: #00008b; stroke: #00008b"/>
     </g>
    </g>
    <g id="text_20">
     <!-- SU2 (SS) -->
     <g transform="translate(77.334753 23.482687) scale(0.1 -0.1)">
      <defs>
       <path id="NimbusSanL-Regu-55" d="M 3533 4672 
L 3533 1404 
C 3533 779 3078 396 2330 396 
C 1984 396 1702 479 1478 639 
C 1248 817 1139 1053 1139 1404 
L 1139 4672 
L 544 4672 
L 544 1404 
C 544 460 1222 -128 2330 -128 
C 3424 -128 4128 473 4128 1404 
L 4128 4672 
L 3533 4672 
z
" transform="scale(0.015625)"/>
       <path id="NimbusSanL-Regu-32" d="M 3238 556 
L 851 556 
C 909 928 1114 1165 1670 1493 
L 2310 1839 
C 2944 2185 3270 2653 3270 3211 
C 3270 3589 3117 3942 2848 4185 
C 2579 4428 2246 4544 1818 4544 
C 1242 4544 813 4339 563 3955 
C 403 3711 333 3429 320 2967 
L 883 2967 
C 902 3275 941 3461 1018 3608 
C 1165 3884 1459 4051 1798 4051 
C 2310 4051 2694 3685 2694 3198 
C 2694 2839 2483 2531 2080 2300 
L 1491 1967 
C 544 1428 269 999 218 0 
L 3238 0 
L 3238 556 
z
" transform="scale(0.015625)"/>
       <path id="NimbusSanL-Regu-28" d="M 1510 4672 
C 870 3833 467 2668 467 1663 
C 467 652 870 -513 1510 -1351 
L 1862 -1351 
C 1299 -436 986 639 986 1663 
C 986 2681 1299 3763 1862 4672 
L 1510 4672 
z
" transform="scale(0.015625)"/>
       <path id="NimbusSanL-Regu-29" d="M 595 -1351 
C 1235 -513 1638 652 1638 1657 
C 1638 2668 1235 3833 595 4672 
L 243 4672 
C 806 3756 1120 2681 1120 1657 
C 1120 639 806 -442 243 -1351 
L 595 -1351 
z
" transform="scale(0.015625)"/>
      </defs>
      <use xlink:href="#NimbusSanL-Regu-53" transform="scale(0.996264)"/>
      <use xlink:href="#NimbusSanL-Regu-55" transform="translate(66.450031 0) scale(0.996264)"/>
      <use xlink:href="#NimbusSanL-Regu-32" transform="translate(138.380016 0) scale(0.996264)"/>
      <use xlink:href="#NimbusSanL-Regu-28" transform="translate(221.466863 0) scale(0.996264)"/>
      <use xlink:href="#NimbusSanL-Regu-53" transform="translate(254.642092 0) scale(0.996264)"/>
      <use xlink:href="#NimbusSanL-Regu-53" transform="translate(321.092123 0) scale(0.996264)"/>
      <use xlink:href="#NimbusSanL-Regu-29" transform="translate(387.542155 0) scale(0.996264)"/>
     </g>
    </g>
    <g id="line2d_21">
     <path d="M 49.334753 34.387361 
L 59.334753 34.387361 
L 69.334753 34.387361 
" style="fill: none; stroke: #add8e6; stroke-width: 1.5; stroke-linecap: square"/>
     <g>
      <use xlink:href="#m7df9a28aed" x="59.334753" y="34.387361" style="fill: #add8e6; stroke: #add8e6"/>
     </g>
    </g>
    <g id="text_21">
     <!-- SU2 (PS) -->
     <g transform="translate(77.334753 37.887361) scale(0.1 -0.1)">
      <defs>
       <path id="NimbusSanL-Regu-50" d="M 1178 1984 
L 2643 1984 
C 3008 1984 3296 2092 3546 2316 
C 3827 2572 3949 2873 3949 3302 
C 3949 4179 3430 4672 2509 4672 
L 582 4672 
L 582 0 
L 1178 0 
L 1178 1984 
z
M 1178 2508 
L 1178 4147 
L 2419 4147 
C 2989 4147 3328 3839 3328 3327 
C 3328 2816 2989 2508 2419 2508 
L 1178 2508 
z
" transform="scale(0.015625)"/>
      </defs>
      <use xlink:href="#NimbusSanL-Regu-53" transform="scale(0.996264)"/>
      <use xlink:href="#NimbusSanL-Regu-55" transform="translate(66.450031 0) scale(0.996264)"/>
      <use xlink:href="#NimbusSanL-Regu-32" transform="translate(138.380016 0) scale(0.996264)"/>
      <use xlink:href="#NimbusSanL-Regu-28" transform="translate(221.466863 0) scale(0.996264)"/>
      <use xlink:href="#NimbusSanL-Regu-50" transform="translate(254.642092 0) scale(0.996264)"/>
      <use xlink:href="#NimbusSanL-Regu-53" transform="translate(321.092123 0) scale(0.996264)"/>
      <use xlink:href="#NimbusSanL-Regu-29" transform="translate(387.542155 0) scale(0.996264)"/>
     </g>
    </g>
    <g id="PathCollection_2">
     <g>
      <use xlink:href="#m2ddea26f22" x="59.334753" y="49.482668" style="fill: #ff0000; stroke: #ff0000"/>
     </g>
    </g>
    <g id="text_22">
     <!-- Mises Data -->
     <g transform="translate(77.334753 52.107668) scale(0.1 -0.1)">
      <defs>
       <path id="NimbusSanL-Regu-4d" d="M 2995 0 
L 4307 3915 
L 4307 0 
L 4870 0 
L 4870 4672 
L 4045 4672 
L 2688 602 
L 1306 4672 
L 480 4672 
L 480 0 
L 1043 0 
L 1043 3915 
L 2368 0 
L 2995 0 
z
" transform="scale(0.015625)"/>
       <path id="NimbusSanL-Regu-69" d="M 960 3358 
L 429 3358 
L 429 0 
L 960 0 
L 960 3358 
z
M 960 4672 
L 422 4672 
L 422 3999 
L 960 3999 
L 960 4672 
z
" transform="scale(0.015625)"/>
       <path id="NimbusSanL-Regu-73" d="M 2803 2428 
C 2797 3084 2362 3456 1587 3456 
C 806 3456 301 3052 301 2434 
C 301 1912 570 1663 1363 1472 
L 1862 1351 
C 2234 1262 2381 1129 2381 887 
C 2381 574 2067 364 1600 364 
C 1312 364 1069 447 934 587 
C 851 683 813 778 781 1014 
L 218 1014 
C 243 243 678 -128 1555 -128 
C 2400 -128 2938 288 2938 931 
C 2938 1428 2656 1702 1990 1861 
L 1478 1982 
C 1043 2084 858 2224 858 2459 
C 858 2765 1133 2963 1568 2963 
C 1997 2963 2227 2778 2240 2428 
L 2803 2428 
z
" transform="scale(0.015625)"/>
       <path id="NimbusSanL-Regu-44" d="M 570 0 
L 2368 0 
C 3546 0 4269 883 4269 2339 
C 4269 3788 3552 4672 2368 4672 
L 570 4672 
L 570 0 
z
M 1165 524 
L 1165 4147 
L 2266 4147 
C 3187 4147 3674 3525 3674 2332 
C 3674 1153 3187 524 2266 524 
L 1165 524 
z
" transform="scale(0.015625)"/>
      </defs>
      <use xlink:href="#NimbusSanL-Regu-4d" transform="scale(0.996264)"/>
      <use xlink:href="#NimbusSanL-Regu-69" transform="translate(82.98843 0) scale(0.996264)"/>
      <use xlink:href="#NimbusSanL-Regu-73" transform="translate(105.105215 0) scale(0.996264)"/>
      <use xlink:href="#NimbusSanL-Regu-65" transform="translate(154.918415 0) scale(0.996264)"/>
      <use xlink:href="#NimbusSanL-Regu-73" transform="translate(210.310092 0) scale(0.996264)"/>
      <use xlink:href="#NimbusSanL-Regu-44" transform="translate(287.818462 0) scale(0.996264)"/>
      <use xlink:href="#NimbusSanL-Regu-61" transform="translate(359.748447 0) scale(0.996264)"/>
      <use xlink:href="#NimbusSanL-Regu-74" transform="translate(415.140124 0) scale(0.996264)"/>
      <use xlink:href="#NimbusSanL-Regu-61" transform="translate(442.835294 0) scale(0.996264)"/>
     </g>
    </g>
   </g>
  </g>
 </g>
 <defs>
  <clipPath id="paa04a6df11">
   <rect x="40.334753" y="7.2" width="334.8" height="221.76"/>
  </clipPath>
 </defs>
</svg>
