<?xml version="1.0" encoding="utf-8" standalone="no"?>
<!DOCTYPE svg PUBLIC "-//W3C//DTD SVG 1.1//EN"
  "http://www.w3.org/Graphics/SVG/1.1/DTD/svg11.dtd">
<svg xmlns:xlink="http://www.w3.org/1999/xlink" width="382.334753pt" height="265.600613pt" viewBox="0 0 382.334753 265.600613" xmlns="http://www.w3.org/2000/svg" version="1.1">
 <metadata>
  <rdf:RDF xmlns:dc="http://purl.org/dc/elements/1.1/" xmlns:cc="http://creativecommons.org/ns#" xmlns:rdf="http://www.w3.org/1999/02/22-rdf-syntax-ns#">
   <cc:Work>
    <dc:type rdf:resource="http://purl.org/dc/dcmitype/StillImage"/>
    <dc:date>2025-07-17T17:52:24.986711</dc:date>
    <dc:format>image/svg+xml</dc:format>
    <dc:creator>
     <cc:Agent>
      <dc:title>Matplotlib v3.10.3, https://matplotlib.org/</dc:title>
     </cc:Agent>
    </dc:creator>
   </cc:Work>
  </rdf:RDF>
 </metadata>
 <defs>
  <style type="text/css">*{stroke-linejoin: round; stroke-linecap: butt}</style>
 </defs>
 <g id="figure_1">
  <g id="patch_1">
   <path d="M 0 265.600613 
L 382.334753 265.600613 
L 382.334753 0 
L 0 0 
z
" style="fill: #ffffff"/>
  </g>
  <g id="axes_1">
   <g id="patch_2">
    <path d="M 40.334753 228.96 
L 375.134753 228.96 
L 375.134753 7.2 
L 40.334753 7.2 
z
" style="fill: #ffffff"/>
   </g>
   <g id="matplotlib.axis_1">
    <g id="xtick_1">
     <g id="line2d_1">
      <defs>
       <path id="m3389bc8476" d="M 0 0 
L 0 3.5 
" style="stroke: #000000; stroke-width: 0.8"/>
      </defs>
      <g>
       <use xlink:href="#m3389bc8476" x="55.552935" y="228.96" style="stroke: #000000; stroke-width: 0.8"/>
      </g>
     </g>
     <g id="text_1">
      <!-- $\mathdefault{0}$ -->
      <g transform="translate(53.062267 243.05832) scale(0.1 -0.1)">
       <defs>
        <path id="CMR17-30" d="M 2688 2038 
C 2688 2430 2682 3099 2413 3613 
C 2176 4063 1798 4224 1466 4224 
C 1158 4224 768 4082 525 3620 
C 269 3137 243 2539 243 2038 
C 243 1671 250 1112 448 623 
C 723 -39 1216 -128 1466 -128 
C 1760 -128 2208 -7 2470 604 
C 2662 1048 2688 1568 2688 2038 
z
M 1466 -26 
C 1056 -26 813 328 723 816 
C 653 1196 653 1749 653 2109 
C 653 2604 653 3015 736 3407 
C 858 3954 1216 4121 1466 4121 
C 1728 4121 2067 3947 2189 3420 
C 2272 3054 2278 2623 2278 2109 
C 2278 1691 2278 1176 2202 797 
C 2067 96 1690 -26 1466 -26 
z
" transform="scale(0.015625)"/>
       </defs>
       <use xlink:href="#CMR17-30" transform="scale(0.996264)"/>
      </g>
     </g>
    </g>
    <g id="xtick_2">
     <g id="line2d_2">
      <g>
       <use xlink:href="#m3389bc8476" x="99.039667" y="228.96" style="stroke: #000000; stroke-width: 0.8"/>
      </g>
     </g>
     <g id="text_2">
      <!-- $\mathdefault{1000}$ -->
      <g transform="translate(89.076996 243.05832) scale(0.1 -0.1)">
       <defs>
        <path id="CMR17-31" d="M 1702 4083 
C 1702 4217 1696 4224 1606 4224 
C 1357 3927 979 3833 621 3820 
C 602 3820 570 3820 563 3808 
C 557 3795 557 3782 557 3648 
C 755 3648 1088 3686 1344 3839 
L 1344 467 
C 1344 243 1331 166 781 166 
L 589 166 
L 589 0 
C 896 6 1216 12 1523 12 
C 1830 12 2150 6 2458 0 
L 2458 166 
L 2266 166 
C 1715 166 1702 236 1702 467 
L 1702 4083 
z
" transform="scale(0.015625)"/>
       </defs>
       <use xlink:href="#CMR17-31" transform="scale(0.996264)"/>
       <use xlink:href="#CMR17-30" transform="translate(45.690477 0) scale(0.996264)"/>
       <use xlink:href="#CMR17-30" transform="translate(91.380954 0) scale(0.996264)"/>
       <use xlink:href="#CMR17-30" transform="translate(137.071431 0) scale(0.996264)"/>
      </g>
     </g>
    </g>
    <g id="xtick_3">
     <g id="line2d_3">
      <g>
       <use xlink:href="#m3389bc8476" x="142.526398" y="228.96" style="stroke: #000000; stroke-width: 0.8"/>
      </g>
     </g>
     <g id="text_3">
      <!-- $\mathdefault{2000}$ -->
      <g transform="translate(132.563728 243.05832) scale(0.1 -0.1)">
       <defs>
        <path id="CMR17-32" d="M 2669 990 
L 2554 990 
C 2490 537 2438 460 2413 422 
C 2381 371 1920 371 1830 371 
L 602 371 
C 832 620 1280 1073 1824 1596 
C 2214 1966 2669 2400 2669 3033 
C 2669 3788 2067 4224 1395 4224 
C 691 4224 262 3603 262 3027 
C 262 2777 448 2745 525 2745 
C 589 2745 781 2783 781 3007 
C 781 3206 614 3264 525 3264 
C 486 3264 448 3257 422 3244 
C 544 3788 915 4057 1306 4057 
C 1862 4057 2227 3616 2227 3033 
C 2227 2477 1901 1998 1536 1583 
L 262 147 
L 262 0 
L 2515 0 
L 2669 990 
z
" transform="scale(0.015625)"/>
       </defs>
       <use xlink:href="#CMR17-32" transform="scale(0.996264)"/>
       <use xlink:href="#CMR17-30" transform="translate(45.690477 0) scale(0.996264)"/>
       <use xlink:href="#CMR17-30" transform="translate(91.380954 0) scale(0.996264)"/>
       <use xlink:href="#CMR17-30" transform="translate(137.071431 0) scale(0.996264)"/>
      </g>
     </g>
    </g>
    <g id="xtick_4">
     <g id="line2d_4">
      <g>
       <use xlink:href="#m3389bc8476" x="186.01313" y="228.96" style="stroke: #000000; stroke-width: 0.8"/>
      </g>
     </g>
     <g id="text_4">
      <!-- $\mathdefault{3000}$ -->
      <g transform="translate(176.05046 243.05832) scale(0.1 -0.1)">
       <defs>
        <path id="CMR17-33" d="M 1414 2176 
C 1984 2176 2234 1673 2234 1094 
C 2234 322 1824 25 1453 25 
C 1114 25 563 193 390 691 
C 422 678 454 678 486 678 
C 640 678 755 780 755 947 
C 755 1132 614 1216 486 1216 
C 378 1216 211 1164 211 927 
C 211 335 787 -128 1466 -128 
C 2176 -128 2720 432 2720 1087 
C 2720 1718 2208 2176 1600 2246 
C 2086 2347 2554 2776 2554 3353 
C 2554 3856 2048 4224 1472 4224 
C 890 4224 378 3862 378 3347 
C 378 3123 544 3084 627 3084 
C 762 3084 877 3167 877 3334 
C 877 3500 762 3584 627 3584 
C 602 3584 570 3584 544 3571 
C 730 3999 1235 4076 1459 4076 
C 1683 4076 2106 3966 2106 3347 
C 2106 3167 2080 2851 1862 2574 
C 1670 2329 1453 2316 1242 2297 
C 1210 2297 1062 2284 1037 2284 
C 992 2278 966 2272 966 2227 
C 966 2182 973 2176 1101 2176 
L 1414 2176 
z
" transform="scale(0.015625)"/>
       </defs>
       <use xlink:href="#CMR17-33" transform="scale(0.996264)"/>
       <use xlink:href="#CMR17-30" transform="translate(45.690477 0) scale(0.996264)"/>
       <use xlink:href="#CMR17-30" transform="translate(91.380954 0) scale(0.996264)"/>
       <use xlink:href="#CMR17-30" transform="translate(137.071431 0) scale(0.996264)"/>
      </g>
     </g>
    </g>
    <g id="xtick_5">
     <g id="line2d_5">
      <g>
       <use xlink:href="#m3389bc8476" x="229.499862" y="228.96" style="stroke: #000000; stroke-width: 0.8"/>
      </g>
     </g>
     <g id="text_5">
      <!-- $\mathdefault{4000}$ -->
      <g transform="translate(219.537192 243.05832) scale(0.1 -0.1)">
       <defs>
        <path id="CMR17-34" d="M 2150 4147 
C 2150 4281 2144 4288 2029 4288 
L 128 1254 
L 128 1088 
L 1779 1088 
L 1779 460 
C 1779 230 1766 166 1318 166 
L 1197 166 
L 1197 0 
C 1402 12 1747 12 1965 12 
C 2182 12 2528 12 2733 0 
L 2733 166 
L 2611 166 
C 2163 166 2150 230 2150 460 
L 2150 1088 
L 2803 1088 
L 2803 1254 
L 2150 1254 
L 2150 4147 
z
M 1798 3723 
L 1798 1254 
L 256 1254 
L 1798 3723 
z
" transform="scale(0.015625)"/>
       </defs>
       <use xlink:href="#CMR17-34" transform="scale(0.996264)"/>
       <use xlink:href="#CMR17-30" transform="translate(45.690477 0) scale(0.996264)"/>
       <use xlink:href="#CMR17-30" transform="translate(91.380954 0) scale(0.996264)"/>
       <use xlink:href="#CMR17-30" transform="translate(137.071431 0) scale(0.996264)"/>
      </g>
     </g>
    </g>
    <g id="xtick_6">
     <g id="line2d_6">
      <g>
       <use xlink:href="#m3389bc8476" x="272.986594" y="228.96" style="stroke: #000000; stroke-width: 0.8"/>
      </g>
     </g>
     <g id="text_6">
      <!-- $\mathdefault{5000}$ -->
      <g transform="translate(263.023924 243.05832) scale(0.1 -0.1)">
       <defs>
        <path id="CMR17-35" d="M 730 3750 
C 794 3724 1056 3641 1325 3641 
C 1920 3641 2246 3961 2432 4140 
C 2432 4191 2432 4224 2394 4224 
C 2387 4224 2374 4224 2323 4198 
C 2099 4102 1837 4032 1517 4032 
C 1325 4032 1037 4055 723 4191 
C 653 4224 640 4224 634 4224 
C 602 4224 595 4217 595 4090 
L 595 2231 
C 595 2113 595 2080 659 2080 
C 691 2080 704 2093 736 2139 
C 941 2435 1222 2560 1542 2560 
C 1766 2560 2246 2415 2246 1293 
C 2246 1087 2246 716 2054 422 
C 1894 159 1645 25 1370 25 
C 947 25 518 319 403 812 
C 429 806 480 793 506 793 
C 589 793 749 838 749 1036 
C 749 1209 627 1280 506 1280 
C 358 1280 262 1190 262 1011 
C 262 454 704 -128 1382 -128 
C 2042 -128 2669 441 2669 1267 
C 2669 2054 2170 2662 1549 2662 
C 1222 2662 947 2540 730 2304 
L 730 3750 
z
" transform="scale(0.015625)"/>
       </defs>
       <use xlink:href="#CMR17-35" transform="scale(0.996264)"/>
       <use xlink:href="#CMR17-30" transform="translate(45.690477 0) scale(0.996264)"/>
       <use xlink:href="#CMR17-30" transform="translate(91.380954 0) scale(0.996264)"/>
       <use xlink:href="#CMR17-30" transform="translate(137.071431 0) scale(0.996264)"/>
      </g>
     </g>
    </g>
    <g id="xtick_7">
     <g id="line2d_7">
      <g>
       <use xlink:href="#m3389bc8476" x="316.473326" y="228.96" style="stroke: #000000; stroke-width: 0.8"/>
      </g>
     </g>
     <g id="text_7">
      <!-- $\mathdefault{6000}$ -->
      <g transform="translate(306.510655 243.05832) scale(0.1 -0.1)">
       <defs>
        <path id="CMR17-36" d="M 678 2198 
C 678 3712 1395 4076 1811 4076 
C 1946 4076 2272 4049 2400 3782 
C 2298 3782 2106 3782 2106 3558 
C 2106 3385 2246 3328 2336 3328 
C 2394 3328 2566 3353 2566 3571 
C 2566 3987 2246 4224 1805 4224 
C 1043 4224 243 3411 243 2011 
C 243 257 966 -128 1478 -128 
C 2099 -128 2688 431 2688 1295 
C 2688 2101 2170 2688 1517 2688 
C 1126 2688 838 2430 678 1979 
L 678 2198 
z
M 1478 25 
C 691 25 691 1212 691 1450 
C 691 1914 909 2585 1504 2585 
C 1613 2585 1926 2585 2138 2140 
C 2253 1889 2253 1624 2253 1302 
C 2253 954 2253 696 2118 438 
C 1978 173 1773 25 1478 25 
z
" transform="scale(0.015625)"/>
       </defs>
       <use xlink:href="#CMR17-36" transform="scale(0.996264)"/>
       <use xlink:href="#CMR17-30" transform="translate(45.690477 0) scale(0.996264)"/>
       <use xlink:href="#CMR17-30" transform="translate(91.380954 0) scale(0.996264)"/>
       <use xlink:href="#CMR17-30" transform="translate(137.071431 0) scale(0.996264)"/>
      </g>
     </g>
    </g>
    <g id="xtick_8">
     <g id="line2d_8">
      <g>
       <use xlink:href="#m3389bc8476" x="359.960058" y="228.96" style="stroke: #000000; stroke-width: 0.8"/>
      </g>
     </g>
     <g id="text_8">
      <!-- $\mathdefault{7000}$ -->
      <g transform="translate(349.997387 243.05832) scale(0.1 -0.1)">
       <defs>
        <path id="CMR17-37" d="M 2886 3955 
L 2886 4096 
L 1382 4096 
C 634 4096 621 4166 595 4288 
L 480 4288 
L 294 3104 
L 410 3104 
C 429 3226 474 3552 550 3673 
C 589 3724 1062 3724 1171 3724 
L 2579 3724 
L 1869 2670 
C 1395 1961 1069 1003 1069 166 
C 1069 89 1069 -128 1299 -128 
C 1530 -128 1530 89 1530 172 
L 1530 466 
C 1530 1514 1709 2204 2003 2644 
L 2886 3955 
z
" transform="scale(0.015625)"/>
       </defs>
       <use xlink:href="#CMR17-37" transform="scale(0.996264)"/>
       <use xlink:href="#CMR17-30" transform="translate(45.690477 0) scale(0.996264)"/>
       <use xlink:href="#CMR17-30" transform="translate(91.380954 0) scale(0.996264)"/>
       <use xlink:href="#CMR17-30" transform="translate(137.071431 0) scale(0.996264)"/>
      </g>
     </g>
    </g>
    <g id="text_9">
     <!-- Iteration -->
     <g transform="translate(189.787377 256.278627) scale(0.1 -0.1)">
      <defs>
       <path id="NimbusSanL-Regu-49" d="M 1242 4672 
L 640 4672 
L 640 0 
L 1242 0 
L 1242 4672 
z
" transform="scale(0.015625)"/>
       <path id="NimbusSanL-Regu-74" d="M 1626 3328 
L 1075 3328 
L 1075 4249 
L 544 4249 
L 544 3328 
L 90 3328 
L 90 2892 
L 544 2892 
L 544 402 
C 544 64 774 -128 1190 -128 
C 1318 -128 1446 -116 1626 -84 
L 1626 364 
C 1555 345 1472 339 1370 339 
C 1139 339 1075 402 1075 634 
L 1075 2892 
L 1626 2892 
L 1626 3328 
z
" transform="scale(0.015625)"/>
       <path id="NimbusSanL-Regu-65" d="M 3283 1484 
C 3283 1998 3245 2311 3149 2565 
C 2931 3123 2419 3456 1792 3456 
C 858 3456 256 2734 256 1619 
C 256 545 838 -128 1779 -128 
C 2547 -128 3078 307 3213 1018 
L 2675 1018 
C 2528 588 2227 364 1798 364 
C 1459 364 1171 514 992 787 
C 864 974 819 1161 813 1484 
L 3283 1484 
z
M 826 1920 
C 870 2552 1248 2963 1786 2963 
C 2310 2963 2714 2519 2714 1959 
C 2714 1946 2714 1933 2707 1920 
L 826 1920 
z
" transform="scale(0.015625)"/>
       <path id="NimbusSanL-Regu-72" d="M 442 3328 
L 442 0 
L 979 0 
L 979 1727 
C 979 2203 1101 2514 1357 2698 
C 1523 2819 1683 2857 2054 2863 
L 2054 3404 
C 1965 3449 1920 3456 1850 3456 
C 1504 3456 1242 3251 934 2750 
L 934 3328 
L 442 3328 
z
" transform="scale(0.015625)"/>
       <path id="NimbusSanL-Regu-61" d="M 3424 332 
C 3366 320 3341 320 3309 320 
C 3123 320 3021 415 3021 581 
L 3021 2542 
C 3021 3135 2586 3456 1760 3456 
C 1274 3456 870 3315 646 3065 
C 493 2893 429 2702 416 2370 
L 954 2370 
C 998 2778 1242 2963 1741 2963 
C 2221 2963 2490 2784 2490 2466 
L 2490 2326 
C 2490 2103 2355 2007 1933 1956 
C 1178 1861 1062 1835 858 1753 
C 467 1593 269 1294 269 861 
C 269 256 691 -128 1370 -128 
C 1792 -128 2131 19 2509 364 
C 2547 25 2714 -128 3059 -128 
C 3168 -128 3251 -116 3424 -71 
L 3424 332 
z
M 2490 1071 
C 2490 893 2438 785 2278 638 
C 2061 441 1798 339 1485 339 
C 1069 339 826 536 826 874 
C 826 1224 1062 1402 1632 1485 
C 2195 1562 2310 1587 2490 1670 
L 2490 1071 
z
" transform="scale(0.015625)"/>
       <path id="NimbusSanL-Regu-69" d="M 960 3358 
L 429 3358 
L 429 0 
L 960 0 
L 960 3358 
z
M 960 4672 
L 422 4672 
L 422 3999 
L 960 3999 
L 960 4672 
z
" transform="scale(0.015625)"/>
       <path id="NimbusSanL-Regu-6f" d="M 1741 3456 
C 800 3456 230 2784 230 1663 
C 230 543 794 -128 1747 -128 
C 2688 -128 3264 543 3264 1638 
C 3264 2791 2707 3456 1741 3456 
z
M 1747 2963 
C 2349 2963 2707 2472 2707 1644 
C 2707 861 2336 364 1747 364 
C 1152 364 787 855 787 1663 
C 787 2466 1152 2963 1747 2963 
z
" transform="scale(0.015625)"/>
       <path id="NimbusSanL-Regu-6e" d="M 448 3328 
L 448 0 
L 986 0 
L 986 1835 
C 986 2539 1344 2988 1894 2988 
C 2317 2988 2586 2732 2586 2328 
L 2586 0 
L 3117 0 
L 3117 2539 
C 3117 3097 2701 3456 2054 3456 
C 1555 3456 1235 3263 941 2796 
L 941 3328 
L 448 3328 
z
" transform="scale(0.015625)"/>
      </defs>
      <use xlink:href="#NimbusSanL-Regu-49" transform="scale(0.996264)"/>
      <use xlink:href="#NimbusSanL-Regu-74" transform="translate(27.69517 0) scale(0.996264)"/>
      <use xlink:href="#NimbusSanL-Regu-65" transform="translate(55.390339 0) scale(0.996264)"/>
      <use xlink:href="#NimbusSanL-Regu-72" transform="translate(110.782016 0) scale(0.996264)"/>
      <use xlink:href="#NimbusSanL-Regu-61" transform="translate(142.961149 0) scale(0.996264)"/>
      <use xlink:href="#NimbusSanL-Regu-74" transform="translate(198.352826 0) scale(0.996264)"/>
      <use xlink:href="#NimbusSanL-Regu-69" transform="translate(226.047996 0) scale(0.996264)"/>
      <use xlink:href="#NimbusSanL-Regu-6f" transform="translate(248.16478 0) scale(0.996264)"/>
      <use xlink:href="#NimbusSanL-Regu-6e" transform="translate(303.556457 0) scale(0.996264)"/>
     </g>
    </g>
   </g>
   <g id="matplotlib.axis_2">
    <g id="ytick_1">
     <g id="line2d_9">
      <defs>
       <path id="m4cc7f59c3a" d="M 0 0 
L -3.5 0 
" style="stroke: #000000; stroke-width: 0.8"/>
      </defs>
      <g>
       <use xlink:href="#m4cc7f59c3a" x="40.334753" y="211.512002" style="stroke: #000000; stroke-width: 0.8"/>
      </g>
     </g>
     <g id="text_10">
      <!-- $\mathdefault{−2}$ -->
      <g transform="translate(20.604674 215.061162) scale(0.1 -0.1)">
       <defs>
        <path id="CMSY10-0" d="M 4218 1472 
C 4326 1472 4442 1472 4442 1600 
C 4442 1728 4326 1728 4218 1728 
L 755 1728 
C 646 1728 531 1728 531 1600 
C 531 1472 646 1472 755 1472 
L 4218 1472 
z
" transform="scale(0.015625)"/>
       </defs>
       <use xlink:href="#CMSY10-0" transform="scale(0.996264)"/>
       <use xlink:href="#CMR17-32" transform="translate(77.487468 0) scale(0.996264)"/>
      </g>
     </g>
    </g>
    <g id="ytick_2">
     <g id="line2d_10">
      <g>
       <use xlink:href="#m4cc7f59c3a" x="40.334753" y="171.943461" style="stroke: #000000; stroke-width: 0.8"/>
      </g>
     </g>
     <g id="text_11">
      <!-- $\mathdefault{0}$ -->
      <g transform="translate(28.353418 175.492621) scale(0.1 -0.1)">
       <use xlink:href="#CMR17-30" transform="scale(0.996264)"/>
      </g>
     </g>
    </g>
    <g id="ytick_3">
     <g id="line2d_11">
      <g>
       <use xlink:href="#m4cc7f59c3a" x="40.334753" y="132.374919" style="stroke: #000000; stroke-width: 0.8"/>
      </g>
     </g>
     <g id="text_12">
      <!-- $\mathdefault{2}$ -->
      <g transform="translate(28.353418 135.924079) scale(0.1 -0.1)">
       <use xlink:href="#CMR17-32" transform="scale(0.996264)"/>
      </g>
     </g>
    </g>
    <g id="ytick_4">
     <g id="line2d_12">
      <g>
       <use xlink:href="#m4cc7f59c3a" x="40.334753" y="92.806378" style="stroke: #000000; stroke-width: 0.8"/>
      </g>
     </g>
     <g id="text_13">
      <!-- $\mathdefault{4}$ -->
      <g transform="translate(28.353418 96.355538) scale(0.1 -0.1)">
       <use xlink:href="#CMR17-34" transform="scale(0.996264)"/>
      </g>
     </g>
    </g>
    <g id="ytick_5">
     <g id="line2d_13">
      <g>
       <use xlink:href="#m4cc7f59c3a" x="40.334753" y="53.237837" style="stroke: #000000; stroke-width: 0.8"/>
      </g>
     </g>
     <g id="text_14">
      <!-- $\mathdefault{6}$ -->
      <g transform="translate(28.353418 56.786997) scale(0.1 -0.1)">
       <use xlink:href="#CMR17-36" transform="scale(0.996264)"/>
      </g>
     </g>
    </g>
    <g id="ytick_6">
     <g id="line2d_14">
      <g>
       <use xlink:href="#m4cc7f59c3a" x="40.334753" y="13.669295" style="stroke: #000000; stroke-width: 0.8"/>
      </g>
     </g>
     <g id="text_15">
      <!-- $\mathdefault{8}$ -->
      <g transform="translate(28.353418 17.218455) scale(0.1 -0.1)">
       <defs>
        <path id="CMR17-38" d="M 1741 2289 
C 2144 2494 2554 2803 2554 3298 
C 2554 3884 1990 4224 1472 4224 
C 890 4224 378 3800 378 3215 
C 378 3054 416 2777 666 2533 
C 730 2469 998 2276 1171 2154 
C 883 2006 211 1652 211 945 
C 211 282 838 -128 1459 -128 
C 2144 -128 2720 366 2720 1022 
C 2720 1607 2330 1877 2074 2051 
L 1741 2289 
z
M 902 2855 
C 851 2887 595 3086 595 3388 
C 595 3781 998 4076 1459 4076 
C 1965 4076 2336 3716 2336 3298 
C 2336 2700 1670 2359 1638 2359 
C 1632 2359 1626 2359 1574 2398 
L 902 2855 
z
M 2080 1536 
C 2176 1466 2483 1253 2483 861 
C 2483 385 2010 25 1472 25 
C 890 25 448 443 448 951 
C 448 1459 838 1884 1280 2083 
L 2080 1536 
z
" transform="scale(0.015625)"/>
       </defs>
       <use xlink:href="#CMR17-38" transform="scale(0.996264)"/>
      </g>
     </g>
    </g>
    <g id="text_16">
     <!-- Aerodynamic Coefficients - Blade_1 -->
     <g transform="translate(14.482687 196.280864) rotate(-90) scale(0.1 -0.1)">
      <defs>
       <path id="NimbusSanL-Regu-41" d="M 3034 1408 
L 3514 0 
L 4179 0 
L 2541 4672 
L 1773 4672 
L 109 0 
L 742 0 
L 1235 1408 
L 3034 1408 
z
M 2867 1907 
L 1382 1907 
L 2150 4032 
L 2867 1907 
z
" transform="scale(0.015625)"/>
       <path id="NimbusSanL-Regu-64" d="M 3168 4672 
L 2637 4672 
L 2637 2937 
C 2413 3276 2054 3456 1606 3456 
C 736 3456 166 2759 166 1695 
C 166 568 723 -128 1626 -128 
C 2086 -128 2406 44 2694 460 
L 2694 19 
L 3168 19 
L 3168 4672 
z
M 1696 2956 
C 2272 2956 2637 2447 2637 1651 
C 2637 880 2266 371 1702 371 
C 1114 371 723 887 723 1663 
C 723 2440 1114 2956 1696 2956 
z
" transform="scale(0.015625)"/>
       <path id="NimbusSanL-Regu-79" d="M 2483 3328 
L 1555 724 
L 698 3328 
L 128 3328 
L 1261 -29 
L 1056 -558 
C 973 -794 851 -884 627 -884 
C 550 -884 461 -871 346 -845 
L 346 -1325 
C 454 -1383 563 -1408 704 -1408 
C 877 -1408 1062 -1351 1203 -1248 
C 1370 -1127 1466 -986 1568 -718 
L 3059 3328 
L 2483 3328 
z
" transform="scale(0.015625)"/>
       <path id="NimbusSanL-Regu-6d" d="M 448 3328 
L 448 0 
L 986 0 
L 986 2089 
C 986 2597 1338 2988 1773 2988 
C 2170 2988 2394 2744 2394 2315 
L 2394 0 
L 2931 0 
L 2931 2109 
C 2931 2597 3283 2988 3718 2988 
C 4109 2988 4339 2738 4339 2315 
L 4339 0 
L 4877 0 
L 4877 2520 
C 4877 3123 4531 3456 3904 3456 
C 3456 3456 3187 3321 2874 2943 
C 2675 3302 2406 3456 1971 3456 
C 1523 3456 1229 3289 941 2886 
L 941 3328 
L 448 3328 
z
" transform="scale(0.015625)"/>
       <path id="NimbusSanL-Regu-63" d="M 3014 2237 
C 2989 2561 2918 2771 2790 2956 
C 2560 3270 2157 3456 1690 3456 
C 787 3456 198 2740 198 1632 
C 198 555 774 -128 1683 -128 
C 2483 -128 2989 352 3053 1167 
L 2515 1167 
C 2426 632 2150 364 1696 364 
C 1107 364 755 842 755 1632 
C 755 2466 1101 2963 1683 2963 
C 2131 2963 2413 2701 2477 2237 
L 3014 2237 
z
" transform="scale(0.015625)"/>
       <path id="NimbusSanL-Regu-43" d="M 4237 3219 
C 4051 4236 3462 4736 2438 4736 
C 1811 4736 1306 4537 960 4154 
C 538 3696 307 3035 307 2284 
C 307 1522 544 867 986 415 
C 1344 44 1805 -128 2413 -128 
C 3552 -128 4192 485 4333 1712 
L 3718 1712 
C 3667 1394 3603 1178 3507 994 
C 3315 612 2918 396 2419 396 
C 1491 396 902 1134 902 2291 
C 902 3480 1466 4211 2368 4211 
C 2746 4211 3098 4096 3290 3918 
C 3462 3759 3558 3562 3629 3219 
L 4237 3219 
z
" transform="scale(0.015625)"/>
       <path id="NimbusSanL-Regu-66" d="M 1651 3328 
L 1094 3328 
L 1094 3860 
C 1094 4087 1222 4204 1466 4204 
C 1510 4204 1530 4204 1651 4198 
L 1651 4639 
C 1530 4665 1459 4672 1350 4672 
C 858 4672 563 4390 563 3905 
L 563 3328 
L 115 3328 
L 115 2892 
L 563 2892 
L 563 0 
L 1094 0 
L 1094 2892 
L 1651 2892 
L 1651 3328 
z
" transform="scale(0.015625)"/>
       <path id="NimbusSanL-Regu-2" d="M 1613 3328 
L 1056 3328 
L 1056 3860 
C 1056 4087 1184 4204 1427 4204 
C 1472 4204 1491 4204 1613 4198 
L 1613 4639 
C 1491 4665 1421 4672 1312 4672 
C 819 4672 525 4390 525 3905 
L 525 3328 
L 77 3328 
L 77 2892 
L 525 2892 
L 525 0 
L 1056 0 
L 1056 2892 
L 1613 2892 
L 1613 3328 
z
M 2790 3328 
L 2259 3328 
L 2259 0 
L 2790 0 
L 2790 3328 
z
M 2790 4672 
L 2259 4672 
L 2259 3999 
L 2790 3999 
L 2790 4672 
z
" transform="scale(0.015625)"/>
       <path id="NimbusSanL-Regu-73" d="M 2803 2428 
C 2797 3084 2362 3456 1587 3456 
C 806 3456 301 3052 301 2434 
C 301 1912 570 1663 1363 1472 
L 1862 1351 
C 2234 1262 2381 1129 2381 887 
C 2381 574 2067 364 1600 364 
C 1312 364 1069 447 934 587 
C 851 683 813 778 781 1014 
L 218 1014 
C 243 243 678 -128 1555 -128 
C 2400 -128 2938 288 2938 931 
C 2938 1428 2656 1702 1990 1861 
L 1478 1982 
C 1043 2084 858 2224 858 2459 
C 858 2765 1133 2963 1568 2963 
C 1997 2963 2227 2778 2240 2428 
L 2803 2428 
z
" transform="scale(0.015625)"/>
       <path id="NimbusSanL-Regu-2d" d="M 1818 1996 
L 294 1996 
L 294 1536 
L 1818 1536 
L 1818 1996 
z
" transform="scale(0.015625)"/>
       <path id="NimbusSanL-Regu-42" d="M 506 0 
L 2611 0 
C 3053 0 3379 121 3629 390 
C 3859 632 3987 961 3987 1321 
C 3987 1878 3731 2214 3136 2444 
C 3558 2643 3782 2994 3782 3476 
C 3782 3821 3654 4127 3411 4345 
C 3168 4569 2848 4672 2400 4672 
L 506 4672 
L 506 0 
z
M 1101 2636 
L 1101 4147 
L 2253 4147 
C 2586 4147 2771 4101 2931 3977 
C 3098 3847 3187 3652 3187 3391 
C 3187 3138 3098 2936 2931 2806 
C 2771 2682 2586 2636 2253 2636 
L 1101 2636 
z
M 1101 524 
L 1101 2112 
L 2554 2112 
C 2842 2112 3034 2042 3174 1890 
C 3315 1745 3392 1542 3392 1315 
C 3392 1093 3315 891 3174 746 
C 3034 594 2842 524 2554 524 
L 1101 524 
z
" transform="scale(0.015625)"/>
       <path id="NimbusSanL-Regu-6c" d="M 973 4672 
L 435 4672 
L 435 0 
L 973 0 
L 973 4672 
z
" transform="scale(0.015625)"/>
       <path id="NimbusSanL-Regu-31" d="M 1658 3232 
L 1658 0 
L 2221 0 
L 2221 4537 
L 1850 4537 
C 1651 3840 1523 3744 653 3635 
L 653 3232 
L 1658 3232 
z
" transform="scale(0.015625)"/>
      </defs>
      <use xlink:href="#NimbusSanL-Regu-41" transform="scale(0.996264)"/>
      <use xlink:href="#NimbusSanL-Regu-65" transform="translate(66.450031 0) scale(0.996264)"/>
      <use xlink:href="#NimbusSanL-Regu-72" transform="translate(121.841708 0) scale(0.996264)"/>
      <use xlink:href="#NimbusSanL-Regu-6f" transform="translate(155.016938 0) scale(0.996264)"/>
      <use xlink:href="#NimbusSanL-Regu-64" transform="translate(210.408615 0) scale(0.996264)"/>
      <use xlink:href="#NimbusSanL-Regu-79" transform="translate(265.800292 0) scale(0.996264)"/>
      <use xlink:href="#NimbusSanL-Regu-6e" transform="translate(315.613492 0) scale(0.996264)"/>
      <use xlink:href="#NimbusSanL-Regu-61" transform="translate(371.005169 0) scale(0.996264)"/>
      <use xlink:href="#NimbusSanL-Regu-6d" transform="translate(426.396846 0) scale(0.996264)"/>
      <use xlink:href="#NimbusSanL-Regu-69" transform="translate(509.385276 0) scale(0.996264)"/>
      <use xlink:href="#NimbusSanL-Regu-63" transform="translate(531.502061 0) scale(0.996264)"/>
      <use xlink:href="#NimbusSanL-Regu-43" transform="translate(609.010431 0) scale(0.996264)"/>
      <use xlink:href="#NimbusSanL-Regu-6f" transform="translate(680.940416 0) scale(0.996264)"/>
      <use xlink:href="#NimbusSanL-Regu-65" transform="translate(736.332093 0) scale(0.996264)"/>
      <use xlink:href="#NimbusSanL-Regu-66" transform="translate(791.72377 0) scale(0.996264)"/>
      <use xlink:href="#NimbusSanL-Regu-2" transform="translate(819.418939 0) scale(0.996264)"/>
      <use xlink:href="#NimbusSanL-Regu-63" transform="translate(869.23214 0) scale(0.996264)"/>
      <use xlink:href="#NimbusSanL-Regu-69" transform="translate(919.04534 0) scale(0.996264)"/>
      <use xlink:href="#NimbusSanL-Regu-65" transform="translate(941.162125 0) scale(0.996264)"/>
      <use xlink:href="#NimbusSanL-Regu-6e" transform="translate(996.553802 0) scale(0.996264)"/>
      <use xlink:href="#NimbusSanL-Regu-74" transform="translate(1051.945479 0) scale(0.996264)"/>
      <use xlink:href="#NimbusSanL-Regu-73" transform="translate(1079.640648 0) scale(0.996264)"/>
      <use xlink:href="#NimbusSanL-Regu-2d" transform="translate(1157.149018 0) scale(0.996264)"/>
      <use xlink:href="#NimbusSanL-Regu-42" transform="translate(1218.019418 0) scale(0.996264)"/>
      <use xlink:href="#NimbusSanL-Regu-6c" transform="translate(1284.469449 0) scale(0.996264)"/>
      <use xlink:href="#NimbusSanL-Regu-61" transform="translate(1306.586233 0) scale(0.996264)"/>
      <use xlink:href="#NimbusSanL-Regu-64" transform="translate(1361.97791 0) scale(0.996264)"/>
      <use xlink:href="#NimbusSanL-Regu-65" transform="translate(1417.369587 0) scale(0.996264)"/>
      <use xlink:href="#NimbusSanL-Regu-31" transform="translate(1508.626829 0) scale(0.996264)"/>
      <path d="M 1478.738605 0 
L 1508.626829 0 
L 1508.626829 0.3985 
L 1478.738605 0.3985 
L 1478.738605 0 
z
"/>
     </g>
    </g>
   </g>
   <g id="line2d_15">
    <path d="M 55.552935 116.025248 
L 55.726882 20.662993 
L 55.813855 17.28 
L 55.857342 19.075404 
L 56.118262 29.481037 
L 56.248722 29.380472 
L 56.335696 29.314882 
L 56.379183 29.371745 
L 56.509643 30.154775 
L 56.770563 31.779621 
L 56.94451 32.255979 
L 57.07497 33.134354 
L 57.20543 35.694849 
L 57.422864 40.95119 
L 57.596811 43.680963 
L 57.770758 51.075899 
L 58.075165 68.174468 
L 58.249112 76.105271 
L 58.379572 91.614086 
L 58.683979 140.548614 
L 58.857926 161.024354 
L 59.20582 206.63902 
L 59.510227 216.116762 
L 59.684174 218.766752 
L 59.901608 218.860258 
L 60.032068 218.544542 
L 60.162528 217.410988 
L 60.292988 216.556895 
L 60.466935 216.034332 
L 60.640882 214.549142 
L 60.771342 211.665994 
L 60.901803 209.597611 
L 61.07575 208.267354 
L 61.249697 204.629758 
L 61.554104 196.643273 
L 61.728051 193.223235 
L 61.901998 183.928956 
L 62.119431 171.334784 
L 62.293378 165.384437 
L 62.467325 150.557769 
L 62.728245 125.788007 
L 62.945679 116.397379 
L 63.293573 97.891095 
L 63.554493 97.045919 
L 63.59798 97.102449 
L 63.684954 97.86992 
L 64.337255 112.740201 
L 64.554688 119.167602 
L 64.728635 121.641734 
L 64.902582 127.037252 
L 65.163502 134.566053 
L 65.337449 136.742445 
L 65.511396 142.090733 
L 65.72883 147.672624 
L 65.902777 149.86867 
L 66.120211 156.5456 
L 66.337644 162.228353 
L 66.511591 164.45693 
L 66.729025 170.570759 
L 66.902972 174.126447 
L 67.120405 175.393921 
L 67.555273 178.179236 
L 67.85968 178.589123 
L 68.033627 179.129007 
L 68.25106 179.833571 
L 68.425007 180.203512 
L 68.642441 181.443441 
L 68.685928 181.666449 
L 68.772901 181.616848 
L 68.946848 181.439494 
L 69.077308 180.963198 
L 69.207768 179.336922 
L 69.425202 175.998207 
L 69.599149 174.31991 
L 69.773096 170.017975 
L 70.164477 157.075645 
L 70.38191 155.07571 
L 70.773291 150.675145 
L 70.947238 150.09698 
L 71.164671 148.383535 
L 71.338618 147.350623 
L 71.599539 147.520608 
L 71.729999 147.817071 
L 72.077893 148.888805 
L 72.295326 148.944517 
L 72.686707 148.583386 
L 72.947627 148.539614 
L 73.121574 148.674184 
L 73.339008 148.845986 
L 73.469468 149.196362 
L 73.599928 150.378818 
L 73.817362 152.05182 
L 73.991309 152.774593 
L 74.38269 154.743367 
L 74.730583 155.266799 
L 74.817557 155.173002 
L 75.078477 154.999967 
L 75.208937 154.649662 
L 75.556831 153.437025 
L 75.730778 152.835132 
L 76.078672 151.37697 
L 76.296106 150.856621 
L 76.687486 149.788066 
L 77.209327 149.542203 
L 77.470248 149.673813 
L 77.644194 150.069898 
L 77.905115 150.833361 
L 78.122549 151.177718 
L 78.296495 151.886039 
L 78.513929 152.643747 
L 78.731363 153.088796 
L 78.90531 154.021396 
L 79.122743 155.013824 
L 79.340177 155.56938 
L 79.557611 156.896018 
L 79.688071 157.320434 
L 79.905505 157.633936 
L 80.166425 158.559767 
L 80.296885 158.773659 
L 80.731752 158.871516 
L 80.862213 158.639032 
L 81.03616 158.455665 
L 81.210106 157.825891 
L 81.558 156.009904 
L 81.731947 155.033793 
L 81.905894 152.61011 
L 82.123328 150.198345 
L 82.297275 149.283776 
L 82.558195 146.215937 
L 82.732142 145.024383 
L 83.080036 144.679025 
L 83.123523 144.783029 
L 83.210496 145.467534 
L 83.340956 146.402736 
L 83.514903 147.090628 
L 83.68885 149.147444 
L 83.993257 153.380962 
L 84.167204 154.972314 
L 84.645558 160.502149 
L 85.167399 163.281631 
L 85.341346 163.195252 
L 85.471806 162.614296 
L 85.68924 161.246041 
L 85.863187 160.537274 
L 86.037134 158.630397 
L 86.341541 154.683008 
L 86.515488 153.171394 
L 86.993842 148.068342 
L 87.254762 145.731138 
L 87.428709 144.916711 
L 87.863576 144.626462 
L 88.124497 145.194585 
L 88.298444 145.595813 
L 88.472391 146.679953 
L 88.689824 147.945816 
L 88.863771 148.485214 
L 89.081205 150.146343 
L 89.342125 152.256892 
L 89.559559 152.731387 
L 89.820479 154.077731 
L 90.0814 154.906745 
L 90.385807 155.13049 
L 90.646727 155.250567 
L 91.038108 155.136264 
L 91.646922 153.91202 
L 91.864356 153.234597 
L 92.081789 152.822314 
L 92.299223 151.704037 
L 92.560143 150.502496 
L 92.777577 150.247912 
L 92.995011 149.60218 
L 93.168958 149.189031 
L 93.429878 148.968632 
L 93.734285 148.674341 
L 94.125666 148.732851 
L 94.777967 149.777703 
L 94.9954 150.348507 
L 95.212834 150.686607 
L 95.430268 151.568793 
L 95.821648 153.146846 
L 96.213029 153.325615 
L 96.473949 153.378972 
L 96.821843 153.268946 
L 96.952303 153.030911 
L 97.082764 152.845504 
L 97.343684 152.604706 
L 97.561118 151.950097 
L 97.995985 150.606927 
L 98.213419 150.433788 
L 98.778746 150.586424 
L 98.952693 150.663891 
L 99.2571 150.808788 
L 99.735454 151.156782 
L 100.648676 151.653979 
L 101.64887 151.589678 
L 103.692747 150.903423 
L 104.258074 150.998947 
L 104.779915 151.184932 
L 105.997544 151.604755 
L 106.562871 151.652764 
L 106.867278 151.52857 
L 107.041225 151.465775 
L 107.345632 151.334094 
L 107.693526 151.120186 
L 107.954447 150.93133 
L 108.258854 150.677284 
L 108.563261 150.469497 
L 108.780694 150.350369 
L 109.954836 150.256669 
L 110.30273 150.379186 
L 110.694111 150.608445 
L 110.955031 150.841897 
L 111.128978 150.931692 
L 111.476872 151.110872 
L 111.781279 151.275367 
L 112.781474 151.392982 
L 113.651208 150.913152 
L 113.955616 150.715418 
L 114.260023 150.468916 
L 114.56443 150.257946 
L 114.781863 150.130066 
L 115.216731 149.940405 
L 115.477651 149.90075 
L 115.956005 149.943078 
L 117.521528 150.883131 
L 119.043563 150.883416 
L 119.34797 150.673295 
L 119.652377 150.485233 
L 119.956785 150.319917 
L 120.217705 150.199958 
L 120.609086 150.021577 
L 120.826519 149.977204 
L 121.739741 149.976974 
L 123.044343 150.343862 
L 123.522697 150.437306 
L 124.392431 150.481102 
L 125.392626 150.358002 
L 127.045122 149.943534 
L 128.306237 150.021808 
L 129.002025 150.138696 
L 129.697813 150.227808 
L 130.219653 150.191802 
L 130.828468 150.090494 
L 131.785176 149.948738 
L 132.959317 149.837423 
L 134.220433 149.922793 
L 135.655495 150.08681 
L 137.04707 149.95281 
L 138.438646 149.776277 
L 140.699956 149.863947 
L 141.961071 149.923355 
L 143.787514 149.809063 
L 145.440009 149.72163 
L 148.049213 149.80094 
L 149.745196 149.776998 
L 152.267426 149.689751 
L 157.355374 149.647385 
L 159.355764 149.665616 
L 162.921676 149.608165 
L 164.661145 149.60275 
L 167.92265 149.640368 
L 186.665431 149.50721 
L 194.66699 149.482513 
L 222.455012 149.36351 
L 257.809725 149.237837 
L 301.12251 149.213867 
L 359.916571 149.25034 
L 359.916571 149.25034 
" clip-path="url(#p5a93bf8a5d)" style="fill: none; stroke: #1f77b4; stroke-width: 1.5; stroke-linecap: square"/>
   </g>
   <g id="line2d_16">
    <path d="M 55.552935 185.064754 
L 55.683395 204.737247 
L 55.726882 204.673303 
L 55.900829 201.968788 
L 55.987802 201.223281 
L 56.031289 201.242672 
L 56.205236 201.450391 
L 56.55313 201.769387 
L 56.81405 202.417895 
L 56.987997 202.902443 
L 57.161944 204.300393 
L 57.422864 206.823608 
L 57.596811 207.575135 
L 57.988192 209.765695 
L 58.162139 209.663218 
L 58.292599 209.184375 
L 58.423059 207.153901 
L 58.640493 202.073897 
L 58.81444 198.875551 
L 59.031873 188.199642 
L 59.162333 185.02677 
L 59.379767 182.866339 
L 59.727661 179.027128 
L 59.945095 178.554667 
L 60.119042 177.369423 
L 60.336475 175.615675 
L 60.510422 174.777482 
L 60.684369 172.697116 
L 60.945289 169.301369 
L 61.119236 168.325264 
L 61.641077 164.46891 
L 61.858511 163.248103 
L 62.119431 161.952353 
L 62.423838 161.577595 
L 62.510812 162.150106 
L 62.771732 165.476737 
L 62.945679 167.904345 
L 63.119626 174.328377 
L 63.293573 179.525269 
L 63.511007 181.412952 
L 63.989361 186.259105 
L 64.163308 187.117959 
L 64.337255 189.230256 
L 64.554688 191.242772 
L 64.728635 192.042565 
L 64.946069 194.430367 
L 65.120016 195.795205 
L 65.293963 196.223248 
L 65.511396 197.461613 
L 65.685343 198.143256 
L 66.076724 198.402212 
L 66.163697 197.995291 
L 66.294157 197.405341 
L 66.468104 196.971191 
L 66.642051 195.761666 
L 66.989945 192.538656 
L 67.207379 191.510974 
L 67.511786 190.209398 
L 67.99014 190.050053 
L 68.511981 188.357294 
L 68.685928 186.272229 
L 68.816388 185.11272 
L 68.990335 184.385112 
L 69.164282 182.583795 
L 69.425202 179.718126 
L 69.599149 178.911165 
L 69.903556 176.65341 
L 69.99053 176.853868 
L 70.12099 177.24082 
L 70.294937 177.50662 
L 70.468884 178.176084 
L 70.773291 179.43313 
L 70.990724 179.781591 
L 71.121185 180.360859 
L 71.251645 182.033024 
L 71.469079 184.595217 
L 71.643025 185.627509 
L 72.034406 188.503612 
L 72.25184 188.537244 
L 72.338813 188.182995 
L 72.556247 187.021292 
L 72.730194 186.44896 
L 72.904141 185.035399 
L 73.121574 183.291991 
L 73.295521 182.52365 
L 73.469468 180.69847 
L 73.860849 175.502254 
L 74.078282 174.250254 
L 74.295716 173.376956 
L 74.687097 173.321621 
L 74.991504 174.092344 
L 75.165451 174.793764 
L 76.078672 181.20461 
L 76.252619 181.967711 
L 76.470053 184.247627 
L 76.600513 185.118783 
L 76.77446 185.61646 
L 76.948407 186.755013 
L 77.296301 189.427867 
L 77.470248 190.183485 
L 77.731168 192.746117 
L 77.861628 193.328125 
L 78.079062 193.743799 
L 78.339982 194.460221 
L 78.383469 194.389152 
L 78.644389 194.254867 
L 78.774849 193.962319 
L 78.90531 193.085489 
L 79.122743 191.457531 
L 79.29669 190.677426 
L 79.470637 188.664077 
L 79.731558 185.064209 
L 79.905505 183.94448 
L 80.122938 180.603338 
L 80.296885 178.336022 
L 80.470832 177.659278 
L 80.949186 175.188954 
L 81.210106 175.049428 
L 81.29708 175.281642 
L 81.42754 175.63008 
L 81.601487 175.88443 
L 81.775434 176.619862 
L 81.949381 178.723123 
L 82.079841 179.827248 
L 82.253788 180.489781 
L 82.427735 182.063949 
L 82.819116 186.212917 
L 83.036549 187.193441 
L 83.340956 188.598579 
L 83.645363 188.642974 
L 83.732337 188.444979 
L 83.993257 187.677528 
L 84.167204 187.169001 
L 84.341151 185.715729 
L 84.471611 185.010171 
L 84.645558 184.605445 
L 84.862992 183.388821 
L 85.123912 182.024514 
L 85.341346 181.58653 
L 85.68924 180.846279 
L 86.037134 180.873107 
L 86.602461 182.218636 
L 86.906868 183.526989 
L 87.080815 184.053842 
L 87.298249 185.679911 
L 87.428709 186.171331 
L 87.646143 186.560912 
L 87.863576 187.499258 
L 88.037523 188.084431 
L 88.254957 188.325273 
L 88.515877 189.001004 
L 88.646338 189.16337 
L 89.168178 189.26407 
L 89.429099 188.902098 
L 89.646532 188.563387 
L 89.820479 187.787334 
L 90.124887 186.493696 
L 90.34232 186.059304 
L 90.820674 184.7179 
L 91.038108 184.118416 
L 91.255542 183.550768 
L 91.907843 183.413554 
L 92.125276 183.554875 
L 92.299223 183.990279 
L 92.60363 184.832727 
L 92.821064 185.100801 
L 93.038498 185.861237 
L 93.168958 186.164652 
L 93.386391 186.414127 
L 93.603825 187.0559 
L 93.734285 187.277435 
L 93.995206 187.507666 
L 94.517046 188.144471 
L 94.9954 188.322302 
L 95.343294 188.220165 
L 95.604215 187.769338 
L 95.995595 187.149794 
L 96.213029 186.932087 
L 96.647896 186.362427 
L 96.86533 186.032768 
L 97.12625 185.608753 
L 97.387171 185.379078 
L 97.909012 184.699104 
L 98.126445 184.910166 
L 98.430852 185.236641 
L 98.648286 185.435838 
L 99.083153 185.994822 
L 99.300587 186.315486 
L 99.561507 186.71217 
L 99.822428 186.917074 
L 100.213808 187.289767 
L 101.083543 187.433251 
L 102.909986 187.090441 
L 103.5188 187.158668 
L 104.171101 187.115558 
L 105.040836 186.859542 
L 106.171491 186.879909 
L 106.388924 186.932271 
L 106.736818 187.084253 
L 107.084712 187.293835 
L 107.432606 187.475678 
L 107.606553 187.542513 
L 107.954447 187.719503 
L 108.258854 187.901677 
L 108.606748 188.087402 
L 108.780694 188.14874 
L 109.172075 188.311217 
L 109.432995 188.405982 
L 110.520164 188.472423 
L 110.955031 188.348636 
L 111.172465 188.29121 
L 111.520359 188.124932 
L 111.781279 187.991654 
L 112.129173 187.803035 
L 112.390093 187.688525 
L 113.433775 187.595501 
L 113.651208 187.65186 
L 113.955616 187.79756 
L 114.303509 188.017975 
L 114.56443 188.200969 
L 114.781863 188.345737 
L 115.129757 188.53453 
L 115.434164 188.72446 
L 115.912519 188.954413 
L 116.260412 188.953526 
L 117.130147 188.715491 
L 117.478041 188.563507 
L 117.695475 188.507358 
L 118.086855 188.352302 
L 118.304289 188.303393 
L 119.608891 188.226084 
L 120.304678 188.383239 
L 121.174413 188.692797 
L 121.60928 188.833069 
L 123.000856 188.829709 
L 124.914272 188.569756 
L 125.87098 188.60049 
L 126.349334 188.760016 
L 126.697228 188.804083 
L 128.828078 189.062345 
L 131.567742 188.971732 
L 132.52445 189.143538 
L 132.959317 189.21268 
L 134.263919 189.352863 
L 135.264114 189.270784 
L 136.220822 189.182117 
L 138.134238 189.245233 
L 141.43923 189.466854 
L 147.353426 189.527016 
L 167.79219 189.744797 
L 176.96789 189.854184 
L 181.273077 189.882606 
L 192.014299 189.97735 
L 201.407433 190.037367 
L 232.413473 190.181243 
L 247.981723 190.195428 
L 293.294898 190.076818 
L 341.130303 189.916685 
L 359.916571 189.89033 
L 359.916571 189.89033 
" clip-path="url(#p5a93bf8a5d)" style="fill: none; stroke: #ff7f0e; stroke-width: 1.5; stroke-linecap: square"/>
   </g>
   <g id="patch_3">
    <path d="M 40.334753 228.96 
L 40.334753 7.2 
" style="fill: none; stroke: #000000; stroke-width: 0.8; stroke-linejoin: miter; stroke-linecap: square"/>
   </g>
   <g id="patch_4">
    <path d="M 375.134753 228.96 
L 375.134753 7.2 
" style="fill: none; stroke: #000000; stroke-width: 0.8; stroke-linejoin: miter; stroke-linecap: square"/>
   </g>
   <g id="patch_5">
    <path d="M 40.334753 228.96 
L 375.134753 228.96 
" style="fill: none; stroke: #000000; stroke-width: 0.8; stroke-linejoin: miter; stroke-linecap: square"/>
   </g>
   <g id="patch_6">
    <path d="M 40.334753 7.2 
L 375.134753 7.2 
" style="fill: none; stroke: #000000; stroke-width: 0.8; stroke-linejoin: miter; stroke-linecap: square"/>
   </g>
   <g id="legend_1">
    <g id="patch_7">
     <path d="M 321.748759 43.640613 
L 368.134753 43.640613 
Q 370.134753 43.640613 370.134753 41.640613 
L 370.134753 14.2 
Q 370.134753 12.2 368.134753 12.2 
L 321.748759 12.2 
Q 319.748759 12.2 319.748759 14.2 
L 319.748759 41.640613 
Q 319.748759 43.640613 321.748759 43.640613 
z
" style="fill: #ffffff; opacity: 0.8; stroke: #cccccc; stroke-linejoin: miter"/>
    </g>
    <g id="line2d_17">
     <path d="M 323.748759 19.79832 
L 333.748759 19.79832 
L 343.748759 19.79832 
" style="fill: none; stroke: #1f77b4; stroke-width: 1.5; stroke-linecap: square"/>
    </g>
    <g id="text_17">
     <!-- CD -->
     <g transform="translate(351.748759 23.29832) scale(0.1 -0.1)">
      <defs>
       <path id="NimbusSanL-Regu-44" d="M 570 0 
L 2368 0 
C 3546 0 4269 883 4269 2339 
C 4269 3788 3552 4672 2368 4672 
L 570 4672 
L 570 0 
z
M 1165 524 
L 1165 4147 
L 2266 4147 
C 3187 4147 3674 3525 3674 2332 
C 3674 1153 3187 524 2266 524 
L 1165 524 
z
" transform="scale(0.015625)"/>
      </defs>
      <use xlink:href="#NimbusSanL-Regu-43" transform="scale(0.996264)"/>
      <use xlink:href="#NimbusSanL-Regu-44" transform="translate(71.929985 0) scale(0.996264)"/>
     </g>
    </g>
    <g id="line2d_18">
     <path d="M 323.748759 34.018627 
L 333.748759 34.018627 
L 343.748759 34.018627 
" style="fill: none; stroke: #ff7f0e; stroke-width: 1.5; stroke-linecap: square"/>
    </g>
    <g id="text_18">
     <!-- CL -->
     <g transform="translate(351.748759 37.518627) scale(0.1 -0.1)">
      <defs>
       <path id="NimbusSanL-Regu-4c" d="M 1107 4672 
L 512 4672 
L 512 0 
L 3411 0 
L 3411 524 
L 1107 524 
L 1107 4672 
z
" transform="scale(0.015625)"/>
      </defs>
      <use xlink:href="#NimbusSanL-Regu-43" transform="scale(0.996264)"/>
      <use xlink:href="#NimbusSanL-Regu-4c" transform="translate(71.929985 0) scale(0.996264)"/>
     </g>
    </g>
   </g>
  </g>
 </g>
 <defs>
  <clipPath id="p5a93bf8a5d">
   <rect x="40.334753" y="7.2" width="334.8" height="221.76"/>
  </clipPath>
 </defs>
</svg>
