<?xml version="1.0" encoding="utf-8" standalone="no"?>
<!DOCTYPE svg PUBLIC "-//W3C//DTD SVG 1.1//EN"
  "http://www.w3.org/Graphics/SVG/1.1/DTD/svg11.dtd">
<svg xmlns:xlink="http://www.w3.org/1999/xlink" width="387.316088pt" height="267.529637pt" viewBox="0 0 387.316088 267.529637" xmlns="http://www.w3.org/2000/svg" version="1.1">
 <metadata>
  <rdf:RDF xmlns:dc="http://purl.org/dc/elements/1.1/" xmlns:cc="http://creativecommons.org/ns#" xmlns:rdf="http://www.w3.org/1999/02/22-rdf-syntax-ns#">
   <cc:Work>
    <dc:type rdf:resource="http://purl.org/dc/dcmitype/StillImage"/>
    <dc:date>2025-07-17T17:52:20.818676</dc:date>
    <dc:format>image/svg+xml</dc:format>
    <dc:creator>
     <cc:Agent>
      <dc:title>Matplotlib v3.10.3, https://matplotlib.org/</dc:title>
     </cc:Agent>
    </dc:creator>
   </cc:Work>
  </rdf:RDF>
 </metadata>
 <defs>
  <style type="text/css">*{stroke-linejoin: round; stroke-linecap: butt}</style>
 </defs>
 <g id="figure_1">
  <g id="patch_1">
   <path d="M 0 267.529637 
L 387.316088 267.529637 
L 387.316088 0 
L 0 0 
z
" style="fill: #ffffff"/>
  </g>
  <g id="axes_1">
   <g id="patch_2">
    <path d="M 45.316088 230.889024 
L 380.116088 230.889024 
L 380.116088 9.129024 
L 45.316088 9.129024 
z
" style="fill: #ffffff"/>
   </g>
   <g id="matplotlib.axis_1">
    <g id="xtick_1">
     <g id="line2d_1">
      <defs>
       <path id="m646fad2a45" d="M 0 0 
L 0 3.5 
" style="stroke: #000000; stroke-width: 0.8"/>
      </defs>
      <g>
       <use xlink:href="#m646fad2a45" x="60.53427" y="230.889024" style="stroke: #000000; stroke-width: 0.8"/>
      </g>
     </g>
     <g id="text_1">
      <!-- $\mathdefault{0}$ -->
      <g transform="translate(58.043602 244.987344) scale(0.1 -0.1)">
       <defs>
        <path id="CMR17-30" d="M 2688 2038 
C 2688 2430 2682 3099 2413 3613 
C 2176 4063 1798 4224 1466 4224 
C 1158 4224 768 4082 525 3620 
C 269 3137 243 2539 243 2038 
C 243 1671 250 1112 448 623 
C 723 -39 1216 -128 1466 -128 
C 1760 -128 2208 -7 2470 604 
C 2662 1048 2688 1568 2688 2038 
z
M 1466 -26 
C 1056 -26 813 328 723 816 
C 653 1196 653 1749 653 2109 
C 653 2604 653 3015 736 3407 
C 858 3954 1216 4121 1466 4121 
C 1728 4121 2067 3947 2189 3420 
C 2272 3054 2278 2623 2278 2109 
C 2278 1691 2278 1176 2202 797 
C 2067 96 1690 -26 1466 -26 
z
" transform="scale(0.015625)"/>
       </defs>
       <use xlink:href="#CMR17-30" transform="scale(0.996264)"/>
      </g>
     </g>
    </g>
    <g id="xtick_2">
     <g id="line2d_2">
      <g>
       <use xlink:href="#m646fad2a45" x="104.021002" y="230.889024" style="stroke: #000000; stroke-width: 0.8"/>
      </g>
     </g>
     <g id="text_2">
      <!-- $\mathdefault{1000}$ -->
      <g transform="translate(94.058331 244.987344) scale(0.1 -0.1)">
       <defs>
        <path id="CMR17-31" d="M 1702 4083 
C 1702 4217 1696 4224 1606 4224 
C 1357 3927 979 3833 621 3820 
C 602 3820 570 3820 563 3808 
C 557 3795 557 3782 557 3648 
C 755 3648 1088 3686 1344 3839 
L 1344 467 
C 1344 243 1331 166 781 166 
L 589 166 
L 589 0 
C 896 6 1216 12 1523 12 
C 1830 12 2150 6 2458 0 
L 2458 166 
L 2266 166 
C 1715 166 1702 236 1702 467 
L 1702 4083 
z
" transform="scale(0.015625)"/>
       </defs>
       <use xlink:href="#CMR17-31" transform="scale(0.996264)"/>
       <use xlink:href="#CMR17-30" transform="translate(45.690477 0) scale(0.996264)"/>
       <use xlink:href="#CMR17-30" transform="translate(91.380954 0) scale(0.996264)"/>
       <use xlink:href="#CMR17-30" transform="translate(137.071431 0) scale(0.996264)"/>
      </g>
     </g>
    </g>
    <g id="xtick_3">
     <g id="line2d_3">
      <g>
       <use xlink:href="#m646fad2a45" x="147.507734" y="230.889024" style="stroke: #000000; stroke-width: 0.8"/>
      </g>
     </g>
     <g id="text_3">
      <!-- $\mathdefault{2000}$ -->
      <g transform="translate(137.545063 244.987344) scale(0.1 -0.1)">
       <defs>
        <path id="CMR17-32" d="M 2669 990 
L 2554 990 
C 2490 537 2438 460 2413 422 
C 2381 371 1920 371 1830 371 
L 602 371 
C 832 620 1280 1073 1824 1596 
C 2214 1966 2669 2400 2669 3033 
C 2669 3788 2067 4224 1395 4224 
C 691 4224 262 3603 262 3027 
C 262 2777 448 2745 525 2745 
C 589 2745 781 2783 781 3007 
C 781 3206 614 3264 525 3264 
C 486 3264 448 3257 422 3244 
C 544 3788 915 4057 1306 4057 
C 1862 4057 2227 3616 2227 3033 
C 2227 2477 1901 1998 1536 1583 
L 262 147 
L 262 0 
L 2515 0 
L 2669 990 
z
" transform="scale(0.015625)"/>
       </defs>
       <use xlink:href="#CMR17-32" transform="scale(0.996264)"/>
       <use xlink:href="#CMR17-30" transform="translate(45.690477 0) scale(0.996264)"/>
       <use xlink:href="#CMR17-30" transform="translate(91.380954 0) scale(0.996264)"/>
       <use xlink:href="#CMR17-30" transform="translate(137.071431 0) scale(0.996264)"/>
      </g>
     </g>
    </g>
    <g id="xtick_4">
     <g id="line2d_4">
      <g>
       <use xlink:href="#m646fad2a45" x="190.994466" y="230.889024" style="stroke: #000000; stroke-width: 0.8"/>
      </g>
     </g>
     <g id="text_4">
      <!-- $\mathdefault{3000}$ -->
      <g transform="translate(181.031795 244.987344) scale(0.1 -0.1)">
       <defs>
        <path id="CMR17-33" d="M 1414 2176 
C 1984 2176 2234 1673 2234 1094 
C 2234 322 1824 25 1453 25 
C 1114 25 563 193 390 691 
C 422 678 454 678 486 678 
C 640 678 755 780 755 947 
C 755 1132 614 1216 486 1216 
C 378 1216 211 1164 211 927 
C 211 335 787 -128 1466 -128 
C 2176 -128 2720 432 2720 1087 
C 2720 1718 2208 2176 1600 2246 
C 2086 2347 2554 2776 2554 3353 
C 2554 3856 2048 4224 1472 4224 
C 890 4224 378 3862 378 3347 
C 378 3123 544 3084 627 3084 
C 762 3084 877 3167 877 3334 
C 877 3500 762 3584 627 3584 
C 602 3584 570 3584 544 3571 
C 730 3999 1235 4076 1459 4076 
C 1683 4076 2106 3966 2106 3347 
C 2106 3167 2080 2851 1862 2574 
C 1670 2329 1453 2316 1242 2297 
C 1210 2297 1062 2284 1037 2284 
C 992 2278 966 2272 966 2227 
C 966 2182 973 2176 1101 2176 
L 1414 2176 
z
" transform="scale(0.015625)"/>
       </defs>
       <use xlink:href="#CMR17-33" transform="scale(0.996264)"/>
       <use xlink:href="#CMR17-30" transform="translate(45.690477 0) scale(0.996264)"/>
       <use xlink:href="#CMR17-30" transform="translate(91.380954 0) scale(0.996264)"/>
       <use xlink:href="#CMR17-30" transform="translate(137.071431 0) scale(0.996264)"/>
      </g>
     </g>
    </g>
    <g id="xtick_5">
     <g id="line2d_5">
      <g>
       <use xlink:href="#m646fad2a45" x="234.481197" y="230.889024" style="stroke: #000000; stroke-width: 0.8"/>
      </g>
     </g>
     <g id="text_5">
      <!-- $\mathdefault{4000}$ -->
      <g transform="translate(224.518527 244.987344) scale(0.1 -0.1)">
       <defs>
        <path id="CMR17-34" d="M 2150 4147 
C 2150 4281 2144 4288 2029 4288 
L 128 1254 
L 128 1088 
L 1779 1088 
L 1779 460 
C 1779 230 1766 166 1318 166 
L 1197 166 
L 1197 0 
C 1402 12 1747 12 1965 12 
C 2182 12 2528 12 2733 0 
L 2733 166 
L 2611 166 
C 2163 166 2150 230 2150 460 
L 2150 1088 
L 2803 1088 
L 2803 1254 
L 2150 1254 
L 2150 4147 
z
M 1798 3723 
L 1798 1254 
L 256 1254 
L 1798 3723 
z
" transform="scale(0.015625)"/>
       </defs>
       <use xlink:href="#CMR17-34" transform="scale(0.996264)"/>
       <use xlink:href="#CMR17-30" transform="translate(45.690477 0) scale(0.996264)"/>
       <use xlink:href="#CMR17-30" transform="translate(91.380954 0) scale(0.996264)"/>
       <use xlink:href="#CMR17-30" transform="translate(137.071431 0) scale(0.996264)"/>
      </g>
     </g>
    </g>
    <g id="xtick_6">
     <g id="line2d_6">
      <g>
       <use xlink:href="#m646fad2a45" x="277.967929" y="230.889024" style="stroke: #000000; stroke-width: 0.8"/>
      </g>
     </g>
     <g id="text_6">
      <!-- $\mathdefault{5000}$ -->
      <g transform="translate(268.005259 244.987344) scale(0.1 -0.1)">
       <defs>
        <path id="CMR17-35" d="M 730 3750 
C 794 3724 1056 3641 1325 3641 
C 1920 3641 2246 3961 2432 4140 
C 2432 4191 2432 4224 2394 4224 
C 2387 4224 2374 4224 2323 4198 
C 2099 4102 1837 4032 1517 4032 
C 1325 4032 1037 4055 723 4191 
C 653 4224 640 4224 634 4224 
C 602 4224 595 4217 595 4090 
L 595 2231 
C 595 2113 595 2080 659 2080 
C 691 2080 704 2093 736 2139 
C 941 2435 1222 2560 1542 2560 
C 1766 2560 2246 2415 2246 1293 
C 2246 1087 2246 716 2054 422 
C 1894 159 1645 25 1370 25 
C 947 25 518 319 403 812 
C 429 806 480 793 506 793 
C 589 793 749 838 749 1036 
C 749 1209 627 1280 506 1280 
C 358 1280 262 1190 262 1011 
C 262 454 704 -128 1382 -128 
C 2042 -128 2669 441 2669 1267 
C 2669 2054 2170 2662 1549 2662 
C 1222 2662 947 2540 730 2304 
L 730 3750 
z
" transform="scale(0.015625)"/>
       </defs>
       <use xlink:href="#CMR17-35" transform="scale(0.996264)"/>
       <use xlink:href="#CMR17-30" transform="translate(45.690477 0) scale(0.996264)"/>
       <use xlink:href="#CMR17-30" transform="translate(91.380954 0) scale(0.996264)"/>
       <use xlink:href="#CMR17-30" transform="translate(137.071431 0) scale(0.996264)"/>
      </g>
     </g>
    </g>
    <g id="xtick_7">
     <g id="line2d_7">
      <g>
       <use xlink:href="#m646fad2a45" x="321.454661" y="230.889024" style="stroke: #000000; stroke-width: 0.8"/>
      </g>
     </g>
     <g id="text_7">
      <!-- $\mathdefault{6000}$ -->
      <g transform="translate(311.491991 244.987344) scale(0.1 -0.1)">
       <defs>
        <path id="CMR17-36" d="M 678 2198 
C 678 3712 1395 4076 1811 4076 
C 1946 4076 2272 4049 2400 3782 
C 2298 3782 2106 3782 2106 3558 
C 2106 3385 2246 3328 2336 3328 
C 2394 3328 2566 3353 2566 3571 
C 2566 3987 2246 4224 1805 4224 
C 1043 4224 243 3411 243 2011 
C 243 257 966 -128 1478 -128 
C 2099 -128 2688 431 2688 1295 
C 2688 2101 2170 2688 1517 2688 
C 1126 2688 838 2430 678 1979 
L 678 2198 
z
M 1478 25 
C 691 25 691 1212 691 1450 
C 691 1914 909 2585 1504 2585 
C 1613 2585 1926 2585 2138 2140 
C 2253 1889 2253 1624 2253 1302 
C 2253 954 2253 696 2118 438 
C 1978 173 1773 25 1478 25 
z
" transform="scale(0.015625)"/>
       </defs>
       <use xlink:href="#CMR17-36" transform="scale(0.996264)"/>
       <use xlink:href="#CMR17-30" transform="translate(45.690477 0) scale(0.996264)"/>
       <use xlink:href="#CMR17-30" transform="translate(91.380954 0) scale(0.996264)"/>
       <use xlink:href="#CMR17-30" transform="translate(137.071431 0) scale(0.996264)"/>
      </g>
     </g>
    </g>
    <g id="xtick_8">
     <g id="line2d_8">
      <g>
       <use xlink:href="#m646fad2a45" x="364.941393" y="230.889024" style="stroke: #000000; stroke-width: 0.8"/>
      </g>
     </g>
     <g id="text_8">
      <!-- $\mathdefault{7000}$ -->
      <g transform="translate(354.978723 244.987344) scale(0.1 -0.1)">
       <defs>
        <path id="CMR17-37" d="M 2886 3955 
L 2886 4096 
L 1382 4096 
C 634 4096 621 4166 595 4288 
L 480 4288 
L 294 3104 
L 410 3104 
C 429 3226 474 3552 550 3673 
C 589 3724 1062 3724 1171 3724 
L 2579 3724 
L 1869 2670 
C 1395 1961 1069 1003 1069 166 
C 1069 89 1069 -128 1299 -128 
C 1530 -128 1530 89 1530 172 
L 1530 466 
C 1530 1514 1709 2204 2003 2644 
L 2886 3955 
z
" transform="scale(0.015625)"/>
       </defs>
       <use xlink:href="#CMR17-37" transform="scale(0.996264)"/>
       <use xlink:href="#CMR17-30" transform="translate(45.690477 0) scale(0.996264)"/>
       <use xlink:href="#CMR17-30" transform="translate(91.380954 0) scale(0.996264)"/>
       <use xlink:href="#CMR17-30" transform="translate(137.071431 0) scale(0.996264)"/>
      </g>
     </g>
    </g>
    <g id="text_9">
     <!-- Iteration -->
     <g transform="translate(194.768712 258.207651) scale(0.1 -0.1)">
      <defs>
       <path id="NimbusSanL-Regu-49" d="M 1242 4672 
L 640 4672 
L 640 0 
L 1242 0 
L 1242 4672 
z
" transform="scale(0.015625)"/>
       <path id="NimbusSanL-Regu-74" d="M 1626 3328 
L 1075 3328 
L 1075 4249 
L 544 4249 
L 544 3328 
L 90 3328 
L 90 2892 
L 544 2892 
L 544 402 
C 544 64 774 -128 1190 -128 
C 1318 -128 1446 -116 1626 -84 
L 1626 364 
C 1555 345 1472 339 1370 339 
C 1139 339 1075 402 1075 634 
L 1075 2892 
L 1626 2892 
L 1626 3328 
z
" transform="scale(0.015625)"/>
       <path id="NimbusSanL-Regu-65" d="M 3283 1484 
C 3283 1998 3245 2311 3149 2565 
C 2931 3123 2419 3456 1792 3456 
C 858 3456 256 2734 256 1619 
C 256 545 838 -128 1779 -128 
C 2547 -128 3078 307 3213 1018 
L 2675 1018 
C 2528 588 2227 364 1798 364 
C 1459 364 1171 514 992 787 
C 864 974 819 1161 813 1484 
L 3283 1484 
z
M 826 1920 
C 870 2552 1248 2963 1786 2963 
C 2310 2963 2714 2519 2714 1959 
C 2714 1946 2714 1933 2707 1920 
L 826 1920 
z
" transform="scale(0.015625)"/>
       <path id="NimbusSanL-Regu-72" d="M 442 3328 
L 442 0 
L 979 0 
L 979 1727 
C 979 2203 1101 2514 1357 2698 
C 1523 2819 1683 2857 2054 2863 
L 2054 3404 
C 1965 3449 1920 3456 1850 3456 
C 1504 3456 1242 3251 934 2750 
L 934 3328 
L 442 3328 
z
" transform="scale(0.015625)"/>
       <path id="NimbusSanL-Regu-61" d="M 3424 332 
C 3366 320 3341 320 3309 320 
C 3123 320 3021 415 3021 581 
L 3021 2542 
C 3021 3135 2586 3456 1760 3456 
C 1274 3456 870 3315 646 3065 
C 493 2893 429 2702 416 2370 
L 954 2370 
C 998 2778 1242 2963 1741 2963 
C 2221 2963 2490 2784 2490 2466 
L 2490 2326 
C 2490 2103 2355 2007 1933 1956 
C 1178 1861 1062 1835 858 1753 
C 467 1593 269 1294 269 861 
C 269 256 691 -128 1370 -128 
C 1792 -128 2131 19 2509 364 
C 2547 25 2714 -128 3059 -128 
C 3168 -128 3251 -116 3424 -71 
L 3424 332 
z
M 2490 1071 
C 2490 893 2438 785 2278 638 
C 2061 441 1798 339 1485 339 
C 1069 339 826 536 826 874 
C 826 1224 1062 1402 1632 1485 
C 2195 1562 2310 1587 2490 1670 
L 2490 1071 
z
" transform="scale(0.015625)"/>
       <path id="NimbusSanL-Regu-69" d="M 960 3358 
L 429 3358 
L 429 0 
L 960 0 
L 960 3358 
z
M 960 4672 
L 422 4672 
L 422 3999 
L 960 3999 
L 960 4672 
z
" transform="scale(0.015625)"/>
       <path id="NimbusSanL-Regu-6f" d="M 1741 3456 
C 800 3456 230 2784 230 1663 
C 230 543 794 -128 1747 -128 
C 2688 -128 3264 543 3264 1638 
C 3264 2791 2707 3456 1741 3456 
z
M 1747 2963 
C 2349 2963 2707 2472 2707 1644 
C 2707 861 2336 364 1747 364 
C 1152 364 787 855 787 1663 
C 787 2466 1152 2963 1747 2963 
z
" transform="scale(0.015625)"/>
       <path id="NimbusSanL-Regu-6e" d="M 448 3328 
L 448 0 
L 986 0 
L 986 1835 
C 986 2539 1344 2988 1894 2988 
C 2317 2988 2586 2732 2586 2328 
L 2586 0 
L 3117 0 
L 3117 2539 
C 3117 3097 2701 3456 2054 3456 
C 1555 3456 1235 3263 941 2796 
L 941 3328 
L 448 3328 
z
" transform="scale(0.015625)"/>
      </defs>
      <use xlink:href="#NimbusSanL-Regu-49" transform="scale(0.996264)"/>
      <use xlink:href="#NimbusSanL-Regu-74" transform="translate(27.69517 0) scale(0.996264)"/>
      <use xlink:href="#NimbusSanL-Regu-65" transform="translate(55.390339 0) scale(0.996264)"/>
      <use xlink:href="#NimbusSanL-Regu-72" transform="translate(110.782016 0) scale(0.996264)"/>
      <use xlink:href="#NimbusSanL-Regu-61" transform="translate(142.961149 0) scale(0.996264)"/>
      <use xlink:href="#NimbusSanL-Regu-74" transform="translate(198.352826 0) scale(0.996264)"/>
      <use xlink:href="#NimbusSanL-Regu-69" transform="translate(226.047996 0) scale(0.996264)"/>
      <use xlink:href="#NimbusSanL-Regu-6f" transform="translate(248.16478 0) scale(0.996264)"/>
      <use xlink:href="#NimbusSanL-Regu-6e" transform="translate(303.556457 0) scale(0.996264)"/>
     </g>
    </g>
   </g>
   <g id="matplotlib.axis_2">
    <g id="ytick_1">
     <g id="line2d_9">
      <defs>
       <path id="m54e0101ecf" d="M 0 0 
L -3.5 0 
" style="stroke: #000000; stroke-width: 0.8"/>
      </defs>
      <g>
       <use xlink:href="#m54e0101ecf" x="45.316088" y="228.727736" style="stroke: #000000; stroke-width: 0.8"/>
      </g>
     </g>
     <g id="text_10">
      <!-- $\mathdefault{0.0}$ -->
      <g transform="translate(25.586009 232.276896) scale(0.1 -0.1)">
       <defs>
        <path id="CMMI12-3a" d="M 1178 307 
C 1178 492 1024 620 870 620 
C 685 620 557 467 557 313 
C 557 128 710 0 864 0 
C 1050 0 1178 153 1178 307 
z
" transform="scale(0.015625)"/>
       </defs>
       <use xlink:href="#CMR17-30" transform="scale(0.996264)"/>
       <use xlink:href="#CMMI12-3a" transform="translate(45.690477 0) scale(0.996264)"/>
       <use xlink:href="#CMR17-30" transform="translate(72.787654 0) scale(0.996264)"/>
      </g>
     </g>
    </g>
    <g id="ytick_2">
     <g id="line2d_10">
      <g>
       <use xlink:href="#m54e0101ecf" x="45.316088" y="201.480414" style="stroke: #000000; stroke-width: 0.8"/>
      </g>
     </g>
     <g id="text_11">
      <!-- $\mathdefault{2.5}$ -->
      <g transform="translate(25.586009 205.029574) scale(0.1 -0.1)">
       <use xlink:href="#CMR17-32" transform="scale(0.996264)"/>
       <use xlink:href="#CMMI12-3a" transform="translate(45.690477 0) scale(0.996264)"/>
       <use xlink:href="#CMR17-35" transform="translate(72.787654 0) scale(0.996264)"/>
      </g>
     </g>
    </g>
    <g id="ytick_3">
     <g id="line2d_11">
      <g>
       <use xlink:href="#m54e0101ecf" x="45.316088" y="174.233092" style="stroke: #000000; stroke-width: 0.8"/>
      </g>
     </g>
     <g id="text_12">
      <!-- $\mathdefault{5.0}$ -->
      <g transform="translate(25.586009 177.782252) scale(0.1 -0.1)">
       <use xlink:href="#CMR17-35" transform="scale(0.996264)"/>
       <use xlink:href="#CMMI12-3a" transform="translate(45.690477 0) scale(0.996264)"/>
       <use xlink:href="#CMR17-30" transform="translate(72.787654 0) scale(0.996264)"/>
      </g>
     </g>
    </g>
    <g id="ytick_4">
     <g id="line2d_12">
      <g>
       <use xlink:href="#m54e0101ecf" x="45.316088" y="146.98577" style="stroke: #000000; stroke-width: 0.8"/>
      </g>
     </g>
     <g id="text_13">
      <!-- $\mathdefault{7.5}$ -->
      <g transform="translate(25.586009 150.53493) scale(0.1 -0.1)">
       <use xlink:href="#CMR17-37" transform="scale(0.996264)"/>
       <use xlink:href="#CMMI12-3a" transform="translate(45.690477 0) scale(0.996264)"/>
       <use xlink:href="#CMR17-35" transform="translate(72.787654 0) scale(0.996264)"/>
      </g>
     </g>
    </g>
    <g id="ytick_5">
     <g id="line2d_13">
      <g>
       <use xlink:href="#m54e0101ecf" x="45.316088" y="119.738448" style="stroke: #000000; stroke-width: 0.8"/>
      </g>
     </g>
     <g id="text_14">
      <!-- $\mathdefault{10.0}$ -->
      <g transform="translate(20.604674 123.287608) scale(0.1 -0.1)">
       <use xlink:href="#CMR17-31" transform="scale(0.996264)"/>
       <use xlink:href="#CMR17-30" transform="translate(45.690477 0) scale(0.996264)"/>
       <use xlink:href="#CMMI12-3a" transform="translate(91.380954 0) scale(0.996264)"/>
       <use xlink:href="#CMR17-30" transform="translate(118.478131 0) scale(0.996264)"/>
      </g>
     </g>
    </g>
    <g id="ytick_6">
     <g id="line2d_14">
      <g>
       <use xlink:href="#m54e0101ecf" x="45.316088" y="92.491126" style="stroke: #000000; stroke-width: 0.8"/>
      </g>
     </g>
     <g id="text_15">
      <!-- $\mathdefault{12.5}$ -->
      <g transform="translate(20.604674 96.040286) scale(0.1 -0.1)">
       <use xlink:href="#CMR17-31" transform="scale(0.996264)"/>
       <use xlink:href="#CMR17-32" transform="translate(45.690477 0) scale(0.996264)"/>
       <use xlink:href="#CMMI12-3a" transform="translate(91.380954 0) scale(0.996264)"/>
       <use xlink:href="#CMR17-35" transform="translate(118.478131 0) scale(0.996264)"/>
      </g>
     </g>
    </g>
    <g id="ytick_7">
     <g id="line2d_15">
      <g>
       <use xlink:href="#m54e0101ecf" x="45.316088" y="65.243804" style="stroke: #000000; stroke-width: 0.8"/>
      </g>
     </g>
     <g id="text_16">
      <!-- $\mathdefault{15.0}$ -->
      <g transform="translate(20.604674 68.792964) scale(0.1 -0.1)">
       <use xlink:href="#CMR17-31" transform="scale(0.996264)"/>
       <use xlink:href="#CMR17-35" transform="translate(45.690477 0) scale(0.996264)"/>
       <use xlink:href="#CMMI12-3a" transform="translate(91.380954 0) scale(0.996264)"/>
       <use xlink:href="#CMR17-30" transform="translate(118.478131 0) scale(0.996264)"/>
      </g>
     </g>
    </g>
    <g id="ytick_8">
     <g id="line2d_16">
      <g>
       <use xlink:href="#m54e0101ecf" x="45.316088" y="37.996482" style="stroke: #000000; stroke-width: 0.8"/>
      </g>
     </g>
     <g id="text_17">
      <!-- $\mathdefault{17.5}$ -->
      <g transform="translate(20.604674 41.545642) scale(0.1 -0.1)">
       <use xlink:href="#CMR17-31" transform="scale(0.996264)"/>
       <use xlink:href="#CMR17-37" transform="translate(45.690477 0) scale(0.996264)"/>
       <use xlink:href="#CMMI12-3a" transform="translate(91.380954 0) scale(0.996264)"/>
       <use xlink:href="#CMR17-35" transform="translate(118.478131 0) scale(0.996264)"/>
      </g>
     </g>
    </g>
    <g id="ytick_9">
     <g id="line2d_17">
      <g>
       <use xlink:href="#m54e0101ecf" x="45.316088" y="10.74916" style="stroke: #000000; stroke-width: 0.8"/>
      </g>
     </g>
     <g id="text_18">
      <!-- $\mathdefault{20.0}$ -->
      <g transform="translate(20.604674 14.29832) scale(0.1 -0.1)">
       <use xlink:href="#CMR17-32" transform="scale(0.996264)"/>
       <use xlink:href="#CMR17-30" transform="translate(45.690477 0) scale(0.996264)"/>
       <use xlink:href="#CMMI12-3a" transform="translate(91.380954 0) scale(0.996264)"/>
       <use xlink:href="#CMR17-30" transform="translate(118.478131 0) scale(0.996264)"/>
      </g>
     </g>
    </g>
    <g id="text_19">
     <!-- Average CFL - Blade_1 -->
     <g transform="translate(14.482687 170.708344) rotate(-90) scale(0.1 -0.1)">
      <defs>
       <path id="NimbusSanL-Regu-41" d="M 3034 1408 
L 3514 0 
L 4179 0 
L 2541 4672 
L 1773 4672 
L 109 0 
L 742 0 
L 1235 1408 
L 3034 1408 
z
M 2867 1907 
L 1382 1907 
L 2150 4032 
L 2867 1907 
z
" transform="scale(0.015625)"/>
       <path id="NimbusSanL-Regu-76" d="M 1824 0 
L 3110 3328 
L 2509 3328 
L 1562 629 
L 666 3328 
L 64 3328 
L 1242 0 
L 1824 0 
z
" transform="scale(0.015625)"/>
       <path id="NimbusSanL-Regu-67" d="M 2637 3359 
L 2637 2873 
C 2368 3270 2042 3456 1613 3456 
C 762 3456 186 2714 186 1632 
C 186 1084 333 638 608 320 
C 858 38 1216 -128 1568 -128 
C 1990 -128 2285 51 2586 473 
L 2586 300 
C 2586 -155 2528 -441 2394 -634 
C 2253 -841 1978 -960 1651 -960 
C 1408 -960 1190 -894 1043 -774 
C 922 -674 870 -581 838 -375 
L 294 -375 
C 352 -1031 845 -1408 1632 -1408 
C 2131 -1408 2560 -1248 2778 -980 
C 3034 -661 3130 -222 3130 568 
L 3130 3359 
L 2637 3359 
z
M 1670 2963 
C 2246 2963 2586 2479 2586 1644 
C 2586 848 2240 364 1677 364 
C 1094 364 742 855 742 1663 
C 742 2466 1101 2963 1670 2963 
z
" transform="scale(0.015625)"/>
       <path id="NimbusSanL-Regu-43" d="M 4237 3219 
C 4051 4236 3462 4736 2438 4736 
C 1811 4736 1306 4537 960 4154 
C 538 3696 307 3035 307 2284 
C 307 1522 544 867 986 415 
C 1344 44 1805 -128 2413 -128 
C 3552 -128 4192 485 4333 1712 
L 3718 1712 
C 3667 1394 3603 1178 3507 994 
C 3315 612 2918 396 2419 396 
C 1491 396 902 1134 902 2291 
C 902 3480 1466 4211 2368 4211 
C 2746 4211 3098 4096 3290 3918 
C 3462 3759 3558 3562 3629 3219 
L 4237 3219 
z
" transform="scale(0.015625)"/>
       <path id="NimbusSanL-Regu-46" d="M 1171 2112 
L 3398 2112 
L 3398 2636 
L 1171 2636 
L 1171 4147 
L 3706 4147 
L 3706 4672 
L 576 4672 
L 576 0 
L 1171 0 
L 1171 2112 
z
" transform="scale(0.015625)"/>
       <path id="NimbusSanL-Regu-4c" d="M 1107 4672 
L 512 4672 
L 512 0 
L 3411 0 
L 3411 524 
L 1107 524 
L 1107 4672 
z
" transform="scale(0.015625)"/>
       <path id="NimbusSanL-Regu-2d" d="M 1818 1996 
L 294 1996 
L 294 1536 
L 1818 1536 
L 1818 1996 
z
" transform="scale(0.015625)"/>
       <path id="NimbusSanL-Regu-42" d="M 506 0 
L 2611 0 
C 3053 0 3379 121 3629 390 
C 3859 632 3987 961 3987 1321 
C 3987 1878 3731 2214 3136 2444 
C 3558 2643 3782 2994 3782 3476 
C 3782 3821 3654 4127 3411 4345 
C 3168 4569 2848 4672 2400 4672 
L 506 4672 
L 506 0 
z
M 1101 2636 
L 1101 4147 
L 2253 4147 
C 2586 4147 2771 4101 2931 3977 
C 3098 3847 3187 3652 3187 3391 
C 3187 3138 3098 2936 2931 2806 
C 2771 2682 2586 2636 2253 2636 
L 1101 2636 
z
M 1101 524 
L 1101 2112 
L 2554 2112 
C 2842 2112 3034 2042 3174 1890 
C 3315 1745 3392 1542 3392 1315 
C 3392 1093 3315 891 3174 746 
C 3034 594 2842 524 2554 524 
L 1101 524 
z
" transform="scale(0.015625)"/>
       <path id="NimbusSanL-Regu-6c" d="M 973 4672 
L 435 4672 
L 435 0 
L 973 0 
L 973 4672 
z
" transform="scale(0.015625)"/>
       <path id="NimbusSanL-Regu-64" d="M 3168 4672 
L 2637 4672 
L 2637 2937 
C 2413 3276 2054 3456 1606 3456 
C 736 3456 166 2759 166 1695 
C 166 568 723 -128 1626 -128 
C 2086 -128 2406 44 2694 460 
L 2694 19 
L 3168 19 
L 3168 4672 
z
M 1696 2956 
C 2272 2956 2637 2447 2637 1651 
C 2637 880 2266 371 1702 371 
C 1114 371 723 887 723 1663 
C 723 2440 1114 2956 1696 2956 
z
" transform="scale(0.015625)"/>
       <path id="NimbusSanL-Regu-31" d="M 1658 3232 
L 1658 0 
L 2221 0 
L 2221 4537 
L 1850 4537 
C 1651 3840 1523 3744 653 3635 
L 653 3232 
L 1658 3232 
z
" transform="scale(0.015625)"/>
      </defs>
      <use xlink:href="#NimbusSanL-Regu-41" transform="scale(0.996264)"/>
      <use xlink:href="#NimbusSanL-Regu-76" transform="translate(62.465918 0) scale(0.996264)"/>
      <use xlink:href="#NimbusSanL-Regu-65" transform="translate(109.788488 0) scale(0.996264)"/>
      <use xlink:href="#NimbusSanL-Regu-72" transform="translate(165.180165 0) scale(0.996264)"/>
      <use xlink:href="#NimbusSanL-Regu-61" transform="translate(197.359298 0) scale(0.996264)"/>
      <use xlink:href="#NimbusSanL-Regu-67" transform="translate(252.750975 0) scale(0.996264)"/>
      <use xlink:href="#NimbusSanL-Regu-65" transform="translate(308.142652 0) scale(0.996264)"/>
      <use xlink:href="#NimbusSanL-Regu-43" transform="translate(391.229499 0) scale(0.996264)"/>
      <use xlink:href="#NimbusSanL-Regu-46" transform="translate(463.159484 0) scale(0.996264)"/>
      <use xlink:href="#NimbusSanL-Regu-4c" transform="translate(524.031114 0) scale(0.996264)"/>
      <use xlink:href="#NimbusSanL-Regu-2d" transform="translate(607.117961 0) scale(0.996264)"/>
      <use xlink:href="#NimbusSanL-Regu-42" transform="translate(667.98836 0) scale(0.996264)"/>
      <use xlink:href="#NimbusSanL-Regu-6c" transform="translate(734.438391 0) scale(0.996264)"/>
      <use xlink:href="#NimbusSanL-Regu-61" transform="translate(756.555176 0) scale(0.996264)"/>
      <use xlink:href="#NimbusSanL-Regu-64" transform="translate(811.946853 0) scale(0.996264)"/>
      <use xlink:href="#NimbusSanL-Regu-65" transform="translate(867.33853 0) scale(0.996264)"/>
      <use xlink:href="#NimbusSanL-Regu-31" transform="translate(958.595772 0) scale(0.996264)"/>
      <path d="M 928.707548 0 
L 958.595772 0 
L 958.595772 0.3985 
L 928.707548 0.3985 
L 928.707548 0 
z
"/>
     </g>
    </g>
   </g>
   <g id="line2d_18">
    <path d="M 60.53427 72.511214 
L 60.577757 41.944347 
L 60.621243 210.049397 
L 60.708217 201.830928 
L 60.925651 161.799871 
L 61.012624 132.35161 
L 61.056111 219.090123 
L 61.143084 214.849574 
L 61.360518 194.194427 
L 61.577951 142.797814 
L 61.621438 220.134744 
L 61.708412 216.353827 
L 61.925845 197.937491 
L 62.143279 152.111754 
L 62.230252 118.445337 
L 62.273739 217.699496 
L 62.360713 212.84707 
L 62.578146 189.211559 
L 62.79558 130.459836 
L 62.839067 110.868577 
L 62.882553 216.94182 
L 62.969527 211.756017 
L 63.186961 186.496668 
L 63.404394 123.643326 
L 63.447881 102.62999 
L 63.491368 216.117961 
L 63.578341 210.56966 
L 63.795775 183.544634 
L 64.013208 116.312849 
L 64.056695 217.486247 
L 64.143669 212.539992 
L 64.361102 188.447449 
L 64.578536 128.497494 
L 64.622023 218.704712 
L 64.708996 214.294581 
L 64.92643 192.813428 
L 65.143864 139.361445 
L 65.18735 219.791107 
L 65.274324 215.85899 
L 65.491757 196.706178 
L 65.709191 149.047853 
L 65.752678 133.111877 
L 65.796164 219.16615 
L 65.883138 214.959052 
L 66.100572 194.466845 
L 66.318005 143.475676 
L 66.361492 220.20253 
L 66.448465 216.451439 
L 66.665899 198.180381 
L 66.883333 152.716143 
L 66.92682 137.513824 
L 66.970306 219.606345 
L 67.05728 215.592933 
L 67.274713 196.044142 
L 67.492147 147.400496 
L 67.535634 131.135048 
L 67.57912 218.968467 
L 67.666094 214.674389 
L 67.883528 193.758511 
L 68.100961 141.713115 
L 68.144448 124.310191 
L 68.187935 218.285981 
L 68.274908 213.691609 
L 68.492342 191.313042 
L 68.709776 135.628004 
L 68.753262 117.008057 
L 68.796749 217.555768 
L 68.883722 212.640102 
L 69.101156 188.696555 
L 69.31859 129.117348 
L 69.362076 109.195271 
L 69.405563 216.774489 
L 69.492537 211.515061 
L 69.70997 185.897092 
L 69.970891 139.914114 
L 70.014377 219.846374 
L 70.101351 215.938574 
L 70.318785 196.904209 
L 70.536218 149.540618 
L 70.579705 220.809024 
L 70.666678 217.324791 
L 70.884112 200.35356 
L 71.101546 158.123706 
L 71.145033 144.0029 
L 71.188519 220.255252 
L 71.275493 216.52736 
L 71.492926 198.369295 
L 71.71036 153.186222 
L 71.753847 138.077919 
L 71.797333 219.662754 
L 71.884307 215.674162 
L 72.101741 196.246267 
L 72.319174 147.903448 
L 72.362661 131.738591 
L 72.406148 219.028821 
L 72.493121 214.761299 
L 72.710555 193.974772 
L 72.927989 142.25124 
L 73.058449 104.201582 
L 73.101935 216.27512 
L 73.188909 210.79597 
L 73.406343 184.107763 
L 73.623776 117.698966 
L 73.667263 95.493212 
L 73.71075 215.404283 
L 73.797723 209.541964 
L 74.015157 180.987397 
L 74.23259 109.934496 
L 74.276077 216.848412 
L 74.363051 211.621509 
L 74.580484 186.16197 
L 74.971865 101.627041 
L 75.015352 216.017666 
L 75.102325 210.425236 
L 75.319759 183.185259 
L 75.537192 115.403479 
L 75.580679 92.738628 
L 75.624166 215.128825 
L 75.711139 209.145304 
L 75.928573 180.00038 
L 76.146007 107.478481 
L 76.276467 19.209024 
L 76.319954 207.775865 
L 76.406927 198.557041 
L 76.624361 153.653393 
L 76.841794 41.918748 
L 76.885281 210.046837 
L 76.972255 201.827242 
L 77.189688 161.790698 
L 77.363635 89.927094 
L 77.407122 214.847672 
L 77.494095 208.740443 
L 77.711529 178.992956 
L 77.928963 104.971689 
L 77.972449 216.352131 
L 78.059423 210.906865 
L 78.276857 184.383707 
L 78.49429 118.385602 
L 78.62475 69.835063 
L 78.668237 212.838469 
L 78.755211 205.847191 
L 78.972644 171.793618 
L 79.146591 110.66915 
L 79.190078 216.921877 
L 79.277051 211.727299 
L 79.494485 186.42521 
L 79.711919 123.465515 
L 79.755405 218.201514 
L 79.842379 213.569976 
L 80.059813 191.010379 
L 80.277246 134.874882 
L 80.320733 219.34245 
L 80.407706 215.212925 
L 80.62514 195.098561 
L 80.842574 145.047589 
L 80.88606 220.359721 
L 80.973034 216.677795 
L 81.190468 198.743626 
L 81.407901 154.117676 
L 81.451388 139.195664 
L 81.494875 219.774529 
L 81.581848 215.835118 
L 81.799282 196.646776 
L 82.016715 148.900041 
L 82.060202 132.934502 
L 82.103689 219.148412 
L 82.190662 214.93351 
L 82.408096 194.403288 
L 82.669016 143.317527 
L 82.712503 126.235485 
L 82.75599 218.478511 
L 82.842963 213.968852 
L 83.060397 192.002909 
L 83.277831 137.344615 
L 83.321317 119.067991 
L 83.364804 217.761761 
L 83.451778 212.936733 
L 83.669211 189.434667 
L 83.886645 130.954006 
L 83.930132 111.39926 
L 83.973618 216.994888 
L 84.060592 211.832435 
L 84.278026 186.686822 
L 84.495459 124.116488 
L 84.538946 103.194239 
L 84.582433 216.174386 
L 84.669406 210.650912 
L 84.88684 183.746814 
L 85.104273 116.800809 
L 85.14776 94.415423 
L 85.191247 215.296505 
L 85.27822 209.386763 
L 85.495654 180.601206 
L 85.713088 108.973529 
L 85.756574 216.752315 
L 85.843548 211.48313 
L 86.060982 185.817638 
L 86.278415 121.953682 
L 86.321902 218.05033 
L 86.408875 213.352272 
L 86.626309 190.468662 
L 86.843743 133.526917 
L 86.930716 91.638557 
L 86.974203 215.018818 
L 87.061176 208.986894 
L 87.27861 179.606204 
L 87.496044 106.497647 
L 87.583017 52.716407 
L 87.626504 211.126603 
L 87.713477 203.382105 
L 87.930911 165.659695 
L 88.148345 71.794267 
L 88.191831 40.407574 
L 88.235318 209.89572 
L 88.322292 201.609633 
L 88.539725 161.249217 
L 88.757159 60.819588 
L 88.800646 211.936921 
L 88.887619 204.548963 
L 89.105053 168.563211 
L 89.322486 79.019144 
L 89.365973 213.756877 
L 89.452947 207.169699 
L 89.67038 175.084441 
L 89.887814 95.246052 
L 89.931301 68.549715 
L 89.974787 212.709934 
L 90.061761 205.662101 
L 90.279195 171.333055 
L 90.496628 85.911404 
L 90.540115 214.446103 
L 90.627088 208.162184 
L 90.844522 177.554062 
L 91.061956 101.391259 
L 91.105442 75.923964 
L 91.148929 213.447359 
L 91.235903 206.723993 
L 91.453336 173.975382 
L 91.67077 92.486358 
L 91.714257 215.103598 
L 91.80123 209.108977 
L 92.018664 179.909987 
L 92.279584 107.253555 
L 92.323071 216.580318 
L 92.410044 211.235454 
L 92.627478 185.201341 
L 92.844912 120.420136 
L 92.888398 98.758616 
L 92.931885 215.730824 
L 93.018859 210.012183 
L 93.236292 182.15745 
L 93.453726 112.845963 
L 93.497213 89.669609 
L 93.540699 214.821923 
L 93.627673 208.703366 
L 93.845107 178.900695 
L 94.193 79.944988 
L 94.236487 213.849461 
L 94.323461 207.30302 
L 94.540894 175.416187 
L 94.932275 69.540305 
L 94.975762 212.808993 
L 95.062735 205.804746 
L 95.280169 171.688001 
L 95.497602 86.794623 
L 95.541089 214.534425 
L 95.628063 208.289368 
L 95.845496 177.870536 
L 96.06293 102.178747 
L 96.106417 76.868949 
L 96.149903 213.541857 
L 96.236877 206.860071 
L 96.45431 174.313987 
L 96.671744 93.328916 
L 96.715231 215.187854 
L 96.802204 209.230306 
L 97.019638 180.211891 
L 97.411019 108.004788 
L 97.454505 216.655441 
L 97.541479 211.343631 
L 97.758912 185.470521 
L 97.976346 121.089943 
L 98.019833 99.562385 
L 98.06332 215.811201 
L 98.150293 210.127925 
L 98.367727 182.445455 
L 98.58516 113.562611 
L 98.628647 217.211223 
L 98.715621 212.143958 
L 98.933054 187.46199 
L 99.150488 126.045354 
L 99.193975 105.508878 
L 99.237461 216.40585 
L 99.324435 210.98422 
L 99.541868 184.576191 
L 99.759302 118.864564 
L 99.802789 96.89193 
L 99.846276 215.544155 
L 99.933249 209.74338 
L 100.150683 181.488583 
L 100.542063 111.181607 
L 100.71601 111.181607 
L 100.759497 87.672381 
L 100.802984 214.6222 
L 100.889957 208.415765 
L 101.107391 178.185052 
L 101.324824 102.961365 
L 101.368311 216.151099 
L 101.455285 210.617378 
L 101.672718 183.663371 
L 101.890152 116.593176 
L 101.933639 94.166264 
L 101.977125 215.271589 
L 102.064099 209.350884 
L 102.281533 180.511928 
L 102.672913 108.751376 
L 103.151267 108.751376 
L 103.194754 84.756104 
L 103.238241 214.330573 
L 103.325214 207.995821 
L 103.542648 177.140097 
L 103.760081 100.361183 
L 103.803568 215.891081 
L 103.890542 210.242952 
L 104.107975 182.731679 
L 104.325409 114.274828 
L 104.368896 91.384246 
L 104.412382 214.993387 
L 104.499356 208.950273 
L 104.71679 179.51508 
L 104.934223 106.270901 
L 104.97771 81.779534 
L 105.021197 214.032916 
L 105.10817 207.567195 
L 105.325604 176.073538 
L 105.543037 97.707243 
L 105.586524 215.625687 
L 105.673498 209.860785 
L 105.890931 181.780724 
L 106.108365 111.908548 
L 106.151852 88.544711 
L 106.195338 214.709433 
L 106.282312 208.54138 
L 106.499746 178.497623 
L 106.717179 103.739142 
L 106.760666 78.741424 
L 106.804153 213.729105 
L 106.891126 207.129707 
L 107.10856 174.984928 
L 107.325993 94.998433 
L 107.36948 215.354806 
L 107.456454 209.470716 
L 107.673887 180.810109 
L 107.891321 109.493347 
L 107.934808 216.804297 
L 108.021781 211.557984 
L 108.239215 186.003898 
L 108.456648 122.417157 
L 108.500135 101.155041 
L 108.543622 215.970466 
L 108.630595 210.357268 
L 108.848029 183.016133 
L 109.23941 114.982639 
L 109.326383 114.982639 
L 109.36987 92.23362 
L 109.413357 215.078324 
L 109.50033 209.072583 
L 109.717764 179.819426 
L 109.935197 107.028211 
L 109.978684 216.557783 
L 110.065658 211.203004 
L 110.283091 185.120596 
L 110.500525 120.219217 
L 110.544012 98.517514 
L 110.587498 215.706714 
L 110.674472 209.977464 
L 110.891905 182.071059 
L 111.109339 112.630994 
L 111.152826 89.411645 
L 111.196313 214.796127 
L 111.283286 208.666219 
L 111.50072 178.808262 
L 111.848614 79.668985 
L 111.8921 213.821861 
L 111.979074 207.263276 
L 112.196507 175.31729 
L 112.413941 95.825456 
L 112.457428 215.437508 
L 112.544401 209.589808 
L 112.761835 181.106446 
L 112.979269 110.230728 
L 113.022755 86.531327 
L 113.066242 214.508095 
L 113.153215 208.251453 
L 113.370649 177.776192 
L 113.588083 101.943989 
L 113.63157 216.049361 
L 113.718543 210.470876 
L 113.935977 183.298827 
L 114.15341 115.686074 
L 114.196897 93.077742 
L 114.240384 215.162736 
L 114.327357 209.194137 
L 114.544791 180.12189 
L 114.762225 107.780838 
L 114.805711 216.633046 
L 114.892685 211.311383 
L 115.110118 185.390276 
L 115.327552 120.890267 
L 115.371039 99.322773 
L 115.414526 215.78724 
L 115.501499 210.093421 
L 115.718933 182.359598 
L 115.936366 113.348971 
L 115.979853 217.189859 
L 116.066827 212.113194 
L 116.28426 187.385439 
L 116.501694 125.854871 
L 116.545181 105.280298 
L 116.588667 216.382992 
L 116.675641 210.951305 
L 116.893074 184.494287 
L 117.110508 118.66076 
L 117.153995 96.647365 
L 117.197482 215.519699 
L 117.284455 209.708162 
L 117.501889 181.400951 
L 117.849783 87.410713 
L 117.893269 214.596034 
L 117.980243 208.378085 
L 118.197676 178.091292 
L 118.41511 102.728059 
L 118.458597 216.127768 
L 118.54557 210.583782 
L 118.763004 183.579773 
L 118.980438 116.385158 
L 119.023924 93.916643 
L 119.067411 215.246627 
L 119.154384 209.314938 
L 119.371818 180.422484 
L 119.589252 108.528811 
L 119.632739 216.707843 
L 119.719712 211.419091 
L 119.937146 185.658288 
L 120.154579 121.557167 
L 120.198066 100.123053 
L 120.241553 215.867268 
L 120.328526 210.208662 
L 120.54596 182.646353 
L 120.93734 114.062509 
L 121.285234 114.062509 
L 121.328721 217.261213 
L 121.415695 212.215943 
L 121.633128 187.641112 
L 121.850562 126.491068 
L 121.894049 106.043734 
L 121.937535 216.459336 
L 122.024509 211.06124 
L 122.241942 184.76784 
L 122.459376 119.341448 
L 122.502863 217.789107 
L 122.589836 212.97611 
L 122.80727 189.532651 
L 123.024704 131.197823 
L 123.06819 111.69184 
L 123.111677 217.024146 
L 123.198651 211.874567 
L 123.416084 186.791658 
L 123.633518 124.377355 
L 123.677005 103.507279 
L 123.720491 216.20569 
L 123.807465 210.69599 
L 124.024898 183.858982 
L 124.416279 94.750356 
L 124.459766 215.329998 
L 124.546739 209.434993 
L 124.764173 180.721218 
L 124.981607 109.272158 
L 125.025093 216.782178 
L 125.112067 211.526133 
L 125.3295 185.924642 
L 125.546934 122.219943 
L 125.590421 100.918384 
L 125.633908 215.946801 
L 125.720881 210.323189 
L 125.938315 182.931334 
L 126.373182 91.980413 
L 126.416669 215.053004 
L 126.503642 209.036121 
L 126.721076 179.728698 
L 126.938509 106.80245 
L 126.981996 216.535207 
L 127.06897 211.170495 
L 127.286403 185.039701 
L 127.503837 120.017926 
L 127.547324 98.275964 
L 127.59081 215.682559 
L 127.677784 209.942681 
L 127.895218 181.984507 
L 128.112651 112.415626 
L 128.156138 217.096525 
L 128.243111 211.978792 
L 128.460545 187.051004 
L 128.677979 125.02269 
L 128.721465 104.281681 
L 128.764952 216.28313 
L 128.851926 210.807504 
L 129.069359 184.136464 
L 129.286793 117.770383 
L 129.33028 217.632001 
L 129.417253 212.749877 
L 129.634687 188.96971 
L 129.852121 129.797046 
L 129.895607 110.010908 
L 129.939094 216.856053 
L 130.026067 211.632513 
L 130.243501 186.18935 
L 130.460935 122.878619 
L 130.504422 101.708796 
L 130.547908 216.025842 
L 130.634882 210.437009 
L 130.852315 183.214553 
L 131.243696 115.476373 
L 131.330669 115.476373 
L 131.374156 217.4026 
L 131.46113 212.41954 
L 131.678563 188.147725 
L 131.895997 127.751683 
L 131.939484 107.556473 
L 131.98297 216.61061 
L 132.069944 211.279074 
L 132.287378 185.309882 
L 132.504811 120.690221 
L 132.548298 99.082718 
L 132.591785 215.763234 
L 132.678758 210.058853 
L 132.896192 182.273582 
L 133.287572 113.134935 
L 133.418033 113.134935 
L 133.461519 217.168456 
L 133.548493 212.082373 
L 133.765926 187.308745 
L 133.98336 125.664034 
L 134.026847 105.051293 
L 134.070334 216.360092 
L 134.157307 210.918328 
L 134.374741 184.41223 
L 134.766121 118.456577 
L 135.157502 118.456577 
L 135.200989 96.402346 
L 135.244475 215.495197 
L 135.331449 209.67288 
L 135.548882 181.313156 
L 135.766316 110.745089 
L 135.809803 216.929471 
L 135.896776 211.738235 
L 136.11421 186.45242 
L 136.331644 123.533223 
L 136.37513 102.49432 
L 136.418617 216.104394 
L 136.505591 210.550124 
L 136.723024 183.496021 
L 136.940458 116.176754 
L 136.983945 217.472638 
L 137.070918 212.520395 
L 137.288352 188.398684 
L 137.505785 128.37615 
L 137.549272 108.305833 
L 137.592759 216.685546 
L 137.679732 211.386982 
L 137.897166 185.578391 
L 138.1146 121.358358 
L 138.158086 99.884482 
L 138.201573 215.84341 
L 138.288547 210.174307 
L 138.50598 182.560869 
L 138.723414 113.849797 
L 138.766901 217.239942 
L 138.853874 212.185313 
L 139.071308 187.564893 
L 139.288741 126.301411 
L 139.332228 105.816146 
L 139.375715 216.436577 
L 139.462688 211.028467 
L 139.680122 184.686291 
L 140.071503 119.138528 
L 140.37591 119.138528 
L 140.419396 97.220686 
L 140.462883 215.577031 
L 140.549857 209.790721 
L 140.76729 181.606382 
L 140.984724 111.47473 
L 141.028211 217.002435 
L 141.115184 211.843303 
L 141.332618 186.713864 
L 141.550051 124.183778 
L 141.593538 103.274986 
L 141.637025 216.182461 
L 141.723998 210.66254 
L 141.941432 183.775747 
L 142.158866 116.872804 
L 142.202352 217.542243 
L 142.289326 212.620626 
L 142.50676 188.648091 
L 142.724193 128.996755 
L 142.76768 109.050559 
L 142.811167 216.760018 
L 142.89814 211.494222 
L 143.115574 185.84524 
L 143.333007 122.022363 
L 143.376494 100.681288 
L 143.419981 215.923091 
L 143.506954 210.289047 
L 143.724388 182.846379 
L 143.941822 114.560237 
L 143.985308 217.310986 
L 144.072282 212.287616 
L 144.289716 187.819457 
L 144.507149 126.934847 
L 144.550636 106.576269 
L 144.594123 216.512589 
L 144.681096 211.137925 
L 144.89853 184.958657 
L 145.15945 119.816261 
L 145.202937 98.033966 
L 145.246424 215.658359 
L 145.333397 209.907833 
L 145.550831 181.897795 
L 145.768264 112.199858 
L 145.811751 217.074948 
L 145.898725 211.947721 
L 146.116158 186.97369 
L 146.333592 124.83031 
L 146.377079 104.050824 
L 146.420565 216.260045 
L 146.507539 210.774261 
L 146.724972 184.053744 
L 147.15984 95.331912 
L 147.203327 215.388153 
L 147.2903 209.518737 
L 147.507734 180.9296 
L 147.725167 109.790679 
L 147.768654 216.83403 
L 147.855628 211.6008 
L 148.073061 186.110438 
L 148.290495 122.682261 
L 148.333982 101.473166 
L 148.377468 216.002279 
L 148.464442 210.403078 
L 148.681875 183.130123 
L 148.899309 115.266284 
L 148.942796 217.381591 
L 149.029769 212.389287 
L 149.247203 188.072446 
L 149.464637 127.564365 
L 149.508123 107.331691 
L 149.55161 216.588131 
L 149.638584 211.246705 
L 149.856017 185.229338 
L 150.073451 120.489803 
L 150.116938 217.903943 
L 150.203911 213.141474 
L 150.421345 189.944128 
L 150.638778 132.221708 
L 150.682265 112.920502 
L 150.725752 217.147012 
L 150.812725 212.051494 
L 151.030159 187.23191 
L 151.247593 125.472843 
L 151.291079 104.821864 
L 151.334566 216.337149 
L 151.42154 210.88529 
L 151.638973 184.330022 
L 151.856407 118.252016 
L 151.899894 217.680164 
L 151.986867 212.819232 
L 152.204301 189.142288 
L 152.421734 130.226475 
L 152.465221 110.526222 
L 152.508708 216.907584 
L 152.595681 211.706718 
L 152.813115 186.373996 
L 153.030549 123.338079 
L 153.074035 102.260148 
L 153.117522 216.080977 
L 153.204496 210.516403 
L 153.421929 183.412112 
L 153.639363 115.967964 
L 153.68285 217.451759 
L 153.769823 212.490329 
L 153.987257 188.323871 
L 154.20469 128.189991 
L 154.248177 108.082441 
L 154.291664 216.663206 
L 154.378637 211.354813 
L 154.596071 185.498346 
L 154.987452 121.159179 
L 155.161398 121.159179 
L 155.204885 99.645468 
L 155.248372 215.819509 
L 155.335345 210.139889 
L 155.552779 182.475226 
L 155.770213 113.636689 
L 155.813699 217.218631 
L 155.900673 212.154625 
L 156.118107 187.488533 
L 156.33554 126.111403 
L 156.379027 105.588136 
L 156.422514 216.413776 
L 156.509487 210.995633 
L 156.726921 184.604591 
L 156.944354 118.935232 
L 156.987841 217.748485 
L 157.074815 212.917615 
L 157.292248 189.387097 
L 157.509682 130.835636 
L 157.553169 111.257217 
L 157.596655 216.980684 
L 157.683629 211.811981 
L 157.901063 186.635925 
L 158.118496 123.989841 
L 158.161983 103.042262 
L 158.20547 216.159188 
L 158.292443 210.629028 
L 158.509877 183.692358 
L 158.72731 116.665305 
L 158.770797 217.521493 
L 158.857771 212.590746 
L 159.075204 188.573741 
L 159.292638 128.811747 
L 159.336125 108.828549 
L 159.379611 216.737817 
L 159.466585 211.462253 
L 159.684019 185.765689 
L 159.944939 121.824416 
L 159.988426 100.443752 
L 160.031912 215.899337 
L 160.118886 210.254842 
L 160.33632 182.761265 
L 160.553753 114.348448 
L 160.59724 217.289807 
L 160.684213 212.257118 
L 160.901647 187.743569 
L 161.119081 126.746014 
L 161.162567 106.349669 
L 161.206054 216.489929 
L 161.293028 211.105294 
L 161.510461 184.877462 
L 161.727895 119.614222 
L 161.771382 217.816384 
L 161.858355 213.01539 
L 162.075789 189.630391 
L 162.293223 131.441031 
L 162.336709 111.98369 
L 162.380196 217.053331 
L 162.467169 211.916593 
L 162.684603 186.896234 
L 162.902037 124.637572 
L 162.945523 103.819539 
L 162.98901 216.236916 
L 163.075984 210.740956 
L 163.293417 183.970871 
L 163.510851 117.358333 
L 163.554338 217.590796 
L 163.641311 212.690542 
L 163.858745 188.822065 
L 164.076179 129.429658 
L 164.119665 109.570042 
L 164.163152 216.811966 
L 164.250125 211.569028 
L 164.467559 186.03138 
L 164.85894 122.485539 
L 165.511241 122.485539 
L 165.554727 101.2371 
L 165.598214 215.978672 
L 165.685188 210.369084 
L 165.902621 183.045536 
L 166.120055 115.055804 
L 166.163542 217.360543 
L 166.250515 212.358978 
L 166.467949 187.997028 
L 166.685382 127.3767 
L 166.728869 107.106493 
L 166.772356 216.565612 
L 166.859329 211.214277 
L 167.076763 185.148645 
L 167.294197 120.289014 
L 167.337683 217.883864 
L 167.424657 213.11256 
L 167.642091 189.872181 
L 167.859524 132.042682 
L 167.903011 112.705671 
L 167.946498 217.125529 
L 168.033471 212.020559 
L 168.250905 187.154932 
L 168.468338 125.281297 
L 168.511825 104.59201 
L 168.555312 216.314163 
L 168.642285 210.852191 
L 168.859719 184.247661 
L 169.077153 118.047076 
L 169.120639 217.65967 
L 169.207613 212.789721 
L 169.425047 189.068854 
L 169.64248 130.043747 
L 169.685967 110.30695 
L 169.729454 216.885657 
L 169.816427 211.675143 
L 170.033861 186.295427 
L 170.251294 123.142573 
L 170.294781 218.16922 
L 170.381755 213.523472 
L 170.599188 190.894663 
L 170.816622 134.586944 
L 170.860109 115.758786 
L 170.903595 217.430841 
L 170.990569 212.460207 
L 171.208003 188.248919 
L 171.425436 128.003486 
L 171.468923 107.858635 
L 171.51241 216.640826 
L 171.599383 211.322585 
L 171.816817 185.418152 
L 172.03425 120.959632 
L 172.077737 217.950925 
L 172.164711 213.209129 
L 172.382144 190.112476 
L 172.599578 132.640612 
L 172.643065 113.423187 
L 172.686551 217.197281 
L 172.773525 212.123881 
L 172.990959 187.412031 
L 173.382339 105.359703 
L 173.425826 216.390933 
L 173.512799 210.962739 
L 173.730233 184.522739 
L 173.947667 118.731559 
L 173.991153 217.728118 
L 174.078127 212.888286 
L 174.29556 189.314117 
L 174.512994 130.654039 
L 174.556481 111.0393 
L 174.599968 216.958892 
L 174.686941 211.780601 
L 174.904375 186.557841 
L 175.121808 123.795544 
L 175.165295 218.234517 
L 175.252269 213.6175 
L 175.469702 191.128634 
L 175.687136 135.16914 
L 175.730623 116.457421 
L 175.774109 217.500704 
L 175.861083 212.56081 
L 176.078517 188.499252 
L 176.29595 128.626395 
L 176.339437 108.606127 
L 176.382924 216.715575 
L 176.469897 211.430224 
L 176.687331 185.685992 
L 176.904764 121.626103 
L 176.948251 218.017573 
L 177.035225 213.305101 
L 177.252658 190.351284 
L 177.470092 133.234844 
L 177.513579 114.136266 
L 177.557065 217.268589 
L 177.644039 212.226564 
L 177.861473 187.66754 
L 178.252853 126.55683 
L 178.513773 126.55683 
L 178.55726 106.122649 
L 178.600747 216.467227 
L 178.68772 211.072603 
L 178.905154 184.796116 
L 179.122588 119.411809 
L 179.166074 217.796143 
L 179.253048 212.986242 
L 179.470482 189.557863 
L 179.687915 131.260557 
L 179.731402 111.767121 
L 179.774889 217.031674 
L 179.861862 211.885407 
L 180.079296 186.818633 
L 180.296729 124.444477 
L 180.340216 218.29941 
L 180.42719 213.710947 
L 180.644623 191.361159 
L 180.862057 135.747735 
L 180.905544 117.151735 
L 180.94903 217.570136 
L 181.036004 212.660792 
L 181.253438 188.748037 
L 181.470871 129.245452 
L 181.514358 109.348996 
L 181.557845 216.789862 
L 181.644818 211.537197 
L 181.862252 185.952175 
L 182.079686 122.288452 
L 182.123172 218.083807 
L 182.210146 213.400479 
L 182.427579 190.588616 
L 182.645013 133.825401 
L 182.6885 114.844934 
L 182.731986 217.339456 
L 182.81896 212.328612 
L 183.036394 187.921469 
L 183.471261 106.880876 
L 183.514748 216.54305 
L 183.601721 211.181788 
L 183.819155 185.067803 
L 184.036588 120.087852 
L 184.080075 217.863747 
L 184.167049 213.083593 
L 184.384482 189.800101 
L 184.601916 131.863324 
L 184.645403 112.490441 
L 184.688889 217.104006 
L 184.775863 211.989565 
L 184.993297 187.077812 
L 185.21073 125.089397 
L 185.254217 218.363902 
L 185.34119 213.803815 
L 185.558624 191.592245 
L 185.776058 136.322752 
L 185.819544 117.841755 
L 185.863031 217.639138 
L 185.950005 212.760155 
L 186.167438 188.995284 
L 186.384872 129.860681 
L 186.428359 110.08727 
L 186.471845 216.863689 
L 186.558819 211.643509 
L 186.776253 186.216712 
L 186.993686 122.946705 
L 187.037173 218.149633 
L 187.124146 213.495267 
L 187.34158 190.82448 
L 187.559014 134.412306 
L 187.6025 115.54922 
L 187.645987 217.409884 
L 187.732961 212.43003 
L 187.950394 188.173827 
L 188.167828 127.816635 
L 188.211315 218.636626 
L 188.298288 214.196537 
L 188.515722 192.569464 
L 188.733155 138.754384 
L 188.776642 120.759714 
L 188.820129 217.930934 
L 188.907102 213.180341 
L 189.124536 190.040842 
L 189.34197 132.462363 
L 189.385456 113.209288 
L 189.428943 217.175891 
L 189.515917 212.093079 
L 189.73335 187.335388 
L 189.950784 125.730328 
L 189.994271 218.427995 
L 190.081244 213.896109 
L 190.298678 191.821902 
L 190.516111 136.894212 
L 190.559598 118.527507 
L 190.603085 217.707713 
L 190.690058 212.858903 
L 190.907492 189.241002 
L 191.124926 130.472105 
L 191.168412 110.820979 
L 191.211899 216.93706 
L 191.298873 211.749163 
L 191.516306 186.479613 
L 191.73374 123.600887 
L 191.777227 218.215051 
L 191.8642 213.58947 
L 192.081634 191.058885 
L 192.299067 134.995582 
L 192.342554 116.249151 
L 192.386041 217.479877 
L 192.473014 212.53082 
L 192.690448 188.424625 
L 192.951368 128.4407 
L 192.994855 108.383292 
L 193.038342 216.693291 
L 193.125315 211.398136 
L 193.342749 185.606146 
L 193.560183 121.427421 
L 193.603669 217.997704 
L 193.690643 213.276491 
L 193.908077 190.280093 
L 194.12551 133.057698 
L 194.168997 113.92369 
L 194.212484 217.247331 
L 194.299457 212.195953 
L 194.516891 187.59137 
L 194.734324 126.367295 
L 194.777811 105.895207 
L 194.821298 216.444483 
L 194.908271 211.039852 
L 195.125705 184.71462 
L 195.343139 119.209019 
L 195.386625 217.775864 
L 195.473599 212.957041 
L 195.691033 189.4852 
L 195.908466 131.079748 
L 195.951953 111.550151 
L 195.99544 217.009977 
L 196.082413 211.854164 
L 196.299847 186.740888 
L 196.51728 124.251024 
L 196.560767 218.280065 
L 196.647741 213.683089 
L 196.865174 191.291841 
L 197.082608 135.57525 
L 197.126095 116.944753 
L 197.169581 217.549438 
L 197.256555 212.630986 
L 197.473989 188.673872 
L 197.821882 109.127539 
L 197.865369 216.767716 
L 197.952343 211.505308 
L 198.169776 185.872823 
L 198.38721 122.090999 
L 198.430697 218.064062 
L 198.51767 213.372046 
L 198.735104 190.517865 
L 198.952537 133.64935 
L 198.996024 114.633673 
L 199.039511 217.31833 
L 199.126484 212.298191 
L 199.343918 187.84577 
L 199.561352 127.000323 
L 199.604838 218.554995 
L 199.691812 214.078988 
L 199.909246 192.276965 
L 200.126679 138.026553 
L 200.170166 119.886317 
L 200.213653 217.843594 
L 200.300626 213.054571 
L 200.51806 189.727887 
L 200.77898 131.683633 
L 200.822467 112.274813 
L 200.865954 217.082444 
L 200.952927 211.958515 
L 201.170361 187.000548 
L 201.387794 124.89714 
L 201.431281 218.344676 
L 201.518255 213.77613 
L 201.735688 191.523356 
L 201.953122 136.151333 
L 201.996609 117.636053 
L 202.040095 217.618568 
L 202.127069 212.730534 
L 202.344503 188.921577 
L 202.605423 129.677275 
L 202.64891 109.867183 
L 202.692396 216.841681 
L 202.77937 211.611816 
L 202.996804 186.137851 
L 203.214237 122.750473 
L 203.257724 218.13001 
L 203.344697 213.46701 
L 203.562131 190.754167 
L 203.779565 134.237344 
L 203.823051 115.339266 
L 203.866538 217.388889 
L 203.953512 212.399796 
L 204.170945 188.098597 
L 204.388379 127.629437 
L 204.431866 218.617906 
L 204.518839 214.169581 
L 204.736273 192.502387 
L 204.953706 138.587477 
L 204.997193 120.559425 
L 205.04068 217.910905 
L 205.127653 213.151499 
L 205.345087 189.969074 
L 205.562521 132.283784 
L 205.606007 112.994993 
L 205.649494 217.154462 
L 205.736468 212.062221 
L 205.953901 187.258602 
L 206.171335 125.53926 
L 206.214822 218.408888 
L 206.301795 213.868595 
L 206.519229 191.753439 
L 206.736662 136.723854 
L 206.780149 118.323078 
L 206.823636 217.68727 
L 206.910609 212.829465 
L 207.128043 189.167751 
L 207.519424 130.289834 
L 208.867512 130.289834 
L 208.910999 110.602253 
L 208.954486 216.915188 
L 209.041459 211.717666 
L 209.258893 186.40124 
L 209.476327 123.405869 
L 209.519813 218.195549 
L 209.606787 213.561387 
L 209.82422 190.989007 
L 210.041654 134.821702 
L 210.085141 116.040495 
L 210.128628 217.459012 
L 210.215601 212.500773 
L 210.433035 188.34986 
L 210.650468 128.25466 
L 210.693955 108.160044 
L 210.737442 216.670967 
L 210.824415 211.365988 
L 211.041849 185.526152 
L 211.259283 121.228371 
L 211.302769 217.977799 
L 211.389743 213.247827 
L 211.607176 190.20877 
L 211.82461 132.880222 
L 211.868097 113.71072 
L 211.911584 217.226034 
L 211.998557 212.165286 
L 212.215991 187.515059 
L 212.433424 126.177409 
L 212.476911 218.472703 
L 212.563885 213.960489 
L 212.781318 191.9821 
L 212.998752 137.292834 
L 213.042239 119.005854 
L 213.085725 217.755548 
L 213.172699 212.927785 
L 213.390132 189.412402 
L 213.651053 130.898604 
L 213.69454 111.332777 
L 213.738026 216.98824 
L 213.825 211.822862 
L 214.042433 186.663 
L 214.259867 124.057212 
L 214.303354 218.260683 
L 214.390327 213.65518 
L 214.607761 191.222395 
L 214.825195 135.402445 
L 214.868681 116.737387 
L 214.912168 217.528701 
L 214.999142 212.601126 
L 215.216575 188.599569 
L 215.434009 128.876016 
L 215.477496 218.742564 
L 215.564469 214.349088 
L 215.781903 192.949059 
L 215.999336 139.698939 
L 216.042823 121.89318 
L 216.08631 218.04428 
L 216.173283 213.34356 
L 216.390717 190.446983 
L 216.608151 133.472973 
L 216.651637 114.42202 
L 216.695124 217.297164 
L 216.782098 212.267713 
L 216.999531 187.769931 
L 217.216965 126.811612 
L 217.260452 218.536123 
L 217.347425 214.051814 
L 217.564859 192.209346 
L 217.782292 137.858296 
L 217.825779 119.684408 
L 217.869266 217.823403 
L 217.956239 213.025497 
L 218.173673 189.65554 
L 218.565054 131.503609 
L 219.739195 131.503609 
L 219.782682 112.058784 
L 219.826169 217.060841 
L 219.913142 211.927407 
L 220.130576 186.923141 
L 220.34801 124.704526 
L 220.391496 218.325415 
L 220.47847 213.748394 
L 220.695903 191.454339 
L 220.913337 135.979597 
L 220.956824 117.42997 
L 221.000311 217.597959 
L 221.087284 212.700858 
L 221.304718 188.847734 
L 221.522151 129.493529 
L 221.565638 218.804315 
L 221.652612 214.43801 
L 221.870045 193.170326 
L 222.087479 140.249521 
L 222.130966 122.553878 
L 222.174452 218.11035 
L 222.261426 213.4387 
L 222.478859 190.683723 
L 222.913727 115.128922 
L 222.957213 217.367854 
L 223.044187 212.369507 
L 223.261621 188.023227 
L 223.479054 127.441892 
L 223.522541 218.599151 
L 223.609514 214.142574 
L 223.826948 192.435187 
L 224.044382 138.42026 
L 224.087868 120.358765 
L 224.131355 217.890839 
L 224.218329 213.122604 
L 224.435762 189.897174 
L 224.653196 132.104873 
L 224.696683 219.06545 
L 224.783656 214.814044 
L 225.00109 194.106017 
L 225.218524 142.577821 
L 225.26201 125.347838 
L 225.305497 218.389746 
L 225.39247 213.84103 
L 225.609904 191.684849 
L 225.827338 136.55318 
L 225.870824 118.118269 
L 225.914311 217.666789 
L 226.001285 212.799973 
L 226.218718 189.094364 
L 226.436152 130.107224 
L 226.479639 218.865685 
L 226.566612 214.526382 
L 226.784046 193.390223 
L 227.00148 140.796697 
L 227.044966 123.210489 
L 227.088453 218.176011 
L 227.175426 213.533252 
L 227.39286 190.918999 
L 227.610294 134.647499 
L 227.653781 115.831451 
L 227.697267 217.438107 
L 227.784241 212.470671 
L 228.001674 188.274956 
L 228.219108 128.068275 
L 228.262595 218.66179 
L 228.349568 214.232773 
L 228.567002 192.659631 
L 228.784436 138.978749 
L 228.827922 121.028952 
L 228.871409 217.957857 
L 228.958382 213.219111 
L 229.175816 190.137314 
L 229.39325 132.702418 
L 229.436737 219.125204 
L 229.52371 214.90009 
L 229.741144 194.320128 
L 229.958577 143.110598 
L 230.002064 125.987171 
L 230.045551 218.453679 
L 230.132524 213.933094 
L 230.349958 191.913934 
L 230.567392 137.123216 
L 230.610878 118.802312 
L 230.654365 217.735193 
L 230.741338 212.898475 
L 230.958772 189.339469 
L 231.176206 130.717124 
L 231.219693 218.926675 
L 231.306666 214.614208 
L 231.5241 193.608761 
L 231.741533 141.340489 
L 231.78502 123.86304 
L 231.828507 218.241266 
L 231.91548 213.62722 
L 232.132914 191.152819 
L 232.480808 116.529637 
L 232.524294 217.507926 
L 232.611268 212.57121 
L 232.828702 188.525128 
L 233.046135 128.690784 
L 233.089622 218.724041 
L 233.176595 214.322415 
L 233.394029 192.882687 
L 233.611463 139.533784 
L 233.65495 121.694994 
L 233.698436 218.024462 
L 233.78541 213.315021 
L 234.002843 190.375969 
L 234.437711 114.209975 
L 234.481197 217.27596 
L 234.568171 212.237178 
L 234.785605 187.693952 
L 235.003038 126.62255 
L 235.046525 218.517217 
L 235.133498 214.024589 
L 235.350932 192.141602 
L 235.568366 137.689726 
L 235.611852 119.482124 
L 235.655339 217.803175 
L 235.742313 212.996368 
L 235.959746 189.583058 
L 236.17718 131.323251 
L 236.220667 218.987287 
L 236.30764 214.70149 
L 236.525074 193.825948 
L 236.742507 141.880919 
L 236.785994 124.511555 
L 236.829481 218.306118 
L 236.916454 213.720606 
L 237.133888 191.385194 
L 237.351322 135.807543 
L 237.394808 117.223504 
L 237.438295 217.577313 
L 237.525269 212.671126 
L 237.742702 188.773754 
L 237.960136 129.309443 
L 238.003623 218.785907 
L 238.090596 214.411502 
L 238.30803 193.104364 
L 238.525463 140.085387 
L 238.56895 122.356917 
L 238.612437 218.090654 
L 238.69941 213.410338 
L 238.916844 190.613148 
L 239.308225 133.886445 
L 240.264933 133.886445 
L 240.308419 114.918187 
L 240.351906 217.346781 
L 240.43888 212.339161 
L 240.656313 187.947717 
L 240.873747 127.253999 
L 240.917234 218.580362 
L 241.004207 214.115518 
L 241.221641 192.367861 
L 241.439075 138.252733 
L 241.482561 120.157732 
L 241.526048 217.870736 
L 241.613021 213.093655 
L 241.830455 189.825141 
L 242.221836 131.92563 
L 243.048084 131.92563 
L 243.09157 219.047525 
L 243.178544 214.788233 
L 243.395977 194.041791 
L 243.613411 142.418006 
L 243.656898 125.15606 
L 243.700385 218.370568 
L 243.787358 213.813415 
L 244.004792 191.616132 
L 244.222225 136.382189 
L 244.265712 117.91308 
L 244.309199 217.64627 
L 244.396172 212.770425 
L 244.613606 189.020841 
L 244.83104 129.924276 
L 244.874526 218.84739 
L 244.9615 214.500038 
L 245.178933 193.32467 
L 245.396367 140.633578 
L 245.439854 123.014747 
L 245.483341 218.156437 
L 245.570314 213.505065 
L 245.787748 190.848861 
L 246.005181 134.472973 
L 246.048668 115.62202 
L 246.092155 217.417164 
L 246.179128 212.440513 
L 246.396562 188.199913 
L 246.613996 127.881544 
L 246.657482 218.643117 
L 246.744456 214.205884 
L 246.961889 192.592722 
L 247.179323 138.812258 
L 247.22281 120.829163 
L 247.266297 217.937879 
L 247.35327 213.190341 
L 247.570704 190.065726 
L 247.831624 132.524284 
L 247.875111 113.283594 
L 247.918598 217.183322 
L 248.005571 212.103779 
L 248.223005 187.362012 
L 248.440438 125.796579 
L 248.483925 218.43462 
L 248.570899 213.905649 
L 248.788332 191.845641 
L 249.005766 136.953283 
L 249.049253 118.598392 
L 249.092739 217.714801 
L 249.179713 212.86911 
L 249.397146 189.266401 
L 249.788527 130.535307 
L 252.049837 130.535307 
L 252.093324 110.896821 
L 252.136811 216.944644 
L 252.223784 211.760084 
L 252.441218 186.506789 
L 252.658651 123.668508 
L 252.702138 218.221813 
L 252.789112 213.599207 
L 253.006545 191.083115 
L 253.223979 135.055873 
L 253.267466 116.321501 
L 253.310952 217.487112 
L 253.397926 212.541238 
L 253.615359 188.45055 
L 253.832793 128.505208 
L 253.87628 218.705483 
L 253.963253 214.295692 
L 254.180687 192.816192 
L 254.398121 139.368323 
L 254.441607 121.49644 
L 254.485094 218.004606 
L 254.572068 213.286429 
L 254.789501 190.304824 
L 255.006935 133.119236 
L 255.050422 113.997536 
L 255.093908 217.254716 
L 255.180882 212.206587 
L 255.398315 187.617831 
L 255.615749 126.433137 
L 255.659236 218.498276 
L 255.746209 213.997314 
L 255.963643 192.073732 
L 256.181077 137.520844 
L 256.224563 119.279465 
L 256.26805 217.782909 
L 256.355024 212.967185 
L 256.572457 189.510442 
L 256.789891 131.142559 
L 256.833378 111.625523 
L 256.876864 217.017515 
L 256.963838 211.865017 
L 257.181271 186.767896 
L 257.398705 124.318227 
L 257.442192 218.286785 
L 257.529165 213.692767 
L 257.746599 191.315921 
L 257.964033 135.635169 
L 258.007519 117.016655 
L 258.051006 217.556628 
L 258.13798 212.64134 
L 258.355413 188.699636 
L 258.616334 129.125014 
L 258.65982 109.20447 
L 258.703307 216.775409 
L 258.790281 211.516386 
L 259.007714 185.900389 
L 259.225148 122.159591 
L 259.268635 218.070921 
L 259.355608 213.381923 
L 259.573042 190.542443 
L 259.790475 133.710508 
L 259.833962 114.707062 
L 259.877449 217.325668 
L 259.964422 212.308759 
L 260.181856 187.872067 
L 260.573237 127.065758 
L 261.008104 127.065758 
L 261.051591 218.561538 
L 261.138564 214.088411 
L 261.355998 192.300411 
L 261.573431 138.084895 
L 261.616918 119.956327 
L 261.660405 217.850595 
L 261.747378 213.064653 
L 261.964812 189.752973 
L 262.182246 131.746055 
L 262.225732 112.349719 
L 262.269219 217.089934 
L 262.356193 211.969301 
L 262.573626 187.027388 
L 262.79106 124.963927 
L 262.834547 218.351355 
L 262.92152 213.785747 
L 263.138954 191.547287 
L 263.356387 136.210882 
L 263.399874 117.707511 
L 263.443361 217.625713 
L 263.530334 212.740823 
L 263.747768 188.947182 
L 263.965202 129.740988 
L 264.008688 218.829061 
L 264.095662 214.473644 
L 264.313095 193.258994 
L 264.530529 140.470157 
L 264.574016 122.818641 
L 264.617503 218.136826 
L 264.704476 213.476826 
L 264.92191 190.778592 
L 265.139343 134.298123 
L 265.18283 115.412201 
L 265.226317 217.396182 
L 265.31329 212.410299 
L 265.530724 188.124731 
L 265.748158 127.694467 
L 265.791644 218.624409 
L 265.878618 214.178945 
L 266.096051 192.525689 
L 266.313485 138.645458 
L 266.356972 120.629003 
L 266.400459 217.917863 
L 266.487432 213.161518 
L 266.704866 189.994005 
L 266.922299 132.34582 
L 266.965786 113.069436 
L 267.009273 217.161906 
L 267.096246 212.072941 
L 267.31368 187.285276 
L 267.531114 125.605634 
L 267.5746 218.415526 
L 267.661574 213.878153 
L 267.879007 191.777222 
L 268.096441 136.783034 
L 268.139928 118.394094 
L 268.183415 217.694372 
L 268.270388 212.839691 
L 268.487822 189.193197 
L 268.705255 130.353152 
L 268.748742 218.890277 
L 268.835716 214.561796 
L 269.053149 193.478344 
L 269.270583 141.015969 
L 269.31407 123.473616 
L 269.357556 218.202324 
L 269.44453 213.571143 
L 269.661963 191.013282 
L 269.879397 134.882105 
L 269.922884 116.112979 
L 269.966371 217.46626 
L 270.053344 212.511211 
L 270.270778 188.375832 
L 270.488211 128.319287 
L 270.531698 218.686891 
L 270.618672 214.268919 
L 270.836105 192.749573 
L 271.053539 139.202555 
L 271.097026 121.297518 
L 271.140512 217.984714 
L 271.227486 213.257785 
L 271.444919 190.233547 
L 271.662353 132.941875 
L 271.70584 113.784703 
L 271.749327 217.233433 
L 271.8363 212.175939 
L 272.053734 187.541569 
L 272.271167 126.243373 
L 272.314654 218.4793 
L 272.401628 213.969988 
L 272.619061 192.005736 
L 272.836495 137.351648 
L 272.879982 119.076431 
L 272.923468 217.762605 
L 273.010442 212.937948 
L 273.227876 189.437691 
L 273.619256 130.961531 
L 278.402797 130.961531 
L 278.446283 111.40829 
L 278.48977 216.995791 
L 278.576744 211.833736 
L 278.794177 186.690057 
L 279.011611 124.124539 
L 279.055098 218.267416 
L 279.142071 213.664876 
L 279.359505 191.246519 
L 279.576938 135.462475 
L 279.620425 116.809423 
L 279.663912 217.535905 
L 279.750885 212.611499 
L 279.968319 188.625381 
L 280.185753 128.940244 
L 280.229239 218.748987 
L 280.316213 214.358337 
L 280.533646 192.972073 
L 280.75108 139.756206 
L 280.794567 121.9619 
L 280.838054 218.051152 
L 280.925027 213.353455 
L 281.142461 190.471606 
L 281.359894 133.534244 
L 281.403381 114.495545 
L 281.446868 217.304517 
L 281.533841 212.2783 
L 281.751275 187.796277 
L 281.968709 126.877167 
L 282.012195 218.542679 
L 282.099169 214.061254 
L 282.316602 192.232836 
L 282.534036 137.916746 
L 282.577523 119.754548 
L 282.62101 217.830417 
L 282.707983 213.035597 
L 282.925417 189.680672 
L 283.273311 112.133829 
L 283.316797 217.068345 
L 283.403771 211.938213 
L 283.621204 186.950031 
L 283.838638 124.771437 
L 283.882125 218.332106 
L 283.969098 213.758029 
L 284.186532 191.478315 
L 284.403966 136.039256 
L 284.447452 117.50156 
L 284.490939 217.605118 
L 284.577913 212.711167 
L 284.795346 188.873386 
L 285.01278 129.55736 
L 285.056267 218.810698 
L 285.14324 214.447202 
L 285.360674 193.193197 
L 285.578107 140.306433 
L 285.621594 122.622172 
L 285.665081 218.117179 
L 285.752054 213.448535 
L 285.969488 190.708194 
L 286.186922 134.122949 
L 286.230408 115.201992 
L 286.273895 217.375161 
L 286.360869 212.380029 
L 286.578302 188.049409 
L 286.795736 127.507042 
L 286.839223 218.605667 
L 286.926196 214.151956 
L 287.14363 192.458531 
L 287.361063 138.478349 
L 287.40455 120.428471 
L 287.448037 217.897809 
L 287.53501 213.132642 
L 287.752444 189.922151 
L 287.969878 132.167024 
L 288.013364 112.854882 
L 288.056851 217.14045 
L 288.143825 212.042045 
L 288.361258 187.208397 
L 288.578692 125.414335 
L 288.622179 218.396396 
L 288.709152 213.850606 
L 288.926586 191.708676 
L 289.144019 136.61247 
L 289.187506 118.189417 
L 289.230993 217.673904 
L 289.317966 212.810218 
L 289.5354 189.119858 
L 289.970267 110.459245 
L 290.013754 216.900887 
L 290.100727 211.697073 
L 290.318161 186.349997 
L 290.535595 123.278361 
L 290.579082 218.182798 
L 290.666055 213.543026 
L 290.883489 190.943318 
L 291.100922 134.708014 
L 291.144409 115.90407 
L 291.187896 217.445369 
L 291.274869 212.481128 
L 291.492303 188.300977 
L 291.709737 128.133022 
L 291.753223 218.668264 
L 291.840197 214.242097 
L 292.05763 192.682831 
L 292.275064 139.036479 
L 292.318551 121.098227 
L 292.362038 217.964785 
L 292.449011 213.229087 
L 292.666445 190.162137 
L 292.883878 132.764185 
L 292.927365 113.571475 
L 292.970852 217.21211 
L 293.057825 212.145234 
L 293.275259 187.465165 
L 293.492693 126.053257 
L 293.536179 218.460288 
L 293.623153 213.942611 
L 293.840586 191.937614 
L 294.05802 137.182139 
L 294.101507 118.873019 
L 294.144994 217.742264 
L 294.231967 212.908657 
L 294.449401 189.364805 
L 294.797295 111.190654 
L 294.840781 216.974028 
L 294.927755 211.802396 
L 295.145188 186.612074 
L 295.362622 123.930493 
L 295.406109 218.248012 
L 295.493082 213.636933 
L 295.710516 191.176989 
L 295.92795 135.289461 
L 295.971436 116.601806 
L 296.014923 217.515143 
L 296.101896 212.581602 
L 296.31933 188.550988 
L 296.536764 128.755131 
L 296.580251 218.730475 
L 296.667224 214.331681 
L 296.884658 192.905744 
L 297.102091 139.591157 
L 297.145578 121.763841 
L 297.189065 218.031346 
L 297.276038 213.324935 
L 297.493472 190.400638 
L 297.710906 133.357653 
L 297.754392 114.283636 
L 297.797879 217.283326 
L 297.884852 212.247785 
L 298.102286 187.720346 
L 298.31972 126.688227 
L 298.363207 218.523785 
L 298.45018 214.034047 
L 298.667614 192.165135 
L 298.885047 137.748285 
L 298.928534 119.552395 
L 298.972021 217.810202 
L 299.058994 213.006487 
L 299.276428 189.608237 
L 299.537348 131.385905 
L 299.580835 111.917539 
L 299.624322 217.046716 
L 299.711295 211.907067 
L 299.928729 186.87253 
L 300.146163 124.578591 
L 300.189649 218.312821 
L 300.276623 213.730259 
L 300.494056 191.409214 
L 300.71149 135.867312 
L 300.754977 117.295227 
L 300.798464 217.584485 
L 300.885437 212.681455 
L 301.102871 188.799453 
L 301.494251 129.373392 
L 317.714802 129.373392 
L 317.758289 109.502523 
L 317.801776 216.805215 
L 317.888749 211.559305 
L 318.106183 186.007186 
L 318.323616 122.425338 
L 318.367103 218.097496 
L 318.454077 213.420191 
L 318.67151 190.637665 
L 318.888944 133.947451 
L 318.932431 114.991394 
L 318.975917 217.354102 
L 319.062891 212.349703 
L 319.280325 187.973948 
L 319.497758 127.319271 
L 319.541245 218.586889 
L 319.628218 214.124917 
L 319.845652 192.391249 
L 320.063086 138.31093 
L 320.106572 120.227568 
L 320.150059 217.877719 
L 320.237033 213.103712 
L 320.454466 189.850164 
L 320.6719 131.987897 
L 320.715387 112.639929 
L 320.758873 217.118955 
L 320.845847 212.011092 
L 321.063281 187.131376 
L 321.280714 125.222681 
L 321.324201 218.37723 
L 321.411174 213.823008 
L 321.628608 191.640003 
L 321.846042 136.441589 
L 321.889528 117.98436 
L 321.933015 217.653398 
L 322.019989 212.78069 
L 322.237422 189.046382 
L 322.585316 110.239848 
L 322.628803 216.878947 
L 322.715776 211.66548 
L 322.93321 186.271383 
L 323.150644 123.082745 
L 323.19413 218.163237 
L 323.281104 213.514857 
L 323.498538 190.873226 
L 323.715971 134.533601 
L 323.759458 115.694774 
L 323.802945 217.42444 
L 323.889918 212.450989 
L 324.107352 188.225982 
L 324.324785 127.946411 
L 324.368272 218.649603 
L 324.455246 214.215225 
L 324.672679 192.615965 
L 324.890113 138.870095 
L 324.9336 120.898566 
L 324.977086 217.944819 
L 325.06406 213.200335 
L 325.281494 190.090595 
L 325.498927 132.586165 
L 325.542414 113.357851 
L 325.585901 217.190747 
L 325.672874 212.114472 
L 325.890308 187.38862 
L 326.107741 125.862788 
L 326.151228 218.441241 
L 326.238202 213.915183 
L 326.455635 191.869365 
L 326.673069 137.012315 
L 326.716556 118.669231 
L 326.760042 217.721885 
L 326.847016 212.879311 
L 327.06445 189.291784 
L 327.32537 130.598467 
L 327.368857 110.972614 
L 327.412343 216.952224 
L 327.499317 211.770998 
L 327.716751 186.533946 
L 327.934184 123.736086 
L 327.977671 218.228571 
L 328.064644 213.608938 
L 328.282078 191.107329 
L 328.499512 135.116126 
L 328.542998 116.393804 
L 328.586485 217.494343 
L 328.673459 212.55165 
L 328.890892 188.476457 
L 329.32576 108.538062 
L 329.369246 216.708768 
L 329.45622 211.420423 
L 329.673653 185.661603 
L 329.891087 121.565415 
L 329.934574 218.011504 
L 330.021547 213.296362 
L 330.238981 190.329539 
L 330.456415 133.180734 
L 330.499901 114.071334 
L 330.543388 217.262096 
L 330.630362 212.217214 
L 330.847795 187.644274 
L 331.065229 126.498936 
L 331.108716 218.504856 
L 331.195689 214.006789 
L 331.413123 192.097309 
L 331.630556 137.579511 
L 331.674043 119.349866 
L 331.71753 217.789949 
L 331.804503 212.977323 
L 332.021937 189.535668 
L 332.239371 131.205329 
L 332.282857 111.700847 
L 332.326344 217.025047 
L 332.413318 211.875864 
L 332.630751 186.794886 
L 332.848185 124.385386 
L 332.891672 218.293501 
L 332.978645 213.702438 
L 333.196079 191.339986 
L 333.413512 135.695049 
L 333.456999 117.088512 
L 333.500486 217.563813 
L 333.587459 212.651688 
L 333.804893 188.725383 
L 334.196274 109.281351 
L 334.23976 216.783097 
L 334.326734 211.527456 
L 334.544167 185.927937 
L 334.761601 122.22814 
L 334.805088 218.077776 
L 334.892061 213.391794 
L 335.109495 190.567005 
L 335.326929 133.771626 
L 335.370415 114.780404 
L 335.413902 217.333003 
L 335.500876 212.31932 
L 335.718309 187.898347 
L 335.935743 127.13115 
L 335.97923 218.568077 
L 336.066203 214.097828 
L 336.283637 192.323842 
L 336.50107 138.1432 
L 336.544557 120.026292 
L 336.588044 217.857591 
L 336.675017 213.074728 
L 336.892451 189.778043 
L 337.109885 131.808437 
L 337.153371 112.424577 
L 337.196858 217.09742 
L 337.283832 211.980081 
L 337.501265 187.054211 
L 337.718699 125.030671 
L 337.762186 218.358029 
L 337.849159 213.795359 
L 338.066593 191.571203 
L 338.284026 136.270392 
L 338.327513 117.778923 
L 338.371 217.632855 
L 338.457973 212.751107 
L 338.675407 188.97277 
L 339.023301 110.020044 
L 339.066788 216.856967 
L 339.153761 211.633828 
L 339.371195 186.192624 
L 339.588628 122.886766 
L 339.632115 218.143639 
L 339.719089 213.486636 
L 339.936522 190.803003 
L 340.153956 134.358864 
L 340.197443 115.485089 
L 340.240929 217.403471 
L 340.327903 212.420795 
L 340.545336 188.150848 
L 340.76277 127.759455 
L 340.806257 218.630908 
L 340.89323 214.188303 
L 341.110664 192.548975 
L 341.328098 138.703402 
L 341.371584 120.698535 
L 341.415071 217.924816 
L 341.502045 213.171531 
L 341.719478 190.01892 
L 341.936912 132.407816 
L 341.980399 113.143832 
L 342.023885 217.169345 
L 342.110859 212.083654 
L 342.328292 187.311933 
L 342.545726 125.671966 
L 342.589213 218.422159 
L 342.676186 213.887705 
L 342.89362 191.80099 
L 343.111054 136.842176 
L 343.15454 118.465064 
L 343.198027 217.701469 
L 343.285001 212.849911 
L 343.502434 189.218627 
L 343.763355 130.41643 
L 343.806841 110.754169 
L 343.850328 216.930379 
L 343.937302 211.739542 
L 344.154735 186.455674 
L 344.372169 123.541319 
L 344.415656 218.209094 
L 344.502629 213.580892 
L 344.720063 191.037541 
L 344.937496 134.94247 
L 344.980983 116.185416 
L 345.02447 217.473504 
L 345.111443 212.521642 
L 345.328877 188.401788 
L 345.763744 108.315101 
L 345.807231 216.686472 
L 345.894204 211.388316 
L 346.111638 185.581712 
L 346.329072 121.366621 
L 346.372559 217.991624 
L 346.459532 213.267735 
L 346.676966 190.258307 
L 346.894399 133.003487 
L 346.937886 113.858638 
L 346.981373 217.240826 
L 347.068346 212.186586 
L 347.28578 187.568061 
L 347.503214 126.309294 
L 347.5467 218.485892 
L 347.633674 213.97948 
L 347.851107 192.029356 
L 348.068541 137.410424 
L 348.112028 119.146962 
L 348.155515 217.769658 
L 348.242488 212.948104 
L 348.459922 189.462963 
L 348.677355 131.024417 
L 348.720842 111.483754 
L 348.764329 217.003338 
L 348.851302 211.844602 
L 349.068736 186.717097 
L 349.28617 124.191824 
L 349.329656 218.274145 
L 349.41663 213.674564 
L 349.634063 191.270628 
L 349.851497 135.522466 
L 349.894984 116.881412 
L 349.938471 217.543104 
L 350.025444 212.621865 
L 350.242878 188.651176 
L 350.634258 109.059769 
L 350.677745 216.760939 
L 350.764718 211.495549 
L 350.982152 185.84854 
L 351.199586 122.030575 
L 351.243072 218.05802 
L 351.330046 213.363345 
L 351.54748 190.496214 
L 351.764913 133.595475 
L 351.8084 114.569023 
L 351.851887 217.311865 
L 351.93886 212.288881 
L 352.156294 187.822605 
L 352.373728 126.942681 
L 352.417214 218.54923 
L 352.504188 214.070688 
L 352.721621 192.25631 
L 352.939055 137.975159 
L 352.982542 119.824643 
L 353.026028 217.837427 
L 353.113002 213.04569 
L 353.330436 189.705789 
L 353.547869 131.628644 
L 353.591356 112.208826 
L 353.634843 217.075845 
L 353.721816 211.949013 
L 353.93925 186.976904 
L 354.156684 124.838306 
L 354.20017 218.338793 
L 354.287144 213.767658 
L 354.504577 191.502275 
L 354.722011 136.098876 
L 354.765498 117.573104 
L 354.808984 217.612273 
L 354.895958 212.721469 
L 355.113392 188.899022 
L 355.461285 109.799833 
L 355.504772 216.834946 
L 355.591746 211.602118 
L 355.809179 186.113718 
L 356.026613 122.690423 
L 356.0701 218.124005 
L 356.157073 213.458363 
L 356.374507 190.732649 
L 356.591941 134.183802 
L 356.635427 115.275016 
L 356.678914 217.382464 
L 356.765887 212.390544 
L 356.983321 188.075575 
L 357.200755 127.572151 
L 357.244241 218.612177 
L 357.331215 214.161332 
L 357.548649 192.481861 
L 357.766082 138.5364 
L 357.809569 120.498133 
L 357.853056 217.904776 
L 357.940029 213.142673 
L 358.157463 189.947112 
L 358.374897 132.229135 
L 358.418383 112.929415 
L 358.46187 217.147904 
L 358.548843 212.052778 
L 358.766277 187.235104 
L 358.983711 125.48079 
L 359.027197 218.403041 
L 359.114171 213.860176 
L 359.331605 191.732488 
L 359.549038 136.671721 
L 359.592525 118.260519 
L 359.636012 217.681014 
L 359.722985 212.820457 
L 359.940419 189.145335 
L 360.201339 130.234055 
L 360.244826 110.535319 
L 360.288313 216.908494 
L 360.375286 211.708028 
L 360.59272 186.377256 
L 360.810153 123.34619 
L 360.85364 218.189581 
L 360.940614 213.552793 
L 361.158047 190.967623 
L 361.375481 134.768491 
L 361.418968 115.976642 
L 361.462454 217.452626 
L 361.549428 212.491578 
L 361.766862 188.32698 
L 362.201729 108.091726 
L 362.245216 216.664135 
L 362.332189 211.35615 
L 362.549623 185.501673 
L 362.767056 121.167458 
L 362.810543 217.971708 
L 362.897517 213.239056 
L 363.11495 190.186944 
L 363.332384 132.825912 
L 363.375871 113.645547 
L 363.419357 217.219517 
L 363.506331 212.155901 
L 363.723765 187.491707 
L 363.941198 126.1193 
L 363.984685 218.466892 
L 364.071658 213.952121 
L 364.289092 191.961278 
L 364.506526 137.241024 
L 364.550012 118.943682 
L 364.593499 217.74933 
L 364.680473 212.918832 
L 364.897906 189.390124 
L 364.897906 189.390124 
" clip-path="url(#p7d6f7e89cd)" style="fill: none; stroke: #1f77b4; stroke-width: 1.5; stroke-linecap: square"/>
   </g>
   <g id="patch_3">
    <path d="M 45.316088 230.889024 
L 45.316088 9.129024 
" style="fill: none; stroke: #000000; stroke-width: 0.8; stroke-linejoin: miter; stroke-linecap: square"/>
   </g>
   <g id="patch_4">
    <path d="M 380.116088 230.889024 
L 380.116088 9.129024 
" style="fill: none; stroke: #000000; stroke-width: 0.8; stroke-linejoin: miter; stroke-linecap: square"/>
   </g>
   <g id="patch_5">
    <path d="M 45.316088 230.889024 
L 380.116088 230.889024 
" style="fill: none; stroke: #000000; stroke-width: 0.8; stroke-linejoin: miter; stroke-linecap: square"/>
   </g>
   <g id="patch_6">
    <path d="M 45.316088 9.129024 
L 380.116088 9.129024 
" style="fill: none; stroke: #000000; stroke-width: 0.8; stroke-linejoin: miter; stroke-linecap: square"/>
   </g>
   <g id="legend_1">
    <g id="patch_7">
     <path d="M 322.296768 31.349331 
L 373.116088 31.349331 
Q 375.116088 31.349331 375.116088 29.349331 
L 375.116088 16.129024 
Q 375.116088 14.129024 373.116088 14.129024 
L 322.296768 14.129024 
Q 320.296768 14.129024 320.296768 16.129024 
L 320.296768 29.349331 
Q 320.296768 31.349331 322.296768 31.349331 
z
" style="fill: #ffffff; opacity: 0.8; stroke: #cccccc; stroke-linejoin: miter"/>
    </g>
    <g id="line2d_19">
     <path d="M 324.296768 21.727344 
L 334.296768 21.727344 
L 344.296768 21.727344 
" style="fill: none; stroke: #1f77b4; stroke-width: 1.5; stroke-linecap: square"/>
    </g>
    <g id="text_20">
     <!-- CFL -->
     <g transform="translate(352.296768 25.227344) scale(0.1 -0.1)">
      <use xlink:href="#NimbusSanL-Regu-43" transform="scale(0.996264)"/>
      <use xlink:href="#NimbusSanL-Regu-46" transform="translate(71.929985 0) scale(0.996264)"/>
      <use xlink:href="#NimbusSanL-Regu-4c" transform="translate(132.801616 0) scale(0.996264)"/>
     </g>
    </g>
   </g>
  </g>
 </g>
 <defs>
  <clipPath id="p7d6f7e89cd">
   <rect x="45.316088" y="9.129024" width="334.8" height="221.76"/>
  </clipPath>
 </defs>
</svg>
