<?xml version="1.0" encoding="utf-8" standalone="no"?>
<!DOCTYPE svg PUBLIC "-//W3C//DTD SVG 1.1//EN"
  "http://www.w3.org/Graphics/SVG/1.1/DTD/svg11.dtd">
<svg xmlns:xlink="http://www.w3.org/1999/xlink" width="393.404387pt" height="268.137201pt" viewBox="0 0 393.404387 268.137201" xmlns="http://www.w3.org/2000/svg" version="1.1">
 <metadata>
  <rdf:RDF xmlns:dc="http://purl.org/dc/elements/1.1/" xmlns:cc="http://creativecommons.org/ns#" xmlns:rdf="http://www.w3.org/1999/02/22-rdf-syntax-ns#">
   <cc:Work>
    <dc:type rdf:resource="http://purl.org/dc/dcmitype/StillImage"/>
    <dc:date>2025-07-17T17:52:27.773081</dc:date>
    <dc:format>image/svg+xml</dc:format>
    <dc:creator>
     <cc:Agent>
      <dc:title>Matplotlib v3.10.3, https://matplotlib.org/</dc:title>
     </cc:Agent>
    </dc:creator>
   </cc:Work>
  </rdf:RDF>
 </metadata>
 <defs>
  <style type="text/css">*{stroke-linejoin: round; stroke-linecap: butt}</style>
 </defs>
 <g id="figure_1">
  <g id="patch_1">
   <path d="M 0 268.137201 
L 393.404387 268.137201 
L 393.404387 0 
L 0 0 
z
" style="fill: #ffffff"/>
  </g>
  <g id="axes_1">
   <g id="patch_2">
    <path d="M 42.54868 231.496588 
L 377.34868 231.496588 
L 377.34868 9.736588 
L 42.54868 9.736588 
z
" style="fill: #ffffff"/>
   </g>
   <g id="PathCollection_1">
    <defs>
     <path id="m893166a83b" d="M 0 0.353553 
C 0.093763 0.353553 0.183699 0.316301 0.25 0.25 
C 0.316301 0.183699 0.353553 0.093763 0.353553 0 
C 0.353553 -0.093763 0.316301 -0.183699 0.25 -0.25 
C 0.183699 -0.316301 0.093763 -0.353553 0 -0.353553 
C -0.093763 -0.353553 -0.183699 -0.316301 -0.25 -0.25 
C -0.316301 -0.183699 -0.353553 -0.093763 -0.353553 0 
C -0.353553 0.093763 -0.316301 0.183699 -0.25 0.25 
C -0.183699 0.316301 -0.093763 0.353553 0 0.353553 
z
" style="stroke: #ff0000"/>
    </defs>
    <g clip-path="url(#p6a2fb65262)">
     <use xlink:href="#m893166a83b" x="209.94868" y="219.757718" style="fill: #ff0000; stroke: #ff0000"/>
     <use xlink:href="#m893166a83b" x="209.401502" y="219.757718" style="fill: #ff0000; stroke: #ff0000"/>
     <use xlink:href="#m893166a83b" x="208.754213" y="219.882214" style="fill: #ff0000; stroke: #ff0000"/>
     <use xlink:href="#m893166a83b" x="207.947796" y="219.780179" style="fill: #ff0000; stroke: #ff0000"/>
     <use xlink:href="#m893166a83b" x="206.980932" y="218.292651" style="fill: #ff0000; stroke: #ff0000"/>
     <use xlink:href="#m893166a83b" x="205.867749" y="218.967322" style="fill: #ff0000; stroke: #ff0000"/>
     <use xlink:href="#m893166a83b" x="204.590605" y="218.800686" style="fill: #ff0000; stroke: #ff0000"/>
     <use xlink:href="#m893166a83b" x="203.0988" y="219.190644" style="fill: #ff0000; stroke: #ff0000"/>
     <use xlink:href="#m893166a83b" x="201.304127" y="219.041549" style="fill: #ff0000; stroke: #ff0000"/>
     <use xlink:href="#m893166a83b" x="199.105631" y="219.556429" style="fill: #ff0000; stroke: #ff0000"/>
     <use xlink:href="#m893166a83b" x="196.670088" y="219.860395" style="fill: #ff0000; stroke: #ff0000"/>
     <use xlink:href="#m893166a83b" x="194.362038" y="220.115375" style="fill: #ff0000; stroke: #ff0000"/>
     <use xlink:href="#m893166a83b" x="192.231735" y="220.262973" style="fill: #ff0000; stroke: #ff0000"/>
     <use xlink:href="#m893166a83b" x="190.231889" y="220.377628" style="fill: #ff0000; stroke: #ff0000"/>
     <use xlink:href="#m893166a83b" x="188.320991" y="220.471749" style="fill: #ff0000; stroke: #ff0000"/>
     <use xlink:href="#m893166a83b" x="186.472357" y="220.553248" style="fill: #ff0000; stroke: #ff0000"/>
     <use xlink:href="#m893166a83b" x="184.669679" y="220.625764" style="fill: #ff0000; stroke: #ff0000"/>
     <use xlink:href="#m893166a83b" x="182.899615" y="220.693573" style="fill: #ff0000; stroke: #ff0000"/>
     <use xlink:href="#m893166a83b" x="181.154753" y="220.760741" style="fill: #ff0000; stroke: #ff0000"/>
     <use xlink:href="#m893166a83b" x="179.426198" y="220.820635" style="fill: #ff0000; stroke: #ff0000"/>
     <use xlink:href="#m893166a83b" x="177.712468" y="220.876466" style="fill: #ff0000; stroke: #ff0000"/>
     <use xlink:href="#m893166a83b" x="176.00615" y="220.927804" style="fill: #ff0000; stroke: #ff0000"/>
     <use xlink:href="#m893166a83b" x="174.307245" y="220.97572" style="fill: #ff0000; stroke: #ff0000"/>
     <use xlink:href="#m893166a83b" x="172.611305" y="221.020641" style="fill: #ff0000; stroke: #ff0000"/>
     <use xlink:href="#m893166a83b" x="170.918329" y="221.063423" style="fill: #ff0000; stroke: #ff0000"/>
     <use xlink:href="#m893166a83b" x="169.225353" y="221.103638" style="fill: #ff0000; stroke: #ff0000"/>
     <use xlink:href="#m893166a83b" x="167.530895" y="221.141928" style="fill: #ff0000; stroke: #ff0000"/>
     <use xlink:href="#m893166a83b" x="165.834955" y="221.176581" style="fill: #ff0000; stroke: #ff0000"/>
     <use xlink:href="#m893166a83b" x="164.134567" y="221.208026" style="fill: #ff0000; stroke: #ff0000"/>
     <use xlink:href="#m893166a83b" x="162.428249" y="221.23669" style="fill: #ff0000; stroke: #ff0000"/>
     <use xlink:href="#m893166a83b" x="160.716002" y="221.263001" style="fill: #ff0000; stroke: #ff0000"/>
     <use xlink:href="#m893166a83b" x="158.996342" y="221.286745" style="fill: #ff0000; stroke: #ff0000"/>
     <use xlink:href="#m893166a83b" x="157.267787" y="221.308349" style="fill: #ff0000; stroke: #ff0000"/>
     <use xlink:href="#m893166a83b" x="155.530337" y="221.327601" style="fill: #ff0000; stroke: #ff0000"/>
     <use xlink:href="#m893166a83b" x="153.782511" y="221.344928" style="fill: #ff0000; stroke: #ff0000"/>
     <use xlink:href="#m893166a83b" x="152.025789" y="221.359688" style="fill: #ff0000; stroke: #ff0000"/>
     <use xlink:href="#m893166a83b" x="150.260173" y="221.371667" style="fill: #ff0000; stroke: #ff0000"/>
     <use xlink:href="#m893166a83b" x="148.484179" y="221.381293" style="fill: #ff0000; stroke: #ff0000"/>
     <use xlink:href="#m893166a83b" x="146.697808" y="221.389207" style="fill: #ff0000; stroke: #ff0000"/>
     <use xlink:href="#m893166a83b" x="144.904025" y="221.395197" style="fill: #ff0000; stroke: #ff0000"/>
     <use xlink:href="#m893166a83b" x="143.099865" y="221.400117" style="fill: #ff0000; stroke: #ff0000"/>
     <use xlink:href="#m893166a83b" x="141.289774" y="221.403539" style="fill: #ff0000; stroke: #ff0000"/>
     <use xlink:href="#m893166a83b" x="139.472272" y="221.40632" style="fill: #ff0000; stroke: #ff0000"/>
     <use xlink:href="#m893166a83b" x="137.647357" y="221.408245" style="fill: #ff0000; stroke: #ff0000"/>
     <use xlink:href="#m893166a83b" x="135.816512" y="221.409743" style="fill: #ff0000; stroke: #ff0000"/>
     <use xlink:href="#m893166a83b" x="133.981219" y="221.410384" style="fill: #ff0000; stroke: #ff0000"/>
     <use xlink:href="#m893166a83b" x="132.139997" y="221.41124" style="fill: #ff0000; stroke: #ff0000"/>
     <use xlink:href="#m893166a83b" x="130.294328" y="221.411668" style="fill: #ff0000; stroke: #ff0000"/>
     <use xlink:href="#m893166a83b" x="128.444211" y="221.411882" style="fill: #ff0000; stroke: #ff0000"/>
     <use xlink:href="#m893166a83b" x="126.588164" y="221.412096" style="fill: #ff0000; stroke: #ff0000"/>
     <use xlink:href="#m893166a83b" x="124.729153" y="221.412309" style="fill: #ff0000; stroke: #ff0000"/>
     <use xlink:href="#m893166a83b" x="122.867176" y="221.412523" style="fill: #ff0000; stroke: #ff0000"/>
     <use xlink:href="#m893166a83b" x="120.999269" y="221.413165" style="fill: #ff0000; stroke: #ff0000"/>
     <use xlink:href="#m893166a83b" x="119.126916" y="221.414021" style="fill: #ff0000; stroke: #ff0000"/>
     <use xlink:href="#m893166a83b" x="117.250114" y="221.414876" style="fill: #ff0000; stroke: #ff0000"/>
     <use xlink:href="#m893166a83b" x="115.367383" y="221.415518" style="fill: #ff0000; stroke: #ff0000"/>
     <use xlink:href="#m893166a83b" x="113.480205" y="221.415946" style="fill: #ff0000; stroke: #ff0000"/>
     <use xlink:href="#m893166a83b" x="111.585614" y="221.416588" style="fill: #ff0000; stroke: #ff0000"/>
     <use xlink:href="#m893166a83b" x="109.683611" y="221.416588" style="fill: #ff0000; stroke: #ff0000"/>
     <use xlink:href="#m893166a83b" x="107.775678" y="221.416588" style="fill: #ff0000; stroke: #ff0000"/>
     <use xlink:href="#m893166a83b" x="105.85885" y="221.41616" style="fill: #ff0000; stroke: #ff0000"/>
     <use xlink:href="#m893166a83b" x="103.933127" y="221.415518" style="fill: #ff0000; stroke: #ff0000"/>
     <use xlink:href="#m893166a83b" x="101.99851" y="221.414449" style="fill: #ff0000; stroke: #ff0000"/>
     <use xlink:href="#m893166a83b" x="100.052032" y="221.413165" style="fill: #ff0000; stroke: #ff0000"/>
     <use xlink:href="#m893166a83b" x="98.095178" y="221.411454" style="fill: #ff0000; stroke: #ff0000"/>
     <use xlink:href="#m893166a83b" x="96.126464" y="221.409101" style="fill: #ff0000; stroke: #ff0000"/>
     <use xlink:href="#m893166a83b" x="94.14589" y="221.406534" style="fill: #ff0000; stroke: #ff0000"/>
     <use xlink:href="#m893166a83b" x="92.149009" y="221.403539" style="fill: #ff0000; stroke: #ff0000"/>
     <use xlink:href="#m893166a83b" x="90.140268" y="221.399903" style="fill: #ff0000; stroke: #ff0000"/>
     <use xlink:href="#m893166a83b" x="88.113738" y="221.395838" style="fill: #ff0000; stroke: #ff0000"/>
     <use xlink:href="#m893166a83b" x="86.072383" y="221.391774" style="fill: #ff0000; stroke: #ff0000"/>
     <use xlink:href="#m893166a83b" x="84.013239" y="221.387282" style="fill: #ff0000; stroke: #ff0000"/>
     <use xlink:href="#m893166a83b" x="81.936305" y="221.382362" style="fill: #ff0000; stroke: #ff0000"/>
     <use xlink:href="#m893166a83b" x="79.841581" y="221.377228" style="fill: #ff0000; stroke: #ff0000"/>
     <use xlink:href="#m893166a83b" x="77.726103" y="221.371453" style="fill: #ff0000; stroke: #ff0000"/>
     <use xlink:href="#m893166a83b" x="75.591352" y="221.365677" style="fill: #ff0000; stroke: #ff0000"/>
     <use xlink:href="#m893166a83b" x="73.432883" y="221.359474" style="fill: #ff0000; stroke: #ff0000"/>
     <use xlink:href="#m893166a83b" x="71.253658" y="221.352629" style="fill: #ff0000; stroke: #ff0000"/>
     <use xlink:href="#m893166a83b" x="69.052197" y="221.346211" style="fill: #ff0000; stroke: #ff0000"/>
     <use xlink:href="#m893166a83b" x="66.825534" y="221.339152" style="fill: #ff0000; stroke: #ff0000"/>
     <use xlink:href="#m893166a83b" x="64.573669" y="221.332735" style="fill: #ff0000; stroke: #ff0000"/>
     <use xlink:href="#m893166a83b" x="62.298085" y="221.325034" style="fill: #ff0000; stroke: #ff0000"/>
     <use xlink:href="#m893166a83b" x="59.997298" y="221.319259" style="fill: #ff0000; stroke: #ff0000"/>
     <use xlink:href="#m893166a83b" x="57.669827" y="221.310275" style="fill: #ff0000; stroke: #ff0000"/>
     <use xlink:href="#m893166a83b" x="55.297883" y="221.30728" style="fill: #ff0000; stroke: #ff0000"/>
     <use xlink:href="#m893166a83b" x="52.911113" y="221.295515" style="fill: #ff0000; stroke: #ff0000"/>
     <use xlink:href="#m893166a83b" x="50.47987" y="221.299151" style="fill: #ff0000; stroke: #ff0000"/>
     <use xlink:href="#m893166a83b" x="48.004153" y="221.280113" style="fill: #ff0000; stroke: #ff0000"/>
     <use xlink:href="#m893166a83b" x="45.424663" y="221.314339" style="fill: #ff0000; stroke: #ff0000"/>
     <use xlink:href="#m893166a83b" x="42.54868" y="221.267065" style="fill: #ff0000; stroke: #ff0000"/>
     <use xlink:href="#m893166a83b" x="209.94868" y="219.734616" style="fill: #ff0000; stroke: #ff0000"/>
     <use xlink:href="#m893166a83b" x="210.385824" y="219.734616" style="fill: #ff0000; stroke: #ff0000"/>
     <use xlink:href="#m893166a83b" x="210.879681" y="219.993661" style="fill: #ff0000; stroke: #ff0000"/>
     <use xlink:href="#m893166a83b" x="211.456914" y="219.415677" style="fill: #ff0000; stroke: #ff0000"/>
     <use xlink:href="#m893166a83b" x="212.085716" y="219.251822" style="fill: #ff0000; stroke: #ff0000"/>
     <use xlink:href="#m893166a83b" x="212.749859" y="218.667207" style="fill: #ff0000; stroke: #ff0000"/>
     <use xlink:href="#m893166a83b" x="213.461243" y="218.611804" style="fill: #ff0000; stroke: #ff0000"/>
     <use xlink:href="#m893166a83b" x="214.237659" y="218.464421" style="fill: #ff0000; stroke: #ff0000"/>
     <use xlink:href="#m893166a83b" x="215.097979" y="218.459501" style="fill: #ff0000; stroke: #ff0000"/>
     <use xlink:href="#m893166a83b" x="216.061436" y="218.47918" style="fill: #ff0000; stroke: #ff0000"/>
     <use xlink:href="#m893166a83b" x="217.145461" y="218.525813" style="fill: #ff0000; stroke: #ff0000"/>
     <use xlink:href="#m893166a83b" x="218.362435" y="218.580146" style="fill: #ff0000; stroke: #ff0000"/>
     <use xlink:href="#m893166a83b" x="219.71368" y="218.632981" style="fill: #ff0000; stroke: #ff0000"/>
     <use xlink:href="#m893166a83b" x="221.187054" y="218.687742" style="fill: #ff0000; stroke: #ff0000"/>
     <use xlink:href="#m893166a83b" x="222.759119" y="218.72154" style="fill: #ff0000; stroke: #ff0000"/>
     <use xlink:href="#m893166a83b" x="224.402346" y="219.138664" style="fill: #ff0000; stroke: #ff0000"/>
     <use xlink:href="#m893166a83b" x="226.093656" y="219.884995" style="fill: #ff0000; stroke: #ff0000"/>
     <use xlink:href="#m893166a83b" x="227.816219" y="220.319231" style="fill: #ff0000; stroke: #ff0000"/>
     <use xlink:href="#m893166a83b" x="229.55441" y="220.479022" style="fill: #ff0000; stroke: #ff0000"/>
     <use xlink:href="#m893166a83b" x="231.302217" y="220.546189" style="fill: #ff0000; stroke: #ff0000"/>
     <use xlink:href="#m893166a83b" x="233.051226" y="220.588757" style="fill: #ff0000; stroke: #ff0000"/>
     <use xlink:href="#m893166a83b" x="234.797831" y="220.625336" style="fill: #ff0000; stroke: #ff0000"/>
     <use xlink:href="#m893166a83b" x="236.538425" y="220.659989" style="fill: #ff0000; stroke: #ff0000"/>
     <use xlink:href="#m893166a83b" x="238.271808" y="220.689081" style="fill: #ff0000; stroke: #ff0000"/>
     <use xlink:href="#m893166a83b" x="239.996775" y="220.711755" style="fill: #ff0000; stroke: #ff0000"/>
     <use xlink:href="#m893166a83b" x="241.710924" y="220.735285" style="fill: #ff0000; stroke: #ff0000"/>
     <use xlink:href="#m893166a83b" x="243.414255" y="220.751115" style="fill: #ff0000; stroke: #ff0000"/>
     <use xlink:href="#m893166a83b" x="245.106767" y="220.762452" style="fill: #ff0000; stroke: #ff0000"/>
     <use xlink:href="#m893166a83b" x="246.78846" y="220.770367" style="fill: #ff0000; stroke: #ff0000"/>
     <use xlink:href="#m893166a83b" x="248.459335" y="220.77657" style="fill: #ff0000; stroke: #ff0000"/>
     <use xlink:href="#m893166a83b" x="250.119391" y="220.782346" style="fill: #ff0000; stroke: #ff0000"/>
     <use xlink:href="#m893166a83b" x="251.76983" y="220.787693" style="fill: #ff0000; stroke: #ff0000"/>
     <use xlink:href="#m893166a83b" x="253.410653" y="220.793041" style="fill: #ff0000; stroke: #ff0000"/>
     <use xlink:href="#m893166a83b" x="255.044263" y="220.798817" style="fill: #ff0000; stroke: #ff0000"/>
     <use xlink:href="#m893166a83b" x="256.669459" y="220.805234" style="fill: #ff0000; stroke: #ff0000"/>
     <use xlink:href="#m893166a83b" x="258.287443" y="220.811651" style="fill: #ff0000; stroke: #ff0000"/>
     <use xlink:href="#m893166a83b" x="259.899416" y="220.818496" style="fill: #ff0000; stroke: #ff0000"/>
     <use xlink:href="#m893166a83b" x="261.505379" y="220.825341" style="fill: #ff0000; stroke: #ff0000"/>
     <use xlink:href="#m893166a83b" x="263.108938" y="220.832614" style="fill: #ff0000; stroke: #ff0000"/>
     <use xlink:href="#m893166a83b" x="264.708891" y="220.839459" style="fill: #ff0000; stroke: #ff0000"/>
     <use xlink:href="#m893166a83b" x="266.307641" y="220.846518" style="fill: #ff0000; stroke: #ff0000"/>
     <use xlink:href="#m893166a83b" x="267.90519" y="220.852936" style="fill: #ff0000; stroke: #ff0000"/>
     <use xlink:href="#m893166a83b" x="269.50394" y="220.859139" style="fill: #ff0000; stroke: #ff0000"/>
     <use xlink:href="#m893166a83b" x="271.105095" y="220.864915" style="fill: #ff0000; stroke: #ff0000"/>
     <use xlink:href="#m893166a83b" x="272.709856" y="220.870049" style="fill: #ff0000; stroke: #ff0000"/>
     <use xlink:href="#m893166a83b" x="274.320627" y="220.874541" style="fill: #ff0000; stroke: #ff0000"/>
     <use xlink:href="#m893166a83b" x="275.938611" y="220.878605" style="fill: #ff0000; stroke: #ff0000"/>
     <use xlink:href="#m893166a83b" x="277.565009" y="220.881814" style="fill: #ff0000; stroke: #ff0000"/>
     <use xlink:href="#m893166a83b" x="279.202226" y="220.884594" style="fill: #ff0000; stroke: #ff0000"/>
     <use xlink:href="#m893166a83b" x="280.852665" y="220.886733" style="fill: #ff0000; stroke: #ff0000"/>
     <use xlink:href="#m893166a83b" x="282.517529" y="220.888659" style="fill: #ff0000; stroke: #ff0000"/>
     <use xlink:href="#m893166a83b" x="284.199223" y="220.890156" style="fill: #ff0000; stroke: #ff0000"/>
     <use xlink:href="#m893166a83b" x="285.898947" y="220.891226" style="fill: #ff0000; stroke: #ff0000"/>
     <use xlink:href="#m893166a83b" x="287.62151" y="220.892509" style="fill: #ff0000; stroke: #ff0000"/>
     <use xlink:href="#m893166a83b" x="289.365711" y="220.893579" style="fill: #ff0000; stroke: #ff0000"/>
     <use xlink:href="#m893166a83b" x="291.136357" y="220.895076" style="fill: #ff0000; stroke: #ff0000"/>
     <use xlink:href="#m893166a83b" x="292.933449" y="220.896787" style="fill: #ff0000; stroke: #ff0000"/>
     <use xlink:href="#m893166a83b" x="294.760593" y="220.898926" style="fill: #ff0000; stroke: #ff0000"/>
     <use xlink:href="#m893166a83b" x="296.620192" y="220.901707" style="fill: #ff0000; stroke: #ff0000"/>
     <use xlink:href="#m893166a83b" x="298.513449" y="220.904916" style="fill: #ff0000; stroke: #ff0000"/>
     <use xlink:href="#m893166a83b" x="300.442768" y="220.90898" style="fill: #ff0000; stroke: #ff0000"/>
     <use xlink:href="#m893166a83b" x="302.40815" y="220.913686" style="fill: #ff0000; stroke: #ff0000"/>
     <use xlink:href="#m893166a83b" x="304.414401" y="220.919034" style="fill: #ff0000; stroke: #ff0000"/>
     <use xlink:href="#m893166a83b" x="306.462725" y="220.925023" style="fill: #ff0000; stroke: #ff0000"/>
     <use xlink:href="#m893166a83b" x="308.553122" y="220.931441" style="fill: #ff0000; stroke: #ff0000"/>
     <use xlink:href="#m893166a83b" x="310.689197" y="220.938286" style="fill: #ff0000; stroke: #ff0000"/>
     <use xlink:href="#m893166a83b" x="312.87095" y="220.945345" style="fill: #ff0000; stroke: #ff0000"/>
     <use xlink:href="#m893166a83b" x="315.100786" y="220.952618" style="fill: #ff0000; stroke: #ff0000"/>
     <use xlink:href="#m893166a83b" x="317.378705" y="220.959677" style="fill: #ff0000; stroke: #ff0000"/>
     <use xlink:href="#m893166a83b" x="319.707111" y="220.966736" style="fill: #ff0000; stroke: #ff0000"/>
     <use xlink:href="#m893166a83b" x="322.087206" y="220.973367" style="fill: #ff0000; stroke: #ff0000"/>
     <use xlink:href="#m893166a83b" x="324.521394" y="220.979356" style="fill: #ff0000; stroke: #ff0000"/>
     <use xlink:href="#m893166a83b" x="327.009675" y="220.984918" style="fill: #ff0000; stroke: #ff0000"/>
     <use xlink:href="#m893166a83b" x="329.553251" y="220.989624" style="fill: #ff0000; stroke: #ff0000"/>
     <use xlink:href="#m893166a83b" x="332.15092" y="220.993474" style="fill: #ff0000; stroke: #ff0000"/>
     <use xlink:href="#m893166a83b" x="334.819511" y="220.996255" style="fill: #ff0000; stroke: #ff0000"/>
     <use xlink:href="#m893166a83b" x="337.536185" y="220.99818" style="fill: #ff0000; stroke: #ff0000"/>
     <use xlink:href="#m893166a83b" x="340.312962" y="220.998822" style="fill: #ff0000; stroke: #ff0000"/>
     <use xlink:href="#m893166a83b" x="343.161864" y="220.99818" style="fill: #ff0000; stroke: #ff0000"/>
     <use xlink:href="#m893166a83b" x="346.058848" y="220.995827" style="fill: #ff0000; stroke: #ff0000"/>
     <use xlink:href="#m893166a83b" x="349.015935" y="220.991977" style="fill: #ff0000; stroke: #ff0000"/>
     <use xlink:href="#m893166a83b" x="352.033126" y="220.985132" style="fill: #ff0000; stroke: #ff0000"/>
     <use xlink:href="#m893166a83b" x="355.086379" y="220.976789" style="fill: #ff0000; stroke: #ff0000"/>
     <use xlink:href="#m893166a83b" x="358.175694" y="220.963099" style="fill: #ff0000; stroke: #ff0000"/>
     <use xlink:href="#m893166a83b" x="361.301071" y="220.947056" style="fill: #ff0000; stroke: #ff0000"/>
     <use xlink:href="#m893166a83b" x="364.438469" y="220.922029" style="fill: #ff0000; stroke: #ff0000"/>
     <use xlink:href="#m893166a83b" x="367.599908" y="220.89529" style="fill: #ff0000; stroke: #ff0000"/>
     <use xlink:href="#m893166a83b" x="370.761347" y="220.851224" style="fill: #ff0000; stroke: #ff0000"/>
     <use xlink:href="#m893166a83b" x="373.970868" y="220.81379" style="fill: #ff0000; stroke: #ff0000"/>
     <use xlink:href="#m893166a83b" x="377.34868" y="220.738066" style="fill: #ff0000; stroke: #ff0000"/>
    </g>
   </g>
   <g id="matplotlib.axis_1">
    <g id="xtick_1">
     <g id="line2d_1">
      <defs>
       <path id="m1e42a5358a" d="M 0 0 
L 0 3.5 
" style="stroke: #000000; stroke-width: 0.8"/>
      </defs>
      <g>
       <use xlink:href="#m1e42a5358a" x="42.54868" y="231.496588" style="stroke: #000000; stroke-width: 0.8"/>
      </g>
     </g>
     <g id="text_1">
      <!-- $\mathdefault{−1.00}$ -->
      <g transform="translate(29.818601 245.594908) scale(0.1 -0.1)">
       <defs>
        <path id="CMSY10-0" d="M 4218 1472 
C 4326 1472 4442 1472 4442 1600 
C 4442 1728 4326 1728 4218 1728 
L 755 1728 
C 646 1728 531 1728 531 1600 
C 531 1472 646 1472 755 1472 
L 4218 1472 
z
" transform="scale(0.015625)"/>
        <path id="CMR17-31" d="M 1702 4083 
C 1702 4217 1696 4224 1606 4224 
C 1357 3927 979 3833 621 3820 
C 602 3820 570 3820 563 3808 
C 557 3795 557 3782 557 3648 
C 755 3648 1088 3686 1344 3839 
L 1344 467 
C 1344 243 1331 166 781 166 
L 589 166 
L 589 0 
C 896 6 1216 12 1523 12 
C 1830 12 2150 6 2458 0 
L 2458 166 
L 2266 166 
C 1715 166 1702 236 1702 467 
L 1702 4083 
z
" transform="scale(0.015625)"/>
        <path id="CMMI12-3a" d="M 1178 307 
C 1178 492 1024 620 870 620 
C 685 620 557 467 557 313 
C 557 128 710 0 864 0 
C 1050 0 1178 153 1178 307 
z
" transform="scale(0.015625)"/>
        <path id="CMR17-30" d="M 2688 2038 
C 2688 2430 2682 3099 2413 3613 
C 2176 4063 1798 4224 1466 4224 
C 1158 4224 768 4082 525 3620 
C 269 3137 243 2539 243 2038 
C 243 1671 250 1112 448 623 
C 723 -39 1216 -128 1466 -128 
C 1760 -128 2208 -7 2470 604 
C 2662 1048 2688 1568 2688 2038 
z
M 1466 -26 
C 1056 -26 813 328 723 816 
C 653 1196 653 1749 653 2109 
C 653 2604 653 3015 736 3407 
C 858 3954 1216 4121 1466 4121 
C 1728 4121 2067 3947 2189 3420 
C 2272 3054 2278 2623 2278 2109 
C 2278 1691 2278 1176 2202 797 
C 2067 96 1690 -26 1466 -26 
z
" transform="scale(0.015625)"/>
       </defs>
       <use xlink:href="#CMSY10-0" transform="scale(0.996264)"/>
       <use xlink:href="#CMR17-31" transform="translate(77.487468 0) scale(0.996264)"/>
       <use xlink:href="#CMMI12-3a" transform="translate(123.177945 0) scale(0.996264)"/>
       <use xlink:href="#CMR17-30" transform="translate(150.275122 0) scale(0.996264)"/>
       <use xlink:href="#CMR17-30" transform="translate(195.965599 0) scale(0.996264)"/>
      </g>
     </g>
    </g>
    <g id="xtick_2">
     <g id="line2d_2">
      <g>
       <use xlink:href="#m1e42a5358a" x="84.39868" y="231.496588" style="stroke: #000000; stroke-width: 0.8"/>
      </g>
     </g>
     <g id="text_2">
      <!-- $\mathdefault{−0.75}$ -->
      <g transform="translate(71.668601 245.594908) scale(0.1 -0.1)">
       <defs>
        <path id="CMR17-37" d="M 2886 3955 
L 2886 4096 
L 1382 4096 
C 634 4096 621 4166 595 4288 
L 480 4288 
L 294 3104 
L 410 3104 
C 429 3226 474 3552 550 3673 
C 589 3724 1062 3724 1171 3724 
L 2579 3724 
L 1869 2670 
C 1395 1961 1069 1003 1069 166 
C 1069 89 1069 -128 1299 -128 
C 1530 -128 1530 89 1530 172 
L 1530 466 
C 1530 1514 1709 2204 2003 2644 
L 2886 3955 
z
" transform="scale(0.015625)"/>
        <path id="CMR17-35" d="M 730 3750 
C 794 3724 1056 3641 1325 3641 
C 1920 3641 2246 3961 2432 4140 
C 2432 4191 2432 4224 2394 4224 
C 2387 4224 2374 4224 2323 4198 
C 2099 4102 1837 4032 1517 4032 
C 1325 4032 1037 4055 723 4191 
C 653 4224 640 4224 634 4224 
C 602 4224 595 4217 595 4090 
L 595 2231 
C 595 2113 595 2080 659 2080 
C 691 2080 704 2093 736 2139 
C 941 2435 1222 2560 1542 2560 
C 1766 2560 2246 2415 2246 1293 
C 2246 1087 2246 716 2054 422 
C 1894 159 1645 25 1370 25 
C 947 25 518 319 403 812 
C 429 806 480 793 506 793 
C 589 793 749 838 749 1036 
C 749 1209 627 1280 506 1280 
C 358 1280 262 1190 262 1011 
C 262 454 704 -128 1382 -128 
C 2042 -128 2669 441 2669 1267 
C 2669 2054 2170 2662 1549 2662 
C 1222 2662 947 2540 730 2304 
L 730 3750 
z
" transform="scale(0.015625)"/>
       </defs>
       <use xlink:href="#CMSY10-0" transform="scale(0.996264)"/>
       <use xlink:href="#CMR17-30" transform="translate(77.487468 0) scale(0.996264)"/>
       <use xlink:href="#CMMI12-3a" transform="translate(123.177945 0) scale(0.996264)"/>
       <use xlink:href="#CMR17-37" transform="translate(150.275122 0) scale(0.996264)"/>
       <use xlink:href="#CMR17-35" transform="translate(195.965599 0) scale(0.996264)"/>
      </g>
     </g>
    </g>
    <g id="xtick_3">
     <g id="line2d_3">
      <g>
       <use xlink:href="#m1e42a5358a" x="126.24868" y="231.496588" style="stroke: #000000; stroke-width: 0.8"/>
      </g>
     </g>
     <g id="text_3">
      <!-- $\mathdefault{−0.50}$ -->
      <g transform="translate(113.518601 245.594908) scale(0.1 -0.1)">
       <use xlink:href="#CMSY10-0" transform="scale(0.996264)"/>
       <use xlink:href="#CMR17-30" transform="translate(77.487468 0) scale(0.996264)"/>
       <use xlink:href="#CMMI12-3a" transform="translate(123.177945 0) scale(0.996264)"/>
       <use xlink:href="#CMR17-35" transform="translate(150.275122 0) scale(0.996264)"/>
       <use xlink:href="#CMR17-30" transform="translate(195.965599 0) scale(0.996264)"/>
      </g>
     </g>
    </g>
    <g id="xtick_4">
     <g id="line2d_4">
      <g>
       <use xlink:href="#m1e42a5358a" x="168.09868" y="231.496588" style="stroke: #000000; stroke-width: 0.8"/>
      </g>
     </g>
     <g id="text_4">
      <!-- $\mathdefault{−0.25}$ -->
      <g transform="translate(155.368601 245.594908) scale(0.1 -0.1)">
       <defs>
        <path id="CMR17-32" d="M 2669 990 
L 2554 990 
C 2490 537 2438 460 2413 422 
C 2381 371 1920 371 1830 371 
L 602 371 
C 832 620 1280 1073 1824 1596 
C 2214 1966 2669 2400 2669 3033 
C 2669 3788 2067 4224 1395 4224 
C 691 4224 262 3603 262 3027 
C 262 2777 448 2745 525 2745 
C 589 2745 781 2783 781 3007 
C 781 3206 614 3264 525 3264 
C 486 3264 448 3257 422 3244 
C 544 3788 915 4057 1306 4057 
C 1862 4057 2227 3616 2227 3033 
C 2227 2477 1901 1998 1536 1583 
L 262 147 
L 262 0 
L 2515 0 
L 2669 990 
z
" transform="scale(0.015625)"/>
       </defs>
       <use xlink:href="#CMSY10-0" transform="scale(0.996264)"/>
       <use xlink:href="#CMR17-30" transform="translate(77.487468 0) scale(0.996264)"/>
       <use xlink:href="#CMMI12-3a" transform="translate(123.177945 0) scale(0.996264)"/>
       <use xlink:href="#CMR17-32" transform="translate(150.275122 0) scale(0.996264)"/>
       <use xlink:href="#CMR17-35" transform="translate(195.965599 0) scale(0.996264)"/>
      </g>
     </g>
    </g>
    <g id="xtick_5">
     <g id="line2d_5">
      <g>
       <use xlink:href="#m1e42a5358a" x="209.94868" y="231.496588" style="stroke: #000000; stroke-width: 0.8"/>
      </g>
     </g>
     <g id="text_5">
      <!-- $\mathdefault{0.00}$ -->
      <g transform="translate(201.092973 245.594908) scale(0.1 -0.1)">
       <use xlink:href="#CMR17-30" transform="scale(0.996264)"/>
       <use xlink:href="#CMMI12-3a" transform="translate(45.690477 0) scale(0.996264)"/>
       <use xlink:href="#CMR17-30" transform="translate(72.787654 0) scale(0.996264)"/>
       <use xlink:href="#CMR17-30" transform="translate(118.478131 0) scale(0.996264)"/>
      </g>
     </g>
    </g>
    <g id="xtick_6">
     <g id="line2d_6">
      <g>
       <use xlink:href="#m1e42a5358a" x="251.79868" y="231.496588" style="stroke: #000000; stroke-width: 0.8"/>
      </g>
     </g>
     <g id="text_6">
      <!-- $\mathdefault{0.25}$ -->
      <g transform="translate(242.942973 245.594908) scale(0.1 -0.1)">
       <use xlink:href="#CMR17-30" transform="scale(0.996264)"/>
       <use xlink:href="#CMMI12-3a" transform="translate(45.690477 0) scale(0.996264)"/>
       <use xlink:href="#CMR17-32" transform="translate(72.787654 0) scale(0.996264)"/>
       <use xlink:href="#CMR17-35" transform="translate(118.478131 0) scale(0.996264)"/>
      </g>
     </g>
    </g>
    <g id="xtick_7">
     <g id="line2d_7">
      <g>
       <use xlink:href="#m1e42a5358a" x="293.64868" y="231.496588" style="stroke: #000000; stroke-width: 0.8"/>
      </g>
     </g>
     <g id="text_7">
      <!-- $\mathdefault{0.50}$ -->
      <g transform="translate(284.792973 245.594908) scale(0.1 -0.1)">
       <use xlink:href="#CMR17-30" transform="scale(0.996264)"/>
       <use xlink:href="#CMMI12-3a" transform="translate(45.690477 0) scale(0.996264)"/>
       <use xlink:href="#CMR17-35" transform="translate(72.787654 0) scale(0.996264)"/>
       <use xlink:href="#CMR17-30" transform="translate(118.478131 0) scale(0.996264)"/>
      </g>
     </g>
    </g>
    <g id="xtick_8">
     <g id="line2d_8">
      <g>
       <use xlink:href="#m1e42a5358a" x="335.49868" y="231.496588" style="stroke: #000000; stroke-width: 0.8"/>
      </g>
     </g>
     <g id="text_8">
      <!-- $\mathdefault{0.75}$ -->
      <g transform="translate(326.642973 245.594908) scale(0.1 -0.1)">
       <use xlink:href="#CMR17-30" transform="scale(0.996264)"/>
       <use xlink:href="#CMMI12-3a" transform="translate(45.690477 0) scale(0.996264)"/>
       <use xlink:href="#CMR17-37" transform="translate(72.787654 0) scale(0.996264)"/>
       <use xlink:href="#CMR17-35" transform="translate(118.478131 0) scale(0.996264)"/>
      </g>
     </g>
    </g>
    <g id="xtick_9">
     <g id="line2d_9">
      <g>
       <use xlink:href="#m1e42a5358a" x="377.34868" y="231.496588" style="stroke: #000000; stroke-width: 0.8"/>
      </g>
     </g>
     <g id="text_9">
      <!-- $\mathdefault{1.00}$ -->
      <g transform="translate(368.492973 245.594908) scale(0.1 -0.1)">
       <use xlink:href="#CMR17-31" transform="scale(0.996264)"/>
       <use xlink:href="#CMMI12-3a" transform="translate(45.690477 0) scale(0.996264)"/>
       <use xlink:href="#CMR17-30" transform="translate(72.787654 0) scale(0.996264)"/>
       <use xlink:href="#CMR17-30" transform="translate(118.478131 0) scale(0.996264)"/>
      </g>
     </g>
    </g>
    <g id="text_10">
     <!-- S/S_{total} -->
     <g transform="translate(190.711136 258.815215) scale(0.1 -0.1)">
      <defs>
       <path id="NimbusSanL-Regu-53" d="M 3814 3295 
C 3808 4204 3181 4736 2106 4736 
C 1082 4736 448 4211 448 3372 
C 448 2806 749 2450 1363 2291 
L 2522 1986 
C 3110 1833 3379 1598 3379 1236 
C 3379 988 3245 733 3046 593 
C 2861 466 2566 396 2189 396 
C 1683 396 1338 517 1114 784 
C 941 988 864 1210 870 1496 
L 307 1496 
C 314 1070 397 790 582 536 
C 902 102 1440 -128 2150 -128 
C 2707 -128 3162 0 3462 230 
C 3776 479 3974 892 3974 1293 
C 3974 1865 3616 2284 2982 2456 
L 1811 2768 
C 1248 2920 1043 3098 1043 3454 
C 1043 3925 1459 4236 2086 4236 
C 2829 4236 3245 3899 3251 3295 
L 3814 3295 
z
" transform="scale(0.015625)"/>
       <path id="NimbusSanL-Regu-2f" d="M 1466 4672 
L -51 -128 
L 301 -128 
L 1818 4672 
L 1466 4672 
z
" transform="scale(0.015625)"/>
       <path id="NimbusSanL-Regu-74" d="M 1626 3328 
L 1075 3328 
L 1075 4249 
L 544 4249 
L 544 3328 
L 90 3328 
L 90 2892 
L 544 2892 
L 544 402 
C 544 64 774 -128 1190 -128 
C 1318 -128 1446 -116 1626 -84 
L 1626 364 
C 1555 345 1472 339 1370 339 
C 1139 339 1075 402 1075 634 
L 1075 2892 
L 1626 2892 
L 1626 3328 
z
" transform="scale(0.015625)"/>
       <path id="NimbusSanL-Regu-6f" d="M 1741 3456 
C 800 3456 230 2784 230 1663 
C 230 543 794 -128 1747 -128 
C 2688 -128 3264 543 3264 1638 
C 3264 2791 2707 3456 1741 3456 
z
M 1747 2963 
C 2349 2963 2707 2472 2707 1644 
C 2707 861 2336 364 1747 364 
C 1152 364 787 855 787 1663 
C 787 2466 1152 2963 1747 2963 
z
" transform="scale(0.015625)"/>
       <path id="NimbusSanL-Regu-61" d="M 3424 332 
C 3366 320 3341 320 3309 320 
C 3123 320 3021 415 3021 581 
L 3021 2542 
C 3021 3135 2586 3456 1760 3456 
C 1274 3456 870 3315 646 3065 
C 493 2893 429 2702 416 2370 
L 954 2370 
C 998 2778 1242 2963 1741 2963 
C 2221 2963 2490 2784 2490 2466 
L 2490 2326 
C 2490 2103 2355 2007 1933 1956 
C 1178 1861 1062 1835 858 1753 
C 467 1593 269 1294 269 861 
C 269 256 691 -128 1370 -128 
C 1792 -128 2131 19 2509 364 
C 2547 25 2714 -128 3059 -128 
C 3168 -128 3251 -116 3424 -71 
L 3424 332 
z
M 2490 1071 
C 2490 893 2438 785 2278 638 
C 2061 441 1798 339 1485 339 
C 1069 339 826 536 826 874 
C 826 1224 1062 1402 1632 1485 
C 2195 1562 2310 1587 2490 1670 
L 2490 1071 
z
" transform="scale(0.015625)"/>
       <path id="NimbusSanL-Regu-6c" d="M 973 4672 
L 435 4672 
L 435 0 
L 973 0 
L 973 4672 
z
" transform="scale(0.015625)"/>
      </defs>
      <use xlink:href="#NimbusSanL-Regu-53" transform="scale(0.996264)"/>
      <use xlink:href="#NimbusSanL-Regu-2f" transform="translate(66.450031 0) scale(0.996264)"/>
      <use xlink:href="#NimbusSanL-Regu-53" transform="translate(94.145201 0) scale(0.996264)"/>
      <use xlink:href="#NimbusSanL-Regu-74" transform="translate(196.460797 0) scale(0.996264)"/>
      <use xlink:href="#NimbusSanL-Regu-6f" transform="translate(224.155967 0) scale(0.996264)"/>
      <use xlink:href="#NimbusSanL-Regu-74" transform="translate(279.547644 0) scale(0.996264)"/>
      <use xlink:href="#NimbusSanL-Regu-61" transform="translate(307.242813 0) scale(0.996264)"/>
      <use xlink:href="#NimbusSanL-Regu-6c" transform="translate(362.63449 0) scale(0.996264)"/>
      <path d="M 166.572573 0 
L 196.460797 0 
L 196.460797 0.3985 
L 166.572573 0.3985 
L 166.572573 0 
z
"/>
     </g>
    </g>
   </g>
   <g id="matplotlib.axis_2">
    <g id="ytick_1">
     <g id="line2d_10">
      <defs>
       <path id="md139806815" d="M 0 0 
L -3.5 0 
" style="stroke: #000000; stroke-width: 0.8"/>
      </defs>
      <g>
       <use xlink:href="#md139806815" x="42.54868" y="224.658816" style="stroke: #000000; stroke-width: 0.8"/>
      </g>
     </g>
     <g id="text_11">
      <!-- $\mathdefault{0}$ -->
      <g transform="translate(30.567344 228.207976) scale(0.1 -0.1)">
       <use xlink:href="#CMR17-30" transform="scale(0.996264)"/>
      </g>
     </g>
    </g>
    <g id="ytick_2">
     <g id="line2d_11">
      <g>
       <use xlink:href="#md139806815" x="42.54868" y="181.876885" style="stroke: #000000; stroke-width: 0.8"/>
      </g>
     </g>
     <g id="text_12">
      <!-- $\mathdefault{20}$ -->
      <g transform="translate(25.586009 185.426045) scale(0.1 -0.1)">
       <use xlink:href="#CMR17-32" transform="scale(0.996264)"/>
       <use xlink:href="#CMR17-30" transform="translate(45.690477 0) scale(0.996264)"/>
      </g>
     </g>
    </g>
    <g id="ytick_3">
     <g id="line2d_12">
      <g>
       <use xlink:href="#md139806815" x="42.54868" y="139.094954" style="stroke: #000000; stroke-width: 0.8"/>
      </g>
     </g>
     <g id="text_13">
      <!-- $\mathdefault{40}$ -->
      <g transform="translate(25.586009 142.644114) scale(0.1 -0.1)">
       <defs>
        <path id="CMR17-34" d="M 2150 4147 
C 2150 4281 2144 4288 2029 4288 
L 128 1254 
L 128 1088 
L 1779 1088 
L 1779 460 
C 1779 230 1766 166 1318 166 
L 1197 166 
L 1197 0 
C 1402 12 1747 12 1965 12 
C 2182 12 2528 12 2733 0 
L 2733 166 
L 2611 166 
C 2163 166 2150 230 2150 460 
L 2150 1088 
L 2803 1088 
L 2803 1254 
L 2150 1254 
L 2150 4147 
z
M 1798 3723 
L 1798 1254 
L 256 1254 
L 1798 3723 
z
" transform="scale(0.015625)"/>
       </defs>
       <use xlink:href="#CMR17-34" transform="scale(0.996264)"/>
       <use xlink:href="#CMR17-30" transform="translate(45.690477 0) scale(0.996264)"/>
      </g>
     </g>
    </g>
    <g id="ytick_4">
     <g id="line2d_13">
      <g>
       <use xlink:href="#md139806815" x="42.54868" y="96.313023" style="stroke: #000000; stroke-width: 0.8"/>
      </g>
     </g>
     <g id="text_14">
      <!-- $\mathdefault{60}$ -->
      <g transform="translate(25.586009 99.862183) scale(0.1 -0.1)">
       <defs>
        <path id="CMR17-36" d="M 678 2198 
C 678 3712 1395 4076 1811 4076 
C 1946 4076 2272 4049 2400 3782 
C 2298 3782 2106 3782 2106 3558 
C 2106 3385 2246 3328 2336 3328 
C 2394 3328 2566 3353 2566 3571 
C 2566 3987 2246 4224 1805 4224 
C 1043 4224 243 3411 243 2011 
C 243 257 966 -128 1478 -128 
C 2099 -128 2688 431 2688 1295 
C 2688 2101 2170 2688 1517 2688 
C 1126 2688 838 2430 678 1979 
L 678 2198 
z
M 1478 25 
C 691 25 691 1212 691 1450 
C 691 1914 909 2585 1504 2585 
C 1613 2585 1926 2585 2138 2140 
C 2253 1889 2253 1624 2253 1302 
C 2253 954 2253 696 2118 438 
C 1978 173 1773 25 1478 25 
z
" transform="scale(0.015625)"/>
       </defs>
       <use xlink:href="#CMR17-36" transform="scale(0.996264)"/>
       <use xlink:href="#CMR17-30" transform="translate(45.690477 0) scale(0.996264)"/>
      </g>
     </g>
    </g>
    <g id="ytick_5">
     <g id="line2d_14">
      <g>
       <use xlink:href="#md139806815" x="42.54868" y="53.531091" style="stroke: #000000; stroke-width: 0.8"/>
      </g>
     </g>
     <g id="text_15">
      <!-- $\mathdefault{80}$ -->
      <g transform="translate(25.586009 57.080252) scale(0.1 -0.1)">
       <defs>
        <path id="CMR17-38" d="M 1741 2289 
C 2144 2494 2554 2803 2554 3298 
C 2554 3884 1990 4224 1472 4224 
C 890 4224 378 3800 378 3215 
C 378 3054 416 2777 666 2533 
C 730 2469 998 2276 1171 2154 
C 883 2006 211 1652 211 945 
C 211 282 838 -128 1459 -128 
C 2144 -128 2720 366 2720 1022 
C 2720 1607 2330 1877 2074 2051 
L 1741 2289 
z
M 902 2855 
C 851 2887 595 3086 595 3388 
C 595 3781 998 4076 1459 4076 
C 1965 4076 2336 3716 2336 3298 
C 2336 2700 1670 2359 1638 2359 
C 1632 2359 1626 2359 1574 2398 
L 902 2855 
z
M 2080 1536 
C 2176 1466 2483 1253 2483 861 
C 2483 385 2010 25 1472 25 
C 890 25 448 443 448 951 
C 448 1459 838 1884 1280 2083 
L 2080 1536 
z
" transform="scale(0.015625)"/>
       </defs>
       <use xlink:href="#CMR17-38" transform="scale(0.996264)"/>
       <use xlink:href="#CMR17-30" transform="translate(45.690477 0) scale(0.996264)"/>
      </g>
     </g>
    </g>
    <g id="ytick_6">
     <g id="line2d_15">
      <g>
       <use xlink:href="#md139806815" x="42.54868" y="10.74916" style="stroke: #000000; stroke-width: 0.8"/>
      </g>
     </g>
     <g id="text_16">
      <!-- $\mathdefault{100}$ -->
      <g transform="translate(20.604674 14.29832) scale(0.1 -0.1)">
       <use xlink:href="#CMR17-31" transform="scale(0.996264)"/>
       <use xlink:href="#CMR17-30" transform="translate(45.690477 0) scale(0.996264)"/>
       <use xlink:href="#CMR17-30" transform="translate(91.380954 0) scale(0.996264)"/>
      </g>
     </g>
    </g>
    <g id="text_17">
     <!-- Shape Factor - Blade_1 -->
     <g transform="translate(14.482687 171.998224) rotate(-90) scale(0.1 -0.1)">
      <defs>
       <path id="NimbusSanL-Regu-68" d="M 448 4672 
L 448 0 
L 979 0 
L 979 1853 
C 979 2539 1338 2988 1888 2988 
C 2061 2988 2234 2930 2362 2834 
C 2515 2725 2579 2565 2579 2328 
L 2579 0 
L 3110 0 
L 3110 2539 
C 3110 3103 2707 3456 2054 3456 
C 1581 3456 1293 3308 979 2898 
L 979 4672 
L 448 4672 
z
" transform="scale(0.015625)"/>
       <path id="NimbusSanL-Regu-70" d="M 346 -1408 
L 883 -1408 
L 883 371 
C 1165 25 1478 -128 1914 -128 
C 2778 -128 3347 568 3347 1632 
C 3347 2752 2797 3456 1907 3456 
C 1453 3456 1088 3251 838 2854 
L 838 3359 
L 346 3359 
L 346 -1408 
z
M 1818 2956 
C 2406 2956 2790 2440 2790 1644 
C 2790 887 2400 371 1818 371 
C 1254 371 883 880 883 1663 
C 883 2447 1254 2956 1818 2956 
z
" transform="scale(0.015625)"/>
       <path id="NimbusSanL-Regu-65" d="M 3283 1484 
C 3283 1998 3245 2311 3149 2565 
C 2931 3123 2419 3456 1792 3456 
C 858 3456 256 2734 256 1619 
C 256 545 838 -128 1779 -128 
C 2547 -128 3078 307 3213 1018 
L 2675 1018 
C 2528 588 2227 364 1798 364 
C 1459 364 1171 514 992 787 
C 864 974 819 1161 813 1484 
L 3283 1484 
z
M 826 1920 
C 870 2552 1248 2963 1786 2963 
C 2310 2963 2714 2519 2714 1959 
C 2714 1946 2714 1933 2707 1920 
L 826 1920 
z
" transform="scale(0.015625)"/>
       <path id="NimbusSanL-Regu-46" d="M 1171 2112 
L 3398 2112 
L 3398 2636 
L 1171 2636 
L 1171 4147 
L 3706 4147 
L 3706 4672 
L 576 4672 
L 576 0 
L 1171 0 
L 1171 2112 
z
" transform="scale(0.015625)"/>
       <path id="NimbusSanL-Regu-63" d="M 3014 2237 
C 2989 2561 2918 2771 2790 2956 
C 2560 3270 2157 3456 1690 3456 
C 787 3456 198 2740 198 1632 
C 198 555 774 -128 1683 -128 
C 2483 -128 2989 352 3053 1167 
L 2515 1167 
C 2426 632 2150 364 1696 364 
C 1107 364 755 842 755 1632 
C 755 2466 1101 2963 1683 2963 
C 2131 2963 2413 2701 2477 2237 
L 3014 2237 
z
" transform="scale(0.015625)"/>
       <path id="NimbusSanL-Regu-72" d="M 442 3328 
L 442 0 
L 979 0 
L 979 1727 
C 979 2203 1101 2514 1357 2698 
C 1523 2819 1683 2857 2054 2863 
L 2054 3404 
C 1965 3449 1920 3456 1850 3456 
C 1504 3456 1242 3251 934 2750 
L 934 3328 
L 442 3328 
z
" transform="scale(0.015625)"/>
       <path id="NimbusSanL-Regu-2d" d="M 1818 1996 
L 294 1996 
L 294 1536 
L 1818 1536 
L 1818 1996 
z
" transform="scale(0.015625)"/>
       <path id="NimbusSanL-Regu-42" d="M 506 0 
L 2611 0 
C 3053 0 3379 121 3629 390 
C 3859 632 3987 961 3987 1321 
C 3987 1878 3731 2214 3136 2444 
C 3558 2643 3782 2994 3782 3476 
C 3782 3821 3654 4127 3411 4345 
C 3168 4569 2848 4672 2400 4672 
L 506 4672 
L 506 0 
z
M 1101 2636 
L 1101 4147 
L 2253 4147 
C 2586 4147 2771 4101 2931 3977 
C 3098 3847 3187 3652 3187 3391 
C 3187 3138 3098 2936 2931 2806 
C 2771 2682 2586 2636 2253 2636 
L 1101 2636 
z
M 1101 524 
L 1101 2112 
L 2554 2112 
C 2842 2112 3034 2042 3174 1890 
C 3315 1745 3392 1542 3392 1315 
C 3392 1093 3315 891 3174 746 
C 3034 594 2842 524 2554 524 
L 1101 524 
z
" transform="scale(0.015625)"/>
       <path id="NimbusSanL-Regu-64" d="M 3168 4672 
L 2637 4672 
L 2637 2937 
C 2413 3276 2054 3456 1606 3456 
C 736 3456 166 2759 166 1695 
C 166 568 723 -128 1626 -128 
C 2086 -128 2406 44 2694 460 
L 2694 19 
L 3168 19 
L 3168 4672 
z
M 1696 2956 
C 2272 2956 2637 2447 2637 1651 
C 2637 880 2266 371 1702 371 
C 1114 371 723 887 723 1663 
C 723 2440 1114 2956 1696 2956 
z
" transform="scale(0.015625)"/>
       <path id="NimbusSanL-Regu-31" d="M 1658 3232 
L 1658 0 
L 2221 0 
L 2221 4537 
L 1850 4537 
C 1651 3840 1523 3744 653 3635 
L 653 3232 
L 1658 3232 
z
" transform="scale(0.015625)"/>
      </defs>
      <use xlink:href="#NimbusSanL-Regu-53" transform="scale(0.996264)"/>
      <use xlink:href="#NimbusSanL-Regu-68" transform="translate(66.450031 0) scale(0.996264)"/>
      <use xlink:href="#NimbusSanL-Regu-61" transform="translate(121.841708 0) scale(0.996264)"/>
      <use xlink:href="#NimbusSanL-Regu-70" transform="translate(177.233385 0) scale(0.996264)"/>
      <use xlink:href="#NimbusSanL-Regu-65" transform="translate(232.625062 0) scale(0.996264)"/>
      <use xlink:href="#NimbusSanL-Regu-46" transform="translate(315.711909 0) scale(0.996264)"/>
      <use xlink:href="#NimbusSanL-Regu-61" transform="translate(371.602189 0) scale(0.996264)"/>
      <use xlink:href="#NimbusSanL-Regu-63" transform="translate(426.993866 0) scale(0.996264)"/>
      <use xlink:href="#NimbusSanL-Regu-74" transform="translate(476.807066 0) scale(0.996264)"/>
      <use xlink:href="#NimbusSanL-Regu-6f" transform="translate(504.502236 0) scale(0.996264)"/>
      <use xlink:href="#NimbusSanL-Regu-72" transform="translate(559.893913 0) scale(0.996264)"/>
      <use xlink:href="#NimbusSanL-Regu-2d" transform="translate(620.764312 0) scale(0.996264)"/>
      <use xlink:href="#NimbusSanL-Regu-42" transform="translate(681.634712 0) scale(0.996264)"/>
      <use xlink:href="#NimbusSanL-Regu-6c" transform="translate(748.084743 0) scale(0.996264)"/>
      <use xlink:href="#NimbusSanL-Regu-61" transform="translate(770.201527 0) scale(0.996264)"/>
      <use xlink:href="#NimbusSanL-Regu-64" transform="translate(825.593204 0) scale(0.996264)"/>
      <use xlink:href="#NimbusSanL-Regu-65" transform="translate(880.984881 0) scale(0.996264)"/>
      <use xlink:href="#NimbusSanL-Regu-31" transform="translate(972.242123 0) scale(0.996264)"/>
      <path d="M 942.353899 0 
L 972.242123 0 
L 972.242123 0.3985 
L 942.353899 0.3985 
L 942.353899 0 
z
"/>
     </g>
    </g>
   </g>
   <g id="line2d_16">
    <path d="M 209.94868 215.833816 
M 217.083433 221.137298 
L 220.029536 205.375466 
L 222.975799 220.180732 
L 225.922118 220.584931 
L 228.868454 218.162763 
L 231.814789 220.332681 
L 234.76111 220.54341 
L 237.70741 220.461822 
L 240.653683 220.40597 
L 243.59993 220.365509 
L 246.546142 220.32909 
L 249.492322 220.291223 
L 252.438468 220.24507 
L 255.384585 220.268178 
L 258.330675 220.237321 
L 261.27675 220.245345 
L 264.222814 220.358955 
L 267.168872 220.577809 
L 270.114944 220.771511 
L 273.061037 220.903335 
L 276.007164 221.037616 
L 278.953331 221.098618 
L 281.899548 221.138897 
L 284.845816 221.20173 
L 287.792138 221.224313 
L 290.738511 221.238266 
L 293.68493 221.243601 
L 296.63139 221.244361 
L 299.577887 221.242569 
L 302.524414 221.238452 
L 305.470967 221.23505 
L 308.41754 221.232849 
L 311.364129 221.23239 
L 314.310735 221.233112 
L 317.257351 221.235563 
L 320.203977 221.240048 
L 323.150611 221.245243 
L 326.097251 221.251257 
L 329.043896 221.257465 
L 331.990546 221.263114 
L 334.937201 221.267927 
L 337.883858 221.271771 
L 340.830517 221.274366 
L 343.777179 221.275767 
L 346.723843 221.275813 
L 349.670508 221.273785 
L 352.617174 221.269949 
L 355.563841 221.264197 
L 358.510509 221.256541 
L 361.457178 221.246404 
L 364.403846 221.233443 
L 367.350514 221.217728 
L 370.297183 221.198465 
L 373.243851 221.174425 
L 377.34868 221.143503 
" clip-path="url(#p6a2fb65262)" style="fill: none; stroke: #00008b; stroke-width: 1.5; stroke-linecap: square"/>
    <defs>
     <path id="me0a3bdd61c" d="M 0 0.25 
C 0.066301 0.25 0.129895 0.223658 0.176777 0.176777 
C 0.223658 0.129895 0.25 0.066301 0.25 0 
C 0.25 -0.066301 0.223658 -0.129895 0.176777 -0.176777 
C 0.129895 -0.223658 0.066301 -0.25 0 -0.25 
C -0.066301 -0.25 -0.129895 -0.223658 -0.176777 -0.176777 
C -0.223658 -0.129895 -0.25 -0.066301 -0.25 0 
C -0.25 0.066301 -0.223658 0.129895 -0.176777 0.176777 
C -0.129895 0.223658 -0.066301 0.25 0 0.25 
z
" style="stroke: #00008b"/>
    </defs>
    <g clip-path="url(#p6a2fb65262)">
     <use xlink:href="#me0a3bdd61c" x="209.94868" y="215.833816" style="fill: #00008b; stroke: #00008b"/>
     <use xlink:href="#me0a3bdd61c" x="217.083433" y="221.137298" style="fill: #00008b; stroke: #00008b"/>
     <use xlink:href="#me0a3bdd61c" x="220.029536" y="205.375466" style="fill: #00008b; stroke: #00008b"/>
     <use xlink:href="#me0a3bdd61c" x="222.975799" y="220.180732" style="fill: #00008b; stroke: #00008b"/>
     <use xlink:href="#me0a3bdd61c" x="225.922118" y="220.584931" style="fill: #00008b; stroke: #00008b"/>
     <use xlink:href="#me0a3bdd61c" x="228.868454" y="218.162763" style="fill: #00008b; stroke: #00008b"/>
     <use xlink:href="#me0a3bdd61c" x="231.814789" y="220.332681" style="fill: #00008b; stroke: #00008b"/>
     <use xlink:href="#me0a3bdd61c" x="234.76111" y="220.54341" style="fill: #00008b; stroke: #00008b"/>
     <use xlink:href="#me0a3bdd61c" x="237.70741" y="220.461822" style="fill: #00008b; stroke: #00008b"/>
     <use xlink:href="#me0a3bdd61c" x="240.653683" y="220.40597" style="fill: #00008b; stroke: #00008b"/>
     <use xlink:href="#me0a3bdd61c" x="243.59993" y="220.365509" style="fill: #00008b; stroke: #00008b"/>
     <use xlink:href="#me0a3bdd61c" x="246.546142" y="220.32909" style="fill: #00008b; stroke: #00008b"/>
     <use xlink:href="#me0a3bdd61c" x="249.492322" y="220.291223" style="fill: #00008b; stroke: #00008b"/>
     <use xlink:href="#me0a3bdd61c" x="252.438468" y="220.24507" style="fill: #00008b; stroke: #00008b"/>
     <use xlink:href="#me0a3bdd61c" x="255.384585" y="220.268178" style="fill: #00008b; stroke: #00008b"/>
     <use xlink:href="#me0a3bdd61c" x="258.330675" y="220.237321" style="fill: #00008b; stroke: #00008b"/>
     <use xlink:href="#me0a3bdd61c" x="261.27675" y="220.245345" style="fill: #00008b; stroke: #00008b"/>
     <use xlink:href="#me0a3bdd61c" x="264.222814" y="220.358955" style="fill: #00008b; stroke: #00008b"/>
     <use xlink:href="#me0a3bdd61c" x="267.168872" y="220.577809" style="fill: #00008b; stroke: #00008b"/>
     <use xlink:href="#me0a3bdd61c" x="270.114944" y="220.771511" style="fill: #00008b; stroke: #00008b"/>
     <use xlink:href="#me0a3bdd61c" x="273.061037" y="220.903335" style="fill: #00008b; stroke: #00008b"/>
     <use xlink:href="#me0a3bdd61c" x="276.007164" y="221.037616" style="fill: #00008b; stroke: #00008b"/>
     <use xlink:href="#me0a3bdd61c" x="278.953331" y="221.098618" style="fill: #00008b; stroke: #00008b"/>
     <use xlink:href="#me0a3bdd61c" x="281.899548" y="221.138897" style="fill: #00008b; stroke: #00008b"/>
     <use xlink:href="#me0a3bdd61c" x="284.845816" y="221.20173" style="fill: #00008b; stroke: #00008b"/>
     <use xlink:href="#me0a3bdd61c" x="287.792138" y="221.224313" style="fill: #00008b; stroke: #00008b"/>
     <use xlink:href="#me0a3bdd61c" x="290.738511" y="221.238266" style="fill: #00008b; stroke: #00008b"/>
     <use xlink:href="#me0a3bdd61c" x="293.68493" y="221.243601" style="fill: #00008b; stroke: #00008b"/>
     <use xlink:href="#me0a3bdd61c" x="296.63139" y="221.244361" style="fill: #00008b; stroke: #00008b"/>
     <use xlink:href="#me0a3bdd61c" x="299.577887" y="221.242569" style="fill: #00008b; stroke: #00008b"/>
     <use xlink:href="#me0a3bdd61c" x="302.524414" y="221.238452" style="fill: #00008b; stroke: #00008b"/>
     <use xlink:href="#me0a3bdd61c" x="305.470967" y="221.23505" style="fill: #00008b; stroke: #00008b"/>
     <use xlink:href="#me0a3bdd61c" x="308.41754" y="221.232849" style="fill: #00008b; stroke: #00008b"/>
     <use xlink:href="#me0a3bdd61c" x="311.364129" y="221.23239" style="fill: #00008b; stroke: #00008b"/>
     <use xlink:href="#me0a3bdd61c" x="314.310735" y="221.233112" style="fill: #00008b; stroke: #00008b"/>
     <use xlink:href="#me0a3bdd61c" x="317.257351" y="221.235563" style="fill: #00008b; stroke: #00008b"/>
     <use xlink:href="#me0a3bdd61c" x="320.203977" y="221.240048" style="fill: #00008b; stroke: #00008b"/>
     <use xlink:href="#me0a3bdd61c" x="323.150611" y="221.245243" style="fill: #00008b; stroke: #00008b"/>
     <use xlink:href="#me0a3bdd61c" x="326.097251" y="221.251257" style="fill: #00008b; stroke: #00008b"/>
     <use xlink:href="#me0a3bdd61c" x="329.043896" y="221.257465" style="fill: #00008b; stroke: #00008b"/>
     <use xlink:href="#me0a3bdd61c" x="331.990546" y="221.263114" style="fill: #00008b; stroke: #00008b"/>
     <use xlink:href="#me0a3bdd61c" x="334.937201" y="221.267927" style="fill: #00008b; stroke: #00008b"/>
     <use xlink:href="#me0a3bdd61c" x="337.883858" y="221.271771" style="fill: #00008b; stroke: #00008b"/>
     <use xlink:href="#me0a3bdd61c" x="340.830517" y="221.274366" style="fill: #00008b; stroke: #00008b"/>
     <use xlink:href="#me0a3bdd61c" x="343.777179" y="221.275767" style="fill: #00008b; stroke: #00008b"/>
     <use xlink:href="#me0a3bdd61c" x="346.723843" y="221.275813" style="fill: #00008b; stroke: #00008b"/>
     <use xlink:href="#me0a3bdd61c" x="349.670508" y="221.273785" style="fill: #00008b; stroke: #00008b"/>
     <use xlink:href="#me0a3bdd61c" x="352.617174" y="221.269949" style="fill: #00008b; stroke: #00008b"/>
     <use xlink:href="#me0a3bdd61c" x="355.563841" y="221.264197" style="fill: #00008b; stroke: #00008b"/>
     <use xlink:href="#me0a3bdd61c" x="358.510509" y="221.256541" style="fill: #00008b; stroke: #00008b"/>
     <use xlink:href="#me0a3bdd61c" x="361.457178" y="221.246404" style="fill: #00008b; stroke: #00008b"/>
     <use xlink:href="#me0a3bdd61c" x="364.403846" y="221.233443" style="fill: #00008b; stroke: #00008b"/>
     <use xlink:href="#me0a3bdd61c" x="367.350514" y="221.217728" style="fill: #00008b; stroke: #00008b"/>
     <use xlink:href="#me0a3bdd61c" x="370.297183" y="221.198465" style="fill: #00008b; stroke: #00008b"/>
     <use xlink:href="#me0a3bdd61c" x="373.243851" y="221.174425" style="fill: #00008b; stroke: #00008b"/>
     <use xlink:href="#me0a3bdd61c" x="377.34868" y="221.143503" style="fill: #00008b; stroke: #00008b"/>
    </g>
   </g>
   <g id="line2d_17">
    <path d="M 209.94868 221.104532 
L 205.757175 221.057095 
L 202.810632 220.981031 
L 199.863712 220.852537 
L 196.916749 220.780151 
L 193.969799 19.816588 
L 191.022877 215.357512 
" clip-path="url(#p6a2fb65262)" style="fill: none; stroke: #add8e6; stroke-width: 1.5; stroke-linecap: square"/>
    <defs>
     <path id="m66a7df8613" d="M 0 0.25 
C 0.066301 0.25 0.129895 0.223658 0.176777 0.176777 
C 0.223658 0.129895 0.25 0.066301 0.25 0 
C 0.25 -0.066301 0.223658 -0.129895 0.176777 -0.176777 
C 0.129895 -0.223658 0.066301 -0.25 0 -0.25 
C -0.066301 -0.25 -0.129895 -0.223658 -0.176777 -0.176777 
C -0.223658 -0.129895 -0.25 -0.066301 -0.25 0 
C -0.25 0.066301 -0.223658 0.129895 -0.176777 0.176777 
C -0.129895 0.223658 -0.066301 0.25 0 0.25 
z
" style="stroke: #add8e6"/>
    </defs>
    <g clip-path="url(#p6a2fb65262)">
     <use xlink:href="#m66a7df8613" x="209.94868" y="221.104532" style="fill: #add8e6; stroke: #add8e6"/>
     <use xlink:href="#m66a7df8613" x="205.757175" y="221.057095" style="fill: #add8e6; stroke: #add8e6"/>
     <use xlink:href="#m66a7df8613" x="202.810632" y="220.981031" style="fill: #add8e6; stroke: #add8e6"/>
     <use xlink:href="#m66a7df8613" x="199.863712" y="220.852537" style="fill: #add8e6; stroke: #add8e6"/>
     <use xlink:href="#m66a7df8613" x="196.916749" y="220.780151" style="fill: #add8e6; stroke: #add8e6"/>
     <use xlink:href="#m66a7df8613" x="193.969799" y="19.816588" style="fill: #add8e6; stroke: #add8e6"/>
     <use xlink:href="#m66a7df8613" x="191.022877" y="215.357512" style="fill: #add8e6; stroke: #add8e6"/>
    </g>
   </g>
   <g id="patch_3">
    <path d="M 42.54868 231.496588 
L 42.54868 9.736588 
" style="fill: none; stroke: #000000; stroke-width: 0.8; stroke-linejoin: miter; stroke-linecap: square"/>
   </g>
   <g id="patch_4">
    <path d="M 377.34868 231.496588 
L 377.34868 9.736588 
" style="fill: none; stroke: #000000; stroke-width: 0.8; stroke-linejoin: miter; stroke-linecap: square"/>
   </g>
   <g id="patch_5">
    <path d="M 42.54868 231.496588 
L 377.34868 231.496588 
" style="fill: none; stroke: #000000; stroke-width: 0.8; stroke-linejoin: miter; stroke-linecap: square"/>
   </g>
   <g id="patch_6">
    <path d="M 42.54868 9.736588 
L 377.34868 9.736588 
" style="fill: none; stroke: #000000; stroke-width: 0.8; stroke-linejoin: miter; stroke-linecap: square"/>
   </g>
   <g id="legend_1">
    <g id="patch_7">
     <path d="M 47.54868 60.766242 
L 133.371336 60.766242 
L 133.371336 14.736588 
L 47.54868 14.736588 
z
" style="fill: #ffffff; opacity: 0.8; stroke: #000000; stroke-linejoin: miter"/>
    </g>
    <g id="line2d_18">
     <path d="M 51.54868 22.519275 
L 61.54868 22.519275 
L 71.54868 22.519275 
" style="fill: none; stroke: #00008b; stroke-width: 1.5; stroke-linecap: square"/>
     <g>
      <use xlink:href="#me0a3bdd61c" x="61.54868" y="22.519275" style="fill: #00008b; stroke: #00008b"/>
     </g>
    </g>
    <g id="text_18">
     <!-- SU2 (SS) -->
     <g transform="translate(79.54868 26.019275) scale(0.1 -0.1)">
      <defs>
       <path id="NimbusSanL-Regu-55" d="M 3533 4672 
L 3533 1404 
C 3533 779 3078 396 2330 396 
C 1984 396 1702 479 1478 639 
C 1248 817 1139 1053 1139 1404 
L 1139 4672 
L 544 4672 
L 544 1404 
C 544 460 1222 -128 2330 -128 
C 3424 -128 4128 473 4128 1404 
L 4128 4672 
L 3533 4672 
z
" transform="scale(0.015625)"/>
       <path id="NimbusSanL-Regu-32" d="M 3238 556 
L 851 556 
C 909 928 1114 1165 1670 1493 
L 2310 1839 
C 2944 2185 3270 2653 3270 3211 
C 3270 3589 3117 3942 2848 4185 
C 2579 4428 2246 4544 1818 4544 
C 1242 4544 813 4339 563 3955 
C 403 3711 333 3429 320 2967 
L 883 2967 
C 902 3275 941 3461 1018 3608 
C 1165 3884 1459 4051 1798 4051 
C 2310 4051 2694 3685 2694 3198 
C 2694 2839 2483 2531 2080 2300 
L 1491 1967 
C 544 1428 269 999 218 0 
L 3238 0 
L 3238 556 
z
" transform="scale(0.015625)"/>
       <path id="NimbusSanL-Regu-28" d="M 1510 4672 
C 870 3833 467 2668 467 1663 
C 467 652 870 -513 1510 -1351 
L 1862 -1351 
C 1299 -436 986 639 986 1663 
C 986 2681 1299 3763 1862 4672 
L 1510 4672 
z
" transform="scale(0.015625)"/>
       <path id="NimbusSanL-Regu-29" d="M 595 -1351 
C 1235 -513 1638 652 1638 1657 
C 1638 2668 1235 3833 595 4672 
L 243 4672 
C 806 3756 1120 2681 1120 1657 
C 1120 639 806 -442 243 -1351 
L 595 -1351 
z
" transform="scale(0.015625)"/>
      </defs>
      <use xlink:href="#NimbusSanL-Regu-53" transform="scale(0.996264)"/>
      <use xlink:href="#NimbusSanL-Regu-55" transform="translate(66.450031 0) scale(0.996264)"/>
      <use xlink:href="#NimbusSanL-Regu-32" transform="translate(138.380016 0) scale(0.996264)"/>
      <use xlink:href="#NimbusSanL-Regu-28" transform="translate(221.466863 0) scale(0.996264)"/>
      <use xlink:href="#NimbusSanL-Regu-53" transform="translate(254.642092 0) scale(0.996264)"/>
      <use xlink:href="#NimbusSanL-Regu-53" transform="translate(321.092123 0) scale(0.996264)"/>
      <use xlink:href="#NimbusSanL-Regu-29" transform="translate(387.542155 0) scale(0.996264)"/>
     </g>
    </g>
    <g id="line2d_19">
     <path d="M 51.54868 36.923949 
L 61.54868 36.923949 
L 71.54868 36.923949 
" style="fill: none; stroke: #add8e6; stroke-width: 1.5; stroke-linecap: square"/>
     <g>
      <use xlink:href="#m66a7df8613" x="61.54868" y="36.923949" style="fill: #add8e6; stroke: #add8e6"/>
     </g>
    </g>
    <g id="text_19">
     <!-- SU2 (PS) -->
     <g transform="translate(79.54868 40.423949) scale(0.1 -0.1)">
      <defs>
       <path id="NimbusSanL-Regu-50" d="M 1178 1984 
L 2643 1984 
C 3008 1984 3296 2092 3546 2316 
C 3827 2572 3949 2873 3949 3302 
C 3949 4179 3430 4672 2509 4672 
L 582 4672 
L 582 0 
L 1178 0 
L 1178 1984 
z
M 1178 2508 
L 1178 4147 
L 2419 4147 
C 2989 4147 3328 3839 3328 3327 
C 3328 2816 2989 2508 2419 2508 
L 1178 2508 
z
" transform="scale(0.015625)"/>
      </defs>
      <use xlink:href="#NimbusSanL-Regu-53" transform="scale(0.996264)"/>
      <use xlink:href="#NimbusSanL-Regu-55" transform="translate(66.450031 0) scale(0.996264)"/>
      <use xlink:href="#NimbusSanL-Regu-32" transform="translate(138.380016 0) scale(0.996264)"/>
      <use xlink:href="#NimbusSanL-Regu-28" transform="translate(221.466863 0) scale(0.996264)"/>
      <use xlink:href="#NimbusSanL-Regu-50" transform="translate(254.642092 0) scale(0.996264)"/>
      <use xlink:href="#NimbusSanL-Regu-53" transform="translate(321.092123 0) scale(0.996264)"/>
      <use xlink:href="#NimbusSanL-Regu-29" transform="translate(387.542155 0) scale(0.996264)"/>
     </g>
    </g>
    <g id="PathCollection_2">
     <g>
      <use xlink:href="#m893166a83b" x="61.54868" y="52.019256" style="fill: #ff0000; stroke: #ff0000"/>
     </g>
    </g>
    <g id="text_20">
     <!-- Mises Data -->
     <g transform="translate(79.54868 54.644256) scale(0.1 -0.1)">
      <defs>
       <path id="NimbusSanL-Regu-4d" d="M 2995 0 
L 4307 3915 
L 4307 0 
L 4870 0 
L 4870 4672 
L 4045 4672 
L 2688 602 
L 1306 4672 
L 480 4672 
L 480 0 
L 1043 0 
L 1043 3915 
L 2368 0 
L 2995 0 
z
" transform="scale(0.015625)"/>
       <path id="NimbusSanL-Regu-69" d="M 960 3358 
L 429 3358 
L 429 0 
L 960 0 
L 960 3358 
z
M 960 4672 
L 422 4672 
L 422 3999 
L 960 3999 
L 960 4672 
z
" transform="scale(0.015625)"/>
       <path id="NimbusSanL-Regu-73" d="M 2803 2428 
C 2797 3084 2362 3456 1587 3456 
C 806 3456 301 3052 301 2434 
C 301 1912 570 1663 1363 1472 
L 1862 1351 
C 2234 1262 2381 1129 2381 887 
C 2381 574 2067 364 1600 364 
C 1312 364 1069 447 934 587 
C 851 683 813 778 781 1014 
L 218 1014 
C 243 243 678 -128 1555 -128 
C 2400 -128 2938 288 2938 931 
C 2938 1428 2656 1702 1990 1861 
L 1478 1982 
C 1043 2084 858 2224 858 2459 
C 858 2765 1133 2963 1568 2963 
C 1997 2963 2227 2778 2240 2428 
L 2803 2428 
z
" transform="scale(0.015625)"/>
       <path id="NimbusSanL-Regu-44" d="M 570 0 
L 2368 0 
C 3546 0 4269 883 4269 2339 
C 4269 3788 3552 4672 2368 4672 
L 570 4672 
L 570 0 
z
M 1165 524 
L 1165 4147 
L 2266 4147 
C 3187 4147 3674 3525 3674 2332 
C 3674 1153 3187 524 2266 524 
L 1165 524 
z
" transform="scale(0.015625)"/>
      </defs>
      <use xlink:href="#NimbusSanL-Regu-4d" transform="scale(0.996264)"/>
      <use xlink:href="#NimbusSanL-Regu-69" transform="translate(82.98843 0) scale(0.996264)"/>
      <use xlink:href="#NimbusSanL-Regu-73" transform="translate(105.105215 0) scale(0.996264)"/>
      <use xlink:href="#NimbusSanL-Regu-65" transform="translate(154.918415 0) scale(0.996264)"/>
      <use xlink:href="#NimbusSanL-Regu-73" transform="translate(210.310092 0) scale(0.996264)"/>
      <use xlink:href="#NimbusSanL-Regu-44" transform="translate(287.818462 0) scale(0.996264)"/>
      <use xlink:href="#NimbusSanL-Regu-61" transform="translate(359.748447 0) scale(0.996264)"/>
      <use xlink:href="#NimbusSanL-Regu-74" transform="translate(415.140124 0) scale(0.996264)"/>
      <use xlink:href="#NimbusSanL-Regu-61" transform="translate(442.835294 0) scale(0.996264)"/>
     </g>
    </g>
   </g>
  </g>
 </g>
 <defs>
  <clipPath id="p6a2fb65262">
   <rect x="42.54868" y="9.736588" width="334.8" height="221.76"/>
  </clipPath>
 </defs>
</svg>
