<?xml version="1.0" encoding="utf-8" standalone="no"?>
<!DOCTYPE svg PUBLIC "-//W3C//DTD SVG 1.1//EN"
  "http://www.w3.org/Graphics/SVG/1.1/DTD/svg11.dtd">
<svg xmlns:xlink="http://www.w3.org/1999/xlink" width="391.08761pt" height="265.600613pt" viewBox="0 0 391.08761 265.600613" xmlns="http://www.w3.org/2000/svg" version="1.1">
 <metadata>
  <rdf:RDF xmlns:dc="http://purl.org/dc/elements/1.1/" xmlns:cc="http://creativecommons.org/ns#" xmlns:rdf="http://www.w3.org/1999/02/22-rdf-syntax-ns#">
   <cc:Work>
    <dc:type rdf:resource="http://purl.org/dc/dcmitype/StillImage"/>
    <dc:date>2025-07-17T19:17:27.885716</dc:date>
    <dc:format>image/svg+xml</dc:format>
    <dc:creator>
     <cc:Agent>
      <dc:title>Matplotlib v3.10.3, https://matplotlib.org/</dc:title>
     </cc:Agent>
    </dc:creator>
   </cc:Work>
  </rdf:RDF>
 </metadata>
 <defs>
  <style type="text/css">*{stroke-linejoin: round; stroke-linecap: butt}</style>
 </defs>
 <g id="figure_1">
  <g id="patch_1">
   <path d="M 0 265.600613 
L 391.08761 265.600613 
L 391.08761 0 
L 0 0 
z
" style="fill: #ffffff"/>
  </g>
  <g id="axes_1">
   <g id="patch_2">
    <path d="M 40.334753 228.96 
L 375.134753 228.96 
L 375.134753 7.2 
L 40.334753 7.2 
z
" style="fill: #ffffff"/>
   </g>
   <g id="matplotlib.axis_1">
    <g id="xtick_1">
     <g id="line2d_1">
      <defs>
       <path id="m93fa722fde" d="M 0 0 
L 0 3.5 
" style="stroke: #000000; stroke-width: 0.8"/>
      </defs>
      <g>
       <use xlink:href="#m93fa722fde" x="55.552935" y="228.96" style="stroke: #000000; stroke-width: 0.8"/>
      </g>
     </g>
     <g id="text_1">
      <!-- $\mathdefault{0}$ -->
      <g transform="translate(53.062267 243.05832) scale(0.1 -0.1)">
       <defs>
        <path id="CMR17-30" d="M 2688 2038 
C 2688 2430 2682 3099 2413 3613 
C 2176 4063 1798 4224 1466 4224 
C 1158 4224 768 4082 525 3620 
C 269 3137 243 2539 243 2038 
C 243 1671 250 1112 448 623 
C 723 -39 1216 -128 1466 -128 
C 1760 -128 2208 -7 2470 604 
C 2662 1048 2688 1568 2688 2038 
z
M 1466 -26 
C 1056 -26 813 328 723 816 
C 653 1196 653 1749 653 2109 
C 653 2604 653 3015 736 3407 
C 858 3954 1216 4121 1466 4121 
C 1728 4121 2067 3947 2189 3420 
C 2272 3054 2278 2623 2278 2109 
C 2278 1691 2278 1176 2202 797 
C 2067 96 1690 -26 1466 -26 
z
" transform="scale(0.015625)"/>
       </defs>
       <use xlink:href="#CMR17-30" transform="scale(0.996264)"/>
      </g>
     </g>
    </g>
    <g id="xtick_2">
     <g id="line2d_2">
      <g>
       <use xlink:href="#m93fa722fde" x="119.227336" y="228.96" style="stroke: #000000; stroke-width: 0.8"/>
      </g>
     </g>
     <g id="text_2">
      <!-- $\mathdefault{1000}$ -->
      <g transform="translate(109.264665 243.05832) scale(0.1 -0.1)">
       <defs>
        <path id="CMR17-31" d="M 1702 4083 
C 1702 4217 1696 4224 1606 4224 
C 1357 3927 979 3833 621 3820 
C 602 3820 570 3820 563 3808 
C 557 3795 557 3782 557 3648 
C 755 3648 1088 3686 1344 3839 
L 1344 467 
C 1344 243 1331 166 781 166 
L 589 166 
L 589 0 
C 896 6 1216 12 1523 12 
C 1830 12 2150 6 2458 0 
L 2458 166 
L 2266 166 
C 1715 166 1702 236 1702 467 
L 1702 4083 
z
" transform="scale(0.015625)"/>
       </defs>
       <use xlink:href="#CMR17-31" transform="scale(0.996264)"/>
       <use xlink:href="#CMR17-30" transform="translate(45.690477 0) scale(0.996264)"/>
       <use xlink:href="#CMR17-30" transform="translate(91.380954 0) scale(0.996264)"/>
       <use xlink:href="#CMR17-30" transform="translate(137.071431 0) scale(0.996264)"/>
      </g>
     </g>
    </g>
    <g id="xtick_3">
     <g id="line2d_3">
      <g>
       <use xlink:href="#m93fa722fde" x="182.901736" y="228.96" style="stroke: #000000; stroke-width: 0.8"/>
      </g>
     </g>
     <g id="text_3">
      <!-- $\mathdefault{2000}$ -->
      <g transform="translate(172.939066 243.05832) scale(0.1 -0.1)">
       <defs>
        <path id="CMR17-32" d="M 2669 990 
L 2554 990 
C 2490 537 2438 460 2413 422 
C 2381 371 1920 371 1830 371 
L 602 371 
C 832 620 1280 1073 1824 1596 
C 2214 1966 2669 2400 2669 3033 
C 2669 3788 2067 4224 1395 4224 
C 691 4224 262 3603 262 3027 
C 262 2777 448 2745 525 2745 
C 589 2745 781 2783 781 3007 
C 781 3206 614 3264 525 3264 
C 486 3264 448 3257 422 3244 
C 544 3788 915 4057 1306 4057 
C 1862 4057 2227 3616 2227 3033 
C 2227 2477 1901 1998 1536 1583 
L 262 147 
L 262 0 
L 2515 0 
L 2669 990 
z
" transform="scale(0.015625)"/>
       </defs>
       <use xlink:href="#CMR17-32" transform="scale(0.996264)"/>
       <use xlink:href="#CMR17-30" transform="translate(45.690477 0) scale(0.996264)"/>
       <use xlink:href="#CMR17-30" transform="translate(91.380954 0) scale(0.996264)"/>
       <use xlink:href="#CMR17-30" transform="translate(137.071431 0) scale(0.996264)"/>
      </g>
     </g>
    </g>
    <g id="xtick_4">
     <g id="line2d_4">
      <g>
       <use xlink:href="#m93fa722fde" x="246.576137" y="228.96" style="stroke: #000000; stroke-width: 0.8"/>
      </g>
     </g>
     <g id="text_4">
      <!-- $\mathdefault{3000}$ -->
      <g transform="translate(236.613467 243.05832) scale(0.1 -0.1)">
       <defs>
        <path id="CMR17-33" d="M 1414 2176 
C 1984 2176 2234 1673 2234 1094 
C 2234 322 1824 25 1453 25 
C 1114 25 563 193 390 691 
C 422 678 454 678 486 678 
C 640 678 755 780 755 947 
C 755 1132 614 1216 486 1216 
C 378 1216 211 1164 211 927 
C 211 335 787 -128 1466 -128 
C 2176 -128 2720 432 2720 1087 
C 2720 1718 2208 2176 1600 2246 
C 2086 2347 2554 2776 2554 3353 
C 2554 3856 2048 4224 1472 4224 
C 890 4224 378 3862 378 3347 
C 378 3123 544 3084 627 3084 
C 762 3084 877 3167 877 3334 
C 877 3500 762 3584 627 3584 
C 602 3584 570 3584 544 3571 
C 730 3999 1235 4076 1459 4076 
C 1683 4076 2106 3966 2106 3347 
C 2106 3167 2080 2851 1862 2574 
C 1670 2329 1453 2316 1242 2297 
C 1210 2297 1062 2284 1037 2284 
C 992 2278 966 2272 966 2227 
C 966 2182 973 2176 1101 2176 
L 1414 2176 
z
" transform="scale(0.015625)"/>
       </defs>
       <use xlink:href="#CMR17-33" transform="scale(0.996264)"/>
       <use xlink:href="#CMR17-30" transform="translate(45.690477 0) scale(0.996264)"/>
       <use xlink:href="#CMR17-30" transform="translate(91.380954 0) scale(0.996264)"/>
       <use xlink:href="#CMR17-30" transform="translate(137.071431 0) scale(0.996264)"/>
      </g>
     </g>
    </g>
    <g id="xtick_5">
     <g id="line2d_5">
      <g>
       <use xlink:href="#m93fa722fde" x="310.250538" y="228.96" style="stroke: #000000; stroke-width: 0.8"/>
      </g>
     </g>
     <g id="text_5">
      <!-- $\mathdefault{4000}$ -->
      <g transform="translate(300.287868 243.05832) scale(0.1 -0.1)">
       <defs>
        <path id="CMR17-34" d="M 2150 4147 
C 2150 4281 2144 4288 2029 4288 
L 128 1254 
L 128 1088 
L 1779 1088 
L 1779 460 
C 1779 230 1766 166 1318 166 
L 1197 166 
L 1197 0 
C 1402 12 1747 12 1965 12 
C 2182 12 2528 12 2733 0 
L 2733 166 
L 2611 166 
C 2163 166 2150 230 2150 460 
L 2150 1088 
L 2803 1088 
L 2803 1254 
L 2150 1254 
L 2150 4147 
z
M 1798 3723 
L 1798 1254 
L 256 1254 
L 1798 3723 
z
" transform="scale(0.015625)"/>
       </defs>
       <use xlink:href="#CMR17-34" transform="scale(0.996264)"/>
       <use xlink:href="#CMR17-30" transform="translate(45.690477 0) scale(0.996264)"/>
       <use xlink:href="#CMR17-30" transform="translate(91.380954 0) scale(0.996264)"/>
       <use xlink:href="#CMR17-30" transform="translate(137.071431 0) scale(0.996264)"/>
      </g>
     </g>
    </g>
    <g id="xtick_6">
     <g id="line2d_6">
      <g>
       <use xlink:href="#m93fa722fde" x="373.924939" y="228.96" style="stroke: #000000; stroke-width: 0.8"/>
      </g>
     </g>
     <g id="text_6">
      <!-- $\mathdefault{5000}$ -->
      <g transform="translate(363.962269 243.05832) scale(0.1 -0.1)">
       <defs>
        <path id="CMR17-35" d="M 730 3750 
C 794 3724 1056 3641 1325 3641 
C 1920 3641 2246 3961 2432 4140 
C 2432 4191 2432 4224 2394 4224 
C 2387 4224 2374 4224 2323 4198 
C 2099 4102 1837 4032 1517 4032 
C 1325 4032 1037 4055 723 4191 
C 653 4224 640 4224 634 4224 
C 602 4224 595 4217 595 4090 
L 595 2231 
C 595 2113 595 2080 659 2080 
C 691 2080 704 2093 736 2139 
C 941 2435 1222 2560 1542 2560 
C 1766 2560 2246 2415 2246 1293 
C 2246 1087 2246 716 2054 422 
C 1894 159 1645 25 1370 25 
C 947 25 518 319 403 812 
C 429 806 480 793 506 793 
C 589 793 749 838 749 1036 
C 749 1209 627 1280 506 1280 
C 358 1280 262 1190 262 1011 
C 262 454 704 -128 1382 -128 
C 2042 -128 2669 441 2669 1267 
C 2669 2054 2170 2662 1549 2662 
C 1222 2662 947 2540 730 2304 
L 730 3750 
z
" transform="scale(0.015625)"/>
       </defs>
       <use xlink:href="#CMR17-35" transform="scale(0.996264)"/>
       <use xlink:href="#CMR17-30" transform="translate(45.690477 0) scale(0.996264)"/>
       <use xlink:href="#CMR17-30" transform="translate(91.380954 0) scale(0.996264)"/>
       <use xlink:href="#CMR17-30" transform="translate(137.071431 0) scale(0.996264)"/>
      </g>
     </g>
    </g>
    <g id="text_7">
     <!-- Iteration -->
     <g transform="translate(189.787377 256.278627) scale(0.1 -0.1)">
      <defs>
       <path id="NimbusSanL-Regu-49" d="M 1242 4672 
L 640 4672 
L 640 0 
L 1242 0 
L 1242 4672 
z
" transform="scale(0.015625)"/>
       <path id="NimbusSanL-Regu-74" d="M 1626 3328 
L 1075 3328 
L 1075 4249 
L 544 4249 
L 544 3328 
L 90 3328 
L 90 2892 
L 544 2892 
L 544 402 
C 544 64 774 -128 1190 -128 
C 1318 -128 1446 -116 1626 -84 
L 1626 364 
C 1555 345 1472 339 1370 339 
C 1139 339 1075 402 1075 634 
L 1075 2892 
L 1626 2892 
L 1626 3328 
z
" transform="scale(0.015625)"/>
       <path id="NimbusSanL-Regu-65" d="M 3283 1484 
C 3283 1998 3245 2311 3149 2565 
C 2931 3123 2419 3456 1792 3456 
C 858 3456 256 2734 256 1619 
C 256 545 838 -128 1779 -128 
C 2547 -128 3078 307 3213 1018 
L 2675 1018 
C 2528 588 2227 364 1798 364 
C 1459 364 1171 514 992 787 
C 864 974 819 1161 813 1484 
L 3283 1484 
z
M 826 1920 
C 870 2552 1248 2963 1786 2963 
C 2310 2963 2714 2519 2714 1959 
C 2714 1946 2714 1933 2707 1920 
L 826 1920 
z
" transform="scale(0.015625)"/>
       <path id="NimbusSanL-Regu-72" d="M 442 3328 
L 442 0 
L 979 0 
L 979 1727 
C 979 2203 1101 2514 1357 2698 
C 1523 2819 1683 2857 2054 2863 
L 2054 3404 
C 1965 3449 1920 3456 1850 3456 
C 1504 3456 1242 3251 934 2750 
L 934 3328 
L 442 3328 
z
" transform="scale(0.015625)"/>
       <path id="NimbusSanL-Regu-61" d="M 3424 332 
C 3366 320 3341 320 3309 320 
C 3123 320 3021 415 3021 581 
L 3021 2542 
C 3021 3135 2586 3456 1760 3456 
C 1274 3456 870 3315 646 3065 
C 493 2893 429 2702 416 2370 
L 954 2370 
C 998 2778 1242 2963 1741 2963 
C 2221 2963 2490 2784 2490 2466 
L 2490 2326 
C 2490 2103 2355 2007 1933 1956 
C 1178 1861 1062 1835 858 1753 
C 467 1593 269 1294 269 861 
C 269 256 691 -128 1370 -128 
C 1792 -128 2131 19 2509 364 
C 2547 25 2714 -128 3059 -128 
C 3168 -128 3251 -116 3424 -71 
L 3424 332 
z
M 2490 1071 
C 2490 893 2438 785 2278 638 
C 2061 441 1798 339 1485 339 
C 1069 339 826 536 826 874 
C 826 1224 1062 1402 1632 1485 
C 2195 1562 2310 1587 2490 1670 
L 2490 1071 
z
" transform="scale(0.015625)"/>
       <path id="NimbusSanL-Regu-69" d="M 960 3358 
L 429 3358 
L 429 0 
L 960 0 
L 960 3358 
z
M 960 4672 
L 422 4672 
L 422 3999 
L 960 3999 
L 960 4672 
z
" transform="scale(0.015625)"/>
       <path id="NimbusSanL-Regu-6f" d="M 1741 3456 
C 800 3456 230 2784 230 1663 
C 230 543 794 -128 1747 -128 
C 2688 -128 3264 543 3264 1638 
C 3264 2791 2707 3456 1741 3456 
z
M 1747 2963 
C 2349 2963 2707 2472 2707 1644 
C 2707 861 2336 364 1747 364 
C 1152 364 787 855 787 1663 
C 787 2466 1152 2963 1747 2963 
z
" transform="scale(0.015625)"/>
       <path id="NimbusSanL-Regu-6e" d="M 448 3328 
L 448 0 
L 986 0 
L 986 1835 
C 986 2539 1344 2988 1894 2988 
C 2317 2988 2586 2732 2586 2328 
L 2586 0 
L 3117 0 
L 3117 2539 
C 3117 3097 2701 3456 2054 3456 
C 1555 3456 1235 3263 941 2796 
L 941 3328 
L 448 3328 
z
" transform="scale(0.015625)"/>
      </defs>
      <use xlink:href="#NimbusSanL-Regu-49" transform="scale(0.996264)"/>
      <use xlink:href="#NimbusSanL-Regu-74" transform="translate(27.69517 0) scale(0.996264)"/>
      <use xlink:href="#NimbusSanL-Regu-65" transform="translate(55.390339 0) scale(0.996264)"/>
      <use xlink:href="#NimbusSanL-Regu-72" transform="translate(110.782016 0) scale(0.996264)"/>
      <use xlink:href="#NimbusSanL-Regu-61" transform="translate(142.961149 0) scale(0.996264)"/>
      <use xlink:href="#NimbusSanL-Regu-74" transform="translate(198.352826 0) scale(0.996264)"/>
      <use xlink:href="#NimbusSanL-Regu-69" transform="translate(226.047996 0) scale(0.996264)"/>
      <use xlink:href="#NimbusSanL-Regu-6f" transform="translate(248.16478 0) scale(0.996264)"/>
      <use xlink:href="#NimbusSanL-Regu-6e" transform="translate(303.556457 0) scale(0.996264)"/>
     </g>
    </g>
   </g>
   <g id="matplotlib.axis_2">
    <g id="ytick_1">
     <g id="line2d_7">
      <defs>
       <path id="m84559221f8" d="M 0 0 
L -3.5 0 
" style="stroke: #000000; stroke-width: 0.8"/>
      </defs>
      <g>
       <use xlink:href="#m84559221f8" x="40.334753" y="219.322989" style="stroke: #000000; stroke-width: 0.8"/>
      </g>
     </g>
     <g id="text_8">
      <!-- $\mathdefault{−2}$ -->
      <g transform="translate(20.604674 222.872149) scale(0.1 -0.1)">
       <defs>
        <path id="CMSY10-0" d="M 4218 1472 
C 4326 1472 4442 1472 4442 1600 
C 4442 1728 4326 1728 4218 1728 
L 755 1728 
C 646 1728 531 1728 531 1600 
C 531 1472 646 1472 755 1472 
L 4218 1472 
z
" transform="scale(0.015625)"/>
       </defs>
       <use xlink:href="#CMSY10-0" transform="scale(0.996264)"/>
       <use xlink:href="#CMR17-32" transform="translate(77.487468 0) scale(0.996264)"/>
      </g>
     </g>
    </g>
    <g id="ytick_2">
     <g id="line2d_8">
      <g>
       <use xlink:href="#m84559221f8" x="40.334753" y="183.451656" style="stroke: #000000; stroke-width: 0.8"/>
      </g>
     </g>
     <g id="text_9">
      <!-- $\mathdefault{0}$ -->
      <g transform="translate(28.353418 187.000816) scale(0.1 -0.1)">
       <use xlink:href="#CMR17-30" transform="scale(0.996264)"/>
      </g>
     </g>
    </g>
    <g id="ytick_3">
     <g id="line2d_9">
      <g>
       <use xlink:href="#m84559221f8" x="40.334753" y="147.580323" style="stroke: #000000; stroke-width: 0.8"/>
      </g>
     </g>
     <g id="text_10">
      <!-- $\mathdefault{2}$ -->
      <g transform="translate(28.353418 151.129483) scale(0.1 -0.1)">
       <use xlink:href="#CMR17-32" transform="scale(0.996264)"/>
      </g>
     </g>
    </g>
    <g id="ytick_4">
     <g id="line2d_10">
      <g>
       <use xlink:href="#m84559221f8" x="40.334753" y="111.70899" style="stroke: #000000; stroke-width: 0.8"/>
      </g>
     </g>
     <g id="text_11">
      <!-- $\mathdefault{4}$ -->
      <g transform="translate(28.353418 115.25815) scale(0.1 -0.1)">
       <use xlink:href="#CMR17-34" transform="scale(0.996264)"/>
      </g>
     </g>
    </g>
    <g id="ytick_5">
     <g id="line2d_11">
      <g>
       <use xlink:href="#m84559221f8" x="40.334753" y="75.837657" style="stroke: #000000; stroke-width: 0.8"/>
      </g>
     </g>
     <g id="text_12">
      <!-- $\mathdefault{6}$ -->
      <g transform="translate(28.353418 79.386817) scale(0.1 -0.1)">
       <defs>
        <path id="CMR17-36" d="M 678 2198 
C 678 3712 1395 4076 1811 4076 
C 1946 4076 2272 4049 2400 3782 
C 2298 3782 2106 3782 2106 3558 
C 2106 3385 2246 3328 2336 3328 
C 2394 3328 2566 3353 2566 3571 
C 2566 3987 2246 4224 1805 4224 
C 1043 4224 243 3411 243 2011 
C 243 257 966 -128 1478 -128 
C 2099 -128 2688 431 2688 1295 
C 2688 2101 2170 2688 1517 2688 
C 1126 2688 838 2430 678 1979 
L 678 2198 
z
M 1478 25 
C 691 25 691 1212 691 1450 
C 691 1914 909 2585 1504 2585 
C 1613 2585 1926 2585 2138 2140 
C 2253 1889 2253 1624 2253 1302 
C 2253 954 2253 696 2118 438 
C 1978 173 1773 25 1478 25 
z
" transform="scale(0.015625)"/>
       </defs>
       <use xlink:href="#CMR17-36" transform="scale(0.996264)"/>
      </g>
     </g>
    </g>
    <g id="ytick_6">
     <g id="line2d_12">
      <g>
       <use xlink:href="#m84559221f8" x="40.334753" y="39.966324" style="stroke: #000000; stroke-width: 0.8"/>
      </g>
     </g>
     <g id="text_13">
      <!-- $\mathdefault{8}$ -->
      <g transform="translate(28.353418 43.515485) scale(0.1 -0.1)">
       <defs>
        <path id="CMR17-38" d="M 1741 2289 
C 2144 2494 2554 2803 2554 3298 
C 2554 3884 1990 4224 1472 4224 
C 890 4224 378 3800 378 3215 
C 378 3054 416 2777 666 2533 
C 730 2469 998 2276 1171 2154 
C 883 2006 211 1652 211 945 
C 211 282 838 -128 1459 -128 
C 2144 -128 2720 366 2720 1022 
C 2720 1607 2330 1877 2074 2051 
L 1741 2289 
z
M 902 2855 
C 851 2887 595 3086 595 3388 
C 595 3781 998 4076 1459 4076 
C 1965 4076 2336 3716 2336 3298 
C 2336 2700 1670 2359 1638 2359 
C 1632 2359 1626 2359 1574 2398 
L 902 2855 
z
M 2080 1536 
C 2176 1466 2483 1253 2483 861 
C 2483 385 2010 25 1472 25 
C 890 25 448 443 448 951 
C 448 1459 838 1884 1280 2083 
L 2080 1536 
z
" transform="scale(0.015625)"/>
       </defs>
       <use xlink:href="#CMR17-38" transform="scale(0.996264)"/>
      </g>
     </g>
    </g>
    <g id="text_14">
     <!-- Aerodynamic Coefficients - Blade_14 -->
     <g transform="translate(14.482687 199.050447) rotate(-90) scale(0.1 -0.1)">
      <defs>
       <path id="NimbusSanL-Regu-41" d="M 3034 1408 
L 3514 0 
L 4179 0 
L 2541 4672 
L 1773 4672 
L 109 0 
L 742 0 
L 1235 1408 
L 3034 1408 
z
M 2867 1907 
L 1382 1907 
L 2150 4032 
L 2867 1907 
z
" transform="scale(0.015625)"/>
       <path id="NimbusSanL-Regu-64" d="M 3168 4672 
L 2637 4672 
L 2637 2937 
C 2413 3276 2054 3456 1606 3456 
C 736 3456 166 2759 166 1695 
C 166 568 723 -128 1626 -128 
C 2086 -128 2406 44 2694 460 
L 2694 19 
L 3168 19 
L 3168 4672 
z
M 1696 2956 
C 2272 2956 2637 2447 2637 1651 
C 2637 880 2266 371 1702 371 
C 1114 371 723 887 723 1663 
C 723 2440 1114 2956 1696 2956 
z
" transform="scale(0.015625)"/>
       <path id="NimbusSanL-Regu-79" d="M 2483 3328 
L 1555 724 
L 698 3328 
L 128 3328 
L 1261 -29 
L 1056 -558 
C 973 -794 851 -884 627 -884 
C 550 -884 461 -871 346 -845 
L 346 -1325 
C 454 -1383 563 -1408 704 -1408 
C 877 -1408 1062 -1351 1203 -1248 
C 1370 -1127 1466 -986 1568 -718 
L 3059 3328 
L 2483 3328 
z
" transform="scale(0.015625)"/>
       <path id="NimbusSanL-Regu-6d" d="M 448 3328 
L 448 0 
L 986 0 
L 986 2089 
C 986 2597 1338 2988 1773 2988 
C 2170 2988 2394 2744 2394 2315 
L 2394 0 
L 2931 0 
L 2931 2109 
C 2931 2597 3283 2988 3718 2988 
C 4109 2988 4339 2738 4339 2315 
L 4339 0 
L 4877 0 
L 4877 2520 
C 4877 3123 4531 3456 3904 3456 
C 3456 3456 3187 3321 2874 2943 
C 2675 3302 2406 3456 1971 3456 
C 1523 3456 1229 3289 941 2886 
L 941 3328 
L 448 3328 
z
" transform="scale(0.015625)"/>
       <path id="NimbusSanL-Regu-63" d="M 3014 2237 
C 2989 2561 2918 2771 2790 2956 
C 2560 3270 2157 3456 1690 3456 
C 787 3456 198 2740 198 1632 
C 198 555 774 -128 1683 -128 
C 2483 -128 2989 352 3053 1167 
L 2515 1167 
C 2426 632 2150 364 1696 364 
C 1107 364 755 842 755 1632 
C 755 2466 1101 2963 1683 2963 
C 2131 2963 2413 2701 2477 2237 
L 3014 2237 
z
" transform="scale(0.015625)"/>
       <path id="NimbusSanL-Regu-43" d="M 4237 3219 
C 4051 4236 3462 4736 2438 4736 
C 1811 4736 1306 4537 960 4154 
C 538 3696 307 3035 307 2284 
C 307 1522 544 867 986 415 
C 1344 44 1805 -128 2413 -128 
C 3552 -128 4192 485 4333 1712 
L 3718 1712 
C 3667 1394 3603 1178 3507 994 
C 3315 612 2918 396 2419 396 
C 1491 396 902 1134 902 2291 
C 902 3480 1466 4211 2368 4211 
C 2746 4211 3098 4096 3290 3918 
C 3462 3759 3558 3562 3629 3219 
L 4237 3219 
z
" transform="scale(0.015625)"/>
       <path id="NimbusSanL-Regu-66" d="M 1651 3328 
L 1094 3328 
L 1094 3860 
C 1094 4087 1222 4204 1466 4204 
C 1510 4204 1530 4204 1651 4198 
L 1651 4639 
C 1530 4665 1459 4672 1350 4672 
C 858 4672 563 4390 563 3905 
L 563 3328 
L 115 3328 
L 115 2892 
L 563 2892 
L 563 0 
L 1094 0 
L 1094 2892 
L 1651 2892 
L 1651 3328 
z
" transform="scale(0.015625)"/>
       <path id="NimbusSanL-Regu-2" d="M 1613 3328 
L 1056 3328 
L 1056 3860 
C 1056 4087 1184 4204 1427 4204 
C 1472 4204 1491 4204 1613 4198 
L 1613 4639 
C 1491 4665 1421 4672 1312 4672 
C 819 4672 525 4390 525 3905 
L 525 3328 
L 77 3328 
L 77 2892 
L 525 2892 
L 525 0 
L 1056 0 
L 1056 2892 
L 1613 2892 
L 1613 3328 
z
M 2790 3328 
L 2259 3328 
L 2259 0 
L 2790 0 
L 2790 3328 
z
M 2790 4672 
L 2259 4672 
L 2259 3999 
L 2790 3999 
L 2790 4672 
z
" transform="scale(0.015625)"/>
       <path id="NimbusSanL-Regu-73" d="M 2803 2428 
C 2797 3084 2362 3456 1587 3456 
C 806 3456 301 3052 301 2434 
C 301 1912 570 1663 1363 1472 
L 1862 1351 
C 2234 1262 2381 1129 2381 887 
C 2381 574 2067 364 1600 364 
C 1312 364 1069 447 934 587 
C 851 683 813 778 781 1014 
L 218 1014 
C 243 243 678 -128 1555 -128 
C 2400 -128 2938 288 2938 931 
C 2938 1428 2656 1702 1990 1861 
L 1478 1982 
C 1043 2084 858 2224 858 2459 
C 858 2765 1133 2963 1568 2963 
C 1997 2963 2227 2778 2240 2428 
L 2803 2428 
z
" transform="scale(0.015625)"/>
       <path id="NimbusSanL-Regu-2d" d="M 1818 1996 
L 294 1996 
L 294 1536 
L 1818 1536 
L 1818 1996 
z
" transform="scale(0.015625)"/>
       <path id="NimbusSanL-Regu-42" d="M 506 0 
L 2611 0 
C 3053 0 3379 121 3629 390 
C 3859 632 3987 961 3987 1321 
C 3987 1878 3731 2214 3136 2444 
C 3558 2643 3782 2994 3782 3476 
C 3782 3821 3654 4127 3411 4345 
C 3168 4569 2848 4672 2400 4672 
L 506 4672 
L 506 0 
z
M 1101 2636 
L 1101 4147 
L 2253 4147 
C 2586 4147 2771 4101 2931 3977 
C 3098 3847 3187 3652 3187 3391 
C 3187 3138 3098 2936 2931 2806 
C 2771 2682 2586 2636 2253 2636 
L 1101 2636 
z
M 1101 524 
L 1101 2112 
L 2554 2112 
C 2842 2112 3034 2042 3174 1890 
C 3315 1745 3392 1542 3392 1315 
C 3392 1093 3315 891 3174 746 
C 3034 594 2842 524 2554 524 
L 1101 524 
z
" transform="scale(0.015625)"/>
       <path id="NimbusSanL-Regu-6c" d="M 973 4672 
L 435 4672 
L 435 0 
L 973 0 
L 973 4672 
z
" transform="scale(0.015625)"/>
       <path id="NimbusSanL-Regu-31" d="M 1658 3232 
L 1658 0 
L 2221 0 
L 2221 4537 
L 1850 4537 
C 1651 3840 1523 3744 653 3635 
L 653 3232 
L 1658 3232 
z
" transform="scale(0.015625)"/>
       <path id="NimbusSanL-Regu-34" d="M 2093 1088 
L 2093 0 
L 2656 0 
L 2656 1088 
L 3328 1088 
L 3328 1593 
L 2656 1593 
L 2656 4537 
L 2240 4537 
L 179 1683 
L 179 1088 
L 2093 1088 
z
M 2093 1593 
L 672 1593 
L 2093 3577 
L 2093 1593 
z
" transform="scale(0.015625)"/>
      </defs>
      <use xlink:href="#NimbusSanL-Regu-41" transform="scale(0.996264)"/>
      <use xlink:href="#NimbusSanL-Regu-65" transform="translate(66.450031 0) scale(0.996264)"/>
      <use xlink:href="#NimbusSanL-Regu-72" transform="translate(121.841708 0) scale(0.996264)"/>
      <use xlink:href="#NimbusSanL-Regu-6f" transform="translate(155.016938 0) scale(0.996264)"/>
      <use xlink:href="#NimbusSanL-Regu-64" transform="translate(210.408615 0) scale(0.996264)"/>
      <use xlink:href="#NimbusSanL-Regu-79" transform="translate(265.800292 0) scale(0.996264)"/>
      <use xlink:href="#NimbusSanL-Regu-6e" transform="translate(315.613492 0) scale(0.996264)"/>
      <use xlink:href="#NimbusSanL-Regu-61" transform="translate(371.005169 0) scale(0.996264)"/>
      <use xlink:href="#NimbusSanL-Regu-6d" transform="translate(426.396846 0) scale(0.996264)"/>
      <use xlink:href="#NimbusSanL-Regu-69" transform="translate(509.385276 0) scale(0.996264)"/>
      <use xlink:href="#NimbusSanL-Regu-63" transform="translate(531.502061 0) scale(0.996264)"/>
      <use xlink:href="#NimbusSanL-Regu-43" transform="translate(609.010431 0) scale(0.996264)"/>
      <use xlink:href="#NimbusSanL-Regu-6f" transform="translate(680.940416 0) scale(0.996264)"/>
      <use xlink:href="#NimbusSanL-Regu-65" transform="translate(736.332093 0) scale(0.996264)"/>
      <use xlink:href="#NimbusSanL-Regu-66" transform="translate(791.72377 0) scale(0.996264)"/>
      <use xlink:href="#NimbusSanL-Regu-2" transform="translate(819.418939 0) scale(0.996264)"/>
      <use xlink:href="#NimbusSanL-Regu-63" transform="translate(869.23214 0) scale(0.996264)"/>
      <use xlink:href="#NimbusSanL-Regu-69" transform="translate(919.04534 0) scale(0.996264)"/>
      <use xlink:href="#NimbusSanL-Regu-65" transform="translate(941.162125 0) scale(0.996264)"/>
      <use xlink:href="#NimbusSanL-Regu-6e" transform="translate(996.553802 0) scale(0.996264)"/>
      <use xlink:href="#NimbusSanL-Regu-74" transform="translate(1051.945479 0) scale(0.996264)"/>
      <use xlink:href="#NimbusSanL-Regu-73" transform="translate(1079.640648 0) scale(0.996264)"/>
      <use xlink:href="#NimbusSanL-Regu-2d" transform="translate(1157.149018 0) scale(0.996264)"/>
      <use xlink:href="#NimbusSanL-Regu-42" transform="translate(1218.019418 0) scale(0.996264)"/>
      <use xlink:href="#NimbusSanL-Regu-6c" transform="translate(1284.469449 0) scale(0.996264)"/>
      <use xlink:href="#NimbusSanL-Regu-61" transform="translate(1306.586233 0) scale(0.996264)"/>
      <use xlink:href="#NimbusSanL-Regu-64" transform="translate(1361.97791 0) scale(0.996264)"/>
      <use xlink:href="#NimbusSanL-Regu-65" transform="translate(1417.369587 0) scale(0.996264)"/>
      <use xlink:href="#NimbusSanL-Regu-31" transform="translate(1508.626829 0) scale(0.996264)"/>
      <use xlink:href="#NimbusSanL-Regu-34" transform="translate(1564.018506 0) scale(0.996264)"/>
      <path d="M 1478.738605 0 
L 1508.626829 0 
L 1508.626829 0.3985 
L 1478.738605 0.3985 
L 1478.738605 0 
z
"/>
     </g>
    </g>
   </g>
   <g id="line2d_13">
    <path d="M 55.552935 123.672362 
L 55.807632 17.28 
L 55.934981 20.508146 
L 56.253353 32.301376 
L 56.444376 33.860423 
L 56.953771 42.588304 
L 57.144795 46.059818 
L 57.335818 53.518388 
L 57.781539 76.516416 
L 57.972562 84.896788 
L 58.163585 103.857137 
L 58.418283 128.474518 
L 58.609306 134.200584 
L 58.864004 150.086648 
L 59.24605 178.704366 
L 59.500748 181.268884 
L 59.946468 187.818532 
L 60.010143 187.765991 
L 60.710561 187.818937 
L 60.774236 187.900255 
L 60.83791 187.850051 
L 61.156282 187.784621 
L 61.347305 187.488608 
L 61.474654 186.913962 
L 61.602003 185.312795 
L 61.729352 183.35664 
L 61.920375 182.566684 
L 62.111398 180.783711 
L 62.302421 176.627952 
L 62.493444 166.992751 
L 62.620793 162.247165 
L 62.811816 160.590677 
L 63.00284 157.258628 
L 63.193863 150.661896 
L 63.703258 128.334902 
L 63.957956 121.792588 
L 64.403676 107.246118 
L 64.658374 107.074153 
L 64.785723 107.291696 
L 64.913072 108.17192 
L 65.04042 110.496896 
L 65.295118 115.877862 
L 65.486141 117.277722 
L 65.677164 120.112141 
L 65.868188 125.764689 
L 66.122885 133.428004 
L 66.313908 135.320294 
L 66.504932 139.082077 
L 66.759629 150.184059 
L 67.078001 168.047796 
L 67.332699 172.357486 
L 67.587396 181.514101 
L 68.287815 213.304553 
L 68.542512 214.79441 
L 68.924559 217.730035 
L 69.115582 217.519115 
L 69.306605 217.326515 
L 69.497628 216.785778 
L 69.688652 215.359147 
L 70.007024 212.45083 
L 70.198047 211.87919 
L 70.38907 210.655085 
L 70.580093 208.009739 
L 70.96214 200.866484 
L 71.153163 199.115571 
L 71.344186 195.495108 
L 71.535209 188.240868 
L 71.662558 184.229223 
L 71.917256 182.148643 
L 72.171953 177.206761 
L 72.426651 166.829922 
L 72.745023 152.084962 
L 72.936046 149.690654 
L 73.190744 142.937383 
L 73.636465 128.636237 
L 73.891162 127.284328 
L 74.209534 125.23558 
L 74.273209 125.402908 
L 74.400557 126.205157 
L 74.591581 126.581067 
L 74.782604 127.500012 
L 74.973627 129.701707 
L 75.16465 134.883643 
L 75.610371 151.784869 
L 75.801394 152.447861 
L 76.056092 154.484893 
L 76.310789 158.558941 
L 76.501813 161.461006 
L 76.75651 162.114176 
L 77.393254 164.23792 
L 77.966324 163.968468 
L 78.093673 163.394648 
L 78.221021 161.456843 
L 78.475719 157.255593 
L 78.666742 156.164584 
L 78.92144 153.076233 
L 79.239812 149.258028 
L 79.494509 149.410043 
L 79.685533 149.874175 
L 79.876556 151.374306 
L 80.067579 155.059647 
L 80.194928 157.279384 
L 80.385951 158.031877 
L 80.576974 159.692933 
L 80.767997 162.984989 
L 81.150044 170.767061 
L 81.404741 173.162586 
L 81.850462 178.369562 
L 82.10516 178.907316 
L 82.359857 179.566176 
L 82.423532 179.520699 
L 82.550881 178.607663 
L 82.805578 175.436526 
L 82.996601 174.520152 
L 83.187625 172.556998 
L 83.378648 168.621918 
L 83.69702 160.663842 
L 83.888043 159.353635 
L 84.142741 155.812391 
L 84.524787 150.666688 
L 84.652136 151.645624 
L 84.779485 152.891556 
L 84.970508 153.371173 
L 85.161531 154.449927 
L 85.352554 156.796817 
L 85.734601 162.349125 
L 85.989298 164.081768 
L 86.30767 168.445306 
L 86.435019 169.511763 
L 86.689717 169.962456 
L 87.199112 171.137179 
L 87.581158 171.042484 
L 87.772182 170.705661 
L 87.89953 170.015961 
L 88.026879 169.331636 
L 88.281577 168.944238 
L 88.4726 168.256336 
L 88.663623 166.884517 
L 89.04567 163.751234 
L 89.236693 163.060503 
L 89.49139 161.079555 
L 89.809762 158.085925 
L 90.06446 157.348042 
L 90.319158 155.71149 
L 90.764878 152.193094 
L 91.08325 151.727526 
L 91.337948 151.464958 
L 91.465297 152.026762 
L 91.719994 154.107454 
L 91.911018 154.717363 
L 92.102041 156.008526 
L 92.356738 159.596256 
L 92.484087 160.967387 
L 92.738785 161.619498 
L 92.993482 163.102404 
L 93.439203 166.165318 
L 93.757575 166.584551 
L 94.075947 166.963353 
L 94.776366 165.492712 
L 94.967389 164.086571 
L 95.222086 162.158607 
L 95.41311 161.6937 
L 95.667807 160.304667 
L 96.049854 157.683372 
L 96.304551 157.244863 
L 96.813946 155.724876 
L 96.877621 155.819759 
L 97.195993 155.936752 
L 97.387016 156.192132 
L 97.578039 156.858955 
L 97.960086 158.705356 
L 98.214783 159.374721 
L 98.469481 160.885392 
L 98.787853 162.885669 
L 99.04255 163.278235 
L 99.424597 164.102703 
L 99.488271 164.062842 
L 99.870318 163.952512 
L 100.061341 163.700375 
L 100.252364 163.041468 
L 100.507062 162.133959 
L 100.761759 161.808967 
L 101.080131 160.866151 
L 101.334829 160.328023 
L 101.844224 160.369839 
L 101.971573 160.591056 
L 102.162596 161.59416 
L 102.289945 162.147908 
L 102.544643 162.427864 
L 102.79934 163.066466 
L 103.181387 164.094278 
L 103.563433 164.347887 
L 103.818131 164.443045 
L 104.773247 163.450219 
L 104.96427 163.255507 
L 105.282642 163.075741 
L 105.537339 162.665588 
L 105.919386 161.934726 
L 106.301432 161.711545 
L 106.938176 161.218772 
L 107.320223 161.182198 
L 108.211664 161.872925 
L 108.530036 162.360657 
L 108.975757 162.577112 
L 109.16678 162.647662 
L 109.294129 162.471608 
L 109.421478 162.241139 
L 109.73985 162.037569 
L 109.994547 161.561712 
L 110.312919 160.815361 
L 110.631291 160.562987 
L 111.013338 160.180524 
L 111.204361 160.302547 
L 111.522733 160.472956 
L 111.713756 160.781221 
L 112.095803 161.577823 
L 112.3505 161.860352 
L 112.668872 162.665282 
L 112.859895 163.051281 
L 113.369291 163.258022 
L 113.560314 163.246005 
L 113.751337 162.837039 
L 113.878686 162.579897 
L 114.197058 162.379088 
L 114.451756 161.953729 
L 114.770128 161.349704 
L 115.0885 161.142759 
L 115.661569 160.635159 
L 116.170964 160.716918 
L 116.361988 160.989917 
L 117.062406 162.322544 
L 117.253429 162.315946 
L 117.508127 161.989154 
L 117.762824 161.698286 
L 118.144871 161.489393 
L 118.71794 161.050097 
L 119.354684 161.000299 
L 119.545708 161.080056 
L 119.991428 161.226532 
L 121.073893 161.942266 
L 121.392265 162.005525 
L 121.965335 161.911268 
L 122.47473 161.540489 
L 122.856776 161.328828 
L 123.238823 161.08421 
L 124.448636 160.969457 
L 124.830683 161.12711 
L 125.021706 161.196833 
L 125.594776 161.357892 
L 126.040496 161.47092 
L 126.804589 161.418883 
L 127.441333 161.289267 
L 127.82338 161.197062 
L 129.224217 161.136595 
L 130.370356 161.396277 
L 130.943425 161.475388 
L 131.962216 161.434706 
L 134.063471 161.180965 
L 135.464308 161.301565 
L 136.674121 161.370987 
L 137.947609 161.283659 
L 139.603144 161.282176 
L 140.621934 161.326513 
L 153.993558 161.279444 
L 171.312996 161.201671 
L 202.131406 161.330008 
L 241.482185 161.439172 
L 359.916571 161.452308 
L 359.916571 161.452308 
" clip-path="url(#p627538c1ca)" style="fill: none; stroke: #1f77b4; stroke-width: 1.5; stroke-linecap: square"/>
   </g>
   <g id="line2d_14">
    <path d="M 55.552935 191.25948 
L 55.680283 206.057653 
L 55.743958 205.333159 
L 56.126004 202.511438 
L 56.253353 202.734098 
L 56.508051 203.941354 
L 56.762748 206.466475 
L 56.953771 207.25491 
L 57.144795 208.999688 
L 57.399492 213.937969 
L 57.590516 217.097408 
L 57.845213 217.652652 
L 58.036236 218.0946 
L 58.099911 218.008846 
L 58.22726 216.598946 
L 58.354608 214.753709 
L 58.545632 213.891747 
L 58.736655 211.792721 
L 58.927678 206.75396 
L 59.373399 191.818827 
L 59.564422 188.887018 
L 60.137492 177.163668 
L 60.328515 176.744597 
L 60.519538 175.770519 
L 60.774236 172.857364 
L 60.901584 171.687511 
L 61.092608 171.342712 
L 61.347305 170.187331 
L 61.8567 167.140493 
L 62.111398 166.594464 
L 62.42977 165.575982 
L 62.493444 165.616978 
L 62.684468 166.000683 
L 62.939165 166.386374 
L 63.130188 167.291427 
L 63.257537 168.837081 
L 63.703258 176.671748 
L 63.894281 179.104051 
L 64.148979 185.714599 
L 64.403676 192.632057 
L 64.658374 193.595469 
L 64.976746 196.017546 
L 65.295118 198.453327 
L 65.486141 198.898843 
L 65.677164 199.841558 
L 65.868188 201.841058 
L 66.122885 204.669157 
L 66.377583 205.737687 
L 66.63228 208.296369 
L 67.20535 215.870768 
L 67.460048 217.227992 
L 67.77842 218.88 
L 67.842094 218.561794 
L 67.969443 216.300957 
L 68.287815 207.948995 
L 68.478838 206.568771 
L 68.733536 202.624933 
L 69.115582 195.484321 
L 69.37028 194.335189 
L 69.688652 191.368939 
L 69.943349 189.38438 
L 70.198047 189.037159 
L 70.452744 188.222752 
L 70.707442 186.556203 
L 70.834791 185.907279 
L 71.089488 185.592662 
L 71.344186 184.89104 
L 71.726233 183.696359 
L 72.108279 183.382838 
L 72.426651 183.1668 
L 72.554 183.623002 
L 72.681349 184.274493 
L 72.872372 184.528015 
L 73.063395 185.142592 
L 73.254418 186.553163 
L 73.763813 191.618874 
L 74.018511 192.895668 
L 74.400557 194.747285 
L 74.846278 194.967329 
L 75.16465 195.280734 
L 75.483022 196.296213 
L 75.674045 196.05479 
L 75.928743 195.814368 
L 76.119766 195.276282 
L 76.310789 193.728034 
L 76.565487 191.192828 
L 76.820185 190.277077 
L 77.074882 188.31449 
L 77.393254 183.613388 
L 77.520603 182.753873 
L 77.711626 182.546748 
L 78.093673 182.032882 
L 78.221021 182.454771 
L 78.539393 184.030761 
L 78.730417 184.647688 
L 78.92144 186.017886 
L 79.176137 190.046873 
L 79.303486 191.443752 
L 79.494509 191.857502 
L 79.749207 193.068943 
L 80.194928 195.416636 
L 80.5133 195.264626 
L 80.640649 194.967304 
L 80.831672 193.763836 
L 81.086369 192.103453 
L 81.277393 191.694 
L 81.468416 190.820295 
L 81.914137 188.302234 
L 82.168834 187.792935 
L 82.614555 186.638854 
L 82.869253 186.730368 
L 83.12395 186.901405 
L 83.314973 187.387413 
L 83.505997 188.512256 
L 83.633345 189.156649 
L 83.888043 189.496901 
L 84.142741 190.434408 
L 84.652136 192.981065 
L 85.161531 192.863958 
L 85.352554 192.553183 
L 85.479903 191.968389 
L 85.607252 191.3964 
L 85.86195 191.073107 
L 86.052973 190.478675 
L 86.30767 188.866896 
L 86.435019 188.327664 
L 86.689717 188.084694 
L 87.008089 187.361862 
L 87.199112 186.943795 
L 87.644833 186.722806 
L 88.026879 186.559834 
L 88.599949 186.669266 
L 88.790972 186.937575 
L 88.981995 187.151313 
L 89.300367 187.354549 
L 89.555065 187.795793 
L 89.809762 188.223818 
L 90.128134 188.42854 
L 90.446506 188.954843 
L 90.764878 189.590731 
L 91.08325 189.816349 
L 91.401622 190.410901 
L 91.719994 191.032152 
L 92.102041 191.267527 
L 92.420413 191.466911 
L 92.929808 191.351806 
L 93.120831 191.054133 
L 93.566552 189.943661 
L 93.82125 189.438727 
L 94.075947 188.282597 
L 94.26697 187.377266 
L 94.521668 187.157177 
L 95.031063 186.352346 
L 95.094738 186.427609 
L 95.476784 186.542825 
L 95.667807 186.771379 
L 95.85883 187.40376 
L 95.986179 187.79598 
L 96.240877 188.000731 
L 96.495574 188.509842 
L 97.068644 189.970871 
L 97.705388 190.258319 
L 97.896411 190.140858 
L 98.278458 189.956427 
L 98.469481 189.659983 
L 98.787853 188.976665 
L 99.106225 188.729624 
L 99.424597 188.159059 
L 99.61562 188.002427 
L 100.316039 187.920092 
L 100.507062 188.05884 
L 100.889108 188.239039 
L 101.080131 188.509138 
L 101.398503 189.168298 
L 101.716875 189.394074 
L 101.971573 189.804001 
L 102.289945 190.458795 
L 103.245061 190.476701 
L 103.563433 190.326877 
L 103.754456 190.013785 
L 104.136503 189.075633 
L 104.454875 188.857807 
L 104.96427 188.405197 
L 105.409991 188.459174 
L 105.601014 188.727549 
L 105.919386 189.329204 
L 106.237758 189.555387 
L 106.492455 190.006862 
L 106.683479 190.319501 
L 107.447571 190.385901 
L 107.638595 190.231746 
L 107.956967 190.063088 
L 108.14799 189.767483 
L 108.593711 188.805861 
L 108.912083 188.508109 
L 109.294129 188.055412 
L 109.485152 188.164351 
L 109.803524 188.310179 
L 110.058222 188.729004 
L 110.312919 189.2095 
L 110.631291 189.46168 
L 110.949663 190.098334 
L 111.140687 190.363126 
L 111.777431 190.359108 
L 112.159477 190.132283 
L 112.477849 189.893514 
L 113.050919 189.162567 
L 113.49664 188.861941 
L 113.687663 188.806632 
L 115.979941 190.030484 
L 116.489336 190.045302 
L 117.571801 189.415761 
L 117.890173 189.460572 
L 118.335894 189.598636 
L 118.654266 189.729623 
L 119.163661 189.898958 
L 119.545708 190.01454 
L 120.691847 189.931808 
L 121.137568 189.747979 
L 121.392265 189.702655 
L 123.175148 189.671376 
L 126.167845 189.660492 
L 127.950729 189.647717 
L 130.561379 189.680287 
L 247.467579 188.921286 
L 359.916571 188.922729 
L 359.916571 188.922729 
" clip-path="url(#p627538c1ca)" style="fill: none; stroke: #ff7f0e; stroke-width: 1.5; stroke-linecap: square"/>
   </g>
   <g id="patch_3">
    <path d="M 40.334753 228.96 
L 40.334753 7.2 
" style="fill: none; stroke: #000000; stroke-width: 0.8; stroke-linejoin: miter; stroke-linecap: square"/>
   </g>
   <g id="patch_4">
    <path d="M 375.134753 228.96 
L 375.134753 7.2 
" style="fill: none; stroke: #000000; stroke-width: 0.8; stroke-linejoin: miter; stroke-linecap: square"/>
   </g>
   <g id="patch_5">
    <path d="M 40.334753 228.96 
L 375.134753 228.96 
" style="fill: none; stroke: #000000; stroke-width: 0.8; stroke-linejoin: miter; stroke-linecap: square"/>
   </g>
   <g id="patch_6">
    <path d="M 40.334753 7.2 
L 375.134753 7.2 
" style="fill: none; stroke: #000000; stroke-width: 0.8; stroke-linejoin: miter; stroke-linecap: square"/>
   </g>
   <g id="legend_1">
    <g id="patch_7">
     <path d="M 321.748759 43.640613 
L 368.134753 43.640613 
Q 370.134753 43.640613 370.134753 41.640613 
L 370.134753 14.2 
Q 370.134753 12.2 368.134753 12.2 
L 321.748759 12.2 
Q 319.748759 12.2 319.748759 14.2 
L 319.748759 41.640613 
Q 319.748759 43.640613 321.748759 43.640613 
z
" style="fill: #ffffff; opacity: 0.8; stroke: #cccccc; stroke-linejoin: miter"/>
    </g>
    <g id="line2d_15">
     <path d="M 323.748759 19.79832 
L 333.748759 19.79832 
L 343.748759 19.79832 
" style="fill: none; stroke: #1f77b4; stroke-width: 1.5; stroke-linecap: square"/>
    </g>
    <g id="text_15">
     <!-- CD -->
     <g transform="translate(351.748759 23.29832) scale(0.1 -0.1)">
      <defs>
       <path id="NimbusSanL-Regu-44" d="M 570 0 
L 2368 0 
C 3546 0 4269 883 4269 2339 
C 4269 3788 3552 4672 2368 4672 
L 570 4672 
L 570 0 
z
M 1165 524 
L 1165 4147 
L 2266 4147 
C 3187 4147 3674 3525 3674 2332 
C 3674 1153 3187 524 2266 524 
L 1165 524 
z
" transform="scale(0.015625)"/>
      </defs>
      <use xlink:href="#NimbusSanL-Regu-43" transform="scale(0.996264)"/>
      <use xlink:href="#NimbusSanL-Regu-44" transform="translate(71.929985 0) scale(0.996264)"/>
     </g>
    </g>
    <g id="line2d_16">
     <path d="M 323.748759 34.018627 
L 333.748759 34.018627 
L 343.748759 34.018627 
" style="fill: none; stroke: #ff7f0e; stroke-width: 1.5; stroke-linecap: square"/>
    </g>
    <g id="text_16">
     <!-- CL -->
     <g transform="translate(351.748759 37.518627) scale(0.1 -0.1)">
      <defs>
       <path id="NimbusSanL-Regu-4c" d="M 1107 4672 
L 512 4672 
L 512 0 
L 3411 0 
L 3411 524 
L 1107 524 
L 1107 4672 
z
" transform="scale(0.015625)"/>
      </defs>
      <use xlink:href="#NimbusSanL-Regu-43" transform="scale(0.996264)"/>
      <use xlink:href="#NimbusSanL-Regu-4c" transform="translate(71.929985 0) scale(0.996264)"/>
     </g>
    </g>
   </g>
  </g>
 </g>
 <defs>
  <clipPath id="p627538c1ca">
   <rect x="40.334753" y="7.2" width="334.8" height="221.76"/>
  </clipPath>
 </defs>
</svg>
