<?xml version="1.0" encoding="utf-8" standalone="no"?>
<!DOCTYPE svg PUBLIC "-//W3C//DTD SVG 1.1//EN"
  "http://www.w3.org/Graphics/SVG/1.1/DTD/svg11.dtd">
<svg xmlns:xlink="http://www.w3.org/1999/xlink" width="388.320201pt" height="265.600613pt" viewBox="0 0 388.320201 265.600613" xmlns="http://www.w3.org/2000/svg" version="1.1">
 <metadata>
  <rdf:RDF xmlns:dc="http://purl.org/dc/elements/1.1/" xmlns:cc="http://creativecommons.org/ns#" xmlns:rdf="http://www.w3.org/1999/02/22-rdf-syntax-ns#">
   <cc:Work>
    <dc:type rdf:resource="http://purl.org/dc/dcmitype/StillImage"/>
    <dc:date>2025-07-17T19:17:27.648167</dc:date>
    <dc:format>image/svg+xml</dc:format>
    <dc:creator>
     <cc:Agent>
      <dc:title>Matplotlib v3.10.3, https://matplotlib.org/</dc:title>
     </cc:Agent>
    </dc:creator>
   </cc:Work>
  </rdf:RDF>
 </metadata>
 <defs>
  <style type="text/css">*{stroke-linejoin: round; stroke-linecap: butt}</style>
 </defs>
 <g id="figure_1">
  <g id="patch_1">
   <path d="M 0 265.600613 
L 388.320201 265.600613 
L 388.320201 0 
L 0 0 
z
" style="fill: #ffffff"/>
  </g>
  <g id="axes_1">
   <g id="patch_2">
    <path d="M 37.567344 228.96 
L 372.367344 228.96 
L 372.367344 7.2 
L 37.567344 7.2 
z
" style="fill: #ffffff"/>
   </g>
   <g id="matplotlib.axis_1">
    <g id="xtick_1">
     <g id="line2d_1">
      <defs>
       <path id="m6c81719eb3" d="M 0 0 
L 0 3.5 
" style="stroke: #000000; stroke-width: 0.8"/>
      </defs>
      <g>
       <use xlink:href="#m6c81719eb3" x="52.785526" y="228.96" style="stroke: #000000; stroke-width: 0.8"/>
      </g>
     </g>
     <g id="text_1">
      <!-- $\mathdefault{0}$ -->
      <g transform="translate(50.294859 243.05832) scale(0.1 -0.1)">
       <defs>
        <path id="CMR17-30" d="M 2688 2038 
C 2688 2430 2682 3099 2413 3613 
C 2176 4063 1798 4224 1466 4224 
C 1158 4224 768 4082 525 3620 
C 269 3137 243 2539 243 2038 
C 243 1671 250 1112 448 623 
C 723 -39 1216 -128 1466 -128 
C 1760 -128 2208 -7 2470 604 
C 2662 1048 2688 1568 2688 2038 
z
M 1466 -26 
C 1056 -26 813 328 723 816 
C 653 1196 653 1749 653 2109 
C 653 2604 653 3015 736 3407 
C 858 3954 1216 4121 1466 4121 
C 1728 4121 2067 3947 2189 3420 
C 2272 3054 2278 2623 2278 2109 
C 2278 1691 2278 1176 2202 797 
C 2067 96 1690 -26 1466 -26 
z
" transform="scale(0.015625)"/>
       </defs>
       <use xlink:href="#CMR17-30" transform="scale(0.996264)"/>
      </g>
     </g>
    </g>
    <g id="xtick_2">
     <g id="line2d_2">
      <g>
       <use xlink:href="#m6c81719eb3" x="116.459927" y="228.96" style="stroke: #000000; stroke-width: 0.8"/>
      </g>
     </g>
     <g id="text_2">
      <!-- $\mathdefault{1000}$ -->
      <g transform="translate(106.497257 243.05832) scale(0.1 -0.1)">
       <defs>
        <path id="CMR17-31" d="M 1702 4083 
C 1702 4217 1696 4224 1606 4224 
C 1357 3927 979 3833 621 3820 
C 602 3820 570 3820 563 3808 
C 557 3795 557 3782 557 3648 
C 755 3648 1088 3686 1344 3839 
L 1344 467 
C 1344 243 1331 166 781 166 
L 589 166 
L 589 0 
C 896 6 1216 12 1523 12 
C 1830 12 2150 6 2458 0 
L 2458 166 
L 2266 166 
C 1715 166 1702 236 1702 467 
L 1702 4083 
z
" transform="scale(0.015625)"/>
       </defs>
       <use xlink:href="#CMR17-31" transform="scale(0.996264)"/>
       <use xlink:href="#CMR17-30" transform="translate(45.690477 0) scale(0.996264)"/>
       <use xlink:href="#CMR17-30" transform="translate(91.380954 0) scale(0.996264)"/>
       <use xlink:href="#CMR17-30" transform="translate(137.071431 0) scale(0.996264)"/>
      </g>
     </g>
    </g>
    <g id="xtick_3">
     <g id="line2d_3">
      <g>
       <use xlink:href="#m6c81719eb3" x="180.134328" y="228.96" style="stroke: #000000; stroke-width: 0.8"/>
      </g>
     </g>
     <g id="text_3">
      <!-- $\mathdefault{2000}$ -->
      <g transform="translate(170.171658 243.05832) scale(0.1 -0.1)">
       <defs>
        <path id="CMR17-32" d="M 2669 990 
L 2554 990 
C 2490 537 2438 460 2413 422 
C 2381 371 1920 371 1830 371 
L 602 371 
C 832 620 1280 1073 1824 1596 
C 2214 1966 2669 2400 2669 3033 
C 2669 3788 2067 4224 1395 4224 
C 691 4224 262 3603 262 3027 
C 262 2777 448 2745 525 2745 
C 589 2745 781 2783 781 3007 
C 781 3206 614 3264 525 3264 
C 486 3264 448 3257 422 3244 
C 544 3788 915 4057 1306 4057 
C 1862 4057 2227 3616 2227 3033 
C 2227 2477 1901 1998 1536 1583 
L 262 147 
L 262 0 
L 2515 0 
L 2669 990 
z
" transform="scale(0.015625)"/>
       </defs>
       <use xlink:href="#CMR17-32" transform="scale(0.996264)"/>
       <use xlink:href="#CMR17-30" transform="translate(45.690477 0) scale(0.996264)"/>
       <use xlink:href="#CMR17-30" transform="translate(91.380954 0) scale(0.996264)"/>
       <use xlink:href="#CMR17-30" transform="translate(137.071431 0) scale(0.996264)"/>
      </g>
     </g>
    </g>
    <g id="xtick_4">
     <g id="line2d_4">
      <g>
       <use xlink:href="#m6c81719eb3" x="243.808729" y="228.96" style="stroke: #000000; stroke-width: 0.8"/>
      </g>
     </g>
     <g id="text_4">
      <!-- $\mathdefault{3000}$ -->
      <g transform="translate(233.846058 243.05832) scale(0.1 -0.1)">
       <defs>
        <path id="CMR17-33" d="M 1414 2176 
C 1984 2176 2234 1673 2234 1094 
C 2234 322 1824 25 1453 25 
C 1114 25 563 193 390 691 
C 422 678 454 678 486 678 
C 640 678 755 780 755 947 
C 755 1132 614 1216 486 1216 
C 378 1216 211 1164 211 927 
C 211 335 787 -128 1466 -128 
C 2176 -128 2720 432 2720 1087 
C 2720 1718 2208 2176 1600 2246 
C 2086 2347 2554 2776 2554 3353 
C 2554 3856 2048 4224 1472 4224 
C 890 4224 378 3862 378 3347 
C 378 3123 544 3084 627 3084 
C 762 3084 877 3167 877 3334 
C 877 3500 762 3584 627 3584 
C 602 3584 570 3584 544 3571 
C 730 3999 1235 4076 1459 4076 
C 1683 4076 2106 3966 2106 3347 
C 2106 3167 2080 2851 1862 2574 
C 1670 2329 1453 2316 1242 2297 
C 1210 2297 1062 2284 1037 2284 
C 992 2278 966 2272 966 2227 
C 966 2182 973 2176 1101 2176 
L 1414 2176 
z
" transform="scale(0.015625)"/>
       </defs>
       <use xlink:href="#CMR17-33" transform="scale(0.996264)"/>
       <use xlink:href="#CMR17-30" transform="translate(45.690477 0) scale(0.996264)"/>
       <use xlink:href="#CMR17-30" transform="translate(91.380954 0) scale(0.996264)"/>
       <use xlink:href="#CMR17-30" transform="translate(137.071431 0) scale(0.996264)"/>
      </g>
     </g>
    </g>
    <g id="xtick_5">
     <g id="line2d_5">
      <g>
       <use xlink:href="#m6c81719eb3" x="307.48313" y="228.96" style="stroke: #000000; stroke-width: 0.8"/>
      </g>
     </g>
     <g id="text_5">
      <!-- $\mathdefault{4000}$ -->
      <g transform="translate(297.520459 243.05832) scale(0.1 -0.1)">
       <defs>
        <path id="CMR17-34" d="M 2150 4147 
C 2150 4281 2144 4288 2029 4288 
L 128 1254 
L 128 1088 
L 1779 1088 
L 1779 460 
C 1779 230 1766 166 1318 166 
L 1197 166 
L 1197 0 
C 1402 12 1747 12 1965 12 
C 2182 12 2528 12 2733 0 
L 2733 166 
L 2611 166 
C 2163 166 2150 230 2150 460 
L 2150 1088 
L 2803 1088 
L 2803 1254 
L 2150 1254 
L 2150 4147 
z
M 1798 3723 
L 1798 1254 
L 256 1254 
L 1798 3723 
z
" transform="scale(0.015625)"/>
       </defs>
       <use xlink:href="#CMR17-34" transform="scale(0.996264)"/>
       <use xlink:href="#CMR17-30" transform="translate(45.690477 0) scale(0.996264)"/>
       <use xlink:href="#CMR17-30" transform="translate(91.380954 0) scale(0.996264)"/>
       <use xlink:href="#CMR17-30" transform="translate(137.071431 0) scale(0.996264)"/>
      </g>
     </g>
    </g>
    <g id="xtick_6">
     <g id="line2d_6">
      <g>
       <use xlink:href="#m6c81719eb3" x="371.157531" y="228.96" style="stroke: #000000; stroke-width: 0.8"/>
      </g>
     </g>
     <g id="text_6">
      <!-- $\mathdefault{5000}$ -->
      <g transform="translate(361.19486 243.05832) scale(0.1 -0.1)">
       <defs>
        <path id="CMR17-35" d="M 730 3750 
C 794 3724 1056 3641 1325 3641 
C 1920 3641 2246 3961 2432 4140 
C 2432 4191 2432 4224 2394 4224 
C 2387 4224 2374 4224 2323 4198 
C 2099 4102 1837 4032 1517 4032 
C 1325 4032 1037 4055 723 4191 
C 653 4224 640 4224 634 4224 
C 602 4224 595 4217 595 4090 
L 595 2231 
C 595 2113 595 2080 659 2080 
C 691 2080 704 2093 736 2139 
C 941 2435 1222 2560 1542 2560 
C 1766 2560 2246 2415 2246 1293 
C 2246 1087 2246 716 2054 422 
C 1894 159 1645 25 1370 25 
C 947 25 518 319 403 812 
C 429 806 480 793 506 793 
C 589 793 749 838 749 1036 
C 749 1209 627 1280 506 1280 
C 358 1280 262 1190 262 1011 
C 262 454 704 -128 1382 -128 
C 2042 -128 2669 441 2669 1267 
C 2669 2054 2170 2662 1549 2662 
C 1222 2662 947 2540 730 2304 
L 730 3750 
z
" transform="scale(0.015625)"/>
       </defs>
       <use xlink:href="#CMR17-35" transform="scale(0.996264)"/>
       <use xlink:href="#CMR17-30" transform="translate(45.690477 0) scale(0.996264)"/>
       <use xlink:href="#CMR17-30" transform="translate(91.380954 0) scale(0.996264)"/>
       <use xlink:href="#CMR17-30" transform="translate(137.071431 0) scale(0.996264)"/>
      </g>
     </g>
    </g>
    <g id="text_7">
     <!-- Iteration -->
     <g transform="translate(187.019968 256.278627) scale(0.1 -0.1)">
      <defs>
       <path id="NimbusSanL-Regu-49" d="M 1242 4672 
L 640 4672 
L 640 0 
L 1242 0 
L 1242 4672 
z
" transform="scale(0.015625)"/>
       <path id="NimbusSanL-Regu-74" d="M 1626 3328 
L 1075 3328 
L 1075 4249 
L 544 4249 
L 544 3328 
L 90 3328 
L 90 2892 
L 544 2892 
L 544 402 
C 544 64 774 -128 1190 -128 
C 1318 -128 1446 -116 1626 -84 
L 1626 364 
C 1555 345 1472 339 1370 339 
C 1139 339 1075 402 1075 634 
L 1075 2892 
L 1626 2892 
L 1626 3328 
z
" transform="scale(0.015625)"/>
       <path id="NimbusSanL-Regu-65" d="M 3283 1484 
C 3283 1998 3245 2311 3149 2565 
C 2931 3123 2419 3456 1792 3456 
C 858 3456 256 2734 256 1619 
C 256 545 838 -128 1779 -128 
C 2547 -128 3078 307 3213 1018 
L 2675 1018 
C 2528 588 2227 364 1798 364 
C 1459 364 1171 514 992 787 
C 864 974 819 1161 813 1484 
L 3283 1484 
z
M 826 1920 
C 870 2552 1248 2963 1786 2963 
C 2310 2963 2714 2519 2714 1959 
C 2714 1946 2714 1933 2707 1920 
L 826 1920 
z
" transform="scale(0.015625)"/>
       <path id="NimbusSanL-Regu-72" d="M 442 3328 
L 442 0 
L 979 0 
L 979 1727 
C 979 2203 1101 2514 1357 2698 
C 1523 2819 1683 2857 2054 2863 
L 2054 3404 
C 1965 3449 1920 3456 1850 3456 
C 1504 3456 1242 3251 934 2750 
L 934 3328 
L 442 3328 
z
" transform="scale(0.015625)"/>
       <path id="NimbusSanL-Regu-61" d="M 3424 332 
C 3366 320 3341 320 3309 320 
C 3123 320 3021 415 3021 581 
L 3021 2542 
C 3021 3135 2586 3456 1760 3456 
C 1274 3456 870 3315 646 3065 
C 493 2893 429 2702 416 2370 
L 954 2370 
C 998 2778 1242 2963 1741 2963 
C 2221 2963 2490 2784 2490 2466 
L 2490 2326 
C 2490 2103 2355 2007 1933 1956 
C 1178 1861 1062 1835 858 1753 
C 467 1593 269 1294 269 861 
C 269 256 691 -128 1370 -128 
C 1792 -128 2131 19 2509 364 
C 2547 25 2714 -128 3059 -128 
C 3168 -128 3251 -116 3424 -71 
L 3424 332 
z
M 2490 1071 
C 2490 893 2438 785 2278 638 
C 2061 441 1798 339 1485 339 
C 1069 339 826 536 826 874 
C 826 1224 1062 1402 1632 1485 
C 2195 1562 2310 1587 2490 1670 
L 2490 1071 
z
" transform="scale(0.015625)"/>
       <path id="NimbusSanL-Regu-69" d="M 960 3358 
L 429 3358 
L 429 0 
L 960 0 
L 960 3358 
z
M 960 4672 
L 422 4672 
L 422 3999 
L 960 3999 
L 960 4672 
z
" transform="scale(0.015625)"/>
       <path id="NimbusSanL-Regu-6f" d="M 1741 3456 
C 800 3456 230 2784 230 1663 
C 230 543 794 -128 1747 -128 
C 2688 -128 3264 543 3264 1638 
C 3264 2791 2707 3456 1741 3456 
z
M 1747 2963 
C 2349 2963 2707 2472 2707 1644 
C 2707 861 2336 364 1747 364 
C 1152 364 787 855 787 1663 
C 787 2466 1152 2963 1747 2963 
z
" transform="scale(0.015625)"/>
       <path id="NimbusSanL-Regu-6e" d="M 448 3328 
L 448 0 
L 986 0 
L 986 1835 
C 986 2539 1344 2988 1894 2988 
C 2317 2988 2586 2732 2586 2328 
L 2586 0 
L 3117 0 
L 3117 2539 
C 3117 3097 2701 3456 2054 3456 
C 1555 3456 1235 3263 941 2796 
L 941 3328 
L 448 3328 
z
" transform="scale(0.015625)"/>
      </defs>
      <use xlink:href="#NimbusSanL-Regu-49" transform="scale(0.996264)"/>
      <use xlink:href="#NimbusSanL-Regu-74" transform="translate(27.69517 0) scale(0.996264)"/>
      <use xlink:href="#NimbusSanL-Regu-65" transform="translate(55.390339 0) scale(0.996264)"/>
      <use xlink:href="#NimbusSanL-Regu-72" transform="translate(110.782016 0) scale(0.996264)"/>
      <use xlink:href="#NimbusSanL-Regu-61" transform="translate(142.961149 0) scale(0.996264)"/>
      <use xlink:href="#NimbusSanL-Regu-74" transform="translate(198.352826 0) scale(0.996264)"/>
      <use xlink:href="#NimbusSanL-Regu-69" transform="translate(226.047996 0) scale(0.996264)"/>
      <use xlink:href="#NimbusSanL-Regu-6f" transform="translate(248.16478 0) scale(0.996264)"/>
      <use xlink:href="#NimbusSanL-Regu-6e" transform="translate(303.556457 0) scale(0.996264)"/>
     </g>
    </g>
   </g>
   <g id="matplotlib.axis_2">
    <g id="ytick_1">
     <g id="line2d_7">
      <defs>
       <path id="md86e1f18bb" d="M 0 0 
L -3.5 0 
" style="stroke: #000000; stroke-width: 0.8"/>
      </defs>
      <g>
       <use xlink:href="#md86e1f18bb" x="37.567344" y="219.541289" style="stroke: #000000; stroke-width: 0.8"/>
      </g>
     </g>
     <g id="text_8">
      <!-- $\mathdefault{0}$ -->
      <g transform="translate(25.586009 223.090449) scale(0.1 -0.1)">
       <use xlink:href="#CMR17-30" transform="scale(0.996264)"/>
      </g>
     </g>
    </g>
    <g id="ytick_2">
     <g id="line2d_8">
      <g>
       <use xlink:href="#md86e1f18bb" x="37.567344" y="186.476848" style="stroke: #000000; stroke-width: 0.8"/>
      </g>
     </g>
     <g id="text_9">
      <!-- $\mathdefault{5}$ -->
      <g transform="translate(25.586009 190.026008) scale(0.1 -0.1)">
       <use xlink:href="#CMR17-35" transform="scale(0.996264)"/>
      </g>
     </g>
    </g>
    <g id="ytick_3">
     <g id="line2d_9">
      <g>
       <use xlink:href="#md86e1f18bb" x="37.567344" y="153.412406" style="stroke: #000000; stroke-width: 0.8"/>
      </g>
     </g>
     <g id="text_10">
      <!-- $\mathdefault{10}$ -->
      <g transform="translate(20.604674 156.961567) scale(0.1 -0.1)">
       <use xlink:href="#CMR17-31" transform="scale(0.996264)"/>
       <use xlink:href="#CMR17-30" transform="translate(45.690477 0) scale(0.996264)"/>
      </g>
     </g>
    </g>
    <g id="ytick_4">
     <g id="line2d_10">
      <g>
       <use xlink:href="#md86e1f18bb" x="37.567344" y="120.347965" style="stroke: #000000; stroke-width: 0.8"/>
      </g>
     </g>
     <g id="text_11">
      <!-- $\mathdefault{15}$ -->
      <g transform="translate(20.604674 123.897125) scale(0.1 -0.1)">
       <use xlink:href="#CMR17-31" transform="scale(0.996264)"/>
       <use xlink:href="#CMR17-35" transform="translate(45.690477 0) scale(0.996264)"/>
      </g>
     </g>
    </g>
    <g id="ytick_5">
     <g id="line2d_11">
      <g>
       <use xlink:href="#md86e1f18bb" x="37.567344" y="87.283524" style="stroke: #000000; stroke-width: 0.8"/>
      </g>
     </g>
     <g id="text_12">
      <!-- $\mathdefault{20}$ -->
      <g transform="translate(20.604674 90.832684) scale(0.1 -0.1)">
       <use xlink:href="#CMR17-32" transform="scale(0.996264)"/>
       <use xlink:href="#CMR17-30" transform="translate(45.690477 0) scale(0.996264)"/>
      </g>
     </g>
    </g>
    <g id="ytick_6">
     <g id="line2d_12">
      <g>
       <use xlink:href="#md86e1f18bb" x="37.567344" y="54.219083" style="stroke: #000000; stroke-width: 0.8"/>
      </g>
     </g>
     <g id="text_13">
      <!-- $\mathdefault{25}$ -->
      <g transform="translate(20.604674 57.768243) scale(0.1 -0.1)">
       <use xlink:href="#CMR17-32" transform="scale(0.996264)"/>
       <use xlink:href="#CMR17-35" transform="translate(45.690477 0) scale(0.996264)"/>
      </g>
     </g>
    </g>
    <g id="ytick_7">
     <g id="line2d_13">
      <g>
       <use xlink:href="#md86e1f18bb" x="37.567344" y="21.154642" style="stroke: #000000; stroke-width: 0.8"/>
      </g>
     </g>
     <g id="text_14">
      <!-- $\mathdefault{30}$ -->
      <g transform="translate(20.604674 24.703802) scale(0.1 -0.1)">
       <use xlink:href="#CMR17-33" transform="scale(0.996264)"/>
       <use xlink:href="#CMR17-30" transform="translate(45.690477 0) scale(0.996264)"/>
      </g>
     </g>
    </g>
    <g id="text_15">
     <!-- Average CFL - Blade_14 -->
     <g transform="translate(14.482687 171.548902) rotate(-90) scale(0.1 -0.1)">
      <defs>
       <path id="NimbusSanL-Regu-41" d="M 3034 1408 
L 3514 0 
L 4179 0 
L 2541 4672 
L 1773 4672 
L 109 0 
L 742 0 
L 1235 1408 
L 3034 1408 
z
M 2867 1907 
L 1382 1907 
L 2150 4032 
L 2867 1907 
z
" transform="scale(0.015625)"/>
       <path id="NimbusSanL-Regu-76" d="M 1824 0 
L 3110 3328 
L 2509 3328 
L 1562 629 
L 666 3328 
L 64 3328 
L 1242 0 
L 1824 0 
z
" transform="scale(0.015625)"/>
       <path id="NimbusSanL-Regu-67" d="M 2637 3359 
L 2637 2873 
C 2368 3270 2042 3456 1613 3456 
C 762 3456 186 2714 186 1632 
C 186 1084 333 638 608 320 
C 858 38 1216 -128 1568 -128 
C 1990 -128 2285 51 2586 473 
L 2586 300 
C 2586 -155 2528 -441 2394 -634 
C 2253 -841 1978 -960 1651 -960 
C 1408 -960 1190 -894 1043 -774 
C 922 -674 870 -581 838 -375 
L 294 -375 
C 352 -1031 845 -1408 1632 -1408 
C 2131 -1408 2560 -1248 2778 -980 
C 3034 -661 3130 -222 3130 568 
L 3130 3359 
L 2637 3359 
z
M 1670 2963 
C 2246 2963 2586 2479 2586 1644 
C 2586 848 2240 364 1677 364 
C 1094 364 742 855 742 1663 
C 742 2466 1101 2963 1670 2963 
z
" transform="scale(0.015625)"/>
       <path id="NimbusSanL-Regu-43" d="M 4237 3219 
C 4051 4236 3462 4736 2438 4736 
C 1811 4736 1306 4537 960 4154 
C 538 3696 307 3035 307 2284 
C 307 1522 544 867 986 415 
C 1344 44 1805 -128 2413 -128 
C 3552 -128 4192 485 4333 1712 
L 3718 1712 
C 3667 1394 3603 1178 3507 994 
C 3315 612 2918 396 2419 396 
C 1491 396 902 1134 902 2291 
C 902 3480 1466 4211 2368 4211 
C 2746 4211 3098 4096 3290 3918 
C 3462 3759 3558 3562 3629 3219 
L 4237 3219 
z
" transform="scale(0.015625)"/>
       <path id="NimbusSanL-Regu-46" d="M 1171 2112 
L 3398 2112 
L 3398 2636 
L 1171 2636 
L 1171 4147 
L 3706 4147 
L 3706 4672 
L 576 4672 
L 576 0 
L 1171 0 
L 1171 2112 
z
" transform="scale(0.015625)"/>
       <path id="NimbusSanL-Regu-4c" d="M 1107 4672 
L 512 4672 
L 512 0 
L 3411 0 
L 3411 524 
L 1107 524 
L 1107 4672 
z
" transform="scale(0.015625)"/>
       <path id="NimbusSanL-Regu-2d" d="M 1818 1996 
L 294 1996 
L 294 1536 
L 1818 1536 
L 1818 1996 
z
" transform="scale(0.015625)"/>
       <path id="NimbusSanL-Regu-42" d="M 506 0 
L 2611 0 
C 3053 0 3379 121 3629 390 
C 3859 632 3987 961 3987 1321 
C 3987 1878 3731 2214 3136 2444 
C 3558 2643 3782 2994 3782 3476 
C 3782 3821 3654 4127 3411 4345 
C 3168 4569 2848 4672 2400 4672 
L 506 4672 
L 506 0 
z
M 1101 2636 
L 1101 4147 
L 2253 4147 
C 2586 4147 2771 4101 2931 3977 
C 3098 3847 3187 3652 3187 3391 
C 3187 3138 3098 2936 2931 2806 
C 2771 2682 2586 2636 2253 2636 
L 1101 2636 
z
M 1101 524 
L 1101 2112 
L 2554 2112 
C 2842 2112 3034 2042 3174 1890 
C 3315 1745 3392 1542 3392 1315 
C 3392 1093 3315 891 3174 746 
C 3034 594 2842 524 2554 524 
L 1101 524 
z
" transform="scale(0.015625)"/>
       <path id="NimbusSanL-Regu-6c" d="M 973 4672 
L 435 4672 
L 435 0 
L 973 0 
L 973 4672 
z
" transform="scale(0.015625)"/>
       <path id="NimbusSanL-Regu-64" d="M 3168 4672 
L 2637 4672 
L 2637 2937 
C 2413 3276 2054 3456 1606 3456 
C 736 3456 166 2759 166 1695 
C 166 568 723 -128 1626 -128 
C 2086 -128 2406 44 2694 460 
L 2694 19 
L 3168 19 
L 3168 4672 
z
M 1696 2956 
C 2272 2956 2637 2447 2637 1651 
C 2637 880 2266 371 1702 371 
C 1114 371 723 887 723 1663 
C 723 2440 1114 2956 1696 2956 
z
" transform="scale(0.015625)"/>
       <path id="NimbusSanL-Regu-31" d="M 1658 3232 
L 1658 0 
L 2221 0 
L 2221 4537 
L 1850 4537 
C 1651 3840 1523 3744 653 3635 
L 653 3232 
L 1658 3232 
z
" transform="scale(0.015625)"/>
       <path id="NimbusSanL-Regu-34" d="M 2093 1088 
L 2093 0 
L 2656 0 
L 2656 1088 
L 3328 1088 
L 3328 1593 
L 2656 1593 
L 2656 4537 
L 2240 4537 
L 179 1683 
L 179 1088 
L 2093 1088 
z
M 2093 1593 
L 672 1593 
L 2093 3577 
L 2093 1593 
z
" transform="scale(0.015625)"/>
      </defs>
      <use xlink:href="#NimbusSanL-Regu-41" transform="scale(0.996264)"/>
      <use xlink:href="#NimbusSanL-Regu-76" transform="translate(62.465918 0) scale(0.996264)"/>
      <use xlink:href="#NimbusSanL-Regu-65" transform="translate(109.788488 0) scale(0.996264)"/>
      <use xlink:href="#NimbusSanL-Regu-72" transform="translate(165.180165 0) scale(0.996264)"/>
      <use xlink:href="#NimbusSanL-Regu-61" transform="translate(197.359298 0) scale(0.996264)"/>
      <use xlink:href="#NimbusSanL-Regu-67" transform="translate(252.750975 0) scale(0.996264)"/>
      <use xlink:href="#NimbusSanL-Regu-65" transform="translate(308.142652 0) scale(0.996264)"/>
      <use xlink:href="#NimbusSanL-Regu-43" transform="translate(391.229499 0) scale(0.996264)"/>
      <use xlink:href="#NimbusSanL-Regu-46" transform="translate(463.159484 0) scale(0.996264)"/>
      <use xlink:href="#NimbusSanL-Regu-4c" transform="translate(524.031114 0) scale(0.996264)"/>
      <use xlink:href="#NimbusSanL-Regu-2d" transform="translate(607.117961 0) scale(0.996264)"/>
      <use xlink:href="#NimbusSanL-Regu-42" transform="translate(667.98836 0) scale(0.996264)"/>
      <use xlink:href="#NimbusSanL-Regu-6c" transform="translate(734.438391 0) scale(0.996264)"/>
      <use xlink:href="#NimbusSanL-Regu-61" transform="translate(756.555176 0) scale(0.996264)"/>
      <use xlink:href="#NimbusSanL-Regu-64" transform="translate(811.946853 0) scale(0.996264)"/>
      <use xlink:href="#NimbusSanL-Regu-65" transform="translate(867.33853 0) scale(0.996264)"/>
      <use xlink:href="#NimbusSanL-Regu-31" transform="translate(958.595772 0) scale(0.996264)"/>
      <use xlink:href="#NimbusSanL-Regu-34" transform="translate(1013.987449 0) scale(0.996264)"/>
      <path d="M 928.707548 0 
L 958.595772 0 
L 958.595772 0.3985 
L 928.707548 0.3985 
L 928.707548 0 
z
"/>
     </g>
    </g>
   </g>
   <g id="line2d_14">
    <path d="M 52.785526 125.063144 
L 52.912875 84.847752 
L 52.976549 206.071935 
L 53.040224 203.378064 
L 53.294921 186.025227 
L 53.549619 150.042382 
L 53.804317 75.629127 
L 53.867991 205.150073 
L 53.931665 202.271829 
L 54.186363 183.731338 
L 54.441061 145.285774 
L 54.695758 65.84964 
L 54.759433 204.172124 
L 54.823107 201.098291 
L 55.077805 181.297888 
L 55.332502 140.239774 
L 55.459851 105.425373 
L 55.523525 208.129697 
L 55.5872 205.847379 
L 55.841897 191.145597 
L 56.096595 160.679794 
L 56.351293 97.888505 
L 56.414967 207.37601 
L 56.478641 204.942955 
L 56.733339 189.270183 
L 56.988037 156.779797 
L 57.17906 111.124075 
L 57.242734 208.699567 
L 57.306409 206.531223 
L 57.561106 192.563617 
L 57.815804 163.600388 
L 58.006827 122.875412 
L 58.070501 209.874701 
L 58.134176 207.941384 
L 58.388873 195.487725 
L 58.643571 169.66382 
L 58.834594 133.359255 
L 58.898269 210.923085 
L 58.961943 209.199445 
L 59.216641 198.096441 
L 59.471338 175.073252 
L 59.726036 142.700522 
L 59.78971 211.857212 
L 59.853385 210.320397 
L 60.108082 200.420847 
L 60.36278 179.893141 
L 60.617478 137.326889 
L 60.681152 211.319849 
L 60.744826 209.675561 
L 60.999524 199.083715 
L 61.254222 177.120464 
L 61.508919 131.577467 
L 61.572594 210.744907 
L 61.636268 208.98563 
L 61.890966 197.653075 
L 62.145663 174.153889 
L 62.336686 141.111862 
L 62.400361 211.698346 
L 62.464035 210.129758 
L 62.718733 200.025538 
L 62.97343 179.073427 
L 63.164454 149.612824 
L 63.228128 212.548442 
L 63.291802 211.149873 
L 63.5465 202.140849 
L 63.801198 183.459737 
L 64.055895 144.722583 
L 64.11957 129.758842 
L 64.183244 210.563044 
L 64.246918 208.767395 
L 64.501616 197.200543 
L 64.756314 173.215518 
L 65.329383 104.267947 
L 65.393058 208.013955 
L 65.456732 205.708488 
L 65.71143 190.857593 
L 65.966127 160.062776 
L 66.15715 116.762419 
L 66.220825 209.263402 
L 66.284499 207.207825 
L 66.539197 193.966617 
L 66.793894 166.50965 
L 66.921243 155.903322 
L 66.984918 155.903322 
L 67.048592 143.175729 
L 67.112266 211.904733 
L 67.175941 210.377422 
L 67.430638 200.539094 
L 67.685336 180.138337 
L 67.940034 137.835328 
L 68.003708 211.370693 
L 68.067382 209.736574 
L 68.32208 199.210231 
L 68.576778 177.382808 
L 68.767801 146.691434 
L 68.831475 212.256303 
L 68.89515 210.799306 
L 69.149847 201.413914 
L 69.404545 181.952364 
L 69.659242 141.596894 
L 69.786591 107.30136 
L 69.850266 208.317296 
L 69.91394 206.072497 
L 70.168638 191.612403 
L 70.423335 161.627951 
L 70.678033 99.452191 
L 70.741707 207.532379 
L 70.805382 205.130597 
L 71.060079 189.659278 
L 71.314777 157.577952 
L 71.5058 112.468643 
L 71.569474 208.834024 
L 71.633149 206.692571 
L 71.887846 192.898188 
L 72.142544 164.294155 
L 72.397242 104.980833 
L 72.52459 82.068742 
L 72.715614 82.068742 
L 72.779288 205.794034 
L 72.842962 203.044583 
L 73.09766 185.33372 
L 73.352358 148.608474 
L 73.607055 72.455004 
L 73.67073 204.83266 
L 73.734404 201.890935 
L 73.989102 182.941514 
L 74.243799 143.647997 
L 74.625846 30.694492 
L 74.68952 200.656609 
L 74.753195 196.879673 
L 75.007892 172.550163 
L 75.26259 122.10049 
L 75.517287 51.163588 
L 75.580962 202.703519 
L 75.644636 199.335965 
L 75.899334 177.643529 
L 76.154031 132.662093 
L 76.408729 39.400524 
L 76.472403 201.527212 
L 76.536078 197.924397 
L 76.790775 174.716502 
L 77.045473 126.592611 
L 77.300171 26.802911 
L 77.363845 200.267451 
L 77.427519 196.412683 
L 77.682217 171.581813 
L 77.936915 120.092519 
L 78.127938 47.693815 
L 78.191612 202.356541 
L 78.255287 198.919592 
L 78.509984 176.780138 
L 78.764682 130.871767 
L 78.892031 91.857177 
L 78.955705 206.772878 
L 79.019379 204.219195 
L 79.274077 187.769396 
L 79.528775 153.659092 
L 79.783472 82.927965 
L 79.847147 55.6053 
L 79.910821 203.14769 
L 79.974495 199.86897 
L 80.229193 178.748769 
L 80.483891 134.953919 
L 80.738588 44.14092 
L 80.802263 202.001252 
L 80.865937 198.493245 
L 81.120635 175.896064 
L 81.375332 129.038551 
L 81.693704 63.152558 
L 81.821053 63.152558 
L 81.884727 31.874812 
L 81.948402 200.774641 
L 82.012076 197.021312 
L 82.266774 172.843864 
L 82.521471 122.709509 
L 82.712495 52.215973 
L 82.776169 202.808757 
L 82.839843 199.462251 
L 83.094541 177.905396 
L 83.349239 133.205101 
L 83.540262 70.352356 
L 83.603936 204.622396 
L 83.667611 201.638617 
L 83.922308 182.418308 
L 84.177006 142.563076 
L 84.304355 108.692663 
L 84.368029 208.456426 
L 84.431703 206.239454 
L 84.686401 191.958604 
L 84.941099 162.345833 
L 85.132122 120.707541 
L 85.195796 209.657914 
L 85.259471 207.681239 
L 85.514168 194.94829 
L 85.768866 168.545246 
L 86.023563 113.795894 
L 86.087238 208.966749 
L 86.150912 206.851841 
L 86.40561 193.228451 
L 86.660307 164.978988 
L 86.851331 125.257632 
L 86.915005 210.112923 
L 86.978679 208.22725 
L 87.233377 196.080498 
L 87.488075 170.892993 
L 87.742772 118.664183 
L 87.806447 98.488761 
L 87.870121 207.436036 
L 87.933796 205.014986 
L 88.188493 189.419546 
L 88.443191 157.080844 
L 88.697888 90.023309 
L 88.761563 64.197972 
L 88.825237 204.006957 
L 88.888912 200.900091 
L 89.143609 180.886901 
L 89.398307 139.38755 
L 89.58933 81.035627 
L 89.653004 205.690723 
L 89.716679 202.920609 
L 89.971376 185.076648 
L 90.226074 148.07541 
L 90.480772 71.349642 
L 90.544446 204.722124 
L 90.60812 201.758291 
L 90.862818 182.666465 
L 91.117516 143.077654 
L 91.372213 60.986296 
L 91.435888 203.68579 
L 91.499562 200.51469 
L 91.75426 180.087733 
L 92.008957 137.730395 
L 92.263655 49.919429 
L 92.327329 202.579103 
L 92.391004 199.186666 
L 92.645701 177.333942 
L 92.900399 132.020135 
L 93.091422 68.304735 
L 93.155096 204.417633 
L 93.218771 201.392902 
L 93.473468 181.908795 
L 93.728166 141.506549 
L 94.046538 57.728452 
L 94.110212 203.360005 
L 94.173887 200.123748 
L 94.428584 179.277077 
L 94.683282 136.049419 
L 94.93798 46.428617 
L 95.001654 202.230022 
L 95.065328 198.767768 
L 95.320026 176.465316 
L 95.574724 130.218952 
L 95.829421 34.328223 
L 95.893096 201.019982 
L 95.95677 197.315721 
L 96.211468 173.454351 
L 96.466165 123.975415 
L 96.657188 54.403459 
L 96.720863 203.027506 
L 96.784537 199.724749 
L 97.039235 178.449712 
L 97.293932 134.333796 
L 97.54863 42.855031 
L 97.612304 201.872663 
L 97.675979 198.338938 
L 97.930676 175.576094 
L 98.185374 128.375061 
L 98.440072 30.500043 
L 98.503746 200.637164 
L 98.56742 196.856339 
L 98.822118 172.501777 
L 99.076816 122.000158 
L 99.395188 17.28 
L 99.458862 199.31516 
L 99.522536 195.269934 
L 99.777234 169.212208 
L 100.031932 115.178906 
L 100.222955 39.203092 
L 100.286629 201.507469 
L 100.350304 197.900705 
L 100.605001 174.667375 
L 100.859699 126.49074 
L 101.178071 26.591672 
L 101.241745 200.246327 
L 101.30542 196.387335 
L 101.560117 171.52925 
L 101.814815 119.983524 
L 102.005838 47.505472 
L 102.069513 202.337707 
L 102.133187 198.896991 
L 102.387885 176.733272 
L 102.642582 130.774586 
L 102.960954 35.474654 
L 103.024629 201.134625 
L 103.088303 197.453293 
L 103.343001 173.73962 
L 103.597698 124.566948 
L 103.788721 55.425628 
L 103.852396 203.129723 
L 103.91607 199.84741 
L 104.170768 178.704061 
L 104.425465 134.861213 
L 104.680163 43.948683 
L 104.743837 201.982028 
L 104.807512 198.470176 
L 105.062209 175.84823 
L 105.316907 128.939361 
L 105.571605 31.669131 
L 105.635279 200.754073 
L 105.698953 196.99663 
L 105.953651 172.792684 
L 106.208349 122.603382 
L 106.526721 18.530846 
L 106.590395 199.440245 
L 106.654069 195.420036 
L 106.908767 169.523458 
L 107.163465 115.824315 
L 107.354488 40.318359 
L 107.418162 201.618996 
L 107.481837 198.034537 
L 107.736534 174.944889 
L 107.991232 127.066193 
L 108.245929 27.784931 
L 108.309604 200.365653 
L 108.373278 196.530526 
L 108.627976 171.826171 
L 108.882673 120.59922 
L 109.073697 48.569394 
L 109.137371 202.444099 
L 109.201045 199.024661 
L 109.455743 176.99801 
L 109.710441 131.323546 
L 109.965138 36.612978 
L 110.028813 201.248458 
L 110.092487 197.589892 
L 110.347185 174.022871 
L 110.601882 125.154299 
L 110.983929 23.820426 
L 111.047603 199.969203 
L 111.111277 196.054785 
L 111.365975 170.839675 
L 111.620673 118.553622 
L 111.811696 45.034601 
L 111.87537 202.09062 
L 111.939045 198.600486 
L 112.193742 176.118441 
L 112.44844 129.499671 
L 112.703137 32.83099 
L 112.766812 200.870259 
L 112.830486 197.136053 
L 113.085184 173.081792 
L 113.339881 123.202876 
L 113.658253 53.068511 
L 114.740718 53.068511 
L 114.804393 19.773956 
L 114.868067 199.564556 
L 114.931741 195.569209 
L 115.186439 169.832784 
L 115.441137 116.465733 
L 115.63216 41.426728 
L 115.695834 201.729833 
L 115.759509 198.167542 
L 116.014206 175.220686 
L 116.268904 127.638088 
L 116.587276 28.970811 
L 116.65095 200.484241 
L 116.714625 196.672831 
L 116.969322 172.121256 
L 117.22402 121.211108 
L 117.415043 49.626736 
L 117.478718 202.549834 
L 117.542392 199.151543 
L 117.79709 177.261111 
L 118.051787 131.869112 
L 118.370159 37.744263 
L 118.433834 201.361586 
L 118.497508 197.725646 
L 118.752206 174.304371 
L 119.006903 125.738017 
L 119.38895 25.030823 
L 119.452624 200.090242 
L 119.516298 196.200033 
L 119.770996 171.140861 
L 120.025694 119.178161 
L 120.216717 46.113804 
L 120.280391 202.19854 
L 120.344066 198.729991 
L 120.598763 176.386981 
L 120.853461 130.056516 
L 121.235507 33.985664 
L 121.299182 200.985726 
L 121.362856 197.274614 
L 121.617554 173.369112 
L 121.872251 123.798662 
L 122.063274 54.09803 
L 122.126949 202.996963 
L 122.190623 199.688098 
L 122.445321 178.373712 
L 122.700018 134.176201 
L 122.954716 42.528243 
L 123.01839 201.839984 
L 123.082065 198.299723 
L 123.336762 175.494779 
L 123.59146 128.206445 
L 123.909832 30.149357 
L 123.973506 200.602096 
L 124.037181 196.814257 
L 124.291878 172.414516 
L 124.546576 121.819212 
L 124.737599 50.67754 
L 124.801274 202.654914 
L 124.864948 199.277639 
L 125.119646 177.522584 
L 125.374343 132.411303 
L 125.692715 68.980674 
L 125.947413 68.980674 
L 126.011087 38.868551 
L 126.074762 201.474015 
L 126.138436 197.86056 
L 126.393134 174.58413 
L 126.647831 126.318125 
L 126.838854 58.451661 
L 126.902529 203.432326 
L 126.966203 200.210534 
L 127.220901 179.457035 
L 127.475598 136.422579 
L 127.730296 47.186333 
L 127.79397 202.305793 
L 127.857645 198.858694 
L 128.112342 176.65386 
L 128.36704 130.609917 
L 128.621738 35.133197 
L 128.685412 201.10048 
L 128.749086 197.412318 
L 129.003784 173.654654 
L 129.258482 124.390764 
L 129.449505 55.121181 
L 129.513179 203.099278 
L 129.576854 199.810876 
L 129.831551 178.628305 
L 130.086249 134.704125 
L 130.340947 43.622946 
L 130.404621 201.949455 
L 130.468295 198.431088 
L 130.722993 175.767176 
L 130.977691 128.771288 
L 131.168714 62.690727 
L 131.232388 203.856233 
L 131.296063 200.719221 
L 131.55076 180.51185 
L 131.805458 138.609844 
L 132.060155 51.721845 
L 132.12383 202.759344 
L 132.187504 199.402956 
L 132.442202 177.782441 
L 132.696899 132.950142 
L 132.951597 39.985887 
L 133.015271 201.585749 
L 133.078946 197.994641 
L 133.333643 174.862159 
L 133.588341 126.894645 
L 133.906713 27.429209 
L 133.970387 200.330081 
L 134.034062 196.487839 
L 134.288759 171.737656 
L 134.543457 120.415675 
L 134.73448 48.252228 
L 134.798155 202.412383 
L 134.861829 198.986602 
L 135.116527 176.919089 
L 135.371224 131.159896 
L 135.689596 66.818242 
L 135.944294 66.818242 
L 136.007968 204.268984 
L 136.071643 201.214523 
L 136.32634 181.538908 
L 136.581038 140.739551 
L 136.835735 56.138006 
L 136.89941 203.200961 
L 136.963084 199.932895 
L 137.217782 178.881323 
L 137.472479 135.228784 
L 137.727177 44.710878 
L 137.790851 202.058248 
L 137.854526 198.56164 
L 138.109223 176.037888 
L 138.363921 129.332637 
L 138.554944 63.660739 
L 138.618619 203.953234 
L 138.682293 200.835623 
L 138.936991 180.75322 
L 139.191688 139.110349 
L 139.446386 52.759692 
L 139.51006 202.863129 
L 139.573735 199.527497 
L 139.828432 178.04069 
L 140.08313 133.485648 
L 140.401502 70.837142 
L 140.847223 70.837142 
L 140.910897 204.670874 
L 140.974571 201.696791 
L 141.229269 182.538938 
L 141.483967 142.813215 
L 141.738664 60.437955 
L 141.802339 203.630955 
L 141.866013 200.448889 
L 142.120711 179.951288 
L 142.375408 137.447463 
L 142.69378 77.683158 
L 142.821129 77.683158 
L 142.884803 49.311532 
L 142.948478 202.518313 
L 143.012152 199.113718 
L 143.26685 177.182678 
L 143.521548 131.706474 
L 143.712571 67.762728 
L 143.776245 204.363433 
L 143.83992 201.327862 
L 144.094617 181.773926 
L 144.349315 141.226885 
L 144.604012 57.148542 
L 144.667687 203.302014 
L 144.731361 200.054159 
L 144.986059 179.132777 
L 145.240756 135.750198 
L 145.559128 74.750284 
L 146.004849 74.750284 
L 146.068524 205.062188 
L 146.132198 202.166368 
L 146.386896 183.512654 
L 146.641593 144.832311 
L 146.896291 64.624752 
L 146.959965 204.049635 
L 147.02364 200.951304 
L 147.278337 180.993097 
L 147.533035 139.607758 
L 147.724058 81.416148 
L 147.787732 205.728775 
L 147.851407 202.966272 
L 148.106104 185.171334 
L 148.360802 148.27175 
L 148.6155 71.756774 
L 148.679174 204.762837 
L 148.742848 201.807147 
L 148.997546 182.767772 
L 149.252244 143.287725 
L 149.570616 61.421899 
L 149.63429 203.72935 
L 149.697964 200.566962 
L 149.952662 180.196125 
L 150.20736 137.955157 
L 150.398383 78.560452 
L 150.462057 205.443205 
L 150.525732 202.623588 
L 150.780429 184.460745 
L 151.035127 146.798274 
L 151.289824 68.701373 
L 151.353499 204.457297 
L 151.417173 201.440499 
L 151.671871 182.007491 
L 151.926568 141.711205 
L 152.117592 85.050905 
L 152.181266 206.09225 
L 152.24494 203.402443 
L 152.499638 186.075778 
L 152.754336 150.147205 
L 153.009033 75.645716 
L 153.072708 205.151732 
L 153.136382 202.27382 
L 153.39108 183.735466 
L 153.645777 145.294334 
L 153.964149 91.242551 
L 155.173963 91.242551 
L 155.237637 65.582803 
L 155.301312 204.14544 
L 155.364986 201.066271 
L 155.619684 181.231491 
L 155.874381 140.102092 
L 156.065404 82.270356 
L 156.129079 205.814196 
L 156.192753 203.068777 
L 156.447451 185.383888 
L 156.702148 148.712503 
L 156.956846 72.670718 
L 157.02052 204.854232 
L 157.084195 201.91682 
L 157.338892 182.995191 
L 157.59359 143.7593 
L 157.911962 88.590013 
L 157.975637 88.590013 
L 158.039311 62.399758 
L 158.102985 203.827136 
L 158.16666 200.684305 
L 158.421357 180.439447 
L 158.676055 138.45971 
L 158.867078 79.432321 
L 158.930753 205.530392 
L 158.994427 202.728213 
L 159.249125 184.677694 
L 159.503822 147.248139 
L 159.75852 69.634213 
L 159.822194 204.550581 
L 159.885869 201.55244 
L 160.140566 182.239611 
L 160.395264 142.19253 
L 160.586287 85.882634 
L 160.649961 206.175423 
L 160.713636 203.50225 
L 160.968333 186.282739 
L 161.223031 150.576359 
L 161.477729 76.53561 
L 161.541403 205.240721 
L 161.605077 202.380607 
L 161.859775 183.9569 
L 162.114473 145.7535 
L 162.36917 66.534929 
L 162.432845 204.240653 
L 162.496519 201.180526 
L 162.751217 181.46841 
L 163.005914 140.593368 
L 163.196937 83.119282 
L 163.260612 205.899088 
L 163.324286 203.170648 
L 163.578984 185.595128 
L 163.833681 149.15053 
L 164.088379 73.579011 
L 164.152053 204.945061 
L 164.215728 202.025815 
L 164.470425 183.221203 
L 164.725123 144.227959 
L 164.979821 63.371569 
L 165.043495 203.924317 
L 165.107169 200.800922 
L 165.361867 180.681265 
L 165.616565 138.961144 
L 165.807588 80.298798 
L 165.871262 205.61704 
L 165.934937 202.83219 
L 166.189634 184.893301 
L 166.444332 147.695222 
L 166.699029 70.561284 
L 166.762704 204.643288 
L 166.826378 201.663688 
L 167.081076 182.470296 
L 167.335773 142.670879 
L 167.654145 60.142807 
L 167.71782 203.601441 
L 167.781494 200.413471 
L 168.036192 179.877846 
L 168.290889 137.295173 
L 168.481913 77.420001 
L 168.545587 205.32916 
L 168.609261 202.486734 
L 168.863959 184.176965 
L 169.118657 146.209826 
L 169.373354 67.481167 
L 169.437029 204.335277 
L 169.500703 201.294074 
L 169.755401 181.703865 
L 170.010098 141.081606 
L 170.201121 83.962957 
L 170.264796 205.983456 
L 170.32847 203.271889 
L 170.583168 185.805061 
L 170.837865 149.585848 
L 171.092563 74.481686 
L 171.156237 205.035329 
L 171.219912 202.134136 
L 171.47461 183.445818 
L 171.729307 144.69372 
L 171.984005 64.33737 
L 172.047679 204.020897 
L 172.111354 200.916819 
L 172.366051 180.921587 
L 172.620749 139.459476 
L 172.811772 81.159916 
L 172.875446 205.703152 
L 172.939121 202.935524 
L 173.193818 185.107575 
L 173.448516 148.13954 
L 173.703214 71.482622 
L 173.766888 204.735422 
L 173.830562 201.774249 
L 174.08526 182.699555 
L 174.339958 143.146269 
L 174.65833 61.128576 
L 174.722004 203.700018 
L 174.785678 200.531763 
L 175.040376 180.123137 
L 175.295074 137.803808 
L 175.486097 78.298923 
L 175.549771 205.417052 
L 175.613446 202.592205 
L 175.868143 184.395668 
L 176.122841 146.66333 
L 176.377538 68.421554 
L 176.441213 204.429315 
L 176.504887 201.406921 
L 176.759585 181.937863 
L 177.014282 141.566825 
L 177.396329 57.85344 
L 177.460003 203.372504 
L 177.523678 200.138747 
L 177.778375 179.308178 
L 178.033073 136.11391 
L 178.224096 75.378779 
L 178.28777 205.125038 
L 178.351445 202.241788 
L 178.606142 183.669043 
L 178.86084 145.1566 
L 179.115538 65.297199 
L 179.179212 204.11688 
L 179.242886 201.031998 
L 179.497584 181.160423 
L 179.752282 139.954726 
L 179.943305 82.015709 
L 180.006979 205.788731 
L 180.070654 203.038219 
L 180.325351 185.320524 
L 180.580049 148.58111 
L 180.834746 72.398262 
L 180.898421 204.826986 
L 180.962095 201.884126 
L 181.216793 182.927395 
L 181.47149 143.618719 
L 181.789862 62.108248 
L 181.853537 203.797985 
L 181.917211 200.649324 
L 182.171909 180.36691 
L 182.426606 138.309298 
L 182.61763 79.172408 
L 182.681304 205.504401 
L 182.744978 202.697023 
L 182.999676 184.61302 
L 183.254374 147.11403 
L 183.509071 69.356124 
L 183.572746 204.522772 
L 183.63642 201.519069 
L 183.891118 182.170414 
L 184.145815 142.049043 
L 184.527862 58.853367 
L 184.591536 203.472497 
L 184.65521 200.258738 
L 184.909908 179.556992 
L 185.164606 136.629851 
L 185.355629 76.270324 
L 185.419303 205.214192 
L 185.482978 202.348773 
L 185.737675 183.890888 
L 185.992373 145.616618 
L 186.247071 66.251091 
L 186.310745 204.212269 
L 186.374419 201.146465 
L 186.629117 181.397782 
L 186.883815 140.446914 
L 187.074838 82.866209 
L 187.138512 205.873781 
L 187.202187 203.140279 
L 187.456884 185.532155 
L 187.711582 149.01995 
L 187.966279 73.30824 
L 188.029954 204.917984 
L 188.093628 201.993323 
L 188.348326 183.153827 
L 188.603023 144.088248 
L 188.857721 63.081862 
L 188.921395 203.895346 
L 188.98507 200.766158 
L 189.239767 180.609177 
L 189.494465 138.811661 
L 189.685488 80.040493 
L 189.749163 205.591209 
L 189.812837 202.801193 
L 190.067535 184.829027 
L 190.322232 147.561942 
L 190.57693 70.284915 
L 190.640604 204.615651 
L 190.704279 201.630524 
L 190.958976 182.401527 
L 191.213674 142.528278 
L 191.59572 59.847111 
L 191.659395 203.571871 
L 191.723069 200.377987 
L 191.977767 179.804267 
L 192.232464 137.142601 
L 192.423487 77.156355 
L 192.487162 205.302795 
L 192.550836 202.455097 
L 192.805534 184.111361 
L 193.060231 146.073791 
L 193.314929 67.199085 
L 193.378603 204.307068 
L 193.442278 201.260224 
L 193.696975 181.633673 
L 193.951673 140.936058 
L 194.333719 56.545481 
L 194.397394 203.241708 
L 194.461068 199.981792 
L 194.715766 178.982716 
L 194.970463 135.439032 
L 195.161487 74.21259 
L 195.225161 205.008419 
L 195.288835 202.101845 
L 195.543533 183.378858 
L 195.798231 144.554872 
L 196.052928 64.049455 
L 196.116603 203.992105 
L 196.180277 200.882269 
L 196.434975 180.849945 
L 196.689672 139.310918 
L 196.880695 80.903208 
L 196.94437 205.677481 
L 197.008044 202.904719 
L 197.262742 185.043698 
L 197.517439 148.007084 
L 197.772137 71.207962 
L 197.835811 204.707956 
L 197.899486 201.74129 
L 198.154183 182.631211 
L 198.408881 143.004551 
L 198.727253 60.834708 
L 198.790927 203.670631 
L 198.854602 200.496499 
L 199.109299 180.050013 
L 199.363997 137.652179 
L 199.55502 78.036907 
L 199.618695 205.390851 
L 199.682369 202.560763 
L 199.937067 184.330471 
L 200.191764 146.528136 
L 200.446462 68.141215 
L 200.510136 204.401281 
L 200.573811 201.37328 
L 200.828508 181.868106 
L 201.083206 141.422176 
L 201.401578 57.553497 
L 201.465252 203.34251 
L 201.528927 200.102754 
L 201.783624 179.233543 
L 202.038322 135.959146 
L 202.229345 75.111347 
L 202.29302 205.098295 
L 202.356694 202.209696 
L 202.611392 183.602497 
L 202.866089 145.018611 
L 203.120787 65.011064 
L 203.184461 204.088266 
L 203.248136 200.997662 
L 203.502833 181.089224 
L 203.757531 139.807087 
L 203.948554 81.760588 
L 204.012228 205.763219 
L 204.075903 203.007605 
L 204.3306 185.257042 
L 204.585298 148.449474 
L 204.839996 72.125301 
L 204.90367 204.79969 
L 204.967344 201.85137 
L 205.222042 182.859474 
L 205.47674 143.477877 
L 205.795112 61.816198 
L 205.858786 203.76878 
L 205.92246 200.614278 
L 206.177158 180.294239 
L 206.431856 138.158607 
L 206.622879 78.912014 
L 206.686553 205.478361 
L 206.750228 202.665776 
L 207.004925 184.548225 
L 207.259623 146.979672 
L 207.51432 69.07752 
L 207.577995 204.494912 
L 207.641669 201.485637 
L 207.896367 182.101088 
L 208.151064 141.905289 
L 208.469436 58.555279 
L 208.533111 203.442688 
L 208.596785 200.222968 
L 208.851483 179.482818 
L 209.10618 136.476044 
L 209.297204 76.004546 
L 209.360878 205.187615 
L 209.424552 202.31688 
L 209.67925 183.824754 
L 209.933948 145.479482 
L 210.188645 65.966726 
L 210.25232 204.183833 
L 210.315994 201.112341 
L 210.570692 181.327023 
L 210.825389 140.300188 
L 211.207436 55.226942 
L 211.27111 203.109854 
L 211.334784 199.823567 
L 211.589482 178.654621 
L 211.84418 134.758695 
L 212.035203 73.036967 
L 212.098877 204.890857 
L 212.162552 201.96077 
L 212.417249 183.086325 
L 212.671947 143.948276 
L 212.990319 62.791618 
L 213.053993 203.866322 
L 213.117668 200.731328 
L 213.372365 180.536955 
L 213.627063 138.661902 
L 213.818086 79.781708 
L 213.881761 205.565331 
L 213.945435 202.770139 
L 214.200133 184.764633 
L 214.45483 147.428415 
L 214.709528 70.008034 
L 214.773202 204.587963 
L 214.836877 201.597298 
L 215.091574 182.33263 
L 215.346272 142.385414 
L 215.664644 59.550866 
L 215.728318 203.542247 
L 215.791993 200.342438 
L 216.04669 179.730552 
L 216.301388 136.989745 
L 216.492411 76.892221 
L 216.556085 205.276382 
L 216.61976 202.423401 
L 216.874457 184.045636 
L 217.129155 145.937503 
L 217.383853 66.916479 
L 217.447527 204.278808 
L 217.511201 201.226312 
L 217.765899 181.563352 
L 218.020597 140.790239 
L 218.402643 56.243112 
L 218.466317 203.211471 
L 218.529992 199.945508 
L 218.784689 178.907477 
L 219.039387 135.283016 
L 219.23041 73.942994 
L 219.294085 204.981459 
L 219.357759 202.069493 
L 219.612457 183.311774 
L 219.867154 144.415767 
L 220.185526 63.761006 
L 220.249201 203.963261 
L 220.312875 200.847655 
L 220.567573 180.77817 
L 220.82227 139.162085 
L 221.013293 80.646024 
L 221.076968 205.651762 
L 221.140642 202.873857 
L 221.39534 184.979702 
L 221.650037 147.874383 
L 221.904735 70.932793 
L 221.968409 204.680439 
L 222.032084 201.708269 
L 222.286781 182.56274 
L 222.541479 142.862569 
L 222.859851 60.540296 
L 222.923525 203.64119 
L 222.9872 200.46117 
L 223.241897 179.976754 
L 223.496595 137.500269 
L 223.687618 77.774406 
L 223.751293 205.364601 
L 223.814967 202.529263 
L 224.069665 184.265152 
L 224.324362 146.392691 
L 224.57906 67.860357 
L 224.642734 204.373196 
L 224.706409 201.339577 
L 224.961106 181.798219 
L 225.215804 141.27726 
L 225.534176 84.301046 
L 240.179288 84.301046 
L 240.242962 206.017265 
L 240.306637 203.31246 
L 240.561334 185.889189 
L 240.816032 149.760294 
L 241.07073 74.843418 
L 241.134404 205.071502 
L 241.198079 202.177544 
L 241.452776 183.535828 
L 241.707474 144.880366 
L 241.962171 64.724399 
L 242.025846 204.0596 
L 242.08952 200.963262 
L 242.344218 181.017893 
L 242.598915 139.659174 
L 242.789939 81.504995 
L 242.853613 205.737659 
L 242.917287 202.976934 
L 243.171985 185.193442 
L 243.426683 148.317593 
L 243.68138 71.851833 
L 243.745055 204.772343 
L 243.808729 201.818554 
L 244.063427 182.791426 
L 244.318124 143.336774 
L 244.636496 87.859887 
L 249.985146 87.859887 
L 250.04882 206.373149 
L 250.112495 203.739521 
L 250.367192 186.774742 
L 250.62189 151.596578 
L 250.876587 78.651136 
L 250.940262 205.452274 
L 251.003936 202.63447 
L 251.258634 184.48331 
L 251.513331 146.845065 
L 251.831703 68.798398 
L 251.895378 204.467 
L 251.959052 201.452142 
L 252.21375 182.031634 
L 252.468447 141.761268 
L 252.659471 85.137413 
L 252.723145 206.100901 
L 252.786819 203.412824 
L 253.041517 186.097304 
L 253.296215 150.191841 
L 253.550912 75.738274 
L 253.614587 205.160987 
L 253.678261 202.284927 
L 253.932959 183.758497 
L 254.187656 145.342092 
L 254.506028 91.325077 
L 263.35677 91.325077 
L 263.420444 206.719668 
L 263.484119 204.155343 
L 263.738816 187.636992 
L 263.993514 153.38454 
L 264.248212 82.358654 
L 264.311886 205.823025 
L 264.37556 203.079373 
L 264.630258 185.405859 
L 264.884956 148.758062 
L 265.203328 97.227873 
L 265.267002 97.227873 
L 265.330676 72.76519 
L 265.394351 204.863679 
L 265.458025 201.928157 
L 265.712723 183.018699 
L 265.96742 143.808046 
L 266.158444 88.674245 
L 266.222118 206.454584 
L 266.285792 203.837244 
L 266.54049 186.977381 
L 266.795188 152.016769 
L 267.049885 79.522444 
L 267.11356 205.539404 
L 267.177234 202.739027 
L 267.431932 184.70012 
L 267.686629 147.29464 
L 267.877652 94.69908 
L 267.941327 207.057068 
L 268.005001 204.560224 
L 268.259699 188.476552 
L 268.514396 155.125451 
L 268.769094 85.968608 
L 268.832768 206.184021 
L 268.896443 203.512567 
L 269.151141 186.304132 
L 269.405838 150.620719 
L 269.787885 76.627596 
L 269.851559 205.24992 
L 269.915233 202.391646 
L 270.169931 183.979789 
L 270.424629 145.800962 
L 270.615652 92.118005 
L 270.679326 206.79896 
L 270.743001 204.250495 
L 270.997698 187.834298 
L 271.252396 153.793673 
L 271.507093 83.207033 
L 271.570768 205.907863 
L 271.634442 203.181178 
L 271.88914 185.616963 
L 272.143837 149.195807 
L 272.334861 97.984297 
L 272.398535 207.38559 
L 272.462209 204.95445 
L 272.716907 189.294019 
L 272.971605 156.820551 
L 273.226302 89.483567 
L 273.289977 206.535517 
L 273.353651 203.934362 
L 273.608349 187.178766 
L 273.863046 152.434361 
L 274.117744 80.388363 
L 274.181418 205.625996 
L 274.245093 202.842938 
L 274.49979 184.915588 
L 274.754488 147.741436 
L 274.945511 95.471143 
L 275.009185 207.134274 
L 275.07286 204.652871 
L 275.327557 188.668666 
L 275.582255 155.523819 
L 275.836953 86.794662 
L 275.900627 206.266626 
L 275.964301 203.611694 
L 276.218999 186.50968 
L 276.473697 151.046945 
L 276.855743 77.511418 
L 276.919417 205.338302 
L 276.983092 202.497704 
L 277.237789 184.199712 
L 277.492487 146.256995 
L 277.68351 92.906029 
L 277.747185 206.877763 
L 277.810859 204.345058 
L 278.065557 188.030384 
L 278.320254 154.200277 
L 278.574952 84.050166 
L 278.638626 205.992177 
L 278.702301 203.282354 
L 278.956998 185.826762 
L 279.211696 149.630845 
L 279.402719 98.736042 
L 279.466393 207.460764 
L 279.530068 205.044659 
L 279.784765 189.481078 
L 280.039463 157.208435 
L 280.294161 90.287883 
L 280.357835 206.615948 
L 280.421509 204.03088 
L 280.676207 187.378905 
L 280.930905 152.849371 
L 281.185602 81.248927 
L 281.249277 205.712053 
L 281.312951 202.946205 
L 281.567649 185.129724 
L 281.822346 148.185468 
L 282.013369 96.23843 
L 282.077044 207.211003 
L 282.140718 204.744946 
L 282.395416 188.859592 
L 282.650113 155.919722 
L 282.904811 87.615608 
L 282.968486 206.348721 
L 283.03216 203.710207 
L 283.286858 186.713958 
L 283.541555 151.470535 
L 283.923602 78.389774 
L 283.987276 205.426137 
L 284.05095 202.603107 
L 284.305648 184.418275 
L 284.560346 146.710208 
L 284.751369 93.689181 
L 284.815043 206.956078 
L 284.878718 204.439036 
L 285.133415 188.225257 
L 285.388113 154.604365 
L 285.64281 84.888084 
L 285.706485 206.075968 
L 285.770159 203.382904 
L 286.024857 186.035263 
L 286.279554 150.063193 
L 286.597926 99.483139 
L 286.661601 99.483139 
L 286.725275 75.471509 
L 286.78895 205.134311 
L 286.852624 202.252915 
L 287.107322 183.692117 
L 287.362019 145.204447 
L 287.553042 91.087226 
L 287.616717 206.695883 
L 287.680391 204.126801 
L 287.935089 187.577807 
L 288.189786 153.261814 
L 288.444484 82.10417 
L 288.508158 205.797577 
L 288.571833 203.048835 
L 288.82653 185.342536 
L 289.081228 148.626754 
L 289.272251 97.000973 
L 289.335926 207.287257 
L 289.3996 204.836451 
L 289.654298 189.049337 
L 289.908995 156.313177 
L 290.163693 88.431477 
L 290.227367 206.430308 
L 290.291042 203.808111 
L 290.545739 186.916972 
L 290.800437 151.891506 
L 291.055134 79.262698 
L 291.118809 205.51343 
L 291.182483 202.707858 
L 291.437181 184.635487 
L 291.691878 147.160617 
L 292.01025 94.467489 
L 292.073925 94.467489 
L 292.137599 69.452728 
L 292.201274 204.532433 
L 292.264948 201.530662 
L 292.519646 182.194452 
L 292.774343 142.098888 
L 292.965366 85.720821 
L 293.029041 206.159242 
L 293.092715 203.482833 
L 293.347413 186.242474 
L 293.60211 150.492867 
L 293.856808 76.362481 
L 293.920482 205.223408 
L 293.984157 202.359832 
L 294.238854 183.91382 
L 294.493552 145.664169 
L 294.811924 66.349692 
L 294.875598 204.222129 
L 294.939273 201.158297 
L 295.19397 181.422318 
L 295.448668 140.49779 
L 295.639691 82.954123 
L 295.703366 205.882572 
L 295.76704 203.150829 
L 296.021738 185.554031 
L 296.276435 149.065311 
L 296.531133 73.402302 
L 296.594807 204.92739 
L 296.658482 202.00461 
L 296.913179 183.177232 
L 297.167877 144.136781 
L 297.422575 63.182502 
L 297.486249 203.90541 
L 297.549923 200.778234 
L 297.804621 180.634219 
L 297.93197 163.515109 
L 297.995644 213.938671 
L 298.059319 212.818147 
L 298.186667 218.88 
L 298.568714 218.88 
L 298.823411 218.17004 
L 299.078109 216.697868 
L 299.332807 213.645171 
L 299.587504 207.315099 
L 299.842202 194.189062 
L 300.096899 166.970912 
L 300.351597 110.531356 
L 300.478946 62.566985 
L 300.54262 203.843858 
L 300.606295 200.704372 
L 300.860992 180.481059 
L 301.11569 138.545996 
L 301.434062 79.581423 
L 301.561411 79.581423 
L 301.625085 51.58945 
L 301.688759 202.746105 
L 301.752434 199.387068 
L 302.007131 177.749497 
L 302.261829 132.881829 
L 302.452852 69.793742 
L 302.516527 204.566534 
L 302.580201 201.571583 
L 302.834899 182.279307 
L 303.089596 142.274844 
L 303.344294 59.321589 
L 303.407968 203.519319 
L 303.471643 200.314925 
L 303.72634 179.6735 
L 303.981038 136.871443 
L 304.235735 48.117096 
L 304.29941 202.39887 
L 304.363084 198.970386 
L 304.617782 176.885464 
L 304.872479 131.090171 
L 305.063503 66.697757 
L 305.127177 204.256936 
L 305.190851 201.200065 
L 305.445549 181.508927 
L 305.700247 140.677383 
L 305.954944 56.009095 
L 306.018619 203.188069 
L 306.082293 199.917426 
L 306.336991 178.849246 
L 306.591688 135.162269 
L 306.91006 73.734342 
L 310.157455 73.734342 
L 310.221129 204.960594 
L 310.284803 202.044455 
L 310.539501 183.259855 
L 310.794199 144.308107 
L 311.048896 63.537763 
L 311.112571 203.940936 
L 311.176245 200.820866 
L 311.430943 180.722619 
L 311.68564 139.046896 
L 312.004012 80.446978 
L 312.513408 80.446978 
L 312.577082 205.631858 
L 312.640756 202.849971 
L 312.895454 184.930173 
L 313.150152 147.771679 
L 313.404849 70.719827 
L 313.468524 204.659143 
L 313.532198 201.682713 
L 313.786896 182.509747 
L 314.041593 142.752683 
L 314.359965 86.850579 
L 315.824476 86.850579 
L 315.888151 206.272218 
L 315.951825 203.618404 
L 316.206523 186.523594 
L 316.46122 151.075797 
L 316.715918 77.571245 
L 316.779592 205.344284 
L 316.843267 202.504884 
L 317.097964 184.214599 
L 317.352662 146.287864 
L 317.671034 92.959371 
L 325.057265 92.959371 
L 325.120939 67.642988 
L 325.184613 204.351459 
L 325.248288 201.313493 
L 325.502985 181.744131 
L 325.757683 141.165102 
L 325.948706 84.107238 
L 326.012381 205.997884 
L 326.076055 203.289203 
L 326.330753 185.840963 
L 326.58545 149.660293 
L 326.840148 74.636057 
L 326.903822 205.050766 
L 326.967497 202.152661 
L 327.222194 183.48423 
L 327.476892 144.773372 
L 327.667915 90.342328 
L 327.731589 206.621393 
L 327.795264 204.037414 
L 328.049961 187.392453 
L 328.304659 152.877463 
L 328.559357 81.30718 
L 328.623031 205.717878 
L 328.686705 202.953196 
L 328.941403 185.144219 
L 329.196101 148.215525 
L 329.514473 71.640184 
L 329.578147 204.751178 
L 329.641821 201.793156 
L 329.896519 182.738761 
L 330.151217 143.227568 
L 330.34224 87.671178 
L 330.405914 206.354278 
L 330.469589 203.716876 
L 330.724286 186.727786 
L 330.978984 151.499208 
L 331.233681 78.449231 
L 331.297356 205.432083 
L 331.36103 202.610242 
L 331.615728 184.43307 
L 331.870425 146.740886 
L 332.188797 68.582373 
L 332.252472 204.445397 
L 332.316146 201.426219 
L 332.570844 181.97788 
L 332.825541 141.649804 
L 333.016565 84.944803 
L 333.080239 206.08164 
L 333.143913 203.389711 
L 333.398611 186.049376 
L 333.653309 150.092459 
L 333.908006 75.532195 
L 333.971681 205.140379 
L 334.035355 202.260198 
L 334.290053 183.707218 
L 334.54475 145.235759 
L 334.735773 91.141334 
L 334.799448 206.701293 
L 334.863122 204.133294 
L 335.11782 187.591271 
L 335.372517 153.289732 
L 335.627215 82.162062 
L 335.690889 205.803366 
L 335.754564 203.055782 
L 336.009261 185.356941 
L 336.263959 148.656625 
L 336.518657 72.55485 
L 336.582331 204.842645 
L 336.646005 201.902916 
L 336.900703 182.966359 
L 337.155401 143.699515 
L 337.346424 88.486703 
L 337.410098 206.43583 
L 337.473773 203.814739 
L 337.72847 186.930714 
L 337.983168 151.920001 
L 338.237865 79.321787 
L 338.30154 205.519339 
L 338.365214 202.714949 
L 338.619912 184.65019 
L 338.87461 147.191106 
L 339.192982 69.515949 
L 339.256656 204.538755 
L 339.32033 201.538248 
L 339.575028 182.210184 
L 339.829726 142.131509 
L 340.020749 85.777189 
L 340.084423 206.164879 
L 340.148098 203.489597 
L 340.402795 186.2565 
L 340.657493 150.521952 
L 340.91219 76.422791 
L 340.975865 205.229439 
L 341.039539 202.367069 
L 341.294237 183.928827 
L 341.548934 145.695288 
L 341.867306 66.414221 
L 341.930981 204.228582 
L 341.994655 201.166041 
L 342.249353 181.438374 
L 342.50405 140.531085 
L 342.695074 83.011657 
L 342.758748 205.888326 
L 342.822422 203.157733 
L 343.07712 185.568347 
L 343.331818 149.094997 
L 343.586515 73.463859 
L 343.65019 204.933546 
L 343.713864 202.011997 
L 343.968562 183.19255 
L 344.223259 144.168544 
L 344.605306 63.248364 
L 344.66898 203.911996 
L 344.732654 200.786138 
L 344.987352 180.650608 
L 345.24205 138.897573 
L 345.433073 80.188947 
L 345.496747 205.606055 
L 345.560422 202.819008 
L 345.815119 184.865967 
L 346.069817 147.638542 
L 346.324514 70.443752 
L 346.388189 204.631535 
L 346.451863 201.649584 
L 346.706561 182.441051 
L 346.961258 142.610235 
L 347.27963 86.604427 
L 349.062514 86.604427 
L 349.126188 60.017055 
L 349.189862 203.588865 
L 349.253537 200.398381 
L 349.508234 179.846555 
L 349.762932 137.230288 
L 349.953955 77.30788 
L 350.01763 205.317948 
L 350.081304 202.47328 
L 350.336002 184.149065 
L 350.590699 146.151974 
L 350.845397 67.361205 
L 350.909071 204.32328 
L 350.972746 201.279679 
L 351.227443 181.674014 
L 351.482141 141.019708 
L 351.800513 83.855998 
L 352.373582 83.855998 
L 352.437257 205.97276 
L 352.500931 203.259054 
L 352.755629 185.778446 
L 353.010327 149.530659 
L 353.265024 74.367247 
L 353.328699 205.023885 
L 353.392373 202.120404 
L 353.647071 183.417342 
L 353.901768 144.634672 
L 354.22014 90.102655 
L 355.748326 90.102655 
L 355.812 206.597425 
L 355.875675 204.008653 
L 356.130372 187.332815 
L 356.38507 152.753797 
L 356.639767 81.050745 
L 356.703442 205.692234 
L 356.767116 202.922424 
L 357.021814 185.08041 
L 357.149163 169.917623 
L 357.149163 169.917623 
" clip-path="url(#p324f367b69)" style="fill: none; stroke: #1f77b4; stroke-width: 1.5; stroke-linecap: square"/>
   </g>
   <g id="patch_3">
    <path d="M 37.567344 228.96 
L 37.567344 7.2 
" style="fill: none; stroke: #000000; stroke-width: 0.8; stroke-linejoin: miter; stroke-linecap: square"/>
   </g>
   <g id="patch_4">
    <path d="M 372.367344 228.96 
L 372.367344 7.2 
" style="fill: none; stroke: #000000; stroke-width: 0.8; stroke-linejoin: miter; stroke-linecap: square"/>
   </g>
   <g id="patch_5">
    <path d="M 37.567344 228.96 
L 372.367344 228.96 
" style="fill: none; stroke: #000000; stroke-width: 0.8; stroke-linejoin: miter; stroke-linecap: square"/>
   </g>
   <g id="patch_6">
    <path d="M 37.567344 7.2 
L 372.367344 7.2 
" style="fill: none; stroke: #000000; stroke-width: 0.8; stroke-linejoin: miter; stroke-linecap: square"/>
   </g>
   <g id="legend_1">
    <g id="patch_7">
     <path d="M 314.548024 29.420307 
L 365.367344 29.420307 
Q 367.367344 29.420307 367.367344 27.420307 
L 367.367344 14.2 
Q 367.367344 12.2 365.367344 12.2 
L 314.548024 12.2 
Q 312.548024 12.2 312.548024 14.2 
L 312.548024 27.420307 
Q 312.548024 29.420307 314.548024 29.420307 
z
" style="fill: #ffffff; opacity: 0.8; stroke: #cccccc; stroke-linejoin: miter"/>
    </g>
    <g id="line2d_15">
     <path d="M 316.548024 19.79832 
L 326.548024 19.79832 
L 336.548024 19.79832 
" style="fill: none; stroke: #1f77b4; stroke-width: 1.5; stroke-linecap: square"/>
    </g>
    <g id="text_16">
     <!-- CFL -->
     <g transform="translate(344.548024 23.29832) scale(0.1 -0.1)">
      <use xlink:href="#NimbusSanL-Regu-43" transform="scale(0.996264)"/>
      <use xlink:href="#NimbusSanL-Regu-46" transform="translate(71.929985 0) scale(0.996264)"/>
      <use xlink:href="#NimbusSanL-Regu-4c" transform="translate(132.801616 0) scale(0.996264)"/>
     </g>
    </g>
   </g>
  </g>
 </g>
 <defs>
  <clipPath id="p324f367b69">
   <rect x="37.567344" y="7.2" width="334.8" height="221.76"/>
  </clipPath>
 </defs>
</svg>
