<?xml version="1.0" encoding="utf-8" standalone="no"?>
<!DOCTYPE svg PUBLIC "-//W3C//DTD SVG 1.1//EN"
  "http://www.w3.org/Graphics/SVG/1.1/DTD/svg11.dtd">
<svg xmlns:xlink="http://www.w3.org/1999/xlink" width="382.334753pt" height="265.600613pt" viewBox="0 0 382.334753 265.600613" xmlns="http://www.w3.org/2000/svg" version="1.1">
 <metadata>
  <rdf:RDF xmlns:dc="http://purl.org/dc/elements/1.1/" xmlns:cc="http://creativecommons.org/ns#" xmlns:rdf="http://www.w3.org/1999/02/22-rdf-syntax-ns#">
   <cc:Work>
    <dc:type rdf:resource="http://purl.org/dc/dcmitype/StillImage"/>
    <dc:date>2025-07-17T19:43:43.355576</dc:date>
    <dc:format>image/svg+xml</dc:format>
    <dc:creator>
     <cc:Agent>
      <dc:title>Matplotlib v3.10.3, https://matplotlib.org/</dc:title>
     </cc:Agent>
    </dc:creator>
   </cc:Work>
  </rdf:RDF>
 </metadata>
 <defs>
  <style type="text/css">*{stroke-linejoin: round; stroke-linecap: butt}</style>
 </defs>
 <g id="figure_1">
  <g id="patch_1">
   <path d="M 0 265.600613 
L 382.334753 265.600613 
L 382.334753 0 
L 0 0 
z
" style="fill: #ffffff"/>
  </g>
  <g id="axes_1">
   <g id="patch_2">
    <path d="M 40.334753 228.96 
L 375.134753 228.96 
L 375.134753 7.2 
L 40.334753 7.2 
z
" style="fill: #ffffff"/>
   </g>
   <g id="matplotlib.axis_1">
    <g id="xtick_1">
     <g id="line2d_1">
      <defs>
       <path id="m841165c347" d="M 0 0 
L 0 3.5 
" style="stroke: #000000; stroke-width: 0.8"/>
      </defs>
      <g>
       <use xlink:href="#m841165c347" x="55.552935" y="228.96" style="stroke: #000000; stroke-width: 0.8"/>
      </g>
     </g>
     <g id="text_1">
      <!-- $\mathdefault{0}$ -->
      <g transform="translate(53.062267 243.05832) scale(0.1 -0.1)">
       <defs>
        <path id="CMR17-30" d="M 2688 2038 
C 2688 2430 2682 3099 2413 3613 
C 2176 4063 1798 4224 1466 4224 
C 1158 4224 768 4082 525 3620 
C 269 3137 243 2539 243 2038 
C 243 1671 250 1112 448 623 
C 723 -39 1216 -128 1466 -128 
C 1760 -128 2208 -7 2470 604 
C 2662 1048 2688 1568 2688 2038 
z
M 1466 -26 
C 1056 -26 813 328 723 816 
C 653 1196 653 1749 653 2109 
C 653 2604 653 3015 736 3407 
C 858 3954 1216 4121 1466 4121 
C 1728 4121 2067 3947 2189 3420 
C 2272 3054 2278 2623 2278 2109 
C 2278 1691 2278 1176 2202 797 
C 2067 96 1690 -26 1466 -26 
z
" transform="scale(0.015625)"/>
       </defs>
       <use xlink:href="#CMR17-30" transform="scale(0.996264)"/>
      </g>
     </g>
    </g>
    <g id="xtick_2">
     <g id="line2d_2">
      <g>
       <use xlink:href="#m841165c347" x="96.308644" y="228.96" style="stroke: #000000; stroke-width: 0.8"/>
      </g>
     </g>
     <g id="text_2">
      <!-- $\mathdefault{500}$ -->
      <g transform="translate(88.836641 243.05832) scale(0.1 -0.1)">
       <defs>
        <path id="CMR17-35" d="M 730 3750 
C 794 3724 1056 3641 1325 3641 
C 1920 3641 2246 3961 2432 4140 
C 2432 4191 2432 4224 2394 4224 
C 2387 4224 2374 4224 2323 4198 
C 2099 4102 1837 4032 1517 4032 
C 1325 4032 1037 4055 723 4191 
C 653 4224 640 4224 634 4224 
C 602 4224 595 4217 595 4090 
L 595 2231 
C 595 2113 595 2080 659 2080 
C 691 2080 704 2093 736 2139 
C 941 2435 1222 2560 1542 2560 
C 1766 2560 2246 2415 2246 1293 
C 2246 1087 2246 716 2054 422 
C 1894 159 1645 25 1370 25 
C 947 25 518 319 403 812 
C 429 806 480 793 506 793 
C 589 793 749 838 749 1036 
C 749 1209 627 1280 506 1280 
C 358 1280 262 1190 262 1011 
C 262 454 704 -128 1382 -128 
C 2042 -128 2669 441 2669 1267 
C 2669 2054 2170 2662 1549 2662 
C 1222 2662 947 2540 730 2304 
L 730 3750 
z
" transform="scale(0.015625)"/>
       </defs>
       <use xlink:href="#CMR17-35" transform="scale(0.996264)"/>
       <use xlink:href="#CMR17-30" transform="translate(45.690477 0) scale(0.996264)"/>
       <use xlink:href="#CMR17-30" transform="translate(91.380954 0) scale(0.996264)"/>
      </g>
     </g>
    </g>
    <g id="xtick_3">
     <g id="line2d_3">
      <g>
       <use xlink:href="#m841165c347" x="137.064353" y="228.96" style="stroke: #000000; stroke-width: 0.8"/>
      </g>
     </g>
     <g id="text_3">
      <!-- $\mathdefault{1000}$ -->
      <g transform="translate(127.101683 243.05832) scale(0.1 -0.1)">
       <defs>
        <path id="CMR17-31" d="M 1702 4083 
C 1702 4217 1696 4224 1606 4224 
C 1357 3927 979 3833 621 3820 
C 602 3820 570 3820 563 3808 
C 557 3795 557 3782 557 3648 
C 755 3648 1088 3686 1344 3839 
L 1344 467 
C 1344 243 1331 166 781 166 
L 589 166 
L 589 0 
C 896 6 1216 12 1523 12 
C 1830 12 2150 6 2458 0 
L 2458 166 
L 2266 166 
C 1715 166 1702 236 1702 467 
L 1702 4083 
z
" transform="scale(0.015625)"/>
       </defs>
       <use xlink:href="#CMR17-31" transform="scale(0.996264)"/>
       <use xlink:href="#CMR17-30" transform="translate(45.690477 0) scale(0.996264)"/>
       <use xlink:href="#CMR17-30" transform="translate(91.380954 0) scale(0.996264)"/>
       <use xlink:href="#CMR17-30" transform="translate(137.071431 0) scale(0.996264)"/>
      </g>
     </g>
    </g>
    <g id="xtick_4">
     <g id="line2d_4">
      <g>
       <use xlink:href="#m841165c347" x="177.820062" y="228.96" style="stroke: #000000; stroke-width: 0.8"/>
      </g>
     </g>
     <g id="text_4">
      <!-- $\mathdefault{1500}$ -->
      <g transform="translate(167.857392 243.05832) scale(0.1 -0.1)">
       <use xlink:href="#CMR17-31" transform="scale(0.996264)"/>
       <use xlink:href="#CMR17-35" transform="translate(45.690477 0) scale(0.996264)"/>
       <use xlink:href="#CMR17-30" transform="translate(91.380954 0) scale(0.996264)"/>
       <use xlink:href="#CMR17-30" transform="translate(137.071431 0) scale(0.996264)"/>
      </g>
     </g>
    </g>
    <g id="xtick_5">
     <g id="line2d_5">
      <g>
       <use xlink:href="#m841165c347" x="218.575772" y="228.96" style="stroke: #000000; stroke-width: 0.8"/>
      </g>
     </g>
     <g id="text_5">
      <!-- $\mathdefault{2000}$ -->
      <g transform="translate(208.613101 243.05832) scale(0.1 -0.1)">
       <defs>
        <path id="CMR17-32" d="M 2669 990 
L 2554 990 
C 2490 537 2438 460 2413 422 
C 2381 371 1920 371 1830 371 
L 602 371 
C 832 620 1280 1073 1824 1596 
C 2214 1966 2669 2400 2669 3033 
C 2669 3788 2067 4224 1395 4224 
C 691 4224 262 3603 262 3027 
C 262 2777 448 2745 525 2745 
C 589 2745 781 2783 781 3007 
C 781 3206 614 3264 525 3264 
C 486 3264 448 3257 422 3244 
C 544 3788 915 4057 1306 4057 
C 1862 4057 2227 3616 2227 3033 
C 2227 2477 1901 1998 1536 1583 
L 262 147 
L 262 0 
L 2515 0 
L 2669 990 
z
" transform="scale(0.015625)"/>
       </defs>
       <use xlink:href="#CMR17-32" transform="scale(0.996264)"/>
       <use xlink:href="#CMR17-30" transform="translate(45.690477 0) scale(0.996264)"/>
       <use xlink:href="#CMR17-30" transform="translate(91.380954 0) scale(0.996264)"/>
       <use xlink:href="#CMR17-30" transform="translate(137.071431 0) scale(0.996264)"/>
      </g>
     </g>
    </g>
    <g id="xtick_6">
     <g id="line2d_6">
      <g>
       <use xlink:href="#m841165c347" x="259.331481" y="228.96" style="stroke: #000000; stroke-width: 0.8"/>
      </g>
     </g>
     <g id="text_6">
      <!-- $\mathdefault{2500}$ -->
      <g transform="translate(249.36881 243.05832) scale(0.1 -0.1)">
       <use xlink:href="#CMR17-32" transform="scale(0.996264)"/>
       <use xlink:href="#CMR17-35" transform="translate(45.690477 0) scale(0.996264)"/>
       <use xlink:href="#CMR17-30" transform="translate(91.380954 0) scale(0.996264)"/>
       <use xlink:href="#CMR17-30" transform="translate(137.071431 0) scale(0.996264)"/>
      </g>
     </g>
    </g>
    <g id="xtick_7">
     <g id="line2d_7">
      <g>
       <use xlink:href="#m841165c347" x="300.08719" y="228.96" style="stroke: #000000; stroke-width: 0.8"/>
      </g>
     </g>
     <g id="text_7">
      <!-- $\mathdefault{3000}$ -->
      <g transform="translate(290.124519 243.05832) scale(0.1 -0.1)">
       <defs>
        <path id="CMR17-33" d="M 1414 2176 
C 1984 2176 2234 1673 2234 1094 
C 2234 322 1824 25 1453 25 
C 1114 25 563 193 390 691 
C 422 678 454 678 486 678 
C 640 678 755 780 755 947 
C 755 1132 614 1216 486 1216 
C 378 1216 211 1164 211 927 
C 211 335 787 -128 1466 -128 
C 2176 -128 2720 432 2720 1087 
C 2720 1718 2208 2176 1600 2246 
C 2086 2347 2554 2776 2554 3353 
C 2554 3856 2048 4224 1472 4224 
C 890 4224 378 3862 378 3347 
C 378 3123 544 3084 627 3084 
C 762 3084 877 3167 877 3334 
C 877 3500 762 3584 627 3584 
C 602 3584 570 3584 544 3571 
C 730 3999 1235 4076 1459 4076 
C 1683 4076 2106 3966 2106 3347 
C 2106 3167 2080 2851 1862 2574 
C 1670 2329 1453 2316 1242 2297 
C 1210 2297 1062 2284 1037 2284 
C 992 2278 966 2272 966 2227 
C 966 2182 973 2176 1101 2176 
L 1414 2176 
z
" transform="scale(0.015625)"/>
       </defs>
       <use xlink:href="#CMR17-33" transform="scale(0.996264)"/>
       <use xlink:href="#CMR17-30" transform="translate(45.690477 0) scale(0.996264)"/>
       <use xlink:href="#CMR17-30" transform="translate(91.380954 0) scale(0.996264)"/>
       <use xlink:href="#CMR17-30" transform="translate(137.071431 0) scale(0.996264)"/>
      </g>
     </g>
    </g>
    <g id="xtick_8">
     <g id="line2d_8">
      <g>
       <use xlink:href="#m841165c347" x="340.842899" y="228.96" style="stroke: #000000; stroke-width: 0.8"/>
      </g>
     </g>
     <g id="text_8">
      <!-- $\mathdefault{3500}$ -->
      <g transform="translate(330.880229 243.05832) scale(0.1 -0.1)">
       <use xlink:href="#CMR17-33" transform="scale(0.996264)"/>
       <use xlink:href="#CMR17-35" transform="translate(45.690477 0) scale(0.996264)"/>
       <use xlink:href="#CMR17-30" transform="translate(91.380954 0) scale(0.996264)"/>
       <use xlink:href="#CMR17-30" transform="translate(137.071431 0) scale(0.996264)"/>
      </g>
     </g>
    </g>
    <g id="text_9">
     <!-- Iteration -->
     <g transform="translate(189.787377 256.278627) scale(0.1 -0.1)">
      <defs>
       <path id="NimbusSanL-Regu-49" d="M 1242 4672 
L 640 4672 
L 640 0 
L 1242 0 
L 1242 4672 
z
" transform="scale(0.015625)"/>
       <path id="NimbusSanL-Regu-74" d="M 1626 3328 
L 1075 3328 
L 1075 4249 
L 544 4249 
L 544 3328 
L 90 3328 
L 90 2892 
L 544 2892 
L 544 402 
C 544 64 774 -128 1190 -128 
C 1318 -128 1446 -116 1626 -84 
L 1626 364 
C 1555 345 1472 339 1370 339 
C 1139 339 1075 402 1075 634 
L 1075 2892 
L 1626 2892 
L 1626 3328 
z
" transform="scale(0.015625)"/>
       <path id="NimbusSanL-Regu-65" d="M 3283 1484 
C 3283 1998 3245 2311 3149 2565 
C 2931 3123 2419 3456 1792 3456 
C 858 3456 256 2734 256 1619 
C 256 545 838 -128 1779 -128 
C 2547 -128 3078 307 3213 1018 
L 2675 1018 
C 2528 588 2227 364 1798 364 
C 1459 364 1171 514 992 787 
C 864 974 819 1161 813 1484 
L 3283 1484 
z
M 826 1920 
C 870 2552 1248 2963 1786 2963 
C 2310 2963 2714 2519 2714 1959 
C 2714 1946 2714 1933 2707 1920 
L 826 1920 
z
" transform="scale(0.015625)"/>
       <path id="NimbusSanL-Regu-72" d="M 442 3328 
L 442 0 
L 979 0 
L 979 1727 
C 979 2203 1101 2514 1357 2698 
C 1523 2819 1683 2857 2054 2863 
L 2054 3404 
C 1965 3449 1920 3456 1850 3456 
C 1504 3456 1242 3251 934 2750 
L 934 3328 
L 442 3328 
z
" transform="scale(0.015625)"/>
       <path id="NimbusSanL-Regu-61" d="M 3424 332 
C 3366 320 3341 320 3309 320 
C 3123 320 3021 415 3021 581 
L 3021 2542 
C 3021 3135 2586 3456 1760 3456 
C 1274 3456 870 3315 646 3065 
C 493 2893 429 2702 416 2370 
L 954 2370 
C 998 2778 1242 2963 1741 2963 
C 2221 2963 2490 2784 2490 2466 
L 2490 2326 
C 2490 2103 2355 2007 1933 1956 
C 1178 1861 1062 1835 858 1753 
C 467 1593 269 1294 269 861 
C 269 256 691 -128 1370 -128 
C 1792 -128 2131 19 2509 364 
C 2547 25 2714 -128 3059 -128 
C 3168 -128 3251 -116 3424 -71 
L 3424 332 
z
M 2490 1071 
C 2490 893 2438 785 2278 638 
C 2061 441 1798 339 1485 339 
C 1069 339 826 536 826 874 
C 826 1224 1062 1402 1632 1485 
C 2195 1562 2310 1587 2490 1670 
L 2490 1071 
z
" transform="scale(0.015625)"/>
       <path id="NimbusSanL-Regu-69" d="M 960 3358 
L 429 3358 
L 429 0 
L 960 0 
L 960 3358 
z
M 960 4672 
L 422 4672 
L 422 3999 
L 960 3999 
L 960 4672 
z
" transform="scale(0.015625)"/>
       <path id="NimbusSanL-Regu-6f" d="M 1741 3456 
C 800 3456 230 2784 230 1663 
C 230 543 794 -128 1747 -128 
C 2688 -128 3264 543 3264 1638 
C 3264 2791 2707 3456 1741 3456 
z
M 1747 2963 
C 2349 2963 2707 2472 2707 1644 
C 2707 861 2336 364 1747 364 
C 1152 364 787 855 787 1663 
C 787 2466 1152 2963 1747 2963 
z
" transform="scale(0.015625)"/>
       <path id="NimbusSanL-Regu-6e" d="M 448 3328 
L 448 0 
L 986 0 
L 986 1835 
C 986 2539 1344 2988 1894 2988 
C 2317 2988 2586 2732 2586 2328 
L 2586 0 
L 3117 0 
L 3117 2539 
C 3117 3097 2701 3456 2054 3456 
C 1555 3456 1235 3263 941 2796 
L 941 3328 
L 448 3328 
z
" transform="scale(0.015625)"/>
      </defs>
      <use xlink:href="#NimbusSanL-Regu-49" transform="scale(0.996264)"/>
      <use xlink:href="#NimbusSanL-Regu-74" transform="translate(27.69517 0) scale(0.996264)"/>
      <use xlink:href="#NimbusSanL-Regu-65" transform="translate(55.390339 0) scale(0.996264)"/>
      <use xlink:href="#NimbusSanL-Regu-72" transform="translate(110.782016 0) scale(0.996264)"/>
      <use xlink:href="#NimbusSanL-Regu-61" transform="translate(142.961149 0) scale(0.996264)"/>
      <use xlink:href="#NimbusSanL-Regu-74" transform="translate(198.352826 0) scale(0.996264)"/>
      <use xlink:href="#NimbusSanL-Regu-69" transform="translate(226.047996 0) scale(0.996264)"/>
      <use xlink:href="#NimbusSanL-Regu-6f" transform="translate(248.16478 0) scale(0.996264)"/>
      <use xlink:href="#NimbusSanL-Regu-6e" transform="translate(303.556457 0) scale(0.996264)"/>
     </g>
    </g>
   </g>
   <g id="matplotlib.axis_2">
    <g id="ytick_1">
     <g id="line2d_9">
      <defs>
       <path id="mbb649a0498" d="M 0 0 
L -3.5 0 
" style="stroke: #000000; stroke-width: 0.8"/>
      </defs>
      <g>
       <use xlink:href="#mbb649a0498" x="40.334753" y="221.795619" style="stroke: #000000; stroke-width: 0.8"/>
      </g>
     </g>
     <g id="text_10">
      <!-- $\mathdefault{−2}$ -->
      <g transform="translate(20.604674 225.344779) scale(0.1 -0.1)">
       <defs>
        <path id="CMSY10-0" d="M 4218 1472 
C 4326 1472 4442 1472 4442 1600 
C 4442 1728 4326 1728 4218 1728 
L 755 1728 
C 646 1728 531 1728 531 1600 
C 531 1472 646 1472 755 1472 
L 4218 1472 
z
" transform="scale(0.015625)"/>
       </defs>
       <use xlink:href="#CMSY10-0" transform="scale(0.996264)"/>
       <use xlink:href="#CMR17-32" transform="translate(77.487468 0) scale(0.996264)"/>
      </g>
     </g>
    </g>
    <g id="ytick_2">
     <g id="line2d_10">
      <g>
       <use xlink:href="#mbb649a0498" x="40.334753" y="185.523007" style="stroke: #000000; stroke-width: 0.8"/>
      </g>
     </g>
     <g id="text_11">
      <!-- $\mathdefault{0}$ -->
      <g transform="translate(28.353418 189.072168) scale(0.1 -0.1)">
       <use xlink:href="#CMR17-30" transform="scale(0.996264)"/>
      </g>
     </g>
    </g>
    <g id="ytick_3">
     <g id="line2d_11">
      <g>
       <use xlink:href="#mbb649a0498" x="40.334753" y="149.250396" style="stroke: #000000; stroke-width: 0.8"/>
      </g>
     </g>
     <g id="text_12">
      <!-- $\mathdefault{2}$ -->
      <g transform="translate(28.353418 152.799556) scale(0.1 -0.1)">
       <use xlink:href="#CMR17-32" transform="scale(0.996264)"/>
      </g>
     </g>
    </g>
    <g id="ytick_4">
     <g id="line2d_12">
      <g>
       <use xlink:href="#mbb649a0498" x="40.334753" y="112.977785" style="stroke: #000000; stroke-width: 0.8"/>
      </g>
     </g>
     <g id="text_13">
      <!-- $\mathdefault{4}$ -->
      <g transform="translate(28.353418 116.526945) scale(0.1 -0.1)">
       <defs>
        <path id="CMR17-34" d="M 2150 4147 
C 2150 4281 2144 4288 2029 4288 
L 128 1254 
L 128 1088 
L 1779 1088 
L 1779 460 
C 1779 230 1766 166 1318 166 
L 1197 166 
L 1197 0 
C 1402 12 1747 12 1965 12 
C 2182 12 2528 12 2733 0 
L 2733 166 
L 2611 166 
C 2163 166 2150 230 2150 460 
L 2150 1088 
L 2803 1088 
L 2803 1254 
L 2150 1254 
L 2150 4147 
z
M 1798 3723 
L 1798 1254 
L 256 1254 
L 1798 3723 
z
" transform="scale(0.015625)"/>
       </defs>
       <use xlink:href="#CMR17-34" transform="scale(0.996264)"/>
      </g>
     </g>
    </g>
    <g id="ytick_5">
     <g id="line2d_13">
      <g>
       <use xlink:href="#mbb649a0498" x="40.334753" y="76.705174" style="stroke: #000000; stroke-width: 0.8"/>
      </g>
     </g>
     <g id="text_14">
      <!-- $\mathdefault{6}$ -->
      <g transform="translate(28.353418 80.254334) scale(0.1 -0.1)">
       <defs>
        <path id="CMR17-36" d="M 678 2198 
C 678 3712 1395 4076 1811 4076 
C 1946 4076 2272 4049 2400 3782 
C 2298 3782 2106 3782 2106 3558 
C 2106 3385 2246 3328 2336 3328 
C 2394 3328 2566 3353 2566 3571 
C 2566 3987 2246 4224 1805 4224 
C 1043 4224 243 3411 243 2011 
C 243 257 966 -128 1478 -128 
C 2099 -128 2688 431 2688 1295 
C 2688 2101 2170 2688 1517 2688 
C 1126 2688 838 2430 678 1979 
L 678 2198 
z
M 1478 25 
C 691 25 691 1212 691 1450 
C 691 1914 909 2585 1504 2585 
C 1613 2585 1926 2585 2138 2140 
C 2253 1889 2253 1624 2253 1302 
C 2253 954 2253 696 2118 438 
C 1978 173 1773 25 1478 25 
z
" transform="scale(0.015625)"/>
       </defs>
       <use xlink:href="#CMR17-36" transform="scale(0.996264)"/>
      </g>
     </g>
    </g>
    <g id="ytick_6">
     <g id="line2d_14">
      <g>
       <use xlink:href="#mbb649a0498" x="40.334753" y="40.432562" style="stroke: #000000; stroke-width: 0.8"/>
      </g>
     </g>
     <g id="text_15">
      <!-- $\mathdefault{8}$ -->
      <g transform="translate(28.353418 43.981722) scale(0.1 -0.1)">
       <defs>
        <path id="CMR17-38" d="M 1741 2289 
C 2144 2494 2554 2803 2554 3298 
C 2554 3884 1990 4224 1472 4224 
C 890 4224 378 3800 378 3215 
C 378 3054 416 2777 666 2533 
C 730 2469 998 2276 1171 2154 
C 883 2006 211 1652 211 945 
C 211 282 838 -128 1459 -128 
C 2144 -128 2720 366 2720 1022 
C 2720 1607 2330 1877 2074 2051 
L 1741 2289 
z
M 902 2855 
C 851 2887 595 3086 595 3388 
C 595 3781 998 4076 1459 4076 
C 1965 4076 2336 3716 2336 3298 
C 2336 2700 1670 2359 1638 2359 
C 1632 2359 1626 2359 1574 2398 
L 902 2855 
z
M 2080 1536 
C 2176 1466 2483 1253 2483 861 
C 2483 385 2010 25 1472 25 
C 890 25 448 443 448 951 
C 448 1459 838 1884 1280 2083 
L 2080 1536 
z
" transform="scale(0.015625)"/>
       </defs>
       <use xlink:href="#CMR17-38" transform="scale(0.996264)"/>
      </g>
     </g>
    </g>
    <g id="text_16">
     <!-- Aerodynamic Coefficients - Blade_14 -->
     <g transform="translate(14.482687 199.050447) rotate(-90) scale(0.1 -0.1)">
      <defs>
       <path id="NimbusSanL-Regu-41" d="M 3034 1408 
L 3514 0 
L 4179 0 
L 2541 4672 
L 1773 4672 
L 109 0 
L 742 0 
L 1235 1408 
L 3034 1408 
z
M 2867 1907 
L 1382 1907 
L 2150 4032 
L 2867 1907 
z
" transform="scale(0.015625)"/>
       <path id="NimbusSanL-Regu-64" d="M 3168 4672 
L 2637 4672 
L 2637 2937 
C 2413 3276 2054 3456 1606 3456 
C 736 3456 166 2759 166 1695 
C 166 568 723 -128 1626 -128 
C 2086 -128 2406 44 2694 460 
L 2694 19 
L 3168 19 
L 3168 4672 
z
M 1696 2956 
C 2272 2956 2637 2447 2637 1651 
C 2637 880 2266 371 1702 371 
C 1114 371 723 887 723 1663 
C 723 2440 1114 2956 1696 2956 
z
" transform="scale(0.015625)"/>
       <path id="NimbusSanL-Regu-79" d="M 2483 3328 
L 1555 724 
L 698 3328 
L 128 3328 
L 1261 -29 
L 1056 -558 
C 973 -794 851 -884 627 -884 
C 550 -884 461 -871 346 -845 
L 346 -1325 
C 454 -1383 563 -1408 704 -1408 
C 877 -1408 1062 -1351 1203 -1248 
C 1370 -1127 1466 -986 1568 -718 
L 3059 3328 
L 2483 3328 
z
" transform="scale(0.015625)"/>
       <path id="NimbusSanL-Regu-6d" d="M 448 3328 
L 448 0 
L 986 0 
L 986 2089 
C 986 2597 1338 2988 1773 2988 
C 2170 2988 2394 2744 2394 2315 
L 2394 0 
L 2931 0 
L 2931 2109 
C 2931 2597 3283 2988 3718 2988 
C 4109 2988 4339 2738 4339 2315 
L 4339 0 
L 4877 0 
L 4877 2520 
C 4877 3123 4531 3456 3904 3456 
C 3456 3456 3187 3321 2874 2943 
C 2675 3302 2406 3456 1971 3456 
C 1523 3456 1229 3289 941 2886 
L 941 3328 
L 448 3328 
z
" transform="scale(0.015625)"/>
       <path id="NimbusSanL-Regu-63" d="M 3014 2237 
C 2989 2561 2918 2771 2790 2956 
C 2560 3270 2157 3456 1690 3456 
C 787 3456 198 2740 198 1632 
C 198 555 774 -128 1683 -128 
C 2483 -128 2989 352 3053 1167 
L 2515 1167 
C 2426 632 2150 364 1696 364 
C 1107 364 755 842 755 1632 
C 755 2466 1101 2963 1683 2963 
C 2131 2963 2413 2701 2477 2237 
L 3014 2237 
z
" transform="scale(0.015625)"/>
       <path id="NimbusSanL-Regu-43" d="M 4237 3219 
C 4051 4236 3462 4736 2438 4736 
C 1811 4736 1306 4537 960 4154 
C 538 3696 307 3035 307 2284 
C 307 1522 544 867 986 415 
C 1344 44 1805 -128 2413 -128 
C 3552 -128 4192 485 4333 1712 
L 3718 1712 
C 3667 1394 3603 1178 3507 994 
C 3315 612 2918 396 2419 396 
C 1491 396 902 1134 902 2291 
C 902 3480 1466 4211 2368 4211 
C 2746 4211 3098 4096 3290 3918 
C 3462 3759 3558 3562 3629 3219 
L 4237 3219 
z
" transform="scale(0.015625)"/>
       <path id="NimbusSanL-Regu-66" d="M 1651 3328 
L 1094 3328 
L 1094 3860 
C 1094 4087 1222 4204 1466 4204 
C 1510 4204 1530 4204 1651 4198 
L 1651 4639 
C 1530 4665 1459 4672 1350 4672 
C 858 4672 563 4390 563 3905 
L 563 3328 
L 115 3328 
L 115 2892 
L 563 2892 
L 563 0 
L 1094 0 
L 1094 2892 
L 1651 2892 
L 1651 3328 
z
" transform="scale(0.015625)"/>
       <path id="NimbusSanL-Regu-2" d="M 1613 3328 
L 1056 3328 
L 1056 3860 
C 1056 4087 1184 4204 1427 4204 
C 1472 4204 1491 4204 1613 4198 
L 1613 4639 
C 1491 4665 1421 4672 1312 4672 
C 819 4672 525 4390 525 3905 
L 525 3328 
L 77 3328 
L 77 2892 
L 525 2892 
L 525 0 
L 1056 0 
L 1056 2892 
L 1613 2892 
L 1613 3328 
z
M 2790 3328 
L 2259 3328 
L 2259 0 
L 2790 0 
L 2790 3328 
z
M 2790 4672 
L 2259 4672 
L 2259 3999 
L 2790 3999 
L 2790 4672 
z
" transform="scale(0.015625)"/>
       <path id="NimbusSanL-Regu-73" d="M 2803 2428 
C 2797 3084 2362 3456 1587 3456 
C 806 3456 301 3052 301 2434 
C 301 1912 570 1663 1363 1472 
L 1862 1351 
C 2234 1262 2381 1129 2381 887 
C 2381 574 2067 364 1600 364 
C 1312 364 1069 447 934 587 
C 851 683 813 778 781 1014 
L 218 1014 
C 243 243 678 -128 1555 -128 
C 2400 -128 2938 288 2938 931 
C 2938 1428 2656 1702 1990 1861 
L 1478 1982 
C 1043 2084 858 2224 858 2459 
C 858 2765 1133 2963 1568 2963 
C 1997 2963 2227 2778 2240 2428 
L 2803 2428 
z
" transform="scale(0.015625)"/>
       <path id="NimbusSanL-Regu-2d" d="M 1818 1996 
L 294 1996 
L 294 1536 
L 1818 1536 
L 1818 1996 
z
" transform="scale(0.015625)"/>
       <path id="NimbusSanL-Regu-42" d="M 506 0 
L 2611 0 
C 3053 0 3379 121 3629 390 
C 3859 632 3987 961 3987 1321 
C 3987 1878 3731 2214 3136 2444 
C 3558 2643 3782 2994 3782 3476 
C 3782 3821 3654 4127 3411 4345 
C 3168 4569 2848 4672 2400 4672 
L 506 4672 
L 506 0 
z
M 1101 2636 
L 1101 4147 
L 2253 4147 
C 2586 4147 2771 4101 2931 3977 
C 3098 3847 3187 3652 3187 3391 
C 3187 3138 3098 2936 2931 2806 
C 2771 2682 2586 2636 2253 2636 
L 1101 2636 
z
M 1101 524 
L 1101 2112 
L 2554 2112 
C 2842 2112 3034 2042 3174 1890 
C 3315 1745 3392 1542 3392 1315 
C 3392 1093 3315 891 3174 746 
C 3034 594 2842 524 2554 524 
L 1101 524 
z
" transform="scale(0.015625)"/>
       <path id="NimbusSanL-Regu-6c" d="M 973 4672 
L 435 4672 
L 435 0 
L 973 0 
L 973 4672 
z
" transform="scale(0.015625)"/>
       <path id="NimbusSanL-Regu-31" d="M 1658 3232 
L 1658 0 
L 2221 0 
L 2221 4537 
L 1850 4537 
C 1651 3840 1523 3744 653 3635 
L 653 3232 
L 1658 3232 
z
" transform="scale(0.015625)"/>
       <path id="NimbusSanL-Regu-34" d="M 2093 1088 
L 2093 0 
L 2656 0 
L 2656 1088 
L 3328 1088 
L 3328 1593 
L 2656 1593 
L 2656 4537 
L 2240 4537 
L 179 1683 
L 179 1088 
L 2093 1088 
z
M 2093 1593 
L 672 1593 
L 2093 3577 
L 2093 1593 
z
" transform="scale(0.015625)"/>
      </defs>
      <use xlink:href="#NimbusSanL-Regu-41" transform="scale(0.996264)"/>
      <use xlink:href="#NimbusSanL-Regu-65" transform="translate(66.450031 0) scale(0.996264)"/>
      <use xlink:href="#NimbusSanL-Regu-72" transform="translate(121.841708 0) scale(0.996264)"/>
      <use xlink:href="#NimbusSanL-Regu-6f" transform="translate(155.016938 0) scale(0.996264)"/>
      <use xlink:href="#NimbusSanL-Regu-64" transform="translate(210.408615 0) scale(0.996264)"/>
      <use xlink:href="#NimbusSanL-Regu-79" transform="translate(265.800292 0) scale(0.996264)"/>
      <use xlink:href="#NimbusSanL-Regu-6e" transform="translate(315.613492 0) scale(0.996264)"/>
      <use xlink:href="#NimbusSanL-Regu-61" transform="translate(371.005169 0) scale(0.996264)"/>
      <use xlink:href="#NimbusSanL-Regu-6d" transform="translate(426.396846 0) scale(0.996264)"/>
      <use xlink:href="#NimbusSanL-Regu-69" transform="translate(509.385276 0) scale(0.996264)"/>
      <use xlink:href="#NimbusSanL-Regu-63" transform="translate(531.502061 0) scale(0.996264)"/>
      <use xlink:href="#NimbusSanL-Regu-43" transform="translate(609.010431 0) scale(0.996264)"/>
      <use xlink:href="#NimbusSanL-Regu-6f" transform="translate(680.940416 0) scale(0.996264)"/>
      <use xlink:href="#NimbusSanL-Regu-65" transform="translate(736.332093 0) scale(0.996264)"/>
      <use xlink:href="#NimbusSanL-Regu-66" transform="translate(791.72377 0) scale(0.996264)"/>
      <use xlink:href="#NimbusSanL-Regu-2" transform="translate(819.418939 0) scale(0.996264)"/>
      <use xlink:href="#NimbusSanL-Regu-63" transform="translate(869.23214 0) scale(0.996264)"/>
      <use xlink:href="#NimbusSanL-Regu-69" transform="translate(919.04534 0) scale(0.996264)"/>
      <use xlink:href="#NimbusSanL-Regu-65" transform="translate(941.162125 0) scale(0.996264)"/>
      <use xlink:href="#NimbusSanL-Regu-6e" transform="translate(996.553802 0) scale(0.996264)"/>
      <use xlink:href="#NimbusSanL-Regu-74" transform="translate(1051.945479 0) scale(0.996264)"/>
      <use xlink:href="#NimbusSanL-Regu-73" transform="translate(1079.640648 0) scale(0.996264)"/>
      <use xlink:href="#NimbusSanL-Regu-2d" transform="translate(1157.149018 0) scale(0.996264)"/>
      <use xlink:href="#NimbusSanL-Regu-42" transform="translate(1218.019418 0) scale(0.996264)"/>
      <use xlink:href="#NimbusSanL-Regu-6c" transform="translate(1284.469449 0) scale(0.996264)"/>
      <use xlink:href="#NimbusSanL-Regu-61" transform="translate(1306.586233 0) scale(0.996264)"/>
      <use xlink:href="#NimbusSanL-Regu-64" transform="translate(1361.97791 0) scale(0.996264)"/>
      <use xlink:href="#NimbusSanL-Regu-65" transform="translate(1417.369587 0) scale(0.996264)"/>
      <use xlink:href="#NimbusSanL-Regu-31" transform="translate(1508.626829 0) scale(0.996264)"/>
      <use xlink:href="#NimbusSanL-Regu-34" transform="translate(1564.018506 0) scale(0.996264)"/>
      <path d="M 1478.738605 0 
L 1508.626829 0 
L 1508.626829 0.3985 
L 1478.738605 0.3985 
L 1478.738605 0 
z
"/>
     </g>
    </g>
   </g>
   <g id="line2d_15">
    <path d="M 55.552935 125.072746 
L 55.797469 17.575832 
L 55.87898 17.28 
L 56.042003 20.524736 
L 56.44956 32.384498 
L 56.694095 32.765897 
L 57.183163 35.373646 
L 57.427697 35.965963 
L 57.672232 37.114555 
L 57.998277 40.041743 
L 58.1613 41.78716 
L 58.405834 42.483102 
L 58.650369 44.16556 
L 58.894903 48.344654 
L 59.139437 58.973221 
L 59.30246 66.052281 
L 59.546994 68.581591 
L 59.791528 74.226348 
L 60.036063 86.501111 
L 60.280597 114.201498 
L 60.44362 128.243725 
L 60.688154 133.047159 
L 60.932688 143.128702 
L 61.58478 176.108018 
L 61.829314 178.113331 
L 62.15536 183.554001 
L 62.481405 188.796488 
L 62.888962 189.33508 
L 63.785588 190.991655 
L 64.356168 190.810322 
L 64.519191 190.463509 
L 64.682214 189.419407 
L 65.171282 183.857507 
L 65.415816 182.381112 
L 65.660351 179.060701 
L 65.904885 171.482167 
L 66.312442 155.616016 
L 66.556976 153.091576 
L 66.883022 146.224553 
L 67.127556 140.545641 
L 67.209068 140.468258 
L 67.290579 141.643983 
L 67.453602 144.76254 
L 67.698136 146.052628 
L 67.94267 148.952568 
L 68.187205 154.775986 
L 68.51325 163.966259 
L 68.757784 164.93949 
L 69.08383 167.634293 
L 69.817433 174.649293 
L 70.143479 175.200325 
L 70.469524 176.240827 
L 70.877081 178.201853 
L 71.203127 178.615156 
L 71.447661 179.357918 
L 71.692196 181.033667 
L 71.93673 183.396103 
L 72.181264 183.89301 
L 72.425798 184.912552 
L 72.670333 186.953453 
L 73.07789 190.975233 
L 73.322424 191.598197 
L 73.64847 193.194352 
L 74.056027 195.199523 
L 74.545095 195.16314 
L 74.789629 194.901056 
L 74.952652 194.327645 
L 75.115675 192.8244 
L 75.523232 187.297386 
L 75.767766 186.204822 
L 76.012301 183.916697 
L 76.256835 179.40921 
L 76.582881 167.662819 
L 76.745903 162.890269 
L 76.990438 161.257271 
L 77.234972 157.557892 
L 77.479506 150.150647 
L 77.887063 136.614893 
L 78.131598 134.629645 
L 78.457643 129.472353 
L 78.8652 122.033365 
L 79.191246 121.816761 
L 79.517292 121.58014 
L 79.680315 121.903498 
L 79.843337 123.032809 
L 80.169383 125.811915 
L 80.413917 126.565622 
L 80.658452 128.170301 
L 80.902986 131.436591 
L 81.14752 135.658837 
L 81.392054 136.489672 
L 81.636589 138.273275 
L 81.881123 141.784999 
L 82.125657 148.908356 
L 82.28868 152.887946 
L 82.533214 154.203705 
L 82.777748 156.977022 
L 83.103794 164.161162 
L 83.511351 175.078006 
L 83.755885 175.958758 
L 84.081931 178.56043 
L 84.571 183.376433 
L 84.897045 183.766339 
L 85.304602 184.467263 
L 85.386114 184.413128 
L 85.549137 183.718692 
L 85.875182 182.137666 
L 86.119717 181.715855 
L 86.364251 180.8223 
L 86.608785 179.009553 
L 86.853319 176.959494 
L 87.097854 176.597218 
L 87.423899 175.601057 
L 87.994479 173.639702 
L 88.565059 173.358179 
L 89.135639 173.070116 
L 89.624708 172.932334 
L 89.950753 172.61699 
L 90.276799 172.307048 
L 90.684356 172.136124 
L 91.49947 171.565669 
L 91.907027 171.46381 
L 92.233073 171.16836 
L 92.396096 170.817839 
L 92.64063 169.407433 
L 92.803653 168.545428 
L 93.048187 168.251565 
L 93.292721 167.612251 
L 93.618767 166.024587 
L 93.863301 164.616581 
L 94.107836 164.347935 
L 94.35237 163.748841 
L 94.596904 162.57212 
L 95.085973 159.420201 
L 95.330507 159.008032 
L 95.575041 158.173319 
L 95.819575 156.605786 
L 96.227132 153.107505 
L 96.471667 152.817165 
L 96.797712 151.934094 
L 97.286781 150.162652 
L 98.020384 150.033206 
L 98.183407 150.332362 
L 98.509452 151.171375 
L 98.753986 151.411145 
L 98.998521 151.939218 
L 99.243055 153.019634 
L 99.487589 155.184721 
L 99.650612 156.337172 
L 99.895146 156.724034 
L 100.139681 157.573671 
L 100.384215 159.16777 
L 100.791772 162.351452 
L 101.036306 162.912971 
L 101.28084 164.048802 
L 101.525375 166.089373 
L 101.932932 169.765167 
L 102.177466 170.36424 
L 102.422 171.538256 
L 102.748046 174.293437 
L 102.911069 175.230251 
L 103.155603 175.509077 
L 103.481649 176.316326 
L 103.970717 177.842758 
L 104.459786 178.057322 
L 104.785831 178.173229 
L 104.948854 177.942611 
L 105.111877 177.602708 
L 105.437923 177.387592 
L 105.682457 176.981066 
L 105.926991 176.037965 
L 106.334548 173.870133 
L 106.579083 173.493467 
L 106.905128 172.427396 
L 107.231174 170.322928 
L 107.475708 168.711399 
L 107.720242 168.410253 
L 107.964777 167.734634 
L 108.209311 166.454169 
L 108.616868 164.027131 
L 108.861402 163.626995 
L 109.105937 162.831487 
L 109.431982 160.915249 
L 109.676517 159.649344 
L 110.002562 159.387622 
L 110.573142 158.730563 
L 110.899188 158.801287 
L 111.388256 158.972907 
L 111.632791 159.284823 
L 111.958836 159.77855 
L 112.366393 160.048319 
L 112.692439 160.592595 
L 113.181507 161.623443 
L 113.507553 161.811607 
L 113.91511 162.368843 
L 114.159645 162.734823 
L 114.648713 162.923554 
L 115.62685 163.550043 
L 116.278941 163.542036 
L 117.012544 163.021133 
L 117.33859 162.74788 
L 117.583124 162.185083 
L 117.746147 161.822071 
L 118.072193 161.628841 
L 118.398238 161.115087 
L 118.724284 159.982948 
L 118.887307 159.574226 
L 119.294864 159.31634 
L 119.783932 158.888085 
L 119.946955 159.185435 
L 120.109978 159.596418 
L 120.436024 159.852458 
L 120.680558 160.339413 
L 120.925092 161.359747 
L 121.169626 162.546927 
L 121.495672 162.877754 
L 121.821718 163.687396 
L 122.147764 165.360368 
L 122.310786 166.003388 
L 122.636832 166.309599 
L 122.962878 167.026359 
L 123.451946 168.317169 
L 123.777992 168.53925 
L 124.26706 169.245314 
L 124.511595 169.440658 
L 125.245197 169.364696 
L 125.40822 169.109525 
L 125.734266 168.385841 
L 126.060312 168.056716 
L 126.304846 167.455843 
L 126.54938 166.174139 
L 126.956937 163.138302 
L 127.201471 162.842179 
L 127.446006 162.204306 
L 127.772051 160.621122 
L 128.016586 159.473146 
L 128.342631 159.198627 
L 128.750188 158.411301 
L 129.157746 157.649183 
L 129.891348 157.703918 
L 130.135883 157.998223 
L 130.298905 158.219884 
L 130.706462 158.399737 
L 131.032508 158.839684 
L 131.277042 159.611894 
L 131.521577 160.360243 
L 131.847622 160.572649 
L 132.173668 161.109389 
L 132.744248 162.340502 
L 133.070294 162.644005 
L 133.396339 163.283027 
L 133.803896 164.159054 
L 134.129942 164.37126 
L 134.455988 164.83698 
L 134.945056 165.628102 
L 135.434125 165.86718 
L 135.923193 166.155183 
L 136.819819 166.128099 
L 137.227376 165.955724 
L 137.716444 165.782258 
L 138.124002 165.359985 
L 138.287024 165.244184 
L 138.939116 165.071599 
L 139.75423 164.740467 
L 141.139924 164.809446 
L 141.547481 164.9784 
L 141.873527 165.238153 
L 142.362595 165.43933 
L 142.688641 165.823608 
L 143.422244 167.106849 
L 143.585267 167.200677 
L 145.052472 167.221944 
L 145.460029 167.019329 
L 145.949098 166.587992 
L 146.356655 166.369533 
L 146.6827 165.905813 
L 146.927235 165.443996 
L 147.334792 165.251955 
L 147.660837 164.855843 
L 147.986883 164.074947 
L 148.149906 163.805829 
L 148.557463 163.616062 
L 148.883509 163.235839 
L 149.291066 162.710393 
L 149.780134 162.472898 
L 150.595249 161.877827 
L 151.654897 161.746436 
L 152.143965 161.860942 
L 152.3885 162.1153 
L 152.551523 162.289404 
L 153.040591 162.480913 
L 153.366637 162.868636 
L 153.855705 163.71071 
L 154.263262 163.942082 
L 154.589308 164.374213 
L 154.833842 164.716231 
L 155.322911 164.888446 
L 156.301048 165.433873 
L 157.116162 165.460593 
L 157.768253 165.330349 
L 158.012788 165.124921 
L 158.17581 164.990826 
L 158.664879 164.843801 
L 158.990925 164.549283 
L 159.479993 163.923485 
L 159.88755 163.752205 
L 160.295107 163.322817 
L 160.45813 163.188671 
L 161.02871 163.026832 
L 161.762313 162.756733 
L 162.495916 162.792638 
L 162.74045 162.854566 
L 163.392541 163.017925 
L 165.430327 164.263821 
L 166.408464 164.662185 
L 167.305089 164.740113 
L 167.957181 164.603386 
L 168.772295 164.130054 
L 169.098341 163.89761 
L 169.505898 163.515371 
L 169.994966 163.323821 
L 170.402523 162.888361 
L 170.565546 162.746839 
L 171.136126 162.571955 
L 171.95124 162.197187 
L 172.766354 162.272024 
L 173.499957 162.387818 
L 173.826003 162.636247 
L 173.989026 162.76104 
L 174.559606 162.936983 
L 174.885651 163.238724 
L 175.048674 163.363248 
L 175.619254 163.524562 
L 176.026811 163.850153 
L 176.189834 163.949172 
L 176.841925 164.099235 
L 177.494017 164.28323 
L 178.309131 164.206464 
L 178.553665 164.148863 
L 179.205756 164.005263 
L 180.835985 162.953121 
L 181.325053 162.618351 
L 181.73261 162.568029 
L 182.140167 162.741215 
L 182.792259 163.321152 
L 183.607373 163.99276 
L 185.72667 163.951478 
L 185.971204 163.881103 
L 186.623295 163.716658 
L 187.193875 163.496303 
L 187.764455 163.28805 
L 188.253524 163.064713 
L 188.905615 162.868724 
L 189.476195 162.669627 
L 191.269446 162.712076 
L 192.736652 163.086788 
L 193.470255 163.223526 
L 194.040835 163.350611 
L 196.160131 163.434697 
L 197.056757 163.305544 
L 197.382803 163.258307 
L 198.768497 163.055976 
L 200.887794 162.860948 
L 202.518022 162.967567 
L 204.71883 163.153659 
L 207.082662 163.132919 
L 210.913698 163.019409 
L 220.695068 162.932838 
L 223.0589 162.874963 
L 225.178196 162.940283 
L 227.379005 162.959014 
L 231.454576 162.813587 
L 233.736895 162.831634 
L 235.367124 162.901063 
L 240.502343 162.997854 
L 242.62164 162.883052 
L 244.90396 162.848649 
L 248.898019 163.037388 
L 280.850495 163.064173 
L 286.31176 163.065476 
L 289.490706 163.056474 
L 309.29798 163.14454 
L 313.618085 163.175103 
L 318.916328 163.202295 
L 331.632109 163.224092 
L 337.663954 163.23506 
L 343.369753 163.251583 
L 347.934393 163.261342 
L 354.618329 163.258982 
L 359.916571 163.26769 
L 359.916571 163.26769 
" clip-path="url(#p513861c6ae)" style="fill: none; stroke: #1f77b4; stroke-width: 1.5; stroke-linecap: square"/>
   </g>
   <g id="line2d_16">
    <path d="M 55.552935 193.421695 
L 55.715958 208.387275 
L 56.205026 204.95888 
L 56.368049 204.752662 
L 56.775606 205.427338 
L 57.346186 205.734136 
L 57.672232 206.0735 
L 57.835254 206.507337 
L 57.998277 207.591452 
L 58.1613 208.645357 
L 58.405834 209.02037 
L 58.650369 209.867246 
L 58.894903 211.489826 
L 59.465483 216.042226 
L 59.710017 216.755721 
L 60.199086 218.88 
L 60.280597 218.584482 
L 60.44362 217.607771 
L 60.688154 216.948043 
L 60.932688 215.137808 
L 61.177223 210.427062 
L 61.503268 203.722345 
L 61.747802 202.655568 
L 61.992337 200.142264 
L 62.399894 191.768444 
L 62.562917 189.603747 
L 62.807451 188.766303 
L 63.051985 186.932307 
L 63.459542 181.580232 
L 63.867099 175.420345 
L 64.111634 174.90493 
L 64.437679 173.302467 
L 64.763725 170.462625 
L 65.008259 168.71669 
L 65.252793 168.450229 
L 65.578839 167.600857 
L 65.904885 166.581328 
L 65.986396 166.781967 
L 66.393953 170.561423 
L 66.638488 172.342475 
L 66.883022 176.471576 
L 67.209068 188.197023 
L 67.453602 194.856356 
L 67.698136 195.967373 
L 67.94267 198.247255 
L 68.268716 203.413456 
L 68.51325 206.904814 
L 68.757784 207.474482 
L 69.002319 208.610578 
L 69.328364 211.247398 
L 69.735921 215.26431 
L 69.980456 215.586698 
L 70.306501 216.50507 
L 70.632547 217.451765 
L 71.36615 217.205177 
L 71.529173 216.790639 
L 71.692196 215.753967 
L 72.018241 213.024723 
L 72.262775 212.247547 
L 72.50731 210.543928 
L 72.751844 206.782366 
L 72.996378 201.804504 
L 73.240912 200.821044 
L 73.485447 198.88012 
L 73.811492 193.941484 
L 74.137538 188.649736 
L 74.382072 188.11629 
L 74.708118 186.676697 
L 75.115675 183.656703 
L 75.441721 180.867531 
L 75.686255 180.5141 
L 75.930789 179.767943 
L 76.256835 177.941228 
L 76.501369 176.584277 
L 76.582881 176.492702 
L 76.745903 176.698742 
L 77.071949 176.911515 
L 77.316483 177.421976 
L 77.479506 178.28015 
L 77.642529 180.106942 
L 77.805552 181.693372 
L 78.050086 182.242488 
L 78.29462 183.424952 
L 78.539155 185.62471 
L 79.028223 191.166559 
L 79.272757 191.861448 
L 79.598803 193.75247 
L 80.250894 198.093841 
L 80.495429 198.676378 
L 80.739963 199.778439 
L 81.229031 202.51485 
L 81.473566 202.827495 
L 82.044146 203.957594 
L 82.125657 203.722537 
L 82.28868 203.021028 
L 82.533214 202.717888 
L 82.777748 201.996387 
L 83.022283 200.281917 
L 83.266817 196.49451 
L 83.511351 193.188317 
L 83.755885 192.631893 
L 84.00042 191.45179 
L 84.407977 187.973009 
L 84.571 187.0775 
L 84.815534 186.821087 
L 85.14158 186.07977 
L 85.793671 184.437988 
L 86.364251 184.488429 
L 86.527274 184.691629 
L 86.690297 185.290416 
L 86.853319 185.940663 
L 87.097854 186.194675 
L 87.342388 186.772074 
L 87.586922 188.034706 
L 87.831456 190.735678 
L 87.994479 192.130305 
L 88.239013 192.584481 
L 88.483548 193.491419 
L 88.809593 195.614786 
L 89.135639 197.762834 
L 89.461685 198.080222 
L 89.869242 198.921057 
L 90.113776 199.346793 
L 90.847379 199.272414 
L 91.010402 199.032484 
L 91.254936 198.047616 
L 91.49947 196.940014 
L 91.825516 196.58909 
L 92.07005 195.996408 
L 92.396096 194.436571 
L 92.803653 192.038738 
L 93.129699 191.703778 
L 93.455744 190.939305 
L 93.944813 189.55313 
L 94.270858 189.256116 
L 94.515393 188.743593 
L 94.841438 187.37793 
L 95.004461 186.903384 
L 95.330507 186.689412 
L 95.656553 186.189617 
L 96.227132 185.102522 
L 97.123758 185.135538 
L 97.286781 185.322996 
L 97.694338 185.48999 
L 97.938872 185.79393 
L 98.183407 186.498637 
L 98.427941 187.494827 
L 98.753986 187.811332 
L 98.998521 188.386418 
L 99.243055 189.516608 
L 99.732123 192.390693 
L 99.976658 192.757811 
L 100.302703 193.786208 
L 100.71026 195.379857 
L 101.036306 195.569666 
L 101.688397 196.265659 
L 101.932932 196.138936 
L 102.340489 195.959067 
L 102.585023 195.604897 
L 103.074092 194.592014 
L 103.400137 194.205396 
L 103.644672 193.575621 
L 104.052229 192.324973 
L 104.378274 191.997354 
L 104.70432 191.232644 
L 105.193388 189.727589 
L 105.519434 189.458427 
L 105.926991 188.753397 
L 106.253037 188.294159 
L 107.149663 188.321724 
L 107.638731 189.012217 
L 107.964777 189.289862 
L 108.209311 189.752832 
L 108.616868 190.718629 
L 108.942914 190.975571 
L 109.268959 191.556256 
L 109.758028 192.654431 
L 110.084074 192.858686 
L 110.817676 193.531577 
L 111.469768 193.468206 
L 111.714302 193.127406 
L 111.877325 192.868943 
L 112.284882 192.661124 
L 112.610928 192.164337 
L 112.936973 191.051974 
L 113.099996 190.660683 
L 113.426042 190.471786 
L 113.752087 190.010367 
L 114.241156 189.173946 
L 114.648713 188.975051 
L 115.382316 188.456634 
L 116.115919 188.554227 
L 116.360453 188.798889 
L 116.76801 189.244852 
L 117.175567 189.420551 
L 117.501613 189.799503 
L 117.746147 190.161025 
L 118.235215 190.364525 
L 118.561261 190.725048 
L 118.968818 191.215079 
L 119.376375 191.390522 
L 119.783932 191.856802 
L 120.109978 192.275489 
L 120.599047 192.422014 
L 121.332649 192.732893 
L 122.147764 192.687089 
L 122.392298 192.592758 
L 122.881366 192.449297 
L 123.207412 192.134662 
L 123.370435 191.999109 
L 123.941015 191.82245 
L 124.348572 191.454023 
L 124.511595 191.338568 
L 125.082175 191.190156 
L 125.40822 190.926965 
L 125.734266 190.650798 
L 126.223334 190.441491 
L 126.54938 190.048735 
L 126.956937 189.504942 
L 127.609029 189.317584 
L 128.016586 189.299916 
L 128.750188 189.410195 
L 128.994723 189.613562 
L 129.320768 189.891518 
L 129.809837 190.100782 
L 130.135883 190.462614 
L 130.298905 190.607662 
L 130.787974 190.752569 
L 131.195531 191.11069 
L 131.521577 191.396303 
L 132.255179 191.55178 
L 132.744248 191.574119 
L 133.396339 191.480427 
L 134.700522 190.6524 
L 134.863545 190.502019 
L 135.434125 190.311684 
L 136.167727 189.962487 
L 137.390399 189.874275 
L 137.879467 190.018182 
L 138.61307 190.50271 
L 139.020627 190.787586 
L 139.428184 191.485364 
L 139.591207 191.670075 
L 140.080276 191.849218 
L 140.976901 192.373785 
L 141.873527 192.460144 
L 142.525618 192.327057 
L 142.851664 192.01526 
L 143.666778 191.180835 
L 144.237358 191.00979 
L 145.052472 190.653136 
L 146.6827 190.390511 
L 147.905372 190.732454 
L 148.231417 190.909638 
L 148.801997 191.071203 
L 149.5356 191.376002 
L 150.10618 191.618775 
L 150.432226 191.759929 
L 151.084317 191.907481 
L 151.654897 192.043862 
L 153.692682 192.13389 
L 154.589308 191.990194 
L 154.996865 191.867222 
L 155.648956 191.68602 
L 156.138025 191.488399 
L 156.790116 191.307486 
L 157.197673 191.215975 
L 158.909413 191.186393 
L 159.235459 191.359392 
L 159.479993 191.452952 
L 160.050573 191.614796 
L 160.784176 191.971471 
L 161.273244 192.224728 
L 161.680801 192.507911 
L 162.251381 192.674057 
L 162.821961 192.879978 
L 164.45219 192.906705 
L 164.778235 192.732676 
L 164.941258 192.63503 
L 165.511838 192.491241 
L 165.837884 192.22594 
L 166.000907 192.110587 
L 166.571487 191.955674 
L 166.979044 191.61787 
L 167.142066 191.510135 
L 167.794158 191.341085 
L 168.527761 191.096125 
L 169.505898 191.169005 
L 170.157989 191.295317 
L 171.625194 192.153997 
L 171.788217 192.266507 
L 172.358797 192.408773 
L 173.0924 192.666831 
L 174.559606 192.722937 
L 175.782277 192.389427 
L 176.51588 192.072268 
L 177.004948 191.857794 
L 177.494017 191.581326 
L 178.309131 191.401691 
L 178.879711 191.372247 
L 179.776336 191.447524 
L 180.428428 191.590061 
L 181.080519 192.101901 
L 181.814122 192.564704 
L 182.30319 192.646736 
L 182.87377 192.484406 
L 184.01493 192.016064 
L 186.378761 191.723168 
L 187.682944 191.86035 
L 190.128286 192.381709 
L 191.024912 192.452236 
L 192.410606 192.410568 
L 193.959323 192.211844 
L 195.426529 192.021824 
L 197.382803 191.912137 
L 200.07268 192.036594 
L 202.762556 192.155904 
L 206.675104 192.041046 
L 213.114506 192.003784 
L 214.826246 192.06684 
L 217.3531 192.013291 
L 219.227863 191.91644 
L 222.895877 191.8598 
L 225.911799 191.869009 
L 227.542028 191.813925 
L 233.329338 191.760379 
L 238.872115 191.6948 
L 247.919882 191.579028 
L 291.691514 191.219465 
L 317.367611 191.073078 
L 321.36167 191.071345 
L 336.115237 191.031589 
L 358.612388 191.016131 
L 359.916571 191.013533 
L 359.916571 191.013533 
" clip-path="url(#p513861c6ae)" style="fill: none; stroke: #ff7f0e; stroke-width: 1.5; stroke-linecap: square"/>
   </g>
   <g id="patch_3">
    <path d="M 40.334753 228.96 
L 40.334753 7.2 
" style="fill: none; stroke: #000000; stroke-width: 0.8; stroke-linejoin: miter; stroke-linecap: square"/>
   </g>
   <g id="patch_4">
    <path d="M 375.134753 228.96 
L 375.134753 7.2 
" style="fill: none; stroke: #000000; stroke-width: 0.8; stroke-linejoin: miter; stroke-linecap: square"/>
   </g>
   <g id="patch_5">
    <path d="M 40.334753 228.96 
L 375.134753 228.96 
" style="fill: none; stroke: #000000; stroke-width: 0.8; stroke-linejoin: miter; stroke-linecap: square"/>
   </g>
   <g id="patch_6">
    <path d="M 40.334753 7.2 
L 375.134753 7.2 
" style="fill: none; stroke: #000000; stroke-width: 0.8; stroke-linejoin: miter; stroke-linecap: square"/>
   </g>
   <g id="legend_1">
    <g id="patch_7">
     <path d="M 321.748759 43.640613 
L 368.134753 43.640613 
Q 370.134753 43.640613 370.134753 41.640613 
L 370.134753 14.2 
Q 370.134753 12.2 368.134753 12.2 
L 321.748759 12.2 
Q 319.748759 12.2 319.748759 14.2 
L 319.748759 41.640613 
Q 319.748759 43.640613 321.748759 43.640613 
z
" style="fill: #ffffff; opacity: 0.8; stroke: #cccccc; stroke-linejoin: miter"/>
    </g>
    <g id="line2d_17">
     <path d="M 323.748759 19.79832 
L 333.748759 19.79832 
L 343.748759 19.79832 
" style="fill: none; stroke: #1f77b4; stroke-width: 1.5; stroke-linecap: square"/>
    </g>
    <g id="text_17">
     <!-- CD -->
     <g transform="translate(351.748759 23.29832) scale(0.1 -0.1)">
      <defs>
       <path id="NimbusSanL-Regu-44" d="M 570 0 
L 2368 0 
C 3546 0 4269 883 4269 2339 
C 4269 3788 3552 4672 2368 4672 
L 570 4672 
L 570 0 
z
M 1165 524 
L 1165 4147 
L 2266 4147 
C 3187 4147 3674 3525 3674 2332 
C 3674 1153 3187 524 2266 524 
L 1165 524 
z
" transform="scale(0.015625)"/>
      </defs>
      <use xlink:href="#NimbusSanL-Regu-43" transform="scale(0.996264)"/>
      <use xlink:href="#NimbusSanL-Regu-44" transform="translate(71.929985 0) scale(0.996264)"/>
     </g>
    </g>
    <g id="line2d_18">
     <path d="M 323.748759 34.018627 
L 333.748759 34.018627 
L 343.748759 34.018627 
" style="fill: none; stroke: #ff7f0e; stroke-width: 1.5; stroke-linecap: square"/>
    </g>
    <g id="text_18">
     <!-- CL -->
     <g transform="translate(351.748759 37.518627) scale(0.1 -0.1)">
      <defs>
       <path id="NimbusSanL-Regu-4c" d="M 1107 4672 
L 512 4672 
L 512 0 
L 3411 0 
L 3411 524 
L 1107 524 
L 1107 4672 
z
" transform="scale(0.015625)"/>
      </defs>
      <use xlink:href="#NimbusSanL-Regu-43" transform="scale(0.996264)"/>
      <use xlink:href="#NimbusSanL-Regu-4c" transform="translate(71.929985 0) scale(0.996264)"/>
     </g>
    </g>
   </g>
  </g>
 </g>
 <defs>
  <clipPath id="p513861c6ae">
   <rect x="40.334753" y="7.2" width="334.8" height="221.76"/>
  </clipPath>
 </defs>
</svg>
