<?xml version="1.0" encoding="utf-8" standalone="no"?>
<!DOCTYPE svg PUBLIC "-//W3C//DTD SVG 1.1//EN"
  "http://www.w3.org/Graphics/SVG/1.1/DTD/svg11.dtd">
<svg xmlns:xlink="http://www.w3.org/1999/xlink" width="379.567344pt" height="265.600613pt" viewBox="0 0 379.567344 265.600613" xmlns="http://www.w3.org/2000/svg" version="1.1">
 <metadata>
  <rdf:RDF xmlns:dc="http://purl.org/dc/elements/1.1/" xmlns:cc="http://creativecommons.org/ns#" xmlns:rdf="http://www.w3.org/1999/02/22-rdf-syntax-ns#">
   <cc:Work>
    <dc:type rdf:resource="http://purl.org/dc/dcmitype/StillImage"/>
    <dc:date>2025-07-17T19:43:43.109543</dc:date>
    <dc:format>image/svg+xml</dc:format>
    <dc:creator>
     <cc:Agent>
      <dc:title>Matplotlib v3.10.3, https://matplotlib.org/</dc:title>
     </cc:Agent>
    </dc:creator>
   </cc:Work>
  </rdf:RDF>
 </metadata>
 <defs>
  <style type="text/css">*{stroke-linejoin: round; stroke-linecap: butt}</style>
 </defs>
 <g id="figure_1">
  <g id="patch_1">
   <path d="M 0 265.600613 
L 379.567344 265.600613 
L 379.567344 0 
L 0 0 
z
" style="fill: #ffffff"/>
  </g>
  <g id="axes_1">
   <g id="patch_2">
    <path d="M 37.567344 228.96 
L 372.367344 228.96 
L 372.367344 7.2 
L 37.567344 7.2 
z
" style="fill: #ffffff"/>
   </g>
   <g id="matplotlib.axis_1">
    <g id="xtick_1">
     <g id="line2d_1">
      <defs>
       <path id="mac9c55fefa" d="M 0 0 
L 0 3.5 
" style="stroke: #000000; stroke-width: 0.8"/>
      </defs>
      <g>
       <use xlink:href="#mac9c55fefa" x="52.785526" y="228.96" style="stroke: #000000; stroke-width: 0.8"/>
      </g>
     </g>
     <g id="text_1">
      <!-- $\mathdefault{0}$ -->
      <g transform="translate(50.294859 243.05832) scale(0.1 -0.1)">
       <defs>
        <path id="CMR17-30" d="M 2688 2038 
C 2688 2430 2682 3099 2413 3613 
C 2176 4063 1798 4224 1466 4224 
C 1158 4224 768 4082 525 3620 
C 269 3137 243 2539 243 2038 
C 243 1671 250 1112 448 623 
C 723 -39 1216 -128 1466 -128 
C 1760 -128 2208 -7 2470 604 
C 2662 1048 2688 1568 2688 2038 
z
M 1466 -26 
C 1056 -26 813 328 723 816 
C 653 1196 653 1749 653 2109 
C 653 2604 653 3015 736 3407 
C 858 3954 1216 4121 1466 4121 
C 1728 4121 2067 3947 2189 3420 
C 2272 3054 2278 2623 2278 2109 
C 2278 1691 2278 1176 2202 797 
C 2067 96 1690 -26 1466 -26 
z
" transform="scale(0.015625)"/>
       </defs>
       <use xlink:href="#CMR17-30" transform="scale(0.996264)"/>
      </g>
     </g>
    </g>
    <g id="xtick_2">
     <g id="line2d_2">
      <g>
       <use xlink:href="#mac9c55fefa" x="93.541235" y="228.96" style="stroke: #000000; stroke-width: 0.8"/>
      </g>
     </g>
     <g id="text_2">
      <!-- $\mathdefault{500}$ -->
      <g transform="translate(86.069233 243.05832) scale(0.1 -0.1)">
       <defs>
        <path id="CMR17-35" d="M 730 3750 
C 794 3724 1056 3641 1325 3641 
C 1920 3641 2246 3961 2432 4140 
C 2432 4191 2432 4224 2394 4224 
C 2387 4224 2374 4224 2323 4198 
C 2099 4102 1837 4032 1517 4032 
C 1325 4032 1037 4055 723 4191 
C 653 4224 640 4224 634 4224 
C 602 4224 595 4217 595 4090 
L 595 2231 
C 595 2113 595 2080 659 2080 
C 691 2080 704 2093 736 2139 
C 941 2435 1222 2560 1542 2560 
C 1766 2560 2246 2415 2246 1293 
C 2246 1087 2246 716 2054 422 
C 1894 159 1645 25 1370 25 
C 947 25 518 319 403 812 
C 429 806 480 793 506 793 
C 589 793 749 838 749 1036 
C 749 1209 627 1280 506 1280 
C 358 1280 262 1190 262 1011 
C 262 454 704 -128 1382 -128 
C 2042 -128 2669 441 2669 1267 
C 2669 2054 2170 2662 1549 2662 
C 1222 2662 947 2540 730 2304 
L 730 3750 
z
" transform="scale(0.015625)"/>
       </defs>
       <use xlink:href="#CMR17-35" transform="scale(0.996264)"/>
       <use xlink:href="#CMR17-30" transform="translate(45.690477 0) scale(0.996264)"/>
       <use xlink:href="#CMR17-30" transform="translate(91.380954 0) scale(0.996264)"/>
      </g>
     </g>
    </g>
    <g id="xtick_3">
     <g id="line2d_3">
      <g>
       <use xlink:href="#mac9c55fefa" x="134.296945" y="228.96" style="stroke: #000000; stroke-width: 0.8"/>
      </g>
     </g>
     <g id="text_3">
      <!-- $\mathdefault{1000}$ -->
      <g transform="translate(124.334274 243.05832) scale(0.1 -0.1)">
       <defs>
        <path id="CMR17-31" d="M 1702 4083 
C 1702 4217 1696 4224 1606 4224 
C 1357 3927 979 3833 621 3820 
C 602 3820 570 3820 563 3808 
C 557 3795 557 3782 557 3648 
C 755 3648 1088 3686 1344 3839 
L 1344 467 
C 1344 243 1331 166 781 166 
L 589 166 
L 589 0 
C 896 6 1216 12 1523 12 
C 1830 12 2150 6 2458 0 
L 2458 166 
L 2266 166 
C 1715 166 1702 236 1702 467 
L 1702 4083 
z
" transform="scale(0.015625)"/>
       </defs>
       <use xlink:href="#CMR17-31" transform="scale(0.996264)"/>
       <use xlink:href="#CMR17-30" transform="translate(45.690477 0) scale(0.996264)"/>
       <use xlink:href="#CMR17-30" transform="translate(91.380954 0) scale(0.996264)"/>
       <use xlink:href="#CMR17-30" transform="translate(137.071431 0) scale(0.996264)"/>
      </g>
     </g>
    </g>
    <g id="xtick_4">
     <g id="line2d_4">
      <g>
       <use xlink:href="#mac9c55fefa" x="175.052654" y="228.96" style="stroke: #000000; stroke-width: 0.8"/>
      </g>
     </g>
     <g id="text_4">
      <!-- $\mathdefault{1500}$ -->
      <g transform="translate(165.089983 243.05832) scale(0.1 -0.1)">
       <use xlink:href="#CMR17-31" transform="scale(0.996264)"/>
       <use xlink:href="#CMR17-35" transform="translate(45.690477 0) scale(0.996264)"/>
       <use xlink:href="#CMR17-30" transform="translate(91.380954 0) scale(0.996264)"/>
       <use xlink:href="#CMR17-30" transform="translate(137.071431 0) scale(0.996264)"/>
      </g>
     </g>
    </g>
    <g id="xtick_5">
     <g id="line2d_5">
      <g>
       <use xlink:href="#mac9c55fefa" x="215.808363" y="228.96" style="stroke: #000000; stroke-width: 0.8"/>
      </g>
     </g>
     <g id="text_5">
      <!-- $\mathdefault{2000}$ -->
      <g transform="translate(205.845693 243.05832) scale(0.1 -0.1)">
       <defs>
        <path id="CMR17-32" d="M 2669 990 
L 2554 990 
C 2490 537 2438 460 2413 422 
C 2381 371 1920 371 1830 371 
L 602 371 
C 832 620 1280 1073 1824 1596 
C 2214 1966 2669 2400 2669 3033 
C 2669 3788 2067 4224 1395 4224 
C 691 4224 262 3603 262 3027 
C 262 2777 448 2745 525 2745 
C 589 2745 781 2783 781 3007 
C 781 3206 614 3264 525 3264 
C 486 3264 448 3257 422 3244 
C 544 3788 915 4057 1306 4057 
C 1862 4057 2227 3616 2227 3033 
C 2227 2477 1901 1998 1536 1583 
L 262 147 
L 262 0 
L 2515 0 
L 2669 990 
z
" transform="scale(0.015625)"/>
       </defs>
       <use xlink:href="#CMR17-32" transform="scale(0.996264)"/>
       <use xlink:href="#CMR17-30" transform="translate(45.690477 0) scale(0.996264)"/>
       <use xlink:href="#CMR17-30" transform="translate(91.380954 0) scale(0.996264)"/>
       <use xlink:href="#CMR17-30" transform="translate(137.071431 0) scale(0.996264)"/>
      </g>
     </g>
    </g>
    <g id="xtick_6">
     <g id="line2d_6">
      <g>
       <use xlink:href="#mac9c55fefa" x="256.564072" y="228.96" style="stroke: #000000; stroke-width: 0.8"/>
      </g>
     </g>
     <g id="text_6">
      <!-- $\mathdefault{2500}$ -->
      <g transform="translate(246.601402 243.05832) scale(0.1 -0.1)">
       <use xlink:href="#CMR17-32" transform="scale(0.996264)"/>
       <use xlink:href="#CMR17-35" transform="translate(45.690477 0) scale(0.996264)"/>
       <use xlink:href="#CMR17-30" transform="translate(91.380954 0) scale(0.996264)"/>
       <use xlink:href="#CMR17-30" transform="translate(137.071431 0) scale(0.996264)"/>
      </g>
     </g>
    </g>
    <g id="xtick_7">
     <g id="line2d_7">
      <g>
       <use xlink:href="#mac9c55fefa" x="297.319781" y="228.96" style="stroke: #000000; stroke-width: 0.8"/>
      </g>
     </g>
     <g id="text_7">
      <!-- $\mathdefault{3000}$ -->
      <g transform="translate(287.357111 243.05832) scale(0.1 -0.1)">
       <defs>
        <path id="CMR17-33" d="M 1414 2176 
C 1984 2176 2234 1673 2234 1094 
C 2234 322 1824 25 1453 25 
C 1114 25 563 193 390 691 
C 422 678 454 678 486 678 
C 640 678 755 780 755 947 
C 755 1132 614 1216 486 1216 
C 378 1216 211 1164 211 927 
C 211 335 787 -128 1466 -128 
C 2176 -128 2720 432 2720 1087 
C 2720 1718 2208 2176 1600 2246 
C 2086 2347 2554 2776 2554 3353 
C 2554 3856 2048 4224 1472 4224 
C 890 4224 378 3862 378 3347 
C 378 3123 544 3084 627 3084 
C 762 3084 877 3167 877 3334 
C 877 3500 762 3584 627 3584 
C 602 3584 570 3584 544 3571 
C 730 3999 1235 4076 1459 4076 
C 1683 4076 2106 3966 2106 3347 
C 2106 3167 2080 2851 1862 2574 
C 1670 2329 1453 2316 1242 2297 
C 1210 2297 1062 2284 1037 2284 
C 992 2278 966 2272 966 2227 
C 966 2182 973 2176 1101 2176 
L 1414 2176 
z
" transform="scale(0.015625)"/>
       </defs>
       <use xlink:href="#CMR17-33" transform="scale(0.996264)"/>
       <use xlink:href="#CMR17-30" transform="translate(45.690477 0) scale(0.996264)"/>
       <use xlink:href="#CMR17-30" transform="translate(91.380954 0) scale(0.996264)"/>
       <use xlink:href="#CMR17-30" transform="translate(137.071431 0) scale(0.996264)"/>
      </g>
     </g>
    </g>
    <g id="xtick_8">
     <g id="line2d_8">
      <g>
       <use xlink:href="#mac9c55fefa" x="338.075491" y="228.96" style="stroke: #000000; stroke-width: 0.8"/>
      </g>
     </g>
     <g id="text_8">
      <!-- $\mathdefault{3500}$ -->
      <g transform="translate(328.11282 243.05832) scale(0.1 -0.1)">
       <use xlink:href="#CMR17-33" transform="scale(0.996264)"/>
       <use xlink:href="#CMR17-35" transform="translate(45.690477 0) scale(0.996264)"/>
       <use xlink:href="#CMR17-30" transform="translate(91.380954 0) scale(0.996264)"/>
       <use xlink:href="#CMR17-30" transform="translate(137.071431 0) scale(0.996264)"/>
      </g>
     </g>
    </g>
    <g id="text_9">
     <!-- Iteration -->
     <g transform="translate(187.019968 256.278627) scale(0.1 -0.1)">
      <defs>
       <path id="NimbusSanL-Regu-49" d="M 1242 4672 
L 640 4672 
L 640 0 
L 1242 0 
L 1242 4672 
z
" transform="scale(0.015625)"/>
       <path id="NimbusSanL-Regu-74" d="M 1626 3328 
L 1075 3328 
L 1075 4249 
L 544 4249 
L 544 3328 
L 90 3328 
L 90 2892 
L 544 2892 
L 544 402 
C 544 64 774 -128 1190 -128 
C 1318 -128 1446 -116 1626 -84 
L 1626 364 
C 1555 345 1472 339 1370 339 
C 1139 339 1075 402 1075 634 
L 1075 2892 
L 1626 2892 
L 1626 3328 
z
" transform="scale(0.015625)"/>
       <path id="NimbusSanL-Regu-65" d="M 3283 1484 
C 3283 1998 3245 2311 3149 2565 
C 2931 3123 2419 3456 1792 3456 
C 858 3456 256 2734 256 1619 
C 256 545 838 -128 1779 -128 
C 2547 -128 3078 307 3213 1018 
L 2675 1018 
C 2528 588 2227 364 1798 364 
C 1459 364 1171 514 992 787 
C 864 974 819 1161 813 1484 
L 3283 1484 
z
M 826 1920 
C 870 2552 1248 2963 1786 2963 
C 2310 2963 2714 2519 2714 1959 
C 2714 1946 2714 1933 2707 1920 
L 826 1920 
z
" transform="scale(0.015625)"/>
       <path id="NimbusSanL-Regu-72" d="M 442 3328 
L 442 0 
L 979 0 
L 979 1727 
C 979 2203 1101 2514 1357 2698 
C 1523 2819 1683 2857 2054 2863 
L 2054 3404 
C 1965 3449 1920 3456 1850 3456 
C 1504 3456 1242 3251 934 2750 
L 934 3328 
L 442 3328 
z
" transform="scale(0.015625)"/>
       <path id="NimbusSanL-Regu-61" d="M 3424 332 
C 3366 320 3341 320 3309 320 
C 3123 320 3021 415 3021 581 
L 3021 2542 
C 3021 3135 2586 3456 1760 3456 
C 1274 3456 870 3315 646 3065 
C 493 2893 429 2702 416 2370 
L 954 2370 
C 998 2778 1242 2963 1741 2963 
C 2221 2963 2490 2784 2490 2466 
L 2490 2326 
C 2490 2103 2355 2007 1933 1956 
C 1178 1861 1062 1835 858 1753 
C 467 1593 269 1294 269 861 
C 269 256 691 -128 1370 -128 
C 1792 -128 2131 19 2509 364 
C 2547 25 2714 -128 3059 -128 
C 3168 -128 3251 -116 3424 -71 
L 3424 332 
z
M 2490 1071 
C 2490 893 2438 785 2278 638 
C 2061 441 1798 339 1485 339 
C 1069 339 826 536 826 874 
C 826 1224 1062 1402 1632 1485 
C 2195 1562 2310 1587 2490 1670 
L 2490 1071 
z
" transform="scale(0.015625)"/>
       <path id="NimbusSanL-Regu-69" d="M 960 3358 
L 429 3358 
L 429 0 
L 960 0 
L 960 3358 
z
M 960 4672 
L 422 4672 
L 422 3999 
L 960 3999 
L 960 4672 
z
" transform="scale(0.015625)"/>
       <path id="NimbusSanL-Regu-6f" d="M 1741 3456 
C 800 3456 230 2784 230 1663 
C 230 543 794 -128 1747 -128 
C 2688 -128 3264 543 3264 1638 
C 3264 2791 2707 3456 1741 3456 
z
M 1747 2963 
C 2349 2963 2707 2472 2707 1644 
C 2707 861 2336 364 1747 364 
C 1152 364 787 855 787 1663 
C 787 2466 1152 2963 1747 2963 
z
" transform="scale(0.015625)"/>
       <path id="NimbusSanL-Regu-6e" d="M 448 3328 
L 448 0 
L 986 0 
L 986 1835 
C 986 2539 1344 2988 1894 2988 
C 2317 2988 2586 2732 2586 2328 
L 2586 0 
L 3117 0 
L 3117 2539 
C 3117 3097 2701 3456 2054 3456 
C 1555 3456 1235 3263 941 2796 
L 941 3328 
L 448 3328 
z
" transform="scale(0.015625)"/>
      </defs>
      <use xlink:href="#NimbusSanL-Regu-49" transform="scale(0.996264)"/>
      <use xlink:href="#NimbusSanL-Regu-74" transform="translate(27.69517 0) scale(0.996264)"/>
      <use xlink:href="#NimbusSanL-Regu-65" transform="translate(55.390339 0) scale(0.996264)"/>
      <use xlink:href="#NimbusSanL-Regu-72" transform="translate(110.782016 0) scale(0.996264)"/>
      <use xlink:href="#NimbusSanL-Regu-61" transform="translate(142.961149 0) scale(0.996264)"/>
      <use xlink:href="#NimbusSanL-Regu-74" transform="translate(198.352826 0) scale(0.996264)"/>
      <use xlink:href="#NimbusSanL-Regu-69" transform="translate(226.047996 0) scale(0.996264)"/>
      <use xlink:href="#NimbusSanL-Regu-6f" transform="translate(248.16478 0) scale(0.996264)"/>
      <use xlink:href="#NimbusSanL-Regu-6e" transform="translate(303.556457 0) scale(0.996264)"/>
     </g>
    </g>
   </g>
   <g id="matplotlib.axis_2">
    <g id="ytick_1">
     <g id="line2d_9">
      <defs>
       <path id="m642827c055" d="M 0 0 
L -3.5 0 
" style="stroke: #000000; stroke-width: 0.8"/>
      </defs>
      <g>
       <use xlink:href="#m642827c055" x="37.567344" y="195.516526" style="stroke: #000000; stroke-width: 0.8"/>
      </g>
     </g>
     <g id="text_10">
      <!-- $\mathdefault{5}$ -->
      <g transform="translate(25.586009 199.065686) scale(0.1 -0.1)">
       <use xlink:href="#CMR17-35" transform="scale(0.996264)"/>
      </g>
     </g>
    </g>
    <g id="ytick_2">
     <g id="line2d_10">
      <g>
       <use xlink:href="#m642827c055" x="37.567344" y="158.578293" style="stroke: #000000; stroke-width: 0.8"/>
      </g>
     </g>
     <g id="text_11">
      <!-- $\mathdefault{10}$ -->
      <g transform="translate(20.604674 162.127453) scale(0.1 -0.1)">
       <use xlink:href="#CMR17-31" transform="scale(0.996264)"/>
       <use xlink:href="#CMR17-30" transform="translate(45.690477 0) scale(0.996264)"/>
      </g>
     </g>
    </g>
    <g id="ytick_3">
     <g id="line2d_11">
      <g>
       <use xlink:href="#m642827c055" x="37.567344" y="121.640061" style="stroke: #000000; stroke-width: 0.8"/>
      </g>
     </g>
     <g id="text_12">
      <!-- $\mathdefault{15}$ -->
      <g transform="translate(20.604674 125.189221) scale(0.1 -0.1)">
       <use xlink:href="#CMR17-31" transform="scale(0.996264)"/>
       <use xlink:href="#CMR17-35" transform="translate(45.690477 0) scale(0.996264)"/>
      </g>
     </g>
    </g>
    <g id="ytick_4">
     <g id="line2d_12">
      <g>
       <use xlink:href="#m642827c055" x="37.567344" y="84.701828" style="stroke: #000000; stroke-width: 0.8"/>
      </g>
     </g>
     <g id="text_13">
      <!-- $\mathdefault{20}$ -->
      <g transform="translate(20.604674 88.250988) scale(0.1 -0.1)">
       <use xlink:href="#CMR17-32" transform="scale(0.996264)"/>
       <use xlink:href="#CMR17-30" transform="translate(45.690477 0) scale(0.996264)"/>
      </g>
     </g>
    </g>
    <g id="ytick_5">
     <g id="line2d_13">
      <g>
       <use xlink:href="#m642827c055" x="37.567344" y="47.763596" style="stroke: #000000; stroke-width: 0.8"/>
      </g>
     </g>
     <g id="text_14">
      <!-- $\mathdefault{25}$ -->
      <g transform="translate(20.604674 51.312756) scale(0.1 -0.1)">
       <use xlink:href="#CMR17-32" transform="scale(0.996264)"/>
       <use xlink:href="#CMR17-35" transform="translate(45.690477 0) scale(0.996264)"/>
      </g>
     </g>
    </g>
    <g id="ytick_6">
     <g id="line2d_14">
      <g>
       <use xlink:href="#m642827c055" x="37.567344" y="10.825363" style="stroke: #000000; stroke-width: 0.8"/>
      </g>
     </g>
     <g id="text_15">
      <!-- $\mathdefault{30}$ -->
      <g transform="translate(20.604674 14.374523) scale(0.1 -0.1)">
       <use xlink:href="#CMR17-33" transform="scale(0.996264)"/>
       <use xlink:href="#CMR17-30" transform="translate(45.690477 0) scale(0.996264)"/>
      </g>
     </g>
    </g>
    <g id="text_16">
     <!-- Average CFL - Blade_14 -->
     <g transform="translate(14.482687 171.548902) rotate(-90) scale(0.1 -0.1)">
      <defs>
       <path id="NimbusSanL-Regu-41" d="M 3034 1408 
L 3514 0 
L 4179 0 
L 2541 4672 
L 1773 4672 
L 109 0 
L 742 0 
L 1235 1408 
L 3034 1408 
z
M 2867 1907 
L 1382 1907 
L 2150 4032 
L 2867 1907 
z
" transform="scale(0.015625)"/>
       <path id="NimbusSanL-Regu-76" d="M 1824 0 
L 3110 3328 
L 2509 3328 
L 1562 629 
L 666 3328 
L 64 3328 
L 1242 0 
L 1824 0 
z
" transform="scale(0.015625)"/>
       <path id="NimbusSanL-Regu-67" d="M 2637 3359 
L 2637 2873 
C 2368 3270 2042 3456 1613 3456 
C 762 3456 186 2714 186 1632 
C 186 1084 333 638 608 320 
C 858 38 1216 -128 1568 -128 
C 1990 -128 2285 51 2586 473 
L 2586 300 
C 2586 -155 2528 -441 2394 -634 
C 2253 -841 1978 -960 1651 -960 
C 1408 -960 1190 -894 1043 -774 
C 922 -674 870 -581 838 -375 
L 294 -375 
C 352 -1031 845 -1408 1632 -1408 
C 2131 -1408 2560 -1248 2778 -980 
C 3034 -661 3130 -222 3130 568 
L 3130 3359 
L 2637 3359 
z
M 1670 2963 
C 2246 2963 2586 2479 2586 1644 
C 2586 848 2240 364 1677 364 
C 1094 364 742 855 742 1663 
C 742 2466 1101 2963 1670 2963 
z
" transform="scale(0.015625)"/>
       <path id="NimbusSanL-Regu-43" d="M 4237 3219 
C 4051 4236 3462 4736 2438 4736 
C 1811 4736 1306 4537 960 4154 
C 538 3696 307 3035 307 2284 
C 307 1522 544 867 986 415 
C 1344 44 1805 -128 2413 -128 
C 3552 -128 4192 485 4333 1712 
L 3718 1712 
C 3667 1394 3603 1178 3507 994 
C 3315 612 2918 396 2419 396 
C 1491 396 902 1134 902 2291 
C 902 3480 1466 4211 2368 4211 
C 2746 4211 3098 4096 3290 3918 
C 3462 3759 3558 3562 3629 3219 
L 4237 3219 
z
" transform="scale(0.015625)"/>
       <path id="NimbusSanL-Regu-46" d="M 1171 2112 
L 3398 2112 
L 3398 2636 
L 1171 2636 
L 1171 4147 
L 3706 4147 
L 3706 4672 
L 576 4672 
L 576 0 
L 1171 0 
L 1171 2112 
z
" transform="scale(0.015625)"/>
       <path id="NimbusSanL-Regu-4c" d="M 1107 4672 
L 512 4672 
L 512 0 
L 3411 0 
L 3411 524 
L 1107 524 
L 1107 4672 
z
" transform="scale(0.015625)"/>
       <path id="NimbusSanL-Regu-2d" d="M 1818 1996 
L 294 1996 
L 294 1536 
L 1818 1536 
L 1818 1996 
z
" transform="scale(0.015625)"/>
       <path id="NimbusSanL-Regu-42" d="M 506 0 
L 2611 0 
C 3053 0 3379 121 3629 390 
C 3859 632 3987 961 3987 1321 
C 3987 1878 3731 2214 3136 2444 
C 3558 2643 3782 2994 3782 3476 
C 3782 3821 3654 4127 3411 4345 
C 3168 4569 2848 4672 2400 4672 
L 506 4672 
L 506 0 
z
M 1101 2636 
L 1101 4147 
L 2253 4147 
C 2586 4147 2771 4101 2931 3977 
C 3098 3847 3187 3652 3187 3391 
C 3187 3138 3098 2936 2931 2806 
C 2771 2682 2586 2636 2253 2636 
L 1101 2636 
z
M 1101 524 
L 1101 2112 
L 2554 2112 
C 2842 2112 3034 2042 3174 1890 
C 3315 1745 3392 1542 3392 1315 
C 3392 1093 3315 891 3174 746 
C 3034 594 2842 524 2554 524 
L 1101 524 
z
" transform="scale(0.015625)"/>
       <path id="NimbusSanL-Regu-6c" d="M 973 4672 
L 435 4672 
L 435 0 
L 973 0 
L 973 4672 
z
" transform="scale(0.015625)"/>
       <path id="NimbusSanL-Regu-64" d="M 3168 4672 
L 2637 4672 
L 2637 2937 
C 2413 3276 2054 3456 1606 3456 
C 736 3456 166 2759 166 1695 
C 166 568 723 -128 1626 -128 
C 2086 -128 2406 44 2694 460 
L 2694 19 
L 3168 19 
L 3168 4672 
z
M 1696 2956 
C 2272 2956 2637 2447 2637 1651 
C 2637 880 2266 371 1702 371 
C 1114 371 723 887 723 1663 
C 723 2440 1114 2956 1696 2956 
z
" transform="scale(0.015625)"/>
       <path id="NimbusSanL-Regu-31" d="M 1658 3232 
L 1658 0 
L 2221 0 
L 2221 4537 
L 1850 4537 
C 1651 3840 1523 3744 653 3635 
L 653 3232 
L 1658 3232 
z
" transform="scale(0.015625)"/>
       <path id="NimbusSanL-Regu-34" d="M 2093 1088 
L 2093 0 
L 2656 0 
L 2656 1088 
L 3328 1088 
L 3328 1593 
L 2656 1593 
L 2656 4537 
L 2240 4537 
L 179 1683 
L 179 1088 
L 2093 1088 
z
M 2093 1593 
L 672 1593 
L 2093 3577 
L 2093 1593 
z
" transform="scale(0.015625)"/>
      </defs>
      <use xlink:href="#NimbusSanL-Regu-41" transform="scale(0.996264)"/>
      <use xlink:href="#NimbusSanL-Regu-76" transform="translate(62.465918 0) scale(0.996264)"/>
      <use xlink:href="#NimbusSanL-Regu-65" transform="translate(109.788488 0) scale(0.996264)"/>
      <use xlink:href="#NimbusSanL-Regu-72" transform="translate(165.180165 0) scale(0.996264)"/>
      <use xlink:href="#NimbusSanL-Regu-61" transform="translate(197.359298 0) scale(0.996264)"/>
      <use xlink:href="#NimbusSanL-Regu-67" transform="translate(252.750975 0) scale(0.996264)"/>
      <use xlink:href="#NimbusSanL-Regu-65" transform="translate(308.142652 0) scale(0.996264)"/>
      <use xlink:href="#NimbusSanL-Regu-43" transform="translate(391.229499 0) scale(0.996264)"/>
      <use xlink:href="#NimbusSanL-Regu-46" transform="translate(463.159484 0) scale(0.996264)"/>
      <use xlink:href="#NimbusSanL-Regu-4c" transform="translate(524.031114 0) scale(0.996264)"/>
      <use xlink:href="#NimbusSanL-Regu-2d" transform="translate(607.117961 0) scale(0.996264)"/>
      <use xlink:href="#NimbusSanL-Regu-42" transform="translate(667.98836 0) scale(0.996264)"/>
      <use xlink:href="#NimbusSanL-Regu-6c" transform="translate(734.438391 0) scale(0.996264)"/>
      <use xlink:href="#NimbusSanL-Regu-61" transform="translate(756.555176 0) scale(0.996264)"/>
      <use xlink:href="#NimbusSanL-Regu-64" transform="translate(811.946853 0) scale(0.996264)"/>
      <use xlink:href="#NimbusSanL-Regu-65" transform="translate(867.33853 0) scale(0.996264)"/>
      <use xlink:href="#NimbusSanL-Regu-31" transform="translate(958.595772 0) scale(0.996264)"/>
      <use xlink:href="#NimbusSanL-Regu-34" transform="translate(1013.987449 0) scale(0.996264)"/>
      <path d="M 928.707548 0 
L 958.595772 0 
L 958.595772 0.3985 
L 928.707548 0.3985 
L 928.707548 0 
z
"/>
     </g>
    </g>
   </g>
   <g id="line2d_15">
    <path d="M 52.785526 127.185447 
L 52.948549 82.748345 
L 53.03006 217.484117 
L 53.111572 214.489989 
L 53.356106 201.411637 
L 53.60064 178.812244 
L 53.845175 139.760493 
L 54.089709 72.3325 
L 54.17122 216.442532 
L 54.252732 213.240087 
L 54.497266 199.251807 
L 54.7418 175.080058 
L 54.986334 133.311276 
L 55.230869 61.241524 
L 55.31238 215.333435 
L 55.393892 211.90917 
L 55.638426 196.951982 
L 55.88296 171.105961 
L 56.127494 126.444657 
L 56.372029 49.377328 
L 56.45354 214.147015 
L 56.535051 210.485467 
L 56.779586 194.491822 
L 57.02412 166.854805 
L 57.268654 119.098039 
L 57.513188 36.956136 
L 57.5947 212.904896 
L 57.676211 208.994924 
L 57.920746 191.916164 
L 58.16528 162.406608 
L 58.491325 87.455446 
L 58.572837 58.767387 
L 58.654348 215.086021 
L 58.73586 211.612274 
L 58.980394 196.438945 
L 59.224928 170.23178 
L 59.550974 103.592106 
L 59.632485 77.929561 
L 59.713997 217.002239 
L 59.795508 213.911735 
L 60.040042 200.412413 
L 60.284577 177.087025 
L 60.610622 117.736039 
L 60.936668 34.438364 
L 61.018179 212.653119 
L 61.099691 208.692791 
L 61.344225 191.394079 
L 61.670271 147.357403 
L 62.077828 85.564181 
L 62.159339 217.765701 
L 62.240851 214.827889 
L 62.485385 201.995839 
L 62.729919 179.828063 
L 62.974454 141.577149 
L 63.218988 75.533303 
L 63.300499 44.193574 
L 63.382011 213.62864 
L 63.463522 209.863416 
L 63.708056 193.416919 
L 63.952591 165.003688 
L 64.197125 115.943503 
L 64.360148 92.667446 
L 64.441659 92.667446 
L 64.52317 64.75473 
L 64.604682 215.684755 
L 64.686193 212.330755 
L 64.930728 197.68071 
L 65.175262 172.375768 
L 65.419796 128.678302 
L 65.582819 83.064094 
L 65.66433 217.515692 
L 65.745842 214.527879 
L 65.990376 201.47711 
L 66.23491 178.931723 
L 66.479444 140.000148 
L 66.80549 72.777256 
L 66.887002 216.487008 
L 66.968513 213.293458 
L 67.213047 199.344031 
L 67.457582 175.246656 
L 67.702116 133.624983 
L 67.865139 90.156051 
L 67.94665 218.224888 
L 68.028161 215.378913 
L 68.272696 202.947698 
L 68.51723 181.466559 
L 68.761764 144.347149 
L 69.006298 80.20481 
L 69.08781 217.229763 
L 69.169321 214.184765 
L 69.413856 200.884209 
L 69.65839 177.900849 
L 69.902924 138.185603 
L 70.065947 96.707175 
L 70.147458 218.88 
L 70.22897 216.165048 
L 70.473504 204.306139 
L 70.718038 183.813945 
L 70.962573 148.403433 
L 71.207107 87.224161 
L 71.288618 217.931699 
L 71.37013 215.027087 
L 71.614664 202.339742 
L 71.859198 180.41601 
L 72.103732 142.5318 
L 72.511289 45.99077 
L 72.592801 213.80836 
L 72.674312 210.07908 
L 72.918847 193.789586 
L 73.163381 165.64134 
L 73.407915 117.001172 
L 73.652449 66.201593 
L 73.733961 66.201593 
L 73.815472 32.953224 
L 73.896984 212.504605 
L 73.978495 208.514574 
L 74.223029 191.08612 
L 74.467563 160.969752 
L 74.712098 108.928667 
L 74.875121 54.577186 
L 74.956632 214.667001 
L 75.038143 211.10945 
L 75.282678 195.570065 
L 75.527212 168.718008 
L 75.771746 122.317654 
L 76.01628 42.137842 
L 76.097792 213.423067 
L 76.179303 209.616728 
L 76.423838 192.990643 
L 76.668372 164.260766 
L 76.912906 114.61554 
L 77.15744 28.828589 
L 77.238952 212.092141 
L 77.320463 208.019618 
L 77.564997 190.230836 
L 77.809532 159.49182 
L 78.054066 106.374802 
L 78.217089 50.899621 
L 78.2986 214.299245 
L 78.380112 210.668142 
L 78.624646 194.807485 
L 78.86918 167.40027 
L 79.113714 120.040603 
L 79.358249 38.203097 
L 79.43976 213.029592 
L 79.521271 209.144559 
L 79.765806 192.174734 
L 80.01034 162.850876 
L 80.254874 112.17925 
L 80.58092 24.61868 
L 80.662431 211.67115 
L 80.743943 207.514429 
L 80.988477 189.357869 
L 81.233011 157.983334 
L 81.477545 103.768136 
L 81.640568 47.146023 
L 81.72208 213.923885 
L 81.803591 210.21771 
L 82.048125 194.029139 
L 82.29266 166.055288 
L 82.537194 117.716474 
L 82.86324 34.189127 
L 82.944751 212.628195 
L 83.026262 208.662883 
L 83.270797 191.342397 
L 83.515331 161.412598 
L 83.759865 109.693906 
L 83.922888 55.680863 
L 84.004399 214.777369 
L 84.085911 211.241891 
L 84.330445 195.798923 
L 84.574979 169.113476 
L 84.819514 123.001022 
L 85.064048 43.319248 
L 85.145559 213.541207 
L 85.227071 209.758497 
L 85.471605 193.235619 
L 85.716139 164.684085 
L 85.960673 115.347035 
L 86.205208 30.092613 
L 86.286719 212.218544 
L 86.368231 208.171301 
L 86.612765 190.492944 
L 86.857299 159.944743 
L 87.101833 107.157452 
L 87.264856 52.026637 
L 87.346368 214.411946 
L 87.427879 210.803384 
L 87.672413 195.041183 
L 87.916948 167.8041 
L 88.161482 120.738421 
L 88.406016 71.583233 
L 88.487527 71.583233 
L 88.569039 39.408928 
L 88.65055 213.150175 
L 88.732062 209.289259 
L 88.976596 192.424775 
L 89.22113 163.282947 
L 89.465664 112.925868 
L 89.710199 60.333157 
L 89.79171 60.333157 
L 89.873222 25.908837 
L 89.954733 211.800166 
L 90.036244 207.669248 
L 90.280779 189.625396 
L 90.525313 158.44562 
L 90.769847 104.566968 
L 90.93287 48.29634 
L 91.014381 214.038916 
L 91.095893 210.355748 
L 91.340427 194.267669 
L 91.584961 166.467467 
L 91.829496 118.42872 
L 92.07403 35.417763 
L 92.155541 212.751059 
L 92.237053 208.810319 
L 92.481587 191.597167 
L 92.726121 161.852841 
L 92.970655 110.454645 
L 93.296701 21.638562 
L 93.378213 211.373139 
L 93.459724 207.156815 
L 93.704258 188.739912 
L 93.948793 156.915503 
L 94.193327 101.922926 
L 94.35635 44.48892 
L 94.437861 213.658174 
L 94.519372 209.898858 
L 94.763907 193.478162 
L 95.008441 165.1032 
L 95.252975 116.071265 
L 95.497509 31.344083 
L 95.579021 212.343691 
L 95.660532 208.321477 
L 95.905067 190.752449 
L 96.149601 160.393167 
L 96.394135 107.932329 
L 96.720181 17.28 
L 96.801692 210.937283 
L 96.883204 206.633787 
L 97.127738 187.83612 
L 97.372272 155.353752 
L 97.616806 99.22422 
L 97.779829 40.602782 
L 97.861341 213.269561 
L 97.942852 209.432521 
L 98.187386 192.672333 
L 98.431921 163.710727 
L 98.676455 113.665072 
L 98.920989 27.18618 
L 99.0025 211.9279 
L 99.084012 207.822529 
L 99.328546 189.890266 
L 99.57308 158.903315 
L 99.817615 105.357865 
L 99.980637 49.435232 
L 100.062149 214.152806 
L 100.14366 210.492415 
L 100.388195 194.503829 
L 100.632729 166.875553 
L 100.877263 119.133891 
L 101.040286 69.27271 
L 101.121797 216.136554 
L 101.203309 212.872913 
L 101.447843 198.617329 
L 101.692377 173.98368 
L 101.936912 131.416735 
L 102.181446 57.861054 
L 102.262957 214.995388 
L 102.344469 211.503514 
L 102.589003 196.251008 
L 102.833537 169.894678 
L 103.078071 124.350939 
L 103.322606 45.658778 
L 103.404117 213.77516 
L 103.485628 210.039241 
L 103.730163 193.720744 
L 103.974697 165.522381 
L 104.219231 116.795611 
L 104.545277 32.595752 
L 104.626788 212.468858 
L 104.7083 208.471678 
L 104.952834 191.011995 
L 105.197368 160.841663 
L 105.441902 108.707329 
L 105.604925 54.258461 
L 105.686437 214.635129 
L 105.767948 211.071203 
L 106.012482 195.503974 
L 106.257017 168.603803 
L 106.501551 122.120308 
L 106.746085 41.796828 
L 106.827597 213.388965 
L 106.909108 209.575807 
L 107.153642 192.91993 
L 107.398177 164.138575 
L 107.642711 114.404393 
L 107.805734 62.462232 
L 107.887245 215.455506 
L 107.968756 212.055655 
L 108.213291 197.205108 
L 108.457825 171.543363 
L 108.702359 127.199867 
L 108.946893 50.574306 
L 109.028405 214.266713 
L 109.109916 210.629104 
L 109.354451 194.740028 
L 109.598985 167.283704 
L 109.843519 119.839176 
L 110.169565 37.855032 
L 110.251076 212.994786 
L 110.332588 209.102791 
L 110.577122 192.102559 
L 110.821656 162.726158 
L 111.06619 111.963737 
L 111.229213 58.947688 
L 111.310725 215.104051 
L 111.392236 211.63391 
L 111.63677 196.476332 
L 111.881305 170.284038 
L 112.125839 125.023753 
L 112.451884 46.813982 
L 112.533396 213.890681 
L 112.614907 210.177865 
L 112.859442 193.960287 
L 113.103976 165.936312 
L 113.34851 117.510883 
L 113.593044 66.935577 
L 113.674556 66.935577 
L 113.756067 33.831741 
L 113.837579 212.592457 
L 113.91909 208.619996 
L 114.163624 191.268289 
L 114.408159 161.28454 
L 114.652693 109.472621 
L 114.815716 55.360481 
L 114.897227 214.745331 
L 114.978738 211.203445 
L 115.223273 195.732489 
L 115.467807 168.998677 
L 115.712341 122.80265 
L 115.956875 42.975914 
L 116.038387 213.506874 
L 116.119898 209.717297 
L 116.364433 193.164425 
L 116.608967 164.561063 
L 116.853501 115.134452 
L 117.179547 29.726075 
L 117.261058 212.18189 
L 117.34257 208.127316 
L 117.587104 190.416939 
L 117.831638 159.813406 
L 118.076172 106.930501 
L 118.239195 51.699828 
L 118.320707 214.379265 
L 118.402218 210.764167 
L 118.646752 194.973416 
L 118.891287 167.686999 
L 119.135821 120.53607 
L 119.380355 39.061953 
L 119.461866 213.115478 
L 119.543378 209.247622 
L 119.787912 192.352826 
L 120.032446 163.15862 
L 120.276981 112.711031 
L 120.440003 60.023791 
L 120.521515 215.211662 
L 120.603026 211.763042 
L 120.847561 196.699473 
L 121.092095 170.669625 
L 121.336629 125.690048 
L 121.581163 47.965339 
L 121.662675 214.005816 
L 121.744186 210.316028 
L 121.98872 194.199032 
L 122.233255 166.348864 
L 122.477789 118.223773 
L 122.722323 35.063615 
L 122.803835 212.715644 
L 122.885346 208.767821 
L 123.12988 191.523731 
L 123.374415 161.725943 
L 123.618949 110.235365 
L 123.863483 56.458832 
L 123.944994 56.458832 
L 124.026506 21.259647 
L 124.108017 211.335247 
L 124.189529 207.111345 
L 124.434063 188.66134 
L 124.678597 156.779732 
L 124.923131 101.688312 
L 125.086154 44.151076 
L 125.167666 213.62439 
L 125.249177 209.858316 
L 125.493711 193.408107 
L 125.738246 164.982144 
L 125.98278 115.862081 
L 126.308826 30.983013 
L 126.390337 212.307584 
L 126.471848 208.278149 
L 126.716383 190.677577 
L 126.960917 160.263789 
L 127.205451 107.708764 
L 127.368474 52.821953 
L 127.449985 214.491478 
L 127.531497 210.898822 
L 127.776031 195.2061 
L 128.020565 168.089077 
L 128.2651 121.23086 
L 128.591145 40.344548 
L 128.672657 213.243737 
L 128.754168 209.401533 
L 128.998702 192.618785 
L 129.243237 163.618197 
L 129.487771 113.50518 
L 129.650794 61.185462 
L 129.732305 215.327829 
L 129.813817 211.902443 
L 130.058351 196.940357 
L 130.302885 171.085873 
L 130.547419 126.409324 
L 130.791954 49.215532 
L 130.873465 214.130836 
L 130.954976 210.466051 
L 131.199511 194.458272 
L 131.444045 166.796831 
L 131.688579 118.997859 
L 131.933113 36.401237 
L 132.014625 212.849406 
L 132.096136 208.928336 
L 132.340671 191.8011 
L 132.585205 162.205237 
L 132.829739 111.063585 
L 132.992762 57.651469 
L 133.074273 214.974429 
L 133.155785 211.478364 
L 133.400319 196.207548 
L 133.644853 169.819579 
L 133.889388 124.221169 
L 134.133922 45.427116 
L 134.215433 213.751994 
L 134.296945 210.011441 
L 134.541479 193.672706 
L 134.786013 165.439373 
L 135.030547 116.652172 
L 135.356593 32.347889 
L 135.438104 212.444071 
L 135.519616 208.441934 
L 135.76415 190.960598 
L 136.008684 160.752849 
L 136.253219 108.553859 
L 136.497753 54.037463 
L 136.579264 54.037463 
L 136.660776 18.354005 
L 136.742287 211.044683 
L 136.823799 206.762668 
L 137.068333 188.058826 
L 137.312867 155.738587 
L 137.557401 99.889215 
L 137.720424 41.560376 
L 137.801936 213.36532 
L 137.883447 209.547432 
L 138.127981 192.870899 
L 138.372516 164.05385 
L 138.61705 114.257988 
L 138.861584 28.210739 
L 138.943095 212.030356 
L 139.024607 207.945476 
L 139.269141 190.102719 
L 139.513675 159.270434 
L 139.75821 105.992245 
L 140.002744 50.348739 
L 140.654835 50.348739 
L 140.736347 214.244156 
L 140.817858 210.602036 
L 141.062392 194.693254 
L 141.306927 167.202879 
L 141.551461 119.699511 
L 141.795995 37.613692 
L 141.877507 212.970652 
L 141.959018 209.07383 
L 142.203552 192.052515 
L 142.448086 162.639681 
L 142.692621 111.814305 
L 142.855644 58.732506 
L 142.937155 215.082533 
L 143.018666 211.608088 
L 143.263201 196.431712 
L 143.507735 170.206934 
L 143.752269 124.890519 
L 143.996803 46.583752 
L 144.078315 213.867658 
L 144.159826 210.150238 
L 144.40436 193.912547 
L 144.648895 165.853816 
L 144.893429 117.36833 
L 145.219475 33.585411 
L 145.300986 212.567824 
L 145.382498 208.590437 
L 145.627032 191.21721 
L 145.871566 161.196276 
L 146.1161 109.3201 
L 146.279123 55.140851 
L 146.360635 214.723368 
L 146.442146 211.177089 
L 146.68668 195.686946 
L 146.931214 168.919979 
L 147.175749 122.66666 
L 147.420283 42.740925 
L 147.501794 213.483375 
L 147.583306 209.689098 
L 147.82784 193.115698 
L 148.072374 164.476862 
L 148.316909 114.988953 
L 148.479931 63.303999 
L 148.561443 215.539682 
L 148.642954 212.156667 
L 148.887489 197.379657 
L 149.132023 171.844983 
L 149.376557 127.721066 
L 149.621091 51.474939 
L 149.702603 214.356776 
L 149.784114 210.73718 
L 150.028648 194.926783 
L 150.273183 167.606417 
L 150.517717 120.396824 
L 150.843763 38.818648 
L 150.925274 213.091147 
L 151.006785 209.218425 
L 151.25132 192.302375 
L 151.495854 163.071439 
L 151.740388 112.560383 
L 151.903411 59.806858 
L 151.984922 215.189968 
L 152.066434 211.73701 
L 152.310968 196.65449 
L 152.555502 170.591894 
L 152.800037 125.555729 
L 153.044571 47.733235 
L 153.126082 213.982606 
L 153.207594 210.288176 
L 153.452128 194.150903 
L 153.696662 166.265697 
L 153.941196 118.08006 
L 154.104219 67.755193 
L 154.185731 215.984802 
L 154.267242 212.69081 
L 154.511776 198.302656 
L 154.756311 173.439926 
L 155.000845 130.477128 
L 155.245379 56.237414 
L 155.326891 214.833024 
L 155.408402 211.308677 
L 155.652936 195.91433 
L 155.89747 169.312898 
L 156.142005 123.345623 
L 156.46805 43.914173 
L 156.549562 213.6007 
L 156.631073 209.829888 
L 156.875608 193.358983 
L 157.120142 164.897258 
L 157.364676 115.715398 
L 157.527699 64.350079 
L 157.60921 215.64429 
L 157.690722 212.282197 
L 157.935256 197.596572 
L 158.17979 172.219812 
L 158.424324 128.368772 
L 158.668859 52.594173 
L 158.75037 214.4687 
L 158.831882 210.871488 
L 159.076416 195.158867 
L 159.32095 168.007459 
L 159.565484 121.089825 
L 159.728507 72.089254 
L 159.810019 216.418208 
L 159.89153 213.210898 
L 160.136064 199.201367 
L 160.380599 174.992899 
L 160.625133 133.160665 
L 160.869667 60.874565 
L 160.951178 215.296739 
L 161.03269 211.865135 
L 161.277224 196.875889 
L 161.521758 170.974473 
L 161.766293 126.216825 
L 162.010827 48.87561 
L 162.092338 214.096843 
L 162.17385 210.425261 
L 162.418384 194.387786 
L 162.662918 166.67503 
L 162.907452 118.787388 
L 163.070475 68.773745 
L 163.151987 216.086657 
L 163.233498 212.813037 
L 163.478032 198.513863 
L 163.722567 173.804892 
L 163.967101 131.107789 
L 164.211635 57.327196 
L 164.293147 214.942002 
L 164.374658 211.439451 
L 164.619192 196.140307 
L 164.863727 169.703386 
L 165.108261 124.020388 
L 165.434306 45.080166 
L 165.515818 213.717299 
L 165.597329 209.969807 
L 165.841864 193.600763 
L 166.086398 165.315054 
L 166.330932 116.437349 
L 166.493955 65.38969 
L 166.575466 215.748251 
L 166.656978 212.40695 
L 166.901512 197.812146 
L 167.146046 172.592324 
L 167.39058 129.012471 
L 167.635115 53.706486 
L 167.716626 214.579931 
L 167.798138 211.004966 
L 168.042672 195.389517 
L 168.287206 168.406021 
L 168.53174 121.77854 
L 168.857786 41.206252 
L 168.939297 213.329908 
L 169.020809 209.504938 
L 169.265343 192.797468 
L 169.509877 163.926961 
L 169.754412 114.038724 
L 169.917434 61.935669 
L 169.998946 215.402849 
L 170.080457 211.992468 
L 170.324992 197.09592 
L 170.569526 171.354686 
L 170.81406 126.873833 
L 171.058594 50.010919 
L 171.140106 214.210374 
L 171.221617 210.561498 
L 171.466151 194.623204 
L 171.710686 167.081832 
L 171.95522 119.490342 
L 172.118243 69.785999 
L 172.199754 216.187882 
L 172.281266 212.934507 
L 172.5258 198.723764 
L 172.770334 174.167601 
L 173.014868 131.73455 
L 173.259403 58.410238 
L 173.340914 215.050306 
L 173.422425 211.569416 
L 173.66696 196.364887 
L 173.911494 170.09146 
L 174.156028 124.690979 
L 174.482074 46.238948 
L 174.563585 213.833177 
L 174.645097 210.108861 
L 174.889631 193.841048 
L 175.134165 165.730267 
L 175.378699 117.154837 
L 175.541722 66.422871 
L 175.623234 215.85157 
L 175.704745 212.530932 
L 175.949279 198.026386 
L 176.193814 172.962531 
L 176.438348 129.65219 
L 176.682882 54.81192 
L 176.764394 214.690475 
L 176.845905 211.137618 
L 177.090439 195.618739 
L 177.334974 168.802118 
L 177.579508 122.462995 
L 177.824042 74.066619 
L 180.676942 74.066619 
L 180.758453 42.388992 
L 180.839965 213.448182 
L 180.921476 209.646866 
L 181.16601 193.042721 
L 181.410544 164.350758 
L 181.655079 114.771045 
L 181.818102 62.990212 
L 181.899613 215.508304 
L 181.981124 212.119013 
L 182.225659 197.31459 
L 182.470193 171.732547 
L 182.714727 127.526778 
L 182.959261 51.139208 
L 183.040773 214.323203 
L 183.122284 210.696892 
L 183.366819 194.857166 
L 183.611353 167.486118 
L 183.855887 120.188948 
L 184.01891 70.791992 
L 184.100421 216.288482 
L 184.181933 213.055226 
L 184.426467 198.932367 
L 184.671001 174.528066 
L 184.915535 132.357435 
L 185.16007 59.486583 
L 185.241581 215.157941 
L 185.323093 211.698577 
L 185.567627 196.588077 
L 185.812161 170.477134 
L 186.056695 125.357423 
L 186.30123 78.234596 
L 186.382741 78.234596 
L 186.464252 47.390563 
L 186.545764 213.948339 
L 186.627275 210.247055 
L 186.871809 194.079847 
L 187.116344 166.142911 
L 187.360878 117.867887 
L 187.523901 67.449663 
L 187.605412 215.954249 
L 187.686924 212.654147 
L 187.931458 198.239302 
L 188.175992 173.330449 
L 188.420526 130.287952 
L 188.665061 55.910518 
L 188.746572 214.800334 
L 188.828084 211.269449 
L 189.072618 195.846545 
L 189.317152 169.195765 
L 189.561686 123.143218 
L 189.724709 75.04614 
L 189.806221 216.713897 
L 189.887732 213.565724 
L 190.132266 199.814507 
L 190.3768 176.052404 
L 190.621335 134.991491 
L 190.865869 64.038232 
L 190.94738 215.613106 
L 191.028892 212.244775 
L 191.273426 197.531907 
L 191.51796 172.108072 
L 191.762495 128.175684 
L 192.007029 52.260518 
L 192.08854 214.435334 
L 192.170052 210.83145 
L 192.414586 195.089681 
L 192.65912 167.887904 
L 192.903654 120.883235 
L 193.2297 39.659165 
L 193.311212 213.175199 
L 193.392723 209.319287 
L 193.637257 192.476664 
L 193.881791 163.372612 
L 194.126326 113.080809 
L 194.289349 60.556271 
L 194.37086 215.26491 
L 194.452371 211.82694 
L 194.696906 196.809888 
L 194.94144 170.860422 
L 195.185974 126.019746 
L 195.348997 79.18834 
L 195.430508 217.128117 
L 195.51202 214.062788 
L 195.756554 200.673434 
L 196.001088 177.53663 
L 196.245623 137.556232 
L 196.490157 68.470105 
L 196.571668 216.056293 
L 196.65318 212.7766 
L 196.897714 198.450901 
L 197.142248 173.696092 
L 197.386782 130.919783 
L 197.631317 57.002321 
L 197.712828 214.909515 
L 197.79434 211.400466 
L 198.038874 196.072941 
L 198.283408 169.586978 
L 198.527942 123.819234 
L 198.772477 76.019603 
L 198.853988 76.019603 
L 198.935499 44.732572 
L 199.017011 213.68254 
L 199.098522 209.928096 
L 199.343057 193.528686 
L 199.587591 165.190505 
L 199.832125 116.222128 
L 199.995148 65.079771 
L 200.076659 215.71726 
L 200.158171 212.36976 
L 200.402705 197.747881 
L 200.647239 172.481274 
L 200.891773 128.820578 
L 201.136308 83.221539 
L 201.217819 83.221539 
L 201.299331 53.374895 
L 201.380842 214.546772 
L 201.462353 210.965175 
L 201.706888 195.320758 
L 201.951422 168.287205 
L 202.195956 121.573227 
L 202.358979 72.785353 
L 202.44049 216.487818 
L 202.522002 213.29443 
L 202.766536 199.34571 
L 203.01107 175.242324 
L 203.255605 133.591671 
L 203.500139 61.619344 
L 203.58165 215.371217 
L 203.663162 211.954509 
L 203.907696 197.030327 
L 204.15223 171.241341 
L 204.396764 126.677972 
L 204.641299 49.672472 
L 204.72281 214.17653 
L 204.804322 210.520884 
L 205.048856 194.553024 
L 205.29339 166.960561 
L 205.537924 119.280785 
L 205.700947 69.484236 
L 205.782459 216.157706 
L 205.86397 212.898296 
L 206.108504 198.661191 
L 206.353038 174.059474 
L 206.597573 131.547707 
L 206.842107 87.148604 
L 206.923618 87.148604 
L 207.00513 58.087373 
L 207.086641 215.01802 
L 207.168153 211.530672 
L 207.412687 196.297937 
L 207.657221 169.975772 
L 207.901755 124.491069 
L 208.064778 76.987046 
L 208.14629 216.907987 
L 208.227801 213.798633 
L 208.472335 200.216973 
L 208.71687 176.747866 
L 208.961404 136.193249 
L 209.205938 66.114869 
L 209.28745 215.820769 
L 209.368961 212.493972 
L 209.613495 197.962519 
L 209.858029 172.852169 
L 210.102564 129.461483 
L 210.428609 54.482379 
L 210.510121 214.65752 
L 210.591632 211.098073 
L 210.836167 195.550406 
L 211.080701 168.684037 
L 211.325235 122.258952 
L 211.488258 73.772798 
L 211.569769 216.586562 
L 211.651281 213.412923 
L 211.895815 199.550467 
L 212.140349 175.596143 
L 212.384883 134.203071 
L 212.629418 62.675842 
L 212.710929 215.476867 
L 212.792441 212.081288 
L 213.036975 197.249402 
L 213.281509 171.619903 
L 213.526043 127.332128 
L 213.770578 81.078171 
L 214.667203 81.078171 
L 214.748715 50.802854 
L 214.830226 214.289568 
L 214.911737 210.65653 
L 215.156272 194.787419 
L 215.400806 167.365597 
L 215.64534 119.980687 
L 215.808363 70.492096 
L 215.889874 216.258492 
L 215.971386 213.019239 
L 216.21592 198.870181 
L 216.460454 174.420608 
L 216.704989 132.171747 
L 216.949523 59.165714 
L 217.031034 215.125854 
L 217.112546 211.660073 
L 217.35708 196.521542 
L 217.601614 170.362161 
L 217.846148 125.15875 
L 218.009171 77.948506 
L 218.090683 217.004133 
L 218.172194 213.914008 
L 218.416728 200.416342 
L 218.661263 177.092375 
L 218.905797 136.788559 
L 219.150331 67.143566 
L 219.231843 215.923639 
L 219.313354 212.617415 
L 219.557888 198.17583 
L 219.802423 173.220769 
L 220.046957 130.098425 
L 220.291491 85.061639 
L 223.062879 85.061639 
L 223.144391 55.583015 
L 223.225902 214.767584 
L 223.307414 211.230149 
L 223.551948 195.778634 
L 223.796482 169.078415 
L 224.041016 122.940437 
L 224.204039 74.754135 
L 224.285551 216.684696 
L 224.367062 213.530684 
L 224.611596 199.753957 
L 224.85613 175.947774 
L 225.100665 134.810689 
L 225.345199 63.725807 
L 225.42671 215.581863 
L 225.508222 212.207284 
L 225.752756 197.467123 
L 225.99729 171.996124 
L 226.241825 127.982239 
L 226.404847 82.01433 
L 226.486359 217.410716 
L 226.56787 214.401907 
L 226.812405 201.259431 
L 227.056939 178.549233 
L 227.301473 139.306011 
L 227.546007 71.493722 
L 227.627519 216.358655 
L 227.70903 213.139434 
L 227.953564 199.077878 
L 228.198099 174.779509 
L 228.442633 132.791927 
L 228.768679 60.237386 
L 228.85019 215.233021 
L 228.931701 211.788674 
L 229.176236 196.743764 
L 229.42077 170.74616 
L 229.665304 125.822301 
L 229.828327 78.90402 
L 229.909838 217.099684 
L 229.99135 214.02867 
L 230.235884 200.614477 
L 230.480418 177.434752 
L 230.724953 137.380188 
L 230.969487 68.165901 
L 231.050998 216.025873 
L 231.13251 212.740095 
L 231.377044 198.387821 
L 231.621578 173.58709 
L 231.866112 130.731428 
L 232.029135 85.973163 
L 232.110647 217.806599 
L 232.192158 214.876967 
L 232.436692 202.080335 
L 232.681227 179.967754 
L 232.925761 141.757215 
L 233.170295 75.729404 
L 233.251807 216.782223 
L 233.333318 213.647716 
L 233.577852 199.956189 
L 233.822387 176.29723 
L 234.066921 135.41455 
L 234.392966 64.769278 
L 234.474478 215.68621 
L 234.555989 212.332501 
L 234.800524 197.683497 
L 235.045058 172.370019 
L 235.289592 128.628329 
L 235.452615 82.9447 
L 235.534126 217.503753 
L 235.615638 214.513551 
L 235.860172 201.452353 
L 236.104706 178.882601 
L 236.34924 139.882071 
L 236.593775 72.489155 
L 236.675286 216.458198 
L 236.756798 213.258886 
L 237.001332 199.284291 
L 237.245866 175.13619 
L 237.4904 133.408273 
L 237.734935 89.827819 
L 237.897957 89.827819 
L 237.979469 61.302431 
L 238.06098 215.339526 
L 238.142492 211.916479 
L 238.387026 196.964612 
L 238.63156 171.127785 
L 238.876094 126.481749 
L 239.039117 79.853624 
L 239.120629 217.194645 
L 239.20214 214.142622 
L 239.446674 200.811387 
L 239.691209 177.775013 
L 239.935743 137.968158 
L 240.180277 69.181914 
L 240.261789 216.127474 
L 240.3433 212.862017 
L 240.587834 198.598501 
L 240.832368 173.951146 
L 241.076903 131.360516 
L 241.321437 86.87905 
L 243.522245 86.87905 
L 243.603757 57.763908 
L 243.685268 214.985673 
L 243.76678 211.491856 
L 244.011314 196.230864 
L 244.255848 169.859868 
L 244.500382 124.290788 
L 244.663405 76.698642 
L 244.744917 216.879147 
L 244.826428 213.764024 
L 245.070962 200.15717 
L 245.315496 176.644526 
L 245.560031 136.014676 
L 245.804565 65.806297 
L 245.886076 215.789912 
L 245.967588 212.456943 
L 246.212122 197.898533 
L 246.456656 172.741601 
L 246.701191 129.270423 
L 246.864213 83.869316 
L 246.945725 217.596214 
L 247.027236 214.624505 
L 247.271771 201.644081 
L 247.516305 179.213908 
L 247.760839 140.454569 
L 248.005373 73.478431 
L 248.086885 216.557126 
L 248.168396 213.377599 
L 248.41293 199.489427 
L 248.657465 175.490666 
L 248.901999 134.020807 
L 249.228045 62.36089 
L 249.309556 215.445371 
L 249.391067 212.043494 
L 249.635602 197.184094 
L 249.880136 171.50705 
L 250.12467 127.137118 
L 250.287693 80.797356 
L 250.369204 217.289018 
L 250.450716 214.25587 
L 250.69525 201.007079 
L 250.939784 178.113169 
L 251.184319 138.552492 
L 251.428853 70.191643 
L 251.510364 216.228447 
L 251.591876 212.983184 
L 251.83641 198.807879 
L 252.080944 174.31295 
L 252.325478 131.985714 
L 252.570013 87.779335 
L 253.54815 87.779335 
L 253.629661 58.84425 
L 253.711173 215.093708 
L 253.792684 211.621497 
L 254.037218 196.454883 
L 254.281753 170.246974 
L 254.526287 124.959708 
L 254.68931 77.661885 
L 254.770821 216.975471 
L 254.852332 213.879614 
L 255.096867 200.356908 
L 255.341401 176.989673 
L 255.585935 136.611091 
L 255.830469 66.836902 
L 255.911981 215.892973 
L 255.993492 212.580616 
L 256.238027 198.11224 
L 256.482561 173.110886 
L 256.727095 129.908547 
L 257.053141 55.254905 
L 257.134652 214.734773 
L 257.216164 211.190776 
L 257.460698 195.710597 
L 257.705232 168.960847 
L 257.949766 122.73728 
L 258.112789 74.461589 
L 258.194301 216.655441 
L 258.275812 213.495578 
L 258.520346 199.693295 
L 258.764881 175.842949 
L 259.009415 134.629552 
L 259.253949 63.412802 
L 259.33546 215.550563 
L 259.416972 212.169724 
L 259.661506 197.402218 
L 259.90604 171.883969 
L 260.150575 127.788435 
L 260.47662 51.591351 
L 260.558132 214.368418 
L 260.639643 210.751149 
L 260.884177 194.950922 
L 261.128712 167.648129 
L 261.373246 120.468904 
L 261.536269 71.195128 
L 261.61778 216.328795 
L 261.699292 213.103603 
L 261.943826 199.015961 
L 262.18836 174.672517 
L 262.432894 132.607045 
L 262.677429 59.91791 
L 262.75894 215.201074 
L 262.840451 211.750337 
L 263.084986 196.677518 
L 263.32952 170.631686 
L 263.574054 125.62449 
L 263.737077 78.619172 
L 263.818588 217.0712 
L 263.9001 213.994488 
L 264.144634 200.555411 
L 264.389168 177.332686 
L 264.633703 137.203818 
L 264.878237 67.861133 
L 264.959748 215.995396 
L 265.04126 212.703523 
L 265.285794 198.324624 
L 265.530328 173.477887 
L 265.774863 130.542724 
L 266.100908 56.350763 
L 266.18242 214.844359 
L 266.263931 211.322279 
L 266.508465 195.937834 
L 266.753 169.353513 
L 266.997534 123.415806 
L 267.160557 75.438667 
L 267.242068 216.753149 
L 267.323579 213.612827 
L 267.568114 199.895902 
L 267.812648 176.193054 
L 268.057182 135.234533 
L 268.301716 64.458209 
L 268.383228 215.655103 
L 268.464739 212.295172 
L 268.709274 197.618994 
L 268.953808 172.258557 
L 269.198342 128.435723 
L 269.442876 52.709866 
L 269.524388 214.480269 
L 269.605899 210.885371 
L 269.850433 195.182857 
L 270.094968 168.048913 
L 270.339502 121.161458 
L 270.584036 72.192406 
L 270.665548 72.192406 
L 270.747059 40.139936 
L 270.82857 213.223276 
L 270.910082 209.37698 
L 271.154616 192.576357 
L 271.39915 163.54488 
L 271.643685 113.378489 
L 271.806707 60.984931 
L 271.888219 215.307776 
L 271.96973 211.878379 
L 272.214265 196.898775 
L 272.458799 171.014019 
L 272.703333 126.285161 
L 272.947867 48.993694 
L 273.029379 214.108652 
L 273.11089 210.439431 
L 273.355424 194.412272 
L 273.599959 166.717342 
L 273.844493 118.860503 
L 274.007516 68.87903 
L 274.089027 216.097186 
L 274.170539 212.825671 
L 274.415073 198.535695 
L 274.659607 173.842618 
L 274.904141 131.172979 
L 275.230187 57.439844 
L 275.311698 214.953267 
L 275.39321 211.452969 
L 275.637744 196.163666 
L 275.882278 169.74375 
L 276.126813 124.090136 
L 276.289835 76.409703 
L 276.371347 216.850253 
L 276.452858 213.729352 
L 276.697393 200.097256 
L 276.941927 176.540994 
L 277.186461 135.835773 
L 277.430995 65.497151 
L 277.512507 215.758998 
L 277.594018 212.419845 
L 277.838552 197.834429 
L 278.083087 172.630829 
L 278.327621 129.079009 
L 278.572155 83.593679 
L 278.653667 83.593679 
L 278.735178 53.821463 
L 278.816689 214.591429 
L 278.898201 211.018763 
L 279.142735 195.413358 
L 279.387269 168.447219 
L 279.631804 121.84973 
L 279.794826 73.183518 
L 279.876338 216.527634 
L 279.957849 213.342209 
L 280.202384 199.428274 
L 280.446918 175.384993 
L 280.691452 133.838204 
L 280.935986 62.045353 
L 281.017498 215.413818 
L 281.099009 212.00563 
L 281.343543 197.118664 
L 281.588078 171.393987 
L 281.832612 126.941746 
L 282.077146 50.128273 
L 282.158658 214.22211 
L 282.240169 210.57558 
L 282.484703 194.647538 
L 282.729238 167.123882 
L 282.973772 119.563004 
L 283.218306 69.890633 
L 283.870397 69.890633 
L 283.951909 216.198346 
L 284.03342 212.947063 
L 284.277955 198.745461 
L 284.522489 174.205093 
L 284.767023 131.799337 
L 285.093069 58.522189 
L 285.17458 215.061501 
L 285.256092 211.58285 
L 285.500626 196.388101 
L 285.74516 170.131574 
L 285.989694 124.760296 
L 286.152717 77.374733 
L 286.234229 216.946756 
L 286.31574 213.845155 
L 286.560274 200.297364 
L 286.804808 176.886781 
L 287.049343 136.433294 
L 287.293877 66.529668 
L 287.375388 215.862249 
L 287.4569 212.543748 
L 287.701434 198.048532 
L 287.945968 173.000799 
L 288.190503 129.718316 
L 288.435037 84.514281 
L 288.59806 84.514281 
L 288.679571 54.926186 
L 288.761083 214.701901 
L 288.842594 211.15133 
L 289.087128 195.642434 
L 289.331662 168.843061 
L 289.576197 122.533746 
L 289.73922 74.1685 
L 289.820731 216.626132 
L 289.902242 213.460407 
L 290.146777 199.63252 
L 290.391311 175.73793 
L 290.635845 134.448079 
L 290.880379 63.099217 
L 290.961891 215.519204 
L 291.043402 212.132093 
L 291.287936 197.337193 
L 291.532471 171.771606 
L 291.777005 127.594271 
L 292.103051 51.255836 
L 292.184562 214.334866 
L 292.266074 210.710888 
L 292.510608 194.88135 
L 292.755142 167.527908 
L 292.999676 120.261162 
L 293.162699 70.895979 
L 293.244211 216.29888 
L 293.325722 213.067705 
L 293.570256 198.95393 
L 293.81479 174.565327 
L 294.059325 132.42182 
L 294.303859 59.597842 
L 294.38537 215.169067 
L 294.466882 211.711928 
L 294.711416 196.611148 
L 294.95595 170.517 
L 295.200485 125.426312 
L 295.445019 78.333795 
L 296.178622 78.333795 
L 296.260133 217.042662 
L 296.341644 213.960243 
L 296.586179 200.496235 
L 296.830713 177.230431 
L 297.075247 137.02712 
L 297.319781 67.5558 
L 297.401293 215.964862 
L 297.482804 212.666883 
L 297.727339 198.26131 
L 297.971873 173.36848 
L 298.216407 130.353669 
L 298.460941 85.42919 
L 298.542453 85.42919 
L 298.623964 56.024077 
L 298.705476 214.81169 
L 298.786987 211.283077 
L 299.031521 195.870092 
L 299.276055 169.236455 
L 299.52059 123.213531 
L 299.683613 75.147391 
L 299.765124 216.724022 
L 299.846635 213.577874 
L 300.09117 199.835503 
L 300.335704 176.088684 
L 300.580238 135.054182 
L 300.824772 64.146563 
L 300.906284 215.623939 
L 300.987795 212.257775 
L 301.23233 197.554371 
L 301.476864 172.146889 
L 301.721398 128.24276 
L 301.965932 82.389481 
L 302.047444 82.389481 
L 302.128955 52.376425 
L 302.210467 214.446925 
L 302.291978 210.845358 
L 302.536512 195.113715 
L 302.781046 167.929436 
L 303.025581 120.955001 
L 303.188604 71.895108 
L 303.270115 216.398793 
L 303.351626 213.1876 
L 303.596161 199.161109 
L 303.840695 174.923333 
L 304.085229 133.040455 
L 304.329763 60.666842 
L 304.411275 215.275967 
L 304.492786 211.840208 
L 304.737321 196.832816 
L 304.981855 170.900042 
L 305.226389 126.088208 
L 305.552435 48.65336 
L 305.633946 214.074619 
L 305.715458 210.398591 
L 305.959992 194.3417 
L 306.204526 166.595394 
L 306.44906 118.649777 
L 306.612083 68.575585 
L 306.693595 216.066841 
L 306.775106 212.789258 
L 307.01964 198.472773 
L 307.264174 173.733888 
L 307.508709 130.985094 
L 307.834754 57.115178 
L 307.916266 214.9208 
L 307.997777 211.414009 
L 308.242312 196.096343 
L 308.486846 169.627417 
L 308.73138 123.889112 
L 308.894403 76.120227 
L 308.975914 216.821305 
L 309.057426 213.694615 
L 309.30196 200.03723 
L 309.546494 176.437269 
L 309.791028 135.656537 
L 310.035563 65.187432 
L 310.117074 215.728026 
L 310.198586 212.382679 
L 310.44312 197.770206 
L 310.687654 172.519851 
L 310.932188 128.887239 
L 311.258234 53.490085 
L 311.339745 214.558291 
L 311.421257 210.978998 
L 311.665791 195.344644 
L 311.910325 168.32848 
L 312.15486 121.64455 
L 312.317882 72.888058 
L 312.399394 216.498088 
L 312.480905 213.306754 
L 312.72544 199.367007 
L 312.969974 175.279125 
L 313.214508 133.655263 
L 313.459042 61.729231 
L 313.540554 215.382206 
L 313.622065 211.967695 
L 313.866599 197.053113 
L 314.111134 171.280715 
L 314.355668 126.746012 
L 314.600202 49.790044 
L 314.681714 214.188287 
L 314.763225 210.534993 
L 315.007759 194.577403 
L 315.252293 167.002689 
L 315.496828 119.353582 
L 315.659851 69.589064 
L 315.741362 216.168189 
L 315.822873 212.910875 
L 316.067408 198.682928 
L 316.311942 174.097036 
L 316.556476 131.612613 
L 316.80101 58.199532 
L 316.882522 215.029236 
L 316.964033 211.544131 
L 317.208568 196.321195 
L 317.453102 170.01596 
L 317.697636 124.560515 
L 317.94217 77.087048 
L 318.023682 77.087048 
L 318.105193 46.013506 
L 318.186705 213.810633 
L 318.268216 210.081808 
L 318.51275 193.7943 
L 318.757284 165.649487 
L 319.001819 117.015249 
L 319.164842 66.221865 
L 319.246353 215.831469 
L 319.327864 212.506811 
L 319.572399 197.984706 
L 319.816933 172.890507 
L 320.061467 129.527732 
L 320.387513 54.596857 
L 320.469024 214.668968 
L 320.550536 211.11181 
L 320.79507 195.574144 
L 321.039604 168.725057 
L 321.284138 122.329834 
L 321.447161 73.874867 
L 321.528673 216.596769 
L 321.610184 213.425171 
L 321.854718 199.571632 
L 322.099253 175.632716 
L 322.343787 134.266269 
L 322.588321 62.78505 
L 322.669833 215.487787 
L 322.751344 212.094393 
L 322.995878 197.272048 
L 323.240413 171.659034 
L 323.484947 127.399747 
L 323.729481 50.919698 
L 323.810992 214.301252 
L 323.892504 210.670551 
L 324.137038 194.811648 
L 324.381572 167.407464 
L 324.626107 120.053034 
L 324.870641 70.596275 
L 327.968075 70.596275 
L 328.049586 216.26891 
L 328.131098 213.03174 
L 328.375632 198.891783 
L 328.620166 174.457938 
L 328.8647 132.236252 
L 329.109235 59.277179 
L 329.190746 215.137 
L 329.272257 211.673449 
L 329.516792 196.544656 
L 329.761326 170.402101 
L 330.00586 125.227766 
L 330.250394 78.047889 
L 330.331906 78.047889 
L 330.413417 47.166515 
L 330.494929 213.925934 
L 330.57644 210.220169 
L 330.820974 194.033388 
L 331.065509 166.062631 
L 331.310043 117.729162 
L 331.473066 67.2499 
L 331.554577 215.934272 
L 331.636089 212.630175 
L 331.880623 198.197879 
L 332.125157 173.258871 
L 332.369691 130.164264 
L 332.614226 55.696785 
L 332.695737 214.778961 
L 332.777248 211.243802 
L 333.021783 195.802225 
L 333.266317 169.119181 
L 333.510851 123.01088 
L 333.755385 74.855574 
L 333.918408 74.855574 
L 333.99992 43.335737 
L 334.081431 213.542856 
L 334.162943 209.760476 
L 334.407477 193.239038 
L 334.652011 164.689994 
L 334.896545 115.357245 
L 335.059568 63.834339 
L 335.14108 215.592716 
L 335.222591 212.220308 
L 335.467125 197.489628 
L 335.71166 172.035013 
L 335.956194 128.049439 
L 336.200728 52.042367 
L 336.282239 214.413519 
L 336.363751 210.805271 
L 336.608285 195.044445 
L 336.852819 167.809737 
L 337.097354 120.748161 
L 337.260376 71.597258 
L 337.341888 216.369008 
L 337.423399 213.151858 
L 337.667934 199.099347 
L 337.912468 174.816608 
L 338.157002 132.856034 
L 338.401536 60.348162 
L 338.483048 215.244099 
L 338.564559 211.801967 
L 338.809093 196.766735 
L 339.053628 170.785853 
L 339.298162 125.89089 
L 339.461185 79.002789 
L 339.542696 217.109561 
L 339.624208 214.040522 
L 339.868742 200.634958 
L 340.113276 177.470143 
L 340.35781 137.441343 
L 340.602345 68.271577 
L 340.683856 216.03644 
L 340.765367 212.752777 
L 341.009902 198.409734 
L 341.254436 173.624956 
L 341.49897 130.79686 
L 341.743504 56.78991 
L 341.825016 214.888274 
L 341.906527 211.374977 
L 342.151062 196.028895 
L 342.395596 169.510867 
L 342.64013 123.687714 
L 342.803153 75.830215 
L 342.884664 216.792304 
L 342.966176 213.659813 
L 343.21071 199.977093 
L 343.455244 176.333353 
L 343.699779 135.476969 
L 343.944313 64.877139 
L 344.025824 215.696996 
L 344.107336 212.345444 
L 344.35187 197.705863 
L 344.596404 172.408668 
L 344.840938 128.695113 
L 345.085473 83.04087 
L 345.166984 83.04087 
L 345.248495 53.158092 
L 345.330007 214.525092 
L 345.411518 210.939158 
L 345.656053 195.275802 
L 345.900587 168.209521 
L 346.145121 121.438988 
L 346.308144 72.59205 
L 346.389655 216.468487 
L 346.471167 213.271233 
L 346.715701 199.305627 
L 346.960235 175.17306 
L 347.20477 133.471983 
L 347.449304 61.412522 
L 347.530815 215.350535 
L 347.612327 211.92969 
L 347.856861 196.98744 
L 348.101395 171.167233 
L 348.345929 126.549914 
L 348.590464 49.451187 
L 348.671975 214.154401 
L 348.753486 210.49433 
L 348.998021 194.507138 
L 349.242555 166.88127 
L 349.487089 119.143771 
L 349.650112 69.286936 
L 349.731623 216.137976 
L 349.813135 212.87462 
L 350.057669 198.620279 
L 350.302203 173.988778 
L 350.546738 131.425544 
L 350.872783 57.876275 
L 350.954295 214.99691 
L 351.035806 211.50534 
L 351.28034 196.254164 
L 351.524875 169.900131 
L 351.769409 124.360363 
L 351.932432 76.798829 
L 352.013943 216.889165 
L 352.095455 213.776047 
L 352.339989 200.177945 
L 352.584523 176.680425 
L 352.829057 136.07671 
L 353.073592 65.91349 
L 353.155103 215.800632 
L 353.236614 212.469806 
L 353.481149 197.920761 
L 353.725683 172.780011 
L 353.970217 129.336795 
L 354.214752 54.266918 
L 354.296263 214.635974 
L 354.377774 211.072217 
L 354.622309 195.505728 
L 354.866843 168.606833 
L 355.111377 122.125544 
L 355.2744 73.58069 
L 355.355911 216.567351 
L 355.437423 213.38987 
L 355.681957 199.510631 
L 355.926491 175.527307 
L 356.171026 134.084123 
L 356.41556 62.4703 
L 356.497071 215.456312 
L 356.578583 212.056623 
L 356.823117 197.206781 
L 357.067651 171.546253 
L 357.149163 159.364553 
L 357.149163 159.364553 
" clip-path="url(#p0b4b48870b)" style="fill: none; stroke: #1f77b4; stroke-width: 1.5; stroke-linecap: square"/>
   </g>
   <g id="patch_3">
    <path d="M 37.567344 228.96 
L 37.567344 7.2 
" style="fill: none; stroke: #000000; stroke-width: 0.8; stroke-linejoin: miter; stroke-linecap: square"/>
   </g>
   <g id="patch_4">
    <path d="M 372.367344 228.96 
L 372.367344 7.2 
" style="fill: none; stroke: #000000; stroke-width: 0.8; stroke-linejoin: miter; stroke-linecap: square"/>
   </g>
   <g id="patch_5">
    <path d="M 37.567344 228.96 
L 372.367344 228.96 
" style="fill: none; stroke: #000000; stroke-width: 0.8; stroke-linejoin: miter; stroke-linecap: square"/>
   </g>
   <g id="patch_6">
    <path d="M 37.567344 7.2 
L 372.367344 7.2 
" style="fill: none; stroke: #000000; stroke-width: 0.8; stroke-linejoin: miter; stroke-linecap: square"/>
   </g>
   <g id="legend_1">
    <g id="patch_7">
     <path d="M 314.548024 29.420307 
L 365.367344 29.420307 
Q 367.367344 29.420307 367.367344 27.420307 
L 367.367344 14.2 
Q 367.367344 12.2 365.367344 12.2 
L 314.548024 12.2 
Q 312.548024 12.2 312.548024 14.2 
L 312.548024 27.420307 
Q 312.548024 29.420307 314.548024 29.420307 
z
" style="fill: #ffffff; opacity: 0.8; stroke: #cccccc; stroke-linejoin: miter"/>
    </g>
    <g id="line2d_16">
     <path d="M 316.548024 19.79832 
L 326.548024 19.79832 
L 336.548024 19.79832 
" style="fill: none; stroke: #1f77b4; stroke-width: 1.5; stroke-linecap: square"/>
    </g>
    <g id="text_17">
     <!-- CFL -->
     <g transform="translate(344.548024 23.29832) scale(0.1 -0.1)">
      <use xlink:href="#NimbusSanL-Regu-43" transform="scale(0.996264)"/>
      <use xlink:href="#NimbusSanL-Regu-46" transform="translate(71.929985 0) scale(0.996264)"/>
      <use xlink:href="#NimbusSanL-Regu-4c" transform="translate(132.801616 0) scale(0.996264)"/>
     </g>
    </g>
   </g>
  </g>
 </g>
 <defs>
  <clipPath id="p0b4b48870b">
   <rect x="37.567344" y="7.2" width="334.8" height="221.76"/>
  </clipPath>
 </defs>
</svg>
