<?xml version="1.0" encoding="utf-8" standalone="no"?>
<!DOCTYPE svg PUBLIC "-//W3C//DTD SVG 1.1//EN"
  "http://www.w3.org/Graphics/SVG/1.1/DTD/svg11.dtd">
<svg xmlns:xlink="http://www.w3.org/1999/xlink" width="379.567344pt" height="265.600613pt" viewBox="0 0 379.567344 265.600613" xmlns="http://www.w3.org/2000/svg" version="1.1">
 <metadata>
  <rdf:RDF xmlns:dc="http://purl.org/dc/elements/1.1/" xmlns:cc="http://creativecommons.org/ns#" xmlns:rdf="http://www.w3.org/1999/02/22-rdf-syntax-ns#">
   <cc:Work>
    <dc:type rdf:resource="http://purl.org/dc/dcmitype/StillImage"/>
    <dc:date>2025-07-17T22:17:29.074409</dc:date>
    <dc:format>image/svg+xml</dc:format>
    <dc:creator>
     <cc:Agent>
      <dc:title>Matplotlib v3.10.3, https://matplotlib.org/</dc:title>
     </cc:Agent>
    </dc:creator>
   </cc:Work>
  </rdf:RDF>
 </metadata>
 <defs>
  <style type="text/css">*{stroke-linejoin: round; stroke-linecap: butt}</style>
 </defs>
 <g id="figure_1">
  <g id="patch_1">
   <path d="M 0 265.600613 
L 379.567344 265.600613 
L 379.567344 0 
L 0 0 
z
" style="fill: #ffffff"/>
  </g>
  <g id="axes_1">
   <g id="patch_2">
    <path d="M 37.567344 228.96 
L 372.367344 228.96 
L 372.367344 7.2 
L 37.567344 7.2 
z
" style="fill: #ffffff"/>
   </g>
   <g id="matplotlib.axis_1">
    <g id="xtick_1">
     <g id="line2d_1">
      <defs>
       <path id="m570cb86d33" d="M 0 0 
L 0 3.5 
" style="stroke: #000000; stroke-width: 0.8"/>
      </defs>
      <g>
       <use xlink:href="#m570cb86d33" x="52.785526" y="228.96" style="stroke: #000000; stroke-width: 0.8"/>
      </g>
     </g>
     <g id="text_1">
      <!-- $\mathdefault{0}$ -->
      <g transform="translate(50.294859 243.05832) scale(0.1 -0.1)">
       <defs>
        <path id="CMR17-30" d="M 2688 2038 
C 2688 2430 2682 3099 2413 3613 
C 2176 4063 1798 4224 1466 4224 
C 1158 4224 768 4082 525 3620 
C 269 3137 243 2539 243 2038 
C 243 1671 250 1112 448 623 
C 723 -39 1216 -128 1466 -128 
C 1760 -128 2208 -7 2470 604 
C 2662 1048 2688 1568 2688 2038 
z
M 1466 -26 
C 1056 -26 813 328 723 816 
C 653 1196 653 1749 653 2109 
C 653 2604 653 3015 736 3407 
C 858 3954 1216 4121 1466 4121 
C 1728 4121 2067 3947 2189 3420 
C 2272 3054 2278 2623 2278 2109 
C 2278 1691 2278 1176 2202 797 
C 2067 96 1690 -26 1466 -26 
z
" transform="scale(0.015625)"/>
       </defs>
       <use xlink:href="#CMR17-30" transform="scale(0.996264)"/>
      </g>
     </g>
    </g>
    <g id="xtick_2">
     <g id="line2d_2">
      <g>
       <use xlink:href="#m570cb86d33" x="125.949862" y="228.96" style="stroke: #000000; stroke-width: 0.8"/>
      </g>
     </g>
     <g id="text_2">
      <!-- $\mathdefault{100}$ -->
      <g transform="translate(118.477859 243.05832) scale(0.1 -0.1)">
       <defs>
        <path id="CMR17-31" d="M 1702 4083 
C 1702 4217 1696 4224 1606 4224 
C 1357 3927 979 3833 621 3820 
C 602 3820 570 3820 563 3808 
C 557 3795 557 3782 557 3648 
C 755 3648 1088 3686 1344 3839 
L 1344 467 
C 1344 243 1331 166 781 166 
L 589 166 
L 589 0 
C 896 6 1216 12 1523 12 
C 1830 12 2150 6 2458 0 
L 2458 166 
L 2266 166 
C 1715 166 1702 236 1702 467 
L 1702 4083 
z
" transform="scale(0.015625)"/>
       </defs>
       <use xlink:href="#CMR17-31" transform="scale(0.996264)"/>
       <use xlink:href="#CMR17-30" transform="translate(45.690477 0) scale(0.996264)"/>
       <use xlink:href="#CMR17-30" transform="translate(91.380954 0) scale(0.996264)"/>
      </g>
     </g>
    </g>
    <g id="xtick_3">
     <g id="line2d_3">
      <g>
       <use xlink:href="#m570cb86d33" x="199.114198" y="228.96" style="stroke: #000000; stroke-width: 0.8"/>
      </g>
     </g>
     <g id="text_3">
      <!-- $\mathdefault{200}$ -->
      <g transform="translate(191.642195 243.05832) scale(0.1 -0.1)">
       <defs>
        <path id="CMR17-32" d="M 2669 990 
L 2554 990 
C 2490 537 2438 460 2413 422 
C 2381 371 1920 371 1830 371 
L 602 371 
C 832 620 1280 1073 1824 1596 
C 2214 1966 2669 2400 2669 3033 
C 2669 3788 2067 4224 1395 4224 
C 691 4224 262 3603 262 3027 
C 262 2777 448 2745 525 2745 
C 589 2745 781 2783 781 3007 
C 781 3206 614 3264 525 3264 
C 486 3264 448 3257 422 3244 
C 544 3788 915 4057 1306 4057 
C 1862 4057 2227 3616 2227 3033 
C 2227 2477 1901 1998 1536 1583 
L 262 147 
L 262 0 
L 2515 0 
L 2669 990 
z
" transform="scale(0.015625)"/>
       </defs>
       <use xlink:href="#CMR17-32" transform="scale(0.996264)"/>
       <use xlink:href="#CMR17-30" transform="translate(45.690477 0) scale(0.996264)"/>
       <use xlink:href="#CMR17-30" transform="translate(91.380954 0) scale(0.996264)"/>
      </g>
     </g>
    </g>
    <g id="xtick_4">
     <g id="line2d_4">
      <g>
       <use xlink:href="#m570cb86d33" x="272.278533" y="228.96" style="stroke: #000000; stroke-width: 0.8"/>
      </g>
     </g>
     <g id="text_4">
      <!-- $\mathdefault{300}$ -->
      <g transform="translate(264.80653 243.05832) scale(0.1 -0.1)">
       <defs>
        <path id="CMR17-33" d="M 1414 2176 
C 1984 2176 2234 1673 2234 1094 
C 2234 322 1824 25 1453 25 
C 1114 25 563 193 390 691 
C 422 678 454 678 486 678 
C 640 678 755 780 755 947 
C 755 1132 614 1216 486 1216 
C 378 1216 211 1164 211 927 
C 211 335 787 -128 1466 -128 
C 2176 -128 2720 432 2720 1087 
C 2720 1718 2208 2176 1600 2246 
C 2086 2347 2554 2776 2554 3353 
C 2554 3856 2048 4224 1472 4224 
C 890 4224 378 3862 378 3347 
C 378 3123 544 3084 627 3084 
C 762 3084 877 3167 877 3334 
C 877 3500 762 3584 627 3584 
C 602 3584 570 3584 544 3571 
C 730 3999 1235 4076 1459 4076 
C 1683 4076 2106 3966 2106 3347 
C 2106 3167 2080 2851 1862 2574 
C 1670 2329 1453 2316 1242 2297 
C 1210 2297 1062 2284 1037 2284 
C 992 2278 966 2272 966 2227 
C 966 2182 973 2176 1101 2176 
L 1414 2176 
z
" transform="scale(0.015625)"/>
       </defs>
       <use xlink:href="#CMR17-33" transform="scale(0.996264)"/>
       <use xlink:href="#CMR17-30" transform="translate(45.690477 0) scale(0.996264)"/>
       <use xlink:href="#CMR17-30" transform="translate(91.380954 0) scale(0.996264)"/>
      </g>
     </g>
    </g>
    <g id="xtick_5">
     <g id="line2d_5">
      <g>
       <use xlink:href="#m570cb86d33" x="345.442869" y="228.96" style="stroke: #000000; stroke-width: 0.8"/>
      </g>
     </g>
     <g id="text_5">
      <!-- $\mathdefault{400}$ -->
      <g transform="translate(337.970866 243.05832) scale(0.1 -0.1)">
       <defs>
        <path id="CMR17-34" d="M 2150 4147 
C 2150 4281 2144 4288 2029 4288 
L 128 1254 
L 128 1088 
L 1779 1088 
L 1779 460 
C 1779 230 1766 166 1318 166 
L 1197 166 
L 1197 0 
C 1402 12 1747 12 1965 12 
C 2182 12 2528 12 2733 0 
L 2733 166 
L 2611 166 
C 2163 166 2150 230 2150 460 
L 2150 1088 
L 2803 1088 
L 2803 1254 
L 2150 1254 
L 2150 4147 
z
M 1798 3723 
L 1798 1254 
L 256 1254 
L 1798 3723 
z
" transform="scale(0.015625)"/>
       </defs>
       <use xlink:href="#CMR17-34" transform="scale(0.996264)"/>
       <use xlink:href="#CMR17-30" transform="translate(45.690477 0) scale(0.996264)"/>
       <use xlink:href="#CMR17-30" transform="translate(91.380954 0) scale(0.996264)"/>
      </g>
     </g>
    </g>
    <g id="text_6">
     <!-- Iteration -->
     <g transform="translate(187.019968 256.278627) scale(0.1 -0.1)">
      <defs>
       <path id="NimbusSanL-Regu-49" d="M 1242 4672 
L 640 4672 
L 640 0 
L 1242 0 
L 1242 4672 
z
" transform="scale(0.015625)"/>
       <path id="NimbusSanL-Regu-74" d="M 1626 3328 
L 1075 3328 
L 1075 4249 
L 544 4249 
L 544 3328 
L 90 3328 
L 90 2892 
L 544 2892 
L 544 402 
C 544 64 774 -128 1190 -128 
C 1318 -128 1446 -116 1626 -84 
L 1626 364 
C 1555 345 1472 339 1370 339 
C 1139 339 1075 402 1075 634 
L 1075 2892 
L 1626 2892 
L 1626 3328 
z
" transform="scale(0.015625)"/>
       <path id="NimbusSanL-Regu-65" d="M 3283 1484 
C 3283 1998 3245 2311 3149 2565 
C 2931 3123 2419 3456 1792 3456 
C 858 3456 256 2734 256 1619 
C 256 545 838 -128 1779 -128 
C 2547 -128 3078 307 3213 1018 
L 2675 1018 
C 2528 588 2227 364 1798 364 
C 1459 364 1171 514 992 787 
C 864 974 819 1161 813 1484 
L 3283 1484 
z
M 826 1920 
C 870 2552 1248 2963 1786 2963 
C 2310 2963 2714 2519 2714 1959 
C 2714 1946 2714 1933 2707 1920 
L 826 1920 
z
" transform="scale(0.015625)"/>
       <path id="NimbusSanL-Regu-72" d="M 442 3328 
L 442 0 
L 979 0 
L 979 1727 
C 979 2203 1101 2514 1357 2698 
C 1523 2819 1683 2857 2054 2863 
L 2054 3404 
C 1965 3449 1920 3456 1850 3456 
C 1504 3456 1242 3251 934 2750 
L 934 3328 
L 442 3328 
z
" transform="scale(0.015625)"/>
       <path id="NimbusSanL-Regu-61" d="M 3424 332 
C 3366 320 3341 320 3309 320 
C 3123 320 3021 415 3021 581 
L 3021 2542 
C 3021 3135 2586 3456 1760 3456 
C 1274 3456 870 3315 646 3065 
C 493 2893 429 2702 416 2370 
L 954 2370 
C 998 2778 1242 2963 1741 2963 
C 2221 2963 2490 2784 2490 2466 
L 2490 2326 
C 2490 2103 2355 2007 1933 1956 
C 1178 1861 1062 1835 858 1753 
C 467 1593 269 1294 269 861 
C 269 256 691 -128 1370 -128 
C 1792 -128 2131 19 2509 364 
C 2547 25 2714 -128 3059 -128 
C 3168 -128 3251 -116 3424 -71 
L 3424 332 
z
M 2490 1071 
C 2490 893 2438 785 2278 638 
C 2061 441 1798 339 1485 339 
C 1069 339 826 536 826 874 
C 826 1224 1062 1402 1632 1485 
C 2195 1562 2310 1587 2490 1670 
L 2490 1071 
z
" transform="scale(0.015625)"/>
       <path id="NimbusSanL-Regu-69" d="M 960 3358 
L 429 3358 
L 429 0 
L 960 0 
L 960 3358 
z
M 960 4672 
L 422 4672 
L 422 3999 
L 960 3999 
L 960 4672 
z
" transform="scale(0.015625)"/>
       <path id="NimbusSanL-Regu-6f" d="M 1741 3456 
C 800 3456 230 2784 230 1663 
C 230 543 794 -128 1747 -128 
C 2688 -128 3264 543 3264 1638 
C 3264 2791 2707 3456 1741 3456 
z
M 1747 2963 
C 2349 2963 2707 2472 2707 1644 
C 2707 861 2336 364 1747 364 
C 1152 364 787 855 787 1663 
C 787 2466 1152 2963 1747 2963 
z
" transform="scale(0.015625)"/>
       <path id="NimbusSanL-Regu-6e" d="M 448 3328 
L 448 0 
L 986 0 
L 986 1835 
C 986 2539 1344 2988 1894 2988 
C 2317 2988 2586 2732 2586 2328 
L 2586 0 
L 3117 0 
L 3117 2539 
C 3117 3097 2701 3456 2054 3456 
C 1555 3456 1235 3263 941 2796 
L 941 3328 
L 448 3328 
z
" transform="scale(0.015625)"/>
      </defs>
      <use xlink:href="#NimbusSanL-Regu-49" transform="scale(0.996264)"/>
      <use xlink:href="#NimbusSanL-Regu-74" transform="translate(27.69517 0) scale(0.996264)"/>
      <use xlink:href="#NimbusSanL-Regu-65" transform="translate(55.390339 0) scale(0.996264)"/>
      <use xlink:href="#NimbusSanL-Regu-72" transform="translate(110.782016 0) scale(0.996264)"/>
      <use xlink:href="#NimbusSanL-Regu-61" transform="translate(142.961149 0) scale(0.996264)"/>
      <use xlink:href="#NimbusSanL-Regu-74" transform="translate(198.352826 0) scale(0.996264)"/>
      <use xlink:href="#NimbusSanL-Regu-69" transform="translate(226.047996 0) scale(0.996264)"/>
      <use xlink:href="#NimbusSanL-Regu-6f" transform="translate(248.16478 0) scale(0.996264)"/>
      <use xlink:href="#NimbusSanL-Regu-6e" transform="translate(303.556457 0) scale(0.996264)"/>
     </g>
    </g>
   </g>
   <g id="matplotlib.axis_2">
    <g id="ytick_1">
     <g id="line2d_6">
      <defs>
       <path id="m41fda44793" d="M 0 0 
L -3.5 0 
" style="stroke: #000000; stroke-width: 0.8"/>
      </defs>
      <g>
       <use xlink:href="#m41fda44793" x="37.567344" y="219.511877" style="stroke: #000000; stroke-width: 0.8"/>
      </g>
     </g>
     <g id="text_7">
      <!-- $\mathdefault{0}$ -->
      <g transform="translate(25.586009 223.061037) scale(0.1 -0.1)">
       <use xlink:href="#CMR17-30" transform="scale(0.996264)"/>
      </g>
     </g>
    </g>
    <g id="ytick_2">
     <g id="line2d_7">
      <g>
       <use xlink:href="#m41fda44793" x="37.567344" y="187.918046" style="stroke: #000000; stroke-width: 0.8"/>
      </g>
     </g>
     <g id="text_8">
      <!-- $\mathdefault{5}$ -->
      <g transform="translate(25.586009 191.467206) scale(0.1 -0.1)">
       <defs>
        <path id="CMR17-35" d="M 730 3750 
C 794 3724 1056 3641 1325 3641 
C 1920 3641 2246 3961 2432 4140 
C 2432 4191 2432 4224 2394 4224 
C 2387 4224 2374 4224 2323 4198 
C 2099 4102 1837 4032 1517 4032 
C 1325 4032 1037 4055 723 4191 
C 653 4224 640 4224 634 4224 
C 602 4224 595 4217 595 4090 
L 595 2231 
C 595 2113 595 2080 659 2080 
C 691 2080 704 2093 736 2139 
C 941 2435 1222 2560 1542 2560 
C 1766 2560 2246 2415 2246 1293 
C 2246 1087 2246 716 2054 422 
C 1894 159 1645 25 1370 25 
C 947 25 518 319 403 812 
C 429 806 480 793 506 793 
C 589 793 749 838 749 1036 
C 749 1209 627 1280 506 1280 
C 358 1280 262 1190 262 1011 
C 262 454 704 -128 1382 -128 
C 2042 -128 2669 441 2669 1267 
C 2669 2054 2170 2662 1549 2662 
C 1222 2662 947 2540 730 2304 
L 730 3750 
z
" transform="scale(0.015625)"/>
       </defs>
       <use xlink:href="#CMR17-35" transform="scale(0.996264)"/>
      </g>
     </g>
    </g>
    <g id="ytick_3">
     <g id="line2d_8">
      <g>
       <use xlink:href="#m41fda44793" x="37.567344" y="156.324216" style="stroke: #000000; stroke-width: 0.8"/>
      </g>
     </g>
     <g id="text_9">
      <!-- $\mathdefault{10}$ -->
      <g transform="translate(20.604674 159.873376) scale(0.1 -0.1)">
       <use xlink:href="#CMR17-31" transform="scale(0.996264)"/>
       <use xlink:href="#CMR17-30" transform="translate(45.690477 0) scale(0.996264)"/>
      </g>
     </g>
    </g>
    <g id="ytick_4">
     <g id="line2d_9">
      <g>
       <use xlink:href="#m41fda44793" x="37.567344" y="124.730386" style="stroke: #000000; stroke-width: 0.8"/>
      </g>
     </g>
     <g id="text_10">
      <!-- $\mathdefault{15}$ -->
      <g transform="translate(20.604674 128.279546) scale(0.1 -0.1)">
       <use xlink:href="#CMR17-31" transform="scale(0.996264)"/>
       <use xlink:href="#CMR17-35" transform="translate(45.690477 0) scale(0.996264)"/>
      </g>
     </g>
    </g>
    <g id="ytick_5">
     <g id="line2d_10">
      <g>
       <use xlink:href="#m41fda44793" x="37.567344" y="93.136555" style="stroke: #000000; stroke-width: 0.8"/>
      </g>
     </g>
     <g id="text_11">
      <!-- $\mathdefault{20}$ -->
      <g transform="translate(20.604674 96.685715) scale(0.1 -0.1)">
       <use xlink:href="#CMR17-32" transform="scale(0.996264)"/>
       <use xlink:href="#CMR17-30" transform="translate(45.690477 0) scale(0.996264)"/>
      </g>
     </g>
    </g>
    <g id="ytick_6">
     <g id="line2d_11">
      <g>
       <use xlink:href="#m41fda44793" x="37.567344" y="61.542725" style="stroke: #000000; stroke-width: 0.8"/>
      </g>
     </g>
     <g id="text_12">
      <!-- $\mathdefault{25}$ -->
      <g transform="translate(20.604674 65.091885) scale(0.1 -0.1)">
       <use xlink:href="#CMR17-32" transform="scale(0.996264)"/>
       <use xlink:href="#CMR17-35" transform="translate(45.690477 0) scale(0.996264)"/>
      </g>
     </g>
    </g>
    <g id="ytick_7">
     <g id="line2d_12">
      <g>
       <use xlink:href="#m41fda44793" x="37.567344" y="29.948895" style="stroke: #000000; stroke-width: 0.8"/>
      </g>
     </g>
     <g id="text_13">
      <!-- $\mathdefault{30}$ -->
      <g transform="translate(20.604674 33.498055) scale(0.1 -0.1)">
       <use xlink:href="#CMR17-33" transform="scale(0.996264)"/>
       <use xlink:href="#CMR17-30" transform="translate(45.690477 0) scale(0.996264)"/>
      </g>
     </g>
    </g>
    <g id="text_14">
     <!-- Average CFL - Blade_17 -->
     <g transform="translate(14.482687 171.548902) rotate(-90) scale(0.1 -0.1)">
      <defs>
       <path id="NimbusSanL-Regu-41" d="M 3034 1408 
L 3514 0 
L 4179 0 
L 2541 4672 
L 1773 4672 
L 109 0 
L 742 0 
L 1235 1408 
L 3034 1408 
z
M 2867 1907 
L 1382 1907 
L 2150 4032 
L 2867 1907 
z
" transform="scale(0.015625)"/>
       <path id="NimbusSanL-Regu-76" d="M 1824 0 
L 3110 3328 
L 2509 3328 
L 1562 629 
L 666 3328 
L 64 3328 
L 1242 0 
L 1824 0 
z
" transform="scale(0.015625)"/>
       <path id="NimbusSanL-Regu-67" d="M 2637 3359 
L 2637 2873 
C 2368 3270 2042 3456 1613 3456 
C 762 3456 186 2714 186 1632 
C 186 1084 333 638 608 320 
C 858 38 1216 -128 1568 -128 
C 1990 -128 2285 51 2586 473 
L 2586 300 
C 2586 -155 2528 -441 2394 -634 
C 2253 -841 1978 -960 1651 -960 
C 1408 -960 1190 -894 1043 -774 
C 922 -674 870 -581 838 -375 
L 294 -375 
C 352 -1031 845 -1408 1632 -1408 
C 2131 -1408 2560 -1248 2778 -980 
C 3034 -661 3130 -222 3130 568 
L 3130 3359 
L 2637 3359 
z
M 1670 2963 
C 2246 2963 2586 2479 2586 1644 
C 2586 848 2240 364 1677 364 
C 1094 364 742 855 742 1663 
C 742 2466 1101 2963 1670 2963 
z
" transform="scale(0.015625)"/>
       <path id="NimbusSanL-Regu-43" d="M 4237 3219 
C 4051 4236 3462 4736 2438 4736 
C 1811 4736 1306 4537 960 4154 
C 538 3696 307 3035 307 2284 
C 307 1522 544 867 986 415 
C 1344 44 1805 -128 2413 -128 
C 3552 -128 4192 485 4333 1712 
L 3718 1712 
C 3667 1394 3603 1178 3507 994 
C 3315 612 2918 396 2419 396 
C 1491 396 902 1134 902 2291 
C 902 3480 1466 4211 2368 4211 
C 2746 4211 3098 4096 3290 3918 
C 3462 3759 3558 3562 3629 3219 
L 4237 3219 
z
" transform="scale(0.015625)"/>
       <path id="NimbusSanL-Regu-46" d="M 1171 2112 
L 3398 2112 
L 3398 2636 
L 1171 2636 
L 1171 4147 
L 3706 4147 
L 3706 4672 
L 576 4672 
L 576 0 
L 1171 0 
L 1171 2112 
z
" transform="scale(0.015625)"/>
       <path id="NimbusSanL-Regu-4c" d="M 1107 4672 
L 512 4672 
L 512 0 
L 3411 0 
L 3411 524 
L 1107 524 
L 1107 4672 
z
" transform="scale(0.015625)"/>
       <path id="NimbusSanL-Regu-2d" d="M 1818 1996 
L 294 1996 
L 294 1536 
L 1818 1536 
L 1818 1996 
z
" transform="scale(0.015625)"/>
       <path id="NimbusSanL-Regu-42" d="M 506 0 
L 2611 0 
C 3053 0 3379 121 3629 390 
C 3859 632 3987 961 3987 1321 
C 3987 1878 3731 2214 3136 2444 
C 3558 2643 3782 2994 3782 3476 
C 3782 3821 3654 4127 3411 4345 
C 3168 4569 2848 4672 2400 4672 
L 506 4672 
L 506 0 
z
M 1101 2636 
L 1101 4147 
L 2253 4147 
C 2586 4147 2771 4101 2931 3977 
C 3098 3847 3187 3652 3187 3391 
C 3187 3138 3098 2936 2931 2806 
C 2771 2682 2586 2636 2253 2636 
L 1101 2636 
z
M 1101 524 
L 1101 2112 
L 2554 2112 
C 2842 2112 3034 2042 3174 1890 
C 3315 1745 3392 1542 3392 1315 
C 3392 1093 3315 891 3174 746 
C 3034 594 2842 524 2554 524 
L 1101 524 
z
" transform="scale(0.015625)"/>
       <path id="NimbusSanL-Regu-6c" d="M 973 4672 
L 435 4672 
L 435 0 
L 973 0 
L 973 4672 
z
" transform="scale(0.015625)"/>
       <path id="NimbusSanL-Regu-64" d="M 3168 4672 
L 2637 4672 
L 2637 2937 
C 2413 3276 2054 3456 1606 3456 
C 736 3456 166 2759 166 1695 
C 166 568 723 -128 1626 -128 
C 2086 -128 2406 44 2694 460 
L 2694 19 
L 3168 19 
L 3168 4672 
z
M 1696 2956 
C 2272 2956 2637 2447 2637 1651 
C 2637 880 2266 371 1702 371 
C 1114 371 723 887 723 1663 
C 723 2440 1114 2956 1696 2956 
z
" transform="scale(0.015625)"/>
       <path id="NimbusSanL-Regu-31" d="M 1658 3232 
L 1658 0 
L 2221 0 
L 2221 4537 
L 1850 4537 
C 1651 3840 1523 3744 653 3635 
L 653 3232 
L 1658 3232 
z
" transform="scale(0.015625)"/>
       <path id="NimbusSanL-Regu-37" d="M 3328 4544 
L 294 4544 
L 294 3987 
L 2746 3987 
C 1664 2442 1222 1493 883 0 
L 1485 0 
C 1734 1454 2304 2704 3328 4070 
L 3328 4544 
z
" transform="scale(0.015625)"/>
      </defs>
      <use xlink:href="#NimbusSanL-Regu-41" transform="scale(0.996264)"/>
      <use xlink:href="#NimbusSanL-Regu-76" transform="translate(62.465918 0) scale(0.996264)"/>
      <use xlink:href="#NimbusSanL-Regu-65" transform="translate(109.788488 0) scale(0.996264)"/>
      <use xlink:href="#NimbusSanL-Regu-72" transform="translate(165.180165 0) scale(0.996264)"/>
      <use xlink:href="#NimbusSanL-Regu-61" transform="translate(197.359298 0) scale(0.996264)"/>
      <use xlink:href="#NimbusSanL-Regu-67" transform="translate(252.750975 0) scale(0.996264)"/>
      <use xlink:href="#NimbusSanL-Regu-65" transform="translate(308.142652 0) scale(0.996264)"/>
      <use xlink:href="#NimbusSanL-Regu-43" transform="translate(391.229499 0) scale(0.996264)"/>
      <use xlink:href="#NimbusSanL-Regu-46" transform="translate(463.159484 0) scale(0.996264)"/>
      <use xlink:href="#NimbusSanL-Regu-4c" transform="translate(524.031114 0) scale(0.996264)"/>
      <use xlink:href="#NimbusSanL-Regu-2d" transform="translate(607.117961 0) scale(0.996264)"/>
      <use xlink:href="#NimbusSanL-Regu-42" transform="translate(667.98836 0) scale(0.996264)"/>
      <use xlink:href="#NimbusSanL-Regu-6c" transform="translate(734.438391 0) scale(0.996264)"/>
      <use xlink:href="#NimbusSanL-Regu-61" transform="translate(756.555176 0) scale(0.996264)"/>
      <use xlink:href="#NimbusSanL-Regu-64" transform="translate(811.946853 0) scale(0.996264)"/>
      <use xlink:href="#NimbusSanL-Regu-65" transform="translate(867.33853 0) scale(0.996264)"/>
      <use xlink:href="#NimbusSanL-Regu-31" transform="translate(958.595772 0) scale(0.996264)"/>
      <use xlink:href="#NimbusSanL-Regu-37" transform="translate(1013.987449 0) scale(0.996264)"/>
      <path d="M 928.707548 0 
L 958.595772 0 
L 958.595772 0.3985 
L 928.707548 0.3985 
L 928.707548 0 
z
"/>
     </g>
    </g>
   </g>
   <g id="line2d_13">
    <path d="M 52.785526 129.367976 
L 53.51717 112.019654 
L 54.248813 91.008676 
L 54.980456 206.661557 
L 55.7121 204.091493 
L 56.443743 201.007416 
L 57.175386 197.306523 
L 57.90703 192.865453 
L 58.638673 187.536168 
L 59.370316 181.141026 
L 60.10196 173.466856 
L 60.833603 164.257852 
L 61.565246 153.207048 
L 62.29689 139.946082 
L 63.028533 124.032923 
L 63.760177 104.937132 
L 64.49182 82.053222 
L 66.68675 82.053222 
L 67.418393 205.766011 
L 68.150037 203.016838 
L 68.88168 199.71783 
L 69.613323 195.759021 
L 70.344967 191.00845 
L 71.07661 185.307765 
L 71.808253 178.466942 
L 72.539897 170.257955 
L 73.27154 160.407171 
L 74.003184 148.58623 
L 74.734827 134.4011 
L 75.46647 117.378945 
L 76.198114 96.95702 
L 76.929757 72.481705 
L 77.6614 43.171223 
L 78.393044 201.877811 
L 79.124687 198.350998 
L 79.85633 194.118822 
L 80.587974 189.040212 
L 81.319617 182.945879 
L 82.05126 175.632679 
L 82.782904 166.85684 
L 83.514547 156.325832 
L 84.246191 143.688623 
L 84.977834 128.523973 
L 85.709477 110.326392 
L 86.441121 88.531753 
L 87.172764 62.539739 
L 89.367694 62.539739 
L 90.099337 203.814663 
L 90.830981 200.67522 
L 91.562624 196.907889 
L 92.294267 192.387091 
L 93.025911 186.962289 
L 93.757554 180.453644 
L 94.489198 172.646558 
L 95.220841 163.283567 
L 95.952484 152.058378 
L 96.684128 138.596499 
L 97.415771 122.454472 
L 98.147414 103.135679 
L 98.879058 80.003601 
L 99.610701 80.003601 
L 100.342344 52.265036 
L 101.073988 202.787193 
L 101.805631 199.442256 
L 102.537274 195.428332 
L 103.268918 190.611623 
L 104.000561 184.831572 
L 104.732205 177.895511 
L 105.463848 169.573373 
L 106.195491 159.588253 
L 106.927135 147.625249 
L 107.658778 133.283495 
L 108.390421 116.080358 
L 109.122065 95.441868 
L 109.853708 70.682533 
L 110.585351 204.628942 
L 111.316995 201.652355 
L 112.048638 198.080451 
L 112.780281 193.794166 
L 113.511925 188.650624 
L 114.243568 182.478373 
L 114.975212 175.071673 
L 115.706855 166.183916 
L 116.438498 155.519955 
L 117.170142 142.727749 
L 117.901785 127.384135 
L 118.633428 108.976292 
L 119.365072 86.889809 
L 120.096715 60.391833 
L 120.828358 60.391833 
L 121.560002 203.599872 
L 122.291645 200.417471 
L 123.023288 196.59859 
L 123.754932 192.015933 
L 124.486575 186.516744 
L 125.218219 179.917718 
L 125.949862 171.998886 
L 126.681505 162.496862 
L 127.413149 151.097645 
L 128.144792 137.421973 
L 128.876435 121.014752 
L 129.608079 101.329666 
L 130.339722 77.713109 
L 131.071365 49.380685 
L 131.803009 202.498757 
L 132.534652 199.096134 
L 133.266295 195.012985 
L 133.997939 190.113207 
L 134.729582 184.233473 
L 135.461226 177.177792 
L 136.192869 168.712465 
L 136.924512 158.557978 
L 137.656156 146.374809 
L 138.387799 131.758153 
L 139.119442 114.220526 
L 139.851086 93.181474 
L 140.582729 67.943886 
L 141.314372 204.355078 
L 142.046016 201.323718 
L 142.777659 197.686086 
L 143.509302 193.320928 
L 144.240946 188.082738 
L 144.972589 181.79691 
L 145.704232 174.256071 
L 146.435876 165.210044 
L 147.167519 154.357761 
L 147.899163 141.33686 
L 148.630806 125.715949 
L 149.362449 106.975182 
L 150.094093 84.492892 
L 150.825736 206.009978 
L 151.557379 203.309598 
L 152.289023 200.069143 
L 153.020666 196.180596 
L 153.752309 191.51434 
L 154.483953 185.914833 
L 155.215596 179.196424 
L 155.947239 171.137829 
L 156.678883 161.470355 
L 157.410526 149.871759 
L 158.14217 135.957073 
L 158.873813 119.267414 
L 159.605456 99.245986 
L 160.3371 75.220445 
L 161.068743 205.082733 
L 161.800386 202.196905 
L 162.53203 198.733911 
L 163.263673 194.578317 
L 163.995316 189.591605 
L 164.72696 183.607551 
L 165.458603 176.426686 
L 166.190246 167.810068 
L 166.92189 157.470688 
L 167.653533 145.063248 
L 168.385177 130.173958 
L 169.11682 112.306577 
L 169.848463 90.865619 
L 170.580107 65.136368 
L 171.31175 204.074326 
L 172.043393 200.986816 
L 172.775037 197.281803 
L 173.50668 192.835789 
L 174.238323 187.500571 
L 174.969967 181.09831 
L 175.70161 173.415597 
L 176.433253 164.196341 
L 177.164897 153.133233 
L 177.89654 139.857505 
L 178.628184 123.926631 
L 179.359827 104.809581 
L 180.09147 81.869122 
L 180.823114 205.747601 
L 181.554757 202.994746 
L 182.2864 199.69132 
L 183.018044 195.727209 
L 183.749687 190.970275 
L 184.48133 185.261955 
L 185.212974 178.41197 
L 185.944617 170.191989 
L 186.67626 160.328012 
L 187.407904 148.491239 
L 188.139547 134.287111 
L 188.871191 117.242158 
L 189.602834 96.788214 
L 190.334477 72.244988 
L 191.066121 72.244988 
L 191.797764 42.813188 
L 192.529407 201.842008 
L 193.261051 198.308034 
L 193.992694 194.067265 
L 194.724337 188.978343 
L 195.455981 182.871637 
L 196.187624 175.543589 
L 196.919267 166.749931 
L 197.650911 156.197542 
L 198.382554 143.534675 
L 199.114198 128.339235 
L 199.845841 110.105426 
L 200.577484 88.229957 
L 201.309128 61.98759 
L 202.040771 30.49812 
L 202.772414 200.610501 
L 203.504058 196.830226 
L 204.235701 192.293896 
L 204.967344 186.850299 
L 205.698988 180.317984 
L 206.430631 172.479206 
L 207.162274 163.072671 
L 207.893918 151.78483 
L 208.625561 138.239421 
L 209.357205 121.98493 
L 210.088848 102.479541 
L 210.820491 79.073073 
L 211.552135 50.985313 
L 212.283778 50.985313 
L 213.015421 17.28 
L 213.747065 199.288689 
L 214.478708 195.244051 
L 215.210351 190.390486 
L 215.941995 184.566208 
L 216.673638 177.577075 
L 217.405281 169.190114 
L 218.136925 159.125762 
L 218.868568 147.048539 
L 219.600212 132.555871 
L 220.331855 115.16467 
L 221.063498 94.295229 
L 221.795142 69.251899 
L 222.526785 39.199904 
L 223.258428 201.480679 
L 223.990072 197.87444 
L 224.721715 193.546953 
L 225.453358 188.353968 
L 226.185002 182.122386 
L 226.916645 174.644488 
L 227.648288 165.67101 
L 228.379932 154.902837 
L 229.111575 141.981029 
L 229.843219 126.474859 
L 230.574862 107.867456 
L 231.306505 85.538572 
L 232.038149 58.743911 
L 232.769792 58.743911 
L 233.501435 26.590317 
L 234.233079 200.219721 
L 234.964722 196.36129 
L 235.696365 191.731172 
L 236.428009 186.175031 
L 237.159652 179.507662 
L 237.891295 171.506819 
L 238.622939 161.905808 
L 239.354582 150.384594 
L 240.086226 136.559137 
L 240.817869 119.96859 
L 241.549512 100.059932 
L 242.281156 76.169543 
L 243.012799 47.501077 
L 243.744442 202.310797 
L 244.476086 198.870581 
L 245.207729 194.742321 
L 245.939372 189.78841 
L 246.671016 183.843717 
L 247.402659 176.710085 
L 248.134302 168.149727 
L 248.865946 157.877297 
L 249.597589 145.550381 
L 250.329232 130.758082 
L 251.060876 113.007323 
L 251.792519 91.706412 
L 252.524163 66.16342 
L 253.255806 35.560591 
L 253.987449 201.116748 
L 254.719093 197.437722 
L 255.450736 193.022891 
L 256.182379 187.725094 
L 256.914023 181.367738 
L 257.645666 173.73891 
L 258.377309 164.584317 
L 259.108953 153.598805 
L 259.840596 140.416191 
L 260.572239 124.597054 
L 261.303883 105.615462 
L 262.035526 82.908035 
L 262.76717 55.713534 
L 263.498813 23.13173 
L 264.230456 199.873862 
L 264.9621 195.946259 
L 265.693743 191.233136 
L 266.425386 185.577387 
L 267.15703 178.790489 
L 267.888673 170.646212 
L 268.620316 160.873079 
L 269.35196 149.14532 
L 270.083603 135.072008 
L 270.815246 118.184035 
L 271.54689 97.918466 
L 272.278533 73.599784 
L 273.010177 44.439355 
L 273.74182 202.004624 
L 274.473463 198.503174 
L 275.205107 194.301434 
L 275.93675 189.259345 
L 276.668393 183.208839 
L 277.400037 175.948231 
L 278.13168 167.235502 
L 278.863323 156.780227 
L 279.594967 144.233897 
L 280.32661 129.178301 
L 281.058253 111.111586 
L 281.789897 89.431528 
L 282.52154 63.415458 
L 283.253184 32.196174 
L 283.984827 200.780306 
L 284.71647 197.033992 
L 285.448114 192.538415 
L 286.179757 187.143723 
L 286.9114 180.670093 
L 287.643044 172.901736 
L 288.374687 163.579708 
L 289.10633 152.39376 
L 289.837974 138.970137 
L 290.569617 218.88 
L 292.764547 218.419994 
L 294.227834 217.939565 
L 295.691121 217.247748 
L 297.154407 216.251532 
L 298.617694 214.816981 
L 299.349337 213.878001 
L 300.080981 212.751226 
L 300.812624 211.399096 
L 301.544267 209.77654 
L 302.275911 207.829473 
L 303.007554 205.493025 
L 303.739198 202.689254 
L 304.470841 199.324777 
L 305.202484 195.287413 
L 305.934128 190.442521 
L 306.665771 184.62865 
L 307.397414 177.652086 
L 308.129058 169.280127 
L 308.860701 159.233875 
L 309.592344 147.178822 
L 310.323988 132.712379 
L 311.055631 218.88 
L 313.250561 218.419994 
L 314.713848 217.939565 
L 316.177135 217.247748 
L 317.640421 216.251532 
L 319.103708 214.816981 
L 319.835351 213.878001 
L 320.566995 212.751226 
L 321.298638 211.399096 
L 322.030281 209.77654 
L 322.761925 207.829473 
L 323.493568 205.492992 
L 324.225212 202.689215 
L 324.956855 199.324683 
L 325.688498 195.287301 
L 326.420142 190.442385 
L 327.151785 184.628487 
L 327.883428 177.651809 
L 328.615072 169.279893 
L 329.346715 159.233497 
L 330.078358 147.177989 
L 330.810002 132.711554 
L 331.541645 115.35242 
L 332.273288 94.523054 
L 333.004932 69.531561 
L 333.736575 204.513845 
L 334.468219 201.514259 
L 335.199862 197.914735 
L 335.931505 193.595307 
L 336.663149 188.411993 
L 337.394792 182.192017 
L 338.126435 174.728045 
L 338.858079 165.771278 
L 339.589722 155.023309 
L 340.321365 142.125595 
L 341.053009 126.648555 
L 341.784652 108.076887 
L 342.516295 218.88 
L 344.711226 218.419994 
L 346.174512 217.939565 
L 347.637799 217.247748 
L 349.101086 216.251532 
L 350.564372 214.816981 
L 351.296016 213.878001 
L 352.027659 212.751226 
L 352.759302 211.399096 
L 353.490946 209.776563 
L 354.222589 207.8295 
L 354.954232 205.493025 
L 355.685876 202.689254 
L 356.417519 199.324816 
L 357.149163 195.28749 
L 357.149163 195.28749 
" clip-path="url(#pdeb077e01e)" style="fill: none; stroke: #1f77b4; stroke-width: 1.5; stroke-linecap: square"/>
   </g>
   <g id="patch_3">
    <path d="M 37.567344 228.96 
L 37.567344 7.2 
" style="fill: none; stroke: #000000; stroke-width: 0.8; stroke-linejoin: miter; stroke-linecap: square"/>
   </g>
   <g id="patch_4">
    <path d="M 372.367344 228.96 
L 372.367344 7.2 
" style="fill: none; stroke: #000000; stroke-width: 0.8; stroke-linejoin: miter; stroke-linecap: square"/>
   </g>
   <g id="patch_5">
    <path d="M 37.567344 228.96 
L 372.367344 228.96 
" style="fill: none; stroke: #000000; stroke-width: 0.8; stroke-linejoin: miter; stroke-linecap: square"/>
   </g>
   <g id="patch_6">
    <path d="M 37.567344 7.2 
L 372.367344 7.2 
" style="fill: none; stroke: #000000; stroke-width: 0.8; stroke-linejoin: miter; stroke-linecap: square"/>
   </g>
   <g id="legend_1">
    <g id="patch_7">
     <path d="M 314.548024 29.420307 
L 365.367344 29.420307 
Q 367.367344 29.420307 367.367344 27.420307 
L 367.367344 14.2 
Q 367.367344 12.2 365.367344 12.2 
L 314.548024 12.2 
Q 312.548024 12.2 312.548024 14.2 
L 312.548024 27.420307 
Q 312.548024 29.420307 314.548024 29.420307 
z
" style="fill: #ffffff; opacity: 0.8; stroke: #cccccc; stroke-linejoin: miter"/>
    </g>
    <g id="line2d_14">
     <path d="M 316.548024 19.79832 
L 326.548024 19.79832 
L 336.548024 19.79832 
" style="fill: none; stroke: #1f77b4; stroke-width: 1.5; stroke-linecap: square"/>
    </g>
    <g id="text_15">
     <!-- CFL -->
     <g transform="translate(344.548024 23.29832) scale(0.1 -0.1)">
      <use xlink:href="#NimbusSanL-Regu-43" transform="scale(0.996264)"/>
      <use xlink:href="#NimbusSanL-Regu-46" transform="translate(71.929985 0) scale(0.996264)"/>
      <use xlink:href="#NimbusSanL-Regu-4c" transform="translate(132.801616 0) scale(0.996264)"/>
     </g>
    </g>
   </g>
  </g>
 </g>
 <defs>
  <clipPath id="pdeb077e01e">
   <rect x="37.567344" y="7.2" width="334.8" height="221.76"/>
  </clipPath>
 </defs>
</svg>
