<?xml version="1.0" encoding="utf-8" standalone="no"?>
<!DOCTYPE svg PUBLIC "-//W3C//DTD SVG 1.1//EN"
  "http://www.w3.org/Graphics/SVG/1.1/DTD/svg11.dtd">
<svg xmlns:xlink="http://www.w3.org/1999/xlink" width="382.150386pt" height="268.751432pt" viewBox="0 0 382.150386 268.751432" xmlns="http://www.w3.org/2000/svg" version="1.1">
 <metadata>
  <rdf:RDF xmlns:dc="http://purl.org/dc/elements/1.1/" xmlns:cc="http://creativecommons.org/ns#" xmlns:rdf="http://www.w3.org/1999/02/22-rdf-syntax-ns#">
   <cc:Work>
    <dc:type rdf:resource="http://purl.org/dc/dcmitype/StillImage"/>
    <dc:date>2025-07-17T22:17:28.612607</dc:date>
    <dc:format>image/svg+xml</dc:format>
    <dc:creator>
     <cc:Agent>
      <dc:title>Matplotlib v3.10.3, https://matplotlib.org/</dc:title>
     </cc:Agent>
    </dc:creator>
   </cc:Work>
  </rdf:RDF>
 </metadata>
 <defs>
  <style type="text/css">*{stroke-linejoin: round; stroke-linecap: butt}</style>
 </defs>
 <g id="figure_1">
  <g id="patch_1">
   <path d="M 0 268.751432 
L 382.150386 268.751432 
L 382.150386 0 
L 0 0 
z
" style="fill: #ffffff"/>
  </g>
  <g id="axes_1">
   <g id="patch_2">
    <path d="M 40.150386 232.110819 
L 374.950386 232.110819 
L 374.950386 10.350819 
L 40.150386 10.350819 
z
" style="fill: #ffffff"/>
   </g>
   <g id="matplotlib.axis_1">
    <g id="xtick_1">
     <g id="line2d_1">
      <defs>
       <path id="m564a660eb6" d="M 0 0 
L 0 3.5 
" style="stroke: #000000; stroke-width: 0.8"/>
      </defs>
      <g>
       <use xlink:href="#m564a660eb6" x="55.368567" y="232.110819" style="stroke: #000000; stroke-width: 0.8"/>
      </g>
     </g>
     <g id="text_1">
      <!-- $\mathdefault{0}$ -->
      <g transform="translate(52.8779 246.209139) scale(0.1 -0.1)">
       <defs>
        <path id="CMR17-30" d="M 2688 2038 
C 2688 2430 2682 3099 2413 3613 
C 2176 4063 1798 4224 1466 4224 
C 1158 4224 768 4082 525 3620 
C 269 3137 243 2539 243 2038 
C 243 1671 250 1112 448 623 
C 723 -39 1216 -128 1466 -128 
C 1760 -128 2208 -7 2470 604 
C 2662 1048 2688 1568 2688 2038 
z
M 1466 -26 
C 1056 -26 813 328 723 816 
C 653 1196 653 1749 653 2109 
C 653 2604 653 3015 736 3407 
C 858 3954 1216 4121 1466 4121 
C 1728 4121 2067 3947 2189 3420 
C 2272 3054 2278 2623 2278 2109 
C 2278 1691 2278 1176 2202 797 
C 2067 96 1690 -26 1466 -26 
z
" transform="scale(0.015625)"/>
       </defs>
       <use xlink:href="#CMR17-30" transform="scale(0.996264)"/>
      </g>
     </g>
    </g>
    <g id="xtick_2">
     <g id="line2d_2">
      <g>
       <use xlink:href="#m564a660eb6" x="128.532903" y="232.110819" style="stroke: #000000; stroke-width: 0.8"/>
      </g>
     </g>
     <g id="text_2">
      <!-- $\mathdefault{100}$ -->
      <g transform="translate(121.0609 246.209139) scale(0.1 -0.1)">
       <defs>
        <path id="CMR17-31" d="M 1702 4083 
C 1702 4217 1696 4224 1606 4224 
C 1357 3927 979 3833 621 3820 
C 602 3820 570 3820 563 3808 
C 557 3795 557 3782 557 3648 
C 755 3648 1088 3686 1344 3839 
L 1344 467 
C 1344 243 1331 166 781 166 
L 589 166 
L 589 0 
C 896 6 1216 12 1523 12 
C 1830 12 2150 6 2458 0 
L 2458 166 
L 2266 166 
C 1715 166 1702 236 1702 467 
L 1702 4083 
z
" transform="scale(0.015625)"/>
       </defs>
       <use xlink:href="#CMR17-31" transform="scale(0.996264)"/>
       <use xlink:href="#CMR17-30" transform="translate(45.690477 0) scale(0.996264)"/>
       <use xlink:href="#CMR17-30" transform="translate(91.380954 0) scale(0.996264)"/>
      </g>
     </g>
    </g>
    <g id="xtick_3">
     <g id="line2d_3">
      <g>
       <use xlink:href="#m564a660eb6" x="201.697239" y="232.110819" style="stroke: #000000; stroke-width: 0.8"/>
      </g>
     </g>
     <g id="text_3">
      <!-- $\mathdefault{200}$ -->
      <g transform="translate(194.225236 246.209139) scale(0.1 -0.1)">
       <defs>
        <path id="CMR17-32" d="M 2669 990 
L 2554 990 
C 2490 537 2438 460 2413 422 
C 2381 371 1920 371 1830 371 
L 602 371 
C 832 620 1280 1073 1824 1596 
C 2214 1966 2669 2400 2669 3033 
C 2669 3788 2067 4224 1395 4224 
C 691 4224 262 3603 262 3027 
C 262 2777 448 2745 525 2745 
C 589 2745 781 2783 781 3007 
C 781 3206 614 3264 525 3264 
C 486 3264 448 3257 422 3244 
C 544 3788 915 4057 1306 4057 
C 1862 4057 2227 3616 2227 3033 
C 2227 2477 1901 1998 1536 1583 
L 262 147 
L 262 0 
L 2515 0 
L 2669 990 
z
" transform="scale(0.015625)"/>
       </defs>
       <use xlink:href="#CMR17-32" transform="scale(0.996264)"/>
       <use xlink:href="#CMR17-30" transform="translate(45.690477 0) scale(0.996264)"/>
       <use xlink:href="#CMR17-30" transform="translate(91.380954 0) scale(0.996264)"/>
      </g>
     </g>
    </g>
    <g id="xtick_4">
     <g id="line2d_4">
      <g>
       <use xlink:href="#m564a660eb6" x="274.861574" y="232.110819" style="stroke: #000000; stroke-width: 0.8"/>
      </g>
     </g>
     <g id="text_4">
      <!-- $\mathdefault{300}$ -->
      <g transform="translate(267.389572 246.209139) scale(0.1 -0.1)">
       <defs>
        <path id="CMR17-33" d="M 1414 2176 
C 1984 2176 2234 1673 2234 1094 
C 2234 322 1824 25 1453 25 
C 1114 25 563 193 390 691 
C 422 678 454 678 486 678 
C 640 678 755 780 755 947 
C 755 1132 614 1216 486 1216 
C 378 1216 211 1164 211 927 
C 211 335 787 -128 1466 -128 
C 2176 -128 2720 432 2720 1087 
C 2720 1718 2208 2176 1600 2246 
C 2086 2347 2554 2776 2554 3353 
C 2554 3856 2048 4224 1472 4224 
C 890 4224 378 3862 378 3347 
C 378 3123 544 3084 627 3084 
C 762 3084 877 3167 877 3334 
C 877 3500 762 3584 627 3584 
C 602 3584 570 3584 544 3571 
C 730 3999 1235 4076 1459 4076 
C 1683 4076 2106 3966 2106 3347 
C 2106 3167 2080 2851 1862 2574 
C 1670 2329 1453 2316 1242 2297 
C 1210 2297 1062 2284 1037 2284 
C 992 2278 966 2272 966 2227 
C 966 2182 973 2176 1101 2176 
L 1414 2176 
z
" transform="scale(0.015625)"/>
       </defs>
       <use xlink:href="#CMR17-33" transform="scale(0.996264)"/>
       <use xlink:href="#CMR17-30" transform="translate(45.690477 0) scale(0.996264)"/>
       <use xlink:href="#CMR17-30" transform="translate(91.380954 0) scale(0.996264)"/>
      </g>
     </g>
    </g>
    <g id="xtick_5">
     <g id="line2d_5">
      <g>
       <use xlink:href="#m564a660eb6" x="348.02591" y="232.110819" style="stroke: #000000; stroke-width: 0.8"/>
      </g>
     </g>
     <g id="text_5">
      <!-- $\mathdefault{400}$ -->
      <g transform="translate(340.553907 246.209139) scale(0.1 -0.1)">
       <defs>
        <path id="CMR17-34" d="M 2150 4147 
C 2150 4281 2144 4288 2029 4288 
L 128 1254 
L 128 1088 
L 1779 1088 
L 1779 460 
C 1779 230 1766 166 1318 166 
L 1197 166 
L 1197 0 
C 1402 12 1747 12 1965 12 
C 2182 12 2528 12 2733 0 
L 2733 166 
L 2611 166 
C 2163 166 2150 230 2150 460 
L 2150 1088 
L 2803 1088 
L 2803 1254 
L 2150 1254 
L 2150 4147 
z
M 1798 3723 
L 1798 1254 
L 256 1254 
L 1798 3723 
z
" transform="scale(0.015625)"/>
       </defs>
       <use xlink:href="#CMR17-34" transform="scale(0.996264)"/>
       <use xlink:href="#CMR17-30" transform="translate(45.690477 0) scale(0.996264)"/>
       <use xlink:href="#CMR17-30" transform="translate(91.380954 0) scale(0.996264)"/>
      </g>
     </g>
    </g>
    <g id="text_6">
     <!-- Iteration -->
     <g transform="translate(189.603009 259.429446) scale(0.1 -0.1)">
      <defs>
       <path id="NimbusSanL-Regu-49" d="M 1242 4672 
L 640 4672 
L 640 0 
L 1242 0 
L 1242 4672 
z
" transform="scale(0.015625)"/>
       <path id="NimbusSanL-Regu-74" d="M 1626 3328 
L 1075 3328 
L 1075 4249 
L 544 4249 
L 544 3328 
L 90 3328 
L 90 2892 
L 544 2892 
L 544 402 
C 544 64 774 -128 1190 -128 
C 1318 -128 1446 -116 1626 -84 
L 1626 364 
C 1555 345 1472 339 1370 339 
C 1139 339 1075 402 1075 634 
L 1075 2892 
L 1626 2892 
L 1626 3328 
z
" transform="scale(0.015625)"/>
       <path id="NimbusSanL-Regu-65" d="M 3283 1484 
C 3283 1998 3245 2311 3149 2565 
C 2931 3123 2419 3456 1792 3456 
C 858 3456 256 2734 256 1619 
C 256 545 838 -128 1779 -128 
C 2547 -128 3078 307 3213 1018 
L 2675 1018 
C 2528 588 2227 364 1798 364 
C 1459 364 1171 514 992 787 
C 864 974 819 1161 813 1484 
L 3283 1484 
z
M 826 1920 
C 870 2552 1248 2963 1786 2963 
C 2310 2963 2714 2519 2714 1959 
C 2714 1946 2714 1933 2707 1920 
L 826 1920 
z
" transform="scale(0.015625)"/>
       <path id="NimbusSanL-Regu-72" d="M 442 3328 
L 442 0 
L 979 0 
L 979 1727 
C 979 2203 1101 2514 1357 2698 
C 1523 2819 1683 2857 2054 2863 
L 2054 3404 
C 1965 3449 1920 3456 1850 3456 
C 1504 3456 1242 3251 934 2750 
L 934 3328 
L 442 3328 
z
" transform="scale(0.015625)"/>
       <path id="NimbusSanL-Regu-61" d="M 3424 332 
C 3366 320 3341 320 3309 320 
C 3123 320 3021 415 3021 581 
L 3021 2542 
C 3021 3135 2586 3456 1760 3456 
C 1274 3456 870 3315 646 3065 
C 493 2893 429 2702 416 2370 
L 954 2370 
C 998 2778 1242 2963 1741 2963 
C 2221 2963 2490 2784 2490 2466 
L 2490 2326 
C 2490 2103 2355 2007 1933 1956 
C 1178 1861 1062 1835 858 1753 
C 467 1593 269 1294 269 861 
C 269 256 691 -128 1370 -128 
C 1792 -128 2131 19 2509 364 
C 2547 25 2714 -128 3059 -128 
C 3168 -128 3251 -116 3424 -71 
L 3424 332 
z
M 2490 1071 
C 2490 893 2438 785 2278 638 
C 2061 441 1798 339 1485 339 
C 1069 339 826 536 826 874 
C 826 1224 1062 1402 1632 1485 
C 2195 1562 2310 1587 2490 1670 
L 2490 1071 
z
" transform="scale(0.015625)"/>
       <path id="NimbusSanL-Regu-69" d="M 960 3358 
L 429 3358 
L 429 0 
L 960 0 
L 960 3358 
z
M 960 4672 
L 422 4672 
L 422 3999 
L 960 3999 
L 960 4672 
z
" transform="scale(0.015625)"/>
       <path id="NimbusSanL-Regu-6f" d="M 1741 3456 
C 800 3456 230 2784 230 1663 
C 230 543 794 -128 1747 -128 
C 2688 -128 3264 543 3264 1638 
C 3264 2791 2707 3456 1741 3456 
z
M 1747 2963 
C 2349 2963 2707 2472 2707 1644 
C 2707 861 2336 364 1747 364 
C 1152 364 787 855 787 1663 
C 787 2466 1152 2963 1747 2963 
z
" transform="scale(0.015625)"/>
       <path id="NimbusSanL-Regu-6e" d="M 448 3328 
L 448 0 
L 986 0 
L 986 1835 
C 986 2539 1344 2988 1894 2988 
C 2317 2988 2586 2732 2586 2328 
L 2586 0 
L 3117 0 
L 3117 2539 
C 3117 3097 2701 3456 2054 3456 
C 1555 3456 1235 3263 941 2796 
L 941 3328 
L 448 3328 
z
" transform="scale(0.015625)"/>
      </defs>
      <use xlink:href="#NimbusSanL-Regu-49" transform="scale(0.996264)"/>
      <use xlink:href="#NimbusSanL-Regu-74" transform="translate(27.69517 0) scale(0.996264)"/>
      <use xlink:href="#NimbusSanL-Regu-65" transform="translate(55.390339 0) scale(0.996264)"/>
      <use xlink:href="#NimbusSanL-Regu-72" transform="translate(110.782016 0) scale(0.996264)"/>
      <use xlink:href="#NimbusSanL-Regu-61" transform="translate(142.961149 0) scale(0.996264)"/>
      <use xlink:href="#NimbusSanL-Regu-74" transform="translate(198.352826 0) scale(0.996264)"/>
      <use xlink:href="#NimbusSanL-Regu-69" transform="translate(226.047996 0) scale(0.996264)"/>
      <use xlink:href="#NimbusSanL-Regu-6f" transform="translate(248.16478 0) scale(0.996264)"/>
      <use xlink:href="#NimbusSanL-Regu-6e" transform="translate(303.556457 0) scale(0.996264)"/>
     </g>
    </g>
   </g>
   <g id="matplotlib.axis_2">
    <g id="ytick_1">
     <g id="line2d_6">
      <defs>
       <path id="m076354aa96" d="M 0 0 
L -3.5 0 
" style="stroke: #000000; stroke-width: 0.8"/>
      </defs>
      <g>
       <use xlink:href="#m076354aa96" x="40.150386" y="214.337329" style="stroke: #000000; stroke-width: 0.8"/>
      </g>
     </g>
     <g id="text_7">
      <!-- $\mathdefault{−3}$ -->
      <g transform="translate(20.420307 217.886489) scale(0.1 -0.1)">
       <defs>
        <path id="CMSY10-0" d="M 4218 1472 
C 4326 1472 4442 1472 4442 1600 
C 4442 1728 4326 1728 4218 1728 
L 755 1728 
C 646 1728 531 1728 531 1600 
C 531 1472 646 1472 755 1472 
L 4218 1472 
z
" transform="scale(0.015625)"/>
       </defs>
       <use xlink:href="#CMSY10-0" transform="scale(0.996264)"/>
       <use xlink:href="#CMR17-33" transform="translate(77.487468 0) scale(0.996264)"/>
      </g>
     </g>
    </g>
    <g id="ytick_2">
     <g id="line2d_7">
      <g>
       <use xlink:href="#m076354aa96" x="40.150386" y="185.253305" style="stroke: #000000; stroke-width: 0.8"/>
      </g>
     </g>
     <g id="text_8">
      <!-- $\mathdefault{−2}$ -->
      <g transform="translate(20.420307 188.802465) scale(0.1 -0.1)">
       <use xlink:href="#CMSY10-0" transform="scale(0.996264)"/>
       <use xlink:href="#CMR17-32" transform="translate(77.487468 0) scale(0.996264)"/>
      </g>
     </g>
    </g>
    <g id="ytick_3">
     <g id="line2d_8">
      <g>
       <use xlink:href="#m076354aa96" x="40.150386" y="156.16928" style="stroke: #000000; stroke-width: 0.8"/>
      </g>
     </g>
     <g id="text_9">
      <!-- $\mathdefault{−1}$ -->
      <g transform="translate(20.420307 159.718441) scale(0.1 -0.1)">
       <use xlink:href="#CMSY10-0" transform="scale(0.996264)"/>
       <use xlink:href="#CMR17-31" transform="translate(77.487468 0) scale(0.996264)"/>
      </g>
     </g>
    </g>
    <g id="ytick_4">
     <g id="line2d_9">
      <g>
       <use xlink:href="#m076354aa96" x="40.150386" y="127.085256" style="stroke: #000000; stroke-width: 0.8"/>
      </g>
     </g>
     <g id="text_10">
      <!-- $\mathdefault{0}$ -->
      <g transform="translate(28.16905 130.634417) scale(0.1 -0.1)">
       <use xlink:href="#CMR17-30" transform="scale(0.996264)"/>
      </g>
     </g>
    </g>
    <g id="ytick_5">
     <g id="line2d_10">
      <g>
       <use xlink:href="#m076354aa96" x="40.150386" y="98.001232" style="stroke: #000000; stroke-width: 0.8"/>
      </g>
     </g>
     <g id="text_11">
      <!-- $\mathdefault{1}$ -->
      <g transform="translate(28.16905 101.550392) scale(0.1 -0.1)">
       <use xlink:href="#CMR17-31" transform="scale(0.996264)"/>
      </g>
     </g>
    </g>
    <g id="ytick_6">
     <g id="line2d_11">
      <g>
       <use xlink:href="#m076354aa96" x="40.150386" y="68.917208" style="stroke: #000000; stroke-width: 0.8"/>
      </g>
     </g>
     <g id="text_12">
      <!-- $\mathdefault{2}$ -->
      <g transform="translate(28.16905 72.466368) scale(0.1 -0.1)">
       <use xlink:href="#CMR17-32" transform="scale(0.996264)"/>
      </g>
     </g>
    </g>
    <g id="ytick_7">
     <g id="line2d_12">
      <g>
       <use xlink:href="#m076354aa96" x="40.150386" y="39.833184" style="stroke: #000000; stroke-width: 0.8"/>
      </g>
     </g>
     <g id="text_13">
      <!-- $\mathdefault{3}$ -->
      <g transform="translate(28.16905 43.382344) scale(0.1 -0.1)">
       <use xlink:href="#CMR17-33" transform="scale(0.996264)"/>
      </g>
     </g>
    </g>
    <g id="ytick_8">
     <g id="line2d_13">
      <g>
       <use xlink:href="#m076354aa96" x="40.150386" y="10.74916" style="stroke: #000000; stroke-width: 0.8"/>
      </g>
     </g>
     <g id="text_14">
      <!-- $\mathdefault{4}$ -->
      <g transform="translate(28.16905 14.29832) scale(0.1 -0.1)">
       <use xlink:href="#CMR17-34" transform="scale(0.996264)"/>
      </g>
     </g>
    </g>
    <g id="text_15">
     <!-- RMS residual - Blade_17 -->
     <g transform="translate(14.29832 175.621208) rotate(-90) scale(0.1 -0.1)">
      <defs>
       <path id="NimbusSanL-Regu-52" d="M 1190 2035 
L 2726 2035 
C 3258 2035 3494 1775 3494 1191 
L 3488 770 
C 3488 478 3539 192 3622 0 
L 4346 0 
L 4346 147 
C 4122 303 4077 471 4064 1101 
C 4058 1879 3936 2111 3430 2329 
C 3955 2585 4166 2907 4166 3432 
C 4166 4230 3661 4672 2746 4672 
L 595 4672 
L 595 0 
L 1190 0 
L 1190 2035 
z
M 1190 2560 
L 1190 4147 
L 2630 4147 
C 2963 4147 3155 4096 3302 3970 
C 3462 3837 3546 3628 3546 3350 
C 3546 2806 3264 2560 2630 2560 
L 1190 2560 
z
" transform="scale(0.015625)"/>
       <path id="NimbusSanL-Regu-4d" d="M 2995 0 
L 4307 3915 
L 4307 0 
L 4870 0 
L 4870 4672 
L 4045 4672 
L 2688 602 
L 1306 4672 
L 480 4672 
L 480 0 
L 1043 0 
L 1043 3915 
L 2368 0 
L 2995 0 
z
" transform="scale(0.015625)"/>
       <path id="NimbusSanL-Regu-53" d="M 3814 3295 
C 3808 4204 3181 4736 2106 4736 
C 1082 4736 448 4211 448 3372 
C 448 2806 749 2450 1363 2291 
L 2522 1986 
C 3110 1833 3379 1598 3379 1236 
C 3379 988 3245 733 3046 593 
C 2861 466 2566 396 2189 396 
C 1683 396 1338 517 1114 784 
C 941 988 864 1210 870 1496 
L 307 1496 
C 314 1070 397 790 582 536 
C 902 102 1440 -128 2150 -128 
C 2707 -128 3162 0 3462 230 
C 3776 479 3974 892 3974 1293 
C 3974 1865 3616 2284 2982 2456 
L 1811 2768 
C 1248 2920 1043 3098 1043 3454 
C 1043 3925 1459 4236 2086 4236 
C 2829 4236 3245 3899 3251 3295 
L 3814 3295 
z
" transform="scale(0.015625)"/>
       <path id="NimbusSanL-Regu-73" d="M 2803 2428 
C 2797 3084 2362 3456 1587 3456 
C 806 3456 301 3052 301 2434 
C 301 1912 570 1663 1363 1472 
L 1862 1351 
C 2234 1262 2381 1129 2381 887 
C 2381 574 2067 364 1600 364 
C 1312 364 1069 447 934 587 
C 851 683 813 778 781 1014 
L 218 1014 
C 243 243 678 -128 1555 -128 
C 2400 -128 2938 288 2938 931 
C 2938 1428 2656 1702 1990 1861 
L 1478 1982 
C 1043 2084 858 2224 858 2459 
C 858 2765 1133 2963 1568 2963 
C 1997 2963 2227 2778 2240 2428 
L 2803 2428 
z
" transform="scale(0.015625)"/>
       <path id="NimbusSanL-Regu-64" d="M 3168 4672 
L 2637 4672 
L 2637 2937 
C 2413 3276 2054 3456 1606 3456 
C 736 3456 166 2759 166 1695 
C 166 568 723 -128 1626 -128 
C 2086 -128 2406 44 2694 460 
L 2694 19 
L 3168 19 
L 3168 4672 
z
M 1696 2956 
C 2272 2956 2637 2447 2637 1651 
C 2637 880 2266 371 1702 371 
C 1114 371 723 887 723 1663 
C 723 2440 1114 2956 1696 2956 
z
" transform="scale(0.015625)"/>
       <path id="NimbusSanL-Regu-75" d="M 3085 19 
L 3085 3328 
L 2554 3328 
L 2554 1454 
C 2554 780 2195 339 1638 339 
C 1216 339 947 591 947 988 
L 947 3328 
L 416 3328 
L 416 780 
C 416 230 832 -128 1485 -128 
C 1978 -128 2291 44 2605 484 
L 2605 19 
L 3085 19 
z
" transform="scale(0.015625)"/>
       <path id="NimbusSanL-Regu-6c" d="M 973 4672 
L 435 4672 
L 435 0 
L 973 0 
L 973 4672 
z
" transform="scale(0.015625)"/>
       <path id="NimbusSanL-Regu-2d" d="M 1818 1996 
L 294 1996 
L 294 1536 
L 1818 1536 
L 1818 1996 
z
" transform="scale(0.015625)"/>
       <path id="NimbusSanL-Regu-42" d="M 506 0 
L 2611 0 
C 3053 0 3379 121 3629 390 
C 3859 632 3987 961 3987 1321 
C 3987 1878 3731 2214 3136 2444 
C 3558 2643 3782 2994 3782 3476 
C 3782 3821 3654 4127 3411 4345 
C 3168 4569 2848 4672 2400 4672 
L 506 4672 
L 506 0 
z
M 1101 2636 
L 1101 4147 
L 2253 4147 
C 2586 4147 2771 4101 2931 3977 
C 3098 3847 3187 3652 3187 3391 
C 3187 3138 3098 2936 2931 2806 
C 2771 2682 2586 2636 2253 2636 
L 1101 2636 
z
M 1101 524 
L 1101 2112 
L 2554 2112 
C 2842 2112 3034 2042 3174 1890 
C 3315 1745 3392 1542 3392 1315 
C 3392 1093 3315 891 3174 746 
C 3034 594 2842 524 2554 524 
L 1101 524 
z
" transform="scale(0.015625)"/>
       <path id="NimbusSanL-Regu-31" d="M 1658 3232 
L 1658 0 
L 2221 0 
L 2221 4537 
L 1850 4537 
C 1651 3840 1523 3744 653 3635 
L 653 3232 
L 1658 3232 
z
" transform="scale(0.015625)"/>
       <path id="NimbusSanL-Regu-37" d="M 3328 4544 
L 294 4544 
L 294 3987 
L 2746 3987 
C 1664 2442 1222 1493 883 0 
L 1485 0 
C 1734 1454 2304 2704 3328 4070 
L 3328 4544 
z
" transform="scale(0.015625)"/>
      </defs>
      <use xlink:href="#NimbusSanL-Regu-52" transform="scale(0.996264)"/>
      <use xlink:href="#NimbusSanL-Regu-4d" transform="translate(71.929985 0) scale(0.996264)"/>
      <use xlink:href="#NimbusSanL-Regu-53" transform="translate(154.918415 0) scale(0.996264)"/>
      <use xlink:href="#NimbusSanL-Regu-72" transform="translate(249.063616 0) scale(0.996264)"/>
      <use xlink:href="#NimbusSanL-Regu-65" transform="translate(282.238846 0) scale(0.996264)"/>
      <use xlink:href="#NimbusSanL-Regu-73" transform="translate(337.630523 0) scale(0.996264)"/>
      <use xlink:href="#NimbusSanL-Regu-69" transform="translate(387.443723 0) scale(0.996264)"/>
      <use xlink:href="#NimbusSanL-Regu-64" transform="translate(409.560507 0) scale(0.996264)"/>
      <use xlink:href="#NimbusSanL-Regu-75" transform="translate(464.952184 0) scale(0.996264)"/>
      <use xlink:href="#NimbusSanL-Regu-61" transform="translate(520.343861 0) scale(0.996264)"/>
      <use xlink:href="#NimbusSanL-Regu-6c" transform="translate(575.735538 0) scale(0.996264)"/>
      <use xlink:href="#NimbusSanL-Regu-2d" transform="translate(625.547492 0) scale(0.996264)"/>
      <use xlink:href="#NimbusSanL-Regu-42" transform="translate(686.417892 0) scale(0.996264)"/>
      <use xlink:href="#NimbusSanL-Regu-6c" transform="translate(752.867923 0) scale(0.996264)"/>
      <use xlink:href="#NimbusSanL-Regu-61" transform="translate(774.984707 0) scale(0.996264)"/>
      <use xlink:href="#NimbusSanL-Regu-64" transform="translate(830.376384 0) scale(0.996264)"/>
      <use xlink:href="#NimbusSanL-Regu-65" transform="translate(885.768061 0) scale(0.996264)"/>
      <use xlink:href="#NimbusSanL-Regu-31" transform="translate(977.025303 0) scale(0.996264)"/>
      <use xlink:href="#NimbusSanL-Regu-37" transform="translate(1032.41698 0) scale(0.996264)"/>
      <path d="M 947.137079 0 
L 977.025303 0 
L 977.025303 0.3985 
L 947.137079 0.3985 
L 947.137079 0 
z
"/>
     </g>
    </g>
   </g>
   <g id="line2d_14">
    <path d="M 55.368567 198.971847 
L 56.100211 205.968462 
L 56.831854 210.302876 
L 57.563498 215.735607 
L 58.295141 217.981971 
L 59.026784 218.000331 
L 61.221714 217.584948 
L 61.953358 217.492137 
L 62.685001 217.252518 
L 63.416644 216.78627 
L 64.148288 216.055414 
L 64.879931 215.070764 
L 67.074861 211.490734 
L 67.806505 210.803526 
L 68.538148 210.73951 
L 69.269791 211.134823 
L 70.001435 210.987136 
L 70.733078 209.70946 
L 72.196365 210.148441 
L 73.659651 211.027896 
L 74.391295 211.481025 
L 75.122938 211.74793 
L 75.854581 211.77837 
L 76.586225 211.567222 
L 77.317868 211.081301 
L 78.049512 210.31634 
L 79.512798 208.463301 
L 81.707728 206.475434 
L 82.439372 207.212502 
L 84.634302 210.11866 
L 86.097588 211.333461 
L 86.829232 211.639958 
L 87.560875 211.35773 
L 88.292519 210.748517 
L 89.024162 210.407243 
L 89.755805 210.563626 
L 90.487449 210.902801 
L 91.219092 210.907137 
L 91.950735 210.746746 
L 93.414022 209.812395 
L 94.145665 210.605446 
L 94.877309 211.602303 
L 96.340595 214.281144 
L 97.072239 215.099935 
L 97.803882 215.392712 
L 98.535525 215.475123 
L 99.267169 215.150473 
L 100.730456 213.225523 
L 101.462099 212.814576 
L 102.193742 212.699541 
L 103.657029 211.847145 
L 104.388672 211.075876 
L 105.120316 211.886565 
L 106.583602 213.804998 
L 107.315246 214.329425 
L 109.510176 215.24419 
L 110.241819 215.186134 
L 110.973463 214.685002 
L 112.436749 213.344626 
L 113.168393 212.935307 
L 113.900036 212.707009 
L 116.826609 214.883466 
L 119.753183 216.333105 
L 120.484826 216.161443 
L 121.21647 215.396043 
L 123.4114 211.908756 
L 124.143043 211.182368 
L 124.874686 211.209355 
L 126.337973 212.556911 
L 127.80126 214.376005 
L 128.532903 214.992947 
L 129.99619 215.65518 
L 130.727833 215.83775 
L 131.459477 215.504398 
L 132.19112 214.540703 
L 133.654407 212.147088 
L 134.38605 211.163613 
L 135.117693 210.476855 
L 135.849337 211.115796 
L 138.044267 213.499066 
L 140.97084 215.649542 
L 141.702484 215.898974 
L 142.434127 215.877614 
L 143.16577 215.540483 
L 143.897414 214.809389 
L 144.629057 213.771055 
L 145.3607 213.901351 
L 146.092344 214.2837 
L 147.55563 215.776076 
L 148.287274 216.498761 
L 149.018917 217.024926 
L 149.75056 217.396575 
L 150.482204 217.578185 
L 151.213847 217.424793 
L 151.945491 216.903905 
L 153.408777 215.237643 
L 154.140421 214.114973 
L 154.872064 214.286128 
L 155.603707 214.648931 
L 157.798637 216.258424 
L 158.530281 216.466649 
L 159.261924 216.449252 
L 159.993567 216.275315 
L 160.725211 215.912077 
L 161.456854 215.300777 
L 164.383428 211.969323 
L 165.115071 212.312128 
L 166.578358 213.526819 
L 167.310001 214.121575 
L 168.041644 214.462998 
L 169.504931 214.565591 
L 170.968218 214.555963 
L 171.699861 214.344314 
L 173.163148 213.475246 
L 174.626435 212.297079 
L 175.358078 212.701977 
L 177.553008 214.651368 
L 178.284651 214.832764 
L 179.747938 214.664182 
L 181.211225 214.62225 
L 182.674512 214.250174 
L 183.406155 213.933512 
L 184.137798 213.388255 
L 184.869442 213.653945 
L 185.601085 214.168057 
L 187.796015 216.214616 
L 189.259302 217.090721 
L 189.990945 217.383442 
L 190.722588 217.467584 
L 191.454232 217.148093 
L 192.185875 216.269387 
L 193.649162 213.876175 
L 194.380805 212.927709 
L 195.844092 211.697579 
L 196.575735 212.182002 
L 197.307379 213.050438 
L 198.770665 215.416259 
L 199.502309 216.279984 
L 200.965595 217.373772 
L 201.697239 217.838358 
L 202.428882 217.871958 
L 203.160525 217.238348 
L 203.892169 216.052917 
L 205.355456 213.052262 
L 206.087099 211.878418 
L 206.818742 212.217125 
L 207.550386 212.796493 
L 209.745316 215.668378 
L 210.476959 216.131688 
L 211.208602 216.105975 
L 211.940246 215.743733 
L 213.403532 214.545059 
L 214.866819 213.182892 
L 215.598463 212.389427 
L 216.330106 212.085188 
L 217.061749 211.611172 
L 217.793393 212.357884 
L 218.525036 213.312455 
L 219.988323 216.058503 
L 220.719966 217.554504 
L 221.451609 218.719079 
L 222.183253 219.103536 
L 222.914896 218.649618 
L 225.109826 216.107012 
L 226.573113 214.312838 
L 227.304756 214.695327 
L 228.0364 215.253754 
L 228.768043 216.448102 
L 230.962973 222.030819 
L 231.694616 222.019722 
L 232.42626 221.561671 
L 233.157903 220.935189 
L 233.889546 219.576603 
L 235.352833 216.138512 
L 236.084477 214.8036 
L 237.547763 213.376182 
L 239.01105 214.576756 
L 239.742693 215.725227 
L 241.20598 219.05229 
L 241.937623 220.200893 
L 242.669267 220.767013 
L 243.40091 220.638061 
L 244.132553 219.459309 
L 245.59584 215.606585 
L 247.059127 212.702267 
L 248.522414 213.754297 
L 249.254057 214.779584 
L 250.717344 218.203928 
L 251.448987 219.294049 
L 252.18063 219.420134 
L 252.912274 219.002895 
L 253.643917 218.185945 
L 254.37556 216.820979 
L 255.838847 213.801516 
L 257.302134 211.383174 
L 258.765421 212.621192 
L 259.497064 213.952228 
L 260.960351 217.749219 
L 261.691994 218.573819 
L 262.423637 218.488125 
L 263.155281 218.05692 
L 263.886924 217.215705 
L 265.350211 214.717356 
L 266.081854 213.700176 
L 266.813498 212.475683 
L 267.545141 211.005046 
L 268.276784 211.416353 
L 269.008428 212.125671 
L 269.740071 213.629357 
L 271.203358 217.799544 
L 271.935001 218.771827 
L 272.666644 218.227996 
L 274.129931 216.315966 
L 274.861574 215.213174 
L 275.593218 213.661354 
L 276.324861 212.927315 
L 277.056505 211.438094 
L 277.788148 211.548473 
L 278.519791 211.909948 
L 279.251435 212.769621 
L 280.714721 215.024634 
L 281.446365 215.343216 
L 282.178008 215.043268 
L 284.372938 212.233002 
L 285.836225 211.04303 
L 287.299512 209.057344 
L 288.031155 209.193494 
L 288.762798 209.500393 
L 290.226085 210.353814 
L 290.957728 210.65777 
L 291.689372 203.32135 
L 292.421015 209.732685 
L 293.152658 204.35137 
L 293.884302 205.066903 
L 294.615945 207.585674 
L 295.347588 205.197486 
L 296.079232 207.530663 
L 297.542519 207.397474 
L 298.274162 205.125456 
L 299.005805 207.233068 
L 301.200735 206.854318 
L 301.932379 204.706501 
L 302.664022 206.347476 
L 303.395665 206.168074 
L 304.127309 202.034663 
L 304.858952 206.423646 
L 305.590595 206.14799 
L 306.322239 206.000113 
L 307.053882 204.089242 
L 307.785525 202.636515 
L 308.517169 204.64867 
L 309.248812 204.317668 
L 309.980456 203.172982 
L 310.712099 202.346853 
L 311.443742 200.49356 
L 312.175386 195.416185 
L 312.907029 195.511312 
L 313.638672 194.985929 
L 314.370316 195.126586 
L 315.101959 195.821243 
L 318.028532 196.048665 
L 318.760176 194.901358 
L 319.491819 196.191611 
L 320.223463 195.451983 
L 320.955106 196.399815 
L 321.686749 196.458654 
L 322.418393 194.77675 
L 323.150036 196.74877 
L 323.881679 196.900448 
L 324.613323 196.931533 
L 325.344966 196.319102 
L 326.076609 196.60446 
L 326.808253 195.46351 
L 327.539896 195.504061 
L 328.271539 194.148029 
L 329.003183 194.095247 
L 329.734826 193.827158 
L 330.46647 194.146368 
L 332.6614 193.218798 
L 333.393043 192.725913 
L 334.124686 192.411069 
L 334.85633 192.225907 
L 335.587973 191.84879 
L 336.319616 191.799436 
L 337.05126 192.372962 
L 337.782903 192.454337 
L 338.514546 192.767629 
L 339.977833 192.798255 
L 340.709477 192.780496 
L 341.44112 193.189977 
L 342.172763 192.723539 
L 342.904407 192.829391 
L 343.63605 192.582689 
L 344.367693 191.11621 
L 345.099337 187.740578 
L 345.83098 185.815451 
L 348.757553 187.304471 
L 350.952484 188.164854 
L 353.147414 188.777568 
L 355.342344 189.194175 
L 356.80563 189.528689 
L 358.268917 189.8527 
L 359.00056 190.014019 
L 359.732204 189.922672 
L 359.732204 189.922672 
" clip-path="url(#p0d10b250fe)" style="fill: none; stroke: #1f77b4; stroke-width: 1.5; stroke-linecap: square"/>
   </g>
   <g id="line2d_15">
    <path d="M 55.368567 143.907861 
L 56.100211 138.32355 
L 57.563498 143.349323 
L 58.295141 143.014562 
L 59.026784 143.265952 
L 60.490071 144.050037 
L 61.221714 144.245174 
L 61.953358 144.202163 
L 62.685001 143.931782 
L 63.416644 143.362701 
L 64.148288 142.347901 
L 66.343218 137.897309 
L 67.074861 136.945666 
L 68.538148 136.078262 
L 69.269791 135.857675 
L 70.001435 135.921063 
L 70.733078 136.151497 
L 72.196365 137.187469 
L 74.391295 138.472108 
L 75.122938 139.079107 
L 75.854581 139.537393 
L 76.586225 139.58905 
L 78.049512 138.863528 
L 79.512798 137.904608 
L 80.244442 137.313583 
L 80.976085 136.413465 
L 81.707728 134.882718 
L 83.171015 136.374352 
L 85.365945 138.764054 
L 86.097588 139.214201 
L 86.829232 138.681166 
L 88.292519 136.093551 
L 89.024162 135.587956 
L 90.487449 135.638951 
L 91.219092 135.155972 
L 91.950735 134.906916 
L 93.414022 135.034995 
L 94.145665 135.921019 
L 94.877309 136.44678 
L 96.340595 137.1306 
L 97.803882 138.305313 
L 98.535525 138.549114 
L 100.730456 137.906432 
L 102.193742 138.378539 
L 102.925386 138.708015 
L 104.388672 139.891722 
L 105.851959 140.321997 
L 106.583602 140.80954 
L 107.315246 141.64646 
L 108.778532 143.625178 
L 109.510176 144.21876 
L 110.241819 144.422206 
L 110.973463 144.133966 
L 111.705106 143.242875 
L 113.168393 140.589073 
L 113.900036 139.610739 
L 115.363323 140.080778 
L 116.826609 140.849303 
L 118.289896 141.70383 
L 119.021539 141.844582 
L 119.753183 141.547514 
L 120.484826 140.806675 
L 123.4114 136.851618 
L 124.143043 136.200395 
L 124.874686 135.972646 
L 125.60633 136.600639 
L 126.337973 137.056177 
L 128.532903 138.069518 
L 129.264546 138.532271 
L 129.99619 138.796694 
L 132.19112 138.707254 
L 133.654407 139.089738 
L 134.38605 139.005473 
L 135.117693 138.536123 
L 136.58098 139.105482 
L 138.044267 139.905532 
L 139.507553 140.778857 
L 140.239197 141.004428 
L 140.97084 140.938274 
L 141.702484 140.533134 
L 142.434127 139.826448 
L 143.897414 138.100372 
L 144.629057 137.409175 
L 146.823987 138.962957 
L 149.75056 140.402885 
L 150.482204 140.366152 
L 151.945491 139.869983 
L 154.140421 139.742343 
L 157.798637 142.266456 
L 159.261924 143.466564 
L 159.993567 143.690529 
L 160.725211 143.526826 
L 162.920141 142.533748 
L 163.651784 141.992737 
L 164.383428 141.261497 
L 167.310001 141.696096 
L 168.041644 142.087552 
L 169.504931 143.121453 
L 170.236574 143.304626 
L 170.968218 143.06227 
L 171.699861 142.477884 
L 174.626435 139.596116 
L 176.089721 140.036658 
L 177.553008 140.368658 
L 178.284651 140.828025 
L 179.016295 141.430177 
L 179.747938 141.78906 
L 180.479581 141.609891 
L 181.211225 141.01375 
L 183.406155 138.679826 
L 184.137798 138.03899 
L 187.064372 139.174211 
L 189.259302 140.222438 
L 189.990945 140.13006 
L 190.722588 139.662659 
L 191.454232 138.883534 
L 193.649162 135.828758 
L 194.380805 135.618828 
L 195.112449 135.992448 
L 195.844092 136.047834 
L 197.307379 137.145856 
L 198.770665 138.069543 
L 200.233952 139.197094 
L 200.965595 139.4358 
L 201.697239 139.275665 
L 203.892169 138.130952 
L 204.623812 137.421346 
L 206.087099 135.449918 
L 208.282029 137.797941 
L 210.476959 139.536592 
L 211.208602 139.819411 
L 211.940246 139.45979 
L 214.866819 135.886117 
L 215.598463 135.317781 
L 216.330106 135.237567 
L 217.061749 134.806444 
L 219.256679 137.604118 
L 220.719966 138.957346 
L 221.451609 139.344554 
L 222.183253 139.108344 
L 224.378183 136.560152 
L 225.84147 136.001448 
L 226.573113 135.513716 
L 228.0364 137.29384 
L 228.768043 137.88772 
L 230.23133 138.556214 
L 230.962973 138.784916 
L 231.694616 138.634183 
L 232.42626 137.940236 
L 233.157903 137.079529 
L 233.889546 136.495333 
L 235.352833 135.915038 
L 236.084477 135.411387 
L 236.81612 135.109009 
L 237.547763 134.428079 
L 239.01105 136.056987 
L 239.742693 136.615988 
L 241.20598 137.308704 
L 241.937623 137.41114 
L 242.669267 137.136388 
L 244.132553 135.709351 
L 247.059127 132.821453 
L 247.79077 133.766058 
L 248.522414 134.509234 
L 249.254057 135.030376 
L 249.9857 135.3536 
L 250.717344 135.519781 
L 251.448987 135.520971 
L 252.18063 135.279253 
L 254.37556 133.6694 
L 255.838847 133.015096 
L 256.570491 132.492074 
L 257.302134 131.820989 
L 258.033777 133.030706 
L 258.765421 133.946841 
L 259.497064 134.596903 
L 260.228707 135.021244 
L 260.960351 135.26508 
L 261.691994 135.280406 
L 262.423637 134.954923 
L 263.886924 133.806665 
L 266.081854 132.477818 
L 266.813498 131.741121 
L 267.545141 130.802033 
L 268.276784 132.059497 
L 269.008428 133.035138 
L 269.740071 133.730675 
L 270.471714 134.187916 
L 271.203358 134.360858 
L 271.935001 134.371569 
L 272.666644 133.774737 
L 274.129931 132.090057 
L 274.861574 131.810857 
L 275.593218 131.399053 
L 276.324861 131.583962 
L 277.056505 131.043605 
L 278.519791 132.75387 
L 279.251435 133.430142 
L 279.983078 133.939626 
L 280.714721 134.274267 
L 281.446365 134.251173 
L 282.178008 133.974394 
L 285.104581 130.781387 
L 287.299512 128.7502 
L 288.762798 128.849698 
L 290.957728 128.717956 
L 291.689372 120.109366 
L 292.421015 127.2606 
L 293.152658 121.599465 
L 293.884302 122.505949 
L 294.615945 125.487903 
L 295.347588 122.612563 
L 296.079232 125.44815 
L 297.542519 125.278414 
L 298.274162 122.498629 
L 299.005805 125.134593 
L 301.200735 124.501687 
L 301.932379 121.848864 
L 302.664022 124.029034 
L 303.395665 123.662575 
L 304.127309 120.746655 
L 304.858952 122.904629 
L 305.590595 120.769659 
L 306.322239 122.087429 
L 307.053882 120.136579 
L 307.785525 119.687338 
L 308.517169 120.067809 
L 309.248812 119.525739 
L 309.980456 117.300896 
L 310.712099 117.852708 
L 311.443742 115.625362 
L 312.175386 111.772116 
L 312.907029 110.074753 
L 313.638672 110.05784 
L 314.370316 110.77497 
L 315.101959 112.048739 
L 317.296889 112.48612 
L 318.028532 112.561846 
L 318.760176 112.076872 
L 319.491819 112.743665 
L 320.223463 112.316187 
L 320.955106 113.010421 
L 321.686749 113.050178 
L 322.418393 112.367376 
L 323.150036 113.385772 
L 323.881679 113.604071 
L 324.613323 113.60145 
L 325.344966 113.21005 
L 326.076609 113.188206 
L 326.808253 112.293049 
L 327.539896 111.587901 
L 328.271539 109.837979 
L 329.734826 109.746014 
L 330.46647 110.047374 
L 331.198113 109.920737 
L 332.6614 109.806711 
L 333.393043 109.473625 
L 334.124686 109.294406 
L 334.85633 109.291795 
L 335.587973 108.225663 
L 336.319616 108.565416 
L 337.05126 108.566634 
L 338.514546 109.517265 
L 339.24619 109.296091 
L 339.977833 109.199573 
L 340.709477 108.792151 
L 341.44112 109.003134 
L 342.172763 108.331221 
L 343.63605 107.956239 
L 344.367693 106.574791 
L 345.099337 102.681605 
L 345.83098 100.810184 
L 349.489197 103.732538 
L 350.952484 104.734587 
L 352.41577 105.547736 
L 353.879057 106.1704 
L 355.342344 106.430981 
L 356.80563 106.620258 
L 357.537274 106.67282 
L 359.00056 106.466426 
L 359.732204 105.968646 
L 359.732204 105.968646 
" clip-path="url(#p0d10b250fe)" style="fill: none; stroke: #ff7f0e; stroke-width: 1.5; stroke-linecap: square"/>
   </g>
   <g id="line2d_16">
    <path d="M 55.368567 38.748278 
L 56.100211 46.288526 
L 56.831854 50.381994 
L 57.563498 55.9498 
L 58.295141 58.181509 
L 59.026784 58.223622 
L 62.685001 57.307982 
L 63.416644 56.694987 
L 64.148288 55.77547 
L 67.074861 51.091553 
L 67.806505 50.528558 
L 68.538148 50.409091 
L 69.269791 50.672301 
L 70.001435 50.61711 
L 70.733078 49.563076 
L 72.196365 50.283847 
L 74.391295 51.764502 
L 75.122938 51.980414 
L 75.854581 51.905115 
L 76.586225 51.576175 
L 77.317868 50.998802 
L 78.049512 50.16727 
L 79.512798 48.173712 
L 81.707728 45.877815 
L 82.439372 46.741394 
L 84.634302 50.075146 
L 85.365945 50.720971 
L 86.097588 51.202076 
L 86.829232 51.337992 
L 87.560875 50.907647 
L 88.292519 50.280915 
L 89.024162 50.049478 
L 89.755805 50.367229 
L 90.487449 50.828212 
L 91.219092 50.891867 
L 91.950735 50.823033 
L 92.682379 50.477749 
L 93.414022 49.952959 
L 94.877309 52.024032 
L 96.340595 54.664632 
L 97.072239 55.401579 
L 97.803882 55.615764 
L 98.535525 55.596641 
L 99.267169 55.182888 
L 100.730456 53.271564 
L 101.462099 52.855264 
L 102.193742 52.715649 
L 103.657029 51.922891 
L 104.388672 51.1964 
L 105.120316 52.069315 
L 106.583602 54.146058 
L 107.315246 54.774296 
L 108.778532 55.366858 
L 109.510176 55.526127 
L 110.241819 55.281926 
L 110.973463 54.622059 
L 112.436749 53.048284 
L 113.168393 52.530655 
L 113.900036 52.237931 
L 115.363323 53.745571 
L 116.826609 55.183246 
L 118.289896 56.001486 
L 119.021539 56.263458 
L 119.753183 56.277213 
L 120.484826 55.842537 
L 121.21647 54.901045 
L 123.4114 51.210152 
L 124.143043 50.438013 
L 124.874686 50.483765 
L 126.337973 52.160985 
L 127.80126 54.284906 
L 128.532903 54.988467 
L 129.264546 55.37093 
L 129.99619 55.616975 
L 130.727833 55.640148 
L 131.459477 55.09628 
L 132.922763 52.639014 
L 134.38605 50.289227 
L 135.117693 49.496485 
L 135.849337 50.224772 
L 138.044267 53.063877 
L 139.507553 54.376317 
L 140.239197 54.924452 
L 140.97084 55.302697 
L 141.702484 55.419569 
L 142.434127 55.28059 
L 143.16577 54.857776 
L 143.897414 54.081444 
L 144.629057 53.019721 
L 145.3607 53.326885 
L 146.092344 53.895099 
L 148.287274 56.578136 
L 149.018917 57.116788 
L 149.75056 57.402389 
L 150.482204 57.405281 
L 151.213847 57.015471 
L 151.945491 56.278592 
L 153.408777 54.362211 
L 154.140421 53.145824 
L 154.872064 53.453957 
L 155.603707 53.99181 
L 157.798637 56.325144 
L 158.530281 56.729114 
L 159.261924 56.810568 
L 159.993567 56.62766 
L 160.725211 56.147483 
L 161.456854 55.344996 
L 164.383428 51.286404 
L 165.115071 51.742733 
L 165.846714 52.463466 
L 167.310001 54.282905 
L 168.041644 54.878076 
L 168.773288 55.06282 
L 170.236574 54.837796 
L 170.968218 54.585518 
L 171.699861 54.159316 
L 173.894791 52.361758 
L 174.626435 51.67261 
L 175.358078 52.199766 
L 176.089721 53.012398 
L 176.821365 54.000343 
L 177.553008 54.799908 
L 178.284651 55.063846 
L 181.211225 54.534713 
L 182.674512 53.712 
L 183.406155 53.176121 
L 184.137798 52.458537 
L 184.869442 52.839335 
L 185.601085 53.458636 
L 187.796015 55.764982 
L 189.259302 56.789108 
L 189.990945 57.081205 
L 190.722588 57.090971 
L 191.454232 56.633394 
L 192.185875 55.545208 
L 193.649162 52.672223 
L 194.380805 51.691896 
L 195.844092 50.826508 
L 196.575735 51.520306 
L 197.307379 52.612945 
L 198.770665 55.412236 
L 199.502309 56.390847 
L 200.965595 57.427354 
L 201.697239 57.783333 
L 202.428882 57.689059 
L 203.160525 56.949293 
L 203.892169 55.670662 
L 205.355456 52.338251 
L 206.087099 50.974966 
L 206.818742 51.524479 
L 207.550386 52.354636 
L 209.745316 56.053746 
L 210.476959 56.561139 
L 211.208602 56.338415 
L 211.940246 55.683936 
L 214.866819 52.539554 
L 215.598463 51.773411 
L 216.330106 51.592586 
L 217.061749 51.232731 
L 217.793393 52.202246 
L 218.525036 53.372154 
L 219.988323 56.48931 
L 220.719966 58.179841 
L 221.451609 59.529274 
L 222.183253 59.928326 
L 222.914896 59.255543 
L 225.109826 56.18069 
L 226.573113 54.257539 
L 227.304756 54.775495 
L 228.0364 55.446983 
L 228.768043 56.720971 
L 230.962973 62.565391 
L 231.694616 62.591354 
L 232.42626 62.04486 
L 233.157903 61.27962 
L 233.889546 59.799856 
L 235.352833 56.084625 
L 236.084477 54.543255 
L 237.547763 52.886385 
L 239.01105 54.519459 
L 239.742693 55.859466 
L 241.20598 59.536134 
L 241.937623 60.65847 
L 242.669267 60.925289 
L 243.40091 60.30753 
L 244.132553 58.726026 
L 245.59584 54.693888 
L 247.059127 51.834885 
L 248.522414 53.347858 
L 249.254057 54.577142 
L 250.717344 58.49209 
L 251.448987 59.681569 
L 252.18063 59.567566 
L 252.912274 58.674691 
L 253.643917 57.369458 
L 255.107204 54.101663 
L 256.570491 51.66585 
L 257.302134 50.591806 
L 258.765421 52.358171 
L 259.497064 53.909328 
L 260.960351 58.24744 
L 261.691994 59.082051 
L 262.423637 58.659339 
L 263.155281 57.714672 
L 263.886924 56.397101 
L 264.618567 54.821288 
L 265.350211 53.539912 
L 266.081854 52.497149 
L 266.813498 51.206011 
L 267.545141 49.56873 
L 269.008428 51.310282 
L 269.740071 52.920137 
L 271.203358 57.018544 
L 271.935001 57.844205 
L 272.666644 56.818992 
L 274.129931 54.117789 
L 274.861574 53.408003 
L 275.593218 52.159336 
L 276.324861 51.722743 
L 277.056505 50.042735 
L 277.788148 50.55385 
L 278.519791 51.28182 
L 279.251435 52.537057 
L 280.714721 55.7543 
L 281.446365 56.172003 
L 282.178008 55.52975 
L 284.372938 51.020923 
L 285.104581 49.744015 
L 287.299512 46.855227 
L 288.031155 47.128631 
L 290.957728 48.60825 
L 291.689372 37.261048 
L 292.421015 47.105317 
L 293.152658 39.150143 
L 293.884302 40.460948 
L 294.615945 44.950814 
L 295.347588 40.67483 
L 296.079232 44.960208 
L 297.542519 44.840838 
L 298.274162 40.734113 
L 299.005805 44.790436 
L 301.200735 44.290066 
L 301.932379 40.422191 
L 302.664022 43.973883 
L 303.395665 43.662656 
L 304.127309 41.272438 
L 304.858952 42.90176 
L 305.590595 35.205778 
L 306.322239 42.107921 
L 307.053882 39.562638 
L 307.785525 39.911948 
L 308.517169 39.892929 
L 309.248812 39.084823 
L 309.980456 30.145566 
L 310.712099 37.24464 
L 311.443742 30.140557 
L 312.175386 29.264519 
L 312.907029 30.375285 
L 313.638672 28.211508 
L 315.101959 30.96437 
L 318.028532 31.288127 
L 318.760176 30.075008 
L 319.491819 31.538988 
L 320.223463 30.285858 
L 320.955106 31.969609 
L 321.686749 31.285736 
L 323.150036 31.899441 
L 323.881679 33.013254 
L 324.613323 32.448919 
L 325.344966 32.77895 
L 326.808253 32.308648 
L 327.539896 31.390837 
L 328.271539 27.942657 
L 329.003183 29.621848 
L 329.734826 29.895795 
L 330.46647 29.821834 
L 331.198113 27.527411 
L 331.929756 29.014334 
L 332.6614 29.859936 
L 334.124686 28.989041 
L 334.85633 28.748388 
L 335.587973 23.233163 
L 336.319616 27.386396 
L 337.05126 23.720215 
L 337.782903 27.837232 
L 338.514546 28.543034 
L 339.24619 28.693308 
L 339.977833 28.43296 
L 340.709477 27.867966 
L 341.44112 28.23464 
L 342.172763 28.061218 
L 342.904407 28.162079 
L 343.63605 28.113003 
L 344.367693 26.536193 
L 345.099337 22.591138 
L 345.83098 20.430819 
L 348.757553 22.402959 
L 350.952484 23.640635 
L 353.147414 24.602737 
L 354.6107 25.074319 
L 356.80563 25.683086 
L 357.537274 25.909058 
L 359.00056 26.140252 
L 359.732204 25.939644 
L 359.732204 25.939644 
" clip-path="url(#p0d10b250fe)" style="fill: none; stroke: #2ca02c; stroke-width: 1.5; stroke-linecap: square"/>
   </g>
   <g id="patch_3">
    <path d="M 40.150386 232.110819 
L 40.150386 10.350819 
" style="fill: none; stroke: #000000; stroke-width: 0.8; stroke-linejoin: miter; stroke-linecap: square"/>
   </g>
   <g id="patch_4">
    <path d="M 374.950386 232.110819 
L 374.950386 10.350819 
" style="fill: none; stroke: #000000; stroke-width: 0.8; stroke-linejoin: miter; stroke-linecap: square"/>
   </g>
   <g id="patch_5">
    <path d="M 40.150386 232.110819 
L 374.950386 232.110819 
" style="fill: none; stroke: #000000; stroke-width: 0.8; stroke-linejoin: miter; stroke-linecap: square"/>
   </g>
   <g id="patch_6">
    <path d="M 40.150386 10.350819 
L 374.950386 10.350819 
" style="fill: none; stroke: #000000; stroke-width: 0.8; stroke-linejoin: miter; stroke-linecap: square"/>
   </g>
   <g id="legend_1">
    <g id="patch_7">
     <path d="M 47.150386 144.061279 
L 91.655585 144.061279 
Q 93.655585 144.061279 93.655585 142.061279 
L 93.655585 100.400359 
Q 93.655585 98.400359 91.655585 98.400359 
L 47.150386 98.400359 
Q 45.150386 98.400359 45.150386 100.400359 
L 45.150386 142.061279 
Q 45.150386 144.061279 47.150386 144.061279 
z
" style="fill: #ffffff; opacity: 0.8; stroke: #cccccc; stroke-linejoin: miter"/>
    </g>
    <g id="line2d_17">
     <path d="M 49.150386 105.998679 
L 59.150386 105.998679 
L 69.150386 105.998679 
" style="fill: none; stroke: #1f77b4; stroke-width: 1.5; stroke-linecap: square"/>
    </g>
    <g id="text_16">
     <!-- $\rho$ -->
     <g transform="translate(77.150386 109.498679) scale(0.1 -0.1)">
      <defs>
       <path id="CMMI12-1a" d="M 198 -1085 
C 192 -1116 179 -1154 179 -1191 
C 179 -1287 256 -1351 352 -1351 
C 448 -1351 538 -1287 576 -1198 
C 602 -1141 781 -390 986 389 
C 1114 70 1350 -64 1600 -64 
C 2323 -64 3142 830 3142 1794 
C 3142 2477 2726 2816 2285 2816 
C 1722 2816 1037 2234 826 1385 
L 198 -1085 
z
M 1594 64 
C 1158 64 1050 568 1050 645 
C 1050 683 1210 1289 1229 1385 
C 1555 2656 2182 2687 2278 2687 
C 2566 2687 2726 2426 2726 2049 
C 2726 1724 2554 1091 2445 823 
C 2253 383 1920 64 1594 64 
z
" transform="scale(0.015625)"/>
      </defs>
      <use xlink:href="#CMMI12-1a" transform="scale(0.996264)"/>
     </g>
    </g>
    <g id="line2d_18">
     <path d="M 49.150386 120.218986 
L 59.150386 120.218986 
L 69.150386 120.218986 
" style="fill: none; stroke: #ff7f0e; stroke-width: 1.5; stroke-linecap: square"/>
    </g>
    <g id="text_17">
     <!-- $\rho u$ -->
     <g transform="translate(77.150386 123.718986) scale(0.1 -0.1)">
      <defs>
       <path id="CMMI12-75" d="M 2182 370 
C 2266 12 2573 -64 2726 -64 
C 2931 -64 3085 70 3187 287 
C 3296 517 3379 893 3379 913 
C 3379 944 3354 970 3315 970 
C 3258 970 3251 938 3226 842 
C 3110 402 2995 64 2739 64 
C 2547 64 2547 274 2547 357 
C 2547 504 2566 568 2630 836 
C 2675 1008 2720 1181 2758 1359 
L 3021 2400 
C 3066 2560 3066 2572 3066 2591 
C 3066 2687 2989 2752 2893 2752 
C 2707 2752 2662 2591 2624 2432 
C 2560 2183 2214 810 2170 587 
C 2163 587 1914 64 1446 64 
C 1114 64 1050 351 1050 587 
C 1050 951 1229 1462 1395 1890 
C 1472 2094 1504 2177 1504 2305 
C 1504 2579 1306 2816 998 2816 
C 410 2816 173 1890 173 1838 
C 173 1813 198 1781 243 1781 
C 301 1781 307 1807 333 1896 
C 486 2445 736 2687 979 2687 
C 1043 2687 1146 2681 1146 2477 
C 1146 2311 1075 2126 979 1883 
C 698 1123 666 881 666 689 
C 666 38 1158 -64 1421 -64 
C 1830 -64 2054 217 2182 370 
z
" transform="scale(0.015625)"/>
      </defs>
      <use xlink:href="#CMMI12-1a" transform="scale(0.996264)"/>
      <use xlink:href="#CMMI12-75" transform="translate(50.314373 0) scale(0.996264)"/>
     </g>
    </g>
    <g id="line2d_19">
     <path d="M 49.150386 134.439293 
L 59.150386 134.439293 
L 69.150386 134.439293 
" style="fill: none; stroke: #2ca02c; stroke-width: 1.5; stroke-linecap: square"/>
    </g>
    <g id="text_18">
     <!-- $\rho E$ -->
     <g transform="translate(77.150386 137.939293) scale(0.1 -0.1)">
      <defs>
       <path id="CMMI12-45" d="M 4448 1489 
C 4454 1508 4474 1553 4474 1578 
C 4474 1611 4448 1643 4410 1643 
C 4384 1643 4371 1636 4352 1617 
C 4339 1611 4339 1598 4282 1469 
C 3904 570 3629 185 2605 185 
L 1670 185 
C 1581 185 1568 185 1530 192 
C 1459 198 1453 211 1453 262 
C 1453 307 1466 346 1478 403 
L 1920 2176 
L 2554 2176 
C 3053 2176 3091 2066 3091 1874 
C 3091 1810 3091 1752 3046 1559 
C 3034 1534 3027 1508 3027 1489 
C 3027 1444 3059 1424 3098 1424 
C 3155 1424 3162 1469 3187 1559 
L 3552 3036 
C 3552 3068 3526 3099 3488 3099 
C 3430 3099 3424 3074 3398 2986 
C 3270 2500 3142 2361 2573 2361 
L 1965 2361 
L 2362 3913 
C 2419 4134 2432 4153 2694 4153 
L 3610 4153 
C 4397 4153 4557 3945 4557 3465 
C 4557 3459 4557 3282 4531 3074 
C 4525 3049 4518 3011 4518 2998 
C 4518 2948 4550 2929 4589 2929 
C 4634 2929 4659 2954 4672 3068 
L 4806 4172 
C 4806 4191 4819 4255 4819 4268 
C 4819 4339 4762 4339 4646 4339 
L 1523 4339 
C 1402 4339 1338 4339 1338 4223 
C 1338 4153 1382 4153 1491 4153 
C 1888 4153 1888 4109 1888 4039 
C 1888 4008 1882 3983 1862 3913 
L 998 474 
C 941 249 928 185 480 185 
C 358 185 294 185 294 70 
C 294 0 333 0 461 0 
L 3674 0 
C 3814 0 3821 6 3866 108 
L 4448 1489 
z
" transform="scale(0.015625)"/>
      </defs>
      <use xlink:href="#CMMI12-1a" transform="scale(0.996264)"/>
      <use xlink:href="#CMMI12-45" transform="translate(50.314373 0) scale(0.996264)"/>
     </g>
    </g>
   </g>
  </g>
 </g>
 <defs>
  <clipPath id="p0d10b250fe">
   <rect x="40.150386" y="10.350819" width="334.8" height="221.76"/>
  </clipPath>
 </defs>
</svg>
