<?xml version="1.0" encoding="utf-8" standalone="no"?>
<!DOCTYPE svg PUBLIC "-//W3C//DTD SVG 1.1//EN"
  "http://www.w3.org/Graphics/SVG/1.1/DTD/svg11.dtd">
<svg xmlns:xlink="http://www.w3.org/1999/xlink" width="382.334753pt" height="266.750974pt" viewBox="0 0 382.334753 266.750974" xmlns="http://www.w3.org/2000/svg" version="1.1">
 <metadata>
  <rdf:RDF xmlns:dc="http://purl.org/dc/elements/1.1/" xmlns:cc="http://creativecommons.org/ns#" xmlns:rdf="http://www.w3.org/1999/02/22-rdf-syntax-ns#">
   <cc:Work>
    <dc:type rdf:resource="http://purl.org/dc/dcmitype/StillImage"/>
    <dc:date>2025-07-17T21:38:37.003698</dc:date>
    <dc:format>image/svg+xml</dc:format>
    <dc:creator>
     <cc:Agent>
      <dc:title>Matplotlib v3.10.3, https://matplotlib.org/</dc:title>
     </cc:Agent>
    </dc:creator>
   </cc:Work>
  </rdf:RDF>
 </metadata>
 <defs>
  <style type="text/css">*{stroke-linejoin: round; stroke-linecap: butt}</style>
 </defs>
 <g id="figure_1">
  <g id="patch_1">
   <path d="M 0 266.750974 
L 382.334753 266.750974 
L 382.334753 0 
L 0 0 
z
" style="fill: #ffffff"/>
  </g>
  <g id="axes_1">
   <g id="patch_2">
    <path d="M 40.334753 230.110361 
L 375.134753 230.110361 
L 375.134753 8.350361 
L 40.334753 8.350361 
z
" style="fill: #ffffff"/>
   </g>
   <g id="matplotlib.axis_1">
    <g id="xtick_1">
     <g id="line2d_1">
      <defs>
       <path id="m554e3767d2" d="M 0 0 
L 0 3.5 
" style="stroke: #000000; stroke-width: 0.8"/>
      </defs>
      <g>
       <use xlink:href="#m554e3767d2" x="55.552935" y="230.110361" style="stroke: #000000; stroke-width: 0.8"/>
      </g>
     </g>
     <g id="text_1">
      <!-- $\mathdefault{0}$ -->
      <g transform="translate(53.062267 244.208681) scale(0.1 -0.1)">
       <defs>
        <path id="CMR17-30" d="M 2688 2038 
C 2688 2430 2682 3099 2413 3613 
C 2176 4063 1798 4224 1466 4224 
C 1158 4224 768 4082 525 3620 
C 269 3137 243 2539 243 2038 
C 243 1671 250 1112 448 623 
C 723 -39 1216 -128 1466 -128 
C 1760 -128 2208 -7 2470 604 
C 2662 1048 2688 1568 2688 2038 
z
M 1466 -26 
C 1056 -26 813 328 723 816 
C 653 1196 653 1749 653 2109 
C 653 2604 653 3015 736 3407 
C 858 3954 1216 4121 1466 4121 
C 1728 4121 2067 3947 2189 3420 
C 2272 3054 2278 2623 2278 2109 
C 2278 1691 2278 1176 2202 797 
C 2067 96 1690 -26 1466 -26 
z
" transform="scale(0.015625)"/>
       </defs>
       <use xlink:href="#CMR17-30" transform="scale(0.996264)"/>
      </g>
     </g>
    </g>
    <g id="xtick_2">
     <g id="line2d_2">
      <g>
       <use xlink:href="#m554e3767d2" x="126.138194" y="230.110361" style="stroke: #000000; stroke-width: 0.8"/>
      </g>
     </g>
     <g id="text_2">
      <!-- $\mathdefault{1000}$ -->
      <g transform="translate(116.175523 244.208681) scale(0.1 -0.1)">
       <defs>
        <path id="CMR17-31" d="M 1702 4083 
C 1702 4217 1696 4224 1606 4224 
C 1357 3927 979 3833 621 3820 
C 602 3820 570 3820 563 3808 
C 557 3795 557 3782 557 3648 
C 755 3648 1088 3686 1344 3839 
L 1344 467 
C 1344 243 1331 166 781 166 
L 589 166 
L 589 0 
C 896 6 1216 12 1523 12 
C 1830 12 2150 6 2458 0 
L 2458 166 
L 2266 166 
C 1715 166 1702 236 1702 467 
L 1702 4083 
z
" transform="scale(0.015625)"/>
       </defs>
       <use xlink:href="#CMR17-31" transform="scale(0.996264)"/>
       <use xlink:href="#CMR17-30" transform="translate(45.690477 0) scale(0.996264)"/>
       <use xlink:href="#CMR17-30" transform="translate(91.380954 0) scale(0.996264)"/>
       <use xlink:href="#CMR17-30" transform="translate(137.071431 0) scale(0.996264)"/>
      </g>
     </g>
    </g>
    <g id="xtick_3">
     <g id="line2d_3">
      <g>
       <use xlink:href="#m554e3767d2" x="196.723452" y="230.110361" style="stroke: #000000; stroke-width: 0.8"/>
      </g>
     </g>
     <g id="text_3">
      <!-- $\mathdefault{2000}$ -->
      <g transform="translate(186.760782 244.208681) scale(0.1 -0.1)">
       <defs>
        <path id="CMR17-32" d="M 2669 990 
L 2554 990 
C 2490 537 2438 460 2413 422 
C 2381 371 1920 371 1830 371 
L 602 371 
C 832 620 1280 1073 1824 1596 
C 2214 1966 2669 2400 2669 3033 
C 2669 3788 2067 4224 1395 4224 
C 691 4224 262 3603 262 3027 
C 262 2777 448 2745 525 2745 
C 589 2745 781 2783 781 3007 
C 781 3206 614 3264 525 3264 
C 486 3264 448 3257 422 3244 
C 544 3788 915 4057 1306 4057 
C 1862 4057 2227 3616 2227 3033 
C 2227 2477 1901 1998 1536 1583 
L 262 147 
L 262 0 
L 2515 0 
L 2669 990 
z
" transform="scale(0.015625)"/>
       </defs>
       <use xlink:href="#CMR17-32" transform="scale(0.996264)"/>
       <use xlink:href="#CMR17-30" transform="translate(45.690477 0) scale(0.996264)"/>
       <use xlink:href="#CMR17-30" transform="translate(91.380954 0) scale(0.996264)"/>
       <use xlink:href="#CMR17-30" transform="translate(137.071431 0) scale(0.996264)"/>
      </g>
     </g>
    </g>
    <g id="xtick_4">
     <g id="line2d_4">
      <g>
       <use xlink:href="#m554e3767d2" x="267.308711" y="230.110361" style="stroke: #000000; stroke-width: 0.8"/>
      </g>
     </g>
     <g id="text_4">
      <!-- $\mathdefault{3000}$ -->
      <g transform="translate(257.346041 244.208681) scale(0.1 -0.1)">
       <defs>
        <path id="CMR17-33" d="M 1414 2176 
C 1984 2176 2234 1673 2234 1094 
C 2234 322 1824 25 1453 25 
C 1114 25 563 193 390 691 
C 422 678 454 678 486 678 
C 640 678 755 780 755 947 
C 755 1132 614 1216 486 1216 
C 378 1216 211 1164 211 927 
C 211 335 787 -128 1466 -128 
C 2176 -128 2720 432 2720 1087 
C 2720 1718 2208 2176 1600 2246 
C 2086 2347 2554 2776 2554 3353 
C 2554 3856 2048 4224 1472 4224 
C 890 4224 378 3862 378 3347 
C 378 3123 544 3084 627 3084 
C 762 3084 877 3167 877 3334 
C 877 3500 762 3584 627 3584 
C 602 3584 570 3584 544 3571 
C 730 3999 1235 4076 1459 4076 
C 1683 4076 2106 3966 2106 3347 
C 2106 3167 2080 2851 1862 2574 
C 1670 2329 1453 2316 1242 2297 
C 1210 2297 1062 2284 1037 2284 
C 992 2278 966 2272 966 2227 
C 966 2182 973 2176 1101 2176 
L 1414 2176 
z
" transform="scale(0.015625)"/>
       </defs>
       <use xlink:href="#CMR17-33" transform="scale(0.996264)"/>
       <use xlink:href="#CMR17-30" transform="translate(45.690477 0) scale(0.996264)"/>
       <use xlink:href="#CMR17-30" transform="translate(91.380954 0) scale(0.996264)"/>
       <use xlink:href="#CMR17-30" transform="translate(137.071431 0) scale(0.996264)"/>
      </g>
     </g>
    </g>
    <g id="xtick_5">
     <g id="line2d_5">
      <g>
       <use xlink:href="#m554e3767d2" x="337.89397" y="230.110361" style="stroke: #000000; stroke-width: 0.8"/>
      </g>
     </g>
     <g id="text_5">
      <!-- $\mathdefault{4000}$ -->
      <g transform="translate(327.9313 244.208681) scale(0.1 -0.1)">
       <defs>
        <path id="CMR17-34" d="M 2150 4147 
C 2150 4281 2144 4288 2029 4288 
L 128 1254 
L 128 1088 
L 1779 1088 
L 1779 460 
C 1779 230 1766 166 1318 166 
L 1197 166 
L 1197 0 
C 1402 12 1747 12 1965 12 
C 2182 12 2528 12 2733 0 
L 2733 166 
L 2611 166 
C 2163 166 2150 230 2150 460 
L 2150 1088 
L 2803 1088 
L 2803 1254 
L 2150 1254 
L 2150 4147 
z
M 1798 3723 
L 1798 1254 
L 256 1254 
L 1798 3723 
z
" transform="scale(0.015625)"/>
       </defs>
       <use xlink:href="#CMR17-34" transform="scale(0.996264)"/>
       <use xlink:href="#CMR17-30" transform="translate(45.690477 0) scale(0.996264)"/>
       <use xlink:href="#CMR17-30" transform="translate(91.380954 0) scale(0.996264)"/>
       <use xlink:href="#CMR17-30" transform="translate(137.071431 0) scale(0.996264)"/>
      </g>
     </g>
    </g>
    <g id="text_6">
     <!-- Iteration -->
     <g transform="translate(189.787377 257.428988) scale(0.1 -0.1)">
      <defs>
       <path id="NimbusSanL-Regu-49" d="M 1242 4672 
L 640 4672 
L 640 0 
L 1242 0 
L 1242 4672 
z
" transform="scale(0.015625)"/>
       <path id="NimbusSanL-Regu-74" d="M 1626 3328 
L 1075 3328 
L 1075 4249 
L 544 4249 
L 544 3328 
L 90 3328 
L 90 2892 
L 544 2892 
L 544 402 
C 544 64 774 -128 1190 -128 
C 1318 -128 1446 -116 1626 -84 
L 1626 364 
C 1555 345 1472 339 1370 339 
C 1139 339 1075 402 1075 634 
L 1075 2892 
L 1626 2892 
L 1626 3328 
z
" transform="scale(0.015625)"/>
       <path id="NimbusSanL-Regu-65" d="M 3283 1484 
C 3283 1998 3245 2311 3149 2565 
C 2931 3123 2419 3456 1792 3456 
C 858 3456 256 2734 256 1619 
C 256 545 838 -128 1779 -128 
C 2547 -128 3078 307 3213 1018 
L 2675 1018 
C 2528 588 2227 364 1798 364 
C 1459 364 1171 514 992 787 
C 864 974 819 1161 813 1484 
L 3283 1484 
z
M 826 1920 
C 870 2552 1248 2963 1786 2963 
C 2310 2963 2714 2519 2714 1959 
C 2714 1946 2714 1933 2707 1920 
L 826 1920 
z
" transform="scale(0.015625)"/>
       <path id="NimbusSanL-Regu-72" d="M 442 3328 
L 442 0 
L 979 0 
L 979 1727 
C 979 2203 1101 2514 1357 2698 
C 1523 2819 1683 2857 2054 2863 
L 2054 3404 
C 1965 3449 1920 3456 1850 3456 
C 1504 3456 1242 3251 934 2750 
L 934 3328 
L 442 3328 
z
" transform="scale(0.015625)"/>
       <path id="NimbusSanL-Regu-61" d="M 3424 332 
C 3366 320 3341 320 3309 320 
C 3123 320 3021 415 3021 581 
L 3021 2542 
C 3021 3135 2586 3456 1760 3456 
C 1274 3456 870 3315 646 3065 
C 493 2893 429 2702 416 2370 
L 954 2370 
C 998 2778 1242 2963 1741 2963 
C 2221 2963 2490 2784 2490 2466 
L 2490 2326 
C 2490 2103 2355 2007 1933 1956 
C 1178 1861 1062 1835 858 1753 
C 467 1593 269 1294 269 861 
C 269 256 691 -128 1370 -128 
C 1792 -128 2131 19 2509 364 
C 2547 25 2714 -128 3059 -128 
C 3168 -128 3251 -116 3424 -71 
L 3424 332 
z
M 2490 1071 
C 2490 893 2438 785 2278 638 
C 2061 441 1798 339 1485 339 
C 1069 339 826 536 826 874 
C 826 1224 1062 1402 1632 1485 
C 2195 1562 2310 1587 2490 1670 
L 2490 1071 
z
" transform="scale(0.015625)"/>
       <path id="NimbusSanL-Regu-69" d="M 960 3358 
L 429 3358 
L 429 0 
L 960 0 
L 960 3358 
z
M 960 4672 
L 422 4672 
L 422 3999 
L 960 3999 
L 960 4672 
z
" transform="scale(0.015625)"/>
       <path id="NimbusSanL-Regu-6f" d="M 1741 3456 
C 800 3456 230 2784 230 1663 
C 230 543 794 -128 1747 -128 
C 2688 -128 3264 543 3264 1638 
C 3264 2791 2707 3456 1741 3456 
z
M 1747 2963 
C 2349 2963 2707 2472 2707 1644 
C 2707 861 2336 364 1747 364 
C 1152 364 787 855 787 1663 
C 787 2466 1152 2963 1747 2963 
z
" transform="scale(0.015625)"/>
       <path id="NimbusSanL-Regu-6e" d="M 448 3328 
L 448 0 
L 986 0 
L 986 1835 
C 986 2539 1344 2988 1894 2988 
C 2317 2988 2586 2732 2586 2328 
L 2586 0 
L 3117 0 
L 3117 2539 
C 3117 3097 2701 3456 2054 3456 
C 1555 3456 1235 3263 941 2796 
L 941 3328 
L 448 3328 
z
" transform="scale(0.015625)"/>
      </defs>
      <use xlink:href="#NimbusSanL-Regu-49" transform="scale(0.996264)"/>
      <use xlink:href="#NimbusSanL-Regu-74" transform="translate(27.69517 0) scale(0.996264)"/>
      <use xlink:href="#NimbusSanL-Regu-65" transform="translate(55.390339 0) scale(0.996264)"/>
      <use xlink:href="#NimbusSanL-Regu-72" transform="translate(110.782016 0) scale(0.996264)"/>
      <use xlink:href="#NimbusSanL-Regu-61" transform="translate(142.961149 0) scale(0.996264)"/>
      <use xlink:href="#NimbusSanL-Regu-74" transform="translate(198.352826 0) scale(0.996264)"/>
      <use xlink:href="#NimbusSanL-Regu-69" transform="translate(226.047996 0) scale(0.996264)"/>
      <use xlink:href="#NimbusSanL-Regu-6f" transform="translate(248.16478 0) scale(0.996264)"/>
      <use xlink:href="#NimbusSanL-Regu-6e" transform="translate(303.556457 0) scale(0.996264)"/>
     </g>
    </g>
   </g>
   <g id="matplotlib.axis_2">
    <g id="ytick_1">
     <g id="line2d_6">
      <defs>
       <path id="m11201d9856" d="M 0 0 
L -3.5 0 
" style="stroke: #000000; stroke-width: 0.8"/>
      </defs>
      <g>
       <use xlink:href="#m11201d9856" x="40.334753" y="221.26272" style="stroke: #000000; stroke-width: 0.8"/>
      </g>
     </g>
     <g id="text_7">
      <!-- $\mathdefault{−3}$ -->
      <g transform="translate(20.604674 224.811881) scale(0.1 -0.1)">
       <defs>
        <path id="CMSY10-0" d="M 4218 1472 
C 4326 1472 4442 1472 4442 1600 
C 4442 1728 4326 1728 4218 1728 
L 755 1728 
C 646 1728 531 1728 531 1600 
C 531 1472 646 1472 755 1472 
L 4218 1472 
z
" transform="scale(0.015625)"/>
       </defs>
       <use xlink:href="#CMSY10-0" transform="scale(0.996264)"/>
       <use xlink:href="#CMR17-33" transform="translate(77.487468 0) scale(0.996264)"/>
      </g>
     </g>
    </g>
    <g id="ytick_2">
     <g id="line2d_7">
      <g>
       <use xlink:href="#m11201d9856" x="40.334753" y="194.948525" style="stroke: #000000; stroke-width: 0.8"/>
      </g>
     </g>
     <g id="text_8">
      <!-- $\mathdefault{−2}$ -->
      <g transform="translate(20.604674 198.497686) scale(0.1 -0.1)">
       <use xlink:href="#CMSY10-0" transform="scale(0.996264)"/>
       <use xlink:href="#CMR17-32" transform="translate(77.487468 0) scale(0.996264)"/>
      </g>
     </g>
    </g>
    <g id="ytick_3">
     <g id="line2d_8">
      <g>
       <use xlink:href="#m11201d9856" x="40.334753" y="168.63433" style="stroke: #000000; stroke-width: 0.8"/>
      </g>
     </g>
     <g id="text_9">
      <!-- $\mathdefault{−1}$ -->
      <g transform="translate(20.604674 172.183491) scale(0.1 -0.1)">
       <use xlink:href="#CMSY10-0" transform="scale(0.996264)"/>
       <use xlink:href="#CMR17-31" transform="translate(77.487468 0) scale(0.996264)"/>
      </g>
     </g>
    </g>
    <g id="ytick_4">
     <g id="line2d_9">
      <g>
       <use xlink:href="#m11201d9856" x="40.334753" y="142.320135" style="stroke: #000000; stroke-width: 0.8"/>
      </g>
     </g>
     <g id="text_10">
      <!-- $\mathdefault{0}$ -->
      <g transform="translate(28.353418 145.869295) scale(0.1 -0.1)">
       <use xlink:href="#CMR17-30" transform="scale(0.996264)"/>
      </g>
     </g>
    </g>
    <g id="ytick_5">
     <g id="line2d_10">
      <g>
       <use xlink:href="#m11201d9856" x="40.334753" y="116.00594" style="stroke: #000000; stroke-width: 0.8"/>
      </g>
     </g>
     <g id="text_11">
      <!-- $\mathdefault{1}$ -->
      <g transform="translate(28.353418 119.5551) scale(0.1 -0.1)">
       <use xlink:href="#CMR17-31" transform="scale(0.996264)"/>
      </g>
     </g>
    </g>
    <g id="ytick_6">
     <g id="line2d_11">
      <g>
       <use xlink:href="#m11201d9856" x="40.334753" y="89.691745" style="stroke: #000000; stroke-width: 0.8"/>
      </g>
     </g>
     <g id="text_12">
      <!-- $\mathdefault{2}$ -->
      <g transform="translate(28.353418 93.240905) scale(0.1 -0.1)">
       <use xlink:href="#CMR17-32" transform="scale(0.996264)"/>
      </g>
     </g>
    </g>
    <g id="ytick_7">
     <g id="line2d_12">
      <g>
       <use xlink:href="#m11201d9856" x="40.334753" y="63.37755" style="stroke: #000000; stroke-width: 0.8"/>
      </g>
     </g>
     <g id="text_13">
      <!-- $\mathdefault{3}$ -->
      <g transform="translate(28.353418 66.92671) scale(0.1 -0.1)">
       <use xlink:href="#CMR17-33" transform="scale(0.996264)"/>
      </g>
     </g>
    </g>
    <g id="ytick_8">
     <g id="line2d_13">
      <g>
       <use xlink:href="#m11201d9856" x="40.334753" y="37.063355" style="stroke: #000000; stroke-width: 0.8"/>
      </g>
     </g>
     <g id="text_14">
      <!-- $\mathdefault{4}$ -->
      <g transform="translate(28.353418 40.612515) scale(0.1 -0.1)">
       <use xlink:href="#CMR17-34" transform="scale(0.996264)"/>
      </g>
     </g>
    </g>
    <g id="ytick_9">
     <g id="line2d_14">
      <g>
       <use xlink:href="#m11201d9856" x="40.334753" y="10.74916" style="stroke: #000000; stroke-width: 0.8"/>
      </g>
     </g>
     <g id="text_15">
      <!-- $\mathdefault{5}$ -->
      <g transform="translate(28.353418 14.29832) scale(0.1 -0.1)">
       <defs>
        <path id="CMR17-35" d="M 730 3750 
C 794 3724 1056 3641 1325 3641 
C 1920 3641 2246 3961 2432 4140 
C 2432 4191 2432 4224 2394 4224 
C 2387 4224 2374 4224 2323 4198 
C 2099 4102 1837 4032 1517 4032 
C 1325 4032 1037 4055 723 4191 
C 653 4224 640 4224 634 4224 
C 602 4224 595 4217 595 4090 
L 595 2231 
C 595 2113 595 2080 659 2080 
C 691 2080 704 2093 736 2139 
C 941 2435 1222 2560 1542 2560 
C 1766 2560 2246 2415 2246 1293 
C 2246 1087 2246 716 2054 422 
C 1894 159 1645 25 1370 25 
C 947 25 518 319 403 812 
C 429 806 480 793 506 793 
C 589 793 749 838 749 1036 
C 749 1209 627 1280 506 1280 
C 358 1280 262 1190 262 1011 
C 262 454 704 -128 1382 -128 
C 2042 -128 2669 441 2669 1267 
C 2669 2054 2170 2662 1549 2662 
C 1222 2662 947 2540 730 2304 
L 730 3750 
z
" transform="scale(0.015625)"/>
       </defs>
       <use xlink:href="#CMR17-35" transform="scale(0.996264)"/>
      </g>
     </g>
    </g>
    <g id="text_16">
     <!-- Aerodynamic Coefficients - Blade_20 -->
     <g transform="translate(14.482687 200.200808) rotate(-90) scale(0.1 -0.1)">
      <defs>
       <path id="NimbusSanL-Regu-41" d="M 3034 1408 
L 3514 0 
L 4179 0 
L 2541 4672 
L 1773 4672 
L 109 0 
L 742 0 
L 1235 1408 
L 3034 1408 
z
M 2867 1907 
L 1382 1907 
L 2150 4032 
L 2867 1907 
z
" transform="scale(0.015625)"/>
       <path id="NimbusSanL-Regu-64" d="M 3168 4672 
L 2637 4672 
L 2637 2937 
C 2413 3276 2054 3456 1606 3456 
C 736 3456 166 2759 166 1695 
C 166 568 723 -128 1626 -128 
C 2086 -128 2406 44 2694 460 
L 2694 19 
L 3168 19 
L 3168 4672 
z
M 1696 2956 
C 2272 2956 2637 2447 2637 1651 
C 2637 880 2266 371 1702 371 
C 1114 371 723 887 723 1663 
C 723 2440 1114 2956 1696 2956 
z
" transform="scale(0.015625)"/>
       <path id="NimbusSanL-Regu-79" d="M 2483 3328 
L 1555 724 
L 698 3328 
L 128 3328 
L 1261 -29 
L 1056 -558 
C 973 -794 851 -884 627 -884 
C 550 -884 461 -871 346 -845 
L 346 -1325 
C 454 -1383 563 -1408 704 -1408 
C 877 -1408 1062 -1351 1203 -1248 
C 1370 -1127 1466 -986 1568 -718 
L 3059 3328 
L 2483 3328 
z
" transform="scale(0.015625)"/>
       <path id="NimbusSanL-Regu-6d" d="M 448 3328 
L 448 0 
L 986 0 
L 986 2089 
C 986 2597 1338 2988 1773 2988 
C 2170 2988 2394 2744 2394 2315 
L 2394 0 
L 2931 0 
L 2931 2109 
C 2931 2597 3283 2988 3718 2988 
C 4109 2988 4339 2738 4339 2315 
L 4339 0 
L 4877 0 
L 4877 2520 
C 4877 3123 4531 3456 3904 3456 
C 3456 3456 3187 3321 2874 2943 
C 2675 3302 2406 3456 1971 3456 
C 1523 3456 1229 3289 941 2886 
L 941 3328 
L 448 3328 
z
" transform="scale(0.015625)"/>
       <path id="NimbusSanL-Regu-63" d="M 3014 2237 
C 2989 2561 2918 2771 2790 2956 
C 2560 3270 2157 3456 1690 3456 
C 787 3456 198 2740 198 1632 
C 198 555 774 -128 1683 -128 
C 2483 -128 2989 352 3053 1167 
L 2515 1167 
C 2426 632 2150 364 1696 364 
C 1107 364 755 842 755 1632 
C 755 2466 1101 2963 1683 2963 
C 2131 2963 2413 2701 2477 2237 
L 3014 2237 
z
" transform="scale(0.015625)"/>
       <path id="NimbusSanL-Regu-43" d="M 4237 3219 
C 4051 4236 3462 4736 2438 4736 
C 1811 4736 1306 4537 960 4154 
C 538 3696 307 3035 307 2284 
C 307 1522 544 867 986 415 
C 1344 44 1805 -128 2413 -128 
C 3552 -128 4192 485 4333 1712 
L 3718 1712 
C 3667 1394 3603 1178 3507 994 
C 3315 612 2918 396 2419 396 
C 1491 396 902 1134 902 2291 
C 902 3480 1466 4211 2368 4211 
C 2746 4211 3098 4096 3290 3918 
C 3462 3759 3558 3562 3629 3219 
L 4237 3219 
z
" transform="scale(0.015625)"/>
       <path id="NimbusSanL-Regu-66" d="M 1651 3328 
L 1094 3328 
L 1094 3860 
C 1094 4087 1222 4204 1466 4204 
C 1510 4204 1530 4204 1651 4198 
L 1651 4639 
C 1530 4665 1459 4672 1350 4672 
C 858 4672 563 4390 563 3905 
L 563 3328 
L 115 3328 
L 115 2892 
L 563 2892 
L 563 0 
L 1094 0 
L 1094 2892 
L 1651 2892 
L 1651 3328 
z
" transform="scale(0.015625)"/>
       <path id="NimbusSanL-Regu-2" d="M 1613 3328 
L 1056 3328 
L 1056 3860 
C 1056 4087 1184 4204 1427 4204 
C 1472 4204 1491 4204 1613 4198 
L 1613 4639 
C 1491 4665 1421 4672 1312 4672 
C 819 4672 525 4390 525 3905 
L 525 3328 
L 77 3328 
L 77 2892 
L 525 2892 
L 525 0 
L 1056 0 
L 1056 2892 
L 1613 2892 
L 1613 3328 
z
M 2790 3328 
L 2259 3328 
L 2259 0 
L 2790 0 
L 2790 3328 
z
M 2790 4672 
L 2259 4672 
L 2259 3999 
L 2790 3999 
L 2790 4672 
z
" transform="scale(0.015625)"/>
       <path id="NimbusSanL-Regu-73" d="M 2803 2428 
C 2797 3084 2362 3456 1587 3456 
C 806 3456 301 3052 301 2434 
C 301 1912 570 1663 1363 1472 
L 1862 1351 
C 2234 1262 2381 1129 2381 887 
C 2381 574 2067 364 1600 364 
C 1312 364 1069 447 934 587 
C 851 683 813 778 781 1014 
L 218 1014 
C 243 243 678 -128 1555 -128 
C 2400 -128 2938 288 2938 931 
C 2938 1428 2656 1702 1990 1861 
L 1478 1982 
C 1043 2084 858 2224 858 2459 
C 858 2765 1133 2963 1568 2963 
C 1997 2963 2227 2778 2240 2428 
L 2803 2428 
z
" transform="scale(0.015625)"/>
       <path id="NimbusSanL-Regu-2d" d="M 1818 1996 
L 294 1996 
L 294 1536 
L 1818 1536 
L 1818 1996 
z
" transform="scale(0.015625)"/>
       <path id="NimbusSanL-Regu-42" d="M 506 0 
L 2611 0 
C 3053 0 3379 121 3629 390 
C 3859 632 3987 961 3987 1321 
C 3987 1878 3731 2214 3136 2444 
C 3558 2643 3782 2994 3782 3476 
C 3782 3821 3654 4127 3411 4345 
C 3168 4569 2848 4672 2400 4672 
L 506 4672 
L 506 0 
z
M 1101 2636 
L 1101 4147 
L 2253 4147 
C 2586 4147 2771 4101 2931 3977 
C 3098 3847 3187 3652 3187 3391 
C 3187 3138 3098 2936 2931 2806 
C 2771 2682 2586 2636 2253 2636 
L 1101 2636 
z
M 1101 524 
L 1101 2112 
L 2554 2112 
C 2842 2112 3034 2042 3174 1890 
C 3315 1745 3392 1542 3392 1315 
C 3392 1093 3315 891 3174 746 
C 3034 594 2842 524 2554 524 
L 1101 524 
z
" transform="scale(0.015625)"/>
       <path id="NimbusSanL-Regu-6c" d="M 973 4672 
L 435 4672 
L 435 0 
L 973 0 
L 973 4672 
z
" transform="scale(0.015625)"/>
       <path id="NimbusSanL-Regu-32" d="M 3238 556 
L 851 556 
C 909 928 1114 1165 1670 1493 
L 2310 1839 
C 2944 2185 3270 2653 3270 3211 
C 3270 3589 3117 3942 2848 4185 
C 2579 4428 2246 4544 1818 4544 
C 1242 4544 813 4339 563 3955 
C 403 3711 333 3429 320 2967 
L 883 2967 
C 902 3275 941 3461 1018 3608 
C 1165 3884 1459 4051 1798 4051 
C 2310 4051 2694 3685 2694 3198 
C 2694 2839 2483 2531 2080 2300 
L 1491 1967 
C 544 1428 269 999 218 0 
L 3238 0 
L 3238 556 
z
" transform="scale(0.015625)"/>
       <path id="NimbusSanL-Regu-30" d="M 1760 4544 
C 1338 4544 954 4358 717 4044 
C 422 3649 275 3043 275 2207 
C 275 683 787 -128 1760 -128 
C 2720 -128 3245 683 3245 2169 
C 3245 3049 3104 3636 2803 4044 
C 2566 4364 2189 4544 1760 4544 
z
M 1760 4044 
C 2368 4044 2669 3432 2669 2220 
C 2669 938 2374 339 1747 339 
C 1152 339 851 964 851 2201 
C 851 3438 1152 4044 1760 4044 
z
" transform="scale(0.015625)"/>
      </defs>
      <use xlink:href="#NimbusSanL-Regu-41" transform="scale(0.996264)"/>
      <use xlink:href="#NimbusSanL-Regu-65" transform="translate(66.450031 0) scale(0.996264)"/>
      <use xlink:href="#NimbusSanL-Regu-72" transform="translate(121.841708 0) scale(0.996264)"/>
      <use xlink:href="#NimbusSanL-Regu-6f" transform="translate(155.016938 0) scale(0.996264)"/>
      <use xlink:href="#NimbusSanL-Regu-64" transform="translate(210.408615 0) scale(0.996264)"/>
      <use xlink:href="#NimbusSanL-Regu-79" transform="translate(265.800292 0) scale(0.996264)"/>
      <use xlink:href="#NimbusSanL-Regu-6e" transform="translate(315.613492 0) scale(0.996264)"/>
      <use xlink:href="#NimbusSanL-Regu-61" transform="translate(371.005169 0) scale(0.996264)"/>
      <use xlink:href="#NimbusSanL-Regu-6d" transform="translate(426.396846 0) scale(0.996264)"/>
      <use xlink:href="#NimbusSanL-Regu-69" transform="translate(509.385276 0) scale(0.996264)"/>
      <use xlink:href="#NimbusSanL-Regu-63" transform="translate(531.502061 0) scale(0.996264)"/>
      <use xlink:href="#NimbusSanL-Regu-43" transform="translate(609.010431 0) scale(0.996264)"/>
      <use xlink:href="#NimbusSanL-Regu-6f" transform="translate(680.940416 0) scale(0.996264)"/>
      <use xlink:href="#NimbusSanL-Regu-65" transform="translate(736.332093 0) scale(0.996264)"/>
      <use xlink:href="#NimbusSanL-Regu-66" transform="translate(791.72377 0) scale(0.996264)"/>
      <use xlink:href="#NimbusSanL-Regu-2" transform="translate(819.418939 0) scale(0.996264)"/>
      <use xlink:href="#NimbusSanL-Regu-63" transform="translate(869.23214 0) scale(0.996264)"/>
      <use xlink:href="#NimbusSanL-Regu-69" transform="translate(919.04534 0) scale(0.996264)"/>
      <use xlink:href="#NimbusSanL-Regu-65" transform="translate(941.162125 0) scale(0.996264)"/>
      <use xlink:href="#NimbusSanL-Regu-6e" transform="translate(996.553802 0) scale(0.996264)"/>
      <use xlink:href="#NimbusSanL-Regu-74" transform="translate(1051.945479 0) scale(0.996264)"/>
      <use xlink:href="#NimbusSanL-Regu-73" transform="translate(1079.640648 0) scale(0.996264)"/>
      <use xlink:href="#NimbusSanL-Regu-2d" transform="translate(1157.149018 0) scale(0.996264)"/>
      <use xlink:href="#NimbusSanL-Regu-42" transform="translate(1218.019418 0) scale(0.996264)"/>
      <use xlink:href="#NimbusSanL-Regu-6c" transform="translate(1284.469449 0) scale(0.996264)"/>
      <use xlink:href="#NimbusSanL-Regu-61" transform="translate(1306.586233 0) scale(0.996264)"/>
      <use xlink:href="#NimbusSanL-Regu-64" transform="translate(1361.97791 0) scale(0.996264)"/>
      <use xlink:href="#NimbusSanL-Regu-65" transform="translate(1417.369587 0) scale(0.996264)"/>
      <use xlink:href="#NimbusSanL-Regu-32" transform="translate(1508.626829 0) scale(0.996264)"/>
      <use xlink:href="#NimbusSanL-Regu-30" transform="translate(1564.018506 0) scale(0.996264)"/>
      <path d="M 1478.738605 0 
L 1508.626829 0 
L 1508.626829 0.3985 
L 1478.738605 0.3985 
L 1478.738605 0 
z
"/>
     </g>
    </g>
   </g>
   <g id="line2d_15">
    <path d="M 55.552935 92.285384 
L 55.835276 18.430361 
L 55.905861 18.540422 
L 56.047031 21.424469 
L 56.329373 27.45446 
L 56.541128 28.207733 
L 56.96464 32.03819 
L 57.176396 33.004906 
L 57.388151 34.825081 
L 57.599907 38.202414 
L 57.882248 43.039834 
L 58.094004 44.376404 
L 58.30576 47.119982 
L 58.517516 52.47833 
L 58.729271 65.193748 
L 59.223368 101.162825 
L 59.435124 104.694086 
L 60.070391 119.393281 
L 60.282147 119.294495 
L 60.493903 118.899564 
L 60.705659 117.759427 
L 61.199755 113.990437 
L 61.482096 113.275579 
L 61.764437 111.846171 
L 61.976193 110.718393 
L 62.32912 110.262147 
L 62.540875 109.667854 
L 62.752631 108.466596 
L 63.105557 106.07643 
L 63.387898 105.464905 
L 63.599654 104.553997 
L 63.81141 102.538077 
L 63.95258 101.025466 
L 64.164336 100.461343 
L 64.376092 99.241941 
L 64.587848 96.631364 
L 64.940774 91.46903 
L 65.223115 90.264179 
L 65.505456 87.740836 
L 65.999553 82.43089 
L 66.281894 82.445869 
L 66.423065 82.654441 
L 66.564235 83.281134 
L 66.705406 84.847893 
L 67.128917 91.564333 
L 67.340673 93.435968 
L 67.552429 97.410951 
L 67.97594 107.338953 
L 68.187696 109.603935 
L 68.470037 115.90591 
L 68.822963 125.491981 
L 69.105304 127.862837 
L 69.387645 132.642419 
L 69.811157 140.204327 
L 70.093498 141.299111 
L 70.65818 144.117901 
L 70.799351 143.748078 
L 71.011106 143.580189 
L 71.222862 143.114679 
L 71.434618 141.941045 
L 71.858129 138.674699 
L 72.069885 137.917284 
L 72.281641 136.414739 
L 72.493397 133.462734 
L 72.916908 126.434239 
L 73.128664 124.860403 
L 73.34042 121.811567 
L 73.622761 113.642186 
L 73.763931 110.630562 
L 73.975687 109.684271 
L 74.258028 107.181182 
L 74.68154 103.233505 
L 75.105051 103.145617 
L 75.246222 103.367372 
L 75.387392 104.087306 
L 75.810904 107.292214 
L 76.02266 108.020178 
L 76.234416 109.484795 
L 76.587342 112.618565 
L 76.869683 113.474372 
L 77.152024 115.435397 
L 77.434365 117.348907 
L 77.716706 118.019302 
L 77.999047 119.508371 
L 78.493144 122.930622 
L 78.775485 123.738995 
L 79.057826 125.405581 
L 79.481337 128.400207 
L 79.763678 128.888133 
L 80.398946 130.278601 
L 80.751872 130.201308 
L 80.963628 129.953573 
L 81.175384 129.174536 
L 81.457725 127.824312 
L 81.740066 127.286187 
L 81.951822 126.398871 
L 82.163577 124.678132 
L 82.516504 121.321919 
L 82.798845 120.496842 
L 83.081186 118.724287 
L 83.504697 115.737751 
L 83.787038 115.30992 
L 84.281135 114.398887 
L 84.422306 114.621224 
L 84.704647 114.79721 
L 84.916402 115.169734 
L 85.128158 116.108093 
L 85.269329 116.708144 
L 85.55167 117.036108 
L 85.763425 117.585794 
L 85.975181 118.707594 
L 86.257522 120.17308 
L 86.539863 120.691671 
L 86.822204 121.835552 
L 87.316301 124.439344 
L 87.669227 124.842162 
L 88.092739 125.458375 
L 88.869177 125.164218 
L 89.363274 124.432053 
L 89.645615 124.084526 
L 89.85737 123.476969 
L 90.139712 122.634519 
L 90.422053 122.320163 
L 90.704394 121.556182 
L 90.916149 120.344833 
L 91.05732 119.694857 
L 91.339661 119.359418 
L 91.622002 118.584424 
L 91.904343 117.033732 
L 92.045514 116.476902 
L 92.327855 116.211675 
L 92.610196 115.664021 
L 93.104292 114.649255 
L 93.88073 114.582155 
L 94.445412 114.734235 
L 94.657168 114.969049 
L 95.08068 115.621179 
L 95.363021 115.851691 
L 95.645362 116.401126 
L 95.998288 117.239929 
L 96.351214 117.522387 
L 96.704141 118.190895 
L 96.986482 118.641161 
L 98.468772 118.761159 
L 99.668721 118.157863 
L 99.880477 118.055736 
L 100.445159 117.876448 
L 100.939256 117.672003 
L 101.645109 117.68989 
L 102.06862 117.872561 
L 102.421547 118.047019 
L 103.127399 118.57103 
L 103.40974 118.840751 
L 104.045008 119.692497 
L 104.397934 119.959285 
L 104.892031 120.437968 
L 105.386127 120.677686 
L 105.809639 120.960839 
L 106.586077 120.972559 
L 106.797833 120.895355 
L 107.291929 120.723557 
L 108.491879 119.578089 
L 108.633049 119.379663 
L 109.056561 119.188604 
L 109.409487 118.76417 
L 109.762414 118.397111 
L 110.538851 118.457725 
L 110.891778 118.650058 
L 111.244704 118.810627 
L 111.45646 119.084642 
L 111.879971 119.756369 
L 112.232898 120.05763 
L 112.515239 120.616448 
L 112.868165 121.312177 
L 113.432847 121.530056 
L 113.785773 121.608018 
L 114.350455 121.495448 
L 114.562211 121.253915 
L 114.844552 120.848222 
L 115.197478 120.616988 
L 115.479819 120.100768 
L 115.973916 118.765412 
L 116.326843 118.488992 
L 116.679769 117.867306 
L 116.820939 117.710607 
L 117.385621 117.508598 
L 117.738548 117.425023 
L 118.797327 118.248593 
L 118.938497 118.411799 
L 119.362009 118.572552 
L 119.714935 118.960242 
L 119.997276 119.222368 
L 120.561958 119.425203 
L 120.914884 119.475251 
L 121.620737 119.346885 
L 122.185419 119.096112 
L 122.608931 118.861169 
L 123.032442 118.562104 
L 123.597124 118.332954 
L 123.950051 118.255859 
L 124.232392 118.311387 
L 124.726488 118.471999 
L 125.220585 118.794537 
L 125.573511 119.004162 
L 125.855853 119.458184 
L 125.997023 119.643932 
L 126.420535 119.820507 
L 126.773461 120.205678 
L 126.985217 120.327628 
L 127.549899 120.516318 
L 127.97341 120.660827 
L 128.679263 120.609409 
L 130.867406 119.091305 
L 131.008576 118.962278 
L 131.573259 118.773011 
L 132.067355 118.574543 
L 133.267305 118.591953 
L 133.690816 118.770503 
L 133.902572 118.855924 
L 134.467254 119.035731 
L 135.102521 119.395404 
L 135.526033 119.615595 
L 135.949545 119.839577 
L 137.925932 120.010414 
L 138.490614 119.886376 
L 138.914125 119.737117 
L 139.549393 119.565642 
L 140.04349 119.413411 
L 142.443388 119.435071 
L 143.643338 119.385897 
L 144.137435 119.343084 
L 144.702117 119.196634 
L 144.984458 119.149252 
L 146.396163 118.933235 
L 147.243186 118.862014 
L 148.443135 118.944713 
L 149.078403 119.033643 
L 152.960592 119.589795 
L 155.642832 119.529531 
L 159.313265 119.592414 
L 161.077897 119.491946 
L 161.713164 119.449977 
L 164.395404 119.279148 
L 166.08945 119.40503 
L 167.218814 119.492997 
L 169.124616 119.476672 
L 172.583294 119.342521 
L 177.806603 119.480039 
L 184.794544 119.422522 
L 186.770931 119.40922 
L 190.300194 119.432629 
L 194.464724 119.457056 
L 197.49989 119.487099 
L 214.793279 119.436436 
L 262.297158 119.449042 
L 346.928883 119.449085 
L 359.916571 119.449213 
L 359.916571 119.449213 
" clip-path="url(#p9320a93f96)" style="fill: none; stroke: #1f77b4; stroke-width: 1.5; stroke-linecap: square"/>
   </g>
   <g id="line2d_16">
    <path d="M 55.552935 167.997078 
L 55.76469 219.635189 
L 55.835276 220.030361 
L 55.905861 219.875503 
L 56.117617 216.949144 
L 56.329373 215.473293 
L 56.611714 216.228245 
L 56.894055 216.17812 
L 57.529322 216.196725 
L 57.670492 216.06106 
L 57.811663 215.687238 
L 58.094004 215.431667 
L 58.30576 214.861236 
L 58.517516 213.503682 
L 58.658686 211.242511 
L 58.870442 202.776656 
L 59.223368 188.854425 
L 59.435124 185.757487 
L 59.64688 179.337715 
L 60.070391 164.290889 
L 60.352732 163.386514 
L 60.917414 160.237886 
L 61.058585 159.750913 
L 61.270341 159.609285 
L 61.482096 159.211698 
L 61.693852 158.409056 
L 62.046778 156.818163 
L 62.258534 156.569836 
L 62.540875 155.807158 
L 62.823216 154.231932 
L 63.034972 153.05338 
L 63.246728 152.873815 
L 63.529069 152.291495 
L 63.740825 151.986723 
L 63.81141 152.288774 
L 63.95258 153.221391 
L 64.164336 153.665383 
L 64.376092 154.66957 
L 64.587848 157.043976 
L 64.940774 162.339036 
L 65.15253 163.247523 
L 65.364286 164.967905 
L 65.646627 169.698573 
L 66.070138 179.496913 
L 66.281894 180.545523 
L 66.846576 184.744749 
L 66.917161 184.414392 
L 67.128917 184.256103 
L 67.340673 183.791573 
L 67.552429 182.489184 
L 68.046525 177.870851 
L 68.258281 176.461803 
L 68.470037 173.635306 
L 68.893549 167.021601 
L 69.105304 165.54163 
L 69.31706 162.728499 
L 69.599401 155.211556 
L 69.740572 152.255723 
L 70.022913 150.77865 
L 70.305254 147.725848 
L 70.799351 141.492442 
L 71.222862 141.29024 
L 71.364033 141.452747 
L 71.505203 142.095564 
L 71.787544 143.793302 
L 71.9993 144.244522 
L 72.211056 145.178144 
L 72.422812 147.039774 
L 72.634567 150.854615 
L 72.775738 153.035403 
L 72.987494 153.778591 
L 73.199249 155.294912 
L 73.411005 158.178004 
L 73.905102 166.1447 
L 74.187443 167.840363 
L 74.752125 172.227167 
L 75.316807 172.657005 
L 75.457978 172.324225 
L 75.740319 171.298817 
L 76.02266 170.880513 
L 76.234416 170.136584 
L 76.657927 168.306888 
L 76.940268 167.683536 
L 77.152024 166.698288 
L 77.434365 165.485554 
L 77.716706 165.055316 
L 77.999047 164.079165 
L 78.493144 161.731478 
L 78.775485 161.155902 
L 79.057826 159.936444 
L 79.481337 157.693649 
L 79.763678 157.31868 
L 80.116605 156.417393 
L 80.398946 155.896407 
L 80.963628 155.889231 
L 81.104798 156.034982 
L 81.245969 156.425549 
L 81.387139 156.806774 
L 81.66948 157.023095 
L 81.951822 157.585412 
L 82.163577 158.523954 
L 82.516504 160.444439 
L 82.798845 160.935106 
L 83.081186 162.033416 
L 83.504697 164.078074 
L 83.787038 164.402335 
L 84.422306 165.339244 
L 84.845817 165.22046 
L 85.057573 164.938214 
L 85.339914 164.453764 
L 85.69284 164.17624 
L 85.904596 163.75659 
L 86.328108 162.73386 
L 86.610449 162.390285 
L 86.89279 161.602911 
L 87.386886 159.928384 
L 87.669227 159.572804 
L 88.022154 158.690163 
L 88.23391 158.25268 
L 88.798592 158.000236 
L 89.010347 157.946492 
L 89.292688 158.007955 
L 89.7162 158.165633 
L 89.927956 158.483885 
L 90.069126 158.698984 
L 90.492638 158.933589 
L 90.774979 159.404958 
L 91.127905 160.212545 
L 91.480831 160.510291 
L 91.763172 161.07306 
L 92.116099 161.827105 
L 92.469025 162.057234 
L 93.245463 162.78734 
L 93.951316 162.803529 
L 94.515998 162.693863 
L 94.798339 162.431546 
L 94.939509 162.301061 
L 95.433606 162.120684 
L 95.786532 161.711045 
L 95.927703 161.578254 
L 96.492385 161.378367 
L 97.057067 161.083387 
L 101.715694 160.993975 
L 102.06862 161.039551 
L 102.633302 161.193888 
L 102.845058 161.250431 
L 103.621496 161.417227 
L 104.186178 161.437969 
L 104.60969 161.35897 
L 104.892031 161.291133 
L 105.386127 161.154574 
L 106.939003 160.170051 
L 108.138953 159.992108 
L 108.421294 160.11525 
L 108.703635 160.342874 
L 109.127146 160.530963 
L 109.409487 160.920304 
L 109.832999 161.722392 
L 110.327096 161.928771 
L 110.821192 162.19618 
L 111.45646 162.127928 
L 112.515239 161.009686 
L 112.868165 160.108121 
L 113.221091 159.927596 
L 113.574017 159.476325 
L 113.785773 159.236454 
L 114.773967 159.210862 
L 115.268064 159.373947 
L 115.479819 159.626222 
L 116.115087 160.67305 
L 116.468013 161.020808 
L 116.891525 161.581024 
L 117.385621 161.796251 
L 117.809133 161.983939 
L 118.797327 161.473689 
L 118.938497 161.341305 
L 119.432594 161.160412 
L 119.714935 160.853639 
L 119.997276 160.59018 
L 120.491373 160.402397 
L 120.98547 160.203246 
L 121.691322 160.287412 
L 122.114834 160.421662 
L 122.608931 160.616421 
L 123.032442 160.87736 
L 123.526539 161.059862 
L 124.091221 161.315841 
L 125.079415 161.214765 
L 125.644097 161.092357 
L 126.420535 160.747961 
L 128.255751 160.094832 
L 128.961604 160.070657 
L 129.243945 160.120293 
L 129.808627 160.275409 
L 130.161553 160.417921 
L 130.65565 160.587164 
L 131.290917 160.949859 
L 131.714429 161.166526 
L 131.99677 161.302694 
L 132.702623 161.477618 
L 133.126134 161.526113 
L 134.114328 161.445725 
L 134.608425 161.294007 
L 134.961351 161.145598 
L 135.455448 160.984603 
L 136.090715 160.693248 
L 138.137688 160.31689 
L 139.196466 160.435716 
L 141.737536 160.6838 
L 143.643338 160.711178 
L 144.913872 160.836867 
L 148.725476 160.842472 
L 151.19596 160.67148 
L 153.172348 160.668756 
L 156.842781 160.765766 
L 162.06609 160.736632 
L 162.630772 160.776631 
L 164.960086 160.875731 
L 168.418764 160.604121 
L 170.11281 160.716751 
L 171.665686 160.778385 
L 178.44187 160.702166 
L 185.359226 160.73451 
L 195.311747 160.722113 
L 202.158517 160.735142 
L 272.955532 160.733625 
L 359.916571 160.734322 
L 359.916571 160.734322 
" clip-path="url(#p9320a93f96)" style="fill: none; stroke: #ff7f0e; stroke-width: 1.5; stroke-linecap: square"/>
   </g>
   <g id="patch_3">
    <path d="M 40.334753 230.110361 
L 40.334753 8.350361 
" style="fill: none; stroke: #000000; stroke-width: 0.8; stroke-linejoin: miter; stroke-linecap: square"/>
   </g>
   <g id="patch_4">
    <path d="M 375.134753 230.110361 
L 375.134753 8.350361 
" style="fill: none; stroke: #000000; stroke-width: 0.8; stroke-linejoin: miter; stroke-linecap: square"/>
   </g>
   <g id="patch_5">
    <path d="M 40.334753 230.110361 
L 375.134753 230.110361 
" style="fill: none; stroke: #000000; stroke-width: 0.8; stroke-linejoin: miter; stroke-linecap: square"/>
   </g>
   <g id="patch_6">
    <path d="M 40.334753 8.350361 
L 375.134753 8.350361 
" style="fill: none; stroke: #000000; stroke-width: 0.8; stroke-linejoin: miter; stroke-linecap: square"/>
   </g>
   <g id="legend_1">
    <g id="patch_7">
     <path d="M 321.748759 44.790974 
L 368.134753 44.790974 
Q 370.134753 44.790974 370.134753 42.790974 
L 370.134753 15.350361 
Q 370.134753 13.350361 368.134753 13.350361 
L 321.748759 13.350361 
Q 319.748759 13.350361 319.748759 15.350361 
L 319.748759 42.790974 
Q 319.748759 44.790974 321.748759 44.790974 
z
" style="fill: #ffffff; opacity: 0.8; stroke: #cccccc; stroke-linejoin: miter"/>
    </g>
    <g id="line2d_17">
     <path d="M 323.748759 20.948681 
L 333.748759 20.948681 
L 343.748759 20.948681 
" style="fill: none; stroke: #1f77b4; stroke-width: 1.5; stroke-linecap: square"/>
    </g>
    <g id="text_17">
     <!-- CD -->
     <g transform="translate(351.748759 24.448681) scale(0.1 -0.1)">
      <defs>
       <path id="NimbusSanL-Regu-44" d="M 570 0 
L 2368 0 
C 3546 0 4269 883 4269 2339 
C 4269 3788 3552 4672 2368 4672 
L 570 4672 
L 570 0 
z
M 1165 524 
L 1165 4147 
L 2266 4147 
C 3187 4147 3674 3525 3674 2332 
C 3674 1153 3187 524 2266 524 
L 1165 524 
z
" transform="scale(0.015625)"/>
      </defs>
      <use xlink:href="#NimbusSanL-Regu-43" transform="scale(0.996264)"/>
      <use xlink:href="#NimbusSanL-Regu-44" transform="translate(71.929985 0) scale(0.996264)"/>
     </g>
    </g>
    <g id="line2d_18">
     <path d="M 323.748759 35.168988 
L 333.748759 35.168988 
L 343.748759 35.168988 
" style="fill: none; stroke: #ff7f0e; stroke-width: 1.5; stroke-linecap: square"/>
    </g>
    <g id="text_18">
     <!-- CL -->
     <g transform="translate(351.748759 38.668988) scale(0.1 -0.1)">
      <defs>
       <path id="NimbusSanL-Regu-4c" d="M 1107 4672 
L 512 4672 
L 512 0 
L 3411 0 
L 3411 524 
L 1107 524 
L 1107 4672 
z
" transform="scale(0.015625)"/>
      </defs>
      <use xlink:href="#NimbusSanL-Regu-43" transform="scale(0.996264)"/>
      <use xlink:href="#NimbusSanL-Regu-4c" transform="translate(71.929985 0) scale(0.996264)"/>
     </g>
    </g>
   </g>
  </g>
 </g>
 <defs>
  <clipPath id="p9320a93f96">
   <rect x="40.334753" y="8.350361" width="334.8" height="221.76"/>
  </clipPath>
 </defs>
</svg>
