<?xml version="1.0" encoding="utf-8" standalone="no"?>
<!DOCTYPE svg PUBLIC "-//W3C//DTD SVG 1.1//EN"
  "http://www.w3.org/Graphics/SVG/1.1/DTD/svg11.dtd">
<svg xmlns:xlink="http://www.w3.org/1999/xlink" width="379.567344pt" height="265.600613pt" viewBox="0 0 379.567344 265.600613" xmlns="http://www.w3.org/2000/svg" version="1.1">
 <metadata>
  <rdf:RDF xmlns:dc="http://purl.org/dc/elements/1.1/" xmlns:cc="http://creativecommons.org/ns#" xmlns:rdf="http://www.w3.org/1999/02/22-rdf-syntax-ns#">
   <cc:Work>
    <dc:type rdf:resource="http://purl.org/dc/dcmitype/StillImage"/>
    <dc:date>2025-07-17T21:38:36.771619</dc:date>
    <dc:format>image/svg+xml</dc:format>
    <dc:creator>
     <cc:Agent>
      <dc:title>Matplotlib v3.10.3, https://matplotlib.org/</dc:title>
     </cc:Agent>
    </dc:creator>
   </cc:Work>
  </rdf:RDF>
 </metadata>
 <defs>
  <style type="text/css">*{stroke-linejoin: round; stroke-linecap: butt}</style>
 </defs>
 <g id="figure_1">
  <g id="patch_1">
   <path d="M 0 265.600613 
L 379.567344 265.600613 
L 379.567344 0 
L 0 0 
z
" style="fill: #ffffff"/>
  </g>
  <g id="axes_1">
   <g id="patch_2">
    <path d="M 37.567344 228.96 
L 372.367344 228.96 
L 372.367344 7.2 
L 37.567344 7.2 
z
" style="fill: #ffffff"/>
   </g>
   <g id="matplotlib.axis_1">
    <g id="xtick_1">
     <g id="line2d_1">
      <defs>
       <path id="mb73f33e5ef" d="M 0 0 
L 0 3.5 
" style="stroke: #000000; stroke-width: 0.8"/>
      </defs>
      <g>
       <use xlink:href="#mb73f33e5ef" x="52.785526" y="228.96" style="stroke: #000000; stroke-width: 0.8"/>
      </g>
     </g>
     <g id="text_1">
      <!-- $\mathdefault{0}$ -->
      <g transform="translate(50.294859 243.05832) scale(0.1 -0.1)">
       <defs>
        <path id="CMR17-30" d="M 2688 2038 
C 2688 2430 2682 3099 2413 3613 
C 2176 4063 1798 4224 1466 4224 
C 1158 4224 768 4082 525 3620 
C 269 3137 243 2539 243 2038 
C 243 1671 250 1112 448 623 
C 723 -39 1216 -128 1466 -128 
C 1760 -128 2208 -7 2470 604 
C 2662 1048 2688 1568 2688 2038 
z
M 1466 -26 
C 1056 -26 813 328 723 816 
C 653 1196 653 1749 653 2109 
C 653 2604 653 3015 736 3407 
C 858 3954 1216 4121 1466 4121 
C 1728 4121 2067 3947 2189 3420 
C 2272 3054 2278 2623 2278 2109 
C 2278 1691 2278 1176 2202 797 
C 2067 96 1690 -26 1466 -26 
z
" transform="scale(0.015625)"/>
       </defs>
       <use xlink:href="#CMR17-30" transform="scale(0.996264)"/>
      </g>
     </g>
    </g>
    <g id="xtick_2">
     <g id="line2d_2">
      <g>
       <use xlink:href="#mb73f33e5ef" x="123.370785" y="228.96" style="stroke: #000000; stroke-width: 0.8"/>
      </g>
     </g>
     <g id="text_2">
      <!-- $\mathdefault{1000}$ -->
      <g transform="translate(113.408115 243.05832) scale(0.1 -0.1)">
       <defs>
        <path id="CMR17-31" d="M 1702 4083 
C 1702 4217 1696 4224 1606 4224 
C 1357 3927 979 3833 621 3820 
C 602 3820 570 3820 563 3808 
C 557 3795 557 3782 557 3648 
C 755 3648 1088 3686 1344 3839 
L 1344 467 
C 1344 243 1331 166 781 166 
L 589 166 
L 589 0 
C 896 6 1216 12 1523 12 
C 1830 12 2150 6 2458 0 
L 2458 166 
L 2266 166 
C 1715 166 1702 236 1702 467 
L 1702 4083 
z
" transform="scale(0.015625)"/>
       </defs>
       <use xlink:href="#CMR17-31" transform="scale(0.996264)"/>
       <use xlink:href="#CMR17-30" transform="translate(45.690477 0) scale(0.996264)"/>
       <use xlink:href="#CMR17-30" transform="translate(91.380954 0) scale(0.996264)"/>
       <use xlink:href="#CMR17-30" transform="translate(137.071431 0) scale(0.996264)"/>
      </g>
     </g>
    </g>
    <g id="xtick_3">
     <g id="line2d_3">
      <g>
       <use xlink:href="#mb73f33e5ef" x="193.956044" y="228.96" style="stroke: #000000; stroke-width: 0.8"/>
      </g>
     </g>
     <g id="text_3">
      <!-- $\mathdefault{2000}$ -->
      <g transform="translate(183.993373 243.05832) scale(0.1 -0.1)">
       <defs>
        <path id="CMR17-32" d="M 2669 990 
L 2554 990 
C 2490 537 2438 460 2413 422 
C 2381 371 1920 371 1830 371 
L 602 371 
C 832 620 1280 1073 1824 1596 
C 2214 1966 2669 2400 2669 3033 
C 2669 3788 2067 4224 1395 4224 
C 691 4224 262 3603 262 3027 
C 262 2777 448 2745 525 2745 
C 589 2745 781 2783 781 3007 
C 781 3206 614 3264 525 3264 
C 486 3264 448 3257 422 3244 
C 544 3788 915 4057 1306 4057 
C 1862 4057 2227 3616 2227 3033 
C 2227 2477 1901 1998 1536 1583 
L 262 147 
L 262 0 
L 2515 0 
L 2669 990 
z
" transform="scale(0.015625)"/>
       </defs>
       <use xlink:href="#CMR17-32" transform="scale(0.996264)"/>
       <use xlink:href="#CMR17-30" transform="translate(45.690477 0) scale(0.996264)"/>
       <use xlink:href="#CMR17-30" transform="translate(91.380954 0) scale(0.996264)"/>
       <use xlink:href="#CMR17-30" transform="translate(137.071431 0) scale(0.996264)"/>
      </g>
     </g>
    </g>
    <g id="xtick_4">
     <g id="line2d_4">
      <g>
       <use xlink:href="#mb73f33e5ef" x="264.541303" y="228.96" style="stroke: #000000; stroke-width: 0.8"/>
      </g>
     </g>
     <g id="text_4">
      <!-- $\mathdefault{3000}$ -->
      <g transform="translate(254.578632 243.05832) scale(0.1 -0.1)">
       <defs>
        <path id="CMR17-33" d="M 1414 2176 
C 1984 2176 2234 1673 2234 1094 
C 2234 322 1824 25 1453 25 
C 1114 25 563 193 390 691 
C 422 678 454 678 486 678 
C 640 678 755 780 755 947 
C 755 1132 614 1216 486 1216 
C 378 1216 211 1164 211 927 
C 211 335 787 -128 1466 -128 
C 2176 -128 2720 432 2720 1087 
C 2720 1718 2208 2176 1600 2246 
C 2086 2347 2554 2776 2554 3353 
C 2554 3856 2048 4224 1472 4224 
C 890 4224 378 3862 378 3347 
C 378 3123 544 3084 627 3084 
C 762 3084 877 3167 877 3334 
C 877 3500 762 3584 627 3584 
C 602 3584 570 3584 544 3571 
C 730 3999 1235 4076 1459 4076 
C 1683 4076 2106 3966 2106 3347 
C 2106 3167 2080 2851 1862 2574 
C 1670 2329 1453 2316 1242 2297 
C 1210 2297 1062 2284 1037 2284 
C 992 2278 966 2272 966 2227 
C 966 2182 973 2176 1101 2176 
L 1414 2176 
z
" transform="scale(0.015625)"/>
       </defs>
       <use xlink:href="#CMR17-33" transform="scale(0.996264)"/>
       <use xlink:href="#CMR17-30" transform="translate(45.690477 0) scale(0.996264)"/>
       <use xlink:href="#CMR17-30" transform="translate(91.380954 0) scale(0.996264)"/>
       <use xlink:href="#CMR17-30" transform="translate(137.071431 0) scale(0.996264)"/>
      </g>
     </g>
    </g>
    <g id="xtick_5">
     <g id="line2d_5">
      <g>
       <use xlink:href="#mb73f33e5ef" x="335.126562" y="228.96" style="stroke: #000000; stroke-width: 0.8"/>
      </g>
     </g>
     <g id="text_5">
      <!-- $\mathdefault{4000}$ -->
      <g transform="translate(325.163891 243.05832) scale(0.1 -0.1)">
       <defs>
        <path id="CMR17-34" d="M 2150 4147 
C 2150 4281 2144 4288 2029 4288 
L 128 1254 
L 128 1088 
L 1779 1088 
L 1779 460 
C 1779 230 1766 166 1318 166 
L 1197 166 
L 1197 0 
C 1402 12 1747 12 1965 12 
C 2182 12 2528 12 2733 0 
L 2733 166 
L 2611 166 
C 2163 166 2150 230 2150 460 
L 2150 1088 
L 2803 1088 
L 2803 1254 
L 2150 1254 
L 2150 4147 
z
M 1798 3723 
L 1798 1254 
L 256 1254 
L 1798 3723 
z
" transform="scale(0.015625)"/>
       </defs>
       <use xlink:href="#CMR17-34" transform="scale(0.996264)"/>
       <use xlink:href="#CMR17-30" transform="translate(45.690477 0) scale(0.996264)"/>
       <use xlink:href="#CMR17-30" transform="translate(91.380954 0) scale(0.996264)"/>
       <use xlink:href="#CMR17-30" transform="translate(137.071431 0) scale(0.996264)"/>
      </g>
     </g>
    </g>
    <g id="text_6">
     <!-- Iteration -->
     <g transform="translate(187.019968 256.278627) scale(0.1 -0.1)">
      <defs>
       <path id="NimbusSanL-Regu-49" d="M 1242 4672 
L 640 4672 
L 640 0 
L 1242 0 
L 1242 4672 
z
" transform="scale(0.015625)"/>
       <path id="NimbusSanL-Regu-74" d="M 1626 3328 
L 1075 3328 
L 1075 4249 
L 544 4249 
L 544 3328 
L 90 3328 
L 90 2892 
L 544 2892 
L 544 402 
C 544 64 774 -128 1190 -128 
C 1318 -128 1446 -116 1626 -84 
L 1626 364 
C 1555 345 1472 339 1370 339 
C 1139 339 1075 402 1075 634 
L 1075 2892 
L 1626 2892 
L 1626 3328 
z
" transform="scale(0.015625)"/>
       <path id="NimbusSanL-Regu-65" d="M 3283 1484 
C 3283 1998 3245 2311 3149 2565 
C 2931 3123 2419 3456 1792 3456 
C 858 3456 256 2734 256 1619 
C 256 545 838 -128 1779 -128 
C 2547 -128 3078 307 3213 1018 
L 2675 1018 
C 2528 588 2227 364 1798 364 
C 1459 364 1171 514 992 787 
C 864 974 819 1161 813 1484 
L 3283 1484 
z
M 826 1920 
C 870 2552 1248 2963 1786 2963 
C 2310 2963 2714 2519 2714 1959 
C 2714 1946 2714 1933 2707 1920 
L 826 1920 
z
" transform="scale(0.015625)"/>
       <path id="NimbusSanL-Regu-72" d="M 442 3328 
L 442 0 
L 979 0 
L 979 1727 
C 979 2203 1101 2514 1357 2698 
C 1523 2819 1683 2857 2054 2863 
L 2054 3404 
C 1965 3449 1920 3456 1850 3456 
C 1504 3456 1242 3251 934 2750 
L 934 3328 
L 442 3328 
z
" transform="scale(0.015625)"/>
       <path id="NimbusSanL-Regu-61" d="M 3424 332 
C 3366 320 3341 320 3309 320 
C 3123 320 3021 415 3021 581 
L 3021 2542 
C 3021 3135 2586 3456 1760 3456 
C 1274 3456 870 3315 646 3065 
C 493 2893 429 2702 416 2370 
L 954 2370 
C 998 2778 1242 2963 1741 2963 
C 2221 2963 2490 2784 2490 2466 
L 2490 2326 
C 2490 2103 2355 2007 1933 1956 
C 1178 1861 1062 1835 858 1753 
C 467 1593 269 1294 269 861 
C 269 256 691 -128 1370 -128 
C 1792 -128 2131 19 2509 364 
C 2547 25 2714 -128 3059 -128 
C 3168 -128 3251 -116 3424 -71 
L 3424 332 
z
M 2490 1071 
C 2490 893 2438 785 2278 638 
C 2061 441 1798 339 1485 339 
C 1069 339 826 536 826 874 
C 826 1224 1062 1402 1632 1485 
C 2195 1562 2310 1587 2490 1670 
L 2490 1071 
z
" transform="scale(0.015625)"/>
       <path id="NimbusSanL-Regu-69" d="M 960 3358 
L 429 3358 
L 429 0 
L 960 0 
L 960 3358 
z
M 960 4672 
L 422 4672 
L 422 3999 
L 960 3999 
L 960 4672 
z
" transform="scale(0.015625)"/>
       <path id="NimbusSanL-Regu-6f" d="M 1741 3456 
C 800 3456 230 2784 230 1663 
C 230 543 794 -128 1747 -128 
C 2688 -128 3264 543 3264 1638 
C 3264 2791 2707 3456 1741 3456 
z
M 1747 2963 
C 2349 2963 2707 2472 2707 1644 
C 2707 861 2336 364 1747 364 
C 1152 364 787 855 787 1663 
C 787 2466 1152 2963 1747 2963 
z
" transform="scale(0.015625)"/>
       <path id="NimbusSanL-Regu-6e" d="M 448 3328 
L 448 0 
L 986 0 
L 986 1835 
C 986 2539 1344 2988 1894 2988 
C 2317 2988 2586 2732 2586 2328 
L 2586 0 
L 3117 0 
L 3117 2539 
C 3117 3097 2701 3456 2054 3456 
C 1555 3456 1235 3263 941 2796 
L 941 3328 
L 448 3328 
z
" transform="scale(0.015625)"/>
      </defs>
      <use xlink:href="#NimbusSanL-Regu-49" transform="scale(0.996264)"/>
      <use xlink:href="#NimbusSanL-Regu-74" transform="translate(27.69517 0) scale(0.996264)"/>
      <use xlink:href="#NimbusSanL-Regu-65" transform="translate(55.390339 0) scale(0.996264)"/>
      <use xlink:href="#NimbusSanL-Regu-72" transform="translate(110.782016 0) scale(0.996264)"/>
      <use xlink:href="#NimbusSanL-Regu-61" transform="translate(142.961149 0) scale(0.996264)"/>
      <use xlink:href="#NimbusSanL-Regu-74" transform="translate(198.352826 0) scale(0.996264)"/>
      <use xlink:href="#NimbusSanL-Regu-69" transform="translate(226.047996 0) scale(0.996264)"/>
      <use xlink:href="#NimbusSanL-Regu-6f" transform="translate(248.16478 0) scale(0.996264)"/>
      <use xlink:href="#NimbusSanL-Regu-6e" transform="translate(303.556457 0) scale(0.996264)"/>
     </g>
    </g>
   </g>
   <g id="matplotlib.axis_2">
    <g id="ytick_1">
     <g id="line2d_6">
      <defs>
       <path id="m1cd5b2b01e" d="M 0 0 
L -3.5 0 
" style="stroke: #000000; stroke-width: 0.8"/>
      </defs>
      <g>
       <use xlink:href="#m1cd5b2b01e" x="37.567344" y="219.614752" style="stroke: #000000; stroke-width: 0.8"/>
      </g>
     </g>
     <g id="text_7">
      <!-- $\mathdefault{0}$ -->
      <g transform="translate(25.586009 223.163912) scale(0.1 -0.1)">
       <use xlink:href="#CMR17-30" transform="scale(0.996264)"/>
      </g>
     </g>
    </g>
    <g id="ytick_2">
     <g id="line2d_7">
      <g>
       <use xlink:href="#m1cd5b2b01e" x="37.567344" y="182.877146" style="stroke: #000000; stroke-width: 0.8"/>
      </g>
     </g>
     <g id="text_8">
      <!-- $\mathdefault{5}$ -->
      <g transform="translate(25.586009 186.426307) scale(0.1 -0.1)">
       <defs>
        <path id="CMR17-35" d="M 730 3750 
C 794 3724 1056 3641 1325 3641 
C 1920 3641 2246 3961 2432 4140 
C 2432 4191 2432 4224 2394 4224 
C 2387 4224 2374 4224 2323 4198 
C 2099 4102 1837 4032 1517 4032 
C 1325 4032 1037 4055 723 4191 
C 653 4224 640 4224 634 4224 
C 602 4224 595 4217 595 4090 
L 595 2231 
C 595 2113 595 2080 659 2080 
C 691 2080 704 2093 736 2139 
C 941 2435 1222 2560 1542 2560 
C 1766 2560 2246 2415 2246 1293 
C 2246 1087 2246 716 2054 422 
C 1894 159 1645 25 1370 25 
C 947 25 518 319 403 812 
C 429 806 480 793 506 793 
C 589 793 749 838 749 1036 
C 749 1209 627 1280 506 1280 
C 358 1280 262 1190 262 1011 
C 262 454 704 -128 1382 -128 
C 2042 -128 2669 441 2669 1267 
C 2669 2054 2170 2662 1549 2662 
C 1222 2662 947 2540 730 2304 
L 730 3750 
z
" transform="scale(0.015625)"/>
       </defs>
       <use xlink:href="#CMR17-35" transform="scale(0.996264)"/>
      </g>
     </g>
    </g>
    <g id="ytick_3">
     <g id="line2d_8">
      <g>
       <use xlink:href="#m1cd5b2b01e" x="37.567344" y="146.139541" style="stroke: #000000; stroke-width: 0.8"/>
      </g>
     </g>
     <g id="text_9">
      <!-- $\mathdefault{10}$ -->
      <g transform="translate(20.604674 149.688701) scale(0.1 -0.1)">
       <use xlink:href="#CMR17-31" transform="scale(0.996264)"/>
       <use xlink:href="#CMR17-30" transform="translate(45.690477 0) scale(0.996264)"/>
      </g>
     </g>
    </g>
    <g id="ytick_4">
     <g id="line2d_9">
      <g>
       <use xlink:href="#m1cd5b2b01e" x="37.567344" y="109.401935" style="stroke: #000000; stroke-width: 0.8"/>
      </g>
     </g>
     <g id="text_10">
      <!-- $\mathdefault{15}$ -->
      <g transform="translate(20.604674 112.951095) scale(0.1 -0.1)">
       <use xlink:href="#CMR17-31" transform="scale(0.996264)"/>
       <use xlink:href="#CMR17-35" transform="translate(45.690477 0) scale(0.996264)"/>
      </g>
     </g>
    </g>
    <g id="ytick_5">
     <g id="line2d_10">
      <g>
       <use xlink:href="#m1cd5b2b01e" x="37.567344" y="72.664329" style="stroke: #000000; stroke-width: 0.8"/>
      </g>
     </g>
     <g id="text_11">
      <!-- $\mathdefault{20}$ -->
      <g transform="translate(20.604674 76.213489) scale(0.1 -0.1)">
       <use xlink:href="#CMR17-32" transform="scale(0.996264)"/>
       <use xlink:href="#CMR17-30" transform="translate(45.690477 0) scale(0.996264)"/>
      </g>
     </g>
    </g>
    <g id="ytick_6">
     <g id="line2d_11">
      <g>
       <use xlink:href="#m1cd5b2b01e" x="37.567344" y="35.926724" style="stroke: #000000; stroke-width: 0.8"/>
      </g>
     </g>
     <g id="text_12">
      <!-- $\mathdefault{25}$ -->
      <g transform="translate(20.604674 39.475884) scale(0.1 -0.1)">
       <use xlink:href="#CMR17-32" transform="scale(0.996264)"/>
       <use xlink:href="#CMR17-35" transform="translate(45.690477 0) scale(0.996264)"/>
      </g>
     </g>
    </g>
    <g id="text_13">
     <!-- Average CFL - Blade_20 -->
     <g transform="translate(14.482687 171.548902) rotate(-90) scale(0.1 -0.1)">
      <defs>
       <path id="NimbusSanL-Regu-41" d="M 3034 1408 
L 3514 0 
L 4179 0 
L 2541 4672 
L 1773 4672 
L 109 0 
L 742 0 
L 1235 1408 
L 3034 1408 
z
M 2867 1907 
L 1382 1907 
L 2150 4032 
L 2867 1907 
z
" transform="scale(0.015625)"/>
       <path id="NimbusSanL-Regu-76" d="M 1824 0 
L 3110 3328 
L 2509 3328 
L 1562 629 
L 666 3328 
L 64 3328 
L 1242 0 
L 1824 0 
z
" transform="scale(0.015625)"/>
       <path id="NimbusSanL-Regu-67" d="M 2637 3359 
L 2637 2873 
C 2368 3270 2042 3456 1613 3456 
C 762 3456 186 2714 186 1632 
C 186 1084 333 638 608 320 
C 858 38 1216 -128 1568 -128 
C 1990 -128 2285 51 2586 473 
L 2586 300 
C 2586 -155 2528 -441 2394 -634 
C 2253 -841 1978 -960 1651 -960 
C 1408 -960 1190 -894 1043 -774 
C 922 -674 870 -581 838 -375 
L 294 -375 
C 352 -1031 845 -1408 1632 -1408 
C 2131 -1408 2560 -1248 2778 -980 
C 3034 -661 3130 -222 3130 568 
L 3130 3359 
L 2637 3359 
z
M 1670 2963 
C 2246 2963 2586 2479 2586 1644 
C 2586 848 2240 364 1677 364 
C 1094 364 742 855 742 1663 
C 742 2466 1101 2963 1670 2963 
z
" transform="scale(0.015625)"/>
       <path id="NimbusSanL-Regu-43" d="M 4237 3219 
C 4051 4236 3462 4736 2438 4736 
C 1811 4736 1306 4537 960 4154 
C 538 3696 307 3035 307 2284 
C 307 1522 544 867 986 415 
C 1344 44 1805 -128 2413 -128 
C 3552 -128 4192 485 4333 1712 
L 3718 1712 
C 3667 1394 3603 1178 3507 994 
C 3315 612 2918 396 2419 396 
C 1491 396 902 1134 902 2291 
C 902 3480 1466 4211 2368 4211 
C 2746 4211 3098 4096 3290 3918 
C 3462 3759 3558 3562 3629 3219 
L 4237 3219 
z
" transform="scale(0.015625)"/>
       <path id="NimbusSanL-Regu-46" d="M 1171 2112 
L 3398 2112 
L 3398 2636 
L 1171 2636 
L 1171 4147 
L 3706 4147 
L 3706 4672 
L 576 4672 
L 576 0 
L 1171 0 
L 1171 2112 
z
" transform="scale(0.015625)"/>
       <path id="NimbusSanL-Regu-4c" d="M 1107 4672 
L 512 4672 
L 512 0 
L 3411 0 
L 3411 524 
L 1107 524 
L 1107 4672 
z
" transform="scale(0.015625)"/>
       <path id="NimbusSanL-Regu-2d" d="M 1818 1996 
L 294 1996 
L 294 1536 
L 1818 1536 
L 1818 1996 
z
" transform="scale(0.015625)"/>
       <path id="NimbusSanL-Regu-42" d="M 506 0 
L 2611 0 
C 3053 0 3379 121 3629 390 
C 3859 632 3987 961 3987 1321 
C 3987 1878 3731 2214 3136 2444 
C 3558 2643 3782 2994 3782 3476 
C 3782 3821 3654 4127 3411 4345 
C 3168 4569 2848 4672 2400 4672 
L 506 4672 
L 506 0 
z
M 1101 2636 
L 1101 4147 
L 2253 4147 
C 2586 4147 2771 4101 2931 3977 
C 3098 3847 3187 3652 3187 3391 
C 3187 3138 3098 2936 2931 2806 
C 2771 2682 2586 2636 2253 2636 
L 1101 2636 
z
M 1101 524 
L 1101 2112 
L 2554 2112 
C 2842 2112 3034 2042 3174 1890 
C 3315 1745 3392 1542 3392 1315 
C 3392 1093 3315 891 3174 746 
C 3034 594 2842 524 2554 524 
L 1101 524 
z
" transform="scale(0.015625)"/>
       <path id="NimbusSanL-Regu-6c" d="M 973 4672 
L 435 4672 
L 435 0 
L 973 0 
L 973 4672 
z
" transform="scale(0.015625)"/>
       <path id="NimbusSanL-Regu-64" d="M 3168 4672 
L 2637 4672 
L 2637 2937 
C 2413 3276 2054 3456 1606 3456 
C 736 3456 166 2759 166 1695 
C 166 568 723 -128 1626 -128 
C 2086 -128 2406 44 2694 460 
L 2694 19 
L 3168 19 
L 3168 4672 
z
M 1696 2956 
C 2272 2956 2637 2447 2637 1651 
C 2637 880 2266 371 1702 371 
C 1114 371 723 887 723 1663 
C 723 2440 1114 2956 1696 2956 
z
" transform="scale(0.015625)"/>
       <path id="NimbusSanL-Regu-32" d="M 3238 556 
L 851 556 
C 909 928 1114 1165 1670 1493 
L 2310 1839 
C 2944 2185 3270 2653 3270 3211 
C 3270 3589 3117 3942 2848 4185 
C 2579 4428 2246 4544 1818 4544 
C 1242 4544 813 4339 563 3955 
C 403 3711 333 3429 320 2967 
L 883 2967 
C 902 3275 941 3461 1018 3608 
C 1165 3884 1459 4051 1798 4051 
C 2310 4051 2694 3685 2694 3198 
C 2694 2839 2483 2531 2080 2300 
L 1491 1967 
C 544 1428 269 999 218 0 
L 3238 0 
L 3238 556 
z
" transform="scale(0.015625)"/>
       <path id="NimbusSanL-Regu-30" d="M 1760 4544 
C 1338 4544 954 4358 717 4044 
C 422 3649 275 3043 275 2207 
C 275 683 787 -128 1760 -128 
C 2720 -128 3245 683 3245 2169 
C 3245 3049 3104 3636 2803 4044 
C 2566 4364 2189 4544 1760 4544 
z
M 1760 4044 
C 2368 4044 2669 3432 2669 2220 
C 2669 938 2374 339 1747 339 
C 1152 339 851 964 851 2201 
C 851 3438 1152 4044 1760 4044 
z
" transform="scale(0.015625)"/>
      </defs>
      <use xlink:href="#NimbusSanL-Regu-41" transform="scale(0.996264)"/>
      <use xlink:href="#NimbusSanL-Regu-76" transform="translate(62.465918 0) scale(0.996264)"/>
      <use xlink:href="#NimbusSanL-Regu-65" transform="translate(109.788488 0) scale(0.996264)"/>
      <use xlink:href="#NimbusSanL-Regu-72" transform="translate(165.180165 0) scale(0.996264)"/>
      <use xlink:href="#NimbusSanL-Regu-61" transform="translate(197.359298 0) scale(0.996264)"/>
      <use xlink:href="#NimbusSanL-Regu-67" transform="translate(252.750975 0) scale(0.996264)"/>
      <use xlink:href="#NimbusSanL-Regu-65" transform="translate(308.142652 0) scale(0.996264)"/>
      <use xlink:href="#NimbusSanL-Regu-43" transform="translate(391.229499 0) scale(0.996264)"/>
      <use xlink:href="#NimbusSanL-Regu-46" transform="translate(463.159484 0) scale(0.996264)"/>
      <use xlink:href="#NimbusSanL-Regu-4c" transform="translate(524.031114 0) scale(0.996264)"/>
      <use xlink:href="#NimbusSanL-Regu-2d" transform="translate(607.117961 0) scale(0.996264)"/>
      <use xlink:href="#NimbusSanL-Regu-42" transform="translate(667.98836 0) scale(0.996264)"/>
      <use xlink:href="#NimbusSanL-Regu-6c" transform="translate(734.438391 0) scale(0.996264)"/>
      <use xlink:href="#NimbusSanL-Regu-61" transform="translate(756.555176 0) scale(0.996264)"/>
      <use xlink:href="#NimbusSanL-Regu-64" transform="translate(811.946853 0) scale(0.996264)"/>
      <use xlink:href="#NimbusSanL-Regu-65" transform="translate(867.33853 0) scale(0.996264)"/>
      <use xlink:href="#NimbusSanL-Regu-32" transform="translate(958.595772 0) scale(0.996264)"/>
      <use xlink:href="#NimbusSanL-Regu-30" transform="translate(1013.987449 0) scale(0.996264)"/>
      <path d="M 928.707548 0 
L 958.595772 0 
L 958.595772 0.3985 
L 928.707548 0.3985 
L 928.707548 0 
z
"/>
     </g>
    </g>
   </g>
   <g id="line2d_12">
    <path d="M 52.785526 114.772978 
L 52.926697 70.624734 
L 52.997282 204.71575 
L 53.067867 201.73595 
L 53.350208 182.541268 
L 53.632549 142.739175 
L 53.91489 60.716428 
L 53.985476 203.72492 
L 54.056061 200.546953 
L 54.338402 180.075764 
L 54.620743 137.626707 
L 54.903084 49.792694 
L 54.973669 202.632546 
L 55.044254 199.236105 
L 55.326596 177.35759 
L 55.608937 132.005073 
L 55.961863 68.511278 
L 56.173619 68.511278 
L 56.244204 39.053449 
L 56.314789 201.558622 
L 56.385374 197.947396 
L 56.667715 174.685322 
L 56.950056 126.467387 
L 57.161812 58.824163 
L 57.232398 203.535693 
L 57.302983 200.319881 
L 57.585324 179.604908 
L 57.867665 136.650597 
L 58.150006 76.276063 
L 58.220591 205.280883 
L 58.291176 202.414109 
L 58.573517 183.947499 
L 58.855858 145.655366 
L 59.067614 91.830831 
L 59.1382 206.83636 
L 59.208785 204.280682 
L 59.491126 187.818023 
L 59.773467 153.681056 
L 60.126393 82.949824 
L 60.196978 205.948259 
L 60.267564 203.214961 
L 60.549905 185.608145 
L 60.832246 149.099168 
L 61.044001 97.767629 
L 61.114587 207.43004 
L 61.185172 204.993097 
L 61.467513 189.295289 
L 61.749854 156.744313 
L 61.96161 110.974633 
L 62.032195 208.75074 
L 62.10278 206.577938 
L 62.385121 192.581614 
L 62.667462 163.558837 
L 62.949803 103.377207 
L 63.090974 52.235366 
L 63.161559 202.876814 
L 63.232145 199.529226 
L 63.514486 177.965405 
L 63.796827 133.250666 
L 64.079168 40.554559 
L 64.149753 201.708733 
L 64.220338 198.127529 
L 64.502679 175.058846 
L 64.78502 127.223626 
L 64.926191 86.57153 
L 64.996776 206.31043 
L 65.067361 203.649565 
L 65.349702 186.509341 
L 65.632043 150.967372 
L 65.843799 100.992079 
L 65.914384 207.752485 
L 65.98497 205.380031 
L 66.267311 190.097635 
L 66.549652 158.408058 
L 66.831993 92.696552 
L 66.902578 206.922932 
L 66.973163 204.384568 
L 67.255504 188.033442 
L 67.537845 154.127748 
L 67.820186 83.820901 
L 67.890772 56.662131 
L 67.961357 203.31949 
L 68.031942 200.060438 
L 68.314283 179.066926 
L 68.596624 135.534779 
L 68.80838 74.324558 
L 68.878965 205.085733 
L 68.94955 202.179929 
L 69.231892 183.461903 
L 69.514233 144.648203 
L 69.796574 64.164117 
L 69.867159 33.07399 
L 69.937744 200.960676 
L 70.008329 197.229861 
L 70.29067 173.197441 
L 70.573011 123.363816 
L 70.855352 20.028811 
L 70.925938 199.656158 
L 70.996523 195.664439 
L 71.278864 169.951383 
L 71.561205 116.63279 
L 71.772961 41.661922 
L 71.843546 201.819469 
L 71.914131 198.260413 
L 72.196472 175.334394 
L 72.478813 127.795001 
L 72.761154 60.950221 
L 72.83174 203.748299 
L 72.902325 200.575008 
L 73.184666 180.13394 
L 73.467007 137.747339 
L 73.608178 101.725678 
L 73.678763 207.825845 
L 73.749348 205.468063 
L 74.031689 190.280178 
L 74.31403 158.786579 
L 74.455201 132.022183 
L 74.525786 210.855495 
L 74.596371 209.103644 
L 74.878712 197.818918 
L 75.161053 174.41891 
L 75.443394 125.896655 
L 75.51398 210.242942 
L 75.584565 208.36858 
L 75.866906 196.294691 
L 76.149247 171.258272 
L 76.431588 119.342756 
L 76.502173 99.29706 
L 76.572758 207.582983 
L 76.643344 205.176629 
L 76.925685 189.67586 
L 77.208026 157.533466 
L 77.490367 90.882996 
L 77.560952 206.741577 
L 77.631537 204.166941 
L 77.913878 187.582172 
L 78.196219 153.191994 
L 78.47856 81.88052 
L 78.549146 205.841329 
L 78.619731 203.086644 
L 78.902072 185.342068 
L 79.184413 148.546914 
L 79.466754 72.248482 
L 79.537339 42.775228 
L 79.607925 201.9308 
L 79.67851 198.394009 
L 79.960851 175.61142 
L 80.243192 128.369442 
L 80.525533 30.458258 
L 80.596118 200.699103 
L 80.666703 196.915973 
L 80.949045 172.546563 
L 81.231386 122.014156 
L 81.513727 17.28 
L 81.584312 199.381277 
L 81.654897 195.334582 
L 81.937238 169.267391 
L 82.219579 115.214464 
L 82.36075 69.278338 
L 82.431335 204.581111 
L 82.50192 201.574382 
L 82.784261 182.206241 
L 83.066602 142.044464 
L 83.278358 85.573295 
L 83.348943 206.210606 
L 83.419529 203.529777 
L 83.70187 186.260948 
L 83.984211 150.452304 
L 84.266552 76.1995 
L 84.337137 47.51645 
L 84.407722 202.404922 
L 84.478307 198.962956 
L 84.760648 176.791187 
L 85.04299 130.815808 
L 85.325331 35.481262 
L 85.395916 201.201403 
L 85.466501 197.518733 
L 85.748842 173.796448 
L 86.031183 124.605916 
L 86.242939 55.439483 
L 86.313524 203.197225 
L 86.384109 199.91372 
L 86.66645 178.762692 
L 86.948792 134.903919 
L 87.160547 73.234433 
L 87.231133 204.97672 
L 87.301718 202.049114 
L 87.584059 183.190645 
L 87.8664 144.085723 
L 88.148741 62.997757 
L 88.219326 203.953053 
L 88.289911 200.820713 
L 88.572252 180.643432 
L 88.854593 138.803823 
L 89.136935 52.045209 
L 89.20752 202.857798 
L 89.278105 199.506407 
L 89.560446 177.918087 
L 89.842787 133.152548 
L 90.125128 40.326726 
L 90.195713 201.68595 
L 90.266299 198.100189 
L 90.54864 175.002154 
L 90.830981 127.106069 
L 91.042737 59.759747 
L 91.113322 203.629252 
L 91.183907 200.432152 
L 91.466248 179.837712 
L 91.748589 137.133081 
L 92.03093 48.580759 
L 92.101515 202.511353 
L 92.172101 199.090673 
L 92.454442 177.056021 
L 92.736783 131.364968 
L 93.019124 36.62 
L 93.089709 201.315277 
L 93.160294 197.655382 
L 93.442635 174.079802 
L 93.724976 125.19348 
L 94.077903 23.822801 
L 94.148488 200.035557 
L 94.219073 196.119718 
L 94.501414 170.895449 
L 94.783755 118.590406 
L 94.995511 45.044682 
L 95.066096 202.157745 
L 95.136682 198.666344 
L 95.419023 176.176132 
L 95.701364 129.54043 
L 95.983705 32.836639 
L 96.05429 200.936941 
L 96.124875 197.201378 
L 96.407216 173.138381 
L 96.689557 123.241348 
L 96.901313 53.08151 
L 96.971898 202.961428 
L 97.042484 199.630763 
L 97.324825 178.175952 
L 97.607166 133.687257 
L 97.889507 41.435498 
L 97.960092 201.796827 
L 98.030677 198.233242 
L 98.313018 175.278052 
L 98.595359 127.678171 
L 98.948286 28.975057 
L 99.018871 200.550783 
L 99.089456 196.737989 
L 99.371797 172.177496 
L 99.654138 121.248857 
L 99.865894 49.638485 
L 99.936479 202.617125 
L 100.007064 199.2176 
L 100.289405 177.319218 
L 100.571746 131.910732 
L 100.924673 37.751696 
L 100.995258 201.428446 
L 101.065843 197.791185 
L 101.348184 174.361404 
L 101.630525 125.77741 
L 101.842281 57.463824 
L 101.912866 203.399659 
L 101.983452 200.156641 
L 102.265793 179.266412 
L 102.548134 135.948435 
L 102.830475 46.124277 
L 102.90106 202.265705 
L 102.971645 198.795895 
L 103.253986 176.44477 
L 103.536327 130.097478 
L 103.818668 33.991732 
L 103.889254 201.05245 
L 103.959839 197.33999 
L 104.24218 173.425805 
L 104.524521 123.837351 
L 104.736277 54.111402 
L 104.806862 203.064417 
L 104.877447 199.75435 
L 105.159788 178.432223 
L 105.442129 134.218659 
L 105.72447 42.537413 
L 105.795056 201.907018 
L 105.865641 198.365471 
L 106.147982 175.552244 
L 106.430323 128.246735 
L 106.783249 61.730818 
L 106.853835 61.730818 
L 106.92442 30.154031 
L 106.995005 200.66868 
L 107.06559 196.879466 
L 107.347931 172.470862 
L 107.630272 121.857182 
L 107.842028 50.68967 
L 107.912613 202.722244 
L 107.983199 199.343742 
L 108.26554 177.580786 
L 108.547881 132.45312 
L 108.830222 38.876392 
L 108.900807 201.540916 
L 108.971392 197.926149 
L 109.253733 174.641265 
L 109.536074 126.357728 
L 109.959586 26.236988 
L 110.030171 200.276976 
L 110.100756 196.40942 
L 110.383097 171.496176 
L 110.665438 119.836073 
L 110.877194 47.197195 
L 110.94778 202.372996 
L 111.018365 198.924645 
L 111.300706 176.711747 
L 111.583047 130.65108 
L 111.865388 35.139681 
L 111.935973 201.167245 
L 112.006558 197.477744 
L 112.288899 173.711451 
L 112.57124 124.429667 
L 112.994752 22.23896 
L 113.065337 199.877173 
L 113.135923 195.929657 
L 113.418264 170.501339 
L 113.700605 117.773179 
L 113.91236 43.632514 
L 113.982946 202.016528 
L 114.053531 198.496883 
L 114.335872 175.82474 
L 114.618213 128.811783 
L 114.971139 62.707221 
L 115.041725 62.707221 
L 115.11231 31.325714 
L 115.182895 200.785848 
L 115.25348 197.020068 
L 115.535821 172.762414 
L 115.818162 122.461744 
L 116.029918 51.734355 
L 116.100503 202.826712 
L 116.171089 199.469104 
L 116.45343 177.840737 
L 116.735771 132.992155 
L 117.018112 39.994134 
L 117.088697 201.65269 
L 117.159282 198.060278 
L 117.441623 174.919394 
L 117.723964 126.934458 
L 118.076891 27.432895 
L 118.147476 200.396566 
L 118.218061 196.552929 
L 118.500402 171.793756 
L 118.782743 120.453135 
L 118.994499 48.263478 
L 119.065084 202.479625 
L 119.13567 199.052599 
L 119.418011 176.977072 
L 119.700352 131.201258 
L 119.982693 36.280531 
L 120.053278 201.28133 
L 120.123863 197.614646 
L 120.406204 173.995331 
L 120.688545 125.018321 
L 121.041472 56.152119 
L 121.112057 56.152119 
L 121.182642 23.459593 
L 121.253227 199.999236 
L 121.323813 196.076133 
L 121.606154 170.805071 
L 121.888495 118.402998 
L 122.10025 44.720842 
L 122.170836 202.125361 
L 122.241421 198.627483 
L 122.523762 176.095551 
L 122.806103 129.373336 
L 123.088444 32.490151 
L 123.159029 200.902292 
L 123.229615 197.1598 
L 123.511956 173.052163 
L 123.794297 123.062568 
L 124.006052 52.772578 
L 124.076638 202.930535 
L 124.147223 199.593691 
L 124.429564 178.09908 
L 124.711905 133.527855 
L 124.994246 41.104962 
L 125.064831 201.763773 
L 125.135417 198.193577 
L 125.417758 175.195804 
L 125.700099 127.507622 
L 126.053025 60.453631 
L 126.12361 60.453631 
L 126.194195 28.621406 
L 126.264781 200.515418 
L 126.335366 196.695551 
L 126.617707 172.089496 
L 126.900048 121.066381 
L 127.111804 49.323167 
L 127.182389 202.585594 
L 127.252974 199.179762 
L 127.535315 177.240756 
L 127.817656 131.748034 
L 128.099997 37.414326 
L 128.170583 201.39471 
L 128.241168 197.750701 
L 128.523509 174.277456 
L 128.80585 125.603334 
L 129.017606 57.163022 
L 129.088191 203.369579 
L 129.158776 200.120545 
L 129.441117 179.191563 
L 129.723458 135.793228 
L 130.005799 45.802439 
L 130.076385 202.233521 
L 130.14697 198.757275 
L 130.429311 176.364687 
L 130.711652 129.931416 
L 130.923408 64.641948 
L 130.993993 204.117472 
L 131.064578 201.018016 
L 131.346919 181.052559 
L 131.62926 139.652189 
L 131.911601 53.804381 
L 131.982187 203.033715 
L 132.052772 199.717508 
L 132.335113 178.355826 
L 132.617454 134.060243 
L 132.899795 42.208922 
L 132.97038 201.874169 
L 133.040966 198.326052 
L 133.323307 175.470504 
L 133.605648 128.07724 
L 133.817403 61.437932 
L 133.887989 203.79707 
L 133.958574 200.633534 
L 134.240915 180.255298 
L 134.523256 137.998987 
L 134.805597 50.376302 
L 134.876182 202.690907 
L 134.946768 199.306138 
L 135.229109 177.50281 
L 135.51145 132.291429 
L 135.864376 38.541109 
L 135.934961 201.507388 
L 136.005546 197.885915 
L 136.287887 174.557835 
L 136.570229 126.18473 
L 136.923155 58.167673 
L 136.99374 58.167673 
L 137.064325 25.878258 
L 137.134911 200.241103 
L 137.205496 196.366373 
L 137.487837 171.406913 
L 137.770178 119.650976 
L 137.981934 46.877348 
L 138.052519 202.341012 
L 138.123104 198.886264 
L 138.405445 176.632158 
L 138.687786 130.486045 
L 138.970127 34.797466 
L 139.040713 201.133024 
L 139.111298 197.436678 
L 139.393639 173.626297 
L 139.67598 124.253092 
L 139.887736 54.829803 
L 139.958321 203.136257 
L 140.028906 199.840558 
L 140.311247 178.610984 
L 140.593588 134.589338 
L 140.875929 43.306054 
L 140.946515 201.983882 
L 141.0171 198.457708 
L 141.299441 175.743506 
L 141.581782 128.643336 
L 141.934708 30.976424 
L 142.005293 200.750919 
L 142.075879 196.978153 
L 142.35822 172.6755 
L 142.640561 122.281518 
L 142.852317 51.422924 
L 142.922902 202.795569 
L 142.993487 199.431733 
L 143.275828 177.763243 
L 143.558169 132.831463 
L 143.84051 39.660924 
L 143.911095 201.619369 
L 143.981681 198.020293 
L 144.264022 174.836481 
L 144.546363 126.762529 
L 144.758119 59.166111 
L 144.828704 203.569888 
L 144.899289 200.360915 
L 145.18163 179.689996 
L 145.463971 136.826778 
L 145.746312 47.945608 
L 145.816897 202.447838 
L 145.887483 199.014455 
L 146.169824 176.897976 
L 146.452165 131.037245 
L 146.734506 35.940433 
L 146.805091 201.24732 
L 146.875676 197.573834 
L 147.158017 173.910704 
L 147.440358 124.842838 
L 147.652114 55.848884 
L 147.722699 203.238165 
L 147.793285 199.962848 
L 148.075626 178.864564 
L 148.357967 135.115161 
L 148.640308 44.3964 
L 148.710893 202.092917 
L 148.781478 198.58855 
L 149.063819 176.014819 
L 149.34616 129.205931 
L 149.557916 63.38831 
L 149.628501 203.992108 
L 149.699087 200.867579 
L 149.981428 180.740614 
L 150.263769 139.005339 
L 150.54611 52.463074 
L 150.616695 202.899584 
L 150.68728 199.556551 
L 150.969621 178.022066 
L 151.251962 133.368158 
L 151.534303 40.773814 
L 151.604889 201.730658 
L 151.675474 198.153839 
L 151.957815 175.113404 
L 152.240156 127.336756 
L 152.451912 60.158375 
L 152.522497 203.669114 
L 152.593082 200.479987 
L 152.875423 179.936903 
L 153.157764 137.338764 
L 153.440105 49.007263 
L 153.510691 202.554003 
L 153.581276 199.141853 
L 153.863617 177.162149 
L 154.145958 131.585035 
L 154.428299 37.076331 
L 154.498884 201.36091 
L 154.56947 197.710142 
L 154.851811 174.193352 
L 155.134152 125.428936 
L 155.345907 56.861662 
L 155.416493 203.339443 
L 155.487078 200.084381 
L 155.769419 179.116575 
L 156.05176 135.637733 
L 156.334101 45.480004 
L 156.404686 202.201277 
L 156.475272 198.718582 
L 156.757613 176.284455 
L 157.039954 129.765047 
L 157.39288 33.302404 
L 157.463465 200.983517 
L 157.53405 197.25727 
L 157.816391 173.254278 
L 158.098732 123.481673 
L 158.310488 53.496791 
L 158.381074 203.002956 
L 158.451659 199.680597 
L 158.734 178.279288 
L 159.016341 133.901533 
L 159.298682 41.879821 
L 159.369267 201.841259 
L 159.439852 198.28656 
L 159.722193 175.388614 
L 160.004534 127.907431 
L 160.357461 29.450452 
L 160.428046 200.598322 
L 160.498631 196.795036 
L 160.780972 172.295789 
L 161.063313 121.49415 
L 161.275069 50.062352 
L 161.345654 202.659512 
L 161.41624 199.268464 
L 161.698581 177.424689 
L 161.980922 132.129438 
L 162.263263 38.205204 
L 162.333848 201.473797 
L 162.404433 197.845606 
L 162.686774 174.474251 
L 162.969115 126.01141 
L 163.322042 57.868177 
L 163.604383 57.868177 
L 163.674968 25.518862 
L 163.745553 200.205163 
L 163.816138 196.323245 
L 164.098479 171.317484 
L 164.380821 119.465536 
L 164.592576 46.556907 
L 164.663162 202.308968 
L 164.733747 198.847811 
L 165.016088 176.552422 
L 165.298429 130.320705 
L 165.58077 34.454616 
L 165.651355 201.098739 
L 165.72194 197.395536 
L 166.004281 173.540985 
L 166.286623 124.076189 
L 166.639549 54.524115 
L 168.051254 54.524115 
L 168.121839 203.105688 
L 168.192424 199.803876 
L 168.474766 178.534919 
L 168.757107 134.43161 
L 169.039448 42.978988 
L 169.110033 201.951176 
L 169.180618 198.41846 
L 169.462959 175.662122 
L 169.7453 128.474578 
L 170.098226 62.12453 
L 170.168812 62.12453 
L 170.239397 30.626486 
L 170.309982 200.715925 
L 170.380568 196.93616 
L 170.662909 172.588424 
L 170.94525 122.100958 
L 171.157005 51.110916 
L 171.227591 202.764368 
L 171.298176 199.394292 
L 171.580517 177.685605 
L 171.862858 132.670474 
L 172.145199 39.327096 
L 172.215784 201.585987 
L 172.28637 197.980233 
L 172.568711 174.753414 
L 172.851052 126.590282 
L 173.062807 58.868467 
L 173.133393 203.540124 
L 173.203978 200.325198 
L 173.486319 179.615933 
L 173.76866 136.6732 
L 174.051001 47.627149 
L 174.121586 202.415992 
L 174.192172 198.97624 
L 174.474513 176.818733 
L 174.756854 130.872927 
L 174.968609 66.268878 
L 175.039195 204.280165 
L 175.10978 201.213247 
L 175.392121 181.457392 
L 175.674462 140.491649 
L 175.956803 55.545086 
L 176.027388 203.207786 
L 176.097973 199.926392 
L 176.380315 178.788969 
L 176.662656 134.958408 
L 177.086167 44.071357 
L 177.156752 202.060413 
L 177.227338 198.549545 
L 177.509679 175.933938 
L 177.79202 129.038216 
L 178.003775 63.098498 
L 178.074361 203.963127 
L 178.144946 200.832802 
L 178.427287 180.6685 
L 178.709628 138.855803 
L 178.991969 52.152995 
L 179.062554 202.868576 
L 179.13314 199.519341 
L 179.415481 177.944908 
L 179.697822 133.208164 
L 180.050748 70.304167 
L 180.121333 70.304167 
L 180.191919 40.44205 
L 180.262504 201.697482 
L 180.333089 198.114028 
L 180.61543 175.03085 
L 180.897771 127.165573 
L 181.109527 59.862571 
L 181.180112 203.639534 
L 181.250697 200.44449 
L 181.533038 179.863297 
L 181.815379 137.186136 
L 182.09772 48.690773 
L 182.168306 202.522354 
L 182.238891 199.103875 
L 182.521232 177.083397 
L 182.803573 131.421733 
L 183.156499 67.217216 
L 191.767901 67.217216 
L 191.838486 204.374998 
L 191.909071 201.327048 
L 192.191413 181.693368 
L 192.473754 140.980971 
L 192.756095 56.559743 
L 192.82668 203.309251 
L 192.897265 200.048151 
L 193.179606 179.041448 
L 193.461947 135.481949 
L 193.814873 74.233268 
L 193.956044 74.233268 
L 194.026629 45.156971 
L 194.097215 202.168974 
L 194.1678 198.679818 
L 194.450141 176.204074 
L 194.732482 129.598369 
L 194.944238 64.066442 
L 195.014823 204.059921 
L 195.085408 200.948955 
L 195.367749 180.909355 
L 195.65009 139.355241 
L 195.932431 53.18863 
L 196.003017 202.97214 
L 196.073602 199.643617 
L 196.355943 178.202607 
L 196.638284 133.742528 
L 196.99121 71.22755 
L 198.120574 71.22755 
L 198.19116 41.550109 
L 198.261745 201.808288 
L 198.33233 198.246995 
L 198.614671 175.306571 
L 198.897012 127.737307 
L 199.108768 60.850528 
L 199.179353 203.73833 
L 199.249938 200.563045 
L 199.532279 180.109133 
L 199.81462 137.6959 
L 200.096962 49.74782 
L 200.167547 202.628059 
L 200.238132 199.23072 
L 200.520473 177.346424 
L 200.802814 131.967146 
L 201.15574 68.159689 
L 201.861593 68.159689 
L 201.932178 37.868676 
L 202.002764 201.440145 
L 202.073349 197.805223 
L 202.35569 174.390513 
L 202.638031 125.837769 
L 202.849787 57.568125 
L 202.920372 203.410089 
L 202.990957 200.169157 
L 203.273298 179.292366 
L 203.555639 136.002252 
L 203.83798 46.235872 
L 203.908565 202.276864 
L 203.979151 198.809286 
L 204.261492 176.472539 
L 204.543833 130.155058 
L 204.826174 34.11113 
L 204.896759 201.06439 
L 204.967344 197.354318 
L 205.249685 173.455515 
L 205.532026 123.898958 
L 205.743782 54.21786 
L 205.814367 203.075063 
L 205.884953 199.767125 
L 206.167294 178.458713 
L 206.449635 134.273589 
L 206.731976 42.651315 
L 206.802561 201.918408 
L 206.873146 198.37914 
L 207.155487 175.580586 
L 207.437828 128.305506 
L 207.86134 30.275899 
L 207.931925 200.680867 
L 208.002511 196.89409 
L 208.284852 172.501187 
L 208.567193 121.920063 
L 208.778948 50.798329 
L 208.849534 202.73311 
L 208.920119 199.356781 
L 209.20246 177.607824 
L 209.484801 132.509186 
L 209.767142 38.992649 
L 209.837727 201.552542 
L 209.908313 197.9401 
L 210.190654 174.670193 
L 210.472995 126.417714 
L 210.825921 58.570271 
L 212.237626 58.570271 
L 212.308211 26.361375 
L 212.378797 200.289414 
L 212.449382 196.424347 
L 212.731723 171.527128 
L 213.014064 119.900254 
L 213.22582 47.3081 
L 213.296405 202.384087 
L 213.36699 198.937954 
L 213.649331 176.739343 
L 213.931672 130.708304 
L 214.214013 35.258342 
L 214.284599 201.179111 
L 214.355184 197.491983 
L 214.637525 173.740978 
L 214.919866 124.490894 
L 215.131622 55.240725 
L 215.202207 203.177349 
L 215.272792 199.889869 
L 215.555133 178.713234 
L 215.837474 134.801364 
L 216.119815 43.745711 
L 216.190401 202.027848 
L 216.260986 198.510467 
L 216.543327 175.852907 
L 216.825668 128.87019 
L 217.178594 31.446828 
L 217.249179 200.79796 
L 217.319765 197.034601 
L 217.602106 172.792551 
L 217.884447 122.524236 
L 218.096203 51.842341 
L 218.166788 202.837511 
L 218.237373 199.482063 
L 218.519714 177.867607 
L 218.802055 133.047873 
L 219.084396 40.109672 
L 219.154981 201.664244 
L 219.225567 198.074142 
L 219.507908 174.948144 
L 219.790249 126.994073 
L 220.002005 59.566219 
L 220.07259 203.609899 
L 220.143175 200.408928 
L 220.425516 179.789556 
L 220.707857 137.033225 
L 220.990198 48.373697 
L 221.060783 202.490647 
L 221.131369 199.065825 
L 221.41371 177.004498 
L 221.696051 131.258129 
L 221.978392 36.398458 
L 222.048977 201.293123 
L 222.119562 197.628797 
L 222.401903 174.024675 
L 222.684244 125.079169 
L 223.107756 23.585766 
L 223.178341 200.011854 
L 223.248926 196.091274 
L 223.531267 170.836467 
L 223.813609 118.468101 
L 224.025364 44.833339 
L 224.09595 202.136611 
L 224.166535 198.640983 
L 224.448876 176.123544 
L 224.731217 129.431382 
L 225.013558 32.610516 
L 225.084143 200.914329 
L 225.154728 197.174244 
L 225.437069 173.082114 
L 225.71941 123.124674 
L 225.931166 52.879897 
L 226.001752 202.941267 
L 226.072337 199.606569 
L 226.354678 178.125785 
L 226.637019 133.583229 
L 226.91936 41.219786 
L 226.989945 201.775255 
L 227.06053 198.207356 
L 227.342871 175.224376 
L 227.625212 127.566868 
L 227.978139 28.744259 
L 228.048724 200.527703 
L 228.119309 196.710293 
L 228.40165 172.120066 
L 228.683991 121.12977 
L 228.895747 49.432704 
L 228.966332 202.596547 
L 229.036918 199.192906 
L 229.319259 177.268013 
L 229.6016 131.804553 
L 229.883941 37.531524 
L 229.954526 201.406429 
L 230.025111 197.764765 
L 230.307452 174.306618 
L 230.589793 125.663806 
L 230.94272 57.267516 
L 233.907301 57.267516 
L 233.977886 24.798069 
L 234.048471 200.133084 
L 234.119056 196.23675 
L 234.401397 171.138127 
L 234.683738 119.093623 
L 234.895494 45.914241 
L 234.966079 202.244701 
L 235.036665 198.770691 
L 235.319006 176.392507 
L 235.601347 129.989104 
L 235.883688 33.767007 
L 235.954273 201.029978 
L 236.024858 197.313023 
L 236.307199 173.369886 
L 236.58954 123.721398 
L 236.801296 53.911036 
L 236.871881 203.044381 
L 236.942467 199.730306 
L 237.224808 178.382365 
L 237.507149 134.115274 
L 237.78949 42.323035 
L 237.860075 201.88558 
L 237.93066 198.339746 
L 238.213001 175.4989 
L 238.495342 128.13612 
L 238.707098 61.539676 
L 238.777683 203.807245 
L 238.848269 200.645743 
L 239.13061 180.280615 
L 239.412951 138.051485 
L 239.695292 50.485161 
L 239.765877 202.701793 
L 239.836462 199.319201 
L 240.118803 177.529898 
L 240.401144 132.347598 
L 240.683485 38.657582 
L 240.754071 201.519035 
L 240.824656 197.899892 
L 241.106997 174.586818 
L 241.389338 126.244827 
L 241.742264 58.271521 
L 242.801043 58.271521 
L 242.871628 203.480429 
L 242.942214 200.253564 
L 243.224555 179.467393 
L 243.506896 136.365189 
L 243.789237 46.988458 
L 243.859822 202.352123 
L 243.930407 198.899597 
L 244.212748 176.659806 
L 244.495089 130.543376 
L 244.706845 65.699414 
L 244.77743 204.223218 
L 244.848016 201.144912 
L 245.130357 181.315691 
L 245.412698 140.197818 
L 245.695039 54.935799 
L 245.765624 203.146857 
L 245.836209 199.853278 
L 246.11855 178.637359 
L 246.400891 134.644029 
L 246.753818 72.785343 
L 246.824403 72.785343 
L 246.894988 43.419461 
L 246.965573 201.995223 
L 247.036159 198.471317 
L 247.3185 175.771725 
L 247.600841 128.701852 
L 247.812597 62.517261 
L 247.883182 203.905003 
L 247.953767 200.763053 
L 248.236108 180.523869 
L 248.518449 138.555897 
L 248.80079 51.531111 
L 248.871375 202.806388 
L 248.941961 199.444715 
L 249.224302 177.790163 
L 249.506643 132.887285 
L 249.718399 69.749689 
L 249.788984 204.628246 
L 249.859569 201.630945 
L 250.14191 182.323529 
L 250.424251 142.287671 
L 250.706592 59.269317 
L 250.777177 203.580209 
L 250.847763 200.3733 
L 251.130104 179.715677 
L 251.412445 136.88003 
L 251.694786 48.056032 
L 251.765371 202.45888 
L 251.835956 199.027706 
L 252.118297 176.925453 
L 252.400638 131.094221 
L 252.753565 36.058578 
L 252.82415 201.259135 
L 252.894735 197.588011 
L 253.177076 173.940102 
L 253.459417 124.903798 
L 253.671173 55.954224 
L 253.741758 203.248699 
L 253.812344 199.975489 
L 254.094685 178.890775 
L 254.377026 135.169514 
L 254.729952 44.509107 
L 254.800537 202.104188 
L 254.871122 198.602075 
L 255.153463 176.042864 
L 255.435804 129.264085 
L 255.64756 63.4888 
L 255.718146 204.002157 
L 255.788731 200.879638 
L 256.071072 180.765619 
L 256.353413 139.05719 
L 256.635754 52.570591 
L 256.706339 202.910336 
L 256.776924 199.569453 
L 257.059265 178.048819 
L 257.341606 133.423634 
L 257.553362 70.6765 
L 257.623948 204.720927 
L 257.694533 201.742162 
L 257.976874 182.554149 
L 258.259215 142.765886 
L 258.541556 60.260942 
L 258.612141 203.679371 
L 258.682726 200.492295 
L 258.965067 179.962425 
L 259.247408 137.391687 
L 259.600335 49.117003 
L 259.67092 202.564977 
L 259.741505 199.155022 
L 260.023846 177.189456 
L 260.306187 131.641659 
L 260.517943 67.597247 
L 260.588528 204.413002 
L 260.659114 201.372651 
L 260.941455 181.787932 
L 261.223796 141.177058 
L 261.506137 56.96635 
L 261.576722 203.349912 
L 261.647307 200.096944 
L 261.929648 179.142625 
L 262.211989 135.691749 
L 262.49433 45.592013 
L 262.564916 202.212478 
L 262.635501 198.732023 
L 262.917842 176.312326 
L 263.200183 129.822841 
L 263.411939 64.45433 
L 263.482524 204.09871 
L 263.553109 200.995501 
L 263.83545 181.005874 
L 264.117791 139.555383 
L 264.400132 53.603643 
L 264.470718 203.013641 
L 264.541303 199.693419 
L 264.823644 178.305876 
L 265.105985 133.956666 
L 265.458911 71.59758 
L 268.352907 71.59758 
L 268.423492 204.813035 
L 268.494077 201.852691 
L 268.776418 182.783343 
L 269.058759 143.241142 
L 269.3411 61.246435 
L 269.411686 203.77792 
L 269.482271 200.610554 
L 269.764612 180.207647 
L 270.046953 137.900179 
L 270.399879 50.171413 
L 270.470465 202.670418 
L 270.54105 199.281551 
L 270.823391 177.451827 
L 271.105732 132.185711 
L 271.317488 68.537369 
L 271.388073 204.507014 
L 271.458658 201.485466 
L 271.740999 182.021865 
L 272.02334 141.662141 
L 272.305681 57.972218 
L 272.376267 203.450499 
L 272.446852 200.217648 
L 272.729193 179.392917 
L 273.011534 136.210755 
L 273.293875 46.668223 
L 273.36446 202.320099 
L 273.435046 198.861169 
L 273.717387 176.580121 
L 273.999728 130.378142 
L 274.211483 65.41389 
L 274.282069 204.194666 
L 274.352654 201.110649 
L 274.634995 181.244643 
L 274.917336 140.050494 
L 275.199677 54.630307 
L 275.270262 203.116308 
L 275.340848 199.816619 
L 275.623189 178.561343 
L 275.90553 134.486402 
L 276.117285 72.512963 
L 276.187871 204.904573 
L 276.258456 201.962537 
L 276.540797 183.01112 
L 276.823138 143.71346 
L 277.105479 62.225833 
L 277.176064 203.87586 
L 277.246649 200.728082 
L 277.528991 180.451353 
L 277.811332 138.405527 
L 278.093673 51.219303 
L 278.164258 202.775207 
L 278.234843 199.407298 
L 278.517184 177.712576 
L 278.799525 132.726399 
L 279.011281 69.471678 
L 279.081866 204.600445 
L 279.152451 201.597583 
L 279.434793 182.254351 
L 279.717134 142.144224 
L 279.999475 58.971865 
L 280.07006 203.550463 
L 280.140645 200.337606 
L 280.422986 179.641661 
L 280.705327 136.726551 
L 281.128839 47.737778 
L 281.199424 202.427055 
L 281.270009 198.989515 
L 281.55235 176.846261 
L 281.834691 130.930008 
L 282.046447 66.367515 
L 282.117032 204.290028 
L 282.187618 201.225084 
L 282.469959 181.481936 
L 282.7523 140.542544 
L 283.034641 55.650621 
L 283.105226 203.218339 
L 283.175811 199.939056 
L 283.458152 178.815229 
L 283.740493 135.012862 
L 283.952249 73.422686 
L 284.022834 204.995545 
L 284.09342 202.071704 
L 284.375761 183.237488 
L 284.658102 144.182857 
L 284.940443 63.199174 
L 285.011028 203.973194 
L 285.081613 200.844883 
L 285.363954 180.693551 
L 285.646295 138.90775 
L 285.999222 80.153052 
L 289.246144 80.153052 
L 289.316729 52.260712 
L 289.387314 202.879348 
L 289.457899 199.532267 
L 289.74024 177.971712 
L 290.022581 133.263743 
L 290.234337 70.400209 
L 290.304922 204.693298 
L 290.375508 201.709007 
L 290.657849 182.485399 
L 290.94019 142.623325 
L 291.222531 59.965329 
L 291.293116 203.64981 
L 291.363701 200.456821 
L 291.646042 179.888867 
L 291.928383 137.239157 
L 292.140139 77.269723 
L 292.210724 205.380249 
L 292.28131 202.533349 
L 292.563651 184.194754 
L 292.845992 146.167844 
L 293.128333 67.315243 
L 293.198918 204.384801 
L 293.269503 201.338811 
L 293.551844 181.717761 
L 293.834185 141.031551 
L 294.257697 56.664625 
L 294.328282 203.319739 
L 294.398867 200.060737 
L 294.681208 179.067546 
L 294.963549 135.536066 
L 295.175305 74.326782 
L 295.245891 205.085955 
L 295.316476 202.180196 
L 295.598817 183.462456 
L 295.881158 144.649351 
L 296.163499 64.166496 
L 296.234084 204.069927 
L 296.304669 200.960961 
L 296.58701 180.934252 
L 296.869351 139.406866 
L 297.222278 81.015526 
L 297.857545 81.015526 
L 297.92813 205.754829 
L 297.998716 202.982845 
L 298.281057 185.126829 
L 298.563398 148.100596 
L 298.845739 71.322997 
L 298.916324 204.785577 
L 298.986909 201.819742 
L 299.26925 182.715018 
L 299.551591 143.099464 
L 299.904518 60.95265 
L 299.975103 203.748542 
L 300.045688 200.5753 
L 300.328029 180.134544 
L 300.61037 137.748592 
L 300.822126 78.150028 
L 300.892711 205.46828 
L 300.963296 202.638985 
L 301.245638 184.413802 
L 301.527979 146.622062 
L 301.81032 68.25711 
L 301.880905 204.478988 
L 301.95149 201.451835 
L 302.233831 181.952127 
L 302.516172 141.517533 
L 302.727928 84.662758 
L 302.798513 206.119553 
L 302.869098 203.420513 
L 303.15144 186.034377 
L 303.433781 149.982487 
L 303.716122 75.225288 
L 303.786707 205.175806 
L 303.857292 202.288016 
L 304.139633 183.686033 
L 304.421974 145.11296 
L 304.704315 65.127836 
L 304.7749 204.16606 
L 304.845486 201.076322 
L 305.127827 181.173464 
L 305.410168 139.902897 
L 305.621924 81.872666 
L 305.692509 205.840543 
L 305.763094 203.085702 
L 306.045435 185.340113 
L 306.327776 148.542861 
L 306.610117 72.240079 
L 306.680702 204.877285 
L 306.751288 201.929791 
L 307.033629 182.943217 
L 307.31597 143.572658 
L 307.739481 61.933865 
L 307.810067 203.846663 
L 307.880652 200.693046 
L 308.162993 180.378702 
L 308.445334 138.254878 
L 308.65709 79.024889 
L 308.727675 205.555766 
L 308.79826 202.743969 
L 309.080601 184.631495 
L 309.362942 147.073471 
L 309.645283 69.193152 
L 309.715869 204.572592 
L 309.786454 201.56416 
L 310.068795 182.185044 
L 310.351136 142.00051 
L 310.562892 85.497342 
L 310.633477 206.203011 
L 310.704062 203.520663 
L 310.986403 186.242049 
L 311.268744 150.413114 
L 311.551085 76.118236 
L 311.621671 205.265101 
L 311.692256 202.39517 
L 311.974597 183.908227 
L 312.256938 145.573702 
L 312.609864 66.08323 
L 312.680449 204.2616 
L 312.751035 201.190969 
L 313.033376 181.411196 
L 313.315717 140.395859 
L 313.527473 82.724505 
L 313.598058 205.925727 
L 313.668643 203.187922 
L 313.950984 185.552078 
L 314.233325 148.982391 
L 314.515666 73.151489 
L 314.586251 204.968426 
L 314.656837 202.039161 
L 314.939178 183.170005 
L 315.221519 144.042925 
L 315.574445 89.026635 
L 319.315464 89.026635 
L 319.386049 206.55594 
L 319.456634 203.944178 
L 319.738975 187.12025 
L 320.021316 152.234152 
L 320.303657 79.89434 
L 320.374243 205.642711 
L 320.444828 202.848303 
L 320.727169 184.847843 
L 321.00951 147.522088 
L 321.433022 70.123405 
L 321.503607 204.665617 
L 321.574192 201.67579 
L 321.856533 182.416521 
L 322.138874 142.4805 
L 322.35063 86.326765 
L 322.421215 206.285953 
L 322.4918 203.620194 
L 322.774141 186.448436 
L 323.056483 150.841078 
L 323.338824 77.005662 
L 323.409409 205.353843 
L 323.479994 202.501661 
L 323.762335 184.129047 
L 324.044676 146.031594 
L 324.397602 92.463055 
L 326.162234 92.463055 
L 326.232819 67.032716 
L 326.303404 204.356548 
L 326.37399 201.304908 
L 326.656331 181.647459 
L 326.938672 140.885773 
L 327.150428 83.571076 
L 327.221013 206.010385 
L 327.291598 203.289511 
L 327.573939 185.762732 
L 327.85628 149.419203 
L 328.138621 74.057262 
L 328.209206 205.059003 
L 328.279792 202.147853 
L 328.562133 183.395391 
L 328.844474 144.510284 
L 329.1974 89.834232 
L 330.115008 89.834232 
L 330.185594 206.6367 
L 330.256179 204.04109 
L 330.53852 187.321206 
L 330.820861 152.650854 
L 331.103202 80.758414 
L 331.173787 205.729118 
L 331.244373 202.951992 
L 331.526714 185.062852 
L 331.809055 147.967932 
L 332.161981 71.047905 
L 332.232566 204.758067 
L 332.303151 201.78673 
L 332.585492 182.646566 
L 332.867834 142.957522 
L 333.079589 87.151059 
L 333.150175 206.368383 
L 333.22076 203.719109 
L 333.503101 186.653546 
L 333.785442 151.266396 
L 334.067783 77.887601 
L 334.138368 205.442037 
L 334.208953 202.607494 
L 334.491294 184.348502 
L 334.773635 146.486655 
L 335.126562 67.97633 
L 335.197147 204.45091 
L 335.267732 201.418141 
L 335.550073 181.88226 
L 335.691244 218.88 
L 337.173534 218.88 
L 337.455875 218.09117 
L 337.738216 216.455453 
L 338.020557 213.063628 
L 338.302898 206.030342 
L 338.585239 191.44612 
L 338.867581 161.204276 
L 339.149922 98.494788 
L 339.220507 74.270795 
L 339.291092 205.080356 
L 339.361677 202.173477 
L 339.644018 183.448525 
L 339.926359 144.620463 
L 340.138115 90.02462 
L 340.2087 206.655739 
L 340.279286 204.063936 
L 340.561627 187.36858 
L 340.843968 152.74909 
L 341.126309 80.962116 
L 341.196894 205.749489 
L 341.267479 202.976436 
L 341.54982 185.113539 
L 341.832161 148.073037 
L 342.185088 71.265852 
L 342.255673 204.779862 
L 342.326258 201.812884 
L 342.608599 182.700799 
L 342.89094 143.069978 
L 343.102696 87.345383 
L 343.173281 206.387815 
L 343.243867 203.742428 
L 343.526208 186.7019 
L 343.808549 151.366663 
L 344.09089 78.095514 
L 344.161475 205.462828 
L 344.23206 202.632444 
L 344.514401 184.400237 
L 344.796742 146.593934 
L 345.008498 93.434778 
L 345.079083 206.996755 
L 345.149669 204.473155 
L 345.43201 188.217137 
L 345.714351 154.508657 
L 345.996692 84.610754 
L 346.067277 206.114352 
L 346.137862 203.414272 
L 346.279033 218.88 
L 346.349618 218.88 
L 346.490788 218.556709 
L 346.631959 218.88 
L 346.984885 218.88 
L 347.267226 218.09117 
L 347.549567 216.455453 
L 347.831908 213.063628 
L 348.114249 206.030342 
L 348.39659 191.44612 
L 348.678931 161.204276 
L 348.961273 98.494788 
L 349.031858 74.270795 
L 349.102443 205.080356 
L 349.173028 202.173477 
L 349.455369 183.448525 
L 349.73771 144.620463 
L 349.949466 90.02462 
L 350.020051 206.655739 
L 350.090637 204.063936 
L 350.372978 187.36858 
L 350.655319 152.74909 
L 350.93766 80.962116 
L 351.008245 205.749489 
L 351.07883 202.976436 
L 351.361171 185.113539 
L 351.643512 148.073037 
L 351.996439 95.990669 
L 352.067024 95.990669 
L 352.137609 71.265852 
L 352.208194 204.779862 
L 352.27878 201.812884 
L 352.561121 182.700799 
L 352.843462 143.069978 
L 353.055218 87.345383 
L 353.125803 206.387815 
L 353.196388 203.742428 
L 353.478729 186.7019 
L 353.76107 151.366663 
L 354.043411 78.095514 
L 354.113996 205.462828 
L 354.184582 202.632444 
L 354.466923 184.400237 
L 354.749264 146.593934 
L 354.96102 93.434778 
L 355.031605 206.996755 
L 355.10219 204.473155 
L 355.243361 197.810853 
L 355.384531 218.88 
L 355.737457 218.88 
L 356.019798 218.09117 
L 356.231554 216.982002 
L 356.372725 218.88 
L 356.655066 218.09117 
L 356.937407 216.455453 
L 357.149163 214.155482 
L 357.149163 214.155482 
" clip-path="url(#pa7131dd201)" style="fill: none; stroke: #1f77b4; stroke-width: 1.5; stroke-linecap: square"/>
   </g>
   <g id="patch_3">
    <path d="M 37.567344 228.96 
L 37.567344 7.2 
" style="fill: none; stroke: #000000; stroke-width: 0.8; stroke-linejoin: miter; stroke-linecap: square"/>
   </g>
   <g id="patch_4">
    <path d="M 372.367344 228.96 
L 372.367344 7.2 
" style="fill: none; stroke: #000000; stroke-width: 0.8; stroke-linejoin: miter; stroke-linecap: square"/>
   </g>
   <g id="patch_5">
    <path d="M 37.567344 228.96 
L 372.367344 228.96 
" style="fill: none; stroke: #000000; stroke-width: 0.8; stroke-linejoin: miter; stroke-linecap: square"/>
   </g>
   <g id="patch_6">
    <path d="M 37.567344 7.2 
L 372.367344 7.2 
" style="fill: none; stroke: #000000; stroke-width: 0.8; stroke-linejoin: miter; stroke-linecap: square"/>
   </g>
   <g id="legend_1">
    <g id="patch_7">
     <path d="M 314.548024 29.420307 
L 365.367344 29.420307 
Q 367.367344 29.420307 367.367344 27.420307 
L 367.367344 14.2 
Q 367.367344 12.2 365.367344 12.2 
L 314.548024 12.2 
Q 312.548024 12.2 312.548024 14.2 
L 312.548024 27.420307 
Q 312.548024 29.420307 314.548024 29.420307 
z
" style="fill: #ffffff; opacity: 0.8; stroke: #cccccc; stroke-linejoin: miter"/>
    </g>
    <g id="line2d_13">
     <path d="M 316.548024 19.79832 
L 326.548024 19.79832 
L 336.548024 19.79832 
" style="fill: none; stroke: #1f77b4; stroke-width: 1.5; stroke-linecap: square"/>
    </g>
    <g id="text_14">
     <!-- CFL -->
     <g transform="translate(344.548024 23.29832) scale(0.1 -0.1)">
      <use xlink:href="#NimbusSanL-Regu-43" transform="scale(0.996264)"/>
      <use xlink:href="#NimbusSanL-Regu-46" transform="translate(71.929985 0) scale(0.996264)"/>
      <use xlink:href="#NimbusSanL-Regu-4c" transform="translate(132.801616 0) scale(0.996264)"/>
     </g>
    </g>
   </g>
  </g>
 </g>
 <defs>
  <clipPath id="pa7131dd201">
   <rect x="37.567344" y="7.2" width="334.8" height="221.76"/>
  </clipPath>
 </defs>
</svg>
