<?xml version="1.0" encoding="utf-8" standalone="no"?>
<!DOCTYPE svg PUBLIC "-//W3C//DTD SVG 1.1//EN"
  "http://www.w3.org/Graphics/SVG/1.1/DTD/svg11.dtd">
<svg xmlns:xlink="http://www.w3.org/1999/xlink" width="382.334753pt" height="265.600613pt" viewBox="0 0 382.334753 265.600613" xmlns="http://www.w3.org/2000/svg" version="1.1">
 <metadata>
  <rdf:RDF xmlns:dc="http://purl.org/dc/elements/1.1/" xmlns:cc="http://creativecommons.org/ns#" xmlns:rdf="http://www.w3.org/1999/02/22-rdf-syntax-ns#">
   <cc:Work>
    <dc:type rdf:resource="http://purl.org/dc/dcmitype/StillImage"/>
    <dc:date>2025-07-16T22:34:50.346795</dc:date>
    <dc:format>image/svg+xml</dc:format>
    <dc:creator>
     <cc:Agent>
      <dc:title>Matplotlib v3.10.3, https://matplotlib.org/</dc:title>
     </cc:Agent>
    </dc:creator>
   </cc:Work>
  </rdf:RDF>
 </metadata>
 <defs>
  <style type="text/css">*{stroke-linejoin: round; stroke-linecap: butt}</style>
 </defs>
 <g id="figure_1">
  <g id="patch_1">
   <path d="M 0 265.600613 
L 382.334753 265.600613 
L 382.334753 0 
L 0 0 
z
" style="fill: #ffffff"/>
  </g>
  <g id="axes_1">
   <g id="patch_2">
    <path d="M 40.334753 228.96 
L 375.134753 228.96 
L 375.134753 7.2 
L 40.334753 7.2 
z
" style="fill: #ffffff"/>
   </g>
   <g id="matplotlib.axis_1">
    <g id="xtick_1">
     <g id="line2d_1">
      <defs>
       <path id="ma2a5081f5e" d="M 0 0 
L 0 3.5 
" style="stroke: #000000; stroke-width: 0.8"/>
      </defs>
      <g>
       <use xlink:href="#ma2a5081f5e" x="55.552935" y="228.96" style="stroke: #000000; stroke-width: 0.8"/>
      </g>
     </g>
     <g id="text_1">
      <!-- $\mathdefault{0}$ -->
      <g transform="translate(53.062267 243.05832) scale(0.1 -0.1)">
       <defs>
        <path id="CMR17-30" d="M 2688 2038 
C 2688 2430 2682 3099 2413 3613 
C 2176 4063 1798 4224 1466 4224 
C 1158 4224 768 4082 525 3620 
C 269 3137 243 2539 243 2038 
C 243 1671 250 1112 448 623 
C 723 -39 1216 -128 1466 -128 
C 1760 -128 2208 -7 2470 604 
C 2662 1048 2688 1568 2688 2038 
z
M 1466 -26 
C 1056 -26 813 328 723 816 
C 653 1196 653 1749 653 2109 
C 653 2604 653 3015 736 3407 
C 858 3954 1216 4121 1466 4121 
C 1728 4121 2067 3947 2189 3420 
C 2272 3054 2278 2623 2278 2109 
C 2278 1691 2278 1176 2202 797 
C 2067 96 1690 -26 1466 -26 
z
" transform="scale(0.015625)"/>
       </defs>
       <use xlink:href="#CMR17-30" transform="scale(0.996264)"/>
      </g>
     </g>
    </g>
    <g id="xtick_2">
     <g id="line2d_2">
      <g>
       <use xlink:href="#ma2a5081f5e" x="127.796855" y="228.96" style="stroke: #000000; stroke-width: 0.8"/>
      </g>
     </g>
     <g id="text_2">
      <!-- $\mathdefault{1000}$ -->
      <g transform="translate(117.834185 243.05832) scale(0.1 -0.1)">
       <defs>
        <path id="CMR17-31" d="M 1702 4083 
C 1702 4217 1696 4224 1606 4224 
C 1357 3927 979 3833 621 3820 
C 602 3820 570 3820 563 3808 
C 557 3795 557 3782 557 3648 
C 755 3648 1088 3686 1344 3839 
L 1344 467 
C 1344 243 1331 166 781 166 
L 589 166 
L 589 0 
C 896 6 1216 12 1523 12 
C 1830 12 2150 6 2458 0 
L 2458 166 
L 2266 166 
C 1715 166 1702 236 1702 467 
L 1702 4083 
z
" transform="scale(0.015625)"/>
       </defs>
       <use xlink:href="#CMR17-31" transform="scale(0.996264)"/>
       <use xlink:href="#CMR17-30" transform="translate(45.690477 0) scale(0.996264)"/>
       <use xlink:href="#CMR17-30" transform="translate(91.380954 0) scale(0.996264)"/>
       <use xlink:href="#CMR17-30" transform="translate(137.071431 0) scale(0.996264)"/>
      </g>
     </g>
    </g>
    <g id="xtick_3">
     <g id="line2d_3">
      <g>
       <use xlink:href="#ma2a5081f5e" x="200.040775" y="228.96" style="stroke: #000000; stroke-width: 0.8"/>
      </g>
     </g>
     <g id="text_3">
      <!-- $\mathdefault{2000}$ -->
      <g transform="translate(190.078105 243.05832) scale(0.1 -0.1)">
       <defs>
        <path id="CMR17-32" d="M 2669 990 
L 2554 990 
C 2490 537 2438 460 2413 422 
C 2381 371 1920 371 1830 371 
L 602 371 
C 832 620 1280 1073 1824 1596 
C 2214 1966 2669 2400 2669 3033 
C 2669 3788 2067 4224 1395 4224 
C 691 4224 262 3603 262 3027 
C 262 2777 448 2745 525 2745 
C 589 2745 781 2783 781 3007 
C 781 3206 614 3264 525 3264 
C 486 3264 448 3257 422 3244 
C 544 3788 915 4057 1306 4057 
C 1862 4057 2227 3616 2227 3033 
C 2227 2477 1901 1998 1536 1583 
L 262 147 
L 262 0 
L 2515 0 
L 2669 990 
z
" transform="scale(0.015625)"/>
       </defs>
       <use xlink:href="#CMR17-32" transform="scale(0.996264)"/>
       <use xlink:href="#CMR17-30" transform="translate(45.690477 0) scale(0.996264)"/>
       <use xlink:href="#CMR17-30" transform="translate(91.380954 0) scale(0.996264)"/>
       <use xlink:href="#CMR17-30" transform="translate(137.071431 0) scale(0.996264)"/>
      </g>
     </g>
    </g>
    <g id="xtick_4">
     <g id="line2d_4">
      <g>
       <use xlink:href="#ma2a5081f5e" x="272.284696" y="228.96" style="stroke: #000000; stroke-width: 0.8"/>
      </g>
     </g>
     <g id="text_4">
      <!-- $\mathdefault{3000}$ -->
      <g transform="translate(262.322025 243.05832) scale(0.1 -0.1)">
       <defs>
        <path id="CMR17-33" d="M 1414 2176 
C 1984 2176 2234 1673 2234 1094 
C 2234 322 1824 25 1453 25 
C 1114 25 563 193 390 691 
C 422 678 454 678 486 678 
C 640 678 755 780 755 947 
C 755 1132 614 1216 486 1216 
C 378 1216 211 1164 211 927 
C 211 335 787 -128 1466 -128 
C 2176 -128 2720 432 2720 1087 
C 2720 1718 2208 2176 1600 2246 
C 2086 2347 2554 2776 2554 3353 
C 2554 3856 2048 4224 1472 4224 
C 890 4224 378 3862 378 3347 
C 378 3123 544 3084 627 3084 
C 762 3084 877 3167 877 3334 
C 877 3500 762 3584 627 3584 
C 602 3584 570 3584 544 3571 
C 730 3999 1235 4076 1459 4076 
C 1683 4076 2106 3966 2106 3347 
C 2106 3167 2080 2851 1862 2574 
C 1670 2329 1453 2316 1242 2297 
C 1210 2297 1062 2284 1037 2284 
C 992 2278 966 2272 966 2227 
C 966 2182 973 2176 1101 2176 
L 1414 2176 
z
" transform="scale(0.015625)"/>
       </defs>
       <use xlink:href="#CMR17-33" transform="scale(0.996264)"/>
       <use xlink:href="#CMR17-30" transform="translate(45.690477 0) scale(0.996264)"/>
       <use xlink:href="#CMR17-30" transform="translate(91.380954 0) scale(0.996264)"/>
       <use xlink:href="#CMR17-30" transform="translate(137.071431 0) scale(0.996264)"/>
      </g>
     </g>
    </g>
    <g id="xtick_5">
     <g id="line2d_5">
      <g>
       <use xlink:href="#ma2a5081f5e" x="344.528616" y="228.96" style="stroke: #000000; stroke-width: 0.8"/>
      </g>
     </g>
     <g id="text_5">
      <!-- $\mathdefault{4000}$ -->
      <g transform="translate(334.565946 243.05832) scale(0.1 -0.1)">
       <defs>
        <path id="CMR17-34" d="M 2150 4147 
C 2150 4281 2144 4288 2029 4288 
L 128 1254 
L 128 1088 
L 1779 1088 
L 1779 460 
C 1779 230 1766 166 1318 166 
L 1197 166 
L 1197 0 
C 1402 12 1747 12 1965 12 
C 2182 12 2528 12 2733 0 
L 2733 166 
L 2611 166 
C 2163 166 2150 230 2150 460 
L 2150 1088 
L 2803 1088 
L 2803 1254 
L 2150 1254 
L 2150 4147 
z
M 1798 3723 
L 1798 1254 
L 256 1254 
L 1798 3723 
z
" transform="scale(0.015625)"/>
       </defs>
       <use xlink:href="#CMR17-34" transform="scale(0.996264)"/>
       <use xlink:href="#CMR17-30" transform="translate(45.690477 0) scale(0.996264)"/>
       <use xlink:href="#CMR17-30" transform="translate(91.380954 0) scale(0.996264)"/>
       <use xlink:href="#CMR17-30" transform="translate(137.071431 0) scale(0.996264)"/>
      </g>
     </g>
    </g>
    <g id="text_6">
     <!-- Iteration -->
     <g transform="translate(189.787377 256.278627) scale(0.1 -0.1)">
      <defs>
       <path id="NimbusSanL-Regu-49" d="M 1242 4672 
L 640 4672 
L 640 0 
L 1242 0 
L 1242 4672 
z
" transform="scale(0.015625)"/>
       <path id="NimbusSanL-Regu-74" d="M 1626 3328 
L 1075 3328 
L 1075 4249 
L 544 4249 
L 544 3328 
L 90 3328 
L 90 2892 
L 544 2892 
L 544 402 
C 544 64 774 -128 1190 -128 
C 1318 -128 1446 -116 1626 -84 
L 1626 364 
C 1555 345 1472 339 1370 339 
C 1139 339 1075 402 1075 634 
L 1075 2892 
L 1626 2892 
L 1626 3328 
z
" transform="scale(0.015625)"/>
       <path id="NimbusSanL-Regu-65" d="M 3283 1484 
C 3283 1998 3245 2311 3149 2565 
C 2931 3123 2419 3456 1792 3456 
C 858 3456 256 2734 256 1619 
C 256 545 838 -128 1779 -128 
C 2547 -128 3078 307 3213 1018 
L 2675 1018 
C 2528 588 2227 364 1798 364 
C 1459 364 1171 514 992 787 
C 864 974 819 1161 813 1484 
L 3283 1484 
z
M 826 1920 
C 870 2552 1248 2963 1786 2963 
C 2310 2963 2714 2519 2714 1959 
C 2714 1946 2714 1933 2707 1920 
L 826 1920 
z
" transform="scale(0.015625)"/>
       <path id="NimbusSanL-Regu-72" d="M 442 3328 
L 442 0 
L 979 0 
L 979 1727 
C 979 2203 1101 2514 1357 2698 
C 1523 2819 1683 2857 2054 2863 
L 2054 3404 
C 1965 3449 1920 3456 1850 3456 
C 1504 3456 1242 3251 934 2750 
L 934 3328 
L 442 3328 
z
" transform="scale(0.015625)"/>
       <path id="NimbusSanL-Regu-61" d="M 3424 332 
C 3366 320 3341 320 3309 320 
C 3123 320 3021 415 3021 581 
L 3021 2542 
C 3021 3135 2586 3456 1760 3456 
C 1274 3456 870 3315 646 3065 
C 493 2893 429 2702 416 2370 
L 954 2370 
C 998 2778 1242 2963 1741 2963 
C 2221 2963 2490 2784 2490 2466 
L 2490 2326 
C 2490 2103 2355 2007 1933 1956 
C 1178 1861 1062 1835 858 1753 
C 467 1593 269 1294 269 861 
C 269 256 691 -128 1370 -128 
C 1792 -128 2131 19 2509 364 
C 2547 25 2714 -128 3059 -128 
C 3168 -128 3251 -116 3424 -71 
L 3424 332 
z
M 2490 1071 
C 2490 893 2438 785 2278 638 
C 2061 441 1798 339 1485 339 
C 1069 339 826 536 826 874 
C 826 1224 1062 1402 1632 1485 
C 2195 1562 2310 1587 2490 1670 
L 2490 1071 
z
" transform="scale(0.015625)"/>
       <path id="NimbusSanL-Regu-69" d="M 960 3358 
L 429 3358 
L 429 0 
L 960 0 
L 960 3358 
z
M 960 4672 
L 422 4672 
L 422 3999 
L 960 3999 
L 960 4672 
z
" transform="scale(0.015625)"/>
       <path id="NimbusSanL-Regu-6f" d="M 1741 3456 
C 800 3456 230 2784 230 1663 
C 230 543 794 -128 1747 -128 
C 2688 -128 3264 543 3264 1638 
C 3264 2791 2707 3456 1741 3456 
z
M 1747 2963 
C 2349 2963 2707 2472 2707 1644 
C 2707 861 2336 364 1747 364 
C 1152 364 787 855 787 1663 
C 787 2466 1152 2963 1747 2963 
z
" transform="scale(0.015625)"/>
       <path id="NimbusSanL-Regu-6e" d="M 448 3328 
L 448 0 
L 986 0 
L 986 1835 
C 986 2539 1344 2988 1894 2988 
C 2317 2988 2586 2732 2586 2328 
L 2586 0 
L 3117 0 
L 3117 2539 
C 3117 3097 2701 3456 2054 3456 
C 1555 3456 1235 3263 941 2796 
L 941 3328 
L 448 3328 
z
" transform="scale(0.015625)"/>
      </defs>
      <use xlink:href="#NimbusSanL-Regu-49" transform="scale(0.996264)"/>
      <use xlink:href="#NimbusSanL-Regu-74" transform="translate(27.69517 0) scale(0.996264)"/>
      <use xlink:href="#NimbusSanL-Regu-65" transform="translate(55.390339 0) scale(0.996264)"/>
      <use xlink:href="#NimbusSanL-Regu-72" transform="translate(110.782016 0) scale(0.996264)"/>
      <use xlink:href="#NimbusSanL-Regu-61" transform="translate(142.961149 0) scale(0.996264)"/>
      <use xlink:href="#NimbusSanL-Regu-74" transform="translate(198.352826 0) scale(0.996264)"/>
      <use xlink:href="#NimbusSanL-Regu-69" transform="translate(226.047996 0) scale(0.996264)"/>
      <use xlink:href="#NimbusSanL-Regu-6f" transform="translate(248.16478 0) scale(0.996264)"/>
      <use xlink:href="#NimbusSanL-Regu-6e" transform="translate(303.556457 0) scale(0.996264)"/>
     </g>
    </g>
   </g>
   <g id="matplotlib.axis_2">
    <g id="ytick_1">
     <g id="line2d_6">
      <defs>
       <path id="m2e87882c6e" d="M 0 0 
L -3.5 0 
" style="stroke: #000000; stroke-width: 0.8"/>
      </defs>
      <g>
       <use xlink:href="#m2e87882c6e" x="40.334753" y="219.080412" style="stroke: #000000; stroke-width: 0.8"/>
      </g>
     </g>
     <g id="text_7">
      <!-- $\mathdefault{−2}$ -->
      <g transform="translate(20.604674 222.629572) scale(0.1 -0.1)">
       <defs>
        <path id="CMSY10-0" d="M 4218 1472 
C 4326 1472 4442 1472 4442 1600 
C 4442 1728 4326 1728 4218 1728 
L 755 1728 
C 646 1728 531 1728 531 1600 
C 531 1472 646 1472 755 1472 
L 4218 1472 
z
" transform="scale(0.015625)"/>
       </defs>
       <use xlink:href="#CMSY10-0" transform="scale(0.996264)"/>
       <use xlink:href="#CMR17-32" transform="translate(77.487468 0) scale(0.996264)"/>
      </g>
     </g>
    </g>
    <g id="ytick_2">
     <g id="line2d_7">
      <g>
       <use xlink:href="#m2e87882c6e" x="40.334753" y="178.610091" style="stroke: #000000; stroke-width: 0.8"/>
      </g>
     </g>
     <g id="text_8">
      <!-- $\mathdefault{0}$ -->
      <g transform="translate(28.353418 182.159251) scale(0.1 -0.1)">
       <use xlink:href="#CMR17-30" transform="scale(0.996264)"/>
      </g>
     </g>
    </g>
    <g id="ytick_3">
     <g id="line2d_8">
      <g>
       <use xlink:href="#m2e87882c6e" x="40.334753" y="138.13977" style="stroke: #000000; stroke-width: 0.8"/>
      </g>
     </g>
     <g id="text_9">
      <!-- $\mathdefault{2}$ -->
      <g transform="translate(28.353418 141.68893) scale(0.1 -0.1)">
       <use xlink:href="#CMR17-32" transform="scale(0.996264)"/>
      </g>
     </g>
    </g>
    <g id="ytick_4">
     <g id="line2d_9">
      <g>
       <use xlink:href="#m2e87882c6e" x="40.334753" y="97.669448" style="stroke: #000000; stroke-width: 0.8"/>
      </g>
     </g>
     <g id="text_10">
      <!-- $\mathdefault{4}$ -->
      <g transform="translate(28.353418 101.218608) scale(0.1 -0.1)">
       <use xlink:href="#CMR17-34" transform="scale(0.996264)"/>
      </g>
     </g>
    </g>
    <g id="ytick_5">
     <g id="line2d_10">
      <g>
       <use xlink:href="#m2e87882c6e" x="40.334753" y="57.199127" style="stroke: #000000; stroke-width: 0.8"/>
      </g>
     </g>
     <g id="text_11">
      <!-- $\mathdefault{6}$ -->
      <g transform="translate(28.353418 60.748287) scale(0.1 -0.1)">
       <defs>
        <path id="CMR17-36" d="M 678 2198 
C 678 3712 1395 4076 1811 4076 
C 1946 4076 2272 4049 2400 3782 
C 2298 3782 2106 3782 2106 3558 
C 2106 3385 2246 3328 2336 3328 
C 2394 3328 2566 3353 2566 3571 
C 2566 3987 2246 4224 1805 4224 
C 1043 4224 243 3411 243 2011 
C 243 257 966 -128 1478 -128 
C 2099 -128 2688 431 2688 1295 
C 2688 2101 2170 2688 1517 2688 
C 1126 2688 838 2430 678 1979 
L 678 2198 
z
M 1478 25 
C 691 25 691 1212 691 1450 
C 691 1914 909 2585 1504 2585 
C 1613 2585 1926 2585 2138 2140 
C 2253 1889 2253 1624 2253 1302 
C 2253 954 2253 696 2118 438 
C 1978 173 1773 25 1478 25 
z
" transform="scale(0.015625)"/>
       </defs>
       <use xlink:href="#CMR17-36" transform="scale(0.996264)"/>
      </g>
     </g>
    </g>
    <g id="ytick_6">
     <g id="line2d_11">
      <g>
       <use xlink:href="#m2e87882c6e" x="40.334753" y="16.728806" style="stroke: #000000; stroke-width: 0.8"/>
      </g>
     </g>
     <g id="text_12">
      <!-- $\mathdefault{8}$ -->
      <g transform="translate(28.353418 20.277966) scale(0.1 -0.1)">
       <defs>
        <path id="CMR17-38" d="M 1741 2289 
C 2144 2494 2554 2803 2554 3298 
C 2554 3884 1990 4224 1472 4224 
C 890 4224 378 3800 378 3215 
C 378 3054 416 2777 666 2533 
C 730 2469 998 2276 1171 2154 
C 883 2006 211 1652 211 945 
C 211 282 838 -128 1459 -128 
C 2144 -128 2720 366 2720 1022 
C 2720 1607 2330 1877 2074 2051 
L 1741 2289 
z
M 902 2855 
C 851 2887 595 3086 595 3388 
C 595 3781 998 4076 1459 4076 
C 1965 4076 2336 3716 2336 3298 
C 2336 2700 1670 2359 1638 2359 
C 1632 2359 1626 2359 1574 2398 
L 902 2855 
z
M 2080 1536 
C 2176 1466 2483 1253 2483 861 
C 2483 385 2010 25 1472 25 
C 890 25 448 443 448 951 
C 448 1459 838 1884 1280 2083 
L 2080 1536 
z
" transform="scale(0.015625)"/>
       </defs>
       <use xlink:href="#CMR17-38" transform="scale(0.996264)"/>
      </g>
     </g>
    </g>
    <g id="text_13">
     <!-- Aerodynamic Coefficients - Blade_1 -->
     <g transform="translate(14.482687 196.280864) rotate(-90) scale(0.1 -0.1)">
      <defs>
       <path id="NimbusSanL-Regu-41" d="M 3034 1408 
L 3514 0 
L 4179 0 
L 2541 4672 
L 1773 4672 
L 109 0 
L 742 0 
L 1235 1408 
L 3034 1408 
z
M 2867 1907 
L 1382 1907 
L 2150 4032 
L 2867 1907 
z
" transform="scale(0.015625)"/>
       <path id="NimbusSanL-Regu-64" d="M 3168 4672 
L 2637 4672 
L 2637 2937 
C 2413 3276 2054 3456 1606 3456 
C 736 3456 166 2759 166 1695 
C 166 568 723 -128 1626 -128 
C 2086 -128 2406 44 2694 460 
L 2694 19 
L 3168 19 
L 3168 4672 
z
M 1696 2956 
C 2272 2956 2637 2447 2637 1651 
C 2637 880 2266 371 1702 371 
C 1114 371 723 887 723 1663 
C 723 2440 1114 2956 1696 2956 
z
" transform="scale(0.015625)"/>
       <path id="NimbusSanL-Regu-79" d="M 2483 3328 
L 1555 724 
L 698 3328 
L 128 3328 
L 1261 -29 
L 1056 -558 
C 973 -794 851 -884 627 -884 
C 550 -884 461 -871 346 -845 
L 346 -1325 
C 454 -1383 563 -1408 704 -1408 
C 877 -1408 1062 -1351 1203 -1248 
C 1370 -1127 1466 -986 1568 -718 
L 3059 3328 
L 2483 3328 
z
" transform="scale(0.015625)"/>
       <path id="NimbusSanL-Regu-6d" d="M 448 3328 
L 448 0 
L 986 0 
L 986 2089 
C 986 2597 1338 2988 1773 2988 
C 2170 2988 2394 2744 2394 2315 
L 2394 0 
L 2931 0 
L 2931 2109 
C 2931 2597 3283 2988 3718 2988 
C 4109 2988 4339 2738 4339 2315 
L 4339 0 
L 4877 0 
L 4877 2520 
C 4877 3123 4531 3456 3904 3456 
C 3456 3456 3187 3321 2874 2943 
C 2675 3302 2406 3456 1971 3456 
C 1523 3456 1229 3289 941 2886 
L 941 3328 
L 448 3328 
z
" transform="scale(0.015625)"/>
       <path id="NimbusSanL-Regu-63" d="M 3014 2237 
C 2989 2561 2918 2771 2790 2956 
C 2560 3270 2157 3456 1690 3456 
C 787 3456 198 2740 198 1632 
C 198 555 774 -128 1683 -128 
C 2483 -128 2989 352 3053 1167 
L 2515 1167 
C 2426 632 2150 364 1696 364 
C 1107 364 755 842 755 1632 
C 755 2466 1101 2963 1683 2963 
C 2131 2963 2413 2701 2477 2237 
L 3014 2237 
z
" transform="scale(0.015625)"/>
       <path id="NimbusSanL-Regu-43" d="M 4237 3219 
C 4051 4236 3462 4736 2438 4736 
C 1811 4736 1306 4537 960 4154 
C 538 3696 307 3035 307 2284 
C 307 1522 544 867 986 415 
C 1344 44 1805 -128 2413 -128 
C 3552 -128 4192 485 4333 1712 
L 3718 1712 
C 3667 1394 3603 1178 3507 994 
C 3315 612 2918 396 2419 396 
C 1491 396 902 1134 902 2291 
C 902 3480 1466 4211 2368 4211 
C 2746 4211 3098 4096 3290 3918 
C 3462 3759 3558 3562 3629 3219 
L 4237 3219 
z
" transform="scale(0.015625)"/>
       <path id="NimbusSanL-Regu-66" d="M 1651 3328 
L 1094 3328 
L 1094 3860 
C 1094 4087 1222 4204 1466 4204 
C 1510 4204 1530 4204 1651 4198 
L 1651 4639 
C 1530 4665 1459 4672 1350 4672 
C 858 4672 563 4390 563 3905 
L 563 3328 
L 115 3328 
L 115 2892 
L 563 2892 
L 563 0 
L 1094 0 
L 1094 2892 
L 1651 2892 
L 1651 3328 
z
" transform="scale(0.015625)"/>
       <path id="NimbusSanL-Regu-2" d="M 1613 3328 
L 1056 3328 
L 1056 3860 
C 1056 4087 1184 4204 1427 4204 
C 1472 4204 1491 4204 1613 4198 
L 1613 4639 
C 1491 4665 1421 4672 1312 4672 
C 819 4672 525 4390 525 3905 
L 525 3328 
L 77 3328 
L 77 2892 
L 525 2892 
L 525 0 
L 1056 0 
L 1056 2892 
L 1613 2892 
L 1613 3328 
z
M 2790 3328 
L 2259 3328 
L 2259 0 
L 2790 0 
L 2790 3328 
z
M 2790 4672 
L 2259 4672 
L 2259 3999 
L 2790 3999 
L 2790 4672 
z
" transform="scale(0.015625)"/>
       <path id="NimbusSanL-Regu-73" d="M 2803 2428 
C 2797 3084 2362 3456 1587 3456 
C 806 3456 301 3052 301 2434 
C 301 1912 570 1663 1363 1472 
L 1862 1351 
C 2234 1262 2381 1129 2381 887 
C 2381 574 2067 364 1600 364 
C 1312 364 1069 447 934 587 
C 851 683 813 778 781 1014 
L 218 1014 
C 243 243 678 -128 1555 -128 
C 2400 -128 2938 288 2938 931 
C 2938 1428 2656 1702 1990 1861 
L 1478 1982 
C 1043 2084 858 2224 858 2459 
C 858 2765 1133 2963 1568 2963 
C 1997 2963 2227 2778 2240 2428 
L 2803 2428 
z
" transform="scale(0.015625)"/>
       <path id="NimbusSanL-Regu-2d" d="M 1818 1996 
L 294 1996 
L 294 1536 
L 1818 1536 
L 1818 1996 
z
" transform="scale(0.015625)"/>
       <path id="NimbusSanL-Regu-42" d="M 506 0 
L 2611 0 
C 3053 0 3379 121 3629 390 
C 3859 632 3987 961 3987 1321 
C 3987 1878 3731 2214 3136 2444 
C 3558 2643 3782 2994 3782 3476 
C 3782 3821 3654 4127 3411 4345 
C 3168 4569 2848 4672 2400 4672 
L 506 4672 
L 506 0 
z
M 1101 2636 
L 1101 4147 
L 2253 4147 
C 2586 4147 2771 4101 2931 3977 
C 3098 3847 3187 3652 3187 3391 
C 3187 3138 3098 2936 2931 2806 
C 2771 2682 2586 2636 2253 2636 
L 1101 2636 
z
M 1101 524 
L 1101 2112 
L 2554 2112 
C 2842 2112 3034 2042 3174 1890 
C 3315 1745 3392 1542 3392 1315 
C 3392 1093 3315 891 3174 746 
C 3034 594 2842 524 2554 524 
L 1101 524 
z
" transform="scale(0.015625)"/>
       <path id="NimbusSanL-Regu-6c" d="M 973 4672 
L 435 4672 
L 435 0 
L 973 0 
L 973 4672 
z
" transform="scale(0.015625)"/>
       <path id="NimbusSanL-Regu-31" d="M 1658 3232 
L 1658 0 
L 2221 0 
L 2221 4537 
L 1850 4537 
C 1651 3840 1523 3744 653 3635 
L 653 3232 
L 1658 3232 
z
" transform="scale(0.015625)"/>
      </defs>
      <use xlink:href="#NimbusSanL-Regu-41" transform="scale(0.996264)"/>
      <use xlink:href="#NimbusSanL-Regu-65" transform="translate(66.450031 0) scale(0.996264)"/>
      <use xlink:href="#NimbusSanL-Regu-72" transform="translate(121.841708 0) scale(0.996264)"/>
      <use xlink:href="#NimbusSanL-Regu-6f" transform="translate(155.016938 0) scale(0.996264)"/>
      <use xlink:href="#NimbusSanL-Regu-64" transform="translate(210.408615 0) scale(0.996264)"/>
      <use xlink:href="#NimbusSanL-Regu-79" transform="translate(265.800292 0) scale(0.996264)"/>
      <use xlink:href="#NimbusSanL-Regu-6e" transform="translate(315.613492 0) scale(0.996264)"/>
      <use xlink:href="#NimbusSanL-Regu-61" transform="translate(371.005169 0) scale(0.996264)"/>
      <use xlink:href="#NimbusSanL-Regu-6d" transform="translate(426.396846 0) scale(0.996264)"/>
      <use xlink:href="#NimbusSanL-Regu-69" transform="translate(509.385276 0) scale(0.996264)"/>
      <use xlink:href="#NimbusSanL-Regu-63" transform="translate(531.502061 0) scale(0.996264)"/>
      <use xlink:href="#NimbusSanL-Regu-43" transform="translate(609.010431 0) scale(0.996264)"/>
      <use xlink:href="#NimbusSanL-Regu-6f" transform="translate(680.940416 0) scale(0.996264)"/>
      <use xlink:href="#NimbusSanL-Regu-65" transform="translate(736.332093 0) scale(0.996264)"/>
      <use xlink:href="#NimbusSanL-Regu-66" transform="translate(791.72377 0) scale(0.996264)"/>
      <use xlink:href="#NimbusSanL-Regu-2" transform="translate(819.418939 0) scale(0.996264)"/>
      <use xlink:href="#NimbusSanL-Regu-63" transform="translate(869.23214 0) scale(0.996264)"/>
      <use xlink:href="#NimbusSanL-Regu-69" transform="translate(919.04534 0) scale(0.996264)"/>
      <use xlink:href="#NimbusSanL-Regu-65" transform="translate(941.162125 0) scale(0.996264)"/>
      <use xlink:href="#NimbusSanL-Regu-6e" transform="translate(996.553802 0) scale(0.996264)"/>
      <use xlink:href="#NimbusSanL-Regu-74" transform="translate(1051.945479 0) scale(0.996264)"/>
      <use xlink:href="#NimbusSanL-Regu-73" transform="translate(1079.640648 0) scale(0.996264)"/>
      <use xlink:href="#NimbusSanL-Regu-2d" transform="translate(1157.149018 0) scale(0.996264)"/>
      <use xlink:href="#NimbusSanL-Regu-42" transform="translate(1218.019418 0) scale(0.996264)"/>
      <use xlink:href="#NimbusSanL-Regu-6c" transform="translate(1284.469449 0) scale(0.996264)"/>
      <use xlink:href="#NimbusSanL-Regu-61" transform="translate(1306.586233 0) scale(0.996264)"/>
      <use xlink:href="#NimbusSanL-Regu-64" transform="translate(1361.97791 0) scale(0.996264)"/>
      <use xlink:href="#NimbusSanL-Regu-65" transform="translate(1417.369587 0) scale(0.996264)"/>
      <use xlink:href="#NimbusSanL-Regu-31" transform="translate(1508.626829 0) scale(0.996264)"/>
      <path d="M 1478.738605 0 
L 1508.626829 0 
L 1508.626829 0.3985 
L 1478.738605 0.3985 
L 1478.738605 0 
z
"/>
     </g>
    </g>
   </g>
   <g id="line2d_12">
    <path d="M 55.552935 121.416633 
L 55.769666 17.688702 
L 55.84191 17.28 
L 55.986398 20.314816 
L 56.347618 32.194025 
L 56.636593 32.991393 
L 56.925569 34.723453 
L 57.214545 35.394783 
L 57.431277 36.449667 
L 57.720252 39.088115 
L 57.86474 40.905037 
L 58.081472 41.646703 
L 58.298204 43.50562 
L 58.514935 48.387315 
L 58.731667 61.812034 
L 58.948399 81.628112 
L 59.165131 85.675843 
L 59.381862 94.979127 
L 59.598594 115.121111 
L 59.959814 156.216385 
L 60.176546 162.892773 
L 60.465521 181.5165 
L 60.898985 213.983464 
L 61.043473 216.165109 
L 61.332448 217.075479 
L 61.838156 218.632725 
L 61.982644 218.88 
L 62.127131 218.631602 
L 62.416107 218.385127 
L 62.560595 218.013174 
L 62.705083 217.108883 
L 62.849571 214.876523 
L 63.066302 205.742984 
L 63.21079 200.924214 
L 63.427522 199.223088 
L 63.644254 195.355091 
L 63.860986 187.111443 
L 64.077717 168.577888 
L 64.222205 157.994386 
L 64.438937 154.476672 
L 64.655669 147.264877 
L 65.161376 125.690927 
L 65.522596 125.349839 
L 65.59484 125.492572 
L 65.739327 126.729169 
L 65.883815 130.558806 
L 66.389523 150.21694 
L 66.606254 151.683704 
L 66.967474 156.545349 
L 67.328694 161.225674 
L 67.545425 161.606748 
L 67.762157 162.402971 
L 67.978889 164.009498 
L 68.412352 168.438484 
L 68.629084 169.521967 
L 68.845816 171.677403 
L 69.062548 175.839617 
L 69.207036 178.073716 
L 69.423767 178.806456 
L 69.640499 180.300456 
L 69.929475 184.076788 
L 70.290694 188.603498 
L 70.868646 188.943851 
L 71.013134 188.398803 
L 71.302109 186.72935 
L 71.518841 186.26126 
L 71.735573 185.282855 
L 71.952305 183.274881 
L 72.24128 180.134561 
L 72.458012 179.299513 
L 72.674744 177.488426 
L 72.891476 173.834822 
L 73.108207 165.937833 
L 73.252695 161.358714 
L 73.469427 159.844732 
L 73.686159 156.611879 
L 73.975134 148.33335 
L 74.191866 142.448843 
L 74.408598 141.562943 
L 74.697574 139.121576 
L 75.058793 136.222541 
L 75.131037 136.300957 
L 75.347769 137.836851 
L 75.492257 138.807037 
L 75.708988 139.135665 
L 75.92572 139.865431 
L 76.214696 141.900501 
L 76.431428 143.825915 
L 76.648159 144.184619 
L 76.864891 144.979689 
L 77.081623 146.571027 
L 77.298355 150.170352 
L 77.659574 155.890743 
L 77.876306 156.836227 
L 78.165282 159.610554 
L 78.670989 165.577911 
L 78.887721 166.496487 
L 79.176697 168.814398 
L 79.61016 172.404187 
L 79.899136 172.905811 
L 80.260355 173.691632 
L 80.332599 173.614214 
L 80.477087 173.293969 
L 80.766063 173.06685 
L 80.982795 172.607741 
L 81.199526 171.51145 
L 81.63299 168.565105 
L 81.849722 167.890626 
L 82.138697 166.025719 
L 83.222356 156.269269 
L 83.439088 156.077191 
L 83.944795 156.197974 
L 84.161527 156.477902 
L 84.594991 157.489103 
L 84.883966 157.878738 
L 85.172942 158.782515 
L 85.534162 160.017243 
L 85.823137 160.27147 
L 86.473333 160.977408 
L 87.051284 160.917339 
L 87.268016 160.545097 
L 87.412504 160.301526 
L 87.773723 160.116505 
L 88.062699 159.729221 
L 88.351675 158.898413 
L 88.496162 158.60589 
L 88.857382 158.393659 
L 89.146358 157.940704 
L 89.507577 157.263107 
L 89.868797 157.035675 
L 90.157773 156.619805 
L 90.518992 155.978085 
L 90.880212 155.737369 
L 91.241431 155.136448 
L 91.530407 154.608955 
L 92.758554 154.635871 
L 93.192017 154.800961 
L 93.697725 155.194824 
L 94.203432 155.362177 
L 94.420164 155.590599 
L 94.781383 156.376056 
L 95.142603 157.15183 
L 95.431579 157.34365 
L 95.720554 157.828069 
L 96.00953 158.878078 
L 96.154018 159.276356 
L 96.442994 159.476386 
L 96.731969 159.967114 
L 97.165433 160.93559 
L 97.526652 161.168138 
L 98.104604 161.612358 
L 98.682555 161.49646 
L 98.899287 161.237256 
L 99.33275 160.474572 
L 99.69397 160.267988 
L 100.05519 159.73497 
L 100.199677 159.559266 
L 100.633141 159.393457 
L 100.922117 159.084858 
L 101.35558 158.455178 
L 101.644556 158.2101 
L 101.861288 157.776356 
L 102.150263 156.507792 
L 102.366995 155.665348 
L 102.655971 155.435491 
L 102.944946 154.887138 
L 103.37841 154.00492 
L 103.811873 153.789758 
L 104.100849 153.657331 
L 104.967776 154.105465 
L 105.184508 154.535426 
L 105.328996 154.784234 
L 105.690215 154.968659 
L 105.979191 155.37084 
L 106.340411 156.045665 
L 106.70163 156.315151 
L 106.990606 156.890654 
L 107.424069 158.109222 
L 107.713045 158.349398 
L 108.002021 158.892386 
L 108.290997 159.529289 
L 108.72446 159.717487 
L 109.08568 159.915493 
L 109.880363 159.409311 
L 110.097095 158.865721 
L 110.241582 158.52952 
L 110.602802 158.273272 
L 110.891778 157.697819 
L 111.397485 156.267688 
L 111.686461 155.887935 
L 111.975436 155.030506 
L 112.4089 153.552448 
L 112.697876 153.315008 
L 113.420315 152.461055 
L 113.998266 152.443818 
L 114.142754 152.648095 
L 114.287242 152.884961 
L 114.648462 153.088048 
L 114.865193 153.420651 
L 115.081925 154.126195 
L 115.370901 155.077456 
L 115.659876 155.426678 
L 115.948852 156.276086 
L 116.45456 158.26656 
L 116.743535 158.762275 
L 117.032511 159.778066 
L 117.249243 160.545836 
L 117.610462 160.822284 
L 117.971682 161.469758 
L 118.260658 161.892074 
L 119.055341 161.897274 
L 119.272072 161.776374 
L 119.705536 161.596995 
L 119.994512 161.190932 
L 120.283487 160.724524 
L 120.644707 160.475864 
L 120.933683 159.972865 
L 121.150414 159.542638 
L 121.511634 159.375394 
L 121.872854 158.917644 
L 122.234073 158.389269 
L 122.595293 158.21079 
L 122.956512 157.757736 
L 123.245488 157.342109 
L 123.751195 157.155461 
L 124.473635 156.740024 
L 124.979342 156.491052 
L 125.268318 156.376789 
L 126.568708 156.39001 
L 127.724611 156.49983 
L 128.013587 156.722924 
L 128.230319 157.191433 
L 128.374806 157.483996 
L 128.663782 157.641374 
L 128.952758 158.065779 
L 129.241733 159.066259 
L 129.530709 160.028319 
L 129.819685 160.193256 
L 130.614368 160.888953 
L 131.047831 160.817821 
L 131.264563 160.491984 
L 131.553539 159.810512 
L 131.842515 159.516284 
L 132.13149 158.770463 
L 132.49271 156.793815 
L 132.637198 156.296085 
L 132.926173 156.052513 
L 133.215149 155.471429 
L 133.648613 154.518437 
L 134.082076 154.262819 
L 134.443296 154.073184 
L 134.732271 154.139974 
L 135.165735 154.303404 
L 135.382467 154.589185 
L 135.671442 155.006904 
L 136.032662 155.241564 
L 136.321638 155.730698 
L 136.899589 157.051754 
L 137.188565 157.317066 
L 137.549784 157.997424 
L 137.83876 158.419371 
L 139.066907 158.43117 
L 139.428126 158.257008 
L 140.078321 157.716083 
L 140.584029 157.448108 
L 140.873005 157.310787 
L 141.595444 157.133276 
L 141.956663 157.061454 
L 143.257054 156.909671 
L 143.762761 156.735636 
L 145.135396 156.74264 
L 145.496615 156.9477 
L 145.713347 157.059439 
L 146.219055 157.251639 
L 146.50803 157.578817 
L 146.652518 157.723745 
L 147.085982 157.87466 
L 147.447201 158.234539 
L 147.736177 158.539468 
L 148.386372 158.706026 
L 148.819836 158.720892 
L 149.325543 158.624971 
L 149.542275 158.393338 
L 149.975739 157.460463 
L 150.481446 156.449326 
L 150.842666 156.223754 
L 151.203885 155.663296 
L 151.348373 155.486802 
L 151.781837 155.31806 
L 152.57652 154.829087 
L 153.154471 154.821885 
L 153.371203 154.884564 
L 153.87691 155.022107 
L 154.165886 155.340156 
L 154.310374 155.503074 
L 154.743837 155.680408 
L 155.032813 156.024623 
L 155.394033 156.570604 
L 155.755252 156.775872 
L 156.116472 157.297892 
L 156.405447 157.781045 
L 156.838911 157.939578 
L 157.489106 158.257531 
L 158.139302 158.218841 
L 159.295204 157.114918 
L 159.58418 156.478297 
L 159.9454 156.295692 
L 160.234375 155.925963 
L 160.595595 155.424979 
L 161.029058 155.207223 
L 161.534766 154.876367 
L 162.401693 154.912247 
L 162.979644 155.043579 
L 163.26862 155.339433 
L 163.557596 155.68595 
L 163.918815 155.875632 
L 164.207791 156.255958 
L 164.496767 156.608968 
L 164.857986 156.783757 
L 165.219206 157.208619 
L 165.508181 157.560848 
L 166.086133 157.730408 
L 166.519596 157.833156 
L 167.242036 157.739983 
L 167.603255 157.574436 
L 168.036719 157.402486 
L 168.325694 157.062864 
L 168.470182 156.916705 
L 168.903646 156.767554 
L 169.264865 156.418151 
L 169.409353 156.306129 
L 169.915061 156.163556 
L 170.854232 155.772808 
L 171.865646 155.780277 
L 173.021549 155.969199 
L 175.911306 156.331537 
L 179.812478 156.366474 
L 180.534917 156.31903 
L 186.458918 155.716937 
L 188.120528 155.755485 
L 189.348675 155.928742 
L 192.166188 156.433695 
L 193.394335 156.342138 
L 194.622481 155.97962 
L 194.983701 155.843425 
L 195.561652 155.665307 
L 196.06736 155.46662 
L 197.945702 155.386713 
L 198.234677 155.430294 
L 198.884873 155.585012 
L 199.173848 155.640474 
L 199.824044 155.799461 
L 200.185263 155.898952 
L 200.835458 156.057692 
L 201.268922 156.157213 
L 203.363996 156.171943 
L 204.014191 156.009029 
L 204.303167 155.954053 
L 204.953362 155.783063 
L 205.820289 155.36497 
L 206.39824 155.330187 
L 207.698631 155.349062 
L 209.143509 155.565862 
L 209.793705 155.715355 
L 210.227168 155.790216 
L 212.900193 155.907026 
L 214.272828 155.779859 
L 218.968682 155.396694 
L 221.713951 155.514886 
L 224.82044 155.657926 
L 226.409806 155.590669 
L 228.215904 155.39641 
L 231.177905 155.279296 
L 232.839515 155.413839 
L 235.584784 155.57197 
L 237.752102 155.391969 
L 239.341468 155.237284 
L 240.930834 155.180458 
L 242.086737 155.287912 
L 243.459371 155.440275 
L 244.687518 155.481925 
L 246.92708 155.370149 
L 252.345374 155.270287 
L 257.041228 155.299494 
L 258.702839 155.237901 
L 261.809327 155.21059 
L 265.349279 155.286542 
L 268.744744 155.201405 
L 271.201037 155.170605 
L 315.269828 155.214179 
L 331.307979 155.256866 
L 359.916571 155.298061 
L 359.916571 155.298061 
" clip-path="url(#pbbe7ad1ee4)" style="fill: none; stroke: #1f77b4; stroke-width: 1.5; stroke-linecap: square"/>
   </g>
   <g id="line2d_13">
    <path d="M 55.552935 191.985161 
L 55.697423 211.708478 
L 55.769666 211.549881 
L 55.986398 209.783561 
L 56.20313 208.184944 
L 56.275374 208.126823 
L 56.853325 208.968817 
L 57.142301 209.097772 
L 57.359033 209.372744 
L 57.575764 210.064328 
L 58.009228 212.466275 
L 58.22596 213.081514 
L 58.514935 214.717347 
L 58.803911 216.374104 
L 58.948399 216.114296 
L 59.237375 215.861418 
L 59.454106 215.182003 
L 59.598594 213.964293 
L 59.743082 211.095964 
L 59.88757 208.564117 
L 60.104302 207.556035 
L 60.321033 205.272599 
L 60.610009 198.811999 
L 60.971229 191.06785 
L 61.18796 190.676466 
L 61.476936 189.509417 
L 61.693668 187.862284 
L 61.9104 183.962186 
L 62.127131 179.9553 
L 62.343863 179.265625 
L 62.632839 177.128932 
L 62.994058 172.239824 
L 63.21079 169.821457 
L 63.427522 169.476309 
L 63.716498 168.408964 
L 63.933229 167.550463 
L 64.005473 167.660076 
L 64.438937 171.137121 
L 64.655669 173.103729 
L 64.8724 177.361943 
L 65.23362 184.799763 
L 65.450352 185.902243 
L 65.739327 188.900899 
L 66.028303 194.576625 
L 66.317279 199.737544 
L 66.534011 200.34007 
L 66.750742 201.637483 
L 67.111962 205.658041 
L 67.328694 207.640611 
L 67.617669 208.091682 
L 68.051133 208.883263 
L 68.484596 207.729528 
L 68.701328 207.095178 
L 68.91806 205.617725 
L 69.351523 201.8257 
L 69.568255 200.971671 
L 69.857231 198.546118 
L 70.146207 193.887689 
L 70.290694 192.270171 
L 70.507426 191.771212 
L 70.796402 190.308909 
L 71.085378 187.500466 
L 71.229865 186.406388 
L 71.446597 186.048071 
L 71.663329 185.305579 
L 71.952305 183.335754 
L 72.169036 181.552915 
L 72.385768 181.229924 
L 72.6025 180.533295 
L 72.891476 178.631848 
L 73.252695 176.149748 
L 73.758403 176.16222 
L 73.90289 176.649118 
L 74.047378 178.065043 
L 74.191866 179.444954 
L 74.408598 179.927853 
L 74.62533 181.018161 
L 74.914305 184.066205 
L 75.564501 192.686246 
L 75.781232 193.168697 
L 76.070208 194.522913 
L 76.575915 197.391672 
L 76.864891 198.035467 
L 77.226111 199.03472 
L 77.298355 198.94299 
L 77.442843 198.190901 
L 77.58733 197.337286 
L 77.804062 197.018075 
L 78.020794 196.286053 
L 78.237526 194.773297 
L 78.598745 191.786493 
L 78.815477 191.31174 
L 79.104453 190.039451 
L 79.537916 187.977284 
L 80.043624 187.73555 
L 80.260355 187.702054 
L 81.344014 188.311462 
L 81.488502 188.441769 
L 81.921966 188.596076 
L 82.138697 188.85815 
L 82.355429 189.561892 
L 82.788893 191.01265 
L 82.93338 191.128836 
L 83.077868 191.014958 
L 83.65582 190.205146 
L 84.594991 189.959934 
L 85.028454 190.129814 
L 85.245186 190.470669 
L 85.534162 190.996121 
L 85.823137 191.200689 
L 86.112113 191.695867 
L 86.473333 192.425985 
L 86.762308 192.609247 
L 87.556991 193.311837 
L 88.062699 193.282139 
L 88.279431 193.020053 
L 88.568406 192.71369 
L 89.00187 192.50975 
L 89.290845 192.13752 
L 89.435333 191.987896 
L 89.941041 191.796228 
L 90.230016 191.454514 
L 90.518992 191.091787 
L 90.880212 190.907505 
L 91.747139 190.240999 
L 92.252846 190.352953 
L 92.830798 190.82486 
L 93.119773 191.101884 
L 93.336505 191.620408 
L 93.625481 192.322306 
L 93.914456 192.572479 
L 94.203432 193.159588 
L 95.070359 195.627531 
L 95.503823 195.75856 
L 96.298506 196.120939 
L 96.804213 196.058307 
L 97.815628 195.14322 
L 98.249092 194.236221 
L 98.538067 193.908201 
L 98.827043 193.115081 
L 99.33275 191.160804 
L 99.621726 190.871067 
L 99.910702 190.235618 
L 100.271921 189.457755 
L 100.633141 189.216637 
L 101.283336 188.611357 
L 101.861288 188.696277 
L 102.005775 188.9012 
L 102.583727 190.163492 
L 102.872702 190.637079 
L 103.089434 191.407265 
L 103.306166 192.315472 
L 103.595142 192.575359 
L 103.884117 193.222651 
L 104.173093 194.509207 
L 104.317581 194.978952 
L 104.606557 195.201748 
L 104.967776 195.883177 
L 105.328996 196.570411 
L 106.051435 196.606212 
L 106.412655 196.295756 
L 106.773874 196.037382 
L 106.990606 195.604961 
L 107.207338 194.685856 
L 107.351826 194.203732 
L 107.640801 193.954131 
L 107.929777 193.304456 
L 108.435484 191.768897 
L 108.72446 191.378345 
L 109.013436 190.555704 
L 109.374655 189.541992 
L 109.663631 189.32598 
L 110.38607 188.616254 
L 110.964022 188.665803 
L 111.108509 188.880809 
L 111.252997 189.103911 
L 111.614217 189.289127 
L 111.903193 189.746463 
L 112.192168 190.89214 
L 112.336656 191.346078 
L 112.625632 191.575188 
L 112.914607 192.15296 
L 113.420315 193.414905 
L 113.709291 193.716875 
L 113.998266 194.332098 
L 114.359486 195.072129 
L 114.720705 195.293098 
L 115.370901 195.829128 
L 115.948852 195.776693 
L 116.165584 195.488479 
L 116.310072 195.264726 
L 116.671291 195.082893 
L 116.960267 194.648975 
L 117.321487 193.884325 
L 117.610462 193.680598 
L 117.899438 193.205468 
L 118.405145 192.207183 
L 118.766365 191.892359 
L 119.344316 191.242452 
L 120.572463 191.042067 
L 120.933683 191.241291 
L 121.222658 191.50241 
L 121.656122 191.71275 
L 121.945097 192.133415 
L 122.234073 192.563399 
L 122.595293 192.780243 
L 122.884268 193.208773 
L 123.317732 193.986136 
L 123.678952 194.179753 
L 124.040171 194.645516 
L 124.184659 194.785516 
L 124.690366 194.951268 
L 125.340562 195.253328 
L 125.990757 195.2214 
L 126.207489 195.163006 
L 127.507879 195.046424 
L 127.869099 194.829582 
L 128.158075 194.399005 
L 128.374806 194.064486 
L 128.80827 193.895174 
L 129.386221 193.340432 
L 129.602953 193.272441 
L 131.192319 193.038604 
L 132.420466 192.907682 
L 134.15432 193.241873 
L 134.443296 193.467125 
L 134.587784 193.57745 
L 135.093491 193.737245 
L 135.454711 194.113681 
L 135.599198 194.243565 
L 136.104906 194.416393 
L 136.538369 194.833608 
L 136.827345 194.989479 
L 137.549784 195.178056 
L 137.983248 195.168916 
L 138.488955 195.057424 
L 139.066907 194.785258 
L 139.428126 194.579562 
L 140.078321 194.001849 
L 140.511785 193.772753 
L 140.873005 193.587649 
L 142.173395 193.587602 
L 142.534615 193.762889 
L 142.895834 194.32359 
L 143.618274 195.524781 
L 144.123981 195.69205 
L 145.063152 196.209291 
L 145.857835 196.292055 
L 146.435786 196.161324 
L 146.797006 195.988305 
L 147.23047 195.817115 
L 147.519445 195.467087 
L 147.808421 195.174238 
L 148.241884 194.963121 
L 148.53086 194.598641 
L 148.675348 194.457432 
L 149.181055 194.276212 
L 149.975739 193.852013 
L 150.264714 194.096196 
L 150.409202 194.222717 
L 150.842666 194.368607 
L 151.131641 194.676927 
L 151.420617 195.003505 
L 151.781837 195.177569 
L 152.070812 195.523587 
L 152.432032 196.030386 
L 152.793251 196.208735 
L 153.587935 196.772709 
L 154.671593 196.98833 
L 155.032813 196.893073 
L 155.610764 196.555587 
L 155.971984 196.278734 
L 156.26096 195.71045 
L 156.405447 195.498893 
L 156.766667 195.342335 
L 157.127887 194.915452 
L 157.344618 194.640145 
L 157.850326 194.463636 
L 158.428277 194.188037 
L 159.150716 194.297957 
L 159.439692 194.622949 
L 159.58418 194.775499 
L 160.017643 194.942083 
L 160.306619 195.256019 
L 160.595595 195.540311 
L 161.029058 195.72794 
L 161.679254 196.135061 
L 163.196376 196.367537 
L 165.869401 195.518739 
L 167.025304 195.479598 
L 170.348524 195.761727 
L 171.504427 195.594385 
L 172.154622 195.565777 
L 173.166037 195.640244 
L 173.5995 195.836553 
L 173.816232 195.904177 
L 174.394184 196.051825 
L 174.899891 196.22053 
L 175.477842 196.401029 
L 175.839062 196.495441 
L 177.572916 196.557361 
L 177.934136 196.518436 
L 178.584331 196.365078 
L 179.234526 196.16404 
L 182.485503 195.898428 
L 184.363845 196.133586 
L 188.915212 196.785013 
L 190.215602 196.673779 
L 191.515993 196.437692 
L 192.744139 196.159401 
L 195.561652 196.207366 
L 196.862043 196.536827 
L 197.656726 196.663392 
L 198.306921 196.78119 
L 200.401995 196.773747 
L 201.919117 196.56444 
L 202.424825 196.527284 
L 204.953362 196.42912 
L 208.42107 196.739574 
L 211.383071 196.769785 
L 219.83561 196.777264 
L 221.063756 196.884454 
L 224.82044 196.827296 
L 226.265318 196.662544 
L 227.421221 196.637639 
L 229.660783 196.80373 
L 230.672198 196.910914 
L 233.200735 196.895296 
L 234.934589 196.751873 
L 238.402297 196.72544 
L 241.003078 196.885911 
L 243.170396 196.836768 
L 247.288299 196.720584 
L 252.706593 196.818609 
L 256.535521 196.714225 
L 274.307525 196.671352 
L 283.410259 196.650937 
L 359.916571 196.231676 
L 359.916571 196.231676 
" clip-path="url(#pbbe7ad1ee4)" style="fill: none; stroke: #ff7f0e; stroke-width: 1.5; stroke-linecap: square"/>
   </g>
   <g id="patch_3">
    <path d="M 40.334753 228.96 
L 40.334753 7.2 
" style="fill: none; stroke: #000000; stroke-width: 0.8; stroke-linejoin: miter; stroke-linecap: square"/>
   </g>
   <g id="patch_4">
    <path d="M 375.134753 228.96 
L 375.134753 7.2 
" style="fill: none; stroke: #000000; stroke-width: 0.8; stroke-linejoin: miter; stroke-linecap: square"/>
   </g>
   <g id="patch_5">
    <path d="M 40.334753 228.96 
L 375.134753 228.96 
" style="fill: none; stroke: #000000; stroke-width: 0.8; stroke-linejoin: miter; stroke-linecap: square"/>
   </g>
   <g id="patch_6">
    <path d="M 40.334753 7.2 
L 375.134753 7.2 
" style="fill: none; stroke: #000000; stroke-width: 0.8; stroke-linejoin: miter; stroke-linecap: square"/>
   </g>
   <g id="legend_1">
    <g id="patch_7">
     <path d="M 321.748759 43.640613 
L 368.134753 43.640613 
Q 370.134753 43.640613 370.134753 41.640613 
L 370.134753 14.2 
Q 370.134753 12.2 368.134753 12.2 
L 321.748759 12.2 
Q 319.748759 12.2 319.748759 14.2 
L 319.748759 41.640613 
Q 319.748759 43.640613 321.748759 43.640613 
z
" style="fill: #ffffff; opacity: 0.8; stroke: #cccccc; stroke-linejoin: miter"/>
    </g>
    <g id="line2d_14">
     <path d="M 323.748759 19.79832 
L 333.748759 19.79832 
L 343.748759 19.79832 
" style="fill: none; stroke: #1f77b4; stroke-width: 1.5; stroke-linecap: square"/>
    </g>
    <g id="text_14">
     <!-- CD -->
     <g transform="translate(351.748759 23.29832) scale(0.1 -0.1)">
      <defs>
       <path id="NimbusSanL-Regu-44" d="M 570 0 
L 2368 0 
C 3546 0 4269 883 4269 2339 
C 4269 3788 3552 4672 2368 4672 
L 570 4672 
L 570 0 
z
M 1165 524 
L 1165 4147 
L 2266 4147 
C 3187 4147 3674 3525 3674 2332 
C 3674 1153 3187 524 2266 524 
L 1165 524 
z
" transform="scale(0.015625)"/>
      </defs>
      <use xlink:href="#NimbusSanL-Regu-43" transform="scale(0.996264)"/>
      <use xlink:href="#NimbusSanL-Regu-44" transform="translate(71.929985 0) scale(0.996264)"/>
     </g>
    </g>
    <g id="line2d_15">
     <path d="M 323.748759 34.018627 
L 333.748759 34.018627 
L 343.748759 34.018627 
" style="fill: none; stroke: #ff7f0e; stroke-width: 1.5; stroke-linecap: square"/>
    </g>
    <g id="text_15">
     <!-- CL -->
     <g transform="translate(351.748759 37.518627) scale(0.1 -0.1)">
      <defs>
       <path id="NimbusSanL-Regu-4c" d="M 1107 4672 
L 512 4672 
L 512 0 
L 3411 0 
L 3411 524 
L 1107 524 
L 1107 4672 
z
" transform="scale(0.015625)"/>
      </defs>
      <use xlink:href="#NimbusSanL-Regu-43" transform="scale(0.996264)"/>
      <use xlink:href="#NimbusSanL-Regu-4c" transform="translate(71.929985 0) scale(0.996264)"/>
     </g>
    </g>
   </g>
  </g>
 </g>
 <defs>
  <clipPath id="pbbe7ad1ee4">
   <rect x="40.334753" y="7.2" width="334.8" height="221.76"/>
  </clipPath>
 </defs>
</svg>
