<?xml version="1.0" encoding="utf-8" standalone="no"?>
<!DOCTYPE svg PUBLIC "-//W3C//DTD SVG 1.1//EN"
  "http://www.w3.org/Graphics/SVG/1.1/DTD/svg11.dtd">
<svg xmlns:xlink="http://www.w3.org/1999/xlink" width="379.567344pt" height="265.600613pt" viewBox="0 0 379.567344 265.600613" xmlns="http://www.w3.org/2000/svg" version="1.1">
 <metadata>
  <rdf:RDF xmlns:dc="http://purl.org/dc/elements/1.1/" xmlns:cc="http://creativecommons.org/ns#" xmlns:rdf="http://www.w3.org/1999/02/22-rdf-syntax-ns#">
   <cc:Work>
    <dc:type rdf:resource="http://purl.org/dc/dcmitype/StillImage"/>
    <dc:date>2025-07-16T22:34:49.997912</dc:date>
    <dc:format>image/svg+xml</dc:format>
    <dc:creator>
     <cc:Agent>
      <dc:title>Matplotlib v3.10.3, https://matplotlib.org/</dc:title>
     </cc:Agent>
    </dc:creator>
   </cc:Work>
  </rdf:RDF>
 </metadata>
 <defs>
  <style type="text/css">*{stroke-linejoin: round; stroke-linecap: butt}</style>
 </defs>
 <g id="figure_1">
  <g id="patch_1">
   <path d="M 0 265.600613 
L 379.567344 265.600613 
L 379.567344 0 
L 0 0 
z
" style="fill: #ffffff"/>
  </g>
  <g id="axes_1">
   <g id="patch_2">
    <path d="M 37.567344 228.96 
L 372.367344 228.96 
L 372.367344 7.2 
L 37.567344 7.2 
z
" style="fill: #ffffff"/>
   </g>
   <g id="matplotlib.axis_1">
    <g id="xtick_1">
     <g id="line2d_1">
      <defs>
       <path id="mac8c7f5386" d="M 0 0 
L 0 3.5 
" style="stroke: #000000; stroke-width: 0.8"/>
      </defs>
      <g>
       <use xlink:href="#mac8c7f5386" x="52.785526" y="228.96" style="stroke: #000000; stroke-width: 0.8"/>
      </g>
     </g>
     <g id="text_1">
      <!-- $\mathdefault{0}$ -->
      <g transform="translate(50.294859 243.05832) scale(0.1 -0.1)">
       <defs>
        <path id="CMR17-30" d="M 2688 2038 
C 2688 2430 2682 3099 2413 3613 
C 2176 4063 1798 4224 1466 4224 
C 1158 4224 768 4082 525 3620 
C 269 3137 243 2539 243 2038 
C 243 1671 250 1112 448 623 
C 723 -39 1216 -128 1466 -128 
C 1760 -128 2208 -7 2470 604 
C 2662 1048 2688 1568 2688 2038 
z
M 1466 -26 
C 1056 -26 813 328 723 816 
C 653 1196 653 1749 653 2109 
C 653 2604 653 3015 736 3407 
C 858 3954 1216 4121 1466 4121 
C 1728 4121 2067 3947 2189 3420 
C 2272 3054 2278 2623 2278 2109 
C 2278 1691 2278 1176 2202 797 
C 2067 96 1690 -26 1466 -26 
z
" transform="scale(0.015625)"/>
       </defs>
       <use xlink:href="#CMR17-30" transform="scale(0.996264)"/>
      </g>
     </g>
    </g>
    <g id="xtick_2">
     <g id="line2d_2">
      <g>
       <use xlink:href="#mac8c7f5386" x="125.029447" y="228.96" style="stroke: #000000; stroke-width: 0.8"/>
      </g>
     </g>
     <g id="text_2">
      <!-- $\mathdefault{1000}$ -->
      <g transform="translate(115.066776 243.05832) scale(0.1 -0.1)">
       <defs>
        <path id="CMR17-31" d="M 1702 4083 
C 1702 4217 1696 4224 1606 4224 
C 1357 3927 979 3833 621 3820 
C 602 3820 570 3820 563 3808 
C 557 3795 557 3782 557 3648 
C 755 3648 1088 3686 1344 3839 
L 1344 467 
C 1344 243 1331 166 781 166 
L 589 166 
L 589 0 
C 896 6 1216 12 1523 12 
C 1830 12 2150 6 2458 0 
L 2458 166 
L 2266 166 
C 1715 166 1702 236 1702 467 
L 1702 4083 
z
" transform="scale(0.015625)"/>
       </defs>
       <use xlink:href="#CMR17-31" transform="scale(0.996264)"/>
       <use xlink:href="#CMR17-30" transform="translate(45.690477 0) scale(0.996264)"/>
       <use xlink:href="#CMR17-30" transform="translate(91.380954 0) scale(0.996264)"/>
       <use xlink:href="#CMR17-30" transform="translate(137.071431 0) scale(0.996264)"/>
      </g>
     </g>
    </g>
    <g id="xtick_3">
     <g id="line2d_3">
      <g>
       <use xlink:href="#mac8c7f5386" x="197.273367" y="228.96" style="stroke: #000000; stroke-width: 0.8"/>
      </g>
     </g>
     <g id="text_3">
      <!-- $\mathdefault{2000}$ -->
      <g transform="translate(187.310696 243.05832) scale(0.1 -0.1)">
       <defs>
        <path id="CMR17-32" d="M 2669 990 
L 2554 990 
C 2490 537 2438 460 2413 422 
C 2381 371 1920 371 1830 371 
L 602 371 
C 832 620 1280 1073 1824 1596 
C 2214 1966 2669 2400 2669 3033 
C 2669 3788 2067 4224 1395 4224 
C 691 4224 262 3603 262 3027 
C 262 2777 448 2745 525 2745 
C 589 2745 781 2783 781 3007 
C 781 3206 614 3264 525 3264 
C 486 3264 448 3257 422 3244 
C 544 3788 915 4057 1306 4057 
C 1862 4057 2227 3616 2227 3033 
C 2227 2477 1901 1998 1536 1583 
L 262 147 
L 262 0 
L 2515 0 
L 2669 990 
z
" transform="scale(0.015625)"/>
       </defs>
       <use xlink:href="#CMR17-32" transform="scale(0.996264)"/>
       <use xlink:href="#CMR17-30" transform="translate(45.690477 0) scale(0.996264)"/>
       <use xlink:href="#CMR17-30" transform="translate(91.380954 0) scale(0.996264)"/>
       <use xlink:href="#CMR17-30" transform="translate(137.071431 0) scale(0.996264)"/>
      </g>
     </g>
    </g>
    <g id="xtick_4">
     <g id="line2d_4">
      <g>
       <use xlink:href="#mac8c7f5386" x="269.517287" y="228.96" style="stroke: #000000; stroke-width: 0.8"/>
      </g>
     </g>
     <g id="text_4">
      <!-- $\mathdefault{3000}$ -->
      <g transform="translate(259.554617 243.05832) scale(0.1 -0.1)">
       <defs>
        <path id="CMR17-33" d="M 1414 2176 
C 1984 2176 2234 1673 2234 1094 
C 2234 322 1824 25 1453 25 
C 1114 25 563 193 390 691 
C 422 678 454 678 486 678 
C 640 678 755 780 755 947 
C 755 1132 614 1216 486 1216 
C 378 1216 211 1164 211 927 
C 211 335 787 -128 1466 -128 
C 2176 -128 2720 432 2720 1087 
C 2720 1718 2208 2176 1600 2246 
C 2086 2347 2554 2776 2554 3353 
C 2554 3856 2048 4224 1472 4224 
C 890 4224 378 3862 378 3347 
C 378 3123 544 3084 627 3084 
C 762 3084 877 3167 877 3334 
C 877 3500 762 3584 627 3584 
C 602 3584 570 3584 544 3571 
C 730 3999 1235 4076 1459 4076 
C 1683 4076 2106 3966 2106 3347 
C 2106 3167 2080 2851 1862 2574 
C 1670 2329 1453 2316 1242 2297 
C 1210 2297 1062 2284 1037 2284 
C 992 2278 966 2272 966 2227 
C 966 2182 973 2176 1101 2176 
L 1414 2176 
z
" transform="scale(0.015625)"/>
       </defs>
       <use xlink:href="#CMR17-33" transform="scale(0.996264)"/>
       <use xlink:href="#CMR17-30" transform="translate(45.690477 0) scale(0.996264)"/>
       <use xlink:href="#CMR17-30" transform="translate(91.380954 0) scale(0.996264)"/>
       <use xlink:href="#CMR17-30" transform="translate(137.071431 0) scale(0.996264)"/>
      </g>
     </g>
    </g>
    <g id="xtick_5">
     <g id="line2d_5">
      <g>
       <use xlink:href="#mac8c7f5386" x="341.761208" y="228.96" style="stroke: #000000; stroke-width: 0.8"/>
      </g>
     </g>
     <g id="text_5">
      <!-- $\mathdefault{4000}$ -->
      <g transform="translate(331.798537 243.05832) scale(0.1 -0.1)">
       <defs>
        <path id="CMR17-34" d="M 2150 4147 
C 2150 4281 2144 4288 2029 4288 
L 128 1254 
L 128 1088 
L 1779 1088 
L 1779 460 
C 1779 230 1766 166 1318 166 
L 1197 166 
L 1197 0 
C 1402 12 1747 12 1965 12 
C 2182 12 2528 12 2733 0 
L 2733 166 
L 2611 166 
C 2163 166 2150 230 2150 460 
L 2150 1088 
L 2803 1088 
L 2803 1254 
L 2150 1254 
L 2150 4147 
z
M 1798 3723 
L 1798 1254 
L 256 1254 
L 1798 3723 
z
" transform="scale(0.015625)"/>
       </defs>
       <use xlink:href="#CMR17-34" transform="scale(0.996264)"/>
       <use xlink:href="#CMR17-30" transform="translate(45.690477 0) scale(0.996264)"/>
       <use xlink:href="#CMR17-30" transform="translate(91.380954 0) scale(0.996264)"/>
       <use xlink:href="#CMR17-30" transform="translate(137.071431 0) scale(0.996264)"/>
      </g>
     </g>
    </g>
    <g id="text_6">
     <!-- Iteration -->
     <g transform="translate(187.019968 256.278627) scale(0.1 -0.1)">
      <defs>
       <path id="NimbusSanL-Regu-49" d="M 1242 4672 
L 640 4672 
L 640 0 
L 1242 0 
L 1242 4672 
z
" transform="scale(0.015625)"/>
       <path id="NimbusSanL-Regu-74" d="M 1626 3328 
L 1075 3328 
L 1075 4249 
L 544 4249 
L 544 3328 
L 90 3328 
L 90 2892 
L 544 2892 
L 544 402 
C 544 64 774 -128 1190 -128 
C 1318 -128 1446 -116 1626 -84 
L 1626 364 
C 1555 345 1472 339 1370 339 
C 1139 339 1075 402 1075 634 
L 1075 2892 
L 1626 2892 
L 1626 3328 
z
" transform="scale(0.015625)"/>
       <path id="NimbusSanL-Regu-65" d="M 3283 1484 
C 3283 1998 3245 2311 3149 2565 
C 2931 3123 2419 3456 1792 3456 
C 858 3456 256 2734 256 1619 
C 256 545 838 -128 1779 -128 
C 2547 -128 3078 307 3213 1018 
L 2675 1018 
C 2528 588 2227 364 1798 364 
C 1459 364 1171 514 992 787 
C 864 974 819 1161 813 1484 
L 3283 1484 
z
M 826 1920 
C 870 2552 1248 2963 1786 2963 
C 2310 2963 2714 2519 2714 1959 
C 2714 1946 2714 1933 2707 1920 
L 826 1920 
z
" transform="scale(0.015625)"/>
       <path id="NimbusSanL-Regu-72" d="M 442 3328 
L 442 0 
L 979 0 
L 979 1727 
C 979 2203 1101 2514 1357 2698 
C 1523 2819 1683 2857 2054 2863 
L 2054 3404 
C 1965 3449 1920 3456 1850 3456 
C 1504 3456 1242 3251 934 2750 
L 934 3328 
L 442 3328 
z
" transform="scale(0.015625)"/>
       <path id="NimbusSanL-Regu-61" d="M 3424 332 
C 3366 320 3341 320 3309 320 
C 3123 320 3021 415 3021 581 
L 3021 2542 
C 3021 3135 2586 3456 1760 3456 
C 1274 3456 870 3315 646 3065 
C 493 2893 429 2702 416 2370 
L 954 2370 
C 998 2778 1242 2963 1741 2963 
C 2221 2963 2490 2784 2490 2466 
L 2490 2326 
C 2490 2103 2355 2007 1933 1956 
C 1178 1861 1062 1835 858 1753 
C 467 1593 269 1294 269 861 
C 269 256 691 -128 1370 -128 
C 1792 -128 2131 19 2509 364 
C 2547 25 2714 -128 3059 -128 
C 3168 -128 3251 -116 3424 -71 
L 3424 332 
z
M 2490 1071 
C 2490 893 2438 785 2278 638 
C 2061 441 1798 339 1485 339 
C 1069 339 826 536 826 874 
C 826 1224 1062 1402 1632 1485 
C 2195 1562 2310 1587 2490 1670 
L 2490 1071 
z
" transform="scale(0.015625)"/>
       <path id="NimbusSanL-Regu-69" d="M 960 3358 
L 429 3358 
L 429 0 
L 960 0 
L 960 3358 
z
M 960 4672 
L 422 4672 
L 422 3999 
L 960 3999 
L 960 4672 
z
" transform="scale(0.015625)"/>
       <path id="NimbusSanL-Regu-6f" d="M 1741 3456 
C 800 3456 230 2784 230 1663 
C 230 543 794 -128 1747 -128 
C 2688 -128 3264 543 3264 1638 
C 3264 2791 2707 3456 1741 3456 
z
M 1747 2963 
C 2349 2963 2707 2472 2707 1644 
C 2707 861 2336 364 1747 364 
C 1152 364 787 855 787 1663 
C 787 2466 1152 2963 1747 2963 
z
" transform="scale(0.015625)"/>
       <path id="NimbusSanL-Regu-6e" d="M 448 3328 
L 448 0 
L 986 0 
L 986 1835 
C 986 2539 1344 2988 1894 2988 
C 2317 2988 2586 2732 2586 2328 
L 2586 0 
L 3117 0 
L 3117 2539 
C 3117 3097 2701 3456 2054 3456 
C 1555 3456 1235 3263 941 2796 
L 941 3328 
L 448 3328 
z
" transform="scale(0.015625)"/>
      </defs>
      <use xlink:href="#NimbusSanL-Regu-49" transform="scale(0.996264)"/>
      <use xlink:href="#NimbusSanL-Regu-74" transform="translate(27.69517 0) scale(0.996264)"/>
      <use xlink:href="#NimbusSanL-Regu-65" transform="translate(55.390339 0) scale(0.996264)"/>
      <use xlink:href="#NimbusSanL-Regu-72" transform="translate(110.782016 0) scale(0.996264)"/>
      <use xlink:href="#NimbusSanL-Regu-61" transform="translate(142.961149 0) scale(0.996264)"/>
      <use xlink:href="#NimbusSanL-Regu-74" transform="translate(198.352826 0) scale(0.996264)"/>
      <use xlink:href="#NimbusSanL-Regu-69" transform="translate(226.047996 0) scale(0.996264)"/>
      <use xlink:href="#NimbusSanL-Regu-6f" transform="translate(248.16478 0) scale(0.996264)"/>
      <use xlink:href="#NimbusSanL-Regu-6e" transform="translate(303.556457 0) scale(0.996264)"/>
     </g>
    </g>
   </g>
   <g id="matplotlib.axis_2">
    <g id="ytick_1">
     <g id="line2d_6">
      <defs>
       <path id="m7ebfa6f47a" d="M 0 0 
L -3.5 0 
" style="stroke: #000000; stroke-width: 0.8"/>
      </defs>
      <g>
       <use xlink:href="#m7ebfa6f47a" x="37.567344" y="219.548439" style="stroke: #000000; stroke-width: 0.8"/>
      </g>
     </g>
     <g id="text_7">
      <!-- $\mathdefault{0}$ -->
      <g transform="translate(25.586009 223.097599) scale(0.1 -0.1)">
       <use xlink:href="#CMR17-30" transform="scale(0.996264)"/>
      </g>
     </g>
    </g>
    <g id="ytick_2">
     <g id="line2d_7">
      <g>
       <use xlink:href="#m7ebfa6f47a" x="37.567344" y="186.126477" style="stroke: #000000; stroke-width: 0.8"/>
      </g>
     </g>
     <g id="text_8">
      <!-- $\mathdefault{5}$ -->
      <g transform="translate(25.586009 189.675637) scale(0.1 -0.1)">
       <defs>
        <path id="CMR17-35" d="M 730 3750 
C 794 3724 1056 3641 1325 3641 
C 1920 3641 2246 3961 2432 4140 
C 2432 4191 2432 4224 2394 4224 
C 2387 4224 2374 4224 2323 4198 
C 2099 4102 1837 4032 1517 4032 
C 1325 4032 1037 4055 723 4191 
C 653 4224 640 4224 634 4224 
C 602 4224 595 4217 595 4090 
L 595 2231 
C 595 2113 595 2080 659 2080 
C 691 2080 704 2093 736 2139 
C 941 2435 1222 2560 1542 2560 
C 1766 2560 2246 2415 2246 1293 
C 2246 1087 2246 716 2054 422 
C 1894 159 1645 25 1370 25 
C 947 25 518 319 403 812 
C 429 806 480 793 506 793 
C 589 793 749 838 749 1036 
C 749 1209 627 1280 506 1280 
C 358 1280 262 1190 262 1011 
C 262 454 704 -128 1382 -128 
C 2042 -128 2669 441 2669 1267 
C 2669 2054 2170 2662 1549 2662 
C 1222 2662 947 2540 730 2304 
L 730 3750 
z
" transform="scale(0.015625)"/>
       </defs>
       <use xlink:href="#CMR17-35" transform="scale(0.996264)"/>
      </g>
     </g>
    </g>
    <g id="ytick_3">
     <g id="line2d_8">
      <g>
       <use xlink:href="#m7ebfa6f47a" x="37.567344" y="152.704514" style="stroke: #000000; stroke-width: 0.8"/>
      </g>
     </g>
     <g id="text_9">
      <!-- $\mathdefault{10}$ -->
      <g transform="translate(20.604674 156.253674) scale(0.1 -0.1)">
       <use xlink:href="#CMR17-31" transform="scale(0.996264)"/>
       <use xlink:href="#CMR17-30" transform="translate(45.690477 0) scale(0.996264)"/>
      </g>
     </g>
    </g>
    <g id="ytick_4">
     <g id="line2d_9">
      <g>
       <use xlink:href="#m7ebfa6f47a" x="37.567344" y="119.282552" style="stroke: #000000; stroke-width: 0.8"/>
      </g>
     </g>
     <g id="text_10">
      <!-- $\mathdefault{15}$ -->
      <g transform="translate(20.604674 122.831712) scale(0.1 -0.1)">
       <use xlink:href="#CMR17-31" transform="scale(0.996264)"/>
       <use xlink:href="#CMR17-35" transform="translate(45.690477 0) scale(0.996264)"/>
      </g>
     </g>
    </g>
    <g id="ytick_5">
     <g id="line2d_10">
      <g>
       <use xlink:href="#m7ebfa6f47a" x="37.567344" y="85.860589" style="stroke: #000000; stroke-width: 0.8"/>
      </g>
     </g>
     <g id="text_11">
      <!-- $\mathdefault{20}$ -->
      <g transform="translate(20.604674 89.409749) scale(0.1 -0.1)">
       <use xlink:href="#CMR17-32" transform="scale(0.996264)"/>
       <use xlink:href="#CMR17-30" transform="translate(45.690477 0) scale(0.996264)"/>
      </g>
     </g>
    </g>
    <g id="ytick_6">
     <g id="line2d_11">
      <g>
       <use xlink:href="#m7ebfa6f47a" x="37.567344" y="52.438627" style="stroke: #000000; stroke-width: 0.8"/>
      </g>
     </g>
     <g id="text_12">
      <!-- $\mathdefault{25}$ -->
      <g transform="translate(20.604674 55.987787) scale(0.1 -0.1)">
       <use xlink:href="#CMR17-32" transform="scale(0.996264)"/>
       <use xlink:href="#CMR17-35" transform="translate(45.690477 0) scale(0.996264)"/>
      </g>
     </g>
    </g>
    <g id="ytick_7">
     <g id="line2d_12">
      <g>
       <use xlink:href="#m7ebfa6f47a" x="37.567344" y="19.016664" style="stroke: #000000; stroke-width: 0.8"/>
      </g>
     </g>
     <g id="text_13">
      <!-- $\mathdefault{30}$ -->
      <g transform="translate(20.604674 22.565824) scale(0.1 -0.1)">
       <use xlink:href="#CMR17-33" transform="scale(0.996264)"/>
       <use xlink:href="#CMR17-30" transform="translate(45.690477 0) scale(0.996264)"/>
      </g>
     </g>
    </g>
    <g id="text_14">
     <!-- Average CFL - Blade_1 -->
     <g transform="translate(14.482687 168.77932) rotate(-90) scale(0.1 -0.1)">
      <defs>
       <path id="NimbusSanL-Regu-41" d="M 3034 1408 
L 3514 0 
L 4179 0 
L 2541 4672 
L 1773 4672 
L 109 0 
L 742 0 
L 1235 1408 
L 3034 1408 
z
M 2867 1907 
L 1382 1907 
L 2150 4032 
L 2867 1907 
z
" transform="scale(0.015625)"/>
       <path id="NimbusSanL-Regu-76" d="M 1824 0 
L 3110 3328 
L 2509 3328 
L 1562 629 
L 666 3328 
L 64 3328 
L 1242 0 
L 1824 0 
z
" transform="scale(0.015625)"/>
       <path id="NimbusSanL-Regu-67" d="M 2637 3359 
L 2637 2873 
C 2368 3270 2042 3456 1613 3456 
C 762 3456 186 2714 186 1632 
C 186 1084 333 638 608 320 
C 858 38 1216 -128 1568 -128 
C 1990 -128 2285 51 2586 473 
L 2586 300 
C 2586 -155 2528 -441 2394 -634 
C 2253 -841 1978 -960 1651 -960 
C 1408 -960 1190 -894 1043 -774 
C 922 -674 870 -581 838 -375 
L 294 -375 
C 352 -1031 845 -1408 1632 -1408 
C 2131 -1408 2560 -1248 2778 -980 
C 3034 -661 3130 -222 3130 568 
L 3130 3359 
L 2637 3359 
z
M 1670 2963 
C 2246 2963 2586 2479 2586 1644 
C 2586 848 2240 364 1677 364 
C 1094 364 742 855 742 1663 
C 742 2466 1101 2963 1670 2963 
z
" transform="scale(0.015625)"/>
       <path id="NimbusSanL-Regu-43" d="M 4237 3219 
C 4051 4236 3462 4736 2438 4736 
C 1811 4736 1306 4537 960 4154 
C 538 3696 307 3035 307 2284 
C 307 1522 544 867 986 415 
C 1344 44 1805 -128 2413 -128 
C 3552 -128 4192 485 4333 1712 
L 3718 1712 
C 3667 1394 3603 1178 3507 994 
C 3315 612 2918 396 2419 396 
C 1491 396 902 1134 902 2291 
C 902 3480 1466 4211 2368 4211 
C 2746 4211 3098 4096 3290 3918 
C 3462 3759 3558 3562 3629 3219 
L 4237 3219 
z
" transform="scale(0.015625)"/>
       <path id="NimbusSanL-Regu-46" d="M 1171 2112 
L 3398 2112 
L 3398 2636 
L 1171 2636 
L 1171 4147 
L 3706 4147 
L 3706 4672 
L 576 4672 
L 576 0 
L 1171 0 
L 1171 2112 
z
" transform="scale(0.015625)"/>
       <path id="NimbusSanL-Regu-4c" d="M 1107 4672 
L 512 4672 
L 512 0 
L 3411 0 
L 3411 524 
L 1107 524 
L 1107 4672 
z
" transform="scale(0.015625)"/>
       <path id="NimbusSanL-Regu-2d" d="M 1818 1996 
L 294 1996 
L 294 1536 
L 1818 1536 
L 1818 1996 
z
" transform="scale(0.015625)"/>
       <path id="NimbusSanL-Regu-42" d="M 506 0 
L 2611 0 
C 3053 0 3379 121 3629 390 
C 3859 632 3987 961 3987 1321 
C 3987 1878 3731 2214 3136 2444 
C 3558 2643 3782 2994 3782 3476 
C 3782 3821 3654 4127 3411 4345 
C 3168 4569 2848 4672 2400 4672 
L 506 4672 
L 506 0 
z
M 1101 2636 
L 1101 4147 
L 2253 4147 
C 2586 4147 2771 4101 2931 3977 
C 3098 3847 3187 3652 3187 3391 
C 3187 3138 3098 2936 2931 2806 
C 2771 2682 2586 2636 2253 2636 
L 1101 2636 
z
M 1101 524 
L 1101 2112 
L 2554 2112 
C 2842 2112 3034 2042 3174 1890 
C 3315 1745 3392 1542 3392 1315 
C 3392 1093 3315 891 3174 746 
C 3034 594 2842 524 2554 524 
L 1101 524 
z
" transform="scale(0.015625)"/>
       <path id="NimbusSanL-Regu-6c" d="M 973 4672 
L 435 4672 
L 435 0 
L 973 0 
L 973 4672 
z
" transform="scale(0.015625)"/>
       <path id="NimbusSanL-Regu-64" d="M 3168 4672 
L 2637 4672 
L 2637 2937 
C 2413 3276 2054 3456 1606 3456 
C 736 3456 166 2759 166 1695 
C 166 568 723 -128 1626 -128 
C 2086 -128 2406 44 2694 460 
L 2694 19 
L 3168 19 
L 3168 4672 
z
M 1696 2956 
C 2272 2956 2637 2447 2637 1651 
C 2637 880 2266 371 1702 371 
C 1114 371 723 887 723 1663 
C 723 2440 1114 2956 1696 2956 
z
" transform="scale(0.015625)"/>
       <path id="NimbusSanL-Regu-31" d="M 1658 3232 
L 1658 0 
L 2221 0 
L 2221 4537 
L 1850 4537 
C 1651 3840 1523 3744 653 3635 
L 653 3232 
L 1658 3232 
z
" transform="scale(0.015625)"/>
      </defs>
      <use xlink:href="#NimbusSanL-Regu-41" transform="scale(0.996264)"/>
      <use xlink:href="#NimbusSanL-Regu-76" transform="translate(62.465918 0) scale(0.996264)"/>
      <use xlink:href="#NimbusSanL-Regu-65" transform="translate(109.788488 0) scale(0.996264)"/>
      <use xlink:href="#NimbusSanL-Regu-72" transform="translate(165.180165 0) scale(0.996264)"/>
      <use xlink:href="#NimbusSanL-Regu-61" transform="translate(197.359298 0) scale(0.996264)"/>
      <use xlink:href="#NimbusSanL-Regu-67" transform="translate(252.750975 0) scale(0.996264)"/>
      <use xlink:href="#NimbusSanL-Regu-65" transform="translate(308.142652 0) scale(0.996264)"/>
      <use xlink:href="#NimbusSanL-Regu-43" transform="translate(391.229499 0) scale(0.996264)"/>
      <use xlink:href="#NimbusSanL-Regu-46" transform="translate(463.159484 0) scale(0.996264)"/>
      <use xlink:href="#NimbusSanL-Regu-4c" transform="translate(524.031114 0) scale(0.996264)"/>
      <use xlink:href="#NimbusSanL-Regu-2d" transform="translate(607.117961 0) scale(0.996264)"/>
      <use xlink:href="#NimbusSanL-Regu-42" transform="translate(667.98836 0) scale(0.996264)"/>
      <use xlink:href="#NimbusSanL-Regu-6c" transform="translate(734.438391 0) scale(0.996264)"/>
      <use xlink:href="#NimbusSanL-Regu-61" transform="translate(756.555176 0) scale(0.996264)"/>
      <use xlink:href="#NimbusSanL-Regu-64" transform="translate(811.946853 0) scale(0.996264)"/>
      <use xlink:href="#NimbusSanL-Regu-65" transform="translate(867.33853 0) scale(0.996264)"/>
      <use xlink:href="#NimbusSanL-Regu-31" transform="translate(958.595772 0) scale(0.996264)"/>
      <path d="M 928.707548 0 
L 958.595772 0 
L 958.595772 0.3985 
L 928.707548 0.3985 
L 928.707548 0 
z
"/>
     </g>
    </g>
   </g>
   <g id="line2d_13">
    <path d="M 52.785526 124.242086 
L 52.930014 83.912709 
L 53.002258 205.984866 
L 53.074502 203.272152 
L 53.363478 185.797929 
L 53.652453 149.563382 
L 53.941429 74.540273 
L 54.013673 205.047623 
L 54.085917 202.147459 
L 54.374892 183.465767 
L 54.663868 144.72741 
L 54.952844 64.487013 
L 55.025088 204.042297 
L 55.097332 200.941068 
L 55.386307 180.964195 
L 55.675283 139.540149 
L 56.036503 53.794792 
L 56.108747 202.973075 
L 56.18099 199.658002 
L 56.469966 178.303628 
L 56.758942 134.023198 
L 56.975674 71.788885 
L 57.047918 204.772484 
L 57.120161 201.817293 
L 57.409137 182.781134 
L 57.698113 143.318866 
L 58.131576 61.99069 
L 58.20382 203.792664 
L 58.276064 200.641509 
L 58.56504 180.343029 
L 58.854016 138.32071 
L 59.215235 51.341815 
L 59.287479 202.727777 
L 59.359723 199.363644 
L 59.648699 177.693249 
L 59.937674 132.783827 
L 60.298894 69.748161 
L 60.371138 204.568411 
L 60.443382 201.572406 
L 60.732357 182.273805 
L 61.021333 142.28908 
L 61.310309 59.509338 
L 61.382553 203.544529 
L 61.454797 200.343747 
L 61.743772 179.72559 
L 62.032748 136.98046 
L 62.24948 76.903463 
L 62.321724 205.283942 
L 62.393968 202.431042 
L 62.682943 184.053805 
L 62.971919 145.95161 
L 63.405382 67.025376 
L 63.477626 204.296133 
L 63.54987 201.245672 
L 63.838846 181.59582 
L 64.127822 140.856092 
L 64.416797 56.379994 
L 64.489041 203.231595 
L 64.561285 199.968226 
L 64.850261 178.946909 
L 65.139237 135.357106 
L 65.355968 74.065815 
L 65.428212 205.000177 
L 65.500456 202.090524 
L 65.789432 183.347707 
L 66.078408 144.4826 
L 66.295139 89.83467 
L 66.367383 206.577062 
L 66.439627 203.982787 
L 66.728603 187.271503 
L 67.017579 152.618983 
L 67.306554 80.769275 
L 67.378798 53.023205 
L 67.451042 202.895916 
L 67.523286 199.565411 
L 67.812262 178.111632 
L 68.101237 133.625076 
L 68.317969 71.078379 
L 68.390213 204.701433 
L 68.462457 201.732032 
L 68.751433 182.604337 
L 69.040408 142.941149 
L 69.25714 87.171042 
L 69.329384 206.3107 
L 69.401628 203.663152 
L 69.690604 186.608707 
L 69.979579 151.24461 
L 70.268555 77.915405 
L 70.340799 49.60173 
L 70.413043 202.553768 
L 70.485287 199.154834 
L 70.774262 177.26026 
L 71.063238 131.85967 
L 71.27997 68.031802 
L 71.352214 204.396775 
L 71.424458 201.366443 
L 71.713433 181.846251 
L 72.002409 141.369182 
L 72.435873 57.435932 
L 72.508116 57.435932 
L 72.58036 25.013431 
L 72.652604 200.094938 
L 72.724848 196.204238 
L 73.013824 171.141904 
L 73.3028 119.172648 
L 73.519531 46.099071 
L 73.591775 202.203502 
L 73.664019 198.734515 
L 73.952995 176.388686 
L 74.241971 130.052375 
L 74.675434 33.969401 
L 74.747678 200.990535 
L 74.819922 197.278955 
L 75.108898 173.370436 
L 75.397873 123.793732 
L 75.614605 54.084305 
L 75.686849 203.002026 
L 75.759093 199.692743 
L 76.048069 178.375668 
L 76.337044 134.17258 
L 76.62602 42.513058 
L 76.698264 201.844901 
L 76.770508 198.304193 
L 77.059483 175.496371 
L 77.348459 128.202071 
L 77.565191 61.701915 
L 77.637435 203.763787 
L 77.709679 200.606856 
L 77.998654 180.271173 
L 78.28763 138.1031 
L 78.576606 50.663383 
L 78.64885 202.659934 
L 78.721094 199.282233 
L 79.010069 177.524433 
L 79.299045 132.40746 
L 79.660265 68.968827 
L 80.527192 68.968827 
L 80.599436 38.852904 
L 80.671679 201.478886 
L 80.743923 197.864975 
L 81.032899 174.585608 
L 81.321875 126.313512 
L 81.538606 58.438485 
L 81.61085 203.437444 
L 81.683094 200.215245 
L 81.97207 179.459127 
L 82.261046 136.419242 
L 82.550021 47.171735 
L 82.622265 202.310769 
L 82.694509 198.863235 
L 82.983485 176.655599 
L 83.272461 130.605846 
L 83.489192 65.855639 
L 83.561436 204.179159 
L 83.63368 201.105303 
L 83.922656 181.304752 
L 84.211632 140.24633 
L 84.500607 55.107585 
L 84.572851 203.104354 
L 84.645095 199.815537 
L 84.934071 178.630293 
L 85.223046 134.700571 
L 85.584266 43.607899 
L 85.65651 201.954385 
L 85.728754 198.435574 
L 86.01773 175.768803 
L 86.306705 128.766985 
L 86.523437 62.678086 
L 86.595681 203.861404 
L 86.667925 200.723997 
L 86.956901 180.514076 
L 87.245876 138.606783 
L 87.534852 51.719605 
L 87.607096 202.765556 
L 87.67934 199.408979 
L 87.968315 177.787255 
L 88.257291 132.952447 
L 88.690755 39.982989 
L 88.762999 201.591894 
L 88.835242 198.000585 
L 89.124218 174.866809 
L 89.413194 126.896611 
L 89.629926 59.44608 
L 89.702169 203.538203 
L 89.774413 200.336156 
L 90.063389 179.709849 
L 90.352365 136.939139 
L 90.64134 48.249794 
L 90.713584 202.418575 
L 90.785828 198.992602 
L 91.074804 176.923855 
L 91.36378 131.162101 
L 91.724999 66.816846 
L 92.158463 66.816846 
L 92.230707 204.27528 
L 92.302951 201.220648 
L 92.591926 181.543931 
L 92.880902 140.742292 
L 93.242122 56.136012 
L 93.314366 203.207197 
L 93.386609 199.938948 
L 93.675585 178.886198 
L 93.964561 135.231216 
L 94.181293 73.848278 
L 94.253536 204.978423 
L 94.32578 202.06442 
L 94.614756 183.293577 
L 94.903732 144.370356 
L 95.192707 63.659166 
L 95.264951 203.959512 
L 95.337195 200.841727 
L 95.626171 180.7582 
L 95.915147 139.112999 
L 96.34861 52.757509 
L 96.420854 202.869346 
L 96.493098 199.533528 
L 96.782074 178.045519 
L 97.071049 133.487983 
L 97.287781 70.835971 
L 97.360025 204.677192 
L 97.432269 201.702943 
L 97.721245 182.544018 
L 98.01022 142.816072 
L 98.299196 60.436202 
L 98.37144 203.637216 
L 98.443684 200.454971 
L 98.73266 179.956223 
L 99.021635 137.45002 
L 99.455099 49.309157 
L 99.527343 202.524511 
L 99.599587 199.119725 
L 99.888562 177.187458 
L 100.177538 131.708709 
L 100.39427 67.761385 
L 100.466514 204.369734 
L 100.538758 201.333993 
L 100.827733 181.778963 
L 101.116709 141.229653 
L 101.405685 57.146605 
L 101.477929 203.308256 
L 101.550172 200.060219 
L 101.839148 179.137666 
L 102.128124 135.75266 
L 102.417099 45.789511 
L 102.489343 202.172546 
L 102.561587 198.697368 
L 102.850563 176.311658 
L 103.139539 129.892649 
L 103.35627 64.623233 
L 103.428514 204.055919 
L 103.500758 200.957415 
L 103.789734 180.99809 
L 104.07871 139.610436 
L 104.439929 53.788995 
L 104.512173 202.972495 
L 104.584417 199.657306 
L 104.873393 178.302185 
L 105.162368 134.020207 
L 105.3791 71.755654 
L 105.451344 204.769161 
L 105.523588 201.813305 
L 105.812564 182.772865 
L 106.101539 143.290608 
L 106.390515 61.420201 
L 106.462759 203.735615 
L 106.535003 200.573051 
L 106.823979 180.201074 
L 107.112954 137.957742 
L 107.329686 78.559714 
L 107.40193 205.449567 
L 107.474174 202.629792 
L 107.76315 184.465933 
L 108.052125 146.801354 
L 108.341101 68.700083 
L 108.413345 204.463604 
L 108.485589 201.446636 
L 108.774564 182.012541 
L 109.06354 141.714001 
L 109.42476 58.150947 
L 109.497004 203.40869 
L 109.569248 200.18074 
L 109.858223 179.387579 
L 110.147199 136.270878 
L 110.363931 75.644814 
L 110.436175 205.158077 
L 110.508419 202.280004 
L 110.797394 183.740612 
L 111.08637 145.29733 
L 111.375346 65.581338 
L 111.44759 204.151729 
L 111.519833 201.072387 
L 111.808809 181.236498 
L 112.097785 140.104797 
L 112.38676 54.814103 
L 112.459004 203.075006 
L 112.531248 199.780319 
L 112.820224 178.557265 
L 113.1092 134.54914 
L 113.398175 43.293892 
L 113.470419 201.922985 
L 113.542663 198.397894 
L 113.831639 175.690668 
L 114.120615 128.604964 
L 114.337346 62.398114 
L 114.40959 203.833407 
L 114.481834 200.6904 
L 114.77081 180.44441 
L 115.059786 138.462323 
L 115.348761 51.40827 
L 115.421005 202.734422 
L 115.493249 199.371619 
L 115.782225 177.709785 
L 116.0712 132.791805 
L 116.287932 69.632975 
L 116.360176 204.556893 
L 116.43242 201.558584 
L 116.721396 182.244674 
L 117.010371 142.195353 
L 117.299347 59.149079 
L 117.371591 203.508503 
L 117.443835 200.300516 
L 117.732811 179.635946 
L 118.021786 136.785892 
L 118.238518 76.534758 
L 118.310762 205.247071 
L 118.383006 202.386798 
L 118.671982 183.962059 
L 118.960957 145.756521 
L 119.249933 66.544341 
L 119.322177 204.248029 
L 119.394421 201.187948 
L 119.683396 181.476124 
L 119.972372 140.601686 
L 120.333592 55.864679 
L 120.405836 203.180063 
L 120.47808 199.906388 
L 120.767055 178.818682 
L 121.056031 135.091214 
L 121.272763 73.618507 
L 121.345007 204.955446 
L 121.417251 202.036847 
L 121.706226 183.236402 
L 121.995202 144.251799 
L 122.284178 63.440907 
L 122.356421 203.937686 
L 122.428665 200.815535 
L 122.717641 180.70389 
L 123.006617 139.000381 
L 123.223349 80.361395 
L 123.295592 218.88 
L 123.367836 218.746312 
L 123.656812 217.885148 
L 123.945788 216.09944 
L 124.234763 212.396593 
L 124.523739 204.718372 
L 124.812715 188.796811 
L 125.10169 155.781864 
L 125.390666 87.323358 
L 125.46291 60.937293 
L 125.535154 203.687325 
L 125.607398 200.515102 
L 125.896374 180.080911 
L 126.185349 137.708572 
L 126.618813 49.851915 
L 126.691057 202.578787 
L 126.763301 199.184856 
L 127.052276 177.322514 
L 127.341252 131.98876 
L 127.557984 68.245313 
L 127.630228 204.418127 
L 127.702472 201.392064 
L 127.991447 181.89938 
L 128.280423 141.47935 
L 128.569399 57.700583 
L 128.641643 203.363654 
L 128.713886 200.126696 
L 129.002862 179.275513 
L 129.291838 136.0385 
L 129.725301 46.43596 
L 129.797545 202.237191 
L 129.869789 198.774942 
L 130.158765 176.472515 
L 130.447741 130.226202 
L 130.664472 65.199614 
L 130.736716 204.113557 
L 130.80896 201.02658 
L 131.097936 181.141512 
L 131.386912 139.907836 
L 131.675887 54.405683 
L 131.748131 203.034164 
L 131.820375 199.731309 
L 132.109351 178.455637 
L 132.398326 134.338405 
L 132.687302 42.856911 
L 132.759546 201.879286 
L 132.83179 198.345456 
L 133.120766 175.581933 
L 133.409741 128.379492 
L 133.843205 30.50051 
L 133.915449 200.643646 
L 133.987693 196.862688 
L 134.276668 172.507265 
L 134.565644 122.00386 
L 134.926864 17.28 
L 134.999108 199.321595 
L 135.071351 195.276227 
L 135.360327 169.217579 
L 135.649303 115.182367 
L 135.866035 39.203867 
L 135.938279 201.513982 
L 136.010522 197.907091 
L 136.299498 174.672939 
L 136.588474 126.494601 
L 136.949693 26.592001 
L 137.021937 200.252795 
L 137.094181 196.393667 
L 137.383157 171.534703 
L 137.672133 119.987155 
L 137.888864 47.50654 
L 137.961108 202.344249 
L 138.033352 198.903411 
L 138.322328 176.738909 
L 138.611304 130.778598 
L 138.900279 35.475297 
L 138.972523 201.141125 
L 139.044767 197.459662 
L 139.333743 173.745151 
L 139.622718 124.570741 
L 139.983938 55.426977 
L 140.706377 55.426977 
L 140.778621 203.136293 
L 140.850865 199.853864 
L 141.139841 178.709767 
L 141.428816 134.865369 
L 141.790036 43.949626 
L 141.86228 201.988558 
L 141.934524 198.476582 
L 142.2235 175.853835 
L 142.512475 128.943309 
L 142.729207 62.982773 
L 142.801451 203.891873 
L 142.873695 200.760559 
L 143.162671 180.589891 
L 143.451646 138.763995 
L 143.740622 52.033815 
L 143.812866 202.796977 
L 143.88511 199.446684 
L 144.174085 177.86544 
L 144.463061 133.114572 
L 144.824281 40.319173 
L 144.896525 201.625513 
L 144.968769 198.040927 
L 145.257744 174.950462 
L 145.54672 127.070075 
L 145.763452 59.745825 
L 145.835696 203.568178 
L 145.90794 200.372126 
L 146.196915 179.784435 
L 146.485891 137.0938 
L 146.84711 77.066823 
L 147.425062 77.066823 
L 147.497306 48.5705 
L 147.56955 202.450645 
L 147.641794 199.031087 
L 147.930769 177.003657 
L 148.219745 131.327578 
L 148.436477 67.102791 
L 148.508721 204.303874 
L 148.580965 201.254961 
L 148.86994 181.615084 
L 149.158916 140.889833 
L 149.447892 56.441954 
L 149.520136 203.237791 
L 149.592379 199.975661 
L 149.881355 178.962326 
L 150.170331 135.389076 
L 150.387063 74.121059 
L 150.459306 205.005701 
L 150.53155 202.097154 
L 150.820526 183.361453 
L 151.109502 144.511105 
L 151.398477 63.951023 
L 151.470721 203.988698 
L 151.542965 200.876749 
L 151.831941 180.830823 
L 152.120917 139.26359 
L 152.409892 53.069776 
L 152.482136 202.900573 
L 152.55438 199.571 
L 152.843356 178.123221 
L 153.132332 133.649106 
L 153.493551 41.427582 
L 153.565795 201.736353 
L 153.638039 198.173936 
L 153.927015 175.22627 
L 154.21599 127.641989 
L 154.432722 60.734093 
L 154.504966 203.667005 
L 154.57721 200.490718 
L 154.866186 180.030348 
L 155.155161 137.603725 
L 155.588625 49.62788 
L 155.660869 202.556383 
L 155.733113 199.157972 
L 156.022088 177.266767 
L 156.311064 131.873163 
L 156.672284 37.744986 
L 156.744528 201.368094 
L 156.816771 197.732025 
L 157.105747 174.309922 
L 157.394723 125.741851 
L 157.611455 57.450654 
L 157.683699 203.338661 
L 157.755942 200.096705 
L 158.044918 179.213323 
L 158.333894 135.909543 
L 158.550626 75.020426 
L 158.622869 205.095638 
L 158.695113 202.205078 
L 158.984089 183.585245 
L 159.273065 144.975159 
L 159.56204 64.913285 
L 159.634284 204.084924 
L 159.706528 200.992221 
L 159.995504 181.070265 
L 160.28448 139.760096 
L 160.573455 54.099331 
L 160.645699 203.003528 
L 160.717943 199.694546 
L 161.006919 178.379407 
L 161.295895 134.180334 
L 161.512626 72.032353 
L 161.58487 204.796831 
L 161.657114 201.846509 
L 161.94609 182.841716 
L 162.235066 143.433379 
L 162.596285 61.71625 
L 162.668529 203.76522 
L 162.740773 200.608577 
L 163.029749 180.27474 
L 163.318724 138.110496 
L 163.535456 78.823674 
L 163.6077 205.475963 
L 163.679944 202.661467 
L 163.96892 184.531614 
L 164.257895 146.937551 
L 164.546871 68.982502 
L 164.619115 204.491846 
L 164.691359 201.480527 
L 164.980334 182.082816 
L 165.26931 141.859723 
L 165.558286 58.453117 
L 165.63053 203.438907 
L 165.702774 200.217001 
L 165.991749 179.462768 
L 166.280725 136.426791 
L 166.497457 75.914231 
L 166.569701 205.185018 
L 166.641945 202.312334 
L 166.93092 183.807652 
L 167.219896 145.436343 
L 167.65336 65.869596 
L 167.725603 204.180555 
L 167.797847 201.106978 
L 168.086823 181.308225 
L 168.375799 140.253532 
L 168.737018 55.122519 
L 168.809262 203.105847 
L 168.881506 199.817329 
L 169.170482 178.634009 
L 169.459458 134.708276 
L 169.676189 72.944637 
L 169.748433 204.888059 
L 169.820677 201.955983 
L 170.109653 183.068722 
L 170.398629 143.904098 
L 170.832092 62.692332 
L 170.904336 203.862829 
L 170.97658 200.725706 
L 171.265556 180.51762 
L 171.554531 138.614133 
L 171.771263 79.693959 
L 171.843507 205.562991 
L 171.915751 202.765902 
L 172.204727 184.748169 
L 172.493702 147.386599 
L 172.782678 69.913648 
L 172.854922 204.58496 
L 172.927166 201.592264 
L 173.216141 182.314515 
L 173.505117 142.340174 
L 173.866337 59.449379 
L 173.938581 203.538533 
L 174.010825 200.336552 
L 174.2998 179.71067 
L 174.588776 136.940841 
L 174.805508 76.802509 
L 174.877752 205.273846 
L 174.949995 202.418928 
L 175.238971 184.028684 
L 175.527947 145.894675 
L 175.889166 92.274734 
L 176.033654 92.274734 
L 176.105898 66.819993 
L 176.178142 204.275595 
L 176.250386 201.221026 
L 176.539362 181.544715 
L 176.828337 140.743916 
L 177.045069 83.374223 
L 177.117313 205.931018 
L 177.189557 203.207533 
L 177.478533 185.663937 
L 177.767508 149.285535 
L 178.056484 73.85128 
L 178.128728 204.978723 
L 178.200972 202.06478 
L 178.489948 183.294324 
L 178.778923 144.371905 
L 178.995655 89.643389 
L 179.067899 206.557934 
L 179.140143 203.959833 
L 179.429119 187.223906 
L 179.718094 152.520286 
L 180.00707 80.558862 
L 180.079314 205.649481 
L 180.151558 202.86969 
L 180.440533 184.963385 
L 180.729509 147.83287 
L 181.018485 70.839035 
L 181.090729 204.677499 
L 181.162973 201.703311 
L 181.451948 182.544781 
L 181.740924 142.817653 
L 181.957656 86.957641 
L 182.0299 206.289359 
L 182.102144 203.637543 
L 182.391119 186.555606 
L 182.680095 151.134499 
L 182.969071 77.685294 
L 183.041315 205.362125 
L 183.113558 202.524862 
L 183.402534 184.248349 
L 183.69151 146.350172 
L 183.908242 93.061834 
L 183.980486 206.899779 
L 184.052729 204.370047 
L 184.341705 188.074524 
L 184.630681 154.284129 
L 184.919656 84.216366 
L 184.9919 206.015232 
L 185.064144 203.30859 
L 185.35312 185.873489 
L 185.642096 149.720062 
L 185.931071 74.752316 
L 186.003315 205.068827 
L 186.075559 202.172904 
L 186.364535 183.51853 
L 186.653511 144.83682 
L 187.01473 64.626426 
L 187.086974 204.056238 
L 187.159218 200.957798 
L 187.448194 180.998885 
L 187.737169 139.612083 
L 187.953901 81.418416 
L 188.026145 205.735437 
L 188.098389 202.972836 
L 188.387365 185.177269 
L 188.67634 148.276381 
L 188.965316 71.758699 
L 189.03756 204.769465 
L 189.109804 201.81367 
L 189.39878 182.773623 
L 189.687755 143.29218 
L 189.904487 87.777623 
L 189.976731 206.371358 
L 190.048975 203.735941 
L 190.337951 186.759643 
L 190.626926 151.557592 
L 190.915902 78.562619 
L 190.988146 205.449857 
L 191.06039 202.630141 
L 191.349365 184.466656 
L 191.638341 146.802853 
L 191.927317 68.703191 
L 191.999561 204.463914 
L 192.071805 201.447009 
L 192.36078 182.013314 
L 192.649756 141.715604 
L 193.010976 58.154273 
L 193.083219 203.409023 
L 193.155463 200.181139 
L 193.444439 179.388406 
L 193.733415 136.272594 
L 193.950147 75.647779 
L 194.02239 205.158373 
L 194.094634 202.28036 
L 194.38361 183.74135 
L 194.672586 145.298859 
L 195.033805 91.245165 
L 195.106049 91.245165 
L 195.178293 65.584511 
L 195.250537 204.152046 
L 195.322781 201.072768 
L 195.611757 181.237287 
L 195.900732 140.106434 
L 196.117464 82.272654 
L 196.189708 205.820861 
L 196.261952 203.075345 
L 196.550928 185.389831 
L 196.839903 148.717149 
L 197.128879 72.672676 
L 197.201123 204.860863 
L 197.273367 201.923348 
L 197.562343 183.001049 
L 197.851318 143.763772 
L 198.212538 62.401353 
L 198.284782 203.833731 
L 198.357026 200.690789 
L 198.646001 180.445215 
L 198.934977 138.463994 
L 199.151709 79.434518 
L 199.223953 205.537047 
L 199.296197 202.734769 
L 199.585172 184.683612 
L 199.874148 147.252734 
L 200.163124 69.636064 
L 200.235368 204.557202 
L 200.307612 201.558954 
L 200.596587 182.245443 
L 200.885563 142.196946 
L 201.246782 59.152384 
L 201.319026 203.508834 
L 201.39127 200.300913 
L 201.680246 179.636768 
L 201.969222 136.787598 
L 202.330441 76.537705 
L 203.05288 76.537705 
L 203.125124 205.247366 
L 203.197368 202.387151 
L 203.486344 183.962792 
L 203.77532 145.758042 
L 204.064295 66.536671 
L 204.136539 204.247262 
L 204.208783 201.187027 
L 204.497759 181.474215 
L 204.786735 140.597728 
L 205.003466 83.121609 
L 205.07571 205.905756 
L 205.147954 203.17722 
L 205.43693 185.601078 
L 205.725906 149.155192 
L 206.014881 73.581001 
L 206.087125 204.951695 
L 206.159369 202.032347 
L 206.448345 183.22707 
L 206.73732 144.232447 
L 207.09854 63.373198 
L 207.170784 203.930915 
L 207.243028 200.80741 
L 207.532004 180.687042 
L 207.820979 138.965445 
L 208.037711 80.301026 
L 208.109955 205.623698 
L 208.182199 202.83875 
L 208.471175 184.899227 
L 208.76015 147.699832 
L 209.049126 70.563168 
L 209.12137 204.649912 
L 209.193614 201.670207 
L 209.482589 182.476136 
L 209.771565 142.675312 
L 209.988297 86.711675 
L 210.060541 206.264763 
L 210.132785 203.608028 
L 210.42176 186.494401 
L 210.710736 151.007587 
L 210.999712 77.422127 
L 211.071956 205.335808 
L 211.1442 202.493282 
L 211.433175 184.182865 
L 211.722151 146.214384 
L 212.083371 67.482942 
L 212.155614 204.34189 
L 212.227858 201.30058 
L 212.516834 181.709677 
L 212.80581 141.085983 
L 213.022541 83.965315 
L 213.094785 205.990127 
L 213.167029 203.278464 
L 213.456005 185.811019 
L 213.744981 149.590525 
L 214.033956 74.483708 
L 214.1062 205.041966 
L 214.178444 202.140672 
L 214.46742 183.451692 
L 214.756396 144.698224 
L 215.189859 64.339034 
L 215.262103 204.027499 
L 215.334347 200.923311 
L 215.623323 180.927372 
L 215.912298 139.463795 
L 216.12903 81.162174 
L 216.201274 205.709813 
L 216.273518 202.942087 
L 216.562494 185.113508 
L 216.851469 148.144166 
L 217.212689 71.484538 
L 217.284933 204.742049 
L 217.357177 201.780771 
L 217.646152 182.705403 
L 217.935128 143.150719 
L 218.15186 87.533178 
L 218.224104 206.346913 
L 218.296348 203.706608 
L 218.585323 186.698818 
L 218.874299 151.431464 
L 219.163275 78.30108 
L 219.235519 205.423703 
L 219.307763 202.598756 
L 219.596738 184.401576 
L 219.885714 146.667904 
L 220.17469 68.423362 
L 220.246934 204.435931 
L 220.319177 201.41343 
L 220.608153 181.943684 
L 220.897129 141.571219 
L 221.113861 84.803802 
L 221.186104 206.073976 
L 221.258348 203.379083 
L 221.547324 186.019662 
L 221.8363 150.023166 
L 222.125275 75.380833 
L 222.197519 205.131679 
L 222.269763 202.248326 
L 222.558739 183.674925 
L 222.847715 145.161121 
L 223.208934 91.007153 
L 223.931373 91.007153 
L 224.003617 65.298896 
L 224.075861 204.123485 
L 224.148105 201.038494 
L 224.437081 181.166217 
L 224.726057 139.959063 
L 224.942788 82.017997 
L 225.015032 205.795395 
L 225.087276 203.044786 
L 225.376252 185.326464 
L 225.665228 148.585752 
L 225.954203 72.400211 
L 226.026447 204.833616 
L 226.098691 201.890652 
L 226.387667 182.933251 
L 226.676642 143.623185 
L 227.037862 88.349601 
L 227.399082 88.349601 
L 227.471326 206.428555 
L 227.543569 203.804579 
L 227.832545 186.90197 
L 228.121521 151.85272 
L 228.410497 79.174597 
L 228.48274 205.511055 
L 228.554984 202.703578 
L 228.84396 184.618935 
L 229.132936 147.11862 
L 229.494155 69.357965 
L 229.566399 204.529392 
L 229.638643 201.525582 
L 229.927619 182.176243 
L 230.216595 142.053454 
L 230.577814 85.637104 
L 230.722302 85.637104 
L 230.794546 58.854837 
L 230.86679 203.479079 
L 230.939034 200.265207 
L 231.228009 179.562729 
L 231.516985 136.63407 
L 231.733717 76.272409 
L 231.805961 205.220836 
L 231.878205 202.355316 
L 232.16718 183.896778 
L 232.456156 145.621155 
L 232.817376 66.252822 
L 232.88962 204.218878 
L 232.961864 201.152965 
L 233.250839 181.403584 
L 233.539815 140.451268 
L 233.756547 82.868527 
L 233.828791 205.880448 
L 233.901034 203.14685 
L 234.19001 185.538103 
L 234.478986 149.024607 
L 234.767962 73.31022 
L 234.840205 204.924617 
L 234.912449 201.999853 
L 235.201425 183.159691 
L 235.490401 144.09273 
L 235.85162 63.083482 
L 235.923864 203.901943 
L 235.996108 200.772644 
L 236.285084 180.614951 
L 236.57406 138.815958 
L 236.790791 80.042711 
L 236.863035 205.597866 
L 236.935279 202.807752 
L 237.224255 184.83495 
L 237.51323 147.566548 
L 237.802206 70.286789 
L 237.87445 204.622274 
L 237.946694 201.637041 
L 238.23567 182.407364 
L 238.524645 142.532706 
L 238.885865 86.465253 
L 239.752792 86.465253 
L 239.825036 59.848615 
L 239.89728 203.578457 
L 239.969524 200.38446 
L 240.258499 179.810013 
L 240.547475 137.146838 
L 240.764207 77.158472 
L 240.836451 205.309443 
L 240.908695 202.461643 
L 241.19767 184.117259 
L 241.486646 146.078344 
L 241.775622 67.200849 
L 241.847866 204.31368 
L 241.92011 201.266728 
L 242.209085 181.639484 
L 242.498061 140.940429 
L 242.859281 56.54687 
L 242.931525 203.248282 
L 243.003768 199.988251 
L 243.292744 178.988433 
L 243.58172 135.44321 
L 243.798452 74.214602 
L 243.870695 205.015056 
L 243.942939 202.108379 
L 244.231915 183.38473 
L 244.520891 144.559372 
L 244.88211 89.96733 
L 244.954354 89.96733 
L 245.026598 64.051109 
L 245.098842 203.998706 
L 245.171086 200.88876 
L 245.460062 180.855727 
L 245.749037 139.315232 
L 246.182501 53.176861 
L 246.254745 202.911281 
L 246.326989 199.58385 
L 246.615964 178.149867 
L 246.90494 133.704359 
L 247.121672 71.209869 
L 247.193916 204.714582 
L 247.26616 201.747811 
L 247.555135 182.637056 
L 247.844111 143.008995 
L 248.205331 60.836248 
L 248.277575 203.67722 
L 248.349819 200.502976 
L 248.638794 180.055767 
L 248.92777 137.656435 
L 249.144502 78.039055 
L 249.216746 205.397501 
L 249.28899 202.567313 
L 249.577965 184.336376 
L 249.866941 146.532705 
L 250.155917 68.143013 
L 250.22816 204.407897 
L 250.300404 201.379788 
L 250.58938 181.873924 
L 250.878356 141.426565 
L 251.239575 57.554921 
L 251.311819 203.349087 
L 251.384063 200.109217 
L 251.673039 179.239268 
L 251.962015 135.963342 
L 252.395478 46.226382 
L 252.467722 202.216233 
L 252.539966 198.749792 
L 252.828942 176.420365 
L 253.117917 130.118065 
L 253.334649 65.012752 
L 253.406893 204.09487 
L 253.479137 201.004157 
L 253.768113 181.095015 
L 254.057088 139.811419 
L 254.27382 81.762868 
L 254.346064 205.769882 
L 254.418308 203.014171 
L 254.707284 185.26298 
L 254.996259 148.454111 
L 255.285235 72.12724 
L 255.357479 204.806319 
L 255.429723 201.857895 
L 255.718698 182.865327 
L 256.007674 143.482338 
L 256.441138 61.817773 
L 256.513382 203.775373 
L 256.585625 200.620759 
L 256.874601 180.300002 
L 257.163577 138.16288 
L 257.524796 78.914193 
L 258.102748 78.914193 
L 258.174992 205.485015 
L 258.247236 202.67233 
L 258.536211 184.554138 
L 258.825187 146.984257 
L 259.114163 69.079351 
L 259.186407 204.50153 
L 259.258651 201.492149 
L 259.547626 182.106915 
L 259.836602 141.909695 
L 260.053334 85.388689 
L 260.125578 206.132464 
L 260.197821 203.449269 
L 260.486797 186.1652 
L 260.775773 150.324955 
L 261.064749 76.006622 
L 261.136992 205.194258 
L 261.209236 202.323421 
L 261.498212 183.830642 
L 261.787188 145.484014 
L 262.076163 65.968448 
L 262.148407 204.19044 
L 262.220651 201.11884 
L 262.509627 181.332823 
L 262.798603 140.304537 
L 263.087578 55.228283 
L 263.159822 203.116424 
L 263.232066 199.830021 
L 263.521042 178.660326 
L 263.810017 134.762848 
L 264.026749 73.038938 
L 264.098993 204.897489 
L 264.171237 201.967299 
L 264.460213 183.092187 
L 264.749188 143.952754 
L 265.110408 88.919096 
L 266.049579 88.919096 
L 266.121823 62.793227 
L 266.194067 203.872918 
L 266.266311 200.737814 
L 266.555286 180.542726 
L 266.844262 138.666193 
L 267.060994 79.783918 
L 267.133238 205.571987 
L 267.205482 202.776697 
L 267.494457 184.770554 
L 267.783433 147.433016 
L 268.072409 70.009898 
L 268.144653 204.594585 
L 268.216897 201.603814 
L 268.505872 182.338465 
L 268.794848 142.389836 
L 269.01158 86.218374 
L 269.083824 206.215433 
L 269.156068 203.548831 
L 269.445043 186.371652 
L 269.734019 150.753054 
L 270.022995 76.894328 
L 270.095239 205.283028 
L 270.167482 202.429946 
L 270.456458 184.051532 
L 270.745434 145.942051 
L 271.178897 66.918233 
L 271.251141 204.285419 
L 271.323385 201.232815 
L 271.612361 181.56916 
L 271.901337 140.794605 
L 272.262556 56.244489 
L 272.3348 203.218044 
L 272.407044 199.951965 
L 272.69602 178.913191 
L 272.984995 135.287188 
L 273.201727 73.944997 
L 273.273971 204.988095 
L 273.346215 202.076026 
L 273.635191 183.317644 
L 273.924166 144.420261 
L 274.213142 63.76265 
L 274.285386 203.96986 
L 274.35763 200.854144 
L 274.646606 180.78395 
L 274.935581 139.166394 
L 275.152313 80.648264 
L 275.224557 205.658422 
L 275.296801 202.880418 
L 275.585777 184.985631 
L 275.874752 147.879 
L 276.308216 70.93469 
L 276.38046 204.687064 
L 276.452704 201.714789 
L 276.741679 182.568583 
L 277.030655 142.867009 
L 277.247387 87.042927 
L 277.319631 206.297888 
L 277.391875 203.647778 
L 277.68085 186.576828 
L 277.969826 151.178506 
L 278.258802 77.776545 
L 278.331045 205.37125 
L 278.403289 202.535812 
L 278.692265 184.271055 
L 278.981241 146.397256 
L 279.270216 67.862145 
L 279.34246 204.37981 
L 279.414704 201.346084 
L 279.70368 181.804035 
L 279.992656 141.281643 
L 280.209387 84.303416 
L 280.281631 206.023937 
L 280.353875 203.319036 
L 280.642851 185.89515 
L 280.931827 149.764978 
L 281.220802 74.845454 
L 281.293046 205.078141 
L 281.36529 202.184081 
L 281.654266 183.541706 
L 281.943241 144.884877 
L 282.159973 90.529804 
L 282.232217 206.646576 
L 282.304461 204.066203 
L 282.593437 187.444474 
L 282.882412 152.977657 
L 283.171388 81.507265 
L 283.243632 205.744322 
L 283.315876 202.983498 
L 283.604852 185.199378 
L 283.893827 148.322226 
L 284.182803 71.853763 
L 284.255047 204.778972 
L 284.327291 201.825078 
L 284.616267 182.797277 
L 284.905242 143.34123 
L 285.194218 61.525171 
L 285.266462 203.746112 
L 285.338706 200.585647 
L 285.627681 180.227193 
L 285.916657 138.011904 
L 286.277877 50.474279 
L 286.350121 202.641023 
L 286.422365 199.25954 
L 286.71134 177.477378 
L 287.000316 132.309886 
L 287.217048 68.80022 
L 287.289292 204.473617 
L 287.361536 201.458653 
L 287.650511 182.037458 
L 287.939487 141.765669 
L 288.156219 85.139812 
L 288.228463 206.107577 
L 288.300706 203.419404 
L 288.589682 186.103272 
L 288.878658 150.19654 
L 289.167634 75.740341 
L 289.239877 205.167629 
L 289.312121 202.291467 
L 289.601097 183.764383 
L 289.890073 145.346619 
L 290.323536 65.683545 
L 290.39578 204.16195 
L 290.468024 201.084652 
L 290.757 181.26193 
L 291.045975 140.157534 
L 291.262707 82.360954 
L 291.334951 205.829691 
L 291.407195 203.085941 
L 291.696171 185.411803 
L 291.985146 148.76271 
L 292.274122 72.767152 
L 292.346366 204.87031 
L 292.41861 201.934685 
L 292.707586 183.024558 
L 292.996561 143.812519 
L 293.213293 88.676769 
L 293.285537 206.461272 
L 293.357781 203.843839 
L 293.646757 186.98338 
L 293.935732 152.021532 
L 294.224708 79.524644 
L 294.296952 205.54606 
L 294.369196 202.745584 
L 294.658171 184.706038 
L 294.947147 147.299237 
L 295.236123 69.732493 
L 295.308367 204.566845 
L 295.380611 201.570526 
L 295.669586 182.269438 
L 295.958562 142.246701 
L 296.247538 59.255556 
L 296.319782 203.519151 
L 296.392026 200.313293 
L 296.681001 179.66244 
L 296.969977 136.840832 
L 297.331197 48.045945 
L 297.40344 202.39819 
L 297.475684 198.96814 
L 297.76466 176.873131 
L 298.053636 131.056919 
L 298.270367 66.635093 
L 298.342611 204.257105 
L 298.414855 201.198838 
L 298.703831 181.498705 
L 298.992807 140.648511 
L 299.354026 83.209364 
L 299.498514 83.209364 
L 299.570758 205.914532 
L 299.643002 203.18775 
L 299.931978 185.622914 
L 300.220953 149.200471 
L 300.509929 73.674892 
L 300.582173 204.961085 
L 300.654417 202.043614 
L 300.943393 183.250433 
L 301.232368 144.280893 
L 301.4491 89.486119 
L 301.521344 206.542207 
L 301.593588 203.940961 
L 301.882564 187.184772 
L 302.171539 152.439139 
L 302.460515 80.390594 
L 302.532759 205.632655 
L 302.605003 202.849498 
L 302.893978 184.921514 
L 303.182954 147.746048 
L 303.47193 70.659 
L 303.544174 204.659495 
L 303.616418 201.681707 
L 303.905393 182.499982 
L 304.194369 142.724759 
L 304.411101 86.79712 
L 304.483345 206.273307 
L 304.555589 203.618281 
L 304.844564 186.515663 
L 305.13354 151.051674 
L 305.422516 77.513547 
L 305.49476 205.34495 
L 305.567003 202.504252 
L 305.855979 184.205613 
L 306.144955 146.261555 
L 306.506174 67.580756 
L 306.578418 204.351671 
L 306.650662 201.312317 
L 306.939638 181.734017 
L 307.228614 141.136452 
L 307.589833 56.953344 
L 307.662077 203.28893 
L 307.734321 200.037028 
L 308.023297 179.089576 
L 308.312272 135.652941 
L 308.673492 45.582735 
L 308.745736 202.151869 
L 308.81798 198.672555 
L 309.106956 176.260205 
L 309.395931 129.785957 
L 309.612663 64.438869 
L 309.684907 204.037482 
L 309.757151 200.935291 
L 310.046127 180.952215 
L 310.335102 139.515308 
L 310.696322 81.251189 
L 310.84081 81.251189 
L 310.913054 205.718714 
L 310.985297 202.952769 
L 311.274273 185.135658 
L 311.563249 148.190096 
L 311.852225 71.579778 
L 311.924468 204.751573 
L 311.996712 201.7922 
L 312.285688 182.729101 
L 312.574664 143.19986 
L 312.791395 87.618095 
L 312.863639 206.355405 
L 312.935883 203.716798 
L 313.224859 186.719948 
L 313.513835 151.475279 
L 313.80281 78.391935 
L 313.875054 205.432789 
L 313.947298 202.609659 
L 314.236274 184.424184 
L 314.52525 146.714783 
L 314.814225 68.52057 
L 314.886469 204.445652 
L 314.958713 201.425095 
L 315.247689 181.967873 
L 315.536664 141.621376 
L 315.753396 84.890474 
L 315.82564 206.082643 
L 315.897884 203.389483 
L 316.18686 186.041229 
L 316.475835 150.067887 
L 316.764811 75.473566 
L 316.837055 205.140952 
L 316.909299 202.259454 
L 317.198275 183.698 
L 317.48725 145.208969 
L 317.84847 65.398115 
L 317.920714 204.133407 
L 317.992958 201.0504 
L 318.281933 181.190906 
L 318.570909 140.010258 
L 318.932129 54.618066 
L 319.004373 203.055402 
L 319.076617 199.756794 
L 319.365592 178.508485 
L 319.654568 134.447989 
L 320.015788 43.084146 
L 320.088031 201.90201 
L 320.160275 198.372724 
L 320.449251 175.638476 
L 320.738227 128.49674 
L 320.954958 62.211103 
L 321.027202 203.814706 
L 321.099446 200.667959 
L 321.388422 180.397875 
L 321.677398 138.36583 
L 322.038617 79.26489 
L 322.183105 79.26489 
L 322.255349 205.520084 
L 322.327593 202.714413 
L 322.616569 184.641403 
L 322.905544 147.165209 
L 323.19452 69.454573 
L 323.266764 204.539053 
L 323.339008 201.537175 
L 323.627984 182.200282 
L 323.916959 142.103301 
L 324.133691 85.72324 
L 324.205935 206.165919 
L 324.278179 203.489415 
L 324.567154 186.248447 
L 324.85613 150.497576 
L 325.145106 76.364569 
L 325.21735 205.230052 
L 325.289594 202.366375 
L 325.578569 183.919711 
L 325.867545 145.668707 
L 326.228765 66.351427 
L 326.301009 204.228738 
L 326.373253 201.164798 
L 326.662228 181.42812 
L 326.951204 140.502146 
L 327.167936 82.956445 
L 327.24018 205.88924 
L 327.312423 203.1574 
L 327.601399 185.55998 
L 327.890375 149.06997 
L 328.179351 73.404286 
L 328.251594 204.934024 
L 328.323838 202.011141 
L 328.612814 183.183097 
L 328.90179 144.141266 
L 329.263009 63.184125 
L 329.335253 203.912008 
L 329.407497 200.784722 
L 329.696473 180.639994 
L 329.985449 138.867888 
L 330.274424 52.249247 
L 330.346668 202.81852 
L 330.418912 199.472536 
L 330.707888 177.919047 
L 330.996863 133.225731 
L 331.358083 40.549671 
L 331.430327 201.648562 
L 331.502571 198.068587 
L 331.791547 175.007818 
L 332.080522 127.189007 
L 332.297254 59.95134 
L 332.369498 203.588729 
L 332.441742 200.396787 
L 332.730717 179.835574 
L 333.019693 137.199841 
L 333.308669 48.790387 
L 333.380913 202.472634 
L 333.453157 199.057473 
L 333.742132 177.058372 
L 334.031108 131.441035 
L 334.24784 67.298844 
L 334.320084 204.32348 
L 334.392328 201.278488 
L 334.681303 181.663868 
L 334.970279 140.990992 
L 335.187011 83.801171 
L 335.259255 205.973712 
L 335.331499 203.258767 
L 335.620474 185.770175 
L 335.90945 149.505831 
L 336.198426 74.308086 
L 336.27067 205.024404 
L 336.342914 202.119597 
L 336.631889 183.407992 
L 336.920865 144.607607 
L 337.282084 64.15113 
L 337.354328 204.008708 
L 337.426572 200.900762 
L 337.715548 180.880616 
L 338.004524 139.366841 
L 338.221255 80.994637 
L 338.293499 205.693059 
L 338.365743 202.921983 
L 338.654719 185.07182 
L 338.943695 148.057721 
L 339.23267 71.305285 
L 339.304914 204.724124 
L 339.377158 201.759261 
L 339.666134 182.660799 
L 339.95511 143.058228 
L 340.244085 60.938337 
L 340.316329 203.687429 
L 340.388573 200.515227 
L 340.677549 180.08117 
L 340.966524 137.70911 
L 341.2555 49.846407 
L 341.327744 202.578236 
L 341.399988 199.184195 
L 341.688964 177.321143 
L 341.977939 131.985918 
L 342.266915 37.978795 
L 342.339159 201.391475 
L 342.411403 197.760082 
L 342.700378 174.368102 
L 342.989354 125.862491 
L 343.350574 57.659121 
L 343.495062 57.659121 
L 343.567306 203.359507 
L 343.639549 200.121721 
L 343.928525 179.265196 
L 344.217501 136.017107 
L 344.57872 46.337868 
L 344.650964 202.227382 
L 344.723208 198.763171 
L 345.012184 176.448106 
L 345.30116 130.175589 
L 345.517891 65.112154 
L 345.590135 204.104811 
L 345.662379 201.016085 
L 345.951355 181.11975 
L 346.240331 139.862708 
L 346.457062 81.851496 
L 346.529306 205.778745 
L 346.60155 203.024806 
L 346.890526 185.285034 
L 347.179502 148.499841 
L 347.468477 72.222066 
L 347.540721 204.815802 
L 347.612965 201.869274 
L 347.901941 182.888923 
L 348.190916 143.531267 
L 348.552136 61.91923 
L 348.62438 203.785518 
L 348.696624 200.632934 
L 348.9856 180.325248 
L 349.274575 138.21523 
L 349.491307 79.004653 
L 349.563551 205.494061 
L 349.635795 202.683185 
L 349.924771 184.576648 
L 350.213746 147.030933 
L 350.502722 69.176138 
L 350.574966 204.511209 
L 350.64721 201.503763 
L 350.936185 182.130999 
L 351.225161 141.959634 
L 351.514137 58.660294 
L 351.586381 203.459625 
L 351.658625 200.241862 
L 351.9476 179.51432 
L 352.236576 136.53369 
L 352.525552 47.409055 
L 352.597796 202.334501 
L 352.67004 198.891713 
L 352.959015 176.714652 
L 353.247991 130.728298 
L 353.536967 35.370995 
L 353.60921 201.130695 
L 353.681454 197.447146 
L 353.97043 173.719197 
L 354.259406 124.516923 
L 354.476138 55.33398 
L 354.548381 203.126993 
L 354.620625 199.842704 
L 354.909601 178.686627 
L 355.198577 134.817385 
L 355.559796 43.850125 
L 355.63204 201.978608 
L 355.704284 198.464642 
L 355.99326 175.829076 
L 356.282236 128.891968 
L 356.498967 62.894058 
L 356.571211 203.883001 
L 356.643455 200.749913 
L 356.932431 180.567816 
L 357.149163 152.189922 
L 357.149163 152.189922 
" clip-path="url(#p0a7838aad8)" style="fill: none; stroke: #1f77b4; stroke-width: 1.5; stroke-linecap: square"/>
   </g>
   <g id="patch_3">
    <path d="M 37.567344 228.96 
L 37.567344 7.2 
" style="fill: none; stroke: #000000; stroke-width: 0.8; stroke-linejoin: miter; stroke-linecap: square"/>
   </g>
   <g id="patch_4">
    <path d="M 372.367344 228.96 
L 372.367344 7.2 
" style="fill: none; stroke: #000000; stroke-width: 0.8; stroke-linejoin: miter; stroke-linecap: square"/>
   </g>
   <g id="patch_5">
    <path d="M 37.567344 228.96 
L 372.367344 228.96 
" style="fill: none; stroke: #000000; stroke-width: 0.8; stroke-linejoin: miter; stroke-linecap: square"/>
   </g>
   <g id="patch_6">
    <path d="M 37.567344 7.2 
L 372.367344 7.2 
" style="fill: none; stroke: #000000; stroke-width: 0.8; stroke-linejoin: miter; stroke-linecap: square"/>
   </g>
   <g id="legend_1">
    <g id="patch_7">
     <path d="M 314.548024 29.420307 
L 365.367344 29.420307 
Q 367.367344 29.420307 367.367344 27.420307 
L 367.367344 14.2 
Q 367.367344 12.2 365.367344 12.2 
L 314.548024 12.2 
Q 312.548024 12.2 312.548024 14.2 
L 312.548024 27.420307 
Q 312.548024 29.420307 314.548024 29.420307 
z
" style="fill: #ffffff; opacity: 0.8; stroke: #cccccc; stroke-linejoin: miter"/>
    </g>
    <g id="line2d_14">
     <path d="M 316.548024 19.79832 
L 326.548024 19.79832 
L 336.548024 19.79832 
" style="fill: none; stroke: #1f77b4; stroke-width: 1.5; stroke-linecap: square"/>
    </g>
    <g id="text_15">
     <!-- CFL -->
     <g transform="translate(344.548024 23.29832) scale(0.1 -0.1)">
      <use xlink:href="#NimbusSanL-Regu-43" transform="scale(0.996264)"/>
      <use xlink:href="#NimbusSanL-Regu-46" transform="translate(71.929985 0) scale(0.996264)"/>
      <use xlink:href="#NimbusSanL-Regu-4c" transform="translate(132.801616 0) scale(0.996264)"/>
     </g>
    </g>
   </g>
  </g>
 </g>
 <defs>
  <clipPath id="p0a7838aad8">
   <rect x="37.567344" y="7.2" width="334.8" height="221.76"/>
  </clipPath>
 </defs>
</svg>
