<?xml version="1.0" encoding="utf-8" standalone="no"?>
<!DOCTYPE svg PUBLIC "-//W3C//DTD SVG 1.1//EN"
  "http://www.w3.org/Graphics/SVG/1.1/DTD/svg11.dtd">
<svg xmlns:xlink="http://www.w3.org/1999/xlink" width="380.071261pt" height="265.600613pt" viewBox="0 0 380.071261 265.600613" xmlns="http://www.w3.org/2000/svg" version="1.1">
 <metadata>
  <rdf:RDF xmlns:dc="http://purl.org/dc/elements/1.1/" xmlns:cc="http://creativecommons.org/ns#" xmlns:rdf="http://www.w3.org/1999/02/22-rdf-syntax-ns#">
   <cc:Work>
    <dc:type rdf:resource="http://purl.org/dc/dcmitype/StillImage"/>
    <dc:date>2025-07-17T21:18:55.706037</dc:date>
    <dc:format>image/svg+xml</dc:format>
    <dc:creator>
     <cc:Agent>
      <dc:title>Matplotlib v3.10.3, https://matplotlib.org/</dc:title>
     </cc:Agent>
    </dc:creator>
   </cc:Work>
  </rdf:RDF>
 </metadata>
 <defs>
  <style type="text/css">*{stroke-linejoin: round; stroke-linecap: butt}</style>
 </defs>
 <g id="figure_1">
  <g id="patch_1">
   <path d="M 0 265.600613 
L 380.071261 265.600613 
L 380.071261 0 
L 0 0 
z
" style="fill: #ffffff"/>
  </g>
  <g id="axes_1">
   <g id="patch_2">
    <path d="M 37.567344 228.96 
L 372.367344 228.96 
L 372.367344 7.2 
L 37.567344 7.2 
z
" style="fill: #ffffff"/>
   </g>
   <g id="matplotlib.axis_1">
    <g id="xtick_1">
     <g id="line2d_1">
      <defs>
       <path id="mc704e7f8c6" d="M 0 0 
L 0 3.5 
" style="stroke: #000000; stroke-width: 0.8"/>
      </defs>
      <g>
       <use xlink:href="#mc704e7f8c6" x="52.785526" y="228.96" style="stroke: #000000; stroke-width: 0.8"/>
      </g>
     </g>
     <g id="text_1">
      <!-- $\mathdefault{0}$ -->
      <g transform="translate(50.294859 243.05832) scale(0.1 -0.1)">
       <defs>
        <path id="CMR17-30" d="M 2688 2038 
C 2688 2430 2682 3099 2413 3613 
C 2176 4063 1798 4224 1466 4224 
C 1158 4224 768 4082 525 3620 
C 269 3137 243 2539 243 2038 
C 243 1671 250 1112 448 623 
C 723 -39 1216 -128 1466 -128 
C 1760 -128 2208 -7 2470 604 
C 2662 1048 2688 1568 2688 2038 
z
M 1466 -26 
C 1056 -26 813 328 723 816 
C 653 1196 653 1749 653 2109 
C 653 2604 653 3015 736 3407 
C 858 3954 1216 4121 1466 4121 
C 1728 4121 2067 3947 2189 3420 
C 2272 3054 2278 2623 2278 2109 
C 2278 1691 2278 1176 2202 797 
C 2067 96 1690 -26 1466 -26 
z
" transform="scale(0.015625)"/>
       </defs>
       <use xlink:href="#CMR17-30" transform="scale(0.996264)"/>
      </g>
     </g>
    </g>
    <g id="xtick_2">
     <g id="line2d_2">
      <g>
       <use xlink:href="#mc704e7f8c6" x="97.088821" y="228.96" style="stroke: #000000; stroke-width: 0.8"/>
      </g>
     </g>
     <g id="text_2">
      <!-- $\mathdefault{500}$ -->
      <g transform="translate(89.616818 243.05832) scale(0.1 -0.1)">
       <defs>
        <path id="CMR17-35" d="M 730 3750 
C 794 3724 1056 3641 1325 3641 
C 1920 3641 2246 3961 2432 4140 
C 2432 4191 2432 4224 2394 4224 
C 2387 4224 2374 4224 2323 4198 
C 2099 4102 1837 4032 1517 4032 
C 1325 4032 1037 4055 723 4191 
C 653 4224 640 4224 634 4224 
C 602 4224 595 4217 595 4090 
L 595 2231 
C 595 2113 595 2080 659 2080 
C 691 2080 704 2093 736 2139 
C 941 2435 1222 2560 1542 2560 
C 1766 2560 2246 2415 2246 1293 
C 2246 1087 2246 716 2054 422 
C 1894 159 1645 25 1370 25 
C 947 25 518 319 403 812 
C 429 806 480 793 506 793 
C 589 793 749 838 749 1036 
C 749 1209 627 1280 506 1280 
C 358 1280 262 1190 262 1011 
C 262 454 704 -128 1382 -128 
C 2042 -128 2669 441 2669 1267 
C 2669 2054 2170 2662 1549 2662 
C 1222 2662 947 2540 730 2304 
L 730 3750 
z
" transform="scale(0.015625)"/>
       </defs>
       <use xlink:href="#CMR17-35" transform="scale(0.996264)"/>
       <use xlink:href="#CMR17-30" transform="translate(45.690477 0) scale(0.996264)"/>
       <use xlink:href="#CMR17-30" transform="translate(91.380954 0) scale(0.996264)"/>
      </g>
     </g>
    </g>
    <g id="xtick_3">
     <g id="line2d_3">
      <g>
       <use xlink:href="#mc704e7f8c6" x="141.392116" y="228.96" style="stroke: #000000; stroke-width: 0.8"/>
      </g>
     </g>
     <g id="text_3">
      <!-- $\mathdefault{1000}$ -->
      <g transform="translate(131.429446 243.05832) scale(0.1 -0.1)">
       <defs>
        <path id="CMR17-31" d="M 1702 4083 
C 1702 4217 1696 4224 1606 4224 
C 1357 3927 979 3833 621 3820 
C 602 3820 570 3820 563 3808 
C 557 3795 557 3782 557 3648 
C 755 3648 1088 3686 1344 3839 
L 1344 467 
C 1344 243 1331 166 781 166 
L 589 166 
L 589 0 
C 896 6 1216 12 1523 12 
C 1830 12 2150 6 2458 0 
L 2458 166 
L 2266 166 
C 1715 166 1702 236 1702 467 
L 1702 4083 
z
" transform="scale(0.015625)"/>
       </defs>
       <use xlink:href="#CMR17-31" transform="scale(0.996264)"/>
       <use xlink:href="#CMR17-30" transform="translate(45.690477 0) scale(0.996264)"/>
       <use xlink:href="#CMR17-30" transform="translate(91.380954 0) scale(0.996264)"/>
       <use xlink:href="#CMR17-30" transform="translate(137.071431 0) scale(0.996264)"/>
      </g>
     </g>
    </g>
    <g id="xtick_4">
     <g id="line2d_4">
      <g>
       <use xlink:href="#mc704e7f8c6" x="185.695411" y="228.96" style="stroke: #000000; stroke-width: 0.8"/>
      </g>
     </g>
     <g id="text_4">
      <!-- $\mathdefault{1500}$ -->
      <g transform="translate(175.732741 243.05832) scale(0.1 -0.1)">
       <use xlink:href="#CMR17-31" transform="scale(0.996264)"/>
       <use xlink:href="#CMR17-35" transform="translate(45.690477 0) scale(0.996264)"/>
       <use xlink:href="#CMR17-30" transform="translate(91.380954 0) scale(0.996264)"/>
       <use xlink:href="#CMR17-30" transform="translate(137.071431 0) scale(0.996264)"/>
      </g>
     </g>
    </g>
    <g id="xtick_5">
     <g id="line2d_5">
      <g>
       <use xlink:href="#mc704e7f8c6" x="229.998706" y="228.96" style="stroke: #000000; stroke-width: 0.8"/>
      </g>
     </g>
     <g id="text_5">
      <!-- $\mathdefault{2000}$ -->
      <g transform="translate(220.036036 243.05832) scale(0.1 -0.1)">
       <defs>
        <path id="CMR17-32" d="M 2669 990 
L 2554 990 
C 2490 537 2438 460 2413 422 
C 2381 371 1920 371 1830 371 
L 602 371 
C 832 620 1280 1073 1824 1596 
C 2214 1966 2669 2400 2669 3033 
C 2669 3788 2067 4224 1395 4224 
C 691 4224 262 3603 262 3027 
C 262 2777 448 2745 525 2745 
C 589 2745 781 2783 781 3007 
C 781 3206 614 3264 525 3264 
C 486 3264 448 3257 422 3244 
C 544 3788 915 4057 1306 4057 
C 1862 4057 2227 3616 2227 3033 
C 2227 2477 1901 1998 1536 1583 
L 262 147 
L 262 0 
L 2515 0 
L 2669 990 
z
" transform="scale(0.015625)"/>
       </defs>
       <use xlink:href="#CMR17-32" transform="scale(0.996264)"/>
       <use xlink:href="#CMR17-30" transform="translate(45.690477 0) scale(0.996264)"/>
       <use xlink:href="#CMR17-30" transform="translate(91.380954 0) scale(0.996264)"/>
       <use xlink:href="#CMR17-30" transform="translate(137.071431 0) scale(0.996264)"/>
      </g>
     </g>
    </g>
    <g id="xtick_6">
     <g id="line2d_6">
      <g>
       <use xlink:href="#mc704e7f8c6" x="274.302001" y="228.96" style="stroke: #000000; stroke-width: 0.8"/>
      </g>
     </g>
     <g id="text_6">
      <!-- $\mathdefault{2500}$ -->
      <g transform="translate(264.33933 243.05832) scale(0.1 -0.1)">
       <use xlink:href="#CMR17-32" transform="scale(0.996264)"/>
       <use xlink:href="#CMR17-35" transform="translate(45.690477 0) scale(0.996264)"/>
       <use xlink:href="#CMR17-30" transform="translate(91.380954 0) scale(0.996264)"/>
       <use xlink:href="#CMR17-30" transform="translate(137.071431 0) scale(0.996264)"/>
      </g>
     </g>
    </g>
    <g id="xtick_7">
     <g id="line2d_7">
      <g>
       <use xlink:href="#mc704e7f8c6" x="318.605296" y="228.96" style="stroke: #000000; stroke-width: 0.8"/>
      </g>
     </g>
     <g id="text_7">
      <!-- $\mathdefault{3000}$ -->
      <g transform="translate(308.642625 243.05832) scale(0.1 -0.1)">
       <defs>
        <path id="CMR17-33" d="M 1414 2176 
C 1984 2176 2234 1673 2234 1094 
C 2234 322 1824 25 1453 25 
C 1114 25 563 193 390 691 
C 422 678 454 678 486 678 
C 640 678 755 780 755 947 
C 755 1132 614 1216 486 1216 
C 378 1216 211 1164 211 927 
C 211 335 787 -128 1466 -128 
C 2176 -128 2720 432 2720 1087 
C 2720 1718 2208 2176 1600 2246 
C 2086 2347 2554 2776 2554 3353 
C 2554 3856 2048 4224 1472 4224 
C 890 4224 378 3862 378 3347 
C 378 3123 544 3084 627 3084 
C 762 3084 877 3167 877 3334 
C 877 3500 762 3584 627 3584 
C 602 3584 570 3584 544 3571 
C 730 3999 1235 4076 1459 4076 
C 1683 4076 2106 3966 2106 3347 
C 2106 3167 2080 2851 1862 2574 
C 1670 2329 1453 2316 1242 2297 
C 1210 2297 1062 2284 1037 2284 
C 992 2278 966 2272 966 2227 
C 966 2182 973 2176 1101 2176 
L 1414 2176 
z
" transform="scale(0.015625)"/>
       </defs>
       <use xlink:href="#CMR17-33" transform="scale(0.996264)"/>
       <use xlink:href="#CMR17-30" transform="translate(45.690477 0) scale(0.996264)"/>
       <use xlink:href="#CMR17-30" transform="translate(91.380954 0) scale(0.996264)"/>
       <use xlink:href="#CMR17-30" transform="translate(137.071431 0) scale(0.996264)"/>
      </g>
     </g>
    </g>
    <g id="xtick_8">
     <g id="line2d_8">
      <g>
       <use xlink:href="#mc704e7f8c6" x="362.908591" y="228.96" style="stroke: #000000; stroke-width: 0.8"/>
      </g>
     </g>
     <g id="text_8">
      <!-- $\mathdefault{3500}$ -->
      <g transform="translate(352.94592 243.05832) scale(0.1 -0.1)">
       <use xlink:href="#CMR17-33" transform="scale(0.996264)"/>
       <use xlink:href="#CMR17-35" transform="translate(45.690477 0) scale(0.996264)"/>
       <use xlink:href="#CMR17-30" transform="translate(91.380954 0) scale(0.996264)"/>
       <use xlink:href="#CMR17-30" transform="translate(137.071431 0) scale(0.996264)"/>
      </g>
     </g>
    </g>
    <g id="text_9">
     <!-- Iteration -->
     <g transform="translate(187.019968 256.278627) scale(0.1 -0.1)">
      <defs>
       <path id="NimbusSanL-Regu-49" d="M 1242 4672 
L 640 4672 
L 640 0 
L 1242 0 
L 1242 4672 
z
" transform="scale(0.015625)"/>
       <path id="NimbusSanL-Regu-74" d="M 1626 3328 
L 1075 3328 
L 1075 4249 
L 544 4249 
L 544 3328 
L 90 3328 
L 90 2892 
L 544 2892 
L 544 402 
C 544 64 774 -128 1190 -128 
C 1318 -128 1446 -116 1626 -84 
L 1626 364 
C 1555 345 1472 339 1370 339 
C 1139 339 1075 402 1075 634 
L 1075 2892 
L 1626 2892 
L 1626 3328 
z
" transform="scale(0.015625)"/>
       <path id="NimbusSanL-Regu-65" d="M 3283 1484 
C 3283 1998 3245 2311 3149 2565 
C 2931 3123 2419 3456 1792 3456 
C 858 3456 256 2734 256 1619 
C 256 545 838 -128 1779 -128 
C 2547 -128 3078 307 3213 1018 
L 2675 1018 
C 2528 588 2227 364 1798 364 
C 1459 364 1171 514 992 787 
C 864 974 819 1161 813 1484 
L 3283 1484 
z
M 826 1920 
C 870 2552 1248 2963 1786 2963 
C 2310 2963 2714 2519 2714 1959 
C 2714 1946 2714 1933 2707 1920 
L 826 1920 
z
" transform="scale(0.015625)"/>
       <path id="NimbusSanL-Regu-72" d="M 442 3328 
L 442 0 
L 979 0 
L 979 1727 
C 979 2203 1101 2514 1357 2698 
C 1523 2819 1683 2857 2054 2863 
L 2054 3404 
C 1965 3449 1920 3456 1850 3456 
C 1504 3456 1242 3251 934 2750 
L 934 3328 
L 442 3328 
z
" transform="scale(0.015625)"/>
       <path id="NimbusSanL-Regu-61" d="M 3424 332 
C 3366 320 3341 320 3309 320 
C 3123 320 3021 415 3021 581 
L 3021 2542 
C 3021 3135 2586 3456 1760 3456 
C 1274 3456 870 3315 646 3065 
C 493 2893 429 2702 416 2370 
L 954 2370 
C 998 2778 1242 2963 1741 2963 
C 2221 2963 2490 2784 2490 2466 
L 2490 2326 
C 2490 2103 2355 2007 1933 1956 
C 1178 1861 1062 1835 858 1753 
C 467 1593 269 1294 269 861 
C 269 256 691 -128 1370 -128 
C 1792 -128 2131 19 2509 364 
C 2547 25 2714 -128 3059 -128 
C 3168 -128 3251 -116 3424 -71 
L 3424 332 
z
M 2490 1071 
C 2490 893 2438 785 2278 638 
C 2061 441 1798 339 1485 339 
C 1069 339 826 536 826 874 
C 826 1224 1062 1402 1632 1485 
C 2195 1562 2310 1587 2490 1670 
L 2490 1071 
z
" transform="scale(0.015625)"/>
       <path id="NimbusSanL-Regu-69" d="M 960 3358 
L 429 3358 
L 429 0 
L 960 0 
L 960 3358 
z
M 960 4672 
L 422 4672 
L 422 3999 
L 960 3999 
L 960 4672 
z
" transform="scale(0.015625)"/>
       <path id="NimbusSanL-Regu-6f" d="M 1741 3456 
C 800 3456 230 2784 230 1663 
C 230 543 794 -128 1747 -128 
C 2688 -128 3264 543 3264 1638 
C 3264 2791 2707 3456 1741 3456 
z
M 1747 2963 
C 2349 2963 2707 2472 2707 1644 
C 2707 861 2336 364 1747 364 
C 1152 364 787 855 787 1663 
C 787 2466 1152 2963 1747 2963 
z
" transform="scale(0.015625)"/>
       <path id="NimbusSanL-Regu-6e" d="M 448 3328 
L 448 0 
L 986 0 
L 986 1835 
C 986 2539 1344 2988 1894 2988 
C 2317 2988 2586 2732 2586 2328 
L 2586 0 
L 3117 0 
L 3117 2539 
C 3117 3097 2701 3456 2054 3456 
C 1555 3456 1235 3263 941 2796 
L 941 3328 
L 448 3328 
z
" transform="scale(0.015625)"/>
      </defs>
      <use xlink:href="#NimbusSanL-Regu-49" transform="scale(0.996264)"/>
      <use xlink:href="#NimbusSanL-Regu-74" transform="translate(27.69517 0) scale(0.996264)"/>
      <use xlink:href="#NimbusSanL-Regu-65" transform="translate(55.390339 0) scale(0.996264)"/>
      <use xlink:href="#NimbusSanL-Regu-72" transform="translate(110.782016 0) scale(0.996264)"/>
      <use xlink:href="#NimbusSanL-Regu-61" transform="translate(142.961149 0) scale(0.996264)"/>
      <use xlink:href="#NimbusSanL-Regu-74" transform="translate(198.352826 0) scale(0.996264)"/>
      <use xlink:href="#NimbusSanL-Regu-69" transform="translate(226.047996 0) scale(0.996264)"/>
      <use xlink:href="#NimbusSanL-Regu-6f" transform="translate(248.16478 0) scale(0.996264)"/>
      <use xlink:href="#NimbusSanL-Regu-6e" transform="translate(303.556457 0) scale(0.996264)"/>
     </g>
    </g>
   </g>
   <g id="matplotlib.axis_2">
    <g id="ytick_1">
     <g id="line2d_9">
      <defs>
       <path id="mb2397f7f42" d="M 0 0 
L -3.5 0 
" style="stroke: #000000; stroke-width: 0.8"/>
      </defs>
      <g>
       <use xlink:href="#mb2397f7f42" x="37.567344" y="219.310744" style="stroke: #000000; stroke-width: 0.8"/>
      </g>
     </g>
     <g id="text_10">
      <!-- $\mathdefault{0}$ -->
      <g transform="translate(25.586009 222.859904) scale(0.1 -0.1)">
       <use xlink:href="#CMR17-30" transform="scale(0.996264)"/>
      </g>
     </g>
    </g>
    <g id="ytick_2">
     <g id="line2d_10">
      <g>
       <use xlink:href="#mb2397f7f42" x="37.567344" y="176.236389" style="stroke: #000000; stroke-width: 0.8"/>
      </g>
     </g>
     <g id="text_11">
      <!-- $\mathdefault{10}$ -->
      <g transform="translate(20.604674 179.785549) scale(0.1 -0.1)">
       <use xlink:href="#CMR17-31" transform="scale(0.996264)"/>
       <use xlink:href="#CMR17-30" transform="translate(45.690477 0) scale(0.996264)"/>
      </g>
     </g>
    </g>
    <g id="ytick_3">
     <g id="line2d_11">
      <g>
       <use xlink:href="#mb2397f7f42" x="37.567344" y="133.162035" style="stroke: #000000; stroke-width: 0.8"/>
      </g>
     </g>
     <g id="text_12">
      <!-- $\mathdefault{20}$ -->
      <g transform="translate(20.604674 136.711195) scale(0.1 -0.1)">
       <use xlink:href="#CMR17-32" transform="scale(0.996264)"/>
       <use xlink:href="#CMR17-30" transform="translate(45.690477 0) scale(0.996264)"/>
      </g>
     </g>
    </g>
    <g id="ytick_4">
     <g id="line2d_12">
      <g>
       <use xlink:href="#mb2397f7f42" x="37.567344" y="90.087681" style="stroke: #000000; stroke-width: 0.8"/>
      </g>
     </g>
     <g id="text_13">
      <!-- $\mathdefault{30}$ -->
      <g transform="translate(20.604674 93.636841) scale(0.1 -0.1)">
       <use xlink:href="#CMR17-33" transform="scale(0.996264)"/>
       <use xlink:href="#CMR17-30" transform="translate(45.690477 0) scale(0.996264)"/>
      </g>
     </g>
    </g>
    <g id="ytick_5">
     <g id="line2d_13">
      <g>
       <use xlink:href="#mb2397f7f42" x="37.567344" y="47.013326" style="stroke: #000000; stroke-width: 0.8"/>
      </g>
     </g>
     <g id="text_14">
      <!-- $\mathdefault{40}$ -->
      <g transform="translate(20.604674 50.562487) scale(0.1 -0.1)">
       <defs>
        <path id="CMR17-34" d="M 2150 4147 
C 2150 4281 2144 4288 2029 4288 
L 128 1254 
L 128 1088 
L 1779 1088 
L 1779 460 
C 1779 230 1766 166 1318 166 
L 1197 166 
L 1197 0 
C 1402 12 1747 12 1965 12 
C 2182 12 2528 12 2733 0 
L 2733 166 
L 2611 166 
C 2163 166 2150 230 2150 460 
L 2150 1088 
L 2803 1088 
L 2803 1254 
L 2150 1254 
L 2150 4147 
z
M 1798 3723 
L 1798 1254 
L 256 1254 
L 1798 3723 
z
" transform="scale(0.015625)"/>
       </defs>
       <use xlink:href="#CMR17-34" transform="scale(0.996264)"/>
       <use xlink:href="#CMR17-30" transform="translate(45.690477 0) scale(0.996264)"/>
      </g>
     </g>
    </g>
    <g id="text_15">
     <!-- Average CFL - Blade_18 -->
     <g transform="translate(14.482687 171.548902) rotate(-90) scale(0.1 -0.1)">
      <defs>
       <path id="NimbusSanL-Regu-41" d="M 3034 1408 
L 3514 0 
L 4179 0 
L 2541 4672 
L 1773 4672 
L 109 0 
L 742 0 
L 1235 1408 
L 3034 1408 
z
M 2867 1907 
L 1382 1907 
L 2150 4032 
L 2867 1907 
z
" transform="scale(0.015625)"/>
       <path id="NimbusSanL-Regu-76" d="M 1824 0 
L 3110 3328 
L 2509 3328 
L 1562 629 
L 666 3328 
L 64 3328 
L 1242 0 
L 1824 0 
z
" transform="scale(0.015625)"/>
       <path id="NimbusSanL-Regu-67" d="M 2637 3359 
L 2637 2873 
C 2368 3270 2042 3456 1613 3456 
C 762 3456 186 2714 186 1632 
C 186 1084 333 638 608 320 
C 858 38 1216 -128 1568 -128 
C 1990 -128 2285 51 2586 473 
L 2586 300 
C 2586 -155 2528 -441 2394 -634 
C 2253 -841 1978 -960 1651 -960 
C 1408 -960 1190 -894 1043 -774 
C 922 -674 870 -581 838 -375 
L 294 -375 
C 352 -1031 845 -1408 1632 -1408 
C 2131 -1408 2560 -1248 2778 -980 
C 3034 -661 3130 -222 3130 568 
L 3130 3359 
L 2637 3359 
z
M 1670 2963 
C 2246 2963 2586 2479 2586 1644 
C 2586 848 2240 364 1677 364 
C 1094 364 742 855 742 1663 
C 742 2466 1101 2963 1670 2963 
z
" transform="scale(0.015625)"/>
       <path id="NimbusSanL-Regu-43" d="M 4237 3219 
C 4051 4236 3462 4736 2438 4736 
C 1811 4736 1306 4537 960 4154 
C 538 3696 307 3035 307 2284 
C 307 1522 544 867 986 415 
C 1344 44 1805 -128 2413 -128 
C 3552 -128 4192 485 4333 1712 
L 3718 1712 
C 3667 1394 3603 1178 3507 994 
C 3315 612 2918 396 2419 396 
C 1491 396 902 1134 902 2291 
C 902 3480 1466 4211 2368 4211 
C 2746 4211 3098 4096 3290 3918 
C 3462 3759 3558 3562 3629 3219 
L 4237 3219 
z
" transform="scale(0.015625)"/>
       <path id="NimbusSanL-Regu-46" d="M 1171 2112 
L 3398 2112 
L 3398 2636 
L 1171 2636 
L 1171 4147 
L 3706 4147 
L 3706 4672 
L 576 4672 
L 576 0 
L 1171 0 
L 1171 2112 
z
" transform="scale(0.015625)"/>
       <path id="NimbusSanL-Regu-4c" d="M 1107 4672 
L 512 4672 
L 512 0 
L 3411 0 
L 3411 524 
L 1107 524 
L 1107 4672 
z
" transform="scale(0.015625)"/>
       <path id="NimbusSanL-Regu-2d" d="M 1818 1996 
L 294 1996 
L 294 1536 
L 1818 1536 
L 1818 1996 
z
" transform="scale(0.015625)"/>
       <path id="NimbusSanL-Regu-42" d="M 506 0 
L 2611 0 
C 3053 0 3379 121 3629 390 
C 3859 632 3987 961 3987 1321 
C 3987 1878 3731 2214 3136 2444 
C 3558 2643 3782 2994 3782 3476 
C 3782 3821 3654 4127 3411 4345 
C 3168 4569 2848 4672 2400 4672 
L 506 4672 
L 506 0 
z
M 1101 2636 
L 1101 4147 
L 2253 4147 
C 2586 4147 2771 4101 2931 3977 
C 3098 3847 3187 3652 3187 3391 
C 3187 3138 3098 2936 2931 2806 
C 2771 2682 2586 2636 2253 2636 
L 1101 2636 
z
M 1101 524 
L 1101 2112 
L 2554 2112 
C 2842 2112 3034 2042 3174 1890 
C 3315 1745 3392 1542 3392 1315 
C 3392 1093 3315 891 3174 746 
C 3034 594 2842 524 2554 524 
L 1101 524 
z
" transform="scale(0.015625)"/>
       <path id="NimbusSanL-Regu-6c" d="M 973 4672 
L 435 4672 
L 435 0 
L 973 0 
L 973 4672 
z
" transform="scale(0.015625)"/>
       <path id="NimbusSanL-Regu-64" d="M 3168 4672 
L 2637 4672 
L 2637 2937 
C 2413 3276 2054 3456 1606 3456 
C 736 3456 166 2759 166 1695 
C 166 568 723 -128 1626 -128 
C 2086 -128 2406 44 2694 460 
L 2694 19 
L 3168 19 
L 3168 4672 
z
M 1696 2956 
C 2272 2956 2637 2447 2637 1651 
C 2637 880 2266 371 1702 371 
C 1114 371 723 887 723 1663 
C 723 2440 1114 2956 1696 2956 
z
" transform="scale(0.015625)"/>
       <path id="NimbusSanL-Regu-31" d="M 1658 3232 
L 1658 0 
L 2221 0 
L 2221 4537 
L 1850 4537 
C 1651 3840 1523 3744 653 3635 
L 653 3232 
L 1658 3232 
z
" transform="scale(0.015625)"/>
       <path id="NimbusSanL-Regu-38" d="M 2502 2399 
C 2970 2681 3123 2910 3123 3337 
C 3123 4044 2566 4544 1760 4544 
C 960 4544 397 4044 397 3337 
C 397 2917 550 2687 1011 2399 
C 493 2150 237 1774 237 1276 
C 237 447 864 -128 1760 -128 
C 2656 -128 3283 447 3283 1270 
C 3283 1774 3027 2150 2502 2399 
z
M 1760 4044 
C 2240 4044 2547 3764 2547 3324 
C 2547 2904 2234 2624 1760 2624 
C 1286 2624 973 2904 973 3331 
C 973 3764 1286 4044 1760 4044 
z
M 1760 2150 
C 2323 2150 2707 1793 2707 1264 
C 2707 728 2323 371 1747 371 
C 1197 371 813 734 813 1264 
C 813 1793 1197 2150 1760 2150 
z
" transform="scale(0.015625)"/>
      </defs>
      <use xlink:href="#NimbusSanL-Regu-41" transform="scale(0.996264)"/>
      <use xlink:href="#NimbusSanL-Regu-76" transform="translate(62.465918 0) scale(0.996264)"/>
      <use xlink:href="#NimbusSanL-Regu-65" transform="translate(109.788488 0) scale(0.996264)"/>
      <use xlink:href="#NimbusSanL-Regu-72" transform="translate(165.180165 0) scale(0.996264)"/>
      <use xlink:href="#NimbusSanL-Regu-61" transform="translate(197.359298 0) scale(0.996264)"/>
      <use xlink:href="#NimbusSanL-Regu-67" transform="translate(252.750975 0) scale(0.996264)"/>
      <use xlink:href="#NimbusSanL-Regu-65" transform="translate(308.142652 0) scale(0.996264)"/>
      <use xlink:href="#NimbusSanL-Regu-43" transform="translate(391.229499 0) scale(0.996264)"/>
      <use xlink:href="#NimbusSanL-Regu-46" transform="translate(463.159484 0) scale(0.996264)"/>
      <use xlink:href="#NimbusSanL-Regu-4c" transform="translate(524.031114 0) scale(0.996264)"/>
      <use xlink:href="#NimbusSanL-Regu-2d" transform="translate(607.117961 0) scale(0.996264)"/>
      <use xlink:href="#NimbusSanL-Regu-42" transform="translate(667.98836 0) scale(0.996264)"/>
      <use xlink:href="#NimbusSanL-Regu-6c" transform="translate(734.438391 0) scale(0.996264)"/>
      <use xlink:href="#NimbusSanL-Regu-61" transform="translate(756.555176 0) scale(0.996264)"/>
      <use xlink:href="#NimbusSanL-Regu-64" transform="translate(811.946853 0) scale(0.996264)"/>
      <use xlink:href="#NimbusSanL-Regu-65" transform="translate(867.33853 0) scale(0.996264)"/>
      <use xlink:href="#NimbusSanL-Regu-31" transform="translate(958.595772 0) scale(0.996264)"/>
      <use xlink:href="#NimbusSanL-Regu-38" transform="translate(1013.987449 0) scale(0.996264)"/>
      <path d="M 928.707548 0 
L 958.595772 0 
L 958.595772 0.3985 
L 928.707548 0.3985 
L 928.707548 0 
z
"/>
     </g>
    </g>
   </g>
   <g id="line2d_14">
    <path d="M 52.785526 157.924217 
L 52.962739 132.07868 
L 53.051346 210.587537 
L 53.139953 208.842896 
L 53.405772 201.222303 
L 53.671592 188.053918 
L 53.937412 165.298949 
L 54.291838 126.076054 
L 54.380445 209.987275 
L 54.469051 208.122581 
L 54.734871 199.977598 
L 55.000691 185.903069 
L 55.266511 161.582281 
L 55.53233 119.640962 
L 55.620937 99.816767 
L 55.709544 207.361346 
L 55.79815 204.971466 
L 56.06397 194.532472 
L 56.32979 176.493891 
L 56.59561 145.34938 
L 56.861429 91.93992 
L 56.950036 206.573661 
L 57.038643 204.026245 
L 57.304462 192.899129 
L 57.570282 173.679417 
L 57.836102 140.60122 
L 58.013315 106.424581 
L 58.101922 208.022127 
L 58.190528 205.764404 
L 58.456348 195.902669 
L 58.722168 178.864719 
L 58.987987 149.487646 
L 59.253807 118.876116 
L 59.342414 118.876116 
L 59.43102 98.810814 
L 59.519627 207.260751 
L 59.608234 204.850752 
L 59.874053 194.323878 
L 60.139873 176.13344 
L 60.405693 144.722575 
L 60.671513 111.940577 
L 60.848726 111.940577 
L 60.937332 208.573727 
L 61.025939 206.426324 
L 61.291759 197.046466 
L 61.557579 180.840592 
L 61.823398 152.85776 
L 62.089218 104.575584 
L 62.177825 207.837228 
L 62.266431 205.542524 
L 62.532251 195.519261 
L 62.798071 178.204982 
L 63.063891 148.320816 
L 63.32971 96.733137 
L 63.418317 207.052983 
L 63.506924 204.601431 
L 63.772743 193.893051 
L 64.038563 175.396716 
L 64.304383 143.465355 
L 64.481596 110.133405 
L 64.570203 208.39301 
L 64.658809 206.209463 
L 64.924629 196.671731 
L 65.190449 180.192355 
L 65.456269 151.734357 
L 65.633482 122.027996 
L 65.722088 209.582469 
L 65.810695 207.636814 
L 66.076515 199.138193 
L 66.342334 184.453837 
L 66.608154 159.097546 
L 66.873974 115.320738 
L 66.962581 208.911743 
L 67.051187 206.831943 
L 67.317007 197.747376 
L 67.582827 182.049275 
L 67.848646 154.923589 
L 68.114466 108.062838 
L 68.203073 208.185953 
L 68.291679 205.960995 
L 68.557499 196.242378 
L 68.823319 179.4493 
L 69.089139 150.443211 
L 69.266352 120.18139 
L 69.354959 209.397808 
L 69.443565 207.415221 
L 69.709385 198.755281 
L 69.975205 183.79214 
L 70.241024 157.964887 
L 70.595451 113.384609 
L 71.038484 113.384609 
L 71.12709 208.71813 
L 71.215697 206.599607 
L 71.481517 197.3459 
L 71.747336 181.355495 
L 72.013156 153.724073 
L 72.278976 105.976977 
L 72.367583 207.977367 
L 72.456189 205.710692 
L 72.722009 195.809854 
L 72.987829 178.701206 
L 73.253648 149.137463 
L 73.519468 98.051314 
L 73.608075 207.184801 
L 73.696681 204.759612 
L 73.962501 194.166388 
L 74.228321 175.861298 
L 74.494141 144.230101 
L 74.75996 89.571393 
L 74.848567 206.336809 
L 74.937174 203.742022 
L 75.202993 192.407992 
L 75.468813 172.822789 
L 75.734633 138.979557 
L 75.911846 103.633951 
L 76.000453 207.743064 
L 76.089059 205.429528 
L 76.354879 195.324004 
L 76.620699 177.861657 
L 76.886519 147.686723 
L 77.152338 95.55232 
L 77.240945 206.934901 
L 77.329552 204.459733 
L 77.595371 193.648197 
L 77.861191 174.965863 
L 78.127011 142.682834 
L 78.304224 108.979826 
L 78.392831 208.277652 
L 78.481437 206.071033 
L 78.747257 196.432524 
L 79.013077 179.777181 
L 79.278897 150.996747 
L 79.544716 101.281948 
L 79.633323 207.507864 
L 79.72193 205.147288 
L 79.987749 194.836293 
L 80.253569 177.018892 
L 80.519389 146.230425 
L 80.785209 114.076134 
L 80.873815 218.88 
L 80.962422 218.793851 
L 81.316848 218.238916 
L 81.582668 217.458625 
L 81.848488 216.110283 
L 82.114307 213.780348 
L 82.380127 209.754219 
L 82.645947 202.79707 
L 82.911767 190.775116 
L 83.177587 170.001178 
L 83.443406 134.103815 
L 83.709226 72.073171 
L 83.797833 218.88 
L 83.886439 218.793851 
L 84.240866 218.238916 
L 84.506685 217.458625 
L 84.772505 216.110283 
L 85.038325 213.780348 
L 85.304145 209.754219 
L 85.569964 202.79707 
L 85.835784 190.775116 
L 86.101604 170.001178 
L 86.367424 134.106111 
L 86.633244 72.109126 
L 86.72185 204.590582 
L 86.810457 201.646549 
L 87.076276 188.787016 
L 87.342096 166.565742 
L 87.607916 128.168211 
L 87.873736 61.830216 
L 87.962342 203.562691 
L 88.050949 200.41308 
L 88.316769 186.655581 
L 88.582589 162.882623 
L 88.848408 121.804494 
L 89.114228 50.885749 
L 89.202835 17.28 
L 89.291441 199.107669 
L 89.380048 195.067054 
L 89.645868 177.417649 
L 89.911687 146.921911 
L 90.177507 94.238822 
L 90.266114 69.237326 
L 90.35472 204.303402 
L 90.443327 201.301933 
L 90.709147 188.19152 
L 90.974966 165.536725 
L 91.240786 126.389239 
L 91.417999 85.503777 
L 91.506606 205.930047 
L 91.595213 203.253908 
L 91.861032 191.564531 
L 92.126852 171.365288 
L 92.392672 136.460997 
L 92.658492 76.146381 
L 92.747098 204.994307 
L 92.835705 202.13102 
L 93.101525 189.624181 
L 93.367344 168.012364 
L 93.633164 130.667144 
L 93.898984 66.134603 
L 93.987591 203.993129 
L 94.076197 200.929607 
L 94.342017 187.548139 
L 94.607837 164.424963 
L 94.873656 124.468115 
L 95.05087 82.737358 
L 95.139476 205.653405 
L 95.228083 202.921937 
L 95.493903 190.990886 
L 95.759722 170.37403 
L 96.025542 134.748103 
L 96.291362 73.186501 
L 96.379968 204.698319 
L 96.468575 201.775834 
L 96.734395 189.010421 
L 97.000215 166.951785 
L 97.266034 128.834464 
L 97.531854 62.967732 
L 97.620461 203.676442 
L 97.709067 200.549582 
L 97.974887 186.891457 
L 98.240707 163.290216 
L 98.506527 122.507502 
L 98.68374 79.918876 
L 98.772346 205.371557 
L 98.860953 202.583719 
L 99.126773 190.406446 
L 99.392592 169.364117 
L 99.658412 133.002973 
L 99.835625 95.027554 
L 99.924232 206.882425 
L 100.012839 204.396761 
L 100.278658 193.539381 
L 100.544478 174.77783 
L 100.810298 142.357869 
L 101.076118 86.336176 
L 101.164724 206.013287 
L 101.253331 203.353795 
L 101.519151 191.737137 
L 101.78497 171.663552 
L 102.05079 136.976396 
L 102.31661 77.039356 
L 102.405217 205.083605 
L 102.493823 202.238177 
L 102.759643 189.809349 
L 103.025463 168.332333 
L 103.291282 131.220051 
L 103.468496 92.478023 
L 103.557102 206.627471 
L 103.645709 204.090817 
L 103.911529 193.010711 
L 104.177348 173.864287 
L 104.443168 140.779266 
L 104.708988 83.618666 
L 104.797594 205.741536 
L 104.886201 203.027694 
L 105.152021 191.173634 
L 105.417841 170.689819 
L 105.68366 135.293786 
L 106.038087 74.173416 
L 106.126693 204.797011 
L 106.2153 201.894264 
L 106.48112 189.215067 
L 106.746939 167.305415 
L 107.012759 129.445536 
L 107.189972 89.904845 
L 107.278579 206.370154 
L 107.367186 203.782036 
L 107.633005 192.477136 
L 107.898825 172.94227 
L 108.164645 139.186022 
L 108.519071 80.855225 
L 108.607678 205.465192 
L 108.696284 202.696081 
L 108.962104 190.600607 
L 109.227924 169.699628 
L 109.493744 133.582736 
L 109.670957 95.862412 
L 109.759564 206.96591 
L 109.84817 204.496944 
L 110.11399 193.712498 
L 110.37981 175.076974 
L 110.645629 142.874791 
L 110.911449 87.229417 
L 111.000056 206.102611 
L 111.088662 203.460984 
L 111.354482 191.92236 
L 111.620302 171.983616 
L 111.886122 137.529467 
L 112.151941 101.545706 
L 112.240548 101.545706 
L 112.329155 77.992698 
L 112.417761 205.178939 
L 112.506368 202.352578 
L 112.772188 190.007034 
L 113.038007 168.673933 
L 113.303827 131.810335 
L 113.48104 93.310155 
L 113.569647 206.710685 
L 113.658253 204.190673 
L 113.924073 193.183261 
L 114.189893 174.162455 
L 114.455713 141.2945 
L 114.721533 84.498675 
L 114.810139 205.829537 
L 114.898746 203.133295 
L 115.164566 191.356113 
L 115.430385 171.005142 
L 115.696205 135.838664 
L 115.962025 75.07099 
L 116.050631 204.886768 
L 116.139238 202.001973 
L 116.405058 189.401188 
L 116.670878 167.627032 
L 116.936697 130.00129 
L 117.202517 90.705131 
L 118.797436 90.705131 
L 118.886042 206.450182 
L 118.974649 203.87807 
L 119.240469 192.643084 
L 119.506288 173.229027 
L 119.772108 139.681538 
L 120.037928 81.711476 
L 120.126535 205.550817 
L 120.215141 202.798831 
L 120.480961 190.778159 
L 120.746781 170.006438 
L 121.0126 134.112904 
L 121.189814 96.625854 
L 121.27842 207.042255 
L 121.367027 204.588557 
L 121.632847 193.870805 
L 121.898666 175.35053 
L 122.164486 143.347494 
L 122.430306 88.058102 
L 122.518912 206.185479 
L 122.607519 203.560427 
L 122.873339 192.094196 
L 123.139159 172.280549 
L 123.404978 138.042567 
L 123.759405 78.879335 
L 123.848011 205.267603 
L 123.936618 202.458975 
L 124.202438 190.190887 
L 124.468257 168.991631 
L 124.734077 132.359317 
L 124.91129 94.100689 
L 124.999897 206.789738 
L 125.088504 204.285537 
L 125.354323 193.347187 
L 125.620143 174.445717 
L 125.885963 141.783978 
L 126.151783 85.344493 
L 126.240389 205.914118 
L 126.328996 203.234793 
L 126.594816 191.531502 
L 126.860635 171.308214 
L 127.126455 136.362372 
L 127.392275 75.975958 
L 127.480882 204.977265 
L 127.569488 202.110569 
L 127.835308 189.588842 
L 128.101128 167.951298 
L 128.366947 130.561622 
L 128.632767 91.512009 
L 129.784653 91.512009 
L 129.873259 206.53087 
L 129.961866 203.974895 
L 130.227686 192.810398 
L 130.493506 173.518146 
L 130.759325 140.181136 
L 131.025145 82.574781 
L 131.113752 205.637147 
L 131.202358 202.902428 
L 131.468178 190.957174 
L 131.733998 170.315776 
L 131.999818 134.64744 
L 132.354244 73.012554 
L 132.442851 204.680925 
L 132.531457 201.754961 
L 132.797277 188.974351 
L 133.063097 166.889457 
L 133.328916 128.726761 
L 133.594736 88.869808 
L 133.683343 88.869808 
L 133.771949 206.26665 
L 133.860556 203.657831 
L 134.126376 192.262511 
L 134.392196 172.571398 
L 134.658015 138.545155 
L 134.923835 79.747806 
L 135.012442 205.35445 
L 135.101048 202.563191 
L 135.366868 190.370973 
L 135.632688 169.30282 
L 135.898508 132.897051 
L 136.164327 94.875026 
L 136.784573 94.875026 
L 136.87318 206.867172 
L 136.961787 204.378457 
L 137.227606 193.507753 
L 137.493426 174.723176 
L 137.759246 142.263427 
L 138.025066 108.362608 
L 138.113672 108.362608 
L 138.202279 86.172981 
L 138.290885 205.996967 
L 138.379492 203.334212 
L 138.645312 191.703297 
L 138.911132 171.605076 
L 139.176951 136.87535 
L 139.354165 100.603777 
L 139.442771 207.440047 
L 139.531378 205.065908 
L 139.797197 194.695667 
L 140.063017 176.775891 
L 140.328837 145.810519 
L 140.594657 92.302355 
L 140.683263 206.609905 
L 140.77187 204.069737 
L 141.03769 192.974284 
L 141.30351 173.801342 
L 141.569329 140.670497 
L 141.835149 83.420398 
L 141.923756 205.721709 
L 142.012362 203.003902 
L 142.278182 191.132521 
L 142.544002 170.618776 
L 142.809822 135.171023 
L 142.987035 98.149546 
L 143.075641 207.194624 
L 143.164248 204.7714 
L 143.430068 194.186758 
L 143.695887 175.896496 
L 143.961707 144.290924 
L 144.227527 89.676495 
L 144.316134 206.347319 
L 144.40474 203.754634 
L 144.67056 192.429786 
L 144.93638 172.860448 
L 145.202199 139.044634 
L 145.468019 80.610906 
L 145.556626 205.44076 
L 145.645232 202.666763 
L 145.911052 190.549945 
L 146.176872 169.612084 
L 146.442692 133.43146 
L 146.708512 95.644575 
L 147.417364 95.644575 
L 147.505971 206.944127 
L 147.594577 204.470803 
L 147.860397 193.667327 
L 148.126217 174.998919 
L 148.392037 142.739912 
L 148.657856 109.048745 
L 148.923676 109.048745 
L 149.012283 86.996346 
L 149.100889 206.079304 
L 149.189496 203.433016 
L 149.455316 191.87403 
L 149.721136 171.900103 
L 149.986955 137.385156 
L 150.252775 101.337897 
L 150.341382 101.337897 
L 150.429988 77.743328 
L 150.518595 205.154002 
L 150.607201 202.322654 
L 150.873021 189.955324 
L 151.138841 168.584579 
L 151.404661 131.655931 
L 151.581874 93.087814 
L 151.670481 206.688451 
L 151.759087 204.163992 
L 152.024907 193.137157 
L 152.290727 174.082786 
L 152.556546 141.156833 
L 152.822366 84.260785 
L 152.910973 205.805748 
L 152.999579 203.104749 
L 153.265399 191.306784 
L 153.531219 170.919902 
L 153.797039 135.691369 
L 154.062858 74.816464 
L 154.151465 204.861316 
L 154.240072 201.97143 
L 154.505891 189.34841 
L 154.771711 167.535831 
L 155.037531 129.843694 
L 155.214744 90.478193 
L 155.303351 206.427488 
L 155.391957 203.850837 
L 155.657777 192.596026 
L 155.923597 173.147711 
L 156.189417 139.541024 
L 156.455236 104.442347 
L 156.898269 104.442347 
L 156.986876 207.823904 
L 157.075483 205.526536 
L 157.341302 195.491633 
L 157.607122 178.15132 
L 157.872942 148.18726 
L 158.138762 96.409364 
L 158.227368 207.020606 
L 158.315975 204.562578 
L 158.581795 193.825914 
L 158.847614 175.272957 
L 159.113434 143.213449 
L 159.46786 87.814619 
L 159.556467 206.161131 
L 159.645074 203.531209 
L 159.910893 192.043707 
L 160.176713 172.193304 
L 160.442533 137.891809 
L 160.619746 102.067478 
L 160.708353 207.586417 
L 160.796959 205.241552 
L 161.062779 194.99918 
L 161.328599 177.300362 
L 161.594419 146.716804 
L 161.860238 93.868415 
L 161.948845 206.766511 
L 162.037452 204.257664 
L 162.303271 193.299022 
L 162.569091 174.362489 
L 162.834911 141.64016 
L 163.100731 107.465104 
L 163.63237 107.465104 
L 163.720977 85.095976 
L 163.809583 205.889267 
L 163.89819 203.204971 
L 164.16401 191.479969 
L 164.429829 171.219166 
L 164.695649 136.208497 
L 164.961469 99.643508 
L 166.201961 99.643508 
L 166.290568 75.710061 
L 166.379174 204.950675 
L 166.467781 202.078662 
L 166.733601 189.533706 
L 166.999421 167.856023 
L 167.26524 130.396986 
L 167.442454 91.274933 
L 167.53106 206.507162 
L 167.619667 203.946446 
L 167.885487 192.761238 
L 168.151306 173.433198 
L 168.417126 140.034344 
L 168.682946 82.321125 
L 168.771552 205.611782 
L 168.860159 202.871989 
L 169.125979 190.904576 
L 169.391799 170.224887 
L 169.657618 134.490383 
L 169.834831 97.169424 
L 169.923438 207.096612 
L 170.012045 204.653785 
L 170.277864 193.98352 
L 170.543684 175.5453 
L 170.809504 143.684058 
L 171.075324 88.627831 
L 171.16393 206.242452 
L 171.252537 203.628794 
L 171.518357 192.212335 
L 171.784176 172.484693 
L 172.049996 138.395328 
L 172.404423 79.488906 
L 172.493029 205.32856 
L 172.581636 202.532123 
L 172.847456 190.317287 
L 173.113275 169.210051 
L 173.379095 132.736747 
L 173.644915 94.644189 
L 176.391719 94.644189 
L 176.480326 206.844088 
L 176.568932 204.350757 
L 176.834752 193.459887 
L 177.100572 174.640463 
L 177.366392 142.120499 
L 177.720818 85.926001 
L 177.809425 205.972269 
L 177.898031 203.304574 
L 178.163851 191.652083 
L 178.429671 171.516579 
L 178.69549 136.722427 
L 178.872704 100.383567 
L 178.96131 207.418026 
L 179.049917 205.039482 
L 179.315737 194.650004 
L 179.581556 176.696986 
L 179.847376 145.67417 
L 180.113196 92.066745 
L 180.201803 206.586344 
L 180.290409 204.041464 
L 180.556229 192.925428 
L 180.822049 173.716918 
L 181.087868 140.524614 
L 181.353688 83.168311 
L 181.442295 205.6965 
L 181.530901 202.973652 
L 181.796721 191.080249 
L 182.062541 170.528449 
L 182.328361 135.014938 
L 182.59418 73.647591 
L 182.682787 204.744428 
L 182.771394 201.831165 
L 183.037213 189.106032 
L 183.303033 167.117002 
L 183.568853 129.119959 
L 183.923279 63.461068 
L 184.011886 203.725776 
L 184.100492 200.608782 
L 184.366312 186.993755 
L 184.632132 163.466987 
L 184.897952 122.812732 
L 185.075165 80.353607 
L 185.163772 205.41503 
L 185.252378 202.635887 
L 185.518198 190.496592 
L 185.784018 169.519889 
L 186.049837 133.272147 
L 186.404264 70.636049 
L 186.49287 204.443274 
L 186.581477 201.46978 
L 186.847297 188.481559 
L 187.113117 166.037913 
L 187.378936 127.255292 
L 187.556149 86.750893 
L 187.644756 206.054758 
L 187.733363 203.403561 
L 187.999182 191.823133 
L 188.265002 171.812152 
L 188.530822 137.233178 
L 188.796642 101.119049 
L 189.328281 101.119049 
L 189.416888 77.48071 
L 189.505494 205.12774 
L 189.594101 202.29114 
L 189.859921 189.900868 
L 190.125741 168.490478 
L 190.39156 131.493325 
L 190.65738 92.853661 
L 191.543446 92.853661 
L 191.632053 67.562245 
L 191.720659 204.135894 
L 191.809266 201.100924 
L 192.075086 187.844175 
L 192.340905 164.936513 
L 192.606725 125.352073 
L 192.783938 84.010258 
L 192.872545 205.780695 
L 192.961151 203.074685 
L 193.226971 191.254835 
L 193.492791 170.830133 
L 193.758611 135.536249 
L 194.024431 74.548417 
L 194.113037 204.834511 
L 194.201644 201.939264 
L 194.467463 189.292827 
L 194.733283 167.439785 
L 194.999103 129.677726 
L 195.176316 90.239199 
L 195.264923 206.403589 
L 195.353529 203.822158 
L 195.619349 192.546468 
L 195.885169 173.062075 
L 196.150989 139.393045 
L 196.328202 104.229258 
L 196.416808 207.802595 
L 196.505415 205.500965 
L 196.771235 195.447447 
L 197.037055 178.074967 
L 197.302874 148.055321 
L 197.568694 96.181373 
L 197.657301 206.997807 
L 197.745907 204.535219 
L 198.011727 193.778637 
L 198.277547 175.191264 
L 198.543367 143.072283 
L 198.809186 87.570683 
L 198.897793 206.136738 
L 198.9864 203.501936 
L 199.252219 191.993125 
L 199.518039 172.105898 
L 199.783859 137.740771 
L 200.138285 78.35783 
L 200.226892 205.215452 
L 200.315498 202.396394 
L 200.581318 190.082747 
L 200.847138 168.804766 
L 201.112958 132.036415 
L 201.378777 93.63571 
L 201.910417 93.63571 
L 201.999024 68.500704 
L 202.08763 204.22974 
L 202.176237 201.213539 
L 202.442057 188.038774 
L 202.707876 165.27278 
L 202.973696 125.933142 
L 203.150909 84.846997 
L 203.239516 205.864369 
L 203.328122 203.175094 
L 203.593942 191.428341 
L 203.859762 171.129952 
L 204.125582 136.054336 
L 204.391402 75.443671 
L 204.480008 204.924036 
L 204.568615 202.046695 
L 204.834434 189.478467 
L 205.100254 167.76057 
L 205.366074 130.232044 
L 205.543287 91.037417 
L 205.631894 206.483411 
L 205.7205 203.917944 
L 205.98632 192.711987 
L 206.25214 173.348091 
L 206.51796 139.887281 
L 206.872386 82.067 
L 206.960993 205.586369 
L 207.049599 202.841494 
L 207.315419 190.851881 
L 207.581239 170.133829 
L 207.847059 134.333035 
L 208.024272 96.942843 
L 208.112878 207.073953 
L 208.201485 204.626595 
L 208.467305 193.936536 
L 208.733124 175.464112 
L 208.998944 143.543765 
L 209.264764 88.385404 
L 209.353371 206.21821 
L 209.441977 203.599703 
L 209.707797 192.162065 
L 209.973617 172.397827 
L 210.239436 138.245224 
L 210.505256 79.229526 
L 210.593863 205.302622 
L 210.682469 202.500997 
L 210.948289 190.263502 
L 211.214109 169.117111 
L 211.479929 132.576146 
L 211.834355 69.433359 
L 211.922962 204.323005 
L 212.011568 201.325457 
L 212.277388 188.232169 
L 212.543208 165.606967 
L 212.809028 126.510618 
L 213.074847 85.678562 
L 213.340667 85.678562 
L 213.429274 205.947525 
L 213.51788 203.274882 
L 213.7837 191.600774 
L 214.04952 171.427917 
L 214.31534 136.569219 
L 214.581159 76.333389 
L 214.669766 205.013008 
L 214.758373 202.153461 
L 215.024192 189.662959 
L 215.290012 168.079372 
L 215.555832 130.782934 
L 215.733045 91.830698 
L 215.821652 206.562739 
L 215.910258 204.013138 
L 216.176078 192.876481 
L 216.441898 173.632338 
L 216.707718 140.37846 
L 216.973537 82.915757 
L 217.062144 205.671245 
L 217.15075 202.943345 
L 217.41657 191.027879 
L 217.68239 170.437954 
L 217.94821 134.858563 
L 218.125423 97.699603 
L 218.21403 207.14963 
L 218.302636 204.717407 
L 218.568456 194.093458 
L 218.834276 175.735273 
L 219.100095 144.012331 
L 219.365915 89.195087 
L 219.454522 206.299178 
L 219.543128 203.696865 
L 219.808948 192.329961 
L 220.074768 172.687951 
L 220.340588 138.746558 
L 220.695014 80.095831 
L 220.783621 205.389252 
L 220.872227 202.604954 
L 221.138047 190.443139 
L 221.403867 169.427524 
L 221.669687 133.112539 
L 221.935506 95.18533 
L 222.467146 95.18533 
L 222.555752 70.360247 
L 222.644359 204.415694 
L 222.732966 201.436684 
L 222.998785 188.424369 
L 223.264605 165.939087 
L 223.530425 127.084522 
L 223.796245 86.504984 
L 225.036737 86.504984 
L 225.125344 206.030168 
L 225.21395 203.374052 
L 225.47977 191.772141 
L 225.74559 171.724039 
L 226.011409 137.080918 
L 226.365836 77.217605 
L 226.454442 205.10143 
L 226.543049 202.259567 
L 226.808869 189.84631 
L 227.074689 168.396203 
L 227.340508 131.330417 
L 227.517722 92.619074 
L 227.606328 206.641577 
L 227.694935 204.107743 
L 227.960754 193.039959 
L 228.226574 173.914828 
L 228.492394 140.866601 
L 228.758214 83.759265 
L 228.84682 205.755596 
L 228.935427 203.044566 
L 229.201247 191.202789 
L 229.467066 170.740198 
L 229.732886 135.380841 
L 230.087313 74.279872 
L 230.175919 204.807656 
L 230.264526 201.907039 
L 230.530346 189.237142 
L 230.796165 167.34356 
L 231.061985 129.51145 
L 231.327805 89.999762 
L 233.54297 89.999762 
L 233.631576 206.379645 
L 233.720183 203.793426 
L 233.986003 192.496818 
L 234.251822 172.976281 
L 234.517642 139.244792 
L 234.872068 80.956779 
L 234.960675 205.475347 
L 235.049282 202.708268 
L 235.315101 190.621665 
L 235.580921 169.736017 
L 235.846741 133.645615 
L 236.023954 95.952959 
L 236.112561 206.974965 
L 236.201167 204.507809 
L 236.466987 193.731273 
L 236.732807 175.109419 
L 236.998627 142.930855 
L 237.264446 87.326296 
L 237.353053 206.112299 
L 237.44166 203.47261 
L 237.707479 191.942448 
L 237.973299 172.01833 
L 238.239119 137.589452 
L 238.504939 78.096352 
L 238.593545 205.189304 
L 238.682152 202.365017 
L 238.947972 190.028527 
L 239.213791 168.711074 
L 239.479611 131.874515 
L 239.834038 68.22094 
L 239.922644 204.201763 
L 240.011251 201.179967 
L 240.27707 187.980762 
L 240.54289 165.172535 
L 240.80871 125.759919 
L 241.07453 84.597557 
L 241.34035 84.597557 
L 241.428956 205.839425 
L 241.517563 203.145161 
L 241.783382 191.376617 
L 242.049202 171.040573 
L 242.315022 135.899889 
L 242.580842 75.176787 
L 242.669448 204.897348 
L 242.758055 202.014669 
L 243.023875 189.423126 
L 243.289695 167.664941 
L 243.555514 130.066797 
L 243.732727 90.79946 
L 243.821334 206.459615 
L 243.909941 203.88939 
L 244.17576 192.662644 
L 244.44158 173.262827 
L 244.7074 139.739944 
L 244.97322 81.812402 
L 245.061826 205.560909 
L 245.150433 202.810943 
L 245.416253 190.799087 
L 245.682072 170.042602 
L 245.947892 134.175395 
L 246.125105 96.715841 
L 246.213712 207.051253 
L 246.302319 204.599355 
L 246.568138 193.889465 
L 246.833958 175.382774 
L 247.099778 143.403211 
L 247.365598 88.142528 
L 247.454204 206.193922 
L 247.542811 203.570558 
L 247.808631 192.111702 
L 248.07445 172.3108 
L 248.34027 138.094842 
L 248.60609 78.969665 
L 248.694697 205.276636 
L 248.783303 202.469814 
L 249.049123 190.209618 
L 249.314943 169.023998 
L 249.580762 132.415247 
L 249.935189 69.155325 
L 250.023795 204.295202 
L 250.112402 201.292093 
L 250.378222 188.174516 
L 250.644041 165.507342 
L 250.909861 126.338466 
L 251.175681 85.430664 
L 251.352894 85.430664 
L 251.441501 205.922736 
L 251.530107 203.245134 
L 251.795927 191.54937 
L 252.061747 171.339091 
L 252.327567 136.415727 
L 252.593386 76.068156 
L 252.681993 204.986485 
L 252.7706 202.121633 
L 253.036419 189.607961 
L 253.302239 167.984334 
L 253.568059 130.618709 
L 253.745272 91.594213 
L 253.833879 206.539091 
L 253.922485 203.98476 
L 254.188305 192.827444 
L 254.454125 173.547602 
L 254.719945 140.232034 
L 254.985764 82.662734 
L 255.074371 205.645943 
L 255.162978 202.912982 
L 255.428797 190.975412 
L 255.694617 170.347291 
L 255.960437 134.701898 
L 256.13765 97.474006 
L 256.226257 207.12707 
L 256.314863 204.690335 
L 256.580683 194.046678 
L 256.846503 175.654438 
L 257.112323 143.872647 
L 257.378142 88.953712 
L 257.466749 206.27504 
L 257.555355 203.6679 
L 257.821175 192.27991 
L 258.086995 172.601462 
L 258.352815 138.597106 
L 258.707241 79.837577 
L 258.795848 205.363427 
L 258.884454 202.573964 
L 259.150274 190.389588 
L 259.416094 169.334986 
L 259.681914 132.952635 
L 259.947733 94.955068 
L 260.56798 94.955068 
L 260.656586 70.083932 
L 260.745193 204.388062 
L 260.833799 201.403526 
L 261.099619 188.367072 
L 261.365439 165.840079 
L 261.631259 126.913435 
L 261.897078 86.25862 
L 263.048964 86.25862 
L 263.137571 206.005531 
L 263.226177 203.344489 
L 263.491997 191.721055 
L 263.757817 171.635762 
L 264.023637 136.928375 
L 264.378063 76.954012 
L 264.46667 205.07507 
L 264.555276 202.227936 
L 264.821096 189.791652 
L 265.086916 168.301753 
L 265.352735 131.167207 
L 265.529949 92.384051 
L 265.618555 206.618074 
L 265.707162 204.07954 
L 265.972982 192.991225 
L 266.238801 173.830615 
L 266.504621 140.721081 
L 266.770441 83.507807 
L 266.859047 205.73045 
L 266.947654 203.014391 
L 267.213474 191.150647 
L 267.479294 170.650096 
L 267.745113 135.225145 
L 268.09954 74.010829 
L 268.188146 204.780752 
L 268.276753 201.874754 
L 268.542573 189.181353 
L 268.808392 167.247157 
L 269.074212 129.344866 
L 269.340032 89.75988 
L 271.643803 89.75988 
L 271.73241 206.355657 
L 271.821016 203.76464 
L 272.086836 192.447076 
L 272.352656 172.890327 
L 272.618476 139.096264 
L 272.972902 80.700122 
L 273.061509 205.449681 
L 273.150115 202.677469 
L 273.415935 190.568445 
L 273.681755 169.644052 
L 273.947575 133.4867 
L 274.124788 95.724121 
L 274.213394 206.952081 
L 274.302001 204.480349 
L 274.567821 193.683822 
L 274.833641 175.027422 
L 275.09946 142.789164 
L 275.36528 87.081455 
L 275.453887 206.087815 
L 275.542493 203.443229 
L 275.808313 191.891678 
L 276.074133 171.930599 
L 276.339953 137.437853 
L 276.605772 77.834389 
L 276.694379 205.163108 
L 276.782986 202.333581 
L 277.048805 189.974207 
L 277.314625 168.617208 
L 277.580445 131.712314 
L 277.934871 67.940657 
L 278.023478 204.173735 
L 278.112084 201.146333 
L 278.377904 187.922642 
L 278.643724 165.072105 
L 278.909544 125.586376 
L 279.175363 84.347654 
L 280.238643 84.347654 
L 280.327249 205.814435 
L 280.415856 203.115173 
L 280.681675 191.324797 
L 280.947495 170.951028 
L 281.213315 135.745156 
L 281.479135 98.976297 
L 281.567741 98.976297 
L 281.656348 74.909408 
L 281.744955 204.87061 
L 281.833561 201.982583 
L 282.099381 189.367683 
L 282.365201 167.569134 
L 282.63102 129.901243 
L 282.808234 90.561062 
L 282.89684 206.435775 
L 282.985447 203.860782 
L 283.251267 192.61321 
L 283.517086 173.177405 
L 283.782906 139.592334 
L 284.048726 81.557333 
L 284.137332 205.535402 
L 284.225939 202.780334 
L 284.491759 190.746196 
L 284.757579 169.951206 
L 285.023398 134.017462 
L 285.289218 96.488419 
L 285.820858 96.488419 
L 285.909464 71.923954 
L 285.998071 204.572065 
L 286.086677 201.624329 
L 286.352497 188.748619 
L 286.618317 166.499392 
L 286.884137 128.052728 
L 287.149957 87.899201 
L 288.301842 87.899201 
L 288.390449 206.169589 
L 288.479055 203.541358 
L 288.744875 192.061246 
L 289.010695 172.223612 
L 289.276515 137.94418 
L 289.630941 78.709322 
L 289.719548 205.250601 
L 289.808154 202.438573 
L 290.073974 190.155633 
L 290.339794 168.930712 
L 290.605614 132.254049 
L 290.782827 93.949104 
L 290.871433 206.77458 
L 290.96004 204.267347 
L 291.22586 193.315754 
L 291.491679 174.391402 
L 291.757499 141.690121 
L 292.023319 85.182307 
L 292.111926 205.8979 
L 292.200532 203.215331 
L 292.466352 191.497871 
L 292.732172 171.2501 
L 292.997991 136.261951 
L 293.263811 99.720482 
L 293.352418 99.720482 
L 293.441024 75.80243 
L 293.529631 204.959912 
L 293.618238 202.089746 
L 293.884057 189.55286 
L 294.149877 167.88912 
L 294.415697 130.454178 
L 294.681517 91.35729 
L 296.010616 91.35729 
L 296.099222 65.766599 
L 296.187829 203.956329 
L 296.276435 200.885446 
L 296.542255 187.47183 
L 296.808075 164.2931 
L 297.073895 124.240256 
L 297.251108 82.409242 
L 297.339714 205.620593 
L 297.428321 202.882563 
L 297.694141 190.922848 
L 297.95996 170.25646 
L 298.22578 134.544942 
L 298.580207 72.835439 
L 298.668813 204.663213 
L 298.75742 201.733707 
L 299.02324 188.937624 
L 299.289059 166.825994 
L 299.554879 128.617095 
L 299.732092 88.71189 
L 299.820699 206.250858 
L 299.909305 203.638881 
L 300.175125 192.229765 
L 300.440945 172.514813 
L 300.706765 138.447376 
L 300.972585 102.867494 
L 301.592831 102.867494 
L 301.681437 79.578844 
L 301.770044 205.337554 
L 301.85865 202.542916 
L 302.12447 190.335937 
L 302.39029 169.242278 
L 302.65611 132.792435 
L 302.92193 94.724379 
L 303.719389 94.724379 
L 303.807995 69.807106 
L 303.896602 204.36038 
L 303.985209 201.370307 
L 304.251028 188.309669 
L 304.516848 165.740887 
L 304.782668 126.742032 
L 304.959881 86.011798 
L 305.048488 205.980849 
L 305.137094 203.31487 
L 305.402914 191.669874 
L 305.668734 171.547321 
L 305.934554 136.77555 
L 306.200373 76.689929 
L 306.28898 205.048662 
L 306.377587 202.196246 
L 306.643406 189.736891 
L 306.909226 168.207127 
L 307.175046 131.003694 
L 307.352259 92.148593 
L 307.440866 206.594528 
L 307.529472 204.051285 
L 307.795292 192.9424 
L 308.061112 173.746246 
L 308.326932 140.575292 
L 308.681358 83.255883 
L 308.769964 205.705257 
L 308.858571 202.98416 
L 309.124391 191.098408 
L 309.390211 170.559827 
L 309.65603 135.06916 
L 309.833244 98.002863 
L 309.92185 207.179955 
L 310.010457 204.753798 
L 310.276276 194.156341 
L 310.542096 175.843937 
L 310.807916 144.200101 
L 311.073736 89.519554 
L 311.162342 206.331625 
L 311.250949 203.735801 
L 311.516769 192.397242 
L 311.782589 172.804214 
L 312.048408 138.94746 
L 312.314228 80.442989 
L 312.402835 205.423968 
L 312.491441 202.646613 
L 312.757261 190.515126 
L 313.023081 169.551916 
L 313.288901 133.32749 
L 313.643327 70.731682 
L 313.731934 204.452837 
L 313.82054 201.481256 
L 314.08636 188.501389 
L 314.35218 166.072179 
L 314.617999 127.314505 
L 314.883819 86.83616 
L 316.212918 86.83616 
L 316.301525 206.063285 
L 316.390131 203.413793 
L 316.655951 191.840814 
L 316.921771 171.842705 
L 317.187591 137.285973 
L 317.45341 101.195074 
L 317.542017 101.195074 
L 317.630623 77.57194 
L 317.71923 205.136863 
L 317.807837 202.302087 
L 318.073656 189.919785 
L 318.339476 168.523168 
L 318.605296 131.549812 
L 318.782509 92.935002 
L 318.871116 206.673169 
L 318.959722 204.145655 
L 319.225542 193.10547 
L 319.491362 174.028031 
L 319.757182 141.062216 
L 320.111608 84.097287 
L 320.200215 205.789398 
L 320.288821 203.085129 
L 320.554641 191.272881 
L 320.820461 170.861318 
L 321.08628 135.590135 
L 321.3521 98.753068 
L 321.88374 98.753068 
L 321.972346 74.641533 
L 322.060953 204.843822 
L 322.14956 201.950438 
L 322.415379 189.312136 
L 322.681199 167.47315 
L 322.947019 129.735381 
L 323.212839 90.322222 
L 324.364724 90.322222 
L 324.453331 206.411891 
L 324.541937 203.832121 
L 324.807757 192.563684 
L 325.073577 173.091824 
L 325.339397 139.444451 
L 325.693823 81.30179 
L 325.78243 205.509848 
L 325.871036 202.749669 
L 326.136856 190.693207 
L 326.402676 169.85964 
L 326.668496 133.859237 
L 326.845709 96.260574 
L 326.934315 207.005727 
L 327.022922 204.544723 
L 327.288742 193.79506 
L 327.554562 175.219643 
L 327.820381 143.121322 
L 328.174808 87.655423 
L 328.263414 206.145211 
L 328.352021 203.512105 
L 328.617841 192.010696 
L 328.88366 172.136262 
L 329.14948 137.793239 
L 329.4153 101.925537 
L 329.503907 101.925537 
L 329.592513 78.448496 
L 329.68112 205.224519 
L 329.769726 202.407274 
L 330.035546 190.101548 
L 330.301366 168.837253 
L 330.567186 132.092553 
L 330.833005 93.716549 
L 332.162104 93.716549 
L 332.250711 68.59771 
L 332.339317 204.23944 
L 332.427924 201.225179 
L 332.693744 188.058889 
L 332.959564 165.307539 
L 333.225383 125.993205 
L 333.402596 84.933489 
L 333.491203 205.873018 
L 333.57981 203.185473 
L 333.845629 191.446276 
L 334.111449 171.160944 
L 334.377269 136.107889 
L 334.643089 99.498633 
L 335.086122 99.498633 
L 335.174728 207.329533 
L 335.263335 204.93329 
L 335.529155 194.466504 
L 335.794974 176.379898 
L 336.060794 145.126243 
L 336.415221 91.119926 
L 336.503827 206.491662 
L 336.592434 203.927845 
L 336.858253 192.729096 
L 337.124073 173.377656 
L 337.389893 139.938368 
L 337.567106 105.014523 
L 337.655713 207.881122 
L 337.744319 205.595197 
L 338.010139 195.610279 
L 338.275959 178.356341 
L 338.541779 148.541537 
L 338.807598 97.021554 
L 338.896205 207.081825 
L 338.984812 204.636041 
L 339.250631 193.952857 
L 339.516451 175.492316 
L 339.782271 143.592501 
L 340.048091 88.46962 
L 340.136697 206.226631 
L 340.225304 203.609809 
L 340.491124 192.179528 
L 340.756943 172.428003 
L 341.022763 138.297368 
L 341.288583 79.319631 
L 341.37719 205.311632 
L 341.465796 202.51181 
L 341.731616 190.282186 
L 341.997436 169.149397 
L 342.263255 132.631937 
L 342.529075 94.493262 
L 342.883502 94.493262 
L 342.972108 206.828995 
L 343.060715 204.332646 
L 343.326535 193.42859 
L 343.592354 174.586383 
L 343.858174 142.027049 
L 344.123994 85.764519 
L 344.2126 205.956121 
L 344.301207 203.285197 
L 344.567027 191.618598 
L 344.832847 171.458717 
L 345.098666 136.622441 
L 345.27588 100.239588 
L 345.364486 207.403628 
L 345.453093 205.022205 
L 345.718912 194.620149 
L 345.984732 176.645396 
L 346.250552 145.585023 
L 346.604978 91.912698 
L 346.693585 206.570939 
L 346.782192 204.022978 
L 347.048011 192.893485 
L 347.313831 173.66172 
L 347.579651 140.429231 
L 347.756864 105.721366 
L 347.845471 207.951806 
L 347.934077 205.680018 
L 348.199897 195.75685 
L 348.465717 178.609616 
L 348.731537 148.979195 
L 348.997356 97.777828 
L 349.085963 207.157452 
L 349.174569 204.726794 
L 349.440389 194.109678 
L 349.706209 175.763302 
L 349.972029 144.060765 
L 350.237849 89.278781 
L 350.326455 206.307547 
L 350.415062 203.706908 
L 350.680882 192.347316 
L 350.946701 172.71794 
L 351.212521 138.79838 
L 351.478341 80.185379 
L 351.566947 205.398207 
L 351.655554 202.6157 
L 351.921374 190.461708 
L 352.187194 169.45961 
L 352.453013 133.167985 
L 352.718833 95.265171 
L 354.225145 95.265171 
L 354.313752 206.906186 
L 354.402358 204.425275 
L 354.668178 193.588654 
L 354.933998 174.862972 
L 355.199818 142.504995 
L 355.465637 108.710465 
L 356.351703 108.710465 
L 356.44031 208.250716 
L 356.528916 206.03871 
L 356.794736 196.37667 
L 357.060556 179.680664 
L 357.149163 171.754648 
L 357.149163 171.754648 
" clip-path="url(#p2de5716fc6)" style="fill: none; stroke: #1f77b4; stroke-width: 1.5; stroke-linecap: square"/>
   </g>
   <g id="patch_3">
    <path d="M 37.567344 228.96 
L 37.567344 7.2 
" style="fill: none; stroke: #000000; stroke-width: 0.8; stroke-linejoin: miter; stroke-linecap: square"/>
   </g>
   <g id="patch_4">
    <path d="M 372.367344 228.96 
L 372.367344 7.2 
" style="fill: none; stroke: #000000; stroke-width: 0.8; stroke-linejoin: miter; stroke-linecap: square"/>
   </g>
   <g id="patch_5">
    <path d="M 37.567344 228.96 
L 372.367344 228.96 
" style="fill: none; stroke: #000000; stroke-width: 0.8; stroke-linejoin: miter; stroke-linecap: square"/>
   </g>
   <g id="patch_6">
    <path d="M 37.567344 7.2 
L 372.367344 7.2 
" style="fill: none; stroke: #000000; stroke-width: 0.8; stroke-linejoin: miter; stroke-linecap: square"/>
   </g>
   <g id="legend_1">
    <g id="patch_7">
     <path d="M 314.548024 29.420307 
L 365.367344 29.420307 
Q 367.367344 29.420307 367.367344 27.420307 
L 367.367344 14.2 
Q 367.367344 12.2 365.367344 12.2 
L 314.548024 12.2 
Q 312.548024 12.2 312.548024 14.2 
L 312.548024 27.420307 
Q 312.548024 29.420307 314.548024 29.420307 
z
" style="fill: #ffffff; opacity: 0.8; stroke: #cccccc; stroke-linejoin: miter"/>
    </g>
    <g id="line2d_15">
     <path d="M 316.548024 19.79832 
L 326.548024 19.79832 
L 336.548024 19.79832 
" style="fill: none; stroke: #1f77b4; stroke-width: 1.5; stroke-linecap: square"/>
    </g>
    <g id="text_16">
     <!-- CFL -->
     <g transform="translate(344.548024 23.29832) scale(0.1 -0.1)">
      <use xlink:href="#NimbusSanL-Regu-43" transform="scale(0.996264)"/>
      <use xlink:href="#NimbusSanL-Regu-46" transform="translate(71.929985 0) scale(0.996264)"/>
      <use xlink:href="#NimbusSanL-Regu-4c" transform="translate(132.801616 0) scale(0.996264)"/>
     </g>
    </g>
   </g>
  </g>
 </g>
 <defs>
  <clipPath id="p2de5716fc6">
   <rect x="37.567344" y="7.2" width="334.8" height="221.76"/>
  </clipPath>
 </defs>
</svg>
