<?xml version="1.0" encoding="utf-8" standalone="no"?>
<!DOCTYPE svg PUBLIC "-//W3C//DTD SVG 1.1//EN"
  "http://www.w3.org/Graphics/SVG/1.1/DTD/svg11.dtd">
<svg xmlns:xlink="http://www.w3.org/1999/xlink" width="379.567344pt" height="268.059498pt" viewBox="0 0 379.567344 268.059498" xmlns="http://www.w3.org/2000/svg" version="1.1">
 <metadata>
  <rdf:RDF xmlns:dc="http://purl.org/dc/elements/1.1/" xmlns:cc="http://creativecommons.org/ns#" xmlns:rdf="http://www.w3.org/1999/02/22-rdf-syntax-ns#">
   <cc:Work>
    <dc:type rdf:resource="http://purl.org/dc/dcmitype/StillImage"/>
    <dc:date>2025-07-17T19:59:53.806629</dc:date>
    <dc:format>image/svg+xml</dc:format>
    <dc:creator>
     <cc:Agent>
      <dc:title>Matplotlib v3.10.3, https://matplotlib.org/</dc:title>
     </cc:Agent>
    </dc:creator>
   </cc:Work>
  </rdf:RDF>
 </metadata>
 <defs>
  <style type="text/css">*{stroke-linejoin: round; stroke-linecap: butt}</style>
 </defs>
 <g id="figure_1">
  <g id="patch_1">
   <path d="M 0 268.059498 
L 379.567344 268.059498 
L 379.567344 0 
L 0 0 
z
" style="fill: #ffffff"/>
  </g>
  <g id="axes_1">
   <g id="patch_2">
    <path d="M 37.567344 231.418884 
L 372.367344 231.418884 
L 372.367344 9.658884 
L 37.567344 9.658884 
z
" style="fill: #ffffff"/>
   </g>
   <g id="matplotlib.axis_1">
    <g id="xtick_1">
     <g id="line2d_1">
      <defs>
       <path id="me8991ccf10" d="M 0 0 
L 0 3.5 
" style="stroke: #000000; stroke-width: 0.8"/>
      </defs>
      <g>
       <use xlink:href="#me8991ccf10" x="52.785526" y="231.418884" style="stroke: #000000; stroke-width: 0.8"/>
      </g>
     </g>
     <g id="text_1">
      <!-- $\mathdefault{0}$ -->
      <g transform="translate(50.294859 245.517204) scale(0.1 -0.1)">
       <defs>
        <path id="CMR17-30" d="M 2688 2038 
C 2688 2430 2682 3099 2413 3613 
C 2176 4063 1798 4224 1466 4224 
C 1158 4224 768 4082 525 3620 
C 269 3137 243 2539 243 2038 
C 243 1671 250 1112 448 623 
C 723 -39 1216 -128 1466 -128 
C 1760 -128 2208 -7 2470 604 
C 2662 1048 2688 1568 2688 2038 
z
M 1466 -26 
C 1056 -26 813 328 723 816 
C 653 1196 653 1749 653 2109 
C 653 2604 653 3015 736 3407 
C 858 3954 1216 4121 1466 4121 
C 1728 4121 2067 3947 2189 3420 
C 2272 3054 2278 2623 2278 2109 
C 2278 1691 2278 1176 2202 797 
C 2067 96 1690 -26 1466 -26 
z
" transform="scale(0.015625)"/>
       </defs>
       <use xlink:href="#CMR17-30" transform="scale(0.996264)"/>
      </g>
     </g>
    </g>
    <g id="xtick_2">
     <g id="line2d_2">
      <g>
       <use xlink:href="#me8991ccf10" x="95.413486" y="231.418884" style="stroke: #000000; stroke-width: 0.8"/>
      </g>
     </g>
     <g id="text_2">
      <!-- $\mathdefault{50}$ -->
      <g transform="translate(90.432151 245.517204) scale(0.1 -0.1)">
       <defs>
        <path id="CMR17-35" d="M 730 3750 
C 794 3724 1056 3641 1325 3641 
C 1920 3641 2246 3961 2432 4140 
C 2432 4191 2432 4224 2394 4224 
C 2387 4224 2374 4224 2323 4198 
C 2099 4102 1837 4032 1517 4032 
C 1325 4032 1037 4055 723 4191 
C 653 4224 640 4224 634 4224 
C 602 4224 595 4217 595 4090 
L 595 2231 
C 595 2113 595 2080 659 2080 
C 691 2080 704 2093 736 2139 
C 941 2435 1222 2560 1542 2560 
C 1766 2560 2246 2415 2246 1293 
C 2246 1087 2246 716 2054 422 
C 1894 159 1645 25 1370 25 
C 947 25 518 319 403 812 
C 429 806 480 793 506 793 
C 589 793 749 838 749 1036 
C 749 1209 627 1280 506 1280 
C 358 1280 262 1190 262 1011 
C 262 454 704 -128 1382 -128 
C 2042 -128 2669 441 2669 1267 
C 2669 2054 2170 2662 1549 2662 
C 1222 2662 947 2540 730 2304 
L 730 3750 
z
" transform="scale(0.015625)"/>
       </defs>
       <use xlink:href="#CMR17-35" transform="scale(0.996264)"/>
       <use xlink:href="#CMR17-30" transform="translate(45.690477 0) scale(0.996264)"/>
      </g>
     </g>
    </g>
    <g id="xtick_3">
     <g id="line2d_3">
      <g>
       <use xlink:href="#me8991ccf10" x="138.041447" y="231.418884" style="stroke: #000000; stroke-width: 0.8"/>
      </g>
     </g>
     <g id="text_3">
      <!-- $\mathdefault{100}$ -->
      <g transform="translate(130.569444 245.517204) scale(0.1 -0.1)">
       <defs>
        <path id="CMR17-31" d="M 1702 4083 
C 1702 4217 1696 4224 1606 4224 
C 1357 3927 979 3833 621 3820 
C 602 3820 570 3820 563 3808 
C 557 3795 557 3782 557 3648 
C 755 3648 1088 3686 1344 3839 
L 1344 467 
C 1344 243 1331 166 781 166 
L 589 166 
L 589 0 
C 896 6 1216 12 1523 12 
C 1830 12 2150 6 2458 0 
L 2458 166 
L 2266 166 
C 1715 166 1702 236 1702 467 
L 1702 4083 
z
" transform="scale(0.015625)"/>
       </defs>
       <use xlink:href="#CMR17-31" transform="scale(0.996264)"/>
       <use xlink:href="#CMR17-30" transform="translate(45.690477 0) scale(0.996264)"/>
       <use xlink:href="#CMR17-30" transform="translate(91.380954 0) scale(0.996264)"/>
      </g>
     </g>
    </g>
    <g id="xtick_4">
     <g id="line2d_4">
      <g>
       <use xlink:href="#me8991ccf10" x="180.669407" y="231.418884" style="stroke: #000000; stroke-width: 0.8"/>
      </g>
     </g>
     <g id="text_4">
      <!-- $\mathdefault{150}$ -->
      <g transform="translate(173.197404 245.517204) scale(0.1 -0.1)">
       <use xlink:href="#CMR17-31" transform="scale(0.996264)"/>
       <use xlink:href="#CMR17-35" transform="translate(45.690477 0) scale(0.996264)"/>
       <use xlink:href="#CMR17-30" transform="translate(91.380954 0) scale(0.996264)"/>
      </g>
     </g>
    </g>
    <g id="xtick_5">
     <g id="line2d_5">
      <g>
       <use xlink:href="#me8991ccf10" x="223.297367" y="231.418884" style="stroke: #000000; stroke-width: 0.8"/>
      </g>
     </g>
     <g id="text_5">
      <!-- $\mathdefault{200}$ -->
      <g transform="translate(215.825364 245.517204) scale(0.1 -0.1)">
       <defs>
        <path id="CMR17-32" d="M 2669 990 
L 2554 990 
C 2490 537 2438 460 2413 422 
C 2381 371 1920 371 1830 371 
L 602 371 
C 832 620 1280 1073 1824 1596 
C 2214 1966 2669 2400 2669 3033 
C 2669 3788 2067 4224 1395 4224 
C 691 4224 262 3603 262 3027 
C 262 2777 448 2745 525 2745 
C 589 2745 781 2783 781 3007 
C 781 3206 614 3264 525 3264 
C 486 3264 448 3257 422 3244 
C 544 3788 915 4057 1306 4057 
C 1862 4057 2227 3616 2227 3033 
C 2227 2477 1901 1998 1536 1583 
L 262 147 
L 262 0 
L 2515 0 
L 2669 990 
z
" transform="scale(0.015625)"/>
       </defs>
       <use xlink:href="#CMR17-32" transform="scale(0.996264)"/>
       <use xlink:href="#CMR17-30" transform="translate(45.690477 0) scale(0.996264)"/>
       <use xlink:href="#CMR17-30" transform="translate(91.380954 0) scale(0.996264)"/>
      </g>
     </g>
    </g>
    <g id="xtick_6">
     <g id="line2d_6">
      <g>
       <use xlink:href="#me8991ccf10" x="265.925328" y="231.418884" style="stroke: #000000; stroke-width: 0.8"/>
      </g>
     </g>
     <g id="text_6">
      <!-- $\mathdefault{250}$ -->
      <g transform="translate(258.453325 245.517204) scale(0.1 -0.1)">
       <use xlink:href="#CMR17-32" transform="scale(0.996264)"/>
       <use xlink:href="#CMR17-35" transform="translate(45.690477 0) scale(0.996264)"/>
       <use xlink:href="#CMR17-30" transform="translate(91.380954 0) scale(0.996264)"/>
      </g>
     </g>
    </g>
    <g id="xtick_7">
     <g id="line2d_7">
      <g>
       <use xlink:href="#me8991ccf10" x="308.553288" y="231.418884" style="stroke: #000000; stroke-width: 0.8"/>
      </g>
     </g>
     <g id="text_7">
      <!-- $\mathdefault{300}$ -->
      <g transform="translate(301.081285 245.517204) scale(0.1 -0.1)">
       <defs>
        <path id="CMR17-33" d="M 1414 2176 
C 1984 2176 2234 1673 2234 1094 
C 2234 322 1824 25 1453 25 
C 1114 25 563 193 390 691 
C 422 678 454 678 486 678 
C 640 678 755 780 755 947 
C 755 1132 614 1216 486 1216 
C 378 1216 211 1164 211 927 
C 211 335 787 -128 1466 -128 
C 2176 -128 2720 432 2720 1087 
C 2720 1718 2208 2176 1600 2246 
C 2086 2347 2554 2776 2554 3353 
C 2554 3856 2048 4224 1472 4224 
C 890 4224 378 3862 378 3347 
C 378 3123 544 3084 627 3084 
C 762 3084 877 3167 877 3334 
C 877 3500 762 3584 627 3584 
C 602 3584 570 3584 544 3571 
C 730 3999 1235 4076 1459 4076 
C 1683 4076 2106 3966 2106 3347 
C 2106 3167 2080 2851 1862 2574 
C 1670 2329 1453 2316 1242 2297 
C 1210 2297 1062 2284 1037 2284 
C 992 2278 966 2272 966 2227 
C 966 2182 973 2176 1101 2176 
L 1414 2176 
z
" transform="scale(0.015625)"/>
       </defs>
       <use xlink:href="#CMR17-33" transform="scale(0.996264)"/>
       <use xlink:href="#CMR17-30" transform="translate(45.690477 0) scale(0.996264)"/>
       <use xlink:href="#CMR17-30" transform="translate(91.380954 0) scale(0.996264)"/>
      </g>
     </g>
    </g>
    <g id="xtick_8">
     <g id="line2d_8">
      <g>
       <use xlink:href="#me8991ccf10" x="351.181248" y="231.418884" style="stroke: #000000; stroke-width: 0.8"/>
      </g>
     </g>
     <g id="text_8">
      <!-- $\mathdefault{350}$ -->
      <g transform="translate(343.709245 245.517204) scale(0.1 -0.1)">
       <use xlink:href="#CMR17-33" transform="scale(0.996264)"/>
       <use xlink:href="#CMR17-35" transform="translate(45.690477 0) scale(0.996264)"/>
       <use xlink:href="#CMR17-30" transform="translate(91.380954 0) scale(0.996264)"/>
      </g>
     </g>
    </g>
    <g id="text_9">
     <!-- Iteration -->
     <g transform="translate(187.019968 258.737511) scale(0.1 -0.1)">
      <defs>
       <path id="NimbusSanL-Regu-49" d="M 1242 4672 
L 640 4672 
L 640 0 
L 1242 0 
L 1242 4672 
z
" transform="scale(0.015625)"/>
       <path id="NimbusSanL-Regu-74" d="M 1626 3328 
L 1075 3328 
L 1075 4249 
L 544 4249 
L 544 3328 
L 90 3328 
L 90 2892 
L 544 2892 
L 544 402 
C 544 64 774 -128 1190 -128 
C 1318 -128 1446 -116 1626 -84 
L 1626 364 
C 1555 345 1472 339 1370 339 
C 1139 339 1075 402 1075 634 
L 1075 2892 
L 1626 2892 
L 1626 3328 
z
" transform="scale(0.015625)"/>
       <path id="NimbusSanL-Regu-65" d="M 3283 1484 
C 3283 1998 3245 2311 3149 2565 
C 2931 3123 2419 3456 1792 3456 
C 858 3456 256 2734 256 1619 
C 256 545 838 -128 1779 -128 
C 2547 -128 3078 307 3213 1018 
L 2675 1018 
C 2528 588 2227 364 1798 364 
C 1459 364 1171 514 992 787 
C 864 974 819 1161 813 1484 
L 3283 1484 
z
M 826 1920 
C 870 2552 1248 2963 1786 2963 
C 2310 2963 2714 2519 2714 1959 
C 2714 1946 2714 1933 2707 1920 
L 826 1920 
z
" transform="scale(0.015625)"/>
       <path id="NimbusSanL-Regu-72" d="M 442 3328 
L 442 0 
L 979 0 
L 979 1727 
C 979 2203 1101 2514 1357 2698 
C 1523 2819 1683 2857 2054 2863 
L 2054 3404 
C 1965 3449 1920 3456 1850 3456 
C 1504 3456 1242 3251 934 2750 
L 934 3328 
L 442 3328 
z
" transform="scale(0.015625)"/>
       <path id="NimbusSanL-Regu-61" d="M 3424 332 
C 3366 320 3341 320 3309 320 
C 3123 320 3021 415 3021 581 
L 3021 2542 
C 3021 3135 2586 3456 1760 3456 
C 1274 3456 870 3315 646 3065 
C 493 2893 429 2702 416 2370 
L 954 2370 
C 998 2778 1242 2963 1741 2963 
C 2221 2963 2490 2784 2490 2466 
L 2490 2326 
C 2490 2103 2355 2007 1933 1956 
C 1178 1861 1062 1835 858 1753 
C 467 1593 269 1294 269 861 
C 269 256 691 -128 1370 -128 
C 1792 -128 2131 19 2509 364 
C 2547 25 2714 -128 3059 -128 
C 3168 -128 3251 -116 3424 -71 
L 3424 332 
z
M 2490 1071 
C 2490 893 2438 785 2278 638 
C 2061 441 1798 339 1485 339 
C 1069 339 826 536 826 874 
C 826 1224 1062 1402 1632 1485 
C 2195 1562 2310 1587 2490 1670 
L 2490 1071 
z
" transform="scale(0.015625)"/>
       <path id="NimbusSanL-Regu-69" d="M 960 3358 
L 429 3358 
L 429 0 
L 960 0 
L 960 3358 
z
M 960 4672 
L 422 4672 
L 422 3999 
L 960 3999 
L 960 4672 
z
" transform="scale(0.015625)"/>
       <path id="NimbusSanL-Regu-6f" d="M 1741 3456 
C 800 3456 230 2784 230 1663 
C 230 543 794 -128 1747 -128 
C 2688 -128 3264 543 3264 1638 
C 3264 2791 2707 3456 1741 3456 
z
M 1747 2963 
C 2349 2963 2707 2472 2707 1644 
C 2707 861 2336 364 1747 364 
C 1152 364 787 855 787 1663 
C 787 2466 1152 2963 1747 2963 
z
" transform="scale(0.015625)"/>
       <path id="NimbusSanL-Regu-6e" d="M 448 3328 
L 448 0 
L 986 0 
L 986 1835 
C 986 2539 1344 2988 1894 2988 
C 2317 2988 2586 2732 2586 2328 
L 2586 0 
L 3117 0 
L 3117 2539 
C 3117 3097 2701 3456 2054 3456 
C 1555 3456 1235 3263 941 2796 
L 941 3328 
L 448 3328 
z
" transform="scale(0.015625)"/>
      </defs>
      <use xlink:href="#NimbusSanL-Regu-49" transform="scale(0.996264)"/>
      <use xlink:href="#NimbusSanL-Regu-74" transform="translate(27.69517 0) scale(0.996264)"/>
      <use xlink:href="#NimbusSanL-Regu-65" transform="translate(55.390339 0) scale(0.996264)"/>
      <use xlink:href="#NimbusSanL-Regu-72" transform="translate(110.782016 0) scale(0.996264)"/>
      <use xlink:href="#NimbusSanL-Regu-61" transform="translate(142.961149 0) scale(0.996264)"/>
      <use xlink:href="#NimbusSanL-Regu-74" transform="translate(198.352826 0) scale(0.996264)"/>
      <use xlink:href="#NimbusSanL-Regu-69" transform="translate(226.047996 0) scale(0.996264)"/>
      <use xlink:href="#NimbusSanL-Regu-6f" transform="translate(248.16478 0) scale(0.996264)"/>
      <use xlink:href="#NimbusSanL-Regu-6e" transform="translate(303.556457 0) scale(0.996264)"/>
     </g>
    </g>
   </g>
   <g id="matplotlib.axis_2">
    <g id="ytick_1">
     <g id="line2d_9">
      <defs>
       <path id="md6947233ac" d="M 0 0 
L -3.5 0 
" style="stroke: #000000; stroke-width: 0.8"/>
      </defs>
      <g>
       <use xlink:href="#md6947233ac" x="37.567344" y="222.043198" style="stroke: #000000; stroke-width: 0.8"/>
      </g>
     </g>
     <g id="text_10">
      <!-- $\mathdefault{0}$ -->
      <g transform="translate(25.586009 225.592358) scale(0.1 -0.1)">
       <use xlink:href="#CMR17-30" transform="scale(0.996264)"/>
      </g>
     </g>
    </g>
    <g id="ytick_2">
     <g id="line2d_10">
      <g>
       <use xlink:href="#md6947233ac" x="37.567344" y="186.827525" style="stroke: #000000; stroke-width: 0.8"/>
      </g>
     </g>
     <g id="text_11">
      <!-- $\mathdefault{5}$ -->
      <g transform="translate(25.586009 190.376685) scale(0.1 -0.1)">
       <use xlink:href="#CMR17-35" transform="scale(0.996264)"/>
      </g>
     </g>
    </g>
    <g id="ytick_3">
     <g id="line2d_11">
      <g>
       <use xlink:href="#md6947233ac" x="37.567344" y="151.611852" style="stroke: #000000; stroke-width: 0.8"/>
      </g>
     </g>
     <g id="text_12">
      <!-- $\mathdefault{10}$ -->
      <g transform="translate(20.604674 155.161012) scale(0.1 -0.1)">
       <use xlink:href="#CMR17-31" transform="scale(0.996264)"/>
       <use xlink:href="#CMR17-30" transform="translate(45.690477 0) scale(0.996264)"/>
      </g>
     </g>
    </g>
    <g id="ytick_4">
     <g id="line2d_12">
      <g>
       <use xlink:href="#md6947233ac" x="37.567344" y="116.396179" style="stroke: #000000; stroke-width: 0.8"/>
      </g>
     </g>
     <g id="text_13">
      <!-- $\mathdefault{15}$ -->
      <g transform="translate(20.604674 119.945339) scale(0.1 -0.1)">
       <use xlink:href="#CMR17-31" transform="scale(0.996264)"/>
       <use xlink:href="#CMR17-35" transform="translate(45.690477 0) scale(0.996264)"/>
      </g>
     </g>
    </g>
    <g id="ytick_5">
     <g id="line2d_13">
      <g>
       <use xlink:href="#md6947233ac" x="37.567344" y="81.180506" style="stroke: #000000; stroke-width: 0.8"/>
      </g>
     </g>
     <g id="text_14">
      <!-- $\mathdefault{20}$ -->
      <g transform="translate(20.604674 84.729666) scale(0.1 -0.1)">
       <use xlink:href="#CMR17-32" transform="scale(0.996264)"/>
       <use xlink:href="#CMR17-30" transform="translate(45.690477 0) scale(0.996264)"/>
      </g>
     </g>
    </g>
    <g id="ytick_6">
     <g id="line2d_14">
      <g>
       <use xlink:href="#md6947233ac" x="37.567344" y="45.964833" style="stroke: #000000; stroke-width: 0.8"/>
      </g>
     </g>
     <g id="text_15">
      <!-- $\mathdefault{25}$ -->
      <g transform="translate(20.604674 49.513993) scale(0.1 -0.1)">
       <use xlink:href="#CMR17-32" transform="scale(0.996264)"/>
       <use xlink:href="#CMR17-35" transform="translate(45.690477 0) scale(0.996264)"/>
      </g>
     </g>
    </g>
    <g id="ytick_7">
     <g id="line2d_15">
      <g>
       <use xlink:href="#md6947233ac" x="37.567344" y="10.74916" style="stroke: #000000; stroke-width: 0.8"/>
      </g>
     </g>
     <g id="text_16">
      <!-- $\mathdefault{30}$ -->
      <g transform="translate(20.604674 14.29832) scale(0.1 -0.1)">
       <use xlink:href="#CMR17-33" transform="scale(0.996264)"/>
       <use xlink:href="#CMR17-30" transform="translate(45.690477 0) scale(0.996264)"/>
      </g>
     </g>
    </g>
    <g id="text_17">
     <!-- Average CFL - Blade_17 -->
     <g transform="translate(14.482687 174.007787) rotate(-90) scale(0.1 -0.1)">
      <defs>
       <path id="NimbusSanL-Regu-41" d="M 3034 1408 
L 3514 0 
L 4179 0 
L 2541 4672 
L 1773 4672 
L 109 0 
L 742 0 
L 1235 1408 
L 3034 1408 
z
M 2867 1907 
L 1382 1907 
L 2150 4032 
L 2867 1907 
z
" transform="scale(0.015625)"/>
       <path id="NimbusSanL-Regu-76" d="M 1824 0 
L 3110 3328 
L 2509 3328 
L 1562 629 
L 666 3328 
L 64 3328 
L 1242 0 
L 1824 0 
z
" transform="scale(0.015625)"/>
       <path id="NimbusSanL-Regu-67" d="M 2637 3359 
L 2637 2873 
C 2368 3270 2042 3456 1613 3456 
C 762 3456 186 2714 186 1632 
C 186 1084 333 638 608 320 
C 858 38 1216 -128 1568 -128 
C 1990 -128 2285 51 2586 473 
L 2586 300 
C 2586 -155 2528 -441 2394 -634 
C 2253 -841 1978 -960 1651 -960 
C 1408 -960 1190 -894 1043 -774 
C 922 -674 870 -581 838 -375 
L 294 -375 
C 352 -1031 845 -1408 1632 -1408 
C 2131 -1408 2560 -1248 2778 -980 
C 3034 -661 3130 -222 3130 568 
L 3130 3359 
L 2637 3359 
z
M 1670 2963 
C 2246 2963 2586 2479 2586 1644 
C 2586 848 2240 364 1677 364 
C 1094 364 742 855 742 1663 
C 742 2466 1101 2963 1670 2963 
z
" transform="scale(0.015625)"/>
       <path id="NimbusSanL-Regu-43" d="M 4237 3219 
C 4051 4236 3462 4736 2438 4736 
C 1811 4736 1306 4537 960 4154 
C 538 3696 307 3035 307 2284 
C 307 1522 544 867 986 415 
C 1344 44 1805 -128 2413 -128 
C 3552 -128 4192 485 4333 1712 
L 3718 1712 
C 3667 1394 3603 1178 3507 994 
C 3315 612 2918 396 2419 396 
C 1491 396 902 1134 902 2291 
C 902 3480 1466 4211 2368 4211 
C 2746 4211 3098 4096 3290 3918 
C 3462 3759 3558 3562 3629 3219 
L 4237 3219 
z
" transform="scale(0.015625)"/>
       <path id="NimbusSanL-Regu-46" d="M 1171 2112 
L 3398 2112 
L 3398 2636 
L 1171 2636 
L 1171 4147 
L 3706 4147 
L 3706 4672 
L 576 4672 
L 576 0 
L 1171 0 
L 1171 2112 
z
" transform="scale(0.015625)"/>
       <path id="NimbusSanL-Regu-4c" d="M 1107 4672 
L 512 4672 
L 512 0 
L 3411 0 
L 3411 524 
L 1107 524 
L 1107 4672 
z
" transform="scale(0.015625)"/>
       <path id="NimbusSanL-Regu-2d" d="M 1818 1996 
L 294 1996 
L 294 1536 
L 1818 1536 
L 1818 1996 
z
" transform="scale(0.015625)"/>
       <path id="NimbusSanL-Regu-42" d="M 506 0 
L 2611 0 
C 3053 0 3379 121 3629 390 
C 3859 632 3987 961 3987 1321 
C 3987 1878 3731 2214 3136 2444 
C 3558 2643 3782 2994 3782 3476 
C 3782 3821 3654 4127 3411 4345 
C 3168 4569 2848 4672 2400 4672 
L 506 4672 
L 506 0 
z
M 1101 2636 
L 1101 4147 
L 2253 4147 
C 2586 4147 2771 4101 2931 3977 
C 3098 3847 3187 3652 3187 3391 
C 3187 3138 3098 2936 2931 2806 
C 2771 2682 2586 2636 2253 2636 
L 1101 2636 
z
M 1101 524 
L 1101 2112 
L 2554 2112 
C 2842 2112 3034 2042 3174 1890 
C 3315 1745 3392 1542 3392 1315 
C 3392 1093 3315 891 3174 746 
C 3034 594 2842 524 2554 524 
L 1101 524 
z
" transform="scale(0.015625)"/>
       <path id="NimbusSanL-Regu-6c" d="M 973 4672 
L 435 4672 
L 435 0 
L 973 0 
L 973 4672 
z
" transform="scale(0.015625)"/>
       <path id="NimbusSanL-Regu-64" d="M 3168 4672 
L 2637 4672 
L 2637 2937 
C 2413 3276 2054 3456 1606 3456 
C 736 3456 166 2759 166 1695 
C 166 568 723 -128 1626 -128 
C 2086 -128 2406 44 2694 460 
L 2694 19 
L 3168 19 
L 3168 4672 
z
M 1696 2956 
C 2272 2956 2637 2447 2637 1651 
C 2637 880 2266 371 1702 371 
C 1114 371 723 887 723 1663 
C 723 2440 1114 2956 1696 2956 
z
" transform="scale(0.015625)"/>
       <path id="NimbusSanL-Regu-31" d="M 1658 3232 
L 1658 0 
L 2221 0 
L 2221 4537 
L 1850 4537 
C 1651 3840 1523 3744 653 3635 
L 653 3232 
L 1658 3232 
z
" transform="scale(0.015625)"/>
       <path id="NimbusSanL-Regu-37" d="M 3328 4544 
L 294 4544 
L 294 3987 
L 2746 3987 
C 1664 2442 1222 1493 883 0 
L 1485 0 
C 1734 1454 2304 2704 3328 4070 
L 3328 4544 
z
" transform="scale(0.015625)"/>
      </defs>
      <use xlink:href="#NimbusSanL-Regu-41" transform="scale(0.996264)"/>
      <use xlink:href="#NimbusSanL-Regu-76" transform="translate(62.465918 0) scale(0.996264)"/>
      <use xlink:href="#NimbusSanL-Regu-65" transform="translate(109.788488 0) scale(0.996264)"/>
      <use xlink:href="#NimbusSanL-Regu-72" transform="translate(165.180165 0) scale(0.996264)"/>
      <use xlink:href="#NimbusSanL-Regu-61" transform="translate(197.359298 0) scale(0.996264)"/>
      <use xlink:href="#NimbusSanL-Regu-67" transform="translate(252.750975 0) scale(0.996264)"/>
      <use xlink:href="#NimbusSanL-Regu-65" transform="translate(308.142652 0) scale(0.996264)"/>
      <use xlink:href="#NimbusSanL-Regu-43" transform="translate(391.229499 0) scale(0.996264)"/>
      <use xlink:href="#NimbusSanL-Regu-46" transform="translate(463.159484 0) scale(0.996264)"/>
      <use xlink:href="#NimbusSanL-Regu-4c" transform="translate(524.031114 0) scale(0.996264)"/>
      <use xlink:href="#NimbusSanL-Regu-2d" transform="translate(607.117961 0) scale(0.996264)"/>
      <use xlink:href="#NimbusSanL-Regu-42" transform="translate(667.98836 0) scale(0.996264)"/>
      <use xlink:href="#NimbusSanL-Regu-6c" transform="translate(734.438391 0) scale(0.996264)"/>
      <use xlink:href="#NimbusSanL-Regu-61" transform="translate(756.555176 0) scale(0.996264)"/>
      <use xlink:href="#NimbusSanL-Regu-64" transform="translate(811.946853 0) scale(0.996264)"/>
      <use xlink:href="#NimbusSanL-Regu-65" transform="translate(867.33853 0) scale(0.996264)"/>
      <use xlink:href="#NimbusSanL-Regu-31" transform="translate(958.595772 0) scale(0.996264)"/>
      <use xlink:href="#NimbusSanL-Regu-37" transform="translate(1013.987449 0) scale(0.996264)"/>
      <path d="M 928.707548 0 
L 958.595772 0 
L 958.595772 0.3985 
L 928.707548 0.3985 
L 928.707548 0 
z
"/>
     </g>
    </g>
   </g>
   <g id="line2d_16">
    <path d="M 52.785526 121.561482 
L 53.638085 102.218608 
L 54.490645 78.790555 
L 55.343204 207.717933 
L 56.195763 204.852881 
L 57.048322 201.414817 
L 57.900881 197.289141 
L 58.753441 192.33833 
L 59.606 186.397356 
L 60.458559 179.268188 
L 61.311118 170.713186 
L 62.163677 160.447183 
L 63.016237 148.127981 
L 63.868796 133.344937 
L 64.721355 115.605285 
L 65.573914 94.317703 
L 66.426473 68.80106 
L 68.131592 68.80106 
L 68.984151 206.718984 
L 69.83671 203.654141 
L 70.68927 199.97633 
L 71.541829 195.562956 
L 72.394388 190.266908 
L 73.246947 183.91165 
L 74.099506 176.28534 
L 74.952066 167.133769 
L 75.804625 156.151883 
L 76.657184 142.97362 
L 77.509743 127.159705 
L 78.362302 108.183006 
L 79.214862 85.410968 
L 80.067421 58.114968 
L 80.91998 25.411734 
L 81.772539 202.380051 
L 82.625098 198.447422 
L 83.477658 193.728267 
L 84.330217 188.065281 
L 85.182776 181.269697 
L 86.035335 173.114997 
L 86.887894 163.329357 
L 87.740454 151.586589 
L 88.593013 137.495267 
L 89.445572 120.585681 
L 90.298131 100.294692 
L 91.15069 75.970389 
L 92.00325 46.922621 
L 92.855809 204.53114 
L 93.708368 201.028729 
L 94.560927 196.825835 
L 95.413486 191.782362 
L 96.266046 185.730195 
L 97.118605 178.467779 
L 97.971164 169.753671 
L 98.823723 159.297733 
L 99.676283 146.751687 
L 100.528842 131.699817 
L 101.381401 113.651474 
L 102.23396 92.060741 
L 103.086519 66.267899 
L 103.939079 35.441608 
L 104.791638 203.383039 
L 105.644197 199.651007 
L 106.496756 195.172569 
L 107.349315 189.798443 
L 108.201875 183.349492 
L 109.054434 175.611659 
L 109.906993 166.329918 
L 110.759552 155.198489 
L 111.612111 141.856432 
L 112.464671 125.860243 
L 113.31723 106.696022 
L 114.169789 83.746022 
L 115.022348 56.264047 
L 115.874907 205.465283 
L 116.727467 202.1497 
L 117.580026 198.171 
L 118.432585 193.396561 
L 119.285144 187.667233 
L 120.137703 180.79204 
L 120.990263 172.542058 
L 121.842822 162.644803 
L 122.695381 150.774266 
L 123.54794 136.550658 
L 124.400499 119.493088 
L 125.253059 99.032464 
L 126.105618 74.486949 
L 126.958177 207.287573 
L 127.810736 204.336448 
L 128.663295 200.795098 
L 129.515855 196.545478 
L 130.368414 191.445934 
L 131.220973 185.326481 
L 132.073532 177.983203 
L 132.926092 169.172022 
L 133.778651 158.599618 
L 134.63121 145.922099 
L 135.483769 130.716893 
L 136.336328 112.472912 
L 137.188888 90.585092 
L 138.041447 64.322445 
L 138.894006 32.813466 
L 139.746565 203.120225 
L 140.599124 199.33563 
L 141.451684 194.794116 
L 142.304243 189.3443 
L 143.156802 182.804521 
L 144.009361 174.956785 
L 144.86192 165.540066 
L 145.71448 154.240916 
L 146.567039 140.683206 
L 147.419598 124.421791 
L 148.272157 104.913331 
L 149.124716 81.508473 
L 149.977276 53.426962 
L 150.829835 19.738884 
L 151.682394 201.812766 
L 152.534953 197.76668 
L 153.387512 192.911377 
L 154.240072 187.085012 
L 155.092631 180.093375 
L 155.94519 171.70359 
L 156.797749 161.637224 
L 157.650308 221.338884 
L 160.207986 220.826144 
L 161.913105 220.29064 
L 163.618223 219.519515 
L 165.323341 218.409095 
L 167.02846 216.81009 
L 167.881019 215.763468 
L 168.733578 214.507522 
L 169.586137 213.000387 
L 170.438697 211.191825 
L 171.291256 209.02155 
L 172.143815 206.417221 
L 172.996374 203.292026 
L 173.848933 199.541791 
L 174.701493 195.04151 
L 175.554052 189.641642 
L 176.406611 183.163892 
L 177.25917 175.391703 
L 178.111729 166.067091 
L 178.964289 154.879581 
L 179.816848 141.459543 
L 180.669407 125.358296 
L 181.521966 221.338884 
L 184.079644 220.826144 
L 185.784762 220.29064 
L 187.489881 219.519515 
L 189.194999 218.409095 
L 190.900117 216.81009 
L 191.752677 215.763468 
L 192.605236 214.507522 
L 193.457795 213.000387 
L 194.310354 211.191825 
L 195.162914 209.02155 
L 196.015473 206.417221 
L 196.868032 203.292026 
L 197.720591 199.542024 
L 198.57315 195.043252 
L 199.42571 189.645347 
L 200.278269 183.169502 
L 201.130828 175.399372 
L 201.983387 166.077157 
L 202.835946 154.892596 
L 203.688506 141.475885 
L 204.541065 125.382493 
L 205.393624 106.080784 
L 206.246183 82.934836 
L 207.098742 55.22918 
L 207.951302 55.22918 
L 208.803861 205.361796 
L 209.65642 202.025516 
L 210.508979 198.021979 
L 211.361538 193.217735 
L 212.214098 187.452643 
L 213.066657 180.535251 
L 213.919216 172.237082 
L 214.771775 162.282048 
L 215.624334 150.345618 
L 216.476894 136.030085 
L 217.329453 118.858055 
L 218.182012 98.266764 
L 219.034571 73.56278 
L 219.88713 207.195156 
L 220.73969 204.225578 
L 221.592249 200.662085 
L 222.444808 196.385894 
L 223.297367 191.254464 
L 224.149927 185.096901 
L 225.002486 177.707842 
L 225.855045 168.841678 
L 226.707604 158.203379 
L 227.560163 145.437344 
L 228.412723 130.118032 
L 229.265282 111.734889 
L 230.117841 89.677109 
L 230.9704 63.242259 
L 231.822959 221.338884 
L 234.380637 220.826144 
L 236.085755 220.29064 
L 237.790874 219.519515 
L 239.495992 218.409095 
L 241.201111 216.81009 
L 242.05367 215.763468 
L 242.906229 214.507522 
L 243.758788 213.000387 
L 244.611347 211.191825 
L 245.463907 209.02155 
L 246.316466 206.417221 
L 247.169025 203.292026 
L 248.021584 199.541791 
L 248.874143 195.04151 
L 249.726703 189.641173 
L 250.579262 183.160768 
L 251.431821 175.384282 
L 252.28438 166.052498 
L 253.136939 154.854358 
L 253.989499 141.417258 
L 254.842058 125.296675 
L 255.694617 105.964069 
L 256.547176 210.435285 
L 257.399736 208.113702 
L 258.252295 205.327827 
L 259.104854 201.984777 
L 259.957413 197.973117 
L 260.809972 193.159125 
L 261.662532 187.382334 
L 262.515091 180.450186 
L 263.36765 172.131607 
L 264.220209 162.149313 
L 265.072768 150.171453 
L 265.925328 135.802245 
L 266.777887 118.57637 
L 267.630446 211.696515 
L 268.483005 209.627178 
L 269.335564 207.143974 
L 270.188124 204.16413 
L 271.040683 200.588316 
L 271.893242 196.29734 
L 272.745801 191.148168 
L 273.59836 184.969393 
L 274.45092 177.555138 
L 275.303479 168.657941 
L 276.156038 157.981589 
L 277.008597 145.178277 
L 277.861156 221.338884 
L 280.418834 220.826144 
L 282.123952 220.29064 
L 283.829071 219.519515 
L 285.534189 218.409095 
L 287.239308 216.81009 
L 288.091867 215.763468 
L 288.944426 214.507522 
L 289.796985 213.000387 
L 290.649545 211.191825 
L 291.502104 209.02155 
L 292.354663 206.417221 
L 293.207222 203.292026 
L 294.059781 199.541791 
L 294.912341 195.041566 
L 295.7649 189.641642 
L 296.617459 183.16298 
L 297.470018 175.390815 
L 298.322577 166.068427 
L 299.175137 154.893481 
L 300.027696 141.511972 
L 300.880255 213.990075 
L 301.732814 212.379451 
L 302.585373 210.446701 
L 303.437933 208.127402 
L 304.290492 205.344243 
L 305.143051 202.004452 
L 305.99561 197.996703 
L 306.848169 193.187702 
L 307.700729 187.418076 
L 308.553288 180.495144 
L 309.405847 172.190799 
L 310.258406 162.234202 
L 311.110965 150.301179 
L 311.963525 214.868996 
L 312.816084 213.434155 
L 313.668643 211.712347 
L 314.521202 209.646215 
L 315.373761 207.166818 
L 316.226321 204.191543 
L 317.07888 200.621212 
L 317.931439 196.336814 
L 318.783998 191.196369 
L 319.636558 185.028186 
L 320.489117 177.627524 
L 321.341676 168.752126 
L 322.194235 158.112767 
L 323.046794 145.358916 
L 323.899354 221.338884 
L 326.457031 220.826144 
L 328.16215 220.29064 
L 329.867268 219.519515 
L 331.572386 218.409095 
L 333.277505 216.81009 
L 334.130064 215.763468 
L 334.982623 214.507522 
L 335.835182 213.000406 
L 336.687742 211.191847 
L 337.540301 209.021577 
L 338.39286 206.417253 
L 339.245419 203.292065 
L 340.097978 199.541877 
L 340.950538 195.041724 
L 341.803097 189.642078 
L 342.655656 183.163331 
L 343.508215 175.392556 
L 344.360774 166.077051 
L 345.213334 154.916475 
L 346.065893 215.330525 
L 346.918452 213.987991 
L 347.771011 212.37695 
L 348.623571 210.4437 
L 349.47613 208.123814 
L 350.328689 205.339938 
L 351.181248 201.999286 
L 352.033807 197.990523 
L 352.886367 193.179988 
L 353.738926 187.407741 
L 354.591485 180.483774 
L 355.444044 172.185684 
L 356.296603 162.252662 
L 357.149163 150.409916 
L 357.149163 150.409916 
" clip-path="url(#p2a218fc94e)" style="fill: none; stroke: #1f77b4; stroke-width: 1.5; stroke-linecap: square"/>
   </g>
   <g id="patch_3">
    <path d="M 37.567344 231.418884 
L 37.567344 9.658884 
" style="fill: none; stroke: #000000; stroke-width: 0.8; stroke-linejoin: miter; stroke-linecap: square"/>
   </g>
   <g id="patch_4">
    <path d="M 372.367344 231.418884 
L 372.367344 9.658884 
" style="fill: none; stroke: #000000; stroke-width: 0.8; stroke-linejoin: miter; stroke-linecap: square"/>
   </g>
   <g id="patch_5">
    <path d="M 37.567344 231.418884 
L 372.367344 231.418884 
" style="fill: none; stroke: #000000; stroke-width: 0.8; stroke-linejoin: miter; stroke-linecap: square"/>
   </g>
   <g id="patch_6">
    <path d="M 37.567344 9.658884 
L 372.367344 9.658884 
" style="fill: none; stroke: #000000; stroke-width: 0.8; stroke-linejoin: miter; stroke-linecap: square"/>
   </g>
   <g id="legend_1">
    <g id="patch_7">
     <path d="M 314.548024 31.879191 
L 365.367344 31.879191 
Q 367.367344 31.879191 367.367344 29.879191 
L 367.367344 16.658884 
Q 367.367344 14.658884 365.367344 14.658884 
L 314.548024 14.658884 
Q 312.548024 14.658884 312.548024 16.658884 
L 312.548024 29.879191 
Q 312.548024 31.879191 314.548024 31.879191 
z
" style="fill: #ffffff; opacity: 0.8; stroke: #cccccc; stroke-linejoin: miter"/>
    </g>
    <g id="line2d_17">
     <path d="M 316.548024 22.257204 
L 326.548024 22.257204 
L 336.548024 22.257204 
" style="fill: none; stroke: #1f77b4; stroke-width: 1.5; stroke-linecap: square"/>
    </g>
    <g id="text_18">
     <!-- CFL -->
     <g transform="translate(344.548024 25.757204) scale(0.1 -0.1)">
      <use xlink:href="#NimbusSanL-Regu-43" transform="scale(0.996264)"/>
      <use xlink:href="#NimbusSanL-Regu-46" transform="translate(71.929985 0) scale(0.996264)"/>
      <use xlink:href="#NimbusSanL-Regu-4c" transform="translate(132.801616 0) scale(0.996264)"/>
     </g>
    </g>
   </g>
  </g>
 </g>
 <defs>
  <clipPath id="p2a218fc94e">
   <rect x="37.567344" y="9.658884" width="334.8" height="221.76"/>
  </clipPath>
 </defs>
</svg>
