<?xml version="1.0" encoding="utf-8" standalone="no"?>
<!DOCTYPE svg PUBLIC "-//W3C//DTD SVG 1.1//EN"
  "http://www.w3.org/Graphics/SVG/1.1/DTD/svg11.dtd">
<svg xmlns:xlink="http://www.w3.org/1999/xlink" width="382.342906pt" height="265.600613pt" viewBox="0 0 382.342906 265.600613" xmlns="http://www.w3.org/2000/svg" version="1.1">
 <metadata>
  <rdf:RDF xmlns:dc="http://purl.org/dc/elements/1.1/" xmlns:cc="http://creativecommons.org/ns#" xmlns:rdf="http://www.w3.org/1999/02/22-rdf-syntax-ns#">
   <cc:Work>
    <dc:type rdf:resource="http://purl.org/dc/dcmitype/StillImage"/>
    <dc:date>2025-07-17T13:05:45.165839</dc:date>
    <dc:format>image/svg+xml</dc:format>
    <dc:creator>
     <cc:Agent>
      <dc:title>Matplotlib v3.10.3, https://matplotlib.org/</dc:title>
     </cc:Agent>
    </dc:creator>
   </cc:Work>
  </rdf:RDF>
 </metadata>
 <defs>
  <style type="text/css">*{stroke-linejoin: round; stroke-linecap: butt}</style>
 </defs>
 <g id="figure_1">
  <g id="patch_1">
   <path d="M 0 265.600613 
L 382.342906 265.600613 
L 382.342906 0 
L 0 0 
z
" style="fill: #ffffff"/>
  </g>
  <g id="axes_1">
   <g id="patch_2">
    <path d="M 40.334753 228.96 
L 375.134753 228.96 
L 375.134753 7.2 
L 40.334753 7.2 
z
" style="fill: #ffffff"/>
   </g>
   <g id="matplotlib.axis_1">
    <g id="xtick_1">
     <g id="line2d_1">
      <defs>
       <path id="mab45043450" d="M 0 0 
L 0 3.5 
" style="stroke: #000000; stroke-width: 0.8"/>
      </defs>
      <g>
       <use xlink:href="#mab45043450" x="55.552935" y="228.96" style="stroke: #000000; stroke-width: 0.8"/>
      </g>
     </g>
     <g id="text_1">
      <!-- $\mathdefault{0}$ -->
      <g transform="translate(53.062267 243.05832) scale(0.1 -0.1)">
       <defs>
        <path id="CMR17-30" d="M 2688 2038 
C 2688 2430 2682 3099 2413 3613 
C 2176 4063 1798 4224 1466 4224 
C 1158 4224 768 4082 525 3620 
C 269 3137 243 2539 243 2038 
C 243 1671 250 1112 448 623 
C 723 -39 1216 -128 1466 -128 
C 1760 -128 2208 -7 2470 604 
C 2662 1048 2688 1568 2688 2038 
z
M 1466 -26 
C 1056 -26 813 328 723 816 
C 653 1196 653 1749 653 2109 
C 653 2604 653 3015 736 3407 
C 858 3954 1216 4121 1466 4121 
C 1728 4121 2067 3947 2189 3420 
C 2272 3054 2278 2623 2278 2109 
C 2278 1691 2278 1176 2202 797 
C 2067 96 1690 -26 1466 -26 
z
" transform="scale(0.015625)"/>
       </defs>
       <use xlink:href="#CMR17-30" transform="scale(0.996264)"/>
      </g>
     </g>
    </g>
    <g id="xtick_2">
     <g id="line2d_2">
      <g>
       <use xlink:href="#mab45043450" x="94.256347" y="228.96" style="stroke: #000000; stroke-width: 0.8"/>
      </g>
     </g>
     <g id="text_2">
      <!-- $\mathdefault{500}$ -->
      <g transform="translate(86.784344 243.05832) scale(0.1 -0.1)">
       <defs>
        <path id="CMR17-35" d="M 730 3750 
C 794 3724 1056 3641 1325 3641 
C 1920 3641 2246 3961 2432 4140 
C 2432 4191 2432 4224 2394 4224 
C 2387 4224 2374 4224 2323 4198 
C 2099 4102 1837 4032 1517 4032 
C 1325 4032 1037 4055 723 4191 
C 653 4224 640 4224 634 4224 
C 602 4224 595 4217 595 4090 
L 595 2231 
C 595 2113 595 2080 659 2080 
C 691 2080 704 2093 736 2139 
C 941 2435 1222 2560 1542 2560 
C 1766 2560 2246 2415 2246 1293 
C 2246 1087 2246 716 2054 422 
C 1894 159 1645 25 1370 25 
C 947 25 518 319 403 812 
C 429 806 480 793 506 793 
C 589 793 749 838 749 1036 
C 749 1209 627 1280 506 1280 
C 358 1280 262 1190 262 1011 
C 262 454 704 -128 1382 -128 
C 2042 -128 2669 441 2669 1267 
C 2669 2054 2170 2662 1549 2662 
C 1222 2662 947 2540 730 2304 
L 730 3750 
z
" transform="scale(0.015625)"/>
       </defs>
       <use xlink:href="#CMR17-35" transform="scale(0.996264)"/>
       <use xlink:href="#CMR17-30" transform="translate(45.690477 0) scale(0.996264)"/>
       <use xlink:href="#CMR17-30" transform="translate(91.380954 0) scale(0.996264)"/>
      </g>
     </g>
    </g>
    <g id="xtick_3">
     <g id="line2d_3">
      <g>
       <use xlink:href="#mab45043450" x="132.95976" y="228.96" style="stroke: #000000; stroke-width: 0.8"/>
      </g>
     </g>
     <g id="text_3">
      <!-- $\mathdefault{1000}$ -->
      <g transform="translate(122.997089 243.05832) scale(0.1 -0.1)">
       <defs>
        <path id="CMR17-31" d="M 1702 4083 
C 1702 4217 1696 4224 1606 4224 
C 1357 3927 979 3833 621 3820 
C 602 3820 570 3820 563 3808 
C 557 3795 557 3782 557 3648 
C 755 3648 1088 3686 1344 3839 
L 1344 467 
C 1344 243 1331 166 781 166 
L 589 166 
L 589 0 
C 896 6 1216 12 1523 12 
C 1830 12 2150 6 2458 0 
L 2458 166 
L 2266 166 
C 1715 166 1702 236 1702 467 
L 1702 4083 
z
" transform="scale(0.015625)"/>
       </defs>
       <use xlink:href="#CMR17-31" transform="scale(0.996264)"/>
       <use xlink:href="#CMR17-30" transform="translate(45.690477 0) scale(0.996264)"/>
       <use xlink:href="#CMR17-30" transform="translate(91.380954 0) scale(0.996264)"/>
       <use xlink:href="#CMR17-30" transform="translate(137.071431 0) scale(0.996264)"/>
      </g>
     </g>
    </g>
    <g id="xtick_4">
     <g id="line2d_4">
      <g>
       <use xlink:href="#mab45043450" x="171.663172" y="228.96" style="stroke: #000000; stroke-width: 0.8"/>
      </g>
     </g>
     <g id="text_4">
      <!-- $\mathdefault{1500}$ -->
      <g transform="translate(161.700502 243.05832) scale(0.1 -0.1)">
       <use xlink:href="#CMR17-31" transform="scale(0.996264)"/>
       <use xlink:href="#CMR17-35" transform="translate(45.690477 0) scale(0.996264)"/>
       <use xlink:href="#CMR17-30" transform="translate(91.380954 0) scale(0.996264)"/>
       <use xlink:href="#CMR17-30" transform="translate(137.071431 0) scale(0.996264)"/>
      </g>
     </g>
    </g>
    <g id="xtick_5">
     <g id="line2d_5">
      <g>
       <use xlink:href="#mab45043450" x="210.366585" y="228.96" style="stroke: #000000; stroke-width: 0.8"/>
      </g>
     </g>
     <g id="text_5">
      <!-- $\mathdefault{2000}$ -->
      <g transform="translate(200.403914 243.05832) scale(0.1 -0.1)">
       <defs>
        <path id="CMR17-32" d="M 2669 990 
L 2554 990 
C 2490 537 2438 460 2413 422 
C 2381 371 1920 371 1830 371 
L 602 371 
C 832 620 1280 1073 1824 1596 
C 2214 1966 2669 2400 2669 3033 
C 2669 3788 2067 4224 1395 4224 
C 691 4224 262 3603 262 3027 
C 262 2777 448 2745 525 2745 
C 589 2745 781 2783 781 3007 
C 781 3206 614 3264 525 3264 
C 486 3264 448 3257 422 3244 
C 544 3788 915 4057 1306 4057 
C 1862 4057 2227 3616 2227 3033 
C 2227 2477 1901 1998 1536 1583 
L 262 147 
L 262 0 
L 2515 0 
L 2669 990 
z
" transform="scale(0.015625)"/>
       </defs>
       <use xlink:href="#CMR17-32" transform="scale(0.996264)"/>
       <use xlink:href="#CMR17-30" transform="translate(45.690477 0) scale(0.996264)"/>
       <use xlink:href="#CMR17-30" transform="translate(91.380954 0) scale(0.996264)"/>
       <use xlink:href="#CMR17-30" transform="translate(137.071431 0) scale(0.996264)"/>
      </g>
     </g>
    </g>
    <g id="xtick_6">
     <g id="line2d_6">
      <g>
       <use xlink:href="#mab45043450" x="249.069997" y="228.96" style="stroke: #000000; stroke-width: 0.8"/>
      </g>
     </g>
     <g id="text_6">
      <!-- $\mathdefault{2500}$ -->
      <g transform="translate(239.107327 243.05832) scale(0.1 -0.1)">
       <use xlink:href="#CMR17-32" transform="scale(0.996264)"/>
       <use xlink:href="#CMR17-35" transform="translate(45.690477 0) scale(0.996264)"/>
       <use xlink:href="#CMR17-30" transform="translate(91.380954 0) scale(0.996264)"/>
       <use xlink:href="#CMR17-30" transform="translate(137.071431 0) scale(0.996264)"/>
      </g>
     </g>
    </g>
    <g id="xtick_7">
     <g id="line2d_7">
      <g>
       <use xlink:href="#mab45043450" x="287.77341" y="228.96" style="stroke: #000000; stroke-width: 0.8"/>
      </g>
     </g>
     <g id="text_7">
      <!-- $\mathdefault{3000}$ -->
      <g transform="translate(277.81074 243.05832) scale(0.1 -0.1)">
       <defs>
        <path id="CMR17-33" d="M 1414 2176 
C 1984 2176 2234 1673 2234 1094 
C 2234 322 1824 25 1453 25 
C 1114 25 563 193 390 691 
C 422 678 454 678 486 678 
C 640 678 755 780 755 947 
C 755 1132 614 1216 486 1216 
C 378 1216 211 1164 211 927 
C 211 335 787 -128 1466 -128 
C 2176 -128 2720 432 2720 1087 
C 2720 1718 2208 2176 1600 2246 
C 2086 2347 2554 2776 2554 3353 
C 2554 3856 2048 4224 1472 4224 
C 890 4224 378 3862 378 3347 
C 378 3123 544 3084 627 3084 
C 762 3084 877 3167 877 3334 
C 877 3500 762 3584 627 3584 
C 602 3584 570 3584 544 3571 
C 730 3999 1235 4076 1459 4076 
C 1683 4076 2106 3966 2106 3347 
C 2106 3167 2080 2851 1862 2574 
C 1670 2329 1453 2316 1242 2297 
C 1210 2297 1062 2284 1037 2284 
C 992 2278 966 2272 966 2227 
C 966 2182 973 2176 1101 2176 
L 1414 2176 
z
" transform="scale(0.015625)"/>
       </defs>
       <use xlink:href="#CMR17-33" transform="scale(0.996264)"/>
       <use xlink:href="#CMR17-30" transform="translate(45.690477 0) scale(0.996264)"/>
       <use xlink:href="#CMR17-30" transform="translate(91.380954 0) scale(0.996264)"/>
       <use xlink:href="#CMR17-30" transform="translate(137.071431 0) scale(0.996264)"/>
      </g>
     </g>
    </g>
    <g id="xtick_8">
     <g id="line2d_8">
      <g>
       <use xlink:href="#mab45043450" x="326.476823" y="228.96" style="stroke: #000000; stroke-width: 0.8"/>
      </g>
     </g>
     <g id="text_8">
      <!-- $\mathdefault{3500}$ -->
      <g transform="translate(316.514152 243.05832) scale(0.1 -0.1)">
       <use xlink:href="#CMR17-33" transform="scale(0.996264)"/>
       <use xlink:href="#CMR17-35" transform="translate(45.690477 0) scale(0.996264)"/>
       <use xlink:href="#CMR17-30" transform="translate(91.380954 0) scale(0.996264)"/>
       <use xlink:href="#CMR17-30" transform="translate(137.071431 0) scale(0.996264)"/>
      </g>
     </g>
    </g>
    <g id="xtick_9">
     <g id="line2d_9">
      <g>
       <use xlink:href="#mab45043450" x="365.180235" y="228.96" style="stroke: #000000; stroke-width: 0.8"/>
      </g>
     </g>
     <g id="text_9">
      <!-- $\mathdefault{4000}$ -->
      <g transform="translate(355.217565 243.05832) scale(0.1 -0.1)">
       <defs>
        <path id="CMR17-34" d="M 2150 4147 
C 2150 4281 2144 4288 2029 4288 
L 128 1254 
L 128 1088 
L 1779 1088 
L 1779 460 
C 1779 230 1766 166 1318 166 
L 1197 166 
L 1197 0 
C 1402 12 1747 12 1965 12 
C 2182 12 2528 12 2733 0 
L 2733 166 
L 2611 166 
C 2163 166 2150 230 2150 460 
L 2150 1088 
L 2803 1088 
L 2803 1254 
L 2150 1254 
L 2150 4147 
z
M 1798 3723 
L 1798 1254 
L 256 1254 
L 1798 3723 
z
" transform="scale(0.015625)"/>
       </defs>
       <use xlink:href="#CMR17-34" transform="scale(0.996264)"/>
       <use xlink:href="#CMR17-30" transform="translate(45.690477 0) scale(0.996264)"/>
       <use xlink:href="#CMR17-30" transform="translate(91.380954 0) scale(0.996264)"/>
       <use xlink:href="#CMR17-30" transform="translate(137.071431 0) scale(0.996264)"/>
      </g>
     </g>
    </g>
    <g id="text_10">
     <!-- Iteration -->
     <g transform="translate(189.787377 256.278627) scale(0.1 -0.1)">
      <defs>
       <path id="NimbusSanL-Regu-49" d="M 1242 4672 
L 640 4672 
L 640 0 
L 1242 0 
L 1242 4672 
z
" transform="scale(0.015625)"/>
       <path id="NimbusSanL-Regu-74" d="M 1626 3328 
L 1075 3328 
L 1075 4249 
L 544 4249 
L 544 3328 
L 90 3328 
L 90 2892 
L 544 2892 
L 544 402 
C 544 64 774 -128 1190 -128 
C 1318 -128 1446 -116 1626 -84 
L 1626 364 
C 1555 345 1472 339 1370 339 
C 1139 339 1075 402 1075 634 
L 1075 2892 
L 1626 2892 
L 1626 3328 
z
" transform="scale(0.015625)"/>
       <path id="NimbusSanL-Regu-65" d="M 3283 1484 
C 3283 1998 3245 2311 3149 2565 
C 2931 3123 2419 3456 1792 3456 
C 858 3456 256 2734 256 1619 
C 256 545 838 -128 1779 -128 
C 2547 -128 3078 307 3213 1018 
L 2675 1018 
C 2528 588 2227 364 1798 364 
C 1459 364 1171 514 992 787 
C 864 974 819 1161 813 1484 
L 3283 1484 
z
M 826 1920 
C 870 2552 1248 2963 1786 2963 
C 2310 2963 2714 2519 2714 1959 
C 2714 1946 2714 1933 2707 1920 
L 826 1920 
z
" transform="scale(0.015625)"/>
       <path id="NimbusSanL-Regu-72" d="M 442 3328 
L 442 0 
L 979 0 
L 979 1727 
C 979 2203 1101 2514 1357 2698 
C 1523 2819 1683 2857 2054 2863 
L 2054 3404 
C 1965 3449 1920 3456 1850 3456 
C 1504 3456 1242 3251 934 2750 
L 934 3328 
L 442 3328 
z
" transform="scale(0.015625)"/>
       <path id="NimbusSanL-Regu-61" d="M 3424 332 
C 3366 320 3341 320 3309 320 
C 3123 320 3021 415 3021 581 
L 3021 2542 
C 3021 3135 2586 3456 1760 3456 
C 1274 3456 870 3315 646 3065 
C 493 2893 429 2702 416 2370 
L 954 2370 
C 998 2778 1242 2963 1741 2963 
C 2221 2963 2490 2784 2490 2466 
L 2490 2326 
C 2490 2103 2355 2007 1933 1956 
C 1178 1861 1062 1835 858 1753 
C 467 1593 269 1294 269 861 
C 269 256 691 -128 1370 -128 
C 1792 -128 2131 19 2509 364 
C 2547 25 2714 -128 3059 -128 
C 3168 -128 3251 -116 3424 -71 
L 3424 332 
z
M 2490 1071 
C 2490 893 2438 785 2278 638 
C 2061 441 1798 339 1485 339 
C 1069 339 826 536 826 874 
C 826 1224 1062 1402 1632 1485 
C 2195 1562 2310 1587 2490 1670 
L 2490 1071 
z
" transform="scale(0.015625)"/>
       <path id="NimbusSanL-Regu-69" d="M 960 3358 
L 429 3358 
L 429 0 
L 960 0 
L 960 3358 
z
M 960 4672 
L 422 4672 
L 422 3999 
L 960 3999 
L 960 4672 
z
" transform="scale(0.015625)"/>
       <path id="NimbusSanL-Regu-6f" d="M 1741 3456 
C 800 3456 230 2784 230 1663 
C 230 543 794 -128 1747 -128 
C 2688 -128 3264 543 3264 1638 
C 3264 2791 2707 3456 1741 3456 
z
M 1747 2963 
C 2349 2963 2707 2472 2707 1644 
C 2707 861 2336 364 1747 364 
C 1152 364 787 855 787 1663 
C 787 2466 1152 2963 1747 2963 
z
" transform="scale(0.015625)"/>
       <path id="NimbusSanL-Regu-6e" d="M 448 3328 
L 448 0 
L 986 0 
L 986 1835 
C 986 2539 1344 2988 1894 2988 
C 2317 2988 2586 2732 2586 2328 
L 2586 0 
L 3117 0 
L 3117 2539 
C 3117 3097 2701 3456 2054 3456 
C 1555 3456 1235 3263 941 2796 
L 941 3328 
L 448 3328 
z
" transform="scale(0.015625)"/>
      </defs>
      <use xlink:href="#NimbusSanL-Regu-49" transform="scale(0.996264)"/>
      <use xlink:href="#NimbusSanL-Regu-74" transform="translate(27.69517 0) scale(0.996264)"/>
      <use xlink:href="#NimbusSanL-Regu-65" transform="translate(55.390339 0) scale(0.996264)"/>
      <use xlink:href="#NimbusSanL-Regu-72" transform="translate(110.782016 0) scale(0.996264)"/>
      <use xlink:href="#NimbusSanL-Regu-61" transform="translate(142.961149 0) scale(0.996264)"/>
      <use xlink:href="#NimbusSanL-Regu-74" transform="translate(198.352826 0) scale(0.996264)"/>
      <use xlink:href="#NimbusSanL-Regu-69" transform="translate(226.047996 0) scale(0.996264)"/>
      <use xlink:href="#NimbusSanL-Regu-6f" transform="translate(248.16478 0) scale(0.996264)"/>
      <use xlink:href="#NimbusSanL-Regu-6e" transform="translate(303.556457 0) scale(0.996264)"/>
     </g>
    </g>
   </g>
   <g id="matplotlib.axis_2">
    <g id="ytick_1">
     <g id="line2d_10">
      <defs>
       <path id="mc63881b764" d="M 0 0 
L -3.5 0 
" style="stroke: #000000; stroke-width: 0.8"/>
      </defs>
      <g>
       <use xlink:href="#mc63881b764" x="40.334753" y="216.524263" style="stroke: #000000; stroke-width: 0.8"/>
      </g>
     </g>
     <g id="text_11">
      <!-- $\mathdefault{−2}$ -->
      <g transform="translate(20.604674 220.073423) scale(0.1 -0.1)">
       <defs>
        <path id="CMSY10-0" d="M 4218 1472 
C 4326 1472 4442 1472 4442 1600 
C 4442 1728 4326 1728 4218 1728 
L 755 1728 
C 646 1728 531 1728 531 1600 
C 531 1472 646 1472 755 1472 
L 4218 1472 
z
" transform="scale(0.015625)"/>
       </defs>
       <use xlink:href="#CMSY10-0" transform="scale(0.996264)"/>
       <use xlink:href="#CMR17-32" transform="translate(77.487468 0) scale(0.996264)"/>
      </g>
     </g>
    </g>
    <g id="ytick_2">
     <g id="line2d_11">
      <g>
       <use xlink:href="#mc63881b764" x="40.334753" y="176.560163" style="stroke: #000000; stroke-width: 0.8"/>
      </g>
     </g>
     <g id="text_12">
      <!-- $\mathdefault{0}$ -->
      <g transform="translate(28.353418 180.109323) scale(0.1 -0.1)">
       <use xlink:href="#CMR17-30" transform="scale(0.996264)"/>
      </g>
     </g>
    </g>
    <g id="ytick_3">
     <g id="line2d_12">
      <g>
       <use xlink:href="#mc63881b764" x="40.334753" y="136.596062" style="stroke: #000000; stroke-width: 0.8"/>
      </g>
     </g>
     <g id="text_13">
      <!-- $\mathdefault{2}$ -->
      <g transform="translate(28.353418 140.145222) scale(0.1 -0.1)">
       <use xlink:href="#CMR17-32" transform="scale(0.996264)"/>
      </g>
     </g>
    </g>
    <g id="ytick_4">
     <g id="line2d_13">
      <g>
       <use xlink:href="#mc63881b764" x="40.334753" y="96.631961" style="stroke: #000000; stroke-width: 0.8"/>
      </g>
     </g>
     <g id="text_14">
      <!-- $\mathdefault{4}$ -->
      <g transform="translate(28.353418 100.181122) scale(0.1 -0.1)">
       <use xlink:href="#CMR17-34" transform="scale(0.996264)"/>
      </g>
     </g>
    </g>
    <g id="ytick_5">
     <g id="line2d_14">
      <g>
       <use xlink:href="#mc63881b764" x="40.334753" y="56.667861" style="stroke: #000000; stroke-width: 0.8"/>
      </g>
     </g>
     <g id="text_15">
      <!-- $\mathdefault{6}$ -->
      <g transform="translate(28.353418 60.217021) scale(0.1 -0.1)">
       <defs>
        <path id="CMR17-36" d="M 678 2198 
C 678 3712 1395 4076 1811 4076 
C 1946 4076 2272 4049 2400 3782 
C 2298 3782 2106 3782 2106 3558 
C 2106 3385 2246 3328 2336 3328 
C 2394 3328 2566 3353 2566 3571 
C 2566 3987 2246 4224 1805 4224 
C 1043 4224 243 3411 243 2011 
C 243 257 966 -128 1478 -128 
C 2099 -128 2688 431 2688 1295 
C 2688 2101 2170 2688 1517 2688 
C 1126 2688 838 2430 678 1979 
L 678 2198 
z
M 1478 25 
C 691 25 691 1212 691 1450 
C 691 1914 909 2585 1504 2585 
C 1613 2585 1926 2585 2138 2140 
C 2253 1889 2253 1624 2253 1302 
C 2253 954 2253 696 2118 438 
C 1978 173 1773 25 1478 25 
z
" transform="scale(0.015625)"/>
       </defs>
       <use xlink:href="#CMR17-36" transform="scale(0.996264)"/>
      </g>
     </g>
    </g>
    <g id="ytick_6">
     <g id="line2d_15">
      <g>
       <use xlink:href="#mc63881b764" x="40.334753" y="16.70376" style="stroke: #000000; stroke-width: 0.8"/>
      </g>
     </g>
     <g id="text_16">
      <!-- $\mathdefault{8}$ -->
      <g transform="translate(28.353418 20.25292) scale(0.1 -0.1)">
       <defs>
        <path id="CMR17-38" d="M 1741 2289 
C 2144 2494 2554 2803 2554 3298 
C 2554 3884 1990 4224 1472 4224 
C 890 4224 378 3800 378 3215 
C 378 3054 416 2777 666 2533 
C 730 2469 998 2276 1171 2154 
C 883 2006 211 1652 211 945 
C 211 282 838 -128 1459 -128 
C 2144 -128 2720 366 2720 1022 
C 2720 1607 2330 1877 2074 2051 
L 1741 2289 
z
M 902 2855 
C 851 2887 595 3086 595 3388 
C 595 3781 998 4076 1459 4076 
C 1965 4076 2336 3716 2336 3298 
C 2336 2700 1670 2359 1638 2359 
C 1632 2359 1626 2359 1574 2398 
L 902 2855 
z
M 2080 1536 
C 2176 1466 2483 1253 2483 861 
C 2483 385 2010 25 1472 25 
C 890 25 448 443 448 951 
C 448 1459 838 1884 1280 2083 
L 2080 1536 
z
" transform="scale(0.015625)"/>
       </defs>
       <use xlink:href="#CMR17-38" transform="scale(0.996264)"/>
      </g>
     </g>
    </g>
    <g id="text_17">
     <!-- Aerodynamic Coefficients - Blade_1 -->
     <g transform="translate(14.482687 196.280864) rotate(-90) scale(0.1 -0.1)">
      <defs>
       <path id="NimbusSanL-Regu-41" d="M 3034 1408 
L 3514 0 
L 4179 0 
L 2541 4672 
L 1773 4672 
L 109 0 
L 742 0 
L 1235 1408 
L 3034 1408 
z
M 2867 1907 
L 1382 1907 
L 2150 4032 
L 2867 1907 
z
" transform="scale(0.015625)"/>
       <path id="NimbusSanL-Regu-64" d="M 3168 4672 
L 2637 4672 
L 2637 2937 
C 2413 3276 2054 3456 1606 3456 
C 736 3456 166 2759 166 1695 
C 166 568 723 -128 1626 -128 
C 2086 -128 2406 44 2694 460 
L 2694 19 
L 3168 19 
L 3168 4672 
z
M 1696 2956 
C 2272 2956 2637 2447 2637 1651 
C 2637 880 2266 371 1702 371 
C 1114 371 723 887 723 1663 
C 723 2440 1114 2956 1696 2956 
z
" transform="scale(0.015625)"/>
       <path id="NimbusSanL-Regu-79" d="M 2483 3328 
L 1555 724 
L 698 3328 
L 128 3328 
L 1261 -29 
L 1056 -558 
C 973 -794 851 -884 627 -884 
C 550 -884 461 -871 346 -845 
L 346 -1325 
C 454 -1383 563 -1408 704 -1408 
C 877 -1408 1062 -1351 1203 -1248 
C 1370 -1127 1466 -986 1568 -718 
L 3059 3328 
L 2483 3328 
z
" transform="scale(0.015625)"/>
       <path id="NimbusSanL-Regu-6d" d="M 448 3328 
L 448 0 
L 986 0 
L 986 2089 
C 986 2597 1338 2988 1773 2988 
C 2170 2988 2394 2744 2394 2315 
L 2394 0 
L 2931 0 
L 2931 2109 
C 2931 2597 3283 2988 3718 2988 
C 4109 2988 4339 2738 4339 2315 
L 4339 0 
L 4877 0 
L 4877 2520 
C 4877 3123 4531 3456 3904 3456 
C 3456 3456 3187 3321 2874 2943 
C 2675 3302 2406 3456 1971 3456 
C 1523 3456 1229 3289 941 2886 
L 941 3328 
L 448 3328 
z
" transform="scale(0.015625)"/>
       <path id="NimbusSanL-Regu-63" d="M 3014 2237 
C 2989 2561 2918 2771 2790 2956 
C 2560 3270 2157 3456 1690 3456 
C 787 3456 198 2740 198 1632 
C 198 555 774 -128 1683 -128 
C 2483 -128 2989 352 3053 1167 
L 2515 1167 
C 2426 632 2150 364 1696 364 
C 1107 364 755 842 755 1632 
C 755 2466 1101 2963 1683 2963 
C 2131 2963 2413 2701 2477 2237 
L 3014 2237 
z
" transform="scale(0.015625)"/>
       <path id="NimbusSanL-Regu-43" d="M 4237 3219 
C 4051 4236 3462 4736 2438 4736 
C 1811 4736 1306 4537 960 4154 
C 538 3696 307 3035 307 2284 
C 307 1522 544 867 986 415 
C 1344 44 1805 -128 2413 -128 
C 3552 -128 4192 485 4333 1712 
L 3718 1712 
C 3667 1394 3603 1178 3507 994 
C 3315 612 2918 396 2419 396 
C 1491 396 902 1134 902 2291 
C 902 3480 1466 4211 2368 4211 
C 2746 4211 3098 4096 3290 3918 
C 3462 3759 3558 3562 3629 3219 
L 4237 3219 
z
" transform="scale(0.015625)"/>
       <path id="NimbusSanL-Regu-66" d="M 1651 3328 
L 1094 3328 
L 1094 3860 
C 1094 4087 1222 4204 1466 4204 
C 1510 4204 1530 4204 1651 4198 
L 1651 4639 
C 1530 4665 1459 4672 1350 4672 
C 858 4672 563 4390 563 3905 
L 563 3328 
L 115 3328 
L 115 2892 
L 563 2892 
L 563 0 
L 1094 0 
L 1094 2892 
L 1651 2892 
L 1651 3328 
z
" transform="scale(0.015625)"/>
       <path id="NimbusSanL-Regu-2" d="M 1613 3328 
L 1056 3328 
L 1056 3860 
C 1056 4087 1184 4204 1427 4204 
C 1472 4204 1491 4204 1613 4198 
L 1613 4639 
C 1491 4665 1421 4672 1312 4672 
C 819 4672 525 4390 525 3905 
L 525 3328 
L 77 3328 
L 77 2892 
L 525 2892 
L 525 0 
L 1056 0 
L 1056 2892 
L 1613 2892 
L 1613 3328 
z
M 2790 3328 
L 2259 3328 
L 2259 0 
L 2790 0 
L 2790 3328 
z
M 2790 4672 
L 2259 4672 
L 2259 3999 
L 2790 3999 
L 2790 4672 
z
" transform="scale(0.015625)"/>
       <path id="NimbusSanL-Regu-73" d="M 2803 2428 
C 2797 3084 2362 3456 1587 3456 
C 806 3456 301 3052 301 2434 
C 301 1912 570 1663 1363 1472 
L 1862 1351 
C 2234 1262 2381 1129 2381 887 
C 2381 574 2067 364 1600 364 
C 1312 364 1069 447 934 587 
C 851 683 813 778 781 1014 
L 218 1014 
C 243 243 678 -128 1555 -128 
C 2400 -128 2938 288 2938 931 
C 2938 1428 2656 1702 1990 1861 
L 1478 1982 
C 1043 2084 858 2224 858 2459 
C 858 2765 1133 2963 1568 2963 
C 1997 2963 2227 2778 2240 2428 
L 2803 2428 
z
" transform="scale(0.015625)"/>
       <path id="NimbusSanL-Regu-2d" d="M 1818 1996 
L 294 1996 
L 294 1536 
L 1818 1536 
L 1818 1996 
z
" transform="scale(0.015625)"/>
       <path id="NimbusSanL-Regu-42" d="M 506 0 
L 2611 0 
C 3053 0 3379 121 3629 390 
C 3859 632 3987 961 3987 1321 
C 3987 1878 3731 2214 3136 2444 
C 3558 2643 3782 2994 3782 3476 
C 3782 3821 3654 4127 3411 4345 
C 3168 4569 2848 4672 2400 4672 
L 506 4672 
L 506 0 
z
M 1101 2636 
L 1101 4147 
L 2253 4147 
C 2586 4147 2771 4101 2931 3977 
C 3098 3847 3187 3652 3187 3391 
C 3187 3138 3098 2936 2931 2806 
C 2771 2682 2586 2636 2253 2636 
L 1101 2636 
z
M 1101 524 
L 1101 2112 
L 2554 2112 
C 2842 2112 3034 2042 3174 1890 
C 3315 1745 3392 1542 3392 1315 
C 3392 1093 3315 891 3174 746 
C 3034 594 2842 524 2554 524 
L 1101 524 
z
" transform="scale(0.015625)"/>
       <path id="NimbusSanL-Regu-6c" d="M 973 4672 
L 435 4672 
L 435 0 
L 973 0 
L 973 4672 
z
" transform="scale(0.015625)"/>
       <path id="NimbusSanL-Regu-31" d="M 1658 3232 
L 1658 0 
L 2221 0 
L 2221 4537 
L 1850 4537 
C 1651 3840 1523 3744 653 3635 
L 653 3232 
L 1658 3232 
z
" transform="scale(0.015625)"/>
      </defs>
      <use xlink:href="#NimbusSanL-Regu-41" transform="scale(0.996264)"/>
      <use xlink:href="#NimbusSanL-Regu-65" transform="translate(66.450031 0) scale(0.996264)"/>
      <use xlink:href="#NimbusSanL-Regu-72" transform="translate(121.841708 0) scale(0.996264)"/>
      <use xlink:href="#NimbusSanL-Regu-6f" transform="translate(155.016938 0) scale(0.996264)"/>
      <use xlink:href="#NimbusSanL-Regu-64" transform="translate(210.408615 0) scale(0.996264)"/>
      <use xlink:href="#NimbusSanL-Regu-79" transform="translate(265.800292 0) scale(0.996264)"/>
      <use xlink:href="#NimbusSanL-Regu-6e" transform="translate(315.613492 0) scale(0.996264)"/>
      <use xlink:href="#NimbusSanL-Regu-61" transform="translate(371.005169 0) scale(0.996264)"/>
      <use xlink:href="#NimbusSanL-Regu-6d" transform="translate(426.396846 0) scale(0.996264)"/>
      <use xlink:href="#NimbusSanL-Regu-69" transform="translate(509.385276 0) scale(0.996264)"/>
      <use xlink:href="#NimbusSanL-Regu-63" transform="translate(531.502061 0) scale(0.996264)"/>
      <use xlink:href="#NimbusSanL-Regu-43" transform="translate(609.010431 0) scale(0.996264)"/>
      <use xlink:href="#NimbusSanL-Regu-6f" transform="translate(680.940416 0) scale(0.996264)"/>
      <use xlink:href="#NimbusSanL-Regu-65" transform="translate(736.332093 0) scale(0.996264)"/>
      <use xlink:href="#NimbusSanL-Regu-66" transform="translate(791.72377 0) scale(0.996264)"/>
      <use xlink:href="#NimbusSanL-Regu-2" transform="translate(819.418939 0) scale(0.996264)"/>
      <use xlink:href="#NimbusSanL-Regu-63" transform="translate(869.23214 0) scale(0.996264)"/>
      <use xlink:href="#NimbusSanL-Regu-69" transform="translate(919.04534 0) scale(0.996264)"/>
      <use xlink:href="#NimbusSanL-Regu-65" transform="translate(941.162125 0) scale(0.996264)"/>
      <use xlink:href="#NimbusSanL-Regu-6e" transform="translate(996.553802 0) scale(0.996264)"/>
      <use xlink:href="#NimbusSanL-Regu-74" transform="translate(1051.945479 0) scale(0.996264)"/>
      <use xlink:href="#NimbusSanL-Regu-73" transform="translate(1079.640648 0) scale(0.996264)"/>
      <use xlink:href="#NimbusSanL-Regu-2d" transform="translate(1157.149018 0) scale(0.996264)"/>
      <use xlink:href="#NimbusSanL-Regu-42" transform="translate(1218.019418 0) scale(0.996264)"/>
      <use xlink:href="#NimbusSanL-Regu-6c" transform="translate(1284.469449 0) scale(0.996264)"/>
      <use xlink:href="#NimbusSanL-Regu-61" transform="translate(1306.586233 0) scale(0.996264)"/>
      <use xlink:href="#NimbusSanL-Regu-64" transform="translate(1361.97791 0) scale(0.996264)"/>
      <use xlink:href="#NimbusSanL-Regu-65" transform="translate(1417.369587 0) scale(0.996264)"/>
      <use xlink:href="#NimbusSanL-Regu-31" transform="translate(1508.626829 0) scale(0.996264)"/>
      <path d="M 1478.738605 0 
L 1508.626829 0 
L 1508.626829 0.3985 
L 1478.738605 0.3985 
L 1478.738605 0 
z
"/>
     </g>
    </g>
   </g>
   <g id="line2d_16">
    <path d="M 55.552935 120.08215 
L 55.785155 17.679022 
L 55.862562 17.28 
L 56.017376 20.281058 
L 56.40441 31.998107 
L 56.714037 32.973468 
L 56.946258 34.844317 
L 57.255885 35.466966 
L 57.488105 36.439236 
L 57.720326 38.219657 
L 57.875139 40.494167 
L 58.184767 48.452744 
L 58.416987 51.110537 
L 58.649208 57.213006 
L 58.881428 70.94235 
L 59.191055 93.869335 
L 59.423276 100.524323 
L 59.655496 115.329956 
L 59.887717 145.57455 
L 60.119937 174.680843 
L 60.352158 179.472459 
L 60.661785 193.174938 
L 61.126226 215.874999 
L 61.435853 216.493427 
L 61.900294 218.294632 
L 62.132515 218.88 
L 62.287328 218.476648 
L 62.519549 218.252449 
L 62.751769 217.616592 
L 62.906583 216.540003 
L 63.061397 214.084657 
L 63.21621 208.356508 
L 63.371024 202.671466 
L 63.603244 200.60579 
L 63.835465 195.760839 
L 64.067685 184.809876 
L 64.532126 155.303253 
L 64.764347 148.563734 
L 65.073974 131.393629 
L 65.306195 119.286731 
L 65.770636 118.60279 
L 65.848042 118.699434 
L 66.002856 119.884799 
L 66.15767 123.71577 
L 66.699517 145.114167 
L 66.931738 146.992207 
L 67.241365 152.058579 
L 67.938027 164.943326 
L 68.170247 166.057319 
L 68.402468 168.382441 
L 68.634688 173.014284 
L 68.866909 178.337547 
L 69.099129 179.281235 
L 69.33135 181.188038 
L 69.640977 185.733861 
L 69.950604 190.556488 
L 70.337638 190.865069 
L 70.647266 191.07044 
L 70.802079 190.614152 
L 70.956893 189.993647 
L 71.189113 189.75143 
L 71.421334 189.203293 
L 71.653554 188.030064 
L 72.117995 184.954872 
L 72.350216 184.191171 
L 72.582436 182.576051 
L 72.814657 179.197399 
L 73.046877 171.723935 
L 73.279098 163.845149 
L 73.511318 162.354574 
L 73.743539 159.129998 
L 74.053166 150.481661 
L 74.285386 143.48912 
L 74.517607 142.328513 
L 74.827234 138.976121 
L 75.291675 132.412983 
L 75.601302 131.90292 
L 76.065743 130.97004 
L 76.220557 131.769485 
L 76.530184 134.418471 
L 76.762405 135.145538 
L 76.994625 136.67281 
L 77.226846 139.57713 
L 77.459066 142.593973 
L 77.691287 143.101712 
L 78.000914 144.582783 
L 78.310541 147.312717 
L 78.542762 149.759138 
L 78.774982 150.224057 
L 79.007203 151.230746 
L 79.239423 153.159767 
L 79.471644 156.793213 
L 79.626457 158.657805 
L 79.858678 159.249596 
L 80.090898 160.463318 
L 80.400526 163.390647 
L 80.78756 167.427657 
L 81.01978 167.736319 
L 81.329407 168.647486 
L 81.793848 170.109199 
L 82.335696 170.104062 
L 82.49051 169.861446 
L 82.645323 169.084291 
L 82.954951 167.03217 
L 83.187171 166.482603 
L 83.419392 165.344996 
L 83.651612 163.214796 
L 83.883833 160.909281 
L 84.116053 160.512261 
L 84.42568 159.361941 
L 85.044935 156.676121 
L 85.354562 156.439151 
L 86.206037 155.573914 
L 86.747885 155.551251 
L 86.902699 155.729416 
L 87.057512 155.912516 
L 87.521953 156.115251 
L 87.831581 156.536522 
L 88.218615 157.320231 
L 88.605649 157.562441 
L 89.224904 158.06129 
L 89.921565 157.989484 
L 90.695633 157.743717 
L 91.005261 157.572658 
L 91.237481 157.154004 
L 91.392295 156.905927 
L 91.779329 156.7168 
L 92.088956 156.284123 
L 92.630804 155.166219 
L 92.940431 154.904176 
L 93.250059 154.380357 
L 93.482279 153.977144 
L 93.94672 153.792806 
L 94.798195 153.299236 
L 95.340043 153.312446 
L 95.959297 153.604432 
L 96.733366 153.829381 
L 97.042993 153.722193 
L 97.739654 153.752333 
L 98.745943 154.91932 
L 99.210384 156.183518 
L 99.520011 156.636473 
L 99.752232 157.353715 
L 99.984452 158.677194 
L 100.139266 159.360242 
L 100.448893 159.69933 
L 100.758521 160.509787 
L 101.222961 161.970662 
L 101.532589 162.209021 
L 102.074437 162.844929 
L 102.306657 162.731843 
L 102.693691 162.551019 
L 102.925912 162.154962 
L 103.158132 161.061934 
L 103.312946 160.365879 
L 103.622573 159.999976 
L 103.854794 159.364314 
L 104.087014 158.172563 
L 104.628862 154.672566 
L 104.861082 154.344544 
L 105.17071 153.412426 
L 105.635151 151.715661 
L 105.944778 151.416051 
L 106.331812 150.623353 
L 106.641439 150.113606 
L 107.415508 150.058315 
L 107.802542 150.377764 
L 108.112169 150.574773 
L 108.344389 150.96219 
L 108.57661 151.897062 
L 108.731424 152.476629 
L 109.041051 152.781236 
L 109.273271 153.316925 
L 109.505492 154.328077 
L 110.04734 157.375946 
L 110.356967 157.592834 
L 110.821408 158.3269 
L 111.053628 158.492211 
L 111.672883 158.416726 
L 111.827697 158.231803 
L 111.98251 157.789847 
L 112.137324 157.388814 
L 112.446951 157.172885 
L 112.756578 156.595327 
L 112.988799 155.692624 
L 113.375833 153.882003 
L 113.68546 153.64238 
L 113.995088 153.083385 
L 114.536935 151.935732 
L 115.233597 152.056861 
L 115.465817 152.434097 
L 115.620631 152.721901 
L 116.007665 152.958725 
L 116.239886 153.342646 
L 116.472106 154.17274 
L 116.781733 155.630111 
L 117.091361 155.907156 
L 117.400988 156.579834 
L 117.865429 157.839012 
L 118.252463 158.138885 
L 118.639497 158.753366 
L 118.871718 159.11139 
L 119.336159 159.293528 
L 119.723193 159.69933 
L 119.878006 159.830054 
L 120.419854 159.994673 
L 120.961702 160.228401 
L 121.580956 160.141744 
L 121.73577 159.948754 
L 122.045397 159.413557 
L 122.355025 159.177642 
L 122.587245 158.74877 
L 122.819466 157.853532 
L 123.051686 156.771559 
L 123.361313 156.465915 
L 123.670941 155.716992 
L 124.057975 153.872607 
L 124.212789 153.41678 
L 124.522416 153.20676 
L 124.90945 152.602639 
L 125.219077 152.159372 
L 125.993146 152.100606 
L 126.147959 152.360447 
L 126.302773 152.652921 
L 126.689807 152.897395 
L 126.922027 153.272983 
L 127.154248 154.02681 
L 127.386468 154.900367 
L 127.696096 155.142435 
L 128.005723 155.714536 
L 128.470164 156.81262 
L 128.857198 157.10642 
L 129.244232 157.812879 
L 129.476453 158.218966 
L 130.250521 158.204354 
L 130.405335 158.006681 
L 130.714962 157.452481 
L 131.024589 157.211371 
L 131.25681 156.78863 
L 131.48903 155.946561 
L 131.643844 155.51699 
L 131.953471 155.306749 
L 132.263098 154.813786 
L 132.882353 153.574928 
L 133.269387 153.280763 
L 133.811235 152.741049 
L 134.507896 152.8228 
L 134.740117 153.037744 
L 134.89493 153.192941 
L 135.359371 153.372571 
L 135.668999 153.781412 
L 136.056033 154.465647 
L 136.443067 154.69872 
L 136.752694 155.126909 
L 137.139728 155.669429 
L 137.604169 155.900096 
L 137.913797 156.276383 
L 138.06861 156.428594 
L 138.610458 156.621719 
L 138.997492 156.992436 
L 139.152306 157.101288 
L 139.848967 157.273747 
L 140.313408 157.292061 
L 140.855256 157.202539 
L 141.087476 156.973377 
L 141.24229 156.809739 
L 141.706731 156.63069 
L 142.016358 156.263671 
L 142.325986 155.873941 
L 142.71302 155.673904 
L 143.022647 155.278023 
L 143.409681 154.68486 
L 143.796715 154.467621 
L 144.183749 153.916942 
L 144.570784 153.294291 
L 145.964106 153.333498 
L 146.351141 153.530665 
L 146.583361 153.924909 
L 146.892988 154.406647 
L 147.280022 154.66545 
L 147.58965 155.197526 
L 148.363718 157.086245 
L 148.595938 157.249568 
L 149.447414 157.16582 
L 150.531109 156.151805 
L 151.072957 154.946979 
L 151.382584 154.649109 
L 151.692211 154.014387 
L 151.924432 153.504088 
L 152.311466 153.314639 
L 152.6985 152.849427 
L 153.008127 152.481631 
L 153.937009 152.428109 
L 154.478857 152.898282 
L 154.788484 153.13812 
L 155.020705 153.550304 
L 155.252925 154.050958 
L 155.63996 154.258077 
L 155.949587 154.691221 
L 156.491435 155.65908 
L 156.878469 155.974611 
L 157.497723 156.603554 
L 158.581419 156.739117 
L 159.04586 156.586003 
L 159.27808 156.309635 
L 159.587708 155.891521 
L 159.974742 155.661996 
L 160.284369 155.181732 
L 160.74881 154.30584 
L 161.135844 154.115964 
L 161.522878 153.669854 
L 161.755099 153.4365 
L 163.225828 153.386693 
L 163.612863 153.593125 
L 163.92249 153.811025 
L 164.386931 153.96541 
L 164.773965 154.341301 
L 164.928779 154.468528 
L 165.470626 154.624156 
L 166.167288 154.907488 
L 167.792831 155.009185 
L 169.495781 154.784239 
L 173.211309 154.367909 
L 173.67575 154.267807 
L 174.295004 154.105106 
L 174.682039 154.002619 
L 175.456107 153.827871 
L 175.843141 153.791628 
L 177.313871 153.814378 
L 178.55238 154.167258 
L 178.7846 154.239108 
L 179.403855 154.382993 
L 180.100516 154.626269 
L 180.719771 154.845938 
L 181.184212 154.944771 
L 182.732348 154.913013 
L 183.970858 154.516417 
L 184.280485 154.342792 
L 184.822333 154.183565 
L 185.518994 153.889981 
L 186.060842 153.664439 
L 186.370469 153.546243 
L 188.770081 153.470737 
L 189.234522 153.623251 
L 189.621556 153.777227 
L 190.163404 153.95198 
L 190.627845 154.164224 
L 191.169692 154.326051 
L 191.788947 154.571662 
L 193.646711 154.758894 
L 193.956338 154.714242 
L 194.575593 154.58682 
L 195.194847 154.373598 
L 195.659288 154.178502 
L 195.968915 154.034784 
L 196.58817 153.875624 
L 197.207425 153.647305 
L 197.904086 153.45081 
L 198.29112 153.410262 
L 199.297409 153.450015 
L 201.155173 154.040493 
L 201.851834 154.178819 
L 202.393682 154.300648 
L 204.406259 154.364279 
L 205.180328 154.238456 
L 205.722175 154.107468 
L 206.34143 153.942632 
L 206.651057 153.885523 
L 207.347719 153.736548 
L 207.81216 153.64907 
L 210.521399 153.515488 
L 214.62396 154.079553 
L 215.939876 154.115702 
L 218.416895 153.73781 
L 218.958742 153.662045 
L 221.590575 153.520179 
L 223.061304 153.79176 
L 224.686848 153.951815 
L 225.615729 153.919623 
L 227.31868 153.649867 
L 229.02163 153.417946 
L 229.795698 153.414964 
L 233.356412 153.794244 
L 236.065651 153.728471 
L 237.149346 153.4894 
L 238.155635 153.411291 
L 239.394144 153.584372 
L 240.400433 153.645397 
L 241.871163 153.687133 
L 247.754081 153.381481 
L 250.2311 153.505723 
L 251.779236 153.62486 
L 253.40478 153.407608 
L 254.565882 153.388161 
L 258.049189 153.567474 
L 260.835835 153.463739 
L 262.538785 153.381076 
L 266.331719 153.50702 
L 268.653924 153.510686 
L 297.836297 153.494042 
L 338.087846 153.549281 
L 359.916571 153.5765 
L 359.916571 153.5765 
" clip-path="url(#pa5cc1e866d)" style="fill: none; stroke: #1f77b4; stroke-width: 1.5; stroke-linecap: square"/>
   </g>
   <g id="line2d_17">
    <path d="M 55.552935 189.767798 
L 55.707748 209.240584 
L 55.785155 209.084252 
L 56.017376 207.341831 
L 56.249596 205.77201 
L 56.327003 205.716805 
L 57.101071 206.831863 
L 57.333292 207.078227 
L 57.565512 207.645569 
L 57.797733 209.067297 
L 58.184767 212.207408 
L 58.494394 212.853442 
L 58.804021 213.479609 
L 58.881428 213.331929 
L 59.268462 211.594656 
L 59.500683 210.806146 
L 59.732903 208.790468 
L 59.965124 203.087082 
L 60.119937 199.925147 
L 60.352158 198.678194 
L 60.584378 196.066269 
L 61.28104 186.097065 
L 61.51326 185.487826 
L 61.745481 184.108048 
L 61.977701 181.424688 
L 62.364735 176.188168 
L 62.596956 175.354369 
L 62.906583 173.205474 
L 63.448431 168.915966 
L 63.680651 168.492049 
L 64.067685 167.422942 
L 64.145092 167.593244 
L 64.609533 171.173911 
L 64.841754 173.192619 
L 65.073974 177.500329 
L 65.383601 184.585403 
L 65.615822 185.418136 
L 65.848042 187.077172 
L 66.15767 191.12538 
L 66.699517 199.696337 
L 66.931738 200.478825 
L 67.241365 202.625958 
L 67.628399 205.575371 
L 67.705806 205.630891 
L 67.86062 205.299908 
L 68.170247 205.021224 
L 68.402468 204.343055 
L 68.634688 202.480506 
L 68.866909 199.821037 
L 69.099129 199.296342 
L 69.33135 198.216093 
L 69.640977 195.318028 
L 70.105418 189.894348 
L 70.337638 189.253756 
L 70.647266 187.499489 
L 71.0343 185.130105 
L 71.26652 184.741498 
L 71.498741 183.973549 
L 71.808368 181.925314 
L 71.963182 181.081074 
L 72.272809 180.660369 
L 72.505029 179.963232 
L 72.814657 178.111701 
L 73.279098 174.735262 
L 73.820945 174.637947 
L 73.975759 174.984427 
L 74.130573 176.19599 
L 74.285386 177.476048 
L 74.517607 177.936076 
L 74.749827 178.990344 
L 74.982048 181.098833 
L 75.369082 185.230035 
L 75.601302 185.912616 
L 75.91093 187.863945 
L 76.530184 192.829532 
L 76.839812 193.245151 
L 77.304253 194.424787 
L 77.459066 194.724768 
L 77.8461 194.933762 
L 78.387948 195.552212 
L 78.465355 195.415443 
L 78.852389 195.277973 
L 79.08461 194.938969 
L 79.239423 194.389764 
L 79.471644 192.293646 
L 79.626457 191.007314 
L 79.858678 190.582476 
L 80.090898 189.700455 
L 80.78756 186.319262 
L 81.329407 186.374785 
L 81.561628 186.689882 
L 81.793848 187.087701 
L 82.258289 187.262431 
L 82.567917 187.329512 
L 82.72273 187.137498 
L 82.877544 186.950473 
L 83.341985 186.765671 
L 83.883833 186.477485 
L 84.503087 186.5857 
L 85.277156 187.038318 
L 85.819003 187.044164 
L 86.128631 186.941893 
L 86.825292 186.988631 
L 87.212326 187.187433 
L 87.676767 187.391768 
L 87.908988 187.722854 
L 88.218615 188.184921 
L 88.528242 188.357917 
L 88.837869 188.799342 
L 89.07009 189.601793 
L 89.30231 190.424378 
L 89.611938 190.653383 
L 89.921565 191.205444 
L 90.386006 192.141656 
L 90.850447 192.394794 
L 91.082667 192.471411 
L 91.237481 192.306054 
L 91.392295 192.086573 
L 91.779329 191.902345 
L 92.011549 191.592844 
L 92.24377 190.944752 
L 92.47599 190.18317 
L 92.785618 189.969617 
L 93.095245 189.428182 
L 93.637093 188.214805 
L 93.94672 187.918118 
L 94.720788 186.898473 
L 95.262636 186.890285 
L 95.41745 187.087351 
L 95.727077 187.636408 
L 96.036704 187.8718 
L 96.268925 188.309062 
L 96.501145 189.255849 
L 96.965586 191.95255 
L 97.275213 192.276351 
L 97.584841 193.058069 
L 98.126688 194.72764 
L 98.513723 195.002116 
L 98.978164 195.381151 
L 99.674825 195.287288 
L 99.907045 194.982152 
L 100.216673 194.3541 
L 100.5263 194.087853 
L 100.758521 193.615411 
L 100.990741 192.616472 
L 101.145555 192.033268 
L 101.455182 191.730434 
L 101.687402 191.208422 
L 101.99703 189.803916 
L 102.22925 188.601129 
L 102.538878 188.281436 
L 102.848505 187.529153 
L 103.390353 186.057903 
L 103.854794 185.811281 
L 104.087014 185.749077 
L 104.241828 185.94984 
L 104.706269 186.935678 
L 105.015896 187.343287 
L 105.248116 188.044361 
L 105.635151 189.536902 
L 105.944778 189.936559 
L 106.254405 190.856245 
L 106.718846 192.631284 
L 107.028473 192.952931 
L 107.415508 193.78809 
L 107.647728 194.187827 
L 108.112169 194.34443 
L 108.499203 194.463875 
L 109.428085 193.689412 
L 109.660305 192.821356 
L 110.124746 190.87333 
L 110.356967 190.613446 
L 110.666594 189.838773 
L 111.131035 188.257658 
L 111.440662 187.959437 
L 111.827697 187.153008 
L 112.137324 186.639032 
L 112.833985 186.635069 
L 112.988799 186.857947 
L 113.530647 188.202782 
L 113.840274 188.605681 
L 114.072494 189.247048 
L 114.459529 191.2845 
L 114.614342 191.793924 
L 114.92397 192.037487 
L 115.233597 192.601613 
L 115.698038 193.466387 
L 116.162479 193.681167 
L 116.472106 193.815174 
L 116.62692 193.716509 
L 116.781733 193.57691 
L 117.246174 193.39966 
L 117.478395 193.124544 
L 117.942836 192.444472 
L 118.252463 192.209518 
L 118.56209 191.659067 
L 118.949124 190.831663 
L 119.336159 190.549052 
L 119.723193 189.90478 
L 119.878006 189.73487 
L 120.419854 189.55098 
L 120.961702 189.352885 
L 121.73577 189.424856 
L 122.122804 189.576145 
L 122.587245 189.734581 
L 122.896873 190.083537 
L 123.051686 190.256998 
L 123.516127 190.443462 
L 123.825754 190.796552 
L 124.367602 191.585329 
L 124.754636 191.858951 
L 125.451298 192.563562 
L 125.993146 192.869437 
L 126.38018 193.009332 
L 127.231655 192.917912 
L 127.463875 192.827204 
L 128.005723 192.665555 
L 128.702384 192.270329 
L 129.166825 192.025992 
L 129.631266 191.744256 
L 130.250521 191.587014 
L 130.947182 191.320759 
L 131.48903 191.090207 
L 131.721251 191.036031 
L 133.579014 191.030712 
L 134.043455 191.306838 
L 134.430489 191.467555 
L 134.740117 191.841789 
L 134.89493 192.018663 
L 135.359371 192.204342 
L 135.668999 192.581308 
L 136.056033 193.160932 
L 136.443067 193.357459 
L 137.294542 193.991938 
L 137.83639 194.004784 
L 138.300831 193.827691 
L 138.687865 193.641756 
L 138.920085 193.319688 
L 139.229713 192.873478 
L 139.616747 192.637686 
L 139.926374 192.158337 
L 140.158595 191.74709 
L 140.623035 191.53011 
L 141.01007 191.067637 
L 141.24229 190.828669 
L 142.635613 190.790636 
L 142.94524 190.94076 
L 143.177461 191.265963 
L 143.332274 191.47003 
L 143.719308 191.626995 
L 144.028936 191.975135 
L 144.338563 192.719488 
L 144.64819 193.375794 
L 145.035225 193.550305 
L 145.422259 194.007121 
L 145.654479 194.282321 
L 146.196327 194.450526 
L 146.738175 194.637478 
L 147.434836 194.532037 
L 147.667057 194.330232 
L 148.131498 193.392165 
L 148.673345 192.316107 
L 149.137786 192.149597 
L 149.602227 191.704413 
L 149.834448 191.61725 
L 150.685923 191.634642 
L 150.99555 191.865723 
L 151.459991 192.074157 
L 151.769618 192.510088 
L 151.924432 192.706141 
L 152.388873 192.905186 
L 152.6985 193.26745 
L 153.085534 193.772309 
L 153.549975 193.99509 
L 154.246637 194.501346 
L 155.020705 194.427556 
L 155.407739 194.271198 
L 155.87218 194.109028 
L 156.181807 193.784156 
L 156.336621 193.645284 
L 156.878469 193.463624 
L 157.57513 193.093379 
L 159.200674 192.927196 
L 160.903624 193.311187 
L 162.45176 193.292325 
L 163.690269 193.176309 
L 165.548033 193.571515 
L 166.322101 193.875381 
L 166.863949 194.15109 
L 167.09617 194.215642 
L 168.79912 194.235387 
L 169.573188 193.997712 
L 169.960222 193.770252 
L 170.424663 193.428603 
L 171.043918 193.241309 
L 171.508359 193.098317 
L 173.056495 193.092148 
L 174.372411 193.566067 
L 174.604632 193.661284 
L 175.146479 193.807662 
L 175.997955 194.158341 
L 177.700905 194.486227 
L 179.481262 194.377169 
L 181.493839 193.966466 
L 183.893451 193.616127 
L 184.977146 193.650795 
L 189.621556 194.672291 
L 191.247099 194.618274 
L 194.033745 193.970538 
L 196.510763 193.897157 
L 198.755561 194.246213 
L 200.303698 194.582246 
L 202.471089 194.542803 
L 204.096632 194.338926 
L 204.561073 194.297313 
L 207.81216 194.141985 
L 209.050669 194.298484 
L 210.676212 194.547501 
L 211.140653 194.585344 
L 213.695078 194.659777 
L 218.262081 194.261498 
L 220.429472 194.414075 
L 222.44205 194.668129 
L 224.764254 194.556547 
L 227.396086 194.387256 
L 229.563478 194.506047 
L 231.266428 194.602105 
L 235.214176 194.522375 
L 236.994533 194.398103 
L 238.155635 194.477174 
L 239.858585 194.609966 
L 242.103383 194.49528 
L 247.986302 194.490134 
L 250.385913 194.568771 
L 251.93405 194.419415 
L 253.327373 194.378494 
L 256.888087 194.470574 
L 261.377683 194.345671 
L 267.105788 194.367664 
L 273.917588 194.317676 
L 285.296392 194.232627 
L 309.447321 194.076415 
L 319.510208 194.033988 
L 359.916571 193.917423 
L 359.916571 193.917423 
" clip-path="url(#pa5cc1e866d)" style="fill: none; stroke: #ff7f0e; stroke-width: 1.5; stroke-linecap: square"/>
   </g>
   <g id="patch_3">
    <path d="M 40.334753 228.96 
L 40.334753 7.2 
" style="fill: none; stroke: #000000; stroke-width: 0.8; stroke-linejoin: miter; stroke-linecap: square"/>
   </g>
   <g id="patch_4">
    <path d="M 375.134753 228.96 
L 375.134753 7.2 
" style="fill: none; stroke: #000000; stroke-width: 0.8; stroke-linejoin: miter; stroke-linecap: square"/>
   </g>
   <g id="patch_5">
    <path d="M 40.334753 228.96 
L 375.134753 228.96 
" style="fill: none; stroke: #000000; stroke-width: 0.8; stroke-linejoin: miter; stroke-linecap: square"/>
   </g>
   <g id="patch_6">
    <path d="M 40.334753 7.2 
L 375.134753 7.2 
" style="fill: none; stroke: #000000; stroke-width: 0.8; stroke-linejoin: miter; stroke-linecap: square"/>
   </g>
   <g id="legend_1">
    <g id="patch_7">
     <path d="M 321.748759 43.640613 
L 368.134753 43.640613 
Q 370.134753 43.640613 370.134753 41.640613 
L 370.134753 14.2 
Q 370.134753 12.2 368.134753 12.2 
L 321.748759 12.2 
Q 319.748759 12.2 319.748759 14.2 
L 319.748759 41.640613 
Q 319.748759 43.640613 321.748759 43.640613 
z
" style="fill: #ffffff; opacity: 0.8; stroke: #cccccc; stroke-linejoin: miter"/>
    </g>
    <g id="line2d_18">
     <path d="M 323.748759 19.79832 
L 333.748759 19.79832 
L 343.748759 19.79832 
" style="fill: none; stroke: #1f77b4; stroke-width: 1.5; stroke-linecap: square"/>
    </g>
    <g id="text_18">
     <!-- CD -->
     <g transform="translate(351.748759 23.29832) scale(0.1 -0.1)">
      <defs>
       <path id="NimbusSanL-Regu-44" d="M 570 0 
L 2368 0 
C 3546 0 4269 883 4269 2339 
C 4269 3788 3552 4672 2368 4672 
L 570 4672 
L 570 0 
z
M 1165 524 
L 1165 4147 
L 2266 4147 
C 3187 4147 3674 3525 3674 2332 
C 3674 1153 3187 524 2266 524 
L 1165 524 
z
" transform="scale(0.015625)"/>
      </defs>
      <use xlink:href="#NimbusSanL-Regu-43" transform="scale(0.996264)"/>
      <use xlink:href="#NimbusSanL-Regu-44" transform="translate(71.929985 0) scale(0.996264)"/>
     </g>
    </g>
    <g id="line2d_19">
     <path d="M 323.748759 34.018627 
L 333.748759 34.018627 
L 343.748759 34.018627 
" style="fill: none; stroke: #ff7f0e; stroke-width: 1.5; stroke-linecap: square"/>
    </g>
    <g id="text_19">
     <!-- CL -->
     <g transform="translate(351.748759 37.518627) scale(0.1 -0.1)">
      <defs>
       <path id="NimbusSanL-Regu-4c" d="M 1107 4672 
L 512 4672 
L 512 0 
L 3411 0 
L 3411 524 
L 1107 524 
L 1107 4672 
z
" transform="scale(0.015625)"/>
      </defs>
      <use xlink:href="#NimbusSanL-Regu-43" transform="scale(0.996264)"/>
      <use xlink:href="#NimbusSanL-Regu-4c" transform="translate(71.929985 0) scale(0.996264)"/>
     </g>
    </g>
   </g>
  </g>
 </g>
 <defs>
  <clipPath id="pa5cc1e866d">
   <rect x="40.334753" y="7.2" width="334.8" height="221.76"/>
  </clipPath>
 </defs>
</svg>
