<?xml version="1.0" encoding="utf-8" standalone="no"?>
<!DOCTYPE svg PUBLIC "-//W3C//DTD SVG 1.1//EN"
  "http://www.w3.org/Graphics/SVG/1.1/DTD/svg11.dtd">
<svg xmlns:xlink="http://www.w3.org/1999/xlink" width="382.150386pt" height="265.600613pt" viewBox="0 0 382.150386 265.600613" xmlns="http://www.w3.org/2000/svg" version="1.1">
 <metadata>
  <rdf:RDF xmlns:dc="http://purl.org/dc/elements/1.1/" xmlns:cc="http://creativecommons.org/ns#" xmlns:rdf="http://www.w3.org/1999/02/22-rdf-syntax-ns#">
   <cc:Work>
    <dc:type rdf:resource="http://purl.org/dc/dcmitype/StillImage"/>
    <dc:date>2025-07-17T22:15:44.913732</dc:date>
    <dc:format>image/svg+xml</dc:format>
    <dc:creator>
     <cc:Agent>
      <dc:title>Matplotlib v3.10.3, https://matplotlib.org/</dc:title>
     </cc:Agent>
    </dc:creator>
   </cc:Work>
  </rdf:RDF>
 </metadata>
 <defs>
  <style type="text/css">*{stroke-linejoin: round; stroke-linecap: butt}</style>
 </defs>
 <g id="figure_1">
  <g id="patch_1">
   <path d="M 0 265.600613 
L 382.150386 265.600613 
L 382.150386 0 
L 0 0 
z
" style="fill: #ffffff"/>
  </g>
  <g id="axes_1">
   <g id="patch_2">
    <path d="M 40.150386 228.96 
L 374.950386 228.96 
L 374.950386 7.2 
L 40.150386 7.2 
z
" style="fill: #ffffff"/>
   </g>
   <g id="matplotlib.axis_1">
    <g id="xtick_1">
     <g id="line2d_1">
      <defs>
       <path id="mb857a7f4e5" d="M 0 0 
L 0 3.5 
" style="stroke: #000000; stroke-width: 0.8"/>
      </defs>
      <g>
       <use xlink:href="#mb857a7f4e5" x="55.368567" y="228.96" style="stroke: #000000; stroke-width: 0.8"/>
      </g>
     </g>
     <g id="text_1">
      <!-- $\mathdefault{0}$ -->
      <g transform="translate(52.8779 243.05832) scale(0.1 -0.1)">
       <defs>
        <path id="CMR17-30" d="M 2688 2038 
C 2688 2430 2682 3099 2413 3613 
C 2176 4063 1798 4224 1466 4224 
C 1158 4224 768 4082 525 3620 
C 269 3137 243 2539 243 2038 
C 243 1671 250 1112 448 623 
C 723 -39 1216 -128 1466 -128 
C 1760 -128 2208 -7 2470 604 
C 2662 1048 2688 1568 2688 2038 
z
M 1466 -26 
C 1056 -26 813 328 723 816 
C 653 1196 653 1749 653 2109 
C 653 2604 653 3015 736 3407 
C 858 3954 1216 4121 1466 4121 
C 1728 4121 2067 3947 2189 3420 
C 2272 3054 2278 2623 2278 2109 
C 2278 1691 2278 1176 2202 797 
C 2067 96 1690 -26 1466 -26 
z
" transform="scale(0.015625)"/>
       </defs>
       <use xlink:href="#CMR17-30" transform="scale(0.996264)"/>
      </g>
     </g>
    </g>
    <g id="xtick_2">
     <g id="line2d_2">
      <g>
       <use xlink:href="#mb857a7f4e5" x="110.909377" y="228.96" style="stroke: #000000; stroke-width: 0.8"/>
      </g>
     </g>
     <g id="text_2">
      <!-- $\mathdefault{100}$ -->
      <g transform="translate(103.437374 243.05832) scale(0.1 -0.1)">
       <defs>
        <path id="CMR17-31" d="M 1702 4083 
C 1702 4217 1696 4224 1606 4224 
C 1357 3927 979 3833 621 3820 
C 602 3820 570 3820 563 3808 
C 557 3795 557 3782 557 3648 
C 755 3648 1088 3686 1344 3839 
L 1344 467 
C 1344 243 1331 166 781 166 
L 589 166 
L 589 0 
C 896 6 1216 12 1523 12 
C 1830 12 2150 6 2458 0 
L 2458 166 
L 2266 166 
C 1715 166 1702 236 1702 467 
L 1702 4083 
z
" transform="scale(0.015625)"/>
       </defs>
       <use xlink:href="#CMR17-31" transform="scale(0.996264)"/>
       <use xlink:href="#CMR17-30" transform="translate(45.690477 0) scale(0.996264)"/>
       <use xlink:href="#CMR17-30" transform="translate(91.380954 0) scale(0.996264)"/>
      </g>
     </g>
    </g>
    <g id="xtick_3">
     <g id="line2d_3">
      <g>
       <use xlink:href="#mb857a7f4e5" x="166.450187" y="228.96" style="stroke: #000000; stroke-width: 0.8"/>
      </g>
     </g>
     <g id="text_3">
      <!-- $\mathdefault{200}$ -->
      <g transform="translate(158.978184 243.05832) scale(0.1 -0.1)">
       <defs>
        <path id="CMR17-32" d="M 2669 990 
L 2554 990 
C 2490 537 2438 460 2413 422 
C 2381 371 1920 371 1830 371 
L 602 371 
C 832 620 1280 1073 1824 1596 
C 2214 1966 2669 2400 2669 3033 
C 2669 3788 2067 4224 1395 4224 
C 691 4224 262 3603 262 3027 
C 262 2777 448 2745 525 2745 
C 589 2745 781 2783 781 3007 
C 781 3206 614 3264 525 3264 
C 486 3264 448 3257 422 3244 
C 544 3788 915 4057 1306 4057 
C 1862 4057 2227 3616 2227 3033 
C 2227 2477 1901 1998 1536 1583 
L 262 147 
L 262 0 
L 2515 0 
L 2669 990 
z
" transform="scale(0.015625)"/>
       </defs>
       <use xlink:href="#CMR17-32" transform="scale(0.996264)"/>
       <use xlink:href="#CMR17-30" transform="translate(45.690477 0) scale(0.996264)"/>
       <use xlink:href="#CMR17-30" transform="translate(91.380954 0) scale(0.996264)"/>
      </g>
     </g>
    </g>
    <g id="xtick_4">
     <g id="line2d_4">
      <g>
       <use xlink:href="#mb857a7f4e5" x="221.990996" y="228.96" style="stroke: #000000; stroke-width: 0.8"/>
      </g>
     </g>
     <g id="text_4">
      <!-- $\mathdefault{300}$ -->
      <g transform="translate(214.518993 243.05832) scale(0.1 -0.1)">
       <defs>
        <path id="CMR17-33" d="M 1414 2176 
C 1984 2176 2234 1673 2234 1094 
C 2234 322 1824 25 1453 25 
C 1114 25 563 193 390 691 
C 422 678 454 678 486 678 
C 640 678 755 780 755 947 
C 755 1132 614 1216 486 1216 
C 378 1216 211 1164 211 927 
C 211 335 787 -128 1466 -128 
C 2176 -128 2720 432 2720 1087 
C 2720 1718 2208 2176 1600 2246 
C 2086 2347 2554 2776 2554 3353 
C 2554 3856 2048 4224 1472 4224 
C 890 4224 378 3862 378 3347 
C 378 3123 544 3084 627 3084 
C 762 3084 877 3167 877 3334 
C 877 3500 762 3584 627 3584 
C 602 3584 570 3584 544 3571 
C 730 3999 1235 4076 1459 4076 
C 1683 4076 2106 3966 2106 3347 
C 2106 3167 2080 2851 1862 2574 
C 1670 2329 1453 2316 1242 2297 
C 1210 2297 1062 2284 1037 2284 
C 992 2278 966 2272 966 2227 
C 966 2182 973 2176 1101 2176 
L 1414 2176 
z
" transform="scale(0.015625)"/>
       </defs>
       <use xlink:href="#CMR17-33" transform="scale(0.996264)"/>
       <use xlink:href="#CMR17-30" transform="translate(45.690477 0) scale(0.996264)"/>
       <use xlink:href="#CMR17-30" transform="translate(91.380954 0) scale(0.996264)"/>
      </g>
     </g>
    </g>
    <g id="xtick_5">
     <g id="line2d_5">
      <g>
       <use xlink:href="#mb857a7f4e5" x="277.531806" y="228.96" style="stroke: #000000; stroke-width: 0.8"/>
      </g>
     </g>
     <g id="text_5">
      <!-- $\mathdefault{400}$ -->
      <g transform="translate(270.059803 243.05832) scale(0.1 -0.1)">
       <defs>
        <path id="CMR17-34" d="M 2150 4147 
C 2150 4281 2144 4288 2029 4288 
L 128 1254 
L 128 1088 
L 1779 1088 
L 1779 460 
C 1779 230 1766 166 1318 166 
L 1197 166 
L 1197 0 
C 1402 12 1747 12 1965 12 
C 2182 12 2528 12 2733 0 
L 2733 166 
L 2611 166 
C 2163 166 2150 230 2150 460 
L 2150 1088 
L 2803 1088 
L 2803 1254 
L 2150 1254 
L 2150 4147 
z
M 1798 3723 
L 1798 1254 
L 256 1254 
L 1798 3723 
z
" transform="scale(0.015625)"/>
       </defs>
       <use xlink:href="#CMR17-34" transform="scale(0.996264)"/>
       <use xlink:href="#CMR17-30" transform="translate(45.690477 0) scale(0.996264)"/>
       <use xlink:href="#CMR17-30" transform="translate(91.380954 0) scale(0.996264)"/>
      </g>
     </g>
    </g>
    <g id="xtick_6">
     <g id="line2d_6">
      <g>
       <use xlink:href="#mb857a7f4e5" x="333.072615" y="228.96" style="stroke: #000000; stroke-width: 0.8"/>
      </g>
     </g>
     <g id="text_6">
      <!-- $\mathdefault{500}$ -->
      <g transform="translate(325.600612 243.05832) scale(0.1 -0.1)">
       <defs>
        <path id="CMR17-35" d="M 730 3750 
C 794 3724 1056 3641 1325 3641 
C 1920 3641 2246 3961 2432 4140 
C 2432 4191 2432 4224 2394 4224 
C 2387 4224 2374 4224 2323 4198 
C 2099 4102 1837 4032 1517 4032 
C 1325 4032 1037 4055 723 4191 
C 653 4224 640 4224 634 4224 
C 602 4224 595 4217 595 4090 
L 595 2231 
C 595 2113 595 2080 659 2080 
C 691 2080 704 2093 736 2139 
C 941 2435 1222 2560 1542 2560 
C 1766 2560 2246 2415 2246 1293 
C 2246 1087 2246 716 2054 422 
C 1894 159 1645 25 1370 25 
C 947 25 518 319 403 812 
C 429 806 480 793 506 793 
C 589 793 749 838 749 1036 
C 749 1209 627 1280 506 1280 
C 358 1280 262 1190 262 1011 
C 262 454 704 -128 1382 -128 
C 2042 -128 2669 441 2669 1267 
C 2669 2054 2170 2662 1549 2662 
C 1222 2662 947 2540 730 2304 
L 730 3750 
z
" transform="scale(0.015625)"/>
       </defs>
       <use xlink:href="#CMR17-35" transform="scale(0.996264)"/>
       <use xlink:href="#CMR17-30" transform="translate(45.690477 0) scale(0.996264)"/>
       <use xlink:href="#CMR17-30" transform="translate(91.380954 0) scale(0.996264)"/>
      </g>
     </g>
    </g>
    <g id="text_7">
     <!-- Iteration -->
     <g transform="translate(189.603009 256.278627) scale(0.1 -0.1)">
      <defs>
       <path id="NimbusSanL-Regu-49" d="M 1242 4672 
L 640 4672 
L 640 0 
L 1242 0 
L 1242 4672 
z
" transform="scale(0.015625)"/>
       <path id="NimbusSanL-Regu-74" d="M 1626 3328 
L 1075 3328 
L 1075 4249 
L 544 4249 
L 544 3328 
L 90 3328 
L 90 2892 
L 544 2892 
L 544 402 
C 544 64 774 -128 1190 -128 
C 1318 -128 1446 -116 1626 -84 
L 1626 364 
C 1555 345 1472 339 1370 339 
C 1139 339 1075 402 1075 634 
L 1075 2892 
L 1626 2892 
L 1626 3328 
z
" transform="scale(0.015625)"/>
       <path id="NimbusSanL-Regu-65" d="M 3283 1484 
C 3283 1998 3245 2311 3149 2565 
C 2931 3123 2419 3456 1792 3456 
C 858 3456 256 2734 256 1619 
C 256 545 838 -128 1779 -128 
C 2547 -128 3078 307 3213 1018 
L 2675 1018 
C 2528 588 2227 364 1798 364 
C 1459 364 1171 514 992 787 
C 864 974 819 1161 813 1484 
L 3283 1484 
z
M 826 1920 
C 870 2552 1248 2963 1786 2963 
C 2310 2963 2714 2519 2714 1959 
C 2714 1946 2714 1933 2707 1920 
L 826 1920 
z
" transform="scale(0.015625)"/>
       <path id="NimbusSanL-Regu-72" d="M 442 3328 
L 442 0 
L 979 0 
L 979 1727 
C 979 2203 1101 2514 1357 2698 
C 1523 2819 1683 2857 2054 2863 
L 2054 3404 
C 1965 3449 1920 3456 1850 3456 
C 1504 3456 1242 3251 934 2750 
L 934 3328 
L 442 3328 
z
" transform="scale(0.015625)"/>
       <path id="NimbusSanL-Regu-61" d="M 3424 332 
C 3366 320 3341 320 3309 320 
C 3123 320 3021 415 3021 581 
L 3021 2542 
C 3021 3135 2586 3456 1760 3456 
C 1274 3456 870 3315 646 3065 
C 493 2893 429 2702 416 2370 
L 954 2370 
C 998 2778 1242 2963 1741 2963 
C 2221 2963 2490 2784 2490 2466 
L 2490 2326 
C 2490 2103 2355 2007 1933 1956 
C 1178 1861 1062 1835 858 1753 
C 467 1593 269 1294 269 861 
C 269 256 691 -128 1370 -128 
C 1792 -128 2131 19 2509 364 
C 2547 25 2714 -128 3059 -128 
C 3168 -128 3251 -116 3424 -71 
L 3424 332 
z
M 2490 1071 
C 2490 893 2438 785 2278 638 
C 2061 441 1798 339 1485 339 
C 1069 339 826 536 826 874 
C 826 1224 1062 1402 1632 1485 
C 2195 1562 2310 1587 2490 1670 
L 2490 1071 
z
" transform="scale(0.015625)"/>
       <path id="NimbusSanL-Regu-69" d="M 960 3358 
L 429 3358 
L 429 0 
L 960 0 
L 960 3358 
z
M 960 4672 
L 422 4672 
L 422 3999 
L 960 3999 
L 960 4672 
z
" transform="scale(0.015625)"/>
       <path id="NimbusSanL-Regu-6f" d="M 1741 3456 
C 800 3456 230 2784 230 1663 
C 230 543 794 -128 1747 -128 
C 2688 -128 3264 543 3264 1638 
C 3264 2791 2707 3456 1741 3456 
z
M 1747 2963 
C 2349 2963 2707 2472 2707 1644 
C 2707 861 2336 364 1747 364 
C 1152 364 787 855 787 1663 
C 787 2466 1152 2963 1747 2963 
z
" transform="scale(0.015625)"/>
       <path id="NimbusSanL-Regu-6e" d="M 448 3328 
L 448 0 
L 986 0 
L 986 1835 
C 986 2539 1344 2988 1894 2988 
C 2317 2988 2586 2732 2586 2328 
L 2586 0 
L 3117 0 
L 3117 2539 
C 3117 3097 2701 3456 2054 3456 
C 1555 3456 1235 3263 941 2796 
L 941 3328 
L 448 3328 
z
" transform="scale(0.015625)"/>
      </defs>
      <use xlink:href="#NimbusSanL-Regu-49" transform="scale(0.996264)"/>
      <use xlink:href="#NimbusSanL-Regu-74" transform="translate(27.69517 0) scale(0.996264)"/>
      <use xlink:href="#NimbusSanL-Regu-65" transform="translate(55.390339 0) scale(0.996264)"/>
      <use xlink:href="#NimbusSanL-Regu-72" transform="translate(110.782016 0) scale(0.996264)"/>
      <use xlink:href="#NimbusSanL-Regu-61" transform="translate(142.961149 0) scale(0.996264)"/>
      <use xlink:href="#NimbusSanL-Regu-74" transform="translate(198.352826 0) scale(0.996264)"/>
      <use xlink:href="#NimbusSanL-Regu-69" transform="translate(226.047996 0) scale(0.996264)"/>
      <use xlink:href="#NimbusSanL-Regu-6f" transform="translate(248.16478 0) scale(0.996264)"/>
      <use xlink:href="#NimbusSanL-Regu-6e" transform="translate(303.556457 0) scale(0.996264)"/>
     </g>
    </g>
   </g>
   <g id="matplotlib.axis_2">
    <g id="ytick_1">
     <g id="line2d_7">
      <defs>
       <path id="maef6a762b1" d="M 0 0 
L -3.5 0 
" style="stroke: #000000; stroke-width: 0.8"/>
      </defs>
      <g>
       <use xlink:href="#maef6a762b1" x="40.150386" y="217.786404" style="stroke: #000000; stroke-width: 0.8"/>
      </g>
     </g>
     <g id="text_8">
      <!-- $\mathdefault{−3}$ -->
      <g transform="translate(20.420307 221.335564) scale(0.1 -0.1)">
       <defs>
        <path id="CMSY10-0" d="M 4218 1472 
C 4326 1472 4442 1472 4442 1600 
C 4442 1728 4326 1728 4218 1728 
L 755 1728 
C 646 1728 531 1728 531 1600 
C 531 1472 646 1472 755 1472 
L 4218 1472 
z
" transform="scale(0.015625)"/>
       </defs>
       <use xlink:href="#CMSY10-0" transform="scale(0.996264)"/>
       <use xlink:href="#CMR17-33" transform="translate(77.487468 0) scale(0.996264)"/>
      </g>
     </g>
    </g>
    <g id="ytick_2">
     <g id="line2d_8">
      <g>
       <use xlink:href="#maef6a762b1" x="40.150386" y="189.102959" style="stroke: #000000; stroke-width: 0.8"/>
      </g>
     </g>
     <g id="text_9">
      <!-- $\mathdefault{−2}$ -->
      <g transform="translate(20.420307 192.652119) scale(0.1 -0.1)">
       <use xlink:href="#CMSY10-0" transform="scale(0.996264)"/>
       <use xlink:href="#CMR17-32" transform="translate(77.487468 0) scale(0.996264)"/>
      </g>
     </g>
    </g>
    <g id="ytick_3">
     <g id="line2d_9">
      <g>
       <use xlink:href="#maef6a762b1" x="40.150386" y="160.419514" style="stroke: #000000; stroke-width: 0.8"/>
      </g>
     </g>
     <g id="text_10">
      <!-- $\mathdefault{−1}$ -->
      <g transform="translate(20.420307 163.968675) scale(0.1 -0.1)">
       <use xlink:href="#CMSY10-0" transform="scale(0.996264)"/>
       <use xlink:href="#CMR17-31" transform="translate(77.487468 0) scale(0.996264)"/>
      </g>
     </g>
    </g>
    <g id="ytick_4">
     <g id="line2d_10">
      <g>
       <use xlink:href="#maef6a762b1" x="40.150386" y="131.73607" style="stroke: #000000; stroke-width: 0.8"/>
      </g>
     </g>
     <g id="text_11">
      <!-- $\mathdefault{0}$ -->
      <g transform="translate(28.16905 135.28523) scale(0.1 -0.1)">
       <use xlink:href="#CMR17-30" transform="scale(0.996264)"/>
      </g>
     </g>
    </g>
    <g id="ytick_5">
     <g id="line2d_11">
      <g>
       <use xlink:href="#maef6a762b1" x="40.150386" y="103.052625" style="stroke: #000000; stroke-width: 0.8"/>
      </g>
     </g>
     <g id="text_12">
      <!-- $\mathdefault{1}$ -->
      <g transform="translate(28.16905 106.601785) scale(0.1 -0.1)">
       <use xlink:href="#CMR17-31" transform="scale(0.996264)"/>
      </g>
     </g>
    </g>
    <g id="ytick_6">
     <g id="line2d_12">
      <g>
       <use xlink:href="#maef6a762b1" x="40.150386" y="74.36918" style="stroke: #000000; stroke-width: 0.8"/>
      </g>
     </g>
     <g id="text_13">
      <!-- $\mathdefault{2}$ -->
      <g transform="translate(28.16905 77.91834) scale(0.1 -0.1)">
       <use xlink:href="#CMR17-32" transform="scale(0.996264)"/>
      </g>
     </g>
    </g>
    <g id="ytick_7">
     <g id="line2d_13">
      <g>
       <use xlink:href="#maef6a762b1" x="40.150386" y="45.685736" style="stroke: #000000; stroke-width: 0.8"/>
      </g>
     </g>
     <g id="text_14">
      <!-- $\mathdefault{3}$ -->
      <g transform="translate(28.16905 49.234896) scale(0.1 -0.1)">
       <use xlink:href="#CMR17-33" transform="scale(0.996264)"/>
      </g>
     </g>
    </g>
    <g id="ytick_8">
     <g id="line2d_14">
      <g>
       <use xlink:href="#maef6a762b1" x="40.150386" y="17.002291" style="stroke: #000000; stroke-width: 0.8"/>
      </g>
     </g>
     <g id="text_15">
      <!-- $\mathdefault{4}$ -->
      <g transform="translate(28.16905 20.551451) scale(0.1 -0.1)">
       <use xlink:href="#CMR17-34" transform="scale(0.996264)"/>
      </g>
     </g>
    </g>
    <g id="text_16">
     <!-- RMS residual - Blade_17 -->
     <g transform="translate(14.29832 172.470389) rotate(-90) scale(0.1 -0.1)">
      <defs>
       <path id="NimbusSanL-Regu-52" d="M 1190 2035 
L 2726 2035 
C 3258 2035 3494 1775 3494 1191 
L 3488 770 
C 3488 478 3539 192 3622 0 
L 4346 0 
L 4346 147 
C 4122 303 4077 471 4064 1101 
C 4058 1879 3936 2111 3430 2329 
C 3955 2585 4166 2907 4166 3432 
C 4166 4230 3661 4672 2746 4672 
L 595 4672 
L 595 0 
L 1190 0 
L 1190 2035 
z
M 1190 2560 
L 1190 4147 
L 2630 4147 
C 2963 4147 3155 4096 3302 3970 
C 3462 3837 3546 3628 3546 3350 
C 3546 2806 3264 2560 2630 2560 
L 1190 2560 
z
" transform="scale(0.015625)"/>
       <path id="NimbusSanL-Regu-4d" d="M 2995 0 
L 4307 3915 
L 4307 0 
L 4870 0 
L 4870 4672 
L 4045 4672 
L 2688 602 
L 1306 4672 
L 480 4672 
L 480 0 
L 1043 0 
L 1043 3915 
L 2368 0 
L 2995 0 
z
" transform="scale(0.015625)"/>
       <path id="NimbusSanL-Regu-53" d="M 3814 3295 
C 3808 4204 3181 4736 2106 4736 
C 1082 4736 448 4211 448 3372 
C 448 2806 749 2450 1363 2291 
L 2522 1986 
C 3110 1833 3379 1598 3379 1236 
C 3379 988 3245 733 3046 593 
C 2861 466 2566 396 2189 396 
C 1683 396 1338 517 1114 784 
C 941 988 864 1210 870 1496 
L 307 1496 
C 314 1070 397 790 582 536 
C 902 102 1440 -128 2150 -128 
C 2707 -128 3162 0 3462 230 
C 3776 479 3974 892 3974 1293 
C 3974 1865 3616 2284 2982 2456 
L 1811 2768 
C 1248 2920 1043 3098 1043 3454 
C 1043 3925 1459 4236 2086 4236 
C 2829 4236 3245 3899 3251 3295 
L 3814 3295 
z
" transform="scale(0.015625)"/>
       <path id="NimbusSanL-Regu-73" d="M 2803 2428 
C 2797 3084 2362 3456 1587 3456 
C 806 3456 301 3052 301 2434 
C 301 1912 570 1663 1363 1472 
L 1862 1351 
C 2234 1262 2381 1129 2381 887 
C 2381 574 2067 364 1600 364 
C 1312 364 1069 447 934 587 
C 851 683 813 778 781 1014 
L 218 1014 
C 243 243 678 -128 1555 -128 
C 2400 -128 2938 288 2938 931 
C 2938 1428 2656 1702 1990 1861 
L 1478 1982 
C 1043 2084 858 2224 858 2459 
C 858 2765 1133 2963 1568 2963 
C 1997 2963 2227 2778 2240 2428 
L 2803 2428 
z
" transform="scale(0.015625)"/>
       <path id="NimbusSanL-Regu-64" d="M 3168 4672 
L 2637 4672 
L 2637 2937 
C 2413 3276 2054 3456 1606 3456 
C 736 3456 166 2759 166 1695 
C 166 568 723 -128 1626 -128 
C 2086 -128 2406 44 2694 460 
L 2694 19 
L 3168 19 
L 3168 4672 
z
M 1696 2956 
C 2272 2956 2637 2447 2637 1651 
C 2637 880 2266 371 1702 371 
C 1114 371 723 887 723 1663 
C 723 2440 1114 2956 1696 2956 
z
" transform="scale(0.015625)"/>
       <path id="NimbusSanL-Regu-75" d="M 3085 19 
L 3085 3328 
L 2554 3328 
L 2554 1454 
C 2554 780 2195 339 1638 339 
C 1216 339 947 591 947 988 
L 947 3328 
L 416 3328 
L 416 780 
C 416 230 832 -128 1485 -128 
C 1978 -128 2291 44 2605 484 
L 2605 19 
L 3085 19 
z
" transform="scale(0.015625)"/>
       <path id="NimbusSanL-Regu-6c" d="M 973 4672 
L 435 4672 
L 435 0 
L 973 0 
L 973 4672 
z
" transform="scale(0.015625)"/>
       <path id="NimbusSanL-Regu-2d" d="M 1818 1996 
L 294 1996 
L 294 1536 
L 1818 1536 
L 1818 1996 
z
" transform="scale(0.015625)"/>
       <path id="NimbusSanL-Regu-42" d="M 506 0 
L 2611 0 
C 3053 0 3379 121 3629 390 
C 3859 632 3987 961 3987 1321 
C 3987 1878 3731 2214 3136 2444 
C 3558 2643 3782 2994 3782 3476 
C 3782 3821 3654 4127 3411 4345 
C 3168 4569 2848 4672 2400 4672 
L 506 4672 
L 506 0 
z
M 1101 2636 
L 1101 4147 
L 2253 4147 
C 2586 4147 2771 4101 2931 3977 
C 3098 3847 3187 3652 3187 3391 
C 3187 3138 3098 2936 2931 2806 
C 2771 2682 2586 2636 2253 2636 
L 1101 2636 
z
M 1101 524 
L 1101 2112 
L 2554 2112 
C 2842 2112 3034 2042 3174 1890 
C 3315 1745 3392 1542 3392 1315 
C 3392 1093 3315 891 3174 746 
C 3034 594 2842 524 2554 524 
L 1101 524 
z
" transform="scale(0.015625)"/>
       <path id="NimbusSanL-Regu-31" d="M 1658 3232 
L 1658 0 
L 2221 0 
L 2221 4537 
L 1850 4537 
C 1651 3840 1523 3744 653 3635 
L 653 3232 
L 1658 3232 
z
" transform="scale(0.015625)"/>
       <path id="NimbusSanL-Regu-37" d="M 3328 4544 
L 294 4544 
L 294 3987 
L 2746 3987 
C 1664 2442 1222 1493 883 0 
L 1485 0 
C 1734 1454 2304 2704 3328 4070 
L 3328 4544 
z
" transform="scale(0.015625)"/>
      </defs>
      <use xlink:href="#NimbusSanL-Regu-52" transform="scale(0.996264)"/>
      <use xlink:href="#NimbusSanL-Regu-4d" transform="translate(71.929985 0) scale(0.996264)"/>
      <use xlink:href="#NimbusSanL-Regu-53" transform="translate(154.918415 0) scale(0.996264)"/>
      <use xlink:href="#NimbusSanL-Regu-72" transform="translate(249.063616 0) scale(0.996264)"/>
      <use xlink:href="#NimbusSanL-Regu-65" transform="translate(282.238846 0) scale(0.996264)"/>
      <use xlink:href="#NimbusSanL-Regu-73" transform="translate(337.630523 0) scale(0.996264)"/>
      <use xlink:href="#NimbusSanL-Regu-69" transform="translate(387.443723 0) scale(0.996264)"/>
      <use xlink:href="#NimbusSanL-Regu-64" transform="translate(409.560507 0) scale(0.996264)"/>
      <use xlink:href="#NimbusSanL-Regu-75" transform="translate(464.952184 0) scale(0.996264)"/>
      <use xlink:href="#NimbusSanL-Regu-61" transform="translate(520.343861 0) scale(0.996264)"/>
      <use xlink:href="#NimbusSanL-Regu-6c" transform="translate(575.735538 0) scale(0.996264)"/>
      <use xlink:href="#NimbusSanL-Regu-2d" transform="translate(625.547492 0) scale(0.996264)"/>
      <use xlink:href="#NimbusSanL-Regu-42" transform="translate(686.417892 0) scale(0.996264)"/>
      <use xlink:href="#NimbusSanL-Regu-6c" transform="translate(752.867923 0) scale(0.996264)"/>
      <use xlink:href="#NimbusSanL-Regu-61" transform="translate(774.984707 0) scale(0.996264)"/>
      <use xlink:href="#NimbusSanL-Regu-64" transform="translate(830.376384 0) scale(0.996264)"/>
      <use xlink:href="#NimbusSanL-Regu-65" transform="translate(885.768061 0) scale(0.996264)"/>
      <use xlink:href="#NimbusSanL-Regu-31" transform="translate(977.025303 0) scale(0.996264)"/>
      <use xlink:href="#NimbusSanL-Regu-37" transform="translate(1032.41698 0) scale(0.996264)"/>
      <path d="M 947.137079 0 
L 977.025303 0 
L 977.025303 0.3985 
L 947.137079 0.3985 
L 947.137079 0 
z
"/>
     </g>
    </g>
   </g>
   <g id="line2d_15">
    <path d="M 55.368567 200.071507 
L 55.923976 206.98697 
L 56.479384 211.266306 
L 57.034792 216.643425 
L 57.5902 218.851057 
L 58.145608 218.88 
L 59.256424 218.590307 
L 60.36724 218.494149 
L 60.922648 218.297614 
L 61.478057 217.874104 
L 62.033465 217.179359 
L 63.144281 215.083041 
L 64.255097 213.039972 
L 64.810505 212.691244 
L 65.921321 212.968686 
L 66.476729 212.048296 
L 67.587546 208.963819 
L 68.142954 209.225554 
L 68.698362 209.681365 
L 70.364586 211.409017 
L 71.475402 212.071545 
L 72.03081 212.146273 
L 72.586218 211.881051 
L 74.807851 209.752644 
L 75.363259 208.968956 
L 75.918667 209.845853 
L 77.584891 213.248143 
L 78.695707 214.848719 
L 79.251116 215.103446 
L 80.361932 214.206149 
L 80.91734 214.081366 
L 81.472748 214.225952 
L 82.028156 214.042361 
L 82.583564 213.121043 
L 83.69438 214.471984 
L 84.249788 215.446639 
L 84.805197 216.692065 
L 85.360605 217.588561 
L 85.916013 217.735572 
L 87.026829 217.392073 
L 87.582237 216.685913 
L 88.137645 215.640584 
L 88.693053 214.894694 
L 89.248461 214.421932 
L 89.803869 213.745253 
L 90.359277 214.289778 
L 92.025502 216.387087 
L 93.136318 217.099291 
L 93.691726 217.408118 
L 94.247134 217.466274 
L 94.802542 217.076764 
L 95.35795 216.356027 
L 96.468767 214.361587 
L 97.024175 213.338054 
L 97.579583 212.780523 
L 98.690399 213.607986 
L 100.356623 215.783611 
L 101.467439 216.719794 
L 102.578256 217.900465 
L 103.133664 218.000576 
L 103.689072 217.304356 
L 104.799888 214.83688 
L 105.355296 214.002965 
L 105.910704 214.234253 
L 106.466112 214.605566 
L 107.576928 215.99025 
L 108.132337 216.67804 
L 109.243153 217.43243 
L 109.798561 217.699763 
L 110.353969 217.633122 
L 110.909377 216.989266 
L 113.131009 213.186109 
L 113.686417 212.37188 
L 114.797234 212.552574 
L 115.352642 212.525176 
L 115.90805 212.310819 
L 117.018866 211.708673 
L 117.574274 211.902946 
L 118.129682 212.430596 
L 118.68509 212.617784 
L 119.240498 212.227148 
L 120.351315 208.92593 
L 120.906723 207.86191 
L 121.462131 207.119956 
L 122.572947 207.173658 
L 123.128355 207.445477 
L 124.239171 208.293434 
L 124.794579 208.424328 
L 125.349987 208.066761 
L 125.905396 207.091644 
L 126.460804 205.678228 
L 127.016212 204.667184 
L 127.57162 204.729917 
L 128.127028 206.479114 
L 132.014885 206.656714 
L 134.236517 206.969986 
L 135.902741 207.46711 
L 137.568966 208.266619 
L 139.23519 209.266271 
L 139.790598 209.876063 
L 140.346006 206.922423 
L 141.456822 208.516426 
L 142.567638 209.636068 
L 143.123047 209.871947 
L 144.233863 210.038297 
L 144.789271 209.828022 
L 145.900087 210.450863 
L 147.566311 211.615928 
L 148.677128 211.917044 
L 150.343352 212.183415 
L 151.454168 211.964323 
L 152.009576 211.614036 
L 152.564984 211.091611 
L 153.6758 211.446191 
L 154.786617 212.007944 
L 155.342025 212.149938 
L 155.897433 212.074311 
L 157.008249 211.411453 
L 158.119065 210.340871 
L 158.674473 209.767662 
L 159.229881 209.489636 
L 160.896106 210.071575 
L 163.117738 211.143027 
L 164.228554 211.336861 
L 164.783962 211.373433 
L 165.33937 207.246742 
L 165.894778 211.141119 
L 166.450187 210.778078 
L 167.005595 209.628181 
L 167.561003 206.30696 
L 168.116411 208.051794 
L 169.227227 207.400717 
L 169.782635 206.97988 
L 170.338043 205.468369 
L 170.893451 205.51986 
L 172.559676 202.205926 
L 173.115084 201.735411 
L 173.670492 200.846488 
L 174.2259 200.560875 
L 175.336716 199.090995 
L 175.892124 198.624812 
L 176.447532 198.760223 
L 178.113757 199.704143 
L 178.669165 199.753467 
L 179.224573 198.975268 
L 179.779981 198.609984 
L 180.890797 198.157556 
L 182.001613 197.471028 
L 182.557021 197.082779 
L 183.667838 196.638754 
L 184.223246 196.335271 
L 184.778654 196.261824 
L 185.334062 195.771122 
L 185.88947 195.610624 
L 186.444878 195.025367 
L 187.000286 194.798517 
L 187.555694 194.155077 
L 188.111102 193.91899 
L 188.66651 193.277379 
L 189.221918 193.10325 
L 189.777327 192.729097 
L 190.332735 192.580552 
L 190.888143 193.286029 
L 191.443551 193.05495 
L 191.998959 192.415144 
L 192.554367 192.038904 
L 193.109775 191.859447 
L 193.665183 191.414933 
L 194.775999 188.934535 
L 195.331408 188.470318 
L 195.886816 188.863129 
L 196.997632 190.540219 
L 198.108448 190.992339 
L 199.219264 191.06525 
L 201.440897 190.647621 
L 202.551713 190.014838 
L 204.217937 188.576136 
L 205.884161 188.341184 
L 208.105794 188.265463 
L 208.661202 188.008569 
L 209.21661 187.519572 
L 210.327426 186.163693 
L 210.882834 185.84559 
L 211.438242 185.989213 
L 211.99365 185.844305 
L 213.104467 185.209655 
L 215.881507 183.448298 
L 217.547731 185.457929 
L 218.103139 185.710523 
L 218.658548 185.595422 
L 220.324772 183.121349 
L 221.990996 183.866214 
L 223.65722 184.374888 
L 225.323445 184.597992 
L 226.434261 184.578182 
L 229.211301 184.187082 
L 229.766709 183.997756 
L 231.432934 182.99486 
L 232.54375 182.624358 
L 233.654566 181.934486 
L 234.209974 181.776852 
L 234.765382 181.972231 
L 235.32079 181.666859 
L 236.431607 179.540189 
L 237.542423 178.973214 
L 239.208647 179.001034 
L 240.319463 179.04583 
L 241.985688 178.907886 
L 244.20732 179.156278 
L 244.762728 179.064381 
L 246.428952 179.794164 
L 247.539769 180.515038 
L 248.095177 180.631973 
L 250.872217 180.060319 
L 251.983033 179.440458 
L 252.538441 179.226418 
L 253.649258 179.428858 
L 254.760074 179.431325 
L 255.87089 179.204977 
L 256.981706 178.727248 
L 257.537114 178.740386 
L 258.092522 178.557787 
L 258.64793 178.001699 
L 259.203339 178.00237 
L 259.758747 177.632033 
L 260.314155 177.908651 
L 261.980379 177.910321 
L 265.312828 177.632549 
L 266.423644 177.356825 
L 267.53446 176.465808 
L 269.200684 176.499541 
L 270.866909 176.487552 
L 274.754765 176.867256 
L 275.310173 177.028284 
L 280.308846 177.105349 
L 285.862927 176.735808 
L 286.973743 176.388684 
L 288.639968 175.861204 
L 290.306192 175.25543 
L 291.417008 174.684188 
L 293.63864 174.773214 
L 294.749457 174.761135 
L 295.860273 175.021787 
L 296.415681 175.205761 
L 297.526497 175.242939 
L 298.081905 175.147879 
L 298.637313 174.762012 
L 307.523843 174.423196 
L 310.300883 174.561516 
L 310.856291 174.421105 
L 311.4117 174.02956 
L 313.077924 171.884944 
L 313.633332 172.085725 
L 316.410372 172.325407 
L 316.96578 172.353234 
L 317.521189 172.260086 
L 318.076597 171.994818 
L 320.298229 170.333722 
L 321.409045 170.604418 
L 323.07527 170.592562 
L 324.186086 170.437542 
L 325.296902 170.00674 
L 327.518534 168.549889 
L 330.295575 168.659616 
L 333.072615 168.557688 
L 336.960472 168.142122 
L 339.182104 167.496896 
L 339.737512 167.205513 
L 340.29292 167.05763 
L 341.959145 166.087333 
L 343.069961 166.174457 
L 344.180777 166.083563 
L 345.291593 165.714336 
L 345.847001 165.395715 
L 346.40241 165.359267 
L 347.513226 165.077178 
L 348.068634 165.003261 
L 349.17945 164.427629 
L 350.290266 164.605876 
L 351.401082 164.574745 
L 352.511899 164.344826 
L 354.178123 163.646227 
L 354.733531 163.797422 
L 355.844347 163.165182 
L 356.955163 163.058346 
L 357.510571 162.556633 
L 358.06598 162.75713 
L 359.176796 162.839363 
L 359.732204 162.77047 
L 359.732204 162.77047 
" clip-path="url(#p0e8c3b589f)" style="fill: none; stroke: #1f77b4; stroke-width: 1.5; stroke-linecap: square"/>
   </g>
   <g id="line2d_16">
    <path d="M 55.368567 145.924555 
L 55.923976 140.315735 
L 57.034792 145.232783 
L 57.5902 144.815172 
L 58.145608 145.079113 
L 59.256424 145.911025 
L 59.811832 146.150319 
L 60.36724 146.160031 
L 60.922648 145.945725 
L 61.478057 145.432847 
L 62.033465 144.480536 
L 63.699689 140.520737 
L 64.255097 139.816429 
L 65.365913 139.120713 
L 65.921321 138.798811 
L 66.476729 138.858446 
L 67.032137 139.119469 
L 67.587546 139.00474 
L 68.698362 139.716541 
L 69.25377 140.041056 
L 69.809178 140.538439 
L 71.475402 142.849895 
L 72.03081 142.875082 
L 72.586218 142.403862 
L 73.697035 140.760355 
L 74.252443 139.677845 
L 74.807851 138.249366 
L 75.363259 136.396486 
L 76.474075 138.114588 
L 78.140299 140.719491 
L 78.695707 141.045522 
L 79.251116 140.334517 
L 79.806524 139.061207 
L 80.361932 138.161848 
L 80.91734 137.890058 
L 81.472748 137.830222 
L 82.028156 137.475741 
L 82.583564 136.9141 
L 83.69438 138.423648 
L 84.805197 139.212677 
L 86.471421 140.293854 
L 87.582237 139.90723 
L 88.137645 139.990871 
L 90.914686 141.576934 
L 91.470094 142.068184 
L 92.58091 143.559457 
L 93.136318 144.361635 
L 93.691726 144.939461 
L 94.247134 145.210304 
L 95.913358 145.613366 
L 96.468767 145.436041 
L 97.024175 144.555981 
L 97.579583 143.194352 
L 98.690399 141.684596 
L 99.801215 142.281837 
L 100.912031 143.407822 
L 101.467439 143.973805 
L 102.022847 144.261018 
L 102.578256 144.055913 
L 103.133664 143.33151 
L 104.799888 140.123261 
L 105.355296 139.417292 
L 106.466112 140.199662 
L 107.576928 140.588941 
L 109.243153 141.138915 
L 109.798561 140.968595 
L 110.909377 140.207855 
L 112.575601 139.49175 
L 113.686417 138.130065 
L 114.241826 137.735483 
L 115.352642 136.424069 
L 117.018866 133.919756 
L 117.574274 133.62269 
L 118.129682 133.636873 
L 118.68509 133.268346 
L 119.240498 134.005783 
L 119.795907 133.274418 
L 120.351315 132.191902 
L 120.906723 131.536051 
L 121.462131 130.598211 
L 122.572947 131.488615 
L 123.683763 132.495142 
L 124.239171 132.85117 
L 124.794579 133.023885 
L 125.905396 133.080041 
L 126.460804 132.847815 
L 127.016212 132.08025 
L 127.57162 130.086783 
L 128.127028 132.330649 
L 133.125701 132.553525 
L 135.902741 132.880549 
L 137.568966 133.326945 
L 138.679782 133.912347 
L 139.23519 134.323203 
L 139.790598 134.463109 
L 140.346006 128.333851 
L 142.01223 132.093136 
L 142.567638 133.095847 
L 143.123047 133.733912 
L 144.233863 135.316376 
L 144.789271 135.689279 
L 146.455495 137.133272 
L 148.121719 138.371265 
L 148.677128 138.484701 
L 149.232536 138.290201 
L 149.787944 137.875936 
L 150.343352 137.797397 
L 150.89876 137.50831 
L 151.454168 137.557617 
L 152.564984 137.096753 
L 153.6758 137.604576 
L 155.342025 138.246311 
L 156.452841 138.762827 
L 157.008249 138.913234 
L 157.563657 138.840279 
L 158.119065 138.588729 
L 158.674473 138.657565 
L 160.340698 138.134697 
L 163.117738 137.799351 
L 163.673146 137.649889 
L 164.228554 137.381758 
L 164.783962 136.978992 
L 165.33937 122.736113 
L 165.894778 134.84275 
L 166.450187 134.640948 
L 167.005595 133.503963 
L 167.561003 124.164471 
L 168.116411 132.280302 
L 168.671819 132.060535 
L 169.227227 131.643864 
L 169.782635 130.950144 
L 170.338043 125.275742 
L 170.893451 128.265049 
L 172.004268 124.80454 
L 172.559676 124.05464 
L 173.115084 123.85026 
L 173.670492 121.753251 
L 174.2259 123.198142 
L 174.781308 122.696543 
L 175.892124 121.479133 
L 176.447532 121.65942 
L 178.113757 122.594601 
L 178.669165 122.59318 
L 179.224573 119.581218 
L 179.779981 121.201975 
L 180.890797 120.68218 
L 182.001613 119.909173 
L 182.557021 119.471759 
L 183.667838 118.909675 
L 184.778654 118.101892 
L 185.334062 117.948511 
L 185.88947 117.435033 
L 186.444878 117.164883 
L 187.000286 116.586201 
L 187.555694 116.23016 
L 188.111102 115.631112 
L 188.66651 115.234661 
L 189.221918 115.00278 
L 189.777327 114.528227 
L 190.332735 113.600101 
L 190.888143 115.220619 
L 191.443551 115.009149 
L 191.998959 114.283895 
L 192.554367 113.959959 
L 193.109775 113.984012 
L 193.665183 113.756372 
L 194.220591 112.695691 
L 194.775999 111.392664 
L 195.331408 110.819461 
L 195.886816 111.095594 
L 196.997632 112.579865 
L 198.108448 113.328451 
L 198.663856 113.592711 
L 199.219264 113.72449 
L 200.885488 113.461629 
L 201.996305 113.00153 
L 203.107121 112.263648 
L 204.217937 111.192579 
L 205.328753 111.119097 
L 206.439569 111.300383 
L 208.105794 111.970753 
L 208.661202 111.935341 
L 209.21661 111.549768 
L 210.882834 109.659957 
L 213.104467 108.680411 
L 214.770691 108.279738 
L 215.326099 107.916509 
L 215.881507 107.229655 
L 216.436915 107.822956 
L 216.992323 108.605558 
L 218.103139 109.185101 
L 218.658548 109.059071 
L 219.769364 107.253084 
L 220.324772 106.024284 
L 222.546404 107.297539 
L 224.212629 107.920317 
L 225.878853 108.212342 
L 226.989669 108.196009 
L 227.545077 108.088559 
L 229.766709 108.230102 
L 230.322118 107.903176 
L 230.877526 107.758404 
L 231.432934 107.42311 
L 231.988342 107.512635 
L 232.54375 107.397224 
L 233.654566 106.641231 
L 234.209974 106.313835 
L 234.765382 106.381978 
L 235.32079 105.884003 
L 235.876199 104.982531 
L 236.431607 103.84792 
L 236.987015 103.401483 
L 237.542423 103.101323 
L 243.651912 103.418268 
L 244.20732 103.335482 
L 244.762728 103.130516 
L 245.318136 103.119145 
L 246.428952 103.691571 
L 247.539769 104.667746 
L 248.095177 104.919679 
L 249.205993 104.964334 
L 250.872217 104.840765 
L 251.427625 104.492344 
L 252.538441 103.581231 
L 253.649258 104.030313 
L 254.760074 104.291418 
L 255.315482 104.350405 
L 256.426298 104.073312 
L 256.981706 103.811107 
L 257.537114 103.855372 
L 258.092522 103.680186 
L 258.64793 102.701902 
L 259.203339 102.925895 
L 259.758747 102.297628 
L 260.314155 102.770661 
L 261.424971 102.819919 
L 265.312828 102.491684 
L 265.868236 102.350548 
L 266.423644 102.067664 
L 266.979052 101.511375 
L 267.53446 100.757438 
L 269.200684 100.766389 
L 271.422317 100.738339 
L 273.088541 100.744452 
L 274.199357 100.598615 
L 274.754765 100.422856 
L 275.865581 100.398658 
L 280.864254 100.495131 
L 285.307519 100.461285 
L 286.973743 100.362979 
L 288.639968 100.357476 
L 289.750784 99.975907 
L 291.417008 98.931513 
L 294.194049 99.385101 
L 295.304865 99.760142 
L 296.415681 100.53855 
L 297.526497 100.784877 
L 298.081905 100.795588 
L 298.637313 100.484816 
L 300.858946 100.730586 
L 303.080578 101.27771 
L 304.191394 101.165071 
L 305.857619 100.619956 
L 310.300883 101.381909 
L 310.856291 101.272223 
L 311.4117 100.870899 
L 313.077924 98.481461 
L 313.633332 98.790275 
L 314.744148 98.941558 
L 315.854964 98.989401 
L 316.96578 99.09125 
L 317.521189 99.017302 
L 318.076597 98.779984 
L 320.298229 97.280878 
L 320.853637 97.549639 
L 321.964453 97.729575 
L 323.07527 97.705138 
L 324.186086 97.530673 
L 325.296902 97.187849 
L 326.407718 96.579444 
L 327.518534 95.705507 
L 330.295575 95.839513 
L 332.517207 95.739498 
L 337.51588 95.175018 
L 340.848329 93.952839 
L 341.959145 93.269791 
L 343.069961 93.393495 
L 344.180777 93.280425 
L 345.291593 92.773662 
L 345.847001 92.438862 
L 346.40241 92.550368 
L 348.068634 92.166341 
L 349.17945 91.540131 
L 350.290266 91.704186 
L 351.95649 91.648162 
L 353.622715 91.371049 
L 354.733531 91.09973 
L 356.399755 90.11291 
L 356.955163 89.96433 
L 357.510571 89.318142 
L 358.06598 89.571397 
L 359.176796 89.632822 
L 359.732204 89.530693 
L 359.732204 89.530693 
" clip-path="url(#p0e8c3b589f)" style="fill: none; stroke: #ff7f0e; stroke-width: 1.5; stroke-linecap: square"/>
   </g>
   <g id="line2d_17">
    <path d="M 55.368567 42.060838 
L 55.923976 49.501579 
L 56.479384 53.548946 
L 57.034792 59.038493 
L 57.5902 61.197054 
L 58.145608 61.261785 
L 59.811832 60.941598 
L 60.36724 60.847284 
L 60.922648 60.565716 
L 61.478057 60.00174 
L 62.033465 59.13028 
L 63.699689 55.717233 
L 64.255097 54.946761 
L 64.810505 54.672171 
L 65.921321 54.748108 
L 66.476729 54.042897 
L 67.587546 51.015342 
L 68.142954 51.37502 
L 69.25377 52.637116 
L 69.809178 53.29668 
L 70.364586 53.756643 
L 71.475402 54.249374 
L 72.03081 54.242255 
L 72.586218 53.905917 
L 74.807851 51.488242 
L 75.363259 50.629894 
L 75.918667 51.686806 
L 77.584891 55.643272 
L 78.140299 56.543234 
L 78.695707 57.147237 
L 79.251116 57.149078 
L 80.361932 56.09905 
L 80.91734 56.110556 
L 81.472748 56.361151 
L 82.028156 56.1854 
L 82.583564 55.267245 
L 84.249788 58.019057 
L 84.805197 59.201402 
L 85.360605 59.967926 
L 85.916013 60.017901 
L 87.026829 59.515703 
L 87.582237 58.807765 
L 88.137645 57.835062 
L 88.693053 57.140307 
L 89.248461 56.672627 
L 89.803869 55.998825 
L 90.914686 57.408227 
L 92.025502 58.870621 
L 93.136318 59.545272 
L 93.691726 59.747869 
L 94.247134 59.701516 
L 94.802542 59.275568 
L 95.913358 57.719374 
L 97.024175 55.569236 
L 97.579583 54.846159 
L 98.690399 55.291877 
L 100.356623 58.094768 
L 101.467439 59.308246 
L 102.022847 59.829089 
L 102.578256 60.161564 
L 103.133664 59.953507 
L 103.689072 59.054649 
L 104.799888 56.50046 
L 105.355296 55.606636 
L 105.910704 56.004178 
L 106.466112 56.55399 
L 108.132337 59.045747 
L 108.687745 59.499689 
L 109.243153 59.750362 
L 109.798561 59.86872 
L 110.353969 59.587685 
L 110.909377 58.775782 
L 112.020193 56.888603 
L 113.686417 54.397113 
L 116.463458 56.525357 
L 117.574274 56.926003 
L 118.129682 56.473346 
L 118.68509 54.845272 
L 119.240498 55.83549 
L 120.351315 52.96306 
L 120.906723 52.382977 
L 121.462131 51.598766 
L 122.572947 52.163851 
L 123.128355 52.765718 
L 124.239171 54.283352 
L 124.794579 54.538912 
L 125.349987 54.199087 
L 125.905396 53.438822 
L 127.016212 51.059855 
L 127.57162 47.196798 
L 128.127028 51.434346 
L 130.904068 51.721924 
L 133.125701 52.181894 
L 134.791925 52.743009 
L 136.458149 53.584788 
L 139.23519 55.275018 
L 139.790598 54.316001 
L 140.346006 49.234718 
L 141.456822 51.956245 
L 142.01223 52.97754 
L 142.567638 53.737637 
L 143.123047 54.046854 
L 143.678455 54.136592 
L 144.233863 53.576077 
L 144.789271 52.516953 
L 145.900087 53.74566 
L 147.566311 55.849933 
L 148.121719 56.117413 
L 148.677128 56.043313 
L 149.787944 55.424685 
L 150.343352 55.567385 
L 150.89876 55.063566 
L 151.454168 54.84403 
L 152.009576 54.391772 
L 152.564984 53.780967 
L 153.6758 54.635861 
L 154.786617 55.670555 
L 155.342025 55.971157 
L 155.897433 55.965954 
L 157.008249 55.473051 
L 158.119065 54.577756 
L 158.674473 53.276356 
L 159.229881 51.657922 
L 159.785289 50.940133 
L 160.340698 51.160481 
L 160.896106 51.584877 
L 161.451514 52.246805 
L 162.56233 54.187431 
L 163.117738 55.213225 
L 163.673146 55.923929 
L 164.228554 56.033983 
L 164.783962 55.590732 
L 165.33937 34.0709 
L 165.894778 51.109199 
L 166.450187 52.095517 
L 167.005595 51.664655 
L 167.561003 36.525499 
L 168.116411 51.212583 
L 169.782635 52.342789 
L 170.338043 39.446922 
L 170.893451 50.8902 
L 171.448859 50.846049 
L 172.559676 50.125459 
L 173.115084 49.555975 
L 173.670492 39.470338 
L 174.2259 47.889489 
L 174.781308 47.412158 
L 175.892124 45.488695 
L 176.447532 45.808456 
L 178.669165 47.556146 
L 179.224573 36.180722 
L 179.779981 46.309199 
L 180.890797 45.999987 
L 182.001613 45.505667 
L 182.557021 45.220206 
L 184.223246 44.76837 
L 184.778654 44.141412 
L 185.334062 44.308606 
L 185.88947 43.834387 
L 187.000286 43.240437 
L 187.555694 42.572593 
L 188.111102 42.332062 
L 188.66651 41.399589 
L 189.221918 41.540638 
L 189.777327 41.829879 
L 190.332735 34.820082 
L 190.888143 43.456332 
L 191.443551 43.580228 
L 192.554367 42.764656 
L 193.109775 42.431394 
L 193.665183 41.559603 
L 195.331408 36.598731 
L 195.886816 36.666921 
L 196.442224 37.074985 
L 198.663856 40.317852 
L 199.219264 40.799498 
L 199.774672 40.950129 
L 201.440897 40.976023 
L 202.551713 40.390156 
L 203.107121 39.933624 
L 204.217937 38.229339 
L 205.328753 38.324441 
L 205.884161 38.563052 
L 206.994978 39.425179 
L 208.105794 40.372264 
L 208.661202 40.490567 
L 209.21661 40.191485 
L 209.772018 39.491284 
L 210.882834 37.772446 
L 211.438242 37.28176 
L 211.99365 37.487879 
L 212.549058 37.462199 
L 214.770691 36.333301 
L 215.326099 34.705996 
L 215.881507 34.650734 
L 216.436915 34.845772 
L 216.992323 35.32095 
L 217.547731 35.541572 
L 218.103139 35.602019 
L 218.658548 35.541638 
L 219.213956 34.803979 
L 219.769364 34.309886 
L 220.324772 33.373171 
L 222.546404 34.712306 
L 224.212629 35.456173 
L 225.878853 35.915559 
L 226.989669 36.007416 
L 227.545077 35.930221 
L 228.655893 36.127398 
L 229.211301 36.33684 
L 229.766709 36.400824 
L 231.432934 35.174018 
L 231.988342 35.248552 
L 232.54375 35.1788 
L 233.654566 34.576602 
L 234.209974 34.285524 
L 234.765382 34.296979 
L 235.32079 33.402208 
L 235.876199 32.257235 
L 236.431607 30.599908 
L 236.987015 29.437633 
L 237.542423 28.743342 
L 238.653239 28.995023 
L 240.874871 29.896868 
L 241.430279 29.917335 
L 242.541096 29.731611 
L 243.096504 29.403014 
L 243.651912 29.294659 
L 244.762728 29.339601 
L 245.318136 29.663541 
L 246.428952 30.687825 
L 247.539769 32.155808 
L 248.095177 32.615222 
L 248.650585 32.730103 
L 249.761401 32.41141 
L 250.316809 32.192136 
L 250.872217 31.826863 
L 252.538441 29.750312 
L 253.649258 30.38889 
L 254.760074 30.791263 
L 255.315482 30.898611 
L 255.87089 30.841283 
L 256.426298 30.653282 
L 256.981706 30.199362 
L 257.537114 30.323897 
L 258.092522 29.910567 
L 258.64793 29.084864 
L 259.203339 28.764596 
L 259.758747 28.249586 
L 260.869563 28.822767 
L 262.535787 29.094014 
L 263.646603 29.029122 
L 264.757419 28.76033 
L 265.868236 28.267378 
L 266.423644 27.792394 
L 267.53446 26.072605 
L 269.200684 26.395496 
L 271.977725 26.726322 
L 273.088541 26.593412 
L 274.199357 26.266143 
L 275.310173 25.849677 
L 285.307519 26.833515 
L 285.862927 26.717078 
L 286.418335 26.470314 
L 287.529151 25.452291 
L 288.639968 24.518616 
L 289.195376 24.32043 
L 290.306192 24.576151 
L 290.8616 24.471086 
L 291.417008 24.218314 
L 293.63864 25.057741 
L 295.304865 25.351352 
L 296.415681 25.909167 
L 296.971089 25.976087 
L 297.526497 25.921595 
L 298.081905 25.652541 
L 298.637313 25.046028 
L 301.969762 25.741372 
L 303.080578 26.014723 
L 303.635986 25.962439 
L 304.746802 25.526783 
L 305.857619 24.946696 
L 308.634659 25.4936 
L 309.745475 25.800064 
L 310.300883 25.828291 
L 310.856291 25.654595 
L 311.4117 25.220388 
L 311.967108 24.537647 
L 313.077924 22.901692 
L 314.18874 23.129893 
L 315.299556 23.289144 
L 316.96578 23.745661 
L 317.521189 23.683366 
L 318.076597 23.266757 
L 319.187413 22.031008 
L 320.298229 21.15211 
L 321.964453 21.608082 
L 324.186086 22.154921 
L 324.741494 22.063748 
L 325.296902 21.804862 
L 327.518534 19.910475 
L 330.295575 20.135672 
L 335.294248 20.245462 
L 336.960472 20.188314 
L 338.071288 19.893143 
L 340.848329 18.970863 
L 341.959145 18.763545 
L 343.625369 19.24966 
L 344.180777 19.344451 
L 344.736185 19.320542 
L 345.847001 18.942648 
L 346.40241 19.059234 
L 348.068634 18.821629 
L 349.17945 18.161757 
L 350.290266 18.520669 
L 351.401082 18.729149 
L 353.622715 18.707418 
L 354.178123 18.535721 
L 354.733531 18.709792 
L 355.288939 18.479912 
L 355.844347 18.118681 
L 356.955163 17.848682 
L 357.510571 17.28 
L 358.06598 17.533754 
L 359.176796 17.651299 
L 359.732204 17.620926 
L 359.732204 17.620926 
" clip-path="url(#p0e8c3b589f)" style="fill: none; stroke: #2ca02c; stroke-width: 1.5; stroke-linecap: square"/>
   </g>
   <g id="patch_3">
    <path d="M 40.150386 228.96 
L 40.150386 7.2 
" style="fill: none; stroke: #000000; stroke-width: 0.8; stroke-linejoin: miter; stroke-linecap: square"/>
   </g>
   <g id="patch_4">
    <path d="M 374.950386 228.96 
L 374.950386 7.2 
" style="fill: none; stroke: #000000; stroke-width: 0.8; stroke-linejoin: miter; stroke-linecap: square"/>
   </g>
   <g id="patch_5">
    <path d="M 40.150386 228.96 
L 374.950386 228.96 
" style="fill: none; stroke: #000000; stroke-width: 0.8; stroke-linejoin: miter; stroke-linecap: square"/>
   </g>
   <g id="patch_6">
    <path d="M 40.150386 7.2 
L 374.950386 7.2 
" style="fill: none; stroke: #000000; stroke-width: 0.8; stroke-linejoin: miter; stroke-linecap: square"/>
   </g>
   <g id="legend_1">
    <g id="patch_7">
     <path d="M 323.445187 223.96 
L 367.950386 223.96 
Q 369.950386 223.96 369.950386 221.96 
L 369.950386 180.29908 
Q 369.950386 178.29908 367.950386 178.29908 
L 323.445187 178.29908 
Q 321.445187 178.29908 321.445187 180.29908 
L 321.445187 221.96 
Q 321.445187 223.96 323.445187 223.96 
z
" style="fill: #ffffff; opacity: 0.8; stroke: #cccccc; stroke-linejoin: miter"/>
    </g>
    <g id="line2d_18">
     <path d="M 325.445187 185.8974 
L 335.445187 185.8974 
L 345.445187 185.8974 
" style="fill: none; stroke: #1f77b4; stroke-width: 1.5; stroke-linecap: square"/>
    </g>
    <g id="text_17">
     <!-- $\rho$ -->
     <g transform="translate(353.445187 189.3974) scale(0.1 -0.1)">
      <defs>
       <path id="CMMI12-1a" d="M 198 -1085 
C 192 -1116 179 -1154 179 -1191 
C 179 -1287 256 -1351 352 -1351 
C 448 -1351 538 -1287 576 -1198 
C 602 -1141 781 -390 986 389 
C 1114 70 1350 -64 1600 -64 
C 2323 -64 3142 830 3142 1794 
C 3142 2477 2726 2816 2285 2816 
C 1722 2816 1037 2234 826 1385 
L 198 -1085 
z
M 1594 64 
C 1158 64 1050 568 1050 645 
C 1050 683 1210 1289 1229 1385 
C 1555 2656 2182 2687 2278 2687 
C 2566 2687 2726 2426 2726 2049 
C 2726 1724 2554 1091 2445 823 
C 2253 383 1920 64 1594 64 
z
" transform="scale(0.015625)"/>
      </defs>
      <use xlink:href="#CMMI12-1a" transform="scale(0.996264)"/>
     </g>
    </g>
    <g id="line2d_19">
     <path d="M 325.445187 200.117707 
L 335.445187 200.117707 
L 345.445187 200.117707 
" style="fill: none; stroke: #ff7f0e; stroke-width: 1.5; stroke-linecap: square"/>
    </g>
    <g id="text_18">
     <!-- $\rho u$ -->
     <g transform="translate(353.445187 203.617707) scale(0.1 -0.1)">
      <defs>
       <path id="CMMI12-75" d="M 2182 370 
C 2266 12 2573 -64 2726 -64 
C 2931 -64 3085 70 3187 287 
C 3296 517 3379 893 3379 913 
C 3379 944 3354 970 3315 970 
C 3258 970 3251 938 3226 842 
C 3110 402 2995 64 2739 64 
C 2547 64 2547 274 2547 357 
C 2547 504 2566 568 2630 836 
C 2675 1008 2720 1181 2758 1359 
L 3021 2400 
C 3066 2560 3066 2572 3066 2591 
C 3066 2687 2989 2752 2893 2752 
C 2707 2752 2662 2591 2624 2432 
C 2560 2183 2214 810 2170 587 
C 2163 587 1914 64 1446 64 
C 1114 64 1050 351 1050 587 
C 1050 951 1229 1462 1395 1890 
C 1472 2094 1504 2177 1504 2305 
C 1504 2579 1306 2816 998 2816 
C 410 2816 173 1890 173 1838 
C 173 1813 198 1781 243 1781 
C 301 1781 307 1807 333 1896 
C 486 2445 736 2687 979 2687 
C 1043 2687 1146 2681 1146 2477 
C 1146 2311 1075 2126 979 1883 
C 698 1123 666 881 666 689 
C 666 38 1158 -64 1421 -64 
C 1830 -64 2054 217 2182 370 
z
" transform="scale(0.015625)"/>
      </defs>
      <use xlink:href="#CMMI12-1a" transform="scale(0.996264)"/>
      <use xlink:href="#CMMI12-75" transform="translate(50.314373 0) scale(0.996264)"/>
     </g>
    </g>
    <g id="line2d_20">
     <path d="M 325.445187 214.338014 
L 335.445187 214.338014 
L 345.445187 214.338014 
" style="fill: none; stroke: #2ca02c; stroke-width: 1.5; stroke-linecap: square"/>
    </g>
    <g id="text_19">
     <!-- $\rho E$ -->
     <g transform="translate(353.445187 217.838014) scale(0.1 -0.1)">
      <defs>
       <path id="CMMI12-45" d="M 4448 1489 
C 4454 1508 4474 1553 4474 1578 
C 4474 1611 4448 1643 4410 1643 
C 4384 1643 4371 1636 4352 1617 
C 4339 1611 4339 1598 4282 1469 
C 3904 570 3629 185 2605 185 
L 1670 185 
C 1581 185 1568 185 1530 192 
C 1459 198 1453 211 1453 262 
C 1453 307 1466 346 1478 403 
L 1920 2176 
L 2554 2176 
C 3053 2176 3091 2066 3091 1874 
C 3091 1810 3091 1752 3046 1559 
C 3034 1534 3027 1508 3027 1489 
C 3027 1444 3059 1424 3098 1424 
C 3155 1424 3162 1469 3187 1559 
L 3552 3036 
C 3552 3068 3526 3099 3488 3099 
C 3430 3099 3424 3074 3398 2986 
C 3270 2500 3142 2361 2573 2361 
L 1965 2361 
L 2362 3913 
C 2419 4134 2432 4153 2694 4153 
L 3610 4153 
C 4397 4153 4557 3945 4557 3465 
C 4557 3459 4557 3282 4531 3074 
C 4525 3049 4518 3011 4518 2998 
C 4518 2948 4550 2929 4589 2929 
C 4634 2929 4659 2954 4672 3068 
L 4806 4172 
C 4806 4191 4819 4255 4819 4268 
C 4819 4339 4762 4339 4646 4339 
L 1523 4339 
C 1402 4339 1338 4339 1338 4223 
C 1338 4153 1382 4153 1491 4153 
C 1888 4153 1888 4109 1888 4039 
C 1888 4008 1882 3983 1862 3913 
L 998 474 
C 941 249 928 185 480 185 
C 358 185 294 185 294 70 
C 294 0 333 0 461 0 
L 3674 0 
C 3814 0 3821 6 3866 108 
L 4448 1489 
z
" transform="scale(0.015625)"/>
      </defs>
      <use xlink:href="#CMMI12-1a" transform="scale(0.996264)"/>
      <use xlink:href="#CMMI12-45" transform="translate(50.314373 0) scale(0.996264)"/>
     </g>
    </g>
   </g>
  </g>
 </g>
 <defs>
  <clipPath id="p0e8c3b589f">
   <rect x="40.150386" y="7.2" width="334.8" height="221.76"/>
  </clipPath>
 </defs>
</svg>
