<?xml version="1.0" encoding="utf-8" standalone="no"?>
<!DOCTYPE svg PUBLIC "-//W3C//DTD SVG 1.1//EN"
  "http://www.w3.org/Graphics/SVG/1.1/DTD/svg11.dtd">
<svg xmlns:xlink="http://www.w3.org/1999/xlink" width="394.271302pt" height="265.600613pt" viewBox="0 0 394.271302 265.600613" xmlns="http://www.w3.org/2000/svg" version="1.1">
 <metadata>
  <rdf:RDF xmlns:dc="http://purl.org/dc/elements/1.1/" xmlns:cc="http://creativecommons.org/ns#" xmlns:rdf="http://www.w3.org/1999/02/22-rdf-syntax-ns#">
   <cc:Work>
    <dc:type rdf:resource="http://purl.org/dc/dcmitype/StillImage"/>
    <dc:date>2025-07-17T19:49:54.592528</dc:date>
    <dc:format>image/svg+xml</dc:format>
    <dc:creator>
     <cc:Agent>
      <dc:title>Matplotlib v3.10.3, https://matplotlib.org/</dc:title>
     </cc:Agent>
    </dc:creator>
   </cc:Work>
  </rdf:RDF>
 </metadata>
 <defs>
  <style type="text/css">*{stroke-linejoin: round; stroke-linecap: butt}</style>
 </defs>
 <g id="figure_1">
  <g id="patch_1">
   <path d="M 0 265.600613 
L 394.271302 265.600613 
L 394.271302 0 
L 0 0 
z
" style="fill: #ffffff"/>
  </g>
  <g id="axes_1">
   <g id="patch_2">
    <path d="M 45.316088 228.96 
L 380.116088 228.96 
L 380.116088 7.2 
L 45.316088 7.2 
z
" style="fill: #ffffff"/>
   </g>
   <g id="matplotlib.axis_1">
    <g id="xtick_1">
     <g id="line2d_1">
      <defs>
       <path id="m4d380cf025" d="M 0 0 
L 0 3.5 
" style="stroke: #000000; stroke-width: 0.8"/>
      </defs>
      <g>
       <use xlink:href="#m4d380cf025" x="60.53427" y="228.96" style="stroke: #000000; stroke-width: 0.8"/>
      </g>
     </g>
     <g id="text_1">
      <!-- $\mathdefault{0}$ -->
      <g transform="translate(58.043602 243.05832) scale(0.1 -0.1)">
       <defs>
        <path id="CMR17-30" d="M 2688 2038 
C 2688 2430 2682 3099 2413 3613 
C 2176 4063 1798 4224 1466 4224 
C 1158 4224 768 4082 525 3620 
C 269 3137 243 2539 243 2038 
C 243 1671 250 1112 448 623 
C 723 -39 1216 -128 1466 -128 
C 1760 -128 2208 -7 2470 604 
C 2662 1048 2688 1568 2688 2038 
z
M 1466 -26 
C 1056 -26 813 328 723 816 
C 653 1196 653 1749 653 2109 
C 653 2604 653 3015 736 3407 
C 858 3954 1216 4121 1466 4121 
C 1728 4121 2067 3947 2189 3420 
C 2272 3054 2278 2623 2278 2109 
C 2278 1691 2278 1176 2202 797 
C 2067 96 1690 -26 1466 -26 
z
" transform="scale(0.015625)"/>
       </defs>
       <use xlink:href="#CMR17-30" transform="scale(0.996264)"/>
      </g>
     </g>
    </g>
    <g id="xtick_2">
     <g id="line2d_2">
      <g>
       <use xlink:href="#m4d380cf025" x="105.759179" y="228.96" style="stroke: #000000; stroke-width: 0.8"/>
      </g>
     </g>
     <g id="text_2">
      <!-- $\mathdefault{200}$ -->
      <g transform="translate(98.287176 243.05832) scale(0.1 -0.1)">
       <defs>
        <path id="CMR17-32" d="M 2669 990 
L 2554 990 
C 2490 537 2438 460 2413 422 
C 2381 371 1920 371 1830 371 
L 602 371 
C 832 620 1280 1073 1824 1596 
C 2214 1966 2669 2400 2669 3033 
C 2669 3788 2067 4224 1395 4224 
C 691 4224 262 3603 262 3027 
C 262 2777 448 2745 525 2745 
C 589 2745 781 2783 781 3007 
C 781 3206 614 3264 525 3264 
C 486 3264 448 3257 422 3244 
C 544 3788 915 4057 1306 4057 
C 1862 4057 2227 3616 2227 3033 
C 2227 2477 1901 1998 1536 1583 
L 262 147 
L 262 0 
L 2515 0 
L 2669 990 
z
" transform="scale(0.015625)"/>
       </defs>
       <use xlink:href="#CMR17-32" transform="scale(0.996264)"/>
       <use xlink:href="#CMR17-30" transform="translate(45.690477 0) scale(0.996264)"/>
       <use xlink:href="#CMR17-30" transform="translate(91.380954 0) scale(0.996264)"/>
      </g>
     </g>
    </g>
    <g id="xtick_3">
     <g id="line2d_3">
      <g>
       <use xlink:href="#m4d380cf025" x="150.984088" y="228.96" style="stroke: #000000; stroke-width: 0.8"/>
      </g>
     </g>
     <g id="text_3">
      <!-- $\mathdefault{400}$ -->
      <g transform="translate(143.512085 243.05832) scale(0.1 -0.1)">
       <defs>
        <path id="CMR17-34" d="M 2150 4147 
C 2150 4281 2144 4288 2029 4288 
L 128 1254 
L 128 1088 
L 1779 1088 
L 1779 460 
C 1779 230 1766 166 1318 166 
L 1197 166 
L 1197 0 
C 1402 12 1747 12 1965 12 
C 2182 12 2528 12 2733 0 
L 2733 166 
L 2611 166 
C 2163 166 2150 230 2150 460 
L 2150 1088 
L 2803 1088 
L 2803 1254 
L 2150 1254 
L 2150 4147 
z
M 1798 3723 
L 1798 1254 
L 256 1254 
L 1798 3723 
z
" transform="scale(0.015625)"/>
       </defs>
       <use xlink:href="#CMR17-34" transform="scale(0.996264)"/>
       <use xlink:href="#CMR17-30" transform="translate(45.690477 0) scale(0.996264)"/>
       <use xlink:href="#CMR17-30" transform="translate(91.380954 0) scale(0.996264)"/>
      </g>
     </g>
    </g>
    <g id="xtick_4">
     <g id="line2d_4">
      <g>
       <use xlink:href="#m4d380cf025" x="196.208996" y="228.96" style="stroke: #000000; stroke-width: 0.8"/>
      </g>
     </g>
     <g id="text_4">
      <!-- $\mathdefault{600}$ -->
      <g transform="translate(188.736994 243.05832) scale(0.1 -0.1)">
       <defs>
        <path id="CMR17-36" d="M 678 2198 
C 678 3712 1395 4076 1811 4076 
C 1946 4076 2272 4049 2400 3782 
C 2298 3782 2106 3782 2106 3558 
C 2106 3385 2246 3328 2336 3328 
C 2394 3328 2566 3353 2566 3571 
C 2566 3987 2246 4224 1805 4224 
C 1043 4224 243 3411 243 2011 
C 243 257 966 -128 1478 -128 
C 2099 -128 2688 431 2688 1295 
C 2688 2101 2170 2688 1517 2688 
C 1126 2688 838 2430 678 1979 
L 678 2198 
z
M 1478 25 
C 691 25 691 1212 691 1450 
C 691 1914 909 2585 1504 2585 
C 1613 2585 1926 2585 2138 2140 
C 2253 1889 2253 1624 2253 1302 
C 2253 954 2253 696 2118 438 
C 1978 173 1773 25 1478 25 
z
" transform="scale(0.015625)"/>
       </defs>
       <use xlink:href="#CMR17-36" transform="scale(0.996264)"/>
       <use xlink:href="#CMR17-30" transform="translate(45.690477 0) scale(0.996264)"/>
       <use xlink:href="#CMR17-30" transform="translate(91.380954 0) scale(0.996264)"/>
      </g>
     </g>
    </g>
    <g id="xtick_5">
     <g id="line2d_5">
      <g>
       <use xlink:href="#m4d380cf025" x="241.433905" y="228.96" style="stroke: #000000; stroke-width: 0.8"/>
      </g>
     </g>
     <g id="text_5">
      <!-- $\mathdefault{800}$ -->
      <g transform="translate(233.961902 243.05832) scale(0.1 -0.1)">
       <defs>
        <path id="CMR17-38" d="M 1741 2289 
C 2144 2494 2554 2803 2554 3298 
C 2554 3884 1990 4224 1472 4224 
C 890 4224 378 3800 378 3215 
C 378 3054 416 2777 666 2533 
C 730 2469 998 2276 1171 2154 
C 883 2006 211 1652 211 945 
C 211 282 838 -128 1459 -128 
C 2144 -128 2720 366 2720 1022 
C 2720 1607 2330 1877 2074 2051 
L 1741 2289 
z
M 902 2855 
C 851 2887 595 3086 595 3388 
C 595 3781 998 4076 1459 4076 
C 1965 4076 2336 3716 2336 3298 
C 2336 2700 1670 2359 1638 2359 
C 1632 2359 1626 2359 1574 2398 
L 902 2855 
z
M 2080 1536 
C 2176 1466 2483 1253 2483 861 
C 2483 385 2010 25 1472 25 
C 890 25 448 443 448 951 
C 448 1459 838 1884 1280 2083 
L 2080 1536 
z
" transform="scale(0.015625)"/>
       </defs>
       <use xlink:href="#CMR17-38" transform="scale(0.996264)"/>
       <use xlink:href="#CMR17-30" transform="translate(45.690477 0) scale(0.996264)"/>
       <use xlink:href="#CMR17-30" transform="translate(91.380954 0) scale(0.996264)"/>
      </g>
     </g>
    </g>
    <g id="xtick_6">
     <g id="line2d_6">
      <g>
       <use xlink:href="#m4d380cf025" x="286.658814" y="228.96" style="stroke: #000000; stroke-width: 0.8"/>
      </g>
     </g>
     <g id="text_6">
      <!-- $\mathdefault{1000}$ -->
      <g transform="translate(276.696144 243.05832) scale(0.1 -0.1)">
       <defs>
        <path id="CMR17-31" d="M 1702 4083 
C 1702 4217 1696 4224 1606 4224 
C 1357 3927 979 3833 621 3820 
C 602 3820 570 3820 563 3808 
C 557 3795 557 3782 557 3648 
C 755 3648 1088 3686 1344 3839 
L 1344 467 
C 1344 243 1331 166 781 166 
L 589 166 
L 589 0 
C 896 6 1216 12 1523 12 
C 1830 12 2150 6 2458 0 
L 2458 166 
L 2266 166 
C 1715 166 1702 236 1702 467 
L 1702 4083 
z
" transform="scale(0.015625)"/>
       </defs>
       <use xlink:href="#CMR17-31" transform="scale(0.996264)"/>
       <use xlink:href="#CMR17-30" transform="translate(45.690477 0) scale(0.996264)"/>
       <use xlink:href="#CMR17-30" transform="translate(91.380954 0) scale(0.996264)"/>
       <use xlink:href="#CMR17-30" transform="translate(137.071431 0) scale(0.996264)"/>
      </g>
     </g>
    </g>
    <g id="xtick_7">
     <g id="line2d_7">
      <g>
       <use xlink:href="#m4d380cf025" x="331.883723" y="228.96" style="stroke: #000000; stroke-width: 0.8"/>
      </g>
     </g>
     <g id="text_7">
      <!-- $\mathdefault{1200}$ -->
      <g transform="translate(321.921052 243.05832) scale(0.1 -0.1)">
       <use xlink:href="#CMR17-31" transform="scale(0.996264)"/>
       <use xlink:href="#CMR17-32" transform="translate(45.690477 0) scale(0.996264)"/>
       <use xlink:href="#CMR17-30" transform="translate(91.380954 0) scale(0.996264)"/>
       <use xlink:href="#CMR17-30" transform="translate(137.071431 0) scale(0.996264)"/>
      </g>
     </g>
    </g>
    <g id="xtick_8">
     <g id="line2d_8">
      <g>
       <use xlink:href="#m4d380cf025" x="377.108632" y="228.96" style="stroke: #000000; stroke-width: 0.8"/>
      </g>
     </g>
     <g id="text_8">
      <!-- $\mathdefault{1400}$ -->
      <g transform="translate(367.145961 243.05832) scale(0.1 -0.1)">
       <use xlink:href="#CMR17-31" transform="scale(0.996264)"/>
       <use xlink:href="#CMR17-34" transform="translate(45.690477 0) scale(0.996264)"/>
       <use xlink:href="#CMR17-30" transform="translate(91.380954 0) scale(0.996264)"/>
       <use xlink:href="#CMR17-30" transform="translate(137.071431 0) scale(0.996264)"/>
      </g>
     </g>
    </g>
    <g id="text_9">
     <!-- Iteration -->
     <g transform="translate(194.768712 256.278627) scale(0.1 -0.1)">
      <defs>
       <path id="NimbusSanL-Regu-49" d="M 1242 4672 
L 640 4672 
L 640 0 
L 1242 0 
L 1242 4672 
z
" transform="scale(0.015625)"/>
       <path id="NimbusSanL-Regu-74" d="M 1626 3328 
L 1075 3328 
L 1075 4249 
L 544 4249 
L 544 3328 
L 90 3328 
L 90 2892 
L 544 2892 
L 544 402 
C 544 64 774 -128 1190 -128 
C 1318 -128 1446 -116 1626 -84 
L 1626 364 
C 1555 345 1472 339 1370 339 
C 1139 339 1075 402 1075 634 
L 1075 2892 
L 1626 2892 
L 1626 3328 
z
" transform="scale(0.015625)"/>
       <path id="NimbusSanL-Regu-65" d="M 3283 1484 
C 3283 1998 3245 2311 3149 2565 
C 2931 3123 2419 3456 1792 3456 
C 858 3456 256 2734 256 1619 
C 256 545 838 -128 1779 -128 
C 2547 -128 3078 307 3213 1018 
L 2675 1018 
C 2528 588 2227 364 1798 364 
C 1459 364 1171 514 992 787 
C 864 974 819 1161 813 1484 
L 3283 1484 
z
M 826 1920 
C 870 2552 1248 2963 1786 2963 
C 2310 2963 2714 2519 2714 1959 
C 2714 1946 2714 1933 2707 1920 
L 826 1920 
z
" transform="scale(0.015625)"/>
       <path id="NimbusSanL-Regu-72" d="M 442 3328 
L 442 0 
L 979 0 
L 979 1727 
C 979 2203 1101 2514 1357 2698 
C 1523 2819 1683 2857 2054 2863 
L 2054 3404 
C 1965 3449 1920 3456 1850 3456 
C 1504 3456 1242 3251 934 2750 
L 934 3328 
L 442 3328 
z
" transform="scale(0.015625)"/>
       <path id="NimbusSanL-Regu-61" d="M 3424 332 
C 3366 320 3341 320 3309 320 
C 3123 320 3021 415 3021 581 
L 3021 2542 
C 3021 3135 2586 3456 1760 3456 
C 1274 3456 870 3315 646 3065 
C 493 2893 429 2702 416 2370 
L 954 2370 
C 998 2778 1242 2963 1741 2963 
C 2221 2963 2490 2784 2490 2466 
L 2490 2326 
C 2490 2103 2355 2007 1933 1956 
C 1178 1861 1062 1835 858 1753 
C 467 1593 269 1294 269 861 
C 269 256 691 -128 1370 -128 
C 1792 -128 2131 19 2509 364 
C 2547 25 2714 -128 3059 -128 
C 3168 -128 3251 -116 3424 -71 
L 3424 332 
z
M 2490 1071 
C 2490 893 2438 785 2278 638 
C 2061 441 1798 339 1485 339 
C 1069 339 826 536 826 874 
C 826 1224 1062 1402 1632 1485 
C 2195 1562 2310 1587 2490 1670 
L 2490 1071 
z
" transform="scale(0.015625)"/>
       <path id="NimbusSanL-Regu-69" d="M 960 3358 
L 429 3358 
L 429 0 
L 960 0 
L 960 3358 
z
M 960 4672 
L 422 4672 
L 422 3999 
L 960 3999 
L 960 4672 
z
" transform="scale(0.015625)"/>
       <path id="NimbusSanL-Regu-6f" d="M 1741 3456 
C 800 3456 230 2784 230 1663 
C 230 543 794 -128 1747 -128 
C 2688 -128 3264 543 3264 1638 
C 3264 2791 2707 3456 1741 3456 
z
M 1747 2963 
C 2349 2963 2707 2472 2707 1644 
C 2707 861 2336 364 1747 364 
C 1152 364 787 855 787 1663 
C 787 2466 1152 2963 1747 2963 
z
" transform="scale(0.015625)"/>
       <path id="NimbusSanL-Regu-6e" d="M 448 3328 
L 448 0 
L 986 0 
L 986 1835 
C 986 2539 1344 2988 1894 2988 
C 2317 2988 2586 2732 2586 2328 
L 2586 0 
L 3117 0 
L 3117 2539 
C 3117 3097 2701 3456 2054 3456 
C 1555 3456 1235 3263 941 2796 
L 941 3328 
L 448 3328 
z
" transform="scale(0.015625)"/>
      </defs>
      <use xlink:href="#NimbusSanL-Regu-49" transform="scale(0.996264)"/>
      <use xlink:href="#NimbusSanL-Regu-74" transform="translate(27.69517 0) scale(0.996264)"/>
      <use xlink:href="#NimbusSanL-Regu-65" transform="translate(55.390339 0) scale(0.996264)"/>
      <use xlink:href="#NimbusSanL-Regu-72" transform="translate(110.782016 0) scale(0.996264)"/>
      <use xlink:href="#NimbusSanL-Regu-61" transform="translate(142.961149 0) scale(0.996264)"/>
      <use xlink:href="#NimbusSanL-Regu-74" transform="translate(198.352826 0) scale(0.996264)"/>
      <use xlink:href="#NimbusSanL-Regu-69" transform="translate(226.047996 0) scale(0.996264)"/>
      <use xlink:href="#NimbusSanL-Regu-6f" transform="translate(248.16478 0) scale(0.996264)"/>
      <use xlink:href="#NimbusSanL-Regu-6e" transform="translate(303.556457 0) scale(0.996264)"/>
     </g>
    </g>
   </g>
   <g id="matplotlib.axis_2">
    <g id="ytick_1">
     <g id="line2d_9">
      <defs>
       <path id="m05f2d64ebf" d="M 0 0 
L -3.5 0 
" style="stroke: #000000; stroke-width: 0.8"/>
      </defs>
      <g>
       <use xlink:href="#m05f2d64ebf" x="45.316088" y="209.318503" style="stroke: #000000; stroke-width: 0.8"/>
      </g>
     </g>
     <g id="text_10">
      <!-- $\mathdefault{−30}$ -->
      <g transform="translate(20.604674 212.867663) scale(0.1 -0.1)">
       <defs>
        <path id="CMSY10-0" d="M 4218 1472 
C 4326 1472 4442 1472 4442 1600 
C 4442 1728 4326 1728 4218 1728 
L 755 1728 
C 646 1728 531 1728 531 1600 
C 531 1472 646 1472 755 1472 
L 4218 1472 
z
" transform="scale(0.015625)"/>
        <path id="CMR17-33" d="M 1414 2176 
C 1984 2176 2234 1673 2234 1094 
C 2234 322 1824 25 1453 25 
C 1114 25 563 193 390 691 
C 422 678 454 678 486 678 
C 640 678 755 780 755 947 
C 755 1132 614 1216 486 1216 
C 378 1216 211 1164 211 927 
C 211 335 787 -128 1466 -128 
C 2176 -128 2720 432 2720 1087 
C 2720 1718 2208 2176 1600 2246 
C 2086 2347 2554 2776 2554 3353 
C 2554 3856 2048 4224 1472 4224 
C 890 4224 378 3862 378 3347 
C 378 3123 544 3084 627 3084 
C 762 3084 877 3167 877 3334 
C 877 3500 762 3584 627 3584 
C 602 3584 570 3584 544 3571 
C 730 3999 1235 4076 1459 4076 
C 1683 4076 2106 3966 2106 3347 
C 2106 3167 2080 2851 1862 2574 
C 1670 2329 1453 2316 1242 2297 
C 1210 2297 1062 2284 1037 2284 
C 992 2278 966 2272 966 2227 
C 966 2182 973 2176 1101 2176 
L 1414 2176 
z
" transform="scale(0.015625)"/>
       </defs>
       <use xlink:href="#CMSY10-0" transform="scale(0.996264)"/>
       <use xlink:href="#CMR17-33" transform="translate(77.487468 0) scale(0.996264)"/>
       <use xlink:href="#CMR17-30" transform="translate(123.177945 0) scale(0.996264)"/>
      </g>
     </g>
    </g>
    <g id="ytick_2">
     <g id="line2d_10">
      <g>
       <use xlink:href="#m05f2d64ebf" x="45.316088" y="161.77942" style="stroke: #000000; stroke-width: 0.8"/>
      </g>
     </g>
     <g id="text_11">
      <!-- $\mathdefault{−20}$ -->
      <g transform="translate(20.604674 165.32858) scale(0.1 -0.1)">
       <use xlink:href="#CMSY10-0" transform="scale(0.996264)"/>
       <use xlink:href="#CMR17-32" transform="translate(77.487468 0) scale(0.996264)"/>
       <use xlink:href="#CMR17-30" transform="translate(123.177945 0) scale(0.996264)"/>
      </g>
     </g>
    </g>
    <g id="ytick_3">
     <g id="line2d_11">
      <g>
       <use xlink:href="#m05f2d64ebf" x="45.316088" y="114.240336" style="stroke: #000000; stroke-width: 0.8"/>
      </g>
     </g>
     <g id="text_12">
      <!-- $\mathdefault{−10}$ -->
      <g transform="translate(20.604674 117.789496) scale(0.1 -0.1)">
       <use xlink:href="#CMSY10-0" transform="scale(0.996264)"/>
       <use xlink:href="#CMR17-31" transform="translate(77.487468 0) scale(0.996264)"/>
       <use xlink:href="#CMR17-30" transform="translate(123.177945 0) scale(0.996264)"/>
      </g>
     </g>
    </g>
    <g id="ytick_4">
     <g id="line2d_12">
      <g>
       <use xlink:href="#m05f2d64ebf" x="45.316088" y="66.701253" style="stroke: #000000; stroke-width: 0.8"/>
      </g>
     </g>
     <g id="text_13">
      <!-- $\mathdefault{0}$ -->
      <g transform="translate(33.334753 70.250413) scale(0.1 -0.1)">
       <use xlink:href="#CMR17-30" transform="scale(0.996264)"/>
      </g>
     </g>
    </g>
    <g id="ytick_5">
     <g id="line2d_13">
      <g>
       <use xlink:href="#m05f2d64ebf" x="45.316088" y="19.162169" style="stroke: #000000; stroke-width: 0.8"/>
      </g>
     </g>
     <g id="text_14">
      <!-- $\mathdefault{10}$ -->
      <g transform="translate(28.353418 22.711329) scale(0.1 -0.1)">
       <use xlink:href="#CMR17-31" transform="scale(0.996264)"/>
       <use xlink:href="#CMR17-30" transform="translate(45.690477 0) scale(0.996264)"/>
      </g>
     </g>
    </g>
    <g id="text_15">
     <!-- Aerodynamic Coefficients - Blade_17 -->
     <g transform="translate(14.482687 199.050447) rotate(-90) scale(0.1 -0.1)">
      <defs>
       <path id="NimbusSanL-Regu-41" d="M 3034 1408 
L 3514 0 
L 4179 0 
L 2541 4672 
L 1773 4672 
L 109 0 
L 742 0 
L 1235 1408 
L 3034 1408 
z
M 2867 1907 
L 1382 1907 
L 2150 4032 
L 2867 1907 
z
" transform="scale(0.015625)"/>
       <path id="NimbusSanL-Regu-64" d="M 3168 4672 
L 2637 4672 
L 2637 2937 
C 2413 3276 2054 3456 1606 3456 
C 736 3456 166 2759 166 1695 
C 166 568 723 -128 1626 -128 
C 2086 -128 2406 44 2694 460 
L 2694 19 
L 3168 19 
L 3168 4672 
z
M 1696 2956 
C 2272 2956 2637 2447 2637 1651 
C 2637 880 2266 371 1702 371 
C 1114 371 723 887 723 1663 
C 723 2440 1114 2956 1696 2956 
z
" transform="scale(0.015625)"/>
       <path id="NimbusSanL-Regu-79" d="M 2483 3328 
L 1555 724 
L 698 3328 
L 128 3328 
L 1261 -29 
L 1056 -558 
C 973 -794 851 -884 627 -884 
C 550 -884 461 -871 346 -845 
L 346 -1325 
C 454 -1383 563 -1408 704 -1408 
C 877 -1408 1062 -1351 1203 -1248 
C 1370 -1127 1466 -986 1568 -718 
L 3059 3328 
L 2483 3328 
z
" transform="scale(0.015625)"/>
       <path id="NimbusSanL-Regu-6d" d="M 448 3328 
L 448 0 
L 986 0 
L 986 2089 
C 986 2597 1338 2988 1773 2988 
C 2170 2988 2394 2744 2394 2315 
L 2394 0 
L 2931 0 
L 2931 2109 
C 2931 2597 3283 2988 3718 2988 
C 4109 2988 4339 2738 4339 2315 
L 4339 0 
L 4877 0 
L 4877 2520 
C 4877 3123 4531 3456 3904 3456 
C 3456 3456 3187 3321 2874 2943 
C 2675 3302 2406 3456 1971 3456 
C 1523 3456 1229 3289 941 2886 
L 941 3328 
L 448 3328 
z
" transform="scale(0.015625)"/>
       <path id="NimbusSanL-Regu-63" d="M 3014 2237 
C 2989 2561 2918 2771 2790 2956 
C 2560 3270 2157 3456 1690 3456 
C 787 3456 198 2740 198 1632 
C 198 555 774 -128 1683 -128 
C 2483 -128 2989 352 3053 1167 
L 2515 1167 
C 2426 632 2150 364 1696 364 
C 1107 364 755 842 755 1632 
C 755 2466 1101 2963 1683 2963 
C 2131 2963 2413 2701 2477 2237 
L 3014 2237 
z
" transform="scale(0.015625)"/>
       <path id="NimbusSanL-Regu-43" d="M 4237 3219 
C 4051 4236 3462 4736 2438 4736 
C 1811 4736 1306 4537 960 4154 
C 538 3696 307 3035 307 2284 
C 307 1522 544 867 986 415 
C 1344 44 1805 -128 2413 -128 
C 3552 -128 4192 485 4333 1712 
L 3718 1712 
C 3667 1394 3603 1178 3507 994 
C 3315 612 2918 396 2419 396 
C 1491 396 902 1134 902 2291 
C 902 3480 1466 4211 2368 4211 
C 2746 4211 3098 4096 3290 3918 
C 3462 3759 3558 3562 3629 3219 
L 4237 3219 
z
" transform="scale(0.015625)"/>
       <path id="NimbusSanL-Regu-66" d="M 1651 3328 
L 1094 3328 
L 1094 3860 
C 1094 4087 1222 4204 1466 4204 
C 1510 4204 1530 4204 1651 4198 
L 1651 4639 
C 1530 4665 1459 4672 1350 4672 
C 858 4672 563 4390 563 3905 
L 563 3328 
L 115 3328 
L 115 2892 
L 563 2892 
L 563 0 
L 1094 0 
L 1094 2892 
L 1651 2892 
L 1651 3328 
z
" transform="scale(0.015625)"/>
       <path id="NimbusSanL-Regu-2" d="M 1613 3328 
L 1056 3328 
L 1056 3860 
C 1056 4087 1184 4204 1427 4204 
C 1472 4204 1491 4204 1613 4198 
L 1613 4639 
C 1491 4665 1421 4672 1312 4672 
C 819 4672 525 4390 525 3905 
L 525 3328 
L 77 3328 
L 77 2892 
L 525 2892 
L 525 0 
L 1056 0 
L 1056 2892 
L 1613 2892 
L 1613 3328 
z
M 2790 3328 
L 2259 3328 
L 2259 0 
L 2790 0 
L 2790 3328 
z
M 2790 4672 
L 2259 4672 
L 2259 3999 
L 2790 3999 
L 2790 4672 
z
" transform="scale(0.015625)"/>
       <path id="NimbusSanL-Regu-73" d="M 2803 2428 
C 2797 3084 2362 3456 1587 3456 
C 806 3456 301 3052 301 2434 
C 301 1912 570 1663 1363 1472 
L 1862 1351 
C 2234 1262 2381 1129 2381 887 
C 2381 574 2067 364 1600 364 
C 1312 364 1069 447 934 587 
C 851 683 813 778 781 1014 
L 218 1014 
C 243 243 678 -128 1555 -128 
C 2400 -128 2938 288 2938 931 
C 2938 1428 2656 1702 1990 1861 
L 1478 1982 
C 1043 2084 858 2224 858 2459 
C 858 2765 1133 2963 1568 2963 
C 1997 2963 2227 2778 2240 2428 
L 2803 2428 
z
" transform="scale(0.015625)"/>
       <path id="NimbusSanL-Regu-2d" d="M 1818 1996 
L 294 1996 
L 294 1536 
L 1818 1536 
L 1818 1996 
z
" transform="scale(0.015625)"/>
       <path id="NimbusSanL-Regu-42" d="M 506 0 
L 2611 0 
C 3053 0 3379 121 3629 390 
C 3859 632 3987 961 3987 1321 
C 3987 1878 3731 2214 3136 2444 
C 3558 2643 3782 2994 3782 3476 
C 3782 3821 3654 4127 3411 4345 
C 3168 4569 2848 4672 2400 4672 
L 506 4672 
L 506 0 
z
M 1101 2636 
L 1101 4147 
L 2253 4147 
C 2586 4147 2771 4101 2931 3977 
C 3098 3847 3187 3652 3187 3391 
C 3187 3138 3098 2936 2931 2806 
C 2771 2682 2586 2636 2253 2636 
L 1101 2636 
z
M 1101 524 
L 1101 2112 
L 2554 2112 
C 2842 2112 3034 2042 3174 1890 
C 3315 1745 3392 1542 3392 1315 
C 3392 1093 3315 891 3174 746 
C 3034 594 2842 524 2554 524 
L 1101 524 
z
" transform="scale(0.015625)"/>
       <path id="NimbusSanL-Regu-6c" d="M 973 4672 
L 435 4672 
L 435 0 
L 973 0 
L 973 4672 
z
" transform="scale(0.015625)"/>
       <path id="NimbusSanL-Regu-31" d="M 1658 3232 
L 1658 0 
L 2221 0 
L 2221 4537 
L 1850 4537 
C 1651 3840 1523 3744 653 3635 
L 653 3232 
L 1658 3232 
z
" transform="scale(0.015625)"/>
       <path id="NimbusSanL-Regu-37" d="M 3328 4544 
L 294 4544 
L 294 3987 
L 2746 3987 
C 1664 2442 1222 1493 883 0 
L 1485 0 
C 1734 1454 2304 2704 3328 4070 
L 3328 4544 
z
" transform="scale(0.015625)"/>
      </defs>
      <use xlink:href="#NimbusSanL-Regu-41" transform="scale(0.996264)"/>
      <use xlink:href="#NimbusSanL-Regu-65" transform="translate(66.450031 0) scale(0.996264)"/>
      <use xlink:href="#NimbusSanL-Regu-72" transform="translate(121.841708 0) scale(0.996264)"/>
      <use xlink:href="#NimbusSanL-Regu-6f" transform="translate(155.016938 0) scale(0.996264)"/>
      <use xlink:href="#NimbusSanL-Regu-64" transform="translate(210.408615 0) scale(0.996264)"/>
      <use xlink:href="#NimbusSanL-Regu-79" transform="translate(265.800292 0) scale(0.996264)"/>
      <use xlink:href="#NimbusSanL-Regu-6e" transform="translate(315.613492 0) scale(0.996264)"/>
      <use xlink:href="#NimbusSanL-Regu-61" transform="translate(371.005169 0) scale(0.996264)"/>
      <use xlink:href="#NimbusSanL-Regu-6d" transform="translate(426.396846 0) scale(0.996264)"/>
      <use xlink:href="#NimbusSanL-Regu-69" transform="translate(509.385276 0) scale(0.996264)"/>
      <use xlink:href="#NimbusSanL-Regu-63" transform="translate(531.502061 0) scale(0.996264)"/>
      <use xlink:href="#NimbusSanL-Regu-43" transform="translate(609.010431 0) scale(0.996264)"/>
      <use xlink:href="#NimbusSanL-Regu-6f" transform="translate(680.940416 0) scale(0.996264)"/>
      <use xlink:href="#NimbusSanL-Regu-65" transform="translate(736.332093 0) scale(0.996264)"/>
      <use xlink:href="#NimbusSanL-Regu-66" transform="translate(791.72377 0) scale(0.996264)"/>
      <use xlink:href="#NimbusSanL-Regu-2" transform="translate(819.418939 0) scale(0.996264)"/>
      <use xlink:href="#NimbusSanL-Regu-63" transform="translate(869.23214 0) scale(0.996264)"/>
      <use xlink:href="#NimbusSanL-Regu-69" transform="translate(919.04534 0) scale(0.996264)"/>
      <use xlink:href="#NimbusSanL-Regu-65" transform="translate(941.162125 0) scale(0.996264)"/>
      <use xlink:href="#NimbusSanL-Regu-6e" transform="translate(996.553802 0) scale(0.996264)"/>
      <use xlink:href="#NimbusSanL-Regu-74" transform="translate(1051.945479 0) scale(0.996264)"/>
      <use xlink:href="#NimbusSanL-Regu-73" transform="translate(1079.640648 0) scale(0.996264)"/>
      <use xlink:href="#NimbusSanL-Regu-2d" transform="translate(1157.149018 0) scale(0.996264)"/>
      <use xlink:href="#NimbusSanL-Regu-42" transform="translate(1218.019418 0) scale(0.996264)"/>
      <use xlink:href="#NimbusSanL-Regu-6c" transform="translate(1284.469449 0) scale(0.996264)"/>
      <use xlink:href="#NimbusSanL-Regu-61" transform="translate(1306.586233 0) scale(0.996264)"/>
      <use xlink:href="#NimbusSanL-Regu-64" transform="translate(1361.97791 0) scale(0.996264)"/>
      <use xlink:href="#NimbusSanL-Regu-65" transform="translate(1417.369587 0) scale(0.996264)"/>
      <use xlink:href="#NimbusSanL-Regu-31" transform="translate(1508.626829 0) scale(0.996264)"/>
      <use xlink:href="#NimbusSanL-Regu-37" transform="translate(1564.018506 0) scale(0.996264)"/>
      <path d="M 1478.738605 0 
L 1508.626829 0 
L 1508.626829 0.3985 
L 1478.738605 0.3985 
L 1478.738605 0 
z
"/>
     </g>
    </g>
   </g>
   <g id="line2d_14">
    <path d="M 60.53427 47.218284 
L 60.986519 21.490593 
L 61.212644 17.28 
L 61.438768 17.359603 
L 61.664893 17.772814 
L 62.795515 21.292326 
L 63.473889 21.881378 
L 63.700014 22.347381 
L 64.604512 22.617824 
L 65.282885 23.143278 
L 65.735134 23.774116 
L 66.187384 24.800633 
L 66.639633 26.440254 
L 67.091882 28.677365 
L 67.770255 29.082091 
L 68.222504 29.570753 
L 68.674754 30.377297 
L 69.127003 31.750918 
L 69.579252 34.208239 
L 70.031501 38.456358 
L 70.257625 41.059545 
L 70.709874 41.570842 
L 71.162123 42.323234 
L 71.614373 43.406246 
L 72.292746 45.683557 
L 72.97112 47.852492 
L 73.197244 48.168496 
L 74.327867 48.287941 
L 75.45849 48.328649 
L 75.910739 48.143712 
L 76.136863 47.961073 
L 77.493611 47.796863 
L 79.754856 47.344704 
L 83.372849 47.201436 
L 84.277347 46.960049 
L 84.729596 46.673536 
L 85.181845 46.168428 
L 85.40797 45.786695 
L 86.538592 45.525639 
L 87.216966 45.149298 
L 87.669215 44.655507 
L 88.121464 43.702238 
L 88.347589 42.937284 
L 89.252087 42.568686 
L 89.930461 41.97205 
L 90.38271 41.307756 
L 91.061083 39.821601 
L 91.287208 39.233827 
L 92.417831 38.87086 
L 93.322329 38.291209 
L 94.452952 37.338026 
L 96.261948 37.34436 
L 96.714197 37.560736 
L 96.940322 37.809593 
L 97.166446 38.236441 
L 97.392571 38.94571 
L 97.618695 40.076942 
L 98.297069 40.43774 
L 98.749318 40.887616 
L 99.201567 41.635063 
L 99.653816 42.86359 
L 100.106065 44.839952 
L 100.558314 47.915555 
L 100.784439 50.002064 
L 101.462812 50.639345 
L 101.915061 51.358594 
L 102.367311 52.456196 
L 102.81956 54.0905 
L 103.271809 56.406733 
L 103.950182 61.257126 
L 104.628556 61.797923 
L 105.30693 62.740949 
L 105.985303 64.310868 
L 106.211428 64.983485 
L 107.7943 65.187622 
L 108.698798 65.476197 
L 109.603296 65.991214 
L 110.507794 66.761139 
L 111.186168 67.563527 
L 111.638417 68.320748 
L 111.864541 68.842129 
L 112.76904 69.08833 
L 113.447413 69.489902 
L 113.899662 69.961577 
L 114.351911 70.706698 
L 114.804161 71.826437 
L 115.030285 72.51482 
L 115.934783 72.841266 
L 116.613157 73.3076 
L 117.29153 74.0508 
L 118.422153 75.40485 
L 119.552776 75.642749 
L 120.457274 76.06498 
L 121.361772 76.501878 
L 123.170769 76.471411 
L 123.849142 76.251345 
L 124.301391 75.822349 
L 124.527516 75.442889 
L 125.432014 75.25981 
L 126.110388 74.938296 
L 126.562637 74.557985 
L 127.014886 73.965286 
L 129.276131 73.831148 
L 130.406754 73.562998 
L 131.085128 73.215264 
L 131.763501 72.608699 
L 132.441875 71.600983 
L 132.894124 70.673188 
L 134.024747 70.391755 
L 134.929245 69.887412 
L 135.607619 69.459345 
L 136.285992 69.42046 
L 137.642739 69.547141 
L 138.094989 69.766085 
L 138.547238 70.331311 
L 138.773362 70.855843 
L 139.67786 71.128756 
L 140.356234 71.412226 
L 163.420937 72.279934 
L 205.706227 74.102935 
L 207.062975 74.304685 
L 207.967473 74.624021 
L 208.645846 75.048909 
L 209.32422 75.708206 
L 210.454843 76.947647 
L 212.489964 76.936345 
L 213.168337 76.675968 
L 214.29896 75.954482 
L 216.560205 75.710923 
L 217.012454 75.589423 
L 221.987194 75.169466 
L 222.665568 74.758713 
L 223.117817 74.159912 
L 223.570066 73.061326 
L 224.022315 71.383086 
L 224.700689 71.131914 
L 225.379063 70.657663 
L 226.73581 69.281047 
L 227.188059 69.441651 
L 228.092557 69.655285 
L 228.544806 69.963172 
L 228.997055 70.631184 
L 229.449304 72.071883 
L 230.127678 75.16688 
L 230.579927 75.562723 
L 231.032176 76.20828 
L 231.484425 77.251841 
L 231.936674 78.902061 
L 232.388923 81.44979 
L 232.841173 85.312507 
L 233.067297 87.980357 
L 233.519546 88.41664 
L 233.971795 89.127083 
L 234.424044 90.282845 
L 234.876293 92.103415 
L 235.328543 94.881555 
L 235.780792 99.038712 
L 236.233041 104.529045 
L 236.68529 104.958043 
L 237.137539 105.656424 
L 237.589788 106.786309 
L 238.042037 108.529187 
L 238.494286 111.029861 
L 239.17266 116.235612 
L 239.398784 118.328035 
L 240.077158 118.878436 
L 240.529407 119.516803 
L 240.981656 120.503657 
L 241.433905 121.947037 
L 242.112279 122.047077 
L 244.825773 122.333666 
L 245.730272 122.610569 
L 246.408645 123.013282 
L 247.087019 123.725645 
L 247.539268 124.469882 
L 247.991517 125.520573 
L 248.443766 127.022231 
L 248.896015 129.568843 
L 249.348264 134.677569 
L 249.800513 135.182555 
L 250.252762 136.030447 
L 250.705012 137.463582 
L 251.157261 139.83605 
L 251.60951 143.677278 
L 252.061759 149.77181 
L 252.514008 158.930307 
L 252.966257 159.776657 
L 253.418506 161.096874 
L 253.870755 163.168656 
L 254.09688 164.592822 
L 254.549129 164.767981 
L 263.367986 166.794916 
L 279.196704 170.716817 
L 309.723518 178.256272 
L 322.386492 181.14138 
L 327.135107 182.267031 
L 327.813481 182.689837 
L 328.491855 183.405923 
L 328.944104 184.136092 
L 329.396353 185.166368 
L 329.848602 186.646128 
L 330.300851 188.878264 
L 330.7531 192.466305 
L 331.205349 198.220181 
L 331.883723 209.522423 
L 332.562096 210.521754 
L 333.24047 212.114627 
L 334.371093 215.746594 
L 334.823342 217.442157 
L 335.72784 217.795833 
L 336.406214 218.279022 
L 337.084587 218.822088 
L 337.310712 218.88 
L 337.536836 218.760534 
L 337.762961 218.357944 
L 337.989086 217.549839 
L 338.21521 216.201347 
L 338.893584 215.6926 
L 339.345833 215.110266 
L 339.798082 214.19881 
L 340.250331 212.723323 
L 340.70258 210.196527 
L 341.154829 205.675784 
L 341.607078 205.203823 
L 342.059327 204.457518 
L 342.511576 203.283507 
L 342.963826 201.465627 
L 343.416075 198.647698 
L 343.868324 194.149384 
L 344.094448 190.905193 
L 344.546697 190.324638 
L 344.998946 189.412344 
L 345.451195 187.961527 
L 345.903445 185.663689 
L 346.355694 182.019454 
L 346.807943 176.242319 
L 347.260192 167.546692 
L 347.712441 166.666969 
L 348.16469 165.32351 
L 348.616939 163.273857 
L 349.069188 160.230337 
L 349.521437 155.894646 
L 349.973686 150.058424 
L 350.425935 149.464355 
L 350.878185 148.59249 
L 351.330434 147.30808 
L 351.782683 145.445218 
L 352.234932 142.816837 
L 352.687181 139.148535 
L 353.13943 133.989696 
L 353.591679 133.471506 
L 354.043928 132.68861 
L 354.496177 131.498663 
L 354.948426 129.736592 
L 355.6268 125.780231 
L 356.305174 121.304619 
L 357.435796 120.679345 
L 357.888045 120.456575 
L 358.11417 120.449292 
L 358.340295 120.603652 
L 358.566419 121.031791 
L 358.792544 121.88431 
L 359.018668 123.343092 
L 359.244793 125.663155 
L 359.470917 125.84846 
L 360.827664 126.097209 
L 361.506038 126.402049 
L 362.184412 126.997512 
L 362.636661 127.692433 
L 363.08891 128.788229 
L 363.541159 130.511289 
L 363.993408 133.235693 
L 364.445657 137.622324 
L 364.897906 144.880468 
L 364.897906 144.880468 
" clip-path="url(#pf118f988d6)" style="fill: none; stroke: #1f77b4; stroke-width: 1.5; stroke-linecap: square"/>
   </g>
   <g id="line2d_15">
    <path d="M 60.53427 72.450834 
L 60.986519 82.032208 
L 61.212644 82.981379 
L 61.664893 82.724216 
L 62.569391 81.762604 
L 63.02164 81.735444 
L 64.152263 82.028869 
L 65.735134 82.208733 
L 66.413508 82.506971 
L 67.091882 82.919755 
L 68.900878 82.894991 
L 69.353127 82.66043 
L 69.579252 82.377143 
L 70.031501 81.187128 
L 70.257625 80.313153 
L 70.935999 79.977168 
L 71.614373 79.328346 
L 72.066622 78.610438 
L 72.744995 76.995359 
L 73.423369 75.012774 
L 74.101743 74.643995 
L 74.553992 74.168259 
L 75.006241 73.336289 
L 75.45849 71.991458 
L 76.136863 69.027141 
L 76.815237 68.703046 
L 77.493611 68.100583 
L 78.171984 67.084263 
L 79.302607 65.092795 
L 80.207105 64.849027 
L 82.016102 64.186217 
L 82.242226 64.393527 
L 82.468351 64.793307 
L 83.372849 65.018126 
L 84.051223 65.402211 
L 84.729596 66.13304 
L 85.634094 67.314359 
L 86.764717 67.620173 
L 87.669215 68.131962 
L 88.121464 68.565989 
L 88.347589 68.905071 
L 89.478212 69.139236 
L 90.156585 69.50996 
L 90.608834 69.973023 
L 91.061083 70.76718 
L 91.287208 71.369886 
L 92.191706 71.649962 
L 92.87008 72.119576 
L 93.322329 72.673742 
L 93.774578 73.559648 
L 94.226827 74.971466 
L 94.452952 75.923205 
L 95.131325 76.203441 
L 95.809699 76.73838 
L 96.488072 77.677651 
L 97.392571 79.140249 
L 98.523193 79.104894 
L 99.201567 78.894096 
L 99.653816 78.526199 
L 100.106065 77.785573 
L 100.558314 76.464734 
L 100.784439 75.536323 
L 101.462812 75.26337 
L 102.141186 74.730229 
L 102.593435 74.137354 
L 103.045684 73.28007 
L 103.497933 72.092771 
L 103.950182 70.462101 
L 104.854681 70.072854 
L 105.533054 69.463945 
L 105.985303 68.793293 
L 106.211428 68.350322 
L 108.246549 68.17671 
L 109.377171 67.865175 
L 110.28167 67.357005 
L 110.960043 66.709698 
L 111.638417 65.655563 
L 111.864541 65.161977 
L 112.76904 64.940479 
L 113.447413 64.593028 
L 114.125787 63.942897 
L 114.804161 62.824595 
L 115.030285 62.356874 
L 116.160908 62.07604 
L 117.065406 61.602819 
L 117.969904 61.122646 
L 119.7789 61.163629 
L 120.457274 61.309641 
L 120.909523 61.548547 
L 121.587897 62.034758 
L 122.71852 62.258339 
L 123.396893 62.596427 
L 123.849142 62.98973 
L 124.301391 63.606684 
L 124.527516 64.038513 
L 125.658139 64.311719 
L 126.336512 64.705113 
L 127.24101 65.448871 
L 129.502256 65.594753 
L 130.632879 65.884239 
L 131.311252 66.257056 
L 131.989626 66.911669 
L 132.667999 68.029621 
L 132.894124 68.542056 
L 133.798622 68.76884 
L 134.476996 69.119936 
L 135.155369 69.732516 
L 136.059868 70.68615 
L 137.19049 70.930265 
L 138.321113 71.442145 
L 138.773362 71.602804 
L 144.878725 71.615276 
L 181.058652 71.467039 
L 206.83685 71.172075 
L 208.193597 71.004497 
L 209.098095 70.682903 
L 209.776469 70.134849 
L 210.228718 69.484724 
L 210.454843 69.042951 
L 211.585465 68.761871 
L 212.263839 68.384008 
L 212.942213 67.727618 
L 213.620586 66.712749 
L 214.072835 65.818443 
L 215.203458 65.537729 
L 215.881832 65.166719 
L 216.560205 64.571482 
L 216.78633 64.325053 
L 222.439444 63.779953 
L 223.796191 63.288147 
L 224.24844 63.173621 
L 225.831312 63.022881 
L 227.414183 62.818997 
L 228.997055 62.924522 
L 229.449304 63.102552 
L 230.127678 63.548828 
L 231.258301 63.780101 
L 231.936674 64.103809 
L 233.293422 64.908843 
L 234.876293 64.893736 
L 235.328543 64.741487 
L 235.780792 64.344677 
L 236.233041 63.625441 
L 237.363663 63.376316 
L 238.042037 63.015027 
L 238.720411 62.387176 
L 239.624909 61.460623 
L 240.755532 61.225299 
L 241.886154 60.924065 
L 246.408645 60.786329 
L 247.765392 60.542779 
L 248.669891 60.213226 
L 249.12214 59.867033 
L 249.348264 59.605421 
L 250.478887 59.425037 
L 251.157261 59.124874 
L 251.60951 58.751385 
L 252.061759 58.134124 
L 252.514008 57.075628 
L 253.418506 56.803506 
L 254.549129 56.301514 
L 275.578711 55.553587 
L 311.306389 54.045348 
L 327.813481 53.225913 
L 328.944104 52.902472 
L 329.622477 52.50653 
L 330.300851 51.808194 
L 330.979225 50.603275 
L 331.883723 48.349671 
L 333.014346 48.077428 
L 334.597217 47.599904 
L 335.049466 47.717186 
L 336.180089 47.852402 
L 336.858463 48.147607 
L 337.310712 48.611822 
L 337.762961 49.562446 
L 338.21521 51.361024 
L 338.893584 51.672719 
L 339.345833 52.049393 
L 339.798082 52.643567 
L 340.250331 53.552225 
L 340.70258 54.925373 
L 341.154829 56.990788 
L 341.833203 57.313131 
L 342.285452 57.697452 
L 342.737701 58.297373 
L 343.18995 59.185973 
L 343.868324 61.196453 
L 344.094448 62.067923 
L 344.998946 62.43385 
L 345.67732 63.009456 
L 346.355694 64.016135 
L 346.807943 65.028236 
L 347.260192 66.466105 
L 348.16469 66.795408 
L 348.843064 67.350015 
L 349.295313 67.971645 
L 349.747562 68.87921 
L 349.973686 69.471496 
L 350.878185 69.72667 
L 351.556558 70.130393 
L 352.234932 70.873428 
L 352.687181 71.652857 
L 353.13943 72.733915 
L 354.043928 72.983679 
L 354.722302 73.370946 
L 355.400675 74.024679 
L 356.305174 74.977842 
L 358.11417 74.95273 
L 358.566419 74.719357 
L 359.018668 74.095312 
L 359.244793 73.509258 
L 359.923166 73.451176 
L 361.732163 73.296831 
L 362.636661 73.037395 
L 363.315034 72.626008 
L 363.767284 72.158208 
L 364.219533 71.434115 
L 364.671782 70.205283 
L 364.897906 69.243002 
L 364.897906 69.243002 
" clip-path="url(#pf118f988d6)" style="fill: none; stroke: #ff7f0e; stroke-width: 1.5; stroke-linecap: square"/>
   </g>
   <g id="patch_3">
    <path d="M 45.316088 228.96 
L 45.316088 7.2 
" style="fill: none; stroke: #000000; stroke-width: 0.8; stroke-linejoin: miter; stroke-linecap: square"/>
   </g>
   <g id="patch_4">
    <path d="M 380.116088 228.96 
L 380.116088 7.2 
" style="fill: none; stroke: #000000; stroke-width: 0.8; stroke-linejoin: miter; stroke-linecap: square"/>
   </g>
   <g id="patch_5">
    <path d="M 45.316088 228.96 
L 380.116088 228.96 
" style="fill: none; stroke: #000000; stroke-width: 0.8; stroke-linejoin: miter; stroke-linecap: square"/>
   </g>
   <g id="patch_6">
    <path d="M 45.316088 7.2 
L 380.116088 7.2 
" style="fill: none; stroke: #000000; stroke-width: 0.8; stroke-linejoin: miter; stroke-linecap: square"/>
   </g>
   <g id="legend_1">
    <g id="patch_7">
     <path d="M 326.730094 43.640613 
L 373.116088 43.640613 
Q 375.116088 43.640613 375.116088 41.640613 
L 375.116088 14.2 
Q 375.116088 12.2 373.116088 12.2 
L 326.730094 12.2 
Q 324.730094 12.2 324.730094 14.2 
L 324.730094 41.640613 
Q 324.730094 43.640613 326.730094 43.640613 
z
" style="fill: #ffffff; opacity: 0.8; stroke: #cccccc; stroke-linejoin: miter"/>
    </g>
    <g id="line2d_16">
     <path d="M 328.730094 19.79832 
L 338.730094 19.79832 
L 348.730094 19.79832 
" style="fill: none; stroke: #1f77b4; stroke-width: 1.5; stroke-linecap: square"/>
    </g>
    <g id="text_16">
     <!-- CD -->
     <g transform="translate(356.730094 23.29832) scale(0.1 -0.1)">
      <defs>
       <path id="NimbusSanL-Regu-44" d="M 570 0 
L 2368 0 
C 3546 0 4269 883 4269 2339 
C 4269 3788 3552 4672 2368 4672 
L 570 4672 
L 570 0 
z
M 1165 524 
L 1165 4147 
L 2266 4147 
C 3187 4147 3674 3525 3674 2332 
C 3674 1153 3187 524 2266 524 
L 1165 524 
z
" transform="scale(0.015625)"/>
      </defs>
      <use xlink:href="#NimbusSanL-Regu-43" transform="scale(0.996264)"/>
      <use xlink:href="#NimbusSanL-Regu-44" transform="translate(71.929985 0) scale(0.996264)"/>
     </g>
    </g>
    <g id="line2d_17">
     <path d="M 328.730094 34.018627 
L 338.730094 34.018627 
L 348.730094 34.018627 
" style="fill: none; stroke: #ff7f0e; stroke-width: 1.5; stroke-linecap: square"/>
    </g>
    <g id="text_17">
     <!-- CL -->
     <g transform="translate(356.730094 37.518627) scale(0.1 -0.1)">
      <defs>
       <path id="NimbusSanL-Regu-4c" d="M 1107 4672 
L 512 4672 
L 512 0 
L 3411 0 
L 3411 524 
L 1107 524 
L 1107 4672 
z
" transform="scale(0.015625)"/>
      </defs>
      <use xlink:href="#NimbusSanL-Regu-43" transform="scale(0.996264)"/>
      <use xlink:href="#NimbusSanL-Regu-4c" transform="translate(71.929985 0) scale(0.996264)"/>
     </g>
    </g>
   </g>
  </g>
 </g>
 <defs>
  <clipPath id="pf118f988d6">
   <rect x="45.316088" y="7.2" width="334.8" height="221.76"/>
  </clipPath>
 </defs>
</svg>
