<?xml version="1.0" encoding="utf-8" standalone="no"?>
<!DOCTYPE svg PUBLIC "-//W3C//DTD SVG 1.1//EN"
  "http://www.w3.org/Graphics/SVG/1.1/DTD/svg11.dtd">
<svg xmlns:xlink="http://www.w3.org/1999/xlink" width="383.441716pt" height="267.57819pt" viewBox="0 0 383.441716 267.57819" xmlns="http://www.w3.org/2000/svg" version="1.1">
 <metadata>
  <rdf:RDF xmlns:dc="http://purl.org/dc/elements/1.1/" xmlns:cc="http://creativecommons.org/ns#" xmlns:rdf="http://www.w3.org/1999/02/22-rdf-syntax-ns#">
   <cc:Work>
    <dc:type rdf:resource="http://purl.org/dc/dcmitype/StillImage"/>
    <dc:date>2025-07-17T19:50:07.968141</dc:date>
    <dc:format>image/svg+xml</dc:format>
    <dc:creator>
     <cc:Agent>
      <dc:title>Matplotlib v3.10.3, https://matplotlib.org/</dc:title>
     </cc:Agent>
    </dc:creator>
   </cc:Work>
  </rdf:RDF>
 </metadata>
 <defs>
  <style type="text/css">*{stroke-linejoin: round; stroke-linecap: butt}</style>
 </defs>
 <g id="figure_1">
  <g id="patch_1">
   <path d="M 0 267.57819 
L 383.441716 267.57819 
L 383.441716 0 
L 0 0 
z
" style="fill: #ffffff"/>
  </g>
  <g id="axes_1">
   <g id="patch_2">
    <path d="M 32.586009 230.937577 
L 367.386009 230.937577 
L 367.386009 9.177577 
L 32.586009 9.177577 
z
" style="fill: #ffffff"/>
   </g>
   <g id="PathCollection_1">
    <defs>
     <path id="m4c80f932c9" d="M 0 0.353553 
C 0.093763 0.353553 0.183699 0.316301 0.25 0.25 
C 0.316301 0.183699 0.353553 0.093763 0.353553 0 
C 0.353553 -0.093763 0.316301 -0.183699 0.25 -0.25 
C 0.183699 -0.316301 0.093763 -0.353553 0 -0.353553 
C -0.093763 -0.353553 -0.183699 -0.316301 -0.25 -0.25 
C -0.316301 -0.183699 -0.353553 -0.093763 -0.353553 0 
C -0.353553 0.093763 -0.316301 0.183699 -0.25 0.25 
C -0.183699 0.316301 -0.093763 0.353553 0 0.353553 
z
" style="stroke: #ff0000"/>
    </defs>
    <g clip-path="url(#p5f4166635d)">
     <use xlink:href="#m4c80f932c9" x="199.986009" y="174.992047" style="fill: #ff0000; stroke: #ff0000"/>
     <use xlink:href="#m4c80f932c9" x="199.436052" y="174.992047" style="fill: #ff0000; stroke: #ff0000"/>
     <use xlink:href="#m4c80f932c9" x="198.825954" y="175.115974" style="fill: #ff0000; stroke: #ff0000"/>
     <use xlink:href="#m4c80f932c9" x="198.129942" y="178.121199" style="fill: #ff0000; stroke: #ff0000"/>
     <use xlink:href="#m4c80f932c9" x="197.350799" y="175.244327" style="fill: #ff0000; stroke: #ff0000"/>
     <use xlink:href="#m4c80f932c9" x="196.494369" y="174.872546" style="fill: #ff0000; stroke: #ff0000"/>
     <use xlink:href="#m4c80f932c9" x="195.557838" y="162.023989" style="fill: #ff0000; stroke: #ff0000"/>
     <use xlink:href="#m4c80f932c9" x="194.531031" y="162.816236" style="fill: #ff0000; stroke: #ff0000"/>
     <use xlink:href="#m4c80f932c9" x="193.399877" y="166.565022" style="fill: #ff0000; stroke: #ff0000"/>
     <use xlink:href="#m4c80f932c9" x="192.146623" y="173.509351" style="fill: #ff0000; stroke: #ff0000"/>
     <use xlink:href="#m4c80f932c9" x="190.749188" y="179.811915" style="fill: #ff0000; stroke: #ff0000"/>
     <use xlink:href="#m4c80f932c9" x="189.177154" y="184.738007" style="fill: #ff0000; stroke: #ff0000"/>
     <use xlink:href="#m4c80f932c9" x="187.382029" y="189.363134" style="fill: #ff0000; stroke: #ff0000"/>
     <use xlink:href="#m4c80f932c9" x="185.277757" y="193.426163" style="fill: #ff0000; stroke: #ff0000"/>
     <use xlink:href="#m4c80f932c9" x="182.725353" y="197.068727" style="fill: #ff0000; stroke: #ff0000"/>
     <use xlink:href="#m4c80f932c9" x="179.745384" y="200.392622" style="fill: #ff0000; stroke: #ff0000"/>
     <use xlink:href="#m4c80f932c9" x="176.928865" y="202.698546" style="fill: #ff0000; stroke: #ff0000"/>
     <use xlink:href="#m4c80f932c9" x="174.40244" y="204.296317" style="fill: #ff0000; stroke: #ff0000"/>
     <use xlink:href="#m4c80f932c9" x="172.075185" y="205.517881" style="fill: #ff0000; stroke: #ff0000"/>
     <use xlink:href="#m4c80f932c9" x="169.875658" y="206.522574" style="fill: #ff0000; stroke: #ff0000"/>
     <use xlink:href="#m4c80f932c9" x="167.765974" y="207.328098" style="fill: #ff0000; stroke: #ff0000"/>
     <use xlink:href="#m4c80f932c9" x="165.72232" y="207.903473" style="fill: #ff0000; stroke: #ff0000"/>
     <use xlink:href="#m4c80f932c9" x="163.72954" y="208.363773" style="fill: #ff0000; stroke: #ff0000"/>
     <use xlink:href="#m4c80f932c9" x="161.77681" y="208.85948" style="fill: #ff0000; stroke: #ff0000"/>
     <use xlink:href="#m4c80f932c9" x="159.855472" y="209.257816" style="fill: #ff0000; stroke: #ff0000"/>
     <use xlink:href="#m4c80f932c9" x="157.962277" y="209.598615" style="fill: #ff0000; stroke: #ff0000"/>
     <use xlink:href="#m4c80f932c9" x="156.089648" y="209.89958" style="fill: #ff0000; stroke: #ff0000"/>
     <use xlink:href="#m4c80f932c9" x="154.234339" y="210.178415" style="fill: #ff0000; stroke: #ff0000"/>
     <use xlink:href="#m4c80f932c9" x="152.390936" y="210.443973" style="fill: #ff0000; stroke: #ff0000"/>
     <use xlink:href="#m4c80f932c9" x="150.559441" y="210.691827" style="fill: #ff0000; stroke: #ff0000"/>
     <use xlink:href="#m4c80f932c9" x="148.735522" y="210.930828" style="fill: #ff0000; stroke: #ff0000"/>
     <use xlink:href="#m4c80f932c9" x="146.915933" y="211.165404" style="fill: #ff0000; stroke: #ff0000"/>
     <use xlink:href="#m4c80f932c9" x="145.099592" y="211.386702" style="fill: #ff0000; stroke: #ff0000"/>
     <use xlink:href="#m4c80f932c9" x="143.285416" y="211.599148" style="fill: #ff0000; stroke: #ff0000"/>
     <use xlink:href="#m4c80f932c9" x="141.470157" y="211.798316" style="fill: #ff0000; stroke: #ff0000"/>
     <use xlink:href="#m4c80f932c9" x="139.653815" y="211.984206" style="fill: #ff0000; stroke: #ff0000"/>
     <use xlink:href="#m4c80f932c9" x="137.833144" y="212.156819" style="fill: #ff0000; stroke: #ff0000"/>
     <use xlink:href="#m4c80f932c9" x="136.007061" y="212.307301" style="fill: #ff0000; stroke: #ff0000"/>
     <use xlink:href="#m4c80f932c9" x="134.176647" y="212.444506" style="fill: #ff0000; stroke: #ff0000"/>
     <use xlink:href="#m4c80f932c9" x="132.339739" y="212.564007" style="fill: #ff0000; stroke: #ff0000"/>
     <use xlink:href="#m4c80f932c9" x="130.494172" y="212.661378" style="fill: #ff0000; stroke: #ff0000"/>
     <use xlink:href="#m4c80f932c9" x="128.641028" y="212.741045" style="fill: #ff0000; stroke: #ff0000"/>
     <use xlink:href="#m4c80f932c9" x="126.779223" y="212.798583" style="fill: #ff0000; stroke: #ff0000"/>
     <use xlink:href="#m4c80f932c9" x="124.907677" y="212.838416" style="fill: #ff0000; stroke: #ff0000"/>
     <use xlink:href="#m4c80f932c9" x="123.024224" y="212.864972" style="fill: #ff0000; stroke: #ff0000"/>
     <use xlink:href="#m4c80f932c9" x="121.131029" y="212.864972" style="fill: #ff0000; stroke: #ff0000"/>
     <use xlink:href="#m4c80f932c9" x="119.22701" y="212.851694" style="fill: #ff0000; stroke: #ff0000"/>
     <use xlink:href="#m4c80f932c9" x="117.310001" y="212.825138" style="fill: #ff0000; stroke: #ff0000"/>
     <use xlink:href="#m4c80f932c9" x="115.380003" y="212.780879" style="fill: #ff0000; stroke: #ff0000"/>
     <use xlink:href="#m4c80f932c9" x="113.438098" y="212.727767" style="fill: #ff0000; stroke: #ff0000"/>
     <use xlink:href="#m4c80f932c9" x="111.483204" y="212.665804" style="fill: #ff0000; stroke: #ff0000"/>
     <use xlink:href="#m4c80f932c9" x="109.514238" y="212.594989" style="fill: #ff0000; stroke: #ff0000"/>
     <use xlink:href="#m4c80f932c9" x="107.5312" y="212.519747" style="fill: #ff0000; stroke: #ff0000"/>
     <use xlink:href="#m4c80f932c9" x="105.534091" y="212.435654" style="fill: #ff0000; stroke: #ff0000"/>
     <use xlink:href="#m4c80f932c9" x="103.522909" y="212.351561" style="fill: #ff0000; stroke: #ff0000"/>
     <use xlink:href="#m4c80f932c9" x="101.496574" y="212.271894" style="fill: #ff0000; stroke: #ff0000"/>
     <use xlink:href="#m4c80f932c9" x="99.454001" y="212.192226" style="fill: #ff0000; stroke: #ff0000"/>
     <use xlink:href="#m4c80f932c9" x="97.397357" y="212.112559" style="fill: #ff0000; stroke: #ff0000"/>
     <use xlink:href="#m4c80f932c9" x="95.324477" y="212.041744" style="fill: #ff0000; stroke: #ff0000"/>
     <use xlink:href="#m4c80f932c9" x="93.235359" y="211.970929" style="fill: #ff0000; stroke: #ff0000"/>
     <use xlink:href="#m4c80f932c9" x="91.124593" y="211.908965" style="fill: #ff0000; stroke: #ff0000"/>
     <use xlink:href="#m4c80f932c9" x="89.003002" y="211.851428" style="fill: #ff0000; stroke: #ff0000"/>
     <use xlink:href="#m4c80f932c9" x="86.870587" y="211.798316" style="fill: #ff0000; stroke: #ff0000"/>
     <use xlink:href="#m4c80f932c9" x="84.716523" y="211.749631" style="fill: #ff0000; stroke: #ff0000"/>
     <use xlink:href="#m4c80f932c9" x="82.54081" y="211.709797" style="fill: #ff0000; stroke: #ff0000"/>
     <use xlink:href="#m4c80f932c9" x="80.343449" y="211.669963" style="fill: #ff0000; stroke: #ff0000"/>
     <use xlink:href="#m4c80f932c9" x="78.135262" y="211.634556" style="fill: #ff0000; stroke: #ff0000"/>
     <use xlink:href="#m4c80f932c9" x="75.905427" y="211.603574" style="fill: #ff0000; stroke: #ff0000"/>
     <use xlink:href="#m4c80f932c9" x="73.664768" y="211.572592" style="fill: #ff0000; stroke: #ff0000"/>
     <use xlink:href="#m4c80f932c9" x="71.391635" y="211.546037" style="fill: #ff0000; stroke: #ff0000"/>
     <use xlink:href="#m4c80f932c9" x="69.107677" y="211.519481" style="fill: #ff0000; stroke: #ff0000"/>
     <use xlink:href="#m4c80f932c9" x="66.802071" y="211.492925" style="fill: #ff0000; stroke: #ff0000"/>
     <use xlink:href="#m4c80f932c9" x="64.474816" y="211.466369" style="fill: #ff0000; stroke: #ff0000"/>
     <use xlink:href="#m4c80f932c9" x="62.136737" y="211.439814" style="fill: #ff0000; stroke: #ff0000"/>
     <use xlink:href="#m4c80f932c9" x="59.766184" y="211.413258" style="fill: #ff0000; stroke: #ff0000"/>
     <use xlink:href="#m4c80f932c9" x="57.384806" y="211.382276" style="fill: #ff0000; stroke: #ff0000"/>
     <use xlink:href="#m4c80f932c9" x="54.970956" y="211.342442" style="fill: #ff0000; stroke: #ff0000"/>
     <use xlink:href="#m4c80f932c9" x="52.546281" y="211.302609" style="fill: #ff0000; stroke: #ff0000"/>
     <use xlink:href="#m4c80f932c9" x="50.099957" y="211.258349" style="fill: #ff0000; stroke: #ff0000"/>
     <use xlink:href="#m4c80f932c9" x="47.642808" y="211.200812" style="fill: #ff0000; stroke: #ff0000"/>
     <use xlink:href="#m4c80f932c9" x="45.196484" y="211.134422" style="fill: #ff0000; stroke: #ff0000"/>
     <use xlink:href="#m4c80f932c9" x="42.84758" y="211.059181" style="fill: #ff0000; stroke: #ff0000"/>
     <use xlink:href="#m4c80f932c9" x="40.693516" y="210.997218" style="fill: #ff0000; stroke: #ff0000"/>
     <use xlink:href="#m4c80f932c9" x="38.853361" y="210.944106" style="fill: #ff0000; stroke: #ff0000"/>
     <use xlink:href="#m4c80f932c9" x="37.327115" y="210.93968" style="fill: #ff0000; stroke: #ff0000"/>
     <use xlink:href="#m4c80f932c9" x="36.060655" y="210.899847" style="fill: #ff0000; stroke: #ff0000"/>
     <use xlink:href="#m4c80f932c9" x="34.99986" y="211.019348" style="fill: #ff0000; stroke: #ff0000"/>
     <use xlink:href="#m4c80f932c9" x="34.090607" y="210.966236" style="fill: #ff0000; stroke: #ff0000"/>
     <use xlink:href="#m4c80f932c9" x="33.300422" y="211.643408" style="fill: #ff0000; stroke: #ff0000"/>
     <use xlink:href="#m4c80f932c9" x="32.586009" y="211.820446" style="fill: #ff0000; stroke: #ff0000"/>
     <use xlink:href="#m4c80f932c9" x="199.986009" y="174.974343" style="fill: #ff0000; stroke: #ff0000"/>
     <use xlink:href="#m4c80f932c9" x="200.418756" y="174.974343" style="fill: #ff0000; stroke: #ff0000"/>
     <use xlink:href="#m4c80f932c9" x="200.925555" y="177.346657" style="fill: #ff0000; stroke: #ff0000"/>
     <use xlink:href="#m4c80f932c9" x="201.548409" y="177.488287" style="fill: #ff0000; stroke: #ff0000"/>
     <use xlink:href="#m4c80f932c9" x="202.269556" y="175.129252" style="fill: #ff0000; stroke: #ff0000"/>
     <use xlink:href="#m4c80f932c9" x="203.061368" y="173.841298" style="fill: #ff0000; stroke: #ff0000"/>
     <use xlink:href="#m4c80f932c9" x="203.92073" y="172.495806" style="fill: #ff0000; stroke: #ff0000"/>
     <use xlink:href="#m4c80f932c9" x="204.858339" y="172.07534" style="fill: #ff0000; stroke: #ff0000"/>
     <use xlink:href="#m4c80f932c9" x="205.888765" y="171.831913" style="fill: #ff0000; stroke: #ff0000"/>
     <use xlink:href="#m4c80f932c9" x="207.025148" y="170.884758" style="fill: #ff0000; stroke: #ff0000"/>
     <use xlink:href="#m4c80f932c9" x="208.275236" y="177.669752" style="fill: #ff0000; stroke: #ff0000"/>
     <use xlink:href="#m4c80f932c9" x="209.636672" y="192.576379" style="fill: #ff0000; stroke: #ff0000"/>
     <use xlink:href="#m4c80f932c9" x="211.094631" y="198.038012" style="fill: #ff0000; stroke: #ff0000"/>
     <use xlink:href="#m4c80f932c9" x="212.625867" y="200.220009" style="fill: #ff0000; stroke: #ff0000"/>
     <use xlink:href="#m4c80f932c9" x="214.206797" y="202.402007" style="fill: #ff0000; stroke: #ff0000"/>
     <use xlink:href="#m4c80f932c9" x="215.814679" y="204.145834" style="fill: #ff0000; stroke: #ff0000"/>
     <use xlink:href="#m4c80f932c9" x="217.436038" y="205.504603" style="fill: #ff0000; stroke: #ff0000"/>
     <use xlink:href="#m4c80f932c9" x="219.059081" y="206.584537" style="fill: #ff0000; stroke: #ff0000"/>
     <use xlink:href="#m4c80f932c9" x="220.677913" y="207.478581" style="fill: #ff0000; stroke: #ff0000"/>
     <use xlink:href="#m4c80f932c9" x="222.289164" y="208.058381" style="fill: #ff0000; stroke: #ff0000"/>
     <use xlink:href="#m4c80f932c9" x="223.888623" y="208.332791" style="fill: #ff0000; stroke: #ff0000"/>
     <use xlink:href="#m4c80f932c9" x="225.475449" y="208.571793" style="fill: #ff0000; stroke: #ff0000"/>
     <use xlink:href="#m4c80f932c9" x="227.048799" y="208.890462" style="fill: #ff0000; stroke: #ff0000"/>
     <use xlink:href="#m4c80f932c9" x="228.606987" y="209.129463" style="fill: #ff0000; stroke: #ff0000"/>
     <use xlink:href="#m4c80f932c9" x="230.150015" y="209.315354" style="fill: #ff0000; stroke: #ff0000"/>
     <use xlink:href="#m4c80f932c9" x="231.67704" y="209.465836" style="fill: #ff0000; stroke: #ff0000"/>
     <use xlink:href="#m4c80f932c9" x="233.188062" y="209.594189" style="fill: #ff0000; stroke: #ff0000"/>
     <use xlink:href="#m4c80f932c9" x="234.683081" y="209.695986" style="fill: #ff0000; stroke: #ff0000"/>
     <use xlink:href="#m4c80f932c9" x="236.162097" y="209.780079" style="fill: #ff0000; stroke: #ff0000"/>
     <use xlink:href="#m4c80f932c9" x="237.625952" y="209.837617" style="fill: #ff0000; stroke: #ff0000"/>
     <use xlink:href="#m4c80f932c9" x="239.075488" y="209.873024" style="fill: #ff0000; stroke: #ff0000"/>
     <use xlink:href="#m4c80f932c9" x="240.511549" y="209.886302" style="fill: #ff0000; stroke: #ff0000"/>
     <use xlink:href="#m4c80f932c9" x="241.934975" y="209.881876" style="fill: #ff0000; stroke: #ff0000"/>
     <use xlink:href="#m4c80f932c9" x="243.349137" y="209.859746" style="fill: #ff0000; stroke: #ff0000"/>
     <use xlink:href="#m4c80f932c9" x="244.754876" y="209.824339" style="fill: #ff0000; stroke: #ff0000"/>
     <use xlink:href="#m4c80f932c9" x="246.155561" y="209.771227" style="fill: #ff0000; stroke: #ff0000"/>
     <use xlink:href="#m4c80f932c9" x="247.552877" y="209.709264" style="fill: #ff0000; stroke: #ff0000"/>
     <use xlink:href="#m4c80f932c9" x="248.951036" y="209.6473" style="fill: #ff0000; stroke: #ff0000"/>
     <use xlink:href="#m4c80f932c9" x="250.351721" y="209.576485" style="fill: #ff0000; stroke: #ff0000"/>
     <use xlink:href="#m4c80f932c9" x="251.760829" y="209.50567" style="fill: #ff0000; stroke: #ff0000"/>
     <use xlink:href="#m4c80f932c9" x="253.180044" y="209.43928" style="fill: #ff0000; stroke: #ff0000"/>
     <use xlink:href="#m4c80f932c9" x="254.61442" y="209.381743" style="fill: #ff0000; stroke: #ff0000"/>
     <use xlink:href="#m4c80f932c9" x="256.066483" y="209.333057" style="fill: #ff0000; stroke: #ff0000"/>
     <use xlink:href="#m4c80f932c9" x="257.54213" y="209.293224" style="fill: #ff0000; stroke: #ff0000"/>
     <use xlink:href="#m4c80f932c9" x="259.043887" y="209.271094" style="fill: #ff0000; stroke: #ff0000"/>
     <use xlink:href="#m4c80f932c9" x="260.576808" y="209.262242" style="fill: #ff0000; stroke: #ff0000"/>
     <use xlink:href="#m4c80f932c9" x="262.144261" y="209.266668" style="fill: #ff0000; stroke: #ff0000"/>
     <use xlink:href="#m4c80f932c9" x="263.749617" y="209.284372" style="fill: #ff0000; stroke: #ff0000"/>
     <use xlink:href="#m4c80f932c9" x="265.397928" y="209.306502" style="fill: #ff0000; stroke: #ff0000"/>
     <use xlink:href="#m4c80f932c9" x="267.091721" y="209.337483" style="fill: #ff0000; stroke: #ff0000"/>
     <use xlink:href="#m4c80f932c9" x="268.833523" y="209.372891" style="fill: #ff0000; stroke: #ff0000"/>
     <use xlink:href="#m4c80f932c9" x="270.627546" y="209.408299" style="fill: #ff0000; stroke: #ff0000"/>
     <use xlink:href="#m4c80f932c9" x="272.474631" y="209.434854" style="fill: #ff0000; stroke: #ff0000"/>
     <use xlink:href="#m4c80f932c9" x="274.37899" y="209.452558" style="fill: #ff0000; stroke: #ff0000"/>
     <use xlink:href="#m4c80f932c9" x="276.340623" y="209.46141" style="fill: #ff0000; stroke: #ff0000"/>
     <use xlink:href="#m4c80f932c9" x="278.362057" y="209.452558" style="fill: #ff0000; stroke: #ff0000"/>
     <use xlink:href="#m4c80f932c9" x="280.444977" y="209.426003" style="fill: #ff0000; stroke: #ff0000"/>
     <use xlink:href="#m4c80f932c9" x="282.589381" y="209.399447" style="fill: #ff0000; stroke: #ff0000"/>
     <use xlink:href="#m4c80f932c9" x="284.793586" y="209.359613" style="fill: #ff0000; stroke: #ff0000"/>
     <use xlink:href="#m4c80f932c9" x="287.0677" y="209.31978" style="fill: #ff0000; stroke: #ff0000"/>
     <use xlink:href="#m4c80f932c9" x="289.400771" y="209.284372" style="fill: #ff0000; stroke: #ff0000"/>
     <use xlink:href="#m4c80f932c9" x="291.801224" y="209.257816" style="fill: #ff0000; stroke: #ff0000"/>
     <use xlink:href="#m4c80f932c9" x="294.269058" y="209.248964" style="fill: #ff0000; stroke: #ff0000"/>
     <use xlink:href="#m4c80f932c9" x="296.795851" y="209.25339" style="fill: #ff0000; stroke: #ff0000"/>
     <use xlink:href="#m4c80f932c9" x="299.398447" y="209.279946" style="fill: #ff0000; stroke: #ff0000"/>
     <use xlink:href="#m4c80f932c9" x="302.051579" y="209.31978" style="fill: #ff0000; stroke: #ff0000"/>
     <use xlink:href="#m4c80f932c9" x="304.772092" y="209.364039" style="fill: #ff0000; stroke: #ff0000"/>
     <use xlink:href="#m4c80f932c9" x="307.551564" y="209.403873" style="fill: #ff0000; stroke: #ff0000"/>
     <use xlink:href="#m4c80f932c9" x="310.398417" y="209.434854" style="fill: #ff0000; stroke: #ff0000"/>
     <use xlink:href="#m4c80f932c9" x="313.295805" y="209.448132" style="fill: #ff0000; stroke: #ff0000"/>
     <use xlink:href="#m4c80f932c9" x="316.252153" y="209.443706" style="fill: #ff0000; stroke: #ff0000"/>
     <use xlink:href="#m4c80f932c9" x="319.267458" y="209.426003" style="fill: #ff0000; stroke: #ff0000"/>
     <use xlink:href="#m4c80f932c9" x="322.324877" y="209.399447" style="fill: #ff0000; stroke: #ff0000"/>
     <use xlink:href="#m4c80f932c9" x="325.441254" y="209.377317" style="fill: #ff0000; stroke: #ff0000"/>
     <use xlink:href="#m4c80f932c9" x="328.608168" y="209.350761" style="fill: #ff0000; stroke: #ff0000"/>
     <use xlink:href="#m4c80f932c9" x="331.817194" y="209.328631" style="fill: #ff0000; stroke: #ff0000"/>
     <use xlink:href="#m4c80f932c9" x="335.076756" y="209.29765" style="fill: #ff0000; stroke: #ff0000"/>
     <use xlink:href="#m4c80f932c9" x="338.378432" y="209.25339" style="fill: #ff0000; stroke: #ff0000"/>
     <use xlink:href="#m4c80f932c9" x="341.713798" y="209.204705" style="fill: #ff0000; stroke: #ff0000"/>
     <use xlink:href="#m4c80f932c9" x="345.0997" y="209.133889" style="fill: #ff0000; stroke: #ff0000"/>
     <use xlink:href="#m4c80f932c9" x="348.519292" y="209.040944" style="fill: #ff0000; stroke: #ff0000"/>
     <use xlink:href="#m4c80f932c9" x="351.964153" y="208.917017" style="fill: #ff0000; stroke: #ff0000"/>
     <use xlink:href="#m4c80f932c9" x="355.392168" y="208.762109" style="fill: #ff0000; stroke: #ff0000"/>
     <use xlink:href="#m4c80f932c9" x="358.618039" y="208.580644" style="fill: #ff0000; stroke: #ff0000"/>
     <use xlink:href="#m4c80f932c9" x="361.262749" y="208.42131" style="fill: #ff0000; stroke: #ff0000"/>
     <use xlink:href="#m4c80f932c9" x="363.191534" y="208.310661" style="fill: #ff0000; stroke: #ff0000"/>
     <use xlink:href="#m4c80f932c9" x="364.61496" y="208.315087" style="fill: #ff0000; stroke: #ff0000"/>
     <use xlink:href="#m4c80f932c9" x="365.718326" y="208.385902" style="fill: #ff0000; stroke: #ff0000"/>
     <use xlink:href="#m4c80f932c9" x="366.619549" y="208.65146" style="fill: #ff0000; stroke: #ff0000"/>
     <use xlink:href="#m4c80f932c9" x="367.386009" y="209.032092" style="fill: #ff0000; stroke: #ff0000"/>
    </g>
   </g>
   <g id="matplotlib.axis_1">
    <g id="xtick_1">
     <g id="line2d_1">
      <defs>
       <path id="m342663c87f" d="M 0 0 
L 0 3.5 
" style="stroke: #000000; stroke-width: 0.8"/>
      </defs>
      <g>
       <use xlink:href="#m342663c87f" x="32.586009" y="230.937577" style="stroke: #000000; stroke-width: 0.8"/>
      </g>
     </g>
     <g id="text_1">
      <!-- $\mathdefault{−1.00}$ -->
      <g transform="translate(19.85593 245.035897) scale(0.1 -0.1)">
       <defs>
        <path id="CMSY10-0" d="M 4218 1472 
C 4326 1472 4442 1472 4442 1600 
C 4442 1728 4326 1728 4218 1728 
L 755 1728 
C 646 1728 531 1728 531 1600 
C 531 1472 646 1472 755 1472 
L 4218 1472 
z
" transform="scale(0.015625)"/>
        <path id="CMR17-31" d="M 1702 4083 
C 1702 4217 1696 4224 1606 4224 
C 1357 3927 979 3833 621 3820 
C 602 3820 570 3820 563 3808 
C 557 3795 557 3782 557 3648 
C 755 3648 1088 3686 1344 3839 
L 1344 467 
C 1344 243 1331 166 781 166 
L 589 166 
L 589 0 
C 896 6 1216 12 1523 12 
C 1830 12 2150 6 2458 0 
L 2458 166 
L 2266 166 
C 1715 166 1702 236 1702 467 
L 1702 4083 
z
" transform="scale(0.015625)"/>
        <path id="CMMI12-3a" d="M 1178 307 
C 1178 492 1024 620 870 620 
C 685 620 557 467 557 313 
C 557 128 710 0 864 0 
C 1050 0 1178 153 1178 307 
z
" transform="scale(0.015625)"/>
        <path id="CMR17-30" d="M 2688 2038 
C 2688 2430 2682 3099 2413 3613 
C 2176 4063 1798 4224 1466 4224 
C 1158 4224 768 4082 525 3620 
C 269 3137 243 2539 243 2038 
C 243 1671 250 1112 448 623 
C 723 -39 1216 -128 1466 -128 
C 1760 -128 2208 -7 2470 604 
C 2662 1048 2688 1568 2688 2038 
z
M 1466 -26 
C 1056 -26 813 328 723 816 
C 653 1196 653 1749 653 2109 
C 653 2604 653 3015 736 3407 
C 858 3954 1216 4121 1466 4121 
C 1728 4121 2067 3947 2189 3420 
C 2272 3054 2278 2623 2278 2109 
C 2278 1691 2278 1176 2202 797 
C 2067 96 1690 -26 1466 -26 
z
" transform="scale(0.015625)"/>
       </defs>
       <use xlink:href="#CMSY10-0" transform="scale(0.996264)"/>
       <use xlink:href="#CMR17-31" transform="translate(77.487468 0) scale(0.996264)"/>
       <use xlink:href="#CMMI12-3a" transform="translate(123.177945 0) scale(0.996264)"/>
       <use xlink:href="#CMR17-30" transform="translate(150.275122 0) scale(0.996264)"/>
       <use xlink:href="#CMR17-30" transform="translate(195.965599 0) scale(0.996264)"/>
      </g>
     </g>
    </g>
    <g id="xtick_2">
     <g id="line2d_2">
      <g>
       <use xlink:href="#m342663c87f" x="74.436009" y="230.937577" style="stroke: #000000; stroke-width: 0.8"/>
      </g>
     </g>
     <g id="text_2">
      <!-- $\mathdefault{−0.75}$ -->
      <g transform="translate(61.70593 245.035897) scale(0.1 -0.1)">
       <defs>
        <path id="CMR17-37" d="M 2886 3955 
L 2886 4096 
L 1382 4096 
C 634 4096 621 4166 595 4288 
L 480 4288 
L 294 3104 
L 410 3104 
C 429 3226 474 3552 550 3673 
C 589 3724 1062 3724 1171 3724 
L 2579 3724 
L 1869 2670 
C 1395 1961 1069 1003 1069 166 
C 1069 89 1069 -128 1299 -128 
C 1530 -128 1530 89 1530 172 
L 1530 466 
C 1530 1514 1709 2204 2003 2644 
L 2886 3955 
z
" transform="scale(0.015625)"/>
        <path id="CMR17-35" d="M 730 3750 
C 794 3724 1056 3641 1325 3641 
C 1920 3641 2246 3961 2432 4140 
C 2432 4191 2432 4224 2394 4224 
C 2387 4224 2374 4224 2323 4198 
C 2099 4102 1837 4032 1517 4032 
C 1325 4032 1037 4055 723 4191 
C 653 4224 640 4224 634 4224 
C 602 4224 595 4217 595 4090 
L 595 2231 
C 595 2113 595 2080 659 2080 
C 691 2080 704 2093 736 2139 
C 941 2435 1222 2560 1542 2560 
C 1766 2560 2246 2415 2246 1293 
C 2246 1087 2246 716 2054 422 
C 1894 159 1645 25 1370 25 
C 947 25 518 319 403 812 
C 429 806 480 793 506 793 
C 589 793 749 838 749 1036 
C 749 1209 627 1280 506 1280 
C 358 1280 262 1190 262 1011 
C 262 454 704 -128 1382 -128 
C 2042 -128 2669 441 2669 1267 
C 2669 2054 2170 2662 1549 2662 
C 1222 2662 947 2540 730 2304 
L 730 3750 
z
" transform="scale(0.015625)"/>
       </defs>
       <use xlink:href="#CMSY10-0" transform="scale(0.996264)"/>
       <use xlink:href="#CMR17-30" transform="translate(77.487468 0) scale(0.996264)"/>
       <use xlink:href="#CMMI12-3a" transform="translate(123.177945 0) scale(0.996264)"/>
       <use xlink:href="#CMR17-37" transform="translate(150.275122 0) scale(0.996264)"/>
       <use xlink:href="#CMR17-35" transform="translate(195.965599 0) scale(0.996264)"/>
      </g>
     </g>
    </g>
    <g id="xtick_3">
     <g id="line2d_3">
      <g>
       <use xlink:href="#m342663c87f" x="116.286009" y="230.937577" style="stroke: #000000; stroke-width: 0.8"/>
      </g>
     </g>
     <g id="text_3">
      <!-- $\mathdefault{−0.50}$ -->
      <g transform="translate(103.55593 245.035897) scale(0.1 -0.1)">
       <use xlink:href="#CMSY10-0" transform="scale(0.996264)"/>
       <use xlink:href="#CMR17-30" transform="translate(77.487468 0) scale(0.996264)"/>
       <use xlink:href="#CMMI12-3a" transform="translate(123.177945 0) scale(0.996264)"/>
       <use xlink:href="#CMR17-35" transform="translate(150.275122 0) scale(0.996264)"/>
       <use xlink:href="#CMR17-30" transform="translate(195.965599 0) scale(0.996264)"/>
      </g>
     </g>
    </g>
    <g id="xtick_4">
     <g id="line2d_4">
      <g>
       <use xlink:href="#m342663c87f" x="158.136009" y="230.937577" style="stroke: #000000; stroke-width: 0.8"/>
      </g>
     </g>
     <g id="text_4">
      <!-- $\mathdefault{−0.25}$ -->
      <g transform="translate(145.40593 245.035897) scale(0.1 -0.1)">
       <defs>
        <path id="CMR17-32" d="M 2669 990 
L 2554 990 
C 2490 537 2438 460 2413 422 
C 2381 371 1920 371 1830 371 
L 602 371 
C 832 620 1280 1073 1824 1596 
C 2214 1966 2669 2400 2669 3033 
C 2669 3788 2067 4224 1395 4224 
C 691 4224 262 3603 262 3027 
C 262 2777 448 2745 525 2745 
C 589 2745 781 2783 781 3007 
C 781 3206 614 3264 525 3264 
C 486 3264 448 3257 422 3244 
C 544 3788 915 4057 1306 4057 
C 1862 4057 2227 3616 2227 3033 
C 2227 2477 1901 1998 1536 1583 
L 262 147 
L 262 0 
L 2515 0 
L 2669 990 
z
" transform="scale(0.015625)"/>
       </defs>
       <use xlink:href="#CMSY10-0" transform="scale(0.996264)"/>
       <use xlink:href="#CMR17-30" transform="translate(77.487468 0) scale(0.996264)"/>
       <use xlink:href="#CMMI12-3a" transform="translate(123.177945 0) scale(0.996264)"/>
       <use xlink:href="#CMR17-32" transform="translate(150.275122 0) scale(0.996264)"/>
       <use xlink:href="#CMR17-35" transform="translate(195.965599 0) scale(0.996264)"/>
      </g>
     </g>
    </g>
    <g id="xtick_5">
     <g id="line2d_5">
      <g>
       <use xlink:href="#m342663c87f" x="199.986009" y="230.937577" style="stroke: #000000; stroke-width: 0.8"/>
      </g>
     </g>
     <g id="text_5">
      <!-- $\mathdefault{0.00}$ -->
      <g transform="translate(191.130302 245.035897) scale(0.1 -0.1)">
       <use xlink:href="#CMR17-30" transform="scale(0.996264)"/>
       <use xlink:href="#CMMI12-3a" transform="translate(45.690477 0) scale(0.996264)"/>
       <use xlink:href="#CMR17-30" transform="translate(72.787654 0) scale(0.996264)"/>
       <use xlink:href="#CMR17-30" transform="translate(118.478131 0) scale(0.996264)"/>
      </g>
     </g>
    </g>
    <g id="xtick_6">
     <g id="line2d_6">
      <g>
       <use xlink:href="#m342663c87f" x="241.836009" y="230.937577" style="stroke: #000000; stroke-width: 0.8"/>
      </g>
     </g>
     <g id="text_6">
      <!-- $\mathdefault{0.25}$ -->
      <g transform="translate(232.980302 245.035897) scale(0.1 -0.1)">
       <use xlink:href="#CMR17-30" transform="scale(0.996264)"/>
       <use xlink:href="#CMMI12-3a" transform="translate(45.690477 0) scale(0.996264)"/>
       <use xlink:href="#CMR17-32" transform="translate(72.787654 0) scale(0.996264)"/>
       <use xlink:href="#CMR17-35" transform="translate(118.478131 0) scale(0.996264)"/>
      </g>
     </g>
    </g>
    <g id="xtick_7">
     <g id="line2d_7">
      <g>
       <use xlink:href="#m342663c87f" x="283.686009" y="230.937577" style="stroke: #000000; stroke-width: 0.8"/>
      </g>
     </g>
     <g id="text_7">
      <!-- $\mathdefault{0.50}$ -->
      <g transform="translate(274.830302 245.035897) scale(0.1 -0.1)">
       <use xlink:href="#CMR17-30" transform="scale(0.996264)"/>
       <use xlink:href="#CMMI12-3a" transform="translate(45.690477 0) scale(0.996264)"/>
       <use xlink:href="#CMR17-35" transform="translate(72.787654 0) scale(0.996264)"/>
       <use xlink:href="#CMR17-30" transform="translate(118.478131 0) scale(0.996264)"/>
      </g>
     </g>
    </g>
    <g id="xtick_8">
     <g id="line2d_8">
      <g>
       <use xlink:href="#m342663c87f" x="325.536009" y="230.937577" style="stroke: #000000; stroke-width: 0.8"/>
      </g>
     </g>
     <g id="text_8">
      <!-- $\mathdefault{0.75}$ -->
      <g transform="translate(316.680302 245.035897) scale(0.1 -0.1)">
       <use xlink:href="#CMR17-30" transform="scale(0.996264)"/>
       <use xlink:href="#CMMI12-3a" transform="translate(45.690477 0) scale(0.996264)"/>
       <use xlink:href="#CMR17-37" transform="translate(72.787654 0) scale(0.996264)"/>
       <use xlink:href="#CMR17-35" transform="translate(118.478131 0) scale(0.996264)"/>
      </g>
     </g>
    </g>
    <g id="xtick_9">
     <g id="line2d_9">
      <g>
       <use xlink:href="#m342663c87f" x="367.386009" y="230.937577" style="stroke: #000000; stroke-width: 0.8"/>
      </g>
     </g>
     <g id="text_9">
      <!-- $\mathdefault{1.00}$ -->
      <g transform="translate(358.530302 245.035897) scale(0.1 -0.1)">
       <use xlink:href="#CMR17-31" transform="scale(0.996264)"/>
       <use xlink:href="#CMMI12-3a" transform="translate(45.690477 0) scale(0.996264)"/>
       <use xlink:href="#CMR17-30" transform="translate(72.787654 0) scale(0.996264)"/>
       <use xlink:href="#CMR17-30" transform="translate(118.478131 0) scale(0.996264)"/>
      </g>
     </g>
    </g>
    <g id="text_10">
     <!-- S/S_{total} -->
     <g transform="translate(180.748465 258.256204) scale(0.1 -0.1)">
      <defs>
       <path id="NimbusSanL-Regu-53" d="M 3814 3295 
C 3808 4204 3181 4736 2106 4736 
C 1082 4736 448 4211 448 3372 
C 448 2806 749 2450 1363 2291 
L 2522 1986 
C 3110 1833 3379 1598 3379 1236 
C 3379 988 3245 733 3046 593 
C 2861 466 2566 396 2189 396 
C 1683 396 1338 517 1114 784 
C 941 988 864 1210 870 1496 
L 307 1496 
C 314 1070 397 790 582 536 
C 902 102 1440 -128 2150 -128 
C 2707 -128 3162 0 3462 230 
C 3776 479 3974 892 3974 1293 
C 3974 1865 3616 2284 2982 2456 
L 1811 2768 
C 1248 2920 1043 3098 1043 3454 
C 1043 3925 1459 4236 2086 4236 
C 2829 4236 3245 3899 3251 3295 
L 3814 3295 
z
" transform="scale(0.015625)"/>
       <path id="NimbusSanL-Regu-2f" d="M 1466 4672 
L -51 -128 
L 301 -128 
L 1818 4672 
L 1466 4672 
z
" transform="scale(0.015625)"/>
       <path id="NimbusSanL-Regu-74" d="M 1626 3328 
L 1075 3328 
L 1075 4249 
L 544 4249 
L 544 3328 
L 90 3328 
L 90 2892 
L 544 2892 
L 544 402 
C 544 64 774 -128 1190 -128 
C 1318 -128 1446 -116 1626 -84 
L 1626 364 
C 1555 345 1472 339 1370 339 
C 1139 339 1075 402 1075 634 
L 1075 2892 
L 1626 2892 
L 1626 3328 
z
" transform="scale(0.015625)"/>
       <path id="NimbusSanL-Regu-6f" d="M 1741 3456 
C 800 3456 230 2784 230 1663 
C 230 543 794 -128 1747 -128 
C 2688 -128 3264 543 3264 1638 
C 3264 2791 2707 3456 1741 3456 
z
M 1747 2963 
C 2349 2963 2707 2472 2707 1644 
C 2707 861 2336 364 1747 364 
C 1152 364 787 855 787 1663 
C 787 2466 1152 2963 1747 2963 
z
" transform="scale(0.015625)"/>
       <path id="NimbusSanL-Regu-61" d="M 3424 332 
C 3366 320 3341 320 3309 320 
C 3123 320 3021 415 3021 581 
L 3021 2542 
C 3021 3135 2586 3456 1760 3456 
C 1274 3456 870 3315 646 3065 
C 493 2893 429 2702 416 2370 
L 954 2370 
C 998 2778 1242 2963 1741 2963 
C 2221 2963 2490 2784 2490 2466 
L 2490 2326 
C 2490 2103 2355 2007 1933 1956 
C 1178 1861 1062 1835 858 1753 
C 467 1593 269 1294 269 861 
C 269 256 691 -128 1370 -128 
C 1792 -128 2131 19 2509 364 
C 2547 25 2714 -128 3059 -128 
C 3168 -128 3251 -116 3424 -71 
L 3424 332 
z
M 2490 1071 
C 2490 893 2438 785 2278 638 
C 2061 441 1798 339 1485 339 
C 1069 339 826 536 826 874 
C 826 1224 1062 1402 1632 1485 
C 2195 1562 2310 1587 2490 1670 
L 2490 1071 
z
" transform="scale(0.015625)"/>
       <path id="NimbusSanL-Regu-6c" d="M 973 4672 
L 435 4672 
L 435 0 
L 973 0 
L 973 4672 
z
" transform="scale(0.015625)"/>
      </defs>
      <use xlink:href="#NimbusSanL-Regu-53" transform="scale(0.996264)"/>
      <use xlink:href="#NimbusSanL-Regu-2f" transform="translate(66.450031 0) scale(0.996264)"/>
      <use xlink:href="#NimbusSanL-Regu-53" transform="translate(94.145201 0) scale(0.996264)"/>
      <use xlink:href="#NimbusSanL-Regu-74" transform="translate(196.460797 0) scale(0.996264)"/>
      <use xlink:href="#NimbusSanL-Regu-6f" transform="translate(224.155967 0) scale(0.996264)"/>
      <use xlink:href="#NimbusSanL-Regu-74" transform="translate(279.547644 0) scale(0.996264)"/>
      <use xlink:href="#NimbusSanL-Regu-61" transform="translate(307.242813 0) scale(0.996264)"/>
      <use xlink:href="#NimbusSanL-Regu-6c" transform="translate(362.63449 0) scale(0.996264)"/>
      <path d="M 166.572573 0 
L 196.460797 0 
L 196.460797 0.3985 
L 166.572573 0.3985 
L 166.572573 0 
z
"/>
     </g>
    </g>
   </g>
   <g id="matplotlib.axis_2">
    <g id="ytick_1">
     <g id="line2d_10">
      <defs>
       <path id="mbf5215538b" d="M 0 0 
L -3.5 0 
" style="stroke: #000000; stroke-width: 0.8"/>
      </defs>
      <g>
       <use xlink:href="#mbf5215538b" x="32.586009" y="187.787492" style="stroke: #000000; stroke-width: 0.8"/>
      </g>
     </g>
     <g id="text_11">
      <!-- $\mathdefault{2}$ -->
      <g transform="translate(20.604674 191.336652) scale(0.1 -0.1)">
       <use xlink:href="#CMR17-32" transform="scale(0.996264)"/>
      </g>
     </g>
    </g>
    <g id="ytick_2">
     <g id="line2d_11">
      <g>
       <use xlink:href="#mbf5215538b" x="32.586009" y="143.527909" style="stroke: #000000; stroke-width: 0.8"/>
      </g>
     </g>
     <g id="text_12">
      <!-- $\mathdefault{3}$ -->
      <g transform="translate(20.604674 147.077069) scale(0.1 -0.1)">
       <defs>
        <path id="CMR17-33" d="M 1414 2176 
C 1984 2176 2234 1673 2234 1094 
C 2234 322 1824 25 1453 25 
C 1114 25 563 193 390 691 
C 422 678 454 678 486 678 
C 640 678 755 780 755 947 
C 755 1132 614 1216 486 1216 
C 378 1216 211 1164 211 927 
C 211 335 787 -128 1466 -128 
C 2176 -128 2720 432 2720 1087 
C 2720 1718 2208 2176 1600 2246 
C 2086 2347 2554 2776 2554 3353 
C 2554 3856 2048 4224 1472 4224 
C 890 4224 378 3862 378 3347 
C 378 3123 544 3084 627 3084 
C 762 3084 877 3167 877 3334 
C 877 3500 762 3584 627 3584 
C 602 3584 570 3584 544 3571 
C 730 3999 1235 4076 1459 4076 
C 1683 4076 2106 3966 2106 3347 
C 2106 3167 2080 2851 1862 2574 
C 1670 2329 1453 2316 1242 2297 
C 1210 2297 1062 2284 1037 2284 
C 992 2278 966 2272 966 2227 
C 966 2182 973 2176 1101 2176 
L 1414 2176 
z
" transform="scale(0.015625)"/>
       </defs>
       <use xlink:href="#CMR17-33" transform="scale(0.996264)"/>
      </g>
     </g>
    </g>
    <g id="ytick_3">
     <g id="line2d_12">
      <g>
       <use xlink:href="#mbf5215538b" x="32.586009" y="99.268326" style="stroke: #000000; stroke-width: 0.8"/>
      </g>
     </g>
     <g id="text_13">
      <!-- $\mathdefault{4}$ -->
      <g transform="translate(20.604674 102.817486) scale(0.1 -0.1)">
       <defs>
        <path id="CMR17-34" d="M 2150 4147 
C 2150 4281 2144 4288 2029 4288 
L 128 1254 
L 128 1088 
L 1779 1088 
L 1779 460 
C 1779 230 1766 166 1318 166 
L 1197 166 
L 1197 0 
C 1402 12 1747 12 1965 12 
C 2182 12 2528 12 2733 0 
L 2733 166 
L 2611 166 
C 2163 166 2150 230 2150 460 
L 2150 1088 
L 2803 1088 
L 2803 1254 
L 2150 1254 
L 2150 4147 
z
M 1798 3723 
L 1798 1254 
L 256 1254 
L 1798 3723 
z
" transform="scale(0.015625)"/>
       </defs>
       <use xlink:href="#CMR17-34" transform="scale(0.996264)"/>
      </g>
     </g>
    </g>
    <g id="ytick_4">
     <g id="line2d_13">
      <g>
       <use xlink:href="#mbf5215538b" x="32.586009" y="55.008743" style="stroke: #000000; stroke-width: 0.8"/>
      </g>
     </g>
     <g id="text_14">
      <!-- $\mathdefault{5}$ -->
      <g transform="translate(20.604674 58.557903) scale(0.1 -0.1)">
       <use xlink:href="#CMR17-35" transform="scale(0.996264)"/>
      </g>
     </g>
    </g>
    <g id="ytick_5">
     <g id="line2d_14">
      <g>
       <use xlink:href="#mbf5215538b" x="32.586009" y="10.74916" style="stroke: #000000; stroke-width: 0.8"/>
      </g>
     </g>
     <g id="text_15">
      <!-- $\mathdefault{6}$ -->
      <g transform="translate(20.604674 14.29832) scale(0.1 -0.1)">
       <defs>
        <path id="CMR17-36" d="M 678 2198 
C 678 3712 1395 4076 1811 4076 
C 1946 4076 2272 4049 2400 3782 
C 2298 3782 2106 3782 2106 3558 
C 2106 3385 2246 3328 2336 3328 
C 2394 3328 2566 3353 2566 3571 
C 2566 3987 2246 4224 1805 4224 
C 1043 4224 243 3411 243 2011 
C 243 257 966 -128 1478 -128 
C 2099 -128 2688 431 2688 1295 
C 2688 2101 2170 2688 1517 2688 
C 1126 2688 838 2430 678 1979 
L 678 2198 
z
M 1478 25 
C 691 25 691 1212 691 1450 
C 691 1914 909 2585 1504 2585 
C 1613 2585 1926 2585 2138 2140 
C 2253 1889 2253 1624 2253 1302 
C 2253 954 2253 696 2118 438 
C 1978 173 1773 25 1478 25 
z
" transform="scale(0.015625)"/>
       </defs>
       <use xlink:href="#CMR17-36" transform="scale(0.996264)"/>
      </g>
     </g>
    </g>
    <g id="text_16">
     <!-- Shape Factor - Blade_17 -->
     <g transform="translate(14.482687 174.208796) rotate(-90) scale(0.1 -0.1)">
      <defs>
       <path id="NimbusSanL-Regu-68" d="M 448 4672 
L 448 0 
L 979 0 
L 979 1853 
C 979 2539 1338 2988 1888 2988 
C 2061 2988 2234 2930 2362 2834 
C 2515 2725 2579 2565 2579 2328 
L 2579 0 
L 3110 0 
L 3110 2539 
C 3110 3103 2707 3456 2054 3456 
C 1581 3456 1293 3308 979 2898 
L 979 4672 
L 448 4672 
z
" transform="scale(0.015625)"/>
       <path id="NimbusSanL-Regu-70" d="M 346 -1408 
L 883 -1408 
L 883 371 
C 1165 25 1478 -128 1914 -128 
C 2778 -128 3347 568 3347 1632 
C 3347 2752 2797 3456 1907 3456 
C 1453 3456 1088 3251 838 2854 
L 838 3359 
L 346 3359 
L 346 -1408 
z
M 1818 2956 
C 2406 2956 2790 2440 2790 1644 
C 2790 887 2400 371 1818 371 
C 1254 371 883 880 883 1663 
C 883 2447 1254 2956 1818 2956 
z
" transform="scale(0.015625)"/>
       <path id="NimbusSanL-Regu-65" d="M 3283 1484 
C 3283 1998 3245 2311 3149 2565 
C 2931 3123 2419 3456 1792 3456 
C 858 3456 256 2734 256 1619 
C 256 545 838 -128 1779 -128 
C 2547 -128 3078 307 3213 1018 
L 2675 1018 
C 2528 588 2227 364 1798 364 
C 1459 364 1171 514 992 787 
C 864 974 819 1161 813 1484 
L 3283 1484 
z
M 826 1920 
C 870 2552 1248 2963 1786 2963 
C 2310 2963 2714 2519 2714 1959 
C 2714 1946 2714 1933 2707 1920 
L 826 1920 
z
" transform="scale(0.015625)"/>
       <path id="NimbusSanL-Regu-46" d="M 1171 2112 
L 3398 2112 
L 3398 2636 
L 1171 2636 
L 1171 4147 
L 3706 4147 
L 3706 4672 
L 576 4672 
L 576 0 
L 1171 0 
L 1171 2112 
z
" transform="scale(0.015625)"/>
       <path id="NimbusSanL-Regu-63" d="M 3014 2237 
C 2989 2561 2918 2771 2790 2956 
C 2560 3270 2157 3456 1690 3456 
C 787 3456 198 2740 198 1632 
C 198 555 774 -128 1683 -128 
C 2483 -128 2989 352 3053 1167 
L 2515 1167 
C 2426 632 2150 364 1696 364 
C 1107 364 755 842 755 1632 
C 755 2466 1101 2963 1683 2963 
C 2131 2963 2413 2701 2477 2237 
L 3014 2237 
z
" transform="scale(0.015625)"/>
       <path id="NimbusSanL-Regu-72" d="M 442 3328 
L 442 0 
L 979 0 
L 979 1727 
C 979 2203 1101 2514 1357 2698 
C 1523 2819 1683 2857 2054 2863 
L 2054 3404 
C 1965 3449 1920 3456 1850 3456 
C 1504 3456 1242 3251 934 2750 
L 934 3328 
L 442 3328 
z
" transform="scale(0.015625)"/>
       <path id="NimbusSanL-Regu-2d" d="M 1818 1996 
L 294 1996 
L 294 1536 
L 1818 1536 
L 1818 1996 
z
" transform="scale(0.015625)"/>
       <path id="NimbusSanL-Regu-42" d="M 506 0 
L 2611 0 
C 3053 0 3379 121 3629 390 
C 3859 632 3987 961 3987 1321 
C 3987 1878 3731 2214 3136 2444 
C 3558 2643 3782 2994 3782 3476 
C 3782 3821 3654 4127 3411 4345 
C 3168 4569 2848 4672 2400 4672 
L 506 4672 
L 506 0 
z
M 1101 2636 
L 1101 4147 
L 2253 4147 
C 2586 4147 2771 4101 2931 3977 
C 3098 3847 3187 3652 3187 3391 
C 3187 3138 3098 2936 2931 2806 
C 2771 2682 2586 2636 2253 2636 
L 1101 2636 
z
M 1101 524 
L 1101 2112 
L 2554 2112 
C 2842 2112 3034 2042 3174 1890 
C 3315 1745 3392 1542 3392 1315 
C 3392 1093 3315 891 3174 746 
C 3034 594 2842 524 2554 524 
L 1101 524 
z
" transform="scale(0.015625)"/>
       <path id="NimbusSanL-Regu-64" d="M 3168 4672 
L 2637 4672 
L 2637 2937 
C 2413 3276 2054 3456 1606 3456 
C 736 3456 166 2759 166 1695 
C 166 568 723 -128 1626 -128 
C 2086 -128 2406 44 2694 460 
L 2694 19 
L 3168 19 
L 3168 4672 
z
M 1696 2956 
C 2272 2956 2637 2447 2637 1651 
C 2637 880 2266 371 1702 371 
C 1114 371 723 887 723 1663 
C 723 2440 1114 2956 1696 2956 
z
" transform="scale(0.015625)"/>
       <path id="NimbusSanL-Regu-31" d="M 1658 3232 
L 1658 0 
L 2221 0 
L 2221 4537 
L 1850 4537 
C 1651 3840 1523 3744 653 3635 
L 653 3232 
L 1658 3232 
z
" transform="scale(0.015625)"/>
       <path id="NimbusSanL-Regu-37" d="M 3328 4544 
L 294 4544 
L 294 3987 
L 2746 3987 
C 1664 2442 1222 1493 883 0 
L 1485 0 
C 1734 1454 2304 2704 3328 4070 
L 3328 4544 
z
" transform="scale(0.015625)"/>
      </defs>
      <use xlink:href="#NimbusSanL-Regu-53" transform="scale(0.996264)"/>
      <use xlink:href="#NimbusSanL-Regu-68" transform="translate(66.450031 0) scale(0.996264)"/>
      <use xlink:href="#NimbusSanL-Regu-61" transform="translate(121.841708 0) scale(0.996264)"/>
      <use xlink:href="#NimbusSanL-Regu-70" transform="translate(177.233385 0) scale(0.996264)"/>
      <use xlink:href="#NimbusSanL-Regu-65" transform="translate(232.625062 0) scale(0.996264)"/>
      <use xlink:href="#NimbusSanL-Regu-46" transform="translate(315.711909 0) scale(0.996264)"/>
      <use xlink:href="#NimbusSanL-Regu-61" transform="translate(371.602189 0) scale(0.996264)"/>
      <use xlink:href="#NimbusSanL-Regu-63" transform="translate(426.993866 0) scale(0.996264)"/>
      <use xlink:href="#NimbusSanL-Regu-74" transform="translate(476.807066 0) scale(0.996264)"/>
      <use xlink:href="#NimbusSanL-Regu-6f" transform="translate(504.502236 0) scale(0.996264)"/>
      <use xlink:href="#NimbusSanL-Regu-72" transform="translate(559.893913 0) scale(0.996264)"/>
      <use xlink:href="#NimbusSanL-Regu-2d" transform="translate(620.764312 0) scale(0.996264)"/>
      <use xlink:href="#NimbusSanL-Regu-42" transform="translate(681.634712 0) scale(0.996264)"/>
      <use xlink:href="#NimbusSanL-Regu-6c" transform="translate(748.084743 0) scale(0.996264)"/>
      <use xlink:href="#NimbusSanL-Regu-61" transform="translate(770.201527 0) scale(0.996264)"/>
      <use xlink:href="#NimbusSanL-Regu-64" transform="translate(825.593204 0) scale(0.996264)"/>
      <use xlink:href="#NimbusSanL-Regu-65" transform="translate(880.984881 0) scale(0.996264)"/>
      <use xlink:href="#NimbusSanL-Regu-31" transform="translate(972.242123 0) scale(0.996264)"/>
      <use xlink:href="#NimbusSanL-Regu-37" transform="translate(1027.6338 0) scale(0.996264)"/>
      <path d="M 942.353899 0 
L 972.242123 0 
L 972.242123 0.3985 
L 942.353899 0.3985 
L 942.353899 0 
z
"/>
     </g>
    </g>
   </g>
   <g id="line2d_15">
    <path d="M 199.986009 213.14382 
M 201.250849 213.094483 
L 203.714613 162.501313 
L 205.553899 195.388122 
L 207.393686 88.403341 
L 209.233629 176.086311 
L 211.073628 162.430244 
L 212.913651 154.498102 
L 214.753683 81.429665 
M 229.473766 102.983417 
L 231.313724 106.041587 
L 233.153665 107.795384 
L 234.993583 108.868788 
L 236.833483 109.481887 
L 238.67336 109.780858 
L 240.513213 150.048253 
L 242.353049 149.453478 
L 244.19287 158.285385 
L 246.032682 165.348829 
L 247.872496 170.131043 
L 249.71232 169.479753 
L 251.552163 169.087534 
L 253.392032 164.167856 
L 255.231933 150.019901 
L 257.071868 111.782823 
M 262.591859 109.557535 
L 264.431909 110.063638 
M 268.112065 181.922535 
L 269.952164 149.724735 
L 271.792275 144.198619 
L 273.632395 141.688424 
L 275.472521 140.747741 
L 277.312653 143.269184 
L 279.15279 150.920672 
L 280.992931 150.612997 
L 282.833075 162.026637 
M 288.353521 94.43501 
L 290.193673 213.765757 
L 292.033826 213.06161 
L 293.873981 212.650118 
L 295.714136 213.527114 
L 297.554292 215.98849 
L 299.394449 165.158943 
L 301.234607 150.940078 
L 303.074765 110.999324 
M 308.595241 148.101867 
L 310.435401 160.741702 
L 312.27556 142.406748 
L 314.11572 114.388833 
L 315.95588 109.776711 
L 317.796041 128.678885 
L 319.636201 142.83775 
L 321.476362 155.945932 
L 323.316523 166.927385 
L 325.156684 175.889158 
L 326.996845 184.0141 
L 328.837006 196.985025 
L 330.677167 212.340081 
L 332.517328 220.857577 
L 334.357489 19.257577 
" clip-path="url(#p5f4166635d)" style="fill: none; stroke: #00008b; stroke-width: 1.5; stroke-linecap: square"/>
    <defs>
     <path id="m0ff2b95df1" d="M 0 0.25 
C 0.066301 0.25 0.129895 0.223658 0.176777 0.176777 
C 0.223658 0.129895 0.25 0.066301 0.25 0 
C 0.25 -0.066301 0.223658 -0.129895 0.176777 -0.176777 
C 0.129895 -0.223658 0.066301 -0.25 0 -0.25 
C -0.066301 -0.25 -0.129895 -0.223658 -0.176777 -0.176777 
C -0.223658 -0.129895 -0.25 -0.066301 -0.25 0 
C -0.25 0.066301 -0.223658 0.129895 -0.176777 0.176777 
C -0.129895 0.223658 -0.066301 0.25 0 0.25 
z
" style="stroke: #00008b"/>
    </defs>
    <g clip-path="url(#p5f4166635d)">
     <use xlink:href="#m0ff2b95df1" x="199.986009" y="213.14382" style="fill: #00008b; stroke: #00008b"/>
     <use xlink:href="#m0ff2b95df1" x="201.250849" y="213.094483" style="fill: #00008b; stroke: #00008b"/>
     <use xlink:href="#m0ff2b95df1" x="203.714613" y="162.501313" style="fill: #00008b; stroke: #00008b"/>
     <use xlink:href="#m0ff2b95df1" x="205.553899" y="195.388122" style="fill: #00008b; stroke: #00008b"/>
     <use xlink:href="#m0ff2b95df1" x="207.393686" y="88.403341" style="fill: #00008b; stroke: #00008b"/>
     <use xlink:href="#m0ff2b95df1" x="209.233629" y="176.086311" style="fill: #00008b; stroke: #00008b"/>
     <use xlink:href="#m0ff2b95df1" x="211.073628" y="162.430244" style="fill: #00008b; stroke: #00008b"/>
     <use xlink:href="#m0ff2b95df1" x="212.913651" y="154.498102" style="fill: #00008b; stroke: #00008b"/>
     <use xlink:href="#m0ff2b95df1" x="214.753683" y="81.429665" style="fill: #00008b; stroke: #00008b"/>
     <use xlink:href="#m0ff2b95df1" x="229.473766" y="102.983417" style="fill: #00008b; stroke: #00008b"/>
     <use xlink:href="#m0ff2b95df1" x="231.313724" y="106.041587" style="fill: #00008b; stroke: #00008b"/>
     <use xlink:href="#m0ff2b95df1" x="233.153665" y="107.795384" style="fill: #00008b; stroke: #00008b"/>
     <use xlink:href="#m0ff2b95df1" x="234.993583" y="108.868788" style="fill: #00008b; stroke: #00008b"/>
     <use xlink:href="#m0ff2b95df1" x="236.833483" y="109.481887" style="fill: #00008b; stroke: #00008b"/>
     <use xlink:href="#m0ff2b95df1" x="238.67336" y="109.780858" style="fill: #00008b; stroke: #00008b"/>
     <use xlink:href="#m0ff2b95df1" x="240.513213" y="150.048253" style="fill: #00008b; stroke: #00008b"/>
     <use xlink:href="#m0ff2b95df1" x="242.353049" y="149.453478" style="fill: #00008b; stroke: #00008b"/>
     <use xlink:href="#m0ff2b95df1" x="244.19287" y="158.285385" style="fill: #00008b; stroke: #00008b"/>
     <use xlink:href="#m0ff2b95df1" x="246.032682" y="165.348829" style="fill: #00008b; stroke: #00008b"/>
     <use xlink:href="#m0ff2b95df1" x="247.872496" y="170.131043" style="fill: #00008b; stroke: #00008b"/>
     <use xlink:href="#m0ff2b95df1" x="249.71232" y="169.479753" style="fill: #00008b; stroke: #00008b"/>
     <use xlink:href="#m0ff2b95df1" x="251.552163" y="169.087534" style="fill: #00008b; stroke: #00008b"/>
     <use xlink:href="#m0ff2b95df1" x="253.392032" y="164.167856" style="fill: #00008b; stroke: #00008b"/>
     <use xlink:href="#m0ff2b95df1" x="255.231933" y="150.019901" style="fill: #00008b; stroke: #00008b"/>
     <use xlink:href="#m0ff2b95df1" x="257.071868" y="111.782823" style="fill: #00008b; stroke: #00008b"/>
     <use xlink:href="#m0ff2b95df1" x="262.591859" y="109.557535" style="fill: #00008b; stroke: #00008b"/>
     <use xlink:href="#m0ff2b95df1" x="264.431909" y="110.063638" style="fill: #00008b; stroke: #00008b"/>
     <use xlink:href="#m0ff2b95df1" x="268.112065" y="181.922535" style="fill: #00008b; stroke: #00008b"/>
     <use xlink:href="#m0ff2b95df1" x="269.952164" y="149.724735" style="fill: #00008b; stroke: #00008b"/>
     <use xlink:href="#m0ff2b95df1" x="271.792275" y="144.198619" style="fill: #00008b; stroke: #00008b"/>
     <use xlink:href="#m0ff2b95df1" x="273.632395" y="141.688424" style="fill: #00008b; stroke: #00008b"/>
     <use xlink:href="#m0ff2b95df1" x="275.472521" y="140.747741" style="fill: #00008b; stroke: #00008b"/>
     <use xlink:href="#m0ff2b95df1" x="277.312653" y="143.269184" style="fill: #00008b; stroke: #00008b"/>
     <use xlink:href="#m0ff2b95df1" x="279.15279" y="150.920672" style="fill: #00008b; stroke: #00008b"/>
     <use xlink:href="#m0ff2b95df1" x="280.992931" y="150.612997" style="fill: #00008b; stroke: #00008b"/>
     <use xlink:href="#m0ff2b95df1" x="282.833075" y="162.026637" style="fill: #00008b; stroke: #00008b"/>
     <use xlink:href="#m0ff2b95df1" x="288.353521" y="94.43501" style="fill: #00008b; stroke: #00008b"/>
     <use xlink:href="#m0ff2b95df1" x="290.193673" y="213.765757" style="fill: #00008b; stroke: #00008b"/>
     <use xlink:href="#m0ff2b95df1" x="292.033826" y="213.06161" style="fill: #00008b; stroke: #00008b"/>
     <use xlink:href="#m0ff2b95df1" x="293.873981" y="212.650118" style="fill: #00008b; stroke: #00008b"/>
     <use xlink:href="#m0ff2b95df1" x="295.714136" y="213.527114" style="fill: #00008b; stroke: #00008b"/>
     <use xlink:href="#m0ff2b95df1" x="297.554292" y="215.98849" style="fill: #00008b; stroke: #00008b"/>
     <use xlink:href="#m0ff2b95df1" x="299.394449" y="165.158943" style="fill: #00008b; stroke: #00008b"/>
     <use xlink:href="#m0ff2b95df1" x="301.234607" y="150.940078" style="fill: #00008b; stroke: #00008b"/>
     <use xlink:href="#m0ff2b95df1" x="303.074765" y="110.999324" style="fill: #00008b; stroke: #00008b"/>
     <use xlink:href="#m0ff2b95df1" x="308.595241" y="148.101867" style="fill: #00008b; stroke: #00008b"/>
     <use xlink:href="#m0ff2b95df1" x="310.435401" y="160.741702" style="fill: #00008b; stroke: #00008b"/>
     <use xlink:href="#m0ff2b95df1" x="312.27556" y="142.406748" style="fill: #00008b; stroke: #00008b"/>
     <use xlink:href="#m0ff2b95df1" x="314.11572" y="114.388833" style="fill: #00008b; stroke: #00008b"/>
     <use xlink:href="#m0ff2b95df1" x="315.95588" y="109.776711" style="fill: #00008b; stroke: #00008b"/>
     <use xlink:href="#m0ff2b95df1" x="317.796041" y="128.678885" style="fill: #00008b; stroke: #00008b"/>
     <use xlink:href="#m0ff2b95df1" x="319.636201" y="142.83775" style="fill: #00008b; stroke: #00008b"/>
     <use xlink:href="#m0ff2b95df1" x="321.476362" y="155.945932" style="fill: #00008b; stroke: #00008b"/>
     <use xlink:href="#m0ff2b95df1" x="323.316523" y="166.927385" style="fill: #00008b; stroke: #00008b"/>
     <use xlink:href="#m0ff2b95df1" x="325.156684" y="175.889158" style="fill: #00008b; stroke: #00008b"/>
     <use xlink:href="#m0ff2b95df1" x="326.996845" y="184.0141" style="fill: #00008b; stroke: #00008b"/>
     <use xlink:href="#m0ff2b95df1" x="328.837006" y="196.985025" style="fill: #00008b; stroke: #00008b"/>
     <use xlink:href="#m0ff2b95df1" x="330.677167" y="212.340081" style="fill: #00008b; stroke: #00008b"/>
     <use xlink:href="#m0ff2b95df1" x="332.517328" y="220.857577" style="fill: #00008b; stroke: #00008b"/>
     <use xlink:href="#m0ff2b95df1" x="334.357489" y="19.257577" style="fill: #00008b; stroke: #00008b"/>
    </g>
   </g>
   <g id="line2d_16">
    <path d="M 198.721182 119.868322 
L 196.256875 187.866986 
L 194.417245 206.876768 
L 192.577106 198.908797 
L 190.736799 211.806504 
" clip-path="url(#p5f4166635d)" style="fill: none; stroke: #add8e6; stroke-width: 1.5; stroke-linecap: square"/>
    <defs>
     <path id="m97d6610913" d="M 0 0.25 
C 0.066301 0.25 0.129895 0.223658 0.176777 0.176777 
C 0.223658 0.129895 0.25 0.066301 0.25 0 
C 0.25 -0.066301 0.223658 -0.129895 0.176777 -0.176777 
C 0.129895 -0.223658 0.066301 -0.25 0 -0.25 
C -0.066301 -0.25 -0.129895 -0.223658 -0.176777 -0.176777 
C -0.223658 -0.129895 -0.25 -0.066301 -0.25 0 
C -0.25 0.066301 -0.223658 0.129895 -0.176777 0.176777 
C -0.129895 0.223658 -0.066301 0.25 0 0.25 
z
" style="stroke: #add8e6"/>
    </defs>
    <g clip-path="url(#p5f4166635d)">
     <use xlink:href="#m97d6610913" x="198.721182" y="119.868322" style="fill: #add8e6; stroke: #add8e6"/>
     <use xlink:href="#m97d6610913" x="196.256875" y="187.866986" style="fill: #add8e6; stroke: #add8e6"/>
     <use xlink:href="#m97d6610913" x="194.417245" y="206.876768" style="fill: #add8e6; stroke: #add8e6"/>
     <use xlink:href="#m97d6610913" x="192.577106" y="198.908797" style="fill: #add8e6; stroke: #add8e6"/>
     <use xlink:href="#m97d6610913" x="190.736799" y="211.806504" style="fill: #add8e6; stroke: #add8e6"/>
    </g>
   </g>
   <g id="patch_3">
    <path d="M 32.586009 230.937577 
L 32.586009 9.177577 
" style="fill: none; stroke: #000000; stroke-width: 0.8; stroke-linejoin: miter; stroke-linecap: square"/>
   </g>
   <g id="patch_4">
    <path d="M 367.386009 230.937577 
L 367.386009 9.177577 
" style="fill: none; stroke: #000000; stroke-width: 0.8; stroke-linejoin: miter; stroke-linecap: square"/>
   </g>
   <g id="patch_5">
    <path d="M 32.586009 230.937577 
L 367.386009 230.937577 
" style="fill: none; stroke: #000000; stroke-width: 0.8; stroke-linejoin: miter; stroke-linecap: square"/>
   </g>
   <g id="patch_6">
    <path d="M 32.586009 9.177577 
L 367.386009 9.177577 
" style="fill: none; stroke: #000000; stroke-width: 0.8; stroke-linejoin: miter; stroke-linecap: square"/>
   </g>
   <g id="legend_1">
    <g id="patch_7">
     <path d="M 37.586009 60.207231 
L 123.408665 60.207231 
L 123.408665 14.177577 
L 37.586009 14.177577 
z
" style="fill: #ffffff; opacity: 0.8; stroke: #000000; stroke-linejoin: miter"/>
    </g>
    <g id="line2d_17">
     <path d="M 41.586009 21.960264 
L 51.586009 21.960264 
L 61.586009 21.960264 
" style="fill: none; stroke: #00008b; stroke-width: 1.5; stroke-linecap: square"/>
     <g>
      <use xlink:href="#m0ff2b95df1" x="51.586009" y="21.960264" style="fill: #00008b; stroke: #00008b"/>
     </g>
    </g>
    <g id="text_17">
     <!-- SU2 (SS) -->
     <g transform="translate(69.586009 25.460264) scale(0.1 -0.1)">
      <defs>
       <path id="NimbusSanL-Regu-55" d="M 3533 4672 
L 3533 1404 
C 3533 779 3078 396 2330 396 
C 1984 396 1702 479 1478 639 
C 1248 817 1139 1053 1139 1404 
L 1139 4672 
L 544 4672 
L 544 1404 
C 544 460 1222 -128 2330 -128 
C 3424 -128 4128 473 4128 1404 
L 4128 4672 
L 3533 4672 
z
" transform="scale(0.015625)"/>
       <path id="NimbusSanL-Regu-32" d="M 3238 556 
L 851 556 
C 909 928 1114 1165 1670 1493 
L 2310 1839 
C 2944 2185 3270 2653 3270 3211 
C 3270 3589 3117 3942 2848 4185 
C 2579 4428 2246 4544 1818 4544 
C 1242 4544 813 4339 563 3955 
C 403 3711 333 3429 320 2967 
L 883 2967 
C 902 3275 941 3461 1018 3608 
C 1165 3884 1459 4051 1798 4051 
C 2310 4051 2694 3685 2694 3198 
C 2694 2839 2483 2531 2080 2300 
L 1491 1967 
C 544 1428 269 999 218 0 
L 3238 0 
L 3238 556 
z
" transform="scale(0.015625)"/>
       <path id="NimbusSanL-Regu-28" d="M 1510 4672 
C 870 3833 467 2668 467 1663 
C 467 652 870 -513 1510 -1351 
L 1862 -1351 
C 1299 -436 986 639 986 1663 
C 986 2681 1299 3763 1862 4672 
L 1510 4672 
z
" transform="scale(0.015625)"/>
       <path id="NimbusSanL-Regu-29" d="M 595 -1351 
C 1235 -513 1638 652 1638 1657 
C 1638 2668 1235 3833 595 4672 
L 243 4672 
C 806 3756 1120 2681 1120 1657 
C 1120 639 806 -442 243 -1351 
L 595 -1351 
z
" transform="scale(0.015625)"/>
      </defs>
      <use xlink:href="#NimbusSanL-Regu-53" transform="scale(0.996264)"/>
      <use xlink:href="#NimbusSanL-Regu-55" transform="translate(66.450031 0) scale(0.996264)"/>
      <use xlink:href="#NimbusSanL-Regu-32" transform="translate(138.380016 0) scale(0.996264)"/>
      <use xlink:href="#NimbusSanL-Regu-28" transform="translate(221.466863 0) scale(0.996264)"/>
      <use xlink:href="#NimbusSanL-Regu-53" transform="translate(254.642092 0) scale(0.996264)"/>
      <use xlink:href="#NimbusSanL-Regu-53" transform="translate(321.092123 0) scale(0.996264)"/>
      <use xlink:href="#NimbusSanL-Regu-29" transform="translate(387.542155 0) scale(0.996264)"/>
     </g>
    </g>
    <g id="line2d_18">
     <path d="M 41.586009 36.364938 
L 51.586009 36.364938 
L 61.586009 36.364938 
" style="fill: none; stroke: #add8e6; stroke-width: 1.5; stroke-linecap: square"/>
     <g>
      <use xlink:href="#m97d6610913" x="51.586009" y="36.364938" style="fill: #add8e6; stroke: #add8e6"/>
     </g>
    </g>
    <g id="text_18">
     <!-- SU2 (PS) -->
     <g transform="translate(69.586009 39.864938) scale(0.1 -0.1)">
      <defs>
       <path id="NimbusSanL-Regu-50" d="M 1178 1984 
L 2643 1984 
C 3008 1984 3296 2092 3546 2316 
C 3827 2572 3949 2873 3949 3302 
C 3949 4179 3430 4672 2509 4672 
L 582 4672 
L 582 0 
L 1178 0 
L 1178 1984 
z
M 1178 2508 
L 1178 4147 
L 2419 4147 
C 2989 4147 3328 3839 3328 3327 
C 3328 2816 2989 2508 2419 2508 
L 1178 2508 
z
" transform="scale(0.015625)"/>
      </defs>
      <use xlink:href="#NimbusSanL-Regu-53" transform="scale(0.996264)"/>
      <use xlink:href="#NimbusSanL-Regu-55" transform="translate(66.450031 0) scale(0.996264)"/>
      <use xlink:href="#NimbusSanL-Regu-32" transform="translate(138.380016 0) scale(0.996264)"/>
      <use xlink:href="#NimbusSanL-Regu-28" transform="translate(221.466863 0) scale(0.996264)"/>
      <use xlink:href="#NimbusSanL-Regu-50" transform="translate(254.642092 0) scale(0.996264)"/>
      <use xlink:href="#NimbusSanL-Regu-53" transform="translate(321.092123 0) scale(0.996264)"/>
      <use xlink:href="#NimbusSanL-Regu-29" transform="translate(387.542155 0) scale(0.996264)"/>
     </g>
    </g>
    <g id="PathCollection_2">
     <g>
      <use xlink:href="#m4c80f932c9" x="51.586009" y="51.460245" style="fill: #ff0000; stroke: #ff0000"/>
     </g>
    </g>
    <g id="text_19">
     <!-- Mises Data -->
     <g transform="translate(69.586009 54.085245) scale(0.1 -0.1)">
      <defs>
       <path id="NimbusSanL-Regu-4d" d="M 2995 0 
L 4307 3915 
L 4307 0 
L 4870 0 
L 4870 4672 
L 4045 4672 
L 2688 602 
L 1306 4672 
L 480 4672 
L 480 0 
L 1043 0 
L 1043 3915 
L 2368 0 
L 2995 0 
z
" transform="scale(0.015625)"/>
       <path id="NimbusSanL-Regu-69" d="M 960 3358 
L 429 3358 
L 429 0 
L 960 0 
L 960 3358 
z
M 960 4672 
L 422 4672 
L 422 3999 
L 960 3999 
L 960 4672 
z
" transform="scale(0.015625)"/>
       <path id="NimbusSanL-Regu-73" d="M 2803 2428 
C 2797 3084 2362 3456 1587 3456 
C 806 3456 301 3052 301 2434 
C 301 1912 570 1663 1363 1472 
L 1862 1351 
C 2234 1262 2381 1129 2381 887 
C 2381 574 2067 364 1600 364 
C 1312 364 1069 447 934 587 
C 851 683 813 778 781 1014 
L 218 1014 
C 243 243 678 -128 1555 -128 
C 2400 -128 2938 288 2938 931 
C 2938 1428 2656 1702 1990 1861 
L 1478 1982 
C 1043 2084 858 2224 858 2459 
C 858 2765 1133 2963 1568 2963 
C 1997 2963 2227 2778 2240 2428 
L 2803 2428 
z
" transform="scale(0.015625)"/>
       <path id="NimbusSanL-Regu-44" d="M 570 0 
L 2368 0 
C 3546 0 4269 883 4269 2339 
C 4269 3788 3552 4672 2368 4672 
L 570 4672 
L 570 0 
z
M 1165 524 
L 1165 4147 
L 2266 4147 
C 3187 4147 3674 3525 3674 2332 
C 3674 1153 3187 524 2266 524 
L 1165 524 
z
" transform="scale(0.015625)"/>
      </defs>
      <use xlink:href="#NimbusSanL-Regu-4d" transform="scale(0.996264)"/>
      <use xlink:href="#NimbusSanL-Regu-69" transform="translate(82.98843 0) scale(0.996264)"/>
      <use xlink:href="#NimbusSanL-Regu-73" transform="translate(105.105215 0) scale(0.996264)"/>
      <use xlink:href="#NimbusSanL-Regu-65" transform="translate(154.918415 0) scale(0.996264)"/>
      <use xlink:href="#NimbusSanL-Regu-73" transform="translate(210.310092 0) scale(0.996264)"/>
      <use xlink:href="#NimbusSanL-Regu-44" transform="translate(287.818462 0) scale(0.996264)"/>
      <use xlink:href="#NimbusSanL-Regu-61" transform="translate(359.748447 0) scale(0.996264)"/>
      <use xlink:href="#NimbusSanL-Regu-74" transform="translate(415.140124 0) scale(0.996264)"/>
      <use xlink:href="#NimbusSanL-Regu-61" transform="translate(442.835294 0) scale(0.996264)"/>
     </g>
    </g>
   </g>
  </g>
 </g>
 <defs>
  <clipPath id="p5f4166635d">
   <rect x="32.586009" y="9.177577" width="334.8" height="221.76"/>
  </clipPath>
 </defs>
</svg>
