<?xml version="1.0" encoding="utf-8" standalone="no"?>
<!DOCTYPE svg PUBLIC "-//W3C//DTD SVG 1.1//EN"
  "http://www.w3.org/Graphics/SVG/1.1/DTD/svg11.dtd">
<svg xmlns:xlink="http://www.w3.org/1999/xlink" width="395.987428pt" height="265.600613pt" viewBox="0 0 395.987428 265.600613" xmlns="http://www.w3.org/2000/svg" version="1.1">
 <metadata>
  <rdf:RDF xmlns:dc="http://purl.org/dc/elements/1.1/" xmlns:cc="http://creativecommons.org/ns#" xmlns:rdf="http://www.w3.org/1999/02/22-rdf-syntax-ns#">
   <cc:Work>
    <dc:type rdf:resource="http://purl.org/dc/dcmitype/StillImage"/>
    <dc:date>2025-07-17T19:50:02.144928</dc:date>
    <dc:format>image/svg+xml</dc:format>
    <dc:creator>
     <cc:Agent>
      <dc:title>Matplotlib v3.10.3, https://matplotlib.org/</dc:title>
     </cc:Agent>
    </dc:creator>
   </cc:Work>
  </rdf:RDF>
 </metadata>
 <defs>
  <style type="text/css">*{stroke-linejoin: round; stroke-linecap: butt}</style>
 </defs>
 <g id="figure_1">
  <g id="patch_1">
   <path d="M 0 265.600613 
L 395.987428 265.600613 
L 395.987428 0 
L 0 0 
z
" style="fill: #ffffff"/>
  </g>
  <g id="axes_1">
   <g id="patch_2">
    <path d="M 45.131721 228.96 
L 379.931721 228.96 
L 379.931721 7.2 
L 45.131721 7.2 
z
" style="fill: #ffffff"/>
   </g>
   <g id="PathCollection_1">
    <defs>
     <path id="m5b212052e1" d="M 0 0.353553 
C 0.093763 0.353553 0.183699 0.316301 0.25 0.25 
C 0.316301 0.183699 0.353553 0.093763 0.353553 0 
C 0.353553 -0.093763 0.316301 -0.183699 0.25 -0.25 
C 0.183699 -0.316301 0.093763 -0.353553 0 -0.353553 
C -0.093763 -0.353553 -0.183699 -0.316301 -0.25 -0.25 
C -0.316301 -0.183699 -0.353553 -0.093763 -0.353553 0 
C -0.353553 0.093763 -0.316301 0.183699 -0.25 0.25 
C -0.183699 0.316301 -0.093763 0.353553 0 0.353553 
z
" style="stroke: #ff0000"/>
    </defs>
    <g clip-path="url(#p155fc899b1)">
     <use xlink:href="#m5b212052e1" x="212.531721" y="213.113853" style="fill: #ff0000; stroke: #ff0000"/>
     <use xlink:href="#m5b212052e1" x="211.981763" y="213.113853" style="fill: #ff0000; stroke: #ff0000"/>
     <use xlink:href="#m5b212052e1" x="211.371665" y="212.522465" style="fill: #ff0000; stroke: #ff0000"/>
     <use xlink:href="#m5b212052e1" x="210.675654" y="209.939644" style="fill: #ff0000; stroke: #ff0000"/>
     <use xlink:href="#m5b212052e1" x="209.89651" y="209.551945" style="fill: #ff0000; stroke: #ff0000"/>
     <use xlink:href="#m5b212052e1" x="209.040081" y="209.294332" style="fill: #ff0000; stroke: #ff0000"/>
     <use xlink:href="#m5b212052e1" x="208.10355" y="212.434691" style="fill: #ff0000; stroke: #ff0000"/>
     <use xlink:href="#m5b212052e1" x="207.076743" y="212.110166" style="fill: #ff0000; stroke: #ff0000"/>
     <use xlink:href="#m5b212052e1" x="205.945589" y="211.543772" style="fill: #ff0000; stroke: #ff0000"/>
     <use xlink:href="#m5b212052e1" x="204.692335" y="210.594205" style="fill: #ff0000; stroke: #ff0000"/>
     <use xlink:href="#m5b212052e1" x="203.2949" y="210.153567" style="fill: #ff0000; stroke: #ff0000"/>
     <use xlink:href="#m5b212052e1" x="201.722866" y="210.230319" style="fill: #ff0000; stroke: #ff0000"/>
     <use xlink:href="#m5b212052e1" x="199.92774" y="210.453886" style="fill: #ff0000; stroke: #ff0000"/>
     <use xlink:href="#m5b212052e1" x="197.823469" y="210.868546" style="fill: #ff0000; stroke: #ff0000"/>
     <use xlink:href="#m5b212052e1" x="195.271065" y="211.428052" style="fill: #ff0000; stroke: #ff0000"/>
     <use xlink:href="#m5b212052e1" x="192.291096" y="212.010387" style="fill: #ff0000; stroke: #ff0000"/>
     <use xlink:href="#m5b212052e1" x="189.474576" y="212.509476" style="fill: #ff0000; stroke: #ff0000"/>
     <use xlink:href="#m5b212052e1" x="186.948152" y="212.913509" style="fill: #ff0000; stroke: #ff0000"/>
     <use xlink:href="#m5b212052e1" x="184.620896" y="213.240002" style="fill: #ff0000; stroke: #ff0000"/>
     <use xlink:href="#m5b212052e1" x="182.42137" y="213.506471" style="fill: #ff0000; stroke: #ff0000"/>
     <use xlink:href="#m5b212052e1" x="180.311686" y="213.621403" style="fill: #ff0000; stroke: #ff0000"/>
     <use xlink:href="#m5b212052e1" x="178.268031" y="213.605462" style="fill: #ff0000; stroke: #ff0000"/>
     <use xlink:href="#m5b212052e1" x="176.275251" y="213.596606" style="fill: #ff0000; stroke: #ff0000"/>
     <use xlink:href="#m5b212052e1" x="174.322522" y="213.563347" style="fill: #ff0000; stroke: #ff0000"/>
     <use xlink:href="#m5b212052e1" x="172.401184" y="213.532449" style="fill: #ff0000; stroke: #ff0000"/>
     <use xlink:href="#m5b212052e1" x="170.507989" y="213.497025" style="fill: #ff0000; stroke: #ff0000"/>
     <use xlink:href="#m5b212052e1" x="168.63536" y="213.451564" style="fill: #ff0000; stroke: #ff0000"/>
     <use xlink:href="#m5b212052e1" x="166.780051" y="213.394294" style="fill: #ff0000; stroke: #ff0000"/>
     <use xlink:href="#m5b212052e1" x="164.936648" y="213.322265" style="fill: #ff0000; stroke: #ff0000"/>
     <use xlink:href="#m5b212052e1" x="163.105153" y="213.235673" style="fill: #ff0000; stroke: #ff0000"/>
     <use xlink:href="#m5b212052e1" x="161.281234" y="213.133139" style="fill: #ff0000; stroke: #ff0000"/>
     <use xlink:href="#m5b212052e1" x="159.461645" y="213.013484" style="fill: #ff0000; stroke: #ff0000"/>
     <use xlink:href="#m5b212052e1" x="157.645304" y="212.878085" style="fill: #ff0000; stroke: #ff0000"/>
     <use xlink:href="#m5b212052e1" x="155.831127" y="212.72458" style="fill: #ff0000; stroke: #ff0000"/>
     <use xlink:href="#m5b212052e1" x="154.015868" y="212.55533" style="fill: #ff0000; stroke: #ff0000"/>
     <use xlink:href="#m5b212052e1" x="152.199527" y="212.368172" style="fill: #ff0000; stroke: #ff0000"/>
     <use xlink:href="#m5b212052e1" x="150.378856" y="212.162121" style="fill: #ff0000; stroke: #ff0000"/>
     <use xlink:href="#m5b212052e1" x="148.552772" y="211.940129" style="fill: #ff0000; stroke: #ff0000"/>
     <use xlink:href="#m5b212052e1" x="146.722359" y="211.700622" style="fill: #ff0000; stroke: #ff0000"/>
     <use xlink:href="#m5b212052e1" x="144.885451" y="211.440057" style="fill: #ff0000; stroke: #ff0000"/>
     <use xlink:href="#m5b212052e1" x="143.039884" y="211.161977" style="fill: #ff0000; stroke: #ff0000"/>
     <use xlink:href="#m5b212052e1" x="141.186739" y="210.863233" style="fill: #ff0000; stroke: #ff0000"/>
     <use xlink:href="#m5b212052e1" x="139.324935" y="210.544808" style="fill: #ff0000; stroke: #ff0000"/>
     <use xlink:href="#m5b212052e1" x="137.453389" y="210.203161" style="fill: #ff0000; stroke: #ff0000"/>
     <use xlink:href="#m5b212052e1" x="135.569936" y="209.838291" style="fill: #ff0000; stroke: #ff0000"/>
     <use xlink:href="#m5b212052e1" x="133.676741" y="209.450986" style="fill: #ff0000; stroke: #ff0000"/>
     <use xlink:href="#m5b212052e1" x="131.772722" y="209.035735" style="fill: #ff0000; stroke: #ff0000"/>
     <use xlink:href="#m5b212052e1" x="129.855713" y="208.591752" style="fill: #ff0000; stroke: #ff0000"/>
     <use xlink:href="#m5b212052e1" x="127.925715" y="208.119625" style="fill: #ff0000; stroke: #ff0000"/>
     <use xlink:href="#m5b212052e1" x="125.98381" y="207.612271" style="fill: #ff0000; stroke: #ff0000"/>
     <use xlink:href="#m5b212052e1" x="124.028916" y="207.070871" style="fill: #ff0000; stroke: #ff0000"/>
     <use xlink:href="#m5b212052e1" x="122.05995" y="206.489913" style="fill: #ff0000; stroke: #ff0000"/>
     <use xlink:href="#m5b212052e1" x="120.076912" y="205.863495" style="fill: #ff0000; stroke: #ff0000"/>
     <use xlink:href="#m5b212052e1" x="118.079802" y="205.194567" style="fill: #ff0000; stroke: #ff0000"/>
     <use xlink:href="#m5b212052e1" x="116.068621" y="204.4727" style="fill: #ff0000; stroke: #ff0000"/>
     <use xlink:href="#m5b212052e1" x="114.042285" y="203.695138" style="fill: #ff0000; stroke: #ff0000"/>
     <use xlink:href="#m5b212052e1" x="111.999713" y="202.855387" style="fill: #ff0000; stroke: #ff0000"/>
     <use xlink:href="#m5b212052e1" x="109.943069" y="201.950691" style="fill: #ff0000; stroke: #ff0000"/>
     <use xlink:href="#m5b212052e1" x="107.870188" y="200.973179" style="fill: #ff0000; stroke: #ff0000"/>
     <use xlink:href="#m5b212052e1" x="105.781071" y="199.913403" style="fill: #ff0000; stroke: #ff0000"/>
     <use xlink:href="#m5b212052e1" x="103.670305" y="198.770185" style="fill: #ff0000; stroke: #ff0000"/>
     <use xlink:href="#m5b212052e1" x="101.548714" y="197.53624" style="fill: #ff0000; stroke: #ff0000"/>
     <use xlink:href="#m5b212052e1" x="99.416299" y="196.199959" style="fill: #ff0000; stroke: #ff0000"/>
     <use xlink:href="#m5b212052e1" x="97.262235" y="194.755437" style="fill: #ff0000; stroke: #ff0000"/>
     <use xlink:href="#m5b212052e1" x="95.086522" y="193.186931" style="fill: #ff0000; stroke: #ff0000"/>
     <use xlink:href="#m5b212052e1" x="92.88916" y="191.498375" style="fill: #ff0000; stroke: #ff0000"/>
     <use xlink:href="#m5b212052e1" x="90.680974" y="189.670091" style="fill: #ff0000; stroke: #ff0000"/>
     <use xlink:href="#m5b212052e1" x="88.451139" y="187.69027" style="fill: #ff0000; stroke: #ff0000"/>
     <use xlink:href="#m5b212052e1" x="86.210479" y="185.551039" style="fill: #ff0000; stroke: #ff0000"/>
     <use xlink:href="#m5b212052e1" x="83.937346" y="183.230752" style="fill: #ff0000; stroke: #ff0000"/>
     <use xlink:href="#m5b212052e1" x="81.653389" y="180.721535" style="fill: #ff0000; stroke: #ff0000"/>
     <use xlink:href="#m5b212052e1" x="79.347783" y="178.009612" style="fill: #ff0000; stroke: #ff0000"/>
     <use xlink:href="#m5b212052e1" x="77.020528" y="175.071369" style="fill: #ff0000; stroke: #ff0000"/>
     <use xlink:href="#m5b212052e1" x="74.682448" y="171.885155" style="fill: #ff0000; stroke: #ff0000"/>
     <use xlink:href="#m5b212052e1" x="72.311895" y="168.421452" style="fill: #ff0000; stroke: #ff0000"/>
     <use xlink:href="#m5b212052e1" x="69.930518" y="164.66845" style="fill: #ff0000; stroke: #ff0000"/>
     <use xlink:href="#m5b212052e1" x="67.516668" y="160.574983" style="fill: #ff0000; stroke: #ff0000"/>
     <use xlink:href="#m5b212052e1" x="65.091992" y="156.095785" style="fill: #ff0000; stroke: #ff0000"/>
     <use xlink:href="#m5b212052e1" x="62.645669" y="151.161975" style="fill: #ff0000; stroke: #ff0000"/>
     <use xlink:href="#m5b212052e1" x="60.18852" y="145.728291" style="fill: #ff0000; stroke: #ff0000"/>
     <use xlink:href="#m5b212052e1" x="57.742196" y="139.690426" style="fill: #ff0000; stroke: #ff0000"/>
     <use xlink:href="#m5b212052e1" x="55.393292" y="133.121198" style="fill: #ff0000; stroke: #ff0000"/>
     <use xlink:href="#m5b212052e1" x="53.239228" y="126.008798" style="fill: #ff0000; stroke: #ff0000"/>
     <use xlink:href="#m5b212052e1" x="51.399073" y="118.723212" style="fill: #ff0000; stroke: #ff0000"/>
     <use xlink:href="#m5b212052e1" x="49.872827" y="110.801959" style="fill: #ff0000; stroke: #ff0000"/>
     <use xlink:href="#m5b212052e1" x="48.606367" y="103.042083" style="fill: #ff0000; stroke: #ff0000"/>
     <use xlink:href="#m5b212052e1" x="47.545572" y="92.52502" style="fill: #ff0000; stroke: #ff0000"/>
     <use xlink:href="#m5b212052e1" x="46.636318" y="82.708569" style="fill: #ff0000; stroke: #ff0000"/>
     <use xlink:href="#m5b212052e1" x="45.846134" y="55.8629" style="fill: #ff0000; stroke: #ff0000"/>
     <use xlink:href="#m5b212052e1" x="45.131721" y="17.28" style="fill: #ff0000; stroke: #ff0000"/>
     <use xlink:href="#m5b212052e1" x="212.531721" y="207.925579" style="fill: #ff0000; stroke: #ff0000"/>
     <use xlink:href="#m5b212052e1" x="212.964468" y="207.925579" style="fill: #ff0000; stroke: #ff0000"/>
     <use xlink:href="#m5b212052e1" x="213.471267" y="203.113983" style="fill: #ff0000; stroke: #ff0000"/>
     <use xlink:href="#m5b212052e1" x="214.094121" y="196.680154" style="fill: #ff0000; stroke: #ff0000"/>
     <use xlink:href="#m5b212052e1" x="214.815267" y="194.82235" style="fill: #ff0000; stroke: #ff0000"/>
     <use xlink:href="#m5b212052e1" x="215.60708" y="195.44621" style="fill: #ff0000; stroke: #ff0000"/>
     <use xlink:href="#m5b212052e1" x="216.466442" y="197.392575" style="fill: #ff0000; stroke: #ff0000"/>
     <use xlink:href="#m5b212052e1" x="217.404051" y="198.817417" style="fill: #ff0000; stroke: #ff0000"/>
     <use xlink:href="#m5b212052e1" x="218.434477" y="199.985826" style="fill: #ff0000; stroke: #ff0000"/>
     <use xlink:href="#m5b212052e1" x="219.570859" y="201.231185" style="fill: #ff0000; stroke: #ff0000"/>
     <use xlink:href="#m5b212052e1" x="220.820948" y="198.103028" style="fill: #ff0000; stroke: #ff0000"/>
     <use xlink:href="#m5b212052e1" x="222.182384" y="189.821628" style="fill: #ff0000; stroke: #ff0000"/>
     <use xlink:href="#m5b212052e1" x="223.640343" y="188.491251" style="fill: #ff0000; stroke: #ff0000"/>
     <use xlink:href="#m5b212052e1" x="225.171579" y="188.745125" style="fill: #ff0000; stroke: #ff0000"/>
     <use xlink:href="#m5b212052e1" x="226.752509" y="188.070096" style="fill: #ff0000; stroke: #ff0000"/>
     <use xlink:href="#m5b212052e1" x="228.360391" y="187.123482" style="fill: #ff0000; stroke: #ff0000"/>
     <use xlink:href="#m5b212052e1" x="229.98175" y="186.017459" style="fill: #ff0000; stroke: #ff0000"/>
     <use xlink:href="#m5b212052e1" x="231.604793" y="184.773674" style="fill: #ff0000; stroke: #ff0000"/>
     <use xlink:href="#m5b212052e1" x="233.223624" y="183.392129" style="fill: #ff0000; stroke: #ff0000"/>
     <use xlink:href="#m5b212052e1" x="234.834876" y="180.859296" style="fill: #ff0000; stroke: #ff0000"/>
     <use xlink:href="#m5b212052e1" x="236.434335" y="178.20051" style="fill: #ff0000; stroke: #ff0000"/>
     <use xlink:href="#m5b212052e1" x="238.021161" y="175.411835" style="fill: #ff0000; stroke: #ff0000"/>
     <use xlink:href="#m5b212052e1" x="239.59451" y="172.300406" style="fill: #ff0000; stroke: #ff0000"/>
     <use xlink:href="#m5b212052e1" x="241.152699" y="169.094512" style="fill: #ff0000; stroke: #ff0000"/>
     <use xlink:href="#m5b212052e1" x="242.695727" y="165.774474" style="fill: #ff0000; stroke: #ff0000"/>
     <use xlink:href="#m5b212052e1" x="244.222752" y="162.296994" style="fill: #ff0000; stroke: #ff0000"/>
     <use xlink:href="#m5b212052e1" x="245.733774" y="158.634522" style="fill: #ff0000; stroke: #ff0000"/>
     <use xlink:href="#m5b212052e1" x="247.228793" y="154.800832" style="fill: #ff0000; stroke: #ff0000"/>
     <use xlink:href="#m5b212052e1" x="248.707808" y="150.793957" style="fill: #ff0000; stroke: #ff0000"/>
     <use xlink:href="#m5b212052e1" x="250.171664" y="146.641449" style="fill: #ff0000; stroke: #ff0000"/>
     <use xlink:href="#m5b212052e1" x="251.6212" y="142.364956" style="fill: #ff0000; stroke: #ff0000"/>
     <use xlink:href="#m5b212052e1" x="253.057261" y="138.001871" style="fill: #ff0000; stroke: #ff0000"/>
     <use xlink:href="#m5b212052e1" x="254.480687" y="133.601393" style="fill: #ff0000; stroke: #ff0000"/>
     <use xlink:href="#m5b212052e1" x="255.894848" y="129.212723" style="fill: #ff0000; stroke: #ff0000"/>
     <use xlink:href="#m5b212052e1" x="257.300587" y="124.881126" style="fill: #ff0000; stroke: #ff0000"/>
     <use xlink:href="#m5b212052e1" x="258.701273" y="120.699098" style="fill: #ff0000; stroke: #ff0000"/>
     <use xlink:href="#m5b212052e1" x="260.098589" y="116.727647" style="fill: #ff0000; stroke: #ff0000"/>
     <use xlink:href="#m5b212052e1" x="261.496747" y="112.978582" style="fill: #ff0000; stroke: #ff0000"/>
     <use xlink:href="#m5b212052e1" x="262.897433" y="109.538494" style="fill: #ff0000; stroke: #ff0000"/>
     <use xlink:href="#m5b212052e1" x="264.306541" y="106.417225" style="fill: #ff0000; stroke: #ff0000"/>
     <use xlink:href="#m5b212052e1" x="265.725756" y="103.616743" style="fill: #ff0000; stroke: #ff0000"/>
     <use xlink:href="#m5b212052e1" x="267.160131" y="101.15279" style="fill: #ff0000; stroke: #ff0000"/>
     <use xlink:href="#m5b212052e1" x="268.612195" y="98.995847" style="fill: #ff0000; stroke: #ff0000"/>
     <use xlink:href="#m5b212052e1" x="270.087842" y="97.110491" style="fill: #ff0000; stroke: #ff0000"/>
     <use xlink:href="#m5b212052e1" x="271.589599" y="95.421935" style="fill: #ff0000; stroke: #ff0000"/>
     <use xlink:href="#m5b212052e1" x="273.122519" y="93.910501" style="fill: #ff0000; stroke: #ff0000"/>
     <use xlink:href="#m5b212052e1" x="274.689973" y="92.495499" style="fill: #ff0000; stroke: #ff0000"/>
     <use xlink:href="#m5b212052e1" x="276.295328" y="91.113954" style="fill: #ff0000; stroke: #ff0000"/>
     <use xlink:href="#m5b212052e1" x="277.943639" y="89.793417" style="fill: #ff0000; stroke: #ff0000"/>
     <use xlink:href="#m5b212052e1" x="279.637433" y="88.48272" style="fill: #ff0000; stroke: #ff0000"/>
     <use xlink:href="#m5b212052e1" x="281.379235" y="87.152343" style="fill: #ff0000; stroke: #ff0000"/>
     <use xlink:href="#m5b212052e1" x="283.173257" y="85.829839" style="fill: #ff0000; stroke: #ff0000"/>
     <use xlink:href="#m5b212052e1" x="285.020343" y="84.613606" style="fill: #ff0000; stroke: #ff0000"/>
     <use xlink:href="#m5b212052e1" x="286.924702" y="83.472159" style="fill: #ff0000; stroke: #ff0000"/>
     <use xlink:href="#m5b212052e1" x="288.886335" y="82.45076" style="fill: #ff0000; stroke: #ff0000"/>
     <use xlink:href="#m5b212052e1" x="290.907769" y="81.700947" style="fill: #ff0000; stroke: #ff0000"/>
     <use xlink:href="#m5b212052e1" x="292.990688" y="81.208943" style="fill: #ff0000; stroke: #ff0000"/>
     <use xlink:href="#m5b212052e1" x="295.135093" y="80.960974" style="fill: #ff0000; stroke: #ff0000"/>
     <use xlink:href="#m5b212052e1" x="297.339298" y="81.018046" style="fill: #ff0000; stroke: #ff0000"/>
     <use xlink:href="#m5b212052e1" x="299.613411" y="81.346704" style="fill: #ff0000; stroke: #ff0000"/>
     <use xlink:href="#m5b212052e1" x="301.946483" y="81.872164" style="fill: #ff0000; stroke: #ff0000"/>
     <use xlink:href="#m5b212052e1" x="304.346936" y="82.515704" style="fill: #ff0000; stroke: #ff0000"/>
     <use xlink:href="#m5b212052e1" x="306.81477" y="83.228125" style="fill: #ff0000; stroke: #ff0000"/>
     <use xlink:href="#m5b212052e1" x="309.341562" y="83.93661" style="fill: #ff0000; stroke: #ff0000"/>
     <use xlink:href="#m5b212052e1" x="311.944159" y="84.57031" style="fill: #ff0000; stroke: #ff0000"/>
     <use xlink:href="#m5b212052e1" x="314.597291" y="85.152842" style="fill: #ff0000; stroke: #ff0000"/>
     <use xlink:href="#m5b212052e1" x="317.317804" y="85.766862" style="fill: #ff0000; stroke: #ff0000"/>
     <use xlink:href="#m5b212052e1" x="320.097276" y="86.481251" style="fill: #ff0000; stroke: #ff0000"/>
     <use xlink:href="#m5b212052e1" x="322.944128" y="87.360953" style="fill: #ff0000; stroke: #ff0000"/>
     <use xlink:href="#m5b212052e1" x="325.841517" y="88.561441" style="fill: #ff0000; stroke: #ff0000"/>
     <use xlink:href="#m5b212052e1" x="328.797864" y="90.049259" style="fill: #ff0000; stroke: #ff0000"/>
     <use xlink:href="#m5b212052e1" x="331.81317" y="91.818503" style="fill: #ff0000; stroke: #ff0000"/>
     <use xlink:href="#m5b212052e1" x="334.870589" y="93.818004" style="fill: #ff0000; stroke: #ff0000"/>
     <use xlink:href="#m5b212052e1" x="337.986966" y="95.949363" style="fill: #ff0000; stroke: #ff0000"/>
     <use xlink:href="#m5b212052e1" x="341.153879" y="98.169282" style="fill: #ff0000; stroke: #ff0000"/>
     <use xlink:href="#m5b212052e1" x="344.362906" y="100.517122" style="fill: #ff0000; stroke: #ff0000"/>
     <use xlink:href="#m5b212052e1" x="347.622468" y="103.028307" style="fill: #ff0000; stroke: #ff0000"/>
     <use xlink:href="#m5b212052e1" x="350.924144" y="105.730389" style="fill: #ff0000; stroke: #ff0000"/>
     <use xlink:href="#m5b212052e1" x="354.25951" y="108.597784" style="fill: #ff0000; stroke: #ff0000"/>
     <use xlink:href="#m5b212052e1" x="357.645411" y="111.697405" style="fill: #ff0000; stroke: #ff0000"/>
     <use xlink:href="#m5b212052e1" x="361.065004" y="115.001699" style="fill: #ff0000; stroke: #ff0000"/>
     <use xlink:href="#m5b212052e1" x="364.509864" y="118.599228" style="fill: #ff0000; stroke: #ff0000"/>
     <use xlink:href="#m5b212052e1" x="367.937879" y="122.371909" style="fill: #ff0000; stroke: #ff0000"/>
     <use xlink:href="#m5b212052e1" x="371.163751" y="126.12491" style="fill: #ff0000; stroke: #ff0000"/>
     <use xlink:href="#m5b212052e1" x="373.808461" y="129.187139" style="fill: #ff0000; stroke: #ff0000"/>
     <use xlink:href="#m5b212052e1" x="375.737245" y="131.35589" style="fill: #ff0000; stroke: #ff0000"/>
     <use xlink:href="#m5b212052e1" x="377.160672" y="132.385161" style="fill: #ff0000; stroke: #ff0000"/>
     <use xlink:href="#m5b212052e1" x="378.264038" y="132.705947" style="fill: #ff0000; stroke: #ff0000"/>
     <use xlink:href="#m5b212052e1" x="379.165261" y="131.558595" style="fill: #ff0000; stroke: #ff0000"/>
     <use xlink:href="#m5b212052e1" x="379.931721" y="129.423301" style="fill: #ff0000; stroke: #ff0000"/>
    </g>
   </g>
   <g id="matplotlib.axis_1">
    <g id="xtick_1">
     <g id="line2d_1">
      <defs>
       <path id="m882d132b90" d="M 0 0 
L 0 3.5 
" style="stroke: #000000; stroke-width: 0.8"/>
      </defs>
      <g>
       <use xlink:href="#m882d132b90" x="45.131721" y="228.96" style="stroke: #000000; stroke-width: 0.8"/>
      </g>
     </g>
     <g id="text_1">
      <!-- $\mathdefault{−1.00}$ -->
      <g transform="translate(32.401642 243.05832) scale(0.1 -0.1)">
       <defs>
        <path id="CMSY10-0" d="M 4218 1472 
C 4326 1472 4442 1472 4442 1600 
C 4442 1728 4326 1728 4218 1728 
L 755 1728 
C 646 1728 531 1728 531 1600 
C 531 1472 646 1472 755 1472 
L 4218 1472 
z
" transform="scale(0.015625)"/>
        <path id="CMR17-31" d="M 1702 4083 
C 1702 4217 1696 4224 1606 4224 
C 1357 3927 979 3833 621 3820 
C 602 3820 570 3820 563 3808 
C 557 3795 557 3782 557 3648 
C 755 3648 1088 3686 1344 3839 
L 1344 467 
C 1344 243 1331 166 781 166 
L 589 166 
L 589 0 
C 896 6 1216 12 1523 12 
C 1830 12 2150 6 2458 0 
L 2458 166 
L 2266 166 
C 1715 166 1702 236 1702 467 
L 1702 4083 
z
" transform="scale(0.015625)"/>
        <path id="CMMI12-3a" d="M 1178 307 
C 1178 492 1024 620 870 620 
C 685 620 557 467 557 313 
C 557 128 710 0 864 0 
C 1050 0 1178 153 1178 307 
z
" transform="scale(0.015625)"/>
        <path id="CMR17-30" d="M 2688 2038 
C 2688 2430 2682 3099 2413 3613 
C 2176 4063 1798 4224 1466 4224 
C 1158 4224 768 4082 525 3620 
C 269 3137 243 2539 243 2038 
C 243 1671 250 1112 448 623 
C 723 -39 1216 -128 1466 -128 
C 1760 -128 2208 -7 2470 604 
C 2662 1048 2688 1568 2688 2038 
z
M 1466 -26 
C 1056 -26 813 328 723 816 
C 653 1196 653 1749 653 2109 
C 653 2604 653 3015 736 3407 
C 858 3954 1216 4121 1466 4121 
C 1728 4121 2067 3947 2189 3420 
C 2272 3054 2278 2623 2278 2109 
C 2278 1691 2278 1176 2202 797 
C 2067 96 1690 -26 1466 -26 
z
" transform="scale(0.015625)"/>
       </defs>
       <use xlink:href="#CMSY10-0" transform="scale(0.996264)"/>
       <use xlink:href="#CMR17-31" transform="translate(77.487468 0) scale(0.996264)"/>
       <use xlink:href="#CMMI12-3a" transform="translate(123.177945 0) scale(0.996264)"/>
       <use xlink:href="#CMR17-30" transform="translate(150.275122 0) scale(0.996264)"/>
       <use xlink:href="#CMR17-30" transform="translate(195.965599 0) scale(0.996264)"/>
      </g>
     </g>
    </g>
    <g id="xtick_2">
     <g id="line2d_2">
      <g>
       <use xlink:href="#m882d132b90" x="86.981721" y="228.96" style="stroke: #000000; stroke-width: 0.8"/>
      </g>
     </g>
     <g id="text_2">
      <!-- $\mathdefault{−0.75}$ -->
      <g transform="translate(74.251642 243.05832) scale(0.1 -0.1)">
       <defs>
        <path id="CMR17-37" d="M 2886 3955 
L 2886 4096 
L 1382 4096 
C 634 4096 621 4166 595 4288 
L 480 4288 
L 294 3104 
L 410 3104 
C 429 3226 474 3552 550 3673 
C 589 3724 1062 3724 1171 3724 
L 2579 3724 
L 1869 2670 
C 1395 1961 1069 1003 1069 166 
C 1069 89 1069 -128 1299 -128 
C 1530 -128 1530 89 1530 172 
L 1530 466 
C 1530 1514 1709 2204 2003 2644 
L 2886 3955 
z
" transform="scale(0.015625)"/>
        <path id="CMR17-35" d="M 730 3750 
C 794 3724 1056 3641 1325 3641 
C 1920 3641 2246 3961 2432 4140 
C 2432 4191 2432 4224 2394 4224 
C 2387 4224 2374 4224 2323 4198 
C 2099 4102 1837 4032 1517 4032 
C 1325 4032 1037 4055 723 4191 
C 653 4224 640 4224 634 4224 
C 602 4224 595 4217 595 4090 
L 595 2231 
C 595 2113 595 2080 659 2080 
C 691 2080 704 2093 736 2139 
C 941 2435 1222 2560 1542 2560 
C 1766 2560 2246 2415 2246 1293 
C 2246 1087 2246 716 2054 422 
C 1894 159 1645 25 1370 25 
C 947 25 518 319 403 812 
C 429 806 480 793 506 793 
C 589 793 749 838 749 1036 
C 749 1209 627 1280 506 1280 
C 358 1280 262 1190 262 1011 
C 262 454 704 -128 1382 -128 
C 2042 -128 2669 441 2669 1267 
C 2669 2054 2170 2662 1549 2662 
C 1222 2662 947 2540 730 2304 
L 730 3750 
z
" transform="scale(0.015625)"/>
       </defs>
       <use xlink:href="#CMSY10-0" transform="scale(0.996264)"/>
       <use xlink:href="#CMR17-30" transform="translate(77.487468 0) scale(0.996264)"/>
       <use xlink:href="#CMMI12-3a" transform="translate(123.177945 0) scale(0.996264)"/>
       <use xlink:href="#CMR17-37" transform="translate(150.275122 0) scale(0.996264)"/>
       <use xlink:href="#CMR17-35" transform="translate(195.965599 0) scale(0.996264)"/>
      </g>
     </g>
    </g>
    <g id="xtick_3">
     <g id="line2d_3">
      <g>
       <use xlink:href="#m882d132b90" x="128.831721" y="228.96" style="stroke: #000000; stroke-width: 0.8"/>
      </g>
     </g>
     <g id="text_3">
      <!-- $\mathdefault{−0.50}$ -->
      <g transform="translate(116.101642 243.05832) scale(0.1 -0.1)">
       <use xlink:href="#CMSY10-0" transform="scale(0.996264)"/>
       <use xlink:href="#CMR17-30" transform="translate(77.487468 0) scale(0.996264)"/>
       <use xlink:href="#CMMI12-3a" transform="translate(123.177945 0) scale(0.996264)"/>
       <use xlink:href="#CMR17-35" transform="translate(150.275122 0) scale(0.996264)"/>
       <use xlink:href="#CMR17-30" transform="translate(195.965599 0) scale(0.996264)"/>
      </g>
     </g>
    </g>
    <g id="xtick_4">
     <g id="line2d_4">
      <g>
       <use xlink:href="#m882d132b90" x="170.681721" y="228.96" style="stroke: #000000; stroke-width: 0.8"/>
      </g>
     </g>
     <g id="text_4">
      <!-- $\mathdefault{−0.25}$ -->
      <g transform="translate(157.951642 243.05832) scale(0.1 -0.1)">
       <defs>
        <path id="CMR17-32" d="M 2669 990 
L 2554 990 
C 2490 537 2438 460 2413 422 
C 2381 371 1920 371 1830 371 
L 602 371 
C 832 620 1280 1073 1824 1596 
C 2214 1966 2669 2400 2669 3033 
C 2669 3788 2067 4224 1395 4224 
C 691 4224 262 3603 262 3027 
C 262 2777 448 2745 525 2745 
C 589 2745 781 2783 781 3007 
C 781 3206 614 3264 525 3264 
C 486 3264 448 3257 422 3244 
C 544 3788 915 4057 1306 4057 
C 1862 4057 2227 3616 2227 3033 
C 2227 2477 1901 1998 1536 1583 
L 262 147 
L 262 0 
L 2515 0 
L 2669 990 
z
" transform="scale(0.015625)"/>
       </defs>
       <use xlink:href="#CMSY10-0" transform="scale(0.996264)"/>
       <use xlink:href="#CMR17-30" transform="translate(77.487468 0) scale(0.996264)"/>
       <use xlink:href="#CMMI12-3a" transform="translate(123.177945 0) scale(0.996264)"/>
       <use xlink:href="#CMR17-32" transform="translate(150.275122 0) scale(0.996264)"/>
       <use xlink:href="#CMR17-35" transform="translate(195.965599 0) scale(0.996264)"/>
      </g>
     </g>
    </g>
    <g id="xtick_5">
     <g id="line2d_5">
      <g>
       <use xlink:href="#m882d132b90" x="212.531721" y="228.96" style="stroke: #000000; stroke-width: 0.8"/>
      </g>
     </g>
     <g id="text_5">
      <!-- $\mathdefault{0.00}$ -->
      <g transform="translate(203.676014 243.05832) scale(0.1 -0.1)">
       <use xlink:href="#CMR17-30" transform="scale(0.996264)"/>
       <use xlink:href="#CMMI12-3a" transform="translate(45.690477 0) scale(0.996264)"/>
       <use xlink:href="#CMR17-30" transform="translate(72.787654 0) scale(0.996264)"/>
       <use xlink:href="#CMR17-30" transform="translate(118.478131 0) scale(0.996264)"/>
      </g>
     </g>
    </g>
    <g id="xtick_6">
     <g id="line2d_6">
      <g>
       <use xlink:href="#m882d132b90" x="254.381721" y="228.96" style="stroke: #000000; stroke-width: 0.8"/>
      </g>
     </g>
     <g id="text_6">
      <!-- $\mathdefault{0.25}$ -->
      <g transform="translate(245.526014 243.05832) scale(0.1 -0.1)">
       <use xlink:href="#CMR17-30" transform="scale(0.996264)"/>
       <use xlink:href="#CMMI12-3a" transform="translate(45.690477 0) scale(0.996264)"/>
       <use xlink:href="#CMR17-32" transform="translate(72.787654 0) scale(0.996264)"/>
       <use xlink:href="#CMR17-35" transform="translate(118.478131 0) scale(0.996264)"/>
      </g>
     </g>
    </g>
    <g id="xtick_7">
     <g id="line2d_7">
      <g>
       <use xlink:href="#m882d132b90" x="296.231721" y="228.96" style="stroke: #000000; stroke-width: 0.8"/>
      </g>
     </g>
     <g id="text_7">
      <!-- $\mathdefault{0.50}$ -->
      <g transform="translate(287.376014 243.05832) scale(0.1 -0.1)">
       <use xlink:href="#CMR17-30" transform="scale(0.996264)"/>
       <use xlink:href="#CMMI12-3a" transform="translate(45.690477 0) scale(0.996264)"/>
       <use xlink:href="#CMR17-35" transform="translate(72.787654 0) scale(0.996264)"/>
       <use xlink:href="#CMR17-30" transform="translate(118.478131 0) scale(0.996264)"/>
      </g>
     </g>
    </g>
    <g id="xtick_8">
     <g id="line2d_8">
      <g>
       <use xlink:href="#m882d132b90" x="338.081721" y="228.96" style="stroke: #000000; stroke-width: 0.8"/>
      </g>
     </g>
     <g id="text_8">
      <!-- $\mathdefault{0.75}$ -->
      <g transform="translate(329.226014 243.05832) scale(0.1 -0.1)">
       <use xlink:href="#CMR17-30" transform="scale(0.996264)"/>
       <use xlink:href="#CMMI12-3a" transform="translate(45.690477 0) scale(0.996264)"/>
       <use xlink:href="#CMR17-37" transform="translate(72.787654 0) scale(0.996264)"/>
       <use xlink:href="#CMR17-35" transform="translate(118.478131 0) scale(0.996264)"/>
      </g>
     </g>
    </g>
    <g id="xtick_9">
     <g id="line2d_9">
      <g>
       <use xlink:href="#m882d132b90" x="379.931721" y="228.96" style="stroke: #000000; stroke-width: 0.8"/>
      </g>
     </g>
     <g id="text_9">
      <!-- $\mathdefault{1.00}$ -->
      <g transform="translate(371.076014 243.05832) scale(0.1 -0.1)">
       <use xlink:href="#CMR17-31" transform="scale(0.996264)"/>
       <use xlink:href="#CMMI12-3a" transform="translate(45.690477 0) scale(0.996264)"/>
       <use xlink:href="#CMR17-30" transform="translate(72.787654 0) scale(0.996264)"/>
       <use xlink:href="#CMR17-30" transform="translate(118.478131 0) scale(0.996264)"/>
      </g>
     </g>
    </g>
    <g id="text_10">
     <!-- S/S_{total} -->
     <g transform="translate(193.294177 256.278627) scale(0.1 -0.1)">
      <defs>
       <path id="NimbusSanL-Regu-53" d="M 3814 3295 
C 3808 4204 3181 4736 2106 4736 
C 1082 4736 448 4211 448 3372 
C 448 2806 749 2450 1363 2291 
L 2522 1986 
C 3110 1833 3379 1598 3379 1236 
C 3379 988 3245 733 3046 593 
C 2861 466 2566 396 2189 396 
C 1683 396 1338 517 1114 784 
C 941 988 864 1210 870 1496 
L 307 1496 
C 314 1070 397 790 582 536 
C 902 102 1440 -128 2150 -128 
C 2707 -128 3162 0 3462 230 
C 3776 479 3974 892 3974 1293 
C 3974 1865 3616 2284 2982 2456 
L 1811 2768 
C 1248 2920 1043 3098 1043 3454 
C 1043 3925 1459 4236 2086 4236 
C 2829 4236 3245 3899 3251 3295 
L 3814 3295 
z
" transform="scale(0.015625)"/>
       <path id="NimbusSanL-Regu-2f" d="M 1466 4672 
L -51 -128 
L 301 -128 
L 1818 4672 
L 1466 4672 
z
" transform="scale(0.015625)"/>
       <path id="NimbusSanL-Regu-74" d="M 1626 3328 
L 1075 3328 
L 1075 4249 
L 544 4249 
L 544 3328 
L 90 3328 
L 90 2892 
L 544 2892 
L 544 402 
C 544 64 774 -128 1190 -128 
C 1318 -128 1446 -116 1626 -84 
L 1626 364 
C 1555 345 1472 339 1370 339 
C 1139 339 1075 402 1075 634 
L 1075 2892 
L 1626 2892 
L 1626 3328 
z
" transform="scale(0.015625)"/>
       <path id="NimbusSanL-Regu-6f" d="M 1741 3456 
C 800 3456 230 2784 230 1663 
C 230 543 794 -128 1747 -128 
C 2688 -128 3264 543 3264 1638 
C 3264 2791 2707 3456 1741 3456 
z
M 1747 2963 
C 2349 2963 2707 2472 2707 1644 
C 2707 861 2336 364 1747 364 
C 1152 364 787 855 787 1663 
C 787 2466 1152 2963 1747 2963 
z
" transform="scale(0.015625)"/>
       <path id="NimbusSanL-Regu-61" d="M 3424 332 
C 3366 320 3341 320 3309 320 
C 3123 320 3021 415 3021 581 
L 3021 2542 
C 3021 3135 2586 3456 1760 3456 
C 1274 3456 870 3315 646 3065 
C 493 2893 429 2702 416 2370 
L 954 2370 
C 998 2778 1242 2963 1741 2963 
C 2221 2963 2490 2784 2490 2466 
L 2490 2326 
C 2490 2103 2355 2007 1933 1956 
C 1178 1861 1062 1835 858 1753 
C 467 1593 269 1294 269 861 
C 269 256 691 -128 1370 -128 
C 1792 -128 2131 19 2509 364 
C 2547 25 2714 -128 3059 -128 
C 3168 -128 3251 -116 3424 -71 
L 3424 332 
z
M 2490 1071 
C 2490 893 2438 785 2278 638 
C 2061 441 1798 339 1485 339 
C 1069 339 826 536 826 874 
C 826 1224 1062 1402 1632 1485 
C 2195 1562 2310 1587 2490 1670 
L 2490 1071 
z
" transform="scale(0.015625)"/>
       <path id="NimbusSanL-Regu-6c" d="M 973 4672 
L 435 4672 
L 435 0 
L 973 0 
L 973 4672 
z
" transform="scale(0.015625)"/>
      </defs>
      <use xlink:href="#NimbusSanL-Regu-53" transform="scale(0.996264)"/>
      <use xlink:href="#NimbusSanL-Regu-2f" transform="translate(66.450031 0) scale(0.996264)"/>
      <use xlink:href="#NimbusSanL-Regu-53" transform="translate(94.145201 0) scale(0.996264)"/>
      <use xlink:href="#NimbusSanL-Regu-74" transform="translate(196.460797 0) scale(0.996264)"/>
      <use xlink:href="#NimbusSanL-Regu-6f" transform="translate(224.155967 0) scale(0.996264)"/>
      <use xlink:href="#NimbusSanL-Regu-74" transform="translate(279.547644 0) scale(0.996264)"/>
      <use xlink:href="#NimbusSanL-Regu-61" transform="translate(307.242813 0) scale(0.996264)"/>
      <use xlink:href="#NimbusSanL-Regu-6c" transform="translate(362.63449 0) scale(0.996264)"/>
      <path d="M 166.572573 0 
L 196.460797 0 
L 196.460797 0.3985 
L 166.572573 0.3985 
L 166.572573 0 
z
"/>
     </g>
    </g>
   </g>
   <g id="matplotlib.axis_2">
    <g id="ytick_1">
     <g id="line2d_10">
      <defs>
       <path id="m22d6c5cff4" d="M 0 0 
L -3.5 0 
" style="stroke: #000000; stroke-width: 0.8"/>
      </defs>
      <g>
       <use xlink:href="#m22d6c5cff4" x="45.131721" y="219.591765" style="stroke: #000000; stroke-width: 0.8"/>
      </g>
     </g>
     <g id="text_11">
      <!-- $\mathdefault{0.00}$ -->
      <g transform="translate(20.420307 223.140925) scale(0.1 -0.1)">
       <use xlink:href="#CMR17-30" transform="scale(0.996264)"/>
       <use xlink:href="#CMMI12-3a" transform="translate(45.690477 0) scale(0.996264)"/>
       <use xlink:href="#CMR17-30" transform="translate(72.787654 0) scale(0.996264)"/>
       <use xlink:href="#CMR17-30" transform="translate(118.478131 0) scale(0.996264)"/>
      </g>
     </g>
    </g>
    <g id="ytick_2">
     <g id="line2d_11">
      <g>
       <use xlink:href="#m22d6c5cff4" x="45.131721" y="180.231499" style="stroke: #000000; stroke-width: 0.8"/>
      </g>
     </g>
     <g id="text_12">
      <!-- $\mathdefault{0.02}$ -->
      <g transform="translate(20.420307 183.78066) scale(0.1 -0.1)">
       <use xlink:href="#CMR17-30" transform="scale(0.996264)"/>
       <use xlink:href="#CMMI12-3a" transform="translate(45.690477 0) scale(0.996264)"/>
       <use xlink:href="#CMR17-30" transform="translate(72.787654 0) scale(0.996264)"/>
       <use xlink:href="#CMR17-32" transform="translate(118.478131 0) scale(0.996264)"/>
      </g>
     </g>
    </g>
    <g id="ytick_3">
     <g id="line2d_12">
      <g>
       <use xlink:href="#m22d6c5cff4" x="45.131721" y="140.871234" style="stroke: #000000; stroke-width: 0.8"/>
      </g>
     </g>
     <g id="text_13">
      <!-- $\mathdefault{0.04}$ -->
      <g transform="translate(20.420307 144.420394) scale(0.1 -0.1)">
       <defs>
        <path id="CMR17-34" d="M 2150 4147 
C 2150 4281 2144 4288 2029 4288 
L 128 1254 
L 128 1088 
L 1779 1088 
L 1779 460 
C 1779 230 1766 166 1318 166 
L 1197 166 
L 1197 0 
C 1402 12 1747 12 1965 12 
C 2182 12 2528 12 2733 0 
L 2733 166 
L 2611 166 
C 2163 166 2150 230 2150 460 
L 2150 1088 
L 2803 1088 
L 2803 1254 
L 2150 1254 
L 2150 4147 
z
M 1798 3723 
L 1798 1254 
L 256 1254 
L 1798 3723 
z
" transform="scale(0.015625)"/>
       </defs>
       <use xlink:href="#CMR17-30" transform="scale(0.996264)"/>
       <use xlink:href="#CMMI12-3a" transform="translate(45.690477 0) scale(0.996264)"/>
       <use xlink:href="#CMR17-30" transform="translate(72.787654 0) scale(0.996264)"/>
       <use xlink:href="#CMR17-34" transform="translate(118.478131 0) scale(0.996264)"/>
      </g>
     </g>
    </g>
    <g id="ytick_4">
     <g id="line2d_13">
      <g>
       <use xlink:href="#m22d6c5cff4" x="45.131721" y="101.510968" style="stroke: #000000; stroke-width: 0.8"/>
      </g>
     </g>
     <g id="text_14">
      <!-- $\mathdefault{0.06}$ -->
      <g transform="translate(20.420307 105.060128) scale(0.1 -0.1)">
       <defs>
        <path id="CMR17-36" d="M 678 2198 
C 678 3712 1395 4076 1811 4076 
C 1946 4076 2272 4049 2400 3782 
C 2298 3782 2106 3782 2106 3558 
C 2106 3385 2246 3328 2336 3328 
C 2394 3328 2566 3353 2566 3571 
C 2566 3987 2246 4224 1805 4224 
C 1043 4224 243 3411 243 2011 
C 243 257 966 -128 1478 -128 
C 2099 -128 2688 431 2688 1295 
C 2688 2101 2170 2688 1517 2688 
C 1126 2688 838 2430 678 1979 
L 678 2198 
z
M 1478 25 
C 691 25 691 1212 691 1450 
C 691 1914 909 2585 1504 2585 
C 1613 2585 1926 2585 2138 2140 
C 2253 1889 2253 1624 2253 1302 
C 2253 954 2253 696 2118 438 
C 1978 173 1773 25 1478 25 
z
" transform="scale(0.015625)"/>
       </defs>
       <use xlink:href="#CMR17-30" transform="scale(0.996264)"/>
       <use xlink:href="#CMMI12-3a" transform="translate(45.690477 0) scale(0.996264)"/>
       <use xlink:href="#CMR17-30" transform="translate(72.787654 0) scale(0.996264)"/>
       <use xlink:href="#CMR17-36" transform="translate(118.478131 0) scale(0.996264)"/>
      </g>
     </g>
    </g>
    <g id="ytick_5">
     <g id="line2d_14">
      <g>
       <use xlink:href="#m22d6c5cff4" x="45.131721" y="62.150703" style="stroke: #000000; stroke-width: 0.8"/>
      </g>
     </g>
     <g id="text_15">
      <!-- $\mathdefault{0.08}$ -->
      <g transform="translate(20.420307 65.699863) scale(0.1 -0.1)">
       <defs>
        <path id="CMR17-38" d="M 1741 2289 
C 2144 2494 2554 2803 2554 3298 
C 2554 3884 1990 4224 1472 4224 
C 890 4224 378 3800 378 3215 
C 378 3054 416 2777 666 2533 
C 730 2469 998 2276 1171 2154 
C 883 2006 211 1652 211 945 
C 211 282 838 -128 1459 -128 
C 2144 -128 2720 366 2720 1022 
C 2720 1607 2330 1877 2074 2051 
L 1741 2289 
z
M 902 2855 
C 851 2887 595 3086 595 3388 
C 595 3781 998 4076 1459 4076 
C 1965 4076 2336 3716 2336 3298 
C 2336 2700 1670 2359 1638 2359 
C 1632 2359 1626 2359 1574 2398 
L 902 2855 
z
M 2080 1536 
C 2176 1466 2483 1253 2483 861 
C 2483 385 2010 25 1472 25 
C 890 25 448 443 448 951 
C 448 1459 838 1884 1280 2083 
L 2080 1536 
z
" transform="scale(0.015625)"/>
       </defs>
       <use xlink:href="#CMR17-30" transform="scale(0.996264)"/>
       <use xlink:href="#CMMI12-3a" transform="translate(45.690477 0) scale(0.996264)"/>
       <use xlink:href="#CMR17-30" transform="translate(72.787654 0) scale(0.996264)"/>
       <use xlink:href="#CMR17-38" transform="translate(118.478131 0) scale(0.996264)"/>
      </g>
     </g>
    </g>
    <g id="ytick_6">
     <g id="line2d_15">
      <g>
       <use xlink:href="#m22d6c5cff4" x="45.131721" y="22.790437" style="stroke: #000000; stroke-width: 0.8"/>
      </g>
     </g>
     <g id="text_16">
      <!-- $\mathdefault{0.10}$ -->
      <g transform="translate(20.420307 26.339597) scale(0.1 -0.1)">
       <use xlink:href="#CMR17-30" transform="scale(0.996264)"/>
       <use xlink:href="#CMMI12-3a" transform="translate(45.690477 0) scale(0.996264)"/>
       <use xlink:href="#CMR17-31" transform="translate(72.787654 0) scale(0.996264)"/>
       <use xlink:href="#CMR17-30" transform="translate(118.478131 0) scale(0.996264)"/>
      </g>
     </g>
    </g>
    <g id="text_17">
     <!-- Skin Friction Coefficient - Blade_17 -->
     <g transform="translate(14.29832 194.746488) rotate(-90) scale(0.1 -0.1)">
      <defs>
       <path id="NimbusSanL-Regu-6b" d="M 902 4672 
L 371 4672 
L 371 0 
L 902 0 
L 902 1307 
L 1421 1820 
L 2554 0 
L 3213 0 
L 1843 2198 
L 3008 3358 
L 2323 3358 
L 902 1935 
L 902 4672 
z
" transform="scale(0.015625)"/>
       <path id="NimbusSanL-Regu-69" d="M 960 3358 
L 429 3358 
L 429 0 
L 960 0 
L 960 3358 
z
M 960 4672 
L 422 4672 
L 422 3999 
L 960 3999 
L 960 4672 
z
" transform="scale(0.015625)"/>
       <path id="NimbusSanL-Regu-6e" d="M 448 3328 
L 448 0 
L 986 0 
L 986 1835 
C 986 2539 1344 2988 1894 2988 
C 2317 2988 2586 2732 2586 2328 
L 2586 0 
L 3117 0 
L 3117 2539 
C 3117 3097 2701 3456 2054 3456 
C 1555 3456 1235 3263 941 2796 
L 941 3328 
L 448 3328 
z
" transform="scale(0.015625)"/>
       <path id="NimbusSanL-Regu-46" d="M 1171 2112 
L 3398 2112 
L 3398 2636 
L 1171 2636 
L 1171 4147 
L 3706 4147 
L 3706 4672 
L 576 4672 
L 576 0 
L 1171 0 
L 1171 2112 
z
" transform="scale(0.015625)"/>
       <path id="NimbusSanL-Regu-72" d="M 442 3328 
L 442 0 
L 979 0 
L 979 1727 
C 979 2203 1101 2514 1357 2698 
C 1523 2819 1683 2857 2054 2863 
L 2054 3404 
C 1965 3449 1920 3456 1850 3456 
C 1504 3456 1242 3251 934 2750 
L 934 3328 
L 442 3328 
z
" transform="scale(0.015625)"/>
       <path id="NimbusSanL-Regu-63" d="M 3014 2237 
C 2989 2561 2918 2771 2790 2956 
C 2560 3270 2157 3456 1690 3456 
C 787 3456 198 2740 198 1632 
C 198 555 774 -128 1683 -128 
C 2483 -128 2989 352 3053 1167 
L 2515 1167 
C 2426 632 2150 364 1696 364 
C 1107 364 755 842 755 1632 
C 755 2466 1101 2963 1683 2963 
C 2131 2963 2413 2701 2477 2237 
L 3014 2237 
z
" transform="scale(0.015625)"/>
       <path id="NimbusSanL-Regu-43" d="M 4237 3219 
C 4051 4236 3462 4736 2438 4736 
C 1811 4736 1306 4537 960 4154 
C 538 3696 307 3035 307 2284 
C 307 1522 544 867 986 415 
C 1344 44 1805 -128 2413 -128 
C 3552 -128 4192 485 4333 1712 
L 3718 1712 
C 3667 1394 3603 1178 3507 994 
C 3315 612 2918 396 2419 396 
C 1491 396 902 1134 902 2291 
C 902 3480 1466 4211 2368 4211 
C 2746 4211 3098 4096 3290 3918 
C 3462 3759 3558 3562 3629 3219 
L 4237 3219 
z
" transform="scale(0.015625)"/>
       <path id="NimbusSanL-Regu-65" d="M 3283 1484 
C 3283 1998 3245 2311 3149 2565 
C 2931 3123 2419 3456 1792 3456 
C 858 3456 256 2734 256 1619 
C 256 545 838 -128 1779 -128 
C 2547 -128 3078 307 3213 1018 
L 2675 1018 
C 2528 588 2227 364 1798 364 
C 1459 364 1171 514 992 787 
C 864 974 819 1161 813 1484 
L 3283 1484 
z
M 826 1920 
C 870 2552 1248 2963 1786 2963 
C 2310 2963 2714 2519 2714 1959 
C 2714 1946 2714 1933 2707 1920 
L 826 1920 
z
" transform="scale(0.015625)"/>
       <path id="NimbusSanL-Regu-66" d="M 1651 3328 
L 1094 3328 
L 1094 3860 
C 1094 4087 1222 4204 1466 4204 
C 1510 4204 1530 4204 1651 4198 
L 1651 4639 
C 1530 4665 1459 4672 1350 4672 
C 858 4672 563 4390 563 3905 
L 563 3328 
L 115 3328 
L 115 2892 
L 563 2892 
L 563 0 
L 1094 0 
L 1094 2892 
L 1651 2892 
L 1651 3328 
z
" transform="scale(0.015625)"/>
       <path id="NimbusSanL-Regu-2" d="M 1613 3328 
L 1056 3328 
L 1056 3860 
C 1056 4087 1184 4204 1427 4204 
C 1472 4204 1491 4204 1613 4198 
L 1613 4639 
C 1491 4665 1421 4672 1312 4672 
C 819 4672 525 4390 525 3905 
L 525 3328 
L 77 3328 
L 77 2892 
L 525 2892 
L 525 0 
L 1056 0 
L 1056 2892 
L 1613 2892 
L 1613 3328 
z
M 2790 3328 
L 2259 3328 
L 2259 0 
L 2790 0 
L 2790 3328 
z
M 2790 4672 
L 2259 4672 
L 2259 3999 
L 2790 3999 
L 2790 4672 
z
" transform="scale(0.015625)"/>
       <path id="NimbusSanL-Regu-2d" d="M 1818 1996 
L 294 1996 
L 294 1536 
L 1818 1536 
L 1818 1996 
z
" transform="scale(0.015625)"/>
       <path id="NimbusSanL-Regu-42" d="M 506 0 
L 2611 0 
C 3053 0 3379 121 3629 390 
C 3859 632 3987 961 3987 1321 
C 3987 1878 3731 2214 3136 2444 
C 3558 2643 3782 2994 3782 3476 
C 3782 3821 3654 4127 3411 4345 
C 3168 4569 2848 4672 2400 4672 
L 506 4672 
L 506 0 
z
M 1101 2636 
L 1101 4147 
L 2253 4147 
C 2586 4147 2771 4101 2931 3977 
C 3098 3847 3187 3652 3187 3391 
C 3187 3138 3098 2936 2931 2806 
C 2771 2682 2586 2636 2253 2636 
L 1101 2636 
z
M 1101 524 
L 1101 2112 
L 2554 2112 
C 2842 2112 3034 2042 3174 1890 
C 3315 1745 3392 1542 3392 1315 
C 3392 1093 3315 891 3174 746 
C 3034 594 2842 524 2554 524 
L 1101 524 
z
" transform="scale(0.015625)"/>
       <path id="NimbusSanL-Regu-64" d="M 3168 4672 
L 2637 4672 
L 2637 2937 
C 2413 3276 2054 3456 1606 3456 
C 736 3456 166 2759 166 1695 
C 166 568 723 -128 1626 -128 
C 2086 -128 2406 44 2694 460 
L 2694 19 
L 3168 19 
L 3168 4672 
z
M 1696 2956 
C 2272 2956 2637 2447 2637 1651 
C 2637 880 2266 371 1702 371 
C 1114 371 723 887 723 1663 
C 723 2440 1114 2956 1696 2956 
z
" transform="scale(0.015625)"/>
       <path id="NimbusSanL-Regu-31" d="M 1658 3232 
L 1658 0 
L 2221 0 
L 2221 4537 
L 1850 4537 
C 1651 3840 1523 3744 653 3635 
L 653 3232 
L 1658 3232 
z
" transform="scale(0.015625)"/>
       <path id="NimbusSanL-Regu-37" d="M 3328 4544 
L 294 4544 
L 294 3987 
L 2746 3987 
C 1664 2442 1222 1493 883 0 
L 1485 0 
C 1734 1454 2304 2704 3328 4070 
L 3328 4544 
z
" transform="scale(0.015625)"/>
      </defs>
      <use xlink:href="#NimbusSanL-Regu-53" transform="scale(0.996264)"/>
      <use xlink:href="#NimbusSanL-Regu-6b" transform="translate(66.450031 0) scale(0.996264)"/>
      <use xlink:href="#NimbusSanL-Regu-69" transform="translate(116.263232 0) scale(0.996264)"/>
      <use xlink:href="#NimbusSanL-Regu-6e" transform="translate(138.380016 0) scale(0.996264)"/>
      <use xlink:href="#NimbusSanL-Regu-46" transform="translate(221.466863 0) scale(0.996264)"/>
      <use xlink:href="#NimbusSanL-Regu-72" transform="translate(277.855761 0) scale(0.996264)"/>
      <use xlink:href="#NimbusSanL-Regu-69" transform="translate(312.524368 0) scale(0.996264)"/>
      <use xlink:href="#NimbusSanL-Regu-63" transform="translate(334.641153 0) scale(0.996264)"/>
      <use xlink:href="#NimbusSanL-Regu-74" transform="translate(384.454353 0) scale(0.996264)"/>
      <use xlink:href="#NimbusSanL-Regu-69" transform="translate(412.149523 0) scale(0.996264)"/>
      <use xlink:href="#NimbusSanL-Regu-6f" transform="translate(434.266307 0) scale(0.996264)"/>
      <use xlink:href="#NimbusSanL-Regu-6e" transform="translate(489.657984 0) scale(0.996264)"/>
      <use xlink:href="#NimbusSanL-Regu-43" transform="translate(572.744831 0) scale(0.996264)"/>
      <use xlink:href="#NimbusSanL-Regu-6f" transform="translate(644.674816 0) scale(0.996264)"/>
      <use xlink:href="#NimbusSanL-Regu-65" transform="translate(700.066493 0) scale(0.996264)"/>
      <use xlink:href="#NimbusSanL-Regu-66" transform="translate(755.45817 0) scale(0.996264)"/>
      <use xlink:href="#NimbusSanL-Regu-2" transform="translate(783.153339 0) scale(0.996264)"/>
      <use xlink:href="#NimbusSanL-Regu-63" transform="translate(832.96654 0) scale(0.996264)"/>
      <use xlink:href="#NimbusSanL-Regu-69" transform="translate(882.77974 0) scale(0.996264)"/>
      <use xlink:href="#NimbusSanL-Regu-65" transform="translate(904.896525 0) scale(0.996264)"/>
      <use xlink:href="#NimbusSanL-Regu-6e" transform="translate(960.288201 0) scale(0.996264)"/>
      <use xlink:href="#NimbusSanL-Regu-74" transform="translate(1015.679878 0) scale(0.996264)"/>
      <use xlink:href="#NimbusSanL-Regu-2d" transform="translate(1071.070218 0) scale(0.996264)"/>
      <use xlink:href="#NimbusSanL-Regu-42" transform="translate(1131.940617 0) scale(0.996264)"/>
      <use xlink:href="#NimbusSanL-Regu-6c" transform="translate(1198.390648 0) scale(0.996264)"/>
      <use xlink:href="#NimbusSanL-Regu-61" transform="translate(1220.507432 0) scale(0.996264)"/>
      <use xlink:href="#NimbusSanL-Regu-64" transform="translate(1275.899109 0) scale(0.996264)"/>
      <use xlink:href="#NimbusSanL-Regu-65" transform="translate(1331.290786 0) scale(0.996264)"/>
      <use xlink:href="#NimbusSanL-Regu-31" transform="translate(1422.548029 0) scale(0.996264)"/>
      <use xlink:href="#NimbusSanL-Regu-37" transform="translate(1477.939705 0) scale(0.996264)"/>
      <path d="M 1392.659804 0 
L 1422.548029 0 
L 1422.548029 0.3985 
L 1392.659804 0.3985 
L 1392.659804 0 
z
"/>
     </g>
    </g>
   </g>
   <g id="line2d_16">
    <path d="M 212.531721 211.401609 
L 213.164013 209.642237 
L 213.796561 207.995468 
L 216.260324 201.928418 
L 218.099611 197.901317 
L 219.939398 194.935999 
L 221.77934 192.868956 
L 223.61934 191.833201 
L 225.459363 191.686903 
L 227.299395 192.546705 
L 229.139429 194.329262 
L 230.97946 196.380032 
L 232.819488 198.632373 
L 234.659507 200.511586 
L 236.499517 201.847292 
L 238.339517 202.71004 
L 240.179504 203.370754 
L 242.019477 204.220666 
L 243.859435 205.204219 
L 245.699376 205.731728 
L 247.539295 206.593886 
L 249.379195 207.457467 
L 251.219072 208.398071 
L 253.058925 209.242019 
L 254.898761 209.47793 
L 256.738582 208.344326 
L 258.578394 205.395671 
L 260.418208 202.628328 
L 262.258032 201.941361 
L 264.097875 203.73817 
L 265.937744 206.341865 
L 267.777645 207.279376 
L 269.61758 204.052821 
L 271.457547 197.477979 
L 273.297545 194.314061 
L 275.137571 192.601161 
L 276.977621 189.967985 
L 278.817691 185.019229 
L 280.657777 180.869883 
L 282.497876 178.251822 
L 284.337987 177.440568 
L 286.178107 178.701538 
L 288.018233 179.887741 
L 289.858365 184.520163 
L 291.698502 192.124952 
L 293.538643 197.62936 
L 295.378787 199.765926 
L 297.218933 200.937947 
L 299.059082 201.067614 
L 300.899233 201.330025 
L 302.739385 203.568149 
L 304.579538 206.407806 
L 306.419692 209.439466 
L 308.259848 211.771474 
L 310.100004 212.930516 
L 311.940161 212.894461 
L 313.780318 212.211503 
L 315.620477 210.407514 
L 317.460635 210.753868 
L 319.300794 211.043417 
L 321.140953 212.141346 
L 322.981112 213.110329 
L 324.821272 211.415725 
L 326.661432 212.243456 
L 328.501592 211.717063 
L 330.341753 207.05695 
L 332.181913 201.092053 
L 334.022074 195.780932 
L 335.862234 181.338836 
L 337.702395 166.520518 
L 339.542556 155.324628 
L 341.382717 145.075367 
L 343.222879 138.868844 
L 345.06304 140.394285 
L 346.903201 142.443209 
L 348.743363 141.139629 
L 350.583524 134.885834 
L 352.423686 125.355093 
L 354.263847 112.817478 
L 356.104009 97.754042 
L 357.944171 84.249189 
L 359.784332 73.61244 
L 361.624494 75.605764 
L 363.464656 98.724935 
L 365.304818 117.383697 
L 367.14498 101.721799 
L 368.985142 105.737577 
L 370.825304 140.794177 
L 372.665466 110.115913 
L 374.505628 91.360693 
L 376.34579 144.886701 
L 378.760043 155.883568 
L 379.344821 174.085029 
L 379.931721 202.174421 
" clip-path="url(#p155fc899b1)" style="fill: none; stroke: #00008b; stroke-width: 1.5; stroke-linecap: square"/>
    <defs>
     <path id="m1b210b13aa" d="M 0 0.25 
C 0.066301 0.25 0.129895 0.223658 0.176777 0.176777 
C 0.223658 0.129895 0.25 0.066301 0.25 0 
C 0.25 -0.066301 0.223658 -0.129895 0.176777 -0.176777 
C 0.129895 -0.223658 0.066301 -0.25 0 -0.25 
C -0.066301 -0.25 -0.129895 -0.223658 -0.176777 -0.176777 
C -0.223658 -0.129895 -0.25 -0.066301 -0.25 0 
C -0.25 0.066301 -0.223658 0.129895 -0.176777 0.176777 
C -0.129895 0.223658 -0.066301 0.25 0 0.25 
z
" style="stroke: #00008b"/>
    </defs>
    <g clip-path="url(#p155fc899b1)">
     <use xlink:href="#m1b210b13aa" x="212.531721" y="211.401609" style="fill: #00008b; stroke: #00008b"/>
     <use xlink:href="#m1b210b13aa" x="213.164013" y="209.642237" style="fill: #00008b; stroke: #00008b"/>
     <use xlink:href="#m1b210b13aa" x="213.796561" y="207.995468" style="fill: #00008b; stroke: #00008b"/>
     <use xlink:href="#m1b210b13aa" x="216.260324" y="201.928418" style="fill: #00008b; stroke: #00008b"/>
     <use xlink:href="#m1b210b13aa" x="218.099611" y="197.901317" style="fill: #00008b; stroke: #00008b"/>
     <use xlink:href="#m1b210b13aa" x="219.939398" y="194.935999" style="fill: #00008b; stroke: #00008b"/>
     <use xlink:href="#m1b210b13aa" x="221.77934" y="192.868956" style="fill: #00008b; stroke: #00008b"/>
     <use xlink:href="#m1b210b13aa" x="223.61934" y="191.833201" style="fill: #00008b; stroke: #00008b"/>
     <use xlink:href="#m1b210b13aa" x="225.459363" y="191.686903" style="fill: #00008b; stroke: #00008b"/>
     <use xlink:href="#m1b210b13aa" x="227.299395" y="192.546705" style="fill: #00008b; stroke: #00008b"/>
     <use xlink:href="#m1b210b13aa" x="229.139429" y="194.329262" style="fill: #00008b; stroke: #00008b"/>
     <use xlink:href="#m1b210b13aa" x="230.97946" y="196.380032" style="fill: #00008b; stroke: #00008b"/>
     <use xlink:href="#m1b210b13aa" x="232.819488" y="198.632373" style="fill: #00008b; stroke: #00008b"/>
     <use xlink:href="#m1b210b13aa" x="234.659507" y="200.511586" style="fill: #00008b; stroke: #00008b"/>
     <use xlink:href="#m1b210b13aa" x="236.499517" y="201.847292" style="fill: #00008b; stroke: #00008b"/>
     <use xlink:href="#m1b210b13aa" x="238.339517" y="202.71004" style="fill: #00008b; stroke: #00008b"/>
     <use xlink:href="#m1b210b13aa" x="240.179504" y="203.370754" style="fill: #00008b; stroke: #00008b"/>
     <use xlink:href="#m1b210b13aa" x="242.019477" y="204.220666" style="fill: #00008b; stroke: #00008b"/>
     <use xlink:href="#m1b210b13aa" x="243.859435" y="205.204219" style="fill: #00008b; stroke: #00008b"/>
     <use xlink:href="#m1b210b13aa" x="245.699376" y="205.731728" style="fill: #00008b; stroke: #00008b"/>
     <use xlink:href="#m1b210b13aa" x="247.539295" y="206.593886" style="fill: #00008b; stroke: #00008b"/>
     <use xlink:href="#m1b210b13aa" x="249.379195" y="207.457467" style="fill: #00008b; stroke: #00008b"/>
     <use xlink:href="#m1b210b13aa" x="251.219072" y="208.398071" style="fill: #00008b; stroke: #00008b"/>
     <use xlink:href="#m1b210b13aa" x="253.058925" y="209.242019" style="fill: #00008b; stroke: #00008b"/>
     <use xlink:href="#m1b210b13aa" x="254.898761" y="209.47793" style="fill: #00008b; stroke: #00008b"/>
     <use xlink:href="#m1b210b13aa" x="256.738582" y="208.344326" style="fill: #00008b; stroke: #00008b"/>
     <use xlink:href="#m1b210b13aa" x="258.578394" y="205.395671" style="fill: #00008b; stroke: #00008b"/>
     <use xlink:href="#m1b210b13aa" x="260.418208" y="202.628328" style="fill: #00008b; stroke: #00008b"/>
     <use xlink:href="#m1b210b13aa" x="262.258032" y="201.941361" style="fill: #00008b; stroke: #00008b"/>
     <use xlink:href="#m1b210b13aa" x="264.097875" y="203.73817" style="fill: #00008b; stroke: #00008b"/>
     <use xlink:href="#m1b210b13aa" x="265.937744" y="206.341865" style="fill: #00008b; stroke: #00008b"/>
     <use xlink:href="#m1b210b13aa" x="267.777645" y="207.279376" style="fill: #00008b; stroke: #00008b"/>
     <use xlink:href="#m1b210b13aa" x="269.61758" y="204.052821" style="fill: #00008b; stroke: #00008b"/>
     <use xlink:href="#m1b210b13aa" x="271.457547" y="197.477979" style="fill: #00008b; stroke: #00008b"/>
     <use xlink:href="#m1b210b13aa" x="273.297545" y="194.314061" style="fill: #00008b; stroke: #00008b"/>
     <use xlink:href="#m1b210b13aa" x="275.137571" y="192.601161" style="fill: #00008b; stroke: #00008b"/>
     <use xlink:href="#m1b210b13aa" x="276.977621" y="189.967985" style="fill: #00008b; stroke: #00008b"/>
     <use xlink:href="#m1b210b13aa" x="278.817691" y="185.019229" style="fill: #00008b; stroke: #00008b"/>
     <use xlink:href="#m1b210b13aa" x="280.657777" y="180.869883" style="fill: #00008b; stroke: #00008b"/>
     <use xlink:href="#m1b210b13aa" x="282.497876" y="178.251822" style="fill: #00008b; stroke: #00008b"/>
     <use xlink:href="#m1b210b13aa" x="284.337987" y="177.440568" style="fill: #00008b; stroke: #00008b"/>
     <use xlink:href="#m1b210b13aa" x="286.178107" y="178.701538" style="fill: #00008b; stroke: #00008b"/>
     <use xlink:href="#m1b210b13aa" x="288.018233" y="179.887741" style="fill: #00008b; stroke: #00008b"/>
     <use xlink:href="#m1b210b13aa" x="289.858365" y="184.520163" style="fill: #00008b; stroke: #00008b"/>
     <use xlink:href="#m1b210b13aa" x="291.698502" y="192.124952" style="fill: #00008b; stroke: #00008b"/>
     <use xlink:href="#m1b210b13aa" x="293.538643" y="197.62936" style="fill: #00008b; stroke: #00008b"/>
     <use xlink:href="#m1b210b13aa" x="295.378787" y="199.765926" style="fill: #00008b; stroke: #00008b"/>
     <use xlink:href="#m1b210b13aa" x="297.218933" y="200.937947" style="fill: #00008b; stroke: #00008b"/>
     <use xlink:href="#m1b210b13aa" x="299.059082" y="201.067614" style="fill: #00008b; stroke: #00008b"/>
     <use xlink:href="#m1b210b13aa" x="300.899233" y="201.330025" style="fill: #00008b; stroke: #00008b"/>
     <use xlink:href="#m1b210b13aa" x="302.739385" y="203.568149" style="fill: #00008b; stroke: #00008b"/>
     <use xlink:href="#m1b210b13aa" x="304.579538" y="206.407806" style="fill: #00008b; stroke: #00008b"/>
     <use xlink:href="#m1b210b13aa" x="306.419692" y="209.439466" style="fill: #00008b; stroke: #00008b"/>
     <use xlink:href="#m1b210b13aa" x="308.259848" y="211.771474" style="fill: #00008b; stroke: #00008b"/>
     <use xlink:href="#m1b210b13aa" x="310.100004" y="212.930516" style="fill: #00008b; stroke: #00008b"/>
     <use xlink:href="#m1b210b13aa" x="311.940161" y="212.894461" style="fill: #00008b; stroke: #00008b"/>
     <use xlink:href="#m1b210b13aa" x="313.780318" y="212.211503" style="fill: #00008b; stroke: #00008b"/>
     <use xlink:href="#m1b210b13aa" x="315.620477" y="210.407514" style="fill: #00008b; stroke: #00008b"/>
     <use xlink:href="#m1b210b13aa" x="317.460635" y="210.753868" style="fill: #00008b; stroke: #00008b"/>
     <use xlink:href="#m1b210b13aa" x="319.300794" y="211.043417" style="fill: #00008b; stroke: #00008b"/>
     <use xlink:href="#m1b210b13aa" x="321.140953" y="212.141346" style="fill: #00008b; stroke: #00008b"/>
     <use xlink:href="#m1b210b13aa" x="322.981112" y="213.110329" style="fill: #00008b; stroke: #00008b"/>
     <use xlink:href="#m1b210b13aa" x="324.821272" y="211.415725" style="fill: #00008b; stroke: #00008b"/>
     <use xlink:href="#m1b210b13aa" x="326.661432" y="212.243456" style="fill: #00008b; stroke: #00008b"/>
     <use xlink:href="#m1b210b13aa" x="328.501592" y="211.717063" style="fill: #00008b; stroke: #00008b"/>
     <use xlink:href="#m1b210b13aa" x="330.341753" y="207.05695" style="fill: #00008b; stroke: #00008b"/>
     <use xlink:href="#m1b210b13aa" x="332.181913" y="201.092053" style="fill: #00008b; stroke: #00008b"/>
     <use xlink:href="#m1b210b13aa" x="334.022074" y="195.780932" style="fill: #00008b; stroke: #00008b"/>
     <use xlink:href="#m1b210b13aa" x="335.862234" y="181.338836" style="fill: #00008b; stroke: #00008b"/>
     <use xlink:href="#m1b210b13aa" x="337.702395" y="166.520518" style="fill: #00008b; stroke: #00008b"/>
     <use xlink:href="#m1b210b13aa" x="339.542556" y="155.324628" style="fill: #00008b; stroke: #00008b"/>
     <use xlink:href="#m1b210b13aa" x="341.382717" y="145.075367" style="fill: #00008b; stroke: #00008b"/>
     <use xlink:href="#m1b210b13aa" x="343.222879" y="138.868844" style="fill: #00008b; stroke: #00008b"/>
     <use xlink:href="#m1b210b13aa" x="345.06304" y="140.394285" style="fill: #00008b; stroke: #00008b"/>
     <use xlink:href="#m1b210b13aa" x="346.903201" y="142.443209" style="fill: #00008b; stroke: #00008b"/>
     <use xlink:href="#m1b210b13aa" x="348.743363" y="141.139629" style="fill: #00008b; stroke: #00008b"/>
     <use xlink:href="#m1b210b13aa" x="350.583524" y="134.885834" style="fill: #00008b; stroke: #00008b"/>
     <use xlink:href="#m1b210b13aa" x="352.423686" y="125.355093" style="fill: #00008b; stroke: #00008b"/>
     <use xlink:href="#m1b210b13aa" x="354.263847" y="112.817478" style="fill: #00008b; stroke: #00008b"/>
     <use xlink:href="#m1b210b13aa" x="356.104009" y="97.754042" style="fill: #00008b; stroke: #00008b"/>
     <use xlink:href="#m1b210b13aa" x="357.944171" y="84.249189" style="fill: #00008b; stroke: #00008b"/>
     <use xlink:href="#m1b210b13aa" x="359.784332" y="73.61244" style="fill: #00008b; stroke: #00008b"/>
     <use xlink:href="#m1b210b13aa" x="361.624494" y="75.605764" style="fill: #00008b; stroke: #00008b"/>
     <use xlink:href="#m1b210b13aa" x="363.464656" y="98.724935" style="fill: #00008b; stroke: #00008b"/>
     <use xlink:href="#m1b210b13aa" x="365.304818" y="117.383697" style="fill: #00008b; stroke: #00008b"/>
     <use xlink:href="#m1b210b13aa" x="367.14498" y="101.721799" style="fill: #00008b; stroke: #00008b"/>
     <use xlink:href="#m1b210b13aa" x="368.985142" y="105.737577" style="fill: #00008b; stroke: #00008b"/>
     <use xlink:href="#m1b210b13aa" x="370.825304" y="140.794177" style="fill: #00008b; stroke: #00008b"/>
     <use xlink:href="#m1b210b13aa" x="372.665466" y="110.115913" style="fill: #00008b; stroke: #00008b"/>
     <use xlink:href="#m1b210b13aa" x="374.505628" y="91.360693" style="fill: #00008b; stroke: #00008b"/>
     <use xlink:href="#m1b210b13aa" x="376.34579" y="144.886701" style="fill: #00008b; stroke: #00008b"/>
     <use xlink:href="#m1b210b13aa" x="378.760043" y="155.883568" style="fill: #00008b; stroke: #00008b"/>
     <use xlink:href="#m1b210b13aa" x="379.344821" y="174.085029" style="fill: #00008b; stroke: #00008b"/>
     <use xlink:href="#m1b210b13aa" x="379.931721" y="202.174421" style="fill: #00008b; stroke: #00008b"/>
    </g>
   </g>
   <g id="line2d_17">
    <path d="M 212.531721 215.66421 
L 211.899485 218.88 
L 211.266893 217.674851 
L 208.802587 205.048203 
L 206.962957 198.812682 
L 205.122817 193.946474 
L 203.282511 190.329033 
L 201.442138 187.529328 
L 199.601735 185.374957 
L 197.761319 183.706162 
L 195.920897 182.429137 
L 194.080473 181.47641 
L 192.240048 180.808211 
L 190.399625 180.378367 
L 188.559202 180.190111 
L 186.718783 180.188888 
L 184.878365 180.33151 
L 183.037949 180.584679 
L 181.197536 180.969558 
L 179.357126 181.472572 
L 177.516717 181.963941 
L 175.676312 182.455842 
L 173.835909 183.020206 
L 171.995507 183.596643 
L 170.155107 184.210348 
L 168.314709 184.878143 
L 166.474313 185.598772 
L 164.633918 186.393574 
L 162.793523 187.192748 
L 160.95313 187.988266 
L 159.112737 188.805572 
L 157.272344 189.615117 
L 155.431951 190.392013 
L 153.591558 191.180353 
L 151.751165 191.879094 
L 149.910771 192.555424 
L 148.070376 193.230817 
L 146.229981 193.897799 
L 144.389585 194.58103 
L 142.549189 195.316882 
L 140.708791 196.053586 
L 138.868393 196.722773 
L 137.027993 197.375963 
L 135.187593 198.041609 
L 133.347192 198.737078 
L 131.50679 199.449373 
L 129.666387 200.141888 
L 127.825984 200.842326 
L 125.985579 201.560069 
L 124.145174 202.248815 
L 122.304768 202.875148 
L 120.464361 203.545189 
L 118.623953 204.207894 
L 116.783545 204.883339 
L 114.943136 205.539039 
L 113.102726 206.198331 
L 111.262316 206.890537 
L 109.421904 207.602108 
L 107.581493 208.29584 
L 105.741081 209.002545 
L 103.900668 209.694516 
L 102.060255 210.353377 
L 100.219841 210.956539 
L 98.379427 211.592469 
L 96.539012 212.088344 
L 94.698597 212.603011 
L 92.858182 212.999689 
L 91.017766 213.437934 
L 89.17735 213.811758 
L 87.336933 214.126396 
L 85.496516 214.419491 
L 83.656099 214.704277 
L 81.815681 214.947685 
L 79.975263 215.194114 
L 78.134845 215.368099 
L 76.294427 215.494089 
L 74.454008 215.590607 
L 72.613589 215.633006 
L 70.773169 215.597606 
L 68.93275 215.50179 
L 67.09233 215.275883 
L 65.25191 214.895172 
L 63.41149 214.33875 
L 61.57107 213.625867 
L 59.73065 212.720778 
L 57.890229 211.54901 
L 56.049808 210.159287 
L 54.209387 208.198338 
L 52.368966 205.418508 
L 50.528545 202.180441 
L 48.688124 197.630276 
L 46.306301 192.15674 
L 45.719908 204.54945 
L 45.131721 217.511711 
" clip-path="url(#p155fc899b1)" style="fill: none; stroke: #add8e6; stroke-width: 1.5; stroke-linecap: square"/>
    <defs>
     <path id="mc1fb72c65b" d="M 0 0.25 
C 0.066301 0.25 0.129895 0.223658 0.176777 0.176777 
C 0.223658 0.129895 0.25 0.066301 0.25 0 
C 0.25 -0.066301 0.223658 -0.129895 0.176777 -0.176777 
C 0.129895 -0.223658 0.066301 -0.25 0 -0.25 
C -0.066301 -0.25 -0.129895 -0.223658 -0.176777 -0.176777 
C -0.223658 -0.129895 -0.25 -0.066301 -0.25 0 
C -0.25 0.066301 -0.223658 0.129895 -0.176777 0.176777 
C -0.129895 0.223658 -0.066301 0.25 0 0.25 
z
" style="stroke: #add8e6"/>
    </defs>
    <g clip-path="url(#p155fc899b1)">
     <use xlink:href="#mc1fb72c65b" x="212.531721" y="215.66421" style="fill: #add8e6; stroke: #add8e6"/>
     <use xlink:href="#mc1fb72c65b" x="211.899485" y="218.88" style="fill: #add8e6; stroke: #add8e6"/>
     <use xlink:href="#mc1fb72c65b" x="211.266893" y="217.674851" style="fill: #add8e6; stroke: #add8e6"/>
     <use xlink:href="#mc1fb72c65b" x="208.802587" y="205.048203" style="fill: #add8e6; stroke: #add8e6"/>
     <use xlink:href="#mc1fb72c65b" x="206.962957" y="198.812682" style="fill: #add8e6; stroke: #add8e6"/>
     <use xlink:href="#mc1fb72c65b" x="205.122817" y="193.946474" style="fill: #add8e6; stroke: #add8e6"/>
     <use xlink:href="#mc1fb72c65b" x="203.282511" y="190.329033" style="fill: #add8e6; stroke: #add8e6"/>
     <use xlink:href="#mc1fb72c65b" x="201.442138" y="187.529328" style="fill: #add8e6; stroke: #add8e6"/>
     <use xlink:href="#mc1fb72c65b" x="199.601735" y="185.374957" style="fill: #add8e6; stroke: #add8e6"/>
     <use xlink:href="#mc1fb72c65b" x="197.761319" y="183.706162" style="fill: #add8e6; stroke: #add8e6"/>
     <use xlink:href="#mc1fb72c65b" x="195.920897" y="182.429137" style="fill: #add8e6; stroke: #add8e6"/>
     <use xlink:href="#mc1fb72c65b" x="194.080473" y="181.47641" style="fill: #add8e6; stroke: #add8e6"/>
     <use xlink:href="#mc1fb72c65b" x="192.240048" y="180.808211" style="fill: #add8e6; stroke: #add8e6"/>
     <use xlink:href="#mc1fb72c65b" x="190.399625" y="180.378367" style="fill: #add8e6; stroke: #add8e6"/>
     <use xlink:href="#mc1fb72c65b" x="188.559202" y="180.190111" style="fill: #add8e6; stroke: #add8e6"/>
     <use xlink:href="#mc1fb72c65b" x="186.718783" y="180.188888" style="fill: #add8e6; stroke: #add8e6"/>
     <use xlink:href="#mc1fb72c65b" x="184.878365" y="180.33151" style="fill: #add8e6; stroke: #add8e6"/>
     <use xlink:href="#mc1fb72c65b" x="183.037949" y="180.584679" style="fill: #add8e6; stroke: #add8e6"/>
     <use xlink:href="#mc1fb72c65b" x="181.197536" y="180.969558" style="fill: #add8e6; stroke: #add8e6"/>
     <use xlink:href="#mc1fb72c65b" x="179.357126" y="181.472572" style="fill: #add8e6; stroke: #add8e6"/>
     <use xlink:href="#mc1fb72c65b" x="177.516717" y="181.963941" style="fill: #add8e6; stroke: #add8e6"/>
     <use xlink:href="#mc1fb72c65b" x="175.676312" y="182.455842" style="fill: #add8e6; stroke: #add8e6"/>
     <use xlink:href="#mc1fb72c65b" x="173.835909" y="183.020206" style="fill: #add8e6; stroke: #add8e6"/>
     <use xlink:href="#mc1fb72c65b" x="171.995507" y="183.596643" style="fill: #add8e6; stroke: #add8e6"/>
     <use xlink:href="#mc1fb72c65b" x="170.155107" y="184.210348" style="fill: #add8e6; stroke: #add8e6"/>
     <use xlink:href="#mc1fb72c65b" x="168.314709" y="184.878143" style="fill: #add8e6; stroke: #add8e6"/>
     <use xlink:href="#mc1fb72c65b" x="166.474313" y="185.598772" style="fill: #add8e6; stroke: #add8e6"/>
     <use xlink:href="#mc1fb72c65b" x="164.633918" y="186.393574" style="fill: #add8e6; stroke: #add8e6"/>
     <use xlink:href="#mc1fb72c65b" x="162.793523" y="187.192748" style="fill: #add8e6; stroke: #add8e6"/>
     <use xlink:href="#mc1fb72c65b" x="160.95313" y="187.988266" style="fill: #add8e6; stroke: #add8e6"/>
     <use xlink:href="#mc1fb72c65b" x="159.112737" y="188.805572" style="fill: #add8e6; stroke: #add8e6"/>
     <use xlink:href="#mc1fb72c65b" x="157.272344" y="189.615117" style="fill: #add8e6; stroke: #add8e6"/>
     <use xlink:href="#mc1fb72c65b" x="155.431951" y="190.392013" style="fill: #add8e6; stroke: #add8e6"/>
     <use xlink:href="#mc1fb72c65b" x="153.591558" y="191.180353" style="fill: #add8e6; stroke: #add8e6"/>
     <use xlink:href="#mc1fb72c65b" x="151.751165" y="191.879094" style="fill: #add8e6; stroke: #add8e6"/>
     <use xlink:href="#mc1fb72c65b" x="149.910771" y="192.555424" style="fill: #add8e6; stroke: #add8e6"/>
     <use xlink:href="#mc1fb72c65b" x="148.070376" y="193.230817" style="fill: #add8e6; stroke: #add8e6"/>
     <use xlink:href="#mc1fb72c65b" x="146.229981" y="193.897799" style="fill: #add8e6; stroke: #add8e6"/>
     <use xlink:href="#mc1fb72c65b" x="144.389585" y="194.58103" style="fill: #add8e6; stroke: #add8e6"/>
     <use xlink:href="#mc1fb72c65b" x="142.549189" y="195.316882" style="fill: #add8e6; stroke: #add8e6"/>
     <use xlink:href="#mc1fb72c65b" x="140.708791" y="196.053586" style="fill: #add8e6; stroke: #add8e6"/>
     <use xlink:href="#mc1fb72c65b" x="138.868393" y="196.722773" style="fill: #add8e6; stroke: #add8e6"/>
     <use xlink:href="#mc1fb72c65b" x="137.027993" y="197.375963" style="fill: #add8e6; stroke: #add8e6"/>
     <use xlink:href="#mc1fb72c65b" x="135.187593" y="198.041609" style="fill: #add8e6; stroke: #add8e6"/>
     <use xlink:href="#mc1fb72c65b" x="133.347192" y="198.737078" style="fill: #add8e6; stroke: #add8e6"/>
     <use xlink:href="#mc1fb72c65b" x="131.50679" y="199.449373" style="fill: #add8e6; stroke: #add8e6"/>
     <use xlink:href="#mc1fb72c65b" x="129.666387" y="200.141888" style="fill: #add8e6; stroke: #add8e6"/>
     <use xlink:href="#mc1fb72c65b" x="127.825984" y="200.842326" style="fill: #add8e6; stroke: #add8e6"/>
     <use xlink:href="#mc1fb72c65b" x="125.985579" y="201.560069" style="fill: #add8e6; stroke: #add8e6"/>
     <use xlink:href="#mc1fb72c65b" x="124.145174" y="202.248815" style="fill: #add8e6; stroke: #add8e6"/>
     <use xlink:href="#mc1fb72c65b" x="122.304768" y="202.875148" style="fill: #add8e6; stroke: #add8e6"/>
     <use xlink:href="#mc1fb72c65b" x="120.464361" y="203.545189" style="fill: #add8e6; stroke: #add8e6"/>
     <use xlink:href="#mc1fb72c65b" x="118.623953" y="204.207894" style="fill: #add8e6; stroke: #add8e6"/>
     <use xlink:href="#mc1fb72c65b" x="116.783545" y="204.883339" style="fill: #add8e6; stroke: #add8e6"/>
     <use xlink:href="#mc1fb72c65b" x="114.943136" y="205.539039" style="fill: #add8e6; stroke: #add8e6"/>
     <use xlink:href="#mc1fb72c65b" x="113.102726" y="206.198331" style="fill: #add8e6; stroke: #add8e6"/>
     <use xlink:href="#mc1fb72c65b" x="111.262316" y="206.890537" style="fill: #add8e6; stroke: #add8e6"/>
     <use xlink:href="#mc1fb72c65b" x="109.421904" y="207.602108" style="fill: #add8e6; stroke: #add8e6"/>
     <use xlink:href="#mc1fb72c65b" x="107.581493" y="208.29584" style="fill: #add8e6; stroke: #add8e6"/>
     <use xlink:href="#mc1fb72c65b" x="105.741081" y="209.002545" style="fill: #add8e6; stroke: #add8e6"/>
     <use xlink:href="#mc1fb72c65b" x="103.900668" y="209.694516" style="fill: #add8e6; stroke: #add8e6"/>
     <use xlink:href="#mc1fb72c65b" x="102.060255" y="210.353377" style="fill: #add8e6; stroke: #add8e6"/>
     <use xlink:href="#mc1fb72c65b" x="100.219841" y="210.956539" style="fill: #add8e6; stroke: #add8e6"/>
     <use xlink:href="#mc1fb72c65b" x="98.379427" y="211.592469" style="fill: #add8e6; stroke: #add8e6"/>
     <use xlink:href="#mc1fb72c65b" x="96.539012" y="212.088344" style="fill: #add8e6; stroke: #add8e6"/>
     <use xlink:href="#mc1fb72c65b" x="94.698597" y="212.603011" style="fill: #add8e6; stroke: #add8e6"/>
     <use xlink:href="#mc1fb72c65b" x="92.858182" y="212.999689" style="fill: #add8e6; stroke: #add8e6"/>
     <use xlink:href="#mc1fb72c65b" x="91.017766" y="213.437934" style="fill: #add8e6; stroke: #add8e6"/>
     <use xlink:href="#mc1fb72c65b" x="89.17735" y="213.811758" style="fill: #add8e6; stroke: #add8e6"/>
     <use xlink:href="#mc1fb72c65b" x="87.336933" y="214.126396" style="fill: #add8e6; stroke: #add8e6"/>
     <use xlink:href="#mc1fb72c65b" x="85.496516" y="214.419491" style="fill: #add8e6; stroke: #add8e6"/>
     <use xlink:href="#mc1fb72c65b" x="83.656099" y="214.704277" style="fill: #add8e6; stroke: #add8e6"/>
     <use xlink:href="#mc1fb72c65b" x="81.815681" y="214.947685" style="fill: #add8e6; stroke: #add8e6"/>
     <use xlink:href="#mc1fb72c65b" x="79.975263" y="215.194114" style="fill: #add8e6; stroke: #add8e6"/>
     <use xlink:href="#mc1fb72c65b" x="78.134845" y="215.368099" style="fill: #add8e6; stroke: #add8e6"/>
     <use xlink:href="#mc1fb72c65b" x="76.294427" y="215.494089" style="fill: #add8e6; stroke: #add8e6"/>
     <use xlink:href="#mc1fb72c65b" x="74.454008" y="215.590607" style="fill: #add8e6; stroke: #add8e6"/>
     <use xlink:href="#mc1fb72c65b" x="72.613589" y="215.633006" style="fill: #add8e6; stroke: #add8e6"/>
     <use xlink:href="#mc1fb72c65b" x="70.773169" y="215.597606" style="fill: #add8e6; stroke: #add8e6"/>
     <use xlink:href="#mc1fb72c65b" x="68.93275" y="215.50179" style="fill: #add8e6; stroke: #add8e6"/>
     <use xlink:href="#mc1fb72c65b" x="67.09233" y="215.275883" style="fill: #add8e6; stroke: #add8e6"/>
     <use xlink:href="#mc1fb72c65b" x="65.25191" y="214.895172" style="fill: #add8e6; stroke: #add8e6"/>
     <use xlink:href="#mc1fb72c65b" x="63.41149" y="214.33875" style="fill: #add8e6; stroke: #add8e6"/>
     <use xlink:href="#mc1fb72c65b" x="61.57107" y="213.625867" style="fill: #add8e6; stroke: #add8e6"/>
     <use xlink:href="#mc1fb72c65b" x="59.73065" y="212.720778" style="fill: #add8e6; stroke: #add8e6"/>
     <use xlink:href="#mc1fb72c65b" x="57.890229" y="211.54901" style="fill: #add8e6; stroke: #add8e6"/>
     <use xlink:href="#mc1fb72c65b" x="56.049808" y="210.159287" style="fill: #add8e6; stroke: #add8e6"/>
     <use xlink:href="#mc1fb72c65b" x="54.209387" y="208.198338" style="fill: #add8e6; stroke: #add8e6"/>
     <use xlink:href="#mc1fb72c65b" x="52.368966" y="205.418508" style="fill: #add8e6; stroke: #add8e6"/>
     <use xlink:href="#mc1fb72c65b" x="50.528545" y="202.180441" style="fill: #add8e6; stroke: #add8e6"/>
     <use xlink:href="#mc1fb72c65b" x="48.688124" y="197.630276" style="fill: #add8e6; stroke: #add8e6"/>
     <use xlink:href="#mc1fb72c65b" x="46.306301" y="192.15674" style="fill: #add8e6; stroke: #add8e6"/>
     <use xlink:href="#mc1fb72c65b" x="45.719908" y="204.54945" style="fill: #add8e6; stroke: #add8e6"/>
     <use xlink:href="#mc1fb72c65b" x="45.131721" y="217.511711" style="fill: #add8e6; stroke: #add8e6"/>
    </g>
   </g>
   <g id="patch_3">
    <path d="M 45.131721 228.96 
L 45.131721 7.2 
" style="fill: none; stroke: #000000; stroke-width: 0.8; stroke-linejoin: miter; stroke-linecap: square"/>
   </g>
   <g id="patch_4">
    <path d="M 379.931721 228.96 
L 379.931721 7.2 
" style="fill: none; stroke: #000000; stroke-width: 0.8; stroke-linejoin: miter; stroke-linecap: square"/>
   </g>
   <g id="patch_5">
    <path d="M 45.131721 228.96 
L 379.931721 228.96 
" style="fill: none; stroke: #000000; stroke-width: 0.8; stroke-linejoin: miter; stroke-linecap: square"/>
   </g>
   <g id="patch_6">
    <path d="M 45.131721 7.2 
L 379.931721 7.2 
" style="fill: none; stroke: #000000; stroke-width: 0.8; stroke-linejoin: miter; stroke-linecap: square"/>
   </g>
   <g id="legend_1">
    <g id="patch_7">
     <path d="M 50.131721 58.229654 
L 135.954377 58.229654 
L 135.954377 12.2 
L 50.131721 12.2 
z
" style="fill: #ffffff; opacity: 0.8; stroke: #000000; stroke-linejoin: miter"/>
    </g>
    <g id="line2d_18">
     <path d="M 54.131721 19.982687 
L 64.131721 19.982687 
L 74.131721 19.982687 
" style="fill: none; stroke: #00008b; stroke-width: 1.5; stroke-linecap: square"/>
     <g>
      <use xlink:href="#m1b210b13aa" x="64.131721" y="19.982687" style="fill: #00008b; stroke: #00008b"/>
     </g>
    </g>
    <g id="text_18">
     <!-- SU2 (SS) -->
     <g transform="translate(82.131721 23.482687) scale(0.1 -0.1)">
      <defs>
       <path id="NimbusSanL-Regu-55" d="M 3533 4672 
L 3533 1404 
C 3533 779 3078 396 2330 396 
C 1984 396 1702 479 1478 639 
C 1248 817 1139 1053 1139 1404 
L 1139 4672 
L 544 4672 
L 544 1404 
C 544 460 1222 -128 2330 -128 
C 3424 -128 4128 473 4128 1404 
L 4128 4672 
L 3533 4672 
z
" transform="scale(0.015625)"/>
       <path id="NimbusSanL-Regu-32" d="M 3238 556 
L 851 556 
C 909 928 1114 1165 1670 1493 
L 2310 1839 
C 2944 2185 3270 2653 3270 3211 
C 3270 3589 3117 3942 2848 4185 
C 2579 4428 2246 4544 1818 4544 
C 1242 4544 813 4339 563 3955 
C 403 3711 333 3429 320 2967 
L 883 2967 
C 902 3275 941 3461 1018 3608 
C 1165 3884 1459 4051 1798 4051 
C 2310 4051 2694 3685 2694 3198 
C 2694 2839 2483 2531 2080 2300 
L 1491 1967 
C 544 1428 269 999 218 0 
L 3238 0 
L 3238 556 
z
" transform="scale(0.015625)"/>
       <path id="NimbusSanL-Regu-28" d="M 1510 4672 
C 870 3833 467 2668 467 1663 
C 467 652 870 -513 1510 -1351 
L 1862 -1351 
C 1299 -436 986 639 986 1663 
C 986 2681 1299 3763 1862 4672 
L 1510 4672 
z
" transform="scale(0.015625)"/>
       <path id="NimbusSanL-Regu-29" d="M 595 -1351 
C 1235 -513 1638 652 1638 1657 
C 1638 2668 1235 3833 595 4672 
L 243 4672 
C 806 3756 1120 2681 1120 1657 
C 1120 639 806 -442 243 -1351 
L 595 -1351 
z
" transform="scale(0.015625)"/>
      </defs>
      <use xlink:href="#NimbusSanL-Regu-53" transform="scale(0.996264)"/>
      <use xlink:href="#NimbusSanL-Regu-55" transform="translate(66.450031 0) scale(0.996264)"/>
      <use xlink:href="#NimbusSanL-Regu-32" transform="translate(138.380016 0) scale(0.996264)"/>
      <use xlink:href="#NimbusSanL-Regu-28" transform="translate(221.466863 0) scale(0.996264)"/>
      <use xlink:href="#NimbusSanL-Regu-53" transform="translate(254.642092 0) scale(0.996264)"/>
      <use xlink:href="#NimbusSanL-Regu-53" transform="translate(321.092123 0) scale(0.996264)"/>
      <use xlink:href="#NimbusSanL-Regu-29" transform="translate(387.542155 0) scale(0.996264)"/>
     </g>
    </g>
    <g id="line2d_19">
     <path d="M 54.131721 34.387361 
L 64.131721 34.387361 
L 74.131721 34.387361 
" style="fill: none; stroke: #add8e6; stroke-width: 1.5; stroke-linecap: square"/>
     <g>
      <use xlink:href="#mc1fb72c65b" x="64.131721" y="34.387361" style="fill: #add8e6; stroke: #add8e6"/>
     </g>
    </g>
    <g id="text_19">
     <!-- SU2 (PS) -->
     <g transform="translate(82.131721 37.887361) scale(0.1 -0.1)">
      <defs>
       <path id="NimbusSanL-Regu-50" d="M 1178 1984 
L 2643 1984 
C 3008 1984 3296 2092 3546 2316 
C 3827 2572 3949 2873 3949 3302 
C 3949 4179 3430 4672 2509 4672 
L 582 4672 
L 582 0 
L 1178 0 
L 1178 1984 
z
M 1178 2508 
L 1178 4147 
L 2419 4147 
C 2989 4147 3328 3839 3328 3327 
C 3328 2816 2989 2508 2419 2508 
L 1178 2508 
z
" transform="scale(0.015625)"/>
      </defs>
      <use xlink:href="#NimbusSanL-Regu-53" transform="scale(0.996264)"/>
      <use xlink:href="#NimbusSanL-Regu-55" transform="translate(66.450031 0) scale(0.996264)"/>
      <use xlink:href="#NimbusSanL-Regu-32" transform="translate(138.380016 0) scale(0.996264)"/>
      <use xlink:href="#NimbusSanL-Regu-28" transform="translate(221.466863 0) scale(0.996264)"/>
      <use xlink:href="#NimbusSanL-Regu-50" transform="translate(254.642092 0) scale(0.996264)"/>
      <use xlink:href="#NimbusSanL-Regu-53" transform="translate(321.092123 0) scale(0.996264)"/>
      <use xlink:href="#NimbusSanL-Regu-29" transform="translate(387.542155 0) scale(0.996264)"/>
     </g>
    </g>
    <g id="PathCollection_2">
     <g>
      <use xlink:href="#m5b212052e1" x="64.131721" y="49.482668" style="fill: #ff0000; stroke: #ff0000"/>
     </g>
    </g>
    <g id="text_20">
     <!-- Mises Data -->
     <g transform="translate(82.131721 52.107668) scale(0.1 -0.1)">
      <defs>
       <path id="NimbusSanL-Regu-4d" d="M 2995 0 
L 4307 3915 
L 4307 0 
L 4870 0 
L 4870 4672 
L 4045 4672 
L 2688 602 
L 1306 4672 
L 480 4672 
L 480 0 
L 1043 0 
L 1043 3915 
L 2368 0 
L 2995 0 
z
" transform="scale(0.015625)"/>
       <path id="NimbusSanL-Regu-73" d="M 2803 2428 
C 2797 3084 2362 3456 1587 3456 
C 806 3456 301 3052 301 2434 
C 301 1912 570 1663 1363 1472 
L 1862 1351 
C 2234 1262 2381 1129 2381 887 
C 2381 574 2067 364 1600 364 
C 1312 364 1069 447 934 587 
C 851 683 813 778 781 1014 
L 218 1014 
C 243 243 678 -128 1555 -128 
C 2400 -128 2938 288 2938 931 
C 2938 1428 2656 1702 1990 1861 
L 1478 1982 
C 1043 2084 858 2224 858 2459 
C 858 2765 1133 2963 1568 2963 
C 1997 2963 2227 2778 2240 2428 
L 2803 2428 
z
" transform="scale(0.015625)"/>
       <path id="NimbusSanL-Regu-44" d="M 570 0 
L 2368 0 
C 3546 0 4269 883 4269 2339 
C 4269 3788 3552 4672 2368 4672 
L 570 4672 
L 570 0 
z
M 1165 524 
L 1165 4147 
L 2266 4147 
C 3187 4147 3674 3525 3674 2332 
C 3674 1153 3187 524 2266 524 
L 1165 524 
z
" transform="scale(0.015625)"/>
      </defs>
      <use xlink:href="#NimbusSanL-Regu-4d" transform="scale(0.996264)"/>
      <use xlink:href="#NimbusSanL-Regu-69" transform="translate(82.98843 0) scale(0.996264)"/>
      <use xlink:href="#NimbusSanL-Regu-73" transform="translate(105.105215 0) scale(0.996264)"/>
      <use xlink:href="#NimbusSanL-Regu-65" transform="translate(154.918415 0) scale(0.996264)"/>
      <use xlink:href="#NimbusSanL-Regu-73" transform="translate(210.310092 0) scale(0.996264)"/>
      <use xlink:href="#NimbusSanL-Regu-44" transform="translate(287.818462 0) scale(0.996264)"/>
      <use xlink:href="#NimbusSanL-Regu-61" transform="translate(359.748447 0) scale(0.996264)"/>
      <use xlink:href="#NimbusSanL-Regu-74" transform="translate(415.140124 0) scale(0.996264)"/>
      <use xlink:href="#NimbusSanL-Regu-61" transform="translate(442.835294 0) scale(0.996264)"/>
     </g>
    </g>
   </g>
  </g>
 </g>
 <defs>
  <clipPath id="p155fc899b1">
   <rect x="45.131721" y="7.2" width="334.8" height="221.76"/>
  </clipPath>
 </defs>
</svg>
