<?xml version="1.0" encoding="utf-8" standalone="no"?>
<!DOCTYPE svg PUBLIC "-//W3C//DTD SVG 1.1//EN"
  "http://www.w3.org/Graphics/SVG/1.1/DTD/svg11.dtd">
<svg xmlns:xlink="http://www.w3.org/1999/xlink" width="379.567344pt" height="265.600613pt" viewBox="0 0 379.567344 265.600613" xmlns="http://www.w3.org/2000/svg" version="1.1">
 <metadata>
  <rdf:RDF xmlns:dc="http://purl.org/dc/elements/1.1/" xmlns:cc="http://creativecommons.org/ns#" xmlns:rdf="http://www.w3.org/1999/02/22-rdf-syntax-ns#">
   <cc:Work>
    <dc:type rdf:resource="http://purl.org/dc/dcmitype/StillImage"/>
    <dc:date>2025-07-17T13:15:28.382726</dc:date>
    <dc:format>image/svg+xml</dc:format>
    <dc:creator>
     <cc:Agent>
      <dc:title>Matplotlib v3.10.3, https://matplotlib.org/</dc:title>
     </cc:Agent>
    </dc:creator>
   </cc:Work>
  </rdf:RDF>
 </metadata>
 <defs>
  <style type="text/css">*{stroke-linejoin: round; stroke-linecap: butt}</style>
 </defs>
 <g id="figure_1">
  <g id="patch_1">
   <path d="M 0 265.600613 
L 379.567344 265.600613 
L 379.567344 0 
L 0 0 
z
" style="fill: #ffffff"/>
  </g>
  <g id="axes_1">
   <g id="patch_2">
    <path d="M 37.567344 228.96 
L 372.367344 228.96 
L 372.367344 7.2 
L 37.567344 7.2 
z
" style="fill: #ffffff"/>
   </g>
   <g id="matplotlib.axis_1">
    <g id="xtick_1">
     <g id="line2d_1">
      <defs>
       <path id="m3f5090217a" d="M 0 0 
L 0 3.5 
" style="stroke: #000000; stroke-width: 0.8"/>
      </defs>
      <g>
       <use xlink:href="#m3f5090217a" x="52.785526" y="228.96" style="stroke: #000000; stroke-width: 0.8"/>
      </g>
     </g>
     <g id="text_1">
      <!-- $\mathdefault{0}$ -->
      <g transform="translate(50.294859 243.05832) scale(0.1 -0.1)">
       <defs>
        <path id="CMR17-30" d="M 2688 2038 
C 2688 2430 2682 3099 2413 3613 
C 2176 4063 1798 4224 1466 4224 
C 1158 4224 768 4082 525 3620 
C 269 3137 243 2539 243 2038 
C 243 1671 250 1112 448 623 
C 723 -39 1216 -128 1466 -128 
C 1760 -128 2208 -7 2470 604 
C 2662 1048 2688 1568 2688 2038 
z
M 1466 -26 
C 1056 -26 813 328 723 816 
C 653 1196 653 1749 653 2109 
C 653 2604 653 3015 736 3407 
C 858 3954 1216 4121 1466 4121 
C 1728 4121 2067 3947 2189 3420 
C 2272 3054 2278 2623 2278 2109 
C 2278 1691 2278 1176 2202 797 
C 2067 96 1690 -26 1466 -26 
z
" transform="scale(0.015625)"/>
       </defs>
       <use xlink:href="#CMR17-30" transform="scale(0.996264)"/>
      </g>
     </g>
    </g>
    <g id="xtick_2">
     <g id="line2d_2">
      <g>
       <use xlink:href="#m3f5090217a" x="125.669539" y="228.96" style="stroke: #000000; stroke-width: 0.8"/>
      </g>
     </g>
     <g id="text_2">
      <!-- $\mathdefault{1000}$ -->
      <g transform="translate(115.706868 243.05832) scale(0.1 -0.1)">
       <defs>
        <path id="CMR17-31" d="M 1702 4083 
C 1702 4217 1696 4224 1606 4224 
C 1357 3927 979 3833 621 3820 
C 602 3820 570 3820 563 3808 
C 557 3795 557 3782 557 3648 
C 755 3648 1088 3686 1344 3839 
L 1344 467 
C 1344 243 1331 166 781 166 
L 589 166 
L 589 0 
C 896 6 1216 12 1523 12 
C 1830 12 2150 6 2458 0 
L 2458 166 
L 2266 166 
C 1715 166 1702 236 1702 467 
L 1702 4083 
z
" transform="scale(0.015625)"/>
       </defs>
       <use xlink:href="#CMR17-31" transform="scale(0.996264)"/>
       <use xlink:href="#CMR17-30" transform="translate(45.690477 0) scale(0.996264)"/>
       <use xlink:href="#CMR17-30" transform="translate(91.380954 0) scale(0.996264)"/>
       <use xlink:href="#CMR17-30" transform="translate(137.071431 0) scale(0.996264)"/>
      </g>
     </g>
    </g>
    <g id="xtick_3">
     <g id="line2d_3">
      <g>
       <use xlink:href="#m3f5090217a" x="198.553551" y="228.96" style="stroke: #000000; stroke-width: 0.8"/>
      </g>
     </g>
     <g id="text_3">
      <!-- $\mathdefault{2000}$ -->
      <g transform="translate(188.590881 243.05832) scale(0.1 -0.1)">
       <defs>
        <path id="CMR17-32" d="M 2669 990 
L 2554 990 
C 2490 537 2438 460 2413 422 
C 2381 371 1920 371 1830 371 
L 602 371 
C 832 620 1280 1073 1824 1596 
C 2214 1966 2669 2400 2669 3033 
C 2669 3788 2067 4224 1395 4224 
C 691 4224 262 3603 262 3027 
C 262 2777 448 2745 525 2745 
C 589 2745 781 2783 781 3007 
C 781 3206 614 3264 525 3264 
C 486 3264 448 3257 422 3244 
C 544 3788 915 4057 1306 4057 
C 1862 4057 2227 3616 2227 3033 
C 2227 2477 1901 1998 1536 1583 
L 262 147 
L 262 0 
L 2515 0 
L 2669 990 
z
" transform="scale(0.015625)"/>
       </defs>
       <use xlink:href="#CMR17-32" transform="scale(0.996264)"/>
       <use xlink:href="#CMR17-30" transform="translate(45.690477 0) scale(0.996264)"/>
       <use xlink:href="#CMR17-30" transform="translate(91.380954 0) scale(0.996264)"/>
       <use xlink:href="#CMR17-30" transform="translate(137.071431 0) scale(0.996264)"/>
      </g>
     </g>
    </g>
    <g id="xtick_4">
     <g id="line2d_4">
      <g>
       <use xlink:href="#m3f5090217a" x="271.437564" y="228.96" style="stroke: #000000; stroke-width: 0.8"/>
      </g>
     </g>
     <g id="text_4">
      <!-- $\mathdefault{3000}$ -->
      <g transform="translate(261.474893 243.05832) scale(0.1 -0.1)">
       <defs>
        <path id="CMR17-33" d="M 1414 2176 
C 1984 2176 2234 1673 2234 1094 
C 2234 322 1824 25 1453 25 
C 1114 25 563 193 390 691 
C 422 678 454 678 486 678 
C 640 678 755 780 755 947 
C 755 1132 614 1216 486 1216 
C 378 1216 211 1164 211 927 
C 211 335 787 -128 1466 -128 
C 2176 -128 2720 432 2720 1087 
C 2720 1718 2208 2176 1600 2246 
C 2086 2347 2554 2776 2554 3353 
C 2554 3856 2048 4224 1472 4224 
C 890 4224 378 3862 378 3347 
C 378 3123 544 3084 627 3084 
C 762 3084 877 3167 877 3334 
C 877 3500 762 3584 627 3584 
C 602 3584 570 3584 544 3571 
C 730 3999 1235 4076 1459 4076 
C 1683 4076 2106 3966 2106 3347 
C 2106 3167 2080 2851 1862 2574 
C 1670 2329 1453 2316 1242 2297 
C 1210 2297 1062 2284 1037 2284 
C 992 2278 966 2272 966 2227 
C 966 2182 973 2176 1101 2176 
L 1414 2176 
z
" transform="scale(0.015625)"/>
       </defs>
       <use xlink:href="#CMR17-33" transform="scale(0.996264)"/>
       <use xlink:href="#CMR17-30" transform="translate(45.690477 0) scale(0.996264)"/>
       <use xlink:href="#CMR17-30" transform="translate(91.380954 0) scale(0.996264)"/>
       <use xlink:href="#CMR17-30" transform="translate(137.071431 0) scale(0.996264)"/>
      </g>
     </g>
    </g>
    <g id="xtick_5">
     <g id="line2d_5">
      <g>
       <use xlink:href="#m3f5090217a" x="344.321576" y="228.96" style="stroke: #000000; stroke-width: 0.8"/>
      </g>
     </g>
     <g id="text_5">
      <!-- $\mathdefault{4000}$ -->
      <g transform="translate(334.358906 243.05832) scale(0.1 -0.1)">
       <defs>
        <path id="CMR17-34" d="M 2150 4147 
C 2150 4281 2144 4288 2029 4288 
L 128 1254 
L 128 1088 
L 1779 1088 
L 1779 460 
C 1779 230 1766 166 1318 166 
L 1197 166 
L 1197 0 
C 1402 12 1747 12 1965 12 
C 2182 12 2528 12 2733 0 
L 2733 166 
L 2611 166 
C 2163 166 2150 230 2150 460 
L 2150 1088 
L 2803 1088 
L 2803 1254 
L 2150 1254 
L 2150 4147 
z
M 1798 3723 
L 1798 1254 
L 256 1254 
L 1798 3723 
z
" transform="scale(0.015625)"/>
       </defs>
       <use xlink:href="#CMR17-34" transform="scale(0.996264)"/>
       <use xlink:href="#CMR17-30" transform="translate(45.690477 0) scale(0.996264)"/>
       <use xlink:href="#CMR17-30" transform="translate(91.380954 0) scale(0.996264)"/>
       <use xlink:href="#CMR17-30" transform="translate(137.071431 0) scale(0.996264)"/>
      </g>
     </g>
    </g>
    <g id="text_6">
     <!-- Iteration -->
     <g transform="translate(187.019968 256.278627) scale(0.1 -0.1)">
      <defs>
       <path id="NimbusSanL-Regu-49" d="M 1242 4672 
L 640 4672 
L 640 0 
L 1242 0 
L 1242 4672 
z
" transform="scale(0.015625)"/>
       <path id="NimbusSanL-Regu-74" d="M 1626 3328 
L 1075 3328 
L 1075 4249 
L 544 4249 
L 544 3328 
L 90 3328 
L 90 2892 
L 544 2892 
L 544 402 
C 544 64 774 -128 1190 -128 
C 1318 -128 1446 -116 1626 -84 
L 1626 364 
C 1555 345 1472 339 1370 339 
C 1139 339 1075 402 1075 634 
L 1075 2892 
L 1626 2892 
L 1626 3328 
z
" transform="scale(0.015625)"/>
       <path id="NimbusSanL-Regu-65" d="M 3283 1484 
C 3283 1998 3245 2311 3149 2565 
C 2931 3123 2419 3456 1792 3456 
C 858 3456 256 2734 256 1619 
C 256 545 838 -128 1779 -128 
C 2547 -128 3078 307 3213 1018 
L 2675 1018 
C 2528 588 2227 364 1798 364 
C 1459 364 1171 514 992 787 
C 864 974 819 1161 813 1484 
L 3283 1484 
z
M 826 1920 
C 870 2552 1248 2963 1786 2963 
C 2310 2963 2714 2519 2714 1959 
C 2714 1946 2714 1933 2707 1920 
L 826 1920 
z
" transform="scale(0.015625)"/>
       <path id="NimbusSanL-Regu-72" d="M 442 3328 
L 442 0 
L 979 0 
L 979 1727 
C 979 2203 1101 2514 1357 2698 
C 1523 2819 1683 2857 2054 2863 
L 2054 3404 
C 1965 3449 1920 3456 1850 3456 
C 1504 3456 1242 3251 934 2750 
L 934 3328 
L 442 3328 
z
" transform="scale(0.015625)"/>
       <path id="NimbusSanL-Regu-61" d="M 3424 332 
C 3366 320 3341 320 3309 320 
C 3123 320 3021 415 3021 581 
L 3021 2542 
C 3021 3135 2586 3456 1760 3456 
C 1274 3456 870 3315 646 3065 
C 493 2893 429 2702 416 2370 
L 954 2370 
C 998 2778 1242 2963 1741 2963 
C 2221 2963 2490 2784 2490 2466 
L 2490 2326 
C 2490 2103 2355 2007 1933 1956 
C 1178 1861 1062 1835 858 1753 
C 467 1593 269 1294 269 861 
C 269 256 691 -128 1370 -128 
C 1792 -128 2131 19 2509 364 
C 2547 25 2714 -128 3059 -128 
C 3168 -128 3251 -116 3424 -71 
L 3424 332 
z
M 2490 1071 
C 2490 893 2438 785 2278 638 
C 2061 441 1798 339 1485 339 
C 1069 339 826 536 826 874 
C 826 1224 1062 1402 1632 1485 
C 2195 1562 2310 1587 2490 1670 
L 2490 1071 
z
" transform="scale(0.015625)"/>
       <path id="NimbusSanL-Regu-69" d="M 960 3358 
L 429 3358 
L 429 0 
L 960 0 
L 960 3358 
z
M 960 4672 
L 422 4672 
L 422 3999 
L 960 3999 
L 960 4672 
z
" transform="scale(0.015625)"/>
       <path id="NimbusSanL-Regu-6f" d="M 1741 3456 
C 800 3456 230 2784 230 1663 
C 230 543 794 -128 1747 -128 
C 2688 -128 3264 543 3264 1638 
C 3264 2791 2707 3456 1741 3456 
z
M 1747 2963 
C 2349 2963 2707 2472 2707 1644 
C 2707 861 2336 364 1747 364 
C 1152 364 787 855 787 1663 
C 787 2466 1152 2963 1747 2963 
z
" transform="scale(0.015625)"/>
       <path id="NimbusSanL-Regu-6e" d="M 448 3328 
L 448 0 
L 986 0 
L 986 1835 
C 986 2539 1344 2988 1894 2988 
C 2317 2988 2586 2732 2586 2328 
L 2586 0 
L 3117 0 
L 3117 2539 
C 3117 3097 2701 3456 2054 3456 
C 1555 3456 1235 3263 941 2796 
L 941 3328 
L 448 3328 
z
" transform="scale(0.015625)"/>
      </defs>
      <use xlink:href="#NimbusSanL-Regu-49" transform="scale(0.996264)"/>
      <use xlink:href="#NimbusSanL-Regu-74" transform="translate(27.69517 0) scale(0.996264)"/>
      <use xlink:href="#NimbusSanL-Regu-65" transform="translate(55.390339 0) scale(0.996264)"/>
      <use xlink:href="#NimbusSanL-Regu-72" transform="translate(110.782016 0) scale(0.996264)"/>
      <use xlink:href="#NimbusSanL-Regu-61" transform="translate(142.961149 0) scale(0.996264)"/>
      <use xlink:href="#NimbusSanL-Regu-74" transform="translate(198.352826 0) scale(0.996264)"/>
      <use xlink:href="#NimbusSanL-Regu-69" transform="translate(226.047996 0) scale(0.996264)"/>
      <use xlink:href="#NimbusSanL-Regu-6f" transform="translate(248.16478 0) scale(0.996264)"/>
      <use xlink:href="#NimbusSanL-Regu-6e" transform="translate(303.556457 0) scale(0.996264)"/>
     </g>
    </g>
   </g>
   <g id="matplotlib.axis_2">
    <g id="ytick_1">
     <g id="line2d_6">
      <defs>
       <path id="m9e51df8815" d="M 0 0 
L -3.5 0 
" style="stroke: #000000; stroke-width: 0.8"/>
      </defs>
      <g>
       <use xlink:href="#m9e51df8815" x="37.567344" y="219.535327" style="stroke: #000000; stroke-width: 0.8"/>
      </g>
     </g>
     <g id="text_7">
      <!-- $\mathdefault{0}$ -->
      <g transform="translate(25.586009 223.084487) scale(0.1 -0.1)">
       <use xlink:href="#CMR17-30" transform="scale(0.996264)"/>
      </g>
     </g>
    </g>
    <g id="ytick_2">
     <g id="line2d_7">
      <g>
       <use xlink:href="#m9e51df8815" x="37.567344" y="186.768992" style="stroke: #000000; stroke-width: 0.8"/>
      </g>
     </g>
     <g id="text_8">
      <!-- $\mathdefault{5}$ -->
      <g transform="translate(25.586009 190.318152) scale(0.1 -0.1)">
       <defs>
        <path id="CMR17-35" d="M 730 3750 
C 794 3724 1056 3641 1325 3641 
C 1920 3641 2246 3961 2432 4140 
C 2432 4191 2432 4224 2394 4224 
C 2387 4224 2374 4224 2323 4198 
C 2099 4102 1837 4032 1517 4032 
C 1325 4032 1037 4055 723 4191 
C 653 4224 640 4224 634 4224 
C 602 4224 595 4217 595 4090 
L 595 2231 
C 595 2113 595 2080 659 2080 
C 691 2080 704 2093 736 2139 
C 941 2435 1222 2560 1542 2560 
C 1766 2560 2246 2415 2246 1293 
C 2246 1087 2246 716 2054 422 
C 1894 159 1645 25 1370 25 
C 947 25 518 319 403 812 
C 429 806 480 793 506 793 
C 589 793 749 838 749 1036 
C 749 1209 627 1280 506 1280 
C 358 1280 262 1190 262 1011 
C 262 454 704 -128 1382 -128 
C 2042 -128 2669 441 2669 1267 
C 2669 2054 2170 2662 1549 2662 
C 1222 2662 947 2540 730 2304 
L 730 3750 
z
" transform="scale(0.015625)"/>
       </defs>
       <use xlink:href="#CMR17-35" transform="scale(0.996264)"/>
      </g>
     </g>
    </g>
    <g id="ytick_3">
     <g id="line2d_8">
      <g>
       <use xlink:href="#m9e51df8815" x="37.567344" y="154.002658" style="stroke: #000000; stroke-width: 0.8"/>
      </g>
     </g>
     <g id="text_9">
      <!-- $\mathdefault{10}$ -->
      <g transform="translate(20.604674 157.551818) scale(0.1 -0.1)">
       <use xlink:href="#CMR17-31" transform="scale(0.996264)"/>
       <use xlink:href="#CMR17-30" transform="translate(45.690477 0) scale(0.996264)"/>
      </g>
     </g>
    </g>
    <g id="ytick_4">
     <g id="line2d_9">
      <g>
       <use xlink:href="#m9e51df8815" x="37.567344" y="121.236323" style="stroke: #000000; stroke-width: 0.8"/>
      </g>
     </g>
     <g id="text_10">
      <!-- $\mathdefault{15}$ -->
      <g transform="translate(20.604674 124.785483) scale(0.1 -0.1)">
       <use xlink:href="#CMR17-31" transform="scale(0.996264)"/>
       <use xlink:href="#CMR17-35" transform="translate(45.690477 0) scale(0.996264)"/>
      </g>
     </g>
    </g>
    <g id="ytick_5">
     <g id="line2d_10">
      <g>
       <use xlink:href="#m9e51df8815" x="37.567344" y="88.469989" style="stroke: #000000; stroke-width: 0.8"/>
      </g>
     </g>
     <g id="text_11">
      <!-- $\mathdefault{20}$ -->
      <g transform="translate(20.604674 92.019149) scale(0.1 -0.1)">
       <use xlink:href="#CMR17-32" transform="scale(0.996264)"/>
       <use xlink:href="#CMR17-30" transform="translate(45.690477 0) scale(0.996264)"/>
      </g>
     </g>
    </g>
    <g id="ytick_6">
     <g id="line2d_11">
      <g>
       <use xlink:href="#m9e51df8815" x="37.567344" y="55.703654" style="stroke: #000000; stroke-width: 0.8"/>
      </g>
     </g>
     <g id="text_12">
      <!-- $\mathdefault{25}$ -->
      <g transform="translate(20.604674 59.252814) scale(0.1 -0.1)">
       <use xlink:href="#CMR17-32" transform="scale(0.996264)"/>
       <use xlink:href="#CMR17-35" transform="translate(45.690477 0) scale(0.996264)"/>
      </g>
     </g>
    </g>
    <g id="ytick_7">
     <g id="line2d_12">
      <g>
       <use xlink:href="#m9e51df8815" x="37.567344" y="22.93732" style="stroke: #000000; stroke-width: 0.8"/>
      </g>
     </g>
     <g id="text_13">
      <!-- $\mathdefault{30}$ -->
      <g transform="translate(20.604674 26.48648) scale(0.1 -0.1)">
       <use xlink:href="#CMR17-33" transform="scale(0.996264)"/>
       <use xlink:href="#CMR17-30" transform="translate(45.690477 0) scale(0.996264)"/>
      </g>
     </g>
    </g>
    <g id="text_14">
     <!-- Average CFL - Blade_1 -->
     <g transform="translate(14.482687 168.77932) rotate(-90) scale(0.1 -0.1)">
      <defs>
       <path id="NimbusSanL-Regu-41" d="M 3034 1408 
L 3514 0 
L 4179 0 
L 2541 4672 
L 1773 4672 
L 109 0 
L 742 0 
L 1235 1408 
L 3034 1408 
z
M 2867 1907 
L 1382 1907 
L 2150 4032 
L 2867 1907 
z
" transform="scale(0.015625)"/>
       <path id="NimbusSanL-Regu-76" d="M 1824 0 
L 3110 3328 
L 2509 3328 
L 1562 629 
L 666 3328 
L 64 3328 
L 1242 0 
L 1824 0 
z
" transform="scale(0.015625)"/>
       <path id="NimbusSanL-Regu-67" d="M 2637 3359 
L 2637 2873 
C 2368 3270 2042 3456 1613 3456 
C 762 3456 186 2714 186 1632 
C 186 1084 333 638 608 320 
C 858 38 1216 -128 1568 -128 
C 1990 -128 2285 51 2586 473 
L 2586 300 
C 2586 -155 2528 -441 2394 -634 
C 2253 -841 1978 -960 1651 -960 
C 1408 -960 1190 -894 1043 -774 
C 922 -674 870 -581 838 -375 
L 294 -375 
C 352 -1031 845 -1408 1632 -1408 
C 2131 -1408 2560 -1248 2778 -980 
C 3034 -661 3130 -222 3130 568 
L 3130 3359 
L 2637 3359 
z
M 1670 2963 
C 2246 2963 2586 2479 2586 1644 
C 2586 848 2240 364 1677 364 
C 1094 364 742 855 742 1663 
C 742 2466 1101 2963 1670 2963 
z
" transform="scale(0.015625)"/>
       <path id="NimbusSanL-Regu-43" d="M 4237 3219 
C 4051 4236 3462 4736 2438 4736 
C 1811 4736 1306 4537 960 4154 
C 538 3696 307 3035 307 2284 
C 307 1522 544 867 986 415 
C 1344 44 1805 -128 2413 -128 
C 3552 -128 4192 485 4333 1712 
L 3718 1712 
C 3667 1394 3603 1178 3507 994 
C 3315 612 2918 396 2419 396 
C 1491 396 902 1134 902 2291 
C 902 3480 1466 4211 2368 4211 
C 2746 4211 3098 4096 3290 3918 
C 3462 3759 3558 3562 3629 3219 
L 4237 3219 
z
" transform="scale(0.015625)"/>
       <path id="NimbusSanL-Regu-46" d="M 1171 2112 
L 3398 2112 
L 3398 2636 
L 1171 2636 
L 1171 4147 
L 3706 4147 
L 3706 4672 
L 576 4672 
L 576 0 
L 1171 0 
L 1171 2112 
z
" transform="scale(0.015625)"/>
       <path id="NimbusSanL-Regu-4c" d="M 1107 4672 
L 512 4672 
L 512 0 
L 3411 0 
L 3411 524 
L 1107 524 
L 1107 4672 
z
" transform="scale(0.015625)"/>
       <path id="NimbusSanL-Regu-2d" d="M 1818 1996 
L 294 1996 
L 294 1536 
L 1818 1536 
L 1818 1996 
z
" transform="scale(0.015625)"/>
       <path id="NimbusSanL-Regu-42" d="M 506 0 
L 2611 0 
C 3053 0 3379 121 3629 390 
C 3859 632 3987 961 3987 1321 
C 3987 1878 3731 2214 3136 2444 
C 3558 2643 3782 2994 3782 3476 
C 3782 3821 3654 4127 3411 4345 
C 3168 4569 2848 4672 2400 4672 
L 506 4672 
L 506 0 
z
M 1101 2636 
L 1101 4147 
L 2253 4147 
C 2586 4147 2771 4101 2931 3977 
C 3098 3847 3187 3652 3187 3391 
C 3187 3138 3098 2936 2931 2806 
C 2771 2682 2586 2636 2253 2636 
L 1101 2636 
z
M 1101 524 
L 1101 2112 
L 2554 2112 
C 2842 2112 3034 2042 3174 1890 
C 3315 1745 3392 1542 3392 1315 
C 3392 1093 3315 891 3174 746 
C 3034 594 2842 524 2554 524 
L 1101 524 
z
" transform="scale(0.015625)"/>
       <path id="NimbusSanL-Regu-6c" d="M 973 4672 
L 435 4672 
L 435 0 
L 973 0 
L 973 4672 
z
" transform="scale(0.015625)"/>
       <path id="NimbusSanL-Regu-64" d="M 3168 4672 
L 2637 4672 
L 2637 2937 
C 2413 3276 2054 3456 1606 3456 
C 736 3456 166 2759 166 1695 
C 166 568 723 -128 1626 -128 
C 2086 -128 2406 44 2694 460 
L 2694 19 
L 3168 19 
L 3168 4672 
z
M 1696 2956 
C 2272 2956 2637 2447 2637 1651 
C 2637 880 2266 371 1702 371 
C 1114 371 723 887 723 1663 
C 723 2440 1114 2956 1696 2956 
z
" transform="scale(0.015625)"/>
       <path id="NimbusSanL-Regu-31" d="M 1658 3232 
L 1658 0 
L 2221 0 
L 2221 4537 
L 1850 4537 
C 1651 3840 1523 3744 653 3635 
L 653 3232 
L 1658 3232 
z
" transform="scale(0.015625)"/>
      </defs>
      <use xlink:href="#NimbusSanL-Regu-41" transform="scale(0.996264)"/>
      <use xlink:href="#NimbusSanL-Regu-76" transform="translate(62.465918 0) scale(0.996264)"/>
      <use xlink:href="#NimbusSanL-Regu-65" transform="translate(109.788488 0) scale(0.996264)"/>
      <use xlink:href="#NimbusSanL-Regu-72" transform="translate(165.180165 0) scale(0.996264)"/>
      <use xlink:href="#NimbusSanL-Regu-61" transform="translate(197.359298 0) scale(0.996264)"/>
      <use xlink:href="#NimbusSanL-Regu-67" transform="translate(252.750975 0) scale(0.996264)"/>
      <use xlink:href="#NimbusSanL-Regu-65" transform="translate(308.142652 0) scale(0.996264)"/>
      <use xlink:href="#NimbusSanL-Regu-43" transform="translate(391.229499 0) scale(0.996264)"/>
      <use xlink:href="#NimbusSanL-Regu-46" transform="translate(463.159484 0) scale(0.996264)"/>
      <use xlink:href="#NimbusSanL-Regu-4c" transform="translate(524.031114 0) scale(0.996264)"/>
      <use xlink:href="#NimbusSanL-Regu-2d" transform="translate(607.117961 0) scale(0.996264)"/>
      <use xlink:href="#NimbusSanL-Regu-42" transform="translate(667.98836 0) scale(0.996264)"/>
      <use xlink:href="#NimbusSanL-Regu-6c" transform="translate(734.438391 0) scale(0.996264)"/>
      <use xlink:href="#NimbusSanL-Regu-61" transform="translate(756.555176 0) scale(0.996264)"/>
      <use xlink:href="#NimbusSanL-Regu-64" transform="translate(811.946853 0) scale(0.996264)"/>
      <use xlink:href="#NimbusSanL-Regu-65" transform="translate(867.33853 0) scale(0.996264)"/>
      <use xlink:href="#NimbusSanL-Regu-31" transform="translate(958.595772 0) scale(0.996264)"/>
      <path d="M 928.707548 0 
L 958.595772 0 
L 958.595772 0.3985 
L 928.707548 0.3985 
L 928.707548 0 
z
"/>
     </g>
    </g>
   </g>
   <g id="line2d_13">
    <path d="M 52.785526 126.099317 
L 52.931294 86.562335 
L 53.004178 206.238028 
L 53.077062 203.578568 
L 53.368598 186.447391 
L 53.660134 150.924184 
L 53.95167 77.370791 
L 54.024554 205.318873 
L 54.097438 202.475582 
L 54.388974 184.160241 
L 54.680511 146.181549 
L 54.972047 67.512467 
L 55.044931 204.333041 
L 55.117815 201.292584 
L 55.409351 181.707175 
L 55.700887 141.09487 
L 56.065307 57.026309 
L 56.138191 203.284425 
L 56.211075 200.034245 
L 56.502611 179.097883 
L 56.794147 135.684243 
L 57.012799 74.669843 
L 57.085683 205.048778 
L 57.158567 202.151469 
L 57.450103 183.488159 
L 57.741639 144.797545 
L 58.033175 64.951852 
L 58.106059 204.076979 
L 58.178943 200.98531 
L 58.470479 181.070012 
L 58.762015 139.837219 
L 59.199319 54.514718 
L 59.272203 203.033266 
L 59.345087 199.732854 
L 59.636623 178.472918 
L 59.928159 134.409381 
L 60.292579 72.57594 
L 60.365464 72.57594 
L 60.438348 204.839388 
L 60.511232 201.9002 
L 60.802768 182.968202 
L 61.094304 143.74612 
L 61.38584 62.533505 
L 61.458724 203.835145 
L 61.531608 200.695108 
L 61.823144 180.468249 
L 62.11468 138.535141 
L 62.333332 79.598295 
L 62.406216 205.541624 
L 62.4791 202.742883 
L 62.770636 184.714515 
L 63.062172 147.334481 
L 63.426592 69.914949 
L 63.499476 204.573289 
L 63.57236 201.580881 
L 63.863896 182.304989 
L 64.155432 142.340575 
L 64.446968 59.478827 
L 64.519852 203.529677 
L 64.592736 200.328547 
L 64.884272 179.708148 
L 65.175808 136.949689 
L 65.39446 76.827344 
L 65.467344 205.264528 
L 65.540228 202.410369 
L 65.831764 184.025014 
L 66.1233 145.901142 
L 66.341953 92.295456 
L 66.414837 206.81134 
L 66.487721 204.266542 
L 66.779257 187.873975 
L 67.070793 153.882348 
L 67.362329 83.403654 
L 67.435213 56.188687 
L 67.508097 203.200663 
L 67.580981 199.93373 
L 67.872517 178.889456 
L 68.164053 135.252049 
L 68.382705 73.899536 
L 68.455589 204.971748 
L 68.528473 202.059032 
L 68.820009 183.296482 
L 69.111545 144.390458 
L 69.330197 89.684993 
L 69.403081 206.550293 
L 69.475965 203.953287 
L 69.767501 187.224408 
L 70.059037 152.535407 
L 70.350573 80.60622 
L 70.423457 52.832568 
L 70.496341 202.865051 
L 70.569225 199.530996 
L 70.860761 178.054346 
L 71.152297 133.520365 
L 71.370949 70.913098 
L 71.443833 204.673104 
L 71.516717 201.700659 
L 71.808253 182.55336 
L 72.09979 142.849521 
L 72.609978 28.716581 
L 72.682862 200.453452 
L 72.755746 196.637077 
L 73.047282 172.053517 
L 73.338818 121.077045 
L 73.55747 49.399416 
L 73.630354 202.521736 
L 73.703238 199.119017 
L 73.994774 177.200068 
L 74.28631 131.748934 
L 74.723614 37.501463 
L 74.796498 201.33194 
L 74.869382 197.691263 
L 75.160918 174.239476 
L 75.452454 125.609851 
L 75.671106 57.232105 
L 75.74399 203.305005 
L 75.816874 200.05894 
L 76.10841 179.149091 
L 76.399946 135.790429 
L 76.691482 45.881907 
L 76.764366 202.169985 
L 76.83725 198.696916 
L 77.128786 176.324799 
L 77.420322 129.933977 
L 77.638974 64.704194 
L 77.711858 204.052213 
L 77.784743 200.955591 
L 78.076279 181.008386 
L 78.367815 139.645863 
L 78.659351 53.876535 
L 78.732235 202.969447 
L 78.805119 199.656272 
L 79.096655 178.314118 
L 79.388191 134.059029 
L 79.679727 42.291675 
L 79.752611 201.810962 
L 79.825495 198.266088 
L 80.117031 175.431434 
L 80.408567 128.081496 
L 80.627219 61.503107 
L 80.700103 203.732105 
L 80.772987 200.57146 
L 81.064523 180.211853 
L 81.356059 137.994172 
L 81.647595 50.451589 
L 81.720479 202.626953 
L 81.793363 199.245278 
L 82.084899 177.461882 
L 82.376435 132.291832 
L 82.740855 68.778568 
L 82.813739 68.778568 
L 82.886623 38.627216 
L 82.959507 201.444516 
L 83.032391 197.826353 
L 83.323927 174.5196 
L 83.615464 126.190715 
L 83.834116 58.235838 
L 83.907 203.405378 
L 83.979884 200.179388 
L 84.27142 179.398852 
L 84.562956 136.308333 
L 84.927376 46.955833 
L 85.00026 202.277377 
L 85.073144 198.825787 
L 85.36468 176.592026 
L 85.656216 130.488099 
L 85.874868 65.661717 
L 85.947752 204.147966 
L 86.020636 201.070494 
L 86.312172 181.246649 
L 86.603708 140.139924 
L 86.895244 54.901019 
L 86.968128 203.071896 
L 87.041012 199.77921 
L 87.332548 178.569043 
L 87.624084 134.58764 
L 88.061388 43.390471 
L 88.134272 201.920841 
L 88.207156 198.397944 
L 88.498692 175.70485 
L 88.790228 128.64845 
L 89.00888 62.482804 
L 89.081764 203.830074 
L 89.154648 200.689024 
L 89.446185 180.455633 
L 89.737721 138.499675 
L 90.029257 51.499798 
L 90.102141 202.731774 
L 90.175025 199.371063 
L 90.466561 177.72271 
L 90.758097 132.832685 
L 91.049633 39.748729 
L 91.122517 201.556667 
L 91.195401 197.960935 
L 91.486937 174.798668 
L 91.778473 126.769391 
L 92.142893 59.23579 
L 92.434429 59.23579 
L 92.507313 203.505373 
L 92.580197 200.299382 
L 92.871733 179.647672 
L 93.163269 136.824287 
L 93.600573 48.025714 
L 93.673457 202.384365 
L 93.746341 198.954173 
L 94.037877 176.858247 
L 94.329413 131.040134 
L 94.548065 66.615634 
L 94.620949 204.243357 
L 94.693833 201.184964 
L 94.985369 181.484014 
L 95.276906 140.632124 
L 95.641326 55.921645 
L 95.71421 203.173959 
L 95.787094 199.901685 
L 96.07863 178.823007 
L 96.370166 135.114261 
L 96.588818 73.655725 
L 96.661702 204.947367 
L 96.734586 202.029774 
L 97.026122 183.235814 
L 97.317658 144.264656 
L 97.609194 63.454065 
L 97.682078 203.9272 
L 97.754962 200.805575 
L 98.046498 180.697314 
L 98.338034 139.000824 
L 98.556686 80.371706 
L 98.62957 205.618965 
L 98.702454 202.835692 
L 98.99399 184.906965 
L 99.285526 147.729955 
L 99.577062 70.639708 
L 99.649946 204.645765 
L 99.72283 201.667852 
L 100.014366 182.485332 
L 100.305902 142.708458 
L 100.670322 86.778497 
L 100.743206 86.778497 
L 100.81609 60.227131 
L 100.888974 203.604507 
L 100.961858 200.418343 
L 101.253395 179.89435 
L 101.544931 137.335797 
L 101.763583 77.49454 
L 101.836467 205.331248 
L 101.909351 202.490432 
L 102.200887 184.191034 
L 102.492423 146.2454 
L 102.783959 67.561336 
L 102.856843 204.337928 
L 102.929727 201.298448 
L 103.221263 181.719335 
L 103.512799 141.120085 
L 103.877219 56.933482 
L 103.950103 203.275142 
L 104.022987 200.023105 
L 104.314523 179.074785 
L 104.606059 135.636347 
L 104.824711 74.557889 
L 104.897595 205.037583 
L 104.970479 202.138034 
L 105.262015 183.460301 
L 105.553551 144.730153 
L 105.845087 64.419319 
L 105.917971 204.023726 
L 105.990855 200.921406 
L 106.282391 180.9375 
L 106.573927 139.498874 
L 106.792579 81.232336 
L 106.865464 205.705028 
L 106.938348 202.938968 
L 107.229884 185.121117 
L 107.52142 148.174021 
L 107.812956 71.560524 
L 107.88584 204.737846 
L 107.958724 201.77835 
L 108.25026 182.714461 
L 108.541796 143.183579 
L 108.906216 61.212342 
L 108.9791 203.703028 
L 109.051984 200.536569 
L 109.34352 180.139502 
L 109.635056 137.844144 
L 109.853708 78.372963 
L 109.926592 205.41909 
L 109.999476 202.595843 
L 110.291012 184.409613 
L 110.582548 146.698648 
L 110.874084 68.501189 
L 110.946968 204.431913 
L 111.019852 201.41123 
L 111.311388 181.9532 
L 111.602924 141.605029 
L 111.89446 57.939062 
L 111.967344 203.3757 
L 112.040228 200.143775 
L 112.331764 179.325005 
L 112.6233 136.155203 
L 112.987721 46.638303 
L 113.060605 202.245624 
L 113.133489 198.787684 
L 113.425025 176.513015 
L 113.716561 130.32426 
L 113.935213 65.378604 
L 114.008097 204.119654 
L 114.080981 201.03652 
L 114.372517 181.176201 
L 114.664053 139.993844 
L 114.955589 54.598108 
L 115.028473 203.041605 
L 115.101357 199.74286 
L 115.392893 178.493669 
L 115.684429 134.431344 
L 116.121733 43.063709 
L 116.194617 201.888165 
L 116.267501 198.358733 
L 116.559037 175.623541 
L 116.850573 128.479848 
L 117.069225 62.19146 
L 117.142109 203.80094 
L 117.214993 200.654063 
L 117.506529 180.383138 
L 117.798065 138.349347 
L 118.089601 51.18808 
L 118.162485 202.700602 
L 118.235369 199.333657 
L 118.526906 177.645145 
L 118.818442 132.671845 
L 119.037094 69.435231 
L 119.109978 204.525317 
L 119.182862 201.523315 
L 119.474398 182.18562 
L 119.765934 142.086974 
L 120.05747 58.938423 
L 120.130354 203.475636 
L 120.203238 200.263698 
L 120.494774 179.573678 
L 120.78631 136.670852 
L 121.004962 76.345514 
L 121.077846 205.216345 
L 121.15073 202.352549 
L 121.442266 183.905119 
L 121.733802 145.652528 
L 122.025338 66.342007 
L 122.098222 204.215995 
L 122.171106 201.152128 
L 122.462642 181.415927 
L 122.754178 140.490939 
L 123.118598 82.946624 
L 123.483018 82.946624 
L 123.555902 205.876456 
L 123.628786 203.144682 
L 123.920322 185.547687 
L 124.211858 149.058556 
L 124.503395 73.396847 
L 124.576279 204.921479 
L 124.649163 201.998709 
L 124.940699 183.171397 
L 125.232235 144.131081 
L 125.450887 89.237119 
L 125.523771 206.505506 
L 125.596655 203.899542 
L 125.888191 187.112963 
L 126.179727 152.304314 
L 126.471263 80.125391 
L 126.544147 205.594333 
L 126.617031 202.806134 
L 126.689915 218.88 
L 126.762799 218.748935 
L 127.054335 217.904664 
L 127.345871 216.153985 
L 127.637407 212.523776 
L 127.928943 204.996176 
L 128.220479 189.386944 
L 128.512015 157.023018 
L 128.803551 89.929974 
L 128.876435 64.0389 
L 128.949319 203.985684 
L 129.022203 200.875756 
L 129.313739 180.84284 
L 129.605275 139.302586 
L 129.969695 53.265531 
L 130.042579 202.908347 
L 130.115464 199.582951 
L 130.407 178.162081 
L 130.698536 133.743764 
L 130.917188 71.319503 
L 130.990072 204.713744 
L 131.062956 201.749428 
L 131.354492 182.654487 
L 131.646028 143.059217 
L 131.937564 60.991607 
L 132.010448 203.680955 
L 132.083332 200.51008 
L 132.374868 180.084576 
L 132.666404 137.73025 
L 132.95794 49.940394 
L 133.030824 202.575833 
L 133.103708 199.183935 
L 133.395244 177.33468 
L 133.68678 132.028067 
L 133.905432 68.322781 
L 133.978316 204.414072 
L 134.0512 201.389821 
L 134.342736 181.908807 
L 134.634272 141.512975 
L 134.925808 57.748177 
L 134.998692 203.356612 
L 135.071576 200.120869 
L 135.363112 179.277507 
L 135.654648 136.056711 
L 135.946185 46.43407 
L 136.019069 202.225201 
L 136.091953 198.763176 
L 136.383489 176.462195 
L 136.675025 130.21888 
L 137.039445 34.328743 
L 137.112329 201.014668 
L 137.185213 197.310537 
L 137.476749 173.450002 
L 137.768285 123.972798 
L 137.986937 54.403277 
L 138.059821 203.022122 
L 138.132705 199.719481 
L 138.424241 178.445188 
L 138.715777 134.330816 
L 139.080197 42.855253 
L 139.153081 201.867319 
L 139.225965 198.333718 
L 139.517501 175.571671 
L 139.809037 128.37229 
L 140.100573 30.499653 
L 140.173457 200.631759 
L 140.246341 196.851046 
L 140.537877 172.497202 
L 140.829413 121.997071 
L 141.193833 17.28 
L 141.266717 199.309794 
L 141.339601 195.264687 
L 141.631137 169.207729 
L 141.922674 115.176021 
L 142.287094 39.202446 
L 142.57863 39.202446 
L 142.651514 201.502039 
L 142.724398 197.895381 
L 143.015934 174.662735 
L 143.30747 126.487521 
L 143.67189 58.748719 
L 144.182078 58.748719 
L 144.254962 26.591397 
L 144.327846 200.240934 
L 144.40073 196.382055 
L 144.692266 171.524703 
L 144.983802 119.980497 
L 145.202454 47.504581 
L 145.275338 202.332252 
L 145.348222 198.891637 
L 145.639758 176.728572 
L 145.931294 130.771241 
L 146.149946 66.150986 
L 146.22283 204.196893 
L 146.295714 201.129206 
L 146.58725 181.368394 
L 146.878786 140.392376 
L 147.170322 55.424504 
L 147.243206 203.124244 
L 147.31609 199.842028 
L 147.607627 178.699302 
L 147.899163 134.857747 
L 148.117815 73.212468 
L 148.190699 204.903041 
L 148.263583 201.976584 
L 148.555119 183.125517 
L 148.846655 144.035946 
L 149.138191 62.979811 
L 149.211075 203.879775 
L 149.283959 200.748665 
L 149.575495 180.579304 
L 149.867031 138.756119 
L 150.231451 52.031562 
L 150.304335 202.78495 
L 150.377219 199.434875 
L 150.668755 177.85503 
L 150.960291 133.107063 
L 151.178943 70.187287 
L 151.251827 204.600523 
L 151.324711 201.613562 
L 151.616247 182.372755 
L 151.907783 142.475019 
L 152.199319 59.743072 
L 152.272203 203.556101 
L 152.345087 200.360256 
L 152.636623 179.7739 
L 152.928159 137.086033 
L 153.292579 48.568472 
L 153.365464 202.438641 
L 153.438348 199.019304 
L 153.729884 176.993302 
L 154.02142 131.320185 
L 154.240072 67.099561 
L 154.312956 204.29175 
L 154.38584 201.243035 
L 154.677376 181.60443 
L 154.968912 140.88182 
L 155.260448 56.439415 
L 155.333332 203.225736 
L 155.406216 199.963817 
L 155.697752 178.951845 
L 155.989288 135.381419 
L 156.20794 74.117374 
L 156.280824 204.993531 
L 156.353708 202.085172 
L 156.645244 183.350687 
L 156.93678 144.502857 
L 157.228316 63.947998 
L 157.3012 203.976594 
L 157.374084 200.864847 
L 157.66562 180.82022 
L 157.957156 139.255682 
L 158.248692 53.067456 
L 158.321576 202.88854 
L 158.39446 199.559182 
L 158.685996 178.112794 
L 158.977532 133.641562 
L 159.196185 71.110901 
L 159.269069 204.692884 
L 159.341953 201.724396 
L 159.633489 182.60258 
L 159.925025 142.951583 
L 160.216561 60.731276 
L 160.289445 203.654922 
L 160.362329 200.478841 
L 160.653865 180.019797 
L 160.945401 137.595925 
L 161.164053 77.94404 
L 161.236937 205.376198 
L 161.309821 202.544372 
L 161.601357 184.302884 
L 161.892893 146.477333 
L 162.184429 68.042271 
L 162.257313 204.386021 
L 162.330197 201.35616 
L 162.621733 181.839007 
L 162.913269 141.368237 
L 163.277689 84.462596 
L 164.152297 84.462596 
L 164.225181 57.44805 
L 164.298065 203.326599 
L 164.370949 200.084854 
L 164.662485 179.202826 
L 164.954021 135.901852 
L 165.172674 75.016683 
L 165.245558 205.083462 
L 165.318442 202.193089 
L 165.609978 183.574464 
L 165.901514 144.966881 
L 166.19305 64.910197 
L 166.265934 204.072814 
L 166.338818 200.980311 
L 166.630354 181.059646 
L 166.92189 139.752156 
L 167.140542 81.670008 
L 167.213426 205.748795 
L 167.28631 202.991488 
L 167.577846 185.230024 
L 167.869382 148.399851 
L 168.160918 72.028803 
L 168.233802 204.784674 
L 168.306686 201.834544 
L 168.598222 182.830983 
L 168.889758 143.425201 
L 169.254178 61.713369 
L 169.327062 203.753131 
L 169.399946 200.596692 
L 169.691482 180.264173 
L 169.983018 138.102663 
L 170.20167 78.819684 
L 170.274554 205.463762 
L 170.347438 202.64945 
L 170.638974 184.520772 
L 170.930511 146.929146 
L 171.222047 68.97915 
L 171.294931 204.479709 
L 171.367815 201.468586 
L 171.659351 182.072132 
L 171.950887 141.851647 
L 172.315307 58.450448 
L 172.388191 203.426839 
L 172.461075 200.205141 
L 172.752611 179.452254 
L 173.044147 136.419067 
L 173.262799 75.91043 
L 173.335683 205.172837 
L 173.408567 202.300339 
L 173.700103 183.796856 
L 173.991639 145.428035 
L 174.283175 65.866446 
L 174.356059 204.168439 
L 174.428943 201.095061 
L 174.720479 181.297592 
L 175.012015 140.24556 
L 175.230667 82.522609 
L 175.303551 205.834055 
L 175.376435 203.093801 
L 175.667971 185.442178 
L 175.959507 148.839774 
L 176.323927 72.941029 
L 176.396811 204.875897 
L 176.469695 201.944011 
L 176.761232 183.057974 
L 177.052768 143.895889 
L 177.490072 62.689388 
L 177.562956 203.850733 
L 177.63584 200.713814 
L 177.927376 180.507038 
L 178.218912 138.606268 
L 178.437564 79.689913 
L 178.510448 205.550785 
L 178.583332 202.753877 
L 178.874868 184.737313 
L 179.166404 147.378165 
L 179.530824 94.847751 
L 180.041012 94.847751 
L 180.113896 69.910236 
L 180.18678 204.572818 
L 180.259664 201.580316 
L 180.5512 182.303816 
L 180.842736 142.332066 
L 181.28004 59.446646 
L 181.352924 203.526459 
L 181.425808 200.324685 
L 181.717344 179.70014 
L 182.00888 136.933084 
L 182.227532 76.798651 
L 182.300416 205.261659 
L 182.3733 202.406926 
L 182.664837 184.017874 
L 182.956373 145.886337 
L 183.247909 66.816782 
L 183.320793 204.263472 
L 183.393677 201.209101 
L 183.685213 181.534066 
L 183.976749 140.735912 
L 184.195401 83.369938 
L 184.268285 205.918788 
L 184.341169 203.19548 
L 184.632705 185.653021 
L 184.924241 149.276977 
L 185.215777 73.847613 
L 185.288661 204.966555 
L 185.361545 202.052801 
L 185.653081 183.283561 
L 185.944617 144.363666 
L 186.381921 63.659372 
L 186.454805 203.947731 
L 186.527689 200.830212 
L 186.819225 180.748401 
L 187.110761 139.106758 
L 187.329413 80.554759 
L 187.402297 205.63727 
L 187.475181 202.857659 
L 187.766717 184.952514 
L 188.058253 147.824407 
L 188.34979 70.835563 
L 188.422674 204.66535 
L 188.495558 201.691355 
L 188.787094 182.534067 
L 189.07863 142.809515 
L 189.44305 86.953124 
L 190.244774 86.953124 
L 190.317658 60.436683 
L 190.390542 203.625462 
L 190.463426 200.443489 
L 190.754962 179.946493 
L 191.046498 137.443921 
L 191.26515 77.681378 
L 191.338034 205.349932 
L 191.410918 202.512853 
L 191.702454 184.237525 
L 191.99399 146.341805 
L 192.285526 67.76124 
L 192.35841 204.357918 
L 192.431294 201.322436 
L 192.72283 181.769077 
L 193.014366 141.223232 
L 193.233018 84.212026 
L 193.305902 206.002997 
L 193.378786 203.296531 
L 193.670322 185.862559 
L 193.961858 149.711476 
L 194.253395 74.74859 
L 194.326279 205.056653 
L 194.399163 202.160918 
L 194.690699 183.507753 
L 194.982235 144.828551 
L 195.346655 90.442018 
L 195.492423 90.442018 
L 195.565307 64.623356 
L 195.638191 204.04413 
L 195.711075 200.94589 
L 196.002611 180.988271 
L 196.294147 139.604153 
L 196.512799 81.414258 
L 196.585683 205.72322 
L 196.658567 202.960798 
L 196.950103 185.166385 
L 197.241639 148.267889 
L 197.533175 71.755168 
L 197.606059 204.757311 
L 197.678943 201.801708 
L 197.970479 182.762894 
L 198.262015 143.284011 
L 198.553551 61.420598 
L 198.626435 203.723854 
L 198.699319 200.561559 
L 198.990855 180.191322 
L 199.282391 137.951599 
L 199.501043 78.558646 
L 199.573927 205.437659 
L 199.646811 202.618125 
L 199.938348 184.455817 
L 200.229884 146.794456 
L 200.594304 68.699857 
L 200.667188 204.45178 
L 200.740072 201.43507 
L 201.031608 182.002635 
L 201.323144 141.707538 
L 201.541796 85.048907 
L 201.61468 206.086685 
L 201.687564 203.396956 
L 201.9791 186.070802 
L 202.270636 150.143288 
L 202.562172 75.643995 
L 202.635056 205.146194 
L 202.70794 202.268367 
L 202.999476 183.730559 
L 203.291012 145.29056 
L 203.582548 65.581379 
L 203.655432 204.139932 
L 203.728316 201.060853 
L 204.019852 181.226658 
L 204.311388 140.098471 
L 204.53004 82.268441 
L 204.602924 205.808638 
L 204.675808 203.0633 
L 204.967344 185.378933 
L 205.25888 148.708629 
L 205.550416 72.669085 
L 205.6233 204.848703 
L 205.696185 201.911378 
L 205.987721 182.990306 
L 206.279257 143.755572 
L 206.497909 88.587911 
L 206.570793 206.440585 
L 206.643677 203.821637 
L 206.935213 186.951419 
L 207.226749 151.969336 
L 207.518285 79.430489 
L 207.591169 205.524843 
L 207.664053 202.722746 
L 207.955589 184.67276 
L 208.247125 147.244308 
L 208.538661 69.63267 
L 208.611545 204.545061 
L 208.684429 201.547008 
L 208.975965 182.234749 
L 209.267501 142.188848 
L 209.486153 85.880612 
L 209.559037 206.169855 
L 209.631921 203.496761 
L 209.923457 186.277757 
L 210.214993 150.57243 
L 210.506529 76.533864 
L 210.579413 205.23518 
L 210.652297 202.375151 
L 210.943833 183.951987 
L 211.235369 145.749713 
L 211.454021 92.033786 
L 211.526906 206.785173 
L 211.59979 204.235142 
L 211.891326 187.808863 
L 212.182862 153.747332 
L 212.474398 83.117341 
L 212.547282 205.893528 
L 212.620166 203.165168 
L 212.911702 185.590166 
L 213.203238 149.146643 
L 213.494774 73.577351 
L 213.567658 204.939529 
L 213.640542 202.02037 
L 213.932078 183.216312 
L 214.223614 144.224217 
L 214.442266 89.39773 
L 214.51515 206.521567 
L 214.588034 203.918815 
L 214.87957 187.152928 
L 215.171106 152.387185 
L 215.462642 80.29694 
L 215.535526 205.611488 
L 215.60841 202.82672 
L 215.899946 184.88836 
L 216.191482 147.691378 
L 216.483018 70.559714 
L 216.555902 204.637765 
L 216.628786 201.658253 
L 216.920322 182.465427 
L 217.211858 142.667183 
L 217.576279 86.707174 
L 217.867815 86.707174 
L 217.940699 206.252511 
L 218.013583 203.595948 
L 218.305119 186.483432 
L 218.596655 150.998917 
L 218.888191 77.418228 
L 218.961075 205.323617 
L 219.033959 202.481275 
L 219.325495 184.172045 
L 219.617031 146.206025 
L 219.981451 92.822294 
L 220.054335 92.822294 
L 220.127219 67.479688 
L 220.200103 204.329763 
L 220.272987 201.28865 
L 220.564523 181.699018 
L 220.856059 141.077957 
L 221.074711 83.960992 
L 221.147595 205.977893 
L 221.220479 203.266406 
L 221.512015 185.800094 
L 221.803551 149.581948 
L 222.095087 74.48 
L 222.167971 205.029794 
L 222.240855 202.128687 
L 222.532391 183.44092 
L 222.823927 144.689964 
L 223.188348 64.335983 
L 223.261232 204.015392 
L 223.334116 200.911405 
L 223.625652 180.916764 
L 223.917188 139.455874 
L 224.13584 81.158033 
L 224.208724 205.697597 
L 224.281608 202.930051 
L 224.573144 185.102628 
L 224.86468 148.135682 
L 225.156216 71.481025 
L 225.2291 204.729896 
L 225.301984 201.76881 
L 225.59352 182.694679 
L 225.885056 143.142559 
L 226.249476 61.127283 
L 226.32236 203.694522 
L 226.395244 200.526361 
L 226.68678 180.118336 
L 226.978316 137.800256 
L 227.196968 78.297124 
L 227.269852 205.411506 
L 227.342736 202.586742 
L 227.634272 184.390742 
L 227.925808 146.659516 
L 228.217344 68.420046 
L 228.290228 204.423799 
L 228.363112 201.401493 
L 228.654648 181.933009 
L 228.946185 141.563161 
L 229.164837 84.799425 
L 229.237721 206.061736 
L 229.310605 203.367018 
L 229.602141 186.008723 
L 229.893677 150.014561 
L 230.185213 75.377066 
L 230.258097 205.119501 
L 230.330981 202.236335 
L 230.622517 183.664138 
L 230.914053 145.152831 
L 231.278473 65.295783 
L 231.351357 204.111372 
L 231.424241 201.026581 
L 231.715777 181.155593 
L 232.007313 139.95111 
L 232.444617 54.509495 
L 232.517501 203.032744 
L 232.590385 199.732227 
L 232.881921 178.471619 
L 233.173457 134.385622 
L 233.392109 72.396638 
L 233.464993 204.821458 
L 233.537877 201.878684 
L 233.829413 182.922512 
L 234.120949 143.614995 
L 234.412485 62.106927 
L 234.485369 203.792487 
L 234.558253 200.643919 
L 234.84979 180.362103 
L 235.141326 138.30573 
L 235.359978 79.170584 
L 235.432862 205.498852 
L 235.505746 202.691558 
L 235.797282 184.608087 
L 236.088818 147.110203 
L 236.380354 69.354589 
L 236.453238 204.517253 
L 236.526122 201.513638 
L 236.817658 182.165553 
L 237.109194 142.045365 
L 237.40073 58.852142 
L 237.473614 203.467008 
L 237.546498 200.253345 
L 237.838034 179.552208 
L 238.12957 136.626333 
L 238.49399 47.615237 
L 238.566874 202.343318 
L 238.639758 198.904916 
L 238.931294 176.756107 
L 239.22283 130.828337 
L 239.441482 66.249648 
L 239.514366 204.206759 
L 239.58725 201.141045 
L 239.878786 181.392945 
L 240.170322 140.443283 
L 240.534743 82.864276 
L 241.190699 82.864276 
L 241.263583 55.530065 
L 241.336467 203.134801 
L 241.409351 199.854695 
L 241.700887 178.725569 
L 241.992423 134.912214 
L 242.356843 73.306588 
L 243.158567 73.306588 
L 243.231451 204.912453 
L 243.304335 201.987878 
L 243.595871 183.148937 
L 243.887407 144.08451 
L 244.178943 63.080512 
L 244.251827 203.889845 
L 244.324711 200.760749 
L 244.616247 180.604362 
L 244.907783 138.808079 
L 245.126435 80.038643 
L 245.199319 205.585658 
L 245.272203 202.795725 
L 245.563739 184.824088 
L 245.855275 147.558102 
L 246.146811 70.283353 
L 246.219695 204.610129 
L 246.292579 201.62509 
L 246.584116 182.39666 
L 246.875652 142.524587 
L 247.167188 59.845856 
L 247.240072 203.56638 
L 247.312956 200.37259 
L 247.604492 179.799476 
L 247.896028 137.139067 
L 248.11468 77.15459 
L 248.187564 205.297253 
L 248.260448 202.449638 
L 248.551984 184.106443 
L 248.84352 146.069994 
L 249.135056 67.197613 
L 249.20794 204.301555 
L 249.280824 201.254801 
L 249.57236 181.628829 
L 249.863896 140.932413 
L 250.082548 83.709491 
L 250.155432 205.952743 
L 250.228316 203.236226 
L 250.519852 185.737512 
L 250.811388 149.452179 
L 251.102924 74.210911 
L 251.175808 205.002885 
L 251.248692 202.096397 
L 251.540228 183.373962 
L 251.831764 144.55112 
L 252.1233 64.048077 
L 252.196185 203.986602 
L 252.269069 200.876857 
L 252.560605 180.845123 
L 252.852141 139.307321 
L 253.143677 53.174534 
L 253.216561 202.899247 
L 253.289445 199.572032 
L 253.580981 178.139438 
L 253.872517 133.696812 
L 254.091169 71.206373 
L 254.164053 204.702431 
L 254.236937 201.735852 
L 254.528473 182.626336 
L 254.820009 143.000844 
L 255.184429 87.283741 
L 255.330197 87.283741 
L 255.403081 206.310168 
L 255.475965 203.665136 
L 255.767501 186.6269 
L 256.059037 151.296414 
L 256.350573 78.035116 
L 256.423457 205.385306 
L 256.496341 202.555301 
L 256.787877 184.325546 
L 257.079413 146.524326 
L 257.443833 68.139716 
L 257.516717 204.395766 
L 257.589601 201.367853 
L 257.881137 181.863254 
L 258.172674 141.418517 
L 258.537094 84.54948 
L 258.901514 84.54948 
L 258.974398 206.036742 
L 259.047282 203.337025 
L 259.338818 185.946528 
L 259.630354 149.885595 
L 259.92189 75.109642 
L 259.994774 205.092758 
L 260.067658 202.204245 
L 260.359194 183.597595 
L 260.65073 145.014846 
L 260.869382 90.763936 
L 260.942266 206.658188 
L 261.01515 204.08276 
L 261.306686 187.492884 
L 261.598222 153.092117 
L 261.889758 81.758688 
L 261.962642 205.757663 
L 262.035526 203.00213 
L 262.327062 185.25209 
L 262.618598 148.445607 
L 262.910134 72.123684 
L 262.983018 204.794162 
L 263.055902 201.84593 
L 263.347438 182.854593 
L 263.638974 143.474157 
L 263.930511 61.814885 
L 264.003395 203.763283 
L 264.076279 200.608874 
L 264.367815 180.289434 
L 264.659351 138.155043 
L 264.878003 78.910197 
L 264.950887 205.472814 
L 265.023771 202.660311 
L 265.315307 184.543294 
L 265.606843 146.975849 
L 265.971263 69.075993 
L 266.044147 204.489393 
L 266.117031 201.480207 
L 266.408567 182.09623 
L 266.700103 141.901615 
L 266.918755 85.384273 
L 266.991639 206.120221 
L 267.064523 203.4372 
L 267.356059 186.154252 
L 267.647595 150.31633 
L 268.012015 76.002815 
L 268.084899 205.182075 
L 268.157783 202.311425 
L 268.449319 183.819845 
L 268.740855 145.475703 
L 268.959507 91.560297 
L 269.032391 206.737824 
L 269.105275 204.178323 
L 269.396811 187.691044 
L 269.688348 153.503022 
L 269.979884 82.610741 
L 270.052768 205.842868 
L 270.125652 203.104376 
L 270.417188 185.464108 
L 270.708724 148.885248 
L 271.073144 73.035323 
L 271.146028 204.885326 
L 271.218912 201.955326 
L 271.510448 183.081438 
L 271.801984 143.944543 
L 272.020636 88.914452 
L 272.09352 206.473239 
L 272.166404 203.860822 
L 272.45794 187.032673 
L 272.749476 152.137824 
L 273.041012 79.779866 
L 273.113896 205.559781 
L 273.18678 202.764671 
L 273.478316 184.759696 
L 273.769852 147.424579 
L 274.134272 70.006479 
L 274.207156 204.582442 
L 274.28004 201.591865 
L 274.571576 182.327765 
L 274.863112 142.381726 
L 275.081764 86.213904 
L 275.154648 206.203184 
L 275.227532 203.536756 
L 275.519069 186.360691 
L 275.810605 150.744401 
L 276.102141 76.890464 
L 276.175025 205.27084 
L 276.247909 202.417943 
L 276.539445 184.04072 
L 276.830981 145.93371 
L 277.122517 66.915015 
L 277.195401 204.273296 
L 277.268285 201.220889 
L 277.559821 181.558509 
L 277.851357 140.786598 
L 278.070009 83.457524 
L 278.142893 205.927546 
L 278.215777 203.20599 
L 278.507313 185.674815 
L 278.798849 149.322169 
L 279.090385 73.941324 
L 279.163269 204.975926 
L 279.236153 202.064046 
L 279.527689 183.30688 
L 279.819225 144.412019 
L 280.037877 89.722251 
L 280.110761 206.554019 
L 280.183645 203.957758 
L 280.475181 187.23368 
L 280.766717 152.554631 
L 281.058253 80.644156 
L 281.131137 205.64621 
L 281.204021 202.868386 
L 281.495558 184.974759 
L 281.787094 147.870534 
L 282.151514 95.698564 
L 282.224398 95.698564 
L 282.297282 70.931212 
L 282.370166 204.674915 
L 282.44305 201.702833 
L 282.734586 182.557868 
L 283.026122 142.858867 
L 283.244774 87.038405 
L 283.317658 206.285635 
L 283.390542 203.635696 
L 283.682078 186.565853 
L 283.973614 151.169825 
L 284.26515 77.772623 
L 284.338034 205.359056 
L 284.410918 202.523802 
L 284.702454 184.26023 
L 284.99399 146.388885 
L 285.35841 93.138276 
L 285.504178 93.138276 
L 285.577062 67.858866 
L 285.649946 204.367681 
L 285.72283 201.334151 
L 286.014366 181.79337 
L 286.305902 141.273605 
L 286.524554 84.299071 
L 286.597438 206.011701 
L 286.670322 203.306976 
L 286.961858 185.884219 
L 287.253395 149.756389 
L 287.544931 74.841722 
L 287.617815 205.065966 
L 287.690699 202.172094 
L 287.982235 183.530928 
L 288.273771 144.876605 
L 288.565307 64.723001 
L 288.638191 204.054094 
L 288.711075 200.957848 
L 289.002611 181.013066 
L 289.294147 139.655567 
L 289.658567 81.503102 
L 289.950103 81.503102 
L 290.022987 205.732104 
L 290.095871 202.97146 
L 290.387407 185.188492 
L 290.678943 148.31373 
L 290.970479 71.850225 
L 291.043363 204.766816 
L 291.116247 201.813114 
L 291.407783 182.786547 
L 291.699319 143.333058 
L 291.917971 87.857806 
L 291.990855 206.367575 
L 292.063739 203.734024 
L 292.355275 186.769746 
L 292.646811 151.592618 
L 292.938348 78.649327 
L 293.011232 205.446727 
L 293.084116 202.629007 
L 293.375652 184.478382 
L 293.667188 146.841245 
L 294.031608 93.919954 
L 294.104492 93.919954 
L 294.177376 68.79688 
L 294.25026 204.461482 
L 294.323144 201.446713 
L 294.61468 182.026777 
L 294.906216 141.757599 
L 295.124868 85.135413 
L 295.197752 206.095335 
L 295.270636 203.407337 
L 295.562172 186.092327 
L 295.853708 150.187923 
L 296.145244 75.736551 
L 296.218128 205.155449 
L 296.291012 202.279474 
L 296.582548 183.75359 
L 296.874084 145.338317 
L 297.238504 91.322894 
L 297.311388 91.322894 
L 297.384272 65.680407 
L 297.457156 204.149835 
L 297.53004 201.072736 
L 297.821576 181.251299 
L 298.113112 140.149568 
L 298.331764 82.356735 
L 298.404648 205.817468 
L 298.477532 203.073896 
L 298.769069 185.400903 
L 299.060605 148.754187 
L 299.352141 72.763555 
L 299.425025 204.858149 
L 299.497909 201.922714 
L 299.789445 183.013813 
L 300.080981 143.804316 
L 300.372517 62.499503 
L 300.445401 203.831744 
L 300.518285 200.691028 
L 300.809821 180.459789 
L 301.101357 138.508291 
L 301.465777 79.520609 
L 301.611545 79.520609 
L 301.684429 205.533855 
L 301.757313 202.733561 
L 302.048849 184.695184 
L 302.340385 147.290808 
L 302.631921 69.729092 
L 302.704805 204.554703 
L 302.777689 201.558579 
L 303.069225 182.258742 
L 303.360761 142.2386 
L 303.579413 85.966583 
L 303.652297 206.178452 
L 303.725181 203.507077 
L 304.016717 186.299149 
L 304.308253 150.616789 
L 304.59979 76.625847 
L 304.672674 205.244379 
L 304.745558 202.386189 
L 305.037094 183.974875 
L 305.32863 145.797174 
L 305.547282 92.115799 
L 305.620166 206.793374 
L 305.69305 204.244983 
L 305.984586 187.829271 
L 306.276122 153.789649 
L 306.567658 83.20509 
L 306.640542 205.902303 
L 306.713426 203.175698 
L 307.004962 185.612001 
L 307.296498 149.191919 
L 307.588034 73.671236 
L 307.660918 204.948918 
L 307.733802 202.031636 
L 308.025338 183.239673 
L 308.316874 144.27266 
L 308.535526 89.481438 
L 308.60841 206.529938 
L 308.681294 203.92886 
L 308.97283 187.173758 
L 309.264366 152.430377 
L 309.555902 80.386503 
L 309.628786 205.620444 
L 309.70167 202.837468 
L 309.993206 184.910647 
L 310.284743 147.73759 
L 310.576279 70.65554 
L 310.649163 204.647348 
L 310.722047 201.669752 
L 311.013583 182.489272 
L 311.305119 142.716627 
L 311.596655 60.244071 
L 311.669539 203.606201 
L 311.742423 200.420376 
L 312.033959 179.898565 
L 312.325495 137.344537 
L 312.689915 49.104506 
L 312.762799 202.492245 
L 312.835683 199.083628 
L 313.127219 177.126685 
L 313.418755 131.596767 
L 313.637407 67.577495 
L 313.710291 204.339544 
L 313.783175 201.300387 
L 314.074711 181.723355 
L 314.366247 141.128423 
L 314.730667 84.048197 
L 314.949319 84.048197 
L 315.022203 205.986614 
L 315.095087 203.276871 
L 315.386623 185.821793 
L 315.678159 149.626944 
L 315.969695 74.573304 
L 316.042579 205.039124 
L 316.115464 202.139884 
L 316.407 183.464137 
L 316.698536 144.738107 
L 316.917188 90.285731 
L 316.990072 206.610367 
L 317.062956 204.025375 
L 317.354492 187.373891 
L 317.646028 152.845374 
L 317.937564 81.247042 
L 318.010448 205.706498 
L 318.083332 202.940732 
L 318.374868 185.124776 
L 318.666404 148.181609 
L 318.95794 71.576258 
L 319.030824 204.73942 
L 319.103708 201.780238 
L 319.395244 182.718376 
L 319.68678 143.191697 
L 320.124084 61.229176 
L 320.196968 203.704712 
L 320.269852 200.538589 
L 320.561388 180.143691 
L 320.852924 137.85283 
L 321.071576 78.387973 
L 321.14446 205.420591 
L 321.217344 202.597644 
L 321.50888 184.413348 
L 321.800416 146.706392 
L 322.091953 68.517249 
L 322.164837 204.433519 
L 322.237721 201.413157 
L 322.529257 181.957196 
L 322.820793 141.613315 
L 323.112329 57.956244 
L 323.185213 203.377418 
L 323.258097 200.145837 
L 323.549633 179.32928 
L 323.841169 136.164069 
L 324.132705 46.656687 
L 324.205589 202.247463 
L 324.278473 198.78989 
L 324.570009 176.517589 
L 324.861545 130.333746 
L 325.080197 65.394995 
L 325.153081 204.121294 
L 325.225965 201.038487 
L 325.517501 181.18028 
L 325.809037 140.002301 
L 326.173457 54.615645 
L 326.246341 203.043359 
L 326.319225 199.744965 
L 326.610761 178.498032 
L 326.902297 134.440393 
L 327.120949 72.491282 
L 327.193833 204.830922 
L 327.266717 201.890041 
L 327.558253 182.946063 
L 327.84979 143.663829 
L 328.068442 88.429379 
L 328.141326 206.424732 
L 328.21421 203.802613 
L 328.505746 186.911972 
L 328.797282 151.887538 
L 329.088818 79.260871 
L 329.161702 205.507881 
L 329.234586 202.702392 
L 329.526122 184.630553 
L 329.817658 147.156789 
L 330.109194 69.451191 
L 330.182078 204.526913 
L 330.254962 201.52523 
L 330.546498 182.189591 
L 330.838034 142.095209 
L 331.202454 58.955499 
L 331.275338 203.477344 
L 331.348222 200.265747 
L 331.639758 179.577927 
L 331.931294 136.679663 
L 332.368598 47.725821 
L 332.441482 202.354376 
L 332.514366 198.918186 
L 332.805902 176.783624 
L 333.097438 130.885396 
L 333.461858 35.71083 
L 333.534743 201.152877 
L 333.607627 197.476387 
L 333.899163 173.79391 
L 334.190699 124.685924 
L 334.555119 55.635559 
L 334.700887 55.635559 
L 334.773771 203.14535 
L 334.846655 199.867355 
L 335.138191 178.75182 
L 335.429727 134.966647 
L 335.721263 44.173712 
L 335.794147 201.999165 
L 335.867031 198.491933 
L 336.158567 175.899745 
L 336.450103 129.052585 
L 336.668755 63.181149 
L 336.741639 203.899909 
L 336.814523 200.772825 
L 337.106059 180.629404 
L 337.397595 138.860005 
L 337.616247 80.128371 
L 337.689131 205.594631 
L 337.762015 202.806492 
L 338.053551 184.846415 
L 338.345087 147.6044 
L 338.636623 70.379357 
L 338.709507 204.61973 
L 338.782391 201.63661 
L 339.073927 182.420548 
L 339.365464 142.574122 
L 339.729884 59.948573 
L 339.802768 203.576651 
L 339.875652 200.384916 
L 340.167188 179.825036 
L 340.458724 137.192067 
L 340.677376 77.246174 
L 340.75026 205.306411 
L 340.823144 202.460628 
L 341.11468 184.129232 
L 341.406216 146.117249 
L 341.697752 67.295602 
L 341.770636 204.311354 
L 341.84352 201.26656 
L 342.135056 181.653211 
L 342.426592 140.982973 
L 342.718128 56.649165 
L 342.791012 203.246711 
L 342.863896 199.988987 
L 343.155432 179.004037 
L 343.446968 135.489645 
L 343.738504 45.258201 
L 343.811388 202.107614 
L 343.884272 198.622072 
L 344.175808 176.169601 
L 344.467344 129.612158 
L 344.75888 33.070644 
L 344.831764 200.888858 
L 344.904648 197.159565 
L 345.196185 173.136947 
L 345.487721 123.323646 
L 345.706373 53.281543 
L 345.779257 202.909948 
L 345.852141 199.584873 
L 346.143677 178.166065 
L 346.435213 133.752026 
L 346.799633 71.301783 
L 346.872517 71.301783 
L 346.945401 204.711972 
L 347.018285 201.747301 
L 347.309821 182.650078 
L 347.601357 143.050074 
L 347.965777 87.36881 
L 348.111545 87.36881 
L 348.184429 60.935507 
L 348.257313 203.675345 
L 348.330197 200.503348 
L 348.621733 180.070616 
L 348.913269 137.701303 
L 349.131921 78.126134 
L 349.204805 205.394407 
L 349.277689 202.566224 
L 349.569225 184.348194 
L 349.860761 146.571289 
L 350.152297 68.237099 
L 350.225181 204.405504 
L 350.298065 201.379539 
L 350.589601 181.887486 
L 350.881137 141.468764 
L 351.318442 57.656503 
L 351.391326 203.347444 
L 351.46421 200.109868 
L 351.755746 179.254695 
L 352.047282 136.009409 
L 352.411702 46.335984 
L 352.484586 202.215392 
L 352.55747 198.751406 
L 352.849006 176.437788 
L 353.140542 130.16827 
L 353.504962 34.223799 
L 353.577846 201.004174 
L 353.65073 197.297943 
L 353.942266 173.423889 
L 354.233802 123.918649 
L 354.598222 54.309707 
L 354.671106 54.309707 
L 354.74399 203.012765 
L 354.816874 199.708252 
L 355.10841 178.421905 
L 355.399946 134.282536 
L 355.691482 42.75514 
L 355.764366 201.857308 
L 355.83725 198.321704 
L 356.128786 175.546759 
L 356.420322 128.320633 
L 356.638974 61.916336 
L 356.711858 203.773428 
L 356.784743 200.621048 
L 357.076279 180.314678 
L 357.149163 172.470548 
L 357.149163 172.470548 
" clip-path="url(#pe22d0e4d3b)" style="fill: none; stroke: #1f77b4; stroke-width: 1.5; stroke-linecap: square"/>
   </g>
   <g id="patch_3">
    <path d="M 37.567344 228.96 
L 37.567344 7.2 
" style="fill: none; stroke: #000000; stroke-width: 0.8; stroke-linejoin: miter; stroke-linecap: square"/>
   </g>
   <g id="patch_4">
    <path d="M 372.367344 228.96 
L 372.367344 7.2 
" style="fill: none; stroke: #000000; stroke-width: 0.8; stroke-linejoin: miter; stroke-linecap: square"/>
   </g>
   <g id="patch_5">
    <path d="M 37.567344 228.96 
L 372.367344 228.96 
" style="fill: none; stroke: #000000; stroke-width: 0.8; stroke-linejoin: miter; stroke-linecap: square"/>
   </g>
   <g id="patch_6">
    <path d="M 37.567344 7.2 
L 372.367344 7.2 
" style="fill: none; stroke: #000000; stroke-width: 0.8; stroke-linejoin: miter; stroke-linecap: square"/>
   </g>
   <g id="legend_1">
    <g id="patch_7">
     <path d="M 314.548024 29.420307 
L 365.367344 29.420307 
Q 367.367344 29.420307 367.367344 27.420307 
L 367.367344 14.2 
Q 367.367344 12.2 365.367344 12.2 
L 314.548024 12.2 
Q 312.548024 12.2 312.548024 14.2 
L 312.548024 27.420307 
Q 312.548024 29.420307 314.548024 29.420307 
z
" style="fill: #ffffff; opacity: 0.8; stroke: #cccccc; stroke-linejoin: miter"/>
    </g>
    <g id="line2d_14">
     <path d="M 316.548024 19.79832 
L 326.548024 19.79832 
L 336.548024 19.79832 
" style="fill: none; stroke: #1f77b4; stroke-width: 1.5; stroke-linecap: square"/>
    </g>
    <g id="text_15">
     <!-- CFL -->
     <g transform="translate(344.548024 23.29832) scale(0.1 -0.1)">
      <use xlink:href="#NimbusSanL-Regu-43" transform="scale(0.996264)"/>
      <use xlink:href="#NimbusSanL-Regu-46" transform="translate(71.929985 0) scale(0.996264)"/>
      <use xlink:href="#NimbusSanL-Regu-4c" transform="translate(132.801616 0) scale(0.996264)"/>
     </g>
    </g>
   </g>
  </g>
 </g>
 <defs>
  <clipPath id="pe22d0e4d3b">
   <rect x="37.567344" y="7.2" width="334.8" height="221.76"/>
  </clipPath>
 </defs>
</svg>
