<?xml version="1.0" encoding="utf-8" standalone="no"?>
<!DOCTYPE svg PUBLIC "-//W3C//DTD SVG 1.1//EN"
  "http://www.w3.org/Graphics/SVG/1.1/DTD/svg11.dtd">
<svg xmlns:xlink="http://www.w3.org/1999/xlink" width="387.316088pt" height="265.600613pt" viewBox="0 0 387.316088 265.600613" xmlns="http://www.w3.org/2000/svg" version="1.1">
 <metadata>
  <rdf:RDF xmlns:dc="http://purl.org/dc/elements/1.1/" xmlns:cc="http://creativecommons.org/ns#" xmlns:rdf="http://www.w3.org/1999/02/22-rdf-syntax-ns#">
   <cc:Work>
    <dc:type rdf:resource="http://purl.org/dc/dcmitype/StillImage"/>
    <dc:date>2025-07-17T20:27:16.039790</dc:date>
    <dc:format>image/svg+xml</dc:format>
    <dc:creator>
     <cc:Agent>
      <dc:title>Matplotlib v3.10.3, https://matplotlib.org/</dc:title>
     </cc:Agent>
    </dc:creator>
   </cc:Work>
  </rdf:RDF>
 </metadata>
 <defs>
  <style type="text/css">*{stroke-linejoin: round; stroke-linecap: butt}</style>
 </defs>
 <g id="figure_1">
  <g id="patch_1">
   <path d="M 0 265.600613 
L 387.316088 265.600613 
L 387.316088 0 
L 0 0 
z
" style="fill: #ffffff"/>
  </g>
  <g id="axes_1">
   <g id="patch_2">
    <path d="M 45.316088 228.96 
L 380.116088 228.96 
L 380.116088 7.2 
L 45.316088 7.2 
z
" style="fill: #ffffff"/>
   </g>
   <g id="matplotlib.axis_1">
    <g id="xtick_1">
     <g id="line2d_1">
      <defs>
       <path id="m52350c335d" d="M 0 0 
L 0 3.5 
" style="stroke: #000000; stroke-width: 0.8"/>
      </defs>
      <g>
       <use xlink:href="#m52350c335d" x="60.53427" y="228.96" style="stroke: #000000; stroke-width: 0.8"/>
      </g>
     </g>
     <g id="text_1">
      <!-- $\mathdefault{0}$ -->
      <g transform="translate(58.043602 243.05832) scale(0.1 -0.1)">
       <defs>
        <path id="CMR17-30" d="M 2688 2038 
C 2688 2430 2682 3099 2413 3613 
C 2176 4063 1798 4224 1466 4224 
C 1158 4224 768 4082 525 3620 
C 269 3137 243 2539 243 2038 
C 243 1671 250 1112 448 623 
C 723 -39 1216 -128 1466 -128 
C 1760 -128 2208 -7 2470 604 
C 2662 1048 2688 1568 2688 2038 
z
M 1466 -26 
C 1056 -26 813 328 723 816 
C 653 1196 653 1749 653 2109 
C 653 2604 653 3015 736 3407 
C 858 3954 1216 4121 1466 4121 
C 1728 4121 2067 3947 2189 3420 
C 2272 3054 2278 2623 2278 2109 
C 2278 1691 2278 1176 2202 797 
C 2067 96 1690 -26 1466 -26 
z
" transform="scale(0.015625)"/>
       </defs>
       <use xlink:href="#CMR17-30" transform="scale(0.996264)"/>
      </g>
     </g>
    </g>
    <g id="xtick_2">
     <g id="line2d_2">
      <g>
       <use xlink:href="#m52350c335d" x="133.174756" y="228.96" style="stroke: #000000; stroke-width: 0.8"/>
      </g>
     </g>
     <g id="text_2">
      <!-- $\mathdefault{200}$ -->
      <g transform="translate(125.702753 243.05832) scale(0.1 -0.1)">
       <defs>
        <path id="CMR17-32" d="M 2669 990 
L 2554 990 
C 2490 537 2438 460 2413 422 
C 2381 371 1920 371 1830 371 
L 602 371 
C 832 620 1280 1073 1824 1596 
C 2214 1966 2669 2400 2669 3033 
C 2669 3788 2067 4224 1395 4224 
C 691 4224 262 3603 262 3027 
C 262 2777 448 2745 525 2745 
C 589 2745 781 2783 781 3007 
C 781 3206 614 3264 525 3264 
C 486 3264 448 3257 422 3244 
C 544 3788 915 4057 1306 4057 
C 1862 4057 2227 3616 2227 3033 
C 2227 2477 1901 1998 1536 1583 
L 262 147 
L 262 0 
L 2515 0 
L 2669 990 
z
" transform="scale(0.015625)"/>
       </defs>
       <use xlink:href="#CMR17-32" transform="scale(0.996264)"/>
       <use xlink:href="#CMR17-30" transform="translate(45.690477 0) scale(0.996264)"/>
       <use xlink:href="#CMR17-30" transform="translate(91.380954 0) scale(0.996264)"/>
      </g>
     </g>
    </g>
    <g id="xtick_3">
     <g id="line2d_3">
      <g>
       <use xlink:href="#m52350c335d" x="205.815242" y="228.96" style="stroke: #000000; stroke-width: 0.8"/>
      </g>
     </g>
     <g id="text_3">
      <!-- $\mathdefault{400}$ -->
      <g transform="translate(198.343239 243.05832) scale(0.1 -0.1)">
       <defs>
        <path id="CMR17-34" d="M 2150 4147 
C 2150 4281 2144 4288 2029 4288 
L 128 1254 
L 128 1088 
L 1779 1088 
L 1779 460 
C 1779 230 1766 166 1318 166 
L 1197 166 
L 1197 0 
C 1402 12 1747 12 1965 12 
C 2182 12 2528 12 2733 0 
L 2733 166 
L 2611 166 
C 2163 166 2150 230 2150 460 
L 2150 1088 
L 2803 1088 
L 2803 1254 
L 2150 1254 
L 2150 4147 
z
M 1798 3723 
L 1798 1254 
L 256 1254 
L 1798 3723 
z
" transform="scale(0.015625)"/>
       </defs>
       <use xlink:href="#CMR17-34" transform="scale(0.996264)"/>
       <use xlink:href="#CMR17-30" transform="translate(45.690477 0) scale(0.996264)"/>
       <use xlink:href="#CMR17-30" transform="translate(91.380954 0) scale(0.996264)"/>
      </g>
     </g>
    </g>
    <g id="xtick_4">
     <g id="line2d_4">
      <g>
       <use xlink:href="#m52350c335d" x="278.455728" y="228.96" style="stroke: #000000; stroke-width: 0.8"/>
      </g>
     </g>
     <g id="text_4">
      <!-- $\mathdefault{600}$ -->
      <g transform="translate(270.983725 243.05832) scale(0.1 -0.1)">
       <defs>
        <path id="CMR17-36" d="M 678 2198 
C 678 3712 1395 4076 1811 4076 
C 1946 4076 2272 4049 2400 3782 
C 2298 3782 2106 3782 2106 3558 
C 2106 3385 2246 3328 2336 3328 
C 2394 3328 2566 3353 2566 3571 
C 2566 3987 2246 4224 1805 4224 
C 1043 4224 243 3411 243 2011 
C 243 257 966 -128 1478 -128 
C 2099 -128 2688 431 2688 1295 
C 2688 2101 2170 2688 1517 2688 
C 1126 2688 838 2430 678 1979 
L 678 2198 
z
M 1478 25 
C 691 25 691 1212 691 1450 
C 691 1914 909 2585 1504 2585 
C 1613 2585 1926 2585 2138 2140 
C 2253 1889 2253 1624 2253 1302 
C 2253 954 2253 696 2118 438 
C 1978 173 1773 25 1478 25 
z
" transform="scale(0.015625)"/>
       </defs>
       <use xlink:href="#CMR17-36" transform="scale(0.996264)"/>
       <use xlink:href="#CMR17-30" transform="translate(45.690477 0) scale(0.996264)"/>
       <use xlink:href="#CMR17-30" transform="translate(91.380954 0) scale(0.996264)"/>
      </g>
     </g>
    </g>
    <g id="xtick_5">
     <g id="line2d_5">
      <g>
       <use xlink:href="#m52350c335d" x="351.096214" y="228.96" style="stroke: #000000; stroke-width: 0.8"/>
      </g>
     </g>
     <g id="text_5">
      <!-- $\mathdefault{800}$ -->
      <g transform="translate(343.624211 243.05832) scale(0.1 -0.1)">
       <defs>
        <path id="CMR17-38" d="M 1741 2289 
C 2144 2494 2554 2803 2554 3298 
C 2554 3884 1990 4224 1472 4224 
C 890 4224 378 3800 378 3215 
C 378 3054 416 2777 666 2533 
C 730 2469 998 2276 1171 2154 
C 883 2006 211 1652 211 945 
C 211 282 838 -128 1459 -128 
C 2144 -128 2720 366 2720 1022 
C 2720 1607 2330 1877 2074 2051 
L 1741 2289 
z
M 902 2855 
C 851 2887 595 3086 595 3388 
C 595 3781 998 4076 1459 4076 
C 1965 4076 2336 3716 2336 3298 
C 2336 2700 1670 2359 1638 2359 
C 1632 2359 1626 2359 1574 2398 
L 902 2855 
z
M 2080 1536 
C 2176 1466 2483 1253 2483 861 
C 2483 385 2010 25 1472 25 
C 890 25 448 443 448 951 
C 448 1459 838 1884 1280 2083 
L 2080 1536 
z
" transform="scale(0.015625)"/>
       </defs>
       <use xlink:href="#CMR17-38" transform="scale(0.996264)"/>
       <use xlink:href="#CMR17-30" transform="translate(45.690477 0) scale(0.996264)"/>
       <use xlink:href="#CMR17-30" transform="translate(91.380954 0) scale(0.996264)"/>
      </g>
     </g>
    </g>
    <g id="text_6">
     <!-- Iteration -->
     <g transform="translate(194.768712 256.278627) scale(0.1 -0.1)">
      <defs>
       <path id="NimbusSanL-Regu-49" d="M 1242 4672 
L 640 4672 
L 640 0 
L 1242 0 
L 1242 4672 
z
" transform="scale(0.015625)"/>
       <path id="NimbusSanL-Regu-74" d="M 1626 3328 
L 1075 3328 
L 1075 4249 
L 544 4249 
L 544 3328 
L 90 3328 
L 90 2892 
L 544 2892 
L 544 402 
C 544 64 774 -128 1190 -128 
C 1318 -128 1446 -116 1626 -84 
L 1626 364 
C 1555 345 1472 339 1370 339 
C 1139 339 1075 402 1075 634 
L 1075 2892 
L 1626 2892 
L 1626 3328 
z
" transform="scale(0.015625)"/>
       <path id="NimbusSanL-Regu-65" d="M 3283 1484 
C 3283 1998 3245 2311 3149 2565 
C 2931 3123 2419 3456 1792 3456 
C 858 3456 256 2734 256 1619 
C 256 545 838 -128 1779 -128 
C 2547 -128 3078 307 3213 1018 
L 2675 1018 
C 2528 588 2227 364 1798 364 
C 1459 364 1171 514 992 787 
C 864 974 819 1161 813 1484 
L 3283 1484 
z
M 826 1920 
C 870 2552 1248 2963 1786 2963 
C 2310 2963 2714 2519 2714 1959 
C 2714 1946 2714 1933 2707 1920 
L 826 1920 
z
" transform="scale(0.015625)"/>
       <path id="NimbusSanL-Regu-72" d="M 442 3328 
L 442 0 
L 979 0 
L 979 1727 
C 979 2203 1101 2514 1357 2698 
C 1523 2819 1683 2857 2054 2863 
L 2054 3404 
C 1965 3449 1920 3456 1850 3456 
C 1504 3456 1242 3251 934 2750 
L 934 3328 
L 442 3328 
z
" transform="scale(0.015625)"/>
       <path id="NimbusSanL-Regu-61" d="M 3424 332 
C 3366 320 3341 320 3309 320 
C 3123 320 3021 415 3021 581 
L 3021 2542 
C 3021 3135 2586 3456 1760 3456 
C 1274 3456 870 3315 646 3065 
C 493 2893 429 2702 416 2370 
L 954 2370 
C 998 2778 1242 2963 1741 2963 
C 2221 2963 2490 2784 2490 2466 
L 2490 2326 
C 2490 2103 2355 2007 1933 1956 
C 1178 1861 1062 1835 858 1753 
C 467 1593 269 1294 269 861 
C 269 256 691 -128 1370 -128 
C 1792 -128 2131 19 2509 364 
C 2547 25 2714 -128 3059 -128 
C 3168 -128 3251 -116 3424 -71 
L 3424 332 
z
M 2490 1071 
C 2490 893 2438 785 2278 638 
C 2061 441 1798 339 1485 339 
C 1069 339 826 536 826 874 
C 826 1224 1062 1402 1632 1485 
C 2195 1562 2310 1587 2490 1670 
L 2490 1071 
z
" transform="scale(0.015625)"/>
       <path id="NimbusSanL-Regu-69" d="M 960 3358 
L 429 3358 
L 429 0 
L 960 0 
L 960 3358 
z
M 960 4672 
L 422 4672 
L 422 3999 
L 960 3999 
L 960 4672 
z
" transform="scale(0.015625)"/>
       <path id="NimbusSanL-Regu-6f" d="M 1741 3456 
C 800 3456 230 2784 230 1663 
C 230 543 794 -128 1747 -128 
C 2688 -128 3264 543 3264 1638 
C 3264 2791 2707 3456 1741 3456 
z
M 1747 2963 
C 2349 2963 2707 2472 2707 1644 
C 2707 861 2336 364 1747 364 
C 1152 364 787 855 787 1663 
C 787 2466 1152 2963 1747 2963 
z
" transform="scale(0.015625)"/>
       <path id="NimbusSanL-Regu-6e" d="M 448 3328 
L 448 0 
L 986 0 
L 986 1835 
C 986 2539 1344 2988 1894 2988 
C 2317 2988 2586 2732 2586 2328 
L 2586 0 
L 3117 0 
L 3117 2539 
C 3117 3097 2701 3456 2054 3456 
C 1555 3456 1235 3263 941 2796 
L 941 3328 
L 448 3328 
z
" transform="scale(0.015625)"/>
      </defs>
      <use xlink:href="#NimbusSanL-Regu-49" transform="scale(0.996264)"/>
      <use xlink:href="#NimbusSanL-Regu-74" transform="translate(27.69517 0) scale(0.996264)"/>
      <use xlink:href="#NimbusSanL-Regu-65" transform="translate(55.390339 0) scale(0.996264)"/>
      <use xlink:href="#NimbusSanL-Regu-72" transform="translate(110.782016 0) scale(0.996264)"/>
      <use xlink:href="#NimbusSanL-Regu-61" transform="translate(142.961149 0) scale(0.996264)"/>
      <use xlink:href="#NimbusSanL-Regu-74" transform="translate(198.352826 0) scale(0.996264)"/>
      <use xlink:href="#NimbusSanL-Regu-69" transform="translate(226.047996 0) scale(0.996264)"/>
      <use xlink:href="#NimbusSanL-Regu-6f" transform="translate(248.16478 0) scale(0.996264)"/>
      <use xlink:href="#NimbusSanL-Regu-6e" transform="translate(303.556457 0) scale(0.996264)"/>
     </g>
    </g>
   </g>
   <g id="matplotlib.axis_2">
    <g id="ytick_1">
     <g id="line2d_6">
      <defs>
       <path id="m20f3e3747a" d="M 0 0 
L -3.5 0 
" style="stroke: #000000; stroke-width: 0.8"/>
      </defs>
      <g>
       <use xlink:href="#m20f3e3747a" x="45.316088" y="225.932653" style="stroke: #000000; stroke-width: 0.8"/>
      </g>
     </g>
     <g id="text_7">
      <!-- $\mathdefault{−15}$ -->
      <g transform="translate(20.604674 229.481813) scale(0.1 -0.1)">
       <defs>
        <path id="CMSY10-0" d="M 4218 1472 
C 4326 1472 4442 1472 4442 1600 
C 4442 1728 4326 1728 4218 1728 
L 755 1728 
C 646 1728 531 1728 531 1600 
C 531 1472 646 1472 755 1472 
L 4218 1472 
z
" transform="scale(0.015625)"/>
        <path id="CMR17-31" d="M 1702 4083 
C 1702 4217 1696 4224 1606 4224 
C 1357 3927 979 3833 621 3820 
C 602 3820 570 3820 563 3808 
C 557 3795 557 3782 557 3648 
C 755 3648 1088 3686 1344 3839 
L 1344 467 
C 1344 243 1331 166 781 166 
L 589 166 
L 589 0 
C 896 6 1216 12 1523 12 
C 1830 12 2150 6 2458 0 
L 2458 166 
L 2266 166 
C 1715 166 1702 236 1702 467 
L 1702 4083 
z
" transform="scale(0.015625)"/>
        <path id="CMR17-35" d="M 730 3750 
C 794 3724 1056 3641 1325 3641 
C 1920 3641 2246 3961 2432 4140 
C 2432 4191 2432 4224 2394 4224 
C 2387 4224 2374 4224 2323 4198 
C 2099 4102 1837 4032 1517 4032 
C 1325 4032 1037 4055 723 4191 
C 653 4224 640 4224 634 4224 
C 602 4224 595 4217 595 4090 
L 595 2231 
C 595 2113 595 2080 659 2080 
C 691 2080 704 2093 736 2139 
C 941 2435 1222 2560 1542 2560 
C 1766 2560 2246 2415 2246 1293 
C 2246 1087 2246 716 2054 422 
C 1894 159 1645 25 1370 25 
C 947 25 518 319 403 812 
C 429 806 480 793 506 793 
C 589 793 749 838 749 1036 
C 749 1209 627 1280 506 1280 
C 358 1280 262 1190 262 1011 
C 262 454 704 -128 1382 -128 
C 2042 -128 2669 441 2669 1267 
C 2669 2054 2170 2662 1549 2662 
C 1222 2662 947 2540 730 2304 
L 730 3750 
z
" transform="scale(0.015625)"/>
       </defs>
       <use xlink:href="#CMSY10-0" transform="scale(0.996264)"/>
       <use xlink:href="#CMR17-31" transform="translate(77.487468 0) scale(0.996264)"/>
       <use xlink:href="#CMR17-35" transform="translate(123.177945 0) scale(0.996264)"/>
      </g>
     </g>
    </g>
    <g id="ytick_2">
     <g id="line2d_7">
      <g>
       <use xlink:href="#m20f3e3747a" x="45.316088" y="186.814409" style="stroke: #000000; stroke-width: 0.8"/>
      </g>
     </g>
     <g id="text_8">
      <!-- $\mathdefault{−10}$ -->
      <g transform="translate(20.604674 190.363569) scale(0.1 -0.1)">
       <use xlink:href="#CMSY10-0" transform="scale(0.996264)"/>
       <use xlink:href="#CMR17-31" transform="translate(77.487468 0) scale(0.996264)"/>
       <use xlink:href="#CMR17-30" transform="translate(123.177945 0) scale(0.996264)"/>
      </g>
     </g>
    </g>
    <g id="ytick_3">
     <g id="line2d_8">
      <g>
       <use xlink:href="#m20f3e3747a" x="45.316088" y="147.696165" style="stroke: #000000; stroke-width: 0.8"/>
      </g>
     </g>
     <g id="text_9">
      <!-- $\mathdefault{−5}$ -->
      <g transform="translate(25.586009 151.245325) scale(0.1 -0.1)">
       <use xlink:href="#CMSY10-0" transform="scale(0.996264)"/>
       <use xlink:href="#CMR17-35" transform="translate(77.487468 0) scale(0.996264)"/>
      </g>
     </g>
    </g>
    <g id="ytick_4">
     <g id="line2d_9">
      <g>
       <use xlink:href="#m20f3e3747a" x="45.316088" y="108.577921" style="stroke: #000000; stroke-width: 0.8"/>
      </g>
     </g>
     <g id="text_10">
      <!-- $\mathdefault{0}$ -->
      <g transform="translate(33.334753 112.127081) scale(0.1 -0.1)">
       <use xlink:href="#CMR17-30" transform="scale(0.996264)"/>
      </g>
     </g>
    </g>
    <g id="ytick_5">
     <g id="line2d_10">
      <g>
       <use xlink:href="#m20f3e3747a" x="45.316088" y="69.459677" style="stroke: #000000; stroke-width: 0.8"/>
      </g>
     </g>
     <g id="text_11">
      <!-- $\mathdefault{5}$ -->
      <g transform="translate(33.334753 73.008837) scale(0.1 -0.1)">
       <use xlink:href="#CMR17-35" transform="scale(0.996264)"/>
      </g>
     </g>
    </g>
    <g id="ytick_6">
     <g id="line2d_11">
      <g>
       <use xlink:href="#m20f3e3747a" x="45.316088" y="30.341433" style="stroke: #000000; stroke-width: 0.8"/>
      </g>
     </g>
     <g id="text_12">
      <!-- $\mathdefault{10}$ -->
      <g transform="translate(28.353418 33.890593) scale(0.1 -0.1)">
       <use xlink:href="#CMR17-31" transform="scale(0.996264)"/>
       <use xlink:href="#CMR17-30" transform="translate(45.690477 0) scale(0.996264)"/>
      </g>
     </g>
    </g>
    <g id="text_13">
     <!-- Aerodynamic Coefficients - Blade_18 -->
     <g transform="translate(14.482687 199.050447) rotate(-90) scale(0.1 -0.1)">
      <defs>
       <path id="NimbusSanL-Regu-41" d="M 3034 1408 
L 3514 0 
L 4179 0 
L 2541 4672 
L 1773 4672 
L 109 0 
L 742 0 
L 1235 1408 
L 3034 1408 
z
M 2867 1907 
L 1382 1907 
L 2150 4032 
L 2867 1907 
z
" transform="scale(0.015625)"/>
       <path id="NimbusSanL-Regu-64" d="M 3168 4672 
L 2637 4672 
L 2637 2937 
C 2413 3276 2054 3456 1606 3456 
C 736 3456 166 2759 166 1695 
C 166 568 723 -128 1626 -128 
C 2086 -128 2406 44 2694 460 
L 2694 19 
L 3168 19 
L 3168 4672 
z
M 1696 2956 
C 2272 2956 2637 2447 2637 1651 
C 2637 880 2266 371 1702 371 
C 1114 371 723 887 723 1663 
C 723 2440 1114 2956 1696 2956 
z
" transform="scale(0.015625)"/>
       <path id="NimbusSanL-Regu-79" d="M 2483 3328 
L 1555 724 
L 698 3328 
L 128 3328 
L 1261 -29 
L 1056 -558 
C 973 -794 851 -884 627 -884 
C 550 -884 461 -871 346 -845 
L 346 -1325 
C 454 -1383 563 -1408 704 -1408 
C 877 -1408 1062 -1351 1203 -1248 
C 1370 -1127 1466 -986 1568 -718 
L 3059 3328 
L 2483 3328 
z
" transform="scale(0.015625)"/>
       <path id="NimbusSanL-Regu-6d" d="M 448 3328 
L 448 0 
L 986 0 
L 986 2089 
C 986 2597 1338 2988 1773 2988 
C 2170 2988 2394 2744 2394 2315 
L 2394 0 
L 2931 0 
L 2931 2109 
C 2931 2597 3283 2988 3718 2988 
C 4109 2988 4339 2738 4339 2315 
L 4339 0 
L 4877 0 
L 4877 2520 
C 4877 3123 4531 3456 3904 3456 
C 3456 3456 3187 3321 2874 2943 
C 2675 3302 2406 3456 1971 3456 
C 1523 3456 1229 3289 941 2886 
L 941 3328 
L 448 3328 
z
" transform="scale(0.015625)"/>
       <path id="NimbusSanL-Regu-63" d="M 3014 2237 
C 2989 2561 2918 2771 2790 2956 
C 2560 3270 2157 3456 1690 3456 
C 787 3456 198 2740 198 1632 
C 198 555 774 -128 1683 -128 
C 2483 -128 2989 352 3053 1167 
L 2515 1167 
C 2426 632 2150 364 1696 364 
C 1107 364 755 842 755 1632 
C 755 2466 1101 2963 1683 2963 
C 2131 2963 2413 2701 2477 2237 
L 3014 2237 
z
" transform="scale(0.015625)"/>
       <path id="NimbusSanL-Regu-43" d="M 4237 3219 
C 4051 4236 3462 4736 2438 4736 
C 1811 4736 1306 4537 960 4154 
C 538 3696 307 3035 307 2284 
C 307 1522 544 867 986 415 
C 1344 44 1805 -128 2413 -128 
C 3552 -128 4192 485 4333 1712 
L 3718 1712 
C 3667 1394 3603 1178 3507 994 
C 3315 612 2918 396 2419 396 
C 1491 396 902 1134 902 2291 
C 902 3480 1466 4211 2368 4211 
C 2746 4211 3098 4096 3290 3918 
C 3462 3759 3558 3562 3629 3219 
L 4237 3219 
z
" transform="scale(0.015625)"/>
       <path id="NimbusSanL-Regu-66" d="M 1651 3328 
L 1094 3328 
L 1094 3860 
C 1094 4087 1222 4204 1466 4204 
C 1510 4204 1530 4204 1651 4198 
L 1651 4639 
C 1530 4665 1459 4672 1350 4672 
C 858 4672 563 4390 563 3905 
L 563 3328 
L 115 3328 
L 115 2892 
L 563 2892 
L 563 0 
L 1094 0 
L 1094 2892 
L 1651 2892 
L 1651 3328 
z
" transform="scale(0.015625)"/>
       <path id="NimbusSanL-Regu-2" d="M 1613 3328 
L 1056 3328 
L 1056 3860 
C 1056 4087 1184 4204 1427 4204 
C 1472 4204 1491 4204 1613 4198 
L 1613 4639 
C 1491 4665 1421 4672 1312 4672 
C 819 4672 525 4390 525 3905 
L 525 3328 
L 77 3328 
L 77 2892 
L 525 2892 
L 525 0 
L 1056 0 
L 1056 2892 
L 1613 2892 
L 1613 3328 
z
M 2790 3328 
L 2259 3328 
L 2259 0 
L 2790 0 
L 2790 3328 
z
M 2790 4672 
L 2259 4672 
L 2259 3999 
L 2790 3999 
L 2790 4672 
z
" transform="scale(0.015625)"/>
       <path id="NimbusSanL-Regu-73" d="M 2803 2428 
C 2797 3084 2362 3456 1587 3456 
C 806 3456 301 3052 301 2434 
C 301 1912 570 1663 1363 1472 
L 1862 1351 
C 2234 1262 2381 1129 2381 887 
C 2381 574 2067 364 1600 364 
C 1312 364 1069 447 934 587 
C 851 683 813 778 781 1014 
L 218 1014 
C 243 243 678 -128 1555 -128 
C 2400 -128 2938 288 2938 931 
C 2938 1428 2656 1702 1990 1861 
L 1478 1982 
C 1043 2084 858 2224 858 2459 
C 858 2765 1133 2963 1568 2963 
C 1997 2963 2227 2778 2240 2428 
L 2803 2428 
z
" transform="scale(0.015625)"/>
       <path id="NimbusSanL-Regu-2d" d="M 1818 1996 
L 294 1996 
L 294 1536 
L 1818 1536 
L 1818 1996 
z
" transform="scale(0.015625)"/>
       <path id="NimbusSanL-Regu-42" d="M 506 0 
L 2611 0 
C 3053 0 3379 121 3629 390 
C 3859 632 3987 961 3987 1321 
C 3987 1878 3731 2214 3136 2444 
C 3558 2643 3782 2994 3782 3476 
C 3782 3821 3654 4127 3411 4345 
C 3168 4569 2848 4672 2400 4672 
L 506 4672 
L 506 0 
z
M 1101 2636 
L 1101 4147 
L 2253 4147 
C 2586 4147 2771 4101 2931 3977 
C 3098 3847 3187 3652 3187 3391 
C 3187 3138 3098 2936 2931 2806 
C 2771 2682 2586 2636 2253 2636 
L 1101 2636 
z
M 1101 524 
L 1101 2112 
L 2554 2112 
C 2842 2112 3034 2042 3174 1890 
C 3315 1745 3392 1542 3392 1315 
C 3392 1093 3315 891 3174 746 
C 3034 594 2842 524 2554 524 
L 1101 524 
z
" transform="scale(0.015625)"/>
       <path id="NimbusSanL-Regu-6c" d="M 973 4672 
L 435 4672 
L 435 0 
L 973 0 
L 973 4672 
z
" transform="scale(0.015625)"/>
       <path id="NimbusSanL-Regu-31" d="M 1658 3232 
L 1658 0 
L 2221 0 
L 2221 4537 
L 1850 4537 
C 1651 3840 1523 3744 653 3635 
L 653 3232 
L 1658 3232 
z
" transform="scale(0.015625)"/>
       <path id="NimbusSanL-Regu-38" d="M 2502 2399 
C 2970 2681 3123 2910 3123 3337 
C 3123 4044 2566 4544 1760 4544 
C 960 4544 397 4044 397 3337 
C 397 2917 550 2687 1011 2399 
C 493 2150 237 1774 237 1276 
C 237 447 864 -128 1760 -128 
C 2656 -128 3283 447 3283 1270 
C 3283 1774 3027 2150 2502 2399 
z
M 1760 4044 
C 2240 4044 2547 3764 2547 3324 
C 2547 2904 2234 2624 1760 2624 
C 1286 2624 973 2904 973 3331 
C 973 3764 1286 4044 1760 4044 
z
M 1760 2150 
C 2323 2150 2707 1793 2707 1264 
C 2707 728 2323 371 1747 371 
C 1197 371 813 734 813 1264 
C 813 1793 1197 2150 1760 2150 
z
" transform="scale(0.015625)"/>
      </defs>
      <use xlink:href="#NimbusSanL-Regu-41" transform="scale(0.996264)"/>
      <use xlink:href="#NimbusSanL-Regu-65" transform="translate(66.450031 0) scale(0.996264)"/>
      <use xlink:href="#NimbusSanL-Regu-72" transform="translate(121.841708 0) scale(0.996264)"/>
      <use xlink:href="#NimbusSanL-Regu-6f" transform="translate(155.016938 0) scale(0.996264)"/>
      <use xlink:href="#NimbusSanL-Regu-64" transform="translate(210.408615 0) scale(0.996264)"/>
      <use xlink:href="#NimbusSanL-Regu-79" transform="translate(265.800292 0) scale(0.996264)"/>
      <use xlink:href="#NimbusSanL-Regu-6e" transform="translate(315.613492 0) scale(0.996264)"/>
      <use xlink:href="#NimbusSanL-Regu-61" transform="translate(371.005169 0) scale(0.996264)"/>
      <use xlink:href="#NimbusSanL-Regu-6d" transform="translate(426.396846 0) scale(0.996264)"/>
      <use xlink:href="#NimbusSanL-Regu-69" transform="translate(509.385276 0) scale(0.996264)"/>
      <use xlink:href="#NimbusSanL-Regu-63" transform="translate(531.502061 0) scale(0.996264)"/>
      <use xlink:href="#NimbusSanL-Regu-43" transform="translate(609.010431 0) scale(0.996264)"/>
      <use xlink:href="#NimbusSanL-Regu-6f" transform="translate(680.940416 0) scale(0.996264)"/>
      <use xlink:href="#NimbusSanL-Regu-65" transform="translate(736.332093 0) scale(0.996264)"/>
      <use xlink:href="#NimbusSanL-Regu-66" transform="translate(791.72377 0) scale(0.996264)"/>
      <use xlink:href="#NimbusSanL-Regu-2" transform="translate(819.418939 0) scale(0.996264)"/>
      <use xlink:href="#NimbusSanL-Regu-63" transform="translate(869.23214 0) scale(0.996264)"/>
      <use xlink:href="#NimbusSanL-Regu-69" transform="translate(919.04534 0) scale(0.996264)"/>
      <use xlink:href="#NimbusSanL-Regu-65" transform="translate(941.162125 0) scale(0.996264)"/>
      <use xlink:href="#NimbusSanL-Regu-6e" transform="translate(996.553802 0) scale(0.996264)"/>
      <use xlink:href="#NimbusSanL-Regu-74" transform="translate(1051.945479 0) scale(0.996264)"/>
      <use xlink:href="#NimbusSanL-Regu-73" transform="translate(1079.640648 0) scale(0.996264)"/>
      <use xlink:href="#NimbusSanL-Regu-2d" transform="translate(1157.149018 0) scale(0.996264)"/>
      <use xlink:href="#NimbusSanL-Regu-42" transform="translate(1218.019418 0) scale(0.996264)"/>
      <use xlink:href="#NimbusSanL-Regu-6c" transform="translate(1284.469449 0) scale(0.996264)"/>
      <use xlink:href="#NimbusSanL-Regu-61" transform="translate(1306.586233 0) scale(0.996264)"/>
      <use xlink:href="#NimbusSanL-Regu-64" transform="translate(1361.97791 0) scale(0.996264)"/>
      <use xlink:href="#NimbusSanL-Regu-65" transform="translate(1417.369587 0) scale(0.996264)"/>
      <use xlink:href="#NimbusSanL-Regu-31" transform="translate(1508.626829 0) scale(0.996264)"/>
      <use xlink:href="#NimbusSanL-Regu-38" transform="translate(1564.018506 0) scale(0.996264)"/>
      <path d="M 1478.738605 0 
L 1508.626829 0 
L 1508.626829 0.3985 
L 1478.738605 0.3985 
L 1478.738605 0 
z
"/>
     </g>
    </g>
   </g>
   <g id="line2d_12">
    <path d="M 60.53427 75.228133 
L 61.260675 26.859248 
L 61.623877 17.382275 
L 61.98708 17.28 
L 62.350282 17.856641 
L 62.713485 19.046374 
L 63.803092 23.710436 
L 64.166294 24.647239 
L 64.529497 25.109817 
L 65.255902 25.662802 
L 65.619104 26.388864 
L 65.982306 27.722726 
L 66.345509 29.833497 
L 66.708711 32.886567 
L 67.435116 33.426414 
L 68.161521 34.335234 
L 68.887926 35.813275 
L 69.614331 38.12744 
L 69.977533 39.753789 
L 70.340736 41.927931 
L 70.703938 45.060718 
L 71.430343 45.643623 
L 72.156748 46.603025 
L 72.883153 48.203337 
L 73.609557 50.882538 
L 74.335962 55.305309 
L 75.062367 62.008445 
L 75.788772 69.682125 
L 76.515177 70.389738 
L 77.241582 71.416838 
L 77.967987 72.909896 
L 78.694391 74.981403 
L 80.510404 81.075379 
L 81.600011 81.455167 
L 82.326416 81.85959 
L 83.052821 82.476963 
L 83.779225 83.370279 
L 85.232035 85.417906 
L 85.595238 85.821899 
L 87.048047 86.022885 
L 88.137655 86.356248 
L 89.590464 86.947908 
L 91.043274 86.961294 
L 92.859286 86.833684 
L 93.585691 86.645384 
L 94.312096 86.210211 
L 95.038501 85.300453 
L 96.49131 85.04332 
L 97.580918 84.631792 
L 98.307323 84.183012 
L 99.033728 83.537247 
L 99.760132 82.606242 
L 100.123335 81.979572 
L 101.576145 81.701011 
L 102.665752 81.253109 
L 103.392157 80.74075 
L 104.118562 79.918231 
L 104.481764 79.303913 
L 105.208169 77.542602 
L 105.571371 76.297732 
L 106.660979 75.934477 
L 107.387383 75.493421 
L 108.113788 74.782575 
L 108.840193 73.658469 
L 109.566598 71.899378 
L 110.293003 69.204385 
L 110.656205 67.554255 
L 111.745813 67.082559 
L 112.472217 66.577399 
L 113.561825 65.485401 
L 114.28823 64.805025 
L 114.651432 64.751451 
L 115.014634 65.161983 
L 115.377837 66.325836 
L 116.104242 66.548535 
L 116.830647 66.961428 
L 117.557051 67.708039 
L 118.283456 69.021954 
L 119.009861 71.272 
L 119.736266 74.994941 
L 120.099468 77.640162 
L 120.825873 78.112048 
L 121.552278 78.847551 
L 122.278683 79.9987 
L 123.005088 81.781974 
L 123.731493 84.48624 
L 124.457898 88.480817 
L 125.184302 94.357511 
L 125.910707 94.948037 
L 126.637112 95.8467 
L 127.363517 97.222745 
L 128.089922 99.317029 
L 128.816327 102.440856 
L 129.542732 106.936114 
L 129.905934 109.834939 
L 130.632339 110.378091 
L 131.358744 111.181401 
L 132.085149 112.379441 
L 132.811554 114.16918 
L 133.537958 116.809725 
L 134.264363 120.491493 
L 134.990768 125.124816 
L 136.080375 125.841297 
L 136.80678 126.593591 
L 137.533185 127.683965 
L 138.25959 129.244401 
L 138.985995 131.376827 
L 139.7124 133.955759 
L 140.802007 134.346543 
L 141.891614 134.988941 
L 142.981222 135.955342 
L 143.707626 136.639265 
L 144.070829 136.840436 
L 144.434031 136.784714 
L 144.797234 136.273059 
L 145.886841 136.080234 
L 146.613246 135.789375 
L 147.339651 135.241861 
L 148.066056 134.240178 
L 148.79246 132.47831 
L 149.518865 129.650296 
L 150.608473 129.173083 
L 151.334877 128.642179 
L 152.061282 127.841961 
L 152.787687 126.659389 
L 153.514092 124.951899 
L 154.240497 122.528197 
L 154.966902 119.094239 
L 156.056509 118.543587 
L 156.782914 117.917363 
L 157.509319 116.95168 
L 158.235724 115.485262 
L 158.962128 113.299428 
L 159.688533 110.084672 
L 160.051736 107.963216 
L 160.778141 107.585841 
L 161.504545 107.007023 
L 162.23095 106.119286 
L 162.957355 104.781657 
L 163.68376 102.839852 
L 164.410165 100.18276 
L 165.499772 99.747188 
L 166.226177 99.281769 
L 166.952582 98.601236 
L 167.678987 97.624608 
L 168.405392 96.283083 
L 169.858201 93.236553 
L 170.221404 92.88356 
L 172.763821 92.83584 
L 173.490226 93.031867 
L 173.853428 93.25704 
L 174.216631 93.616118 
L 174.943035 94.859297 
L 176.395845 95.208214 
L 177.485452 95.748218 
L 178.211857 96.320557 
L 179.301465 97.560268 
L 180.391072 98.843119 
L 180.754274 98.974446 
L 181.117477 98.788218 
L 182.570286 98.633263 
L 183.659894 98.276626 
L 184.386299 97.772291 
L 185.112703 96.853341 
L 185.839108 95.292732 
L 186.928716 95.028411 
L 188.018323 94.515615 
L 188.744728 93.958422 
L 190.56074 92.073135 
L 193.466359 91.824661 
L 194.919169 91.714933 
L 195.282371 91.831065 
L 195.645574 92.087202 
L 197.461586 92.300254 
L 198.551193 92.635692 
L 199.277598 93.057702 
L 200.004003 93.831549 
L 200.730408 95.018474 
L 202.54642 95.375107 
L 203.99923 95.755861 
L 204.362432 95.759798 
L 204.725635 95.652454 
L 205.088837 95.364502 
L 206.541647 95.224438 
L 207.631254 94.905973 
L 208.357659 94.45994 
L 209.084064 93.62811 
L 209.810469 92.109933 
L 210.173671 91.007111 
L 211.263278 90.692968 
L 211.989683 90.31942 
L 212.716088 89.737788 
L 213.442493 88.88044 
L 214.168898 87.715759 
L 215.258505 85.644186 
L 217.074517 85.272089 
L 219.616934 84.553695 
L 220.343339 84.630602 
L 222.522554 84.771979 
L 223.612161 85.033777 
L 224.338566 85.393915 
L 224.701768 85.674443 
L 226.51778 85.851746 
L 227.607388 86.133601 
L 228.333793 86.476808 
L 229.060197 87.071854 
L 229.4234 87.542155 
L 229.786602 88.200139 
L 230.149805 89.121691 
L 230.513007 90.392963 
L 231.602614 90.767652 
L 232.329019 91.232407 
L 233.055424 91.981702 
L 233.781829 93.158474 
L 234.508234 95.095855 
L 234.871436 96.593136 
L 235.597841 100.905246 
L 235.961044 103.309249 
L 236.687448 103.678041 
L 237.413853 104.234941 
L 238.140258 105.028496 
L 240.319473 107.994336 
L 242.498687 108.268896 
L 243.951497 108.496798 
L 244.677902 108.326327 
L 245.041104 108.025227 
L 245.404307 107.503965 
L 246.857117 107.252802 
L 247.946724 106.786779 
L 248.673129 106.236429 
L 249.399534 105.345063 
L 250.125938 103.806278 
L 250.852343 101.632555 
L 251.941951 101.34015 
L 253.031558 100.784958 
L 254.121165 99.919408 
L 254.84757 99.102581 
L 255.937177 97.715317 
L 256.30038 97.374027 
L 258.116392 97.214745 
L 259.205999 96.956599 
L 260.295606 96.592984 
L 265.38044 96.475938 
L 267.196453 96.241726 
L 268.28606 95.935213 
L 270.102072 95.19774 
L 270.465274 95.340372 
L 270.828477 95.75428 
L 271.191679 96.567823 
L 272.281287 96.833541 
L 273.007691 97.18573 
L 273.734096 97.801589 
L 274.097299 98.303991 
L 274.460501 99.099867 
L 278.092526 99.243298 
L 279.545335 99.486505 
L 280.634943 99.914122 
L 281.361347 100.450585 
L 282.087752 101.383311 
L 282.814157 103.033639 
L 283.540562 105.755365 
L 284.266967 109.504641 
L 285.356574 116.439148 
L 286.082979 122.606796 
L 286.809384 131.170808 
L 287.172586 131.367012 
L 287.535789 131.71571 
L 287.898991 132.246973 
L 288.625396 133.928668 
L 288.988598 135.192768 
L 289.351801 136.993484 
L 289.715003 139.629151 
L 290.078206 143.157685 
L 290.804611 143.676228 
L 291.531015 144.632169 
L 292.25742 146.201834 
L 292.983825 148.406648 
L 294.073432 152.435171 
L 294.799837 155.616115 
L 295.889445 155.998309 
L 296.615849 156.496399 
L 297.705457 157.654487 
L 298.431862 158.442125 
L 298.795064 158.700061 
L 299.158266 158.802778 
L 299.884671 158.672807 
L 316.591983 158.51763 
L 318.044793 158.325418 
L 319.1344 157.931082 
L 319.860805 157.374873 
L 320.950412 156.007237 
L 322.403222 155.815104 
L 323.492829 155.509194 
L 324.582437 154.952657 
L 325.308841 154.25299 
L 326.035246 153.080384 
L 327.488056 152.805169 
L 328.577663 152.318349 
L 329.304068 151.767176 
L 330.030473 150.911536 
L 330.756878 149.514743 
L 331.12008 148.509769 
L 332.209688 148.240733 
L 332.936092 147.894981 
L 333.662497 147.34165 
L 334.388902 146.517972 
L 335.115307 145.379599 
L 336.204914 143.443643 
L 336.568117 143.08101 
L 337.657724 143.192068 
L 338.747331 143.372067 
L 339.473736 143.695999 
L 339.836939 144.002723 
L 340.200141 144.51555 
L 340.563343 145.431282 
L 340.926546 147.059396 
L 341.289748 149.691577 
L 344.195368 149.820469 
L 345.648177 150.090087 
L 346.374582 150.390327 
L 347.100987 150.899986 
L 347.827392 151.72387 
L 348.553797 152.99274 
L 349.280202 154.86766 
L 350.006607 157.556389 
L 350.369809 159.393645 
L 350.733012 161.900378 
L 351.096214 165.559265 
L 351.822619 166.14865 
L 352.549024 167.19686 
L 353.275429 169.032524 
L 354.001833 172.109296 
L 354.728238 177.019954 
L 355.454643 184.58506 
L 356.181048 195.666464 
L 356.54425 202.942266 
L 356.907453 203.417919 
L 358.723465 203.623335 
L 359.813072 203.924157 
L 360.539477 204.294933 
L 361.265882 204.915713 
L 361.992287 205.944425 
L 362.718692 207.594716 
L 363.445097 210.119754 
L 364.171501 213.792863 
L 364.897906 218.88 
L 364.897906 218.88 
" clip-path="url(#pc3d2fd7c0d)" style="fill: none; stroke: #1f77b4; stroke-width: 1.5; stroke-linecap: square"/>
   </g>
   <g id="line2d_13">
    <path d="M 60.53427 109.662206 
L 60.897472 112.235504 
L 61.260675 113.640591 
L 61.623877 113.170228 
L 62.350282 112.821823 
L 63.439889 112.23757 
L 64.166294 112.220697 
L 65.255902 112.64531 
L 65.619104 112.932256 
L 65.982306 113.449962 
L 66.345509 114.344797 
L 66.708711 115.706665 
L 67.435116 115.91448 
L 68.161521 116.306159 
L 68.887926 116.972258 
L 69.614331 117.994909 
L 70.340736 119.415595 
L 70.703938 120.227134 
L 72.156748 120.546569 
L 73.246355 121.015979 
L 74.699165 121.749521 
L 75.062367 121.748695 
L 75.42557 121.610409 
L 75.788772 121.321509 
L 76.878379 121.130192 
L 77.604784 120.852699 
L 78.331189 120.329939 
L 79.057594 119.3757 
L 79.783999 117.713383 
L 80.510404 115.187112 
L 81.236808 114.864481 
L 81.963213 114.32744 
L 82.689618 113.414079 
L 83.416023 111.865437 
L 84.142428 109.401478 
L 84.868833 105.958413 
L 85.595238 101.917604 
L 86.321642 101.484361 
L 87.048047 100.788525 
L 87.774452 99.680065 
L 88.500857 98.034075 
L 89.953667 93.879984 
L 91.406476 93.513504 
L 92.496084 93.034112 
L 93.948893 92.357818 
L 94.675298 92.345205 
L 95.401703 92.482711 
L 97.94412 92.72345 
L 99.033728 92.973994 
L 100.486537 93.477041 
L 103.028954 93.754515 
L 104.118562 94.003703 
L 104.844966 94.386896 
L 105.208169 94.734321 
L 105.571371 95.385804 
L 106.660979 95.588919 
L 107.387383 95.874197 
L 108.113788 96.389491 
L 108.840193 97.328986 
L 109.203396 98.072813 
L 109.566598 99.100627 
L 109.9298 100.514377 
L 110.656205 104.819776 
L 111.38261 105.221374 
L 112.109015 105.878369 
L 112.83542 106.915062 
L 113.561825 108.440907 
L 114.651432 111.56118 
L 115.377837 113.547608 
L 116.830647 113.865214 
L 119.373064 114.626032 
L 123.731493 114.699049 
L 124.457898 114.95699 
L 125.547505 115.635817 
L 127.000315 115.895054 
L 128.089922 116.316459 
L 128.816327 116.795002 
L 129.905934 117.867201 
L 131.721946 118.119031 
L 133.537958 118.634319 
L 134.264363 118.784441 
L 134.627566 118.718427 
L 134.990768 118.459233 
L 136.443578 118.302187 
L 137.533185 117.974508 
L 138.25959 117.529105 
L 138.985995 116.721178 
L 139.7124 115.278637 
L 140.802007 115.028779 
L 141.891614 114.533675 
L 142.618019 113.97229 
L 143.344424 113.154327 
L 144.434031 111.455028 
L 144.797234 110.814919 
L 146.250043 110.547223 
L 147.339651 110.161263 
L 148.429258 109.56244 
L 149.518865 108.864642 
L 152.424485 108.599498 
L 154.603699 108.410851 
L 155.330104 108.487419 
L 157.509319 108.61981 
L 158.598926 108.86797 
L 159.325331 109.251178 
L 159.688533 109.589157 
L 160.051736 110.094669 
L 161.504545 110.327415 
L 162.594153 110.762244 
L 163.320558 111.297143 
L 164.046962 112.179025 
L 164.410165 112.816679 
L 165.862975 113.107767 
L 166.952582 113.582777 
L 167.678987 114.119329 
L 168.405392 114.904987 
L 170.221404 117.457095 
L 172.400618 117.711901 
L 174.216631 117.916054 
L 176.759048 117.710906 
L 178.57506 117.501567 
L 179.664667 117.248341 
L 180.391072 116.864379 
L 180.754274 116.476058 
L 181.117477 115.846824 
L 182.207084 115.652063 
L 183.296691 115.211473 
L 184.023096 114.650396 
L 184.749501 113.680331 
L 185.475906 111.970787 
L 185.839108 110.704094 
L 186.928716 110.333746 
L 187.65512 109.886907 
L 188.381525 109.184591 
L 189.10793 108.128554 
L 189.834335 106.62429 
L 190.56074 104.702411 
L 191.650347 104.435637 
L 192.739954 103.933837 
L 193.829562 103.125079 
L 194.919169 102.305466 
L 195.282371 102.245384 
L 195.645574 102.432061 
L 197.461586 102.64256 
L 198.187991 102.868821 
L 198.914396 103.290218 
L 199.640801 104.058208 
L 200.367205 105.363125 
L 200.730408 106.203403 
L 201.820015 106.43295 
L 202.909622 106.883362 
L 203.99923 107.637304 
L 204.725635 108.336213 
L 205.088837 108.765522 
L 206.904849 109.021832 
L 207.994457 109.380212 
L 209.084064 109.955412 
L 210.173671 110.642876 
L 212.716088 110.833813 
L 214.5321 110.965108 
L 216.348112 110.674105 
L 218.164125 110.408073 
L 219.253732 110.01012 
L 220.343339 109.488797 
L 222.159351 109.249256 
L 223.248959 108.885333 
L 223.975363 108.46005 
L 224.701768 107.768219 
L 226.51778 107.520384 
L 227.607388 107.143505 
L 228.333793 106.707096 
L 229.060197 106.046171 
L 230.149805 104.609109 
L 230.513007 104.138336 
L 232.329019 103.924154 
L 233.781829 103.669964 
L 234.145031 103.68985 
L 234.508234 103.824333 
L 234.871436 104.152619 
L 235.234639 104.756079 
L 235.961044 106.878109 
L 237.050651 107.213442 
L 237.777056 107.631675 
L 238.503461 108.266815 
L 239.229865 109.164831 
L 239.95627 110.378993 
L 240.319473 111.098483 
L 241.772283 111.383007 
L 242.86189 111.84403 
L 245.041104 113.171393 
L 246.493914 113.179297 
L 247.946724 113.072048 
L 248.673129 112.891123 
L 249.399534 112.464126 
L 250.125938 111.539851 
L 250.852343 109.968514 
L 251.941951 109.739507 
L 253.031558 109.258153 
L 253.757963 108.741643 
L 254.484368 108.030145 
L 256.30038 105.874127 
L 259.569202 105.796303 
L 260.295606 105.882403 
L 266.470048 105.974595 
L 268.28606 106.189721 
L 269.012465 106.408567 
L 269.73887 106.882285 
L 270.102072 107.326244 
L 270.465274 107.985853 
L 271.191679 110.113247 
L 272.281287 110.432424 
L 273.007691 110.861654 
L 273.734096 111.536993 
L 274.460501 112.587626 
L 278.455728 112.713987 
L 279.908538 112.918287 
L 280.998145 113.256585 
L 281.72455 113.647462 
L 282.450955 114.260087 
L 283.17736 115.196474 
L 285.356574 118.83816 
L 285.719777 119.170729 
L 286.082979 119.335663 
L 286.446181 119.315354 
L 286.809384 119.156472 
L 289.351801 119.074362 
L 290.441408 119.528053 
L 292.25742 119.74882 
L 293.71023 119.906874 
L 295.889445 119.789686 
L 298.431862 119.721051 
L 300.611076 119.38649 
L 317.318388 119.261657 
L 319.497603 119.027439 
L 321.313615 118.783901 
L 325.308841 118.854227 
L 327.488056 118.98078 
L 329.667271 119.132742 
L 332.209688 119.403165 
L 334.752105 119.573272 
L 335.478509 119.726194 
L 336.204914 120.124621 
L 336.568117 120.51754 
L 336.931319 121.114682 
L 338.020926 121.275064 
L 339.110534 121.677486 
L 339.836939 122.176469 
L 340.563343 123.079362 
L 340.926546 123.854978 
L 341.289748 124.957438 
L 345.284975 125.074469 
L 346.737785 125.321481 
L 347.827392 125.759315 
L 348.553797 126.249496 
L 349.280202 126.957102 
L 350.006607 127.943532 
L 350.733012 129.453529 
L 351.096214 130.658593 
L 352.185821 130.997661 
L 352.912226 131.447096 
L 353.638631 132.208485 
L 354.365036 133.434547 
L 355.091441 135.29446 
L 355.817846 138.099272 
L 356.54425 141.730527 
L 356.907453 141.860331 
L 359.813072 141.99667 
L 361.265882 142.266113 
L 362.355489 142.746144 
L 363.081894 143.305268 
L 363.808299 144.134415 
L 364.534704 145.2955 
L 364.897906 146.013309 
L 364.897906 146.013309 
" clip-path="url(#pc3d2fd7c0d)" style="fill: none; stroke: #ff7f0e; stroke-width: 1.5; stroke-linecap: square"/>
   </g>
   <g id="patch_3">
    <path d="M 45.316088 228.96 
L 45.316088 7.2 
" style="fill: none; stroke: #000000; stroke-width: 0.8; stroke-linejoin: miter; stroke-linecap: square"/>
   </g>
   <g id="patch_4">
    <path d="M 380.116088 228.96 
L 380.116088 7.2 
" style="fill: none; stroke: #000000; stroke-width: 0.8; stroke-linejoin: miter; stroke-linecap: square"/>
   </g>
   <g id="patch_5">
    <path d="M 45.316088 228.96 
L 380.116088 228.96 
" style="fill: none; stroke: #000000; stroke-width: 0.8; stroke-linejoin: miter; stroke-linecap: square"/>
   </g>
   <g id="patch_6">
    <path d="M 45.316088 7.2 
L 380.116088 7.2 
" style="fill: none; stroke: #000000; stroke-width: 0.8; stroke-linejoin: miter; stroke-linecap: square"/>
   </g>
   <g id="legend_1">
    <g id="patch_7">
     <path d="M 326.730094 43.640613 
L 373.116088 43.640613 
Q 375.116088 43.640613 375.116088 41.640613 
L 375.116088 14.2 
Q 375.116088 12.2 373.116088 12.2 
L 326.730094 12.2 
Q 324.730094 12.2 324.730094 14.2 
L 324.730094 41.640613 
Q 324.730094 43.640613 326.730094 43.640613 
z
" style="fill: #ffffff; opacity: 0.8; stroke: #cccccc; stroke-linejoin: miter"/>
    </g>
    <g id="line2d_14">
     <path d="M 328.730094 19.79832 
L 338.730094 19.79832 
L 348.730094 19.79832 
" style="fill: none; stroke: #1f77b4; stroke-width: 1.5; stroke-linecap: square"/>
    </g>
    <g id="text_14">
     <!-- CD -->
     <g transform="translate(356.730094 23.29832) scale(0.1 -0.1)">
      <defs>
       <path id="NimbusSanL-Regu-44" d="M 570 0 
L 2368 0 
C 3546 0 4269 883 4269 2339 
C 4269 3788 3552 4672 2368 4672 
L 570 4672 
L 570 0 
z
M 1165 524 
L 1165 4147 
L 2266 4147 
C 3187 4147 3674 3525 3674 2332 
C 3674 1153 3187 524 2266 524 
L 1165 524 
z
" transform="scale(0.015625)"/>
      </defs>
      <use xlink:href="#NimbusSanL-Regu-43" transform="scale(0.996264)"/>
      <use xlink:href="#NimbusSanL-Regu-44" transform="translate(71.929985 0) scale(0.996264)"/>
     </g>
    </g>
    <g id="line2d_15">
     <path d="M 328.730094 34.018627 
L 338.730094 34.018627 
L 348.730094 34.018627 
" style="fill: none; stroke: #ff7f0e; stroke-width: 1.5; stroke-linecap: square"/>
    </g>
    <g id="text_15">
     <!-- CL -->
     <g transform="translate(356.730094 37.518627) scale(0.1 -0.1)">
      <defs>
       <path id="NimbusSanL-Regu-4c" d="M 1107 4672 
L 512 4672 
L 512 0 
L 3411 0 
L 3411 524 
L 1107 524 
L 1107 4672 
z
" transform="scale(0.015625)"/>
      </defs>
      <use xlink:href="#NimbusSanL-Regu-43" transform="scale(0.996264)"/>
      <use xlink:href="#NimbusSanL-Regu-4c" transform="translate(71.929985 0) scale(0.996264)"/>
     </g>
    </g>
   </g>
  </g>
 </g>
 <defs>
  <clipPath id="pc3d2fd7c0d">
   <rect x="45.316088" y="7.2" width="334.8" height="221.76"/>
  </clipPath>
 </defs>
</svg>
