<?xml version="1.0" encoding="utf-8" standalone="no"?>
<!DOCTYPE svg PUBLIC "-//W3C//DTD SVG 1.1//EN"
  "http://www.w3.org/Graphics/SVG/1.1/DTD/svg11.dtd">
<svg xmlns:xlink="http://www.w3.org/1999/xlink" width="379.567344pt" height="265.600613pt" viewBox="0 0 379.567344 265.600613" xmlns="http://www.w3.org/2000/svg" version="1.1">
 <metadata>
  <rdf:RDF xmlns:dc="http://purl.org/dc/elements/1.1/" xmlns:cc="http://creativecommons.org/ns#" xmlns:rdf="http://www.w3.org/1999/02/22-rdf-syntax-ns#">
   <cc:Work>
    <dc:type rdf:resource="http://purl.org/dc/dcmitype/StillImage"/>
    <dc:date>2025-07-17T20:27:15.766911</dc:date>
    <dc:format>image/svg+xml</dc:format>
    <dc:creator>
     <cc:Agent>
      <dc:title>Matplotlib v3.10.3, https://matplotlib.org/</dc:title>
     </cc:Agent>
    </dc:creator>
   </cc:Work>
  </rdf:RDF>
 </metadata>
 <defs>
  <style type="text/css">*{stroke-linejoin: round; stroke-linecap: butt}</style>
 </defs>
 <g id="figure_1">
  <g id="patch_1">
   <path d="M 0 265.600613 
L 379.567344 265.600613 
L 379.567344 0 
L 0 0 
z
" style="fill: #ffffff"/>
  </g>
  <g id="axes_1">
   <g id="patch_2">
    <path d="M 37.567344 228.96 
L 372.367344 228.96 
L 372.367344 7.2 
L 37.567344 7.2 
z
" style="fill: #ffffff"/>
   </g>
   <g id="matplotlib.axis_1">
    <g id="xtick_1">
     <g id="line2d_1">
      <defs>
       <path id="mb9f9fc6c69" d="M 0 0 
L 0 3.5 
" style="stroke: #000000; stroke-width: 0.8"/>
      </defs>
      <g>
       <use xlink:href="#mb9f9fc6c69" x="52.785526" y="228.96" style="stroke: #000000; stroke-width: 0.8"/>
      </g>
     </g>
     <g id="text_1">
      <!-- $\mathdefault{0}$ -->
      <g transform="translate(50.294859 243.05832) scale(0.1 -0.1)">
       <defs>
        <path id="CMR17-30" d="M 2688 2038 
C 2688 2430 2682 3099 2413 3613 
C 2176 4063 1798 4224 1466 4224 
C 1158 4224 768 4082 525 3620 
C 269 3137 243 2539 243 2038 
C 243 1671 250 1112 448 623 
C 723 -39 1216 -128 1466 -128 
C 1760 -128 2208 -7 2470 604 
C 2662 1048 2688 1568 2688 2038 
z
M 1466 -26 
C 1056 -26 813 328 723 816 
C 653 1196 653 1749 653 2109 
C 653 2604 653 3015 736 3407 
C 858 3954 1216 4121 1466 4121 
C 1728 4121 2067 3947 2189 3420 
C 2272 3054 2278 2623 2278 2109 
C 2278 1691 2278 1176 2202 797 
C 2067 96 1690 -26 1466 -26 
z
" transform="scale(0.015625)"/>
       </defs>
       <use xlink:href="#CMR17-30" transform="scale(0.996264)"/>
      </g>
     </g>
    </g>
    <g id="xtick_2">
     <g id="line2d_2">
      <g>
       <use xlink:href="#mb9f9fc6c69" x="125.426012" y="228.96" style="stroke: #000000; stroke-width: 0.8"/>
      </g>
     </g>
     <g id="text_2">
      <!-- $\mathdefault{200}$ -->
      <g transform="translate(117.954009 243.05832) scale(0.1 -0.1)">
       <defs>
        <path id="CMR17-32" d="M 2669 990 
L 2554 990 
C 2490 537 2438 460 2413 422 
C 2381 371 1920 371 1830 371 
L 602 371 
C 832 620 1280 1073 1824 1596 
C 2214 1966 2669 2400 2669 3033 
C 2669 3788 2067 4224 1395 4224 
C 691 4224 262 3603 262 3027 
C 262 2777 448 2745 525 2745 
C 589 2745 781 2783 781 3007 
C 781 3206 614 3264 525 3264 
C 486 3264 448 3257 422 3244 
C 544 3788 915 4057 1306 4057 
C 1862 4057 2227 3616 2227 3033 
C 2227 2477 1901 1998 1536 1583 
L 262 147 
L 262 0 
L 2515 0 
L 2669 990 
z
" transform="scale(0.015625)"/>
       </defs>
       <use xlink:href="#CMR17-32" transform="scale(0.996264)"/>
       <use xlink:href="#CMR17-30" transform="translate(45.690477 0) scale(0.996264)"/>
       <use xlink:href="#CMR17-30" transform="translate(91.380954 0) scale(0.996264)"/>
      </g>
     </g>
    </g>
    <g id="xtick_3">
     <g id="line2d_3">
      <g>
       <use xlink:href="#mb9f9fc6c69" x="198.066498" y="228.96" style="stroke: #000000; stroke-width: 0.8"/>
      </g>
     </g>
     <g id="text_3">
      <!-- $\mathdefault{400}$ -->
      <g transform="translate(190.594495 243.05832) scale(0.1 -0.1)">
       <defs>
        <path id="CMR17-34" d="M 2150 4147 
C 2150 4281 2144 4288 2029 4288 
L 128 1254 
L 128 1088 
L 1779 1088 
L 1779 460 
C 1779 230 1766 166 1318 166 
L 1197 166 
L 1197 0 
C 1402 12 1747 12 1965 12 
C 2182 12 2528 12 2733 0 
L 2733 166 
L 2611 166 
C 2163 166 2150 230 2150 460 
L 2150 1088 
L 2803 1088 
L 2803 1254 
L 2150 1254 
L 2150 4147 
z
M 1798 3723 
L 1798 1254 
L 256 1254 
L 1798 3723 
z
" transform="scale(0.015625)"/>
       </defs>
       <use xlink:href="#CMR17-34" transform="scale(0.996264)"/>
       <use xlink:href="#CMR17-30" transform="translate(45.690477 0) scale(0.996264)"/>
       <use xlink:href="#CMR17-30" transform="translate(91.380954 0) scale(0.996264)"/>
      </g>
     </g>
    </g>
    <g id="xtick_4">
     <g id="line2d_4">
      <g>
       <use xlink:href="#mb9f9fc6c69" x="270.706984" y="228.96" style="stroke: #000000; stroke-width: 0.8"/>
      </g>
     </g>
     <g id="text_4">
      <!-- $\mathdefault{600}$ -->
      <g transform="translate(263.234981 243.05832) scale(0.1 -0.1)">
       <defs>
        <path id="CMR17-36" d="M 678 2198 
C 678 3712 1395 4076 1811 4076 
C 1946 4076 2272 4049 2400 3782 
C 2298 3782 2106 3782 2106 3558 
C 2106 3385 2246 3328 2336 3328 
C 2394 3328 2566 3353 2566 3571 
C 2566 3987 2246 4224 1805 4224 
C 1043 4224 243 3411 243 2011 
C 243 257 966 -128 1478 -128 
C 2099 -128 2688 431 2688 1295 
C 2688 2101 2170 2688 1517 2688 
C 1126 2688 838 2430 678 1979 
L 678 2198 
z
M 1478 25 
C 691 25 691 1212 691 1450 
C 691 1914 909 2585 1504 2585 
C 1613 2585 1926 2585 2138 2140 
C 2253 1889 2253 1624 2253 1302 
C 2253 954 2253 696 2118 438 
C 1978 173 1773 25 1478 25 
z
" transform="scale(0.015625)"/>
       </defs>
       <use xlink:href="#CMR17-36" transform="scale(0.996264)"/>
       <use xlink:href="#CMR17-30" transform="translate(45.690477 0) scale(0.996264)"/>
       <use xlink:href="#CMR17-30" transform="translate(91.380954 0) scale(0.996264)"/>
      </g>
     </g>
    </g>
    <g id="xtick_5">
     <g id="line2d_5">
      <g>
       <use xlink:href="#mb9f9fc6c69" x="343.34747" y="228.96" style="stroke: #000000; stroke-width: 0.8"/>
      </g>
     </g>
     <g id="text_5">
      <!-- $\mathdefault{800}$ -->
      <g transform="translate(335.875467 243.05832) scale(0.1 -0.1)">
       <defs>
        <path id="CMR17-38" d="M 1741 2289 
C 2144 2494 2554 2803 2554 3298 
C 2554 3884 1990 4224 1472 4224 
C 890 4224 378 3800 378 3215 
C 378 3054 416 2777 666 2533 
C 730 2469 998 2276 1171 2154 
C 883 2006 211 1652 211 945 
C 211 282 838 -128 1459 -128 
C 2144 -128 2720 366 2720 1022 
C 2720 1607 2330 1877 2074 2051 
L 1741 2289 
z
M 902 2855 
C 851 2887 595 3086 595 3388 
C 595 3781 998 4076 1459 4076 
C 1965 4076 2336 3716 2336 3298 
C 2336 2700 1670 2359 1638 2359 
C 1632 2359 1626 2359 1574 2398 
L 902 2855 
z
M 2080 1536 
C 2176 1466 2483 1253 2483 861 
C 2483 385 2010 25 1472 25 
C 890 25 448 443 448 951 
C 448 1459 838 1884 1280 2083 
L 2080 1536 
z
" transform="scale(0.015625)"/>
       </defs>
       <use xlink:href="#CMR17-38" transform="scale(0.996264)"/>
       <use xlink:href="#CMR17-30" transform="translate(45.690477 0) scale(0.996264)"/>
       <use xlink:href="#CMR17-30" transform="translate(91.380954 0) scale(0.996264)"/>
      </g>
     </g>
    </g>
    <g id="text_6">
     <!-- Iteration -->
     <g transform="translate(187.019968 256.278627) scale(0.1 -0.1)">
      <defs>
       <path id="NimbusSanL-Regu-49" d="M 1242 4672 
L 640 4672 
L 640 0 
L 1242 0 
L 1242 4672 
z
" transform="scale(0.015625)"/>
       <path id="NimbusSanL-Regu-74" d="M 1626 3328 
L 1075 3328 
L 1075 4249 
L 544 4249 
L 544 3328 
L 90 3328 
L 90 2892 
L 544 2892 
L 544 402 
C 544 64 774 -128 1190 -128 
C 1318 -128 1446 -116 1626 -84 
L 1626 364 
C 1555 345 1472 339 1370 339 
C 1139 339 1075 402 1075 634 
L 1075 2892 
L 1626 2892 
L 1626 3328 
z
" transform="scale(0.015625)"/>
       <path id="NimbusSanL-Regu-65" d="M 3283 1484 
C 3283 1998 3245 2311 3149 2565 
C 2931 3123 2419 3456 1792 3456 
C 858 3456 256 2734 256 1619 
C 256 545 838 -128 1779 -128 
C 2547 -128 3078 307 3213 1018 
L 2675 1018 
C 2528 588 2227 364 1798 364 
C 1459 364 1171 514 992 787 
C 864 974 819 1161 813 1484 
L 3283 1484 
z
M 826 1920 
C 870 2552 1248 2963 1786 2963 
C 2310 2963 2714 2519 2714 1959 
C 2714 1946 2714 1933 2707 1920 
L 826 1920 
z
" transform="scale(0.015625)"/>
       <path id="NimbusSanL-Regu-72" d="M 442 3328 
L 442 0 
L 979 0 
L 979 1727 
C 979 2203 1101 2514 1357 2698 
C 1523 2819 1683 2857 2054 2863 
L 2054 3404 
C 1965 3449 1920 3456 1850 3456 
C 1504 3456 1242 3251 934 2750 
L 934 3328 
L 442 3328 
z
" transform="scale(0.015625)"/>
       <path id="NimbusSanL-Regu-61" d="M 3424 332 
C 3366 320 3341 320 3309 320 
C 3123 320 3021 415 3021 581 
L 3021 2542 
C 3021 3135 2586 3456 1760 3456 
C 1274 3456 870 3315 646 3065 
C 493 2893 429 2702 416 2370 
L 954 2370 
C 998 2778 1242 2963 1741 2963 
C 2221 2963 2490 2784 2490 2466 
L 2490 2326 
C 2490 2103 2355 2007 1933 1956 
C 1178 1861 1062 1835 858 1753 
C 467 1593 269 1294 269 861 
C 269 256 691 -128 1370 -128 
C 1792 -128 2131 19 2509 364 
C 2547 25 2714 -128 3059 -128 
C 3168 -128 3251 -116 3424 -71 
L 3424 332 
z
M 2490 1071 
C 2490 893 2438 785 2278 638 
C 2061 441 1798 339 1485 339 
C 1069 339 826 536 826 874 
C 826 1224 1062 1402 1632 1485 
C 2195 1562 2310 1587 2490 1670 
L 2490 1071 
z
" transform="scale(0.015625)"/>
       <path id="NimbusSanL-Regu-69" d="M 960 3358 
L 429 3358 
L 429 0 
L 960 0 
L 960 3358 
z
M 960 4672 
L 422 4672 
L 422 3999 
L 960 3999 
L 960 4672 
z
" transform="scale(0.015625)"/>
       <path id="NimbusSanL-Regu-6f" d="M 1741 3456 
C 800 3456 230 2784 230 1663 
C 230 543 794 -128 1747 -128 
C 2688 -128 3264 543 3264 1638 
C 3264 2791 2707 3456 1741 3456 
z
M 1747 2963 
C 2349 2963 2707 2472 2707 1644 
C 2707 861 2336 364 1747 364 
C 1152 364 787 855 787 1663 
C 787 2466 1152 2963 1747 2963 
z
" transform="scale(0.015625)"/>
       <path id="NimbusSanL-Regu-6e" d="M 448 3328 
L 448 0 
L 986 0 
L 986 1835 
C 986 2539 1344 2988 1894 2988 
C 2317 2988 2586 2732 2586 2328 
L 2586 0 
L 3117 0 
L 3117 2539 
C 3117 3097 2701 3456 2054 3456 
C 1555 3456 1235 3263 941 2796 
L 941 3328 
L 448 3328 
z
" transform="scale(0.015625)"/>
      </defs>
      <use xlink:href="#NimbusSanL-Regu-49" transform="scale(0.996264)"/>
      <use xlink:href="#NimbusSanL-Regu-74" transform="translate(27.69517 0) scale(0.996264)"/>
      <use xlink:href="#NimbusSanL-Regu-65" transform="translate(55.390339 0) scale(0.996264)"/>
      <use xlink:href="#NimbusSanL-Regu-72" transform="translate(110.782016 0) scale(0.996264)"/>
      <use xlink:href="#NimbusSanL-Regu-61" transform="translate(142.961149 0) scale(0.996264)"/>
      <use xlink:href="#NimbusSanL-Regu-74" transform="translate(198.352826 0) scale(0.996264)"/>
      <use xlink:href="#NimbusSanL-Regu-69" transform="translate(226.047996 0) scale(0.996264)"/>
      <use xlink:href="#NimbusSanL-Regu-6f" transform="translate(248.16478 0) scale(0.996264)"/>
      <use xlink:href="#NimbusSanL-Regu-6e" transform="translate(303.556457 0) scale(0.996264)"/>
     </g>
    </g>
   </g>
   <g id="matplotlib.axis_2">
    <g id="ytick_1">
     <g id="line2d_6">
      <defs>
       <path id="m35bb49db40" d="M 0 0 
L -3.5 0 
" style="stroke: #000000; stroke-width: 0.8"/>
      </defs>
      <g>
       <use xlink:href="#m35bb49db40" x="37.567344" y="219.374049" style="stroke: #000000; stroke-width: 0.8"/>
      </g>
     </g>
     <g id="text_7">
      <!-- $\mathdefault{0}$ -->
      <g transform="translate(25.586009 222.92321) scale(0.1 -0.1)">
       <use xlink:href="#CMR17-30" transform="scale(0.996264)"/>
      </g>
     </g>
    </g>
    <g id="ytick_2">
     <g id="line2d_7">
      <g>
       <use xlink:href="#m35bb49db40" x="37.567344" y="194.671577" style="stroke: #000000; stroke-width: 0.8"/>
      </g>
     </g>
     <g id="text_8">
      <!-- $\mathdefault{5}$ -->
      <g transform="translate(25.586009 198.220737) scale(0.1 -0.1)">
       <defs>
        <path id="CMR17-35" d="M 730 3750 
C 794 3724 1056 3641 1325 3641 
C 1920 3641 2246 3961 2432 4140 
C 2432 4191 2432 4224 2394 4224 
C 2387 4224 2374 4224 2323 4198 
C 2099 4102 1837 4032 1517 4032 
C 1325 4032 1037 4055 723 4191 
C 653 4224 640 4224 634 4224 
C 602 4224 595 4217 595 4090 
L 595 2231 
C 595 2113 595 2080 659 2080 
C 691 2080 704 2093 736 2139 
C 941 2435 1222 2560 1542 2560 
C 1766 2560 2246 2415 2246 1293 
C 2246 1087 2246 716 2054 422 
C 1894 159 1645 25 1370 25 
C 947 25 518 319 403 812 
C 429 806 480 793 506 793 
C 589 793 749 838 749 1036 
C 749 1209 627 1280 506 1280 
C 358 1280 262 1190 262 1011 
C 262 454 704 -128 1382 -128 
C 2042 -128 2669 441 2669 1267 
C 2669 2054 2170 2662 1549 2662 
C 1222 2662 947 2540 730 2304 
L 730 3750 
z
" transform="scale(0.015625)"/>
       </defs>
       <use xlink:href="#CMR17-35" transform="scale(0.996264)"/>
      </g>
     </g>
    </g>
    <g id="ytick_3">
     <g id="line2d_8">
      <g>
       <use xlink:href="#m35bb49db40" x="37.567344" y="169.969105" style="stroke: #000000; stroke-width: 0.8"/>
      </g>
     </g>
     <g id="text_9">
      <!-- $\mathdefault{10}$ -->
      <g transform="translate(20.604674 173.518265) scale(0.1 -0.1)">
       <defs>
        <path id="CMR17-31" d="M 1702 4083 
C 1702 4217 1696 4224 1606 4224 
C 1357 3927 979 3833 621 3820 
C 602 3820 570 3820 563 3808 
C 557 3795 557 3782 557 3648 
C 755 3648 1088 3686 1344 3839 
L 1344 467 
C 1344 243 1331 166 781 166 
L 589 166 
L 589 0 
C 896 6 1216 12 1523 12 
C 1830 12 2150 6 2458 0 
L 2458 166 
L 2266 166 
C 1715 166 1702 236 1702 467 
L 1702 4083 
z
" transform="scale(0.015625)"/>
       </defs>
       <use xlink:href="#CMR17-31" transform="scale(0.996264)"/>
       <use xlink:href="#CMR17-30" transform="translate(45.690477 0) scale(0.996264)"/>
      </g>
     </g>
    </g>
    <g id="ytick_4">
     <g id="line2d_9">
      <g>
       <use xlink:href="#m35bb49db40" x="37.567344" y="145.266633" style="stroke: #000000; stroke-width: 0.8"/>
      </g>
     </g>
     <g id="text_10">
      <!-- $\mathdefault{15}$ -->
      <g transform="translate(20.604674 148.815793) scale(0.1 -0.1)">
       <use xlink:href="#CMR17-31" transform="scale(0.996264)"/>
       <use xlink:href="#CMR17-35" transform="translate(45.690477 0) scale(0.996264)"/>
      </g>
     </g>
    </g>
    <g id="ytick_5">
     <g id="line2d_10">
      <g>
       <use xlink:href="#m35bb49db40" x="37.567344" y="120.56416" style="stroke: #000000; stroke-width: 0.8"/>
      </g>
     </g>
     <g id="text_11">
      <!-- $\mathdefault{20}$ -->
      <g transform="translate(20.604674 124.113321) scale(0.1 -0.1)">
       <use xlink:href="#CMR17-32" transform="scale(0.996264)"/>
       <use xlink:href="#CMR17-30" transform="translate(45.690477 0) scale(0.996264)"/>
      </g>
     </g>
    </g>
    <g id="ytick_6">
     <g id="line2d_11">
      <g>
       <use xlink:href="#m35bb49db40" x="37.567344" y="95.861688" style="stroke: #000000; stroke-width: 0.8"/>
      </g>
     </g>
     <g id="text_12">
      <!-- $\mathdefault{25}$ -->
      <g transform="translate(20.604674 99.410848) scale(0.1 -0.1)">
       <use xlink:href="#CMR17-32" transform="scale(0.996264)"/>
       <use xlink:href="#CMR17-35" transform="translate(45.690477 0) scale(0.996264)"/>
      </g>
     </g>
    </g>
    <g id="ytick_7">
     <g id="line2d_12">
      <g>
       <use xlink:href="#m35bb49db40" x="37.567344" y="71.159216" style="stroke: #000000; stroke-width: 0.8"/>
      </g>
     </g>
     <g id="text_13">
      <!-- $\mathdefault{30}$ -->
      <g transform="translate(20.604674 74.708376) scale(0.1 -0.1)">
       <defs>
        <path id="CMR17-33" d="M 1414 2176 
C 1984 2176 2234 1673 2234 1094 
C 2234 322 1824 25 1453 25 
C 1114 25 563 193 390 691 
C 422 678 454 678 486 678 
C 640 678 755 780 755 947 
C 755 1132 614 1216 486 1216 
C 378 1216 211 1164 211 927 
C 211 335 787 -128 1466 -128 
C 2176 -128 2720 432 2720 1087 
C 2720 1718 2208 2176 1600 2246 
C 2086 2347 2554 2776 2554 3353 
C 2554 3856 2048 4224 1472 4224 
C 890 4224 378 3862 378 3347 
C 378 3123 544 3084 627 3084 
C 762 3084 877 3167 877 3334 
C 877 3500 762 3584 627 3584 
C 602 3584 570 3584 544 3571 
C 730 3999 1235 4076 1459 4076 
C 1683 4076 2106 3966 2106 3347 
C 2106 3167 2080 2851 1862 2574 
C 1670 2329 1453 2316 1242 2297 
C 1210 2297 1062 2284 1037 2284 
C 992 2278 966 2272 966 2227 
C 966 2182 973 2176 1101 2176 
L 1414 2176 
z
" transform="scale(0.015625)"/>
       </defs>
       <use xlink:href="#CMR17-33" transform="scale(0.996264)"/>
       <use xlink:href="#CMR17-30" transform="translate(45.690477 0) scale(0.996264)"/>
      </g>
     </g>
    </g>
    <g id="ytick_8">
     <g id="line2d_13">
      <g>
       <use xlink:href="#m35bb49db40" x="37.567344" y="46.456744" style="stroke: #000000; stroke-width: 0.8"/>
      </g>
     </g>
     <g id="text_14">
      <!-- $\mathdefault{35}$ -->
      <g transform="translate(20.604674 50.005904) scale(0.1 -0.1)">
       <use xlink:href="#CMR17-33" transform="scale(0.996264)"/>
       <use xlink:href="#CMR17-35" transform="translate(45.690477 0) scale(0.996264)"/>
      </g>
     </g>
    </g>
    <g id="ytick_9">
     <g id="line2d_14">
      <g>
       <use xlink:href="#m35bb49db40" x="37.567344" y="21.754271" style="stroke: #000000; stroke-width: 0.8"/>
      </g>
     </g>
     <g id="text_15">
      <!-- $\mathdefault{40}$ -->
      <g transform="translate(20.604674 25.303432) scale(0.1 -0.1)">
       <use xlink:href="#CMR17-34" transform="scale(0.996264)"/>
       <use xlink:href="#CMR17-30" transform="translate(45.690477 0) scale(0.996264)"/>
      </g>
     </g>
    </g>
    <g id="text_16">
     <!-- Average CFL - Blade_18 -->
     <g transform="translate(14.482687 171.548902) rotate(-90) scale(0.1 -0.1)">
      <defs>
       <path id="NimbusSanL-Regu-41" d="M 3034 1408 
L 3514 0 
L 4179 0 
L 2541 4672 
L 1773 4672 
L 109 0 
L 742 0 
L 1235 1408 
L 3034 1408 
z
M 2867 1907 
L 1382 1907 
L 2150 4032 
L 2867 1907 
z
" transform="scale(0.015625)"/>
       <path id="NimbusSanL-Regu-76" d="M 1824 0 
L 3110 3328 
L 2509 3328 
L 1562 629 
L 666 3328 
L 64 3328 
L 1242 0 
L 1824 0 
z
" transform="scale(0.015625)"/>
       <path id="NimbusSanL-Regu-67" d="M 2637 3359 
L 2637 2873 
C 2368 3270 2042 3456 1613 3456 
C 762 3456 186 2714 186 1632 
C 186 1084 333 638 608 320 
C 858 38 1216 -128 1568 -128 
C 1990 -128 2285 51 2586 473 
L 2586 300 
C 2586 -155 2528 -441 2394 -634 
C 2253 -841 1978 -960 1651 -960 
C 1408 -960 1190 -894 1043 -774 
C 922 -674 870 -581 838 -375 
L 294 -375 
C 352 -1031 845 -1408 1632 -1408 
C 2131 -1408 2560 -1248 2778 -980 
C 3034 -661 3130 -222 3130 568 
L 3130 3359 
L 2637 3359 
z
M 1670 2963 
C 2246 2963 2586 2479 2586 1644 
C 2586 848 2240 364 1677 364 
C 1094 364 742 855 742 1663 
C 742 2466 1101 2963 1670 2963 
z
" transform="scale(0.015625)"/>
       <path id="NimbusSanL-Regu-43" d="M 4237 3219 
C 4051 4236 3462 4736 2438 4736 
C 1811 4736 1306 4537 960 4154 
C 538 3696 307 3035 307 2284 
C 307 1522 544 867 986 415 
C 1344 44 1805 -128 2413 -128 
C 3552 -128 4192 485 4333 1712 
L 3718 1712 
C 3667 1394 3603 1178 3507 994 
C 3315 612 2918 396 2419 396 
C 1491 396 902 1134 902 2291 
C 902 3480 1466 4211 2368 4211 
C 2746 4211 3098 4096 3290 3918 
C 3462 3759 3558 3562 3629 3219 
L 4237 3219 
z
" transform="scale(0.015625)"/>
       <path id="NimbusSanL-Regu-46" d="M 1171 2112 
L 3398 2112 
L 3398 2636 
L 1171 2636 
L 1171 4147 
L 3706 4147 
L 3706 4672 
L 576 4672 
L 576 0 
L 1171 0 
L 1171 2112 
z
" transform="scale(0.015625)"/>
       <path id="NimbusSanL-Regu-4c" d="M 1107 4672 
L 512 4672 
L 512 0 
L 3411 0 
L 3411 524 
L 1107 524 
L 1107 4672 
z
" transform="scale(0.015625)"/>
       <path id="NimbusSanL-Regu-2d" d="M 1818 1996 
L 294 1996 
L 294 1536 
L 1818 1536 
L 1818 1996 
z
" transform="scale(0.015625)"/>
       <path id="NimbusSanL-Regu-42" d="M 506 0 
L 2611 0 
C 3053 0 3379 121 3629 390 
C 3859 632 3987 961 3987 1321 
C 3987 1878 3731 2214 3136 2444 
C 3558 2643 3782 2994 3782 3476 
C 3782 3821 3654 4127 3411 4345 
C 3168 4569 2848 4672 2400 4672 
L 506 4672 
L 506 0 
z
M 1101 2636 
L 1101 4147 
L 2253 4147 
C 2586 4147 2771 4101 2931 3977 
C 3098 3847 3187 3652 3187 3391 
C 3187 3138 3098 2936 2931 2806 
C 2771 2682 2586 2636 2253 2636 
L 1101 2636 
z
M 1101 524 
L 1101 2112 
L 2554 2112 
C 2842 2112 3034 2042 3174 1890 
C 3315 1745 3392 1542 3392 1315 
C 3392 1093 3315 891 3174 746 
C 3034 594 2842 524 2554 524 
L 1101 524 
z
" transform="scale(0.015625)"/>
       <path id="NimbusSanL-Regu-6c" d="M 973 4672 
L 435 4672 
L 435 0 
L 973 0 
L 973 4672 
z
" transform="scale(0.015625)"/>
       <path id="NimbusSanL-Regu-64" d="M 3168 4672 
L 2637 4672 
L 2637 2937 
C 2413 3276 2054 3456 1606 3456 
C 736 3456 166 2759 166 1695 
C 166 568 723 -128 1626 -128 
C 2086 -128 2406 44 2694 460 
L 2694 19 
L 3168 19 
L 3168 4672 
z
M 1696 2956 
C 2272 2956 2637 2447 2637 1651 
C 2637 880 2266 371 1702 371 
C 1114 371 723 887 723 1663 
C 723 2440 1114 2956 1696 2956 
z
" transform="scale(0.015625)"/>
       <path id="NimbusSanL-Regu-31" d="M 1658 3232 
L 1658 0 
L 2221 0 
L 2221 4537 
L 1850 4537 
C 1651 3840 1523 3744 653 3635 
L 653 3232 
L 1658 3232 
z
" transform="scale(0.015625)"/>
       <path id="NimbusSanL-Regu-38" d="M 2502 2399 
C 2970 2681 3123 2910 3123 3337 
C 3123 4044 2566 4544 1760 4544 
C 960 4544 397 4044 397 3337 
C 397 2917 550 2687 1011 2399 
C 493 2150 237 1774 237 1276 
C 237 447 864 -128 1760 -128 
C 2656 -128 3283 447 3283 1270 
C 3283 1774 3027 2150 2502 2399 
z
M 1760 4044 
C 2240 4044 2547 3764 2547 3324 
C 2547 2904 2234 2624 1760 2624 
C 1286 2624 973 2904 973 3331 
C 973 3764 1286 4044 1760 4044 
z
M 1760 2150 
C 2323 2150 2707 1793 2707 1264 
C 2707 728 2323 371 1747 371 
C 1197 371 813 734 813 1264 
C 813 1793 1197 2150 1760 2150 
z
" transform="scale(0.015625)"/>
      </defs>
      <use xlink:href="#NimbusSanL-Regu-41" transform="scale(0.996264)"/>
      <use xlink:href="#NimbusSanL-Regu-76" transform="translate(62.465918 0) scale(0.996264)"/>
      <use xlink:href="#NimbusSanL-Regu-65" transform="translate(109.788488 0) scale(0.996264)"/>
      <use xlink:href="#NimbusSanL-Regu-72" transform="translate(165.180165 0) scale(0.996264)"/>
      <use xlink:href="#NimbusSanL-Regu-61" transform="translate(197.359298 0) scale(0.996264)"/>
      <use xlink:href="#NimbusSanL-Regu-67" transform="translate(252.750975 0) scale(0.996264)"/>
      <use xlink:href="#NimbusSanL-Regu-65" transform="translate(308.142652 0) scale(0.996264)"/>
      <use xlink:href="#NimbusSanL-Regu-43" transform="translate(391.229499 0) scale(0.996264)"/>
      <use xlink:href="#NimbusSanL-Regu-46" transform="translate(463.159484 0) scale(0.996264)"/>
      <use xlink:href="#NimbusSanL-Regu-4c" transform="translate(524.031114 0) scale(0.996264)"/>
      <use xlink:href="#NimbusSanL-Regu-2d" transform="translate(607.117961 0) scale(0.996264)"/>
      <use xlink:href="#NimbusSanL-Regu-42" transform="translate(667.98836 0) scale(0.996264)"/>
      <use xlink:href="#NimbusSanL-Regu-6c" transform="translate(734.438391 0) scale(0.996264)"/>
      <use xlink:href="#NimbusSanL-Regu-61" transform="translate(756.555176 0) scale(0.996264)"/>
      <use xlink:href="#NimbusSanL-Regu-64" transform="translate(811.946853 0) scale(0.996264)"/>
      <use xlink:href="#NimbusSanL-Regu-65" transform="translate(867.33853 0) scale(0.996264)"/>
      <use xlink:href="#NimbusSanL-Regu-31" transform="translate(958.595772 0) scale(0.996264)"/>
      <use xlink:href="#NimbusSanL-Regu-38" transform="translate(1013.987449 0) scale(0.996264)"/>
      <path d="M 928.707548 0 
L 958.595772 0 
L 958.595772 0.3985 
L 928.707548 0.3985 
L 928.707548 0 
z
"/>
     </g>
    </g>
   </g>
   <g id="line2d_15">
    <path d="M 52.785526 148.692787 
L 53.511931 118.458824 
L 53.875133 209.282527 
L 54.601538 204.842257 
L 55.327943 198.448268 
L 56.054348 189.240925 
L 56.780753 175.98235 
L 57.507158 156.890002 
L 58.233563 129.419644 
L 58.596765 111.5464 
L 58.959968 208.591285 
L 59.686372 203.846868 
L 60.412777 197.014908 
L 61.139182 187.176886 
L 61.865587 173.010134 
L 62.591992 152.643034 
L 62.955194 212.700948 
L 63.681599 209.764783 
L 64.408004 205.536706 
L 65.134409 199.448275 
L 65.860814 190.680934 
L 66.587219 178.055964 
L 67.313623 159.903188 
L 67.676826 148.090657 
L 68.040028 212.24571 
L 68.766433 209.109241 
L 69.492838 204.592725 
L 70.219243 198.088943 
L 70.945648 188.723495 
L 71.672053 175.241592 
L 72.398457 155.891814 
L 72.76166 213.025826 
L 73.488065 210.232608 
L 74.21447 206.210373 
L 74.940874 200.418356 
L 75.667279 192.07785 
L 76.393684 180.067523 
L 77.120089 162.786984 
L 77.483291 151.489423 
L 77.846494 212.585587 
L 78.572899 209.598663 
L 79.299304 205.297493 
L 80.025708 199.103809 
L 80.752113 190.184902 
L 81.478518 177.341678 
L 81.841721 168.935203 
L 82.204923 214.330165 
L 82.931328 212.110856 
L 83.657733 208.91505 
L 84.384138 204.313091 
L 85.110542 197.686269 
L 85.836947 188.143645 
L 86.563352 174.402268 
L 86.926555 165.407911 
L 87.289757 213.977436 
L 88.016162 211.602926 
L 88.742567 208.183631 
L 89.468972 203.259847 
L 90.195376 196.169598 
L 90.921781 185.959639 
L 91.648186 171.257299 
L 92.011389 161.633949 
L 92.374591 213.600039 
L 93.100996 211.059475 
L 93.827401 207.401062 
L 94.553806 202.132948 
L 95.280211 194.546863 
L 96.006615 183.622901 
L 96.73302 167.892395 
L 97.096223 167.892395 
L 97.459425 157.596065 
L 97.822628 213.196251 
L 98.549032 210.47802 
L 99.275437 206.563767 
L 100.001842 200.927242 
L 100.728247 192.810647 
L 101.454652 181.12275 
L 102.181057 164.292178 
L 102.544259 153.275803 
L 102.907462 212.764225 
L 103.633866 209.855902 
L 104.360271 205.667917 
L 105.086676 199.637219 
L 105.813081 190.953013 
L 106.539486 178.447758 
L 107.265891 160.440189 
L 107.629093 213.480663 
L 108.355498 210.887574 
L 109.081903 207.153524 
L 109.808308 201.776493 
L 110.534713 194.033568 
L 111.261117 182.883757 
L 111.987522 166.828028 
L 112.350725 214.119447 
L 113.07713 211.807422 
L 113.803534 208.478106 
L 114.529939 203.683891 
L 115.256344 196.780222 
L 115.982749 186.838938 
L 116.709154 172.523489 
L 117.072356 163.153377 
L 117.435559 213.751982 
L 118.161964 211.278273 
L 118.888368 207.716131 
L 119.614773 202.586646 
L 120.341178 195.200189 
L 121.067583 184.563691 
L 121.793988 169.247133 
L 122.15719 214.361358 
L 122.883595 212.155773 
L 123.61 208.979732 
L 124.336405 204.406232 
L 125.06281 197.820393 
L 125.789215 188.336784 
L 126.515619 174.680387 
L 126.878822 165.741655 
L 127.242024 214.01081 
L 127.968429 211.650985 
L 128.694834 208.252836 
L 129.421239 203.359502 
L 130.147644 196.313101 
L 130.874049 186.166284 
L 131.600454 171.554867 
L 131.963656 214.592131 
L 132.690061 212.488087 
L 133.416466 209.458264 
L 134.142871 205.095318 
L 134.869275 198.812676 
L 135.59568 189.765672 
L 136.322085 176.737986 
L 136.685288 168.210774 
L 137.04849 214.257722 
L 137.774895 212.006538 
L 138.5013 208.764833 
L 139.227705 204.096777 
L 139.954109 197.374777 
L 140.680514 187.695098 
L 141.406919 173.756359 
L 141.770122 214.81228 
L 142.496526 212.805102 
L 143.222931 209.914765 
L 143.949336 205.75268 
L 144.675741 199.759278 
L 145.402146 191.128778 
L 146.128551 178.700858 
L 146.854956 160.804654 
L 147.218158 213.51711 
L 147.944563 210.940057 
L 148.670968 207.2291 
L 149.397373 201.885322 
L 150.123777 194.190282 
L 150.850182 183.109424 
L 151.576587 167.152988 
L 151.93979 156.708776 
L 152.302992 213.107522 
L 153.029397 210.35025 
L 153.755802 206.379778 
L 154.482207 200.662299 
L 155.208611 192.429129 
L 155.935016 180.573364 
L 156.298219 172.813227 
L 156.661421 214.717967 
L 157.387826 212.669291 
L 158.114231 209.719197 
L 158.840636 205.471062 
L 159.567041 199.353748 
L 160.293445 190.544815 
L 161.01985 177.859952 
L 161.383053 169.557133 
L 161.746255 169.557133 
L 162.109458 159.59375 
L 162.47266 213.396019 
L 163.199065 210.765686 
L 163.92547 206.978006 
L 164.651875 201.523748 
L 165.37828 193.669615 
L 166.104684 182.359663 
L 166.831089 166.073334 
L 167.194292 214.043978 
L 167.920697 211.698746 
L 168.647101 208.321613 
L 169.373506 203.458541 
L 170.099911 196.455717 
L 170.826316 186.371651 
L 171.552721 171.850596 
L 172.279126 150.940276 
L 173.005531 120.829416 
L 173.368733 209.519586 
L 174.095138 205.183622 
L 174.821543 198.939834 
L 175.547948 189.94878 
L 176.274352 177.001661 
L 177.000757 158.35781 
L 177.727162 131.510664 
L 178.090365 210.587711 
L 178.816769 206.721722 
L 179.543174 201.154698 
L 180.269579 193.138183 
L 180.995984 181.594402 
L 181.722389 164.971357 
L 182.448794 141.034173 
L 182.811996 211.540062 
L 183.538401 208.093107 
L 184.264806 203.129493 
L 184.991211 195.981888 
L 185.717616 185.689336 
L 186.44402 170.868063 
L 187.170425 149.525429 
L 187.533628 135.555704 
L 187.89683 210.992215 
L 188.623235 207.304208 
L 189.34964 201.993477 
L 190.076045 194.346026 
L 190.80245 183.333695 
L 191.528854 167.475939 
L 192.255259 144.640771 
L 192.618462 129.700983 
L 192.981664 210.406743 
L 193.708069 206.461128 
L 194.434474 200.779442 
L 195.160879 192.597815 
L 195.887284 180.816272 
L 196.613688 163.850851 
L 196.976891 152.746211 
L 197.340093 212.711266 
L 198.066498 209.779641 
L 198.792903 205.558101 
L 199.519308 199.479083 
L 200.245713 190.725298 
L 200.972118 178.119848 
L 201.698523 159.967999 
L 202.061725 148.086789 
L 202.424927 212.245323 
L 203.151332 209.108684 
L 203.877737 204.591923 
L 204.604142 198.087788 
L 205.330547 188.721832 
L 206.056952 175.234857 
L 206.783357 155.813612 
L 207.146559 143.109703 
L 207.509761 211.747615 
L 208.236166 208.391984 
L 208.962571 203.559875 
L 209.688976 196.601638 
L 210.415381 186.581776 
L 211.141786 172.157095 
L 211.868191 151.39972 
L 212.231393 212.576616 
L 212.957798 209.585746 
L 213.684203 205.278892 
L 214.410608 199.077023 
L 215.137012 190.146332 
L 215.863417 177.286136 
L 216.589822 158.769312 
L 216.953025 213.313576 
L 217.679429 210.646967 
L 218.405834 206.807051 
L 219.132239 201.277572 
L 219.858644 193.315122 
L 220.585049 181.849193 
L 221.311454 165.338257 
L 222.037859 141.564297 
L 222.401061 126.004493 
L 222.764263 210.037094 
L 223.490668 205.928833 
L 224.217073 200.012938 
L 224.943478 191.494049 
L 225.669883 179.226849 
L 226.396288 161.562081 
L 227.122693 136.124815 
L 227.849097 99.49607 
L 228.2123 207.386252 
L 228.938705 202.11162 
L 229.66511 194.516152 
L 230.391514 183.578677 
L 231.117919 167.828713 
L 231.844324 145.148764 
L 232.207527 130.303707 
L 232.570729 210.467015 
L 233.297134 206.54792 
L 234.023539 200.904423 
L 234.749944 192.777788 
L 235.476349 181.075433 
L 236.202753 164.224041 
L 236.929158 139.958038 
L 237.292361 124.074835 
L 237.655563 209.844128 
L 238.381968 205.650963 
L 239.108373 199.612804 
L 239.834778 190.917857 
L 240.561183 178.397132 
L 241.287587 160.367288 
L 242.013992 134.404313 
L 242.740397 97.017629 
L 243.1036 207.138407 
L 243.830004 201.754725 
L 244.556409 194.002222 
L 245.282814 182.838618 
L 246.009219 166.763028 
L 246.735624 143.614179 
L 247.462029 110.279836 
L 247.825231 110.279836 
L 248.188434 88.460993 
L 248.551636 206.282744 
L 249.278041 200.522569 
L 250.004446 192.227918 
L 250.730851 180.28362 
L 251.457255 163.083831 
L 251.820458 151.825788 
L 252.18366 218.88 
L 253.273268 218.520332 
L 254.362875 217.898826 
L 255.08928 217.249727 
L 255.815685 216.315026 
L 256.542089 214.969055 
L 257.268494 213.030857 
L 257.994899 210.239853 
L 258.721304 206.220806 
L 259.447709 200.433379 
L 260.174114 192.099689 
L 260.900519 180.098971 
L 261.626923 162.817936 
L 262.353328 137.933858 
L 263.079733 102.100174 
L 263.442936 207.646662 
L 264.16934 202.486611 
L 264.895745 195.056291 
L 265.62215 184.356477 
L 266.348555 168.948745 
L 266.711757 218.88 
L 267.801365 218.520332 
L 268.890972 217.898826 
L 269.617377 217.249727 
L 270.343782 216.315026 
L 271.070187 214.969055 
L 271.796592 213.030905 
L 272.522996 210.23999 
L 273.249401 206.221086 
L 273.975806 200.434023 
L 274.702211 192.100412 
L 275.428616 180.100722 
L 276.155021 162.820458 
L 276.881426 137.949713 
L 277.60783 102.22931 
L 278.334235 50.865027 
L 278.697438 17.28 
L 279.06064 199.164645 
L 279.787045 190.272506 
L 280.51345 177.467827 
L 281.239855 159.029544 
L 281.96626 132.479269 
L 282.329462 210.684571 
L 283.055867 206.861201 
L 283.782272 201.355548 
L 284.508677 193.427407 
L 285.235081 182.010884 
L 285.961486 165.571497 
L 286.687891 141.898374 
L 287.051094 211.626482 
L 287.777498 208.217552 
L 288.503903 203.308693 
L 289.230308 196.240111 
L 289.956713 186.061387 
L 290.683118 171.404176 
L 291.409523 150.297432 
L 291.772725 212.466388 
L 292.135928 218.682777 
L 292.49913 218.88 
L 303.758405 218.78119 
L 304.848013 218.349589 
L 305.574418 217.898826 
L 306.300822 217.249727 
L 307.027227 216.315026 
L 307.753632 214.969055 
L 308.480037 213.030857 
L 309.206442 210.239853 
L 309.932847 206.220806 
L 310.659252 200.433522 
L 311.385656 192.099689 
L 312.112061 180.098971 
L 312.838466 162.817936 
L 313.201669 213.718438 
L 313.928073 211.229969 
L 314.654478 207.646574 
L 315.380883 202.486611 
L 316.107288 195.056321 
L 316.833693 184.356922 
L 317.560098 168.950103 
L 317.9233 158.865496 
L 318.286503 213.323194 
L 319.012907 210.660818 
L 319.739312 206.826996 
L 320.465717 201.306292 
L 321.192122 193.356479 
L 321.918527 181.908748 
L 322.644932 165.424016 
L 323.008134 154.634495 
L 323.371337 212.900094 
L 324.097741 210.051554 
L 324.824146 205.949655 
L 325.550551 200.042922 
L 326.276956 191.537226 
L 327.003361 179.289324 
L 327.729766 161.652912 
L 328.456171 136.315849 
L 328.819373 119.841411 
L 329.182575 209.420786 
L 329.90898 205.04135 
L 330.635385 198.734962 
L 331.36179 189.653763 
L 332.088195 176.576837 
L 332.8146 157.747917 
L 333.177802 145.43465 
L 333.541005 218.88 
L 334.630612 218.520332 
L 335.720219 217.898826 
L 336.446624 217.249727 
L 337.173029 216.315026 
L 337.899434 214.969055 
L 338.625839 213.030857 
L 339.352243 210.239853 
L 340.078648 206.220806 
L 340.805053 200.433379 
L 341.531458 192.099485 
L 342.257863 180.098971 
L 342.984268 162.819009 
L 343.34747 213.718545 
L 344.073875 211.230124 
L 344.80028 207.646796 
L 345.526685 202.487037 
L 346.25309 195.056984 
L 346.979495 184.357865 
L 347.705899 168.955386 
L 348.069102 168.955386 
L 348.432304 158.884078 
L 348.795507 213.325052 
L 349.158709 218.88 
L 350.248316 218.520348 
L 351.337924 217.898865 
L 352.064329 217.249791 
L 352.790733 216.315117 
L 353.517138 214.969187 
L 354.243543 213.031047 
L 354.969948 210.240126 
L 355.696353 206.2212 
L 356.422758 200.433947 
L 357.149163 192.100711 
L 357.149163 192.100711 
" clip-path="url(#p60ad20df65)" style="fill: none; stroke: #1f77b4; stroke-width: 1.5; stroke-linecap: square"/>
   </g>
   <g id="patch_3">
    <path d="M 37.567344 228.96 
L 37.567344 7.2 
" style="fill: none; stroke: #000000; stroke-width: 0.8; stroke-linejoin: miter; stroke-linecap: square"/>
   </g>
   <g id="patch_4">
    <path d="M 372.367344 228.96 
L 372.367344 7.2 
" style="fill: none; stroke: #000000; stroke-width: 0.8; stroke-linejoin: miter; stroke-linecap: square"/>
   </g>
   <g id="patch_5">
    <path d="M 37.567344 228.96 
L 372.367344 228.96 
" style="fill: none; stroke: #000000; stroke-width: 0.8; stroke-linejoin: miter; stroke-linecap: square"/>
   </g>
   <g id="patch_6">
    <path d="M 37.567344 7.2 
L 372.367344 7.2 
" style="fill: none; stroke: #000000; stroke-width: 0.8; stroke-linejoin: miter; stroke-linecap: square"/>
   </g>
   <g id="legend_1">
    <g id="patch_7">
     <path d="M 314.548024 29.420307 
L 365.367344 29.420307 
Q 367.367344 29.420307 367.367344 27.420307 
L 367.367344 14.2 
Q 367.367344 12.2 365.367344 12.2 
L 314.548024 12.2 
Q 312.548024 12.2 312.548024 14.2 
L 312.548024 27.420307 
Q 312.548024 29.420307 314.548024 29.420307 
z
" style="fill: #ffffff; opacity: 0.8; stroke: #cccccc; stroke-linejoin: miter"/>
    </g>
    <g id="line2d_16">
     <path d="M 316.548024 19.79832 
L 326.548024 19.79832 
L 336.548024 19.79832 
" style="fill: none; stroke: #1f77b4; stroke-width: 1.5; stroke-linecap: square"/>
    </g>
    <g id="text_17">
     <!-- CFL -->
     <g transform="translate(344.548024 23.29832) scale(0.1 -0.1)">
      <use xlink:href="#NimbusSanL-Regu-43" transform="scale(0.996264)"/>
      <use xlink:href="#NimbusSanL-Regu-46" transform="translate(71.929985 0) scale(0.996264)"/>
      <use xlink:href="#NimbusSanL-Regu-4c" transform="translate(132.801616 0) scale(0.996264)"/>
     </g>
    </g>
   </g>
  </g>
 </g>
 <defs>
  <clipPath id="p60ad20df65">
   <rect x="37.567344" y="7.2" width="334.8" height="221.76"/>
  </clipPath>
 </defs>
</svg>
