<?xml version="1.0" encoding="utf-8" standalone="no"?>
<!DOCTYPE svg PUBLIC "-//W3C//DTD SVG 1.1//EN"
  "http://www.w3.org/Graphics/SVG/1.1/DTD/svg11.dtd">
<svg xmlns:xlink="http://www.w3.org/1999/xlink" width="382.150386pt" height="265.600613pt" viewBox="0 0 382.150386 265.600613" xmlns="http://www.w3.org/2000/svg" version="1.1">
 <metadata>
  <rdf:RDF xmlns:dc="http://purl.org/dc/elements/1.1/" xmlns:cc="http://creativecommons.org/ns#" xmlns:rdf="http://www.w3.org/1999/02/22-rdf-syntax-ns#">
   <cc:Work>
    <dc:type rdf:resource="http://purl.org/dc/dcmitype/StillImage"/>
    <dc:date>2025-07-17T20:27:15.458020</dc:date>
    <dc:format>image/svg+xml</dc:format>
    <dc:creator>
     <cc:Agent>
      <dc:title>Matplotlib v3.10.3, https://matplotlib.org/</dc:title>
     </cc:Agent>
    </dc:creator>
   </cc:Work>
  </rdf:RDF>
 </metadata>
 <defs>
  <style type="text/css">*{stroke-linejoin: round; stroke-linecap: butt}</style>
 </defs>
 <g id="figure_1">
  <g id="patch_1">
   <path d="M 0 265.600613 
L 382.150386 265.600613 
L 382.150386 0 
L 0 0 
z
" style="fill: #ffffff"/>
  </g>
  <g id="axes_1">
   <g id="patch_2">
    <path d="M 40.150386 228.96 
L 374.950386 228.96 
L 374.950386 7.2 
L 40.150386 7.2 
z
" style="fill: #ffffff"/>
   </g>
   <g id="matplotlib.axis_1">
    <g id="xtick_1">
     <g id="line2d_1">
      <defs>
       <path id="m2378df8b45" d="M 0 0 
L 0 3.5 
" style="stroke: #000000; stroke-width: 0.8"/>
      </defs>
      <g>
       <use xlink:href="#m2378df8b45" x="55.368567" y="228.96" style="stroke: #000000; stroke-width: 0.8"/>
      </g>
     </g>
     <g id="text_1">
      <!-- $\mathdefault{0}$ -->
      <g transform="translate(52.8779 243.05832) scale(0.1 -0.1)">
       <defs>
        <path id="CMR17-30" d="M 2688 2038 
C 2688 2430 2682 3099 2413 3613 
C 2176 4063 1798 4224 1466 4224 
C 1158 4224 768 4082 525 3620 
C 269 3137 243 2539 243 2038 
C 243 1671 250 1112 448 623 
C 723 -39 1216 -128 1466 -128 
C 1760 -128 2208 -7 2470 604 
C 2662 1048 2688 1568 2688 2038 
z
M 1466 -26 
C 1056 -26 813 328 723 816 
C 653 1196 653 1749 653 2109 
C 653 2604 653 3015 736 3407 
C 858 3954 1216 4121 1466 4121 
C 1728 4121 2067 3947 2189 3420 
C 2272 3054 2278 2623 2278 2109 
C 2278 1691 2278 1176 2202 797 
C 2067 96 1690 -26 1466 -26 
z
" transform="scale(0.015625)"/>
       </defs>
       <use xlink:href="#CMR17-30" transform="scale(0.996264)"/>
      </g>
     </g>
    </g>
    <g id="xtick_2">
     <g id="line2d_2">
      <g>
       <use xlink:href="#m2378df8b45" x="128.009053" y="228.96" style="stroke: #000000; stroke-width: 0.8"/>
      </g>
     </g>
     <g id="text_2">
      <!-- $\mathdefault{200}$ -->
      <g transform="translate(120.537051 243.05832) scale(0.1 -0.1)">
       <defs>
        <path id="CMR17-32" d="M 2669 990 
L 2554 990 
C 2490 537 2438 460 2413 422 
C 2381 371 1920 371 1830 371 
L 602 371 
C 832 620 1280 1073 1824 1596 
C 2214 1966 2669 2400 2669 3033 
C 2669 3788 2067 4224 1395 4224 
C 691 4224 262 3603 262 3027 
C 262 2777 448 2745 525 2745 
C 589 2745 781 2783 781 3007 
C 781 3206 614 3264 525 3264 
C 486 3264 448 3257 422 3244 
C 544 3788 915 4057 1306 4057 
C 1862 4057 2227 3616 2227 3033 
C 2227 2477 1901 1998 1536 1583 
L 262 147 
L 262 0 
L 2515 0 
L 2669 990 
z
" transform="scale(0.015625)"/>
       </defs>
       <use xlink:href="#CMR17-32" transform="scale(0.996264)"/>
       <use xlink:href="#CMR17-30" transform="translate(45.690477 0) scale(0.996264)"/>
       <use xlink:href="#CMR17-30" transform="translate(91.380954 0) scale(0.996264)"/>
      </g>
     </g>
    </g>
    <g id="xtick_3">
     <g id="line2d_3">
      <g>
       <use xlink:href="#m2378df8b45" x="200.649539" y="228.96" style="stroke: #000000; stroke-width: 0.8"/>
      </g>
     </g>
     <g id="text_3">
      <!-- $\mathdefault{400}$ -->
      <g transform="translate(193.177537 243.05832) scale(0.1 -0.1)">
       <defs>
        <path id="CMR17-34" d="M 2150 4147 
C 2150 4281 2144 4288 2029 4288 
L 128 1254 
L 128 1088 
L 1779 1088 
L 1779 460 
C 1779 230 1766 166 1318 166 
L 1197 166 
L 1197 0 
C 1402 12 1747 12 1965 12 
C 2182 12 2528 12 2733 0 
L 2733 166 
L 2611 166 
C 2163 166 2150 230 2150 460 
L 2150 1088 
L 2803 1088 
L 2803 1254 
L 2150 1254 
L 2150 4147 
z
M 1798 3723 
L 1798 1254 
L 256 1254 
L 1798 3723 
z
" transform="scale(0.015625)"/>
       </defs>
       <use xlink:href="#CMR17-34" transform="scale(0.996264)"/>
       <use xlink:href="#CMR17-30" transform="translate(45.690477 0) scale(0.996264)"/>
       <use xlink:href="#CMR17-30" transform="translate(91.380954 0) scale(0.996264)"/>
      </g>
     </g>
    </g>
    <g id="xtick_4">
     <g id="line2d_4">
      <g>
       <use xlink:href="#m2378df8b45" x="273.290025" y="228.96" style="stroke: #000000; stroke-width: 0.8"/>
      </g>
     </g>
     <g id="text_4">
      <!-- $\mathdefault{600}$ -->
      <g transform="translate(265.818023 243.05832) scale(0.1 -0.1)">
       <defs>
        <path id="CMR17-36" d="M 678 2198 
C 678 3712 1395 4076 1811 4076 
C 1946 4076 2272 4049 2400 3782 
C 2298 3782 2106 3782 2106 3558 
C 2106 3385 2246 3328 2336 3328 
C 2394 3328 2566 3353 2566 3571 
C 2566 3987 2246 4224 1805 4224 
C 1043 4224 243 3411 243 2011 
C 243 257 966 -128 1478 -128 
C 2099 -128 2688 431 2688 1295 
C 2688 2101 2170 2688 1517 2688 
C 1126 2688 838 2430 678 1979 
L 678 2198 
z
M 1478 25 
C 691 25 691 1212 691 1450 
C 691 1914 909 2585 1504 2585 
C 1613 2585 1926 2585 2138 2140 
C 2253 1889 2253 1624 2253 1302 
C 2253 954 2253 696 2118 438 
C 1978 173 1773 25 1478 25 
z
" transform="scale(0.015625)"/>
       </defs>
       <use xlink:href="#CMR17-36" transform="scale(0.996264)"/>
       <use xlink:href="#CMR17-30" transform="translate(45.690477 0) scale(0.996264)"/>
       <use xlink:href="#CMR17-30" transform="translate(91.380954 0) scale(0.996264)"/>
      </g>
     </g>
    </g>
    <g id="xtick_5">
     <g id="line2d_5">
      <g>
       <use xlink:href="#m2378df8b45" x="345.930511" y="228.96" style="stroke: #000000; stroke-width: 0.8"/>
      </g>
     </g>
     <g id="text_5">
      <!-- $\mathdefault{800}$ -->
      <g transform="translate(338.458509 243.05832) scale(0.1 -0.1)">
       <defs>
        <path id="CMR17-38" d="M 1741 2289 
C 2144 2494 2554 2803 2554 3298 
C 2554 3884 1990 4224 1472 4224 
C 890 4224 378 3800 378 3215 
C 378 3054 416 2777 666 2533 
C 730 2469 998 2276 1171 2154 
C 883 2006 211 1652 211 945 
C 211 282 838 -128 1459 -128 
C 2144 -128 2720 366 2720 1022 
C 2720 1607 2330 1877 2074 2051 
L 1741 2289 
z
M 902 2855 
C 851 2887 595 3086 595 3388 
C 595 3781 998 4076 1459 4076 
C 1965 4076 2336 3716 2336 3298 
C 2336 2700 1670 2359 1638 2359 
C 1632 2359 1626 2359 1574 2398 
L 902 2855 
z
M 2080 1536 
C 2176 1466 2483 1253 2483 861 
C 2483 385 2010 25 1472 25 
C 890 25 448 443 448 951 
C 448 1459 838 1884 1280 2083 
L 2080 1536 
z
" transform="scale(0.015625)"/>
       </defs>
       <use xlink:href="#CMR17-38" transform="scale(0.996264)"/>
       <use xlink:href="#CMR17-30" transform="translate(45.690477 0) scale(0.996264)"/>
       <use xlink:href="#CMR17-30" transform="translate(91.380954 0) scale(0.996264)"/>
      </g>
     </g>
    </g>
    <g id="text_6">
     <!-- Iteration -->
     <g transform="translate(189.603009 256.278627) scale(0.1 -0.1)">
      <defs>
       <path id="NimbusSanL-Regu-49" d="M 1242 4672 
L 640 4672 
L 640 0 
L 1242 0 
L 1242 4672 
z
" transform="scale(0.015625)"/>
       <path id="NimbusSanL-Regu-74" d="M 1626 3328 
L 1075 3328 
L 1075 4249 
L 544 4249 
L 544 3328 
L 90 3328 
L 90 2892 
L 544 2892 
L 544 402 
C 544 64 774 -128 1190 -128 
C 1318 -128 1446 -116 1626 -84 
L 1626 364 
C 1555 345 1472 339 1370 339 
C 1139 339 1075 402 1075 634 
L 1075 2892 
L 1626 2892 
L 1626 3328 
z
" transform="scale(0.015625)"/>
       <path id="NimbusSanL-Regu-65" d="M 3283 1484 
C 3283 1998 3245 2311 3149 2565 
C 2931 3123 2419 3456 1792 3456 
C 858 3456 256 2734 256 1619 
C 256 545 838 -128 1779 -128 
C 2547 -128 3078 307 3213 1018 
L 2675 1018 
C 2528 588 2227 364 1798 364 
C 1459 364 1171 514 992 787 
C 864 974 819 1161 813 1484 
L 3283 1484 
z
M 826 1920 
C 870 2552 1248 2963 1786 2963 
C 2310 2963 2714 2519 2714 1959 
C 2714 1946 2714 1933 2707 1920 
L 826 1920 
z
" transform="scale(0.015625)"/>
       <path id="NimbusSanL-Regu-72" d="M 442 3328 
L 442 0 
L 979 0 
L 979 1727 
C 979 2203 1101 2514 1357 2698 
C 1523 2819 1683 2857 2054 2863 
L 2054 3404 
C 1965 3449 1920 3456 1850 3456 
C 1504 3456 1242 3251 934 2750 
L 934 3328 
L 442 3328 
z
" transform="scale(0.015625)"/>
       <path id="NimbusSanL-Regu-61" d="M 3424 332 
C 3366 320 3341 320 3309 320 
C 3123 320 3021 415 3021 581 
L 3021 2542 
C 3021 3135 2586 3456 1760 3456 
C 1274 3456 870 3315 646 3065 
C 493 2893 429 2702 416 2370 
L 954 2370 
C 998 2778 1242 2963 1741 2963 
C 2221 2963 2490 2784 2490 2466 
L 2490 2326 
C 2490 2103 2355 2007 1933 1956 
C 1178 1861 1062 1835 858 1753 
C 467 1593 269 1294 269 861 
C 269 256 691 -128 1370 -128 
C 1792 -128 2131 19 2509 364 
C 2547 25 2714 -128 3059 -128 
C 3168 -128 3251 -116 3424 -71 
L 3424 332 
z
M 2490 1071 
C 2490 893 2438 785 2278 638 
C 2061 441 1798 339 1485 339 
C 1069 339 826 536 826 874 
C 826 1224 1062 1402 1632 1485 
C 2195 1562 2310 1587 2490 1670 
L 2490 1071 
z
" transform="scale(0.015625)"/>
       <path id="NimbusSanL-Regu-69" d="M 960 3358 
L 429 3358 
L 429 0 
L 960 0 
L 960 3358 
z
M 960 4672 
L 422 4672 
L 422 3999 
L 960 3999 
L 960 4672 
z
" transform="scale(0.015625)"/>
       <path id="NimbusSanL-Regu-6f" d="M 1741 3456 
C 800 3456 230 2784 230 1663 
C 230 543 794 -128 1747 -128 
C 2688 -128 3264 543 3264 1638 
C 3264 2791 2707 3456 1741 3456 
z
M 1747 2963 
C 2349 2963 2707 2472 2707 1644 
C 2707 861 2336 364 1747 364 
C 1152 364 787 855 787 1663 
C 787 2466 1152 2963 1747 2963 
z
" transform="scale(0.015625)"/>
       <path id="NimbusSanL-Regu-6e" d="M 448 3328 
L 448 0 
L 986 0 
L 986 1835 
C 986 2539 1344 2988 1894 2988 
C 2317 2988 2586 2732 2586 2328 
L 2586 0 
L 3117 0 
L 3117 2539 
C 3117 3097 2701 3456 2054 3456 
C 1555 3456 1235 3263 941 2796 
L 941 3328 
L 448 3328 
z
" transform="scale(0.015625)"/>
      </defs>
      <use xlink:href="#NimbusSanL-Regu-49" transform="scale(0.996264)"/>
      <use xlink:href="#NimbusSanL-Regu-74" transform="translate(27.69517 0) scale(0.996264)"/>
      <use xlink:href="#NimbusSanL-Regu-65" transform="translate(55.390339 0) scale(0.996264)"/>
      <use xlink:href="#NimbusSanL-Regu-72" transform="translate(110.782016 0) scale(0.996264)"/>
      <use xlink:href="#NimbusSanL-Regu-61" transform="translate(142.961149 0) scale(0.996264)"/>
      <use xlink:href="#NimbusSanL-Regu-74" transform="translate(198.352826 0) scale(0.996264)"/>
      <use xlink:href="#NimbusSanL-Regu-69" transform="translate(226.047996 0) scale(0.996264)"/>
      <use xlink:href="#NimbusSanL-Regu-6f" transform="translate(248.16478 0) scale(0.996264)"/>
      <use xlink:href="#NimbusSanL-Regu-6e" transform="translate(303.556457 0) scale(0.996264)"/>
     </g>
    </g>
   </g>
   <g id="matplotlib.axis_2">
    <g id="ytick_1">
     <g id="line2d_6">
      <defs>
       <path id="m795220e87d" d="M 0 0 
L -3.5 0 
" style="stroke: #000000; stroke-width: 0.8"/>
      </defs>
      <g>
       <use xlink:href="#m795220e87d" x="40.150386" y="225.663507" style="stroke: #000000; stroke-width: 0.8"/>
      </g>
     </g>
     <g id="text_7">
      <!-- $\mathdefault{−8}$ -->
      <g transform="translate(20.420307 229.212667) scale(0.1 -0.1)">
       <defs>
        <path id="CMSY10-0" d="M 4218 1472 
C 4326 1472 4442 1472 4442 1600 
C 4442 1728 4326 1728 4218 1728 
L 755 1728 
C 646 1728 531 1728 531 1600 
C 531 1472 646 1472 755 1472 
L 4218 1472 
z
" transform="scale(0.015625)"/>
       </defs>
       <use xlink:href="#CMSY10-0" transform="scale(0.996264)"/>
       <use xlink:href="#CMR17-38" transform="translate(77.487468 0) scale(0.996264)"/>
      </g>
     </g>
    </g>
    <g id="ytick_2">
     <g id="line2d_7">
      <g>
       <use xlink:href="#m795220e87d" x="40.150386" y="190.909873" style="stroke: #000000; stroke-width: 0.8"/>
      </g>
     </g>
     <g id="text_8">
      <!-- $\mathdefault{−7}$ -->
      <g transform="translate(20.420307 194.459033) scale(0.1 -0.1)">
       <defs>
        <path id="CMR17-37" d="M 2886 3955 
L 2886 4096 
L 1382 4096 
C 634 4096 621 4166 595 4288 
L 480 4288 
L 294 3104 
L 410 3104 
C 429 3226 474 3552 550 3673 
C 589 3724 1062 3724 1171 3724 
L 2579 3724 
L 1869 2670 
C 1395 1961 1069 1003 1069 166 
C 1069 89 1069 -128 1299 -128 
C 1530 -128 1530 89 1530 172 
L 1530 466 
C 1530 1514 1709 2204 2003 2644 
L 2886 3955 
z
" transform="scale(0.015625)"/>
       </defs>
       <use xlink:href="#CMSY10-0" transform="scale(0.996264)"/>
       <use xlink:href="#CMR17-37" transform="translate(77.487468 0) scale(0.996264)"/>
      </g>
     </g>
    </g>
    <g id="ytick_3">
     <g id="line2d_8">
      <g>
       <use xlink:href="#m795220e87d" x="40.150386" y="156.156238" style="stroke: #000000; stroke-width: 0.8"/>
      </g>
     </g>
     <g id="text_9">
      <!-- $\mathdefault{−6}$ -->
      <g transform="translate(20.420307 159.705398) scale(0.1 -0.1)">
       <use xlink:href="#CMSY10-0" transform="scale(0.996264)"/>
       <use xlink:href="#CMR17-36" transform="translate(77.487468 0) scale(0.996264)"/>
      </g>
     </g>
    </g>
    <g id="ytick_4">
     <g id="line2d_9">
      <g>
       <use xlink:href="#m795220e87d" x="40.150386" y="121.402604" style="stroke: #000000; stroke-width: 0.8"/>
      </g>
     </g>
     <g id="text_10">
      <!-- $\mathdefault{−5}$ -->
      <g transform="translate(20.420307 124.951764) scale(0.1 -0.1)">
       <defs>
        <path id="CMR17-35" d="M 730 3750 
C 794 3724 1056 3641 1325 3641 
C 1920 3641 2246 3961 2432 4140 
C 2432 4191 2432 4224 2394 4224 
C 2387 4224 2374 4224 2323 4198 
C 2099 4102 1837 4032 1517 4032 
C 1325 4032 1037 4055 723 4191 
C 653 4224 640 4224 634 4224 
C 602 4224 595 4217 595 4090 
L 595 2231 
C 595 2113 595 2080 659 2080 
C 691 2080 704 2093 736 2139 
C 941 2435 1222 2560 1542 2560 
C 1766 2560 2246 2415 2246 1293 
C 2246 1087 2246 716 2054 422 
C 1894 159 1645 25 1370 25 
C 947 25 518 319 403 812 
C 429 806 480 793 506 793 
C 589 793 749 838 749 1036 
C 749 1209 627 1280 506 1280 
C 358 1280 262 1190 262 1011 
C 262 454 704 -128 1382 -128 
C 2042 -128 2669 441 2669 1267 
C 2669 2054 2170 2662 1549 2662 
C 1222 2662 947 2540 730 2304 
L 730 3750 
z
" transform="scale(0.015625)"/>
       </defs>
       <use xlink:href="#CMSY10-0" transform="scale(0.996264)"/>
       <use xlink:href="#CMR17-35" transform="translate(77.487468 0) scale(0.996264)"/>
      </g>
     </g>
    </g>
    <g id="ytick_5">
     <g id="line2d_10">
      <g>
       <use xlink:href="#m795220e87d" x="40.150386" y="86.64897" style="stroke: #000000; stroke-width: 0.8"/>
      </g>
     </g>
     <g id="text_11">
      <!-- $\mathdefault{−4}$ -->
      <g transform="translate(20.420307 90.19813) scale(0.1 -0.1)">
       <use xlink:href="#CMSY10-0" transform="scale(0.996264)"/>
       <use xlink:href="#CMR17-34" transform="translate(77.487468 0) scale(0.996264)"/>
      </g>
     </g>
    </g>
    <g id="ytick_6">
     <g id="line2d_11">
      <g>
       <use xlink:href="#m795220e87d" x="40.150386" y="51.895335" style="stroke: #000000; stroke-width: 0.8"/>
      </g>
     </g>
     <g id="text_12">
      <!-- $\mathdefault{−3}$ -->
      <g transform="translate(20.420307 55.444495) scale(0.1 -0.1)">
       <defs>
        <path id="CMR17-33" d="M 1414 2176 
C 1984 2176 2234 1673 2234 1094 
C 2234 322 1824 25 1453 25 
C 1114 25 563 193 390 691 
C 422 678 454 678 486 678 
C 640 678 755 780 755 947 
C 755 1132 614 1216 486 1216 
C 378 1216 211 1164 211 927 
C 211 335 787 -128 1466 -128 
C 2176 -128 2720 432 2720 1087 
C 2720 1718 2208 2176 1600 2246 
C 2086 2347 2554 2776 2554 3353 
C 2554 3856 2048 4224 1472 4224 
C 890 4224 378 3862 378 3347 
C 378 3123 544 3084 627 3084 
C 762 3084 877 3167 877 3334 
C 877 3500 762 3584 627 3584 
C 602 3584 570 3584 544 3571 
C 730 3999 1235 4076 1459 4076 
C 1683 4076 2106 3966 2106 3347 
C 2106 3167 2080 2851 1862 2574 
C 1670 2329 1453 2316 1242 2297 
C 1210 2297 1062 2284 1037 2284 
C 992 2278 966 2272 966 2227 
C 966 2182 973 2176 1101 2176 
L 1414 2176 
z
" transform="scale(0.015625)"/>
       </defs>
       <use xlink:href="#CMSY10-0" transform="scale(0.996264)"/>
       <use xlink:href="#CMR17-33" transform="translate(77.487468 0) scale(0.996264)"/>
      </g>
     </g>
    </g>
    <g id="ytick_7">
     <g id="line2d_12">
      <g>
       <use xlink:href="#m795220e87d" x="40.150386" y="17.141701" style="stroke: #000000; stroke-width: 0.8"/>
      </g>
     </g>
     <g id="text_13">
      <!-- $\mathdefault{−2}$ -->
      <g transform="translate(20.420307 20.690861) scale(0.1 -0.1)">
       <use xlink:href="#CMSY10-0" transform="scale(0.996264)"/>
       <use xlink:href="#CMR17-32" transform="translate(77.487468 0) scale(0.996264)"/>
      </g>
     </g>
    </g>
    <g id="text_14">
     <!-- Linear Solver residual - Blade_18 -->
     <g transform="translate(14.29832 190.622039) rotate(-90) scale(0.1 -0.1)">
      <defs>
       <path id="NimbusSanL-Regu-4c" d="M 1107 4672 
L 512 4672 
L 512 0 
L 3411 0 
L 3411 524 
L 1107 524 
L 1107 4672 
z
" transform="scale(0.015625)"/>
       <path id="NimbusSanL-Regu-53" d="M 3814 3295 
C 3808 4204 3181 4736 2106 4736 
C 1082 4736 448 4211 448 3372 
C 448 2806 749 2450 1363 2291 
L 2522 1986 
C 3110 1833 3379 1598 3379 1236 
C 3379 988 3245 733 3046 593 
C 2861 466 2566 396 2189 396 
C 1683 396 1338 517 1114 784 
C 941 988 864 1210 870 1496 
L 307 1496 
C 314 1070 397 790 582 536 
C 902 102 1440 -128 2150 -128 
C 2707 -128 3162 0 3462 230 
C 3776 479 3974 892 3974 1293 
C 3974 1865 3616 2284 2982 2456 
L 1811 2768 
C 1248 2920 1043 3098 1043 3454 
C 1043 3925 1459 4236 2086 4236 
C 2829 4236 3245 3899 3251 3295 
L 3814 3295 
z
" transform="scale(0.015625)"/>
       <path id="NimbusSanL-Regu-6c" d="M 973 4672 
L 435 4672 
L 435 0 
L 973 0 
L 973 4672 
z
" transform="scale(0.015625)"/>
       <path id="NimbusSanL-Regu-76" d="M 1824 0 
L 3110 3328 
L 2509 3328 
L 1562 629 
L 666 3328 
L 64 3328 
L 1242 0 
L 1824 0 
z
" transform="scale(0.015625)"/>
       <path id="NimbusSanL-Regu-73" d="M 2803 2428 
C 2797 3084 2362 3456 1587 3456 
C 806 3456 301 3052 301 2434 
C 301 1912 570 1663 1363 1472 
L 1862 1351 
C 2234 1262 2381 1129 2381 887 
C 2381 574 2067 364 1600 364 
C 1312 364 1069 447 934 587 
C 851 683 813 778 781 1014 
L 218 1014 
C 243 243 678 -128 1555 -128 
C 2400 -128 2938 288 2938 931 
C 2938 1428 2656 1702 1990 1861 
L 1478 1982 
C 1043 2084 858 2224 858 2459 
C 858 2765 1133 2963 1568 2963 
C 1997 2963 2227 2778 2240 2428 
L 2803 2428 
z
" transform="scale(0.015625)"/>
       <path id="NimbusSanL-Regu-64" d="M 3168 4672 
L 2637 4672 
L 2637 2937 
C 2413 3276 2054 3456 1606 3456 
C 736 3456 166 2759 166 1695 
C 166 568 723 -128 1626 -128 
C 2086 -128 2406 44 2694 460 
L 2694 19 
L 3168 19 
L 3168 4672 
z
M 1696 2956 
C 2272 2956 2637 2447 2637 1651 
C 2637 880 2266 371 1702 371 
C 1114 371 723 887 723 1663 
C 723 2440 1114 2956 1696 2956 
z
" transform="scale(0.015625)"/>
       <path id="NimbusSanL-Regu-75" d="M 3085 19 
L 3085 3328 
L 2554 3328 
L 2554 1454 
C 2554 780 2195 339 1638 339 
C 1216 339 947 591 947 988 
L 947 3328 
L 416 3328 
L 416 780 
C 416 230 832 -128 1485 -128 
C 1978 -128 2291 44 2605 484 
L 2605 19 
L 3085 19 
z
" transform="scale(0.015625)"/>
       <path id="NimbusSanL-Regu-2d" d="M 1818 1996 
L 294 1996 
L 294 1536 
L 1818 1536 
L 1818 1996 
z
" transform="scale(0.015625)"/>
       <path id="NimbusSanL-Regu-42" d="M 506 0 
L 2611 0 
C 3053 0 3379 121 3629 390 
C 3859 632 3987 961 3987 1321 
C 3987 1878 3731 2214 3136 2444 
C 3558 2643 3782 2994 3782 3476 
C 3782 3821 3654 4127 3411 4345 
C 3168 4569 2848 4672 2400 4672 
L 506 4672 
L 506 0 
z
M 1101 2636 
L 1101 4147 
L 2253 4147 
C 2586 4147 2771 4101 2931 3977 
C 3098 3847 3187 3652 3187 3391 
C 3187 3138 3098 2936 2931 2806 
C 2771 2682 2586 2636 2253 2636 
L 1101 2636 
z
M 1101 524 
L 1101 2112 
L 2554 2112 
C 2842 2112 3034 2042 3174 1890 
C 3315 1745 3392 1542 3392 1315 
C 3392 1093 3315 891 3174 746 
C 3034 594 2842 524 2554 524 
L 1101 524 
z
" transform="scale(0.015625)"/>
       <path id="NimbusSanL-Regu-31" d="M 1658 3232 
L 1658 0 
L 2221 0 
L 2221 4537 
L 1850 4537 
C 1651 3840 1523 3744 653 3635 
L 653 3232 
L 1658 3232 
z
" transform="scale(0.015625)"/>
       <path id="NimbusSanL-Regu-38" d="M 2502 2399 
C 2970 2681 3123 2910 3123 3337 
C 3123 4044 2566 4544 1760 4544 
C 960 4544 397 4044 397 3337 
C 397 2917 550 2687 1011 2399 
C 493 2150 237 1774 237 1276 
C 237 447 864 -128 1760 -128 
C 2656 -128 3283 447 3283 1270 
C 3283 1774 3027 2150 2502 2399 
z
M 1760 4044 
C 2240 4044 2547 3764 2547 3324 
C 2547 2904 2234 2624 1760 2624 
C 1286 2624 973 2904 973 3331 
C 973 3764 1286 4044 1760 4044 
z
M 1760 2150 
C 2323 2150 2707 1793 2707 1264 
C 2707 728 2323 371 1747 371 
C 1197 371 813 734 813 1264 
C 813 1793 1197 2150 1760 2150 
z
" transform="scale(0.015625)"/>
      </defs>
      <use xlink:href="#NimbusSanL-Regu-4c" transform="scale(0.996264)"/>
      <use xlink:href="#NimbusSanL-Regu-69" transform="translate(55.391677 0) scale(0.996264)"/>
      <use xlink:href="#NimbusSanL-Regu-6e" transform="translate(77.508461 0) scale(0.996264)"/>
      <use xlink:href="#NimbusSanL-Regu-65" transform="translate(132.900138 0) scale(0.996264)"/>
      <use xlink:href="#NimbusSanL-Regu-61" transform="translate(188.291815 0) scale(0.996264)"/>
      <use xlink:href="#NimbusSanL-Regu-72" transform="translate(243.683492 0) scale(0.996264)"/>
      <use xlink:href="#NimbusSanL-Regu-53" transform="translate(304.553892 0) scale(0.996264)"/>
      <use xlink:href="#NimbusSanL-Regu-6f" transform="translate(371.003923 0) scale(0.996264)"/>
      <use xlink:href="#NimbusSanL-Regu-6c" transform="translate(426.3956 0) scale(0.996264)"/>
      <use xlink:href="#NimbusSanL-Regu-76" transform="translate(448.512384 0) scale(0.996264)"/>
      <use xlink:href="#NimbusSanL-Regu-65" transform="translate(495.834955 0) scale(0.996264)"/>
      <use xlink:href="#NimbusSanL-Regu-72" transform="translate(551.226632 0) scale(0.996264)"/>
      <use xlink:href="#NimbusSanL-Regu-72" transform="translate(612.097031 0) scale(0.996264)"/>
      <use xlink:href="#NimbusSanL-Regu-65" transform="translate(645.272261 0) scale(0.996264)"/>
      <use xlink:href="#NimbusSanL-Regu-73" transform="translate(700.663938 0) scale(0.996264)"/>
      <use xlink:href="#NimbusSanL-Regu-69" transform="translate(750.477138 0) scale(0.996264)"/>
      <use xlink:href="#NimbusSanL-Regu-64" transform="translate(772.593923 0) scale(0.996264)"/>
      <use xlink:href="#NimbusSanL-Regu-75" transform="translate(827.9856 0) scale(0.996264)"/>
      <use xlink:href="#NimbusSanL-Regu-61" transform="translate(883.377277 0) scale(0.996264)"/>
      <use xlink:href="#NimbusSanL-Regu-6c" transform="translate(938.768954 0) scale(0.996264)"/>
      <use xlink:href="#NimbusSanL-Regu-2d" transform="translate(988.580908 0) scale(0.996264)"/>
      <use xlink:href="#NimbusSanL-Regu-42" transform="translate(1049.451307 0) scale(0.996264)"/>
      <use xlink:href="#NimbusSanL-Regu-6c" transform="translate(1115.901338 0) scale(0.996264)"/>
      <use xlink:href="#NimbusSanL-Regu-61" transform="translate(1138.018122 0) scale(0.996264)"/>
      <use xlink:href="#NimbusSanL-Regu-64" transform="translate(1193.409799 0) scale(0.996264)"/>
      <use xlink:href="#NimbusSanL-Regu-65" transform="translate(1248.801476 0) scale(0.996264)"/>
      <use xlink:href="#NimbusSanL-Regu-31" transform="translate(1340.058718 0) scale(0.996264)"/>
      <use xlink:href="#NimbusSanL-Regu-38" transform="translate(1395.450395 0) scale(0.996264)"/>
      <path d="M 1310.170494 0 
L 1340.058718 0 
L 1340.058718 0.3985 
L 1310.170494 0.3985 
L 1310.170494 0 
z
"/>
     </g>
    </g>
   </g>
   <g id="line2d_13">
    <path d="M 55.368567 93.828628 
L 55.73177 89.537079 
L 56.094972 74.05659 
L 56.458175 46.977125 
L 56.821377 114.458312 
L 57.18458 99.956204 
L 57.547782 119.82335 
L 58.274187 90.791757 
L 58.637389 105.997532 
L 59.000592 90.906302 
L 59.363794 100.622563 
L 59.726997 103.5541 
L 60.090199 101.59501 
L 60.453401 96.310445 
L 61.179806 56.230027 
L 61.543009 30.000051 
L 61.906211 123.436002 
L 62.632616 93.072168 
L 62.995818 101.733918 
L 63.359021 104.461088 
L 63.722223 103.852332 
L 64.085426 100.062826 
L 65.538235 44.403988 
L 65.901438 111.91059 
L 66.627843 87.667871 
L 66.991045 115.917772 
L 67.71745 86.677955 
L 68.443855 102.990436 
L 68.807057 105.669736 
L 69.17026 87.559255 
L 69.533462 87.837795 
L 69.896665 96.279809 
L 70.62307 41.282948 
L 70.986272 101.696453 
L 71.349474 89.67674 
L 71.712677 117.441992 
L 72.439082 88.855273 
L 73.165487 111.949862 
L 73.528689 93.870543 
L 73.891891 96.161949 
L 74.255094 87.596587 
L 74.618296 100.128424 
L 75.344701 45.096729 
L 75.707904 105.69957 
L 76.071106 93.274209 
L 76.434308 124.761216 
L 77.160713 96.302146 
L 77.523916 115.729022 
L 77.887118 99.368743 
L 78.613523 107.639315 
L 78.976725 90.081325 
L 79.339928 101.029167 
L 79.70313 93.592917 
L 80.429535 17.28 
L 80.792738 99.000031 
L 81.15594 86.922789 
L 81.519142 115.893774 
L 82.245547 86.762541 
L 82.60875 98.334393 
L 82.971952 105.564316 
L 83.335155 106.839455 
L 83.698357 102.718065 
L 84.424762 71.190343 
L 84.787964 46.555397 
L 85.151167 117.957838 
L 85.877572 92.927412 
L 86.240774 123.691288 
L 86.967179 94.037559 
L 87.330381 107.680125 
L 87.693584 90.385334 
L 88.056786 98.317649 
L 88.419989 103.73521 
L 88.783191 91.528241 
L 89.146393 86.056927 
L 89.872798 30.47476 
L 90.236001 121.483653 
L 90.962406 96.828462 
L 91.325608 128.448388 
L 92.052013 96.197694 
L 92.415215 105.591014 
L 92.778418 87.777932 
L 93.14162 91.907498 
L 93.504823 89.678744 
L 93.868025 96.781784 
L 94.957632 35.346589 
L 95.320835 119.418837 
L 96.04724 94.130565 
L 96.410442 123.875715 
L 97.136847 91.481834 
L 97.500049 102.631859 
L 98.226454 107.57193 
L 98.589657 101.274434 
L 98.952859 91.065785 
L 99.316061 77.195322 
L 99.679264 51.031738 
L 100.042466 53.33738 
L 100.405669 34.190042 
L 100.768871 113.895915 
L 101.495276 89.002155 
L 101.858479 119.183975 
L 102.584883 89.805369 
L 102.948086 101.265225 
L 103.311288 106.417876 
L 103.674491 87.132746 
L 104.037693 89.418559 
L 104.400896 101.890703 
L 104.764098 91.389364 
L 105.490503 24.120845 
L 105.853705 109.398685 
L 106.216908 96.86522 
L 106.58011 127.908225 
L 107.306515 98.194865 
L 107.669717 109.867012 
L 108.03292 89.945071 
L 108.396122 94.781041 
L 108.759325 91.46999 
L 109.122527 100.144179 
L 109.48573 85.339383 
L 109.848932 57.382653 
L 110.212134 20.651158 
L 110.575337 116.015123 
L 111.301742 91.212679 
L 111.664944 121.50597 
L 112.391349 92.160269 
L 112.754551 103.729657 
L 113.117754 109.334745 
L 113.480956 107.389974 
L 113.844159 102.803923 
L 114.207361 87.725308 
L 114.933766 30.740778 
L 115.296968 129.782309 
L 116.386576 91.757195 
L 116.749778 116.626783 
L 117.112981 99.513911 
L 117.476183 113.167189 
L 117.839385 93.420204 
L 118.202588 96.134282 
L 118.56579 91.200383 
L 118.928993 88.802792 
L 119.292195 97.465822 
L 120.0186 47.484258 
L 120.381802 122.891234 
L 121.108207 96.474276 
L 121.47141 123.620001 
L 122.197815 89.797947 
L 122.561017 102.646663 
L 122.924219 109.050655 
L 123.287422 89.749923 
L 123.650624 87.818473 
L 124.013827 90.180568 
L 124.377029 72.662032 
L 124.740232 46.470858 
L 125.103434 129.960122 
L 126.193041 90.829426 
L 126.556244 114.920337 
L 126.919446 98.19059 
L 127.282649 113.393343 
L 127.645851 93.805447 
L 128.009053 95.736597 
L 128.372256 94.819089 
L 128.735458 87.755969 
L 129.098661 85.021345 
L 129.825066 26.840821 
L 130.188268 124.311478 
L 130.914673 98.760094 
L 131.277875 127.106979 
L 132.00428 93.812768 
L 132.367483 104.702793 
L 132.730685 110.215354 
L 133.093887 105.587528 
L 133.45709 96.020369 
L 133.820292 98.390889 
L 134.546697 36.419288 
L 134.9099 129.965121 
L 135.999507 88.913524 
L 136.362709 114.74758 
L 136.725912 98.595192 
L 137.089114 114.843152 
L 137.452317 96.279614 
L 137.815519 100.113375 
L 138.178722 91.339714 
L 138.541924 91.023252 
L 138.905126 96.993695 
L 139.268329 72.494595 
L 139.631531 39.404227 
L 139.994734 125.817518 
L 141.084341 88.815296 
L 141.447543 115.251301 
L 141.810746 98.451399 
L 142.173948 112.93608 
L 142.537151 91.272082 
L 142.900353 92.544703 
L 143.263556 88.058301 
L 143.626758 95.610567 
L 143.98996 79.785049 
L 144.353163 48.487616 
L 144.716365 133.573594 
L 145.805973 95.383265 
L 146.169175 123.089043 
L 146.89558 90.831439 
L 147.258782 104.602433 
L 147.621985 108.526385 
L 147.985187 104.100951 
L 148.34839 91.807935 
L 148.711592 99.77038 
L 149.437997 54.003882 
L 149.801199 27.886082 
L 150.164402 119.602743 
L 150.890807 94.043993 
L 151.254009 121.477491 
L 151.980414 88.277879 
L 152.343616 100.108559 
L 152.706819 105.044806 
L 154.159628 83.377599 
L 154.886033 32.847246 
L 155.249236 114.272222 
L 155.975641 89.162233 
L 156.338843 115.866794 
L 156.702045 99.898843 
L 157.065248 114.088035 
L 157.42845 94.144276 
L 157.791653 93.650656 
L 158.154855 101.426951 
L 158.88126 74.459817 
L 159.244462 47.968769 
L 159.607665 132.908493 
L 160.697272 94.231437 
L 161.060475 121.850269 
L 161.786879 90.728156 
L 162.150082 105.057497 
L 162.513284 109.373616 
L 162.876487 105.738368 
L 163.239689 98.652962 
L 163.602892 98.304414 
L 164.329296 49.175588 
L 164.692499 68.585892 
L 165.055701 48.9917 
L 165.418904 115.436744 
L 166.145309 90.677239 
L 166.508511 119.613116 
L 167.234916 88.527788 
L 167.598118 100.926637 
L 167.961321 106.702837 
L 168.324523 101.306445 
L 168.687726 87.68724 
L 169.050928 83.17054 
L 169.777333 47.239812 
L 170.140535 121.679168 
L 170.86694 96.690942 
L 171.230143 126.063345 
L 171.956547 93.476996 
L 172.31975 105.195008 
L 172.682952 87.110962 
L 173.046155 92.678791 
L 173.409357 90.819504 
L 173.77256 91.57814 
L 174.135762 93.480042 
L 174.498965 92.20225 
L 175.225369 71.899232 
L 175.951774 40.925438 
L 176.314977 127.426231 
L 177.041382 96.975669 
L 177.404584 114.31988 
L 177.767786 98.0965 
L 178.130989 107.017957 
L 178.494191 90.538477 
L 178.857394 89.599195 
L 179.220596 90.885264 
L 179.583799 90.067078 
L 179.947001 87.743479 
L 180.673406 46.521738 
L 181.036608 89.801971 
L 181.399811 119.70174 
L 182.126216 91.314669 
L 182.489418 110.164353 
L 182.85262 94.225995 
L 183.215823 99.154988 
L 183.579025 101.073051 
L 183.942228 99.888239 
L 184.30543 94.962272 
L 184.668633 88.013849 
L 185.395037 47.266191 
L 185.75824 95.04028 
L 186.121442 126.521575 
L 186.847847 97.331289 
L 187.21105 116.212475 
L 187.574252 100.548354 
L 187.937454 110.738581 
L 188.300657 93.315683 
L 188.663859 94.824864 
L 189.027062 93.816626 
L 189.390264 91.985567 
L 189.753467 87.123535 
L 190.116669 64.11771 
L 190.479871 49.009926 
L 190.843074 94.084513 
L 191.206276 123.99017 
L 191.932681 94.558089 
L 192.295884 112.091726 
L 192.659086 96.856338 
L 193.022288 108.418988 
L 193.385491 91.50866 
L 193.748693 91.30292 
L 194.111896 87.468596 
L 194.475098 95.535304 
L 195.564705 35.629045 
L 195.927908 90.705082 
L 196.29111 119.619298 
L 197.017515 90.282835 
L 197.380718 104.4989 
L 197.74392 107.743457 
L 198.107122 86.795531 
L 198.470325 105.267238 
L 198.833527 98.123248 
L 199.559932 62.975419 
L 199.923135 39.365357 
L 200.286337 106.688463 
L 200.649539 94.406993 
L 201.012742 122.859231 
L 201.739147 93.594875 
L 202.102349 109.155997 
L 202.465552 92.47628 
L 202.828754 97.551186 
L 203.191956 96.036566 
L 204.281564 84.018208 
L 205.007969 48.970209 
L 205.371171 101.998031 
L 205.734373 89.230605 
L 206.097576 116.399002 
L 206.460778 100.729202 
L 206.823981 118.733961 
L 207.187183 101.896353 
L 207.550386 110.764794 
L 207.913588 93.49798 
L 208.27679 98.32956 
L 208.639993 96.567355 
L 209.003195 100.251402 
L 210.092803 43.53542 
L 210.456005 98.239688 
L 210.819208 129.880724 
L 211.545612 99.459807 
L 211.908815 117.558896 
L 212.272017 100.853313 
L 212.63522 106.116438 
L 213.361625 101.494929 
L 213.724827 95.990577 
L 214.088029 80.923586 
L 214.814434 26.823563 
L 215.177637 103.626886 
L 215.540839 91.20295 
L 215.904042 121.663693 
L 216.630446 91.765127 
L 216.993649 104.873889 
L 217.356851 108.448639 
L 218.083256 102.227076 
L 218.809661 75.484839 
L 219.172863 52.965096 
L 219.536066 37.802433 
L 219.899268 113.727062 
L 220.625673 88.965316 
L 220.988876 119.060177 
L 221.71528 90.073115 
L 222.078483 106.485694 
L 222.441685 88.671499 
L 222.804888 91.215469 
L 223.16809 86.928143 
L 223.531293 98.368538 
L 223.894495 92.132981 
L 224.6209 61.586562 
L 224.984102 52.554658 
L 225.347305 39.912855 
L 225.710507 87.760299 
L 226.07371 116.557452 
L 226.800114 87.772452 
L 227.163317 105.551727 
L 227.526519 90.32123 
L 227.889722 100.657543 
L 228.252924 106.714142 
L 228.616127 90.44114 
L 228.979329 91.761101 
L 229.342531 93.787533 
L 229.705734 92.027978 
L 230.432139 53.158665 
L 230.795341 39.804745 
L 231.158544 112.910435 
L 231.521746 98.546363 
L 231.884948 117.394932 
L 232.248151 102.120645 
L 232.611353 110.113957 
L 232.974556 87.384139 
L 233.337758 103.856814 
L 233.700961 104.909239 
L 234.064163 87.322023 
L 234.427365 78.868945 
L 235.15377 47.855799 
L 235.880175 119.593128 
L 236.60658 90.697985 
L 236.969782 101.588886 
L 237.332985 108.03028 
L 237.696187 104.819002 
L 238.05939 103.899305 
L 238.422592 88.485737 
L 238.785795 105.159141 
L 240.238604 42.547517 
L 240.601807 130.155592 
L 241.328212 99.383137 
L 241.691414 120.699809 
L 242.417819 89.873705 
L 242.781021 96.852077 
L 243.144224 98.804921 
L 243.507426 97.151629 
L 243.870629 100.279379 
L 244.233831 87.138426 
L 244.597034 91.704713 
L 244.960236 76.487842 
L 245.323438 65.996023 
L 245.686641 48.879433 
L 246.049843 114.606145 
L 246.413046 99.043992 
L 246.776248 118.071437 
L 247.502653 87.628893 
L 247.865855 96.016063 
L 248.229058 92.269049 
L 248.59226 91.947211 
L 248.955463 94.862513 
L 249.318665 95.5528 
L 250.04507 64.917234 
L 250.408272 49.230683 
L 250.771475 55.442714 
L 251.134677 44.242283 
L 251.49788 109.301915 
L 251.861082 93.439142 
L 252.224285 110.3135 
L 252.587487 95.395625 
L 252.950689 108.032174 
L 253.313892 93.357773 
L 253.677094 103.622148 
L 254.040297 90.148615 
L 254.403499 94.773592 
L 254.766702 93.681375 
L 255.129904 200.262315 
L 258.398726 106.462535 
L 259.125131 86.898671 
L 259.488333 140.426324 
L 260.941143 89.259785 
L 261.304345 119.843874 
L 262.03075 92.676582 
L 262.393953 114.177777 
L 262.757155 110.876555 
L 263.120357 111.092165 
L 263.48356 95.566205 
L 263.846762 105.027321 
L 264.209965 100.537743 
L 264.573167 87.824122 
L 264.93637 96.267794 
L 265.662774 60.687545 
L 266.025977 47.652662 
L 266.389179 122.562552 
L 267.115584 92.990436 
L 267.478787 92.510551 
L 267.841989 94.126788 
L 268.205191 97.790491 
L 268.568394 98.062182 
L 268.931596 97.806811 
L 269.294799 96.650513 
L 269.658001 194.339259 
L 272.563621 111.462612 
L 273.290025 103.422851 
L 273.653228 144.193542 
L 274.01643 131.10388 
L 274.379633 136.611391 
L 274.742835 107.510241 
L 275.106038 104.426434 
L 275.46924 99.707834 
L 275.832442 117.194984 
L 276.195645 110.005503 
L 276.558847 98.504629 
L 276.92205 103.70167 
L 277.285252 86.916386 
L 277.648455 110.443292 
L 278.011657 95.820586 
L 278.738062 102.757956 
L 279.101264 98.253581 
L 279.464467 91.981151 
L 279.827669 87.970179 
L 280.190872 75.213325 
L 280.554074 72.979784 
L 280.917277 56.917839 
L 281.280479 55.341394 
L 281.643681 36.291711 
L 282.006884 115.705393 
L 282.370086 99.959621 
L 282.733289 107.757568 
L 283.096491 91.986548 
L 283.459694 94.766933 
L 283.822896 88.889792 
L 284.186098 92.194626 
L 284.912503 47.102403 
L 285.275706 98.927695 
L 285.638908 87.625928 
L 286.002111 113.065115 
L 286.728515 92.504702 
L 287.091718 91.037681 
L 287.45492 101.681187 
L 287.818123 95.294429 
L 288.181325 104.204092 
L 288.90773 82.552207 
L 289.634135 46.129551 
L 289.997337 127.142203 
L 291.086945 87.273492 
L 291.450147 105.857678 
L 291.813349 92.785154 
L 292.176552 97.514094 
L 292.539754 90.277628 
L 292.902957 91.612363 
L 293.266159 91.404395 
L 293.629362 76.614965 
L 293.992564 56.398402 
L 294.355766 43.102764 
L 294.718969 119.110462 
L 295.445374 157.740486 
L 297.624588 164.966819 
L 302.34622 181.303418 
L 303.072625 183.109602 
L 303.79903 184.32538 
L 304.525434 184.99837 
L 305.251839 185.216749 
L 305.978244 185.12862 
L 306.341447 185.012223 
L 309.610268 90.814767 
L 309.973471 139.436107 
L 311.426281 91.710152 
L 311.789483 123.439342 
L 312.87909 87.470245 
L 313.242293 105.36454 
L 313.605495 87.603406 
L 313.968698 87.519355 
L 314.3319 105.826426 
L 314.695102 97.530575 
L 315.058305 86.091934 
L 315.78471 46.828465 
L 316.147912 118.849667 
L 316.511115 87.307134 
L 316.874317 104.31566 
L 317.23752 91.687608 
L 317.600722 114.376205 
L 318.327127 87.900904 
L 318.690329 98.993078 
L 319.053532 99.20214 
L 319.416734 98.080867 
L 319.779937 88.767621 
L 320.143139 84.362053 
L 320.869544 44.036745 
L 321.232746 112.676237 
L 321.595949 113.447778 
L 321.959151 110.736306 
L 322.322354 98.839308 
L 322.685556 120.81585 
L 323.411961 90.073787 
L 323.775163 96.189651 
L 324.138366 95.962995 
L 324.501568 96.128897 
L 324.864771 88.010352 
L 325.227973 83.837676 
L 325.591175 61.713909 
L 325.954378 48.357108 
L 326.31758 92.294485 
L 326.680783 91.974291 
L 327.043985 90.475348 
L 327.407188 91.107004 
L 327.77039 94.337943 
L 328.133592 104.138423 
L 328.496795 88.678705 
L 328.859997 98.193089 
L 329.2232 99.510743 
L 329.949605 95.918237 
L 330.312807 94.652648 
L 331.765617 40.847618 
L 332.128819 112.815669 
L 332.492022 105.834804 
L 332.855224 95.572115 
L 333.218426 107.278889 
L 333.581629 93.685634 
L 333.944831 104.164733 
L 334.308034 91.079543 
L 334.671236 93.661634 
L 335.034439 94.30581 
L 335.397641 91.373012 
L 336.124046 61.785601 
L 336.487248 133.188724 
L 338.30326 96.586849 
L 338.666463 89.803727 
L 339.029665 151.175842 
L 340.482475 108.579632 
L 341.20888 89.327369 
L 341.572082 124.842614 
L 342.66169 87.831975 
L 343.024892 107.619194 
L 343.388094 91.300461 
L 343.751297 92.931442 
L 344.114499 97.318164 
L 344.477702 98.85335 
L 344.840904 93.835993 
L 345.204107 83.329633 
L 345.567309 55.995802 
L 345.930511 44.251294 
L 346.293714 87.445682 
L 346.656916 116.663008 
L 347.020119 105.184483 
L 347.383321 88.292437 
L 347.746524 101.144246 
L 348.109726 102.033398 
L 348.472928 107.806404 
L 348.836131 92.168804 
L 349.199333 94.557543 
L 349.562536 90.043172 
L 349.925738 80.674763 
L 350.652143 49.236939 
L 351.015345 52.76871 
L 351.378548 40.916036 
L 351.74175 87.549202 
L 352.104953 96.733986 
L 352.468155 87.803726 
L 352.831358 153.073324 
L 355.010572 87.545498 
L 355.373775 126.070685 
L 356.10018 105.386553 
L 356.826584 90.680065 
L 357.189787 118.87416 
L 357.916192 94.832743 
L 358.279394 106.05259 
L 358.642597 99.187779 
L 359.005799 102.013567 
L 359.369001 102.726801 
L 359.732204 96.246257 
L 359.732204 96.246257 
" clip-path="url(#p897dec4e67)" style="fill: none; stroke: #1f77b4; stroke-width: 1.5; stroke-linecap: square"/>
   </g>
   <g id="line2d_14">
    <path d="M 55.368567 110.860732 
L 55.73177 88.400687 
L 56.094972 99.411957 
L 56.458175 101.005491 
L 56.821377 114.937468 
L 57.547782 94.687234 
L 57.910984 148.858288 
L 59.363794 98.712875 
L 59.726997 86.933815 
L 60.090199 111.565521 
L 60.453401 96.249872 
L 60.816604 110.188253 
L 61.179806 93.347158 
L 61.543009 102.3081 
L 61.906211 102.983802 
L 62.269414 94.162918 
L 62.632616 144.85537 
L 64.085426 92.807882 
L 64.448628 119.789162 
L 65.175033 93.203779 
L 65.901438 129.203727 
L 67.354248 91.993954 
L 67.71745 141.996687 
L 69.17026 93.021439 
L 69.533462 118.755936 
L 70.259867 90.776508 
L 70.986272 122.012262 
L 72.075879 90.76464 
L 72.439082 144.438176 
L 73.528689 104.501385 
L 73.891891 93.236009 
L 74.255094 120.572078 
L 74.981499 93.058027 
L 75.707904 121.798497 
L 76.797511 91.588576 
L 77.160713 149.35986 
L 78.613523 92.162897 
L 78.976725 114.562947 
L 79.339928 99.203571 
L 79.70313 112.866157 
L 80.066333 97.702566 
L 80.429535 105.560212 
L 80.792738 107.346749 
L 81.519142 88.157073 
L 81.882345 137.539703 
L 82.971952 100.685508 
L 83.335155 90.783817 
L 83.698357 116.90624 
L 84.424762 92.445819 
L 85.151167 124.542004 
L 86.240774 93.671039 
L 86.603976 140.346629 
L 88.056786 87.989315 
L 88.419989 114.845408 
L 89.146393 89.357289 
L 89.509596 106.73637 
L 89.872798 94.544707 
L 90.236001 115.371682 
L 91.325608 87.724165 
L 91.68881 134.882033 
L 92.778418 101.304059 
L 93.14162 91.292198 
L 93.504823 116.631945 
L 94.231227 89.363374 
L 94.59443 99.397306 
L 95.320835 111.676156 
L 96.04724 91.449402 
L 96.410442 136.818994 
L 97.500049 95.441953 
L 97.863252 120.209995 
L 98.589657 88.499738 
L 99.316061 113.445684 
L 99.679264 94.645406 
L 100.042466 92.250569 
L 100.405669 102.869323 
L 100.768871 87.735934 
L 101.132074 139.591353 
L 102.584883 87.987669 
L 102.948086 118.46985 
L 103.674491 91.954766 
L 104.037693 112.57808 
L 104.400896 98.157817 
L 104.764098 113.07151 
L 105.1273 99.028448 
L 105.490503 108.648272 
L 105.853705 92.426371 
L 106.216908 144.855726 
L 107.669717 93.240564 
L 108.03292 123.242344 
L 108.759325 96.884713 
L 109.122527 118.215219 
L 109.848932 94.770602 
L 110.212134 114.854517 
L 110.575337 108.919723 
L 111.301742 89.378875 
L 111.664944 139.026446 
L 112.754551 100.444277 
L 113.117754 89.419337 
L 113.480956 121.813682 
L 114.570564 90.623915 
L 114.933766 114.640322 
L 115.296968 126.139695 
L 116.749778 89.682541 
L 117.112981 138.421197 
L 118.202588 104.902921 
L 118.56579 95.242252 
L 118.928993 125.686432 
L 120.0186 92.285147 
L 120.381802 129.568834 
L 121.834612 91.806612 
L 122.197815 142.614474 
L 123.287422 108.000043 
L 124.013827 88.116681 
L 124.377029 117.02811 
L 124.740232 103.898765 
L 125.103434 138.436406 
L 126.919446 89.399434 
L 127.282649 141.946964 
L 128.735458 92.981612 
L 129.098661 123.225071 
L 129.825066 97.581688 
L 130.188268 133.209686 
L 131.641078 93.658747 
L 132.00428 150.150921 
L 133.45709 96.267868 
L 133.820292 126.585873 
L 134.546697 96.780242 
L 134.9099 133.978769 
L 136.362709 93.787079 
L 136.725912 150.417347 
L 138.178722 96.617475 
L 138.541924 128.070985 
L 139.268329 96.994936 
L 139.631531 118.327365 
L 139.994734 125.252373 
L 141.084341 93.910834 
L 141.447543 147.254213 
L 142.900353 91.413304 
L 143.263556 123.614602 
L 143.98996 95.552529 
L 144.353163 119.54287 
L 144.716365 125.572854 
L 145.805973 95.328575 
L 146.169175 150.180828 
L 147.621985 97.327177 
L 147.985187 131.943403 
L 149.074794 90.118877 
L 149.437997 112.680415 
L 149.801199 97.67164 
L 150.164402 111.887333 
L 150.890807 92.01117 
L 151.254009 146.184171 
L 152.706819 92.621048 
L 153.070021 126.96315 
L 154.159628 90.015138 
L 154.522831 114.095106 
L 154.886033 99.689889 
L 155.249236 113.755961 
L 155.975641 95.051055 
L 156.338843 150.262118 
L 157.791653 97.116957 
L 158.154855 128.232461 
L 159.244462 88.796946 
L 159.607665 129.617621 
L 161.060475 89.525911 
L 161.423677 141.360922 
L 162.513284 102.401107 
L 162.876487 92.129865 
L 163.239689 123.341137 
L 163.966094 91.849757 
L 164.329296 110.40489 
L 164.692499 107.138393 
L 165.055701 90.102589 
L 165.418904 105.086082 
L 165.782106 95.068797 
L 166.145309 152.184818 
L 167.598118 97.950609 
L 167.961321 131.903444 
L 169.050928 88.768362 
L 169.41413 108.65276 
L 169.777333 94.366621 
L 170.140535 114.812614 
L 170.86694 95.384101 
L 171.230143 151.949765 
L 172.682952 98.42572 
L 173.046155 128.041623 
L 173.77256 97.385493 
L 174.135762 115.423562 
L 174.862167 88.043109 
L 175.225369 101.307395 
L 175.588572 88.734373 
L 175.951774 99.834352 
L 176.314977 90.703814 
L 176.678179 142.6506 
L 178.130989 93.653207 
L 178.494191 122.165027 
L 179.220596 95.636907 
L 179.583799 114.505445 
L 180.310203 88.030931 
L 180.673406 98.391718 
L 181.036608 102.296633 
L 181.399811 92.867752 
L 181.763013 143.796708 
L 183.215823 94.701892 
L 183.579025 124.463511 
L 184.668633 86.775145 
L 185.031835 102.153846 
L 185.395037 88.406987 
L 185.75824 112.44126 
L 186.484645 93.948888 
L 186.847847 147.156568 
L 188.300657 97.948609 
L 188.663859 126.568509 
L 189.390264 98.262427 
L 189.753467 112.818714 
L 190.116669 95.239201 
L 190.479871 101.365939 
L 190.843074 109.5801 
L 191.569479 89.881372 
L 191.932681 137.204239 
L 193.022288 97.508226 
L 193.385491 123.58349 
L 194.111896 94.409204 
L 194.475098 109.153795 
L 194.838301 95.300648 
L 195.201503 105.794158 
L 195.564705 92.869792 
L 195.927908 104.660075 
L 196.29111 94.758719 
L 196.654313 146.96209 
L 198.107122 90.628812 
L 198.470325 115.334063 
L 198.833527 99.706445 
L 199.19673 115.43808 
L 199.559932 98.76343 
L 199.923135 107.214065 
L 200.286337 112.018796 
L 201.012742 92.642409 
L 201.375944 146.319142 
L 202.828754 93.986046 
L 203.191956 122.183553 
L 203.918361 93.317048 
L 204.281564 109.349832 
L 204.644766 94.094961 
L 205.007969 104.234122 
L 205.371171 105.461254 
L 205.734373 95.800214 
L 206.097576 152.414615 
L 207.913588 88.289135 
L 208.27679 114.858945 
L 208.639993 100.23366 
L 209.003195 117.902027 
L 209.7296 86.675866 
L 210.456005 103.596442 
L 210.819208 94.380277 
L 211.18241 146.810259 
L 212.63522 96.443855 
L 212.998422 124.535028 
L 213.724827 96.021849 
L 214.088029 112.536965 
L 214.451232 98.048594 
L 214.814434 108.887761 
L 215.177637 112.29788 
L 215.904042 92.894161 
L 216.267244 144.160471 
L 217.720054 93.090264 
L 218.083256 120.868235 
L 218.809661 95.420455 
L 219.172863 112.781921 
L 219.536066 95.923737 
L 219.899268 115.37092 
L 220.625673 95.095945 
L 220.988876 149.627578 
L 222.441685 95.222946 
L 222.804888 124.959165 
L 223.531293 95.463267 
L 223.894495 114.739553 
L 224.6209 87.672423 
L 224.984102 101.440303 
L 225.347305 90.478606 
L 225.710507 94.854919 
L 226.07371 150.449504 
L 227.526519 100.862309 
L 227.889722 90.062102 
L 228.252924 119.617689 
L 228.979329 96.873462 
L 229.342531 117.681944 
L 230.432139 88.020151 
L 230.795341 103.453878 
L 231.158544 149.443257 
L 232.611353 101.870146 
L 232.974556 91.21455 
L 233.337758 128.504384 
L 234.427365 88.490245 
L 234.790568 106.313786 
L 235.15377 92.751775 
L 235.516973 97.153657 
L 235.880175 87.234793 
L 236.243378 143.740595 
L 237.332985 106.237167 
L 237.696187 95.711199 
L 238.05939 134.198111 
L 239.148997 92.182442 
L 239.512199 114.032023 
L 239.875402 97.225963 
L 240.238604 109.270056 
L 240.601807 95.183446 
L 240.965009 151.9542 
L 242.781021 89.355274 
L 243.144224 119.825979 
L 243.870629 92.628965 
L 244.233831 112.88512 
L 244.597034 96.951999 
L 244.960236 109.809179 
L 245.323438 95.87653 
L 245.686641 108.655068 
L 246.049843 148.506604 
L 247.502653 97.90643 
L 247.865855 86.869944 
L 248.229058 116.031774 
L 248.955463 88.586125 
L 249.318665 110.163559 
L 250.04507 88.517821 
L 250.408272 113.610872 
L 250.771475 110.555697 
L 251.134677 93.181624 
L 251.49788 144.495541 
L 252.950689 91.322844 
L 253.313892 122.759537 
L 254.040297 91.528453 
L 254.403499 111.86501 
L 254.766702 96.13966 
L 255.129904 107.309873 
L 256.219511 90.953676 
L 256.582714 215.343539 
L 260.214738 110.938439 
L 260.941143 91.202717 
L 261.304345 142.817581 
L 262.757155 94.145321 
L 263.120357 130.381473 
L 264.209965 87.629625 
L 264.573167 110.005454 
L 264.93637 96.955813 
L 265.299572 114.426517 
L 265.662774 103.784661 
L 266.025977 96.426778 
L 266.389179 145.95137 
L 267.841989 97.667951 
L 268.205191 86.910713 
L 268.568394 119.660568 
L 269.294799 96.138414 
L 269.658001 107.957682 
L 270.747608 91.627665 
L 271.110811 218.88 
L 274.379633 124.928519 
L 275.832442 86.768592 
L 276.195645 139.577717 
L 277.285252 104.558908 
L 277.648455 94.441326 
L 278.011657 130.038213 
L 279.101264 95.402857 
L 279.464467 117.597973 
L 279.827669 102.221678 
L 280.190872 116.745202 
L 280.554074 97.863271 
L 280.917277 105.756092 
L 281.280479 108.160949 
L 281.643681 98.734625 
L 282.006884 104.734356 
L 282.370086 88.009738 
L 282.733289 113.167588 
L 283.096491 97.582531 
L 283.459694 115.498155 
L 284.186098 90.980201 
L 284.549301 110.190249 
L 284.912503 101.174219 
L 285.275706 88.83556 
L 285.638908 143.621738 
L 287.091718 94.406852 
L 287.45492 126.767264 
L 288.181325 96.819584 
L 288.544528 118.527122 
L 289.270932 87.412191 
L 289.634135 103.435992 
L 289.997337 91.311998 
L 290.36054 144.659971 
L 291.813349 94.136628 
L 292.176552 126.350898 
L 293.266159 88.804059 
L 293.629362 110.668911 
L 293.992564 97.043128 
L 294.355766 113.529941 
L 295.082171 92.728349 
L 295.445374 102.839146 
L 306.341447 103.677357 
L 307.431054 87.489668 
L 307.794256 213.721539 
L 311.426281 109.771008 
L 312.152685 90.193529 
L 312.515888 143.853991 
L 313.968698 92.877403 
L 314.3319 125.689588 
L 315.058305 97.429822 
L 315.421507 120.650317 
L 315.78471 106.664194 
L 316.147912 114.941236 
L 316.874317 95.553813 
L 317.23752 155.735742 
L 319.053532 91.713192 
L 319.416734 124.717212 
L 320.143139 95.893153 
L 320.506341 114.99006 
L 320.869544 99.060652 
L 321.232746 112.473456 
L 321.959151 92.88251 
L 322.322354 150.125517 
L 323.775163 96.781739 
L 324.138366 128.077119 
L 324.864771 97.695156 
L 325.227973 116.386341 
L 325.591175 100.157434 
L 325.954378 113.835727 
L 326.680783 94.722998 
L 327.043985 150.215348 
L 328.496795 98.258953 
L 328.859997 130.215651 
L 329.949605 90.390284 
L 330.312807 110.356929 
L 330.676009 97.358057 
L 331.039212 107.508545 
L 331.402414 93.448077 
L 331.765617 93.354048 
L 332.128819 87.111676 
L 332.492022 132.528808 
L 333.944831 89.245173 
L 334.308034 113.41327 
L 334.671236 99.93594 
L 335.034439 110.246231 
L 335.397641 94.858061 
L 335.760843 100.541341 
L 336.124046 86.870764 
L 336.487248 103.350619 
L 337.576856 87.08114 
L 337.940058 209.249401 
L 341.20888 115.739143 
L 342.298487 86.883197 
L 342.66169 132.935435 
L 343.751297 96.681384 
L 344.114499 122.469463 
L 344.840904 94.767412 
L 345.204107 109.214547 
L 345.567309 93.755376 
L 345.930511 100.725848 
L 346.293714 104.420178 
L 346.656916 94.599377 
L 347.020119 146.886409 
L 348.472928 95.382749 
L 348.836131 123.5465 
L 349.562536 94.708782 
L 349.925738 110.90085 
L 350.288941 94.98565 
L 350.652143 103.597539 
L 351.015345 102.596329 
L 351.378548 87.397021 
L 351.74175 94.753366 
L 352.104953 93.072658 
L 352.468155 87.681664 
L 352.831358 214.476474 
L 356.463382 110.25671 
L 357.189787 91.095793 
L 357.552989 142.598928 
L 359.005799 92.637697 
L 359.369001 119.344696 
L 359.732204 103.453763 
L 359.732204 103.453763 
" clip-path="url(#p897dec4e67)" style="fill: none; stroke: #ff7f0e; stroke-width: 1.5; stroke-linecap: square"/>
   </g>
   <g id="patch_3">
    <path d="M 40.150386 228.96 
L 40.150386 7.2 
" style="fill: none; stroke: #000000; stroke-width: 0.8; stroke-linejoin: miter; stroke-linecap: square"/>
   </g>
   <g id="patch_4">
    <path d="M 374.950386 228.96 
L 374.950386 7.2 
" style="fill: none; stroke: #000000; stroke-width: 0.8; stroke-linejoin: miter; stroke-linecap: square"/>
   </g>
   <g id="patch_5">
    <path d="M 40.150386 228.96 
L 374.950386 228.96 
" style="fill: none; stroke: #000000; stroke-width: 0.8; stroke-linejoin: miter; stroke-linecap: square"/>
   </g>
   <g id="patch_6">
    <path d="M 40.150386 7.2 
L 374.950386 7.2 
" style="fill: none; stroke: #000000; stroke-width: 0.8; stroke-linejoin: miter; stroke-linecap: square"/>
   </g>
   <g id="legend_1">
    <g id="patch_7">
     <path d="M 47.150386 223.96 
L 128.33557 223.96 
Q 130.33557 223.96 130.33557 221.96 
L 130.33557 194.519387 
Q 130.33557 192.519387 128.33557 192.519387 
L 47.150386 192.519387 
Q 45.150386 192.519387 45.150386 194.519387 
L 45.150386 221.96 
Q 45.150386 223.96 47.150386 223.96 
z
" style="fill: #ffffff; opacity: 0.8; stroke: #cccccc; stroke-linejoin: miter"/>
    </g>
    <g id="line2d_15">
     <path d="M 49.150386 200.117707 
L 59.150386 200.117707 
L 69.150386 200.117707 
" style="fill: none; stroke: #1f77b4; stroke-width: 1.5; stroke-linecap: square"/>
    </g>
    <g id="text_15">
     <!-- LSRes -->
     <g transform="translate(77.150386 203.617707) scale(0.1 -0.1)">
      <defs>
       <path id="NimbusSanL-Regu-52" d="M 1190 2035 
L 2726 2035 
C 3258 2035 3494 1775 3494 1191 
L 3488 770 
C 3488 478 3539 192 3622 0 
L 4346 0 
L 4346 147 
C 4122 303 4077 471 4064 1101 
C 4058 1879 3936 2111 3430 2329 
C 3955 2585 4166 2907 4166 3432 
C 4166 4230 3661 4672 2746 4672 
L 595 4672 
L 595 0 
L 1190 0 
L 1190 2035 
z
M 1190 2560 
L 1190 4147 
L 2630 4147 
C 2963 4147 3155 4096 3302 3970 
C 3462 3837 3546 3628 3546 3350 
C 3546 2806 3264 2560 2630 2560 
L 1190 2560 
z
" transform="scale(0.015625)"/>
      </defs>
      <use xlink:href="#NimbusSanL-Regu-4c" transform="scale(0.996264)"/>
      <use xlink:href="#NimbusSanL-Regu-53" transform="translate(55.391677 0) scale(0.996264)"/>
      <use xlink:href="#NimbusSanL-Regu-52" transform="translate(121.841708 0) scale(0.996264)"/>
      <use xlink:href="#NimbusSanL-Regu-65" transform="translate(193.771693 0) scale(0.996264)"/>
      <use xlink:href="#NimbusSanL-Regu-73" transform="translate(249.16337 0) scale(0.996264)"/>
     </g>
    </g>
    <g id="line2d_16">
     <path d="M 49.150386 214.338014 
L 59.150386 214.338014 
L 69.150386 214.338014 
" style="fill: none; stroke: #ff7f0e; stroke-width: 1.5; stroke-linecap: square"/>
    </g>
    <g id="text_16">
     <!-- LSResTurb -->
     <g transform="translate(77.150386 217.838014) scale(0.1 -0.1)">
      <defs>
       <path id="NimbusSanL-Regu-54" d="M 2266 4147 
L 3795 4147 
L 3795 4672 
L 134 4672 
L 134 4147 
L 1670 4147 
L 1670 0 
L 2266 0 
L 2266 4147 
z
" transform="scale(0.015625)"/>
       <path id="NimbusSanL-Regu-62" d="M 346 4672 
L 346 19 
L 826 19 
L 826 447 
C 1082 57 1421 -128 1888 -128 
C 2771 -128 3347 594 3347 1702 
C 3347 2784 2797 3456 1914 3456 
C 1453 3456 1126 3283 877 2905 
L 877 4672 
L 346 4672 
z
M 1811 2956 
C 2406 2956 2790 2440 2790 1644 
C 2790 887 2394 371 1811 371 
C 1248 371 877 880 877 1663 
C 877 2447 1248 2956 1811 2956 
z
" transform="scale(0.015625)"/>
      </defs>
      <use xlink:href="#NimbusSanL-Regu-4c" transform="scale(0.996264)"/>
      <use xlink:href="#NimbusSanL-Regu-53" transform="translate(55.391677 0) scale(0.996264)"/>
      <use xlink:href="#NimbusSanL-Regu-52" transform="translate(121.841708 0) scale(0.996264)"/>
      <use xlink:href="#NimbusSanL-Regu-65" transform="translate(193.771693 0) scale(0.996264)"/>
      <use xlink:href="#NimbusSanL-Regu-73" transform="translate(249.16337 0) scale(0.996264)"/>
      <use xlink:href="#NimbusSanL-Regu-54" transform="translate(298.97657 0) scale(0.996264)"/>
      <use xlink:href="#NimbusSanL-Regu-75" transform="translate(347.893519 0) scale(0.996264)"/>
      <use xlink:href="#NimbusSanL-Regu-72" transform="translate(403.285196 0) scale(0.996264)"/>
      <use xlink:href="#NimbusSanL-Regu-62" transform="translate(436.460426 0) scale(0.996264)"/>
     </g>
    </g>
   </g>
  </g>
 </g>
 <defs>
  <clipPath id="p897dec4e67">
   <rect x="40.150386" y="7.2" width="334.8" height="221.76"/>
  </clipPath>
 </defs>
</svg>
