<?xml version="1.0" encoding="utf-8" standalone="no"?>
<!DOCTYPE svg PUBLIC "-//W3C//DTD SVG 1.1//EN"
  "http://www.w3.org/Graphics/SVG/1.1/DTD/svg11.dtd">
<svg xmlns:xlink="http://www.w3.org/1999/xlink" width="391.19046pt" height="268.103483pt" viewBox="0 0 391.19046 268.103483" xmlns="http://www.w3.org/2000/svg" version="1.1">
 <metadata>
  <rdf:RDF xmlns:dc="http://purl.org/dc/elements/1.1/" xmlns:cc="http://creativecommons.org/ns#" xmlns:rdf="http://www.w3.org/1999/02/22-rdf-syntax-ns#">
   <cc:Work>
    <dc:type rdf:resource="http://purl.org/dc/dcmitype/StillImage"/>
    <dc:date>2025-07-17T19:10:00.205643</dc:date>
    <dc:format>image/svg+xml</dc:format>
    <dc:creator>
     <cc:Agent>
      <dc:title>Matplotlib v3.10.3, https://matplotlib.org/</dc:title>
     </cc:Agent>
    </dc:creator>
   </cc:Work>
  </rdf:RDF>
 </metadata>
 <defs>
  <style type="text/css">*{stroke-linejoin: round; stroke-linecap: butt}</style>
 </defs>
 <g id="figure_1">
  <g id="patch_1">
   <path d="M 0 268.103483 
L 391.19046 268.103483 
L 391.19046 0 
L 0 0 
z
" style="fill: #ffffff"/>
  </g>
  <g id="axes_1">
   <g id="patch_2">
    <path d="M 40.334753 231.46287 
L 375.134753 231.46287 
L 375.134753 9.70287 
L 40.334753 9.70287 
z
" style="fill: #ffffff"/>
   </g>
   <g id="PathCollection_1">
    <defs>
     <path id="ma532909e5a" d="M 0 0.353553 
C 0.093763 0.353553 0.183699 0.316301 0.25 0.25 
C 0.316301 0.183699 0.353553 0.093763 0.353553 0 
C 0.353553 -0.093763 0.316301 -0.183699 0.25 -0.25 
C 0.183699 -0.316301 0.093763 -0.353553 0 -0.353553 
C -0.093763 -0.353553 -0.183699 -0.316301 -0.25 -0.25 
C -0.316301 -0.183699 -0.353553 -0.093763 -0.353553 0 
C -0.353553 0.093763 -0.316301 0.183699 -0.25 0.25 
C -0.183699 0.316301 -0.093763 0.353553 0 0.353553 
z
" style="stroke: #ff0000"/>
    </defs>
    <g clip-path="url(#p39da682ea9)">
     <use xlink:href="#ma532909e5a" x="207.734753" y="164.914898" style="fill: #ff0000; stroke: #ff0000"/>
     <use xlink:href="#ma532909e5a" x="207.160531" y="164.914898" style="fill: #ff0000; stroke: #ff0000"/>
     <use xlink:href="#ma532909e5a" x="206.498816" y="165.938688" style="fill: #ff0000; stroke: #ff0000"/>
     <use xlink:href="#ma532909e5a" x="205.700645" y="125.840239" style="fill: #ff0000; stroke: #ff0000"/>
     <use xlink:href="#ma532909e5a" x="204.77477" y="124.674256" style="fill: #ff0000; stroke: #ff0000"/>
     <use xlink:href="#ma532909e5a" x="203.740781" y="145.27519" style="fill: #ff0000; stroke: #ff0000"/>
     <use xlink:href="#ma532909e5a" x="202.596781" y="134.991786" style="fill: #ff0000; stroke: #ff0000"/>
     <use xlink:href="#ma532909e5a" x="201.323262" y="152.612353" style="fill: #ff0000; stroke: #ff0000"/>
     <use xlink:href="#ma532909e5a" x="199.885676" y="142.437016" style="fill: #ff0000; stroke: #ff0000"/>
     <use xlink:href="#ma532909e5a" x="198.226986" y="157.094278" style="fill: #ff0000; stroke: #ff0000"/>
     <use xlink:href="#ma532909e5a" x="196.248831" y="160.956243" style="fill: #ff0000; stroke: #ff0000"/>
     <use xlink:href="#ma532909e5a" x="193.820881" y="172.718454" style="fill: #ff0000; stroke: #ff0000"/>
     <use xlink:href="#ma532909e5a" x="191.113976" y="179.071641" style="fill: #ff0000; stroke: #ff0000"/>
     <use xlink:href="#ma532909e5a" x="188.564228" y="184.338473" style="fill: #ff0000; stroke: #ff0000"/>
     <use xlink:href="#ma532909e5a" x="186.198735" y="188.052556" style="fill: #ff0000; stroke: #ff0000"/>
     <use xlink:href="#ma532909e5a" x="183.959238" y="190.913481" style="fill: #ff0000; stroke: #ff0000"/>
     <use xlink:href="#ma532909e5a" x="181.806449" y="193.18857" style="fill: #ff0000; stroke: #ff0000"/>
     <use xlink:href="#ma532909e5a" x="179.720046" y="195.16221" style="fill: #ff0000; stroke: #ff0000"/>
     <use xlink:href="#ma532909e5a" x="177.68648" y="196.749085" style="fill: #ff0000; stroke: #ff0000"/>
     <use xlink:href="#ma532909e5a" x="175.701687" y="198.062949" style="fill: #ff0000; stroke: #ff0000"/>
     <use xlink:href="#ma532909e5a" x="173.757539" y="199.228932" style="fill: #ff0000; stroke: #ff0000"/>
     <use xlink:href="#ma532909e5a" x="171.84726" y="200.309599" style="fill: #ff0000; stroke: #ff0000"/>
     <use xlink:href="#ma532909e5a" x="169.965433" y="201.327702" style="fill: #ff0000; stroke: #ff0000"/>
     <use xlink:href="#ma532909e5a" x="168.106637" y="202.317366" style="fill: #ff0000; stroke: #ff0000"/>
     <use xlink:href="#ma532909e5a" x="166.264099" y="203.278591" style="fill: #ff0000; stroke: #ff0000"/>
     <use xlink:href="#ma532909e5a" x="164.435109" y="204.182939" style="fill: #ff0000; stroke: #ff0000"/>
     <use xlink:href="#ma532909e5a" x="162.615603" y="205.019034" style="fill: #ff0000; stroke: #ff0000"/>
     <use xlink:href="#ma532909e5a" x="160.801516" y="205.798252" style="fill: #ff0000; stroke: #ff0000"/>
     <use xlink:href="#ma532909e5a" x="158.991493" y="206.497842" style="fill: #ff0000; stroke: #ff0000"/>
     <use xlink:href="#ma532909e5a" x="157.18418" y="207.095053" style="fill: #ff0000; stroke: #ff0000"/>
     <use xlink:href="#ma532909e5a" x="155.378222" y="207.595573" style="fill: #ff0000; stroke: #ff0000"/>
     <use xlink:href="#ma532909e5a" x="153.572263" y="208.016464" style="fill: #ff0000; stroke: #ff0000"/>
     <use xlink:href="#ma532909e5a" x="151.76495" y="208.380479" style="fill: #ff0000; stroke: #ff0000"/>
     <use xlink:href="#ma532909e5a" x="149.957637" y="208.698991" style="fill: #ff0000; stroke: #ff0000"/>
     <use xlink:href="#ma532909e5a" x="148.147615" y="208.989065" style="fill: #ff0000; stroke: #ff0000"/>
     <use xlink:href="#ma532909e5a" x="146.337592" y="209.30189" style="fill: #ff0000; stroke: #ff0000"/>
     <use xlink:href="#ma532909e5a" x="144.52486" y="209.580588" style="fill: #ff0000; stroke: #ff0000"/>
     <use xlink:href="#ma532909e5a" x="142.710773" y="209.819473" style="fill: #ff0000; stroke: #ff0000"/>
     <use xlink:href="#ma532909e5a" x="140.893976" y="210.029918" style="fill: #ff0000; stroke: #ff0000"/>
     <use xlink:href="#ma532909e5a" x="139.075824" y="210.217613" style="fill: #ff0000; stroke: #ff0000"/>
     <use xlink:href="#ma532909e5a" x="137.253608" y="210.382557" style="fill: #ff0000; stroke: #ff0000"/>
     <use xlink:href="#ma532909e5a" x="135.430038" y="210.52475" style="fill: #ff0000; stroke: #ff0000"/>
     <use xlink:href="#ma532909e5a" x="133.603757" y="210.64988" style="fill: #ff0000; stroke: #ff0000"/>
     <use xlink:href="#ma532909e5a" x="131.774767" y="210.763635" style="fill: #ff0000; stroke: #ff0000"/>
     <use xlink:href="#ma532909e5a" x="129.940358" y="210.866014" style="fill: #ff0000; stroke: #ff0000"/>
     <use xlink:href="#ma532909e5a" x="128.103239" y="210.945642" style="fill: #ff0000; stroke: #ff0000"/>
     <use xlink:href="#ma532909e5a" x="126.260701" y="211.019582" style="fill: #ff0000; stroke: #ff0000"/>
     <use xlink:href="#ma532909e5a" x="124.412744" y="211.07646" style="fill: #ff0000; stroke: #ff0000"/>
     <use xlink:href="#ma532909e5a" x="122.558013" y="211.116274" style="fill: #ff0000; stroke: #ff0000"/>
     <use xlink:href="#ma532909e5a" x="120.697862" y="211.144712" style="fill: #ff0000; stroke: #ff0000"/>
     <use xlink:href="#ma532909e5a" x="118.829583" y="211.156088" style="fill: #ff0000; stroke: #ff0000"/>
     <use xlink:href="#ma532909e5a" x="116.953175" y="211.156088" style="fill: #ff0000; stroke: #ff0000"/>
     <use xlink:href="#ma532909e5a" x="115.068638" y="211.133337" style="fill: #ff0000; stroke: #ff0000"/>
     <use xlink:href="#ma532909e5a" x="113.173262" y="211.09921" style="fill: #ff0000; stroke: #ff0000"/>
     <use xlink:href="#ma532909e5a" x="111.267048" y="211.048021" style="fill: #ff0000; stroke: #ff0000"/>
     <use xlink:href="#ma532909e5a" x="109.349996" y="210.979768" style="fill: #ff0000; stroke: #ff0000"/>
     <use xlink:href="#ma532909e5a" x="107.42075" y="210.888765" style="fill: #ff0000; stroke: #ff0000"/>
     <use xlink:href="#ma532909e5a" x="105.477956" y="210.786386" style="fill: #ff0000; stroke: #ff0000"/>
     <use xlink:href="#ma532909e5a" x="103.521614" y="210.672631" style="fill: #ff0000; stroke: #ff0000"/>
     <use xlink:href="#ma532909e5a" x="101.549015" y="210.536126" style="fill: #ff0000; stroke: #ff0000"/>
     <use xlink:href="#ma532909e5a" x="99.561512" y="210.393933" style="fill: #ff0000; stroke: #ff0000"/>
     <use xlink:href="#ma532909e5a" x="97.557752" y="210.234676" style="fill: #ff0000; stroke: #ff0000"/>
     <use xlink:href="#ma532909e5a" x="95.53638" y="210.069733" style="fill: #ff0000; stroke: #ff0000"/>
     <use xlink:href="#ma532909e5a" x="93.49604" y="209.899101" style="fill: #ff0000; stroke: #ff0000"/>
     <use xlink:href="#ma532909e5a" x="91.436732" y="209.728469" style="fill: #ff0000; stroke: #ff0000"/>
     <use xlink:href="#ma532909e5a" x="89.358458" y="209.55215" style="fill: #ff0000; stroke: #ff0000"/>
     <use xlink:href="#ma532909e5a" x="87.258506" y="209.37583" style="fill: #ff0000; stroke: #ff0000"/>
     <use xlink:href="#ma532909e5a" x="85.136878" y="209.205199" style="fill: #ff0000; stroke: #ff0000"/>
     <use xlink:href="#ma532909e5a" x="82.994928" y="209.034567" style="fill: #ff0000; stroke: #ff0000"/>
     <use xlink:href="#ma532909e5a" x="80.829945" y="208.875311" style="fill: #ff0000; stroke: #ff0000"/>
     <use xlink:href="#ma532909e5a" x="78.640577" y="208.721742" style="fill: #ff0000; stroke: #ff0000"/>
     <use xlink:href="#ma532909e5a" x="76.428176" y="208.579549" style="fill: #ff0000; stroke: #ff0000"/>
     <use xlink:href="#ma532909e5a" x="74.191389" y="208.437356" style="fill: #ff0000; stroke: #ff0000"/>
     <use xlink:href="#ma532909e5a" x="71.928861" y="208.306538" style="fill: #ff0000; stroke: #ff0000"/>
     <use xlink:href="#ma532909e5a" x="69.639237" y="208.181408" style="fill: #ff0000; stroke: #ff0000"/>
     <use xlink:href="#ma532909e5a" x="67.336064" y="208.061966" style="fill: #ff0000; stroke: #ff0000"/>
     <use xlink:href="#ma532909e5a" x="64.992247" y="207.948212" style="fill: #ff0000; stroke: #ff0000"/>
     <use xlink:href="#ma532909e5a" x="62.621334" y="207.834457" style="fill: #ff0000; stroke: #ff0000"/>
     <use xlink:href="#ma532909e5a" x="60.236873" y="207.720703" style="fill: #ff0000; stroke: #ff0000"/>
     <use xlink:href="#ma532909e5a" x="57.825316" y="207.606948" style="fill: #ff0000; stroke: #ff0000"/>
     <use xlink:href="#ma532909e5a" x="55.386663" y="207.493194" style="fill: #ff0000; stroke: #ff0000"/>
     <use xlink:href="#ma532909e5a" x="52.961558" y="207.368064" style="fill: #ff0000; stroke: #ff0000"/>
     <use xlink:href="#ma532909e5a" x="50.563549" y="207.242934" style="fill: #ff0000; stroke: #ff0000"/>
     <use xlink:href="#ma532909e5a" x="48.328116" y="207.117804" style="fill: #ff0000; stroke: #ff0000"/>
     <use xlink:href="#ma532909e5a" x="46.363646" y="207.043864" style="fill: #ff0000; stroke: #ff0000"/>
     <use xlink:href="#ma532909e5a" x="44.697233" y="206.958548" style="fill: #ff0000; stroke: #ff0000"/>
     <use xlink:href="#ma532909e5a" x="43.328877" y="207.015425" style="fill: #ff0000; stroke: #ff0000"/>
     <use xlink:href="#ma532909e5a" x="42.177291" y="206.975611" style="fill: #ff0000; stroke: #ff0000"/>
     <use xlink:href="#ma532909e5a" x="41.20183" y="207.82877" style="fill: #ff0000; stroke: #ff0000"/>
     <use xlink:href="#ma532909e5a" x="40.334753" y="208.073342" style="fill: #ff0000; stroke: #ff0000"/>
     <use xlink:href="#ma532909e5a" x="207.734753" y="164.829582" style="fill: #ff0000; stroke: #ff0000"/>
     <use xlink:href="#ma532909e5a" x="208.175038" y="164.829582" style="fill: #ff0000; stroke: #ff0000"/>
     <use xlink:href="#ma532909e5a" x="208.675398" y="170.909758" style="fill: #ff0000; stroke: #ff0000"/>
     <use xlink:href="#ma532909e5a" x="209.324633" y="166.012628" style="fill: #ff0000; stroke: #ff0000"/>
     <use xlink:href="#ma532909e5a" x="210.074312" y="166.23445" style="fill: #ff0000; stroke: #ff0000"/>
     <use xlink:href="#ma532909e5a" x="210.875903" y="160.905053" style="fill: #ff0000; stroke: #ff0000"/>
     <use xlink:href="#ma532909e5a" x="211.723506" y="159.932452" style="fill: #ff0000; stroke: #ff0000"/>
     <use xlink:href="#ma532909e5a" x="212.629422" y="157.259222" style="fill: #ff0000; stroke: #ff0000"/>
     <use xlink:href="#ma532909e5a" x="213.609457" y="156.098927" style="fill: #ff0000; stroke: #ff0000"/>
     <use xlink:href="#ma532909e5a" x="214.678312" y="154.972758" style="fill: #ff0000; stroke: #ff0000"/>
     <use xlink:href="#ma532909e5a" x="215.847391" y="154.46655" style="fill: #ff0000; stroke: #ff0000"/>
     <use xlink:href="#ma532909e5a" x="217.122396" y="154.472238" style="fill: #ff0000; stroke: #ff0000"/>
     <use xlink:href="#ma532909e5a" x="218.501326" y="154.59168" style="fill: #ff0000; stroke: #ff0000"/>
     <use xlink:href="#ma532909e5a" x="219.974678" y="155.314021" style="fill: #ff0000; stroke: #ff0000"/>
     <use xlink:href="#ma532909e5a" x="221.526048" y="154.085473" style="fill: #ff0000; stroke: #ff0000"/>
     <use xlink:href="#ma532909e5a" x="223.138434" y="176.995622" style="fill: #ff0000; stroke: #ff0000"/>
     <use xlink:href="#ma532909e5a" x="224.793829" y="193.126005" style="fill: #ff0000; stroke: #ff0000"/>
     <use xlink:href="#ma532909e5a" x="226.478232" y="197.215478" style="fill: #ff0000; stroke: #ff0000"/>
     <use xlink:href="#ma532909e5a" x="228.181639" y="198.836479" style="fill: #ff0000; stroke: #ff0000"/>
     <use xlink:href="#ma532909e5a" x="229.895048" y="200.229971" style="fill: #ff0000; stroke: #ff0000"/>
     <use xlink:href="#ma532909e5a" x="231.613459" y="201.526772" style="fill: #ff0000; stroke: #ff0000"/>
     <use xlink:href="#ma532909e5a" x="233.331869" y="202.522124" style="fill: #ff0000; stroke: #ff0000"/>
     <use xlink:href="#ma532909e5a" x="235.048279" y="203.062458" style="fill: #ff0000; stroke: #ff0000"/>
     <use xlink:href="#ma532909e5a" x="236.760689" y="203.597103" style="fill: #ff0000; stroke: #ff0000"/>
     <use xlink:href="#ma532909e5a" x="238.467096" y="203.966806" style="fill: #ff0000; stroke: #ff0000"/>
     <use xlink:href="#ma532909e5a" x="240.166502" y="204.222753" style="fill: #ff0000; stroke: #ff0000"/>
     <use xlink:href="#ma532909e5a" x="241.857907" y="204.421823" style="fill: #ff0000; stroke: #ff0000"/>
     <use xlink:href="#ma532909e5a" x="243.539308" y="204.58108" style="fill: #ff0000; stroke: #ff0000"/>
     <use xlink:href="#ma532909e5a" x="245.212708" y="204.72896" style="fill: #ff0000; stroke: #ff0000"/>
     <use xlink:href="#ma532909e5a" x="246.875105" y="204.859778" style="fill: #ff0000; stroke: #ff0000"/>
     <use xlink:href="#ma532909e5a" x="248.5275" y="204.973533" style="fill: #ff0000; stroke: #ff0000"/>
     <use xlink:href="#ma532909e5a" x="250.170893" y="205.075912" style="fill: #ff0000; stroke: #ff0000"/>
     <use xlink:href="#ma532909e5a" x="251.803283" y="205.161227" style="fill: #ff0000; stroke: #ff0000"/>
     <use xlink:href="#ma532909e5a" x="253.42467" y="205.22948" style="fill: #ff0000; stroke: #ff0000"/>
     <use xlink:href="#ma532909e5a" x="255.037056" y="205.28067" style="fill: #ff0000; stroke: #ff0000"/>
     <use xlink:href="#ma532909e5a" x="256.640439" y="205.309108" style="fill: #ff0000; stroke: #ff0000"/>
     <use xlink:href="#ma532909e5a" x="258.23482" y="205.320484" style="fill: #ff0000; stroke: #ff0000"/>
     <use xlink:href="#ma532909e5a" x="259.821199" y="205.309108" style="fill: #ff0000; stroke: #ff0000"/>
     <use xlink:href="#ma532909e5a" x="261.401576" y="205.274982" style="fill: #ff0000; stroke: #ff0000"/>
     <use xlink:href="#ma532909e5a" x="262.976953" y="205.223792" style="fill: #ff0000; stroke: #ff0000"/>
     <use xlink:href="#ma532909e5a" x="264.548328" y="205.149852" style="fill: #ff0000; stroke: #ff0000"/>
     <use xlink:href="#ma532909e5a" x="266.117703" y="205.058848" style="fill: #ff0000; stroke: #ff0000"/>
     <use xlink:href="#ma532909e5a" x="267.687078" y="204.950782" style="fill: #ff0000; stroke: #ff0000"/>
     <use xlink:href="#ma532909e5a" x="269.260454" y="204.825652" style="fill: #ff0000; stroke: #ff0000"/>
     <use xlink:href="#ma532909e5a" x="270.837831" y="204.689146" style="fill: #ff0000; stroke: #ff0000"/>
     <use xlink:href="#ma532909e5a" x="272.42321" y="204.546953" style="fill: #ff0000; stroke: #ff0000"/>
     <use xlink:href="#ma532909e5a" x="274.018591" y="204.399072" style="fill: #ff0000; stroke: #ff0000"/>
     <use xlink:href="#ma532909e5a" x="275.628976" y="204.256879" style="fill: #ff0000; stroke: #ff0000"/>
     <use xlink:href="#ma532909e5a" x="277.256365" y="204.120374" style="fill: #ff0000; stroke: #ff0000"/>
     <use xlink:href="#ma532909e5a" x="278.903759" y="203.989556" style="fill: #ff0000; stroke: #ff0000"/>
     <use xlink:href="#ma532909e5a" x="280.575158" y="203.875802" style="fill: #ff0000; stroke: #ff0000"/>
     <use xlink:href="#ma532909e5a" x="282.273564" y="203.784798" style="fill: #ff0000; stroke: #ff0000"/>
     <use xlink:href="#ma532909e5a" x="284.002977" y="203.710858" style="fill: #ff0000; stroke: #ff0000"/>
     <use xlink:href="#ma532909e5a" x="285.767399" y="203.665356" style="fill: #ff0000; stroke: #ff0000"/>
     <use xlink:href="#ma532909e5a" x="287.568829" y="203.648293" style="fill: #ff0000; stroke: #ff0000"/>
     <use xlink:href="#ma532909e5a" x="289.410269" y="203.653981" style="fill: #ff0000; stroke: #ff0000"/>
     <use xlink:href="#ma532909e5a" x="291.29672" y="203.676732" style="fill: #ff0000; stroke: #ff0000"/>
     <use xlink:href="#ma532909e5a" x="293.228181" y="203.722233" style="fill: #ff0000; stroke: #ff0000"/>
     <use xlink:href="#ma532909e5a" x="295.209655" y="203.784798" style="fill: #ff0000; stroke: #ff0000"/>
     <use xlink:href="#ma532909e5a" x="297.243141" y="203.864426" style="fill: #ff0000; stroke: #ff0000"/>
     <use xlink:href="#ma532909e5a" x="299.329639" y="203.95543" style="fill: #ff0000; stroke: #ff0000"/>
     <use xlink:href="#ma532909e5a" x="301.472151" y="204.052121" style="fill: #ff0000; stroke: #ff0000"/>
     <use xlink:href="#ma532909e5a" x="303.671677" y="204.1545" style="fill: #ff0000; stroke: #ff0000"/>
     <use xlink:href="#ma532909e5a" x="305.930217" y="204.262567" style="fill: #ff0000; stroke: #ff0000"/>
     <use xlink:href="#ma532909e5a" x="308.248771" y="204.364946" style="fill: #ff0000; stroke: #ff0000"/>
     <use xlink:href="#ma532909e5a" x="310.629339" y="204.467325" style="fill: #ff0000; stroke: #ff0000"/>
     <use xlink:href="#ma532909e5a" x="313.069923" y="204.569704" style="fill: #ff0000; stroke: #ff0000"/>
     <use xlink:href="#ma532909e5a" x="315.57052" y="204.666395" style="fill: #ff0000; stroke: #ff0000"/>
     <use xlink:href="#ma532909e5a" x="318.131132" y="204.751711" style="fill: #ff0000; stroke: #ff0000"/>
     <use xlink:href="#ma532909e5a" x="320.751758" y="204.825652" style="fill: #ff0000; stroke: #ff0000"/>
     <use xlink:href="#ma532909e5a" x="323.442401" y="204.888217" style="fill: #ff0000; stroke: #ff0000"/>
     <use xlink:href="#ma532909e5a" x="326.183056" y="204.933718" style="fill: #ff0000; stroke: #ff0000"/>
     <use xlink:href="#ma532909e5a" x="328.983725" y="204.956469" style="fill: #ff0000; stroke: #ff0000"/>
     <use xlink:href="#ma532909e5a" x="331.834406" y="204.962157" style="fill: #ff0000; stroke: #ff0000"/>
     <use xlink:href="#ma532909e5a" x="334.755104" y="204.939406" style="fill: #ff0000; stroke: #ff0000"/>
     <use xlink:href="#ma532909e5a" x="337.715812" y="204.893904" style="fill: #ff0000; stroke: #ff0000"/>
     <use xlink:href="#ma532909e5a" x="340.736533" y="204.819964" style="fill: #ff0000; stroke: #ff0000"/>
     <use xlink:href="#ma532909e5a" x="343.807267" y="204.694834" style="fill: #ff0000; stroke: #ff0000"/>
     <use xlink:href="#ma532909e5a" x="346.928013" y="204.535578" style="fill: #ff0000; stroke: #ff0000"/>
     <use xlink:href="#ma532909e5a" x="350.098771" y="204.319444" style="fill: #ff0000; stroke: #ff0000"/>
     <use xlink:href="#ma532909e5a" x="353.31954" y="204.02937" style="fill: #ff0000; stroke: #ff0000"/>
     <use xlink:href="#ma532909e5a" x="356.580319" y="203.648293" style="fill: #ff0000; stroke: #ff0000"/>
     <use xlink:href="#ma532909e5a" x="359.881108" y="203.153461" style="fill: #ff0000; stroke: #ff0000"/>
     <use xlink:href="#ma532909e5a" x="363.191899" y="202.505061" style="fill: #ff0000; stroke: #ff0000"/>
     <use xlink:href="#ma532909e5a" x="366.412669" y="201.714467" style="fill: #ff0000; stroke: #ff0000"/>
     <use xlink:href="#ma532909e5a" x="369.243345" y="200.827182" style="fill: #ff0000; stroke: #ff0000"/>
     <use xlink:href="#ma532909e5a" x="371.393859" y="200.05934" style="fill: #ff0000; stroke: #ff0000"/>
     <use xlink:href="#ma532909e5a" x="372.964234" y="199.467816" style="fill: #ff0000; stroke: #ff0000"/>
     <use xlink:href="#ma532909e5a" x="374.154519" y="199.177743" style="fill: #ff0000; stroke: #ff0000"/>
     <use xlink:href="#ma532909e5a" x="375.134753" y="199.052613" style="fill: #ff0000; stroke: #ff0000"/>
    </g>
   </g>
   <g id="matplotlib.axis_1">
    <g id="xtick_1">
     <g id="line2d_1">
      <defs>
       <path id="m6ed85815e2" d="M 0 0 
L 0 3.5 
" style="stroke: #000000; stroke-width: 0.8"/>
      </defs>
      <g>
       <use xlink:href="#m6ed85815e2" x="40.334753" y="231.46287" style="stroke: #000000; stroke-width: 0.8"/>
      </g>
     </g>
     <g id="text_1">
      <!-- $\mathdefault{−1.00}$ -->
      <g transform="translate(27.604674 245.56119) scale(0.1 -0.1)">
       <defs>
        <path id="CMSY10-0" d="M 4218 1472 
C 4326 1472 4442 1472 4442 1600 
C 4442 1728 4326 1728 4218 1728 
L 755 1728 
C 646 1728 531 1728 531 1600 
C 531 1472 646 1472 755 1472 
L 4218 1472 
z
" transform="scale(0.015625)"/>
        <path id="CMR17-31" d="M 1702 4083 
C 1702 4217 1696 4224 1606 4224 
C 1357 3927 979 3833 621 3820 
C 602 3820 570 3820 563 3808 
C 557 3795 557 3782 557 3648 
C 755 3648 1088 3686 1344 3839 
L 1344 467 
C 1344 243 1331 166 781 166 
L 589 166 
L 589 0 
C 896 6 1216 12 1523 12 
C 1830 12 2150 6 2458 0 
L 2458 166 
L 2266 166 
C 1715 166 1702 236 1702 467 
L 1702 4083 
z
" transform="scale(0.015625)"/>
        <path id="CMMI12-3a" d="M 1178 307 
C 1178 492 1024 620 870 620 
C 685 620 557 467 557 313 
C 557 128 710 0 864 0 
C 1050 0 1178 153 1178 307 
z
" transform="scale(0.015625)"/>
        <path id="CMR17-30" d="M 2688 2038 
C 2688 2430 2682 3099 2413 3613 
C 2176 4063 1798 4224 1466 4224 
C 1158 4224 768 4082 525 3620 
C 269 3137 243 2539 243 2038 
C 243 1671 250 1112 448 623 
C 723 -39 1216 -128 1466 -128 
C 1760 -128 2208 -7 2470 604 
C 2662 1048 2688 1568 2688 2038 
z
M 1466 -26 
C 1056 -26 813 328 723 816 
C 653 1196 653 1749 653 2109 
C 653 2604 653 3015 736 3407 
C 858 3954 1216 4121 1466 4121 
C 1728 4121 2067 3947 2189 3420 
C 2272 3054 2278 2623 2278 2109 
C 2278 1691 2278 1176 2202 797 
C 2067 96 1690 -26 1466 -26 
z
" transform="scale(0.015625)"/>
       </defs>
       <use xlink:href="#CMSY10-0" transform="scale(0.996264)"/>
       <use xlink:href="#CMR17-31" transform="translate(77.487468 0) scale(0.996264)"/>
       <use xlink:href="#CMMI12-3a" transform="translate(123.177945 0) scale(0.996264)"/>
       <use xlink:href="#CMR17-30" transform="translate(150.275122 0) scale(0.996264)"/>
       <use xlink:href="#CMR17-30" transform="translate(195.965599 0) scale(0.996264)"/>
      </g>
     </g>
    </g>
    <g id="xtick_2">
     <g id="line2d_2">
      <g>
       <use xlink:href="#m6ed85815e2" x="82.184753" y="231.46287" style="stroke: #000000; stroke-width: 0.8"/>
      </g>
     </g>
     <g id="text_2">
      <!-- $\mathdefault{−0.75}$ -->
      <g transform="translate(69.454674 245.56119) scale(0.1 -0.1)">
       <defs>
        <path id="CMR17-37" d="M 2886 3955 
L 2886 4096 
L 1382 4096 
C 634 4096 621 4166 595 4288 
L 480 4288 
L 294 3104 
L 410 3104 
C 429 3226 474 3552 550 3673 
C 589 3724 1062 3724 1171 3724 
L 2579 3724 
L 1869 2670 
C 1395 1961 1069 1003 1069 166 
C 1069 89 1069 -128 1299 -128 
C 1530 -128 1530 89 1530 172 
L 1530 466 
C 1530 1514 1709 2204 2003 2644 
L 2886 3955 
z
" transform="scale(0.015625)"/>
        <path id="CMR17-35" d="M 730 3750 
C 794 3724 1056 3641 1325 3641 
C 1920 3641 2246 3961 2432 4140 
C 2432 4191 2432 4224 2394 4224 
C 2387 4224 2374 4224 2323 4198 
C 2099 4102 1837 4032 1517 4032 
C 1325 4032 1037 4055 723 4191 
C 653 4224 640 4224 634 4224 
C 602 4224 595 4217 595 4090 
L 595 2231 
C 595 2113 595 2080 659 2080 
C 691 2080 704 2093 736 2139 
C 941 2435 1222 2560 1542 2560 
C 1766 2560 2246 2415 2246 1293 
C 2246 1087 2246 716 2054 422 
C 1894 159 1645 25 1370 25 
C 947 25 518 319 403 812 
C 429 806 480 793 506 793 
C 589 793 749 838 749 1036 
C 749 1209 627 1280 506 1280 
C 358 1280 262 1190 262 1011 
C 262 454 704 -128 1382 -128 
C 2042 -128 2669 441 2669 1267 
C 2669 2054 2170 2662 1549 2662 
C 1222 2662 947 2540 730 2304 
L 730 3750 
z
" transform="scale(0.015625)"/>
       </defs>
       <use xlink:href="#CMSY10-0" transform="scale(0.996264)"/>
       <use xlink:href="#CMR17-30" transform="translate(77.487468 0) scale(0.996264)"/>
       <use xlink:href="#CMMI12-3a" transform="translate(123.177945 0) scale(0.996264)"/>
       <use xlink:href="#CMR17-37" transform="translate(150.275122 0) scale(0.996264)"/>
       <use xlink:href="#CMR17-35" transform="translate(195.965599 0) scale(0.996264)"/>
      </g>
     </g>
    </g>
    <g id="xtick_3">
     <g id="line2d_3">
      <g>
       <use xlink:href="#m6ed85815e2" x="124.034753" y="231.46287" style="stroke: #000000; stroke-width: 0.8"/>
      </g>
     </g>
     <g id="text_3">
      <!-- $\mathdefault{−0.50}$ -->
      <g transform="translate(111.304674 245.56119) scale(0.1 -0.1)">
       <use xlink:href="#CMSY10-0" transform="scale(0.996264)"/>
       <use xlink:href="#CMR17-30" transform="translate(77.487468 0) scale(0.996264)"/>
       <use xlink:href="#CMMI12-3a" transform="translate(123.177945 0) scale(0.996264)"/>
       <use xlink:href="#CMR17-35" transform="translate(150.275122 0) scale(0.996264)"/>
       <use xlink:href="#CMR17-30" transform="translate(195.965599 0) scale(0.996264)"/>
      </g>
     </g>
    </g>
    <g id="xtick_4">
     <g id="line2d_4">
      <g>
       <use xlink:href="#m6ed85815e2" x="165.884753" y="231.46287" style="stroke: #000000; stroke-width: 0.8"/>
      </g>
     </g>
     <g id="text_4">
      <!-- $\mathdefault{−0.25}$ -->
      <g transform="translate(153.154674 245.56119) scale(0.1 -0.1)">
       <defs>
        <path id="CMR17-32" d="M 2669 990 
L 2554 990 
C 2490 537 2438 460 2413 422 
C 2381 371 1920 371 1830 371 
L 602 371 
C 832 620 1280 1073 1824 1596 
C 2214 1966 2669 2400 2669 3033 
C 2669 3788 2067 4224 1395 4224 
C 691 4224 262 3603 262 3027 
C 262 2777 448 2745 525 2745 
C 589 2745 781 2783 781 3007 
C 781 3206 614 3264 525 3264 
C 486 3264 448 3257 422 3244 
C 544 3788 915 4057 1306 4057 
C 1862 4057 2227 3616 2227 3033 
C 2227 2477 1901 1998 1536 1583 
L 262 147 
L 262 0 
L 2515 0 
L 2669 990 
z
" transform="scale(0.015625)"/>
       </defs>
       <use xlink:href="#CMSY10-0" transform="scale(0.996264)"/>
       <use xlink:href="#CMR17-30" transform="translate(77.487468 0) scale(0.996264)"/>
       <use xlink:href="#CMMI12-3a" transform="translate(123.177945 0) scale(0.996264)"/>
       <use xlink:href="#CMR17-32" transform="translate(150.275122 0) scale(0.996264)"/>
       <use xlink:href="#CMR17-35" transform="translate(195.965599 0) scale(0.996264)"/>
      </g>
     </g>
    </g>
    <g id="xtick_5">
     <g id="line2d_5">
      <g>
       <use xlink:href="#m6ed85815e2" x="207.734753" y="231.46287" style="stroke: #000000; stroke-width: 0.8"/>
      </g>
     </g>
     <g id="text_5">
      <!-- $\mathdefault{0.00}$ -->
      <g transform="translate(198.879046 245.56119) scale(0.1 -0.1)">
       <use xlink:href="#CMR17-30" transform="scale(0.996264)"/>
       <use xlink:href="#CMMI12-3a" transform="translate(45.690477 0) scale(0.996264)"/>
       <use xlink:href="#CMR17-30" transform="translate(72.787654 0) scale(0.996264)"/>
       <use xlink:href="#CMR17-30" transform="translate(118.478131 0) scale(0.996264)"/>
      </g>
     </g>
    </g>
    <g id="xtick_6">
     <g id="line2d_6">
      <g>
       <use xlink:href="#m6ed85815e2" x="249.584753" y="231.46287" style="stroke: #000000; stroke-width: 0.8"/>
      </g>
     </g>
     <g id="text_6">
      <!-- $\mathdefault{0.25}$ -->
      <g transform="translate(240.729046 245.56119) scale(0.1 -0.1)">
       <use xlink:href="#CMR17-30" transform="scale(0.996264)"/>
       <use xlink:href="#CMMI12-3a" transform="translate(45.690477 0) scale(0.996264)"/>
       <use xlink:href="#CMR17-32" transform="translate(72.787654 0) scale(0.996264)"/>
       <use xlink:href="#CMR17-35" transform="translate(118.478131 0) scale(0.996264)"/>
      </g>
     </g>
    </g>
    <g id="xtick_7">
     <g id="line2d_7">
      <g>
       <use xlink:href="#m6ed85815e2" x="291.434753" y="231.46287" style="stroke: #000000; stroke-width: 0.8"/>
      </g>
     </g>
     <g id="text_7">
      <!-- $\mathdefault{0.50}$ -->
      <g transform="translate(282.579046 245.56119) scale(0.1 -0.1)">
       <use xlink:href="#CMR17-30" transform="scale(0.996264)"/>
       <use xlink:href="#CMMI12-3a" transform="translate(45.690477 0) scale(0.996264)"/>
       <use xlink:href="#CMR17-35" transform="translate(72.787654 0) scale(0.996264)"/>
       <use xlink:href="#CMR17-30" transform="translate(118.478131 0) scale(0.996264)"/>
      </g>
     </g>
    </g>
    <g id="xtick_8">
     <g id="line2d_8">
      <g>
       <use xlink:href="#m6ed85815e2" x="333.284753" y="231.46287" style="stroke: #000000; stroke-width: 0.8"/>
      </g>
     </g>
     <g id="text_8">
      <!-- $\mathdefault{0.75}$ -->
      <g transform="translate(324.429046 245.56119) scale(0.1 -0.1)">
       <use xlink:href="#CMR17-30" transform="scale(0.996264)"/>
       <use xlink:href="#CMMI12-3a" transform="translate(45.690477 0) scale(0.996264)"/>
       <use xlink:href="#CMR17-37" transform="translate(72.787654 0) scale(0.996264)"/>
       <use xlink:href="#CMR17-35" transform="translate(118.478131 0) scale(0.996264)"/>
      </g>
     </g>
    </g>
    <g id="xtick_9">
     <g id="line2d_9">
      <g>
       <use xlink:href="#m6ed85815e2" x="375.134753" y="231.46287" style="stroke: #000000; stroke-width: 0.8"/>
      </g>
     </g>
     <g id="text_9">
      <!-- $\mathdefault{1.00}$ -->
      <g transform="translate(366.279046 245.56119) scale(0.1 -0.1)">
       <use xlink:href="#CMR17-31" transform="scale(0.996264)"/>
       <use xlink:href="#CMMI12-3a" transform="translate(45.690477 0) scale(0.996264)"/>
       <use xlink:href="#CMR17-30" transform="translate(72.787654 0) scale(0.996264)"/>
       <use xlink:href="#CMR17-30" transform="translate(118.478131 0) scale(0.996264)"/>
      </g>
     </g>
    </g>
    <g id="text_10">
     <!-- S/S_{total} -->
     <g transform="translate(188.497209 258.781497) scale(0.1 -0.1)">
      <defs>
       <path id="NimbusSanL-Regu-53" d="M 3814 3295 
C 3808 4204 3181 4736 2106 4736 
C 1082 4736 448 4211 448 3372 
C 448 2806 749 2450 1363 2291 
L 2522 1986 
C 3110 1833 3379 1598 3379 1236 
C 3379 988 3245 733 3046 593 
C 2861 466 2566 396 2189 396 
C 1683 396 1338 517 1114 784 
C 941 988 864 1210 870 1496 
L 307 1496 
C 314 1070 397 790 582 536 
C 902 102 1440 -128 2150 -128 
C 2707 -128 3162 0 3462 230 
C 3776 479 3974 892 3974 1293 
C 3974 1865 3616 2284 2982 2456 
L 1811 2768 
C 1248 2920 1043 3098 1043 3454 
C 1043 3925 1459 4236 2086 4236 
C 2829 4236 3245 3899 3251 3295 
L 3814 3295 
z
" transform="scale(0.015625)"/>
       <path id="NimbusSanL-Regu-2f" d="M 1466 4672 
L -51 -128 
L 301 -128 
L 1818 4672 
L 1466 4672 
z
" transform="scale(0.015625)"/>
       <path id="NimbusSanL-Regu-74" d="M 1626 3328 
L 1075 3328 
L 1075 4249 
L 544 4249 
L 544 3328 
L 90 3328 
L 90 2892 
L 544 2892 
L 544 402 
C 544 64 774 -128 1190 -128 
C 1318 -128 1446 -116 1626 -84 
L 1626 364 
C 1555 345 1472 339 1370 339 
C 1139 339 1075 402 1075 634 
L 1075 2892 
L 1626 2892 
L 1626 3328 
z
" transform="scale(0.015625)"/>
       <path id="NimbusSanL-Regu-6f" d="M 1741 3456 
C 800 3456 230 2784 230 1663 
C 230 543 794 -128 1747 -128 
C 2688 -128 3264 543 3264 1638 
C 3264 2791 2707 3456 1741 3456 
z
M 1747 2963 
C 2349 2963 2707 2472 2707 1644 
C 2707 861 2336 364 1747 364 
C 1152 364 787 855 787 1663 
C 787 2466 1152 2963 1747 2963 
z
" transform="scale(0.015625)"/>
       <path id="NimbusSanL-Regu-61" d="M 3424 332 
C 3366 320 3341 320 3309 320 
C 3123 320 3021 415 3021 581 
L 3021 2542 
C 3021 3135 2586 3456 1760 3456 
C 1274 3456 870 3315 646 3065 
C 493 2893 429 2702 416 2370 
L 954 2370 
C 998 2778 1242 2963 1741 2963 
C 2221 2963 2490 2784 2490 2466 
L 2490 2326 
C 2490 2103 2355 2007 1933 1956 
C 1178 1861 1062 1835 858 1753 
C 467 1593 269 1294 269 861 
C 269 256 691 -128 1370 -128 
C 1792 -128 2131 19 2509 364 
C 2547 25 2714 -128 3059 -128 
C 3168 -128 3251 -116 3424 -71 
L 3424 332 
z
M 2490 1071 
C 2490 893 2438 785 2278 638 
C 2061 441 1798 339 1485 339 
C 1069 339 826 536 826 874 
C 826 1224 1062 1402 1632 1485 
C 2195 1562 2310 1587 2490 1670 
L 2490 1071 
z
" transform="scale(0.015625)"/>
       <path id="NimbusSanL-Regu-6c" d="M 973 4672 
L 435 4672 
L 435 0 
L 973 0 
L 973 4672 
z
" transform="scale(0.015625)"/>
      </defs>
      <use xlink:href="#NimbusSanL-Regu-53" transform="scale(0.996264)"/>
      <use xlink:href="#NimbusSanL-Regu-2f" transform="translate(66.450031 0) scale(0.996264)"/>
      <use xlink:href="#NimbusSanL-Regu-53" transform="translate(94.145201 0) scale(0.996264)"/>
      <use xlink:href="#NimbusSanL-Regu-74" transform="translate(196.460797 0) scale(0.996264)"/>
      <use xlink:href="#NimbusSanL-Regu-6f" transform="translate(224.155967 0) scale(0.996264)"/>
      <use xlink:href="#NimbusSanL-Regu-74" transform="translate(279.547644 0) scale(0.996264)"/>
      <use xlink:href="#NimbusSanL-Regu-61" transform="translate(307.242813 0) scale(0.996264)"/>
      <use xlink:href="#NimbusSanL-Regu-6c" transform="translate(362.63449 0) scale(0.996264)"/>
      <path d="M 166.572573 0 
L 196.460797 0 
L 196.460797 0.3985 
L 166.572573 0.3985 
L 166.572573 0 
z
"/>
     </g>
    </g>
   </g>
   <g id="matplotlib.axis_2">
    <g id="ytick_1">
     <g id="line2d_10">
      <defs>
       <path id="m4bcc67df5a" d="M 0 0 
L -3.5 0 
" style="stroke: #000000; stroke-width: 0.8"/>
      </defs>
      <g>
       <use xlink:href="#m4bcc67df5a" x="40.334753" y="209.819473" style="stroke: #000000; stroke-width: 0.8"/>
      </g>
     </g>
     <g id="text_11">
      <!-- $\mathdefault{1.5}$ -->
      <g transform="translate(20.604674 213.368633) scale(0.1 -0.1)">
       <use xlink:href="#CMR17-31" transform="scale(0.996264)"/>
       <use xlink:href="#CMMI12-3a" transform="translate(45.690477 0) scale(0.996264)"/>
       <use xlink:href="#CMR17-35" transform="translate(72.787654 0) scale(0.996264)"/>
      </g>
     </g>
    </g>
    <g id="ytick_2">
     <g id="line2d_11">
      <g>
       <use xlink:href="#m4bcc67df5a" x="40.334753" y="181.380857" style="stroke: #000000; stroke-width: 0.8"/>
      </g>
     </g>
     <g id="text_12">
      <!-- $\mathdefault{2.0}$ -->
      <g transform="translate(20.604674 184.930017) scale(0.1 -0.1)">
       <use xlink:href="#CMR17-32" transform="scale(0.996264)"/>
       <use xlink:href="#CMMI12-3a" transform="translate(45.690477 0) scale(0.996264)"/>
       <use xlink:href="#CMR17-30" transform="translate(72.787654 0) scale(0.996264)"/>
      </g>
     </g>
    </g>
    <g id="ytick_3">
     <g id="line2d_12">
      <g>
       <use xlink:href="#m4bcc67df5a" x="40.334753" y="152.942241" style="stroke: #000000; stroke-width: 0.8"/>
      </g>
     </g>
     <g id="text_13">
      <!-- $\mathdefault{2.5}$ -->
      <g transform="translate(20.604674 156.491401) scale(0.1 -0.1)">
       <use xlink:href="#CMR17-32" transform="scale(0.996264)"/>
       <use xlink:href="#CMMI12-3a" transform="translate(45.690477 0) scale(0.996264)"/>
       <use xlink:href="#CMR17-35" transform="translate(72.787654 0) scale(0.996264)"/>
      </g>
     </g>
    </g>
    <g id="ytick_4">
     <g id="line2d_13">
      <g>
       <use xlink:href="#m4bcc67df5a" x="40.334753" y="124.503624" style="stroke: #000000; stroke-width: 0.8"/>
      </g>
     </g>
     <g id="text_14">
      <!-- $\mathdefault{3.0}$ -->
      <g transform="translate(20.604674 128.052785) scale(0.1 -0.1)">
       <defs>
        <path id="CMR17-33" d="M 1414 2176 
C 1984 2176 2234 1673 2234 1094 
C 2234 322 1824 25 1453 25 
C 1114 25 563 193 390 691 
C 422 678 454 678 486 678 
C 640 678 755 780 755 947 
C 755 1132 614 1216 486 1216 
C 378 1216 211 1164 211 927 
C 211 335 787 -128 1466 -128 
C 2176 -128 2720 432 2720 1087 
C 2720 1718 2208 2176 1600 2246 
C 2086 2347 2554 2776 2554 3353 
C 2554 3856 2048 4224 1472 4224 
C 890 4224 378 3862 378 3347 
C 378 3123 544 3084 627 3084 
C 762 3084 877 3167 877 3334 
C 877 3500 762 3584 627 3584 
C 602 3584 570 3584 544 3571 
C 730 3999 1235 4076 1459 4076 
C 1683 4076 2106 3966 2106 3347 
C 2106 3167 2080 2851 1862 2574 
C 1670 2329 1453 2316 1242 2297 
C 1210 2297 1062 2284 1037 2284 
C 992 2278 966 2272 966 2227 
C 966 2182 973 2176 1101 2176 
L 1414 2176 
z
" transform="scale(0.015625)"/>
       </defs>
       <use xlink:href="#CMR17-33" transform="scale(0.996264)"/>
       <use xlink:href="#CMMI12-3a" transform="translate(45.690477 0) scale(0.996264)"/>
       <use xlink:href="#CMR17-30" transform="translate(72.787654 0) scale(0.996264)"/>
      </g>
     </g>
    </g>
    <g id="ytick_5">
     <g id="line2d_14">
      <g>
       <use xlink:href="#m4bcc67df5a" x="40.334753" y="96.065008" style="stroke: #000000; stroke-width: 0.8"/>
      </g>
     </g>
     <g id="text_15">
      <!-- $\mathdefault{3.5}$ -->
      <g transform="translate(20.604674 99.614169) scale(0.1 -0.1)">
       <use xlink:href="#CMR17-33" transform="scale(0.996264)"/>
       <use xlink:href="#CMMI12-3a" transform="translate(45.690477 0) scale(0.996264)"/>
       <use xlink:href="#CMR17-35" transform="translate(72.787654 0) scale(0.996264)"/>
      </g>
     </g>
    </g>
    <g id="ytick_6">
     <g id="line2d_15">
      <g>
       <use xlink:href="#m4bcc67df5a" x="40.334753" y="67.626392" style="stroke: #000000; stroke-width: 0.8"/>
      </g>
     </g>
     <g id="text_16">
      <!-- $\mathdefault{4.0}$ -->
      <g transform="translate(20.604674 71.175552) scale(0.1 -0.1)">
       <defs>
        <path id="CMR17-34" d="M 2150 4147 
C 2150 4281 2144 4288 2029 4288 
L 128 1254 
L 128 1088 
L 1779 1088 
L 1779 460 
C 1779 230 1766 166 1318 166 
L 1197 166 
L 1197 0 
C 1402 12 1747 12 1965 12 
C 2182 12 2528 12 2733 0 
L 2733 166 
L 2611 166 
C 2163 166 2150 230 2150 460 
L 2150 1088 
L 2803 1088 
L 2803 1254 
L 2150 1254 
L 2150 4147 
z
M 1798 3723 
L 1798 1254 
L 256 1254 
L 1798 3723 
z
" transform="scale(0.015625)"/>
       </defs>
       <use xlink:href="#CMR17-34" transform="scale(0.996264)"/>
       <use xlink:href="#CMMI12-3a" transform="translate(45.690477 0) scale(0.996264)"/>
       <use xlink:href="#CMR17-30" transform="translate(72.787654 0) scale(0.996264)"/>
      </g>
     </g>
    </g>
    <g id="ytick_7">
     <g id="line2d_16">
      <g>
       <use xlink:href="#m4bcc67df5a" x="40.334753" y="39.187776" style="stroke: #000000; stroke-width: 0.8"/>
      </g>
     </g>
     <g id="text_17">
      <!-- $\mathdefault{4.5}$ -->
      <g transform="translate(20.604674 42.736936) scale(0.1 -0.1)">
       <use xlink:href="#CMR17-34" transform="scale(0.996264)"/>
       <use xlink:href="#CMMI12-3a" transform="translate(45.690477 0) scale(0.996264)"/>
       <use xlink:href="#CMR17-35" transform="translate(72.787654 0) scale(0.996264)"/>
      </g>
     </g>
    </g>
    <g id="ytick_8">
     <g id="line2d_17">
      <g>
       <use xlink:href="#m4bcc67df5a" x="40.334753" y="10.74916" style="stroke: #000000; stroke-width: 0.8"/>
      </g>
     </g>
     <g id="text_18">
      <!-- $\mathdefault{5.0}$ -->
      <g transform="translate(20.604674 14.29832) scale(0.1 -0.1)">
       <use xlink:href="#CMR17-35" transform="scale(0.996264)"/>
       <use xlink:href="#CMMI12-3a" transform="translate(45.690477 0) scale(0.996264)"/>
       <use xlink:href="#CMR17-30" transform="translate(72.787654 0) scale(0.996264)"/>
      </g>
     </g>
    </g>
    <g id="text_19">
     <!-- Shape Factor - Blade_14 -->
     <g transform="translate(14.482687 174.734089) rotate(-90) scale(0.1 -0.1)">
      <defs>
       <path id="NimbusSanL-Regu-68" d="M 448 4672 
L 448 0 
L 979 0 
L 979 1853 
C 979 2539 1338 2988 1888 2988 
C 2061 2988 2234 2930 2362 2834 
C 2515 2725 2579 2565 2579 2328 
L 2579 0 
L 3110 0 
L 3110 2539 
C 3110 3103 2707 3456 2054 3456 
C 1581 3456 1293 3308 979 2898 
L 979 4672 
L 448 4672 
z
" transform="scale(0.015625)"/>
       <path id="NimbusSanL-Regu-70" d="M 346 -1408 
L 883 -1408 
L 883 371 
C 1165 25 1478 -128 1914 -128 
C 2778 -128 3347 568 3347 1632 
C 3347 2752 2797 3456 1907 3456 
C 1453 3456 1088 3251 838 2854 
L 838 3359 
L 346 3359 
L 346 -1408 
z
M 1818 2956 
C 2406 2956 2790 2440 2790 1644 
C 2790 887 2400 371 1818 371 
C 1254 371 883 880 883 1663 
C 883 2447 1254 2956 1818 2956 
z
" transform="scale(0.015625)"/>
       <path id="NimbusSanL-Regu-65" d="M 3283 1484 
C 3283 1998 3245 2311 3149 2565 
C 2931 3123 2419 3456 1792 3456 
C 858 3456 256 2734 256 1619 
C 256 545 838 -128 1779 -128 
C 2547 -128 3078 307 3213 1018 
L 2675 1018 
C 2528 588 2227 364 1798 364 
C 1459 364 1171 514 992 787 
C 864 974 819 1161 813 1484 
L 3283 1484 
z
M 826 1920 
C 870 2552 1248 2963 1786 2963 
C 2310 2963 2714 2519 2714 1959 
C 2714 1946 2714 1933 2707 1920 
L 826 1920 
z
" transform="scale(0.015625)"/>
       <path id="NimbusSanL-Regu-46" d="M 1171 2112 
L 3398 2112 
L 3398 2636 
L 1171 2636 
L 1171 4147 
L 3706 4147 
L 3706 4672 
L 576 4672 
L 576 0 
L 1171 0 
L 1171 2112 
z
" transform="scale(0.015625)"/>
       <path id="NimbusSanL-Regu-63" d="M 3014 2237 
C 2989 2561 2918 2771 2790 2956 
C 2560 3270 2157 3456 1690 3456 
C 787 3456 198 2740 198 1632 
C 198 555 774 -128 1683 -128 
C 2483 -128 2989 352 3053 1167 
L 2515 1167 
C 2426 632 2150 364 1696 364 
C 1107 364 755 842 755 1632 
C 755 2466 1101 2963 1683 2963 
C 2131 2963 2413 2701 2477 2237 
L 3014 2237 
z
" transform="scale(0.015625)"/>
       <path id="NimbusSanL-Regu-72" d="M 442 3328 
L 442 0 
L 979 0 
L 979 1727 
C 979 2203 1101 2514 1357 2698 
C 1523 2819 1683 2857 2054 2863 
L 2054 3404 
C 1965 3449 1920 3456 1850 3456 
C 1504 3456 1242 3251 934 2750 
L 934 3328 
L 442 3328 
z
" transform="scale(0.015625)"/>
       <path id="NimbusSanL-Regu-2d" d="M 1818 1996 
L 294 1996 
L 294 1536 
L 1818 1536 
L 1818 1996 
z
" transform="scale(0.015625)"/>
       <path id="NimbusSanL-Regu-42" d="M 506 0 
L 2611 0 
C 3053 0 3379 121 3629 390 
C 3859 632 3987 961 3987 1321 
C 3987 1878 3731 2214 3136 2444 
C 3558 2643 3782 2994 3782 3476 
C 3782 3821 3654 4127 3411 4345 
C 3168 4569 2848 4672 2400 4672 
L 506 4672 
L 506 0 
z
M 1101 2636 
L 1101 4147 
L 2253 4147 
C 2586 4147 2771 4101 2931 3977 
C 3098 3847 3187 3652 3187 3391 
C 3187 3138 3098 2936 2931 2806 
C 2771 2682 2586 2636 2253 2636 
L 1101 2636 
z
M 1101 524 
L 1101 2112 
L 2554 2112 
C 2842 2112 3034 2042 3174 1890 
C 3315 1745 3392 1542 3392 1315 
C 3392 1093 3315 891 3174 746 
C 3034 594 2842 524 2554 524 
L 1101 524 
z
" transform="scale(0.015625)"/>
       <path id="NimbusSanL-Regu-64" d="M 3168 4672 
L 2637 4672 
L 2637 2937 
C 2413 3276 2054 3456 1606 3456 
C 736 3456 166 2759 166 1695 
C 166 568 723 -128 1626 -128 
C 2086 -128 2406 44 2694 460 
L 2694 19 
L 3168 19 
L 3168 4672 
z
M 1696 2956 
C 2272 2956 2637 2447 2637 1651 
C 2637 880 2266 371 1702 371 
C 1114 371 723 887 723 1663 
C 723 2440 1114 2956 1696 2956 
z
" transform="scale(0.015625)"/>
       <path id="NimbusSanL-Regu-31" d="M 1658 3232 
L 1658 0 
L 2221 0 
L 2221 4537 
L 1850 4537 
C 1651 3840 1523 3744 653 3635 
L 653 3232 
L 1658 3232 
z
" transform="scale(0.015625)"/>
       <path id="NimbusSanL-Regu-34" d="M 2093 1088 
L 2093 0 
L 2656 0 
L 2656 1088 
L 3328 1088 
L 3328 1593 
L 2656 1593 
L 2656 4537 
L 2240 4537 
L 179 1683 
L 179 1088 
L 2093 1088 
z
M 2093 1593 
L 672 1593 
L 2093 3577 
L 2093 1593 
z
" transform="scale(0.015625)"/>
      </defs>
      <use xlink:href="#NimbusSanL-Regu-53" transform="scale(0.996264)"/>
      <use xlink:href="#NimbusSanL-Regu-68" transform="translate(66.450031 0) scale(0.996264)"/>
      <use xlink:href="#NimbusSanL-Regu-61" transform="translate(121.841708 0) scale(0.996264)"/>
      <use xlink:href="#NimbusSanL-Regu-70" transform="translate(177.233385 0) scale(0.996264)"/>
      <use xlink:href="#NimbusSanL-Regu-65" transform="translate(232.625062 0) scale(0.996264)"/>
      <use xlink:href="#NimbusSanL-Regu-46" transform="translate(315.711909 0) scale(0.996264)"/>
      <use xlink:href="#NimbusSanL-Regu-61" transform="translate(371.602189 0) scale(0.996264)"/>
      <use xlink:href="#NimbusSanL-Regu-63" transform="translate(426.993866 0) scale(0.996264)"/>
      <use xlink:href="#NimbusSanL-Regu-74" transform="translate(476.807066 0) scale(0.996264)"/>
      <use xlink:href="#NimbusSanL-Regu-6f" transform="translate(504.502236 0) scale(0.996264)"/>
      <use xlink:href="#NimbusSanL-Regu-72" transform="translate(559.893913 0) scale(0.996264)"/>
      <use xlink:href="#NimbusSanL-Regu-2d" transform="translate(620.764312 0) scale(0.996264)"/>
      <use xlink:href="#NimbusSanL-Regu-42" transform="translate(681.634712 0) scale(0.996264)"/>
      <use xlink:href="#NimbusSanL-Regu-6c" transform="translate(748.084743 0) scale(0.996264)"/>
      <use xlink:href="#NimbusSanL-Regu-61" transform="translate(770.201527 0) scale(0.996264)"/>
      <use xlink:href="#NimbusSanL-Regu-64" transform="translate(825.593204 0) scale(0.996264)"/>
      <use xlink:href="#NimbusSanL-Regu-65" transform="translate(880.984881 0) scale(0.996264)"/>
      <use xlink:href="#NimbusSanL-Regu-31" transform="translate(972.242123 0) scale(0.996264)"/>
      <use xlink:href="#NimbusSanL-Regu-34" transform="translate(1027.6338 0) scale(0.996264)"/>
      <path d="M 942.353899 0 
L 972.242123 0 
L 972.242123 0.3985 
L 942.353899 0.3985 
L 942.353899 0 
z
"/>
     </g>
    </g>
   </g>
   <g id="line2d_18">
    <path d="M 207.734753 82.843085 
M 208.999251 203.448386 
L 211.459144 147.269131 
L 213.297874 207.765139 
L 215.137368 173.507258 
L 216.977121 77.899714 
L 218.816989 82.718167 
L 220.656909 114.626118 
L 222.496855 159.541356 
L 224.336817 163.119248 
L 226.176787 165.558912 
L 228.01676 163.465411 
L 229.856734 166.648679 
L 231.696707 165.798182 
L 233.53668 169.405418 
L 235.376649 169.199395 
L 237.216616 168.951847 
L 239.056577 168.72596 
L 240.896533 168.492585 
L 242.736483 168.27207 
L 244.576427 168.062392 
L 246.416363 172.274506 
L 248.256292 172.279405 
L 250.096213 172.314382 
L 251.936125 172.339713 
L 253.77603 172.353385 
L 255.615924 172.45582 
L 257.455811 172.547284 
L 259.295692 172.676838 
L 261.135567 172.777303 
L 262.975437 172.877387 
L 264.815306 172.934343 
L 266.655176 172.950218 
L 268.49505 172.96884 
L 270.334932 172.994078 
L 272.174825 172.871411 
L 274.01473 172.634172 
L 275.854652 172.27613 
L 277.694591 171.765253 
L 279.534545 175.007383 
L 281.374518 174.442608 
L 283.214506 173.709953 
L 285.054508 172.935926 
L 286.894525 172.089333 
L 288.734553 171.222907 
L 290.574592 170.557402 
L 292.414641 170.486872 
L 294.254696 171.793974 
L 296.094759 178.39288 
L 297.934828 183.0747 
L 299.774901 187.537906 
L 301.614978 191.090908 
L 303.45506 193.705674 
L 305.295144 195.631639 
L 307.135231 198.552111 
L 308.97532 199.773127 
L 310.815409 200.715043 
L 312.655502 201.457799 
L 314.495596 203.207032 
L 316.33569 203.87997 
L 318.175786 204.421802 
L 320.015883 204.866252 
L 321.85598 205.22717 
L 323.696078 205.518591 
L 325.536177 205.759031 
L 327.376276 205.963837 
L 329.216376 206.135522 
L 331.056476 206.273706 
L 332.896576 206.387305 
L 334.736677 206.480439 
L 336.576778 206.556634 
L 338.416879 206.616454 
L 340.256981 206.66125 
L 342.097082 206.68963 
L 343.937184 206.705765 
L 345.777286 206.713204 
L 347.617388 206.709757 
L 349.457491 206.693282 
L 351.297593 206.664379 
L 353.137696 206.624696 
L 354.977799 206.573661 
L 356.817901 206.510143 
L 358.658004 206.432294 
L 360.498107 206.335661 
L 362.33821 206.220973 
L 364.178313 206.092338 
L 366.018416 205.948146 
L 367.85852 205.780951 
L 369.698623 205.583805 
L 371.538726 205.355408 
L 373.965124 205.092759 
L 374.549262 204.79265 
L 375.134753 204.442699 
" clip-path="url(#p39da682ea9)" style="fill: none; stroke: #00008b; stroke-width: 1.5; stroke-linecap: square"/>
    <defs>
     <path id="m5e2cfe0b79" d="M 0 0.25 
C 0.066301 0.25 0.129895 0.223658 0.176777 0.176777 
C 0.223658 0.129895 0.25 0.066301 0.25 0 
C 0.25 -0.066301 0.223658 -0.129895 0.176777 -0.176777 
C 0.129895 -0.223658 0.066301 -0.25 0 -0.25 
C -0.066301 -0.25 -0.129895 -0.223658 -0.176777 -0.176777 
C -0.223658 -0.129895 -0.25 -0.066301 -0.25 0 
C -0.25 0.066301 -0.223658 0.129895 -0.176777 0.176777 
C -0.129895 0.223658 -0.066301 0.25 0 0.25 
z
" style="stroke: #00008b"/>
    </defs>
    <g clip-path="url(#p39da682ea9)">
     <use xlink:href="#m5e2cfe0b79" x="207.734753" y="82.843085" style="fill: #00008b; stroke: #00008b"/>
     <use xlink:href="#m5e2cfe0b79" x="208.999251" y="203.448386" style="fill: #00008b; stroke: #00008b"/>
     <use xlink:href="#m5e2cfe0b79" x="211.459144" y="147.269131" style="fill: #00008b; stroke: #00008b"/>
     <use xlink:href="#m5e2cfe0b79" x="213.297874" y="207.765139" style="fill: #00008b; stroke: #00008b"/>
     <use xlink:href="#m5e2cfe0b79" x="215.137368" y="173.507258" style="fill: #00008b; stroke: #00008b"/>
     <use xlink:href="#m5e2cfe0b79" x="216.977121" y="77.899714" style="fill: #00008b; stroke: #00008b"/>
     <use xlink:href="#m5e2cfe0b79" x="218.816989" y="82.718167" style="fill: #00008b; stroke: #00008b"/>
     <use xlink:href="#m5e2cfe0b79" x="220.656909" y="114.626118" style="fill: #00008b; stroke: #00008b"/>
     <use xlink:href="#m5e2cfe0b79" x="222.496855" y="159.541356" style="fill: #00008b; stroke: #00008b"/>
     <use xlink:href="#m5e2cfe0b79" x="224.336817" y="163.119248" style="fill: #00008b; stroke: #00008b"/>
     <use xlink:href="#m5e2cfe0b79" x="226.176787" y="165.558912" style="fill: #00008b; stroke: #00008b"/>
     <use xlink:href="#m5e2cfe0b79" x="228.01676" y="163.465411" style="fill: #00008b; stroke: #00008b"/>
     <use xlink:href="#m5e2cfe0b79" x="229.856734" y="166.648679" style="fill: #00008b; stroke: #00008b"/>
     <use xlink:href="#m5e2cfe0b79" x="231.696707" y="165.798182" style="fill: #00008b; stroke: #00008b"/>
     <use xlink:href="#m5e2cfe0b79" x="233.53668" y="169.405418" style="fill: #00008b; stroke: #00008b"/>
     <use xlink:href="#m5e2cfe0b79" x="235.376649" y="169.199395" style="fill: #00008b; stroke: #00008b"/>
     <use xlink:href="#m5e2cfe0b79" x="237.216616" y="168.951847" style="fill: #00008b; stroke: #00008b"/>
     <use xlink:href="#m5e2cfe0b79" x="239.056577" y="168.72596" style="fill: #00008b; stroke: #00008b"/>
     <use xlink:href="#m5e2cfe0b79" x="240.896533" y="168.492585" style="fill: #00008b; stroke: #00008b"/>
     <use xlink:href="#m5e2cfe0b79" x="242.736483" y="168.27207" style="fill: #00008b; stroke: #00008b"/>
     <use xlink:href="#m5e2cfe0b79" x="244.576427" y="168.062392" style="fill: #00008b; stroke: #00008b"/>
     <use xlink:href="#m5e2cfe0b79" x="246.416363" y="172.274506" style="fill: #00008b; stroke: #00008b"/>
     <use xlink:href="#m5e2cfe0b79" x="248.256292" y="172.279405" style="fill: #00008b; stroke: #00008b"/>
     <use xlink:href="#m5e2cfe0b79" x="250.096213" y="172.314382" style="fill: #00008b; stroke: #00008b"/>
     <use xlink:href="#m5e2cfe0b79" x="251.936125" y="172.339713" style="fill: #00008b; stroke: #00008b"/>
     <use xlink:href="#m5e2cfe0b79" x="253.77603" y="172.353385" style="fill: #00008b; stroke: #00008b"/>
     <use xlink:href="#m5e2cfe0b79" x="255.615924" y="172.45582" style="fill: #00008b; stroke: #00008b"/>
     <use xlink:href="#m5e2cfe0b79" x="257.455811" y="172.547284" style="fill: #00008b; stroke: #00008b"/>
     <use xlink:href="#m5e2cfe0b79" x="259.295692" y="172.676838" style="fill: #00008b; stroke: #00008b"/>
     <use xlink:href="#m5e2cfe0b79" x="261.135567" y="172.777303" style="fill: #00008b; stroke: #00008b"/>
     <use xlink:href="#m5e2cfe0b79" x="262.975437" y="172.877387" style="fill: #00008b; stroke: #00008b"/>
     <use xlink:href="#m5e2cfe0b79" x="264.815306" y="172.934343" style="fill: #00008b; stroke: #00008b"/>
     <use xlink:href="#m5e2cfe0b79" x="266.655176" y="172.950218" style="fill: #00008b; stroke: #00008b"/>
     <use xlink:href="#m5e2cfe0b79" x="268.49505" y="172.96884" style="fill: #00008b; stroke: #00008b"/>
     <use xlink:href="#m5e2cfe0b79" x="270.334932" y="172.994078" style="fill: #00008b; stroke: #00008b"/>
     <use xlink:href="#m5e2cfe0b79" x="272.174825" y="172.871411" style="fill: #00008b; stroke: #00008b"/>
     <use xlink:href="#m5e2cfe0b79" x="274.01473" y="172.634172" style="fill: #00008b; stroke: #00008b"/>
     <use xlink:href="#m5e2cfe0b79" x="275.854652" y="172.27613" style="fill: #00008b; stroke: #00008b"/>
     <use xlink:href="#m5e2cfe0b79" x="277.694591" y="171.765253" style="fill: #00008b; stroke: #00008b"/>
     <use xlink:href="#m5e2cfe0b79" x="279.534545" y="175.007383" style="fill: #00008b; stroke: #00008b"/>
     <use xlink:href="#m5e2cfe0b79" x="281.374518" y="174.442608" style="fill: #00008b; stroke: #00008b"/>
     <use xlink:href="#m5e2cfe0b79" x="283.214506" y="173.709953" style="fill: #00008b; stroke: #00008b"/>
     <use xlink:href="#m5e2cfe0b79" x="285.054508" y="172.935926" style="fill: #00008b; stroke: #00008b"/>
     <use xlink:href="#m5e2cfe0b79" x="286.894525" y="172.089333" style="fill: #00008b; stroke: #00008b"/>
     <use xlink:href="#m5e2cfe0b79" x="288.734553" y="171.222907" style="fill: #00008b; stroke: #00008b"/>
     <use xlink:href="#m5e2cfe0b79" x="290.574592" y="170.557402" style="fill: #00008b; stroke: #00008b"/>
     <use xlink:href="#m5e2cfe0b79" x="292.414641" y="170.486872" style="fill: #00008b; stroke: #00008b"/>
     <use xlink:href="#m5e2cfe0b79" x="294.254696" y="171.793974" style="fill: #00008b; stroke: #00008b"/>
     <use xlink:href="#m5e2cfe0b79" x="296.094759" y="178.39288" style="fill: #00008b; stroke: #00008b"/>
     <use xlink:href="#m5e2cfe0b79" x="297.934828" y="183.0747" style="fill: #00008b; stroke: #00008b"/>
     <use xlink:href="#m5e2cfe0b79" x="299.774901" y="187.537906" style="fill: #00008b; stroke: #00008b"/>
     <use xlink:href="#m5e2cfe0b79" x="301.614978" y="191.090908" style="fill: #00008b; stroke: #00008b"/>
     <use xlink:href="#m5e2cfe0b79" x="303.45506" y="193.705674" style="fill: #00008b; stroke: #00008b"/>
     <use xlink:href="#m5e2cfe0b79" x="305.295144" y="195.631639" style="fill: #00008b; stroke: #00008b"/>
     <use xlink:href="#m5e2cfe0b79" x="307.135231" y="198.552111" style="fill: #00008b; stroke: #00008b"/>
     <use xlink:href="#m5e2cfe0b79" x="308.97532" y="199.773127" style="fill: #00008b; stroke: #00008b"/>
     <use xlink:href="#m5e2cfe0b79" x="310.815409" y="200.715043" style="fill: #00008b; stroke: #00008b"/>
     <use xlink:href="#m5e2cfe0b79" x="312.655502" y="201.457799" style="fill: #00008b; stroke: #00008b"/>
     <use xlink:href="#m5e2cfe0b79" x="314.495596" y="203.207032" style="fill: #00008b; stroke: #00008b"/>
     <use xlink:href="#m5e2cfe0b79" x="316.33569" y="203.87997" style="fill: #00008b; stroke: #00008b"/>
     <use xlink:href="#m5e2cfe0b79" x="318.175786" y="204.421802" style="fill: #00008b; stroke: #00008b"/>
     <use xlink:href="#m5e2cfe0b79" x="320.015883" y="204.866252" style="fill: #00008b; stroke: #00008b"/>
     <use xlink:href="#m5e2cfe0b79" x="321.85598" y="205.22717" style="fill: #00008b; stroke: #00008b"/>
     <use xlink:href="#m5e2cfe0b79" x="323.696078" y="205.518591" style="fill: #00008b; stroke: #00008b"/>
     <use xlink:href="#m5e2cfe0b79" x="325.536177" y="205.759031" style="fill: #00008b; stroke: #00008b"/>
     <use xlink:href="#m5e2cfe0b79" x="327.376276" y="205.963837" style="fill: #00008b; stroke: #00008b"/>
     <use xlink:href="#m5e2cfe0b79" x="329.216376" y="206.135522" style="fill: #00008b; stroke: #00008b"/>
     <use xlink:href="#m5e2cfe0b79" x="331.056476" y="206.273706" style="fill: #00008b; stroke: #00008b"/>
     <use xlink:href="#m5e2cfe0b79" x="332.896576" y="206.387305" style="fill: #00008b; stroke: #00008b"/>
     <use xlink:href="#m5e2cfe0b79" x="334.736677" y="206.480439" style="fill: #00008b; stroke: #00008b"/>
     <use xlink:href="#m5e2cfe0b79" x="336.576778" y="206.556634" style="fill: #00008b; stroke: #00008b"/>
     <use xlink:href="#m5e2cfe0b79" x="338.416879" y="206.616454" style="fill: #00008b; stroke: #00008b"/>
     <use xlink:href="#m5e2cfe0b79" x="340.256981" y="206.66125" style="fill: #00008b; stroke: #00008b"/>
     <use xlink:href="#m5e2cfe0b79" x="342.097082" y="206.68963" style="fill: #00008b; stroke: #00008b"/>
     <use xlink:href="#m5e2cfe0b79" x="343.937184" y="206.705765" style="fill: #00008b; stroke: #00008b"/>
     <use xlink:href="#m5e2cfe0b79" x="345.777286" y="206.713204" style="fill: #00008b; stroke: #00008b"/>
     <use xlink:href="#m5e2cfe0b79" x="347.617388" y="206.709757" style="fill: #00008b; stroke: #00008b"/>
     <use xlink:href="#m5e2cfe0b79" x="349.457491" y="206.693282" style="fill: #00008b; stroke: #00008b"/>
     <use xlink:href="#m5e2cfe0b79" x="351.297593" y="206.664379" style="fill: #00008b; stroke: #00008b"/>
     <use xlink:href="#m5e2cfe0b79" x="353.137696" y="206.624696" style="fill: #00008b; stroke: #00008b"/>
     <use xlink:href="#m5e2cfe0b79" x="354.977799" y="206.573661" style="fill: #00008b; stroke: #00008b"/>
     <use xlink:href="#m5e2cfe0b79" x="356.817901" y="206.510143" style="fill: #00008b; stroke: #00008b"/>
     <use xlink:href="#m5e2cfe0b79" x="358.658004" y="206.432294" style="fill: #00008b; stroke: #00008b"/>
     <use xlink:href="#m5e2cfe0b79" x="360.498107" y="206.335661" style="fill: #00008b; stroke: #00008b"/>
     <use xlink:href="#m5e2cfe0b79" x="362.33821" y="206.220973" style="fill: #00008b; stroke: #00008b"/>
     <use xlink:href="#m5e2cfe0b79" x="364.178313" y="206.092338" style="fill: #00008b; stroke: #00008b"/>
     <use xlink:href="#m5e2cfe0b79" x="366.018416" y="205.948146" style="fill: #00008b; stroke: #00008b"/>
     <use xlink:href="#m5e2cfe0b79" x="367.85852" y="205.780951" style="fill: #00008b; stroke: #00008b"/>
     <use xlink:href="#m5e2cfe0b79" x="369.698623" y="205.583805" style="fill: #00008b; stroke: #00008b"/>
     <use xlink:href="#m5e2cfe0b79" x="371.538726" y="205.355408" style="fill: #00008b; stroke: #00008b"/>
     <use xlink:href="#m5e2cfe0b79" x="373.965124" y="205.092759" style="fill: #00008b; stroke: #00008b"/>
     <use xlink:href="#m5e2cfe0b79" x="374.549262" y="204.79265" style="fill: #00008b; stroke: #00008b"/>
     <use xlink:href="#m5e2cfe0b79" x="375.134753" y="204.442699" style="fill: #00008b; stroke: #00008b"/>
    </g>
   </g>
   <g id="line2d_19">
    <path d="M 207.734753 204.138833 
L 207.10223 204.257176 
L 206.469502 205.06178 
L 204.004993 197.691179 
L 202.165615 166.653148 
L 200.325695 19.78287 
L 198.485599 221.38287 
" clip-path="url(#p39da682ea9)" style="fill: none; stroke: #add8e6; stroke-width: 1.5; stroke-linecap: square"/>
    <defs>
     <path id="m6bd1f94279" d="M 0 0.25 
C 0.066301 0.25 0.129895 0.223658 0.176777 0.176777 
C 0.223658 0.129895 0.25 0.066301 0.25 0 
C 0.25 -0.066301 0.223658 -0.129895 0.176777 -0.176777 
C 0.129895 -0.223658 0.066301 -0.25 0 -0.25 
C -0.066301 -0.25 -0.129895 -0.223658 -0.176777 -0.176777 
C -0.223658 -0.129895 -0.25 -0.066301 -0.25 0 
C -0.25 0.066301 -0.223658 0.129895 -0.176777 0.176777 
C -0.129895 0.223658 -0.066301 0.25 0 0.25 
z
" style="stroke: #add8e6"/>
    </defs>
    <g clip-path="url(#p39da682ea9)">
     <use xlink:href="#m6bd1f94279" x="207.734753" y="204.138833" style="fill: #add8e6; stroke: #add8e6"/>
     <use xlink:href="#m6bd1f94279" x="207.10223" y="204.257176" style="fill: #add8e6; stroke: #add8e6"/>
     <use xlink:href="#m6bd1f94279" x="206.469502" y="205.06178" style="fill: #add8e6; stroke: #add8e6"/>
     <use xlink:href="#m6bd1f94279" x="204.004993" y="197.691179" style="fill: #add8e6; stroke: #add8e6"/>
     <use xlink:href="#m6bd1f94279" x="202.165615" y="166.653148" style="fill: #add8e6; stroke: #add8e6"/>
     <use xlink:href="#m6bd1f94279" x="200.325695" y="19.78287" style="fill: #add8e6; stroke: #add8e6"/>
     <use xlink:href="#m6bd1f94279" x="198.485599" y="221.38287" style="fill: #add8e6; stroke: #add8e6"/>
    </g>
   </g>
   <g id="patch_3">
    <path d="M 40.334753 231.46287 
L 40.334753 9.70287 
" style="fill: none; stroke: #000000; stroke-width: 0.8; stroke-linejoin: miter; stroke-linecap: square"/>
   </g>
   <g id="patch_4">
    <path d="M 375.134753 231.46287 
L 375.134753 9.70287 
" style="fill: none; stroke: #000000; stroke-width: 0.8; stroke-linejoin: miter; stroke-linecap: square"/>
   </g>
   <g id="patch_5">
    <path d="M 40.334753 231.46287 
L 375.134753 231.46287 
" style="fill: none; stroke: #000000; stroke-width: 0.8; stroke-linejoin: miter; stroke-linecap: square"/>
   </g>
   <g id="patch_6">
    <path d="M 40.334753 9.70287 
L 375.134753 9.70287 
" style="fill: none; stroke: #000000; stroke-width: 0.8; stroke-linejoin: miter; stroke-linecap: square"/>
   </g>
   <g id="legend_1">
    <g id="patch_7">
     <path d="M 45.334753 60.732524 
L 131.157409 60.732524 
L 131.157409 14.70287 
L 45.334753 14.70287 
z
" style="fill: #ffffff; opacity: 0.8; stroke: #000000; stroke-linejoin: miter"/>
    </g>
    <g id="line2d_20">
     <path d="M 49.334753 22.485557 
L 59.334753 22.485557 
L 69.334753 22.485557 
" style="fill: none; stroke: #00008b; stroke-width: 1.5; stroke-linecap: square"/>
     <g>
      <use xlink:href="#m5e2cfe0b79" x="59.334753" y="22.485557" style="fill: #00008b; stroke: #00008b"/>
     </g>
    </g>
    <g id="text_20">
     <!-- SU2 (SS) -->
     <g transform="translate(77.334753 25.985557) scale(0.1 -0.1)">
      <defs>
       <path id="NimbusSanL-Regu-55" d="M 3533 4672 
L 3533 1404 
C 3533 779 3078 396 2330 396 
C 1984 396 1702 479 1478 639 
C 1248 817 1139 1053 1139 1404 
L 1139 4672 
L 544 4672 
L 544 1404 
C 544 460 1222 -128 2330 -128 
C 3424 -128 4128 473 4128 1404 
L 4128 4672 
L 3533 4672 
z
" transform="scale(0.015625)"/>
       <path id="NimbusSanL-Regu-32" d="M 3238 556 
L 851 556 
C 909 928 1114 1165 1670 1493 
L 2310 1839 
C 2944 2185 3270 2653 3270 3211 
C 3270 3589 3117 3942 2848 4185 
C 2579 4428 2246 4544 1818 4544 
C 1242 4544 813 4339 563 3955 
C 403 3711 333 3429 320 2967 
L 883 2967 
C 902 3275 941 3461 1018 3608 
C 1165 3884 1459 4051 1798 4051 
C 2310 4051 2694 3685 2694 3198 
C 2694 2839 2483 2531 2080 2300 
L 1491 1967 
C 544 1428 269 999 218 0 
L 3238 0 
L 3238 556 
z
" transform="scale(0.015625)"/>
       <path id="NimbusSanL-Regu-28" d="M 1510 4672 
C 870 3833 467 2668 467 1663 
C 467 652 870 -513 1510 -1351 
L 1862 -1351 
C 1299 -436 986 639 986 1663 
C 986 2681 1299 3763 1862 4672 
L 1510 4672 
z
" transform="scale(0.015625)"/>
       <path id="NimbusSanL-Regu-29" d="M 595 -1351 
C 1235 -513 1638 652 1638 1657 
C 1638 2668 1235 3833 595 4672 
L 243 4672 
C 806 3756 1120 2681 1120 1657 
C 1120 639 806 -442 243 -1351 
L 595 -1351 
z
" transform="scale(0.015625)"/>
      </defs>
      <use xlink:href="#NimbusSanL-Regu-53" transform="scale(0.996264)"/>
      <use xlink:href="#NimbusSanL-Regu-55" transform="translate(66.450031 0) scale(0.996264)"/>
      <use xlink:href="#NimbusSanL-Regu-32" transform="translate(138.380016 0) scale(0.996264)"/>
      <use xlink:href="#NimbusSanL-Regu-28" transform="translate(221.466863 0) scale(0.996264)"/>
      <use xlink:href="#NimbusSanL-Regu-53" transform="translate(254.642092 0) scale(0.996264)"/>
      <use xlink:href="#NimbusSanL-Regu-53" transform="translate(321.092123 0) scale(0.996264)"/>
      <use xlink:href="#NimbusSanL-Regu-29" transform="translate(387.542155 0) scale(0.996264)"/>
     </g>
    </g>
    <g id="line2d_21">
     <path d="M 49.334753 36.890231 
L 59.334753 36.890231 
L 69.334753 36.890231 
" style="fill: none; stroke: #add8e6; stroke-width: 1.5; stroke-linecap: square"/>
     <g>
      <use xlink:href="#m6bd1f94279" x="59.334753" y="36.890231" style="fill: #add8e6; stroke: #add8e6"/>
     </g>
    </g>
    <g id="text_21">
     <!-- SU2 (PS) -->
     <g transform="translate(77.334753 40.390231) scale(0.1 -0.1)">
      <defs>
       <path id="NimbusSanL-Regu-50" d="M 1178 1984 
L 2643 1984 
C 3008 1984 3296 2092 3546 2316 
C 3827 2572 3949 2873 3949 3302 
C 3949 4179 3430 4672 2509 4672 
L 582 4672 
L 582 0 
L 1178 0 
L 1178 1984 
z
M 1178 2508 
L 1178 4147 
L 2419 4147 
C 2989 4147 3328 3839 3328 3327 
C 3328 2816 2989 2508 2419 2508 
L 1178 2508 
z
" transform="scale(0.015625)"/>
      </defs>
      <use xlink:href="#NimbusSanL-Regu-53" transform="scale(0.996264)"/>
      <use xlink:href="#NimbusSanL-Regu-55" transform="translate(66.450031 0) scale(0.996264)"/>
      <use xlink:href="#NimbusSanL-Regu-32" transform="translate(138.380016 0) scale(0.996264)"/>
      <use xlink:href="#NimbusSanL-Regu-28" transform="translate(221.466863 0) scale(0.996264)"/>
      <use xlink:href="#NimbusSanL-Regu-50" transform="translate(254.642092 0) scale(0.996264)"/>
      <use xlink:href="#NimbusSanL-Regu-53" transform="translate(321.092123 0) scale(0.996264)"/>
      <use xlink:href="#NimbusSanL-Regu-29" transform="translate(387.542155 0) scale(0.996264)"/>
     </g>
    </g>
    <g id="PathCollection_2">
     <g>
      <use xlink:href="#ma532909e5a" x="59.334753" y="51.985538" style="fill: #ff0000; stroke: #ff0000"/>
     </g>
    </g>
    <g id="text_22">
     <!-- Mises Data -->
     <g transform="translate(77.334753 54.610538) scale(0.1 -0.1)">
      <defs>
       <path id="NimbusSanL-Regu-4d" d="M 2995 0 
L 4307 3915 
L 4307 0 
L 4870 0 
L 4870 4672 
L 4045 4672 
L 2688 602 
L 1306 4672 
L 480 4672 
L 480 0 
L 1043 0 
L 1043 3915 
L 2368 0 
L 2995 0 
z
" transform="scale(0.015625)"/>
       <path id="NimbusSanL-Regu-69" d="M 960 3358 
L 429 3358 
L 429 0 
L 960 0 
L 960 3358 
z
M 960 4672 
L 422 4672 
L 422 3999 
L 960 3999 
L 960 4672 
z
" transform="scale(0.015625)"/>
       <path id="NimbusSanL-Regu-73" d="M 2803 2428 
C 2797 3084 2362 3456 1587 3456 
C 806 3456 301 3052 301 2434 
C 301 1912 570 1663 1363 1472 
L 1862 1351 
C 2234 1262 2381 1129 2381 887 
C 2381 574 2067 364 1600 364 
C 1312 364 1069 447 934 587 
C 851 683 813 778 781 1014 
L 218 1014 
C 243 243 678 -128 1555 -128 
C 2400 -128 2938 288 2938 931 
C 2938 1428 2656 1702 1990 1861 
L 1478 1982 
C 1043 2084 858 2224 858 2459 
C 858 2765 1133 2963 1568 2963 
C 1997 2963 2227 2778 2240 2428 
L 2803 2428 
z
" transform="scale(0.015625)"/>
       <path id="NimbusSanL-Regu-44" d="M 570 0 
L 2368 0 
C 3546 0 4269 883 4269 2339 
C 4269 3788 3552 4672 2368 4672 
L 570 4672 
L 570 0 
z
M 1165 524 
L 1165 4147 
L 2266 4147 
C 3187 4147 3674 3525 3674 2332 
C 3674 1153 3187 524 2266 524 
L 1165 524 
z
" transform="scale(0.015625)"/>
      </defs>
      <use xlink:href="#NimbusSanL-Regu-4d" transform="scale(0.996264)"/>
      <use xlink:href="#NimbusSanL-Regu-69" transform="translate(82.98843 0) scale(0.996264)"/>
      <use xlink:href="#NimbusSanL-Regu-73" transform="translate(105.105215 0) scale(0.996264)"/>
      <use xlink:href="#NimbusSanL-Regu-65" transform="translate(154.918415 0) scale(0.996264)"/>
      <use xlink:href="#NimbusSanL-Regu-73" transform="translate(210.310092 0) scale(0.996264)"/>
      <use xlink:href="#NimbusSanL-Regu-44" transform="translate(287.818462 0) scale(0.996264)"/>
      <use xlink:href="#NimbusSanL-Regu-61" transform="translate(359.748447 0) scale(0.996264)"/>
      <use xlink:href="#NimbusSanL-Regu-74" transform="translate(415.140124 0) scale(0.996264)"/>
      <use xlink:href="#NimbusSanL-Regu-61" transform="translate(442.835294 0) scale(0.996264)"/>
     </g>
    </g>
   </g>
  </g>
 </g>
 <defs>
  <clipPath id="p39da682ea9">
   <rect x="40.334753" y="9.70287" width="334.8" height="221.76"/>
  </clipPath>
 </defs>
</svg>
