<?xml version="1.0" encoding="utf-8" standalone="no"?>
<!DOCTYPE svg PUBLIC "-//W3C//DTD SVG 1.1//EN"
  "http://www.w3.org/Graphics/SVG/1.1/DTD/svg11.dtd">
<svg xmlns:xlink="http://www.w3.org/1999/xlink" width="391.006093pt" height="265.600613pt" viewBox="0 0 391.006093 265.600613" xmlns="http://www.w3.org/2000/svg" version="1.1">
 <metadata>
  <rdf:RDF xmlns:dc="http://purl.org/dc/elements/1.1/" xmlns:cc="http://creativecommons.org/ns#" xmlns:rdf="http://www.w3.org/1999/02/22-rdf-syntax-ns#">
   <cc:Work>
    <dc:type rdf:resource="http://purl.org/dc/dcmitype/StillImage"/>
    <dc:date>2025-07-17T19:09:56.150594</dc:date>
    <dc:format>image/svg+xml</dc:format>
    <dc:creator>
     <cc:Agent>
      <dc:title>Matplotlib v3.10.3, https://matplotlib.org/</dc:title>
     </cc:Agent>
    </dc:creator>
   </cc:Work>
  </rdf:RDF>
 </metadata>
 <defs>
  <style type="text/css">*{stroke-linejoin: round; stroke-linecap: butt}</style>
 </defs>
 <g id="figure_1">
  <g id="patch_1">
   <path d="M 0 265.600613 
L 391.006093 265.600613 
L 391.006093 -0 
L 0 -0 
z
" style="fill: #ffffff"/>
  </g>
  <g id="axes_1">
   <g id="patch_2">
    <path d="M 40.150386 228.96 
L 374.950386 228.96 
L 374.950386 7.2 
L 40.150386 7.2 
z
" style="fill: #ffffff"/>
   </g>
   <g id="matplotlib.axis_1">
    <g id="xtick_1">
     <g id="line2d_1">
      <defs>
       <path id="m9d9f1348c4" d="M 0 0 
L 0 3.5 
" style="stroke: #000000; stroke-width: 0.8"/>
      </defs>
      <g>
       <use xlink:href="#m9d9f1348c4" x="40.150386" y="228.96" style="stroke: #000000; stroke-width: 0.8"/>
      </g>
     </g>
     <g id="text_1">
      <!-- $\mathdefault{−1.00}$ -->
      <g transform="translate(27.420307 243.05832) scale(0.1 -0.1)">
       <defs>
        <path id="CMSY10-0" d="M 4218 1472 
C 4326 1472 4442 1472 4442 1600 
C 4442 1728 4326 1728 4218 1728 
L 755 1728 
C 646 1728 531 1728 531 1600 
C 531 1472 646 1472 755 1472 
L 4218 1472 
z
" transform="scale(0.015625)"/>
        <path id="CMR17-31" d="M 1702 4083 
C 1702 4217 1696 4224 1606 4224 
C 1357 3927 979 3833 621 3820 
C 602 3820 570 3820 563 3808 
C 557 3795 557 3782 557 3648 
C 755 3648 1088 3686 1344 3839 
L 1344 467 
C 1344 243 1331 166 781 166 
L 589 166 
L 589 0 
C 896 6 1216 12 1523 12 
C 1830 12 2150 6 2458 0 
L 2458 166 
L 2266 166 
C 1715 166 1702 236 1702 467 
L 1702 4083 
z
" transform="scale(0.015625)"/>
        <path id="CMMI12-3a" d="M 1178 307 
C 1178 492 1024 620 870 620 
C 685 620 557 467 557 313 
C 557 128 710 0 864 0 
C 1050 0 1178 153 1178 307 
z
" transform="scale(0.015625)"/>
        <path id="CMR17-30" d="M 2688 2038 
C 2688 2430 2682 3099 2413 3613 
C 2176 4063 1798 4224 1466 4224 
C 1158 4224 768 4082 525 3620 
C 269 3137 243 2539 243 2038 
C 243 1671 250 1112 448 623 
C 723 -39 1216 -128 1466 -128 
C 1760 -128 2208 -7 2470 604 
C 2662 1048 2688 1568 2688 2038 
z
M 1466 -26 
C 1056 -26 813 328 723 816 
C 653 1196 653 1749 653 2109 
C 653 2604 653 3015 736 3407 
C 858 3954 1216 4121 1466 4121 
C 1728 4121 2067 3947 2189 3420 
C 2272 3054 2278 2623 2278 2109 
C 2278 1691 2278 1176 2202 797 
C 2067 96 1690 -26 1466 -26 
z
" transform="scale(0.015625)"/>
       </defs>
       <use xlink:href="#CMSY10-0" transform="scale(0.996264)"/>
       <use xlink:href="#CMR17-31" transform="translate(77.487468 0) scale(0.996264)"/>
       <use xlink:href="#CMMI12-3a" transform="translate(123.177945 0) scale(0.996264)"/>
       <use xlink:href="#CMR17-30" transform="translate(150.275122 0) scale(0.996264)"/>
       <use xlink:href="#CMR17-30" transform="translate(195.965599 0) scale(0.996264)"/>
      </g>
     </g>
    </g>
    <g id="xtick_2">
     <g id="line2d_2">
      <g>
       <use xlink:href="#m9d9f1348c4" x="82.000386" y="228.96" style="stroke: #000000; stroke-width: 0.8"/>
      </g>
     </g>
     <g id="text_2">
      <!-- $\mathdefault{−0.75}$ -->
      <g transform="translate(69.270307 243.05832) scale(0.1 -0.1)">
       <defs>
        <path id="CMR17-37" d="M 2886 3955 
L 2886 4096 
L 1382 4096 
C 634 4096 621 4166 595 4288 
L 480 4288 
L 294 3104 
L 410 3104 
C 429 3226 474 3552 550 3673 
C 589 3724 1062 3724 1171 3724 
L 2579 3724 
L 1869 2670 
C 1395 1961 1069 1003 1069 166 
C 1069 89 1069 -128 1299 -128 
C 1530 -128 1530 89 1530 172 
L 1530 466 
C 1530 1514 1709 2204 2003 2644 
L 2886 3955 
z
" transform="scale(0.015625)"/>
        <path id="CMR17-35" d="M 730 3750 
C 794 3724 1056 3641 1325 3641 
C 1920 3641 2246 3961 2432 4140 
C 2432 4191 2432 4224 2394 4224 
C 2387 4224 2374 4224 2323 4198 
C 2099 4102 1837 4032 1517 4032 
C 1325 4032 1037 4055 723 4191 
C 653 4224 640 4224 634 4224 
C 602 4224 595 4217 595 4090 
L 595 2231 
C 595 2113 595 2080 659 2080 
C 691 2080 704 2093 736 2139 
C 941 2435 1222 2560 1542 2560 
C 1766 2560 2246 2415 2246 1293 
C 2246 1087 2246 716 2054 422 
C 1894 159 1645 25 1370 25 
C 947 25 518 319 403 812 
C 429 806 480 793 506 793 
C 589 793 749 838 749 1036 
C 749 1209 627 1280 506 1280 
C 358 1280 262 1190 262 1011 
C 262 454 704 -128 1382 -128 
C 2042 -128 2669 441 2669 1267 
C 2669 2054 2170 2662 1549 2662 
C 1222 2662 947 2540 730 2304 
L 730 3750 
z
" transform="scale(0.015625)"/>
       </defs>
       <use xlink:href="#CMSY10-0" transform="scale(0.996264)"/>
       <use xlink:href="#CMR17-30" transform="translate(77.487468 0) scale(0.996264)"/>
       <use xlink:href="#CMMI12-3a" transform="translate(123.177945 0) scale(0.996264)"/>
       <use xlink:href="#CMR17-37" transform="translate(150.275122 0) scale(0.996264)"/>
       <use xlink:href="#CMR17-35" transform="translate(195.965599 0) scale(0.996264)"/>
      </g>
     </g>
    </g>
    <g id="xtick_3">
     <g id="line2d_3">
      <g>
       <use xlink:href="#m9d9f1348c4" x="123.850386" y="228.96" style="stroke: #000000; stroke-width: 0.8"/>
      </g>
     </g>
     <g id="text_3">
      <!-- $\mathdefault{−0.50}$ -->
      <g transform="translate(111.120307 243.05832) scale(0.1 -0.1)">
       <use xlink:href="#CMSY10-0" transform="scale(0.996264)"/>
       <use xlink:href="#CMR17-30" transform="translate(77.487468 0) scale(0.996264)"/>
       <use xlink:href="#CMMI12-3a" transform="translate(123.177945 0) scale(0.996264)"/>
       <use xlink:href="#CMR17-35" transform="translate(150.275122 0) scale(0.996264)"/>
       <use xlink:href="#CMR17-30" transform="translate(195.965599 0) scale(0.996264)"/>
      </g>
     </g>
    </g>
    <g id="xtick_4">
     <g id="line2d_4">
      <g>
       <use xlink:href="#m9d9f1348c4" x="165.700386" y="228.96" style="stroke: #000000; stroke-width: 0.8"/>
      </g>
     </g>
     <g id="text_4">
      <!-- $\mathdefault{−0.25}$ -->
      <g transform="translate(152.970307 243.05832) scale(0.1 -0.1)">
       <defs>
        <path id="CMR17-32" d="M 2669 990 
L 2554 990 
C 2490 537 2438 460 2413 422 
C 2381 371 1920 371 1830 371 
L 602 371 
C 832 620 1280 1073 1824 1596 
C 2214 1966 2669 2400 2669 3033 
C 2669 3788 2067 4224 1395 4224 
C 691 4224 262 3603 262 3027 
C 262 2777 448 2745 525 2745 
C 589 2745 781 2783 781 3007 
C 781 3206 614 3264 525 3264 
C 486 3264 448 3257 422 3244 
C 544 3788 915 4057 1306 4057 
C 1862 4057 2227 3616 2227 3033 
C 2227 2477 1901 1998 1536 1583 
L 262 147 
L 262 0 
L 2515 0 
L 2669 990 
z
" transform="scale(0.015625)"/>
       </defs>
       <use xlink:href="#CMSY10-0" transform="scale(0.996264)"/>
       <use xlink:href="#CMR17-30" transform="translate(77.487468 0) scale(0.996264)"/>
       <use xlink:href="#CMMI12-3a" transform="translate(123.177945 0) scale(0.996264)"/>
       <use xlink:href="#CMR17-32" transform="translate(150.275122 0) scale(0.996264)"/>
       <use xlink:href="#CMR17-35" transform="translate(195.965599 0) scale(0.996264)"/>
      </g>
     </g>
    </g>
    <g id="xtick_5">
     <g id="line2d_5">
      <g>
       <use xlink:href="#m9d9f1348c4" x="207.550386" y="228.96" style="stroke: #000000; stroke-width: 0.8"/>
      </g>
     </g>
     <g id="text_5">
      <!-- $\mathdefault{0.00}$ -->
      <g transform="translate(198.694679 243.05832) scale(0.1 -0.1)">
       <use xlink:href="#CMR17-30" transform="scale(0.996264)"/>
       <use xlink:href="#CMMI12-3a" transform="translate(45.690477 0) scale(0.996264)"/>
       <use xlink:href="#CMR17-30" transform="translate(72.787654 0) scale(0.996264)"/>
       <use xlink:href="#CMR17-30" transform="translate(118.478131 0) scale(0.996264)"/>
      </g>
     </g>
    </g>
    <g id="xtick_6">
     <g id="line2d_6">
      <g>
       <use xlink:href="#m9d9f1348c4" x="249.400386" y="228.96" style="stroke: #000000; stroke-width: 0.8"/>
      </g>
     </g>
     <g id="text_6">
      <!-- $\mathdefault{0.25}$ -->
      <g transform="translate(240.544679 243.05832) scale(0.1 -0.1)">
       <use xlink:href="#CMR17-30" transform="scale(0.996264)"/>
       <use xlink:href="#CMMI12-3a" transform="translate(45.690477 0) scale(0.996264)"/>
       <use xlink:href="#CMR17-32" transform="translate(72.787654 0) scale(0.996264)"/>
       <use xlink:href="#CMR17-35" transform="translate(118.478131 0) scale(0.996264)"/>
      </g>
     </g>
    </g>
    <g id="xtick_7">
     <g id="line2d_7">
      <g>
       <use xlink:href="#m9d9f1348c4" x="291.250386" y="228.96" style="stroke: #000000; stroke-width: 0.8"/>
      </g>
     </g>
     <g id="text_7">
      <!-- $\mathdefault{0.50}$ -->
      <g transform="translate(282.394679 243.05832) scale(0.1 -0.1)">
       <use xlink:href="#CMR17-30" transform="scale(0.996264)"/>
       <use xlink:href="#CMMI12-3a" transform="translate(45.690477 0) scale(0.996264)"/>
       <use xlink:href="#CMR17-35" transform="translate(72.787654 0) scale(0.996264)"/>
       <use xlink:href="#CMR17-30" transform="translate(118.478131 0) scale(0.996264)"/>
      </g>
     </g>
    </g>
    <g id="xtick_8">
     <g id="line2d_8">
      <g>
       <use xlink:href="#m9d9f1348c4" x="333.100386" y="228.96" style="stroke: #000000; stroke-width: 0.8"/>
      </g>
     </g>
     <g id="text_8">
      <!-- $\mathdefault{0.75}$ -->
      <g transform="translate(324.244679 243.05832) scale(0.1 -0.1)">
       <use xlink:href="#CMR17-30" transform="scale(0.996264)"/>
       <use xlink:href="#CMMI12-3a" transform="translate(45.690477 0) scale(0.996264)"/>
       <use xlink:href="#CMR17-37" transform="translate(72.787654 0) scale(0.996264)"/>
       <use xlink:href="#CMR17-35" transform="translate(118.478131 0) scale(0.996264)"/>
      </g>
     </g>
    </g>
    <g id="xtick_9">
     <g id="line2d_9">
      <g>
       <use xlink:href="#m9d9f1348c4" x="374.950386" y="228.96" style="stroke: #000000; stroke-width: 0.8"/>
      </g>
     </g>
     <g id="text_9">
      <!-- $\mathdefault{1.00}$ -->
      <g transform="translate(366.094679 243.05832) scale(0.1 -0.1)">
       <use xlink:href="#CMR17-31" transform="scale(0.996264)"/>
       <use xlink:href="#CMMI12-3a" transform="translate(45.690477 0) scale(0.996264)"/>
       <use xlink:href="#CMR17-30" transform="translate(72.787654 0) scale(0.996264)"/>
       <use xlink:href="#CMR17-30" transform="translate(118.478131 0) scale(0.996264)"/>
      </g>
     </g>
    </g>
    <g id="text_10">
     <!-- S/S_{total} -->
     <g transform="translate(188.312842 256.278627) scale(0.1 -0.1)">
      <defs>
       <path id="NimbusSanL-Regu-53" d="M 3814 3295 
C 3808 4204 3181 4736 2106 4736 
C 1082 4736 448 4211 448 3372 
C 448 2806 749 2450 1363 2291 
L 2522 1986 
C 3110 1833 3379 1598 3379 1236 
C 3379 988 3245 733 3046 593 
C 2861 466 2566 396 2189 396 
C 1683 396 1338 517 1114 784 
C 941 988 864 1210 870 1496 
L 307 1496 
C 314 1070 397 790 582 536 
C 902 102 1440 -128 2150 -128 
C 2707 -128 3162 0 3462 230 
C 3776 479 3974 892 3974 1293 
C 3974 1865 3616 2284 2982 2456 
L 1811 2768 
C 1248 2920 1043 3098 1043 3454 
C 1043 3925 1459 4236 2086 4236 
C 2829 4236 3245 3899 3251 3295 
L 3814 3295 
z
" transform="scale(0.015625)"/>
       <path id="NimbusSanL-Regu-2f" d="M 1466 4672 
L -51 -128 
L 301 -128 
L 1818 4672 
L 1466 4672 
z
" transform="scale(0.015625)"/>
       <path id="NimbusSanL-Regu-74" d="M 1626 3328 
L 1075 3328 
L 1075 4249 
L 544 4249 
L 544 3328 
L 90 3328 
L 90 2892 
L 544 2892 
L 544 402 
C 544 64 774 -128 1190 -128 
C 1318 -128 1446 -116 1626 -84 
L 1626 364 
C 1555 345 1472 339 1370 339 
C 1139 339 1075 402 1075 634 
L 1075 2892 
L 1626 2892 
L 1626 3328 
z
" transform="scale(0.015625)"/>
       <path id="NimbusSanL-Regu-6f" d="M 1741 3456 
C 800 3456 230 2784 230 1663 
C 230 543 794 -128 1747 -128 
C 2688 -128 3264 543 3264 1638 
C 3264 2791 2707 3456 1741 3456 
z
M 1747 2963 
C 2349 2963 2707 2472 2707 1644 
C 2707 861 2336 364 1747 364 
C 1152 364 787 855 787 1663 
C 787 2466 1152 2963 1747 2963 
z
" transform="scale(0.015625)"/>
       <path id="NimbusSanL-Regu-61" d="M 3424 332 
C 3366 320 3341 320 3309 320 
C 3123 320 3021 415 3021 581 
L 3021 2542 
C 3021 3135 2586 3456 1760 3456 
C 1274 3456 870 3315 646 3065 
C 493 2893 429 2702 416 2370 
L 954 2370 
C 998 2778 1242 2963 1741 2963 
C 2221 2963 2490 2784 2490 2466 
L 2490 2326 
C 2490 2103 2355 2007 1933 1956 
C 1178 1861 1062 1835 858 1753 
C 467 1593 269 1294 269 861 
C 269 256 691 -128 1370 -128 
C 1792 -128 2131 19 2509 364 
C 2547 25 2714 -128 3059 -128 
C 3168 -128 3251 -116 3424 -71 
L 3424 332 
z
M 2490 1071 
C 2490 893 2438 785 2278 638 
C 2061 441 1798 339 1485 339 
C 1069 339 826 536 826 874 
C 826 1224 1062 1402 1632 1485 
C 2195 1562 2310 1587 2490 1670 
L 2490 1071 
z
" transform="scale(0.015625)"/>
       <path id="NimbusSanL-Regu-6c" d="M 973 4672 
L 435 4672 
L 435 0 
L 973 0 
L 973 4672 
z
" transform="scale(0.015625)"/>
      </defs>
      <use xlink:href="#NimbusSanL-Regu-53" transform="scale(0.996264)"/>
      <use xlink:href="#NimbusSanL-Regu-2f" transform="translate(66.450031 0) scale(0.996264)"/>
      <use xlink:href="#NimbusSanL-Regu-53" transform="translate(94.145201 0) scale(0.996264)"/>
      <use xlink:href="#NimbusSanL-Regu-74" transform="translate(196.460797 0) scale(0.996264)"/>
      <use xlink:href="#NimbusSanL-Regu-6f" transform="translate(224.155967 0) scale(0.996264)"/>
      <use xlink:href="#NimbusSanL-Regu-74" transform="translate(279.547644 0) scale(0.996264)"/>
      <use xlink:href="#NimbusSanL-Regu-61" transform="translate(307.242813 0) scale(0.996264)"/>
      <use xlink:href="#NimbusSanL-Regu-6c" transform="translate(362.63449 0) scale(0.996264)"/>
      <path d="M 166.572573 0 
L 196.460797 0 
L 196.460797 0.3985 
L 166.572573 0.3985 
L 166.572573 0 
z
"/>
     </g>
    </g>
   </g>
   <g id="matplotlib.axis_2">
    <g id="ytick_1">
     <g id="line2d_10">
      <defs>
       <path id="m66a675b80a" d="M 0 0 
L -3.5 0 
" style="stroke: #000000; stroke-width: 0.8"/>
      </defs>
      <g>
       <use xlink:href="#m66a675b80a" x="40.150386" y="199.541849" style="stroke: #000000; stroke-width: 0.8"/>
      </g>
     </g>
     <g id="text_11">
      <!-- $\mathdefault{0.2}$ -->
      <g transform="translate(20.420307 203.09101) scale(0.1 -0.1)">
       <use xlink:href="#CMR17-30" transform="scale(0.996264)"/>
       <use xlink:href="#CMMI12-3a" transform="translate(45.690477 0) scale(0.996264)"/>
       <use xlink:href="#CMR17-32" transform="translate(72.787654 0) scale(0.996264)"/>
      </g>
     </g>
    </g>
    <g id="ytick_2">
     <g id="line2d_11">
      <g>
       <use xlink:href="#m66a675b80a" x="40.150386" y="168.361944" style="stroke: #000000; stroke-width: 0.8"/>
      </g>
     </g>
     <g id="text_12">
      <!-- $\mathdefault{0.3}$ -->
      <g transform="translate(20.420307 171.911104) scale(0.1 -0.1)">
       <defs>
        <path id="CMR17-33" d="M 1414 2176 
C 1984 2176 2234 1673 2234 1094 
C 2234 322 1824 25 1453 25 
C 1114 25 563 193 390 691 
C 422 678 454 678 486 678 
C 640 678 755 780 755 947 
C 755 1132 614 1216 486 1216 
C 378 1216 211 1164 211 927 
C 211 335 787 -128 1466 -128 
C 2176 -128 2720 432 2720 1087 
C 2720 1718 2208 2176 1600 2246 
C 2086 2347 2554 2776 2554 3353 
C 2554 3856 2048 4224 1472 4224 
C 890 4224 378 3862 378 3347 
C 378 3123 544 3084 627 3084 
C 762 3084 877 3167 877 3334 
C 877 3500 762 3584 627 3584 
C 602 3584 570 3584 544 3571 
C 730 3999 1235 4076 1459 4076 
C 1683 4076 2106 3966 2106 3347 
C 2106 3167 2080 2851 1862 2574 
C 1670 2329 1453 2316 1242 2297 
C 1210 2297 1062 2284 1037 2284 
C 992 2278 966 2272 966 2227 
C 966 2182 973 2176 1101 2176 
L 1414 2176 
z
" transform="scale(0.015625)"/>
       </defs>
       <use xlink:href="#CMR17-30" transform="scale(0.996264)"/>
       <use xlink:href="#CMMI12-3a" transform="translate(45.690477 0) scale(0.996264)"/>
       <use xlink:href="#CMR17-33" transform="translate(72.787654 0) scale(0.996264)"/>
      </g>
     </g>
    </g>
    <g id="ytick_3">
     <g id="line2d_12">
      <g>
       <use xlink:href="#m66a675b80a" x="40.150386" y="137.182039" style="stroke: #000000; stroke-width: 0.8"/>
      </g>
     </g>
     <g id="text_13">
      <!-- $\mathdefault{0.4}$ -->
      <g transform="translate(20.420307 140.731199) scale(0.1 -0.1)">
       <defs>
        <path id="CMR17-34" d="M 2150 4147 
C 2150 4281 2144 4288 2029 4288 
L 128 1254 
L 128 1088 
L 1779 1088 
L 1779 460 
C 1779 230 1766 166 1318 166 
L 1197 166 
L 1197 0 
C 1402 12 1747 12 1965 12 
C 2182 12 2528 12 2733 0 
L 2733 166 
L 2611 166 
C 2163 166 2150 230 2150 460 
L 2150 1088 
L 2803 1088 
L 2803 1254 
L 2150 1254 
L 2150 4147 
z
M 1798 3723 
L 1798 1254 
L 256 1254 
L 1798 3723 
z
" transform="scale(0.015625)"/>
       </defs>
       <use xlink:href="#CMR17-30" transform="scale(0.996264)"/>
       <use xlink:href="#CMMI12-3a" transform="translate(45.690477 0) scale(0.996264)"/>
       <use xlink:href="#CMR17-34" transform="translate(72.787654 0) scale(0.996264)"/>
      </g>
     </g>
    </g>
    <g id="ytick_4">
     <g id="line2d_13">
      <g>
       <use xlink:href="#m66a675b80a" x="40.150386" y="106.002133" style="stroke: #000000; stroke-width: 0.8"/>
      </g>
     </g>
     <g id="text_14">
      <!-- $\mathdefault{0.5}$ -->
      <g transform="translate(20.420307 109.551294) scale(0.1 -0.1)">
       <use xlink:href="#CMR17-30" transform="scale(0.996264)"/>
       <use xlink:href="#CMMI12-3a" transform="translate(45.690477 0) scale(0.996264)"/>
       <use xlink:href="#CMR17-35" transform="translate(72.787654 0) scale(0.996264)"/>
      </g>
     </g>
    </g>
    <g id="ytick_5">
     <g id="line2d_14">
      <g>
       <use xlink:href="#m66a675b80a" x="40.150386" y="74.822228" style="stroke: #000000; stroke-width: 0.8"/>
      </g>
     </g>
     <g id="text_15">
      <!-- $\mathdefault{0.6}$ -->
      <g transform="translate(20.420307 78.371388) scale(0.1 -0.1)">
       <defs>
        <path id="CMR17-36" d="M 678 2198 
C 678 3712 1395 4076 1811 4076 
C 1946 4076 2272 4049 2400 3782 
C 2298 3782 2106 3782 2106 3558 
C 2106 3385 2246 3328 2336 3328 
C 2394 3328 2566 3353 2566 3571 
C 2566 3987 2246 4224 1805 4224 
C 1043 4224 243 3411 243 2011 
C 243 257 966 -128 1478 -128 
C 2099 -128 2688 431 2688 1295 
C 2688 2101 2170 2688 1517 2688 
C 1126 2688 838 2430 678 1979 
L 678 2198 
z
M 1478 25 
C 691 25 691 1212 691 1450 
C 691 1914 909 2585 1504 2585 
C 1613 2585 1926 2585 2138 2140 
C 2253 1889 2253 1624 2253 1302 
C 2253 954 2253 696 2118 438 
C 1978 173 1773 25 1478 25 
z
" transform="scale(0.015625)"/>
       </defs>
       <use xlink:href="#CMR17-30" transform="scale(0.996264)"/>
       <use xlink:href="#CMMI12-3a" transform="translate(45.690477 0) scale(0.996264)"/>
       <use xlink:href="#CMR17-36" transform="translate(72.787654 0) scale(0.996264)"/>
      </g>
     </g>
    </g>
    <g id="ytick_6">
     <g id="line2d_15">
      <g>
       <use xlink:href="#m66a675b80a" x="40.150386" y="43.642323" style="stroke: #000000; stroke-width: 0.8"/>
      </g>
     </g>
     <g id="text_16">
      <!-- $\mathdefault{0.7}$ -->
      <g transform="translate(20.420307 47.191483) scale(0.1 -0.1)">
       <use xlink:href="#CMR17-30" transform="scale(0.996264)"/>
       <use xlink:href="#CMMI12-3a" transform="translate(45.690477 0) scale(0.996264)"/>
       <use xlink:href="#CMR17-37" transform="translate(72.787654 0) scale(0.996264)"/>
      </g>
     </g>
    </g>
    <g id="ytick_7">
     <g id="line2d_16">
      <g>
       <use xlink:href="#m66a675b80a" x="40.150386" y="12.462417" style="stroke: #000000; stroke-width: 0.8"/>
      </g>
     </g>
     <g id="text_17">
      <!-- $\mathdefault{0.8}$ -->
      <g transform="translate(20.420307 16.011578) scale(0.1 -0.1)">
       <defs>
        <path id="CMR17-38" d="M 1741 2289 
C 2144 2494 2554 2803 2554 3298 
C 2554 3884 1990 4224 1472 4224 
C 890 4224 378 3800 378 3215 
C 378 3054 416 2777 666 2533 
C 730 2469 998 2276 1171 2154 
C 883 2006 211 1652 211 945 
C 211 282 838 -128 1459 -128 
C 2144 -128 2720 366 2720 1022 
C 2720 1607 2330 1877 2074 2051 
L 1741 2289 
z
M 902 2855 
C 851 2887 595 3086 595 3388 
C 595 3781 998 4076 1459 4076 
C 1965 4076 2336 3716 2336 3298 
C 2336 2700 1670 2359 1638 2359 
C 1632 2359 1626 2359 1574 2398 
L 902 2855 
z
M 2080 1536 
C 2176 1466 2483 1253 2483 861 
C 2483 385 2010 25 1472 25 
C 890 25 448 443 448 951 
C 448 1459 838 1884 1280 2083 
L 2080 1536 
z
" transform="scale(0.015625)"/>
       </defs>
       <use xlink:href="#CMR17-30" transform="scale(0.996264)"/>
       <use xlink:href="#CMMI12-3a" transform="translate(45.690477 0) scale(0.996264)"/>
       <use xlink:href="#CMR17-38" transform="translate(72.787654 0) scale(0.996264)"/>
      </g>
     </g>
    </g>
    <g id="text_18">
     <!-- Y Plus - Blade_14 -->
     <g transform="translate(14.29832 156.973631) rotate(-90) scale(0.1 -0.1)">
      <defs>
       <path id="NimbusSanL-Regu-59" d="M 2477 1832 
L 4230 4672 
L 3520 4672 
L 2189 2396 
L 819 4672 
L 83 4672 
L 1882 1832 
L 1882 0 
L 2477 0 
L 2477 1832 
z
" transform="scale(0.015625)"/>
       <path id="NimbusSanL-Regu-50" d="M 1178 1984 
L 2643 1984 
C 3008 1984 3296 2092 3546 2316 
C 3827 2572 3949 2873 3949 3302 
C 3949 4179 3430 4672 2509 4672 
L 582 4672 
L 582 0 
L 1178 0 
L 1178 1984 
z
M 1178 2508 
L 1178 4147 
L 2419 4147 
C 2989 4147 3328 3839 3328 3327 
C 3328 2816 2989 2508 2419 2508 
L 1178 2508 
z
" transform="scale(0.015625)"/>
       <path id="NimbusSanL-Regu-75" d="M 3085 19 
L 3085 3328 
L 2554 3328 
L 2554 1454 
C 2554 780 2195 339 1638 339 
C 1216 339 947 591 947 988 
L 947 3328 
L 416 3328 
L 416 780 
C 416 230 832 -128 1485 -128 
C 1978 -128 2291 44 2605 484 
L 2605 19 
L 3085 19 
z
" transform="scale(0.015625)"/>
       <path id="NimbusSanL-Regu-73" d="M 2803 2428 
C 2797 3084 2362 3456 1587 3456 
C 806 3456 301 3052 301 2434 
C 301 1912 570 1663 1363 1472 
L 1862 1351 
C 2234 1262 2381 1129 2381 887 
C 2381 574 2067 364 1600 364 
C 1312 364 1069 447 934 587 
C 851 683 813 778 781 1014 
L 218 1014 
C 243 243 678 -128 1555 -128 
C 2400 -128 2938 288 2938 931 
C 2938 1428 2656 1702 1990 1861 
L 1478 1982 
C 1043 2084 858 2224 858 2459 
C 858 2765 1133 2963 1568 2963 
C 1997 2963 2227 2778 2240 2428 
L 2803 2428 
z
" transform="scale(0.015625)"/>
       <path id="NimbusSanL-Regu-2d" d="M 1818 1996 
L 294 1996 
L 294 1536 
L 1818 1536 
L 1818 1996 
z
" transform="scale(0.015625)"/>
       <path id="NimbusSanL-Regu-42" d="M 506 0 
L 2611 0 
C 3053 0 3379 121 3629 390 
C 3859 632 3987 961 3987 1321 
C 3987 1878 3731 2214 3136 2444 
C 3558 2643 3782 2994 3782 3476 
C 3782 3821 3654 4127 3411 4345 
C 3168 4569 2848 4672 2400 4672 
L 506 4672 
L 506 0 
z
M 1101 2636 
L 1101 4147 
L 2253 4147 
C 2586 4147 2771 4101 2931 3977 
C 3098 3847 3187 3652 3187 3391 
C 3187 3138 3098 2936 2931 2806 
C 2771 2682 2586 2636 2253 2636 
L 1101 2636 
z
M 1101 524 
L 1101 2112 
L 2554 2112 
C 2842 2112 3034 2042 3174 1890 
C 3315 1745 3392 1542 3392 1315 
C 3392 1093 3315 891 3174 746 
C 3034 594 2842 524 2554 524 
L 1101 524 
z
" transform="scale(0.015625)"/>
       <path id="NimbusSanL-Regu-64" d="M 3168 4672 
L 2637 4672 
L 2637 2937 
C 2413 3276 2054 3456 1606 3456 
C 736 3456 166 2759 166 1695 
C 166 568 723 -128 1626 -128 
C 2086 -128 2406 44 2694 460 
L 2694 19 
L 3168 19 
L 3168 4672 
z
M 1696 2956 
C 2272 2956 2637 2447 2637 1651 
C 2637 880 2266 371 1702 371 
C 1114 371 723 887 723 1663 
C 723 2440 1114 2956 1696 2956 
z
" transform="scale(0.015625)"/>
       <path id="NimbusSanL-Regu-65" d="M 3283 1484 
C 3283 1998 3245 2311 3149 2565 
C 2931 3123 2419 3456 1792 3456 
C 858 3456 256 2734 256 1619 
C 256 545 838 -128 1779 -128 
C 2547 -128 3078 307 3213 1018 
L 2675 1018 
C 2528 588 2227 364 1798 364 
C 1459 364 1171 514 992 787 
C 864 974 819 1161 813 1484 
L 3283 1484 
z
M 826 1920 
C 870 2552 1248 2963 1786 2963 
C 2310 2963 2714 2519 2714 1959 
C 2714 1946 2714 1933 2707 1920 
L 826 1920 
z
" transform="scale(0.015625)"/>
       <path id="NimbusSanL-Regu-31" d="M 1658 3232 
L 1658 0 
L 2221 0 
L 2221 4537 
L 1850 4537 
C 1651 3840 1523 3744 653 3635 
L 653 3232 
L 1658 3232 
z
" transform="scale(0.015625)"/>
       <path id="NimbusSanL-Regu-34" d="M 2093 1088 
L 2093 0 
L 2656 0 
L 2656 1088 
L 3328 1088 
L 3328 1593 
L 2656 1593 
L 2656 4537 
L 2240 4537 
L 179 1683 
L 179 1088 
L 2093 1088 
z
M 2093 1593 
L 672 1593 
L 2093 3577 
L 2093 1593 
z
" transform="scale(0.015625)"/>
      </defs>
      <use xlink:href="#NimbusSanL-Regu-59" transform="scale(0.996264)"/>
      <use xlink:href="#NimbusSanL-Regu-50" transform="translate(94.145201 0) scale(0.996264)"/>
      <use xlink:href="#NimbusSanL-Regu-6c" transform="translate(160.595232 0) scale(0.996264)"/>
      <use xlink:href="#NimbusSanL-Regu-75" transform="translate(182.712016 0) scale(0.996264)"/>
      <use xlink:href="#NimbusSanL-Regu-73" transform="translate(238.103693 0) scale(0.996264)"/>
      <use xlink:href="#NimbusSanL-Regu-2d" transform="translate(315.612063 0) scale(0.996264)"/>
      <use xlink:href="#NimbusSanL-Regu-42" transform="translate(376.482463 0) scale(0.996264)"/>
      <use xlink:href="#NimbusSanL-Regu-6c" transform="translate(442.932494 0) scale(0.996264)"/>
      <use xlink:href="#NimbusSanL-Regu-61" transform="translate(465.049278 0) scale(0.996264)"/>
      <use xlink:href="#NimbusSanL-Regu-64" transform="translate(520.440955 0) scale(0.996264)"/>
      <use xlink:href="#NimbusSanL-Regu-65" transform="translate(575.832632 0) scale(0.996264)"/>
      <use xlink:href="#NimbusSanL-Regu-31" transform="translate(667.089874 0) scale(0.996264)"/>
      <use xlink:href="#NimbusSanL-Regu-34" transform="translate(722.481551 0) scale(0.996264)"/>
      <path d="M 637.20165 0 
L 667.089874 0 
L 667.089874 0.3985 
L 637.20165 0.3985 
L 637.20165 0 
z
"/>
     </g>
    </g>
   </g>
   <g id="line2d_17">
    <path d="M 207.550386 45.145901 
L 208.182488 29.405623 
L 208.814884 30.718728 
L 211.274777 54.752622 
L 213.113507 64.660961 
L 214.953001 76.749722 
L 216.792754 84.854751 
L 218.632622 89.753923 
L 220.472541 92.955508 
L 222.312488 94.730994 
L 224.15245 96.249824 
L 225.992419 97.539793 
L 227.832393 98.541488 
L 229.672367 99.44185 
L 231.51234 100.231276 
L 233.352313 100.884679 
L 235.192282 101.39849 
L 237.032249 101.930038 
L 238.87221 102.124567 
L 240.712166 102.312111 
L 242.552115 102.498787 
L 244.39206 102.202206 
L 246.231996 101.990173 
L 248.071925 101.461991 
L 249.911846 101.059132 
L 251.751758 100.511513 
L 253.591663 100.111526 
L 255.431557 99.848429 
L 257.271444 99.54475 
L 259.111325 99.080884 
L 260.9512 99.391672 
L 262.79107 99.961194 
L 264.630939 101.117687 
L 266.470809 102.799214 
L 268.310683 104.525286 
L 270.150565 106.970489 
L 271.990458 110.020627 
L 273.830363 113.209929 
L 275.670285 116.745281 
L 277.510224 120.429005 
L 279.350178 123.467103 
L 281.19015 124.801904 
L 283.030138 121.614243 
L 284.870141 111.77165 
L 286.710157 98.999444 
L 288.550186 87.354411 
L 290.390224 78.489291 
L 292.230273 72.47624 
L 294.070329 68.333528 
L 295.910392 65.465853 
L 297.75046 63.633367 
L 299.590534 62.383487 
L 301.430611 61.573258 
L 303.270693 61.040428 
L 305.110777 60.787906 
L 306.950863 60.754413 
L 308.790953 60.84417 
L 310.631042 61.060065 
L 312.471135 61.444174 
L 314.311229 61.93133 
L 316.151323 62.487969 
L 317.991419 63.090044 
L 319.831516 63.837133 
L 321.671613 64.622439 
L 323.511711 65.50084 
L 325.35181 66.42231 
L 327.191909 67.432805 
L 329.032009 68.497891 
L 330.872109 69.62679 
L 332.712209 70.85517 
L 334.55231 72.106463 
L 336.39241 73.429582 
L 338.232512 74.828162 
L 340.072613 76.321683 
L 341.912715 77.87792 
L 343.752817 79.517417 
L 345.592919 81.251324 
L 347.433021 83.075666 
L 349.273123 85.042516 
L 351.113226 87.111028 
L 352.953329 89.308308 
L 354.793431 91.650219 
L 356.633534 94.110419 
L 358.473637 96.814068 
L 360.31374 99.627702 
L 362.153843 102.723783 
L 363.993946 106.075003 
L 365.834049 109.525535 
L 367.674152 112.516707 
L 369.514255 114.096792 
L 371.354358 113.613284 
L 373.780757 144.913084 
L 374.364895 186.374038 
L 374.950386 155.375509 
" clip-path="url(#pba6c040faa)" style="fill: none; stroke: #00008b; stroke-width: 1.5; stroke-linecap: square"/>
    <defs>
     <path id="ma93dda7fa0" d="M 0 0.25 
C 0.066301 0.25 0.129895 0.223658 0.176777 0.176777 
C 0.223658 0.129895 0.25 0.066301 0.25 0 
C 0.25 -0.066301 0.223658 -0.129895 0.176777 -0.176777 
C 0.129895 -0.223658 0.066301 -0.25 0 -0.25 
C -0.066301 -0.25 -0.129895 -0.223658 -0.176777 -0.176777 
C -0.223658 -0.129895 -0.25 -0.066301 -0.25 0 
C -0.25 0.066301 -0.223658 0.129895 -0.176777 0.176777 
C -0.129895 0.223658 -0.066301 0.25 0 0.25 
z
" style="stroke: #00008b"/>
    </defs>
    <g clip-path="url(#pba6c040faa)">
     <use xlink:href="#ma93dda7fa0" x="207.550386" y="45.145901" style="fill: #00008b; stroke: #00008b"/>
     <use xlink:href="#ma93dda7fa0" x="208.182488" y="29.405623" style="fill: #00008b; stroke: #00008b"/>
     <use xlink:href="#ma93dda7fa0" x="208.814884" y="30.718728" style="fill: #00008b; stroke: #00008b"/>
     <use xlink:href="#ma93dda7fa0" x="211.274777" y="54.752622" style="fill: #00008b; stroke: #00008b"/>
     <use xlink:href="#ma93dda7fa0" x="213.113507" y="64.660961" style="fill: #00008b; stroke: #00008b"/>
     <use xlink:href="#ma93dda7fa0" x="214.953001" y="76.749722" style="fill: #00008b; stroke: #00008b"/>
     <use xlink:href="#ma93dda7fa0" x="216.792754" y="84.854751" style="fill: #00008b; stroke: #00008b"/>
     <use xlink:href="#ma93dda7fa0" x="218.632622" y="89.753923" style="fill: #00008b; stroke: #00008b"/>
     <use xlink:href="#ma93dda7fa0" x="220.472541" y="92.955508" style="fill: #00008b; stroke: #00008b"/>
     <use xlink:href="#ma93dda7fa0" x="222.312488" y="94.730994" style="fill: #00008b; stroke: #00008b"/>
     <use xlink:href="#ma93dda7fa0" x="224.15245" y="96.249824" style="fill: #00008b; stroke: #00008b"/>
     <use xlink:href="#ma93dda7fa0" x="225.992419" y="97.539793" style="fill: #00008b; stroke: #00008b"/>
     <use xlink:href="#ma93dda7fa0" x="227.832393" y="98.541488" style="fill: #00008b; stroke: #00008b"/>
     <use xlink:href="#ma93dda7fa0" x="229.672367" y="99.44185" style="fill: #00008b; stroke: #00008b"/>
     <use xlink:href="#ma93dda7fa0" x="231.51234" y="100.231276" style="fill: #00008b; stroke: #00008b"/>
     <use xlink:href="#ma93dda7fa0" x="233.352313" y="100.884679" style="fill: #00008b; stroke: #00008b"/>
     <use xlink:href="#ma93dda7fa0" x="235.192282" y="101.39849" style="fill: #00008b; stroke: #00008b"/>
     <use xlink:href="#ma93dda7fa0" x="237.032249" y="101.930038" style="fill: #00008b; stroke: #00008b"/>
     <use xlink:href="#ma93dda7fa0" x="238.87221" y="102.124567" style="fill: #00008b; stroke: #00008b"/>
     <use xlink:href="#ma93dda7fa0" x="240.712166" y="102.312111" style="fill: #00008b; stroke: #00008b"/>
     <use xlink:href="#ma93dda7fa0" x="242.552115" y="102.498787" style="fill: #00008b; stroke: #00008b"/>
     <use xlink:href="#ma93dda7fa0" x="244.39206" y="102.202206" style="fill: #00008b; stroke: #00008b"/>
     <use xlink:href="#ma93dda7fa0" x="246.231996" y="101.990173" style="fill: #00008b; stroke: #00008b"/>
     <use xlink:href="#ma93dda7fa0" x="248.071925" y="101.461991" style="fill: #00008b; stroke: #00008b"/>
     <use xlink:href="#ma93dda7fa0" x="249.911846" y="101.059132" style="fill: #00008b; stroke: #00008b"/>
     <use xlink:href="#ma93dda7fa0" x="251.751758" y="100.511513" style="fill: #00008b; stroke: #00008b"/>
     <use xlink:href="#ma93dda7fa0" x="253.591663" y="100.111526" style="fill: #00008b; stroke: #00008b"/>
     <use xlink:href="#ma93dda7fa0" x="255.431557" y="99.848429" style="fill: #00008b; stroke: #00008b"/>
     <use xlink:href="#ma93dda7fa0" x="257.271444" y="99.54475" style="fill: #00008b; stroke: #00008b"/>
     <use xlink:href="#ma93dda7fa0" x="259.111325" y="99.080884" style="fill: #00008b; stroke: #00008b"/>
     <use xlink:href="#ma93dda7fa0" x="260.9512" y="99.391672" style="fill: #00008b; stroke: #00008b"/>
     <use xlink:href="#ma93dda7fa0" x="262.79107" y="99.961194" style="fill: #00008b; stroke: #00008b"/>
     <use xlink:href="#ma93dda7fa0" x="264.630939" y="101.117687" style="fill: #00008b; stroke: #00008b"/>
     <use xlink:href="#ma93dda7fa0" x="266.470809" y="102.799214" style="fill: #00008b; stroke: #00008b"/>
     <use xlink:href="#ma93dda7fa0" x="268.310683" y="104.525286" style="fill: #00008b; stroke: #00008b"/>
     <use xlink:href="#ma93dda7fa0" x="270.150565" y="106.970489" style="fill: #00008b; stroke: #00008b"/>
     <use xlink:href="#ma93dda7fa0" x="271.990458" y="110.020627" style="fill: #00008b; stroke: #00008b"/>
     <use xlink:href="#ma93dda7fa0" x="273.830363" y="113.209929" style="fill: #00008b; stroke: #00008b"/>
     <use xlink:href="#ma93dda7fa0" x="275.670285" y="116.745281" style="fill: #00008b; stroke: #00008b"/>
     <use xlink:href="#ma93dda7fa0" x="277.510224" y="120.429005" style="fill: #00008b; stroke: #00008b"/>
     <use xlink:href="#ma93dda7fa0" x="279.350178" y="123.467103" style="fill: #00008b; stroke: #00008b"/>
     <use xlink:href="#ma93dda7fa0" x="281.19015" y="124.801904" style="fill: #00008b; stroke: #00008b"/>
     <use xlink:href="#ma93dda7fa0" x="283.030138" y="121.614243" style="fill: #00008b; stroke: #00008b"/>
     <use xlink:href="#ma93dda7fa0" x="284.870141" y="111.77165" style="fill: #00008b; stroke: #00008b"/>
     <use xlink:href="#ma93dda7fa0" x="286.710157" y="98.999444" style="fill: #00008b; stroke: #00008b"/>
     <use xlink:href="#ma93dda7fa0" x="288.550186" y="87.354411" style="fill: #00008b; stroke: #00008b"/>
     <use xlink:href="#ma93dda7fa0" x="290.390224" y="78.489291" style="fill: #00008b; stroke: #00008b"/>
     <use xlink:href="#ma93dda7fa0" x="292.230273" y="72.47624" style="fill: #00008b; stroke: #00008b"/>
     <use xlink:href="#ma93dda7fa0" x="294.070329" y="68.333528" style="fill: #00008b; stroke: #00008b"/>
     <use xlink:href="#ma93dda7fa0" x="295.910392" y="65.465853" style="fill: #00008b; stroke: #00008b"/>
     <use xlink:href="#ma93dda7fa0" x="297.75046" y="63.633367" style="fill: #00008b; stroke: #00008b"/>
     <use xlink:href="#ma93dda7fa0" x="299.590534" y="62.383487" style="fill: #00008b; stroke: #00008b"/>
     <use xlink:href="#ma93dda7fa0" x="301.430611" y="61.573258" style="fill: #00008b; stroke: #00008b"/>
     <use xlink:href="#ma93dda7fa0" x="303.270693" y="61.040428" style="fill: #00008b; stroke: #00008b"/>
     <use xlink:href="#ma93dda7fa0" x="305.110777" y="60.787906" style="fill: #00008b; stroke: #00008b"/>
     <use xlink:href="#ma93dda7fa0" x="306.950863" y="60.754413" style="fill: #00008b; stroke: #00008b"/>
     <use xlink:href="#ma93dda7fa0" x="308.790953" y="60.84417" style="fill: #00008b; stroke: #00008b"/>
     <use xlink:href="#ma93dda7fa0" x="310.631042" y="61.060065" style="fill: #00008b; stroke: #00008b"/>
     <use xlink:href="#ma93dda7fa0" x="312.471135" y="61.444174" style="fill: #00008b; stroke: #00008b"/>
     <use xlink:href="#ma93dda7fa0" x="314.311229" y="61.93133" style="fill: #00008b; stroke: #00008b"/>
     <use xlink:href="#ma93dda7fa0" x="316.151323" y="62.487969" style="fill: #00008b; stroke: #00008b"/>
     <use xlink:href="#ma93dda7fa0" x="317.991419" y="63.090044" style="fill: #00008b; stroke: #00008b"/>
     <use xlink:href="#ma93dda7fa0" x="319.831516" y="63.837133" style="fill: #00008b; stroke: #00008b"/>
     <use xlink:href="#ma93dda7fa0" x="321.671613" y="64.622439" style="fill: #00008b; stroke: #00008b"/>
     <use xlink:href="#ma93dda7fa0" x="323.511711" y="65.50084" style="fill: #00008b; stroke: #00008b"/>
     <use xlink:href="#ma93dda7fa0" x="325.35181" y="66.42231" style="fill: #00008b; stroke: #00008b"/>
     <use xlink:href="#ma93dda7fa0" x="327.191909" y="67.432805" style="fill: #00008b; stroke: #00008b"/>
     <use xlink:href="#ma93dda7fa0" x="329.032009" y="68.497891" style="fill: #00008b; stroke: #00008b"/>
     <use xlink:href="#ma93dda7fa0" x="330.872109" y="69.62679" style="fill: #00008b; stroke: #00008b"/>
     <use xlink:href="#ma93dda7fa0" x="332.712209" y="70.85517" style="fill: #00008b; stroke: #00008b"/>
     <use xlink:href="#ma93dda7fa0" x="334.55231" y="72.106463" style="fill: #00008b; stroke: #00008b"/>
     <use xlink:href="#ma93dda7fa0" x="336.39241" y="73.429582" style="fill: #00008b; stroke: #00008b"/>
     <use xlink:href="#ma93dda7fa0" x="338.232512" y="74.828162" style="fill: #00008b; stroke: #00008b"/>
     <use xlink:href="#ma93dda7fa0" x="340.072613" y="76.321683" style="fill: #00008b; stroke: #00008b"/>
     <use xlink:href="#ma93dda7fa0" x="341.912715" y="77.87792" style="fill: #00008b; stroke: #00008b"/>
     <use xlink:href="#ma93dda7fa0" x="343.752817" y="79.517417" style="fill: #00008b; stroke: #00008b"/>
     <use xlink:href="#ma93dda7fa0" x="345.592919" y="81.251324" style="fill: #00008b; stroke: #00008b"/>
     <use xlink:href="#ma93dda7fa0" x="347.433021" y="83.075666" style="fill: #00008b; stroke: #00008b"/>
     <use xlink:href="#ma93dda7fa0" x="349.273123" y="85.042516" style="fill: #00008b; stroke: #00008b"/>
     <use xlink:href="#ma93dda7fa0" x="351.113226" y="87.111028" style="fill: #00008b; stroke: #00008b"/>
     <use xlink:href="#ma93dda7fa0" x="352.953329" y="89.308308" style="fill: #00008b; stroke: #00008b"/>
     <use xlink:href="#ma93dda7fa0" x="354.793431" y="91.650219" style="fill: #00008b; stroke: #00008b"/>
     <use xlink:href="#ma93dda7fa0" x="356.633534" y="94.110419" style="fill: #00008b; stroke: #00008b"/>
     <use xlink:href="#ma93dda7fa0" x="358.473637" y="96.814068" style="fill: #00008b; stroke: #00008b"/>
     <use xlink:href="#ma93dda7fa0" x="360.31374" y="99.627702" style="fill: #00008b; stroke: #00008b"/>
     <use xlink:href="#ma93dda7fa0" x="362.153843" y="102.723783" style="fill: #00008b; stroke: #00008b"/>
     <use xlink:href="#ma93dda7fa0" x="363.993946" y="106.075003" style="fill: #00008b; stroke: #00008b"/>
     <use xlink:href="#ma93dda7fa0" x="365.834049" y="109.525535" style="fill: #00008b; stroke: #00008b"/>
     <use xlink:href="#ma93dda7fa0" x="367.674152" y="112.516707" style="fill: #00008b; stroke: #00008b"/>
     <use xlink:href="#ma93dda7fa0" x="369.514255" y="114.096792" style="fill: #00008b; stroke: #00008b"/>
     <use xlink:href="#ma93dda7fa0" x="371.354358" y="113.613284" style="fill: #00008b; stroke: #00008b"/>
     <use xlink:href="#ma93dda7fa0" x="373.780757" y="144.913084" style="fill: #00008b; stroke: #00008b"/>
     <use xlink:href="#ma93dda7fa0" x="374.364895" y="186.374038" style="fill: #00008b; stroke: #00008b"/>
     <use xlink:href="#ma93dda7fa0" x="374.950386" y="155.375509" style="fill: #00008b; stroke: #00008b"/>
    </g>
   </g>
   <g id="line2d_18">
    <path d="M 207.550386 111.088997 
L 206.917862 159.573067 
L 206.285135 218.88 
L 203.820626 157.666551 
L 201.981248 148.06561 
L 200.141328 150.75841 
L 198.301232 155.459698 
L 196.461074 161.303333 
L 194.620892 166.95676 
L 192.780704 172.198756 
L 190.940514 176.873904 
L 189.100327 180.964699 
L 187.260141 184.534451 
L 185.419958 187.722414 
L 183.579777 190.565885 
L 181.739599 193.135513 
L 179.899423 195.509231 
L 178.059249 197.67116 
L 176.219077 199.594441 
L 174.378908 201.250576 
L 172.538742 202.59437 
L 170.698578 203.629923 
L 168.858418 204.354735 
L 167.01826 204.764765 
L 165.178104 204.913935 
L 163.337949 204.837027 
L 161.497795 204.562318 
L 159.657641 204.138552 
L 157.817488 203.609151 
L 155.977336 202.982953 
L 154.137183 202.284255 
L 152.29703 201.528175 
L 150.456877 200.725254 
L 148.616724 199.900462 
L 146.77657 199.054718 
L 144.936417 198.169155 
L 143.096263 197.234508 
L 141.256109 196.219965 
L 139.415955 195.17481 
L 137.5758 194.136869 
L 135.735645 193.057286 
L 133.89549 191.880331 
L 132.055334 190.649202 
L 130.215178 189.395017 
L 128.375022 188.136181 
L 126.534864 186.856502 
L 124.694707 185.386267 
L 122.854549 183.919033 
L 121.014389 182.481728 
L 119.17423 180.957018 
L 117.33407 179.421143 
L 115.493908 177.820087 
L 113.653745 176.171724 
L 111.813582 174.470488 
L 109.973417 172.811913 
L 108.133253 171.023087 
L 106.293086 169.18889 
L 104.452919 167.362795 
L 102.612751 165.490749 
L 100.772581 163.566478 
L 98.932411 161.594994 
L 97.09224 159.534938 
L 95.252068 157.346497 
L 93.411895 155.004135 
L 91.571721 152.461739 
L 89.731546 149.747267 
L 87.89137 146.930625 
L 86.051194 144.041486 
L 84.211017 141.1673 
L 82.37084 138.286995 
L 80.530661 135.360024 
L 78.690482 132.415764 
L 76.850302 129.44084 
L 75.010121 126.433317 
L 73.169941 123.34666 
L 71.32976 120.226005 
L 69.489578 117.076818 
L 67.649395 113.86347 
L 65.809213 110.570118 
L 63.96903 107.176565 
L 62.128846 103.676742 
L 60.288663 100.018993 
L 58.448479 96.194248 
L 56.608294 92.138298 
L 54.76811 87.682267 
L 52.927925 82.831567 
L 51.08774 77.032681 
L 49.247555 69.754248 
L 47.407369 58.879179 
L 45.567183 41.646853 
L 43.726997 17.28 
L 41.322468 121.847308 
L 40.737467 92.838956 
L 40.150386 79.871065 
" clip-path="url(#pba6c040faa)" style="fill: none; stroke: #add8e6; stroke-width: 1.5; stroke-linecap: square"/>
    <defs>
     <path id="m263e8a49a7" d="M 0 0.25 
C 0.066301 0.25 0.129895 0.223658 0.176777 0.176777 
C 0.223658 0.129895 0.25 0.066301 0.25 0 
C 0.25 -0.066301 0.223658 -0.129895 0.176777 -0.176777 
C 0.129895 -0.223658 0.066301 -0.25 0 -0.25 
C -0.066301 -0.25 -0.129895 -0.223658 -0.176777 -0.176777 
C -0.223658 -0.129895 -0.25 -0.066301 -0.25 0 
C -0.25 0.066301 -0.223658 0.129895 -0.176777 0.176777 
C -0.129895 0.223658 -0.066301 0.25 0 0.25 
z
" style="stroke: #add8e6"/>
    </defs>
    <g clip-path="url(#pba6c040faa)">
     <use xlink:href="#m263e8a49a7" x="207.550386" y="111.088997" style="fill: #add8e6; stroke: #add8e6"/>
     <use xlink:href="#m263e8a49a7" x="206.917862" y="159.573067" style="fill: #add8e6; stroke: #add8e6"/>
     <use xlink:href="#m263e8a49a7" x="206.285135" y="218.88" style="fill: #add8e6; stroke: #add8e6"/>
     <use xlink:href="#m263e8a49a7" x="203.820626" y="157.666551" style="fill: #add8e6; stroke: #add8e6"/>
     <use xlink:href="#m263e8a49a7" x="201.981248" y="148.06561" style="fill: #add8e6; stroke: #add8e6"/>
     <use xlink:href="#m263e8a49a7" x="200.141328" y="150.75841" style="fill: #add8e6; stroke: #add8e6"/>
     <use xlink:href="#m263e8a49a7" x="198.301232" y="155.459698" style="fill: #add8e6; stroke: #add8e6"/>
     <use xlink:href="#m263e8a49a7" x="196.461074" y="161.303333" style="fill: #add8e6; stroke: #add8e6"/>
     <use xlink:href="#m263e8a49a7" x="194.620892" y="166.95676" style="fill: #add8e6; stroke: #add8e6"/>
     <use xlink:href="#m263e8a49a7" x="192.780704" y="172.198756" style="fill: #add8e6; stroke: #add8e6"/>
     <use xlink:href="#m263e8a49a7" x="190.940514" y="176.873904" style="fill: #add8e6; stroke: #add8e6"/>
     <use xlink:href="#m263e8a49a7" x="189.100327" y="180.964699" style="fill: #add8e6; stroke: #add8e6"/>
     <use xlink:href="#m263e8a49a7" x="187.260141" y="184.534451" style="fill: #add8e6; stroke: #add8e6"/>
     <use xlink:href="#m263e8a49a7" x="185.419958" y="187.722414" style="fill: #add8e6; stroke: #add8e6"/>
     <use xlink:href="#m263e8a49a7" x="183.579777" y="190.565885" style="fill: #add8e6; stroke: #add8e6"/>
     <use xlink:href="#m263e8a49a7" x="181.739599" y="193.135513" style="fill: #add8e6; stroke: #add8e6"/>
     <use xlink:href="#m263e8a49a7" x="179.899423" y="195.509231" style="fill: #add8e6; stroke: #add8e6"/>
     <use xlink:href="#m263e8a49a7" x="178.059249" y="197.67116" style="fill: #add8e6; stroke: #add8e6"/>
     <use xlink:href="#m263e8a49a7" x="176.219077" y="199.594441" style="fill: #add8e6; stroke: #add8e6"/>
     <use xlink:href="#m263e8a49a7" x="174.378908" y="201.250576" style="fill: #add8e6; stroke: #add8e6"/>
     <use xlink:href="#m263e8a49a7" x="172.538742" y="202.59437" style="fill: #add8e6; stroke: #add8e6"/>
     <use xlink:href="#m263e8a49a7" x="170.698578" y="203.629923" style="fill: #add8e6; stroke: #add8e6"/>
     <use xlink:href="#m263e8a49a7" x="168.858418" y="204.354735" style="fill: #add8e6; stroke: #add8e6"/>
     <use xlink:href="#m263e8a49a7" x="167.01826" y="204.764765" style="fill: #add8e6; stroke: #add8e6"/>
     <use xlink:href="#m263e8a49a7" x="165.178104" y="204.913935" style="fill: #add8e6; stroke: #add8e6"/>
     <use xlink:href="#m263e8a49a7" x="163.337949" y="204.837027" style="fill: #add8e6; stroke: #add8e6"/>
     <use xlink:href="#m263e8a49a7" x="161.497795" y="204.562318" style="fill: #add8e6; stroke: #add8e6"/>
     <use xlink:href="#m263e8a49a7" x="159.657641" y="204.138552" style="fill: #add8e6; stroke: #add8e6"/>
     <use xlink:href="#m263e8a49a7" x="157.817488" y="203.609151" style="fill: #add8e6; stroke: #add8e6"/>
     <use xlink:href="#m263e8a49a7" x="155.977336" y="202.982953" style="fill: #add8e6; stroke: #add8e6"/>
     <use xlink:href="#m263e8a49a7" x="154.137183" y="202.284255" style="fill: #add8e6; stroke: #add8e6"/>
     <use xlink:href="#m263e8a49a7" x="152.29703" y="201.528175" style="fill: #add8e6; stroke: #add8e6"/>
     <use xlink:href="#m263e8a49a7" x="150.456877" y="200.725254" style="fill: #add8e6; stroke: #add8e6"/>
     <use xlink:href="#m263e8a49a7" x="148.616724" y="199.900462" style="fill: #add8e6; stroke: #add8e6"/>
     <use xlink:href="#m263e8a49a7" x="146.77657" y="199.054718" style="fill: #add8e6; stroke: #add8e6"/>
     <use xlink:href="#m263e8a49a7" x="144.936417" y="198.169155" style="fill: #add8e6; stroke: #add8e6"/>
     <use xlink:href="#m263e8a49a7" x="143.096263" y="197.234508" style="fill: #add8e6; stroke: #add8e6"/>
     <use xlink:href="#m263e8a49a7" x="141.256109" y="196.219965" style="fill: #add8e6; stroke: #add8e6"/>
     <use xlink:href="#m263e8a49a7" x="139.415955" y="195.17481" style="fill: #add8e6; stroke: #add8e6"/>
     <use xlink:href="#m263e8a49a7" x="137.5758" y="194.136869" style="fill: #add8e6; stroke: #add8e6"/>
     <use xlink:href="#m263e8a49a7" x="135.735645" y="193.057286" style="fill: #add8e6; stroke: #add8e6"/>
     <use xlink:href="#m263e8a49a7" x="133.89549" y="191.880331" style="fill: #add8e6; stroke: #add8e6"/>
     <use xlink:href="#m263e8a49a7" x="132.055334" y="190.649202" style="fill: #add8e6; stroke: #add8e6"/>
     <use xlink:href="#m263e8a49a7" x="130.215178" y="189.395017" style="fill: #add8e6; stroke: #add8e6"/>
     <use xlink:href="#m263e8a49a7" x="128.375022" y="188.136181" style="fill: #add8e6; stroke: #add8e6"/>
     <use xlink:href="#m263e8a49a7" x="126.534864" y="186.856502" style="fill: #add8e6; stroke: #add8e6"/>
     <use xlink:href="#m263e8a49a7" x="124.694707" y="185.386267" style="fill: #add8e6; stroke: #add8e6"/>
     <use xlink:href="#m263e8a49a7" x="122.854549" y="183.919033" style="fill: #add8e6; stroke: #add8e6"/>
     <use xlink:href="#m263e8a49a7" x="121.014389" y="182.481728" style="fill: #add8e6; stroke: #add8e6"/>
     <use xlink:href="#m263e8a49a7" x="119.17423" y="180.957018" style="fill: #add8e6; stroke: #add8e6"/>
     <use xlink:href="#m263e8a49a7" x="117.33407" y="179.421143" style="fill: #add8e6; stroke: #add8e6"/>
     <use xlink:href="#m263e8a49a7" x="115.493908" y="177.820087" style="fill: #add8e6; stroke: #add8e6"/>
     <use xlink:href="#m263e8a49a7" x="113.653745" y="176.171724" style="fill: #add8e6; stroke: #add8e6"/>
     <use xlink:href="#m263e8a49a7" x="111.813582" y="174.470488" style="fill: #add8e6; stroke: #add8e6"/>
     <use xlink:href="#m263e8a49a7" x="109.973417" y="172.811913" style="fill: #add8e6; stroke: #add8e6"/>
     <use xlink:href="#m263e8a49a7" x="108.133253" y="171.023087" style="fill: #add8e6; stroke: #add8e6"/>
     <use xlink:href="#m263e8a49a7" x="106.293086" y="169.18889" style="fill: #add8e6; stroke: #add8e6"/>
     <use xlink:href="#m263e8a49a7" x="104.452919" y="167.362795" style="fill: #add8e6; stroke: #add8e6"/>
     <use xlink:href="#m263e8a49a7" x="102.612751" y="165.490749" style="fill: #add8e6; stroke: #add8e6"/>
     <use xlink:href="#m263e8a49a7" x="100.772581" y="163.566478" style="fill: #add8e6; stroke: #add8e6"/>
     <use xlink:href="#m263e8a49a7" x="98.932411" y="161.594994" style="fill: #add8e6; stroke: #add8e6"/>
     <use xlink:href="#m263e8a49a7" x="97.09224" y="159.534938" style="fill: #add8e6; stroke: #add8e6"/>
     <use xlink:href="#m263e8a49a7" x="95.252068" y="157.346497" style="fill: #add8e6; stroke: #add8e6"/>
     <use xlink:href="#m263e8a49a7" x="93.411895" y="155.004135" style="fill: #add8e6; stroke: #add8e6"/>
     <use xlink:href="#m263e8a49a7" x="91.571721" y="152.461739" style="fill: #add8e6; stroke: #add8e6"/>
     <use xlink:href="#m263e8a49a7" x="89.731546" y="149.747267" style="fill: #add8e6; stroke: #add8e6"/>
     <use xlink:href="#m263e8a49a7" x="87.89137" y="146.930625" style="fill: #add8e6; stroke: #add8e6"/>
     <use xlink:href="#m263e8a49a7" x="86.051194" y="144.041486" style="fill: #add8e6; stroke: #add8e6"/>
     <use xlink:href="#m263e8a49a7" x="84.211017" y="141.1673" style="fill: #add8e6; stroke: #add8e6"/>
     <use xlink:href="#m263e8a49a7" x="82.37084" y="138.286995" style="fill: #add8e6; stroke: #add8e6"/>
     <use xlink:href="#m263e8a49a7" x="80.530661" y="135.360024" style="fill: #add8e6; stroke: #add8e6"/>
     <use xlink:href="#m263e8a49a7" x="78.690482" y="132.415764" style="fill: #add8e6; stroke: #add8e6"/>
     <use xlink:href="#m263e8a49a7" x="76.850302" y="129.44084" style="fill: #add8e6; stroke: #add8e6"/>
     <use xlink:href="#m263e8a49a7" x="75.010121" y="126.433317" style="fill: #add8e6; stroke: #add8e6"/>
     <use xlink:href="#m263e8a49a7" x="73.169941" y="123.34666" style="fill: #add8e6; stroke: #add8e6"/>
     <use xlink:href="#m263e8a49a7" x="71.32976" y="120.226005" style="fill: #add8e6; stroke: #add8e6"/>
     <use xlink:href="#m263e8a49a7" x="69.489578" y="117.076818" style="fill: #add8e6; stroke: #add8e6"/>
     <use xlink:href="#m263e8a49a7" x="67.649395" y="113.86347" style="fill: #add8e6; stroke: #add8e6"/>
     <use xlink:href="#m263e8a49a7" x="65.809213" y="110.570118" style="fill: #add8e6; stroke: #add8e6"/>
     <use xlink:href="#m263e8a49a7" x="63.96903" y="107.176565" style="fill: #add8e6; stroke: #add8e6"/>
     <use xlink:href="#m263e8a49a7" x="62.128846" y="103.676742" style="fill: #add8e6; stroke: #add8e6"/>
     <use xlink:href="#m263e8a49a7" x="60.288663" y="100.018993" style="fill: #add8e6; stroke: #add8e6"/>
     <use xlink:href="#m263e8a49a7" x="58.448479" y="96.194248" style="fill: #add8e6; stroke: #add8e6"/>
     <use xlink:href="#m263e8a49a7" x="56.608294" y="92.138298" style="fill: #add8e6; stroke: #add8e6"/>
     <use xlink:href="#m263e8a49a7" x="54.76811" y="87.682267" style="fill: #add8e6; stroke: #add8e6"/>
     <use xlink:href="#m263e8a49a7" x="52.927925" y="82.831567" style="fill: #add8e6; stroke: #add8e6"/>
     <use xlink:href="#m263e8a49a7" x="51.08774" y="77.032681" style="fill: #add8e6; stroke: #add8e6"/>
     <use xlink:href="#m263e8a49a7" x="49.247555" y="69.754248" style="fill: #add8e6; stroke: #add8e6"/>
     <use xlink:href="#m263e8a49a7" x="47.407369" y="58.879179" style="fill: #add8e6; stroke: #add8e6"/>
     <use xlink:href="#m263e8a49a7" x="45.567183" y="41.646853" style="fill: #add8e6; stroke: #add8e6"/>
     <use xlink:href="#m263e8a49a7" x="43.726997" y="17.28" style="fill: #add8e6; stroke: #add8e6"/>
     <use xlink:href="#m263e8a49a7" x="41.322468" y="121.847308" style="fill: #add8e6; stroke: #add8e6"/>
     <use xlink:href="#m263e8a49a7" x="40.737467" y="92.838956" style="fill: #add8e6; stroke: #add8e6"/>
     <use xlink:href="#m263e8a49a7" x="40.150386" y="79.871065" style="fill: #add8e6; stroke: #add8e6"/>
    </g>
   </g>
   <g id="patch_3">
    <path d="M 40.150386 228.96 
L 40.150386 7.2 
" style="fill: none; stroke: #000000; stroke-width: 0.8; stroke-linejoin: miter; stroke-linecap: square"/>
   </g>
   <g id="patch_4">
    <path d="M 374.950386 228.96 
L 374.950386 7.2 
" style="fill: none; stroke: #000000; stroke-width: 0.8; stroke-linejoin: miter; stroke-linecap: square"/>
   </g>
   <g id="patch_5">
    <path d="M 40.150386 228.96 
L 374.950386 228.96 
" style="fill: none; stroke: #000000; stroke-width: 0.8; stroke-linejoin: miter; stroke-linecap: square"/>
   </g>
   <g id="patch_6">
    <path d="M 40.150386 7.2 
L 374.950386 7.2 
" style="fill: none; stroke: #000000; stroke-width: 0.8; stroke-linejoin: miter; stroke-linecap: square"/>
   </g>
   <g id="legend_1">
    <g id="patch_7">
     <path d="M 45.150386 44.009348 
L 123.222094 44.009348 
L 123.222094 12.2 
L 45.150386 12.2 
z
" style="fill: #ffffff; opacity: 0.8; stroke: #000000; stroke-linejoin: miter"/>
    </g>
    <g id="line2d_19">
     <path d="M 49.150386 19.982687 
L 59.150386 19.982687 
L 69.150386 19.982687 
" style="fill: none; stroke: #00008b; stroke-width: 1.5; stroke-linecap: square"/>
     <g>
      <use xlink:href="#ma93dda7fa0" x="59.150386" y="19.982687" style="fill: #00008b; stroke: #00008b"/>
     </g>
    </g>
    <g id="text_19">
     <!-- SU2 (SS) -->
     <g transform="translate(77.150386 23.482687) scale(0.1 -0.1)">
      <defs>
       <path id="NimbusSanL-Regu-55" d="M 3533 4672 
L 3533 1404 
C 3533 779 3078 396 2330 396 
C 1984 396 1702 479 1478 639 
C 1248 817 1139 1053 1139 1404 
L 1139 4672 
L 544 4672 
L 544 1404 
C 544 460 1222 -128 2330 -128 
C 3424 -128 4128 473 4128 1404 
L 4128 4672 
L 3533 4672 
z
" transform="scale(0.015625)"/>
       <path id="NimbusSanL-Regu-32" d="M 3238 556 
L 851 556 
C 909 928 1114 1165 1670 1493 
L 2310 1839 
C 2944 2185 3270 2653 3270 3211 
C 3270 3589 3117 3942 2848 4185 
C 2579 4428 2246 4544 1818 4544 
C 1242 4544 813 4339 563 3955 
C 403 3711 333 3429 320 2967 
L 883 2967 
C 902 3275 941 3461 1018 3608 
C 1165 3884 1459 4051 1798 4051 
C 2310 4051 2694 3685 2694 3198 
C 2694 2839 2483 2531 2080 2300 
L 1491 1967 
C 544 1428 269 999 218 0 
L 3238 0 
L 3238 556 
z
" transform="scale(0.015625)"/>
       <path id="NimbusSanL-Regu-28" d="M 1510 4672 
C 870 3833 467 2668 467 1663 
C 467 652 870 -513 1510 -1351 
L 1862 -1351 
C 1299 -436 986 639 986 1663 
C 986 2681 1299 3763 1862 4672 
L 1510 4672 
z
" transform="scale(0.015625)"/>
       <path id="NimbusSanL-Regu-29" d="M 595 -1351 
C 1235 -513 1638 652 1638 1657 
C 1638 2668 1235 3833 595 4672 
L 243 4672 
C 806 3756 1120 2681 1120 1657 
C 1120 639 806 -442 243 -1351 
L 595 -1351 
z
" transform="scale(0.015625)"/>
      </defs>
      <use xlink:href="#NimbusSanL-Regu-53" transform="scale(0.996264)"/>
      <use xlink:href="#NimbusSanL-Regu-55" transform="translate(66.450031 0) scale(0.996264)"/>
      <use xlink:href="#NimbusSanL-Regu-32" transform="translate(138.380016 0) scale(0.996264)"/>
      <use xlink:href="#NimbusSanL-Regu-28" transform="translate(221.466863 0) scale(0.996264)"/>
      <use xlink:href="#NimbusSanL-Regu-53" transform="translate(254.642092 0) scale(0.996264)"/>
      <use xlink:href="#NimbusSanL-Regu-53" transform="translate(321.092123 0) scale(0.996264)"/>
      <use xlink:href="#NimbusSanL-Regu-29" transform="translate(387.542155 0) scale(0.996264)"/>
     </g>
    </g>
    <g id="line2d_20">
     <path d="M 49.150386 34.387361 
L 59.150386 34.387361 
L 69.150386 34.387361 
" style="fill: none; stroke: #add8e6; stroke-width: 1.5; stroke-linecap: square"/>
     <g>
      <use xlink:href="#m263e8a49a7" x="59.150386" y="34.387361" style="fill: #add8e6; stroke: #add8e6"/>
     </g>
    </g>
    <g id="text_20">
     <!-- SU2 (PS) -->
     <g transform="translate(77.150386 37.887361) scale(0.1 -0.1)">
      <use xlink:href="#NimbusSanL-Regu-53" transform="scale(0.996264)"/>
      <use xlink:href="#NimbusSanL-Regu-55" transform="translate(66.450031 0) scale(0.996264)"/>
      <use xlink:href="#NimbusSanL-Regu-32" transform="translate(138.380016 0) scale(0.996264)"/>
      <use xlink:href="#NimbusSanL-Regu-28" transform="translate(221.466863 0) scale(0.996264)"/>
      <use xlink:href="#NimbusSanL-Regu-50" transform="translate(254.642092 0) scale(0.996264)"/>
      <use xlink:href="#NimbusSanL-Regu-53" transform="translate(321.092123 0) scale(0.996264)"/>
      <use xlink:href="#NimbusSanL-Regu-29" transform="translate(387.542155 0) scale(0.996264)"/>
     </g>
    </g>
   </g>
  </g>
 </g>
 <defs>
  <clipPath id="pba6c040faa">
   <rect x="40.150386" y="7.2" width="334.8" height="221.76"/>
  </clipPath>
 </defs>
</svg>
