<?xml version="1.0" encoding="utf-8" standalone="no"?>
<!DOCTYPE svg PUBLIC "-//W3C//DTD SVG 1.1//EN"
  "http://www.w3.org/Graphics/SVG/1.1/DTD/svg11.dtd">
<svg xmlns:xlink="http://www.w3.org/1999/xlink" width="382.150386pt" height="265.600613pt" viewBox="0 0 382.150386 265.600613" xmlns="http://www.w3.org/2000/svg" version="1.1">
 <metadata>
  <rdf:RDF xmlns:dc="http://purl.org/dc/elements/1.1/" xmlns:cc="http://creativecommons.org/ns#" xmlns:rdf="http://www.w3.org/1999/02/22-rdf-syntax-ns#">
   <cc:Work>
    <dc:type rdf:resource="http://purl.org/dc/dcmitype/StillImage"/>
    <dc:date>2025-07-17T20:26:04.574667</dc:date>
    <dc:format>image/svg+xml</dc:format>
    <dc:creator>
     <cc:Agent>
      <dc:title>Matplotlib v3.10.3, https://matplotlib.org/</dc:title>
     </cc:Agent>
    </dc:creator>
   </cc:Work>
  </rdf:RDF>
 </metadata>
 <defs>
  <style type="text/css">*{stroke-linejoin: round; stroke-linecap: butt}</style>
 </defs>
 <g id="figure_1">
  <g id="patch_1">
   <path d="M 0 265.600613 
L 382.150386 265.600613 
L 382.150386 0 
L 0 0 
z
" style="fill: #ffffff"/>
  </g>
  <g id="axes_1">
   <g id="patch_2">
    <path d="M 40.150386 228.96 
L 374.950386 228.96 
L 374.950386 7.2 
L 40.150386 7.2 
z
" style="fill: #ffffff"/>
   </g>
   <g id="matplotlib.axis_1">
    <g id="xtick_1">
     <g id="line2d_1">
      <defs>
       <path id="macefd6cd6f" d="M 0 0 
L 0 3.5 
" style="stroke: #000000; stroke-width: 0.8"/>
      </defs>
      <g>
       <use xlink:href="#macefd6cd6f" x="55.368567" y="228.96" style="stroke: #000000; stroke-width: 0.8"/>
      </g>
     </g>
     <g id="text_1">
      <!-- $\mathdefault{0}$ -->
      <g transform="translate(52.8779 243.05832) scale(0.1 -0.1)">
       <defs>
        <path id="CMR17-30" d="M 2688 2038 
C 2688 2430 2682 3099 2413 3613 
C 2176 4063 1798 4224 1466 4224 
C 1158 4224 768 4082 525 3620 
C 269 3137 243 2539 243 2038 
C 243 1671 250 1112 448 623 
C 723 -39 1216 -128 1466 -128 
C 1760 -128 2208 -7 2470 604 
C 2662 1048 2688 1568 2688 2038 
z
M 1466 -26 
C 1056 -26 813 328 723 816 
C 653 1196 653 1749 653 2109 
C 653 2604 653 3015 736 3407 
C 858 3954 1216 4121 1466 4121 
C 1728 4121 2067 3947 2189 3420 
C 2272 3054 2278 2623 2278 2109 
C 2278 1691 2278 1176 2202 797 
C 2067 96 1690 -26 1466 -26 
z
" transform="scale(0.015625)"/>
       </defs>
       <use xlink:href="#CMR17-30" transform="scale(0.996264)"/>
      </g>
     </g>
    </g>
    <g id="xtick_2">
     <g id="line2d_2">
      <g>
       <use xlink:href="#macefd6cd6f" x="93.461638" y="228.96" style="stroke: #000000; stroke-width: 0.8"/>
      </g>
     </g>
     <g id="text_2">
      <!-- $\mathdefault{100}$ -->
      <g transform="translate(85.989635 243.05832) scale(0.1 -0.1)">
       <defs>
        <path id="CMR17-31" d="M 1702 4083 
C 1702 4217 1696 4224 1606 4224 
C 1357 3927 979 3833 621 3820 
C 602 3820 570 3820 563 3808 
C 557 3795 557 3782 557 3648 
C 755 3648 1088 3686 1344 3839 
L 1344 467 
C 1344 243 1331 166 781 166 
L 589 166 
L 589 0 
C 896 6 1216 12 1523 12 
C 1830 12 2150 6 2458 0 
L 2458 166 
L 2266 166 
C 1715 166 1702 236 1702 467 
L 1702 4083 
z
" transform="scale(0.015625)"/>
       </defs>
       <use xlink:href="#CMR17-31" transform="scale(0.996264)"/>
       <use xlink:href="#CMR17-30" transform="translate(45.690477 0) scale(0.996264)"/>
       <use xlink:href="#CMR17-30" transform="translate(91.380954 0) scale(0.996264)"/>
      </g>
     </g>
    </g>
    <g id="xtick_3">
     <g id="line2d_3">
      <g>
       <use xlink:href="#macefd6cd6f" x="131.554709" y="228.96" style="stroke: #000000; stroke-width: 0.8"/>
      </g>
     </g>
     <g id="text_3">
      <!-- $\mathdefault{200}$ -->
      <g transform="translate(124.082706 243.05832) scale(0.1 -0.1)">
       <defs>
        <path id="CMR17-32" d="M 2669 990 
L 2554 990 
C 2490 537 2438 460 2413 422 
C 2381 371 1920 371 1830 371 
L 602 371 
C 832 620 1280 1073 1824 1596 
C 2214 1966 2669 2400 2669 3033 
C 2669 3788 2067 4224 1395 4224 
C 691 4224 262 3603 262 3027 
C 262 2777 448 2745 525 2745 
C 589 2745 781 2783 781 3007 
C 781 3206 614 3264 525 3264 
C 486 3264 448 3257 422 3244 
C 544 3788 915 4057 1306 4057 
C 1862 4057 2227 3616 2227 3033 
C 2227 2477 1901 1998 1536 1583 
L 262 147 
L 262 0 
L 2515 0 
L 2669 990 
z
" transform="scale(0.015625)"/>
       </defs>
       <use xlink:href="#CMR17-32" transform="scale(0.996264)"/>
       <use xlink:href="#CMR17-30" transform="translate(45.690477 0) scale(0.996264)"/>
       <use xlink:href="#CMR17-30" transform="translate(91.380954 0) scale(0.996264)"/>
      </g>
     </g>
    </g>
    <g id="xtick_4">
     <g id="line2d_4">
      <g>
       <use xlink:href="#macefd6cd6f" x="169.64778" y="228.96" style="stroke: #000000; stroke-width: 0.8"/>
      </g>
     </g>
     <g id="text_4">
      <!-- $\mathdefault{300}$ -->
      <g transform="translate(162.175777 243.05832) scale(0.1 -0.1)">
       <defs>
        <path id="CMR17-33" d="M 1414 2176 
C 1984 2176 2234 1673 2234 1094 
C 2234 322 1824 25 1453 25 
C 1114 25 563 193 390 691 
C 422 678 454 678 486 678 
C 640 678 755 780 755 947 
C 755 1132 614 1216 486 1216 
C 378 1216 211 1164 211 927 
C 211 335 787 -128 1466 -128 
C 2176 -128 2720 432 2720 1087 
C 2720 1718 2208 2176 1600 2246 
C 2086 2347 2554 2776 2554 3353 
C 2554 3856 2048 4224 1472 4224 
C 890 4224 378 3862 378 3347 
C 378 3123 544 3084 627 3084 
C 762 3084 877 3167 877 3334 
C 877 3500 762 3584 627 3584 
C 602 3584 570 3584 544 3571 
C 730 3999 1235 4076 1459 4076 
C 1683 4076 2106 3966 2106 3347 
C 2106 3167 2080 2851 1862 2574 
C 1670 2329 1453 2316 1242 2297 
C 1210 2297 1062 2284 1037 2284 
C 992 2278 966 2272 966 2227 
C 966 2182 973 2176 1101 2176 
L 1414 2176 
z
" transform="scale(0.015625)"/>
       </defs>
       <use xlink:href="#CMR17-33" transform="scale(0.996264)"/>
       <use xlink:href="#CMR17-30" transform="translate(45.690477 0) scale(0.996264)"/>
       <use xlink:href="#CMR17-30" transform="translate(91.380954 0) scale(0.996264)"/>
      </g>
     </g>
    </g>
    <g id="xtick_5">
     <g id="line2d_5">
      <g>
       <use xlink:href="#macefd6cd6f" x="207.740851" y="228.96" style="stroke: #000000; stroke-width: 0.8"/>
      </g>
     </g>
     <g id="text_5">
      <!-- $\mathdefault{400}$ -->
      <g transform="translate(200.268848 243.05832) scale(0.1 -0.1)">
       <defs>
        <path id="CMR17-34" d="M 2150 4147 
C 2150 4281 2144 4288 2029 4288 
L 128 1254 
L 128 1088 
L 1779 1088 
L 1779 460 
C 1779 230 1766 166 1318 166 
L 1197 166 
L 1197 0 
C 1402 12 1747 12 1965 12 
C 2182 12 2528 12 2733 0 
L 2733 166 
L 2611 166 
C 2163 166 2150 230 2150 460 
L 2150 1088 
L 2803 1088 
L 2803 1254 
L 2150 1254 
L 2150 4147 
z
M 1798 3723 
L 1798 1254 
L 256 1254 
L 1798 3723 
z
" transform="scale(0.015625)"/>
       </defs>
       <use xlink:href="#CMR17-34" transform="scale(0.996264)"/>
       <use xlink:href="#CMR17-30" transform="translate(45.690477 0) scale(0.996264)"/>
       <use xlink:href="#CMR17-30" transform="translate(91.380954 0) scale(0.996264)"/>
      </g>
     </g>
    </g>
    <g id="xtick_6">
     <g id="line2d_6">
      <g>
       <use xlink:href="#macefd6cd6f" x="245.833922" y="228.96" style="stroke: #000000; stroke-width: 0.8"/>
      </g>
     </g>
     <g id="text_6">
      <!-- $\mathdefault{500}$ -->
      <g transform="translate(238.361919 243.05832) scale(0.1 -0.1)">
       <defs>
        <path id="CMR17-35" d="M 730 3750 
C 794 3724 1056 3641 1325 3641 
C 1920 3641 2246 3961 2432 4140 
C 2432 4191 2432 4224 2394 4224 
C 2387 4224 2374 4224 2323 4198 
C 2099 4102 1837 4032 1517 4032 
C 1325 4032 1037 4055 723 4191 
C 653 4224 640 4224 634 4224 
C 602 4224 595 4217 595 4090 
L 595 2231 
C 595 2113 595 2080 659 2080 
C 691 2080 704 2093 736 2139 
C 941 2435 1222 2560 1542 2560 
C 1766 2560 2246 2415 2246 1293 
C 2246 1087 2246 716 2054 422 
C 1894 159 1645 25 1370 25 
C 947 25 518 319 403 812 
C 429 806 480 793 506 793 
C 589 793 749 838 749 1036 
C 749 1209 627 1280 506 1280 
C 358 1280 262 1190 262 1011 
C 262 454 704 -128 1382 -128 
C 2042 -128 2669 441 2669 1267 
C 2669 2054 2170 2662 1549 2662 
C 1222 2662 947 2540 730 2304 
L 730 3750 
z
" transform="scale(0.015625)"/>
       </defs>
       <use xlink:href="#CMR17-35" transform="scale(0.996264)"/>
       <use xlink:href="#CMR17-30" transform="translate(45.690477 0) scale(0.996264)"/>
       <use xlink:href="#CMR17-30" transform="translate(91.380954 0) scale(0.996264)"/>
      </g>
     </g>
    </g>
    <g id="xtick_7">
     <g id="line2d_7">
      <g>
       <use xlink:href="#macefd6cd6f" x="283.926993" y="228.96" style="stroke: #000000; stroke-width: 0.8"/>
      </g>
     </g>
     <g id="text_7">
      <!-- $\mathdefault{600}$ -->
      <g transform="translate(276.45499 243.05832) scale(0.1 -0.1)">
       <defs>
        <path id="CMR17-36" d="M 678 2198 
C 678 3712 1395 4076 1811 4076 
C 1946 4076 2272 4049 2400 3782 
C 2298 3782 2106 3782 2106 3558 
C 2106 3385 2246 3328 2336 3328 
C 2394 3328 2566 3353 2566 3571 
C 2566 3987 2246 4224 1805 4224 
C 1043 4224 243 3411 243 2011 
C 243 257 966 -128 1478 -128 
C 2099 -128 2688 431 2688 1295 
C 2688 2101 2170 2688 1517 2688 
C 1126 2688 838 2430 678 1979 
L 678 2198 
z
M 1478 25 
C 691 25 691 1212 691 1450 
C 691 1914 909 2585 1504 2585 
C 1613 2585 1926 2585 2138 2140 
C 2253 1889 2253 1624 2253 1302 
C 2253 954 2253 696 2118 438 
C 1978 173 1773 25 1478 25 
z
" transform="scale(0.015625)"/>
       </defs>
       <use xlink:href="#CMR17-36" transform="scale(0.996264)"/>
       <use xlink:href="#CMR17-30" transform="translate(45.690477 0) scale(0.996264)"/>
       <use xlink:href="#CMR17-30" transform="translate(91.380954 0) scale(0.996264)"/>
      </g>
     </g>
    </g>
    <g id="xtick_8">
     <g id="line2d_8">
      <g>
       <use xlink:href="#macefd6cd6f" x="322.020064" y="228.96" style="stroke: #000000; stroke-width: 0.8"/>
      </g>
     </g>
     <g id="text_8">
      <!-- $\mathdefault{700}$ -->
      <g transform="translate(314.548061 243.05832) scale(0.1 -0.1)">
       <defs>
        <path id="CMR17-37" d="M 2886 3955 
L 2886 4096 
L 1382 4096 
C 634 4096 621 4166 595 4288 
L 480 4288 
L 294 3104 
L 410 3104 
C 429 3226 474 3552 550 3673 
C 589 3724 1062 3724 1171 3724 
L 2579 3724 
L 1869 2670 
C 1395 1961 1069 1003 1069 166 
C 1069 89 1069 -128 1299 -128 
C 1530 -128 1530 89 1530 172 
L 1530 466 
C 1530 1514 1709 2204 2003 2644 
L 2886 3955 
z
" transform="scale(0.015625)"/>
       </defs>
       <use xlink:href="#CMR17-37" transform="scale(0.996264)"/>
       <use xlink:href="#CMR17-30" transform="translate(45.690477 0) scale(0.996264)"/>
       <use xlink:href="#CMR17-30" transform="translate(91.380954 0) scale(0.996264)"/>
      </g>
     </g>
    </g>
    <g id="xtick_9">
     <g id="line2d_9">
      <g>
       <use xlink:href="#macefd6cd6f" x="360.113135" y="228.96" style="stroke: #000000; stroke-width: 0.8"/>
      </g>
     </g>
     <g id="text_9">
      <!-- $\mathdefault{800}$ -->
      <g transform="translate(352.641132 243.05832) scale(0.1 -0.1)">
       <defs>
        <path id="CMR17-38" d="M 1741 2289 
C 2144 2494 2554 2803 2554 3298 
C 2554 3884 1990 4224 1472 4224 
C 890 4224 378 3800 378 3215 
C 378 3054 416 2777 666 2533 
C 730 2469 998 2276 1171 2154 
C 883 2006 211 1652 211 945 
C 211 282 838 -128 1459 -128 
C 2144 -128 2720 366 2720 1022 
C 2720 1607 2330 1877 2074 2051 
L 1741 2289 
z
M 902 2855 
C 851 2887 595 3086 595 3388 
C 595 3781 998 4076 1459 4076 
C 1965 4076 2336 3716 2336 3298 
C 2336 2700 1670 2359 1638 2359 
C 1632 2359 1626 2359 1574 2398 
L 902 2855 
z
M 2080 1536 
C 2176 1466 2483 1253 2483 861 
C 2483 385 2010 25 1472 25 
C 890 25 448 443 448 951 
C 448 1459 838 1884 1280 2083 
L 2080 1536 
z
" transform="scale(0.015625)"/>
       </defs>
       <use xlink:href="#CMR17-38" transform="scale(0.996264)"/>
       <use xlink:href="#CMR17-30" transform="translate(45.690477 0) scale(0.996264)"/>
       <use xlink:href="#CMR17-30" transform="translate(91.380954 0) scale(0.996264)"/>
      </g>
     </g>
    </g>
    <g id="text_10">
     <!-- Iteration -->
     <g transform="translate(189.603009 256.278627) scale(0.1 -0.1)">
      <defs>
       <path id="NimbusSanL-Regu-49" d="M 1242 4672 
L 640 4672 
L 640 0 
L 1242 0 
L 1242 4672 
z
" transform="scale(0.015625)"/>
       <path id="NimbusSanL-Regu-74" d="M 1626 3328 
L 1075 3328 
L 1075 4249 
L 544 4249 
L 544 3328 
L 90 3328 
L 90 2892 
L 544 2892 
L 544 402 
C 544 64 774 -128 1190 -128 
C 1318 -128 1446 -116 1626 -84 
L 1626 364 
C 1555 345 1472 339 1370 339 
C 1139 339 1075 402 1075 634 
L 1075 2892 
L 1626 2892 
L 1626 3328 
z
" transform="scale(0.015625)"/>
       <path id="NimbusSanL-Regu-65" d="M 3283 1484 
C 3283 1998 3245 2311 3149 2565 
C 2931 3123 2419 3456 1792 3456 
C 858 3456 256 2734 256 1619 
C 256 545 838 -128 1779 -128 
C 2547 -128 3078 307 3213 1018 
L 2675 1018 
C 2528 588 2227 364 1798 364 
C 1459 364 1171 514 992 787 
C 864 974 819 1161 813 1484 
L 3283 1484 
z
M 826 1920 
C 870 2552 1248 2963 1786 2963 
C 2310 2963 2714 2519 2714 1959 
C 2714 1946 2714 1933 2707 1920 
L 826 1920 
z
" transform="scale(0.015625)"/>
       <path id="NimbusSanL-Regu-72" d="M 442 3328 
L 442 0 
L 979 0 
L 979 1727 
C 979 2203 1101 2514 1357 2698 
C 1523 2819 1683 2857 2054 2863 
L 2054 3404 
C 1965 3449 1920 3456 1850 3456 
C 1504 3456 1242 3251 934 2750 
L 934 3328 
L 442 3328 
z
" transform="scale(0.015625)"/>
       <path id="NimbusSanL-Regu-61" d="M 3424 332 
C 3366 320 3341 320 3309 320 
C 3123 320 3021 415 3021 581 
L 3021 2542 
C 3021 3135 2586 3456 1760 3456 
C 1274 3456 870 3315 646 3065 
C 493 2893 429 2702 416 2370 
L 954 2370 
C 998 2778 1242 2963 1741 2963 
C 2221 2963 2490 2784 2490 2466 
L 2490 2326 
C 2490 2103 2355 2007 1933 1956 
C 1178 1861 1062 1835 858 1753 
C 467 1593 269 1294 269 861 
C 269 256 691 -128 1370 -128 
C 1792 -128 2131 19 2509 364 
C 2547 25 2714 -128 3059 -128 
C 3168 -128 3251 -116 3424 -71 
L 3424 332 
z
M 2490 1071 
C 2490 893 2438 785 2278 638 
C 2061 441 1798 339 1485 339 
C 1069 339 826 536 826 874 
C 826 1224 1062 1402 1632 1485 
C 2195 1562 2310 1587 2490 1670 
L 2490 1071 
z
" transform="scale(0.015625)"/>
       <path id="NimbusSanL-Regu-69" d="M 960 3358 
L 429 3358 
L 429 0 
L 960 0 
L 960 3358 
z
M 960 4672 
L 422 4672 
L 422 3999 
L 960 3999 
L 960 4672 
z
" transform="scale(0.015625)"/>
       <path id="NimbusSanL-Regu-6f" d="M 1741 3456 
C 800 3456 230 2784 230 1663 
C 230 543 794 -128 1747 -128 
C 2688 -128 3264 543 3264 1638 
C 3264 2791 2707 3456 1741 3456 
z
M 1747 2963 
C 2349 2963 2707 2472 2707 1644 
C 2707 861 2336 364 1747 364 
C 1152 364 787 855 787 1663 
C 787 2466 1152 2963 1747 2963 
z
" transform="scale(0.015625)"/>
       <path id="NimbusSanL-Regu-6e" d="M 448 3328 
L 448 0 
L 986 0 
L 986 1835 
C 986 2539 1344 2988 1894 2988 
C 2317 2988 2586 2732 2586 2328 
L 2586 0 
L 3117 0 
L 3117 2539 
C 3117 3097 2701 3456 2054 3456 
C 1555 3456 1235 3263 941 2796 
L 941 3328 
L 448 3328 
z
" transform="scale(0.015625)"/>
      </defs>
      <use xlink:href="#NimbusSanL-Regu-49" transform="scale(0.996264)"/>
      <use xlink:href="#NimbusSanL-Regu-74" transform="translate(27.69517 0) scale(0.996264)"/>
      <use xlink:href="#NimbusSanL-Regu-65" transform="translate(55.390339 0) scale(0.996264)"/>
      <use xlink:href="#NimbusSanL-Regu-72" transform="translate(110.782016 0) scale(0.996264)"/>
      <use xlink:href="#NimbusSanL-Regu-61" transform="translate(142.961149 0) scale(0.996264)"/>
      <use xlink:href="#NimbusSanL-Regu-74" transform="translate(198.352826 0) scale(0.996264)"/>
      <use xlink:href="#NimbusSanL-Regu-69" transform="translate(226.047996 0) scale(0.996264)"/>
      <use xlink:href="#NimbusSanL-Regu-6f" transform="translate(248.16478 0) scale(0.996264)"/>
      <use xlink:href="#NimbusSanL-Regu-6e" transform="translate(303.556457 0) scale(0.996264)"/>
     </g>
    </g>
   </g>
   <g id="matplotlib.axis_2">
    <g id="ytick_1">
     <g id="line2d_10">
      <defs>
       <path id="mc14383ba24" d="M 0 0 
L -3.5 0 
" style="stroke: #000000; stroke-width: 0.8"/>
      </defs>
      <g>
       <use xlink:href="#mc14383ba24" x="40.150386" y="221.933585" style="stroke: #000000; stroke-width: 0.8"/>
      </g>
     </g>
     <g id="text_11">
      <!-- $\mathdefault{−8}$ -->
      <g transform="translate(20.420307 225.482745) scale(0.1 -0.1)">
       <defs>
        <path id="CMSY10-0" d="M 4218 1472 
C 4326 1472 4442 1472 4442 1600 
C 4442 1728 4326 1728 4218 1728 
L 755 1728 
C 646 1728 531 1728 531 1600 
C 531 1472 646 1472 755 1472 
L 4218 1472 
z
" transform="scale(0.015625)"/>
       </defs>
       <use xlink:href="#CMSY10-0" transform="scale(0.996264)"/>
       <use xlink:href="#CMR17-38" transform="translate(77.487468 0) scale(0.996264)"/>
      </g>
     </g>
    </g>
    <g id="ytick_2">
     <g id="line2d_11">
      <g>
       <use xlink:href="#mc14383ba24" x="40.150386" y="187.027012" style="stroke: #000000; stroke-width: 0.8"/>
      </g>
     </g>
     <g id="text_12">
      <!-- $\mathdefault{−7}$ -->
      <g transform="translate(20.420307 190.576173) scale(0.1 -0.1)">
       <use xlink:href="#CMSY10-0" transform="scale(0.996264)"/>
       <use xlink:href="#CMR17-37" transform="translate(77.487468 0) scale(0.996264)"/>
      </g>
     </g>
    </g>
    <g id="ytick_3">
     <g id="line2d_12">
      <g>
       <use xlink:href="#mc14383ba24" x="40.150386" y="152.12044" style="stroke: #000000; stroke-width: 0.8"/>
      </g>
     </g>
     <g id="text_13">
      <!-- $\mathdefault{−6}$ -->
      <g transform="translate(20.420307 155.6696) scale(0.1 -0.1)">
       <use xlink:href="#CMSY10-0" transform="scale(0.996264)"/>
       <use xlink:href="#CMR17-36" transform="translate(77.487468 0) scale(0.996264)"/>
      </g>
     </g>
    </g>
    <g id="ytick_4">
     <g id="line2d_13">
      <g>
       <use xlink:href="#mc14383ba24" x="40.150386" y="117.213867" style="stroke: #000000; stroke-width: 0.8"/>
      </g>
     </g>
     <g id="text_14">
      <!-- $\mathdefault{−5}$ -->
      <g transform="translate(20.420307 120.763027) scale(0.1 -0.1)">
       <use xlink:href="#CMSY10-0" transform="scale(0.996264)"/>
       <use xlink:href="#CMR17-35" transform="translate(77.487468 0) scale(0.996264)"/>
      </g>
     </g>
    </g>
    <g id="ytick_5">
     <g id="line2d_14">
      <g>
       <use xlink:href="#mc14383ba24" x="40.150386" y="82.307294" style="stroke: #000000; stroke-width: 0.8"/>
      </g>
     </g>
     <g id="text_15">
      <!-- $\mathdefault{−4}$ -->
      <g transform="translate(20.420307 85.856454) scale(0.1 -0.1)">
       <use xlink:href="#CMSY10-0" transform="scale(0.996264)"/>
       <use xlink:href="#CMR17-34" transform="translate(77.487468 0) scale(0.996264)"/>
      </g>
     </g>
    </g>
    <g id="ytick_6">
     <g id="line2d_15">
      <g>
       <use xlink:href="#mc14383ba24" x="40.150386" y="47.400722" style="stroke: #000000; stroke-width: 0.8"/>
      </g>
     </g>
     <g id="text_16">
      <!-- $\mathdefault{−3}$ -->
      <g transform="translate(20.420307 50.949882) scale(0.1 -0.1)">
       <use xlink:href="#CMSY10-0" transform="scale(0.996264)"/>
       <use xlink:href="#CMR17-33" transform="translate(77.487468 0) scale(0.996264)"/>
      </g>
     </g>
    </g>
    <g id="ytick_7">
     <g id="line2d_16">
      <g>
       <use xlink:href="#mc14383ba24" x="40.150386" y="12.494149" style="stroke: #000000; stroke-width: 0.8"/>
      </g>
     </g>
     <g id="text_17">
      <!-- $\mathdefault{−2}$ -->
      <g transform="translate(20.420307 16.043309) scale(0.1 -0.1)">
       <use xlink:href="#CMSY10-0" transform="scale(0.996264)"/>
       <use xlink:href="#CMR17-32" transform="translate(77.487468 0) scale(0.996264)"/>
      </g>
     </g>
    </g>
    <g id="text_18">
     <!-- Linear Solver residual - Blade_18 -->
     <g transform="translate(14.29832 190.622039) rotate(-90) scale(0.1 -0.1)">
      <defs>
       <path id="NimbusSanL-Regu-4c" d="M 1107 4672 
L 512 4672 
L 512 0 
L 3411 0 
L 3411 524 
L 1107 524 
L 1107 4672 
z
" transform="scale(0.015625)"/>
       <path id="NimbusSanL-Regu-53" d="M 3814 3295 
C 3808 4204 3181 4736 2106 4736 
C 1082 4736 448 4211 448 3372 
C 448 2806 749 2450 1363 2291 
L 2522 1986 
C 3110 1833 3379 1598 3379 1236 
C 3379 988 3245 733 3046 593 
C 2861 466 2566 396 2189 396 
C 1683 396 1338 517 1114 784 
C 941 988 864 1210 870 1496 
L 307 1496 
C 314 1070 397 790 582 536 
C 902 102 1440 -128 2150 -128 
C 2707 -128 3162 0 3462 230 
C 3776 479 3974 892 3974 1293 
C 3974 1865 3616 2284 2982 2456 
L 1811 2768 
C 1248 2920 1043 3098 1043 3454 
C 1043 3925 1459 4236 2086 4236 
C 2829 4236 3245 3899 3251 3295 
L 3814 3295 
z
" transform="scale(0.015625)"/>
       <path id="NimbusSanL-Regu-6c" d="M 973 4672 
L 435 4672 
L 435 0 
L 973 0 
L 973 4672 
z
" transform="scale(0.015625)"/>
       <path id="NimbusSanL-Regu-76" d="M 1824 0 
L 3110 3328 
L 2509 3328 
L 1562 629 
L 666 3328 
L 64 3328 
L 1242 0 
L 1824 0 
z
" transform="scale(0.015625)"/>
       <path id="NimbusSanL-Regu-73" d="M 2803 2428 
C 2797 3084 2362 3456 1587 3456 
C 806 3456 301 3052 301 2434 
C 301 1912 570 1663 1363 1472 
L 1862 1351 
C 2234 1262 2381 1129 2381 887 
C 2381 574 2067 364 1600 364 
C 1312 364 1069 447 934 587 
C 851 683 813 778 781 1014 
L 218 1014 
C 243 243 678 -128 1555 -128 
C 2400 -128 2938 288 2938 931 
C 2938 1428 2656 1702 1990 1861 
L 1478 1982 
C 1043 2084 858 2224 858 2459 
C 858 2765 1133 2963 1568 2963 
C 1997 2963 2227 2778 2240 2428 
L 2803 2428 
z
" transform="scale(0.015625)"/>
       <path id="NimbusSanL-Regu-64" d="M 3168 4672 
L 2637 4672 
L 2637 2937 
C 2413 3276 2054 3456 1606 3456 
C 736 3456 166 2759 166 1695 
C 166 568 723 -128 1626 -128 
C 2086 -128 2406 44 2694 460 
L 2694 19 
L 3168 19 
L 3168 4672 
z
M 1696 2956 
C 2272 2956 2637 2447 2637 1651 
C 2637 880 2266 371 1702 371 
C 1114 371 723 887 723 1663 
C 723 2440 1114 2956 1696 2956 
z
" transform="scale(0.015625)"/>
       <path id="NimbusSanL-Regu-75" d="M 3085 19 
L 3085 3328 
L 2554 3328 
L 2554 1454 
C 2554 780 2195 339 1638 339 
C 1216 339 947 591 947 988 
L 947 3328 
L 416 3328 
L 416 780 
C 416 230 832 -128 1485 -128 
C 1978 -128 2291 44 2605 484 
L 2605 19 
L 3085 19 
z
" transform="scale(0.015625)"/>
       <path id="NimbusSanL-Regu-2d" d="M 1818 1996 
L 294 1996 
L 294 1536 
L 1818 1536 
L 1818 1996 
z
" transform="scale(0.015625)"/>
       <path id="NimbusSanL-Regu-42" d="M 506 0 
L 2611 0 
C 3053 0 3379 121 3629 390 
C 3859 632 3987 961 3987 1321 
C 3987 1878 3731 2214 3136 2444 
C 3558 2643 3782 2994 3782 3476 
C 3782 3821 3654 4127 3411 4345 
C 3168 4569 2848 4672 2400 4672 
L 506 4672 
L 506 0 
z
M 1101 2636 
L 1101 4147 
L 2253 4147 
C 2586 4147 2771 4101 2931 3977 
C 3098 3847 3187 3652 3187 3391 
C 3187 3138 3098 2936 2931 2806 
C 2771 2682 2586 2636 2253 2636 
L 1101 2636 
z
M 1101 524 
L 1101 2112 
L 2554 2112 
C 2842 2112 3034 2042 3174 1890 
C 3315 1745 3392 1542 3392 1315 
C 3392 1093 3315 891 3174 746 
C 3034 594 2842 524 2554 524 
L 1101 524 
z
" transform="scale(0.015625)"/>
       <path id="NimbusSanL-Regu-31" d="M 1658 3232 
L 1658 0 
L 2221 0 
L 2221 4537 
L 1850 4537 
C 1651 3840 1523 3744 653 3635 
L 653 3232 
L 1658 3232 
z
" transform="scale(0.015625)"/>
       <path id="NimbusSanL-Regu-38" d="M 2502 2399 
C 2970 2681 3123 2910 3123 3337 
C 3123 4044 2566 4544 1760 4544 
C 960 4544 397 4044 397 3337 
C 397 2917 550 2687 1011 2399 
C 493 2150 237 1774 237 1276 
C 237 447 864 -128 1760 -128 
C 2656 -128 3283 447 3283 1270 
C 3283 1774 3027 2150 2502 2399 
z
M 1760 4044 
C 2240 4044 2547 3764 2547 3324 
C 2547 2904 2234 2624 1760 2624 
C 1286 2624 973 2904 973 3331 
C 973 3764 1286 4044 1760 4044 
z
M 1760 2150 
C 2323 2150 2707 1793 2707 1264 
C 2707 728 2323 371 1747 371 
C 1197 371 813 734 813 1264 
C 813 1793 1197 2150 1760 2150 
z
" transform="scale(0.015625)"/>
      </defs>
      <use xlink:href="#NimbusSanL-Regu-4c" transform="scale(0.996264)"/>
      <use xlink:href="#NimbusSanL-Regu-69" transform="translate(55.391677 0) scale(0.996264)"/>
      <use xlink:href="#NimbusSanL-Regu-6e" transform="translate(77.508461 0) scale(0.996264)"/>
      <use xlink:href="#NimbusSanL-Regu-65" transform="translate(132.900138 0) scale(0.996264)"/>
      <use xlink:href="#NimbusSanL-Regu-61" transform="translate(188.291815 0) scale(0.996264)"/>
      <use xlink:href="#NimbusSanL-Regu-72" transform="translate(243.683492 0) scale(0.996264)"/>
      <use xlink:href="#NimbusSanL-Regu-53" transform="translate(304.553892 0) scale(0.996264)"/>
      <use xlink:href="#NimbusSanL-Regu-6f" transform="translate(371.003923 0) scale(0.996264)"/>
      <use xlink:href="#NimbusSanL-Regu-6c" transform="translate(426.3956 0) scale(0.996264)"/>
      <use xlink:href="#NimbusSanL-Regu-76" transform="translate(448.512384 0) scale(0.996264)"/>
      <use xlink:href="#NimbusSanL-Regu-65" transform="translate(495.834955 0) scale(0.996264)"/>
      <use xlink:href="#NimbusSanL-Regu-72" transform="translate(551.226632 0) scale(0.996264)"/>
      <use xlink:href="#NimbusSanL-Regu-72" transform="translate(612.097031 0) scale(0.996264)"/>
      <use xlink:href="#NimbusSanL-Regu-65" transform="translate(645.272261 0) scale(0.996264)"/>
      <use xlink:href="#NimbusSanL-Regu-73" transform="translate(700.663938 0) scale(0.996264)"/>
      <use xlink:href="#NimbusSanL-Regu-69" transform="translate(750.477138 0) scale(0.996264)"/>
      <use xlink:href="#NimbusSanL-Regu-64" transform="translate(772.593923 0) scale(0.996264)"/>
      <use xlink:href="#NimbusSanL-Regu-75" transform="translate(827.9856 0) scale(0.996264)"/>
      <use xlink:href="#NimbusSanL-Regu-61" transform="translate(883.377277 0) scale(0.996264)"/>
      <use xlink:href="#NimbusSanL-Regu-6c" transform="translate(938.768954 0) scale(0.996264)"/>
      <use xlink:href="#NimbusSanL-Regu-2d" transform="translate(988.580908 0) scale(0.996264)"/>
      <use xlink:href="#NimbusSanL-Regu-42" transform="translate(1049.451307 0) scale(0.996264)"/>
      <use xlink:href="#NimbusSanL-Regu-6c" transform="translate(1115.901338 0) scale(0.996264)"/>
      <use xlink:href="#NimbusSanL-Regu-61" transform="translate(1138.018122 0) scale(0.996264)"/>
      <use xlink:href="#NimbusSanL-Regu-64" transform="translate(1193.409799 0) scale(0.996264)"/>
      <use xlink:href="#NimbusSanL-Regu-65" transform="translate(1248.801476 0) scale(0.996264)"/>
      <use xlink:href="#NimbusSanL-Regu-31" transform="translate(1340.058718 0) scale(0.996264)"/>
      <use xlink:href="#NimbusSanL-Regu-38" transform="translate(1395.450395 0) scale(0.996264)"/>
      <path d="M 1310.170494 0 
L 1340.058718 0 
L 1340.058718 0.3985 
L 1310.170494 0.3985 
L 1310.170494 0 
z
"/>
     </g>
    </g>
   </g>
   <g id="line2d_17">
    <path d="M 55.368567 84.783352 
L 55.749498 88.581989 
L 56.51136 21.36775 
L 56.89229 110.843368 
L 57.273221 96.093839 
L 57.654152 113.927508 
L 58.416013 84.091158 
L 58.796944 92.209783 
L 59.558805 97.206708 
L 60.320667 88.912214 
L 61.082528 42.93216 
L 61.463459 98.21041 
L 61.84439 86.152697 
L 62.22532 114.799275 
L 62.606251 98.448214 
L 62.987182 110.282229 
L 63.368112 90.547397 
L 63.749043 93.087466 
L 64.129974 89.590523 
L 64.510904 83.294647 
L 64.891835 91.315205 
L 65.653697 32.058702 
L 66.034627 120.737141 
L 67.177419 82.959201 
L 67.55835 101.189176 
L 67.939281 84.574223 
L 68.320212 95.09418 
L 68.701142 99.640226 
L 69.082073 100.152949 
L 69.463004 98.920954 
L 69.843934 98.202682 
L 70.224865 97.009145 
L 70.986727 60.455443 
L 71.367657 29.643665 
L 71.748588 91.726114 
L 72.129519 121.138744 
L 72.89138 92.624762 
L 73.272311 107.52062 
L 73.653241 90.431409 
L 74.034172 99.521527 
L 74.415103 98.941094 
L 74.796034 99.58802 
L 75.557895 82.367574 
L 75.938826 46.098977 
L 76.319756 50.853754 
L 76.700687 24.69655 
L 77.081618 108.054812 
L 77.462549 94.830226 
L 77.843479 125.168246 
L 78.605341 90.514409 
L 78.986271 101.09312 
L 79.367202 105.71687 
L 79.748133 85.509636 
L 80.129064 84.972495 
L 80.509994 84.707938 
L 80.890925 68.402469 
L 81.271856 67.875181 
L 81.652786 58.209903 
L 82.033717 42.973996 
L 82.414648 98.186477 
L 82.795578 85.361168 
L 83.176509 113.444609 
L 83.55744 97.832028 
L 83.938371 114.31204 
L 84.319301 96.9806 
L 84.700232 109.343522 
L 85.081163 84.330033 
L 85.462093 95.864274 
L 85.843024 98.812715 
L 86.604886 48.160071 
L 86.985816 20.729046 
L 87.366747 102.892843 
L 87.747678 90.807749 
L 88.128608 122.382413 
L 88.89047 88.911568 
L 89.271401 102.3546 
L 89.652331 83.745511 
L 90.033262 90.73204 
L 90.414193 94.043269 
L 90.795123 93.19575 
L 91.176054 91.725224 
L 91.556985 71.638465 
L 91.937916 41.313818 
L 92.318846 118.121823 
L 93.080708 92.386671 
L 93.461638 120.699742 
L 94.2235 86.005168 
L 94.60443 97.553619 
L 94.985361 104.430357 
L 95.366292 84.277693 
L 95.747223 82.566943 
L 96.128153 92.654072 
L 96.509084 71.69169 
L 96.890015 41.221373 
L 97.270945 127.813612 
L 98.413738 88.965418 
L 98.794668 115.21086 
L 99.55653 83.306899 
L 99.93746 94.776907 
L 100.318391 95.897848 
L 100.699322 93.813422 
L 101.080253 84.871343 
L 101.461183 84.347682 
L 102.223045 29.86972 
L 102.603975 124.493202 
L 103.746767 85.190672 
L 104.127698 110.223241 
L 104.508629 93.793814 
L 104.88956 106.628708 
L 105.27049 86.662057 
L 105.651421 90.074778 
L 106.032352 89.941809 
L 106.413282 84.961409 
L 106.794213 91.590215 
L 107.556075 49.654534 
L 107.937005 31.608735 
L 108.317936 105.97045 
L 108.698867 93.069799 
L 109.079797 120.756402 
L 109.841659 87.12892 
L 110.22259 98.667598 
L 110.60352 82.711437 
L 110.984451 88.268079 
L 111.365382 90.862974 
L 111.746312 97.887574 
L 112.127243 84.99405 
L 112.889104 24.318631 
L 113.270035 110.901368 
L 114.031897 85.349869 
L 114.412827 114.640508 
L 115.174689 82.907627 
L 115.555619 86.995964 
L 115.93655 92.638427 
L 116.698412 94.622554 
L 117.079342 84.613226 
L 117.460273 78.534189 
L 118.222134 34.030957 
L 118.603065 108.895389 
L 119.364927 84.268724 
L 119.745857 109.201773 
L 120.126788 94.057253 
L 120.507719 108.649448 
L 120.888649 92.47456 
L 121.26958 100.787213 
L 121.650511 99.529499 
L 122.031442 94.404552 
L 122.412372 94.324543 
L 123.174234 29.727959 
L 123.555164 114.546158 
L 124.317026 88.613713 
L 124.697956 112.679635 
L 125.078887 95.346425 
L 125.459818 105.647982 
L 125.840749 85.684141 
L 126.221679 92.070814 
L 126.60261 94.726832 
L 126.983541 93.699989 
L 127.364471 88.162157 
L 127.745402 76.001489 
L 128.507264 31.158998 
L 128.888194 106.592319 
L 129.269125 93.664724 
L 129.650056 117.212911 
L 130.030986 99.068187 
L 130.411917 113.124561 
L 130.792848 93.148236 
L 131.173779 98.731232 
L 131.554709 102.421559 
L 131.93564 82.96447 
L 132.316571 90.672055 
L 133.078432 43.103467 
L 133.459363 126.46624 
L 134.602155 86.999902 
L 134.983086 113.629036 
L 135.364016 97.213218 
L 135.744947 111.335818 
L 136.125878 90.512373 
L 136.887739 85.890858 
L 137.26867 93.966324 
L 137.649601 77.368487 
L 138.030531 43.835967 
L 138.411462 135.270083 
L 139.554254 94.50279 
L 139.935185 122.715981 
L 140.697046 88.989425 
L 141.077977 100.914432 
L 141.458908 105.551169 
L 141.839838 100.738799 
L 142.220769 87.202971 
L 142.6017 94.816765 
L 142.98263 59.944422 
L 143.363561 37.421732 
L 143.744492 133.664075 
L 144.887284 92.709375 
L 145.268215 115.914733 
L 146.030076 83.743366 
L 146.411007 96.890691 
L 146.791938 96.96255 
L 147.172868 91.220702 
L 147.553799 97.512148 
L 147.93473 73.612105 
L 148.31566 40.270247 
L 148.696591 140.7906 
L 150.220314 86.322407 
L 150.601245 109.482359 
L 150.982175 91.839697 
L 151.744037 109.950635 
L 152.124968 85.10301 
L 152.505898 101.026006 
L 152.886829 87.611402 
L 153.64869 40.51155 
L 154.029621 137.3952 
L 155.172413 95.86927 
L 155.553344 121.975699 
L 156.315205 87.658015 
L 157.077067 102.867523 
L 157.457997 100.974357 
L 157.838928 96.601079 
L 158.60079 68.347224 
L 158.98172 42.749875 
L 159.362651 132.677516 
L 160.505443 92.675412 
L 160.886374 119.678655 
L 161.648235 87.123876 
L 162.029166 100.031058 
L 162.410097 108.10053 
L 162.791027 85.817304 
L 163.171958 83.547768 
L 163.552889 93.655386 
L 164.31475 67.550875 
L 164.695681 37.912016 
L 165.076612 115.959435 
L 165.838473 90.350886 
L 166.219404 117.290871 
L 166.981265 84.195859 
L 167.743127 97.12771 
L 168.504988 84.402272 
L 168.885919 83.319021 
L 169.266849 51.222574 
L 169.64778 32.981853 
L 170.028711 121.279857 
L 171.171503 83.443611 
L 171.552434 109.055824 
L 171.933364 91.687411 
L 172.695226 107.563682 
L 173.076156 87.620609 
L 173.457087 85.719776 
L 173.838018 85.860888 
L 174.218949 83.14571 
L 174.599879 73.807326 
L 174.98081 50.861583 
L 175.361741 20.293303 
L 175.742671 103.522309 
L 176.123602 90.955254 
L 176.504533 120.6337 
L 177.266394 88.290984 
L 177.647325 98.201594 
L 178.028256 104.891893 
L 178.409186 103.418159 
L 178.790117 93.121424 
L 179.171048 92.304635 
L 179.932909 40.269073 
L 180.31384 126.184424 
L 181.456632 86.444683 
L 181.837563 110.986893 
L 182.218494 94.787908 
L 182.599424 106.81145 
L 182.980355 86.443858 
L 183.742216 91.969096 
L 184.123147 86.468691 
L 184.504078 94.236494 
L 184.885008 75.557102 
L 186.027801 46.263956 
L 186.408731 54.424295 
L 186.789662 37.554827 
L 187.170593 89.262727 
L 187.551523 117.999792 
L 188.313385 87.419214 
L 188.694316 101.946556 
L 189.075246 86.115129 
L 189.456177 96.056847 
L 189.837108 102.716714 
L 190.218038 85.089307 
L 190.598969 98.312057 
L 190.9799 89.347899 
L 191.360831 71.781202 
L 192.122692 46.543633 
L 192.503623 39.775467 
L 192.884553 83.900879 
L 193.265484 110.486494 
L 193.646415 94.883268 
L 194.027345 109.914831 
L 194.408276 91.918293 
L 194.789207 101.454691 
L 195.170138 103.474718 
L 195.551068 82.801233 
L 195.931999 97.840485 
L 196.31293 83.892688 
L 196.69386 62.580451 
L 197.074791 33.022269 
L 197.455722 99.446035 
L 197.836653 87.213784 
L 198.217583 115.377936 
L 198.979445 84.536397 
L 199.741306 107.629119 
L 200.122237 88.807292 
L 200.503168 86.147397 
L 200.884098 96.943407 
L 201.265029 87.819781 
L 202.02689 46.289109 
L 202.407821 50.023581 
L 202.788752 31.258767 
L 203.169682 96.9682 
L 203.550613 84.886203 
L 203.931544 113.088805 
L 204.312475 97.308187 
L 204.693405 108.656692 
L 205.074336 88.8418 
L 205.836197 96.198978 
L 206.217128 91.375329 
L 206.598059 83.690767 
L 206.97899 70.186735 
L 207.740851 33.640896 
L 208.121782 105.602768 
L 208.502712 93.370907 
L 208.883643 120.806187 
L 209.645505 92.013218 
L 210.026435 105.501739 
L 210.407366 86.813561 
L 210.788297 91.992028 
L 211.169227 92.565223 
L 211.550158 90.127896 
L 211.931089 90.908058 
L 212.69295 36.178806 
L 213.073881 112.322557 
L 213.835742 86.649937 
L 214.216673 114.765576 
L 214.978534 82.495835 
L 215.359465 95.383976 
L 215.740396 104.362138 
L 216.121327 83.293534 
L 216.502257 96.828063 
L 216.883188 86.100508 
L 217.264119 70.355098 
L 218.02598 28.064032 
L 218.406911 106.446344 
L 218.787842 93.764969 
L 219.168772 123.886625 
L 219.930634 92.000181 
L 220.311564 104.51386 
L 220.692495 85.713719 
L 221.073426 93.046362 
L 221.454357 90.616571 
L 221.835287 92.602494 
L 222.216218 76.802888 
L 222.978079 23.95731 
L 223.35901 115.45629 
L 224.120871 89.907811 
L 224.501802 116.579838 
L 225.263664 84.921653 
L 225.644594 97.327186 
L 226.025525 100.126264 
L 226.406456 97.787418 
L 226.787386 89.333668 
L 227.168317 96.138736 
L 227.549248 62.460686 
L 227.930179 39.215148 
L 228.311109 123.896269 
L 229.453901 85.552836 
L 229.834832 111.280307 
L 230.215763 95.338391 
L 230.596694 107.556608 
L 230.977624 91.575074 
L 231.358555 87.914374 
L 231.739486 88.781639 
L 232.120416 88.484005 
L 232.882278 77.789725 
L 233.644139 31.040501 
L 234.02507 106.162878 
L 234.406001 93.595642 
L 234.786931 123.951582 
L 235.548793 94.648643 
L 235.929723 108.125451 
L 236.310654 91.263737 
L 236.691585 88.005348 
L 237.072516 82.466764 
L 237.453446 87.790064 
L 237.834377 67.848111 
L 238.215308 39.726601 
L 238.596238 126.999971 
L 239.739031 89.119129 
L 240.119961 117.922213 
L 240.881823 83.126778 
L 241.643684 97.847739 
L 242.024615 89.518255 
L 242.405545 97.904886 
L 242.786476 83.626778 
L 243.167407 50.656619 
L 243.548338 31.574637 
L 243.929268 123.059206 
L 245.07206 84.745885 
L 245.452991 111.936121 
L 245.833922 96.596096 
L 246.214853 106.682877 
L 246.595783 90.7175 
L 246.976714 100.803323 
L 247.357645 83.020508 
L 247.738575 98.427397 
L 248.119506 92.866761 
L 248.500437 88.975657 
L 249.262298 55.702811 
L 249.643229 37.574429 
L 250.02416 92.822104 
L 250.40509 124.603754 
L 251.166952 94.924874 
L 251.547883 113.220181 
L 251.928813 96.242261 
L 252.309744 102.808583 
L 253.452536 90.668777 
L 253.833467 84.42121 
L 254.976259 31.631959 
L 255.35719 88.633735 
L 255.73812 117.025256 
L 256.499982 84.909229 
L 257.261843 105.718712 
L 257.642774 85.076529 
L 258.023705 87.000476 
L 258.404635 97.797566 
L 258.785566 88.682631 
L 259.547427 47.619471 
L 259.928358 38.452808 
L 260.309289 95.540756 
L 260.69022 82.805948 
L 261.07115 112.368557 
L 261.452081 96.796671 
L 261.833012 112.062944 
L 262.213942 94.021566 
L 262.594873 102.17635 
L 262.975804 83.753746 
L 263.356734 87.041221 
L 263.737665 89.331084 
L 264.499527 88.411369 
L 265.261388 56.791919 
L 266.023249 40.377893 
L 266.40418 108.952174 
L 266.785111 94.328368 
L 267.166042 113.645758 
L 267.927903 83.04709 
L 268.689764 97.245012 
L 269.070695 98.803768 
L 269.451626 82.368678 
L 269.832557 83.626987 
L 270.213487 78.36334 
L 270.975349 41.03354 
L 271.356279 118.960672 
L 272.118141 90.452168 
L 272.499071 108.380643 
L 272.880002 91.32654 
L 273.260933 94.972779 
L 273.641864 90.930616 
L 274.022794 91.336168 
L 274.403725 88.551839 
L 274.784656 90.881542 
L 275.165586 69.54153 
L 275.927448 46.671191 
L 276.308379 50.343441 
L 276.689309 38.122537 
L 277.07024 115.041 
L 277.832101 86.926863 
L 278.213032 105.157056 
L 278.593963 89.805728 
L 278.974894 97.927775 
L 279.355824 103.262762 
L 279.736755 85.236205 
L 280.117686 83.255785 
L 280.498616 82.487334 
L 280.879547 78.561634 
L 281.641409 48.245285 
L 282.022339 35.889085 
L 282.40327 112.755536 
L 283.165131 82.66409 
L 283.546062 100.037091 
L 283.926993 82.522327 
L 284.307923 99.14678 
L 284.688854 103.461417 
L 285.069785 85.313144 
L 285.450716 85.563997 
L 285.831646 67.589467 
L 286.212577 196.445127 
L 289.640953 103.139437 
L 290.402815 83.144286 
L 290.783746 137.878067 
L 292.307468 84.771055 
L 292.688399 116.785194 
L 293.45026 90.193896 
L 293.831191 98.51122 
L 294.212122 99.305807 
L 294.593053 102.798057 
L 294.973983 83.080071 
L 295.354914 92.857883 
L 295.735845 93.386886 
L 296.116775 70.674708 
L 296.497706 181.212856 
L 298.78329 117.13867 
L 299.926083 87.704845 
L 300.307013 150.917114 
L 301.830736 97.335546 
L 302.211667 86.468652 
L 302.592597 126.179474 
L 302.973528 104.053655 
L 303.354459 116.496378 
L 304.11632 91.322484 
L 304.497251 102.119404 
L 304.878182 86.108626 
L 305.259112 90.185145 
L 305.640043 97.535667 
L 306.020974 90.460403 
L 306.401905 87.771126 
L 307.544697 43.312927 
L 307.925627 110.790792 
L 308.306558 92.64088 
L 308.687489 114.849035 
L 309.06842 98.713297 
L 309.44935 98.093889 
L 309.830281 96.206459 
L 310.211212 107.088357 
L 310.592142 90.788697 
L 310.973073 93.578837 
L 311.354004 91.264436 
L 311.734935 88.264474 
L 312.496796 54.605982 
L 312.877727 44.795242 
L 313.258657 45.2216 
L 313.639588 43.475959 
L 314.020519 109.248421 
L 314.401449 94.853122 
L 314.78238 111.704861 
L 315.163311 95.711184 
L 315.544242 107.493692 
L 315.925172 90.334239 
L 316.306103 99.740378 
L 316.687034 85.349839 
L 317.067964 82.768823 
L 317.448895 93.109033 
L 318.591687 39.616996 
L 318.972618 115.603041 
L 319.734479 88.566199 
L 320.11541 105.029555 
L 320.496341 88.818587 
L 320.877272 98.628171 
L 321.258202 97.656155 
L 321.639133 89.160391 
L 322.020064 91.048917 
L 322.781925 40.070517 
L 323.162856 92.657525 
L 323.543786 87.94473 
L 323.924717 121.949498 
L 324.686579 91.614341 
L 325.067509 106.730893 
L 325.44844 88.451116 
L 325.829371 85.92026 
L 326.210301 95.276631 
L 326.591232 83.13483 
L 326.972163 77.661704 
L 327.734024 23.653819 
L 328.114955 94.597613 
L 328.495886 85.562789 
L 328.876816 117.922032 
L 329.638678 88.618109 
L 330.019609 99.502107 
L 330.400539 84.956067 
L 330.78147 83.56801 
L 331.162401 92.763669 
L 331.543331 88.239233 
L 331.924262 89.264285 
L 332.305193 126.38713 
L 333.828916 90.027738 
L 334.209846 158.597828 
L 336.1145 93.336319 
L 336.495431 135.296096 
L 337.638223 95.419278 
L 338.019153 83.705719 
L 338.400084 105.31473 
L 338.781015 90.770806 
L 339.161946 104.874093 
L 339.542876 95.981274 
L 339.923807 82.454176 
L 340.304738 97.298752 
L 340.685668 98.67675 
L 341.44753 29.353321 
L 341.828461 116.437687 
L 342.209391 112.232165 
L 342.590322 118.633852 
L 342.971253 94.705614 
L 343.352183 83.354834 
L 343.733114 105.417843 
L 344.114045 90.302339 
L 344.494975 105.51304 
L 344.875906 110.105243 
L 345.256837 106.569675 
L 345.637768 96.48625 
L 346.018698 79.469547 
L 346.78056 17.28 
L 347.16149 91.374693 
L 347.923352 86.537588 
L 348.304283 88.545606 
L 348.685213 98.089939 
L 349.066144 101.936844 
L 349.447075 88.982055 
L 349.828005 93.829741 
L 350.208936 94.364482 
L 350.589867 89.248853 
L 350.970798 86.467868 
L 351.732659 38.429155 
L 352.11359 115.021888 
L 352.49452 110.725301 
L 354.018243 86.522454 
L 354.399174 140.363419 
L 355.161035 119.53614 
L 356.303827 93.858205 
L 356.684758 86.36617 
L 357.065689 118.578059 
L 358.208481 91.071595 
L 358.589412 106.811986 
L 358.970342 93.387842 
L 359.351273 105.191711 
L 359.732204 84.624142 
L 359.732204 84.624142 
" clip-path="url(#p1d0d5cc757)" style="fill: none; stroke: #1f77b4; stroke-width: 1.5; stroke-linecap: square"/>
   </g>
   <g id="line2d_18">
    <path d="M 55.368567 97.616565 
L 55.749498 118.389217 
L 56.130429 91.063452 
L 56.51136 94.749961 
L 56.89229 109.15684 
L 57.654152 89.666255 
L 58.035082 144.945074 
L 59.558805 89.540618 
L 59.939736 117.401772 
L 60.701597 90.21834 
L 61.082528 108.641229 
L 61.463459 118.82182 
L 62.606251 90.24989 
L 62.987182 140.091386 
L 64.510904 90.864629 
L 64.891835 118.584156 
L 65.653697 92.024747 
L 66.034627 139.178665 
L 67.939281 89.571801 
L 68.320212 139.337219 
L 69.843934 86.97962 
L 70.224865 114.746403 
L 70.986727 89.125145 
L 71.367657 109.419161 
L 71.748588 122.808649 
L 73.272311 83.792528 
L 73.653241 135.267415 
L 74.796034 93.211662 
L 75.176964 117.066082 
L 75.938826 82.836924 
L 76.319756 112.198411 
L 76.700687 97.954633 
L 77.081618 117.462251 
L 78.22441 87.90906 
L 78.605341 140.060076 
L 80.129064 88.160186 
L 80.509994 114.131098 
L 81.271856 84.513722 
L 81.652786 98.13736 
L 82.033717 83.122123 
L 82.414648 108.007455 
L 83.176509 88.065764 
L 83.55744 138.25635 
L 85.081163 87.435783 
L 85.462093 114.56971 
L 86.223955 88.940536 
L 86.604886 107.852401 
L 86.985816 96.223433 
L 87.366747 113.296377 
L 88.509539 83.329909 
L 88.89047 130.630521 
L 90.033262 92.615525 
L 90.414193 130.79955 
L 91.556985 91.924181 
L 91.937916 109.446301 
L 92.318846 114.826478 
L 93.461638 87.073273 
L 93.842569 141.806967 
L 95.366292 92.887106 
L 95.747223 82.331643 
L 96.128153 114.161247 
L 96.890015 87.883307 
L 97.270945 126.15423 
L 98.794668 87.462197 
L 99.175599 140.462453 
L 100.699322 89.18075 
L 101.080253 123.71359 
L 101.842114 92.53244 
L 102.223045 109.162872 
L 102.603975 116.151226 
L 103.746767 86.163941 
L 104.127698 140.220099 
L 105.651421 86.729782 
L 106.032352 117.977515 
L 106.794213 89.305301 
L 107.175144 108.783893 
L 107.556075 93.900782 
L 107.937005 108.251004 
L 108.698867 86.60167 
L 109.079797 139.699087 
L 110.60352 88.255787 
L 110.984451 119.833392 
L 111.746312 93.040977 
L 112.127243 115.020003 
L 112.889104 86.511435 
L 113.270035 105.88693 
L 114.031897 86.773209 
L 114.412827 140.181074 
L 115.93655 87.108195 
L 116.317481 118.027548 
L 117.079342 91.918428 
L 117.460273 115.148264 
L 117.841204 99.342405 
L 118.222134 109.570241 
L 118.603065 105.128035 
L 119.364927 85.377588 
L 119.745857 135.802706 
L 121.26958 83.977966 
L 121.650511 112.954879 
L 122.412372 88.911451 
L 122.793303 112.996722 
L 123.174234 101.810585 
L 123.555164 114.605628 
L 124.697956 85.950023 
L 125.078887 139.945457 
L 126.60261 91.70599 
L 126.983541 122.854889 
L 128.126333 85.721105 
L 128.888194 121.321794 
L 130.411917 82.950747 
L 130.792848 130.178474 
L 132.316571 82.787555 
L 132.697501 108.955813 
L 133.078432 96.441933 
L 133.459363 137.414047 
L 135.364016 88.528518 
L 135.744947 139.438204 
L 137.26867 91.508509 
L 137.649601 121.492964 
L 138.030531 108.835539 
L 138.411462 142.801887 
L 140.316116 94.391101 
L 140.697046 85.371505 
L 141.077977 137.300968 
L 142.6017 89.093647 
L 142.98263 119.516067 
L 143.363561 106.408757 
L 143.744492 138.145869 
L 145.649145 88.969514 
L 146.030076 143.772813 
L 147.553799 92.085466 
L 147.93473 124.394214 
L 148.31566 108.707279 
L 148.696591 139.066304 
L 150.601245 88.21857 
L 150.982175 141.389929 
L 152.505898 87.279134 
L 152.886829 121.33029 
L 153.64869 91.041608 
L 154.029621 128.302516 
L 155.553344 88.188044 
L 155.934275 142.764865 
L 157.457997 90.889973 
L 157.838928 124.695983 
L 158.98172 83.622546 
L 159.362651 123.460098 
L 160.886374 84.358394 
L 161.267305 137.841211 
L 162.791027 89.004018 
L 163.171958 120.81434 
L 164.31475 82.505787 
L 164.695681 103.816372 
L 165.076612 113.698346 
L 166.219404 85.418137 
L 166.600334 137.263046 
L 168.124057 88.27817 
L 168.504988 118.062681 
L 169.266849 92.854603 
L 169.64778 82.622871 
L 170.028711 124.446604 
L 171.552434 87.791844 
L 171.933364 137.522827 
L 173.457087 89.60984 
L 173.838018 119.245593 
L 174.599879 91.001789 
L 174.98081 107.977662 
L 175.361741 92.770544 
L 175.742671 113.197385 
L 176.885464 83.441693 
L 177.266394 131.093374 
L 178.409186 92.145955 
L 178.790117 121.792952 
L 179.551979 93.809361 
L 180.31384 125.919852 
L 181.837563 85.116124 
L 182.218494 134.578885 
L 183.361286 91.304042 
L 183.742216 118.507749 
L 184.504078 87.04841 
L 184.885008 104.699191 
L 185.265939 89.863218 
L 185.64687 100.101953 
L 186.027801 87.406297 
L 186.408731 92.593102 
L 186.789662 85.176441 
L 187.170593 86.7562 
L 187.551523 140.554485 
L 189.075246 86.680928 
L 189.456177 118.504435 
L 190.218038 93.046283 
L 190.598969 116.708873 
L 191.360831 85.454064 
L 191.741761 95.246214 
L 192.122692 101.58226 
L 192.503623 99.557579 
L 192.884553 84.109584 
L 193.265484 135.423328 
L 194.789207 85.414674 
L 195.170138 113.43843 
L 195.931999 84.739237 
L 196.31293 100.535819 
L 196.69386 84.901338 
L 197.074791 95.274957 
L 197.455722 98.667814 
L 197.836653 88.874222 
L 198.217583 140.003471 
L 199.741306 87.862706 
L 200.122237 116.953411 
L 200.884098 89.698414 
L 201.265029 110.071553 
L 202.02689 82.569484 
L 202.407821 83.780704 
L 202.788752 96.065035 
L 203.169682 101.673258 
L 203.931544 82.352048 
L 204.312475 131.712672 
L 205.455267 92.901977 
L 205.836197 121.100239 
L 206.598059 91.525278 
L 206.97899 107.011556 
L 207.35992 91.555741 
L 207.740851 102.672803 
L 208.121782 108.865927 
L 208.883643 89.565069 
L 209.264574 140.638453 
L 210.788297 91.182993 
L 211.169227 119.355532 
L 211.931089 94.781501 
L 212.312019 108.662313 
L 212.69295 88.073814 
L 213.073881 115.87423 
L 214.216673 85.267611 
L 214.597604 134.798234 
L 215.740396 92.95435 
L 216.121327 120.59477 
L 216.883188 88.887131 
L 217.264119 103.806299 
L 217.645049 86.46767 
L 218.406911 104.916199 
L 219.168772 85.150347 
L 219.549703 137.444525 
L 221.073426 83.473472 
L 221.454357 109.598328 
L 221.835287 94.16405 
L 222.216218 110.975764 
L 222.597149 94.433034 
L 222.978079 105.157277 
L 223.35901 110.665555 
L 224.120871 90.979308 
L 224.501802 146.612136 
L 226.025525 92.927356 
L 226.406456 122.062812 
L 227.168317 92.283626 
L 227.549248 109.484527 
L 227.930179 94.241611 
L 228.311109 120.151855 
L 229.453901 90.691618 
L 229.834832 146.246458 
L 231.358555 93.600834 
L 231.739486 123.169922 
L 232.501347 93.643212 
L 232.882278 110.97088 
L 233.263208 95.357619 
L 233.644139 108.331033 
L 234.02507 110.07988 
L 234.786931 90.37855 
L 235.167862 145.410226 
L 236.691585 91.384797 
L 237.072516 120.190165 
L 237.834377 89.8036 
L 238.596238 124.232883 
L 240.119961 84.380628 
L 240.500892 136.288224 
L 242.024615 83.041194 
L 242.405545 110.956664 
L 242.786476 96.052913 
L 243.167407 113.760935 
L 243.548338 97.414417 
L 243.929268 117.798593 
L 245.07206 88.640405 
L 245.452991 141.532264 
L 246.976714 89.199071 
L 247.357645 118.141452 
L 248.119506 89.157132 
L 248.500437 106.086565 
L 248.881368 91.976891 
L 249.262298 106.246377 
L 249.643229 93.780418 
L 250.02416 94.716198 
L 250.40509 85.334516 
L 250.786021 136.244038 
L 252.309744 87.13864 
L 252.690675 115.336513 
L 253.452536 90.7006 
L 253.833467 110.629868 
L 254.595328 88.653511 
L 254.976259 105.434907 
L 255.35719 99.923875 
L 256.119051 82.627951 
L 256.499982 134.038942 
L 258.023705 88.155357 
L 258.404635 117.040389 
L 259.166497 90.257869 
L 259.547427 111.096154 
L 259.928358 95.615037 
L 260.309289 103.845784 
L 261.07115 85.829044 
L 261.452081 141.500399 
L 262.975804 90.091905 
L 263.356734 122.177616 
L 264.118596 93.716483 
L 264.499527 114.78892 
L 265.261388 88.388279 
L 265.642319 101.645301 
L 266.023249 88.254952 
L 266.40418 145.896791 
L 267.927903 95.645701 
L 268.308834 84.777603 
L 268.689764 115.369211 
L 269.451626 85.291133 
L 269.832557 102.796193 
L 270.213487 88.147886 
L 270.594418 101.002837 
L 270.975349 88.443901 
L 271.356279 88.249896 
L 271.73721 141.553432 
L 273.260933 89.157709 
L 273.641864 119.229256 
L 274.403725 91.484955 
L 274.784656 111.578016 
L 275.546517 86.215075 
L 275.927448 101.947123 
L 276.308379 104.712938 
L 276.689309 94.540685 
L 277.07024 89.212128 
L 277.451171 141.679731 
L 278.974894 91.483676 
L 279.355824 125.209138 
L 280.117686 98.20863 
L 280.498616 87.63099 
L 280.879547 111.893844 
L 281.641409 87.778159 
L 282.022339 101.580407 
L 282.40327 86.434883 
L 282.784201 143.951894 
L 284.688854 82.881281 
L 285.069785 112.280148 
L 285.450716 96.417016 
L 285.831646 115.835745 
L 286.212577 107.798017 
L 287.7363 85.905488 
L 288.117231 213.540784 
L 291.926538 108.784007 
L 292.688399 89.243066 
L 293.06933 146.05053 
L 294.593053 93.146036 
L 294.973983 126.285915 
L 296.116775 84.793263 
L 296.497706 107.279539 
L 298.021429 85.057443 
L 298.40236 201.914876 
L 302.211667 86.75228 
L 302.592597 138.41631 
L 303.73539 97.850502 
L 304.11632 86.804946 
L 304.497251 131.861117 
L 305.640043 103.263166 
L 306.401905 82.435231 
L 306.782835 101.671167 
L 307.163766 86.874732 
L 307.544697 108.082766 
L 307.925627 136.791413 
L 308.687489 106.27624 
L 309.44935 82.916916 
L 309.830281 117.464669 
L 310.973073 89.229283 
L 311.354004 115.185787 
L 312.115865 93.992143 
L 312.496796 84.997418 
L 312.877727 106.349308 
L 313.258657 104.071468 
L 313.639588 102.683751 
L 314.020519 136.342403 
L 315.163311 96.519873 
L 315.544242 85.566886 
L 315.925172 125.901327 
L 317.067964 94.540463 
L 317.448895 111.784261 
L 318.210757 85.986099 
L 318.591687 92.78447 
L 318.972618 129.249139 
L 320.496341 87.358257 
L 320.877272 122.195387 
L 322.020064 83.814993 
L 322.400994 105.523415 
L 322.781925 91.779274 
L 323.162856 98.800555 
L 323.543786 89.349167 
L 323.924717 143.731381 
L 325.067509 106.028071 
L 325.829371 84.57544 
L 326.210301 116.351653 
L 326.972163 90.578158 
L 327.353094 111.872065 
L 327.734024 97.097889 
L 328.114955 108.722039 
L 328.876816 89.422164 
L 329.257747 141.967887 
L 330.78147 93.882908 
L 331.162401 124.388787 
L 331.924262 96.239385 
L 332.305193 94.820391 
L 333.067054 83.842184 
L 333.447985 209.990592 
L 336.876361 113.907866 
L 338.019153 83.74417 
L 338.400084 136.910421 
L 339.923807 87.524801 
L 340.304738 119.688386 
L 341.066599 91.571845 
L 341.44753 111.446465 
L 341.828461 117.755446 
L 342.971253 88.557207 
L 343.352183 142.327605 
L 344.875906 94.229564 
L 345.256837 83.272259 
L 345.637768 112.259972 
L 346.399629 83.972816 
L 346.78056 99.547386 
L 347.16149 110.224249 
L 348.304283 83.407757 
L 348.685213 135.98063 
L 350.208936 85.619652 
L 350.589867 111.582486 
L 351.351728 83.487994 
L 352.11359 113.055504 
L 352.49452 87.143238 
L 352.875451 218.88 
L 356.303827 124.443745 
L 357.82755 85.851199 
L 358.208481 140.448007 
L 359.732204 90.511939 
L 359.732204 90.511939 
" clip-path="url(#p1d0d5cc757)" style="fill: none; stroke: #ff7f0e; stroke-width: 1.5; stroke-linecap: square"/>
   </g>
   <g id="patch_3">
    <path d="M 40.150386 228.96 
L 40.150386 7.2 
" style="fill: none; stroke: #000000; stroke-width: 0.8; stroke-linejoin: miter; stroke-linecap: square"/>
   </g>
   <g id="patch_4">
    <path d="M 374.950386 228.96 
L 374.950386 7.2 
" style="fill: none; stroke: #000000; stroke-width: 0.8; stroke-linejoin: miter; stroke-linecap: square"/>
   </g>
   <g id="patch_5">
    <path d="M 40.150386 228.96 
L 374.950386 228.96 
" style="fill: none; stroke: #000000; stroke-width: 0.8; stroke-linejoin: miter; stroke-linecap: square"/>
   </g>
   <g id="patch_6">
    <path d="M 40.150386 7.2 
L 374.950386 7.2 
" style="fill: none; stroke: #000000; stroke-width: 0.8; stroke-linejoin: miter; stroke-linecap: square"/>
   </g>
   <g id="legend_1">
    <g id="patch_7">
     <path d="M 47.150386 223.96 
L 128.33557 223.96 
Q 130.33557 223.96 130.33557 221.96 
L 130.33557 194.519387 
Q 130.33557 192.519387 128.33557 192.519387 
L 47.150386 192.519387 
Q 45.150386 192.519387 45.150386 194.519387 
L 45.150386 221.96 
Q 45.150386 223.96 47.150386 223.96 
z
" style="fill: #ffffff; opacity: 0.8; stroke: #cccccc; stroke-linejoin: miter"/>
    </g>
    <g id="line2d_19">
     <path d="M 49.150386 200.117707 
L 59.150386 200.117707 
L 69.150386 200.117707 
" style="fill: none; stroke: #1f77b4; stroke-width: 1.5; stroke-linecap: square"/>
    </g>
    <g id="text_19">
     <!-- LSRes -->
     <g transform="translate(77.150386 203.617707) scale(0.1 -0.1)">
      <defs>
       <path id="NimbusSanL-Regu-52" d="M 1190 2035 
L 2726 2035 
C 3258 2035 3494 1775 3494 1191 
L 3488 770 
C 3488 478 3539 192 3622 0 
L 4346 0 
L 4346 147 
C 4122 303 4077 471 4064 1101 
C 4058 1879 3936 2111 3430 2329 
C 3955 2585 4166 2907 4166 3432 
C 4166 4230 3661 4672 2746 4672 
L 595 4672 
L 595 0 
L 1190 0 
L 1190 2035 
z
M 1190 2560 
L 1190 4147 
L 2630 4147 
C 2963 4147 3155 4096 3302 3970 
C 3462 3837 3546 3628 3546 3350 
C 3546 2806 3264 2560 2630 2560 
L 1190 2560 
z
" transform="scale(0.015625)"/>
      </defs>
      <use xlink:href="#NimbusSanL-Regu-4c" transform="scale(0.996264)"/>
      <use xlink:href="#NimbusSanL-Regu-53" transform="translate(55.391677 0) scale(0.996264)"/>
      <use xlink:href="#NimbusSanL-Regu-52" transform="translate(121.841708 0) scale(0.996264)"/>
      <use xlink:href="#NimbusSanL-Regu-65" transform="translate(193.771693 0) scale(0.996264)"/>
      <use xlink:href="#NimbusSanL-Regu-73" transform="translate(249.16337 0) scale(0.996264)"/>
     </g>
    </g>
    <g id="line2d_20">
     <path d="M 49.150386 214.338014 
L 59.150386 214.338014 
L 69.150386 214.338014 
" style="fill: none; stroke: #ff7f0e; stroke-width: 1.5; stroke-linecap: square"/>
    </g>
    <g id="text_20">
     <!-- LSResTurb -->
     <g transform="translate(77.150386 217.838014) scale(0.1 -0.1)">
      <defs>
       <path id="NimbusSanL-Regu-54" d="M 2266 4147 
L 3795 4147 
L 3795 4672 
L 134 4672 
L 134 4147 
L 1670 4147 
L 1670 0 
L 2266 0 
L 2266 4147 
z
" transform="scale(0.015625)"/>
       <path id="NimbusSanL-Regu-62" d="M 346 4672 
L 346 19 
L 826 19 
L 826 447 
C 1082 57 1421 -128 1888 -128 
C 2771 -128 3347 594 3347 1702 
C 3347 2784 2797 3456 1914 3456 
C 1453 3456 1126 3283 877 2905 
L 877 4672 
L 346 4672 
z
M 1811 2956 
C 2406 2956 2790 2440 2790 1644 
C 2790 887 2394 371 1811 371 
C 1248 371 877 880 877 1663 
C 877 2447 1248 2956 1811 2956 
z
" transform="scale(0.015625)"/>
      </defs>
      <use xlink:href="#NimbusSanL-Regu-4c" transform="scale(0.996264)"/>
      <use xlink:href="#NimbusSanL-Regu-53" transform="translate(55.391677 0) scale(0.996264)"/>
      <use xlink:href="#NimbusSanL-Regu-52" transform="translate(121.841708 0) scale(0.996264)"/>
      <use xlink:href="#NimbusSanL-Regu-65" transform="translate(193.771693 0) scale(0.996264)"/>
      <use xlink:href="#NimbusSanL-Regu-73" transform="translate(249.16337 0) scale(0.996264)"/>
      <use xlink:href="#NimbusSanL-Regu-54" transform="translate(298.97657 0) scale(0.996264)"/>
      <use xlink:href="#NimbusSanL-Regu-75" transform="translate(347.893519 0) scale(0.996264)"/>
      <use xlink:href="#NimbusSanL-Regu-72" transform="translate(403.285196 0) scale(0.996264)"/>
      <use xlink:href="#NimbusSanL-Regu-62" transform="translate(436.460426 0) scale(0.996264)"/>
     </g>
    </g>
   </g>
  </g>
 </g>
 <defs>
  <clipPath id="p1d0d5cc757">
   <rect x="40.150386" y="7.2" width="334.8" height="221.76"/>
  </clipPath>
 </defs>
</svg>
