<?xml version="1.0" encoding="utf-8" standalone="no"?>
<!DOCTYPE svg PUBLIC "-//W3C//DTD SVG 1.1//EN"
  "http://www.w3.org/Graphics/SVG/1.1/DTD/svg11.dtd">
<svg xmlns:xlink="http://www.w3.org/1999/xlink" width="395.987428pt" height="268.450136pt" viewBox="0 0 395.987428 268.450136" xmlns="http://www.w3.org/2000/svg" version="1.1">
 <metadata>
  <rdf:RDF xmlns:dc="http://purl.org/dc/elements/1.1/" xmlns:cc="http://creativecommons.org/ns#" xmlns:rdf="http://www.w3.org/1999/02/22-rdf-syntax-ns#">
   <cc:Work>
    <dc:type rdf:resource="http://purl.org/dc/dcmitype/StillImage"/>
    <dc:date>2025-07-17T20:26:12.340959</dc:date>
    <dc:format>image/svg+xml</dc:format>
    <dc:creator>
     <cc:Agent>
      <dc:title>Matplotlib v3.10.3, https://matplotlib.org/</dc:title>
     </cc:Agent>
    </dc:creator>
   </cc:Work>
  </rdf:RDF>
 </metadata>
 <defs>
  <style type="text/css">*{stroke-linejoin: round; stroke-linecap: butt}</style>
 </defs>
 <g id="figure_1">
  <g id="patch_1">
   <path d="M 0 268.450136 
L 395.987428 268.450136 
L 395.987428 0 
L 0 0 
z
" style="fill: #ffffff"/>
  </g>
  <g id="axes_1">
   <g id="patch_2">
    <path d="M 45.131721 231.809522 
L 379.931721 231.809522 
L 379.931721 10.049522 
L 45.131721 10.049522 
z
" style="fill: #ffffff"/>
   </g>
   <g id="PathCollection_1">
    <defs>
     <path id="md3a2857779" d="M 0 0.353553 
C 0.093763 0.353553 0.183699 0.316301 0.25 0.25 
C 0.316301 0.183699 0.353553 0.093763 0.353553 0 
C 0.353553 -0.093763 0.316301 -0.183699 0.25 -0.25 
C 0.183699 -0.316301 0.093763 -0.353553 0 -0.353553 
C -0.093763 -0.353553 -0.183699 -0.316301 -0.25 -0.25 
C -0.316301 -0.183699 -0.353553 -0.093763 -0.353553 0 
C -0.353553 0.093763 -0.316301 0.183699 -0.25 0.25 
C -0.183699 0.316301 -0.093763 0.353553 0 0.353553 
z
" style="stroke: #ff0000"/>
    </defs>
    <g clip-path="url(#p6bf72cf338)">
     <use xlink:href="#md3a2857779" x="212.531721" y="216.008157" style="fill: #ff0000; stroke: #ff0000"/>
     <use xlink:href="#md3a2857779" x="211.940734" y="216.008157" style="fill: #ff0000; stroke: #ff0000"/>
     <use xlink:href="#md3a2857779" x="211.278398" y="215.363719" style="fill: #ff0000; stroke: #ff0000"/>
     <use xlink:href="#md3a2857779" x="210.512083" y="212.814191" style="fill: #ff0000; stroke: #ff0000"/>
     <use xlink:href="#md3a2857779" x="209.646901" y="219.174056" style="fill: #ff0000; stroke: #ff0000"/>
     <use xlink:href="#md3a2857779" x="208.692015" y="211.173683" style="fill: #ff0000; stroke: #ff0000"/>
     <use xlink:href="#md3a2857779" x="207.643531" y="216.378782" style="fill: #ff0000; stroke: #ff0000"/>
     <use xlink:href="#md3a2857779" x="206.485524" y="212.040496" style="fill: #ff0000; stroke: #ff0000"/>
     <use xlink:href="#md3a2857779" x="205.191646" y="215.954344" style="fill: #ff0000; stroke: #ff0000"/>
     <use xlink:href="#md3a2857779" x="203.720881" y="213.294289" style="fill: #ff0000; stroke: #ff0000"/>
     <use xlink:href="#md3a2857779" x="202.006898" y="214.087504" style="fill: #ff0000; stroke: #ff0000"/>
     <use xlink:href="#md3a2857779" x="199.952663" y="213.775177" style="fill: #ff0000; stroke: #ff0000"/>
     <use xlink:href="#md3a2857779" x="197.554851" y="214.254483" style="fill: #ff0000; stroke: #ff0000"/>
     <use xlink:href="#md3a2857779" x="195.15704" y="214.65307" style="fill: #ff0000; stroke: #ff0000"/>
     <use xlink:href="#md3a2857779" x="192.925345" y="215.013934" style="fill: #ff0000; stroke: #ff0000"/>
     <use xlink:href="#md3a2857779" x="190.828836" y="215.312016" style="fill: #ff0000; stroke: #ff0000"/>
     <use xlink:href="#md3a2857779" x="188.823977" y="215.535446" style="fill: #ff0000; stroke: #ff0000"/>
     <use xlink:href="#md3a2857779" x="186.880982" y="215.724583" style="fill: #ff0000; stroke: #ff0000"/>
     <use xlink:href="#md3a2857779" x="184.97923" y="215.884968" style="fill: #ff0000; stroke: #ff0000"/>
     <use xlink:href="#md3a2857779" x="183.109556" y="216.014488" style="fill: #ff0000; stroke: #ff0000"/>
     <use xlink:href="#md3a2857779" x="181.262794" y="216.11552" style="fill: #ff0000; stroke: #ff0000"/>
     <use xlink:href="#md3a2857779" x="179.435508" y="216.188062" style="fill: #ff0000; stroke: #ff0000"/>
     <use xlink:href="#md3a2857779" x="177.620824" y="216.234489" style="fill: #ff0000; stroke: #ff0000"/>
     <use xlink:href="#md3a2857779" x="175.816451" y="216.257702" style="fill: #ff0000; stroke: #ff0000"/>
     <use xlink:href="#md3a2857779" x="174.018952" y="216.257702" style="fill: #ff0000; stroke: #ff0000"/>
     <use xlink:href="#md3a2857779" x="172.226035" y="216.235016" style="fill: #ff0000; stroke: #ff0000"/>
     <use xlink:href="#md3a2857779" x="170.434264" y="216.19281" style="fill: #ff0000; stroke: #ff0000"/>
     <use xlink:href="#md3a2857779" x="168.640202" y="216.131611" style="fill: #ff0000; stroke: #ff0000"/>
     <use xlink:href="#md3a2857779" x="166.844994" y="215.975184" style="fill: #ff0000; stroke: #ff0000"/>
     <use xlink:href="#md3a2857779" x="165.045203" y="215.814799" style="fill: #ff0000; stroke: #ff0000"/>
     <use xlink:href="#md3a2857779" x="163.238539" y="215.652041" style="fill: #ff0000; stroke: #ff0000"/>
     <use xlink:href="#md3a2857779" x="161.427292" y="215.482424" style="fill: #ff0000; stroke: #ff0000"/>
     <use xlink:href="#md3a2857779" x="159.60688" y="215.305158" style="fill: #ff0000; stroke: #ff0000"/>
     <use xlink:href="#md3a2857779" x="157.779594" y="215.118395" style="fill: #ff0000; stroke: #ff0000"/>
     <use xlink:href="#md3a2857779" x="155.944289" y="214.920289" style="fill: #ff0000; stroke: #ff0000"/>
     <use xlink:href="#md3a2857779" x="154.099818" y="214.709521" style="fill: #ff0000; stroke: #ff0000"/>
     <use xlink:href="#md3a2857779" x="152.247329" y="214.484508" style="fill: #ff0000; stroke: #ff0000"/>
     <use xlink:href="#md3a2857779" x="150.384528" y="214.245778" style="fill: #ff0000; stroke: #ff0000"/>
     <use xlink:href="#md3a2857779" x="148.514854" y="213.991749" style="fill: #ff0000; stroke: #ff0000"/>
     <use xlink:href="#md3a2857779" x="146.636015" y="213.720573" style="fill: #ff0000; stroke: #ff0000"/>
     <use xlink:href="#md3a2857779" x="144.74801" y="213.430404" style="fill: #ff0000; stroke: #ff0000"/>
     <use xlink:href="#md3a2857779" x="142.851986" y="213.121506" style="fill: #ff0000; stroke: #ff0000"/>
     <use xlink:href="#md3a2857779" x="140.947943" y="212.791769" style="fill: #ff0000; stroke: #ff0000"/>
     <use xlink:href="#md3a2857779" x="139.03588" y="212.441193" style="fill: #ff0000; stroke: #ff0000"/>
     <use xlink:href="#md3a2857779" x="137.115798" y="212.061072" style="fill: #ff0000; stroke: #ff0000"/>
     <use xlink:href="#md3a2857779" x="135.186551" y="211.655891" style="fill: #ff0000; stroke: #ff0000"/>
     <use xlink:href="#md3a2857779" x="133.249285" y="211.223539" style="fill: #ff0000; stroke: #ff0000"/>
     <use xlink:href="#md3a2857779" x="131.302853" y="210.760589" style="fill: #ff0000; stroke: #ff0000"/>
     <use xlink:href="#md3a2857779" x="129.349547" y="210.269412" style="fill: #ff0000; stroke: #ff0000"/>
     <use xlink:href="#md3a2857779" x="127.387077" y="209.740778" style="fill: #ff0000; stroke: #ff0000"/>
     <use xlink:href="#md3a2857779" x="125.414295" y="209.172311" style="fill: #ff0000; stroke: #ff0000"/>
     <use xlink:href="#md3a2857779" x="123.432349" y="208.568496" style="fill: #ff0000; stroke: #ff0000"/>
     <use xlink:href="#md3a2857779" x="121.440092" y="207.917727" style="fill: #ff0000; stroke: #ff0000"/>
     <use xlink:href="#md3a2857779" x="119.43867" y="207.219212" style="fill: #ff0000; stroke: #ff0000"/>
     <use xlink:href="#md3a2857779" x="117.424646" y="206.467147" style="fill: #ff0000; stroke: #ff0000"/>
     <use xlink:href="#md3a2857779" x="115.400311" y="205.662589" style="fill: #ff0000; stroke: #ff0000"/>
     <use xlink:href="#md3a2857779" x="113.363374" y="204.793401" style="fill: #ff0000; stroke: #ff0000"/>
     <use xlink:href="#md3a2857779" x="111.313836" y="203.857739" style="fill: #ff0000; stroke: #ff0000"/>
     <use xlink:href="#md3a2857779" x="109.250549" y="202.852173" style="fill: #ff0000; stroke: #ff0000"/>
     <use xlink:href="#md3a2857779" x="107.173515" y="201.767206" style="fill: #ff0000; stroke: #ff0000"/>
     <use xlink:href="#md3a2857779" x="105.081588" y="200.594924" style="fill: #ff0000; stroke: #ff0000"/>
     <use xlink:href="#md3a2857779" x="102.973622" y="199.335065" style="fill: #ff0000; stroke: #ff0000"/>
     <use xlink:href="#md3a2857779" x="100.849617" y="197.970744" style="fill: #ff0000; stroke: #ff0000"/>
     <use xlink:href="#md3a2857779" x="98.709573" y="196.499325" style="fill: #ff0000; stroke: #ff0000"/>
     <use xlink:href="#md3a2857779" x="96.547763" y="194.908673" style="fill: #ff0000; stroke: #ff0000"/>
     <use xlink:href="#md3a2857779" x="94.371058" y="193.19404" style="fill: #ff0000; stroke: #ff0000"/>
     <use xlink:href="#md3a2857779" x="92.182898" y="191.336961" style="fill: #ff0000; stroke: #ff0000"/>
     <use xlink:href="#md3a2857779" x="89.960369" y="189.332159" style="fill: #ff0000; stroke: #ff0000"/>
     <use xlink:href="#md3a2857779" x="87.726383" y="187.166445" style="fill: #ff0000; stroke: #ff0000"/>
     <use xlink:href="#md3a2857779" x="85.469484" y="184.823992" style="fill: #ff0000; stroke: #ff0000"/>
     <use xlink:href="#md3a2857779" x="83.189673" y="182.288973" style="fill: #ff0000; stroke: #ff0000"/>
     <use xlink:href="#md3a2857779" x="80.886949" y="179.548198" style="fill: #ff0000; stroke: #ff0000"/>
     <use xlink:href="#md3a2857779" x="78.561313" y="176.588478" style="fill: #ff0000; stroke: #ff0000"/>
     <use xlink:href="#md3a2857779" x="76.212764" y="173.391346" style="fill: #ff0000; stroke: #ff0000"/>
     <use xlink:href="#md3a2857779" x="73.841302" y="169.917236" style="fill: #ff0000; stroke: #ff0000"/>
     <use xlink:href="#md3a2857779" x="71.435471" y="166.171422" style="fill: #ff0000; stroke: #ff0000"/>
     <use xlink:href="#md3a2857779" x="69.018184" y="162.087957" style="fill: #ff0000; stroke: #ff0000"/>
     <use xlink:href="#md3a2857779" x="66.566528" y="157.661566" style="fill: #ff0000; stroke: #ff0000"/>
     <use xlink:href="#md3a2857779" x="64.091959" y="152.807835" style="fill: #ff0000; stroke: #ff0000"/>
     <use xlink:href="#md3a2857779" x="61.594478" y="147.503024" style="fill: #ff0000; stroke: #ff0000"/>
     <use xlink:href="#md3a2857779" x="59.108452" y="141.628427" style="fill: #ff0000; stroke: #ff0000"/>
     <use xlink:href="#md3a2857779" x="56.64534" y="135.242078" style="fill: #ff0000; stroke: #ff0000"/>
     <use xlink:href="#md3a2857779" x="54.33116" y="128.219996" style="fill: #ff0000; stroke: #ff0000"/>
     <use xlink:href="#md3a2857779" x="52.269019" y="120.97633" style="fill: #ff0000; stroke: #ff0000"/>
     <use xlink:href="#md3a2857779" x="50.527656" y="112.951847" style="fill: #ff0000; stroke: #ff0000"/>
     <use xlink:href="#md3a2857779" x="49.084157" y="105.204343" style="fill: #ff0000; stroke: #ff0000"/>
     <use xlink:href="#md3a2857779" x="47.869785" y="94.60791" style="fill: #ff0000; stroke: #ff0000"/>
     <use xlink:href="#md3a2857779" x="46.838715" y="85.042895" style="fill: #ff0000; stroke: #ff0000"/>
     <use xlink:href="#md3a2857779" x="45.933664" y="57.883106" style="fill: #ff0000; stroke: #ff0000"/>
     <use xlink:href="#md3a2857779" x="45.131721" y="20.129522" style="fill: #ff0000; stroke: #ff0000"/>
     <use xlink:href="#md3a2857779" x="212.531721" y="212.19877" style="fill: #ff0000; stroke: #ff0000"/>
     <use xlink:href="#md3a2857779" x="212.946796" y="212.19877" style="fill: #ff0000; stroke: #ff0000"/>
     <use xlink:href="#md3a2857779" x="213.451989" y="208.769504" style="fill: #ff0000; stroke: #ff0000"/>
     <use xlink:href="#md3a2857779" x="214.108871" y="201.339603" style="fill: #ff0000; stroke: #ff0000"/>
     <use xlink:href="#md3a2857779" x="214.890557" y="196.668414" style="fill: #ff0000; stroke: #ff0000"/>
     <use xlink:href="#md3a2857779" x="215.745573" y="193.961668" style="fill: #ff0000; stroke: #ff0000"/>
     <use xlink:href="#md3a2857779" x="216.658952" y="194.399559" style="fill: #ff0000; stroke: #ff0000"/>
     <use xlink:href="#md3a2857779" x="217.635128" y="194.840088" style="fill: #ff0000; stroke: #ff0000"/>
     <use xlink:href="#md3a2857779" x="218.683685" y="196.092298" style="fill: #ff0000; stroke: #ff0000"/>
     <use xlink:href="#md3a2857779" x="219.813173" y="197.155634" style="fill: #ff0000; stroke: #ff0000"/>
     <use xlink:href="#md3a2857779" x="221.028821" y="198.016644" style="fill: #ff0000; stroke: #ff0000"/>
     <use xlink:href="#md3a2857779" x="222.33229" y="198.686142" style="fill: #ff0000; stroke: #ff0000"/>
     <use xlink:href="#md3a2857779" x="223.716534" y="198.871586" style="fill: #ff0000; stroke: #ff0000"/>
     <use xlink:href="#md3a2857779" x="225.172048" y="198.581154" style="fill: #ff0000; stroke: #ff0000"/>
     <use xlink:href="#md3a2857779" x="226.687747" y="184.655167" style="fill: #ff0000; stroke: #ff0000"/>
     <use xlink:href="#md3a2857779" x="228.247793" y="179.329253" style="fill: #ff0000; stroke: #ff0000"/>
     <use xlink:href="#md3a2857779" x="229.842682" y="180.904077" style="fill: #ff0000; stroke: #ff0000"/>
     <use xlink:href="#md3a2857779" x="231.460536" y="181.637413" style="fill: #ff0000; stroke: #ff0000"/>
     <use xlink:href="#md3a2857779" x="233.093436" y="181.621585" style="fill: #ff0000; stroke: #ff0000"/>
     <use xlink:href="#md3a2857779" x="234.735047" y="180.909353" style="fill: #ff0000; stroke: #ff0000"/>
     <use xlink:href="#md3a2857779" x="236.379034" y="178.622296" style="fill: #ff0000; stroke: #ff0000"/>
     <use xlink:href="#md3a2857779" x="238.023021" y="176.554185" style="fill: #ff0000; stroke: #ff0000"/>
     <use xlink:href="#md3a2857779" x="239.662257" y="174.290869" style="fill: #ff0000; stroke: #ff0000"/>
     <use xlink:href="#md3a2857779" x="241.294365" y="172.014364" style="fill: #ff0000; stroke: #ff0000"/>
     <use xlink:href="#md3a2857779" x="242.916179" y="169.619153" style="fill: #ff0000; stroke: #ff0000"/>
     <use xlink:href="#md3a2857779" x="244.526906" y="167.060393" style="fill: #ff0000; stroke: #ff0000"/>
     <use xlink:href="#md3a2857779" x="246.124171" y="164.298515" style="fill: #ff0000; stroke: #ff0000"/>
     <use xlink:href="#md3a2857779" x="247.705598" y="161.315053" style="fill: #ff0000; stroke: #ff0000"/>
     <use xlink:href="#md3a2857779" x="249.271186" y="158.075715" style="fill: #ff0000; stroke: #ff0000"/>
     <use xlink:href="#md3a2857779" x="250.818561" y="154.577864" style="fill: #ff0000; stroke: #ff0000"/>
     <use xlink:href="#md3a2857779" x="252.346139" y="150.797757" style="fill: #ff0000; stroke: #ff0000"/>
     <use xlink:href="#md3a2857779" x="253.854711" y="146.735396" style="fill: #ff0000; stroke: #ff0000"/>
     <use xlink:href="#md3a2857779" x="255.343485" y="142.380227" style="fill: #ff0000; stroke: #ff0000"/>
     <use xlink:href="#md3a2857779" x="256.810878" y="137.74808" style="fill: #ff0000; stroke: #ff0000"/>
     <use xlink:href="#md3a2857779" x="258.259265" y="132.875884" style="fill: #ff0000; stroke: #ff0000"/>
     <use xlink:href="#md3a2857779" x="259.687855" y="127.779467" style="fill: #ff0000; stroke: #ff0000"/>
     <use xlink:href="#md3a2857779" x="261.097439" y="122.572258" style="fill: #ff0000; stroke: #ff0000"/>
     <use xlink:href="#md3a2857779" x="262.491185" y="117.296464" style="fill: #ff0000; stroke: #ff0000"/>
     <use xlink:href="#md3a2857779" x="263.870677" y="112.102444" style="fill: #ff0000; stroke: #ff0000"/>
     <use xlink:href="#md3a2857779" x="265.239083" y="107.061423" style="fill: #ff0000; stroke: #ff0000"/>
     <use xlink:href="#md3a2857779" x="266.598777" y="102.355414" style="fill: #ff0000; stroke: #ff0000"/>
     <use xlink:href="#md3a2857779" x="267.95372" y="98.074107" style="fill: #ff0000; stroke: #ff0000"/>
     <use xlink:href="#md3a2857779" x="269.307871" y="94.336207" style="fill: #ff0000; stroke: #ff0000"/>
     <use xlink:href="#md3a2857779" x="270.666774" y="91.226126" style="fill: #ff0000; stroke: #ff0000"/>
     <use xlink:href="#md3a2857779" x="272.034387" y="88.746503" style="fill: #ff0000; stroke: #ff0000"/>
     <use xlink:href="#md3a2857779" x="273.416255" y="86.910526" style="fill: #ff0000; stroke: #ff0000"/>
     <use xlink:href="#md3a2857779" x="274.817128" y="85.633784" style="fill: #ff0000; stroke: #ff0000"/>
     <use xlink:href="#md3a2857779" x="276.243342" y="84.884621" style="fill: #ff0000; stroke: #ff0000"/>
     <use xlink:href="#md3a2857779" x="277.70044" y="84.478385" style="fill: #ff0000; stroke: #ff0000"/>
     <use xlink:href="#md3a2857779" x="279.193174" y="84.351766" style="fill: #ff0000; stroke: #ff0000"/>
     <use xlink:href="#md3a2857779" x="280.728671" y="84.301646" style="fill: #ff0000; stroke: #ff0000"/>
     <use xlink:href="#md3a2857779" x="282.310889" y="84.328025" style="fill: #ff0000; stroke: #ff0000"/>
     <use xlink:href="#md3a2857779" x="283.945373" y="84.317474" style="fill: #ff0000; stroke: #ff0000"/>
     <use xlink:href="#md3a2857779" x="285.637666" y="84.193492" style="fill: #ff0000; stroke: #ff0000"/>
     <use xlink:href="#md3a2857779" x="287.392519" y="84.027305" style="fill: #ff0000; stroke: #ff0000"/>
     <use xlink:href="#md3a2857779" x="289.214684" y="83.758239" style="fill: #ff0000; stroke: #ff0000"/>
     <use xlink:href="#md3a2857779" x="291.106536" y="83.489174" style="fill: #ff0000; stroke: #ff0000"/>
     <use xlink:href="#md3a2857779" x="293.075995" y="83.272866" style="fill: #ff0000; stroke: #ff0000"/>
     <use xlink:href="#md3a2857779" x="295.111181" y="83.154161" style="fill: #ff0000; stroke: #ff0000"/>
     <use xlink:href="#md3a2857779" x="297.233476" y="83.204281" style="fill: #ff0000; stroke: #ff0000"/>
     <use xlink:href="#md3a2857779" x="299.434961" y="83.454881" style="fill: #ff0000; stroke: #ff0000"/>
     <use xlink:href="#md3a2857779" x="301.723556" y="83.853204" style="fill: #ff0000; stroke: #ff0000"/>
     <use xlink:href="#md3a2857779" x="304.083422" y="84.478385" style="fill: #ff0000; stroke: #ff0000"/>
     <use xlink:href="#md3a2857779" x="306.538315" y="85.182704" style="fill: #ff0000; stroke: #ff0000"/>
     <use xlink:href="#md3a2857779" x="309.06448" y="85.90285" style="fill: #ff0000; stroke: #ff0000"/>
     <use xlink:href="#md3a2857779" x="311.669835" y="86.636185" style="fill: #ff0000; stroke: #ff0000"/>
     <use xlink:href="#md3a2857779" x="314.35438" y="87.303573" style="fill: #ff0000; stroke: #ff0000"/>
     <use xlink:href="#md3a2857779" x="317.118116" y="87.968323" style="fill: #ff0000; stroke: #ff0000"/>
     <use xlink:href="#md3a2857779" x="319.953122" y="88.638349" style="fill: #ff0000; stroke: #ff0000"/>
     <use xlink:href="#md3a2857779" x="322.867319" y="89.479838" style="fill: #ff0000; stroke: #ff0000"/>
     <use xlink:href="#md3a2857779" x="325.844867" y="90.542911" style="fill: #ff0000; stroke: #ff0000"/>
     <use xlink:href="#md3a2857779" x="328.885768" y="91.888238" style="fill: #ff0000; stroke: #ff0000"/>
     <use xlink:href="#md3a2857779" x="331.982102" y="93.568579" style="fill: #ff0000; stroke: #ff0000"/>
     <use xlink:href="#md3a2857779" x="335.149707" y="95.478416" style="fill: #ff0000; stroke: #ff0000"/>
     <use xlink:href="#md3a2857779" x="338.372745" y="97.567631" style="fill: #ff0000; stroke: #ff0000"/>
     <use xlink:href="#md3a2857779" x="341.643297" y="99.836222" style="fill: #ff0000; stroke: #ff0000"/>
     <use xlink:href="#md3a2857779" x="344.961363" y="102.241985" style="fill: #ff0000; stroke: #ff0000"/>
     <use xlink:href="#md3a2857779" x="348.334862" y="104.861416" style="fill: #ff0000; stroke: #ff0000"/>
     <use xlink:href="#md3a2857779" x="351.747956" y="107.683966" style="fill: #ff0000; stroke: #ff0000"/>
     <use xlink:href="#md3a2857779" x="355.208565" y="110.741289" style="fill: #ff0000; stroke: #ff0000"/>
     <use xlink:href="#md3a2857779" x="358.700849" y="114.028109" style="fill: #ff0000; stroke: #ff0000"/>
     <use xlink:href="#md3a2857779" x="362.240648" y="117.663131" style="fill: #ff0000; stroke: #ff0000"/>
     <use xlink:href="#md3a2857779" x="365.796284" y="121.548754" style="fill: #ff0000; stroke: #ff0000"/>
     <use xlink:href="#md3a2857779" x="369.312325" y="125.758838" style="fill: #ff0000; stroke: #ff0000"/>
     <use xlink:href="#md3a2857779" x="372.519525" y="129.691942" style="fill: #ff0000; stroke: #ff0000"/>
     <use xlink:href="#md3a2857779" x="375.006095" y="132.875884" style="fill: #ff0000; stroke: #ff0000"/>
     <use xlink:href="#md3a2857779" x="376.772035" y="134.616896" style="fill: #ff0000; stroke: #ff0000"/>
     <use xlink:href="#md3a2857779" x="378.070753" y="135.476851" style="fill: #ff0000; stroke: #ff0000"/>
     <use xlink:href="#md3a2857779" x="379.084387" y="134.521932" style="fill: #ff0000; stroke: #ff0000"/>
     <use xlink:href="#md3a2857779" x="379.931721" y="132.506578" style="fill: #ff0000; stroke: #ff0000"/>
    </g>
   </g>
   <g id="matplotlib.axis_1">
    <g id="xtick_1">
     <g id="line2d_1">
      <defs>
       <path id="m9e39e3e914" d="M 0 0 
L 0 3.5 
" style="stroke: #000000; stroke-width: 0.8"/>
      </defs>
      <g>
       <use xlink:href="#m9e39e3e914" x="45.131721" y="231.809522" style="stroke: #000000; stroke-width: 0.8"/>
      </g>
     </g>
     <g id="text_1">
      <!-- $\mathdefault{−1.00}$ -->
      <g transform="translate(32.401642 245.907843) scale(0.1 -0.1)">
       <defs>
        <path id="CMSY10-0" d="M 4218 1472 
C 4326 1472 4442 1472 4442 1600 
C 4442 1728 4326 1728 4218 1728 
L 755 1728 
C 646 1728 531 1728 531 1600 
C 531 1472 646 1472 755 1472 
L 4218 1472 
z
" transform="scale(0.015625)"/>
        <path id="CMR17-31" d="M 1702 4083 
C 1702 4217 1696 4224 1606 4224 
C 1357 3927 979 3833 621 3820 
C 602 3820 570 3820 563 3808 
C 557 3795 557 3782 557 3648 
C 755 3648 1088 3686 1344 3839 
L 1344 467 
C 1344 243 1331 166 781 166 
L 589 166 
L 589 0 
C 896 6 1216 12 1523 12 
C 1830 12 2150 6 2458 0 
L 2458 166 
L 2266 166 
C 1715 166 1702 236 1702 467 
L 1702 4083 
z
" transform="scale(0.015625)"/>
        <path id="CMMI12-3a" d="M 1178 307 
C 1178 492 1024 620 870 620 
C 685 620 557 467 557 313 
C 557 128 710 0 864 0 
C 1050 0 1178 153 1178 307 
z
" transform="scale(0.015625)"/>
        <path id="CMR17-30" d="M 2688 2038 
C 2688 2430 2682 3099 2413 3613 
C 2176 4063 1798 4224 1466 4224 
C 1158 4224 768 4082 525 3620 
C 269 3137 243 2539 243 2038 
C 243 1671 250 1112 448 623 
C 723 -39 1216 -128 1466 -128 
C 1760 -128 2208 -7 2470 604 
C 2662 1048 2688 1568 2688 2038 
z
M 1466 -26 
C 1056 -26 813 328 723 816 
C 653 1196 653 1749 653 2109 
C 653 2604 653 3015 736 3407 
C 858 3954 1216 4121 1466 4121 
C 1728 4121 2067 3947 2189 3420 
C 2272 3054 2278 2623 2278 2109 
C 2278 1691 2278 1176 2202 797 
C 2067 96 1690 -26 1466 -26 
z
" transform="scale(0.015625)"/>
       </defs>
       <use xlink:href="#CMSY10-0" transform="scale(0.996264)"/>
       <use xlink:href="#CMR17-31" transform="translate(77.487468 0) scale(0.996264)"/>
       <use xlink:href="#CMMI12-3a" transform="translate(123.177945 0) scale(0.996264)"/>
       <use xlink:href="#CMR17-30" transform="translate(150.275122 0) scale(0.996264)"/>
       <use xlink:href="#CMR17-30" transform="translate(195.965599 0) scale(0.996264)"/>
      </g>
     </g>
    </g>
    <g id="xtick_2">
     <g id="line2d_2">
      <g>
       <use xlink:href="#m9e39e3e914" x="86.981721" y="231.809522" style="stroke: #000000; stroke-width: 0.8"/>
      </g>
     </g>
     <g id="text_2">
      <!-- $\mathdefault{−0.75}$ -->
      <g transform="translate(74.251642 245.907843) scale(0.1 -0.1)">
       <defs>
        <path id="CMR17-37" d="M 2886 3955 
L 2886 4096 
L 1382 4096 
C 634 4096 621 4166 595 4288 
L 480 4288 
L 294 3104 
L 410 3104 
C 429 3226 474 3552 550 3673 
C 589 3724 1062 3724 1171 3724 
L 2579 3724 
L 1869 2670 
C 1395 1961 1069 1003 1069 166 
C 1069 89 1069 -128 1299 -128 
C 1530 -128 1530 89 1530 172 
L 1530 466 
C 1530 1514 1709 2204 2003 2644 
L 2886 3955 
z
" transform="scale(0.015625)"/>
        <path id="CMR17-35" d="M 730 3750 
C 794 3724 1056 3641 1325 3641 
C 1920 3641 2246 3961 2432 4140 
C 2432 4191 2432 4224 2394 4224 
C 2387 4224 2374 4224 2323 4198 
C 2099 4102 1837 4032 1517 4032 
C 1325 4032 1037 4055 723 4191 
C 653 4224 640 4224 634 4224 
C 602 4224 595 4217 595 4090 
L 595 2231 
C 595 2113 595 2080 659 2080 
C 691 2080 704 2093 736 2139 
C 941 2435 1222 2560 1542 2560 
C 1766 2560 2246 2415 2246 1293 
C 2246 1087 2246 716 2054 422 
C 1894 159 1645 25 1370 25 
C 947 25 518 319 403 812 
C 429 806 480 793 506 793 
C 589 793 749 838 749 1036 
C 749 1209 627 1280 506 1280 
C 358 1280 262 1190 262 1011 
C 262 454 704 -128 1382 -128 
C 2042 -128 2669 441 2669 1267 
C 2669 2054 2170 2662 1549 2662 
C 1222 2662 947 2540 730 2304 
L 730 3750 
z
" transform="scale(0.015625)"/>
       </defs>
       <use xlink:href="#CMSY10-0" transform="scale(0.996264)"/>
       <use xlink:href="#CMR17-30" transform="translate(77.487468 0) scale(0.996264)"/>
       <use xlink:href="#CMMI12-3a" transform="translate(123.177945 0) scale(0.996264)"/>
       <use xlink:href="#CMR17-37" transform="translate(150.275122 0) scale(0.996264)"/>
       <use xlink:href="#CMR17-35" transform="translate(195.965599 0) scale(0.996264)"/>
      </g>
     </g>
    </g>
    <g id="xtick_3">
     <g id="line2d_3">
      <g>
       <use xlink:href="#m9e39e3e914" x="128.831721" y="231.809522" style="stroke: #000000; stroke-width: 0.8"/>
      </g>
     </g>
     <g id="text_3">
      <!-- $\mathdefault{−0.50}$ -->
      <g transform="translate(116.101642 245.907843) scale(0.1 -0.1)">
       <use xlink:href="#CMSY10-0" transform="scale(0.996264)"/>
       <use xlink:href="#CMR17-30" transform="translate(77.487468 0) scale(0.996264)"/>
       <use xlink:href="#CMMI12-3a" transform="translate(123.177945 0) scale(0.996264)"/>
       <use xlink:href="#CMR17-35" transform="translate(150.275122 0) scale(0.996264)"/>
       <use xlink:href="#CMR17-30" transform="translate(195.965599 0) scale(0.996264)"/>
      </g>
     </g>
    </g>
    <g id="xtick_4">
     <g id="line2d_4">
      <g>
       <use xlink:href="#m9e39e3e914" x="170.681721" y="231.809522" style="stroke: #000000; stroke-width: 0.8"/>
      </g>
     </g>
     <g id="text_4">
      <!-- $\mathdefault{−0.25}$ -->
      <g transform="translate(157.951642 245.907843) scale(0.1 -0.1)">
       <defs>
        <path id="CMR17-32" d="M 2669 990 
L 2554 990 
C 2490 537 2438 460 2413 422 
C 2381 371 1920 371 1830 371 
L 602 371 
C 832 620 1280 1073 1824 1596 
C 2214 1966 2669 2400 2669 3033 
C 2669 3788 2067 4224 1395 4224 
C 691 4224 262 3603 262 3027 
C 262 2777 448 2745 525 2745 
C 589 2745 781 2783 781 3007 
C 781 3206 614 3264 525 3264 
C 486 3264 448 3257 422 3244 
C 544 3788 915 4057 1306 4057 
C 1862 4057 2227 3616 2227 3033 
C 2227 2477 1901 1998 1536 1583 
L 262 147 
L 262 0 
L 2515 0 
L 2669 990 
z
" transform="scale(0.015625)"/>
       </defs>
       <use xlink:href="#CMSY10-0" transform="scale(0.996264)"/>
       <use xlink:href="#CMR17-30" transform="translate(77.487468 0) scale(0.996264)"/>
       <use xlink:href="#CMMI12-3a" transform="translate(123.177945 0) scale(0.996264)"/>
       <use xlink:href="#CMR17-32" transform="translate(150.275122 0) scale(0.996264)"/>
       <use xlink:href="#CMR17-35" transform="translate(195.965599 0) scale(0.996264)"/>
      </g>
     </g>
    </g>
    <g id="xtick_5">
     <g id="line2d_5">
      <g>
       <use xlink:href="#m9e39e3e914" x="212.531721" y="231.809522" style="stroke: #000000; stroke-width: 0.8"/>
      </g>
     </g>
     <g id="text_5">
      <!-- $\mathdefault{0.00}$ -->
      <g transform="translate(203.676014 245.907843) scale(0.1 -0.1)">
       <use xlink:href="#CMR17-30" transform="scale(0.996264)"/>
       <use xlink:href="#CMMI12-3a" transform="translate(45.690477 0) scale(0.996264)"/>
       <use xlink:href="#CMR17-30" transform="translate(72.787654 0) scale(0.996264)"/>
       <use xlink:href="#CMR17-30" transform="translate(118.478131 0) scale(0.996264)"/>
      </g>
     </g>
    </g>
    <g id="xtick_6">
     <g id="line2d_6">
      <g>
       <use xlink:href="#m9e39e3e914" x="254.381721" y="231.809522" style="stroke: #000000; stroke-width: 0.8"/>
      </g>
     </g>
     <g id="text_6">
      <!-- $\mathdefault{0.25}$ -->
      <g transform="translate(245.526014 245.907843) scale(0.1 -0.1)">
       <use xlink:href="#CMR17-30" transform="scale(0.996264)"/>
       <use xlink:href="#CMMI12-3a" transform="translate(45.690477 0) scale(0.996264)"/>
       <use xlink:href="#CMR17-32" transform="translate(72.787654 0) scale(0.996264)"/>
       <use xlink:href="#CMR17-35" transform="translate(118.478131 0) scale(0.996264)"/>
      </g>
     </g>
    </g>
    <g id="xtick_7">
     <g id="line2d_7">
      <g>
       <use xlink:href="#m9e39e3e914" x="296.231721" y="231.809522" style="stroke: #000000; stroke-width: 0.8"/>
      </g>
     </g>
     <g id="text_7">
      <!-- $\mathdefault{0.50}$ -->
      <g transform="translate(287.376014 245.907843) scale(0.1 -0.1)">
       <use xlink:href="#CMR17-30" transform="scale(0.996264)"/>
       <use xlink:href="#CMMI12-3a" transform="translate(45.690477 0) scale(0.996264)"/>
       <use xlink:href="#CMR17-35" transform="translate(72.787654 0) scale(0.996264)"/>
       <use xlink:href="#CMR17-30" transform="translate(118.478131 0) scale(0.996264)"/>
      </g>
     </g>
    </g>
    <g id="xtick_8">
     <g id="line2d_8">
      <g>
       <use xlink:href="#m9e39e3e914" x="338.081721" y="231.809522" style="stroke: #000000; stroke-width: 0.8"/>
      </g>
     </g>
     <g id="text_8">
      <!-- $\mathdefault{0.75}$ -->
      <g transform="translate(329.226014 245.907843) scale(0.1 -0.1)">
       <use xlink:href="#CMR17-30" transform="scale(0.996264)"/>
       <use xlink:href="#CMMI12-3a" transform="translate(45.690477 0) scale(0.996264)"/>
       <use xlink:href="#CMR17-37" transform="translate(72.787654 0) scale(0.996264)"/>
       <use xlink:href="#CMR17-35" transform="translate(118.478131 0) scale(0.996264)"/>
      </g>
     </g>
    </g>
    <g id="xtick_9">
     <g id="line2d_9">
      <g>
       <use xlink:href="#m9e39e3e914" x="379.931721" y="231.809522" style="stroke: #000000; stroke-width: 0.8"/>
      </g>
     </g>
     <g id="text_9">
      <!-- $\mathdefault{1.00}$ -->
      <g transform="translate(371.076014 245.907843) scale(0.1 -0.1)">
       <use xlink:href="#CMR17-31" transform="scale(0.996264)"/>
       <use xlink:href="#CMMI12-3a" transform="translate(45.690477 0) scale(0.996264)"/>
       <use xlink:href="#CMR17-30" transform="translate(72.787654 0) scale(0.996264)"/>
       <use xlink:href="#CMR17-30" transform="translate(118.478131 0) scale(0.996264)"/>
      </g>
     </g>
    </g>
    <g id="text_10">
     <!-- S/S_{total} -->
     <g transform="translate(193.294177 259.128149) scale(0.1 -0.1)">
      <defs>
       <path id="NimbusSanL-Regu-53" d="M 3814 3295 
C 3808 4204 3181 4736 2106 4736 
C 1082 4736 448 4211 448 3372 
C 448 2806 749 2450 1363 2291 
L 2522 1986 
C 3110 1833 3379 1598 3379 1236 
C 3379 988 3245 733 3046 593 
C 2861 466 2566 396 2189 396 
C 1683 396 1338 517 1114 784 
C 941 988 864 1210 870 1496 
L 307 1496 
C 314 1070 397 790 582 536 
C 902 102 1440 -128 2150 -128 
C 2707 -128 3162 0 3462 230 
C 3776 479 3974 892 3974 1293 
C 3974 1865 3616 2284 2982 2456 
L 1811 2768 
C 1248 2920 1043 3098 1043 3454 
C 1043 3925 1459 4236 2086 4236 
C 2829 4236 3245 3899 3251 3295 
L 3814 3295 
z
" transform="scale(0.015625)"/>
       <path id="NimbusSanL-Regu-2f" d="M 1466 4672 
L -51 -128 
L 301 -128 
L 1818 4672 
L 1466 4672 
z
" transform="scale(0.015625)"/>
       <path id="NimbusSanL-Regu-74" d="M 1626 3328 
L 1075 3328 
L 1075 4249 
L 544 4249 
L 544 3328 
L 90 3328 
L 90 2892 
L 544 2892 
L 544 402 
C 544 64 774 -128 1190 -128 
C 1318 -128 1446 -116 1626 -84 
L 1626 364 
C 1555 345 1472 339 1370 339 
C 1139 339 1075 402 1075 634 
L 1075 2892 
L 1626 2892 
L 1626 3328 
z
" transform="scale(0.015625)"/>
       <path id="NimbusSanL-Regu-6f" d="M 1741 3456 
C 800 3456 230 2784 230 1663 
C 230 543 794 -128 1747 -128 
C 2688 -128 3264 543 3264 1638 
C 3264 2791 2707 3456 1741 3456 
z
M 1747 2963 
C 2349 2963 2707 2472 2707 1644 
C 2707 861 2336 364 1747 364 
C 1152 364 787 855 787 1663 
C 787 2466 1152 2963 1747 2963 
z
" transform="scale(0.015625)"/>
       <path id="NimbusSanL-Regu-61" d="M 3424 332 
C 3366 320 3341 320 3309 320 
C 3123 320 3021 415 3021 581 
L 3021 2542 
C 3021 3135 2586 3456 1760 3456 
C 1274 3456 870 3315 646 3065 
C 493 2893 429 2702 416 2370 
L 954 2370 
C 998 2778 1242 2963 1741 2963 
C 2221 2963 2490 2784 2490 2466 
L 2490 2326 
C 2490 2103 2355 2007 1933 1956 
C 1178 1861 1062 1835 858 1753 
C 467 1593 269 1294 269 861 
C 269 256 691 -128 1370 -128 
C 1792 -128 2131 19 2509 364 
C 2547 25 2714 -128 3059 -128 
C 3168 -128 3251 -116 3424 -71 
L 3424 332 
z
M 2490 1071 
C 2490 893 2438 785 2278 638 
C 2061 441 1798 339 1485 339 
C 1069 339 826 536 826 874 
C 826 1224 1062 1402 1632 1485 
C 2195 1562 2310 1587 2490 1670 
L 2490 1071 
z
" transform="scale(0.015625)"/>
       <path id="NimbusSanL-Regu-6c" d="M 973 4672 
L 435 4672 
L 435 0 
L 973 0 
L 973 4672 
z
" transform="scale(0.015625)"/>
      </defs>
      <use xlink:href="#NimbusSanL-Regu-53" transform="scale(0.996264)"/>
      <use xlink:href="#NimbusSanL-Regu-2f" transform="translate(66.450031 0) scale(0.996264)"/>
      <use xlink:href="#NimbusSanL-Regu-53" transform="translate(94.145201 0) scale(0.996264)"/>
      <use xlink:href="#NimbusSanL-Regu-74" transform="translate(196.460797 0) scale(0.996264)"/>
      <use xlink:href="#NimbusSanL-Regu-6f" transform="translate(224.155967 0) scale(0.996264)"/>
      <use xlink:href="#NimbusSanL-Regu-74" transform="translate(279.547644 0) scale(0.996264)"/>
      <use xlink:href="#NimbusSanL-Regu-61" transform="translate(307.242813 0) scale(0.996264)"/>
      <use xlink:href="#NimbusSanL-Regu-6c" transform="translate(362.63449 0) scale(0.996264)"/>
      <path d="M 166.572573 0 
L 196.460797 0 
L 196.460797 0.3985 
L 166.572573 0.3985 
L 166.572573 0 
z
"/>
     </g>
    </g>
   </g>
   <g id="matplotlib.axis_2">
    <g id="ytick_1">
     <g id="line2d_10">
      <defs>
       <path id="m291b3c6de7" d="M 0 0 
L -3.5 0 
" style="stroke: #000000; stroke-width: 0.8"/>
      </defs>
      <g>
       <use xlink:href="#m291b3c6de7" x="45.131721" y="221.780931" style="stroke: #000000; stroke-width: 0.8"/>
      </g>
     </g>
     <g id="text_11">
      <!-- $\mathdefault{0.00}$ -->
      <g transform="translate(20.420307 225.330092) scale(0.1 -0.1)">
       <use xlink:href="#CMR17-30" transform="scale(0.996264)"/>
       <use xlink:href="#CMMI12-3a" transform="translate(45.690477 0) scale(0.996264)"/>
       <use xlink:href="#CMR17-30" transform="translate(72.787654 0) scale(0.996264)"/>
       <use xlink:href="#CMR17-30" transform="translate(118.478131 0) scale(0.996264)"/>
      </g>
     </g>
    </g>
    <g id="ytick_2">
     <g id="line2d_11">
      <g>
       <use xlink:href="#m291b3c6de7" x="45.131721" y="195.40196" style="stroke: #000000; stroke-width: 0.8"/>
      </g>
     </g>
     <g id="text_12">
      <!-- $\mathdefault{0.01}$ -->
      <g transform="translate(20.420307 198.95112) scale(0.1 -0.1)">
       <use xlink:href="#CMR17-30" transform="scale(0.996264)"/>
       <use xlink:href="#CMMI12-3a" transform="translate(45.690477 0) scale(0.996264)"/>
       <use xlink:href="#CMR17-30" transform="translate(72.787654 0) scale(0.996264)"/>
       <use xlink:href="#CMR17-31" transform="translate(118.478131 0) scale(0.996264)"/>
      </g>
     </g>
    </g>
    <g id="ytick_3">
     <g id="line2d_12">
      <g>
       <use xlink:href="#m291b3c6de7" x="45.131721" y="169.022989" style="stroke: #000000; stroke-width: 0.8"/>
      </g>
     </g>
     <g id="text_13">
      <!-- $\mathdefault{0.02}$ -->
      <g transform="translate(20.420307 172.572149) scale(0.1 -0.1)">
       <use xlink:href="#CMR17-30" transform="scale(0.996264)"/>
       <use xlink:href="#CMMI12-3a" transform="translate(45.690477 0) scale(0.996264)"/>
       <use xlink:href="#CMR17-30" transform="translate(72.787654 0) scale(0.996264)"/>
       <use xlink:href="#CMR17-32" transform="translate(118.478131 0) scale(0.996264)"/>
      </g>
     </g>
    </g>
    <g id="ytick_4">
     <g id="line2d_13">
      <g>
       <use xlink:href="#m291b3c6de7" x="45.131721" y="142.644017" style="stroke: #000000; stroke-width: 0.8"/>
      </g>
     </g>
     <g id="text_14">
      <!-- $\mathdefault{0.03}$ -->
      <g transform="translate(20.420307 146.193177) scale(0.1 -0.1)">
       <defs>
        <path id="CMR17-33" d="M 1414 2176 
C 1984 2176 2234 1673 2234 1094 
C 2234 322 1824 25 1453 25 
C 1114 25 563 193 390 691 
C 422 678 454 678 486 678 
C 640 678 755 780 755 947 
C 755 1132 614 1216 486 1216 
C 378 1216 211 1164 211 927 
C 211 335 787 -128 1466 -128 
C 2176 -128 2720 432 2720 1087 
C 2720 1718 2208 2176 1600 2246 
C 2086 2347 2554 2776 2554 3353 
C 2554 3856 2048 4224 1472 4224 
C 890 4224 378 3862 378 3347 
C 378 3123 544 3084 627 3084 
C 762 3084 877 3167 877 3334 
C 877 3500 762 3584 627 3584 
C 602 3584 570 3584 544 3571 
C 730 3999 1235 4076 1459 4076 
C 1683 4076 2106 3966 2106 3347 
C 2106 3167 2080 2851 1862 2574 
C 1670 2329 1453 2316 1242 2297 
C 1210 2297 1062 2284 1037 2284 
C 992 2278 966 2272 966 2227 
C 966 2182 973 2176 1101 2176 
L 1414 2176 
z
" transform="scale(0.015625)"/>
       </defs>
       <use xlink:href="#CMR17-30" transform="scale(0.996264)"/>
       <use xlink:href="#CMMI12-3a" transform="translate(45.690477 0) scale(0.996264)"/>
       <use xlink:href="#CMR17-30" transform="translate(72.787654 0) scale(0.996264)"/>
       <use xlink:href="#CMR17-33" transform="translate(118.478131 0) scale(0.996264)"/>
      </g>
     </g>
    </g>
    <g id="ytick_5">
     <g id="line2d_14">
      <g>
       <use xlink:href="#m291b3c6de7" x="45.131721" y="116.265046" style="stroke: #000000; stroke-width: 0.8"/>
      </g>
     </g>
     <g id="text_15">
      <!-- $\mathdefault{0.04}$ -->
      <g transform="translate(20.420307 119.814206) scale(0.1 -0.1)">
       <defs>
        <path id="CMR17-34" d="M 2150 4147 
C 2150 4281 2144 4288 2029 4288 
L 128 1254 
L 128 1088 
L 1779 1088 
L 1779 460 
C 1779 230 1766 166 1318 166 
L 1197 166 
L 1197 0 
C 1402 12 1747 12 1965 12 
C 2182 12 2528 12 2733 0 
L 2733 166 
L 2611 166 
C 2163 166 2150 230 2150 460 
L 2150 1088 
L 2803 1088 
L 2803 1254 
L 2150 1254 
L 2150 4147 
z
M 1798 3723 
L 1798 1254 
L 256 1254 
L 1798 3723 
z
" transform="scale(0.015625)"/>
       </defs>
       <use xlink:href="#CMR17-30" transform="scale(0.996264)"/>
       <use xlink:href="#CMMI12-3a" transform="translate(45.690477 0) scale(0.996264)"/>
       <use xlink:href="#CMR17-30" transform="translate(72.787654 0) scale(0.996264)"/>
       <use xlink:href="#CMR17-34" transform="translate(118.478131 0) scale(0.996264)"/>
      </g>
     </g>
    </g>
    <g id="ytick_6">
     <g id="line2d_15">
      <g>
       <use xlink:href="#m291b3c6de7" x="45.131721" y="89.886074" style="stroke: #000000; stroke-width: 0.8"/>
      </g>
     </g>
     <g id="text_16">
      <!-- $\mathdefault{0.05}$ -->
      <g transform="translate(20.420307 93.435234) scale(0.1 -0.1)">
       <use xlink:href="#CMR17-30" transform="scale(0.996264)"/>
       <use xlink:href="#CMMI12-3a" transform="translate(45.690477 0) scale(0.996264)"/>
       <use xlink:href="#CMR17-30" transform="translate(72.787654 0) scale(0.996264)"/>
       <use xlink:href="#CMR17-35" transform="translate(118.478131 0) scale(0.996264)"/>
      </g>
     </g>
    </g>
    <g id="ytick_7">
     <g id="line2d_16">
      <g>
       <use xlink:href="#m291b3c6de7" x="45.131721" y="63.507103" style="stroke: #000000; stroke-width: 0.8"/>
      </g>
     </g>
     <g id="text_17">
      <!-- $\mathdefault{0.06}$ -->
      <g transform="translate(20.420307 67.056263) scale(0.1 -0.1)">
       <defs>
        <path id="CMR17-36" d="M 678 2198 
C 678 3712 1395 4076 1811 4076 
C 1946 4076 2272 4049 2400 3782 
C 2298 3782 2106 3782 2106 3558 
C 2106 3385 2246 3328 2336 3328 
C 2394 3328 2566 3353 2566 3571 
C 2566 3987 2246 4224 1805 4224 
C 1043 4224 243 3411 243 2011 
C 243 257 966 -128 1478 -128 
C 2099 -128 2688 431 2688 1295 
C 2688 2101 2170 2688 1517 2688 
C 1126 2688 838 2430 678 1979 
L 678 2198 
z
M 1478 25 
C 691 25 691 1212 691 1450 
C 691 1914 909 2585 1504 2585 
C 1613 2585 1926 2585 2138 2140 
C 2253 1889 2253 1624 2253 1302 
C 2253 954 2253 696 2118 438 
C 1978 173 1773 25 1478 25 
z
" transform="scale(0.015625)"/>
       </defs>
       <use xlink:href="#CMR17-30" transform="scale(0.996264)"/>
       <use xlink:href="#CMMI12-3a" transform="translate(45.690477 0) scale(0.996264)"/>
       <use xlink:href="#CMR17-30" transform="translate(72.787654 0) scale(0.996264)"/>
       <use xlink:href="#CMR17-36" transform="translate(118.478131 0) scale(0.996264)"/>
      </g>
     </g>
    </g>
    <g id="ytick_8">
     <g id="line2d_17">
      <g>
       <use xlink:href="#m291b3c6de7" x="45.131721" y="37.128132" style="stroke: #000000; stroke-width: 0.8"/>
      </g>
     </g>
     <g id="text_18">
      <!-- $\mathdefault{0.07}$ -->
      <g transform="translate(20.420307 40.677292) scale(0.1 -0.1)">
       <use xlink:href="#CMR17-30" transform="scale(0.996264)"/>
       <use xlink:href="#CMMI12-3a" transform="translate(45.690477 0) scale(0.996264)"/>
       <use xlink:href="#CMR17-30" transform="translate(72.787654 0) scale(0.996264)"/>
       <use xlink:href="#CMR17-37" transform="translate(118.478131 0) scale(0.996264)"/>
      </g>
     </g>
    </g>
    <g id="ytick_9">
     <g id="line2d_18">
      <g>
       <use xlink:href="#m291b3c6de7" x="45.131721" y="10.74916" style="stroke: #000000; stroke-width: 0.8"/>
      </g>
     </g>
     <g id="text_19">
      <!-- $\mathdefault{0.08}$ -->
      <g transform="translate(20.420307 14.29832) scale(0.1 -0.1)">
       <defs>
        <path id="CMR17-38" d="M 1741 2289 
C 2144 2494 2554 2803 2554 3298 
C 2554 3884 1990 4224 1472 4224 
C 890 4224 378 3800 378 3215 
C 378 3054 416 2777 666 2533 
C 730 2469 998 2276 1171 2154 
C 883 2006 211 1652 211 945 
C 211 282 838 -128 1459 -128 
C 2144 -128 2720 366 2720 1022 
C 2720 1607 2330 1877 2074 2051 
L 1741 2289 
z
M 902 2855 
C 851 2887 595 3086 595 3388 
C 595 3781 998 4076 1459 4076 
C 1965 4076 2336 3716 2336 3298 
C 2336 2700 1670 2359 1638 2359 
C 1632 2359 1626 2359 1574 2398 
L 902 2855 
z
M 2080 1536 
C 2176 1466 2483 1253 2483 861 
C 2483 385 2010 25 1472 25 
C 890 25 448 443 448 951 
C 448 1459 838 1884 1280 2083 
L 2080 1536 
z
" transform="scale(0.015625)"/>
       </defs>
       <use xlink:href="#CMR17-30" transform="scale(0.996264)"/>
       <use xlink:href="#CMMI12-3a" transform="translate(45.690477 0) scale(0.996264)"/>
       <use xlink:href="#CMR17-30" transform="translate(72.787654 0) scale(0.996264)"/>
       <use xlink:href="#CMR17-38" transform="translate(118.478131 0) scale(0.996264)"/>
      </g>
     </g>
    </g>
    <g id="text_20">
     <!-- Skin Friction Coefficient - Blade_18 -->
     <g transform="translate(14.29832 197.59601) rotate(-90) scale(0.1 -0.1)">
      <defs>
       <path id="NimbusSanL-Regu-6b" d="M 902 4672 
L 371 4672 
L 371 0 
L 902 0 
L 902 1307 
L 1421 1820 
L 2554 0 
L 3213 0 
L 1843 2198 
L 3008 3358 
L 2323 3358 
L 902 1935 
L 902 4672 
z
" transform="scale(0.015625)"/>
       <path id="NimbusSanL-Regu-69" d="M 960 3358 
L 429 3358 
L 429 0 
L 960 0 
L 960 3358 
z
M 960 4672 
L 422 4672 
L 422 3999 
L 960 3999 
L 960 4672 
z
" transform="scale(0.015625)"/>
       <path id="NimbusSanL-Regu-6e" d="M 448 3328 
L 448 0 
L 986 0 
L 986 1835 
C 986 2539 1344 2988 1894 2988 
C 2317 2988 2586 2732 2586 2328 
L 2586 0 
L 3117 0 
L 3117 2539 
C 3117 3097 2701 3456 2054 3456 
C 1555 3456 1235 3263 941 2796 
L 941 3328 
L 448 3328 
z
" transform="scale(0.015625)"/>
       <path id="NimbusSanL-Regu-46" d="M 1171 2112 
L 3398 2112 
L 3398 2636 
L 1171 2636 
L 1171 4147 
L 3706 4147 
L 3706 4672 
L 576 4672 
L 576 0 
L 1171 0 
L 1171 2112 
z
" transform="scale(0.015625)"/>
       <path id="NimbusSanL-Regu-72" d="M 442 3328 
L 442 0 
L 979 0 
L 979 1727 
C 979 2203 1101 2514 1357 2698 
C 1523 2819 1683 2857 2054 2863 
L 2054 3404 
C 1965 3449 1920 3456 1850 3456 
C 1504 3456 1242 3251 934 2750 
L 934 3328 
L 442 3328 
z
" transform="scale(0.015625)"/>
       <path id="NimbusSanL-Regu-63" d="M 3014 2237 
C 2989 2561 2918 2771 2790 2956 
C 2560 3270 2157 3456 1690 3456 
C 787 3456 198 2740 198 1632 
C 198 555 774 -128 1683 -128 
C 2483 -128 2989 352 3053 1167 
L 2515 1167 
C 2426 632 2150 364 1696 364 
C 1107 364 755 842 755 1632 
C 755 2466 1101 2963 1683 2963 
C 2131 2963 2413 2701 2477 2237 
L 3014 2237 
z
" transform="scale(0.015625)"/>
       <path id="NimbusSanL-Regu-43" d="M 4237 3219 
C 4051 4236 3462 4736 2438 4736 
C 1811 4736 1306 4537 960 4154 
C 538 3696 307 3035 307 2284 
C 307 1522 544 867 986 415 
C 1344 44 1805 -128 2413 -128 
C 3552 -128 4192 485 4333 1712 
L 3718 1712 
C 3667 1394 3603 1178 3507 994 
C 3315 612 2918 396 2419 396 
C 1491 396 902 1134 902 2291 
C 902 3480 1466 4211 2368 4211 
C 2746 4211 3098 4096 3290 3918 
C 3462 3759 3558 3562 3629 3219 
L 4237 3219 
z
" transform="scale(0.015625)"/>
       <path id="NimbusSanL-Regu-65" d="M 3283 1484 
C 3283 1998 3245 2311 3149 2565 
C 2931 3123 2419 3456 1792 3456 
C 858 3456 256 2734 256 1619 
C 256 545 838 -128 1779 -128 
C 2547 -128 3078 307 3213 1018 
L 2675 1018 
C 2528 588 2227 364 1798 364 
C 1459 364 1171 514 992 787 
C 864 974 819 1161 813 1484 
L 3283 1484 
z
M 826 1920 
C 870 2552 1248 2963 1786 2963 
C 2310 2963 2714 2519 2714 1959 
C 2714 1946 2714 1933 2707 1920 
L 826 1920 
z
" transform="scale(0.015625)"/>
       <path id="NimbusSanL-Regu-66" d="M 1651 3328 
L 1094 3328 
L 1094 3860 
C 1094 4087 1222 4204 1466 4204 
C 1510 4204 1530 4204 1651 4198 
L 1651 4639 
C 1530 4665 1459 4672 1350 4672 
C 858 4672 563 4390 563 3905 
L 563 3328 
L 115 3328 
L 115 2892 
L 563 2892 
L 563 0 
L 1094 0 
L 1094 2892 
L 1651 2892 
L 1651 3328 
z
" transform="scale(0.015625)"/>
       <path id="NimbusSanL-Regu-2" d="M 1613 3328 
L 1056 3328 
L 1056 3860 
C 1056 4087 1184 4204 1427 4204 
C 1472 4204 1491 4204 1613 4198 
L 1613 4639 
C 1491 4665 1421 4672 1312 4672 
C 819 4672 525 4390 525 3905 
L 525 3328 
L 77 3328 
L 77 2892 
L 525 2892 
L 525 0 
L 1056 0 
L 1056 2892 
L 1613 2892 
L 1613 3328 
z
M 2790 3328 
L 2259 3328 
L 2259 0 
L 2790 0 
L 2790 3328 
z
M 2790 4672 
L 2259 4672 
L 2259 3999 
L 2790 3999 
L 2790 4672 
z
" transform="scale(0.015625)"/>
       <path id="NimbusSanL-Regu-2d" d="M 1818 1996 
L 294 1996 
L 294 1536 
L 1818 1536 
L 1818 1996 
z
" transform="scale(0.015625)"/>
       <path id="NimbusSanL-Regu-42" d="M 506 0 
L 2611 0 
C 3053 0 3379 121 3629 390 
C 3859 632 3987 961 3987 1321 
C 3987 1878 3731 2214 3136 2444 
C 3558 2643 3782 2994 3782 3476 
C 3782 3821 3654 4127 3411 4345 
C 3168 4569 2848 4672 2400 4672 
L 506 4672 
L 506 0 
z
M 1101 2636 
L 1101 4147 
L 2253 4147 
C 2586 4147 2771 4101 2931 3977 
C 3098 3847 3187 3652 3187 3391 
C 3187 3138 3098 2936 2931 2806 
C 2771 2682 2586 2636 2253 2636 
L 1101 2636 
z
M 1101 524 
L 1101 2112 
L 2554 2112 
C 2842 2112 3034 2042 3174 1890 
C 3315 1745 3392 1542 3392 1315 
C 3392 1093 3315 891 3174 746 
C 3034 594 2842 524 2554 524 
L 1101 524 
z
" transform="scale(0.015625)"/>
       <path id="NimbusSanL-Regu-64" d="M 3168 4672 
L 2637 4672 
L 2637 2937 
C 2413 3276 2054 3456 1606 3456 
C 736 3456 166 2759 166 1695 
C 166 568 723 -128 1626 -128 
C 2086 -128 2406 44 2694 460 
L 2694 19 
L 3168 19 
L 3168 4672 
z
M 1696 2956 
C 2272 2956 2637 2447 2637 1651 
C 2637 880 2266 371 1702 371 
C 1114 371 723 887 723 1663 
C 723 2440 1114 2956 1696 2956 
z
" transform="scale(0.015625)"/>
       <path id="NimbusSanL-Regu-31" d="M 1658 3232 
L 1658 0 
L 2221 0 
L 2221 4537 
L 1850 4537 
C 1651 3840 1523 3744 653 3635 
L 653 3232 
L 1658 3232 
z
" transform="scale(0.015625)"/>
       <path id="NimbusSanL-Regu-38" d="M 2502 2399 
C 2970 2681 3123 2910 3123 3337 
C 3123 4044 2566 4544 1760 4544 
C 960 4544 397 4044 397 3337 
C 397 2917 550 2687 1011 2399 
C 493 2150 237 1774 237 1276 
C 237 447 864 -128 1760 -128 
C 2656 -128 3283 447 3283 1270 
C 3283 1774 3027 2150 2502 2399 
z
M 1760 4044 
C 2240 4044 2547 3764 2547 3324 
C 2547 2904 2234 2624 1760 2624 
C 1286 2624 973 2904 973 3331 
C 973 3764 1286 4044 1760 4044 
z
M 1760 2150 
C 2323 2150 2707 1793 2707 1264 
C 2707 728 2323 371 1747 371 
C 1197 371 813 734 813 1264 
C 813 1793 1197 2150 1760 2150 
z
" transform="scale(0.015625)"/>
      </defs>
      <use xlink:href="#NimbusSanL-Regu-53" transform="scale(0.996264)"/>
      <use xlink:href="#NimbusSanL-Regu-6b" transform="translate(66.450031 0) scale(0.996264)"/>
      <use xlink:href="#NimbusSanL-Regu-69" transform="translate(116.263232 0) scale(0.996264)"/>
      <use xlink:href="#NimbusSanL-Regu-6e" transform="translate(138.380016 0) scale(0.996264)"/>
      <use xlink:href="#NimbusSanL-Regu-46" transform="translate(221.466863 0) scale(0.996264)"/>
      <use xlink:href="#NimbusSanL-Regu-72" transform="translate(277.855761 0) scale(0.996264)"/>
      <use xlink:href="#NimbusSanL-Regu-69" transform="translate(312.524368 0) scale(0.996264)"/>
      <use xlink:href="#NimbusSanL-Regu-63" transform="translate(334.641153 0) scale(0.996264)"/>
      <use xlink:href="#NimbusSanL-Regu-74" transform="translate(384.454353 0) scale(0.996264)"/>
      <use xlink:href="#NimbusSanL-Regu-69" transform="translate(412.149523 0) scale(0.996264)"/>
      <use xlink:href="#NimbusSanL-Regu-6f" transform="translate(434.266307 0) scale(0.996264)"/>
      <use xlink:href="#NimbusSanL-Regu-6e" transform="translate(489.657984 0) scale(0.996264)"/>
      <use xlink:href="#NimbusSanL-Regu-43" transform="translate(572.744831 0) scale(0.996264)"/>
      <use xlink:href="#NimbusSanL-Regu-6f" transform="translate(644.674816 0) scale(0.996264)"/>
      <use xlink:href="#NimbusSanL-Regu-65" transform="translate(700.066493 0) scale(0.996264)"/>
      <use xlink:href="#NimbusSanL-Regu-66" transform="translate(755.45817 0) scale(0.996264)"/>
      <use xlink:href="#NimbusSanL-Regu-2" transform="translate(783.153339 0) scale(0.996264)"/>
      <use xlink:href="#NimbusSanL-Regu-63" transform="translate(832.96654 0) scale(0.996264)"/>
      <use xlink:href="#NimbusSanL-Regu-69" transform="translate(882.77974 0) scale(0.996264)"/>
      <use xlink:href="#NimbusSanL-Regu-65" transform="translate(904.896525 0) scale(0.996264)"/>
      <use xlink:href="#NimbusSanL-Regu-6e" transform="translate(960.288201 0) scale(0.996264)"/>
      <use xlink:href="#NimbusSanL-Regu-74" transform="translate(1015.679878 0) scale(0.996264)"/>
      <use xlink:href="#NimbusSanL-Regu-2d" transform="translate(1071.070218 0) scale(0.996264)"/>
      <use xlink:href="#NimbusSanL-Regu-42" transform="translate(1131.940617 0) scale(0.996264)"/>
      <use xlink:href="#NimbusSanL-Regu-6c" transform="translate(1198.390648 0) scale(0.996264)"/>
      <use xlink:href="#NimbusSanL-Regu-61" transform="translate(1220.507432 0) scale(0.996264)"/>
      <use xlink:href="#NimbusSanL-Regu-64" transform="translate(1275.899109 0) scale(0.996264)"/>
      <use xlink:href="#NimbusSanL-Regu-65" transform="translate(1331.290786 0) scale(0.996264)"/>
      <use xlink:href="#NimbusSanL-Regu-31" transform="translate(1422.548029 0) scale(0.996264)"/>
      <use xlink:href="#NimbusSanL-Regu-38" transform="translate(1477.939705 0) scale(0.996264)"/>
      <path d="M 1392.659804 0 
L 1422.548029 0 
L 1422.548029 0.3985 
L 1392.659804 0.3985 
L 1392.659804 0 
z
"/>
     </g>
    </g>
   </g>
   <g id="line2d_19">
    <path d="M 212.531721 204.663259 
L 213.164399 203.985505 
L 213.797138 204.640614 
L 216.25917 208.760938 
L 218.097708 210.57309 
L 219.937075 212.076226 
L 221.77676 212.422721 
L 223.616586 211.800006 
L 225.456481 210.639817 
L 227.296411 209.335056 
L 229.136363 208.133659 
L 230.976324 207.13892 
L 232.816293 206.35317 
L 234.656264 205.743875 
L 236.496234 205.262044 
L 238.336201 204.834498 
L 240.176161 204.489883 
L 242.016114 204.105609 
L 243.856058 203.860081 
L 245.695989 203.584936 
L 247.535905 203.333552 
L 249.375804 202.803922 
L 251.215679 202.106478 
L 253.055527 201.687778 
L 254.895344 201.980081 
L 256.735124 202.723557 
L 258.574863 203.151992 
L 260.414561 202.56819 
L 262.254213 200.986685 
L 264.093829 198.619643 
L 265.933419 195.887665 
L 267.773001 193.132066 
L 269.612596 190.154115 
L 271.452227 186.987541 
L 273.291912 184.971362 
L 275.131658 184.526984 
L 276.971468 185.94301 
L 278.81134 188.744678 
L 280.651263 191.863538 
L 282.491227 194.298513 
L 284.331227 196.023865 
L 286.171253 196.692241 
L 288.0113 196.52983 
L 289.851364 195.889827 
L 291.691439 196.000819 
L 293.531524 197.368767 
L 295.371616 200.049414 
L 297.211713 203.552117 
L 299.051815 208.04801 
L 300.89192 212.432297 
L 302.732028 215.100014 
L 304.572139 216.902343 
L 306.41225 218.546205 
L 308.252364 220.380179 
L 310.092478 221.040882 
L 311.932594 221.717316 
L 313.77271 220.603628 
L 315.612827 217.037381 
L 317.452945 209.95525 
L 319.293063 201.670046 
L 321.133182 195.876189 
L 322.973301 194.576409 
L 324.81342 196.772955 
L 326.653539 200.950769 
L 328.493659 205.857827 
L 330.333779 209.754712 
L 332.173899 209.750366 
L 334.014019 203.916118 
L 335.85414 194.828378 
L 337.69426 188.666231 
L 339.534381 189.773797 
L 341.374502 196.735185 
L 343.214623 205.754588 
L 345.054744 214.081508 
L 346.894865 220.110325 
L 348.734986 219.77599 
L 350.575107 216.533463 
L 352.415228 212.173527 
L 354.255349 207.808089 
L 356.095471 204.320666 
L 357.935592 201.234035 
L 359.775714 198.380924 
L 361.615835 194.342897 
L 363.455956 189.655806 
L 365.296078 185.159204 
L 367.1362 178.650855 
L 368.976321 170.481726 
L 370.816443 159.057208 
L 372.656565 145.103654 
L 374.496686 127.048975 
L 376.336808 105.753429 
L 378.763053 20.799134 
L 379.346451 78.131076 
L 379.931721 179.563493 
" clip-path="url(#p6bf72cf338)" style="fill: none; stroke: #00008b; stroke-width: 1.5; stroke-linecap: square"/>
    <defs>
     <path id="mc9a6cd847a" d="M 0 0.25 
C 0.066301 0.25 0.129895 0.223658 0.176777 0.176777 
C 0.223658 0.129895 0.25 0.066301 0.25 0 
C 0.25 -0.066301 0.223658 -0.129895 0.176777 -0.176777 
C 0.129895 -0.223658 0.066301 -0.25 0 -0.25 
C -0.066301 -0.25 -0.129895 -0.223658 -0.176777 -0.176777 
C -0.223658 -0.129895 -0.25 -0.066301 -0.25 0 
C -0.25 0.066301 -0.223658 0.129895 -0.176777 0.176777 
C -0.129895 0.223658 -0.066301 0.25 0 0.25 
z
" style="stroke: #00008b"/>
    </defs>
    <g clip-path="url(#p6bf72cf338)">
     <use xlink:href="#mc9a6cd847a" x="212.531721" y="204.663259" style="fill: #00008b; stroke: #00008b"/>
     <use xlink:href="#mc9a6cd847a" x="213.164399" y="203.985505" style="fill: #00008b; stroke: #00008b"/>
     <use xlink:href="#mc9a6cd847a" x="213.797138" y="204.640614" style="fill: #00008b; stroke: #00008b"/>
     <use xlink:href="#mc9a6cd847a" x="216.25917" y="208.760938" style="fill: #00008b; stroke: #00008b"/>
     <use xlink:href="#mc9a6cd847a" x="218.097708" y="210.57309" style="fill: #00008b; stroke: #00008b"/>
     <use xlink:href="#mc9a6cd847a" x="219.937075" y="212.076226" style="fill: #00008b; stroke: #00008b"/>
     <use xlink:href="#mc9a6cd847a" x="221.77676" y="212.422721" style="fill: #00008b; stroke: #00008b"/>
     <use xlink:href="#mc9a6cd847a" x="223.616586" y="211.800006" style="fill: #00008b; stroke: #00008b"/>
     <use xlink:href="#mc9a6cd847a" x="225.456481" y="210.639817" style="fill: #00008b; stroke: #00008b"/>
     <use xlink:href="#mc9a6cd847a" x="227.296411" y="209.335056" style="fill: #00008b; stroke: #00008b"/>
     <use xlink:href="#mc9a6cd847a" x="229.136363" y="208.133659" style="fill: #00008b; stroke: #00008b"/>
     <use xlink:href="#mc9a6cd847a" x="230.976324" y="207.13892" style="fill: #00008b; stroke: #00008b"/>
     <use xlink:href="#mc9a6cd847a" x="232.816293" y="206.35317" style="fill: #00008b; stroke: #00008b"/>
     <use xlink:href="#mc9a6cd847a" x="234.656264" y="205.743875" style="fill: #00008b; stroke: #00008b"/>
     <use xlink:href="#mc9a6cd847a" x="236.496234" y="205.262044" style="fill: #00008b; stroke: #00008b"/>
     <use xlink:href="#mc9a6cd847a" x="238.336201" y="204.834498" style="fill: #00008b; stroke: #00008b"/>
     <use xlink:href="#mc9a6cd847a" x="240.176161" y="204.489883" style="fill: #00008b; stroke: #00008b"/>
     <use xlink:href="#mc9a6cd847a" x="242.016114" y="204.105609" style="fill: #00008b; stroke: #00008b"/>
     <use xlink:href="#mc9a6cd847a" x="243.856058" y="203.860081" style="fill: #00008b; stroke: #00008b"/>
     <use xlink:href="#mc9a6cd847a" x="245.695989" y="203.584936" style="fill: #00008b; stroke: #00008b"/>
     <use xlink:href="#mc9a6cd847a" x="247.535905" y="203.333552" style="fill: #00008b; stroke: #00008b"/>
     <use xlink:href="#mc9a6cd847a" x="249.375804" y="202.803922" style="fill: #00008b; stroke: #00008b"/>
     <use xlink:href="#mc9a6cd847a" x="251.215679" y="202.106478" style="fill: #00008b; stroke: #00008b"/>
     <use xlink:href="#mc9a6cd847a" x="253.055527" y="201.687778" style="fill: #00008b; stroke: #00008b"/>
     <use xlink:href="#mc9a6cd847a" x="254.895344" y="201.980081" style="fill: #00008b; stroke: #00008b"/>
     <use xlink:href="#mc9a6cd847a" x="256.735124" y="202.723557" style="fill: #00008b; stroke: #00008b"/>
     <use xlink:href="#mc9a6cd847a" x="258.574863" y="203.151992" style="fill: #00008b; stroke: #00008b"/>
     <use xlink:href="#mc9a6cd847a" x="260.414561" y="202.56819" style="fill: #00008b; stroke: #00008b"/>
     <use xlink:href="#mc9a6cd847a" x="262.254213" y="200.986685" style="fill: #00008b; stroke: #00008b"/>
     <use xlink:href="#mc9a6cd847a" x="264.093829" y="198.619643" style="fill: #00008b; stroke: #00008b"/>
     <use xlink:href="#mc9a6cd847a" x="265.933419" y="195.887665" style="fill: #00008b; stroke: #00008b"/>
     <use xlink:href="#mc9a6cd847a" x="267.773001" y="193.132066" style="fill: #00008b; stroke: #00008b"/>
     <use xlink:href="#mc9a6cd847a" x="269.612596" y="190.154115" style="fill: #00008b; stroke: #00008b"/>
     <use xlink:href="#mc9a6cd847a" x="271.452227" y="186.987541" style="fill: #00008b; stroke: #00008b"/>
     <use xlink:href="#mc9a6cd847a" x="273.291912" y="184.971362" style="fill: #00008b; stroke: #00008b"/>
     <use xlink:href="#mc9a6cd847a" x="275.131658" y="184.526984" style="fill: #00008b; stroke: #00008b"/>
     <use xlink:href="#mc9a6cd847a" x="276.971468" y="185.94301" style="fill: #00008b; stroke: #00008b"/>
     <use xlink:href="#mc9a6cd847a" x="278.81134" y="188.744678" style="fill: #00008b; stroke: #00008b"/>
     <use xlink:href="#mc9a6cd847a" x="280.651263" y="191.863538" style="fill: #00008b; stroke: #00008b"/>
     <use xlink:href="#mc9a6cd847a" x="282.491227" y="194.298513" style="fill: #00008b; stroke: #00008b"/>
     <use xlink:href="#mc9a6cd847a" x="284.331227" y="196.023865" style="fill: #00008b; stroke: #00008b"/>
     <use xlink:href="#mc9a6cd847a" x="286.171253" y="196.692241" style="fill: #00008b; stroke: #00008b"/>
     <use xlink:href="#mc9a6cd847a" x="288.0113" y="196.52983" style="fill: #00008b; stroke: #00008b"/>
     <use xlink:href="#mc9a6cd847a" x="289.851364" y="195.889827" style="fill: #00008b; stroke: #00008b"/>
     <use xlink:href="#mc9a6cd847a" x="291.691439" y="196.000819" style="fill: #00008b; stroke: #00008b"/>
     <use xlink:href="#mc9a6cd847a" x="293.531524" y="197.368767" style="fill: #00008b; stroke: #00008b"/>
     <use xlink:href="#mc9a6cd847a" x="295.371616" y="200.049414" style="fill: #00008b; stroke: #00008b"/>
     <use xlink:href="#mc9a6cd847a" x="297.211713" y="203.552117" style="fill: #00008b; stroke: #00008b"/>
     <use xlink:href="#mc9a6cd847a" x="299.051815" y="208.04801" style="fill: #00008b; stroke: #00008b"/>
     <use xlink:href="#mc9a6cd847a" x="300.89192" y="212.432297" style="fill: #00008b; stroke: #00008b"/>
     <use xlink:href="#mc9a6cd847a" x="302.732028" y="215.100014" style="fill: #00008b; stroke: #00008b"/>
     <use xlink:href="#mc9a6cd847a" x="304.572139" y="216.902343" style="fill: #00008b; stroke: #00008b"/>
     <use xlink:href="#mc9a6cd847a" x="306.41225" y="218.546205" style="fill: #00008b; stroke: #00008b"/>
     <use xlink:href="#mc9a6cd847a" x="308.252364" y="220.380179" style="fill: #00008b; stroke: #00008b"/>
     <use xlink:href="#mc9a6cd847a" x="310.092478" y="221.040882" style="fill: #00008b; stroke: #00008b"/>
     <use xlink:href="#mc9a6cd847a" x="311.932594" y="221.717316" style="fill: #00008b; stroke: #00008b"/>
     <use xlink:href="#mc9a6cd847a" x="313.77271" y="220.603628" style="fill: #00008b; stroke: #00008b"/>
     <use xlink:href="#mc9a6cd847a" x="315.612827" y="217.037381" style="fill: #00008b; stroke: #00008b"/>
     <use xlink:href="#mc9a6cd847a" x="317.452945" y="209.95525" style="fill: #00008b; stroke: #00008b"/>
     <use xlink:href="#mc9a6cd847a" x="319.293063" y="201.670046" style="fill: #00008b; stroke: #00008b"/>
     <use xlink:href="#mc9a6cd847a" x="321.133182" y="195.876189" style="fill: #00008b; stroke: #00008b"/>
     <use xlink:href="#mc9a6cd847a" x="322.973301" y="194.576409" style="fill: #00008b; stroke: #00008b"/>
     <use xlink:href="#mc9a6cd847a" x="324.81342" y="196.772955" style="fill: #00008b; stroke: #00008b"/>
     <use xlink:href="#mc9a6cd847a" x="326.653539" y="200.950769" style="fill: #00008b; stroke: #00008b"/>
     <use xlink:href="#mc9a6cd847a" x="328.493659" y="205.857827" style="fill: #00008b; stroke: #00008b"/>
     <use xlink:href="#mc9a6cd847a" x="330.333779" y="209.754712" style="fill: #00008b; stroke: #00008b"/>
     <use xlink:href="#mc9a6cd847a" x="332.173899" y="209.750366" style="fill: #00008b; stroke: #00008b"/>
     <use xlink:href="#mc9a6cd847a" x="334.014019" y="203.916118" style="fill: #00008b; stroke: #00008b"/>
     <use xlink:href="#mc9a6cd847a" x="335.85414" y="194.828378" style="fill: #00008b; stroke: #00008b"/>
     <use xlink:href="#mc9a6cd847a" x="337.69426" y="188.666231" style="fill: #00008b; stroke: #00008b"/>
     <use xlink:href="#mc9a6cd847a" x="339.534381" y="189.773797" style="fill: #00008b; stroke: #00008b"/>
     <use xlink:href="#mc9a6cd847a" x="341.374502" y="196.735185" style="fill: #00008b; stroke: #00008b"/>
     <use xlink:href="#mc9a6cd847a" x="343.214623" y="205.754588" style="fill: #00008b; stroke: #00008b"/>
     <use xlink:href="#mc9a6cd847a" x="345.054744" y="214.081508" style="fill: #00008b; stroke: #00008b"/>
     <use xlink:href="#mc9a6cd847a" x="346.894865" y="220.110325" style="fill: #00008b; stroke: #00008b"/>
     <use xlink:href="#mc9a6cd847a" x="348.734986" y="219.77599" style="fill: #00008b; stroke: #00008b"/>
     <use xlink:href="#mc9a6cd847a" x="350.575107" y="216.533463" style="fill: #00008b; stroke: #00008b"/>
     <use xlink:href="#mc9a6cd847a" x="352.415228" y="212.173527" style="fill: #00008b; stroke: #00008b"/>
     <use xlink:href="#mc9a6cd847a" x="354.255349" y="207.808089" style="fill: #00008b; stroke: #00008b"/>
     <use xlink:href="#mc9a6cd847a" x="356.095471" y="204.320666" style="fill: #00008b; stroke: #00008b"/>
     <use xlink:href="#mc9a6cd847a" x="357.935592" y="201.234035" style="fill: #00008b; stroke: #00008b"/>
     <use xlink:href="#mc9a6cd847a" x="359.775714" y="198.380924" style="fill: #00008b; stroke: #00008b"/>
     <use xlink:href="#mc9a6cd847a" x="361.615835" y="194.342897" style="fill: #00008b; stroke: #00008b"/>
     <use xlink:href="#mc9a6cd847a" x="363.455956" y="189.655806" style="fill: #00008b; stroke: #00008b"/>
     <use xlink:href="#mc9a6cd847a" x="365.296078" y="185.159204" style="fill: #00008b; stroke: #00008b"/>
     <use xlink:href="#mc9a6cd847a" x="367.1362" y="178.650855" style="fill: #00008b; stroke: #00008b"/>
     <use xlink:href="#mc9a6cd847a" x="368.976321" y="170.481726" style="fill: #00008b; stroke: #00008b"/>
     <use xlink:href="#mc9a6cd847a" x="370.816443" y="159.057208" style="fill: #00008b; stroke: #00008b"/>
     <use xlink:href="#mc9a6cd847a" x="372.656565" y="145.103654" style="fill: #00008b; stroke: #00008b"/>
     <use xlink:href="#mc9a6cd847a" x="374.496686" y="127.048975" style="fill: #00008b; stroke: #00008b"/>
     <use xlink:href="#mc9a6cd847a" x="376.336808" y="105.753429" style="fill: #00008b; stroke: #00008b"/>
     <use xlink:href="#mc9a6cd847a" x="378.763053" y="20.799134" style="fill: #00008b; stroke: #00008b"/>
     <use xlink:href="#mc9a6cd847a" x="379.346451" y="78.131076" style="fill: #00008b; stroke: #00008b"/>
     <use xlink:href="#mc9a6cd847a" x="379.931721" y="179.563493" style="fill: #00008b; stroke: #00008b"/>
    </g>
   </g>
   <g id="line2d_20">
    <path d="M 212.531721 206.67159 
L 211.899154 208.452905 
L 211.266387 210.632367 
L 208.801491 218.478637 
L 206.961929 220.622923 
L 205.121828 216.999644 
L 203.281551 214.248821 
L 201.441211 212.226041 
L 199.60085 210.786638 
L 197.760484 209.772623 
L 195.92012 209.045769 
L 194.07976 208.54276 
L 192.239406 208.23109 
L 190.399058 208.047779 
L 188.558714 207.956078 
L 186.718374 207.930361 
L 184.878039 207.952907 
L 183.037706 208.020748 
L 181.197375 208.14739 
L 179.357048 208.316107 
L 177.516722 208.500056 
L 175.676399 208.686419 
L 173.836075 208.909862 
L 171.995752 209.163969 
L 170.155429 209.433597 
L 168.315107 209.714669 
L 166.474783 210.026454 
L 164.634459 210.357265 
L 162.794134 210.694936 
L 160.953807 211.032559 
L 159.11348 211.377677 
L 157.273152 211.761894 
L 155.432822 212.152776 
L 153.592491 212.507842 
L 151.752159 212.82144 
L 149.911826 213.154559 
L 148.071492 213.510034 
L 146.231158 213.858285 
L 144.390822 214.188535 
L 142.550485 214.498372 
L 140.710148 214.837985 
L 138.86981 215.19211 
L 137.029471 215.534684 
L 135.189132 215.8662 
L 133.348792 216.183028 
L 131.508451 216.49943 
L 129.668109 216.817506 
L 127.827767 217.136064 
L 125.987424 217.450372 
L 124.147081 217.760536 
L 122.306737 218.062194 
L 120.466392 218.35439 
L 118.626046 218.641442 
L 116.7857 218.925721 
L 114.945353 219.20677 
L 113.105006 219.474694 
L 111.264657 219.734276 
L 109.424308 219.999271 
L 107.583959 220.270115 
L 105.743608 220.536436 
L 103.903258 220.794782 
L 102.062906 221.061075 
L 100.222554 221.327558 
L 98.382201 221.582854 
L 96.541847 221.729522 
L 94.701493 221.474647 
L 92.861139 221.219568 
L 91.020784 220.99642 
L 89.180428 220.825129 
L 87.340072 220.69915 
L 85.499715 220.619007 
L 83.659358 220.604264 
L 81.819 220.69949 
L 79.978642 220.965015 
L 78.138283 221.42369 
L 76.297925 221.613589 
L 74.457565 221.005921 
L 72.617206 220.209345 
L 70.776846 219.278534 
L 68.936485 218.224882 
L 67.096125 217.021572 
L 65.255764 215.644894 
L 63.415403 214.207912 
L 61.575041 212.719595 
L 59.73468 211.064769 
L 57.894318 209.252851 
L 56.053956 207.153451 
L 54.213593 204.639548 
L 52.373231 201.176214 
L 50.532869 195.70453 
L 48.692506 189.428757 
L 46.305717 220.825123 
L 45.71968 201.341199 
L 45.131721 207.945387 
" clip-path="url(#p6bf72cf338)" style="fill: none; stroke: #add8e6; stroke-width: 1.5; stroke-linecap: square"/>
    <defs>
     <path id="mdf2462d084" d="M 0 0.25 
C 0.066301 0.25 0.129895 0.223658 0.176777 0.176777 
C 0.223658 0.129895 0.25 0.066301 0.25 0 
C 0.25 -0.066301 0.223658 -0.129895 0.176777 -0.176777 
C 0.129895 -0.223658 0.066301 -0.25 0 -0.25 
C -0.066301 -0.25 -0.129895 -0.223658 -0.176777 -0.176777 
C -0.223658 -0.129895 -0.25 -0.066301 -0.25 0 
C -0.25 0.066301 -0.223658 0.129895 -0.176777 0.176777 
C -0.129895 0.223658 -0.066301 0.25 0 0.25 
z
" style="stroke: #add8e6"/>
    </defs>
    <g clip-path="url(#p6bf72cf338)">
     <use xlink:href="#mdf2462d084" x="212.531721" y="206.67159" style="fill: #add8e6; stroke: #add8e6"/>
     <use xlink:href="#mdf2462d084" x="211.899154" y="208.452905" style="fill: #add8e6; stroke: #add8e6"/>
     <use xlink:href="#mdf2462d084" x="211.266387" y="210.632367" style="fill: #add8e6; stroke: #add8e6"/>
     <use xlink:href="#mdf2462d084" x="208.801491" y="218.478637" style="fill: #add8e6; stroke: #add8e6"/>
     <use xlink:href="#mdf2462d084" x="206.961929" y="220.622923" style="fill: #add8e6; stroke: #add8e6"/>
     <use xlink:href="#mdf2462d084" x="205.121828" y="216.999644" style="fill: #add8e6; stroke: #add8e6"/>
     <use xlink:href="#mdf2462d084" x="203.281551" y="214.248821" style="fill: #add8e6; stroke: #add8e6"/>
     <use xlink:href="#mdf2462d084" x="201.441211" y="212.226041" style="fill: #add8e6; stroke: #add8e6"/>
     <use xlink:href="#mdf2462d084" x="199.60085" y="210.786638" style="fill: #add8e6; stroke: #add8e6"/>
     <use xlink:href="#mdf2462d084" x="197.760484" y="209.772623" style="fill: #add8e6; stroke: #add8e6"/>
     <use xlink:href="#mdf2462d084" x="195.92012" y="209.045769" style="fill: #add8e6; stroke: #add8e6"/>
     <use xlink:href="#mdf2462d084" x="194.07976" y="208.54276" style="fill: #add8e6; stroke: #add8e6"/>
     <use xlink:href="#mdf2462d084" x="192.239406" y="208.23109" style="fill: #add8e6; stroke: #add8e6"/>
     <use xlink:href="#mdf2462d084" x="190.399058" y="208.047779" style="fill: #add8e6; stroke: #add8e6"/>
     <use xlink:href="#mdf2462d084" x="188.558714" y="207.956078" style="fill: #add8e6; stroke: #add8e6"/>
     <use xlink:href="#mdf2462d084" x="186.718374" y="207.930361" style="fill: #add8e6; stroke: #add8e6"/>
     <use xlink:href="#mdf2462d084" x="184.878039" y="207.952907" style="fill: #add8e6; stroke: #add8e6"/>
     <use xlink:href="#mdf2462d084" x="183.037706" y="208.020748" style="fill: #add8e6; stroke: #add8e6"/>
     <use xlink:href="#mdf2462d084" x="181.197375" y="208.14739" style="fill: #add8e6; stroke: #add8e6"/>
     <use xlink:href="#mdf2462d084" x="179.357048" y="208.316107" style="fill: #add8e6; stroke: #add8e6"/>
     <use xlink:href="#mdf2462d084" x="177.516722" y="208.500056" style="fill: #add8e6; stroke: #add8e6"/>
     <use xlink:href="#mdf2462d084" x="175.676399" y="208.686419" style="fill: #add8e6; stroke: #add8e6"/>
     <use xlink:href="#mdf2462d084" x="173.836075" y="208.909862" style="fill: #add8e6; stroke: #add8e6"/>
     <use xlink:href="#mdf2462d084" x="171.995752" y="209.163969" style="fill: #add8e6; stroke: #add8e6"/>
     <use xlink:href="#mdf2462d084" x="170.155429" y="209.433597" style="fill: #add8e6; stroke: #add8e6"/>
     <use xlink:href="#mdf2462d084" x="168.315107" y="209.714669" style="fill: #add8e6; stroke: #add8e6"/>
     <use xlink:href="#mdf2462d084" x="166.474783" y="210.026454" style="fill: #add8e6; stroke: #add8e6"/>
     <use xlink:href="#mdf2462d084" x="164.634459" y="210.357265" style="fill: #add8e6; stroke: #add8e6"/>
     <use xlink:href="#mdf2462d084" x="162.794134" y="210.694936" style="fill: #add8e6; stroke: #add8e6"/>
     <use xlink:href="#mdf2462d084" x="160.953807" y="211.032559" style="fill: #add8e6; stroke: #add8e6"/>
     <use xlink:href="#mdf2462d084" x="159.11348" y="211.377677" style="fill: #add8e6; stroke: #add8e6"/>
     <use xlink:href="#mdf2462d084" x="157.273152" y="211.761894" style="fill: #add8e6; stroke: #add8e6"/>
     <use xlink:href="#mdf2462d084" x="155.432822" y="212.152776" style="fill: #add8e6; stroke: #add8e6"/>
     <use xlink:href="#mdf2462d084" x="153.592491" y="212.507842" style="fill: #add8e6; stroke: #add8e6"/>
     <use xlink:href="#mdf2462d084" x="151.752159" y="212.82144" style="fill: #add8e6; stroke: #add8e6"/>
     <use xlink:href="#mdf2462d084" x="149.911826" y="213.154559" style="fill: #add8e6; stroke: #add8e6"/>
     <use xlink:href="#mdf2462d084" x="148.071492" y="213.510034" style="fill: #add8e6; stroke: #add8e6"/>
     <use xlink:href="#mdf2462d084" x="146.231158" y="213.858285" style="fill: #add8e6; stroke: #add8e6"/>
     <use xlink:href="#mdf2462d084" x="144.390822" y="214.188535" style="fill: #add8e6; stroke: #add8e6"/>
     <use xlink:href="#mdf2462d084" x="142.550485" y="214.498372" style="fill: #add8e6; stroke: #add8e6"/>
     <use xlink:href="#mdf2462d084" x="140.710148" y="214.837985" style="fill: #add8e6; stroke: #add8e6"/>
     <use xlink:href="#mdf2462d084" x="138.86981" y="215.19211" style="fill: #add8e6; stroke: #add8e6"/>
     <use xlink:href="#mdf2462d084" x="137.029471" y="215.534684" style="fill: #add8e6; stroke: #add8e6"/>
     <use xlink:href="#mdf2462d084" x="135.189132" y="215.8662" style="fill: #add8e6; stroke: #add8e6"/>
     <use xlink:href="#mdf2462d084" x="133.348792" y="216.183028" style="fill: #add8e6; stroke: #add8e6"/>
     <use xlink:href="#mdf2462d084" x="131.508451" y="216.49943" style="fill: #add8e6; stroke: #add8e6"/>
     <use xlink:href="#mdf2462d084" x="129.668109" y="216.817506" style="fill: #add8e6; stroke: #add8e6"/>
     <use xlink:href="#mdf2462d084" x="127.827767" y="217.136064" style="fill: #add8e6; stroke: #add8e6"/>
     <use xlink:href="#mdf2462d084" x="125.987424" y="217.450372" style="fill: #add8e6; stroke: #add8e6"/>
     <use xlink:href="#mdf2462d084" x="124.147081" y="217.760536" style="fill: #add8e6; stroke: #add8e6"/>
     <use xlink:href="#mdf2462d084" x="122.306737" y="218.062194" style="fill: #add8e6; stroke: #add8e6"/>
     <use xlink:href="#mdf2462d084" x="120.466392" y="218.35439" style="fill: #add8e6; stroke: #add8e6"/>
     <use xlink:href="#mdf2462d084" x="118.626046" y="218.641442" style="fill: #add8e6; stroke: #add8e6"/>
     <use xlink:href="#mdf2462d084" x="116.7857" y="218.925721" style="fill: #add8e6; stroke: #add8e6"/>
     <use xlink:href="#mdf2462d084" x="114.945353" y="219.20677" style="fill: #add8e6; stroke: #add8e6"/>
     <use xlink:href="#mdf2462d084" x="113.105006" y="219.474694" style="fill: #add8e6; stroke: #add8e6"/>
     <use xlink:href="#mdf2462d084" x="111.264657" y="219.734276" style="fill: #add8e6; stroke: #add8e6"/>
     <use xlink:href="#mdf2462d084" x="109.424308" y="219.999271" style="fill: #add8e6; stroke: #add8e6"/>
     <use xlink:href="#mdf2462d084" x="107.583959" y="220.270115" style="fill: #add8e6; stroke: #add8e6"/>
     <use xlink:href="#mdf2462d084" x="105.743608" y="220.536436" style="fill: #add8e6; stroke: #add8e6"/>
     <use xlink:href="#mdf2462d084" x="103.903258" y="220.794782" style="fill: #add8e6; stroke: #add8e6"/>
     <use xlink:href="#mdf2462d084" x="102.062906" y="221.061075" style="fill: #add8e6; stroke: #add8e6"/>
     <use xlink:href="#mdf2462d084" x="100.222554" y="221.327558" style="fill: #add8e6; stroke: #add8e6"/>
     <use xlink:href="#mdf2462d084" x="98.382201" y="221.582854" style="fill: #add8e6; stroke: #add8e6"/>
     <use xlink:href="#mdf2462d084" x="96.541847" y="221.729522" style="fill: #add8e6; stroke: #add8e6"/>
     <use xlink:href="#mdf2462d084" x="94.701493" y="221.474647" style="fill: #add8e6; stroke: #add8e6"/>
     <use xlink:href="#mdf2462d084" x="92.861139" y="221.219568" style="fill: #add8e6; stroke: #add8e6"/>
     <use xlink:href="#mdf2462d084" x="91.020784" y="220.99642" style="fill: #add8e6; stroke: #add8e6"/>
     <use xlink:href="#mdf2462d084" x="89.180428" y="220.825129" style="fill: #add8e6; stroke: #add8e6"/>
     <use xlink:href="#mdf2462d084" x="87.340072" y="220.69915" style="fill: #add8e6; stroke: #add8e6"/>
     <use xlink:href="#mdf2462d084" x="85.499715" y="220.619007" style="fill: #add8e6; stroke: #add8e6"/>
     <use xlink:href="#mdf2462d084" x="83.659358" y="220.604264" style="fill: #add8e6; stroke: #add8e6"/>
     <use xlink:href="#mdf2462d084" x="81.819" y="220.69949" style="fill: #add8e6; stroke: #add8e6"/>
     <use xlink:href="#mdf2462d084" x="79.978642" y="220.965015" style="fill: #add8e6; stroke: #add8e6"/>
     <use xlink:href="#mdf2462d084" x="78.138283" y="221.42369" style="fill: #add8e6; stroke: #add8e6"/>
     <use xlink:href="#mdf2462d084" x="76.297925" y="221.613589" style="fill: #add8e6; stroke: #add8e6"/>
     <use xlink:href="#mdf2462d084" x="74.457565" y="221.005921" style="fill: #add8e6; stroke: #add8e6"/>
     <use xlink:href="#mdf2462d084" x="72.617206" y="220.209345" style="fill: #add8e6; stroke: #add8e6"/>
     <use xlink:href="#mdf2462d084" x="70.776846" y="219.278534" style="fill: #add8e6; stroke: #add8e6"/>
     <use xlink:href="#mdf2462d084" x="68.936485" y="218.224882" style="fill: #add8e6; stroke: #add8e6"/>
     <use xlink:href="#mdf2462d084" x="67.096125" y="217.021572" style="fill: #add8e6; stroke: #add8e6"/>
     <use xlink:href="#mdf2462d084" x="65.255764" y="215.644894" style="fill: #add8e6; stroke: #add8e6"/>
     <use xlink:href="#mdf2462d084" x="63.415403" y="214.207912" style="fill: #add8e6; stroke: #add8e6"/>
     <use xlink:href="#mdf2462d084" x="61.575041" y="212.719595" style="fill: #add8e6; stroke: #add8e6"/>
     <use xlink:href="#mdf2462d084" x="59.73468" y="211.064769" style="fill: #add8e6; stroke: #add8e6"/>
     <use xlink:href="#mdf2462d084" x="57.894318" y="209.252851" style="fill: #add8e6; stroke: #add8e6"/>
     <use xlink:href="#mdf2462d084" x="56.053956" y="207.153451" style="fill: #add8e6; stroke: #add8e6"/>
     <use xlink:href="#mdf2462d084" x="54.213593" y="204.639548" style="fill: #add8e6; stroke: #add8e6"/>
     <use xlink:href="#mdf2462d084" x="52.373231" y="201.176214" style="fill: #add8e6; stroke: #add8e6"/>
     <use xlink:href="#mdf2462d084" x="50.532869" y="195.70453" style="fill: #add8e6; stroke: #add8e6"/>
     <use xlink:href="#mdf2462d084" x="48.692506" y="189.428757" style="fill: #add8e6; stroke: #add8e6"/>
     <use xlink:href="#mdf2462d084" x="46.305717" y="220.825123" style="fill: #add8e6; stroke: #add8e6"/>
     <use xlink:href="#mdf2462d084" x="45.71968" y="201.341199" style="fill: #add8e6; stroke: #add8e6"/>
     <use xlink:href="#mdf2462d084" x="45.131721" y="207.945387" style="fill: #add8e6; stroke: #add8e6"/>
    </g>
   </g>
   <g id="patch_3">
    <path d="M 45.131721 231.809522 
L 45.131721 10.049522 
" style="fill: none; stroke: #000000; stroke-width: 0.8; stroke-linejoin: miter; stroke-linecap: square"/>
   </g>
   <g id="patch_4">
    <path d="M 379.931721 231.809522 
L 379.931721 10.049522 
" style="fill: none; stroke: #000000; stroke-width: 0.8; stroke-linejoin: miter; stroke-linecap: square"/>
   </g>
   <g id="patch_5">
    <path d="M 45.131721 231.809522 
L 379.931721 231.809522 
" style="fill: none; stroke: #000000; stroke-width: 0.8; stroke-linejoin: miter; stroke-linecap: square"/>
   </g>
   <g id="patch_6">
    <path d="M 45.131721 10.049522 
L 379.931721 10.049522 
" style="fill: none; stroke: #000000; stroke-width: 0.8; stroke-linejoin: miter; stroke-linecap: square"/>
   </g>
   <g id="legend_1">
    <g id="patch_7">
     <path d="M 50.131721 61.079177 
L 135.954377 61.079177 
L 135.954377 15.049522 
L 50.131721 15.049522 
z
" style="fill: #ffffff; opacity: 0.8; stroke: #000000; stroke-linejoin: miter"/>
    </g>
    <g id="line2d_21">
     <path d="M 54.131721 22.83221 
L 64.131721 22.83221 
L 74.131721 22.83221 
" style="fill: none; stroke: #00008b; stroke-width: 1.5; stroke-linecap: square"/>
     <g>
      <use xlink:href="#mc9a6cd847a" x="64.131721" y="22.83221" style="fill: #00008b; stroke: #00008b"/>
     </g>
    </g>
    <g id="text_21">
     <!-- SU2 (SS) -->
     <g transform="translate(82.131721 26.33221) scale(0.1 -0.1)">
      <defs>
       <path id="NimbusSanL-Regu-55" d="M 3533 4672 
L 3533 1404 
C 3533 779 3078 396 2330 396 
C 1984 396 1702 479 1478 639 
C 1248 817 1139 1053 1139 1404 
L 1139 4672 
L 544 4672 
L 544 1404 
C 544 460 1222 -128 2330 -128 
C 3424 -128 4128 473 4128 1404 
L 4128 4672 
L 3533 4672 
z
" transform="scale(0.015625)"/>
       <path id="NimbusSanL-Regu-32" d="M 3238 556 
L 851 556 
C 909 928 1114 1165 1670 1493 
L 2310 1839 
C 2944 2185 3270 2653 3270 3211 
C 3270 3589 3117 3942 2848 4185 
C 2579 4428 2246 4544 1818 4544 
C 1242 4544 813 4339 563 3955 
C 403 3711 333 3429 320 2967 
L 883 2967 
C 902 3275 941 3461 1018 3608 
C 1165 3884 1459 4051 1798 4051 
C 2310 4051 2694 3685 2694 3198 
C 2694 2839 2483 2531 2080 2300 
L 1491 1967 
C 544 1428 269 999 218 0 
L 3238 0 
L 3238 556 
z
" transform="scale(0.015625)"/>
       <path id="NimbusSanL-Regu-28" d="M 1510 4672 
C 870 3833 467 2668 467 1663 
C 467 652 870 -513 1510 -1351 
L 1862 -1351 
C 1299 -436 986 639 986 1663 
C 986 2681 1299 3763 1862 4672 
L 1510 4672 
z
" transform="scale(0.015625)"/>
       <path id="NimbusSanL-Regu-29" d="M 595 -1351 
C 1235 -513 1638 652 1638 1657 
C 1638 2668 1235 3833 595 4672 
L 243 4672 
C 806 3756 1120 2681 1120 1657 
C 1120 639 806 -442 243 -1351 
L 595 -1351 
z
" transform="scale(0.015625)"/>
      </defs>
      <use xlink:href="#NimbusSanL-Regu-53" transform="scale(0.996264)"/>
      <use xlink:href="#NimbusSanL-Regu-55" transform="translate(66.450031 0) scale(0.996264)"/>
      <use xlink:href="#NimbusSanL-Regu-32" transform="translate(138.380016 0) scale(0.996264)"/>
      <use xlink:href="#NimbusSanL-Regu-28" transform="translate(221.466863 0) scale(0.996264)"/>
      <use xlink:href="#NimbusSanL-Regu-53" transform="translate(254.642092 0) scale(0.996264)"/>
      <use xlink:href="#NimbusSanL-Regu-53" transform="translate(321.092123 0) scale(0.996264)"/>
      <use xlink:href="#NimbusSanL-Regu-29" transform="translate(387.542155 0) scale(0.996264)"/>
     </g>
    </g>
    <g id="line2d_22">
     <path d="M 54.131721 37.236884 
L 64.131721 37.236884 
L 74.131721 37.236884 
" style="fill: none; stroke: #add8e6; stroke-width: 1.5; stroke-linecap: square"/>
     <g>
      <use xlink:href="#mdf2462d084" x="64.131721" y="37.236884" style="fill: #add8e6; stroke: #add8e6"/>
     </g>
    </g>
    <g id="text_22">
     <!-- SU2 (PS) -->
     <g transform="translate(82.131721 40.736884) scale(0.1 -0.1)">
      <defs>
       <path id="NimbusSanL-Regu-50" d="M 1178 1984 
L 2643 1984 
C 3008 1984 3296 2092 3546 2316 
C 3827 2572 3949 2873 3949 3302 
C 3949 4179 3430 4672 2509 4672 
L 582 4672 
L 582 0 
L 1178 0 
L 1178 1984 
z
M 1178 2508 
L 1178 4147 
L 2419 4147 
C 2989 4147 3328 3839 3328 3327 
C 3328 2816 2989 2508 2419 2508 
L 1178 2508 
z
" transform="scale(0.015625)"/>
      </defs>
      <use xlink:href="#NimbusSanL-Regu-53" transform="scale(0.996264)"/>
      <use xlink:href="#NimbusSanL-Regu-55" transform="translate(66.450031 0) scale(0.996264)"/>
      <use xlink:href="#NimbusSanL-Regu-32" transform="translate(138.380016 0) scale(0.996264)"/>
      <use xlink:href="#NimbusSanL-Regu-28" transform="translate(221.466863 0) scale(0.996264)"/>
      <use xlink:href="#NimbusSanL-Regu-50" transform="translate(254.642092 0) scale(0.996264)"/>
      <use xlink:href="#NimbusSanL-Regu-53" transform="translate(321.092123 0) scale(0.996264)"/>
      <use xlink:href="#NimbusSanL-Regu-29" transform="translate(387.542155 0) scale(0.996264)"/>
     </g>
    </g>
    <g id="PathCollection_2">
     <g>
      <use xlink:href="#md3a2857779" x="64.131721" y="52.33219" style="fill: #ff0000; stroke: #ff0000"/>
     </g>
    </g>
    <g id="text_23">
     <!-- Mises Data -->
     <g transform="translate(82.131721 54.95719) scale(0.1 -0.1)">
      <defs>
       <path id="NimbusSanL-Regu-4d" d="M 2995 0 
L 4307 3915 
L 4307 0 
L 4870 0 
L 4870 4672 
L 4045 4672 
L 2688 602 
L 1306 4672 
L 480 4672 
L 480 0 
L 1043 0 
L 1043 3915 
L 2368 0 
L 2995 0 
z
" transform="scale(0.015625)"/>
       <path id="NimbusSanL-Regu-73" d="M 2803 2428 
C 2797 3084 2362 3456 1587 3456 
C 806 3456 301 3052 301 2434 
C 301 1912 570 1663 1363 1472 
L 1862 1351 
C 2234 1262 2381 1129 2381 887 
C 2381 574 2067 364 1600 364 
C 1312 364 1069 447 934 587 
C 851 683 813 778 781 1014 
L 218 1014 
C 243 243 678 -128 1555 -128 
C 2400 -128 2938 288 2938 931 
C 2938 1428 2656 1702 1990 1861 
L 1478 1982 
C 1043 2084 858 2224 858 2459 
C 858 2765 1133 2963 1568 2963 
C 1997 2963 2227 2778 2240 2428 
L 2803 2428 
z
" transform="scale(0.015625)"/>
       <path id="NimbusSanL-Regu-44" d="M 570 0 
L 2368 0 
C 3546 0 4269 883 4269 2339 
C 4269 3788 3552 4672 2368 4672 
L 570 4672 
L 570 0 
z
M 1165 524 
L 1165 4147 
L 2266 4147 
C 3187 4147 3674 3525 3674 2332 
C 3674 1153 3187 524 2266 524 
L 1165 524 
z
" transform="scale(0.015625)"/>
      </defs>
      <use xlink:href="#NimbusSanL-Regu-4d" transform="scale(0.996264)"/>
      <use xlink:href="#NimbusSanL-Regu-69" transform="translate(82.98843 0) scale(0.996264)"/>
      <use xlink:href="#NimbusSanL-Regu-73" transform="translate(105.105215 0) scale(0.996264)"/>
      <use xlink:href="#NimbusSanL-Regu-65" transform="translate(154.918415 0) scale(0.996264)"/>
      <use xlink:href="#NimbusSanL-Regu-73" transform="translate(210.310092 0) scale(0.996264)"/>
      <use xlink:href="#NimbusSanL-Regu-44" transform="translate(287.818462 0) scale(0.996264)"/>
      <use xlink:href="#NimbusSanL-Regu-61" transform="translate(359.748447 0) scale(0.996264)"/>
      <use xlink:href="#NimbusSanL-Regu-74" transform="translate(415.140124 0) scale(0.996264)"/>
      <use xlink:href="#NimbusSanL-Regu-61" transform="translate(442.835294 0) scale(0.996264)"/>
     </g>
    </g>
   </g>
  </g>
 </g>
 <defs>
  <clipPath id="p6bf72cf338">
   <rect x="45.131721" y="10.049522" width="334.8" height="221.76"/>
  </clipPath>
 </defs>
</svg>
