<?xml version="1.0" encoding="utf-8" standalone="no"?>
<!DOCTYPE svg PUBLIC "-//W3C//DTD SVG 1.1//EN"
  "http://www.w3.org/Graphics/SVG/1.1/DTD/svg11.dtd">
<svg xmlns:xlink="http://www.w3.org/1999/xlink" width="382.334753pt" height="266.692724pt" viewBox="0 0 382.334753 266.692724" xmlns="http://www.w3.org/2000/svg" version="1.1">
 <metadata>
  <rdf:RDF xmlns:dc="http://purl.org/dc/elements/1.1/" xmlns:cc="http://creativecommons.org/ns#" xmlns:rdf="http://www.w3.org/1999/02/22-rdf-syntax-ns#">
   <cc:Work>
    <dc:type rdf:resource="http://purl.org/dc/dcmitype/StillImage"/>
    <dc:date>2025-07-17T22:00:43.708047</dc:date>
    <dc:format>image/svg+xml</dc:format>
    <dc:creator>
     <cc:Agent>
      <dc:title>Matplotlib v3.10.3, https://matplotlib.org/</dc:title>
     </cc:Agent>
    </dc:creator>
   </cc:Work>
  </rdf:RDF>
 </metadata>
 <defs>
  <style type="text/css">*{stroke-linejoin: round; stroke-linecap: butt}</style>
 </defs>
 <g id="figure_1">
  <g id="patch_1">
   <path d="M 0 266.692724 
L 382.334753 266.692724 
L 382.334753 0 
L 0 0 
z
" style="fill: #ffffff"/>
  </g>
  <g id="axes_1">
   <g id="patch_2">
    <path d="M 40.334753 230.05211 
L 375.134753 230.05211 
L 375.134753 8.29211 
L 40.334753 8.29211 
z
" style="fill: #ffffff"/>
   </g>
   <g id="matplotlib.axis_1">
    <g id="xtick_1">
     <g id="line2d_1">
      <defs>
       <path id="m24f8f44f17" d="M 0 0 
L 0 3.5 
" style="stroke: #000000; stroke-width: 0.8"/>
      </defs>
      <g>
       <use xlink:href="#m24f8f44f17" x="55.552935" y="230.05211" style="stroke: #000000; stroke-width: 0.8"/>
      </g>
     </g>
     <g id="text_1">
      <!-- $\mathdefault{0}$ -->
      <g transform="translate(53.062267 244.150431) scale(0.1 -0.1)">
       <defs>
        <path id="CMR17-30" d="M 2688 2038 
C 2688 2430 2682 3099 2413 3613 
C 2176 4063 1798 4224 1466 4224 
C 1158 4224 768 4082 525 3620 
C 269 3137 243 2539 243 2038 
C 243 1671 250 1112 448 623 
C 723 -39 1216 -128 1466 -128 
C 1760 -128 2208 -7 2470 604 
C 2662 1048 2688 1568 2688 2038 
z
M 1466 -26 
C 1056 -26 813 328 723 816 
C 653 1196 653 1749 653 2109 
C 653 2604 653 3015 736 3407 
C 858 3954 1216 4121 1466 4121 
C 1728 4121 2067 3947 2189 3420 
C 2272 3054 2278 2623 2278 2109 
C 2278 1691 2278 1176 2202 797 
C 2067 96 1690 -26 1466 -26 
z
" transform="scale(0.015625)"/>
       </defs>
       <use xlink:href="#CMR17-30" transform="scale(0.996264)"/>
      </g>
     </g>
    </g>
    <g id="xtick_2">
     <g id="line2d_2">
      <g>
       <use xlink:href="#m24f8f44f17" x="93.362082" y="230.05211" style="stroke: #000000; stroke-width: 0.8"/>
      </g>
     </g>
     <g id="text_2">
      <!-- $\mathdefault{500}$ -->
      <g transform="translate(85.890079 244.150431) scale(0.1 -0.1)">
       <defs>
        <path id="CMR17-35" d="M 730 3750 
C 794 3724 1056 3641 1325 3641 
C 1920 3641 2246 3961 2432 4140 
C 2432 4191 2432 4224 2394 4224 
C 2387 4224 2374 4224 2323 4198 
C 2099 4102 1837 4032 1517 4032 
C 1325 4032 1037 4055 723 4191 
C 653 4224 640 4224 634 4224 
C 602 4224 595 4217 595 4090 
L 595 2231 
C 595 2113 595 2080 659 2080 
C 691 2080 704 2093 736 2139 
C 941 2435 1222 2560 1542 2560 
C 1766 2560 2246 2415 2246 1293 
C 2246 1087 2246 716 2054 422 
C 1894 159 1645 25 1370 25 
C 947 25 518 319 403 812 
C 429 806 480 793 506 793 
C 589 793 749 838 749 1036 
C 749 1209 627 1280 506 1280 
C 358 1280 262 1190 262 1011 
C 262 454 704 -128 1382 -128 
C 2042 -128 2669 441 2669 1267 
C 2669 2054 2170 2662 1549 2662 
C 1222 2662 947 2540 730 2304 
L 730 3750 
z
" transform="scale(0.015625)"/>
       </defs>
       <use xlink:href="#CMR17-35" transform="scale(0.996264)"/>
       <use xlink:href="#CMR17-30" transform="translate(45.690477 0) scale(0.996264)"/>
       <use xlink:href="#CMR17-30" transform="translate(91.380954 0) scale(0.996264)"/>
      </g>
     </g>
    </g>
    <g id="xtick_3">
     <g id="line2d_3">
      <g>
       <use xlink:href="#m24f8f44f17" x="131.171229" y="230.05211" style="stroke: #000000; stroke-width: 0.8"/>
      </g>
     </g>
     <g id="text_3">
      <!-- $\mathdefault{1000}$ -->
      <g transform="translate(121.208559 244.150431) scale(0.1 -0.1)">
       <defs>
        <path id="CMR17-31" d="M 1702 4083 
C 1702 4217 1696 4224 1606 4224 
C 1357 3927 979 3833 621 3820 
C 602 3820 570 3820 563 3808 
C 557 3795 557 3782 557 3648 
C 755 3648 1088 3686 1344 3839 
L 1344 467 
C 1344 243 1331 166 781 166 
L 589 166 
L 589 0 
C 896 6 1216 12 1523 12 
C 1830 12 2150 6 2458 0 
L 2458 166 
L 2266 166 
C 1715 166 1702 236 1702 467 
L 1702 4083 
z
" transform="scale(0.015625)"/>
       </defs>
       <use xlink:href="#CMR17-31" transform="scale(0.996264)"/>
       <use xlink:href="#CMR17-30" transform="translate(45.690477 0) scale(0.996264)"/>
       <use xlink:href="#CMR17-30" transform="translate(91.380954 0) scale(0.996264)"/>
       <use xlink:href="#CMR17-30" transform="translate(137.071431 0) scale(0.996264)"/>
      </g>
     </g>
    </g>
    <g id="xtick_4">
     <g id="line2d_4">
      <g>
       <use xlink:href="#m24f8f44f17" x="168.980377" y="230.05211" style="stroke: #000000; stroke-width: 0.8"/>
      </g>
     </g>
     <g id="text_4">
      <!-- $\mathdefault{1500}$ -->
      <g transform="translate(159.017706 244.150431) scale(0.1 -0.1)">
       <use xlink:href="#CMR17-31" transform="scale(0.996264)"/>
       <use xlink:href="#CMR17-35" transform="translate(45.690477 0) scale(0.996264)"/>
       <use xlink:href="#CMR17-30" transform="translate(91.380954 0) scale(0.996264)"/>
       <use xlink:href="#CMR17-30" transform="translate(137.071431 0) scale(0.996264)"/>
      </g>
     </g>
    </g>
    <g id="xtick_5">
     <g id="line2d_5">
      <g>
       <use xlink:href="#m24f8f44f17" x="206.789524" y="230.05211" style="stroke: #000000; stroke-width: 0.8"/>
      </g>
     </g>
     <g id="text_5">
      <!-- $\mathdefault{2000}$ -->
      <g transform="translate(196.826854 244.150431) scale(0.1 -0.1)">
       <defs>
        <path id="CMR17-32" d="M 2669 990 
L 2554 990 
C 2490 537 2438 460 2413 422 
C 2381 371 1920 371 1830 371 
L 602 371 
C 832 620 1280 1073 1824 1596 
C 2214 1966 2669 2400 2669 3033 
C 2669 3788 2067 4224 1395 4224 
C 691 4224 262 3603 262 3027 
C 262 2777 448 2745 525 2745 
C 589 2745 781 2783 781 3007 
C 781 3206 614 3264 525 3264 
C 486 3264 448 3257 422 3244 
C 544 3788 915 4057 1306 4057 
C 1862 4057 2227 3616 2227 3033 
C 2227 2477 1901 1998 1536 1583 
L 262 147 
L 262 0 
L 2515 0 
L 2669 990 
z
" transform="scale(0.015625)"/>
       </defs>
       <use xlink:href="#CMR17-32" transform="scale(0.996264)"/>
       <use xlink:href="#CMR17-30" transform="translate(45.690477 0) scale(0.996264)"/>
       <use xlink:href="#CMR17-30" transform="translate(91.380954 0) scale(0.996264)"/>
       <use xlink:href="#CMR17-30" transform="translate(137.071431 0) scale(0.996264)"/>
      </g>
     </g>
    </g>
    <g id="xtick_6">
     <g id="line2d_6">
      <g>
       <use xlink:href="#m24f8f44f17" x="244.598672" y="230.05211" style="stroke: #000000; stroke-width: 0.8"/>
      </g>
     </g>
     <g id="text_6">
      <!-- $\mathdefault{2500}$ -->
      <g transform="translate(234.636001 244.150431) scale(0.1 -0.1)">
       <use xlink:href="#CMR17-32" transform="scale(0.996264)"/>
       <use xlink:href="#CMR17-35" transform="translate(45.690477 0) scale(0.996264)"/>
       <use xlink:href="#CMR17-30" transform="translate(91.380954 0) scale(0.996264)"/>
       <use xlink:href="#CMR17-30" transform="translate(137.071431 0) scale(0.996264)"/>
      </g>
     </g>
    </g>
    <g id="xtick_7">
     <g id="line2d_7">
      <g>
       <use xlink:href="#m24f8f44f17" x="282.407819" y="230.05211" style="stroke: #000000; stroke-width: 0.8"/>
      </g>
     </g>
     <g id="text_7">
      <!-- $\mathdefault{3000}$ -->
      <g transform="translate(272.445148 244.150431) scale(0.1 -0.1)">
       <defs>
        <path id="CMR17-33" d="M 1414 2176 
C 1984 2176 2234 1673 2234 1094 
C 2234 322 1824 25 1453 25 
C 1114 25 563 193 390 691 
C 422 678 454 678 486 678 
C 640 678 755 780 755 947 
C 755 1132 614 1216 486 1216 
C 378 1216 211 1164 211 927 
C 211 335 787 -128 1466 -128 
C 2176 -128 2720 432 2720 1087 
C 2720 1718 2208 2176 1600 2246 
C 2086 2347 2554 2776 2554 3353 
C 2554 3856 2048 4224 1472 4224 
C 890 4224 378 3862 378 3347 
C 378 3123 544 3084 627 3084 
C 762 3084 877 3167 877 3334 
C 877 3500 762 3584 627 3584 
C 602 3584 570 3584 544 3571 
C 730 3999 1235 4076 1459 4076 
C 1683 4076 2106 3966 2106 3347 
C 2106 3167 2080 2851 1862 2574 
C 1670 2329 1453 2316 1242 2297 
C 1210 2297 1062 2284 1037 2284 
C 992 2278 966 2272 966 2227 
C 966 2182 973 2176 1101 2176 
L 1414 2176 
z
" transform="scale(0.015625)"/>
       </defs>
       <use xlink:href="#CMR17-33" transform="scale(0.996264)"/>
       <use xlink:href="#CMR17-30" transform="translate(45.690477 0) scale(0.996264)"/>
       <use xlink:href="#CMR17-30" transform="translate(91.380954 0) scale(0.996264)"/>
       <use xlink:href="#CMR17-30" transform="translate(137.071431 0) scale(0.996264)"/>
      </g>
     </g>
    </g>
    <g id="xtick_8">
     <g id="line2d_8">
      <g>
       <use xlink:href="#m24f8f44f17" x="320.216966" y="230.05211" style="stroke: #000000; stroke-width: 0.8"/>
      </g>
     </g>
     <g id="text_8">
      <!-- $\mathdefault{3500}$ -->
      <g transform="translate(310.254296 244.150431) scale(0.1 -0.1)">
       <use xlink:href="#CMR17-33" transform="scale(0.996264)"/>
       <use xlink:href="#CMR17-35" transform="translate(45.690477 0) scale(0.996264)"/>
       <use xlink:href="#CMR17-30" transform="translate(91.380954 0) scale(0.996264)"/>
       <use xlink:href="#CMR17-30" transform="translate(137.071431 0) scale(0.996264)"/>
      </g>
     </g>
    </g>
    <g id="xtick_9">
     <g id="line2d_9">
      <g>
       <use xlink:href="#m24f8f44f17" x="358.026114" y="230.05211" style="stroke: #000000; stroke-width: 0.8"/>
      </g>
     </g>
     <g id="text_9">
      <!-- $\mathdefault{4000}$ -->
      <g transform="translate(348.063443 244.150431) scale(0.1 -0.1)">
       <defs>
        <path id="CMR17-34" d="M 2150 4147 
C 2150 4281 2144 4288 2029 4288 
L 128 1254 
L 128 1088 
L 1779 1088 
L 1779 460 
C 1779 230 1766 166 1318 166 
L 1197 166 
L 1197 0 
C 1402 12 1747 12 1965 12 
C 2182 12 2528 12 2733 0 
L 2733 166 
L 2611 166 
C 2163 166 2150 230 2150 460 
L 2150 1088 
L 2803 1088 
L 2803 1254 
L 2150 1254 
L 2150 4147 
z
M 1798 3723 
L 1798 1254 
L 256 1254 
L 1798 3723 
z
" transform="scale(0.015625)"/>
       </defs>
       <use xlink:href="#CMR17-34" transform="scale(0.996264)"/>
       <use xlink:href="#CMR17-30" transform="translate(45.690477 0) scale(0.996264)"/>
       <use xlink:href="#CMR17-30" transform="translate(91.380954 0) scale(0.996264)"/>
       <use xlink:href="#CMR17-30" transform="translate(137.071431 0) scale(0.996264)"/>
      </g>
     </g>
    </g>
    <g id="text_10">
     <!-- Iteration -->
     <g transform="translate(189.787377 257.370737) scale(0.1 -0.1)">
      <defs>
       <path id="NimbusSanL-Regu-49" d="M 1242 4672 
L 640 4672 
L 640 0 
L 1242 0 
L 1242 4672 
z
" transform="scale(0.015625)"/>
       <path id="NimbusSanL-Regu-74" d="M 1626 3328 
L 1075 3328 
L 1075 4249 
L 544 4249 
L 544 3328 
L 90 3328 
L 90 2892 
L 544 2892 
L 544 402 
C 544 64 774 -128 1190 -128 
C 1318 -128 1446 -116 1626 -84 
L 1626 364 
C 1555 345 1472 339 1370 339 
C 1139 339 1075 402 1075 634 
L 1075 2892 
L 1626 2892 
L 1626 3328 
z
" transform="scale(0.015625)"/>
       <path id="NimbusSanL-Regu-65" d="M 3283 1484 
C 3283 1998 3245 2311 3149 2565 
C 2931 3123 2419 3456 1792 3456 
C 858 3456 256 2734 256 1619 
C 256 545 838 -128 1779 -128 
C 2547 -128 3078 307 3213 1018 
L 2675 1018 
C 2528 588 2227 364 1798 364 
C 1459 364 1171 514 992 787 
C 864 974 819 1161 813 1484 
L 3283 1484 
z
M 826 1920 
C 870 2552 1248 2963 1786 2963 
C 2310 2963 2714 2519 2714 1959 
C 2714 1946 2714 1933 2707 1920 
L 826 1920 
z
" transform="scale(0.015625)"/>
       <path id="NimbusSanL-Regu-72" d="M 442 3328 
L 442 0 
L 979 0 
L 979 1727 
C 979 2203 1101 2514 1357 2698 
C 1523 2819 1683 2857 2054 2863 
L 2054 3404 
C 1965 3449 1920 3456 1850 3456 
C 1504 3456 1242 3251 934 2750 
L 934 3328 
L 442 3328 
z
" transform="scale(0.015625)"/>
       <path id="NimbusSanL-Regu-61" d="M 3424 332 
C 3366 320 3341 320 3309 320 
C 3123 320 3021 415 3021 581 
L 3021 2542 
C 3021 3135 2586 3456 1760 3456 
C 1274 3456 870 3315 646 3065 
C 493 2893 429 2702 416 2370 
L 954 2370 
C 998 2778 1242 2963 1741 2963 
C 2221 2963 2490 2784 2490 2466 
L 2490 2326 
C 2490 2103 2355 2007 1933 1956 
C 1178 1861 1062 1835 858 1753 
C 467 1593 269 1294 269 861 
C 269 256 691 -128 1370 -128 
C 1792 -128 2131 19 2509 364 
C 2547 25 2714 -128 3059 -128 
C 3168 -128 3251 -116 3424 -71 
L 3424 332 
z
M 2490 1071 
C 2490 893 2438 785 2278 638 
C 2061 441 1798 339 1485 339 
C 1069 339 826 536 826 874 
C 826 1224 1062 1402 1632 1485 
C 2195 1562 2310 1587 2490 1670 
L 2490 1071 
z
" transform="scale(0.015625)"/>
       <path id="NimbusSanL-Regu-69" d="M 960 3358 
L 429 3358 
L 429 0 
L 960 0 
L 960 3358 
z
M 960 4672 
L 422 4672 
L 422 3999 
L 960 3999 
L 960 4672 
z
" transform="scale(0.015625)"/>
       <path id="NimbusSanL-Regu-6f" d="M 1741 3456 
C 800 3456 230 2784 230 1663 
C 230 543 794 -128 1747 -128 
C 2688 -128 3264 543 3264 1638 
C 3264 2791 2707 3456 1741 3456 
z
M 1747 2963 
C 2349 2963 2707 2472 2707 1644 
C 2707 861 2336 364 1747 364 
C 1152 364 787 855 787 1663 
C 787 2466 1152 2963 1747 2963 
z
" transform="scale(0.015625)"/>
       <path id="NimbusSanL-Regu-6e" d="M 448 3328 
L 448 0 
L 986 0 
L 986 1835 
C 986 2539 1344 2988 1894 2988 
C 2317 2988 2586 2732 2586 2328 
L 2586 0 
L 3117 0 
L 3117 2539 
C 3117 3097 2701 3456 2054 3456 
C 1555 3456 1235 3263 941 2796 
L 941 3328 
L 448 3328 
z
" transform="scale(0.015625)"/>
      </defs>
      <use xlink:href="#NimbusSanL-Regu-49" transform="scale(0.996264)"/>
      <use xlink:href="#NimbusSanL-Regu-74" transform="translate(27.69517 0) scale(0.996264)"/>
      <use xlink:href="#NimbusSanL-Regu-65" transform="translate(55.390339 0) scale(0.996264)"/>
      <use xlink:href="#NimbusSanL-Regu-72" transform="translate(110.782016 0) scale(0.996264)"/>
      <use xlink:href="#NimbusSanL-Regu-61" transform="translate(142.961149 0) scale(0.996264)"/>
      <use xlink:href="#NimbusSanL-Regu-74" transform="translate(198.352826 0) scale(0.996264)"/>
      <use xlink:href="#NimbusSanL-Regu-69" transform="translate(226.047996 0) scale(0.996264)"/>
      <use xlink:href="#NimbusSanL-Regu-6f" transform="translate(248.16478 0) scale(0.996264)"/>
      <use xlink:href="#NimbusSanL-Regu-6e" transform="translate(303.556457 0) scale(0.996264)"/>
     </g>
    </g>
   </g>
   <g id="matplotlib.axis_2">
    <g id="ytick_1">
     <g id="line2d_10">
      <defs>
       <path id="m3863fd83a0" d="M 0 0 
L -3.5 0 
" style="stroke: #000000; stroke-width: 0.8"/>
      </defs>
      <g>
       <use xlink:href="#m3863fd83a0" x="40.334753" y="221.200186" style="stroke: #000000; stroke-width: 0.8"/>
      </g>
     </g>
     <g id="text_11">
      <!-- $\mathdefault{−3}$ -->
      <g transform="translate(20.604674 224.749346) scale(0.1 -0.1)">
       <defs>
        <path id="CMSY10-0" d="M 4218 1472 
C 4326 1472 4442 1472 4442 1600 
C 4442 1728 4326 1728 4218 1728 
L 755 1728 
C 646 1728 531 1728 531 1600 
C 531 1472 646 1472 755 1472 
L 4218 1472 
z
" transform="scale(0.015625)"/>
       </defs>
       <use xlink:href="#CMSY10-0" transform="scale(0.996264)"/>
       <use xlink:href="#CMR17-33" transform="translate(77.487468 0) scale(0.996264)"/>
      </g>
     </g>
    </g>
    <g id="ytick_2">
     <g id="line2d_11">
      <g>
       <use xlink:href="#m3863fd83a0" x="40.334753" y="194.893808" style="stroke: #000000; stroke-width: 0.8"/>
      </g>
     </g>
     <g id="text_12">
      <!-- $\mathdefault{−2}$ -->
      <g transform="translate(20.604674 198.442968) scale(0.1 -0.1)">
       <use xlink:href="#CMSY10-0" transform="scale(0.996264)"/>
       <use xlink:href="#CMR17-32" transform="translate(77.487468 0) scale(0.996264)"/>
      </g>
     </g>
    </g>
    <g id="ytick_3">
     <g id="line2d_12">
      <g>
       <use xlink:href="#m3863fd83a0" x="40.334753" y="168.587429" style="stroke: #000000; stroke-width: 0.8"/>
      </g>
     </g>
     <g id="text_13">
      <!-- $\mathdefault{−1}$ -->
      <g transform="translate(20.604674 172.136589) scale(0.1 -0.1)">
       <use xlink:href="#CMSY10-0" transform="scale(0.996264)"/>
       <use xlink:href="#CMR17-31" transform="translate(77.487468 0) scale(0.996264)"/>
      </g>
     </g>
    </g>
    <g id="ytick_4">
     <g id="line2d_13">
      <g>
       <use xlink:href="#m3863fd83a0" x="40.334753" y="142.281051" style="stroke: #000000; stroke-width: 0.8"/>
      </g>
     </g>
     <g id="text_14">
      <!-- $\mathdefault{0}$ -->
      <g transform="translate(28.353418 145.830211) scale(0.1 -0.1)">
       <use xlink:href="#CMR17-30" transform="scale(0.996264)"/>
      </g>
     </g>
    </g>
    <g id="ytick_5">
     <g id="line2d_14">
      <g>
       <use xlink:href="#m3863fd83a0" x="40.334753" y="115.974673" style="stroke: #000000; stroke-width: 0.8"/>
      </g>
     </g>
     <g id="text_15">
      <!-- $\mathdefault{1}$ -->
      <g transform="translate(28.353418 119.523833) scale(0.1 -0.1)">
       <use xlink:href="#CMR17-31" transform="scale(0.996264)"/>
      </g>
     </g>
    </g>
    <g id="ytick_6">
     <g id="line2d_15">
      <g>
       <use xlink:href="#m3863fd83a0" x="40.334753" y="89.668295" style="stroke: #000000; stroke-width: 0.8"/>
      </g>
     </g>
     <g id="text_16">
      <!-- $\mathdefault{2}$ -->
      <g transform="translate(28.353418 93.217455) scale(0.1 -0.1)">
       <use xlink:href="#CMR17-32" transform="scale(0.996264)"/>
      </g>
     </g>
    </g>
    <g id="ytick_7">
     <g id="line2d_16">
      <g>
       <use xlink:href="#m3863fd83a0" x="40.334753" y="63.361917" style="stroke: #000000; stroke-width: 0.8"/>
      </g>
     </g>
     <g id="text_17">
      <!-- $\mathdefault{3}$ -->
      <g transform="translate(28.353418 66.911077) scale(0.1 -0.1)">
       <use xlink:href="#CMR17-33" transform="scale(0.996264)"/>
      </g>
     </g>
    </g>
    <g id="ytick_8">
     <g id="line2d_17">
      <g>
       <use xlink:href="#m3863fd83a0" x="40.334753" y="37.055538" style="stroke: #000000; stroke-width: 0.8"/>
      </g>
     </g>
     <g id="text_18">
      <!-- $\mathdefault{4}$ -->
      <g transform="translate(28.353418 40.604698) scale(0.1 -0.1)">
       <use xlink:href="#CMR17-34" transform="scale(0.996264)"/>
      </g>
     </g>
    </g>
    <g id="ytick_9">
     <g id="line2d_18">
      <g>
       <use xlink:href="#m3863fd83a0" x="40.334753" y="10.74916" style="stroke: #000000; stroke-width: 0.8"/>
      </g>
     </g>
     <g id="text_19">
      <!-- $\mathdefault{5}$ -->
      <g transform="translate(28.353418 14.29832) scale(0.1 -0.1)">
       <use xlink:href="#CMR17-35" transform="scale(0.996264)"/>
      </g>
     </g>
    </g>
    <g id="text_20">
     <!-- Aerodynamic Coefficients - Blade_20 -->
     <g transform="translate(14.482687 200.142557) rotate(-90) scale(0.1 -0.1)">
      <defs>
       <path id="NimbusSanL-Regu-41" d="M 3034 1408 
L 3514 0 
L 4179 0 
L 2541 4672 
L 1773 4672 
L 109 0 
L 742 0 
L 1235 1408 
L 3034 1408 
z
M 2867 1907 
L 1382 1907 
L 2150 4032 
L 2867 1907 
z
" transform="scale(0.015625)"/>
       <path id="NimbusSanL-Regu-64" d="M 3168 4672 
L 2637 4672 
L 2637 2937 
C 2413 3276 2054 3456 1606 3456 
C 736 3456 166 2759 166 1695 
C 166 568 723 -128 1626 -128 
C 2086 -128 2406 44 2694 460 
L 2694 19 
L 3168 19 
L 3168 4672 
z
M 1696 2956 
C 2272 2956 2637 2447 2637 1651 
C 2637 880 2266 371 1702 371 
C 1114 371 723 887 723 1663 
C 723 2440 1114 2956 1696 2956 
z
" transform="scale(0.015625)"/>
       <path id="NimbusSanL-Regu-79" d="M 2483 3328 
L 1555 724 
L 698 3328 
L 128 3328 
L 1261 -29 
L 1056 -558 
C 973 -794 851 -884 627 -884 
C 550 -884 461 -871 346 -845 
L 346 -1325 
C 454 -1383 563 -1408 704 -1408 
C 877 -1408 1062 -1351 1203 -1248 
C 1370 -1127 1466 -986 1568 -718 
L 3059 3328 
L 2483 3328 
z
" transform="scale(0.015625)"/>
       <path id="NimbusSanL-Regu-6d" d="M 448 3328 
L 448 0 
L 986 0 
L 986 2089 
C 986 2597 1338 2988 1773 2988 
C 2170 2988 2394 2744 2394 2315 
L 2394 0 
L 2931 0 
L 2931 2109 
C 2931 2597 3283 2988 3718 2988 
C 4109 2988 4339 2738 4339 2315 
L 4339 0 
L 4877 0 
L 4877 2520 
C 4877 3123 4531 3456 3904 3456 
C 3456 3456 3187 3321 2874 2943 
C 2675 3302 2406 3456 1971 3456 
C 1523 3456 1229 3289 941 2886 
L 941 3328 
L 448 3328 
z
" transform="scale(0.015625)"/>
       <path id="NimbusSanL-Regu-63" d="M 3014 2237 
C 2989 2561 2918 2771 2790 2956 
C 2560 3270 2157 3456 1690 3456 
C 787 3456 198 2740 198 1632 
C 198 555 774 -128 1683 -128 
C 2483 -128 2989 352 3053 1167 
L 2515 1167 
C 2426 632 2150 364 1696 364 
C 1107 364 755 842 755 1632 
C 755 2466 1101 2963 1683 2963 
C 2131 2963 2413 2701 2477 2237 
L 3014 2237 
z
" transform="scale(0.015625)"/>
       <path id="NimbusSanL-Regu-43" d="M 4237 3219 
C 4051 4236 3462 4736 2438 4736 
C 1811 4736 1306 4537 960 4154 
C 538 3696 307 3035 307 2284 
C 307 1522 544 867 986 415 
C 1344 44 1805 -128 2413 -128 
C 3552 -128 4192 485 4333 1712 
L 3718 1712 
C 3667 1394 3603 1178 3507 994 
C 3315 612 2918 396 2419 396 
C 1491 396 902 1134 902 2291 
C 902 3480 1466 4211 2368 4211 
C 2746 4211 3098 4096 3290 3918 
C 3462 3759 3558 3562 3629 3219 
L 4237 3219 
z
" transform="scale(0.015625)"/>
       <path id="NimbusSanL-Regu-66" d="M 1651 3328 
L 1094 3328 
L 1094 3860 
C 1094 4087 1222 4204 1466 4204 
C 1510 4204 1530 4204 1651 4198 
L 1651 4639 
C 1530 4665 1459 4672 1350 4672 
C 858 4672 563 4390 563 3905 
L 563 3328 
L 115 3328 
L 115 2892 
L 563 2892 
L 563 0 
L 1094 0 
L 1094 2892 
L 1651 2892 
L 1651 3328 
z
" transform="scale(0.015625)"/>
       <path id="NimbusSanL-Regu-2" d="M 1613 3328 
L 1056 3328 
L 1056 3860 
C 1056 4087 1184 4204 1427 4204 
C 1472 4204 1491 4204 1613 4198 
L 1613 4639 
C 1491 4665 1421 4672 1312 4672 
C 819 4672 525 4390 525 3905 
L 525 3328 
L 77 3328 
L 77 2892 
L 525 2892 
L 525 0 
L 1056 0 
L 1056 2892 
L 1613 2892 
L 1613 3328 
z
M 2790 3328 
L 2259 3328 
L 2259 0 
L 2790 0 
L 2790 3328 
z
M 2790 4672 
L 2259 4672 
L 2259 3999 
L 2790 3999 
L 2790 4672 
z
" transform="scale(0.015625)"/>
       <path id="NimbusSanL-Regu-73" d="M 2803 2428 
C 2797 3084 2362 3456 1587 3456 
C 806 3456 301 3052 301 2434 
C 301 1912 570 1663 1363 1472 
L 1862 1351 
C 2234 1262 2381 1129 2381 887 
C 2381 574 2067 364 1600 364 
C 1312 364 1069 447 934 587 
C 851 683 813 778 781 1014 
L 218 1014 
C 243 243 678 -128 1555 -128 
C 2400 -128 2938 288 2938 931 
C 2938 1428 2656 1702 1990 1861 
L 1478 1982 
C 1043 2084 858 2224 858 2459 
C 858 2765 1133 2963 1568 2963 
C 1997 2963 2227 2778 2240 2428 
L 2803 2428 
z
" transform="scale(0.015625)"/>
       <path id="NimbusSanL-Regu-2d" d="M 1818 1996 
L 294 1996 
L 294 1536 
L 1818 1536 
L 1818 1996 
z
" transform="scale(0.015625)"/>
       <path id="NimbusSanL-Regu-42" d="M 506 0 
L 2611 0 
C 3053 0 3379 121 3629 390 
C 3859 632 3987 961 3987 1321 
C 3987 1878 3731 2214 3136 2444 
C 3558 2643 3782 2994 3782 3476 
C 3782 3821 3654 4127 3411 4345 
C 3168 4569 2848 4672 2400 4672 
L 506 4672 
L 506 0 
z
M 1101 2636 
L 1101 4147 
L 2253 4147 
C 2586 4147 2771 4101 2931 3977 
C 3098 3847 3187 3652 3187 3391 
C 3187 3138 3098 2936 2931 2806 
C 2771 2682 2586 2636 2253 2636 
L 1101 2636 
z
M 1101 524 
L 1101 2112 
L 2554 2112 
C 2842 2112 3034 2042 3174 1890 
C 3315 1745 3392 1542 3392 1315 
C 3392 1093 3315 891 3174 746 
C 3034 594 2842 524 2554 524 
L 1101 524 
z
" transform="scale(0.015625)"/>
       <path id="NimbusSanL-Regu-6c" d="M 973 4672 
L 435 4672 
L 435 0 
L 973 0 
L 973 4672 
z
" transform="scale(0.015625)"/>
       <path id="NimbusSanL-Regu-32" d="M 3238 556 
L 851 556 
C 909 928 1114 1165 1670 1493 
L 2310 1839 
C 2944 2185 3270 2653 3270 3211 
C 3270 3589 3117 3942 2848 4185 
C 2579 4428 2246 4544 1818 4544 
C 1242 4544 813 4339 563 3955 
C 403 3711 333 3429 320 2967 
L 883 2967 
C 902 3275 941 3461 1018 3608 
C 1165 3884 1459 4051 1798 4051 
C 2310 4051 2694 3685 2694 3198 
C 2694 2839 2483 2531 2080 2300 
L 1491 1967 
C 544 1428 269 999 218 0 
L 3238 0 
L 3238 556 
z
" transform="scale(0.015625)"/>
       <path id="NimbusSanL-Regu-30" d="M 1760 4544 
C 1338 4544 954 4358 717 4044 
C 422 3649 275 3043 275 2207 
C 275 683 787 -128 1760 -128 
C 2720 -128 3245 683 3245 2169 
C 3245 3049 3104 3636 2803 4044 
C 2566 4364 2189 4544 1760 4544 
z
M 1760 4044 
C 2368 4044 2669 3432 2669 2220 
C 2669 938 2374 339 1747 339 
C 1152 339 851 964 851 2201 
C 851 3438 1152 4044 1760 4044 
z
" transform="scale(0.015625)"/>
      </defs>
      <use xlink:href="#NimbusSanL-Regu-41" transform="scale(0.996264)"/>
      <use xlink:href="#NimbusSanL-Regu-65" transform="translate(66.450031 0) scale(0.996264)"/>
      <use xlink:href="#NimbusSanL-Regu-72" transform="translate(121.841708 0) scale(0.996264)"/>
      <use xlink:href="#NimbusSanL-Regu-6f" transform="translate(155.016938 0) scale(0.996264)"/>
      <use xlink:href="#NimbusSanL-Regu-64" transform="translate(210.408615 0) scale(0.996264)"/>
      <use xlink:href="#NimbusSanL-Regu-79" transform="translate(265.800292 0) scale(0.996264)"/>
      <use xlink:href="#NimbusSanL-Regu-6e" transform="translate(315.613492 0) scale(0.996264)"/>
      <use xlink:href="#NimbusSanL-Regu-61" transform="translate(371.005169 0) scale(0.996264)"/>
      <use xlink:href="#NimbusSanL-Regu-6d" transform="translate(426.396846 0) scale(0.996264)"/>
      <use xlink:href="#NimbusSanL-Regu-69" transform="translate(509.385276 0) scale(0.996264)"/>
      <use xlink:href="#NimbusSanL-Regu-63" transform="translate(531.502061 0) scale(0.996264)"/>
      <use xlink:href="#NimbusSanL-Regu-43" transform="translate(609.010431 0) scale(0.996264)"/>
      <use xlink:href="#NimbusSanL-Regu-6f" transform="translate(680.940416 0) scale(0.996264)"/>
      <use xlink:href="#NimbusSanL-Regu-65" transform="translate(736.332093 0) scale(0.996264)"/>
      <use xlink:href="#NimbusSanL-Regu-66" transform="translate(791.72377 0) scale(0.996264)"/>
      <use xlink:href="#NimbusSanL-Regu-2" transform="translate(819.418939 0) scale(0.996264)"/>
      <use xlink:href="#NimbusSanL-Regu-63" transform="translate(869.23214 0) scale(0.996264)"/>
      <use xlink:href="#NimbusSanL-Regu-69" transform="translate(919.04534 0) scale(0.996264)"/>
      <use xlink:href="#NimbusSanL-Regu-65" transform="translate(941.162125 0) scale(0.996264)"/>
      <use xlink:href="#NimbusSanL-Regu-6e" transform="translate(996.553802 0) scale(0.996264)"/>
      <use xlink:href="#NimbusSanL-Regu-74" transform="translate(1051.945479 0) scale(0.996264)"/>
      <use xlink:href="#NimbusSanL-Regu-73" transform="translate(1079.640648 0) scale(0.996264)"/>
      <use xlink:href="#NimbusSanL-Regu-2d" transform="translate(1157.149018 0) scale(0.996264)"/>
      <use xlink:href="#NimbusSanL-Regu-42" transform="translate(1218.019418 0) scale(0.996264)"/>
      <use xlink:href="#NimbusSanL-Regu-6c" transform="translate(1284.469449 0) scale(0.996264)"/>
      <use xlink:href="#NimbusSanL-Regu-61" transform="translate(1306.586233 0) scale(0.996264)"/>
      <use xlink:href="#NimbusSanL-Regu-64" transform="translate(1361.97791 0) scale(0.996264)"/>
      <use xlink:href="#NimbusSanL-Regu-65" transform="translate(1417.369587 0) scale(0.996264)"/>
      <use xlink:href="#NimbusSanL-Regu-32" transform="translate(1508.626829 0) scale(0.996264)"/>
      <use xlink:href="#NimbusSanL-Regu-30" transform="translate(1564.018506 0) scale(0.996264)"/>
      <path d="M 1478.738605 0 
L 1508.626829 0 
L 1508.626829 0.3985 
L 1478.738605 0.3985 
L 1478.738605 0 
z
"/>
     </g>
    </g>
   </g>
   <g id="line2d_19">
    <path d="M 55.552935 92.25922 
L 55.77979 19.164711 
L 55.855408 18.37211 
L 55.931026 18.476605 
L 56.082263 21.358428 
L 56.384736 27.402246 
L 56.611591 27.899866 
L 56.989682 30.394141 
L 57.292155 31.118861 
L 57.51901 32.217672 
L 57.821484 34.927507 
L 57.97272 36.216396 
L 58.199575 36.722972 
L 58.42643 37.885692 
L 58.653285 40.585813 
L 58.88014 46.591437 
L 59.182613 55.127592 
L 59.409468 57.471629 
L 59.636323 62.609456 
L 59.863177 74.797749 
L 60.014414 81.892957 
L 60.241269 84.53912 
L 60.468124 89.546411 
L 61.148688 107.949247 
L 61.375543 109.409758 
L 61.904871 114.381581 
L 62.207345 112.830419 
L 62.509818 112.430679 
L 62.736673 111.669297 
L 62.963528 109.723277 
L 63.114764 108.70193 
L 63.417237 108.204232 
L 63.719711 107.193139 
L 64.097802 105.949091 
L 64.475893 105.947158 
L 64.702748 106.111369 
L 64.929603 106.516866 
L 65.232076 107.577533 
L 65.53455 108.720088 
L 65.912641 108.995704 
L 66.215114 109.214905 
L 66.290733 109.021363 
L 66.593206 107.295881 
L 66.820061 106.938339 
L 67.046915 106.195382 
L 67.27377 104.292191 
L 67.651862 99.968529 
L 67.878717 99.357459 
L 68.18119 97.662271 
L 68.6349 94.669918 
L 68.937373 94.223609 
L 69.617937 92.92508 
L 69.996029 92.999064 
L 70.147266 93.201071 
L 70.298502 93.730141 
L 70.449739 95.018079 
L 70.600975 96.285103 
L 70.82783 96.777448 
L 71.054685 97.818025 
L 71.28154 99.970985 
L 71.584013 105.966684 
L 71.810868 109.975187 
L 72.037723 110.791982 
L 72.340196 113.081278 
L 72.793906 117.537615 
L 73.096379 118.445723 
L 73.323234 119.780521 
L 73.550089 122.207723 
L 73.776944 124.970904 
L 74.079417 125.827184 
L 74.306272 127.110314 
L 74.608745 130.516132 
L 74.911218 134.33209 
L 75.213691 134.952708 
L 75.818638 136.660237 
L 75.969874 136.388626 
L 76.121111 136.094241 
L 76.423584 135.921554 
L 76.650439 135.578701 
L 76.877294 134.759397 
L 77.48224 131.532489 
L 77.709095 131.061842 
L 77.93595 130.144337 
L 78.162805 128.417087 
L 78.38966 126.403585 
L 78.616515 126.010079 
L 78.843369 125.226074 
L 79.070224 123.695878 
L 79.297079 120.312278 
L 79.599552 113.465212 
L 79.826407 112.589352 
L 80.12888 110.163694 
L 80.58259 105.983852 
L 81.263155 105.67955 
L 81.414391 105.932825 
L 81.94372 107.265326 
L 82.170574 107.819103 
L 82.397429 109.015794 
L 82.548666 109.727745 
L 82.851139 110.12127 
L 83.077994 110.76163 
L 83.304849 112.038189 
L 83.607322 113.745032 
L 83.909795 114.383132 
L 84.13665 115.410655 
L 84.363505 117.465928 
L 84.59036 119.873841 
L 84.892833 120.583063 
L 85.195306 122.135577 
L 85.800253 126.121959 
L 86.102726 126.71267 
L 86.707672 128.19971 
L 87.237 128.108051 
L 87.463855 127.860862 
L 87.69071 127.161446 
L 87.841947 126.712161 
L 88.14442 126.471932 
L 88.446893 125.855566 
L 88.673748 124.885739 
L 88.900603 123.744112 
L 89.203076 123.411356 
L 89.505549 122.607386 
L 90.034877 120.699486 
L 90.33735 120.220929 
L 90.639823 119.199941 
L 90.866678 118.365326 
L 91.24477 118.041337 
L 91.547243 117.42918 
L 91.69848 117.194677 
L 92.152189 116.976021 
L 92.530281 116.527983 
L 92.757136 116.2557 
L 93.362082 116.039491 
L 93.967028 115.736917 
L 94.723211 115.781896 
L 95.101303 116.095905 
L 95.403776 116.281733 
L 95.630631 116.641165 
L 95.857486 117.522107 
L 96.008722 118.090526 
L 96.311196 118.402691 
L 96.53805 118.917663 
L 96.764905 119.902773 
L 97.218615 122.198615 
L 97.521088 122.582334 
L 97.89918 123.559322 
L 98.201653 124.240851 
L 98.504126 124.28612 
L 98.957836 124.179293 
L 99.184691 123.860037 
L 99.335927 123.636934 
L 99.714019 123.462531 
L 100.016492 123.057798 
L 100.243347 122.368171 
L 100.394583 121.95734 
L 100.697057 121.739748 
L 100.99953 121.207329 
L 101.302003 120.024818 
L 101.604476 118.905524 
L 101.982568 118.636625 
L 102.285041 118.111683 
L 102.814369 117.004791 
L 103.19246 116.654001 
L 103.494934 116.055094 
L 103.64617 115.823638 
L 104.09988 115.600519 
L 104.402353 115.195367 
L 104.629208 114.843428 
L 105.082918 114.656168 
L 105.385391 114.333277 
L 105.763482 113.890955 
L 106.29281 113.661797 
L 106.670902 113.46059 
L 107.124612 113.520615 
L 107.502703 113.699039 
L 107.729558 114.11392 
L 107.880795 114.408129 
L 108.258886 114.646792 
L 108.561359 115.188421 
L 108.939451 116.140698 
L 109.241924 116.397395 
L 109.544397 116.981201 
L 109.998107 118.151304 
L 110.376198 118.44589 
L 110.75429 119.099924 
L 110.981145 119.447782 
L 111.586091 119.679231 
L 111.964183 119.820464 
L 113.85464 119.388049 
L 114.459586 119.286971 
L 117.106227 119.191319 
L 117.86241 118.942208 
L 119.374775 118.45811 
L 120.206577 118.56478 
L 120.584668 118.738984 
L 121.038378 118.91945 
L 121.340851 119.29569 
L 121.718943 119.734593 
L 122.172652 119.928538 
L 123.004454 120.465405 
L 124.214346 120.041957 
L 124.894911 119.631815 
L 125.877949 119.715692 
L 126.634132 119.892918 
L 127.919643 120.092159 
L 129.053917 119.79812 
L 129.35639 119.634439 
L 129.885718 119.473967 
L 130.71752 119.036524 
L 132.003031 118.716912 
L 132.759214 118.750846 
L 133.969106 118.992359 
L 135.027762 119.192077 
L 136.313273 119.287327 
L 138.733059 119.312912 
L 139.186769 119.106488 
L 140.169806 118.521155 
L 140.547898 118.284914 
L 140.850371 118.095337 
L 141.379699 117.937753 
L 142.060264 117.653354 
L 142.892065 117.635603 
L 143.345775 118.014666 
L 145.009377 119.785684 
L 145.916797 120.19319 
L 149.31962 120.157782 
L 150.000185 120.031288 
L 150.453895 119.940142 
L 151.134459 119.767488 
L 152.041879 119.490911 
L 154.234809 119.354461 
L 155.369084 119.220646 
L 158.166961 118.723149 
L 159.603708 118.862798 
L 160.359891 119.00876 
L 160.662364 119.061474 
L 161.342929 119.211379 
L 161.721021 119.310744 
L 162.401585 119.47141 
L 162.779677 119.568 
L 164.292043 119.804473 
L 165.653172 119.975978 
L 169.509705 119.915622 
L 171.627017 119.471529 
L 172.610055 119.209018 
L 174.424894 118.672367 
L 175.181077 118.444326 
L 175.786023 118.371629 
L 177.222771 118.606789 
L 177.978954 118.766098 
L 178.432664 118.949885 
L 178.810755 119.080162 
L 179.415701 119.255757 
L 179.793793 119.373064 
L 180.398739 119.521783 
L 180.928067 119.681024 
L 181.533014 119.84836 
L 181.835487 119.897779 
L 184.633364 119.997181 
L 185.011455 119.950575 
L 185.616402 119.820085 
L 185.918875 119.76877 
L 186.599439 119.618223 
L 186.977531 119.515736 
L 187.658096 119.348779 
L 188.414279 119.073179 
L 189.094843 119.055479 
L 193.329468 119.542311 
L 194.99307 119.43426 
L 195.824871 119.334488 
L 198.320275 119.091716 
L 201.19377 119.18143 
L 203.159846 119.412653 
L 206.638288 119.614615 
L 208.528745 119.494504 
L 210.721675 119.292901 
L 212.990224 119.358623 
L 216.997994 119.452586 
L 220.70329 119.345693 
L 222.669366 119.294757 
L 228.113883 119.531584 
L 229.853104 119.417302 
L 231.743561 119.301825 
L 235.070766 119.380856 
L 237.263697 119.469905 
L 240.364047 119.426794 
L 242.783832 119.407614 
L 246.262274 119.417616 
L 254.504668 119.429953 
L 256.697599 119.465568 
L 261.53717 119.368589 
L 281.878491 119.400801 
L 292.99438 119.406742 
L 320.595058 119.414874 
L 359.916571 119.407395 
L 359.916571 119.407395 
" clip-path="url(#p991de42ec5)" style="fill: none; stroke: #1f77b4; stroke-width: 1.5; stroke-linecap: square"/>
   </g>
   <g id="line2d_20">
    <path d="M 55.552935 167.951937 
L 55.77979 219.578446 
L 55.855408 219.97211 
L 55.931026 219.814686 
L 56.157881 216.863045 
L 56.384736 215.356138 
L 56.687209 216.138102 
L 56.989682 216.123004 
L 57.51901 216.168877 
L 57.745865 216.113802 
L 57.97272 216.270491 
L 58.42643 216.236039 
L 58.577666 216.007445 
L 58.728903 215.392837 
L 58.955758 213.30931 
L 59.106995 211.874358 
L 59.333849 211.328578 
L 59.560704 210.046787 
L 59.787559 206.634256 
L 60.090032 200.877332 
L 60.316887 199.274602 
L 60.543742 196.147001 
L 61.148688 185.389028 
L 61.375543 183.716485 
L 61.602398 180.056655 
L 62.131726 168.956705 
L 62.358581 168.138283 
L 62.661054 165.870618 
L 63.039146 163.396304 
L 63.341619 163.283337 
L 63.568474 162.988786 
L 63.870947 162.102227 
L 64.249039 160.780657 
L 64.475893 160.569051 
L 64.778367 159.903457 
L 65.005222 158.792006 
L 65.307695 155.256785 
L 65.53455 153.009736 
L 65.761404 152.675969 
L 66.063878 151.651502 
L 66.290733 150.79388 
L 66.366351 150.829173 
L 66.517587 151.326611 
L 66.820061 151.688009 
L 67.046915 152.344098 
L 67.27377 154.152569 
L 67.651862 158.690559 
L 67.878717 159.443477 
L 68.105572 160.926887 
L 68.332426 163.729537 
L 68.559281 166.825549 
L 68.786136 167.404495 
L 69.012991 168.521101 
L 69.315464 171.44247 
L 69.542319 173.674264 
L 69.844792 174.247104 
L 70.147266 175.396185 
L 70.525357 176.973209 
L 71.054685 176.960388 
L 71.28154 176.711673 
L 71.508395 175.931397 
L 71.810868 174.990781 
L 72.18896 174.695902 
L 72.491433 174.183268 
L 72.793906 173.634503 
L 73.096379 173.391065 
L 73.323234 172.955918 
L 73.550089 171.817122 
L 73.852562 169.77245 
L 74.079417 169.198419 
L 74.306272 168.021646 
L 74.533127 165.491466 
L 74.759982 160.111081 
L 74.911218 157.20308 
L 75.138073 156.205514 
L 75.364928 154.347682 
L 75.667401 149.892779 
L 76.045493 144.427453 
L 76.423584 144.19424 
L 76.726057 143.967071 
L 76.877294 144.104917 
L 77.104149 144.989998 
L 77.406622 146.033442 
L 77.709095 146.433168 
L 77.93595 147.098283 
L 78.162805 148.403999 
L 78.38966 150.051385 
L 78.616515 150.383257 
L 78.843369 151.061423 
L 79.070224 152.416088 
L 79.297079 155.398855 
L 79.675171 161.947067 
L 79.902026 163.085174 
L 80.204499 166.245421 
L 80.58259 170.790195 
L 80.885063 171.227244 
L 81.49001 172.293509 
L 82.321811 171.439239 
L 82.624284 170.812665 
L 82.926757 170.557266 
L 83.153612 170.118075 
L 83.380467 169.165484 
L 83.531704 168.584493 
L 83.834177 168.264707 
L 84.061032 167.745511 
L 84.287887 166.694225 
L 84.665978 164.421935 
L 84.968451 163.812708 
L 85.270925 162.432654 
L 85.724634 159.628574 
L 86.027107 159.124892 
L 86.329581 158.133367 
L 86.78329 156.35115 
L 87.312618 156.03217 
L 87.615092 155.897161 
L 88.598129 156.765811 
L 89.051839 157.749026 
L 89.354312 158.079364 
L 89.581167 158.605206 
L 89.959259 159.712709 
L 90.261732 160.020411 
L 90.564205 160.760613 
L 90.942297 161.936627 
L 91.24477 162.235249 
L 91.547243 162.895821 
L 91.69848 163.156137 
L 92.152189 163.403341 
L 92.530281 163.925982 
L 92.757136 164.252893 
L 93.286464 164.460019 
L 94.042647 164.899641 
L 94.79883 164.903704 
L 95.025685 164.799409 
L 95.479394 164.639229 
L 95.706249 164.376677 
L 96.159959 163.616209 
L 96.462432 163.331798 
L 96.689287 162.858074 
L 96.99176 161.558237 
L 97.142997 161.07596 
L 97.44547 160.831959 
L 97.747943 160.28328 
L 98.504126 158.500616 
L 98.957836 158.219941 
L 99.335927 157.996946 
L 100.167729 158.050592 
L 100.54582 158.263349 
L 100.923912 158.431198 
L 101.226385 158.839533 
L 101.680094 159.667358 
L 102.058186 159.876205 
L 102.360659 160.306325 
L 102.738751 161.004973 
L 103.116842 161.263088 
L 103.419315 161.763541 
L 103.64617 162.194628 
L 104.09988 162.428933 
L 104.402353 162.830375 
L 104.629208 163.156055 
L 105.158536 163.373374 
L 105.990337 163.921611 
L 106.74652 164.00602 
L 107.427085 163.884522 
L 107.729558 163.593922 
L 107.880795 163.435019 
L 108.334504 163.261349 
L 108.636978 162.912226 
L 108.939451 162.547735 
L 109.393161 162.297179 
L 109.695634 161.8662 
L 109.922489 161.515378 
L 110.376198 161.334372 
L 110.75429 160.952826 
L 111.056763 160.720593 
L 111.737328 160.502384 
L 112.191037 160.434678 
L 113.022839 160.523229 
L 113.40093 160.567123 
L 119.979722 160.985055 
L 121.416469 160.805835 
L 122.097034 160.747019 
L 122.853217 160.792373 
L 123.987491 161.04254 
L 124.819293 161.090587 
L 125.499857 160.955592 
L 126.029185 160.759811 
L 126.25604 160.689451 
L 126.936605 160.516487 
L 127.390315 160.373536 
L 128.978299 160.361482 
L 132.607977 161.330338 
L 134.195961 161.326619 
L 134.876526 161.230144 
L 135.330236 161.067154 
L 135.783945 160.886067 
L 136.388892 160.704403 
L 136.766983 160.579675 
L 137.447548 160.393465 
L 137.825639 160.295572 
L 139.11115 160.284667 
L 140.925989 161.072889 
L 141.530936 161.243106 
L 141.984646 161.385925 
L 143.345775 161.398401 
L 144.631286 160.778011 
L 146.143652 160.138456 
L 149.092765 160.056925 
L 149.924567 160.165962 
L 150.605131 160.320231 
L 151.210078 160.546089 
L 151.96626 160.797779 
L 152.87368 160.818447 
L 156.125267 160.803675 
L 157.713251 161.17488 
L 159.452472 161.110056 
L 160.737983 160.97867 
L 162.250349 160.778618 
L 163.611478 160.599523 
L 165.501935 160.450715 
L 166.63621 160.314357 
L 168.37543 160.168451 
L 169.73656 160.120098 
L 171.853872 160.414811 
L 172.156345 160.466067 
L 172.83691 160.612437 
L 173.215001 160.710049 
L 173.895566 160.86921 
L 174.273657 160.965564 
L 175.02984 161.133025 
L 175.786023 161.293816 
L 177.071534 161.250811 
L 179.340083 160.961203 
L 180.776831 160.666843 
L 181.533014 160.508707 
L 181.835487 160.457659 
L 182.59167 160.289071 
L 182.894143 160.241025 
L 183.725944 160.073978 
L 184.406509 160.001617 
L 186.448203 160.316813 
L 189.019225 161.175019 
L 189.69979 161.041558 
L 190.455973 160.881728 
L 194.463742 160.375 
L 196.051726 160.482465 
L 197.337237 160.647439 
L 198.849603 160.801872 
L 201.269389 160.923322 
L 204.29412 160.715378 
L 207.772562 160.432773 
L 208.906836 160.48864 
L 212.30966 160.814587 
L 216.771139 160.647855 
L 218.585978 160.703012 
L 221.686328 160.662264 
L 223.879259 160.749619 
L 226.752754 160.624293 
L 228.945685 160.544004 
L 230.306814 160.612954 
L 232.499744 160.75659 
L 236.205041 160.715325 
L 238.397971 160.615743 
L 240.742139 160.618508 
L 243.76687 160.680833 
L 276.207119 160.679321 
L 326.039575 160.675377 
L 338.138502 160.667022 
L 359.916571 160.669388 
L 359.916571 160.669388 
" clip-path="url(#p991de42ec5)" style="fill: none; stroke: #ff7f0e; stroke-width: 1.5; stroke-linecap: square"/>
   </g>
   <g id="patch_3">
    <path d="M 40.334753 230.05211 
L 40.334753 8.29211 
" style="fill: none; stroke: #000000; stroke-width: 0.8; stroke-linejoin: miter; stroke-linecap: square"/>
   </g>
   <g id="patch_4">
    <path d="M 375.134753 230.05211 
L 375.134753 8.29211 
" style="fill: none; stroke: #000000; stroke-width: 0.8; stroke-linejoin: miter; stroke-linecap: square"/>
   </g>
   <g id="patch_5">
    <path d="M 40.334753 230.05211 
L 375.134753 230.05211 
" style="fill: none; stroke: #000000; stroke-width: 0.8; stroke-linejoin: miter; stroke-linecap: square"/>
   </g>
   <g id="patch_6">
    <path d="M 40.334753 8.29211 
L 375.134753 8.29211 
" style="fill: none; stroke: #000000; stroke-width: 0.8; stroke-linejoin: miter; stroke-linecap: square"/>
   </g>
   <g id="legend_1">
    <g id="patch_7">
     <path d="M 321.748759 44.732724 
L 368.134753 44.732724 
Q 370.134753 44.732724 370.134753 42.732724 
L 370.134753 15.29211 
Q 370.134753 13.29211 368.134753 13.29211 
L 321.748759 13.29211 
Q 319.748759 13.29211 319.748759 15.29211 
L 319.748759 42.732724 
Q 319.748759 44.732724 321.748759 44.732724 
z
" style="fill: #ffffff; opacity: 0.8; stroke: #cccccc; stroke-linejoin: miter"/>
    </g>
    <g id="line2d_21">
     <path d="M 323.748759 20.890431 
L 333.748759 20.890431 
L 343.748759 20.890431 
" style="fill: none; stroke: #1f77b4; stroke-width: 1.5; stroke-linecap: square"/>
    </g>
    <g id="text_21">
     <!-- CD -->
     <g transform="translate(351.748759 24.390431) scale(0.1 -0.1)">
      <defs>
       <path id="NimbusSanL-Regu-44" d="M 570 0 
L 2368 0 
C 3546 0 4269 883 4269 2339 
C 4269 3788 3552 4672 2368 4672 
L 570 4672 
L 570 0 
z
M 1165 524 
L 1165 4147 
L 2266 4147 
C 3187 4147 3674 3525 3674 2332 
C 3674 1153 3187 524 2266 524 
L 1165 524 
z
" transform="scale(0.015625)"/>
      </defs>
      <use xlink:href="#NimbusSanL-Regu-43" transform="scale(0.996264)"/>
      <use xlink:href="#NimbusSanL-Regu-44" transform="translate(71.929985 0) scale(0.996264)"/>
     </g>
    </g>
    <g id="line2d_22">
     <path d="M 323.748759 35.110737 
L 333.748759 35.110737 
L 343.748759 35.110737 
" style="fill: none; stroke: #ff7f0e; stroke-width: 1.5; stroke-linecap: square"/>
    </g>
    <g id="text_22">
     <!-- CL -->
     <g transform="translate(351.748759 38.610737) scale(0.1 -0.1)">
      <defs>
       <path id="NimbusSanL-Regu-4c" d="M 1107 4672 
L 512 4672 
L 512 0 
L 3411 0 
L 3411 524 
L 1107 524 
L 1107 4672 
z
" transform="scale(0.015625)"/>
      </defs>
      <use xlink:href="#NimbusSanL-Regu-43" transform="scale(0.996264)"/>
      <use xlink:href="#NimbusSanL-Regu-4c" transform="translate(71.929985 0) scale(0.996264)"/>
     </g>
    </g>
   </g>
  </g>
 </g>
 <defs>
  <clipPath id="p991de42ec5">
   <rect x="40.334753" y="8.29211" width="334.8" height="221.76"/>
  </clipPath>
 </defs>
</svg>
