<?xml version="1.0" encoding="utf-8" standalone="no"?>
<!DOCTYPE svg PUBLIC "-//W3C//DTD SVG 1.1//EN"
  "http://www.w3.org/Graphics/SVG/1.1/DTD/svg11.dtd">
<svg xmlns:xlink="http://www.w3.org/1999/xlink" width="379.567344pt" height="265.600613pt" viewBox="0 0 379.567344 265.600613" xmlns="http://www.w3.org/2000/svg" version="1.1">
 <metadata>
  <rdf:RDF xmlns:dc="http://purl.org/dc/elements/1.1/" xmlns:cc="http://creativecommons.org/ns#" xmlns:rdf="http://www.w3.org/1999/02/22-rdf-syntax-ns#">
   <cc:Work>
    <dc:type rdf:resource="http://purl.org/dc/dcmitype/StillImage"/>
    <dc:date>2025-07-17T22:00:43.446880</dc:date>
    <dc:format>image/svg+xml</dc:format>
    <dc:creator>
     <cc:Agent>
      <dc:title>Matplotlib v3.10.3, https://matplotlib.org/</dc:title>
     </cc:Agent>
    </dc:creator>
   </cc:Work>
  </rdf:RDF>
 </metadata>
 <defs>
  <style type="text/css">*{stroke-linejoin: round; stroke-linecap: butt}</style>
 </defs>
 <g id="figure_1">
  <g id="patch_1">
   <path d="M 0 265.600613 
L 379.567344 265.600613 
L 379.567344 0 
L 0 0 
z
" style="fill: #ffffff"/>
  </g>
  <g id="axes_1">
   <g id="patch_2">
    <path d="M 37.567344 228.96 
L 372.367344 228.96 
L 372.367344 7.2 
L 37.567344 7.2 
z
" style="fill: #ffffff"/>
   </g>
   <g id="matplotlib.axis_1">
    <g id="xtick_1">
     <g id="line2d_1">
      <defs>
       <path id="m4981619331" d="M 0 0 
L 0 3.5 
" style="stroke: #000000; stroke-width: 0.8"/>
      </defs>
      <g>
       <use xlink:href="#m4981619331" x="52.785526" y="228.96" style="stroke: #000000; stroke-width: 0.8"/>
      </g>
     </g>
     <g id="text_1">
      <!-- $\mathdefault{0}$ -->
      <g transform="translate(50.294859 243.05832) scale(0.1 -0.1)">
       <defs>
        <path id="CMR17-30" d="M 2688 2038 
C 2688 2430 2682 3099 2413 3613 
C 2176 4063 1798 4224 1466 4224 
C 1158 4224 768 4082 525 3620 
C 269 3137 243 2539 243 2038 
C 243 1671 250 1112 448 623 
C 723 -39 1216 -128 1466 -128 
C 1760 -128 2208 -7 2470 604 
C 2662 1048 2688 1568 2688 2038 
z
M 1466 -26 
C 1056 -26 813 328 723 816 
C 653 1196 653 1749 653 2109 
C 653 2604 653 3015 736 3407 
C 858 3954 1216 4121 1466 4121 
C 1728 4121 2067 3947 2189 3420 
C 2272 3054 2278 2623 2278 2109 
C 2278 1691 2278 1176 2202 797 
C 2067 96 1690 -26 1466 -26 
z
" transform="scale(0.015625)"/>
       </defs>
       <use xlink:href="#CMR17-30" transform="scale(0.996264)"/>
      </g>
     </g>
    </g>
    <g id="xtick_2">
     <g id="line2d_2">
      <g>
       <use xlink:href="#m4981619331" x="90.594674" y="228.96" style="stroke: #000000; stroke-width: 0.8"/>
      </g>
     </g>
     <g id="text_2">
      <!-- $\mathdefault{500}$ -->
      <g transform="translate(83.122671 243.05832) scale(0.1 -0.1)">
       <defs>
        <path id="CMR17-35" d="M 730 3750 
C 794 3724 1056 3641 1325 3641 
C 1920 3641 2246 3961 2432 4140 
C 2432 4191 2432 4224 2394 4224 
C 2387 4224 2374 4224 2323 4198 
C 2099 4102 1837 4032 1517 4032 
C 1325 4032 1037 4055 723 4191 
C 653 4224 640 4224 634 4224 
C 602 4224 595 4217 595 4090 
L 595 2231 
C 595 2113 595 2080 659 2080 
C 691 2080 704 2093 736 2139 
C 941 2435 1222 2560 1542 2560 
C 1766 2560 2246 2415 2246 1293 
C 2246 1087 2246 716 2054 422 
C 1894 159 1645 25 1370 25 
C 947 25 518 319 403 812 
C 429 806 480 793 506 793 
C 589 793 749 838 749 1036 
C 749 1209 627 1280 506 1280 
C 358 1280 262 1190 262 1011 
C 262 454 704 -128 1382 -128 
C 2042 -128 2669 441 2669 1267 
C 2669 2054 2170 2662 1549 2662 
C 1222 2662 947 2540 730 2304 
L 730 3750 
z
" transform="scale(0.015625)"/>
       </defs>
       <use xlink:href="#CMR17-35" transform="scale(0.996264)"/>
       <use xlink:href="#CMR17-30" transform="translate(45.690477 0) scale(0.996264)"/>
       <use xlink:href="#CMR17-30" transform="translate(91.380954 0) scale(0.996264)"/>
      </g>
     </g>
    </g>
    <g id="xtick_3">
     <g id="line2d_3">
      <g>
       <use xlink:href="#m4981619331" x="128.403821" y="228.96" style="stroke: #000000; stroke-width: 0.8"/>
      </g>
     </g>
     <g id="text_3">
      <!-- $\mathdefault{1000}$ -->
      <g transform="translate(118.44115 243.05832) scale(0.1 -0.1)">
       <defs>
        <path id="CMR17-31" d="M 1702 4083 
C 1702 4217 1696 4224 1606 4224 
C 1357 3927 979 3833 621 3820 
C 602 3820 570 3820 563 3808 
C 557 3795 557 3782 557 3648 
C 755 3648 1088 3686 1344 3839 
L 1344 467 
C 1344 243 1331 166 781 166 
L 589 166 
L 589 0 
C 896 6 1216 12 1523 12 
C 1830 12 2150 6 2458 0 
L 2458 166 
L 2266 166 
C 1715 166 1702 236 1702 467 
L 1702 4083 
z
" transform="scale(0.015625)"/>
       </defs>
       <use xlink:href="#CMR17-31" transform="scale(0.996264)"/>
       <use xlink:href="#CMR17-30" transform="translate(45.690477 0) scale(0.996264)"/>
       <use xlink:href="#CMR17-30" transform="translate(91.380954 0) scale(0.996264)"/>
       <use xlink:href="#CMR17-30" transform="translate(137.071431 0) scale(0.996264)"/>
      </g>
     </g>
    </g>
    <g id="xtick_4">
     <g id="line2d_4">
      <g>
       <use xlink:href="#m4981619331" x="166.212968" y="228.96" style="stroke: #000000; stroke-width: 0.8"/>
      </g>
     </g>
     <g id="text_4">
      <!-- $\mathdefault{1500}$ -->
      <g transform="translate(156.250298 243.05832) scale(0.1 -0.1)">
       <use xlink:href="#CMR17-31" transform="scale(0.996264)"/>
       <use xlink:href="#CMR17-35" transform="translate(45.690477 0) scale(0.996264)"/>
       <use xlink:href="#CMR17-30" transform="translate(91.380954 0) scale(0.996264)"/>
       <use xlink:href="#CMR17-30" transform="translate(137.071431 0) scale(0.996264)"/>
      </g>
     </g>
    </g>
    <g id="xtick_5">
     <g id="line2d_5">
      <g>
       <use xlink:href="#m4981619331" x="204.022116" y="228.96" style="stroke: #000000; stroke-width: 0.8"/>
      </g>
     </g>
     <g id="text_5">
      <!-- $\mathdefault{2000}$ -->
      <g transform="translate(194.059445 243.05832) scale(0.1 -0.1)">
       <defs>
        <path id="CMR17-32" d="M 2669 990 
L 2554 990 
C 2490 537 2438 460 2413 422 
C 2381 371 1920 371 1830 371 
L 602 371 
C 832 620 1280 1073 1824 1596 
C 2214 1966 2669 2400 2669 3033 
C 2669 3788 2067 4224 1395 4224 
C 691 4224 262 3603 262 3027 
C 262 2777 448 2745 525 2745 
C 589 2745 781 2783 781 3007 
C 781 3206 614 3264 525 3264 
C 486 3264 448 3257 422 3244 
C 544 3788 915 4057 1306 4057 
C 1862 4057 2227 3616 2227 3033 
C 2227 2477 1901 1998 1536 1583 
L 262 147 
L 262 0 
L 2515 0 
L 2669 990 
z
" transform="scale(0.015625)"/>
       </defs>
       <use xlink:href="#CMR17-32" transform="scale(0.996264)"/>
       <use xlink:href="#CMR17-30" transform="translate(45.690477 0) scale(0.996264)"/>
       <use xlink:href="#CMR17-30" transform="translate(91.380954 0) scale(0.996264)"/>
       <use xlink:href="#CMR17-30" transform="translate(137.071431 0) scale(0.996264)"/>
      </g>
     </g>
    </g>
    <g id="xtick_6">
     <g id="line2d_6">
      <g>
       <use xlink:href="#m4981619331" x="241.831263" y="228.96" style="stroke: #000000; stroke-width: 0.8"/>
      </g>
     </g>
     <g id="text_6">
      <!-- $\mathdefault{2500}$ -->
      <g transform="translate(231.868593 243.05832) scale(0.1 -0.1)">
       <use xlink:href="#CMR17-32" transform="scale(0.996264)"/>
       <use xlink:href="#CMR17-35" transform="translate(45.690477 0) scale(0.996264)"/>
       <use xlink:href="#CMR17-30" transform="translate(91.380954 0) scale(0.996264)"/>
       <use xlink:href="#CMR17-30" transform="translate(137.071431 0) scale(0.996264)"/>
      </g>
     </g>
    </g>
    <g id="xtick_7">
     <g id="line2d_7">
      <g>
       <use xlink:href="#m4981619331" x="279.64041" y="228.96" style="stroke: #000000; stroke-width: 0.8"/>
      </g>
     </g>
     <g id="text_7">
      <!-- $\mathdefault{3000}$ -->
      <g transform="translate(269.67774 243.05832) scale(0.1 -0.1)">
       <defs>
        <path id="CMR17-33" d="M 1414 2176 
C 1984 2176 2234 1673 2234 1094 
C 2234 322 1824 25 1453 25 
C 1114 25 563 193 390 691 
C 422 678 454 678 486 678 
C 640 678 755 780 755 947 
C 755 1132 614 1216 486 1216 
C 378 1216 211 1164 211 927 
C 211 335 787 -128 1466 -128 
C 2176 -128 2720 432 2720 1087 
C 2720 1718 2208 2176 1600 2246 
C 2086 2347 2554 2776 2554 3353 
C 2554 3856 2048 4224 1472 4224 
C 890 4224 378 3862 378 3347 
C 378 3123 544 3084 627 3084 
C 762 3084 877 3167 877 3334 
C 877 3500 762 3584 627 3584 
C 602 3584 570 3584 544 3571 
C 730 3999 1235 4076 1459 4076 
C 1683 4076 2106 3966 2106 3347 
C 2106 3167 2080 2851 1862 2574 
C 1670 2329 1453 2316 1242 2297 
C 1210 2297 1062 2284 1037 2284 
C 992 2278 966 2272 966 2227 
C 966 2182 973 2176 1101 2176 
L 1414 2176 
z
" transform="scale(0.015625)"/>
       </defs>
       <use xlink:href="#CMR17-33" transform="scale(0.996264)"/>
       <use xlink:href="#CMR17-30" transform="translate(45.690477 0) scale(0.996264)"/>
       <use xlink:href="#CMR17-30" transform="translate(91.380954 0) scale(0.996264)"/>
       <use xlink:href="#CMR17-30" transform="translate(137.071431 0) scale(0.996264)"/>
      </g>
     </g>
    </g>
    <g id="xtick_8">
     <g id="line2d_8">
      <g>
       <use xlink:href="#m4981619331" x="317.449558" y="228.96" style="stroke: #000000; stroke-width: 0.8"/>
      </g>
     </g>
     <g id="text_8">
      <!-- $\mathdefault{3500}$ -->
      <g transform="translate(307.486887 243.05832) scale(0.1 -0.1)">
       <use xlink:href="#CMR17-33" transform="scale(0.996264)"/>
       <use xlink:href="#CMR17-35" transform="translate(45.690477 0) scale(0.996264)"/>
       <use xlink:href="#CMR17-30" transform="translate(91.380954 0) scale(0.996264)"/>
       <use xlink:href="#CMR17-30" transform="translate(137.071431 0) scale(0.996264)"/>
      </g>
     </g>
    </g>
    <g id="xtick_9">
     <g id="line2d_9">
      <g>
       <use xlink:href="#m4981619331" x="355.258705" y="228.96" style="stroke: #000000; stroke-width: 0.8"/>
      </g>
     </g>
     <g id="text_9">
      <!-- $\mathdefault{4000}$ -->
      <g transform="translate(345.296035 243.05832) scale(0.1 -0.1)">
       <defs>
        <path id="CMR17-34" d="M 2150 4147 
C 2150 4281 2144 4288 2029 4288 
L 128 1254 
L 128 1088 
L 1779 1088 
L 1779 460 
C 1779 230 1766 166 1318 166 
L 1197 166 
L 1197 0 
C 1402 12 1747 12 1965 12 
C 2182 12 2528 12 2733 0 
L 2733 166 
L 2611 166 
C 2163 166 2150 230 2150 460 
L 2150 1088 
L 2803 1088 
L 2803 1254 
L 2150 1254 
L 2150 4147 
z
M 1798 3723 
L 1798 1254 
L 256 1254 
L 1798 3723 
z
" transform="scale(0.015625)"/>
       </defs>
       <use xlink:href="#CMR17-34" transform="scale(0.996264)"/>
       <use xlink:href="#CMR17-30" transform="translate(45.690477 0) scale(0.996264)"/>
       <use xlink:href="#CMR17-30" transform="translate(91.380954 0) scale(0.996264)"/>
       <use xlink:href="#CMR17-30" transform="translate(137.071431 0) scale(0.996264)"/>
      </g>
     </g>
    </g>
    <g id="text_10">
     <!-- Iteration -->
     <g transform="translate(187.019968 256.278627) scale(0.1 -0.1)">
      <defs>
       <path id="NimbusSanL-Regu-49" d="M 1242 4672 
L 640 4672 
L 640 0 
L 1242 0 
L 1242 4672 
z
" transform="scale(0.015625)"/>
       <path id="NimbusSanL-Regu-74" d="M 1626 3328 
L 1075 3328 
L 1075 4249 
L 544 4249 
L 544 3328 
L 90 3328 
L 90 2892 
L 544 2892 
L 544 402 
C 544 64 774 -128 1190 -128 
C 1318 -128 1446 -116 1626 -84 
L 1626 364 
C 1555 345 1472 339 1370 339 
C 1139 339 1075 402 1075 634 
L 1075 2892 
L 1626 2892 
L 1626 3328 
z
" transform="scale(0.015625)"/>
       <path id="NimbusSanL-Regu-65" d="M 3283 1484 
C 3283 1998 3245 2311 3149 2565 
C 2931 3123 2419 3456 1792 3456 
C 858 3456 256 2734 256 1619 
C 256 545 838 -128 1779 -128 
C 2547 -128 3078 307 3213 1018 
L 2675 1018 
C 2528 588 2227 364 1798 364 
C 1459 364 1171 514 992 787 
C 864 974 819 1161 813 1484 
L 3283 1484 
z
M 826 1920 
C 870 2552 1248 2963 1786 2963 
C 2310 2963 2714 2519 2714 1959 
C 2714 1946 2714 1933 2707 1920 
L 826 1920 
z
" transform="scale(0.015625)"/>
       <path id="NimbusSanL-Regu-72" d="M 442 3328 
L 442 0 
L 979 0 
L 979 1727 
C 979 2203 1101 2514 1357 2698 
C 1523 2819 1683 2857 2054 2863 
L 2054 3404 
C 1965 3449 1920 3456 1850 3456 
C 1504 3456 1242 3251 934 2750 
L 934 3328 
L 442 3328 
z
" transform="scale(0.015625)"/>
       <path id="NimbusSanL-Regu-61" d="M 3424 332 
C 3366 320 3341 320 3309 320 
C 3123 320 3021 415 3021 581 
L 3021 2542 
C 3021 3135 2586 3456 1760 3456 
C 1274 3456 870 3315 646 3065 
C 493 2893 429 2702 416 2370 
L 954 2370 
C 998 2778 1242 2963 1741 2963 
C 2221 2963 2490 2784 2490 2466 
L 2490 2326 
C 2490 2103 2355 2007 1933 1956 
C 1178 1861 1062 1835 858 1753 
C 467 1593 269 1294 269 861 
C 269 256 691 -128 1370 -128 
C 1792 -128 2131 19 2509 364 
C 2547 25 2714 -128 3059 -128 
C 3168 -128 3251 -116 3424 -71 
L 3424 332 
z
M 2490 1071 
C 2490 893 2438 785 2278 638 
C 2061 441 1798 339 1485 339 
C 1069 339 826 536 826 874 
C 826 1224 1062 1402 1632 1485 
C 2195 1562 2310 1587 2490 1670 
L 2490 1071 
z
" transform="scale(0.015625)"/>
       <path id="NimbusSanL-Regu-69" d="M 960 3358 
L 429 3358 
L 429 0 
L 960 0 
L 960 3358 
z
M 960 4672 
L 422 4672 
L 422 3999 
L 960 3999 
L 960 4672 
z
" transform="scale(0.015625)"/>
       <path id="NimbusSanL-Regu-6f" d="M 1741 3456 
C 800 3456 230 2784 230 1663 
C 230 543 794 -128 1747 -128 
C 2688 -128 3264 543 3264 1638 
C 3264 2791 2707 3456 1741 3456 
z
M 1747 2963 
C 2349 2963 2707 2472 2707 1644 
C 2707 861 2336 364 1747 364 
C 1152 364 787 855 787 1663 
C 787 2466 1152 2963 1747 2963 
z
" transform="scale(0.015625)"/>
       <path id="NimbusSanL-Regu-6e" d="M 448 3328 
L 448 0 
L 986 0 
L 986 1835 
C 986 2539 1344 2988 1894 2988 
C 2317 2988 2586 2732 2586 2328 
L 2586 0 
L 3117 0 
L 3117 2539 
C 3117 3097 2701 3456 2054 3456 
C 1555 3456 1235 3263 941 2796 
L 941 3328 
L 448 3328 
z
" transform="scale(0.015625)"/>
      </defs>
      <use xlink:href="#NimbusSanL-Regu-49" transform="scale(0.996264)"/>
      <use xlink:href="#NimbusSanL-Regu-74" transform="translate(27.69517 0) scale(0.996264)"/>
      <use xlink:href="#NimbusSanL-Regu-65" transform="translate(55.390339 0) scale(0.996264)"/>
      <use xlink:href="#NimbusSanL-Regu-72" transform="translate(110.782016 0) scale(0.996264)"/>
      <use xlink:href="#NimbusSanL-Regu-61" transform="translate(142.961149 0) scale(0.996264)"/>
      <use xlink:href="#NimbusSanL-Regu-74" transform="translate(198.352826 0) scale(0.996264)"/>
      <use xlink:href="#NimbusSanL-Regu-69" transform="translate(226.047996 0) scale(0.996264)"/>
      <use xlink:href="#NimbusSanL-Regu-6f" transform="translate(248.16478 0) scale(0.996264)"/>
      <use xlink:href="#NimbusSanL-Regu-6e" transform="translate(303.556457 0) scale(0.996264)"/>
     </g>
    </g>
   </g>
   <g id="matplotlib.axis_2">
    <g id="ytick_1">
     <g id="line2d_10">
      <defs>
       <path id="m89dc3e5897" d="M 0 0 
L -3.5 0 
" style="stroke: #000000; stroke-width: 0.8"/>
      </defs>
      <g>
       <use xlink:href="#m89dc3e5897" x="37.567344" y="228.016854" style="stroke: #000000; stroke-width: 0.8"/>
      </g>
     </g>
     <g id="text_11">
      <!-- $\mathdefault{0}$ -->
      <g transform="translate(25.586009 231.566014) scale(0.1 -0.1)">
       <use xlink:href="#CMR17-30" transform="scale(0.996264)"/>
      </g>
     </g>
    </g>
    <g id="ytick_2">
     <g id="line2d_11">
      <g>
       <use xlink:href="#m89dc3e5897" x="37.567344" y="192.457622" style="stroke: #000000; stroke-width: 0.8"/>
      </g>
     </g>
     <g id="text_12">
      <!-- $\mathdefault{5}$ -->
      <g transform="translate(25.586009 196.006782) scale(0.1 -0.1)">
       <use xlink:href="#CMR17-35" transform="scale(0.996264)"/>
      </g>
     </g>
    </g>
    <g id="ytick_3">
     <g id="line2d_12">
      <g>
       <use xlink:href="#m89dc3e5897" x="37.567344" y="156.898389" style="stroke: #000000; stroke-width: 0.8"/>
      </g>
     </g>
     <g id="text_13">
      <!-- $\mathdefault{10}$ -->
      <g transform="translate(20.604674 160.44755) scale(0.1 -0.1)">
       <use xlink:href="#CMR17-31" transform="scale(0.996264)"/>
       <use xlink:href="#CMR17-30" transform="translate(45.690477 0) scale(0.996264)"/>
      </g>
     </g>
    </g>
    <g id="ytick_4">
     <g id="line2d_13">
      <g>
       <use xlink:href="#m89dc3e5897" x="37.567344" y="121.339157" style="stroke: #000000; stroke-width: 0.8"/>
      </g>
     </g>
     <g id="text_14">
      <!-- $\mathdefault{15}$ -->
      <g transform="translate(20.604674 124.888317) scale(0.1 -0.1)">
       <use xlink:href="#CMR17-31" transform="scale(0.996264)"/>
       <use xlink:href="#CMR17-35" transform="translate(45.690477 0) scale(0.996264)"/>
      </g>
     </g>
    </g>
    <g id="ytick_5">
     <g id="line2d_14">
      <g>
       <use xlink:href="#m89dc3e5897" x="37.567344" y="85.779925" style="stroke: #000000; stroke-width: 0.8"/>
      </g>
     </g>
     <g id="text_15">
      <!-- $\mathdefault{20}$ -->
      <g transform="translate(20.604674 89.329085) scale(0.1 -0.1)">
       <use xlink:href="#CMR17-32" transform="scale(0.996264)"/>
       <use xlink:href="#CMR17-30" transform="translate(45.690477 0) scale(0.996264)"/>
      </g>
     </g>
    </g>
    <g id="ytick_6">
     <g id="line2d_15">
      <g>
       <use xlink:href="#m89dc3e5897" x="37.567344" y="50.220692" style="stroke: #000000; stroke-width: 0.8"/>
      </g>
     </g>
     <g id="text_16">
      <!-- $\mathdefault{25}$ -->
      <g transform="translate(20.604674 53.769852) scale(0.1 -0.1)">
       <use xlink:href="#CMR17-32" transform="scale(0.996264)"/>
       <use xlink:href="#CMR17-35" transform="translate(45.690477 0) scale(0.996264)"/>
      </g>
     </g>
    </g>
    <g id="ytick_7">
     <g id="line2d_16">
      <g>
       <use xlink:href="#m89dc3e5897" x="37.567344" y="14.66146" style="stroke: #000000; stroke-width: 0.8"/>
      </g>
     </g>
     <g id="text_17">
      <!-- $\mathdefault{30}$ -->
      <g transform="translate(20.604674 18.21062) scale(0.1 -0.1)">
       <use xlink:href="#CMR17-33" transform="scale(0.996264)"/>
       <use xlink:href="#CMR17-30" transform="translate(45.690477 0) scale(0.996264)"/>
      </g>
     </g>
    </g>
    <g id="text_18">
     <!-- Average CFL - Blade_20 -->
     <g transform="translate(14.482687 171.548902) rotate(-90) scale(0.1 -0.1)">
      <defs>
       <path id="NimbusSanL-Regu-41" d="M 3034 1408 
L 3514 0 
L 4179 0 
L 2541 4672 
L 1773 4672 
L 109 0 
L 742 0 
L 1235 1408 
L 3034 1408 
z
M 2867 1907 
L 1382 1907 
L 2150 4032 
L 2867 1907 
z
" transform="scale(0.015625)"/>
       <path id="NimbusSanL-Regu-76" d="M 1824 0 
L 3110 3328 
L 2509 3328 
L 1562 629 
L 666 3328 
L 64 3328 
L 1242 0 
L 1824 0 
z
" transform="scale(0.015625)"/>
       <path id="NimbusSanL-Regu-67" d="M 2637 3359 
L 2637 2873 
C 2368 3270 2042 3456 1613 3456 
C 762 3456 186 2714 186 1632 
C 186 1084 333 638 608 320 
C 858 38 1216 -128 1568 -128 
C 1990 -128 2285 51 2586 473 
L 2586 300 
C 2586 -155 2528 -441 2394 -634 
C 2253 -841 1978 -960 1651 -960 
C 1408 -960 1190 -894 1043 -774 
C 922 -674 870 -581 838 -375 
L 294 -375 
C 352 -1031 845 -1408 1632 -1408 
C 2131 -1408 2560 -1248 2778 -980 
C 3034 -661 3130 -222 3130 568 
L 3130 3359 
L 2637 3359 
z
M 1670 2963 
C 2246 2963 2586 2479 2586 1644 
C 2586 848 2240 364 1677 364 
C 1094 364 742 855 742 1663 
C 742 2466 1101 2963 1670 2963 
z
" transform="scale(0.015625)"/>
       <path id="NimbusSanL-Regu-43" d="M 4237 3219 
C 4051 4236 3462 4736 2438 4736 
C 1811 4736 1306 4537 960 4154 
C 538 3696 307 3035 307 2284 
C 307 1522 544 867 986 415 
C 1344 44 1805 -128 2413 -128 
C 3552 -128 4192 485 4333 1712 
L 3718 1712 
C 3667 1394 3603 1178 3507 994 
C 3315 612 2918 396 2419 396 
C 1491 396 902 1134 902 2291 
C 902 3480 1466 4211 2368 4211 
C 2746 4211 3098 4096 3290 3918 
C 3462 3759 3558 3562 3629 3219 
L 4237 3219 
z
" transform="scale(0.015625)"/>
       <path id="NimbusSanL-Regu-46" d="M 1171 2112 
L 3398 2112 
L 3398 2636 
L 1171 2636 
L 1171 4147 
L 3706 4147 
L 3706 4672 
L 576 4672 
L 576 0 
L 1171 0 
L 1171 2112 
z
" transform="scale(0.015625)"/>
       <path id="NimbusSanL-Regu-4c" d="M 1107 4672 
L 512 4672 
L 512 0 
L 3411 0 
L 3411 524 
L 1107 524 
L 1107 4672 
z
" transform="scale(0.015625)"/>
       <path id="NimbusSanL-Regu-2d" d="M 1818 1996 
L 294 1996 
L 294 1536 
L 1818 1536 
L 1818 1996 
z
" transform="scale(0.015625)"/>
       <path id="NimbusSanL-Regu-42" d="M 506 0 
L 2611 0 
C 3053 0 3379 121 3629 390 
C 3859 632 3987 961 3987 1321 
C 3987 1878 3731 2214 3136 2444 
C 3558 2643 3782 2994 3782 3476 
C 3782 3821 3654 4127 3411 4345 
C 3168 4569 2848 4672 2400 4672 
L 506 4672 
L 506 0 
z
M 1101 2636 
L 1101 4147 
L 2253 4147 
C 2586 4147 2771 4101 2931 3977 
C 3098 3847 3187 3652 3187 3391 
C 3187 3138 3098 2936 2931 2806 
C 2771 2682 2586 2636 2253 2636 
L 1101 2636 
z
M 1101 524 
L 1101 2112 
L 2554 2112 
C 2842 2112 3034 2042 3174 1890 
C 3315 1745 3392 1542 3392 1315 
C 3392 1093 3315 891 3174 746 
C 3034 594 2842 524 2554 524 
L 1101 524 
z
" transform="scale(0.015625)"/>
       <path id="NimbusSanL-Regu-6c" d="M 973 4672 
L 435 4672 
L 435 0 
L 973 0 
L 973 4672 
z
" transform="scale(0.015625)"/>
       <path id="NimbusSanL-Regu-64" d="M 3168 4672 
L 2637 4672 
L 2637 2937 
C 2413 3276 2054 3456 1606 3456 
C 736 3456 166 2759 166 1695 
C 166 568 723 -128 1626 -128 
C 2086 -128 2406 44 2694 460 
L 2694 19 
L 3168 19 
L 3168 4672 
z
M 1696 2956 
C 2272 2956 2637 2447 2637 1651 
C 2637 880 2266 371 1702 371 
C 1114 371 723 887 723 1663 
C 723 2440 1114 2956 1696 2956 
z
" transform="scale(0.015625)"/>
       <path id="NimbusSanL-Regu-32" d="M 3238 556 
L 851 556 
C 909 928 1114 1165 1670 1493 
L 2310 1839 
C 2944 2185 3270 2653 3270 3211 
C 3270 3589 3117 3942 2848 4185 
C 2579 4428 2246 4544 1818 4544 
C 1242 4544 813 4339 563 3955 
C 403 3711 333 3429 320 2967 
L 883 2967 
C 902 3275 941 3461 1018 3608 
C 1165 3884 1459 4051 1798 4051 
C 2310 4051 2694 3685 2694 3198 
C 2694 2839 2483 2531 2080 2300 
L 1491 1967 
C 544 1428 269 999 218 0 
L 3238 0 
L 3238 556 
z
" transform="scale(0.015625)"/>
       <path id="NimbusSanL-Regu-30" d="M 1760 4544 
C 1338 4544 954 4358 717 4044 
C 422 3649 275 3043 275 2207 
C 275 683 787 -128 1760 -128 
C 2720 -128 3245 683 3245 2169 
C 3245 3049 3104 3636 2803 4044 
C 2566 4364 2189 4544 1760 4544 
z
M 1760 4044 
C 2368 4044 2669 3432 2669 2220 
C 2669 938 2374 339 1747 339 
C 1152 339 851 964 851 2201 
C 851 3438 1152 4044 1760 4044 
z
" transform="scale(0.015625)"/>
      </defs>
      <use xlink:href="#NimbusSanL-Regu-41" transform="scale(0.996264)"/>
      <use xlink:href="#NimbusSanL-Regu-76" transform="translate(62.465918 0) scale(0.996264)"/>
      <use xlink:href="#NimbusSanL-Regu-65" transform="translate(109.788488 0) scale(0.996264)"/>
      <use xlink:href="#NimbusSanL-Regu-72" transform="translate(165.180165 0) scale(0.996264)"/>
      <use xlink:href="#NimbusSanL-Regu-61" transform="translate(197.359298 0) scale(0.996264)"/>
      <use xlink:href="#NimbusSanL-Regu-67" transform="translate(252.750975 0) scale(0.996264)"/>
      <use xlink:href="#NimbusSanL-Regu-65" transform="translate(308.142652 0) scale(0.996264)"/>
      <use xlink:href="#NimbusSanL-Regu-43" transform="translate(391.229499 0) scale(0.996264)"/>
      <use xlink:href="#NimbusSanL-Regu-46" transform="translate(463.159484 0) scale(0.996264)"/>
      <use xlink:href="#NimbusSanL-Regu-4c" transform="translate(524.031114 0) scale(0.996264)"/>
      <use xlink:href="#NimbusSanL-Regu-2d" transform="translate(607.117961 0) scale(0.996264)"/>
      <use xlink:href="#NimbusSanL-Regu-42" transform="translate(667.98836 0) scale(0.996264)"/>
      <use xlink:href="#NimbusSanL-Regu-6c" transform="translate(734.438391 0) scale(0.996264)"/>
      <use xlink:href="#NimbusSanL-Regu-61" transform="translate(756.555176 0) scale(0.996264)"/>
      <use xlink:href="#NimbusSanL-Regu-64" transform="translate(811.946853 0) scale(0.996264)"/>
      <use xlink:href="#NimbusSanL-Regu-65" transform="translate(867.33853 0) scale(0.996264)"/>
      <use xlink:href="#NimbusSanL-Regu-32" transform="translate(958.595772 0) scale(0.996264)"/>
      <use xlink:href="#NimbusSanL-Regu-30" transform="translate(1013.987449 0) scale(0.996264)"/>
      <path d="M 928.707548 0 
L 958.595772 0 
L 958.595772 0.3985 
L 928.707548 0.3985 
L 928.707548 0 
z
"/>
     </g>
    </g>
   </g>
   <g id="line2d_17">
    <path d="M 52.785526 126.610543 
L 52.936763 84.011421 
L 53.012381 213.616311 
L 53.087999 210.736202 
L 53.390473 192.183694 
L 53.692946 153.713214 
L 53.995419 74.177543 
L 54.071037 212.632923 
L 54.146656 209.556137 
L 54.449129 189.736711 
L 54.751602 148.639149 
L 55.054075 63.604061 
L 55.129693 211.575575 
L 55.205312 208.287319 
L 55.507785 187.10569 
L 55.810258 143.183464 
L 56.112731 52.248131 
L 56.188349 17.28 
L 56.263968 206.943169 
L 56.339586 202.728432 
L 56.642059 175.578781 
L 56.944532 119.281266 
L 57.095769 71.602033 
L 57.171387 212.375372 
L 57.247006 209.247076 
L 57.549479 189.095842 
L 57.851952 147.316524 
L 58.078807 89.045411 
L 58.154425 214.11971 
L 58.230043 211.340281 
L 58.532517 193.436312 
L 58.83499 156.317737 
L 59.137463 79.921249 
L 59.213081 50.563444 
L 59.2887 210.271513 
L 59.364318 206.722445 
L 59.666791 183.860767 
L 59.969264 136.459554 
L 60.196119 69.919471 
L 60.271737 212.207116 
L 60.347356 209.045168 
L 60.649829 188.677166 
L 60.952302 146.444898 
L 61.254775 58.977293 
L 61.330394 211.112898 
L 61.406012 207.732107 
L 61.708485 185.954402 
L 62.010958 140.809353 
L 62.38905 77.408373 
L 62.615905 77.408373 
L 62.691523 212.956006 
L 62.767141 209.943837 
L 63.069614 190.540645 
L 63.372087 150.320633 
L 63.598942 93.837476 
L 63.674561 214.598917 
L 63.750179 211.915329 
L 64.052652 194.628731 
L 64.355125 158.783242 
L 64.657598 108.381676 
L 64.733217 216.053337 
L 64.808835 213.660633 
L 65.111308 198.247794 
L 65.413781 166.28773 
L 65.640636 121.348928 
L 65.716255 217.350062 
L 65.791873 215.216703 
L 66.094346 201.474461 
L 66.396819 172.978547 
L 66.623674 132.911651 
L 66.699292 218.506334 
L 66.774911 216.60423 
L 67.077384 204.351636 
L 67.379857 178.944658 
L 67.68233 126.260749 
L 67.757949 217.841244 
L 67.833567 215.806122 
L 68.13604 202.696679 
L 68.438513 175.512939 
L 68.740986 119.147851 
L 68.892223 71.319364 
L 68.967841 212.347105 
L 69.04346 209.213156 
L 69.345933 189.025504 
L 69.648406 147.164391 
L 69.799643 111.589307 
L 69.875261 216.3741 
L 69.950879 214.045549 
L 70.253352 199.045955 
L 70.555825 167.942797 
L 70.858299 103.44729 
L 70.933917 215.559898 
L 71.009535 213.068507 
L 71.312008 197.01996 
L 71.614482 163.741695 
L 71.916955 94.735884 
L 71.992573 68.07969 
L 72.068191 212.023138 
L 72.14381 208.824395 
L 72.446283 188.21937 
L 72.748756 145.492791 
L 73.202466 56.894956 
L 73.278084 210.904665 
L 73.353702 207.482227 
L 73.656176 185.43625 
L 73.958649 139.721713 
L 74.185504 100.871851 
L 74.33674 100.871851 
L 74.412358 75.442851 
L 74.487977 212.759454 
L 74.563595 209.707974 
L 74.866068 190.05156 
L 75.168541 149.29202 
L 75.471015 64.773037 
L 75.546633 211.692473 
L 75.622251 208.427596 
L 75.924724 187.396569 
L 76.227198 143.78663 
L 76.680907 18.433151 
L 76.756526 207.058484 
L 76.832144 202.86681 
L 77.134617 175.865722 
L 77.43709 119.876267 
L 77.663945 41.161215 
L 77.739563 209.33129 
L 77.815182 205.594178 
L 78.117655 181.521192 
L 78.420128 131.603449 
L 78.79822 28.105999 
L 78.873838 208.025769 
L 78.949456 204.027552 
L 79.251929 178.272636 
L 79.554403 124.867244 
L 79.630021 104.240023 
L 79.705639 215.639171 
L 79.781257 213.163635 
L 80.083731 197.217218 
L 80.386204 164.150728 
L 80.613059 117.667252 
L 80.688677 216.981894 
L 80.764295 214.774902 
L 81.066768 200.558342 
L 81.369242 171.078883 
L 81.671715 109.971183 
L 81.747333 216.212287 
L 81.822951 213.851374 
L 82.125425 198.643314 
L 82.427898 167.107881 
L 82.730371 101.721522 
L 82.805989 215.387321 
L 82.881608 212.861414 
L 83.184081 196.590534 
L 83.486554 162.851237 
L 83.789027 92.88943 
L 83.864645 65.864992 
L 83.940264 211.801668 
L 84.015882 208.558631 
L 84.318355 187.668282 
L 84.620828 144.350055 
L 84.923301 54.52538 
L 84.99892 210.667707 
L 85.074538 207.197877 
L 85.377011 184.846624 
L 85.679484 138.499064 
L 85.981958 42.392765 
L 86.057576 209.454445 
L 86.133194 205.741964 
L 86.435667 181.827641 
L 86.738141 132.238901 
L 86.964995 62.512551 
L 87.040614 211.466424 
L 87.116232 208.156338 
L 87.418705 186.834088 
L 87.721178 142.620269 
L 87.948033 80.451555 
L 88.023652 213.260324 
L 88.09927 210.309018 
L 88.401743 191.297886 
L 88.704216 151.876401 
L 88.779835 136.648311 
L 88.855453 218.88 
L 88.931071 217.052629 
L 89.233544 205.281437 
L 89.536017 180.872693 
L 89.838491 130.258721 
L 89.914109 218.241041 
L 89.989727 216.285878 
L 90.2922 203.691502 
L 90.594674 177.575805 
L 90.897147 123.422294 
L 90.972765 217.557398 
L 91.048383 215.465507 
L 91.350857 201.990381 
L 91.65333 174.048359 
L 91.955803 116.107781 
L 92.031421 93.725967 
L 92.107039 214.587766 
L 92.182658 211.901948 
L 92.485131 194.600984 
L 92.787604 158.725706 
L 93.090077 84.334729 
L 93.165696 213.648642 
L 93.241314 210.774999 
L 93.543787 192.264144 
L 93.84626 153.880034 
L 94.224352 74.286743 
L 94.29997 212.643843 
L 94.375588 209.569241 
L 94.678061 189.763883 
L 94.980535 148.695494 
L 95.434244 63.536081 
L 95.509863 211.568777 
L 95.585481 208.279162 
L 95.887954 187.088774 
L 96.190427 143.148388 
L 96.417282 81.364144 
L 96.492901 213.351583 
L 96.568519 210.418529 
L 96.870992 191.524967 
L 97.173465 152.347277 
L 97.475938 71.108419 
L 97.551557 212.326011 
L 97.627175 209.187842 
L 97.929648 188.973015 
L 98.232121 147.055548 
L 98.610213 88.115717 
L 98.685831 88.115717 
L 98.761449 214.026741 
L 98.837068 211.228718 
L 99.139541 193.204975 
L 99.442014 155.830941 
L 99.744487 78.332144 
L 99.820106 213.048383 
L 99.895724 210.054689 
L 100.198197 190.770508 
L 100.50067 150.782831 
L 100.727525 94.556463 
L 100.803143 214.670815 
L 100.878762 212.001607 
L 101.181235 194.807638 
L 101.483708 159.154224 
L 101.710563 109.022229 
L 101.786181 216.117392 
L 101.861799 213.737499 
L 102.164273 198.407184 
L 102.466746 166.618241 
L 102.769219 100.70069 
L 102.844837 215.285238 
L 102.920456 212.738915 
L 103.222929 196.336519 
L 103.525402 162.32451 
L 103.903493 91.797209 
L 103.979112 214.39489 
L 104.05473 211.670497 
L 104.357203 194.121048 
L 104.659676 157.730509 
L 104.96215 82.27109 
L 105.037768 213.442278 
L 105.113386 210.527363 
L 105.415859 191.750644 
L 105.718333 152.815241 
L 105.945187 98.068466 
L 106.020806 215.022016 
L 106.096424 212.423048 
L 106.398897 195.681537 
L 106.70137 160.96634 
L 107.003844 88.980909 
L 107.079462 214.11326 
L 107.15508 211.332541 
L 107.457553 193.420262 
L 107.760026 156.27736 
L 108.0625 79.25784 
L 108.138118 213.140953 
L 108.213736 210.165773 
L 108.516209 191.000851 
L 108.818683 151.26047 
L 109.272392 68.854816 
L 109.348011 212.100651 
L 109.423629 208.91741 
L 109.726102 188.412246 
L 110.028575 145.892739 
L 110.25543 86.106382 
L 110.331049 213.825807 
L 110.406667 210.987598 
L 110.70914 192.704988 
L 111.011613 154.794168 
L 111.389705 76.182292 
L 111.465323 212.833398 
L 111.540941 209.796707 
L 111.843414 190.235556 
L 112.145888 149.673555 
L 112.372742 92.639633 
L 112.448361 214.479132 
L 112.523979 211.771588 
L 112.826452 194.33067 
L 113.128925 158.165182 
L 113.431399 83.172426 
L 113.507017 213.532412 
L 113.582635 210.635523 
L 113.885108 191.974926 
L 114.187582 153.280311 
L 114.490055 73.043158 
L 114.565673 212.519485 
L 114.641291 209.420011 
L 114.943764 189.454439 
L 115.246238 148.053831 
L 115.473093 89.84075 
L 115.548711 214.199244 
L 115.624329 211.435722 
L 115.926802 193.634218 
L 116.229275 156.721019 
L 116.531749 80.177811 
L 116.607367 213.23295 
L 116.682985 210.276169 
L 116.985458 191.229769 
L 117.287932 151.735155 
L 117.514787 96.202078 
L 117.590405 214.835377 
L 117.666023 212.199081 
L 117.968496 195.21712 
L 118.270969 160.003325 
L 118.724679 86.984 
L 118.800298 213.913569 
L 118.875916 211.092912 
L 119.178389 192.923367 
L 119.480862 155.246999 
L 119.858954 102.270545 
L 120.4639 102.270545 
L 120.539518 77.121283 
L 120.615137 212.927297 
L 120.690755 209.909386 
L 120.993228 190.469208 
L 121.295701 150.158054 
L 121.673793 93.476847 
L 122.203121 93.476847 
L 122.278739 214.562854 
L 122.354357 211.872053 
L 122.656831 194.538995 
L 122.959304 158.597166 
L 123.261777 84.068188 
L 123.337395 213.621988 
L 123.413013 210.743014 
L 123.715487 192.19782 
L 124.01796 153.742504 
L 124.320433 74.001562 
L 124.396051 212.615325 
L 124.47167 209.535019 
L 124.774143 189.692921 
L 125.076616 148.548347 
L 125.303471 90.695273 
L 125.379089 214.284696 
L 125.454707 211.538265 
L 125.757181 193.846851 
L 126.059654 157.161935 
L 126.362127 81.092093 
L 126.437745 213.324378 
L 126.513364 210.385883 
L 126.815837 191.457272 
L 127.11831 152.206904 
L 127.420783 70.817342 
L 127.496401 212.296903 
L 127.57202 209.152913 
L 127.874493 188.900585 
L 128.176966 146.905359 
L 128.403821 87.85619 
L 128.479439 214.000788 
L 128.555058 211.197575 
L 128.857531 193.140396 
L 129.160004 155.69703 
L 129.462477 78.054467 
L 129.538095 213.020616 
L 129.613714 210.021368 
L 129.916187 190.701414 
L 130.21866 150.639557 
L 130.445515 94.308884 
L 130.521133 214.646057 
L 130.596751 211.971898 
L 130.899225 194.746033 
L 131.201698 159.026478 
L 131.504171 84.958411 
L 131.579789 213.71101 
L 131.655408 210.849841 
L 131.957881 192.419336 
L 132.260354 154.20184 
L 132.714064 74.95404 
L 132.789682 212.710573 
L 132.8653 209.649317 
L 133.167774 189.929928 
L 133.470247 149.039804 
L 133.697102 91.544512 
L 133.77272 214.36962 
L 133.848338 211.640173 
L 134.150811 194.058168 
L 134.453285 157.600123 
L 134.755758 82.00072 
L 134.831376 213.415241 
L 134.906994 210.494918 
L 135.209467 191.683368 
L 135.511941 152.675736 
L 135.890032 97.827403 
L 136.797452 97.827403 
L 136.87307 71.789512 
L 136.948688 212.39412 
L 137.024307 209.269573 
L 137.32678 189.142492 
L 137.629253 147.406977 
L 137.856108 88.722987 
L 137.931726 214.087468 
L 138.007344 211.30159 
L 138.309818 193.356083 
L 138.612291 156.144278 
L 138.914764 78.981881 
L 138.990382 213.113357 
L 139.066001 210.132658 
L 139.368474 190.932184 
L 139.670947 151.118081 
L 140.049038 95.135775 
L 143.07377 95.135775 
L 143.149388 214.728746 
L 143.225007 212.071125 
L 143.52748 194.95179 
L 143.829953 159.453136 
L 144.132426 85.843128 
L 144.208045 213.799482 
L 144.283663 210.956007 
L 144.586136 192.639482 
L 144.888609 154.658334 
L 145.266701 75.900627 
L 145.342319 212.805232 
L 145.417937 209.762907 
L 145.72041 190.165469 
L 146.022884 149.528222 
L 146.249739 92.388498 
L 146.325357 214.454019 
L 146.400975 211.741452 
L 146.703448 194.268179 
L 147.005921 158.035602 
L 147.308395 82.903729 
L 147.384013 213.505542 
L 147.459631 210.603279 
L 147.762104 191.908065 
L 148.064578 153.141669 
L 148.442669 98.632534 
L 149.123234 98.632534 
L 149.198852 72.75567 
L 149.27447 212.490736 
L 149.350089 209.385512 
L 149.652562 189.382903 
L 149.955035 147.905493 
L 150.18189 89.584423 
L 150.257508 214.173611 
L 150.333126 211.404963 
L 150.6356 193.570436 
L 150.938073 156.58876 
L 151.240546 79.903558 
L 151.316164 213.205525 
L 151.391783 210.243259 
L 151.694256 191.161527 
L 151.996729 151.593647 
L 152.37482 95.957552 
L 154.492133 95.957552 
L 154.567751 69.545691 
L 154.643369 212.169738 
L 154.718988 209.000315 
L 155.021461 188.584158 
L 155.323934 146.249215 
L 155.550789 86.722374 
L 155.626407 213.887406 
L 155.702025 211.061517 
L 156.004499 192.858266 
L 156.306972 155.112006 
L 156.609445 76.84136 
L 156.685063 212.899305 
L 156.760681 209.875795 
L 157.063155 190.399554 
L 157.365628 150.01362 
L 157.592483 93.227265 
L 157.668101 214.537895 
L 157.743719 211.842104 
L 158.046192 194.476891 
L 158.348666 158.468387 
L 158.651139 83.801153 
L 158.726757 213.595284 
L 158.802375 210.71097 
L 159.104849 192.131373 
L 159.407322 153.60472 
L 159.709795 73.715852 
L 159.785413 212.586754 
L 159.861032 209.500734 
L 160.163505 189.621827 
L 160.465978 148.400927 
L 160.692833 90.440531 
L 160.768451 214.259222 
L 160.844069 211.507696 
L 161.146543 193.783463 
L 161.449016 157.030493 
L 161.751489 80.819536 
L 161.827107 213.297123 
L 161.902726 210.353176 
L 162.205199 191.389451 
L 162.507672 152.066271 
L 162.810145 70.525726 
L 162.885763 212.267741 
L 162.961382 209.117919 
L 163.263855 188.828022 
L 163.566328 146.754891 
L 163.793183 87.596182 
L 163.868801 213.974787 
L 163.944419 211.166374 
L 164.246893 193.075698 
L 164.549366 155.562872 
L 164.851839 77.776276 
L 164.927457 212.992797 
L 165.003076 209.987985 
L 165.305549 190.632191 
L 165.608022 150.496016 
L 166.061732 67.269644 
L 166.13735 211.942133 
L 166.212968 208.727189 
L 166.515442 188.017804 
L 166.817915 145.074824 
L 167.04477 84.693027 
L 167.120388 213.684472 
L 167.196006 210.817995 
L 167.498479 192.3533 
L 167.800953 154.064907 
L 168.103426 74.670097 
L 168.179044 212.682179 
L 168.254662 209.615243 
L 168.557135 189.859274 
L 168.859609 148.893296 
L 169.086464 91.291345 
L 169.162082 214.344303 
L 169.2377 211.609793 
L 169.540173 193.995172 
L 169.842646 157.469495 
L 170.14512 81.72985 
L 170.220738 213.388154 
L 170.296356 210.462414 
L 170.598829 191.615966 
L 170.901303 152.535973 
L 171.203776 71.499699 
L 171.279394 212.365139 
L 171.355012 209.234796 
L 171.657486 189.070378 
L 171.959959 147.25744 
L 172.33805 88.464586 
L 173.547943 88.464586 
L 173.623561 214.061628 
L 173.69918 211.270582 
L 174.001653 193.291784 
L 174.304126 156.010949 
L 174.606599 78.70541 
L 174.682217 213.08571 
L 174.757836 210.099481 
L 175.060309 190.863389 
L 175.362782 150.975428 
L 175.740873 68.263754 
L 175.816492 212.041544 
L 175.89211 208.846482 
L 176.194583 188.265171 
L 176.497056 145.587763 
L 176.723911 85.579385 
L 176.79953 213.773107 
L 176.875148 210.924358 
L 177.177621 192.573854 
L 177.480094 154.522249 
L 177.782567 75.61844 
L 177.858186 212.777013 
L 177.933804 209.729045 
L 178.236277 190.095252 
L 178.53875 149.38262 
L 178.765605 92.136898 
L 178.841224 214.428859 
L 178.916842 211.71126 
L 179.219315 194.205573 
L 179.521788 157.905781 
L 179.824261 82.634533 
L 179.89988 213.478622 
L 179.975498 210.570976 
L 180.277971 191.841081 
L 180.580444 153.00277 
L 180.958536 98.392516 
L 181.790337 98.392516 
L 181.865955 72.467649 
L 181.941574 212.461934 
L 182.017192 209.35095 
L 182.319665 189.311234 
L 182.622138 147.756881 
L 182.848993 89.32762 
L 182.924611 214.147931 
L 183.00023 211.374146 
L 183.302703 193.506535 
L 183.605176 156.456256 
L 183.907649 79.628797 
L 183.983268 213.178049 
L 184.058886 210.210288 
L 184.361359 191.093157 
L 184.663832 151.451876 
L 185.041924 95.712572 
L 187.083618 95.712572 
L 187.159236 69.251716 
L 187.234854 212.14034 
L 187.310473 208.965038 
L 187.612946 188.511007 
L 187.915419 146.09753 
L 188.142274 86.460262 
L 188.217892 213.861195 
L 188.29351 211.030063 
L 188.595984 192.793044 
L 188.898457 154.976762 
L 189.20093 76.560919 
L 189.276548 212.871261 
L 189.352167 209.842142 
L 189.65464 190.329771 
L 189.957113 149.868918 
L 190.183968 92.977221 
L 190.259586 214.512891 
L 190.335204 211.812098 
L 190.637678 194.414672 
L 190.940151 158.33937 
L 191.242624 83.533622 
L 191.318242 213.568531 
L 191.39386 210.678866 
L 191.696334 192.064803 
L 191.998807 153.46668 
L 192.376898 73.429613 
L 192.452517 212.55813 
L 192.528135 209.466385 
L 192.830608 189.550602 
L 193.133081 148.253233 
L 193.359936 90.185317 
L 193.435554 214.233701 
L 193.511173 211.47707 
L 193.813646 193.719957 
L 194.116119 156.898808 
L 194.418592 80.546474 
L 194.494211 213.269816 
L 194.569829 210.320409 
L 194.872302 191.321505 
L 195.174775 151.925377 
L 195.477248 70.233568 
L 195.552867 212.238526 
L 195.628485 209.08286 
L 195.930958 188.755324 
L 196.233431 146.604144 
L 196.460286 87.335691 
L 196.535905 213.948738 
L 196.611523 211.135115 
L 196.913996 193.010879 
L 197.216469 155.428464 
L 197.518942 77.497568 
L 197.594561 212.964926 
L 197.670179 209.95454 
L 197.972652 190.562839 
L 198.275125 150.352209 
L 198.653217 93.812347 
L 198.728835 93.812347 
L 198.804453 66.971446 
L 198.880072 211.912313 
L 198.95569 208.691405 
L 199.258163 187.943603 
L 199.560636 144.920961 
L 199.787491 84.42715 
L 199.863109 213.657884 
L 199.938728 210.78609 
L 200.241201 192.287141 
L 200.543674 153.927721 
L 200.846147 74.385627 
L 200.921766 212.653732 
L 200.997384 209.581107 
L 201.299857 189.788489 
L 201.60233 148.746516 
L 201.980422 63.64188 
L 202.05604 211.579357 
L 202.131658 208.291857 
L 202.434132 187.115101 
L 202.736605 143.202978 
L 202.96346 81.458476 
L 203.039078 213.361017 
L 203.114696 210.429849 
L 203.417169 191.54844 
L 203.719643 152.39595 
L 204.022116 71.209348 
L 204.097734 212.336104 
L 204.173352 209.199954 
L 204.475825 188.998129 
L 204.778299 147.107625 
L 205.15639 88.205706 
L 220.960614 88.205706 
L 221.036232 214.03574 
L 221.11185 211.239517 
L 221.414323 193.227367 
L 221.716797 155.877373 
L 222.01927 78.428426 
L 222.094888 213.058011 
L 222.170506 210.066243 
L 222.47298 190.794466 
L 222.775453 150.832511 
L 223.153544 67.9674 
L 223.229163 212.011909 
L 223.304781 208.81092 
L 223.607254 188.191428 
L 223.909727 145.434851 
L 224.136582 85.315153 
L 224.2122 213.746684 
L 224.287819 210.89265 
L 224.590292 192.508105 
L 224.892765 154.385911 
L 225.195238 75.33573 
L 225.270857 212.748742 
L 225.346475 209.695119 
L 225.648948 190.024905 
L 225.951421 149.236748 
L 226.329513 91.88483 
L 228.21997 91.88483 
L 228.295588 64.658425 
L 228.371207 211.681011 
L 228.446825 208.413843 
L 228.749298 187.36805 
L 229.051771 143.727493 
L 229.278626 82.364838 
L 229.354244 213.451653 
L 229.429863 210.538612 
L 229.732336 191.773972 
L 230.034809 152.863613 
L 230.337282 72.179093 
L 230.412901 212.433078 
L 230.488519 209.316323 
L 230.790992 189.239433 
L 231.093465 147.607993 
L 231.32032 89.070341 
L 231.395938 214.122203 
L 231.471557 211.343273 
L 231.77403 193.442516 
L 232.076503 156.323506 
L 232.378976 79.353526 
L 232.454595 213.150522 
L 232.530213 210.177255 
L 232.832686 191.024661 
L 233.135159 151.309842 
L 233.513251 95.467138 
L 233.740106 95.467138 
L 233.815724 68.957194 
L 233.891342 212.110888 
L 233.96696 208.929695 
L 234.269434 188.437721 
L 234.571907 145.945564 
L 234.798762 86.197664 
L 234.87438 213.834935 
L 234.949998 210.998552 
L 235.252471 192.727702 
L 235.554945 154.841267 
L 235.857418 76.279957 
L 235.933036 212.843165 
L 236.008654 209.808427 
L 236.311128 190.259859 
L 236.613601 149.723948 
L 236.991692 92.726712 
L 240.848225 92.726712 
L 240.923844 214.48784 
L 240.999462 211.782037 
L 241.301935 194.352338 
L 241.604408 158.210113 
L 241.906881 83.265595 
L 241.9825 213.541728 
L 242.058118 210.646703 
L 242.360591 191.998109 
L 242.663064 153.328384 
L 243.041156 73.142842 
L 243.116774 212.529453 
L 243.192392 209.431973 
L 243.494866 189.479244 
L 243.797339 148.105266 
L 244.024194 89.929629 
L 244.099812 214.208132 
L 244.17543 211.446387 
L 244.477903 193.656334 
L 244.780377 156.766879 
L 245.08285 80.272906 
L 245.158468 213.24246 
L 245.234086 210.287581 
L 245.53656 191.253432 
L 245.839033 151.784222 
L 246.065888 96.286866 
L 246.141506 214.843856 
L 246.217124 212.209256 
L 246.519597 195.238218 
L 246.822071 160.047074 
L 247.124544 87.074717 
L 247.200162 213.922641 
L 247.27578 211.103798 
L 247.578253 192.94594 
L 247.880727 155.293807 
L 248.258818 77.218344 
L 248.334436 212.937003 
L 248.410055 209.921033 
L 248.712528 190.493359 
L 249.015001 150.208135 
L 249.241856 93.563388 
L 249.317474 214.571508 
L 249.393093 211.882438 
L 249.695566 194.560529 
L 249.998039 158.641819 
L 250.300512 84.160781 
L 250.37613 213.631247 
L 250.451749 210.754126 
L 250.754222 192.22086 
L 251.056695 153.79028 
L 251.434787 99.753334 
L 256.198739 99.753334 
L 256.274357 74.10063 
L 256.349976 212.625232 
L 256.425594 209.546907 
L 256.728067 189.717572 
L 257.03054 148.599463 
L 257.257395 90.783603 
L 257.333013 214.293529 
L 257.408632 211.548864 
L 257.711105 193.86883 
L 258.013578 157.207511 
L 258.316051 81.1866 
L 258.39167 213.333829 
L 258.467288 210.397224 
L 258.769761 191.480788 
L 259.072234 152.255668 
L 259.299089 97.101524 
L 259.374707 214.925321 
L 259.450326 212.307015 
L 259.752799 195.440931 
L 260.055272 160.46742 
L 260.357745 87.946346 
L 260.433364 214.009804 
L 260.508982 211.208393 
L 260.811455 193.16283 
L 261.113928 155.743549 
L 261.416401 78.150928 
L 261.49202 213.030262 
L 261.567638 210.032943 
L 261.870111 190.725416 
L 262.172584 150.689328 
L 262.399439 94.394889 
L 262.475058 214.654658 
L 262.550676 211.982219 
L 262.853149 194.767434 
L 263.155622 159.070855 
L 263.458095 85.050431 
L 263.533714 213.720212 
L 263.609332 210.860884 
L 263.911805 192.442233 
L 264.214278 154.24932 
L 264.516751 75.052495 
L 264.59237 212.720418 
L 264.667988 209.661131 
L 264.970461 189.954427 
L 265.272934 149.090605 
L 265.499789 91.632295 
L 265.575408 214.378398 
L 265.651026 211.650707 
L 265.953499 194.080012 
L 266.255972 157.645417 
L 266.558445 82.094643 
L 266.634064 213.424633 
L 266.709682 210.506189 
L 267.012155 191.706739 
L 267.314628 152.724198 
L 267.69272 97.911145 
L 268.600139 97.911145 
L 268.675758 71.890003 
L 268.751376 212.404169 
L 268.826994 209.281632 
L 269.129467 189.167498 
L 269.431941 147.458828 
L 269.658796 88.812585 
L 269.734414 214.096427 
L 269.810032 211.312342 
L 270.112505 193.378378 
L 270.414978 156.190509 
L 270.717452 79.077745 
L 270.79307 213.122943 
L 270.868688 210.144161 
L 271.171161 190.956038 
L 271.473635 151.167545 
L 271.700489 95.221248 
L 271.776108 214.737294 
L 271.851726 212.081382 
L 272.154199 194.973058 
L 272.456672 159.497238 
L 272.759146 85.934579 
L 272.834764 213.808627 
L 272.910382 210.966981 
L 273.212855 192.662238 
L 273.515329 154.705521 
L 273.89342 75.998473 
L 273.969038 212.815016 
L 274.044657 209.774649 
L 274.34713 190.189817 
L 274.649603 149.578709 
L 274.876458 92.475739 
L 274.952076 214.462743 
L 275.027694 211.751921 
L 275.330168 194.289888 
L 275.632641 158.080616 
L 275.935114 82.99707 
L 276.010732 213.514876 
L 276.086351 210.61448 
L 276.388824 191.931291 
L 276.691297 153.189831 
L 277.069388 98.715758 
L 277.296243 98.715758 
L 277.371862 72.855539 
L 277.44748 212.500723 
L 277.523098 209.397497 
L 277.825571 189.407754 
L 278.128045 147.957024 
L 278.354899 89.673467 
L 278.430518 214.182516 
L 278.506136 211.415648 
L 278.808609 193.592593 
L 279.111082 156.634705 
L 279.413556 79.99883 
L 279.489174 213.215052 
L 279.564792 210.254691 
L 279.867265 191.185233 
L 280.169739 151.642805 
L 280.396593 96.042497 
L 280.472212 214.819419 
L 280.54783 212.179931 
L 280.850303 195.177411 
L 281.152776 159.920985 
L 281.45525 86.813259 
L 281.530868 213.896495 
L 281.606486 211.072423 
L 281.908959 192.880881 
L 282.211432 155.158901 
L 282.513906 76.938602 
L 282.589524 212.909029 
L 282.665142 209.887464 
L 282.967615 190.423751 
L 283.270089 150.063794 
L 283.496943 93.313967 
L 283.572562 214.546566 
L 283.64818 211.852508 
L 283.950653 194.498465 
L 284.253126 158.513123 
L 284.5556 83.893917 
L 284.631218 213.604561 
L 284.706836 210.722102 
L 285.009309 192.154456 
L 285.311783 153.652584 
L 285.689874 99.515396 
L 286.74853 99.515396 
L 286.824148 73.815104 
L 286.899767 212.596679 
L 286.975385 209.512644 
L 287.277858 189.646524 
L 287.580331 148.452138 
L 287.807186 90.529025 
L 287.882805 214.268071 
L 287.958423 211.518315 
L 288.260896 193.805483 
L 288.563369 157.076154 
L 288.865842 80.914218 
L 288.941461 213.306591 
L 289.017079 210.364538 
L 289.319552 191.413011 
L 289.622025 152.115125 
L 289.84888 96.858667 
L 289.924499 214.901036 
L 290.000117 212.277872 
L 290.30259 195.3805 
L 290.605063 160.34211 
L 290.907536 87.686505 
L 290.983155 213.983819 
L 291.058773 211.177212 
L 291.361246 193.098173 
L 291.663719 155.609477 
L 291.966192 77.872916 
L 292.041811 213.00246 
L 292.117429 209.999582 
L 292.419902 190.656238 
L 292.722375 150.54588 
L 292.94923 94.14701 
L 293.024849 214.62987 
L 293.100467 211.952473 
L 293.40294 194.705753 
L 293.705413 158.942955 
L 294.007886 84.785217 
L 294.083505 213.693691 
L 294.159123 210.829058 
L 294.461596 192.37624 
L 294.764069 154.112476 
L 295.142161 74.768735 
L 295.217779 212.692042 
L 295.293397 209.62708 
L 295.595871 189.883818 
L 295.898344 148.944191 
L 296.125199 91.379292 
L 296.200817 214.353098 
L 296.276435 211.620347 
L 296.578908 194.017056 
L 296.881382 157.514873 
L 297.183855 81.823946 
L 297.259473 213.397564 
L 297.335091 210.473705 
L 297.637565 191.639381 
L 297.940038 152.584525 
L 298.318129 97.669789 
L 303.913883 97.669789 
L 303.989501 71.600376 
L 304.06512 212.375207 
L 304.140738 209.246877 
L 304.443211 189.095429 
L 304.745684 147.309387 
L 304.972539 88.554351 
L 305.048157 214.070604 
L 305.123776 211.281354 
L 305.426249 193.314121 
L 305.728722 156.057266 
L 306.031195 78.801452 
L 306.106814 213.095314 
L 306.182432 210.111006 
L 306.484905 190.887287 
L 306.787378 151.024984 
L 307.16547 94.974902 
L 309.131545 94.974902 
L 309.207164 68.366512 
L 309.282782 212.05182 
L 309.3584 208.858813 
L 309.660873 188.29074 
L 309.963347 145.640784 
L 310.190202 85.671005 
L 310.26582 213.782269 
L 310.341438 210.935353 
L 310.643911 192.596652 
L 310.946384 154.569523 
L 311.248858 75.716468 
L 311.324476 212.786816 
L 311.400094 209.740808 
L 311.702567 190.119645 
L 312.005041 149.4332 
L 312.383132 92.2243 
L 314.273589 92.2243 
L 314.349208 65.065789 
L 314.424826 211.721748 
L 314.500444 208.462727 
L 314.802918 187.469415 
L 315.105391 143.937684 
L 315.332246 82.728048 
L 315.407864 213.487974 
L 315.483482 210.582198 
L 315.785955 191.86435 
L 316.088429 153.051021 
L 316.390902 72.567703 
L 316.46652 212.471939 
L 316.542138 209.362956 
L 316.844611 189.336131 
L 317.147085 147.808507 
L 317.37394 89.41683 
L 317.449558 214.156852 
L 317.525176 211.384851 
L 317.827649 193.528733 
L 318.130122 156.502286 
L 318.432596 79.724245 
L 318.508214 213.187593 
L 318.583832 210.221741 
L 318.886305 191.116908 
L 319.188779 151.501125 
L 319.56687 95.797675 
L 319.642488 95.797675 
L 319.718107 69.353839 
L 319.793725 212.150553 
L 319.869343 208.977292 
L 320.171816 188.536419 
L 320.47429 146.150223 
L 320.701144 86.551316 
L 320.776763 213.870301 
L 320.852381 211.04099 
L 321.154854 192.815701 
L 321.457327 155.023744 
L 321.759801 76.65834 
L 321.835419 212.881003 
L 321.911037 209.853833 
L 322.21351 190.354013 
L 322.515984 149.919186 
L 322.894075 93.064083 
L 329.624103 93.064083 
L 329.699722 214.521577 
L 329.77534 211.822522 
L 330.077813 194.436286 
L 330.380286 158.384188 
L 330.682759 83.626558 
L 330.758378 213.577825 
L 330.833996 210.690019 
L 331.136469 192.087928 
L 331.438942 153.514633 
L 331.817034 73.529048 
L 331.892652 212.568074 
L 331.96827 209.478318 
L 332.270744 189.575345 
L 332.573217 148.30454 
L 332.800072 90.273975 
L 332.87569 214.242566 
L 332.951308 211.487709 
L 333.253781 193.742018 
L 333.556255 156.944554 
L 333.858728 80.641332 
L 333.934346 213.279302 
L 334.009964 210.331792 
L 334.312438 191.345108 
L 334.614911 151.974322 
L 334.993002 96.615358 
L 335.06862 96.615358 
L 335.144239 70.335059 
L 335.219857 212.248675 
L 335.295475 209.095039 
L 335.597949 188.780578 
L 335.900422 146.656512 
L 336.127277 87.426182 
L 336.202895 213.957787 
L 336.278513 211.145974 
L 336.580986 193.033396 
L 336.88346 155.475155 
L 337.185933 77.594387 
L 337.261551 212.974608 
L 337.337169 209.966158 
L 337.639643 190.586931 
L 337.942116 150.402165 
L 338.168971 93.898672 
L 338.244589 214.605036 
L 338.320207 211.922672 
L 338.62268 194.643959 
L 338.925154 158.814818 
L 339.227627 84.519512 
L 339.303245 213.66712 
L 339.378863 210.797173 
L 339.681336 192.310124 
L 339.98381 153.975378 
L 340.286283 74.484448 
L 340.361901 212.663614 
L 340.437519 209.592966 
L 340.739993 189.813079 
L 341.042466 148.797505 
L 341.269321 91.125819 
L 341.344939 214.327751 
L 341.420557 211.58993 
L 341.72303 193.953984 
L 342.025504 157.384087 
L 342.327977 81.552747 
L 342.403595 213.370444 
L 342.479213 210.441162 
L 342.781687 191.571898 
L 343.08416 152.444592 
L 343.462251 97.427985 
L 343.613488 97.427985 
L 343.689106 71.310212 
L 343.764724 212.34619 
L 343.840343 209.212057 
L 344.142816 189.023227 
L 344.445289 147.159669 
L 344.672144 88.295638 
L 344.747762 214.044733 
L 344.823381 211.250308 
L 345.125854 193.249745 
L 345.428327 155.923775 
L 345.7308 78.524646 
L 345.806418 213.067634 
L 345.882037 210.077789 
L 346.18451 190.818409 
L 346.486983 150.882158 
L 346.940693 68.070349 
L 347.016311 212.022204 
L 347.091929 208.823274 
L 347.394403 188.217045 
L 347.696876 145.487971 
L 347.923731 85.406943 
L 347.999349 213.755863 
L 348.074967 210.903665 
L 348.37744 192.530945 
L 348.679914 154.433273 
L 348.982387 75.433939 
L 349.058005 212.758563 
L 349.133623 209.706905 
L 349.436096 190.049342 
L 349.73857 149.287422 
L 350.116661 91.972395 
L 356.771071 91.972395 
L 356.846689 214.412408 
L 356.922308 211.691519 
L 357.149163 199.806675 
L 357.149163 199.806675 
" clip-path="url(#p90f0cb802d)" style="fill: none; stroke: #1f77b4; stroke-width: 1.5; stroke-linecap: square"/>
   </g>
   <g id="patch_3">
    <path d="M 37.567344 228.96 
L 37.567344 7.2 
" style="fill: none; stroke: #000000; stroke-width: 0.8; stroke-linejoin: miter; stroke-linecap: square"/>
   </g>
   <g id="patch_4">
    <path d="M 372.367344 228.96 
L 372.367344 7.2 
" style="fill: none; stroke: #000000; stroke-width: 0.8; stroke-linejoin: miter; stroke-linecap: square"/>
   </g>
   <g id="patch_5">
    <path d="M 37.567344 228.96 
L 372.367344 228.96 
" style="fill: none; stroke: #000000; stroke-width: 0.8; stroke-linejoin: miter; stroke-linecap: square"/>
   </g>
   <g id="patch_6">
    <path d="M 37.567344 7.2 
L 372.367344 7.2 
" style="fill: none; stroke: #000000; stroke-width: 0.8; stroke-linejoin: miter; stroke-linecap: square"/>
   </g>
   <g id="legend_1">
    <g id="patch_7">
     <path d="M 314.548024 29.420307 
L 365.367344 29.420307 
Q 367.367344 29.420307 367.367344 27.420307 
L 367.367344 14.2 
Q 367.367344 12.2 365.367344 12.2 
L 314.548024 12.2 
Q 312.548024 12.2 312.548024 14.2 
L 312.548024 27.420307 
Q 312.548024 29.420307 314.548024 29.420307 
z
" style="fill: #ffffff; opacity: 0.8; stroke: #cccccc; stroke-linejoin: miter"/>
    </g>
    <g id="line2d_18">
     <path d="M 316.548024 19.79832 
L 326.548024 19.79832 
L 336.548024 19.79832 
" style="fill: none; stroke: #1f77b4; stroke-width: 1.5; stroke-linecap: square"/>
    </g>
    <g id="text_19">
     <!-- CFL -->
     <g transform="translate(344.548024 23.29832) scale(0.1 -0.1)">
      <use xlink:href="#NimbusSanL-Regu-43" transform="scale(0.996264)"/>
      <use xlink:href="#NimbusSanL-Regu-46" transform="translate(71.929985 0) scale(0.996264)"/>
      <use xlink:href="#NimbusSanL-Regu-4c" transform="translate(132.801616 0) scale(0.996264)"/>
     </g>
    </g>
   </g>
  </g>
 </g>
 <defs>
  <clipPath id="p90f0cb802d">
   <rect x="37.567344" y="7.2" width="334.8" height="221.76"/>
  </clipPath>
 </defs>
</svg>
