<?xml version="1.0" encoding="utf-8" standalone="no"?>
<!DOCTYPE svg PUBLIC "-//W3C//DTD SVG 1.1//EN"
  "http://www.w3.org/Graphics/SVG/1.1/DTD/svg11.dtd">
<svg xmlns:xlink="http://www.w3.org/1999/xlink" width="382.150386pt" height="265.600613pt" viewBox="0 0 382.150386 265.600613" xmlns="http://www.w3.org/2000/svg" version="1.1">
 <metadata>
  <rdf:RDF xmlns:dc="http://purl.org/dc/elements/1.1/" xmlns:cc="http://creativecommons.org/ns#" xmlns:rdf="http://www.w3.org/1999/02/22-rdf-syntax-ns#">
   <cc:Work>
    <dc:type rdf:resource="http://purl.org/dc/dcmitype/StillImage"/>
    <dc:date>2025-07-17T22:11:51.803243</dc:date>
    <dc:format>image/svg+xml</dc:format>
    <dc:creator>
     <cc:Agent>
      <dc:title>Matplotlib v3.10.3, https://matplotlib.org/</dc:title>
     </cc:Agent>
    </dc:creator>
   </cc:Work>
  </rdf:RDF>
 </metadata>
 <defs>
  <style type="text/css">*{stroke-linejoin: round; stroke-linecap: butt}</style>
 </defs>
 <g id="figure_1">
  <g id="patch_1">
   <path d="M 0 265.600613 
L 382.150386 265.600613 
L 382.150386 0 
L 0 0 
z
" style="fill: #ffffff"/>
  </g>
  <g id="axes_1">
   <g id="patch_2">
    <path d="M 40.150386 228.96 
L 374.950386 228.96 
L 374.950386 7.2 
L 40.150386 7.2 
z
" style="fill: #ffffff"/>
   </g>
   <g id="matplotlib.axis_1">
    <g id="xtick_1">
     <g id="line2d_1">
      <defs>
       <path id="maabed7038d" d="M 0 0 
L 0 3.5 
" style="stroke: #000000; stroke-width: 0.8"/>
      </defs>
      <g>
       <use xlink:href="#maabed7038d" x="55.368567" y="228.96" style="stroke: #000000; stroke-width: 0.8"/>
      </g>
     </g>
     <g id="text_1">
      <!-- $\mathdefault{0}$ -->
      <g transform="translate(52.8779 243.05832) scale(0.1 -0.1)">
       <defs>
        <path id="CMR17-30" d="M 2688 2038 
C 2688 2430 2682 3099 2413 3613 
C 2176 4063 1798 4224 1466 4224 
C 1158 4224 768 4082 525 3620 
C 269 3137 243 2539 243 2038 
C 243 1671 250 1112 448 623 
C 723 -39 1216 -128 1466 -128 
C 1760 -128 2208 -7 2470 604 
C 2662 1048 2688 1568 2688 2038 
z
M 1466 -26 
C 1056 -26 813 328 723 816 
C 653 1196 653 1749 653 2109 
C 653 2604 653 3015 736 3407 
C 858 3954 1216 4121 1466 4121 
C 1728 4121 2067 3947 2189 3420 
C 2272 3054 2278 2623 2278 2109 
C 2278 1691 2278 1176 2202 797 
C 2067 96 1690 -26 1466 -26 
z
" transform="scale(0.015625)"/>
       </defs>
       <use xlink:href="#CMR17-30" transform="scale(0.996264)"/>
      </g>
     </g>
    </g>
    <g id="xtick_2">
     <g id="line2d_2">
      <g>
       <use xlink:href="#maabed7038d" x="105.927311" y="228.96" style="stroke: #000000; stroke-width: 0.8"/>
      </g>
     </g>
     <g id="text_2">
      <!-- $\mathdefault{50}$ -->
      <g transform="translate(100.945976 243.05832) scale(0.1 -0.1)">
       <defs>
        <path id="CMR17-35" d="M 730 3750 
C 794 3724 1056 3641 1325 3641 
C 1920 3641 2246 3961 2432 4140 
C 2432 4191 2432 4224 2394 4224 
C 2387 4224 2374 4224 2323 4198 
C 2099 4102 1837 4032 1517 4032 
C 1325 4032 1037 4055 723 4191 
C 653 4224 640 4224 634 4224 
C 602 4224 595 4217 595 4090 
L 595 2231 
C 595 2113 595 2080 659 2080 
C 691 2080 704 2093 736 2139 
C 941 2435 1222 2560 1542 2560 
C 1766 2560 2246 2415 2246 1293 
C 2246 1087 2246 716 2054 422 
C 1894 159 1645 25 1370 25 
C 947 25 518 319 403 812 
C 429 806 480 793 506 793 
C 589 793 749 838 749 1036 
C 749 1209 627 1280 506 1280 
C 358 1280 262 1190 262 1011 
C 262 454 704 -128 1382 -128 
C 2042 -128 2669 441 2669 1267 
C 2669 2054 2170 2662 1549 2662 
C 1222 2662 947 2540 730 2304 
L 730 3750 
z
" transform="scale(0.015625)"/>
       </defs>
       <use xlink:href="#CMR17-35" transform="scale(0.996264)"/>
       <use xlink:href="#CMR17-30" transform="translate(45.690477 0) scale(0.996264)"/>
      </g>
     </g>
    </g>
    <g id="xtick_3">
     <g id="line2d_3">
      <g>
       <use xlink:href="#maabed7038d" x="156.486055" y="228.96" style="stroke: #000000; stroke-width: 0.8"/>
      </g>
     </g>
     <g id="text_3">
      <!-- $\mathdefault{100}$ -->
      <g transform="translate(149.014052 243.05832) scale(0.1 -0.1)">
       <defs>
        <path id="CMR17-31" d="M 1702 4083 
C 1702 4217 1696 4224 1606 4224 
C 1357 3927 979 3833 621 3820 
C 602 3820 570 3820 563 3808 
C 557 3795 557 3782 557 3648 
C 755 3648 1088 3686 1344 3839 
L 1344 467 
C 1344 243 1331 166 781 166 
L 589 166 
L 589 0 
C 896 6 1216 12 1523 12 
C 1830 12 2150 6 2458 0 
L 2458 166 
L 2266 166 
C 1715 166 1702 236 1702 467 
L 1702 4083 
z
" transform="scale(0.015625)"/>
       </defs>
       <use xlink:href="#CMR17-31" transform="scale(0.996264)"/>
       <use xlink:href="#CMR17-30" transform="translate(45.690477 0) scale(0.996264)"/>
       <use xlink:href="#CMR17-30" transform="translate(91.380954 0) scale(0.996264)"/>
      </g>
     </g>
    </g>
    <g id="xtick_4">
     <g id="line2d_4">
      <g>
       <use xlink:href="#maabed7038d" x="207.044798" y="228.96" style="stroke: #000000; stroke-width: 0.8"/>
      </g>
     </g>
     <g id="text_4">
      <!-- $\mathdefault{150}$ -->
      <g transform="translate(199.572795 243.05832) scale(0.1 -0.1)">
       <use xlink:href="#CMR17-31" transform="scale(0.996264)"/>
       <use xlink:href="#CMR17-35" transform="translate(45.690477 0) scale(0.996264)"/>
       <use xlink:href="#CMR17-30" transform="translate(91.380954 0) scale(0.996264)"/>
      </g>
     </g>
    </g>
    <g id="xtick_5">
     <g id="line2d_5">
      <g>
       <use xlink:href="#maabed7038d" x="257.603542" y="228.96" style="stroke: #000000; stroke-width: 0.8"/>
      </g>
     </g>
     <g id="text_5">
      <!-- $\mathdefault{200}$ -->
      <g transform="translate(250.131539 243.05832) scale(0.1 -0.1)">
       <defs>
        <path id="CMR17-32" d="M 2669 990 
L 2554 990 
C 2490 537 2438 460 2413 422 
C 2381 371 1920 371 1830 371 
L 602 371 
C 832 620 1280 1073 1824 1596 
C 2214 1966 2669 2400 2669 3033 
C 2669 3788 2067 4224 1395 4224 
C 691 4224 262 3603 262 3027 
C 262 2777 448 2745 525 2745 
C 589 2745 781 2783 781 3007 
C 781 3206 614 3264 525 3264 
C 486 3264 448 3257 422 3244 
C 544 3788 915 4057 1306 4057 
C 1862 4057 2227 3616 2227 3033 
C 2227 2477 1901 1998 1536 1583 
L 262 147 
L 262 0 
L 2515 0 
L 2669 990 
z
" transform="scale(0.015625)"/>
       </defs>
       <use xlink:href="#CMR17-32" transform="scale(0.996264)"/>
       <use xlink:href="#CMR17-30" transform="translate(45.690477 0) scale(0.996264)"/>
       <use xlink:href="#CMR17-30" transform="translate(91.380954 0) scale(0.996264)"/>
      </g>
     </g>
    </g>
    <g id="xtick_6">
     <g id="line2d_6">
      <g>
       <use xlink:href="#maabed7038d" x="308.162285" y="228.96" style="stroke: #000000; stroke-width: 0.8"/>
      </g>
     </g>
     <g id="text_6">
      <!-- $\mathdefault{250}$ -->
      <g transform="translate(300.690282 243.05832) scale(0.1 -0.1)">
       <use xlink:href="#CMR17-32" transform="scale(0.996264)"/>
       <use xlink:href="#CMR17-35" transform="translate(45.690477 0) scale(0.996264)"/>
       <use xlink:href="#CMR17-30" transform="translate(91.380954 0) scale(0.996264)"/>
      </g>
     </g>
    </g>
    <g id="xtick_7">
     <g id="line2d_7">
      <g>
       <use xlink:href="#maabed7038d" x="358.721029" y="228.96" style="stroke: #000000; stroke-width: 0.8"/>
      </g>
     </g>
     <g id="text_7">
      <!-- $\mathdefault{300}$ -->
      <g transform="translate(351.249026 243.05832) scale(0.1 -0.1)">
       <defs>
        <path id="CMR17-33" d="M 1414 2176 
C 1984 2176 2234 1673 2234 1094 
C 2234 322 1824 25 1453 25 
C 1114 25 563 193 390 691 
C 422 678 454 678 486 678 
C 640 678 755 780 755 947 
C 755 1132 614 1216 486 1216 
C 378 1216 211 1164 211 927 
C 211 335 787 -128 1466 -128 
C 2176 -128 2720 432 2720 1087 
C 2720 1718 2208 2176 1600 2246 
C 2086 2347 2554 2776 2554 3353 
C 2554 3856 2048 4224 1472 4224 
C 890 4224 378 3862 378 3347 
C 378 3123 544 3084 627 3084 
C 762 3084 877 3167 877 3334 
C 877 3500 762 3584 627 3584 
C 602 3584 570 3584 544 3571 
C 730 3999 1235 4076 1459 4076 
C 1683 4076 2106 3966 2106 3347 
C 2106 3167 2080 2851 1862 2574 
C 1670 2329 1453 2316 1242 2297 
C 1210 2297 1062 2284 1037 2284 
C 992 2278 966 2272 966 2227 
C 966 2182 973 2176 1101 2176 
L 1414 2176 
z
" transform="scale(0.015625)"/>
       </defs>
       <use xlink:href="#CMR17-33" transform="scale(0.996264)"/>
       <use xlink:href="#CMR17-30" transform="translate(45.690477 0) scale(0.996264)"/>
       <use xlink:href="#CMR17-30" transform="translate(91.380954 0) scale(0.996264)"/>
      </g>
     </g>
    </g>
    <g id="text_8">
     <!-- Iteration -->
     <g transform="translate(189.603009 256.278627) scale(0.1 -0.1)">
      <defs>
       <path id="NimbusSanL-Regu-49" d="M 1242 4672 
L 640 4672 
L 640 0 
L 1242 0 
L 1242 4672 
z
" transform="scale(0.015625)"/>
       <path id="NimbusSanL-Regu-74" d="M 1626 3328 
L 1075 3328 
L 1075 4249 
L 544 4249 
L 544 3328 
L 90 3328 
L 90 2892 
L 544 2892 
L 544 402 
C 544 64 774 -128 1190 -128 
C 1318 -128 1446 -116 1626 -84 
L 1626 364 
C 1555 345 1472 339 1370 339 
C 1139 339 1075 402 1075 634 
L 1075 2892 
L 1626 2892 
L 1626 3328 
z
" transform="scale(0.015625)"/>
       <path id="NimbusSanL-Regu-65" d="M 3283 1484 
C 3283 1998 3245 2311 3149 2565 
C 2931 3123 2419 3456 1792 3456 
C 858 3456 256 2734 256 1619 
C 256 545 838 -128 1779 -128 
C 2547 -128 3078 307 3213 1018 
L 2675 1018 
C 2528 588 2227 364 1798 364 
C 1459 364 1171 514 992 787 
C 864 974 819 1161 813 1484 
L 3283 1484 
z
M 826 1920 
C 870 2552 1248 2963 1786 2963 
C 2310 2963 2714 2519 2714 1959 
C 2714 1946 2714 1933 2707 1920 
L 826 1920 
z
" transform="scale(0.015625)"/>
       <path id="NimbusSanL-Regu-72" d="M 442 3328 
L 442 0 
L 979 0 
L 979 1727 
C 979 2203 1101 2514 1357 2698 
C 1523 2819 1683 2857 2054 2863 
L 2054 3404 
C 1965 3449 1920 3456 1850 3456 
C 1504 3456 1242 3251 934 2750 
L 934 3328 
L 442 3328 
z
" transform="scale(0.015625)"/>
       <path id="NimbusSanL-Regu-61" d="M 3424 332 
C 3366 320 3341 320 3309 320 
C 3123 320 3021 415 3021 581 
L 3021 2542 
C 3021 3135 2586 3456 1760 3456 
C 1274 3456 870 3315 646 3065 
C 493 2893 429 2702 416 2370 
L 954 2370 
C 998 2778 1242 2963 1741 2963 
C 2221 2963 2490 2784 2490 2466 
L 2490 2326 
C 2490 2103 2355 2007 1933 1956 
C 1178 1861 1062 1835 858 1753 
C 467 1593 269 1294 269 861 
C 269 256 691 -128 1370 -128 
C 1792 -128 2131 19 2509 364 
C 2547 25 2714 -128 3059 -128 
C 3168 -128 3251 -116 3424 -71 
L 3424 332 
z
M 2490 1071 
C 2490 893 2438 785 2278 638 
C 2061 441 1798 339 1485 339 
C 1069 339 826 536 826 874 
C 826 1224 1062 1402 1632 1485 
C 2195 1562 2310 1587 2490 1670 
L 2490 1071 
z
" transform="scale(0.015625)"/>
       <path id="NimbusSanL-Regu-69" d="M 960 3358 
L 429 3358 
L 429 0 
L 960 0 
L 960 3358 
z
M 960 4672 
L 422 4672 
L 422 3999 
L 960 3999 
L 960 4672 
z
" transform="scale(0.015625)"/>
       <path id="NimbusSanL-Regu-6f" d="M 1741 3456 
C 800 3456 230 2784 230 1663 
C 230 543 794 -128 1747 -128 
C 2688 -128 3264 543 3264 1638 
C 3264 2791 2707 3456 1741 3456 
z
M 1747 2963 
C 2349 2963 2707 2472 2707 1644 
C 2707 861 2336 364 1747 364 
C 1152 364 787 855 787 1663 
C 787 2466 1152 2963 1747 2963 
z
" transform="scale(0.015625)"/>
       <path id="NimbusSanL-Regu-6e" d="M 448 3328 
L 448 0 
L 986 0 
L 986 1835 
C 986 2539 1344 2988 1894 2988 
C 2317 2988 2586 2732 2586 2328 
L 2586 0 
L 3117 0 
L 3117 2539 
C 3117 3097 2701 3456 2054 3456 
C 1555 3456 1235 3263 941 2796 
L 941 3328 
L 448 3328 
z
" transform="scale(0.015625)"/>
      </defs>
      <use xlink:href="#NimbusSanL-Regu-49" transform="scale(0.996264)"/>
      <use xlink:href="#NimbusSanL-Regu-74" transform="translate(27.69517 0) scale(0.996264)"/>
      <use xlink:href="#NimbusSanL-Regu-65" transform="translate(55.390339 0) scale(0.996264)"/>
      <use xlink:href="#NimbusSanL-Regu-72" transform="translate(110.782016 0) scale(0.996264)"/>
      <use xlink:href="#NimbusSanL-Regu-61" transform="translate(142.961149 0) scale(0.996264)"/>
      <use xlink:href="#NimbusSanL-Regu-74" transform="translate(198.352826 0) scale(0.996264)"/>
      <use xlink:href="#NimbusSanL-Regu-69" transform="translate(226.047996 0) scale(0.996264)"/>
      <use xlink:href="#NimbusSanL-Regu-6f" transform="translate(248.16478 0) scale(0.996264)"/>
      <use xlink:href="#NimbusSanL-Regu-6e" transform="translate(303.556457 0) scale(0.996264)"/>
     </g>
    </g>
   </g>
   <g id="matplotlib.axis_2">
    <g id="ytick_1">
     <g id="line2d_8">
      <defs>
       <path id="mcc3ce9f09f" d="M 0 0 
L -3.5 0 
" style="stroke: #000000; stroke-width: 0.8"/>
      </defs>
      <g>
       <use xlink:href="#mcc3ce9f09f" x="40.150386" y="223.076098" style="stroke: #000000; stroke-width: 0.8"/>
      </g>
     </g>
     <g id="text_9">
      <!-- $\mathdefault{−3}$ -->
      <g transform="translate(20.420307 226.625258) scale(0.1 -0.1)">
       <defs>
        <path id="CMSY10-0" d="M 4218 1472 
C 4326 1472 4442 1472 4442 1600 
C 4442 1728 4326 1728 4218 1728 
L 755 1728 
C 646 1728 531 1728 531 1600 
C 531 1472 646 1472 755 1472 
L 4218 1472 
z
" transform="scale(0.015625)"/>
       </defs>
       <use xlink:href="#CMSY10-0" transform="scale(0.996264)"/>
       <use xlink:href="#CMR17-33" transform="translate(77.487468 0) scale(0.996264)"/>
      </g>
     </g>
    </g>
    <g id="ytick_2">
     <g id="line2d_9">
      <g>
       <use xlink:href="#mcc3ce9f09f" x="40.150386" y="195.193071" style="stroke: #000000; stroke-width: 0.8"/>
      </g>
     </g>
     <g id="text_10">
      <!-- $\mathdefault{−2}$ -->
      <g transform="translate(20.420307 198.742231) scale(0.1 -0.1)">
       <use xlink:href="#CMSY10-0" transform="scale(0.996264)"/>
       <use xlink:href="#CMR17-32" transform="translate(77.487468 0) scale(0.996264)"/>
      </g>
     </g>
    </g>
    <g id="ytick_3">
     <g id="line2d_10">
      <g>
       <use xlink:href="#mcc3ce9f09f" x="40.150386" y="167.310043" style="stroke: #000000; stroke-width: 0.8"/>
      </g>
     </g>
     <g id="text_11">
      <!-- $\mathdefault{−1}$ -->
      <g transform="translate(20.420307 170.859204) scale(0.1 -0.1)">
       <use xlink:href="#CMSY10-0" transform="scale(0.996264)"/>
       <use xlink:href="#CMR17-31" transform="translate(77.487468 0) scale(0.996264)"/>
      </g>
     </g>
    </g>
    <g id="ytick_4">
     <g id="line2d_11">
      <g>
       <use xlink:href="#mcc3ce9f09f" x="40.150386" y="139.427016" style="stroke: #000000; stroke-width: 0.8"/>
      </g>
     </g>
     <g id="text_12">
      <!-- $\mathdefault{0}$ -->
      <g transform="translate(28.16905 142.976176) scale(0.1 -0.1)">
       <use xlink:href="#CMR17-30" transform="scale(0.996264)"/>
      </g>
     </g>
    </g>
    <g id="ytick_5">
     <g id="line2d_12">
      <g>
       <use xlink:href="#mcc3ce9f09f" x="40.150386" y="111.543989" style="stroke: #000000; stroke-width: 0.8"/>
      </g>
     </g>
     <g id="text_13">
      <!-- $\mathdefault{1}$ -->
      <g transform="translate(28.16905 115.093149) scale(0.1 -0.1)">
       <use xlink:href="#CMR17-31" transform="scale(0.996264)"/>
      </g>
     </g>
    </g>
    <g id="ytick_6">
     <g id="line2d_13">
      <g>
       <use xlink:href="#mcc3ce9f09f" x="40.150386" y="83.660962" style="stroke: #000000; stroke-width: 0.8"/>
      </g>
     </g>
     <g id="text_14">
      <!-- $\mathdefault{2}$ -->
      <g transform="translate(28.16905 87.210122) scale(0.1 -0.1)">
       <use xlink:href="#CMR17-32" transform="scale(0.996264)"/>
      </g>
     </g>
    </g>
    <g id="ytick_7">
     <g id="line2d_14">
      <g>
       <use xlink:href="#mcc3ce9f09f" x="40.150386" y="55.777935" style="stroke: #000000; stroke-width: 0.8"/>
      </g>
     </g>
     <g id="text_15">
      <!-- $\mathdefault{3}$ -->
      <g transform="translate(28.16905 59.327095) scale(0.1 -0.1)">
       <use xlink:href="#CMR17-33" transform="scale(0.996264)"/>
      </g>
     </g>
    </g>
    <g id="ytick_8">
     <g id="line2d_15">
      <g>
       <use xlink:href="#mcc3ce9f09f" x="40.150386" y="27.894908" style="stroke: #000000; stroke-width: 0.8"/>
      </g>
     </g>
     <g id="text_16">
      <!-- $\mathdefault{4}$ -->
      <g transform="translate(28.16905 31.444068) scale(0.1 -0.1)">
       <defs>
        <path id="CMR17-34" d="M 2150 4147 
C 2150 4281 2144 4288 2029 4288 
L 128 1254 
L 128 1088 
L 1779 1088 
L 1779 460 
C 1779 230 1766 166 1318 166 
L 1197 166 
L 1197 0 
C 1402 12 1747 12 1965 12 
C 2182 12 2528 12 2733 0 
L 2733 166 
L 2611 166 
C 2163 166 2150 230 2150 460 
L 2150 1088 
L 2803 1088 
L 2803 1254 
L 2150 1254 
L 2150 4147 
z
M 1798 3723 
L 1798 1254 
L 256 1254 
L 1798 3723 
z
" transform="scale(0.015625)"/>
       </defs>
       <use xlink:href="#CMR17-34" transform="scale(0.996264)"/>
      </g>
     </g>
    </g>
    <g id="text_17">
     <!-- RMS residual - Blade_17 -->
     <g transform="translate(14.29832 172.470389) rotate(-90) scale(0.1 -0.1)">
      <defs>
       <path id="NimbusSanL-Regu-52" d="M 1190 2035 
L 2726 2035 
C 3258 2035 3494 1775 3494 1191 
L 3488 770 
C 3488 478 3539 192 3622 0 
L 4346 0 
L 4346 147 
C 4122 303 4077 471 4064 1101 
C 4058 1879 3936 2111 3430 2329 
C 3955 2585 4166 2907 4166 3432 
C 4166 4230 3661 4672 2746 4672 
L 595 4672 
L 595 0 
L 1190 0 
L 1190 2035 
z
M 1190 2560 
L 1190 4147 
L 2630 4147 
C 2963 4147 3155 4096 3302 3970 
C 3462 3837 3546 3628 3546 3350 
C 3546 2806 3264 2560 2630 2560 
L 1190 2560 
z
" transform="scale(0.015625)"/>
       <path id="NimbusSanL-Regu-4d" d="M 2995 0 
L 4307 3915 
L 4307 0 
L 4870 0 
L 4870 4672 
L 4045 4672 
L 2688 602 
L 1306 4672 
L 480 4672 
L 480 0 
L 1043 0 
L 1043 3915 
L 2368 0 
L 2995 0 
z
" transform="scale(0.015625)"/>
       <path id="NimbusSanL-Regu-53" d="M 3814 3295 
C 3808 4204 3181 4736 2106 4736 
C 1082 4736 448 4211 448 3372 
C 448 2806 749 2450 1363 2291 
L 2522 1986 
C 3110 1833 3379 1598 3379 1236 
C 3379 988 3245 733 3046 593 
C 2861 466 2566 396 2189 396 
C 1683 396 1338 517 1114 784 
C 941 988 864 1210 870 1496 
L 307 1496 
C 314 1070 397 790 582 536 
C 902 102 1440 -128 2150 -128 
C 2707 -128 3162 0 3462 230 
C 3776 479 3974 892 3974 1293 
C 3974 1865 3616 2284 2982 2456 
L 1811 2768 
C 1248 2920 1043 3098 1043 3454 
C 1043 3925 1459 4236 2086 4236 
C 2829 4236 3245 3899 3251 3295 
L 3814 3295 
z
" transform="scale(0.015625)"/>
       <path id="NimbusSanL-Regu-73" d="M 2803 2428 
C 2797 3084 2362 3456 1587 3456 
C 806 3456 301 3052 301 2434 
C 301 1912 570 1663 1363 1472 
L 1862 1351 
C 2234 1262 2381 1129 2381 887 
C 2381 574 2067 364 1600 364 
C 1312 364 1069 447 934 587 
C 851 683 813 778 781 1014 
L 218 1014 
C 243 243 678 -128 1555 -128 
C 2400 -128 2938 288 2938 931 
C 2938 1428 2656 1702 1990 1861 
L 1478 1982 
C 1043 2084 858 2224 858 2459 
C 858 2765 1133 2963 1568 2963 
C 1997 2963 2227 2778 2240 2428 
L 2803 2428 
z
" transform="scale(0.015625)"/>
       <path id="NimbusSanL-Regu-64" d="M 3168 4672 
L 2637 4672 
L 2637 2937 
C 2413 3276 2054 3456 1606 3456 
C 736 3456 166 2759 166 1695 
C 166 568 723 -128 1626 -128 
C 2086 -128 2406 44 2694 460 
L 2694 19 
L 3168 19 
L 3168 4672 
z
M 1696 2956 
C 2272 2956 2637 2447 2637 1651 
C 2637 880 2266 371 1702 371 
C 1114 371 723 887 723 1663 
C 723 2440 1114 2956 1696 2956 
z
" transform="scale(0.015625)"/>
       <path id="NimbusSanL-Regu-75" d="M 3085 19 
L 3085 3328 
L 2554 3328 
L 2554 1454 
C 2554 780 2195 339 1638 339 
C 1216 339 947 591 947 988 
L 947 3328 
L 416 3328 
L 416 780 
C 416 230 832 -128 1485 -128 
C 1978 -128 2291 44 2605 484 
L 2605 19 
L 3085 19 
z
" transform="scale(0.015625)"/>
       <path id="NimbusSanL-Regu-6c" d="M 973 4672 
L 435 4672 
L 435 0 
L 973 0 
L 973 4672 
z
" transform="scale(0.015625)"/>
       <path id="NimbusSanL-Regu-2d" d="M 1818 1996 
L 294 1996 
L 294 1536 
L 1818 1536 
L 1818 1996 
z
" transform="scale(0.015625)"/>
       <path id="NimbusSanL-Regu-42" d="M 506 0 
L 2611 0 
C 3053 0 3379 121 3629 390 
C 3859 632 3987 961 3987 1321 
C 3987 1878 3731 2214 3136 2444 
C 3558 2643 3782 2994 3782 3476 
C 3782 3821 3654 4127 3411 4345 
C 3168 4569 2848 4672 2400 4672 
L 506 4672 
L 506 0 
z
M 1101 2636 
L 1101 4147 
L 2253 4147 
C 2586 4147 2771 4101 2931 3977 
C 3098 3847 3187 3652 3187 3391 
C 3187 3138 3098 2936 2931 2806 
C 2771 2682 2586 2636 2253 2636 
L 1101 2636 
z
M 1101 524 
L 1101 2112 
L 2554 2112 
C 2842 2112 3034 2042 3174 1890 
C 3315 1745 3392 1542 3392 1315 
C 3392 1093 3315 891 3174 746 
C 3034 594 2842 524 2554 524 
L 1101 524 
z
" transform="scale(0.015625)"/>
       <path id="NimbusSanL-Regu-31" d="M 1658 3232 
L 1658 0 
L 2221 0 
L 2221 4537 
L 1850 4537 
C 1651 3840 1523 3744 653 3635 
L 653 3232 
L 1658 3232 
z
" transform="scale(0.015625)"/>
       <path id="NimbusSanL-Regu-37" d="M 3328 4544 
L 294 4544 
L 294 3987 
L 2746 3987 
C 1664 2442 1222 1493 883 0 
L 1485 0 
C 1734 1454 2304 2704 3328 4070 
L 3328 4544 
z
" transform="scale(0.015625)"/>
      </defs>
      <use xlink:href="#NimbusSanL-Regu-52" transform="scale(0.996264)"/>
      <use xlink:href="#NimbusSanL-Regu-4d" transform="translate(71.929985 0) scale(0.996264)"/>
      <use xlink:href="#NimbusSanL-Regu-53" transform="translate(154.918415 0) scale(0.996264)"/>
      <use xlink:href="#NimbusSanL-Regu-72" transform="translate(249.063616 0) scale(0.996264)"/>
      <use xlink:href="#NimbusSanL-Regu-65" transform="translate(282.238846 0) scale(0.996264)"/>
      <use xlink:href="#NimbusSanL-Regu-73" transform="translate(337.630523 0) scale(0.996264)"/>
      <use xlink:href="#NimbusSanL-Regu-69" transform="translate(387.443723 0) scale(0.996264)"/>
      <use xlink:href="#NimbusSanL-Regu-64" transform="translate(409.560507 0) scale(0.996264)"/>
      <use xlink:href="#NimbusSanL-Regu-75" transform="translate(464.952184 0) scale(0.996264)"/>
      <use xlink:href="#NimbusSanL-Regu-61" transform="translate(520.343861 0) scale(0.996264)"/>
      <use xlink:href="#NimbusSanL-Regu-6c" transform="translate(575.735538 0) scale(0.996264)"/>
      <use xlink:href="#NimbusSanL-Regu-2d" transform="translate(625.547492 0) scale(0.996264)"/>
      <use xlink:href="#NimbusSanL-Regu-42" transform="translate(686.417892 0) scale(0.996264)"/>
      <use xlink:href="#NimbusSanL-Regu-6c" transform="translate(752.867923 0) scale(0.996264)"/>
      <use xlink:href="#NimbusSanL-Regu-61" transform="translate(774.984707 0) scale(0.996264)"/>
      <use xlink:href="#NimbusSanL-Regu-64" transform="translate(830.376384 0) scale(0.996264)"/>
      <use xlink:href="#NimbusSanL-Regu-65" transform="translate(885.768061 0) scale(0.996264)"/>
      <use xlink:href="#NimbusSanL-Regu-31" transform="translate(977.025303 0) scale(0.996264)"/>
      <use xlink:href="#NimbusSanL-Regu-37" transform="translate(1032.41698 0) scale(0.996264)"/>
      <path d="M 947.137079 0 
L 977.025303 0 
L 977.025303 0.3985 
L 947.137079 0.3985 
L 947.137079 0 
z
"/>
     </g>
    </g>
   </g>
   <g id="line2d_16">
    <path d="M 55.368567 198.534509 
L 56.379742 205.377242 
L 57.390917 209.700781 
L 58.402092 215.007179 
L 59.413267 217.143348 
L 60.424442 217.239422 
L 62.446792 217.132881 
L 64.469141 217.270988 
L 65.480316 217.195306 
L 66.491491 216.872612 
L 67.502666 216.242745 
L 69.525016 214.541389 
L 70.536191 214.037597 
L 71.547365 214.049996 
L 72.55854 214.397244 
L 73.569715 213.813151 
L 77.614415 214.282306 
L 79.636764 214.499131 
L 80.647939 214.350115 
L 81.659114 213.970967 
L 82.670289 213.39029 
L 85.703814 211.246661 
L 86.714988 210.842451 
L 87.726163 210.768701 
L 88.737338 211.316734 
L 91.770863 213.364349 
L 94.804387 214.647834 
L 95.815562 214.8769 
L 96.826737 214.728122 
L 100.871437 212.824142 
L 101.882612 212.746827 
L 103.904961 214.323868 
L 106.938486 216.873396 
L 107.949661 217.686831 
L 108.960836 218.313495 
L 109.972011 218.456141 
L 110.983185 218.129402 
L 113.005535 217.024942 
L 114.01671 216.210629 
L 115.027885 215.238997 
L 116.03906 215.441983 
L 117.050235 215.778007 
L 118.061409 216.399438 
L 120.083759 218.057865 
L 121.094934 218.469161 
L 123.117284 218.552653 
L 124.128459 218.367637 
L 125.139634 217.773236 
L 127.161983 216.208751 
L 128.173158 215.517296 
L 129.184333 215.839829 
L 133.229033 217.553341 
L 135.251382 217.781763 
L 136.262557 217.840291 
L 137.273732 217.699276 
L 138.284907 217.266027 
L 141.318432 215.494858 
L 142.329606 214.797215 
L 146.374306 216.735367 
L 149.407831 217.405461 
L 151.43018 218.014384 
L 152.441355 217.985426 
L 153.45253 217.679553 
L 154.463705 217.201823 
L 155.47488 216.593385 
L 157.497229 217.113002 
L 159.519579 217.906749 
L 161.541929 218.700824 
L 162.553104 218.862916 
L 163.564279 218.88 
L 164.575454 218.758739 
L 165.586628 218.440336 
L 166.597803 217.610838 
L 168.620153 215.160423 
L 170.642503 215.144253 
L 174.687202 215.303543 
L 175.698377 215.32895 
L 177.720727 215.774568 
L 178.731902 215.842723 
L 179.743077 215.473905 
L 183.787776 212.52497 
L 185.810126 212.885309 
L 188.843651 213.801 
L 189.854825 213.935349 
L 190.866 213.908074 
L 192.88835 213.479405 
L 193.899525 212.881808 
L 194.9107 211.663143 
L 196.933049 208.089633 
L 197.944224 206.933717 
L 204.011274 206.674496 
L 211.089498 206.269244 
L 213.111847 206.382062 
L 215.134197 206.730341 
L 218.167722 207.498181 
L 219.178897 207.498927 
L 220.190072 207.020192 
L 221.201246 205.966487 
L 224.234771 201.644565 
L 225.245946 199.50744 
L 226.257121 196.806475 
L 229.290645 196.33667 
L 232.32417 195.67852 
L 234.34652 195.134672 
L 236.368869 195.283658 
L 239.402394 195.883827 
L 241.424744 195.688635 
L 242.435919 195.822098 
L 245.469443 196.943063 
L 249.514143 198.480087 
L 250.525318 198.566511 
L 251.536493 198.514581 
L 252.547667 197.941857 
L 253.558842 196.837226 
L 254.570017 196.992736 
L 256.592367 196.905008 
L 258.614717 196.441599 
L 259.625892 196.032503 
L 261.648241 194.815776 
L 264.681766 192.472851 
L 265.692941 192.091815 
L 266.704116 191.943567 
L 267.715291 192.062641 
L 268.726465 192.04703 
L 270.748815 191.691626 
L 271.75999 191.354536 
L 273.78234 190.32097 
L 274.793515 189.414499 
L 276.815864 189.097433 
L 278.838214 189.920895 
L 279.849389 190.995338 
L 280.860564 191.436368 
L 282.882914 191.464414 
L 283.894088 192.009441 
L 287.938788 193.097375 
L 288.949963 193.007345 
L 289.961138 193.333549 
L 290.972313 193.291679 
L 291.983487 192.90095 
L 292.994662 192.207573 
L 294.005837 192.547437 
L 296.028187 192.810043 
L 297.039362 192.47064 
L 301.084061 192.355939 
L 302.095236 192.40359 
L 304.117586 192.091686 
L 305.128761 191.791879 
L 306.139936 191.061541 
L 307.15111 190.572715 
L 313.21816 190.501649 
L 318.274034 190.264687 
L 323.329908 189.750069 
L 326.363433 189.438443 
L 328.385783 188.925556 
L 329.396958 188.074097 
L 330.408133 186.06016 
L 331.419307 185.30169 
L 332.430482 184.843826 
L 334.452832 184.956729 
L 335.464007 184.778305 
L 337.486357 183.499175 
L 339.508706 183.826772 
L 344.564581 184.166565 
L 348.60928 184.503069 
L 349.620455 184.150582 
L 350.63163 183.434043 
L 351.642805 182.858383 
L 352.65398 182.899901 
L 355.687504 182.272113 
L 356.698679 181.752048 
L 357.709854 181.834932 
L 359.732204 181.498314 
L 359.732204 181.498314 
" clip-path="url(#p26df1cf3ab)" style="fill: none; stroke: #1f77b4; stroke-width: 1.5; stroke-linecap: square"/>
   </g>
   <g id="line2d_17">
    <path d="M 55.368567 150.10021 
L 56.379742 140.840615 
L 57.390917 143.932862 
L 58.402092 145.707128 
L 59.413267 144.834488 
L 60.424442 145.172864 
L 63.457966 146.687736 
L 64.469141 146.890851 
L 65.480316 146.896871 
L 66.491491 146.614384 
L 67.502666 145.89434 
L 69.525016 143.927275 
L 70.536191 143.467406 
L 71.547365 143.362276 
L 72.55854 143.045396 
L 73.569715 142.256678 
L 75.592065 143.260917 
L 77.614415 144.226387 
L 80.647939 145.597957 
L 81.659114 145.720969 
L 83.681464 145.362221 
L 84.692639 145.107474 
L 86.714988 144.069326 
L 87.726163 143.543122 
L 91.770863 145.474726 
L 93.793213 146.484109 
L 94.804387 146.562771 
L 95.815562 146.035274 
L 97.837912 143.931912 
L 100.871437 140.92684 
L 101.882612 140.170072 
L 103.904961 141.249451 
L 107.949661 143.494153 
L 108.960836 143.507787 
L 109.972011 142.928087 
L 110.983185 142.167372 
L 111.99436 141.71077 
L 113.005535 141.641116 
L 115.027885 141.84683 
L 117.050235 142.8353 
L 121.094934 144.232746 
L 122.106109 144.716885 
L 123.117284 144.955548 
L 125.139634 144.920498 
L 126.150808 145.266658 
L 128.173158 146.400976 
L 132.217858 147.372073 
L 134.240207 148.525325 
L 135.251382 149.079589 
L 136.262557 149.386079 
L 137.273732 149.45102 
L 139.296082 149.276967 
L 140.307257 148.988475 
L 141.318432 148.445734 
L 142.329606 147.479515 
L 145.363131 147.187404 
L 146.374306 147.369394 
L 148.396656 148.053124 
L 149.407831 148.17795 
L 150.419005 148.018549 
L 151.43018 147.595914 
L 152.441355 146.931228 
L 154.463705 145.06301 
L 155.47488 144.023267 
L 158.508404 144.408603 
L 161.541929 144.554441 
L 162.553104 144.529112 
L 163.564279 144.346392 
L 165.586628 143.329341 
L 168.620153 141.300834 
L 169.631328 141.202222 
L 170.642503 140.977389 
L 172.664853 140.158638 
L 174.687202 139.202904 
L 175.698377 138.900411 
L 176.709552 139.373062 
L 178.731902 139.928358 
L 179.743077 139.825513 
L 182.776601 138.633067 
L 183.787776 138.476 
L 187.832476 139.914093 
L 188.843651 140.086548 
L 189.854825 139.998655 
L 190.866 139.536047 
L 191.877175 138.673582 
L 194.9107 135.408023 
L 195.921875 134.127338 
L 196.933049 132.277454 
L 197.944224 130.190109 
L 200.977749 129.84308 
L 204.011274 129.278214 
L 207.044798 128.425273 
L 211.089498 126.916316 
L 214.123022 125.859765 
L 218.167722 124.672336 
L 219.178897 124.136714 
L 220.190072 123.285804 
L 221.201246 122.049558 
L 223.223596 118.714003 
L 224.234771 117.105273 
L 225.245946 114.715202 
L 226.257121 111.435013 
L 229.290645 110.833985 
L 232.32417 110.02081 
L 234.34652 109.364193 
L 236.368869 109.737153 
L 239.402394 110.851885 
L 241.424744 110.576918 
L 242.435919 110.765789 
L 243.447094 111.300317 
L 245.469443 112.662809 
L 246.480618 113.28314 
L 247.491793 113.645517 
L 249.514143 114.067124 
L 250.525318 114.238758 
L 251.536493 114.588143 
L 252.547667 114.334699 
L 253.558842 113.391487 
L 254.570017 113.638552 
L 255.581192 113.728245 
L 257.603542 113.595712 
L 258.614717 113.420097 
L 259.625892 113.126104 
L 260.637066 112.629423 
L 261.648241 111.980747 
L 263.670591 110.247794 
L 264.681766 109.357489 
L 265.692941 108.729371 
L 266.704116 108.420036 
L 267.715291 108.754047 
L 268.726465 108.905721 
L 270.748815 108.854702 
L 271.75999 108.681741 
L 272.771165 108.390194 
L 273.78234 107.969052 
L 274.793515 107.27492 
L 276.815864 106.358582 
L 278.838214 106.637889 
L 279.849389 107.306378 
L 280.860564 107.608126 
L 281.871739 107.645961 
L 282.882914 107.841946 
L 285.916438 109.124127 
L 287.938788 109.57266 
L 289.961138 109.765354 
L 290.972313 109.627224 
L 291.983487 109.064932 
L 292.994662 108.138908 
L 295.017012 108.887386 
L 296.028187 109.034788 
L 297.039362 108.55281 
L 299.061712 108.505549 
L 301.084061 108.526472 
L 302.095236 108.525849 
L 304.117586 108.109696 
L 305.128761 107.561354 
L 306.139936 106.683568 
L 307.15111 106.022181 
L 313.21816 105.895639 
L 318.274034 105.562693 
L 322.318734 104.995392 
L 328.385783 103.814274 
L 329.396958 103.122314 
L 330.408133 101.194428 
L 331.419307 100.259392 
L 332.430482 99.698908 
L 334.452832 99.917362 
L 335.464007 99.605385 
L 337.486357 98.413785 
L 339.508706 99.030553 
L 342.542231 99.45964 
L 345.575756 99.767157 
L 346.58693 99.777495 
L 347.598105 99.908274 
L 348.60928 99.895412 
L 349.620455 99.538232 
L 350.63163 98.74624 
L 351.642805 98.192243 
L 352.65398 98.232469 
L 355.687504 97.488996 
L 356.698679 96.849242 
L 357.709854 97.030141 
L 359.732204 96.728695 
L 359.732204 96.728695 
" clip-path="url(#p26df1cf3ab)" style="fill: none; stroke: #ff7f0e; stroke-width: 1.5; stroke-linecap: square"/>
   </g>
   <g id="line2d_18">
    <path d="M 55.368567 45.04961 
L 56.379742 52.230693 
L 57.390917 56.347977 
L 58.402092 61.696816 
L 59.413267 63.594947 
L 60.424442 63.73102 
L 62.446792 63.732118 
L 64.469141 63.913774 
L 65.480316 63.80727 
L 66.491491 63.404074 
L 67.502666 62.668009 
L 69.525016 60.879321 
L 70.536191 60.452538 
L 71.547365 60.514459 
L 72.55854 60.750218 
L 73.569715 60.113944 
L 77.614415 61.062526 
L 78.62559 61.219797 
L 79.636764 61.231619 
L 80.647939 61.002645 
L 81.659114 60.540212 
L 83.681464 59.140958 
L 85.703814 57.606132 
L 86.714988 57.144541 
L 87.726163 57.043587 
L 88.737338 57.692082 
L 90.759688 59.335892 
L 91.770863 59.984118 
L 93.793213 60.813175 
L 94.804387 61.167093 
L 95.815562 61.317294 
L 96.826737 61.077328 
L 100.871437 58.909637 
L 101.882612 58.766269 
L 103.904961 60.661807 
L 105.927311 62.688961 
L 107.949661 64.340954 
L 108.960836 64.771013 
L 109.972011 64.654048 
L 114.01671 62.575351 
L 115.027885 61.79276 
L 117.050235 62.523853 
L 118.061409 63.161902 
L 120.083759 64.661085 
L 121.094934 64.990804 
L 123.117284 64.998315 
L 124.128459 64.825728 
L 125.139634 64.333345 
L 128.173158 62.399573 
L 130.195508 63.277296 
L 132.217858 64.315277 
L 133.229033 64.622713 
L 135.251382 64.825383 
L 136.262557 64.820845 
L 137.273732 64.611057 
L 138.284907 64.125621 
L 141.318432 62.136282 
L 142.329606 61.309334 
L 146.374306 63.434797 
L 150.419005 64.50691 
L 151.43018 64.609739 
L 152.441355 64.412065 
L 154.463705 63.450667 
L 155.47488 62.88318 
L 157.497229 63.640866 
L 159.519579 64.686519 
L 160.530754 65.232929 
L 161.541929 65.626755 
L 162.553104 65.801133 
L 163.564279 65.815322 
L 164.575454 65.690233 
L 165.586628 65.349588 
L 166.597803 64.447682 
L 168.620153 61.739584 
L 170.642503 62.085988 
L 174.687202 63.18819 
L 175.698377 63.141748 
L 176.709552 63.788906 
L 177.720727 63.938943 
L 178.731902 63.710878 
L 179.743077 62.876327 
L 181.765426 60.697924 
L 182.776601 60.018002 
L 183.787776 59.615039 
L 185.810126 60.172857 
L 188.843651 61.303567 
L 189.854825 61.367622 
L 190.866 61.089923 
L 191.877175 60.499056 
L 192.88835 59.6635 
L 193.899525 58.512941 
L 194.9107 56.941633 
L 195.921875 54.907121 
L 197.944224 50.345354 
L 200.977749 50.024321 
L 204.011274 49.488402 
L 207.044798 48.664005 
L 213.111847 46.638888 
L 215.134197 46.272663 
L 218.167722 46.027534 
L 219.178897 45.74078 
L 220.190072 45.041724 
L 221.201246 43.809721 
L 224.234771 38.878135 
L 225.245946 36.550549 
L 226.257121 33.39324 
L 229.290645 32.818234 
L 232.32417 32.056588 
L 234.34652 31.433988 
L 236.368869 31.877102 
L 239.402394 33.061068 
L 241.424744 32.759698 
L 242.435919 32.863395 
L 243.447094 33.301681 
L 246.480618 35.23827 
L 247.491793 35.516245 
L 251.536493 35.995831 
L 252.547667 35.466954 
L 253.558842 34.289218 
L 254.570017 34.660096 
L 256.592367 35.055049 
L 258.614717 35.112713 
L 259.625892 34.952835 
L 260.637066 34.548284 
L 261.648241 33.899743 
L 263.670591 31.930515 
L 264.681766 30.972606 
L 266.704116 29.581806 
L 267.715291 30.068407 
L 268.726465 30.363148 
L 269.73764 30.501104 
L 270.748815 30.509531 
L 271.75999 30.373555 
L 272.771165 30.063197 
L 273.78234 29.568937 
L 276.815864 27.196716 
L 277.827039 27.064108 
L 278.838214 27.049858 
L 279.849389 27.600698 
L 280.860564 27.889128 
L 281.871739 27.694881 
L 282.882914 27.725813 
L 284.905263 28.638254 
L 285.916438 29.111951 
L 287.938788 29.695251 
L 289.961138 29.96996 
L 290.972313 29.937321 
L 291.983487 29.565183 
L 292.994662 28.86681 
L 296.028187 29.808574 
L 297.039362 29.417456 
L 299.061712 29.480719 
L 302.095236 29.780703 
L 304.117586 29.594248 
L 305.128761 29.138002 
L 307.15111 27.54989 
L 313.21816 27.471007 
L 318.274034 27.209543 
L 321.307559 26.857121 
L 327.374608 25.848059 
L 328.385783 25.535428 
L 329.396958 24.884495 
L 330.408133 22.899788 
L 331.419307 21.985776 
L 332.430482 21.346003 
L 334.452832 20.984478 
L 335.464007 20.371696 
L 336.475182 19.48183 
L 337.486357 18.909084 
L 339.508706 19.709168 
L 342.542231 20.453993 
L 345.575756 20.941902 
L 346.58693 20.918972 
L 347.598105 21.02854 
L 348.60928 20.941005 
L 349.620455 20.546286 
L 350.63163 19.804404 
L 351.642805 19.237316 
L 352.65398 19.239164 
L 355.687504 18.532904 
L 356.698679 17.876905 
L 357.709854 17.902556 
L 359.732204 17.28 
L 359.732204 17.28 
" clip-path="url(#p26df1cf3ab)" style="fill: none; stroke: #2ca02c; stroke-width: 1.5; stroke-linecap: square"/>
   </g>
   <g id="patch_3">
    <path d="M 40.150386 228.96 
L 40.150386 7.2 
" style="fill: none; stroke: #000000; stroke-width: 0.8; stroke-linejoin: miter; stroke-linecap: square"/>
   </g>
   <g id="patch_4">
    <path d="M 374.950386 228.96 
L 374.950386 7.2 
" style="fill: none; stroke: #000000; stroke-width: 0.8; stroke-linejoin: miter; stroke-linecap: square"/>
   </g>
   <g id="patch_5">
    <path d="M 40.150386 228.96 
L 374.950386 228.96 
" style="fill: none; stroke: #000000; stroke-width: 0.8; stroke-linejoin: miter; stroke-linecap: square"/>
   </g>
   <g id="patch_6">
    <path d="M 40.150386 7.2 
L 374.950386 7.2 
" style="fill: none; stroke: #000000; stroke-width: 0.8; stroke-linejoin: miter; stroke-linecap: square"/>
   </g>
   <g id="legend_1">
    <g id="patch_7">
     <path d="M 47.150386 140.91046 
L 91.655585 140.91046 
Q 93.655585 140.91046 93.655585 138.91046 
L 93.655585 97.24954 
Q 93.655585 95.24954 91.655585 95.24954 
L 47.150386 95.24954 
Q 45.150386 95.24954 45.150386 97.24954 
L 45.150386 138.91046 
Q 45.150386 140.91046 47.150386 140.91046 
z
" style="fill: #ffffff; opacity: 0.8; stroke: #cccccc; stroke-linejoin: miter"/>
    </g>
    <g id="line2d_19">
     <path d="M 49.150386 102.84786 
L 59.150386 102.84786 
L 69.150386 102.84786 
" style="fill: none; stroke: #1f77b4; stroke-width: 1.5; stroke-linecap: square"/>
    </g>
    <g id="text_18">
     <!-- $\rho$ -->
     <g transform="translate(77.150386 106.34786) scale(0.1 -0.1)">
      <defs>
       <path id="CMMI12-1a" d="M 198 -1085 
C 192 -1116 179 -1154 179 -1191 
C 179 -1287 256 -1351 352 -1351 
C 448 -1351 538 -1287 576 -1198 
C 602 -1141 781 -390 986 389 
C 1114 70 1350 -64 1600 -64 
C 2323 -64 3142 830 3142 1794 
C 3142 2477 2726 2816 2285 2816 
C 1722 2816 1037 2234 826 1385 
L 198 -1085 
z
M 1594 64 
C 1158 64 1050 568 1050 645 
C 1050 683 1210 1289 1229 1385 
C 1555 2656 2182 2687 2278 2687 
C 2566 2687 2726 2426 2726 2049 
C 2726 1724 2554 1091 2445 823 
C 2253 383 1920 64 1594 64 
z
" transform="scale(0.015625)"/>
      </defs>
      <use xlink:href="#CMMI12-1a" transform="scale(0.996264)"/>
     </g>
    </g>
    <g id="line2d_20">
     <path d="M 49.150386 117.068167 
L 59.150386 117.068167 
L 69.150386 117.068167 
" style="fill: none; stroke: #ff7f0e; stroke-width: 1.5; stroke-linecap: square"/>
    </g>
    <g id="text_19">
     <!-- $\rho u$ -->
     <g transform="translate(77.150386 120.568167) scale(0.1 -0.1)">
      <defs>
       <path id="CMMI12-75" d="M 2182 370 
C 2266 12 2573 -64 2726 -64 
C 2931 -64 3085 70 3187 287 
C 3296 517 3379 893 3379 913 
C 3379 944 3354 970 3315 970 
C 3258 970 3251 938 3226 842 
C 3110 402 2995 64 2739 64 
C 2547 64 2547 274 2547 357 
C 2547 504 2566 568 2630 836 
C 2675 1008 2720 1181 2758 1359 
L 3021 2400 
C 3066 2560 3066 2572 3066 2591 
C 3066 2687 2989 2752 2893 2752 
C 2707 2752 2662 2591 2624 2432 
C 2560 2183 2214 810 2170 587 
C 2163 587 1914 64 1446 64 
C 1114 64 1050 351 1050 587 
C 1050 951 1229 1462 1395 1890 
C 1472 2094 1504 2177 1504 2305 
C 1504 2579 1306 2816 998 2816 
C 410 2816 173 1890 173 1838 
C 173 1813 198 1781 243 1781 
C 301 1781 307 1807 333 1896 
C 486 2445 736 2687 979 2687 
C 1043 2687 1146 2681 1146 2477 
C 1146 2311 1075 2126 979 1883 
C 698 1123 666 881 666 689 
C 666 38 1158 -64 1421 -64 
C 1830 -64 2054 217 2182 370 
z
" transform="scale(0.015625)"/>
      </defs>
      <use xlink:href="#CMMI12-1a" transform="scale(0.996264)"/>
      <use xlink:href="#CMMI12-75" transform="translate(50.314373 0) scale(0.996264)"/>
     </g>
    </g>
    <g id="line2d_21">
     <path d="M 49.150386 131.288474 
L 59.150386 131.288474 
L 69.150386 131.288474 
" style="fill: none; stroke: #2ca02c; stroke-width: 1.5; stroke-linecap: square"/>
    </g>
    <g id="text_20">
     <!-- $\rho E$ -->
     <g transform="translate(77.150386 134.788474) scale(0.1 -0.1)">
      <defs>
       <path id="CMMI12-45" d="M 4448 1489 
C 4454 1508 4474 1553 4474 1578 
C 4474 1611 4448 1643 4410 1643 
C 4384 1643 4371 1636 4352 1617 
C 4339 1611 4339 1598 4282 1469 
C 3904 570 3629 185 2605 185 
L 1670 185 
C 1581 185 1568 185 1530 192 
C 1459 198 1453 211 1453 262 
C 1453 307 1466 346 1478 403 
L 1920 2176 
L 2554 2176 
C 3053 2176 3091 2066 3091 1874 
C 3091 1810 3091 1752 3046 1559 
C 3034 1534 3027 1508 3027 1489 
C 3027 1444 3059 1424 3098 1424 
C 3155 1424 3162 1469 3187 1559 
L 3552 3036 
C 3552 3068 3526 3099 3488 3099 
C 3430 3099 3424 3074 3398 2986 
C 3270 2500 3142 2361 2573 2361 
L 1965 2361 
L 2362 3913 
C 2419 4134 2432 4153 2694 4153 
L 3610 4153 
C 4397 4153 4557 3945 4557 3465 
C 4557 3459 4557 3282 4531 3074 
C 4525 3049 4518 3011 4518 2998 
C 4518 2948 4550 2929 4589 2929 
C 4634 2929 4659 2954 4672 3068 
L 4806 4172 
C 4806 4191 4819 4255 4819 4268 
C 4819 4339 4762 4339 4646 4339 
L 1523 4339 
C 1402 4339 1338 4339 1338 4223 
C 1338 4153 1382 4153 1491 4153 
C 1888 4153 1888 4109 1888 4039 
C 1888 4008 1882 3983 1862 3913 
L 998 474 
C 941 249 928 185 480 185 
C 358 185 294 185 294 70 
C 294 0 333 0 461 0 
L 3674 0 
C 3814 0 3821 6 3866 108 
L 4448 1489 
z
" transform="scale(0.015625)"/>
      </defs>
      <use xlink:href="#CMMI12-1a" transform="scale(0.996264)"/>
      <use xlink:href="#CMMI12-45" transform="translate(50.314373 0) scale(0.996264)"/>
     </g>
    </g>
   </g>
  </g>
 </g>
 <defs>
  <clipPath id="p26df1cf3ab">
   <rect x="40.150386" y="7.2" width="334.8" height="221.76"/>
  </clipPath>
 </defs>
</svg>
