<?xml version="1.0" encoding="utf-8" standalone="no"?>
<!DOCTYPE svg PUBLIC "-//W3C//DTD SVG 1.1//EN"
  "http://www.w3.org/Graphics/SVG/1.1/DTD/svg11.dtd">
<svg xmlns:xlink="http://www.w3.org/1999/xlink" width="379.567344pt" height="265.600613pt" viewBox="0 0 379.567344 265.600613" xmlns="http://www.w3.org/2000/svg" version="1.1">
 <metadata>
  <rdf:RDF xmlns:dc="http://purl.org/dc/elements/1.1/" xmlns:cc="http://creativecommons.org/ns#" xmlns:rdf="http://www.w3.org/1999/02/22-rdf-syntax-ns#">
   <cc:Work>
    <dc:type rdf:resource="http://purl.org/dc/dcmitype/StillImage"/>
    <dc:date>2025-07-17T18:08:26.429120</dc:date>
    <dc:format>image/svg+xml</dc:format>
    <dc:creator>
     <cc:Agent>
      <dc:title>Matplotlib v3.10.3, https://matplotlib.org/</dc:title>
     </cc:Agent>
    </dc:creator>
   </cc:Work>
  </rdf:RDF>
 </metadata>
 <defs>
  <style type="text/css">*{stroke-linejoin: round; stroke-linecap: butt}</style>
 </defs>
 <g id="figure_1">
  <g id="patch_1">
   <path d="M 0 265.600613 
L 379.567344 265.600613 
L 379.567344 0 
L 0 0 
z
" style="fill: #ffffff"/>
  </g>
  <g id="axes_1">
   <g id="patch_2">
    <path d="M 37.567344 228.96 
L 372.367344 228.96 
L 372.367344 7.2 
L 37.567344 7.2 
z
" style="fill: #ffffff"/>
   </g>
   <g id="matplotlib.axis_1">
    <g id="xtick_1">
     <g id="line2d_1">
      <defs>
       <path id="mb97f03f443" d="M 0 0 
L 0 3.5 
" style="stroke: #000000; stroke-width: 0.8"/>
      </defs>
      <g>
       <use xlink:href="#mb97f03f443" x="52.785526" y="228.96" style="stroke: #000000; stroke-width: 0.8"/>
      </g>
     </g>
     <g id="text_1">
      <!-- $\mathdefault{0}$ -->
      <g transform="translate(50.294859 243.05832) scale(0.1 -0.1)">
       <defs>
        <path id="CMR17-30" d="M 2688 2038 
C 2688 2430 2682 3099 2413 3613 
C 2176 4063 1798 4224 1466 4224 
C 1158 4224 768 4082 525 3620 
C 269 3137 243 2539 243 2038 
C 243 1671 250 1112 448 623 
C 723 -39 1216 -128 1466 -128 
C 1760 -128 2208 -7 2470 604 
C 2662 1048 2688 1568 2688 2038 
z
M 1466 -26 
C 1056 -26 813 328 723 816 
C 653 1196 653 1749 653 2109 
C 653 2604 653 3015 736 3407 
C 858 3954 1216 4121 1466 4121 
C 1728 4121 2067 3947 2189 3420 
C 2272 3054 2278 2623 2278 2109 
C 2278 1691 2278 1176 2202 797 
C 2067 96 1690 -26 1466 -26 
z
" transform="scale(0.015625)"/>
       </defs>
       <use xlink:href="#CMR17-30" transform="scale(0.996264)"/>
      </g>
     </g>
    </g>
    <g id="xtick_2">
     <g id="line2d_2">
      <g>
       <use xlink:href="#mb97f03f443" x="125.721936" y="228.96" style="stroke: #000000; stroke-width: 0.8"/>
      </g>
     </g>
     <g id="text_2">
      <!-- $\mathdefault{1000}$ -->
      <g transform="translate(115.759265 243.05832) scale(0.1 -0.1)">
       <defs>
        <path id="CMR17-31" d="M 1702 4083 
C 1702 4217 1696 4224 1606 4224 
C 1357 3927 979 3833 621 3820 
C 602 3820 570 3820 563 3808 
C 557 3795 557 3782 557 3648 
C 755 3648 1088 3686 1344 3839 
L 1344 467 
C 1344 243 1331 166 781 166 
L 589 166 
L 589 0 
C 896 6 1216 12 1523 12 
C 1830 12 2150 6 2458 0 
L 2458 166 
L 2266 166 
C 1715 166 1702 236 1702 467 
L 1702 4083 
z
" transform="scale(0.015625)"/>
       </defs>
       <use xlink:href="#CMR17-31" transform="scale(0.996264)"/>
       <use xlink:href="#CMR17-30" transform="translate(45.690477 0) scale(0.996264)"/>
       <use xlink:href="#CMR17-30" transform="translate(91.380954 0) scale(0.996264)"/>
       <use xlink:href="#CMR17-30" transform="translate(137.071431 0) scale(0.996264)"/>
      </g>
     </g>
    </g>
    <g id="xtick_3">
     <g id="line2d_3">
      <g>
       <use xlink:href="#mb97f03f443" x="198.658345" y="228.96" style="stroke: #000000; stroke-width: 0.8"/>
      </g>
     </g>
     <g id="text_3">
      <!-- $\mathdefault{2000}$ -->
      <g transform="translate(188.695674 243.05832) scale(0.1 -0.1)">
       <defs>
        <path id="CMR17-32" d="M 2669 990 
L 2554 990 
C 2490 537 2438 460 2413 422 
C 2381 371 1920 371 1830 371 
L 602 371 
C 832 620 1280 1073 1824 1596 
C 2214 1966 2669 2400 2669 3033 
C 2669 3788 2067 4224 1395 4224 
C 691 4224 262 3603 262 3027 
C 262 2777 448 2745 525 2745 
C 589 2745 781 2783 781 3007 
C 781 3206 614 3264 525 3264 
C 486 3264 448 3257 422 3244 
C 544 3788 915 4057 1306 4057 
C 1862 4057 2227 3616 2227 3033 
C 2227 2477 1901 1998 1536 1583 
L 262 147 
L 262 0 
L 2515 0 
L 2669 990 
z
" transform="scale(0.015625)"/>
       </defs>
       <use xlink:href="#CMR17-32" transform="scale(0.996264)"/>
       <use xlink:href="#CMR17-30" transform="translate(45.690477 0) scale(0.996264)"/>
       <use xlink:href="#CMR17-30" transform="translate(91.380954 0) scale(0.996264)"/>
       <use xlink:href="#CMR17-30" transform="translate(137.071431 0) scale(0.996264)"/>
      </g>
     </g>
    </g>
    <g id="xtick_4">
     <g id="line2d_4">
      <g>
       <use xlink:href="#mb97f03f443" x="271.594754" y="228.96" style="stroke: #000000; stroke-width: 0.8"/>
      </g>
     </g>
     <g id="text_4">
      <!-- $\mathdefault{3000}$ -->
      <g transform="translate(261.632084 243.05832) scale(0.1 -0.1)">
       <defs>
        <path id="CMR17-33" d="M 1414 2176 
C 1984 2176 2234 1673 2234 1094 
C 2234 322 1824 25 1453 25 
C 1114 25 563 193 390 691 
C 422 678 454 678 486 678 
C 640 678 755 780 755 947 
C 755 1132 614 1216 486 1216 
C 378 1216 211 1164 211 927 
C 211 335 787 -128 1466 -128 
C 2176 -128 2720 432 2720 1087 
C 2720 1718 2208 2176 1600 2246 
C 2086 2347 2554 2776 2554 3353 
C 2554 3856 2048 4224 1472 4224 
C 890 4224 378 3862 378 3347 
C 378 3123 544 3084 627 3084 
C 762 3084 877 3167 877 3334 
C 877 3500 762 3584 627 3584 
C 602 3584 570 3584 544 3571 
C 730 3999 1235 4076 1459 4076 
C 1683 4076 2106 3966 2106 3347 
C 2106 3167 2080 2851 1862 2574 
C 1670 2329 1453 2316 1242 2297 
C 1210 2297 1062 2284 1037 2284 
C 992 2278 966 2272 966 2227 
C 966 2182 973 2176 1101 2176 
L 1414 2176 
z
" transform="scale(0.015625)"/>
       </defs>
       <use xlink:href="#CMR17-33" transform="scale(0.996264)"/>
       <use xlink:href="#CMR17-30" transform="translate(45.690477 0) scale(0.996264)"/>
       <use xlink:href="#CMR17-30" transform="translate(91.380954 0) scale(0.996264)"/>
       <use xlink:href="#CMR17-30" transform="translate(137.071431 0) scale(0.996264)"/>
      </g>
     </g>
    </g>
    <g id="xtick_5">
     <g id="line2d_5">
      <g>
       <use xlink:href="#mb97f03f443" x="344.531164" y="228.96" style="stroke: #000000; stroke-width: 0.8"/>
      </g>
     </g>
     <g id="text_5">
      <!-- $\mathdefault{4000}$ -->
      <g transform="translate(334.568493 243.05832) scale(0.1 -0.1)">
       <defs>
        <path id="CMR17-34" d="M 2150 4147 
C 2150 4281 2144 4288 2029 4288 
L 128 1254 
L 128 1088 
L 1779 1088 
L 1779 460 
C 1779 230 1766 166 1318 166 
L 1197 166 
L 1197 0 
C 1402 12 1747 12 1965 12 
C 2182 12 2528 12 2733 0 
L 2733 166 
L 2611 166 
C 2163 166 2150 230 2150 460 
L 2150 1088 
L 2803 1088 
L 2803 1254 
L 2150 1254 
L 2150 4147 
z
M 1798 3723 
L 1798 1254 
L 256 1254 
L 1798 3723 
z
" transform="scale(0.015625)"/>
       </defs>
       <use xlink:href="#CMR17-34" transform="scale(0.996264)"/>
       <use xlink:href="#CMR17-30" transform="translate(45.690477 0) scale(0.996264)"/>
       <use xlink:href="#CMR17-30" transform="translate(91.380954 0) scale(0.996264)"/>
       <use xlink:href="#CMR17-30" transform="translate(137.071431 0) scale(0.996264)"/>
      </g>
     </g>
    </g>
    <g id="text_6">
     <!-- Iteration -->
     <g transform="translate(187.019968 256.278627) scale(0.1 -0.1)">
      <defs>
       <path id="NimbusSanL-Regu-49" d="M 1242 4672 
L 640 4672 
L 640 0 
L 1242 0 
L 1242 4672 
z
" transform="scale(0.015625)"/>
       <path id="NimbusSanL-Regu-74" d="M 1626 3328 
L 1075 3328 
L 1075 4249 
L 544 4249 
L 544 3328 
L 90 3328 
L 90 2892 
L 544 2892 
L 544 402 
C 544 64 774 -128 1190 -128 
C 1318 -128 1446 -116 1626 -84 
L 1626 364 
C 1555 345 1472 339 1370 339 
C 1139 339 1075 402 1075 634 
L 1075 2892 
L 1626 2892 
L 1626 3328 
z
" transform="scale(0.015625)"/>
       <path id="NimbusSanL-Regu-65" d="M 3283 1484 
C 3283 1998 3245 2311 3149 2565 
C 2931 3123 2419 3456 1792 3456 
C 858 3456 256 2734 256 1619 
C 256 545 838 -128 1779 -128 
C 2547 -128 3078 307 3213 1018 
L 2675 1018 
C 2528 588 2227 364 1798 364 
C 1459 364 1171 514 992 787 
C 864 974 819 1161 813 1484 
L 3283 1484 
z
M 826 1920 
C 870 2552 1248 2963 1786 2963 
C 2310 2963 2714 2519 2714 1959 
C 2714 1946 2714 1933 2707 1920 
L 826 1920 
z
" transform="scale(0.015625)"/>
       <path id="NimbusSanL-Regu-72" d="M 442 3328 
L 442 0 
L 979 0 
L 979 1727 
C 979 2203 1101 2514 1357 2698 
C 1523 2819 1683 2857 2054 2863 
L 2054 3404 
C 1965 3449 1920 3456 1850 3456 
C 1504 3456 1242 3251 934 2750 
L 934 3328 
L 442 3328 
z
" transform="scale(0.015625)"/>
       <path id="NimbusSanL-Regu-61" d="M 3424 332 
C 3366 320 3341 320 3309 320 
C 3123 320 3021 415 3021 581 
L 3021 2542 
C 3021 3135 2586 3456 1760 3456 
C 1274 3456 870 3315 646 3065 
C 493 2893 429 2702 416 2370 
L 954 2370 
C 998 2778 1242 2963 1741 2963 
C 2221 2963 2490 2784 2490 2466 
L 2490 2326 
C 2490 2103 2355 2007 1933 1956 
C 1178 1861 1062 1835 858 1753 
C 467 1593 269 1294 269 861 
C 269 256 691 -128 1370 -128 
C 1792 -128 2131 19 2509 364 
C 2547 25 2714 -128 3059 -128 
C 3168 -128 3251 -116 3424 -71 
L 3424 332 
z
M 2490 1071 
C 2490 893 2438 785 2278 638 
C 2061 441 1798 339 1485 339 
C 1069 339 826 536 826 874 
C 826 1224 1062 1402 1632 1485 
C 2195 1562 2310 1587 2490 1670 
L 2490 1071 
z
" transform="scale(0.015625)"/>
       <path id="NimbusSanL-Regu-69" d="M 960 3358 
L 429 3358 
L 429 0 
L 960 0 
L 960 3358 
z
M 960 4672 
L 422 4672 
L 422 3999 
L 960 3999 
L 960 4672 
z
" transform="scale(0.015625)"/>
       <path id="NimbusSanL-Regu-6f" d="M 1741 3456 
C 800 3456 230 2784 230 1663 
C 230 543 794 -128 1747 -128 
C 2688 -128 3264 543 3264 1638 
C 3264 2791 2707 3456 1741 3456 
z
M 1747 2963 
C 2349 2963 2707 2472 2707 1644 
C 2707 861 2336 364 1747 364 
C 1152 364 787 855 787 1663 
C 787 2466 1152 2963 1747 2963 
z
" transform="scale(0.015625)"/>
       <path id="NimbusSanL-Regu-6e" d="M 448 3328 
L 448 0 
L 986 0 
L 986 1835 
C 986 2539 1344 2988 1894 2988 
C 2317 2988 2586 2732 2586 2328 
L 2586 0 
L 3117 0 
L 3117 2539 
C 3117 3097 2701 3456 2054 3456 
C 1555 3456 1235 3263 941 2796 
L 941 3328 
L 448 3328 
z
" transform="scale(0.015625)"/>
      </defs>
      <use xlink:href="#NimbusSanL-Regu-49" transform="scale(0.996264)"/>
      <use xlink:href="#NimbusSanL-Regu-74" transform="translate(27.69517 0) scale(0.996264)"/>
      <use xlink:href="#NimbusSanL-Regu-65" transform="translate(55.390339 0) scale(0.996264)"/>
      <use xlink:href="#NimbusSanL-Regu-72" transform="translate(110.782016 0) scale(0.996264)"/>
      <use xlink:href="#NimbusSanL-Regu-61" transform="translate(142.961149 0) scale(0.996264)"/>
      <use xlink:href="#NimbusSanL-Regu-74" transform="translate(198.352826 0) scale(0.996264)"/>
      <use xlink:href="#NimbusSanL-Regu-69" transform="translate(226.047996 0) scale(0.996264)"/>
      <use xlink:href="#NimbusSanL-Regu-6f" transform="translate(248.16478 0) scale(0.996264)"/>
      <use xlink:href="#NimbusSanL-Regu-6e" transform="translate(303.556457 0) scale(0.996264)"/>
     </g>
    </g>
   </g>
   <g id="matplotlib.axis_2">
    <g id="ytick_1">
     <g id="line2d_6">
      <defs>
       <path id="m588c19e250" d="M 0 0 
L -3.5 0 
" style="stroke: #000000; stroke-width: 0.8"/>
      </defs>
      <g>
       <use xlink:href="#m588c19e250" x="37.567344" y="198.00645" style="stroke: #000000; stroke-width: 0.8"/>
      </g>
     </g>
     <g id="text_7">
      <!-- $\mathdefault{5}$ -->
      <g transform="translate(25.586009 201.55561) scale(0.1 -0.1)">
       <defs>
        <path id="CMR17-35" d="M 730 3750 
C 794 3724 1056 3641 1325 3641 
C 1920 3641 2246 3961 2432 4140 
C 2432 4191 2432 4224 2394 4224 
C 2387 4224 2374 4224 2323 4198 
C 2099 4102 1837 4032 1517 4032 
C 1325 4032 1037 4055 723 4191 
C 653 4224 640 4224 634 4224 
C 602 4224 595 4217 595 4090 
L 595 2231 
C 595 2113 595 2080 659 2080 
C 691 2080 704 2093 736 2139 
C 941 2435 1222 2560 1542 2560 
C 1766 2560 2246 2415 2246 1293 
C 2246 1087 2246 716 2054 422 
C 1894 159 1645 25 1370 25 
C 947 25 518 319 403 812 
C 429 806 480 793 506 793 
C 589 793 749 838 749 1036 
C 749 1209 627 1280 506 1280 
C 358 1280 262 1190 262 1011 
C 262 454 704 -128 1382 -128 
C 2042 -128 2669 441 2669 1267 
C 2669 2054 2170 2662 1549 2662 
C 1222 2662 947 2540 730 2304 
L 730 3750 
z
" transform="scale(0.015625)"/>
       </defs>
       <use xlink:href="#CMR17-35" transform="scale(0.996264)"/>
      </g>
     </g>
    </g>
    <g id="ytick_2">
     <g id="line2d_7">
      <g>
       <use xlink:href="#m588c19e250" x="37.567344" y="166.098322" style="stroke: #000000; stroke-width: 0.8"/>
      </g>
     </g>
     <g id="text_8">
      <!-- $\mathdefault{10}$ -->
      <g transform="translate(20.604674 169.647482) scale(0.1 -0.1)">
       <use xlink:href="#CMR17-31" transform="scale(0.996264)"/>
       <use xlink:href="#CMR17-30" transform="translate(45.690477 0) scale(0.996264)"/>
      </g>
     </g>
    </g>
    <g id="ytick_3">
     <g id="line2d_8">
      <g>
       <use xlink:href="#m588c19e250" x="37.567344" y="134.190193" style="stroke: #000000; stroke-width: 0.8"/>
      </g>
     </g>
     <g id="text_9">
      <!-- $\mathdefault{15}$ -->
      <g transform="translate(20.604674 137.739353) scale(0.1 -0.1)">
       <use xlink:href="#CMR17-31" transform="scale(0.996264)"/>
       <use xlink:href="#CMR17-35" transform="translate(45.690477 0) scale(0.996264)"/>
      </g>
     </g>
    </g>
    <g id="ytick_4">
     <g id="line2d_9">
      <g>
       <use xlink:href="#m588c19e250" x="37.567344" y="102.282064" style="stroke: #000000; stroke-width: 0.8"/>
      </g>
     </g>
     <g id="text_10">
      <!-- $\mathdefault{20}$ -->
      <g transform="translate(20.604674 105.831224) scale(0.1 -0.1)">
       <use xlink:href="#CMR17-32" transform="scale(0.996264)"/>
       <use xlink:href="#CMR17-30" transform="translate(45.690477 0) scale(0.996264)"/>
      </g>
     </g>
    </g>
    <g id="ytick_5">
     <g id="line2d_10">
      <g>
       <use xlink:href="#m588c19e250" x="37.567344" y="70.373936" style="stroke: #000000; stroke-width: 0.8"/>
      </g>
     </g>
     <g id="text_11">
      <!-- $\mathdefault{25}$ -->
      <g transform="translate(20.604674 73.923096) scale(0.1 -0.1)">
       <use xlink:href="#CMR17-32" transform="scale(0.996264)"/>
       <use xlink:href="#CMR17-35" transform="translate(45.690477 0) scale(0.996264)"/>
      </g>
     </g>
    </g>
    <g id="ytick_6">
     <g id="line2d_11">
      <g>
       <use xlink:href="#m588c19e250" x="37.567344" y="38.465807" style="stroke: #000000; stroke-width: 0.8"/>
      </g>
     </g>
     <g id="text_12">
      <!-- $\mathdefault{30}$ -->
      <g transform="translate(20.604674 42.014967) scale(0.1 -0.1)">
       <use xlink:href="#CMR17-33" transform="scale(0.996264)"/>
       <use xlink:href="#CMR17-30" transform="translate(45.690477 0) scale(0.996264)"/>
      </g>
     </g>
    </g>
    <g id="text_13">
     <!-- Average CFL - Blade_1 -->
     <g transform="translate(14.482687 168.77932) rotate(-90) scale(0.1 -0.1)">
      <defs>
       <path id="NimbusSanL-Regu-41" d="M 3034 1408 
L 3514 0 
L 4179 0 
L 2541 4672 
L 1773 4672 
L 109 0 
L 742 0 
L 1235 1408 
L 3034 1408 
z
M 2867 1907 
L 1382 1907 
L 2150 4032 
L 2867 1907 
z
" transform="scale(0.015625)"/>
       <path id="NimbusSanL-Regu-76" d="M 1824 0 
L 3110 3328 
L 2509 3328 
L 1562 629 
L 666 3328 
L 64 3328 
L 1242 0 
L 1824 0 
z
" transform="scale(0.015625)"/>
       <path id="NimbusSanL-Regu-67" d="M 2637 3359 
L 2637 2873 
C 2368 3270 2042 3456 1613 3456 
C 762 3456 186 2714 186 1632 
C 186 1084 333 638 608 320 
C 858 38 1216 -128 1568 -128 
C 1990 -128 2285 51 2586 473 
L 2586 300 
C 2586 -155 2528 -441 2394 -634 
C 2253 -841 1978 -960 1651 -960 
C 1408 -960 1190 -894 1043 -774 
C 922 -674 870 -581 838 -375 
L 294 -375 
C 352 -1031 845 -1408 1632 -1408 
C 2131 -1408 2560 -1248 2778 -980 
C 3034 -661 3130 -222 3130 568 
L 3130 3359 
L 2637 3359 
z
M 1670 2963 
C 2246 2963 2586 2479 2586 1644 
C 2586 848 2240 364 1677 364 
C 1094 364 742 855 742 1663 
C 742 2466 1101 2963 1670 2963 
z
" transform="scale(0.015625)"/>
       <path id="NimbusSanL-Regu-43" d="M 4237 3219 
C 4051 4236 3462 4736 2438 4736 
C 1811 4736 1306 4537 960 4154 
C 538 3696 307 3035 307 2284 
C 307 1522 544 867 986 415 
C 1344 44 1805 -128 2413 -128 
C 3552 -128 4192 485 4333 1712 
L 3718 1712 
C 3667 1394 3603 1178 3507 994 
C 3315 612 2918 396 2419 396 
C 1491 396 902 1134 902 2291 
C 902 3480 1466 4211 2368 4211 
C 2746 4211 3098 4096 3290 3918 
C 3462 3759 3558 3562 3629 3219 
L 4237 3219 
z
" transform="scale(0.015625)"/>
       <path id="NimbusSanL-Regu-46" d="M 1171 2112 
L 3398 2112 
L 3398 2636 
L 1171 2636 
L 1171 4147 
L 3706 4147 
L 3706 4672 
L 576 4672 
L 576 0 
L 1171 0 
L 1171 2112 
z
" transform="scale(0.015625)"/>
       <path id="NimbusSanL-Regu-4c" d="M 1107 4672 
L 512 4672 
L 512 0 
L 3411 0 
L 3411 524 
L 1107 524 
L 1107 4672 
z
" transform="scale(0.015625)"/>
       <path id="NimbusSanL-Regu-2d" d="M 1818 1996 
L 294 1996 
L 294 1536 
L 1818 1536 
L 1818 1996 
z
" transform="scale(0.015625)"/>
       <path id="NimbusSanL-Regu-42" d="M 506 0 
L 2611 0 
C 3053 0 3379 121 3629 390 
C 3859 632 3987 961 3987 1321 
C 3987 1878 3731 2214 3136 2444 
C 3558 2643 3782 2994 3782 3476 
C 3782 3821 3654 4127 3411 4345 
C 3168 4569 2848 4672 2400 4672 
L 506 4672 
L 506 0 
z
M 1101 2636 
L 1101 4147 
L 2253 4147 
C 2586 4147 2771 4101 2931 3977 
C 3098 3847 3187 3652 3187 3391 
C 3187 3138 3098 2936 2931 2806 
C 2771 2682 2586 2636 2253 2636 
L 1101 2636 
z
M 1101 524 
L 1101 2112 
L 2554 2112 
C 2842 2112 3034 2042 3174 1890 
C 3315 1745 3392 1542 3392 1315 
C 3392 1093 3315 891 3174 746 
C 3034 594 2842 524 2554 524 
L 1101 524 
z
" transform="scale(0.015625)"/>
       <path id="NimbusSanL-Regu-6c" d="M 973 4672 
L 435 4672 
L 435 0 
L 973 0 
L 973 4672 
z
" transform="scale(0.015625)"/>
       <path id="NimbusSanL-Regu-64" d="M 3168 4672 
L 2637 4672 
L 2637 2937 
C 2413 3276 2054 3456 1606 3456 
C 736 3456 166 2759 166 1695 
C 166 568 723 -128 1626 -128 
C 2086 -128 2406 44 2694 460 
L 2694 19 
L 3168 19 
L 3168 4672 
z
M 1696 2956 
C 2272 2956 2637 2447 2637 1651 
C 2637 880 2266 371 1702 371 
C 1114 371 723 887 723 1663 
C 723 2440 1114 2956 1696 2956 
z
" transform="scale(0.015625)"/>
       <path id="NimbusSanL-Regu-31" d="M 1658 3232 
L 1658 0 
L 2221 0 
L 2221 4537 
L 1850 4537 
C 1651 3840 1523 3744 653 3635 
L 653 3232 
L 1658 3232 
z
" transform="scale(0.015625)"/>
      </defs>
      <use xlink:href="#NimbusSanL-Regu-41" transform="scale(0.996264)"/>
      <use xlink:href="#NimbusSanL-Regu-76" transform="translate(62.465918 0) scale(0.996264)"/>
      <use xlink:href="#NimbusSanL-Regu-65" transform="translate(109.788488 0) scale(0.996264)"/>
      <use xlink:href="#NimbusSanL-Regu-72" transform="translate(165.180165 0) scale(0.996264)"/>
      <use xlink:href="#NimbusSanL-Regu-61" transform="translate(197.359298 0) scale(0.996264)"/>
      <use xlink:href="#NimbusSanL-Regu-67" transform="translate(252.750975 0) scale(0.996264)"/>
      <use xlink:href="#NimbusSanL-Regu-65" transform="translate(308.142652 0) scale(0.996264)"/>
      <use xlink:href="#NimbusSanL-Regu-43" transform="translate(391.229499 0) scale(0.996264)"/>
      <use xlink:href="#NimbusSanL-Regu-46" transform="translate(463.159484 0) scale(0.996264)"/>
      <use xlink:href="#NimbusSanL-Regu-4c" transform="translate(524.031114 0) scale(0.996264)"/>
      <use xlink:href="#NimbusSanL-Regu-2d" transform="translate(607.117961 0) scale(0.996264)"/>
      <use xlink:href="#NimbusSanL-Regu-42" transform="translate(667.98836 0) scale(0.996264)"/>
      <use xlink:href="#NimbusSanL-Regu-6c" transform="translate(734.438391 0) scale(0.996264)"/>
      <use xlink:href="#NimbusSanL-Regu-61" transform="translate(756.555176 0) scale(0.996264)"/>
      <use xlink:href="#NimbusSanL-Regu-64" transform="translate(811.946853 0) scale(0.996264)"/>
      <use xlink:href="#NimbusSanL-Regu-65" transform="translate(867.33853 0) scale(0.996264)"/>
      <use xlink:href="#NimbusSanL-Regu-31" transform="translate(958.595772 0) scale(0.996264)"/>
      <path d="M 928.707548 0 
L 958.595772 0 
L 958.595772 0.3985 
L 928.707548 0.3985 
L 928.707548 0 
z
"/>
     </g>
    </g>
   </g>
   <g id="line2d_12">
    <path d="M 52.785526 138.925544 
L 52.931399 100.471846 
L 53.004335 216.970305 
L 53.077272 214.381451 
L 53.369017 197.705085 
L 53.660763 163.124972 
L 53.952509 91.58834 
L 54.025445 216.081955 
L 54.098382 213.31543 
L 54.390127 195.494584 
L 54.681873 158.541278 
L 55.192428 52.544037 
L 55.265364 17.28 
L 55.338301 208.651121 
L 55.411237 204.398429 
L 55.702983 177.004291 
L 55.994728 120.199807 
L 56.140601 71.95811 
L 56.213537 214.118932 
L 56.286474 210.959803 
L 56.578219 190.609955 
L 56.869965 148.441201 
L 57.088774 89.309919 
L 57.161711 215.854113 
L 57.234647 213.04202 
L 57.526393 194.92764 
L 57.818138 157.429393 
L 58.109884 79.824116 
L 58.18282 214.905533 
L 58.255757 211.903723 
L 58.547503 192.567269 
L 58.839248 152.477957 
L 59.130994 69.471081 
L 59.20393 213.870229 
L 59.276867 210.661359 
L 59.568612 189.991102 
L 59.860358 147.161435 
L 60.079167 87.001518 
L 60.152104 215.623273 
L 60.22504 212.765011 
L 60.516786 194.353236 
L 60.808531 156.193654 
L 61.100277 77.161458 
L 61.173213 214.639267 
L 61.24615 211.584204 
L 61.537895 191.904714 
L 61.829641 151.098176 
L 62.04845 93.772247 
L 62.121387 216.300346 
L 62.194323 213.577499 
L 62.486069 196.03801 
L 62.777814 159.682663 
L 63.06956 84.380077 
L 63.142496 55.308746 
L 63.215433 212.453995 
L 63.288369 208.961879 
L 63.580115 186.46706 
L 63.87186 139.822277 
L 64.09067 100.18182 
L 64.236542 100.18182 
L 64.309479 216.941303 
L 64.382415 214.346648 
L 64.674161 197.632917 
L 64.965907 162.975325 
L 65.257652 91.109341 
L 65.330589 216.034055 
L 65.403525 213.25795 
L 65.695271 195.375394 
L 65.987016 158.294125 
L 66.278762 81.402406 
L 66.351698 215.063361 
L 66.424635 212.093118 
L 66.71638 192.959998 
L 67.008126 153.28556 
L 67.153999 119.568791 
L 67.226935 218.88 
L 67.299872 216.673084 
L 67.591617 202.457016 
L 67.883363 172.978576 
L 68.175109 111.852084 
L 68.248045 218.108329 
L 68.320981 215.747079 
L 68.612727 200.536852 
L 68.904473 168.996925 
L 69.196218 103.596769 
L 69.269155 78.340635 
L 69.342091 214.757184 
L 69.415028 211.725705 
L 69.706773 192.198131 
L 69.998519 151.705753 
L 70.290264 67.742261 
L 70.363201 213.697347 
L 70.436137 210.453901 
L 70.727883 189.560917 
L 71.019629 146.237225 
L 71.384311 56.401217 
L 71.457247 212.563243 
L 71.530183 209.092975 
L 71.821929 186.738902 
L 72.113675 140.385495 
L 72.551293 44.267072 
L 72.62423 211.349828 
L 72.697166 207.636878 
L 72.988912 183.719538 
L 73.280657 134.124543 
L 73.499466 64.389397 
L 73.572403 213.362061 
L 73.645339 210.051557 
L 73.937085 188.726617 
L 74.228831 144.507221 
L 74.520576 52.820994 
L 74.593513 212.20522 
L 74.666449 208.663349 
L 74.958195 185.848028 
L 75.24994 138.538179 
L 75.46875 72.01616 
L 75.541686 214.124737 
L 75.614622 210.966769 
L 75.906368 190.624399 
L 76.198114 148.442463 
L 76.562796 60.973999 
L 76.635732 213.020521 
L 76.708668 209.641709 
L 77.000414 187.876757 
L 77.29216 142.744951 
L 77.510969 79.285461 
L 77.583905 214.851667 
L 77.656842 211.839085 
L 77.948587 192.433234 
L 78.240333 152.193263 
L 78.677952 68.751658 
L 78.750888 213.798287 
L 78.823824 210.575028 
L 79.11557 189.812087 
L 79.407316 146.758051 
L 79.844934 57.481204 
L 79.91787 212.671241 
L 79.990807 209.222574 
L 80.282553 187.007637 
L 80.574298 140.942745 
L 80.793107 76.171249 
L 80.866044 214.540246 
L 80.93898 211.465379 
L 81.230726 191.658319 
L 81.522471 150.586398 
L 81.887154 65.419663 
L 81.96009 213.465087 
L 82.033026 210.175189 
L 82.324772 188.98298 
L 82.616518 145.038815 
L 82.835327 83.249259 
L 82.908263 215.248047 
L 82.9812 212.31474 
L 83.272945 193.419554 
L 83.564691 154.238495 
L 83.856437 72.992652 
L 83.929373 214.222386 
L 84.002309 211.083948 
L 84.294055 190.867382 
L 84.585801 148.946311 
L 84.877546 62.01878 
L 84.950483 213.124999 
L 85.023419 209.767083 
L 85.315165 188.136731 
L 85.60691 143.284034 
L 85.971592 80.216998 
L 86.044529 80.216998 
L 86.117465 50.277482 
L 86.190402 211.950869 
L 86.263338 208.358127 
L 86.555084 185.215121 
L 86.846829 137.225782 
L 87.065639 69.748338 
L 87.138575 213.897955 
L 87.211511 210.69463 
L 87.503257 190.060093 
L 87.795003 147.272317 
L 88.086748 58.547584 
L 88.159685 212.777879 
L 88.232621 209.350539 
L 88.524367 187.272987 
L 88.816112 141.492974 
L 89.034922 77.122045 
L 89.107858 214.635325 
L 89.180794 211.579475 
L 89.47254 191.894907 
L 89.764286 151.076987 
L 90.056031 66.43695 
L 90.128968 213.566816 
L 90.201904 210.297263 
L 90.49365 189.236113 
L 90.785395 145.563713 
L 91.004205 84.156282 
L 91.077141 215.338749 
L 91.150078 212.423583 
L 91.441823 193.64525 
L 91.733569 154.706499 
L 92.025314 73.963105 
L 92.098251 214.319431 
L 92.171187 211.200402 
L 92.462933 191.108862 
L 92.754679 149.447044 
L 92.973488 90.866679 
L 93.046424 216.009789 
L 93.119361 213.228831 
L 93.411106 195.315012 
L 93.702852 158.168916 
L 94.067534 81.142773 
L 94.14047 215.037398 
L 94.213407 212.061962 
L 94.505152 192.895393 
L 94.796898 153.151595 
L 95.015707 97.268143 
L 95.088644 216.649935 
L 95.16158 213.997006 
L 95.453326 196.907901 
L 95.745071 161.471931 
L 96.036817 87.991905 
L 96.109753 215.722311 
L 96.18269 212.883858 
L 96.474435 194.599676 
L 96.766181 156.685596 
L 97.057927 78.066961 
L 97.130863 214.729817 
L 97.2038 211.692865 
L 97.495545 192.130032 
L 97.787291 151.564543 
L 98.151973 67.451961 
L 98.224909 213.668317 
L 98.297846 210.419065 
L 98.589591 189.488681 
L 98.881337 146.087437 
L 99.100146 85.061277 
L 99.173083 215.429249 
L 99.246019 212.532183 
L 99.537765 193.870442 
L 99.82951 155.173457 
L 100.121256 74.931388 
L 100.194192 214.41626 
L 100.267129 211.316596 
L 100.558874 191.349801 
L 100.85062 149.946657 
L 101.142366 64.093095 
L 101.215302 213.33243 
L 101.288238 210.016001 
L 101.579984 188.652887 
L 101.87173 144.354336 
L 102.090539 82.066479 
L 102.163475 215.129769 
L 102.236412 212.172807 
L 102.528157 193.12524 
L 102.819903 153.628207 
L 103.111649 71.727646 
L 103.184585 214.095885 
L 103.257521 210.932147 
L 103.549267 190.552608 
L 103.841013 148.293596 
L 104.205695 60.665309 
L 104.278631 212.989652 
L 104.351568 209.604666 
L 104.643313 187.799944 
L 104.935059 142.585673 
L 105.153868 79.01023 
L 105.226805 214.824144 
L 105.299741 211.806057 
L 105.591487 192.364748 
L 105.883232 152.051249 
L 106.174978 68.457179 
L 106.247914 213.768839 
L 106.320851 210.539691 
L 106.612596 189.738811 
L 106.904342 146.606107 
L 107.269024 57.166131 
L 107.34196 212.639734 
L 107.414897 209.184765 
L 107.706642 186.929237 
L 107.998388 140.780174 
L 108.217197 75.890328 
L 108.290134 214.512154 
L 108.36307 211.431669 
L 108.654816 191.588416 
L 108.946561 150.441448 
L 109.38418 65.121641 
L 109.457116 213.435285 
L 109.530053 210.139426 
L 109.821798 188.908823 
L 110.113544 144.885043 
L 110.478226 82.995345 
L 110.624099 82.995345 
L 110.697035 53.646459 
L 110.769972 212.287767 
L 110.842908 208.762404 
L 111.134654 186.05343 
L 111.426399 138.964101 
L 111.645209 72.752153 
L 111.718145 214.198336 
L 111.791081 211.055088 
L 112.082827 190.807538 
L 112.374573 148.822219 
L 112.593382 89.786981 
L 112.666318 215.901819 
L 112.739255 213.099267 
L 113.031 195.046348 
L 113.322746 157.611816 
L 113.541555 104.976925 
L 113.614492 217.420813 
L 113.687428 214.92206 
L 113.979174 198.826092 
L 114.270919 165.449493 
L 114.562665 96.272412 
L 114.635601 216.550362 
L 114.708538 213.877519 
L 115.000283 196.660131 
L 115.292029 160.958156 
L 115.583775 86.988677 
L 115.656711 215.621989 
L 115.729647 212.763471 
L 116.021393 194.350041 
L 116.313139 156.167953 
L 116.604884 77.052801 
L 116.677821 214.628401 
L 116.750757 211.571165 
L 117.042503 191.877677 
L 117.334249 151.041259 
L 117.698931 66.40952 
L 117.771867 213.564073 
L 117.844803 210.293972 
L 118.136549 189.229288 
L 118.428295 145.54956 
L 118.647104 84.131826 
L 118.72004 215.336304 
L 118.792977 212.420648 
L 119.084722 193.639165 
L 119.376468 154.693881 
L 119.668214 73.936939 
L 119.74115 214.316815 
L 119.814086 211.197262 
L 120.105832 191.102351 
L 120.397578 149.433543 
L 120.616387 90.845501 
L 120.689323 216.007671 
L 120.76226 213.226289 
L 121.054005 195.309742 
L 121.345751 158.157989 
L 121.637497 81.140636 
L 121.710433 215.037185 
L 121.783369 212.061706 
L 122.075115 192.894861 
L 122.366861 153.150492 
L 122.658606 70.74972 
L 122.731543 213.998093 
L 122.804479 210.814796 
L 123.096225 190.309269 
L 123.38797 147.789008 
L 123.825589 59.618995 
L 123.898525 212.88502 
L 123.971462 209.479109 
L 124.263207 187.539588 
L 124.554953 142.045798 
L 124.773762 78.077326 
L 124.846699 214.730853 
L 124.919635 211.694108 
L 125.211381 192.132611 
L 125.503126 151.569891 
L 125.794872 67.462555 
L 125.867808 213.669376 
L 125.940745 210.420336 
L 126.23249 189.491317 
L 126.524236 146.092903 
L 126.888918 56.106018 
L 126.961855 212.533723 
L 127.034791 209.057551 
L 127.326537 186.665447 
L 127.618282 140.233179 
L 127.837091 74.94512 
L 127.910028 214.417633 
L 127.982964 211.318244 
L 128.27471 191.353218 
L 128.566456 149.953742 
L 128.858201 64.107787 
L 128.931138 213.3339 
L 129.004074 210.017764 
L 129.29582 188.656543 
L 129.587565 144.361916 
L 129.806375 82.079578 
L 129.879311 215.131079 
L 129.952247 212.174379 
L 130.243993 193.1285 
L 130.535739 153.634965 
L 130.827484 71.741173 
L 130.900421 214.097238 
L 130.973357 210.93377 
L 131.265103 190.555974 
L 131.556848 148.300575 
L 131.775658 88.885581 
L 131.848594 215.811679 
L 131.92153 212.991099 
L 132.213276 194.822051 
L 132.505022 157.146714 
L 132.796767 79.023134 
L 132.869704 214.825434 
L 132.94264 211.807605 
L 133.234386 192.367959 
L 133.526131 152.057907 
L 133.96375 68.470985 
L 134.036686 213.770219 
L 134.109623 210.541347 
L 134.401368 189.742246 
L 134.693114 146.61323 
L 134.911923 85.969849 
L 134.98486 215.520106 
L 135.057796 212.641211 
L 135.349542 194.096524 
L 135.641287 155.64226 
L 135.933033 75.903498 
L 136.005969 214.513471 
L 136.078906 211.433249 
L 136.370651 191.591694 
L 136.662397 150.448244 
L 137.027079 92.596752 
L 137.683507 92.596752 
L 137.756443 65.133187 
L 137.82938 213.43644 
L 137.902316 210.140812 
L 138.194062 188.911695 
L 138.485807 144.891 
L 138.704616 82.993835 
L 138.777553 215.222504 
L 138.850489 212.284089 
L 139.142235 193.355996 
L 139.433981 154.106702 
L 139.725726 72.719365 
L 139.798663 214.195057 
L 139.871599 211.051153 
L 140.163345 190.799379 
L 140.45509 148.805301 
L 140.6739 89.757747 
L 140.746836 215.898896 
L 140.819772 213.095759 
L 141.111518 195.039074 
L 141.403264 157.596732 
L 141.695009 79.956292 
L 141.767946 214.91875 
L 141.840882 211.919584 
L 142.132628 192.600158 
L 142.424373 152.539397 
L 142.789055 69.469401 
L 142.861992 213.870061 
L 142.934928 210.661157 
L 143.226674 189.990684 
L 143.518419 147.128391 
L 143.737229 86.860047 
L 143.810165 215.609126 
L 143.883102 212.748035 
L 144.174847 194.318034 
L 144.466593 156.101583 
L 144.758338 76.85595 
L 144.831275 214.608716 
L 144.904211 211.547543 
L 145.195957 191.828694 
L 145.487703 150.939688 
L 145.852385 93.445968 
L 147.16524 93.445968 
L 147.238176 66.152246 
L 147.311113 213.538345 
L 147.384049 210.263099 
L 147.675795 189.16527 
L 147.96754 145.416812 
L 148.18635 83.902438 
L 148.259286 215.313365 
L 148.332222 212.393122 
L 148.623968 193.582086 
L 148.915714 154.575521 
L 149.207459 73.691509 
L 149.280396 214.292272 
L 149.353332 211.16781 
L 149.645078 191.04128 
L 149.936824 149.306906 
L 150.155633 90.62452 
L 150.228569 215.985573 
L 150.301506 213.199772 
L 150.593251 195.254755 
L 150.884997 158.043968 
L 151.176742 80.88368 
L 151.249679 215.011489 
L 151.322615 212.030871 
L 151.614361 192.830922 
L 151.906107 153.017909 
L 152.270789 70.461643 
L 152.343725 213.969285 
L 152.416661 210.780227 
L 152.708407 190.237586 
L 153.000153 147.640367 
L 153.218962 87.74474 
L 153.291898 215.697595 
L 153.364835 212.854198 
L 153.65658 194.538173 
L 153.948326 156.558065 
L 154.240072 77.802511 
L 154.313008 214.703372 
L 154.385944 211.661131 
L 154.67769 192.064229 
L 154.969436 151.428093 
L 155.334118 94.289931 
L 155.407054 94.289931 
L 155.479991 67.165002 
L 155.552927 213.639621 
L 155.625863 210.38463 
L 155.917609 189.417276 
L 156.209355 145.939372 
L 156.428164 84.805421 
L 156.5011 215.403663 
L 156.574037 212.50148 
L 156.865782 193.806777 
L 157.157528 155.041441 
L 157.52221 74.65764 
L 157.595146 214.388885 
L 157.668083 211.283746 
L 157.959829 191.281684 
L 158.251574 149.805408 
L 158.470383 91.485933 
L 158.54332 216.071714 
L 158.616256 213.303141 
L 158.908002 195.469102 
L 159.199747 158.488438 
L 159.491493 81.805333 
L 159.56443 215.103654 
L 159.637366 212.141469 
L 159.929112 193.060259 
L 160.220857 153.493461 
L 160.585539 97.858887 
L 161.898395 97.858887 
L 161.971331 216.70901 
L 162.044267 214.067896 
L 162.336013 197.054897 
L 162.627759 161.776743 
L 162.919504 88.623962 
L 162.992441 215.785517 
L 163.065377 212.959705 
L 163.357123 194.756952 
L 163.648868 157.011724 
L 164.013551 103.938445 
L 164.086487 103.938445 
L 164.159423 78.743219 
L 164.23236 214.797443 
L 164.305296 211.774016 
L 164.597042 192.298307 
L 164.888787 151.913477 
L 165.107597 95.128676 
L 165.180533 216.435988 
L 165.253469 213.74027 
L 165.545215 196.375533 
L 165.836961 160.368013 
L 166.128706 85.702821 
L 166.201643 215.493403 
L 166.274579 212.609168 
L 166.566325 194.030079 
L 166.85807 155.504479 
L 167.07688 101.333927 
L 167.149816 217.056514 
L 167.222753 214.4849 
L 167.514498 197.919598 
L 167.806244 163.569787 
L 168.097989 92.342018 
L 168.170926 216.157323 
L 168.243862 213.405871 
L 168.535608 195.682123 
L 168.827354 158.930159 
L 169.192036 107.253501 
L 169.848463 107.253501 
L 169.9214 82.721286 
L 169.994336 215.195249 
L 170.067272 212.251384 
L 170.359018 193.288177 
L 170.650764 153.966073 
L 170.869573 98.67556 
L 170.942509 216.790677 
L 171.015446 214.165897 
L 171.307191 197.258111 
L 171.598937 162.198128 
L 171.890683 89.497746 
L 171.963619 215.872895 
L 172.036556 213.064559 
L 172.328301 194.974377 
L 172.620047 157.462577 
L 172.838856 104.71752 
L 172.911792 217.394873 
L 172.984729 214.890932 
L 173.276475 198.761544 
L 173.56822 165.315647 
L 173.859966 95.962233 
L 173.932902 216.519344 
L 174.005839 213.840297 
L 174.297584 196.582949 
L 174.58933 160.798111 
L 174.954012 86.59467 
L 175.026948 215.582588 
L 175.099885 212.71619 
L 175.39163 194.251999 
L 175.683376 155.964654 
L 175.902185 102.129109 
L 175.975122 217.136032 
L 176.048058 214.580322 
L 176.339804 198.117465 
L 176.631549 163.980083 
L 176.923295 93.192808 
L 176.996231 216.242402 
L 177.069168 213.507966 
L 177.360913 195.893827 
L 177.652659 159.369148 
L 177.944405 83.631574 
L 178.017341 215.286278 
L 178.090278 212.360618 
L 178.382023 193.514686 
L 178.673769 154.435761 
L 178.892578 99.487182 
L 178.965514 216.871839 
L 179.038451 214.263291 
L 179.330196 197.460069 
L 179.621942 162.616907 
L 179.913688 90.366127 
L 179.986624 215.959734 
L 180.059561 213.168765 
L 180.351306 195.190458 
L 180.643052 157.910643 
L 181.007734 80.607217 
L 181.08067 214.983843 
L 181.153607 211.997695 
L 181.445352 192.762129 
L 181.737098 152.87526 
L 181.955907 96.790635 
L 182.028844 216.602184 
L 182.10178 213.939706 
L 182.393526 196.789082 
L 182.685271 161.225548 
L 182.977017 87.481004 
L 183.049953 215.671221 
L 183.12289 212.82255 
L 183.414635 194.472548 
L 183.706381 156.421983 
L 184.071063 102.919373 
L 184.508682 102.919373 
L 184.581618 77.520332 
L 184.654554 214.675154 
L 184.727491 211.627269 
L 185.019236 191.994014 
L 185.310982 151.282495 
L 185.529791 94.038338 
L 185.602728 216.326955 
L 185.675664 213.60943 
L 185.96741 196.104222 
L 186.259155 159.805423 
L 186.550901 84.536233 
L 186.623837 215.376744 
L 186.696774 212.469177 
L 186.988519 193.739794 
L 187.280265 154.902546 
L 187.644947 100.293785 
L 187.717884 100.293785 
L 187.79082 74.369627 
L 187.863756 214.360084 
L 187.936693 211.249184 
L 188.228438 191.210017 
L 188.520184 149.6568 
L 188.738993 91.229137 
L 188.81193 216.046035 
L 188.884866 213.272326 
L 189.176612 195.405203 
L 189.468357 158.355937 
L 189.760103 81.530579 
L 189.833039 215.076179 
L 189.905976 212.108499 
L 190.197721 192.991891 
L 190.489467 153.351694 
L 190.708276 97.613914 
L 190.781213 216.684512 
L 190.854149 214.038499 
L 191.145895 196.99394 
L 191.43764 161.650342 
L 191.729386 88.361857 
L 191.802322 215.759307 
L 191.875259 212.928252 
L 192.167005 194.691732 
L 192.45875 156.876484 
L 192.896369 78.462785 
L 192.969305 214.769399 
L 193.042241 211.740363 
L 193.333987 192.228526 
L 193.625733 151.76878 
L 193.844542 94.878638 
L 193.917478 216.410985 
L 193.990415 213.710266 
L 194.28216 196.313315 
L 194.573906 160.238999 
L 194.865652 85.435297 
L 194.938588 215.466651 
L 195.011525 212.577065 
L 195.30327 193.96351 
L 195.595016 155.366443 
L 195.813825 101.0954 
L 195.886761 217.032661 
L 195.959698 214.456277 
L 196.251443 197.860245 
L 196.543189 163.446712 
L 196.834935 92.08681 
L 196.907871 216.131802 
L 196.980808 213.375247 
L 197.272553 195.618619 
L 197.564299 158.798478 
L 197.856044 82.448231 
L 197.928981 215.167944 
L 198.001917 212.218617 
L 198.293663 193.220233 
L 198.585409 153.825183 
L 198.804218 98.432102 
L 198.877154 216.766331 
L 198.950091 214.136682 
L 199.241836 197.197531 
L 199.533582 162.072509 
L 199.825328 89.237262 
L 199.898264 215.846847 
L 199.9712 213.033301 
L 200.262946 194.909561 
L 200.554692 157.328173 
L 200.919374 104.48527 
L 200.99231 104.48527 
L 201.065246 79.399409 
L 201.138183 214.863062 
L 201.211119 211.852758 
L 201.502865 192.461588 
L 201.794611 152.252057 
L 202.01342 95.713741 
L 202.086356 216.494495 
L 202.159293 213.810478 
L 202.451038 196.521116 
L 202.742784 160.669894 
L 203.03453 86.328801 
L 203.107466 215.556001 
L 203.180402 212.684285 
L 203.472148 194.185843 
L 203.763894 155.827471 
L 204.128576 101.892057 
L 204.639131 101.892057 
L 204.712067 76.287553 
L 204.785003 214.551876 
L 204.85794 211.479336 
L 205.149685 191.687259 
L 205.441431 150.646408 
L 205.66024 92.939179 
L 205.733177 216.217039 
L 205.806113 213.477531 
L 206.097859 195.830716 
L 206.389604 159.238281 
L 206.68135 83.360208 
L 206.754286 215.259142 
L 206.827223 212.328054 
L 207.118968 193.447162 
L 207.410714 154.295743 
L 207.629523 99.24523 
L 207.70246 216.847644 
L 207.775396 214.234257 
L 208.067142 197.399863 
L 208.358887 162.492065 
L 208.650633 90.107254 
L 208.723569 215.933846 
L 208.796506 213.1377 
L 209.088252 195.126043 
L 209.379997 157.77707 
L 209.671743 80.330241 
L 209.744679 214.956145 
L 209.817616 211.964458 
L 210.109361 192.693209 
L 210.401107 152.732346 
L 210.765789 96.54368 
L 212.151581 96.54368 
L 212.224517 69.869501 
L 212.297454 213.910071 
L 212.37039 210.709169 
L 212.662136 190.090242 
L 212.953881 147.334834 
L 213.17269 87.216779 
L 213.245627 215.644799 
L 213.318563 212.790843 
L 213.610309 194.4068 
L 213.902055 156.285649 
L 214.1938 77.237629 
L 214.266737 214.646884 
L 214.339673 211.593345 
L 214.631419 191.923668 
L 214.923164 151.136626 
L 215.141973 93.786277 
L 215.21491 216.301749 
L 215.287846 213.579183 
L 215.579592 196.041501 
L 215.871338 159.675365 
L 216.163083 84.266545 
L 216.23602 215.349775 
L 216.308956 212.436815 
L 216.600702 193.672687 
L 216.892447 154.763393 
L 217.184193 74.081079 
L 217.257129 214.331229 
L 217.330066 211.214559 
L 217.621811 191.138217 
L 217.913557 149.507916 
L 218.278239 90.971865 
L 218.497048 90.971865 
L 218.569985 216.020307 
L 218.642921 213.241453 
L 218.934667 195.341185 
L 219.226412 158.22319 
L 219.518158 81.255316 
L 219.591094 215.048652 
L 219.664031 212.075467 
L 219.955777 192.923397 
L 220.247522 153.209664 
L 220.466331 97.368487 
L 220.539268 216.65997 
L 220.612204 214.009048 
L 220.90395 196.93287 
L 221.195695 161.523707 
L 221.487441 88.099266 
L 221.560378 215.733048 
L 221.633314 212.896741 
L 221.92506 194.626391 
L 222.216805 156.740992 
L 222.508551 78.18183 
L 222.581487 214.741304 
L 222.654424 211.706649 
L 222.946169 192.158615 
L 223.237915 151.623813 
L 223.602597 94.628136 
L 223.821406 94.628136 
L 223.894343 216.385934 
L 223.967279 213.680206 
L 224.259025 196.250983 
L 224.55077 160.109746 
L 224.842516 85.167277 
L 224.915452 215.439849 
L 224.988389 212.544903 
L 225.280134 193.896818 
L 225.57188 155.228151 
L 225.936562 100.856431 
L 226.009498 100.856431 
L 226.082435 75.044801 
L 226.155371 214.427601 
L 226.228308 211.330205 
L 226.520053 191.378022 
L 226.811799 150.005175 
L 227.030608 91.831129 
L 227.103545 216.106234 
L 227.176481 213.344565 
L 227.468227 195.554998 
L 227.759972 158.666552 
L 228.051718 82.17467 
L 228.124654 215.140588 
L 228.197591 212.18579 
L 228.489336 193.152162 
L 228.781082 153.684031 
L 228.999891 98.188192 
L 229.072828 216.74194 
L 229.145764 214.107412 
L 229.43751 197.136839 
L 229.729255 161.946657 
L 230.021001 88.976296 
L 230.093937 215.82075 
L 230.166874 213.001985 
L 230.458619 194.844624 
L 230.750365 157.19352 
L 231.187984 79.120192 
L 231.26092 214.83514 
L 231.333856 211.819252 
L 231.625602 192.39211 
L 231.917348 152.107987 
L 232.136157 95.464789 
L 232.209093 216.4696 
L 232.28203 213.780604 
L 232.573775 196.459169 
L 232.865521 160.54144 
L 233.157267 86.062439 
L 233.230203 215.529365 
L 233.303139 212.652322 
L 233.594885 194.119563 
L 233.886631 155.690034 
L 234.251313 101.654566 
L 235.564168 101.654566 
L 235.637105 76.002563 
L 235.710041 214.523377 
L 235.782977 211.445137 
L 236.074723 191.616344 
L 236.366469 150.499359 
L 236.585278 92.68508 
L 236.658214 216.191629 
L 236.731151 213.447039 
L 237.022896 195.767488 
L 237.314642 159.107171 
L 237.606388 83.088339 
L 237.679324 215.231955 
L 237.75226 212.29543 
L 238.044006 193.379512 
L 238.335752 154.155464 
L 238.554561 99.002829 
L 238.627497 216.823404 
L 238.700434 214.205169 
L 238.992179 197.339546 
L 239.283925 162.366991 
L 239.575671 89.847901 
L 239.648607 215.907911 
L 239.721543 213.106577 
L 240.013289 195.061507 
L 240.305035 157.64325 
L 240.669717 80.052751 
L 240.742653 214.928396 
L 240.81559 211.931159 
L 241.107335 192.62416 
L 241.399081 152.589167 
L 241.763763 96.296267 
L 241.836699 96.296267 
L 241.909636 69.572605 
L 241.982572 213.880381 
L 242.055509 210.673542 
L 242.347254 190.016365 
L 242.639 147.181642 
L 242.857809 86.952064 
L 242.930745 215.618327 
L 243.003682 212.759077 
L 243.295428 194.34093 
L 243.587173 156.149062 
L 243.878919 76.954402 
L 243.951855 214.618561 
L 244.024792 211.559358 
L 244.316537 191.853192 
L 244.608283 150.990487 
L 244.827092 93.533749 
L 244.900029 216.276496 
L 244.972965 213.548879 
L 245.264711 195.978664 
L 245.556456 159.545066 
L 245.848202 83.996357 
L 245.921138 215.322757 
L 245.994075 212.404392 
L 246.28582 193.605456 
L 246.577566 154.623982 
L 247.015184 73.791996 
L 247.088121 214.302321 
L 247.161057 211.179869 
L 247.452803 191.066284 
L 247.744548 149.358756 
L 247.963358 90.714116 
L 248.036294 215.994532 
L 248.109231 213.210523 
L 248.400976 195.277049 
L 248.692722 158.090198 
L 249.057404 80.979542 
L 249.13034 215.021075 
L 249.203277 212.042374 
L 249.495022 192.854776 
L 249.786768 153.067371 
L 250.005577 97.122604 
L 250.078514 216.635381 
L 250.15145 213.979542 
L 250.443196 196.871686 
L 250.734941 161.396836 
L 251.026687 87.836188 
L 251.099623 215.70674 
L 251.17256 212.865172 
L 251.464305 194.560929 
L 251.756051 156.60525 
L 252.047797 77.900355 
L 252.120733 214.713156 
L 252.193669 211.672872 
L 252.485415 192.088575 
L 252.777161 151.478578 
L 253.141843 67.269688 
L 253.214779 213.65009 
L 253.287716 210.397192 
L 253.579461 189.443325 
L 253.871207 145.993388 
L 254.090016 84.89876 
L 254.162953 215.412997 
L 254.235889 212.512681 
L 254.527635 193.830003 
L 254.81938 155.089602 
L 255.038189 100.617018 
L 255.111126 216.984823 
L 255.184062 214.398872 
L 255.475808 197.741208 
L 255.767554 163.199878 
L 256.059299 91.574974 
L 256.132236 216.080618 
L 256.205172 213.313826 
L 256.496918 195.491258 
L 256.788663 158.534381 
L 257.080409 81.900602 
L 257.153345 215.113181 
L 257.226282 212.152902 
L 257.518027 193.083965 
L 257.809773 153.542618 
L 258.174455 97.94383 
L 258.466201 97.94383 
L 258.539137 216.717504 
L 258.612073 214.078089 
L 258.903819 197.076033 
L 259.195565 161.820571 
L 259.48731 88.714845 
L 259.560247 215.794605 
L 259.633183 212.970611 
L 259.924929 194.779566 
L 260.216674 157.058617 
L 260.435484 104.019477 
L 260.50842 217.325069 
L 260.581357 214.807167 
L 260.873102 198.587849 
L 261.164848 164.955472 
L 261.456593 95.215374 
L 261.52953 216.444658 
L 261.602466 213.750674 
L 261.894212 196.397106 
L 262.185958 160.412748 
L 262.477703 85.795582 
L 262.55064 215.502679 
L 262.623576 212.620299 
L 262.915322 194.053161 
L 263.207067 155.552342 
L 263.498813 75.717045 
L 263.571749 214.494825 
L 263.644686 211.410875 
L 263.936431 191.545298 
L 264.228177 150.352038 
L 264.446986 92.430509 
L 264.519923 216.166172 
L 264.592859 213.41649 
L 264.884605 195.704143 
L 265.17635 158.975818 
L 265.468096 82.815965 
L 265.541032 215.204717 
L 265.613969 212.262745 
L 265.905714 193.311737 
L 266.19746 154.014925 
L 266.416269 98.759978 
L 266.489206 216.799119 
L 266.562142 214.176027 
L 266.853888 197.279117 
L 267.145633 162.241685 
L 267.437379 89.588067 
L 267.510315 215.881928 
L 267.583252 213.075397 
L 267.874997 194.996852 
L 268.166743 157.509181 
L 268.458489 79.774746 
L 268.531425 214.900595 
L 268.604362 211.897799 
L 268.896107 192.554984 
L 269.187853 152.445723 
L 269.406662 96.048395 
L 269.479598 216.52796 
L 269.552535 213.850637 
L 269.844281 196.604389 
L 270.136026 160.842569 
L 270.427772 86.686858 
L 270.500708 215.591807 
L 270.573645 212.727252 
L 270.86539 194.274939 
L 271.157136 156.012221 
L 271.375945 102.211305 
L 271.448882 217.144251 
L 271.521818 214.590186 
L 271.813564 198.137918 
L 272.105309 164.022494 
L 272.397055 93.280752 
L 272.469991 216.251196 
L 272.542928 213.51852 
L 272.834673 195.91571 
L 273.126419 159.414525 
L 273.418165 83.725668 
L 273.491101 215.295688 
L 273.564037 212.371909 
L 273.855783 193.5381 
L 274.147529 154.484312 
L 274.439274 73.502377 
L 274.512211 214.273359 
L 274.585147 211.145115 
L 274.876893 190.994218 
L 275.168638 149.209318 
L 275.53332 90.455889 
L 275.606257 215.96871 
L 275.679193 213.179536 
L 275.970939 195.212794 
L 276.262685 157.956958 
L 276.55443 80.703256 
L 276.627367 214.993447 
L 276.700303 212.00922 
L 276.992049 192.786027 
L 277.283794 152.924814 
L 277.502604 96.876265 
L 277.57554 216.610747 
L 277.648476 213.949981 
L 277.940222 196.810389 
L 278.231968 161.269731 
L 278.523713 87.572622 
L 278.59665 215.680383 
L 278.669586 212.833544 
L 278.961332 194.495345 
L 279.253077 156.469256 
L 279.617759 77.618357 
L 279.690696 214.684957 
L 279.763632 211.639032 
L 280.055378 192.018405 
L 280.347123 151.333073 
L 280.565933 94.125738 
L 280.638869 216.335695 
L 280.711806 213.619918 
L 281.003551 196.12597 
L 281.295297 159.850519 
L 281.732915 84.629745 
L 281.805852 215.386095 
L 281.878788 212.480399 
L 282.170534 193.763063 
L 282.462279 154.950796 
L 282.681089 100.377162 
L 282.754025 216.960837 
L 282.826961 214.370089 
L 283.118707 197.681524 
L 283.410453 163.076117 
L 283.702198 91.318344 
L 283.775135 216.054955 
L 283.848071 213.283031 
L 284.139817 195.4274 
L 284.431562 158.401966 
L 284.723308 81.626025 
L 284.796244 215.085723 
L 284.869181 212.119952 
L 285.160927 193.015641 
L 285.452672 153.400942 
L 285.744418 71.255902 
L 285.817354 214.048711 
L 285.890291 210.875537 
L 286.182036 190.435223 
L 286.473782 148.050186 
L 286.692591 88.452909 
L 286.765528 215.768412 
L 286.838464 212.939178 
L 287.13021 194.714388 
L 287.421955 156.923464 
L 287.786637 103.785933 
L 288.297192 103.785933 
L 288.370129 78.560203 
L 288.443065 214.779141 
L 288.516001 211.752054 
L 288.807747 192.252767 
L 289.099493 151.819046 
L 289.318302 94.965497 
L 289.391238 216.419671 
L 289.464175 213.720689 
L 289.75592 196.334929 
L 290.047666 160.283817 
L 290.339412 85.528231 
L 290.412348 215.475944 
L 290.485284 212.588217 
L 290.77703 193.986635 
L 291.068776 155.414395 
L 291.287585 101.178261 
L 291.360521 217.040947 
L 291.433458 214.466221 
L 291.725203 197.880863 
L 292.016949 163.489466 
L 292.308695 92.175466 
L 292.381631 216.140667 
L 292.454567 213.385885 
L 292.746313 195.64068 
L 293.038059 158.844222 
L 293.329804 82.543087 
L 293.402741 215.17743 
L 293.475677 212.23 
L 293.767423 193.243836 
L 294.059168 153.874126 
L 294.350914 72.237095 
L 294.42385 214.14683 
L 294.496787 210.993281 
L 294.788533 190.679375 
L 295.080278 148.556461 
L 295.44496 61.210385 
L 295.517897 213.044159 
L 295.590833 209.670076 
L 295.882579 187.935577 
L 296.174324 142.86692 
L 296.393134 79.496225 
L 296.46607 214.872743 
L 296.539006 211.864376 
L 296.830752 192.485679 
L 297.122498 152.302012 
L 297.341307 95.800064 
L 297.414243 216.503127 
L 297.48718 213.820837 
L 297.778925 196.542596 
L 298.070671 160.714435 
L 298.362417 86.42116 
L 298.435353 215.565237 
L 298.508289 212.695369 
L 298.800035 194.208824 
L 299.091781 155.875127 
L 299.529399 76.386371 
L 299.602336 214.561758 
L 299.675272 211.491194 
L 299.967018 191.711848 
L 300.258763 150.697396 
L 300.477572 93.027286 
L 300.550509 216.22585 
L 300.623445 213.488104 
L 300.915191 195.85264 
L 301.206937 159.283743 
L 301.498682 83.454477 
L 301.571619 215.268569 
L 301.644555 212.339367 
L 301.936301 193.470619 
L 302.228046 154.344383 
L 302.446856 99.329281 
L 302.519792 216.856049 
L 302.592728 214.244343 
L 302.884474 197.420778 
L 303.17622 162.535433 
L 303.467965 90.197183 
L 303.540902 215.942839 
L 303.613838 213.148491 
L 303.905584 195.14842 
L 304.197329 157.823471 
L 304.489075 80.426458 
L 304.562011 214.965767 
L 304.634948 211.976004 
L 304.926693 192.717151 
L 305.218439 152.781992 
L 305.510185 69.972447 
L 305.583121 213.920366 
L 305.656058 210.721523 
L 305.947803 190.115858 
L 306.239549 147.387952 
L 306.604231 87.308567 
L 306.677167 87.308567 
L 306.750104 215.653978 
L 306.82304 212.801857 
L 307.114786 194.42964 
L 307.406531 156.333009 
L 307.771213 102.765627 
L 308.427641 102.765627 
L 308.500578 77.335836 
L 308.573514 214.656704 
L 308.64645 211.60513 
L 308.938196 191.948105 
L 309.229942 151.187299 
L 309.448751 93.873839 
L 309.521687 216.310505 
L 309.594624 213.58969 
L 309.886369 196.063289 
L 310.178115 159.720545 
L 310.469861 84.360231 
L 310.542797 215.359144 
L 310.615733 212.448057 
L 310.907479 193.695999 
L 311.199225 154.811732 
L 311.418034 100.13686 
L 311.49097 216.936807 
L 311.563907 214.341253 
L 311.855652 197.621729 
L 312.147398 162.952127 
L 312.439144 91.061238 
L 312.51208 216.029245 
L 312.585016 213.252178 
L 312.876762 195.363424 
L 313.168508 158.269305 
L 313.460253 81.350939 
L 313.53319 215.058215 
L 313.606126 212.086942 
L 313.897872 192.947191 
L 314.189617 153.259004 
L 314.481363 70.961578 
L 314.554299 214.019279 
L 314.627236 210.840219 
L 314.918982 190.361986 
L 315.210727 147.898322 
L 315.502473 59.845668 
L 315.575409 212.907688 
L 315.648346 209.506309 
L 315.940091 187.595992 
L 316.231837 142.162756 
L 316.450646 78.27943 
L 316.523583 214.751064 
L 316.596519 211.718361 
L 316.888265 192.182901 
L 317.18001 151.674173 
L 317.398819 94.715157 
L 317.471756 216.394637 
L 317.544692 213.690648 
L 317.836438 196.272636 
L 318.128184 160.154647 
L 318.492866 85.260384 
L 318.565802 215.449159 
L 318.638738 212.556075 
L 318.930484 193.919986 
L 319.22223 155.276191 
L 319.659848 75.144419 
L 319.732785 214.437563 
L 319.805721 211.34216 
L 320.097467 191.40281 
L 320.389212 150.056576 
L 320.608021 91.919949 
L 320.680958 216.115116 
L 320.753894 213.355223 
L 321.04564 195.577099 
L 321.337386 158.712381 
L 321.702068 106.877181 
L 321.920877 106.877181 
L 321.993813 82.269701 
L 322.06675 215.150091 
L 322.139686 212.197193 
L 322.431432 193.175809 
L 322.723177 153.733065 
L 323.087859 71.944592 
L 323.160796 214.11758 
L 323.233732 210.95818 
L 323.525478 190.606591 
L 323.817223 148.405535 
L 324.181906 60.897426 
L 324.254842 213.012864 
L 324.327778 209.63252 
L 324.619524 187.857703 
L 324.91127 142.705441 
L 325.275952 79.217188 
L 325.348888 214.84484 
L 325.421824 211.830892 
L 325.71357 192.416246 
L 326.005316 152.158035 
L 326.369998 95.551271 
L 326.442934 216.478248 
L 326.515871 213.790982 
L 326.807616 196.480688 
L 327.099362 160.586063 
L 327.391108 86.154969 
L 327.464044 215.538618 
L 327.53698 212.663426 
L 327.828726 194.142588 
L 328.120472 155.737778 
L 328.339281 101.737067 
L 328.412217 217.096828 
L 328.485154 214.533277 
L 328.776899 198.019912 
L 329.068645 163.777798 
L 329.360391 92.77335 
L 329.433327 216.200456 
L 329.506263 213.457631 
L 329.798009 195.789453 
L 330.089755 159.152717 
L 330.3815 83.182783 
L 330.454437 215.241399 
L 330.527373 212.306763 
L 330.819119 193.403012 
L 331.110864 154.204195 
L 331.329674 99.087035 
L 331.40261 216.831824 
L 331.475546 214.215274 
L 331.767292 197.360499 
L 332.059038 162.41044 
L 332.350783 89.937997 
L 332.42372 215.916921 
L 332.496656 213.117389 
L 332.788402 195.083926 
L 333.080147 157.689737 
L 333.371893 80.149147 
L 333.44483 214.938036 
L 333.517766 211.942727 
L 333.809512 192.648147 
L 334.101257 152.638905 
L 334.393003 69.675742 
L 334.465939 213.890695 
L 334.538876 210.685918 
L 334.830621 190.042029 
L 335.122367 147.234859 
L 335.414113 58.469911 
L 335.487049 212.770112 
L 335.559985 209.341219 
L 335.851731 187.253659 
L 336.143477 141.452896 
L 336.362286 77.052791 
L 336.435222 214.6284 
L 336.508159 211.571164 
L 336.799904 191.877674 
L 337.09165 151.041254 
L 337.310459 93.621474 
L 337.383396 216.285268 
L 337.456332 213.559406 
L 337.748078 196.000493 
L 338.039823 159.59033 
L 338.404505 84.090217 
L 338.477442 215.332143 
L 338.550378 212.415655 
L 338.842124 193.628811 
L 339.133869 154.672411 
L 339.498551 73.89242 
L 339.571488 214.312363 
L 339.644424 211.19192 
L 339.93617 191.091273 
L 340.227916 149.410572 
L 340.446725 90.803655 
L 340.519661 216.003486 
L 340.592598 213.221268 
L 340.884343 195.299329 
L 341.176089 158.136397 
L 341.467835 81.075342 
L 341.540771 215.030655 
L 341.613707 212.05387 
L 341.905453 192.878614 
L 342.197199 153.116802 
L 342.416008 97.20802 
L 342.488944 216.643923 
L 342.561881 213.989792 
L 342.853626 196.89294 
L 343.145372 161.440909 
L 343.437118 87.927578 
L 343.510054 215.715879 
L 343.58299 212.876139 
L 343.874736 194.583669 
L 344.166482 156.652405 
L 344.458227 77.998135 
L 344.531164 214.722934 
L 344.6041 211.684606 
L 344.895846 192.112906 
L 345.187591 151.529031 
L 345.479337 67.374306 
L 345.552273 213.660552 
L 345.62521 210.409746 
L 345.916956 189.469358 
L 346.208701 146.047368 
L 346.573383 84.992039 
L 346.64632 84.992039 
L 346.719256 215.422325 
L 346.792192 212.523874 
L 347.083938 193.853213 
L 347.375684 155.137732 
L 347.740366 100.700187 
L 348.323857 100.700187 
L 348.396793 74.857308 
L 348.46973 214.408852 
L 348.542666 211.307706 
L 348.834412 191.331368 
L 349.126158 149.908433 
L 349.344967 91.663959 
L 349.417903 216.089517 
L 349.49084 213.324504 
L 349.782585 195.513401 
L 350.074331 158.580296 
L 350.366076 81.995809 
L 350.439013 215.122702 
L 350.511949 212.164326 
L 350.803695 193.107655 
L 351.095441 153.591743 
L 351.31425 98.028718 
L 351.387186 216.725993 
L 351.460123 214.088275 
L 351.751868 197.097156 
L 352.043614 161.864371 
L 352.33536 88.805669 
L 352.408296 215.803688 
L 352.481232 212.98151 
L 352.772978 194.802166 
L 353.064724 157.105481 
L 353.356469 78.937633 
L 353.429406 214.816884 
L 353.502342 211.797345 
L 353.794088 192.346683 
L 354.085833 152.013791 
L 354.377579 68.379505 
L 354.450515 213.761071 
L 354.523452 210.53037 
L 354.815197 189.719483 
L 355.106943 146.566029 
L 355.398689 57.083026 
L 355.471625 212.631423 
L 355.544562 209.174792 
L 355.836307 186.908558 
L 356.128053 140.737294 
L 356.346862 75.81623 
L 356.419798 214.504744 
L 356.492735 211.422777 
L 356.784481 191.569978 
L 357.076226 150.403216 
L 357.149163 134.500943 
L 357.149163 134.500943 
" clip-path="url(#pb7d1c0bbd6)" style="fill: none; stroke: #1f77b4; stroke-width: 1.5; stroke-linecap: square"/>
   </g>
   <g id="patch_3">
    <path d="M 37.567344 228.96 
L 37.567344 7.2 
" style="fill: none; stroke: #000000; stroke-width: 0.8; stroke-linejoin: miter; stroke-linecap: square"/>
   </g>
   <g id="patch_4">
    <path d="M 372.367344 228.96 
L 372.367344 7.2 
" style="fill: none; stroke: #000000; stroke-width: 0.8; stroke-linejoin: miter; stroke-linecap: square"/>
   </g>
   <g id="patch_5">
    <path d="M 37.567344 228.96 
L 372.367344 228.96 
" style="fill: none; stroke: #000000; stroke-width: 0.8; stroke-linejoin: miter; stroke-linecap: square"/>
   </g>
   <g id="patch_6">
    <path d="M 37.567344 7.2 
L 372.367344 7.2 
" style="fill: none; stroke: #000000; stroke-width: 0.8; stroke-linejoin: miter; stroke-linecap: square"/>
   </g>
   <g id="legend_1">
    <g id="patch_7">
     <path d="M 314.548024 29.420307 
L 365.367344 29.420307 
Q 367.367344 29.420307 367.367344 27.420307 
L 367.367344 14.2 
Q 367.367344 12.2 365.367344 12.2 
L 314.548024 12.2 
Q 312.548024 12.2 312.548024 14.2 
L 312.548024 27.420307 
Q 312.548024 29.420307 314.548024 29.420307 
z
" style="fill: #ffffff; opacity: 0.8; stroke: #cccccc; stroke-linejoin: miter"/>
    </g>
    <g id="line2d_13">
     <path d="M 316.548024 19.79832 
L 326.548024 19.79832 
L 336.548024 19.79832 
" style="fill: none; stroke: #1f77b4; stroke-width: 1.5; stroke-linecap: square"/>
    </g>
    <g id="text_14">
     <!-- CFL -->
     <g transform="translate(344.548024 23.29832) scale(0.1 -0.1)">
      <use xlink:href="#NimbusSanL-Regu-43" transform="scale(0.996264)"/>
      <use xlink:href="#NimbusSanL-Regu-46" transform="translate(71.929985 0) scale(0.996264)"/>
      <use xlink:href="#NimbusSanL-Regu-4c" transform="translate(132.801616 0) scale(0.996264)"/>
     </g>
    </g>
   </g>
  </g>
 </g>
 <defs>
  <clipPath id="pb7d1c0bbd6">
   <rect x="37.567344" y="7.2" width="334.8" height="221.76"/>
  </clipPath>
 </defs>
</svg>
