<?xml version="1.0" encoding="utf-8" standalone="no"?>
<!DOCTYPE svg PUBLIC "-//W3C//DTD SVG 1.1//EN"
  "http://www.w3.org/Graphics/SVG/1.1/DTD/svg11.dtd">
<svg xmlns:xlink="http://www.w3.org/1999/xlink" width="382.334753pt" height="265.600613pt" viewBox="0 0 382.334753 265.600613" xmlns="http://www.w3.org/2000/svg" version="1.1">
 <metadata>
  <rdf:RDF xmlns:dc="http://purl.org/dc/elements/1.1/" xmlns:cc="http://creativecommons.org/ns#" xmlns:rdf="http://www.w3.org/1999/02/22-rdf-syntax-ns#">
   <cc:Work>
    <dc:type rdf:resource="http://purl.org/dc/dcmitype/StillImage"/>
    <dc:date>2025-07-17T18:20:29.171937</dc:date>
    <dc:format>image/svg+xml</dc:format>
    <dc:creator>
     <cc:Agent>
      <dc:title>Matplotlib v3.10.3, https://matplotlib.org/</dc:title>
     </cc:Agent>
    </dc:creator>
   </cc:Work>
  </rdf:RDF>
 </metadata>
 <defs>
  <style type="text/css">*{stroke-linejoin: round; stroke-linecap: butt}</style>
 </defs>
 <g id="figure_1">
  <g id="patch_1">
   <path d="M 0 265.600613 
L 382.334753 265.600613 
L 382.334753 0 
L 0 0 
z
" style="fill: #ffffff"/>
  </g>
  <g id="axes_1">
   <g id="patch_2">
    <path d="M 40.334753 228.96 
L 375.134753 228.96 
L 375.134753 7.2 
L 40.334753 7.2 
z
" style="fill: #ffffff"/>
   </g>
   <g id="matplotlib.axis_1">
    <g id="xtick_1">
     <g id="line2d_1">
      <defs>
       <path id="m697a6d3139" d="M 0 0 
L 0 3.5 
" style="stroke: #000000; stroke-width: 0.8"/>
      </defs>
      <g>
       <use xlink:href="#m697a6d3139" x="55.552935" y="228.96" style="stroke: #000000; stroke-width: 0.8"/>
      </g>
     </g>
     <g id="text_1">
      <!-- $\mathdefault{0}$ -->
      <g transform="translate(53.062267 243.05832) scale(0.1 -0.1)">
       <defs>
        <path id="CMR17-30" d="M 2688 2038 
C 2688 2430 2682 3099 2413 3613 
C 2176 4063 1798 4224 1466 4224 
C 1158 4224 768 4082 525 3620 
C 269 3137 243 2539 243 2038 
C 243 1671 250 1112 448 623 
C 723 -39 1216 -128 1466 -128 
C 1760 -128 2208 -7 2470 604 
C 2662 1048 2688 1568 2688 2038 
z
M 1466 -26 
C 1056 -26 813 328 723 816 
C 653 1196 653 1749 653 2109 
C 653 2604 653 3015 736 3407 
C 858 3954 1216 4121 1466 4121 
C 1728 4121 2067 3947 2189 3420 
C 2272 3054 2278 2623 2278 2109 
C 2278 1691 2278 1176 2202 797 
C 2067 96 1690 -26 1466 -26 
z
" transform="scale(0.015625)"/>
       </defs>
       <use xlink:href="#CMR17-30" transform="scale(0.996264)"/>
      </g>
     </g>
    </g>
    <g id="xtick_2">
     <g id="line2d_2">
      <g>
       <use xlink:href="#m697a6d3139" x="116.941324" y="228.96" style="stroke: #000000; stroke-width: 0.8"/>
      </g>
     </g>
     <g id="text_2">
      <!-- $\mathdefault{1000}$ -->
      <g transform="translate(106.978654 243.05832) scale(0.1 -0.1)">
       <defs>
        <path id="CMR17-31" d="M 1702 4083 
C 1702 4217 1696 4224 1606 4224 
C 1357 3927 979 3833 621 3820 
C 602 3820 570 3820 563 3808 
C 557 3795 557 3782 557 3648 
C 755 3648 1088 3686 1344 3839 
L 1344 467 
C 1344 243 1331 166 781 166 
L 589 166 
L 589 0 
C 896 6 1216 12 1523 12 
C 1830 12 2150 6 2458 0 
L 2458 166 
L 2266 166 
C 1715 166 1702 236 1702 467 
L 1702 4083 
z
" transform="scale(0.015625)"/>
       </defs>
       <use xlink:href="#CMR17-31" transform="scale(0.996264)"/>
       <use xlink:href="#CMR17-30" transform="translate(45.690477 0) scale(0.996264)"/>
       <use xlink:href="#CMR17-30" transform="translate(91.380954 0) scale(0.996264)"/>
       <use xlink:href="#CMR17-30" transform="translate(137.071431 0) scale(0.996264)"/>
      </g>
     </g>
    </g>
    <g id="xtick_3">
     <g id="line2d_3">
      <g>
       <use xlink:href="#m697a6d3139" x="178.329714" y="228.96" style="stroke: #000000; stroke-width: 0.8"/>
      </g>
     </g>
     <g id="text_3">
      <!-- $\mathdefault{2000}$ -->
      <g transform="translate(168.367044 243.05832) scale(0.1 -0.1)">
       <defs>
        <path id="CMR17-32" d="M 2669 990 
L 2554 990 
C 2490 537 2438 460 2413 422 
C 2381 371 1920 371 1830 371 
L 602 371 
C 832 620 1280 1073 1824 1596 
C 2214 1966 2669 2400 2669 3033 
C 2669 3788 2067 4224 1395 4224 
C 691 4224 262 3603 262 3027 
C 262 2777 448 2745 525 2745 
C 589 2745 781 2783 781 3007 
C 781 3206 614 3264 525 3264 
C 486 3264 448 3257 422 3244 
C 544 3788 915 4057 1306 4057 
C 1862 4057 2227 3616 2227 3033 
C 2227 2477 1901 1998 1536 1583 
L 262 147 
L 262 0 
L 2515 0 
L 2669 990 
z
" transform="scale(0.015625)"/>
       </defs>
       <use xlink:href="#CMR17-32" transform="scale(0.996264)"/>
       <use xlink:href="#CMR17-30" transform="translate(45.690477 0) scale(0.996264)"/>
       <use xlink:href="#CMR17-30" transform="translate(91.380954 0) scale(0.996264)"/>
       <use xlink:href="#CMR17-30" transform="translate(137.071431 0) scale(0.996264)"/>
      </g>
     </g>
    </g>
    <g id="xtick_4">
     <g id="line2d_4">
      <g>
       <use xlink:href="#m697a6d3139" x="239.718104" y="228.96" style="stroke: #000000; stroke-width: 0.8"/>
      </g>
     </g>
     <g id="text_4">
      <!-- $\mathdefault{3000}$ -->
      <g transform="translate(229.755433 243.05832) scale(0.1 -0.1)">
       <defs>
        <path id="CMR17-33" d="M 1414 2176 
C 1984 2176 2234 1673 2234 1094 
C 2234 322 1824 25 1453 25 
C 1114 25 563 193 390 691 
C 422 678 454 678 486 678 
C 640 678 755 780 755 947 
C 755 1132 614 1216 486 1216 
C 378 1216 211 1164 211 927 
C 211 335 787 -128 1466 -128 
C 2176 -128 2720 432 2720 1087 
C 2720 1718 2208 2176 1600 2246 
C 2086 2347 2554 2776 2554 3353 
C 2554 3856 2048 4224 1472 4224 
C 890 4224 378 3862 378 3347 
C 378 3123 544 3084 627 3084 
C 762 3084 877 3167 877 3334 
C 877 3500 762 3584 627 3584 
C 602 3584 570 3584 544 3571 
C 730 3999 1235 4076 1459 4076 
C 1683 4076 2106 3966 2106 3347 
C 2106 3167 2080 2851 1862 2574 
C 1670 2329 1453 2316 1242 2297 
C 1210 2297 1062 2284 1037 2284 
C 992 2278 966 2272 966 2227 
C 966 2182 973 2176 1101 2176 
L 1414 2176 
z
" transform="scale(0.015625)"/>
       </defs>
       <use xlink:href="#CMR17-33" transform="scale(0.996264)"/>
       <use xlink:href="#CMR17-30" transform="translate(45.690477 0) scale(0.996264)"/>
       <use xlink:href="#CMR17-30" transform="translate(91.380954 0) scale(0.996264)"/>
       <use xlink:href="#CMR17-30" transform="translate(137.071431 0) scale(0.996264)"/>
      </g>
     </g>
    </g>
    <g id="xtick_5">
     <g id="line2d_5">
      <g>
       <use xlink:href="#m697a6d3139" x="301.106494" y="228.96" style="stroke: #000000; stroke-width: 0.8"/>
      </g>
     </g>
     <g id="text_5">
      <!-- $\mathdefault{4000}$ -->
      <g transform="translate(291.143823 243.05832) scale(0.1 -0.1)">
       <defs>
        <path id="CMR17-34" d="M 2150 4147 
C 2150 4281 2144 4288 2029 4288 
L 128 1254 
L 128 1088 
L 1779 1088 
L 1779 460 
C 1779 230 1766 166 1318 166 
L 1197 166 
L 1197 0 
C 1402 12 1747 12 1965 12 
C 2182 12 2528 12 2733 0 
L 2733 166 
L 2611 166 
C 2163 166 2150 230 2150 460 
L 2150 1088 
L 2803 1088 
L 2803 1254 
L 2150 1254 
L 2150 4147 
z
M 1798 3723 
L 1798 1254 
L 256 1254 
L 1798 3723 
z
" transform="scale(0.015625)"/>
       </defs>
       <use xlink:href="#CMR17-34" transform="scale(0.996264)"/>
       <use xlink:href="#CMR17-30" transform="translate(45.690477 0) scale(0.996264)"/>
       <use xlink:href="#CMR17-30" transform="translate(91.380954 0) scale(0.996264)"/>
       <use xlink:href="#CMR17-30" transform="translate(137.071431 0) scale(0.996264)"/>
      </g>
     </g>
    </g>
    <g id="xtick_6">
     <g id="line2d_6">
      <g>
       <use xlink:href="#m697a6d3139" x="362.494883" y="228.96" style="stroke: #000000; stroke-width: 0.8"/>
      </g>
     </g>
     <g id="text_6">
      <!-- $\mathdefault{5000}$ -->
      <g transform="translate(352.532213 243.05832) scale(0.1 -0.1)">
       <defs>
        <path id="CMR17-35" d="M 730 3750 
C 794 3724 1056 3641 1325 3641 
C 1920 3641 2246 3961 2432 4140 
C 2432 4191 2432 4224 2394 4224 
C 2387 4224 2374 4224 2323 4198 
C 2099 4102 1837 4032 1517 4032 
C 1325 4032 1037 4055 723 4191 
C 653 4224 640 4224 634 4224 
C 602 4224 595 4217 595 4090 
L 595 2231 
C 595 2113 595 2080 659 2080 
C 691 2080 704 2093 736 2139 
C 941 2435 1222 2560 1542 2560 
C 1766 2560 2246 2415 2246 1293 
C 2246 1087 2246 716 2054 422 
C 1894 159 1645 25 1370 25 
C 947 25 518 319 403 812 
C 429 806 480 793 506 793 
C 589 793 749 838 749 1036 
C 749 1209 627 1280 506 1280 
C 358 1280 262 1190 262 1011 
C 262 454 704 -128 1382 -128 
C 2042 -128 2669 441 2669 1267 
C 2669 2054 2170 2662 1549 2662 
C 1222 2662 947 2540 730 2304 
L 730 3750 
z
" transform="scale(0.015625)"/>
       </defs>
       <use xlink:href="#CMR17-35" transform="scale(0.996264)"/>
       <use xlink:href="#CMR17-30" transform="translate(45.690477 0) scale(0.996264)"/>
       <use xlink:href="#CMR17-30" transform="translate(91.380954 0) scale(0.996264)"/>
       <use xlink:href="#CMR17-30" transform="translate(137.071431 0) scale(0.996264)"/>
      </g>
     </g>
    </g>
    <g id="text_7">
     <!-- Iteration -->
     <g transform="translate(189.787377 256.278627) scale(0.1 -0.1)">
      <defs>
       <path id="NimbusSanL-Regu-49" d="M 1242 4672 
L 640 4672 
L 640 0 
L 1242 0 
L 1242 4672 
z
" transform="scale(0.015625)"/>
       <path id="NimbusSanL-Regu-74" d="M 1626 3328 
L 1075 3328 
L 1075 4249 
L 544 4249 
L 544 3328 
L 90 3328 
L 90 2892 
L 544 2892 
L 544 402 
C 544 64 774 -128 1190 -128 
C 1318 -128 1446 -116 1626 -84 
L 1626 364 
C 1555 345 1472 339 1370 339 
C 1139 339 1075 402 1075 634 
L 1075 2892 
L 1626 2892 
L 1626 3328 
z
" transform="scale(0.015625)"/>
       <path id="NimbusSanL-Regu-65" d="M 3283 1484 
C 3283 1998 3245 2311 3149 2565 
C 2931 3123 2419 3456 1792 3456 
C 858 3456 256 2734 256 1619 
C 256 545 838 -128 1779 -128 
C 2547 -128 3078 307 3213 1018 
L 2675 1018 
C 2528 588 2227 364 1798 364 
C 1459 364 1171 514 992 787 
C 864 974 819 1161 813 1484 
L 3283 1484 
z
M 826 1920 
C 870 2552 1248 2963 1786 2963 
C 2310 2963 2714 2519 2714 1959 
C 2714 1946 2714 1933 2707 1920 
L 826 1920 
z
" transform="scale(0.015625)"/>
       <path id="NimbusSanL-Regu-72" d="M 442 3328 
L 442 0 
L 979 0 
L 979 1727 
C 979 2203 1101 2514 1357 2698 
C 1523 2819 1683 2857 2054 2863 
L 2054 3404 
C 1965 3449 1920 3456 1850 3456 
C 1504 3456 1242 3251 934 2750 
L 934 3328 
L 442 3328 
z
" transform="scale(0.015625)"/>
       <path id="NimbusSanL-Regu-61" d="M 3424 332 
C 3366 320 3341 320 3309 320 
C 3123 320 3021 415 3021 581 
L 3021 2542 
C 3021 3135 2586 3456 1760 3456 
C 1274 3456 870 3315 646 3065 
C 493 2893 429 2702 416 2370 
L 954 2370 
C 998 2778 1242 2963 1741 2963 
C 2221 2963 2490 2784 2490 2466 
L 2490 2326 
C 2490 2103 2355 2007 1933 1956 
C 1178 1861 1062 1835 858 1753 
C 467 1593 269 1294 269 861 
C 269 256 691 -128 1370 -128 
C 1792 -128 2131 19 2509 364 
C 2547 25 2714 -128 3059 -128 
C 3168 -128 3251 -116 3424 -71 
L 3424 332 
z
M 2490 1071 
C 2490 893 2438 785 2278 638 
C 2061 441 1798 339 1485 339 
C 1069 339 826 536 826 874 
C 826 1224 1062 1402 1632 1485 
C 2195 1562 2310 1587 2490 1670 
L 2490 1071 
z
" transform="scale(0.015625)"/>
       <path id="NimbusSanL-Regu-69" d="M 960 3358 
L 429 3358 
L 429 0 
L 960 0 
L 960 3358 
z
M 960 4672 
L 422 4672 
L 422 3999 
L 960 3999 
L 960 4672 
z
" transform="scale(0.015625)"/>
       <path id="NimbusSanL-Regu-6f" d="M 1741 3456 
C 800 3456 230 2784 230 1663 
C 230 543 794 -128 1747 -128 
C 2688 -128 3264 543 3264 1638 
C 3264 2791 2707 3456 1741 3456 
z
M 1747 2963 
C 2349 2963 2707 2472 2707 1644 
C 2707 861 2336 364 1747 364 
C 1152 364 787 855 787 1663 
C 787 2466 1152 2963 1747 2963 
z
" transform="scale(0.015625)"/>
       <path id="NimbusSanL-Regu-6e" d="M 448 3328 
L 448 0 
L 986 0 
L 986 1835 
C 986 2539 1344 2988 1894 2988 
C 2317 2988 2586 2732 2586 2328 
L 2586 0 
L 3117 0 
L 3117 2539 
C 3117 3097 2701 3456 2054 3456 
C 1555 3456 1235 3263 941 2796 
L 941 3328 
L 448 3328 
z
" transform="scale(0.015625)"/>
      </defs>
      <use xlink:href="#NimbusSanL-Regu-49" transform="scale(0.996264)"/>
      <use xlink:href="#NimbusSanL-Regu-74" transform="translate(27.69517 0) scale(0.996264)"/>
      <use xlink:href="#NimbusSanL-Regu-65" transform="translate(55.390339 0) scale(0.996264)"/>
      <use xlink:href="#NimbusSanL-Regu-72" transform="translate(110.782016 0) scale(0.996264)"/>
      <use xlink:href="#NimbusSanL-Regu-61" transform="translate(142.961149 0) scale(0.996264)"/>
      <use xlink:href="#NimbusSanL-Regu-74" transform="translate(198.352826 0) scale(0.996264)"/>
      <use xlink:href="#NimbusSanL-Regu-69" transform="translate(226.047996 0) scale(0.996264)"/>
      <use xlink:href="#NimbusSanL-Regu-6f" transform="translate(248.16478 0) scale(0.996264)"/>
      <use xlink:href="#NimbusSanL-Regu-6e" transform="translate(303.556457 0) scale(0.996264)"/>
     </g>
    </g>
   </g>
   <g id="matplotlib.axis_2">
    <g id="ytick_1">
     <g id="line2d_7">
      <defs>
       <path id="mf1aa3eac55" d="M 0 0 
L -3.5 0 
" style="stroke: #000000; stroke-width: 0.8"/>
      </defs>
      <g>
       <use xlink:href="#mf1aa3eac55" x="40.334753" y="217.785961" style="stroke: #000000; stroke-width: 0.8"/>
      </g>
     </g>
     <g id="text_8">
      <!-- $\mathdefault{−2}$ -->
      <g transform="translate(20.604674 221.335121) scale(0.1 -0.1)">
       <defs>
        <path id="CMSY10-0" d="M 4218 1472 
C 4326 1472 4442 1472 4442 1600 
C 4442 1728 4326 1728 4218 1728 
L 755 1728 
C 646 1728 531 1728 531 1600 
C 531 1472 646 1472 755 1472 
L 4218 1472 
z
" transform="scale(0.015625)"/>
       </defs>
       <use xlink:href="#CMSY10-0" transform="scale(0.996264)"/>
       <use xlink:href="#CMR17-32" transform="translate(77.487468 0) scale(0.996264)"/>
      </g>
     </g>
    </g>
    <g id="ytick_2">
     <g id="line2d_8">
      <g>
       <use xlink:href="#mf1aa3eac55" x="40.334753" y="177.580652" style="stroke: #000000; stroke-width: 0.8"/>
      </g>
     </g>
     <g id="text_9">
      <!-- $\mathdefault{0}$ -->
      <g transform="translate(28.353418 181.129812) scale(0.1 -0.1)">
       <use xlink:href="#CMR17-30" transform="scale(0.996264)"/>
      </g>
     </g>
    </g>
    <g id="ytick_3">
     <g id="line2d_9">
      <g>
       <use xlink:href="#mf1aa3eac55" x="40.334753" y="137.375344" style="stroke: #000000; stroke-width: 0.8"/>
      </g>
     </g>
     <g id="text_10">
      <!-- $\mathdefault{2}$ -->
      <g transform="translate(28.353418 140.924504) scale(0.1 -0.1)">
       <use xlink:href="#CMR17-32" transform="scale(0.996264)"/>
      </g>
     </g>
    </g>
    <g id="ytick_4">
     <g id="line2d_10">
      <g>
       <use xlink:href="#mf1aa3eac55" x="40.334753" y="97.170035" style="stroke: #000000; stroke-width: 0.8"/>
      </g>
     </g>
     <g id="text_11">
      <!-- $\mathdefault{4}$ -->
      <g transform="translate(28.353418 100.719195) scale(0.1 -0.1)">
       <use xlink:href="#CMR17-34" transform="scale(0.996264)"/>
      </g>
     </g>
    </g>
    <g id="ytick_5">
     <g id="line2d_11">
      <g>
       <use xlink:href="#mf1aa3eac55" x="40.334753" y="56.964726" style="stroke: #000000; stroke-width: 0.8"/>
      </g>
     </g>
     <g id="text_12">
      <!-- $\mathdefault{6}$ -->
      <g transform="translate(28.353418 60.513886) scale(0.1 -0.1)">
       <defs>
        <path id="CMR17-36" d="M 678 2198 
C 678 3712 1395 4076 1811 4076 
C 1946 4076 2272 4049 2400 3782 
C 2298 3782 2106 3782 2106 3558 
C 2106 3385 2246 3328 2336 3328 
C 2394 3328 2566 3353 2566 3571 
C 2566 3987 2246 4224 1805 4224 
C 1043 4224 243 3411 243 2011 
C 243 257 966 -128 1478 -128 
C 2099 -128 2688 431 2688 1295 
C 2688 2101 2170 2688 1517 2688 
C 1126 2688 838 2430 678 1979 
L 678 2198 
z
M 1478 25 
C 691 25 691 1212 691 1450 
C 691 1914 909 2585 1504 2585 
C 1613 2585 1926 2585 2138 2140 
C 2253 1889 2253 1624 2253 1302 
C 2253 954 2253 696 2118 438 
C 1978 173 1773 25 1478 25 
z
" transform="scale(0.015625)"/>
       </defs>
       <use xlink:href="#CMR17-36" transform="scale(0.996264)"/>
      </g>
     </g>
    </g>
    <g id="ytick_6">
     <g id="line2d_12">
      <g>
       <use xlink:href="#mf1aa3eac55" x="40.334753" y="16.759418" style="stroke: #000000; stroke-width: 0.8"/>
      </g>
     </g>
     <g id="text_13">
      <!-- $\mathdefault{8}$ -->
      <g transform="translate(28.353418 20.308578) scale(0.1 -0.1)">
       <defs>
        <path id="CMR17-38" d="M 1741 2289 
C 2144 2494 2554 2803 2554 3298 
C 2554 3884 1990 4224 1472 4224 
C 890 4224 378 3800 378 3215 
C 378 3054 416 2777 666 2533 
C 730 2469 998 2276 1171 2154 
C 883 2006 211 1652 211 945 
C 211 282 838 -128 1459 -128 
C 2144 -128 2720 366 2720 1022 
C 2720 1607 2330 1877 2074 2051 
L 1741 2289 
z
M 902 2855 
C 851 2887 595 3086 595 3388 
C 595 3781 998 4076 1459 4076 
C 1965 4076 2336 3716 2336 3298 
C 2336 2700 1670 2359 1638 2359 
C 1632 2359 1626 2359 1574 2398 
L 902 2855 
z
M 2080 1536 
C 2176 1466 2483 1253 2483 861 
C 2483 385 2010 25 1472 25 
C 890 25 448 443 448 951 
C 448 1459 838 1884 1280 2083 
L 2080 1536 
z
" transform="scale(0.015625)"/>
       </defs>
       <use xlink:href="#CMR17-38" transform="scale(0.996264)"/>
      </g>
     </g>
    </g>
    <g id="text_14">
     <!-- Aerodynamic Coefficients - Blade_1 -->
     <g transform="translate(14.482687 196.280864) rotate(-90) scale(0.1 -0.1)">
      <defs>
       <path id="NimbusSanL-Regu-41" d="M 3034 1408 
L 3514 0 
L 4179 0 
L 2541 4672 
L 1773 4672 
L 109 0 
L 742 0 
L 1235 1408 
L 3034 1408 
z
M 2867 1907 
L 1382 1907 
L 2150 4032 
L 2867 1907 
z
" transform="scale(0.015625)"/>
       <path id="NimbusSanL-Regu-64" d="M 3168 4672 
L 2637 4672 
L 2637 2937 
C 2413 3276 2054 3456 1606 3456 
C 736 3456 166 2759 166 1695 
C 166 568 723 -128 1626 -128 
C 2086 -128 2406 44 2694 460 
L 2694 19 
L 3168 19 
L 3168 4672 
z
M 1696 2956 
C 2272 2956 2637 2447 2637 1651 
C 2637 880 2266 371 1702 371 
C 1114 371 723 887 723 1663 
C 723 2440 1114 2956 1696 2956 
z
" transform="scale(0.015625)"/>
       <path id="NimbusSanL-Regu-79" d="M 2483 3328 
L 1555 724 
L 698 3328 
L 128 3328 
L 1261 -29 
L 1056 -558 
C 973 -794 851 -884 627 -884 
C 550 -884 461 -871 346 -845 
L 346 -1325 
C 454 -1383 563 -1408 704 -1408 
C 877 -1408 1062 -1351 1203 -1248 
C 1370 -1127 1466 -986 1568 -718 
L 3059 3328 
L 2483 3328 
z
" transform="scale(0.015625)"/>
       <path id="NimbusSanL-Regu-6d" d="M 448 3328 
L 448 0 
L 986 0 
L 986 2089 
C 986 2597 1338 2988 1773 2988 
C 2170 2988 2394 2744 2394 2315 
L 2394 0 
L 2931 0 
L 2931 2109 
C 2931 2597 3283 2988 3718 2988 
C 4109 2988 4339 2738 4339 2315 
L 4339 0 
L 4877 0 
L 4877 2520 
C 4877 3123 4531 3456 3904 3456 
C 3456 3456 3187 3321 2874 2943 
C 2675 3302 2406 3456 1971 3456 
C 1523 3456 1229 3289 941 2886 
L 941 3328 
L 448 3328 
z
" transform="scale(0.015625)"/>
       <path id="NimbusSanL-Regu-63" d="M 3014 2237 
C 2989 2561 2918 2771 2790 2956 
C 2560 3270 2157 3456 1690 3456 
C 787 3456 198 2740 198 1632 
C 198 555 774 -128 1683 -128 
C 2483 -128 2989 352 3053 1167 
L 2515 1167 
C 2426 632 2150 364 1696 364 
C 1107 364 755 842 755 1632 
C 755 2466 1101 2963 1683 2963 
C 2131 2963 2413 2701 2477 2237 
L 3014 2237 
z
" transform="scale(0.015625)"/>
       <path id="NimbusSanL-Regu-43" d="M 4237 3219 
C 4051 4236 3462 4736 2438 4736 
C 1811 4736 1306 4537 960 4154 
C 538 3696 307 3035 307 2284 
C 307 1522 544 867 986 415 
C 1344 44 1805 -128 2413 -128 
C 3552 -128 4192 485 4333 1712 
L 3718 1712 
C 3667 1394 3603 1178 3507 994 
C 3315 612 2918 396 2419 396 
C 1491 396 902 1134 902 2291 
C 902 3480 1466 4211 2368 4211 
C 2746 4211 3098 4096 3290 3918 
C 3462 3759 3558 3562 3629 3219 
L 4237 3219 
z
" transform="scale(0.015625)"/>
       <path id="NimbusSanL-Regu-66" d="M 1651 3328 
L 1094 3328 
L 1094 3860 
C 1094 4087 1222 4204 1466 4204 
C 1510 4204 1530 4204 1651 4198 
L 1651 4639 
C 1530 4665 1459 4672 1350 4672 
C 858 4672 563 4390 563 3905 
L 563 3328 
L 115 3328 
L 115 2892 
L 563 2892 
L 563 0 
L 1094 0 
L 1094 2892 
L 1651 2892 
L 1651 3328 
z
" transform="scale(0.015625)"/>
       <path id="NimbusSanL-Regu-2" d="M 1613 3328 
L 1056 3328 
L 1056 3860 
C 1056 4087 1184 4204 1427 4204 
C 1472 4204 1491 4204 1613 4198 
L 1613 4639 
C 1491 4665 1421 4672 1312 4672 
C 819 4672 525 4390 525 3905 
L 525 3328 
L 77 3328 
L 77 2892 
L 525 2892 
L 525 0 
L 1056 0 
L 1056 2892 
L 1613 2892 
L 1613 3328 
z
M 2790 3328 
L 2259 3328 
L 2259 0 
L 2790 0 
L 2790 3328 
z
M 2790 4672 
L 2259 4672 
L 2259 3999 
L 2790 3999 
L 2790 4672 
z
" transform="scale(0.015625)"/>
       <path id="NimbusSanL-Regu-73" d="M 2803 2428 
C 2797 3084 2362 3456 1587 3456 
C 806 3456 301 3052 301 2434 
C 301 1912 570 1663 1363 1472 
L 1862 1351 
C 2234 1262 2381 1129 2381 887 
C 2381 574 2067 364 1600 364 
C 1312 364 1069 447 934 587 
C 851 683 813 778 781 1014 
L 218 1014 
C 243 243 678 -128 1555 -128 
C 2400 -128 2938 288 2938 931 
C 2938 1428 2656 1702 1990 1861 
L 1478 1982 
C 1043 2084 858 2224 858 2459 
C 858 2765 1133 2963 1568 2963 
C 1997 2963 2227 2778 2240 2428 
L 2803 2428 
z
" transform="scale(0.015625)"/>
       <path id="NimbusSanL-Regu-2d" d="M 1818 1996 
L 294 1996 
L 294 1536 
L 1818 1536 
L 1818 1996 
z
" transform="scale(0.015625)"/>
       <path id="NimbusSanL-Regu-42" d="M 506 0 
L 2611 0 
C 3053 0 3379 121 3629 390 
C 3859 632 3987 961 3987 1321 
C 3987 1878 3731 2214 3136 2444 
C 3558 2643 3782 2994 3782 3476 
C 3782 3821 3654 4127 3411 4345 
C 3168 4569 2848 4672 2400 4672 
L 506 4672 
L 506 0 
z
M 1101 2636 
L 1101 4147 
L 2253 4147 
C 2586 4147 2771 4101 2931 3977 
C 3098 3847 3187 3652 3187 3391 
C 3187 3138 3098 2936 2931 2806 
C 2771 2682 2586 2636 2253 2636 
L 1101 2636 
z
M 1101 524 
L 1101 2112 
L 2554 2112 
C 2842 2112 3034 2042 3174 1890 
C 3315 1745 3392 1542 3392 1315 
C 3392 1093 3315 891 3174 746 
C 3034 594 2842 524 2554 524 
L 1101 524 
z
" transform="scale(0.015625)"/>
       <path id="NimbusSanL-Regu-6c" d="M 973 4672 
L 435 4672 
L 435 0 
L 973 0 
L 973 4672 
z
" transform="scale(0.015625)"/>
       <path id="NimbusSanL-Regu-31" d="M 1658 3232 
L 1658 0 
L 2221 0 
L 2221 4537 
L 1850 4537 
C 1651 3840 1523 3744 653 3635 
L 653 3232 
L 1658 3232 
z
" transform="scale(0.015625)"/>
      </defs>
      <use xlink:href="#NimbusSanL-Regu-41" transform="scale(0.996264)"/>
      <use xlink:href="#NimbusSanL-Regu-65" transform="translate(66.450031 0) scale(0.996264)"/>
      <use xlink:href="#NimbusSanL-Regu-72" transform="translate(121.841708 0) scale(0.996264)"/>
      <use xlink:href="#NimbusSanL-Regu-6f" transform="translate(155.016938 0) scale(0.996264)"/>
      <use xlink:href="#NimbusSanL-Regu-64" transform="translate(210.408615 0) scale(0.996264)"/>
      <use xlink:href="#NimbusSanL-Regu-79" transform="translate(265.800292 0) scale(0.996264)"/>
      <use xlink:href="#NimbusSanL-Regu-6e" transform="translate(315.613492 0) scale(0.996264)"/>
      <use xlink:href="#NimbusSanL-Regu-61" transform="translate(371.005169 0) scale(0.996264)"/>
      <use xlink:href="#NimbusSanL-Regu-6d" transform="translate(426.396846 0) scale(0.996264)"/>
      <use xlink:href="#NimbusSanL-Regu-69" transform="translate(509.385276 0) scale(0.996264)"/>
      <use xlink:href="#NimbusSanL-Regu-63" transform="translate(531.502061 0) scale(0.996264)"/>
      <use xlink:href="#NimbusSanL-Regu-43" transform="translate(609.010431 0) scale(0.996264)"/>
      <use xlink:href="#NimbusSanL-Regu-6f" transform="translate(680.940416 0) scale(0.996264)"/>
      <use xlink:href="#NimbusSanL-Regu-65" transform="translate(736.332093 0) scale(0.996264)"/>
      <use xlink:href="#NimbusSanL-Regu-66" transform="translate(791.72377 0) scale(0.996264)"/>
      <use xlink:href="#NimbusSanL-Regu-2" transform="translate(819.418939 0) scale(0.996264)"/>
      <use xlink:href="#NimbusSanL-Regu-63" transform="translate(869.23214 0) scale(0.996264)"/>
      <use xlink:href="#NimbusSanL-Regu-69" transform="translate(919.04534 0) scale(0.996264)"/>
      <use xlink:href="#NimbusSanL-Regu-65" transform="translate(941.162125 0) scale(0.996264)"/>
      <use xlink:href="#NimbusSanL-Regu-6e" transform="translate(996.553802 0) scale(0.996264)"/>
      <use xlink:href="#NimbusSanL-Regu-74" transform="translate(1051.945479 0) scale(0.996264)"/>
      <use xlink:href="#NimbusSanL-Regu-73" transform="translate(1079.640648 0) scale(0.996264)"/>
      <use xlink:href="#NimbusSanL-Regu-2d" transform="translate(1157.149018 0) scale(0.996264)"/>
      <use xlink:href="#NimbusSanL-Regu-42" transform="translate(1218.019418 0) scale(0.996264)"/>
      <use xlink:href="#NimbusSanL-Regu-6c" transform="translate(1284.469449 0) scale(0.996264)"/>
      <use xlink:href="#NimbusSanL-Regu-61" transform="translate(1306.586233 0) scale(0.996264)"/>
      <use xlink:href="#NimbusSanL-Regu-64" transform="translate(1361.97791 0) scale(0.996264)"/>
      <use xlink:href="#NimbusSanL-Regu-65" transform="translate(1417.369587 0) scale(0.996264)"/>
      <use xlink:href="#NimbusSanL-Regu-31" transform="translate(1508.626829 0) scale(0.996264)"/>
      <path d="M 1478.738605 0 
L 1508.626829 0 
L 1508.626829 0.3985 
L 1478.738605 0.3985 
L 1478.738605 0 
z
"/>
     </g>
    </g>
   </g>
   <g id="line2d_13">
    <path d="M 55.552935 120.761516 
L 55.798488 17.28 
L 55.921265 20.289783 
L 56.228207 32.109663 
L 56.473761 32.807119 
L 56.719314 34.380736 
L 56.964868 34.985097 
L 57.210421 36.415185 
L 57.394586 38.204171 
L 57.517363 39.639898 
L 57.701528 40.231509 
L 57.885693 41.745152 
L 58.069859 45.891748 
L 58.254024 57.915207 
L 58.499577 79.000647 
L 58.683743 85.028159 
L 58.867908 98.532644 
L 59.052073 127.849404 
L 59.17485 143.415842 
L 59.359015 148.483642 
L 59.604568 164.035743 
L 60.157064 207.209424 
L 60.402617 211.618446 
L 60.770948 217.773356 
L 61.016501 218.88 
L 61.07789 218.829115 
L 61.691774 215.321349 
L 61.875939 211.326727 
L 62.121492 204.353973 
L 62.305658 202.455649 
L 62.489823 198.258065 
L 62.673988 189.1007 
L 63.042318 165.141328 
L 63.226483 159.525793 
L 63.472037 143.938651 
L 63.778979 126.577703 
L 64.085921 126.310989 
L 64.208698 127.03549 
L 64.331474 129.904464 
L 64.577028 144.781909 
L 64.699805 148.991574 
L 64.88397 150.267981 
L 65.190912 154.897561 
L 65.620631 161.582883 
L 65.804796 161.870719 
L 65.988961 162.536726 
L 66.173126 163.967902 
L 66.357291 167.205742 
L 66.480068 169.144255 
L 66.664233 169.796467 
L 66.848398 171.188541 
L 67.093952 175.17411 
L 67.400894 181.032639 
L 67.585059 181.892575 
L 67.892001 184.743302 
L 68.076166 186.076759 
L 68.260331 185.879865 
L 68.505885 185.559465 
L 68.69005 184.825355 
L 68.874215 182.86097 
L 69.181157 179.198136 
L 69.365322 178.493257 
L 69.549488 176.971546 
L 69.733653 173.750463 
L 70.101983 165.394063 
L 70.286148 163.46353 
L 70.531702 157.927282 
L 70.961421 145.960552 
L 71.206974 143.380723 
L 71.636693 138.143471 
L 71.943635 138.288994 
L 72.1278 138.676629 
L 72.311965 139.829769 
L 73.048626 146.263218 
L 73.232791 146.751456 
L 73.478344 148.216111 
L 73.66251 150.680472 
L 73.785286 152.195785 
L 73.969452 152.711663 
L 74.153617 153.854689 
L 74.39917 157.253118 
L 74.828889 165.481412 
L 75.013054 166.224068 
L 75.258608 168.275825 
L 75.626938 171.560184 
L 75.872492 172.012899 
L 76.179434 172.716838 
L 76.240822 172.647128 
L 76.547764 171.677713 
L 76.731929 171.281703 
L 76.916094 170.42279 
L 77.100259 168.599472 
L 77.223036 167.567446 
L 77.407201 167.228591 
L 77.652755 166.153806 
L 77.898309 163.935094 
L 78.143862 161.971074 
L 78.328027 161.533649 
L 78.573581 160.265378 
L 79.310242 155.45239 
L 79.494407 155.313392 
L 80.046902 155.367637 
L 80.844951 156.345593 
L 81.029116 157.088921 
L 81.151893 157.494605 
L 81.458835 157.786718 
L 81.765777 158.554363 
L 82.011331 159.038493 
L 82.379661 159.286288 
L 82.686603 159.471216 
L 82.870768 159.392545 
L 83.239098 159.233066 
L 83.423264 158.946213 
L 83.668817 157.972916 
L 83.791594 157.608907 
L 84.037148 157.423503 
L 84.282701 156.942818 
L 84.71242 155.875282 
L 85.019362 155.544736 
L 85.326304 154.870186 
L 85.510469 154.657765 
L 85.878799 154.42881 
L 86.369906 154.049994 
L 88.211558 153.874247 
L 88.579888 153.991437 
L 88.764054 154.346502 
L 89.070995 155.545934 
L 89.684879 158.128205 
L 89.991821 158.746239 
L 90.42154 158.943987 
L 90.667094 159.284951 
L 90.912647 159.620048 
L 91.280978 159.845521 
L 91.894861 160.407833 
L 92.631522 160.615278 
L 92.999852 160.499867 
L 93.184018 160.249827 
L 93.368183 160.066035 
L 93.675125 159.898066 
L 93.920678 159.519353 
L 94.289009 158.851957 
L 94.595951 158.54452 
L 94.841504 157.922357 
L 95.209834 156.822358 
L 95.455388 156.610637 
L 95.700942 156.104151 
L 96.007884 155.356754 
L 96.314825 155.09647 
L 96.621767 154.429205 
L 96.867321 153.978021 
L 97.235651 153.734735 
L 97.603982 153.521081 
L 97.788147 153.617142 
L 98.156477 153.786404 
L 98.340642 154.081576 
L 98.586196 154.51499 
L 98.893138 154.74649 
L 99.138691 155.227436 
L 99.445633 155.937274 
L 99.752575 156.186984 
L 100.059517 156.834033 
L 100.489236 157.864973 
L 100.857566 158.284782 
L 101.901169 158.183199 
L 102.208111 158.048112 
L 102.392276 157.787503 
L 102.576441 157.14652 
L 102.699218 156.780297 
L 102.944772 156.586902 
L 103.190325 156.078497 
L 103.620044 154.879347 
L 103.865597 154.584243 
L 104.172539 153.767548 
L 104.418093 153.299611 
L 104.786423 153.068624 
L 105.093365 152.851313 
L 105.768637 153.250463 
L 105.952803 153.704323 
L 106.136968 154.021131 
L 106.382521 154.22198 
L 106.628075 154.735183 
L 107.119182 156.173823 
L 107.364736 156.664491 
L 107.610289 157.764 
L 107.855843 158.750704 
L 108.101396 159.07401 
L 108.408338 160.015869 
L 108.71528 161.030546 
L 109.144999 161.235119 
L 109.329164 161.275069 
L 110.127213 160.452402 
L 110.495543 159.373364 
L 110.741097 158.987492 
L 110.986651 158.104696 
L 111.232204 157.301503 
L 111.477758 157.032236 
L 111.723311 156.422519 
L 112.15303 155.290441 
L 112.459972 154.95417 
L 112.951079 154.244251 
L 113.319409 154.035158 
L 113.810517 153.698743 
L 114.547177 153.696135 
L 114.976896 153.809382 
L 115.22245 154.111771 
L 115.468003 154.523801 
L 115.774945 154.762334 
L 116.020499 155.303393 
L 116.450217 156.666463 
L 116.695771 157.016937 
L 116.941324 157.770892 
L 117.186878 158.390038 
L 117.49382 158.661963 
L 118.169092 159.496748 
L 118.598811 159.482329 
L 119.458248 158.529622 
L 119.887967 157.588822 
L 120.194909 157.284387 
L 120.747405 156.558342 
L 121.115735 156.297415 
L 121.484065 156.066256 
L 122.957387 155.850089 
L 123.632659 155.736832 
L 123.939601 155.753591 
L 124.185154 155.824393 
L 124.553485 155.966492 
L 125.597087 157.02624 
L 125.781253 157.197925 
L 126.149583 157.383601 
L 126.702078 157.779576 
L 127.254574 157.705486 
L 127.745681 157.499359 
L 128.1754 157.264734 
L 128.420953 157.116292 
L 129.034837 156.940372 
L 129.587333 156.828111 
L 129.955663 156.685118 
L 130.139828 156.613392 
L 130.569547 156.482638 
L 130.815101 156.223846 
L 130.999266 156.092884 
L 131.367596 155.933898 
L 131.735926 155.491628 
L 131.920092 155.401758 
L 132.779529 155.376072 
L 133.577578 155.968643 
L 133.945908 156.209846 
L 134.130074 156.283641 
L 134.682569 156.44118 
L 135.173676 156.60714 
L 135.664783 156.809737 
L 136.033114 156.915778 
L 137.138105 156.89327 
L 137.445047 156.712051 
L 137.813377 156.388049 
L 138.181707 156.158871 
L 138.672814 155.681205 
L 139.041145 155.42064 
L 139.470863 155.07845 
L 140.637243 154.966506 
L 140.882796 155.132461 
L 141.189738 155.339068 
L 141.558069 155.526708 
L 142.110564 155.936137 
L 142.478895 156.20089 
L 142.847225 156.490027 
L 143.276944 156.689223 
L 143.706662 156.920443 
L 144.504711 156.924572 
L 144.750265 156.862447 
L 145.179984 156.717435 
L 145.486926 156.325591 
L 145.732479 156.074719 
L 146.10081 155.888367 
L 146.346363 155.54534 
L 146.530528 155.39424 
L 146.898859 155.225622 
L 147.696908 154.686714 
L 148.433568 154.465457 
L 148.924675 154.567367 
L 149.108841 154.631725 
L 149.599948 154.786706 
L 149.90689 155.157361 
L 150.091055 155.285829 
L 150.459385 155.438298 
L 151.196046 155.895628 
L 152.54659 156.469813 
L 153.34464 156.388321 
L 153.71297 156.274418 
L 154.142689 156.098283 
L 154.449631 155.955079 
L 154.879349 155.802677 
L 155.61601 155.393136 
L 157.212108 154.981003 
L 158.501264 154.997384 
L 159.851809 155.317619 
L 160.404304 155.454367 
L 160.711246 155.505079 
L 163.596501 155.712281 
L 165.376764 155.270103 
L 165.867871 155.11974 
L 166.358978 154.937265 
L 166.604532 154.884529 
L 168.814514 154.762925 
L 169.428398 154.913089 
L 170.594777 155.350115 
L 170.901719 155.461157 
L 171.454215 155.6252 
L 171.822545 155.718717 
L 173.173089 155.681339 
L 173.725585 155.531811 
L 174.093915 155.359084 
L 174.27808 155.292364 
L 174.769188 155.156116 
L 175.383071 154.909833 
L 175.81279 154.697041 
L 176.058344 154.637256 
L 177.654442 154.56821 
L 178.759433 154.908064 
L 179.004986 154.967979 
L 179.557482 155.127961 
L 179.925812 155.219652 
L 182.013018 155.351533 
L 183.179397 154.998231 
L 183.609116 154.81555 
L 184.161611 154.659251 
L 184.468553 154.612812 
L 186.555758 154.51713 
L 188.02908 154.90607 
L 188.336022 154.945736 
L 190.975722 155.056662 
L 192.20349 154.872718 
L 192.571821 154.829954 
L 193.247093 154.65132 
L 193.615423 154.612036 
L 196.193736 154.480604 
L 198.096776 154.661883 
L 199.324543 154.813674 
L 201.718691 154.809417 
L 202.271186 154.761936 
L 205.708936 154.355328 
L 207.243646 154.415982 
L 209.330851 154.688269 
L 210.313065 154.752081 
L 212.216105 154.64635 
L 213.014154 154.509773 
L 213.443873 154.47071 
L 216.206351 154.29653 
L 218.90744 154.513615 
L 220.257984 154.600132 
L 221.976859 154.533062 
L 222.897685 154.457227 
L 224.98489 154.31013 
L 227.133484 154.306248 
L 230.018738 154.507307 
L 232.351497 154.416199 
L 233.333711 154.351577 
L 238.797278 154.359719 
L 241.866698 154.430845 
L 244.751952 154.298845 
L 247.698595 154.258053 
L 250.461072 154.385504 
L 252.179947 154.395925 
L 255.49492 154.279556 
L 257.336572 154.246457 
L 265.624004 154.306189 
L 269.798415 154.285117 
L 277.410575 154.294391 
L 283.119695 154.359844 
L 285.820785 154.358889 
L 311.849462 154.381339 
L 317.742747 154.413367 
L 323.758809 154.419315 
L 329.713483 154.419501 
L 359.916571 154.4597 
L 359.916571 154.4597 
" clip-path="url(#pf458ce3321)" style="fill: none; stroke: #1f77b4; stroke-width: 1.5; stroke-linecap: square"/>
   </g>
   <g id="line2d_14">
    <path d="M 55.552935 190.868513 
L 55.675711 210.464739 
L 55.7371 210.306847 
L 55.921265 208.552358 
L 56.166819 206.899814 
L 56.596537 207.64171 
L 56.903479 207.73681 
L 57.149033 208.031493 
L 57.333198 208.725298 
L 57.578752 210.112637 
L 57.762917 210.493549 
L 58.00847 211.648655 
L 58.315412 213.925391 
L 58.376801 213.868673 
L 58.622354 213.759022 
L 58.806519 213.390821 
L 58.929296 212.641557 
L 59.052073 210.705575 
L 59.17485 208.771718 
L 59.359015 208.021131 
L 59.54318 206.303536 
L 59.727345 202.675236 
L 60.095676 194.228938 
L 60.279841 193.207698 
L 60.648171 189.134222 
L 60.893725 184.418306 
L 61.323443 176.356371 
L 61.507608 175.653959 
L 61.753162 173.726444 
L 62.182881 169.671812 
L 62.428434 168.657194 
L 62.735376 166.680023 
L 62.796765 166.903934 
L 62.98093 168.276763 
L 63.165095 169.08042 
L 63.34926 171.14782 
L 63.533425 176.067053 
L 63.840367 184.568118 
L 64.024532 185.794907 
L 64.270086 189.139841 
L 64.577028 196.707522 
L 64.699805 198.714067 
L 64.88397 199.366131 
L 65.129523 201.450009 
L 65.620631 206.751784 
L 65.988961 206.649287 
L 66.111738 206.421356 
L 66.295903 205.323746 
L 66.541456 203.340941 
L 66.725622 202.826052 
L 66.971175 201.233418 
L 67.216729 197.452052 
L 67.339506 195.822614 
L 67.523671 195.291384 
L 67.769224 193.684121 
L 68.076166 189.558276 
L 68.198943 188.349404 
L 68.444497 187.765376 
L 68.69005 186.414701 
L 68.996992 183.274337 
L 69.119769 182.310581 
L 69.303934 181.99217 
L 69.549488 180.924126 
L 69.795041 178.60329 
L 69.979206 176.941468 
L 70.22476 176.566593 
L 70.59309 175.705907 
L 70.654479 175.844846 
L 70.961421 177.369685 
L 71.145586 177.995272 
L 71.329751 179.331373 
L 71.575304 183.040185 
L 71.698081 184.453392 
L 71.882246 184.891128 
L 72.1278 186.220443 
L 72.373353 188.754493 
L 72.925849 196.138726 
L 73.171403 196.44475 
L 73.601121 197.332847 
L 74.276394 195.308534 
L 74.521947 192.469534 
L 74.767501 189.904735 
L 74.951666 189.639542 
L 75.197219 188.849111 
L 75.626938 187.354376 
L 76.056657 187.070711 
L 76.30221 187.015301 
L 76.547764 187.077911 
L 76.916094 187.230324 
L 77.100259 187.50401 
L 77.284425 187.690938 
L 77.591367 187.876872 
L 77.83692 188.340128 
L 78.20525 189.351728 
L 78.450804 189.680445 
L 78.757746 190.542545 
L 78.941911 190.872973 
L 79.064688 190.724047 
L 79.37163 189.70882 
L 79.494407 189.421422 
L 79.801349 189.216728 
L 80.353844 188.654037 
L 80.844951 188.734722 
L 81.029116 189.08636 
L 81.213282 189.376925 
L 81.458835 189.576088 
L 81.704389 190.089039 
L 82.011331 190.852069 
L 82.318273 191.117389 
L 82.870768 191.820014 
L 83.423264 191.791459 
L 84.098536 191.238691 
L 84.466866 190.928123 
L 84.651031 190.833758 
L 85.142139 190.679768 
L 85.817411 190.34483 
L 86.492683 190.176869 
L 87.106567 190.250626 
L 87.597674 190.383083 
L 87.781839 190.612795 
L 88.027393 190.999228 
L 88.334335 191.213198 
L 88.579888 191.70035 
L 89.439326 194.275274 
L 89.746268 194.498879 
L 90.482928 194.314273 
L 90.728482 194.033026 
L 90.912647 193.862434 
L 91.280978 193.651261 
L 91.526531 193.188331 
L 91.710696 192.941019 
L 92.017638 192.724871 
L 92.263192 192.271316 
L 92.631522 191.527519 
L 92.877076 191.292693 
L 93.122629 190.776868 
L 93.368183 190.324575 
L 93.675125 190.109618 
L 93.982067 189.580006 
L 94.22762 189.239634 
L 94.595951 189.045683 
L 95.025669 188.814047 
L 95.209834 188.889558 
L 95.578165 189.020565 
L 95.76233 189.26605 
L 96.007884 189.65601 
L 96.314825 189.874303 
L 96.560379 190.351268 
L 96.928709 191.191053 
L 97.174263 191.470526 
L 97.419816 192.107209 
L 97.788147 193.283545 
L 98.0337 193.495184 
L 98.340642 194.09144 
L 98.586196 194.425919 
L 99.015915 194.634714 
L 99.261468 194.699597 
L 99.445633 194.614846 
L 99.813964 194.461146 
L 99.998129 194.169695 
L 100.243682 193.181935 
L 100.980343 189.84564 
L 101.225897 189.642156 
L 101.532839 189.027808 
L 101.839781 188.439564 
L 102.208111 188.22612 
L 102.515053 188.038459 
L 103.251714 188.521223 
L 103.620044 189.146765 
L 103.865597 189.371574 
L 104.111151 189.918585 
L 104.479481 190.860373 
L 104.725035 191.162144 
L 104.970588 191.82492 
L 105.338919 192.980099 
L 105.645861 193.257461 
L 106.259745 194.061189 
L 107.119182 194.284279 
L 107.487512 194.143075 
L 107.671678 193.839082 
L 107.855843 193.621911 
L 108.162785 193.421303 
L 108.408338 192.977444 
L 108.838057 191.959752 
L 109.083611 191.713005 
L 109.329164 191.180729 
L 109.574718 190.737733 
L 109.88166 190.543543 
L 110.61832 189.883969 
L 111.109427 189.868677 
L 111.661923 190.000855 
L 111.907476 190.315607 
L 112.091642 190.492102 
L 112.459972 190.714013 
L 112.705526 191.125611 
L 112.889691 191.31393 
L 113.258021 191.530193 
L 113.564963 192.017035 
L 113.749128 192.188361 
L 114.117458 192.374914 
L 114.485789 192.846771 
L 114.669954 192.957046 
L 115.161061 193.135838 
L 115.529391 193.25579 
L 116.757159 193.241168 
L 121.115735 192.488449 
L 122.159338 192.545769 
L 123.448494 192.889266 
L 123.878212 193.067554 
L 124.185154 193.214902 
L 124.614873 193.373197 
L 125.044592 193.561492 
L 125.535699 193.749221 
L 125.842641 193.83367 
L 126.64069 193.786554 
L 127.254574 193.645357 
L 127.684293 193.447822 
L 128.1754 193.235767 
L 128.482342 193.108373 
L 129.034837 192.93752 
L 129.464556 192.834938 
L 131.551761 192.760408 
L 132.533975 193.194789 
L 133.332024 194.171628 
L 133.823132 194.334989 
L 134.191462 194.420168 
L 134.805346 194.340058 
L 134.989511 194.268764 
L 135.41923 194.139281 
L 135.726172 193.811453 
L 135.971725 193.630638 
L 136.462832 193.441739 
L 136.831163 193.29691 
L 137.6906 193.32733 
L 138.243096 193.470231 
L 138.672814 193.690668 
L 139.041145 193.866187 
L 139.59364 194.246716 
L 139.961971 194.493402 
L 140.207524 194.653651 
L 140.698631 194.816188 
L 141.251127 195.028955 
L 142.294729 195.025935 
L 142.601671 194.89176 
L 142.785837 194.818413 
L 143.276944 194.652639 
L 143.890828 194.297408 
L 144.259158 194.049725 
L 144.627488 193.803866 
L 145.855256 193.865651 
L 146.284975 194.010404 
L 146.591917 194.140351 
L 147.021635 194.290413 
L 147.574131 194.58159 
L 148.00385 194.817704 
L 148.310792 194.99792 
L 148.924675 195.158657 
L 149.293006 195.195992 
L 150.459385 195.177758 
L 152.423814 194.777897 
L 152.730756 194.732158 
L 153.406028 194.560758 
L 153.774358 194.520636 
L 155.861564 194.421594 
L 157.641827 194.81723 
L 157.948769 194.924764 
L 158.501264 195.098909 
L 158.930983 195.269889 
L 161.140965 195.256811 
L 162.552898 194.886215 
L 164.947045 194.596833 
L 165.929259 194.730467 
L 166.358978 194.887114 
L 166.604532 194.951253 
L 167.095639 195.100748 
L 167.525358 195.271913 
L 168.016465 195.453779 
L 168.262018 195.505767 
L 170.533389 195.620341 
L 171.147273 195.497196 
L 171.576991 195.315852 
L 171.822545 195.260389 
L 172.37504 195.114101 
L 172.681982 195.069634 
L 174.707799 194.985673 
L 175.81279 195.244669 
L 176.058344 195.297881 
L 176.610839 195.445434 
L 177.224723 195.676701 
L 179.61887 195.662691 
L 180.048589 195.622783 
L 181.337745 195.384245 
L 181.890241 195.321645 
L 183.302174 195.280335 
L 186.432982 195.655244 
L 187.967691 195.743551 
L 193.431258 195.47987 
L 194.904579 195.617154 
L 195.395687 195.656729 
L 197.973999 195.831401 
L 199.815651 195.743233 
L 201.227584 195.607986 
L 203.744508 195.569632 
L 205.708936 195.744182 
L 207.673364 195.856865 
L 210.006123 195.748365 
L 212.768601 195.589626 
L 215.46969 195.719055 
L 216.697458 195.788213 
L 219.889654 195.740409 
L 221.301587 195.635648 
L 226.028493 195.696057 
L 227.992921 195.746405 
L 232.842604 195.577081 
L 251.197733 195.530468 
L 253.653268 195.468053 
L 258.134621 195.524563 
L 262.002089 195.45697 
L 267.71121 195.427422 
L 273.727272 195.336891 
L 275.998642 195.31442 
L 286.00495 195.243676 
L 359.916571 195.015123 
L 359.916571 195.015123 
" clip-path="url(#pf458ce3321)" style="fill: none; stroke: #ff7f0e; stroke-width: 1.5; stroke-linecap: square"/>
   </g>
   <g id="patch_3">
    <path d="M 40.334753 228.96 
L 40.334753 7.2 
" style="fill: none; stroke: #000000; stroke-width: 0.8; stroke-linejoin: miter; stroke-linecap: square"/>
   </g>
   <g id="patch_4">
    <path d="M 375.134753 228.96 
L 375.134753 7.2 
" style="fill: none; stroke: #000000; stroke-width: 0.8; stroke-linejoin: miter; stroke-linecap: square"/>
   </g>
   <g id="patch_5">
    <path d="M 40.334753 228.96 
L 375.134753 228.96 
" style="fill: none; stroke: #000000; stroke-width: 0.8; stroke-linejoin: miter; stroke-linecap: square"/>
   </g>
   <g id="patch_6">
    <path d="M 40.334753 7.2 
L 375.134753 7.2 
" style="fill: none; stroke: #000000; stroke-width: 0.8; stroke-linejoin: miter; stroke-linecap: square"/>
   </g>
   <g id="legend_1">
    <g id="patch_7">
     <path d="M 321.748759 43.640613 
L 368.134753 43.640613 
Q 370.134753 43.640613 370.134753 41.640613 
L 370.134753 14.2 
Q 370.134753 12.2 368.134753 12.2 
L 321.748759 12.2 
Q 319.748759 12.2 319.748759 14.2 
L 319.748759 41.640613 
Q 319.748759 43.640613 321.748759 43.640613 
z
" style="fill: #ffffff; opacity: 0.8; stroke: #cccccc; stroke-linejoin: miter"/>
    </g>
    <g id="line2d_15">
     <path d="M 323.748759 19.79832 
L 333.748759 19.79832 
L 343.748759 19.79832 
" style="fill: none; stroke: #1f77b4; stroke-width: 1.5; stroke-linecap: square"/>
    </g>
    <g id="text_15">
     <!-- CD -->
     <g transform="translate(351.748759 23.29832) scale(0.1 -0.1)">
      <defs>
       <path id="NimbusSanL-Regu-44" d="M 570 0 
L 2368 0 
C 3546 0 4269 883 4269 2339 
C 4269 3788 3552 4672 2368 4672 
L 570 4672 
L 570 0 
z
M 1165 524 
L 1165 4147 
L 2266 4147 
C 3187 4147 3674 3525 3674 2332 
C 3674 1153 3187 524 2266 524 
L 1165 524 
z
" transform="scale(0.015625)"/>
      </defs>
      <use xlink:href="#NimbusSanL-Regu-43" transform="scale(0.996264)"/>
      <use xlink:href="#NimbusSanL-Regu-44" transform="translate(71.929985 0) scale(0.996264)"/>
     </g>
    </g>
    <g id="line2d_16">
     <path d="M 323.748759 34.018627 
L 333.748759 34.018627 
L 343.748759 34.018627 
" style="fill: none; stroke: #ff7f0e; stroke-width: 1.5; stroke-linecap: square"/>
    </g>
    <g id="text_16">
     <!-- CL -->
     <g transform="translate(351.748759 37.518627) scale(0.1 -0.1)">
      <defs>
       <path id="NimbusSanL-Regu-4c" d="M 1107 4672 
L 512 4672 
L 512 0 
L 3411 0 
L 3411 524 
L 1107 524 
L 1107 4672 
z
" transform="scale(0.015625)"/>
      </defs>
      <use xlink:href="#NimbusSanL-Regu-43" transform="scale(0.996264)"/>
      <use xlink:href="#NimbusSanL-Regu-4c" transform="translate(71.929985 0) scale(0.996264)"/>
     </g>
    </g>
   </g>
  </g>
 </g>
 <defs>
  <clipPath id="pf458ce3321">
   <rect x="40.334753" y="7.2" width="334.8" height="221.76"/>
  </clipPath>
 </defs>
</svg>
