<?xml version="1.0" encoding="utf-8" standalone="no"?>
<!DOCTYPE svg PUBLIC "-//W3C//DTD SVG 1.1//EN"
  "http://www.w3.org/Graphics/SVG/1.1/DTD/svg11.dtd">
<svg xmlns:xlink="http://www.w3.org/1999/xlink" width="379.567344pt" height="265.600613pt" viewBox="0 0 379.567344 265.600613" xmlns="http://www.w3.org/2000/svg" version="1.1">
 <metadata>
  <rdf:RDF xmlns:dc="http://purl.org/dc/elements/1.1/" xmlns:cc="http://creativecommons.org/ns#" xmlns:rdf="http://www.w3.org/1999/02/22-rdf-syntax-ns#">
   <cc:Work>
    <dc:type rdf:resource="http://purl.org/dc/dcmitype/StillImage"/>
    <dc:date>2025-07-17T18:20:28.916344</dc:date>
    <dc:format>image/svg+xml</dc:format>
    <dc:creator>
     <cc:Agent>
      <dc:title>Matplotlib v3.10.3, https://matplotlib.org/</dc:title>
     </cc:Agent>
    </dc:creator>
   </cc:Work>
  </rdf:RDF>
 </metadata>
 <defs>
  <style type="text/css">*{stroke-linejoin: round; stroke-linecap: butt}</style>
 </defs>
 <g id="figure_1">
  <g id="patch_1">
   <path d="M 0 265.600613 
L 379.567344 265.600613 
L 379.567344 0 
L 0 0 
z
" style="fill: #ffffff"/>
  </g>
  <g id="axes_1">
   <g id="patch_2">
    <path d="M 37.567344 228.96 
L 372.367344 228.96 
L 372.367344 7.2 
L 37.567344 7.2 
z
" style="fill: #ffffff"/>
   </g>
   <g id="matplotlib.axis_1">
    <g id="xtick_1">
     <g id="line2d_1">
      <defs>
       <path id="m3fec4dfef5" d="M 0 0 
L 0 3.5 
" style="stroke: #000000; stroke-width: 0.8"/>
      </defs>
      <g>
       <use xlink:href="#m3fec4dfef5" x="52.785526" y="228.96" style="stroke: #000000; stroke-width: 0.8"/>
      </g>
     </g>
     <g id="text_1">
      <!-- $\mathdefault{0}$ -->
      <g transform="translate(50.294859 243.05832) scale(0.1 -0.1)">
       <defs>
        <path id="CMR17-30" d="M 2688 2038 
C 2688 2430 2682 3099 2413 3613 
C 2176 4063 1798 4224 1466 4224 
C 1158 4224 768 4082 525 3620 
C 269 3137 243 2539 243 2038 
C 243 1671 250 1112 448 623 
C 723 -39 1216 -128 1466 -128 
C 1760 -128 2208 -7 2470 604 
C 2662 1048 2688 1568 2688 2038 
z
M 1466 -26 
C 1056 -26 813 328 723 816 
C 653 1196 653 1749 653 2109 
C 653 2604 653 3015 736 3407 
C 858 3954 1216 4121 1466 4121 
C 1728 4121 2067 3947 2189 3420 
C 2272 3054 2278 2623 2278 2109 
C 2278 1691 2278 1176 2202 797 
C 2067 96 1690 -26 1466 -26 
z
" transform="scale(0.015625)"/>
       </defs>
       <use xlink:href="#CMR17-30" transform="scale(0.996264)"/>
      </g>
     </g>
    </g>
    <g id="xtick_2">
     <g id="line2d_2">
      <g>
       <use xlink:href="#m3fec4dfef5" x="114.173916" y="228.96" style="stroke: #000000; stroke-width: 0.8"/>
      </g>
     </g>
     <g id="text_2">
      <!-- $\mathdefault{1000}$ -->
      <g transform="translate(104.211245 243.05832) scale(0.1 -0.1)">
       <defs>
        <path id="CMR17-31" d="M 1702 4083 
C 1702 4217 1696 4224 1606 4224 
C 1357 3927 979 3833 621 3820 
C 602 3820 570 3820 563 3808 
C 557 3795 557 3782 557 3648 
C 755 3648 1088 3686 1344 3839 
L 1344 467 
C 1344 243 1331 166 781 166 
L 589 166 
L 589 0 
C 896 6 1216 12 1523 12 
C 1830 12 2150 6 2458 0 
L 2458 166 
L 2266 166 
C 1715 166 1702 236 1702 467 
L 1702 4083 
z
" transform="scale(0.015625)"/>
       </defs>
       <use xlink:href="#CMR17-31" transform="scale(0.996264)"/>
       <use xlink:href="#CMR17-30" transform="translate(45.690477 0) scale(0.996264)"/>
       <use xlink:href="#CMR17-30" transform="translate(91.380954 0) scale(0.996264)"/>
       <use xlink:href="#CMR17-30" transform="translate(137.071431 0) scale(0.996264)"/>
      </g>
     </g>
    </g>
    <g id="xtick_3">
     <g id="line2d_3">
      <g>
       <use xlink:href="#m3fec4dfef5" x="175.562306" y="228.96" style="stroke: #000000; stroke-width: 0.8"/>
      </g>
     </g>
     <g id="text_3">
      <!-- $\mathdefault{2000}$ -->
      <g transform="translate(165.599635 243.05832) scale(0.1 -0.1)">
       <defs>
        <path id="CMR17-32" d="M 2669 990 
L 2554 990 
C 2490 537 2438 460 2413 422 
C 2381 371 1920 371 1830 371 
L 602 371 
C 832 620 1280 1073 1824 1596 
C 2214 1966 2669 2400 2669 3033 
C 2669 3788 2067 4224 1395 4224 
C 691 4224 262 3603 262 3027 
C 262 2777 448 2745 525 2745 
C 589 2745 781 2783 781 3007 
C 781 3206 614 3264 525 3264 
C 486 3264 448 3257 422 3244 
C 544 3788 915 4057 1306 4057 
C 1862 4057 2227 3616 2227 3033 
C 2227 2477 1901 1998 1536 1583 
L 262 147 
L 262 0 
L 2515 0 
L 2669 990 
z
" transform="scale(0.015625)"/>
       </defs>
       <use xlink:href="#CMR17-32" transform="scale(0.996264)"/>
       <use xlink:href="#CMR17-30" transform="translate(45.690477 0) scale(0.996264)"/>
       <use xlink:href="#CMR17-30" transform="translate(91.380954 0) scale(0.996264)"/>
       <use xlink:href="#CMR17-30" transform="translate(137.071431 0) scale(0.996264)"/>
      </g>
     </g>
    </g>
    <g id="xtick_4">
     <g id="line2d_4">
      <g>
       <use xlink:href="#m3fec4dfef5" x="236.950695" y="228.96" style="stroke: #000000; stroke-width: 0.8"/>
      </g>
     </g>
     <g id="text_4">
      <!-- $\mathdefault{3000}$ -->
      <g transform="translate(226.988025 243.05832) scale(0.1 -0.1)">
       <defs>
        <path id="CMR17-33" d="M 1414 2176 
C 1984 2176 2234 1673 2234 1094 
C 2234 322 1824 25 1453 25 
C 1114 25 563 193 390 691 
C 422 678 454 678 486 678 
C 640 678 755 780 755 947 
C 755 1132 614 1216 486 1216 
C 378 1216 211 1164 211 927 
C 211 335 787 -128 1466 -128 
C 2176 -128 2720 432 2720 1087 
C 2720 1718 2208 2176 1600 2246 
C 2086 2347 2554 2776 2554 3353 
C 2554 3856 2048 4224 1472 4224 
C 890 4224 378 3862 378 3347 
C 378 3123 544 3084 627 3084 
C 762 3084 877 3167 877 3334 
C 877 3500 762 3584 627 3584 
C 602 3584 570 3584 544 3571 
C 730 3999 1235 4076 1459 4076 
C 1683 4076 2106 3966 2106 3347 
C 2106 3167 2080 2851 1862 2574 
C 1670 2329 1453 2316 1242 2297 
C 1210 2297 1062 2284 1037 2284 
C 992 2278 966 2272 966 2227 
C 966 2182 973 2176 1101 2176 
L 1414 2176 
z
" transform="scale(0.015625)"/>
       </defs>
       <use xlink:href="#CMR17-33" transform="scale(0.996264)"/>
       <use xlink:href="#CMR17-30" transform="translate(45.690477 0) scale(0.996264)"/>
       <use xlink:href="#CMR17-30" transform="translate(91.380954 0) scale(0.996264)"/>
       <use xlink:href="#CMR17-30" transform="translate(137.071431 0) scale(0.996264)"/>
      </g>
     </g>
    </g>
    <g id="xtick_5">
     <g id="line2d_5">
      <g>
       <use xlink:href="#m3fec4dfef5" x="298.339085" y="228.96" style="stroke: #000000; stroke-width: 0.8"/>
      </g>
     </g>
     <g id="text_5">
      <!-- $\mathdefault{4000}$ -->
      <g transform="translate(288.376415 243.05832) scale(0.1 -0.1)">
       <defs>
        <path id="CMR17-34" d="M 2150 4147 
C 2150 4281 2144 4288 2029 4288 
L 128 1254 
L 128 1088 
L 1779 1088 
L 1779 460 
C 1779 230 1766 166 1318 166 
L 1197 166 
L 1197 0 
C 1402 12 1747 12 1965 12 
C 2182 12 2528 12 2733 0 
L 2733 166 
L 2611 166 
C 2163 166 2150 230 2150 460 
L 2150 1088 
L 2803 1088 
L 2803 1254 
L 2150 1254 
L 2150 4147 
z
M 1798 3723 
L 1798 1254 
L 256 1254 
L 1798 3723 
z
" transform="scale(0.015625)"/>
       </defs>
       <use xlink:href="#CMR17-34" transform="scale(0.996264)"/>
       <use xlink:href="#CMR17-30" transform="translate(45.690477 0) scale(0.996264)"/>
       <use xlink:href="#CMR17-30" transform="translate(91.380954 0) scale(0.996264)"/>
       <use xlink:href="#CMR17-30" transform="translate(137.071431 0) scale(0.996264)"/>
      </g>
     </g>
    </g>
    <g id="xtick_6">
     <g id="line2d_6">
      <g>
       <use xlink:href="#m3fec4dfef5" x="359.727475" y="228.96" style="stroke: #000000; stroke-width: 0.8"/>
      </g>
     </g>
     <g id="text_6">
      <!-- $\mathdefault{5000}$ -->
      <g transform="translate(349.764804 243.05832) scale(0.1 -0.1)">
       <defs>
        <path id="CMR17-35" d="M 730 3750 
C 794 3724 1056 3641 1325 3641 
C 1920 3641 2246 3961 2432 4140 
C 2432 4191 2432 4224 2394 4224 
C 2387 4224 2374 4224 2323 4198 
C 2099 4102 1837 4032 1517 4032 
C 1325 4032 1037 4055 723 4191 
C 653 4224 640 4224 634 4224 
C 602 4224 595 4217 595 4090 
L 595 2231 
C 595 2113 595 2080 659 2080 
C 691 2080 704 2093 736 2139 
C 941 2435 1222 2560 1542 2560 
C 1766 2560 2246 2415 2246 1293 
C 2246 1087 2246 716 2054 422 
C 1894 159 1645 25 1370 25 
C 947 25 518 319 403 812 
C 429 806 480 793 506 793 
C 589 793 749 838 749 1036 
C 749 1209 627 1280 506 1280 
C 358 1280 262 1190 262 1011 
C 262 454 704 -128 1382 -128 
C 2042 -128 2669 441 2669 1267 
C 2669 2054 2170 2662 1549 2662 
C 1222 2662 947 2540 730 2304 
L 730 3750 
z
" transform="scale(0.015625)"/>
       </defs>
       <use xlink:href="#CMR17-35" transform="scale(0.996264)"/>
       <use xlink:href="#CMR17-30" transform="translate(45.690477 0) scale(0.996264)"/>
       <use xlink:href="#CMR17-30" transform="translate(91.380954 0) scale(0.996264)"/>
       <use xlink:href="#CMR17-30" transform="translate(137.071431 0) scale(0.996264)"/>
      </g>
     </g>
    </g>
    <g id="text_7">
     <!-- Iteration -->
     <g transform="translate(187.019968 256.278627) scale(0.1 -0.1)">
      <defs>
       <path id="NimbusSanL-Regu-49" d="M 1242 4672 
L 640 4672 
L 640 0 
L 1242 0 
L 1242 4672 
z
" transform="scale(0.015625)"/>
       <path id="NimbusSanL-Regu-74" d="M 1626 3328 
L 1075 3328 
L 1075 4249 
L 544 4249 
L 544 3328 
L 90 3328 
L 90 2892 
L 544 2892 
L 544 402 
C 544 64 774 -128 1190 -128 
C 1318 -128 1446 -116 1626 -84 
L 1626 364 
C 1555 345 1472 339 1370 339 
C 1139 339 1075 402 1075 634 
L 1075 2892 
L 1626 2892 
L 1626 3328 
z
" transform="scale(0.015625)"/>
       <path id="NimbusSanL-Regu-65" d="M 3283 1484 
C 3283 1998 3245 2311 3149 2565 
C 2931 3123 2419 3456 1792 3456 
C 858 3456 256 2734 256 1619 
C 256 545 838 -128 1779 -128 
C 2547 -128 3078 307 3213 1018 
L 2675 1018 
C 2528 588 2227 364 1798 364 
C 1459 364 1171 514 992 787 
C 864 974 819 1161 813 1484 
L 3283 1484 
z
M 826 1920 
C 870 2552 1248 2963 1786 2963 
C 2310 2963 2714 2519 2714 1959 
C 2714 1946 2714 1933 2707 1920 
L 826 1920 
z
" transform="scale(0.015625)"/>
       <path id="NimbusSanL-Regu-72" d="M 442 3328 
L 442 0 
L 979 0 
L 979 1727 
C 979 2203 1101 2514 1357 2698 
C 1523 2819 1683 2857 2054 2863 
L 2054 3404 
C 1965 3449 1920 3456 1850 3456 
C 1504 3456 1242 3251 934 2750 
L 934 3328 
L 442 3328 
z
" transform="scale(0.015625)"/>
       <path id="NimbusSanL-Regu-61" d="M 3424 332 
C 3366 320 3341 320 3309 320 
C 3123 320 3021 415 3021 581 
L 3021 2542 
C 3021 3135 2586 3456 1760 3456 
C 1274 3456 870 3315 646 3065 
C 493 2893 429 2702 416 2370 
L 954 2370 
C 998 2778 1242 2963 1741 2963 
C 2221 2963 2490 2784 2490 2466 
L 2490 2326 
C 2490 2103 2355 2007 1933 1956 
C 1178 1861 1062 1835 858 1753 
C 467 1593 269 1294 269 861 
C 269 256 691 -128 1370 -128 
C 1792 -128 2131 19 2509 364 
C 2547 25 2714 -128 3059 -128 
C 3168 -128 3251 -116 3424 -71 
L 3424 332 
z
M 2490 1071 
C 2490 893 2438 785 2278 638 
C 2061 441 1798 339 1485 339 
C 1069 339 826 536 826 874 
C 826 1224 1062 1402 1632 1485 
C 2195 1562 2310 1587 2490 1670 
L 2490 1071 
z
" transform="scale(0.015625)"/>
       <path id="NimbusSanL-Regu-69" d="M 960 3358 
L 429 3358 
L 429 0 
L 960 0 
L 960 3358 
z
M 960 4672 
L 422 4672 
L 422 3999 
L 960 3999 
L 960 4672 
z
" transform="scale(0.015625)"/>
       <path id="NimbusSanL-Regu-6f" d="M 1741 3456 
C 800 3456 230 2784 230 1663 
C 230 543 794 -128 1747 -128 
C 2688 -128 3264 543 3264 1638 
C 3264 2791 2707 3456 1741 3456 
z
M 1747 2963 
C 2349 2963 2707 2472 2707 1644 
C 2707 861 2336 364 1747 364 
C 1152 364 787 855 787 1663 
C 787 2466 1152 2963 1747 2963 
z
" transform="scale(0.015625)"/>
       <path id="NimbusSanL-Regu-6e" d="M 448 3328 
L 448 0 
L 986 0 
L 986 1835 
C 986 2539 1344 2988 1894 2988 
C 2317 2988 2586 2732 2586 2328 
L 2586 0 
L 3117 0 
L 3117 2539 
C 3117 3097 2701 3456 2054 3456 
C 1555 3456 1235 3263 941 2796 
L 941 3328 
L 448 3328 
z
" transform="scale(0.015625)"/>
      </defs>
      <use xlink:href="#NimbusSanL-Regu-49" transform="scale(0.996264)"/>
      <use xlink:href="#NimbusSanL-Regu-74" transform="translate(27.69517 0) scale(0.996264)"/>
      <use xlink:href="#NimbusSanL-Regu-65" transform="translate(55.390339 0) scale(0.996264)"/>
      <use xlink:href="#NimbusSanL-Regu-72" transform="translate(110.782016 0) scale(0.996264)"/>
      <use xlink:href="#NimbusSanL-Regu-61" transform="translate(142.961149 0) scale(0.996264)"/>
      <use xlink:href="#NimbusSanL-Regu-74" transform="translate(198.352826 0) scale(0.996264)"/>
      <use xlink:href="#NimbusSanL-Regu-69" transform="translate(226.047996 0) scale(0.996264)"/>
      <use xlink:href="#NimbusSanL-Regu-6f" transform="translate(248.16478 0) scale(0.996264)"/>
      <use xlink:href="#NimbusSanL-Regu-6e" transform="translate(303.556457 0) scale(0.996264)"/>
     </g>
    </g>
   </g>
   <g id="matplotlib.axis_2">
    <g id="ytick_1">
     <g id="line2d_7">
      <defs>
       <path id="m72477f036b" d="M 0 0 
L -3.5 0 
" style="stroke: #000000; stroke-width: 0.8"/>
      </defs>
      <g>
       <use xlink:href="#m72477f036b" x="37.567344" y="195.998698" style="stroke: #000000; stroke-width: 0.8"/>
      </g>
     </g>
     <g id="text_8">
      <!-- $\mathdefault{5}$ -->
      <g transform="translate(25.586009 199.547858) scale(0.1 -0.1)">
       <use xlink:href="#CMR17-35" transform="scale(0.996264)"/>
      </g>
     </g>
    </g>
    <g id="ytick_2">
     <g id="line2d_8">
      <g>
       <use xlink:href="#m72477f036b" x="37.567344" y="159.891517" style="stroke: #000000; stroke-width: 0.8"/>
      </g>
     </g>
     <g id="text_9">
      <!-- $\mathdefault{10}$ -->
      <g transform="translate(20.604674 163.440677) scale(0.1 -0.1)">
       <use xlink:href="#CMR17-31" transform="scale(0.996264)"/>
       <use xlink:href="#CMR17-30" transform="translate(45.690477 0) scale(0.996264)"/>
      </g>
     </g>
    </g>
    <g id="ytick_3">
     <g id="line2d_9">
      <g>
       <use xlink:href="#m72477f036b" x="37.567344" y="123.784336" style="stroke: #000000; stroke-width: 0.8"/>
      </g>
     </g>
     <g id="text_10">
      <!-- $\mathdefault{15}$ -->
      <g transform="translate(20.604674 127.333496) scale(0.1 -0.1)">
       <use xlink:href="#CMR17-31" transform="scale(0.996264)"/>
       <use xlink:href="#CMR17-35" transform="translate(45.690477 0) scale(0.996264)"/>
      </g>
     </g>
    </g>
    <g id="ytick_4">
     <g id="line2d_10">
      <g>
       <use xlink:href="#m72477f036b" x="37.567344" y="87.677155" style="stroke: #000000; stroke-width: 0.8"/>
      </g>
     </g>
     <g id="text_11">
      <!-- $\mathdefault{20}$ -->
      <g transform="translate(20.604674 91.226315) scale(0.1 -0.1)">
       <use xlink:href="#CMR17-32" transform="scale(0.996264)"/>
       <use xlink:href="#CMR17-30" transform="translate(45.690477 0) scale(0.996264)"/>
      </g>
     </g>
    </g>
    <g id="ytick_5">
     <g id="line2d_11">
      <g>
       <use xlink:href="#m72477f036b" x="37.567344" y="51.569974" style="stroke: #000000; stroke-width: 0.8"/>
      </g>
     </g>
     <g id="text_12">
      <!-- $\mathdefault{25}$ -->
      <g transform="translate(20.604674 55.119134) scale(0.1 -0.1)">
       <use xlink:href="#CMR17-32" transform="scale(0.996264)"/>
       <use xlink:href="#CMR17-35" transform="translate(45.690477 0) scale(0.996264)"/>
      </g>
     </g>
    </g>
    <g id="ytick_6">
     <g id="line2d_12">
      <g>
       <use xlink:href="#m72477f036b" x="37.567344" y="15.462792" style="stroke: #000000; stroke-width: 0.8"/>
      </g>
     </g>
     <g id="text_13">
      <!-- $\mathdefault{30}$ -->
      <g transform="translate(20.604674 19.011953) scale(0.1 -0.1)">
       <use xlink:href="#CMR17-33" transform="scale(0.996264)"/>
       <use xlink:href="#CMR17-30" transform="translate(45.690477 0) scale(0.996264)"/>
      </g>
     </g>
    </g>
    <g id="text_14">
     <!-- Average CFL - Blade_1 -->
     <g transform="translate(14.482687 168.77932) rotate(-90) scale(0.1 -0.1)">
      <defs>
       <path id="NimbusSanL-Regu-41" d="M 3034 1408 
L 3514 0 
L 4179 0 
L 2541 4672 
L 1773 4672 
L 109 0 
L 742 0 
L 1235 1408 
L 3034 1408 
z
M 2867 1907 
L 1382 1907 
L 2150 4032 
L 2867 1907 
z
" transform="scale(0.015625)"/>
       <path id="NimbusSanL-Regu-76" d="M 1824 0 
L 3110 3328 
L 2509 3328 
L 1562 629 
L 666 3328 
L 64 3328 
L 1242 0 
L 1824 0 
z
" transform="scale(0.015625)"/>
       <path id="NimbusSanL-Regu-67" d="M 2637 3359 
L 2637 2873 
C 2368 3270 2042 3456 1613 3456 
C 762 3456 186 2714 186 1632 
C 186 1084 333 638 608 320 
C 858 38 1216 -128 1568 -128 
C 1990 -128 2285 51 2586 473 
L 2586 300 
C 2586 -155 2528 -441 2394 -634 
C 2253 -841 1978 -960 1651 -960 
C 1408 -960 1190 -894 1043 -774 
C 922 -674 870 -581 838 -375 
L 294 -375 
C 352 -1031 845 -1408 1632 -1408 
C 2131 -1408 2560 -1248 2778 -980 
C 3034 -661 3130 -222 3130 568 
L 3130 3359 
L 2637 3359 
z
M 1670 2963 
C 2246 2963 2586 2479 2586 1644 
C 2586 848 2240 364 1677 364 
C 1094 364 742 855 742 1663 
C 742 2466 1101 2963 1670 2963 
z
" transform="scale(0.015625)"/>
       <path id="NimbusSanL-Regu-43" d="M 4237 3219 
C 4051 4236 3462 4736 2438 4736 
C 1811 4736 1306 4537 960 4154 
C 538 3696 307 3035 307 2284 
C 307 1522 544 867 986 415 
C 1344 44 1805 -128 2413 -128 
C 3552 -128 4192 485 4333 1712 
L 3718 1712 
C 3667 1394 3603 1178 3507 994 
C 3315 612 2918 396 2419 396 
C 1491 396 902 1134 902 2291 
C 902 3480 1466 4211 2368 4211 
C 2746 4211 3098 4096 3290 3918 
C 3462 3759 3558 3562 3629 3219 
L 4237 3219 
z
" transform="scale(0.015625)"/>
       <path id="NimbusSanL-Regu-46" d="M 1171 2112 
L 3398 2112 
L 3398 2636 
L 1171 2636 
L 1171 4147 
L 3706 4147 
L 3706 4672 
L 576 4672 
L 576 0 
L 1171 0 
L 1171 2112 
z
" transform="scale(0.015625)"/>
       <path id="NimbusSanL-Regu-4c" d="M 1107 4672 
L 512 4672 
L 512 0 
L 3411 0 
L 3411 524 
L 1107 524 
L 1107 4672 
z
" transform="scale(0.015625)"/>
       <path id="NimbusSanL-Regu-2d" d="M 1818 1996 
L 294 1996 
L 294 1536 
L 1818 1536 
L 1818 1996 
z
" transform="scale(0.015625)"/>
       <path id="NimbusSanL-Regu-42" d="M 506 0 
L 2611 0 
C 3053 0 3379 121 3629 390 
C 3859 632 3987 961 3987 1321 
C 3987 1878 3731 2214 3136 2444 
C 3558 2643 3782 2994 3782 3476 
C 3782 3821 3654 4127 3411 4345 
C 3168 4569 2848 4672 2400 4672 
L 506 4672 
L 506 0 
z
M 1101 2636 
L 1101 4147 
L 2253 4147 
C 2586 4147 2771 4101 2931 3977 
C 3098 3847 3187 3652 3187 3391 
C 3187 3138 3098 2936 2931 2806 
C 2771 2682 2586 2636 2253 2636 
L 1101 2636 
z
M 1101 524 
L 1101 2112 
L 2554 2112 
C 2842 2112 3034 2042 3174 1890 
C 3315 1745 3392 1542 3392 1315 
C 3392 1093 3315 891 3174 746 
C 3034 594 2842 524 2554 524 
L 1101 524 
z
" transform="scale(0.015625)"/>
       <path id="NimbusSanL-Regu-6c" d="M 973 4672 
L 435 4672 
L 435 0 
L 973 0 
L 973 4672 
z
" transform="scale(0.015625)"/>
       <path id="NimbusSanL-Regu-64" d="M 3168 4672 
L 2637 4672 
L 2637 2937 
C 2413 3276 2054 3456 1606 3456 
C 736 3456 166 2759 166 1695 
C 166 568 723 -128 1626 -128 
C 2086 -128 2406 44 2694 460 
L 2694 19 
L 3168 19 
L 3168 4672 
z
M 1696 2956 
C 2272 2956 2637 2447 2637 1651 
C 2637 880 2266 371 1702 371 
C 1114 371 723 887 723 1663 
C 723 2440 1114 2956 1696 2956 
z
" transform="scale(0.015625)"/>
       <path id="NimbusSanL-Regu-31" d="M 1658 3232 
L 1658 0 
L 2221 0 
L 2221 4537 
L 1850 4537 
C 1651 3840 1523 3744 653 3635 
L 653 3232 
L 1658 3232 
z
" transform="scale(0.015625)"/>
      </defs>
      <use xlink:href="#NimbusSanL-Regu-41" transform="scale(0.996264)"/>
      <use xlink:href="#NimbusSanL-Regu-76" transform="translate(62.465918 0) scale(0.996264)"/>
      <use xlink:href="#NimbusSanL-Regu-65" transform="translate(109.788488 0) scale(0.996264)"/>
      <use xlink:href="#NimbusSanL-Regu-72" transform="translate(165.180165 0) scale(0.996264)"/>
      <use xlink:href="#NimbusSanL-Regu-61" transform="translate(197.359298 0) scale(0.996264)"/>
      <use xlink:href="#NimbusSanL-Regu-67" transform="translate(252.750975 0) scale(0.996264)"/>
      <use xlink:href="#NimbusSanL-Regu-65" transform="translate(308.142652 0) scale(0.996264)"/>
      <use xlink:href="#NimbusSanL-Regu-43" transform="translate(391.229499 0) scale(0.996264)"/>
      <use xlink:href="#NimbusSanL-Regu-46" transform="translate(463.159484 0) scale(0.996264)"/>
      <use xlink:href="#NimbusSanL-Regu-4c" transform="translate(524.031114 0) scale(0.996264)"/>
      <use xlink:href="#NimbusSanL-Regu-2d" transform="translate(607.117961 0) scale(0.996264)"/>
      <use xlink:href="#NimbusSanL-Regu-42" transform="translate(667.98836 0) scale(0.996264)"/>
      <use xlink:href="#NimbusSanL-Regu-6c" transform="translate(734.438391 0) scale(0.996264)"/>
      <use xlink:href="#NimbusSanL-Regu-61" transform="translate(756.555176 0) scale(0.996264)"/>
      <use xlink:href="#NimbusSanL-Regu-64" transform="translate(811.946853 0) scale(0.996264)"/>
      <use xlink:href="#NimbusSanL-Regu-65" transform="translate(867.33853 0) scale(0.996264)"/>
      <use xlink:href="#NimbusSanL-Regu-31" transform="translate(958.595772 0) scale(0.996264)"/>
      <path d="M 928.707548 0 
L 958.595772 0 
L 958.595772 0.3985 
L 928.707548 0.3985 
L 928.707548 0 
z
"/>
     </g>
    </g>
   </g>
   <g id="line2d_13">
    <path d="M 52.785526 129.15094 
L 52.908303 85.599268 
L 52.969691 217.455218 
L 53.03108 214.525086 
L 53.276633 195.650346 
L 53.522187 156.511686 
L 53.76774 75.422686 
L 53.829129 216.43756 
L 53.890517 213.303896 
L 54.136071 193.118087 
L 54.381624 151.260793 
L 54.627178 64.547909 
L 54.688566 215.350082 
L 54.749955 211.998923 
L 54.995508 190.412094 
L 55.241062 145.649647 
L 55.486615 52.95463 
L 55.548004 17.28 
L 55.609392 210.623291 
L 55.670781 206.326774 
L 55.916334 178.650326 
L 56.161888 121.260444 
L 56.284664 72.494435 
L 56.346053 216.144735 
L 56.407441 212.952506 
L 56.652995 192.389444 
L 56.898548 149.754695 
L 57.144102 61.654328 
L 57.20549 215.060724 
L 57.266879 211.651693 
L 57.512432 189.692079 
L 57.757986 144.203409 
L 58.064928 80.515544 
L 58.310481 80.515544 
L 58.37187 50.307862 
L 58.433258 213.926078 
L 58.494646 210.290117 
L 58.7402 186.868971 
L 58.985754 138.346319 
L 59.169919 70.225183 
L 59.231307 215.91781 
L 59.292696 212.680196 
L 59.538249 191.824782 
L 59.783803 148.605819 
L 60.029356 59.092018 
L 60.090745 214.804493 
L 60.152133 211.344216 
L 60.397687 189.054494 
L 60.64324 142.844345 
L 60.888794 47.162452 
L 60.950182 213.611537 
L 61.01157 209.912668 
L 61.257124 186.086036 
L 61.502678 136.687936 
L 61.809619 34.3711 
L 61.871008 212.332401 
L 61.932396 208.377706 
L 62.17795 182.904335 
L 62.423503 130.095717 
L 62.730445 55.839959 
L 62.791834 55.839959 
L 62.853222 214.479287 
L 62.914611 210.953969 
L 63.160164 188.245278 
L 63.405718 141.156536 
L 63.589883 74.945414 
L 63.651271 216.389833 
L 63.71266 213.246624 
L 63.958213 192.999326 
L 64.203767 151.014531 
L 64.44932 63.971546 
L 64.510709 215.292446 
L 64.572097 211.929759 
L 64.817651 190.268677 
L 65.063204 145.352256 
L 65.308758 52.229239 
L 65.370146 214.118215 
L 65.431534 210.520682 
L 65.677088 187.346815 
L 65.922642 139.293484 
L 66.229584 71.731802 
L 66.290972 216.068472 
L 66.35236 212.86099 
L 66.597914 192.199677 
L 66.843467 149.356378 
L 67.089021 60.520799 
L 67.150409 214.947371 
L 67.211798 211.51567 
L 67.457351 189.410021 
L 67.702905 143.571747 
L 67.948458 48.546371 
L 68.009847 213.749928 
L 68.071235 210.078738 
L 68.316789 186.4304 
L 68.562342 137.393205 
L 68.807896 35.714805 
L 68.869284 212.466772 
L 68.930673 208.53895 
L 69.176226 183.237496 
L 69.42178 130.772399 
L 69.728722 57.001625 
L 70.035664 57.001625 
L 70.097052 214.595454 
L 70.15844 211.093369 
L 70.403994 188.534338 
L 70.649548 141.75593 
L 70.895101 44.756225 
L 70.95649 213.370914 
L 71.017878 209.623921 
L 71.263432 185.48729 
L 71.508985 135.437573 
L 71.877315 31.654479 
L 71.938704 212.060739 
L 72.000092 208.051711 
L 72.245646 182.227156 
L 72.491199 128.67736 
L 72.675364 53.381397 
L 72.736753 214.233431 
L 72.798141 210.658941 
L 73.043695 187.633509 
L 73.289248 139.887972 
L 73.534802 40.882827 
L 73.59619 212.983574 
L 73.657579 209.159113 
L 73.903132 184.523465 
L 74.148686 133.438985 
L 74.332851 61.609485 
L 74.394239 215.05624 
L 74.455628 211.646312 
L 74.701181 189.680921 
L 74.946735 144.133485 
L 75.192288 49.686322 
L 75.253677 213.863924 
L 75.315065 210.215532 
L 75.560619 186.714056 
L 75.806172 137.981395 
L 76.113114 69.45877 
L 76.542833 69.45877 
L 76.604221 36.929348 
L 76.66561 212.588226 
L 76.726998 208.684696 
L 76.972552 183.539713 
L 77.218105 131.399076 
L 77.40227 58.084523 
L 77.463659 214.703744 
L 77.525047 211.223317 
L 77.770601 188.803797 
L 78.016154 142.314682 
L 78.261708 45.914853 
L 78.323096 213.486777 
L 78.384485 209.762956 
L 78.630038 185.775594 
L 78.875592 136.035399 
L 79.059757 66.09609 
L 79.121145 215.5049 
L 79.182534 212.184705 
L 79.428087 190.797331 
L 79.673641 146.448474 
L 79.919194 54.486684 
L 79.980583 214.34396 
L 80.041971 210.791576 
L 80.287525 187.90854 
L 80.533078 140.458276 
L 80.901409 42.065409 
L 80.962797 213.101832 
L 81.024185 209.301023 
L 81.269739 184.817729 
L 81.515293 134.049171 
L 81.699458 62.663887 
L 81.760846 215.16168 
L 81.822235 211.77284 
L 82.067788 189.943289 
L 82.313342 144.677533 
L 82.558895 50.822694 
L 82.620284 213.977561 
L 82.681672 210.351897 
L 82.927226 186.996822 
L 83.172779 138.567737 
L 83.356944 70.47197 
L 83.418333 215.942488 
L 83.479721 212.70981 
L 83.725275 191.88619 
L 83.970828 148.706332 
L 84.216382 59.168579 
L 84.27777 214.812149 
L 84.339159 211.353403 
L 84.584712 189.073545 
L 84.830266 142.874031 
L 85.075819 47.074718 
L 85.137208 213.602763 
L 85.198596 209.90214 
L 85.44415 186.064205 
L 85.689703 136.633864 
L 85.996645 67.130237 
L 87.101636 67.130237 
L 87.163024 215.608315 
L 87.224413 212.308802 
L 87.469966 191.05466 
L 87.71552 146.982072 
L 87.961074 55.593152 
L 88.022462 214.454607 
L 88.08385 210.924352 
L 88.329404 188.183864 
L 88.574957 141.029189 
L 88.759123 74.725359 
L 88.820511 216.367827 
L 88.881899 213.220217 
L 89.127453 192.94457 
L 89.373006 150.900987 
L 89.61856 63.719415 
L 89.679948 215.267233 
L 89.741337 211.899504 
L 89.98689 190.205939 
L 90.232444 145.222163 
L 90.416609 81.970817 
L 90.477998 217.092373 
L 90.539386 214.089672 
L 90.784939 194.747471 
L 91.030493 154.639485 
L 91.276047 71.471563 
L 91.337435 216.042448 
L 91.398823 212.829761 
L 91.644377 192.134921 
L 91.88993 149.222101 
L 92.258261 60.238076 
L 92.319649 214.919099 
L 92.381038 211.481743 
L 92.626591 189.33967 
L 92.872145 143.425868 
L 93.05631 78.866819 
L 93.117698 216.781973 
L 93.179087 213.717192 
L 93.42464 193.975098 
L 93.670194 153.03789 
L 93.915747 68.150497 
L 93.977136 215.710341 
L 94.038524 212.431233 
L 94.284078 191.308534 
L 94.529631 147.508503 
L 94.836573 56.684761 
L 94.897962 214.563767 
L 94.95935 211.055345 
L 95.204904 188.455491 
L 95.450457 141.592435 
L 95.634622 75.698648 
L 95.696011 216.465156 
L 95.757399 213.337012 
L 96.002953 193.186755 
L 96.248506 151.403183 
L 96.49406 64.760769 
L 96.555448 215.371368 
L 96.616836 212.024466 
L 96.86239 190.465061 
L 97.107944 145.759478 
L 97.414886 82.899298 
L 98.028769 82.899298 
L 98.090158 217.185221 
L 98.151546 214.20109 
L 98.3971 194.978507 
L 98.642653 155.118561 
L 98.888207 72.464975 
L 98.949595 216.141789 
L 99.010984 212.948971 
L 99.256537 192.382114 
L 99.502091 149.734679 
L 99.809033 61.300959 
L 99.870421 215.025387 
L 99.93181 211.609289 
L 100.177363 189.604149 
L 100.422917 143.974292 
L 100.607082 79.814497 
L 100.66847 216.876741 
L 100.729859 213.830913 
L 100.975412 194.21091 
L 101.220966 153.526871 
L 101.466519 69.164447 
L 101.527908 215.811736 
L 101.589296 212.552907 
L 101.83485 191.560837 
L 102.080403 148.031679 
L 102.387345 57.769618 
L 102.448734 214.672253 
L 102.510122 211.185528 
L 102.755675 188.725439 
L 103.001229 142.152198 
L 103.185394 76.665918 
L 103.246783 216.561883 
L 103.308171 213.453084 
L 103.553725 193.427443 
L 103.799278 151.902273 
L 104.044832 65.795682 
L 104.10622 215.47486 
L 104.167608 212.148656 
L 104.413162 190.72258 
L 104.658716 146.293471 
L 104.904269 54.165269 
L 104.965657 214.311818 
L 105.027046 210.753006 
L 105.272599 187.828561 
L 105.518153 140.292433 
L 105.825095 41.721516 
L 105.886483 213.067443 
L 105.947872 209.259756 
L 106.193425 184.732157 
L 106.438979 133.87173 
L 106.623144 62.357269 
L 106.684532 215.131018 
L 106.745921 211.736046 
L 106.991474 189.866993 
L 107.237028 144.519325 
L 107.482581 50.507846 
L 107.54397 213.946076 
L 107.605358 210.314115 
L 107.850912 186.918477 
L 108.096465 138.405283 
L 108.280631 70.191248 
L 108.342019 215.914416 
L 108.403407 212.676124 
L 108.648961 191.816338 
L 108.894514 148.561486 
L 109.140068 58.871373 
L 109.201456 214.782429 
L 109.262845 211.317739 
L 109.508398 188.999591 
L 109.753952 142.720679 
L 109.938117 77.648253 
L 109.999505 216.660117 
L 110.060894 213.570964 
L 110.306447 193.671879 
L 110.552001 152.409137 
L 110.797555 66.85347 
L 110.858943 215.580638 
L 110.920331 212.27559 
L 111.165885 190.985792 
L 111.411438 146.839266 
L 111.71838 55.302049 
L 111.779769 214.425496 
L 111.841157 210.88942 
L 112.086711 188.111429 
L 112.332264 140.878987 
L 112.516429 74.465809 
L 112.577818 216.341872 
L 112.639206 213.189071 
L 112.88476 192.879985 
L 113.130313 150.767065 
L 113.437255 63.441715 
L 113.498644 215.239463 
L 113.560032 211.86618 
L 113.805586 190.136838 
L 114.051139 145.078875 
L 114.235304 81.723216 
L 114.296693 217.067613 
L 114.358081 214.05996 
L 114.603635 194.68586 
L 114.849188 154.511728 
L 115.094742 71.206647 
L 115.15613 216.015956 
L 115.217519 212.797971 
L 115.463072 192.069002 
L 115.708626 149.08541 
L 115.954179 59.954634 
L 116.015568 214.890755 
L 116.076956 211.44773 
L 116.32251 189.269141 
L 116.568063 143.279618 
L 116.875005 47.915744 
L 116.936393 213.686866 
L 116.997782 210.003063 
L 117.243335 186.273479 
L 117.488889 137.067815 
L 117.673054 67.880104 
L 117.734443 215.683302 
L 117.795831 212.398786 
L 118.041385 191.241251 
L 118.286938 147.368986 
L 118.532492 56.395857 
L 118.59388 214.534877 
L 118.655268 211.020677 
L 118.900822 188.383603 
L 119.146376 141.443367 
L 119.514706 44.108095 
L 119.576094 213.306101 
L 119.637483 209.546145 
L 119.883036 185.326015 
L 120.12859 135.103152 
L 120.312755 64.485166 
L 120.374143 215.343808 
L 120.435532 211.991394 
L 120.681085 190.396482 
L 120.926639 145.617273 
L 121.172192 52.763105 
L 121.233581 214.171602 
L 121.294969 210.584746 
L 121.540523 187.479658 
L 121.786076 139.568947 
L 121.970241 72.202061 
L 122.03163 216.115497 
L 122.093018 212.917421 
L 122.338572 192.316692 
L 122.584125 149.599021 
L 122.829679 61.019658 
L 122.891067 214.997257 
L 122.952456 211.575533 
L 123.198009 189.534153 
L 123.443563 143.829147 
L 123.811893 49.055247 
L 123.873282 213.800816 
L 123.93467 210.139803 
L 124.180223 186.557024 
L 124.425777 137.655774 
L 124.609942 68.896097 
L 124.671331 215.784901 
L 124.732719 212.520705 
L 124.978273 191.494063 
L 125.223826 147.893217 
L 125.46938 57.482502 
L 125.530768 214.643542 
L 125.592156 211.151074 
L 125.83771 188.653995 
L 126.083264 142.004052 
L 126.390206 45.27073 
L 126.451594 213.422364 
L 126.512982 209.685661 
L 126.758536 185.615316 
L 127.004089 135.703046 
L 127.188255 65.521784 
L 127.249643 215.44747 
L 127.311031 212.115788 
L 127.556585 190.654426 
L 127.802138 146.152145 
L 128.047692 53.872216 
L 128.10908 214.282513 
L 128.170469 210.71784 
L 128.416022 187.75564 
L 128.661576 140.141224 
L 128.968518 41.40797 
L 129.029906 213.036088 
L 129.091295 209.22213 
L 129.336848 184.654137 
L 129.582402 133.709947 
L 129.889344 62.077708 
L 130.319062 62.077708 
L 130.380451 28.072073 
L 130.441839 211.702499 
L 130.503228 207.621823 
L 130.748781 181.335739 
L 130.994335 126.828917 
L 131.1785 50.187288 
L 131.239888 213.91402 
L 131.301277 210.275648 
L 131.54683 186.838712 
L 131.792384 138.239882 
L 132.037937 37.465348 
L 132.099326 212.641826 
L 132.160714 208.749016 
L 132.406268 183.673087 
L 132.651821 131.67564 
L 133.020152 23.853736 
L 133.08154 211.280665 
L 133.142928 207.115622 
L 133.388482 180.286082 
L 133.634035 124.652347 
L 133.818201 46.426176 
L 133.879589 213.537909 
L 133.940977 209.824315 
L 134.186531 185.902827 
L 134.432085 136.299231 
L 134.800415 33.441213 
L 134.861803 212.239413 
L 134.923192 208.266119 
L 135.168745 182.671753 
L 135.414299 129.599275 
L 135.598464 54.974467 
L 135.659852 214.392738 
L 135.721241 210.85011 
L 135.966794 188.029916 
L 136.212348 140.709961 
L 136.457901 42.587304 
L 136.51929 213.154022 
L 136.580678 209.36365 
L 136.826232 184.947593 
L 137.071785 134.318457 
L 137.25595 63.129214 
L 137.317339 215.208213 
L 137.378727 211.828679 
L 137.624281 190.059078 
L 137.869834 144.917631 
L 138.176776 51.312329 
L 138.238165 214.026524 
L 138.299553 210.410653 
L 138.545107 187.118658 
L 138.79066 138.820378 
L 138.974825 70.908533 
L 139.036214 215.986145 
L 139.097602 212.762198 
L 139.343156 191.994821 
L 139.588709 148.93159 
L 139.834263 59.635672 
L 139.895651 214.858859 
L 139.95704 211.409454 
L 140.202593 189.189773 
L 140.448147 143.115041 
L 140.6937 47.574476 
L 140.755089 213.652739 
L 140.816477 209.962111 
L 141.062031 186.188561 
L 141.307584 136.891728 
L 141.614526 67.575827 
L 141.737303 67.575827 
L 141.798691 215.652874 
L 141.86008 212.362273 
L 142.105633 191.165537 
L 142.351187 147.211986 
L 142.658129 85.409232 
L 142.719517 85.409232 
L 142.780906 56.069902 
L 142.842294 214.502282 
L 142.903682 210.981562 
L 143.149236 188.302495 
L 143.394789 141.275182 
L 143.578955 75.150434 
L 143.640343 216.410335 
L 143.701731 213.271226 
L 143.947285 193.050342 
L 144.192839 151.120317 
L 144.438392 64.174217 
L 144.49978 215.312713 
L 144.561169 211.95408 
L 144.806722 190.319108 
L 145.052276 145.45683 
L 145.359218 52.430411 
L 145.420606 214.138332 
L 145.481995 210.544823 
L 145.727548 187.396873 
L 145.973102 139.397284 
L 146.157267 71.905427 
L 146.218655 216.085834 
L 146.280044 212.881825 
L 146.525597 192.24288 
L 146.771151 149.445965 
L 147.139481 60.70228 
L 147.20087 214.965519 
L 147.262258 211.537447 
L 147.507812 189.455179 
L 147.753365 143.665387 
L 147.93753 79.280709 
L 147.998919 216.823362 
L 148.060307 213.766859 
L 148.305861 194.078086 
L 148.551414 153.251448 
L 148.796968 68.593331 
L 148.858356 215.754624 
L 148.919745 212.484373 
L 149.165298 191.418725 
L 149.410852 147.736996 
L 149.656405 57.158562 
L 149.717794 214.611148 
L 149.779182 211.112201 
L 150.024736 188.573389 
L 150.270289 141.836906 
L 150.638619 44.924137 
L 150.700008 213.387705 
L 150.761396 209.64407 
L 151.00695 185.529072 
L 151.252503 135.524212 
L 151.436669 65.212758 
L 151.498057 215.416567 
L 151.559445 212.078705 
L 151.804999 190.57753 
L 152.050552 145.992694 
L 152.418883 53.541579 
L 152.480271 214.249449 
L 152.54166 210.678163 
L 152.787213 187.673367 
L 153.032767 139.970623 
L 153.216932 72.896156 
L 153.27832 216.184907 
L 153.339709 213.000712 
L 153.585262 192.489405 
L 153.830816 149.957159 
L 154.076369 61.762293 
L 154.137758 215.071521 
L 154.199146 211.664649 
L 154.4447 189.718944 
L 154.690253 144.21233 
L 154.935807 49.849816 
L 154.997195 213.880273 
L 155.058584 210.235152 
L 155.304137 186.754739 
L 155.549691 138.065754 
L 155.856633 69.604542 
L 155.979409 69.604542 
L 156.040798 215.855746 
L 156.102186 212.605719 
L 156.34774 191.670347 
L 156.593293 148.258759 
L 156.838847 58.24049 
L 156.900235 214.71934 
L 156.961624 211.242033 
L 157.207177 188.842607 
L 157.452731 142.395157 
L 157.636896 77.085752 
L 157.698284 216.603867 
L 157.759673 213.503464 
L 158.005226 193.531911 
L 158.25078 152.118899 
L 158.496333 66.244876 
L 158.557722 215.519779 
L 158.61911 212.202559 
L 158.864664 190.834354 
L 159.110217 146.525245 
L 159.417159 54.645875 
L 159.478548 214.359879 
L 159.539936 210.810679 
L 159.78549 187.948152 
L 160.031043 140.540415 
L 160.215208 73.880757 
L 160.276597 216.283367 
L 160.337985 213.118865 
L 160.583539 192.734406 
L 160.829092 150.465192 
L 161.074646 62.81575 
L 161.136034 215.176866 
L 161.197422 211.791064 
L 161.442976 189.981078 
L 161.68853 144.755891 
L 161.872695 81.165099 
L 161.934083 217.011801 
L 161.995472 213.992986 
L 162.241025 194.546983 
L 162.486579 154.223752 
L 162.732132 70.6095 
L 162.793521 215.956241 
L 162.854909 212.726314 
L 163.100463 191.920412 
L 163.346016 148.777295 
L 163.59157 59.315727 
L 163.652958 214.826864 
L 163.714346 211.371061 
L 163.9599 189.11016 
L 164.205454 142.949956 
L 164.451007 47.232157 
L 164.512396 213.618507 
L 164.573784 209.921033 
L 164.819337 186.103381 
L 165.064891 136.715099 
L 165.249056 67.270611 
L 165.310445 215.622352 
L 165.371833 212.325647 
L 165.617387 191.08959 
L 165.86294 147.054502 
L 166.169882 55.743342 
L 166.23127 214.469626 
L 166.292659 210.942375 
L 166.538212 188.221237 
L 166.783766 141.106684 
L 166.967931 74.85927 
L 167.02932 216.381218 
L 167.090708 213.236286 
L 167.336261 192.977891 
L 167.581815 150.970083 
L 167.888757 63.862691 
L 167.950145 215.281561 
L 168.011534 211.916697 
L 168.257087 190.24159 
L 168.502641 145.29609 
L 168.809583 52.0971 
L 168.870971 214.105001 
L 168.93236 210.504826 
L 169.177913 187.313935 
L 169.423467 139.225303 
L 169.607632 71.608243 
L 169.66902 216.056116 
L 169.730409 212.846163 
L 169.975962 192.168932 
L 170.221516 149.292624 
L 170.528458 60.384314 
L 170.589846 214.933723 
L 170.651235 211.499291 
L 170.896788 189.376059 
L 171.142342 143.501323 
L 171.326507 78.997207 
L 171.387895 216.795012 
L 171.449284 213.732839 
L 171.694837 194.007542 
L 171.940391 153.105167 
L 172.185944 68.290003 
L 172.247333 215.724292 
L 172.308721 212.447974 
L 172.554275 191.343247 
L 172.799828 147.580485 
L 173.045382 56.834022 
L 173.10677 214.578694 
L 173.168158 211.073256 
L 173.413712 188.492633 
L 173.659266 141.669451 
L 173.966208 75.831731 
L 174.27315 75.831731 
L 174.334538 216.478464 
L 174.395926 213.352981 
L 174.64148 193.21987 
L 174.887033 151.471851 
L 175.193975 64.903159 
L 175.255364 215.385607 
L 175.316752 212.041553 
L 175.562306 190.500492 
L 175.807859 145.832948 
L 175.992024 83.026254 
L 176.053413 217.197917 
L 176.114801 214.216324 
L 176.360355 195.010098 
L 176.605908 155.184067 
L 176.851462 72.60081 
L 176.91285 216.155372 
L 176.974239 212.965271 
L 177.219792 192.415914 
L 177.465346 149.804767 
L 177.710899 61.446293 
L 177.772288 215.039921 
L 177.833676 211.626729 
L 178.07923 189.640313 
L 178.324783 144.049281 
L 178.631725 49.511717 
L 178.693114 213.846463 
L 178.754502 210.19458 
L 179.000056 186.670609 
L 179.245609 137.891302 
L 179.429774 69.30309 
L 179.491163 215.8256 
L 179.552551 212.569545 
L 179.798105 191.595336 
L 180.043658 148.103216 
L 180.3506 86.949277 
L 180.534765 86.949277 
L 180.596154 57.917957 
L 180.657542 214.687087 
L 180.71893 211.203329 
L 180.964484 188.76235 
L 181.210038 142.228737 
L 181.394203 76.798178 
L 181.455591 216.575109 
L 181.516979 213.468955 
L 181.762533 193.460353 
L 182.008087 151.970517 
L 182.25364 65.937192 
L 182.315029 215.489011 
L 182.376417 212.165637 
L 182.621971 190.757792 
L 182.867524 146.366486 
L 183.113078 54.316674 
L 183.174466 214.326959 
L 183.235854 210.771175 
L 183.481408 187.866236 
L 183.726962 140.370554 
L 183.911127 73.587238 
L 183.972515 216.254015 
L 184.033903 213.083642 
L 184.279457 192.661369 
L 184.525011 150.313742 
L 184.831953 90.769066 
L 185.200283 90.769066 
L 185.261671 62.501704 
L 185.32306 215.145462 
L 185.384448 211.753378 
L 185.630002 189.902933 
L 185.875555 144.59385 
L 186.05972 80.885093 
L 186.121109 216.983801 
L 186.182497 213.959385 
L 186.428051 194.477309 
L 186.673604 154.079275 
L 186.919158 70.309913 
L 186.980546 215.926283 
L 187.041935 212.690363 
L 187.287488 191.845865 
L 187.533042 148.622714 
L 187.778595 58.995188 
L 187.839984 214.79481 
L 187.901372 211.332596 
L 188.146926 189.0304 
L 188.392479 142.784565 
L 188.576644 77.758648 
L 188.638033 216.671156 
L 188.699421 213.584212 
L 188.944975 193.699349 
L 189.190528 152.466098 
L 189.436082 66.964829 
L 189.49747 215.591774 
L 189.558859 212.288953 
L 189.804412 191.013502 
L 190.049966 146.896725 
L 190.356908 84.86446 
L 190.418296 84.86446 
L 190.479684 55.416177 
L 190.541073 214.436909 
L 190.602461 210.903115 
L 190.848015 188.139827 
L 191.093568 140.937874 
L 191.277733 74.567566 
L 191.339122 216.352048 
L 191.40051 213.201282 
L 191.646064 192.905306 
L 191.891617 150.81957 
L 192.137171 63.550588 
L 192.198559 215.25035 
L 192.259948 211.879244 
L 192.505501 190.163929 
L 192.751055 145.135051 
L 192.93522 81.820288 
L 192.996608 217.07732 
L 193.057997 214.071608 
L 193.30355 194.710015 
L 193.549104 154.561815 
L 193.794657 71.310508 
L 193.856046 216.026342 
L 193.917434 212.810435 
L 194.162988 192.094846 
L 194.408541 149.139 
L 194.592707 88.739111 
L 194.654095 217.769203 
L 194.715483 214.901867 
L 194.961037 196.43164 
L 195.20659 158.131776 
L 195.452144 78.713179 
L 195.513532 216.766609 
L 195.574921 213.698755 
L 195.820474 193.936867 
L 196.066028 152.958615 
L 196.311581 67.986112 
L 196.37297 215.693903 
L 196.434358 212.411507 
L 196.679912 191.267629 
L 196.925465 147.423684 
L 197.232407 56.50888 
L 197.293796 214.546179 
L 197.355184 211.034239 
L 197.600738 188.411727 
L 197.846291 141.501685 
L 198.030456 75.541831 
L 198.091845 216.449474 
L 198.153233 213.318193 
L 198.398787 193.147734 
L 198.64434 151.322269 
L 198.951282 64.592985 
L 199.012671 215.35459 
L 199.074059 212.004332 
L 199.319613 190.423311 
L 199.565166 145.672905 
L 199.749331 82.7497 
L 199.81072 217.170261 
L 199.872108 214.183138 
L 200.117662 194.941283 
L 200.363215 155.041372 
L 200.608769 72.304916 
L 200.670157 216.125783 
L 200.731545 212.929764 
L 200.977099 192.342286 
L 201.222653 149.652092 
L 201.529595 61.129706 
L 201.590983 215.008262 
L 201.652371 211.588739 
L 201.897925 189.561536 
L 202.143478 143.88593 
L 202.327644 79.661806 
L 202.389032 216.861472 
L 202.45042 213.812591 
L 202.695974 194.172916 
L 202.941528 153.448086 
L 203.187081 69.001079 
L 203.248469 215.795399 
L 203.309858 212.533303 
L 203.555411 191.520186 
L 203.800965 147.947385 
L 203.98513 86.680001 
L 204.046519 217.563291 
L 204.107907 214.654774 
L 204.35346 195.919267 
L 204.599014 157.06932 
L 204.844568 76.510071 
L 204.905956 216.546298 
L 204.967344 213.434382 
L 205.212898 193.388663 
L 205.458452 151.82186 
L 205.826782 65.628936 
L 205.88817 215.458185 
L 205.949559 212.128646 
L 206.195112 190.681089 
L 206.440666 146.207433 
L 206.624831 83.673365 
L 206.686219 217.262628 
L 206.747608 214.293978 
L 206.993161 195.17112 
L 207.238715 155.517962 
L 207.484268 73.293174 
L 207.545657 216.224609 
L 207.607045 213.048355 
L 207.852599 192.588196 
L 208.098152 150.162012 
L 208.405094 62.187075 
L 208.466483 215.113999 
L 208.527871 211.715623 
L 208.773425 189.824643 
L 209.018978 144.431509 
L 209.203143 80.604567 
L 209.264532 216.955748 
L 209.32592 213.925722 
L 209.571474 194.407505 
L 209.817027 153.93453 
L 210.123969 97.025787 
L 210.185358 97.025787 
L 210.246746 70.009769 
L 210.308134 215.896268 
L 210.369523 212.654346 
L 210.615076 191.77118 
L 210.86063 148.467847 
L 211.044795 87.579359 
L 211.106183 217.653227 
L 211.167572 214.762697 
L 211.413125 196.143056 
L 211.658679 157.533369 
L 211.904232 77.472323 
L 211.965621 216.642524 
L 212.027009 213.549853 
L 212.272563 193.628102 
L 212.518116 152.318361 
L 212.825058 66.658481 
L 212.886447 215.561139 
L 212.947835 212.252191 
L 213.193389 190.937272 
L 213.438942 146.738656 
L 213.623107 84.591317 
L 213.684496 217.354423 
L 213.745884 214.404132 
L 213.991438 195.399536 
L 214.236991 155.991605 
L 214.605322 74.27532 
L 214.66671 216.322823 
L 214.728098 213.166212 
L 214.973652 192.832586 
L 215.219205 150.668778 
L 215.403371 91.382568 
L 215.464759 218.033548 
L 215.526147 215.219082 
L 215.771701 197.089416 
L 216.017255 159.495741 
L 216.262808 81.541497 
L 216.324196 217.049441 
L 216.385585 214.038153 
L 216.631138 194.640643 
L 216.876692 154.417965 
L 217.122246 71.012221 
L 217.183634 215.996513 
L 217.245022 212.77464 
L 217.490576 192.020622 
L 217.736129 148.98509 
L 218.043071 88.473155 
L 218.350013 88.473155 
L 218.411402 217.742607 
L 218.47279 214.869952 
L 218.718344 196.365461 
L 218.963897 157.994549 
L 219.209451 78.428624 
L 219.270839 216.738154 
L 219.332228 213.664609 
L 219.577781 193.866061 
L 219.823335 152.811791 
L 220.0075 95.085695 
L 220.068888 218.403861 
L 220.130277 215.663457 
L 220.37583 198.010873 
L 220.621384 161.406474 
L 220.866937 85.503592 
L 220.928326 217.445651 
L 220.989714 214.513605 
L 221.235268 195.626539 
L 221.480821 156.462319 
L 221.726375 75.251393 
L 221.787763 216.420431 
L 221.849152 213.283341 
L 222.094705 193.075464 
L 222.340259 151.17241 
L 222.524424 92.252844 
L 222.585812 218.120576 
L 222.647201 215.323515 
L 222.892754 197.305969 
L 223.138308 159.944785 
L 223.383861 82.472634 
L 223.44525 217.142555 
L 223.506638 214.14989 
L 223.752192 194.872339 
L 223.997745 154.898411 
L 224.304687 98.691374 
L 225.225513 98.691374 
L 225.286901 72.008473 
L 225.34829 216.096139 
L 225.409678 212.894191 
L 225.655232 192.268522 
L 225.900785 149.499134 
L 226.08495 89.361424 
L 226.146339 217.831434 
L 226.207727 214.976545 
L 226.453281 196.586491 
L 226.698834 158.452876 
L 226.944388 79.379011 
L 227.005776 216.833192 
L 227.067165 213.778655 
L 227.312718 194.102547 
L 227.558272 153.30217 
L 227.865214 68.698508 
L 227.926602 215.765142 
L 227.987991 212.496995 
L 228.233544 191.444896 
L 228.479098 147.791265 
L 228.663263 86.410225 
L 228.724651 217.536314 
L 228.78604 214.622401 
L 229.031593 195.852138 
L 229.277147 156.930122 
L 229.584089 76.221429 
L 229.645477 216.517434 
L 229.706865 213.399745 
L 229.952419 193.31684 
L 230.197973 151.672927 
L 230.382138 93.117737 
L 230.443526 218.207065 
L 230.504915 215.427302 
L 230.750468 197.521182 
L 230.996022 160.391051 
L 231.241575 83.398011 
L 231.302964 217.235093 
L 231.364352 214.260935 
L 231.609906 195.102603 
L 231.855459 155.375886 
L 232.162401 72.998565 
L 232.223789 216.195148 
L 232.285178 213.013002 
L 232.530731 192.514888 
L 232.776285 150.01 
L 232.96045 90.244199 
L 233.021838 217.919711 
L 233.083227 215.082478 
L 233.32878 196.806154 
L 233.574334 158.908368 
L 233.819888 80.323521 
L 233.881276 216.927643 
L 233.942664 213.891996 
L 234.188218 194.337571 
L 234.433771 153.789516 
L 234.617937 96.775204 
L 234.679325 218.572812 
L 234.740713 215.866198 
L 234.986267 198.431277 
L 235.231821 162.278223 
L 235.477374 87.311252 
L 235.538762 217.626417 
L 235.600151 214.730524 
L 235.845704 196.076343 
L 236.091258 157.395032 
L 236.336812 77.185466 
L 236.3982 216.613838 
L 236.459588 213.51543 
L 236.705142 193.556723 
L 236.950695 152.170349 
L 237.319026 66.351563 
L 237.380414 215.530448 
L 237.441803 212.215361 
L 237.687356 190.860901 
L 237.93291 146.580293 
L 238.117075 84.317666 
L 238.178463 217.327058 
L 238.239852 214.371294 
L 238.485405 195.331443 
L 238.730959 155.850408 
L 238.976512 73.982533 
L 239.037901 216.293545 
L 239.099289 213.131078 
L 239.344843 192.759731 
L 239.590396 150.517706 
L 239.774561 91.121515 
L 239.83595 218.007443 
L 239.897338 215.187756 
L 240.142892 197.024458 
L 240.388445 159.361044 
L 240.633999 81.262189 
L 240.695387 217.02151 
L 240.756776 214.004636 
L 241.002329 194.571142 
L 241.247883 154.273848 
L 241.432048 97.61213 
L 241.493436 218.656504 
L 241.554825 215.966629 
L 241.800378 198.639531 
L 242.045932 162.710059 
L 242.291485 88.206706 
L 242.352874 217.715962 
L 242.414262 214.837979 
L 242.659816 196.29916 
L 242.905369 157.857067 
L 243.150923 78.143541 
L 243.212311 216.709645 
L 243.2737 213.630399 
L 243.519253 193.795123 
L 243.764807 152.664695 
L 243.948972 94.831512 
L 244.01036 218.378443 
L 244.071749 215.632955 
L 244.317302 197.947624 
L 244.562856 161.275321 
L 244.808409 85.231634 
L 244.869798 217.418455 
L 244.931186 214.48097 
L 245.17674 195.558867 
L 245.422293 156.321995 
L 245.729235 101.151327 
L 245.974789 101.151327 
L 246.036177 74.960416 
L 246.097566 216.391333 
L 246.158954 213.248424 
L 246.404507 193.003059 
L 246.650061 151.022272 
L 246.834226 91.993406 
L 246.895615 218.094632 
L 246.957003 215.292382 
L 247.202557 197.241412 
L 247.44811 159.810921 
L 247.693664 82.195053 
L 247.755052 217.114797 
L 247.81644 214.11658 
L 248.061994 194.803269 
L 248.307548 154.755186 
L 248.553101 71.711481 
L 248.614489 216.066439 
L 248.675878 212.858551 
L 248.921431 192.19462 
L 249.166985 149.345893 
L 249.35115 89.096622 
L 249.412539 217.804954 
L 249.473927 214.944768 
L 249.719481 196.5206 
L 249.965034 158.316244 
L 250.210588 79.095691 
L 250.271976 216.804861 
L 250.333364 213.744657 
L 250.578918 194.032048 
L 250.824472 153.155983 
L 251.008637 95.680459 
L 251.070025 218.463337 
L 251.131413 215.734829 
L 251.376967 198.158869 
L 251.622521 161.713359 
L 251.868074 86.139949 
L 251.929463 217.509286 
L 251.990851 214.589968 
L 252.236404 195.784885 
L 252.481958 156.790665 
L 252.7889 101.96119 
L 252.850288 101.96119 
L 252.911677 75.932252 
L 252.973065 216.488517 
L 253.034454 213.365044 
L 253.280007 193.244883 
L 253.525561 151.523718 
L 253.709726 92.859904 
L 253.771114 218.181282 
L 253.832503 215.396362 
L 254.078056 197.457025 
L 254.32361 160.258015 
L 254.569163 83.122147 
L 254.630552 217.207506 
L 254.69194 214.227831 
L 254.937494 195.033959 
L 255.183047 155.233546 
L 255.367212 99.270487 
L 255.428601 218.82234 
L 255.489989 216.165632 
L 255.735543 199.052183 
L 255.981096 163.565735 
L 256.22665 89.981035 
L 256.288038 217.893395 
L 256.349427 215.050898 
L 256.59498 196.74067 
L 256.840534 158.772582 
L 257.147476 80.041953 
L 257.208864 216.899487 
L 257.270252 213.858208 
L 257.515806 194.267508 
L 257.76136 153.644233 
L 257.945525 96.524155 
L 258.006913 218.547707 
L 258.068302 215.836072 
L 258.313855 198.368808 
L 258.559409 162.148688 
L 258.804962 87.042647 
L 258.866351 217.599556 
L 258.927739 214.698291 
L 259.173293 196.009505 
L 259.418846 157.256438 
L 259.6644 76.898077 
L 259.725788 216.585099 
L 259.787176 213.480943 
L 260.03273 193.485211 
L 260.278284 152.022062 
L 260.585225 66.044077 
L 260.646614 215.499699 
L 260.708002 212.178463 
L 260.953556 190.784389 
L 261.199109 146.421637 
L 261.383275 84.043508 
L 261.444663 217.299642 
L 261.506051 214.338395 
L 261.751605 195.263223 
L 261.997158 155.708948 
L 262.365489 73.689202 
L 262.426877 216.264212 
L 262.488266 213.095878 
L 262.733819 192.686741 
L 262.979373 150.366354 
L 263.163538 90.859979 
L 263.224926 217.981289 
L 263.286315 215.156371 
L 263.531868 196.959379 
L 263.777422 159.226097 
L 264.022975 80.982363 
L 264.084364 216.993528 
L 264.145752 213.971057 
L 264.391306 194.501512 
L 264.636859 154.129464 
L 264.821024 97.362634 
L 264.882413 218.631555 
L 264.943801 215.93669 
L 265.189355 198.577448 
L 265.434908 162.581324 
L 265.680462 87.939762 
L 265.74185 217.689268 
L 265.803239 214.805945 
L 266.048792 196.232736 
L 266.294346 157.71933 
L 266.662676 77.85793 
L 266.724064 216.681084 
L 266.785453 213.596125 
L 267.031006 193.724053 
L 267.27656 152.517325 
L 267.460725 94.576858 
L 267.522114 218.352977 
L 267.583502 215.602397 
L 267.829055 197.884258 
L 268.074609 161.143925 
L 268.320163 84.959171 
L 268.381551 217.391208 
L 268.442939 214.448274 
L 268.688493 195.49107 
L 268.934046 156.18141 
L 269.302377 74.6689 
L 269.363765 216.362181 
L 269.425154 213.213442 
L 269.670707 192.930521 
L 269.916261 150.871856 
L 270.100426 91.733487 
L 270.161814 218.06864 
L 270.223203 215.261192 
L 270.468756 197.176736 
L 270.71431 159.676808 
L 270.959863 81.916957 
L 271.021252 217.086987 
L 271.08264 214.083209 
L 271.328194 194.734069 
L 271.573747 154.611694 
L 271.819301 71.413937 
L 271.880689 216.036685 
L 271.942078 212.822846 
L 272.187631 192.120582 
L 272.433185 149.192367 
L 272.61735 88.83133 
L 272.678738 217.778424 
L 272.740127 214.912933 
L 272.98568 196.454587 
L 273.231234 158.179359 
L 273.538176 78.811846 
L 273.599564 216.776476 
L 273.660953 213.710595 
L 273.906506 193.961418 
L 274.15206 153.009525 
L 274.336225 95.427379 
L 274.397613 218.438029 
L 274.459002 215.704459 
L 274.704555 198.095895 
L 274.950109 161.582776 
L 275.195662 85.869171 
L 275.257051 217.482208 
L 275.318439 214.557474 
L 275.563993 195.717507 
L 275.809546 156.65095 
L 276.177876 75.642538 
L 276.239265 216.459545 
L 276.300653 213.330278 
L 276.546207 193.172793 
L 276.79176 151.374232 
L 276.975926 92.601592 
L 277.037314 218.155451 
L 277.098702 215.365365 
L 277.344256 197.392749 
L 277.589809 160.124732 
L 277.835363 82.845771 
L 277.896751 217.179868 
L 277.95814 214.194666 
L 278.203693 194.965188 
L 278.449247 155.090942 
L 278.633412 99.024068 
L 278.6948 218.797698 
L 278.756189 216.136062 
L 279.001742 198.990866 
L 279.247296 163.438588 
L 279.49285 89.717383 
L 279.554238 217.86703 
L 279.615626 215.01926 
L 279.86118 196.675065 
L 280.106733 158.636543 
L 280.352287 79.759863 
L 280.413675 216.871278 
L 280.475064 213.824357 
L 280.720617 194.197315 
L 280.966171 153.498681 
L 281.273113 69.105993 
L 281.334501 215.805891 
L 281.39589 212.545893 
L 281.641443 191.546292 
L 281.886997 148.001518 
L 282.071162 86.773544 
L 282.13255 217.572646 
L 282.193939 214.665999 
L 282.439492 195.942544 
L 282.685046 157.117586 
L 282.930599 76.610155 
L 282.991988 216.556307 
L 283.053376 213.446392 
L 283.29893 193.413567 
L 283.544483 151.873501 
L 283.851425 93.46433 
L 284.03559 93.46433 
L 284.096979 218.241724 
L 284.158367 215.468893 
L 284.403921 197.607425 
L 284.649474 160.569885 
L 284.895028 83.768841 
L 284.956416 217.272176 
L 285.017805 214.305435 
L 285.263358 195.194877 
L 285.508912 155.567226 
L 285.693077 99.847086 
L 285.754465 218.88 
L 285.815854 216.234824 
L 286.061407 199.195659 
L 286.306961 163.863247 
L 286.552514 90.597957 
L 286.613903 217.955087 
L 286.675291 215.124929 
L 286.920845 196.89418 
L 287.166398 159.0909 
L 287.411952 80.702018 
L 287.47334 216.965493 
L 287.534729 213.937416 
L 287.780282 194.431754 
L 288.025836 153.984812 
L 288.210001 97.112675 
L 288.271389 218.606559 
L 288.332778 215.906695 
L 288.578331 198.51525 
L 288.823885 162.452351 
L 289.069438 87.672323 
L 289.130827 217.662524 
L 289.192215 214.773853 
L 289.437769 196.166189 
L 289.683322 157.581337 
L 289.990264 103.32747 
L 290.113041 103.32747 
L 290.174429 77.571788 
L 290.235818 216.65247 
L 290.297206 213.561788 
L 290.54276 193.652852 
L 290.788313 152.369683 
L 290.972478 94.321731 
L 291.033867 218.327465 
L 291.095255 215.571782 
L 291.340809 197.820774 
L 291.586362 161.012285 
L 291.831916 84.686203 
L 291.893304 217.363912 
L 291.954693 214.415518 
L 292.200246 195.423146 
L 292.4458 156.040564 
L 292.691353 74.376842 
L 292.752742 216.332976 
L 292.81413 213.178395 
L 293.059684 192.857848 
L 293.305237 150.721161 
L 293.612179 63.346527 
L 293.673568 215.229944 
L 293.734956 211.854757 
L 293.98051 190.113152 
L 294.226063 145.02976 
L 294.410228 81.638345 
L 294.471617 217.059126 
L 294.533005 214.049775 
L 294.778559 194.664742 
L 295.024112 154.467937 
L 295.331054 71.115842 
L 295.392442 216.006876 
L 295.453831 212.787075 
L 295.699384 192.046406 
L 295.944938 149.038556 
L 296.129103 88.565545 
L 296.190492 217.751846 
L 296.25188 214.881039 
L 296.497433 196.388451 
L 296.742987 158.042219 
L 297.049929 78.527474 
L 297.111317 216.748039 
L 297.172706 213.676471 
L 297.418259 193.890658 
L 297.663813 152.862796 
L 297.847978 95.173831 
L 297.909366 218.412674 
L 297.970755 215.674033 
L 298.216308 198.032804 
L 298.461862 161.45195 
L 298.707416 85.597891 
L 298.768804 217.455081 
L 298.830192 214.524921 
L 299.075746 195.650004 
L 299.321299 156.510976 
L 299.68963 75.352287 
L 299.751018 216.43052 
L 299.812407 213.295448 
L 300.05796 193.100569 
L 300.303514 151.224469 
L 300.487679 92.342802 
L 300.549067 218.129572 
L 300.610456 215.33431 
L 300.856009 197.328353 
L 301.101563 159.991201 
L 301.347116 82.568883 
L 301.408505 217.15218 
L 301.469893 214.16144 
L 301.715447 194.896289 
L 301.961 154.948074 
L 302.267942 72.111453 
L 302.329331 216.106437 
L 302.390719 212.906548 
L 302.636272 192.294146 
L 302.881826 149.55227 
L 303.188768 60.922715 
L 303.250156 214.987563 
L 303.311545 211.5639 
L 303.557098 189.51003 
L 303.802652 143.779126 
L 303.986817 79.47725 
L 304.048205 216.843016 
L 304.109594 213.790444 
L 304.355147 194.126992 
L 304.600701 153.352859 
L 304.846255 68.803617 
L 304.907643 215.775653 
L 304.969031 212.509608 
L 305.214585 191.471051 
L 305.460138 147.845499 
L 305.644304 86.503941 
L 305.705692 217.545686 
L 305.76708 214.633647 
L 306.012634 195.875458 
L 306.258187 156.978478 
L 306.565129 76.321699 
L 306.626518 216.527461 
L 306.687906 213.411778 
L 306.93346 193.34179 
L 307.179013 151.724664 
L 307.363178 93.207139 
L 307.424567 218.216005 
L 307.485955 215.438031 
L 307.731509 197.543428 
L 307.977062 160.43718 
L 308.222616 83.493665 
L 308.284004 217.244658 
L 308.345393 214.272414 
L 308.590946 195.126405 
L 308.8365 155.425241 
L 309.143442 73.100908 
L 309.20483 216.205382 
L 309.266219 213.025283 
L 309.511772 192.540354 
L 309.757326 150.062807 
L 309.941491 90.33545 
L 310.002879 217.928836 
L 310.064268 215.093428 
L 310.309821 196.82886 
L 310.555375 158.955451 
L 310.800928 80.421152 
L 310.862317 216.937407 
L 310.923705 213.903712 
L 311.169259 194.361865 
L 311.414812 153.839892 
L 311.598977 96.862253 
L 311.660366 218.581517 
L 311.721754 215.876644 
L 311.967308 198.452937 
L 312.212861 162.323139 
L 312.458415 87.404388 
L 312.519803 217.63573 
L 312.581192 214.7417 
L 312.826745 196.099518 
L 313.072299 157.443088 
L 313.317852 77.285116 
L 313.379241 216.623803 
L 313.440629 213.527388 
L 313.686183 193.581519 
L 313.931736 152.221766 
L 314.17729 66.458182 
L 314.238678 215.54111 
L 314.300067 212.228156 
L 314.54562 190.887431 
L 314.791174 146.635306 
L 315.098116 54.874098 
L 315.159504 214.382701 
L 315.220892 210.838066 
L 315.466446 188.004941 
L 315.711999 140.658173 
L 315.896165 74.084243 
L 315.957553 216.303716 
L 316.018941 213.143283 
L 316.264495 192.78504 
L 316.510049 150.570186 
L 316.694214 91.212201 
L 316.755602 218.016511 
L 316.816991 215.198638 
L 317.062544 197.047024 
L 317.308098 159.407836 
L 317.553651 81.359217 
L 317.61504 217.031213 
L 317.676428 214.01628 
L 317.921982 194.595286 
L 318.167535 154.323913 
L 318.474477 97.698641 
L 318.535865 97.698641 
L 318.597254 70.817193 
L 318.658642 215.977011 
L 318.720031 212.751237 
L 318.965584 191.972093 
L 319.211138 148.88446 
L 319.395303 88.299267 
L 319.456691 217.725218 
L 319.51808 214.849086 
L 319.763633 196.322192 
L 320.009187 157.904826 
L 320.25474 78.242575 
L 320.316129 216.719549 
L 320.377517 213.642283 
L 320.623071 193.819766 
L 320.868624 152.715794 
L 321.052789 94.919812 
L 321.114178 218.387273 
L 321.175566 215.643551 
L 321.42112 197.969596 
L 321.666673 161.320882 
L 321.912227 85.326108 
L 321.973615 217.427902 
L 322.035004 214.492307 
L 322.280557 195.582375 
L 322.526111 156.370741 
L 322.833053 75.061497 
L 322.894441 216.401441 
L 322.955829 213.260553 
L 323.201383 193.028212 
L 323.446937 151.074428 
L 323.753879 64.079061 
L 323.815267 215.303197 
L 323.876655 211.942661 
L 324.122209 190.29543 
L 324.367762 145.407732 
L 324.736093 52.328601 
L 324.797481 214.128151 
L 324.85887 210.532606 
L 325.104423 187.371539 
L 325.349977 139.344752 
L 325.534142 71.814652 
L 325.59553 216.076757 
L 325.656919 212.870932 
L 325.902472 192.220293 
L 326.148026 149.399127 
L 326.454968 89.188611 
L 326.639133 89.188611 
L 326.700521 217.814152 
L 326.76191 214.955807 
L 327.007463 196.54349 
L 327.253017 158.363708 
L 327.49857 79.194113 
L 327.559959 216.814703 
L 327.621347 213.756467 
L 327.866901 194.056539 
L 328.112454 153.206766 
L 328.296619 95.768212 
L 328.358008 218.472113 
L 328.419396 215.745359 
L 328.66495 198.180705 
L 328.910503 161.758638 
L 329.156057 86.233839 
L 329.217445 217.518675 
L 329.278834 214.601234 
L 329.524387 195.808248 
L 329.769941 156.839111 
L 330.015494 76.032708 
L 330.076883 216.498562 
L 330.138271 213.377099 
L 330.383825 193.26988 
L 330.629378 151.575551 
L 330.813543 92.949472 
L 330.874932 218.190239 
L 330.93632 215.40711 
L 331.181874 197.479312 
L 331.427427 160.30423 
L 331.672981 83.217978 
L 331.734369 217.217089 
L 331.795758 214.239331 
L 332.041311 195.057805 
L 332.286865 155.282993 
L 332.593807 99.355931 
L 332.716583 99.355931 
L 332.777972 72.805942 
L 332.83936 216.175886 
L 332.900749 212.989887 
L 333.146302 192.466957 
L 333.391856 149.91061 
L 333.760186 61.66577 
L 333.821574 215.061868 
L 333.882963 211.653066 
L 334.128516 189.694926 
L 334.37407 144.162527 
L 334.681012 80.139766 
L 335.233507 80.139766 
L 335.294896 216.909268 
L 335.356284 213.869946 
L 335.601838 194.291847 
L 335.847391 153.694703 
L 336.154333 69.512463 
L 336.215722 215.846538 
L 336.27711 212.594669 
L 336.522664 191.647434 
L 336.768217 148.211248 
L 336.952382 87.135956 
L 337.013771 217.608887 
L 337.075159 214.709489 
L 337.320713 196.032723 
L 337.566266 157.304583 
L 337.81182 76.997912 
L 337.873208 216.595083 
L 337.934597 213.492923 
L 338.18015 193.510054 
L 338.425704 152.073575 
L 338.609869 93.810058 
L 338.671257 218.276297 
L 338.732646 215.510381 
L 338.978199 197.693453 
L 339.223753 160.748273 
L 339.469306 84.138747 
L 339.530695 217.309166 
L 339.592083 214.349823 
L 339.837637 195.286922 
L 340.08319 155.758089 
L 340.390132 73.791101 
L 340.451521 216.274401 
L 340.512909 213.108106 
L 340.758463 192.712096 
L 341.004016 150.418931 
L 341.188181 90.950833 
L 341.24957 217.990375 
L 341.310958 215.167274 
L 341.556512 196.981987 
L 341.802065 159.272976 
L 342.047619 81.079571 
L 342.109007 217.003248 
L 342.170395 213.982722 
L 342.415949 194.525701 
L 342.661503 154.179621 
L 342.968445 70.517991 
L 343.029833 215.94709 
L 343.091221 212.715333 
L 343.336775 191.897642 
L 343.582328 148.730078 
L 343.88927 59.217818 
L 343.950659 214.817073 
L 344.012047 211.359312 
L 344.257601 189.085797 
L 344.503154 142.899437 
L 344.687319 77.957147 
L 344.748708 216.691006 
L 344.810096 213.608031 
L 345.05565 193.748742 
L 345.301203 152.568519 
L 345.546757 67.17721 
L 345.608145 215.613012 
L 345.669534 212.314439 
L 345.915087 191.066349 
L 346.160641 147.006308 
L 346.344806 85.053821 
L 346.406194 217.400673 
L 346.467583 214.459632 
L 346.713136 195.514621 
L 346.95869 156.230247 
L 347.265632 74.770168 
L 347.32702 216.372308 
L 347.388409 213.225594 
L 347.633962 192.95572 
L 347.879516 150.924108 
L 348.063681 91.823779 
L 348.125069 218.077669 
L 348.186458 215.272027 
L 348.432011 197.199204 
L 348.677565 159.723397 
L 348.923118 82.013563 
L 348.984507 217.096648 
L 349.045895 214.094801 
L 349.291449 194.758108 
L 349.537002 154.661541 
L 349.843944 71.5173 
L 349.905333 216.047021 
L 349.966721 212.83525 
L 350.212275 192.146302 
L 350.457828 149.245699 
L 350.641993 88.923489 
L 350.703382 217.78764 
L 350.76477 214.923992 
L 351.010324 196.477519 
L 351.255877 158.226911 
L 351.562819 78.91045 
L 351.624207 216.786336 
L 351.685596 213.722428 
L 351.931149 193.985954 
L 352.176703 153.060403 
L 352.360868 95.515296 
L 352.422257 218.446821 
L 352.483645 215.715009 
L 352.729199 198.117771 
L 352.974752 161.628138 
L 353.220306 85.963236 
L 353.281694 217.491615 
L 353.343082 214.568762 
L 353.588636 195.740913 
L 353.83419 156.699485 
L 354.079743 75.74318 
L 354.141131 216.469609 
L 354.20252 213.342355 
L 354.448073 193.197836 
L 354.693627 151.426161 
L 354.939181 64.808416 
L 355.000569 215.376133 
L 355.061957 212.030184 
L 355.307511 190.476917 
L 355.553064 145.784063 
L 355.73723 82.94178 
L 355.798618 217.189469 
L 355.860006 214.206187 
L 356.10556 194.989078 
L 356.351113 155.140481 
L 356.596667 72.510428 
L 356.658055 216.146334 
L 356.719444 212.954425 
L 356.964997 192.393424 
L 357.149163 163.482757 
L 357.149163 163.482757 
" clip-path="url(#pcfcfbf16c6)" style="fill: none; stroke: #1f77b4; stroke-width: 1.5; stroke-linecap: square"/>
   </g>
   <g id="patch_3">
    <path d="M 37.567344 228.96 
L 37.567344 7.2 
" style="fill: none; stroke: #000000; stroke-width: 0.8; stroke-linejoin: miter; stroke-linecap: square"/>
   </g>
   <g id="patch_4">
    <path d="M 372.367344 228.96 
L 372.367344 7.2 
" style="fill: none; stroke: #000000; stroke-width: 0.8; stroke-linejoin: miter; stroke-linecap: square"/>
   </g>
   <g id="patch_5">
    <path d="M 37.567344 228.96 
L 372.367344 228.96 
" style="fill: none; stroke: #000000; stroke-width: 0.8; stroke-linejoin: miter; stroke-linecap: square"/>
   </g>
   <g id="patch_6">
    <path d="M 37.567344 7.2 
L 372.367344 7.2 
" style="fill: none; stroke: #000000; stroke-width: 0.8; stroke-linejoin: miter; stroke-linecap: square"/>
   </g>
   <g id="legend_1">
    <g id="patch_7">
     <path d="M 314.548024 29.420307 
L 365.367344 29.420307 
Q 367.367344 29.420307 367.367344 27.420307 
L 367.367344 14.2 
Q 367.367344 12.2 365.367344 12.2 
L 314.548024 12.2 
Q 312.548024 12.2 312.548024 14.2 
L 312.548024 27.420307 
Q 312.548024 29.420307 314.548024 29.420307 
z
" style="fill: #ffffff; opacity: 0.8; stroke: #cccccc; stroke-linejoin: miter"/>
    </g>
    <g id="line2d_14">
     <path d="M 316.548024 19.79832 
L 326.548024 19.79832 
L 336.548024 19.79832 
" style="fill: none; stroke: #1f77b4; stroke-width: 1.5; stroke-linecap: square"/>
    </g>
    <g id="text_15">
     <!-- CFL -->
     <g transform="translate(344.548024 23.29832) scale(0.1 -0.1)">
      <use xlink:href="#NimbusSanL-Regu-43" transform="scale(0.996264)"/>
      <use xlink:href="#NimbusSanL-Regu-46" transform="translate(71.929985 0) scale(0.996264)"/>
      <use xlink:href="#NimbusSanL-Regu-4c" transform="translate(132.801616 0) scale(0.996264)"/>
     </g>
    </g>
   </g>
  </g>
 </g>
 <defs>
  <clipPath id="pcfcfbf16c6">
   <rect x="37.567344" y="7.2" width="334.8" height="221.76"/>
  </clipPath>
 </defs>
</svg>
