<?xml version="1.0" encoding="utf-8" standalone="no"?>
<!DOCTYPE svg PUBLIC "-//W3C//DTD SVG 1.1//EN"
  "http://www.w3.org/Graphics/SVG/1.1/DTD/svg11.dtd">
<svg xmlns:xlink="http://www.w3.org/1999/xlink" width="382.334753pt" height="265.600613pt" viewBox="0 0 382.334753 265.600613" xmlns="http://www.w3.org/2000/svg" version="1.1">
 <metadata>
  <rdf:RDF xmlns:dc="http://purl.org/dc/elements/1.1/" xmlns:cc="http://creativecommons.org/ns#" xmlns:rdf="http://www.w3.org/1999/02/22-rdf-syntax-ns#">
   <cc:Work>
    <dc:type rdf:resource="http://purl.org/dc/dcmitype/StillImage"/>
    <dc:date>2025-07-17T12:48:40.722554</dc:date>
    <dc:format>image/svg+xml</dc:format>
    <dc:creator>
     <cc:Agent>
      <dc:title>Matplotlib v3.10.3, https://matplotlib.org/</dc:title>
     </cc:Agent>
    </dc:creator>
   </cc:Work>
  </rdf:RDF>
 </metadata>
 <defs>
  <style type="text/css">*{stroke-linejoin: round; stroke-linecap: butt}</style>
 </defs>
 <g id="figure_1">
  <g id="patch_1">
   <path d="M 0 265.600613 
L 382.334753 265.600613 
L 382.334753 0 
L 0 0 
z
" style="fill: #ffffff"/>
  </g>
  <g id="axes_1">
   <g id="patch_2">
    <path d="M 40.334753 228.96 
L 375.134753 228.96 
L 375.134753 7.2 
L 40.334753 7.2 
z
" style="fill: #ffffff"/>
   </g>
   <g id="matplotlib.axis_1">
    <g id="xtick_1">
     <g id="line2d_1">
      <defs>
       <path id="m5355792f08" d="M 0 0 
L 0 3.5 
" style="stroke: #000000; stroke-width: 0.8"/>
      </defs>
      <g>
       <use xlink:href="#m5355792f08" x="55.552935" y="228.96" style="stroke: #000000; stroke-width: 0.8"/>
      </g>
     </g>
     <g id="text_1">
      <!-- $\mathdefault{0}$ -->
      <g transform="translate(53.062267 243.05832) scale(0.1 -0.1)">
       <defs>
        <path id="CMR17-30" d="M 2688 2038 
C 2688 2430 2682 3099 2413 3613 
C 2176 4063 1798 4224 1466 4224 
C 1158 4224 768 4082 525 3620 
C 269 3137 243 2539 243 2038 
C 243 1671 250 1112 448 623 
C 723 -39 1216 -128 1466 -128 
C 1760 -128 2208 -7 2470 604 
C 2662 1048 2688 1568 2688 2038 
z
M 1466 -26 
C 1056 -26 813 328 723 816 
C 653 1196 653 1749 653 2109 
C 653 2604 653 3015 736 3407 
C 858 3954 1216 4121 1466 4121 
C 1728 4121 2067 3947 2189 3420 
C 2272 3054 2278 2623 2278 2109 
C 2278 1691 2278 1176 2202 797 
C 2067 96 1690 -26 1466 -26 
z
" transform="scale(0.015625)"/>
       </defs>
       <use xlink:href="#CMR17-30" transform="scale(0.996264)"/>
      </g>
     </g>
    </g>
    <g id="xtick_2">
     <g id="line2d_2">
      <g>
       <use xlink:href="#m5355792f08" x="102.873152" y="228.96" style="stroke: #000000; stroke-width: 0.8"/>
      </g>
     </g>
     <g id="text_2">
      <!-- $\mathdefault{500}$ -->
      <g transform="translate(95.401149 243.05832) scale(0.1 -0.1)">
       <defs>
        <path id="CMR17-35" d="M 730 3750 
C 794 3724 1056 3641 1325 3641 
C 1920 3641 2246 3961 2432 4140 
C 2432 4191 2432 4224 2394 4224 
C 2387 4224 2374 4224 2323 4198 
C 2099 4102 1837 4032 1517 4032 
C 1325 4032 1037 4055 723 4191 
C 653 4224 640 4224 634 4224 
C 602 4224 595 4217 595 4090 
L 595 2231 
C 595 2113 595 2080 659 2080 
C 691 2080 704 2093 736 2139 
C 941 2435 1222 2560 1542 2560 
C 1766 2560 2246 2415 2246 1293 
C 2246 1087 2246 716 2054 422 
C 1894 159 1645 25 1370 25 
C 947 25 518 319 403 812 
C 429 806 480 793 506 793 
C 589 793 749 838 749 1036 
C 749 1209 627 1280 506 1280 
C 358 1280 262 1190 262 1011 
C 262 454 704 -128 1382 -128 
C 2042 -128 2669 441 2669 1267 
C 2669 2054 2170 2662 1549 2662 
C 1222 2662 947 2540 730 2304 
L 730 3750 
z
" transform="scale(0.015625)"/>
       </defs>
       <use xlink:href="#CMR17-35" transform="scale(0.996264)"/>
       <use xlink:href="#CMR17-30" transform="translate(45.690477 0) scale(0.996264)"/>
       <use xlink:href="#CMR17-30" transform="translate(91.380954 0) scale(0.996264)"/>
      </g>
     </g>
    </g>
    <g id="xtick_3">
     <g id="line2d_3">
      <g>
       <use xlink:href="#m5355792f08" x="150.193369" y="228.96" style="stroke: #000000; stroke-width: 0.8"/>
      </g>
     </g>
     <g id="text_3">
      <!-- $\mathdefault{1000}$ -->
      <g transform="translate(140.230698 243.05832) scale(0.1 -0.1)">
       <defs>
        <path id="CMR17-31" d="M 1702 4083 
C 1702 4217 1696 4224 1606 4224 
C 1357 3927 979 3833 621 3820 
C 602 3820 570 3820 563 3808 
C 557 3795 557 3782 557 3648 
C 755 3648 1088 3686 1344 3839 
L 1344 467 
C 1344 243 1331 166 781 166 
L 589 166 
L 589 0 
C 896 6 1216 12 1523 12 
C 1830 12 2150 6 2458 0 
L 2458 166 
L 2266 166 
C 1715 166 1702 236 1702 467 
L 1702 4083 
z
" transform="scale(0.015625)"/>
       </defs>
       <use xlink:href="#CMR17-31" transform="scale(0.996264)"/>
       <use xlink:href="#CMR17-30" transform="translate(45.690477 0) scale(0.996264)"/>
       <use xlink:href="#CMR17-30" transform="translate(91.380954 0) scale(0.996264)"/>
       <use xlink:href="#CMR17-30" transform="translate(137.071431 0) scale(0.996264)"/>
      </g>
     </g>
    </g>
    <g id="xtick_4">
     <g id="line2d_4">
      <g>
       <use xlink:href="#m5355792f08" x="197.513586" y="228.96" style="stroke: #000000; stroke-width: 0.8"/>
      </g>
     </g>
     <g id="text_4">
      <!-- $\mathdefault{1500}$ -->
      <g transform="translate(187.550915 243.05832) scale(0.1 -0.1)">
       <use xlink:href="#CMR17-31" transform="scale(0.996264)"/>
       <use xlink:href="#CMR17-35" transform="translate(45.690477 0) scale(0.996264)"/>
       <use xlink:href="#CMR17-30" transform="translate(91.380954 0) scale(0.996264)"/>
       <use xlink:href="#CMR17-30" transform="translate(137.071431 0) scale(0.996264)"/>
      </g>
     </g>
    </g>
    <g id="xtick_5">
     <g id="line2d_5">
      <g>
       <use xlink:href="#m5355792f08" x="244.833803" y="228.96" style="stroke: #000000; stroke-width: 0.8"/>
      </g>
     </g>
     <g id="text_5">
      <!-- $\mathdefault{2000}$ -->
      <g transform="translate(234.871133 243.05832) scale(0.1 -0.1)">
       <defs>
        <path id="CMR17-32" d="M 2669 990 
L 2554 990 
C 2490 537 2438 460 2413 422 
C 2381 371 1920 371 1830 371 
L 602 371 
C 832 620 1280 1073 1824 1596 
C 2214 1966 2669 2400 2669 3033 
C 2669 3788 2067 4224 1395 4224 
C 691 4224 262 3603 262 3027 
C 262 2777 448 2745 525 2745 
C 589 2745 781 2783 781 3007 
C 781 3206 614 3264 525 3264 
C 486 3264 448 3257 422 3244 
C 544 3788 915 4057 1306 4057 
C 1862 4057 2227 3616 2227 3033 
C 2227 2477 1901 1998 1536 1583 
L 262 147 
L 262 0 
L 2515 0 
L 2669 990 
z
" transform="scale(0.015625)"/>
       </defs>
       <use xlink:href="#CMR17-32" transform="scale(0.996264)"/>
       <use xlink:href="#CMR17-30" transform="translate(45.690477 0) scale(0.996264)"/>
       <use xlink:href="#CMR17-30" transform="translate(91.380954 0) scale(0.996264)"/>
       <use xlink:href="#CMR17-30" transform="translate(137.071431 0) scale(0.996264)"/>
      </g>
     </g>
    </g>
    <g id="xtick_6">
     <g id="line2d_6">
      <g>
       <use xlink:href="#m5355792f08" x="292.15402" y="228.96" style="stroke: #000000; stroke-width: 0.8"/>
      </g>
     </g>
     <g id="text_6">
      <!-- $\mathdefault{2500}$ -->
      <g transform="translate(282.19135 243.05832) scale(0.1 -0.1)">
       <use xlink:href="#CMR17-32" transform="scale(0.996264)"/>
       <use xlink:href="#CMR17-35" transform="translate(45.690477 0) scale(0.996264)"/>
       <use xlink:href="#CMR17-30" transform="translate(91.380954 0) scale(0.996264)"/>
       <use xlink:href="#CMR17-30" transform="translate(137.071431 0) scale(0.996264)"/>
      </g>
     </g>
    </g>
    <g id="xtick_7">
     <g id="line2d_7">
      <g>
       <use xlink:href="#m5355792f08" x="339.474237" y="228.96" style="stroke: #000000; stroke-width: 0.8"/>
      </g>
     </g>
     <g id="text_7">
      <!-- $\mathdefault{3000}$ -->
      <g transform="translate(329.511567 243.05832) scale(0.1 -0.1)">
       <defs>
        <path id="CMR17-33" d="M 1414 2176 
C 1984 2176 2234 1673 2234 1094 
C 2234 322 1824 25 1453 25 
C 1114 25 563 193 390 691 
C 422 678 454 678 486 678 
C 640 678 755 780 755 947 
C 755 1132 614 1216 486 1216 
C 378 1216 211 1164 211 927 
C 211 335 787 -128 1466 -128 
C 2176 -128 2720 432 2720 1087 
C 2720 1718 2208 2176 1600 2246 
C 2086 2347 2554 2776 2554 3353 
C 2554 3856 2048 4224 1472 4224 
C 890 4224 378 3862 378 3347 
C 378 3123 544 3084 627 3084 
C 762 3084 877 3167 877 3334 
C 877 3500 762 3584 627 3584 
C 602 3584 570 3584 544 3571 
C 730 3999 1235 4076 1459 4076 
C 1683 4076 2106 3966 2106 3347 
C 2106 3167 2080 2851 1862 2574 
C 1670 2329 1453 2316 1242 2297 
C 1210 2297 1062 2284 1037 2284 
C 992 2278 966 2272 966 2227 
C 966 2182 973 2176 1101 2176 
L 1414 2176 
z
" transform="scale(0.015625)"/>
       </defs>
       <use xlink:href="#CMR17-33" transform="scale(0.996264)"/>
       <use xlink:href="#CMR17-30" transform="translate(45.690477 0) scale(0.996264)"/>
       <use xlink:href="#CMR17-30" transform="translate(91.380954 0) scale(0.996264)"/>
       <use xlink:href="#CMR17-30" transform="translate(137.071431 0) scale(0.996264)"/>
      </g>
     </g>
    </g>
    <g id="text_8">
     <!-- Iteration -->
     <g transform="translate(189.787377 256.278627) scale(0.1 -0.1)">
      <defs>
       <path id="NimbusSanL-Regu-49" d="M 1242 4672 
L 640 4672 
L 640 0 
L 1242 0 
L 1242 4672 
z
" transform="scale(0.015625)"/>
       <path id="NimbusSanL-Regu-74" d="M 1626 3328 
L 1075 3328 
L 1075 4249 
L 544 4249 
L 544 3328 
L 90 3328 
L 90 2892 
L 544 2892 
L 544 402 
C 544 64 774 -128 1190 -128 
C 1318 -128 1446 -116 1626 -84 
L 1626 364 
C 1555 345 1472 339 1370 339 
C 1139 339 1075 402 1075 634 
L 1075 2892 
L 1626 2892 
L 1626 3328 
z
" transform="scale(0.015625)"/>
       <path id="NimbusSanL-Regu-65" d="M 3283 1484 
C 3283 1998 3245 2311 3149 2565 
C 2931 3123 2419 3456 1792 3456 
C 858 3456 256 2734 256 1619 
C 256 545 838 -128 1779 -128 
C 2547 -128 3078 307 3213 1018 
L 2675 1018 
C 2528 588 2227 364 1798 364 
C 1459 364 1171 514 992 787 
C 864 974 819 1161 813 1484 
L 3283 1484 
z
M 826 1920 
C 870 2552 1248 2963 1786 2963 
C 2310 2963 2714 2519 2714 1959 
C 2714 1946 2714 1933 2707 1920 
L 826 1920 
z
" transform="scale(0.015625)"/>
       <path id="NimbusSanL-Regu-72" d="M 442 3328 
L 442 0 
L 979 0 
L 979 1727 
C 979 2203 1101 2514 1357 2698 
C 1523 2819 1683 2857 2054 2863 
L 2054 3404 
C 1965 3449 1920 3456 1850 3456 
C 1504 3456 1242 3251 934 2750 
L 934 3328 
L 442 3328 
z
" transform="scale(0.015625)"/>
       <path id="NimbusSanL-Regu-61" d="M 3424 332 
C 3366 320 3341 320 3309 320 
C 3123 320 3021 415 3021 581 
L 3021 2542 
C 3021 3135 2586 3456 1760 3456 
C 1274 3456 870 3315 646 3065 
C 493 2893 429 2702 416 2370 
L 954 2370 
C 998 2778 1242 2963 1741 2963 
C 2221 2963 2490 2784 2490 2466 
L 2490 2326 
C 2490 2103 2355 2007 1933 1956 
C 1178 1861 1062 1835 858 1753 
C 467 1593 269 1294 269 861 
C 269 256 691 -128 1370 -128 
C 1792 -128 2131 19 2509 364 
C 2547 25 2714 -128 3059 -128 
C 3168 -128 3251 -116 3424 -71 
L 3424 332 
z
M 2490 1071 
C 2490 893 2438 785 2278 638 
C 2061 441 1798 339 1485 339 
C 1069 339 826 536 826 874 
C 826 1224 1062 1402 1632 1485 
C 2195 1562 2310 1587 2490 1670 
L 2490 1071 
z
" transform="scale(0.015625)"/>
       <path id="NimbusSanL-Regu-69" d="M 960 3358 
L 429 3358 
L 429 0 
L 960 0 
L 960 3358 
z
M 960 4672 
L 422 4672 
L 422 3999 
L 960 3999 
L 960 4672 
z
" transform="scale(0.015625)"/>
       <path id="NimbusSanL-Regu-6f" d="M 1741 3456 
C 800 3456 230 2784 230 1663 
C 230 543 794 -128 1747 -128 
C 2688 -128 3264 543 3264 1638 
C 3264 2791 2707 3456 1741 3456 
z
M 1747 2963 
C 2349 2963 2707 2472 2707 1644 
C 2707 861 2336 364 1747 364 
C 1152 364 787 855 787 1663 
C 787 2466 1152 2963 1747 2963 
z
" transform="scale(0.015625)"/>
       <path id="NimbusSanL-Regu-6e" d="M 448 3328 
L 448 0 
L 986 0 
L 986 1835 
C 986 2539 1344 2988 1894 2988 
C 2317 2988 2586 2732 2586 2328 
L 2586 0 
L 3117 0 
L 3117 2539 
C 3117 3097 2701 3456 2054 3456 
C 1555 3456 1235 3263 941 2796 
L 941 3328 
L 448 3328 
z
" transform="scale(0.015625)"/>
      </defs>
      <use xlink:href="#NimbusSanL-Regu-49" transform="scale(0.996264)"/>
      <use xlink:href="#NimbusSanL-Regu-74" transform="translate(27.69517 0) scale(0.996264)"/>
      <use xlink:href="#NimbusSanL-Regu-65" transform="translate(55.390339 0) scale(0.996264)"/>
      <use xlink:href="#NimbusSanL-Regu-72" transform="translate(110.782016 0) scale(0.996264)"/>
      <use xlink:href="#NimbusSanL-Regu-61" transform="translate(142.961149 0) scale(0.996264)"/>
      <use xlink:href="#NimbusSanL-Regu-74" transform="translate(198.352826 0) scale(0.996264)"/>
      <use xlink:href="#NimbusSanL-Regu-69" transform="translate(226.047996 0) scale(0.996264)"/>
      <use xlink:href="#NimbusSanL-Regu-6f" transform="translate(248.16478 0) scale(0.996264)"/>
      <use xlink:href="#NimbusSanL-Regu-6e" transform="translate(303.556457 0) scale(0.996264)"/>
     </g>
    </g>
   </g>
   <g id="matplotlib.axis_2">
    <g id="ytick_1">
     <g id="line2d_8">
      <defs>
       <path id="m24ed381a7d" d="M 0 0 
L -3.5 0 
" style="stroke: #000000; stroke-width: 0.8"/>
      </defs>
      <g>
       <use xlink:href="#m24ed381a7d" x="40.334753" y="219.904027" style="stroke: #000000; stroke-width: 0.8"/>
      </g>
     </g>
     <g id="text_9">
      <!-- $\mathdefault{−2}$ -->
      <g transform="translate(20.604674 223.453188) scale(0.1 -0.1)">
       <defs>
        <path id="CMSY10-0" d="M 4218 1472 
C 4326 1472 4442 1472 4442 1600 
C 4442 1728 4326 1728 4218 1728 
L 755 1728 
C 646 1728 531 1728 531 1600 
C 531 1472 646 1472 755 1472 
L 4218 1472 
z
" transform="scale(0.015625)"/>
       </defs>
       <use xlink:href="#CMSY10-0" transform="scale(0.996264)"/>
       <use xlink:href="#CMR17-32" transform="translate(77.487468 0) scale(0.996264)"/>
      </g>
     </g>
    </g>
    <g id="ytick_2">
     <g id="line2d_9">
      <g>
       <use xlink:href="#m24ed381a7d" x="40.334753" y="179.243182" style="stroke: #000000; stroke-width: 0.8"/>
      </g>
     </g>
     <g id="text_10">
      <!-- $\mathdefault{0}$ -->
      <g transform="translate(28.353418 182.792342) scale(0.1 -0.1)">
       <use xlink:href="#CMR17-30" transform="scale(0.996264)"/>
      </g>
     </g>
    </g>
    <g id="ytick_3">
     <g id="line2d_10">
      <g>
       <use xlink:href="#m24ed381a7d" x="40.334753" y="138.582337" style="stroke: #000000; stroke-width: 0.8"/>
      </g>
     </g>
     <g id="text_11">
      <!-- $\mathdefault{2}$ -->
      <g transform="translate(28.353418 142.131497) scale(0.1 -0.1)">
       <use xlink:href="#CMR17-32" transform="scale(0.996264)"/>
      </g>
     </g>
    </g>
    <g id="ytick_4">
     <g id="line2d_11">
      <g>
       <use xlink:href="#m24ed381a7d" x="40.334753" y="97.921491" style="stroke: #000000; stroke-width: 0.8"/>
      </g>
     </g>
     <g id="text_12">
      <!-- $\mathdefault{4}$ -->
      <g transform="translate(28.353418 101.470652) scale(0.1 -0.1)">
       <defs>
        <path id="CMR17-34" d="M 2150 4147 
C 2150 4281 2144 4288 2029 4288 
L 128 1254 
L 128 1088 
L 1779 1088 
L 1779 460 
C 1779 230 1766 166 1318 166 
L 1197 166 
L 1197 0 
C 1402 12 1747 12 1965 12 
C 2182 12 2528 12 2733 0 
L 2733 166 
L 2611 166 
C 2163 166 2150 230 2150 460 
L 2150 1088 
L 2803 1088 
L 2803 1254 
L 2150 1254 
L 2150 4147 
z
M 1798 3723 
L 1798 1254 
L 256 1254 
L 1798 3723 
z
" transform="scale(0.015625)"/>
       </defs>
       <use xlink:href="#CMR17-34" transform="scale(0.996264)"/>
      </g>
     </g>
    </g>
    <g id="ytick_5">
     <g id="line2d_12">
      <g>
       <use xlink:href="#m24ed381a7d" x="40.334753" y="57.260646" style="stroke: #000000; stroke-width: 0.8"/>
      </g>
     </g>
     <g id="text_13">
      <!-- $\mathdefault{6}$ -->
      <g transform="translate(28.353418 60.809806) scale(0.1 -0.1)">
       <defs>
        <path id="CMR17-36" d="M 678 2198 
C 678 3712 1395 4076 1811 4076 
C 1946 4076 2272 4049 2400 3782 
C 2298 3782 2106 3782 2106 3558 
C 2106 3385 2246 3328 2336 3328 
C 2394 3328 2566 3353 2566 3571 
C 2566 3987 2246 4224 1805 4224 
C 1043 4224 243 3411 243 2011 
C 243 257 966 -128 1478 -128 
C 2099 -128 2688 431 2688 1295 
C 2688 2101 2170 2688 1517 2688 
C 1126 2688 838 2430 678 1979 
L 678 2198 
z
M 1478 25 
C 691 25 691 1212 691 1450 
C 691 1914 909 2585 1504 2585 
C 1613 2585 1926 2585 2138 2140 
C 2253 1889 2253 1624 2253 1302 
C 2253 954 2253 696 2118 438 
C 1978 173 1773 25 1478 25 
z
" transform="scale(0.015625)"/>
       </defs>
       <use xlink:href="#CMR17-36" transform="scale(0.996264)"/>
      </g>
     </g>
    </g>
    <g id="ytick_6">
     <g id="line2d_13">
      <g>
       <use xlink:href="#m24ed381a7d" x="40.334753" y="16.599801" style="stroke: #000000; stroke-width: 0.8"/>
      </g>
     </g>
     <g id="text_14">
      <!-- $\mathdefault{8}$ -->
      <g transform="translate(28.353418 20.148961) scale(0.1 -0.1)">
       <defs>
        <path id="CMR17-38" d="M 1741 2289 
C 2144 2494 2554 2803 2554 3298 
C 2554 3884 1990 4224 1472 4224 
C 890 4224 378 3800 378 3215 
C 378 3054 416 2777 666 2533 
C 730 2469 998 2276 1171 2154 
C 883 2006 211 1652 211 945 
C 211 282 838 -128 1459 -128 
C 2144 -128 2720 366 2720 1022 
C 2720 1607 2330 1877 2074 2051 
L 1741 2289 
z
M 902 2855 
C 851 2887 595 3086 595 3388 
C 595 3781 998 4076 1459 4076 
C 1965 4076 2336 3716 2336 3298 
C 2336 2700 1670 2359 1638 2359 
C 1632 2359 1626 2359 1574 2398 
L 902 2855 
z
M 2080 1536 
C 2176 1466 2483 1253 2483 861 
C 2483 385 2010 25 1472 25 
C 890 25 448 443 448 951 
C 448 1459 838 1884 1280 2083 
L 2080 1536 
z
" transform="scale(0.015625)"/>
       </defs>
       <use xlink:href="#CMR17-38" transform="scale(0.996264)"/>
      </g>
     </g>
    </g>
    <g id="text_15">
     <!-- Aerodynamic Coefficients - Blade_1 -->
     <g transform="translate(14.482687 196.280864) rotate(-90) scale(0.1 -0.1)">
      <defs>
       <path id="NimbusSanL-Regu-41" d="M 3034 1408 
L 3514 0 
L 4179 0 
L 2541 4672 
L 1773 4672 
L 109 0 
L 742 0 
L 1235 1408 
L 3034 1408 
z
M 2867 1907 
L 1382 1907 
L 2150 4032 
L 2867 1907 
z
" transform="scale(0.015625)"/>
       <path id="NimbusSanL-Regu-64" d="M 3168 4672 
L 2637 4672 
L 2637 2937 
C 2413 3276 2054 3456 1606 3456 
C 736 3456 166 2759 166 1695 
C 166 568 723 -128 1626 -128 
C 2086 -128 2406 44 2694 460 
L 2694 19 
L 3168 19 
L 3168 4672 
z
M 1696 2956 
C 2272 2956 2637 2447 2637 1651 
C 2637 880 2266 371 1702 371 
C 1114 371 723 887 723 1663 
C 723 2440 1114 2956 1696 2956 
z
" transform="scale(0.015625)"/>
       <path id="NimbusSanL-Regu-79" d="M 2483 3328 
L 1555 724 
L 698 3328 
L 128 3328 
L 1261 -29 
L 1056 -558 
C 973 -794 851 -884 627 -884 
C 550 -884 461 -871 346 -845 
L 346 -1325 
C 454 -1383 563 -1408 704 -1408 
C 877 -1408 1062 -1351 1203 -1248 
C 1370 -1127 1466 -986 1568 -718 
L 3059 3328 
L 2483 3328 
z
" transform="scale(0.015625)"/>
       <path id="NimbusSanL-Regu-6d" d="M 448 3328 
L 448 0 
L 986 0 
L 986 2089 
C 986 2597 1338 2988 1773 2988 
C 2170 2988 2394 2744 2394 2315 
L 2394 0 
L 2931 0 
L 2931 2109 
C 2931 2597 3283 2988 3718 2988 
C 4109 2988 4339 2738 4339 2315 
L 4339 0 
L 4877 0 
L 4877 2520 
C 4877 3123 4531 3456 3904 3456 
C 3456 3456 3187 3321 2874 2943 
C 2675 3302 2406 3456 1971 3456 
C 1523 3456 1229 3289 941 2886 
L 941 3328 
L 448 3328 
z
" transform="scale(0.015625)"/>
       <path id="NimbusSanL-Regu-63" d="M 3014 2237 
C 2989 2561 2918 2771 2790 2956 
C 2560 3270 2157 3456 1690 3456 
C 787 3456 198 2740 198 1632 
C 198 555 774 -128 1683 -128 
C 2483 -128 2989 352 3053 1167 
L 2515 1167 
C 2426 632 2150 364 1696 364 
C 1107 364 755 842 755 1632 
C 755 2466 1101 2963 1683 2963 
C 2131 2963 2413 2701 2477 2237 
L 3014 2237 
z
" transform="scale(0.015625)"/>
       <path id="NimbusSanL-Regu-43" d="M 4237 3219 
C 4051 4236 3462 4736 2438 4736 
C 1811 4736 1306 4537 960 4154 
C 538 3696 307 3035 307 2284 
C 307 1522 544 867 986 415 
C 1344 44 1805 -128 2413 -128 
C 3552 -128 4192 485 4333 1712 
L 3718 1712 
C 3667 1394 3603 1178 3507 994 
C 3315 612 2918 396 2419 396 
C 1491 396 902 1134 902 2291 
C 902 3480 1466 4211 2368 4211 
C 2746 4211 3098 4096 3290 3918 
C 3462 3759 3558 3562 3629 3219 
L 4237 3219 
z
" transform="scale(0.015625)"/>
       <path id="NimbusSanL-Regu-66" d="M 1651 3328 
L 1094 3328 
L 1094 3860 
C 1094 4087 1222 4204 1466 4204 
C 1510 4204 1530 4204 1651 4198 
L 1651 4639 
C 1530 4665 1459 4672 1350 4672 
C 858 4672 563 4390 563 3905 
L 563 3328 
L 115 3328 
L 115 2892 
L 563 2892 
L 563 0 
L 1094 0 
L 1094 2892 
L 1651 2892 
L 1651 3328 
z
" transform="scale(0.015625)"/>
       <path id="NimbusSanL-Regu-2" d="M 1613 3328 
L 1056 3328 
L 1056 3860 
C 1056 4087 1184 4204 1427 4204 
C 1472 4204 1491 4204 1613 4198 
L 1613 4639 
C 1491 4665 1421 4672 1312 4672 
C 819 4672 525 4390 525 3905 
L 525 3328 
L 77 3328 
L 77 2892 
L 525 2892 
L 525 0 
L 1056 0 
L 1056 2892 
L 1613 2892 
L 1613 3328 
z
M 2790 3328 
L 2259 3328 
L 2259 0 
L 2790 0 
L 2790 3328 
z
M 2790 4672 
L 2259 4672 
L 2259 3999 
L 2790 3999 
L 2790 4672 
z
" transform="scale(0.015625)"/>
       <path id="NimbusSanL-Regu-73" d="M 2803 2428 
C 2797 3084 2362 3456 1587 3456 
C 806 3456 301 3052 301 2434 
C 301 1912 570 1663 1363 1472 
L 1862 1351 
C 2234 1262 2381 1129 2381 887 
C 2381 574 2067 364 1600 364 
C 1312 364 1069 447 934 587 
C 851 683 813 778 781 1014 
L 218 1014 
C 243 243 678 -128 1555 -128 
C 2400 -128 2938 288 2938 931 
C 2938 1428 2656 1702 1990 1861 
L 1478 1982 
C 1043 2084 858 2224 858 2459 
C 858 2765 1133 2963 1568 2963 
C 1997 2963 2227 2778 2240 2428 
L 2803 2428 
z
" transform="scale(0.015625)"/>
       <path id="NimbusSanL-Regu-2d" d="M 1818 1996 
L 294 1996 
L 294 1536 
L 1818 1536 
L 1818 1996 
z
" transform="scale(0.015625)"/>
       <path id="NimbusSanL-Regu-42" d="M 506 0 
L 2611 0 
C 3053 0 3379 121 3629 390 
C 3859 632 3987 961 3987 1321 
C 3987 1878 3731 2214 3136 2444 
C 3558 2643 3782 2994 3782 3476 
C 3782 3821 3654 4127 3411 4345 
C 3168 4569 2848 4672 2400 4672 
L 506 4672 
L 506 0 
z
M 1101 2636 
L 1101 4147 
L 2253 4147 
C 2586 4147 2771 4101 2931 3977 
C 3098 3847 3187 3652 3187 3391 
C 3187 3138 3098 2936 2931 2806 
C 2771 2682 2586 2636 2253 2636 
L 1101 2636 
z
M 1101 524 
L 1101 2112 
L 2554 2112 
C 2842 2112 3034 2042 3174 1890 
C 3315 1745 3392 1542 3392 1315 
C 3392 1093 3315 891 3174 746 
C 3034 594 2842 524 2554 524 
L 1101 524 
z
" transform="scale(0.015625)"/>
       <path id="NimbusSanL-Regu-6c" d="M 973 4672 
L 435 4672 
L 435 0 
L 973 0 
L 973 4672 
z
" transform="scale(0.015625)"/>
       <path id="NimbusSanL-Regu-31" d="M 1658 3232 
L 1658 0 
L 2221 0 
L 2221 4537 
L 1850 4537 
C 1651 3840 1523 3744 653 3635 
L 653 3232 
L 1658 3232 
z
" transform="scale(0.015625)"/>
      </defs>
      <use xlink:href="#NimbusSanL-Regu-41" transform="scale(0.996264)"/>
      <use xlink:href="#NimbusSanL-Regu-65" transform="translate(66.450031 0) scale(0.996264)"/>
      <use xlink:href="#NimbusSanL-Regu-72" transform="translate(121.841708 0) scale(0.996264)"/>
      <use xlink:href="#NimbusSanL-Regu-6f" transform="translate(155.016938 0) scale(0.996264)"/>
      <use xlink:href="#NimbusSanL-Regu-64" transform="translate(210.408615 0) scale(0.996264)"/>
      <use xlink:href="#NimbusSanL-Regu-79" transform="translate(265.800292 0) scale(0.996264)"/>
      <use xlink:href="#NimbusSanL-Regu-6e" transform="translate(315.613492 0) scale(0.996264)"/>
      <use xlink:href="#NimbusSanL-Regu-61" transform="translate(371.005169 0) scale(0.996264)"/>
      <use xlink:href="#NimbusSanL-Regu-6d" transform="translate(426.396846 0) scale(0.996264)"/>
      <use xlink:href="#NimbusSanL-Regu-69" transform="translate(509.385276 0) scale(0.996264)"/>
      <use xlink:href="#NimbusSanL-Regu-63" transform="translate(531.502061 0) scale(0.996264)"/>
      <use xlink:href="#NimbusSanL-Regu-43" transform="translate(609.010431 0) scale(0.996264)"/>
      <use xlink:href="#NimbusSanL-Regu-6f" transform="translate(680.940416 0) scale(0.996264)"/>
      <use xlink:href="#NimbusSanL-Regu-65" transform="translate(736.332093 0) scale(0.996264)"/>
      <use xlink:href="#NimbusSanL-Regu-66" transform="translate(791.72377 0) scale(0.996264)"/>
      <use xlink:href="#NimbusSanL-Regu-2" transform="translate(819.418939 0) scale(0.996264)"/>
      <use xlink:href="#NimbusSanL-Regu-63" transform="translate(869.23214 0) scale(0.996264)"/>
      <use xlink:href="#NimbusSanL-Regu-69" transform="translate(919.04534 0) scale(0.996264)"/>
      <use xlink:href="#NimbusSanL-Regu-65" transform="translate(941.162125 0) scale(0.996264)"/>
      <use xlink:href="#NimbusSanL-Regu-6e" transform="translate(996.553802 0) scale(0.996264)"/>
      <use xlink:href="#NimbusSanL-Regu-74" transform="translate(1051.945479 0) scale(0.996264)"/>
      <use xlink:href="#NimbusSanL-Regu-73" transform="translate(1079.640648 0) scale(0.996264)"/>
      <use xlink:href="#NimbusSanL-Regu-2d" transform="translate(1157.149018 0) scale(0.996264)"/>
      <use xlink:href="#NimbusSanL-Regu-42" transform="translate(1218.019418 0) scale(0.996264)"/>
      <use xlink:href="#NimbusSanL-Regu-6c" transform="translate(1284.469449 0) scale(0.996264)"/>
      <use xlink:href="#NimbusSanL-Regu-61" transform="translate(1306.586233 0) scale(0.996264)"/>
      <use xlink:href="#NimbusSanL-Regu-64" transform="translate(1361.97791 0) scale(0.996264)"/>
      <use xlink:href="#NimbusSanL-Regu-65" transform="translate(1417.369587 0) scale(0.996264)"/>
      <use xlink:href="#NimbusSanL-Regu-31" transform="translate(1508.626829 0) scale(0.996264)"/>
      <path d="M 1478.738605 0 
L 1508.626829 0 
L 1508.626829 0.3985 
L 1478.738605 0.3985 
L 1478.738605 0 
z
"/>
     </g>
    </g>
   </g>
   <g id="line2d_14">
    <path d="M 55.552935 121.780898 
L 55.836856 17.676089 
L 55.931496 17.28 
L 56.026137 18.198903 
L 56.310058 26.565119 
L 56.593979 32.282135 
L 56.877901 33.195362 
L 57.067182 35.274563 
L 57.351103 41.585059 
L 57.540384 46.151765 
L 57.824305 47.918526 
L 58.108226 51.988493 
L 58.392148 61.187132 
L 58.676069 75.47347 
L 58.95999 78.712722 
L 59.243912 86.16007 
L 59.433192 96.096183 
L 59.717114 128.52904 
L 59.906395 146.575505 
L 60.190316 152.733789 
L 60.474237 165.057694 
L 60.947439 200.986929 
L 61.231361 216.299182 
L 61.420642 218.483047 
L 61.799203 218.766862 
L 62.083125 218.867487 
L 62.272406 218.646881 
L 62.461686 217.759089 
L 62.650967 216.436612 
L 62.934889 215.890129 
L 63.21881 214.505024 
L 63.408091 212.510433 
L 63.597372 208.488286 
L 63.786652 199.730186 
L 63.975933 191.368391 
L 64.259855 188.284611 
L 64.543776 181.409892 
L 64.827697 167.019886 
L 65.206259 139.648363 
L 65.49018 136.298626 
L 65.774102 130.039488 
L 66.341944 114.85823 
L 66.909787 114.646742 
L 67.099068 114.95982 
L 67.288349 116.158909 
L 67.477629 119.344336 
L 67.761551 126.496575 
L 68.045472 128.05877 
L 68.329393 131.203545 
L 68.613315 136.916733 
L 68.991876 146.512452 
L 69.275798 147.738751 
L 69.559719 150.183038 
L 69.84364 154.738211 
L 70.127562 160.021199 
L 70.411483 161.05578 
L 70.695404 163.124431 
L 70.979325 167.168793 
L 71.263247 174.741361 
L 71.452528 178.712077 
L 71.736449 180.046031 
L 72.02037 182.609218 
L 72.304292 187.190846 
L 72.777494 196.906666 
L 73.061415 197.724965 
L 73.439977 199.77837 
L 74.007819 203.351659 
L 74.10246 203.373875 
L 74.1971 203.179719 
L 74.386381 202.661595 
L 74.764943 202.320854 
L 75.048864 201.680131 
L 75.332785 200.253709 
L 75.616707 198.24087 
L 75.900628 197.824854 
L 76.184549 196.913262 
L 76.468471 194.934663 
L 76.657751 192.280017 
L 76.847032 187.15645 
L 77.130954 178.374772 
L 77.414875 176.789365 
L 77.698796 173.372687 
L 77.982718 166.888737 
L 78.266639 159.764861 
L 78.55056 158.472991 
L 78.834481 155.944889 
L 79.213043 149.625485 
L 79.875526 136.457349 
L 80.159448 135.363245 
L 80.538009 132.682565 
L 80.821931 130.796933 
L 80.916571 130.747995 
L 81.105852 132.91771 
L 81.579054 141.519183 
L 81.862975 143.16363 
L 82.146897 146.389082 
L 82.430818 151.945437 
L 82.714739 157.578815 
L 82.998661 158.527032 
L 83.282582 160.46453 
L 83.755784 165.910056 
L 84.039705 168.109729 
L 84.323627 168.374455 
L 84.702188 169.098131 
L 84.98611 169.637791 
L 85.08075 169.62889 
L 85.270031 169.303091 
L 85.648593 169.047692 
L 85.932514 168.455673 
L 86.121795 167.570773 
L 86.405716 164.725557 
L 86.594997 162.998527 
L 86.878918 162.418113 
L 87.16284 161.14647 
L 87.446761 158.723387 
L 87.919963 153.303779 
L 88.298525 153.071226 
L 88.961008 152.3934 
L 89.055648 152.537139 
L 89.244929 153.496918 
L 89.718131 157.593329 
L 90.002053 159.662068 
L 90.285974 160.021749 
L 90.569895 160.819355 
L 90.853817 162.308142 
L 91.61094 167.22362 
L 92.084142 167.465972 
L 92.557344 167.748294 
L 92.746625 167.515125 
L 92.935906 167.130074 
L 93.314468 166.884289 
L 93.598389 166.385444 
L 93.882311 165.278804 
L 94.355513 162.818627 
L 94.639434 162.370375 
L 94.923355 161.449551 
L 95.207277 159.809283 
L 95.585838 157.154543 
L 95.86976 156.827906 
L 96.153681 156.139655 
L 96.532243 154.527759 
L 96.816164 153.594777 
L 97.289366 153.337408 
L 97.857209 152.975324 
L 98.04649 153.095114 
L 98.519692 153.23178 
L 98.803613 153.497094 
L 99.087534 154.157531 
L 99.371456 155.045664 
L 99.750017 155.310088 
L 100.033939 155.761573 
L 100.31786 156.610383 
L 100.885703 158.743578 
L 101.169624 159.014833 
L 101.453545 159.55663 
L 101.832107 160.916841 
L 102.021388 161.411299 
L 102.39995 161.642377 
L 102.778511 162.170836 
L 103.346354 163.095238 
L 104.292758 163.064518 
L 104.67132 162.708998 
L 105.144522 162.479579 
L 105.428443 162.076334 
L 105.712365 161.082741 
L 105.901646 160.490108 
L 106.280207 160.184203 
L 106.564129 159.664459 
L 106.84805 158.689331 
L 107.226612 156.942759 
L 107.605173 156.611222 
L 107.983735 155.855903 
L 108.551578 154.560307 
L 109.02478 154.268451 
L 109.592623 153.818748 
L 109.876544 153.921492 
L 110.349746 154.07699 
L 110.633667 154.41791 
L 110.822948 154.969112 
L 111.20151 156.497316 
L 112.337195 156.630021 
L 112.810397 156.891906 
L 113.188959 157.332196 
L 113.47288 157.956774 
L 113.756802 159.062754 
L 114.135363 160.771299 
L 114.513925 161.064983 
L 115.271049 162.13696 
L 115.365689 162.026206 
L 115.838891 161.904416 
L 116.122813 161.639116 
L 116.312093 161.22304 
L 116.596015 159.929133 
L 116.785296 159.244148 
L 117.069217 159.015051 
L 117.353138 158.504606 
L 117.63706 157.547196 
L 118.204902 155.091291 
L 118.488823 154.790015 
L 118.867385 153.989871 
L 119.435228 152.688315 
L 120.192351 152.667385 
L 120.381632 152.924964 
L 120.760194 153.718902 
L 121.044115 153.95378 
L 121.328036 154.468801 
L 121.611958 155.544493 
L 122.08516 157.702675 
L 122.369081 158.060317 
L 122.747643 159.039209 
L 123.504766 161.44595 
L 124.35653 161.693943 
L 124.735092 161.257761 
L 125.113654 161.031271 
L 125.397575 160.601437 
L 125.681496 159.612041 
L 125.965418 158.393996 
L 126.249339 158.173037 
L 126.53326 157.697701 
L 126.911822 156.550219 
L 127.290384 155.150045 
L 127.763586 155.018849 
L 128.331429 154.767952 
L 129.372473 155.184657 
L 129.656395 155.610662 
L 129.940316 156.139622 
L 130.318878 156.296877 
L 130.697439 156.709084 
L 130.981361 157.363486 
L 131.454563 158.842304 
L 131.833125 159.058718 
L 132.211686 159.557579 
L 132.779529 160.505958 
L 133.536652 160.427508 
L 133.820574 160.201144 
L 134.009855 159.798114 
L 134.199135 159.420387 
L 134.577697 159.20796 
L 134.861619 158.817929 
L 135.14554 158.081551 
L 135.524102 156.935587 
L 135.902663 156.734398 
L 136.375865 156.15082 
L 136.754427 155.76717 
L 137.700832 156.218253 
L 137.984753 156.678072 
L 138.268674 157.319544 
L 138.647236 157.518786 
L 139.025798 158.029688 
L 139.688281 159.277945 
L 139.877562 159.255632 
L 140.161483 158.882526 
L 140.634685 157.691589 
L 141.107887 156.695062 
L 141.581089 156.531719 
L 142.148932 156.239799 
L 142.622134 156.295188 
L 143.095336 156.444277 
L 143.379258 156.763798 
L 143.568538 156.948667 
L 144.136381 157.139044 
L 144.514943 157.468968 
L 144.893505 157.868357 
L 145.555988 158.025922 
L 146.02919 158.132712 
L 147.259515 157.74099 
L 147.638077 157.521309 
L 148.30056 157.332661 
L 149.057684 157.024075 
L 150.761211 156.991296 
L 154.073627 157.187861 
L 158.994929 157.068409 
L 159.468131 157.02258 
L 160.319895 156.871546 
L 161.077019 156.758209 
L 162.875187 156.81941 
L 165.241198 157.196792 
L 165.7144 157.153835 
L 166.376883 157.025781 
L 166.850085 156.904987 
L 167.607209 156.728189 
L 168.175051 156.53941 
L 170.730343 156.531189 
L 171.582107 156.656168 
L 172.433871 156.878543 
L 174.51596 156.978488 
L 174.989163 156.931928 
L 175.746286 156.761727 
L 176.030207 156.700747 
L 176.881971 156.53736 
L 177.449814 156.37885 
L 179.815825 156.287105 
L 180.478308 156.435807 
L 181.235431 156.611573 
L 181.613993 156.659291 
L 184.263925 156.708792 
L 185.021049 156.583444 
L 185.494251 156.484443 
L 186.346015 156.313668 
L 186.724576 156.266728 
L 189.75307 156.200921 
L 190.510194 156.379294 
L 191.361958 156.532357 
L 193.538688 156.442736 
L 195.620777 156.131244 
L 198.270709 156.191067 
L 199.595676 156.316503 
L 201.867046 156.242467 
L 203.192012 156.129381 
L 205.558023 156.035677 
L 208.491876 156.130086 
L 210.763247 156.182073 
L 213.60246 156.063355 
L 216.536313 155.970555 
L 222.782582 156.04818 
L 228.271727 155.932626 
L 231.962704 156.001703 
L 236.221524 155.889675 
L 238.682175 155.909334 
L 242.657073 155.90931 
L 247.389095 155.83438 
L 264.235092 155.778159 
L 269.818878 155.766836 
L 275.118742 155.743289 
L 320.167589 155.764557 
L 358.023762 155.850393 
L 359.916571 155.852943 
L 359.916571 155.852943 
" clip-path="url(#pa264028264)" style="fill: none; stroke: #1f77b4; stroke-width: 1.5; stroke-linecap: square"/>
   </g>
   <g id="line2d_15">
    <path d="M 55.552935 192.679931 
L 55.742216 212.488278 
L 55.836856 212.337834 
L 56.026137 211.298301 
L 56.404699 208.994216 
L 56.499339 208.942508 
L 56.972541 209.806443 
L 57.161822 210.973872 
L 57.540384 214.464596 
L 57.824305 214.925 
L 58.202867 216.256382 
L 58.486788 217.24579 
L 58.770709 217.127657 
L 59.054631 216.981269 
L 59.243912 216.701844 
L 59.433192 216.019001 
L 59.622473 214.219767 
L 59.906395 209.633804 
L 60.190316 208.490678 
L 60.474237 205.948223 
L 60.758159 201.102346 
L 61.420642 187.160163 
L 61.704563 186.645935 
L 61.988484 185.405713 
L 62.272406 182.862531 
L 62.745608 177.375404 
L 63.029529 176.460803 
L 63.408091 173.947692 
L 63.975933 169.551035 
L 64.259855 169.372362 
L 64.638416 169.075279 
L 64.733057 169.215748 
L 64.922338 170.584559 
L 65.300899 175.417672 
L 65.584821 176.794582 
L 65.868742 179.569702 
L 66.531225 187.612083 
L 66.815146 188.27686 
L 67.099068 189.550722 
L 67.382989 191.789667 
L 67.856191 196.452982 
L 68.140112 197.312551 
L 68.424034 198.993704 
L 68.802595 202.977144 
L 68.991876 204.360918 
L 69.275798 204.778881 
L 69.559719 205.612219 
L 69.938281 207.534118 
L 70.127562 208.163916 
L 70.506123 208.447062 
L 70.884685 209.02949 
L 71.263247 209.550674 
L 71.452528 209.43578 
L 71.92573 209.260422 
L 72.209651 208.882578 
L 72.398932 208.302913 
L 72.588213 207.171788 
L 72.777494 206.20179 
L 73.061415 205.870323 
L 73.345336 205.18433 
L 73.629258 203.84559 
L 73.913179 201.457631 
L 74.386381 196.85709 
L 74.670302 196.430514 
L 74.954224 195.56518 
L 75.238145 194.020281 
L 75.711347 191.125979 
L 75.995268 190.622066 
L 76.27919 189.609972 
L 76.563111 187.766281 
L 76.847032 184.481267 
L 77.130954 181.383824 
L 77.414875 180.920474 
L 77.698796 179.999298 
L 78.171998 178.113359 
L 78.929122 178.09073 
L 79.118403 178.311927 
L 79.307684 178.958345 
L 79.496965 180.54365 
L 79.780886 183.780612 
L 80.064807 184.399072 
L 80.348728 185.736509 
L 80.72729 189.072107 
L 81.484414 197.739552 
L 81.768335 198.043379 
L 82.146897 198.857956 
L 82.430818 199.385447 
L 82.525458 199.272747 
L 82.714739 198.775392 
L 82.998661 198.556402 
L 83.282582 198.000346 
L 83.566503 196.714993 
L 83.850424 194.126518 
L 84.039705 192.879298 
L 84.323627 192.492242 
L 84.607548 191.684763 
L 84.98611 189.759302 
L 85.270031 188.331014 
L 85.553952 188.110608 
L 85.932514 187.502749 
L 86.594997 186.396242 
L 87.352121 186.458611 
L 87.541401 186.819667 
L 87.825323 188.294699 
L 88.014604 189.077888 
L 88.298525 189.338572 
L 88.582446 189.880928 
L 88.866368 190.904726 
L 89.244929 193.610251 
L 89.718131 196.240341 
L 90.002053 196.861252 
L 90.475255 197.018519 
L 90.853817 197.186203 
L 91.043097 197.04818 
L 91.327019 196.221736 
L 91.61094 195.360386 
L 91.989502 195.104275 
L 92.273423 194.654772 
L 92.557344 193.739846 
L 93.030547 191.791926 
L 93.314468 191.463302 
L 93.598389 190.832085 
L 93.976951 189.406938 
L 94.260872 188.524188 
L 94.639434 188.333076 
L 95.301917 187.830422 
L 95.775119 188.200867 
L 96.153681 188.432208 
L 96.437602 188.936471 
L 96.626883 189.735909 
L 96.816164 190.413571 
L 97.100085 190.643557 
L 97.384007 191.135927 
L 97.667928 192.08286 
L 98.14113 193.969404 
L 98.425051 194.28908 
L 98.708973 194.919054 
L 99.087534 196.440845 
L 99.371456 197.516182 
L 99.750017 197.769413 
L 100.22322 198.483443 
L 100.507141 198.890799 
L 100.601781 198.899761 
L 100.791062 198.778964 
L 101.358905 198.565362 
L 101.642826 198.129649 
L 101.832107 197.443529 
L 102.021388 196.848933 
L 102.39995 196.530252 
L 102.683871 195.972425 
L 102.967792 194.908577 
L 103.346354 192.96705 
L 103.630275 192.726417 
L 103.914197 192.224652 
L 104.292758 191.098941 
L 104.57668 190.374219 
L 105.049882 190.145103 
L 105.617724 189.78343 
L 106.658769 190.61826 
L 106.94269 191.488548 
L 107.226612 192.637723 
L 107.605173 192.975284 
L 107.889095 193.53241 
L 108.267657 194.899206 
L 108.456937 195.389431 
L 108.835499 195.618552 
L 109.214061 196.117618 
L 109.687263 196.82979 
L 110.728308 196.720546 
L 111.012229 196.214561 
L 111.20151 195.977367 
L 112.526476 195.84054 
L 113.094319 195.575867 
L 113.567521 195.107194 
L 113.946083 194.342255 
L 114.135363 194.005481 
L 114.513925 193.829559 
L 114.892487 193.366757 
L 115.271049 192.404539 
L 115.46033 192.087578 
L 115.933532 191.887015 
L 116.690655 191.454569 
L 117.542419 191.564142 
L 117.82634 191.820578 
L 118.110262 192.198869 
L 118.583464 192.372586 
L 118.962026 192.770878 
L 119.245947 193.446282 
L 119.435228 193.787427 
L 119.813789 193.956626 
L 120.192351 194.365488 
L 120.854834 195.264549 
L 121.328036 195.568091 
L 122.08516 196.227526 
L 122.936924 196.211287 
L 123.220845 195.83045 
L 123.410126 195.585129 
L 123.883328 195.383103 
L 124.167249 195.060157 
L 124.451171 194.384542 
L 124.640452 194.027632 
L 125.019013 193.848382 
L 125.397575 193.411109 
L 126.060058 192.396742 
L 127.006462 192.258791 
L 127.195743 192.554883 
L 127.385024 192.841913 
L 127.763586 193.008092 
L 128.047507 193.3198 
L 128.331429 193.955044 
L 128.61535 194.689099 
L 128.993912 194.893623 
L 129.372473 195.384253 
L 130.034956 196.451465 
L 130.981361 196.630918 
L 131.265282 196.245622 
L 131.454563 195.981453 
L 131.833125 195.832659 
L 132.211686 195.427894 
L 132.590248 194.584195 
L 132.874169 193.972279 
L 133.536652 193.822458 
L 133.915214 193.768421 
L 135.14554 194.528991 
L 135.618742 195.236985 
L 136.091944 195.491052 
L 137.038349 196.221386 
L 137.795472 196.116402 
L 138.079393 195.889263 
L 138.268674 195.745575 
L 138.836517 195.588065 
L 139.877562 195.055877 
L 140.256123 195.352351 
L 141.013247 196.144032 
L 142.811415 196.077306 
L 143.284617 195.893073 
L 143.663179 195.713787 
L 144.325662 195.551128 
L 145.082785 195.332603 
L 146.12383 195.38748 
L 146.407751 195.450205 
L 147.164875 195.588087 
L 147.827358 195.782359 
L 149.909448 195.995649 
L 150.666571 195.908918 
L 152.464739 195.825253 
L 153.316503 195.938882 
L 153.884346 196.125134 
L 154.168267 196.180788 
L 156.250357 196.187848 
L 157.00748 196.013044 
L 158.994929 195.778551 
L 159.373491 195.827245 
L 160.035974 195.952987 
L 160.509176 196.297935 
L 160.887738 196.537207 
L 161.644861 196.672905 
L 162.401985 196.804069 
L 163.253749 196.77184 
L 163.632311 196.717907 
L 164.389434 196.562905 
L 165.335838 196.188558 
L 167.039366 196.289585 
L 167.701849 196.456338 
L 168.175051 196.644421 
L 168.932175 196.794087 
L 169.594658 196.940002 
L 171.771388 197.046904 
L 172.717792 196.901861 
L 175.462365 196.540774 
L 176.787331 196.642228 
L 179.910465 197.275582 
L 181.140791 197.213399 
L 181.897914 197.128468 
L 185.494251 196.826519 
L 187.103138 196.977849 
L 190.604834 197.3181 
L 192.970845 197.098395 
L 195.242216 197.14756 
L 197.135024 197.342082 
L 200.920642 197.312183 
L 204.233057 197.34232 
L 209.532921 197.474495 
L 214.548864 197.429617 
L 221.646897 197.476667 
L 224.391469 197.472996 
L 228.744929 197.552269 
L 283.636381 197.42656 
L 359.916571 196.941477 
L 359.916571 196.941477 
" clip-path="url(#pa264028264)" style="fill: none; stroke: #ff7f0e; stroke-width: 1.5; stroke-linecap: square"/>
   </g>
   <g id="patch_3">
    <path d="M 40.334753 228.96 
L 40.334753 7.2 
" style="fill: none; stroke: #000000; stroke-width: 0.8; stroke-linejoin: miter; stroke-linecap: square"/>
   </g>
   <g id="patch_4">
    <path d="M 375.134753 228.96 
L 375.134753 7.2 
" style="fill: none; stroke: #000000; stroke-width: 0.8; stroke-linejoin: miter; stroke-linecap: square"/>
   </g>
   <g id="patch_5">
    <path d="M 40.334753 228.96 
L 375.134753 228.96 
" style="fill: none; stroke: #000000; stroke-width: 0.8; stroke-linejoin: miter; stroke-linecap: square"/>
   </g>
   <g id="patch_6">
    <path d="M 40.334753 7.2 
L 375.134753 7.2 
" style="fill: none; stroke: #000000; stroke-width: 0.8; stroke-linejoin: miter; stroke-linecap: square"/>
   </g>
   <g id="legend_1">
    <g id="patch_7">
     <path d="M 321.748759 43.640613 
L 368.134753 43.640613 
Q 370.134753 43.640613 370.134753 41.640613 
L 370.134753 14.2 
Q 370.134753 12.2 368.134753 12.2 
L 321.748759 12.2 
Q 319.748759 12.2 319.748759 14.2 
L 319.748759 41.640613 
Q 319.748759 43.640613 321.748759 43.640613 
z
" style="fill: #ffffff; opacity: 0.8; stroke: #cccccc; stroke-linejoin: miter"/>
    </g>
    <g id="line2d_16">
     <path d="M 323.748759 19.79832 
L 333.748759 19.79832 
L 343.748759 19.79832 
" style="fill: none; stroke: #1f77b4; stroke-width: 1.5; stroke-linecap: square"/>
    </g>
    <g id="text_16">
     <!-- CD -->
     <g transform="translate(351.748759 23.29832) scale(0.1 -0.1)">
      <defs>
       <path id="NimbusSanL-Regu-44" d="M 570 0 
L 2368 0 
C 3546 0 4269 883 4269 2339 
C 4269 3788 3552 4672 2368 4672 
L 570 4672 
L 570 0 
z
M 1165 524 
L 1165 4147 
L 2266 4147 
C 3187 4147 3674 3525 3674 2332 
C 3674 1153 3187 524 2266 524 
L 1165 524 
z
" transform="scale(0.015625)"/>
      </defs>
      <use xlink:href="#NimbusSanL-Regu-43" transform="scale(0.996264)"/>
      <use xlink:href="#NimbusSanL-Regu-44" transform="translate(71.929985 0) scale(0.996264)"/>
     </g>
    </g>
    <g id="line2d_17">
     <path d="M 323.748759 34.018627 
L 333.748759 34.018627 
L 343.748759 34.018627 
" style="fill: none; stroke: #ff7f0e; stroke-width: 1.5; stroke-linecap: square"/>
    </g>
    <g id="text_17">
     <!-- CL -->
     <g transform="translate(351.748759 37.518627) scale(0.1 -0.1)">
      <defs>
       <path id="NimbusSanL-Regu-4c" d="M 1107 4672 
L 512 4672 
L 512 0 
L 3411 0 
L 3411 524 
L 1107 524 
L 1107 4672 
z
" transform="scale(0.015625)"/>
      </defs>
      <use xlink:href="#NimbusSanL-Regu-43" transform="scale(0.996264)"/>
      <use xlink:href="#NimbusSanL-Regu-4c" transform="translate(71.929985 0) scale(0.996264)"/>
     </g>
    </g>
   </g>
  </g>
 </g>
 <defs>
  <clipPath id="pa264028264">
   <rect x="40.334753" y="7.2" width="334.8" height="221.76"/>
  </clipPath>
 </defs>
</svg>
