<?xml version="1.0" encoding="utf-8" standalone="no"?>
<!DOCTYPE svg PUBLIC "-//W3C//DTD SVG 1.1//EN"
  "http://www.w3.org/Graphics/SVG/1.1/DTD/svg11.dtd">
<svg xmlns:xlink="http://www.w3.org/1999/xlink" width="379.567344pt" height="265.600613pt" viewBox="0 0 379.567344 265.600613" xmlns="http://www.w3.org/2000/svg" version="1.1">
 <metadata>
  <rdf:RDF xmlns:dc="http://purl.org/dc/elements/1.1/" xmlns:cc="http://creativecommons.org/ns#" xmlns:rdf="http://www.w3.org/1999/02/22-rdf-syntax-ns#">
   <cc:Work>
    <dc:type rdf:resource="http://purl.org/dc/dcmitype/StillImage"/>
    <dc:date>2025-07-17T12:48:40.489555</dc:date>
    <dc:format>image/svg+xml</dc:format>
    <dc:creator>
     <cc:Agent>
      <dc:title>Matplotlib v3.10.3, https://matplotlib.org/</dc:title>
     </cc:Agent>
    </dc:creator>
   </cc:Work>
  </rdf:RDF>
 </metadata>
 <defs>
  <style type="text/css">*{stroke-linejoin: round; stroke-linecap: butt}</style>
 </defs>
 <g id="figure_1">
  <g id="patch_1">
   <path d="M 0 265.600613 
L 379.567344 265.600613 
L 379.567344 0 
L 0 0 
z
" style="fill: #ffffff"/>
  </g>
  <g id="axes_1">
   <g id="patch_2">
    <path d="M 37.567344 228.96 
L 372.367344 228.96 
L 372.367344 7.2 
L 37.567344 7.2 
z
" style="fill: #ffffff"/>
   </g>
   <g id="matplotlib.axis_1">
    <g id="xtick_1">
     <g id="line2d_1">
      <defs>
       <path id="m6141cb8a50" d="M 0 0 
L 0 3.5 
" style="stroke: #000000; stroke-width: 0.8"/>
      </defs>
      <g>
       <use xlink:href="#m6141cb8a50" x="52.785526" y="228.96" style="stroke: #000000; stroke-width: 0.8"/>
      </g>
     </g>
     <g id="text_1">
      <!-- $\mathdefault{0}$ -->
      <g transform="translate(50.294859 243.05832) scale(0.1 -0.1)">
       <defs>
        <path id="CMR17-30" d="M 2688 2038 
C 2688 2430 2682 3099 2413 3613 
C 2176 4063 1798 4224 1466 4224 
C 1158 4224 768 4082 525 3620 
C 269 3137 243 2539 243 2038 
C 243 1671 250 1112 448 623 
C 723 -39 1216 -128 1466 -128 
C 1760 -128 2208 -7 2470 604 
C 2662 1048 2688 1568 2688 2038 
z
M 1466 -26 
C 1056 -26 813 328 723 816 
C 653 1196 653 1749 653 2109 
C 653 2604 653 3015 736 3407 
C 858 3954 1216 4121 1466 4121 
C 1728 4121 2067 3947 2189 3420 
C 2272 3054 2278 2623 2278 2109 
C 2278 1691 2278 1176 2202 797 
C 2067 96 1690 -26 1466 -26 
z
" transform="scale(0.015625)"/>
       </defs>
       <use xlink:href="#CMR17-30" transform="scale(0.996264)"/>
      </g>
     </g>
    </g>
    <g id="xtick_2">
     <g id="line2d_2">
      <g>
       <use xlink:href="#m6141cb8a50" x="100.105743" y="228.96" style="stroke: #000000; stroke-width: 0.8"/>
      </g>
     </g>
     <g id="text_2">
      <!-- $\mathdefault{500}$ -->
      <g transform="translate(92.63374 243.05832) scale(0.1 -0.1)">
       <defs>
        <path id="CMR17-35" d="M 730 3750 
C 794 3724 1056 3641 1325 3641 
C 1920 3641 2246 3961 2432 4140 
C 2432 4191 2432 4224 2394 4224 
C 2387 4224 2374 4224 2323 4198 
C 2099 4102 1837 4032 1517 4032 
C 1325 4032 1037 4055 723 4191 
C 653 4224 640 4224 634 4224 
C 602 4224 595 4217 595 4090 
L 595 2231 
C 595 2113 595 2080 659 2080 
C 691 2080 704 2093 736 2139 
C 941 2435 1222 2560 1542 2560 
C 1766 2560 2246 2415 2246 1293 
C 2246 1087 2246 716 2054 422 
C 1894 159 1645 25 1370 25 
C 947 25 518 319 403 812 
C 429 806 480 793 506 793 
C 589 793 749 838 749 1036 
C 749 1209 627 1280 506 1280 
C 358 1280 262 1190 262 1011 
C 262 454 704 -128 1382 -128 
C 2042 -128 2669 441 2669 1267 
C 2669 2054 2170 2662 1549 2662 
C 1222 2662 947 2540 730 2304 
L 730 3750 
z
" transform="scale(0.015625)"/>
       </defs>
       <use xlink:href="#CMR17-35" transform="scale(0.996264)"/>
       <use xlink:href="#CMR17-30" transform="translate(45.690477 0) scale(0.996264)"/>
       <use xlink:href="#CMR17-30" transform="translate(91.380954 0) scale(0.996264)"/>
      </g>
     </g>
    </g>
    <g id="xtick_3">
     <g id="line2d_3">
      <g>
       <use xlink:href="#m6141cb8a50" x="147.42596" y="228.96" style="stroke: #000000; stroke-width: 0.8"/>
      </g>
     </g>
     <g id="text_3">
      <!-- $\mathdefault{1000}$ -->
      <g transform="translate(137.46329 243.05832) scale(0.1 -0.1)">
       <defs>
        <path id="CMR17-31" d="M 1702 4083 
C 1702 4217 1696 4224 1606 4224 
C 1357 3927 979 3833 621 3820 
C 602 3820 570 3820 563 3808 
C 557 3795 557 3782 557 3648 
C 755 3648 1088 3686 1344 3839 
L 1344 467 
C 1344 243 1331 166 781 166 
L 589 166 
L 589 0 
C 896 6 1216 12 1523 12 
C 1830 12 2150 6 2458 0 
L 2458 166 
L 2266 166 
C 1715 166 1702 236 1702 467 
L 1702 4083 
z
" transform="scale(0.015625)"/>
       </defs>
       <use xlink:href="#CMR17-31" transform="scale(0.996264)"/>
       <use xlink:href="#CMR17-30" transform="translate(45.690477 0) scale(0.996264)"/>
       <use xlink:href="#CMR17-30" transform="translate(91.380954 0) scale(0.996264)"/>
       <use xlink:href="#CMR17-30" transform="translate(137.071431 0) scale(0.996264)"/>
      </g>
     </g>
    </g>
    <g id="xtick_4">
     <g id="line2d_4">
      <g>
       <use xlink:href="#m6141cb8a50" x="194.746177" y="228.96" style="stroke: #000000; stroke-width: 0.8"/>
      </g>
     </g>
     <g id="text_4">
      <!-- $\mathdefault{1500}$ -->
      <g transform="translate(184.783507 243.05832) scale(0.1 -0.1)">
       <use xlink:href="#CMR17-31" transform="scale(0.996264)"/>
       <use xlink:href="#CMR17-35" transform="translate(45.690477 0) scale(0.996264)"/>
       <use xlink:href="#CMR17-30" transform="translate(91.380954 0) scale(0.996264)"/>
       <use xlink:href="#CMR17-30" transform="translate(137.071431 0) scale(0.996264)"/>
      </g>
     </g>
    </g>
    <g id="xtick_5">
     <g id="line2d_5">
      <g>
       <use xlink:href="#m6141cb8a50" x="242.066395" y="228.96" style="stroke: #000000; stroke-width: 0.8"/>
      </g>
     </g>
     <g id="text_5">
      <!-- $\mathdefault{2000}$ -->
      <g transform="translate(232.103724 243.05832) scale(0.1 -0.1)">
       <defs>
        <path id="CMR17-32" d="M 2669 990 
L 2554 990 
C 2490 537 2438 460 2413 422 
C 2381 371 1920 371 1830 371 
L 602 371 
C 832 620 1280 1073 1824 1596 
C 2214 1966 2669 2400 2669 3033 
C 2669 3788 2067 4224 1395 4224 
C 691 4224 262 3603 262 3027 
C 262 2777 448 2745 525 2745 
C 589 2745 781 2783 781 3007 
C 781 3206 614 3264 525 3264 
C 486 3264 448 3257 422 3244 
C 544 3788 915 4057 1306 4057 
C 1862 4057 2227 3616 2227 3033 
C 2227 2477 1901 1998 1536 1583 
L 262 147 
L 262 0 
L 2515 0 
L 2669 990 
z
" transform="scale(0.015625)"/>
       </defs>
       <use xlink:href="#CMR17-32" transform="scale(0.996264)"/>
       <use xlink:href="#CMR17-30" transform="translate(45.690477 0) scale(0.996264)"/>
       <use xlink:href="#CMR17-30" transform="translate(91.380954 0) scale(0.996264)"/>
       <use xlink:href="#CMR17-30" transform="translate(137.071431 0) scale(0.996264)"/>
      </g>
     </g>
    </g>
    <g id="xtick_6">
     <g id="line2d_6">
      <g>
       <use xlink:href="#m6141cb8a50" x="289.386612" y="228.96" style="stroke: #000000; stroke-width: 0.8"/>
      </g>
     </g>
     <g id="text_6">
      <!-- $\mathdefault{2500}$ -->
      <g transform="translate(279.423941 243.05832) scale(0.1 -0.1)">
       <use xlink:href="#CMR17-32" transform="scale(0.996264)"/>
       <use xlink:href="#CMR17-35" transform="translate(45.690477 0) scale(0.996264)"/>
       <use xlink:href="#CMR17-30" transform="translate(91.380954 0) scale(0.996264)"/>
       <use xlink:href="#CMR17-30" transform="translate(137.071431 0) scale(0.996264)"/>
      </g>
     </g>
    </g>
    <g id="xtick_7">
     <g id="line2d_7">
      <g>
       <use xlink:href="#m6141cb8a50" x="336.706829" y="228.96" style="stroke: #000000; stroke-width: 0.8"/>
      </g>
     </g>
     <g id="text_7">
      <!-- $\mathdefault{3000}$ -->
      <g transform="translate(326.744158 243.05832) scale(0.1 -0.1)">
       <defs>
        <path id="CMR17-33" d="M 1414 2176 
C 1984 2176 2234 1673 2234 1094 
C 2234 322 1824 25 1453 25 
C 1114 25 563 193 390 691 
C 422 678 454 678 486 678 
C 640 678 755 780 755 947 
C 755 1132 614 1216 486 1216 
C 378 1216 211 1164 211 927 
C 211 335 787 -128 1466 -128 
C 2176 -128 2720 432 2720 1087 
C 2720 1718 2208 2176 1600 2246 
C 2086 2347 2554 2776 2554 3353 
C 2554 3856 2048 4224 1472 4224 
C 890 4224 378 3862 378 3347 
C 378 3123 544 3084 627 3084 
C 762 3084 877 3167 877 3334 
C 877 3500 762 3584 627 3584 
C 602 3584 570 3584 544 3571 
C 730 3999 1235 4076 1459 4076 
C 1683 4076 2106 3966 2106 3347 
C 2106 3167 2080 2851 1862 2574 
C 1670 2329 1453 2316 1242 2297 
C 1210 2297 1062 2284 1037 2284 
C 992 2278 966 2272 966 2227 
C 966 2182 973 2176 1101 2176 
L 1414 2176 
z
" transform="scale(0.015625)"/>
       </defs>
       <use xlink:href="#CMR17-33" transform="scale(0.996264)"/>
       <use xlink:href="#CMR17-30" transform="translate(45.690477 0) scale(0.996264)"/>
       <use xlink:href="#CMR17-30" transform="translate(91.380954 0) scale(0.996264)"/>
       <use xlink:href="#CMR17-30" transform="translate(137.071431 0) scale(0.996264)"/>
      </g>
     </g>
    </g>
    <g id="text_8">
     <!-- Iteration -->
     <g transform="translate(187.019968 256.278627) scale(0.1 -0.1)">
      <defs>
       <path id="NimbusSanL-Regu-49" d="M 1242 4672 
L 640 4672 
L 640 0 
L 1242 0 
L 1242 4672 
z
" transform="scale(0.015625)"/>
       <path id="NimbusSanL-Regu-74" d="M 1626 3328 
L 1075 3328 
L 1075 4249 
L 544 4249 
L 544 3328 
L 90 3328 
L 90 2892 
L 544 2892 
L 544 402 
C 544 64 774 -128 1190 -128 
C 1318 -128 1446 -116 1626 -84 
L 1626 364 
C 1555 345 1472 339 1370 339 
C 1139 339 1075 402 1075 634 
L 1075 2892 
L 1626 2892 
L 1626 3328 
z
" transform="scale(0.015625)"/>
       <path id="NimbusSanL-Regu-65" d="M 3283 1484 
C 3283 1998 3245 2311 3149 2565 
C 2931 3123 2419 3456 1792 3456 
C 858 3456 256 2734 256 1619 
C 256 545 838 -128 1779 -128 
C 2547 -128 3078 307 3213 1018 
L 2675 1018 
C 2528 588 2227 364 1798 364 
C 1459 364 1171 514 992 787 
C 864 974 819 1161 813 1484 
L 3283 1484 
z
M 826 1920 
C 870 2552 1248 2963 1786 2963 
C 2310 2963 2714 2519 2714 1959 
C 2714 1946 2714 1933 2707 1920 
L 826 1920 
z
" transform="scale(0.015625)"/>
       <path id="NimbusSanL-Regu-72" d="M 442 3328 
L 442 0 
L 979 0 
L 979 1727 
C 979 2203 1101 2514 1357 2698 
C 1523 2819 1683 2857 2054 2863 
L 2054 3404 
C 1965 3449 1920 3456 1850 3456 
C 1504 3456 1242 3251 934 2750 
L 934 3328 
L 442 3328 
z
" transform="scale(0.015625)"/>
       <path id="NimbusSanL-Regu-61" d="M 3424 332 
C 3366 320 3341 320 3309 320 
C 3123 320 3021 415 3021 581 
L 3021 2542 
C 3021 3135 2586 3456 1760 3456 
C 1274 3456 870 3315 646 3065 
C 493 2893 429 2702 416 2370 
L 954 2370 
C 998 2778 1242 2963 1741 2963 
C 2221 2963 2490 2784 2490 2466 
L 2490 2326 
C 2490 2103 2355 2007 1933 1956 
C 1178 1861 1062 1835 858 1753 
C 467 1593 269 1294 269 861 
C 269 256 691 -128 1370 -128 
C 1792 -128 2131 19 2509 364 
C 2547 25 2714 -128 3059 -128 
C 3168 -128 3251 -116 3424 -71 
L 3424 332 
z
M 2490 1071 
C 2490 893 2438 785 2278 638 
C 2061 441 1798 339 1485 339 
C 1069 339 826 536 826 874 
C 826 1224 1062 1402 1632 1485 
C 2195 1562 2310 1587 2490 1670 
L 2490 1071 
z
" transform="scale(0.015625)"/>
       <path id="NimbusSanL-Regu-69" d="M 960 3358 
L 429 3358 
L 429 0 
L 960 0 
L 960 3358 
z
M 960 4672 
L 422 4672 
L 422 3999 
L 960 3999 
L 960 4672 
z
" transform="scale(0.015625)"/>
       <path id="NimbusSanL-Regu-6f" d="M 1741 3456 
C 800 3456 230 2784 230 1663 
C 230 543 794 -128 1747 -128 
C 2688 -128 3264 543 3264 1638 
C 3264 2791 2707 3456 1741 3456 
z
M 1747 2963 
C 2349 2963 2707 2472 2707 1644 
C 2707 861 2336 364 1747 364 
C 1152 364 787 855 787 1663 
C 787 2466 1152 2963 1747 2963 
z
" transform="scale(0.015625)"/>
       <path id="NimbusSanL-Regu-6e" d="M 448 3328 
L 448 0 
L 986 0 
L 986 1835 
C 986 2539 1344 2988 1894 2988 
C 2317 2988 2586 2732 2586 2328 
L 2586 0 
L 3117 0 
L 3117 2539 
C 3117 3097 2701 3456 2054 3456 
C 1555 3456 1235 3263 941 2796 
L 941 3328 
L 448 3328 
z
" transform="scale(0.015625)"/>
      </defs>
      <use xlink:href="#NimbusSanL-Regu-49" transform="scale(0.996264)"/>
      <use xlink:href="#NimbusSanL-Regu-74" transform="translate(27.69517 0) scale(0.996264)"/>
      <use xlink:href="#NimbusSanL-Regu-65" transform="translate(55.390339 0) scale(0.996264)"/>
      <use xlink:href="#NimbusSanL-Regu-72" transform="translate(110.782016 0) scale(0.996264)"/>
      <use xlink:href="#NimbusSanL-Regu-61" transform="translate(142.961149 0) scale(0.996264)"/>
      <use xlink:href="#NimbusSanL-Regu-74" transform="translate(198.352826 0) scale(0.996264)"/>
      <use xlink:href="#NimbusSanL-Regu-69" transform="translate(226.047996 0) scale(0.996264)"/>
      <use xlink:href="#NimbusSanL-Regu-6f" transform="translate(248.16478 0) scale(0.996264)"/>
      <use xlink:href="#NimbusSanL-Regu-6e" transform="translate(303.556457 0) scale(0.996264)"/>
     </g>
    </g>
   </g>
   <g id="matplotlib.axis_2">
    <g id="ytick_1">
     <g id="line2d_8">
      <defs>
       <path id="mc16fcff437" d="M 0 0 
L -3.5 0 
" style="stroke: #000000; stroke-width: 0.8"/>
      </defs>
      <g>
       <use xlink:href="#mc16fcff437" x="37.567344" y="219.553457" style="stroke: #000000; stroke-width: 0.8"/>
      </g>
     </g>
     <g id="text_9">
      <!-- $\mathdefault{0}$ -->
      <g transform="translate(25.586009 223.102617) scale(0.1 -0.1)">
       <use xlink:href="#CMR17-30" transform="scale(0.996264)"/>
      </g>
     </g>
    </g>
    <g id="ytick_2">
     <g id="line2d_9">
      <g>
       <use xlink:href="#mc16fcff437" x="37.567344" y="185.88062" style="stroke: #000000; stroke-width: 0.8"/>
      </g>
     </g>
     <g id="text_10">
      <!-- $\mathdefault{5}$ -->
      <g transform="translate(25.586009 189.42978) scale(0.1 -0.1)">
       <use xlink:href="#CMR17-35" transform="scale(0.996264)"/>
      </g>
     </g>
    </g>
    <g id="ytick_3">
     <g id="line2d_10">
      <g>
       <use xlink:href="#mc16fcff437" x="37.567344" y="152.207783" style="stroke: #000000; stroke-width: 0.8"/>
      </g>
     </g>
     <g id="text_11">
      <!-- $\mathdefault{10}$ -->
      <g transform="translate(20.604674 155.756943) scale(0.1 -0.1)">
       <use xlink:href="#CMR17-31" transform="scale(0.996264)"/>
       <use xlink:href="#CMR17-30" transform="translate(45.690477 0) scale(0.996264)"/>
      </g>
     </g>
    </g>
    <g id="ytick_4">
     <g id="line2d_11">
      <g>
       <use xlink:href="#mc16fcff437" x="37.567344" y="118.534946" style="stroke: #000000; stroke-width: 0.8"/>
      </g>
     </g>
     <g id="text_12">
      <!-- $\mathdefault{15}$ -->
      <g transform="translate(20.604674 122.084106) scale(0.1 -0.1)">
       <use xlink:href="#CMR17-31" transform="scale(0.996264)"/>
       <use xlink:href="#CMR17-35" transform="translate(45.690477 0) scale(0.996264)"/>
      </g>
     </g>
    </g>
    <g id="ytick_5">
     <g id="line2d_12">
      <g>
       <use xlink:href="#mc16fcff437" x="37.567344" y="84.862109" style="stroke: #000000; stroke-width: 0.8"/>
      </g>
     </g>
     <g id="text_13">
      <!-- $\mathdefault{20}$ -->
      <g transform="translate(20.604674 88.411269) scale(0.1 -0.1)">
       <use xlink:href="#CMR17-32" transform="scale(0.996264)"/>
       <use xlink:href="#CMR17-30" transform="translate(45.690477 0) scale(0.996264)"/>
      </g>
     </g>
    </g>
    <g id="ytick_6">
     <g id="line2d_13">
      <g>
       <use xlink:href="#mc16fcff437" x="37.567344" y="51.189272" style="stroke: #000000; stroke-width: 0.8"/>
      </g>
     </g>
     <g id="text_14">
      <!-- $\mathdefault{25}$ -->
      <g transform="translate(20.604674 54.738432) scale(0.1 -0.1)">
       <use xlink:href="#CMR17-32" transform="scale(0.996264)"/>
       <use xlink:href="#CMR17-35" transform="translate(45.690477 0) scale(0.996264)"/>
      </g>
     </g>
    </g>
    <g id="ytick_7">
     <g id="line2d_14">
      <g>
       <use xlink:href="#mc16fcff437" x="37.567344" y="17.516435" style="stroke: #000000; stroke-width: 0.8"/>
      </g>
     </g>
     <g id="text_15">
      <!-- $\mathdefault{30}$ -->
      <g transform="translate(20.604674 21.065595) scale(0.1 -0.1)">
       <use xlink:href="#CMR17-33" transform="scale(0.996264)"/>
       <use xlink:href="#CMR17-30" transform="translate(45.690477 0) scale(0.996264)"/>
      </g>
     </g>
    </g>
    <g id="text_16">
     <!-- Average CFL - Blade_1 -->
     <g transform="translate(14.482687 168.77932) rotate(-90) scale(0.1 -0.1)">
      <defs>
       <path id="NimbusSanL-Regu-41" d="M 3034 1408 
L 3514 0 
L 4179 0 
L 2541 4672 
L 1773 4672 
L 109 0 
L 742 0 
L 1235 1408 
L 3034 1408 
z
M 2867 1907 
L 1382 1907 
L 2150 4032 
L 2867 1907 
z
" transform="scale(0.015625)"/>
       <path id="NimbusSanL-Regu-76" d="M 1824 0 
L 3110 3328 
L 2509 3328 
L 1562 629 
L 666 3328 
L 64 3328 
L 1242 0 
L 1824 0 
z
" transform="scale(0.015625)"/>
       <path id="NimbusSanL-Regu-67" d="M 2637 3359 
L 2637 2873 
C 2368 3270 2042 3456 1613 3456 
C 762 3456 186 2714 186 1632 
C 186 1084 333 638 608 320 
C 858 38 1216 -128 1568 -128 
C 1990 -128 2285 51 2586 473 
L 2586 300 
C 2586 -155 2528 -441 2394 -634 
C 2253 -841 1978 -960 1651 -960 
C 1408 -960 1190 -894 1043 -774 
C 922 -674 870 -581 838 -375 
L 294 -375 
C 352 -1031 845 -1408 1632 -1408 
C 2131 -1408 2560 -1248 2778 -980 
C 3034 -661 3130 -222 3130 568 
L 3130 3359 
L 2637 3359 
z
M 1670 2963 
C 2246 2963 2586 2479 2586 1644 
C 2586 848 2240 364 1677 364 
C 1094 364 742 855 742 1663 
C 742 2466 1101 2963 1670 2963 
z
" transform="scale(0.015625)"/>
       <path id="NimbusSanL-Regu-43" d="M 4237 3219 
C 4051 4236 3462 4736 2438 4736 
C 1811 4736 1306 4537 960 4154 
C 538 3696 307 3035 307 2284 
C 307 1522 544 867 986 415 
C 1344 44 1805 -128 2413 -128 
C 3552 -128 4192 485 4333 1712 
L 3718 1712 
C 3667 1394 3603 1178 3507 994 
C 3315 612 2918 396 2419 396 
C 1491 396 902 1134 902 2291 
C 902 3480 1466 4211 2368 4211 
C 2746 4211 3098 4096 3290 3918 
C 3462 3759 3558 3562 3629 3219 
L 4237 3219 
z
" transform="scale(0.015625)"/>
       <path id="NimbusSanL-Regu-46" d="M 1171 2112 
L 3398 2112 
L 3398 2636 
L 1171 2636 
L 1171 4147 
L 3706 4147 
L 3706 4672 
L 576 4672 
L 576 0 
L 1171 0 
L 1171 2112 
z
" transform="scale(0.015625)"/>
       <path id="NimbusSanL-Regu-4c" d="M 1107 4672 
L 512 4672 
L 512 0 
L 3411 0 
L 3411 524 
L 1107 524 
L 1107 4672 
z
" transform="scale(0.015625)"/>
       <path id="NimbusSanL-Regu-2d" d="M 1818 1996 
L 294 1996 
L 294 1536 
L 1818 1536 
L 1818 1996 
z
" transform="scale(0.015625)"/>
       <path id="NimbusSanL-Regu-42" d="M 506 0 
L 2611 0 
C 3053 0 3379 121 3629 390 
C 3859 632 3987 961 3987 1321 
C 3987 1878 3731 2214 3136 2444 
C 3558 2643 3782 2994 3782 3476 
C 3782 3821 3654 4127 3411 4345 
C 3168 4569 2848 4672 2400 4672 
L 506 4672 
L 506 0 
z
M 1101 2636 
L 1101 4147 
L 2253 4147 
C 2586 4147 2771 4101 2931 3977 
C 3098 3847 3187 3652 3187 3391 
C 3187 3138 3098 2936 2931 2806 
C 2771 2682 2586 2636 2253 2636 
L 1101 2636 
z
M 1101 524 
L 1101 2112 
L 2554 2112 
C 2842 2112 3034 2042 3174 1890 
C 3315 1745 3392 1542 3392 1315 
C 3392 1093 3315 891 3174 746 
C 3034 594 2842 524 2554 524 
L 1101 524 
z
" transform="scale(0.015625)"/>
       <path id="NimbusSanL-Regu-6c" d="M 973 4672 
L 435 4672 
L 435 0 
L 973 0 
L 973 4672 
z
" transform="scale(0.015625)"/>
       <path id="NimbusSanL-Regu-64" d="M 3168 4672 
L 2637 4672 
L 2637 2937 
C 2413 3276 2054 3456 1606 3456 
C 736 3456 166 2759 166 1695 
C 166 568 723 -128 1626 -128 
C 2086 -128 2406 44 2694 460 
L 2694 19 
L 3168 19 
L 3168 4672 
z
M 1696 2956 
C 2272 2956 2637 2447 2637 1651 
C 2637 880 2266 371 1702 371 
C 1114 371 723 887 723 1663 
C 723 2440 1114 2956 1696 2956 
z
" transform="scale(0.015625)"/>
       <path id="NimbusSanL-Regu-31" d="M 1658 3232 
L 1658 0 
L 2221 0 
L 2221 4537 
L 1850 4537 
C 1651 3840 1523 3744 653 3635 
L 653 3232 
L 1658 3232 
z
" transform="scale(0.015625)"/>
      </defs>
      <use xlink:href="#NimbusSanL-Regu-41" transform="scale(0.996264)"/>
      <use xlink:href="#NimbusSanL-Regu-76" transform="translate(62.465918 0) scale(0.996264)"/>
      <use xlink:href="#NimbusSanL-Regu-65" transform="translate(109.788488 0) scale(0.996264)"/>
      <use xlink:href="#NimbusSanL-Regu-72" transform="translate(165.180165 0) scale(0.996264)"/>
      <use xlink:href="#NimbusSanL-Regu-61" transform="translate(197.359298 0) scale(0.996264)"/>
      <use xlink:href="#NimbusSanL-Regu-67" transform="translate(252.750975 0) scale(0.996264)"/>
      <use xlink:href="#NimbusSanL-Regu-65" transform="translate(308.142652 0) scale(0.996264)"/>
      <use xlink:href="#NimbusSanL-Regu-43" transform="translate(391.229499 0) scale(0.996264)"/>
      <use xlink:href="#NimbusSanL-Regu-46" transform="translate(463.159484 0) scale(0.996264)"/>
      <use xlink:href="#NimbusSanL-Regu-4c" transform="translate(524.031114 0) scale(0.996264)"/>
      <use xlink:href="#NimbusSanL-Regu-2d" transform="translate(607.117961 0) scale(0.996264)"/>
      <use xlink:href="#NimbusSanL-Regu-42" transform="translate(667.98836 0) scale(0.996264)"/>
      <use xlink:href="#NimbusSanL-Regu-6c" transform="translate(734.438391 0) scale(0.996264)"/>
      <use xlink:href="#NimbusSanL-Regu-61" transform="translate(756.555176 0) scale(0.996264)"/>
      <use xlink:href="#NimbusSanL-Regu-64" transform="translate(811.946853 0) scale(0.996264)"/>
      <use xlink:href="#NimbusSanL-Regu-65" transform="translate(867.33853 0) scale(0.996264)"/>
      <use xlink:href="#NimbusSanL-Regu-31" transform="translate(958.595772 0) scale(0.996264)"/>
      <path d="M 928.707548 0 
L 958.595772 0 
L 958.595772 0.3985 
L 928.707548 0.3985 
L 928.707548 0 
z
"/>
     </g>
    </g>
   </g>
   <g id="line2d_15">
    <path d="M 52.785526 123.416881 
L 52.974807 82.638047 
L 53.069448 205.861916 
L 53.164088 203.123608 
L 53.448009 191.162677 
L 53.731931 170.49419 
L 54.015852 134.779044 
L 54.394414 73.260287 
L 54.489054 73.260287 
L 54.583694 44.003552 
L 54.678335 201.998466 
L 54.772975 198.487468 
L 55.056897 183.151428 
L 55.340818 156.650752 
L 55.624739 110.868165 
L 55.71938 89.181194 
L 55.81402 206.51623 
L 55.908661 203.908785 
L 56.192582 192.519464 
L 56.476503 172.838718 
L 56.760424 138.830752 
L 56.949705 103.346265 
L 57.044346 207.932738 
L 57.138986 205.608594 
L 57.422907 195.456733 
L 57.706829 177.914319 
L 57.99075 147.638437 
L 58.274671 95.473109 
L 58.558593 41.387349 
L 58.653233 201.736846 
L 58.747874 198.173524 
L 59.031795 182.608933 
L 59.315716 155.723862 
L 59.599637 109.310731 
L 59.694278 87.294897 
L 59.788918 206.327601 
L 59.883559 203.68243 
L 60.16748 192.128322 
L 60.451401 172.162823 
L 60.735323 137.671192 
L 61.019244 78.115949 
L 61.113884 205.409706 
L 61.208525 202.580956 
L 61.492446 190.224975 
L 61.776367 168.873841 
L 62.060289 131.97908 
L 62.24957 93.461824 
L 62.34421 206.944293 
L 62.43885 204.422461 
L 62.722772 193.407096 
L 63.006693 174.372545 
L 63.290614 141.483942 
L 63.479895 107.167017 
L 63.574536 208.314813 
L 63.669176 206.067084 
L 63.953097 196.249005 
L 64.237019 179.283364 
L 64.52094 149.971191 
L 64.804861 99.331573 
L 64.899502 207.531268 
L 64.994142 205.126831 
L 65.278064 194.624247 
L 65.561985 176.475782 
L 65.845906 145.115235 
L 66.035187 112.362418 
L 66.129827 208.834353 
L 66.224468 206.690532 
L 66.508389 197.326323 
L 66.79231 181.14497 
L 67.076232 153.183591 
L 67.170872 139.909618 
L 67.265513 211.589073 
L 67.360153 209.996196 
L 67.644074 203.03851 
L 67.927996 191.015629 
L 68.211917 170.240091 
L 68.495838 134.33996 
L 68.590479 211.032107 
L 68.685119 209.327837 
L 68.96904 201.883586 
L 69.252962 189.01992 
L 69.536883 166.791506 
L 69.820804 128.384291 
L 69.915445 210.43654 
L 70.010085 208.613157 
L 70.294007 200.648619 
L 70.577928 186.885896 
L 70.861849 163.103913 
L 71.240411 122.008645 
L 71.335051 122.008645 
L 71.429692 102.499682 
L 71.524332 207.848079 
L 71.618973 205.507004 
L 71.902894 195.281186 
L 72.186815 177.610973 
L 72.470737 147.076845 
L 72.660017 115.187135 
L 72.754658 209.116825 
L 72.849298 207.029498 
L 73.13322 197.912056 
L 73.417141 182.157117 
L 73.701062 154.932581 
L 73.984983 107.888584 
L 74.174264 85.55561 
L 74.268905 206.153672 
L 74.363545 203.473715 
L 74.647466 191.767663 
L 74.931388 171.539605 
L 75.215309 136.585522 
L 75.30995 119.991935 
L 75.40459 209.597305 
L 75.49923 207.606074 
L 75.783152 198.90838 
L 76.067073 183.878763 
L 76.350994 157.907587 
L 76.634916 113.029393 
L 76.824196 66.158805 
L 76.918837 204.213992 
L 77.013477 201.146099 
L 77.297399 187.745542 
L 77.58132 164.58938 
L 77.865241 124.575532 
L 78.243803 55.431602 
L 78.433084 55.431602 
L 78.527724 22.607231 
L 78.622365 199.858834 
L 78.717005 195.91991 
L 79.000926 178.714687 
L 79.284848 148.984063 
L 79.568769 97.609545 
L 79.75805 43.954224 
L 79.85269 201.993533 
L 79.947331 198.481549 
L 80.231252 183.1412 
L 80.515173 156.633077 
L 80.799095 110.82704 
L 81.083016 31.674209 
L 81.177656 200.765532 
L 81.272297 197.007947 
L 81.556218 180.594816 
L 81.840139 152.232925 
L 82.124061 103.223578 
L 82.313342 52.038432 
L 82.407982 202.801954 
L 82.502623 199.451654 
L 82.786544 184.817541 
L 83.070465 159.529795 
L 83.354386 115.832569 
L 83.638308 40.323762 
L 83.732948 201.630487 
L 83.827589 198.045893 
L 84.11151 182.388387 
L 84.395431 155.332217 
L 84.679353 108.579154 
L 85.057914 27.789862 
L 85.152555 200.377097 
L 85.247195 196.541825 
L 85.531116 179.789358 
L 85.815038 150.841093 
L 86.098959 100.818493 
L 86.38288 48.575109 
L 87.045363 48.575109 
L 87.140004 202.455622 
L 87.234644 199.036055 
L 87.518566 184.099387 
L 87.802487 158.288823 
L 88.086408 113.68817 
L 88.370329 67.107444 
L 88.654251 67.107444 
L 88.748891 204.308856 
L 88.843532 201.259935 
L 89.127453 187.942252 
L 89.411374 164.929294 
L 89.695296 125.162904 
L 89.979217 56.446582 
L 90.073857 203.242769 
L 90.168498 199.980632 
L 90.452419 185.731615 
L 90.73634 161.109314 
L 91.020262 118.561979 
L 91.304183 45.040183 
L 91.398823 202.102129 
L 91.493464 198.611864 
L 91.777385 183.366384 
L 92.061306 157.022196 
L 92.345228 111.499437 
L 92.629149 32.836111 
L 92.723789 200.881722 
L 92.81843 197.147375 
L 93.102351 180.835748 
L 93.386272 152.649256 
L 93.670194 103.942998 
L 93.859475 53.074396 
L 93.954115 202.905551 
L 94.048756 199.575969 
L 94.332677 185.032359 
L 94.616598 159.900999 
L 94.900519 116.47401 
L 95.0898 71.119054 
L 95.184441 204.710016 
L 95.279081 201.741328 
L 95.563002 188.774099 
L 95.846924 166.366727 
L 96.130845 127.646787 
L 96.414766 60.738731 
L 96.509407 203.671984 
L 96.604047 200.49569 
L 96.887969 186.621635 
L 97.17189 162.647269 
L 97.455811 121.219565 
L 97.834373 49.632491 
L 97.929013 202.56136 
L 98.023654 199.162941 
L 98.307575 184.318645 
L 98.591496 158.667703 
L 98.875418 114.342874 
L 99.064699 68.050217 
L 99.159339 204.403133 
L 99.253979 201.373068 
L 99.537901 188.137745 
L 99.821822 165.267107 
L 100.105743 125.746644 
L 100.389665 57.455285 
L 100.484305 203.34364 
L 100.578945 200.101676 
L 100.862867 185.94078 
L 101.146788 161.470751 
L 101.430709 119.186541 
L 101.61999 75.025098 
L 101.714631 205.100621 
L 101.809271 202.210054 
L 102.093192 189.584056 
L 102.377114 167.766333 
L 102.661035 130.065307 
L 102.944956 64.917933 
L 103.039597 204.089904 
L 103.134237 200.997194 
L 103.418158 187.488235 
L 103.70208 164.144753 
L 103.986001 123.807216 
L 104.269922 54.103953 
L 104.364563 203.008506 
L 104.459203 199.699516 
L 104.743125 185.245848 
L 105.027046 160.269908 
L 105.310967 117.111485 
L 105.500248 72.037018 
L 105.594888 204.801813 
L 105.689529 201.851484 
L 105.97345 188.964448 
L 106.257372 166.69565 
L 106.541293 128.215166 
L 106.825214 61.726052 
L 106.919855 203.770716 
L 107.014495 200.614168 
L 107.298416 186.826366 
L 107.582338 163.001044 
L 107.866259 121.830888 
L 108.15018 78.832957 
L 108.244821 78.832957 
L 108.339461 218.88 
L 108.434102 218.745309 
L 108.718023 218.156977 
L 109.001944 217.140339 
L 109.285865 215.38359 
L 109.569787 212.347927 
L 109.853708 207.102302 
L 110.137629 198.037861 
L 110.421551 182.374507 
L 110.705472 155.308232 
L 110.989393 108.537708 
L 111.178674 59.690778 
L 111.273315 203.567189 
L 111.367955 200.369935 
L 111.651876 186.404332 
L 111.935798 162.271769 
L 112.219719 120.5707 
L 112.50364 48.511253 
L 112.598281 202.449236 
L 112.692921 199.028392 
L 112.976842 184.086145 
L 113.260764 158.265943 
L 113.544685 113.648632 
L 113.828606 67.05051 
L 113.923247 204.303162 
L 114.017887 201.253103 
L 114.301808 187.930446 
L 114.58573 164.908894 
L 114.869651 125.127652 
L 115.153572 56.388258 
L 115.248213 203.236937 
L 115.342853 199.973633 
L 115.626775 185.719521 
L 115.910696 161.088416 
L 116.194617 118.525866 
L 116.478538 45.012911 
L 116.573179 202.099402 
L 116.667819 198.608591 
L 116.951741 183.360729 
L 117.235662 157.012423 
L 117.519583 111.482551 
L 117.708864 63.950311 
L 117.803504 203.993142 
L 117.898145 200.881079 
L 118.182066 187.287588 
L 118.465988 163.798036 
L 118.749909 123.20809 
L 119.03383 53.142452 
L 119.128471 202.912356 
L 119.223111 199.584136 
L 119.507032 185.046471 
L 119.790954 159.925385 
L 120.074875 116.516149 
L 120.453437 41.537071 
L 120.548077 201.751818 
L 120.642718 198.19149 
L 120.926639 182.639979 
L 121.21056 155.766967 
L 121.494481 109.330403 
L 121.683762 60.865912 
L 121.778403 203.684702 
L 121.873043 200.510951 
L 122.156964 186.648007 
L 122.440886 162.69284 
L 122.724807 121.298311 
L 123.008728 49.8187 
L 123.103369 202.579981 
L 123.198009 199.185286 
L 123.481931 184.357258 
L 123.765852 158.734424 
L 124.049773 114.458169 
L 124.428335 38.013408 
L 124.522975 201.399452 
L 124.617616 197.768651 
L 124.901537 181.909312 
L 125.185458 154.504375 
L 125.46938 107.148644 
L 125.658661 57.711445 
L 125.753301 203.369256 
L 125.847941 200.132415 
L 126.131863 185.993897 
L 126.415784 161.562538 
L 126.699705 119.345149 
L 126.983627 46.436683 
L 127.078267 202.241779 
L 127.172907 198.779444 
L 127.456829 183.655963 
L 127.74075 157.522587 
L 128.024671 112.364114 
L 128.308593 65.200803 
L 128.403233 65.200803 
L 128.497874 34.330272 
L 128.592514 201.031138 
L 128.687154 197.326675 
L 128.971076 181.145577 
L 129.254997 153.184641 
L 129.538918 104.868143 
L 129.82284 54.406604 
L 129.91748 54.406604 
L 130.012121 21.377234 
L 130.106761 199.735834 
L 130.201401 195.77231 
L 130.485323 178.459635 
L 130.769244 148.543333 
L 131.053165 96.847963 
L 131.242446 42.857546 
L 131.337087 201.883866 
L 131.431727 198.349947 
L 131.715648 182.913793 
L 131.99957 156.240117 
L 132.283491 110.148006 
L 132.567412 30.500838 
L 132.662053 200.648195 
L 132.756693 196.867142 
L 133.040614 180.351506 
L 133.324536 151.812485 
L 133.608457 102.497058 
L 133.892378 50.992243 
L 133.987019 50.992243 
L 134.081659 17.28 
L 134.1763 199.326111 
L 134.27094 195.280642 
L 134.554861 177.610033 
L 134.838783 147.07522 
L 135.122704 94.311064 
L 135.311985 39.204411 
L 135.406625 201.518552 
L 135.501266 197.911571 
L 135.785187 182.156279 
L 136.069108 154.931133 
L 136.35303 107.886081 
L 136.636951 58.752436 
L 138.056557 58.752436 
L 138.151198 26.592232 
L 138.245838 200.257334 
L 138.340479 196.39811 
L 138.6244 179.541017 
L 138.908321 150.411961 
L 139.192243 100.076952 
L 139.381523 47.50729 
L 139.476164 202.34884 
L 139.570804 198.907917 
L 139.854726 183.877964 
L 140.138647 157.906205 
L 140.422568 113.027005 
L 140.611849 66.155367 
L 140.70649 204.213648 
L 140.80113 201.145686 
L 141.085051 187.744829 
L 141.368973 164.588148 
L 141.652894 124.573403 
L 141.936815 55.427923 
L 142.031456 203.140903 
L 142.126096 199.858393 
L 142.410017 185.520386 
L 142.693939 160.744311 
L 142.97786 117.931252 
L 143.356422 43.950287 
L 143.451062 201.99314 
L 143.545703 198.481076 
L 143.829624 183.140384 
L 144.113545 156.631666 
L 144.397466 110.824603 
L 144.586747 62.983907 
L 144.681388 203.896502 
L 144.776028 200.765111 
L 145.05995 187.087195 
L 145.343871 163.451756 
L 145.627792 122.609718 
L 145.911713 52.034677 
L 146.006354 202.801579 
L 146.100994 199.451203 
L 146.384916 184.816763 
L 146.668837 159.528449 
L 146.952758 115.830244 
L 147.23668 40.319745 
L 147.33132 201.630086 
L 147.42596 198.045411 
L 147.709882 182.387554 
L 147.993803 155.330777 
L 148.277724 108.576666 
L 148.467005 59.746879 
L 148.561646 203.572799 
L 148.656286 200.376667 
L 148.940207 186.415965 
L 149.224129 162.29187 
L 149.50805 120.605436 
L 149.791971 48.571276 
L 149.886612 202.455239 
L 149.981252 199.035595 
L 150.265173 184.098592 
L 150.549095 158.28745 
L 150.833016 113.685797 
L 151.116937 36.614141 
L 151.211578 201.259525 
L 151.306218 197.600739 
L 151.590139 181.61916 
L 151.874061 154.002992 
L 152.157982 106.282255 
L 152.347263 56.442925 
L 152.441903 203.242404 
L 152.536544 199.980193 
L 152.820465 185.730857 
L 153.104386 161.108004 
L 153.388308 118.559715 
L 153.672229 45.036271 
L 153.766869 202.101738 
L 153.86151 198.611394 
L 154.145431 183.365573 
L 154.429353 157.020794 
L 154.713274 111.497015 
L 154.902555 63.952181 
L 154.997195 203.993329 
L 155.091836 200.881304 
L 155.375757 187.287976 
L 155.659678 163.798706 
L 155.943599 123.209248 
L 156.227521 53.070664 
L 156.322161 202.905177 
L 156.416802 199.575522 
L 156.700723 185.031585 
L 156.984644 159.899662 
L 157.268566 116.4717 
L 157.552487 71.115727 
L 157.836408 71.115727 
L 157.931049 41.428181 
L 158.025689 201.740929 
L 158.120329 198.178424 
L 158.404251 182.617399 
L 158.688172 155.72795 
L 158.972093 109.262981 
L 159.161374 60.735171 
L 159.256015 203.671628 
L 159.350655 200.495262 
L 159.634576 186.620897 
L 159.918498 162.645994 
L 160.202419 121.217361 
L 160.48634 49.628682 
L 160.580981 202.560979 
L 160.675621 199.162484 
L 160.959542 184.317856 
L 161.243464 158.666338 
L 161.527385 114.340515 
L 161.811306 68.046821 
L 162.379149 68.046821 
L 162.473789 37.745494 
L 162.56843 201.37266 
L 162.66307 197.736501 
L 162.946992 181.853758 
L 163.230913 154.408377 
L 163.514834 106.982758 
L 163.704115 57.451651 
L 163.798756 203.343276 
L 163.893396 200.10124 
L 164.177317 185.940026 
L 164.461239 161.469449 
L 164.74516 119.184291 
L 165.123722 46.115539 
L 165.218362 202.209665 
L 165.313002 198.740907 
L 165.596924 183.58937 
L 165.880845 157.407515 
L 166.164766 112.165269 
L 166.354047 64.914467 
L 166.448688 204.089558 
L 166.543328 200.996778 
L 166.827249 187.487516 
L 167.111171 164.143511 
L 167.395092 123.80507 
L 167.679013 54.100245 
L 167.773654 203.008136 
L 167.868294 199.699071 
L 168.152215 185.245079 
L 168.436137 160.268579 
L 168.720058 117.109189 
L 169.003979 72.033711 
L 169.09862 72.033711 
L 169.19326 42.529762 
L 169.287901 201.851087 
L 169.382541 198.310613 
L 169.666462 182.845823 
L 169.950384 156.122666 
L 170.234305 109.945051 
L 170.423586 61.717352 
L 170.518226 203.769846 
L 170.612867 200.613124 
L 170.896788 186.824562 
L 171.180709 162.997927 
L 171.464631 121.825501 
L 171.748552 50.679549 
L 171.843192 202.666066 
L 171.937833 199.288588 
L 172.221754 184.535763 
L 172.505675 159.042882 
L 172.789597 114.991184 
L 172.978878 68.983784 
L 173.073518 204.49649 
L 173.168158 201.485096 
L 173.45208 188.331329 
L 173.736001 165.601621 
L 174.019922 126.324684 
L 174.303844 58.454138 
L 174.398484 203.443525 
L 174.493125 200.221538 
L 174.777046 186.147902 
L 175.060967 161.828658 
L 175.344888 119.805005 
L 175.72345 47.188132 
L 175.818091 202.316924 
L 175.912731 198.869618 
L 176.196652 183.811783 
L 176.480574 157.791844 
L 176.764495 112.829391 
L 177.048416 65.870802 
L 177.143057 65.870802 
L 177.237697 35.134271 
L 177.332338 201.111538 
L 177.426978 197.423154 
L 177.710899 181.312294 
L 177.994821 153.472728 
L 178.278742 105.365958 
L 178.468023 55.123458 
L 178.562663 203.110457 
L 178.657304 199.821857 
L 178.941225 185.457252 
L 179.225146 160.635215 
L 179.509068 117.742735 
L 179.698348 72.946018 
L 179.792989 204.892713 
L 179.887629 201.960564 
L 180.171551 189.152938 
L 180.455472 167.021361 
L 180.739393 128.777995 
L 181.023315 62.693459 
L 181.117955 203.867457 
L 181.212595 200.730257 
L 181.496517 187.026968 
L 181.780438 163.347683 
L 182.064359 122.429881 
L 182.348281 51.723917 
L 182.442921 202.770503 
L 182.537561 199.413912 
L 182.821483 184.752323 
L 183.105404 159.417098 
L 183.389325 115.637829 
L 183.578606 69.914953 
L 183.673247 204.589606 
L 183.767887 201.596836 
L 184.051808 188.524417 
L 184.33573 165.935276 
L 184.619651 126.90124 
L 184.903572 59.450425 
L 184.998213 203.543154 
L 185.092853 200.341093 
L 185.376775 186.354492 
L 185.660696 162.185646 
L 185.944617 120.42188 
L 186.228538 48.254092 
L 186.323179 202.42352 
L 186.417819 198.997533 
L 186.701741 184.03282 
L 186.985662 158.173797 
L 187.269583 113.489405 
L 187.553504 66.821222 
L 188.405268 66.821222 
L 188.499909 204.280233 
L 188.594549 201.225589 
L 188.878471 187.882901 
L 189.162392 164.826736 
L 189.446313 124.985683 
L 189.730234 56.140343 
L 189.824875 203.212145 
L 189.919515 199.943883 
L 190.203437 185.668114 
L 190.487358 160.999584 
L 190.771279 118.372364 
L 191.055201 73.852683 
L 191.244481 73.852683 
L 191.339122 44.712529 
L 191.433762 202.069364 
L 191.528403 198.572545 
L 191.812324 183.298442 
L 192.096245 156.904791 
L 192.380167 111.296562 
L 192.569448 63.663529 
L 192.664088 203.964464 
L 192.758728 200.846665 
L 193.04265 187.228121 
L 193.326571 163.695277 
L 193.610492 123.030522 
L 193.894414 80.560431 
L 193.989054 80.560431 
L 194.083694 52.761826 
L 194.178335 202.874294 
L 194.272975 199.538461 
L 194.556897 184.967544 
L 194.840818 159.789 
L 195.124739 116.280475 
L 195.408661 70.840364 
L 196.355065 70.840364 
L 196.449705 204.682147 
L 196.544346 201.707886 
L 196.828267 188.71631 
L 197.112188 166.266867 
L 197.39611 127.474229 
L 197.680031 60.440552 
L 197.774671 203.642166 
L 197.869312 200.459908 
L 198.153233 186.559805 
L 198.437154 162.540426 
L 198.721076 121.03494 
L 199.004997 77.686792 
L 199.478199 77.686792 
L 199.57284 205.36679 
L 199.66748 202.529457 
L 199.951401 190.135985 
L 200.235323 168.720066 
L 200.519244 131.713357 
L 200.803165 67.765765 
L 200.897806 204.374688 
L 200.992446 201.338934 
L 201.276367 188.078761 
L 201.560289 165.165182 
L 201.84421 125.570519 
L 202.033491 84.218026 
L 202.128131 206.019914 
L 202.222772 203.313205 
L 202.506693 191.490302 
L 202.790614 171.060325 
L 203.074536 135.757325 
L 203.358457 74.753742 
L 203.453097 205.073485 
L 203.547738 202.177491 
L 203.831659 189.527788 
L 204.11558 167.669101 
L 204.399502 129.89729 
L 204.683423 64.6276 
L 204.778064 204.060871 
L 204.872704 200.962354 
L 205.156625 187.428031 
L 205.440547 164.040721 
L 205.724468 123.62745 
L 205.913749 81.420007 
L 206.008389 205.740112 
L 206.10303 202.977443 
L 206.386951 190.910105 
L 206.670872 170.057744 
L 206.954794 134.024865 
L 207.238715 71.760051 
L 207.333355 204.774116 
L 207.427996 201.818248 
L 207.711917 188.907016 
L 207.995838 166.596407 
L 208.27976 128.043675 
L 208.658321 61.424554 
L 208.752962 203.740567 
L 208.847602 200.577988 
L 209.131523 186.763848 
L 209.415445 162.893012 
L 209.699366 121.644208 
L 209.888647 78.564139 
L 209.983287 205.454525 
L 210.077928 202.634739 
L 210.361849 190.317912 
L 210.64577 169.034435 
L 210.929692 132.256587 
L 211.213613 68.704466 
L 211.308253 204.468558 
L 211.402894 201.451578 
L 211.686815 188.27341 
L 211.970737 165.501536 
L 212.254658 126.151738 
L 212.443939 85.054982 
L 212.538579 206.103609 
L 212.63322 203.41364 
L 212.917141 191.663853 
L 213.201062 171.360221 
L 213.484983 136.275546 
L 213.768905 75.649227 
L 213.863545 205.163034 
L 213.958186 202.284949 
L 214.242107 189.713476 
L 214.526028 167.98997 
L 214.80995 130.451751 
L 215.093871 65.585709 
L 215.188511 204.156682 
L 215.283152 201.077327 
L 215.567073 187.626705 
L 215.850994 164.384029 
L 216.134916 124.220685 
L 216.324196 82.274266 
L 216.418837 205.825538 
L 216.513477 203.079954 
L 216.797399 191.087244 
L 217.08132 170.363841 
L 217.365241 134.5538 
L 217.649163 72.67405 
L 217.743803 204.865516 
L 217.838443 201.927928 
L 218.122365 189.096543 
L 218.406286 166.92391 
L 218.690207 128.6096 
L 218.974129 88.594303 
L 219.068769 88.594303 
L 219.16341 62.402472 
L 219.25805 203.838358 
L 219.35269 200.695339 
L 219.636612 186.966629 
L 219.920533 163.243418 
L 220.204454 122.249709 
L 220.393735 79.43606 
L 220.488376 205.541717 
L 220.583016 202.739369 
L 220.866937 190.498713 
L 221.150859 169.34686 
L 221.43478 132.796458 
L 221.718701 69.637363 
L 221.813342 204.561847 
L 221.907982 201.563525 
L 222.191903 188.466855 
L 222.475825 165.83581 
L 222.759746 126.729363 
L 222.949027 85.886761 
L 223.043667 206.186787 
L 223.138308 203.513453 
L 223.422229 191.836331 
L 223.70615 171.658263 
L 223.990072 136.790562 
L 224.273993 76.539175 
L 224.368633 205.252029 
L 224.463274 202.391743 
L 224.747195 189.898015 
L 225.031116 168.308854 
L 225.315038 131.002783 
L 225.598959 66.537892 
L 225.693599 204.2519 
L 225.78824 201.191589 
L 226.072161 187.824149 
L 226.356083 164.725214 
L 226.640004 124.810252 
L 226.829285 83.123243 
L 226.923925 205.910435 
L 227.018566 203.181831 
L 227.302487 191.263288 
L 227.586408 170.668044 
L 227.870329 135.079464 
L 228.154251 73.582398 
L 228.248891 204.956351 
L 228.343532 202.03693 
L 228.627453 189.284898 
L 228.911374 167.249387 
L 229.195296 129.172024 
L 229.479217 89.404194 
L 229.668498 89.404194 
L 229.763138 63.374342 
L 229.857779 203.935545 
L 229.952419 200.811963 
L 230.23634 187.168155 
L 230.520262 163.591656 
L 230.804183 122.851465 
L 230.993464 80.302589 
L 231.088104 205.62837 
L 231.182745 202.843353 
L 231.466666 190.678397 
L 231.750587 169.657353 
L 232.034509 133.33299 
L 232.31843 70.56449 
L 232.41307 204.65456 
L 232.507711 201.674781 
L 232.791632 188.659105 
L 233.075553 166.168016 
L 233.359475 127.303415 
L 233.643396 86.713397 
L 234.873722 86.713397 
L 234.968362 60.145385 
L 235.063002 203.61265 
L 235.157643 200.424488 
L 235.441564 186.498599 
L 235.725485 162.434663 
L 236.009407 120.852181 
L 236.198688 77.423619 
L 236.293328 205.340473 
L 236.387969 202.497876 
L 236.67189 190.081414 
L 236.955811 168.625766 
L 237.239732 131.550407 
L 237.523654 67.484188 
L 237.618294 204.34653 
L 237.712935 201.305144 
L 237.996856 188.020373 
L 238.280777 165.064288 
L 238.564699 125.396173 
L 238.753979 83.966969 
L 238.84862 205.994808 
L 238.94326 203.283078 
L 239.227182 191.438243 
L 239.511103 170.970367 
L 239.795024 135.601877 
L 240.078945 74.485127 
L 240.173586 205.046624 
L 240.268226 202.145257 
L 240.552148 189.472088 
L 240.836069 167.572851 
L 241.11999 129.730971 
L 241.403912 90.209077 
L 241.593192 90.209077 
L 241.687833 64.340201 
L 241.782473 204.032131 
L 241.877114 200.927866 
L 242.161035 187.368436 
L 242.444956 163.937741 
L 242.728878 123.4495 
L 242.918158 81.163759 
L 243.012799 205.714487 
L 243.107439 202.946693 
L 243.391361 190.856969 
L 243.675282 169.965926 
L 243.959203 133.866203 
L 244.243125 71.485883 
L 244.337765 204.746699 
L 244.432405 201.785348 
L 244.716327 188.850165 
L 245.000248 166.498168 
L 245.284169 127.873918 
L 245.568091 87.534921 
L 245.662731 87.534921 
L 245.757372 61.131214 
L 245.852012 203.711232 
L 245.946652 200.542788 
L 246.230574 186.70302 
L 246.514495 162.787903 
L 246.798416 121.462579 
L 246.987697 78.302593 
L 247.082338 205.42837 
L 247.176978 202.603353 
L 247.460899 190.263678 
L 247.744821 168.940719 
L 248.028742 132.094645 
L 248.312663 68.42463 
L 248.407304 204.440574 
L 248.501944 201.417998 
L 248.785865 188.215383 
L 249.069787 165.401266 
L 249.353708 125.978471 
L 249.637629 84.805477 
L 249.73227 84.805477 
L 249.82691 57.855881 
L 249.921551 203.383699 
L 250.016191 200.149748 
L 250.300112 186.023847 
L 250.584034 161.614292 
L 250.867955 119.43458 
L 251.057236 75.382274 
L 251.151876 205.136338 
L 251.246517 202.252915 
L 251.530438 189.65812 
L 251.814359 167.894315 
L 252.098281 130.286461 
L 252.382202 91.008982 
L 252.476842 91.008982 
L 252.571483 65.300087 
L 252.666123 204.12812 
L 252.760764 201.043052 
L 253.044685 187.567478 
L 253.328606 164.281686 
L 253.612528 124.043836 
L 253.801808 82.019603 
L 253.896449 205.800071 
L 253.991089 203.049394 
L 254.275011 191.034437 
L 254.558932 170.27259 
L 254.842853 134.39612 
L 255.126775 72.401578 
L 255.221415 204.838269 
L 255.316055 201.895231 
L 255.599977 189.040043 
L 255.883898 166.826278 
L 256.167819 128.440892 
L 256.546381 62.110945 
L 256.641021 203.809206 
L 256.735662 200.660355 
L 257.019583 186.906178 
L 257.303504 163.138958 
L 257.587426 122.069203 
L 257.776707 79.176132 
L 257.871347 205.515724 
L 257.965988 202.708178 
L 258.249909 190.444815 
L 258.53383 169.253723 
L 258.817751 132.635517 
L 259.101673 69.359257 
L 259.196313 204.534037 
L 259.290954 201.530153 
L 259.574875 188.409188 
L 259.858796 165.73616 
L 260.142718 126.557167 
L 260.521279 58.855868 
L 260.61592 203.483698 
L 260.71056 200.269746 
L 260.994481 186.231205 
L 261.278403 161.972605 
L 261.562324 120.053746 
L 261.751605 76.273873 
L 261.846245 205.225498 
L 261.940886 202.359907 
L 262.224807 189.843002 
L 262.508728 168.213791 
L 262.79265 130.838515 
L 263.171211 66.254037 
L 263.265852 204.223515 
L 263.360492 201.157526 
L 263.644414 187.765289 
L 263.928335 164.623503 
L 264.212256 124.634497 
L 264.401537 82.870154 
L 264.496177 205.885127 
L 264.590818 203.15146 
L 264.874739 191.210807 
L 265.158661 170.577358 
L 265.442582 134.922759 
L 265.726503 73.31161 
L 265.821144 204.929272 
L 265.915784 202.004435 
L 266.199705 189.228747 
L 266.483627 167.152359 
L 266.767548 129.00436 
L 267.051469 63.084618 
L 267.14611 203.906573 
L 267.24075 200.777196 
L 267.524671 187.108078 
L 267.808593 163.487843 
L 268.092514 122.672076 
L 268.281795 80.044268 
L 268.376435 205.602538 
L 268.471076 202.812354 
L 268.754997 190.624831 
L 269.038918 169.564792 
L 269.32284 133.173044 
L 269.606761 70.288104 
L 269.701401 204.626921 
L 269.796042 201.641614 
L 270.079963 188.601793 
L 270.363884 166.068982 
L 270.647806 127.132285 
L 270.931727 59.849671 
L 271.026367 203.583078 
L 271.121008 200.389003 
L 271.404929 186.43728 
L 271.68885 162.328703 
L 271.972772 120.669082 
L 272.162053 77.159958 
L 272.256693 205.314107 
L 272.351334 202.466237 
L 272.635255 190.026741 
L 272.919176 168.531292 
L 273.203097 131.387155 
L 273.487019 67.202088 
L 273.581659 204.31832 
L 273.6763 201.271292 
L 273.960221 187.961877 
L 274.244142 164.963207 
L 274.528064 125.221505 
L 274.717344 83.715446 
L 274.811985 205.969656 
L 274.906625 203.252895 
L 275.190547 191.386087 
L 275.474468 170.880241 
L 275.758389 135.446141 
L 276.04231 74.216015 
L 276.136951 205.019713 
L 276.231591 202.112964 
L 276.515513 189.416285 
L 276.799434 167.476424 
L 277.083355 129.564343 
L 277.367277 64.052269 
L 277.461917 204.003338 
L 277.556557 200.893314 
L 277.840479 187.30873 
L 278.1244 163.83457 
L 278.408321 123.27122 
L 278.692243 80.907036 
L 278.786883 80.907036 
L 278.881523 53.177751 
L 278.976164 202.915886 
L 279.070804 199.588372 
L 279.354726 185.05379 
L 279.638647 159.938033 
L 279.922568 116.538005 
L 280.111849 71.211207 
L 280.20649 204.719232 
L 280.30113 201.752387 
L 280.585051 188.793208 
L 280.868973 166.399747 
L 281.152894 127.703846 
L 281.436815 60.837328 
L 281.531456 203.681844 
L 281.626096 200.507521 
L 281.910017 186.64208 
L 282.193939 162.682598 
L 282.47786 121.280614 
L 282.667141 78.040562 
L 282.761781 205.402167 
L 282.856422 202.571909 
L 283.140343 190.209343 
L 283.424264 168.846828 
L 283.708186 131.932403 
L 283.992107 68.144275 
L 284.086747 204.412539 
L 284.181388 201.384355 
L 284.465309 188.157249 
L 284.74923 165.30081 
L 285.033152 125.804882 
L 285.411713 57.55592 
L 285.506354 203.353703 
L 285.600994 200.113752 
L 285.884916 185.961648 
L 286.168837 161.50681 
L 286.452758 119.248852 
L 286.642039 75.114826 
L 286.73668 205.109594 
L 286.83132 202.220821 
L 287.115241 189.602662 
L 287.399163 167.798484 
L 287.683084 130.120864 
L 287.967005 65.013936 
L 288.061646 204.099505 
L 288.156286 201.008714 
L 288.440207 187.508142 
L 288.724129 164.179152 
L 289.00805 123.866659 
L 289.386612 54.20667 
L 289.481252 203.018778 
L 289.575893 199.711842 
L 289.859814 185.267147 
L 290.143735 160.306713 
L 290.427656 117.175084 
L 290.616937 72.1286 
L 290.711578 204.810971 
L 290.806218 201.862474 
L 291.090139 188.983439 
L 291.374061 166.728465 
L 291.657982 128.271872 
L 291.941903 61.818878 
L 292.036544 203.779999 
L 292.131184 200.625307 
L 292.415106 186.845614 
L 292.699027 163.034305 
L 292.982948 121.888363 
L 293.266869 78.915721 
L 293.36151 78.915721 
L 293.45615 50.788174 
L 293.550791 202.676929 
L 293.645431 199.301623 
L 293.929353 184.558288 
L 294.213274 159.081805 
L 294.497195 115.058442 
L 294.686476 69.080636 
L 294.781116 204.506175 
L 294.875757 201.496718 
L 295.159678 188.351413 
L 295.443599 165.636324 
L 295.727521 126.384652 
L 296.011442 58.557762 
L 296.106083 203.453887 
L 296.200723 200.233973 
L 296.484644 186.16939 
L 296.768566 161.865789 
L 297.052487 119.869166 
L 297.241768 76.008079 
L 297.336408 205.198919 
L 297.431049 202.328011 
L 297.71497 189.787887 
L 297.998891 168.118552 
L 298.282812 130.673942 
L 298.566734 65.969655 
L 298.661374 204.195077 
L 298.756015 201.123401 
L 299.039936 187.70632 
L 299.323857 164.521604 
L 299.607779 124.458415 
L 299.8917 55.229225 
L 299.98634 203.121034 
L 300.080981 199.834549 
L 300.364902 185.479184 
L 300.648823 160.673113 
L 300.932745 117.808224 
L 301.216666 73.040321 
L 323.078606 73.040321 
L 323.173247 43.737694 
L 323.267887 201.97188 
L 323.362528 198.455565 
L 323.646449 183.0963 
L 323.93037 156.55549 
L 324.214291 110.69297 
L 324.403572 62.794356 
L 324.498213 203.877547 
L 324.592853 200.742365 
L 324.876775 187.04789 
L 325.160696 163.383837 
L 325.444617 122.492354 
L 325.728538 51.831871 
L 325.823179 202.781298 
L 325.917819 199.426866 
L 326.201741 184.774709 
L 326.485662 159.45578 
L 326.769583 115.704671 
L 327.053504 70.011206 
L 334.530099 70.011206 
L 334.624739 40.102756 
L 334.71938 201.608387 
L 334.81402 198.019373 
L 335.097941 182.342559 
L 335.381863 155.253026 
L 335.665784 108.442313 
L 335.855065 59.553409 
L 335.949705 203.553452 
L 336.044346 200.353451 
L 336.328267 186.375847 
L 336.612188 162.222547 
L 336.89611 120.485644 
L 337.180031 48.364277 
L 337.274671 202.434539 
L 337.369312 199.010755 
L 337.653233 184.055668 
L 337.937154 158.213279 
L 338.221076 113.557629 
L 338.599637 36.392666 
L 338.694278 201.237378 
L 338.788918 197.574162 
L 339.07284 181.573235 
L 339.356761 153.923634 
L 339.640682 106.145123 
L 339.829963 56.245456 
L 339.924604 203.222657 
L 340.019244 199.956497 
L 340.303165 185.68991 
L 340.587087 161.037247 
L 340.871008 118.437447 
L 341.154929 44.824992 
L 341.24957 202.08061 
L 341.34421 198.586041 
L 341.628131 183.321762 
L 341.912053 156.945089 
L 342.195974 111.366197 
L 342.479895 63.763803 
L 356.67596 63.763803 
L 356.770601 203.974491 
L 356.865241 200.858698 
L 357.149163 187.248914 
L 357.149163 187.248914 
" clip-path="url(#p364d8d27ce)" style="fill: none; stroke: #1f77b4; stroke-width: 1.5; stroke-linecap: square"/>
   </g>
   <g id="patch_3">
    <path d="M 37.567344 228.96 
L 37.567344 7.2 
" style="fill: none; stroke: #000000; stroke-width: 0.8; stroke-linejoin: miter; stroke-linecap: square"/>
   </g>
   <g id="patch_4">
    <path d="M 372.367344 228.96 
L 372.367344 7.2 
" style="fill: none; stroke: #000000; stroke-width: 0.8; stroke-linejoin: miter; stroke-linecap: square"/>
   </g>
   <g id="patch_5">
    <path d="M 37.567344 228.96 
L 372.367344 228.96 
" style="fill: none; stroke: #000000; stroke-width: 0.8; stroke-linejoin: miter; stroke-linecap: square"/>
   </g>
   <g id="patch_6">
    <path d="M 37.567344 7.2 
L 372.367344 7.2 
" style="fill: none; stroke: #000000; stroke-width: 0.8; stroke-linejoin: miter; stroke-linecap: square"/>
   </g>
   <g id="legend_1">
    <g id="patch_7">
     <path d="M 314.548024 29.420307 
L 365.367344 29.420307 
Q 367.367344 29.420307 367.367344 27.420307 
L 367.367344 14.2 
Q 367.367344 12.2 365.367344 12.2 
L 314.548024 12.2 
Q 312.548024 12.2 312.548024 14.2 
L 312.548024 27.420307 
Q 312.548024 29.420307 314.548024 29.420307 
z
" style="fill: #ffffff; opacity: 0.8; stroke: #cccccc; stroke-linejoin: miter"/>
    </g>
    <g id="line2d_16">
     <path d="M 316.548024 19.79832 
L 326.548024 19.79832 
L 336.548024 19.79832 
" style="fill: none; stroke: #1f77b4; stroke-width: 1.5; stroke-linecap: square"/>
    </g>
    <g id="text_17">
     <!-- CFL -->
     <g transform="translate(344.548024 23.29832) scale(0.1 -0.1)">
      <use xlink:href="#NimbusSanL-Regu-43" transform="scale(0.996264)"/>
      <use xlink:href="#NimbusSanL-Regu-46" transform="translate(71.929985 0) scale(0.996264)"/>
      <use xlink:href="#NimbusSanL-Regu-4c" transform="translate(132.801616 0) scale(0.996264)"/>
     </g>
    </g>
   </g>
  </g>
 </g>
 <defs>
  <clipPath id="p364d8d27ce">
   <rect x="37.567344" y="7.2" width="334.8" height="221.76"/>
  </clipPath>
 </defs>
</svg>
