<?xml version="1.0" encoding="utf-8" standalone="no"?>
<!DOCTYPE svg PUBLIC "-//W3C//DTD SVG 1.1//EN"
  "http://www.w3.org/Graphics/SVG/1.1/DTD/svg11.dtd">
<svg xmlns:xlink="http://www.w3.org/1999/xlink" width="382.334753pt" height="265.600613pt" viewBox="0 0 382.334753 265.600613" xmlns="http://www.w3.org/2000/svg" version="1.1">
 <metadata>
  <rdf:RDF xmlns:dc="http://purl.org/dc/elements/1.1/" xmlns:cc="http://creativecommons.org/ns#" xmlns:rdf="http://www.w3.org/1999/02/22-rdf-syntax-ns#">
   <cc:Work>
    <dc:type rdf:resource="http://purl.org/dc/dcmitype/StillImage"/>
    <dc:date>2025-07-16T22:59:57.549783</dc:date>
    <dc:format>image/svg+xml</dc:format>
    <dc:creator>
     <cc:Agent>
      <dc:title>Matplotlib v3.10.3, https://matplotlib.org/</dc:title>
     </cc:Agent>
    </dc:creator>
   </cc:Work>
  </rdf:RDF>
 </metadata>
 <defs>
  <style type="text/css">*{stroke-linejoin: round; stroke-linecap: butt}</style>
 </defs>
 <g id="figure_1">
  <g id="patch_1">
   <path d="M 0 265.600613 
L 382.334753 265.600613 
L 382.334753 0 
L 0 0 
z
" style="fill: #ffffff"/>
  </g>
  <g id="axes_1">
   <g id="patch_2">
    <path d="M 40.334753 228.96 
L 375.134753 228.96 
L 375.134753 7.2 
L 40.334753 7.2 
z
" style="fill: #ffffff"/>
   </g>
   <g id="matplotlib.axis_1">
    <g id="xtick_1">
     <g id="line2d_1">
      <defs>
       <path id="m9809f7d889" d="M 0 0 
L 0 3.5 
" style="stroke: #000000; stroke-width: 0.8"/>
      </defs>
      <g>
       <use xlink:href="#m9809f7d889" x="55.552935" y="228.96" style="stroke: #000000; stroke-width: 0.8"/>
      </g>
     </g>
     <g id="text_1">
      <!-- $\mathdefault{0}$ -->
      <g transform="translate(53.062267 243.05832) scale(0.1 -0.1)">
       <defs>
        <path id="CMR17-30" d="M 2688 2038 
C 2688 2430 2682 3099 2413 3613 
C 2176 4063 1798 4224 1466 4224 
C 1158 4224 768 4082 525 3620 
C 269 3137 243 2539 243 2038 
C 243 1671 250 1112 448 623 
C 723 -39 1216 -128 1466 -128 
C 1760 -128 2208 -7 2470 604 
C 2662 1048 2688 1568 2688 2038 
z
M 1466 -26 
C 1056 -26 813 328 723 816 
C 653 1196 653 1749 653 2109 
C 653 2604 653 3015 736 3407 
C 858 3954 1216 4121 1466 4121 
C 1728 4121 2067 3947 2189 3420 
C 2272 3054 2278 2623 2278 2109 
C 2278 1691 2278 1176 2202 797 
C 2067 96 1690 -26 1466 -26 
z
" transform="scale(0.015625)"/>
       </defs>
       <use xlink:href="#CMR17-30" transform="scale(0.996264)"/>
      </g>
     </g>
    </g>
    <g id="xtick_2">
     <g id="line2d_2">
      <g>
       <use xlink:href="#m9809f7d889" x="105.269308" y="228.96" style="stroke: #000000; stroke-width: 0.8"/>
      </g>
     </g>
     <g id="text_2">
      <!-- $\mathdefault{500}$ -->
      <g transform="translate(97.797305 243.05832) scale(0.1 -0.1)">
       <defs>
        <path id="CMR17-35" d="M 730 3750 
C 794 3724 1056 3641 1325 3641 
C 1920 3641 2246 3961 2432 4140 
C 2432 4191 2432 4224 2394 4224 
C 2387 4224 2374 4224 2323 4198 
C 2099 4102 1837 4032 1517 4032 
C 1325 4032 1037 4055 723 4191 
C 653 4224 640 4224 634 4224 
C 602 4224 595 4217 595 4090 
L 595 2231 
C 595 2113 595 2080 659 2080 
C 691 2080 704 2093 736 2139 
C 941 2435 1222 2560 1542 2560 
C 1766 2560 2246 2415 2246 1293 
C 2246 1087 2246 716 2054 422 
C 1894 159 1645 25 1370 25 
C 947 25 518 319 403 812 
C 429 806 480 793 506 793 
C 589 793 749 838 749 1036 
C 749 1209 627 1280 506 1280 
C 358 1280 262 1190 262 1011 
C 262 454 704 -128 1382 -128 
C 2042 -128 2669 441 2669 1267 
C 2669 2054 2170 2662 1549 2662 
C 1222 2662 947 2540 730 2304 
L 730 3750 
z
" transform="scale(0.015625)"/>
       </defs>
       <use xlink:href="#CMR17-35" transform="scale(0.996264)"/>
       <use xlink:href="#CMR17-30" transform="translate(45.690477 0) scale(0.996264)"/>
       <use xlink:href="#CMR17-30" transform="translate(91.380954 0) scale(0.996264)"/>
      </g>
     </g>
    </g>
    <g id="xtick_3">
     <g id="line2d_3">
      <g>
       <use xlink:href="#m9809f7d889" x="154.985681" y="228.96" style="stroke: #000000; stroke-width: 0.8"/>
      </g>
     </g>
     <g id="text_3">
      <!-- $\mathdefault{1000}$ -->
      <g transform="translate(145.02301 243.05832) scale(0.1 -0.1)">
       <defs>
        <path id="CMR17-31" d="M 1702 4083 
C 1702 4217 1696 4224 1606 4224 
C 1357 3927 979 3833 621 3820 
C 602 3820 570 3820 563 3808 
C 557 3795 557 3782 557 3648 
C 755 3648 1088 3686 1344 3839 
L 1344 467 
C 1344 243 1331 166 781 166 
L 589 166 
L 589 0 
C 896 6 1216 12 1523 12 
C 1830 12 2150 6 2458 0 
L 2458 166 
L 2266 166 
C 1715 166 1702 236 1702 467 
L 1702 4083 
z
" transform="scale(0.015625)"/>
       </defs>
       <use xlink:href="#CMR17-31" transform="scale(0.996264)"/>
       <use xlink:href="#CMR17-30" transform="translate(45.690477 0) scale(0.996264)"/>
       <use xlink:href="#CMR17-30" transform="translate(91.380954 0) scale(0.996264)"/>
       <use xlink:href="#CMR17-30" transform="translate(137.071431 0) scale(0.996264)"/>
      </g>
     </g>
    </g>
    <g id="xtick_4">
     <g id="line2d_4">
      <g>
       <use xlink:href="#m9809f7d889" x="204.702054" y="228.96" style="stroke: #000000; stroke-width: 0.8"/>
      </g>
     </g>
     <g id="text_4">
      <!-- $\mathdefault{1500}$ -->
      <g transform="translate(194.739384 243.05832) scale(0.1 -0.1)">
       <use xlink:href="#CMR17-31" transform="scale(0.996264)"/>
       <use xlink:href="#CMR17-35" transform="translate(45.690477 0) scale(0.996264)"/>
       <use xlink:href="#CMR17-30" transform="translate(91.380954 0) scale(0.996264)"/>
       <use xlink:href="#CMR17-30" transform="translate(137.071431 0) scale(0.996264)"/>
      </g>
     </g>
    </g>
    <g id="xtick_5">
     <g id="line2d_5">
      <g>
       <use xlink:href="#m9809f7d889" x="254.418427" y="228.96" style="stroke: #000000; stroke-width: 0.8"/>
      </g>
     </g>
     <g id="text_5">
      <!-- $\mathdefault{2000}$ -->
      <g transform="translate(244.455757 243.05832) scale(0.1 -0.1)">
       <defs>
        <path id="CMR17-32" d="M 2669 990 
L 2554 990 
C 2490 537 2438 460 2413 422 
C 2381 371 1920 371 1830 371 
L 602 371 
C 832 620 1280 1073 1824 1596 
C 2214 1966 2669 2400 2669 3033 
C 2669 3788 2067 4224 1395 4224 
C 691 4224 262 3603 262 3027 
C 262 2777 448 2745 525 2745 
C 589 2745 781 2783 781 3007 
C 781 3206 614 3264 525 3264 
C 486 3264 448 3257 422 3244 
C 544 3788 915 4057 1306 4057 
C 1862 4057 2227 3616 2227 3033 
C 2227 2477 1901 1998 1536 1583 
L 262 147 
L 262 0 
L 2515 0 
L 2669 990 
z
" transform="scale(0.015625)"/>
       </defs>
       <use xlink:href="#CMR17-32" transform="scale(0.996264)"/>
       <use xlink:href="#CMR17-30" transform="translate(45.690477 0) scale(0.996264)"/>
       <use xlink:href="#CMR17-30" transform="translate(91.380954 0) scale(0.996264)"/>
       <use xlink:href="#CMR17-30" transform="translate(137.071431 0) scale(0.996264)"/>
      </g>
     </g>
    </g>
    <g id="xtick_6">
     <g id="line2d_6">
      <g>
       <use xlink:href="#m9809f7d889" x="304.1348" y="228.96" style="stroke: #000000; stroke-width: 0.8"/>
      </g>
     </g>
     <g id="text_6">
      <!-- $\mathdefault{2500}$ -->
      <g transform="translate(294.17213 243.05832) scale(0.1 -0.1)">
       <use xlink:href="#CMR17-32" transform="scale(0.996264)"/>
       <use xlink:href="#CMR17-35" transform="translate(45.690477 0) scale(0.996264)"/>
       <use xlink:href="#CMR17-30" transform="translate(91.380954 0) scale(0.996264)"/>
       <use xlink:href="#CMR17-30" transform="translate(137.071431 0) scale(0.996264)"/>
      </g>
     </g>
    </g>
    <g id="xtick_7">
     <g id="line2d_7">
      <g>
       <use xlink:href="#m9809f7d889" x="353.851174" y="228.96" style="stroke: #000000; stroke-width: 0.8"/>
      </g>
     </g>
     <g id="text_7">
      <!-- $\mathdefault{3000}$ -->
      <g transform="translate(343.888503 243.05832) scale(0.1 -0.1)">
       <defs>
        <path id="CMR17-33" d="M 1414 2176 
C 1984 2176 2234 1673 2234 1094 
C 2234 322 1824 25 1453 25 
C 1114 25 563 193 390 691 
C 422 678 454 678 486 678 
C 640 678 755 780 755 947 
C 755 1132 614 1216 486 1216 
C 378 1216 211 1164 211 927 
C 211 335 787 -128 1466 -128 
C 2176 -128 2720 432 2720 1087 
C 2720 1718 2208 2176 1600 2246 
C 2086 2347 2554 2776 2554 3353 
C 2554 3856 2048 4224 1472 4224 
C 890 4224 378 3862 378 3347 
C 378 3123 544 3084 627 3084 
C 762 3084 877 3167 877 3334 
C 877 3500 762 3584 627 3584 
C 602 3584 570 3584 544 3571 
C 730 3999 1235 4076 1459 4076 
C 1683 4076 2106 3966 2106 3347 
C 2106 3167 2080 2851 1862 2574 
C 1670 2329 1453 2316 1242 2297 
C 1210 2297 1062 2284 1037 2284 
C 992 2278 966 2272 966 2227 
C 966 2182 973 2176 1101 2176 
L 1414 2176 
z
" transform="scale(0.015625)"/>
       </defs>
       <use xlink:href="#CMR17-33" transform="scale(0.996264)"/>
       <use xlink:href="#CMR17-30" transform="translate(45.690477 0) scale(0.996264)"/>
       <use xlink:href="#CMR17-30" transform="translate(91.380954 0) scale(0.996264)"/>
       <use xlink:href="#CMR17-30" transform="translate(137.071431 0) scale(0.996264)"/>
      </g>
     </g>
    </g>
    <g id="text_8">
     <!-- Iteration -->
     <g transform="translate(189.787377 256.278627) scale(0.1 -0.1)">
      <defs>
       <path id="NimbusSanL-Regu-49" d="M 1242 4672 
L 640 4672 
L 640 0 
L 1242 0 
L 1242 4672 
z
" transform="scale(0.015625)"/>
       <path id="NimbusSanL-Regu-74" d="M 1626 3328 
L 1075 3328 
L 1075 4249 
L 544 4249 
L 544 3328 
L 90 3328 
L 90 2892 
L 544 2892 
L 544 402 
C 544 64 774 -128 1190 -128 
C 1318 -128 1446 -116 1626 -84 
L 1626 364 
C 1555 345 1472 339 1370 339 
C 1139 339 1075 402 1075 634 
L 1075 2892 
L 1626 2892 
L 1626 3328 
z
" transform="scale(0.015625)"/>
       <path id="NimbusSanL-Regu-65" d="M 3283 1484 
C 3283 1998 3245 2311 3149 2565 
C 2931 3123 2419 3456 1792 3456 
C 858 3456 256 2734 256 1619 
C 256 545 838 -128 1779 -128 
C 2547 -128 3078 307 3213 1018 
L 2675 1018 
C 2528 588 2227 364 1798 364 
C 1459 364 1171 514 992 787 
C 864 974 819 1161 813 1484 
L 3283 1484 
z
M 826 1920 
C 870 2552 1248 2963 1786 2963 
C 2310 2963 2714 2519 2714 1959 
C 2714 1946 2714 1933 2707 1920 
L 826 1920 
z
" transform="scale(0.015625)"/>
       <path id="NimbusSanL-Regu-72" d="M 442 3328 
L 442 0 
L 979 0 
L 979 1727 
C 979 2203 1101 2514 1357 2698 
C 1523 2819 1683 2857 2054 2863 
L 2054 3404 
C 1965 3449 1920 3456 1850 3456 
C 1504 3456 1242 3251 934 2750 
L 934 3328 
L 442 3328 
z
" transform="scale(0.015625)"/>
       <path id="NimbusSanL-Regu-61" d="M 3424 332 
C 3366 320 3341 320 3309 320 
C 3123 320 3021 415 3021 581 
L 3021 2542 
C 3021 3135 2586 3456 1760 3456 
C 1274 3456 870 3315 646 3065 
C 493 2893 429 2702 416 2370 
L 954 2370 
C 998 2778 1242 2963 1741 2963 
C 2221 2963 2490 2784 2490 2466 
L 2490 2326 
C 2490 2103 2355 2007 1933 1956 
C 1178 1861 1062 1835 858 1753 
C 467 1593 269 1294 269 861 
C 269 256 691 -128 1370 -128 
C 1792 -128 2131 19 2509 364 
C 2547 25 2714 -128 3059 -128 
C 3168 -128 3251 -116 3424 -71 
L 3424 332 
z
M 2490 1071 
C 2490 893 2438 785 2278 638 
C 2061 441 1798 339 1485 339 
C 1069 339 826 536 826 874 
C 826 1224 1062 1402 1632 1485 
C 2195 1562 2310 1587 2490 1670 
L 2490 1071 
z
" transform="scale(0.015625)"/>
       <path id="NimbusSanL-Regu-69" d="M 960 3358 
L 429 3358 
L 429 0 
L 960 0 
L 960 3358 
z
M 960 4672 
L 422 4672 
L 422 3999 
L 960 3999 
L 960 4672 
z
" transform="scale(0.015625)"/>
       <path id="NimbusSanL-Regu-6f" d="M 1741 3456 
C 800 3456 230 2784 230 1663 
C 230 543 794 -128 1747 -128 
C 2688 -128 3264 543 3264 1638 
C 3264 2791 2707 3456 1741 3456 
z
M 1747 2963 
C 2349 2963 2707 2472 2707 1644 
C 2707 861 2336 364 1747 364 
C 1152 364 787 855 787 1663 
C 787 2466 1152 2963 1747 2963 
z
" transform="scale(0.015625)"/>
       <path id="NimbusSanL-Regu-6e" d="M 448 3328 
L 448 0 
L 986 0 
L 986 1835 
C 986 2539 1344 2988 1894 2988 
C 2317 2988 2586 2732 2586 2328 
L 2586 0 
L 3117 0 
L 3117 2539 
C 3117 3097 2701 3456 2054 3456 
C 1555 3456 1235 3263 941 2796 
L 941 3328 
L 448 3328 
z
" transform="scale(0.015625)"/>
      </defs>
      <use xlink:href="#NimbusSanL-Regu-49" transform="scale(0.996264)"/>
      <use xlink:href="#NimbusSanL-Regu-74" transform="translate(27.69517 0) scale(0.996264)"/>
      <use xlink:href="#NimbusSanL-Regu-65" transform="translate(55.390339 0) scale(0.996264)"/>
      <use xlink:href="#NimbusSanL-Regu-72" transform="translate(110.782016 0) scale(0.996264)"/>
      <use xlink:href="#NimbusSanL-Regu-61" transform="translate(142.961149 0) scale(0.996264)"/>
      <use xlink:href="#NimbusSanL-Regu-74" transform="translate(198.352826 0) scale(0.996264)"/>
      <use xlink:href="#NimbusSanL-Regu-69" transform="translate(226.047996 0) scale(0.996264)"/>
      <use xlink:href="#NimbusSanL-Regu-6f" transform="translate(248.16478 0) scale(0.996264)"/>
      <use xlink:href="#NimbusSanL-Regu-6e" transform="translate(303.556457 0) scale(0.996264)"/>
     </g>
    </g>
   </g>
   <g id="matplotlib.axis_2">
    <g id="ytick_1">
     <g id="line2d_8">
      <defs>
       <path id="m2ba0543330" d="M 0 0 
L -3.5 0 
" style="stroke: #000000; stroke-width: 0.8"/>
      </defs>
      <g>
       <use xlink:href="#m2ba0543330" x="40.334753" y="218.216179" style="stroke: #000000; stroke-width: 0.8"/>
      </g>
     </g>
     <g id="text_9">
      <!-- $\mathdefault{−2}$ -->
      <g transform="translate(20.604674 221.765339) scale(0.1 -0.1)">
       <defs>
        <path id="CMSY10-0" d="M 4218 1472 
C 4326 1472 4442 1472 4442 1600 
C 4442 1728 4326 1728 4218 1728 
L 755 1728 
C 646 1728 531 1728 531 1600 
C 531 1472 646 1472 755 1472 
L 4218 1472 
z
" transform="scale(0.015625)"/>
       </defs>
       <use xlink:href="#CMSY10-0" transform="scale(0.996264)"/>
       <use xlink:href="#CMR17-32" transform="translate(77.487468 0) scale(0.996264)"/>
      </g>
     </g>
    </g>
    <g id="ytick_2">
     <g id="line2d_9">
      <g>
       <use xlink:href="#m2ba0543330" x="40.334753" y="177.891913" style="stroke: #000000; stroke-width: 0.8"/>
      </g>
     </g>
     <g id="text_10">
      <!-- $\mathdefault{0}$ -->
      <g transform="translate(28.353418 181.441073) scale(0.1 -0.1)">
       <use xlink:href="#CMR17-30" transform="scale(0.996264)"/>
      </g>
     </g>
    </g>
    <g id="ytick_3">
     <g id="line2d_10">
      <g>
       <use xlink:href="#m2ba0543330" x="40.334753" y="137.567646" style="stroke: #000000; stroke-width: 0.8"/>
      </g>
     </g>
     <g id="text_11">
      <!-- $\mathdefault{2}$ -->
      <g transform="translate(28.353418 141.116806) scale(0.1 -0.1)">
       <use xlink:href="#CMR17-32" transform="scale(0.996264)"/>
      </g>
     </g>
    </g>
    <g id="ytick_4">
     <g id="line2d_11">
      <g>
       <use xlink:href="#m2ba0543330" x="40.334753" y="97.24338" style="stroke: #000000; stroke-width: 0.8"/>
      </g>
     </g>
     <g id="text_12">
      <!-- $\mathdefault{4}$ -->
      <g transform="translate(28.353418 100.79254) scale(0.1 -0.1)">
       <defs>
        <path id="CMR17-34" d="M 2150 4147 
C 2150 4281 2144 4288 2029 4288 
L 128 1254 
L 128 1088 
L 1779 1088 
L 1779 460 
C 1779 230 1766 166 1318 166 
L 1197 166 
L 1197 0 
C 1402 12 1747 12 1965 12 
C 2182 12 2528 12 2733 0 
L 2733 166 
L 2611 166 
C 2163 166 2150 230 2150 460 
L 2150 1088 
L 2803 1088 
L 2803 1254 
L 2150 1254 
L 2150 4147 
z
M 1798 3723 
L 1798 1254 
L 256 1254 
L 1798 3723 
z
" transform="scale(0.015625)"/>
       </defs>
       <use xlink:href="#CMR17-34" transform="scale(0.996264)"/>
      </g>
     </g>
    </g>
    <g id="ytick_5">
     <g id="line2d_12">
      <g>
       <use xlink:href="#m2ba0543330" x="40.334753" y="56.919114" style="stroke: #000000; stroke-width: 0.8"/>
      </g>
     </g>
     <g id="text_13">
      <!-- $\mathdefault{6}$ -->
      <g transform="translate(28.353418 60.468274) scale(0.1 -0.1)">
       <defs>
        <path id="CMR17-36" d="M 678 2198 
C 678 3712 1395 4076 1811 4076 
C 1946 4076 2272 4049 2400 3782 
C 2298 3782 2106 3782 2106 3558 
C 2106 3385 2246 3328 2336 3328 
C 2394 3328 2566 3353 2566 3571 
C 2566 3987 2246 4224 1805 4224 
C 1043 4224 243 3411 243 2011 
C 243 257 966 -128 1478 -128 
C 2099 -128 2688 431 2688 1295 
C 2688 2101 2170 2688 1517 2688 
C 1126 2688 838 2430 678 1979 
L 678 2198 
z
M 1478 25 
C 691 25 691 1212 691 1450 
C 691 1914 909 2585 1504 2585 
C 1613 2585 1926 2585 2138 2140 
C 2253 1889 2253 1624 2253 1302 
C 2253 954 2253 696 2118 438 
C 1978 173 1773 25 1478 25 
z
" transform="scale(0.015625)"/>
       </defs>
       <use xlink:href="#CMR17-36" transform="scale(0.996264)"/>
      </g>
     </g>
    </g>
    <g id="ytick_6">
     <g id="line2d_13">
      <g>
       <use xlink:href="#m2ba0543330" x="40.334753" y="16.594848" style="stroke: #000000; stroke-width: 0.8"/>
      </g>
     </g>
     <g id="text_14">
      <!-- $\mathdefault{8}$ -->
      <g transform="translate(28.353418 20.144008) scale(0.1 -0.1)">
       <defs>
        <path id="CMR17-38" d="M 1741 2289 
C 2144 2494 2554 2803 2554 3298 
C 2554 3884 1990 4224 1472 4224 
C 890 4224 378 3800 378 3215 
C 378 3054 416 2777 666 2533 
C 730 2469 998 2276 1171 2154 
C 883 2006 211 1652 211 945 
C 211 282 838 -128 1459 -128 
C 2144 -128 2720 366 2720 1022 
C 2720 1607 2330 1877 2074 2051 
L 1741 2289 
z
M 902 2855 
C 851 2887 595 3086 595 3388 
C 595 3781 998 4076 1459 4076 
C 1965 4076 2336 3716 2336 3298 
C 2336 2700 1670 2359 1638 2359 
C 1632 2359 1626 2359 1574 2398 
L 902 2855 
z
M 2080 1536 
C 2176 1466 2483 1253 2483 861 
C 2483 385 2010 25 1472 25 
C 890 25 448 443 448 951 
C 448 1459 838 1884 1280 2083 
L 2080 1536 
z
" transform="scale(0.015625)"/>
       </defs>
       <use xlink:href="#CMR17-38" transform="scale(0.996264)"/>
      </g>
     </g>
    </g>
    <g id="text_15">
     <!-- Aerodynamic Coefficients - Blade_1 -->
     <g transform="translate(14.482687 196.280864) rotate(-90) scale(0.1 -0.1)">
      <defs>
       <path id="NimbusSanL-Regu-41" d="M 3034 1408 
L 3514 0 
L 4179 0 
L 2541 4672 
L 1773 4672 
L 109 0 
L 742 0 
L 1235 1408 
L 3034 1408 
z
M 2867 1907 
L 1382 1907 
L 2150 4032 
L 2867 1907 
z
" transform="scale(0.015625)"/>
       <path id="NimbusSanL-Regu-64" d="M 3168 4672 
L 2637 4672 
L 2637 2937 
C 2413 3276 2054 3456 1606 3456 
C 736 3456 166 2759 166 1695 
C 166 568 723 -128 1626 -128 
C 2086 -128 2406 44 2694 460 
L 2694 19 
L 3168 19 
L 3168 4672 
z
M 1696 2956 
C 2272 2956 2637 2447 2637 1651 
C 2637 880 2266 371 1702 371 
C 1114 371 723 887 723 1663 
C 723 2440 1114 2956 1696 2956 
z
" transform="scale(0.015625)"/>
       <path id="NimbusSanL-Regu-79" d="M 2483 3328 
L 1555 724 
L 698 3328 
L 128 3328 
L 1261 -29 
L 1056 -558 
C 973 -794 851 -884 627 -884 
C 550 -884 461 -871 346 -845 
L 346 -1325 
C 454 -1383 563 -1408 704 -1408 
C 877 -1408 1062 -1351 1203 -1248 
C 1370 -1127 1466 -986 1568 -718 
L 3059 3328 
L 2483 3328 
z
" transform="scale(0.015625)"/>
       <path id="NimbusSanL-Regu-6d" d="M 448 3328 
L 448 0 
L 986 0 
L 986 2089 
C 986 2597 1338 2988 1773 2988 
C 2170 2988 2394 2744 2394 2315 
L 2394 0 
L 2931 0 
L 2931 2109 
C 2931 2597 3283 2988 3718 2988 
C 4109 2988 4339 2738 4339 2315 
L 4339 0 
L 4877 0 
L 4877 2520 
C 4877 3123 4531 3456 3904 3456 
C 3456 3456 3187 3321 2874 2943 
C 2675 3302 2406 3456 1971 3456 
C 1523 3456 1229 3289 941 2886 
L 941 3328 
L 448 3328 
z
" transform="scale(0.015625)"/>
       <path id="NimbusSanL-Regu-63" d="M 3014 2237 
C 2989 2561 2918 2771 2790 2956 
C 2560 3270 2157 3456 1690 3456 
C 787 3456 198 2740 198 1632 
C 198 555 774 -128 1683 -128 
C 2483 -128 2989 352 3053 1167 
L 2515 1167 
C 2426 632 2150 364 1696 364 
C 1107 364 755 842 755 1632 
C 755 2466 1101 2963 1683 2963 
C 2131 2963 2413 2701 2477 2237 
L 3014 2237 
z
" transform="scale(0.015625)"/>
       <path id="NimbusSanL-Regu-43" d="M 4237 3219 
C 4051 4236 3462 4736 2438 4736 
C 1811 4736 1306 4537 960 4154 
C 538 3696 307 3035 307 2284 
C 307 1522 544 867 986 415 
C 1344 44 1805 -128 2413 -128 
C 3552 -128 4192 485 4333 1712 
L 3718 1712 
C 3667 1394 3603 1178 3507 994 
C 3315 612 2918 396 2419 396 
C 1491 396 902 1134 902 2291 
C 902 3480 1466 4211 2368 4211 
C 2746 4211 3098 4096 3290 3918 
C 3462 3759 3558 3562 3629 3219 
L 4237 3219 
z
" transform="scale(0.015625)"/>
       <path id="NimbusSanL-Regu-66" d="M 1651 3328 
L 1094 3328 
L 1094 3860 
C 1094 4087 1222 4204 1466 4204 
C 1510 4204 1530 4204 1651 4198 
L 1651 4639 
C 1530 4665 1459 4672 1350 4672 
C 858 4672 563 4390 563 3905 
L 563 3328 
L 115 3328 
L 115 2892 
L 563 2892 
L 563 0 
L 1094 0 
L 1094 2892 
L 1651 2892 
L 1651 3328 
z
" transform="scale(0.015625)"/>
       <path id="NimbusSanL-Regu-2" d="M 1613 3328 
L 1056 3328 
L 1056 3860 
C 1056 4087 1184 4204 1427 4204 
C 1472 4204 1491 4204 1613 4198 
L 1613 4639 
C 1491 4665 1421 4672 1312 4672 
C 819 4672 525 4390 525 3905 
L 525 3328 
L 77 3328 
L 77 2892 
L 525 2892 
L 525 0 
L 1056 0 
L 1056 2892 
L 1613 2892 
L 1613 3328 
z
M 2790 3328 
L 2259 3328 
L 2259 0 
L 2790 0 
L 2790 3328 
z
M 2790 4672 
L 2259 4672 
L 2259 3999 
L 2790 3999 
L 2790 4672 
z
" transform="scale(0.015625)"/>
       <path id="NimbusSanL-Regu-73" d="M 2803 2428 
C 2797 3084 2362 3456 1587 3456 
C 806 3456 301 3052 301 2434 
C 301 1912 570 1663 1363 1472 
L 1862 1351 
C 2234 1262 2381 1129 2381 887 
C 2381 574 2067 364 1600 364 
C 1312 364 1069 447 934 587 
C 851 683 813 778 781 1014 
L 218 1014 
C 243 243 678 -128 1555 -128 
C 2400 -128 2938 288 2938 931 
C 2938 1428 2656 1702 1990 1861 
L 1478 1982 
C 1043 2084 858 2224 858 2459 
C 858 2765 1133 2963 1568 2963 
C 1997 2963 2227 2778 2240 2428 
L 2803 2428 
z
" transform="scale(0.015625)"/>
       <path id="NimbusSanL-Regu-2d" d="M 1818 1996 
L 294 1996 
L 294 1536 
L 1818 1536 
L 1818 1996 
z
" transform="scale(0.015625)"/>
       <path id="NimbusSanL-Regu-42" d="M 506 0 
L 2611 0 
C 3053 0 3379 121 3629 390 
C 3859 632 3987 961 3987 1321 
C 3987 1878 3731 2214 3136 2444 
C 3558 2643 3782 2994 3782 3476 
C 3782 3821 3654 4127 3411 4345 
C 3168 4569 2848 4672 2400 4672 
L 506 4672 
L 506 0 
z
M 1101 2636 
L 1101 4147 
L 2253 4147 
C 2586 4147 2771 4101 2931 3977 
C 3098 3847 3187 3652 3187 3391 
C 3187 3138 3098 2936 2931 2806 
C 2771 2682 2586 2636 2253 2636 
L 1101 2636 
z
M 1101 524 
L 1101 2112 
L 2554 2112 
C 2842 2112 3034 2042 3174 1890 
C 3315 1745 3392 1542 3392 1315 
C 3392 1093 3315 891 3174 746 
C 3034 594 2842 524 2554 524 
L 1101 524 
z
" transform="scale(0.015625)"/>
       <path id="NimbusSanL-Regu-6c" d="M 973 4672 
L 435 4672 
L 435 0 
L 973 0 
L 973 4672 
z
" transform="scale(0.015625)"/>
       <path id="NimbusSanL-Regu-31" d="M 1658 3232 
L 1658 0 
L 2221 0 
L 2221 4537 
L 1850 4537 
C 1651 3840 1523 3744 653 3635 
L 653 3232 
L 1658 3232 
z
" transform="scale(0.015625)"/>
      </defs>
      <use xlink:href="#NimbusSanL-Regu-41" transform="scale(0.996264)"/>
      <use xlink:href="#NimbusSanL-Regu-65" transform="translate(66.450031 0) scale(0.996264)"/>
      <use xlink:href="#NimbusSanL-Regu-72" transform="translate(121.841708 0) scale(0.996264)"/>
      <use xlink:href="#NimbusSanL-Regu-6f" transform="translate(155.016938 0) scale(0.996264)"/>
      <use xlink:href="#NimbusSanL-Regu-64" transform="translate(210.408615 0) scale(0.996264)"/>
      <use xlink:href="#NimbusSanL-Regu-79" transform="translate(265.800292 0) scale(0.996264)"/>
      <use xlink:href="#NimbusSanL-Regu-6e" transform="translate(315.613492 0) scale(0.996264)"/>
      <use xlink:href="#NimbusSanL-Regu-61" transform="translate(371.005169 0) scale(0.996264)"/>
      <use xlink:href="#NimbusSanL-Regu-6d" transform="translate(426.396846 0) scale(0.996264)"/>
      <use xlink:href="#NimbusSanL-Regu-69" transform="translate(509.385276 0) scale(0.996264)"/>
      <use xlink:href="#NimbusSanL-Regu-63" transform="translate(531.502061 0) scale(0.996264)"/>
      <use xlink:href="#NimbusSanL-Regu-43" transform="translate(609.010431 0) scale(0.996264)"/>
      <use xlink:href="#NimbusSanL-Regu-6f" transform="translate(680.940416 0) scale(0.996264)"/>
      <use xlink:href="#NimbusSanL-Regu-65" transform="translate(736.332093 0) scale(0.996264)"/>
      <use xlink:href="#NimbusSanL-Regu-66" transform="translate(791.72377 0) scale(0.996264)"/>
      <use xlink:href="#NimbusSanL-Regu-2" transform="translate(819.418939 0) scale(0.996264)"/>
      <use xlink:href="#NimbusSanL-Regu-63" transform="translate(869.23214 0) scale(0.996264)"/>
      <use xlink:href="#NimbusSanL-Regu-69" transform="translate(919.04534 0) scale(0.996264)"/>
      <use xlink:href="#NimbusSanL-Regu-65" transform="translate(941.162125 0) scale(0.996264)"/>
      <use xlink:href="#NimbusSanL-Regu-6e" transform="translate(996.553802 0) scale(0.996264)"/>
      <use xlink:href="#NimbusSanL-Regu-74" transform="translate(1051.945479 0) scale(0.996264)"/>
      <use xlink:href="#NimbusSanL-Regu-73" transform="translate(1079.640648 0) scale(0.996264)"/>
      <use xlink:href="#NimbusSanL-Regu-2d" transform="translate(1157.149018 0) scale(0.996264)"/>
      <use xlink:href="#NimbusSanL-Regu-42" transform="translate(1218.019418 0) scale(0.996264)"/>
      <use xlink:href="#NimbusSanL-Regu-6c" transform="translate(1284.469449 0) scale(0.996264)"/>
      <use xlink:href="#NimbusSanL-Regu-61" transform="translate(1306.586233 0) scale(0.996264)"/>
      <use xlink:href="#NimbusSanL-Regu-64" transform="translate(1361.97791 0) scale(0.996264)"/>
      <use xlink:href="#NimbusSanL-Regu-65" transform="translate(1417.369587 0) scale(0.996264)"/>
      <use xlink:href="#NimbusSanL-Regu-31" transform="translate(1508.626829 0) scale(0.996264)"/>
      <path d="M 1478.738605 0 
L 1508.626829 0 
L 1508.626829 0.3985 
L 1478.738605 0.3985 
L 1478.738605 0 
z
"/>
     </g>
    </g>
   </g>
   <g id="line2d_14">
    <path d="M 55.552935 120.907428 
L 55.851233 17.671766 
L 55.950666 17.28 
L 56.050098 18.192185 
L 56.348397 26.487918 
L 56.646695 32.163918 
L 56.944993 33.125198 
L 57.143859 35.294096 
L 57.442157 42.201425 
L 57.740455 52.035128 
L 57.939321 53.352618 
L 58.237619 57.396919 
L 58.535917 66.056391 
L 58.734783 77.774755 
L 58.933648 89.35461 
L 59.231946 93.737982 
L 59.530245 103.937527 
L 59.828543 127.13836 
L 60.226274 171.780128 
L 60.524572 177.279656 
L 60.82287 187.650629 
L 61.518899 217.526148 
L 61.717765 218.88 
L 62.214929 218.769921 
L 62.513227 218.385341 
L 62.712092 217.763915 
L 62.910958 216.222289 
L 63.109823 214.397652 
L 63.408122 213.674176 
L 63.70642 211.952873 
L 63.905285 209.567875 
L 64.104151 204.909673 
L 64.303016 200.615267 
L 64.601315 199.049817 
L 64.899613 195.642628 
L 65.197911 188.309595 
L 65.496209 172.248313 
L 65.695075 162.710802 
L 65.993373 159.437635 
L 66.291671 152.745104 
L 66.58997 140.373957 
L 67.087133 117.074883 
L 67.385431 115.676465 
L 67.982028 112.155479 
L 68.081461 112.437115 
L 68.479192 115.811142 
L 68.77749 116.997003 
L 69.075788 119.571467 
L 69.374086 124.810841 
L 69.771817 133.889206 
L 70.070116 134.941678 
L 70.368414 136.998013 
L 70.666712 140.670667 
L 71.064443 146.814799 
L 71.362741 147.637913 
L 71.66104 149.252224 
L 71.959338 152.355058 
L 72.257636 158.308893 
L 72.456502 161.727768 
L 72.7548 162.90844 
L 73.053098 165.314783 
L 73.351396 170.061524 
L 73.84856 179.552776 
L 74.146858 181.155829 
L 74.445156 184.144707 
L 74.842887 191.374994 
L 75.141186 196.304567 
L 75.439484 197.067331 
L 75.737782 198.363771 
L 76.433811 202.328713 
L 76.73211 202.211456 
L 77.129841 201.963246 
L 77.428139 201.398295 
L 77.627004 200.597022 
L 77.925303 199.077274 
L 78.223601 198.767412 
L 78.521899 198.115147 
L 78.820197 196.756102 
L 79.019063 195.038786 
L 79.217928 191.795055 
L 79.416794 188.910097 
L 79.715092 187.890105 
L 80.01339 185.657616 
L 80.311688 181.086964 
L 80.609987 171.908402 
L 80.808852 167.838269 
L 81.10715 166.505844 
L 81.405449 163.767399 
L 81.703747 158.727832 
L 82.300343 146.109375 
L 82.598642 144.592445 
L 82.89694 141.79597 
L 83.791835 131.507942 
L 84.090133 131.053921 
L 84.587297 130.052304 
L 84.686729 130.131604 
L 84.786162 130.53552 
L 84.985028 133.299357 
L 85.183893 136.43284 
L 85.482191 137.599461 
L 85.78049 140.131022 
L 86.078788 144.809653 
L 86.476519 155.215587 
L 86.675384 158.338959 
L 86.973682 159.260351 
L 87.271981 161.103053 
L 87.96801 166.372247 
L 88.266308 166.602215 
L 88.664039 167.247288 
L 89.06177 167.837009 
L 89.161203 167.608694 
L 89.360068 166.867977 
L 89.658367 166.554546 
L 89.956665 165.779524 
L 90.254963 163.983946 
L 90.752127 159.933253 
L 91.050425 159.207966 
L 91.348723 157.735393 
L 91.746454 154.140535 
L 92.044753 152.186816 
L 92.442484 151.848036 
L 93.03908 151.085557 
L 93.138513 151.129318 
L 93.237946 151.387249 
L 93.436811 152.009942 
L 93.735109 152.262653 
L 94.033407 152.853294 
L 94.331706 154.060275 
L 94.530571 155.565978 
L 94.729437 156.851046 
L 95.027735 157.297404 
L 95.326033 158.281638 
L 95.624331 160.187598 
L 96.419793 166.900673 
L 96.618659 167.343105 
L 96.718092 167.354383 
L 96.916957 167.000234 
L 97.314688 165.958964 
L 97.612986 165.644197 
L 97.911285 164.942309 
L 98.209583 163.39154 
L 98.706747 159.544456 
L 99.005045 158.83623 
L 99.303343 157.45751 
L 99.701074 154.465179 
L 99.89994 153.471975 
L 100.198238 153.177985 
L 100.496536 152.568459 
L 101.192565 150.918461 
L 101.888594 150.94101 
L 102.08746 151.117635 
L 102.286325 151.604458 
L 102.584624 152.747571 
L 102.882922 152.992682 
L 103.18122 153.529859 
L 103.479518 154.604517 
L 103.877249 157.306531 
L 104.076115 158.224261 
L 104.374413 158.508663 
L 104.672711 159.108466 
L 105.070442 160.49033 
L 105.368741 161.348266 
L 105.865904 161.605533 
L 106.363068 161.987118 
L 106.561934 161.832418 
L 106.959665 161.155008 
L 107.357395 160.833203 
L 107.655694 160.242062 
L 107.953992 159.061872 
L 108.152857 158.443429 
L 108.550588 158.13674 
L 108.848887 157.620937 
L 109.147185 156.707687 
L 109.644349 154.991499 
L 109.942647 154.675902 
L 110.141512 154.738053 
L 110.340378 154.889081 
L 110.936974 155.096462 
L 111.235273 155.424524 
L 111.732436 156.135153 
L 112.2296 156.38569 
L 112.627331 156.842626 
L 113.025062 157.297714 
L 114.218255 157.235075 
L 115.013717 156.868751 
L 115.908612 156.676486 
L 116.604641 156.62032 
L 117.201237 156.502412 
L 117.598968 156.307053 
L 118.195565 156.137744 
L 118.493863 155.89156 
L 118.891594 155.197702 
L 119.09046 154.97859 
L 119.687056 154.782504 
L 120.482518 154.44035 
L 121.27798 154.499777 
L 121.576278 154.778722 
L 121.775144 154.983657 
L 122.272307 155.145495 
L 122.670038 155.533307 
L 122.968337 156.205321 
L 123.167202 156.567593 
L 123.564933 156.750303 
L 123.962664 157.219313 
L 124.260962 157.939824 
L 124.459828 158.304939 
L 124.956992 158.564288 
L 125.354723 159.067769 
L 125.851886 159.881675 
L 126.448483 160.060082 
L 126.945647 160.208248 
L 127.144512 160.038142 
L 127.641676 159.316415 
L 128.039407 159.096607 
L 128.337705 158.707948 
L 128.636003 157.899645 
L 128.934301 156.886919 
L 129.332032 156.590135 
L 129.630331 156.098319 
L 130.028062 154.953248 
L 130.226927 154.606056 
L 130.724091 154.399594 
L 131.320687 154.076742 
L 132.414448 154.871464 
L 132.712746 155.647953 
L 133.011044 156.540327 
L 133.408775 156.781459 
L 133.806506 157.333415 
L 134.30367 158.242609 
L 134.900266 158.451294 
L 135.496863 158.745493 
L 135.894594 158.679146 
L 136.49119 158.495835 
L 136.789488 158.164831 
L 137.187219 157.570292 
L 137.684383 157.397065 
L 138.082114 157.01784 
L 138.579278 156.44533 
L 139.076442 156.232572 
L 139.474173 155.776054 
L 139.871904 155.122355 
L 140.369067 154.946191 
L 140.866231 154.497819 
L 141.263962 154.190988 
L 142.158857 154.209868 
L 142.357722 154.35825 
L 142.65602 154.942239 
L 142.854886 155.295411 
L 143.252617 155.486226 
L 143.650348 155.980291 
L 144.048079 156.984669 
L 144.346377 157.73586 
L 145.042406 157.916699 
L 145.440137 157.946768 
L 145.937301 157.632067 
L 146.335032 157.431599 
L 146.63333 157.057319 
L 146.931629 156.315434 
L 147.130494 155.964824 
L 147.627658 155.72342 
L 148.025389 155.265799 
L 148.42312 154.819271 
L 149.51688 154.743737 
L 149.914611 155.000251 
L 150.411775 155.179894 
L 150.710073 155.466203 
L 151.107804 156.25952 
L 151.406102 156.734555 
L 151.903266 156.910062 
L 152.997026 157.509302 
L 153.693055 157.518146 
L 153.991353 157.213727 
L 154.190219 157.005985 
L 154.687383 156.839472 
L 155.085114 156.464002 
L 155.582277 155.890729 
L 156.079441 155.693333 
L 157.073769 155.121117 
L 157.769798 155.166544 
L 158.068096 155.408749 
L 158.366394 155.724513 
L 158.962991 155.919509 
L 159.460155 156.363263 
L 159.65902 156.476248 
L 161.548242 156.522589 
L 162.045406 156.278924 
L 162.642002 155.795054 
L 163.238599 155.624049 
L 164.034061 155.338163 
L 165.227254 155.378076 
L 166.122149 155.506188 
L 166.818178 155.663833 
L 170.000026 155.851214 
L 170.89492 155.666044 
L 171.889248 155.550846 
L 175.468827 155.498053 
L 182.82685 155.405759 
L 186.008698 155.228761 
L 189.488844 155.449117 
L 190.682037 155.335619 
L 191.179201 155.29161 
L 195.85254 155.112537 
L 197.841195 155.265471 
L 200.327013 155.18233 
L 200.92361 155.145425 
L 202.216235 154.962239 
L 203.210563 154.943938 
L 206.094113 155.100503 
L 208.281633 154.997543 
L 209.773124 154.902318 
L 212.258943 154.89632 
L 218.821504 154.882227 
L 236.321667 154.80226 
L 244.674018 154.730402 
L 257.202544 154.613829 
L 306.620619 154.604479 
L 347.487478 154.7003 
L 359.916571 154.705854 
L 359.916571 154.705854 
" clip-path="url(#p3f1c462fdd)" style="fill: none; stroke: #1f77b4; stroke-width: 1.5; stroke-linecap: square"/>
   </g>
   <g id="line2d_15">
    <path d="M 55.552935 191.217304 
L 55.7518 210.861541 
L 55.851233 210.713511 
L 56.050098 209.681702 
L 56.447829 207.401589 
L 56.547262 207.351793 
L 56.944993 208.028456 
L 57.143859 208.706089 
L 57.54159 212.863068 
L 57.740455 214.112996 
L 58.038753 214.482486 
L 58.63535 215.58396 
L 58.734783 215.386461 
L 58.933648 214.667945 
L 59.231946 214.357253 
L 59.430812 213.890046 
L 59.629677 212.967644 
L 59.828543 210.985994 
L 60.027408 206.623142 
L 60.226274 203.2362 
L 60.524572 201.876756 
L 60.82287 199.04484 
L 61.419467 189.314909 
L 61.817198 184.915128 
L 62.016063 184.645099 
L 62.314361 183.705532 
L 62.61266 181.714349 
L 62.910958 177.736356 
L 63.109823 175.674489 
L 63.408122 175.055936 
L 63.70642 173.737881 
L 64.402449 170.012619 
L 64.700747 169.686438 
L 64.999046 169.037978 
L 65.396777 167.897581 
L 65.496209 167.953558 
L 65.695075 168.735894 
L 65.993373 169.133453 
L 66.192239 169.721628 
L 66.391104 170.882293 
L 66.58997 173.15709 
L 66.888268 179.832285 
L 67.087133 182.767936 
L 67.385431 183.651378 
L 67.68373 185.255976 
L 68.479192 190.387117 
L 68.77749 190.878954 
L 69.075788 191.949836 
L 69.374086 194.078499 
L 69.771817 197.854116 
L 70.070116 198.289073 
L 70.368414 199.190677 
L 70.766145 201.468956 
L 71.064443 203.197031 
L 71.362741 203.489915 
L 71.66104 204.062775 
L 72.058771 205.482092 
L 72.456502 207.041337 
L 72.854233 207.284883 
L 73.550262 207.84596 
L 73.749127 207.638739 
L 74.146858 207.485612 
L 74.445156 207.155578 
L 74.743455 206.332448 
L 75.240618 204.219834 
L 75.538917 203.82435 
L 75.837215 203.042008 
L 76.135513 201.587308 
L 76.433811 199.055035 
L 76.632677 197.779527 
L 76.930975 197.363186 
L 77.229273 196.53895 
L 77.527572 195.072097 
L 77.925303 192.560892 
L 78.223601 192.217561 
L 78.521899 191.529312 
L 78.820197 190.230738 
L 79.118496 187.883259 
L 79.416794 185.145284 
L 79.715092 184.630609 
L 80.01339 183.54683 
L 80.311688 181.569973 
L 80.808852 177.538432 
L 81.10715 177.258925 
L 81.504881 176.531017 
L 81.80318 176.03752 
L 81.902612 176.102743 
L 82.300343 177.289233 
L 82.598642 177.699952 
L 82.89694 178.634601 
L 83.195238 180.550211 
L 83.493536 184.261835 
L 83.692402 186.114954 
L 83.9907 186.692027 
L 84.288998 187.903185 
L 84.686729 190.657248 
L 85.283326 195.477442 
L 85.581624 196.016521 
L 86.277653 197.947426 
L 86.377086 197.818474 
L 86.774817 196.433427 
L 87.073115 195.973189 
L 87.371413 194.982903 
L 87.669712 193.021472 
L 87.96801 190.86067 
L 88.266308 190.494007 
L 88.564606 189.743769 
L 88.962337 188.003181 
L 89.360068 186.033062 
L 89.757799 185.747324 
L 90.553261 184.945858 
L 91.249291 185.101311 
L 91.448156 185.327661 
L 91.647022 185.875361 
L 92.144185 187.991764 
L 92.442484 188.376391 
L 92.740782 189.112905 
L 93.03908 190.407064 
L 93.436811 192.752916 
L 93.735109 193.033148 
L 94.033407 193.597323 
L 94.431138 194.833028 
L 94.729437 195.619562 
L 95.2266 195.848118 
L 95.624331 196.054851 
L 95.823197 195.863894 
L 96.121495 194.990148 
L 96.519226 192.894974 
L 97.215255 188.666837 
L 97.513554 188.427053 
L 97.811852 187.925468 
L 98.607314 186.243716 
L 99.303343 186.311463 
L 99.502209 186.572075 
L 99.701074 187.244176 
L 99.89994 187.822734 
L 100.29767 188.1271 
L 100.595969 188.651511 
L 100.894267 189.696936 
L 101.192565 191.019618 
L 101.490863 191.264642 
L 101.789162 191.789176 
L 102.08746 192.7088 
L 102.684056 194.8347 
L 102.982355 195.082542 
L 103.380086 195.725067 
L 103.877249 196.567012 
L 104.672711 196.458724 
L 104.97101 196.177702 
L 105.169875 195.651946 
L 105.368741 195.161994 
L 105.766472 194.89333 
L 106.06477 194.410915 
L 106.363068 193.462455 
L 106.959665 191.017621 
L 107.257963 190.730006 
L 107.655694 189.956099 
L 108.152857 188.750762 
L 108.650021 188.565454 
L 109.147185 188.385505 
L 109.34605 188.595444 
L 109.644349 189.423334 
L 110.439811 192.208022 
L 110.738109 192.45267 
L 111.13584 193.150505 
L 111.732436 194.458485 
L 112.130167 194.685318 
L 112.925629 195.273008 
L 113.124495 195.176431 
L 113.721091 195.01789 
L 114.019389 194.692825 
L 114.317688 193.864425 
L 114.814851 192.217439 
L 115.212582 191.993382 
L 115.610313 191.436994 
L 116.008044 190.375974 
L 116.20691 190.024199 
L 116.704074 189.800158 
L 117.499536 189.301719 
L 118.39443 189.349388 
L 118.593296 189.508955 
L 118.891594 190.13119 
L 119.09046 190.487335 
L 119.488191 190.67844 
L 119.786489 191.007009 
L 120.084787 191.63112 
L 120.383085 192.321417 
L 120.780816 192.509215 
L 121.178547 192.951851 
L 121.576278 193.756441 
L 121.775144 194.012818 
L 122.272307 194.173052 
L 123.167202 194.553973 
L 123.962664 194.454537 
L 124.260962 194.188317 
L 124.459828 194.015143 
L 125.056424 193.826143 
L 125.354723 193.554707 
L 125.653021 192.969199 
L 125.851886 192.660867 
L 126.34905 192.441298 
L 126.746781 192.023198 
L 127.343377 191.210296 
L 127.939974 191.206043 
L 128.53657 191.29083 
L 129.928629 192.024235 
L 130.226927 192.382927 
L 130.724091 192.534917 
L 131.121822 192.857483 
L 131.42012 193.344252 
L 131.618986 193.596834 
L 132.116149 193.778322 
L 132.613313 194.25099 
L 133.011044 194.66057 
L 134.104804 194.701837 
L 134.30367 194.611612 
L 134.999699 194.469822 
L 135.297997 194.252506 
L 135.795161 193.691604 
L 136.292325 193.468047 
L 136.690056 193.021247 
L 137.187219 192.244011 
L 137.783816 192.074419 
L 138.380412 191.89133 
L 139.275307 191.98227 
L 139.573605 192.251767 
L 139.871904 192.696597 
L 140.369067 192.89696 
L 140.766798 193.33754 
L 141.065096 194.009851 
L 141.263962 194.322844 
L 141.761126 194.535526 
L 142.65602 195.165406 
L 142.954319 195.073665 
L 143.550915 194.900373 
L 143.849213 194.61567 
L 144.545243 193.647682 
L 145.141839 193.408668 
L 145.639003 193.215138 
L 146.533898 193.336137 
L 146.832196 193.592047 
L 147.130494 193.969174 
L 147.627658 194.135642 
L 148.025389 194.476601 
L 148.42312 194.880167 
L 149.119149 195.044009 
L 149.616313 195.190214 
L 150.113476 195.135124 
L 150.710073 194.961995 
L 151.008371 194.640434 
L 151.406102 194.179951 
L 152.002699 194.01308 
L 152.897593 193.661477 
L 153.693055 193.688806 
L 153.991353 193.930207 
L 154.190219 194.078905 
L 154.786815 194.240262 
L 155.184546 194.552441 
L 155.482845 194.826349 
L 156.178874 195.00993 
L 156.974336 195.304525 
L 157.968663 195.214262 
L 158.465827 194.947781 
L 159.161856 194.766042 
L 159.857886 194.504715 
L 161.349377 194.466572 
L 162.045406 194.63196 
L 162.741435 194.936936 
L 164.928956 195.089717 
L 165.525552 195.000884 
L 168.210236 194.883923 
L 169.105131 195.022475 
L 169.502862 195.065073 
L 171.292651 195.060086 
L 172.088113 195.02639 
L 173.77847 195.057725 
L 175.767125 195.283725 
L 178.750107 195.31611 
L 182.031388 195.246486 
L 182.727417 195.289122 
L 184.417774 195.521614 
L 185.909265 195.692853 
L 187.301323 195.682576 
L 190.08544 195.479385 
L 191.676364 195.555153 
L 195.15651 195.858142 
L 197.642329 195.775416 
L 198.636657 195.733171 
L 200.824177 195.696035 
L 202.315668 195.821253 
L 203.906592 195.923407 
L 250.54055 196.072846 
L 280.867538 195.910932 
L 317.061057 195.555042 
L 359.916571 195.432123 
L 359.916571 195.432123 
" clip-path="url(#p3f1c462fdd)" style="fill: none; stroke: #ff7f0e; stroke-width: 1.5; stroke-linecap: square"/>
   </g>
   <g id="patch_3">
    <path d="M 40.334753 228.96 
L 40.334753 7.2 
" style="fill: none; stroke: #000000; stroke-width: 0.8; stroke-linejoin: miter; stroke-linecap: square"/>
   </g>
   <g id="patch_4">
    <path d="M 375.134753 228.96 
L 375.134753 7.2 
" style="fill: none; stroke: #000000; stroke-width: 0.8; stroke-linejoin: miter; stroke-linecap: square"/>
   </g>
   <g id="patch_5">
    <path d="M 40.334753 228.96 
L 375.134753 228.96 
" style="fill: none; stroke: #000000; stroke-width: 0.8; stroke-linejoin: miter; stroke-linecap: square"/>
   </g>
   <g id="patch_6">
    <path d="M 40.334753 7.2 
L 375.134753 7.2 
" style="fill: none; stroke: #000000; stroke-width: 0.8; stroke-linejoin: miter; stroke-linecap: square"/>
   </g>
   <g id="legend_1">
    <g id="patch_7">
     <path d="M 321.748759 43.640613 
L 368.134753 43.640613 
Q 370.134753 43.640613 370.134753 41.640613 
L 370.134753 14.2 
Q 370.134753 12.2 368.134753 12.2 
L 321.748759 12.2 
Q 319.748759 12.2 319.748759 14.2 
L 319.748759 41.640613 
Q 319.748759 43.640613 321.748759 43.640613 
z
" style="fill: #ffffff; opacity: 0.8; stroke: #cccccc; stroke-linejoin: miter"/>
    </g>
    <g id="line2d_16">
     <path d="M 323.748759 19.79832 
L 333.748759 19.79832 
L 343.748759 19.79832 
" style="fill: none; stroke: #1f77b4; stroke-width: 1.5; stroke-linecap: square"/>
    </g>
    <g id="text_16">
     <!-- CD -->
     <g transform="translate(351.748759 23.29832) scale(0.1 -0.1)">
      <defs>
       <path id="NimbusSanL-Regu-44" d="M 570 0 
L 2368 0 
C 3546 0 4269 883 4269 2339 
C 4269 3788 3552 4672 2368 4672 
L 570 4672 
L 570 0 
z
M 1165 524 
L 1165 4147 
L 2266 4147 
C 3187 4147 3674 3525 3674 2332 
C 3674 1153 3187 524 2266 524 
L 1165 524 
z
" transform="scale(0.015625)"/>
      </defs>
      <use xlink:href="#NimbusSanL-Regu-43" transform="scale(0.996264)"/>
      <use xlink:href="#NimbusSanL-Regu-44" transform="translate(71.929985 0) scale(0.996264)"/>
     </g>
    </g>
    <g id="line2d_17">
     <path d="M 323.748759 34.018627 
L 333.748759 34.018627 
L 343.748759 34.018627 
" style="fill: none; stroke: #ff7f0e; stroke-width: 1.5; stroke-linecap: square"/>
    </g>
    <g id="text_17">
     <!-- CL -->
     <g transform="translate(351.748759 37.518627) scale(0.1 -0.1)">
      <defs>
       <path id="NimbusSanL-Regu-4c" d="M 1107 4672 
L 512 4672 
L 512 0 
L 3411 0 
L 3411 524 
L 1107 524 
L 1107 4672 
z
" transform="scale(0.015625)"/>
      </defs>
      <use xlink:href="#NimbusSanL-Regu-43" transform="scale(0.996264)"/>
      <use xlink:href="#NimbusSanL-Regu-4c" transform="translate(71.929985 0) scale(0.996264)"/>
     </g>
    </g>
   </g>
  </g>
 </g>
 <defs>
  <clipPath id="p3f1c462fdd">
   <rect x="40.334753" y="7.2" width="334.8" height="221.76"/>
  </clipPath>
 </defs>
</svg>
