<?xml version="1.0" encoding="utf-8" standalone="no"?>
<!DOCTYPE svg PUBLIC "-//W3C//DTD SVG 1.1//EN"
  "http://www.w3.org/Graphics/SVG/1.1/DTD/svg11.dtd">
<svg xmlns:xlink="http://www.w3.org/1999/xlink" width="389.289967pt" height="265.600613pt" viewBox="0 0 389.289967 265.600613" xmlns="http://www.w3.org/2000/svg" version="1.1">
 <metadata>
  <rdf:RDF xmlns:dc="http://purl.org/dc/elements/1.1/" xmlns:cc="http://creativecommons.org/ns#" xmlns:rdf="http://www.w3.org/1999/02/22-rdf-syntax-ns#">
   <cc:Work>
    <dc:type rdf:resource="http://purl.org/dc/dcmitype/StillImage"/>
    <dc:date>2025-07-17T20:35:52.896522</dc:date>
    <dc:format>image/svg+xml</dc:format>
    <dc:creator>
     <cc:Agent>
      <dc:title>Matplotlib v3.10.3, https://matplotlib.org/</dc:title>
     </cc:Agent>
    </dc:creator>
   </cc:Work>
  </rdf:RDF>
 </metadata>
 <defs>
  <style type="text/css">*{stroke-linejoin: round; stroke-linecap: butt}</style>
 </defs>
 <g id="figure_1">
  <g id="patch_1">
   <path d="M 0 265.600613 
L 389.289967 265.600613 
L 389.289967 0 
L 0 0 
z
" style="fill: #ffffff"/>
  </g>
  <g id="axes_1">
   <g id="patch_2">
    <path d="M 40.334753 228.96 
L 375.134753 228.96 
L 375.134753 7.2 
L 40.334753 7.2 
z
" style="fill: #ffffff"/>
   </g>
   <g id="matplotlib.axis_1">
    <g id="xtick_1">
     <g id="line2d_1">
      <defs>
       <path id="m4f679d7505" d="M 0 0 
L 0 3.5 
" style="stroke: #000000; stroke-width: 0.8"/>
      </defs>
      <g>
       <use xlink:href="#m4f679d7505" x="55.552935" y="228.96" style="stroke: #000000; stroke-width: 0.8"/>
      </g>
     </g>
     <g id="text_1">
      <!-- $\mathdefault{0}$ -->
      <g transform="translate(53.062267 243.05832) scale(0.1 -0.1)">
       <defs>
        <path id="CMR17-30" d="M 2688 2038 
C 2688 2430 2682 3099 2413 3613 
C 2176 4063 1798 4224 1466 4224 
C 1158 4224 768 4082 525 3620 
C 269 3137 243 2539 243 2038 
C 243 1671 250 1112 448 623 
C 723 -39 1216 -128 1466 -128 
C 1760 -128 2208 -7 2470 604 
C 2662 1048 2688 1568 2688 2038 
z
M 1466 -26 
C 1056 -26 813 328 723 816 
C 653 1196 653 1749 653 2109 
C 653 2604 653 3015 736 3407 
C 858 3954 1216 4121 1466 4121 
C 1728 4121 2067 3947 2189 3420 
C 2272 3054 2278 2623 2278 2109 
C 2278 1691 2278 1176 2202 797 
C 2067 96 1690 -26 1466 -26 
z
" transform="scale(0.015625)"/>
       </defs>
       <use xlink:href="#CMR17-30" transform="scale(0.996264)"/>
      </g>
     </g>
    </g>
    <g id="xtick_2">
     <g id="line2d_2">
      <g>
       <use xlink:href="#m4f679d7505" x="100.777843" y="228.96" style="stroke: #000000; stroke-width: 0.8"/>
      </g>
     </g>
     <g id="text_2">
      <!-- $\mathdefault{500}$ -->
      <g transform="translate(93.305841 243.05832) scale(0.1 -0.1)">
       <defs>
        <path id="CMR17-35" d="M 730 3750 
C 794 3724 1056 3641 1325 3641 
C 1920 3641 2246 3961 2432 4140 
C 2432 4191 2432 4224 2394 4224 
C 2387 4224 2374 4224 2323 4198 
C 2099 4102 1837 4032 1517 4032 
C 1325 4032 1037 4055 723 4191 
C 653 4224 640 4224 634 4224 
C 602 4224 595 4217 595 4090 
L 595 2231 
C 595 2113 595 2080 659 2080 
C 691 2080 704 2093 736 2139 
C 941 2435 1222 2560 1542 2560 
C 1766 2560 2246 2415 2246 1293 
C 2246 1087 2246 716 2054 422 
C 1894 159 1645 25 1370 25 
C 947 25 518 319 403 812 
C 429 806 480 793 506 793 
C 589 793 749 838 749 1036 
C 749 1209 627 1280 506 1280 
C 358 1280 262 1190 262 1011 
C 262 454 704 -128 1382 -128 
C 2042 -128 2669 441 2669 1267 
C 2669 2054 2170 2662 1549 2662 
C 1222 2662 947 2540 730 2304 
L 730 3750 
z
" transform="scale(0.015625)"/>
       </defs>
       <use xlink:href="#CMR17-35" transform="scale(0.996264)"/>
       <use xlink:href="#CMR17-30" transform="translate(45.690477 0) scale(0.996264)"/>
       <use xlink:href="#CMR17-30" transform="translate(91.380954 0) scale(0.996264)"/>
      </g>
     </g>
    </g>
    <g id="xtick_3">
     <g id="line2d_3">
      <g>
       <use xlink:href="#m4f679d7505" x="146.002752" y="228.96" style="stroke: #000000; stroke-width: 0.8"/>
      </g>
     </g>
     <g id="text_3">
      <!-- $\mathdefault{1000}$ -->
      <g transform="translate(136.040082 243.05832) scale(0.1 -0.1)">
       <defs>
        <path id="CMR17-31" d="M 1702 4083 
C 1702 4217 1696 4224 1606 4224 
C 1357 3927 979 3833 621 3820 
C 602 3820 570 3820 563 3808 
C 557 3795 557 3782 557 3648 
C 755 3648 1088 3686 1344 3839 
L 1344 467 
C 1344 243 1331 166 781 166 
L 589 166 
L 589 0 
C 896 6 1216 12 1523 12 
C 1830 12 2150 6 2458 0 
L 2458 166 
L 2266 166 
C 1715 166 1702 236 1702 467 
L 1702 4083 
z
" transform="scale(0.015625)"/>
       </defs>
       <use xlink:href="#CMR17-31" transform="scale(0.996264)"/>
       <use xlink:href="#CMR17-30" transform="translate(45.690477 0) scale(0.996264)"/>
       <use xlink:href="#CMR17-30" transform="translate(91.380954 0) scale(0.996264)"/>
       <use xlink:href="#CMR17-30" transform="translate(137.071431 0) scale(0.996264)"/>
      </g>
     </g>
    </g>
    <g id="xtick_4">
     <g id="line2d_4">
      <g>
       <use xlink:href="#m4f679d7505" x="191.227661" y="228.96" style="stroke: #000000; stroke-width: 0.8"/>
      </g>
     </g>
     <g id="text_4">
      <!-- $\mathdefault{1500}$ -->
      <g transform="translate(181.264991 243.05832) scale(0.1 -0.1)">
       <use xlink:href="#CMR17-31" transform="scale(0.996264)"/>
       <use xlink:href="#CMR17-35" transform="translate(45.690477 0) scale(0.996264)"/>
       <use xlink:href="#CMR17-30" transform="translate(91.380954 0) scale(0.996264)"/>
       <use xlink:href="#CMR17-30" transform="translate(137.071431 0) scale(0.996264)"/>
      </g>
     </g>
    </g>
    <g id="xtick_5">
     <g id="line2d_5">
      <g>
       <use xlink:href="#m4f679d7505" x="236.45257" y="228.96" style="stroke: #000000; stroke-width: 0.8"/>
      </g>
     </g>
     <g id="text_5">
      <!-- $\mathdefault{2000}$ -->
      <g transform="translate(226.489899 243.05832) scale(0.1 -0.1)">
       <defs>
        <path id="CMR17-32" d="M 2669 990 
L 2554 990 
C 2490 537 2438 460 2413 422 
C 2381 371 1920 371 1830 371 
L 602 371 
C 832 620 1280 1073 1824 1596 
C 2214 1966 2669 2400 2669 3033 
C 2669 3788 2067 4224 1395 4224 
C 691 4224 262 3603 262 3027 
C 262 2777 448 2745 525 2745 
C 589 2745 781 2783 781 3007 
C 781 3206 614 3264 525 3264 
C 486 3264 448 3257 422 3244 
C 544 3788 915 4057 1306 4057 
C 1862 4057 2227 3616 2227 3033 
C 2227 2477 1901 1998 1536 1583 
L 262 147 
L 262 0 
L 2515 0 
L 2669 990 
z
" transform="scale(0.015625)"/>
       </defs>
       <use xlink:href="#CMR17-32" transform="scale(0.996264)"/>
       <use xlink:href="#CMR17-30" transform="translate(45.690477 0) scale(0.996264)"/>
       <use xlink:href="#CMR17-30" transform="translate(91.380954 0) scale(0.996264)"/>
       <use xlink:href="#CMR17-30" transform="translate(137.071431 0) scale(0.996264)"/>
      </g>
     </g>
    </g>
    <g id="xtick_6">
     <g id="line2d_6">
      <g>
       <use xlink:href="#m4f679d7505" x="281.677479" y="228.96" style="stroke: #000000; stroke-width: 0.8"/>
      </g>
     </g>
     <g id="text_6">
      <!-- $\mathdefault{2500}$ -->
      <g transform="translate(271.714808 243.05832) scale(0.1 -0.1)">
       <use xlink:href="#CMR17-32" transform="scale(0.996264)"/>
       <use xlink:href="#CMR17-35" transform="translate(45.690477 0) scale(0.996264)"/>
       <use xlink:href="#CMR17-30" transform="translate(91.380954 0) scale(0.996264)"/>
       <use xlink:href="#CMR17-30" transform="translate(137.071431 0) scale(0.996264)"/>
      </g>
     </g>
    </g>
    <g id="xtick_7">
     <g id="line2d_7">
      <g>
       <use xlink:href="#m4f679d7505" x="326.902388" y="228.96" style="stroke: #000000; stroke-width: 0.8"/>
      </g>
     </g>
     <g id="text_7">
      <!-- $\mathdefault{3000}$ -->
      <g transform="translate(316.939717 243.05832) scale(0.1 -0.1)">
       <defs>
        <path id="CMR17-33" d="M 1414 2176 
C 1984 2176 2234 1673 2234 1094 
C 2234 322 1824 25 1453 25 
C 1114 25 563 193 390 691 
C 422 678 454 678 486 678 
C 640 678 755 780 755 947 
C 755 1132 614 1216 486 1216 
C 378 1216 211 1164 211 927 
C 211 335 787 -128 1466 -128 
C 2176 -128 2720 432 2720 1087 
C 2720 1718 2208 2176 1600 2246 
C 2086 2347 2554 2776 2554 3353 
C 2554 3856 2048 4224 1472 4224 
C 890 4224 378 3862 378 3347 
C 378 3123 544 3084 627 3084 
C 762 3084 877 3167 877 3334 
C 877 3500 762 3584 627 3584 
C 602 3584 570 3584 544 3571 
C 730 3999 1235 4076 1459 4076 
C 1683 4076 2106 3966 2106 3347 
C 2106 3167 2080 2851 1862 2574 
C 1670 2329 1453 2316 1242 2297 
C 1210 2297 1062 2284 1037 2284 
C 992 2278 966 2272 966 2227 
C 966 2182 973 2176 1101 2176 
L 1414 2176 
z
" transform="scale(0.015625)"/>
       </defs>
       <use xlink:href="#CMR17-33" transform="scale(0.996264)"/>
       <use xlink:href="#CMR17-30" transform="translate(45.690477 0) scale(0.996264)"/>
       <use xlink:href="#CMR17-30" transform="translate(91.380954 0) scale(0.996264)"/>
       <use xlink:href="#CMR17-30" transform="translate(137.071431 0) scale(0.996264)"/>
      </g>
     </g>
    </g>
    <g id="xtick_8">
     <g id="line2d_8">
      <g>
       <use xlink:href="#m4f679d7505" x="372.127296" y="228.96" style="stroke: #000000; stroke-width: 0.8"/>
      </g>
     </g>
     <g id="text_8">
      <!-- $\mathdefault{3500}$ -->
      <g transform="translate(362.164626 243.05832) scale(0.1 -0.1)">
       <use xlink:href="#CMR17-33" transform="scale(0.996264)"/>
       <use xlink:href="#CMR17-35" transform="translate(45.690477 0) scale(0.996264)"/>
       <use xlink:href="#CMR17-30" transform="translate(91.380954 0) scale(0.996264)"/>
       <use xlink:href="#CMR17-30" transform="translate(137.071431 0) scale(0.996264)"/>
      </g>
     </g>
    </g>
    <g id="text_9">
     <!-- Iteration -->
     <g transform="translate(189.787377 256.278627) scale(0.1 -0.1)">
      <defs>
       <path id="NimbusSanL-Regu-49" d="M 1242 4672 
L 640 4672 
L 640 0 
L 1242 0 
L 1242 4672 
z
" transform="scale(0.015625)"/>
       <path id="NimbusSanL-Regu-74" d="M 1626 3328 
L 1075 3328 
L 1075 4249 
L 544 4249 
L 544 3328 
L 90 3328 
L 90 2892 
L 544 2892 
L 544 402 
C 544 64 774 -128 1190 -128 
C 1318 -128 1446 -116 1626 -84 
L 1626 364 
C 1555 345 1472 339 1370 339 
C 1139 339 1075 402 1075 634 
L 1075 2892 
L 1626 2892 
L 1626 3328 
z
" transform="scale(0.015625)"/>
       <path id="NimbusSanL-Regu-65" d="M 3283 1484 
C 3283 1998 3245 2311 3149 2565 
C 2931 3123 2419 3456 1792 3456 
C 858 3456 256 2734 256 1619 
C 256 545 838 -128 1779 -128 
C 2547 -128 3078 307 3213 1018 
L 2675 1018 
C 2528 588 2227 364 1798 364 
C 1459 364 1171 514 992 787 
C 864 974 819 1161 813 1484 
L 3283 1484 
z
M 826 1920 
C 870 2552 1248 2963 1786 2963 
C 2310 2963 2714 2519 2714 1959 
C 2714 1946 2714 1933 2707 1920 
L 826 1920 
z
" transform="scale(0.015625)"/>
       <path id="NimbusSanL-Regu-72" d="M 442 3328 
L 442 0 
L 979 0 
L 979 1727 
C 979 2203 1101 2514 1357 2698 
C 1523 2819 1683 2857 2054 2863 
L 2054 3404 
C 1965 3449 1920 3456 1850 3456 
C 1504 3456 1242 3251 934 2750 
L 934 3328 
L 442 3328 
z
" transform="scale(0.015625)"/>
       <path id="NimbusSanL-Regu-61" d="M 3424 332 
C 3366 320 3341 320 3309 320 
C 3123 320 3021 415 3021 581 
L 3021 2542 
C 3021 3135 2586 3456 1760 3456 
C 1274 3456 870 3315 646 3065 
C 493 2893 429 2702 416 2370 
L 954 2370 
C 998 2778 1242 2963 1741 2963 
C 2221 2963 2490 2784 2490 2466 
L 2490 2326 
C 2490 2103 2355 2007 1933 1956 
C 1178 1861 1062 1835 858 1753 
C 467 1593 269 1294 269 861 
C 269 256 691 -128 1370 -128 
C 1792 -128 2131 19 2509 364 
C 2547 25 2714 -128 3059 -128 
C 3168 -128 3251 -116 3424 -71 
L 3424 332 
z
M 2490 1071 
C 2490 893 2438 785 2278 638 
C 2061 441 1798 339 1485 339 
C 1069 339 826 536 826 874 
C 826 1224 1062 1402 1632 1485 
C 2195 1562 2310 1587 2490 1670 
L 2490 1071 
z
" transform="scale(0.015625)"/>
       <path id="NimbusSanL-Regu-69" d="M 960 3358 
L 429 3358 
L 429 0 
L 960 0 
L 960 3358 
z
M 960 4672 
L 422 4672 
L 422 3999 
L 960 3999 
L 960 4672 
z
" transform="scale(0.015625)"/>
       <path id="NimbusSanL-Regu-6f" d="M 1741 3456 
C 800 3456 230 2784 230 1663 
C 230 543 794 -128 1747 -128 
C 2688 -128 3264 543 3264 1638 
C 3264 2791 2707 3456 1741 3456 
z
M 1747 2963 
C 2349 2963 2707 2472 2707 1644 
C 2707 861 2336 364 1747 364 
C 1152 364 787 855 787 1663 
C 787 2466 1152 2963 1747 2963 
z
" transform="scale(0.015625)"/>
       <path id="NimbusSanL-Regu-6e" d="M 448 3328 
L 448 0 
L 986 0 
L 986 1835 
C 986 2539 1344 2988 1894 2988 
C 2317 2988 2586 2732 2586 2328 
L 2586 0 
L 3117 0 
L 3117 2539 
C 3117 3097 2701 3456 2054 3456 
C 1555 3456 1235 3263 941 2796 
L 941 3328 
L 448 3328 
z
" transform="scale(0.015625)"/>
      </defs>
      <use xlink:href="#NimbusSanL-Regu-49" transform="scale(0.996264)"/>
      <use xlink:href="#NimbusSanL-Regu-74" transform="translate(27.69517 0) scale(0.996264)"/>
      <use xlink:href="#NimbusSanL-Regu-65" transform="translate(55.390339 0) scale(0.996264)"/>
      <use xlink:href="#NimbusSanL-Regu-72" transform="translate(110.782016 0) scale(0.996264)"/>
      <use xlink:href="#NimbusSanL-Regu-61" transform="translate(142.961149 0) scale(0.996264)"/>
      <use xlink:href="#NimbusSanL-Regu-74" transform="translate(198.352826 0) scale(0.996264)"/>
      <use xlink:href="#NimbusSanL-Regu-69" transform="translate(226.047996 0) scale(0.996264)"/>
      <use xlink:href="#NimbusSanL-Regu-6f" transform="translate(248.16478 0) scale(0.996264)"/>
      <use xlink:href="#NimbusSanL-Regu-6e" transform="translate(303.556457 0) scale(0.996264)"/>
     </g>
    </g>
   </g>
   <g id="matplotlib.axis_2">
    <g id="ytick_1">
     <g id="line2d_9">
      <defs>
       <path id="m6c04ebc582" d="M 0 0 
L -3.5 0 
" style="stroke: #000000; stroke-width: 0.8"/>
      </defs>
      <g>
       <use xlink:href="#m6c04ebc582" x="40.334753" y="207.075549" style="stroke: #000000; stroke-width: 0.8"/>
      </g>
     </g>
     <g id="text_10">
      <!-- $\mathdefault{−2}$ -->
      <g transform="translate(20.604674 210.624709) scale(0.1 -0.1)">
       <defs>
        <path id="CMSY10-0" d="M 4218 1472 
C 4326 1472 4442 1472 4442 1600 
C 4442 1728 4326 1728 4218 1728 
L 755 1728 
C 646 1728 531 1728 531 1600 
C 531 1472 646 1472 755 1472 
L 4218 1472 
z
" transform="scale(0.015625)"/>
       </defs>
       <use xlink:href="#CMSY10-0" transform="scale(0.996264)"/>
       <use xlink:href="#CMR17-32" transform="translate(77.487468 0) scale(0.996264)"/>
      </g>
     </g>
    </g>
    <g id="ytick_2">
     <g id="line2d_10">
      <g>
       <use xlink:href="#m6c04ebc582" x="40.334753" y="179.321347" style="stroke: #000000; stroke-width: 0.8"/>
      </g>
     </g>
     <g id="text_11">
      <!-- $\mathdefault{0}$ -->
      <g transform="translate(28.353418 182.870507) scale(0.1 -0.1)">
       <use xlink:href="#CMR17-30" transform="scale(0.996264)"/>
      </g>
     </g>
    </g>
    <g id="ytick_3">
     <g id="line2d_11">
      <g>
       <use xlink:href="#m6c04ebc582" x="40.334753" y="151.567145" style="stroke: #000000; stroke-width: 0.8"/>
      </g>
     </g>
     <g id="text_12">
      <!-- $\mathdefault{2}$ -->
      <g transform="translate(28.353418 155.116305) scale(0.1 -0.1)">
       <use xlink:href="#CMR17-32" transform="scale(0.996264)"/>
      </g>
     </g>
    </g>
    <g id="ytick_4">
     <g id="line2d_12">
      <g>
       <use xlink:href="#m6c04ebc582" x="40.334753" y="123.812943" style="stroke: #000000; stroke-width: 0.8"/>
      </g>
     </g>
     <g id="text_13">
      <!-- $\mathdefault{4}$ -->
      <g transform="translate(28.353418 127.362104) scale(0.1 -0.1)">
       <defs>
        <path id="CMR17-34" d="M 2150 4147 
C 2150 4281 2144 4288 2029 4288 
L 128 1254 
L 128 1088 
L 1779 1088 
L 1779 460 
C 1779 230 1766 166 1318 166 
L 1197 166 
L 1197 0 
C 1402 12 1747 12 1965 12 
C 2182 12 2528 12 2733 0 
L 2733 166 
L 2611 166 
C 2163 166 2150 230 2150 460 
L 2150 1088 
L 2803 1088 
L 2803 1254 
L 2150 1254 
L 2150 4147 
z
M 1798 3723 
L 1798 1254 
L 256 1254 
L 1798 3723 
z
" transform="scale(0.015625)"/>
       </defs>
       <use xlink:href="#CMR17-34" transform="scale(0.996264)"/>
      </g>
     </g>
    </g>
    <g id="ytick_5">
     <g id="line2d_13">
      <g>
       <use xlink:href="#m6c04ebc582" x="40.334753" y="96.058742" style="stroke: #000000; stroke-width: 0.8"/>
      </g>
     </g>
     <g id="text_14">
      <!-- $\mathdefault{6}$ -->
      <g transform="translate(28.353418 99.607902) scale(0.1 -0.1)">
       <defs>
        <path id="CMR17-36" d="M 678 2198 
C 678 3712 1395 4076 1811 4076 
C 1946 4076 2272 4049 2400 3782 
C 2298 3782 2106 3782 2106 3558 
C 2106 3385 2246 3328 2336 3328 
C 2394 3328 2566 3353 2566 3571 
C 2566 3987 2246 4224 1805 4224 
C 1043 4224 243 3411 243 2011 
C 243 257 966 -128 1478 -128 
C 2099 -128 2688 431 2688 1295 
C 2688 2101 2170 2688 1517 2688 
C 1126 2688 838 2430 678 1979 
L 678 2198 
z
M 1478 25 
C 691 25 691 1212 691 1450 
C 691 1914 909 2585 1504 2585 
C 1613 2585 1926 2585 2138 2140 
C 2253 1889 2253 1624 2253 1302 
C 2253 954 2253 696 2118 438 
C 1978 173 1773 25 1478 25 
z
" transform="scale(0.015625)"/>
       </defs>
       <use xlink:href="#CMR17-36" transform="scale(0.996264)"/>
      </g>
     </g>
    </g>
    <g id="ytick_6">
     <g id="line2d_14">
      <g>
       <use xlink:href="#m6c04ebc582" x="40.334753" y="68.30454" style="stroke: #000000; stroke-width: 0.8"/>
      </g>
     </g>
     <g id="text_15">
      <!-- $\mathdefault{8}$ -->
      <g transform="translate(28.353418 71.8537) scale(0.1 -0.1)">
       <defs>
        <path id="CMR17-38" d="M 1741 2289 
C 2144 2494 2554 2803 2554 3298 
C 2554 3884 1990 4224 1472 4224 
C 890 4224 378 3800 378 3215 
C 378 3054 416 2777 666 2533 
C 730 2469 998 2276 1171 2154 
C 883 2006 211 1652 211 945 
C 211 282 838 -128 1459 -128 
C 2144 -128 2720 366 2720 1022 
C 2720 1607 2330 1877 2074 2051 
L 1741 2289 
z
M 902 2855 
C 851 2887 595 3086 595 3388 
C 595 3781 998 4076 1459 4076 
C 1965 4076 2336 3716 2336 3298 
C 2336 2700 1670 2359 1638 2359 
C 1632 2359 1626 2359 1574 2398 
L 902 2855 
z
M 2080 1536 
C 2176 1466 2483 1253 2483 861 
C 2483 385 2010 25 1472 25 
C 890 25 448 443 448 951 
C 448 1459 838 1884 1280 2083 
L 2080 1536 
z
" transform="scale(0.015625)"/>
       </defs>
       <use xlink:href="#CMR17-38" transform="scale(0.996264)"/>
      </g>
     </g>
    </g>
    <g id="ytick_7">
     <g id="line2d_15">
      <g>
       <use xlink:href="#m6c04ebc582" x="40.334753" y="40.550338" style="stroke: #000000; stroke-width: 0.8"/>
      </g>
     </g>
     <g id="text_16">
      <!-- $\mathdefault{10}$ -->
      <g transform="translate(23.372082 44.099498) scale(0.1 -0.1)">
       <use xlink:href="#CMR17-31" transform="scale(0.996264)"/>
       <use xlink:href="#CMR17-30" transform="translate(45.690477 0) scale(0.996264)"/>
      </g>
     </g>
    </g>
    <g id="ytick_8">
     <g id="line2d_16">
      <g>
       <use xlink:href="#m6c04ebc582" x="40.334753" y="12.796136" style="stroke: #000000; stroke-width: 0.8"/>
      </g>
     </g>
     <g id="text_17">
      <!-- $\mathdefault{12}$ -->
      <g transform="translate(23.372082 16.345296) scale(0.1 -0.1)">
       <use xlink:href="#CMR17-31" transform="scale(0.996264)"/>
       <use xlink:href="#CMR17-32" transform="translate(45.690477 0) scale(0.996264)"/>
      </g>
     </g>
    </g>
    <g id="text_18">
     <!-- Aerodynamic Coefficients - Blade_18 -->
     <g transform="translate(14.482687 199.050447) rotate(-90) scale(0.1 -0.1)">
      <defs>
       <path id="NimbusSanL-Regu-41" d="M 3034 1408 
L 3514 0 
L 4179 0 
L 2541 4672 
L 1773 4672 
L 109 0 
L 742 0 
L 1235 1408 
L 3034 1408 
z
M 2867 1907 
L 1382 1907 
L 2150 4032 
L 2867 1907 
z
" transform="scale(0.015625)"/>
       <path id="NimbusSanL-Regu-64" d="M 3168 4672 
L 2637 4672 
L 2637 2937 
C 2413 3276 2054 3456 1606 3456 
C 736 3456 166 2759 166 1695 
C 166 568 723 -128 1626 -128 
C 2086 -128 2406 44 2694 460 
L 2694 19 
L 3168 19 
L 3168 4672 
z
M 1696 2956 
C 2272 2956 2637 2447 2637 1651 
C 2637 880 2266 371 1702 371 
C 1114 371 723 887 723 1663 
C 723 2440 1114 2956 1696 2956 
z
" transform="scale(0.015625)"/>
       <path id="NimbusSanL-Regu-79" d="M 2483 3328 
L 1555 724 
L 698 3328 
L 128 3328 
L 1261 -29 
L 1056 -558 
C 973 -794 851 -884 627 -884 
C 550 -884 461 -871 346 -845 
L 346 -1325 
C 454 -1383 563 -1408 704 -1408 
C 877 -1408 1062 -1351 1203 -1248 
C 1370 -1127 1466 -986 1568 -718 
L 3059 3328 
L 2483 3328 
z
" transform="scale(0.015625)"/>
       <path id="NimbusSanL-Regu-6d" d="M 448 3328 
L 448 0 
L 986 0 
L 986 2089 
C 986 2597 1338 2988 1773 2988 
C 2170 2988 2394 2744 2394 2315 
L 2394 0 
L 2931 0 
L 2931 2109 
C 2931 2597 3283 2988 3718 2988 
C 4109 2988 4339 2738 4339 2315 
L 4339 0 
L 4877 0 
L 4877 2520 
C 4877 3123 4531 3456 3904 3456 
C 3456 3456 3187 3321 2874 2943 
C 2675 3302 2406 3456 1971 3456 
C 1523 3456 1229 3289 941 2886 
L 941 3328 
L 448 3328 
z
" transform="scale(0.015625)"/>
       <path id="NimbusSanL-Regu-63" d="M 3014 2237 
C 2989 2561 2918 2771 2790 2956 
C 2560 3270 2157 3456 1690 3456 
C 787 3456 198 2740 198 1632 
C 198 555 774 -128 1683 -128 
C 2483 -128 2989 352 3053 1167 
L 2515 1167 
C 2426 632 2150 364 1696 364 
C 1107 364 755 842 755 1632 
C 755 2466 1101 2963 1683 2963 
C 2131 2963 2413 2701 2477 2237 
L 3014 2237 
z
" transform="scale(0.015625)"/>
       <path id="NimbusSanL-Regu-43" d="M 4237 3219 
C 4051 4236 3462 4736 2438 4736 
C 1811 4736 1306 4537 960 4154 
C 538 3696 307 3035 307 2284 
C 307 1522 544 867 986 415 
C 1344 44 1805 -128 2413 -128 
C 3552 -128 4192 485 4333 1712 
L 3718 1712 
C 3667 1394 3603 1178 3507 994 
C 3315 612 2918 396 2419 396 
C 1491 396 902 1134 902 2291 
C 902 3480 1466 4211 2368 4211 
C 2746 4211 3098 4096 3290 3918 
C 3462 3759 3558 3562 3629 3219 
L 4237 3219 
z
" transform="scale(0.015625)"/>
       <path id="NimbusSanL-Regu-66" d="M 1651 3328 
L 1094 3328 
L 1094 3860 
C 1094 4087 1222 4204 1466 4204 
C 1510 4204 1530 4204 1651 4198 
L 1651 4639 
C 1530 4665 1459 4672 1350 4672 
C 858 4672 563 4390 563 3905 
L 563 3328 
L 115 3328 
L 115 2892 
L 563 2892 
L 563 0 
L 1094 0 
L 1094 2892 
L 1651 2892 
L 1651 3328 
z
" transform="scale(0.015625)"/>
       <path id="NimbusSanL-Regu-2" d="M 1613 3328 
L 1056 3328 
L 1056 3860 
C 1056 4087 1184 4204 1427 4204 
C 1472 4204 1491 4204 1613 4198 
L 1613 4639 
C 1491 4665 1421 4672 1312 4672 
C 819 4672 525 4390 525 3905 
L 525 3328 
L 77 3328 
L 77 2892 
L 525 2892 
L 525 0 
L 1056 0 
L 1056 2892 
L 1613 2892 
L 1613 3328 
z
M 2790 3328 
L 2259 3328 
L 2259 0 
L 2790 0 
L 2790 3328 
z
M 2790 4672 
L 2259 4672 
L 2259 3999 
L 2790 3999 
L 2790 4672 
z
" transform="scale(0.015625)"/>
       <path id="NimbusSanL-Regu-73" d="M 2803 2428 
C 2797 3084 2362 3456 1587 3456 
C 806 3456 301 3052 301 2434 
C 301 1912 570 1663 1363 1472 
L 1862 1351 
C 2234 1262 2381 1129 2381 887 
C 2381 574 2067 364 1600 364 
C 1312 364 1069 447 934 587 
C 851 683 813 778 781 1014 
L 218 1014 
C 243 243 678 -128 1555 -128 
C 2400 -128 2938 288 2938 931 
C 2938 1428 2656 1702 1990 1861 
L 1478 1982 
C 1043 2084 858 2224 858 2459 
C 858 2765 1133 2963 1568 2963 
C 1997 2963 2227 2778 2240 2428 
L 2803 2428 
z
" transform="scale(0.015625)"/>
       <path id="NimbusSanL-Regu-2d" d="M 1818 1996 
L 294 1996 
L 294 1536 
L 1818 1536 
L 1818 1996 
z
" transform="scale(0.015625)"/>
       <path id="NimbusSanL-Regu-42" d="M 506 0 
L 2611 0 
C 3053 0 3379 121 3629 390 
C 3859 632 3987 961 3987 1321 
C 3987 1878 3731 2214 3136 2444 
C 3558 2643 3782 2994 3782 3476 
C 3782 3821 3654 4127 3411 4345 
C 3168 4569 2848 4672 2400 4672 
L 506 4672 
L 506 0 
z
M 1101 2636 
L 1101 4147 
L 2253 4147 
C 2586 4147 2771 4101 2931 3977 
C 3098 3847 3187 3652 3187 3391 
C 3187 3138 3098 2936 2931 2806 
C 2771 2682 2586 2636 2253 2636 
L 1101 2636 
z
M 1101 524 
L 1101 2112 
L 2554 2112 
C 2842 2112 3034 2042 3174 1890 
C 3315 1745 3392 1542 3392 1315 
C 3392 1093 3315 891 3174 746 
C 3034 594 2842 524 2554 524 
L 1101 524 
z
" transform="scale(0.015625)"/>
       <path id="NimbusSanL-Regu-6c" d="M 973 4672 
L 435 4672 
L 435 0 
L 973 0 
L 973 4672 
z
" transform="scale(0.015625)"/>
       <path id="NimbusSanL-Regu-31" d="M 1658 3232 
L 1658 0 
L 2221 0 
L 2221 4537 
L 1850 4537 
C 1651 3840 1523 3744 653 3635 
L 653 3232 
L 1658 3232 
z
" transform="scale(0.015625)"/>
       <path id="NimbusSanL-Regu-38" d="M 2502 2399 
C 2970 2681 3123 2910 3123 3337 
C 3123 4044 2566 4544 1760 4544 
C 960 4544 397 4044 397 3337 
C 397 2917 550 2687 1011 2399 
C 493 2150 237 1774 237 1276 
C 237 447 864 -128 1760 -128 
C 2656 -128 3283 447 3283 1270 
C 3283 1774 3027 2150 2502 2399 
z
M 1760 4044 
C 2240 4044 2547 3764 2547 3324 
C 2547 2904 2234 2624 1760 2624 
C 1286 2624 973 2904 973 3331 
C 973 3764 1286 4044 1760 4044 
z
M 1760 2150 
C 2323 2150 2707 1793 2707 1264 
C 2707 728 2323 371 1747 371 
C 1197 371 813 734 813 1264 
C 813 1793 1197 2150 1760 2150 
z
" transform="scale(0.015625)"/>
      </defs>
      <use xlink:href="#NimbusSanL-Regu-41" transform="scale(0.996264)"/>
      <use xlink:href="#NimbusSanL-Regu-65" transform="translate(66.450031 0) scale(0.996264)"/>
      <use xlink:href="#NimbusSanL-Regu-72" transform="translate(121.841708 0) scale(0.996264)"/>
      <use xlink:href="#NimbusSanL-Regu-6f" transform="translate(155.016938 0) scale(0.996264)"/>
      <use xlink:href="#NimbusSanL-Regu-64" transform="translate(210.408615 0) scale(0.996264)"/>
      <use xlink:href="#NimbusSanL-Regu-79" transform="translate(265.800292 0) scale(0.996264)"/>
      <use xlink:href="#NimbusSanL-Regu-6e" transform="translate(315.613492 0) scale(0.996264)"/>
      <use xlink:href="#NimbusSanL-Regu-61" transform="translate(371.005169 0) scale(0.996264)"/>
      <use xlink:href="#NimbusSanL-Regu-6d" transform="translate(426.396846 0) scale(0.996264)"/>
      <use xlink:href="#NimbusSanL-Regu-69" transform="translate(509.385276 0) scale(0.996264)"/>
      <use xlink:href="#NimbusSanL-Regu-63" transform="translate(531.502061 0) scale(0.996264)"/>
      <use xlink:href="#NimbusSanL-Regu-43" transform="translate(609.010431 0) scale(0.996264)"/>
      <use xlink:href="#NimbusSanL-Regu-6f" transform="translate(680.940416 0) scale(0.996264)"/>
      <use xlink:href="#NimbusSanL-Regu-65" transform="translate(736.332093 0) scale(0.996264)"/>
      <use xlink:href="#NimbusSanL-Regu-66" transform="translate(791.72377 0) scale(0.996264)"/>
      <use xlink:href="#NimbusSanL-Regu-2" transform="translate(819.418939 0) scale(0.996264)"/>
      <use xlink:href="#NimbusSanL-Regu-63" transform="translate(869.23214 0) scale(0.996264)"/>
      <use xlink:href="#NimbusSanL-Regu-69" transform="translate(919.04534 0) scale(0.996264)"/>
      <use xlink:href="#NimbusSanL-Regu-65" transform="translate(941.162125 0) scale(0.996264)"/>
      <use xlink:href="#NimbusSanL-Regu-6e" transform="translate(996.553802 0) scale(0.996264)"/>
      <use xlink:href="#NimbusSanL-Regu-74" transform="translate(1051.945479 0) scale(0.996264)"/>
      <use xlink:href="#NimbusSanL-Regu-73" transform="translate(1079.640648 0) scale(0.996264)"/>
      <use xlink:href="#NimbusSanL-Regu-2d" transform="translate(1157.149018 0) scale(0.996264)"/>
      <use xlink:href="#NimbusSanL-Regu-42" transform="translate(1218.019418 0) scale(0.996264)"/>
      <use xlink:href="#NimbusSanL-Regu-6c" transform="translate(1284.469449 0) scale(0.996264)"/>
      <use xlink:href="#NimbusSanL-Regu-61" transform="translate(1306.586233 0) scale(0.996264)"/>
      <use xlink:href="#NimbusSanL-Regu-64" transform="translate(1361.97791 0) scale(0.996264)"/>
      <use xlink:href="#NimbusSanL-Regu-65" transform="translate(1417.369587 0) scale(0.996264)"/>
      <use xlink:href="#NimbusSanL-Regu-31" transform="translate(1508.626829 0) scale(0.996264)"/>
      <use xlink:href="#NimbusSanL-Regu-38" transform="translate(1564.018506 0) scale(0.996264)"/>
      <path d="M 1478.738605 0 
L 1508.626829 0 
L 1508.626829 0.3985 
L 1478.738605 0.3985 
L 1478.738605 0 
z
"/>
     </g>
    </g>
   </g>
   <g id="line2d_17">
    <path d="M 55.552935 120.175563 
L 55.824284 17.472396 
L 55.914734 17.28 
L 56.095634 20.399343 
L 56.457433 30.293363 
L 56.638332 31.144016 
L 56.728782 31.261512 
L 56.909682 32.561394 
L 57.090582 35.771808 
L 57.542831 44.711076 
L 57.81418 46.358564 
L 58.08553 49.722541 
L 58.356879 56.469343 
L 58.537779 66.940573 
L 58.809128 87.990085 
L 59.080478 92.558983 
L 59.351827 101.288122 
L 59.894526 122.489921 
L 60.075426 123.177121 
L 60.346775 123.5849 
L 60.527675 124.231619 
L 60.799024 126.3942 
L 61.251273 130.938798 
L 61.522623 131.478007 
L 62.065322 132.855256 
L 62.427121 132.27614 
L 62.517571 132.380616 
L 62.87937 132.402918 
L 63.150719 132.703039 
L 63.331619 133.189482 
L 63.602968 134.997021 
L 63.783868 136.05716 
L 64.055218 136.413271 
L 64.326567 137.203432 
L 64.507467 138.227653 
L 64.688366 140.724058 
L 65.140615 150.129644 
L 65.411965 151.561092 
L 65.683314 154.208205 
L 65.864214 157.920606 
L 66.045114 166.419665 
L 66.226013 173.741725 
L 66.497363 176.210154 
L 66.768712 181.427736 
L 67.040062 191.024275 
L 67.401861 206.781065 
L 67.67321 208.57419 
L 68.03501 213.403486 
L 68.396809 218.725867 
L 68.487259 218.88 
L 68.939508 217.269336 
L 69.210857 216.546185 
L 69.482207 215.073767 
L 69.753556 212.037558 
L 70.024905 208.726151 
L 70.296255 208.189525 
L 70.567604 207.019104 
L 70.838954 204.864959 
L 71.110303 200.359527 
L 71.291203 197.366378 
L 71.562552 196.299125 
L 71.833902 194.064018 
L 72.105251 189.770117 
L 72.5575 181.024957 
L 72.82885 179.487372 
L 73.100199 176.45682 
L 73.461999 169.127027 
L 74.095147 154.583368 
L 74.366497 153.740251 
L 74.637846 151.870298 
L 74.909196 148.184621 
L 75.451895 139.039349 
L 75.723244 138.052132 
L 76.175493 135.068229 
L 76.446843 133.971137 
L 76.537292 134.066654 
L 76.899092 134.977491 
L 77.170441 135.275038 
L 77.441791 135.923696 
L 77.71314 137.225186 
L 77.984489 138.505139 
L 78.346289 138.81483 
L 78.708088 139.4532 
L 78.979437 139.954319 
L 79.069887 139.96272 
L 79.522136 139.183067 
L 79.793486 138.850297 
L 80.155285 137.932777 
L 80.336185 137.569404 
L 80.607534 137.686176 
L 80.969333 137.871602 
L 81.240683 138.310415 
L 81.421583 139.171978 
L 81.692932 142.433156 
L 81.964281 144.790996 
L 82.235631 145.153046 
L 82.50698 145.868935 
L 82.86878 147.629145 
L 83.230579 149.784881 
L 83.592378 150.173511 
L 83.863728 150.806795 
L 84.135077 152.050214 
L 84.315977 153.979771 
L 84.587326 158.207097 
L 84.858676 159.07435 
L 85.130025 161.027651 
L 85.401374 165.392913 
L 85.853624 176.70875 
L 86.124973 178.630993 
L 86.486772 183.573843 
L 86.848572 191.817574 
L 87.029471 194.305014 
L 87.300821 194.996906 
L 87.75307 196.6123 
L 88.657568 196.795732 
L 89.290717 197.18651 
L 89.923865 197.589503 
L 90.104765 197.367024 
L 90.285665 196.609567 
L 90.737914 193.705618 
L 91.823312 193.633374 
L 92.185111 193.356168 
L 92.54691 192.699275 
L 92.81826 191.794052 
L 93.089609 190.233566 
L 93.360958 187.385867 
L 93.903657 179.496171 
L 94.175007 178.300159 
L 94.446356 178.124576 
L 94.717706 177.70363 
L 94.989055 176.906961 
L 95.169955 175.898344 
L 95.441304 173.730748 
L 95.712654 173.282536 
L 95.984003 172.313319 
L 96.345802 169.901589 
L 96.617152 168.554524 
L 97.34075 168.482744 
L 97.52165 168.102944 
L 97.883449 166.700322 
L 98.245249 166.471318 
L 98.516598 166.082597 
L 98.787948 165.085561 
L 99.059297 164.43369 
L 103.039089 164.602347 
L 109.822825 164.726597 
L 110.365524 164.754991 
L 112.898119 164.88397 
L 113.440818 164.972745 
L 114.073967 164.736422 
L 114.526216 166.263274 
L 114.978465 166.985843 
L 116.877911 167.115331 
L 117.33016 167.364962 
L 117.60151 167.70703 
L 117.872859 168.411605 
L 118.144208 170.105244 
L 118.415558 173.624336 
L 118.596458 178.083189 
L 118.867807 186.874002 
L 119.139156 187.850388 
L 119.862755 187.951967 
L 120.224554 188.209991 
L 120.495904 188.654179 
L 120.767253 189.493216 
L 121.038603 191.043281 
L 121.309952 193.743506 
L 121.581302 198.846128 
L 122.124 212.265746 
L 122.757149 211.939428 
L 122.938049 210.781104 
L 123.118948 207.456129 
L 123.390298 200.667445 
L 123.571198 199.930081 
L 123.842547 197.602103 
L 124.113896 193.207417 
L 124.656595 181.128255 
L 124.927945 179.73103 
L 125.380194 175.465011 
L 125.741993 172.182889 
L 126.284692 169.320595 
L 126.556042 169.084712 
L 126.827391 168.575368 
L 127.09874 167.488688 
L 127.46054 165.199435 
L 127.731889 164.954688 
L 128.184138 164.11065 
L 128.455488 163.026381 
L 128.636387 162.308286 
L 129.450436 162.108419 
L 129.631335 161.74997 
L 129.902685 161.134266 
L 130.264484 160.94375 
L 130.535833 160.81484 
L 130.807183 160.988945 
L 131.168982 161.291521 
L 131.530781 161.4501 
L 131.802131 161.773114 
L 132.07348 162.594725 
L 132.25438 162.953186 
L 132.706629 163.185852 
L 133.068428 163.594177 
L 133.339778 163.894869 
L 133.701577 163.819802 
L 134.515625 163.716721 
L 134.696525 163.807172 
L 135.329674 163.950468 
L 135.601023 164.192458 
L 135.962823 164.660423 
L 136.776871 164.796011 
L 137.13867 164.927604 
L 137.41002 164.742699 
L 138.043168 164.73866 
L 138.224068 164.999001 
L 138.676317 166.328984 
L 139.038116 166.662963 
L 139.309466 167.139202 
L 139.580815 168.149162 
L 139.852165 168.882242 
L 140.575763 168.960521 
L 140.756663 168.745333 
L 140.937563 168.047893 
L 141.118462 167.328297 
L 141.389812 167.068107 
L 141.661161 166.487721 
L 141.932511 165.400889 
L 142.38476 163.366629 
L 142.656109 163.037474 
L 143.017908 162.203633 
L 143.470157 161.210236 
L 144.284206 161.330269 
L 144.465105 161.62084 
L 144.736455 162.690244 
L 144.917355 163.191924 
L 145.279154 163.442609 
L 146.183652 164.404668 
L 146.90725 164.400132 
L 147.08815 163.933383 
L 147.3595 163.110003 
L 147.721299 162.911172 
L 148.083098 162.460833 
L 148.263998 161.890876 
L 148.535347 160.97843 
L 148.897146 160.766201 
L 149.439845 160.14616 
L 149.801645 159.629337 
L 150.796593 159.652398 
L 151.610641 159.68805 
L 152.15334 159.41182 
L 152.696039 159.201528 
L 153.329188 158.80892 
L 154.233686 158.734502 
L 154.505035 158.804482 
L 155.138184 158.951387 
L 155.319084 159.228571 
L 155.590433 159.796054 
L 156.042682 160.017555 
L 156.404481 160.466616 
L 156.675831 161.537952 
L 156.85673 162.052071 
L 157.21853 162.287411 
L 157.580329 162.784352 
L 157.851678 163.687875 
L 158.032578 164.141912 
L 158.394377 164.351407 
L 159.027526 165.077536 
L 159.298876 165.37633 
L 160.203374 165.357736 
L 160.474723 165.143967 
L 161.017422 164.254084 
L 161.198322 164.070247 
L 161.741021 163.887378 
L 162.19327 163.474846 
L 162.374169 163.360346 
L 163.097768 163.200283 
L 163.369117 163.009468 
L 163.640467 162.775889 
L 164.273615 162.634872 
L 164.544965 162.440184 
L 165.087664 161.765391 
L 165.539913 161.584114 
L 165.811262 161.244506 
L 166.263511 160.240678 
L 166.625311 159.986014 
L 166.98711 159.47671 
L 167.258459 158.610668 
L 167.439359 158.235429 
L 167.891608 158.007967 
L 168.434307 157.488618 
L 168.705657 157.304384 
L 169.881504 157.881651 
L 170.333753 158.384367 
L 170.786002 158.585483 
L 171.238251 159.070829 
L 171.509601 159.357861 
L 172.14275 159.520932 
L 173.137698 159.84805 
L 173.680397 159.953247 
L 173.951746 160.221981 
L 174.132646 160.377142 
L 174.675345 160.526363 
L 174.946694 160.719947 
L 175.218043 161.273733 
L 175.398943 161.525631 
L 175.941642 161.72863 
L 176.303441 162.055392 
L 176.574791 162.374908 
L 178.383787 162.518273 
L 178.926486 162.258268 
L 180.102334 161.455706 
L 180.825932 161.3549 
L 182.09223 161.226913 
L 182.815828 161.099352 
L 183.448977 160.777938 
L 184.082126 160.615471 
L 184.624824 160.324638 
L 185.438873 160.117353 
L 185.800672 159.984556 
L 187.971468 159.744618 
L 188.604616 159.620691 
L 189.328215 159.56455 
L 191.046762 159.573901 
L 192.132159 159.735075 
L 193.760256 160.155499 
L 194.031605 160.227499 
L 194.845654 160.368707 
L 195.388353 160.611934 
L 196.111951 160.710676 
L 196.65465 160.92845 
L 197.468699 161.117879 
L 197.830498 161.251331 
L 198.734996 161.389972 
L 199.096795 161.437904 
L 200.996241 161.446488 
L 203.890636 160.783998 
L 204.161985 160.717312 
L 204.976033 160.577868 
L 205.518732 160.392281 
L 206.242331 160.248398 
L 206.78503 159.969282 
L 207.599078 159.855166 
L 208.322677 159.657354 
L 209.588974 159.6687 
L 210.403022 159.781429 
L 212.121569 160.088338 
L 212.573818 160.193516 
L 213.478316 160.314883 
L 213.930565 160.417881 
L 214.744614 160.544028 
L 215.106413 160.66102 
L 216.010911 160.82561 
L 216.37271 160.92059 
L 220.352502 160.972292 
L 222.251949 160.810667 
L 225.598592 160.309539 
L 229.216585 160.159559 
L 231.65873 160.558583 
L 233.286826 160.780227 
L 235.638522 160.790741 
L 239.527864 160.546289 
L 240.341912 160.458428 
L 244.954853 160.324026 
L 249.567794 160.730636 
L 252.823987 160.619154 
L 255.899281 160.437196 
L 258.522325 160.566848 
L 261.32627 160.682506 
L 266.30101 160.571027 
L 268.471805 160.515061 
L 275.345992 160.587717 
L 277.788137 160.640814 
L 285.385921 160.591643 
L 293.707305 160.597844 
L 299.676992 160.622293 
L 336.218719 160.603678 
L 359.916571 160.599613 
L 359.916571 160.599613 
" clip-path="url(#pe67874408f)" style="fill: none; stroke: #1f77b4; stroke-width: 1.5; stroke-linecap: square"/>
   </g>
   <g id="line2d_18">
    <path d="M 55.552935 181.252552 
L 55.733834 188.295566 
L 55.914734 187.15845 
L 56.366983 185.616308 
L 56.547883 185.797084 
L 57.000132 186.676203 
L 57.181031 188.163649 
L 57.452381 190.698247 
L 57.72373 191.188861 
L 57.99508 192.298855 
L 58.266429 194.428997 
L 58.628228 199.734762 
L 58.809128 201.296286 
L 59.170927 201.714263 
L 59.442277 201.978881 
L 59.532727 201.910874 
L 59.713626 201.321955 
L 59.894526 200.133331 
L 60.075426 198.844878 
L 60.256325 198.282739 
L 60.437225 197.194179 
L 60.618124 195.087242 
L 60.889474 188.265682 
L 61.341723 173.967762 
L 61.613072 170.318869 
L 62.517571 152.138114 
L 62.78892 152.070894 
L 63.06027 151.741925 
L 63.512519 151.173053 
L 63.602968 151.375229 
L 63.783868 152.071252 
L 64.055218 152.382577 
L 64.326567 153.146138 
L 64.507467 154.307364 
L 64.688366 156.912154 
L 64.869266 162.776275 
L 65.050166 167.929331 
L 65.321515 169.742422 
L 65.592864 173.679595 
L 65.864214 181.42754 
L 66.226013 194.796903 
L 66.497363 196.282442 
L 66.859162 200.287628 
L 67.401861 206.929299 
L 67.76366 207.39717 
L 68.215909 208.224198 
L 68.306359 208.178237 
L 68.487259 207.276947 
L 68.758608 205.213604 
L 69.029958 204.774092 
L 69.301307 203.836714 
L 69.572656 201.882869 
L 69.753556 199.234142 
L 70.024905 194.719736 
L 70.296255 193.885464 
L 70.567604 192.146169 
L 70.838954 188.80716 
L 71.110303 182.789052 
L 71.291203 179.881273 
L 71.562552 178.963971 
L 71.833902 177.171989 
L 72.5575 171.416933 
L 72.9193 171.028527 
L 73.190649 170.719921 
L 73.281099 170.72101 
L 73.461999 171.181093 
L 73.642898 172.609774 
L 74.095147 176.767354 
L 74.456947 177.221613 
L 74.818746 178.114196 
L 75.180545 179.576244 
L 75.361445 180.195624 
L 75.723244 180.514139 
L 75.994593 181.069068 
L 76.265943 182.076398 
L 76.627742 183.618485 
L 76.808642 183.692938 
L 77.441791 183.537271 
L 77.62269 183.27421 
L 77.80359 182.651427 
L 77.984489 182.070663 
L 78.346289 181.74239 
L 78.617638 181.198401 
L 78.888988 180.087836 
L 79.160337 177.672461 
L 79.341237 176.318031 
L 79.612586 175.871951 
L 79.883936 174.954199 
L 80.245735 172.793555 
L 80.517084 171.565787 
L 80.878884 171.344268 
L 81.331133 170.956592 
L 81.421583 171.038506 
L 81.602482 171.756325 
L 81.964281 173.800427 
L 82.326081 174.219587 
L 82.59743 174.933656 
L 82.86878 176.349218 
L 83.321029 179.073276 
L 83.592378 179.52758 
L 83.863728 180.40115 
L 84.135077 181.91422 
L 84.677776 185.755019 
L 84.949125 186.202462 
L 85.310925 187.28458 
L 85.763174 188.726181 
L 86.305873 188.769869 
L 86.486772 188.574791 
L 86.667672 187.974289 
L 87.119921 185.580421 
L 87.39127 185.10129 
L 87.84352 184.099726 
L 88.657568 183.952695 
L 89.109817 183.664879 
L 89.471616 183.169452 
L 89.833416 182.186789 
L 90.195215 180.359273 
L 90.647464 177.910999 
L 92.094661 177.851124 
L 92.999159 177.611475 
L 93.180059 178.04476 
L 93.360958 179.188407 
L 93.632308 182.819341 
L 94.084557 189.19913 
L 94.355906 189.377721 
L 94.717706 190.066322 
L 95.079505 190.670262 
L 95.169955 190.505272 
L 95.531754 188.94268 
L 95.803104 188.428242 
L 96.074453 187.317321 
L 96.345802 185.063441 
L 96.707602 181.161796 
L 96.978951 180.698594 
L 97.34075 179.320643 
L 97.70255 176.649185 
L 97.883449 175.753307 
L 98.154799 175.485367 
L 98.516598 174.716828 
L 98.878397 173.754211 
L 98.968847 173.776468 
L 99.149747 174.074781 
L 99.511546 174.297113 
L 99.782896 174.739133 
L 99.963795 175.014713 
L 109.280126 175.227778 
L 109.822825 175.423378 
L 110.094175 175.492056 
L 112.53632 175.646535 
L 112.988569 175.87456 
L 113.350368 176.276706 
L 113.621718 176.829792 
L 113.893067 177.858479 
L 114.435766 180.295369 
L 114.707115 180.577166 
L 114.888015 180.731335 
L 117.14926 180.841279 
L 117.691959 181.096293 
L 117.963309 181.405512 
L 118.234658 182.049098 
L 118.596458 183.652495 
L 118.867807 184.962514 
L 119.229606 185.092354 
L 120.495904 185.198947 
L 120.948153 185.439707 
L 121.309952 185.892101 
L 121.581302 186.60655 
L 121.852651 187.557933 
L 121.943101 187.553543 
L 122.3049 186.696446 
L 122.57625 186.414611 
L 122.847599 185.797227 
L 123.118948 184.295496 
L 123.390298 182.747502 
L 123.661647 182.500382 
L 124.023447 181.771539 
L 124.294796 180.69073 
L 124.566146 179.748456 
L 124.927945 179.551344 
L 125.561094 179.113415 
L 125.922893 179.433194 
L 126.375142 179.92297 
L 126.827391 180.125532 
L 127.641439 180.57758 
L 128.093688 180.78861 
L 128.455488 180.970461 
L 128.545938 180.873914 
L 128.726837 180.588814 
L 129.088636 180.393392 
L 129.359986 179.958073 
L 129.540886 179.268435 
L 129.812235 176.923567 
L 130.445384 170.431606 
L 130.626283 169.815199 
L 130.716733 169.827903 
L 130.897633 170.450978 
L 131.078532 171.220779 
L 131.349882 171.515486 
L 131.621231 172.199811 
L 131.892581 173.650577 
L 132.34483 176.604832 
L 132.616179 177.088616 
L 132.977979 178.347086 
L 133.430228 180.159048 
L 134.244276 180.139 
L 134.425176 179.883819 
L 134.696525 179.329681 
L 135.058324 179.15844 
L 135.420124 178.753697 
L 135.962823 177.985744 
L 136.867321 177.983924 
L 137.13867 178.508451 
L 137.41002 179.061074 
L 137.771819 179.233627 
L 138.133618 179.695526 
L 138.676317 180.703461 
L 139.309466 180.986384 
L 139.671265 181.079671 
L 139.852165 180.959887 
L 140.394864 180.774387 
L 140.756663 180.359118 
L 141.208912 179.638228 
L 141.661161 179.366446 
L 142.29431 178.860936 
L 143.108358 178.949608 
L 143.379708 179.373663 
L 143.560607 179.638575 
L 144.012856 179.839889 
L 144.374656 180.240568 
L 144.736455 180.731726 
L 145.460053 180.656876 
L 145.731403 180.412591 
L 145.912302 179.96024 
L 146.093202 179.57798 
L 146.455001 179.37135 
L 146.726351 179.012469 
L 146.9977 178.285586 
L 147.3595 177.013704 
L 147.721299 176.794695 
L 148.083098 176.323605 
L 148.535347 175.648098 
L 149.349396 175.683759 
L 149.620745 175.985637 
L 149.801645 176.230366 
L 150.253894 176.4396 
L 150.615693 176.899447 
L 151.429741 178.226348 
L 151.791541 178.24734 
L 152.24379 178.198487 
L 153.962336 178.121264 
L 154.233686 178.334198 
L 154.414585 178.459368 
L 155.047734 178.63783 
L 155.319084 178.892097 
L 155.590433 179.188019 
L 156.223582 179.37188 
L 156.585381 179.685284 
L 156.85673 179.931621 
L 157.670779 180.104363 
L 158.213478 180.307282 
L 160.384273 180.390844 
L 160.926972 180.259276 
L 161.469671 180.143896 
L 162.10282 179.951798 
L 162.464619 179.802539 
L 163.188218 179.624124 
L 164.002266 179.25655 
L 164.544965 179.017191 
L 165.087664 178.661128 
L 165.720813 178.507001 
L 166.534861 178.132593 
L 167.16801 177.876479 
L 167.439359 177.732444 
L 168.886556 177.746342 
L 169.157906 177.810058 
L 169.881504 177.956137 
L 170.514653 178.176866 
L 171.147802 178.372053 
L 171.690501 178.522744 
L 174.856244 178.822526 
L 175.127594 179.005229 
L 175.398943 179.235199 
L 176.032092 179.395409 
L 176.393891 179.677882 
L 176.574791 179.781603 
L 177.479289 179.957267 
L 178.021988 179.995791 
L 178.836036 179.870336 
L 180.011884 179.382275 
L 181.187731 179.417388 
L 182.363579 179.317057 
L 182.906278 179.142968 
L 183.358527 178.914415 
L 183.991676 178.771812 
L 184.715274 178.526108 
L 186.61472 178.410308 
L 188.333267 178.481209 
L 189.870914 178.397875 
L 192.041709 178.681399 
L 194.302955 179.037799 
L 197.378249 179.229962 
L 198.192297 179.331763 
L 199.910844 179.347867 
L 202.081639 178.988771 
L 208.503576 178.403932 
L 210.493472 178.551767 
L 214.473264 178.813103 
L 216.64406 179.01694 
L 219.357554 178.913114 
L 223.789595 178.676276 
L 224.603644 178.611929 
L 227.588488 178.478937 
L 230.121083 178.590159 
L 232.382328 178.738712 
L 235.548072 178.710674 
L 244.593054 178.486911 
L 249.658243 178.621129 
L 260.059972 178.570808 
L 305.194431 178.509201 
L 326.902388 178.513206 
L 359.916571 178.522617 
L 359.916571 178.522617 
" clip-path="url(#pe67874408f)" style="fill: none; stroke: #ff7f0e; stroke-width: 1.5; stroke-linecap: square"/>
   </g>
   <g id="patch_3">
    <path d="M 40.334753 228.96 
L 40.334753 7.2 
" style="fill: none; stroke: #000000; stroke-width: 0.8; stroke-linejoin: miter; stroke-linecap: square"/>
   </g>
   <g id="patch_4">
    <path d="M 375.134753 228.96 
L 375.134753 7.2 
" style="fill: none; stroke: #000000; stroke-width: 0.8; stroke-linejoin: miter; stroke-linecap: square"/>
   </g>
   <g id="patch_5">
    <path d="M 40.334753 228.96 
L 375.134753 228.96 
" style="fill: none; stroke: #000000; stroke-width: 0.8; stroke-linejoin: miter; stroke-linecap: square"/>
   </g>
   <g id="patch_6">
    <path d="M 40.334753 7.2 
L 375.134753 7.2 
" style="fill: none; stroke: #000000; stroke-width: 0.8; stroke-linejoin: miter; stroke-linecap: square"/>
   </g>
   <g id="legend_1">
    <g id="patch_7">
     <path d="M 321.748759 43.640613 
L 368.134753 43.640613 
Q 370.134753 43.640613 370.134753 41.640613 
L 370.134753 14.2 
Q 370.134753 12.2 368.134753 12.2 
L 321.748759 12.2 
Q 319.748759 12.2 319.748759 14.2 
L 319.748759 41.640613 
Q 319.748759 43.640613 321.748759 43.640613 
z
" style="fill: #ffffff; opacity: 0.8; stroke: #cccccc; stroke-linejoin: miter"/>
    </g>
    <g id="line2d_19">
     <path d="M 323.748759 19.79832 
L 333.748759 19.79832 
L 343.748759 19.79832 
" style="fill: none; stroke: #1f77b4; stroke-width: 1.5; stroke-linecap: square"/>
    </g>
    <g id="text_19">
     <!-- CD -->
     <g transform="translate(351.748759 23.29832) scale(0.1 -0.1)">
      <defs>
       <path id="NimbusSanL-Regu-44" d="M 570 0 
L 2368 0 
C 3546 0 4269 883 4269 2339 
C 4269 3788 3552 4672 2368 4672 
L 570 4672 
L 570 0 
z
M 1165 524 
L 1165 4147 
L 2266 4147 
C 3187 4147 3674 3525 3674 2332 
C 3674 1153 3187 524 2266 524 
L 1165 524 
z
" transform="scale(0.015625)"/>
      </defs>
      <use xlink:href="#NimbusSanL-Regu-43" transform="scale(0.996264)"/>
      <use xlink:href="#NimbusSanL-Regu-44" transform="translate(71.929985 0) scale(0.996264)"/>
     </g>
    </g>
    <g id="line2d_20">
     <path d="M 323.748759 34.018627 
L 333.748759 34.018627 
L 343.748759 34.018627 
" style="fill: none; stroke: #ff7f0e; stroke-width: 1.5; stroke-linecap: square"/>
    </g>
    <g id="text_20">
     <!-- CL -->
     <g transform="translate(351.748759 37.518627) scale(0.1 -0.1)">
      <defs>
       <path id="NimbusSanL-Regu-4c" d="M 1107 4672 
L 512 4672 
L 512 0 
L 3411 0 
L 3411 524 
L 1107 524 
L 1107 4672 
z
" transform="scale(0.015625)"/>
      </defs>
      <use xlink:href="#NimbusSanL-Regu-43" transform="scale(0.996264)"/>
      <use xlink:href="#NimbusSanL-Regu-4c" transform="translate(71.929985 0) scale(0.996264)"/>
     </g>
    </g>
   </g>
  </g>
 </g>
 <defs>
  <clipPath id="pe67874408f">
   <rect x="40.334753" y="7.2" width="334.8" height="221.76"/>
  </clipPath>
 </defs>
</svg>
