<?xml version="1.0" encoding="utf-8" standalone="no"?>
<!DOCTYPE svg PUBLIC "-//W3C//DTD SVG 1.1//EN"
  "http://www.w3.org/Graphics/SVG/1.1/DTD/svg11.dtd">
<svg xmlns:xlink="http://www.w3.org/1999/xlink" width="386.522558pt" height="265.600613pt" viewBox="0 0 386.522558 265.600613" xmlns="http://www.w3.org/2000/svg" version="1.1">
 <metadata>
  <rdf:RDF xmlns:dc="http://purl.org/dc/elements/1.1/" xmlns:cc="http://creativecommons.org/ns#" xmlns:rdf="http://www.w3.org/1999/02/22-rdf-syntax-ns#">
   <cc:Work>
    <dc:type rdf:resource="http://purl.org/dc/dcmitype/StillImage"/>
    <dc:date>2025-07-17T20:35:52.208224</dc:date>
    <dc:format>image/svg+xml</dc:format>
    <dc:creator>
     <cc:Agent>
      <dc:title>Matplotlib v3.10.3, https://matplotlib.org/</dc:title>
     </cc:Agent>
    </dc:creator>
   </cc:Work>
  </rdf:RDF>
 </metadata>
 <defs>
  <style type="text/css">*{stroke-linejoin: round; stroke-linecap: butt}</style>
 </defs>
 <g id="figure_1">
  <g id="patch_1">
   <path d="M 0 265.600613 
L 386.522558 265.600613 
L 386.522558 0 
L 0 0 
z
" style="fill: #ffffff"/>
  </g>
  <g id="axes_1">
   <g id="patch_2">
    <path d="M 37.567344 228.96 
L 372.367344 228.96 
L 372.367344 7.2 
L 37.567344 7.2 
z
" style="fill: #ffffff"/>
   </g>
   <g id="matplotlib.axis_1">
    <g id="xtick_1">
     <g id="line2d_1">
      <defs>
       <path id="m818e668b04" d="M 0 0 
L 0 3.5 
" style="stroke: #000000; stroke-width: 0.8"/>
      </defs>
      <g>
       <use xlink:href="#m818e668b04" x="52.785526" y="228.96" style="stroke: #000000; stroke-width: 0.8"/>
      </g>
     </g>
     <g id="text_1">
      <!-- $\mathdefault{0}$ -->
      <g transform="translate(50.294859 243.05832) scale(0.1 -0.1)">
       <defs>
        <path id="CMR17-30" d="M 2688 2038 
C 2688 2430 2682 3099 2413 3613 
C 2176 4063 1798 4224 1466 4224 
C 1158 4224 768 4082 525 3620 
C 269 3137 243 2539 243 2038 
C 243 1671 250 1112 448 623 
C 723 -39 1216 -128 1466 -128 
C 1760 -128 2208 -7 2470 604 
C 2662 1048 2688 1568 2688 2038 
z
M 1466 -26 
C 1056 -26 813 328 723 816 
C 653 1196 653 1749 653 2109 
C 653 2604 653 3015 736 3407 
C 858 3954 1216 4121 1466 4121 
C 1728 4121 2067 3947 2189 3420 
C 2272 3054 2278 2623 2278 2109 
C 2278 1691 2278 1176 2202 797 
C 2067 96 1690 -26 1466 -26 
z
" transform="scale(0.015625)"/>
       </defs>
       <use xlink:href="#CMR17-30" transform="scale(0.996264)"/>
      </g>
     </g>
    </g>
    <g id="xtick_2">
     <g id="line2d_2">
      <g>
       <use xlink:href="#m818e668b04" x="98.010435" y="228.96" style="stroke: #000000; stroke-width: 0.8"/>
      </g>
     </g>
     <g id="text_2">
      <!-- $\mathdefault{500}$ -->
      <g transform="translate(90.538432 243.05832) scale(0.1 -0.1)">
       <defs>
        <path id="CMR17-35" d="M 730 3750 
C 794 3724 1056 3641 1325 3641 
C 1920 3641 2246 3961 2432 4140 
C 2432 4191 2432 4224 2394 4224 
C 2387 4224 2374 4224 2323 4198 
C 2099 4102 1837 4032 1517 4032 
C 1325 4032 1037 4055 723 4191 
C 653 4224 640 4224 634 4224 
C 602 4224 595 4217 595 4090 
L 595 2231 
C 595 2113 595 2080 659 2080 
C 691 2080 704 2093 736 2139 
C 941 2435 1222 2560 1542 2560 
C 1766 2560 2246 2415 2246 1293 
C 2246 1087 2246 716 2054 422 
C 1894 159 1645 25 1370 25 
C 947 25 518 319 403 812 
C 429 806 480 793 506 793 
C 589 793 749 838 749 1036 
C 749 1209 627 1280 506 1280 
C 358 1280 262 1190 262 1011 
C 262 454 704 -128 1382 -128 
C 2042 -128 2669 441 2669 1267 
C 2669 2054 2170 2662 1549 2662 
C 1222 2662 947 2540 730 2304 
L 730 3750 
z
" transform="scale(0.015625)"/>
       </defs>
       <use xlink:href="#CMR17-35" transform="scale(0.996264)"/>
       <use xlink:href="#CMR17-30" transform="translate(45.690477 0) scale(0.996264)"/>
       <use xlink:href="#CMR17-30" transform="translate(91.380954 0) scale(0.996264)"/>
      </g>
     </g>
    </g>
    <g id="xtick_3">
     <g id="line2d_3">
      <g>
       <use xlink:href="#m818e668b04" x="143.235344" y="228.96" style="stroke: #000000; stroke-width: 0.8"/>
      </g>
     </g>
     <g id="text_3">
      <!-- $\mathdefault{1000}$ -->
      <g transform="translate(133.272673 243.05832) scale(0.1 -0.1)">
       <defs>
        <path id="CMR17-31" d="M 1702 4083 
C 1702 4217 1696 4224 1606 4224 
C 1357 3927 979 3833 621 3820 
C 602 3820 570 3820 563 3808 
C 557 3795 557 3782 557 3648 
C 755 3648 1088 3686 1344 3839 
L 1344 467 
C 1344 243 1331 166 781 166 
L 589 166 
L 589 0 
C 896 6 1216 12 1523 12 
C 1830 12 2150 6 2458 0 
L 2458 166 
L 2266 166 
C 1715 166 1702 236 1702 467 
L 1702 4083 
z
" transform="scale(0.015625)"/>
       </defs>
       <use xlink:href="#CMR17-31" transform="scale(0.996264)"/>
       <use xlink:href="#CMR17-30" transform="translate(45.690477 0) scale(0.996264)"/>
       <use xlink:href="#CMR17-30" transform="translate(91.380954 0) scale(0.996264)"/>
       <use xlink:href="#CMR17-30" transform="translate(137.071431 0) scale(0.996264)"/>
      </g>
     </g>
    </g>
    <g id="xtick_4">
     <g id="line2d_4">
      <g>
       <use xlink:href="#m818e668b04" x="188.460253" y="228.96" style="stroke: #000000; stroke-width: 0.8"/>
      </g>
     </g>
     <g id="text_4">
      <!-- $\mathdefault{1500}$ -->
      <g transform="translate(178.497582 243.05832) scale(0.1 -0.1)">
       <use xlink:href="#CMR17-31" transform="scale(0.996264)"/>
       <use xlink:href="#CMR17-35" transform="translate(45.690477 0) scale(0.996264)"/>
       <use xlink:href="#CMR17-30" transform="translate(91.380954 0) scale(0.996264)"/>
       <use xlink:href="#CMR17-30" transform="translate(137.071431 0) scale(0.996264)"/>
      </g>
     </g>
    </g>
    <g id="xtick_5">
     <g id="line2d_5">
      <g>
       <use xlink:href="#m818e668b04" x="233.685161" y="228.96" style="stroke: #000000; stroke-width: 0.8"/>
      </g>
     </g>
     <g id="text_5">
      <!-- $\mathdefault{2000}$ -->
      <g transform="translate(223.722491 243.05832) scale(0.1 -0.1)">
       <defs>
        <path id="CMR17-32" d="M 2669 990 
L 2554 990 
C 2490 537 2438 460 2413 422 
C 2381 371 1920 371 1830 371 
L 602 371 
C 832 620 1280 1073 1824 1596 
C 2214 1966 2669 2400 2669 3033 
C 2669 3788 2067 4224 1395 4224 
C 691 4224 262 3603 262 3027 
C 262 2777 448 2745 525 2745 
C 589 2745 781 2783 781 3007 
C 781 3206 614 3264 525 3264 
C 486 3264 448 3257 422 3244 
C 544 3788 915 4057 1306 4057 
C 1862 4057 2227 3616 2227 3033 
C 2227 2477 1901 1998 1536 1583 
L 262 147 
L 262 0 
L 2515 0 
L 2669 990 
z
" transform="scale(0.015625)"/>
       </defs>
       <use xlink:href="#CMR17-32" transform="scale(0.996264)"/>
       <use xlink:href="#CMR17-30" transform="translate(45.690477 0) scale(0.996264)"/>
       <use xlink:href="#CMR17-30" transform="translate(91.380954 0) scale(0.996264)"/>
       <use xlink:href="#CMR17-30" transform="translate(137.071431 0) scale(0.996264)"/>
      </g>
     </g>
    </g>
    <g id="xtick_6">
     <g id="line2d_6">
      <g>
       <use xlink:href="#m818e668b04" x="278.91007" y="228.96" style="stroke: #000000; stroke-width: 0.8"/>
      </g>
     </g>
     <g id="text_6">
      <!-- $\mathdefault{2500}$ -->
      <g transform="translate(268.9474 243.05832) scale(0.1 -0.1)">
       <use xlink:href="#CMR17-32" transform="scale(0.996264)"/>
       <use xlink:href="#CMR17-35" transform="translate(45.690477 0) scale(0.996264)"/>
       <use xlink:href="#CMR17-30" transform="translate(91.380954 0) scale(0.996264)"/>
       <use xlink:href="#CMR17-30" transform="translate(137.071431 0) scale(0.996264)"/>
      </g>
     </g>
    </g>
    <g id="xtick_7">
     <g id="line2d_7">
      <g>
       <use xlink:href="#m818e668b04" x="324.134979" y="228.96" style="stroke: #000000; stroke-width: 0.8"/>
      </g>
     </g>
     <g id="text_7">
      <!-- $\mathdefault{3000}$ -->
      <g transform="translate(314.172309 243.05832) scale(0.1 -0.1)">
       <defs>
        <path id="CMR17-33" d="M 1414 2176 
C 1984 2176 2234 1673 2234 1094 
C 2234 322 1824 25 1453 25 
C 1114 25 563 193 390 691 
C 422 678 454 678 486 678 
C 640 678 755 780 755 947 
C 755 1132 614 1216 486 1216 
C 378 1216 211 1164 211 927 
C 211 335 787 -128 1466 -128 
C 2176 -128 2720 432 2720 1087 
C 2720 1718 2208 2176 1600 2246 
C 2086 2347 2554 2776 2554 3353 
C 2554 3856 2048 4224 1472 4224 
C 890 4224 378 3862 378 3347 
C 378 3123 544 3084 627 3084 
C 762 3084 877 3167 877 3334 
C 877 3500 762 3584 627 3584 
C 602 3584 570 3584 544 3571 
C 730 3999 1235 4076 1459 4076 
C 1683 4076 2106 3966 2106 3347 
C 2106 3167 2080 2851 1862 2574 
C 1670 2329 1453 2316 1242 2297 
C 1210 2297 1062 2284 1037 2284 
C 992 2278 966 2272 966 2227 
C 966 2182 973 2176 1101 2176 
L 1414 2176 
z
" transform="scale(0.015625)"/>
       </defs>
       <use xlink:href="#CMR17-33" transform="scale(0.996264)"/>
       <use xlink:href="#CMR17-30" transform="translate(45.690477 0) scale(0.996264)"/>
       <use xlink:href="#CMR17-30" transform="translate(91.380954 0) scale(0.996264)"/>
       <use xlink:href="#CMR17-30" transform="translate(137.071431 0) scale(0.996264)"/>
      </g>
     </g>
    </g>
    <g id="xtick_8">
     <g id="line2d_8">
      <g>
       <use xlink:href="#m818e668b04" x="369.359888" y="228.96" style="stroke: #000000; stroke-width: 0.8"/>
      </g>
     </g>
     <g id="text_8">
      <!-- $\mathdefault{3500}$ -->
      <g transform="translate(359.397217 243.05832) scale(0.1 -0.1)">
       <use xlink:href="#CMR17-33" transform="scale(0.996264)"/>
       <use xlink:href="#CMR17-35" transform="translate(45.690477 0) scale(0.996264)"/>
       <use xlink:href="#CMR17-30" transform="translate(91.380954 0) scale(0.996264)"/>
       <use xlink:href="#CMR17-30" transform="translate(137.071431 0) scale(0.996264)"/>
      </g>
     </g>
    </g>
    <g id="text_9">
     <!-- Iteration -->
     <g transform="translate(187.019968 256.278627) scale(0.1 -0.1)">
      <defs>
       <path id="NimbusSanL-Regu-49" d="M 1242 4672 
L 640 4672 
L 640 0 
L 1242 0 
L 1242 4672 
z
" transform="scale(0.015625)"/>
       <path id="NimbusSanL-Regu-74" d="M 1626 3328 
L 1075 3328 
L 1075 4249 
L 544 4249 
L 544 3328 
L 90 3328 
L 90 2892 
L 544 2892 
L 544 402 
C 544 64 774 -128 1190 -128 
C 1318 -128 1446 -116 1626 -84 
L 1626 364 
C 1555 345 1472 339 1370 339 
C 1139 339 1075 402 1075 634 
L 1075 2892 
L 1626 2892 
L 1626 3328 
z
" transform="scale(0.015625)"/>
       <path id="NimbusSanL-Regu-65" d="M 3283 1484 
C 3283 1998 3245 2311 3149 2565 
C 2931 3123 2419 3456 1792 3456 
C 858 3456 256 2734 256 1619 
C 256 545 838 -128 1779 -128 
C 2547 -128 3078 307 3213 1018 
L 2675 1018 
C 2528 588 2227 364 1798 364 
C 1459 364 1171 514 992 787 
C 864 974 819 1161 813 1484 
L 3283 1484 
z
M 826 1920 
C 870 2552 1248 2963 1786 2963 
C 2310 2963 2714 2519 2714 1959 
C 2714 1946 2714 1933 2707 1920 
L 826 1920 
z
" transform="scale(0.015625)"/>
       <path id="NimbusSanL-Regu-72" d="M 442 3328 
L 442 0 
L 979 0 
L 979 1727 
C 979 2203 1101 2514 1357 2698 
C 1523 2819 1683 2857 2054 2863 
L 2054 3404 
C 1965 3449 1920 3456 1850 3456 
C 1504 3456 1242 3251 934 2750 
L 934 3328 
L 442 3328 
z
" transform="scale(0.015625)"/>
       <path id="NimbusSanL-Regu-61" d="M 3424 332 
C 3366 320 3341 320 3309 320 
C 3123 320 3021 415 3021 581 
L 3021 2542 
C 3021 3135 2586 3456 1760 3456 
C 1274 3456 870 3315 646 3065 
C 493 2893 429 2702 416 2370 
L 954 2370 
C 998 2778 1242 2963 1741 2963 
C 2221 2963 2490 2784 2490 2466 
L 2490 2326 
C 2490 2103 2355 2007 1933 1956 
C 1178 1861 1062 1835 858 1753 
C 467 1593 269 1294 269 861 
C 269 256 691 -128 1370 -128 
C 1792 -128 2131 19 2509 364 
C 2547 25 2714 -128 3059 -128 
C 3168 -128 3251 -116 3424 -71 
L 3424 332 
z
M 2490 1071 
C 2490 893 2438 785 2278 638 
C 2061 441 1798 339 1485 339 
C 1069 339 826 536 826 874 
C 826 1224 1062 1402 1632 1485 
C 2195 1562 2310 1587 2490 1670 
L 2490 1071 
z
" transform="scale(0.015625)"/>
       <path id="NimbusSanL-Regu-69" d="M 960 3358 
L 429 3358 
L 429 0 
L 960 0 
L 960 3358 
z
M 960 4672 
L 422 4672 
L 422 3999 
L 960 3999 
L 960 4672 
z
" transform="scale(0.015625)"/>
       <path id="NimbusSanL-Regu-6f" d="M 1741 3456 
C 800 3456 230 2784 230 1663 
C 230 543 794 -128 1747 -128 
C 2688 -128 3264 543 3264 1638 
C 3264 2791 2707 3456 1741 3456 
z
M 1747 2963 
C 2349 2963 2707 2472 2707 1644 
C 2707 861 2336 364 1747 364 
C 1152 364 787 855 787 1663 
C 787 2466 1152 2963 1747 2963 
z
" transform="scale(0.015625)"/>
       <path id="NimbusSanL-Regu-6e" d="M 448 3328 
L 448 0 
L 986 0 
L 986 1835 
C 986 2539 1344 2988 1894 2988 
C 2317 2988 2586 2732 2586 2328 
L 2586 0 
L 3117 0 
L 3117 2539 
C 3117 3097 2701 3456 2054 3456 
C 1555 3456 1235 3263 941 2796 
L 941 3328 
L 448 3328 
z
" transform="scale(0.015625)"/>
      </defs>
      <use xlink:href="#NimbusSanL-Regu-49" transform="scale(0.996264)"/>
      <use xlink:href="#NimbusSanL-Regu-74" transform="translate(27.69517 0) scale(0.996264)"/>
      <use xlink:href="#NimbusSanL-Regu-65" transform="translate(55.390339 0) scale(0.996264)"/>
      <use xlink:href="#NimbusSanL-Regu-72" transform="translate(110.782016 0) scale(0.996264)"/>
      <use xlink:href="#NimbusSanL-Regu-61" transform="translate(142.961149 0) scale(0.996264)"/>
      <use xlink:href="#NimbusSanL-Regu-74" transform="translate(198.352826 0) scale(0.996264)"/>
      <use xlink:href="#NimbusSanL-Regu-69" transform="translate(226.047996 0) scale(0.996264)"/>
      <use xlink:href="#NimbusSanL-Regu-6f" transform="translate(248.16478 0) scale(0.996264)"/>
      <use xlink:href="#NimbusSanL-Regu-6e" transform="translate(303.556457 0) scale(0.996264)"/>
     </g>
    </g>
   </g>
   <g id="matplotlib.axis_2">
    <g id="ytick_1">
     <g id="line2d_9">
      <defs>
       <path id="m7c6b3ce74c" d="M 0 0 
L -3.5 0 
" style="stroke: #000000; stroke-width: 0.8"/>
      </defs>
      <g>
       <use xlink:href="#m7c6b3ce74c" x="37.567344" y="219.372983" style="stroke: #000000; stroke-width: 0.8"/>
      </g>
     </g>
     <g id="text_10">
      <!-- $\mathdefault{0}$ -->
      <g transform="translate(25.586009 222.922144) scale(0.1 -0.1)">
       <use xlink:href="#CMR17-30" transform="scale(0.996264)"/>
      </g>
     </g>
    </g>
    <g id="ytick_2">
     <g id="line2d_10">
      <g>
       <use xlink:href="#m7c6b3ce74c" x="37.567344" y="194.723812" style="stroke: #000000; stroke-width: 0.8"/>
      </g>
     </g>
     <g id="text_11">
      <!-- $\mathdefault{5}$ -->
      <g transform="translate(25.586009 198.272972) scale(0.1 -0.1)">
       <use xlink:href="#CMR17-35" transform="scale(0.996264)"/>
      </g>
     </g>
    </g>
    <g id="ytick_3">
     <g id="line2d_11">
      <g>
       <use xlink:href="#m7c6b3ce74c" x="37.567344" y="170.07464" style="stroke: #000000; stroke-width: 0.8"/>
      </g>
     </g>
     <g id="text_12">
      <!-- $\mathdefault{10}$ -->
      <g transform="translate(20.604674 173.6238) scale(0.1 -0.1)">
       <use xlink:href="#CMR17-31" transform="scale(0.996264)"/>
       <use xlink:href="#CMR17-30" transform="translate(45.690477 0) scale(0.996264)"/>
      </g>
     </g>
    </g>
    <g id="ytick_4">
     <g id="line2d_12">
      <g>
       <use xlink:href="#m7c6b3ce74c" x="37.567344" y="145.425468" style="stroke: #000000; stroke-width: 0.8"/>
      </g>
     </g>
     <g id="text_13">
      <!-- $\mathdefault{15}$ -->
      <g transform="translate(20.604674 148.974628) scale(0.1 -0.1)">
       <use xlink:href="#CMR17-31" transform="scale(0.996264)"/>
       <use xlink:href="#CMR17-35" transform="translate(45.690477 0) scale(0.996264)"/>
      </g>
     </g>
    </g>
    <g id="ytick_5">
     <g id="line2d_13">
      <g>
       <use xlink:href="#m7c6b3ce74c" x="37.567344" y="120.776296" style="stroke: #000000; stroke-width: 0.8"/>
      </g>
     </g>
     <g id="text_14">
      <!-- $\mathdefault{20}$ -->
      <g transform="translate(20.604674 124.325456) scale(0.1 -0.1)">
       <use xlink:href="#CMR17-32" transform="scale(0.996264)"/>
       <use xlink:href="#CMR17-30" transform="translate(45.690477 0) scale(0.996264)"/>
      </g>
     </g>
    </g>
    <g id="ytick_6">
     <g id="line2d_14">
      <g>
       <use xlink:href="#m7c6b3ce74c" x="37.567344" y="96.127125" style="stroke: #000000; stroke-width: 0.8"/>
      </g>
     </g>
     <g id="text_15">
      <!-- $\mathdefault{25}$ -->
      <g transform="translate(20.604674 99.676285) scale(0.1 -0.1)">
       <use xlink:href="#CMR17-32" transform="scale(0.996264)"/>
       <use xlink:href="#CMR17-35" transform="translate(45.690477 0) scale(0.996264)"/>
      </g>
     </g>
    </g>
    <g id="ytick_7">
     <g id="line2d_15">
      <g>
       <use xlink:href="#m7c6b3ce74c" x="37.567344" y="71.477953" style="stroke: #000000; stroke-width: 0.8"/>
      </g>
     </g>
     <g id="text_16">
      <!-- $\mathdefault{30}$ -->
      <g transform="translate(20.604674 75.027113) scale(0.1 -0.1)">
       <use xlink:href="#CMR17-33" transform="scale(0.996264)"/>
       <use xlink:href="#CMR17-30" transform="translate(45.690477 0) scale(0.996264)"/>
      </g>
     </g>
    </g>
    <g id="ytick_8">
     <g id="line2d_16">
      <g>
       <use xlink:href="#m7c6b3ce74c" x="37.567344" y="46.828781" style="stroke: #000000; stroke-width: 0.8"/>
      </g>
     </g>
     <g id="text_17">
      <!-- $\mathdefault{35}$ -->
      <g transform="translate(20.604674 50.377941) scale(0.1 -0.1)">
       <use xlink:href="#CMR17-33" transform="scale(0.996264)"/>
       <use xlink:href="#CMR17-35" transform="translate(45.690477 0) scale(0.996264)"/>
      </g>
     </g>
    </g>
    <g id="ytick_9">
     <g id="line2d_17">
      <g>
       <use xlink:href="#m7c6b3ce74c" x="37.567344" y="22.179609" style="stroke: #000000; stroke-width: 0.8"/>
      </g>
     </g>
     <g id="text_18">
      <!-- $\mathdefault{40}$ -->
      <g transform="translate(20.604674 25.728769) scale(0.1 -0.1)">
       <defs>
        <path id="CMR17-34" d="M 2150 4147 
C 2150 4281 2144 4288 2029 4288 
L 128 1254 
L 128 1088 
L 1779 1088 
L 1779 460 
C 1779 230 1766 166 1318 166 
L 1197 166 
L 1197 0 
C 1402 12 1747 12 1965 12 
C 2182 12 2528 12 2733 0 
L 2733 166 
L 2611 166 
C 2163 166 2150 230 2150 460 
L 2150 1088 
L 2803 1088 
L 2803 1254 
L 2150 1254 
L 2150 4147 
z
M 1798 3723 
L 1798 1254 
L 256 1254 
L 1798 3723 
z
" transform="scale(0.015625)"/>
       </defs>
       <use xlink:href="#CMR17-34" transform="scale(0.996264)"/>
       <use xlink:href="#CMR17-30" transform="translate(45.690477 0) scale(0.996264)"/>
      </g>
     </g>
    </g>
    <g id="text_19">
     <!-- Average CFL - Blade_18 -->
     <g transform="translate(14.482687 171.548902) rotate(-90) scale(0.1 -0.1)">
      <defs>
       <path id="NimbusSanL-Regu-41" d="M 3034 1408 
L 3514 0 
L 4179 0 
L 2541 4672 
L 1773 4672 
L 109 0 
L 742 0 
L 1235 1408 
L 3034 1408 
z
M 2867 1907 
L 1382 1907 
L 2150 4032 
L 2867 1907 
z
" transform="scale(0.015625)"/>
       <path id="NimbusSanL-Regu-76" d="M 1824 0 
L 3110 3328 
L 2509 3328 
L 1562 629 
L 666 3328 
L 64 3328 
L 1242 0 
L 1824 0 
z
" transform="scale(0.015625)"/>
       <path id="NimbusSanL-Regu-67" d="M 2637 3359 
L 2637 2873 
C 2368 3270 2042 3456 1613 3456 
C 762 3456 186 2714 186 1632 
C 186 1084 333 638 608 320 
C 858 38 1216 -128 1568 -128 
C 1990 -128 2285 51 2586 473 
L 2586 300 
C 2586 -155 2528 -441 2394 -634 
C 2253 -841 1978 -960 1651 -960 
C 1408 -960 1190 -894 1043 -774 
C 922 -674 870 -581 838 -375 
L 294 -375 
C 352 -1031 845 -1408 1632 -1408 
C 2131 -1408 2560 -1248 2778 -980 
C 3034 -661 3130 -222 3130 568 
L 3130 3359 
L 2637 3359 
z
M 1670 2963 
C 2246 2963 2586 2479 2586 1644 
C 2586 848 2240 364 1677 364 
C 1094 364 742 855 742 1663 
C 742 2466 1101 2963 1670 2963 
z
" transform="scale(0.015625)"/>
       <path id="NimbusSanL-Regu-43" d="M 4237 3219 
C 4051 4236 3462 4736 2438 4736 
C 1811 4736 1306 4537 960 4154 
C 538 3696 307 3035 307 2284 
C 307 1522 544 867 986 415 
C 1344 44 1805 -128 2413 -128 
C 3552 -128 4192 485 4333 1712 
L 3718 1712 
C 3667 1394 3603 1178 3507 994 
C 3315 612 2918 396 2419 396 
C 1491 396 902 1134 902 2291 
C 902 3480 1466 4211 2368 4211 
C 2746 4211 3098 4096 3290 3918 
C 3462 3759 3558 3562 3629 3219 
L 4237 3219 
z
" transform="scale(0.015625)"/>
       <path id="NimbusSanL-Regu-46" d="M 1171 2112 
L 3398 2112 
L 3398 2636 
L 1171 2636 
L 1171 4147 
L 3706 4147 
L 3706 4672 
L 576 4672 
L 576 0 
L 1171 0 
L 1171 2112 
z
" transform="scale(0.015625)"/>
       <path id="NimbusSanL-Regu-4c" d="M 1107 4672 
L 512 4672 
L 512 0 
L 3411 0 
L 3411 524 
L 1107 524 
L 1107 4672 
z
" transform="scale(0.015625)"/>
       <path id="NimbusSanL-Regu-2d" d="M 1818 1996 
L 294 1996 
L 294 1536 
L 1818 1536 
L 1818 1996 
z
" transform="scale(0.015625)"/>
       <path id="NimbusSanL-Regu-42" d="M 506 0 
L 2611 0 
C 3053 0 3379 121 3629 390 
C 3859 632 3987 961 3987 1321 
C 3987 1878 3731 2214 3136 2444 
C 3558 2643 3782 2994 3782 3476 
C 3782 3821 3654 4127 3411 4345 
C 3168 4569 2848 4672 2400 4672 
L 506 4672 
L 506 0 
z
M 1101 2636 
L 1101 4147 
L 2253 4147 
C 2586 4147 2771 4101 2931 3977 
C 3098 3847 3187 3652 3187 3391 
C 3187 3138 3098 2936 2931 2806 
C 2771 2682 2586 2636 2253 2636 
L 1101 2636 
z
M 1101 524 
L 1101 2112 
L 2554 2112 
C 2842 2112 3034 2042 3174 1890 
C 3315 1745 3392 1542 3392 1315 
C 3392 1093 3315 891 3174 746 
C 3034 594 2842 524 2554 524 
L 1101 524 
z
" transform="scale(0.015625)"/>
       <path id="NimbusSanL-Regu-6c" d="M 973 4672 
L 435 4672 
L 435 0 
L 973 0 
L 973 4672 
z
" transform="scale(0.015625)"/>
       <path id="NimbusSanL-Regu-64" d="M 3168 4672 
L 2637 4672 
L 2637 2937 
C 2413 3276 2054 3456 1606 3456 
C 736 3456 166 2759 166 1695 
C 166 568 723 -128 1626 -128 
C 2086 -128 2406 44 2694 460 
L 2694 19 
L 3168 19 
L 3168 4672 
z
M 1696 2956 
C 2272 2956 2637 2447 2637 1651 
C 2637 880 2266 371 1702 371 
C 1114 371 723 887 723 1663 
C 723 2440 1114 2956 1696 2956 
z
" transform="scale(0.015625)"/>
       <path id="NimbusSanL-Regu-31" d="M 1658 3232 
L 1658 0 
L 2221 0 
L 2221 4537 
L 1850 4537 
C 1651 3840 1523 3744 653 3635 
L 653 3232 
L 1658 3232 
z
" transform="scale(0.015625)"/>
       <path id="NimbusSanL-Regu-38" d="M 2502 2399 
C 2970 2681 3123 2910 3123 3337 
C 3123 4044 2566 4544 1760 4544 
C 960 4544 397 4044 397 3337 
C 397 2917 550 2687 1011 2399 
C 493 2150 237 1774 237 1276 
C 237 447 864 -128 1760 -128 
C 2656 -128 3283 447 3283 1270 
C 3283 1774 3027 2150 2502 2399 
z
M 1760 4044 
C 2240 4044 2547 3764 2547 3324 
C 2547 2904 2234 2624 1760 2624 
C 1286 2624 973 2904 973 3331 
C 973 3764 1286 4044 1760 4044 
z
M 1760 2150 
C 2323 2150 2707 1793 2707 1264 
C 2707 728 2323 371 1747 371 
C 1197 371 813 734 813 1264 
C 813 1793 1197 2150 1760 2150 
z
" transform="scale(0.015625)"/>
      </defs>
      <use xlink:href="#NimbusSanL-Regu-41" transform="scale(0.996264)"/>
      <use xlink:href="#NimbusSanL-Regu-76" transform="translate(62.465918 0) scale(0.996264)"/>
      <use xlink:href="#NimbusSanL-Regu-65" transform="translate(109.788488 0) scale(0.996264)"/>
      <use xlink:href="#NimbusSanL-Regu-72" transform="translate(165.180165 0) scale(0.996264)"/>
      <use xlink:href="#NimbusSanL-Regu-61" transform="translate(197.359298 0) scale(0.996264)"/>
      <use xlink:href="#NimbusSanL-Regu-67" transform="translate(252.750975 0) scale(0.996264)"/>
      <use xlink:href="#NimbusSanL-Regu-65" transform="translate(308.142652 0) scale(0.996264)"/>
      <use xlink:href="#NimbusSanL-Regu-43" transform="translate(391.229499 0) scale(0.996264)"/>
      <use xlink:href="#NimbusSanL-Regu-46" transform="translate(463.159484 0) scale(0.996264)"/>
      <use xlink:href="#NimbusSanL-Regu-4c" transform="translate(524.031114 0) scale(0.996264)"/>
      <use xlink:href="#NimbusSanL-Regu-2d" transform="translate(607.117961 0) scale(0.996264)"/>
      <use xlink:href="#NimbusSanL-Regu-42" transform="translate(667.98836 0) scale(0.996264)"/>
      <use xlink:href="#NimbusSanL-Regu-6c" transform="translate(734.438391 0) scale(0.996264)"/>
      <use xlink:href="#NimbusSanL-Regu-61" transform="translate(756.555176 0) scale(0.996264)"/>
      <use xlink:href="#NimbusSanL-Regu-64" transform="translate(811.946853 0) scale(0.996264)"/>
      <use xlink:href="#NimbusSanL-Regu-65" transform="translate(867.33853 0) scale(0.996264)"/>
      <use xlink:href="#NimbusSanL-Regu-31" transform="translate(958.595772 0) scale(0.996264)"/>
      <use xlink:href="#NimbusSanL-Regu-38" transform="translate(1013.987449 0) scale(0.996264)"/>
      <path d="M 928.707548 0 
L 958.595772 0 
L 958.595772 0.3985 
L 928.707548 0.3985 
L 928.707548 0 
z
"/>
     </g>
    </g>
   </g>
   <g id="line2d_18">
    <path d="M 52.785526 149.097205 
L 52.966426 119.485143 
L 53.056876 209.384199 
L 53.147325 207.386443 
L 53.418675 198.660241 
L 53.690024 183.581364 
L 53.961374 157.525066 
L 54.323173 112.620745 
L 54.504073 112.620745 
L 54.594523 208.69776 
L 54.684972 206.562715 
L 54.956322 197.236839 
L 55.227671 181.121726 
L 55.499021 153.274811 
L 55.77037 105.268435 
L 55.86082 82.712702 
L 55.95127 205.706955 
L 56.04172 202.97375 
L 56.313069 191.035107 
L 56.584419 170.405134 
L 56.855768 134.790152 
L 57.127117 74.007217 
L 57.217567 204.836407 
L 57.308017 201.929091 
L 57.579367 189.229938 
L 57.850716 167.305667 
L 58.122065 129.585708 
L 58.302965 90.470678 
L 58.393415 206.482753 
L 58.483865 203.904707 
L 58.755214 192.643801 
L 59.026564 173.184957 
L 59.297913 139.564883 
L 59.659712 81.545957 
L 59.750162 205.590281 
L 59.840612 202.83374 
L 60.111961 190.793171 
L 60.383311 169.987068 
L 60.65466 134.049858 
L 60.83556 96.537383 
L 60.92601 207.089423 
L 61.01646 204.632711 
L 61.287809 193.901793 
L 61.559159 175.358857 
L 61.830508 143.332579 
L 62.101857 88.063326 
L 62.192307 206.242018 
L 62.282757 203.615825 
L 62.554107 192.144613 
L 62.825456 172.323988 
L 63.096805 138.11054 
L 63.277705 102.403447 
L 63.368155 207.67603 
L 63.458605 205.336639 
L 63.729954 195.11818 
L 64.001304 177.46102 
L 64.272653 146.967329 
L 64.453553 115.139093 
L 64.544002 208.949594 
L 64.634452 206.864917 
L 64.905802 197.759044 
L 65.177151 182.024325 
L 65.448501 154.845165 
L 65.8103 107.918514 
L 65.90075 208.227537 
L 65.9912 205.998447 
L 66.262549 196.261785 
L 66.533898 179.437484 
L 66.805248 150.371225 
L 67.076597 120.012565 
L 67.167047 209.436942 
L 67.257497 207.449733 
L 67.528846 198.769607 
L 67.800196 183.770349 
L 68.071545 157.851631 
L 68.342895 113.069081 
L 68.433345 208.742593 
L 68.523794 206.616515 
L 68.795144 197.329806 
L 69.066493 181.282373 
L 69.337843 153.554193 
L 69.518742 124.624261 
L 69.609192 209.898111 
L 69.699642 208.003137 
L 69.970992 199.725888 
L 70.242341 185.423705 
L 70.51369 160.740297 
L 70.87549 118.189101 
L 71.146839 118.189101 
L 71.237289 209.254595 
L 71.327739 207.230917 
L 71.599088 198.391493 
L 71.870438 183.116969 
L 72.141787 156.72259 
L 72.413137 111.113104 
L 72.503586 208.546995 
L 72.594036 206.381798 
L 72.865386 196.924215 
L 73.136735 180.581511 
L 73.408085 152.341319 
L 73.679434 122.847387 
L 73.769884 122.847387 
L 73.860334 103.542268 
L 73.950784 207.789912 
L 74.041233 205.473298 
L 74.312583 195.354326 
L 74.583932 177.868744 
L 74.855282 147.653658 
L 75.036181 116.097154 
L 75.126631 209.045401 
L 75.217081 206.979884 
L 75.48843 197.957707 
L 75.75978 182.367387 
L 76.031129 155.427312 
L 76.302479 108.874863 
L 76.392929 86.775239 
L 76.483378 206.113209 
L 76.573828 203.461254 
L 76.845178 191.877515 
L 77.116527 171.860814 
L 77.387877 137.271955 
L 77.568776 101.147503 
L 77.659226 207.550435 
L 77.749676 205.185926 
L 78.021025 194.857748 
L 78.292375 177.010656 
L 78.563724 146.170882 
L 78.835074 113.967894 
L 79.015973 113.967894 
L 79.106423 208.832475 
L 79.196873 206.724373 
L 79.468222 197.516184 
L 79.739572 181.604434 
L 80.010921 154.108931 
L 80.282271 106.603615 
L 80.372721 208.096047 
L 80.46317 205.840659 
L 80.73452 195.989127 
L 81.005869 178.96568 
L 81.277219 149.549163 
L 81.548568 98.723155 
L 81.639018 74.596097 
L 81.729468 204.895295 
L 81.819918 201.999757 
L 82.091267 189.352048 
L 82.362617 167.496807 
L 82.633966 129.730951 
L 82.814866 90.293423 
L 82.905315 206.465027 
L 82.995765 203.883436 
L 83.267115 192.607046 
L 83.538464 173.121443 
L 83.809814 139.450322 
L 84.081163 81.266624 
L 84.171613 205.562347 
L 84.262063 202.80022 
L 84.533412 190.735249 
L 84.804762 169.886978 
L 84.895211 218.88 
L 84.985661 218.781403 
L 85.347461 218.146283 
L 85.61881 217.253245 
L 85.890159 215.710075 
L 86.161509 213.043478 
L 86.432858 208.435598 
L 86.704208 200.473182 
L 86.975557 186.714126 
L 87.246907 162.938478 
L 87.518256 121.854158 
L 87.699156 78.947463 
L 87.789606 218.88 
L 87.880055 218.781403 
L 88.241855 218.146283 
L 88.513204 217.253245 
L 88.784554 215.710075 
L 89.055903 213.043478 
L 89.327253 208.435598 
L 89.598602 200.473182 
L 89.869951 186.714126 
L 90.141301 162.938478 
L 90.41265 121.854158 
L 90.77445 50.870171 
L 91.226699 50.870171 
L 91.317149 202.522702 
L 91.407598 199.152646 
L 91.678948 184.43224 
L 91.950297 158.995379 
L 92.221647 115.040483 
L 92.492996 39.086423 
L 92.583446 201.344327 
L 92.673896 197.738596 
L 92.945245 181.988762 
L 93.216595 154.773232 
L 93.487944 107.744613 
L 93.759294 26.47916 
L 93.849743 200.083601 
L 93.940193 196.225725 
L 94.211543 179.37452 
L 94.482892 150.255639 
L 94.754242 99.938212 
L 94.935141 47.386913 
L 95.025591 202.174376 
L 95.116041 198.734655 
L 95.38739 183.709952 
L 95.65874 157.74741 
L 95.930089 112.884202 
L 96.201439 35.360369 
L 96.291888 200.971722 
L 96.382338 197.29147 
L 96.653688 181.216128 
L 96.925037 153.438045 
L 97.015487 140.251057 
L 97.196387 218.581761 
L 97.377286 218.88 
L 99.367182 218.781403 
L 99.728982 218.146283 
L 99.909881 218.88 
L 102.261576 218.781403 
L 102.352026 218.663087 
L 102.532926 218.88 
L 104.794171 218.781403 
L 105.155971 218.146283 
L 105.24642 217.900943 
L 105.33687 218.88 
L 105.42732 218.781403 
L 105.789119 218.146283 
L 106.060469 217.253245 
L 106.331818 215.710075 
L 106.603168 213.043478 
L 106.874517 208.435598 
L 107.055417 203.623149 
L 107.236316 218.88 
L 108.502614 218.781403 
L 108.864413 218.146283 
L 109.135763 217.253245 
L 109.407112 215.710075 
L 109.678461 213.043478 
L 109.949811 208.435598 
L 110.22116 200.473182 
L 110.49251 186.714126 
L 110.763859 162.938797 
L 111.035209 121.860058 
L 111.306558 50.987484 
L 111.397008 17.394115 
L 111.487458 199.175097 
L 111.577908 195.135519 
L 111.849257 177.490645 
L 111.939707 169.114178 
L 112.120607 218.869851 
L 112.934655 218.88 
L 113.296454 218.350733 
L 113.567804 217.606535 
L 113.839153 216.32056 
L 114.110503 214.098396 
L 114.381852 210.258496 
L 114.653201 203.623149 
L 114.924551 192.157269 
L 115.1959 172.344495 
L 115.46725 138.116176 
L 115.738599 79.105251 
L 115.919499 17.802371 
L 116.009949 199.215922 
L 116.100399 195.18451 
L 116.190848 190.346815 
L 116.281298 218.88 
L 116.371748 218.781403 
L 116.733547 218.146283 
L 117.004897 217.253245 
L 117.276246 215.710075 
L 117.547596 213.043478 
L 117.818945 208.435598 
L 118.090295 200.473182 
L 118.361644 186.714126 
L 118.632993 162.938478 
L 118.904343 121.855445 
L 119.175692 50.907283 
L 119.266142 17.28 
L 119.356592 199.163685 
L 119.447042 195.121825 
L 119.718391 177.466982 
L 119.989741 146.959414 
L 120.26109 94.242335 
L 120.44199 39.184849 
L 120.53244 201.35417 
L 120.622889 197.750407 
L 120.894239 182.009172 
L 121.165588 154.808317 
L 121.436938 107.80524 
L 121.617837 58.715433 
L 121.708287 203.307228 
L 121.798737 200.094077 
L 122.070087 186.059034 
L 122.341436 161.806478 
L 122.612785 119.898063 
L 122.884135 76.129098 
L 123.245934 76.129098 
L 123.336384 47.480321 
L 123.426834 202.183717 
L 123.517284 198.745864 
L 123.788633 183.729321 
L 124.059983 157.780735 
L 124.331332 112.941577 
L 124.512232 66.111759 
L 124.602681 204.046861 
L 124.693131 200.981636 
L 124.964481 187.592736 
L 125.23583 164.456716 
L 125.50718 124.477673 
L 125.778529 55.393887 
L 125.868979 202.975074 
L 125.959429 199.695492 
L 126.230778 185.370278 
L 126.502128 160.616308 
L 126.773477 117.841449 
L 127.044826 73.167573 
L 128.039774 73.167573 
L 128.130224 43.926491 
L 128.220674 201.828334 
L 128.311124 198.319404 
L 128.582473 182.992399 
L 128.853823 156.507333 
L 129.125172 110.74114 
L 129.306072 62.943129 
L 129.396522 203.729998 
L 129.486972 200.601401 
L 129.758321 186.935689 
L 130.02967 163.321338 
L 130.30102 122.515741 
L 130.572369 52.003668 
L 130.662819 202.636052 
L 130.753269 199.288666 
L 131.024618 184.667282 
L 131.295968 159.401532 
L 131.567317 115.742315 
L 131.748217 70.144821 
L 131.838667 204.450167 
L 131.929117 201.465604 
L 132.200466 188.429032 
L 132.471816 165.901835 
L 132.743165 126.974838 
L 133.014514 59.733943 
L 133.104964 203.409079 
L 133.195414 200.216299 
L 133.466764 186.270232 
L 133.738113 162.171429 
L 134.009462 120.528697 
L 134.280812 77.058297 
L 134.371262 77.058297 
L 134.461712 48.63549 
L 134.552161 202.299234 
L 134.642611 198.884484 
L 134.913961 183.968857 
L 135.18531 158.194652 
L 135.45666 113.657426 
L 135.637559 67.166446 
L 135.728009 204.15233 
L 135.818459 201.108199 
L 136.089808 187.811436 
L 136.361158 164.834629 
L 136.632507 125.130708 
L 136.903857 56.55586 
L 136.994306 203.091271 
L 137.084756 199.834929 
L 137.356106 185.611225 
L 137.627455 161.032664 
L 137.898805 118.560912 
L 138.170154 45.190697 
L 138.260604 201.954755 
L 138.351054 198.471109 
L 138.622403 183.254545 
L 138.893753 156.960321 
L 139.165102 111.523903 
L 139.346002 64.070307 
L 139.436452 203.842716 
L 139.526901 200.736662 
L 139.798251 187.169421 
L 140.0696 163.725227 
L 140.34095 123.21366 
L 140.612299 53.209672 
L 140.702749 202.756652 
L 140.793199 199.433386 
L 141.064548 184.917359 
L 141.335898 159.833665 
L 141.607247 116.489041 
L 141.969046 41.589531 
L 142.059496 201.594638 
L 142.149946 198.038969 
L 142.421295 182.507807 
L 142.692645 155.669958 
L 142.963994 109.294155 
L 143.144894 60.859471 
L 143.235344 203.521632 
L 143.325794 200.351362 
L 143.597143 186.503622 
L 143.868493 162.574726 
L 144.139842 121.225595 
L 144.411191 49.774296 
L 144.501641 202.413115 
L 144.592091 199.021141 
L 144.863441 184.205 
L 145.13479 158.602707 
L 145.406139 114.361946 
L 145.587039 68.15709 
L 145.677489 204.251394 
L 145.767939 201.227076 
L 146.039288 188.016856 
L 146.310638 165.189595 
L 146.581987 125.744088 
L 146.853337 57.58271 
L 146.943786 203.193956 
L 147.034236 199.958151 
L 147.305586 185.824152 
L 147.576935 161.400603 
L 147.848285 119.196711 
L 148.119634 75.119151 
L 148.933682 75.119151 
L 149.024132 46.268384 
L 149.114582 202.062524 
L 149.205032 198.600432 
L 149.476381 183.478014 
L 149.747731 157.346476 
L 150.01908 112.191178 
L 150.19998 65.031184 
L 150.29043 203.938803 
L 150.380879 200.851967 
L 150.652229 187.368668 
L 150.923578 164.069526 
L 151.194928 123.808609 
L 151.466277 54.237745 
L 151.556727 202.85946 
L 151.647177 199.556755 
L 151.918526 185.13054 
L 152.189876 160.202042 
L 152.461225 117.125596 
L 152.642125 72.136746 
L 152.732575 204.64936 
L 152.823025 201.704635 
L 153.094374 188.842077 
L 153.365723 166.615578 
L 153.637073 128.208186 
L 153.908422 61.847355 
L 153.998872 203.620421 
L 154.089322 200.469908 
L 154.360671 186.708469 
L 154.632021 162.928703 
L 154.90337 121.837266 
L 155.08427 78.92155 
L 155.17472 205.32784 
L 155.26517 202.518811 
L 155.536519 190.248974 
L 155.807868 169.046696 
L 156.079218 132.409158 
L 156.350567 69.099493 
L 156.441017 204.345634 
L 156.531467 201.340165 
L 156.802816 188.212273 
L 157.074166 165.527275 
L 157.345515 126.327599 
L 157.616865 85.38763 
L 158.159564 85.38763 
L 158.250014 58.59056 
L 158.340463 203.294741 
L 158.430913 200.079093 
L 158.702263 186.03314 
L 158.973612 161.761734 
L 159.244962 119.820744 
L 159.425861 76.017759 
L 159.516311 205.037461 
L 159.606761 202.170357 
L 159.87811 189.646844 
L 160.14946 168.006215 
L 160.420809 130.611207 
L 160.692159 65.992634 
L 160.782608 204.034948 
L 160.873058 200.967342 
L 161.144408 187.568034 
L 161.415757 164.414031 
L 161.687107 124.403914 
L 162.048906 55.266431 
L 162.139356 202.962328 
L 162.229806 199.680197 
L 162.501155 185.343849 
L 162.772504 160.570639 
L 163.043854 117.762532 
L 163.224754 73.053933 
L 163.315203 204.741078 
L 163.405653 201.814697 
L 163.677003 189.032265 
L 163.948352 166.944222 
L 164.219702 128.776084 
L 164.491051 62.821541 
L 164.581501 203.717839 
L 164.671951 200.58681 
L 164.9433 186.910476 
L 165.21465 163.277771 
L 165.485999 122.440457 
L 165.757348 79.790145 
L 166.028698 79.790145 
L 166.119148 51.873577 
L 166.209598 202.623043 
L 166.300047 199.273055 
L 166.571397 184.640307 
L 166.842746 159.354918 
L 167.114096 115.661766 
L 167.294995 70.028831 
L 167.385445 204.438568 
L 167.475895 201.451685 
L 167.747244 188.40498 
L 168.018594 165.860273 
L 168.289943 126.90302 
L 168.561293 59.584887 
L 168.651743 203.394174 
L 168.742192 200.198412 
L 169.013542 186.239324 
L 169.284891 162.11802 
L 169.556241 120.436406 
L 169.82759 76.904312 
L 169.91804 76.904312 
L 170.00849 48.410577 
L 170.09894 202.276743 
L 170.189389 198.857495 
L 170.460739 183.922219 
L 170.732088 158.114062 
L 171.003438 113.517568 
L 171.184337 66.941185 
L 171.274787 204.129804 
L 171.365237 201.081168 
L 171.636587 187.764726 
L 171.907936 164.753914 
L 172.179285 124.991232 
L 172.450635 56.281316 
L 172.541085 203.063817 
L 172.631535 199.801983 
L 172.902884 185.554295 
L 173.174233 160.93429 
L 173.445583 118.390922 
L 173.626483 73.958815 
L 173.716932 204.831567 
L 173.807382 201.923283 
L 174.078732 189.219901 
L 174.350081 167.268458 
L 174.621431 129.336363 
L 174.89278 63.789703 
L 174.98323 203.814655 
L 175.07368 200.70299 
L 175.345029 187.111234 
L 175.616379 163.624681 
L 175.887728 123.039917 
L 176.159077 80.653368 
L 177.696724 80.653368 
L 177.787174 52.909445 
L 177.877624 202.72663 
L 177.968074 199.397359 
L 178.239423 184.855104 
L 178.510773 159.726088 
L 178.782122 116.303148 
L 178.963022 70.95242 
L 179.053472 204.530927 
L 179.143921 201.562516 
L 179.415271 188.596495 
L 179.68662 166.191212 
L 179.95797 127.474883 
L 180.319769 60.573066 
L 180.410219 203.492992 
L 180.500669 200.316993 
L 180.772018 186.444232 
L 181.043368 162.472102 
L 181.314717 121.04826 
L 181.495617 77.785382 
L 181.586067 205.214223 
L 181.676516 202.382471 
L 181.947866 190.013378 
L 182.219215 168.639586 
L 182.490565 131.705672 
L 182.761914 67.88387 
L 182.852364 204.224072 
L 182.942814 201.19429 
L 183.214163 187.960201 
L 183.485513 165.091695 
L 183.756862 125.574917 
L 184.028212 57.289925 
L 184.118661 203.164678 
L 184.209111 199.923016 
L 184.480461 185.76344 
L 184.75181 161.295693 
L 185.02316 119.015426 
L 185.294509 74.8581 
L 185.927658 74.8581 
L 186.018108 204.921495 
L 186.108557 202.031197 
L 186.379907 189.406377 
L 186.651256 167.590688 
L 186.922606 129.893177 
L 187.284405 64.751878 
L 187.374855 203.910873 
L 187.465305 200.818451 
L 187.736654 187.310751 
L 188.008004 163.969446 
L 188.279353 123.63567 
L 188.460253 81.511253 
L 188.550702 205.58681 
L 188.641152 202.829576 
L 188.912502 190.785975 
L 189.183851 169.974633 
L 189.455201 134.012633 
L 189.72655 71.870299 
L 189.817 204.622715 
L 189.90745 201.672661 
L 190.178799 188.786827 
L 190.450149 166.520105 
L 190.721498 128.043209 
L 190.992848 61.555133 
L 191.083297 203.591198 
L 191.173747 200.434841 
L 191.445097 186.647874 
L 191.716446 162.823994 
L 191.987796 121.65633 
L 192.349595 50.518606 
L 192.440045 202.487546 
L 192.530494 199.110458 
L 192.801844 184.35934 
L 193.073193 158.869407 
L 193.344543 114.822804 
L 193.525442 68.820725 
L 193.615892 204.317758 
L 193.706342 201.306712 
L 193.977692 188.154467 
L 194.249041 165.427387 
L 194.52039 126.154993 
L 194.79174 58.292296 
L 194.88219 203.264915 
L 194.97264 200.043301 
L 195.243989 185.971292 
L 195.515338 161.654861 
L 195.786688 119.636068 
L 195.967588 75.751825 
L 196.058037 205.010868 
L 196.148487 202.138444 
L 196.419837 189.5917 
L 196.691186 167.910926 
L 196.962536 130.446547 
L 197.233885 65.708102 
L 197.324335 204.006495 
L 197.414785 200.933198 
L 197.686134 187.509034 
L 197.957484 164.312078 
L 198.228833 124.227739 
L 198.500182 82.363832 
L 198.590632 82.363832 
L 198.681082 54.962001 
L 198.771532 202.931885 
L 198.861982 199.643666 
L 199.133331 185.280722 
L 199.404681 160.461556 
L 199.67603 117.574037 
L 199.85693 72.7825 
L 199.94738 204.713935 
L 200.037829 201.782125 
L 200.309179 188.975981 
L 200.580528 166.846963 
L 200.851878 128.60802 
L 201.123227 62.531127 
L 201.213677 203.688798 
L 201.304127 200.551961 
L 201.575476 186.850256 
L 201.846826 163.17371 
L 202.118175 122.26064 
L 202.389525 51.562854 
L 202.479974 202.59197 
L 202.570424 199.235768 
L 202.841774 184.575875 
L 203.113123 159.24358 
L 203.384473 115.469374 
L 203.655822 69.751786 
L 203.836722 69.751786 
L 203.927171 204.410864 
L 204.017621 201.41844 
L 204.288971 188.347532 
L 204.56032 165.761003 
L 204.83167 126.731482 
L 205.103019 59.288468 
L 205.193469 203.364532 
L 205.283919 200.162842 
L 205.555268 186.177858 
L 205.826618 162.011807 
L 206.097967 120.252871 
L 206.369317 76.640022 
L 206.912015 76.640022 
L 207.002465 48.093429 
L 207.092915 202.245028 
L 207.183365 198.819437 
L 207.454714 183.856455 
L 207.726064 158.000423 
L 207.997413 113.321198 
L 208.178313 66.658413 
L 208.268763 204.101526 
L 208.359213 201.047235 
L 208.630562 187.70609 
L 208.901911 164.652592 
L 209.173261 124.816146 
L 209.53506 55.978769 
L 209.62551 203.033562 
L 209.71596 199.765678 
L 209.987309 185.491559 
L 210.258659 160.825882 
L 210.530008 118.203593 
L 210.891807 44.552276 
L 210.982257 201.890913 
L 211.072707 198.394499 
L 211.344057 183.122162 
L 211.615406 156.731563 
L 211.886755 111.128609 
L 212.067655 63.501085 
L 212.158105 203.785794 
L 212.248555 200.668356 
L 212.519904 187.051387 
L 212.791254 163.521264 
L 213.062603 122.861212 
L 213.333953 52.600643 
L 213.424402 202.695749 
L 213.514852 199.360303 
L 213.786202 184.791071 
L 214.057551 159.615439 
L 214.328901 116.111946 
L 214.60025 70.677089 
L 214.78115 70.677089 
L 214.871599 204.503394 
L 214.962049 201.529476 
L 215.233399 188.539403 
L 215.504748 166.092556 
L 215.776098 127.304405 
L 216.047447 60.27848 
L 216.137897 203.463533 
L 216.228347 200.281643 
L 216.499696 186.383147 
L 216.771046 162.366546 
L 217.042395 120.86586 
L 217.223295 77.522726 
L 217.313744 205.187958 
L 217.404194 202.350953 
L 217.675544 189.958914 
L 217.946893 168.545472 
L 218.218243 131.543043 
L 218.489592 67.602846 
L 218.580042 204.19597 
L 218.670492 201.160567 
L 218.941841 187.901928 
L 219.213191 164.990999 
L 219.48454 125.400915 
L 219.75589 56.989249 
L 219.846339 203.13461 
L 219.936789 199.886935 
L 220.208139 185.701092 
L 220.479488 161.187955 
L 220.750838 118.829255 
L 221.112637 45.633421 
L 221.203087 201.999027 
L 221.293536 198.524236 
L 221.564886 183.346348 
L 221.836235 157.118957 
L 222.107585 111.798026 
L 222.288484 64.465044 
L 222.378934 203.88219 
L 222.469384 200.784031 
L 222.740734 187.251273 
L 223.012083 163.866668 
L 223.283432 123.45807 
L 223.554782 53.632014 
L 223.645232 202.798886 
L 223.735682 199.484067 
L 224.007031 185.004936 
L 224.27838 159.984997 
L 224.54973 116.750544 
L 224.821079 71.59667 
L 230.609868 71.59667 
L 230.700318 204.595352 
L 230.790767 201.639826 
L 231.062117 188.730087 
L 231.333466 166.422059 
L 231.604816 127.873785 
L 231.966615 61.262369 
L 232.057065 203.561922 
L 232.147515 200.39971 
L 232.418864 186.587166 
L 232.690213 162.719092 
L 232.961563 121.475058 
L 233.142463 78.399971 
L 233.232912 205.275682 
L 233.323362 202.456222 
L 233.594712 190.14082 
L 233.866061 168.859804 
L 234.137411 132.08621 
L 234.40876 68.541439 
L 234.49921 204.289829 
L 234.58966 201.273198 
L 234.861009 188.096554 
L 235.132359 165.327314 
L 235.403708 125.982067 
L 235.675057 57.99348 
L 235.765507 203.235033 
L 235.855957 200.007443 
L 236.127307 185.90933 
L 236.398656 161.547789 
L 236.670005 119.451048 
L 236.941355 46.707879 
L 237.031805 202.106473 
L 237.122255 198.653171 
L 237.393604 183.569147 
L 237.664953 157.503955 
L 237.936303 112.463302 
L 238.207652 65.423042 
L 238.388552 65.423042 
L 238.479002 203.977989 
L 238.569452 200.89899 
L 238.840801 187.449924 
L 239.112151 164.209936 
L 239.3835 124.051238 
L 239.654849 54.657007 
L 239.745299 202.901386 
L 239.835749 199.607066 
L 240.107099 185.217478 
L 240.378448 160.352271 
L 240.649797 117.385192 
L 240.921147 72.510564 
L 245.986337 72.510564 
L 246.076787 204.686741 
L 246.167236 201.749493 
L 246.438586 188.919592 
L 246.709935 166.749523 
L 246.981285 128.439644 
L 247.252634 62.240173 
L 247.343084 203.659702 
L 247.433534 200.517046 
L 247.704883 186.789924 
L 247.976233 163.069457 
L 248.247582 122.080489 
L 248.518932 79.271792 
L 248.609381 79.271792 
L 248.699831 51.251553 
L 248.790281 202.56084 
L 248.880731 199.198412 
L 249.15208 184.511324 
L 249.42343 159.132035 
L 249.694779 115.276625 
L 249.966129 69.474228 
L 258.197062 69.474228 
L 258.287512 204.383108 
L 258.377962 201.385133 
L 258.649311 188.289977 
L 258.920661 165.661549 
L 259.19201 126.559625 
L 259.46336 58.9915 
L 259.553809 203.334835 
L 259.644259 200.127205 
L 259.915609 186.116279 
L 260.186958 161.905398 
L 260.458308 120.068996 
L 260.820107 47.775693 
L 260.910557 202.213254 
L 261.001006 198.781309 
L 261.272356 183.790569 
L 261.543705 157.886572 
L 261.815055 113.124464 
L 262.086404 66.375116 
L 262.448203 66.375116 
L 262.538653 204.073197 
L 262.629103 201.013239 
L 262.900453 187.647346 
L 263.171802 164.551081 
L 263.443151 124.640736 
L 263.714501 55.675661 
L 263.804951 203.003251 
L 263.895401 199.729305 
L 264.16675 185.428707 
L 264.438099 160.717273 
L 264.709449 118.015916 
L 265.071248 44.227971 
L 265.161698 201.858482 
L 265.252148 198.355582 
L 265.523497 183.054914 
L 265.794847 156.615359 
L 266.066196 110.927808 
L 266.247096 63.211931 
L 266.337546 203.756878 
L 266.427995 200.633657 
L 266.699345 186.991428 
L 266.970694 163.417655 
L 267.242044 122.682176 
L 267.603843 52.291268 
L 267.694293 202.664812 
L 267.784743 199.323178 
L 268.056092 184.726919 
L 268.327442 159.504584 
L 268.598791 115.920389 
L 268.779691 70.401247 
L 268.870141 204.47581 
L 268.96059 201.496375 
L 269.23194 188.482204 
L 269.503289 165.993717 
L 269.774639 127.133611 
L 270.045988 59.983348 
L 270.136438 203.43402 
L 270.226888 200.246227 
L 270.498237 186.321949 
L 270.769587 162.260795 
L 271.040936 120.683122 
L 271.402735 48.836903 
L 271.493185 202.319375 
L 271.583635 198.908654 
L 271.854985 184.010622 
L 272.126334 158.266823 
L 272.397683 113.781538 
L 272.669033 67.321301 
L 272.940382 67.321301 
L 273.030832 204.167815 
L 273.121282 201.126782 
L 273.392631 187.843547 
L 273.663981 164.890117 
L 273.93533 125.22659 
L 274.20668 56.688015 
L 274.29713 203.104487 
L 274.387579 199.850787 
L 274.658929 185.638628 
L 274.930278 161.080018 
L 275.201628 118.642739 
L 275.563427 45.311121 
L 275.653877 201.966797 
L 275.744327 198.48556 
L 276.015676 183.279516 
L 276.287026 157.003471 
L 276.558375 111.598466 
L 276.739275 64.177678 
L 276.829724 203.853453 
L 276.920174 200.749547 
L 277.191524 187.191685 
L 277.462873 163.7637 
L 277.734223 123.280141 
L 278.096022 53.324552 
L 278.186472 202.76814 
L 278.276922 199.447172 
L 278.548271 184.941181 
L 278.81962 159.874828 
L 279.09097 116.560171 
L 279.27187 71.322534 
L 279.362319 204.567938 
L 279.452769 201.60693 
L 279.724119 188.673242 
L 279.995468 166.323831 
L 280.266818 127.704047 
L 280.538167 60.969062 
L 280.628617 203.532591 
L 280.719067 200.364513 
L 280.990416 186.526346 
L 281.261766 162.613994 
L 281.533115 121.29345 
L 281.804464 49.89155 
L 281.894914 202.42484 
L 281.985364 199.035211 
L 282.256714 184.229314 
L 282.528063 158.644722 
L 282.799412 114.434547 
L 283.070762 68.261635 
L 283.251662 68.261635 
L 283.342111 204.261849 
L 283.432561 201.239622 
L 283.703911 188.038534 
L 283.97526 165.227055 
L 284.24661 125.80882 
L 284.517959 57.694109 
L 284.608409 203.205096 
L 284.698859 199.971518 
L 284.970208 185.847252 
L 285.241558 161.440519 
L 285.512907 119.265686 
L 285.784256 75.218475 
L 288.588201 75.218475 
L 288.678651 46.387573 
L 288.7691 202.074442 
L 288.85955 198.614734 
L 289.1309 183.502729 
L 289.402249 157.389183 
L 289.673599 112.264977 
L 289.854498 65.137454 
L 289.944948 203.94943 
L 290.035398 200.86472 
L 290.306747 187.390704 
L 290.578097 164.107605 
L 290.849446 123.874409 
L 291.120796 54.351446 
L 291.211246 202.87083 
L 291.301695 199.570399 
L 291.573045 185.154117 
L 291.844394 160.242783 
L 292.115744 117.195997 
L 292.477543 42.811151 
L 292.567993 201.7168 
L 292.658443 198.185564 
L 292.929792 182.761122 
L 293.201141 156.107687 
L 293.472491 110.050551 
L 293.653391 61.94868 
L 293.74384 203.630553 
L 293.83429 200.482067 
L 294.10564 186.72948 
L 294.376989 162.965009 
L 294.648339 121.900004 
L 295.010138 50.939676 
L 295.100588 202.529653 
L 295.191037 199.160986 
L 295.462387 184.446653 
L 295.733736 159.020284 
L 296.005086 115.083519 
L 296.185985 69.196154 
L 296.276435 204.355301 
L 296.366885 201.351764 
L 296.638235 188.232316 
L 296.909584 165.56191 
L 297.180933 126.387449 
L 297.542733 58.69398 
L 297.633183 203.305083 
L 297.723632 200.091503 
L 297.994982 186.054585 
L 298.266331 161.798791 
L 298.537681 119.88478 
L 298.89948 47.457367 
L 298.98993 202.181422 
L 299.08038 198.74311 
L 299.351729 183.724561 
L 299.623079 157.77251 
L 299.894428 112.927365 
L 300.075328 66.091293 
L 300.165777 204.044814 
L 300.256227 200.979181 
L 300.527577 187.588492 
L 300.798926 164.449383 
L 301.070276 124.465001 
L 301.341625 55.37199 
L 301.432075 202.972884 
L 301.522525 199.692864 
L 301.793874 185.365737 
L 302.065224 160.608462 
L 302.336573 117.827891 
L 302.607923 73.14805 
L 302.879272 73.14805 
L 302.969722 204.75049 
L 303.060172 201.825991 
L 303.331521 189.051781 
L 303.602871 166.977946 
L 303.87422 128.834359 
L 304.145569 62.92224 
L 304.236019 203.727909 
L 304.326469 200.598894 
L 304.597819 186.931357 
L 304.869168 163.313854 
L 305.140517 122.502807 
L 305.321417 79.879929 
L 305.411867 205.423678 
L 305.502317 202.633817 
L 305.773666 190.447704 
L 306.045016 169.3901 
L 306.316365 133.002561 
L 306.587715 70.124894 
L 306.678164 204.448174 
L 306.768614 201.463213 
L 307.039964 188.4249 
L 307.311313 165.894694 
L 307.582662 126.9625 
L 307.854012 59.687668 
L 307.944462 203.404452 
L 308.034912 200.210746 
L 308.306261 186.260636 
L 308.57761 162.154848 
L 308.84896 120.500045 
L 309.210759 48.520546 
L 309.301209 202.28774 
L 309.391659 198.870691 
L 309.663008 183.945022 
L 309.934358 158.153466 
L 310.205707 113.585658 
L 310.386607 67.039234 
L 310.477057 204.139609 
L 310.567506 201.092934 
L 310.838856 187.785057 
L 311.110205 164.789047 
L 311.381555 125.051941 
L 311.652904 56.386222 
L 311.743354 203.074307 
L 311.833804 199.814572 
L 312.105153 185.576049 
L 312.376503 160.97188 
L 312.647852 118.455877 
L 312.919202 74.05235 
L 313.281001 74.05235 
L 313.371451 204.84092 
L 313.461901 201.934507 
L 313.73325 189.239297 
L 314.0046 167.301973 
L 314.275949 129.394277 
L 314.547298 63.88978 
L 314.637748 203.824663 
L 314.728198 200.714999 
L 314.999548 187.131986 
L 315.270897 163.66054 
L 315.542246 123.101882 
L 315.723146 80.742597 
L 315.813596 205.509945 
L 315.904046 202.737337 
L 316.175395 190.626587 
L 316.446745 169.69921 
L 316.718094 133.536702 
L 316.989444 71.047889 
L 317.079893 204.540474 
L 317.170343 201.573972 
L 317.441693 188.616292 
L 317.713042 166.225421 
L 317.984392 127.533995 
L 318.346191 60.675211 
L 318.436641 203.503206 
L 318.52709 200.329251 
L 318.79844 186.465413 
L 319.069789 162.508702 
L 319.341139 121.111506 
L 319.612488 77.876455 
L 319.974288 77.876455 
L 320.064737 205.223331 
L 320.155187 202.3934 
L 320.426537 190.032263 
L 320.697886 168.672219 
L 320.969236 131.762063 
L 321.240585 67.981313 
L 321.331035 204.233816 
L 321.421485 201.205983 
L 321.692834 187.980407 
L 321.964184 165.126611 
L 322.235533 125.635251 
L 322.506882 57.394182 
L 322.597332 203.175103 
L 322.687782 199.935527 
L 322.959131 185.785059 
L 323.230481 161.33305 
L 323.50183 119.079979 
L 323.68273 74.951057 
L 323.77318 204.930791 
L 323.86363 202.042352 
L 324.134979 189.425653 
L 324.406329 167.623996 
L 324.677678 129.950733 
L 325.039477 64.851335 
L 325.129927 203.920819 
L 325.220377 200.830386 
L 325.491726 187.331374 
L 325.763076 164.005083 
L 326.034425 123.697252 
L 326.215325 81.59993 
L 326.305775 205.595678 
L 326.396225 202.840217 
L 326.667574 190.804363 
L 326.938923 170.006407 
L 327.210273 134.06754 
L 327.572072 71.965177 
L 327.662522 204.632203 
L 327.752972 201.684047 
L 328.024321 188.806501 
L 328.295671 166.554101 
L 328.56702 128.101955 
L 328.928819 61.656647 
L 329.019269 203.60135 
L 329.109719 200.447023 
L 329.381069 186.668924 
L 329.652418 162.860368 
L 329.923767 121.719185 
L 330.195117 78.751513 
L 332.637262 78.751513 
L 332.727712 205.310836 
L 332.818162 202.498407 
L 333.089511 190.213715 
L 333.360861 168.985768 
L 333.63221 132.303876 
L 333.903559 93.993468 
L 333.994009 93.993468 
L 334.084459 68.917565 
L 334.174909 204.327442 
L 334.265359 201.318333 
L 334.536708 188.174548 
L 334.808058 165.462087 
L 335.079407 126.214954 
L 335.260307 85.225421 
L 335.350757 205.958227 
L 335.441206 203.275276 
L 335.712556 191.556145 
L 335.983905 171.305486 
L 336.255255 136.312349 
L 336.617054 75.844206 
L 336.707504 205.020106 
L 336.797954 202.14953 
L 337.069303 189.610856 
L 337.340653 167.944028 
L 337.612002 130.503748 
L 337.973801 65.806944 
L 338.064251 204.01638 
L 338.154701 200.945059 
L 338.42605 187.52953 
L 338.6974 164.347495 
L 338.968749 124.28894 
L 339.240099 82.45196 
L 339.511448 82.45196 
L 339.601898 205.680881 
L 339.692348 202.942461 
L 339.963697 190.98104 
L 340.235047 170.311705 
L 340.506396 134.595095 
L 340.777746 72.876792 
L 340.868195 204.723364 
L 340.958645 201.79344 
L 341.229995 188.995533 
L 341.501344 166.880749 
L 341.772694 128.666403 
L 342.134493 62.632013 
L 342.224943 203.698886 
L 342.315392 200.564067 
L 342.586742 186.871176 
L 342.858091 163.20986 
L 343.129441 122.323106 
L 343.31034 79.621159 
L 343.40079 205.397801 
L 343.49124 202.602765 
L 343.76259 190.394045 
L 344.033939 169.297378 
L 344.305288 132.842338 
L 344.486188 94.768853 
L 344.576638 206.91257 
L 344.667088 204.420488 
L 344.938437 193.535071 
L 345.209787 174.725071 
L 345.481136 142.22139 
L 345.752486 86.055031 
L 345.842935 206.041188 
L 345.933385 203.374829 
L 346.204735 191.728173 
L 346.476084 171.602751 
L 346.747434 136.826021 
L 347.109233 76.731832 
L 347.199683 205.108868 
L 347.290132 202.256045 
L 347.561482 189.794914 
L 347.832831 168.26208 
L 348.104181 131.053342 
L 348.37553 92.1927 
L 348.46598 92.1927 
L 348.55643 66.756644 
L 348.64688 204.111349 
L 348.73733 201.059023 
L 349.008679 187.726459 
L 349.280028 164.68779 
L 349.551378 124.876969 
L 349.822727 83.298722 
L 350.094077 83.298722 
L 350.184527 205.765557 
L 350.274976 203.044072 
L 350.546326 191.156625 
L 350.817675 170.615115 
L 351.089025 135.119387 
L 351.360374 73.782769 
L 351.450824 204.813962 
L 351.541274 201.902158 
L 351.812623 189.183397 
L 352.083973 167.205377 
L 352.355322 129.22736 
L 352.717121 63.601347 
L 352.807571 203.79582 
L 352.898021 200.680387 
L 353.169371 187.072177 
L 353.44072 163.55719 
L 353.712069 122.923292 
L 353.892969 80.485427 
L 353.983419 205.484228 
L 354.073869 202.706477 
L 354.345218 190.57326 
L 354.616568 169.607061 
L 354.887917 133.37747 
L 355.068817 95.539443 
L 355.159267 206.989629 
L 355.249716 204.512959 
L 355.521066 193.694861 
L 355.792415 175.001187 
L 356.063765 142.698519 
L 356.425564 86.87951 
L 356.516014 206.123636 
L 356.606464 203.473767 
L 356.877813 191.899137 
L 357.149163 171.898176 
L 357.149163 171.898176 
" clip-path="url(#p11c2cfa655)" style="fill: none; stroke: #1f77b4; stroke-width: 1.5; stroke-linecap: square"/>
   </g>
   <g id="patch_3">
    <path d="M 37.567344 228.96 
L 37.567344 7.2 
" style="fill: none; stroke: #000000; stroke-width: 0.8; stroke-linejoin: miter; stroke-linecap: square"/>
   </g>
   <g id="patch_4">
    <path d="M 372.367344 228.96 
L 372.367344 7.2 
" style="fill: none; stroke: #000000; stroke-width: 0.8; stroke-linejoin: miter; stroke-linecap: square"/>
   </g>
   <g id="patch_5">
    <path d="M 37.567344 228.96 
L 372.367344 228.96 
" style="fill: none; stroke: #000000; stroke-width: 0.8; stroke-linejoin: miter; stroke-linecap: square"/>
   </g>
   <g id="patch_6">
    <path d="M 37.567344 7.2 
L 372.367344 7.2 
" style="fill: none; stroke: #000000; stroke-width: 0.8; stroke-linejoin: miter; stroke-linecap: square"/>
   </g>
   <g id="legend_1">
    <g id="patch_7">
     <path d="M 314.548024 29.420307 
L 365.367344 29.420307 
Q 367.367344 29.420307 367.367344 27.420307 
L 367.367344 14.2 
Q 367.367344 12.2 365.367344 12.2 
L 314.548024 12.2 
Q 312.548024 12.2 312.548024 14.2 
L 312.548024 27.420307 
Q 312.548024 29.420307 314.548024 29.420307 
z
" style="fill: #ffffff; opacity: 0.8; stroke: #cccccc; stroke-linejoin: miter"/>
    </g>
    <g id="line2d_19">
     <path d="M 316.548024 19.79832 
L 326.548024 19.79832 
L 336.548024 19.79832 
" style="fill: none; stroke: #1f77b4; stroke-width: 1.5; stroke-linecap: square"/>
    </g>
    <g id="text_20">
     <!-- CFL -->
     <g transform="translate(344.548024 23.29832) scale(0.1 -0.1)">
      <use xlink:href="#NimbusSanL-Regu-43" transform="scale(0.996264)"/>
      <use xlink:href="#NimbusSanL-Regu-46" transform="translate(71.929985 0) scale(0.996264)"/>
      <use xlink:href="#NimbusSanL-Regu-4c" transform="translate(132.801616 0) scale(0.996264)"/>
     </g>
    </g>
   </g>
  </g>
 </g>
 <defs>
  <clipPath id="p11c2cfa655">
   <rect x="37.567344" y="7.2" width="334.8" height="221.76"/>
  </clipPath>
 </defs>
</svg>
