<?xml version="1.0" encoding="utf-8" standalone="no"?>
<!DOCTYPE svg PUBLIC "-//W3C//DTD SVG 1.1//EN"
  "http://www.w3.org/Graphics/SVG/1.1/DTD/svg11.dtd">
<svg xmlns:xlink="http://www.w3.org/1999/xlink" width="382.150386pt" height="265.600613pt" viewBox="0 0 382.150386 265.600613" xmlns="http://www.w3.org/2000/svg" version="1.1">
 <metadata>
  <rdf:RDF xmlns:dc="http://purl.org/dc/elements/1.1/" xmlns:cc="http://creativecommons.org/ns#" xmlns:rdf="http://www.w3.org/1999/02/22-rdf-syntax-ns#">
   <cc:Work>
    <dc:type rdf:resource="http://purl.org/dc/dcmitype/StillImage"/>
    <dc:date>2025-07-17T20:01:45.366717</dc:date>
    <dc:format>image/svg+xml</dc:format>
    <dc:creator>
     <cc:Agent>
      <dc:title>Matplotlib v3.10.3, https://matplotlib.org/</dc:title>
     </cc:Agent>
    </dc:creator>
   </cc:Work>
  </rdf:RDF>
 </metadata>
 <defs>
  <style type="text/css">*{stroke-linejoin: round; stroke-linecap: butt}</style>
 </defs>
 <g id="figure_1">
  <g id="patch_1">
   <path d="M 0 265.600613 
L 382.150386 265.600613 
L 382.150386 0 
L 0 0 
z
" style="fill: #ffffff"/>
  </g>
  <g id="axes_1">
   <g id="patch_2">
    <path d="M 40.150386 228.96 
L 374.950386 228.96 
L 374.950386 7.2 
L 40.150386 7.2 
z
" style="fill: #ffffff"/>
   </g>
   <g id="matplotlib.axis_1">
    <g id="xtick_1">
     <g id="line2d_1">
      <defs>
       <path id="mccf00e991b" d="M 0 0 
L 0 3.5 
" style="stroke: #000000; stroke-width: 0.8"/>
      </defs>
      <g>
       <use xlink:href="#mccf00e991b" x="55.368567" y="228.96" style="stroke: #000000; stroke-width: 0.8"/>
      </g>
     </g>
     <g id="text_1">
      <!-- $\mathdefault{0}$ -->
      <g transform="translate(52.8779 243.05832) scale(0.1 -0.1)">
       <defs>
        <path id="CMR17-30" d="M 2688 2038 
C 2688 2430 2682 3099 2413 3613 
C 2176 4063 1798 4224 1466 4224 
C 1158 4224 768 4082 525 3620 
C 269 3137 243 2539 243 2038 
C 243 1671 250 1112 448 623 
C 723 -39 1216 -128 1466 -128 
C 1760 -128 2208 -7 2470 604 
C 2662 1048 2688 1568 2688 2038 
z
M 1466 -26 
C 1056 -26 813 328 723 816 
C 653 1196 653 1749 653 2109 
C 653 2604 653 3015 736 3407 
C 858 3954 1216 4121 1466 4121 
C 1728 4121 2067 3947 2189 3420 
C 2272 3054 2278 2623 2278 2109 
C 2278 1691 2278 1176 2202 797 
C 2067 96 1690 -26 1466 -26 
z
" transform="scale(0.015625)"/>
       </defs>
       <use xlink:href="#CMR17-30" transform="scale(0.996264)"/>
      </g>
     </g>
    </g>
    <g id="xtick_2">
     <g id="line2d_2">
      <g>
       <use xlink:href="#mccf00e991b" x="110.506907" y="228.96" style="stroke: #000000; stroke-width: 0.8"/>
      </g>
     </g>
     <g id="text_2">
      <!-- $\mathdefault{50}$ -->
      <g transform="translate(105.525572 243.05832) scale(0.1 -0.1)">
       <defs>
        <path id="CMR17-35" d="M 730 3750 
C 794 3724 1056 3641 1325 3641 
C 1920 3641 2246 3961 2432 4140 
C 2432 4191 2432 4224 2394 4224 
C 2387 4224 2374 4224 2323 4198 
C 2099 4102 1837 4032 1517 4032 
C 1325 4032 1037 4055 723 4191 
C 653 4224 640 4224 634 4224 
C 602 4224 595 4217 595 4090 
L 595 2231 
C 595 2113 595 2080 659 2080 
C 691 2080 704 2093 736 2139 
C 941 2435 1222 2560 1542 2560 
C 1766 2560 2246 2415 2246 1293 
C 2246 1087 2246 716 2054 422 
C 1894 159 1645 25 1370 25 
C 947 25 518 319 403 812 
C 429 806 480 793 506 793 
C 589 793 749 838 749 1036 
C 749 1209 627 1280 506 1280 
C 358 1280 262 1190 262 1011 
C 262 454 704 -128 1382 -128 
C 2042 -128 2669 441 2669 1267 
C 2669 2054 2170 2662 1549 2662 
C 1222 2662 947 2540 730 2304 
L 730 3750 
z
" transform="scale(0.015625)"/>
       </defs>
       <use xlink:href="#CMR17-35" transform="scale(0.996264)"/>
       <use xlink:href="#CMR17-30" transform="translate(45.690477 0) scale(0.996264)"/>
      </g>
     </g>
    </g>
    <g id="xtick_3">
     <g id="line2d_3">
      <g>
       <use xlink:href="#mccf00e991b" x="165.645247" y="228.96" style="stroke: #000000; stroke-width: 0.8"/>
      </g>
     </g>
     <g id="text_3">
      <!-- $\mathdefault{100}$ -->
      <g transform="translate(158.173244 243.05832) scale(0.1 -0.1)">
       <defs>
        <path id="CMR17-31" d="M 1702 4083 
C 1702 4217 1696 4224 1606 4224 
C 1357 3927 979 3833 621 3820 
C 602 3820 570 3820 563 3808 
C 557 3795 557 3782 557 3648 
C 755 3648 1088 3686 1344 3839 
L 1344 467 
C 1344 243 1331 166 781 166 
L 589 166 
L 589 0 
C 896 6 1216 12 1523 12 
C 1830 12 2150 6 2458 0 
L 2458 166 
L 2266 166 
C 1715 166 1702 236 1702 467 
L 1702 4083 
z
" transform="scale(0.015625)"/>
       </defs>
       <use xlink:href="#CMR17-31" transform="scale(0.996264)"/>
       <use xlink:href="#CMR17-30" transform="translate(45.690477 0) scale(0.996264)"/>
       <use xlink:href="#CMR17-30" transform="translate(91.380954 0) scale(0.996264)"/>
      </g>
     </g>
    </g>
    <g id="xtick_4">
     <g id="line2d_4">
      <g>
       <use xlink:href="#mccf00e991b" x="220.783587" y="228.96" style="stroke: #000000; stroke-width: 0.8"/>
      </g>
     </g>
     <g id="text_4">
      <!-- $\mathdefault{150}$ -->
      <g transform="translate(213.311584 243.05832) scale(0.1 -0.1)">
       <use xlink:href="#CMR17-31" transform="scale(0.996264)"/>
       <use xlink:href="#CMR17-35" transform="translate(45.690477 0) scale(0.996264)"/>
       <use xlink:href="#CMR17-30" transform="translate(91.380954 0) scale(0.996264)"/>
      </g>
     </g>
    </g>
    <g id="xtick_5">
     <g id="line2d_5">
      <g>
       <use xlink:href="#mccf00e991b" x="275.921927" y="228.96" style="stroke: #000000; stroke-width: 0.8"/>
      </g>
     </g>
     <g id="text_5">
      <!-- $\mathdefault{200}$ -->
      <g transform="translate(268.449924 243.05832) scale(0.1 -0.1)">
       <defs>
        <path id="CMR17-32" d="M 2669 990 
L 2554 990 
C 2490 537 2438 460 2413 422 
C 2381 371 1920 371 1830 371 
L 602 371 
C 832 620 1280 1073 1824 1596 
C 2214 1966 2669 2400 2669 3033 
C 2669 3788 2067 4224 1395 4224 
C 691 4224 262 3603 262 3027 
C 262 2777 448 2745 525 2745 
C 589 2745 781 2783 781 3007 
C 781 3206 614 3264 525 3264 
C 486 3264 448 3257 422 3244 
C 544 3788 915 4057 1306 4057 
C 1862 4057 2227 3616 2227 3033 
C 2227 2477 1901 1998 1536 1583 
L 262 147 
L 262 0 
L 2515 0 
L 2669 990 
z
" transform="scale(0.015625)"/>
       </defs>
       <use xlink:href="#CMR17-32" transform="scale(0.996264)"/>
       <use xlink:href="#CMR17-30" transform="translate(45.690477 0) scale(0.996264)"/>
       <use xlink:href="#CMR17-30" transform="translate(91.380954 0) scale(0.996264)"/>
      </g>
     </g>
    </g>
    <g id="xtick_6">
     <g id="line2d_6">
      <g>
       <use xlink:href="#mccf00e991b" x="331.060267" y="228.96" style="stroke: #000000; stroke-width: 0.8"/>
      </g>
     </g>
     <g id="text_6">
      <!-- $\mathdefault{250}$ -->
      <g transform="translate(323.588264 243.05832) scale(0.1 -0.1)">
       <use xlink:href="#CMR17-32" transform="scale(0.996264)"/>
       <use xlink:href="#CMR17-35" transform="translate(45.690477 0) scale(0.996264)"/>
       <use xlink:href="#CMR17-30" transform="translate(91.380954 0) scale(0.996264)"/>
      </g>
     </g>
    </g>
    <g id="text_7">
     <!-- Iteration -->
     <g transform="translate(189.603009 256.278627) scale(0.1 -0.1)">
      <defs>
       <path id="NimbusSanL-Regu-49" d="M 1242 4672 
L 640 4672 
L 640 0 
L 1242 0 
L 1242 4672 
z
" transform="scale(0.015625)"/>
       <path id="NimbusSanL-Regu-74" d="M 1626 3328 
L 1075 3328 
L 1075 4249 
L 544 4249 
L 544 3328 
L 90 3328 
L 90 2892 
L 544 2892 
L 544 402 
C 544 64 774 -128 1190 -128 
C 1318 -128 1446 -116 1626 -84 
L 1626 364 
C 1555 345 1472 339 1370 339 
C 1139 339 1075 402 1075 634 
L 1075 2892 
L 1626 2892 
L 1626 3328 
z
" transform="scale(0.015625)"/>
       <path id="NimbusSanL-Regu-65" d="M 3283 1484 
C 3283 1998 3245 2311 3149 2565 
C 2931 3123 2419 3456 1792 3456 
C 858 3456 256 2734 256 1619 
C 256 545 838 -128 1779 -128 
C 2547 -128 3078 307 3213 1018 
L 2675 1018 
C 2528 588 2227 364 1798 364 
C 1459 364 1171 514 992 787 
C 864 974 819 1161 813 1484 
L 3283 1484 
z
M 826 1920 
C 870 2552 1248 2963 1786 2963 
C 2310 2963 2714 2519 2714 1959 
C 2714 1946 2714 1933 2707 1920 
L 826 1920 
z
" transform="scale(0.015625)"/>
       <path id="NimbusSanL-Regu-72" d="M 442 3328 
L 442 0 
L 979 0 
L 979 1727 
C 979 2203 1101 2514 1357 2698 
C 1523 2819 1683 2857 2054 2863 
L 2054 3404 
C 1965 3449 1920 3456 1850 3456 
C 1504 3456 1242 3251 934 2750 
L 934 3328 
L 442 3328 
z
" transform="scale(0.015625)"/>
       <path id="NimbusSanL-Regu-61" d="M 3424 332 
C 3366 320 3341 320 3309 320 
C 3123 320 3021 415 3021 581 
L 3021 2542 
C 3021 3135 2586 3456 1760 3456 
C 1274 3456 870 3315 646 3065 
C 493 2893 429 2702 416 2370 
L 954 2370 
C 998 2778 1242 2963 1741 2963 
C 2221 2963 2490 2784 2490 2466 
L 2490 2326 
C 2490 2103 2355 2007 1933 1956 
C 1178 1861 1062 1835 858 1753 
C 467 1593 269 1294 269 861 
C 269 256 691 -128 1370 -128 
C 1792 -128 2131 19 2509 364 
C 2547 25 2714 -128 3059 -128 
C 3168 -128 3251 -116 3424 -71 
L 3424 332 
z
M 2490 1071 
C 2490 893 2438 785 2278 638 
C 2061 441 1798 339 1485 339 
C 1069 339 826 536 826 874 
C 826 1224 1062 1402 1632 1485 
C 2195 1562 2310 1587 2490 1670 
L 2490 1071 
z
" transform="scale(0.015625)"/>
       <path id="NimbusSanL-Regu-69" d="M 960 3358 
L 429 3358 
L 429 0 
L 960 0 
L 960 3358 
z
M 960 4672 
L 422 4672 
L 422 3999 
L 960 3999 
L 960 4672 
z
" transform="scale(0.015625)"/>
       <path id="NimbusSanL-Regu-6f" d="M 1741 3456 
C 800 3456 230 2784 230 1663 
C 230 543 794 -128 1747 -128 
C 2688 -128 3264 543 3264 1638 
C 3264 2791 2707 3456 1741 3456 
z
M 1747 2963 
C 2349 2963 2707 2472 2707 1644 
C 2707 861 2336 364 1747 364 
C 1152 364 787 855 787 1663 
C 787 2466 1152 2963 1747 2963 
z
" transform="scale(0.015625)"/>
       <path id="NimbusSanL-Regu-6e" d="M 448 3328 
L 448 0 
L 986 0 
L 986 1835 
C 986 2539 1344 2988 1894 2988 
C 2317 2988 2586 2732 2586 2328 
L 2586 0 
L 3117 0 
L 3117 2539 
C 3117 3097 2701 3456 2054 3456 
C 1555 3456 1235 3263 941 2796 
L 941 3328 
L 448 3328 
z
" transform="scale(0.015625)"/>
      </defs>
      <use xlink:href="#NimbusSanL-Regu-49" transform="scale(0.996264)"/>
      <use xlink:href="#NimbusSanL-Regu-74" transform="translate(27.69517 0) scale(0.996264)"/>
      <use xlink:href="#NimbusSanL-Regu-65" transform="translate(55.390339 0) scale(0.996264)"/>
      <use xlink:href="#NimbusSanL-Regu-72" transform="translate(110.782016 0) scale(0.996264)"/>
      <use xlink:href="#NimbusSanL-Regu-61" transform="translate(142.961149 0) scale(0.996264)"/>
      <use xlink:href="#NimbusSanL-Regu-74" transform="translate(198.352826 0) scale(0.996264)"/>
      <use xlink:href="#NimbusSanL-Regu-69" transform="translate(226.047996 0) scale(0.996264)"/>
      <use xlink:href="#NimbusSanL-Regu-6f" transform="translate(248.16478 0) scale(0.996264)"/>
      <use xlink:href="#NimbusSanL-Regu-6e" transform="translate(303.556457 0) scale(0.996264)"/>
     </g>
    </g>
   </g>
   <g id="matplotlib.axis_2">
    <g id="ytick_1">
     <g id="line2d_7">
      <defs>
       <path id="m67cee8341a" d="M 0 0 
L -3.5 0 
" style="stroke: #000000; stroke-width: 0.8"/>
      </defs>
      <g>
       <use xlink:href="#m67cee8341a" x="40.150386" y="197.102827" style="stroke: #000000; stroke-width: 0.8"/>
      </g>
     </g>
     <g id="text_8">
      <!-- $\mathdefault{−7}$ -->
      <g transform="translate(20.420307 200.651988) scale(0.1 -0.1)">
       <defs>
        <path id="CMSY10-0" d="M 4218 1472 
C 4326 1472 4442 1472 4442 1600 
C 4442 1728 4326 1728 4218 1728 
L 755 1728 
C 646 1728 531 1728 531 1600 
C 531 1472 646 1472 755 1472 
L 4218 1472 
z
" transform="scale(0.015625)"/>
        <path id="CMR17-37" d="M 2886 3955 
L 2886 4096 
L 1382 4096 
C 634 4096 621 4166 595 4288 
L 480 4288 
L 294 3104 
L 410 3104 
C 429 3226 474 3552 550 3673 
C 589 3724 1062 3724 1171 3724 
L 2579 3724 
L 1869 2670 
C 1395 1961 1069 1003 1069 166 
C 1069 89 1069 -128 1299 -128 
C 1530 -128 1530 89 1530 172 
L 1530 466 
C 1530 1514 1709 2204 2003 2644 
L 2886 3955 
z
" transform="scale(0.015625)"/>
       </defs>
       <use xlink:href="#CMSY10-0" transform="scale(0.996264)"/>
       <use xlink:href="#CMR17-37" transform="translate(77.487468 0) scale(0.996264)"/>
      </g>
     </g>
    </g>
    <g id="ytick_2">
     <g id="line2d_8">
      <g>
       <use xlink:href="#m67cee8341a" x="40.150386" y="156.10124" style="stroke: #000000; stroke-width: 0.8"/>
      </g>
     </g>
     <g id="text_9">
      <!-- $\mathdefault{−6}$ -->
      <g transform="translate(20.420307 159.6504) scale(0.1 -0.1)">
       <defs>
        <path id="CMR17-36" d="M 678 2198 
C 678 3712 1395 4076 1811 4076 
C 1946 4076 2272 4049 2400 3782 
C 2298 3782 2106 3782 2106 3558 
C 2106 3385 2246 3328 2336 3328 
C 2394 3328 2566 3353 2566 3571 
C 2566 3987 2246 4224 1805 4224 
C 1043 4224 243 3411 243 2011 
C 243 257 966 -128 1478 -128 
C 2099 -128 2688 431 2688 1295 
C 2688 2101 2170 2688 1517 2688 
C 1126 2688 838 2430 678 1979 
L 678 2198 
z
M 1478 25 
C 691 25 691 1212 691 1450 
C 691 1914 909 2585 1504 2585 
C 1613 2585 1926 2585 2138 2140 
C 2253 1889 2253 1624 2253 1302 
C 2253 954 2253 696 2118 438 
C 1978 173 1773 25 1478 25 
z
" transform="scale(0.015625)"/>
       </defs>
       <use xlink:href="#CMSY10-0" transform="scale(0.996264)"/>
       <use xlink:href="#CMR17-36" transform="translate(77.487468 0) scale(0.996264)"/>
      </g>
     </g>
    </g>
    <g id="ytick_3">
     <g id="line2d_9">
      <g>
       <use xlink:href="#m67cee8341a" x="40.150386" y="115.099653" style="stroke: #000000; stroke-width: 0.8"/>
      </g>
     </g>
     <g id="text_10">
      <!-- $\mathdefault{−5}$ -->
      <g transform="translate(20.420307 118.648813) scale(0.1 -0.1)">
       <use xlink:href="#CMSY10-0" transform="scale(0.996264)"/>
       <use xlink:href="#CMR17-35" transform="translate(77.487468 0) scale(0.996264)"/>
      </g>
     </g>
    </g>
    <g id="ytick_4">
     <g id="line2d_10">
      <g>
       <use xlink:href="#m67cee8341a" x="40.150386" y="74.098065" style="stroke: #000000; stroke-width: 0.8"/>
      </g>
     </g>
     <g id="text_11">
      <!-- $\mathdefault{−4}$ -->
      <g transform="translate(20.420307 77.647225) scale(0.1 -0.1)">
       <defs>
        <path id="CMR17-34" d="M 2150 4147 
C 2150 4281 2144 4288 2029 4288 
L 128 1254 
L 128 1088 
L 1779 1088 
L 1779 460 
C 1779 230 1766 166 1318 166 
L 1197 166 
L 1197 0 
C 1402 12 1747 12 1965 12 
C 2182 12 2528 12 2733 0 
L 2733 166 
L 2611 166 
C 2163 166 2150 230 2150 460 
L 2150 1088 
L 2803 1088 
L 2803 1254 
L 2150 1254 
L 2150 4147 
z
M 1798 3723 
L 1798 1254 
L 256 1254 
L 1798 3723 
z
" transform="scale(0.015625)"/>
       </defs>
       <use xlink:href="#CMSY10-0" transform="scale(0.996264)"/>
       <use xlink:href="#CMR17-34" transform="translate(77.487468 0) scale(0.996264)"/>
      </g>
     </g>
    </g>
    <g id="ytick_5">
     <g id="line2d_11">
      <g>
       <use xlink:href="#m67cee8341a" x="40.150386" y="33.096478" style="stroke: #000000; stroke-width: 0.8"/>
      </g>
     </g>
     <g id="text_12">
      <!-- $\mathdefault{−3}$ -->
      <g transform="translate(20.420307 36.645638) scale(0.1 -0.1)">
       <defs>
        <path id="CMR17-33" d="M 1414 2176 
C 1984 2176 2234 1673 2234 1094 
C 2234 322 1824 25 1453 25 
C 1114 25 563 193 390 691 
C 422 678 454 678 486 678 
C 640 678 755 780 755 947 
C 755 1132 614 1216 486 1216 
C 378 1216 211 1164 211 927 
C 211 335 787 -128 1466 -128 
C 2176 -128 2720 432 2720 1087 
C 2720 1718 2208 2176 1600 2246 
C 2086 2347 2554 2776 2554 3353 
C 2554 3856 2048 4224 1472 4224 
C 890 4224 378 3862 378 3347 
C 378 3123 544 3084 627 3084 
C 762 3084 877 3167 877 3334 
C 877 3500 762 3584 627 3584 
C 602 3584 570 3584 544 3571 
C 730 3999 1235 4076 1459 4076 
C 1683 4076 2106 3966 2106 3347 
C 2106 3167 2080 2851 1862 2574 
C 1670 2329 1453 2316 1242 2297 
C 1210 2297 1062 2284 1037 2284 
C 992 2278 966 2272 966 2227 
C 966 2182 973 2176 1101 2176 
L 1414 2176 
z
" transform="scale(0.015625)"/>
       </defs>
       <use xlink:href="#CMSY10-0" transform="scale(0.996264)"/>
       <use xlink:href="#CMR17-33" transform="translate(77.487468 0) scale(0.996264)"/>
      </g>
     </g>
    </g>
    <g id="text_13">
     <!-- Linear Solver residual - Blade_17 -->
     <g transform="translate(14.29832 190.622039) rotate(-90) scale(0.1 -0.1)">
      <defs>
       <path id="NimbusSanL-Regu-4c" d="M 1107 4672 
L 512 4672 
L 512 0 
L 3411 0 
L 3411 524 
L 1107 524 
L 1107 4672 
z
" transform="scale(0.015625)"/>
       <path id="NimbusSanL-Regu-53" d="M 3814 3295 
C 3808 4204 3181 4736 2106 4736 
C 1082 4736 448 4211 448 3372 
C 448 2806 749 2450 1363 2291 
L 2522 1986 
C 3110 1833 3379 1598 3379 1236 
C 3379 988 3245 733 3046 593 
C 2861 466 2566 396 2189 396 
C 1683 396 1338 517 1114 784 
C 941 988 864 1210 870 1496 
L 307 1496 
C 314 1070 397 790 582 536 
C 902 102 1440 -128 2150 -128 
C 2707 -128 3162 0 3462 230 
C 3776 479 3974 892 3974 1293 
C 3974 1865 3616 2284 2982 2456 
L 1811 2768 
C 1248 2920 1043 3098 1043 3454 
C 1043 3925 1459 4236 2086 4236 
C 2829 4236 3245 3899 3251 3295 
L 3814 3295 
z
" transform="scale(0.015625)"/>
       <path id="NimbusSanL-Regu-6c" d="M 973 4672 
L 435 4672 
L 435 0 
L 973 0 
L 973 4672 
z
" transform="scale(0.015625)"/>
       <path id="NimbusSanL-Regu-76" d="M 1824 0 
L 3110 3328 
L 2509 3328 
L 1562 629 
L 666 3328 
L 64 3328 
L 1242 0 
L 1824 0 
z
" transform="scale(0.015625)"/>
       <path id="NimbusSanL-Regu-73" d="M 2803 2428 
C 2797 3084 2362 3456 1587 3456 
C 806 3456 301 3052 301 2434 
C 301 1912 570 1663 1363 1472 
L 1862 1351 
C 2234 1262 2381 1129 2381 887 
C 2381 574 2067 364 1600 364 
C 1312 364 1069 447 934 587 
C 851 683 813 778 781 1014 
L 218 1014 
C 243 243 678 -128 1555 -128 
C 2400 -128 2938 288 2938 931 
C 2938 1428 2656 1702 1990 1861 
L 1478 1982 
C 1043 2084 858 2224 858 2459 
C 858 2765 1133 2963 1568 2963 
C 1997 2963 2227 2778 2240 2428 
L 2803 2428 
z
" transform="scale(0.015625)"/>
       <path id="NimbusSanL-Regu-64" d="M 3168 4672 
L 2637 4672 
L 2637 2937 
C 2413 3276 2054 3456 1606 3456 
C 736 3456 166 2759 166 1695 
C 166 568 723 -128 1626 -128 
C 2086 -128 2406 44 2694 460 
L 2694 19 
L 3168 19 
L 3168 4672 
z
M 1696 2956 
C 2272 2956 2637 2447 2637 1651 
C 2637 880 2266 371 1702 371 
C 1114 371 723 887 723 1663 
C 723 2440 1114 2956 1696 2956 
z
" transform="scale(0.015625)"/>
       <path id="NimbusSanL-Regu-75" d="M 3085 19 
L 3085 3328 
L 2554 3328 
L 2554 1454 
C 2554 780 2195 339 1638 339 
C 1216 339 947 591 947 988 
L 947 3328 
L 416 3328 
L 416 780 
C 416 230 832 -128 1485 -128 
C 1978 -128 2291 44 2605 484 
L 2605 19 
L 3085 19 
z
" transform="scale(0.015625)"/>
       <path id="NimbusSanL-Regu-2d" d="M 1818 1996 
L 294 1996 
L 294 1536 
L 1818 1536 
L 1818 1996 
z
" transform="scale(0.015625)"/>
       <path id="NimbusSanL-Regu-42" d="M 506 0 
L 2611 0 
C 3053 0 3379 121 3629 390 
C 3859 632 3987 961 3987 1321 
C 3987 1878 3731 2214 3136 2444 
C 3558 2643 3782 2994 3782 3476 
C 3782 3821 3654 4127 3411 4345 
C 3168 4569 2848 4672 2400 4672 
L 506 4672 
L 506 0 
z
M 1101 2636 
L 1101 4147 
L 2253 4147 
C 2586 4147 2771 4101 2931 3977 
C 3098 3847 3187 3652 3187 3391 
C 3187 3138 3098 2936 2931 2806 
C 2771 2682 2586 2636 2253 2636 
L 1101 2636 
z
M 1101 524 
L 1101 2112 
L 2554 2112 
C 2842 2112 3034 2042 3174 1890 
C 3315 1745 3392 1542 3392 1315 
C 3392 1093 3315 891 3174 746 
C 3034 594 2842 524 2554 524 
L 1101 524 
z
" transform="scale(0.015625)"/>
       <path id="NimbusSanL-Regu-31" d="M 1658 3232 
L 1658 0 
L 2221 0 
L 2221 4537 
L 1850 4537 
C 1651 3840 1523 3744 653 3635 
L 653 3232 
L 1658 3232 
z
" transform="scale(0.015625)"/>
       <path id="NimbusSanL-Regu-37" d="M 3328 4544 
L 294 4544 
L 294 3987 
L 2746 3987 
C 1664 2442 1222 1493 883 0 
L 1485 0 
C 1734 1454 2304 2704 3328 4070 
L 3328 4544 
z
" transform="scale(0.015625)"/>
      </defs>
      <use xlink:href="#NimbusSanL-Regu-4c" transform="scale(0.996264)"/>
      <use xlink:href="#NimbusSanL-Regu-69" transform="translate(55.391677 0) scale(0.996264)"/>
      <use xlink:href="#NimbusSanL-Regu-6e" transform="translate(77.508461 0) scale(0.996264)"/>
      <use xlink:href="#NimbusSanL-Regu-65" transform="translate(132.900138 0) scale(0.996264)"/>
      <use xlink:href="#NimbusSanL-Regu-61" transform="translate(188.291815 0) scale(0.996264)"/>
      <use xlink:href="#NimbusSanL-Regu-72" transform="translate(243.683492 0) scale(0.996264)"/>
      <use xlink:href="#NimbusSanL-Regu-53" transform="translate(304.553892 0) scale(0.996264)"/>
      <use xlink:href="#NimbusSanL-Regu-6f" transform="translate(371.003923 0) scale(0.996264)"/>
      <use xlink:href="#NimbusSanL-Regu-6c" transform="translate(426.3956 0) scale(0.996264)"/>
      <use xlink:href="#NimbusSanL-Regu-76" transform="translate(448.512384 0) scale(0.996264)"/>
      <use xlink:href="#NimbusSanL-Regu-65" transform="translate(495.834955 0) scale(0.996264)"/>
      <use xlink:href="#NimbusSanL-Regu-72" transform="translate(551.226632 0) scale(0.996264)"/>
      <use xlink:href="#NimbusSanL-Regu-72" transform="translate(612.097031 0) scale(0.996264)"/>
      <use xlink:href="#NimbusSanL-Regu-65" transform="translate(645.272261 0) scale(0.996264)"/>
      <use xlink:href="#NimbusSanL-Regu-73" transform="translate(700.663938 0) scale(0.996264)"/>
      <use xlink:href="#NimbusSanL-Regu-69" transform="translate(750.477138 0) scale(0.996264)"/>
      <use xlink:href="#NimbusSanL-Regu-64" transform="translate(772.593923 0) scale(0.996264)"/>
      <use xlink:href="#NimbusSanL-Regu-75" transform="translate(827.9856 0) scale(0.996264)"/>
      <use xlink:href="#NimbusSanL-Regu-61" transform="translate(883.377277 0) scale(0.996264)"/>
      <use xlink:href="#NimbusSanL-Regu-6c" transform="translate(938.768954 0) scale(0.996264)"/>
      <use xlink:href="#NimbusSanL-Regu-2d" transform="translate(988.580908 0) scale(0.996264)"/>
      <use xlink:href="#NimbusSanL-Regu-42" transform="translate(1049.451307 0) scale(0.996264)"/>
      <use xlink:href="#NimbusSanL-Regu-6c" transform="translate(1115.901338 0) scale(0.996264)"/>
      <use xlink:href="#NimbusSanL-Regu-61" transform="translate(1138.018122 0) scale(0.996264)"/>
      <use xlink:href="#NimbusSanL-Regu-64" transform="translate(1193.409799 0) scale(0.996264)"/>
      <use xlink:href="#NimbusSanL-Regu-65" transform="translate(1248.801476 0) scale(0.996264)"/>
      <use xlink:href="#NimbusSanL-Regu-31" transform="translate(1340.058718 0) scale(0.996264)"/>
      <use xlink:href="#NimbusSanL-Regu-37" transform="translate(1395.450395 0) scale(0.996264)"/>
      <path d="M 1310.170494 0 
L 1340.058718 0 
L 1340.058718 0.3985 
L 1310.170494 0.3985 
L 1310.170494 0 
z
"/>
     </g>
    </g>
   </g>
   <g id="line2d_12">
    <path d="M 55.368567 87.73464 
L 56.471334 72.566724 
L 58.676868 24.386046 
L 59.779635 102.106182 
L 60.882401 83.720244 
L 61.985168 106.336277 
L 63.087935 88.755372 
L 64.190702 106.059174 
L 65.293469 88.928591 
L 66.396235 100.114592 
L 67.499002 83.100779 
L 68.601769 90.040054 
L 69.704536 92.274585 
L 70.807303 91.249129 
L 73.012836 51.003007 
L 75.21837 18.406997 
L 76.321137 90.819164 
L 77.423903 110.610891 
L 78.52667 92.071199 
L 79.629437 75.83395 
L 80.732204 88.529155 
L 81.834971 97.021995 
L 82.937737 80.993478 
L 84.040504 85.268811 
L 85.143271 83.130678 
L 86.246038 80.517413 
L 87.348805 62.738291 
L 88.451571 47.783525 
L 89.554338 35.328044 
L 90.657105 25.449425 
L 91.759872 90.775058 
L 92.862639 74.267146 
L 93.965405 91.936776 
L 95.068172 75.742127 
L 96.170939 88.325193 
L 97.273706 96.683436 
L 98.376473 80.030967 
L 99.479239 83.046708 
L 100.582006 83.552573 
L 101.684773 82.979171 
L 104.993073 31.761037 
L 106.09584 29.774017 
L 107.198607 94.100602 
L 108.301374 77.407088 
L 109.404141 95.98998 
L 110.506907 78.790611 
L 111.609674 91.981223 
L 112.712441 74.705396 
L 113.815208 79.868044 
L 114.917975 80.325664 
L 116.020741 79.164204 
L 117.123508 77.383153 
L 119.329042 42.109221 
L 120.431809 28.789684 
L 121.534575 106.923368 
L 122.637342 89.575789 
L 123.740109 111.164725 
L 124.842876 91.592082 
L 125.945643 103.755273 
L 127.048409 84.119572 
L 128.151176 89.754498 
L 129.253943 91.816374 
L 130.35671 90.829425 
L 131.459477 88.332216 
L 132.562243 69.348411 
L 134.767777 39.340198 
L 135.870544 27.38896 
L 136.973311 100.665696 
L 138.076077 83.534617 
L 139.178844 104.37996 
L 140.281611 86.050196 
L 141.384378 99.119762 
L 142.487145 81.007835 
L 143.589911 86.657077 
L 144.692678 89.661922 
L 145.795445 90.964784 
L 146.898212 88.825937 
L 150.206512 30.564776 
L 152.412046 29.843216 
L 153.514813 107.118071 
L 154.617579 89.716879 
L 155.720346 109.082024 
L 156.823113 87.427688 
L 157.92588 102.324458 
L 159.028647 87.824737 
L 160.131413 95.729004 
L 161.23418 96.360214 
L 162.336947 74.942019 
L 163.439714 74.894594 
L 164.542481 75.159071 
L 165.645247 59.75143 
L 166.748014 40.917247 
L 167.850781 28.857937 
L 168.953548 105.842328 
L 170.056314 88.448712 
L 171.159081 109.108055 
L 172.261848 90.036464 
L 173.364615 103.075852 
L 174.467382 84.654894 
L 175.570148 93.713012 
L 176.672915 75.364942 
L 177.775682 76.225352 
L 178.878449 77.510132 
L 179.981216 71.602742 
L 182.186749 40.253494 
L 183.289516 27.788336 
L 184.392283 97.743078 
L 185.49505 81.934401 
L 186.597816 102.612742 
L 187.700583 86.950063 
L 188.80335 103.111439 
L 189.906117 84.533714 
L 191.008884 91.84274 
L 192.11165 95.018727 
L 193.214417 191.748997 
L 197.625484 143.320632 
L 202.036552 97.410505 
L 204.242085 75.774746 
L 205.344852 145.473533 
L 208.653152 102.114855 
L 210.858686 76.540732 
L 211.961453 102.8707 
L 213.06422 86.067273 
L 214.166986 106.290635 
L 216.37252 75.513331 
L 217.475287 94.995772 
L 218.578054 79.966239 
L 220.783587 90.339053 
L 221.886354 74.128088 
L 222.989121 87.97571 
L 224.091888 68.944402 
L 225.194654 52.230275 
L 226.297421 27.479388 
L 227.400188 109.98422 
L 228.502955 91.261572 
L 229.605722 110.361489 
L 230.708488 89.273582 
L 231.811255 100.485046 
L 232.914022 80.194925 
L 234.016789 83.280065 
L 235.119556 88.421264 
L 236.222322 85.358297 
L 237.325089 84.24706 
L 238.427856 59.208899 
L 240.63339 17.28 
L 241.736156 104.96436 
L 242.838923 87.915331 
L 243.94169 111.344326 
L 246.147224 74.694867 
L 247.24999 77.663608 
L 248.352757 84.949397 
L 249.455524 181.438533 
L 254.969358 122.86635 
L 258.277658 89.524461 
L 259.380425 78.987159 
L 260.483192 148.045623 
L 263.791492 104.491687 
L 265.997026 78.382175 
L 267.099793 114.876282 
L 269.305326 85.191538 
L 270.408093 107.015272 
L 271.51086 89.810414 
L 272.613627 99.249044 
L 273.716394 77.869831 
L 274.81916 76.153348 
L 275.921927 91.754559 
L 277.024694 87.126689 
L 278.127461 73.292115 
L 279.230228 47.879168 
L 280.332994 36.364646 
L 281.435761 21.660069 
L 282.538528 89.223366 
L 283.641295 75.359891 
L 284.744062 98.749708 
L 285.846828 81.097241 
L 286.949595 94.054367 
L 288.052362 74.661556 
L 289.155129 80.931028 
L 290.257896 78.667184 
L 291.360662 90.765344 
L 292.463429 65.080663 
L 293.566196 47.974485 
L 294.668963 34.415403 
L 295.77173 23.789927 
L 296.874496 118.015572 
L 299.08003 97.365612 
L 301.285564 78.249708 
L 302.38833 159.500441 
L 304.593864 132.402034 
L 306.799397 108.275048 
L 309.004931 86.891639 
L 310.107698 76.94976 
L 311.210465 121.078367 
L 314.518765 81.018552 
L 315.621532 103.516824 
L 316.724299 87.792057 
L 317.827065 102.228202 
L 318.929832 86.003468 
L 320.032599 93.857302 
L 321.135366 77.248724 
L 322.238133 78.174369 
L 323.340899 77.727119 
L 324.443666 73.779127 
L 325.546433 52.340006 
L 327.751967 32.228668 
L 328.854733 29.860864 
L 329.9575 24.927822 
L 331.060267 102.294593 
L 332.163034 93.719778 
L 333.265801 81.683021 
L 334.368567 101.091033 
L 335.471334 84.024995 
L 336.574101 91.979257 
L 337.676868 92.285957 
L 339.882401 87.888489 
L 344.293469 31.184154 
L 345.396235 30.546645 
L 346.499002 30.704178 
L 347.601769 31.764083 
L 348.704536 25.035173 
L 349.807303 105.494728 
L 350.910069 98.267596 
L 353.115603 74.533439 
L 354.21837 96.967323 
L 355.321137 89.646399 
L 356.423903 95.673435 
L 357.52667 77.921664 
L 358.629437 79.7023 
L 359.732204 74.453147 
L 359.732204 74.453147 
" clip-path="url(#pec3bb09f79)" style="fill: none; stroke: #1f77b4; stroke-width: 1.5; stroke-linecap: square"/>
   </g>
   <g id="line2d_13">
    <path d="M 55.368567 102.090846 
L 56.471334 82.881833 
L 57.574101 89.887327 
L 58.676868 99.090575 
L 59.779635 95.047494 
L 61.985168 74.183742 
L 63.087935 135.743094 
L 66.396235 93.535317 
L 67.499002 79.910553 
L 68.601769 112.850877 
L 70.807303 79.610452 
L 71.910069 100.320497 
L 73.012836 79.744231 
L 74.115603 85.242537 
L 75.21837 89.162013 
L 76.321137 75.48994 
L 77.423903 137.959003 
L 79.629437 110.206635 
L 80.732204 96.1442 
L 81.834971 83.751856 
L 82.937737 120.611868 
L 85.143271 85.952952 
L 86.246038 105.567886 
L 87.348805 87.574374 
L 88.451571 101.854779 
L 89.554338 84.64058 
L 90.657105 93.706984 
L 91.759872 76.551669 
L 92.862639 133.340101 
L 97.273706 77.012998 
L 98.376473 106.573826 
L 99.479239 87.777727 
L 100.582006 104.178655 
L 101.684773 85.917607 
L 102.78754 97.585412 
L 103.890307 81.39087 
L 104.993073 89.62067 
L 106.09584 89.90659 
L 107.198607 79.919192 
L 108.301374 138.124006 
L 112.712441 78.893544 
L 113.815208 107.053809 
L 114.917975 88.028236 
L 116.020741 103.359958 
L 117.123508 83.055566 
L 118.226275 91.712574 
L 119.329042 74.275563 
L 120.431809 80.023909 
L 121.534575 146.033974 
L 123.740109 112.555991 
L 125.945643 82.723134 
L 127.048409 114.833445 
L 129.253943 78.438381 
L 130.35671 95.341752 
L 131.459477 78.640067 
L 132.562243 89.85077 
L 133.66501 96.542873 
L 134.767777 77.404727 
L 135.870544 80.405939 
L 136.973311 140.048946 
L 139.178844 108.608362 
L 141.384378 80.339927 
L 142.487145 108.909435 
L 144.692678 75.484288 
L 145.795445 92.04442 
L 146.898212 77.481585 
L 148.000979 89.945977 
L 149.103745 76.907516 
L 150.206512 84.029753 
L 152.412046 81.831541 
L 153.514813 81.651101 
L 154.617579 143.244618 
L 159.028647 85.259146 
L 160.131413 109.519287 
L 162.336947 76.779205 
L 163.439714 91.349848 
L 164.542481 75.937416 
L 165.645247 85.891166 
L 166.748014 91.624457 
L 167.850781 93.448175 
L 168.953548 125.065687 
L 172.261848 79.249848 
L 173.364615 112.534299 
L 175.570148 76.791779 
L 176.672915 95.446035 
L 177.775682 78.182236 
L 178.878449 91.617564 
L 179.981216 76.728879 
L 181.083982 89.943364 
L 182.186749 77.597503 
L 183.289516 87.9617 
L 184.392283 120.967326 
L 186.597816 87.142233 
L 187.700583 126.10783 
L 189.906117 93.053874 
L 191.008884 78.185475 
L 192.11165 101.540143 
L 193.214417 87.558476 
L 195.419951 74.516357 
L 196.522718 213.717325 
L 207.550386 81.9642 
L 208.653152 147.762178 
L 210.858686 114.287164 
L 213.06422 83.200602 
L 214.166986 122.691017 
L 216.37252 85.289764 
L 217.475287 113.836815 
L 218.578054 95.795003 
L 219.68082 80.197807 
L 220.783587 117.273102 
L 221.886354 102.305411 
L 222.989121 89.638489 
L 224.091888 78.907704 
L 225.194654 99.926685 
L 226.297421 90.058311 
L 227.400188 83.640424 
L 228.502955 113.366012 
L 229.605722 94.355509 
L 230.708488 77.78373 
L 231.811255 105.807318 
L 234.016789 77.89769 
L 235.119556 118.933951 
L 237.325089 95.265165 
L 238.427856 83.897526 
L 239.530623 99.722854 
L 240.63339 80.880411 
L 241.736156 87.729084 
L 242.838923 119.166827 
L 243.94169 99.502782 
L 245.044457 82.282621 
L 246.147224 110.200756 
L 248.352757 81.003193 
L 249.455524 218.88 
L 258.277658 117.703239 
L 261.585959 81.605951 
L 262.688726 148.267724 
L 264.894259 115.237166 
L 267.099793 85.100471 
L 268.20256 124.679596 
L 270.408093 92.107906 
L 271.51086 77.693357 
L 272.613627 106.011425 
L 273.716394 90.736354 
L 274.81916 77.026663 
L 275.921927 109.015482 
L 278.127461 75.443552 
L 279.230228 87.670231 
L 280.332994 76.080291 
L 281.435761 82.734653 
L 282.538528 84.685221 
L 283.641295 115.956689 
L 284.744062 96.475264 
L 285.846828 79.427577 
L 286.949595 106.648396 
L 289.155129 77.167625 
L 290.257896 109.265435 
L 292.463429 76.931514 
L 293.566196 94.637184 
L 294.668963 81.225533 
L 295.77173 86.335385 
L 296.874496 215.586722 
L 304.593864 127.531862 
L 307.902164 91.777637 
L 309.004931 80.493253 
L 310.107698 144.522562 
L 312.313231 112.309536 
L 314.518765 83.197264 
L 315.621532 121.701411 
L 317.827065 89.349214 
L 318.929832 115.040334 
L 321.135366 81.939414 
L 322.238133 103.83271 
L 323.340899 86.577821 
L 324.443666 105.210217 
L 326.6492 76.101405 
L 327.751967 89.127716 
L 328.854733 86.232822 
L 329.9575 86.214791 
L 331.060267 110.654677 
L 332.163034 95.033456 
L 333.265801 81.199072 
L 334.368567 115.914889 
L 336.574101 83.589269 
L 337.676868 107.993987 
L 338.779635 90.254246 
L 339.882401 106.699621 
L 340.985168 88.844108 
L 342.087935 97.764624 
L 343.190702 80.027581 
L 344.293469 91.097321 
L 345.396235 87.223318 
L 346.499002 84.703472 
L 348.704536 81.437225 
L 349.807303 112.106022 
L 352.012836 82.345553 
L 353.115603 116.513509 
L 355.321137 83.742434 
L 356.423903 105.802681 
L 357.52667 88.341478 
L 358.629437 104.130572 
L 359.732204 85.83984 
L 359.732204 85.83984 
" clip-path="url(#pec3bb09f79)" style="fill: none; stroke: #ff7f0e; stroke-width: 1.5; stroke-linecap: square"/>
   </g>
   <g id="patch_3">
    <path d="M 40.150386 228.96 
L 40.150386 7.2 
" style="fill: none; stroke: #000000; stroke-width: 0.8; stroke-linejoin: miter; stroke-linecap: square"/>
   </g>
   <g id="patch_4">
    <path d="M 374.950386 228.96 
L 374.950386 7.2 
" style="fill: none; stroke: #000000; stroke-width: 0.8; stroke-linejoin: miter; stroke-linecap: square"/>
   </g>
   <g id="patch_5">
    <path d="M 40.150386 228.96 
L 374.950386 228.96 
" style="fill: none; stroke: #000000; stroke-width: 0.8; stroke-linejoin: miter; stroke-linecap: square"/>
   </g>
   <g id="patch_6">
    <path d="M 40.150386 7.2 
L 374.950386 7.2 
" style="fill: none; stroke: #000000; stroke-width: 0.8; stroke-linejoin: miter; stroke-linecap: square"/>
   </g>
   <g id="legend_1">
    <g id="patch_7">
     <path d="M 47.150386 223.96 
L 128.33557 223.96 
Q 130.33557 223.96 130.33557 221.96 
L 130.33557 194.519387 
Q 130.33557 192.519387 128.33557 192.519387 
L 47.150386 192.519387 
Q 45.150386 192.519387 45.150386 194.519387 
L 45.150386 221.96 
Q 45.150386 223.96 47.150386 223.96 
z
" style="fill: #ffffff; opacity: 0.8; stroke: #cccccc; stroke-linejoin: miter"/>
    </g>
    <g id="line2d_14">
     <path d="M 49.150386 200.117707 
L 59.150386 200.117707 
L 69.150386 200.117707 
" style="fill: none; stroke: #1f77b4; stroke-width: 1.5; stroke-linecap: square"/>
    </g>
    <g id="text_14">
     <!-- LSRes -->
     <g transform="translate(77.150386 203.617707) scale(0.1 -0.1)">
      <defs>
       <path id="NimbusSanL-Regu-52" d="M 1190 2035 
L 2726 2035 
C 3258 2035 3494 1775 3494 1191 
L 3488 770 
C 3488 478 3539 192 3622 0 
L 4346 0 
L 4346 147 
C 4122 303 4077 471 4064 1101 
C 4058 1879 3936 2111 3430 2329 
C 3955 2585 4166 2907 4166 3432 
C 4166 4230 3661 4672 2746 4672 
L 595 4672 
L 595 0 
L 1190 0 
L 1190 2035 
z
M 1190 2560 
L 1190 4147 
L 2630 4147 
C 2963 4147 3155 4096 3302 3970 
C 3462 3837 3546 3628 3546 3350 
C 3546 2806 3264 2560 2630 2560 
L 1190 2560 
z
" transform="scale(0.015625)"/>
      </defs>
      <use xlink:href="#NimbusSanL-Regu-4c" transform="scale(0.996264)"/>
      <use xlink:href="#NimbusSanL-Regu-53" transform="translate(55.391677 0) scale(0.996264)"/>
      <use xlink:href="#NimbusSanL-Regu-52" transform="translate(121.841708 0) scale(0.996264)"/>
      <use xlink:href="#NimbusSanL-Regu-65" transform="translate(193.771693 0) scale(0.996264)"/>
      <use xlink:href="#NimbusSanL-Regu-73" transform="translate(249.16337 0) scale(0.996264)"/>
     </g>
    </g>
    <g id="line2d_15">
     <path d="M 49.150386 214.338014 
L 59.150386 214.338014 
L 69.150386 214.338014 
" style="fill: none; stroke: #ff7f0e; stroke-width: 1.5; stroke-linecap: square"/>
    </g>
    <g id="text_15">
     <!-- LSResTurb -->
     <g transform="translate(77.150386 217.838014) scale(0.1 -0.1)">
      <defs>
       <path id="NimbusSanL-Regu-54" d="M 2266 4147 
L 3795 4147 
L 3795 4672 
L 134 4672 
L 134 4147 
L 1670 4147 
L 1670 0 
L 2266 0 
L 2266 4147 
z
" transform="scale(0.015625)"/>
       <path id="NimbusSanL-Regu-62" d="M 346 4672 
L 346 19 
L 826 19 
L 826 447 
C 1082 57 1421 -128 1888 -128 
C 2771 -128 3347 594 3347 1702 
C 3347 2784 2797 3456 1914 3456 
C 1453 3456 1126 3283 877 2905 
L 877 4672 
L 346 4672 
z
M 1811 2956 
C 2406 2956 2790 2440 2790 1644 
C 2790 887 2394 371 1811 371 
C 1248 371 877 880 877 1663 
C 877 2447 1248 2956 1811 2956 
z
" transform="scale(0.015625)"/>
      </defs>
      <use xlink:href="#NimbusSanL-Regu-4c" transform="scale(0.996264)"/>
      <use xlink:href="#NimbusSanL-Regu-53" transform="translate(55.391677 0) scale(0.996264)"/>
      <use xlink:href="#NimbusSanL-Regu-52" transform="translate(121.841708 0) scale(0.996264)"/>
      <use xlink:href="#NimbusSanL-Regu-65" transform="translate(193.771693 0) scale(0.996264)"/>
      <use xlink:href="#NimbusSanL-Regu-73" transform="translate(249.16337 0) scale(0.996264)"/>
      <use xlink:href="#NimbusSanL-Regu-54" transform="translate(298.97657 0) scale(0.996264)"/>
      <use xlink:href="#NimbusSanL-Regu-75" transform="translate(347.893519 0) scale(0.996264)"/>
      <use xlink:href="#NimbusSanL-Regu-72" transform="translate(403.285196 0) scale(0.996264)"/>
      <use xlink:href="#NimbusSanL-Regu-62" transform="translate(436.460426 0) scale(0.996264)"/>
     </g>
    </g>
   </g>
  </g>
 </g>
 <defs>
  <clipPath id="pec3bb09f79">
   <rect x="40.150386" y="7.2" width="334.8" height="221.76"/>
  </clipPath>
 </defs>
</svg>
