<?xml version="1.0" encoding="utf-8" standalone="no"?>
<!DOCTYPE svg PUBLIC "-//W3C//DTD SVG 1.1//EN"
  "http://www.w3.org/Graphics/SVG/1.1/DTD/svg11.dtd">
<svg xmlns:xlink="http://www.w3.org/1999/xlink" width="382.334753pt" height="266.739871pt" viewBox="0 0 382.334753 266.739871" xmlns="http://www.w3.org/2000/svg" version="1.1">
 <metadata>
  <rdf:RDF xmlns:dc="http://purl.org/dc/elements/1.1/" xmlns:cc="http://creativecommons.org/ns#" xmlns:rdf="http://www.w3.org/1999/02/22-rdf-syntax-ns#">
   <cc:Work>
    <dc:type rdf:resource="http://purl.org/dc/dcmitype/StillImage"/>
    <dc:date>2025-07-17T21:44:14.731067</dc:date>
    <dc:format>image/svg+xml</dc:format>
    <dc:creator>
     <cc:Agent>
      <dc:title>Matplotlib v3.10.3, https://matplotlib.org/</dc:title>
     </cc:Agent>
    </dc:creator>
   </cc:Work>
  </rdf:RDF>
 </metadata>
 <defs>
  <style type="text/css">*{stroke-linejoin: round; stroke-linecap: butt}</style>
 </defs>
 <g id="figure_1">
  <g id="patch_1">
   <path d="M 0 266.739871 
L 382.334753 266.739871 
L 382.334753 -0 
L 0 -0 
z
" style="fill: #ffffff"/>
  </g>
  <g id="axes_1">
   <g id="patch_2">
    <path d="M 40.334753 230.099258 
L 375.134753 230.099258 
L 375.134753 8.339258 
L 40.334753 8.339258 
z
" style="fill: #ffffff"/>
   </g>
   <g id="matplotlib.axis_1">
    <g id="xtick_1">
     <g id="line2d_1">
      <defs>
       <path id="m70fa6ebec2" d="M 0 0 
L 0 3.5 
" style="stroke: #000000; stroke-width: 0.8"/>
      </defs>
      <g>
       <use xlink:href="#m70fa6ebec2" x="55.552935" y="230.099258" style="stroke: #000000; stroke-width: 0.8"/>
      </g>
     </g>
     <g id="text_1">
      <!-- $\mathdefault{0}$ -->
      <g transform="translate(53.062267 244.197578) scale(0.1 -0.1)">
       <defs>
        <path id="CMR17-30" d="M 2688 2038 
C 2688 2430 2682 3099 2413 3613 
C 2176 4063 1798 4224 1466 4224 
C 1158 4224 768 4082 525 3620 
C 269 3137 243 2539 243 2038 
C 243 1671 250 1112 448 623 
C 723 -39 1216 -128 1466 -128 
C 1760 -128 2208 -7 2470 604 
C 2662 1048 2688 1568 2688 2038 
z
M 1466 -26 
C 1056 -26 813 328 723 816 
C 653 1196 653 1749 653 2109 
C 653 2604 653 3015 736 3407 
C 858 3954 1216 4121 1466 4121 
C 1728 4121 2067 3947 2189 3420 
C 2272 3054 2278 2623 2278 2109 
C 2278 1691 2278 1176 2202 797 
C 2067 96 1690 -26 1466 -26 
z
" transform="scale(0.015625)"/>
       </defs>
       <use xlink:href="#CMR17-30" transform="scale(0.996264)"/>
      </g>
     </g>
    </g>
    <g id="xtick_2">
     <g id="line2d_2">
      <g>
       <use xlink:href="#m70fa6ebec2" x="93.569877" y="230.099258" style="stroke: #000000; stroke-width: 0.8"/>
      </g>
     </g>
     <g id="text_2">
      <!-- $\mathdefault{500}$ -->
      <g transform="translate(86.097874 244.197578) scale(0.1 -0.1)">
       <defs>
        <path id="CMR17-35" d="M 730 3750 
C 794 3724 1056 3641 1325 3641 
C 1920 3641 2246 3961 2432 4140 
C 2432 4191 2432 4224 2394 4224 
C 2387 4224 2374 4224 2323 4198 
C 2099 4102 1837 4032 1517 4032 
C 1325 4032 1037 4055 723 4191 
C 653 4224 640 4224 634 4224 
C 602 4224 595 4217 595 4090 
L 595 2231 
C 595 2113 595 2080 659 2080 
C 691 2080 704 2093 736 2139 
C 941 2435 1222 2560 1542 2560 
C 1766 2560 2246 2415 2246 1293 
C 2246 1087 2246 716 2054 422 
C 1894 159 1645 25 1370 25 
C 947 25 518 319 403 812 
C 429 806 480 793 506 793 
C 589 793 749 838 749 1036 
C 749 1209 627 1280 506 1280 
C 358 1280 262 1190 262 1011 
C 262 454 704 -128 1382 -128 
C 2042 -128 2669 441 2669 1267 
C 2669 2054 2170 2662 1549 2662 
C 1222 2662 947 2540 730 2304 
L 730 3750 
z
" transform="scale(0.015625)"/>
       </defs>
       <use xlink:href="#CMR17-35" transform="scale(0.996264)"/>
       <use xlink:href="#CMR17-30" transform="translate(45.690477 0) scale(0.996264)"/>
       <use xlink:href="#CMR17-30" transform="translate(91.380954 0) scale(0.996264)"/>
      </g>
     </g>
    </g>
    <g id="xtick_3">
     <g id="line2d_3">
      <g>
       <use xlink:href="#m70fa6ebec2" x="131.586818" y="230.099258" style="stroke: #000000; stroke-width: 0.8"/>
      </g>
     </g>
     <g id="text_3">
      <!-- $\mathdefault{1000}$ -->
      <g transform="translate(121.624148 244.197578) scale(0.1 -0.1)">
       <defs>
        <path id="CMR17-31" d="M 1702 4083 
C 1702 4217 1696 4224 1606 4224 
C 1357 3927 979 3833 621 3820 
C 602 3820 570 3820 563 3808 
C 557 3795 557 3782 557 3648 
C 755 3648 1088 3686 1344 3839 
L 1344 467 
C 1344 243 1331 166 781 166 
L 589 166 
L 589 0 
C 896 6 1216 12 1523 12 
C 1830 12 2150 6 2458 0 
L 2458 166 
L 2266 166 
C 1715 166 1702 236 1702 467 
L 1702 4083 
z
" transform="scale(0.015625)"/>
       </defs>
       <use xlink:href="#CMR17-31" transform="scale(0.996264)"/>
       <use xlink:href="#CMR17-30" transform="translate(45.690477 0) scale(0.996264)"/>
       <use xlink:href="#CMR17-30" transform="translate(91.380954 0) scale(0.996264)"/>
       <use xlink:href="#CMR17-30" transform="translate(137.071431 0) scale(0.996264)"/>
      </g>
     </g>
    </g>
    <g id="xtick_4">
     <g id="line2d_4">
      <g>
       <use xlink:href="#m70fa6ebec2" x="169.60376" y="230.099258" style="stroke: #000000; stroke-width: 0.8"/>
      </g>
     </g>
     <g id="text_4">
      <!-- $\mathdefault{1500}$ -->
      <g transform="translate(159.64109 244.197578) scale(0.1 -0.1)">
       <use xlink:href="#CMR17-31" transform="scale(0.996264)"/>
       <use xlink:href="#CMR17-35" transform="translate(45.690477 0) scale(0.996264)"/>
       <use xlink:href="#CMR17-30" transform="translate(91.380954 0) scale(0.996264)"/>
       <use xlink:href="#CMR17-30" transform="translate(137.071431 0) scale(0.996264)"/>
      </g>
     </g>
    </g>
    <g id="xtick_5">
     <g id="line2d_5">
      <g>
       <use xlink:href="#m70fa6ebec2" x="207.620702" y="230.099258" style="stroke: #000000; stroke-width: 0.8"/>
      </g>
     </g>
     <g id="text_5">
      <!-- $\mathdefault{2000}$ -->
      <g transform="translate(197.658032 244.197578) scale(0.1 -0.1)">
       <defs>
        <path id="CMR17-32" d="M 2669 990 
L 2554 990 
C 2490 537 2438 460 2413 422 
C 2381 371 1920 371 1830 371 
L 602 371 
C 832 620 1280 1073 1824 1596 
C 2214 1966 2669 2400 2669 3033 
C 2669 3788 2067 4224 1395 4224 
C 691 4224 262 3603 262 3027 
C 262 2777 448 2745 525 2745 
C 589 2745 781 2783 781 3007 
C 781 3206 614 3264 525 3264 
C 486 3264 448 3257 422 3244 
C 544 3788 915 4057 1306 4057 
C 1862 4057 2227 3616 2227 3033 
C 2227 2477 1901 1998 1536 1583 
L 262 147 
L 262 0 
L 2515 0 
L 2669 990 
z
" transform="scale(0.015625)"/>
       </defs>
       <use xlink:href="#CMR17-32" transform="scale(0.996264)"/>
       <use xlink:href="#CMR17-30" transform="translate(45.690477 0) scale(0.996264)"/>
       <use xlink:href="#CMR17-30" transform="translate(91.380954 0) scale(0.996264)"/>
       <use xlink:href="#CMR17-30" transform="translate(137.071431 0) scale(0.996264)"/>
      </g>
     </g>
    </g>
    <g id="xtick_6">
     <g id="line2d_6">
      <g>
       <use xlink:href="#m70fa6ebec2" x="245.637644" y="230.099258" style="stroke: #000000; stroke-width: 0.8"/>
      </g>
     </g>
     <g id="text_6">
      <!-- $\mathdefault{2500}$ -->
      <g transform="translate(235.674973 244.197578) scale(0.1 -0.1)">
       <use xlink:href="#CMR17-32" transform="scale(0.996264)"/>
       <use xlink:href="#CMR17-35" transform="translate(45.690477 0) scale(0.996264)"/>
       <use xlink:href="#CMR17-30" transform="translate(91.380954 0) scale(0.996264)"/>
       <use xlink:href="#CMR17-30" transform="translate(137.071431 0) scale(0.996264)"/>
      </g>
     </g>
    </g>
    <g id="xtick_7">
     <g id="line2d_7">
      <g>
       <use xlink:href="#m70fa6ebec2" x="283.654586" y="230.099258" style="stroke: #000000; stroke-width: 0.8"/>
      </g>
     </g>
     <g id="text_7">
      <!-- $\mathdefault{3000}$ -->
      <g transform="translate(273.691915 244.197578) scale(0.1 -0.1)">
       <defs>
        <path id="CMR17-33" d="M 1414 2176 
C 1984 2176 2234 1673 2234 1094 
C 2234 322 1824 25 1453 25 
C 1114 25 563 193 390 691 
C 422 678 454 678 486 678 
C 640 678 755 780 755 947 
C 755 1132 614 1216 486 1216 
C 378 1216 211 1164 211 927 
C 211 335 787 -128 1466 -128 
C 2176 -128 2720 432 2720 1087 
C 2720 1718 2208 2176 1600 2246 
C 2086 2347 2554 2776 2554 3353 
C 2554 3856 2048 4224 1472 4224 
C 890 4224 378 3862 378 3347 
C 378 3123 544 3084 627 3084 
C 762 3084 877 3167 877 3334 
C 877 3500 762 3584 627 3584 
C 602 3584 570 3584 544 3571 
C 730 3999 1235 4076 1459 4076 
C 1683 4076 2106 3966 2106 3347 
C 2106 3167 2080 2851 1862 2574 
C 1670 2329 1453 2316 1242 2297 
C 1210 2297 1062 2284 1037 2284 
C 992 2278 966 2272 966 2227 
C 966 2182 973 2176 1101 2176 
L 1414 2176 
z
" transform="scale(0.015625)"/>
       </defs>
       <use xlink:href="#CMR17-33" transform="scale(0.996264)"/>
       <use xlink:href="#CMR17-30" transform="translate(45.690477 0) scale(0.996264)"/>
       <use xlink:href="#CMR17-30" transform="translate(91.380954 0) scale(0.996264)"/>
       <use xlink:href="#CMR17-30" transform="translate(137.071431 0) scale(0.996264)"/>
      </g>
     </g>
    </g>
    <g id="xtick_8">
     <g id="line2d_8">
      <g>
       <use xlink:href="#m70fa6ebec2" x="321.671528" y="230.099258" style="stroke: #000000; stroke-width: 0.8"/>
      </g>
     </g>
     <g id="text_8">
      <!-- $\mathdefault{3500}$ -->
      <g transform="translate(311.708857 244.197578) scale(0.1 -0.1)">
       <use xlink:href="#CMR17-33" transform="scale(0.996264)"/>
       <use xlink:href="#CMR17-35" transform="translate(45.690477 0) scale(0.996264)"/>
       <use xlink:href="#CMR17-30" transform="translate(91.380954 0) scale(0.996264)"/>
       <use xlink:href="#CMR17-30" transform="translate(137.071431 0) scale(0.996264)"/>
      </g>
     </g>
    </g>
    <g id="xtick_9">
     <g id="line2d_9">
      <g>
       <use xlink:href="#m70fa6ebec2" x="359.688469" y="230.099258" style="stroke: #000000; stroke-width: 0.8"/>
      </g>
     </g>
     <g id="text_9">
      <!-- $\mathdefault{4000}$ -->
      <g transform="translate(349.725799 244.197578) scale(0.1 -0.1)">
       <defs>
        <path id="CMR17-34" d="M 2150 4147 
C 2150 4281 2144 4288 2029 4288 
L 128 1254 
L 128 1088 
L 1779 1088 
L 1779 460 
C 1779 230 1766 166 1318 166 
L 1197 166 
L 1197 0 
C 1402 12 1747 12 1965 12 
C 2182 12 2528 12 2733 0 
L 2733 166 
L 2611 166 
C 2163 166 2150 230 2150 460 
L 2150 1088 
L 2803 1088 
L 2803 1254 
L 2150 1254 
L 2150 4147 
z
M 1798 3723 
L 1798 1254 
L 256 1254 
L 1798 3723 
z
" transform="scale(0.015625)"/>
       </defs>
       <use xlink:href="#CMR17-34" transform="scale(0.996264)"/>
       <use xlink:href="#CMR17-30" transform="translate(45.690477 0) scale(0.996264)"/>
       <use xlink:href="#CMR17-30" transform="translate(91.380954 0) scale(0.996264)"/>
       <use xlink:href="#CMR17-30" transform="translate(137.071431 0) scale(0.996264)"/>
      </g>
     </g>
    </g>
    <g id="text_10">
     <!-- Iteration -->
     <g transform="translate(189.787377 257.417885) scale(0.1 -0.1)">
      <defs>
       <path id="NimbusSanL-Regu-49" d="M 1242 4672 
L 640 4672 
L 640 0 
L 1242 0 
L 1242 4672 
z
" transform="scale(0.015625)"/>
       <path id="NimbusSanL-Regu-74" d="M 1626 3328 
L 1075 3328 
L 1075 4249 
L 544 4249 
L 544 3328 
L 90 3328 
L 90 2892 
L 544 2892 
L 544 402 
C 544 64 774 -128 1190 -128 
C 1318 -128 1446 -116 1626 -84 
L 1626 364 
C 1555 345 1472 339 1370 339 
C 1139 339 1075 402 1075 634 
L 1075 2892 
L 1626 2892 
L 1626 3328 
z
" transform="scale(0.015625)"/>
       <path id="NimbusSanL-Regu-65" d="M 3283 1484 
C 3283 1998 3245 2311 3149 2565 
C 2931 3123 2419 3456 1792 3456 
C 858 3456 256 2734 256 1619 
C 256 545 838 -128 1779 -128 
C 2547 -128 3078 307 3213 1018 
L 2675 1018 
C 2528 588 2227 364 1798 364 
C 1459 364 1171 514 992 787 
C 864 974 819 1161 813 1484 
L 3283 1484 
z
M 826 1920 
C 870 2552 1248 2963 1786 2963 
C 2310 2963 2714 2519 2714 1959 
C 2714 1946 2714 1933 2707 1920 
L 826 1920 
z
" transform="scale(0.015625)"/>
       <path id="NimbusSanL-Regu-72" d="M 442 3328 
L 442 0 
L 979 0 
L 979 1727 
C 979 2203 1101 2514 1357 2698 
C 1523 2819 1683 2857 2054 2863 
L 2054 3404 
C 1965 3449 1920 3456 1850 3456 
C 1504 3456 1242 3251 934 2750 
L 934 3328 
L 442 3328 
z
" transform="scale(0.015625)"/>
       <path id="NimbusSanL-Regu-61" d="M 3424 332 
C 3366 320 3341 320 3309 320 
C 3123 320 3021 415 3021 581 
L 3021 2542 
C 3021 3135 2586 3456 1760 3456 
C 1274 3456 870 3315 646 3065 
C 493 2893 429 2702 416 2370 
L 954 2370 
C 998 2778 1242 2963 1741 2963 
C 2221 2963 2490 2784 2490 2466 
L 2490 2326 
C 2490 2103 2355 2007 1933 1956 
C 1178 1861 1062 1835 858 1753 
C 467 1593 269 1294 269 861 
C 269 256 691 -128 1370 -128 
C 1792 -128 2131 19 2509 364 
C 2547 25 2714 -128 3059 -128 
C 3168 -128 3251 -116 3424 -71 
L 3424 332 
z
M 2490 1071 
C 2490 893 2438 785 2278 638 
C 2061 441 1798 339 1485 339 
C 1069 339 826 536 826 874 
C 826 1224 1062 1402 1632 1485 
C 2195 1562 2310 1587 2490 1670 
L 2490 1071 
z
" transform="scale(0.015625)"/>
       <path id="NimbusSanL-Regu-69" d="M 960 3358 
L 429 3358 
L 429 0 
L 960 0 
L 960 3358 
z
M 960 4672 
L 422 4672 
L 422 3999 
L 960 3999 
L 960 4672 
z
" transform="scale(0.015625)"/>
       <path id="NimbusSanL-Regu-6f" d="M 1741 3456 
C 800 3456 230 2784 230 1663 
C 230 543 794 -128 1747 -128 
C 2688 -128 3264 543 3264 1638 
C 3264 2791 2707 3456 1741 3456 
z
M 1747 2963 
C 2349 2963 2707 2472 2707 1644 
C 2707 861 2336 364 1747 364 
C 1152 364 787 855 787 1663 
C 787 2466 1152 2963 1747 2963 
z
" transform="scale(0.015625)"/>
       <path id="NimbusSanL-Regu-6e" d="M 448 3328 
L 448 0 
L 986 0 
L 986 1835 
C 986 2539 1344 2988 1894 2988 
C 2317 2988 2586 2732 2586 2328 
L 2586 0 
L 3117 0 
L 3117 2539 
C 3117 3097 2701 3456 2054 3456 
C 1555 3456 1235 3263 941 2796 
L 941 3328 
L 448 3328 
z
" transform="scale(0.015625)"/>
      </defs>
      <use xlink:href="#NimbusSanL-Regu-49" transform="scale(0.996264)"/>
      <use xlink:href="#NimbusSanL-Regu-74" transform="translate(27.69517 0) scale(0.996264)"/>
      <use xlink:href="#NimbusSanL-Regu-65" transform="translate(55.390339 0) scale(0.996264)"/>
      <use xlink:href="#NimbusSanL-Regu-72" transform="translate(110.782016 0) scale(0.996264)"/>
      <use xlink:href="#NimbusSanL-Regu-61" transform="translate(142.961149 0) scale(0.996264)"/>
      <use xlink:href="#NimbusSanL-Regu-74" transform="translate(198.352826 0) scale(0.996264)"/>
      <use xlink:href="#NimbusSanL-Regu-69" transform="translate(226.047996 0) scale(0.996264)"/>
      <use xlink:href="#NimbusSanL-Regu-6f" transform="translate(248.16478 0) scale(0.996264)"/>
      <use xlink:href="#NimbusSanL-Regu-6e" transform="translate(303.556457 0) scale(0.996264)"/>
     </g>
    </g>
   </g>
   <g id="matplotlib.axis_2">
    <g id="ytick_1">
     <g id="line2d_10">
      <defs>
       <path id="me304b0b87d" d="M 0 0 
L -3.5 0 
" style="stroke: #000000; stroke-width: 0.8"/>
      </defs>
      <g>
       <use xlink:href="#me304b0b87d" x="40.334753" y="221.249846" style="stroke: #000000; stroke-width: 0.8"/>
      </g>
     </g>
     <g id="text_11">
      <!-- $\mathdefault{−3}$ -->
      <g transform="translate(20.604674 224.799006) scale(0.1 -0.1)">
       <defs>
        <path id="CMSY10-0" d="M 4218 1472 
C 4326 1472 4442 1472 4442 1600 
C 4442 1728 4326 1728 4218 1728 
L 755 1728 
C 646 1728 531 1728 531 1600 
C 531 1472 646 1472 755 1472 
L 4218 1472 
z
" transform="scale(0.015625)"/>
       </defs>
       <use xlink:href="#CMSY10-0" transform="scale(0.996264)"/>
       <use xlink:href="#CMR17-33" transform="translate(77.487468 0) scale(0.996264)"/>
      </g>
     </g>
    </g>
    <g id="ytick_2">
     <g id="line2d_11">
      <g>
       <use xlink:href="#me304b0b87d" x="40.334753" y="194.93726" style="stroke: #000000; stroke-width: 0.8"/>
      </g>
     </g>
     <g id="text_12">
      <!-- $\mathdefault{−2}$ -->
      <g transform="translate(20.604674 198.48642) scale(0.1 -0.1)">
       <use xlink:href="#CMSY10-0" transform="scale(0.996264)"/>
       <use xlink:href="#CMR17-32" transform="translate(77.487468 0) scale(0.996264)"/>
      </g>
     </g>
    </g>
    <g id="ytick_3">
     <g id="line2d_12">
      <g>
       <use xlink:href="#me304b0b87d" x="40.334753" y="168.624674" style="stroke: #000000; stroke-width: 0.8"/>
      </g>
     </g>
     <g id="text_13">
      <!-- $\mathdefault{−1}$ -->
      <g transform="translate(20.604674 172.173834) scale(0.1 -0.1)">
       <use xlink:href="#CMSY10-0" transform="scale(0.996264)"/>
       <use xlink:href="#CMR17-31" transform="translate(77.487468 0) scale(0.996264)"/>
      </g>
     </g>
    </g>
    <g id="ytick_4">
     <g id="line2d_13">
      <g>
       <use xlink:href="#me304b0b87d" x="40.334753" y="142.312089" style="stroke: #000000; stroke-width: 0.8"/>
      </g>
     </g>
     <g id="text_14">
      <!-- $\mathdefault{0}$ -->
      <g transform="translate(28.353418 145.861249) scale(0.1 -0.1)">
       <use xlink:href="#CMR17-30" transform="scale(0.996264)"/>
      </g>
     </g>
    </g>
    <g id="ytick_5">
     <g id="line2d_14">
      <g>
       <use xlink:href="#me304b0b87d" x="40.334753" y="115.999503" style="stroke: #000000; stroke-width: 0.8"/>
      </g>
     </g>
     <g id="text_15">
      <!-- $\mathdefault{1}$ -->
      <g transform="translate(28.353418 119.548663) scale(0.1 -0.1)">
       <use xlink:href="#CMR17-31" transform="scale(0.996264)"/>
      </g>
     </g>
    </g>
    <g id="ytick_6">
     <g id="line2d_15">
      <g>
       <use xlink:href="#me304b0b87d" x="40.334753" y="89.686917" style="stroke: #000000; stroke-width: 0.8"/>
      </g>
     </g>
     <g id="text_16">
      <!-- $\mathdefault{2}$ -->
      <g transform="translate(28.353418 93.236077) scale(0.1 -0.1)">
       <use xlink:href="#CMR17-32" transform="scale(0.996264)"/>
      </g>
     </g>
    </g>
    <g id="ytick_7">
     <g id="line2d_16">
      <g>
       <use xlink:href="#me304b0b87d" x="40.334753" y="63.374332" style="stroke: #000000; stroke-width: 0.8"/>
      </g>
     </g>
     <g id="text_17">
      <!-- $\mathdefault{3}$ -->
      <g transform="translate(28.353418 66.923492) scale(0.1 -0.1)">
       <use xlink:href="#CMR17-33" transform="scale(0.996264)"/>
      </g>
     </g>
    </g>
    <g id="ytick_8">
     <g id="line2d_17">
      <g>
       <use xlink:href="#me304b0b87d" x="40.334753" y="37.061746" style="stroke: #000000; stroke-width: 0.8"/>
      </g>
     </g>
     <g id="text_18">
      <!-- $\mathdefault{4}$ -->
      <g transform="translate(28.353418 40.610906) scale(0.1 -0.1)">
       <use xlink:href="#CMR17-34" transform="scale(0.996264)"/>
      </g>
     </g>
    </g>
    <g id="ytick_9">
     <g id="line2d_18">
      <g>
       <use xlink:href="#me304b0b87d" x="40.334753" y="10.74916" style="stroke: #000000; stroke-width: 0.8"/>
      </g>
     </g>
     <g id="text_19">
      <!-- $\mathdefault{5}$ -->
      <g transform="translate(28.353418 14.29832) scale(0.1 -0.1)">
       <use xlink:href="#CMR17-35" transform="scale(0.996264)"/>
      </g>
     </g>
    </g>
    <g id="text_20">
     <!-- Aerodynamic Coefficients - Blade_20 -->
     <g transform="translate(14.482687 200.189705) rotate(-90) scale(0.1 -0.1)">
      <defs>
       <path id="NimbusSanL-Regu-41" d="M 3034 1408 
L 3514 0 
L 4179 0 
L 2541 4672 
L 1773 4672 
L 109 0 
L 742 0 
L 1235 1408 
L 3034 1408 
z
M 2867 1907 
L 1382 1907 
L 2150 4032 
L 2867 1907 
z
" transform="scale(0.015625)"/>
       <path id="NimbusSanL-Regu-64" d="M 3168 4672 
L 2637 4672 
L 2637 2937 
C 2413 3276 2054 3456 1606 3456 
C 736 3456 166 2759 166 1695 
C 166 568 723 -128 1626 -128 
C 2086 -128 2406 44 2694 460 
L 2694 19 
L 3168 19 
L 3168 4672 
z
M 1696 2956 
C 2272 2956 2637 2447 2637 1651 
C 2637 880 2266 371 1702 371 
C 1114 371 723 887 723 1663 
C 723 2440 1114 2956 1696 2956 
z
" transform="scale(0.015625)"/>
       <path id="NimbusSanL-Regu-79" d="M 2483 3328 
L 1555 724 
L 698 3328 
L 128 3328 
L 1261 -29 
L 1056 -558 
C 973 -794 851 -884 627 -884 
C 550 -884 461 -871 346 -845 
L 346 -1325 
C 454 -1383 563 -1408 704 -1408 
C 877 -1408 1062 -1351 1203 -1248 
C 1370 -1127 1466 -986 1568 -718 
L 3059 3328 
L 2483 3328 
z
" transform="scale(0.015625)"/>
       <path id="NimbusSanL-Regu-6d" d="M 448 3328 
L 448 0 
L 986 0 
L 986 2089 
C 986 2597 1338 2988 1773 2988 
C 2170 2988 2394 2744 2394 2315 
L 2394 0 
L 2931 0 
L 2931 2109 
C 2931 2597 3283 2988 3718 2988 
C 4109 2988 4339 2738 4339 2315 
L 4339 0 
L 4877 0 
L 4877 2520 
C 4877 3123 4531 3456 3904 3456 
C 3456 3456 3187 3321 2874 2943 
C 2675 3302 2406 3456 1971 3456 
C 1523 3456 1229 3289 941 2886 
L 941 3328 
L 448 3328 
z
" transform="scale(0.015625)"/>
       <path id="NimbusSanL-Regu-63" d="M 3014 2237 
C 2989 2561 2918 2771 2790 2956 
C 2560 3270 2157 3456 1690 3456 
C 787 3456 198 2740 198 1632 
C 198 555 774 -128 1683 -128 
C 2483 -128 2989 352 3053 1167 
L 2515 1167 
C 2426 632 2150 364 1696 364 
C 1107 364 755 842 755 1632 
C 755 2466 1101 2963 1683 2963 
C 2131 2963 2413 2701 2477 2237 
L 3014 2237 
z
" transform="scale(0.015625)"/>
       <path id="NimbusSanL-Regu-43" d="M 4237 3219 
C 4051 4236 3462 4736 2438 4736 
C 1811 4736 1306 4537 960 4154 
C 538 3696 307 3035 307 2284 
C 307 1522 544 867 986 415 
C 1344 44 1805 -128 2413 -128 
C 3552 -128 4192 485 4333 1712 
L 3718 1712 
C 3667 1394 3603 1178 3507 994 
C 3315 612 2918 396 2419 396 
C 1491 396 902 1134 902 2291 
C 902 3480 1466 4211 2368 4211 
C 2746 4211 3098 4096 3290 3918 
C 3462 3759 3558 3562 3629 3219 
L 4237 3219 
z
" transform="scale(0.015625)"/>
       <path id="NimbusSanL-Regu-66" d="M 1651 3328 
L 1094 3328 
L 1094 3860 
C 1094 4087 1222 4204 1466 4204 
C 1510 4204 1530 4204 1651 4198 
L 1651 4639 
C 1530 4665 1459 4672 1350 4672 
C 858 4672 563 4390 563 3905 
L 563 3328 
L 115 3328 
L 115 2892 
L 563 2892 
L 563 0 
L 1094 0 
L 1094 2892 
L 1651 2892 
L 1651 3328 
z
" transform="scale(0.015625)"/>
       <path id="NimbusSanL-Regu-2" d="M 1613 3328 
L 1056 3328 
L 1056 3860 
C 1056 4087 1184 4204 1427 4204 
C 1472 4204 1491 4204 1613 4198 
L 1613 4639 
C 1491 4665 1421 4672 1312 4672 
C 819 4672 525 4390 525 3905 
L 525 3328 
L 77 3328 
L 77 2892 
L 525 2892 
L 525 0 
L 1056 0 
L 1056 2892 
L 1613 2892 
L 1613 3328 
z
M 2790 3328 
L 2259 3328 
L 2259 0 
L 2790 0 
L 2790 3328 
z
M 2790 4672 
L 2259 4672 
L 2259 3999 
L 2790 3999 
L 2790 4672 
z
" transform="scale(0.015625)"/>
       <path id="NimbusSanL-Regu-73" d="M 2803 2428 
C 2797 3084 2362 3456 1587 3456 
C 806 3456 301 3052 301 2434 
C 301 1912 570 1663 1363 1472 
L 1862 1351 
C 2234 1262 2381 1129 2381 887 
C 2381 574 2067 364 1600 364 
C 1312 364 1069 447 934 587 
C 851 683 813 778 781 1014 
L 218 1014 
C 243 243 678 -128 1555 -128 
C 2400 -128 2938 288 2938 931 
C 2938 1428 2656 1702 1990 1861 
L 1478 1982 
C 1043 2084 858 2224 858 2459 
C 858 2765 1133 2963 1568 2963 
C 1997 2963 2227 2778 2240 2428 
L 2803 2428 
z
" transform="scale(0.015625)"/>
       <path id="NimbusSanL-Regu-2d" d="M 1818 1996 
L 294 1996 
L 294 1536 
L 1818 1536 
L 1818 1996 
z
" transform="scale(0.015625)"/>
       <path id="NimbusSanL-Regu-42" d="M 506 0 
L 2611 0 
C 3053 0 3379 121 3629 390 
C 3859 632 3987 961 3987 1321 
C 3987 1878 3731 2214 3136 2444 
C 3558 2643 3782 2994 3782 3476 
C 3782 3821 3654 4127 3411 4345 
C 3168 4569 2848 4672 2400 4672 
L 506 4672 
L 506 0 
z
M 1101 2636 
L 1101 4147 
L 2253 4147 
C 2586 4147 2771 4101 2931 3977 
C 3098 3847 3187 3652 3187 3391 
C 3187 3138 3098 2936 2931 2806 
C 2771 2682 2586 2636 2253 2636 
L 1101 2636 
z
M 1101 524 
L 1101 2112 
L 2554 2112 
C 2842 2112 3034 2042 3174 1890 
C 3315 1745 3392 1542 3392 1315 
C 3392 1093 3315 891 3174 746 
C 3034 594 2842 524 2554 524 
L 1101 524 
z
" transform="scale(0.015625)"/>
       <path id="NimbusSanL-Regu-6c" d="M 973 4672 
L 435 4672 
L 435 0 
L 973 0 
L 973 4672 
z
" transform="scale(0.015625)"/>
       <path id="NimbusSanL-Regu-32" d="M 3238 556 
L 851 556 
C 909 928 1114 1165 1670 1493 
L 2310 1839 
C 2944 2185 3270 2653 3270 3211 
C 3270 3589 3117 3942 2848 4185 
C 2579 4428 2246 4544 1818 4544 
C 1242 4544 813 4339 563 3955 
C 403 3711 333 3429 320 2967 
L 883 2967 
C 902 3275 941 3461 1018 3608 
C 1165 3884 1459 4051 1798 4051 
C 2310 4051 2694 3685 2694 3198 
C 2694 2839 2483 2531 2080 2300 
L 1491 1967 
C 544 1428 269 999 218 0 
L 3238 0 
L 3238 556 
z
" transform="scale(0.015625)"/>
       <path id="NimbusSanL-Regu-30" d="M 1760 4544 
C 1338 4544 954 4358 717 4044 
C 422 3649 275 3043 275 2207 
C 275 683 787 -128 1760 -128 
C 2720 -128 3245 683 3245 2169 
C 3245 3049 3104 3636 2803 4044 
C 2566 4364 2189 4544 1760 4544 
z
M 1760 4044 
C 2368 4044 2669 3432 2669 2220 
C 2669 938 2374 339 1747 339 
C 1152 339 851 964 851 2201 
C 851 3438 1152 4044 1760 4044 
z
" transform="scale(0.015625)"/>
      </defs>
      <use xlink:href="#NimbusSanL-Regu-41" transform="scale(0.996264)"/>
      <use xlink:href="#NimbusSanL-Regu-65" transform="translate(66.450031 0) scale(0.996264)"/>
      <use xlink:href="#NimbusSanL-Regu-72" transform="translate(121.841708 0) scale(0.996264)"/>
      <use xlink:href="#NimbusSanL-Regu-6f" transform="translate(155.016938 0) scale(0.996264)"/>
      <use xlink:href="#NimbusSanL-Regu-64" transform="translate(210.408615 0) scale(0.996264)"/>
      <use xlink:href="#NimbusSanL-Regu-79" transform="translate(265.800292 0) scale(0.996264)"/>
      <use xlink:href="#NimbusSanL-Regu-6e" transform="translate(315.613492 0) scale(0.996264)"/>
      <use xlink:href="#NimbusSanL-Regu-61" transform="translate(371.005169 0) scale(0.996264)"/>
      <use xlink:href="#NimbusSanL-Regu-6d" transform="translate(426.396846 0) scale(0.996264)"/>
      <use xlink:href="#NimbusSanL-Regu-69" transform="translate(509.385276 0) scale(0.996264)"/>
      <use xlink:href="#NimbusSanL-Regu-63" transform="translate(531.502061 0) scale(0.996264)"/>
      <use xlink:href="#NimbusSanL-Regu-43" transform="translate(609.010431 0) scale(0.996264)"/>
      <use xlink:href="#NimbusSanL-Regu-6f" transform="translate(680.940416 0) scale(0.996264)"/>
      <use xlink:href="#NimbusSanL-Regu-65" transform="translate(736.332093 0) scale(0.996264)"/>
      <use xlink:href="#NimbusSanL-Regu-66" transform="translate(791.72377 0) scale(0.996264)"/>
      <use xlink:href="#NimbusSanL-Regu-2" transform="translate(819.418939 0) scale(0.996264)"/>
      <use xlink:href="#NimbusSanL-Regu-63" transform="translate(869.23214 0) scale(0.996264)"/>
      <use xlink:href="#NimbusSanL-Regu-69" transform="translate(919.04534 0) scale(0.996264)"/>
      <use xlink:href="#NimbusSanL-Regu-65" transform="translate(941.162125 0) scale(0.996264)"/>
      <use xlink:href="#NimbusSanL-Regu-6e" transform="translate(996.553802 0) scale(0.996264)"/>
      <use xlink:href="#NimbusSanL-Regu-74" transform="translate(1051.945479 0) scale(0.996264)"/>
      <use xlink:href="#NimbusSanL-Regu-73" transform="translate(1079.640648 0) scale(0.996264)"/>
      <use xlink:href="#NimbusSanL-Regu-2d" transform="translate(1157.149018 0) scale(0.996264)"/>
      <use xlink:href="#NimbusSanL-Regu-42" transform="translate(1218.019418 0) scale(0.996264)"/>
      <use xlink:href="#NimbusSanL-Regu-6c" transform="translate(1284.469449 0) scale(0.996264)"/>
      <use xlink:href="#NimbusSanL-Regu-61" transform="translate(1306.586233 0) scale(0.996264)"/>
      <use xlink:href="#NimbusSanL-Regu-64" transform="translate(1361.97791 0) scale(0.996264)"/>
      <use xlink:href="#NimbusSanL-Regu-65" transform="translate(1417.369587 0) scale(0.996264)"/>
      <use xlink:href="#NimbusSanL-Regu-32" transform="translate(1508.626829 0) scale(0.996264)"/>
      <use xlink:href="#NimbusSanL-Regu-30" transform="translate(1564.018506 0) scale(0.996264)"/>
      <path d="M 1478.738605 0 
L 1508.626829 0 
L 1508.626829 0.3985 
L 1478.738605 0.3985 
L 1478.738605 0 
z
"/>
     </g>
    </g>
   </g>
   <g id="line2d_19">
    <path d="M 55.552935 92.27962 
L 55.781036 19.207095 
L 55.85707 18.419258 
L 55.933104 18.52933 
L 56.085172 21.414574 
L 56.389307 27.443366 
L 56.617409 28.141006 
L 57.073612 31.684341 
L 57.301714 32.561903 
L 57.529816 34.201728 
L 57.757917 37.148592 
L 58.062053 41.396361 
L 58.290154 42.61085 
L 58.518256 45.161744 
L 58.746358 50.196305 
L 58.898426 56.326941 
L 59.050493 62.205077 
L 59.278595 64.515267 
L 59.506697 69.720285 
L 59.734798 81.381146 
L 60.038934 100.315542 
L 60.267035 102.749202 
L 60.495137 107.231096 
L 61.027374 118.940103 
L 61.179442 118.504115 
L 61.407544 118.286619 
L 61.635645 117.745672 
L 61.863747 116.550411 
L 62.243916 114.166408 
L 62.548052 113.624705 
L 62.852188 112.524922 
L 63.384425 110.357864 
L 63.68856 109.78322 
L 63.916662 108.756729 
L 64.296831 106.516873 
L 64.600967 105.980869 
L 64.905102 104.886886 
L 65.05717 103.537455 
L 65.209238 101.997744 
L 65.43734 101.410522 
L 65.665441 100.072531 
L 65.893543 97.104751 
L 66.121645 93.659556 
L 66.42578 92.703208 
L 66.729916 90.692215 
L 67.338187 85.677468 
L 67.870424 85.335931 
L 68.022492 85.648539 
L 68.174559 86.754071 
L 68.402661 90.824877 
L 68.554729 93.321883 
L 68.78283 94.290733 
L 69.010932 96.398621 
L 69.239034 100.759203 
L 69.619203 110.955767 
L 69.847305 112.994416 
L 70.075406 117.053733 
L 70.303508 124.76061 
L 70.607644 136.597783 
L 70.911779 138.437389 
L 71.52005 143.661235 
L 71.672118 143.256115 
L 71.90022 143.048735 
L 72.128321 142.452104 
L 72.356423 140.995223 
L 72.584525 137.940467 
L 72.88866 134.579375 
L 73.116762 133.739015 
L 73.344863 131.97618 
L 73.572965 128.424391 
L 73.801067 124.080805 
L 74.029168 123.229511 
L 74.25727 121.517664 
L 74.485372 118.244477 
L 74.941575 109.562851 
L 75.169677 108.570129 
L 75.549846 105.483604 
L 75.777948 103.85499 
L 75.853982 103.842904 
L 76.006049 104.2825 
L 76.234151 104.509587 
L 76.462253 105.070032 
L 76.690354 106.457474 
L 76.842422 107.337016 
L 77.146558 107.819282 
L 77.374659 108.614089 
L 77.602761 110.208068 
L 77.754829 111.13413 
L 78.058964 111.639646 
L 78.287066 112.444486 
L 78.515168 114.005576 
L 78.895337 117.181685 
L 79.199472 118.019895 
L 79.503608 119.87505 
L 80.035845 123.938141 
L 80.339981 124.853748 
L 80.644116 126.642637 
L 80.948252 128.530692 
L 81.328421 128.932341 
L 81.784625 129.512897 
L 82.620997 128.560693 
L 82.849099 127.633289 
L 83.229268 125.455981 
L 83.533404 124.862467 
L 83.837539 123.498704 
L 84.141675 120.687749 
L 84.293743 119.599871 
L 84.597878 119.070658 
L 84.902014 117.890811 
L 85.358217 115.962093 
L 85.738386 115.617467 
L 86.042522 115.302949 
L 86.118556 115.328322 
L 86.574759 116.003095 
L 86.802861 116.362535 
L 87.030963 117.182837 
L 87.411132 119.02938 
L 87.715267 119.515523 
L 88.019403 120.619773 
L 88.247505 121.537734 
L 88.627674 121.884236 
L 88.93181 122.491077 
L 89.388013 123.494499 
L 89.844216 123.791353 
L 90.452487 124.380892 
L 90.680589 124.319068 
L 91.136792 124.175045 
L 91.364894 123.877244 
L 91.669029 123.332527 
L 91.973165 123.101344 
L 92.201267 122.689982 
L 92.429368 121.811118 
L 92.733504 120.53675 
L 93.037639 120.27659 
L 93.341775 119.671855 
L 93.64591 118.417942 
L 93.797978 117.942158 
L 94.178148 117.615159 
L 94.482283 117.019847 
L 94.938486 115.948235 
L 95.318656 115.709194 
L 96.078995 115.09755 
L 96.307096 115.258921 
L 96.915367 115.859165 
L 97.219503 116.078278 
L 97.523638 116.621876 
L 97.827774 117.346529 
L 98.207943 117.542984 
L 98.588113 118.047085 
L 98.816214 118.333726 
L 99.500519 118.540298 
L 99.956723 118.598476 
L 101.781536 118.473392 
L 102.922044 118.211291 
L 103.150146 118.126303 
L 103.758417 117.959648 
L 104.21462 117.819305 
L 104.974959 117.904802 
L 105.355128 118.087503 
L 105.811332 118.274293 
L 106.115467 118.68729 
L 106.419603 119.04294 
L 106.875806 119.287793 
L 107.179942 119.710932 
L 107.332009 119.876338 
L 107.864247 120.085225 
L 108.244416 120.533813 
L 108.396484 120.669608 
L 109.004755 120.861603 
L 109.536992 121.055592 
L 110.221297 120.979402 
L 111.361805 120.326517 
L 111.894042 119.539792 
L 112.350246 119.314035 
L 113.034551 118.833222 
L 114.403161 118.633477 
L 114.707296 118.821358 
L 114.859364 118.935776 
L 115.391601 119.107576 
L 115.695737 119.441682 
L 115.999872 119.798864 
L 116.456075 120.040653 
L 116.760211 120.44374 
L 117.216414 121.087915 
L 118.661058 121.099733 
L 119.041228 120.880728 
L 119.497431 120.38806 
L 119.8776 120.138976 
L 120.181736 119.622197 
L 120.333804 119.397815 
L 120.790007 119.175816 
L 121.094142 118.789849 
L 121.474312 118.247557 
L 121.930515 118.012732 
L 122.690854 117.453865 
L 123.451193 117.542308 
L 123.679294 117.621947 
L 124.211532 117.774099 
L 124.515667 118.09367 
L 124.667735 118.244111 
L 125.199972 118.44637 
L 125.580142 118.874339 
L 126.036345 119.329557 
L 126.416514 119.430352 
L 127.480989 119.220382 
L 127.861158 119.088185 
L 128.469429 118.89988 
L 128.925632 118.718854 
L 129.990107 118.712833 
L 130.674412 118.842435 
L 131.966988 119.597851 
L 132.119056 119.731948 
L 132.651293 119.901945 
L 133.411632 120.283722 
L 135.008343 120.570563 
L 136.224885 120.086773 
L 137.213326 119.016357 
L 137.821597 118.837932 
L 138.353834 118.625354 
L 139.570376 118.6267 
L 140.178647 118.788791 
L 140.558817 118.931893 
L 141.091054 119.088332 
L 141.775359 119.411428 
L 142.307596 119.649477 
L 142.535698 119.714682 
L 143.37207 119.888533 
L 143.904308 119.923601 
L 145.196884 119.879629 
L 148.238239 119.511531 
L 150.595289 119.279896 
L 154.168882 118.894518 
L 157.818508 119.32843 
L 161.011931 119.48646 
L 169.907896 119.428732 
L 172.797183 119.351391 
L 178.955928 119.416713 
L 180.552639 119.460566 
L 188.232062 119.396388 
L 198.344568 119.412755 
L 200.017314 119.366624 
L 203.742974 119.430623 
L 206.100024 119.456925 
L 359.916571 119.43967 
L 359.916571 119.43967 
" clip-path="url(#p286ab4926e)" style="fill: none; stroke: #1f77b4; stroke-width: 1.5; stroke-linecap: square"/>
   </g>
   <g id="line2d_20">
    <path d="M 55.552935 167.9874 
L 55.781036 219.625538 
L 55.85707 220.019258 
L 55.933104 219.862387 
L 56.161206 216.929024 
L 56.389307 215.450333 
L 56.693443 216.211693 
L 56.997578 216.170676 
L 57.833951 216.29395 
L 57.986019 216.093383 
L 58.290154 215.929521 
L 58.518256 215.49597 
L 58.746358 214.3717 
L 58.898426 212.758956 
L 59.050493 210.736519 
L 59.278595 209.87158 
L 59.506697 207.729011 
L 59.734798 202.095519 
L 60.114968 189.797221 
L 60.343069 187.237464 
L 60.571171 181.803455 
L 61.179442 162.409071 
L 61.483578 161.751842 
L 61.939781 160.025877 
L 62.167883 159.132048 
L 62.395984 158.994125 
L 62.624086 158.62931 
L 62.928221 157.649169 
L 63.308391 155.988336 
L 63.536492 155.683288 
L 63.764594 154.975559 
L 63.992696 153.533887 
L 64.220797 151.888991 
L 64.448899 151.637774 
L 64.753035 150.879747 
L 64.981136 150.510451 
L 65.05717 150.876136 
L 65.209238 152.022519 
L 65.43734 152.552899 
L 65.665441 153.775153 
L 65.893543 156.714158 
L 66.121645 160.556312 
L 66.349746 161.325353 
L 66.577848 162.763785 
L 66.881983 166.552864 
L 67.338187 174.149595 
L 67.566288 175.087424 
L 67.870424 177.584648 
L 68.402661 182.809332 
L 68.630763 182.632476 
L 68.858864 182.428916 
L 69.086966 181.817647 
L 69.239034 180.818737 
L 69.391102 178.609706 
L 69.543169 176.531479 
L 69.771271 175.725122 
L 69.999373 173.967151 
L 70.227474 170.176205 
L 70.455576 162.067478 
L 70.607644 157.878334 
L 70.835745 156.494659 
L 71.139881 152.726141 
L 71.748152 143.122643 
L 72.280389 142.362625 
L 72.432457 142.769775 
L 72.660559 145.142821 
L 72.812626 146.641767 
L 73.040728 147.164199 
L 73.26883 148.291362 
L 73.496931 150.548811 
L 73.877101 155.25128 
L 74.105202 156.081665 
L 74.333304 157.723108 
L 74.561406 160.814164 
L 74.941575 166.342163 
L 75.169677 167.14882 
L 75.473812 169.147756 
L 75.853982 171.8849 
L 76.082083 171.929429 
L 76.386219 171.816516 
L 76.61432 171.428919 
L 76.918456 170.682105 
L 77.222592 170.375451 
L 77.450693 169.8564 
L 77.906896 168.623981 
L 78.211032 168.198682 
L 78.439134 167.503541 
L 78.667235 166.109572 
L 78.819303 165.331363 
L 79.123439 164.914573 
L 79.427574 163.957022 
L 79.73171 161.898704 
L 79.883777 161.081707 
L 80.187913 160.664628 
L 80.492049 159.784081 
L 81.10032 157.566828 
L 81.480489 157.10978 
L 81.936692 156.49446 
L 82.544963 156.587003 
L 82.773065 156.837834 
L 83.001167 157.569708 
L 83.153234 158.037488 
L 83.45737 158.287409 
L 83.761506 158.895113 
L 84.065641 160.266336 
L 84.293743 161.487726 
L 84.597878 161.827043 
L 84.902014 162.610408 
L 85.358217 164.01677 
L 85.738386 164.303968 
L 86.19459 164.703049 
L 86.422691 164.581769 
L 86.802861 164.400848 
L 87.030963 164.040609 
L 87.487166 163.051331 
L 87.791301 162.712044 
L 88.095437 161.914072 
L 88.247505 161.577774 
L 88.627674 161.337189 
L 88.93181 160.880699 
L 89.464047 159.960918 
L 89.844216 159.679951 
L 90.224386 159.071324 
L 90.528521 158.610129 
L 91.440928 158.597794 
L 91.669029 158.702338 
L 92.125233 158.870622 
L 92.353334 159.149201 
L 92.809538 159.915455 
L 93.189707 160.132783 
L 93.493843 160.555703 
L 93.874012 161.147919 
L 94.330215 161.395128 
L 95.166588 162.042959 
L 96.155029 162.215077 
L 98.283977 161.56424 
L 100.260858 161.196098 
L 100.869129 161.031196 
L 101.325333 160.930885 
L 103.606349 160.767596 
L 104.974959 161.106571 
L 105.355128 161.219717 
L 106.039433 161.39501 
L 106.495637 161.497689 
L 107.712179 161.441713 
L 108.092348 161.318618 
L 108.624585 161.012097 
L 109.080789 160.7709 
L 109.765094 160.228032 
L 110.297331 159.993909 
L 110.601466 159.906954 
L 111.437839 159.967754 
L 112.122144 160.410617 
L 112.502314 160.68031 
L 112.882483 161.062549 
L 113.338686 161.246843 
L 113.718856 161.650044 
L 113.870923 161.761966 
L 115.543669 161.849134 
L 115.771771 161.647021 
L 115.923838 161.505165 
L 116.380042 161.348894 
L 116.684177 161.034093 
L 117.444516 159.921581 
L 117.900719 159.684909 
L 118.356923 159.408411 
L 119.193295 159.411605 
L 119.421397 159.499424 
L 119.953634 159.677235 
L 120.790007 160.234384 
L 121.094142 160.521404 
L 121.474312 160.964675 
L 121.930515 161.172599 
L 122.842922 161.816326 
L 123.755328 161.813649 
L 124.363599 161.656317 
L 124.895837 161.366225 
L 125.35204 161.139457 
L 126.34048 160.32682 
L 126.948751 160.342611 
L 127.557023 160.46531 
L 127.861158 160.527815 
L 128.469429 160.676625 
L 129.001666 160.857631 
L 131.054581 161.035919 
L 131.890954 160.910503 
L 132.271123 160.795657 
L 132.879394 160.63763 
L 133.259564 160.523172 
L 133.943869 160.346796 
L 134.324038 160.244949 
L 136.224885 160.160302 
L 136.757122 160.554883 
L 137.213326 160.859721 
L 137.821597 161.031418 
L 138.429868 161.292665 
L 140.102613 161.46574 
L 142.307596 160.763105 
L 142.535698 160.696257 
L 143.296036 160.52369 
L 143.75224 160.447105 
L 145.501019 160.429578 
L 146.641527 160.525734 
L 150.747357 160.677862 
L 153.332509 161.056965 
L 155.157322 160.976669 
L 155.917661 160.888098 
L 158.578847 160.557265 
L 161.087965 160.652188 
L 163.825185 160.79086 
L 166.334303 160.661792 
L 169.98393 160.673262 
L 173.481488 160.77145 
L 178.879894 160.682931 
L 180.400572 160.59607 
L 181.997283 160.684107 
L 185.494842 160.780221 
L 189.296536 160.694691 
L 200.245415 160.746872 
L 203.742974 160.719936 
L 206.784329 160.690829 
L 235.525137 160.7161 
L 248.29883 160.720872 
L 292.778652 160.720279 
L 345.318065 160.720159 
L 359.916571 160.720268 
L 359.916571 160.720268 
" clip-path="url(#p286ab4926e)" style="fill: none; stroke: #ff7f0e; stroke-width: 1.5; stroke-linecap: square"/>
   </g>
   <g id="patch_3">
    <path d="M 40.334753 230.099258 
L 40.334753 8.339258 
" style="fill: none; stroke: #000000; stroke-width: 0.8; stroke-linejoin: miter; stroke-linecap: square"/>
   </g>
   <g id="patch_4">
    <path d="M 375.134753 230.099258 
L 375.134753 8.339258 
" style="fill: none; stroke: #000000; stroke-width: 0.8; stroke-linejoin: miter; stroke-linecap: square"/>
   </g>
   <g id="patch_5">
    <path d="M 40.334753 230.099258 
L 375.134753 230.099258 
" style="fill: none; stroke: #000000; stroke-width: 0.8; stroke-linejoin: miter; stroke-linecap: square"/>
   </g>
   <g id="patch_6">
    <path d="M 40.334753 8.339258 
L 375.134753 8.339258 
" style="fill: none; stroke: #000000; stroke-width: 0.8; stroke-linejoin: miter; stroke-linecap: square"/>
   </g>
   <g id="legend_1">
    <g id="patch_7">
     <path d="M 321.748759 44.779871 
L 368.134753 44.779871 
Q 370.134753 44.779871 370.134753 42.779871 
L 370.134753 15.339258 
Q 370.134753 13.339258 368.134753 13.339258 
L 321.748759 13.339258 
Q 319.748759 13.339258 319.748759 15.339258 
L 319.748759 42.779871 
Q 319.748759 44.779871 321.748759 44.779871 
z
" style="fill: #ffffff; opacity: 0.8; stroke: #cccccc; stroke-linejoin: miter"/>
    </g>
    <g id="line2d_21">
     <path d="M 323.748759 20.937578 
L 333.748759 20.937578 
L 343.748759 20.937578 
" style="fill: none; stroke: #1f77b4; stroke-width: 1.5; stroke-linecap: square"/>
    </g>
    <g id="text_21">
     <!-- CD -->
     <g transform="translate(351.748759 24.437578) scale(0.1 -0.1)">
      <defs>
       <path id="NimbusSanL-Regu-44" d="M 570 0 
L 2368 0 
C 3546 0 4269 883 4269 2339 
C 4269 3788 3552 4672 2368 4672 
L 570 4672 
L 570 0 
z
M 1165 524 
L 1165 4147 
L 2266 4147 
C 3187 4147 3674 3525 3674 2332 
C 3674 1153 3187 524 2266 524 
L 1165 524 
z
" transform="scale(0.015625)"/>
      </defs>
      <use xlink:href="#NimbusSanL-Regu-43" transform="scale(0.996264)"/>
      <use xlink:href="#NimbusSanL-Regu-44" transform="translate(71.929985 0) scale(0.996264)"/>
     </g>
    </g>
    <g id="line2d_22">
     <path d="M 323.748759 35.157885 
L 333.748759 35.157885 
L 343.748759 35.157885 
" style="fill: none; stroke: #ff7f0e; stroke-width: 1.5; stroke-linecap: square"/>
    </g>
    <g id="text_22">
     <!-- CL -->
     <g transform="translate(351.748759 38.657885) scale(0.1 -0.1)">
      <defs>
       <path id="NimbusSanL-Regu-4c" d="M 1107 4672 
L 512 4672 
L 512 0 
L 3411 0 
L 3411 524 
L 1107 524 
L 1107 4672 
z
" transform="scale(0.015625)"/>
      </defs>
      <use xlink:href="#NimbusSanL-Regu-43" transform="scale(0.996264)"/>
      <use xlink:href="#NimbusSanL-Regu-4c" transform="translate(71.929985 0) scale(0.996264)"/>
     </g>
    </g>
   </g>
  </g>
 </g>
 <defs>
  <clipPath id="p286ab4926e">
   <rect x="40.334753" y="8.339258" width="334.8" height="221.76"/>
  </clipPath>
 </defs>
</svg>
