<?xml version="1.0" encoding="utf-8" standalone="no"?>
<!DOCTYPE svg PUBLIC "-//W3C//DTD SVG 1.1//EN"
  "http://www.w3.org/Graphics/SVG/1.1/DTD/svg11.dtd">
<svg xmlns:xlink="http://www.w3.org/1999/xlink" width="379.567344pt" height="266.853785pt" viewBox="0 0 379.567344 266.853785" xmlns="http://www.w3.org/2000/svg" version="1.1">
 <metadata>
  <rdf:RDF xmlns:dc="http://purl.org/dc/elements/1.1/" xmlns:cc="http://creativecommons.org/ns#" xmlns:rdf="http://www.w3.org/1999/02/22-rdf-syntax-ns#">
   <cc:Work>
    <dc:type rdf:resource="http://purl.org/dc/dcmitype/StillImage"/>
    <dc:date>2025-07-17T21:44:14.468762</dc:date>
    <dc:format>image/svg+xml</dc:format>
    <dc:creator>
     <cc:Agent>
      <dc:title>Matplotlib v3.10.3, https://matplotlib.org/</dc:title>
     </cc:Agent>
    </dc:creator>
   </cc:Work>
  </rdf:RDF>
 </metadata>
 <defs>
  <style type="text/css">*{stroke-linejoin: round; stroke-linecap: butt}</style>
 </defs>
 <g id="figure_1">
  <g id="patch_1">
   <path d="M 0 266.853785 
L 379.567344 266.853785 
L 379.567344 0 
L 0 0 
z
" style="fill: #ffffff"/>
  </g>
  <g id="axes_1">
   <g id="patch_2">
    <path d="M 37.567344 230.213172 
L 372.367344 230.213172 
L 372.367344 8.453172 
L 37.567344 8.453172 
z
" style="fill: #ffffff"/>
   </g>
   <g id="matplotlib.axis_1">
    <g id="xtick_1">
     <g id="line2d_1">
      <defs>
       <path id="m498540c3bc" d="M 0 0 
L 0 3.5 
" style="stroke: #000000; stroke-width: 0.8"/>
      </defs>
      <g>
       <use xlink:href="#m498540c3bc" x="52.785526" y="230.213172" style="stroke: #000000; stroke-width: 0.8"/>
      </g>
     </g>
     <g id="text_1">
      <!-- $\mathdefault{0}$ -->
      <g transform="translate(50.294859 244.311492) scale(0.1 -0.1)">
       <defs>
        <path id="CMR17-30" d="M 2688 2038 
C 2688 2430 2682 3099 2413 3613 
C 2176 4063 1798 4224 1466 4224 
C 1158 4224 768 4082 525 3620 
C 269 3137 243 2539 243 2038 
C 243 1671 250 1112 448 623 
C 723 -39 1216 -128 1466 -128 
C 1760 -128 2208 -7 2470 604 
C 2662 1048 2688 1568 2688 2038 
z
M 1466 -26 
C 1056 -26 813 328 723 816 
C 653 1196 653 1749 653 2109 
C 653 2604 653 3015 736 3407 
C 858 3954 1216 4121 1466 4121 
C 1728 4121 2067 3947 2189 3420 
C 2272 3054 2278 2623 2278 2109 
C 2278 1691 2278 1176 2202 797 
C 2067 96 1690 -26 1466 -26 
z
" transform="scale(0.015625)"/>
       </defs>
       <use xlink:href="#CMR17-30" transform="scale(0.996264)"/>
      </g>
     </g>
    </g>
    <g id="xtick_2">
     <g id="line2d_2">
      <g>
       <use xlink:href="#m498540c3bc" x="90.802468" y="230.213172" style="stroke: #000000; stroke-width: 0.8"/>
      </g>
     </g>
     <g id="text_2">
      <!-- $\mathdefault{500}$ -->
      <g transform="translate(83.330465 244.311492) scale(0.1 -0.1)">
       <defs>
        <path id="CMR17-35" d="M 730 3750 
C 794 3724 1056 3641 1325 3641 
C 1920 3641 2246 3961 2432 4140 
C 2432 4191 2432 4224 2394 4224 
C 2387 4224 2374 4224 2323 4198 
C 2099 4102 1837 4032 1517 4032 
C 1325 4032 1037 4055 723 4191 
C 653 4224 640 4224 634 4224 
C 602 4224 595 4217 595 4090 
L 595 2231 
C 595 2113 595 2080 659 2080 
C 691 2080 704 2093 736 2139 
C 941 2435 1222 2560 1542 2560 
C 1766 2560 2246 2415 2246 1293 
C 2246 1087 2246 716 2054 422 
C 1894 159 1645 25 1370 25 
C 947 25 518 319 403 812 
C 429 806 480 793 506 793 
C 589 793 749 838 749 1036 
C 749 1209 627 1280 506 1280 
C 358 1280 262 1190 262 1011 
C 262 454 704 -128 1382 -128 
C 2042 -128 2669 441 2669 1267 
C 2669 2054 2170 2662 1549 2662 
C 1222 2662 947 2540 730 2304 
L 730 3750 
z
" transform="scale(0.015625)"/>
       </defs>
       <use xlink:href="#CMR17-35" transform="scale(0.996264)"/>
       <use xlink:href="#CMR17-30" transform="translate(45.690477 0) scale(0.996264)"/>
       <use xlink:href="#CMR17-30" transform="translate(91.380954 0) scale(0.996264)"/>
      </g>
     </g>
    </g>
    <g id="xtick_3">
     <g id="line2d_3">
      <g>
       <use xlink:href="#m498540c3bc" x="128.81941" y="230.213172" style="stroke: #000000; stroke-width: 0.8"/>
      </g>
     </g>
     <g id="text_3">
      <!-- $\mathdefault{1000}$ -->
      <g transform="translate(118.856739 244.311492) scale(0.1 -0.1)">
       <defs>
        <path id="CMR17-31" d="M 1702 4083 
C 1702 4217 1696 4224 1606 4224 
C 1357 3927 979 3833 621 3820 
C 602 3820 570 3820 563 3808 
C 557 3795 557 3782 557 3648 
C 755 3648 1088 3686 1344 3839 
L 1344 467 
C 1344 243 1331 166 781 166 
L 589 166 
L 589 0 
C 896 6 1216 12 1523 12 
C 1830 12 2150 6 2458 0 
L 2458 166 
L 2266 166 
C 1715 166 1702 236 1702 467 
L 1702 4083 
z
" transform="scale(0.015625)"/>
       </defs>
       <use xlink:href="#CMR17-31" transform="scale(0.996264)"/>
       <use xlink:href="#CMR17-30" transform="translate(45.690477 0) scale(0.996264)"/>
       <use xlink:href="#CMR17-30" transform="translate(91.380954 0) scale(0.996264)"/>
       <use xlink:href="#CMR17-30" transform="translate(137.071431 0) scale(0.996264)"/>
      </g>
     </g>
    </g>
    <g id="xtick_4">
     <g id="line2d_4">
      <g>
       <use xlink:href="#m498540c3bc" x="166.836352" y="230.213172" style="stroke: #000000; stroke-width: 0.8"/>
      </g>
     </g>
     <g id="text_4">
      <!-- $\mathdefault{1500}$ -->
      <g transform="translate(156.873681 244.311492) scale(0.1 -0.1)">
       <use xlink:href="#CMR17-31" transform="scale(0.996264)"/>
       <use xlink:href="#CMR17-35" transform="translate(45.690477 0) scale(0.996264)"/>
       <use xlink:href="#CMR17-30" transform="translate(91.380954 0) scale(0.996264)"/>
       <use xlink:href="#CMR17-30" transform="translate(137.071431 0) scale(0.996264)"/>
      </g>
     </g>
    </g>
    <g id="xtick_5">
     <g id="line2d_5">
      <g>
       <use xlink:href="#m498540c3bc" x="204.853294" y="230.213172" style="stroke: #000000; stroke-width: 0.8"/>
      </g>
     </g>
     <g id="text_5">
      <!-- $\mathdefault{2000}$ -->
      <g transform="translate(194.890623 244.311492) scale(0.1 -0.1)">
       <defs>
        <path id="CMR17-32" d="M 2669 990 
L 2554 990 
C 2490 537 2438 460 2413 422 
C 2381 371 1920 371 1830 371 
L 602 371 
C 832 620 1280 1073 1824 1596 
C 2214 1966 2669 2400 2669 3033 
C 2669 3788 2067 4224 1395 4224 
C 691 4224 262 3603 262 3027 
C 262 2777 448 2745 525 2745 
C 589 2745 781 2783 781 3007 
C 781 3206 614 3264 525 3264 
C 486 3264 448 3257 422 3244 
C 544 3788 915 4057 1306 4057 
C 1862 4057 2227 3616 2227 3033 
C 2227 2477 1901 1998 1536 1583 
L 262 147 
L 262 0 
L 2515 0 
L 2669 990 
z
" transform="scale(0.015625)"/>
       </defs>
       <use xlink:href="#CMR17-32" transform="scale(0.996264)"/>
       <use xlink:href="#CMR17-30" transform="translate(45.690477 0) scale(0.996264)"/>
       <use xlink:href="#CMR17-30" transform="translate(91.380954 0) scale(0.996264)"/>
       <use xlink:href="#CMR17-30" transform="translate(137.071431 0) scale(0.996264)"/>
      </g>
     </g>
    </g>
    <g id="xtick_6">
     <g id="line2d_6">
      <g>
       <use xlink:href="#m498540c3bc" x="242.870235" y="230.213172" style="stroke: #000000; stroke-width: 0.8"/>
      </g>
     </g>
     <g id="text_6">
      <!-- $\mathdefault{2500}$ -->
      <g transform="translate(232.907565 244.311492) scale(0.1 -0.1)">
       <use xlink:href="#CMR17-32" transform="scale(0.996264)"/>
       <use xlink:href="#CMR17-35" transform="translate(45.690477 0) scale(0.996264)"/>
       <use xlink:href="#CMR17-30" transform="translate(91.380954 0) scale(0.996264)"/>
       <use xlink:href="#CMR17-30" transform="translate(137.071431 0) scale(0.996264)"/>
      </g>
     </g>
    </g>
    <g id="xtick_7">
     <g id="line2d_7">
      <g>
       <use xlink:href="#m498540c3bc" x="280.887177" y="230.213172" style="stroke: #000000; stroke-width: 0.8"/>
      </g>
     </g>
     <g id="text_7">
      <!-- $\mathdefault{3000}$ -->
      <g transform="translate(270.924507 244.311492) scale(0.1 -0.1)">
       <defs>
        <path id="CMR17-33" d="M 1414 2176 
C 1984 2176 2234 1673 2234 1094 
C 2234 322 1824 25 1453 25 
C 1114 25 563 193 390 691 
C 422 678 454 678 486 678 
C 640 678 755 780 755 947 
C 755 1132 614 1216 486 1216 
C 378 1216 211 1164 211 927 
C 211 335 787 -128 1466 -128 
C 2176 -128 2720 432 2720 1087 
C 2720 1718 2208 2176 1600 2246 
C 2086 2347 2554 2776 2554 3353 
C 2554 3856 2048 4224 1472 4224 
C 890 4224 378 3862 378 3347 
C 378 3123 544 3084 627 3084 
C 762 3084 877 3167 877 3334 
C 877 3500 762 3584 627 3584 
C 602 3584 570 3584 544 3571 
C 730 3999 1235 4076 1459 4076 
C 1683 4076 2106 3966 2106 3347 
C 2106 3167 2080 2851 1862 2574 
C 1670 2329 1453 2316 1242 2297 
C 1210 2297 1062 2284 1037 2284 
C 992 2278 966 2272 966 2227 
C 966 2182 973 2176 1101 2176 
L 1414 2176 
z
" transform="scale(0.015625)"/>
       </defs>
       <use xlink:href="#CMR17-33" transform="scale(0.996264)"/>
       <use xlink:href="#CMR17-30" transform="translate(45.690477 0) scale(0.996264)"/>
       <use xlink:href="#CMR17-30" transform="translate(91.380954 0) scale(0.996264)"/>
       <use xlink:href="#CMR17-30" transform="translate(137.071431 0) scale(0.996264)"/>
      </g>
     </g>
    </g>
    <g id="xtick_8">
     <g id="line2d_8">
      <g>
       <use xlink:href="#m498540c3bc" x="318.904119" y="230.213172" style="stroke: #000000; stroke-width: 0.8"/>
      </g>
     </g>
     <g id="text_8">
      <!-- $\mathdefault{3500}$ -->
      <g transform="translate(308.941449 244.311492) scale(0.1 -0.1)">
       <use xlink:href="#CMR17-33" transform="scale(0.996264)"/>
       <use xlink:href="#CMR17-35" transform="translate(45.690477 0) scale(0.996264)"/>
       <use xlink:href="#CMR17-30" transform="translate(91.380954 0) scale(0.996264)"/>
       <use xlink:href="#CMR17-30" transform="translate(137.071431 0) scale(0.996264)"/>
      </g>
     </g>
    </g>
    <g id="xtick_9">
     <g id="line2d_9">
      <g>
       <use xlink:href="#m498540c3bc" x="356.921061" y="230.213172" style="stroke: #000000; stroke-width: 0.8"/>
      </g>
     </g>
     <g id="text_9">
      <!-- $\mathdefault{4000}$ -->
      <g transform="translate(346.95839 244.311492) scale(0.1 -0.1)">
       <defs>
        <path id="CMR17-34" d="M 2150 4147 
C 2150 4281 2144 4288 2029 4288 
L 128 1254 
L 128 1088 
L 1779 1088 
L 1779 460 
C 1779 230 1766 166 1318 166 
L 1197 166 
L 1197 0 
C 1402 12 1747 12 1965 12 
C 2182 12 2528 12 2733 0 
L 2733 166 
L 2611 166 
C 2163 166 2150 230 2150 460 
L 2150 1088 
L 2803 1088 
L 2803 1254 
L 2150 1254 
L 2150 4147 
z
M 1798 3723 
L 1798 1254 
L 256 1254 
L 1798 3723 
z
" transform="scale(0.015625)"/>
       </defs>
       <use xlink:href="#CMR17-34" transform="scale(0.996264)"/>
       <use xlink:href="#CMR17-30" transform="translate(45.690477 0) scale(0.996264)"/>
       <use xlink:href="#CMR17-30" transform="translate(91.380954 0) scale(0.996264)"/>
       <use xlink:href="#CMR17-30" transform="translate(137.071431 0) scale(0.996264)"/>
      </g>
     </g>
    </g>
    <g id="text_10">
     <!-- Iteration -->
     <g transform="translate(187.019968 257.531799) scale(0.1 -0.1)">
      <defs>
       <path id="NimbusSanL-Regu-49" d="M 1242 4672 
L 640 4672 
L 640 0 
L 1242 0 
L 1242 4672 
z
" transform="scale(0.015625)"/>
       <path id="NimbusSanL-Regu-74" d="M 1626 3328 
L 1075 3328 
L 1075 4249 
L 544 4249 
L 544 3328 
L 90 3328 
L 90 2892 
L 544 2892 
L 544 402 
C 544 64 774 -128 1190 -128 
C 1318 -128 1446 -116 1626 -84 
L 1626 364 
C 1555 345 1472 339 1370 339 
C 1139 339 1075 402 1075 634 
L 1075 2892 
L 1626 2892 
L 1626 3328 
z
" transform="scale(0.015625)"/>
       <path id="NimbusSanL-Regu-65" d="M 3283 1484 
C 3283 1998 3245 2311 3149 2565 
C 2931 3123 2419 3456 1792 3456 
C 858 3456 256 2734 256 1619 
C 256 545 838 -128 1779 -128 
C 2547 -128 3078 307 3213 1018 
L 2675 1018 
C 2528 588 2227 364 1798 364 
C 1459 364 1171 514 992 787 
C 864 974 819 1161 813 1484 
L 3283 1484 
z
M 826 1920 
C 870 2552 1248 2963 1786 2963 
C 2310 2963 2714 2519 2714 1959 
C 2714 1946 2714 1933 2707 1920 
L 826 1920 
z
" transform="scale(0.015625)"/>
       <path id="NimbusSanL-Regu-72" d="M 442 3328 
L 442 0 
L 979 0 
L 979 1727 
C 979 2203 1101 2514 1357 2698 
C 1523 2819 1683 2857 2054 2863 
L 2054 3404 
C 1965 3449 1920 3456 1850 3456 
C 1504 3456 1242 3251 934 2750 
L 934 3328 
L 442 3328 
z
" transform="scale(0.015625)"/>
       <path id="NimbusSanL-Regu-61" d="M 3424 332 
C 3366 320 3341 320 3309 320 
C 3123 320 3021 415 3021 581 
L 3021 2542 
C 3021 3135 2586 3456 1760 3456 
C 1274 3456 870 3315 646 3065 
C 493 2893 429 2702 416 2370 
L 954 2370 
C 998 2778 1242 2963 1741 2963 
C 2221 2963 2490 2784 2490 2466 
L 2490 2326 
C 2490 2103 2355 2007 1933 1956 
C 1178 1861 1062 1835 858 1753 
C 467 1593 269 1294 269 861 
C 269 256 691 -128 1370 -128 
C 1792 -128 2131 19 2509 364 
C 2547 25 2714 -128 3059 -128 
C 3168 -128 3251 -116 3424 -71 
L 3424 332 
z
M 2490 1071 
C 2490 893 2438 785 2278 638 
C 2061 441 1798 339 1485 339 
C 1069 339 826 536 826 874 
C 826 1224 1062 1402 1632 1485 
C 2195 1562 2310 1587 2490 1670 
L 2490 1071 
z
" transform="scale(0.015625)"/>
       <path id="NimbusSanL-Regu-69" d="M 960 3358 
L 429 3358 
L 429 0 
L 960 0 
L 960 3358 
z
M 960 4672 
L 422 4672 
L 422 3999 
L 960 3999 
L 960 4672 
z
" transform="scale(0.015625)"/>
       <path id="NimbusSanL-Regu-6f" d="M 1741 3456 
C 800 3456 230 2784 230 1663 
C 230 543 794 -128 1747 -128 
C 2688 -128 3264 543 3264 1638 
C 3264 2791 2707 3456 1741 3456 
z
M 1747 2963 
C 2349 2963 2707 2472 2707 1644 
C 2707 861 2336 364 1747 364 
C 1152 364 787 855 787 1663 
C 787 2466 1152 2963 1747 2963 
z
" transform="scale(0.015625)"/>
       <path id="NimbusSanL-Regu-6e" d="M 448 3328 
L 448 0 
L 986 0 
L 986 1835 
C 986 2539 1344 2988 1894 2988 
C 2317 2988 2586 2732 2586 2328 
L 2586 0 
L 3117 0 
L 3117 2539 
C 3117 3097 2701 3456 2054 3456 
C 1555 3456 1235 3263 941 2796 
L 941 3328 
L 448 3328 
z
" transform="scale(0.015625)"/>
      </defs>
      <use xlink:href="#NimbusSanL-Regu-49" transform="scale(0.996264)"/>
      <use xlink:href="#NimbusSanL-Regu-74" transform="translate(27.69517 0) scale(0.996264)"/>
      <use xlink:href="#NimbusSanL-Regu-65" transform="translate(55.390339 0) scale(0.996264)"/>
      <use xlink:href="#NimbusSanL-Regu-72" transform="translate(110.782016 0) scale(0.996264)"/>
      <use xlink:href="#NimbusSanL-Regu-61" transform="translate(142.961149 0) scale(0.996264)"/>
      <use xlink:href="#NimbusSanL-Regu-74" transform="translate(198.352826 0) scale(0.996264)"/>
      <use xlink:href="#NimbusSanL-Regu-69" transform="translate(226.047996 0) scale(0.996264)"/>
      <use xlink:href="#NimbusSanL-Regu-6f" transform="translate(248.16478 0) scale(0.996264)"/>
      <use xlink:href="#NimbusSanL-Regu-6e" transform="translate(303.556457 0) scale(0.996264)"/>
     </g>
    </g>
   </g>
   <g id="matplotlib.axis_2">
    <g id="ytick_1">
     <g id="line2d_10">
      <defs>
       <path id="m094253130d" d="M 0 0 
L -3.5 0 
" style="stroke: #000000; stroke-width: 0.8"/>
      </defs>
      <g>
       <use xlink:href="#m094253130d" x="37.567344" y="229.713481" style="stroke: #000000; stroke-width: 0.8"/>
      </g>
     </g>
     <g id="text_11">
      <!-- $\mathdefault{0}$ -->
      <g transform="translate(25.586009 233.262641) scale(0.1 -0.1)">
       <use xlink:href="#CMR17-30" transform="scale(0.996264)"/>
      </g>
     </g>
    </g>
    <g id="ytick_2">
     <g id="line2d_11">
      <g>
       <use xlink:href="#m094253130d" x="37.567344" y="193.219427" style="stroke: #000000; stroke-width: 0.8"/>
      </g>
     </g>
     <g id="text_12">
      <!-- $\mathdefault{5}$ -->
      <g transform="translate(25.586009 196.768587) scale(0.1 -0.1)">
       <use xlink:href="#CMR17-35" transform="scale(0.996264)"/>
      </g>
     </g>
    </g>
    <g id="ytick_3">
     <g id="line2d_12">
      <g>
       <use xlink:href="#m094253130d" x="37.567344" y="156.725374" style="stroke: #000000; stroke-width: 0.8"/>
      </g>
     </g>
     <g id="text_13">
      <!-- $\mathdefault{10}$ -->
      <g transform="translate(20.604674 160.274534) scale(0.1 -0.1)">
       <use xlink:href="#CMR17-31" transform="scale(0.996264)"/>
       <use xlink:href="#CMR17-30" transform="translate(45.690477 0) scale(0.996264)"/>
      </g>
     </g>
    </g>
    <g id="ytick_4">
     <g id="line2d_13">
      <g>
       <use xlink:href="#m094253130d" x="37.567344" y="120.23132" style="stroke: #000000; stroke-width: 0.8"/>
      </g>
     </g>
     <g id="text_14">
      <!-- $\mathdefault{15}$ -->
      <g transform="translate(20.604674 123.78048) scale(0.1 -0.1)">
       <use xlink:href="#CMR17-31" transform="scale(0.996264)"/>
       <use xlink:href="#CMR17-35" transform="translate(45.690477 0) scale(0.996264)"/>
      </g>
     </g>
    </g>
    <g id="ytick_5">
     <g id="line2d_14">
      <g>
       <use xlink:href="#m094253130d" x="37.567344" y="83.737267" style="stroke: #000000; stroke-width: 0.8"/>
      </g>
     </g>
     <g id="text_15">
      <!-- $\mathdefault{20}$ -->
      <g transform="translate(20.604674 87.286427) scale(0.1 -0.1)">
       <use xlink:href="#CMR17-32" transform="scale(0.996264)"/>
       <use xlink:href="#CMR17-30" transform="translate(45.690477 0) scale(0.996264)"/>
      </g>
     </g>
    </g>
    <g id="ytick_6">
     <g id="line2d_15">
      <g>
       <use xlink:href="#m094253130d" x="37.567344" y="47.243214" style="stroke: #000000; stroke-width: 0.8"/>
      </g>
     </g>
     <g id="text_16">
      <!-- $\mathdefault{25}$ -->
      <g transform="translate(20.604674 50.792374) scale(0.1 -0.1)">
       <use xlink:href="#CMR17-32" transform="scale(0.996264)"/>
       <use xlink:href="#CMR17-35" transform="translate(45.690477 0) scale(0.996264)"/>
      </g>
     </g>
    </g>
    <g id="ytick_7">
     <g id="line2d_16">
      <g>
       <use xlink:href="#m094253130d" x="37.567344" y="10.74916" style="stroke: #000000; stroke-width: 0.8"/>
      </g>
     </g>
     <g id="text_17">
      <!-- $\mathdefault{30}$ -->
      <g transform="translate(20.604674 14.29832) scale(0.1 -0.1)">
       <use xlink:href="#CMR17-33" transform="scale(0.996264)"/>
       <use xlink:href="#CMR17-30" transform="translate(45.690477 0) scale(0.996264)"/>
      </g>
     </g>
    </g>
    <g id="text_18">
     <!-- Average CFL - Blade_20 -->
     <g transform="translate(14.482687 172.802074) rotate(-90) scale(0.1 -0.1)">
      <defs>
       <path id="NimbusSanL-Regu-41" d="M 3034 1408 
L 3514 0 
L 4179 0 
L 2541 4672 
L 1773 4672 
L 109 0 
L 742 0 
L 1235 1408 
L 3034 1408 
z
M 2867 1907 
L 1382 1907 
L 2150 4032 
L 2867 1907 
z
" transform="scale(0.015625)"/>
       <path id="NimbusSanL-Regu-76" d="M 1824 0 
L 3110 3328 
L 2509 3328 
L 1562 629 
L 666 3328 
L 64 3328 
L 1242 0 
L 1824 0 
z
" transform="scale(0.015625)"/>
       <path id="NimbusSanL-Regu-67" d="M 2637 3359 
L 2637 2873 
C 2368 3270 2042 3456 1613 3456 
C 762 3456 186 2714 186 1632 
C 186 1084 333 638 608 320 
C 858 38 1216 -128 1568 -128 
C 1990 -128 2285 51 2586 473 
L 2586 300 
C 2586 -155 2528 -441 2394 -634 
C 2253 -841 1978 -960 1651 -960 
C 1408 -960 1190 -894 1043 -774 
C 922 -674 870 -581 838 -375 
L 294 -375 
C 352 -1031 845 -1408 1632 -1408 
C 2131 -1408 2560 -1248 2778 -980 
C 3034 -661 3130 -222 3130 568 
L 3130 3359 
L 2637 3359 
z
M 1670 2963 
C 2246 2963 2586 2479 2586 1644 
C 2586 848 2240 364 1677 364 
C 1094 364 742 855 742 1663 
C 742 2466 1101 2963 1670 2963 
z
" transform="scale(0.015625)"/>
       <path id="NimbusSanL-Regu-43" d="M 4237 3219 
C 4051 4236 3462 4736 2438 4736 
C 1811 4736 1306 4537 960 4154 
C 538 3696 307 3035 307 2284 
C 307 1522 544 867 986 415 
C 1344 44 1805 -128 2413 -128 
C 3552 -128 4192 485 4333 1712 
L 3718 1712 
C 3667 1394 3603 1178 3507 994 
C 3315 612 2918 396 2419 396 
C 1491 396 902 1134 902 2291 
C 902 3480 1466 4211 2368 4211 
C 2746 4211 3098 4096 3290 3918 
C 3462 3759 3558 3562 3629 3219 
L 4237 3219 
z
" transform="scale(0.015625)"/>
       <path id="NimbusSanL-Regu-46" d="M 1171 2112 
L 3398 2112 
L 3398 2636 
L 1171 2636 
L 1171 4147 
L 3706 4147 
L 3706 4672 
L 576 4672 
L 576 0 
L 1171 0 
L 1171 2112 
z
" transform="scale(0.015625)"/>
       <path id="NimbusSanL-Regu-4c" d="M 1107 4672 
L 512 4672 
L 512 0 
L 3411 0 
L 3411 524 
L 1107 524 
L 1107 4672 
z
" transform="scale(0.015625)"/>
       <path id="NimbusSanL-Regu-2d" d="M 1818 1996 
L 294 1996 
L 294 1536 
L 1818 1536 
L 1818 1996 
z
" transform="scale(0.015625)"/>
       <path id="NimbusSanL-Regu-42" d="M 506 0 
L 2611 0 
C 3053 0 3379 121 3629 390 
C 3859 632 3987 961 3987 1321 
C 3987 1878 3731 2214 3136 2444 
C 3558 2643 3782 2994 3782 3476 
C 3782 3821 3654 4127 3411 4345 
C 3168 4569 2848 4672 2400 4672 
L 506 4672 
L 506 0 
z
M 1101 2636 
L 1101 4147 
L 2253 4147 
C 2586 4147 2771 4101 2931 3977 
C 3098 3847 3187 3652 3187 3391 
C 3187 3138 3098 2936 2931 2806 
C 2771 2682 2586 2636 2253 2636 
L 1101 2636 
z
M 1101 524 
L 1101 2112 
L 2554 2112 
C 2842 2112 3034 2042 3174 1890 
C 3315 1745 3392 1542 3392 1315 
C 3392 1093 3315 891 3174 746 
C 3034 594 2842 524 2554 524 
L 1101 524 
z
" transform="scale(0.015625)"/>
       <path id="NimbusSanL-Regu-6c" d="M 973 4672 
L 435 4672 
L 435 0 
L 973 0 
L 973 4672 
z
" transform="scale(0.015625)"/>
       <path id="NimbusSanL-Regu-64" d="M 3168 4672 
L 2637 4672 
L 2637 2937 
C 2413 3276 2054 3456 1606 3456 
C 736 3456 166 2759 166 1695 
C 166 568 723 -128 1626 -128 
C 2086 -128 2406 44 2694 460 
L 2694 19 
L 3168 19 
L 3168 4672 
z
M 1696 2956 
C 2272 2956 2637 2447 2637 1651 
C 2637 880 2266 371 1702 371 
C 1114 371 723 887 723 1663 
C 723 2440 1114 2956 1696 2956 
z
" transform="scale(0.015625)"/>
       <path id="NimbusSanL-Regu-32" d="M 3238 556 
L 851 556 
C 909 928 1114 1165 1670 1493 
L 2310 1839 
C 2944 2185 3270 2653 3270 3211 
C 3270 3589 3117 3942 2848 4185 
C 2579 4428 2246 4544 1818 4544 
C 1242 4544 813 4339 563 3955 
C 403 3711 333 3429 320 2967 
L 883 2967 
C 902 3275 941 3461 1018 3608 
C 1165 3884 1459 4051 1798 4051 
C 2310 4051 2694 3685 2694 3198 
C 2694 2839 2483 2531 2080 2300 
L 1491 1967 
C 544 1428 269 999 218 0 
L 3238 0 
L 3238 556 
z
" transform="scale(0.015625)"/>
       <path id="NimbusSanL-Regu-30" d="M 1760 4544 
C 1338 4544 954 4358 717 4044 
C 422 3649 275 3043 275 2207 
C 275 683 787 -128 1760 -128 
C 2720 -128 3245 683 3245 2169 
C 3245 3049 3104 3636 2803 4044 
C 2566 4364 2189 4544 1760 4544 
z
M 1760 4044 
C 2368 4044 2669 3432 2669 2220 
C 2669 938 2374 339 1747 339 
C 1152 339 851 964 851 2201 
C 851 3438 1152 4044 1760 4044 
z
" transform="scale(0.015625)"/>
      </defs>
      <use xlink:href="#NimbusSanL-Regu-41" transform="scale(0.996264)"/>
      <use xlink:href="#NimbusSanL-Regu-76" transform="translate(62.465918 0) scale(0.996264)"/>
      <use xlink:href="#NimbusSanL-Regu-65" transform="translate(109.788488 0) scale(0.996264)"/>
      <use xlink:href="#NimbusSanL-Regu-72" transform="translate(165.180165 0) scale(0.996264)"/>
      <use xlink:href="#NimbusSanL-Regu-61" transform="translate(197.359298 0) scale(0.996264)"/>
      <use xlink:href="#NimbusSanL-Regu-67" transform="translate(252.750975 0) scale(0.996264)"/>
      <use xlink:href="#NimbusSanL-Regu-65" transform="translate(308.142652 0) scale(0.996264)"/>
      <use xlink:href="#NimbusSanL-Regu-43" transform="translate(391.229499 0) scale(0.996264)"/>
      <use xlink:href="#NimbusSanL-Regu-46" transform="translate(463.159484 0) scale(0.996264)"/>
      <use xlink:href="#NimbusSanL-Regu-4c" transform="translate(524.031114 0) scale(0.996264)"/>
      <use xlink:href="#NimbusSanL-Regu-2d" transform="translate(607.117961 0) scale(0.996264)"/>
      <use xlink:href="#NimbusSanL-Regu-42" transform="translate(667.98836 0) scale(0.996264)"/>
      <use xlink:href="#NimbusSanL-Regu-6c" transform="translate(734.438391 0) scale(0.996264)"/>
      <use xlink:href="#NimbusSanL-Regu-61" transform="translate(756.555176 0) scale(0.996264)"/>
      <use xlink:href="#NimbusSanL-Regu-64" transform="translate(811.946853 0) scale(0.996264)"/>
      <use xlink:href="#NimbusSanL-Regu-65" transform="translate(867.33853 0) scale(0.996264)"/>
      <use xlink:href="#NimbusSanL-Regu-32" transform="translate(958.595772 0) scale(0.996264)"/>
      <use xlink:href="#NimbusSanL-Regu-30" transform="translate(1013.987449 0) scale(0.996264)"/>
      <path d="M 928.707548 0 
L 958.595772 0 
L 958.595772 0.3985 
L 928.707548 0.3985 
L 928.707548 0 
z
"/>
     </g>
    </g>
   </g>
   <g id="line2d_17">
    <path d="M 52.785526 125.588934 
L 52.937594 81.788747 
L 53.013628 214.921007 
L 53.089662 211.962513 
L 53.393797 192.905073 
L 53.697933 153.387567 
L 54.002068 71.941533 
L 54.078102 213.936286 
L 54.154136 210.780847 
L 54.458272 190.454771 
L 54.762407 148.306621 
L 55.066543 61.090806 
L 55.142577 212.851213 
L 55.21861 209.47876 
L 55.522746 187.754763 
L 55.826882 142.717488 
L 56.131017 49.83342 
L 56.207051 211.725475 
L 56.283085 208.127873 
L 56.58722 184.953565 
L 56.891356 136.916763 
L 57.119458 70.158857 
L 57.195491 213.758018 
L 57.271525 210.566926 
L 57.575661 190.011184 
L 57.879796 147.392635 
L 58.259966 59.438808 
L 58.336 212.686013 
L 58.412034 209.28052 
L 58.716169 187.343693 
L 59.020305 141.856316 
L 59.248406 77.929313 
L 59.32444 214.535064 
L 59.400474 211.49938 
L 59.70461 191.944723 
L 60.008745 151.396184 
L 60.312881 67.38542 
L 60.388915 213.480674 
L 60.464948 210.234113 
L 60.769084 189.321065 
L 61.07322 145.958641 
L 61.301321 85.076257 
L 61.377355 215.249758 
L 61.453389 212.357014 
L 61.757524 193.723111 
L 62.06166 155.086287 
L 62.289762 100.774034 
L 62.365796 216.819536 
L 62.441829 214.240747 
L 62.745965 197.62922 
L 63.0501 163.183559 
L 63.202168 133.910393 
L 63.278202 220.133172 
L 63.354236 218.21711 
L 63.658372 205.874607 
L 63.962507 180.281192 
L 64.266643 127.210686 
L 64.342677 106.710127 
L 64.41871 217.413145 
L 64.494744 214.953078 
L 64.79888 199.10631 
L 65.103015 166.246452 
L 65.407151 98.10825 
L 65.635253 40.227505 
L 65.711286 210.764883 
L 65.78732 206.975164 
L 66.091456 182.563306 
L 66.395591 131.942879 
L 66.623693 60.787101 
L 66.699727 212.820843 
L 66.775761 209.442315 
L 67.079896 187.679192 
L 67.384032 142.551179 
L 67.688167 48.973732 
L 67.764201 211.639506 
L 67.840235 208.024711 
L 68.144371 184.739647 
L 68.448506 136.45574 
L 68.752642 36.33423 
L 68.828676 210.375556 
L 68.90471 206.507971 
L 69.208845 181.594535 
L 69.512981 129.934035 
L 69.89315 22.810822 
L 69.969184 209.023215 
L 70.045218 204.885162 
L 70.349353 178.229478 
L 70.653489 122.956253 
L 70.881591 45.236992 
L 70.957624 211.265832 
L 71.033658 207.576302 
L 71.337794 183.809827 
L 71.641929 134.527664 
L 71.946065 32.336172 
L 72.022099 209.97575 
L 72.098133 206.028204 
L 72.402268 180.59969 
L 72.706404 127.871125 
L 73.086573 18.533172 
L 73.162607 208.59545 
L 73.238641 204.371844 
L 73.542776 177.165062 
L 73.846912 120.74908 
L 73.922946 98.9562 
L 73.99898 216.637752 
L 74.075014 214.022607 
L 74.379149 197.176885 
L 74.683285 162.245596 
L 74.835352 132.559726 
L 74.911386 219.998105 
L 74.98742 218.05503 
L 75.291556 205.538518 
L 75.595691 179.584277 
L 75.899827 125.765565 
L 75.975861 219.318689 
L 76.051895 217.239731 
L 76.35603 203.847913 
L 76.660166 176.078639 
L 76.964301 118.501157 
L 77.040335 218.592248 
L 77.116369 216.368002 
L 77.420505 202.040296 
L 77.72464 172.330364 
L 78.028776 110.723851 
L 78.104809 217.814518 
L 78.180843 215.434725 
L 78.484979 200.105053 
L 78.789114 168.317445 
L 79.09325 102.402662 
L 79.169284 216.982399 
L 79.245318 214.436182 
L 79.549453 198.034475 
L 79.853589 164.023894 
L 80.157724 93.499555 
L 80.233758 66.256769 
L 80.309792 213.367809 
L 80.385826 210.098675 
L 80.689962 189.04022 
L 80.994097 145.373408 
L 81.298233 54.825906 
L 81.374266 19.900321 
L 81.4503 208.732165 
L 81.526334 204.535901 
L 81.83047 177.505252 
L 82.134605 121.454499 
L 82.362707 42.64196 
L 82.438741 211.006329 
L 82.514775 207.264898 
L 82.81891 183.1641 
L 83.123046 133.188685 
L 83.427181 29.559664 
L 83.503215 209.698099 
L 83.579249 205.695023 
L 83.883385 179.908806 
L 84.18752 126.438508 
L 84.415622 51.254327 
L 84.491656 211.867565 
L 84.56769 208.298382 
L 84.871825 185.307133 
L 85.175961 137.632477 
L 85.328028 97.116836 
L 85.404062 216.453816 
L 85.480096 213.801883 
L 85.784232 196.719192 
L 86.088367 161.296524 
L 86.392503 87.84408 
L 86.468537 215.526541 
L 86.544571 212.689153 
L 86.848706 194.411834 
L 87.152842 156.511986 
L 87.685079 47.564738 
L 87.761113 211.498606 
L 87.837147 207.855631 
L 88.141282 184.389045 
L 88.445418 135.72873 
L 88.673519 67.307832 
L 88.749553 213.472916 
L 88.825587 210.224803 
L 89.129723 189.301758 
L 89.433858 145.915733 
L 89.66196 109.044724 
L 89.737994 109.044724 
L 89.814028 84.910973 
L 89.890061 215.23323 
L 89.966095 212.33718 
L 90.270231 193.681983 
L 90.574366 154.998567 
L 90.878502 74.784636 
L 90.954536 214.220596 
L 91.03057 211.122019 
L 91.334705 191.162226 
L 91.638841 149.7736 
L 91.942976 63.950144 
L 92.01901 213.137147 
L 92.095044 209.82188 
L 92.39918 188.466258 
L 92.703315 144.18324 
L 93.083485 81.917224 
L 93.691756 81.917224 
L 93.76779 52.357973 
L 93.843823 211.97793 
L 93.919857 208.43082 
L 94.223993 185.581755 
L 94.528128 138.201934 
L 94.908298 39.955138 
L 94.984332 210.737646 
L 95.060366 206.94248 
L 95.364501 182.495533 
L 95.668637 131.802344 
L 95.896738 60.523037 
L 95.972772 212.794436 
L 96.048806 209.410627 
L 96.352942 187.613484 
L 96.657077 142.414928 
L 96.961213 48.691201 
L 97.037247 211.611253 
L 97.11328 207.990807 
L 97.417416 184.669345 
L 97.721551 136.309961 
L 98.177755 36.031942 
L 98.253789 210.345327 
L 98.329823 206.471696 
L 98.633958 181.519316 
L 98.938094 129.778061 
L 99.166195 57.025075 
L 99.242229 212.44464 
L 99.318263 208.990872 
L 99.622399 186.743079 
L 99.926534 140.610056 
L 100.154636 75.742763 
L 100.23067 214.316409 
L 100.306703 211.236995 
L 100.610839 191.400639 
L 100.914975 150.267972 
L 101.21911 64.975275 
L 101.295144 213.23966 
L 101.371178 209.944896 
L 101.675313 188.721343 
L 101.979449 144.712185 
L 102.283584 53.454794 
L 102.359618 212.087612 
L 102.435652 208.562438 
L 102.739788 185.854679 
L 103.043923 138.76787 
L 103.424093 41.128662 
L 103.500127 210.854999 
L 103.57616 207.083302 
L 103.880296 182.787543 
L 104.184432 132.407856 
L 104.412533 61.569362 
L 104.488567 212.899069 
L 104.564601 209.536186 
L 104.868737 187.873843 
L 105.172872 142.954809 
L 105.477008 49.810698 
L 105.553041 211.723202 
L 105.629075 208.125147 
L 105.933211 184.947912 
L 106.237346 136.887597 
L 106.617516 37.229727 
L 106.69355 210.465105 
L 106.769584 206.61543 
L 107.073719 181.817363 
L 107.377855 130.396092 
L 107.605956 58.093033 
L 107.68199 212.551436 
L 107.758024 209.119027 
L 108.06216 187.008821 
L 108.366295 141.161099 
L 108.746465 76.694965 
L 108.822498 76.694965 
L 108.898532 46.091262 
L 108.974566 211.351259 
L 109.0506 207.678814 
L 109.354736 184.022397 
L 109.658871 134.968449 
L 109.886973 65.994066 
L 109.963007 213.341539 
L 110.039041 210.067151 
L 110.343176 188.974851 
L 110.647312 145.237859 
L 110.951447 54.544832 
L 111.027481 212.196616 
L 111.103515 208.693243 
L 111.407651 186.125915 
L 111.711786 139.330305 
L 111.939888 73.531354 
L 112.015922 214.095268 
L 112.091955 210.971625 
L 112.396091 190.85037 
L 112.700227 149.126934 
L 113.004362 62.609217 
L 113.080396 213.003054 
L 113.15643 209.660969 
L 113.460565 188.132592 
L 113.764701 143.491351 
L 114.14487 80.72164 
L 114.296938 80.72164 
L 114.372972 50.923272 
L 114.449006 211.83446 
L 114.52504 208.258656 
L 114.829175 185.224755 
L 115.133311 137.46166 
L 115.361412 70.302335 
L 115.437446 213.772366 
L 115.51348 210.584143 
L 115.817616 190.046886 
L 116.121751 147.460831 
L 116.425887 59.154386 
L 116.501921 212.657571 
L 116.577955 209.246389 
L 116.88209 187.27292 
L 117.186226 141.708734 
L 117.414327 77.641279 
L 117.490361 214.50626 
L 117.566395 211.464816 
L 117.870531 191.87305 
L 118.174666 151.247565 
L 118.478802 67.006557 
L 118.554836 213.442788 
L 118.630869 210.18865 
L 118.935005 189.226791 
L 119.239141 145.760282 
L 119.695344 55.628128 
L 119.771378 212.304945 
L 119.847412 208.823238 
L 120.151547 186.395474 
L 120.455683 139.889262 
L 120.683784 74.497232 
L 120.759818 214.191856 
L 120.835852 211.087531 
L 121.139988 191.090711 
L 121.444123 149.625305 
L 121.748259 63.64264 
L 121.824293 213.106397 
L 121.900326 209.78498 
L 122.204462 188.389741 
L 122.508598 144.024575 
L 122.888767 81.643051 
L 123.72514 81.643051 
L 123.801174 52.028966 
L 123.877207 211.945029 
L 123.953241 208.391339 
L 124.257377 185.499887 
L 124.561512 138.032174 
L 124.789614 71.288182 
L 124.865648 213.870951 
L 124.941682 210.702445 
L 125.245817 190.292197 
L 125.549953 147.969506 
L 125.854088 60.209176 
L 125.930122 212.76305 
L 126.006156 209.372964 
L 126.310292 187.535385 
L 126.614427 142.252982 
L 126.994597 78.58174 
L 127.070631 78.58174 
L 127.146664 48.355392 
L 127.222698 211.577672 
L 127.298732 207.95051 
L 127.602868 184.585785 
L 127.907003 136.13669 
L 128.135105 68.012787 
L 128.211139 213.543411 
L 128.287173 210.309397 
L 128.591308 189.477174 
L 128.895444 146.279474 
L 129.199579 56.704725 
L 129.275613 212.412605 
L 129.351647 208.95243 
L 129.655783 186.663366 
L 129.959918 140.444763 
L 130.18802 75.457136 
L 130.264054 214.287846 
L 130.340088 211.202719 
L 130.644223 191.329566 
L 130.948359 150.120595 
L 131.252494 64.669673 
L 131.328528 213.2091 
L 131.404562 209.908224 
L 131.708697 188.6453 
L 132.012833 144.554501 
L 132.316969 53.127821 
L 132.393002 212.054915 
L 132.469036 208.523201 
L 132.773172 185.773318 
L 133.077307 138.599159 
L 133.457477 72.267933 
L 134.217816 72.267933 
L 134.29385 213.968926 
L 134.369883 210.820015 
L 134.674019 190.53599 
L 134.978154 148.475036 
L 135.28229 61.257442 
L 135.358324 212.867877 
L 135.434358 209.498756 
L 135.738493 187.796228 
L 136.042629 142.793865 
L 136.498832 49.476965 
L 136.574866 211.689829 
L 136.6509 208.085099 
L 136.955035 184.864868 
L 137.259171 136.715398 
L 137.487273 69.012793 
L 137.563307 213.643412 
L 137.63934 210.429398 
L 137.943476 189.726007 
L 138.247611 146.795456 
L 138.551747 57.774664 
L 138.627781 212.519599 
L 138.703815 209.080823 
L 139.00795 186.929601 
L 139.312086 140.996828 
L 139.540187 76.411105 
L 139.616221 214.383243 
L 139.692255 211.317195 
L 139.996391 191.566944 
L 140.300526 150.612822 
L 140.604662 65.690355 
L 140.680696 213.311168 
L 140.75673 210.030705 
L 141.060865 188.899278 
L 141.365001 145.08115 
L 141.669136 54.219881 
L 141.74517 212.164121 
L 141.821204 208.654249 
L 142.12534 186.045057 
L 142.429475 139.162638 
L 142.809644 41.947253 
L 142.885678 210.936858 
L 142.961712 207.181533 
L 143.265848 182.991235 
L 143.569983 132.830231 
L 143.798085 62.299226 
L 143.874119 212.972055 
L 143.950153 209.62377 
L 144.254288 188.055457 
L 144.558424 143.331402 
L 144.862559 50.591603 
L 144.938593 211.801293 
L 145.014627 208.218855 
L 145.318763 185.142226 
L 145.622898 137.290526 
L 146.003068 70.006615 
L 146.155135 70.006615 
L 146.231169 38.065242 
L 146.307203 210.548657 
L 146.383237 206.715692 
L 146.687373 182.025266 
L 146.991508 130.827199 
L 147.21961 58.837986 
L 147.295644 212.625931 
L 147.371677 209.208421 
L 147.675813 187.19419 
L 147.979949 141.545479 
L 148.360118 46.888312 
L 148.436152 211.430964 
L 148.512186 207.77446 
L 148.816321 184.220728 
L 149.120457 135.379709 
L 149.348558 66.704724 
L 149.424592 213.412605 
L 149.500626 210.15243 
L 149.804762 189.151686 
L 150.108897 145.604543 
L 150.413033 55.305187 
L 150.489067 212.272651 
L 150.565101 208.784485 
L 150.869236 186.315116 
L 151.173372 139.722632 
L 151.401473 74.209294 
L 151.477507 214.163062 
L 151.553541 211.052978 
L 151.857677 191.019063 
L 152.161812 149.476736 
L 152.465948 63.334567 
L 152.541982 213.075589 
L 152.618015 209.748011 
L 152.922151 188.313083 
L 153.226287 143.865616 
L 153.530422 51.699348 
L 153.606456 211.912067 
L 153.68249 208.351785 
L 153.986625 185.417868 
L 154.290761 137.862098 
L 154.518863 70.994291 
L 154.594896 213.841562 
L 154.67093 210.667178 
L 154.975066 190.219067 
L 155.279201 147.817865 
L 155.583337 59.894733 
L 155.659371 212.731606 
L 155.735405 209.335231 
L 156.03954 187.457142 
L 156.343676 142.090737 
L 156.571777 78.301379 
L 156.647811 214.57227 
L 156.723845 211.544028 
L 157.027981 192.037305 
L 157.332116 151.588162 
L 157.636252 67.71282 
L 157.712286 213.513415 
L 157.78832 210.273401 
L 158.092455 189.402532 
L 158.396591 146.124698 
L 158.77676 56.383781 
L 158.852794 212.380511 
L 158.928828 208.913917 
L 159.232963 186.583505 
L 159.537099 140.279163 
L 159.765201 75.170979 
L 159.841234 214.25923 
L 159.917268 211.16838 
L 160.221404 191.258361 
L 160.525539 149.972944 
L 160.829675 64.363505 
L 160.905709 213.178483 
L 160.981743 209.871483 
L 161.285878 188.569115 
L 161.590014 144.396525 
L 161.970183 82.285781 
L 162.046217 82.285781 
L 162.122251 52.800241 
L 162.198285 212.022157 
L 162.274319 208.483892 
L 162.578454 185.691805 
L 162.88259 138.430135 
L 163.110691 71.975859 
L 163.186725 213.939718 
L 163.262759 210.784966 
L 163.566895 190.463313 
L 163.87103 148.324333 
L 164.175166 60.944944 
L 164.2512 212.836627 
L 164.327234 209.461256 
L 164.631369 187.718468 
L 164.935505 142.632623 
L 165.391708 49.142613 
L 165.467742 211.656394 
L 165.543776 208.044977 
L 165.847911 184.781671 
L 166.152047 136.542879 
L 166.380148 68.714681 
L 166.456182 213.613601 
L 166.532216 210.393625 
L 166.836352 189.651827 
L 167.140487 146.641637 
L 167.444623 57.455705 
L 167.520657 212.487703 
L 167.596691 209.042548 
L 167.900826 186.850234 
L 168.204962 140.832252 
L 168.433063 76.126717 
L 168.509097 214.354804 
L 168.585131 211.283069 
L 168.889267 191.496179 
L 169.193402 150.466084 
L 169.497538 65.38608 
L 169.573572 213.28074 
L 169.649605 209.994192 
L 169.953741 188.823565 
L 170.257876 144.924151 
L 170.562012 53.894327 
L 170.638046 212.131565 
L 170.71408 208.615182 
L 171.018215 185.964049 
L 171.322351 138.994659 
L 171.550453 72.951357 
L 171.626486 214.037268 
L 171.70252 210.902026 
L 172.006656 190.706048 
L 172.310791 148.827668 
L 172.614927 61.98866 
L 172.690961 212.940999 
L 172.766995 209.586502 
L 173.07113 187.978178 
L 173.375266 143.171157 
L 173.755435 80.168346 
L 174.059571 80.168346 
L 174.135605 50.259319 
L 174.211638 211.768064 
L 174.287672 208.178981 
L 174.591808 185.059543 
L 174.895943 137.119075 
L 175.124045 69.710347 
L 175.200079 213.713167 
L 175.276113 210.513105 
L 175.580248 189.899581 
L 175.884384 147.155378 
L 176.188519 58.521 
L 176.264553 212.594232 
L 176.340587 209.170383 
L 176.644723 187.115313 
L 176.948858 141.381921 
L 177.329028 77.076545 
L 178.54557 77.076545 
L 178.621604 46.549158 
L 178.697638 211.397048 
L 178.773671 207.733762 
L 179.077807 184.136336 
L 179.381943 135.204713 
L 179.610044 66.402331 
L 179.686078 213.382366 
L 179.762112 210.116143 
L 180.066247 189.07644 
L 180.370383 145.448514 
L 180.674519 54.981646 
L 180.750552 212.240297 
L 180.826586 208.74566 
L 181.130722 186.234609 
L 181.434857 139.555692 
L 181.662959 73.920822 
L 181.738993 214.134215 
L 181.815027 211.018362 
L 182.119162 190.947282 
L 182.423298 149.327891 
L 182.727433 63.025921 
L 182.803467 213.044725 
L 182.879501 209.710973 
L 183.183637 188.236282 
L 183.487772 143.706361 
L 183.867942 51.369118 
L 183.943976 211.879044 
L 184.020009 208.312157 
L 184.324145 185.335696 
L 184.62828 137.691707 
L 184.856382 70.699856 
L 184.932416 213.812118 
L 185.00845 210.631846 
L 185.312585 190.145802 
L 185.616721 147.665943 
L 185.920857 59.579706 
L 185.99689 212.700103 
L 186.072924 209.297428 
L 186.37706 187.378753 
L 186.681195 141.92819 
L 187.137399 47.681902 
L 187.213433 211.510323 
L 187.289466 207.869691 
L 187.593602 184.418199 
L 187.897737 135.789184 
L 188.125839 67.412297 
L 188.201873 213.483362 
L 188.277907 210.237339 
L 188.582042 189.327752 
L 188.886178 145.969635 
L 189.190314 56.062241 
L 189.266347 212.348357 
L 189.342381 208.875332 
L 189.646517 186.503495 
L 189.950652 140.113255 
L 190.178754 74.884291 
L 190.254788 214.230562 
L 190.330822 211.133978 
L 190.634957 191.187024 
L 190.939093 149.82502 
L 191.243228 64.056768 
L 191.319262 213.147809 
L 191.395296 209.834675 
L 191.699432 188.49279 
L 192.003567 144.238256 
L 192.307703 52.472054 
L 192.383737 211.989338 
L 192.459771 208.444509 
L 192.763906 185.610142 
L 193.068042 138.260798 
L 193.296143 71.683244 
L 193.372177 213.910457 
L 193.448211 210.749852 
L 193.752347 190.390501 
L 194.056482 148.17335 
L 194.360618 60.631865 
L 194.436651 212.805319 
L 194.512685 209.423687 
L 194.816821 187.640564 
L 195.120956 142.471081 
L 195.501126 78.958614 
L 195.57716 78.958614 
L 195.653194 48.807641 
L 195.729228 211.622897 
L 195.805261 208.00478 
L 196.109397 184.698319 
L 196.413532 136.370041 
L 196.641634 68.416017 
L 196.717668 213.583734 
L 196.793702 210.357785 
L 197.097837 189.57751 
L 197.401973 146.487532 
L 197.706108 57.136154 
L 197.782142 212.455748 
L 197.858176 209.004201 
L 198.162312 186.770719 
L 198.466447 140.667371 
L 198.694549 75.841803 
L 198.770583 214.326313 
L 198.846617 211.248879 
L 199.150752 191.425283 
L 199.454888 150.319074 
L 199.759023 65.08124 
L 199.835057 213.250257 
L 199.911091 209.957612 
L 200.215227 188.747711 
L 200.519362 144.766861 
L 200.975565 53.568169 
L 201.051599 212.098949 
L 201.127633 208.576043 
L 201.431769 185.882891 
L 201.735904 138.826369 
L 201.964006 72.660552 
L 202.04004 214.008188 
L 202.116074 210.867129 
L 202.420209 190.633686 
L 202.724345 148.677619 
L 203.02848 61.677518 
L 203.104514 212.909884 
L 203.180548 209.549165 
L 203.484684 187.900756 
L 203.788819 143.010615 
L 204.168989 49.926418 
L 204.245022 211.734774 
L 204.321056 208.139033 
L 204.625192 184.976706 
L 204.929327 136.947305 
L 205.157429 69.41353 
L 205.233463 213.683485 
L 205.309497 210.477486 
L 205.613632 189.825723 
L 205.917768 147.002227 
L 206.221903 58.203425 
L 206.297937 212.562475 
L 206.373971 209.132274 
L 206.678107 187.03629 
L 206.982242 141.218059 
L 207.210344 76.793392 
L 207.286378 214.421472 
L 207.362412 211.36307 
L 207.666547 191.662069 
L 207.970683 150.810074 
L 208.274818 66.099376 
L 208.350852 213.35207 
L 208.426886 210.079788 
L 208.731022 189.001056 
L 209.035157 145.292196 
L 209.339293 54.657506 
L 209.415327 212.207883 
L 209.49136 208.706764 
L 209.795496 186.153952 
L 210.099632 139.388443 
L 210.327733 73.631815 
L 210.403767 214.105314 
L 210.479801 210.983681 
L 210.783936 190.875368 
L 211.088072 149.178769 
L 211.392208 62.716704 
L 211.468241 213.013803 
L 211.544275 209.673867 
L 211.848411 188.159339 
L 212.152546 143.546812 
L 212.532716 80.817477 
L 213.369089 80.817477 
L 213.445122 51.038276 
L 213.521156 211.84596 
L 213.59719 208.272456 
L 213.901326 185.253372 
L 214.205461 137.521 
L 214.433563 70.404873 
L 214.509597 213.78262 
L 214.585631 210.596448 
L 214.889766 190.072401 
L 215.193902 147.513739 
L 215.498037 59.264095 
L 215.574071 212.668542 
L 215.650105 209.259554 
L 215.954241 187.300219 
L 216.258376 141.765342 
L 216.486478 77.739097 
L 216.562512 214.516042 
L 216.638546 211.476555 
L 216.942681 191.897391 
L 217.246817 151.298037 
L 217.550952 67.111216 
L 217.626986 213.453254 
L 217.70302 210.201209 
L 218.007155 189.252834 
L 218.311291 145.814284 
L 218.767494 55.740105 
L 218.843528 212.316143 
L 218.919562 208.836676 
L 219.223698 186.423338 
L 219.527833 139.94704 
L 219.755935 74.597072 
L 219.831969 214.20184 
L 219.908003 211.099512 
L 220.212138 191.115554 
L 220.516274 149.676821 
L 220.820409 63.749463 
L 220.896443 213.117079 
L 220.972477 209.797798 
L 221.276612 188.416322 
L 221.580748 144.079693 
L 221.960917 81.738295 
L 225.53451 81.738295 
L 225.610544 214.915962 
L 225.686578 211.956458 
L 225.990713 192.892519 
L 226.294849 153.361535 
L 226.598984 71.390087 
L 226.675018 213.881141 
L 226.751052 210.714673 
L 227.055188 190.317554 
L 227.359323 148.022087 
L 227.663459 60.318207 
L 227.739493 212.773953 
L 227.815526 209.386048 
L 228.119662 187.562516 
L 228.423797 142.30924 
L 228.651899 78.678953 
L 228.727933 214.610028 
L 228.803967 211.589337 
L 229.108102 192.131257 
L 229.412238 151.782982 
L 229.716374 68.116798 
L 229.792407 213.553812 
L 229.868441 210.321879 
L 230.172577 189.503055 
L 230.476712 146.333142 
L 230.856882 56.81601 
L 230.932916 212.423734 
L 231.00895 208.965784 
L 231.313085 186.691057 
L 231.617221 140.502183 
L 231.845322 75.556359 
L 231.921356 214.297768 
L 231.99739 211.214626 
L 232.301526 191.354256 
L 232.605661 150.171792 
L 232.909797 64.775835 
L 232.985831 213.219716 
L 233.061864 209.920963 
L 233.366 188.671716 
L 233.670135 144.609278 
L 234.050305 53.241407 
L 234.126339 212.066273 
L 234.202373 208.536832 
L 234.506508 185.801581 
L 234.810644 138.657767 
L 235.038745 72.369207 
L 235.114779 213.979053 
L 235.190813 210.832168 
L 235.494949 190.56119 
L 235.799084 148.527291 
L 236.10322 61.365799 
L 236.179254 212.878712 
L 236.255288 209.511759 
L 236.559423 187.82319 
L 236.863559 142.849774 
L 237.09166 79.612996 
L 237.167694 214.703432 
L 237.243728 211.701422 
L 237.547864 192.363677 
L 237.851999 152.264928 
L 238.156135 69.116161 
L 238.232168 213.653749 
L 238.308202 210.441802 
L 238.612338 189.751728 
L 238.916473 146.848791 
L 239.220609 57.885261 
L 239.296643 212.530659 
L 239.372677 209.094094 
L 239.676812 186.957121 
L 239.980948 141.053893 
L 240.361117 45.868961 
L 240.437151 211.329029 
L 240.513185 207.652138 
L 240.817321 183.967081 
L 241.121456 134.853746 
L 241.349558 65.79586 
L 241.425592 213.321719 
L 241.501625 210.043366 
L 241.805761 188.925531 
L 242.109897 145.135589 
L 242.414032 54.332764 
L 242.490066 212.175409 
L 242.5661 208.667795 
L 242.870235 186.073146 
L 243.174371 139.220883 
L 243.402473 73.342272 
L 243.478506 214.07636 
L 243.55454 210.948936 
L 243.858676 190.80332 
L 244.162811 149.029372 
L 244.466947 62.406912 
L 244.542981 212.982824 
L 244.619015 209.636692 
L 244.92315 188.082253 
L 245.227286 143.386966 
L 245.531421 50.70682 
L 245.607455 211.812815 
L 245.683489 208.232681 
L 245.987625 185.170895 
L 246.29176 137.349976 
L 246.67193 70.109344 
L 248.420709 70.109344 
L 248.496743 38.188517 
L 248.572777 210.560984 
L 248.648811 206.730485 
L 248.952946 182.055941 
L 249.257082 130.890806 
L 249.485183 58.947899 
L 249.561217 212.636922 
L 249.637251 209.221611 
L 249.941387 187.221539 
L 250.245522 141.602191 
L 250.549658 47.005911 
L 250.625692 211.442724 
L 250.701725 207.788572 
L 251.005861 184.249991 
L 251.309996 135.440388 
L 251.690166 66.809576 
L 252.222403 66.809576 
L 252.298437 34.228796 
L 252.374471 210.165012 
L 252.450505 206.255318 
L 252.75464 181.070635 
L 253.058776 128.847677 
L 253.286877 55.417372 
L 253.362911 212.28387 
L 253.438945 208.797948 
L 253.743081 186.343031 
L 254.047216 139.780517 
L 254.351352 43.228487 
L 254.427386 211.064981 
L 254.50342 207.335281 
L 254.807555 183.310047 
L 255.111691 133.49132 
L 255.339792 63.441587 
L 255.415826 213.086291 
L 255.49186 209.760853 
L 255.795996 188.339713 
L 256.100131 143.920836 
L 256.404267 51.813852 
L 256.480301 211.923518 
L 256.556334 208.365525 
L 256.86047 185.44636 
L 257.164606 137.92118 
L 257.544775 39.372966 
L 257.620809 210.679429 
L 257.696843 206.872619 
L 258.000978 182.35067 
L 258.305114 131.501956 
L 258.685283 60.003966 
L 259.673724 60.003966 
L 259.749758 212.742529 
L 259.825791 209.348339 
L 260.129927 187.484323 
L 260.434063 142.147098 
L 260.738198 48.135831 
L 260.814232 211.555716 
L 260.890266 207.924163 
L 261.194401 184.531151 
L 261.498537 136.023402 
L 261.878706 67.817024 
L 262.182842 67.817024 
L 262.258876 35.437733 
L 262.33491 210.285906 
L 262.410944 206.400391 
L 262.715079 181.371458 
L 263.019215 129.471462 
L 263.247316 56.495272 
L 263.32335 212.39166 
L 263.399384 208.927296 
L 263.70352 186.611247 
L 264.007655 140.33669 
L 264.311791 44.381767 
L 264.387824 211.180309 
L 264.463858 207.473675 
L 264.767994 183.59702 
L 265.072129 134.086387 
L 265.300231 64.469863 
L 265.376265 213.189119 
L 265.452299 209.884247 
L 265.756434 188.595581 
L 266.06057 144.451404 
L 266.364705 52.914038 
L 266.440739 212.033536 
L 266.516773 208.497547 
L 266.820909 185.720122 
L 267.125044 138.488852 
L 267.42918 40.55009 
L 267.505214 210.797142 
L 267.581248 207.013874 
L 267.885383 182.643576 
L 268.189519 132.109326 
L 268.569688 61.053501 
L 268.645722 61.053501 
L 268.721756 27.321505 
L 268.79779 209.474283 
L 268.873824 205.426444 
L 269.177959 179.351881 
L 269.482095 125.283667 
L 269.710196 49.258762 
L 269.78623 211.668009 
L 269.862264 208.058914 
L 270.1664 184.810572 
L 270.470535 136.60281 
L 270.850705 68.818241 
L 271.382942 68.818241 
L 271.458976 36.639193 
L 271.53501 210.406052 
L 271.611043 206.544566 
L 271.915179 181.67042 
L 272.219314 130.091389 
L 272.447416 57.566507 
L 272.52345 212.498783 
L 272.599484 209.055844 
L 272.903619 186.877805 
L 273.207755 140.889423 
L 273.511891 45.527915 
L 273.587924 211.294924 
L 273.663958 207.611213 
L 273.968094 183.882218 
L 274.272229 134.677774 
L 274.500331 65.49178 
L 274.576365 213.291311 
L 274.652399 210.006877 
L 274.956534 188.849866 
L 275.26067 144.97869 
L 275.564805 54.00742 
L 275.640839 212.142875 
L 275.716873 208.628753 
L 276.021009 185.99219 
L 276.325144 139.053013 
L 276.705314 41.719934 
L 276.781348 210.914126 
L 276.857381 207.154255 
L 277.161517 182.93467 
L 277.465652 132.71294 
L 277.693754 62.096546 
L 277.769788 212.951787 
L 277.845822 209.599448 
L 278.149957 188.005024 
L 278.454093 143.226824 
L 278.758228 50.37475 
L 278.834262 211.779607 
L 278.910296 208.192833 
L 279.214432 185.088265 
L 279.518567 137.178634 
L 279.746669 69.813267 
L 279.822703 213.723459 
L 279.898737 210.525455 
L 280.202872 189.925191 
L 280.507008 147.208482 
L 280.811143 58.631116 
L 280.887177 212.605244 
L 280.963211 209.183597 
L 281.267347 187.142714 
L 281.571482 141.438738 
L 281.951652 46.666975 
L 282.027685 211.40883 
L 282.103719 207.7479 
L 282.407855 184.165653 
L 282.71199 135.265504 
L 282.940092 66.507378 
L 283.016126 213.39287 
L 283.09216 210.128748 
L 283.396295 189.10258 
L 283.700431 145.502716 
L 284.004566 55.09404 
L 284.0806 212.251537 
L 284.156634 208.759148 
L 284.46077 186.262576 
L 284.764905 139.613685 
L 284.993007 74.021033 
L 285.069041 214.144236 
L 285.145075 211.030387 
L 285.44921 190.972217 
L 285.753346 149.379597 
L 286.057481 63.13314 
L 286.133515 213.055447 
L 286.209549 209.72384 
L 286.513685 188.262961 
L 286.81782 143.761684 
L 287.274023 51.483835 
L 287.350057 211.890516 
L 287.426091 208.325923 
L 287.730227 185.364241 
L 288.034362 137.750898 
L 288.262464 70.802138 
L 288.338498 213.822346 
L 288.414532 210.64412 
L 288.718667 190.171253 
L 289.022803 147.718718 
L 289.402972 88.026532 
L 289.935209 88.026532 
L 290.011243 59.689142 
L 290.087277 212.711047 
L 290.163311 209.31056 
L 290.467447 187.405984 
L 290.771582 141.984656 
L 290.999684 78.118072 
L 291.075718 214.55394 
L 291.151752 211.522032 
L 291.455887 191.991692 
L 291.760023 151.49358 
L 292.064158 67.516694 
L 292.140192 213.493802 
L 292.216226 210.249866 
L 292.520361 189.35373 
L 292.824497 146.023501 
L 293.204666 56.17394 
L 293.2807 212.359527 
L 293.356734 208.888736 
L 293.66087 186.53129 
L 293.965005 140.170889 
L 294.193107 74.983883 
L 294.269141 214.240521 
L 294.345175 211.145929 
L 294.64931 191.211805 
L 294.953446 149.876407 
L 295.257581 64.163324 
L 295.333615 213.158465 
L 295.409649 209.847462 
L 295.713785 188.519304 
L 296.01792 144.293236 
L 296.39809 82.107298 
L 297.234462 82.107298 
L 297.310496 214.952862 
L 297.38653 212.000739 
L 297.690666 192.984339 
L 297.994801 153.551933 
L 298.298937 71.784895 
L 298.37497 213.920622 
L 298.451004 210.76205 
L 298.75514 190.415795 
L 299.059275 148.225799 
L 299.439445 88.902767 
L 300.884089 88.902767 
L 300.960123 60.740624 
L 301.036156 212.816195 
L 301.11219 209.436738 
L 301.416326 187.667627 
L 301.720461 142.527198 
L 301.948563 79.055585 
L 302.024597 214.647691 
L 302.100631 211.634533 
L 302.404766 192.224975 
L 302.708902 151.977315 
L 303.013037 68.519769 
L 303.089071 213.594109 
L 303.165105 210.370235 
L 303.469241 189.603327 
L 303.773376 146.541066 
L 304.001478 85.991548 
L 304.077512 215.341287 
L 304.153546 212.466849 
L 304.457681 193.950865 
L 304.761817 155.55612 
L 305.065952 75.940778 
L 305.141986 214.33621 
L 305.21802 211.260756 
L 305.522156 191.449911 
L 305.826291 150.370144 
L 306.20646 92.608194 
L 306.282494 92.608194 
L 306.358528 65.187137 
L 306.434562 213.260846 
L 306.510596 209.970319 
L 306.814732 188.774061 
L 307.118867 144.821501 
L 307.346969 83.02014 
L 307.423003 215.044147 
L 307.499037 212.11028 
L 307.803172 193.211483 
L 308.107308 154.022939 
L 308.411443 72.761573 
L 308.487477 214.01829 
L 308.563511 210.879252 
L 308.867646 190.658824 
L 309.171782 148.729744 
L 309.551951 89.773584 
L 309.627985 89.773584 
L 309.704019 61.785604 
L 309.780053 212.920693 
L 309.856087 209.562135 
L 310.160222 187.927651 
L 310.464358 143.066385 
L 310.69246 79.987299 
L 310.768494 214.740862 
L 310.844527 211.746339 
L 311.148663 192.456815 
L 311.452798 152.45806 
L 311.756934 69.51664 
L 311.832968 213.693797 
L 311.909002 210.48986 
L 312.213137 189.85138 
L 312.517273 147.055429 
L 312.897442 86.880368 
L 314.570188 86.880368 
L 314.646222 58.313746 
L 314.722255 212.573507 
L 314.798289 209.145512 
L 315.102425 187.063742 
L 315.40656 141.274982 
L 315.634662 76.891755 
L 315.710696 214.431308 
L 315.78673 211.374874 
L 316.090865 191.686545 
L 316.395001 150.860827 
L 316.699136 66.204618 
L 316.77517 213.362594 
L 316.851204 210.092417 
L 317.15534 189.027243 
L 317.459475 145.346499 
L 317.687577 83.927336 
L 317.763611 215.134866 
L 317.839645 212.219143 
L 318.14378 193.437223 
L 318.447916 154.491032 
L 318.752051 73.732212 
L 318.828085 214.115354 
L 318.904119 210.995728 
L 319.208255 190.90035 
L 319.51239 149.230572 
L 319.816526 62.824121 
L 319.89256 213.024545 
L 319.968593 209.686758 
L 320.272729 188.186068 
L 320.576865 143.602237 
L 320.804966 80.913252 
L 320.881 214.833458 
L 320.957034 211.857453 
L 321.261169 192.687222 
L 321.565305 152.935831 
L 321.869441 70.507346 
L 321.945474 213.792867 
L 322.021508 210.608744 
L 322.325644 190.0979 
L 322.629779 147.566612 
L 323.009949 87.763692 
L 328.332321 87.763692 
L 328.408355 215.518502 
L 328.484388 212.679506 
L 328.788524 194.391831 
L 329.092659 156.470507 
L 329.396795 77.836852 
L 329.472829 214.525818 
L 329.548863 211.488285 
L 329.852998 191.921715 
L 330.157134 151.348476 
L 330.537303 94.298753 
L 330.613337 94.298753 
L 330.689371 67.215807 
L 330.765405 213.463713 
L 330.841439 210.21376 
L 331.145574 189.278859 
L 331.44971 145.86825 
L 331.677812 84.828923 
L 331.753845 215.225025 
L 331.829879 212.327334 
L 332.134015 193.661566 
L 332.43815 154.956231 
L 332.742286 74.696848 
L 332.81832 214.211817 
L 332.894354 211.111485 
L 333.198489 191.140382 
L 333.502625 149.728303 
L 333.80676 63.856216 
L 333.882794 213.127754 
L 333.958828 209.810609 
L 334.262964 188.442886 
L 334.567099 144.134775 
L 334.795201 81.833478 
L 334.871235 214.92548 
L 334.947269 211.96788 
L 335.251404 192.916204 
L 335.55554 153.410647 
L 335.859675 71.491925 
L 335.935709 213.891325 
L 336.011743 210.726894 
L 336.315878 190.342895 
L 336.620014 148.074633 
L 337.000183 88.641553 
L 338.520861 88.641553 
L 338.596895 215.606288 
L 338.672929 212.784849 
L 338.977064 194.610271 
L 339.2812 156.923464 
L 339.585335 78.776103 
L 339.661369 214.619743 
L 339.737403 211.600995 
L 340.041539 192.155431 
L 340.345674 151.833109 
L 340.725844 95.136199 
L 341.63825 95.136199 
L 341.714284 68.220742 
L 341.790318 213.564207 
L 341.866352 210.334352 
L 342.170487 189.52892 
L 342.474623 146.386775 
L 342.702725 85.724933 
L 342.778759 215.314626 
L 342.854792 212.434855 
L 343.158928 193.884522 
L 343.463064 155.418553 
L 343.767199 75.655518 
L 343.843233 214.307684 
L 343.919267 211.226525 
L 344.223402 191.37893 
L 344.527538 150.222956 
L 344.907707 92.353854 
L 347.796995 92.353854 
L 347.873029 215.977518 
L 347.949063 213.230325 
L 348.253198 195.53401 
L 348.557334 158.83893 
L 348.861469 82.748013 
L 348.937503 215.016934 
L 349.013537 212.077624 
L 349.317673 193.143769 
L 349.621808 153.882527 
L 350.001977 98.677593 
L 350.078011 98.677593 
L 350.154045 72.470416 
L 350.230079 213.989174 
L 350.306113 210.844313 
L 350.610249 190.586374 
L 350.914384 148.579513 
L 351.142486 89.513985 
L 351.21852 215.693531 
L 351.294554 212.889541 
L 351.598689 194.82736 
L 351.902825 157.37362 
L 352.20696 79.709546 
L 352.282994 214.713087 
L 352.359028 211.713008 
L 352.663163 192.387702 
L 352.967299 152.314745 
L 353.347468 95.968466 
L 356.768993 95.968466 
L 356.845027 216.338979 
L 356.921061 213.664079 
L 357.149163 201.980114 
L 357.149163 201.980114 
" clip-path="url(#p4064ffe247)" style="fill: none; stroke: #1f77b4; stroke-width: 1.5; stroke-linecap: square"/>
   </g>
   <g id="patch_3">
    <path d="M 37.567344 230.213172 
L 37.567344 8.453172 
" style="fill: none; stroke: #000000; stroke-width: 0.8; stroke-linejoin: miter; stroke-linecap: square"/>
   </g>
   <g id="patch_4">
    <path d="M 372.367344 230.213172 
L 372.367344 8.453172 
" style="fill: none; stroke: #000000; stroke-width: 0.8; stroke-linejoin: miter; stroke-linecap: square"/>
   </g>
   <g id="patch_5">
    <path d="M 37.567344 230.213172 
L 372.367344 230.213172 
" style="fill: none; stroke: #000000; stroke-width: 0.8; stroke-linejoin: miter; stroke-linecap: square"/>
   </g>
   <g id="patch_6">
    <path d="M 37.567344 8.453172 
L 372.367344 8.453172 
" style="fill: none; stroke: #000000; stroke-width: 0.8; stroke-linejoin: miter; stroke-linecap: square"/>
   </g>
   <g id="legend_1">
    <g id="patch_7">
     <path d="M 314.548024 30.673478 
L 365.367344 30.673478 
Q 367.367344 30.673478 367.367344 28.673478 
L 367.367344 15.453172 
Q 367.367344 13.453172 365.367344 13.453172 
L 314.548024 13.453172 
Q 312.548024 13.453172 312.548024 15.453172 
L 312.548024 28.673478 
Q 312.548024 30.673478 314.548024 30.673478 
z
" style="fill: #ffffff; opacity: 0.8; stroke: #cccccc; stroke-linejoin: miter"/>
    </g>
    <g id="line2d_18">
     <path d="M 316.548024 21.051492 
L 326.548024 21.051492 
L 336.548024 21.051492 
" style="fill: none; stroke: #1f77b4; stroke-width: 1.5; stroke-linecap: square"/>
    </g>
    <g id="text_19">
     <!-- CFL -->
     <g transform="translate(344.548024 24.551492) scale(0.1 -0.1)">
      <use xlink:href="#NimbusSanL-Regu-43" transform="scale(0.996264)"/>
      <use xlink:href="#NimbusSanL-Regu-46" transform="translate(71.929985 0) scale(0.996264)"/>
      <use xlink:href="#NimbusSanL-Regu-4c" transform="translate(132.801616 0) scale(0.996264)"/>
     </g>
    </g>
   </g>
  </g>
 </g>
 <defs>
  <clipPath id="p4064ffe247">
   <rect x="37.567344" y="8.453172" width="334.8" height="221.76"/>
  </clipPath>
 </defs>
</svg>
