<?xml version="1.0" encoding="utf-8" standalone="no"?>
<!DOCTYPE svg PUBLIC "-//W3C//DTD SVG 1.1//EN"
  "http://www.w3.org/Graphics/SVG/1.1/DTD/svg11.dtd">
<svg xmlns:xlink="http://www.w3.org/1999/xlink" width="388.515425pt" height="265.600613pt" viewBox="0 0 388.515425 265.600613" xmlns="http://www.w3.org/2000/svg" version="1.1">
 <metadata>
  <rdf:RDF xmlns:dc="http://purl.org/dc/elements/1.1/" xmlns:cc="http://creativecommons.org/ns#" xmlns:rdf="http://www.w3.org/1999/02/22-rdf-syntax-ns#">
   <cc:Work>
    <dc:type rdf:resource="http://purl.org/dc/dcmitype/StillImage"/>
    <dc:date>2025-07-17T22:11:05.327685</dc:date>
    <dc:format>image/svg+xml</dc:format>
    <dc:creator>
     <cc:Agent>
      <dc:title>Matplotlib v3.10.3, https://matplotlib.org/</dc:title>
     </cc:Agent>
    </dc:creator>
   </cc:Work>
  </rdf:RDF>
 </metadata>
 <defs>
  <style type="text/css">*{stroke-linejoin: round; stroke-linecap: butt}</style>
 </defs>
 <g id="figure_1">
  <g id="patch_1">
   <path d="M 0 265.600613 
L 388.515425 265.600613 
L 388.515425 0 
L 0 0 
z
" style="fill: #ffffff"/>
  </g>
  <g id="axes_1">
   <g id="patch_2">
    <path d="M 40.150386 228.96 
L 374.950386 228.96 
L 374.950386 7.2 
L 40.150386 7.2 
z
" style="fill: #ffffff"/>
   </g>
   <g id="PathCollection_1">
    <defs>
     <path id="me843abe279" d="M 0 0.353553 
C 0.093763 0.353553 0.183699 0.316301 0.25 0.25 
C 0.316301 0.183699 0.353553 0.093763 0.353553 0 
C 0.353553 -0.093763 0.316301 -0.183699 0.25 -0.25 
C 0.183699 -0.316301 0.093763 -0.353553 0 -0.353553 
C -0.093763 -0.353553 -0.183699 -0.316301 -0.25 -0.25 
C -0.316301 -0.183699 -0.353553 -0.093763 -0.353553 0 
C -0.353553 0.093763 -0.316301 0.183699 -0.25 0.25 
C -0.183699 0.316301 -0.093763 0.353553 0 0.353553 
z
" style="stroke: #ff0000"/>
    </defs>
    <g clip-path="url(#p31f5669d6e)">
     <use xlink:href="#me843abe279" x="40.150386" y="217.998042" style="fill: #ff0000; stroke: #ff0000"/>
     <use xlink:href="#me843abe279" x="41.250204" y="218.88" style="fill: #ff0000; stroke: #ff0000"/>
     <use xlink:href="#me843abe279" x="42.47055" y="217.517807" style="fill: #ff0000; stroke: #ff0000"/>
     <use xlink:href="#me843abe279" x="43.862648" y="216.025814" style="fill: #ff0000; stroke: #ff0000"/>
     <use xlink:href="#me843abe279" x="45.420807" y="214.582532" style="fill: #ff0000; stroke: #ff0000"/>
     <use xlink:href="#me843abe279" x="47.133644" y="213.422777" style="fill: #ff0000; stroke: #ff0000"/>
     <use xlink:href="#me843abe279" x="49.00685" y="212.505861" style="fill: #ff0000; stroke: #ff0000"/>
     <use xlink:href="#me843abe279" x="51.060178" y="211.832645" style="fill: #ff0000; stroke: #ff0000"/>
     <use xlink:href="#me843abe279" x="53.322757" y="211.28092" style="fill: #ff0000; stroke: #ff0000"/>
     <use xlink:href="#me843abe279" x="55.82907" y="210.830771" style="fill: #ff0000; stroke: #ff0000"/>
     <use xlink:href="#me843abe279" x="58.62398" y="210.46114" style="fill: #ff0000; stroke: #ff0000"/>
     <use xlink:href="#me843abe279" x="61.768087" y="210.160134" style="fill: #ff0000; stroke: #ff0000"/>
     <use xlink:href="#me843abe279" x="65.358817" y="209.924171" style="fill: #ff0000; stroke: #ff0000"/>
     <use xlink:href="#me843abe279" x="69.567588" y="209.742507" style="fill: #ff0000; stroke: #ff0000"/>
     <use xlink:href="#me843abe279" x="74.671279" y="209.610557" style="fill: #ff0000; stroke: #ff0000"/>
     <use xlink:href="#me843abe279" x="80.631054" y="209.529038" style="fill: #ff0000; stroke: #ff0000"/>
     <use xlink:href="#me843abe279" x="86.265068" y="209.486631" style="fill: #ff0000; stroke: #ff0000"/>
     <use xlink:href="#me843abe279" x="91.31787" y="209.467576" style="fill: #ff0000; stroke: #ff0000"/>
     <use xlink:href="#me843abe279" x="95.972929" y="209.458693" style="fill: #ff0000; stroke: #ff0000"/>
     <use xlink:href="#me843abe279" x="100.370862" y="209.452963" style="fill: #ff0000; stroke: #ff0000"/>
     <use xlink:href="#me843abe279" x="104.591016" y="209.445942" style="fill: #ff0000; stroke: #ff0000"/>
     <use xlink:href="#me843abe279" x="108.678254" y="209.434051" style="fill: #ff0000; stroke: #ff0000"/>
     <use xlink:href="#me843abe279" x="112.664048" y="209.416429" style="fill: #ff0000; stroke: #ff0000"/>
     <use xlink:href="#me843abe279" x="116.56949" y="209.392933" style="fill: #ff0000; stroke: #ff0000"/>
     <use xlink:href="#me843abe279" x="120.41065" y="209.360984" style="fill: #ff0000; stroke: #ff0000"/>
     <use xlink:href="#me843abe279" x="124.198243" y="209.320583" style="fill: #ff0000; stroke: #ff0000"/>
     <use xlink:href="#me843abe279" x="127.943316" y="209.270439" style="fill: #ff0000; stroke: #ff0000"/>
     <use xlink:href="#me843abe279" x="131.654574" y="209.210696" style="fill: #ff0000; stroke: #ff0000"/>
     <use xlink:href="#me843abe279" x="135.339717" y="209.140208" style="fill: #ff0000; stroke: #ff0000"/>
     <use xlink:href="#me843abe279" x="139.003434" y="209.059262" style="fill: #ff0000; stroke: #ff0000"/>
     <use xlink:href="#me843abe279" x="142.652084" y="208.967141" style="fill: #ff0000; stroke: #ff0000"/>
     <use xlink:href="#me843abe279" x="146.290021" y="208.863271" style="fill: #ff0000; stroke: #ff0000"/>
     <use xlink:href="#me843abe279" x="149.921931" y="208.747797" style="fill: #ff0000; stroke: #ff0000"/>
     <use xlink:href="#me843abe279" x="153.551163" y="208.619716" style="fill: #ff0000; stroke: #ff0000"/>
     <use xlink:href="#me843abe279" x="157.181734" y="208.479456" style="fill: #ff0000; stroke: #ff0000"/>
     <use xlink:href="#me843abe279" x="160.815319" y="208.326303" style="fill: #ff0000; stroke: #ff0000"/>
     <use xlink:href="#me843abe279" x="164.456604" y="208.159395" style="fill: #ff0000; stroke: #ff0000"/>
     <use xlink:href="#me843abe279" x="168.107598" y="207.979451" style="fill: #ff0000; stroke: #ff0000"/>
     <use xlink:href="#me843abe279" x="171.768636" y="207.786182" style="fill: #ff0000; stroke: #ff0000"/>
     <use xlink:href="#me843abe279" x="175.442731" y="207.577727" style="fill: #ff0000; stroke: #ff0000"/>
     <use xlink:href="#me843abe279" x="179.132896" y="207.355232" style="fill: #ff0000; stroke: #ff0000"/>
     <use xlink:href="#me843abe279" x="182.839132" y="207.117407" style="fill: #ff0000; stroke: #ff0000"/>
     <use xlink:href="#me843abe279" x="186.563782" y="206.864539" style="fill: #ff0000; stroke: #ff0000"/>
     <use xlink:href="#me843abe279" x="190.307516" y="206.595195" style="fill: #ff0000; stroke: #ff0000"/>
     <use xlink:href="#me843abe279" x="194.073012" y="206.309089" style="fill: #ff0000; stroke: #ff0000"/>
     <use xlink:href="#me843abe279" x="197.8596" y="206.00665" style="fill: #ff0000; stroke: #ff0000"/>
     <use xlink:href="#me843abe279" x="201.668954" y="205.685873" style="fill: #ff0000; stroke: #ff0000"/>
     <use xlink:href="#me843abe279" x="205.502749" y="205.346327" style="fill: #ff0000; stroke: #ff0000"/>
     <use xlink:href="#me843abe279" x="209.361319" y="204.988157" style="fill: #ff0000; stroke: #ff0000"/>
     <use xlink:href="#me843abe279" x="213.244999" y="204.609356" style="fill: #ff0000; stroke: #ff0000"/>
     <use xlink:href="#me843abe279" x="217.156132" y="204.210212" style="fill: #ff0000; stroke: #ff0000"/>
     <use xlink:href="#me843abe279" x="221.092711" y="203.789147" style="fill: #ff0000; stroke: #ff0000"/>
     <use xlink:href="#me843abe279" x="225.058752" y="203.344156" style="fill: #ff0000; stroke: #ff0000"/>
     <use xlink:href="#me843abe279" x="229.053585" y="202.876386" style="fill: #ff0000; stroke: #ff0000"/>
     <use xlink:href="#me843abe279" x="233.076542" y="202.383114" style="fill: #ff0000; stroke: #ff0000"/>
     <use xlink:href="#me843abe279" x="237.129631" y="201.863338" style="fill: #ff0000; stroke: #ff0000"/>
     <use xlink:href="#me843abe279" x="241.213186" y="201.315481" style="fill: #ff0000; stroke: #ff0000"/>
     <use xlink:href="#me843abe279" x="245.327878" y="200.738827" style="fill: #ff0000; stroke: #ff0000"/>
     <use xlink:href="#me843abe279" x="249.473372" y="200.131514" style="fill: #ff0000; stroke: #ff0000"/>
     <use xlink:href="#me843abe279" x="253.651676" y="199.490676" style="fill: #ff0000; stroke: #ff0000"/>
     <use xlink:href="#me843abe279" x="257.863795" y="198.81617" style="fill: #ff0000; stroke: #ff0000"/>
     <use xlink:href="#me843abe279" x="262.108389" y="198.106133" style="fill: #ff0000; stroke: #ff0000"/>
     <use xlink:href="#me843abe279" x="266.386129" y="197.357558" style="fill: #ff0000; stroke: #ff0000"/>
     <use xlink:href="#me843abe279" x="270.698018" y="196.569297" style="fill: #ff0000; stroke: #ff0000"/>
     <use xlink:href="#me843abe279" x="275.045396" y="195.73691" style="fill: #ff0000; stroke: #ff0000"/>
     <use xlink:href="#me843abe279" x="279.430272" y="194.860682" style="fill: #ff0000; stroke: #ff0000"/>
     <use xlink:href="#me843abe279" x="283.849632" y="193.937606" style="fill: #ff0000; stroke: #ff0000"/>
     <use xlink:href="#me843abe279" x="288.305485" y="192.963527" style="fill: #ff0000; stroke: #ff0000"/>
     <use xlink:href="#me843abe279" x="292.798836" y="191.937584" style="fill: #ff0000; stroke: #ff0000"/>
     <use xlink:href="#me843abe279" x="297.330019" y="190.854048" style="fill: #ff0000; stroke: #ff0000"/>
     <use xlink:href="#me843abe279" x="301.901378" y="189.711342" style="fill: #ff0000; stroke: #ff0000"/>
     <use xlink:href="#me843abe279" x="306.511909" y="188.506315" style="fill: #ff0000; stroke: #ff0000"/>
     <use xlink:href="#me843abe279" x="311.161946" y="187.234094" style="fill: #ff0000; stroke: #ff0000"/>
     <use xlink:href="#me843abe279" x="315.85149" y="185.89067" style="fill: #ff0000; stroke: #ff0000"/>
     <use xlink:href="#me843abe279" x="320.584557" y="184.468448" style="fill: #ff0000; stroke: #ff0000"/>
     <use xlink:href="#me843abe279" x="325.35914" y="182.964277" style="fill: #ff0000; stroke: #ff0000"/>
     <use xlink:href="#me843abe279" x="330.174903" y="181.368844" style="fill: #ff0000; stroke: #ff0000"/>
     <use xlink:href="#me843abe279" x="335.033521" y="179.670974" style="fill: #ff0000; stroke: #ff0000"/>
     <use xlink:href="#me843abe279" x="339.926288" y="177.858204" style="fill: #ff0000; stroke: #ff0000"/>
     <use xlink:href="#me843abe279" x="344.839813" y="175.919644" style="fill: #ff0000; stroke: #ff0000"/>
     <use xlink:href="#me843abe279" x="349.720192" y="173.846125" style="fill: #ff0000; stroke: #ff0000"/>
     <use xlink:href="#me843abe279" x="354.430159" y="171.670743" style="fill: #ff0000; stroke: #ff0000"/>
     <use xlink:href="#me843abe279" x="358.732339" y="169.457109" style="fill: #ff0000; stroke: #ff0000"/>
     <use xlink:href="#me843abe279" x="362.418152" y="167.311097" style="fill: #ff0000; stroke: #ff0000"/>
     <use xlink:href="#me843abe279" x="365.469854" y="165.21179" style="fill: #ff0000; stroke: #ff0000"/>
     <use xlink:href="#me843abe279" x="367.993911" y="163.200736" style="fill: #ff0000; stroke: #ff0000"/>
     <use xlink:href="#me843abe279" x="370.115204" y="160.982517" style="fill: #ff0000; stroke: #ff0000"/>
     <use xlink:href="#me843abe279" x="371.932833" y="158.711002" style="fill: #ff0000; stroke: #ff0000"/>
     <use xlink:href="#me843abe279" x="373.521459" y="154.830157" style="fill: #ff0000; stroke: #ff0000"/>
     <use xlink:href="#me843abe279" x="374.950386" y="148.584817" style="fill: #ff0000; stroke: #ff0000"/>
     <use xlink:href="#me843abe279" x="40.150386" y="217.998042" style="fill: #ff0000; stroke: #ff0000"/>
     <use xlink:href="#me843abe279" x="41.015844" y="217.475973" style="fill: #ff0000; stroke: #ff0000"/>
     <use xlink:href="#me843abe279" x="42.029283" y="214.863051" style="fill: #ff0000; stroke: #ff0000"/>
     <use xlink:href="#me843abe279" x="43.275074" y="211.576768" style="fill: #ff0000; stroke: #ff0000"/>
     <use xlink:href="#me843abe279" x="44.717392" y="208.451805" style="fill: #ff0000; stroke: #ff0000"/>
     <use xlink:href="#me843abe279" x="46.300996" y="206.140605" style="fill: #ff0000; stroke: #ff0000"/>
     <use xlink:href="#me843abe279" x="48.01986" y="204.511791" style="fill: #ff0000; stroke: #ff0000"/>
     <use xlink:href="#me843abe279" x="49.895074" y="203.272952" style="fill: #ff0000; stroke: #ff0000"/>
     <use xlink:href="#me843abe279" x="51.955768" y="202.232969" style="fill: #ff0000; stroke: #ff0000"/>
     <use xlink:href="#me843abe279" x="54.228391" y="201.278374" style="fill: #ff0000; stroke: #ff0000"/>
     <use xlink:href="#me843abe279" x="56.728677" y="200.374783" style="fill: #ff0000; stroke: #ff0000"/>
     <use xlink:href="#me843abe279" x="59.450936" y="199.467896" style="fill: #ff0000; stroke: #ff0000"/>
     <use xlink:href="#me843abe279" x="62.366709" y="198.46373" style="fill: #ff0000; stroke: #ff0000"/>
     <use xlink:href="#me843abe279" x="65.430129" y="197.414722" style="fill: #ff0000; stroke: #ff0000"/>
     <use xlink:href="#me843abe279" x="68.590976" y="196.34322" style="fill: #ff0000; stroke: #ff0000"/>
     <use xlink:href="#me843abe279" x="71.807734" y="195.241632" style="fill: #ff0000; stroke: #ff0000"/>
     <use xlink:href="#me843abe279" x="75.049603" y="194.110674" style="fill: #ff0000; stroke: #ff0000"/>
     <use xlink:href="#me843abe279" x="78.295824" y="192.95536" style="fill: #ff0000; stroke: #ff0000"/>
     <use xlink:href="#me843abe279" x="81.534344" y="191.776981" style="fill: #ff0000; stroke: #ff0000"/>
     <use xlink:href="#me843abe279" x="84.75579" y="190.571523" style="fill: #ff0000; stroke: #ff0000"/>
     <use xlink:href="#me843abe279" x="87.955473" y="189.336983" style="fill: #ff0000; stroke: #ff0000"/>
     <use xlink:href="#me843abe279" x="91.129377" y="188.073645" style="fill: #ff0000; stroke: #ff0000"/>
     <use xlink:href="#me843abe279" x="94.275493" y="186.78237" style="fill: #ff0000; stroke: #ff0000"/>
     <use xlink:href="#me843abe279" x="97.391811" y="185.454275" style="fill: #ff0000; stroke: #ff0000"/>
     <use xlink:href="#me843abe279" x="100.477663" y="184.09151" style="fill: #ff0000; stroke: #ff0000"/>
     <use xlink:href="#me843abe279" x="103.531374" y="182.692354" style="fill: #ff0000; stroke: #ff0000"/>
     <use xlink:href="#me843abe279" x="106.553278" y="181.253943" style="fill: #ff0000; stroke: #ff0000"/>
     <use xlink:href="#me843abe279" x="109.543377" y="179.778425" style="fill: #ff0000; stroke: #ff0000"/>
     <use xlink:href="#me843abe279" x="112.50167" y="178.266374" style="fill: #ff0000; stroke: #ff0000"/>
     <use xlink:href="#me843abe279" x="115.429161" y="176.722518" style="fill: #ff0000; stroke: #ff0000"/>
     <use xlink:href="#me843abe279" x="118.32786" y="175.151154" style="fill: #ff0000; stroke: #ff0000"/>
     <use xlink:href="#me843abe279" x="121.199774" y="173.560019" style="fill: #ff0000; stroke: #ff0000"/>
     <use xlink:href="#me843abe279" x="124.047583" y="171.958425" style="fill: #ff0000; stroke: #ff0000"/>
     <use xlink:href="#me843abe279" x="126.875638" y="170.356975" style="fill: #ff0000; stroke: #ff0000"/>
     <use xlink:href="#me843abe279" x="129.687289" y="168.765984" style="fill: #ff0000; stroke: #ff0000"/>
     <use xlink:href="#me843abe279" x="132.487891" y="167.201926" style="fill: #ff0000; stroke: #ff0000"/>
     <use xlink:href="#me843abe279" x="135.282801" y="165.678557" style="fill: #ff0000; stroke: #ff0000"/>
     <use xlink:href="#me843abe279" x="138.078381" y="164.203326" style="fill: #ff0000; stroke: #ff0000"/>
     <use xlink:href="#me843abe279" x="140.881327" y="162.791706" style="fill: #ff0000; stroke: #ff0000"/>
     <use xlink:href="#me843abe279" x="143.698334" y="161.449571" style="fill: #ff0000; stroke: #ff0000"/>
     <use xlink:href="#me843abe279" x="146.537103" y="160.181362" style="fill: #ff0000; stroke: #ff0000"/>
     <use xlink:href="#me843abe279" x="149.405" y="158.991091" style="fill: #ff0000; stroke: #ff0000"/>
     <use xlink:href="#me843abe279" x="152.31006" y="157.876752" style="fill: #ff0000; stroke: #ff0000"/>
     <use xlink:href="#me843abe279" x="155.260317" y="156.833904" style="fill: #ff0000; stroke: #ff0000"/>
     <use xlink:href="#me843abe279" x="158.264478" y="155.851659" style="fill: #ff0000; stroke: #ff0000"/>
     <use xlink:href="#me843abe279" x="161.329906" y="154.924571" style="fill: #ff0000; stroke: #ff0000"/>
     <use xlink:href="#me843abe279" x="164.464974" y="154.037455" style="fill: #ff0000; stroke: #ff0000"/>
     <use xlink:href="#me843abe279" x="167.67671" y="153.178277" style="fill: #ff0000; stroke: #ff0000"/>
     <use xlink:href="#me843abe279" x="170.972146" y="152.34417" style="fill: #ff0000; stroke: #ff0000"/>
     <use xlink:href="#me843abe279" x="174.359653" y="151.524104" style="fill: #ff0000; stroke: #ff0000"/>
     <use xlink:href="#me843abe279" x="177.844251" y="150.709625" style="fill: #ff0000; stroke: #ff0000"/>
     <use xlink:href="#me843abe279" x="181.431298" y="149.900447" style="fill: #ff0000; stroke: #ff0000"/>
     <use xlink:href="#me843abe279" x="185.126486" y="149.107029" style="fill: #ff0000; stroke: #ff0000"/>
     <use xlink:href="#me843abe279" x="188.934501" y="148.325358" style="fill: #ff0000; stroke: #ff0000"/>
     <use xlink:href="#me843abe279" x="192.858022" y="147.563316" style="fill: #ff0000; stroke: #ff0000"/>
     <use xlink:href="#me843abe279" x="196.900398" y="146.84368" style="fill: #ff0000; stroke: #ff0000"/>
     <use xlink:href="#me843abe279" x="201.065644" y="146.170034" style="fill: #ff0000; stroke: #ff0000"/>
     <use xlink:href="#me843abe279" x="205.355437" y="145.547821" style="fill: #ff0000; stroke: #ff0000"/>
     <use xlink:href="#me843abe279" x="209.770779" y="144.990508" style="fill: #ff0000; stroke: #ff0000"/>
     <use xlink:href="#me843abe279" x="214.31368" y="144.499815" style="fill: #ff0000; stroke: #ff0000"/>
     <use xlink:href="#me843abe279" x="218.985145" y="144.070441" style="fill: #ff0000; stroke: #ff0000"/>
     <use xlink:href="#me843abe279" x="223.786512" y="143.693359" style="fill: #ff0000; stroke: #ff0000"/>
     <use xlink:href="#me843abe279" x="228.715102" y="143.362267" style="fill: #ff0000; stroke: #ff0000"/>
     <use xlink:href="#me843abe279" x="233.775604" y="143.063696" style="fill: #ff0000; stroke: #ff0000"/>
     <use xlink:href="#me843abe279" x="238.96467" y="142.784753" style="fill: #ff0000; stroke: #ff0000"/>
     <use xlink:href="#me843abe279" x="244.278615" y="142.523289" style="fill: #ff0000; stroke: #ff0000"/>
     <use xlink:href="#me843abe279" x="249.71878" y="142.288043" style="fill: #ff0000; stroke: #ff0000"/>
     <use xlink:href="#me843abe279" x="255.282152" y="142.086321" style="fill: #ff0000; stroke: #ff0000"/>
     <use xlink:href="#me843abe279" x="260.966386" y="141.9293" style="fill: #ff0000; stroke: #ff0000"/>
     <use xlink:href="#me843abe279" x="266.765457" y="141.841763" style="fill: #ff0000; stroke: #ff0000"/>
     <use xlink:href="#me843abe279" x="272.678695" y="141.823854" style="fill: #ff0000; stroke: #ff0000"/>
     <use xlink:href="#me843abe279" x="278.703086" y="141.879156" style="fill: #ff0000; stroke: #ff0000"/>
     <use xlink:href="#me843abe279" x="284.829591" y="142.002223" style="fill: #ff0000; stroke: #ff0000"/>
     <use xlink:href="#me843abe279" x="291.060219" y="142.182168" style="fill: #ff0000; stroke: #ff0000"/>
     <use xlink:href="#me843abe279" x="297.390952" y="142.412543" style="fill: #ff0000; stroke: #ff0000"/>
     <use xlink:href="#me843abe279" x="303.810073" y="142.699795" style="fill: #ff0000; stroke: #ff0000"/>
     <use xlink:href="#me843abe279" x="310.325281" y="143.04808" style="fill: #ff0000; stroke: #ff0000"/>
     <use xlink:href="#me843abe279" x="316.923854" y="143.463987" style="fill: #ff0000; stroke: #ff0000"/>
     <use xlink:href="#me843abe279" x="323.606797" y="143.941929" style="fill: #ff0000; stroke: #ff0000"/>
     <use xlink:href="#me843abe279" x="330.370761" y="144.495947" style="fill: #ff0000; stroke: #ff0000"/>
     <use xlink:href="#me843abe279" x="337.209051" y="145.120452" style="fill: #ff0000; stroke: #ff0000"/>
     <use xlink:href="#me843abe279" x="344.102583" y="145.833497" style="fill: #ff0000; stroke: #ff0000"/>
     <use xlink:href="#me843abe279" x="350.961631" y="146.611443" style="fill: #ff0000; stroke: #ff0000"/>
     <use xlink:href="#me843abe279" x="357.413562" y="147.415033" style="fill: #ff0000; stroke: #ff0000"/>
     <use xlink:href="#me843abe279" x="362.691349" y="148.08825" style="fill: #ff0000; stroke: #ff0000"/>
     <use xlink:href="#me843abe279" x="366.55695" y="148.589545" style="fill: #ff0000; stroke: #ff0000"/>
     <use xlink:href="#me843abe279" x="369.408776" y="148.853444" style="fill: #ff0000; stroke: #ff0000"/>
     <use xlink:href="#me843abe279" x="371.617117" y="149.005165" style="fill: #ff0000; stroke: #ff0000"/>
     <use xlink:href="#me843abe279" x="373.412314" y="148.845565" style="fill: #ff0000; stroke: #ff0000"/>
     <use xlink:href="#me843abe279" x="374.950386" y="148.584817" style="fill: #ff0000; stroke: #ff0000"/>
    </g>
   </g>
   <g id="matplotlib.axis_1">
    <g id="xtick_1">
     <g id="line2d_1">
      <defs>
       <path id="mb43d894155" d="M 0 0 
L 0 3.5 
" style="stroke: #000000; stroke-width: 0.8"/>
      </defs>
      <g>
       <use xlink:href="#mb43d894155" x="40.150386" y="228.96" style="stroke: #000000; stroke-width: 0.8"/>
      </g>
     </g>
     <g id="text_1">
      <!-- $\mathdefault{0.0}$ -->
      <g transform="translate(33.785346 243.05832) scale(0.1 -0.1)">
       <defs>
        <path id="CMR17-30" d="M 2688 2038 
C 2688 2430 2682 3099 2413 3613 
C 2176 4063 1798 4224 1466 4224 
C 1158 4224 768 4082 525 3620 
C 269 3137 243 2539 243 2038 
C 243 1671 250 1112 448 623 
C 723 -39 1216 -128 1466 -128 
C 1760 -128 2208 -7 2470 604 
C 2662 1048 2688 1568 2688 2038 
z
M 1466 -26 
C 1056 -26 813 328 723 816 
C 653 1196 653 1749 653 2109 
C 653 2604 653 3015 736 3407 
C 858 3954 1216 4121 1466 4121 
C 1728 4121 2067 3947 2189 3420 
C 2272 3054 2278 2623 2278 2109 
C 2278 1691 2278 1176 2202 797 
C 2067 96 1690 -26 1466 -26 
z
" transform="scale(0.015625)"/>
        <path id="CMMI12-3a" d="M 1178 307 
C 1178 492 1024 620 870 620 
C 685 620 557 467 557 313 
C 557 128 710 0 864 0 
C 1050 0 1178 153 1178 307 
z
" transform="scale(0.015625)"/>
       </defs>
       <use xlink:href="#CMR17-30" transform="scale(0.996264)"/>
       <use xlink:href="#CMMI12-3a" transform="translate(45.690477 0) scale(0.996264)"/>
       <use xlink:href="#CMR17-30" transform="translate(72.787654 0) scale(0.996264)"/>
      </g>
     </g>
    </g>
    <g id="xtick_2">
     <g id="line2d_2">
      <g>
       <use xlink:href="#mb43d894155" x="107.110386" y="228.96" style="stroke: #000000; stroke-width: 0.8"/>
      </g>
     </g>
     <g id="text_2">
      <!-- $\mathdefault{0.2}$ -->
      <g transform="translate(100.745346 243.05832) scale(0.1 -0.1)">
       <defs>
        <path id="CMR17-32" d="M 2669 990 
L 2554 990 
C 2490 537 2438 460 2413 422 
C 2381 371 1920 371 1830 371 
L 602 371 
C 832 620 1280 1073 1824 1596 
C 2214 1966 2669 2400 2669 3033 
C 2669 3788 2067 4224 1395 4224 
C 691 4224 262 3603 262 3027 
C 262 2777 448 2745 525 2745 
C 589 2745 781 2783 781 3007 
C 781 3206 614 3264 525 3264 
C 486 3264 448 3257 422 3244 
C 544 3788 915 4057 1306 4057 
C 1862 4057 2227 3616 2227 3033 
C 2227 2477 1901 1998 1536 1583 
L 262 147 
L 262 0 
L 2515 0 
L 2669 990 
z
" transform="scale(0.015625)"/>
       </defs>
       <use xlink:href="#CMR17-30" transform="scale(0.996264)"/>
       <use xlink:href="#CMMI12-3a" transform="translate(45.690477 0) scale(0.996264)"/>
       <use xlink:href="#CMR17-32" transform="translate(72.787654 0) scale(0.996264)"/>
      </g>
     </g>
    </g>
    <g id="xtick_3">
     <g id="line2d_3">
      <g>
       <use xlink:href="#mb43d894155" x="174.070386" y="228.96" style="stroke: #000000; stroke-width: 0.8"/>
      </g>
     </g>
     <g id="text_3">
      <!-- $\mathdefault{0.4}$ -->
      <g transform="translate(167.705346 243.05832) scale(0.1 -0.1)">
       <defs>
        <path id="CMR17-34" d="M 2150 4147 
C 2150 4281 2144 4288 2029 4288 
L 128 1254 
L 128 1088 
L 1779 1088 
L 1779 460 
C 1779 230 1766 166 1318 166 
L 1197 166 
L 1197 0 
C 1402 12 1747 12 1965 12 
C 2182 12 2528 12 2733 0 
L 2733 166 
L 2611 166 
C 2163 166 2150 230 2150 460 
L 2150 1088 
L 2803 1088 
L 2803 1254 
L 2150 1254 
L 2150 4147 
z
M 1798 3723 
L 1798 1254 
L 256 1254 
L 1798 3723 
z
" transform="scale(0.015625)"/>
       </defs>
       <use xlink:href="#CMR17-30" transform="scale(0.996264)"/>
       <use xlink:href="#CMMI12-3a" transform="translate(45.690477 0) scale(0.996264)"/>
       <use xlink:href="#CMR17-34" transform="translate(72.787654 0) scale(0.996264)"/>
      </g>
     </g>
    </g>
    <g id="xtick_4">
     <g id="line2d_4">
      <g>
       <use xlink:href="#mb43d894155" x="241.030386" y="228.96" style="stroke: #000000; stroke-width: 0.8"/>
      </g>
     </g>
     <g id="text_4">
      <!-- $\mathdefault{0.6}$ -->
      <g transform="translate(234.665346 243.05832) scale(0.1 -0.1)">
       <defs>
        <path id="CMR17-36" d="M 678 2198 
C 678 3712 1395 4076 1811 4076 
C 1946 4076 2272 4049 2400 3782 
C 2298 3782 2106 3782 2106 3558 
C 2106 3385 2246 3328 2336 3328 
C 2394 3328 2566 3353 2566 3571 
C 2566 3987 2246 4224 1805 4224 
C 1043 4224 243 3411 243 2011 
C 243 257 966 -128 1478 -128 
C 2099 -128 2688 431 2688 1295 
C 2688 2101 2170 2688 1517 2688 
C 1126 2688 838 2430 678 1979 
L 678 2198 
z
M 1478 25 
C 691 25 691 1212 691 1450 
C 691 1914 909 2585 1504 2585 
C 1613 2585 1926 2585 2138 2140 
C 2253 1889 2253 1624 2253 1302 
C 2253 954 2253 696 2118 438 
C 1978 173 1773 25 1478 25 
z
" transform="scale(0.015625)"/>
       </defs>
       <use xlink:href="#CMR17-30" transform="scale(0.996264)"/>
       <use xlink:href="#CMMI12-3a" transform="translate(45.690477 0) scale(0.996264)"/>
       <use xlink:href="#CMR17-36" transform="translate(72.787654 0) scale(0.996264)"/>
      </g>
     </g>
    </g>
    <g id="xtick_5">
     <g id="line2d_5">
      <g>
       <use xlink:href="#mb43d894155" x="307.990386" y="228.96" style="stroke: #000000; stroke-width: 0.8"/>
      </g>
     </g>
     <g id="text_5">
      <!-- $\mathdefault{0.8}$ -->
      <g transform="translate(301.625346 243.05832) scale(0.1 -0.1)">
       <defs>
        <path id="CMR17-38" d="M 1741 2289 
C 2144 2494 2554 2803 2554 3298 
C 2554 3884 1990 4224 1472 4224 
C 890 4224 378 3800 378 3215 
C 378 3054 416 2777 666 2533 
C 730 2469 998 2276 1171 2154 
C 883 2006 211 1652 211 945 
C 211 282 838 -128 1459 -128 
C 2144 -128 2720 366 2720 1022 
C 2720 1607 2330 1877 2074 2051 
L 1741 2289 
z
M 902 2855 
C 851 2887 595 3086 595 3388 
C 595 3781 998 4076 1459 4076 
C 1965 4076 2336 3716 2336 3298 
C 2336 2700 1670 2359 1638 2359 
C 1632 2359 1626 2359 1574 2398 
L 902 2855 
z
M 2080 1536 
C 2176 1466 2483 1253 2483 861 
C 2483 385 2010 25 1472 25 
C 890 25 448 443 448 951 
C 448 1459 838 1884 1280 2083 
L 2080 1536 
z
" transform="scale(0.015625)"/>
       </defs>
       <use xlink:href="#CMR17-30" transform="scale(0.996264)"/>
       <use xlink:href="#CMMI12-3a" transform="translate(45.690477 0) scale(0.996264)"/>
       <use xlink:href="#CMR17-38" transform="translate(72.787654 0) scale(0.996264)"/>
      </g>
     </g>
    </g>
    <g id="xtick_6">
     <g id="line2d_6">
      <g>
       <use xlink:href="#mb43d894155" x="374.950386" y="228.96" style="stroke: #000000; stroke-width: 0.8"/>
      </g>
     </g>
     <g id="text_6">
      <!-- $\mathdefault{1.0}$ -->
      <g transform="translate(368.585346 243.05832) scale(0.1 -0.1)">
       <defs>
        <path id="CMR17-31" d="M 1702 4083 
C 1702 4217 1696 4224 1606 4224 
C 1357 3927 979 3833 621 3820 
C 602 3820 570 3820 563 3808 
C 557 3795 557 3782 557 3648 
C 755 3648 1088 3686 1344 3839 
L 1344 467 
C 1344 243 1331 166 781 166 
L 589 166 
L 589 0 
C 896 6 1216 12 1523 12 
C 1830 12 2150 6 2458 0 
L 2458 166 
L 2266 166 
C 1715 166 1702 236 1702 467 
L 1702 4083 
z
" transform="scale(0.015625)"/>
       </defs>
       <use xlink:href="#CMR17-31" transform="scale(0.996264)"/>
       <use xlink:href="#CMMI12-3a" transform="translate(45.690477 0) scale(0.996264)"/>
       <use xlink:href="#CMR17-30" transform="translate(72.787654 0) scale(0.996264)"/>
      </g>
     </g>
    </g>
    <g id="text_7">
     <!-- S/S_{total} -->
     <g transform="translate(188.312842 256.278627) scale(0.1 -0.1)">
      <defs>
       <path id="NimbusSanL-Regu-53" d="M 3814 3295 
C 3808 4204 3181 4736 2106 4736 
C 1082 4736 448 4211 448 3372 
C 448 2806 749 2450 1363 2291 
L 2522 1986 
C 3110 1833 3379 1598 3379 1236 
C 3379 988 3245 733 3046 593 
C 2861 466 2566 396 2189 396 
C 1683 396 1338 517 1114 784 
C 941 988 864 1210 870 1496 
L 307 1496 
C 314 1070 397 790 582 536 
C 902 102 1440 -128 2150 -128 
C 2707 -128 3162 0 3462 230 
C 3776 479 3974 892 3974 1293 
C 3974 1865 3616 2284 2982 2456 
L 1811 2768 
C 1248 2920 1043 3098 1043 3454 
C 1043 3925 1459 4236 2086 4236 
C 2829 4236 3245 3899 3251 3295 
L 3814 3295 
z
" transform="scale(0.015625)"/>
       <path id="NimbusSanL-Regu-2f" d="M 1466 4672 
L -51 -128 
L 301 -128 
L 1818 4672 
L 1466 4672 
z
" transform="scale(0.015625)"/>
       <path id="NimbusSanL-Regu-74" d="M 1626 3328 
L 1075 3328 
L 1075 4249 
L 544 4249 
L 544 3328 
L 90 3328 
L 90 2892 
L 544 2892 
L 544 402 
C 544 64 774 -128 1190 -128 
C 1318 -128 1446 -116 1626 -84 
L 1626 364 
C 1555 345 1472 339 1370 339 
C 1139 339 1075 402 1075 634 
L 1075 2892 
L 1626 2892 
L 1626 3328 
z
" transform="scale(0.015625)"/>
       <path id="NimbusSanL-Regu-6f" d="M 1741 3456 
C 800 3456 230 2784 230 1663 
C 230 543 794 -128 1747 -128 
C 2688 -128 3264 543 3264 1638 
C 3264 2791 2707 3456 1741 3456 
z
M 1747 2963 
C 2349 2963 2707 2472 2707 1644 
C 2707 861 2336 364 1747 364 
C 1152 364 787 855 787 1663 
C 787 2466 1152 2963 1747 2963 
z
" transform="scale(0.015625)"/>
       <path id="NimbusSanL-Regu-61" d="M 3424 332 
C 3366 320 3341 320 3309 320 
C 3123 320 3021 415 3021 581 
L 3021 2542 
C 3021 3135 2586 3456 1760 3456 
C 1274 3456 870 3315 646 3065 
C 493 2893 429 2702 416 2370 
L 954 2370 
C 998 2778 1242 2963 1741 2963 
C 2221 2963 2490 2784 2490 2466 
L 2490 2326 
C 2490 2103 2355 2007 1933 1956 
C 1178 1861 1062 1835 858 1753 
C 467 1593 269 1294 269 861 
C 269 256 691 -128 1370 -128 
C 1792 -128 2131 19 2509 364 
C 2547 25 2714 -128 3059 -128 
C 3168 -128 3251 -116 3424 -71 
L 3424 332 
z
M 2490 1071 
C 2490 893 2438 785 2278 638 
C 2061 441 1798 339 1485 339 
C 1069 339 826 536 826 874 
C 826 1224 1062 1402 1632 1485 
C 2195 1562 2310 1587 2490 1670 
L 2490 1071 
z
" transform="scale(0.015625)"/>
       <path id="NimbusSanL-Regu-6c" d="M 973 4672 
L 435 4672 
L 435 0 
L 973 0 
L 973 4672 
z
" transform="scale(0.015625)"/>
      </defs>
      <use xlink:href="#NimbusSanL-Regu-53" transform="scale(0.996264)"/>
      <use xlink:href="#NimbusSanL-Regu-2f" transform="translate(66.450031 0) scale(0.996264)"/>
      <use xlink:href="#NimbusSanL-Regu-53" transform="translate(94.145201 0) scale(0.996264)"/>
      <use xlink:href="#NimbusSanL-Regu-74" transform="translate(196.460797 0) scale(0.996264)"/>
      <use xlink:href="#NimbusSanL-Regu-6f" transform="translate(224.155967 0) scale(0.996264)"/>
      <use xlink:href="#NimbusSanL-Regu-74" transform="translate(279.547644 0) scale(0.996264)"/>
      <use xlink:href="#NimbusSanL-Regu-61" transform="translate(307.242813 0) scale(0.996264)"/>
      <use xlink:href="#NimbusSanL-Regu-6c" transform="translate(362.63449 0) scale(0.996264)"/>
      <path d="M 166.572573 0 
L 196.460797 0 
L 196.460797 0.3985 
L 166.572573 0.3985 
L 166.572573 0 
z
"/>
     </g>
    </g>
   </g>
   <g id="matplotlib.axis_2">
    <g id="ytick_1">
     <g id="line2d_7">
      <defs>
       <path id="m2cbc666576" d="M 0 0 
L -3.5 0 
" style="stroke: #000000; stroke-width: 0.8"/>
      </defs>
      <g>
       <use xlink:href="#m2cbc666576" x="40.150386" y="221.898944" style="stroke: #000000; stroke-width: 0.8"/>
      </g>
     </g>
     <g id="text_8">
      <!-- $\mathdefault{0.0}$ -->
      <g transform="translate(20.420307 225.448104) scale(0.1 -0.1)">
       <use xlink:href="#CMR17-30" transform="scale(0.996264)"/>
       <use xlink:href="#CMMI12-3a" transform="translate(45.690477 0) scale(0.996264)"/>
       <use xlink:href="#CMR17-30" transform="translate(72.787654 0) scale(0.996264)"/>
      </g>
     </g>
    </g>
    <g id="ytick_2">
     <g id="line2d_8">
      <g>
       <use xlink:href="#m2cbc666576" x="40.150386" y="193.245335" style="stroke: #000000; stroke-width: 0.8"/>
      </g>
     </g>
     <g id="text_9">
      <!-- $\mathdefault{0.2}$ -->
      <g transform="translate(20.420307 196.794495) scale(0.1 -0.1)">
       <use xlink:href="#CMR17-30" transform="scale(0.996264)"/>
       <use xlink:href="#CMMI12-3a" transform="translate(45.690477 0) scale(0.996264)"/>
       <use xlink:href="#CMR17-32" transform="translate(72.787654 0) scale(0.996264)"/>
      </g>
     </g>
    </g>
    <g id="ytick_3">
     <g id="line2d_9">
      <g>
       <use xlink:href="#m2cbc666576" x="40.150386" y="164.591726" style="stroke: #000000; stroke-width: 0.8"/>
      </g>
     </g>
     <g id="text_10">
      <!-- $\mathdefault{0.4}$ -->
      <g transform="translate(20.420307 168.140886) scale(0.1 -0.1)">
       <use xlink:href="#CMR17-30" transform="scale(0.996264)"/>
       <use xlink:href="#CMMI12-3a" transform="translate(45.690477 0) scale(0.996264)"/>
       <use xlink:href="#CMR17-34" transform="translate(72.787654 0) scale(0.996264)"/>
      </g>
     </g>
    </g>
    <g id="ytick_4">
     <g id="line2d_10">
      <g>
       <use xlink:href="#m2cbc666576" x="40.150386" y="135.938117" style="stroke: #000000; stroke-width: 0.8"/>
      </g>
     </g>
     <g id="text_11">
      <!-- $\mathdefault{0.6}$ -->
      <g transform="translate(20.420307 139.487277) scale(0.1 -0.1)">
       <use xlink:href="#CMR17-30" transform="scale(0.996264)"/>
       <use xlink:href="#CMMI12-3a" transform="translate(45.690477 0) scale(0.996264)"/>
       <use xlink:href="#CMR17-36" transform="translate(72.787654 0) scale(0.996264)"/>
      </g>
     </g>
    </g>
    <g id="ytick_5">
     <g id="line2d_11">
      <g>
       <use xlink:href="#m2cbc666576" x="40.150386" y="107.284507" style="stroke: #000000; stroke-width: 0.8"/>
      </g>
     </g>
     <g id="text_12">
      <!-- $\mathdefault{0.8}$ -->
      <g transform="translate(20.420307 110.833667) scale(0.1 -0.1)">
       <use xlink:href="#CMR17-30" transform="scale(0.996264)"/>
       <use xlink:href="#CMMI12-3a" transform="translate(45.690477 0) scale(0.996264)"/>
       <use xlink:href="#CMR17-38" transform="translate(72.787654 0) scale(0.996264)"/>
      </g>
     </g>
    </g>
    <g id="ytick_6">
     <g id="line2d_12">
      <g>
       <use xlink:href="#m2cbc666576" x="40.150386" y="78.630898" style="stroke: #000000; stroke-width: 0.8"/>
      </g>
     </g>
     <g id="text_13">
      <!-- $\mathdefault{1.0}$ -->
      <g transform="translate(20.420307 82.180058) scale(0.1 -0.1)">
       <use xlink:href="#CMR17-31" transform="scale(0.996264)"/>
       <use xlink:href="#CMMI12-3a" transform="translate(45.690477 0) scale(0.996264)"/>
       <use xlink:href="#CMR17-30" transform="translate(72.787654 0) scale(0.996264)"/>
      </g>
     </g>
    </g>
    <g id="ytick_7">
     <g id="line2d_13">
      <g>
       <use xlink:href="#m2cbc666576" x="40.150386" y="49.977289" style="stroke: #000000; stroke-width: 0.8"/>
      </g>
     </g>
     <g id="text_14">
      <!-- $\mathdefault{1.2}$ -->
      <g transform="translate(20.420307 53.526449) scale(0.1 -0.1)">
       <use xlink:href="#CMR17-31" transform="scale(0.996264)"/>
       <use xlink:href="#CMMI12-3a" transform="translate(45.690477 0) scale(0.996264)"/>
       <use xlink:href="#CMR17-32" transform="translate(72.787654 0) scale(0.996264)"/>
      </g>
     </g>
    </g>
    <g id="ytick_8">
     <g id="line2d_14">
      <g>
       <use xlink:href="#m2cbc666576" x="40.150386" y="21.32368" style="stroke: #000000; stroke-width: 0.8"/>
      </g>
     </g>
     <g id="text_15">
      <!-- $\mathdefault{1.4}$ -->
      <g transform="translate(20.420307 24.87284) scale(0.1 -0.1)">
       <use xlink:href="#CMR17-31" transform="scale(0.996264)"/>
       <use xlink:href="#CMMI12-3a" transform="translate(45.690477 0) scale(0.996264)"/>
       <use xlink:href="#CMR17-34" transform="translate(72.787654 0) scale(0.996264)"/>
      </g>
     </g>
    </g>
    <g id="text_16">
     <!-- Mach Number - Blade_17 -->
     <g transform="translate(14.29832 173.85521) rotate(-90) scale(0.1 -0.1)">
      <defs>
       <path id="NimbusSanL-Regu-4d" d="M 2995 0 
L 4307 3915 
L 4307 0 
L 4870 0 
L 4870 4672 
L 4045 4672 
L 2688 602 
L 1306 4672 
L 480 4672 
L 480 0 
L 1043 0 
L 1043 3915 
L 2368 0 
L 2995 0 
z
" transform="scale(0.015625)"/>
       <path id="NimbusSanL-Regu-63" d="M 3014 2237 
C 2989 2561 2918 2771 2790 2956 
C 2560 3270 2157 3456 1690 3456 
C 787 3456 198 2740 198 1632 
C 198 555 774 -128 1683 -128 
C 2483 -128 2989 352 3053 1167 
L 2515 1167 
C 2426 632 2150 364 1696 364 
C 1107 364 755 842 755 1632 
C 755 2466 1101 2963 1683 2963 
C 2131 2963 2413 2701 2477 2237 
L 3014 2237 
z
" transform="scale(0.015625)"/>
       <path id="NimbusSanL-Regu-68" d="M 448 4672 
L 448 0 
L 979 0 
L 979 1853 
C 979 2539 1338 2988 1888 2988 
C 2061 2988 2234 2930 2362 2834 
C 2515 2725 2579 2565 2579 2328 
L 2579 0 
L 3110 0 
L 3110 2539 
C 3110 3103 2707 3456 2054 3456 
C 1581 3456 1293 3308 979 2898 
L 979 4672 
L 448 4672 
z
" transform="scale(0.015625)"/>
       <path id="NimbusSanL-Regu-4e" d="M 4134 4672 
L 3571 4672 
L 3571 852 
L 1133 4672 
L 486 4672 
L 486 0 
L 1050 0 
L 1050 3787 
L 3462 0 
L 4134 0 
L 4134 4672 
z
" transform="scale(0.015625)"/>
       <path id="NimbusSanL-Regu-75" d="M 3085 19 
L 3085 3328 
L 2554 3328 
L 2554 1454 
C 2554 780 2195 339 1638 339 
C 1216 339 947 591 947 988 
L 947 3328 
L 416 3328 
L 416 780 
C 416 230 832 -128 1485 -128 
C 1978 -128 2291 44 2605 484 
L 2605 19 
L 3085 19 
z
" transform="scale(0.015625)"/>
       <path id="NimbusSanL-Regu-6d" d="M 448 3328 
L 448 0 
L 986 0 
L 986 2089 
C 986 2597 1338 2988 1773 2988 
C 2170 2988 2394 2744 2394 2315 
L 2394 0 
L 2931 0 
L 2931 2109 
C 2931 2597 3283 2988 3718 2988 
C 4109 2988 4339 2738 4339 2315 
L 4339 0 
L 4877 0 
L 4877 2520 
C 4877 3123 4531 3456 3904 3456 
C 3456 3456 3187 3321 2874 2943 
C 2675 3302 2406 3456 1971 3456 
C 1523 3456 1229 3289 941 2886 
L 941 3328 
L 448 3328 
z
" transform="scale(0.015625)"/>
       <path id="NimbusSanL-Regu-62" d="M 346 4672 
L 346 19 
L 826 19 
L 826 447 
C 1082 57 1421 -128 1888 -128 
C 2771 -128 3347 594 3347 1702 
C 3347 2784 2797 3456 1914 3456 
C 1453 3456 1126 3283 877 2905 
L 877 4672 
L 346 4672 
z
M 1811 2956 
C 2406 2956 2790 2440 2790 1644 
C 2790 887 2394 371 1811 371 
C 1248 371 877 880 877 1663 
C 877 2447 1248 2956 1811 2956 
z
" transform="scale(0.015625)"/>
       <path id="NimbusSanL-Regu-65" d="M 3283 1484 
C 3283 1998 3245 2311 3149 2565 
C 2931 3123 2419 3456 1792 3456 
C 858 3456 256 2734 256 1619 
C 256 545 838 -128 1779 -128 
C 2547 -128 3078 307 3213 1018 
L 2675 1018 
C 2528 588 2227 364 1798 364 
C 1459 364 1171 514 992 787 
C 864 974 819 1161 813 1484 
L 3283 1484 
z
M 826 1920 
C 870 2552 1248 2963 1786 2963 
C 2310 2963 2714 2519 2714 1959 
C 2714 1946 2714 1933 2707 1920 
L 826 1920 
z
" transform="scale(0.015625)"/>
       <path id="NimbusSanL-Regu-72" d="M 442 3328 
L 442 0 
L 979 0 
L 979 1727 
C 979 2203 1101 2514 1357 2698 
C 1523 2819 1683 2857 2054 2863 
L 2054 3404 
C 1965 3449 1920 3456 1850 3456 
C 1504 3456 1242 3251 934 2750 
L 934 3328 
L 442 3328 
z
" transform="scale(0.015625)"/>
       <path id="NimbusSanL-Regu-2d" d="M 1818 1996 
L 294 1996 
L 294 1536 
L 1818 1536 
L 1818 1996 
z
" transform="scale(0.015625)"/>
       <path id="NimbusSanL-Regu-42" d="M 506 0 
L 2611 0 
C 3053 0 3379 121 3629 390 
C 3859 632 3987 961 3987 1321 
C 3987 1878 3731 2214 3136 2444 
C 3558 2643 3782 2994 3782 3476 
C 3782 3821 3654 4127 3411 4345 
C 3168 4569 2848 4672 2400 4672 
L 506 4672 
L 506 0 
z
M 1101 2636 
L 1101 4147 
L 2253 4147 
C 2586 4147 2771 4101 2931 3977 
C 3098 3847 3187 3652 3187 3391 
C 3187 3138 3098 2936 2931 2806 
C 2771 2682 2586 2636 2253 2636 
L 1101 2636 
z
M 1101 524 
L 1101 2112 
L 2554 2112 
C 2842 2112 3034 2042 3174 1890 
C 3315 1745 3392 1542 3392 1315 
C 3392 1093 3315 891 3174 746 
C 3034 594 2842 524 2554 524 
L 1101 524 
z
" transform="scale(0.015625)"/>
       <path id="NimbusSanL-Regu-64" d="M 3168 4672 
L 2637 4672 
L 2637 2937 
C 2413 3276 2054 3456 1606 3456 
C 736 3456 166 2759 166 1695 
C 166 568 723 -128 1626 -128 
C 2086 -128 2406 44 2694 460 
L 2694 19 
L 3168 19 
L 3168 4672 
z
M 1696 2956 
C 2272 2956 2637 2447 2637 1651 
C 2637 880 2266 371 1702 371 
C 1114 371 723 887 723 1663 
C 723 2440 1114 2956 1696 2956 
z
" transform="scale(0.015625)"/>
       <path id="NimbusSanL-Regu-31" d="M 1658 3232 
L 1658 0 
L 2221 0 
L 2221 4537 
L 1850 4537 
C 1651 3840 1523 3744 653 3635 
L 653 3232 
L 1658 3232 
z
" transform="scale(0.015625)"/>
       <path id="NimbusSanL-Regu-37" d="M 3328 4544 
L 294 4544 
L 294 3987 
L 2746 3987 
C 1664 2442 1222 1493 883 0 
L 1485 0 
C 1734 1454 2304 2704 3328 4070 
L 3328 4544 
z
" transform="scale(0.015625)"/>
      </defs>
      <use xlink:href="#NimbusSanL-Regu-4d" transform="scale(0.996264)"/>
      <use xlink:href="#NimbusSanL-Regu-61" transform="translate(82.98843 0) scale(0.996264)"/>
      <use xlink:href="#NimbusSanL-Regu-63" transform="translate(138.380107 0) scale(0.996264)"/>
      <use xlink:href="#NimbusSanL-Regu-68" transform="translate(188.193308 0) scale(0.996264)"/>
      <use xlink:href="#NimbusSanL-Regu-4e" transform="translate(271.280154 0) scale(0.996264)"/>
      <use xlink:href="#NimbusSanL-Regu-75" transform="translate(343.210139 0) scale(0.996264)"/>
      <use xlink:href="#NimbusSanL-Regu-6d" transform="translate(398.601816 0) scale(0.996264)"/>
      <use xlink:href="#NimbusSanL-Regu-62" transform="translate(481.590246 0) scale(0.996264)"/>
      <use xlink:href="#NimbusSanL-Regu-65" transform="translate(536.981923 0) scale(0.996264)"/>
      <use xlink:href="#NimbusSanL-Regu-72" transform="translate(592.3736 0) scale(0.996264)"/>
      <use xlink:href="#NimbusSanL-Regu-2d" transform="translate(653.244 0) scale(0.996264)"/>
      <use xlink:href="#NimbusSanL-Regu-42" transform="translate(714.114399 0) scale(0.996264)"/>
      <use xlink:href="#NimbusSanL-Regu-6c" transform="translate(780.56443 0) scale(0.996264)"/>
      <use xlink:href="#NimbusSanL-Regu-61" transform="translate(802.681214 0) scale(0.996264)"/>
      <use xlink:href="#NimbusSanL-Regu-64" transform="translate(858.072891 0) scale(0.996264)"/>
      <use xlink:href="#NimbusSanL-Regu-65" transform="translate(913.464568 0) scale(0.996264)"/>
      <use xlink:href="#NimbusSanL-Regu-31" transform="translate(1004.72181 0) scale(0.996264)"/>
      <use xlink:href="#NimbusSanL-Regu-37" transform="translate(1060.113487 0) scale(0.996264)"/>
      <path d="M 974.833586 0 
L 1004.72181 0 
L 1004.72181 0.3985 
L 974.833586 0.3985 
L 974.833586 0 
z
"/>
     </g>
    </g>
   </g>
   <g id="line2d_15">
    <path d="M 133.439281 202.393409 
L 135.250587 191.240514 
L 137.061893 181.879645 
L 140.68451 164.888015 
L 144.307137 149.4259 
L 147.929777 135.344502 
L 149.741103 128.950462 
L 151.552433 123.502614 
L 153.363766 119.438992 
L 155.175105 117.325647 
L 156.986445 117.467137 
L 158.797791 120.237297 
L 160.60914 126.101797 
L 162.420491 134.776708 
L 164.231847 147.173554 
L 166.043205 162.071257 
L 167.854567 181.585442 
M 368.918462 178.241416 
L 371.196093 73.23235 
L 371.665368 41.449639 
L 372.134479 17.28 
L 372.603551 28.171553 
L 373.541976 172.609948 
L 374.011373 130.910454 
L 374.480851 116.121781 
L 374.950386 127.167455 
L 374.950386 127.167455 
" clip-path="url(#p31f5669d6e)" style="fill: none; stroke: #00008b; stroke-width: 1.5; stroke-linecap: square"/>
    <defs>
     <path id="mf732bd2d17" d="M 0 0.25 
C 0.066301 0.25 0.129895 0.223658 0.176777 0.176777 
C 0.223658 0.129895 0.25 0.066301 0.25 0 
C 0.25 -0.066301 0.223658 -0.129895 0.176777 -0.176777 
C 0.129895 -0.223658 0.066301 -0.25 0 -0.25 
C -0.066301 -0.25 -0.129895 -0.223658 -0.176777 -0.176777 
C -0.223658 -0.129895 -0.25 -0.066301 -0.25 0 
C -0.25 0.066301 -0.223658 0.129895 -0.176777 0.176777 
C -0.129895 0.223658 -0.066301 0.25 0 0.25 
z
" style="stroke: #00008b"/>
    </defs>
    <g clip-path="url(#p31f5669d6e)">
     <use xlink:href="#mf732bd2d17" x="133.439281" y="202.393409" style="fill: #00008b; stroke: #00008b"/>
     <use xlink:href="#mf732bd2d17" x="135.250587" y="191.240514" style="fill: #00008b; stroke: #00008b"/>
     <use xlink:href="#mf732bd2d17" x="137.061893" y="181.879645" style="fill: #00008b; stroke: #00008b"/>
     <use xlink:href="#mf732bd2d17" x="138.873201" y="173.195967" style="fill: #00008b; stroke: #00008b"/>
     <use xlink:href="#mf732bd2d17" x="140.68451" y="164.888015" style="fill: #00008b; stroke: #00008b"/>
     <use xlink:href="#mf732bd2d17" x="142.495822" y="156.959839" style="fill: #00008b; stroke: #00008b"/>
     <use xlink:href="#mf732bd2d17" x="144.307137" y="149.4259" style="fill: #00008b; stroke: #00008b"/>
     <use xlink:href="#mf732bd2d17" x="146.118455" y="142.211898" style="fill: #00008b; stroke: #00008b"/>
     <use xlink:href="#mf732bd2d17" x="147.929777" y="135.344502" style="fill: #00008b; stroke: #00008b"/>
     <use xlink:href="#mf732bd2d17" x="149.741103" y="128.950462" style="fill: #00008b; stroke: #00008b"/>
     <use xlink:href="#mf732bd2d17" x="151.552433" y="123.502614" style="fill: #00008b; stroke: #00008b"/>
     <use xlink:href="#mf732bd2d17" x="153.363766" y="119.438992" style="fill: #00008b; stroke: #00008b"/>
     <use xlink:href="#mf732bd2d17" x="155.175105" y="117.325647" style="fill: #00008b; stroke: #00008b"/>
     <use xlink:href="#mf732bd2d17" x="156.986445" y="117.467137" style="fill: #00008b; stroke: #00008b"/>
     <use xlink:href="#mf732bd2d17" x="158.797791" y="120.237297" style="fill: #00008b; stroke: #00008b"/>
     <use xlink:href="#mf732bd2d17" x="160.60914" y="126.101797" style="fill: #00008b; stroke: #00008b"/>
     <use xlink:href="#mf732bd2d17" x="162.420491" y="134.776708" style="fill: #00008b; stroke: #00008b"/>
     <use xlink:href="#mf732bd2d17" x="164.231847" y="147.173554" style="fill: #00008b; stroke: #00008b"/>
     <use xlink:href="#mf732bd2d17" x="166.043205" y="162.071257" style="fill: #00008b; stroke: #00008b"/>
     <use xlink:href="#mf732bd2d17" x="167.854567" y="181.585442" style="fill: #00008b; stroke: #00008b"/>
     <use xlink:href="#mf732bd2d17" x="368.918462" y="178.241416" style="fill: #00008b; stroke: #00008b"/>
     <use xlink:href="#mf732bd2d17" x="371.196093" y="73.23235" style="fill: #00008b; stroke: #00008b"/>
     <use xlink:href="#mf732bd2d17" x="371.665368" y="41.449639" style="fill: #00008b; stroke: #00008b"/>
     <use xlink:href="#mf732bd2d17" x="372.134479" y="17.28" style="fill: #00008b; stroke: #00008b"/>
     <use xlink:href="#mf732bd2d17" x="372.603551" y="28.171553" style="fill: #00008b; stroke: #00008b"/>
     <use xlink:href="#mf732bd2d17" x="373.072698" y="100.5797" style="fill: #00008b; stroke: #00008b"/>
     <use xlink:href="#mf732bd2d17" x="373.541976" y="172.609948" style="fill: #00008b; stroke: #00008b"/>
     <use xlink:href="#mf732bd2d17" x="374.011373" y="130.910454" style="fill: #00008b; stroke: #00008b"/>
     <use xlink:href="#mf732bd2d17" x="374.480851" y="116.121781" style="fill: #00008b; stroke: #00008b"/>
     <use xlink:href="#mf732bd2d17" x="374.950386" y="127.167455" style="fill: #00008b; stroke: #00008b"/>
    </g>
   </g>
   <g id="line2d_16">
    <path d="M 371.193715 199.728987 
L 371.663152 195.504765 
L 372.601962 147.82563 
L 373.071492 132.934937 
L 373.541121 125.086649 
L 374.480587 114.73281 
L 374.950386 107.594755 
L 374.950386 107.594755 
" clip-path="url(#p31f5669d6e)" style="fill: none; stroke: #add8e6; stroke-width: 1.5; stroke-linecap: square"/>
    <defs>
     <path id="me020e7138d" d="M 0 0.25 
C 0.066301 0.25 0.129895 0.223658 0.176777 0.176777 
C 0.223658 0.129895 0.25 0.066301 0.25 0 
C 0.25 -0.066301 0.223658 -0.129895 0.176777 -0.176777 
C 0.129895 -0.223658 0.066301 -0.25 0 -0.25 
C -0.066301 -0.25 -0.129895 -0.223658 -0.176777 -0.176777 
C -0.223658 -0.129895 -0.25 -0.066301 -0.25 0 
C -0.25 0.066301 -0.223658 0.129895 -0.176777 0.176777 
C -0.129895 0.223658 -0.066301 0.25 0 0.25 
z
" style="stroke: #add8e6"/>
    </defs>
    <g clip-path="url(#p31f5669d6e)">
     <use xlink:href="#me020e7138d" x="371.193715" y="199.728987" style="fill: #add8e6; stroke: #add8e6"/>
     <use xlink:href="#me020e7138d" x="371.663152" y="195.504765" style="fill: #add8e6; stroke: #add8e6"/>
     <use xlink:href="#me020e7138d" x="372.132531" y="169.803232" style="fill: #add8e6; stroke: #add8e6"/>
     <use xlink:href="#me020e7138d" x="372.601962" y="147.82563" style="fill: #add8e6; stroke: #add8e6"/>
     <use xlink:href="#me020e7138d" x="373.071492" y="132.934937" style="fill: #add8e6; stroke: #add8e6"/>
     <use xlink:href="#me020e7138d" x="373.541121" y="125.086649" style="fill: #add8e6; stroke: #add8e6"/>
     <use xlink:href="#me020e7138d" x="374.010828" y="120.328296" style="fill: #add8e6; stroke: #add8e6"/>
     <use xlink:href="#me020e7138d" x="374.480587" y="114.73281" style="fill: #add8e6; stroke: #add8e6"/>
     <use xlink:href="#me020e7138d" x="374.950386" y="107.594755" style="fill: #add8e6; stroke: #add8e6"/>
    </g>
   </g>
   <g id="patch_3">
    <path d="M 40.150386 228.96 
L 40.150386 7.2 
" style="fill: none; stroke: #000000; stroke-width: 0.8; stroke-linejoin: miter; stroke-linecap: square"/>
   </g>
   <g id="patch_4">
    <path d="M 374.950386 228.96 
L 374.950386 7.2 
" style="fill: none; stroke: #000000; stroke-width: 0.8; stroke-linejoin: miter; stroke-linecap: square"/>
   </g>
   <g id="patch_5">
    <path d="M 40.150386 228.96 
L 374.950386 228.96 
" style="fill: none; stroke: #000000; stroke-width: 0.8; stroke-linejoin: miter; stroke-linecap: square"/>
   </g>
   <g id="patch_6">
    <path d="M 40.150386 7.2 
L 374.950386 7.2 
" style="fill: none; stroke: #000000; stroke-width: 0.8; stroke-linejoin: miter; stroke-linecap: square"/>
   </g>
   <g id="legend_1">
    <g id="patch_7">
     <path d="M 45.150386 58.229654 
L 130.973042 58.229654 
L 130.973042 12.2 
L 45.150386 12.2 
z
" style="fill: #ffffff; opacity: 0.8; stroke: #000000; stroke-linejoin: miter"/>
    </g>
    <g id="line2d_17">
     <path d="M 49.150386 19.982687 
L 59.150386 19.982687 
L 69.150386 19.982687 
" style="fill: none; stroke: #00008b; stroke-width: 1.5; stroke-linecap: square"/>
     <g>
      <use xlink:href="#mf732bd2d17" x="59.150386" y="19.982687" style="fill: #00008b; stroke: #00008b"/>
     </g>
    </g>
    <g id="text_17">
     <!-- SU2 (SS) -->
     <g transform="translate(77.150386 23.482687) scale(0.1 -0.1)">
      <defs>
       <path id="NimbusSanL-Regu-55" d="M 3533 4672 
L 3533 1404 
C 3533 779 3078 396 2330 396 
C 1984 396 1702 479 1478 639 
C 1248 817 1139 1053 1139 1404 
L 1139 4672 
L 544 4672 
L 544 1404 
C 544 460 1222 -128 2330 -128 
C 3424 -128 4128 473 4128 1404 
L 4128 4672 
L 3533 4672 
z
" transform="scale(0.015625)"/>
       <path id="NimbusSanL-Regu-32" d="M 3238 556 
L 851 556 
C 909 928 1114 1165 1670 1493 
L 2310 1839 
C 2944 2185 3270 2653 3270 3211 
C 3270 3589 3117 3942 2848 4185 
C 2579 4428 2246 4544 1818 4544 
C 1242 4544 813 4339 563 3955 
C 403 3711 333 3429 320 2967 
L 883 2967 
C 902 3275 941 3461 1018 3608 
C 1165 3884 1459 4051 1798 4051 
C 2310 4051 2694 3685 2694 3198 
C 2694 2839 2483 2531 2080 2300 
L 1491 1967 
C 544 1428 269 999 218 0 
L 3238 0 
L 3238 556 
z
" transform="scale(0.015625)"/>
       <path id="NimbusSanL-Regu-28" d="M 1510 4672 
C 870 3833 467 2668 467 1663 
C 467 652 870 -513 1510 -1351 
L 1862 -1351 
C 1299 -436 986 639 986 1663 
C 986 2681 1299 3763 1862 4672 
L 1510 4672 
z
" transform="scale(0.015625)"/>
       <path id="NimbusSanL-Regu-29" d="M 595 -1351 
C 1235 -513 1638 652 1638 1657 
C 1638 2668 1235 3833 595 4672 
L 243 4672 
C 806 3756 1120 2681 1120 1657 
C 1120 639 806 -442 243 -1351 
L 595 -1351 
z
" transform="scale(0.015625)"/>
      </defs>
      <use xlink:href="#NimbusSanL-Regu-53" transform="scale(0.996264)"/>
      <use xlink:href="#NimbusSanL-Regu-55" transform="translate(66.450031 0) scale(0.996264)"/>
      <use xlink:href="#NimbusSanL-Regu-32" transform="translate(138.380016 0) scale(0.996264)"/>
      <use xlink:href="#NimbusSanL-Regu-28" transform="translate(221.466863 0) scale(0.996264)"/>
      <use xlink:href="#NimbusSanL-Regu-53" transform="translate(254.642092 0) scale(0.996264)"/>
      <use xlink:href="#NimbusSanL-Regu-53" transform="translate(321.092123 0) scale(0.996264)"/>
      <use xlink:href="#NimbusSanL-Regu-29" transform="translate(387.542155 0) scale(0.996264)"/>
     </g>
    </g>
    <g id="line2d_18">
     <path d="M 49.150386 34.387361 
L 59.150386 34.387361 
L 69.150386 34.387361 
" style="fill: none; stroke: #add8e6; stroke-width: 1.5; stroke-linecap: square"/>
     <g>
      <use xlink:href="#me020e7138d" x="59.150386" y="34.387361" style="fill: #add8e6; stroke: #add8e6"/>
     </g>
    </g>
    <g id="text_18">
     <!-- SU2 (PS) -->
     <g transform="translate(77.150386 37.887361) scale(0.1 -0.1)">
      <defs>
       <path id="NimbusSanL-Regu-50" d="M 1178 1984 
L 2643 1984 
C 3008 1984 3296 2092 3546 2316 
C 3827 2572 3949 2873 3949 3302 
C 3949 4179 3430 4672 2509 4672 
L 582 4672 
L 582 0 
L 1178 0 
L 1178 1984 
z
M 1178 2508 
L 1178 4147 
L 2419 4147 
C 2989 4147 3328 3839 3328 3327 
C 3328 2816 2989 2508 2419 2508 
L 1178 2508 
z
" transform="scale(0.015625)"/>
      </defs>
      <use xlink:href="#NimbusSanL-Regu-53" transform="scale(0.996264)"/>
      <use xlink:href="#NimbusSanL-Regu-55" transform="translate(66.450031 0) scale(0.996264)"/>
      <use xlink:href="#NimbusSanL-Regu-32" transform="translate(138.380016 0) scale(0.996264)"/>
      <use xlink:href="#NimbusSanL-Regu-28" transform="translate(221.466863 0) scale(0.996264)"/>
      <use xlink:href="#NimbusSanL-Regu-50" transform="translate(254.642092 0) scale(0.996264)"/>
      <use xlink:href="#NimbusSanL-Regu-53" transform="translate(321.092123 0) scale(0.996264)"/>
      <use xlink:href="#NimbusSanL-Regu-29" transform="translate(387.542155 0) scale(0.996264)"/>
     </g>
    </g>
    <g id="PathCollection_2">
     <g>
      <use xlink:href="#me843abe279" x="59.150386" y="49.482668" style="fill: #ff0000; stroke: #ff0000"/>
     </g>
    </g>
    <g id="text_19">
     <!-- Mises Data -->
     <g transform="translate(77.150386 52.107668) scale(0.1 -0.1)">
      <defs>
       <path id="NimbusSanL-Regu-69" d="M 960 3358 
L 429 3358 
L 429 0 
L 960 0 
L 960 3358 
z
M 960 4672 
L 422 4672 
L 422 3999 
L 960 3999 
L 960 4672 
z
" transform="scale(0.015625)"/>
       <path id="NimbusSanL-Regu-73" d="M 2803 2428 
C 2797 3084 2362 3456 1587 3456 
C 806 3456 301 3052 301 2434 
C 301 1912 570 1663 1363 1472 
L 1862 1351 
C 2234 1262 2381 1129 2381 887 
C 2381 574 2067 364 1600 364 
C 1312 364 1069 447 934 587 
C 851 683 813 778 781 1014 
L 218 1014 
C 243 243 678 -128 1555 -128 
C 2400 -128 2938 288 2938 931 
C 2938 1428 2656 1702 1990 1861 
L 1478 1982 
C 1043 2084 858 2224 858 2459 
C 858 2765 1133 2963 1568 2963 
C 1997 2963 2227 2778 2240 2428 
L 2803 2428 
z
" transform="scale(0.015625)"/>
       <path id="NimbusSanL-Regu-44" d="M 570 0 
L 2368 0 
C 3546 0 4269 883 4269 2339 
C 4269 3788 3552 4672 2368 4672 
L 570 4672 
L 570 0 
z
M 1165 524 
L 1165 4147 
L 2266 4147 
C 3187 4147 3674 3525 3674 2332 
C 3674 1153 3187 524 2266 524 
L 1165 524 
z
" transform="scale(0.015625)"/>
      </defs>
      <use xlink:href="#NimbusSanL-Regu-4d" transform="scale(0.996264)"/>
      <use xlink:href="#NimbusSanL-Regu-69" transform="translate(82.98843 0) scale(0.996264)"/>
      <use xlink:href="#NimbusSanL-Regu-73" transform="translate(105.105215 0) scale(0.996264)"/>
      <use xlink:href="#NimbusSanL-Regu-65" transform="translate(154.918415 0) scale(0.996264)"/>
      <use xlink:href="#NimbusSanL-Regu-73" transform="translate(210.310092 0) scale(0.996264)"/>
      <use xlink:href="#NimbusSanL-Regu-44" transform="translate(287.818462 0) scale(0.996264)"/>
      <use xlink:href="#NimbusSanL-Regu-61" transform="translate(359.748447 0) scale(0.996264)"/>
      <use xlink:href="#NimbusSanL-Regu-74" transform="translate(415.140124 0) scale(0.996264)"/>
      <use xlink:href="#NimbusSanL-Regu-61" transform="translate(442.835294 0) scale(0.996264)"/>
     </g>
    </g>
   </g>
  </g>
 </g>
 <defs>
  <clipPath id="p31f5669d6e">
   <rect x="40.150386" y="7.2" width="334.8" height="221.76"/>
  </clipPath>
 </defs>
</svg>
