<?xml version="1.0" encoding="utf-8" standalone="no"?>
<!DOCTYPE svg PUBLIC "-//W3C//DTD SVG 1.1//EN"
  "http://www.w3.org/Graphics/SVG/1.1/DTD/svg11.dtd">
<svg xmlns:xlink="http://www.w3.org/1999/xlink" width="382.150386pt" height="265.600613pt" viewBox="0 0 382.150386 265.600613" xmlns="http://www.w3.org/2000/svg" version="1.1">
 <metadata>
  <rdf:RDF xmlns:dc="http://purl.org/dc/elements/1.1/" xmlns:cc="http://creativecommons.org/ns#" xmlns:rdf="http://www.w3.org/1999/02/22-rdf-syntax-ns#">
   <cc:Work>
    <dc:type rdf:resource="http://purl.org/dc/dcmitype/StillImage"/>
    <dc:date>2025-07-17T22:11:04.207379</dc:date>
    <dc:format>image/svg+xml</dc:format>
    <dc:creator>
     <cc:Agent>
      <dc:title>Matplotlib v3.10.3, https://matplotlib.org/</dc:title>
     </cc:Agent>
    </dc:creator>
   </cc:Work>
  </rdf:RDF>
 </metadata>
 <defs>
  <style type="text/css">*{stroke-linejoin: round; stroke-linecap: butt}</style>
 </defs>
 <g id="figure_1">
  <g id="patch_1">
   <path d="M 0 265.600613 
L 382.150386 265.600613 
L 382.150386 0 
L 0 0 
z
" style="fill: #ffffff"/>
  </g>
  <g id="axes_1">
   <g id="patch_2">
    <path d="M 40.150386 228.96 
L 374.950386 228.96 
L 374.950386 7.2 
L 40.150386 7.2 
z
" style="fill: #ffffff"/>
   </g>
   <g id="matplotlib.axis_1">
    <g id="xtick_1">
     <g id="line2d_1">
      <defs>
       <path id="mcaa8f914f6" d="M 0 0 
L 0 3.5 
" style="stroke: #000000; stroke-width: 0.8"/>
      </defs>
      <g>
       <use xlink:href="#mcaa8f914f6" x="55.368567" y="228.96" style="stroke: #000000; stroke-width: 0.8"/>
      </g>
     </g>
     <g id="text_1">
      <!-- $\mathdefault{0}$ -->
      <g transform="translate(52.8779 243.05832) scale(0.1 -0.1)">
       <defs>
        <path id="CMR17-30" d="M 2688 2038 
C 2688 2430 2682 3099 2413 3613 
C 2176 4063 1798 4224 1466 4224 
C 1158 4224 768 4082 525 3620 
C 269 3137 243 2539 243 2038 
C 243 1671 250 1112 448 623 
C 723 -39 1216 -128 1466 -128 
C 1760 -128 2208 -7 2470 604 
C 2662 1048 2688 1568 2688 2038 
z
M 1466 -26 
C 1056 -26 813 328 723 816 
C 653 1196 653 1749 653 2109 
C 653 2604 653 3015 736 3407 
C 858 3954 1216 4121 1466 4121 
C 1728 4121 2067 3947 2189 3420 
C 2272 3054 2278 2623 2278 2109 
C 2278 1691 2278 1176 2202 797 
C 2067 96 1690 -26 1466 -26 
z
" transform="scale(0.015625)"/>
       </defs>
       <use xlink:href="#CMR17-30" transform="scale(0.996264)"/>
      </g>
     </g>
    </g>
    <g id="xtick_2">
     <g id="line2d_2">
      <g>
       <use xlink:href="#mcaa8f914f6" x="125.016997" y="228.96" style="stroke: #000000; stroke-width: 0.8"/>
      </g>
     </g>
     <g id="text_2">
      <!-- $\mathdefault{200}$ -->
      <g transform="translate(117.544994 243.05832) scale(0.1 -0.1)">
       <defs>
        <path id="CMR17-32" d="M 2669 990 
L 2554 990 
C 2490 537 2438 460 2413 422 
C 2381 371 1920 371 1830 371 
L 602 371 
C 832 620 1280 1073 1824 1596 
C 2214 1966 2669 2400 2669 3033 
C 2669 3788 2067 4224 1395 4224 
C 691 4224 262 3603 262 3027 
C 262 2777 448 2745 525 2745 
C 589 2745 781 2783 781 3007 
C 781 3206 614 3264 525 3264 
C 486 3264 448 3257 422 3244 
C 544 3788 915 4057 1306 4057 
C 1862 4057 2227 3616 2227 3033 
C 2227 2477 1901 1998 1536 1583 
L 262 147 
L 262 0 
L 2515 0 
L 2669 990 
z
" transform="scale(0.015625)"/>
       </defs>
       <use xlink:href="#CMR17-32" transform="scale(0.996264)"/>
       <use xlink:href="#CMR17-30" transform="translate(45.690477 0) scale(0.996264)"/>
       <use xlink:href="#CMR17-30" transform="translate(91.380954 0) scale(0.996264)"/>
      </g>
     </g>
    </g>
    <g id="xtick_3">
     <g id="line2d_3">
      <g>
       <use xlink:href="#mcaa8f914f6" x="194.665426" y="228.96" style="stroke: #000000; stroke-width: 0.8"/>
      </g>
     </g>
     <g id="text_3">
      <!-- $\mathdefault{400}$ -->
      <g transform="translate(187.193423 243.05832) scale(0.1 -0.1)">
       <defs>
        <path id="CMR17-34" d="M 2150 4147 
C 2150 4281 2144 4288 2029 4288 
L 128 1254 
L 128 1088 
L 1779 1088 
L 1779 460 
C 1779 230 1766 166 1318 166 
L 1197 166 
L 1197 0 
C 1402 12 1747 12 1965 12 
C 2182 12 2528 12 2733 0 
L 2733 166 
L 2611 166 
C 2163 166 2150 230 2150 460 
L 2150 1088 
L 2803 1088 
L 2803 1254 
L 2150 1254 
L 2150 4147 
z
M 1798 3723 
L 1798 1254 
L 256 1254 
L 1798 3723 
z
" transform="scale(0.015625)"/>
       </defs>
       <use xlink:href="#CMR17-34" transform="scale(0.996264)"/>
       <use xlink:href="#CMR17-30" transform="translate(45.690477 0) scale(0.996264)"/>
       <use xlink:href="#CMR17-30" transform="translate(91.380954 0) scale(0.996264)"/>
      </g>
     </g>
    </g>
    <g id="xtick_4">
     <g id="line2d_4">
      <g>
       <use xlink:href="#mcaa8f914f6" x="264.313856" y="228.96" style="stroke: #000000; stroke-width: 0.8"/>
      </g>
     </g>
     <g id="text_4">
      <!-- $\mathdefault{600}$ -->
      <g transform="translate(256.841853 243.05832) scale(0.1 -0.1)">
       <defs>
        <path id="CMR17-36" d="M 678 2198 
C 678 3712 1395 4076 1811 4076 
C 1946 4076 2272 4049 2400 3782 
C 2298 3782 2106 3782 2106 3558 
C 2106 3385 2246 3328 2336 3328 
C 2394 3328 2566 3353 2566 3571 
C 2566 3987 2246 4224 1805 4224 
C 1043 4224 243 3411 243 2011 
C 243 257 966 -128 1478 -128 
C 2099 -128 2688 431 2688 1295 
C 2688 2101 2170 2688 1517 2688 
C 1126 2688 838 2430 678 1979 
L 678 2198 
z
M 1478 25 
C 691 25 691 1212 691 1450 
C 691 1914 909 2585 1504 2585 
C 1613 2585 1926 2585 2138 2140 
C 2253 1889 2253 1624 2253 1302 
C 2253 954 2253 696 2118 438 
C 1978 173 1773 25 1478 25 
z
" transform="scale(0.015625)"/>
       </defs>
       <use xlink:href="#CMR17-36" transform="scale(0.996264)"/>
       <use xlink:href="#CMR17-30" transform="translate(45.690477 0) scale(0.996264)"/>
       <use xlink:href="#CMR17-30" transform="translate(91.380954 0) scale(0.996264)"/>
      </g>
     </g>
    </g>
    <g id="xtick_5">
     <g id="line2d_5">
      <g>
       <use xlink:href="#mcaa8f914f6" x="333.962285" y="228.96" style="stroke: #000000; stroke-width: 0.8"/>
      </g>
     </g>
     <g id="text_5">
      <!-- $\mathdefault{800}$ -->
      <g transform="translate(326.490282 243.05832) scale(0.1 -0.1)">
       <defs>
        <path id="CMR17-38" d="M 1741 2289 
C 2144 2494 2554 2803 2554 3298 
C 2554 3884 1990 4224 1472 4224 
C 890 4224 378 3800 378 3215 
C 378 3054 416 2777 666 2533 
C 730 2469 998 2276 1171 2154 
C 883 2006 211 1652 211 945 
C 211 282 838 -128 1459 -128 
C 2144 -128 2720 366 2720 1022 
C 2720 1607 2330 1877 2074 2051 
L 1741 2289 
z
M 902 2855 
C 851 2887 595 3086 595 3388 
C 595 3781 998 4076 1459 4076 
C 1965 4076 2336 3716 2336 3298 
C 2336 2700 1670 2359 1638 2359 
C 1632 2359 1626 2359 1574 2398 
L 902 2855 
z
M 2080 1536 
C 2176 1466 2483 1253 2483 861 
C 2483 385 2010 25 1472 25 
C 890 25 448 443 448 951 
C 448 1459 838 1884 1280 2083 
L 2080 1536 
z
" transform="scale(0.015625)"/>
       </defs>
       <use xlink:href="#CMR17-38" transform="scale(0.996264)"/>
       <use xlink:href="#CMR17-30" transform="translate(45.690477 0) scale(0.996264)"/>
       <use xlink:href="#CMR17-30" transform="translate(91.380954 0) scale(0.996264)"/>
      </g>
     </g>
    </g>
    <g id="text_6">
     <!-- Iteration -->
     <g transform="translate(189.603009 256.278627) scale(0.1 -0.1)">
      <defs>
       <path id="NimbusSanL-Regu-49" d="M 1242 4672 
L 640 4672 
L 640 0 
L 1242 0 
L 1242 4672 
z
" transform="scale(0.015625)"/>
       <path id="NimbusSanL-Regu-74" d="M 1626 3328 
L 1075 3328 
L 1075 4249 
L 544 4249 
L 544 3328 
L 90 3328 
L 90 2892 
L 544 2892 
L 544 402 
C 544 64 774 -128 1190 -128 
C 1318 -128 1446 -116 1626 -84 
L 1626 364 
C 1555 345 1472 339 1370 339 
C 1139 339 1075 402 1075 634 
L 1075 2892 
L 1626 2892 
L 1626 3328 
z
" transform="scale(0.015625)"/>
       <path id="NimbusSanL-Regu-65" d="M 3283 1484 
C 3283 1998 3245 2311 3149 2565 
C 2931 3123 2419 3456 1792 3456 
C 858 3456 256 2734 256 1619 
C 256 545 838 -128 1779 -128 
C 2547 -128 3078 307 3213 1018 
L 2675 1018 
C 2528 588 2227 364 1798 364 
C 1459 364 1171 514 992 787 
C 864 974 819 1161 813 1484 
L 3283 1484 
z
M 826 1920 
C 870 2552 1248 2963 1786 2963 
C 2310 2963 2714 2519 2714 1959 
C 2714 1946 2714 1933 2707 1920 
L 826 1920 
z
" transform="scale(0.015625)"/>
       <path id="NimbusSanL-Regu-72" d="M 442 3328 
L 442 0 
L 979 0 
L 979 1727 
C 979 2203 1101 2514 1357 2698 
C 1523 2819 1683 2857 2054 2863 
L 2054 3404 
C 1965 3449 1920 3456 1850 3456 
C 1504 3456 1242 3251 934 2750 
L 934 3328 
L 442 3328 
z
" transform="scale(0.015625)"/>
       <path id="NimbusSanL-Regu-61" d="M 3424 332 
C 3366 320 3341 320 3309 320 
C 3123 320 3021 415 3021 581 
L 3021 2542 
C 3021 3135 2586 3456 1760 3456 
C 1274 3456 870 3315 646 3065 
C 493 2893 429 2702 416 2370 
L 954 2370 
C 998 2778 1242 2963 1741 2963 
C 2221 2963 2490 2784 2490 2466 
L 2490 2326 
C 2490 2103 2355 2007 1933 1956 
C 1178 1861 1062 1835 858 1753 
C 467 1593 269 1294 269 861 
C 269 256 691 -128 1370 -128 
C 1792 -128 2131 19 2509 364 
C 2547 25 2714 -128 3059 -128 
C 3168 -128 3251 -116 3424 -71 
L 3424 332 
z
M 2490 1071 
C 2490 893 2438 785 2278 638 
C 2061 441 1798 339 1485 339 
C 1069 339 826 536 826 874 
C 826 1224 1062 1402 1632 1485 
C 2195 1562 2310 1587 2490 1670 
L 2490 1071 
z
" transform="scale(0.015625)"/>
       <path id="NimbusSanL-Regu-69" d="M 960 3358 
L 429 3358 
L 429 0 
L 960 0 
L 960 3358 
z
M 960 4672 
L 422 4672 
L 422 3999 
L 960 3999 
L 960 4672 
z
" transform="scale(0.015625)"/>
       <path id="NimbusSanL-Regu-6f" d="M 1741 3456 
C 800 3456 230 2784 230 1663 
C 230 543 794 -128 1747 -128 
C 2688 -128 3264 543 3264 1638 
C 3264 2791 2707 3456 1741 3456 
z
M 1747 2963 
C 2349 2963 2707 2472 2707 1644 
C 2707 861 2336 364 1747 364 
C 1152 364 787 855 787 1663 
C 787 2466 1152 2963 1747 2963 
z
" transform="scale(0.015625)"/>
       <path id="NimbusSanL-Regu-6e" d="M 448 3328 
L 448 0 
L 986 0 
L 986 1835 
C 986 2539 1344 2988 1894 2988 
C 2317 2988 2586 2732 2586 2328 
L 2586 0 
L 3117 0 
L 3117 2539 
C 3117 3097 2701 3456 2054 3456 
C 1555 3456 1235 3263 941 2796 
L 941 3328 
L 448 3328 
z
" transform="scale(0.015625)"/>
      </defs>
      <use xlink:href="#NimbusSanL-Regu-49" transform="scale(0.996264)"/>
      <use xlink:href="#NimbusSanL-Regu-74" transform="translate(27.69517 0) scale(0.996264)"/>
      <use xlink:href="#NimbusSanL-Regu-65" transform="translate(55.390339 0) scale(0.996264)"/>
      <use xlink:href="#NimbusSanL-Regu-72" transform="translate(110.782016 0) scale(0.996264)"/>
      <use xlink:href="#NimbusSanL-Regu-61" transform="translate(142.961149 0) scale(0.996264)"/>
      <use xlink:href="#NimbusSanL-Regu-74" transform="translate(198.352826 0) scale(0.996264)"/>
      <use xlink:href="#NimbusSanL-Regu-69" transform="translate(226.047996 0) scale(0.996264)"/>
      <use xlink:href="#NimbusSanL-Regu-6f" transform="translate(248.16478 0) scale(0.996264)"/>
      <use xlink:href="#NimbusSanL-Regu-6e" transform="translate(303.556457 0) scale(0.996264)"/>
     </g>
    </g>
   </g>
   <g id="matplotlib.axis_2">
    <g id="ytick_1">
     <g id="line2d_6">
      <defs>
       <path id="m0e72d1d54a" d="M 0 0 
L -3.5 0 
" style="stroke: #000000; stroke-width: 0.8"/>
      </defs>
      <g>
       <use xlink:href="#m0e72d1d54a" x="40.150386" y="224.384367" style="stroke: #000000; stroke-width: 0.8"/>
      </g>
     </g>
     <g id="text_7">
      <!-- $\mathdefault{−3}$ -->
      <g transform="translate(20.420307 227.933528) scale(0.1 -0.1)">
       <defs>
        <path id="CMSY10-0" d="M 4218 1472 
C 4326 1472 4442 1472 4442 1600 
C 4442 1728 4326 1728 4218 1728 
L 755 1728 
C 646 1728 531 1728 531 1600 
C 531 1472 646 1472 755 1472 
L 4218 1472 
z
" transform="scale(0.015625)"/>
        <path id="CMR17-33" d="M 1414 2176 
C 1984 2176 2234 1673 2234 1094 
C 2234 322 1824 25 1453 25 
C 1114 25 563 193 390 691 
C 422 678 454 678 486 678 
C 640 678 755 780 755 947 
C 755 1132 614 1216 486 1216 
C 378 1216 211 1164 211 927 
C 211 335 787 -128 1466 -128 
C 2176 -128 2720 432 2720 1087 
C 2720 1718 2208 2176 1600 2246 
C 2086 2347 2554 2776 2554 3353 
C 2554 3856 2048 4224 1472 4224 
C 890 4224 378 3862 378 3347 
C 378 3123 544 3084 627 3084 
C 762 3084 877 3167 877 3334 
C 877 3500 762 3584 627 3584 
C 602 3584 570 3584 544 3571 
C 730 3999 1235 4076 1459 4076 
C 1683 4076 2106 3966 2106 3347 
C 2106 3167 2080 2851 1862 2574 
C 1670 2329 1453 2316 1242 2297 
C 1210 2297 1062 2284 1037 2284 
C 992 2278 966 2272 966 2227 
C 966 2182 973 2176 1101 2176 
L 1414 2176 
z
" transform="scale(0.015625)"/>
       </defs>
       <use xlink:href="#CMSY10-0" transform="scale(0.996264)"/>
       <use xlink:href="#CMR17-33" transform="translate(77.487468 0) scale(0.996264)"/>
      </g>
     </g>
    </g>
    <g id="ytick_2">
     <g id="line2d_7">
      <g>
       <use xlink:href="#m0e72d1d54a" x="40.150386" y="196.733958" style="stroke: #000000; stroke-width: 0.8"/>
      </g>
     </g>
     <g id="text_8">
      <!-- $\mathdefault{−2}$ -->
      <g transform="translate(20.420307 200.283118) scale(0.1 -0.1)">
       <use xlink:href="#CMSY10-0" transform="scale(0.996264)"/>
       <use xlink:href="#CMR17-32" transform="translate(77.487468 0) scale(0.996264)"/>
      </g>
     </g>
    </g>
    <g id="ytick_3">
     <g id="line2d_8">
      <g>
       <use xlink:href="#m0e72d1d54a" x="40.150386" y="169.083549" style="stroke: #000000; stroke-width: 0.8"/>
      </g>
     </g>
     <g id="text_9">
      <!-- $\mathdefault{−1}$ -->
      <g transform="translate(20.420307 172.632709) scale(0.1 -0.1)">
       <defs>
        <path id="CMR17-31" d="M 1702 4083 
C 1702 4217 1696 4224 1606 4224 
C 1357 3927 979 3833 621 3820 
C 602 3820 570 3820 563 3808 
C 557 3795 557 3782 557 3648 
C 755 3648 1088 3686 1344 3839 
L 1344 467 
C 1344 243 1331 166 781 166 
L 589 166 
L 589 0 
C 896 6 1216 12 1523 12 
C 1830 12 2150 6 2458 0 
L 2458 166 
L 2266 166 
C 1715 166 1702 236 1702 467 
L 1702 4083 
z
" transform="scale(0.015625)"/>
       </defs>
       <use xlink:href="#CMSY10-0" transform="scale(0.996264)"/>
       <use xlink:href="#CMR17-31" transform="translate(77.487468 0) scale(0.996264)"/>
      </g>
     </g>
    </g>
    <g id="ytick_4">
     <g id="line2d_9">
      <g>
       <use xlink:href="#m0e72d1d54a" x="40.150386" y="141.43314" style="stroke: #000000; stroke-width: 0.8"/>
      </g>
     </g>
     <g id="text_10">
      <!-- $\mathdefault{0}$ -->
      <g transform="translate(28.16905 144.9823) scale(0.1 -0.1)">
       <use xlink:href="#CMR17-30" transform="scale(0.996264)"/>
      </g>
     </g>
    </g>
    <g id="ytick_5">
     <g id="line2d_10">
      <g>
       <use xlink:href="#m0e72d1d54a" x="40.150386" y="113.782731" style="stroke: #000000; stroke-width: 0.8"/>
      </g>
     </g>
     <g id="text_11">
      <!-- $\mathdefault{1}$ -->
      <g transform="translate(28.16905 117.331891) scale(0.1 -0.1)">
       <use xlink:href="#CMR17-31" transform="scale(0.996264)"/>
      </g>
     </g>
    </g>
    <g id="ytick_6">
     <g id="line2d_11">
      <g>
       <use xlink:href="#m0e72d1d54a" x="40.150386" y="86.132322" style="stroke: #000000; stroke-width: 0.8"/>
      </g>
     </g>
     <g id="text_12">
      <!-- $\mathdefault{2}$ -->
      <g transform="translate(28.16905 89.681482) scale(0.1 -0.1)">
       <use xlink:href="#CMR17-32" transform="scale(0.996264)"/>
      </g>
     </g>
    </g>
    <g id="ytick_7">
     <g id="line2d_12">
      <g>
       <use xlink:href="#m0e72d1d54a" x="40.150386" y="58.481913" style="stroke: #000000; stroke-width: 0.8"/>
      </g>
     </g>
     <g id="text_13">
      <!-- $\mathdefault{3}$ -->
      <g transform="translate(28.16905 62.031073) scale(0.1 -0.1)">
       <use xlink:href="#CMR17-33" transform="scale(0.996264)"/>
      </g>
     </g>
    </g>
    <g id="ytick_8">
     <g id="line2d_13">
      <g>
       <use xlink:href="#m0e72d1d54a" x="40.150386" y="30.831503" style="stroke: #000000; stroke-width: 0.8"/>
      </g>
     </g>
     <g id="text_14">
      <!-- $\mathdefault{4}$ -->
      <g transform="translate(28.16905 34.380664) scale(0.1 -0.1)">
       <use xlink:href="#CMR17-34" transform="scale(0.996264)"/>
      </g>
     </g>
    </g>
    <g id="text_15">
     <!-- RMS residual - Blade_17 -->
     <g transform="translate(14.29832 172.470389) rotate(-90) scale(0.1 -0.1)">
      <defs>
       <path id="NimbusSanL-Regu-52" d="M 1190 2035 
L 2726 2035 
C 3258 2035 3494 1775 3494 1191 
L 3488 770 
C 3488 478 3539 192 3622 0 
L 4346 0 
L 4346 147 
C 4122 303 4077 471 4064 1101 
C 4058 1879 3936 2111 3430 2329 
C 3955 2585 4166 2907 4166 3432 
C 4166 4230 3661 4672 2746 4672 
L 595 4672 
L 595 0 
L 1190 0 
L 1190 2035 
z
M 1190 2560 
L 1190 4147 
L 2630 4147 
C 2963 4147 3155 4096 3302 3970 
C 3462 3837 3546 3628 3546 3350 
C 3546 2806 3264 2560 2630 2560 
L 1190 2560 
z
" transform="scale(0.015625)"/>
       <path id="NimbusSanL-Regu-4d" d="M 2995 0 
L 4307 3915 
L 4307 0 
L 4870 0 
L 4870 4672 
L 4045 4672 
L 2688 602 
L 1306 4672 
L 480 4672 
L 480 0 
L 1043 0 
L 1043 3915 
L 2368 0 
L 2995 0 
z
" transform="scale(0.015625)"/>
       <path id="NimbusSanL-Regu-53" d="M 3814 3295 
C 3808 4204 3181 4736 2106 4736 
C 1082 4736 448 4211 448 3372 
C 448 2806 749 2450 1363 2291 
L 2522 1986 
C 3110 1833 3379 1598 3379 1236 
C 3379 988 3245 733 3046 593 
C 2861 466 2566 396 2189 396 
C 1683 396 1338 517 1114 784 
C 941 988 864 1210 870 1496 
L 307 1496 
C 314 1070 397 790 582 536 
C 902 102 1440 -128 2150 -128 
C 2707 -128 3162 0 3462 230 
C 3776 479 3974 892 3974 1293 
C 3974 1865 3616 2284 2982 2456 
L 1811 2768 
C 1248 2920 1043 3098 1043 3454 
C 1043 3925 1459 4236 2086 4236 
C 2829 4236 3245 3899 3251 3295 
L 3814 3295 
z
" transform="scale(0.015625)"/>
       <path id="NimbusSanL-Regu-73" d="M 2803 2428 
C 2797 3084 2362 3456 1587 3456 
C 806 3456 301 3052 301 2434 
C 301 1912 570 1663 1363 1472 
L 1862 1351 
C 2234 1262 2381 1129 2381 887 
C 2381 574 2067 364 1600 364 
C 1312 364 1069 447 934 587 
C 851 683 813 778 781 1014 
L 218 1014 
C 243 243 678 -128 1555 -128 
C 2400 -128 2938 288 2938 931 
C 2938 1428 2656 1702 1990 1861 
L 1478 1982 
C 1043 2084 858 2224 858 2459 
C 858 2765 1133 2963 1568 2963 
C 1997 2963 2227 2778 2240 2428 
L 2803 2428 
z
" transform="scale(0.015625)"/>
       <path id="NimbusSanL-Regu-64" d="M 3168 4672 
L 2637 4672 
L 2637 2937 
C 2413 3276 2054 3456 1606 3456 
C 736 3456 166 2759 166 1695 
C 166 568 723 -128 1626 -128 
C 2086 -128 2406 44 2694 460 
L 2694 19 
L 3168 19 
L 3168 4672 
z
M 1696 2956 
C 2272 2956 2637 2447 2637 1651 
C 2637 880 2266 371 1702 371 
C 1114 371 723 887 723 1663 
C 723 2440 1114 2956 1696 2956 
z
" transform="scale(0.015625)"/>
       <path id="NimbusSanL-Regu-75" d="M 3085 19 
L 3085 3328 
L 2554 3328 
L 2554 1454 
C 2554 780 2195 339 1638 339 
C 1216 339 947 591 947 988 
L 947 3328 
L 416 3328 
L 416 780 
C 416 230 832 -128 1485 -128 
C 1978 -128 2291 44 2605 484 
L 2605 19 
L 3085 19 
z
" transform="scale(0.015625)"/>
       <path id="NimbusSanL-Regu-6c" d="M 973 4672 
L 435 4672 
L 435 0 
L 973 0 
L 973 4672 
z
" transform="scale(0.015625)"/>
       <path id="NimbusSanL-Regu-2d" d="M 1818 1996 
L 294 1996 
L 294 1536 
L 1818 1536 
L 1818 1996 
z
" transform="scale(0.015625)"/>
       <path id="NimbusSanL-Regu-42" d="M 506 0 
L 2611 0 
C 3053 0 3379 121 3629 390 
C 3859 632 3987 961 3987 1321 
C 3987 1878 3731 2214 3136 2444 
C 3558 2643 3782 2994 3782 3476 
C 3782 3821 3654 4127 3411 4345 
C 3168 4569 2848 4672 2400 4672 
L 506 4672 
L 506 0 
z
M 1101 2636 
L 1101 4147 
L 2253 4147 
C 2586 4147 2771 4101 2931 3977 
C 3098 3847 3187 3652 3187 3391 
C 3187 3138 3098 2936 2931 2806 
C 2771 2682 2586 2636 2253 2636 
L 1101 2636 
z
M 1101 524 
L 1101 2112 
L 2554 2112 
C 2842 2112 3034 2042 3174 1890 
C 3315 1745 3392 1542 3392 1315 
C 3392 1093 3315 891 3174 746 
C 3034 594 2842 524 2554 524 
L 1101 524 
z
" transform="scale(0.015625)"/>
       <path id="NimbusSanL-Regu-31" d="M 1658 3232 
L 1658 0 
L 2221 0 
L 2221 4537 
L 1850 4537 
C 1651 3840 1523 3744 653 3635 
L 653 3232 
L 1658 3232 
z
" transform="scale(0.015625)"/>
       <path id="NimbusSanL-Regu-37" d="M 3328 4544 
L 294 4544 
L 294 3987 
L 2746 3987 
C 1664 2442 1222 1493 883 0 
L 1485 0 
C 1734 1454 2304 2704 3328 4070 
L 3328 4544 
z
" transform="scale(0.015625)"/>
      </defs>
      <use xlink:href="#NimbusSanL-Regu-52" transform="scale(0.996264)"/>
      <use xlink:href="#NimbusSanL-Regu-4d" transform="translate(71.929985 0) scale(0.996264)"/>
      <use xlink:href="#NimbusSanL-Regu-53" transform="translate(154.918415 0) scale(0.996264)"/>
      <use xlink:href="#NimbusSanL-Regu-72" transform="translate(249.063616 0) scale(0.996264)"/>
      <use xlink:href="#NimbusSanL-Regu-65" transform="translate(282.238846 0) scale(0.996264)"/>
      <use xlink:href="#NimbusSanL-Regu-73" transform="translate(337.630523 0) scale(0.996264)"/>
      <use xlink:href="#NimbusSanL-Regu-69" transform="translate(387.443723 0) scale(0.996264)"/>
      <use xlink:href="#NimbusSanL-Regu-64" transform="translate(409.560507 0) scale(0.996264)"/>
      <use xlink:href="#NimbusSanL-Regu-75" transform="translate(464.952184 0) scale(0.996264)"/>
      <use xlink:href="#NimbusSanL-Regu-61" transform="translate(520.343861 0) scale(0.996264)"/>
      <use xlink:href="#NimbusSanL-Regu-6c" transform="translate(575.735538 0) scale(0.996264)"/>
      <use xlink:href="#NimbusSanL-Regu-2d" transform="translate(625.547492 0) scale(0.996264)"/>
      <use xlink:href="#NimbusSanL-Regu-42" transform="translate(686.417892 0) scale(0.996264)"/>
      <use xlink:href="#NimbusSanL-Regu-6c" transform="translate(752.867923 0) scale(0.996264)"/>
      <use xlink:href="#NimbusSanL-Regu-61" transform="translate(774.984707 0) scale(0.996264)"/>
      <use xlink:href="#NimbusSanL-Regu-64" transform="translate(830.376384 0) scale(0.996264)"/>
      <use xlink:href="#NimbusSanL-Regu-65" transform="translate(885.768061 0) scale(0.996264)"/>
      <use xlink:href="#NimbusSanL-Regu-31" transform="translate(977.025303 0) scale(0.996264)"/>
      <use xlink:href="#NimbusSanL-Regu-37" transform="translate(1032.41698 0) scale(0.996264)"/>
      <path d="M 947.137079 0 
L 977.025303 0 
L 977.025303 0.3985 
L 947.137079 0.3985 
L 947.137079 0 
z
"/>
     </g>
    </g>
   </g>
   <g id="line2d_14">
    <path d="M 55.368567 196.549851 
L 55.71681 203.370424 
L 56.761536 215.190351 
L 57.109778 213.263114 
L 57.45802 213.405104 
L 58.154505 214.165956 
L 58.850989 214.858663 
L 59.199231 215.019164 
L 59.547473 215.023564 
L 59.895715 214.835959 
L 60.5922 214.235701 
L 60.940442 214.185776 
L 61.288684 213.946822 
L 61.636926 212.172581 
L 62.33341 212.061769 
L 62.681653 212.119643 
L 64.074621 212.770386 
L 64.422863 212.660103 
L 65.119348 212.118651 
L 65.815832 211.514729 
L 66.164074 211.324165 
L 66.512316 211.268365 
L 66.860558 211.360008 
L 67.557043 212.604952 
L 68.253527 213.802586 
L 69.298253 214.921603 
L 69.646495 215.008164 
L 69.994738 214.702106 
L 71.039464 212.876166 
L 71.387706 212.785996 
L 71.735948 212.555202 
L 74.173643 217.438165 
L 74.521886 217.540941 
L 74.870128 217.303413 
L 75.566612 216.394153 
L 75.914854 215.620558 
L 76.611338 215.765835 
L 76.959581 216.073975 
L 78.004307 217.855853 
L 78.352549 218.072661 
L 78.700791 218.04432 
L 79.049033 217.88003 
L 79.397276 217.476206 
L 80.790244 214.887209 
L 81.486728 215.550537 
L 82.183213 216.370076 
L 82.879697 216.774276 
L 83.924424 216.900845 
L 84.272666 216.65414 
L 85.665634 214.58586 
L 87.058603 216.213514 
L 89.148056 217.473452 
L 89.84454 217.243924 
L 90.889266 217.725555 
L 92.630477 218.786718 
L 92.978719 218.88 
L 93.326961 218.847751 
L 93.675204 218.604111 
L 94.023446 218.084978 
L 94.71993 216.455307 
L 95.416414 216.564095 
L 96.112899 216.953627 
L 97.157625 217.870948 
L 97.854109 218.030217 
L 98.202352 217.95873 
L 98.550594 217.721757 
L 99.247078 216.626739 
L 99.59532 215.993868 
L 100.291804 216.089823 
L 102.033015 216.749184 
L 103.425984 215.307052 
L 104.47071 213.597493 
L 105.167194 212.599406 
L 105.863679 211.181003 
L 106.560163 209.439417 
L 106.908405 209.129844 
L 107.256647 209.330681 
L 107.604889 209.75848 
L 107.953132 209.662366 
L 108.301374 209.322489 
L 108.997858 207.26725 
L 109.3461 205.767969 
L 110.042585 205.641186 
L 113.525006 205.406869 
L 114.917975 205.200669 
L 115.614459 204.816577 
L 116.310943 203.939622 
L 117.007427 202.752688 
L 117.35567 201.834574 
L 118.052154 202.492288 
L 118.400396 202.844287 
L 118.748638 202.569575 
L 119.09688 201.414791 
L 120.141607 200.961932 
L 120.489849 200.933811 
L 120.838091 201.027527 
L 121.186333 201.268019 
L 121.534575 201.697761 
L 122.23106 203.017794 
L 122.579302 203.794029 
L 122.927544 203.668037 
L 123.624028 205.833029 
L 125.365239 205.987099 
L 126.061723 205.798074 
L 127.802934 204.624602 
L 128.151176 204.291926 
L 129.892387 204.133327 
L 130.240629 203.49414 
L 130.588871 204.066028 
L 130.937113 204.031426 
L 131.285355 203.028758 
L 131.633598 204.342178 
L 131.98184 204.519625 
L 132.330082 203.380213 
L 132.678324 204.869562 
L 133.026566 205.613205 
L 134.419535 205.92534 
L 134.767777 205.642651 
L 135.116019 206.167955 
L 135.464261 203.521571 
L 135.812503 205.901429 
L 136.160746 206.135879 
L 136.508988 206.016884 
L 137.205472 205.526923 
L 137.553714 205.101028 
L 137.901956 204.046746 
L 138.598441 204.059211 
L 139.294925 203.949223 
L 139.643167 203.613386 
L 139.991409 203.780329 
L 140.339651 203.495949 
L 140.687893 203.536687 
L 141.036136 203.334178 
L 141.73262 203.106162 
L 143.125588 202.450518 
L 144.170315 202.324249 
L 144.518557 201.874567 
L 144.866799 202.179187 
L 145.215041 201.752229 
L 145.563283 201.76283 
L 145.911526 201.580731 
L 146.259768 200.485268 
L 146.60801 201.462415 
L 146.956252 200.674967 
L 147.304494 202.038466 
L 147.652736 201.439802 
L 148.349221 202.615379 
L 149.045705 202.926662 
L 149.393947 202.529712 
L 149.742189 203.295427 
L 150.090431 203.46889 
L 151.135158 203.558824 
L 153.572853 203.621684 
L 170.636718 203.259911 
L 170.98496 203.112582 
L 171.333202 203.240603 
L 171.681445 203.087931 
L 172.029687 203.220408 
L 172.377929 203.063295 
L 172.726171 203.199527 
L 173.074413 203.038407 
L 173.422655 203.177906 
L 173.770897 203.013177 
L 174.11914 203.15556 
L 174.467382 202.987624 
L 174.815624 203.132518 
L 175.163866 202.961753 
L 175.512108 203.108806 
L 175.86035 202.935674 
L 176.208592 203.084661 
L 176.556835 202.910849 
L 176.905077 203.062789 
L 177.253319 202.88712 
L 177.601561 203.040285 
L 177.949803 202.863084 
L 178.298045 203.017081 
L 178.646287 202.838623 
L 178.99453 202.993202 
L 179.342772 202.813871 
L 179.691014 202.968916 
L 180.039256 202.952604 
L 180.387498 201.52086 
L 180.73574 202.922887 
L 181.083982 202.737302 
L 181.432225 202.898763 
L 181.780467 202.712035 
L 182.128709 202.874064 
L 182.476951 202.687773 
L 182.825193 202.848942 
L 183.173435 202.663757 
L 183.521678 202.823278 
L 183.86992 202.805309 
L 184.218162 202.615372 
L 184.566404 202.779635 
L 184.914646 202.589827 
L 185.262888 202.753464 
L 185.61113 202.565987 
L 185.959373 202.726706 
L 186.307615 202.707915 
L 186.655857 202.516154 
L 187.004099 202.681245 
L 187.352341 202.492668 
L 187.700583 202.653913 
L 188.048825 202.46883 
L 188.397068 202.625937 
L 188.74531 202.606702 
L 189.093552 202.418745 
L 189.441794 202.578894 
L 189.790036 202.395237 
L 190.138278 202.550383 
L 190.48652 202.371324 
L 190.834763 202.521166 
L 191.183005 202.501736 
L 191.531247 202.320374 
L 191.879489 202.472688 
L 192.227731 202.296738 
L 192.575973 202.442833 
L 192.924215 202.272588 
L 193.272458 202.412169 
L 193.6207 202.392641 
L 193.968942 202.220532 
L 194.317184 202.362306 
L 194.665426 202.196708 
L 195.013668 202.331049 
L 195.36191 202.172493 
L 195.710153 202.299454 
L 196.058395 202.280309 
L 196.406637 202.119819 
L 196.754879 202.248751 
L 197.103121 202.095822 
L 197.451363 202.216158 
L 197.799606 202.071011 
L 198.147848 202.182551 
L 198.49609 202.16345 
L 198.844332 202.016065 
L 199.192574 202.129755 
L 199.540816 201.990896 
L 199.889058 202.094912 
L 200.237301 201.964745 
L 200.585543 202.054918 
L 200.933785 201.933558 
L 201.630269 201.999138 
L 201.978511 201.874257 
L 202.326753 201.962518 
L 202.674996 201.84774 
L 203.023238 201.925865 
L 203.37148 201.820575 
L 203.719722 201.888017 
L 204.067964 201.792056 
L 204.416206 201.848858 
L 204.764448 201.762177 
L 205.112691 201.808476 
L 205.809175 201.766949 
L 206.853901 201.6647 
L 207.898628 201.635689 
L 209.639839 201.506811 
L 210.684565 201.469881 
L 211.381049 201.426257 
L 212.425776 201.374355 
L 212.774018 201.267081 
L 213.470502 201.32026 
L 213.818744 201.170545 
L 214.515229 201.264494 
L 214.863471 201.073054 
L 215.211713 201.214165 
L 215.559955 201.204085 
L 215.908197 200.973551 
L 216.256439 201.151698 
L 216.604681 201.139691 
L 216.952924 200.87287 
L 217.301166 201.085621 
L 217.649408 201.072015 
L 217.99765 200.771801 
L 218.345892 201.016587 
L 219.042376 200.984326 
L 219.390619 200.605867 
L 219.738861 200.927151 
L 220.435345 200.88873 
L 220.783587 200.438651 
L 221.131829 200.83055 
L 222.176556 200.762876 
L 222.524798 200.199126 
L 222.87304 200.704968 
L 224.266009 200.599077 
L 224.614251 199.88533 
L 224.962493 200.545031 
L 227.74843 200.293474 
L 228.096672 199.263318 
L 228.444914 200.249848 
L 242.026358 199.075676 
L 248.642959 198.503957 
L 250.035928 198.153869 
L 251.080654 197.699285 
L 252.12538 196.931464 
L 252.473623 196.166877 
L 252.821865 196.235682 
L 253.518349 195.637344 
L 254.214833 195.320556 
L 254.911318 195.383085 
L 255.607802 195.4274 
L 256.652528 195.158638 
L 257.349013 195.138377 
L 259.090223 195.396443 
L 259.438466 195.214243 
L 260.483192 193.664712 
L 260.831434 193.529656 
L 262.572645 193.684235 
L 262.920887 193.76846 
L 263.269129 193.570393 
L 263.617371 193.587408 
L 263.965613 193.471624 
L 264.662098 192.738655 
L 265.01034 192.439409 
L 266.403308 190.483698 
L 267.099793 190.385166 
L 269.189246 190.03845 
L 270.930456 189.302103 
L 271.278699 189.601146 
L 271.626941 189.411661 
L 271.975183 189.71176 
L 272.671667 189.739267 
L 273.716394 189.544 
L 274.412878 189.2614 
L 275.109362 188.57301 
L 275.457604 188.492501 
L 276.850573 188.607706 
L 278.243541 188.423229 
L 278.940026 188.086646 
L 279.288268 187.765314 
L 280.681236 188.044616 
L 281.377721 187.916605 
L 281.725963 187.982522 
L 282.074205 187.780293 
L 282.422447 187.268832 
L 282.770689 187.346456 
L 283.118932 184.963258 
L 283.467174 176.540189 
L 283.815416 172.748616 
L 285.208384 176.356596 
L 286.601353 179.688129 
L 287.297837 181.050758 
L 288.342564 182.495138 
L 289.039048 183.396609 
L 289.735532 184.114416 
L 290.432017 184.482768 
L 291.128501 184.770058 
L 291.824985 184.797368 
L 292.173227 184.516138 
L 293.217954 183.189949 
L 293.914438 183.093086 
L 294.959165 183.167267 
L 296.700375 183.501241 
L 297.048617 183.349608 
L 297.39686 183.019421 
L 297.745102 182.408173 
L 298.093344 181.528992 
L 298.441586 181.110845 
L 299.13807 180.943879 
L 299.486312 180.565665 
L 299.834555 180.64872 
L 300.531039 180.563942 
L 301.227523 181.090156 
L 301.924007 180.46748 
L 302.27225 179.03501 
L 302.620492 178.411127 
L 304.361702 178.881763 
L 305.406429 178.709234 
L 305.754671 178.604539 
L 306.102913 178.669122 
L 307.14764 178.616296 
L 307.495882 178.837457 
L 308.88885 179.081312 
L 309.933577 179.497434 
L 310.281819 179.081844 
L 310.630061 179.068253 
L 312.02303 179.781241 
L 312.371272 180.837371 
L 312.719514 179.753605 
L 313.067756 180.772675 
L 313.415998 181.022918 
L 313.76424 180.274005 
L 314.112483 181.061174 
L 314.460725 181.078996 
L 314.808967 180.368126 
L 315.157209 181.179012 
L 315.505451 180.805433 
L 315.853693 181.357044 
L 316.201935 181.322731 
L 316.550178 181.963932 
L 316.89842 182.073373 
L 317.246662 182.681548 
L 317.594904 182.562871 
L 317.943146 182.71479 
L 318.291388 182.695604 
L 318.63963 182.533359 
L 319.336115 182.628787 
L 319.684357 182.480379 
L 320.032599 182.474822 
L 321.077326 181.904755 
L 321.77381 181.507164 
L 325.604473 181.583585 
L 334.310527 181.562352 
L 334.658769 181.485557 
L 335.355254 181.54634 
L 341.623612 181.398091 
L 341.971854 181.305414 
L 342.668339 181.362046 
L 349.633182 181.025556 
L 349.981424 180.88711 
L 350.677908 180.866177 
L 352.070877 180.522414 
L 353.115603 180.033375 
L 354.508572 179.217624 
L 355.205056 178.633856 
L 355.90154 177.509917 
L 356.249782 176.562844 
L 356.598024 176.713785 
L 356.946267 176.679868 
L 357.294509 176.987785 
L 357.990993 177.20081 
L 358.687477 177.153163 
L 359.732204 176.635534 
L 359.732204 176.635534 
" clip-path="url(#pe68a5093d1)" style="fill: none; stroke: #1f77b4; stroke-width: 1.5; stroke-linecap: square"/>
   </g>
   <g id="line2d_15">
    <path d="M 55.368567 150.601726 
L 55.71681 139.454163 
L 56.065052 142.709126 
L 56.413294 144.31709 
L 56.761536 143.425443 
L 57.109778 141.859318 
L 57.806262 143.027085 
L 58.502747 144.229618 
L 59.199231 145.146869 
L 59.547473 145.297076 
L 59.895715 144.971912 
L 60.243958 144.42937 
L 60.5922 144.121208 
L 60.940442 143.978322 
L 61.288684 143.443834 
L 61.636926 142.551383 
L 63.726379 144.863452 
L 64.422863 145.814175 
L 64.771105 146.012352 
L 65.46759 146.020016 
L 65.815832 145.720566 
L 66.860558 143.799329 
L 68.950011 146.53367 
L 69.298253 146.526286 
L 69.646495 145.938018 
L 71.387706 141.056094 
L 71.735948 140.228123 
L 72.780675 141.771589 
L 73.825401 143.321861 
L 74.173643 143.375556 
L 75.21837 142.050913 
L 75.566612 142.075259 
L 75.914854 142.244672 
L 76.959581 143.459098 
L 78.004307 144.180577 
L 78.700791 144.846953 
L 79.049033 144.931049 
L 79.397276 144.888335 
L 79.745518 144.998903 
L 80.442002 145.921557 
L 80.790244 146.399115 
L 82.183213 146.974804 
L 82.879697 147.750127 
L 83.576181 148.490051 
L 83.924424 148.560209 
L 84.620908 148.382738 
L 84.96915 148.225004 
L 85.317392 147.896126 
L 85.665634 147.315545 
L 86.710361 147.082383 
L 87.058603 147.167252 
L 88.103329 147.841001 
L 88.451571 147.793251 
L 88.799814 147.538503 
L 89.148056 147.114186 
L 89.84454 145.743089 
L 93.326961 145.745954 
L 94.023446 145.097784 
L 94.71993 144.2462 
L 96.112899 144.920624 
L 97.505867 145.254832 
L 97.854109 145.265169 
L 98.202352 145.078787 
L 98.898836 144.357061 
L 99.247078 144.163875 
L 99.59532 144.103109 
L 100.640047 144.582565 
L 101.684773 144.800679 
L 102.033015 144.831004 
L 103.077742 143.568063 
L 103.774226 142.024743 
L 104.122468 141.083154 
L 104.818952 139.971317 
L 105.515437 138.404076 
L 106.560163 135.432027 
L 106.908405 135.004648 
L 107.604889 135.23099 
L 107.953132 134.756073 
L 108.301374 135.021133 
L 108.649616 134.607764 
L 108.997858 134.785923 
L 109.3461 134.257624 
L 111.087311 134.255399 
L 114.22149 134.065353 
L 115.962701 133.883758 
L 116.659185 133.535082 
L 117.007427 133.227373 
L 117.35567 130.949521 
L 117.703912 133.051933 
L 118.052154 133.070643 
L 118.748638 134.470777 
L 119.09688 134.524791 
L 120.489849 134.076343 
L 120.838091 134.114639 
L 121.186333 134.335104 
L 121.534575 134.841929 
L 122.579302 137.159951 
L 122.927544 132.041711 
L 123.624028 135.215605 
L 125.016997 136.323312 
L 125.365239 136.431307 
L 125.713481 136.376597 
L 126.409965 135.833053 
L 127.802934 134.490727 
L 128.151176 133.954241 
L 128.499418 133.988441 
L 128.84766 134.194376 
L 129.195903 133.650194 
L 129.544145 134.40598 
L 129.892387 134.360607 
L 130.240629 132.072039 
L 130.588871 134.600588 
L 130.937113 134.53251 
L 131.285355 130.895034 
L 131.633598 134.798595 
L 131.98184 134.819364 
L 132.330082 130.65267 
L 133.026566 135.594168 
L 134.419535 135.798744 
L 134.767777 133.608121 
L 135.116019 136.506989 
L 135.464261 129.319128 
L 135.812503 134.180016 
L 136.160746 137.199163 
L 136.508988 137.097061 
L 136.85723 135.149297 
L 137.205472 137.0414 
L 137.553714 136.638749 
L 137.901956 133.838866 
L 138.250198 136.404113 
L 139.294925 136.303025 
L 139.643167 134.095412 
L 139.991409 136.206448 
L 140.339651 134.342476 
L 140.687893 136.044956 
L 141.036136 134.590309 
L 141.384378 135.847077 
L 141.73262 134.795863 
L 142.080862 135.544285 
L 142.429104 135.456665 
L 142.777346 134.158552 
L 143.125588 135.20122 
L 143.473831 134.680463 
L 143.822073 135.050051 
L 144.170315 135.19362 
L 144.518557 133.058924 
L 144.866799 135.512479 
L 145.215041 133.397327 
L 145.563283 135.609132 
L 145.911526 135.998637 
L 146.259768 129.461035 
L 146.60801 136.092696 
L 146.956252 129.53697 
L 147.304494 136.390661 
L 147.652736 130.449755 
L 148.000979 132.376002 
L 148.349221 137.201464 
L 149.045705 137.342625 
L 149.393947 132.908564 
L 149.742189 137.239326 
L 150.090431 136.752886 
L 150.438674 134.745412 
L 151.135158 135.119347 
L 152.179884 135.385326 
L 152.528126 136.492644 
L 152.876369 135.398039 
L 153.224611 136.422176 
L 153.572853 136.390125 
L 153.921095 135.357104 
L 154.269337 136.315371 
L 154.617579 136.281782 
L 154.965821 135.308751 
L 155.314064 136.202941 
L 155.662306 136.167874 
L 156.010548 135.25309 
L 156.35879 136.085186 
L 156.707032 136.048761 
L 157.055274 135.190376 
L 157.403516 135.962479 
L 157.751759 135.923922 
L 158.100001 135.132872 
L 158.448243 135.8319 
L 158.796485 135.789793 
L 159.144727 135.075079 
L 159.492969 135.694897 
L 159.841212 135.651215 
L 160.189454 135.011002 
L 160.537696 135.55373 
L 160.885938 134.984759 
L 161.23418 135.45401 
L 161.582422 135.408277 
L 161.930664 134.90853 
L 162.278907 135.306026 
L 162.627149 134.871487 
L 162.975391 135.201511 
L 163.323633 135.153497 
L 163.671875 134.783518 
L 164.020117 135.046932 
L 164.368359 134.736707 
L 164.716602 134.938614 
L 165.064844 134.889019 
L 165.413086 134.638544 
L 165.761328 134.779207 
L 166.10957 134.583283 
L 166.457812 134.668324 
L 166.806054 134.524405 
L 167.154297 134.556508 
L 167.850781 134.443345 
L 170.98496 133.932184 
L 171.333202 134.048977 
L 171.681445 133.818412 
L 172.029687 133.968778 
L 172.377929 133.7049 
L 172.726171 133.886157 
L 173.074413 133.591207 
L 173.422655 133.801425 
L 173.770897 133.477466 
L 174.11914 133.714799 
L 174.467382 133.363784 
L 174.815624 133.626512 
L 175.163866 133.25026 
L 175.512108 133.53672 
L 175.86035 133.137047 
L 176.208592 133.445772 
L 176.556835 133.024875 
L 176.905077 133.354946 
L 177.253319 132.913788 
L 177.601561 133.263243 
L 177.949803 132.803372 
L 178.298045 133.170853 
L 178.646287 132.693772 
L 178.99453 133.077943 
L 179.342772 132.585109 
L 179.691014 132.985224 
L 180.039256 132.942797 
L 180.387498 126.469242 
L 180.73574 132.837981 
L 181.083982 132.296617 
L 181.432225 132.747231 
L 181.780467 132.192949 
L 182.128709 132.656576 
L 182.476951 132.092231 
L 182.825193 132.566731 
L 183.173435 131.994328 
L 183.521678 132.477837 
L 183.86992 132.433753 
L 184.218162 131.833495 
L 184.566404 132.345112 
L 184.914646 131.737019 
L 185.262888 132.257151 
L 185.61113 131.644858 
L 185.959373 132.16992 
L 186.307615 132.125442 
L 186.655857 131.487617 
L 187.004099 132.039502 
L 187.352341 131.400346 
L 187.700583 131.954338 
L 188.048825 131.315376 
L 188.397068 131.870273 
L 188.74531 131.828088 
L 189.093552 131.166889 
L 189.441794 131.746005 
L 189.790036 131.088065 
L 190.138278 131.665189 
L 190.48652 131.012133 
L 190.834763 131.585723 
L 191.183005 131.546961 
L 191.531247 130.875488 
L 191.879489 131.470131 
L 192.227731 130.806601 
L 192.575973 131.394538 
L 192.924215 130.740633 
L 193.272458 131.320196 
L 193.6207 131.284759 
L 193.968942 130.616472 
L 194.317184 131.21341 
L 194.665426 130.55806 
L 195.013668 131.143185 
L 195.36191 130.502948 
L 195.710153 131.074987 
L 196.058395 131.044014 
L 196.406637 130.392501 
L 196.754879 130.97851 
L 197.103121 130.345163 
L 197.451363 130.913894 
L 197.799606 130.300575 
L 198.147848 130.850135 
L 198.49609 130.823382 
L 198.844332 130.201397 
L 199.192574 130.761978 
L 199.540816 130.163699 
L 199.889058 130.701163 
L 200.237301 130.128422 
L 200.585543 130.642548 
L 200.933785 130.097179 
L 201.282027 130.583153 
L 201.630269 130.563206 
L 201.978511 130.010197 
L 202.326753 130.505935 
L 202.674996 129.984347 
L 203.023238 130.449518 
L 203.37148 129.960415 
L 203.719722 130.393034 
L 204.067964 129.938206 
L 204.416206 130.336824 
L 204.764448 129.91748 
L 205.112691 130.280362 
L 205.460933 129.897817 
L 205.809175 130.223584 
L 206.157417 129.879029 
L 206.505659 130.166429 
L 206.853901 129.860909 
L 207.202143 130.108839 
L 207.550386 129.843255 
L 207.898628 130.050727 
L 208.24687 129.825859 
L 208.595112 129.99201 
L 208.943354 129.808515 
L 209.639839 129.866909 
L 211.381049 129.796796 
L 211.729291 129.847208 
L 212.077534 129.607636 
L 212.425776 129.823822 
L 212.774018 129.548218 
L 213.12226 129.798787 
L 213.470502 129.848258 
L 213.818744 129.397754 
L 214.166986 129.820525 
L 214.515229 129.869161 
L 214.863471 129.242208 
L 215.211713 129.837058 
L 215.559955 129.885014 
L 215.908197 129.08288 
L 216.256439 129.848248 
L 216.604681 129.895111 
L 216.952924 128.920995 
L 217.301166 129.853511 
L 217.649408 129.899005 
L 217.99765 128.757622 
L 218.345892 129.852483 
L 219.042376 129.938309 
L 219.390619 128.465297 
L 219.738861 129.882877 
L 220.435345 129.960628 
L 220.783587 128.172103 
L 221.131829 129.896672 
L 222.176556 129.995847 
L 222.524798 127.739573 
L 222.87304 129.920685 
L 224.266009 130.017293 
L 224.614251 127.17323 
L 224.962493 129.945413 
L 227.74843 130.016226 
L 228.096672 126.081437 
L 228.444914 129.922299 
L 231.579094 129.828579 
L 242.026358 129.28233 
L 249.339443 129.147408 
L 251.080654 129.119336 
L 251.777138 128.725622 
L 252.12538 128.313281 
L 252.473623 126.597192 
L 252.821865 127.057678 
L 253.866591 125.511343 
L 254.214833 125.355003 
L 254.563075 125.387619 
L 254.911318 125.268491 
L 255.25956 124.916603 
L 255.956044 124.019646 
L 256.652528 123.455469 
L 257.349013 123.240159 
L 258.045497 123.387694 
L 259.090223 123.998381 
L 259.438466 124.227183 
L 260.483192 123.576819 
L 261.527918 123.932855 
L 262.920887 124.504817 
L 263.269129 123.878807 
L 263.965613 123.774813 
L 264.313856 122.945518 
L 264.662098 122.636002 
L 265.01034 122.597502 
L 266.751551 121.218978 
L 267.448035 121.063793 
L 268.144519 120.902267 
L 269.189246 121.158578 
L 269.88573 120.941643 
L 270.233972 120.419127 
L 270.582214 120.650538 
L 270.930456 119.666594 
L 271.278699 120.377723 
L 271.626941 119.403735 
L 271.975183 120.659727 
L 272.323425 120.906433 
L 273.019909 120.885339 
L 273.368151 120.768756 
L 273.716394 120.519417 
L 274.064636 120.076863 
L 274.412878 119.446869 
L 275.109362 116.438396 
L 275.457604 116.187399 
L 276.502331 116.781844 
L 277.198815 116.787946 
L 277.895299 116.650437 
L 278.243541 116.425346 
L 278.591784 116.027987 
L 278.940026 115.398189 
L 279.288268 114.45234 
L 279.63651 114.84372 
L 279.984752 115.473846 
L 280.332994 115.716697 
L 280.681236 115.723372 
L 281.029479 115.467941 
L 281.377721 115.459294 
L 281.725963 115.893348 
L 282.074205 115.390623 
L 282.422447 114.007241 
L 282.770689 114.591951 
L 283.118932 109.414706 
L 283.467174 97.608528 
L 283.815416 93.54575 
L 284.860142 96.565213 
L 287.297837 103.723356 
L 288.342564 106.138907 
L 289.039048 107.551988 
L 290.083774 109.084344 
L 290.780259 109.940151 
L 291.824985 111.636738 
L 292.173227 111.675944 
L 292.869712 110.938688 
L 293.217954 110.817681 
L 293.914438 111.309217 
L 294.26268 111.493016 
L 294.610922 111.542312 
L 295.307407 112.26583 
L 295.655649 112.563247 
L 296.003891 112.332012 
L 296.352133 112.873051 
L 297.745102 112.431634 
L 298.093344 111.864107 
L 299.13807 111.928523 
L 299.486312 111.55044 
L 299.834555 111.6748 
L 300.182797 111.345137 
L 300.531039 110.852948 
L 300.879281 111.367287 
L 301.227523 113.009958 
L 301.575765 112.9537 
L 301.924007 112.612996 
L 302.27225 111.502653 
L 302.968734 110.594436 
L 303.316976 109.820898 
L 304.01346 109.413882 
L 304.709945 109.224649 
L 306.102913 109.541788 
L 306.799397 109.910175 
L 307.495882 110.069666 
L 307.844124 109.658216 
L 309.585335 110.372819 
L 309.933577 110.730422 
L 310.281819 108.150143 
L 310.630061 108.031329 
L 312.02303 108.552478 
L 312.371272 112.085933 
L 312.719514 108.59781 
L 313.067756 111.775303 
L 313.415998 112.627906 
L 313.76424 110.194956 
L 314.112483 112.947657 
L 314.460725 113.116661 
L 314.808967 110.950179 
L 315.157209 113.426313 
L 315.505451 111.978119 
L 315.853693 113.220569 
L 316.201935 112.318612 
L 316.550178 113.061517 
L 316.89842 112.477813 
L 317.246662 112.942073 
L 317.594904 112.106779 
L 317.943146 112.289811 
L 318.291388 112.273669 
L 318.63963 112.012035 
L 319.336115 112.443896 
L 319.684357 112.331235 
L 320.032599 112.675299 
L 320.380841 112.83126 
L 320.729083 112.834192 
L 321.077326 113.122839 
L 321.425568 113.020782 
L 321.77381 112.732192 
L 322.818536 112.64112 
L 325.952716 112.544062 
L 326.300958 112.011903 
L 326.6492 112.556691 
L 328.042168 112.501043 
L 328.390411 112.257487 
L 328.738653 112.476089 
L 334.310527 112.408088 
L 334.658769 112.151429 
L 335.007011 112.408845 
L 341.623612 112.394496 
L 341.971854 112.101187 
L 342.320096 112.392133 
L 349.633182 112.386843 
L 349.981424 112.041069 
L 350.329666 112.393421 
L 351.722634 112.342964 
L 352.419119 112.175685 
L 352.767361 111.992601 
L 353.115603 111.667692 
L 354.508572 111.116264 
L 354.856814 111.040374 
L 355.205056 111.140634 
L 355.553298 110.84918 
L 355.90154 110.035841 
L 356.249782 107.411435 
L 356.598024 108.193685 
L 356.946267 107.50376 
L 357.294509 108.377657 
L 357.990993 109.078887 
L 358.687477 109.413519 
L 359.732204 108.927513 
L 359.732204 108.927513 
" clip-path="url(#pe68a5093d1)" style="fill: none; stroke: #ff7f0e; stroke-width: 1.5; stroke-linecap: square"/>
   </g>
   <g id="line2d_16">
    <path d="M 55.368567 44.379629 
L 55.71681 51.485315 
L 56.761536 62.863019 
L 57.109778 60.690106 
L 57.45802 60.971005 
L 58.850989 62.777765 
L 59.199231 62.907945 
L 59.547473 62.843355 
L 61.288684 61.64817 
L 61.636926 59.894241 
L 62.33341 59.953915 
L 63.029895 60.272061 
L 63.726379 60.667386 
L 64.074621 60.649832 
L 64.771105 60.16991 
L 65.815832 59.164992 
L 66.164074 58.947396 
L 66.512316 58.89076 
L 66.860558 58.985881 
L 68.601769 62.222822 
L 69.298253 62.79031 
L 69.646495 62.737555 
L 69.994738 62.288769 
L 71.039464 60.213211 
L 71.387706 60.055758 
L 71.735948 59.726449 
L 73.825401 64.685428 
L 74.173643 65.00465 
L 74.521886 64.915778 
L 75.566612 63.896718 
L 75.914854 63.352388 
L 76.611338 63.708792 
L 76.959581 64.078883 
L 78.004307 65.762614 
L 78.352549 65.94395 
L 78.700791 65.899624 
L 79.049033 65.728464 
L 79.397276 65.360356 
L 80.790244 63.100336 
L 81.486728 63.841888 
L 82.183213 64.700449 
L 82.531455 64.986396 
L 83.227939 65.170969 
L 83.924424 65.085446 
L 84.272666 64.75693 
L 85.665634 62.396186 
L 87.406845 64.447248 
L 88.799814 65.365389 
L 89.148056 65.364451 
L 89.84454 64.912256 
L 90.889266 65.531474 
L 92.282235 66.561852 
L 92.978719 66.774129 
L 93.326961 66.70649 
L 93.675204 66.433636 
L 94.023446 65.896328 
L 94.71993 64.251984 
L 95.416414 64.516435 
L 96.112899 65.064953 
L 97.157625 66.14069 
L 97.505867 66.288688 
L 97.854109 66.308118 
L 98.202352 66.196323 
L 98.550594 65.873687 
L 99.247078 64.555565 
L 99.59532 63.826256 
L 100.291804 64.085577 
L 100.988289 64.616436 
L 101.684773 65.203519 
L 102.033015 65.355926 
L 103.077742 65.029513 
L 103.425984 64.709212 
L 104.122468 63.685233 
L 105.515437 63.785082 
L 106.908405 63.932778 
L 107.256647 63.741254 
L 107.604889 63.001575 
L 107.953132 61.55698 
L 108.301374 62.01958 
L 109.3461 58.482659 
L 110.042585 58.591715 
L 112.132037 58.73921 
L 113.176764 58.963088 
L 114.22149 59.452861 
L 115.962701 60.486054 
L 116.310943 60.462647 
L 117.007427 60.057523 
L 117.35567 54.684699 
L 117.703912 59.464706 
L 118.052154 58.348692 
L 118.400396 58.966411 
L 118.748638 58.490321 
L 119.09688 57.705267 
L 119.793365 57.637746 
L 120.489849 57.817999 
L 120.838091 58.078578 
L 121.186333 58.492437 
L 121.882818 59.905972 
L 122.579302 61.559181 
L 122.927544 55.790485 
L 123.624028 59.038861 
L 124.320513 59.931536 
L 125.016997 61.167565 
L 126.409965 64.594439 
L 126.758208 64.780101 
L 127.10645 64.280621 
L 127.802934 61.956497 
L 128.151176 59.492577 
L 128.499418 59.190732 
L 128.84766 59.1225 
L 129.195903 57.41829 
L 129.544145 58.941861 
L 129.892387 58.658957 
L 130.240629 53.722534 
L 130.588871 58.941964 
L 130.937113 58.717022 
L 131.285355 51.506988 
L 131.633598 59.165514 
L 131.98184 59.103613 
L 132.330082 50.967818 
L 132.678324 54.214003 
L 133.026566 59.457842 
L 134.419535 59.346125 
L 134.767777 53.903967 
L 135.116019 60.515387 
L 135.464261 51.50216 
L 135.812503 54.046725 
L 136.160746 60.892914 
L 136.508988 60.474349 
L 136.85723 54.529417 
L 137.205472 59.6513 
L 137.553714 58.484033 
L 137.901956 51.604001 
L 138.250198 58.084998 
L 139.294925 58.179585 
L 139.643167 52.396272 
L 139.991409 58.186929 
L 140.339651 53.021256 
L 140.687893 58.151737 
L 141.036136 53.714169 
L 141.384378 58.0238 
L 141.73262 54.404438 
L 142.080862 57.708669 
L 142.429104 57.613942 
L 142.777346 53.480584 
L 143.125588 57.377898 
L 143.473831 54.645747 
L 143.822073 56.596236 
L 144.170315 56.208401 
L 144.518557 51.052817 
L 144.866799 56.559435 
L 145.215041 51.479108 
L 145.563283 56.419356 
L 145.911526 56.430372 
L 146.259768 46.396039 
L 146.60801 57.245988 
L 146.956252 47.203397 
L 147.304494 57.830281 
L 147.652736 49.030573 
L 148.000979 51.723694 
L 148.349221 60.8305 
L 149.045705 61.168378 
L 149.393947 52.544475 
L 149.742189 61.664042 
L 150.090431 61.291638 
L 150.438674 55.650887 
L 150.786916 56.16651 
L 151.831642 56.953106 
L 152.179884 57.162268 
L 152.528126 60.827369 
L 152.876369 57.262709 
L 153.224611 60.723795 
L 153.572853 60.68154 
L 153.921095 57.261665 
L 154.269337 60.573301 
L 154.617579 60.530087 
L 154.965821 57.253296 
L 155.314064 60.41784 
L 155.662306 60.373853 
L 156.010548 57.237936 
L 156.35879 60.258253 
L 156.707032 60.213673 
L 157.055274 57.21597 
L 157.403516 60.095486 
L 157.751759 60.049822 
L 158.100001 57.192714 
L 158.448243 59.926746 
L 158.796485 59.878486 
L 159.144727 57.168726 
L 159.492969 59.752861 
L 159.841212 59.703831 
L 160.189454 57.142266 
L 160.537696 59.576133 
L 160.885938 57.19721 
L 161.23418 59.445345 
L 161.582422 59.39496 
L 161.930664 57.158611 
L 162.278907 59.262829 
L 162.627149 57.200956 
L 162.975391 59.128088 
L 163.323633 59.076689 
L 163.671875 57.15119 
L 164.020117 58.94128 
L 164.368359 57.182305 
L 164.716602 58.804184 
L 165.064844 58.75235 
L 165.413086 57.123107 
L 165.761328 58.615321 
L 166.10957 57.144618 
L 166.457812 58.476854 
L 166.806054 57.158193 
L 167.154297 58.33702 
L 167.502539 57.16422 
L 167.850781 58.195787 
L 168.199023 58.14288 
L 168.547265 57.081372 
L 168.895507 58.002497 
L 169.243749 57.080021 
L 169.591992 57.861118 
L 169.940234 57.071887 
L 170.288476 57.718883 
L 170.636718 57.057749 
L 170.98496 57.576374 
L 171.333202 57.038156 
L 171.681445 57.435183 
L 172.029687 57.013508 
L 172.377929 57.294954 
L 172.726171 56.984466 
L 173.074413 57.1551 
L 173.422655 56.951196 
L 173.770897 57.015742 
L 174.467382 56.87715 
L 174.815624 56.874286 
L 175.163866 56.739509 
L 175.512108 56.83149 
L 175.86035 56.603004 
L 176.208592 56.78631 
L 176.556835 56.468042 
L 176.905077 56.739577 
L 177.253319 56.334771 
L 177.601561 56.691108 
L 177.949803 56.203128 
L 178.298045 56.641245 
L 178.646287 56.073351 
L 178.99453 56.590241 
L 179.342772 55.94549 
L 179.691014 56.538484 
L 180.039256 56.567043 
L 180.387498 46.174376 
L 180.73574 56.575051 
L 181.083982 55.659178 
L 181.432225 56.514919 
L 181.780467 55.532712 
L 182.128709 56.454581 
L 182.476951 55.410603 
L 182.825193 56.394493 
L 183.173435 55.291902 
L 183.521678 56.334797 
L 183.86992 56.355897 
L 184.218162 55.082883 
L 184.566404 56.290257 
L 184.914646 54.96483 
L 185.262888 56.225262 
L 185.61113 54.853115 
L 185.959373 56.16137 
L 186.307615 56.17889 
L 186.655857 54.649763 
L 187.004099 56.11088 
L 187.352341 54.543112 
L 187.700583 56.044313 
L 188.048825 54.440702 
L 188.397068 55.979152 
L 188.74531 55.997694 
L 189.093552 54.248897 
L 189.441794 55.930153 
L 189.790036 54.15312 
L 190.138278 55.863949 
L 190.48652 54.06211 
L 190.834763 55.798948 
L 191.183005 55.822229 
L 191.531247 53.884337 
L 191.879489 55.755371 
L 192.227731 53.801 
L 192.575973 55.689454 
L 192.924215 53.722792 
L 193.272458 55.624297 
L 193.6207 55.6554 
L 193.968942 53.560575 
L 194.317184 55.588349 
L 194.665426 53.490818 
L 195.013668 55.521612 
L 195.36191 53.426397 
L 195.710153 55.455247 
L 196.058395 55.496863 
L 196.406637 53.28039 
L 196.754879 55.427226 
L 197.103121 53.224154 
L 197.451363 55.357202 
L 197.799606 53.17314 
L 198.147848 55.286642 
L 198.49609 55.340553 
L 198.844332 53.042307 
L 199.192574 55.265607 
L 199.540816 52.999014 
L 199.889058 55.189651 
L 200.237301 52.960725 
L 200.585543 55.114 
L 200.933785 52.928223 
L 201.282027 55.03595 
L 201.630269 55.113363 
L 201.978511 52.816595 
L 202.326753 55.029043 
L 202.674996 52.789708 
L 203.023238 54.94325 
L 203.37148 52.767112 
L 203.719722 54.855919 
L 204.067964 52.748633 
L 204.416206 54.767391 
L 204.764448 52.733922 
L 205.112691 54.677386 
L 205.460933 52.722546 
L 205.809175 54.586017 
L 206.157417 52.71417 
L 206.505659 54.493391 
L 206.853901 52.708527 
L 207.202143 54.399593 
L 207.550386 52.705273 
L 207.898628 54.304711 
L 208.24687 52.704123 
L 208.595112 54.208853 
L 208.943354 52.704804 
L 209.291596 52.788263 
L 209.639839 53.837114 
L 209.988081 52.795186 
L 210.336323 53.757647 
L 210.684565 52.802746 
L 211.032807 53.676568 
L 211.381049 52.810792 
L 211.729291 52.900201 
L 212.077534 53.283956 
L 212.425776 52.912201 
L 212.774018 53.224468 
L 213.12226 52.923967 
L 213.470502 53.015886 
L 213.818744 52.833915 
L 214.515229 53.123633 
L 214.863471 52.461429 
L 215.211713 53.140018 
L 215.559955 53.233033 
L 215.908197 52.110793 
L 216.256439 53.250728 
L 216.604681 53.342439 
L 216.952924 51.783534 
L 217.301166 53.361135 
L 217.649408 53.450785 
L 217.99765 51.479956 
L 218.345892 53.470615 
L 219.042376 53.64344 
L 219.390619 50.866133 
L 219.738861 53.666688 
L 220.435345 53.828162 
L 220.783587 50.328016 
L 221.131829 53.855699 
L 222.176556 54.071412 
L 222.524798 49.56398 
L 222.87304 54.109241 
L 224.266009 54.340234 
L 224.614251 48.678002 
L 224.962493 54.40474 
L 227.400188 54.645166 
L 227.74843 54.66046 
L 228.096672 47.18587 
L 228.444914 54.796065 
L 230.882609 54.820017 
L 237.49921 54.717256 
L 244.115811 55.024999 
L 251.080654 55.31444 
L 251.777138 55.050201 
L 252.12538 54.779665 
L 252.473623 51.054944 
L 252.821865 53.677611 
L 253.170107 52.613718 
L 253.518349 52.683876 
L 253.866591 52.332133 
L 254.214833 52.142008 
L 254.911318 52.220986 
L 255.25956 51.966023 
L 255.956044 50.985448 
L 256.652528 50.472704 
L 257.349013 50.270431 
L 258.045497 50.410577 
L 259.438466 50.969357 
L 259.786708 50.148139 
L 260.13495 50.486124 
L 260.483192 50.328775 
L 261.179676 50.748628 
L 262.920887 52.264444 
L 263.269129 50.102728 
L 263.617371 50.982957 
L 263.965613 50.835398 
L 264.662098 49.433786 
L 265.01034 49.307925 
L 265.706824 48.761632 
L 266.055066 48.734793 
L 266.751551 48.424751 
L 267.796277 48.384232 
L 268.492761 48.58214 
L 268.841003 48.78721 
L 269.189246 48.782873 
L 269.537488 48.623907 
L 269.88573 48.304568 
L 270.233972 45.492329 
L 270.582214 46.154393 
L 270.930456 44.469859 
L 271.278699 45.898728 
L 271.626941 43.263734 
L 271.975183 46.642243 
L 272.323425 47.373634 
L 272.671667 47.714849 
L 273.368151 47.867144 
L 273.716394 47.611886 
L 274.064636 46.957064 
L 274.412878 45.939822 
L 274.76112 42.27671 
L 275.109362 41.654765 
L 275.457604 41.384203 
L 276.502331 42.034205 
L 277.198815 42.067739 
L 277.895299 41.973058 
L 278.243541 41.749661 
L 278.591784 41.329 
L 278.940026 40.646378 
L 279.288268 39.609818 
L 279.63651 39.998593 
L 279.984752 40.722437 
L 280.332994 41.087515 
L 280.681236 41.201053 
L 281.377721 40.805468 
L 281.725963 41.115974 
L 282.074205 40.166329 
L 282.422447 38.355763 
L 282.770689 39.065136 
L 283.118932 34.892896 
L 283.467174 21.986914 
L 283.815416 17.28 
L 284.860142 20.266851 
L 289.039048 32.703799 
L 289.735532 33.988459 
L 291.128501 35.309994 
L 291.824985 36.554063 
L 292.173227 36.71533 
L 293.217954 35.798116 
L 293.566196 36.005995 
L 294.26268 36.825866 
L 294.610922 36.438568 
L 294.959165 37.738134 
L 295.655649 38.670549 
L 296.003891 36.537533 
L 296.352133 39.074442 
L 297.745102 38.606098 
L 298.093344 38.140667 
L 298.441586 37.902071 
L 299.13807 38.079397 
L 299.834555 37.814328 
L 300.531039 36.600021 
L 300.879281 36.928836 
L 301.227523 38.984804 
L 301.575765 39.545636 
L 301.924007 39.166023 
L 302.968734 36.638156 
L 303.316976 35.586837 
L 304.01346 35.216453 
L 304.709945 35.120491 
L 305.754671 35.490918 
L 306.102913 35.307345 
L 306.799397 35.673404 
L 307.14764 35.521805 
L 307.495882 35.232387 
L 307.844124 34.755218 
L 308.540608 35.321095 
L 309.237093 35.477659 
L 309.933577 36.126741 
L 310.281819 33.044806 
L 310.630061 32.782985 
L 311.326545 32.532083 
L 312.02303 32.054625 
L 312.371272 35.580342 
L 312.719514 31.769511 
L 313.067756 35.174508 
L 313.415998 35.904595 
L 313.76424 33.446052 
L 314.112483 36.436495 
L 314.460725 36.719849 
L 314.808967 34.580993 
L 315.157209 37.263874 
L 315.505451 35.638648 
L 315.853693 37.164377 
L 316.201935 35.953448 
L 316.550178 36.836155 
L 316.89842 35.922929 
L 317.246662 36.494756 
L 317.594904 35.44556 
L 317.943146 35.825301 
L 318.291388 35.872755 
L 318.63963 35.57665 
L 319.336115 36.072092 
L 319.684357 35.833907 
L 320.032599 36.047113 
L 320.380841 35.887946 
L 320.729083 35.521368 
L 321.425568 35.210905 
L 321.77381 35.068155 
L 324.559747 35.141231 
L 325.952716 35.155091 
L 326.300958 34.760199 
L 326.6492 35.165248 
L 328.042168 35.171179 
L 328.390411 34.969795 
L 328.738653 35.172708 
L 334.310527 35.162009 
L 334.658769 34.938177 
L 335.007011 35.156658 
L 341.27537 34.980604 
L 341.623612 34.963583 
L 341.971854 34.709206 
L 342.320096 34.929495 
L 349.284939 34.489579 
L 349.633182 34.432331 
L 349.981424 34.115161 
L 350.329666 34.288216 
L 352.070877 33.731979 
L 353.115603 33.206855 
L 353.463845 32.997497 
L 353.812087 32.653982 
L 354.856814 32.669429 
L 355.553298 33.049144 
L 355.90154 33.062621 
L 356.249782 32.508114 
L 356.946267 32.122809 
L 358.339235 33.45055 
L 358.687477 33.705711 
L 359.383962 33.890115 
L 359.732204 33.732371 
L 359.732204 33.732371 
" clip-path="url(#pe68a5093d1)" style="fill: none; stroke: #2ca02c; stroke-width: 1.5; stroke-linecap: square"/>
   </g>
   <g id="patch_3">
    <path d="M 40.150386 228.96 
L 40.150386 7.2 
" style="fill: none; stroke: #000000; stroke-width: 0.8; stroke-linejoin: miter; stroke-linecap: square"/>
   </g>
   <g id="patch_4">
    <path d="M 374.950386 228.96 
L 374.950386 7.2 
" style="fill: none; stroke: #000000; stroke-width: 0.8; stroke-linejoin: miter; stroke-linecap: square"/>
   </g>
   <g id="patch_5">
    <path d="M 40.150386 228.96 
L 374.950386 228.96 
" style="fill: none; stroke: #000000; stroke-width: 0.8; stroke-linejoin: miter; stroke-linecap: square"/>
   </g>
   <g id="patch_6">
    <path d="M 40.150386 7.2 
L 374.950386 7.2 
" style="fill: none; stroke: #000000; stroke-width: 0.8; stroke-linejoin: miter; stroke-linecap: square"/>
   </g>
   <g id="legend_1">
    <g id="patch_7">
     <path d="M 47.150386 57.86092 
L 91.655585 57.86092 
Q 93.655585 57.86092 93.655585 55.86092 
L 93.655585 14.2 
Q 93.655585 12.2 91.655585 12.2 
L 47.150386 12.2 
Q 45.150386 12.2 45.150386 14.2 
L 45.150386 55.86092 
Q 45.150386 57.86092 47.150386 57.86092 
z
" style="fill: #ffffff; opacity: 0.8; stroke: #cccccc; stroke-linejoin: miter"/>
    </g>
    <g id="line2d_17">
     <path d="M 49.150386 19.79832 
L 59.150386 19.79832 
L 69.150386 19.79832 
" style="fill: none; stroke: #1f77b4; stroke-width: 1.5; stroke-linecap: square"/>
    </g>
    <g id="text_16">
     <!-- $\rho$ -->
     <g transform="translate(77.150386 23.29832) scale(0.1 -0.1)">
      <defs>
       <path id="CMMI12-1a" d="M 198 -1085 
C 192 -1116 179 -1154 179 -1191 
C 179 -1287 256 -1351 352 -1351 
C 448 -1351 538 -1287 576 -1198 
C 602 -1141 781 -390 986 389 
C 1114 70 1350 -64 1600 -64 
C 2323 -64 3142 830 3142 1794 
C 3142 2477 2726 2816 2285 2816 
C 1722 2816 1037 2234 826 1385 
L 198 -1085 
z
M 1594 64 
C 1158 64 1050 568 1050 645 
C 1050 683 1210 1289 1229 1385 
C 1555 2656 2182 2687 2278 2687 
C 2566 2687 2726 2426 2726 2049 
C 2726 1724 2554 1091 2445 823 
C 2253 383 1920 64 1594 64 
z
" transform="scale(0.015625)"/>
      </defs>
      <use xlink:href="#CMMI12-1a" transform="scale(0.996264)"/>
     </g>
    </g>
    <g id="line2d_18">
     <path d="M 49.150386 34.018627 
L 59.150386 34.018627 
L 69.150386 34.018627 
" style="fill: none; stroke: #ff7f0e; stroke-width: 1.5; stroke-linecap: square"/>
    </g>
    <g id="text_17">
     <!-- $\rho u$ -->
     <g transform="translate(77.150386 37.518627) scale(0.1 -0.1)">
      <defs>
       <path id="CMMI12-75" d="M 2182 370 
C 2266 12 2573 -64 2726 -64 
C 2931 -64 3085 70 3187 287 
C 3296 517 3379 893 3379 913 
C 3379 944 3354 970 3315 970 
C 3258 970 3251 938 3226 842 
C 3110 402 2995 64 2739 64 
C 2547 64 2547 274 2547 357 
C 2547 504 2566 568 2630 836 
C 2675 1008 2720 1181 2758 1359 
L 3021 2400 
C 3066 2560 3066 2572 3066 2591 
C 3066 2687 2989 2752 2893 2752 
C 2707 2752 2662 2591 2624 2432 
C 2560 2183 2214 810 2170 587 
C 2163 587 1914 64 1446 64 
C 1114 64 1050 351 1050 587 
C 1050 951 1229 1462 1395 1890 
C 1472 2094 1504 2177 1504 2305 
C 1504 2579 1306 2816 998 2816 
C 410 2816 173 1890 173 1838 
C 173 1813 198 1781 243 1781 
C 301 1781 307 1807 333 1896 
C 486 2445 736 2687 979 2687 
C 1043 2687 1146 2681 1146 2477 
C 1146 2311 1075 2126 979 1883 
C 698 1123 666 881 666 689 
C 666 38 1158 -64 1421 -64 
C 1830 -64 2054 217 2182 370 
z
" transform="scale(0.015625)"/>
      </defs>
      <use xlink:href="#CMMI12-1a" transform="scale(0.996264)"/>
      <use xlink:href="#CMMI12-75" transform="translate(50.314373 0) scale(0.996264)"/>
     </g>
    </g>
    <g id="line2d_19">
     <path d="M 49.150386 48.238934 
L 59.150386 48.238934 
L 69.150386 48.238934 
" style="fill: none; stroke: #2ca02c; stroke-width: 1.5; stroke-linecap: square"/>
    </g>
    <g id="text_18">
     <!-- $\rho E$ -->
     <g transform="translate(77.150386 51.738934) scale(0.1 -0.1)">
      <defs>
       <path id="CMMI12-45" d="M 4448 1489 
C 4454 1508 4474 1553 4474 1578 
C 4474 1611 4448 1643 4410 1643 
C 4384 1643 4371 1636 4352 1617 
C 4339 1611 4339 1598 4282 1469 
C 3904 570 3629 185 2605 185 
L 1670 185 
C 1581 185 1568 185 1530 192 
C 1459 198 1453 211 1453 262 
C 1453 307 1466 346 1478 403 
L 1920 2176 
L 2554 2176 
C 3053 2176 3091 2066 3091 1874 
C 3091 1810 3091 1752 3046 1559 
C 3034 1534 3027 1508 3027 1489 
C 3027 1444 3059 1424 3098 1424 
C 3155 1424 3162 1469 3187 1559 
L 3552 3036 
C 3552 3068 3526 3099 3488 3099 
C 3430 3099 3424 3074 3398 2986 
C 3270 2500 3142 2361 2573 2361 
L 1965 2361 
L 2362 3913 
C 2419 4134 2432 4153 2694 4153 
L 3610 4153 
C 4397 4153 4557 3945 4557 3465 
C 4557 3459 4557 3282 4531 3074 
C 4525 3049 4518 3011 4518 2998 
C 4518 2948 4550 2929 4589 2929 
C 4634 2929 4659 2954 4672 3068 
L 4806 4172 
C 4806 4191 4819 4255 4819 4268 
C 4819 4339 4762 4339 4646 4339 
L 1523 4339 
C 1402 4339 1338 4339 1338 4223 
C 1338 4153 1382 4153 1491 4153 
C 1888 4153 1888 4109 1888 4039 
C 1888 4008 1882 3983 1862 3913 
L 998 474 
C 941 249 928 185 480 185 
C 358 185 294 185 294 70 
C 294 0 333 0 461 0 
L 3674 0 
C 3814 0 3821 6 3866 108 
L 4448 1489 
z
" transform="scale(0.015625)"/>
      </defs>
      <use xlink:href="#CMMI12-1a" transform="scale(0.996264)"/>
      <use xlink:href="#CMMI12-45" transform="translate(50.314373 0) scale(0.996264)"/>
     </g>
    </g>
   </g>
  </g>
 </g>
 <defs>
  <clipPath id="pe68a5093d1">
   <rect x="40.150386" y="7.2" width="334.8" height="221.76"/>
  </clipPath>
 </defs>
</svg>
