<?xml version="1.0" encoding="utf-8" standalone="no"?>
<!DOCTYPE svg PUBLIC "-//W3C//DTD SVG 1.1//EN"
  "http://www.w3.org/Graphics/SVG/1.1/DTD/svg11.dtd">
<svg xmlns:xlink="http://www.w3.org/1999/xlink" width="382.150386pt" height="266.99543pt" viewBox="0 0 382.150386 266.99543" xmlns="http://www.w3.org/2000/svg" version="1.1">
 <metadata>
  <rdf:RDF xmlns:dc="http://purl.org/dc/elements/1.1/" xmlns:cc="http://creativecommons.org/ns#" xmlns:rdf="http://www.w3.org/1999/02/22-rdf-syntax-ns#">
   <cc:Work>
    <dc:type rdf:resource="http://purl.org/dc/dcmitype/StillImage"/>
    <dc:date>2025-07-17T20:55:40.891923</dc:date>
    <dc:format>image/svg+xml</dc:format>
    <dc:creator>
     <cc:Agent>
      <dc:title>Matplotlib v3.10.3, https://matplotlib.org/</dc:title>
     </cc:Agent>
    </dc:creator>
   </cc:Work>
  </rdf:RDF>
 </metadata>
 <defs>
  <style type="text/css">*{stroke-linejoin: round; stroke-linecap: butt}</style>
 </defs>
 <g id="figure_1">
  <g id="patch_1">
   <path d="M 0 266.99543 
L 382.150386 266.99543 
L 382.150386 0 
L 0 0 
z
" style="fill: #ffffff"/>
  </g>
  <g id="axes_1">
   <g id="patch_2">
    <path d="M 40.150386 230.354817 
L 374.950386 230.354817 
L 374.950386 8.594817 
L 40.150386 8.594817 
z
" style="fill: #ffffff"/>
   </g>
   <g id="matplotlib.axis_1">
    <g id="xtick_1">
     <g id="line2d_1">
      <defs>
       <path id="mc7828ff591" d="M 0 0 
L 0 3.5 
" style="stroke: #000000; stroke-width: 0.8"/>
      </defs>
      <g>
       <use xlink:href="#mc7828ff591" x="55.368567" y="230.354817" style="stroke: #000000; stroke-width: 0.8"/>
      </g>
     </g>
     <g id="text_1">
      <!-- $\mathdefault{0}$ -->
      <g transform="translate(52.8779 244.453137) scale(0.1 -0.1)">
       <defs>
        <path id="CMR17-30" d="M 2688 2038 
C 2688 2430 2682 3099 2413 3613 
C 2176 4063 1798 4224 1466 4224 
C 1158 4224 768 4082 525 3620 
C 269 3137 243 2539 243 2038 
C 243 1671 250 1112 448 623 
C 723 -39 1216 -128 1466 -128 
C 1760 -128 2208 -7 2470 604 
C 2662 1048 2688 1568 2688 2038 
z
M 1466 -26 
C 1056 -26 813 328 723 816 
C 653 1196 653 1749 653 2109 
C 653 2604 653 3015 736 3407 
C 858 3954 1216 4121 1466 4121 
C 1728 4121 2067 3947 2189 3420 
C 2272 3054 2278 2623 2278 2109 
C 2278 1691 2278 1176 2202 797 
C 2067 96 1690 -26 1466 -26 
z
" transform="scale(0.015625)"/>
       </defs>
       <use xlink:href="#CMR17-30" transform="scale(0.996264)"/>
      </g>
     </g>
    </g>
    <g id="xtick_2">
     <g id="line2d_2">
      <g>
       <use xlink:href="#mc7828ff591" x="113.122578" y="230.354817" style="stroke: #000000; stroke-width: 0.8"/>
      </g>
     </g>
     <g id="text_2">
      <!-- $\mathdefault{100}$ -->
      <g transform="translate(105.650575 244.453137) scale(0.1 -0.1)">
       <defs>
        <path id="CMR17-31" d="M 1702 4083 
C 1702 4217 1696 4224 1606 4224 
C 1357 3927 979 3833 621 3820 
C 602 3820 570 3820 563 3808 
C 557 3795 557 3782 557 3648 
C 755 3648 1088 3686 1344 3839 
L 1344 467 
C 1344 243 1331 166 781 166 
L 589 166 
L 589 0 
C 896 6 1216 12 1523 12 
C 1830 12 2150 6 2458 0 
L 2458 166 
L 2266 166 
C 1715 166 1702 236 1702 467 
L 1702 4083 
z
" transform="scale(0.015625)"/>
       </defs>
       <use xlink:href="#CMR17-31" transform="scale(0.996264)"/>
       <use xlink:href="#CMR17-30" transform="translate(45.690477 0) scale(0.996264)"/>
       <use xlink:href="#CMR17-30" transform="translate(91.380954 0) scale(0.996264)"/>
      </g>
     </g>
    </g>
    <g id="xtick_3">
     <g id="line2d_3">
      <g>
       <use xlink:href="#mc7828ff591" x="170.876589" y="230.354817" style="stroke: #000000; stroke-width: 0.8"/>
      </g>
     </g>
     <g id="text_3">
      <!-- $\mathdefault{200}$ -->
      <g transform="translate(163.404586 244.453137) scale(0.1 -0.1)">
       <defs>
        <path id="CMR17-32" d="M 2669 990 
L 2554 990 
C 2490 537 2438 460 2413 422 
C 2381 371 1920 371 1830 371 
L 602 371 
C 832 620 1280 1073 1824 1596 
C 2214 1966 2669 2400 2669 3033 
C 2669 3788 2067 4224 1395 4224 
C 691 4224 262 3603 262 3027 
C 262 2777 448 2745 525 2745 
C 589 2745 781 2783 781 3007 
C 781 3206 614 3264 525 3264 
C 486 3264 448 3257 422 3244 
C 544 3788 915 4057 1306 4057 
C 1862 4057 2227 3616 2227 3033 
C 2227 2477 1901 1998 1536 1583 
L 262 147 
L 262 0 
L 2515 0 
L 2669 990 
z
" transform="scale(0.015625)"/>
       </defs>
       <use xlink:href="#CMR17-32" transform="scale(0.996264)"/>
       <use xlink:href="#CMR17-30" transform="translate(45.690477 0) scale(0.996264)"/>
       <use xlink:href="#CMR17-30" transform="translate(91.380954 0) scale(0.996264)"/>
      </g>
     </g>
    </g>
    <g id="xtick_4">
     <g id="line2d_4">
      <g>
       <use xlink:href="#mc7828ff591" x="228.6306" y="230.354817" style="stroke: #000000; stroke-width: 0.8"/>
      </g>
     </g>
     <g id="text_4">
      <!-- $\mathdefault{300}$ -->
      <g transform="translate(221.158597 244.453137) scale(0.1 -0.1)">
       <defs>
        <path id="CMR17-33" d="M 1414 2176 
C 1984 2176 2234 1673 2234 1094 
C 2234 322 1824 25 1453 25 
C 1114 25 563 193 390 691 
C 422 678 454 678 486 678 
C 640 678 755 780 755 947 
C 755 1132 614 1216 486 1216 
C 378 1216 211 1164 211 927 
C 211 335 787 -128 1466 -128 
C 2176 -128 2720 432 2720 1087 
C 2720 1718 2208 2176 1600 2246 
C 2086 2347 2554 2776 2554 3353 
C 2554 3856 2048 4224 1472 4224 
C 890 4224 378 3862 378 3347 
C 378 3123 544 3084 627 3084 
C 762 3084 877 3167 877 3334 
C 877 3500 762 3584 627 3584 
C 602 3584 570 3584 544 3571 
C 730 3999 1235 4076 1459 4076 
C 1683 4076 2106 3966 2106 3347 
C 2106 3167 2080 2851 1862 2574 
C 1670 2329 1453 2316 1242 2297 
C 1210 2297 1062 2284 1037 2284 
C 992 2278 966 2272 966 2227 
C 966 2182 973 2176 1101 2176 
L 1414 2176 
z
" transform="scale(0.015625)"/>
       </defs>
       <use xlink:href="#CMR17-33" transform="scale(0.996264)"/>
       <use xlink:href="#CMR17-30" transform="translate(45.690477 0) scale(0.996264)"/>
       <use xlink:href="#CMR17-30" transform="translate(91.380954 0) scale(0.996264)"/>
      </g>
     </g>
    </g>
    <g id="xtick_5">
     <g id="line2d_5">
      <g>
       <use xlink:href="#mc7828ff591" x="286.38461" y="230.354817" style="stroke: #000000; stroke-width: 0.8"/>
      </g>
     </g>
     <g id="text_5">
      <!-- $\mathdefault{400}$ -->
      <g transform="translate(278.912607 244.453137) scale(0.1 -0.1)">
       <defs>
        <path id="CMR17-34" d="M 2150 4147 
C 2150 4281 2144 4288 2029 4288 
L 128 1254 
L 128 1088 
L 1779 1088 
L 1779 460 
C 1779 230 1766 166 1318 166 
L 1197 166 
L 1197 0 
C 1402 12 1747 12 1965 12 
C 2182 12 2528 12 2733 0 
L 2733 166 
L 2611 166 
C 2163 166 2150 230 2150 460 
L 2150 1088 
L 2803 1088 
L 2803 1254 
L 2150 1254 
L 2150 4147 
z
M 1798 3723 
L 1798 1254 
L 256 1254 
L 1798 3723 
z
" transform="scale(0.015625)"/>
       </defs>
       <use xlink:href="#CMR17-34" transform="scale(0.996264)"/>
       <use xlink:href="#CMR17-30" transform="translate(45.690477 0) scale(0.996264)"/>
       <use xlink:href="#CMR17-30" transform="translate(91.380954 0) scale(0.996264)"/>
      </g>
     </g>
    </g>
    <g id="xtick_6">
     <g id="line2d_6">
      <g>
       <use xlink:href="#mc7828ff591" x="344.138621" y="230.354817" style="stroke: #000000; stroke-width: 0.8"/>
      </g>
     </g>
     <g id="text_6">
      <!-- $\mathdefault{500}$ -->
      <g transform="translate(336.666618 244.453137) scale(0.1 -0.1)">
       <defs>
        <path id="CMR17-35" d="M 730 3750 
C 794 3724 1056 3641 1325 3641 
C 1920 3641 2246 3961 2432 4140 
C 2432 4191 2432 4224 2394 4224 
C 2387 4224 2374 4224 2323 4198 
C 2099 4102 1837 4032 1517 4032 
C 1325 4032 1037 4055 723 4191 
C 653 4224 640 4224 634 4224 
C 602 4224 595 4217 595 4090 
L 595 2231 
C 595 2113 595 2080 659 2080 
C 691 2080 704 2093 736 2139 
C 941 2435 1222 2560 1542 2560 
C 1766 2560 2246 2415 2246 1293 
C 2246 1087 2246 716 2054 422 
C 1894 159 1645 25 1370 25 
C 947 25 518 319 403 812 
C 429 806 480 793 506 793 
C 589 793 749 838 749 1036 
C 749 1209 627 1280 506 1280 
C 358 1280 262 1190 262 1011 
C 262 454 704 -128 1382 -128 
C 2042 -128 2669 441 2669 1267 
C 2669 2054 2170 2662 1549 2662 
C 1222 2662 947 2540 730 2304 
L 730 3750 
z
" transform="scale(0.015625)"/>
       </defs>
       <use xlink:href="#CMR17-35" transform="scale(0.996264)"/>
       <use xlink:href="#CMR17-30" transform="translate(45.690477 0) scale(0.996264)"/>
       <use xlink:href="#CMR17-30" transform="translate(91.380954 0) scale(0.996264)"/>
      </g>
     </g>
    </g>
    <g id="text_7">
     <!-- Iteration -->
     <g transform="translate(189.603009 257.673444) scale(0.1 -0.1)">
      <defs>
       <path id="NimbusSanL-Regu-49" d="M 1242 4672 
L 640 4672 
L 640 0 
L 1242 0 
L 1242 4672 
z
" transform="scale(0.015625)"/>
       <path id="NimbusSanL-Regu-74" d="M 1626 3328 
L 1075 3328 
L 1075 4249 
L 544 4249 
L 544 3328 
L 90 3328 
L 90 2892 
L 544 2892 
L 544 402 
C 544 64 774 -128 1190 -128 
C 1318 -128 1446 -116 1626 -84 
L 1626 364 
C 1555 345 1472 339 1370 339 
C 1139 339 1075 402 1075 634 
L 1075 2892 
L 1626 2892 
L 1626 3328 
z
" transform="scale(0.015625)"/>
       <path id="NimbusSanL-Regu-65" d="M 3283 1484 
C 3283 1998 3245 2311 3149 2565 
C 2931 3123 2419 3456 1792 3456 
C 858 3456 256 2734 256 1619 
C 256 545 838 -128 1779 -128 
C 2547 -128 3078 307 3213 1018 
L 2675 1018 
C 2528 588 2227 364 1798 364 
C 1459 364 1171 514 992 787 
C 864 974 819 1161 813 1484 
L 3283 1484 
z
M 826 1920 
C 870 2552 1248 2963 1786 2963 
C 2310 2963 2714 2519 2714 1959 
C 2714 1946 2714 1933 2707 1920 
L 826 1920 
z
" transform="scale(0.015625)"/>
       <path id="NimbusSanL-Regu-72" d="M 442 3328 
L 442 0 
L 979 0 
L 979 1727 
C 979 2203 1101 2514 1357 2698 
C 1523 2819 1683 2857 2054 2863 
L 2054 3404 
C 1965 3449 1920 3456 1850 3456 
C 1504 3456 1242 3251 934 2750 
L 934 3328 
L 442 3328 
z
" transform="scale(0.015625)"/>
       <path id="NimbusSanL-Regu-61" d="M 3424 332 
C 3366 320 3341 320 3309 320 
C 3123 320 3021 415 3021 581 
L 3021 2542 
C 3021 3135 2586 3456 1760 3456 
C 1274 3456 870 3315 646 3065 
C 493 2893 429 2702 416 2370 
L 954 2370 
C 998 2778 1242 2963 1741 2963 
C 2221 2963 2490 2784 2490 2466 
L 2490 2326 
C 2490 2103 2355 2007 1933 1956 
C 1178 1861 1062 1835 858 1753 
C 467 1593 269 1294 269 861 
C 269 256 691 -128 1370 -128 
C 1792 -128 2131 19 2509 364 
C 2547 25 2714 -128 3059 -128 
C 3168 -128 3251 -116 3424 -71 
L 3424 332 
z
M 2490 1071 
C 2490 893 2438 785 2278 638 
C 2061 441 1798 339 1485 339 
C 1069 339 826 536 826 874 
C 826 1224 1062 1402 1632 1485 
C 2195 1562 2310 1587 2490 1670 
L 2490 1071 
z
" transform="scale(0.015625)"/>
       <path id="NimbusSanL-Regu-69" d="M 960 3358 
L 429 3358 
L 429 0 
L 960 0 
L 960 3358 
z
M 960 4672 
L 422 4672 
L 422 3999 
L 960 3999 
L 960 4672 
z
" transform="scale(0.015625)"/>
       <path id="NimbusSanL-Regu-6f" d="M 1741 3456 
C 800 3456 230 2784 230 1663 
C 230 543 794 -128 1747 -128 
C 2688 -128 3264 543 3264 1638 
C 3264 2791 2707 3456 1741 3456 
z
M 1747 2963 
C 2349 2963 2707 2472 2707 1644 
C 2707 861 2336 364 1747 364 
C 1152 364 787 855 787 1663 
C 787 2466 1152 2963 1747 2963 
z
" transform="scale(0.015625)"/>
       <path id="NimbusSanL-Regu-6e" d="M 448 3328 
L 448 0 
L 986 0 
L 986 1835 
C 986 2539 1344 2988 1894 2988 
C 2317 2988 2586 2732 2586 2328 
L 2586 0 
L 3117 0 
L 3117 2539 
C 3117 3097 2701 3456 2054 3456 
C 1555 3456 1235 3263 941 2796 
L 941 3328 
L 448 3328 
z
" transform="scale(0.015625)"/>
      </defs>
      <use xlink:href="#NimbusSanL-Regu-49" transform="scale(0.996264)"/>
      <use xlink:href="#NimbusSanL-Regu-74" transform="translate(27.69517 0) scale(0.996264)"/>
      <use xlink:href="#NimbusSanL-Regu-65" transform="translate(55.390339 0) scale(0.996264)"/>
      <use xlink:href="#NimbusSanL-Regu-72" transform="translate(110.782016 0) scale(0.996264)"/>
      <use xlink:href="#NimbusSanL-Regu-61" transform="translate(142.961149 0) scale(0.996264)"/>
      <use xlink:href="#NimbusSanL-Regu-74" transform="translate(198.352826 0) scale(0.996264)"/>
      <use xlink:href="#NimbusSanL-Regu-69" transform="translate(226.047996 0) scale(0.996264)"/>
      <use xlink:href="#NimbusSanL-Regu-6f" transform="translate(248.16478 0) scale(0.996264)"/>
      <use xlink:href="#NimbusSanL-Regu-6e" transform="translate(303.556457 0) scale(0.996264)"/>
     </g>
    </g>
   </g>
   <g id="matplotlib.axis_2">
    <g id="ytick_1">
     <g id="line2d_7">
      <defs>
       <path id="mbd370f69cd" d="M 0 0 
L -3.5 0 
" style="stroke: #000000; stroke-width: 0.8"/>
      </defs>
      <g>
       <use xlink:href="#mbd370f69cd" x="40.150386" y="198.581121" style="stroke: #000000; stroke-width: 0.8"/>
      </g>
     </g>
     <g id="text_8">
      <!-- $\mathdefault{−7}$ -->
      <g transform="translate(20.420307 202.130281) scale(0.1 -0.1)">
       <defs>
        <path id="CMSY10-0" d="M 4218 1472 
C 4326 1472 4442 1472 4442 1600 
C 4442 1728 4326 1728 4218 1728 
L 755 1728 
C 646 1728 531 1728 531 1600 
C 531 1472 646 1472 755 1472 
L 4218 1472 
z
" transform="scale(0.015625)"/>
        <path id="CMR17-37" d="M 2886 3955 
L 2886 4096 
L 1382 4096 
C 634 4096 621 4166 595 4288 
L 480 4288 
L 294 3104 
L 410 3104 
C 429 3226 474 3552 550 3673 
C 589 3724 1062 3724 1171 3724 
L 2579 3724 
L 1869 2670 
C 1395 1961 1069 1003 1069 166 
C 1069 89 1069 -128 1299 -128 
C 1530 -128 1530 89 1530 172 
L 1530 466 
C 1530 1514 1709 2204 2003 2644 
L 2886 3955 
z
" transform="scale(0.015625)"/>
       </defs>
       <use xlink:href="#CMSY10-0" transform="scale(0.996264)"/>
       <use xlink:href="#CMR17-37" transform="translate(77.487468 0) scale(0.996264)"/>
      </g>
     </g>
    </g>
    <g id="ytick_2">
     <g id="line2d_8">
      <g>
       <use xlink:href="#mbd370f69cd" x="40.150386" y="161.014729" style="stroke: #000000; stroke-width: 0.8"/>
      </g>
     </g>
     <g id="text_9">
      <!-- $\mathdefault{−6}$ -->
      <g transform="translate(20.420307 164.563889) scale(0.1 -0.1)">
       <defs>
        <path id="CMR17-36" d="M 678 2198 
C 678 3712 1395 4076 1811 4076 
C 1946 4076 2272 4049 2400 3782 
C 2298 3782 2106 3782 2106 3558 
C 2106 3385 2246 3328 2336 3328 
C 2394 3328 2566 3353 2566 3571 
C 2566 3987 2246 4224 1805 4224 
C 1043 4224 243 3411 243 2011 
C 243 257 966 -128 1478 -128 
C 2099 -128 2688 431 2688 1295 
C 2688 2101 2170 2688 1517 2688 
C 1126 2688 838 2430 678 1979 
L 678 2198 
z
M 1478 25 
C 691 25 691 1212 691 1450 
C 691 1914 909 2585 1504 2585 
C 1613 2585 1926 2585 2138 2140 
C 2253 1889 2253 1624 2253 1302 
C 2253 954 2253 696 2118 438 
C 1978 173 1773 25 1478 25 
z
" transform="scale(0.015625)"/>
       </defs>
       <use xlink:href="#CMSY10-0" transform="scale(0.996264)"/>
       <use xlink:href="#CMR17-36" transform="translate(77.487468 0) scale(0.996264)"/>
      </g>
     </g>
    </g>
    <g id="ytick_3">
     <g id="line2d_9">
      <g>
       <use xlink:href="#mbd370f69cd" x="40.150386" y="123.448337" style="stroke: #000000; stroke-width: 0.8"/>
      </g>
     </g>
     <g id="text_10">
      <!-- $\mathdefault{−5}$ -->
      <g transform="translate(20.420307 126.997497) scale(0.1 -0.1)">
       <use xlink:href="#CMSY10-0" transform="scale(0.996264)"/>
       <use xlink:href="#CMR17-35" transform="translate(77.487468 0) scale(0.996264)"/>
      </g>
     </g>
    </g>
    <g id="ytick_4">
     <g id="line2d_10">
      <g>
       <use xlink:href="#mbd370f69cd" x="40.150386" y="85.881945" style="stroke: #000000; stroke-width: 0.8"/>
      </g>
     </g>
     <g id="text_11">
      <!-- $\mathdefault{−4}$ -->
      <g transform="translate(20.420307 89.431105) scale(0.1 -0.1)">
       <use xlink:href="#CMSY10-0" transform="scale(0.996264)"/>
       <use xlink:href="#CMR17-34" transform="translate(77.487468 0) scale(0.996264)"/>
      </g>
     </g>
    </g>
    <g id="ytick_5">
     <g id="line2d_11">
      <g>
       <use xlink:href="#mbd370f69cd" x="40.150386" y="48.315552" style="stroke: #000000; stroke-width: 0.8"/>
      </g>
     </g>
     <g id="text_12">
      <!-- $\mathdefault{−3}$ -->
      <g transform="translate(20.420307 51.864712) scale(0.1 -0.1)">
       <use xlink:href="#CMSY10-0" transform="scale(0.996264)"/>
       <use xlink:href="#CMR17-33" transform="translate(77.487468 0) scale(0.996264)"/>
      </g>
     </g>
    </g>
    <g id="ytick_6">
     <g id="line2d_12">
      <g>
       <use xlink:href="#mbd370f69cd" x="40.150386" y="10.74916" style="stroke: #000000; stroke-width: 0.8"/>
      </g>
     </g>
     <g id="text_13">
      <!-- $\mathdefault{−2}$ -->
      <g transform="translate(20.420307 14.29832) scale(0.1 -0.1)">
       <use xlink:href="#CMSY10-0" transform="scale(0.996264)"/>
       <use xlink:href="#CMR17-32" transform="translate(77.487468 0) scale(0.996264)"/>
      </g>
     </g>
    </g>
    <g id="text_14">
     <!-- Linear Solver residual - Blade_18 -->
     <g transform="translate(14.29832 192.016856) rotate(-90) scale(0.1 -0.1)">
      <defs>
       <path id="NimbusSanL-Regu-4c" d="M 1107 4672 
L 512 4672 
L 512 0 
L 3411 0 
L 3411 524 
L 1107 524 
L 1107 4672 
z
" transform="scale(0.015625)"/>
       <path id="NimbusSanL-Regu-53" d="M 3814 3295 
C 3808 4204 3181 4736 2106 4736 
C 1082 4736 448 4211 448 3372 
C 448 2806 749 2450 1363 2291 
L 2522 1986 
C 3110 1833 3379 1598 3379 1236 
C 3379 988 3245 733 3046 593 
C 2861 466 2566 396 2189 396 
C 1683 396 1338 517 1114 784 
C 941 988 864 1210 870 1496 
L 307 1496 
C 314 1070 397 790 582 536 
C 902 102 1440 -128 2150 -128 
C 2707 -128 3162 0 3462 230 
C 3776 479 3974 892 3974 1293 
C 3974 1865 3616 2284 2982 2456 
L 1811 2768 
C 1248 2920 1043 3098 1043 3454 
C 1043 3925 1459 4236 2086 4236 
C 2829 4236 3245 3899 3251 3295 
L 3814 3295 
z
" transform="scale(0.015625)"/>
       <path id="NimbusSanL-Regu-6c" d="M 973 4672 
L 435 4672 
L 435 0 
L 973 0 
L 973 4672 
z
" transform="scale(0.015625)"/>
       <path id="NimbusSanL-Regu-76" d="M 1824 0 
L 3110 3328 
L 2509 3328 
L 1562 629 
L 666 3328 
L 64 3328 
L 1242 0 
L 1824 0 
z
" transform="scale(0.015625)"/>
       <path id="NimbusSanL-Regu-73" d="M 2803 2428 
C 2797 3084 2362 3456 1587 3456 
C 806 3456 301 3052 301 2434 
C 301 1912 570 1663 1363 1472 
L 1862 1351 
C 2234 1262 2381 1129 2381 887 
C 2381 574 2067 364 1600 364 
C 1312 364 1069 447 934 587 
C 851 683 813 778 781 1014 
L 218 1014 
C 243 243 678 -128 1555 -128 
C 2400 -128 2938 288 2938 931 
C 2938 1428 2656 1702 1990 1861 
L 1478 1982 
C 1043 2084 858 2224 858 2459 
C 858 2765 1133 2963 1568 2963 
C 1997 2963 2227 2778 2240 2428 
L 2803 2428 
z
" transform="scale(0.015625)"/>
       <path id="NimbusSanL-Regu-64" d="M 3168 4672 
L 2637 4672 
L 2637 2937 
C 2413 3276 2054 3456 1606 3456 
C 736 3456 166 2759 166 1695 
C 166 568 723 -128 1626 -128 
C 2086 -128 2406 44 2694 460 
L 2694 19 
L 3168 19 
L 3168 4672 
z
M 1696 2956 
C 2272 2956 2637 2447 2637 1651 
C 2637 880 2266 371 1702 371 
C 1114 371 723 887 723 1663 
C 723 2440 1114 2956 1696 2956 
z
" transform="scale(0.015625)"/>
       <path id="NimbusSanL-Regu-75" d="M 3085 19 
L 3085 3328 
L 2554 3328 
L 2554 1454 
C 2554 780 2195 339 1638 339 
C 1216 339 947 591 947 988 
L 947 3328 
L 416 3328 
L 416 780 
C 416 230 832 -128 1485 -128 
C 1978 -128 2291 44 2605 484 
L 2605 19 
L 3085 19 
z
" transform="scale(0.015625)"/>
       <path id="NimbusSanL-Regu-2d" d="M 1818 1996 
L 294 1996 
L 294 1536 
L 1818 1536 
L 1818 1996 
z
" transform="scale(0.015625)"/>
       <path id="NimbusSanL-Regu-42" d="M 506 0 
L 2611 0 
C 3053 0 3379 121 3629 390 
C 3859 632 3987 961 3987 1321 
C 3987 1878 3731 2214 3136 2444 
C 3558 2643 3782 2994 3782 3476 
C 3782 3821 3654 4127 3411 4345 
C 3168 4569 2848 4672 2400 4672 
L 506 4672 
L 506 0 
z
M 1101 2636 
L 1101 4147 
L 2253 4147 
C 2586 4147 2771 4101 2931 3977 
C 3098 3847 3187 3652 3187 3391 
C 3187 3138 3098 2936 2931 2806 
C 2771 2682 2586 2636 2253 2636 
L 1101 2636 
z
M 1101 524 
L 1101 2112 
L 2554 2112 
C 2842 2112 3034 2042 3174 1890 
C 3315 1745 3392 1542 3392 1315 
C 3392 1093 3315 891 3174 746 
C 3034 594 2842 524 2554 524 
L 1101 524 
z
" transform="scale(0.015625)"/>
       <path id="NimbusSanL-Regu-31" d="M 1658 3232 
L 1658 0 
L 2221 0 
L 2221 4537 
L 1850 4537 
C 1651 3840 1523 3744 653 3635 
L 653 3232 
L 1658 3232 
z
" transform="scale(0.015625)"/>
       <path id="NimbusSanL-Regu-38" d="M 2502 2399 
C 2970 2681 3123 2910 3123 3337 
C 3123 4044 2566 4544 1760 4544 
C 960 4544 397 4044 397 3337 
C 397 2917 550 2687 1011 2399 
C 493 2150 237 1774 237 1276 
C 237 447 864 -128 1760 -128 
C 2656 -128 3283 447 3283 1270 
C 3283 1774 3027 2150 2502 2399 
z
M 1760 4044 
C 2240 4044 2547 3764 2547 3324 
C 2547 2904 2234 2624 1760 2624 
C 1286 2624 973 2904 973 3331 
C 973 3764 1286 4044 1760 4044 
z
M 1760 2150 
C 2323 2150 2707 1793 2707 1264 
C 2707 728 2323 371 1747 371 
C 1197 371 813 734 813 1264 
C 813 1793 1197 2150 1760 2150 
z
" transform="scale(0.015625)"/>
      </defs>
      <use xlink:href="#NimbusSanL-Regu-4c" transform="scale(0.996264)"/>
      <use xlink:href="#NimbusSanL-Regu-69" transform="translate(55.391677 0) scale(0.996264)"/>
      <use xlink:href="#NimbusSanL-Regu-6e" transform="translate(77.508461 0) scale(0.996264)"/>
      <use xlink:href="#NimbusSanL-Regu-65" transform="translate(132.900138 0) scale(0.996264)"/>
      <use xlink:href="#NimbusSanL-Regu-61" transform="translate(188.291815 0) scale(0.996264)"/>
      <use xlink:href="#NimbusSanL-Regu-72" transform="translate(243.683492 0) scale(0.996264)"/>
      <use xlink:href="#NimbusSanL-Regu-53" transform="translate(304.553892 0) scale(0.996264)"/>
      <use xlink:href="#NimbusSanL-Regu-6f" transform="translate(371.003923 0) scale(0.996264)"/>
      <use xlink:href="#NimbusSanL-Regu-6c" transform="translate(426.3956 0) scale(0.996264)"/>
      <use xlink:href="#NimbusSanL-Regu-76" transform="translate(448.512384 0) scale(0.996264)"/>
      <use xlink:href="#NimbusSanL-Regu-65" transform="translate(495.834955 0) scale(0.996264)"/>
      <use xlink:href="#NimbusSanL-Regu-72" transform="translate(551.226632 0) scale(0.996264)"/>
      <use xlink:href="#NimbusSanL-Regu-72" transform="translate(612.097031 0) scale(0.996264)"/>
      <use xlink:href="#NimbusSanL-Regu-65" transform="translate(645.272261 0) scale(0.996264)"/>
      <use xlink:href="#NimbusSanL-Regu-73" transform="translate(700.663938 0) scale(0.996264)"/>
      <use xlink:href="#NimbusSanL-Regu-69" transform="translate(750.477138 0) scale(0.996264)"/>
      <use xlink:href="#NimbusSanL-Regu-64" transform="translate(772.593923 0) scale(0.996264)"/>
      <use xlink:href="#NimbusSanL-Regu-75" transform="translate(827.9856 0) scale(0.996264)"/>
      <use xlink:href="#NimbusSanL-Regu-61" transform="translate(883.377277 0) scale(0.996264)"/>
      <use xlink:href="#NimbusSanL-Regu-6c" transform="translate(938.768954 0) scale(0.996264)"/>
      <use xlink:href="#NimbusSanL-Regu-2d" transform="translate(988.580908 0) scale(0.996264)"/>
      <use xlink:href="#NimbusSanL-Regu-42" transform="translate(1049.451307 0) scale(0.996264)"/>
      <use xlink:href="#NimbusSanL-Regu-6c" transform="translate(1115.901338 0) scale(0.996264)"/>
      <use xlink:href="#NimbusSanL-Regu-61" transform="translate(1138.018122 0) scale(0.996264)"/>
      <use xlink:href="#NimbusSanL-Regu-64" transform="translate(1193.409799 0) scale(0.996264)"/>
      <use xlink:href="#NimbusSanL-Regu-65" transform="translate(1248.801476 0) scale(0.996264)"/>
      <use xlink:href="#NimbusSanL-Regu-31" transform="translate(1340.058718 0) scale(0.996264)"/>
      <use xlink:href="#NimbusSanL-Regu-38" transform="translate(1395.450395 0) scale(0.996264)"/>
      <path d="M 1310.170494 0 
L 1340.058718 0 
L 1340.058718 0.3985 
L 1310.170494 0.3985 
L 1310.170494 0 
z
"/>
     </g>
    </g>
   </g>
   <g id="line2d_13">
    <path d="M 55.368567 87.760129 
L 55.946108 87.126305 
L 57.101188 43.430581 
L 57.678728 112.74108 
L 58.256268 96.638621 
L 58.833808 117.655543 
L 59.411348 101.184013 
L 59.988888 116.166674 
L 60.566428 99.872402 
L 61.143969 109.266523 
L 61.721509 94.999301 
L 62.299049 102.5655 
L 62.876589 86.770025 
L 63.454129 87.422986 
L 64.031669 81.773666 
L 64.609209 59.559875 
L 65.186749 43.566667 
L 65.764289 121.743958 
L 66.91937 90.677974 
L 67.49691 109.515096 
L 68.07445 93.109082 
L 68.65199 104.701655 
L 69.22953 87.952571 
L 69.80707 94.409058 
L 70.38461 98.326578 
L 70.96215 100.531597 
L 71.53969 100.243038 
L 72.694771 69.744751 
L 73.849851 46.352592 
L 74.427391 46.80262 
L 75.004931 44.966112 
L 75.582471 103.156942 
L 76.160011 87.84519 
L 76.737551 106.464678 
L 77.315092 91.933444 
L 77.892632 102.949883 
L 78.470172 101.389362 
L 79.047712 86.925212 
L 79.625252 95.010012 
L 80.202792 95.255549 
L 80.780332 81.952212 
L 81.357872 71.873257 
L 81.935412 58.404672 
L 83.090493 39.699565 
L 83.668033 99.222361 
L 84.245573 119.325172 
L 85.400653 86.606655 
L 85.978193 97.335497 
L 86.555733 100.894563 
L 87.133273 101.700923 
L 87.710813 97.581873 
L 88.288354 89.785661 
L 88.865894 70.874394 
L 90.020974 42.510651 
L 90.598514 119.323714 
L 91.753594 87.930644 
L 92.331134 106.305129 
L 92.908674 90.647661 
L 93.486215 99.747715 
L 94.063755 103.829328 
L 95.218835 96.82552 
L 95.796375 85.380703 
L 96.373915 64.198181 
L 96.951455 47.98565 
L 97.528995 44.271639 
L 98.106535 98.583322 
L 98.684075 130.400759 
L 99.839156 99.471995 
L 100.416696 120.454451 
L 101.571776 90.416806 
L 102.149316 97.805733 
L 102.726856 99.170572 
L 103.304396 95.069331 
L 103.881936 93.42837 
L 104.459477 75.908034 
L 105.037017 64.861104 
L 105.614557 48.377756 
L 106.192097 18.674817 
L 106.769637 126.249323 
L 107.924717 93.923176 
L 108.502257 111.346274 
L 109.079797 94.455023 
L 109.657338 105.263502 
L 110.234878 87.744067 
L 110.812418 89.014555 
L 111.389958 94.744885 
L 112.545038 72.103034 
L 113.122578 53.106666 
L 113.700118 27.667324 
L 114.277658 87.125837 
L 114.855198 118.346315 
L 116.010279 87.825449 
L 116.587819 106.877392 
L 117.165359 90.279225 
L 117.742899 99.919204 
L 118.320439 101.569683 
L 118.897979 91.197322 
L 119.475519 92.166584 
L 120.053059 86.575011 
L 120.6306 77.374965 
L 121.20814 62.054458 
L 121.78568 41.318741 
L 122.36322 129.865106 
L 123.5183 97.990565 
L 124.09584 117.845031 
L 124.67338 100.821761 
L 125.25092 107.708258 
L 125.828461 91.451746 
L 126.406001 97.243229 
L 126.983541 98.204689 
L 128.138621 87.145044 
L 128.716161 70.649919 
L 129.293701 45.880698 
L 129.871241 38.135624 
L 130.448781 91.805789 
L 131.026321 123.209694 
L 132.181402 92.046328 
L 132.758942 109.959587 
L 133.336482 94.872265 
L 133.914022 102.749509 
L 134.491562 104.369111 
L 135.069102 105.005531 
L 135.646642 95.881218 
L 136.224182 98.508349 
L 136.801723 76.522748 
L 137.379263 36.404757 
L 137.956803 97.298692 
L 138.534343 130.684464 
L 139.689423 99.394757 
L 140.266963 118.283619 
L 140.844503 99.637787 
L 141.422043 107.826797 
L 141.999583 90.527463 
L 142.577124 89.675521 
L 143.154664 86.291611 
L 144.309744 35.318626 
L 144.887284 117.197787 
L 146.042364 90.360299 
L 146.619904 119.271209 
L 147.197444 100.803105 
L 147.774985 117.234127 
L 148.352525 96.727373 
L 148.930065 102.64633 
L 149.507605 103.89745 
L 150.085145 88.547466 
L 150.662685 102.632809 
L 151.240225 72.190836 
L 151.817765 58.043902 
L 152.395305 30.079199 
L 152.972846 113.586228 
L 154.127926 86.715004 
L 154.705466 116.395272 
L 155.283006 99.49008 
L 155.860546 113.838449 
L 156.438086 94.760571 
L 157.015626 99.747769 
L 157.593166 98.788372 
L 158.748247 91.061279 
L 159.325787 61.958406 
L 159.903327 42.171757 
L 160.480867 123.323402 
L 161.635947 96.169328 
L 162.213487 129.383563 
L 163.368567 97.411782 
L 163.946108 112.851709 
L 164.523648 94.405958 
L 165.101188 102.799533 
L 165.678728 103.649746 
L 166.256268 102.317153 
L 166.833808 94.184182 
L 167.411348 81.646278 
L 168.566428 24.507416 
L 169.143969 103.626138 
L 169.721509 89.943093 
L 170.299049 122.037945 
L 171.454129 90.045713 
L 172.031669 104.674187 
L 172.609209 111.50125 
L 173.186749 88.404951 
L 173.764289 106.468173 
L 174.341829 102.501255 
L 174.91937 97.313947 
L 176.65199 40.922754 
L 177.22953 96.807167 
L 177.80707 130.721156 
L 178.96215 98.346458 
L 179.53969 117.860949 
L 180.117231 100.436024 
L 180.694771 107.119182 
L 181.272311 89.97206 
L 181.849851 96.110035 
L 182.427391 95.054365 
L 183.004931 90.406945 
L 183.582471 91.215808 
L 184.160011 69.576194 
L 184.737551 28.409208 
L 185.315092 97.874661 
L 185.892632 126.496144 
L 187.047712 88.701726 
L 187.625252 105.746528 
L 188.202792 89.451703 
L 189.357872 107.128678 
L 189.935412 86.422153 
L 190.512952 100.751462 
L 191.090493 86.211015 
L 191.668033 86.505151 
L 192.245573 69.886158 
L 192.823113 49.399601 
L 193.400653 24.932584 
L 193.978193 119.168717 
L 194.555733 100.14858 
L 195.133273 112.623341 
L 195.710813 95.573578 
L 196.288354 107.021046 
L 196.865894 90.363893 
L 197.443434 99.78094 
L 198.020974 87.985817 
L 198.598514 96.20558 
L 199.176054 93.706414 
L 199.753594 87.941823 
L 200.331134 69.605065 
L 200.908674 54.880524 
L 201.486215 27.185904 
L 202.063755 115.5028 
L 202.641295 99.279416 
L 203.218835 119.321786 
L 203.796375 101.691593 
L 204.373915 110.960253 
L 204.951455 93.09209 
L 205.528995 98.873879 
L 206.106535 101.408609 
L 206.684075 100.55703 
L 207.261616 98.154779 
L 207.839156 83.168097 
L 208.416696 71.296559 
L 209.571776 39.315268 
L 210.149316 116.208578 
L 210.726856 100.508724 
L 211.304396 120.515217 
L 212.459477 85.882688 
L 213.037017 92.763683 
L 213.614557 97.667999 
L 214.192097 92.505951 
L 214.769637 98.145237 
L 215.347177 76.020704 
L 216.502257 43.247185 
L 217.079797 90.95668 
L 217.657338 121.440711 
L 218.812418 89.444114 
L 219.389958 108.410296 
L 219.967498 92.426501 
L 220.545038 103.79297 
L 221.122578 86.237771 
L 221.700118 89.67994 
L 222.277658 87.959928 
L 222.855198 101.037368 
L 223.432739 82.673432 
L 224.010279 68.970149 
L 224.587819 59.133345 
L 225.165359 46.431842 
L 225.742899 47.244501 
L 226.320439 47.198949 
L 226.897979 48.07474 
L 227.475519 50.634898 
L 228.053059 39.492177 
L 228.6306 103.971036 
L 229.20814 88.315363 
L 229.78568 106.407347 
L 230.36322 90.947177 
L 230.94076 102.769111 
L 231.5183 86.980724 
L 232.09584 93.484605 
L 232.67338 95.174419 
L 233.25092 94.170229 
L 233.828461 89.137182 
L 234.983541 52.461507 
L 235.561081 38.491488 
L 236.138621 111.008264 
L 236.716161 96.129131 
L 237.293701 116.481444 
L 238.448781 86.552707 
L 239.026321 96.261406 
L 239.603862 94.407095 
L 240.181402 86.377837 
L 240.758942 93.248682 
L 241.336482 72.189952 
L 241.914022 55.561306 
L 242.491562 43.324955 
L 243.069102 85.999596 
L 243.646642 117.828626 
L 244.801723 88.107476 
L 245.379263 108.598824 
L 245.956803 92.380867 
L 246.534343 99.830973 
L 247.111883 91.278504 
L 247.689423 100.044779 
L 248.266963 74.399595 
L 248.844503 40.394674 
L 249.422043 116.992143 
L 250.577124 89.642645 
L 251.154664 122.88597 
L 252.309744 92.129774 
L 252.887284 108.068194 
L 253.464824 89.476086 
L 254.042364 98.05272 
L 254.619904 94.575128 
L 255.197444 92.805817 
L 255.774985 99.545971 
L 256.930065 31.665219 
L 257.507605 113.131649 
L 258.085145 99.082967 
L 258.662685 133.67927 
L 259.817765 100.750514 
L 260.395305 118.563431 
L 260.972846 101.104105 
L 261.550386 113.576525 
L 262.127926 91.427461 
L 262.705466 90.104327 
L 263.283006 92.8504 
L 263.860546 90.448157 
L 264.438086 88.629976 
L 265.593166 44.955997 
L 266.170706 97.772501 
L 266.748247 131.768278 
L 267.903327 99.548964 
L 268.480867 122.458648 
L 269.635947 89.486151 
L 270.213487 94.309705 
L 270.791027 91.172194 
L 271.368567 94.015003 
L 271.946108 94.803162 
L 272.523648 93.132783 
L 273.678728 70.515461 
L 274.256268 47.128507 
L 274.833808 44.226562 
L 275.411348 128.698269 
L 276.566428 95.827002 
L 277.143969 118.52954 
L 277.721509 101.755653 
L 278.299049 115.272931 
L 278.876589 97.937389 
L 279.454129 104.941122 
L 280.031669 88.529192 
L 280.609209 91.25965 
L 281.186749 88.780934 
L 281.764289 83.574077 
L 282.91937 55.750151 
L 283.49691 40.619704 
L 284.07445 102.712049 
L 284.65199 203.823682 
L 289.272311 112.289402 
L 290.427391 91.018639 
L 291.004931 152.503792 
L 292.737551 110.780336 
L 293.315092 97.742054 
L 293.892632 134.904921 
L 295.625252 90.150103 
L 296.202792 108.900154 
L 296.780332 92.224725 
L 297.357872 103.638229 
L 297.935412 100.915654 
L 298.512952 104.086508 
L 299.090493 86.804836 
L 299.668033 90.35016 
L 300.245573 86.207817 
L 300.823113 83.83432 
L 301.400653 75.264555 
L 301.978193 62.302713 
L 303.133273 42.692315 
L 303.710813 207.903551 
L 308.908674 103.73826 
L 309.486215 92.821498 
L 310.063755 151.320574 
L 311.796375 107.497232 
L 312.373915 94.151966 
L 312.951455 130.275776 
L 314.684075 88.018744 
L 315.261616 104.773161 
L 315.839156 113.382331 
L 316.416696 95.464725 
L 316.994236 111.60066 
L 317.571776 93.27985 
L 318.149316 104.834086 
L 318.726856 92.061276 
L 319.304396 96.990383 
L 319.881936 98.570466 
L 321.614557 49.207469 
L 322.192097 35.894709 
L 322.769637 105.736776 
L 323.347177 90.273759 
L 323.924717 105.777363 
L 324.502257 89.53829 
L 325.079797 99.231405 
L 325.657338 103.111898 
L 326.234878 87.997 
L 326.812418 95.372689 
L 327.389958 97.419942 
L 328.545038 72.8899 
L 329.122578 142.269251 
L 330.277658 119.875891 
L 332.010279 93.17066 
L 332.587819 168.675174 
L 334.897979 122.651835 
L 336.6306 87.605531 
L 337.20814 128.45719 
L 338.36322 99.581032 
L 338.94076 121.385426 
L 339.5183 99.909228 
L 340.67338 116.517275 
L 341.25092 96.385005 
L 341.828461 100.855286 
L 342.406001 99.100176 
L 342.983541 103.275455 
L 343.561081 99.941973 
L 344.138621 86.020729 
L 344.716161 75.202379 
L 345.293701 67.517492 
L 345.871241 48.093899 
L 346.448781 41.942299 
L 347.026321 119.826479 
L 347.603862 98.919888 
L 348.181402 112.462356 
L 348.758942 95.940956 
L 349.336482 108.368792 
L 349.914022 92.191366 
L 350.491562 101.878773 
L 351.069102 106.823877 
L 351.646642 104.371557 
L 353.379263 48.208578 
L 353.956803 42.688866 
L 354.534343 87.695486 
L 355.111883 89.544699 
L 355.689423 116.520475 
L 356.266963 100.899875 
L 356.844503 117.118715 
L 357.422043 101.37171 
L 357.999583 108.152069 
L 358.577124 90.934015 
L 359.154664 90.845237 
L 359.732204 88.531533 
L 359.732204 88.531533 
" clip-path="url(#p184a9f10a8)" style="fill: none; stroke: #1f77b4; stroke-width: 1.5; stroke-linecap: square"/>
   </g>
   <g id="line2d_14">
    <path d="M 55.368567 99.253358 
L 55.946108 107.407135 
L 56.523648 106.204349 
L 57.101188 93.20324 
L 57.678728 108.974417 
L 58.833808 88.628028 
L 59.411348 146.954422 
L 61.143969 108.992087 
L 61.721509 97.231949 
L 62.299049 129.923056 
L 63.454129 96.145317 
L 64.031669 108.594426 
L 64.609209 87.438702 
L 65.186749 92.030558 
L 65.764289 99.998557 
L 66.341829 90.004337 
L 66.91937 139.073578 
L 68.65199 98.525025 
L 69.22953 86.545205 
L 69.80707 109.69493 
L 70.38461 95.531173 
L 70.96215 108.813882 
L 71.53969 94.775365 
L 72.117231 107.534538 
L 72.694771 96.340154 
L 73.272311 88.32369 
L 73.849851 104.212188 
L 74.427391 89.452703 
L 75.004931 93.225093 
L 75.582471 92.20489 
L 76.160011 147.858354 
L 77.315092 122.220077 
L 78.470172 94.504069 
L 79.047712 124.185143 
L 80.202792 86.874307 
L 80.780332 103.81707 
L 81.357872 89.22583 
L 81.935412 96.713787 
L 82.512952 98.779052 
L 83.090493 100.068826 
L 83.668033 141.732953 
L 85.400653 97.878644 
L 85.978193 123.749287 
L 87.133273 93.172331 
L 87.710813 110.416346 
L 88.288354 97.68112 
L 88.865894 109.565621 
L 89.443434 93.488871 
L 90.020974 99.018372 
L 90.598514 88.19293 
L 91.176054 140.753969 
L 93.486215 86.846243 
L 94.063755 112.021745 
L 94.641295 97.145757 
L 95.218835 111.95662 
L 95.796375 96.235994 
L 96.373915 105.872371 
L 96.951455 90.25276 
L 97.528995 89.792854 
L 98.106535 95.343516 
L 98.684075 148.440511 
L 100.416696 106.606648 
L 100.994236 94.085091 
L 101.571776 124.10398 
L 102.726856 94.852784 
L 103.304396 114.016446 
L 103.881936 97.583061 
L 104.459477 106.155471 
L 105.037017 87.518927 
L 105.614557 93.319895 
L 106.192097 96.437311 
L 106.769637 123.02433 
L 107.924717 94.863708 
L 108.502257 126.529209 
L 109.657338 92.139506 
L 110.234878 111.24934 
L 110.812418 94.183743 
L 111.389958 108.197671 
L 111.967498 92.635009 
L 112.545038 99.282178 
L 113.122578 104.531312 
L 113.700118 92.553633 
L 114.277658 144.017568 
L 116.587819 89.798258 
L 117.165359 120.946095 
L 118.320439 93.426034 
L 118.897979 113.274067 
L 119.475519 98.300083 
L 120.053059 111.611223 
L 121.20814 86.653928 
L 121.78568 97.811521 
L 122.36322 153.601496 
L 124.09584 111.889725 
L 125.25092 87.690308 
L 125.828461 121.482945 
L 126.983541 95.098352 
L 127.561081 118.687918 
L 128.716161 88.964042 
L 129.293701 101.393201 
L 129.871241 100.462492 
L 130.448781 94.194103 
L 131.026321 156.770358 
L 132.758942 113.814882 
L 133.914022 87.761593 
L 134.491562 118.873434 
L 135.646642 89.119585 
L 136.224182 108.986019 
L 136.801723 91.752716 
L 137.379263 108.593631 
L 138.534343 86.84411 
L 139.111883 144.229725 
L 141.422043 87.405016 
L 141.999583 114.852187 
L 143.154664 86.820067 
L 143.732204 105.228568 
L 144.309744 89.89956 
L 144.887284 112.418552 
L 146.042364 90.932713 
L 146.619904 150.759818 
L 148.930065 93.098072 
L 149.507605 128.720496 
L 150.662685 98.723667 
L 151.240225 121.339913 
L 152.395305 86.173777 
L 152.972846 108.519245 
L 154.127926 87.285686 
L 154.705466 143.76355 
L 156.438086 100.233285 
L 157.015626 86.734815 
L 157.593166 118.082686 
L 158.748247 86.27506 
L 159.325787 108.951233 
L 159.903327 94.3874 
L 160.480867 111.976757 
L 161.635947 91.186925 
L 162.213487 151.04816 
L 164.523648 94.768376 
L 165.101188 129.876582 
L 166.256268 98.880383 
L 166.833808 123.114779 
L 167.988888 90.308044 
L 168.566428 107.924769 
L 169.721509 87.140323 
L 170.299049 141.275899 
L 172.609209 86.112702 
L 173.186749 116.986974 
L 174.341829 86.778104 
L 174.91937 107.594304 
L 175.49691 91.068061 
L 176.07445 105.585422 
L 176.65199 87.054046 
L 177.22953 87.782273 
L 177.80707 142.108295 
L 179.53969 97.935805 
L 180.117231 130.867898 
L 181.272311 98.237387 
L 181.849851 120.189747 
L 183.004931 86.902544 
L 183.582471 100.727043 
L 184.160011 110.820007 
L 184.737551 92.08392 
L 185.315092 153.856878 
L 187.625252 95.129504 
L 188.202792 126.06811 
L 189.357872 93.2471 
L 189.935412 111.742161 
L 190.512952 95.274305 
L 191.090493 109.062141 
L 191.668033 92.993502 
L 192.245573 102.183601 
L 192.823113 87.083951 
L 193.400653 94.176002 
L 193.978193 143.849196 
L 196.288354 89.243471 
L 196.865894 118.680813 
L 198.020974 89.5279 
L 198.598514 107.056308 
L 199.176054 93.337241 
L 199.753594 106.244885 
L 200.331134 94.214235 
L 200.908674 105.247074 
L 201.486215 92.333727 
L 202.063755 152.253171 
L 203.796375 112.203306 
L 204.951455 88.51499 
L 205.528995 119.044699 
L 206.684075 93.010762 
L 207.261616 112.156321 
L 207.839156 97.61188 
L 208.416696 108.013271 
L 208.994236 89.303294 
L 209.571776 93.801238 
L 210.149316 88.668511 
L 210.726856 142.574383 
L 212.459477 98.713684 
L 213.037017 128.572883 
L 214.192097 93.156562 
L 214.769637 111.79957 
L 215.347177 96.305635 
L 215.924717 111.421082 
L 216.502257 90.925547 
L 217.079797 93.868981 
L 217.657338 149.721257 
L 219.967498 89.701111 
L 220.545038 117.499144 
L 221.700118 85.980174 
L 222.277658 104.423822 
L 222.855198 86.620529 
L 223.432739 98.064326 
L 224.010279 106.218672 
L 224.587819 91.221037 
L 225.165359 101.328091 
L 225.742899 106.648634 
L 226.320439 88.466502 
L 227.475519 95.787888 
L 228.053059 105.655757 
L 228.6306 139.77768 
L 230.36322 99.129779 
L 230.94076 87.410091 
L 231.5183 117.617627 
L 232.67338 90.711931 
L 233.25092 110.065172 
L 233.828461 95.867685 
L 234.406001 111.796495 
L 234.983541 98.089191 
L 235.561081 114.831759 
L 236.138621 93.883507 
L 236.716161 149.038856 
L 238.448781 107.783858 
L 239.026321 95.056372 
L 239.603862 125.055979 
L 240.758942 94.726332 
L 241.336482 116.800261 
L 242.491562 88.153271 
L 243.069102 106.183047 
L 244.224182 87.155954 
L 244.801723 143.756523 
L 247.111883 89.984496 
L 247.689423 121.058664 
L 248.844503 89.942526 
L 249.422043 127.778348 
L 251.732204 87.028566 
L 252.309744 145.110041 
L 254.619904 91.46697 
L 255.197444 126.237993 
L 256.352525 96.646902 
L 256.930065 116.955036 
L 257.507605 117.593135 
L 258.662685 96.193331 
L 259.240225 158.833289 
L 260.972846 116.288668 
L 262.127926 91.908613 
L 262.705466 132.41071 
L 264.438086 92.139689 
L 265.015626 112.605933 
L 265.593166 99.973207 
L 266.170706 104.503133 
L 266.748247 94.653303 
L 267.325787 154.165292 
L 269.058407 113.16174 
L 270.213487 92.034233 
L 270.791027 136.649009 
L 272.523648 97.361601 
L 273.101188 120.27327 
L 274.256268 94.051875 
L 274.833808 92.498258 
L 275.411348 96.349391 
L 275.988888 86.604012 
L 276.566428 142.94902 
L 277.721509 119.428745 
L 278.876589 98.809414 
L 279.454129 86.968843 
L 280.031669 115.715768 
L 281.186749 86.630302 
L 281.764289 110.171493 
L 282.341829 97.657152 
L 282.91937 90.177851 
L 283.49691 113.9213 
L 284.07445 88.570218 
L 284.65199 116.920885 
L 287.53969 87.42565 
L 288.117231 218.331008 
L 292.737551 126.960208 
L 294.470172 95.052081 
L 295.047712 156.057482 
L 296.202792 130.056926 
L 297.935412 96.756241 
L 298.512952 133.239756 
L 300.245573 86.665737 
L 300.823113 108.475214 
L 301.400653 96.570679 
L 301.978193 115.69862 
L 302.555733 96.802182 
L 303.133273 86.223398 
L 303.710813 109.939431 
L 306.020974 86.445356 
L 306.598514 220.147291 
L 310.063755 153.101267 
L 312.951455 102.247328 
L 313.528995 92.49085 
L 314.106535 150.971032 
L 316.416696 98.383685 
L 316.994236 132.082101 
L 318.726856 86.301532 
L 319.304396 103.309207 
L 319.881936 110.550126 
L 320.459477 86.45577 
L 321.037017 105.920696 
L 321.614557 105.383579 
L 322.192097 92.510116 
L 322.769637 113.425342 
L 323.347177 95.663712 
L 323.924717 124.634433 
L 325.079797 90.008924 
L 325.657338 112.994541 
L 326.234878 97.589108 
L 326.812418 111.619766 
L 327.389958 94.880636 
L 327.967498 105.811061 
L 328.545038 93.789077 
L 329.122578 105.222774 
L 330.855198 87.395988 
L 331.432739 220.274817 
L 336.6306 116.691537 
L 337.78568 94.49013 
L 338.36322 153.222103 
L 340.09584 108.460406 
L 340.67338 94.782636 
L 341.25092 129.641409 
L 342.406001 98.028976 
L 342.983541 125.831263 
L 343.561081 113.780651 
L 345.293701 87.565593 
L 345.871241 111.571445 
L 346.448781 106.996318 
L 347.026321 142.854485 
L 348.758942 101.320218 
L 349.336482 88.77589 
L 349.914022 123.774403 
L 351.069102 94.04753 
L 351.646642 117.259367 
L 352.801723 88.556556 
L 353.379263 99.877977 
L 353.956803 96.107097 
L 354.534343 87.73568 
L 355.111883 141.336379 
L 356.844503 101.186697 
L 357.422043 89.73432 
L 357.999583 126.399972 
L 359.154664 98.987598 
L 359.732204 116.323745 
L 359.732204 116.323745 
" clip-path="url(#p184a9f10a8)" style="fill: none; stroke: #ff7f0e; stroke-width: 1.5; stroke-linecap: square"/>
   </g>
   <g id="patch_3">
    <path d="M 40.150386 230.354817 
L 40.150386 8.594817 
" style="fill: none; stroke: #000000; stroke-width: 0.8; stroke-linejoin: miter; stroke-linecap: square"/>
   </g>
   <g id="patch_4">
    <path d="M 374.950386 230.354817 
L 374.950386 8.594817 
" style="fill: none; stroke: #000000; stroke-width: 0.8; stroke-linejoin: miter; stroke-linecap: square"/>
   </g>
   <g id="patch_5">
    <path d="M 40.150386 230.354817 
L 374.950386 230.354817 
" style="fill: none; stroke: #000000; stroke-width: 0.8; stroke-linejoin: miter; stroke-linecap: square"/>
   </g>
   <g id="patch_6">
    <path d="M 40.150386 8.594817 
L 374.950386 8.594817 
" style="fill: none; stroke: #000000; stroke-width: 0.8; stroke-linejoin: miter; stroke-linecap: square"/>
   </g>
   <g id="legend_1">
    <g id="patch_7">
     <path d="M 47.150386 225.354817 
L 128.33557 225.354817 
Q 130.33557 225.354817 130.33557 223.354817 
L 130.33557 195.914203 
Q 130.33557 193.914203 128.33557 193.914203 
L 47.150386 193.914203 
Q 45.150386 193.914203 45.150386 195.914203 
L 45.150386 223.354817 
Q 45.150386 225.354817 47.150386 225.354817 
z
" style="fill: #ffffff; opacity: 0.8; stroke: #cccccc; stroke-linejoin: miter"/>
    </g>
    <g id="line2d_15">
     <path d="M 49.150386 201.512524 
L 59.150386 201.512524 
L 69.150386 201.512524 
" style="fill: none; stroke: #1f77b4; stroke-width: 1.5; stroke-linecap: square"/>
    </g>
    <g id="text_15">
     <!-- LSRes -->
     <g transform="translate(77.150386 205.012524) scale(0.1 -0.1)">
      <defs>
       <path id="NimbusSanL-Regu-52" d="M 1190 2035 
L 2726 2035 
C 3258 2035 3494 1775 3494 1191 
L 3488 770 
C 3488 478 3539 192 3622 0 
L 4346 0 
L 4346 147 
C 4122 303 4077 471 4064 1101 
C 4058 1879 3936 2111 3430 2329 
C 3955 2585 4166 2907 4166 3432 
C 4166 4230 3661 4672 2746 4672 
L 595 4672 
L 595 0 
L 1190 0 
L 1190 2035 
z
M 1190 2560 
L 1190 4147 
L 2630 4147 
C 2963 4147 3155 4096 3302 3970 
C 3462 3837 3546 3628 3546 3350 
C 3546 2806 3264 2560 2630 2560 
L 1190 2560 
z
" transform="scale(0.015625)"/>
      </defs>
      <use xlink:href="#NimbusSanL-Regu-4c" transform="scale(0.996264)"/>
      <use xlink:href="#NimbusSanL-Regu-53" transform="translate(55.391677 0) scale(0.996264)"/>
      <use xlink:href="#NimbusSanL-Regu-52" transform="translate(121.841708 0) scale(0.996264)"/>
      <use xlink:href="#NimbusSanL-Regu-65" transform="translate(193.771693 0) scale(0.996264)"/>
      <use xlink:href="#NimbusSanL-Regu-73" transform="translate(249.16337 0) scale(0.996264)"/>
     </g>
    </g>
    <g id="line2d_16">
     <path d="M 49.150386 215.73283 
L 59.150386 215.73283 
L 69.150386 215.73283 
" style="fill: none; stroke: #ff7f0e; stroke-width: 1.5; stroke-linecap: square"/>
    </g>
    <g id="text_16">
     <!-- LSResTurb -->
     <g transform="translate(77.150386 219.23283) scale(0.1 -0.1)">
      <defs>
       <path id="NimbusSanL-Regu-54" d="M 2266 4147 
L 3795 4147 
L 3795 4672 
L 134 4672 
L 134 4147 
L 1670 4147 
L 1670 0 
L 2266 0 
L 2266 4147 
z
" transform="scale(0.015625)"/>
       <path id="NimbusSanL-Regu-62" d="M 346 4672 
L 346 19 
L 826 19 
L 826 447 
C 1082 57 1421 -128 1888 -128 
C 2771 -128 3347 594 3347 1702 
C 3347 2784 2797 3456 1914 3456 
C 1453 3456 1126 3283 877 2905 
L 877 4672 
L 346 4672 
z
M 1811 2956 
C 2406 2956 2790 2440 2790 1644 
C 2790 887 2394 371 1811 371 
C 1248 371 877 880 877 1663 
C 877 2447 1248 2956 1811 2956 
z
" transform="scale(0.015625)"/>
      </defs>
      <use xlink:href="#NimbusSanL-Regu-4c" transform="scale(0.996264)"/>
      <use xlink:href="#NimbusSanL-Regu-53" transform="translate(55.391677 0) scale(0.996264)"/>
      <use xlink:href="#NimbusSanL-Regu-52" transform="translate(121.841708 0) scale(0.996264)"/>
      <use xlink:href="#NimbusSanL-Regu-65" transform="translate(193.771693 0) scale(0.996264)"/>
      <use xlink:href="#NimbusSanL-Regu-73" transform="translate(249.16337 0) scale(0.996264)"/>
      <use xlink:href="#NimbusSanL-Regu-54" transform="translate(298.97657 0) scale(0.996264)"/>
      <use xlink:href="#NimbusSanL-Regu-75" transform="translate(347.893519 0) scale(0.996264)"/>
      <use xlink:href="#NimbusSanL-Regu-72" transform="translate(403.285196 0) scale(0.996264)"/>
      <use xlink:href="#NimbusSanL-Regu-62" transform="translate(436.460426 0) scale(0.996264)"/>
     </g>
    </g>
   </g>
  </g>
 </g>
 <defs>
  <clipPath id="p184a9f10a8">
   <rect x="40.150386" y="8.594817" width="334.8" height="221.76"/>
  </clipPath>
 </defs>
</svg>
