<?xml version="1.0" encoding="utf-8" standalone="no"?>
<!DOCTYPE svg PUBLIC "-//W3C//DTD SVG 1.1//EN"
  "http://www.w3.org/Graphics/SVG/1.1/DTD/svg11.dtd">
<svg xmlns:xlink="http://www.w3.org/1999/xlink" width="382.150386pt" height="265.600613pt" viewBox="0 0 382.150386 265.600613" xmlns="http://www.w3.org/2000/svg" version="1.1">
 <metadata>
  <rdf:RDF xmlns:dc="http://purl.org/dc/elements/1.1/" xmlns:cc="http://creativecommons.org/ns#" xmlns:rdf="http://www.w3.org/1999/02/22-rdf-syntax-ns#">
   <cc:Work>
    <dc:type rdf:resource="http://purl.org/dc/dcmitype/StillImage"/>
    <dc:date>2025-07-17T21:10:48.814918</dc:date>
    <dc:format>image/svg+xml</dc:format>
    <dc:creator>
     <cc:Agent>
      <dc:title>Matplotlib v3.10.3, https://matplotlib.org/</dc:title>
     </cc:Agent>
    </dc:creator>
   </cc:Work>
  </rdf:RDF>
 </metadata>
 <defs>
  <style type="text/css">*{stroke-linejoin: round; stroke-linecap: butt}</style>
 </defs>
 <g id="figure_1">
  <g id="patch_1">
   <path d="M 0 265.600613 
L 382.150386 265.600613 
L 382.150386 0 
L 0 0 
z
" style="fill: #ffffff"/>
  </g>
  <g id="axes_1">
   <g id="patch_2">
    <path d="M 40.150386 228.96 
L 374.950386 228.96 
L 374.950386 7.2 
L 40.150386 7.2 
z
" style="fill: #ffffff"/>
   </g>
   <g id="matplotlib.axis_1">
    <g id="xtick_1">
     <g id="line2d_1">
      <defs>
       <path id="m094366244a" d="M 0 0 
L 0 3.5 
" style="stroke: #000000; stroke-width: 0.8"/>
      </defs>
      <g>
       <use xlink:href="#m094366244a" x="55.368567" y="228.96" style="stroke: #000000; stroke-width: 0.8"/>
      </g>
     </g>
     <g id="text_1">
      <!-- $\mathdefault{0}$ -->
      <g transform="translate(52.8779 243.05832) scale(0.1 -0.1)">
       <defs>
        <path id="CMR17-30" d="M 2688 2038 
C 2688 2430 2682 3099 2413 3613 
C 2176 4063 1798 4224 1466 4224 
C 1158 4224 768 4082 525 3620 
C 269 3137 243 2539 243 2038 
C 243 1671 250 1112 448 623 
C 723 -39 1216 -128 1466 -128 
C 1760 -128 2208 -7 2470 604 
C 2662 1048 2688 1568 2688 2038 
z
M 1466 -26 
C 1056 -26 813 328 723 816 
C 653 1196 653 1749 653 2109 
C 653 2604 653 3015 736 3407 
C 858 3954 1216 4121 1466 4121 
C 1728 4121 2067 3947 2189 3420 
C 2272 3054 2278 2623 2278 2109 
C 2278 1691 2278 1176 2202 797 
C 2067 96 1690 -26 1466 -26 
z
" transform="scale(0.015625)"/>
       </defs>
       <use xlink:href="#CMR17-30" transform="scale(0.996264)"/>
      </g>
     </g>
    </g>
    <g id="xtick_2">
     <g id="line2d_2">
      <g>
       <use xlink:href="#m094366244a" x="108.934853" y="228.96" style="stroke: #000000; stroke-width: 0.8"/>
      </g>
     </g>
     <g id="text_2">
      <!-- $\mathdefault{500}$ -->
      <g transform="translate(101.46285 243.05832) scale(0.1 -0.1)">
       <defs>
        <path id="CMR17-35" d="M 730 3750 
C 794 3724 1056 3641 1325 3641 
C 1920 3641 2246 3961 2432 4140 
C 2432 4191 2432 4224 2394 4224 
C 2387 4224 2374 4224 2323 4198 
C 2099 4102 1837 4032 1517 4032 
C 1325 4032 1037 4055 723 4191 
C 653 4224 640 4224 634 4224 
C 602 4224 595 4217 595 4090 
L 595 2231 
C 595 2113 595 2080 659 2080 
C 691 2080 704 2093 736 2139 
C 941 2435 1222 2560 1542 2560 
C 1766 2560 2246 2415 2246 1293 
C 2246 1087 2246 716 2054 422 
C 1894 159 1645 25 1370 25 
C 947 25 518 319 403 812 
C 429 806 480 793 506 793 
C 589 793 749 838 749 1036 
C 749 1209 627 1280 506 1280 
C 358 1280 262 1190 262 1011 
C 262 454 704 -128 1382 -128 
C 2042 -128 2669 441 2669 1267 
C 2669 2054 2170 2662 1549 2662 
C 1222 2662 947 2540 730 2304 
L 730 3750 
z
" transform="scale(0.015625)"/>
       </defs>
       <use xlink:href="#CMR17-35" transform="scale(0.996264)"/>
       <use xlink:href="#CMR17-30" transform="translate(45.690477 0) scale(0.996264)"/>
       <use xlink:href="#CMR17-30" transform="translate(91.380954 0) scale(0.996264)"/>
      </g>
     </g>
    </g>
    <g id="xtick_3">
     <g id="line2d_3">
      <g>
       <use xlink:href="#m094366244a" x="162.501139" y="228.96" style="stroke: #000000; stroke-width: 0.8"/>
      </g>
     </g>
     <g id="text_3">
      <!-- $\mathdefault{1000}$ -->
      <g transform="translate(152.538469 243.05832) scale(0.1 -0.1)">
       <defs>
        <path id="CMR17-31" d="M 1702 4083 
C 1702 4217 1696 4224 1606 4224 
C 1357 3927 979 3833 621 3820 
C 602 3820 570 3820 563 3808 
C 557 3795 557 3782 557 3648 
C 755 3648 1088 3686 1344 3839 
L 1344 467 
C 1344 243 1331 166 781 166 
L 589 166 
L 589 0 
C 896 6 1216 12 1523 12 
C 1830 12 2150 6 2458 0 
L 2458 166 
L 2266 166 
C 1715 166 1702 236 1702 467 
L 1702 4083 
z
" transform="scale(0.015625)"/>
       </defs>
       <use xlink:href="#CMR17-31" transform="scale(0.996264)"/>
       <use xlink:href="#CMR17-30" transform="translate(45.690477 0) scale(0.996264)"/>
       <use xlink:href="#CMR17-30" transform="translate(91.380954 0) scale(0.996264)"/>
       <use xlink:href="#CMR17-30" transform="translate(137.071431 0) scale(0.996264)"/>
      </g>
     </g>
    </g>
    <g id="xtick_4">
     <g id="line2d_4">
      <g>
       <use xlink:href="#m094366244a" x="216.067425" y="228.96" style="stroke: #000000; stroke-width: 0.8"/>
      </g>
     </g>
     <g id="text_4">
      <!-- $\mathdefault{1500}$ -->
      <g transform="translate(206.104755 243.05832) scale(0.1 -0.1)">
       <use xlink:href="#CMR17-31" transform="scale(0.996264)"/>
       <use xlink:href="#CMR17-35" transform="translate(45.690477 0) scale(0.996264)"/>
       <use xlink:href="#CMR17-30" transform="translate(91.380954 0) scale(0.996264)"/>
       <use xlink:href="#CMR17-30" transform="translate(137.071431 0) scale(0.996264)"/>
      </g>
     </g>
    </g>
    <g id="xtick_5">
     <g id="line2d_5">
      <g>
       <use xlink:href="#m094366244a" x="269.633711" y="228.96" style="stroke: #000000; stroke-width: 0.8"/>
      </g>
     </g>
     <g id="text_5">
      <!-- $\mathdefault{2000}$ -->
      <g transform="translate(259.67104 243.05832) scale(0.1 -0.1)">
       <defs>
        <path id="CMR17-32" d="M 2669 990 
L 2554 990 
C 2490 537 2438 460 2413 422 
C 2381 371 1920 371 1830 371 
L 602 371 
C 832 620 1280 1073 1824 1596 
C 2214 1966 2669 2400 2669 3033 
C 2669 3788 2067 4224 1395 4224 
C 691 4224 262 3603 262 3027 
C 262 2777 448 2745 525 2745 
C 589 2745 781 2783 781 3007 
C 781 3206 614 3264 525 3264 
C 486 3264 448 3257 422 3244 
C 544 3788 915 4057 1306 4057 
C 1862 4057 2227 3616 2227 3033 
C 2227 2477 1901 1998 1536 1583 
L 262 147 
L 262 0 
L 2515 0 
L 2669 990 
z
" transform="scale(0.015625)"/>
       </defs>
       <use xlink:href="#CMR17-32" transform="scale(0.996264)"/>
       <use xlink:href="#CMR17-30" transform="translate(45.690477 0) scale(0.996264)"/>
       <use xlink:href="#CMR17-30" transform="translate(91.380954 0) scale(0.996264)"/>
       <use xlink:href="#CMR17-30" transform="translate(137.071431 0) scale(0.996264)"/>
      </g>
     </g>
    </g>
    <g id="xtick_6">
     <g id="line2d_6">
      <g>
       <use xlink:href="#m094366244a" x="323.199997" y="228.96" style="stroke: #000000; stroke-width: 0.8"/>
      </g>
     </g>
     <g id="text_6">
      <!-- $\mathdefault{2500}$ -->
      <g transform="translate(313.237326 243.05832) scale(0.1 -0.1)">
       <use xlink:href="#CMR17-32" transform="scale(0.996264)"/>
       <use xlink:href="#CMR17-35" transform="translate(45.690477 0) scale(0.996264)"/>
       <use xlink:href="#CMR17-30" transform="translate(91.380954 0) scale(0.996264)"/>
       <use xlink:href="#CMR17-30" transform="translate(137.071431 0) scale(0.996264)"/>
      </g>
     </g>
    </g>
    <g id="text_7">
     <!-- Iteration -->
     <g transform="translate(189.603009 256.278627) scale(0.1 -0.1)">
      <defs>
       <path id="NimbusSanL-Regu-49" d="M 1242 4672 
L 640 4672 
L 640 0 
L 1242 0 
L 1242 4672 
z
" transform="scale(0.015625)"/>
       <path id="NimbusSanL-Regu-74" d="M 1626 3328 
L 1075 3328 
L 1075 4249 
L 544 4249 
L 544 3328 
L 90 3328 
L 90 2892 
L 544 2892 
L 544 402 
C 544 64 774 -128 1190 -128 
C 1318 -128 1446 -116 1626 -84 
L 1626 364 
C 1555 345 1472 339 1370 339 
C 1139 339 1075 402 1075 634 
L 1075 2892 
L 1626 2892 
L 1626 3328 
z
" transform="scale(0.015625)"/>
       <path id="NimbusSanL-Regu-65" d="M 3283 1484 
C 3283 1998 3245 2311 3149 2565 
C 2931 3123 2419 3456 1792 3456 
C 858 3456 256 2734 256 1619 
C 256 545 838 -128 1779 -128 
C 2547 -128 3078 307 3213 1018 
L 2675 1018 
C 2528 588 2227 364 1798 364 
C 1459 364 1171 514 992 787 
C 864 974 819 1161 813 1484 
L 3283 1484 
z
M 826 1920 
C 870 2552 1248 2963 1786 2963 
C 2310 2963 2714 2519 2714 1959 
C 2714 1946 2714 1933 2707 1920 
L 826 1920 
z
" transform="scale(0.015625)"/>
       <path id="NimbusSanL-Regu-72" d="M 442 3328 
L 442 0 
L 979 0 
L 979 1727 
C 979 2203 1101 2514 1357 2698 
C 1523 2819 1683 2857 2054 2863 
L 2054 3404 
C 1965 3449 1920 3456 1850 3456 
C 1504 3456 1242 3251 934 2750 
L 934 3328 
L 442 3328 
z
" transform="scale(0.015625)"/>
       <path id="NimbusSanL-Regu-61" d="M 3424 332 
C 3366 320 3341 320 3309 320 
C 3123 320 3021 415 3021 581 
L 3021 2542 
C 3021 3135 2586 3456 1760 3456 
C 1274 3456 870 3315 646 3065 
C 493 2893 429 2702 416 2370 
L 954 2370 
C 998 2778 1242 2963 1741 2963 
C 2221 2963 2490 2784 2490 2466 
L 2490 2326 
C 2490 2103 2355 2007 1933 1956 
C 1178 1861 1062 1835 858 1753 
C 467 1593 269 1294 269 861 
C 269 256 691 -128 1370 -128 
C 1792 -128 2131 19 2509 364 
C 2547 25 2714 -128 3059 -128 
C 3168 -128 3251 -116 3424 -71 
L 3424 332 
z
M 2490 1071 
C 2490 893 2438 785 2278 638 
C 2061 441 1798 339 1485 339 
C 1069 339 826 536 826 874 
C 826 1224 1062 1402 1632 1485 
C 2195 1562 2310 1587 2490 1670 
L 2490 1071 
z
" transform="scale(0.015625)"/>
       <path id="NimbusSanL-Regu-69" d="M 960 3358 
L 429 3358 
L 429 0 
L 960 0 
L 960 3358 
z
M 960 4672 
L 422 4672 
L 422 3999 
L 960 3999 
L 960 4672 
z
" transform="scale(0.015625)"/>
       <path id="NimbusSanL-Regu-6f" d="M 1741 3456 
C 800 3456 230 2784 230 1663 
C 230 543 794 -128 1747 -128 
C 2688 -128 3264 543 3264 1638 
C 3264 2791 2707 3456 1741 3456 
z
M 1747 2963 
C 2349 2963 2707 2472 2707 1644 
C 2707 861 2336 364 1747 364 
C 1152 364 787 855 787 1663 
C 787 2466 1152 2963 1747 2963 
z
" transform="scale(0.015625)"/>
       <path id="NimbusSanL-Regu-6e" d="M 448 3328 
L 448 0 
L 986 0 
L 986 1835 
C 986 2539 1344 2988 1894 2988 
C 2317 2988 2586 2732 2586 2328 
L 2586 0 
L 3117 0 
L 3117 2539 
C 3117 3097 2701 3456 2054 3456 
C 1555 3456 1235 3263 941 2796 
L 941 3328 
L 448 3328 
z
" transform="scale(0.015625)"/>
      </defs>
      <use xlink:href="#NimbusSanL-Regu-49" transform="scale(0.996264)"/>
      <use xlink:href="#NimbusSanL-Regu-74" transform="translate(27.69517 0) scale(0.996264)"/>
      <use xlink:href="#NimbusSanL-Regu-65" transform="translate(55.390339 0) scale(0.996264)"/>
      <use xlink:href="#NimbusSanL-Regu-72" transform="translate(110.782016 0) scale(0.996264)"/>
      <use xlink:href="#NimbusSanL-Regu-61" transform="translate(142.961149 0) scale(0.996264)"/>
      <use xlink:href="#NimbusSanL-Regu-74" transform="translate(198.352826 0) scale(0.996264)"/>
      <use xlink:href="#NimbusSanL-Regu-69" transform="translate(226.047996 0) scale(0.996264)"/>
      <use xlink:href="#NimbusSanL-Regu-6f" transform="translate(248.16478 0) scale(0.996264)"/>
      <use xlink:href="#NimbusSanL-Regu-6e" transform="translate(303.556457 0) scale(0.996264)"/>
     </g>
    </g>
   </g>
   <g id="matplotlib.axis_2">
    <g id="ytick_1">
     <g id="line2d_7">
      <defs>
       <path id="m509b612801" d="M 0 0 
L -3.5 0 
" style="stroke: #000000; stroke-width: 0.8"/>
      </defs>
      <g>
       <use xlink:href="#m509b612801" x="40.150386" y="198.990138" style="stroke: #000000; stroke-width: 0.8"/>
      </g>
     </g>
     <g id="text_8">
      <!-- $\mathdefault{−6}$ -->
      <g transform="translate(20.420307 202.539298) scale(0.1 -0.1)">
       <defs>
        <path id="CMSY10-0" d="M 4218 1472 
C 4326 1472 4442 1472 4442 1600 
C 4442 1728 4326 1728 4218 1728 
L 755 1728 
C 646 1728 531 1728 531 1600 
C 531 1472 646 1472 755 1472 
L 4218 1472 
z
" transform="scale(0.015625)"/>
        <path id="CMR17-36" d="M 678 2198 
C 678 3712 1395 4076 1811 4076 
C 1946 4076 2272 4049 2400 3782 
C 2298 3782 2106 3782 2106 3558 
C 2106 3385 2246 3328 2336 3328 
C 2394 3328 2566 3353 2566 3571 
C 2566 3987 2246 4224 1805 4224 
C 1043 4224 243 3411 243 2011 
C 243 257 966 -128 1478 -128 
C 2099 -128 2688 431 2688 1295 
C 2688 2101 2170 2688 1517 2688 
C 1126 2688 838 2430 678 1979 
L 678 2198 
z
M 1478 25 
C 691 25 691 1212 691 1450 
C 691 1914 909 2585 1504 2585 
C 1613 2585 1926 2585 2138 2140 
C 2253 1889 2253 1624 2253 1302 
C 2253 954 2253 696 2118 438 
C 1978 173 1773 25 1478 25 
z
" transform="scale(0.015625)"/>
       </defs>
       <use xlink:href="#CMSY10-0" transform="scale(0.996264)"/>
       <use xlink:href="#CMR17-36" transform="translate(77.487468 0) scale(0.996264)"/>
      </g>
     </g>
    </g>
    <g id="ytick_2">
     <g id="line2d_8">
      <g>
       <use xlink:href="#m509b612801" x="40.150386" y="159.248071" style="stroke: #000000; stroke-width: 0.8"/>
      </g>
     </g>
     <g id="text_9">
      <!-- $\mathdefault{−4}$ -->
      <g transform="translate(20.420307 162.797231) scale(0.1 -0.1)">
       <defs>
        <path id="CMR17-34" d="M 2150 4147 
C 2150 4281 2144 4288 2029 4288 
L 128 1254 
L 128 1088 
L 1779 1088 
L 1779 460 
C 1779 230 1766 166 1318 166 
L 1197 166 
L 1197 0 
C 1402 12 1747 12 1965 12 
C 2182 12 2528 12 2733 0 
L 2733 166 
L 2611 166 
C 2163 166 2150 230 2150 460 
L 2150 1088 
L 2803 1088 
L 2803 1254 
L 2150 1254 
L 2150 4147 
z
M 1798 3723 
L 1798 1254 
L 256 1254 
L 1798 3723 
z
" transform="scale(0.015625)"/>
       </defs>
       <use xlink:href="#CMSY10-0" transform="scale(0.996264)"/>
       <use xlink:href="#CMR17-34" transform="translate(77.487468 0) scale(0.996264)"/>
      </g>
     </g>
    </g>
    <g id="ytick_3">
     <g id="line2d_9">
      <g>
       <use xlink:href="#m509b612801" x="40.150386" y="119.506003" style="stroke: #000000; stroke-width: 0.8"/>
      </g>
     </g>
     <g id="text_10">
      <!-- $\mathdefault{−2}$ -->
      <g transform="translate(20.420307 123.055163) scale(0.1 -0.1)">
       <use xlink:href="#CMSY10-0" transform="scale(0.996264)"/>
       <use xlink:href="#CMR17-32" transform="translate(77.487468 0) scale(0.996264)"/>
      </g>
     </g>
    </g>
    <g id="ytick_4">
     <g id="line2d_10">
      <g>
       <use xlink:href="#m509b612801" x="40.150386" y="79.763935" style="stroke: #000000; stroke-width: 0.8"/>
      </g>
     </g>
     <g id="text_11">
      <!-- $\mathdefault{0}$ -->
      <g transform="translate(28.16905 83.313096) scale(0.1 -0.1)">
       <use xlink:href="#CMR17-30" transform="scale(0.996264)"/>
      </g>
     </g>
    </g>
    <g id="ytick_5">
     <g id="line2d_11">
      <g>
       <use xlink:href="#m509b612801" x="40.150386" y="40.021868" style="stroke: #000000; stroke-width: 0.8"/>
      </g>
     </g>
     <g id="text_12">
      <!-- $\mathdefault{2}$ -->
      <g transform="translate(28.16905 43.571028) scale(0.1 -0.1)">
       <use xlink:href="#CMR17-32" transform="scale(0.996264)"/>
      </g>
     </g>
    </g>
    <g id="text_13">
     <!-- RMS residual - Blade_18 -->
     <g transform="translate(14.29832 172.470389) rotate(-90) scale(0.1 -0.1)">
      <defs>
       <path id="NimbusSanL-Regu-52" d="M 1190 2035 
L 2726 2035 
C 3258 2035 3494 1775 3494 1191 
L 3488 770 
C 3488 478 3539 192 3622 0 
L 4346 0 
L 4346 147 
C 4122 303 4077 471 4064 1101 
C 4058 1879 3936 2111 3430 2329 
C 3955 2585 4166 2907 4166 3432 
C 4166 4230 3661 4672 2746 4672 
L 595 4672 
L 595 0 
L 1190 0 
L 1190 2035 
z
M 1190 2560 
L 1190 4147 
L 2630 4147 
C 2963 4147 3155 4096 3302 3970 
C 3462 3837 3546 3628 3546 3350 
C 3546 2806 3264 2560 2630 2560 
L 1190 2560 
z
" transform="scale(0.015625)"/>
       <path id="NimbusSanL-Regu-4d" d="M 2995 0 
L 4307 3915 
L 4307 0 
L 4870 0 
L 4870 4672 
L 4045 4672 
L 2688 602 
L 1306 4672 
L 480 4672 
L 480 0 
L 1043 0 
L 1043 3915 
L 2368 0 
L 2995 0 
z
" transform="scale(0.015625)"/>
       <path id="NimbusSanL-Regu-53" d="M 3814 3295 
C 3808 4204 3181 4736 2106 4736 
C 1082 4736 448 4211 448 3372 
C 448 2806 749 2450 1363 2291 
L 2522 1986 
C 3110 1833 3379 1598 3379 1236 
C 3379 988 3245 733 3046 593 
C 2861 466 2566 396 2189 396 
C 1683 396 1338 517 1114 784 
C 941 988 864 1210 870 1496 
L 307 1496 
C 314 1070 397 790 582 536 
C 902 102 1440 -128 2150 -128 
C 2707 -128 3162 0 3462 230 
C 3776 479 3974 892 3974 1293 
C 3974 1865 3616 2284 2982 2456 
L 1811 2768 
C 1248 2920 1043 3098 1043 3454 
C 1043 3925 1459 4236 2086 4236 
C 2829 4236 3245 3899 3251 3295 
L 3814 3295 
z
" transform="scale(0.015625)"/>
       <path id="NimbusSanL-Regu-73" d="M 2803 2428 
C 2797 3084 2362 3456 1587 3456 
C 806 3456 301 3052 301 2434 
C 301 1912 570 1663 1363 1472 
L 1862 1351 
C 2234 1262 2381 1129 2381 887 
C 2381 574 2067 364 1600 364 
C 1312 364 1069 447 934 587 
C 851 683 813 778 781 1014 
L 218 1014 
C 243 243 678 -128 1555 -128 
C 2400 -128 2938 288 2938 931 
C 2938 1428 2656 1702 1990 1861 
L 1478 1982 
C 1043 2084 858 2224 858 2459 
C 858 2765 1133 2963 1568 2963 
C 1997 2963 2227 2778 2240 2428 
L 2803 2428 
z
" transform="scale(0.015625)"/>
       <path id="NimbusSanL-Regu-64" d="M 3168 4672 
L 2637 4672 
L 2637 2937 
C 2413 3276 2054 3456 1606 3456 
C 736 3456 166 2759 166 1695 
C 166 568 723 -128 1626 -128 
C 2086 -128 2406 44 2694 460 
L 2694 19 
L 3168 19 
L 3168 4672 
z
M 1696 2956 
C 2272 2956 2637 2447 2637 1651 
C 2637 880 2266 371 1702 371 
C 1114 371 723 887 723 1663 
C 723 2440 1114 2956 1696 2956 
z
" transform="scale(0.015625)"/>
       <path id="NimbusSanL-Regu-75" d="M 3085 19 
L 3085 3328 
L 2554 3328 
L 2554 1454 
C 2554 780 2195 339 1638 339 
C 1216 339 947 591 947 988 
L 947 3328 
L 416 3328 
L 416 780 
C 416 230 832 -128 1485 -128 
C 1978 -128 2291 44 2605 484 
L 2605 19 
L 3085 19 
z
" transform="scale(0.015625)"/>
       <path id="NimbusSanL-Regu-6c" d="M 973 4672 
L 435 4672 
L 435 0 
L 973 0 
L 973 4672 
z
" transform="scale(0.015625)"/>
       <path id="NimbusSanL-Regu-2d" d="M 1818 1996 
L 294 1996 
L 294 1536 
L 1818 1536 
L 1818 1996 
z
" transform="scale(0.015625)"/>
       <path id="NimbusSanL-Regu-42" d="M 506 0 
L 2611 0 
C 3053 0 3379 121 3629 390 
C 3859 632 3987 961 3987 1321 
C 3987 1878 3731 2214 3136 2444 
C 3558 2643 3782 2994 3782 3476 
C 3782 3821 3654 4127 3411 4345 
C 3168 4569 2848 4672 2400 4672 
L 506 4672 
L 506 0 
z
M 1101 2636 
L 1101 4147 
L 2253 4147 
C 2586 4147 2771 4101 2931 3977 
C 3098 3847 3187 3652 3187 3391 
C 3187 3138 3098 2936 2931 2806 
C 2771 2682 2586 2636 2253 2636 
L 1101 2636 
z
M 1101 524 
L 1101 2112 
L 2554 2112 
C 2842 2112 3034 2042 3174 1890 
C 3315 1745 3392 1542 3392 1315 
C 3392 1093 3315 891 3174 746 
C 3034 594 2842 524 2554 524 
L 1101 524 
z
" transform="scale(0.015625)"/>
       <path id="NimbusSanL-Regu-31" d="M 1658 3232 
L 1658 0 
L 2221 0 
L 2221 4537 
L 1850 4537 
C 1651 3840 1523 3744 653 3635 
L 653 3232 
L 1658 3232 
z
" transform="scale(0.015625)"/>
       <path id="NimbusSanL-Regu-38" d="M 2502 2399 
C 2970 2681 3123 2910 3123 3337 
C 3123 4044 2566 4544 1760 4544 
C 960 4544 397 4044 397 3337 
C 397 2917 550 2687 1011 2399 
C 493 2150 237 1774 237 1276 
C 237 447 864 -128 1760 -128 
C 2656 -128 3283 447 3283 1270 
C 3283 1774 3027 2150 2502 2399 
z
M 1760 4044 
C 2240 4044 2547 3764 2547 3324 
C 2547 2904 2234 2624 1760 2624 
C 1286 2624 973 2904 973 3331 
C 973 3764 1286 4044 1760 4044 
z
M 1760 2150 
C 2323 2150 2707 1793 2707 1264 
C 2707 728 2323 371 1747 371 
C 1197 371 813 734 813 1264 
C 813 1793 1197 2150 1760 2150 
z
" transform="scale(0.015625)"/>
      </defs>
      <use xlink:href="#NimbusSanL-Regu-52" transform="scale(0.996264)"/>
      <use xlink:href="#NimbusSanL-Regu-4d" transform="translate(71.929985 0) scale(0.996264)"/>
      <use xlink:href="#NimbusSanL-Regu-53" transform="translate(154.918415 0) scale(0.996264)"/>
      <use xlink:href="#NimbusSanL-Regu-72" transform="translate(249.063616 0) scale(0.996264)"/>
      <use xlink:href="#NimbusSanL-Regu-65" transform="translate(282.238846 0) scale(0.996264)"/>
      <use xlink:href="#NimbusSanL-Regu-73" transform="translate(337.630523 0) scale(0.996264)"/>
      <use xlink:href="#NimbusSanL-Regu-69" transform="translate(387.443723 0) scale(0.996264)"/>
      <use xlink:href="#NimbusSanL-Regu-64" transform="translate(409.560507 0) scale(0.996264)"/>
      <use xlink:href="#NimbusSanL-Regu-75" transform="translate(464.952184 0) scale(0.996264)"/>
      <use xlink:href="#NimbusSanL-Regu-61" transform="translate(520.343861 0) scale(0.996264)"/>
      <use xlink:href="#NimbusSanL-Regu-6c" transform="translate(575.735538 0) scale(0.996264)"/>
      <use xlink:href="#NimbusSanL-Regu-2d" transform="translate(625.547492 0) scale(0.996264)"/>
      <use xlink:href="#NimbusSanL-Regu-42" transform="translate(686.417892 0) scale(0.996264)"/>
      <use xlink:href="#NimbusSanL-Regu-6c" transform="translate(752.867923 0) scale(0.996264)"/>
      <use xlink:href="#NimbusSanL-Regu-61" transform="translate(774.984707 0) scale(0.996264)"/>
      <use xlink:href="#NimbusSanL-Regu-64" transform="translate(830.376384 0) scale(0.996264)"/>
      <use xlink:href="#NimbusSanL-Regu-65" transform="translate(885.768061 0) scale(0.996264)"/>
      <use xlink:href="#NimbusSanL-Regu-31" transform="translate(977.025303 0) scale(0.996264)"/>
      <use xlink:href="#NimbusSanL-Regu-38" transform="translate(1032.41698 0) scale(0.996264)"/>
      <path d="M 947.137079 0 
L 977.025303 0 
L 977.025303 0.3985 
L 947.137079 0.3985 
L 947.137079 0 
z
"/>
     </g>
    </g>
   </g>
   <g id="line2d_12">
    <path d="M 55.368567 126.684857 
L 55.689965 138.246795 
L 55.90423 139.936085 
L 56.547026 139.128611 
L 56.868423 137.254308 
L 57.189821 135.615426 
L 57.296954 135.691963 
L 57.939749 137.705981 
L 58.046882 137.723354 
L 58.261147 136.720554 
L 58.79681 132.723175 
L 59.011075 132.047009 
L 59.22534 132.982669 
L 59.546738 134.580037 
L 59.761003 135.125597 
L 59.868135 135.066687 
L 60.296666 133.904356 
L 60.403798 133.820827 
L 60.510931 133.596231 
L 61.153726 137.523538 
L 61.260859 137.679526 
L 61.367991 137.460118 
L 61.903654 134.514528 
L 62.117919 135.652793 
L 62.439317 137.578208 
L 62.653582 137.637211 
L 62.867847 137.474474 
L 63.082113 136.644233 
L 63.296378 135.432356 
L 63.724908 137.787175 
L 64.046306 137.826593 
L 64.260571 137.97694 
L 64.474836 137.623102 
L 64.689101 136.802956 
L 64.796234 136.100495 
L 65.117631 137.298646 
L 65.653294 139.324437 
L 65.760427 139.084862 
L 65.974692 137.380199 
L 66.188957 135.123197 
L 66.403222 135.820009 
L 66.938885 138.232426 
L 67.046018 138.34426 
L 67.15315 138.285425 
L 67.367415 137.236029 
L 67.688813 135.604002 
L 68.010211 137.042852 
L 68.224476 137.806391 
L 68.545874 138.112571 
L 68.653006 138.022503 
L 69.188669 136.367965 
L 69.402934 137.004472 
L 69.831465 138.5537 
L 70.152862 139.212574 
L 70.259995 139.168025 
L 70.47426 138.613762 
L 70.581393 138.137797 
L 70.795658 138.473339 
L 71.331321 140.370503 
L 71.545586 140.365477 
L 71.652718 140.197213 
L 72.509779 137.366514 
L 72.831177 138.747251 
L 73.152574 139.874107 
L 73.36684 139.966763 
L 73.581105 139.197218 
L 73.902502 137.590553 
L 74.331033 138.762396 
L 74.759563 139.951497 
L 74.973828 139.613906 
L 75.295226 138.228248 
L 75.402358 138.419817 
L 76.152286 140.257155 
L 76.259419 140.202199 
L 76.473684 139.651167 
L 76.795082 138.34353 
L 77.11648 139.573287 
L 77.437877 140.771292 
L 77.652142 141.004396 
L 78.294938 140.56464 
L 78.723468 141.831749 
L 79.259131 144.292168 
L 79.473396 144.221539 
L 79.580529 143.976487 
L 79.901926 142.5767 
L 80.009059 142.661124 
L 80.223324 143.370209 
L 80.651854 145.061967 
L 80.758987 145.203357 
L 80.86612 145.113553 
L 81.080385 143.627275 
L 81.29465 140.842559 
L 81.508915 141.379597 
L 82.044578 143.499771 
L 82.15171 143.404906 
L 82.794506 141.199686 
L 83.008771 141.889912 
L 83.651566 145.092542 
L 83.758699 145.079867 
L 83.972964 144.049726 
L 84.61576 140.188352 
L 84.830025 141.158979 
L 85.365688 144.489408 
L 85.47282 144.327526 
L 86.008483 141.018098 
L 86.115616 141.312839 
L 86.329881 142.330715 
L 86.758411 144.65066 
L 86.865544 144.490898 
L 87.186941 143.062815 
L 87.401206 141.574152 
L 87.615472 142.097087 
L 87.936869 144.179039 
L 88.151134 145.099508 
L 88.258267 145.025747 
L 88.472532 144.181475 
L 88.901062 141.193811 
L 89.008195 141.470099 
L 89.22246 142.454422 
L 89.65099 144.833828 
L 89.758123 144.704289 
L 90.079521 143.243189 
L 90.829449 139.748513 
L 91.150846 141.83911 
L 91.472244 144.094608 
L 91.686509 144.284583 
L 91.900774 142.913612 
L 92.222172 140.880688 
L 92.436437 141.738197 
L 92.9721 145.42468 
L 93.079233 145.368902 
L 93.40063 144.276529 
L 93.722028 142.606527 
L 93.829161 141.751481 
L 93.936293 141.877775 
L 94.364824 142.94412 
L 94.900486 143.238371 
L 95.329017 143.81044 
L 96.078945 145.158797 
L 96.400342 145.458003 
L 96.72174 145.75194 
L 96.936005 145.594494 
L 97.043138 145.413744 
L 97.257403 144.261109 
L 97.793066 139.91676 
L 98.007331 141.18789 
L 98.435861 144.265229 
L 98.650126 144.550666 
L 98.971524 142.613803 
L 99.185789 141.179142 
L 99.292922 141.205091 
L 99.400054 141.468466 
L 99.61432 143.251174 
L 99.828585 145.256135 
L 99.935717 145.32375 
L 100.149982 144.201463 
L 100.578513 139.844204 
L 100.685645 138.594857 
L 100.89991 139.501619 
L 101.435573 143.675974 
L 101.542706 143.589932 
L 101.756971 141.525102 
L 102.078369 137.043991 
L 102.935429 137.486782 
L 103.471092 137.859394 
L 103.685357 138.216184 
L 104.006755 139.441347 
L 104.542418 141.967883 
L 104.64955 142.032967 
L 104.756683 141.967976 
L 104.970948 141.316068 
L 105.399478 138.448134 
L 105.720876 135.79335 
L 106.256539 142.383883 
L 106.363672 142.331979 
L 106.577937 140.964786 
L 107.006467 138.002372 
L 107.1136 137.685126 
L 107.327865 138.676981 
L 107.756395 143.78706 
L 107.863528 143.673523 
L 108.077793 142.582117 
L 108.613456 138.688124 
L 109.256251 143.239589 
L 109.363384 143.190314 
L 109.577649 142.356995 
L 110.006179 140.110563 
L 110.220444 140.481683 
L 110.434709 142.083964 
L 110.756107 144.601225 
L 110.86324 144.605147 
L 111.077505 143.492163 
L 111.398902 141.376031 
L 111.506035 141.343216 
L 111.613168 141.560922 
L 111.827433 143.241385 
L 112.14883 146.084285 
L 112.255963 146.238688 
L 112.363096 146.017495 
L 113.005891 143.47549 
L 113.113024 143.643757 
L 113.327289 145.101215 
L 113.755819 148.357408 
L 113.862952 148.21134 
L 114.184349 145.982452 
L 114.505747 143.562762 
L 114.61288 143.114055 
L 114.827145 144.440139 
L 115.255675 147.643986 
L 115.362808 147.991543 
L 115.46994 147.762303 
L 116.005603 144.678441 
L 116.755531 148.512963 
L 116.862664 148.621442 
L 117.076929 147.606384 
L 117.505459 144.953345 
L 118.36252 148.299185 
L 118.576785 147.362654 
L 119.005315 145.277223 
L 119.21958 145.210526 
L 119.433845 145.381897 
L 119.540978 145.276691 
L 119.862376 146.006719 
L 120.398039 147.331827 
L 120.612304 146.961103 
L 121.040834 145.98674 
L 121.255099 146.344056 
L 121.897895 147.98666 
L 122.005027 147.89203 
L 122.326425 146.921065 
L 122.433557 146.444885 
L 122.96922 148.10068 
L 123.290618 148.927386 
L 123.397751 148.838494 
L 123.719148 147.833359 
L 123.933413 147.037359 
L 124.790474 150.751524 
L 124.897607 150.686196 
L 125.326137 149.666535 
L 125.754667 150.830884 
L 126.29033 152.991224 
L 126.397463 152.869675 
L 126.71886 151.674708 
L 126.825993 151.012503 
L 127.040258 151.247522 
L 127.361656 152.259799 
L 127.790186 153.798402 
L 128.004451 153.174363 
L 128.432981 151.86585 
L 128.647247 151.842767 
L 129.397175 152.255602 
L 129.61144 152.075236 
L 130.4685 152.957965 
L 131.111296 153.298668 
L 132.182621 153.748039 
L 132.932549 153.773801 
L 133.682477 156.960761 
L 133.896743 156.335376 
L 134.432405 154.286413 
L 134.539538 154.403161 
L 135.182333 157.289646 
L 135.289466 157.225563 
L 135.825129 154.978829 
L 135.932261 155.025573 
L 136.146527 155.934567 
L 136.467924 157.017966 
L 136.682189 157.138418 
L 136.896455 156.402013 
L 137.324985 154.715036 
L 137.432117 154.767536 
L 138.074913 156.467897 
L 138.182045 156.420868 
L 138.503443 155.462406 
L 138.824841 154.58802 
L 138.931973 154.641511 
L 139.574769 156.112281 
L 139.681901 156.076586 
L 140.431829 155.031438 
L 141.074625 155.892492 
L 141.824553 157.334101 
L 141.931685 157.527407 
L 142.145951 157.331894 
L 142.360216 158.03571 
L 142.788746 159.72872 
L 143.003011 160.152741 
L 143.217276 160.059245 
L 143.538674 159.903175 
L 144.288602 160.104501 
L 144.502867 159.92426 
L 144.717132 159.661542 
L 144.931397 160.021696 
L 145.252795 160.736044 
L 145.46706 160.765139 
L 145.681325 160.236283 
L 146.109856 158.898454 
L 146.538386 158.505091 
L 146.752651 158.576044 
L 147.181181 159.073866 
L 147.395447 159.060581 
L 147.716844 158.675852 
L 147.931109 158.440805 
L 148.145375 158.467203 
L 148.466772 158.841279 
L 148.895303 159.789498 
L 149.430965 160.945443 
L 149.645231 161.220139 
L 150.288026 162.485722 
L 150.502291 162.617412 
L 150.823689 162.545418 
L 151.037954 162.769321 
L 151.787882 164.364953 
L 151.895015 164.272017 
L 152.216412 163.39234 
L 152.430677 163.783783 
L 153.073473 165.197207 
L 153.180605 165.221872 
L 153.394871 164.638313 
L 153.716268 163.252197 
L 154.466196 164.861218 
L 154.573329 164.904498 
L 154.680461 164.746752 
L 155.001859 163.376102 
L 155.216124 162.703596 
L 155.644655 162.457091 
L 156.073185 162.026197 
L 156.501715 161.969465 
L 156.71598 162.163326 
L 157.465908 163.287405 
L 157.680173 163.122877 
L 157.894439 162.827143 
L 158.108704 163.039268 
L 158.965764 164.474898 
L 159.501427 164.312628 
L 160.46562 165.739818 
L 160.787018 165.943073 
L 161.108416 165.918789 
L 161.536946 165.616528 
L 161.965476 165.038619 
L 163.036802 162.999532 
L 163.251067 162.728541 
L 163.465332 162.814405 
L 163.78673 163.117914 
L 164.000995 163.061705 
L 164.322393 162.623162 
L 164.750923 161.903477 
L 165.072321 162.147996 
L 165.500851 162.58284 
L 165.822249 162.568523 
L 166.250779 162.304577 
L 166.67931 162.830896 
L 167.429238 163.996774 
L 168.821961 166.051653 
L 169.143359 165.401931 
L 169.250491 165.190075 
L 169.571889 165.707977 
L 170.107552 166.685651 
L 170.214684 166.727546 
L 170.42895 166.36424 
L 170.643215 165.772343 
L 170.964612 166.169058 
L 171.607408 167.058174 
L 171.821673 166.955481 
L 172.143071 166.510537 
L 172.357336 166.694852 
L 173.000131 167.429886 
L 173.321529 167.546499 
L 173.535794 167.465781 
L 173.750059 167.376996 
L 173.964324 167.522743 
L 174.499987 168.283551 
L 174.714252 168.14916 
L 175.03565 167.579195 
L 175.249915 167.597449 
L 175.571313 168.001615 
L 175.892711 168.462085 
L 175.999843 168.458054 
L 176.214108 168.089061 
L 176.535506 167.287595 
L 176.856904 167.472166 
L 177.392567 168.175329 
L 177.606832 167.935795 
L 177.92823 166.961826 
L 178.035362 167.047219 
L 178.463892 167.572677 
L 178.892423 168.240614 
L 178.999555 168.193432 
L 179.21382 167.723051 
L 179.428086 167.310924 
L 179.963748 167.378677 
L 180.392279 167.077624 
L 180.820809 166.502039 
L 181.356472 165.789845 
L 181.67787 165.649527 
L 182.1064 165.757271 
L 182.642063 166.102643 
L 183.177726 166.819634 
L 183.606256 166.86982 
L 183.927654 166.592165 
L 184.141919 166.690025 
L 184.570449 167.335288 
L 184.998979 167.353547 
L 185.42751 167.058199 
L 185.641775 167.324948 
L 185.963172 168.007814 
L 186.28457 168.089384 
L 186.498835 167.874355 
L 186.820233 167.179791 
L 187.034498 167.270715 
L 187.248763 167.763429 
L 187.677294 168.97457 
L 187.891559 169.044755 
L 188.105824 168.403399 
L 188.320089 167.882174 
L 188.534354 167.95899 
L 188.855752 168.821324 
L 189.17715 169.358683 
L 189.284282 169.325677 
L 189.498547 168.692114 
L 189.712812 167.668873 
L 190.03421 168.048385 
L 190.569873 169.468333 
L 190.677006 169.496789 
L 190.784138 169.351797 
L 191.105536 168.024455 
L 191.212668 167.639069 
L 191.534066 168.279293 
L 191.962596 169.272228 
L 192.176862 169.331925 
L 192.391127 168.919873 
L 192.712524 168.045859 
L 193.248187 169.231574 
L 193.78385 169.487198 
L 194.21238 168.916126 
L 194.640911 170.064245 
L 194.855176 170.151105 
L 195.283706 170.611433 
L 195.605104 170.336422 
L 195.819369 170.936512 
L 196.140767 171.895532 
L 196.890695 172.916484 
L 197.319225 172.864618 
L 198.176286 175.271938 
L 198.390551 175.286982 
L 198.711948 175.108005 
L 199.033346 175.867713 
L 199.461876 177.429751 
L 199.676142 177.519606 
L 200.104672 177.145333 
L 200.211804 176.959203 
L 200.640335 178.598895 
L 200.8546 179.605015 
L 201.068865 179.753978 
L 201.28313 179.424269 
L 201.818793 177.597658 
L 202.354456 180.884862 
L 202.568721 180.980497 
L 202.675854 180.846094 
L 202.890119 179.830823 
L 203.318649 177.135905 
L 203.640047 177.631716 
L 203.854312 177.447605 
L 204.17571 177.155943 
L 204.818505 177.304269 
L 205.247035 177.30399 
L 207.389687 177.928957 
L 207.711084 177.901928 
L 207.818217 177.680056 
L 208.032482 178.361615 
L 208.35388 180.717805 
L 208.461012 180.477249 
L 208.675278 179.519669 
L 208.889543 179.206408 
L 209.210941 177.902119 
L 209.532338 179.28732 
L 209.746603 180.286223 
L 210.282266 179.418782 
L 210.603664 177.677666 
L 210.710797 177.150841 
L 211.246459 179.462041 
L 211.782122 178.525395 
L 212.210653 176.570745 
L 212.317785 176.436748 
L 212.746315 178.892745 
L 213.067713 178.79008 
L 213.281978 178.283456 
L 213.710509 176.41843 
L 214.246171 179.369345 
L 214.567569 179.378759 
L 214.781834 178.681383 
L 215.210365 176.624049 
L 215.746027 179.981663 
L 215.960293 180.232982 
L 216.067425 180.171619 
L 216.28169 179.366186 
L 216.603088 177.995446 
L 216.817353 178.386062 
L 217.353016 179.463524 
L 217.781546 180.705364 
L 218.210077 181.22202 
L 218.745739 182.778255 
L 218.960005 184.517054 
L 219.17427 186.503124 
L 219.281402 186.73498 
L 219.388535 186.658722 
L 219.495667 186.331002 
L 219.817065 183.66952 
L 220.03133 181.82057 
L 220.352728 183.525474 
L 220.674126 185.479234 
L 220.781258 185.674312 
L 220.888391 185.62034 
L 221.102656 184.443431 
L 221.531186 180.550431 
L 222.173982 184.480179 
L 222.388247 184.909155 
L 222.495379 184.526225 
L 222.92391 180.185624 
L 223.031042 180.27671 
L 223.78097 183.9823 
L 223.995235 184.28236 
L 224.209501 184.948669 
L 224.316633 184.767402 
L 224.852296 181.174624 
L 225.709357 185.854131 
L 225.816489 185.819426 
L 226.245019 181.734971 
L 226.352152 181.750678 
L 226.780682 183.334146 
L 226.994947 183.203284 
L 227.209213 183.126949 
L 227.852008 183.727419 
L 228.280538 183.614724 
L 229.030466 183.028574 
L 229.137599 182.782977 
L 229.351864 183.109476 
L 229.887527 185.911491 
L 229.994659 185.812245 
L 230.208925 184.691543 
L 230.530322 182.494508 
L 230.744587 183.374177 
L 231.173118 185.417664 
L 231.387383 185.727293 
L 231.494515 185.528116 
L 231.708781 184.095671 
L 232.030178 181.886362 
L 232.565841 185.261555 
L 232.887239 185.738703 
L 232.994371 185.473903 
L 233.422902 182.305025 
L 233.530034 182.4133 
L 233.851432 183.727831 
L 234.494227 184.670046 
L 234.60136 184.938753 
L 235.244155 188.527272 
L 235.458421 189.080969 
L 235.565553 188.963523 
L 235.886951 187.093528 
L 236.101216 186.012704 
L 236.422614 187.804451 
L 236.851144 190.879387 
L 236.958277 191.011326 
L 237.065409 190.761369 
L 237.493939 187.813273 
L 237.601072 187.946233 
L 237.708205 188.127088 
L 237.92247 189.726747 
L 238.243867 193.062261 
L 238.351 192.981361 
L 238.565265 191.907746 
L 238.993795 188.563559 
L 239.208061 188.771481 
L 239.315193 189.387412 
L 239.743723 194.227769 
L 239.957989 193.081502 
L 240.600784 187.499938 
L 240.815049 188.64687 
L 241.350712 192.754638 
L 241.457845 192.395555 
L 241.67211 190.290426 
L 241.993507 186.752362 
L 242.10064 186.533651 
L 242.52917 187.200358 
L 242.957701 186.697591 
L 244.243291 187.329057 
L 245.207485 188.180983 
L 245.528882 188.505143 
L 245.85028 188.331134 
L 245.957413 188.898809 
L 246.493075 194.737655 
L 246.600208 194.276671 
L 247.028738 189.499464 
L 247.243003 188.655312 
L 247.350136 189.030731 
L 247.885799 194.908435 
L 247.992931 194.637697 
L 248.635727 188.850535 
L 248.742859 188.681464 
L 248.849992 188.761547 
L 249.064257 190.538448 
L 249.385655 193.436458 
L 249.492787 193.43389 
L 249.59992 192.899189 
L 250.135583 188.243438 
L 250.564113 188.542399 
L 250.992643 188.19228 
L 252.171102 188.68467 
L 252.813897 189.501884 
L 253.563825 190.908849 
L 254.420886 192.482776 
L 254.849416 193.045643 
L 255.063681 195.070166 
L 255.277946 198.200527 
L 255.385079 198.420135 
L 255.599344 197.881923 
L 256.027874 194.124006 
L 256.135007 193.25586 
L 256.349272 193.614571 
L 256.563537 195.554318 
L 256.777802 198.065086 
L 256.884935 198.351132 
L 256.992068 198.183264 
L 257.206333 196.393227 
L 257.634863 192.089354 
L 257.741996 191.730529 
L 258.063393 194.339174 
L 258.384791 196.502876 
L 258.491924 196.702457 
L 258.599056 196.507627 
L 258.813321 194.346192 
L 259.134719 190.852545 
L 259.241852 190.812138 
L 259.670382 192.600235 
L 259.99178 194.854644 
L 260.42031 195.690855 
L 260.634575 194.237325 
L 261.063105 190.871786 
L 261.705901 195.208977 
L 261.920166 195.894939 
L 262.027298 195.515325 
L 262.562961 191.149887 
L 262.670094 191.283239 
L 263.527154 197.092428 
L 263.634287 196.600302 
L 264.062817 192.441372 
L 264.277082 193.073211 
L 264.491348 194.825447 
L 264.812745 197.997699 
L 265.02701 198.59712 
L 265.241276 196.457037 
L 265.562673 193.523106 
L 265.776938 193.388584 
L 265.884071 193.987536 
L 266.419734 199.516007 
L 266.526866 199.243037 
L 267.062529 194.18067 
L 267.276794 194.051925 
L 267.598192 194.040427 
L 267.812457 193.767464 
L 267.91959 193.922095 
L 268.133855 195.603068 
L 268.34812 197.707864 
L 268.455253 198.021877 
L 268.562385 197.879956 
L 268.77665 196.113179 
L 269.098048 193.234155 
L 269.312313 194.049532 
L 269.847976 197.094378 
L 269.955109 197.139797 
L 270.062241 196.792932 
L 270.597904 192.344997 
L 271.2407 196.230428 
L 271.454965 196.550613 
L 271.562097 196.182067 
L 271.990628 192.354064 
L 272.09776 192.435377 
L 272.419158 193.861128 
L 272.52629 193.981444 
L 272.954821 196.466268 
L 273.169086 196.780633 
L 273.383351 197.286052 
L 273.490484 197.098158 
L 274.026146 194.204697 
L 274.668942 197.892587 
L 274.883207 198.61422 
L 274.99034 198.516402 
L 275.311737 196.023582 
L 275.526002 195.291317 
L 275.633135 195.33092 
L 275.954533 197.248279 
L 276.383063 200.527968 
L 276.490196 200.856478 
L 276.597328 200.646031 
L 277.025858 197.272276 
L 277.240124 197.308961 
L 277.347256 197.849859 
L 277.882919 202.881753 
L 277.990052 202.837781 
L 278.204317 200.867922 
L 278.525714 197.921642 
L 278.632847 197.390497 
L 278.73998 197.455068 
L 278.847112 197.687246 
L 279.061377 199.906056 
L 279.275642 203.06563 
L 279.382775 203.377046 
L 279.489908 203.176389 
L 279.704173 201.152555 
L 280.02557 197.350644 
L 280.239836 196.957262 
L 280.454101 197.197198 
L 280.668366 197.054021 
L 280.989764 196.674636 
L 281.953957 196.573815 
L 282.48962 196.798365 
L 283.025282 197.277068 
L 283.882343 198.355851 
L 284.632271 199.280936 
L 285.167934 199.621768 
L 285.596464 199.630003 
L 286.132127 199.341344 
L 287.09632 198.565707 
L 287.203453 198.122258 
L 287.846248 201.565857 
L 287.953381 201.722537 
L 288.060513 201.557858 
L 288.274778 199.987068 
L 288.596176 197.400416 
L 289.131839 200.986903 
L 289.346104 201.295894 
L 289.453237 201.41812 
L 289.560369 201.169416 
L 289.774634 199.593212 
L 290.096032 197.280496 
L 290.631695 201.190142 
L 290.84596 201.650801 
L 290.953093 201.879218 
L 291.060225 201.699414 
L 291.27449 199.96771 
L 291.488756 198.360574 
L 291.595888 198.542018 
L 292.024418 200.389959 
L 292.452949 200.734911 
L 292.881479 201.517659 
L 293.73854 202.020299 
L 294.274202 201.768239 
L 295.452661 201.090841 
L 296.095456 201.061797 
L 296.631119 201.294411 
L 296.952517 201.564799 
L 297.48818 204.911308 
L 297.809577 205.967673 
L 297.91671 205.751038 
L 298.452373 201.765526 
L 298.77377 204.179714 
L 299.202301 206.925727 
L 299.309433 207.376616 
L 299.416566 207.300325 
L 299.952229 203.138968 
L 300.487892 204.50938 
L 301.23782 204.868666 
L 301.880615 204.414032 
L 302.630543 203.646478 
L 302.737676 203.220692 
L 303.059073 205.092526 
L 303.380471 206.582819 
L 303.487604 206.691234 
L 303.594736 206.512791 
L 303.809001 205.014403 
L 304.130399 202.39333 
L 304.237532 202.338443 
L 304.558929 203.247064 
L 304.98746 205.750503 
L 305.201725 205.927994 
L 305.41599 206.222997 
L 305.630255 205.292133 
L 306.058785 202.792122 
L 306.594448 206.255897 
L 306.808713 206.685875 
L 306.915846 206.88165 
L 307.022979 206.695157 
L 307.451509 203.576178 
L 307.558641 203.675346 
L 307.987172 205.369196 
L 308.415702 205.662484 
L 308.844232 206.421905 
L 309.058497 207.874738 
L 309.379895 210.68653 
L 309.59416 210.942826 
L 309.808425 209.664466 
L 310.129823 207.613273 
L 310.344088 207.069226 
L 310.451221 207.102673 
L 310.558353 207.654892 
L 311.094016 212.584046 
L 311.201149 212.370919 
L 311.843944 207.272088 
L 311.951077 207.657773 
L 312.48674 212.302608 
L 312.593872 212.02076 
L 312.808137 209.937151 
L 313.129535 206.555118 
L 313.3438 207.163454 
L 313.986596 211.155598 
L 314.093728 210.768538 
L 314.415126 207.326523 
L 314.629391 205.551369 
L 314.843656 207.041275 
L 315.165054 209.566477 
L 315.486452 210.429468 
L 315.593584 210.050056 
L 316.129247 205.357736 
L 316.557777 206.849959 
L 316.986308 206.673251 
L 317.414838 207.41697 
L 317.950501 210.333955 
L 318.271899 211.523126 
L 318.379031 211.461387 
L 318.593296 209.928107 
L 318.914694 207.56547 
L 319.236092 209.400153 
L 319.664622 212.308184 
L 319.878887 212.763522 
L 320.093152 211.008141 
L 320.41455 208.659402 
L 320.628815 209.096137 
L 320.950213 209.655442 
L 321.593008 209.699103 
L 321.914406 209.541353 
L 323.414262 208.37669 
L 323.521395 207.987323 
L 324.16419 210.757177 
L 324.271323 210.860739 
L 324.378455 210.767086 
L 324.59272 209.660155 
L 324.914118 207.375257 
L 325.021251 207.312992 
L 325.556913 208.960235 
L 325.878311 210.473635 
L 326.306841 211.033767 
L 326.413974 210.845727 
L 326.949637 208.178056 
L 327.592432 211.438389 
L 327.806697 211.891755 
L 327.91383 211.793201 
L 328.128095 210.633277 
L 328.34236 209.200291 
L 328.449493 209.141811 
L 329.306553 212.18423 
L 329.627951 214.07612 
L 329.842216 214.469545 
L 329.949349 214.165794 
L 330.377879 212.022783 
L 330.699277 211.894319 
L 330.806409 211.990764 
L 331.020675 213.457251 
L 331.342072 216.219564 
L 331.449205 216.419044 
L 331.556337 216.377884 
L 331.770603 214.693215 
L 332.092 212.409159 
L 332.199133 212.222077 
L 332.306265 212.471114 
L 332.520531 214.522299 
L 332.734796 216.449789 
L 332.841928 216.648789 
L 332.949061 216.587208 
L 333.163326 214.992952 
L 333.484724 211.784821 
L 333.591856 211.843384 
L 333.698989 212.038931 
L 333.913254 213.441692 
L 334.234652 215.756937 
L 334.341784 215.832303 
L 334.448917 215.574528 
L 334.663182 213.747126 
L 334.98458 210.579464 
L 335.198845 211.678657 
L 335.627375 214.490658 
L 335.84164 214.97877 
L 335.948773 214.700517 
L 336.163038 212.721527 
L 336.484436 210.122795 
L 336.591568 210.0693 
L 337.127231 213.695297 
L 337.448629 214.44961 
L 337.555761 214.03428 
L 337.984292 210.013729 
L 338.73422 214.268481 
L 338.948485 214.701507 
L 339.16275 213.265155 
L 339.484148 210.35572 
L 340.341208 215.277209 
L 340.448341 215.329696 
L 340.662606 213.757162 
L 340.876871 211.67394 
L 341.091136 212.589069 
L 341.733932 216.150329 
L 341.841064 216.350576 
L 341.948197 216.151494 
L 342.269595 213.582427 
L 342.376727 212.872983 
L 342.590992 213.240933 
L 342.805257 214.557986 
L 343.126655 216.822343 
L 343.34092 217.292879 
L 343.448053 217.017367 
L 343.876583 214.065286 
L 343.983716 213.922988 
L 344.090848 214.142345 
L 344.733644 217.625942 
L 344.840776 217.41765 
L 345.483572 214.023722 
L 345.697837 214.111914 
L 345.912102 215.290649 
L 346.126367 216.902104 
L 346.2335 217.083784 
L 346.447765 216.796528 
L 346.66203 215.558139 
L 346.983428 213.811536 
L 347.09056 213.840132 
L 347.304825 214.669052 
L 347.626223 216.163684 
L 347.733356 216.155319 
L 347.947621 215.662503 
L 348.269019 213.617323 
L 348.376151 212.838192 
L 348.590416 213.396619 
L 349.018947 215.168881 
L 349.233212 215.266479 
L 349.447477 214.716238 
L 349.768875 212.671172 
L 349.876007 211.964799 
L 350.625935 214.686351 
L 350.733068 214.706961 
L 350.947333 214.158145 
L 351.482996 211.715265 
L 351.911526 214.269894 
L 352.232924 214.470373 
L 352.340056 214.549383 
L 352.447189 214.384545 
L 352.661454 213.326023 
L 352.875719 212.055559 
L 353.518515 214.715364 
L 353.839912 215.027058 
L 354.054178 214.452632 
L 354.375575 212.706042 
L 355.125503 215.612275 
L 355.339768 215.770663 
L 355.554034 215.148608 
L 355.768299 214.015719 
L 355.982564 214.460722 
L 356.732492 216.86513 
L 356.839624 216.748856 
L 357.375287 215.128325 
L 357.48242 215.210506 
L 357.589552 215.344626 
L 357.803818 216.284475 
L 358.125215 217.891316 
L 358.33948 218.058447 
L 358.446613 217.866914 
L 358.982276 216.004092 
L 359.089408 216.139337 
L 359.303674 217.388486 
L 359.517939 218.610633 
L 359.732204 218.88 
L 359.732204 218.88 
" clip-path="url(#p2177663fa9)" style="fill: none; stroke: #1f77b4; stroke-width: 1.5; stroke-linecap: square"/>
   </g>
   <g id="line2d_13">
    <path d="M 55.368567 91.741111 
L 55.4757 86.89439 
L 55.689965 89.808877 
L 55.797098 89.17658 
L 56.011363 89.562505 
L 56.225628 89.943013 
L 56.332761 89.919305 
L 56.547026 89.390152 
L 56.868423 86.888691 
L 57.082689 85.642169 
L 57.296954 85.215184 
L 58.046882 86.880421 
L 58.261147 86.251361 
L 58.582545 85.325432 
L 58.79681 84.961932 
L 58.903942 85.061841 
L 59.011075 84.7897 
L 59.65387 86.973488 
L 59.761003 86.756937 
L 60.510931 82.583081 
L 61.046594 85.025491 
L 61.153726 85.124843 
L 61.582257 84.119781 
L 61.689389 84.202287 
L 61.903654 84.676794 
L 62.54645 87.244882 
L 62.653582 87.52585 
L 62.97498 87.495151 
L 63.296378 88.573768 
L 63.617775 88.304029 
L 63.832041 89.265735 
L 64.046306 90.370058 
L 64.153438 90.484388 
L 64.260571 90.413155 
L 64.474836 89.580167 
L 64.796234 86.290201 
L 64.903366 86.403167 
L 65.439029 87.267647 
L 65.546162 87.152694 
L 65.760427 86.080523 
L 66.188957 83.534784 
L 66.510355 84.683013 
L 67.046018 85.660653 
L 67.367415 84.922833 
L 67.795946 85.860266 
L 68.438741 87.249376 
L 68.974404 85.928101 
L 69.188669 85.091021 
L 69.938597 87.314279 
L 70.581393 85.76635 
L 71.224188 88.031318 
L 71.438453 88.410824 
L 71.974116 87.451513 
L 72.188381 87.534281 
L 72.295514 87.574743 
L 72.402646 87.472366 
L 72.509779 86.897706 
L 72.938309 88.299894 
L 73.152574 89.020503 
L 73.259707 89.024471 
L 73.581105 87.009872 
L 73.902502 85.275983 
L 74.759563 87.629746 
L 74.973828 87.507535 
L 75.295226 87.538233 
L 75.830889 89.175276 
L 76.152286 90.372407 
L 76.259419 90.239228 
L 76.795082 87.989012 
L 77.330745 89.626684 
L 77.54501 90.412426 
L 77.652142 90.325548 
L 77.97354 89.100342 
L 78.187805 88.812351 
L 78.40207 88.309686 
L 79.259131 91.030646 
L 79.794794 90.271697 
L 80.437589 92.178203 
L 80.651854 92.537713 
L 80.86612 91.899306 
L 81.29465 89.951678 
L 81.401782 90.207039 
L 82.044578 91.823298 
L 82.15171 91.688336 
L 82.687373 89.576315 
L 82.794506 89.396068 
L 83.544434 92.074684 
L 83.758699 91.504403 
L 84.187229 89.947563 
L 84.401494 88.718151 
L 84.61576 88.098099 
L 85.151422 90.563917 
L 85.258555 90.805931 
L 85.365688 90.603839 
L 85.687085 89.452738 
L 85.90135 88.805967 
L 86.008483 88.356088 
L 86.544146 90.673579 
L 86.651278 90.877684 
L 86.758411 90.769087 
L 87.186941 89.489559 
L 87.294074 89.444849 
L 87.401206 89.189912 
L 88.044002 91.243537 
L 88.151134 91.280644 
L 88.3654 90.579765 
L 88.901062 88.449963 
L 89.543858 90.975185 
L 89.65099 91.075715 
L 89.865256 90.248372 
L 90.186653 89.160429 
L 90.829449 87.577455 
L 91.150846 89.219092 
L 91.472244 89.759304 
L 91.579377 89.613241 
L 92.007907 88.48952 
L 92.222172 88.039911 
L 92.650702 89.779404 
L 92.9721 90.560591 
L 93.829161 88.994883 
L 94.150558 90.506682 
L 95.757547 90.693657 
L 96.507475 91.207036 
L 96.72174 91.113611 
L 97.15027 91.166543 
L 97.364536 90.516339 
L 97.793066 88.870712 
L 98.114464 90.063181 
L 98.435861 90.533019 
L 98.650126 89.660365 
L 98.971524 88.644177 
L 99.185789 87.798356 
L 99.721452 90.327813 
L 99.935717 90.753115 
L 100.149982 89.744647 
L 100.685645 86.430412 
L 101.114176 88.240164 
L 101.328441 88.429651 
L 101.542706 87.136042 
L 101.971236 84.325744 
L 102.078369 83.760938 
L 102.614032 84.055527 
L 103.149694 84.614036 
L 103.899622 85.799449 
L 104.435285 86.604228 
L 104.64955 86.111947 
L 104.970948 85.484095 
L 105.185213 85.073376 
L 105.506611 83.158318 
L 105.720876 81.841783 
L 106.042274 84.65151 
L 106.256539 84.951547 
L 106.470804 84.290211 
L 106.899334 82.92178 
L 107.1136 82.540807 
L 107.434997 85.390976 
L 107.649262 86.169263 
L 107.756395 86.242068 
L 108.39919 85.083044 
L 108.506323 84.982136 
L 108.613456 84.661717 
L 108.934853 87.456705 
L 109.149118 88.036415 
L 109.256251 87.932107 
L 110.006179 85.179505 
L 110.434709 87.973016 
L 110.648974 88.274982 
L 110.756107 88.072691 
L 111.398902 85.608109 
L 111.827433 87.730116 
L 112.041698 88.087296 
L 112.14883 88.040702 
L 112.791626 86.617511 
L 112.898758 86.628126 
L 113.327289 88.558753 
L 113.541554 88.97181 
L 113.648686 89.000604 
L 114.184349 88.408298 
L 114.291482 88.401397 
L 114.61288 88.773479 
L 115.04141 90.242052 
L 115.255675 90.699741 
L 115.362808 90.706181 
L 115.684205 90.024569 
L 116.005603 89.030519 
L 116.541266 90.640643 
L 116.755531 90.817649 
L 116.969796 90.48994 
L 117.291194 89.420758 
L 117.505459 88.470349 
L 118.041122 90.30252 
L 118.255387 90.468332 
L 118.469652 90.083337 
L 119.005315 88.629891 
L 119.21958 88.870935 
L 119.433845 89.203887 
L 119.540978 89.14927 
L 119.969508 90.724115 
L 120.290906 91.141305 
L 120.505171 90.931897 
L 120.933701 89.842946 
L 121.040834 89.47518 
L 121.469364 90.980283 
L 121.790762 91.418937 
L 122.005027 91.229221 
L 122.326425 90.339981 
L 122.433557 89.928778 
L 122.96922 91.347222 
L 123.183485 91.538297 
L 123.397751 91.437046 
L 123.612016 91.030003 
L 123.933413 89.965675 
L 124.469076 91.57471 
L 124.683341 91.811241 
L 124.897607 91.736027 
L 125.111872 91.357937 
L 125.326137 90.746271 
L 125.8618 92.043287 
L 126.183197 92.295968 
L 126.397463 92.141567 
L 126.611728 91.706386 
L 126.825993 91.011263 
L 127.361656 92.316914 
L 127.575921 92.516956 
L 127.790186 92.452206 
L 128.004451 92.107684 
L 128.432981 91.220475 
L 128.754379 91.30463 
L 129.504307 91.517185 
L 130.254235 91.552127 
L 130.789898 91.824888 
L 131.539826 92.521348 
L 132.504019 93.748702 
L 132.932549 94.533614 
L 133.468212 95.279479 
L 133.896743 95.397051 
L 134.325273 95.215869 
L 134.860936 96.450812 
L 135.182333 96.770487 
L 135.503731 96.716711 
L 135.717996 96.44514 
L 136.253659 97.573235 
L 136.575057 97.865759 
L 136.896455 97.734362 
L 137.11072 97.431257 
L 137.217852 97.169413 
L 137.753515 98.452702 
L 137.96778 98.69743 
L 138.182045 98.663487 
L 138.503443 98.34836 
L 138.717708 97.832 
L 139.146239 98.997111 
L 139.467636 99.412847 
L 139.681901 99.355791 
L 140.003299 99.020285 
L 140.217564 98.637208 
L 140.431829 98.59519 
L 140.967492 98.93022 
L 141.396023 99.115301 
L 141.931685 99.123623 
L 142.360216 100.228469 
L 142.681613 100.617664 
L 142.895879 100.572373 
L 143.217276 100.15432 
L 143.538674 99.661944 
L 143.752939 99.704589 
L 144.288602 100.188865 
L 144.61 100.638486 
L 145.03853 101.548712 
L 145.359928 101.902042 
L 145.574193 101.908448 
L 145.788458 101.746874 
L 146.002723 101.530891 
L 146.216988 101.705306 
L 146.645519 102.558559 
L 147.074049 103.310101 
L 147.395447 103.467805 
L 147.716844 103.266422 
L 147.931109 103.021919 
L 148.145375 103.088612 
L 149.002435 103.614818 
L 149.323833 103.784697 
L 149.752363 104.545277 
L 150.180893 104.897132 
L 150.502291 104.851113 
L 150.716556 104.601483 
L 150.823689 104.387855 
L 151.252219 105.036243 
L 151.680749 105.3529 
L 152.002147 105.315943 
L 152.216412 105.098298 
L 152.859208 105.813012 
L 153.287738 106.03162 
L 153.502003 105.980564 
L 153.716268 105.760929 
L 154.359064 106.635861 
L 154.680461 106.869385 
L 154.894727 106.844791 
L 155.430389 106.519572 
L 156.501715 107.0831 
L 157.037378 108.382737 
L 157.358776 108.744385 
L 157.573041 108.581024 
L 157.787306 108.097909 
L 157.894439 107.7377 
L 158.537234 108.939248 
L 158.751499 109.097539 
L 158.965764 108.958999 
L 159.180029 108.566302 
L 159.394295 108.060127 
L 159.60856 108.017795 
L 160.46562 108.459011 
L 162.608272 109.288761 
L 163.143935 109.624789 
L 163.572465 110.971323 
L 163.893863 111.493679 
L 164.108128 111.481254 
L 164.750923 110.755073 
L 165.286586 112.465799 
L 165.500851 112.82052 
L 165.715116 112.783208 
L 166.036514 112.251709 
L 166.250779 111.699304 
L 166.465044 111.657343 
L 167.10784 112.173919 
L 167.53637 112.202482 
L 167.750635 112.154579 
L 168.179166 113.415955 
L 168.500563 113.89786 
L 168.714828 113.814404 
L 168.929094 113.353202 
L 169.250491 112.006123 
L 169.786154 113.330611 
L 170.000419 113.605176 
L 170.214684 113.547545 
L 170.42895 113.133053 
L 170.643215 112.367987 
L 171.28601 113.621739 
L 171.500275 113.761684 
L 171.71454 113.597814 
L 172.357336 112.427521 
L 173.107264 112.613493 
L 173.428662 112.635959 
L 173.535794 112.477819 
L 173.964324 113.518673 
L 174.285722 113.842412 
L 174.499987 113.739536 
L 174.821385 113.027088 
L 174.928518 112.702977 
L 175.46418 113.715851 
L 175.785578 113.935795 
L 175.999843 113.776748 
L 176.321241 113.069523 
L 176.428374 112.75369 
L 176.964036 114.048862 
L 177.285434 114.348136 
L 177.499699 114.138935 
L 177.92823 113.110653 
L 178.571025 114.850806 
L 178.78529 115.027073 
L 178.999555 114.808974 
L 179.535218 113.783334 
L 180.178014 114.541577 
L 180.820809 114.324394 
L 181.67787 114.108914 
L 182.320665 114.096784 
L 182.749195 116.162049 
L 183.070593 116.712018 
L 183.177726 116.632619 
L 183.713388 114.862161 
L 183.820521 114.415214 
L 184.249051 116.480033 
L 184.463316 116.824653 
L 184.570449 116.836538 
L 184.784714 116.193092 
L 185.213244 114.58329 
L 185.641775 116.246764 
L 185.85604 116.498162 
L 185.963172 116.511959 
L 186.070305 116.36741 
L 186.605968 114.800323 
L 186.820233 114.619455 
L 187.248763 116.233549 
L 187.570161 116.50797 
L 187.784426 116.147524 
L 188.105824 115.578716 
L 188.212956 115.509447 
L 188.748619 117.188755 
L 189.070017 117.505612 
L 189.712812 117.05905 
L 190.248475 119.131755 
L 190.569873 119.789313 
L 190.677006 119.740821 
L 190.998403 119.146002 
L 191.212668 119.353825 
L 191.641199 121.195392 
L 192.069729 122.247786 
L 192.283994 121.692407 
L 192.498259 121.29254 
L 192.712524 121.459237 
L 193.033922 122.134691 
L 193.462452 122.766072 
L 193.676718 122.507371 
L 193.890983 122.27203 
L 194.426646 122.294637 
L 194.640911 122.52137 
L 194.855176 122.76599 
L 195.497971 122.758263 
L 195.712236 122.765399 
L 195.926502 123.104966 
L 196.462164 124.028001 
L 196.67643 124.142769 
L 196.890695 124.006859 
L 197.319225 123.372277 
L 197.747755 124.635688 
L 198.069153 125.078808 
L 198.176286 125.041174 
L 198.497683 124.274091 
L 198.711948 123.747532 
L 199.140479 125.07599 
L 199.569009 125.542201 
L 199.783274 125.221173 
L 200.211804 124.509664 
L 200.533202 125.656241 
L 201.068865 126.383538 
L 201.604528 126.009088 
L 201.925926 126.651876 
L 202.568721 128.006443 
L 202.782986 128.177393 
L 203.104384 128.173306 
L 203.425782 127.909707 
L 203.640047 128.0784 
L 203.961444 128.385743 
L 204.17571 128.219773 
L 205.03277 126.948767 
L 205.996963 125.220081 
L 206.532626 124.793422 
L 207.068289 124.672974 
L 207.496819 124.810283 
L 207.711084 124.970085 
L 207.818217 124.804928 
L 208.139615 126.58545 
L 208.461012 126.786077 
L 208.568145 126.892851 
L 208.889543 126.360966 
L 209.210941 126.559022 
L 209.532338 127.748138 
L 209.853736 127.498653 
L 210.068001 127.66144 
L 210.282266 127.701424 
L 210.603664 128.146983 
L 210.710797 128.068708 
L 210.925062 128.590781 
L 211.246459 128.451471 
L 211.996387 129.880776 
L 212.639183 129.074317 
L 212.853448 129.823327 
L 213.174846 130.849575 
L 213.281978 130.801029 
L 213.603376 129.816806 
L 213.817641 129.032522 
L 213.924774 128.928792 
L 214.031906 129.078592 
L 214.460437 130.631231 
L 214.674702 130.049238 
L 215.210365 127.531485 
L 215.317497 127.624058 
L 215.531762 128.334223 
L 215.85316 129.820474 
L 215.960293 129.549633 
L 216.495955 127.227412 
L 216.817353 126.234174 
L 217.353016 125.766494 
L 217.781546 125.701254 
L 217.995811 125.783661 
L 218.317209 126.194517 
L 218.531474 126.579075 
L 219.17427 129.600815 
L 219.388535 128.950445 
L 219.6028 128.379646 
L 219.817065 128.780129 
L 220.138463 129.586521 
L 220.566993 131.424712 
L 220.674126 131.535612 
L 221.102656 131.220491 
L 221.531186 132.16494 
L 221.852584 132.554897 
L 222.602512 135.168037 
L 222.816777 135.566755 
L 223.138175 134.871449 
L 223.245307 134.972646 
L 223.35244 135.236937 
L 223.566705 134.813077 
L 223.673838 134.86037 
L 223.888103 135.697064 
L 224.316633 138.613409 
L 224.423766 138.21924 
L 224.959429 134.009821 
L 225.173694 133.881408 
L 225.280826 134.059452 
L 225.495091 135.188693 
L 225.709357 136.573823 
L 225.816489 136.195813 
L 226.352152 131.909314 
L 227.316345 130.838075 
L 227.959141 130.846577 
L 228.280538 131.163503 
L 228.709069 131.894869 
L 229.137599 132.829844 
L 229.351864 133.928699 
L 229.458997 134.030595 
L 229.566129 133.968284 
L 229.673262 134.108403 
L 229.994659 135.577721 
L 230.316057 135.149035 
L 230.744587 135.702943 
L 230.958853 135.653735 
L 231.173118 136.596733 
L 231.494515 138.277178 
L 232.030178 137.634398 
L 232.351576 136.529311 
L 232.565841 137.753377 
L 232.887239 139.841798 
L 232.994371 139.89365 
L 233.315769 138.613788 
L 233.744299 136.251321 
L 234.279962 134.970772 
L 234.60136 134.096779 
L 234.922758 135.522566 
L 235.244155 136.763049 
L 235.351288 136.630365 
L 236.101216 133.279476 
L 236.636879 135.638522 
L 236.744011 135.70496 
L 236.851144 135.525071 
L 237.493939 133.094418 
L 238.029602 135.485354 
L 238.243867 135.50563 
L 238.458133 134.65725 
L 238.672398 133.929404 
L 238.993795 133.750231 
L 239.422326 136.02221 
L 239.636591 136.245828 
L 239.743723 136.228133 
L 240.172254 135.093185 
L 240.386519 135.320529 
L 240.707917 136.225961 
L 241.029314 137.499062 
L 241.350712 138.05876 
L 241.67211 137.632054 
L 242.422038 139.11232 
L 242.850568 140.15282 
L 243.064833 140.160299 
L 243.386231 139.781512 
L 243.707629 138.928941 
L 244.886087 135.338476 
L 245.42175 134.569547 
L 245.528882 134.469737 
L 245.636015 134.043229 
L 246.171678 137.000856 
L 246.27881 137.234773 
L 246.385943 137.163369 
L 246.921606 134.586261 
L 247.028738 134.401615 
L 247.457269 137.121401 
L 247.778666 137.628754 
L 247.992931 136.48684 
L 248.207197 135.53397 
L 248.421462 135.440419 
L 248.635727 135.706465 
L 249.064257 138.284722 
L 249.385655 138.901795 
L 249.814185 137.343488 
L 250.02845 137.730713 
L 250.992643 141.574002 
L 251.528306 143.61391 
L 251.742571 143.808366 
L 251.956837 143.489048 
L 252.385367 141.924381 
L 253.135295 139.138233 
L 253.670958 138.031966 
L 253.992355 137.752237 
L 254.313753 137.752608 
L 254.635151 137.9966 
L 255.063681 140.087957 
L 255.385079 140.56777 
L 255.492212 140.408572 
L 255.813609 139.529594 
L 256.135007 139.680609 
L 256.456405 141.429968 
L 256.884935 142.068907 
L 256.992068 141.972495 
L 257.206333 141.519943 
L 257.313465 141.522643 
L 257.634863 142.02271 
L 257.741996 142.170667 
L 258.384791 144.416849 
L 258.599056 144.83493 
L 258.813321 144.856058 
L 259.134719 145.201632 
L 259.348984 145.136471 
L 259.563249 145.515062 
L 259.670382 145.361292 
L 259.777514 145.362221 
L 259.884647 145.738385 
L 260.42031 149.452404 
L 260.527442 149.503275 
L 260.741708 148.255432 
L 261.170238 144.370956 
L 261.27737 144.238944 
L 261.384503 144.507984 
L 261.813033 147.455239 
L 261.920166 147.2665 
L 262.241564 144.425466 
L 262.670094 140.95125 
L 262.884359 141.858149 
L 263.312889 144.140081 
L 263.420022 144.042195 
L 264.062817 139.746814 
L 264.705613 142.677666 
L 264.812745 142.714205 
L 265.02701 141.42384 
L 265.348408 139.761127 
L 265.562673 139.017691 
L 266.098336 141.94658 
L 266.205469 142.127787 
L 266.312601 142.074381 
L 266.848264 139.713975 
L 266.955397 139.67253 
L 267.705325 140.628756 
L 268.240988 143.885943 
L 268.455253 144.212715 
L 268.77665 142.82201 
L 268.883783 142.909578 
L 269.205181 144.045859 
L 269.847976 146.832517 
L 269.955109 146.699793 
L 270.169374 146.079242 
L 270.276506 146.145588 
L 270.597904 146.797399 
L 270.812169 146.619663 
L 270.919302 146.81657 
L 271.133567 148.473556 
L 271.347832 150.140491 
L 271.454965 150.39375 
L 271.562097 150.351982 
L 271.990628 149.440229 
L 272.204893 148.225798 
L 272.419158 148.109633 
L 272.740556 148.002117 
L 272.954821 149.036678 
L 273.276218 150.886768 
L 273.383351 150.845381 
L 273.597616 149.603766 
L 274.026146 145.672288 
L 274.240412 146.050569 
L 274.776074 147.831942 
L 274.883207 147.609344 
L 275.633135 143.389643 
L 276.061665 145.399075 
L 276.383063 145.85821 
L 277.025858 143.236034 
L 277.454389 145.37163 
L 277.775786 145.763617 
L 277.882919 145.557364 
L 278.204317 144.067512 
L 278.418582 143.749546 
L 278.525714 143.839733 
L 278.632847 143.774024 
L 278.954245 145.655473 
L 279.382775 146.231846 
L 279.811305 145.069511 
L 280.132703 145.633508 
L 281.739692 150.579219 
L 281.953957 150.543266 
L 282.168222 150.121275 
L 282.703885 148.205266 
L 283.453813 145.7573 
L 283.989476 144.688127 
L 284.418006 144.300733 
L 284.739404 144.262487 
L 285.060801 144.421976 
L 285.489332 144.931651 
L 286.024994 146.052032 
L 286.560657 147.756244 
L 287.52485 151.860723 
L 287.953381 154.734083 
L 288.274778 154.674032 
L 288.489044 155.069629 
L 288.596176 154.694857 
L 288.810441 153.059634 
L 288.917574 152.967072 
L 289.131839 154.843227 
L 289.453237 157.978075 
L 289.560369 158.356527 
L 289.774634 156.582677 
L 290.310297 151.628315 
L 290.41743 151.760156 
L 290.84596 154.786188 
L 290.953093 154.757524 
L 291.167358 153.054393 
L 291.595888 149.592474 
L 292.131551 148.278819 
L 292.452949 147.713895 
L 292.881479 147.371057 
L 293.202877 147.410853 
L 293.631407 147.824929 
L 294.059937 148.540089 
L 294.488468 149.780604 
L 295.131263 152.505791 
L 295.881191 155.842724 
L 296.095456 156.086681 
L 296.309721 155.809576 
L 296.738252 154.339024 
L 296.952517 153.486866 
L 297.166782 153.812171 
L 297.381047 154.972399 
L 297.595312 156.348617 
L 297.702445 156.475957 
L 297.91671 155.34534 
L 298.452373 151.306496 
L 298.77377 152.579697 
L 299.095168 153.916435 
L 299.202301 153.926589 
L 299.416566 152.682581 
L 299.845096 150.235045 
L 300.059361 149.967156 
L 300.273626 149.879805 
L 300.595024 149.616467 
L 300.809289 149.721299 
L 301.66635 150.71683 
L 302.202013 151.981775 
L 302.737676 153.737874 
L 303.487604 157.409499 
L 303.809001 157.042792 
L 304.130399 157.871862 
L 304.344664 157.787237 
L 304.558929 158.173357 
L 304.773195 157.843297 
L 304.880327 158.211603 
L 305.41599 161.999133 
L 305.523123 161.964635 
L 305.737388 160.557155 
L 306.165918 156.924084 
L 306.273051 156.709333 
L 306.380183 156.866791 
L 306.915846 159.446591 
L 307.130111 157.988698 
L 307.558641 154.877207 
L 308.094304 153.63498 
L 308.415702 153.106159 
L 308.629967 152.933556 
L 309.058497 154.913282 
L 309.379895 155.414953 
L 309.487028 155.207629 
L 309.915558 153.341957 
L 310.129823 153.116933 
L 310.236956 152.941926 
L 310.665486 155.019038 
L 310.986884 155.346218 
L 311.201149 154.464748 
L 311.415414 153.708607 
L 311.629679 153.63286 
L 312.058209 155.784893 
L 312.272475 156.060724 
L 312.379607 156.279915 
L 312.48674 156.240681 
L 312.808137 155.112205 
L 313.022403 155.39384 
L 313.129535 155.529021 
L 313.450933 157.06515 
L 313.986596 158.260668 
L 314.307993 157.69589 
L 314.736524 158.641459 
L 314.950789 158.855254 
L 315.165054 159.850985 
L 315.486452 161.437239 
L 315.914982 161.640198 
L 316.022115 161.454954 
L 316.343512 160.458821 
L 316.66491 160.539224 
L 316.986308 159.528463 
L 317.414838 158.008675 
L 317.629103 158.559193 
L 318.164766 160.656864 
L 318.271899 160.373525 
L 318.914694 155.985985 
L 319.021827 156.396026 
L 319.557489 158.439915 
L 319.664622 158.468825 
L 319.878887 157.361972 
L 320.200285 155.537561 
L 320.41455 154.95646 
L 320.735948 155.019646 
L 321.057345 154.815428 
L 321.271611 154.943006 
L 322.128671 156.08567 
L 322.771467 157.754703 
L 323.842792 161.547991 
L 324.378455 163.976683 
L 324.806985 164.059036 
L 325.449781 162.593318 
L 325.664046 162.501127 
L 325.878311 163.407665 
L 326.199709 165.171024 
L 326.306841 165.127994 
L 326.521107 164.007663 
L 326.949637 160.496589 
L 327.163902 160.703491 
L 327.378167 161.426904 
L 327.699565 162.617616 
L 327.806697 162.424839 
L 328.556625 158.431093 
L 328.878023 157.938142 
L 329.306553 159.715007 
L 329.627951 160.187381 
L 329.735084 159.990414 
L 330.270747 157.848787 
L 330.377879 157.833545 
L 330.485012 157.956375 
L 330.592144 157.800891 
L 331.020675 159.665284 
L 331.342072 159.977745 
L 331.449205 159.732776 
L 331.770603 158.408081 
L 331.984868 158.196783 
L 332.413398 160.221787 
L 332.841928 160.56551 
L 333.270459 159.374628 
L 333.484724 159.537469 
L 333.913254 161.373655 
L 334.341784 162.016567 
L 334.663182 161.348604 
L 334.98458 162.011698 
L 335.734508 164.411906 
L 335.948773 164.547319 
L 336.055905 164.493493 
L 336.163038 164.603225 
L 336.377303 165.050931 
L 336.484436 165.031522 
L 336.591568 164.835912 
L 336.805833 164.117172 
L 336.912966 164.268728 
L 337.555761 168.007138 
L 337.770027 167.176124 
L 338.198557 164.341328 
L 338.305689 164.263917 
L 338.519955 165.496943 
L 338.73422 166.828347 
L 338.841352 167.02871 
L 338.948485 166.956384 
L 339.16275 165.532952 
L 339.59128 162.703085 
L 339.698413 162.769726 
L 339.912678 163.524837 
L 340.234076 164.873936 
L 340.341208 164.666895 
L 340.876871 161.0978 
L 340.984004 161.435264 
L 341.626799 163.442998 
L 341.733932 163.284015 
L 342.376727 159.935701 
L 342.91239 162.257372 
L 343.126655 162.536789 
L 343.233788 162.267965 
L 343.662318 160.107105 
L 343.769451 159.805414 
L 344.305113 162.119817 
L 344.519379 162.40235 
L 344.626511 162.292328 
L 345.162174 160.307948 
L 345.269307 160.395122 
L 345.590704 161.231395 
L 345.912102 162.551733 
L 346.2335 162.946966 
L 346.340632 162.747654 
L 346.66203 161.58657 
L 346.876295 161.6521 
L 347.304825 163.535034 
L 347.733356 164.143405 
L 348.161886 163.229475 
L 348.376151 163.529364 
L 348.911814 165.20234 
L 349.233212 165.912429 
L 349.55461 165.517189 
L 349.98314 166.018927 
L 350.197405 165.981842 
L 350.41167 166.809412 
L 350.733068 168.107774 
L 350.947333 168.270495 
L 351.268731 167.913534 
L 351.697261 166.216646 
L 351.804394 166.301145 
L 352.340056 169.124599 
L 352.447189 169.069314 
L 352.661454 167.928053 
L 352.982852 166.135976 
L 353.197117 165.914079 
L 353.411382 166.698505 
L 353.625647 167.550604 
L 353.73278 167.652503 
L 353.839912 167.499041 
L 354.16131 165.642745 
L 354.375575 164.217745 
L 354.804106 165.175032 
L 355.125503 165.997508 
L 355.232636 165.874644 
L 355.768299 163.131653 
L 355.875431 163.507467 
L 356.303962 164.752249 
L 356.518227 165.092265 
L 356.625359 165.047527 
L 357.375287 162.585214 
L 357.803818 164.276509 
L 358.125215 164.585074 
L 358.232348 164.423015 
L 358.660878 162.829312 
L 358.768011 162.65722 
L 359.196541 164.403656 
L 359.625071 164.725287 
L 359.732204 164.429552 
L 359.732204 164.429552 
" clip-path="url(#p2177663fa9)" style="fill: none; stroke: #ff7f0e; stroke-width: 1.5; stroke-linecap: square"/>
   </g>
   <g id="line2d_14">
    <path d="M 55.368567 17.28 
L 55.689965 28.980981 
L 55.90423 30.675751 
L 56.439893 30.149273 
L 56.654158 29.164752 
L 57.189821 26.151637 
L 57.296954 26.168338 
L 57.939749 28.550441 
L 58.046882 28.524645 
L 58.261147 27.428469 
L 58.903942 22.87461 
L 59.011075 22.448256 
L 59.22534 23.475384 
L 59.546738 25.096137 
L 59.761003 25.487786 
L 59.868135 25.373583 
L 60.189533 24.266744 
L 60.510931 23.937474 
L 61.153726 28.217154 
L 61.260859 28.273959 
L 61.475124 27.470381 
L 61.903654 25.202698 
L 62.225052 27.332784 
L 62.439317 28.335294 
L 62.653582 28.291783 
L 62.867847 28.10201 
L 63.082113 27.377717 
L 63.296378 26.124704 
L 63.832041 28.682292 
L 64.046306 28.659293 
L 64.153438 28.673394 
L 64.367703 28.328826 
L 64.689101 27.148559 
L 64.796234 26.437445 
L 65.224764 28.570116 
L 65.546162 29.833057 
L 65.653294 29.823435 
L 65.867559 28.566214 
L 66.188957 25.201132 
L 66.510355 26.770646 
L 66.831753 28.634782 
L 67.046018 28.88204 
L 67.15315 28.712679 
L 67.474548 26.687302 
L 67.688813 25.587066 
L 68.010211 27.418087 
L 68.224476 28.49426 
L 68.438741 28.691913 
L 68.545874 28.583552 
L 68.867271 27.416115 
L 69.188669 26.481383 
L 69.510067 28.155938 
L 69.831465 29.741312 
L 70.04573 30.11585 
L 70.152862 30.115295 
L 70.367128 29.525957 
L 70.581393 28.418197 
L 70.795658 29.085437 
L 71.224188 31.796495 
L 71.331321 31.779147 
L 71.545586 31.309921 
L 71.974116 29.341707 
L 72.295514 28.422662 
L 72.402646 28.273054 
L 72.509779 27.703941 
L 72.831177 29.48062 
L 73.152574 30.977363 
L 73.259707 31.046902 
L 73.36684 30.831085 
L 73.902502 27.945495 
L 74.009635 28.313069 
L 74.759563 30.928897 
L 74.973828 30.445483 
L 75.295226 28.784893 
L 75.402358 29.069113 
L 76.045154 31.362975 
L 76.152286 31.38039 
L 76.259419 31.206532 
L 76.580817 29.693813 
L 76.795082 28.640326 
L 77.11648 30.301963 
L 77.437877 31.887156 
L 77.54501 32.074066 
L 77.652142 31.995514 
L 77.97354 31.415404 
L 78.294938 31.084213 
L 78.616336 32.34078 
L 78.937733 34.336993 
L 79.259131 35.993909 
L 79.473396 35.694378 
L 79.687661 34.513603 
L 79.794794 33.500384 
L 80.009059 33.706146 
L 80.223324 34.545203 
L 80.651854 36.348395 
L 80.758987 36.439776 
L 80.86612 36.298605 
L 81.080385 34.736742 
L 81.29465 31.713009 
L 81.508915 32.392796 
L 82.044578 34.696016 
L 82.15171 34.513273 
L 82.794506 31.824341 
L 83.115904 33.41944 
L 83.544434 36.235962 
L 83.651566 36.49479 
L 83.758699 36.341412 
L 84.187229 33.522536 
L 84.61576 30.909876 
L 84.830025 32.15915 
L 85.258555 35.462179 
L 85.365688 35.615013 
L 85.47282 35.271915 
L 86.008483 31.654178 
L 86.329881 33.38669 
L 86.651278 35.8815 
L 86.758411 36.030439 
L 86.972676 35.158069 
L 87.401206 32.431134 
L 87.508339 32.737439 
L 87.722604 33.832455 
L 88.151134 36.598269 
L 88.3654 35.776106 
L 88.901062 31.741381 
L 89.008195 32.125424 
L 89.22246 33.355536 
L 89.543858 35.786289 
L 89.65099 35.900813 
L 89.865256 34.933173 
L 90.615184 30.606444 
L 90.829449 30.117549 
L 91.150846 32.646122 
L 91.472244 35.191104 
L 91.579377 35.310926 
L 91.686509 35.110299 
L 92.222172 31.253007 
L 92.329305 31.713642 
L 92.54357 33.29154 
L 92.864968 36.247834 
L 92.9721 36.324486 
L 93.186365 35.60575 
L 93.829161 32.312387 
L 94.043426 33.034321 
L 94.257691 33.872576 
L 94.793354 34.192441 
L 95.221884 34.769124 
L 96.078945 36.237451 
L 96.400342 36.365385 
L 96.614608 36.545058 
L 96.828873 36.40695 
L 97.043138 35.965218 
L 97.257403 34.613619 
L 97.793066 29.938319 
L 98.007331 31.431479 
L 98.435861 34.743845 
L 98.542994 34.909287 
L 98.650126 34.759607 
L 99.185789 31.468652 
L 99.292922 31.58174 
L 99.400054 31.942898 
L 99.61432 34.010879 
L 99.828585 36.546606 
L 99.935717 36.745713 
L 100.149982 35.431172 
L 100.685645 28.995106 
L 100.792778 29.549984 
L 101.007043 31.018208 
L 101.328441 33.837713 
L 101.435573 34.09798 
L 101.542706 33.779691 
L 101.971236 29.486843 
L 102.078369 28.155022 
L 102.614032 28.559411 
L 103.36396 29.423407 
L 103.685357 30.184152 
L 104.006755 31.844272 
L 104.328153 33.603847 
L 104.435285 33.649058 
L 104.863816 32.448763 
L 105.078081 31.272294 
L 105.720876 25.665328 
L 106.256539 32.439789 
L 106.470804 31.095211 
L 107.006467 27.362668 
L 107.1136 27.011654 
L 107.434997 29.817156 
L 107.756395 33.263042 
L 107.97066 32.460531 
L 108.613456 27.961439 
L 109.149118 32.771949 
L 109.256251 32.876644 
L 109.470516 32.215005 
L 110.006179 29.690634 
L 110.220444 30.53667 
L 110.756107 34.671622 
L 110.86324 34.436685 
L 111.184637 32.349859 
L 111.398902 31.115145 
L 111.506035 31.29018 
L 111.7203 32.478424 
L 112.14883 36.327115 
L 112.255963 36.23635 
L 112.577361 34.483573 
L 112.898758 33.211746 
L 113.113024 33.816236 
L 113.434421 36.869615 
L 113.648686 38.564638 
L 113.755819 38.768621 
L 113.970084 37.725272 
L 114.61288 33.150512 
L 114.827145 34.783158 
L 115.255675 38.156192 
L 115.362808 38.397669 
L 115.46994 38.012357 
L 115.898471 34.994247 
L 116.005603 34.617941 
L 116.648399 38.632506 
L 116.862664 38.966646 
L 117.076929 37.696461 
L 117.505459 34.684061 
L 118.255387 38.378191 
L 118.36252 38.261756 
L 118.683917 36.261195 
L 119.005315 34.773677 
L 119.21958 34.737088 
L 119.433845 34.945501 
L 119.540978 34.840189 
L 120.290906 37.291493 
L 120.398039 37.25183 
L 121.040834 35.754434 
L 121.897895 38.053907 
L 122.11216 37.66335 
L 122.433557 36.547437 
L 123.183485 39.209255 
L 123.290618 39.305122 
L 123.504883 38.853267 
L 123.933413 37.236346 
L 124.683341 41.193807 
L 124.790474 41.316772 
L 125.004739 40.74448 
L 125.326137 39.777571 
L 126.29033 43.5863 
L 126.504595 42.91926 
L 126.825993 41.30322 
L 127.254523 42.861425 
L 127.683053 44.756549 
L 127.790186 44.733082 
L 128.111584 43.295406 
L 128.325849 42.493143 
L 128.540114 42.369727 
L 128.861512 42.672268 
L 129.182909 42.915397 
L 129.397175 42.924936 
L 129.61144 42.723478 
L 129.825705 43.020951 
L 130.254235 43.565766 
L 131.004163 43.986725 
L 132.504019 45.033886 
L 132.718284 45.054535 
L 132.825417 45.176127 
L 133.039682 46.128362 
L 133.468212 48.759575 
L 133.682477 49.165936 
L 134.003875 47.417084 
L 134.325273 45.596266 
L 134.432405 45.680053 
L 134.539538 45.968043 
L 135.182333 49.313365 
L 135.289466 49.060547 
L 135.717996 46.255547 
L 135.825129 46.316707 
L 135.932261 46.528935 
L 136.575057 49.056538 
L 136.682189 48.890852 
L 137.003587 47.178083 
L 137.217852 45.853604 
L 137.324985 45.905997 
L 137.432117 46.09133 
L 137.96778 48.030084 
L 138.074913 48.062535 
L 138.182045 47.899391 
L 138.610576 46.052221 
L 138.717708 45.509509 
L 138.931973 45.757598 
L 139.467636 47.373096 
L 139.574769 47.422283 
L 139.789034 47.059315 
L 140.217564 45.912817 
L 140.431829 45.897439 
L 140.967492 46.683137 
L 141.503155 47.826154 
L 141.931685 48.788264 
L 142.038818 48.790293 
L 142.145951 48.92617 
L 142.360216 49.87778 
L 142.788746 51.729416 
L 143.003011 52.068625 
L 143.645807 51.382877 
L 144.074337 51.447617 
L 144.395735 51.256896 
L 144.502867 51.030522 
L 144.717132 51.187272 
L 145.359928 52.421447 
L 145.574193 51.890572 
L 146.109856 49.73594 
L 146.431253 49.329929 
L 146.752651 49.686554 
L 147.074049 50.146086 
L 147.288314 50.153347 
L 147.502579 49.906393 
L 147.931109 49.138764 
L 148.145375 49.152205 
L 148.466772 49.475866 
L 149.002435 50.39654 
L 149.752363 52.127133 
L 150.180893 53.021488 
L 150.395159 53.140374 
L 150.609424 52.941765 
L 150.823689 52.587918 
L 151.252219 53.890324 
L 151.573617 54.768365 
L 151.787882 54.928989 
L 152.002147 54.425371 
L 152.216412 53.59235 
L 153.180605 56.215353 
L 153.394871 55.56885 
L 153.716268 53.975608 
L 154.573329 57.256877 
L 154.680461 57.120125 
L 154.894727 56.038884 
L 155.216124 54.506089 
L 155.751787 54.637803 
L 156.073185 54.490951 
L 156.501715 54.550625 
L 156.930245 56.423529 
L 157.358776 58.004681 
L 157.465908 57.864737 
L 157.787306 56.267725 
L 157.894439 55.702461 
L 158.215836 56.933037 
L 158.644367 59.057702 
L 158.858632 59.314081 
L 159.072897 58.415363 
L 159.394295 56.754675 
L 159.60856 56.697143 
L 159.929957 56.934385 
L 160.894151 56.967655 
L 161.322681 57.314602 
L 161.965476 58.332841 
L 162.286874 58.687745 
L 162.501139 58.716684 
L 162.822537 58.451691 
L 163.036802 58.142929 
L 163.143935 57.810079 
L 163.3582 57.936655 
L 163.679598 58.939905 
L 163.893863 59.316554 
L 164.000995 59.262625 
L 164.21526 58.672476 
L 164.750923 56.552334 
L 164.965188 56.854566 
L 165.500851 58.111942 
L 165.607984 58.137033 
L 165.822249 57.823644 
L 166.250779 56.698411 
L 166.572177 56.957323 
L 167.429238 57.655119 
L 167.750635 58.060071 
L 168.072033 59.31111 
L 168.607696 61.534716 
L 168.714828 61.537352 
L 168.929094 60.796719 
L 169.250491 59.355538 
L 169.571889 60.929899 
L 170.000419 63.279253 
L 170.107552 63.555529 
L 170.214684 63.41918 
L 170.643215 60.626885 
L 170.750347 61.012576 
L 171.607408 64.583866 
L 171.821673 63.757539 
L 172.143071 62.352208 
L 172.357336 62.854573 
L 172.785866 63.887124 
L 173.214396 64.195051 
L 173.428662 64.134149 
L 173.535794 63.8787 
L 173.857192 64.195158 
L 174.17859 65.640895 
L 174.499987 66.656087 
L 174.60712 66.455195 
L 174.821385 65.091294 
L 174.928518 64.050041 
L 175.249915 64.450146 
L 175.46418 65.277809 
L 175.892711 67.053662 
L 175.999843 66.724834 
L 176.214108 65.024788 
L 176.428374 62.710315 
L 176.749771 63.570147 
L 177.285434 65.944668 
L 177.392567 65.834294 
L 177.606832 64.440269 
L 177.92823 61.260662 
L 178.78529 64.44337 
L 178.892423 64.246499 
L 179.106688 62.819337 
L 179.428086 60.508625 
L 179.535218 60.486326 
L 180.178014 61.131534 
L 182.427798 61.993513 
L 182.53493 62.194444 
L 182.749195 63.397067 
L 183.177726 66.515918 
L 183.284858 66.406535 
L 183.499123 65.189601 
L 183.820521 62.597763 
L 184.034786 62.53894 
L 184.141919 62.901465 
L 184.677582 66.304781 
L 184.891847 65.779419 
L 185.42751 63.278453 
L 185.534642 63.469925 
L 185.748907 65.26112 
L 185.963172 67.157027 
L 186.070305 67.164656 
L 186.28457 66.59868 
L 187.034498 63.373412 
L 187.141631 63.722898 
L 187.677294 68.047471 
L 187.784426 67.891243 
L 187.998691 66.639874 
L 188.320089 64.117083 
L 188.427222 63.958054 
L 188.534354 64.120935 
L 188.748619 65.715869 
L 189.070017 67.933148 
L 189.17715 67.862232 
L 189.391415 66.824178 
L 189.712812 63.458068 
L 189.819945 63.470803 
L 189.927078 63.58295 
L 190.141343 64.689102 
L 190.46274 67.171138 
L 190.569873 67.417298 
L 190.677006 67.287017 
L 190.891271 65.948531 
L 191.212668 62.828869 
L 191.426934 63.461872 
L 192.069729 66.674252 
L 192.176862 66.527364 
L 192.391127 65.198801 
L 192.712524 62.794564 
L 193.033922 64.797908 
L 193.35532 66.235722 
L 193.569585 66.65149 
L 193.676718 66.553302 
L 193.890983 65.183707 
L 194.21238 63.325008 
L 194.748043 66.818223 
L 195.069441 67.639059 
L 195.176574 67.524605 
L 195.605104 64.716007 
L 195.712236 64.948038 
L 196.033634 67.263717 
L 196.355032 68.824353 
L 196.67643 69.839823 
L 196.783562 69.765156 
L 197.319225 67.4148 
L 198.176286 72.001835 
L 198.283418 71.872604 
L 198.711948 69.626454 
L 198.819081 69.910812 
L 199.033346 70.71904 
L 199.461876 73.416294 
L 199.676142 73.503695 
L 199.890407 72.665999 
L 200.211804 70.693512 
L 200.533202 72.017926 
L 200.8546 74.384892 
L 201.068865 74.473674 
L 201.175998 74.294706 
L 201.390263 72.838501 
L 201.71166 70.261509 
L 201.818793 69.744647 
L 202.354456 73.852607 
L 202.568721 73.884988 
L 202.675854 73.704758 
L 202.890119 72.326118 
L 203.318649 68.674179 
L 203.747179 68.991453 
L 204.17571 68.462308 
L 205.4613 68.542878 
L 206.104096 68.909305 
L 207.711084 70.175012 
L 207.818217 69.948529 
L 208.032482 70.760719 
L 208.35388 74.326459 
L 208.461012 74.110388 
L 208.675278 72.896402 
L 208.889543 72.258768 
L 209.210941 70.07802 
L 209.532338 71.97354 
L 209.746603 73.738048 
L 209.853736 73.600557 
L 210.068001 72.860085 
L 210.175134 72.769065 
L 210.282266 72.393395 
L 210.710797 69.091156 
L 211.246459 72.491826 
L 211.567857 71.920365 
L 211.67499 71.636329 
L 211.996387 69.123823 
L 212.210653 68.344703 
L 212.317785 68.214291 
L 212.746315 71.499279 
L 212.960581 71.51141 
L 213.067713 71.444934 
L 213.281978 70.624662 
L 213.710509 68.021444 
L 214.246171 71.841987 
L 214.460437 72.013543 
L 214.567569 71.935038 
L 214.781834 70.852744 
L 215.210365 68.166214 
L 215.85316 72.644726 
L 215.960293 72.779535 
L 216.067425 72.642454 
L 216.28169 71.399014 
L 216.603088 69.531625 
L 216.710221 69.690557 
L 217.031618 70.553686 
L 217.353016 71.264183 
L 217.888679 72.781955 
L 218.210077 73.241839 
L 218.638607 74.478735 
L 218.852872 75.848704 
L 219.17427 79.359814 
L 219.281402 79.402434 
L 219.495667 78.871469 
L 219.817065 75.722822 
L 220.03133 73.508766 
L 220.352728 75.50038 
L 220.674126 77.479217 
L 220.781258 77.602949 
L 220.888391 77.502129 
L 221.102656 76.157965 
L 221.531186 71.767435 
L 222.066849 75.817083 
L 222.388247 76.309943 
L 222.495379 75.816583 
L 222.92391 71.196293 
L 223.031042 71.246021 
L 223.566705 74.323262 
L 223.78097 75.397478 
L 224.209501 76.247599 
L 224.316633 75.88382 
L 224.852296 72.003174 
L 225.602224 76.918294 
L 225.709357 77.231014 
L 225.816489 76.944489 
L 226.352152 72.630961 
L 226.780682 74.264267 
L 227.209213 74.381214 
L 227.852008 75.387059 
L 228.280538 75.506606 
L 228.601936 75.375017 
L 229.030466 75.029329 
L 229.137599 74.709335 
L 229.351864 75.3194 
L 229.887527 78.53684 
L 229.994659 78.292448 
L 230.208925 76.816627 
L 230.530322 74.138677 
L 230.744587 75.290807 
L 231.065985 77.50215 
L 231.28025 77.955599 
L 231.387383 77.960649 
L 231.494515 77.609438 
L 232.030178 73.234963 
L 232.672974 77.435713 
L 232.887239 77.635104 
L 233.101504 76.304189 
L 233.422902 73.472184 
L 233.530034 73.552823 
L 233.851432 74.864146 
L 234.065697 74.997037 
L 234.279962 75.147702 
L 234.60136 75.89928 
L 235.244155 80.451637 
L 235.458421 80.767796 
L 235.672686 79.748613 
L 236.101216 76.988757 
L 236.422614 79.274667 
L 236.744011 82.433027 
L 236.851144 82.684002 
L 236.958277 82.5741 
L 237.172542 81.315917 
L 237.493939 78.929164 
L 237.708205 79.563361 
L 237.92247 81.597597 
L 238.243867 85.026277 
L 238.565265 83.304124 
L 238.993795 79.965062 
L 239.208061 80.437569 
L 239.422326 82.668601 
L 239.636591 85.998989 
L 239.743723 85.892919 
L 240.065121 83.497884 
L 240.493651 79.306506 
L 240.600784 78.779568 
L 240.922182 81.218104 
L 241.243579 84.146081 
L 241.350712 84.089252 
L 241.564977 82.822622 
L 242.10064 77.580309 
L 242.52917 78.055301 
L 242.957701 77.412778 
L 243.814761 77.525783 
L 244.350424 77.861037 
L 244.886087 78.403985 
L 245.85028 79.731259 
L 246.064545 82.141554 
L 246.385943 86.528539 
L 246.493075 86.59499 
L 246.600208 85.845101 
L 247.028738 80.831626 
L 247.243003 80.379651 
L 247.350136 80.974853 
L 247.778666 87.311924 
L 247.885799 87.173967 
L 247.992931 86.65947 
L 248.635727 80.504524 
L 248.742859 80.494362 
L 248.849992 80.733283 
L 249.064257 83.018916 
L 249.278522 85.785101 
L 249.385655 85.894115 
L 249.492787 85.659934 
L 249.707053 83.757547 
L 250.02845 80.156085 
L 250.135583 79.833697 
L 250.349848 80.01272 
L 250.564113 80.026291 
L 250.992643 79.548708 
L 251.956837 79.519802 
L 252.492499 79.932816 
L 253.028162 80.693671 
L 253.77809 82.257308 
L 254.849416 84.751598 
L 255.063681 87.377112 
L 255.277946 91.192787 
L 255.385079 90.943784 
L 255.813609 87.585407 
L 256.135007 84.55152 
L 256.349272 85.206 
L 256.563537 87.466098 
L 256.777802 89.907382 
L 256.884935 89.843927 
L 257.0992 88.720092 
L 257.741996 82.820325 
L 258.491924 87.621263 
L 258.599056 87.295334 
L 258.813321 85.186174 
L 259.134719 81.755537 
L 259.241852 81.672011 
L 259.563249 82.407503 
L 259.99178 85.811654 
L 260.313177 86.491297 
L 260.42031 86.40082 
L 260.634575 84.811684 
L 261.063105 81.489653 
L 261.705901 86.248645 
L 261.920166 86.563536 
L 262.134431 84.951905 
L 262.455829 81.7449 
L 262.670094 81.760374 
L 263.420022 87.57162 
L 263.527154 87.559386 
L 263.74142 85.668475 
L 264.062817 83.043325 
L 264.277082 84.044231 
L 264.59848 87.658298 
L 264.812745 89.268241 
L 264.919878 89.341358 
L 265.02701 89.066045 
L 265.348408 85.85215 
L 265.562673 84.431109 
L 265.669806 84.50242 
L 265.776938 84.770684 
L 265.991204 87.239897 
L 266.205469 91.115516 
L 266.312601 91.284792 
L 266.526866 90.461596 
L 267.062529 85.726365 
L 267.276794 85.587928 
L 267.598192 85.653799 
L 267.705325 85.366918 
L 267.91959 85.916053 
L 268.133855 88.118026 
L 268.34812 90.550085 
L 268.455253 90.657837 
L 268.562385 90.274709 
L 268.883783 86.708671 
L 269.098048 84.752453 
L 269.312313 85.864816 
L 269.740844 89.204771 
L 269.847976 89.415493 
L 269.955109 89.373757 
L 270.169374 87.896597 
L 270.597904 83.659968 
L 271.2407 88.288937 
L 271.454965 88.510371 
L 271.66923 86.866967 
L 271.990628 83.507043 
L 272.09776 83.555012 
L 272.419158 84.950812 
L 272.52629 85.044578 
L 272.954821 88.258438 
L 273.383351 89.132722 
L 273.597616 87.964885 
L 274.026146 85.187608 
L 274.776074 90.352826 
L 274.883207 90.50321 
L 274.99034 90.122203 
L 275.526002 86.296284 
L 275.633135 86.308964 
L 275.954533 88.896325 
L 276.27593 92.251396 
L 276.490196 92.658675 
L 276.597328 92.171097 
L 277.025858 88.517378 
L 277.240124 88.907916 
L 277.454389 91.065197 
L 277.668654 94.413091 
L 277.775786 94.750869 
L 277.990052 94.387192 
L 278.204317 92.425198 
L 278.525714 89.37173 
L 278.632847 88.770092 
L 278.847112 89.359274 
L 279.061377 91.959981 
L 279.275642 95.088027 
L 279.382775 94.935107 
L 279.59704 93.770913 
L 280.132703 88.213012 
L 280.239836 88.135253 
L 280.454101 88.253519 
L 280.668366 88.036385 
L 281.096896 87.471655 
L 282.168222 87.081258 
L 282.596752 87.213105 
L 283.132415 87.699819 
L 283.77521 88.582747 
L 285.275066 91.018074 
L 285.596464 91.194532 
L 285.917862 91.157407 
L 286.346392 90.844904 
L 287.09632 90.04363 
L 287.203453 89.517091 
L 287.846248 93.660458 
L 287.953381 93.786192 
L 288.060513 93.516419 
L 288.381911 90.346091 
L 288.596176 88.622531 
L 289.238972 93.045498 
L 289.453237 93.388076 
L 289.560369 92.973662 
L 290.096032 88.325266 
L 290.738828 93.269966 
L 290.953093 93.731491 
L 291.060225 93.316492 
L 291.488756 89.366209 
L 291.595888 89.52724 
L 292.024418 91.381715 
L 292.345816 91.62411 
L 293.202877 93.107102 
L 293.631407 93.493687 
L 293.952805 93.405397 
L 294.488468 92.923759 
L 295.452661 91.950348 
L 296.095456 91.672457 
L 296.523986 91.713588 
L 296.952517 91.972362 
L 297.48818 95.964993 
L 297.809577 96.69208 
L 298.023842 95.392152 
L 298.452373 92.267362 
L 298.77377 95.06333 
L 299.095168 97.637975 
L 299.309433 98.129913 
L 299.416566 97.720473 
L 299.952229 93.789511 
L 300.595024 95.566351 
L 301.23782 96.388969 
L 301.880615 96.224847 
L 302.309145 95.752215 
L 302.630543 95.370608 
L 302.737676 94.855131 
L 303.487604 99.174386 
L 303.594736 98.877582 
L 303.916134 95.668295 
L 304.130399 93.830332 
L 304.237532 93.736725 
L 304.558929 94.621668 
L 304.98746 97.897722 
L 305.41599 98.464511 
L 305.630255 97.048933 
L 306.058785 93.978305 
L 306.701581 98.691931 
L 306.915846 99.147457 
L 307.022979 98.709867 
L 307.451509 94.77527 
L 307.558641 94.846952 
L 307.987172 96.577613 
L 308.308569 96.816779 
L 308.629967 97.566882 
L 308.844232 98.335732 
L 309.058497 100.438378 
L 309.379895 103.970758 
L 309.487028 103.917465 
L 309.59416 103.663778 
L 309.915558 100.65555 
L 310.236956 98.708521 
L 310.344088 98.738931 
L 310.451221 98.962845 
L 310.665486 101.376363 
L 310.879751 105.276207 
L 310.986884 105.555016 
L 311.201149 104.753046 
L 311.736812 99.158168 
L 311.843944 99.169752 
L 311.951077 99.709637 
L 312.379607 104.611125 
L 312.593872 103.628559 
L 312.91527 100.09642 
L 313.129535 97.911802 
L 313.3438 98.750769 
L 313.879463 102.620546 
L 313.986596 102.407976 
L 314.200861 100.997575 
L 314.629391 96.61628 
L 314.950789 99.415557 
L 315.165054 100.998965 
L 315.379319 101.460405 
L 315.486452 101.410413 
L 315.700717 99.913424 
L 316.022115 96.357707 
L 316.129247 96.186556 
L 316.557777 97.447513 
L 316.986308 97.176163 
L 317.414838 97.854992 
L 318.057633 102.075545 
L 318.271899 102.556354 
L 318.379031 102.183543 
L 318.914694 98.136873 
L 319.236092 100.500756 
L 319.664622 103.905775 
L 319.771755 103.999962 
L 319.878887 103.615341 
L 320.41455 99.55035 
L 320.628815 100.120755 
L 320.950213 100.925184 
L 321.593008 101.601875 
L 321.914406 101.524707 
L 322.450069 101.289414 
L 323.414262 100.286726 
L 323.521395 99.778351 
L 324.16419 103.596105 
L 324.271323 103.712138 
L 324.378455 103.525939 
L 324.59272 101.863515 
L 324.914118 98.931421 
L 325.021251 98.8298 
L 325.556913 100.701655 
L 325.878311 102.946016 
L 326.306841 103.733895 
L 326.521107 102.535504 
L 326.949637 99.559753 
L 327.699565 104.655697 
L 327.806697 104.79054 
L 327.91383 104.434336 
L 328.449493 100.591178 
L 329.092288 103.277485 
L 329.306553 105.201206 
L 329.627951 108.184403 
L 329.735084 108.331215 
L 329.842216 108.147024 
L 330.485012 104.043908 
L 330.592144 103.94333 
L 330.806409 104.423733 
L 331.020675 106.807455 
L 331.342072 111.192196 
L 331.449205 111.004772 
L 331.556337 110.578513 
L 332.092 104.786352 
L 332.199133 104.672209 
L 332.306265 105.107537 
L 332.520531 108.188056 
L 332.734796 110.745771 
L 332.949061 109.868471 
L 333.163326 107.575388 
L 333.484724 103.71297 
L 333.698989 104.210396 
L 333.913254 106.067154 
L 334.127519 108.310248 
L 334.234652 108.47256 
L 334.448917 107.664006 
L 334.770315 104.206798 
L 334.98458 102.043687 
L 335.198845 103.412207 
L 335.627375 106.595527 
L 335.734508 106.7606 
L 335.84164 106.692998 
L 336.055905 105.28502 
L 336.484436 101.284806 
L 336.591568 101.170266 
L 337.127231 105.417742 
L 337.448629 105.770166 
L 337.662894 104.080907 
L 337.984292 100.980672 
L 338.73422 105.950333 
L 338.841352 106.170726 
L 338.948485 105.920034 
L 339.16275 104.203138 
L 339.484148 101.284216 
L 339.805545 104.33736 
L 340.126943 106.373788 
L 340.341208 106.947937 
L 340.448341 106.653567 
L 340.769739 103.561326 
L 340.876871 102.675501 
L 341.091136 103.916178 
L 341.626799 108.212141 
L 341.733932 108.453031 
L 341.841064 108.311776 
L 342.055329 106.935658 
L 342.376727 104.202996 
L 342.590992 105.01432 
L 342.805257 107.066247 
L 343.126655 110.317885 
L 343.233788 110.382354 
L 343.34092 110.188719 
L 343.555185 108.454888 
L 343.769451 106.288479 
L 343.983716 106.214121 
L 344.090848 106.692621 
L 344.305113 109.589157 
L 344.519379 112.324287 
L 344.626511 112.272927 
L 344.733644 111.983806 
L 344.947909 110.16726 
L 345.269307 107.127823 
L 345.483572 106.655976 
L 345.697837 107.112608 
L 345.912102 109.207224 
L 346.126367 112.411709 
L 346.2335 112.581062 
L 346.447765 111.627396 
L 346.983428 106.7376 
L 347.09056 106.873093 
L 347.304825 108.304046 
L 347.626223 110.954461 
L 347.733356 110.852705 
L 347.947621 109.821967 
L 348.376151 105.292127 
L 348.483284 105.671016 
L 348.804682 107.889177 
L 349.018947 109.15889 
L 349.233212 109.345928 
L 349.340344 109.021018 
L 349.55461 107.365332 
L 349.876007 104.060569 
L 350.197405 106.593819 
L 350.41167 107.947924 
L 350.733068 108.428937 
L 350.8402 108.101165 
L 351.054466 106.371546 
L 351.375863 103.70507 
L 351.482996 103.594407 
L 352.018659 107.66569 
L 352.340056 108.143746 
L 352.447189 107.735152 
L 352.875719 103.931593 
L 353.197117 106.614732 
L 353.411382 107.969729 
L 353.73278 108.870062 
L 353.839912 108.751896 
L 354.054178 107.447097 
L 354.375575 104.667823 
L 354.696973 107.204907 
L 355.018371 109.418142 
L 355.232636 109.980794 
L 355.339768 109.779319 
L 355.554034 108.275637 
L 355.768299 106.360832 
L 355.982564 107.231191 
L 356.303962 109.992254 
L 356.518227 111.496036 
L 356.625359 111.739236 
L 356.732492 111.649667 
L 356.946757 110.422419 
L 357.268155 108.234506 
L 357.375287 107.969758 
L 357.589552 108.621552 
L 357.803818 110.583842 
L 358.125215 114.061292 
L 358.232348 114.023593 
L 358.33948 113.792314 
L 358.553746 112.025157 
L 358.875143 109.680194 
L 358.982276 109.590186 
L 359.089408 109.95049 
L 359.303674 112.641268 
L 359.517939 115.497343 
L 359.625071 115.475747 
L 359.732204 115.125381 
L 359.732204 115.125381 
" clip-path="url(#p2177663fa9)" style="fill: none; stroke: #2ca02c; stroke-width: 1.5; stroke-linecap: square"/>
   </g>
   <g id="patch_3">
    <path d="M 40.150386 228.96 
L 40.150386 7.2 
" style="fill: none; stroke: #000000; stroke-width: 0.8; stroke-linejoin: miter; stroke-linecap: square"/>
   </g>
   <g id="patch_4">
    <path d="M 374.950386 228.96 
L 374.950386 7.2 
" style="fill: none; stroke: #000000; stroke-width: 0.8; stroke-linejoin: miter; stroke-linecap: square"/>
   </g>
   <g id="patch_5">
    <path d="M 40.150386 228.96 
L 374.950386 228.96 
" style="fill: none; stroke: #000000; stroke-width: 0.8; stroke-linejoin: miter; stroke-linecap: square"/>
   </g>
   <g id="patch_6">
    <path d="M 40.150386 7.2 
L 374.950386 7.2 
" style="fill: none; stroke: #000000; stroke-width: 0.8; stroke-linejoin: miter; stroke-linecap: square"/>
   </g>
   <g id="legend_1">
    <g id="patch_7">
     <path d="M 323.445187 57.86092 
L 367.950386 57.86092 
Q 369.950386 57.86092 369.950386 55.86092 
L 369.950386 14.2 
Q 369.950386 12.2 367.950386 12.2 
L 323.445187 12.2 
Q 321.445187 12.2 321.445187 14.2 
L 321.445187 55.86092 
Q 321.445187 57.86092 323.445187 57.86092 
z
" style="fill: #ffffff; opacity: 0.8; stroke: #cccccc; stroke-linejoin: miter"/>
    </g>
    <g id="line2d_15">
     <path d="M 325.445187 19.79832 
L 335.445187 19.79832 
L 345.445187 19.79832 
" style="fill: none; stroke: #1f77b4; stroke-width: 1.5; stroke-linecap: square"/>
    </g>
    <g id="text_14">
     <!-- $\rho$ -->
     <g transform="translate(353.445187 23.29832) scale(0.1 -0.1)">
      <defs>
       <path id="CMMI12-1a" d="M 198 -1085 
C 192 -1116 179 -1154 179 -1191 
C 179 -1287 256 -1351 352 -1351 
C 448 -1351 538 -1287 576 -1198 
C 602 -1141 781 -390 986 389 
C 1114 70 1350 -64 1600 -64 
C 2323 -64 3142 830 3142 1794 
C 3142 2477 2726 2816 2285 2816 
C 1722 2816 1037 2234 826 1385 
L 198 -1085 
z
M 1594 64 
C 1158 64 1050 568 1050 645 
C 1050 683 1210 1289 1229 1385 
C 1555 2656 2182 2687 2278 2687 
C 2566 2687 2726 2426 2726 2049 
C 2726 1724 2554 1091 2445 823 
C 2253 383 1920 64 1594 64 
z
" transform="scale(0.015625)"/>
      </defs>
      <use xlink:href="#CMMI12-1a" transform="scale(0.996264)"/>
     </g>
    </g>
    <g id="line2d_16">
     <path d="M 325.445187 34.018627 
L 335.445187 34.018627 
L 345.445187 34.018627 
" style="fill: none; stroke: #ff7f0e; stroke-width: 1.5; stroke-linecap: square"/>
    </g>
    <g id="text_15">
     <!-- $\rho u$ -->
     <g transform="translate(353.445187 37.518627) scale(0.1 -0.1)">
      <defs>
       <path id="CMMI12-75" d="M 2182 370 
C 2266 12 2573 -64 2726 -64 
C 2931 -64 3085 70 3187 287 
C 3296 517 3379 893 3379 913 
C 3379 944 3354 970 3315 970 
C 3258 970 3251 938 3226 842 
C 3110 402 2995 64 2739 64 
C 2547 64 2547 274 2547 357 
C 2547 504 2566 568 2630 836 
C 2675 1008 2720 1181 2758 1359 
L 3021 2400 
C 3066 2560 3066 2572 3066 2591 
C 3066 2687 2989 2752 2893 2752 
C 2707 2752 2662 2591 2624 2432 
C 2560 2183 2214 810 2170 587 
C 2163 587 1914 64 1446 64 
C 1114 64 1050 351 1050 587 
C 1050 951 1229 1462 1395 1890 
C 1472 2094 1504 2177 1504 2305 
C 1504 2579 1306 2816 998 2816 
C 410 2816 173 1890 173 1838 
C 173 1813 198 1781 243 1781 
C 301 1781 307 1807 333 1896 
C 486 2445 736 2687 979 2687 
C 1043 2687 1146 2681 1146 2477 
C 1146 2311 1075 2126 979 1883 
C 698 1123 666 881 666 689 
C 666 38 1158 -64 1421 -64 
C 1830 -64 2054 217 2182 370 
z
" transform="scale(0.015625)"/>
      </defs>
      <use xlink:href="#CMMI12-1a" transform="scale(0.996264)"/>
      <use xlink:href="#CMMI12-75" transform="translate(50.314373 0) scale(0.996264)"/>
     </g>
    </g>
    <g id="line2d_17">
     <path d="M 325.445187 48.238934 
L 335.445187 48.238934 
L 345.445187 48.238934 
" style="fill: none; stroke: #2ca02c; stroke-width: 1.5; stroke-linecap: square"/>
    </g>
    <g id="text_16">
     <!-- $\rho E$ -->
     <g transform="translate(353.445187 51.738934) scale(0.1 -0.1)">
      <defs>
       <path id="CMMI12-45" d="M 4448 1489 
C 4454 1508 4474 1553 4474 1578 
C 4474 1611 4448 1643 4410 1643 
C 4384 1643 4371 1636 4352 1617 
C 4339 1611 4339 1598 4282 1469 
C 3904 570 3629 185 2605 185 
L 1670 185 
C 1581 185 1568 185 1530 192 
C 1459 198 1453 211 1453 262 
C 1453 307 1466 346 1478 403 
L 1920 2176 
L 2554 2176 
C 3053 2176 3091 2066 3091 1874 
C 3091 1810 3091 1752 3046 1559 
C 3034 1534 3027 1508 3027 1489 
C 3027 1444 3059 1424 3098 1424 
C 3155 1424 3162 1469 3187 1559 
L 3552 3036 
C 3552 3068 3526 3099 3488 3099 
C 3430 3099 3424 3074 3398 2986 
C 3270 2500 3142 2361 2573 2361 
L 1965 2361 
L 2362 3913 
C 2419 4134 2432 4153 2694 4153 
L 3610 4153 
C 4397 4153 4557 3945 4557 3465 
C 4557 3459 4557 3282 4531 3074 
C 4525 3049 4518 3011 4518 2998 
C 4518 2948 4550 2929 4589 2929 
C 4634 2929 4659 2954 4672 3068 
L 4806 4172 
C 4806 4191 4819 4255 4819 4268 
C 4819 4339 4762 4339 4646 4339 
L 1523 4339 
C 1402 4339 1338 4339 1338 4223 
C 1338 4153 1382 4153 1491 4153 
C 1888 4153 1888 4109 1888 4039 
C 1888 4008 1882 3983 1862 3913 
L 998 474 
C 941 249 928 185 480 185 
C 358 185 294 185 294 70 
C 294 0 333 0 461 0 
L 3674 0 
C 3814 0 3821 6 3866 108 
L 4448 1489 
z
" transform="scale(0.015625)"/>
      </defs>
      <use xlink:href="#CMMI12-1a" transform="scale(0.996264)"/>
      <use xlink:href="#CMMI12-45" transform="translate(50.314373 0) scale(0.996264)"/>
     </g>
    </g>
   </g>
  </g>
 </g>
 <defs>
  <clipPath id="p2177663fa9">
   <rect x="40.150386" y="7.2" width="334.8" height="221.76"/>
  </clipPath>
 </defs>
</svg>
