<?xml version="1.0" encoding="utf-8" standalone="no"?>
<!DOCTYPE svg PUBLIC "-//W3C//DTD SVG 1.1//EN"
  "http://www.w3.org/Graphics/SVG/1.1/DTD/svg11.dtd">
<svg xmlns:xlink="http://www.w3.org/1999/xlink" width="382.477957pt" height="265.600613pt" viewBox="0 0 382.477957 265.600613" xmlns="http://www.w3.org/2000/svg" version="1.1">
 <metadata>
  <rdf:RDF xmlns:dc="http://purl.org/dc/elements/1.1/" xmlns:cc="http://creativecommons.org/ns#" xmlns:rdf="http://www.w3.org/1999/02/22-rdf-syntax-ns#">
   <cc:Work>
    <dc:type rdf:resource="http://purl.org/dc/dcmitype/StillImage"/>
    <dc:date>2025-07-17T19:24:02.548571</dc:date>
    <dc:format>image/svg+xml</dc:format>
    <dc:creator>
     <cc:Agent>
      <dc:title>Matplotlib v3.10.3, https://matplotlib.org/</dc:title>
     </cc:Agent>
    </dc:creator>
   </cc:Work>
  </rdf:RDF>
 </metadata>
 <defs>
  <style type="text/css">*{stroke-linejoin: round; stroke-linecap: butt}</style>
 </defs>
 <g id="figure_1">
  <g id="patch_1">
   <path d="M 0 265.600613 
L 382.477957 265.600613 
L 382.477957 0 
L 0 0 
z
" style="fill: #ffffff"/>
  </g>
  <g id="axes_1">
   <g id="patch_2">
    <path d="M 40.334753 228.96 
L 375.134753 228.96 
L 375.134753 7.2 
L 40.334753 7.2 
z
" style="fill: #ffffff"/>
   </g>
   <g id="matplotlib.axis_1">
    <g id="xtick_1">
     <g id="line2d_1">
      <defs>
       <path id="m56216e5860" d="M 0 0 
L 0 3.5 
" style="stroke: #000000; stroke-width: 0.8"/>
      </defs>
      <g>
       <use xlink:href="#m56216e5860" x="55.552935" y="228.96" style="stroke: #000000; stroke-width: 0.8"/>
      </g>
     </g>
     <g id="text_1">
      <!-- $\mathdefault{0}$ -->
      <g transform="translate(53.062267 243.05832) scale(0.1 -0.1)">
       <defs>
        <path id="CMR17-30" d="M 2688 2038 
C 2688 2430 2682 3099 2413 3613 
C 2176 4063 1798 4224 1466 4224 
C 1158 4224 768 4082 525 3620 
C 269 3137 243 2539 243 2038 
C 243 1671 250 1112 448 623 
C 723 -39 1216 -128 1466 -128 
C 1760 -128 2208 -7 2470 604 
C 2662 1048 2688 1568 2688 2038 
z
M 1466 -26 
C 1056 -26 813 328 723 816 
C 653 1196 653 1749 653 2109 
C 653 2604 653 3015 736 3407 
C 858 3954 1216 4121 1466 4121 
C 1728 4121 2067 3947 2189 3420 
C 2272 3054 2278 2623 2278 2109 
C 2278 1691 2278 1176 2202 797 
C 2067 96 1690 -26 1466 -26 
z
" transform="scale(0.015625)"/>
       </defs>
       <use xlink:href="#CMR17-30" transform="scale(0.996264)"/>
      </g>
     </g>
    </g>
    <g id="xtick_2">
     <g id="line2d_2">
      <g>
       <use xlink:href="#m56216e5860" x="99.804699" y="228.96" style="stroke: #000000; stroke-width: 0.8"/>
      </g>
     </g>
     <g id="text_2">
      <!-- $\mathdefault{500}$ -->
      <g transform="translate(92.332696 243.05832) scale(0.1 -0.1)">
       <defs>
        <path id="CMR17-35" d="M 730 3750 
C 794 3724 1056 3641 1325 3641 
C 1920 3641 2246 3961 2432 4140 
C 2432 4191 2432 4224 2394 4224 
C 2387 4224 2374 4224 2323 4198 
C 2099 4102 1837 4032 1517 4032 
C 1325 4032 1037 4055 723 4191 
C 653 4224 640 4224 634 4224 
C 602 4224 595 4217 595 4090 
L 595 2231 
C 595 2113 595 2080 659 2080 
C 691 2080 704 2093 736 2139 
C 941 2435 1222 2560 1542 2560 
C 1766 2560 2246 2415 2246 1293 
C 2246 1087 2246 716 2054 422 
C 1894 159 1645 25 1370 25 
C 947 25 518 319 403 812 
C 429 806 480 793 506 793 
C 589 793 749 838 749 1036 
C 749 1209 627 1280 506 1280 
C 358 1280 262 1190 262 1011 
C 262 454 704 -128 1382 -128 
C 2042 -128 2669 441 2669 1267 
C 2669 2054 2170 2662 1549 2662 
C 1222 2662 947 2540 730 2304 
L 730 3750 
z
" transform="scale(0.015625)"/>
       </defs>
       <use xlink:href="#CMR17-35" transform="scale(0.996264)"/>
       <use xlink:href="#CMR17-30" transform="translate(45.690477 0) scale(0.996264)"/>
       <use xlink:href="#CMR17-30" transform="translate(91.380954 0) scale(0.996264)"/>
      </g>
     </g>
    </g>
    <g id="xtick_3">
     <g id="line2d_3">
      <g>
       <use xlink:href="#m56216e5860" x="144.056464" y="228.96" style="stroke: #000000; stroke-width: 0.8"/>
      </g>
     </g>
     <g id="text_3">
      <!-- $\mathdefault{1000}$ -->
      <g transform="translate(134.093793 243.05832) scale(0.1 -0.1)">
       <defs>
        <path id="CMR17-31" d="M 1702 4083 
C 1702 4217 1696 4224 1606 4224 
C 1357 3927 979 3833 621 3820 
C 602 3820 570 3820 563 3808 
C 557 3795 557 3782 557 3648 
C 755 3648 1088 3686 1344 3839 
L 1344 467 
C 1344 243 1331 166 781 166 
L 589 166 
L 589 0 
C 896 6 1216 12 1523 12 
C 1830 12 2150 6 2458 0 
L 2458 166 
L 2266 166 
C 1715 166 1702 236 1702 467 
L 1702 4083 
z
" transform="scale(0.015625)"/>
       </defs>
       <use xlink:href="#CMR17-31" transform="scale(0.996264)"/>
       <use xlink:href="#CMR17-30" transform="translate(45.690477 0) scale(0.996264)"/>
       <use xlink:href="#CMR17-30" transform="translate(91.380954 0) scale(0.996264)"/>
       <use xlink:href="#CMR17-30" transform="translate(137.071431 0) scale(0.996264)"/>
      </g>
     </g>
    </g>
    <g id="xtick_4">
     <g id="line2d_4">
      <g>
       <use xlink:href="#m56216e5860" x="188.308228" y="228.96" style="stroke: #000000; stroke-width: 0.8"/>
      </g>
     </g>
     <g id="text_4">
      <!-- $\mathdefault{1500}$ -->
      <g transform="translate(178.345558 243.05832) scale(0.1 -0.1)">
       <use xlink:href="#CMR17-31" transform="scale(0.996264)"/>
       <use xlink:href="#CMR17-35" transform="translate(45.690477 0) scale(0.996264)"/>
       <use xlink:href="#CMR17-30" transform="translate(91.380954 0) scale(0.996264)"/>
       <use xlink:href="#CMR17-30" transform="translate(137.071431 0) scale(0.996264)"/>
      </g>
     </g>
    </g>
    <g id="xtick_5">
     <g id="line2d_5">
      <g>
       <use xlink:href="#m56216e5860" x="232.559993" y="228.96" style="stroke: #000000; stroke-width: 0.8"/>
      </g>
     </g>
     <g id="text_5">
      <!-- $\mathdefault{2000}$ -->
      <g transform="translate(222.597322 243.05832) scale(0.1 -0.1)">
       <defs>
        <path id="CMR17-32" d="M 2669 990 
L 2554 990 
C 2490 537 2438 460 2413 422 
C 2381 371 1920 371 1830 371 
L 602 371 
C 832 620 1280 1073 1824 1596 
C 2214 1966 2669 2400 2669 3033 
C 2669 3788 2067 4224 1395 4224 
C 691 4224 262 3603 262 3027 
C 262 2777 448 2745 525 2745 
C 589 2745 781 2783 781 3007 
C 781 3206 614 3264 525 3264 
C 486 3264 448 3257 422 3244 
C 544 3788 915 4057 1306 4057 
C 1862 4057 2227 3616 2227 3033 
C 2227 2477 1901 1998 1536 1583 
L 262 147 
L 262 0 
L 2515 0 
L 2669 990 
z
" transform="scale(0.015625)"/>
       </defs>
       <use xlink:href="#CMR17-32" transform="scale(0.996264)"/>
       <use xlink:href="#CMR17-30" transform="translate(45.690477 0) scale(0.996264)"/>
       <use xlink:href="#CMR17-30" transform="translate(91.380954 0) scale(0.996264)"/>
       <use xlink:href="#CMR17-30" transform="translate(137.071431 0) scale(0.996264)"/>
      </g>
     </g>
    </g>
    <g id="xtick_6">
     <g id="line2d_6">
      <g>
       <use xlink:href="#m56216e5860" x="276.811757" y="228.96" style="stroke: #000000; stroke-width: 0.8"/>
      </g>
     </g>
     <g id="text_6">
      <!-- $\mathdefault{2500}$ -->
      <g transform="translate(266.849087 243.05832) scale(0.1 -0.1)">
       <use xlink:href="#CMR17-32" transform="scale(0.996264)"/>
       <use xlink:href="#CMR17-35" transform="translate(45.690477 0) scale(0.996264)"/>
       <use xlink:href="#CMR17-30" transform="translate(91.380954 0) scale(0.996264)"/>
       <use xlink:href="#CMR17-30" transform="translate(137.071431 0) scale(0.996264)"/>
      </g>
     </g>
    </g>
    <g id="xtick_7">
     <g id="line2d_7">
      <g>
       <use xlink:href="#m56216e5860" x="321.063522" y="228.96" style="stroke: #000000; stroke-width: 0.8"/>
      </g>
     </g>
     <g id="text_7">
      <!-- $\mathdefault{3000}$ -->
      <g transform="translate(311.100851 243.05832) scale(0.1 -0.1)">
       <defs>
        <path id="CMR17-33" d="M 1414 2176 
C 1984 2176 2234 1673 2234 1094 
C 2234 322 1824 25 1453 25 
C 1114 25 563 193 390 691 
C 422 678 454 678 486 678 
C 640 678 755 780 755 947 
C 755 1132 614 1216 486 1216 
C 378 1216 211 1164 211 927 
C 211 335 787 -128 1466 -128 
C 2176 -128 2720 432 2720 1087 
C 2720 1718 2208 2176 1600 2246 
C 2086 2347 2554 2776 2554 3353 
C 2554 3856 2048 4224 1472 4224 
C 890 4224 378 3862 378 3347 
C 378 3123 544 3084 627 3084 
C 762 3084 877 3167 877 3334 
C 877 3500 762 3584 627 3584 
C 602 3584 570 3584 544 3571 
C 730 3999 1235 4076 1459 4076 
C 1683 4076 2106 3966 2106 3347 
C 2106 3167 2080 2851 1862 2574 
C 1670 2329 1453 2316 1242 2297 
C 1210 2297 1062 2284 1037 2284 
C 992 2278 966 2272 966 2227 
C 966 2182 973 2176 1101 2176 
L 1414 2176 
z
" transform="scale(0.015625)"/>
       </defs>
       <use xlink:href="#CMR17-33" transform="scale(0.996264)"/>
       <use xlink:href="#CMR17-30" transform="translate(45.690477 0) scale(0.996264)"/>
       <use xlink:href="#CMR17-30" transform="translate(91.380954 0) scale(0.996264)"/>
       <use xlink:href="#CMR17-30" transform="translate(137.071431 0) scale(0.996264)"/>
      </g>
     </g>
    </g>
    <g id="xtick_8">
     <g id="line2d_8">
      <g>
       <use xlink:href="#m56216e5860" x="365.315286" y="228.96" style="stroke: #000000; stroke-width: 0.8"/>
      </g>
     </g>
     <g id="text_8">
      <!-- $\mathdefault{3500}$ -->
      <g transform="translate(355.352616 243.05832) scale(0.1 -0.1)">
       <use xlink:href="#CMR17-33" transform="scale(0.996264)"/>
       <use xlink:href="#CMR17-35" transform="translate(45.690477 0) scale(0.996264)"/>
       <use xlink:href="#CMR17-30" transform="translate(91.380954 0) scale(0.996264)"/>
       <use xlink:href="#CMR17-30" transform="translate(137.071431 0) scale(0.996264)"/>
      </g>
     </g>
    </g>
    <g id="text_9">
     <!-- Iteration -->
     <g transform="translate(189.787377 256.278627) scale(0.1 -0.1)">
      <defs>
       <path id="NimbusSanL-Regu-49" d="M 1242 4672 
L 640 4672 
L 640 0 
L 1242 0 
L 1242 4672 
z
" transform="scale(0.015625)"/>
       <path id="NimbusSanL-Regu-74" d="M 1626 3328 
L 1075 3328 
L 1075 4249 
L 544 4249 
L 544 3328 
L 90 3328 
L 90 2892 
L 544 2892 
L 544 402 
C 544 64 774 -128 1190 -128 
C 1318 -128 1446 -116 1626 -84 
L 1626 364 
C 1555 345 1472 339 1370 339 
C 1139 339 1075 402 1075 634 
L 1075 2892 
L 1626 2892 
L 1626 3328 
z
" transform="scale(0.015625)"/>
       <path id="NimbusSanL-Regu-65" d="M 3283 1484 
C 3283 1998 3245 2311 3149 2565 
C 2931 3123 2419 3456 1792 3456 
C 858 3456 256 2734 256 1619 
C 256 545 838 -128 1779 -128 
C 2547 -128 3078 307 3213 1018 
L 2675 1018 
C 2528 588 2227 364 1798 364 
C 1459 364 1171 514 992 787 
C 864 974 819 1161 813 1484 
L 3283 1484 
z
M 826 1920 
C 870 2552 1248 2963 1786 2963 
C 2310 2963 2714 2519 2714 1959 
C 2714 1946 2714 1933 2707 1920 
L 826 1920 
z
" transform="scale(0.015625)"/>
       <path id="NimbusSanL-Regu-72" d="M 442 3328 
L 442 0 
L 979 0 
L 979 1727 
C 979 2203 1101 2514 1357 2698 
C 1523 2819 1683 2857 2054 2863 
L 2054 3404 
C 1965 3449 1920 3456 1850 3456 
C 1504 3456 1242 3251 934 2750 
L 934 3328 
L 442 3328 
z
" transform="scale(0.015625)"/>
       <path id="NimbusSanL-Regu-61" d="M 3424 332 
C 3366 320 3341 320 3309 320 
C 3123 320 3021 415 3021 581 
L 3021 2542 
C 3021 3135 2586 3456 1760 3456 
C 1274 3456 870 3315 646 3065 
C 493 2893 429 2702 416 2370 
L 954 2370 
C 998 2778 1242 2963 1741 2963 
C 2221 2963 2490 2784 2490 2466 
L 2490 2326 
C 2490 2103 2355 2007 1933 1956 
C 1178 1861 1062 1835 858 1753 
C 467 1593 269 1294 269 861 
C 269 256 691 -128 1370 -128 
C 1792 -128 2131 19 2509 364 
C 2547 25 2714 -128 3059 -128 
C 3168 -128 3251 -116 3424 -71 
L 3424 332 
z
M 2490 1071 
C 2490 893 2438 785 2278 638 
C 2061 441 1798 339 1485 339 
C 1069 339 826 536 826 874 
C 826 1224 1062 1402 1632 1485 
C 2195 1562 2310 1587 2490 1670 
L 2490 1071 
z
" transform="scale(0.015625)"/>
       <path id="NimbusSanL-Regu-69" d="M 960 3358 
L 429 3358 
L 429 0 
L 960 0 
L 960 3358 
z
M 960 4672 
L 422 4672 
L 422 3999 
L 960 3999 
L 960 4672 
z
" transform="scale(0.015625)"/>
       <path id="NimbusSanL-Regu-6f" d="M 1741 3456 
C 800 3456 230 2784 230 1663 
C 230 543 794 -128 1747 -128 
C 2688 -128 3264 543 3264 1638 
C 3264 2791 2707 3456 1741 3456 
z
M 1747 2963 
C 2349 2963 2707 2472 2707 1644 
C 2707 861 2336 364 1747 364 
C 1152 364 787 855 787 1663 
C 787 2466 1152 2963 1747 2963 
z
" transform="scale(0.015625)"/>
       <path id="NimbusSanL-Regu-6e" d="M 448 3328 
L 448 0 
L 986 0 
L 986 1835 
C 986 2539 1344 2988 1894 2988 
C 2317 2988 2586 2732 2586 2328 
L 2586 0 
L 3117 0 
L 3117 2539 
C 3117 3097 2701 3456 2054 3456 
C 1555 3456 1235 3263 941 2796 
L 941 3328 
L 448 3328 
z
" transform="scale(0.015625)"/>
      </defs>
      <use xlink:href="#NimbusSanL-Regu-49" transform="scale(0.996264)"/>
      <use xlink:href="#NimbusSanL-Regu-74" transform="translate(27.69517 0) scale(0.996264)"/>
      <use xlink:href="#NimbusSanL-Regu-65" transform="translate(55.390339 0) scale(0.996264)"/>
      <use xlink:href="#NimbusSanL-Regu-72" transform="translate(110.782016 0) scale(0.996264)"/>
      <use xlink:href="#NimbusSanL-Regu-61" transform="translate(142.961149 0) scale(0.996264)"/>
      <use xlink:href="#NimbusSanL-Regu-74" transform="translate(198.352826 0) scale(0.996264)"/>
      <use xlink:href="#NimbusSanL-Regu-69" transform="translate(226.047996 0) scale(0.996264)"/>
      <use xlink:href="#NimbusSanL-Regu-6f" transform="translate(248.16478 0) scale(0.996264)"/>
      <use xlink:href="#NimbusSanL-Regu-6e" transform="translate(303.556457 0) scale(0.996264)"/>
     </g>
    </g>
   </g>
   <g id="matplotlib.axis_2">
    <g id="ytick_1">
     <g id="line2d_9">
      <defs>
       <path id="m31bbeb4116" d="M 0 0 
L -3.5 0 
" style="stroke: #000000; stroke-width: 0.8"/>
      </defs>
      <g>
       <use xlink:href="#m31bbeb4116" x="40.334753" y="220.689785" style="stroke: #000000; stroke-width: 0.8"/>
      </g>
     </g>
     <g id="text_10">
      <!-- $\mathdefault{−2}$ -->
      <g transform="translate(20.604674 224.238945) scale(0.1 -0.1)">
       <defs>
        <path id="CMSY10-0" d="M 4218 1472 
C 4326 1472 4442 1472 4442 1600 
C 4442 1728 4326 1728 4218 1728 
L 755 1728 
C 646 1728 531 1728 531 1600 
C 531 1472 646 1472 755 1472 
L 4218 1472 
z
" transform="scale(0.015625)"/>
       </defs>
       <use xlink:href="#CMSY10-0" transform="scale(0.996264)"/>
       <use xlink:href="#CMR17-32" transform="translate(77.487468 0) scale(0.996264)"/>
      </g>
     </g>
    </g>
    <g id="ytick_2">
     <g id="line2d_10">
      <g>
       <use xlink:href="#m31bbeb4116" x="40.334753" y="184.599235" style="stroke: #000000; stroke-width: 0.8"/>
      </g>
     </g>
     <g id="text_11">
      <!-- $\mathdefault{0}$ -->
      <g transform="translate(28.353418 188.148395) scale(0.1 -0.1)">
       <use xlink:href="#CMR17-30" transform="scale(0.996264)"/>
      </g>
     </g>
    </g>
    <g id="ytick_3">
     <g id="line2d_11">
      <g>
       <use xlink:href="#m31bbeb4116" x="40.334753" y="148.508685" style="stroke: #000000; stroke-width: 0.8"/>
      </g>
     </g>
     <g id="text_12">
      <!-- $\mathdefault{2}$ -->
      <g transform="translate(28.353418 152.057845) scale(0.1 -0.1)">
       <use xlink:href="#CMR17-32" transform="scale(0.996264)"/>
      </g>
     </g>
    </g>
    <g id="ytick_4">
     <g id="line2d_12">
      <g>
       <use xlink:href="#m31bbeb4116" x="40.334753" y="112.418135" style="stroke: #000000; stroke-width: 0.8"/>
      </g>
     </g>
     <g id="text_13">
      <!-- $\mathdefault{4}$ -->
      <g transform="translate(28.353418 115.967295) scale(0.1 -0.1)">
       <defs>
        <path id="CMR17-34" d="M 2150 4147 
C 2150 4281 2144 4288 2029 4288 
L 128 1254 
L 128 1088 
L 1779 1088 
L 1779 460 
C 1779 230 1766 166 1318 166 
L 1197 166 
L 1197 0 
C 1402 12 1747 12 1965 12 
C 2182 12 2528 12 2733 0 
L 2733 166 
L 2611 166 
C 2163 166 2150 230 2150 460 
L 2150 1088 
L 2803 1088 
L 2803 1254 
L 2150 1254 
L 2150 4147 
z
M 1798 3723 
L 1798 1254 
L 256 1254 
L 1798 3723 
z
" transform="scale(0.015625)"/>
       </defs>
       <use xlink:href="#CMR17-34" transform="scale(0.996264)"/>
      </g>
     </g>
    </g>
    <g id="ytick_5">
     <g id="line2d_13">
      <g>
       <use xlink:href="#m31bbeb4116" x="40.334753" y="76.327585" style="stroke: #000000; stroke-width: 0.8"/>
      </g>
     </g>
     <g id="text_14">
      <!-- $\mathdefault{6}$ -->
      <g transform="translate(28.353418 79.876746) scale(0.1 -0.1)">
       <defs>
        <path id="CMR17-36" d="M 678 2198 
C 678 3712 1395 4076 1811 4076 
C 1946 4076 2272 4049 2400 3782 
C 2298 3782 2106 3782 2106 3558 
C 2106 3385 2246 3328 2336 3328 
C 2394 3328 2566 3353 2566 3571 
C 2566 3987 2246 4224 1805 4224 
C 1043 4224 243 3411 243 2011 
C 243 257 966 -128 1478 -128 
C 2099 -128 2688 431 2688 1295 
C 2688 2101 2170 2688 1517 2688 
C 1126 2688 838 2430 678 1979 
L 678 2198 
z
M 1478 25 
C 691 25 691 1212 691 1450 
C 691 1914 909 2585 1504 2585 
C 1613 2585 1926 2585 2138 2140 
C 2253 1889 2253 1624 2253 1302 
C 2253 954 2253 696 2118 438 
C 1978 173 1773 25 1478 25 
z
" transform="scale(0.015625)"/>
       </defs>
       <use xlink:href="#CMR17-36" transform="scale(0.996264)"/>
      </g>
     </g>
    </g>
    <g id="ytick_6">
     <g id="line2d_14">
      <g>
       <use xlink:href="#m31bbeb4116" x="40.334753" y="40.237036" style="stroke: #000000; stroke-width: 0.8"/>
      </g>
     </g>
     <g id="text_15">
      <!-- $\mathdefault{8}$ -->
      <g transform="translate(28.353418 43.786196) scale(0.1 -0.1)">
       <defs>
        <path id="CMR17-38" d="M 1741 2289 
C 2144 2494 2554 2803 2554 3298 
C 2554 3884 1990 4224 1472 4224 
C 890 4224 378 3800 378 3215 
C 378 3054 416 2777 666 2533 
C 730 2469 998 2276 1171 2154 
C 883 2006 211 1652 211 945 
C 211 282 838 -128 1459 -128 
C 2144 -128 2720 366 2720 1022 
C 2720 1607 2330 1877 2074 2051 
L 1741 2289 
z
M 902 2855 
C 851 2887 595 3086 595 3388 
C 595 3781 998 4076 1459 4076 
C 1965 4076 2336 3716 2336 3298 
C 2336 2700 1670 2359 1638 2359 
C 1632 2359 1626 2359 1574 2398 
L 902 2855 
z
M 2080 1536 
C 2176 1466 2483 1253 2483 861 
C 2483 385 2010 25 1472 25 
C 890 25 448 443 448 951 
C 448 1459 838 1884 1280 2083 
L 2080 1536 
z
" transform="scale(0.015625)"/>
       </defs>
       <use xlink:href="#CMR17-38" transform="scale(0.996264)"/>
      </g>
     </g>
    </g>
    <g id="text_16">
     <!-- Aerodynamic Coefficients - Blade_14 -->
     <g transform="translate(14.482687 199.050447) rotate(-90) scale(0.1 -0.1)">
      <defs>
       <path id="NimbusSanL-Regu-41" d="M 3034 1408 
L 3514 0 
L 4179 0 
L 2541 4672 
L 1773 4672 
L 109 0 
L 742 0 
L 1235 1408 
L 3034 1408 
z
M 2867 1907 
L 1382 1907 
L 2150 4032 
L 2867 1907 
z
" transform="scale(0.015625)"/>
       <path id="NimbusSanL-Regu-64" d="M 3168 4672 
L 2637 4672 
L 2637 2937 
C 2413 3276 2054 3456 1606 3456 
C 736 3456 166 2759 166 1695 
C 166 568 723 -128 1626 -128 
C 2086 -128 2406 44 2694 460 
L 2694 19 
L 3168 19 
L 3168 4672 
z
M 1696 2956 
C 2272 2956 2637 2447 2637 1651 
C 2637 880 2266 371 1702 371 
C 1114 371 723 887 723 1663 
C 723 2440 1114 2956 1696 2956 
z
" transform="scale(0.015625)"/>
       <path id="NimbusSanL-Regu-79" d="M 2483 3328 
L 1555 724 
L 698 3328 
L 128 3328 
L 1261 -29 
L 1056 -558 
C 973 -794 851 -884 627 -884 
C 550 -884 461 -871 346 -845 
L 346 -1325 
C 454 -1383 563 -1408 704 -1408 
C 877 -1408 1062 -1351 1203 -1248 
C 1370 -1127 1466 -986 1568 -718 
L 3059 3328 
L 2483 3328 
z
" transform="scale(0.015625)"/>
       <path id="NimbusSanL-Regu-6d" d="M 448 3328 
L 448 0 
L 986 0 
L 986 2089 
C 986 2597 1338 2988 1773 2988 
C 2170 2988 2394 2744 2394 2315 
L 2394 0 
L 2931 0 
L 2931 2109 
C 2931 2597 3283 2988 3718 2988 
C 4109 2988 4339 2738 4339 2315 
L 4339 0 
L 4877 0 
L 4877 2520 
C 4877 3123 4531 3456 3904 3456 
C 3456 3456 3187 3321 2874 2943 
C 2675 3302 2406 3456 1971 3456 
C 1523 3456 1229 3289 941 2886 
L 941 3328 
L 448 3328 
z
" transform="scale(0.015625)"/>
       <path id="NimbusSanL-Regu-63" d="M 3014 2237 
C 2989 2561 2918 2771 2790 2956 
C 2560 3270 2157 3456 1690 3456 
C 787 3456 198 2740 198 1632 
C 198 555 774 -128 1683 -128 
C 2483 -128 2989 352 3053 1167 
L 2515 1167 
C 2426 632 2150 364 1696 364 
C 1107 364 755 842 755 1632 
C 755 2466 1101 2963 1683 2963 
C 2131 2963 2413 2701 2477 2237 
L 3014 2237 
z
" transform="scale(0.015625)"/>
       <path id="NimbusSanL-Regu-43" d="M 4237 3219 
C 4051 4236 3462 4736 2438 4736 
C 1811 4736 1306 4537 960 4154 
C 538 3696 307 3035 307 2284 
C 307 1522 544 867 986 415 
C 1344 44 1805 -128 2413 -128 
C 3552 -128 4192 485 4333 1712 
L 3718 1712 
C 3667 1394 3603 1178 3507 994 
C 3315 612 2918 396 2419 396 
C 1491 396 902 1134 902 2291 
C 902 3480 1466 4211 2368 4211 
C 2746 4211 3098 4096 3290 3918 
C 3462 3759 3558 3562 3629 3219 
L 4237 3219 
z
" transform="scale(0.015625)"/>
       <path id="NimbusSanL-Regu-66" d="M 1651 3328 
L 1094 3328 
L 1094 3860 
C 1094 4087 1222 4204 1466 4204 
C 1510 4204 1530 4204 1651 4198 
L 1651 4639 
C 1530 4665 1459 4672 1350 4672 
C 858 4672 563 4390 563 3905 
L 563 3328 
L 115 3328 
L 115 2892 
L 563 2892 
L 563 0 
L 1094 0 
L 1094 2892 
L 1651 2892 
L 1651 3328 
z
" transform="scale(0.015625)"/>
       <path id="NimbusSanL-Regu-2" d="M 1613 3328 
L 1056 3328 
L 1056 3860 
C 1056 4087 1184 4204 1427 4204 
C 1472 4204 1491 4204 1613 4198 
L 1613 4639 
C 1491 4665 1421 4672 1312 4672 
C 819 4672 525 4390 525 3905 
L 525 3328 
L 77 3328 
L 77 2892 
L 525 2892 
L 525 0 
L 1056 0 
L 1056 2892 
L 1613 2892 
L 1613 3328 
z
M 2790 3328 
L 2259 3328 
L 2259 0 
L 2790 0 
L 2790 3328 
z
M 2790 4672 
L 2259 4672 
L 2259 3999 
L 2790 3999 
L 2790 4672 
z
" transform="scale(0.015625)"/>
       <path id="NimbusSanL-Regu-73" d="M 2803 2428 
C 2797 3084 2362 3456 1587 3456 
C 806 3456 301 3052 301 2434 
C 301 1912 570 1663 1363 1472 
L 1862 1351 
C 2234 1262 2381 1129 2381 887 
C 2381 574 2067 364 1600 364 
C 1312 364 1069 447 934 587 
C 851 683 813 778 781 1014 
L 218 1014 
C 243 243 678 -128 1555 -128 
C 2400 -128 2938 288 2938 931 
C 2938 1428 2656 1702 1990 1861 
L 1478 1982 
C 1043 2084 858 2224 858 2459 
C 858 2765 1133 2963 1568 2963 
C 1997 2963 2227 2778 2240 2428 
L 2803 2428 
z
" transform="scale(0.015625)"/>
       <path id="NimbusSanL-Regu-2d" d="M 1818 1996 
L 294 1996 
L 294 1536 
L 1818 1536 
L 1818 1996 
z
" transform="scale(0.015625)"/>
       <path id="NimbusSanL-Regu-42" d="M 506 0 
L 2611 0 
C 3053 0 3379 121 3629 390 
C 3859 632 3987 961 3987 1321 
C 3987 1878 3731 2214 3136 2444 
C 3558 2643 3782 2994 3782 3476 
C 3782 3821 3654 4127 3411 4345 
C 3168 4569 2848 4672 2400 4672 
L 506 4672 
L 506 0 
z
M 1101 2636 
L 1101 4147 
L 2253 4147 
C 2586 4147 2771 4101 2931 3977 
C 3098 3847 3187 3652 3187 3391 
C 3187 3138 3098 2936 2931 2806 
C 2771 2682 2586 2636 2253 2636 
L 1101 2636 
z
M 1101 524 
L 1101 2112 
L 2554 2112 
C 2842 2112 3034 2042 3174 1890 
C 3315 1745 3392 1542 3392 1315 
C 3392 1093 3315 891 3174 746 
C 3034 594 2842 524 2554 524 
L 1101 524 
z
" transform="scale(0.015625)"/>
       <path id="NimbusSanL-Regu-6c" d="M 973 4672 
L 435 4672 
L 435 0 
L 973 0 
L 973 4672 
z
" transform="scale(0.015625)"/>
       <path id="NimbusSanL-Regu-31" d="M 1658 3232 
L 1658 0 
L 2221 0 
L 2221 4537 
L 1850 4537 
C 1651 3840 1523 3744 653 3635 
L 653 3232 
L 1658 3232 
z
" transform="scale(0.015625)"/>
       <path id="NimbusSanL-Regu-34" d="M 2093 1088 
L 2093 0 
L 2656 0 
L 2656 1088 
L 3328 1088 
L 3328 1593 
L 2656 1593 
L 2656 4537 
L 2240 4537 
L 179 1683 
L 179 1088 
L 2093 1088 
z
M 2093 1593 
L 672 1593 
L 2093 3577 
L 2093 1593 
z
" transform="scale(0.015625)"/>
      </defs>
      <use xlink:href="#NimbusSanL-Regu-41" transform="scale(0.996264)"/>
      <use xlink:href="#NimbusSanL-Regu-65" transform="translate(66.450031 0) scale(0.996264)"/>
      <use xlink:href="#NimbusSanL-Regu-72" transform="translate(121.841708 0) scale(0.996264)"/>
      <use xlink:href="#NimbusSanL-Regu-6f" transform="translate(155.016938 0) scale(0.996264)"/>
      <use xlink:href="#NimbusSanL-Regu-64" transform="translate(210.408615 0) scale(0.996264)"/>
      <use xlink:href="#NimbusSanL-Regu-79" transform="translate(265.800292 0) scale(0.996264)"/>
      <use xlink:href="#NimbusSanL-Regu-6e" transform="translate(315.613492 0) scale(0.996264)"/>
      <use xlink:href="#NimbusSanL-Regu-61" transform="translate(371.005169 0) scale(0.996264)"/>
      <use xlink:href="#NimbusSanL-Regu-6d" transform="translate(426.396846 0) scale(0.996264)"/>
      <use xlink:href="#NimbusSanL-Regu-69" transform="translate(509.385276 0) scale(0.996264)"/>
      <use xlink:href="#NimbusSanL-Regu-63" transform="translate(531.502061 0) scale(0.996264)"/>
      <use xlink:href="#NimbusSanL-Regu-43" transform="translate(609.010431 0) scale(0.996264)"/>
      <use xlink:href="#NimbusSanL-Regu-6f" transform="translate(680.940416 0) scale(0.996264)"/>
      <use xlink:href="#NimbusSanL-Regu-65" transform="translate(736.332093 0) scale(0.996264)"/>
      <use xlink:href="#NimbusSanL-Regu-66" transform="translate(791.72377 0) scale(0.996264)"/>
      <use xlink:href="#NimbusSanL-Regu-2" transform="translate(819.418939 0) scale(0.996264)"/>
      <use xlink:href="#NimbusSanL-Regu-63" transform="translate(869.23214 0) scale(0.996264)"/>
      <use xlink:href="#NimbusSanL-Regu-69" transform="translate(919.04534 0) scale(0.996264)"/>
      <use xlink:href="#NimbusSanL-Regu-65" transform="translate(941.162125 0) scale(0.996264)"/>
      <use xlink:href="#NimbusSanL-Regu-6e" transform="translate(996.553802 0) scale(0.996264)"/>
      <use xlink:href="#NimbusSanL-Regu-74" transform="translate(1051.945479 0) scale(0.996264)"/>
      <use xlink:href="#NimbusSanL-Regu-73" transform="translate(1079.640648 0) scale(0.996264)"/>
      <use xlink:href="#NimbusSanL-Regu-2d" transform="translate(1157.149018 0) scale(0.996264)"/>
      <use xlink:href="#NimbusSanL-Regu-42" transform="translate(1218.019418 0) scale(0.996264)"/>
      <use xlink:href="#NimbusSanL-Regu-6c" transform="translate(1284.469449 0) scale(0.996264)"/>
      <use xlink:href="#NimbusSanL-Regu-61" transform="translate(1306.586233 0) scale(0.996264)"/>
      <use xlink:href="#NimbusSanL-Regu-64" transform="translate(1361.97791 0) scale(0.996264)"/>
      <use xlink:href="#NimbusSanL-Regu-65" transform="translate(1417.369587 0) scale(0.996264)"/>
      <use xlink:href="#NimbusSanL-Regu-31" transform="translate(1508.626829 0) scale(0.996264)"/>
      <use xlink:href="#NimbusSanL-Regu-34" transform="translate(1564.018506 0) scale(0.996264)"/>
      <path d="M 1478.738605 0 
L 1508.626829 0 
L 1508.626829 0.3985 
L 1478.738605 0.3985 
L 1478.738605 0 
z
"/>
     </g>
    </g>
   </g>
   <g id="line2d_15">
    <path d="M 55.552935 124.45245 
L 55.818445 17.563948 
L 55.906949 17.28 
L 56.083956 20.518467 
L 56.526473 32.288827 
L 56.791984 32.969108 
L 57.323005 36.510436 
L 57.588516 37.349543 
L 57.854026 38.981056 
L 58.119537 42.304826 
L 58.473551 48.181482 
L 58.739062 49.920673 
L 59.004572 53.758196 
L 59.270083 62.143948 
L 59.44709 73.898134 
L 59.978111 122.761821 
L 60.243622 128.538384 
L 60.597636 144.336087 
L 61.217161 178.821503 
L 61.482671 180.121022 
L 61.748182 182.853797 
L 62.367706 190.044888 
L 62.544713 191.105205 
L 62.633217 191.164047 
L 62.810224 190.66107 
L 63.075735 190.386898 
L 63.252742 189.999315 
L 63.429749 189.204901 
L 63.606756 187.511394 
L 63.783763 183.644496 
L 63.96077 179.821086 
L 64.226281 178.42714 
L 64.491791 175.314856 
L 64.757302 168.617678 
L 65.199819 153.846249 
L 65.46533 151.365544 
L 65.819344 144.887483 
L 66.084855 140.040962 
L 66.173358 140.419599 
L 66.350365 142.560138 
L 66.615876 143.569042 
L 66.881386 145.997794 
L 67.146897 151.57331 
L 67.677918 167.639067 
L 67.943429 169.511469 
L 68.297443 174.43486 
L 68.739961 181.230929 
L 69.005471 181.698859 
L 69.359485 182.938562 
L 69.624996 184.467121 
L 69.802003 185.296952 
L 70.156017 185.750858 
L 70.421528 186.479485 
L 70.687038 187.951962 
L 70.952549 190.917928 
L 71.129556 192.601817 
L 71.395066 193.179961 
L 71.660577 194.322643 
L 71.926088 196.485486 
L 72.368605 200.904137 
L 72.811123 201.406494 
L 73.076633 201.647802 
L 73.165137 201.560676 
L 73.342144 200.711823 
L 73.519151 198.138921 
L 73.696158 196.066132 
L 73.961669 195.331158 
L 74.227179 193.66619 
L 74.49269 190.265555 
L 74.7582 183.274163 
L 74.935208 179.148997 
L 75.200718 177.756016 
L 75.466229 174.699142 
L 75.731739 168.618917 
L 75.99725 157.198331 
L 76.174257 151.806746 
L 76.439768 150.133494 
L 76.705278 146.823165 
L 77.059292 139.11936 
L 77.50181 128.75705 
L 77.76732 128.499703 
L 78.032831 127.87172 
L 78.652356 125.959916 
L 78.829363 126.448498 
L 79.094873 126.698698 
L 79.360384 127.317061 
L 79.625895 128.884499 
L 79.891405 132.715625 
L 80.068412 134.926923 
L 80.333923 135.659721 
L 80.599433 137.175312 
L 80.864944 139.840304 
L 81.130455 144.373598 
L 81.395965 149.698589 
L 81.661476 150.722153 
L 81.926986 152.957338 
L 82.192497 157.20205 
L 82.635015 165.269653 
L 82.900525 166.597043 
L 83.166036 169.175791 
L 83.608553 176.63291 
L 83.78556 178.28203 
L 84.051071 178.727253 
L 84.405085 179.917123 
L 84.759099 181.12081 
L 84.847603 181.16231 
L 84.936106 180.90494 
L 85.113113 180.025861 
L 85.378624 179.64214 
L 85.644135 178.679942 
L 85.909645 176.401033 
L 86.440666 170.504914 
L 86.706177 169.792219 
L 86.971687 168.39067 
L 87.591212 164.465232 
L 88.29924 163.96151 
L 88.476247 164.391133 
L 88.830262 166.784883 
L 89.361283 170.371603 
L 89.53829 170.798619 
L 90.334822 170.841625 
L 90.511829 170.672311 
L 90.688836 170.136929 
L 90.954346 169.079825 
L 91.219857 168.859988 
L 91.485367 168.361737 
L 91.750878 167.454677 
L 92.016389 165.860036 
L 92.193396 164.953874 
L 92.458906 164.647976 
L 92.724417 163.968316 
L 92.989927 162.667034 
L 93.520949 159.407441 
L 93.786459 159.007212 
L 94.05197 158.233077 
L 94.405984 156.491882 
L 94.582991 155.930348 
L 94.937005 155.678959 
L 95.291019 155.085711 
L 95.645033 153.873965 
L 95.82204 153.511095 
L 96.264558 153.310687 
L 96.707076 153.092165 
L 96.795579 153.192001 
L 96.972586 153.492362 
L 97.3266 153.698715 
L 97.592111 154.133881 
L 97.857622 155.150366 
L 98.300139 157.487159 
L 98.56565 157.9135 
L 98.83116 158.786528 
L 99.096671 160.371722 
L 99.362182 162.103689 
L 99.627692 162.416823 
L 99.893203 163.071378 
L 100.158713 164.299091 
L 100.424224 166.544465 
L 100.601231 167.629603 
L 100.866742 167.967082 
L 101.132252 168.639971 
L 101.486266 170.183603 
L 101.84028 171.656734 
L 102.282798 171.917291 
L 102.636812 172.146684 
L 102.813819 171.989175 
L 103.167833 171.194744 
L 103.433344 170.941456 
L 103.698854 170.35622 
L 103.964365 168.994407 
L 104.229876 167.1241 
L 104.495386 166.752484 
L 104.760897 165.961391 
L 105.026407 164.439684 
L 105.557429 160.410777 
L 105.822939 159.9335 
L 106.176953 158.700587 
L 106.530967 157.32098 
L 107.327499 157.28508 
L 107.504506 157.547957 
L 107.947024 158.591611 
L 108.301038 158.852239 
L 108.743556 159.513039 
L 109.009066 159.815805 
L 109.894102 159.93698 
L 110.071109 160.188345 
L 110.513626 161.09692 
L 110.86764 161.326265 
L 111.487165 161.925064 
L 112.10669 161.823368 
L 112.460704 161.51231 
L 112.991725 160.84152 
L 113.345739 160.572426 
L 113.699753 159.943936 
L 114.053767 159.262274 
L 114.850299 159.131964 
L 115.204313 159.143464 
L 115.912341 159.279031 
L 116.354859 159.638452 
L 116.531866 159.848765 
L 116.974384 160.042128 
L 117.239894 160.388975 
L 117.505405 161.210546 
L 117.770916 162.41911 
L 118.036426 162.662436 
L 118.301937 163.191992 
L 118.567447 164.17461 
L 119.009965 166.000442 
L 119.275476 166.300907 
L 119.540986 166.889288 
L 119.895 168.300642 
L 120.160511 169.234733 
L 120.603029 169.519337 
L 121.13405 170.020875 
L 121.39956 169.946092 
L 121.842078 169.799086 
L 122.107589 169.457442 
L 122.63861 168.375761 
L 122.992624 167.975738 
L 123.258134 167.316804 
L 123.523645 166.029548 
L 123.700652 165.366494 
L 124.054666 165.03814 
L 124.40868 164.273923 
L 125.028205 162.633059 
L 125.91324 162.471984 
L 126.178751 163.067482 
L 126.355758 163.415873 
L 126.709772 163.602484 
L 127.063786 164.048481 
L 127.4178 164.573932 
L 128.214332 164.539677 
L 128.833857 164.365315 
L 129.630388 164.489937 
L 130.072906 164.664446 
L 130.692431 164.557822 
L 130.957941 164.330487 
L 131.488963 163.607978 
L 131.842977 163.319241 
L 132.108487 162.832545 
L 132.728012 161.310386 
L 133.082026 161.098426 
L 133.43604 160.616548 
L 133.790054 160.104018 
L 135.294614 160.015746 
L 135.737132 160.188204 
L 136.002643 160.525952 
L 136.44516 161.294491 
L 136.799174 161.525955 
L 137.064685 161.921361 
L 137.330196 162.653018 
L 137.507203 163.020545 
L 137.861217 163.201797 
L 138.215231 163.65016 
L 138.480741 164.313397 
L 138.746252 165.013216 
L 139.100266 165.198852 
L 139.45428 165.632149 
L 140.162308 166.716338 
L 140.781833 167.042759 
L 141.135847 167.100335 
L 141.843875 166.989205 
L 142.109386 166.706132 
L 142.374897 166.24971 
L 142.817414 166.037842 
L 143.171428 165.550958 
L 143.436939 164.77298 
L 143.613946 164.385716 
L 143.96796 164.195654 
L 144.321974 163.725369 
L 144.675988 162.77037 
L 145.20701 161.417122 
L 145.561024 160.914289 
L 145.826534 160.84631 
L 146.623066 160.979501 
L 146.888577 161.271991 
L 147.065584 161.470592 
L 147.508101 161.627499 
L 147.862115 161.994348 
L 148.304633 162.983037 
L 148.48164 163.204545 
L 149.012661 163.401372 
L 149.809193 163.841275 
L 150.605725 163.839668 
L 151.22525 163.55034 
L 151.667767 163.342962 
L 152.021781 162.899269 
L 152.375795 162.474062 
L 152.906817 162.316452 
L 153.791852 161.910393 
L 154.853894 161.926914 
L 155.473419 162.044532 
L 155.827433 162.329312 
L 156.446958 162.907554 
L 156.977979 163.073796 
L 157.951518 163.554056 
L 158.925057 163.688265 
L 159.102064 163.597618 
L 159.721588 163.439545 
L 160.075602 163.10114 
L 160.25261 162.93401 
L 160.783631 162.754903 
L 161.137645 162.385255 
L 161.403155 162.037881 
L 161.934177 161.853017 
L 162.376694 161.45463 
L 162.642205 161.222433 
L 163.438737 161.037562 
L 163.792751 161.03461 
L 164.589282 161.170153 
L 164.854793 161.404708 
L 165.0318 161.553196 
L 165.562821 161.712531 
L 165.916835 162.034664 
L 166.359353 162.555495 
L 166.801871 162.737617 
L 167.244388 163.177249 
L 167.421395 163.303846 
L 168.129424 163.483266 
L 168.748948 163.650787 
L 169.54548 163.586026 
L 170.961537 162.811259 
L 171.315551 162.433991 
L 171.935075 162.251036 
L 172.731607 161.904513 
L 174.05916 161.842677 
L 174.590181 161.974478 
L 175.386713 162.351632 
L 175.917734 162.613578 
L 176.271748 162.784095 
L 176.979777 162.947267 
L 177.599301 163.105648 
L 178.484337 163.03381 
L 179.103861 162.793912 
L 179.634882 162.572763 
L 180.0774 162.087562 
L 180.519918 161.71132 
L 181.316449 161.551461 
L 181.847471 161.467696 
L 183.263527 161.889657 
L 184.325569 162.605183 
L 186.892172 162.732346 
L 187.511696 162.598901 
L 187.954214 162.473144 
L 188.662242 162.291267 
L 189.547278 161.885277 
L 191.936873 161.927501 
L 192.290887 161.980561 
L 192.998915 162.115206 
L 194.326468 162.5963 
L 194.945993 162.503045 
L 196.981574 161.895929 
L 198.486134 161.893982 
L 199.282666 162.122439 
L 199.63668 162.171181 
L 201.495254 162.398772 
L 202.557296 162.436829 
L 204.061856 162.309284 
L 204.504374 162.266782 
L 205.389409 162.103874 
L 205.831927 162.061234 
L 208.92955 161.966371 
L 210.699621 162.18245 
L 214.770783 162.180257 
L 218.664939 162.063508 
L 223.886647 162.282081 
L 226.541753 162.105459 
L 231.055433 162.163981 
L 233.00251 162.24205 
L 236.188637 162.18414 
L 243.357423 162.218872 
L 244.77348 162.263712 
L 248.490628 162.164386 
L 250.437706 162.134341 
L 253.623833 162.256026 
L 255.393903 162.287371 
L 359.916571 162.459189 
L 359.916571 162.459189 
" clip-path="url(#p6d2fa6e885)" style="fill: none; stroke: #1f77b4; stroke-width: 1.5; stroke-linecap: square"/>
   </g>
   <g id="line2d_16">
    <path d="M 55.552935 192.457432 
L 55.729942 207.34485 
L 56.172459 204.386633 
L 56.349466 203.7275 
L 56.43797 203.748066 
L 57.323005 205.262992 
L 57.588516 205.608705 
L 57.854026 206.424492 
L 58.031033 207.575565 
L 58.473551 211.651926 
L 58.739062 212.419238 
L 59.004572 213.915539 
L 59.624097 218.88 
L 60.066615 216.351281 
L 60.332125 214.952013 
L 60.597636 211.632661 
L 60.95165 201.607163 
L 61.305664 193.068073 
L 61.571175 191.334875 
L 61.836685 187.601594 
L 62.810224 171.260329 
L 62.987231 171.014093 
L 63.252742 170.215685 
L 63.606756 168.45553 
L 63.872266 167.080688 
L 64.491791 167.148517 
L 64.668798 167.591688 
L 64.845805 169.135882 
L 65.199819 174.297468 
L 65.46533 175.888796 
L 65.730841 179.376238 
L 65.996351 186.183229 
L 66.350365 196.604809 
L 66.615876 197.722141 
L 66.881386 200.033488 
L 67.235401 205.601322 
L 67.589415 211.806284 
L 67.854925 212.501354 
L 68.120436 213.872323 
L 68.739961 217.843447 
L 69.359485 218.054519 
L 69.536492 217.715864 
L 69.890506 216.454329 
L 70.156017 216.08563 
L 70.421528 215.266917 
L 70.687038 213.511478 
L 70.952549 209.643868 
L 71.129556 207.365134 
L 71.395066 206.580773 
L 71.660577 204.984001 
L 71.926088 202.025138 
L 72.457109 194.267395 
L 72.722619 193.258621 
L 72.98813 191.377056 
L 73.342144 186.977143 
L 73.696158 182.469591 
L 73.961669 182.030894 
L 74.227179 181.153456 
L 75.023711 177.763235 
L 75.466229 177.541582 
L 75.820243 177.420054 
L 75.99725 177.828095 
L 76.174257 178.453814 
L 76.439768 178.702645 
L 76.705278 179.291053 
L 76.970789 180.584758 
L 77.236299 183.596813 
L 77.590313 187.928495 
L 77.855824 188.401674 
L 78.121335 189.398997 
L 78.475349 191.805513 
L 78.829363 194.444855 
L 79.183377 194.867543 
L 79.625895 195.952755 
L 80.068412 196.934366 
L 80.51093 197.138118 
L 80.864944 197.596552 
L 81.218958 198.27904 
L 81.395965 198.155783 
L 81.749979 198.010001 
L 82.01549 197.604258 
L 82.192497 196.847987 
L 82.369504 195.100667 
L 82.546511 193.607525 
L 82.812022 193.102313 
L 83.077532 192.03959 
L 83.874064 187.892683 
L 84.228078 187.647529 
L 84.759099 187.030399 
L 85.201617 186.299347 
L 85.555631 186.064182 
L 85.998149 185.633159 
L 86.175156 186.065285 
L 86.352163 186.623121 
L 86.706177 186.955434 
L 86.971687 187.553293 
L 87.237198 188.733723 
L 87.502709 190.089559 
L 87.768219 190.335425 
L 88.03373 190.848468 
L 88.387744 192.125055 
L 89.095772 195.047428 
L 89.361283 195.503612 
L 89.626793 195.512184 
L 90.334822 195.330528 
L 90.511829 195.095563 
L 90.777339 194.179219 
L 90.954346 193.614607 
L 91.30836 193.310782 
L 91.573871 192.791516 
L 91.839382 191.820602 
L 92.281899 190.034032 
L 92.54741 189.736635 
L 92.81292 189.138162 
L 93.166935 187.675967 
L 93.432445 186.685098 
L 93.786459 186.449353 
L 94.140473 185.90625 
L 94.582991 185.215543 
L 95.468026 185.258491 
L 95.645033 185.642787 
L 95.82204 186.073299 
L 96.176055 186.319504 
L 96.441565 186.778898 
L 96.707076 187.74301 
L 96.972586 188.994611 
L 97.238097 189.236625 
L 97.503607 189.760763 
L 97.769118 190.733648 
L 98.300139 193.232815 
L 98.56565 193.551537 
L 98.919664 194.409756 
L 99.362182 195.489561 
L 100.247217 195.558564 
L 100.424224 195.186115 
L 100.601231 194.77434 
L 100.955245 194.536404 
L 101.220756 194.104213 
L 101.486266 193.23734 
L 101.928784 191.51587 
L 102.194294 191.22388 
L 102.548309 190.380972 
L 102.902323 188.782619 
L 103.07933 188.209721 
L 103.433344 187.93883 
L 103.787358 187.325208 
L 104.229876 186.503304 
L 104.760897 186.348856 
L 105.114911 186.273265 
L 105.291918 186.457144 
L 105.468925 186.694371 
L 105.911443 186.903337 
L 106.176953 187.240739 
L 106.442464 187.967982 
L 106.619471 188.389796 
L 106.973485 188.608668 
L 107.327499 189.170048 
L 107.681513 190.260819 
L 107.85852 190.621227 
L 108.301038 190.852721 
L 109.009066 191.391747 
L 109.894102 191.270657 
L 110.248116 190.991586 
L 110.425123 190.873466 
L 110.956144 190.740716 
L 111.221654 190.515686 
L 111.398661 190.162569 
L 111.575669 189.850555 
L 112.018186 189.603851 
L 112.3722 189.066121 
L 112.991725 187.880049 
L 113.345739 187.597446 
L 114.053767 186.860127 
L 114.761796 186.97653 
L 115.027306 187.252363 
L 115.292817 187.702557 
L 115.735334 187.90783 
L 116.089349 188.346249 
L 116.354859 189.021539 
L 116.531866 189.39347 
L 116.88588 189.582559 
L 117.239894 190.039792 
L 117.593909 190.899438 
L 117.770916 191.224847 
L 118.213433 191.450267 
L 119.098469 192.168611 
L 119.983504 192.171139 
L 120.160511 192.043322 
L 120.691532 191.88995 
L 121.045546 191.569828 
L 121.311057 191.229884 
L 121.753574 191.083331 
L 122.196092 190.664432 
L 122.461603 190.370896 
L 122.992624 190.209797 
L 123.435141 189.812792 
L 123.700652 189.561997 
L 124.320177 189.398023 
L 125.028205 189.128712 
L 125.824737 189.210339 
L 126.178751 189.566357 
L 126.355758 189.704431 
L 126.886779 189.842336 
L 127.948821 190.265883 
L 129.099367 190.381167 
L 129.807396 190.32086 
L 130.515424 190.020005 
L 130.869438 189.832768 
L 131.134948 189.497276 
L 131.311956 189.31345 
L 131.842977 189.129943 
L 132.816516 188.587462 
L 133.43604 188.64971 
L 134.763593 189.496488 
L 135.029104 189.899785 
L 135.560125 190.129544 
L 135.914139 190.519326 
L 136.44516 191.144892 
L 136.976181 191.32851 
L 137.595706 191.588674 
L 138.746252 191.534799 
L 139.542784 191.388367 
L 140.339315 191.079768 
L 140.870337 190.862934 
L 141.224351 190.681561 
L 141.843875 190.524923 
L 142.817414 190.163715 
L 143.790953 190.058351 
L 144.410478 190.152248 
L 144.764492 190.447298 
L 145.826534 191.494681 
L 146.71157 191.610433 
L 147.419598 191.675973 
L 148.127626 191.616942 
L 148.924158 191.447243 
L 149.366675 191.279848 
L 149.72069 191.113987 
L 150.340214 190.956705 
L 150.782732 190.619937 
L 150.959739 190.521647 
L 151.667767 190.367005 
L 152.375795 190.20894 
L 153.172327 190.338646 
L 153.791852 190.636626 
L 154.23437 190.830608 
L 154.588384 191.245559 
L 154.765391 191.417674 
L 155.296412 191.584286 
L 156.181447 192.020798 
L 156.535461 191.962729 
L 157.154986 191.803047 
L 157.420497 191.544386 
L 157.597504 191.38344 
L 158.128525 191.210543 
L 158.482539 190.881915 
L 159.102064 190.131581 
L 161.049141 190.090328 
L 161.75717 190.36922 
L 162.199687 190.577891 
L 162.907715 191.024854 
L 163.438737 191.271554 
L 163.969758 191.590917 
L 166.093842 191.72369 
L 166.359353 191.667008 
L 167.067381 191.531141 
L 167.686906 191.350476 
L 168.306431 191.181596 
L 168.837452 191.015033 
L 169.722487 190.828392 
L 170.253508 190.794593 
L 171.138544 190.830642 
L 171.581061 190.87843 
L 172.289089 191.03115 
L 172.5546 191.089282 
L 173.351132 191.242419 
L 173.970657 191.405105 
L 176.271748 191.571923 
L 177.156784 191.430437 
L 177.687805 191.248031 
L 178.395833 191.070446 
L 179.015358 190.860754 
L 180.431414 190.851345 
L 181.404953 190.974712 
L 182.732506 191.372236 
L 183.794548 191.357695 
L 184.502576 191.235923 
L 185.210605 191.074544 
L 185.564619 191.020354 
L 188.927753 190.870515 
L 189.989795 191.05177 
L 193.264426 191.254498 
L 194.503475 190.929704 
L 195.388511 190.799366 
L 196.185042 190.910328 
L 196.804567 190.971307 
L 200.344708 191.113638 
L 201.14124 191.03436 
L 204.946892 190.686218 
L 207.247983 190.866776 
L 209.903089 190.976387 
L 211.67316 190.819876 
L 212.204181 190.783205 
L 215.744322 190.675517 
L 218.841946 190.831342 
L 220.96603 190.830302 
L 223.97515 190.632499 
L 225.302703 190.590532 
L 229.639376 190.698367 
L 232.294482 190.684434 
L 235.657616 190.518003 
L 238.312722 190.504266 
L 242.118374 190.592554 
L 250.526209 190.464773 
L 254.06635 190.441418 
L 269.377461 190.267372 
L 274.422162 190.256257 
L 280.971423 190.233518 
L 285.3966 190.197677 
L 291.060825 190.184968 
L 316.107324 190.102836 
L 328.674825 190.078253 
L 359.916571 190.074089 
L 359.916571 190.074089 
" clip-path="url(#p6d2fa6e885)" style="fill: none; stroke: #ff7f0e; stroke-width: 1.5; stroke-linecap: square"/>
   </g>
   <g id="patch_3">
    <path d="M 40.334753 228.96 
L 40.334753 7.2 
" style="fill: none; stroke: #000000; stroke-width: 0.8; stroke-linejoin: miter; stroke-linecap: square"/>
   </g>
   <g id="patch_4">
    <path d="M 375.134753 228.96 
L 375.134753 7.2 
" style="fill: none; stroke: #000000; stroke-width: 0.8; stroke-linejoin: miter; stroke-linecap: square"/>
   </g>
   <g id="patch_5">
    <path d="M 40.334753 228.96 
L 375.134753 228.96 
" style="fill: none; stroke: #000000; stroke-width: 0.8; stroke-linejoin: miter; stroke-linecap: square"/>
   </g>
   <g id="patch_6">
    <path d="M 40.334753 7.2 
L 375.134753 7.2 
" style="fill: none; stroke: #000000; stroke-width: 0.8; stroke-linejoin: miter; stroke-linecap: square"/>
   </g>
   <g id="legend_1">
    <g id="patch_7">
     <path d="M 321.748759 43.640613 
L 368.134753 43.640613 
Q 370.134753 43.640613 370.134753 41.640613 
L 370.134753 14.2 
Q 370.134753 12.2 368.134753 12.2 
L 321.748759 12.2 
Q 319.748759 12.2 319.748759 14.2 
L 319.748759 41.640613 
Q 319.748759 43.640613 321.748759 43.640613 
z
" style="fill: #ffffff; opacity: 0.8; stroke: #cccccc; stroke-linejoin: miter"/>
    </g>
    <g id="line2d_17">
     <path d="M 323.748759 19.79832 
L 333.748759 19.79832 
L 343.748759 19.79832 
" style="fill: none; stroke: #1f77b4; stroke-width: 1.5; stroke-linecap: square"/>
    </g>
    <g id="text_17">
     <!-- CD -->
     <g transform="translate(351.748759 23.29832) scale(0.1 -0.1)">
      <defs>
       <path id="NimbusSanL-Regu-44" d="M 570 0 
L 2368 0 
C 3546 0 4269 883 4269 2339 
C 4269 3788 3552 4672 2368 4672 
L 570 4672 
L 570 0 
z
M 1165 524 
L 1165 4147 
L 2266 4147 
C 3187 4147 3674 3525 3674 2332 
C 3674 1153 3187 524 2266 524 
L 1165 524 
z
" transform="scale(0.015625)"/>
      </defs>
      <use xlink:href="#NimbusSanL-Regu-43" transform="scale(0.996264)"/>
      <use xlink:href="#NimbusSanL-Regu-44" transform="translate(71.929985 0) scale(0.996264)"/>
     </g>
    </g>
    <g id="line2d_18">
     <path d="M 323.748759 34.018627 
L 333.748759 34.018627 
L 343.748759 34.018627 
" style="fill: none; stroke: #ff7f0e; stroke-width: 1.5; stroke-linecap: square"/>
    </g>
    <g id="text_18">
     <!-- CL -->
     <g transform="translate(351.748759 37.518627) scale(0.1 -0.1)">
      <defs>
       <path id="NimbusSanL-Regu-4c" d="M 1107 4672 
L 512 4672 
L 512 0 
L 3411 0 
L 3411 524 
L 1107 524 
L 1107 4672 
z
" transform="scale(0.015625)"/>
      </defs>
      <use xlink:href="#NimbusSanL-Regu-43" transform="scale(0.996264)"/>
      <use xlink:href="#NimbusSanL-Regu-4c" transform="translate(71.929985 0) scale(0.996264)"/>
     </g>
    </g>
   </g>
  </g>
 </g>
 <defs>
  <clipPath id="p6d2fa6e885">
   <rect x="40.334753" y="7.2" width="334.8" height="221.76"/>
  </clipPath>
 </defs>
</svg>
