<?xml version="1.0" encoding="utf-8" standalone="no"?>
<!DOCTYPE svg PUBLIC "-//W3C//DTD SVG 1.1//EN"
  "http://www.w3.org/Graphics/SVG/1.1/DTD/svg11.dtd">
<svg xmlns:xlink="http://www.w3.org/1999/xlink" width="379.710548pt" height="265.600613pt" viewBox="0 0 379.710548 265.600613" xmlns="http://www.w3.org/2000/svg" version="1.1">
 <metadata>
  <rdf:RDF xmlns:dc="http://purl.org/dc/elements/1.1/" xmlns:cc="http://creativecommons.org/ns#" xmlns:rdf="http://www.w3.org/1999/02/22-rdf-syntax-ns#">
   <cc:Work>
    <dc:type rdf:resource="http://purl.org/dc/dcmitype/StillImage"/>
    <dc:date>2025-07-17T19:24:02.307030</dc:date>
    <dc:format>image/svg+xml</dc:format>
    <dc:creator>
     <cc:Agent>
      <dc:title>Matplotlib v3.10.3, https://matplotlib.org/</dc:title>
     </cc:Agent>
    </dc:creator>
   </cc:Work>
  </rdf:RDF>
 </metadata>
 <defs>
  <style type="text/css">*{stroke-linejoin: round; stroke-linecap: butt}</style>
 </defs>
 <g id="figure_1">
  <g id="patch_1">
   <path d="M 0 265.600613 
L 379.710548 265.600613 
L 379.710548 0 
L 0 0 
z
" style="fill: #ffffff"/>
  </g>
  <g id="axes_1">
   <g id="patch_2">
    <path d="M 37.567344 228.96 
L 372.367344 228.96 
L 372.367344 7.2 
L 37.567344 7.2 
z
" style="fill: #ffffff"/>
   </g>
   <g id="matplotlib.axis_1">
    <g id="xtick_1">
     <g id="line2d_1">
      <defs>
       <path id="m42e42d7f26" d="M 0 0 
L 0 3.5 
" style="stroke: #000000; stroke-width: 0.8"/>
      </defs>
      <g>
       <use xlink:href="#m42e42d7f26" x="52.785526" y="228.96" style="stroke: #000000; stroke-width: 0.8"/>
      </g>
     </g>
     <g id="text_1">
      <!-- $\mathdefault{0}$ -->
      <g transform="translate(50.294859 243.05832) scale(0.1 -0.1)">
       <defs>
        <path id="CMR17-30" d="M 2688 2038 
C 2688 2430 2682 3099 2413 3613 
C 2176 4063 1798 4224 1466 4224 
C 1158 4224 768 4082 525 3620 
C 269 3137 243 2539 243 2038 
C 243 1671 250 1112 448 623 
C 723 -39 1216 -128 1466 -128 
C 1760 -128 2208 -7 2470 604 
C 2662 1048 2688 1568 2688 2038 
z
M 1466 -26 
C 1056 -26 813 328 723 816 
C 653 1196 653 1749 653 2109 
C 653 2604 653 3015 736 3407 
C 858 3954 1216 4121 1466 4121 
C 1728 4121 2067 3947 2189 3420 
C 2272 3054 2278 2623 2278 2109 
C 2278 1691 2278 1176 2202 797 
C 2067 96 1690 -26 1466 -26 
z
" transform="scale(0.015625)"/>
       </defs>
       <use xlink:href="#CMR17-30" transform="scale(0.996264)"/>
      </g>
     </g>
    </g>
    <g id="xtick_2">
     <g id="line2d_2">
      <g>
       <use xlink:href="#m42e42d7f26" x="97.037291" y="228.96" style="stroke: #000000; stroke-width: 0.8"/>
      </g>
     </g>
     <g id="text_2">
      <!-- $\mathdefault{500}$ -->
      <g transform="translate(89.565288 243.05832) scale(0.1 -0.1)">
       <defs>
        <path id="CMR17-35" d="M 730 3750 
C 794 3724 1056 3641 1325 3641 
C 1920 3641 2246 3961 2432 4140 
C 2432 4191 2432 4224 2394 4224 
C 2387 4224 2374 4224 2323 4198 
C 2099 4102 1837 4032 1517 4032 
C 1325 4032 1037 4055 723 4191 
C 653 4224 640 4224 634 4224 
C 602 4224 595 4217 595 4090 
L 595 2231 
C 595 2113 595 2080 659 2080 
C 691 2080 704 2093 736 2139 
C 941 2435 1222 2560 1542 2560 
C 1766 2560 2246 2415 2246 1293 
C 2246 1087 2246 716 2054 422 
C 1894 159 1645 25 1370 25 
C 947 25 518 319 403 812 
C 429 806 480 793 506 793 
C 589 793 749 838 749 1036 
C 749 1209 627 1280 506 1280 
C 358 1280 262 1190 262 1011 
C 262 454 704 -128 1382 -128 
C 2042 -128 2669 441 2669 1267 
C 2669 2054 2170 2662 1549 2662 
C 1222 2662 947 2540 730 2304 
L 730 3750 
z
" transform="scale(0.015625)"/>
       </defs>
       <use xlink:href="#CMR17-35" transform="scale(0.996264)"/>
       <use xlink:href="#CMR17-30" transform="translate(45.690477 0) scale(0.996264)"/>
       <use xlink:href="#CMR17-30" transform="translate(91.380954 0) scale(0.996264)"/>
      </g>
     </g>
    </g>
    <g id="xtick_3">
     <g id="line2d_3">
      <g>
       <use xlink:href="#m42e42d7f26" x="141.289055" y="228.96" style="stroke: #000000; stroke-width: 0.8"/>
      </g>
     </g>
     <g id="text_3">
      <!-- $\mathdefault{1000}$ -->
      <g transform="translate(131.326385 243.05832) scale(0.1 -0.1)">
       <defs>
        <path id="CMR17-31" d="M 1702 4083 
C 1702 4217 1696 4224 1606 4224 
C 1357 3927 979 3833 621 3820 
C 602 3820 570 3820 563 3808 
C 557 3795 557 3782 557 3648 
C 755 3648 1088 3686 1344 3839 
L 1344 467 
C 1344 243 1331 166 781 166 
L 589 166 
L 589 0 
C 896 6 1216 12 1523 12 
C 1830 12 2150 6 2458 0 
L 2458 166 
L 2266 166 
C 1715 166 1702 236 1702 467 
L 1702 4083 
z
" transform="scale(0.015625)"/>
       </defs>
       <use xlink:href="#CMR17-31" transform="scale(0.996264)"/>
       <use xlink:href="#CMR17-30" transform="translate(45.690477 0) scale(0.996264)"/>
       <use xlink:href="#CMR17-30" transform="translate(91.380954 0) scale(0.996264)"/>
       <use xlink:href="#CMR17-30" transform="translate(137.071431 0) scale(0.996264)"/>
      </g>
     </g>
    </g>
    <g id="xtick_4">
     <g id="line2d_4">
      <g>
       <use xlink:href="#m42e42d7f26" x="185.54082" y="228.96" style="stroke: #000000; stroke-width: 0.8"/>
      </g>
     </g>
     <g id="text_4">
      <!-- $\mathdefault{1500}$ -->
      <g transform="translate(175.578149 243.05832) scale(0.1 -0.1)">
       <use xlink:href="#CMR17-31" transform="scale(0.996264)"/>
       <use xlink:href="#CMR17-35" transform="translate(45.690477 0) scale(0.996264)"/>
       <use xlink:href="#CMR17-30" transform="translate(91.380954 0) scale(0.996264)"/>
       <use xlink:href="#CMR17-30" transform="translate(137.071431 0) scale(0.996264)"/>
      </g>
     </g>
    </g>
    <g id="xtick_5">
     <g id="line2d_5">
      <g>
       <use xlink:href="#m42e42d7f26" x="229.792584" y="228.96" style="stroke: #000000; stroke-width: 0.8"/>
      </g>
     </g>
     <g id="text_5">
      <!-- $\mathdefault{2000}$ -->
      <g transform="translate(219.829914 243.05832) scale(0.1 -0.1)">
       <defs>
        <path id="CMR17-32" d="M 2669 990 
L 2554 990 
C 2490 537 2438 460 2413 422 
C 2381 371 1920 371 1830 371 
L 602 371 
C 832 620 1280 1073 1824 1596 
C 2214 1966 2669 2400 2669 3033 
C 2669 3788 2067 4224 1395 4224 
C 691 4224 262 3603 262 3027 
C 262 2777 448 2745 525 2745 
C 589 2745 781 2783 781 3007 
C 781 3206 614 3264 525 3264 
C 486 3264 448 3257 422 3244 
C 544 3788 915 4057 1306 4057 
C 1862 4057 2227 3616 2227 3033 
C 2227 2477 1901 1998 1536 1583 
L 262 147 
L 262 0 
L 2515 0 
L 2669 990 
z
" transform="scale(0.015625)"/>
       </defs>
       <use xlink:href="#CMR17-32" transform="scale(0.996264)"/>
       <use xlink:href="#CMR17-30" transform="translate(45.690477 0) scale(0.996264)"/>
       <use xlink:href="#CMR17-30" transform="translate(91.380954 0) scale(0.996264)"/>
       <use xlink:href="#CMR17-30" transform="translate(137.071431 0) scale(0.996264)"/>
      </g>
     </g>
    </g>
    <g id="xtick_6">
     <g id="line2d_6">
      <g>
       <use xlink:href="#m42e42d7f26" x="274.044349" y="228.96" style="stroke: #000000; stroke-width: 0.8"/>
      </g>
     </g>
     <g id="text_6">
      <!-- $\mathdefault{2500}$ -->
      <g transform="translate(264.081678 243.05832) scale(0.1 -0.1)">
       <use xlink:href="#CMR17-32" transform="scale(0.996264)"/>
       <use xlink:href="#CMR17-35" transform="translate(45.690477 0) scale(0.996264)"/>
       <use xlink:href="#CMR17-30" transform="translate(91.380954 0) scale(0.996264)"/>
       <use xlink:href="#CMR17-30" transform="translate(137.071431 0) scale(0.996264)"/>
      </g>
     </g>
    </g>
    <g id="xtick_7">
     <g id="line2d_7">
      <g>
       <use xlink:href="#m42e42d7f26" x="318.296113" y="228.96" style="stroke: #000000; stroke-width: 0.8"/>
      </g>
     </g>
     <g id="text_7">
      <!-- $\mathdefault{3000}$ -->
      <g transform="translate(308.333443 243.05832) scale(0.1 -0.1)">
       <defs>
        <path id="CMR17-33" d="M 1414 2176 
C 1984 2176 2234 1673 2234 1094 
C 2234 322 1824 25 1453 25 
C 1114 25 563 193 390 691 
C 422 678 454 678 486 678 
C 640 678 755 780 755 947 
C 755 1132 614 1216 486 1216 
C 378 1216 211 1164 211 927 
C 211 335 787 -128 1466 -128 
C 2176 -128 2720 432 2720 1087 
C 2720 1718 2208 2176 1600 2246 
C 2086 2347 2554 2776 2554 3353 
C 2554 3856 2048 4224 1472 4224 
C 890 4224 378 3862 378 3347 
C 378 3123 544 3084 627 3084 
C 762 3084 877 3167 877 3334 
C 877 3500 762 3584 627 3584 
C 602 3584 570 3584 544 3571 
C 730 3999 1235 4076 1459 4076 
C 1683 4076 2106 3966 2106 3347 
C 2106 3167 2080 2851 1862 2574 
C 1670 2329 1453 2316 1242 2297 
C 1210 2297 1062 2284 1037 2284 
C 992 2278 966 2272 966 2227 
C 966 2182 973 2176 1101 2176 
L 1414 2176 
z
" transform="scale(0.015625)"/>
       </defs>
       <use xlink:href="#CMR17-33" transform="scale(0.996264)"/>
       <use xlink:href="#CMR17-30" transform="translate(45.690477 0) scale(0.996264)"/>
       <use xlink:href="#CMR17-30" transform="translate(91.380954 0) scale(0.996264)"/>
       <use xlink:href="#CMR17-30" transform="translate(137.071431 0) scale(0.996264)"/>
      </g>
     </g>
    </g>
    <g id="xtick_8">
     <g id="line2d_8">
      <g>
       <use xlink:href="#m42e42d7f26" x="362.547878" y="228.96" style="stroke: #000000; stroke-width: 0.8"/>
      </g>
     </g>
     <g id="text_8">
      <!-- $\mathdefault{3500}$ -->
      <g transform="translate(352.585207 243.05832) scale(0.1 -0.1)">
       <use xlink:href="#CMR17-33" transform="scale(0.996264)"/>
       <use xlink:href="#CMR17-35" transform="translate(45.690477 0) scale(0.996264)"/>
       <use xlink:href="#CMR17-30" transform="translate(91.380954 0) scale(0.996264)"/>
       <use xlink:href="#CMR17-30" transform="translate(137.071431 0) scale(0.996264)"/>
      </g>
     </g>
    </g>
    <g id="text_9">
     <!-- Iteration -->
     <g transform="translate(187.019968 256.278627) scale(0.1 -0.1)">
      <defs>
       <path id="NimbusSanL-Regu-49" d="M 1242 4672 
L 640 4672 
L 640 0 
L 1242 0 
L 1242 4672 
z
" transform="scale(0.015625)"/>
       <path id="NimbusSanL-Regu-74" d="M 1626 3328 
L 1075 3328 
L 1075 4249 
L 544 4249 
L 544 3328 
L 90 3328 
L 90 2892 
L 544 2892 
L 544 402 
C 544 64 774 -128 1190 -128 
C 1318 -128 1446 -116 1626 -84 
L 1626 364 
C 1555 345 1472 339 1370 339 
C 1139 339 1075 402 1075 634 
L 1075 2892 
L 1626 2892 
L 1626 3328 
z
" transform="scale(0.015625)"/>
       <path id="NimbusSanL-Regu-65" d="M 3283 1484 
C 3283 1998 3245 2311 3149 2565 
C 2931 3123 2419 3456 1792 3456 
C 858 3456 256 2734 256 1619 
C 256 545 838 -128 1779 -128 
C 2547 -128 3078 307 3213 1018 
L 2675 1018 
C 2528 588 2227 364 1798 364 
C 1459 364 1171 514 992 787 
C 864 974 819 1161 813 1484 
L 3283 1484 
z
M 826 1920 
C 870 2552 1248 2963 1786 2963 
C 2310 2963 2714 2519 2714 1959 
C 2714 1946 2714 1933 2707 1920 
L 826 1920 
z
" transform="scale(0.015625)"/>
       <path id="NimbusSanL-Regu-72" d="M 442 3328 
L 442 0 
L 979 0 
L 979 1727 
C 979 2203 1101 2514 1357 2698 
C 1523 2819 1683 2857 2054 2863 
L 2054 3404 
C 1965 3449 1920 3456 1850 3456 
C 1504 3456 1242 3251 934 2750 
L 934 3328 
L 442 3328 
z
" transform="scale(0.015625)"/>
       <path id="NimbusSanL-Regu-61" d="M 3424 332 
C 3366 320 3341 320 3309 320 
C 3123 320 3021 415 3021 581 
L 3021 2542 
C 3021 3135 2586 3456 1760 3456 
C 1274 3456 870 3315 646 3065 
C 493 2893 429 2702 416 2370 
L 954 2370 
C 998 2778 1242 2963 1741 2963 
C 2221 2963 2490 2784 2490 2466 
L 2490 2326 
C 2490 2103 2355 2007 1933 1956 
C 1178 1861 1062 1835 858 1753 
C 467 1593 269 1294 269 861 
C 269 256 691 -128 1370 -128 
C 1792 -128 2131 19 2509 364 
C 2547 25 2714 -128 3059 -128 
C 3168 -128 3251 -116 3424 -71 
L 3424 332 
z
M 2490 1071 
C 2490 893 2438 785 2278 638 
C 2061 441 1798 339 1485 339 
C 1069 339 826 536 826 874 
C 826 1224 1062 1402 1632 1485 
C 2195 1562 2310 1587 2490 1670 
L 2490 1071 
z
" transform="scale(0.015625)"/>
       <path id="NimbusSanL-Regu-69" d="M 960 3358 
L 429 3358 
L 429 0 
L 960 0 
L 960 3358 
z
M 960 4672 
L 422 4672 
L 422 3999 
L 960 3999 
L 960 4672 
z
" transform="scale(0.015625)"/>
       <path id="NimbusSanL-Regu-6f" d="M 1741 3456 
C 800 3456 230 2784 230 1663 
C 230 543 794 -128 1747 -128 
C 2688 -128 3264 543 3264 1638 
C 3264 2791 2707 3456 1741 3456 
z
M 1747 2963 
C 2349 2963 2707 2472 2707 1644 
C 2707 861 2336 364 1747 364 
C 1152 364 787 855 787 1663 
C 787 2466 1152 2963 1747 2963 
z
" transform="scale(0.015625)"/>
       <path id="NimbusSanL-Regu-6e" d="M 448 3328 
L 448 0 
L 986 0 
L 986 1835 
C 986 2539 1344 2988 1894 2988 
C 2317 2988 2586 2732 2586 2328 
L 2586 0 
L 3117 0 
L 3117 2539 
C 3117 3097 2701 3456 2054 3456 
C 1555 3456 1235 3263 941 2796 
L 941 3328 
L 448 3328 
z
" transform="scale(0.015625)"/>
      </defs>
      <use xlink:href="#NimbusSanL-Regu-49" transform="scale(0.996264)"/>
      <use xlink:href="#NimbusSanL-Regu-74" transform="translate(27.69517 0) scale(0.996264)"/>
      <use xlink:href="#NimbusSanL-Regu-65" transform="translate(55.390339 0) scale(0.996264)"/>
      <use xlink:href="#NimbusSanL-Regu-72" transform="translate(110.782016 0) scale(0.996264)"/>
      <use xlink:href="#NimbusSanL-Regu-61" transform="translate(142.961149 0) scale(0.996264)"/>
      <use xlink:href="#NimbusSanL-Regu-74" transform="translate(198.352826 0) scale(0.996264)"/>
      <use xlink:href="#NimbusSanL-Regu-69" transform="translate(226.047996 0) scale(0.996264)"/>
      <use xlink:href="#NimbusSanL-Regu-6f" transform="translate(248.16478 0) scale(0.996264)"/>
      <use xlink:href="#NimbusSanL-Regu-6e" transform="translate(303.556457 0) scale(0.996264)"/>
     </g>
    </g>
   </g>
   <g id="matplotlib.axis_2">
    <g id="ytick_1">
     <g id="line2d_9">
      <defs>
       <path id="m7678a0a76e" d="M 0 0 
L -3.5 0 
" style="stroke: #000000; stroke-width: 0.8"/>
      </defs>
      <g>
       <use xlink:href="#m7678a0a76e" x="37.567344" y="228.255784" style="stroke: #000000; stroke-width: 0.8"/>
      </g>
     </g>
     <g id="text_10">
      <!-- $\mathdefault{0}$ -->
      <g transform="translate(25.586009 231.804945) scale(0.1 -0.1)">
       <use xlink:href="#CMR17-30" transform="scale(0.996264)"/>
      </g>
     </g>
    </g>
    <g id="ytick_2">
     <g id="line2d_10">
      <g>
       <use xlink:href="#m7678a0a76e" x="37.567344" y="194.946352" style="stroke: #000000; stroke-width: 0.8"/>
      </g>
     </g>
     <g id="text_11">
      <!-- $\mathdefault{5}$ -->
      <g transform="translate(25.586009 198.495512) scale(0.1 -0.1)">
       <use xlink:href="#CMR17-35" transform="scale(0.996264)"/>
      </g>
     </g>
    </g>
    <g id="ytick_3">
     <g id="line2d_11">
      <g>
       <use xlink:href="#m7678a0a76e" x="37.567344" y="161.636919" style="stroke: #000000; stroke-width: 0.8"/>
      </g>
     </g>
     <g id="text_12">
      <!-- $\mathdefault{10}$ -->
      <g transform="translate(20.604674 165.186079) scale(0.1 -0.1)">
       <use xlink:href="#CMR17-31" transform="scale(0.996264)"/>
       <use xlink:href="#CMR17-30" transform="translate(45.690477 0) scale(0.996264)"/>
      </g>
     </g>
    </g>
    <g id="ytick_4">
     <g id="line2d_12">
      <g>
       <use xlink:href="#m7678a0a76e" x="37.567344" y="128.327486" style="stroke: #000000; stroke-width: 0.8"/>
      </g>
     </g>
     <g id="text_13">
      <!-- $\mathdefault{15}$ -->
      <g transform="translate(20.604674 131.876646) scale(0.1 -0.1)">
       <use xlink:href="#CMR17-31" transform="scale(0.996264)"/>
       <use xlink:href="#CMR17-35" transform="translate(45.690477 0) scale(0.996264)"/>
      </g>
     </g>
    </g>
    <g id="ytick_5">
     <g id="line2d_13">
      <g>
       <use xlink:href="#m7678a0a76e" x="37.567344" y="95.018053" style="stroke: #000000; stroke-width: 0.8"/>
      </g>
     </g>
     <g id="text_14">
      <!-- $\mathdefault{20}$ -->
      <g transform="translate(20.604674 98.567214) scale(0.1 -0.1)">
       <use xlink:href="#CMR17-32" transform="scale(0.996264)"/>
       <use xlink:href="#CMR17-30" transform="translate(45.690477 0) scale(0.996264)"/>
      </g>
     </g>
    </g>
    <g id="ytick_6">
     <g id="line2d_14">
      <g>
       <use xlink:href="#m7678a0a76e" x="37.567344" y="61.708621" style="stroke: #000000; stroke-width: 0.8"/>
      </g>
     </g>
     <g id="text_15">
      <!-- $\mathdefault{25}$ -->
      <g transform="translate(20.604674 65.257781) scale(0.1 -0.1)">
       <use xlink:href="#CMR17-32" transform="scale(0.996264)"/>
       <use xlink:href="#CMR17-35" transform="translate(45.690477 0) scale(0.996264)"/>
      </g>
     </g>
    </g>
    <g id="ytick_7">
     <g id="line2d_15">
      <g>
       <use xlink:href="#m7678a0a76e" x="37.567344" y="28.399188" style="stroke: #000000; stroke-width: 0.8"/>
      </g>
     </g>
     <g id="text_16">
      <!-- $\mathdefault{30}$ -->
      <g transform="translate(20.604674 31.948348) scale(0.1 -0.1)">
       <use xlink:href="#CMR17-33" transform="scale(0.996264)"/>
       <use xlink:href="#CMR17-30" transform="translate(45.690477 0) scale(0.996264)"/>
      </g>
     </g>
    </g>
    <g id="text_17">
     <!-- Average CFL - Blade_14 -->
     <g transform="translate(14.482687 171.548902) rotate(-90) scale(0.1 -0.1)">
      <defs>
       <path id="NimbusSanL-Regu-41" d="M 3034 1408 
L 3514 0 
L 4179 0 
L 2541 4672 
L 1773 4672 
L 109 0 
L 742 0 
L 1235 1408 
L 3034 1408 
z
M 2867 1907 
L 1382 1907 
L 2150 4032 
L 2867 1907 
z
" transform="scale(0.015625)"/>
       <path id="NimbusSanL-Regu-76" d="M 1824 0 
L 3110 3328 
L 2509 3328 
L 1562 629 
L 666 3328 
L 64 3328 
L 1242 0 
L 1824 0 
z
" transform="scale(0.015625)"/>
       <path id="NimbusSanL-Regu-67" d="M 2637 3359 
L 2637 2873 
C 2368 3270 2042 3456 1613 3456 
C 762 3456 186 2714 186 1632 
C 186 1084 333 638 608 320 
C 858 38 1216 -128 1568 -128 
C 1990 -128 2285 51 2586 473 
L 2586 300 
C 2586 -155 2528 -441 2394 -634 
C 2253 -841 1978 -960 1651 -960 
C 1408 -960 1190 -894 1043 -774 
C 922 -674 870 -581 838 -375 
L 294 -375 
C 352 -1031 845 -1408 1632 -1408 
C 2131 -1408 2560 -1248 2778 -980 
C 3034 -661 3130 -222 3130 568 
L 3130 3359 
L 2637 3359 
z
M 1670 2963 
C 2246 2963 2586 2479 2586 1644 
C 2586 848 2240 364 1677 364 
C 1094 364 742 855 742 1663 
C 742 2466 1101 2963 1670 2963 
z
" transform="scale(0.015625)"/>
       <path id="NimbusSanL-Regu-43" d="M 4237 3219 
C 4051 4236 3462 4736 2438 4736 
C 1811 4736 1306 4537 960 4154 
C 538 3696 307 3035 307 2284 
C 307 1522 544 867 986 415 
C 1344 44 1805 -128 2413 -128 
C 3552 -128 4192 485 4333 1712 
L 3718 1712 
C 3667 1394 3603 1178 3507 994 
C 3315 612 2918 396 2419 396 
C 1491 396 902 1134 902 2291 
C 902 3480 1466 4211 2368 4211 
C 2746 4211 3098 4096 3290 3918 
C 3462 3759 3558 3562 3629 3219 
L 4237 3219 
z
" transform="scale(0.015625)"/>
       <path id="NimbusSanL-Regu-46" d="M 1171 2112 
L 3398 2112 
L 3398 2636 
L 1171 2636 
L 1171 4147 
L 3706 4147 
L 3706 4672 
L 576 4672 
L 576 0 
L 1171 0 
L 1171 2112 
z
" transform="scale(0.015625)"/>
       <path id="NimbusSanL-Regu-4c" d="M 1107 4672 
L 512 4672 
L 512 0 
L 3411 0 
L 3411 524 
L 1107 524 
L 1107 4672 
z
" transform="scale(0.015625)"/>
       <path id="NimbusSanL-Regu-2d" d="M 1818 1996 
L 294 1996 
L 294 1536 
L 1818 1536 
L 1818 1996 
z
" transform="scale(0.015625)"/>
       <path id="NimbusSanL-Regu-42" d="M 506 0 
L 2611 0 
C 3053 0 3379 121 3629 390 
C 3859 632 3987 961 3987 1321 
C 3987 1878 3731 2214 3136 2444 
C 3558 2643 3782 2994 3782 3476 
C 3782 3821 3654 4127 3411 4345 
C 3168 4569 2848 4672 2400 4672 
L 506 4672 
L 506 0 
z
M 1101 2636 
L 1101 4147 
L 2253 4147 
C 2586 4147 2771 4101 2931 3977 
C 3098 3847 3187 3652 3187 3391 
C 3187 3138 3098 2936 2931 2806 
C 2771 2682 2586 2636 2253 2636 
L 1101 2636 
z
M 1101 524 
L 1101 2112 
L 2554 2112 
C 2842 2112 3034 2042 3174 1890 
C 3315 1745 3392 1542 3392 1315 
C 3392 1093 3315 891 3174 746 
C 3034 594 2842 524 2554 524 
L 1101 524 
z
" transform="scale(0.015625)"/>
       <path id="NimbusSanL-Regu-6c" d="M 973 4672 
L 435 4672 
L 435 0 
L 973 0 
L 973 4672 
z
" transform="scale(0.015625)"/>
       <path id="NimbusSanL-Regu-64" d="M 3168 4672 
L 2637 4672 
L 2637 2937 
C 2413 3276 2054 3456 1606 3456 
C 736 3456 166 2759 166 1695 
C 166 568 723 -128 1626 -128 
C 2086 -128 2406 44 2694 460 
L 2694 19 
L 3168 19 
L 3168 4672 
z
M 1696 2956 
C 2272 2956 2637 2447 2637 1651 
C 2637 880 2266 371 1702 371 
C 1114 371 723 887 723 1663 
C 723 2440 1114 2956 1696 2956 
z
" transform="scale(0.015625)"/>
       <path id="NimbusSanL-Regu-31" d="M 1658 3232 
L 1658 0 
L 2221 0 
L 2221 4537 
L 1850 4537 
C 1651 3840 1523 3744 653 3635 
L 653 3232 
L 1658 3232 
z
" transform="scale(0.015625)"/>
       <path id="NimbusSanL-Regu-34" d="M 2093 1088 
L 2093 0 
L 2656 0 
L 2656 1088 
L 3328 1088 
L 3328 1593 
L 2656 1593 
L 2656 4537 
L 2240 4537 
L 179 1683 
L 179 1088 
L 2093 1088 
z
M 2093 1593 
L 672 1593 
L 2093 3577 
L 2093 1593 
z
" transform="scale(0.015625)"/>
      </defs>
      <use xlink:href="#NimbusSanL-Regu-41" transform="scale(0.996264)"/>
      <use xlink:href="#NimbusSanL-Regu-76" transform="translate(62.465918 0) scale(0.996264)"/>
      <use xlink:href="#NimbusSanL-Regu-65" transform="translate(109.788488 0) scale(0.996264)"/>
      <use xlink:href="#NimbusSanL-Regu-72" transform="translate(165.180165 0) scale(0.996264)"/>
      <use xlink:href="#NimbusSanL-Regu-61" transform="translate(197.359298 0) scale(0.996264)"/>
      <use xlink:href="#NimbusSanL-Regu-67" transform="translate(252.750975 0) scale(0.996264)"/>
      <use xlink:href="#NimbusSanL-Regu-65" transform="translate(308.142652 0) scale(0.996264)"/>
      <use xlink:href="#NimbusSanL-Regu-43" transform="translate(391.229499 0) scale(0.996264)"/>
      <use xlink:href="#NimbusSanL-Regu-46" transform="translate(463.159484 0) scale(0.996264)"/>
      <use xlink:href="#NimbusSanL-Regu-4c" transform="translate(524.031114 0) scale(0.996264)"/>
      <use xlink:href="#NimbusSanL-Regu-2d" transform="translate(607.117961 0) scale(0.996264)"/>
      <use xlink:href="#NimbusSanL-Regu-42" transform="translate(667.98836 0) scale(0.996264)"/>
      <use xlink:href="#NimbusSanL-Regu-6c" transform="translate(734.438391 0) scale(0.996264)"/>
      <use xlink:href="#NimbusSanL-Regu-61" transform="translate(756.555176 0) scale(0.996264)"/>
      <use xlink:href="#NimbusSanL-Regu-64" transform="translate(811.946853 0) scale(0.996264)"/>
      <use xlink:href="#NimbusSanL-Regu-65" transform="translate(867.33853 0) scale(0.996264)"/>
      <use xlink:href="#NimbusSanL-Regu-31" transform="translate(958.595772 0) scale(0.996264)"/>
      <use xlink:href="#NimbusSanL-Regu-34" transform="translate(1013.987449 0) scale(0.996264)"/>
      <path d="M 928.707548 0 
L 958.595772 0 
L 958.595772 0.3985 
L 928.707548 0.3985 
L 928.707548 0 
z
"/>
     </g>
    </g>
   </g>
   <g id="line2d_16">
    <path d="M 52.785526 133.285109 
L 52.962533 93.192736 
L 53.051037 214.74948 
L 53.13954 212.048219 
L 53.405051 200.249111 
L 53.670561 179.860252 
L 53.936072 144.628305 
L 54.201583 83.933384 
L 54.290086 213.823544 
L 54.37859 210.937096 
L 54.6441 198.329092 
L 54.909611 176.542459 
L 55.175121 138.895158 
L 55.440632 73.999973 
L 55.529136 212.830203 
L 55.617639 209.745087 
L 55.88315 196.269299 
L 56.14866 172.983138 
L 56.414171 132.748041 
L 56.768185 63.420947 
L 56.945192 63.420947 
L 57.033696 211.772301 
L 57.122199 208.475604 
L 57.38771 194.075633 
L 57.65322 169.192482 
L 57.918731 126.24835 
L 58.184241 81.767956 
L 58.272745 81.767956 
L 58.361249 52.832609 
L 58.449752 210.713467 
L 58.538256 207.205003 
L 58.803766 191.880035 
L 59.069277 165.415823 
L 59.334787 119.771788 
L 59.600298 72.142542 
L 59.777305 72.142542 
L 59.865809 41.021878 
L 59.954312 209.532394 
L 60.042816 205.787716 
L 60.308326 189.430962 
L 60.573837 161.175371 
L 60.839347 112.404037 
L 61.016354 61.513932 
L 61.104858 211.581599 
L 61.193361 208.246762 
L 61.458872 193.680194 
L 61.724383 168.509164 
L 61.989893 125.030785 
L 62.1669 79.655004 
L 62.255404 213.395706 
L 62.343907 210.423691 
L 62.609418 197.441927 
L 62.874929 175.009438 
L 63.140439 136.265244 
L 63.40595 95.827414 
L 63.494453 215.012947 
L 63.582957 212.36438 
L 63.848467 200.795438 
L 64.113978 180.807289 
L 64.379489 146.290641 
L 64.644999 86.678945 
L 64.733503 214.098101 
L 64.822006 211.266564 
L 65.087517 198.898411 
L 65.353027 177.528034 
L 65.618538 140.611166 
L 65.795545 102.068413 
L 65.884048 215.637047 
L 65.972552 213.1133 
L 66.238063 202.089571 
L 66.503573 183.040568 
L 66.769084 150.12389 
L 66.857587 134.49794 
L 66.946091 218.88 
L 67.034594 217.004843 
L 67.300105 208.814158 
L 67.565616 194.660654 
L 67.831126 170.203398 
L 68.096637 127.941261 
L 68.18514 107.878357 
L 68.273644 216.218042 
L 68.362147 213.810493 
L 68.627658 203.294321 
L 68.893168 185.122376 
L 69.158679 153.721254 
L 69.42419 99.460116 
L 69.512693 215.376218 
L 69.601197 212.800304 
L 69.866707 201.548715 
L 70.132218 182.105968 
L 70.397728 148.508901 
L 70.751743 90.45317 
L 70.840246 214.475523 
L 70.92875 211.719471 
L 71.19426 199.681034 
L 71.459771 178.878616 
L 71.725281 142.932038 
L 71.990792 80.831792 
L 72.079296 213.513385 
L 72.167799 210.564905 
L 72.43331 197.685945 
L 72.69882 175.431103 
L 72.964331 136.974734 
L 73.229841 70.522129 
L 73.318345 212.482419 
L 73.406848 209.327746 
L 73.672359 195.548134 
L 73.93787 171.736964 
L 74.20338 130.591263 
L 74.468891 87.618873 
L 74.645898 87.618873 
L 74.734401 214.192093 
L 74.822905 211.379355 
L 75.088416 199.093315 
L 75.353926 177.863036 
L 75.619437 141.177116 
L 75.884947 77.783845 
L 75.973451 213.208591 
L 76.061954 210.199152 
L 76.327465 197.053923 
L 76.592976 174.338968 
L 76.858486 135.087526 
L 77.123997 67.261033 
L 77.2125 212.156309 
L 77.301004 208.936414 
L 77.566514 194.871913 
L 77.832025 170.568454 
L 78.097536 128.572078 
L 78.363046 56.00234 
L 78.45155 21.551651 
L 78.540053 207.585371 
L 78.628557 203.451288 
L 78.894067 185.393615 
L 79.159578 154.189956 
L 79.425088 100.270033 
L 79.602095 43.956303 
L 79.690599 209.825836 
L 79.779103 206.139847 
L 80.044613 190.039444 
L 80.310124 162.217948 
L 80.575634 114.142403 
L 80.841145 31.067861 
L 80.929648 208.536992 
L 81.018152 204.593234 
L 81.283663 187.366897 
L 81.549173 157.599786 
L 81.814684 106.16222 
L 82.168698 17.28 
L 82.257201 207.158206 
L 82.345705 202.93869 
L 82.611215 184.507846 
L 82.876726 152.659346 
L 83.142237 97.62514 
L 83.407747 40.147656 
L 83.496251 209.444972 
L 83.584754 205.682809 
L 83.850265 189.249683 
L 84.115775 160.853241 
L 84.381286 111.784189 
L 84.558293 60.536687 
L 84.646797 211.483875 
L 84.7353 208.129493 
L 85.000811 193.477552 
L 85.266321 168.159 
L 85.531832 124.40854 
L 85.797343 78.715753 
L 86.682378 78.715753 
L 86.770881 213.301781 
L 86.859385 210.310981 
L 87.124895 197.247163 
L 87.390406 174.672887 
L 87.655917 135.664538 
L 88.009931 68.258111 
L 88.098434 212.256017 
L 88.186938 209.056064 
L 88.452448 195.078667 
L 88.717959 170.925725 
L 88.98347 129.189442 
L 89.24898 57.069145 
L 89.337484 211.137121 
L 89.425987 207.713388 
L 89.691498 192.758523 
L 89.957008 166.916517 
L 90.222519 122.26153 
L 90.48803 45.097712 
L 90.576533 209.939977 
L 90.665037 206.276816 
L 90.930547 190.276127 
L 91.196058 162.626936 
L 91.461568 114.849134 
L 91.638575 64.950207 
L 91.727079 211.925227 
L 91.815583 208.659115 
L 92.081093 194.39274 
L 92.346604 169.740444 
L 92.612114 127.141276 
L 92.877625 53.529913 
L 92.966128 210.783197 
L 93.054632 207.28868 
L 93.320143 192.024628 
L 93.585653 165.648346 
L 93.851164 120.07013 
L 94.028171 72.468442 
L 94.116674 212.67705 
L 94.205178 209.561303 
L 94.470688 195.951721 
L 94.736199 172.434363 
L 95.00171 131.796368 
L 95.26722 61.573914 
L 95.355724 211.587597 
L 95.444227 208.25396 
L 95.709738 193.692632 
L 95.975248 168.530657 
L 96.240759 125.050763 
L 96.417766 79.640554 
L 96.50627 213.394261 
L 96.594773 210.421957 
L 96.860284 197.43893 
L 97.125794 175.00426 
L 97.391305 136.237151 
L 97.656815 69.247586 
L 97.745319 212.354965 
L 97.833822 209.174801 
L 98.099333 195.283844 
L 98.364844 171.280272 
L 98.630354 129.802099 
L 98.895865 58.127816 
L 98.984368 211.242988 
L 99.072872 207.840428 
L 99.338382 192.978049 
L 99.603893 167.295857 
L 99.869404 122.917031 
L 100.134914 46.230418 
L 100.223418 210.053248 
L 100.311921 206.41274 
L 100.577432 190.511004 
L 100.842942 163.032805 
L 101.108453 115.550475 
L 101.28546 65.960139 
L 101.373964 212.02622 
L 101.462467 208.780307 
L 101.727978 194.602159 
L 101.993488 170.10232 
L 102.258999 127.766599 
L 102.52451 54.721821 
L 102.613013 210.902388 
L 102.701517 207.431709 
L 102.967027 192.271782 
L 103.232538 166.075428 
L 103.498048 120.808128 
L 103.675055 73.581224 
L 103.763559 212.788328 
L 103.852062 209.694837 
L 104.117573 196.182468 
L 104.383084 172.833093 
L 104.648594 132.485374 
L 104.914105 62.821057 
L 105.002608 211.712312 
L 105.091112 208.403617 
L 105.356622 193.951239 
L 105.622133 168.977531 
L 105.887644 125.822962 
L 106.153154 51.251867 
L 106.241658 210.555393 
L 106.330161 207.015314 
L 106.595672 191.552252 
L 106.861182 164.83208 
L 107.126693 118.659624 
L 107.480707 38.873619 
L 107.569211 209.317568 
L 107.657714 205.529925 
L 107.923225 188.985499 
L 108.188735 160.396731 
L 108.454246 110.995339 
L 108.631253 59.400744 
L 108.719757 211.37028 
L 108.80826 207.99318 
L 109.073771 193.242003 
L 109.339281 167.75197 
L 109.604792 123.705194 
L 109.870302 47.592364 
L 109.958806 210.189442 
L 110.047309 206.576174 
L 110.31282 190.793418 
L 110.578331 163.520814 
L 110.843841 116.393756 
L 111.197855 34.9582 
L 111.286359 208.926026 
L 111.374862 205.060074 
L 111.640373 188.173597 
L 111.905884 158.993765 
L 112.171394 108.571015 
L 112.348401 55.91075 
L 112.436905 211.021281 
L 112.525408 207.57438 
L 112.790919 192.518318 
L 113.056429 166.501442 
L 113.32194 121.544282 
L 113.587451 43.859413 
L 113.675954 209.816147 
L 113.764458 206.12822 
L 114.029968 190.019353 
L 114.295479 162.183231 
L 114.560989 114.082412 
L 114.8265 30.974843 
L 114.915004 208.52769 
L 115.003507 204.582071 
L 115.269018 187.347608 
L 115.534528 157.566456 
L 115.800039 106.104626 
L 115.977046 52.360225 
L 116.065549 210.666229 
L 116.154053 207.148317 
L 116.419564 191.782081 
L 116.685074 165.229225 
L 116.950585 119.34589 
L 117.216095 40.060794 
L 117.304599 209.436285 
L 117.393102 205.672386 
L 117.658613 189.231671 
L 117.924124 160.822117 
L 118.189634 111.730407 
L 118.366641 60.466883 
L 118.455145 211.476894 
L 118.543648 208.121116 
L 118.809159 193.463078 
L 119.074669 168.133987 
L 119.34018 124.365319 
L 119.517187 78.677737 
L 119.605691 213.29798 
L 119.694194 210.306419 
L 119.959705 197.239281 
L 120.225215 174.659266 
L 120.490726 135.641 
L 120.756237 68.277446 
L 120.84474 212.257951 
L 120.933244 209.058384 
L 121.198754 195.082676 
L 121.464265 170.932653 
L 121.729775 129.201414 
L 121.995286 57.197465 
L 122.083789 211.149952 
L 122.172293 207.728786 
L 122.437804 192.785131 
L 122.703314 166.962496 
L 122.968825 122.340982 
L 123.234335 75.747727 
L 123.322839 75.747727 
L 123.411342 45.329322 
L 123.499846 209.963138 
L 123.588349 206.304609 
L 123.85386 190.324153 
L 124.119371 162.709926 
L 124.384881 114.992541 
L 124.561888 65.156713 
L 124.650392 211.945877 
L 124.738895 208.683896 
L 125.004406 194.435561 
L 125.269916 169.814438 
L 125.535427 127.269139 
L 125.889441 53.75086 
L 125.977945 210.805292 
L 126.066448 207.315194 
L 126.331959 192.070443 
L 126.597469 165.727515 
L 126.86298 120.206935 
L 127.216994 41.548494 
L 127.305498 209.585055 
L 127.394001 205.85091 
L 127.659512 189.540161 
L 127.925022 161.355187 
L 128.190533 112.651551 
L 128.36754 61.785689 
L 128.456044 211.608775 
L 128.544547 208.279373 
L 128.810058 193.736545 
L 129.075568 168.606539 
L 129.341079 125.181889 
L 129.695093 50.144093 
L 129.783596 210.444615 
L 129.8721 206.882381 
L 130.137611 191.322544 
L 130.403121 164.435145 
L 130.668632 117.97372 
L 130.845639 69.449611 
L 130.934142 212.375167 
L 131.022646 209.199044 
L 131.288156 195.325736 
L 131.553667 171.352661 
L 131.819178 129.927188 
L 132.084688 58.34448 
L 132.173192 211.264654 
L 132.261695 207.866428 
L 132.527206 193.022976 
L 132.792716 167.373492 
L 133.058227 123.051183 
L 133.412241 46.462233 
L 133.500745 210.076429 
L 133.589248 206.440558 
L 133.854759 190.559074 
L 134.120269 163.115868 
L 134.38578 115.694009 
L 134.562787 66.166828 
L 134.651291 212.046889 
L 134.739794 208.80511 
L 135.005305 194.645018 
L 135.270815 170.176381 
L 135.536326 127.894575 
L 135.801836 54.831615 
L 135.89034 210.913367 
L 135.978843 207.444884 
L 136.244354 192.294549 
L 136.509865 166.114769 
L 136.775375 120.87611 
L 137.040886 42.703706 
L 137.129389 209.700577 
L 137.217893 205.989535 
L 137.483403 189.779706 
L 137.748914 161.76912 
L 138.014425 113.366828 
L 138.191432 62.815688 
L 138.279935 211.711775 
L 138.368439 208.402973 
L 138.633949 193.950126 
L 138.89946 168.975607 
L 139.164971 125.819637 
L 139.430481 51.246122 
L 139.518985 210.554818 
L 139.607488 207.014625 
L 139.872999 191.551061 
L 140.138509 164.830022 
L 140.40402 118.656067 
L 140.669531 38.867473 
L 140.758034 209.316953 
L 140.846538 205.529187 
L 141.112048 188.984224 
L 141.377559 160.394528 
L 141.643069 110.991534 
L 141.90858 59.395263 
L 142.882119 59.395263 
L 142.970622 25.623159 
L 143.059126 207.992522 
L 143.147629 203.939869 
L 143.41314 186.237883 
L 143.678651 155.648851 
L 143.944161 102.791004 
L 144.121168 47.5865 
L 144.209672 210.188856 
L 144.298175 206.57547 
L 144.563686 190.792202 
L 144.829196 163.518713 
L 145.094707 116.390126 
L 145.360218 67.169236 
L 145.448721 67.169236 
L 145.537225 34.951926 
L 145.625728 208.925399 
L 145.714232 205.059321 
L 145.979742 188.172296 
L 146.245253 158.991517 
L 146.510763 108.567131 
L 146.687771 55.904123 
L 146.776274 211.020618 
L 146.864778 207.573585 
L 147.130288 192.516944 
L 147.395799 166.499068 
L 147.661309 121.540178 
L 148.015323 43.851217 
L 148.103827 209.815328 
L 148.192331 206.127236 
L 148.457841 190.017653 
L 148.723352 162.180294 
L 148.988862 114.077337 
L 149.254373 63.83882 
L 149.342876 63.83882 
L 149.43138 30.955427 
L 149.519883 208.525749 
L 149.608387 204.579742 
L 149.873898 187.343582 
L 150.139408 157.559499 
L 150.404919 106.092603 
L 150.581926 52.340804 
L 150.670429 210.664286 
L 150.758933 207.145987 
L 151.024443 191.778054 
L 151.289954 165.222266 
L 151.555465 119.333865 
L 151.820975 40.038708 
L 151.909479 209.434077 
L 151.997982 205.669735 
L 152.263493 189.227091 
L 152.529003 160.814203 
L 152.794514 111.716732 
L 153.060025 60.439548 
L 153.414039 60.439548 
L 153.502542 211.474161 
L 153.591046 208.117836 
L 153.856556 193.45741 
L 154.122067 168.124193 
L 154.387578 124.348394 
L 154.653088 48.703814 
L 154.741592 210.300587 
L 154.830095 206.709548 
L 155.095606 191.023888 
L 155.361116 163.919067 
L 155.626627 117.081937 
L 155.892138 68.165444 
L 156.069145 68.165444 
L 156.157648 36.147376 
L 156.246152 209.044944 
L 156.334655 205.202775 
L 156.600166 188.420185 
L 156.865676 159.419869 
L 157.131187 109.307322 
L 157.308194 56.969998 
L 157.396698 211.127206 
L 157.485201 207.70149 
L 157.750712 192.737964 
L 158.016222 166.88099 
L 158.281733 122.20014 
L 158.45874 75.535657 
L 158.547243 212.983772 
L 158.635747 209.929369 
L 158.901258 196.587739 
L 159.166768 173.533402 
L 159.432279 133.695507 
L 159.697789 64.855625 
L 159.786293 211.915768 
L 159.874796 208.647765 
L 160.140307 194.373127 
L 160.405818 169.706553 
L 160.671328 127.082712 
L 160.936839 53.428716 
L 161.025342 210.773078 
L 161.113846 207.276536 
L 161.379356 192.003644 
L 161.644867 165.612085 
L 161.910378 120.007472 
L 162.087385 72.378214 
L 162.175888 212.668027 
L 162.264392 209.550476 
L 162.529902 195.933011 
L 162.795413 172.402033 
L 163.060923 131.740501 
L 163.326434 61.477375 
L 163.414937 211.577944 
L 163.503441 208.242375 
L 163.768952 193.672614 
L 164.034462 168.496065 
L 164.299973 124.990989 
L 164.47698 79.55448 
L 164.565483 213.385654 
L 164.653987 210.411628 
L 164.919497 197.421082 
L 165.185008 174.973418 
L 165.450519 136.183856 
L 165.716029 69.155492 
L 165.804533 212.345755 
L 165.893036 209.163749 
L 166.158547 195.264748 
L 166.424057 171.247273 
L 166.689568 129.745077 
L 166.955079 58.029282 
L 167.043582 211.233134 
L 167.132086 207.828604 
L 167.397596 192.957617 
L 167.663107 167.260551 
L 167.928617 122.856021 
L 168.194128 76.480125 
L 168.282632 76.480125 
L 168.371135 46.124993 
L 168.459639 210.042705 
L 168.548142 206.400089 
L 168.813653 190.489144 
L 169.079163 162.995029 
L 169.344674 115.485199 
L 169.521681 65.866141 
L 169.610185 212.01682 
L 169.698688 208.769027 
L 169.964199 194.582668 
L 170.229709 170.068639 
L 170.49522 127.708398 
L 170.76073 54.5099 
L 170.849234 210.881196 
L 170.937737 207.406278 
L 171.203248 192.227838 
L 171.468759 165.999493 
L 171.734269 120.676912 
L 172.088283 42.359493 
L 172.176787 209.666155 
L 172.26529 205.94823 
L 172.530801 189.70833 
L 172.796312 161.645782 
L 173.061822 113.153701 
L 173.238829 62.508784 
L 173.327333 211.681084 
L 173.415836 208.366144 
L 173.681347 193.886486 
L 173.946857 168.865637 
L 174.212368 125.629611 
L 174.566382 50.917756 
L 174.654886 210.521982 
L 174.743389 206.975221 
L 175.0089 191.482971 
L 175.27441 164.712363 
L 175.539921 118.452751 
L 175.893935 38.516143 
L 175.982439 209.28182 
L 176.070942 205.487028 
L 176.336453 188.911372 
L 176.601963 160.268641 
L 176.867474 110.774 
L 177.132984 59.082015 
L 177.575502 59.082015 
L 177.664006 211.338407 
L 177.752509 207.954932 
L 178.01802 193.175912 
L 178.28353 167.637764 
L 178.549041 123.507845 
L 178.814552 77.418752 
L 179.345573 77.418752 
L 179.434076 47.251345 
L 179.52258 210.155341 
L 179.611083 206.535252 
L 179.876594 190.722704 
L 180.142104 163.398621 
L 180.407615 116.182607 
L 180.673126 66.870408 
L 181.204147 66.870408 
L 181.29265 212.117247 
L 181.381154 208.889539 
L 181.646664 194.790913 
L 181.912175 170.428486 
L 182.177686 128.330213 
L 182.443196 55.584398 
L 182.5317 210.988646 
L 182.620203 207.535218 
L 182.885714 192.450646 
L 183.151224 166.384505 
L 183.416735 121.342213 
L 183.593742 74.300241 
L 183.682246 212.86023 
L 183.770749 209.781119 
L 184.03626 196.331563 
L 184.30177 173.09073 
L 184.567281 132.93057 
L 184.832792 63.533814 
L 184.921295 211.783587 
L 185.009799 208.489148 
L 185.275309 194.099037 
L 185.54082 169.232924 
L 185.80633 126.264282 
L 186.071841 81.388021 
L 186.602862 81.388021 
L 186.691366 213.569008 
L 186.779869 210.631653 
L 187.04538 197.801285 
L 187.31089 175.630409 
L 187.576401 137.319137 
L 187.841912 71.117257 
L 187.930415 212.541932 
L 188.018919 209.399161 
L 188.284429 195.671539 
L 188.54994 171.950209 
L 188.81545 130.95975 
L 189.169464 60.128237 
L 189.257968 211.44303 
L 189.346472 208.080479 
L 189.611982 193.392856 
L 189.877493 168.012644 
L 190.143003 124.155638 
L 190.408514 78.351574 
L 193.506137 78.351574 
L 193.594641 213.265363 
L 193.683144 210.267279 
L 193.948655 197.171647 
L 194.214166 174.542396 
L 194.479676 135.439049 
L 194.745187 67.868465 
L 194.83369 212.217052 
L 194.922194 209.009306 
L 195.187704 194.99787 
L 195.453215 170.786108 
L 195.718726 128.948184 
L 195.984236 85.252839 
L 196.426754 85.252839 
L 196.515257 56.65225 
L 196.603761 211.095431 
L 196.692264 207.66336 
L 196.957775 192.672076 
L 197.223286 166.767136 
L 197.488796 122.003399 
L 197.665803 75.25235 
L 197.754307 212.955441 
L 197.84281 209.895372 
L 198.108321 196.528992 
L 198.373831 173.431887 
L 198.639342 133.52009 
L 198.904853 64.552505 
L 198.993356 211.885457 
L 199.08186 208.611391 
L 199.34737 194.310272 
L 199.612881 169.59794 
L 199.878391 126.895029 
L 200.055399 82.296296 
L 200.143902 213.659836 
L 200.232406 210.740646 
L 200.497916 197.989625 
L 200.763427 175.955861 
L 201.028937 137.881517 
L 201.294448 72.08905 
L 201.382951 212.639111 
L 201.471455 209.515776 
L 201.736966 195.87305 
L 202.002476 172.29842 
L 202.267987 131.561458 
L 202.622001 61.167989 
L 202.710504 211.547005 
L 202.799008 208.205249 
L 203.064519 193.608459 
L 203.330029 168.385206 
L 203.59554 124.799426 
L 203.772547 79.278628 
L 203.86105 213.358069 
L 203.949554 210.378526 
L 204.215064 197.363881 
L 204.480575 174.874576 
L 204.746086 136.013056 
L 205.011596 68.860349 
L 205.1001 212.316241 
L 205.188603 209.128332 
L 205.454114 195.203547 
L 205.719624 171.141518 
L 205.985135 129.562332 
L 206.250646 86.137213 
L 206.427653 86.137213 
L 206.516156 57.713499 
L 206.60466 211.201556 
L 206.693163 207.79071 
L 206.958674 192.892136 
L 207.224184 167.1474 
L 207.489695 122.660496 
L 207.666702 76.19857 
L 207.755206 213.050063 
L 207.843709 210.008919 
L 208.10922 196.7252 
L 208.37473 173.770935 
L 208.640241 134.105965 
L 208.905751 65.564896 
L 208.994255 211.986696 
L 209.082758 208.732878 
L 209.348269 194.520202 
L 209.61378 169.960698 
L 209.87929 127.521875 
L 210.233304 54.187588 
L 210.321808 210.848965 
L 210.410311 207.367601 
L 210.675822 192.161003 
L 210.941333 165.884003 
L 211.206843 120.477345 
L 211.38385 73.054832 
L 211.472354 212.735689 
L 211.560857 209.63167 
L 211.826368 196.073315 
L 212.091878 172.644477 
L 212.357389 132.159446 
L 212.711403 62.201311 
L 212.799907 211.650337 
L 212.88841 208.329248 
L 213.153921 193.822729 
L 213.419431 168.755464 
L 213.684942 125.439231 
L 213.861949 80.199948 
L 213.950453 213.450201 
L 214.038956 210.489084 
L 214.304467 197.554926 
L 214.569977 175.204701 
L 214.835488 136.583513 
L 215.100998 69.846099 
L 215.189502 212.414816 
L 215.278006 209.246622 
L 215.543516 195.407952 
L 215.809027 171.49473 
L 216.074537 130.172683 
L 216.251544 87.016118 
L 216.340048 214.131818 
L 216.428551 211.307024 
L 216.694062 198.968327 
L 216.959573 177.647058 
L 217.225083 140.803906 
L 217.490594 77.138938 
L 217.579097 213.1441 
L 217.667601 210.121763 
L 217.933111 196.920195 
L 218.198622 174.107886 
L 218.464133 134.688216 
L 218.729643 66.571027 
L 218.818147 212.087309 
L 218.90665 208.853613 
L 219.172161 194.728833 
L 219.437671 170.321212 
L 219.703182 128.144844 
L 220.057196 55.264079 
L 220.1457 210.956614 
L 220.234203 207.49678 
L 220.499714 192.384224 
L 220.765224 166.269729 
L 221.030735 121.14388 
L 221.207742 74.014642 
L 221.296245 212.83167 
L 221.384749 209.746847 
L 221.65026 196.272341 
L 221.91577 172.988395 
L 222.181281 132.753735 
L 222.446791 63.228243 
L 222.535295 211.75303 
L 222.623798 208.452479 
L 222.889309 194.035673 
L 223.15482 169.123433 
L 223.42033 126.07508 
L 223.597337 81.115571 
L 223.685841 213.541763 
L 223.774344 210.598959 
L 224.039855 197.74479 
L 224.305365 175.532786 
L 224.570876 137.150442 
L 224.836387 70.825753 
L 224.92489 212.512781 
L 225.013394 209.364181 
L 225.278904 195.611093 
L 225.544415 171.845758 
L 225.809925 130.779259 
L 225.986933 87.889587 
L 226.075436 214.219165 
L 226.16394 211.411841 
L 226.42945 199.14945 
L 226.694961 177.960038 
L 226.960471 141.344735 
L 227.225982 78.073491 
L 227.314485 213.237555 
L 227.402989 210.233909 
L 227.6685 197.113984 
L 227.93401 174.442753 
L 228.199521 135.266867 
L 228.465031 67.570935 
L 228.553535 212.187299 
L 228.642038 208.973602 
L 228.907549 194.936174 
L 229.17306 170.679498 
L 229.43857 128.763961 
L 229.615577 84.987558 
L 229.704081 213.928962 
L 229.792584 211.063597 
L 230.058095 198.547685 
L 230.323605 176.920189 
L 230.589116 139.547875 
L 230.854627 74.968517 
L 230.94313 212.927058 
L 231.031634 209.861312 
L 231.297144 196.470137 
L 231.562655 173.330185 
L 231.828165 133.344349 
L 232.093676 64.248823 
L 232.18218 211.855088 
L 232.270683 208.574949 
L 232.536194 194.247301 
L 232.801704 169.489125 
L 233.067215 126.706997 
L 233.244222 82.025531 
L 233.332725 213.632759 
L 233.421229 210.708154 
L 233.68674 197.933479 
L 233.95225 175.858841 
L 234.217761 137.713866 
L 234.483271 71.799349 
L 234.571775 212.610141 
L 234.660278 209.481012 
L 234.925789 195.812978 
L 235.1913 172.194615 
L 235.45681 131.382083 
L 235.633817 88.757655 
L 235.722321 214.305971 
L 235.810824 211.516009 
L 236.076335 199.329452 
L 236.341845 178.271082 
L 236.607356 141.882219 
L 236.872867 79.002264 
L 236.96137 213.330432 
L 237.049874 210.345362 
L 237.315384 197.306574 
L 237.580895 174.77555 
L 237.846405 135.841939 
L 238.20042 68.564659 
L 238.288923 212.286672 
L 238.377427 209.092849 
L 238.642937 195.142233 
L 238.908448 171.035567 
L 239.173958 129.379248 
L 239.350965 85.873573 
L 239.439469 214.017563 
L 239.527972 211.169919 
L 239.793483 198.731409 
L 240.058994 177.237664 
L 240.324504 140.096472 
L 240.590015 75.916492 
L 240.678518 213.021855 
L 240.767022 209.975069 
L 241.032532 196.666709 
L 241.298043 173.669862 
L 241.563554 133.93131 
L 241.829064 65.263093 
L 241.917568 211.956515 
L 242.006071 208.696661 
L 242.271582 194.45762 
L 242.537092 169.852556 
L 242.802603 127.335006 
L 243.068114 82.929863 
L 243.156617 82.929863 
L 243.245121 53.864679 
L 243.333624 210.816674 
L 243.422128 207.328852 
L 243.687638 192.094045 
L 243.953149 165.768298 
L 244.21866 120.277408 
L 244.395667 72.766923 
L 244.48417 212.706898 
L 244.572674 209.597121 
L 244.838184 196.013614 
L 245.103695 172.541314 
L 245.369205 131.98118 
L 245.634716 89.620354 
L 245.811723 89.620354 
L 245.900227 61.893268 
L 245.98873 211.619533 
L 246.077234 208.292282 
L 246.342744 193.758853 
L 246.608255 168.645087 
L 246.873765 125.248499 
L 247.050772 79.925293 
L 247.139276 213.422735 
L 247.227779 210.456126 
L 247.49329 197.497974 
L 247.758801 175.106288 
L 248.024311 136.413454 
L 248.289822 69.552237 
L 248.378325 212.38543 
L 248.466829 209.211359 
L 248.732339 195.347017 
L 248.99785 171.389434 
L 249.263361 129.990731 
L 249.528871 86.754108 
L 249.617375 86.754108 
L 249.705878 58.453773 
L 249.794382 211.275583 
L 249.882885 207.879543 
L 250.148396 193.045639 
L 250.413907 167.412654 
L 250.679417 123.118854 
L 250.856424 76.858605 
L 250.944928 213.116066 
L 251.033431 210.088123 
L 251.298942 196.862065 
L 251.564452 174.007438 
L 251.829963 134.514641 
L 252.095474 66.271089 
L 252.183977 212.057315 
L 252.272481 208.817621 
L 252.537991 194.666638 
L 252.803502 170.213739 
L 253.069012 127.959131 
L 253.334523 54.943167 
L 253.423027 210.924523 
L 253.51153 207.45827 
L 253.777041 192.31768 
L 254.042551 166.15474 
L 254.308062 120.94518 
L 254.485069 73.728514 
L 254.573572 212.803057 
L 254.662076 209.712512 
L 254.927587 196.21301 
L 255.193097 172.885869 
L 255.458608 132.576571 
L 255.812622 62.922104 
L 255.901125 211.722416 
L 255.989629 208.415743 
L 256.255139 193.972193 
L 256.52065 169.013738 
L 256.786161 125.885528 
L 256.963168 80.842614 
L 257.051671 213.514467 
L 257.140175 210.566204 
L 257.405685 197.68819 
L 257.671196 175.43498 
L 257.936707 136.981435 
L 258.202217 70.533709 
L 258.290721 212.483577 
L 258.379224 209.329135 
L 258.644735 195.550535 
L 258.910245 171.741113 
L 259.175756 130.598432 
L 259.52977 59.50388 
L 259.618274 211.380594 
L 259.706777 208.005556 
L 259.972288 193.26339 
L 260.237798 167.788926 
L 260.503309 123.769053 
L 260.768819 77.794891 
L 260.857323 77.794891 
L 260.945826 47.702713 
L 261.03433 210.200477 
L 261.122834 206.589416 
L 261.388344 190.8163 
L 261.653855 163.560354 
L 261.919365 116.462081 
L 262.096372 67.272852 
L 262.184876 212.157491 
L 262.273379 208.937833 
L 262.53889 194.874364 
L 262.804401 170.572689 
L 263.069911 128.579396 
L 263.335422 56.014985 
L 263.423925 211.031705 
L 263.512429 207.586889 
L 263.777939 192.539932 
L 264.04345 166.538792 
L 264.308961 121.608821 
L 264.485968 74.684158 
L 264.574471 212.898622 
L 264.662975 209.827189 
L 264.928485 196.411172 
L 265.193996 173.228294 
L 265.459506 133.168281 
L 265.725017 63.944578 
L 265.813521 211.824664 
L 265.902024 208.53844 
L 266.167535 194.184213 
L 266.433045 169.380109 
L 266.698556 126.518616 
L 266.964066 81.754263 
L 267.141074 81.754263 
L 267.229577 52.453958 
L 267.318081 210.675602 
L 267.406584 207.159565 
L 267.672095 191.801518 
L 267.937605 165.262812 
L 268.203116 119.403927 
L 268.380123 71.50911 
L 268.468626 212.581117 
L 268.55713 209.446184 
L 268.822641 195.752794 
L 269.088151 172.090617 
L 269.353662 131.202375 
L 269.619172 60.547493 
L 269.707676 211.484955 
L 269.796179 208.13079 
L 270.06169 193.479793 
L 270.327201 168.162872 
L 270.592711 124.415231 
L 270.858222 78.725388 
L 270.946725 78.725388 
L 271.035229 48.819308 
L 271.123732 210.312137 
L 271.212236 206.723407 
L 271.477746 191.047837 
L 271.743257 163.960451 
L 272.008768 117.153448 
L 272.185775 68.26842 
L 272.274278 212.257048 
L 272.362782 209.057301 
L 272.628292 195.080805 
L 272.893803 170.929419 
L 273.159314 129.195825 
L 273.424824 57.080175 
L 273.513328 211.138223 
L 273.601831 207.714711 
L 273.867342 192.76081 
L 274.132852 166.920469 
L 274.398363 122.268359 
L 274.57537 75.633891 
L 274.663874 212.993595 
L 274.752377 209.941157 
L 275.017888 196.608109 
L 275.283398 173.568601 
L 275.548909 133.756331 
L 275.814419 64.960729 
L 275.902923 211.926279 
L 275.991426 208.660378 
L 276.256937 194.394922 
L 276.522448 169.744214 
L 276.787958 127.14779 
L 276.964965 82.660273 
L 277.053469 213.696233 
L 277.141972 210.784323 
L 277.407483 198.065099 
L 277.672993 176.08628 
L 277.938504 138.106881 
L 278.204015 72.47848 
L 278.292518 212.678054 
L 278.381022 209.562508 
L 278.646532 195.953803 
L 278.912043 172.43796 
L 279.177553 131.802583 
L 279.443064 61.584653 
L 279.531568 211.588671 
L 279.620071 208.255249 
L 279.885582 193.694859 
L 280.151092 168.534505 
L 280.416603 125.057413 
L 280.59361 79.650129 
L 280.682113 213.395219 
L 280.770617 210.423106 
L 281.036128 197.440916 
L 281.301638 175.007691 
L 281.567149 136.24308 
L 281.832659 69.257831 
L 281.921163 212.355989 
L 282.009666 209.17603 
L 282.275177 195.285969 
L 282.540688 171.283943 
L 282.806198 129.808442 
L 283.071709 58.138777 
L 283.160212 211.244084 
L 283.248716 207.841744 
L 283.514226 192.980322 
L 283.779737 167.299785 
L 284.045248 122.923817 
L 284.310758 46.242145 
L 284.399262 210.054421 
L 284.487765 206.414148 
L 284.753276 190.513436 
L 285.018786 163.037007 
L 285.284297 115.557737 
L 285.461304 65.970596 
L 285.549808 212.027266 
L 285.638311 208.781562 
L 285.903822 194.604328 
L 286.169332 170.106067 
L 286.434843 127.773073 
L 286.700353 83.56068 
L 286.877361 83.56068 
L 286.965864 54.621659 
L 287.054368 210.892372 
L 287.142871 207.419689 
L 287.408382 192.251012 
L 287.673892 166.039538 
L 287.939403 120.746111 
L 288.11641 73.441854 
L 288.204913 212.774391 
L 288.293417 209.678113 
L 288.558928 196.153568 
L 288.824438 172.783154 
L 289.089949 132.399079 
L 289.355459 62.615398 
L 289.443963 211.691746 
L 289.532466 208.378938 
L 289.797977 193.908594 
L 290.063488 168.903839 
L 290.328998 125.695623 
L 290.506005 80.569152 
L 290.594509 213.487121 
L 290.683012 210.533389 
L 290.948523 197.631484 
L 291.214033 175.336994 
L 291.479544 136.812114 
L 291.745055 70.241123 
L 291.833558 212.454318 
L 291.922062 209.294025 
L 292.187572 195.489864 
L 292.453083 171.636274 
L 292.718593 130.417271 
L 292.984104 59.190833 
L 293.072608 211.349289 
L 293.161111 207.96799 
L 293.426622 193.198476 
L 293.692132 167.676756 
L 293.957643 123.575223 
L 294.311657 47.367773 
L 294.40016 210.166983 
L 294.488664 206.549223 
L 294.754175 190.746846 
L 295.019685 163.44034 
L 295.285196 116.254696 
L 295.462203 66.974217 
L 295.550706 212.127628 
L 295.63921 208.901996 
L 295.90472 194.812439 
L 296.170231 170.465683 
L 296.435742 128.394489 
L 296.789756 55.695466 
L 296.878259 210.999753 
L 296.966763 207.548546 
L 297.232273 192.473677 
L 297.497784 166.424302 
L 297.763295 121.410983 
L 297.940302 74.399271 
L 298.028805 212.870133 
L 298.117309 209.793003 
L 298.382819 196.352098 
L 298.64833 173.126214 
L 298.91384 132.991887 
L 299.179351 63.639769 
L 299.267855 211.794183 
L 299.356358 208.501863 
L 299.621869 194.121007 
L 299.887379 169.27089 
L 300.15289 126.329886 
L 300.329897 81.482491 
L 300.4184 213.578455 
L 300.506904 210.642989 
L 300.772415 197.820874 
L 301.037925 175.66426 
L 301.303436 137.37763 
L 301.568946 71.218334 
L 301.65745 212.552039 
L 301.745953 209.41129 
L 302.011464 195.692499 
L 302.276975 171.986427 
L 302.542485 131.022334 
L 302.807996 60.236382 
L 302.896499 211.453844 
L 302.985003 208.093456 
L 303.250513 193.415281 
L 303.516024 168.051395 
L 303.781535 124.222599 
L 304.135549 48.48644 
L 304.224052 210.27885 
L 304.312556 206.683463 
L 304.578066 190.978813 
L 304.843577 163.841178 
L 305.109087 116.947345 
L 305.286095 67.971631 
L 305.374598 212.227369 
L 305.463102 209.021686 
L 305.728612 195.019262 
L 305.994123 170.823074 
L 306.259633 129.012062 
L 306.525144 56.762631 
L 306.613647 211.106469 
L 306.702151 207.676606 
L 306.967662 192.694964 
L 307.233172 166.806687 
L 307.498683 122.071744 
L 307.67569 75.350767 
L 307.764193 212.965283 
L 307.852697 209.907182 
L 308.118207 196.5494 
L 308.383718 173.467152 
L 308.649229 133.581028 
L 308.914739 64.657805 
L 309.003243 211.895986 
L 309.091746 208.624027 
L 309.357257 194.332107 
L 309.622767 169.63567 
L 309.888278 126.960227 
L 310.065285 82.390182 
L 310.153789 213.669224 
L 310.242292 210.751912 
L 310.507803 198.009093 
L 310.773313 175.989502 
L 311.038824 137.939648 
L 311.304335 72.189501 
L 311.392838 212.649156 
L 311.481342 209.52783 
L 311.746852 195.89388 
L 312.012363 172.334413 
L 312.277873 131.623655 
L 312.543384 61.275465 
L 312.631887 211.557753 
L 312.720391 208.218146 
L 312.985902 193.630745 
L 313.251412 168.423717 
L 313.516923 124.865972 
L 313.782433 49.598189 
L 313.870937 210.390025 
L 313.95944 206.816873 
L 314.224951 191.209345 
L 314.490462 164.239538 
L 314.755972 117.63571 
L 314.932979 68.962878 
L 315.021483 212.326494 
L 315.109986 209.140636 
L 315.375497 195.224807 
L 315.641007 171.178256 
L 315.906518 129.625815 
L 316.172029 57.823197 
L 316.260532 211.212526 
L 316.349036 207.803874 
L 316.614546 192.914883 
L 316.880057 167.186707 
L 317.145567 122.728419 
L 317.322574 76.296378 
L 317.411078 213.059844 
L 317.499582 210.020656 
L 317.765092 196.745482 
L 318.030603 173.805982 
L 318.296113 134.166525 
L 318.561624 65.669544 
L 318.650127 211.99716 
L 318.738631 208.745436 
L 319.004142 194.541902 
L 319.269652 169.998195 
L 319.535163 127.58667 
L 319.800673 83.29226 
L 319.889177 83.29226 
L 319.97768 54.299555 
L 320.066184 210.860161 
L 320.154687 207.381037 
L 320.420198 192.184221 
L 320.685709 165.924122 
L 320.951219 120.546672 
L 321.128226 73.154663 
L 321.21673 212.745672 
L 321.305233 209.64365 
L 321.570744 196.094016 
L 321.836254 172.680248 
L 322.101765 132.221258 
L 322.367276 62.308123 
L 322.455779 211.661018 
L 322.544283 208.342065 
L 322.809793 193.844877 
L 323.075304 168.793737 
L 323.340814 125.505366 
L 323.694829 50.703062 
L 323.783332 210.500512 
L 323.871836 206.949458 
L 324.137346 191.438452 
L 324.402857 164.635434 
L 324.668367 118.319819 
L 324.845374 69.947994 
L 324.933878 212.425005 
L 325.022382 209.25885 
L 325.287892 195.429081 
L 325.553403 171.531241 
L 325.818913 130.235773 
L 326.084424 58.877205 
L 326.172927 211.317926 
L 326.261431 207.930355 
L 326.526942 193.133442 
L 326.792452 167.564377 
L 327.057963 123.381032 
L 327.23497 77.236141 
L 327.323473 213.15382 
L 327.411977 210.133427 
L 327.677487 196.940351 
L 327.942998 174.142716 
L 328.208509 134.748402 
L 328.474019 66.675027 
L 328.562523 212.097709 
L 328.651026 208.866094 
L 328.916537 194.750399 
L 329.182047 170.358478 
L 329.447558 128.209239 
L 329.713069 84.188759 
L 329.801572 84.188759 
L 329.890076 55.375353 
L 329.978579 210.967741 
L 330.067083 207.510133 
L 330.332593 192.407298 
L 330.598104 166.3096 
L 330.863614 121.212778 
L 331.040621 74.113856 
L 331.129125 212.841592 
L 331.217629 209.758753 
L 331.483139 196.292914 
L 331.74865 173.023944 
L 332.01416 132.815165 
L 332.279671 63.334394 
L 332.368174 211.763645 
L 332.456678 208.465218 
L 332.722189 194.057685 
L 332.987699 169.161468 
L 333.25321 126.140806 
L 333.51872 81.210216 
L 333.607224 81.210216 
L 333.695727 51.801102 
L 333.784231 210.610316 
L 333.872734 207.081223 
L 334.138245 191.666142 
L 334.403756 165.028882 
L 334.669266 118.999696 
L 334.846273 70.927017 
L 334.934777 212.522908 
L 335.02328 209.376332 
L 335.288791 195.632091 
L 335.554301 171.882043 
L 335.819812 130.841959 
L 336.085323 59.924694 
L 336.173826 211.422675 
L 336.26233 208.056054 
L 336.52784 193.350649 
L 336.793351 167.939711 
L 337.058861 124.02961 
L 337.235869 78.170093 
L 337.324372 213.247215 
L 337.412876 210.245501 
L 337.678386 197.134015 
L 337.943897 174.477368 
L 338.209407 135.32668 
L 338.474918 67.674292 
L 338.563421 212.197635 
L 338.651925 208.986005 
L 338.917436 194.957606 
L 339.182946 170.716533 
L 339.448457 128.827957 
L 339.713967 85.079713 
L 339.802471 85.079713 
L 339.890974 56.444499 
L 339.979478 211.074656 
L 340.067981 207.63843 
L 340.333492 192.628996 
L 340.599003 166.692694 
L 340.864513 121.874765 
L 341.04152 75.067116 
L 341.130024 212.936918 
L 341.218527 209.873144 
L 341.484038 196.490582 
L 341.749549 173.365515 
L 342.015059 133.405399 
L 342.28057 64.354318 
L 342.369073 211.865638 
L 342.457577 208.587608 
L 342.723087 194.269176 
L 342.988598 169.526926 
L 343.254109 126.772317 
L 343.608123 52.892352 
L 343.696626 210.719441 
L 343.78513 207.212173 
L 344.05064 191.892423 
L 344.316151 165.419896 
L 344.581661 119.675369 
L 344.758668 71.899987 
L 344.847172 212.620205 
L 344.935676 209.493089 
L 345.201186 195.833846 
L 345.466697 172.230675 
L 345.732207 131.444396 
L 345.997718 60.965705 
L 346.086221 211.526776 
L 346.174725 208.180975 
L 346.440236 193.566513 
L 346.705746 168.312724 
L 346.971257 124.674176 
L 347.148264 79.098269 
L 347.236767 213.340033 
L 347.325271 210.356883 
L 347.590781 197.326482 
L 347.856292 174.80995 
L 348.121803 135.901382 
L 348.387313 68.667377 
L 348.475817 212.296944 
L 348.56432 209.105176 
L 348.829831 195.163532 
L 349.095341 171.072373 
L 349.360852 129.442849 
L 349.626363 85.965158 
L 350.422894 85.965158 
L 350.511398 57.507032 
L 350.599901 211.180909 
L 350.688405 207.765934 
L 350.953916 192.849323 
L 351.219426 167.073419 
L 351.484937 122.532658 
L 351.661944 76.014482 
L 351.750447 213.031654 
L 351.838951 209.986828 
L 352.104461 196.687028 
L 352.369972 173.704973 
L 352.635483 133.991983 
L 352.900993 65.367935 
L 352.989497 211.966999 
L 353.078 208.709243 
L 353.343511 194.47936 
L 353.609021 169.890123 
L 353.874532 127.399921 
L 354.140043 83.023342 
L 356.529638 83.023342 
L 356.618141 213.73254 
L 356.706645 210.827891 
L 356.972156 198.140385 
L 357.149163 184.889609 
L 357.149163 184.889609 
" clip-path="url(#pe379d1a9b4)" style="fill: none; stroke: #1f77b4; stroke-width: 1.5; stroke-linecap: square"/>
   </g>
   <g id="patch_3">
    <path d="M 37.567344 228.96 
L 37.567344 7.2 
" style="fill: none; stroke: #000000; stroke-width: 0.8; stroke-linejoin: miter; stroke-linecap: square"/>
   </g>
   <g id="patch_4">
    <path d="M 372.367344 228.96 
L 372.367344 7.2 
" style="fill: none; stroke: #000000; stroke-width: 0.8; stroke-linejoin: miter; stroke-linecap: square"/>
   </g>
   <g id="patch_5">
    <path d="M 37.567344 228.96 
L 372.367344 228.96 
" style="fill: none; stroke: #000000; stroke-width: 0.8; stroke-linejoin: miter; stroke-linecap: square"/>
   </g>
   <g id="patch_6">
    <path d="M 37.567344 7.2 
L 372.367344 7.2 
" style="fill: none; stroke: #000000; stroke-width: 0.8; stroke-linejoin: miter; stroke-linecap: square"/>
   </g>
   <g id="legend_1">
    <g id="patch_7">
     <path d="M 314.548024 29.420307 
L 365.367344 29.420307 
Q 367.367344 29.420307 367.367344 27.420307 
L 367.367344 14.2 
Q 367.367344 12.2 365.367344 12.2 
L 314.548024 12.2 
Q 312.548024 12.2 312.548024 14.2 
L 312.548024 27.420307 
Q 312.548024 29.420307 314.548024 29.420307 
z
" style="fill: #ffffff; opacity: 0.8; stroke: #cccccc; stroke-linejoin: miter"/>
    </g>
    <g id="line2d_17">
     <path d="M 316.548024 19.79832 
L 326.548024 19.79832 
L 336.548024 19.79832 
" style="fill: none; stroke: #1f77b4; stroke-width: 1.5; stroke-linecap: square"/>
    </g>
    <g id="text_18">
     <!-- CFL -->
     <g transform="translate(344.548024 23.29832) scale(0.1 -0.1)">
      <use xlink:href="#NimbusSanL-Regu-43" transform="scale(0.996264)"/>
      <use xlink:href="#NimbusSanL-Regu-46" transform="translate(71.929985 0) scale(0.996264)"/>
      <use xlink:href="#NimbusSanL-Regu-4c" transform="translate(132.801616 0) scale(0.996264)"/>
     </g>
    </g>
   </g>
  </g>
 </g>
 <defs>
  <clipPath id="pe379d1a9b4">
   <rect x="37.567344" y="7.2" width="334.8" height="221.76"/>
  </clipPath>
 </defs>
</svg>
