<?xml version="1.0" encoding="utf-8" standalone="no"?>
<!DOCTYPE svg PUBLIC "-//W3C//DTD SVG 1.1//EN"
  "http://www.w3.org/Graphics/SVG/1.1/DTD/svg11.dtd">
<svg xmlns:xlink="http://www.w3.org/1999/xlink" width="382.334753pt" height="265.600613pt" viewBox="0 0 382.334753 265.600613" xmlns="http://www.w3.org/2000/svg" version="1.1">
 <metadata>
  <rdf:RDF xmlns:dc="http://purl.org/dc/elements/1.1/" xmlns:cc="http://creativecommons.org/ns#" xmlns:rdf="http://www.w3.org/1999/02/22-rdf-syntax-ns#">
   <cc:Work>
    <dc:type rdf:resource="http://purl.org/dc/dcmitype/StillImage"/>
    <dc:date>2025-07-17T19:33:01.693530</dc:date>
    <dc:format>image/svg+xml</dc:format>
    <dc:creator>
     <cc:Agent>
      <dc:title>Matplotlib v3.10.3, https://matplotlib.org/</dc:title>
     </cc:Agent>
    </dc:creator>
   </cc:Work>
  </rdf:RDF>
 </metadata>
 <defs>
  <style type="text/css">*{stroke-linejoin: round; stroke-linecap: butt}</style>
 </defs>
 <g id="figure_1">
  <g id="patch_1">
   <path d="M 0 265.600613 
L 382.334753 265.600613 
L 382.334753 0 
L 0 0 
z
" style="fill: #ffffff"/>
  </g>
  <g id="axes_1">
   <g id="patch_2">
    <path d="M 40.334753 228.96 
L 375.134753 228.96 
L 375.134753 7.2 
L 40.334753 7.2 
z
" style="fill: #ffffff"/>
   </g>
   <g id="matplotlib.axis_1">
    <g id="xtick_1">
     <g id="line2d_1">
      <defs>
       <path id="m2b68b676e4" d="M 0 0 
L 0 3.5 
" style="stroke: #000000; stroke-width: 0.8"/>
      </defs>
      <g>
       <use xlink:href="#m2b68b676e4" x="55.552935" y="228.96" style="stroke: #000000; stroke-width: 0.8"/>
      </g>
     </g>
     <g id="text_1">
      <!-- $\mathdefault{0}$ -->
      <g transform="translate(53.062267 243.05832) scale(0.1 -0.1)">
       <defs>
        <path id="CMR17-30" d="M 2688 2038 
C 2688 2430 2682 3099 2413 3613 
C 2176 4063 1798 4224 1466 4224 
C 1158 4224 768 4082 525 3620 
C 269 3137 243 2539 243 2038 
C 243 1671 250 1112 448 623 
C 723 -39 1216 -128 1466 -128 
C 1760 -128 2208 -7 2470 604 
C 2662 1048 2688 1568 2688 2038 
z
M 1466 -26 
C 1056 -26 813 328 723 816 
C 653 1196 653 1749 653 2109 
C 653 2604 653 3015 736 3407 
C 858 3954 1216 4121 1466 4121 
C 1728 4121 2067 3947 2189 3420 
C 2272 3054 2278 2623 2278 2109 
C 2278 1691 2278 1176 2202 797 
C 2067 96 1690 -26 1466 -26 
z
" transform="scale(0.015625)"/>
       </defs>
       <use xlink:href="#CMR17-30" transform="scale(0.996264)"/>
      </g>
     </g>
    </g>
    <g id="xtick_2">
     <g id="line2d_2">
      <g>
       <use xlink:href="#m2b68b676e4" x="97.919811" y="228.96" style="stroke: #000000; stroke-width: 0.8"/>
      </g>
     </g>
     <g id="text_2">
      <!-- $\mathdefault{500}$ -->
      <g transform="translate(90.447808 243.05832) scale(0.1 -0.1)">
       <defs>
        <path id="CMR17-35" d="M 730 3750 
C 794 3724 1056 3641 1325 3641 
C 1920 3641 2246 3961 2432 4140 
C 2432 4191 2432 4224 2394 4224 
C 2387 4224 2374 4224 2323 4198 
C 2099 4102 1837 4032 1517 4032 
C 1325 4032 1037 4055 723 4191 
C 653 4224 640 4224 634 4224 
C 602 4224 595 4217 595 4090 
L 595 2231 
C 595 2113 595 2080 659 2080 
C 691 2080 704 2093 736 2139 
C 941 2435 1222 2560 1542 2560 
C 1766 2560 2246 2415 2246 1293 
C 2246 1087 2246 716 2054 422 
C 1894 159 1645 25 1370 25 
C 947 25 518 319 403 812 
C 429 806 480 793 506 793 
C 589 793 749 838 749 1036 
C 749 1209 627 1280 506 1280 
C 358 1280 262 1190 262 1011 
C 262 454 704 -128 1382 -128 
C 2042 -128 2669 441 2669 1267 
C 2669 2054 2170 2662 1549 2662 
C 1222 2662 947 2540 730 2304 
L 730 3750 
z
" transform="scale(0.015625)"/>
       </defs>
       <use xlink:href="#CMR17-35" transform="scale(0.996264)"/>
       <use xlink:href="#CMR17-30" transform="translate(45.690477 0) scale(0.996264)"/>
       <use xlink:href="#CMR17-30" transform="translate(91.380954 0) scale(0.996264)"/>
      </g>
     </g>
    </g>
    <g id="xtick_3">
     <g id="line2d_3">
      <g>
       <use xlink:href="#m2b68b676e4" x="140.286686" y="228.96" style="stroke: #000000; stroke-width: 0.8"/>
      </g>
     </g>
     <g id="text_3">
      <!-- $\mathdefault{1000}$ -->
      <g transform="translate(130.324016 243.05832) scale(0.1 -0.1)">
       <defs>
        <path id="CMR17-31" d="M 1702 4083 
C 1702 4217 1696 4224 1606 4224 
C 1357 3927 979 3833 621 3820 
C 602 3820 570 3820 563 3808 
C 557 3795 557 3782 557 3648 
C 755 3648 1088 3686 1344 3839 
L 1344 467 
C 1344 243 1331 166 781 166 
L 589 166 
L 589 0 
C 896 6 1216 12 1523 12 
C 1830 12 2150 6 2458 0 
L 2458 166 
L 2266 166 
C 1715 166 1702 236 1702 467 
L 1702 4083 
z
" transform="scale(0.015625)"/>
       </defs>
       <use xlink:href="#CMR17-31" transform="scale(0.996264)"/>
       <use xlink:href="#CMR17-30" transform="translate(45.690477 0) scale(0.996264)"/>
       <use xlink:href="#CMR17-30" transform="translate(91.380954 0) scale(0.996264)"/>
       <use xlink:href="#CMR17-30" transform="translate(137.071431 0) scale(0.996264)"/>
      </g>
     </g>
    </g>
    <g id="xtick_4">
     <g id="line2d_4">
      <g>
       <use xlink:href="#m2b68b676e4" x="182.653562" y="228.96" style="stroke: #000000; stroke-width: 0.8"/>
      </g>
     </g>
     <g id="text_4">
      <!-- $\mathdefault{1500}$ -->
      <g transform="translate(172.690892 243.05832) scale(0.1 -0.1)">
       <use xlink:href="#CMR17-31" transform="scale(0.996264)"/>
       <use xlink:href="#CMR17-35" transform="translate(45.690477 0) scale(0.996264)"/>
       <use xlink:href="#CMR17-30" transform="translate(91.380954 0) scale(0.996264)"/>
       <use xlink:href="#CMR17-30" transform="translate(137.071431 0) scale(0.996264)"/>
      </g>
     </g>
    </g>
    <g id="xtick_5">
     <g id="line2d_5">
      <g>
       <use xlink:href="#m2b68b676e4" x="225.020438" y="228.96" style="stroke: #000000; stroke-width: 0.8"/>
      </g>
     </g>
     <g id="text_5">
      <!-- $\mathdefault{2000}$ -->
      <g transform="translate(215.057768 243.05832) scale(0.1 -0.1)">
       <defs>
        <path id="CMR17-32" d="M 2669 990 
L 2554 990 
C 2490 537 2438 460 2413 422 
C 2381 371 1920 371 1830 371 
L 602 371 
C 832 620 1280 1073 1824 1596 
C 2214 1966 2669 2400 2669 3033 
C 2669 3788 2067 4224 1395 4224 
C 691 4224 262 3603 262 3027 
C 262 2777 448 2745 525 2745 
C 589 2745 781 2783 781 3007 
C 781 3206 614 3264 525 3264 
C 486 3264 448 3257 422 3244 
C 544 3788 915 4057 1306 4057 
C 1862 4057 2227 3616 2227 3033 
C 2227 2477 1901 1998 1536 1583 
L 262 147 
L 262 0 
L 2515 0 
L 2669 990 
z
" transform="scale(0.015625)"/>
       </defs>
       <use xlink:href="#CMR17-32" transform="scale(0.996264)"/>
       <use xlink:href="#CMR17-30" transform="translate(45.690477 0) scale(0.996264)"/>
       <use xlink:href="#CMR17-30" transform="translate(91.380954 0) scale(0.996264)"/>
       <use xlink:href="#CMR17-30" transform="translate(137.071431 0) scale(0.996264)"/>
      </g>
     </g>
    </g>
    <g id="xtick_6">
     <g id="line2d_6">
      <g>
       <use xlink:href="#m2b68b676e4" x="267.387314" y="228.96" style="stroke: #000000; stroke-width: 0.8"/>
      </g>
     </g>
     <g id="text_6">
      <!-- $\mathdefault{2500}$ -->
      <g transform="translate(257.424644 243.05832) scale(0.1 -0.1)">
       <use xlink:href="#CMR17-32" transform="scale(0.996264)"/>
       <use xlink:href="#CMR17-35" transform="translate(45.690477 0) scale(0.996264)"/>
       <use xlink:href="#CMR17-30" transform="translate(91.380954 0) scale(0.996264)"/>
       <use xlink:href="#CMR17-30" transform="translate(137.071431 0) scale(0.996264)"/>
      </g>
     </g>
    </g>
    <g id="xtick_7">
     <g id="line2d_7">
      <g>
       <use xlink:href="#m2b68b676e4" x="309.75419" y="228.96" style="stroke: #000000; stroke-width: 0.8"/>
      </g>
     </g>
     <g id="text_7">
      <!-- $\mathdefault{3000}$ -->
      <g transform="translate(299.791519 243.05832) scale(0.1 -0.1)">
       <defs>
        <path id="CMR17-33" d="M 1414 2176 
C 1984 2176 2234 1673 2234 1094 
C 2234 322 1824 25 1453 25 
C 1114 25 563 193 390 691 
C 422 678 454 678 486 678 
C 640 678 755 780 755 947 
C 755 1132 614 1216 486 1216 
C 378 1216 211 1164 211 927 
C 211 335 787 -128 1466 -128 
C 2176 -128 2720 432 2720 1087 
C 2720 1718 2208 2176 1600 2246 
C 2086 2347 2554 2776 2554 3353 
C 2554 3856 2048 4224 1472 4224 
C 890 4224 378 3862 378 3347 
C 378 3123 544 3084 627 3084 
C 762 3084 877 3167 877 3334 
C 877 3500 762 3584 627 3584 
C 602 3584 570 3584 544 3571 
C 730 3999 1235 4076 1459 4076 
C 1683 4076 2106 3966 2106 3347 
C 2106 3167 2080 2851 1862 2574 
C 1670 2329 1453 2316 1242 2297 
C 1210 2297 1062 2284 1037 2284 
C 992 2278 966 2272 966 2227 
C 966 2182 973 2176 1101 2176 
L 1414 2176 
z
" transform="scale(0.015625)"/>
       </defs>
       <use xlink:href="#CMR17-33" transform="scale(0.996264)"/>
       <use xlink:href="#CMR17-30" transform="translate(45.690477 0) scale(0.996264)"/>
       <use xlink:href="#CMR17-30" transform="translate(91.380954 0) scale(0.996264)"/>
       <use xlink:href="#CMR17-30" transform="translate(137.071431 0) scale(0.996264)"/>
      </g>
     </g>
    </g>
    <g id="xtick_8">
     <g id="line2d_8">
      <g>
       <use xlink:href="#m2b68b676e4" x="352.121066" y="228.96" style="stroke: #000000; stroke-width: 0.8"/>
      </g>
     </g>
     <g id="text_8">
      <!-- $\mathdefault{3500}$ -->
      <g transform="translate(342.158395 243.05832) scale(0.1 -0.1)">
       <use xlink:href="#CMR17-33" transform="scale(0.996264)"/>
       <use xlink:href="#CMR17-35" transform="translate(45.690477 0) scale(0.996264)"/>
       <use xlink:href="#CMR17-30" transform="translate(91.380954 0) scale(0.996264)"/>
       <use xlink:href="#CMR17-30" transform="translate(137.071431 0) scale(0.996264)"/>
      </g>
     </g>
    </g>
    <g id="text_9">
     <!-- Iteration -->
     <g transform="translate(189.787377 256.278627) scale(0.1 -0.1)">
      <defs>
       <path id="NimbusSanL-Regu-49" d="M 1242 4672 
L 640 4672 
L 640 0 
L 1242 0 
L 1242 4672 
z
" transform="scale(0.015625)"/>
       <path id="NimbusSanL-Regu-74" d="M 1626 3328 
L 1075 3328 
L 1075 4249 
L 544 4249 
L 544 3328 
L 90 3328 
L 90 2892 
L 544 2892 
L 544 402 
C 544 64 774 -128 1190 -128 
C 1318 -128 1446 -116 1626 -84 
L 1626 364 
C 1555 345 1472 339 1370 339 
C 1139 339 1075 402 1075 634 
L 1075 2892 
L 1626 2892 
L 1626 3328 
z
" transform="scale(0.015625)"/>
       <path id="NimbusSanL-Regu-65" d="M 3283 1484 
C 3283 1998 3245 2311 3149 2565 
C 2931 3123 2419 3456 1792 3456 
C 858 3456 256 2734 256 1619 
C 256 545 838 -128 1779 -128 
C 2547 -128 3078 307 3213 1018 
L 2675 1018 
C 2528 588 2227 364 1798 364 
C 1459 364 1171 514 992 787 
C 864 974 819 1161 813 1484 
L 3283 1484 
z
M 826 1920 
C 870 2552 1248 2963 1786 2963 
C 2310 2963 2714 2519 2714 1959 
C 2714 1946 2714 1933 2707 1920 
L 826 1920 
z
" transform="scale(0.015625)"/>
       <path id="NimbusSanL-Regu-72" d="M 442 3328 
L 442 0 
L 979 0 
L 979 1727 
C 979 2203 1101 2514 1357 2698 
C 1523 2819 1683 2857 2054 2863 
L 2054 3404 
C 1965 3449 1920 3456 1850 3456 
C 1504 3456 1242 3251 934 2750 
L 934 3328 
L 442 3328 
z
" transform="scale(0.015625)"/>
       <path id="NimbusSanL-Regu-61" d="M 3424 332 
C 3366 320 3341 320 3309 320 
C 3123 320 3021 415 3021 581 
L 3021 2542 
C 3021 3135 2586 3456 1760 3456 
C 1274 3456 870 3315 646 3065 
C 493 2893 429 2702 416 2370 
L 954 2370 
C 998 2778 1242 2963 1741 2963 
C 2221 2963 2490 2784 2490 2466 
L 2490 2326 
C 2490 2103 2355 2007 1933 1956 
C 1178 1861 1062 1835 858 1753 
C 467 1593 269 1294 269 861 
C 269 256 691 -128 1370 -128 
C 1792 -128 2131 19 2509 364 
C 2547 25 2714 -128 3059 -128 
C 3168 -128 3251 -116 3424 -71 
L 3424 332 
z
M 2490 1071 
C 2490 893 2438 785 2278 638 
C 2061 441 1798 339 1485 339 
C 1069 339 826 536 826 874 
C 826 1224 1062 1402 1632 1485 
C 2195 1562 2310 1587 2490 1670 
L 2490 1071 
z
" transform="scale(0.015625)"/>
       <path id="NimbusSanL-Regu-69" d="M 960 3358 
L 429 3358 
L 429 0 
L 960 0 
L 960 3358 
z
M 960 4672 
L 422 4672 
L 422 3999 
L 960 3999 
L 960 4672 
z
" transform="scale(0.015625)"/>
       <path id="NimbusSanL-Regu-6f" d="M 1741 3456 
C 800 3456 230 2784 230 1663 
C 230 543 794 -128 1747 -128 
C 2688 -128 3264 543 3264 1638 
C 3264 2791 2707 3456 1741 3456 
z
M 1747 2963 
C 2349 2963 2707 2472 2707 1644 
C 2707 861 2336 364 1747 364 
C 1152 364 787 855 787 1663 
C 787 2466 1152 2963 1747 2963 
z
" transform="scale(0.015625)"/>
       <path id="NimbusSanL-Regu-6e" d="M 448 3328 
L 448 0 
L 986 0 
L 986 1835 
C 986 2539 1344 2988 1894 2988 
C 2317 2988 2586 2732 2586 2328 
L 2586 0 
L 3117 0 
L 3117 2539 
C 3117 3097 2701 3456 2054 3456 
C 1555 3456 1235 3263 941 2796 
L 941 3328 
L 448 3328 
z
" transform="scale(0.015625)"/>
      </defs>
      <use xlink:href="#NimbusSanL-Regu-49" transform="scale(0.996264)"/>
      <use xlink:href="#NimbusSanL-Regu-74" transform="translate(27.69517 0) scale(0.996264)"/>
      <use xlink:href="#NimbusSanL-Regu-65" transform="translate(55.390339 0) scale(0.996264)"/>
      <use xlink:href="#NimbusSanL-Regu-72" transform="translate(110.782016 0) scale(0.996264)"/>
      <use xlink:href="#NimbusSanL-Regu-61" transform="translate(142.961149 0) scale(0.996264)"/>
      <use xlink:href="#NimbusSanL-Regu-74" transform="translate(198.352826 0) scale(0.996264)"/>
      <use xlink:href="#NimbusSanL-Regu-69" transform="translate(226.047996 0) scale(0.996264)"/>
      <use xlink:href="#NimbusSanL-Regu-6f" transform="translate(248.16478 0) scale(0.996264)"/>
      <use xlink:href="#NimbusSanL-Regu-6e" transform="translate(303.556457 0) scale(0.996264)"/>
     </g>
    </g>
   </g>
   <g id="matplotlib.axis_2">
    <g id="ytick_1">
     <g id="line2d_9">
      <defs>
       <path id="m2eee24385c" d="M 0 0 
L -3.5 0 
" style="stroke: #000000; stroke-width: 0.8"/>
      </defs>
      <g>
       <use xlink:href="#m2eee24385c" x="40.334753" y="221.511499" style="stroke: #000000; stroke-width: 0.8"/>
      </g>
     </g>
     <g id="text_10">
      <!-- $\mathdefault{−2}$ -->
      <g transform="translate(20.604674 225.060659) scale(0.1 -0.1)">
       <defs>
        <path id="CMSY10-0" d="M 4218 1472 
C 4326 1472 4442 1472 4442 1600 
C 4442 1728 4326 1728 4218 1728 
L 755 1728 
C 646 1728 531 1728 531 1600 
C 531 1472 646 1472 755 1472 
L 4218 1472 
z
" transform="scale(0.015625)"/>
       </defs>
       <use xlink:href="#CMSY10-0" transform="scale(0.996264)"/>
       <use xlink:href="#CMR17-32" transform="translate(77.487468 0) scale(0.996264)"/>
      </g>
     </g>
    </g>
    <g id="ytick_2">
     <g id="line2d_10">
      <g>
       <use xlink:href="#m2eee24385c" x="40.334753" y="185.28409" style="stroke: #000000; stroke-width: 0.8"/>
      </g>
     </g>
     <g id="text_11">
      <!-- $\mathdefault{0}$ -->
      <g transform="translate(28.353418 188.83325) scale(0.1 -0.1)">
       <use xlink:href="#CMR17-30" transform="scale(0.996264)"/>
      </g>
     </g>
    </g>
    <g id="ytick_3">
     <g id="line2d_11">
      <g>
       <use xlink:href="#m2eee24385c" x="40.334753" y="149.05668" style="stroke: #000000; stroke-width: 0.8"/>
      </g>
     </g>
     <g id="text_12">
      <!-- $\mathdefault{2}$ -->
      <g transform="translate(28.353418 152.60584) scale(0.1 -0.1)">
       <use xlink:href="#CMR17-32" transform="scale(0.996264)"/>
      </g>
     </g>
    </g>
    <g id="ytick_4">
     <g id="line2d_12">
      <g>
       <use xlink:href="#m2eee24385c" x="40.334753" y="112.82927" style="stroke: #000000; stroke-width: 0.8"/>
      </g>
     </g>
     <g id="text_13">
      <!-- $\mathdefault{4}$ -->
      <g transform="translate(28.353418 116.378431) scale(0.1 -0.1)">
       <defs>
        <path id="CMR17-34" d="M 2150 4147 
C 2150 4281 2144 4288 2029 4288 
L 128 1254 
L 128 1088 
L 1779 1088 
L 1779 460 
C 1779 230 1766 166 1318 166 
L 1197 166 
L 1197 0 
C 1402 12 1747 12 1965 12 
C 2182 12 2528 12 2733 0 
L 2733 166 
L 2611 166 
C 2163 166 2150 230 2150 460 
L 2150 1088 
L 2803 1088 
L 2803 1254 
L 2150 1254 
L 2150 4147 
z
M 1798 3723 
L 1798 1254 
L 256 1254 
L 1798 3723 
z
" transform="scale(0.015625)"/>
       </defs>
       <use xlink:href="#CMR17-34" transform="scale(0.996264)"/>
      </g>
     </g>
    </g>
    <g id="ytick_5">
     <g id="line2d_13">
      <g>
       <use xlink:href="#m2eee24385c" x="40.334753" y="76.601861" style="stroke: #000000; stroke-width: 0.8"/>
      </g>
     </g>
     <g id="text_14">
      <!-- $\mathdefault{6}$ -->
      <g transform="translate(28.353418 80.151021) scale(0.1 -0.1)">
       <defs>
        <path id="CMR17-36" d="M 678 2198 
C 678 3712 1395 4076 1811 4076 
C 1946 4076 2272 4049 2400 3782 
C 2298 3782 2106 3782 2106 3558 
C 2106 3385 2246 3328 2336 3328 
C 2394 3328 2566 3353 2566 3571 
C 2566 3987 2246 4224 1805 4224 
C 1043 4224 243 3411 243 2011 
C 243 257 966 -128 1478 -128 
C 2099 -128 2688 431 2688 1295 
C 2688 2101 2170 2688 1517 2688 
C 1126 2688 838 2430 678 1979 
L 678 2198 
z
M 1478 25 
C 691 25 691 1212 691 1450 
C 691 1914 909 2585 1504 2585 
C 1613 2585 1926 2585 2138 2140 
C 2253 1889 2253 1624 2253 1302 
C 2253 954 2253 696 2118 438 
C 1978 173 1773 25 1478 25 
z
" transform="scale(0.015625)"/>
       </defs>
       <use xlink:href="#CMR17-36" transform="scale(0.996264)"/>
      </g>
     </g>
    </g>
    <g id="ytick_6">
     <g id="line2d_14">
      <g>
       <use xlink:href="#m2eee24385c" x="40.334753" y="40.374451" style="stroke: #000000; stroke-width: 0.8"/>
      </g>
     </g>
     <g id="text_15">
      <!-- $\mathdefault{8}$ -->
      <g transform="translate(28.353418 43.923611) scale(0.1 -0.1)">
       <defs>
        <path id="CMR17-38" d="M 1741 2289 
C 2144 2494 2554 2803 2554 3298 
C 2554 3884 1990 4224 1472 4224 
C 890 4224 378 3800 378 3215 
C 378 3054 416 2777 666 2533 
C 730 2469 998 2276 1171 2154 
C 883 2006 211 1652 211 945 
C 211 282 838 -128 1459 -128 
C 2144 -128 2720 366 2720 1022 
C 2720 1607 2330 1877 2074 2051 
L 1741 2289 
z
M 902 2855 
C 851 2887 595 3086 595 3388 
C 595 3781 998 4076 1459 4076 
C 1965 4076 2336 3716 2336 3298 
C 2336 2700 1670 2359 1638 2359 
C 1632 2359 1626 2359 1574 2398 
L 902 2855 
z
M 2080 1536 
C 2176 1466 2483 1253 2483 861 
C 2483 385 2010 25 1472 25 
C 890 25 448 443 448 951 
C 448 1459 838 1884 1280 2083 
L 2080 1536 
z
" transform="scale(0.015625)"/>
       </defs>
       <use xlink:href="#CMR17-38" transform="scale(0.996264)"/>
      </g>
     </g>
    </g>
    <g id="text_16">
     <!-- Aerodynamic Coefficients - Blade_14 -->
     <g transform="translate(14.482687 199.050447) rotate(-90) scale(0.1 -0.1)">
      <defs>
       <path id="NimbusSanL-Regu-41" d="M 3034 1408 
L 3514 0 
L 4179 0 
L 2541 4672 
L 1773 4672 
L 109 0 
L 742 0 
L 1235 1408 
L 3034 1408 
z
M 2867 1907 
L 1382 1907 
L 2150 4032 
L 2867 1907 
z
" transform="scale(0.015625)"/>
       <path id="NimbusSanL-Regu-64" d="M 3168 4672 
L 2637 4672 
L 2637 2937 
C 2413 3276 2054 3456 1606 3456 
C 736 3456 166 2759 166 1695 
C 166 568 723 -128 1626 -128 
C 2086 -128 2406 44 2694 460 
L 2694 19 
L 3168 19 
L 3168 4672 
z
M 1696 2956 
C 2272 2956 2637 2447 2637 1651 
C 2637 880 2266 371 1702 371 
C 1114 371 723 887 723 1663 
C 723 2440 1114 2956 1696 2956 
z
" transform="scale(0.015625)"/>
       <path id="NimbusSanL-Regu-79" d="M 2483 3328 
L 1555 724 
L 698 3328 
L 128 3328 
L 1261 -29 
L 1056 -558 
C 973 -794 851 -884 627 -884 
C 550 -884 461 -871 346 -845 
L 346 -1325 
C 454 -1383 563 -1408 704 -1408 
C 877 -1408 1062 -1351 1203 -1248 
C 1370 -1127 1466 -986 1568 -718 
L 3059 3328 
L 2483 3328 
z
" transform="scale(0.015625)"/>
       <path id="NimbusSanL-Regu-6d" d="M 448 3328 
L 448 0 
L 986 0 
L 986 2089 
C 986 2597 1338 2988 1773 2988 
C 2170 2988 2394 2744 2394 2315 
L 2394 0 
L 2931 0 
L 2931 2109 
C 2931 2597 3283 2988 3718 2988 
C 4109 2988 4339 2738 4339 2315 
L 4339 0 
L 4877 0 
L 4877 2520 
C 4877 3123 4531 3456 3904 3456 
C 3456 3456 3187 3321 2874 2943 
C 2675 3302 2406 3456 1971 3456 
C 1523 3456 1229 3289 941 2886 
L 941 3328 
L 448 3328 
z
" transform="scale(0.015625)"/>
       <path id="NimbusSanL-Regu-63" d="M 3014 2237 
C 2989 2561 2918 2771 2790 2956 
C 2560 3270 2157 3456 1690 3456 
C 787 3456 198 2740 198 1632 
C 198 555 774 -128 1683 -128 
C 2483 -128 2989 352 3053 1167 
L 2515 1167 
C 2426 632 2150 364 1696 364 
C 1107 364 755 842 755 1632 
C 755 2466 1101 2963 1683 2963 
C 2131 2963 2413 2701 2477 2237 
L 3014 2237 
z
" transform="scale(0.015625)"/>
       <path id="NimbusSanL-Regu-43" d="M 4237 3219 
C 4051 4236 3462 4736 2438 4736 
C 1811 4736 1306 4537 960 4154 
C 538 3696 307 3035 307 2284 
C 307 1522 544 867 986 415 
C 1344 44 1805 -128 2413 -128 
C 3552 -128 4192 485 4333 1712 
L 3718 1712 
C 3667 1394 3603 1178 3507 994 
C 3315 612 2918 396 2419 396 
C 1491 396 902 1134 902 2291 
C 902 3480 1466 4211 2368 4211 
C 2746 4211 3098 4096 3290 3918 
C 3462 3759 3558 3562 3629 3219 
L 4237 3219 
z
" transform="scale(0.015625)"/>
       <path id="NimbusSanL-Regu-66" d="M 1651 3328 
L 1094 3328 
L 1094 3860 
C 1094 4087 1222 4204 1466 4204 
C 1510 4204 1530 4204 1651 4198 
L 1651 4639 
C 1530 4665 1459 4672 1350 4672 
C 858 4672 563 4390 563 3905 
L 563 3328 
L 115 3328 
L 115 2892 
L 563 2892 
L 563 0 
L 1094 0 
L 1094 2892 
L 1651 2892 
L 1651 3328 
z
" transform="scale(0.015625)"/>
       <path id="NimbusSanL-Regu-2" d="M 1613 3328 
L 1056 3328 
L 1056 3860 
C 1056 4087 1184 4204 1427 4204 
C 1472 4204 1491 4204 1613 4198 
L 1613 4639 
C 1491 4665 1421 4672 1312 4672 
C 819 4672 525 4390 525 3905 
L 525 3328 
L 77 3328 
L 77 2892 
L 525 2892 
L 525 0 
L 1056 0 
L 1056 2892 
L 1613 2892 
L 1613 3328 
z
M 2790 3328 
L 2259 3328 
L 2259 0 
L 2790 0 
L 2790 3328 
z
M 2790 4672 
L 2259 4672 
L 2259 3999 
L 2790 3999 
L 2790 4672 
z
" transform="scale(0.015625)"/>
       <path id="NimbusSanL-Regu-73" d="M 2803 2428 
C 2797 3084 2362 3456 1587 3456 
C 806 3456 301 3052 301 2434 
C 301 1912 570 1663 1363 1472 
L 1862 1351 
C 2234 1262 2381 1129 2381 887 
C 2381 574 2067 364 1600 364 
C 1312 364 1069 447 934 587 
C 851 683 813 778 781 1014 
L 218 1014 
C 243 243 678 -128 1555 -128 
C 2400 -128 2938 288 2938 931 
C 2938 1428 2656 1702 1990 1861 
L 1478 1982 
C 1043 2084 858 2224 858 2459 
C 858 2765 1133 2963 1568 2963 
C 1997 2963 2227 2778 2240 2428 
L 2803 2428 
z
" transform="scale(0.015625)"/>
       <path id="NimbusSanL-Regu-2d" d="M 1818 1996 
L 294 1996 
L 294 1536 
L 1818 1536 
L 1818 1996 
z
" transform="scale(0.015625)"/>
       <path id="NimbusSanL-Regu-42" d="M 506 0 
L 2611 0 
C 3053 0 3379 121 3629 390 
C 3859 632 3987 961 3987 1321 
C 3987 1878 3731 2214 3136 2444 
C 3558 2643 3782 2994 3782 3476 
C 3782 3821 3654 4127 3411 4345 
C 3168 4569 2848 4672 2400 4672 
L 506 4672 
L 506 0 
z
M 1101 2636 
L 1101 4147 
L 2253 4147 
C 2586 4147 2771 4101 2931 3977 
C 3098 3847 3187 3652 3187 3391 
C 3187 3138 3098 2936 2931 2806 
C 2771 2682 2586 2636 2253 2636 
L 1101 2636 
z
M 1101 524 
L 1101 2112 
L 2554 2112 
C 2842 2112 3034 2042 3174 1890 
C 3315 1745 3392 1542 3392 1315 
C 3392 1093 3315 891 3174 746 
C 3034 594 2842 524 2554 524 
L 1101 524 
z
" transform="scale(0.015625)"/>
       <path id="NimbusSanL-Regu-6c" d="M 973 4672 
L 435 4672 
L 435 0 
L 973 0 
L 973 4672 
z
" transform="scale(0.015625)"/>
       <path id="NimbusSanL-Regu-31" d="M 1658 3232 
L 1658 0 
L 2221 0 
L 2221 4537 
L 1850 4537 
C 1651 3840 1523 3744 653 3635 
L 653 3232 
L 1658 3232 
z
" transform="scale(0.015625)"/>
       <path id="NimbusSanL-Regu-34" d="M 2093 1088 
L 2093 0 
L 2656 0 
L 2656 1088 
L 3328 1088 
L 3328 1593 
L 2656 1593 
L 2656 4537 
L 2240 4537 
L 179 1683 
L 179 1088 
L 2093 1088 
z
M 2093 1593 
L 672 1593 
L 2093 3577 
L 2093 1593 
z
" transform="scale(0.015625)"/>
      </defs>
      <use xlink:href="#NimbusSanL-Regu-41" transform="scale(0.996264)"/>
      <use xlink:href="#NimbusSanL-Regu-65" transform="translate(66.450031 0) scale(0.996264)"/>
      <use xlink:href="#NimbusSanL-Regu-72" transform="translate(121.841708 0) scale(0.996264)"/>
      <use xlink:href="#NimbusSanL-Regu-6f" transform="translate(155.016938 0) scale(0.996264)"/>
      <use xlink:href="#NimbusSanL-Regu-64" transform="translate(210.408615 0) scale(0.996264)"/>
      <use xlink:href="#NimbusSanL-Regu-79" transform="translate(265.800292 0) scale(0.996264)"/>
      <use xlink:href="#NimbusSanL-Regu-6e" transform="translate(315.613492 0) scale(0.996264)"/>
      <use xlink:href="#NimbusSanL-Regu-61" transform="translate(371.005169 0) scale(0.996264)"/>
      <use xlink:href="#NimbusSanL-Regu-6d" transform="translate(426.396846 0) scale(0.996264)"/>
      <use xlink:href="#NimbusSanL-Regu-69" transform="translate(509.385276 0) scale(0.996264)"/>
      <use xlink:href="#NimbusSanL-Regu-63" transform="translate(531.502061 0) scale(0.996264)"/>
      <use xlink:href="#NimbusSanL-Regu-43" transform="translate(609.010431 0) scale(0.996264)"/>
      <use xlink:href="#NimbusSanL-Regu-6f" transform="translate(680.940416 0) scale(0.996264)"/>
      <use xlink:href="#NimbusSanL-Regu-65" transform="translate(736.332093 0) scale(0.996264)"/>
      <use xlink:href="#NimbusSanL-Regu-66" transform="translate(791.72377 0) scale(0.996264)"/>
      <use xlink:href="#NimbusSanL-Regu-2" transform="translate(819.418939 0) scale(0.996264)"/>
      <use xlink:href="#NimbusSanL-Regu-63" transform="translate(869.23214 0) scale(0.996264)"/>
      <use xlink:href="#NimbusSanL-Regu-69" transform="translate(919.04534 0) scale(0.996264)"/>
      <use xlink:href="#NimbusSanL-Regu-65" transform="translate(941.162125 0) scale(0.996264)"/>
      <use xlink:href="#NimbusSanL-Regu-6e" transform="translate(996.553802 0) scale(0.996264)"/>
      <use xlink:href="#NimbusSanL-Regu-74" transform="translate(1051.945479 0) scale(0.996264)"/>
      <use xlink:href="#NimbusSanL-Regu-73" transform="translate(1079.640648 0) scale(0.996264)"/>
      <use xlink:href="#NimbusSanL-Regu-2d" transform="translate(1157.149018 0) scale(0.996264)"/>
      <use xlink:href="#NimbusSanL-Regu-42" transform="translate(1218.019418 0) scale(0.996264)"/>
      <use xlink:href="#NimbusSanL-Regu-6c" transform="translate(1284.469449 0) scale(0.996264)"/>
      <use xlink:href="#NimbusSanL-Regu-61" transform="translate(1306.586233 0) scale(0.996264)"/>
      <use xlink:href="#NimbusSanL-Regu-64" transform="translate(1361.97791 0) scale(0.996264)"/>
      <use xlink:href="#NimbusSanL-Regu-65" transform="translate(1417.369587 0) scale(0.996264)"/>
      <use xlink:href="#NimbusSanL-Regu-31" transform="translate(1508.626829 0) scale(0.996264)"/>
      <use xlink:href="#NimbusSanL-Regu-34" transform="translate(1564.018506 0) scale(0.996264)"/>
      <path d="M 1478.738605 0 
L 1508.626829 0 
L 1508.626829 0.3985 
L 1478.738605 0.3985 
L 1478.738605 0 
z
"/>
     </g>
    </g>
   </g>
   <g id="line2d_15">
    <path d="M 55.552935 124.909196 
L 55.807136 17.571478 
L 55.89187 17.28 
L 56.061337 20.524782 
L 56.485006 32.34913 
L 56.739207 32.818546 
L 56.993408 35.387293 
L 57.24761 37.884219 
L 57.501811 38.389163 
L 57.756012 39.443621 
L 58.010213 41.529319 
L 58.179681 44.340968 
L 58.349148 50.048152 
L 58.60335 68.030497 
L 58.772817 77.136306 
L 59.027018 80.431297 
L 59.28122 87.907628 
L 59.535421 103.427898 
L 59.95909 133.363501 
L 60.213291 138.073421 
L 60.552226 150.977231 
L 60.975895 169.787929 
L 61.230096 171.627715 
L 61.484297 175.539274 
L 62.162167 189.158897 
L 62.501102 189.493074 
L 62.755304 190.036008 
L 63.094239 191.469277 
L 63.34844 192.488582 
L 63.517907 191.887088 
L 63.772109 191.547851 
L 63.941576 191.025418 
L 64.111044 189.879651 
L 64.280511 187.377794 
L 64.788914 177.428088 
L 65.043115 175.043081 
L 65.297316 170.183588 
L 65.551517 159.986262 
L 65.805719 149.601856 
L 66.05992 148.158429 
L 66.483589 144.631286 
L 66.568322 144.970375 
L 66.73779 149.568447 
L 66.907257 154.739309 
L 67.161459 156.580266 
L 67.41566 160.493087 
L 68.09353 173.684591 
L 68.432465 174.420692 
L 68.856134 175.275322 
L 69.110335 175.512983 
L 69.788205 175.665907 
L 69.957672 176.175632 
L 70.12714 176.861663 
L 70.466075 177.293799 
L 70.720276 178.058687 
L 70.974477 179.667466 
L 71.398146 182.990729 
L 71.652348 183.563246 
L 71.906549 184.676332 
L 72.16075 186.755039 
L 72.669153 191.931383 
L 72.923354 192.463621 
L 73.262289 193.824578 
L 73.601224 195.16417 
L 73.770691 194.965254 
L 74.024893 194.836056 
L 74.279094 194.42613 
L 74.448561 193.791978 
L 74.618029 192.501132 
L 74.87223 187.970067 
L 75.041698 185.766182 
L 75.295899 185.03376 
L 75.5501 183.44783 
L 75.804301 180.429102 
L 76.058503 174.627509 
L 76.22797 171.481267 
L 76.482171 170.446792 
L 76.736373 168.297861 
L 76.990574 164.356458 
L 77.244775 157.002285 
L 77.414243 152.92607 
L 77.668444 151.575695 
L 77.922645 148.726026 
L 78.26158 141.212827 
L 78.600515 132.025098 
L 78.854716 131.039807 
L 79.193651 128.242118 
L 79.61732 124.4412 
L 79.786788 124.789736 
L 80.040989 125.048918 
L 80.29519 125.757314 
L 80.464658 126.850559 
L 80.718859 130.517164 
L 80.97306 135.1852 
L 81.227261 136.047051 
L 81.481463 137.846857 
L 81.820398 142.399324 
L 82.074599 146.385384 
L 82.3288 147.130523 
L 82.583001 148.718414 
L 82.837203 151.774794 
L 83.091404 157.432277 
L 83.260872 160.330881 
L 83.515073 161.263685 
L 83.769274 163.191179 
L 84.108209 168.02215 
L 84.447144 173.85635 
L 84.701345 174.526824 
L 84.955547 175.890867 
L 85.379215 179.733256 
L 85.548683 180.787439 
L 85.802884 181.104187 
L 86.141819 182.063396 
L 86.650222 183.837884 
L 86.734955 183.806873 
L 86.904423 183.513668 
L 87.243358 183.27163 
L 87.497559 182.719731 
L 87.667027 181.849575 
L 87.921228 179.084198 
L 88.42963 173.349352 
L 88.683832 173.147472 
L 88.938033 172.684837 
L 89.276968 171.489365 
L 89.700637 169.864501 
L 90.039572 169.685008 
L 90.46324 169.152907 
L 90.717442 168.547023 
L 91.225844 166.885557 
L 91.480045 166.662578 
L 91.81898 166.018452 
L 92.073182 165.092903 
L 92.242649 164.555402 
L 92.581584 164.2758 
L 92.835785 163.766946 
L 93.513655 162.128119 
L 93.85259 161.860233 
L 94.106792 161.435182 
L 94.360993 160.480691 
L 94.53046 159.959453 
L 94.869395 159.695841 
L 95.208331 159.053964 
L 95.462532 158.07149 
L 95.716733 156.952971 
L 96.055668 156.639989 
L 96.394603 155.894094 
L 96.648804 154.809131 
L 96.987739 153.31694 
L 97.326674 153.072115 
L 97.665609 152.49458 
L 98.174012 151.44867 
L 98.343479 151.66178 
L 98.682414 151.826271 
L 98.936616 152.167953 
L 99.106083 152.674194 
L 99.275551 153.73643 
L 99.445018 154.722187 
L 99.699219 155.071727 
L 99.953421 155.838363 
L 100.207622 157.342719 
L 100.800758 162.110769 
L 101.054959 162.572559 
L 101.393894 163.866139 
L 101.902297 166.317063 
L 102.156498 166.636648 
L 102.410699 167.267264 
L 102.749634 168.778796 
L 103.003836 169.96072 
L 103.342771 170.281201 
L 103.596972 170.82678 
L 103.851173 171.79084 
L 104.105374 172.845158 
L 104.444309 173.134565 
L 104.783244 173.845798 
L 105.291647 175.083192 
L 105.800049 174.962739 
L 105.969517 174.696404 
L 106.223718 173.673376 
L 106.647387 171.458844 
L 106.901588 171.02416 
L 107.15579 170.092333 
L 107.409991 168.225503 
L 107.664192 165.997261 
L 107.918393 165.589658 
L 108.172595 164.723473 
L 108.51153 162.432093 
L 108.850465 159.59306 
L 109.104666 159.290435 
L 109.443601 158.455371 
L 109.86727 157.31706 
L 110.036737 157.245878 
L 110.799341 157.366398 
L 111.053542 157.770582 
L 111.22301 158.014343 
L 111.646678 158.203658 
L 111.90088 158.499105 
L 112.155081 159.201812 
L 112.324548 159.635462 
L 112.663483 159.865031 
L 113.002418 160.449112 
L 113.25662 161.350723 
L 113.680288 163.322299 
L 114.019223 163.595566 
L 114.358158 164.230038 
L 114.781827 165.14852 
L 115.29023 165.327443 
L 115.629165 165.459136 
L 115.798632 165.318965 
L 115.9681 165.108979 
L 116.391768 164.917237 
L 116.64597 164.606883 
L 116.900171 163.942459 
L 117.239106 162.856632 
L 117.578041 162.66174 
L 117.916976 162.1996 
L 118.340645 161.547644 
L 119.187982 161.530094 
L 120.03532 162.010564 
L 120.374255 162.269736 
L 120.882657 162.791751 
L 121.221592 162.989289 
L 121.475794 163.343838 
L 121.729995 164.149766 
L 121.899462 164.617954 
L 122.238397 164.858921 
L 122.577332 165.474542 
L 123.170469 166.867824 
L 123.509404 167.190166 
L 123.933072 168.013469 
L 124.187274 168.450292 
L 124.78041 168.657912 
L 125.119345 168.699506 
L 125.373546 168.599519 
L 125.797215 168.469401 
L 126.051416 168.209891 
L 126.305617 167.522969 
L 126.475085 167.096332 
L 126.81402 166.87215 
L 127.068221 166.478382 
L 127.322422 165.725141 
L 127.746091 164.238444 
L 128.085026 163.855964 
L 128.423961 162.973768 
L 128.932364 161.249418 
L 129.271299 160.935627 
L 129.610234 160.282062 
L 130.20337 159.008724 
L 131.389643 158.976053 
L 131.813311 159.111522 
L 132.067513 159.363109 
L 132.321714 160.004202 
L 133.084318 162.474536 
L 133.423253 162.749515 
L 133.762188 163.353902 
L 134.101123 164.096528 
L 134.524791 164.287057 
L 134.94846 164.757411 
L 135.287395 165.200858 
L 135.795798 165.351029 
L 136.727869 165.737324 
L 137.321005 165.936684 
L 137.744674 166.038557 
L 139.524083 166.075893 
L 140.795089 165.529177 
L 141.218758 165.251588 
L 141.811894 165.084776 
L 142.489764 164.858258 
L 143.337102 164.900297 
L 144.184439 165.276431 
L 144.692842 165.510713 
L 145.11651 165.742253 
L 146.387517 165.756928 
L 146.895919 165.630963 
L 147.234854 165.30438 
L 147.573789 164.486314 
L 147.743257 164.157562 
L 148.082192 163.984756 
L 148.421127 163.531165 
L 148.929529 162.561912 
L 149.353198 162.304721 
L 149.776867 161.704863 
L 149.946334 161.532025 
L 150.53947 161.336543 
L 151.047873 161.174626 
L 151.302074 161.243845 
L 151.810477 161.371537 
L 152.064678 161.598382 
L 152.403613 162.316723 
L 152.57308 162.601541 
L 152.996749 162.816885 
L 153.335684 163.285549 
L 153.759353 163.988389 
L 154.183022 164.231989 
L 154.521957 164.680715 
L 154.945626 165.254068 
L 155.454028 165.485007 
L 156.047164 165.80518 
L 156.894502 165.78355 
L 157.318171 165.593667 
L 157.826573 165.378735 
L 158.080774 165.062584 
L 158.504443 164.449482 
L 158.928112 164.221315 
L 159.267047 163.762577 
L 159.775449 162.800934 
L 160.283852 162.612115 
L 161.046456 162.175231 
L 161.809059 162.163432 
L 162.147994 162.458818 
L 162.910598 163.564902 
L 163.334267 164.038572 
L 163.927403 164.189933 
L 164.605273 164.386938 
L 165.367877 164.318586 
L 165.791546 164.148215 
L 166.299948 163.972819 
L 167.062552 163.519427 
L 167.486221 163.276476 
L 168.079357 162.809852 
L 168.58776 162.603827 
L 169.26563 162.252834 
L 170.706103 162.217729 
L 171.129772 162.366192 
L 171.468707 162.549255 
L 172.061843 162.733735 
L 172.400778 163.058436 
L 172.739713 163.305572 
L 173.248116 163.466999 
L 173.841252 163.948229 
L 174.095453 164.018214 
L 175.959596 164.039253 
L 176.637466 163.832662 
L 177.145868 163.633039 
L 177.484803 163.47929 
L 178.162673 163.308081 
L 178.840544 163.05957 
L 179.687881 162.832761 
L 180.365751 162.79573 
L 181.890959 162.867087 
L 183.246699 163.038379 
L 188.92386 163.007482 
L 192.143743 162.910838 
L 194.685755 162.998576 
L 198.244573 163.154064 
L 200.44765 162.989191 
L 204.430137 162.668832 
L 206.54848 162.785761 
L 209.514162 162.945856 
L 211.97144 162.835313 
L 213.32718 162.673541 
L 214.682921 162.653682 
L 222.478426 162.707458 
L 227.816652 162.764257 
L 243.153461 162.721307 
L 248.661155 162.800337 
L 251.372635 162.817339 
L 256.795595 162.741283 
L 359.916571 163.056834 
L 359.916571 163.056834 
" clip-path="url(#p556fb74cae)" style="fill: none; stroke: #1f77b4; stroke-width: 1.5; stroke-linecap: square"/>
   </g>
   <g id="line2d_16">
    <path d="M 55.552935 193.172334 
L 55.722402 208.117847 
L 56.146071 205.149869 
L 56.315538 204.47922 
L 56.400272 204.495974 
L 56.823941 205.190218 
L 56.993408 205.481766 
L 57.24761 206.240781 
L 57.501811 206.411916 
L 57.756012 206.845212 
L 58.010213 207.867356 
L 58.264415 210.470361 
L 58.772817 217.707227 
L 59.027018 217.990707 
L 59.535421 218.88 
L 59.620155 218.716848 
L 59.95909 217.035666 
L 60.213291 216.318669 
L 60.467492 214.505379 
L 60.721694 210.022193 
L 60.975895 204.950164 
L 61.230096 203.647567 
L 61.484297 200.593367 
L 61.823232 191.942447 
L 62.162167 184.488564 
L 62.331635 184.180599 
L 62.585836 183.152478 
L 62.924771 180.616942 
L 63.178972 177.342404 
L 63.517907 172.399932 
L 63.772109 171.798926 
L 64.02631 170.486287 
L 64.70418 166.056481 
L 65.127849 166.017321 
L 65.297316 166.469099 
L 65.466784 168.200781 
L 65.636251 173.589531 
L 65.805719 179.078327 
L 66.05992 181.082405 
L 66.314121 185.450339 
L 66.653056 196.326209 
L 66.907257 203.370891 
L 67.161459 204.431685 
L 67.41566 206.561663 
L 67.839329 212.420547 
L 68.008796 213.829494 
L 68.262997 214.253788 
L 68.601932 215.439146 
L 69.110335 217.49305 
L 69.534004 217.745406 
L 69.788205 217.903781 
L 69.872939 217.855804 
L 70.296607 217.155854 
L 70.550809 216.854855 
L 70.80501 216.145995 
L 71.059211 214.498775 
L 71.313413 212.089057 
L 71.567614 211.578147 
L 71.821815 210.502118 
L 72.076016 208.302305 
L 72.330218 203.89241 
L 72.584419 199.211759 
L 72.83862 198.41149 
L 73.092821 196.82985 
L 73.431756 192.698139 
L 73.770691 187.629965 
L 74.024893 187.046364 
L 74.279094 185.951088 
L 74.618029 183.489391 
L 75.126431 179.551312 
L 75.380633 179.11927 
L 75.719568 177.905263 
L 76.22797 175.490653 
L 76.736373 175.205424 
L 76.990574 175.139072 
L 77.160041 175.390977 
L 77.498976 176.493853 
L 77.753178 176.87011 
L 78.007379 177.71622 
L 78.26158 179.663339 
L 78.685249 184.472431 
L 78.93945 185.356438 
L 79.193651 187.112333 
L 79.532586 191.237241 
L 79.786788 193.908367 
L 80.040989 194.309432 
L 80.379924 195.475937 
L 80.803593 197.963683 
L 80.97306 198.737059 
L 81.227261 198.985738 
L 81.481463 199.531509 
L 81.820398 200.970762 
L 82.074599 201.972838 
L 82.413534 202.187277 
L 82.837203 202.582183 
L 82.921936 202.485895 
L 83.091404 201.442151 
L 83.260872 200.072119 
L 83.515073 199.548591 
L 83.769274 198.365071 
L 84.023475 195.958762 
L 84.531878 190.302815 
L 84.786079 189.74763 
L 85.633417 187.200229 
L 86.480754 186.942391 
L 86.904423 186.600395 
L 87.582293 186.693386 
L 87.75176 186.977147 
L 87.921228 187.785918 
L 88.344897 191.57305 
L 88.514364 192.415109 
L 88.768565 192.676074 
L 89.022767 193.226203 
L 89.361702 194.536787 
L 89.700637 195.778171 
L 90.124305 195.994179 
L 90.547974 196.257449 
L 90.717442 196.18266 
L 90.971643 195.695657 
L 91.14111 195.40813 
L 91.564779 195.190152 
L 91.903714 194.770571 
L 92.412117 193.971431 
L 92.751052 193.668852 
L 93.005253 193.147031 
L 93.428922 192.093854 
L 93.767857 191.820987 
L 94.022058 191.372961 
L 94.276259 190.48658 
L 94.53046 189.451227 
L 94.869395 189.167761 
L 95.208331 188.467037 
L 95.547266 187.07285 
L 95.716733 186.560489 
L 96.055668 186.320462 
L 96.394603 185.718688 
L 97.072473 184.144823 
L 97.919811 184.054765 
L 98.174012 184.906256 
L 98.343479 185.477691 
L 98.682414 185.793029 
L 98.936616 186.378265 
L 99.190817 187.57596 
L 99.445018 189.087541 
L 99.699219 189.370644 
L 99.953421 190.001346 
L 100.207622 191.153575 
L 100.800758 194.664603 
L 101.054959 194.985475 
L 101.902297 196.413978 
L 102.410699 196.354158 
L 102.580167 196.194595 
L 102.749634 195.769415 
L 103.088569 194.689829 
L 103.342771 194.401543 
L 103.596972 193.789913 
L 103.851173 192.660999 
L 104.105374 191.459911 
L 104.444309 191.139744 
L 104.783244 190.34951 
L 105.122179 188.896026 
L 105.291647 188.392167 
L 105.630582 188.169751 
L 105.969517 187.646863 
L 106.562653 186.631963 
L 107.325257 186.664368 
L 107.494725 186.95298 
L 107.664192 187.253673 
L 108.003127 187.420356 
L 108.257328 187.729753 
L 108.51153 188.362278 
L 108.935198 189.758842 
L 109.274133 190.136192 
L 109.613068 190.972035 
L 110.036737 192.304629 
L 110.460406 192.523624 
L 110.968808 192.904712 
L 111.816146 192.398824 
L 112.070347 191.881295 
L 112.324548 191.178587 
L 112.663483 190.972247 
L 113.002418 190.46776 
L 113.341353 189.456608 
L 113.680288 188.70447 
L 114.188691 188.517797 
L 114.61236 188.327514 
L 115.713898 188.739053 
L 116.052833 189.095643 
L 116.476502 189.280622 
L 116.815437 189.649009 
L 117.32384 190.335767 
L 117.832242 190.550024 
L 118.594846 191.011002 
L 119.187982 191.256794 
L 119.781119 191.502618 
L 123.001001 191.752148 
L 123.933072 191.652934 
L 124.441475 191.520713 
L 124.865144 191.380808 
L 125.119345 191.129474 
L 125.288812 190.97403 
L 125.797215 190.805122 
L 126.13615 190.446329 
L 126.559819 189.855714 
L 126.983487 189.641838 
L 127.322422 189.242667 
L 127.661357 188.775107 
L 128.16976 188.621013 
L 128.84763 188.358143 
L 129.610234 188.487877 
L 129.864435 188.783804 
L 130.288104 189.322694 
L 130.711772 189.52535 
L 131.050708 189.919015 
L 131.304909 190.248618 
L 131.813311 190.422707 
L 132.999584 191.057882 
L 133.762188 190.948303 
L 134.440058 190.725662 
L 134.94846 190.505177 
L 135.372129 190.221399 
L 135.965265 190.053726 
L 136.558401 189.895996 
L 137.744674 189.94872 
L 138.422544 190.113132 
L 139.100414 190.443582 
L 139.608816 190.632472 
L 140.117219 190.876337 
L 140.710355 191.055653 
L 141.388225 191.334424 
L 142.066095 191.561905 
L 142.489764 191.655422 
L 143.591303 191.630864 
L 144.014972 191.510212 
L 144.608108 191.355392 
L 145.370712 190.993556 
L 145.879114 190.730267 
L 146.47225 190.247167 
L 147.234854 190.054332 
L 147.658523 190.036364 
L 148.421127 190.137918 
L 149.776867 190.879347 
L 149.946334 191.01194 
L 150.454737 191.150924 
L 150.878405 191.504537 
L 151.21734 191.831857 
L 151.810477 191.980407 
L 152.657814 192.27497 
L 153.420418 192.205885 
L 153.844087 192.069251 
L 154.437223 191.895492 
L 155.284561 191.465958 
L 155.708229 191.206352 
L 156.047164 191.027866 
L 156.725034 190.854409 
L 157.318171 190.70029 
L 158.250242 190.773628 
L 158.504443 190.843117 
L 159.182313 191.01331 
L 159.605982 191.408862 
L 159.775449 191.522035 
L 160.368586 191.670484 
L 161.215923 191.99893 
L 162.317462 192.121592 
L 162.910598 191.79545 
L 163.419001 191.526985 
L 164.096871 191.352533 
L 164.605273 191.182506 
L 167.147286 191.044393 
L 167.740422 191.208108 
L 167.994623 191.277374 
L 168.672493 191.429153 
L 169.435097 191.714344 
L 170.028233 191.938864 
L 170.282435 191.997927 
L 171.214506 192.163363 
L 171.892376 192.189769 
L 172.65498 192.093964 
L 173.502317 191.965716 
L 174.349655 191.711529 
L 176.7222 191.479519 
L 178.247407 191.621366 
L 179.264212 191.752158 
L 180.874154 191.9208 
L 182.738296 191.892858 
L 189.516996 191.694037 
L 192.059009 191.853514 
L 194.939956 191.880192 
L 197.566703 191.679393 
L 201.888124 191.699322 
L 203.667533 191.810848 
L 206.717948 191.79137 
L 209.514162 191.606105 
L 212.988245 191.649058 
L 214.682921 191.750691 
L 217.140199 191.655337 
L 222.393692 191.490754 
L 230.782333 191.415459 
L 233.748015 191.392015 
L 242.645059 191.31149 
L 245.356539 191.269448 
L 254.761985 191.167724 
L 258.405536 191.197514 
L 261.794886 191.175438 
L 269.166723 191.10764 
L 272.640807 191.09526 
L 276.538559 190.993271 
L 311.7878 190.860602 
L 348.81645 190.774494 
L 359.916571 190.768488 
L 359.916571 190.768488 
" clip-path="url(#p556fb74cae)" style="fill: none; stroke: #ff7f0e; stroke-width: 1.5; stroke-linecap: square"/>
   </g>
   <g id="patch_3">
    <path d="M 40.334753 228.96 
L 40.334753 7.2 
" style="fill: none; stroke: #000000; stroke-width: 0.8; stroke-linejoin: miter; stroke-linecap: square"/>
   </g>
   <g id="patch_4">
    <path d="M 375.134753 228.96 
L 375.134753 7.2 
" style="fill: none; stroke: #000000; stroke-width: 0.8; stroke-linejoin: miter; stroke-linecap: square"/>
   </g>
   <g id="patch_5">
    <path d="M 40.334753 228.96 
L 375.134753 228.96 
" style="fill: none; stroke: #000000; stroke-width: 0.8; stroke-linejoin: miter; stroke-linecap: square"/>
   </g>
   <g id="patch_6">
    <path d="M 40.334753 7.2 
L 375.134753 7.2 
" style="fill: none; stroke: #000000; stroke-width: 0.8; stroke-linejoin: miter; stroke-linecap: square"/>
   </g>
   <g id="legend_1">
    <g id="patch_7">
     <path d="M 321.748759 43.640613 
L 368.134753 43.640613 
Q 370.134753 43.640613 370.134753 41.640613 
L 370.134753 14.2 
Q 370.134753 12.2 368.134753 12.2 
L 321.748759 12.2 
Q 319.748759 12.2 319.748759 14.2 
L 319.748759 41.640613 
Q 319.748759 43.640613 321.748759 43.640613 
z
" style="fill: #ffffff; opacity: 0.8; stroke: #cccccc; stroke-linejoin: miter"/>
    </g>
    <g id="line2d_17">
     <path d="M 323.748759 19.79832 
L 333.748759 19.79832 
L 343.748759 19.79832 
" style="fill: none; stroke: #1f77b4; stroke-width: 1.5; stroke-linecap: square"/>
    </g>
    <g id="text_17">
     <!-- CD -->
     <g transform="translate(351.748759 23.29832) scale(0.1 -0.1)">
      <defs>
       <path id="NimbusSanL-Regu-44" d="M 570 0 
L 2368 0 
C 3546 0 4269 883 4269 2339 
C 4269 3788 3552 4672 2368 4672 
L 570 4672 
L 570 0 
z
M 1165 524 
L 1165 4147 
L 2266 4147 
C 3187 4147 3674 3525 3674 2332 
C 3674 1153 3187 524 2266 524 
L 1165 524 
z
" transform="scale(0.015625)"/>
      </defs>
      <use xlink:href="#NimbusSanL-Regu-43" transform="scale(0.996264)"/>
      <use xlink:href="#NimbusSanL-Regu-44" transform="translate(71.929985 0) scale(0.996264)"/>
     </g>
    </g>
    <g id="line2d_18">
     <path d="M 323.748759 34.018627 
L 333.748759 34.018627 
L 343.748759 34.018627 
" style="fill: none; stroke: #ff7f0e; stroke-width: 1.5; stroke-linecap: square"/>
    </g>
    <g id="text_18">
     <!-- CL -->
     <g transform="translate(351.748759 37.518627) scale(0.1 -0.1)">
      <defs>
       <path id="NimbusSanL-Regu-4c" d="M 1107 4672 
L 512 4672 
L 512 0 
L 3411 0 
L 3411 524 
L 1107 524 
L 1107 4672 
z
" transform="scale(0.015625)"/>
      </defs>
      <use xlink:href="#NimbusSanL-Regu-43" transform="scale(0.996264)"/>
      <use xlink:href="#NimbusSanL-Regu-4c" transform="translate(71.929985 0) scale(0.996264)"/>
     </g>
    </g>
   </g>
  </g>
 </g>
 <defs>
  <clipPath id="p556fb74cae">
   <rect x="40.334753" y="7.2" width="334.8" height="221.76"/>
  </clipPath>
 </defs>
</svg>
