<?xml version="1.0" encoding="utf-8" standalone="no"?>
<!DOCTYPE svg PUBLIC "-//W3C//DTD SVG 1.1//EN"
  "http://www.w3.org/Graphics/SVG/1.1/DTD/svg11.dtd">
<svg xmlns:xlink="http://www.w3.org/1999/xlink" width="387.316088pt" height="265.600613pt" viewBox="0 0 387.316088 265.600613" xmlns="http://www.w3.org/2000/svg" version="1.1">
 <metadata>
  <rdf:RDF xmlns:dc="http://purl.org/dc/elements/1.1/" xmlns:cc="http://creativecommons.org/ns#" xmlns:rdf="http://www.w3.org/1999/02/22-rdf-syntax-ns#">
   <cc:Work>
    <dc:type rdf:resource="http://purl.org/dc/dcmitype/StillImage"/>
    <dc:date>2025-07-17T20:28:40.399578</dc:date>
    <dc:format>image/svg+xml</dc:format>
    <dc:creator>
     <cc:Agent>
      <dc:title>Matplotlib v3.10.3, https://matplotlib.org/</dc:title>
     </cc:Agent>
    </dc:creator>
   </cc:Work>
  </rdf:RDF>
 </metadata>
 <defs>
  <style type="text/css">*{stroke-linejoin: round; stroke-linecap: butt}</style>
 </defs>
 <g id="figure_1">
  <g id="patch_1">
   <path d="M 0 265.600613 
L 387.316088 265.600613 
L 387.316088 -0 
L 0 -0 
z
" style="fill: #ffffff"/>
  </g>
  <g id="axes_1">
   <g id="patch_2">
    <path d="M 45.316088 228.96 
L 380.116088 228.96 
L 380.116088 7.2 
L 45.316088 7.2 
z
" style="fill: #ffffff"/>
   </g>
   <g id="matplotlib.axis_1">
    <g id="xtick_1">
     <g id="line2d_1">
      <defs>
       <path id="m2d781d1ce9" d="M 0 0 
L 0 3.5 
" style="stroke: #000000; stroke-width: 0.8"/>
      </defs>
      <g>
       <use xlink:href="#m2d781d1ce9" x="60.53427" y="228.96" style="stroke: #000000; stroke-width: 0.8"/>
      </g>
     </g>
     <g id="text_1">
      <!-- $\mathdefault{0}$ -->
      <g transform="translate(58.043602 243.05832) scale(0.1 -0.1)">
       <defs>
        <path id="CMR17-30" d="M 2688 2038 
C 2688 2430 2682 3099 2413 3613 
C 2176 4063 1798 4224 1466 4224 
C 1158 4224 768 4082 525 3620 
C 269 3137 243 2539 243 2038 
C 243 1671 250 1112 448 623 
C 723 -39 1216 -128 1466 -128 
C 1760 -128 2208 -7 2470 604 
C 2662 1048 2688 1568 2688 2038 
z
M 1466 -26 
C 1056 -26 813 328 723 816 
C 653 1196 653 1749 653 2109 
C 653 2604 653 3015 736 3407 
C 858 3954 1216 4121 1466 4121 
C 1728 4121 2067 3947 2189 3420 
C 2272 3054 2278 2623 2278 2109 
C 2278 1691 2278 1176 2202 797 
C 2067 96 1690 -26 1466 -26 
z
" transform="scale(0.015625)"/>
       </defs>
       <use xlink:href="#CMR17-30" transform="scale(0.996264)"/>
      </g>
     </g>
    </g>
    <g id="xtick_2">
     <g id="line2d_2">
      <g>
       <use xlink:href="#m2d781d1ce9" x="107.759039" y="228.96" style="stroke: #000000; stroke-width: 0.8"/>
      </g>
     </g>
     <g id="text_2">
      <!-- $\mathdefault{200}$ -->
      <g transform="translate(100.287036 243.05832) scale(0.1 -0.1)">
       <defs>
        <path id="CMR17-32" d="M 2669 990 
L 2554 990 
C 2490 537 2438 460 2413 422 
C 2381 371 1920 371 1830 371 
L 602 371 
C 832 620 1280 1073 1824 1596 
C 2214 1966 2669 2400 2669 3033 
C 2669 3788 2067 4224 1395 4224 
C 691 4224 262 3603 262 3027 
C 262 2777 448 2745 525 2745 
C 589 2745 781 2783 781 3007 
C 781 3206 614 3264 525 3264 
C 486 3264 448 3257 422 3244 
C 544 3788 915 4057 1306 4057 
C 1862 4057 2227 3616 2227 3033 
C 2227 2477 1901 1998 1536 1583 
L 262 147 
L 262 0 
L 2515 0 
L 2669 990 
z
" transform="scale(0.015625)"/>
       </defs>
       <use xlink:href="#CMR17-32" transform="scale(0.996264)"/>
       <use xlink:href="#CMR17-30" transform="translate(45.690477 0) scale(0.996264)"/>
       <use xlink:href="#CMR17-30" transform="translate(91.380954 0) scale(0.996264)"/>
      </g>
     </g>
    </g>
    <g id="xtick_3">
     <g id="line2d_3">
      <g>
       <use xlink:href="#m2d781d1ce9" x="154.983808" y="228.96" style="stroke: #000000; stroke-width: 0.8"/>
      </g>
     </g>
     <g id="text_3">
      <!-- $\mathdefault{400}$ -->
      <g transform="translate(147.511805 243.05832) scale(0.1 -0.1)">
       <defs>
        <path id="CMR17-34" d="M 2150 4147 
C 2150 4281 2144 4288 2029 4288 
L 128 1254 
L 128 1088 
L 1779 1088 
L 1779 460 
C 1779 230 1766 166 1318 166 
L 1197 166 
L 1197 0 
C 1402 12 1747 12 1965 12 
C 2182 12 2528 12 2733 0 
L 2733 166 
L 2611 166 
C 2163 166 2150 230 2150 460 
L 2150 1088 
L 2803 1088 
L 2803 1254 
L 2150 1254 
L 2150 4147 
z
M 1798 3723 
L 1798 1254 
L 256 1254 
L 1798 3723 
z
" transform="scale(0.015625)"/>
       </defs>
       <use xlink:href="#CMR17-34" transform="scale(0.996264)"/>
       <use xlink:href="#CMR17-30" transform="translate(45.690477 0) scale(0.996264)"/>
       <use xlink:href="#CMR17-30" transform="translate(91.380954 0) scale(0.996264)"/>
      </g>
     </g>
    </g>
    <g id="xtick_4">
     <g id="line2d_4">
      <g>
       <use xlink:href="#m2d781d1ce9" x="202.208577" y="228.96" style="stroke: #000000; stroke-width: 0.8"/>
      </g>
     </g>
     <g id="text_4">
      <!-- $\mathdefault{600}$ -->
      <g transform="translate(194.736574 243.05832) scale(0.1 -0.1)">
       <defs>
        <path id="CMR17-36" d="M 678 2198 
C 678 3712 1395 4076 1811 4076 
C 1946 4076 2272 4049 2400 3782 
C 2298 3782 2106 3782 2106 3558 
C 2106 3385 2246 3328 2336 3328 
C 2394 3328 2566 3353 2566 3571 
C 2566 3987 2246 4224 1805 4224 
C 1043 4224 243 3411 243 2011 
C 243 257 966 -128 1478 -128 
C 2099 -128 2688 431 2688 1295 
C 2688 2101 2170 2688 1517 2688 
C 1126 2688 838 2430 678 1979 
L 678 2198 
z
M 1478 25 
C 691 25 691 1212 691 1450 
C 691 1914 909 2585 1504 2585 
C 1613 2585 1926 2585 2138 2140 
C 2253 1889 2253 1624 2253 1302 
C 2253 954 2253 696 2118 438 
C 1978 173 1773 25 1478 25 
z
" transform="scale(0.015625)"/>
       </defs>
       <use xlink:href="#CMR17-36" transform="scale(0.996264)"/>
       <use xlink:href="#CMR17-30" transform="translate(45.690477 0) scale(0.996264)"/>
       <use xlink:href="#CMR17-30" transform="translate(91.380954 0) scale(0.996264)"/>
      </g>
     </g>
    </g>
    <g id="xtick_5">
     <g id="line2d_5">
      <g>
       <use xlink:href="#m2d781d1ce9" x="249.433346" y="228.96" style="stroke: #000000; stroke-width: 0.8"/>
      </g>
     </g>
     <g id="text_5">
      <!-- $\mathdefault{800}$ -->
      <g transform="translate(241.961343 243.05832) scale(0.1 -0.1)">
       <defs>
        <path id="CMR17-38" d="M 1741 2289 
C 2144 2494 2554 2803 2554 3298 
C 2554 3884 1990 4224 1472 4224 
C 890 4224 378 3800 378 3215 
C 378 3054 416 2777 666 2533 
C 730 2469 998 2276 1171 2154 
C 883 2006 211 1652 211 945 
C 211 282 838 -128 1459 -128 
C 2144 -128 2720 366 2720 1022 
C 2720 1607 2330 1877 2074 2051 
L 1741 2289 
z
M 902 2855 
C 851 2887 595 3086 595 3388 
C 595 3781 998 4076 1459 4076 
C 1965 4076 2336 3716 2336 3298 
C 2336 2700 1670 2359 1638 2359 
C 1632 2359 1626 2359 1574 2398 
L 902 2855 
z
M 2080 1536 
C 2176 1466 2483 1253 2483 861 
C 2483 385 2010 25 1472 25 
C 890 25 448 443 448 951 
C 448 1459 838 1884 1280 2083 
L 2080 1536 
z
" transform="scale(0.015625)"/>
       </defs>
       <use xlink:href="#CMR17-38" transform="scale(0.996264)"/>
       <use xlink:href="#CMR17-30" transform="translate(45.690477 0) scale(0.996264)"/>
       <use xlink:href="#CMR17-30" transform="translate(91.380954 0) scale(0.996264)"/>
      </g>
     </g>
    </g>
    <g id="xtick_6">
     <g id="line2d_6">
      <g>
       <use xlink:href="#m2d781d1ce9" x="296.658115" y="228.96" style="stroke: #000000; stroke-width: 0.8"/>
      </g>
     </g>
     <g id="text_6">
      <!-- $\mathdefault{1000}$ -->
      <g transform="translate(286.695445 243.05832) scale(0.1 -0.1)">
       <defs>
        <path id="CMR17-31" d="M 1702 4083 
C 1702 4217 1696 4224 1606 4224 
C 1357 3927 979 3833 621 3820 
C 602 3820 570 3820 563 3808 
C 557 3795 557 3782 557 3648 
C 755 3648 1088 3686 1344 3839 
L 1344 467 
C 1344 243 1331 166 781 166 
L 589 166 
L 589 0 
C 896 6 1216 12 1523 12 
C 1830 12 2150 6 2458 0 
L 2458 166 
L 2266 166 
C 1715 166 1702 236 1702 467 
L 1702 4083 
z
" transform="scale(0.015625)"/>
       </defs>
       <use xlink:href="#CMR17-31" transform="scale(0.996264)"/>
       <use xlink:href="#CMR17-30" transform="translate(45.690477 0) scale(0.996264)"/>
       <use xlink:href="#CMR17-30" transform="translate(91.380954 0) scale(0.996264)"/>
       <use xlink:href="#CMR17-30" transform="translate(137.071431 0) scale(0.996264)"/>
      </g>
     </g>
    </g>
    <g id="xtick_7">
     <g id="line2d_7">
      <g>
       <use xlink:href="#m2d781d1ce9" x="343.882884" y="228.96" style="stroke: #000000; stroke-width: 0.8"/>
      </g>
     </g>
     <g id="text_7">
      <!-- $\mathdefault{1200}$ -->
      <g transform="translate(333.920214 243.05832) scale(0.1 -0.1)">
       <use xlink:href="#CMR17-31" transform="scale(0.996264)"/>
       <use xlink:href="#CMR17-32" transform="translate(45.690477 0) scale(0.996264)"/>
       <use xlink:href="#CMR17-30" transform="translate(91.380954 0) scale(0.996264)"/>
       <use xlink:href="#CMR17-30" transform="translate(137.071431 0) scale(0.996264)"/>
      </g>
     </g>
    </g>
    <g id="text_8">
     <!-- Iteration -->
     <g transform="translate(194.768712 256.278627) scale(0.1 -0.1)">
      <defs>
       <path id="NimbusSanL-Regu-49" d="M 1242 4672 
L 640 4672 
L 640 0 
L 1242 0 
L 1242 4672 
z
" transform="scale(0.015625)"/>
       <path id="NimbusSanL-Regu-74" d="M 1626 3328 
L 1075 3328 
L 1075 4249 
L 544 4249 
L 544 3328 
L 90 3328 
L 90 2892 
L 544 2892 
L 544 402 
C 544 64 774 -128 1190 -128 
C 1318 -128 1446 -116 1626 -84 
L 1626 364 
C 1555 345 1472 339 1370 339 
C 1139 339 1075 402 1075 634 
L 1075 2892 
L 1626 2892 
L 1626 3328 
z
" transform="scale(0.015625)"/>
       <path id="NimbusSanL-Regu-65" d="M 3283 1484 
C 3283 1998 3245 2311 3149 2565 
C 2931 3123 2419 3456 1792 3456 
C 858 3456 256 2734 256 1619 
C 256 545 838 -128 1779 -128 
C 2547 -128 3078 307 3213 1018 
L 2675 1018 
C 2528 588 2227 364 1798 364 
C 1459 364 1171 514 992 787 
C 864 974 819 1161 813 1484 
L 3283 1484 
z
M 826 1920 
C 870 2552 1248 2963 1786 2963 
C 2310 2963 2714 2519 2714 1959 
C 2714 1946 2714 1933 2707 1920 
L 826 1920 
z
" transform="scale(0.015625)"/>
       <path id="NimbusSanL-Regu-72" d="M 442 3328 
L 442 0 
L 979 0 
L 979 1727 
C 979 2203 1101 2514 1357 2698 
C 1523 2819 1683 2857 2054 2863 
L 2054 3404 
C 1965 3449 1920 3456 1850 3456 
C 1504 3456 1242 3251 934 2750 
L 934 3328 
L 442 3328 
z
" transform="scale(0.015625)"/>
       <path id="NimbusSanL-Regu-61" d="M 3424 332 
C 3366 320 3341 320 3309 320 
C 3123 320 3021 415 3021 581 
L 3021 2542 
C 3021 3135 2586 3456 1760 3456 
C 1274 3456 870 3315 646 3065 
C 493 2893 429 2702 416 2370 
L 954 2370 
C 998 2778 1242 2963 1741 2963 
C 2221 2963 2490 2784 2490 2466 
L 2490 2326 
C 2490 2103 2355 2007 1933 1956 
C 1178 1861 1062 1835 858 1753 
C 467 1593 269 1294 269 861 
C 269 256 691 -128 1370 -128 
C 1792 -128 2131 19 2509 364 
C 2547 25 2714 -128 3059 -128 
C 3168 -128 3251 -116 3424 -71 
L 3424 332 
z
M 2490 1071 
C 2490 893 2438 785 2278 638 
C 2061 441 1798 339 1485 339 
C 1069 339 826 536 826 874 
C 826 1224 1062 1402 1632 1485 
C 2195 1562 2310 1587 2490 1670 
L 2490 1071 
z
" transform="scale(0.015625)"/>
       <path id="NimbusSanL-Regu-69" d="M 960 3358 
L 429 3358 
L 429 0 
L 960 0 
L 960 3358 
z
M 960 4672 
L 422 4672 
L 422 3999 
L 960 3999 
L 960 4672 
z
" transform="scale(0.015625)"/>
       <path id="NimbusSanL-Regu-6f" d="M 1741 3456 
C 800 3456 230 2784 230 1663 
C 230 543 794 -128 1747 -128 
C 2688 -128 3264 543 3264 1638 
C 3264 2791 2707 3456 1741 3456 
z
M 1747 2963 
C 2349 2963 2707 2472 2707 1644 
C 2707 861 2336 364 1747 364 
C 1152 364 787 855 787 1663 
C 787 2466 1152 2963 1747 2963 
z
" transform="scale(0.015625)"/>
       <path id="NimbusSanL-Regu-6e" d="M 448 3328 
L 448 0 
L 986 0 
L 986 1835 
C 986 2539 1344 2988 1894 2988 
C 2317 2988 2586 2732 2586 2328 
L 2586 0 
L 3117 0 
L 3117 2539 
C 3117 3097 2701 3456 2054 3456 
C 1555 3456 1235 3263 941 2796 
L 941 3328 
L 448 3328 
z
" transform="scale(0.015625)"/>
      </defs>
      <use xlink:href="#NimbusSanL-Regu-49" transform="scale(0.996264)"/>
      <use xlink:href="#NimbusSanL-Regu-74" transform="translate(27.69517 0) scale(0.996264)"/>
      <use xlink:href="#NimbusSanL-Regu-65" transform="translate(55.390339 0) scale(0.996264)"/>
      <use xlink:href="#NimbusSanL-Regu-72" transform="translate(110.782016 0) scale(0.996264)"/>
      <use xlink:href="#NimbusSanL-Regu-61" transform="translate(142.961149 0) scale(0.996264)"/>
      <use xlink:href="#NimbusSanL-Regu-74" transform="translate(198.352826 0) scale(0.996264)"/>
      <use xlink:href="#NimbusSanL-Regu-69" transform="translate(226.047996 0) scale(0.996264)"/>
      <use xlink:href="#NimbusSanL-Regu-6f" transform="translate(248.16478 0) scale(0.996264)"/>
      <use xlink:href="#NimbusSanL-Regu-6e" transform="translate(303.556457 0) scale(0.996264)"/>
     </g>
    </g>
   </g>
   <g id="matplotlib.axis_2">
    <g id="ytick_1">
     <g id="line2d_8">
      <defs>
       <path id="m3abebf41f9" d="M 0 0 
L -3.5 0 
" style="stroke: #000000; stroke-width: 0.8"/>
      </defs>
      <g>
       <use xlink:href="#m3abebf41f9" x="45.316088" y="216.92219" style="stroke: #000000; stroke-width: 0.8"/>
      </g>
     </g>
     <g id="text_9">
      <!-- $\mathdefault{−25}$ -->
      <g transform="translate(20.604674 220.47135) scale(0.1 -0.1)">
       <defs>
        <path id="CMSY10-0" d="M 4218 1472 
C 4326 1472 4442 1472 4442 1600 
C 4442 1728 4326 1728 4218 1728 
L 755 1728 
C 646 1728 531 1728 531 1600 
C 531 1472 646 1472 755 1472 
L 4218 1472 
z
" transform="scale(0.015625)"/>
        <path id="CMR17-35" d="M 730 3750 
C 794 3724 1056 3641 1325 3641 
C 1920 3641 2246 3961 2432 4140 
C 2432 4191 2432 4224 2394 4224 
C 2387 4224 2374 4224 2323 4198 
C 2099 4102 1837 4032 1517 4032 
C 1325 4032 1037 4055 723 4191 
C 653 4224 640 4224 634 4224 
C 602 4224 595 4217 595 4090 
L 595 2231 
C 595 2113 595 2080 659 2080 
C 691 2080 704 2093 736 2139 
C 941 2435 1222 2560 1542 2560 
C 1766 2560 2246 2415 2246 1293 
C 2246 1087 2246 716 2054 422 
C 1894 159 1645 25 1370 25 
C 947 25 518 319 403 812 
C 429 806 480 793 506 793 
C 589 793 749 838 749 1036 
C 749 1209 627 1280 506 1280 
C 358 1280 262 1190 262 1011 
C 262 454 704 -128 1382 -128 
C 2042 -128 2669 441 2669 1267 
C 2669 2054 2170 2662 1549 2662 
C 1222 2662 947 2540 730 2304 
L 730 3750 
z
" transform="scale(0.015625)"/>
       </defs>
       <use xlink:href="#CMSY10-0" transform="scale(0.996264)"/>
       <use xlink:href="#CMR17-32" transform="translate(77.487468 0) scale(0.996264)"/>
       <use xlink:href="#CMR17-35" transform="translate(123.177945 0) scale(0.996264)"/>
      </g>
     </g>
    </g>
    <g id="ytick_2">
     <g id="line2d_9">
      <g>
       <use xlink:href="#m3abebf41f9" x="45.316088" y="189.69134" style="stroke: #000000; stroke-width: 0.8"/>
      </g>
     </g>
     <g id="text_10">
      <!-- $\mathdefault{−20}$ -->
      <g transform="translate(20.604674 193.2405) scale(0.1 -0.1)">
       <use xlink:href="#CMSY10-0" transform="scale(0.996264)"/>
       <use xlink:href="#CMR17-32" transform="translate(77.487468 0) scale(0.996264)"/>
       <use xlink:href="#CMR17-30" transform="translate(123.177945 0) scale(0.996264)"/>
      </g>
     </g>
    </g>
    <g id="ytick_3">
     <g id="line2d_10">
      <g>
       <use xlink:href="#m3abebf41f9" x="45.316088" y="162.46049" style="stroke: #000000; stroke-width: 0.8"/>
      </g>
     </g>
     <g id="text_11">
      <!-- $\mathdefault{−15}$ -->
      <g transform="translate(20.604674 166.00965) scale(0.1 -0.1)">
       <use xlink:href="#CMSY10-0" transform="scale(0.996264)"/>
       <use xlink:href="#CMR17-31" transform="translate(77.487468 0) scale(0.996264)"/>
       <use xlink:href="#CMR17-35" transform="translate(123.177945 0) scale(0.996264)"/>
      </g>
     </g>
    </g>
    <g id="ytick_4">
     <g id="line2d_11">
      <g>
       <use xlink:href="#m3abebf41f9" x="45.316088" y="135.22964" style="stroke: #000000; stroke-width: 0.8"/>
      </g>
     </g>
     <g id="text_12">
      <!-- $\mathdefault{−10}$ -->
      <g transform="translate(20.604674 138.7788) scale(0.1 -0.1)">
       <use xlink:href="#CMSY10-0" transform="scale(0.996264)"/>
       <use xlink:href="#CMR17-31" transform="translate(77.487468 0) scale(0.996264)"/>
       <use xlink:href="#CMR17-30" transform="translate(123.177945 0) scale(0.996264)"/>
      </g>
     </g>
    </g>
    <g id="ytick_5">
     <g id="line2d_12">
      <g>
       <use xlink:href="#m3abebf41f9" x="45.316088" y="107.99879" style="stroke: #000000; stroke-width: 0.8"/>
      </g>
     </g>
     <g id="text_13">
      <!-- $\mathdefault{−5}$ -->
      <g transform="translate(25.586009 111.54795) scale(0.1 -0.1)">
       <use xlink:href="#CMSY10-0" transform="scale(0.996264)"/>
       <use xlink:href="#CMR17-35" transform="translate(77.487468 0) scale(0.996264)"/>
      </g>
     </g>
    </g>
    <g id="ytick_6">
     <g id="line2d_13">
      <g>
       <use xlink:href="#m3abebf41f9" x="45.316088" y="80.76794" style="stroke: #000000; stroke-width: 0.8"/>
      </g>
     </g>
     <g id="text_14">
      <!-- $\mathdefault{0}$ -->
      <g transform="translate(33.334753 84.3171) scale(0.1 -0.1)">
       <use xlink:href="#CMR17-30" transform="scale(0.996264)"/>
      </g>
     </g>
    </g>
    <g id="ytick_7">
     <g id="line2d_14">
      <g>
       <use xlink:href="#m3abebf41f9" x="45.316088" y="53.53709" style="stroke: #000000; stroke-width: 0.8"/>
      </g>
     </g>
     <g id="text_15">
      <!-- $\mathdefault{5}$ -->
      <g transform="translate(33.334753 57.08625) scale(0.1 -0.1)">
       <use xlink:href="#CMR17-35" transform="scale(0.996264)"/>
      </g>
     </g>
    </g>
    <g id="ytick_8">
     <g id="line2d_15">
      <g>
       <use xlink:href="#m3abebf41f9" x="45.316088" y="26.30624" style="stroke: #000000; stroke-width: 0.8"/>
      </g>
     </g>
     <g id="text_16">
      <!-- $\mathdefault{10}$ -->
      <g transform="translate(28.353418 29.8554) scale(0.1 -0.1)">
       <use xlink:href="#CMR17-31" transform="scale(0.996264)"/>
       <use xlink:href="#CMR17-30" transform="translate(45.690477 0) scale(0.996264)"/>
      </g>
     </g>
    </g>
    <g id="text_17">
     <!-- Aerodynamic Coefficients - Blade_18 -->
     <g transform="translate(14.482687 199.050447) rotate(-90) scale(0.1 -0.1)">
      <defs>
       <path id="NimbusSanL-Regu-41" d="M 3034 1408 
L 3514 0 
L 4179 0 
L 2541 4672 
L 1773 4672 
L 109 0 
L 742 0 
L 1235 1408 
L 3034 1408 
z
M 2867 1907 
L 1382 1907 
L 2150 4032 
L 2867 1907 
z
" transform="scale(0.015625)"/>
       <path id="NimbusSanL-Regu-64" d="M 3168 4672 
L 2637 4672 
L 2637 2937 
C 2413 3276 2054 3456 1606 3456 
C 736 3456 166 2759 166 1695 
C 166 568 723 -128 1626 -128 
C 2086 -128 2406 44 2694 460 
L 2694 19 
L 3168 19 
L 3168 4672 
z
M 1696 2956 
C 2272 2956 2637 2447 2637 1651 
C 2637 880 2266 371 1702 371 
C 1114 371 723 887 723 1663 
C 723 2440 1114 2956 1696 2956 
z
" transform="scale(0.015625)"/>
       <path id="NimbusSanL-Regu-79" d="M 2483 3328 
L 1555 724 
L 698 3328 
L 128 3328 
L 1261 -29 
L 1056 -558 
C 973 -794 851 -884 627 -884 
C 550 -884 461 -871 346 -845 
L 346 -1325 
C 454 -1383 563 -1408 704 -1408 
C 877 -1408 1062 -1351 1203 -1248 
C 1370 -1127 1466 -986 1568 -718 
L 3059 3328 
L 2483 3328 
z
" transform="scale(0.015625)"/>
       <path id="NimbusSanL-Regu-6d" d="M 448 3328 
L 448 0 
L 986 0 
L 986 2089 
C 986 2597 1338 2988 1773 2988 
C 2170 2988 2394 2744 2394 2315 
L 2394 0 
L 2931 0 
L 2931 2109 
C 2931 2597 3283 2988 3718 2988 
C 4109 2988 4339 2738 4339 2315 
L 4339 0 
L 4877 0 
L 4877 2520 
C 4877 3123 4531 3456 3904 3456 
C 3456 3456 3187 3321 2874 2943 
C 2675 3302 2406 3456 1971 3456 
C 1523 3456 1229 3289 941 2886 
L 941 3328 
L 448 3328 
z
" transform="scale(0.015625)"/>
       <path id="NimbusSanL-Regu-63" d="M 3014 2237 
C 2989 2561 2918 2771 2790 2956 
C 2560 3270 2157 3456 1690 3456 
C 787 3456 198 2740 198 1632 
C 198 555 774 -128 1683 -128 
C 2483 -128 2989 352 3053 1167 
L 2515 1167 
C 2426 632 2150 364 1696 364 
C 1107 364 755 842 755 1632 
C 755 2466 1101 2963 1683 2963 
C 2131 2963 2413 2701 2477 2237 
L 3014 2237 
z
" transform="scale(0.015625)"/>
       <path id="NimbusSanL-Regu-43" d="M 4237 3219 
C 4051 4236 3462 4736 2438 4736 
C 1811 4736 1306 4537 960 4154 
C 538 3696 307 3035 307 2284 
C 307 1522 544 867 986 415 
C 1344 44 1805 -128 2413 -128 
C 3552 -128 4192 485 4333 1712 
L 3718 1712 
C 3667 1394 3603 1178 3507 994 
C 3315 612 2918 396 2419 396 
C 1491 396 902 1134 902 2291 
C 902 3480 1466 4211 2368 4211 
C 2746 4211 3098 4096 3290 3918 
C 3462 3759 3558 3562 3629 3219 
L 4237 3219 
z
" transform="scale(0.015625)"/>
       <path id="NimbusSanL-Regu-66" d="M 1651 3328 
L 1094 3328 
L 1094 3860 
C 1094 4087 1222 4204 1466 4204 
C 1510 4204 1530 4204 1651 4198 
L 1651 4639 
C 1530 4665 1459 4672 1350 4672 
C 858 4672 563 4390 563 3905 
L 563 3328 
L 115 3328 
L 115 2892 
L 563 2892 
L 563 0 
L 1094 0 
L 1094 2892 
L 1651 2892 
L 1651 3328 
z
" transform="scale(0.015625)"/>
       <path id="NimbusSanL-Regu-2" d="M 1613 3328 
L 1056 3328 
L 1056 3860 
C 1056 4087 1184 4204 1427 4204 
C 1472 4204 1491 4204 1613 4198 
L 1613 4639 
C 1491 4665 1421 4672 1312 4672 
C 819 4672 525 4390 525 3905 
L 525 3328 
L 77 3328 
L 77 2892 
L 525 2892 
L 525 0 
L 1056 0 
L 1056 2892 
L 1613 2892 
L 1613 3328 
z
M 2790 3328 
L 2259 3328 
L 2259 0 
L 2790 0 
L 2790 3328 
z
M 2790 4672 
L 2259 4672 
L 2259 3999 
L 2790 3999 
L 2790 4672 
z
" transform="scale(0.015625)"/>
       <path id="NimbusSanL-Regu-73" d="M 2803 2428 
C 2797 3084 2362 3456 1587 3456 
C 806 3456 301 3052 301 2434 
C 301 1912 570 1663 1363 1472 
L 1862 1351 
C 2234 1262 2381 1129 2381 887 
C 2381 574 2067 364 1600 364 
C 1312 364 1069 447 934 587 
C 851 683 813 778 781 1014 
L 218 1014 
C 243 243 678 -128 1555 -128 
C 2400 -128 2938 288 2938 931 
C 2938 1428 2656 1702 1990 1861 
L 1478 1982 
C 1043 2084 858 2224 858 2459 
C 858 2765 1133 2963 1568 2963 
C 1997 2963 2227 2778 2240 2428 
L 2803 2428 
z
" transform="scale(0.015625)"/>
       <path id="NimbusSanL-Regu-2d" d="M 1818 1996 
L 294 1996 
L 294 1536 
L 1818 1536 
L 1818 1996 
z
" transform="scale(0.015625)"/>
       <path id="NimbusSanL-Regu-42" d="M 506 0 
L 2611 0 
C 3053 0 3379 121 3629 390 
C 3859 632 3987 961 3987 1321 
C 3987 1878 3731 2214 3136 2444 
C 3558 2643 3782 2994 3782 3476 
C 3782 3821 3654 4127 3411 4345 
C 3168 4569 2848 4672 2400 4672 
L 506 4672 
L 506 0 
z
M 1101 2636 
L 1101 4147 
L 2253 4147 
C 2586 4147 2771 4101 2931 3977 
C 3098 3847 3187 3652 3187 3391 
C 3187 3138 3098 2936 2931 2806 
C 2771 2682 2586 2636 2253 2636 
L 1101 2636 
z
M 1101 524 
L 1101 2112 
L 2554 2112 
C 2842 2112 3034 2042 3174 1890 
C 3315 1745 3392 1542 3392 1315 
C 3392 1093 3315 891 3174 746 
C 3034 594 2842 524 2554 524 
L 1101 524 
z
" transform="scale(0.015625)"/>
       <path id="NimbusSanL-Regu-6c" d="M 973 4672 
L 435 4672 
L 435 0 
L 973 0 
L 973 4672 
z
" transform="scale(0.015625)"/>
       <path id="NimbusSanL-Regu-31" d="M 1658 3232 
L 1658 0 
L 2221 0 
L 2221 4537 
L 1850 4537 
C 1651 3840 1523 3744 653 3635 
L 653 3232 
L 1658 3232 
z
" transform="scale(0.015625)"/>
       <path id="NimbusSanL-Regu-38" d="M 2502 2399 
C 2970 2681 3123 2910 3123 3337 
C 3123 4044 2566 4544 1760 4544 
C 960 4544 397 4044 397 3337 
C 397 2917 550 2687 1011 2399 
C 493 2150 237 1774 237 1276 
C 237 447 864 -128 1760 -128 
C 2656 -128 3283 447 3283 1270 
C 3283 1774 3027 2150 2502 2399 
z
M 1760 4044 
C 2240 4044 2547 3764 2547 3324 
C 2547 2904 2234 2624 1760 2624 
C 1286 2624 973 2904 973 3331 
C 973 3764 1286 4044 1760 4044 
z
M 1760 2150 
C 2323 2150 2707 1793 2707 1264 
C 2707 728 2323 371 1747 371 
C 1197 371 813 734 813 1264 
C 813 1793 1197 2150 1760 2150 
z
" transform="scale(0.015625)"/>
      </defs>
      <use xlink:href="#NimbusSanL-Regu-41" transform="scale(0.996264)"/>
      <use xlink:href="#NimbusSanL-Regu-65" transform="translate(66.450031 0) scale(0.996264)"/>
      <use xlink:href="#NimbusSanL-Regu-72" transform="translate(121.841708 0) scale(0.996264)"/>
      <use xlink:href="#NimbusSanL-Regu-6f" transform="translate(155.016938 0) scale(0.996264)"/>
      <use xlink:href="#NimbusSanL-Regu-64" transform="translate(210.408615 0) scale(0.996264)"/>
      <use xlink:href="#NimbusSanL-Regu-79" transform="translate(265.800292 0) scale(0.996264)"/>
      <use xlink:href="#NimbusSanL-Regu-6e" transform="translate(315.613492 0) scale(0.996264)"/>
      <use xlink:href="#NimbusSanL-Regu-61" transform="translate(371.005169 0) scale(0.996264)"/>
      <use xlink:href="#NimbusSanL-Regu-6d" transform="translate(426.396846 0) scale(0.996264)"/>
      <use xlink:href="#NimbusSanL-Regu-69" transform="translate(509.385276 0) scale(0.996264)"/>
      <use xlink:href="#NimbusSanL-Regu-63" transform="translate(531.502061 0) scale(0.996264)"/>
      <use xlink:href="#NimbusSanL-Regu-43" transform="translate(609.010431 0) scale(0.996264)"/>
      <use xlink:href="#NimbusSanL-Regu-6f" transform="translate(680.940416 0) scale(0.996264)"/>
      <use xlink:href="#NimbusSanL-Regu-65" transform="translate(736.332093 0) scale(0.996264)"/>
      <use xlink:href="#NimbusSanL-Regu-66" transform="translate(791.72377 0) scale(0.996264)"/>
      <use xlink:href="#NimbusSanL-Regu-2" transform="translate(819.418939 0) scale(0.996264)"/>
      <use xlink:href="#NimbusSanL-Regu-63" transform="translate(869.23214 0) scale(0.996264)"/>
      <use xlink:href="#NimbusSanL-Regu-69" transform="translate(919.04534 0) scale(0.996264)"/>
      <use xlink:href="#NimbusSanL-Regu-65" transform="translate(941.162125 0) scale(0.996264)"/>
      <use xlink:href="#NimbusSanL-Regu-6e" transform="translate(996.553802 0) scale(0.996264)"/>
      <use xlink:href="#NimbusSanL-Regu-74" transform="translate(1051.945479 0) scale(0.996264)"/>
      <use xlink:href="#NimbusSanL-Regu-73" transform="translate(1079.640648 0) scale(0.996264)"/>
      <use xlink:href="#NimbusSanL-Regu-2d" transform="translate(1157.149018 0) scale(0.996264)"/>
      <use xlink:href="#NimbusSanL-Regu-42" transform="translate(1218.019418 0) scale(0.996264)"/>
      <use xlink:href="#NimbusSanL-Regu-6c" transform="translate(1284.469449 0) scale(0.996264)"/>
      <use xlink:href="#NimbusSanL-Regu-61" transform="translate(1306.586233 0) scale(0.996264)"/>
      <use xlink:href="#NimbusSanL-Regu-64" transform="translate(1361.97791 0) scale(0.996264)"/>
      <use xlink:href="#NimbusSanL-Regu-65" transform="translate(1417.369587 0) scale(0.996264)"/>
      <use xlink:href="#NimbusSanL-Regu-31" transform="translate(1508.626829 0) scale(0.996264)"/>
      <use xlink:href="#NimbusSanL-Regu-38" transform="translate(1564.018506 0) scale(0.996264)"/>
      <path d="M 1478.738605 0 
L 1508.626829 0 
L 1508.626829 0.3985 
L 1478.738605 0.3985 
L 1478.738605 0 
z
"/>
     </g>
    </g>
   </g>
   <g id="line2d_16">
    <path d="M 60.53427 57.554112 
L 61.006518 23.889065 
L 61.242641 17.28 
L 61.478765 18.38766 
L 61.951013 22.953832 
L 62.895508 24.152926 
L 63.367756 24.724972 
L 63.840004 25.674571 
L 64.312251 27.280442 
L 64.784499 30.233602 
L 65.020623 32.958098 
L 65.492871 33.441733 
L 65.965118 34.292209 
L 66.437366 35.755429 
L 66.909614 38.217147 
L 67.381861 42.287846 
L 67.854109 48.334633 
L 68.326357 48.913028 
L 68.798605 49.78651 
L 69.270852 51.085858 
L 69.7431 52.920925 
L 71.395967 60.360067 
L 72.104338 60.636012 
L 72.576586 60.978997 
L 73.048834 61.552331 
L 73.757205 62.899653 
L 74.229453 63.786008 
L 75.646196 64.07447 
L 76.590691 64.25232 
L 77.062939 64.046055 
L 77.299063 63.844225 
L 78.715806 63.656365 
L 79.660301 63.342916 
L 80.604797 62.954547 
L 83.674407 62.819255 
L 83.910531 62.649369 
L 85.09115 62.506514 
L 85.799521 62.23503 
L 86.271769 61.827437 
L 86.744017 60.963404 
L 86.980141 60.185446 
L 87.216264 59.019763 
L 87.924636 58.66643 
L 88.396884 58.218833 
L 88.869131 57.47238 
L 89.341379 56.259953 
L 89.813627 54.413073 
L 90.521998 51.286066 
L 92.174865 50.8837 
L 92.410989 50.943054 
L 92.647113 51.132252 
L 92.883237 51.537478 
L 93.119361 52.281311 
L 93.355484 53.521306 
L 93.591608 55.424985 
L 94.063856 55.76926 
L 94.536104 56.342969 
L 95.008351 57.286037 
L 95.480599 58.794662 
L 95.952847 61.130206 
L 96.425094 64.681766 
L 96.661218 67.138444 
L 97.133466 67.578879 
L 97.605714 68.260959 
L 98.077961 69.324625 
L 98.550209 70.971343 
L 99.022457 73.461351 
L 99.494704 77.067519 
L 99.966952 82.182855 
L 100.4392 82.667271 
L 100.911447 83.406388 
L 101.383695 84.544535 
L 101.855943 86.274672 
L 102.328191 88.781056 
L 103.036562 94.033287 
L 103.744934 94.604922 
L 104.217181 95.207138 
L 104.689429 96.077215 
L 105.3978 98.046153 
L 106.106172 100.485721 
L 107.286791 100.919322 
L 108.46741 101.430717 
L 108.703534 101.409227 
L 108.939658 101.257793 
L 109.175782 100.912735 
L 109.411906 100.29219 
L 109.64803 99.310121 
L 110.356401 98.997269 
L 110.828649 98.603521 
L 111.300897 97.956377 
L 111.773144 96.924895 
L 112.245392 95.366285 
L 113.662135 89.740158 
L 114.370507 89.281776 
L 114.842754 88.756612 
L 115.315002 87.9671 
L 115.78725 86.837648 
L 116.259497 85.283255 
L 116.495621 84.282087 
L 117.203993 83.983217 
L 117.912364 83.414454 
L 118.384612 82.769641 
L 118.85686 81.784783 
L 119.329107 80.292491 
L 119.565231 79.272143 
L 120.273603 78.958063 
L 120.981974 78.360622 
L 121.454222 77.684804 
L 121.92647 76.655785 
L 122.398717 75.120642 
L 122.870965 72.927767 
L 123.579337 72.576116 
L 124.287708 71.925579 
L 124.759956 71.226251 
L 125.468327 69.680988 
L 125.940575 68.477489 
L 127.121194 68.154174 
L 128.774061 67.529529 
L 129.010185 67.657026 
L 129.482433 68.353669 
L 129.718557 68.905903 
L 130.663052 69.174545 
L 131.371423 69.585128 
L 132.079795 70.270895 
L 133.496538 71.84159 
L 133.968786 71.945399 
L 136.0939 71.953478 
L 136.566148 71.768134 
L 136.802272 71.584844 
L 138.219015 71.413691 
L 138.927387 71.130752 
L 139.635758 70.531054 
L 140.34413 69.662559 
L 141.760873 69.447857 
L 142.941492 69.172097 
L 144.830483 69.398625 
L 146.011102 69.325973 
L 146.48335 69.129507 
L 146.719473 68.879162 
L 147.900093 68.692594 
L 148.608464 68.34201 
L 149.080712 67.861335 
L 149.55296 66.993327 
L 149.789083 66.356101 
L 150.733579 66.078172 
L 151.44195 65.611901 
L 152.150322 64.80299 
L 153.094817 63.439333 
L 154.747684 63.206305 
L 155.456056 63.122314 
L 155.928303 63.297064 
L 156.164427 63.507135 
L 156.400551 63.877389 
L 157.345046 64.054774 
L 158.053418 64.408037 
L 158.525666 64.857581 
L 158.997913 65.615367 
L 159.470161 66.925111 
L 160.414656 71.211789 
L 160.65078 72.543666 
L 161.359152 72.889116 
L 161.831399 73.321623 
L 162.303647 73.987759 
L 162.775895 74.930033 
L 163.484266 76.98301 
L 164.192638 79.170151 
L 165.137133 79.410559 
L 166.081629 79.944364 
L 167.026124 80.68239 
L 167.262248 80.698592 
L 167.498372 80.452059 
L 168.442867 80.296638 
L 169.151239 79.946508 
L 169.623486 79.441257 
L 170.095734 78.414017 
L 170.804106 75.799225 
L 171.512477 75.570772 
L 172.220849 75.11418 
L 172.92922 74.327664 
L 173.401468 73.400655 
L 173.873716 72.305247 
L 177.415573 72.195869 
L 179.540688 71.86247 
L 180.485183 71.854279 
L 180.957431 72.018965 
L 181.429679 72.419878 
L 181.665802 72.836009 
L 182.846422 72.866584 
L 186.152156 72.987727 
L 187.096651 73.191717 
L 187.805022 73.564624 
L 188.041146 73.86666 
L 188.27727 74.419005 
L 188.749518 76.553384 
L 189.694013 82.304716 
L 190.166261 86.684373 
L 190.638509 87.022833 
L 191.110756 87.737645 
L 191.583004 89.001018 
L 192.055252 91.109487 
L 192.527499 95.138952 
L 192.999747 102.72482 
L 193.471995 112.379931 
L 193.944242 112.947599 
L 194.41649 114.104898 
L 196.305481 114.270309 
L 197.249976 114.596353 
L 197.958348 115.119212 
L 198.666719 116.044743 
L 199.138967 116.985064 
L 199.611215 118.280509 
L 200.083462 120.119769 
L 200.55571 122.991449 
L 201.500205 130.004269 
L 201.736329 130.357966 
L 202.916949 130.195186 
L 203.389196 129.9507 
L 203.861444 129.341021 
L 204.333692 128.190706 
L 204.805939 126.647951 
L 205.514311 126.462937 
L 206.458806 125.911086 
L 206.69493 125.787879 
L 206.931054 125.803043 
L 207.167178 126.20278 
L 207.403302 127.412445 
L 207.875549 127.626543 
L 208.347797 128.050907 
L 208.820045 128.870009 
L 209.292292 130.392797 
L 209.76454 133.064385 
L 210.236788 137.358956 
L 210.709035 144.295447 
L 211.181283 144.86969 
L 211.653531 145.898851 
L 212.125778 147.647902 
L 212.598026 150.362778 
L 213.070274 154.201669 
L 214.250893 165.986095 
L 214.959265 166.202079 
L 216.139884 166.667004 
L 216.612132 166.638008 
L 216.848255 166.95409 
L 217.084379 167.902974 
L 217.320503 169.725013 
L 217.792751 170.017353 
L 218.264998 170.573117 
L 218.737246 171.5583 
L 219.209494 173.157762 
L 219.681742 175.747436 
L 219.917865 177.761871 
L 220.153989 177.903238 
L 230.071191 178.472001 
L 238.807773 179.20862 
L 257.697681 181.108073 
L 276.351464 183.138165 
L 302.561211 186.270503 
L 322.15949 188.762752 
L 322.867862 189.108069 
L 323.576233 189.685695 
L 324.284605 190.616988 
L 324.992976 192.037509 
L 325.465224 193.371494 
L 325.937472 195.437135 
L 326.40972 198.913477 
L 326.645843 201.106139 
L 327.354215 201.782607 
L 327.826463 202.521762 
L 328.29871 203.57638 
L 329.007082 205.8644 
L 329.47933 208.175836 
L 330.423825 213.70827 
L 330.896073 214.096439 
L 331.36832 214.717359 
L 331.840568 215.6445 
L 333.257311 218.828281 
L 333.493435 218.88 
L 333.729559 218.39869 
L 333.965683 217.428315 
L 334.674054 217.07898 
L 335.146302 216.590188 
L 335.618549 215.696208 
L 336.090797 214.034975 
L 336.563045 210.894458 
L 337.271416 210.309935 
L 337.743664 209.606876 
L 338.215912 208.462217 
L 338.688159 206.589604 
L 339.160407 203.472742 
L 339.632655 198.266973 
L 339.868779 194.564738 
L 340.341026 193.92549 
L 349.549856 192.637523 
L 350.966599 192.310134 
L 351.674971 192.129817 
L 356.397448 191.21599 
L 357.105819 190.885252 
L 357.814191 190.305953 
L 358.286439 189.69754 
L 358.758686 188.822353 
L 359.230934 187.566661 
L 359.703182 185.762461 
L 360.175429 183.177835 
L 360.647677 179.545399 
L 361.119925 174.691821 
L 361.828296 173.976343 
L 362.300544 173.195704 
L 362.772792 172.052486 
L 363.481163 169.568187 
L 363.953411 167.837861 
L 364.189535 167.637358 
L 364.425659 169.111542 
L 364.897906 169.467449 
L 364.897906 169.467449 
" clip-path="url(#p80a86b4ffa)" style="fill: none; stroke: #1f77b4; stroke-width: 1.5; stroke-linecap: square"/>
   </g>
   <g id="line2d_17">
    <path d="M 60.53427 81.525601 
L 61.006518 84.288968 
L 61.478765 83.597758 
L 61.714889 83.492053 
L 61.951013 83.754549 
L 62.659385 83.840622 
L 63.367756 84.161384 
L 63.840004 84.588111 
L 64.312251 85.413825 
L 64.784499 86.843231 
L 65.020623 87.743916 
L 65.728995 87.966118 
L 66.437366 88.441205 
L 67.854109 89.805322 
L 69.270852 89.744711 
L 69.7431 89.599022 
L 70.215348 89.187449 
L 70.687595 88.27915 
L 71.159843 86.676093 
L 71.395967 85.441019 
L 71.868214 85.120156 
L 72.340462 84.539493 
L 72.81271 83.502614 
L 73.284958 81.732269 
L 73.757205 78.932352 
L 74.229453 75.451958 
L 74.937824 74.912891 
L 75.410072 74.279426 
L 76.118444 72.781713 
L 77.299063 70.027801 
L 78.479682 69.86407 
L 80.604797 69.419775 
L 83.202159 69.54353 
L 83.674407 69.738652 
L 83.910531 69.924348 
L 85.327274 70.132578 
L 86.035645 70.443837 
L 86.507893 70.884416 
L 86.980141 71.817383 
L 87.216264 72.671874 
L 87.924636 72.925369 
L 88.396884 73.263279 
L 88.869131 73.836772 
L 89.341379 74.794153 
L 89.813627 76.392853 
L 90.285874 78.902318 
L 90.521998 80.42137 
L 91.23037 80.826771 
L 91.938741 81.599781 
L 92.883237 83.232594 
L 93.591608 84.383025 
L 95.008351 84.636975 
L 95.716723 84.938118 
L 96.188971 85.284342 
L 96.897342 85.964912 
L 97.841837 86.207231 
L 98.550209 86.616167 
L 99.022457 87.103939 
L 99.494704 87.846452 
L 99.966952 88.895038 
L 100.911447 89.141347 
L 101.619819 89.511809 
L 102.564314 90.344711 
L 103.036562 90.671673 
L 104.925553 90.652758 
L 105.3978 90.488895 
L 105.870048 89.980125 
L 106.106172 89.451156 
L 107.050667 89.175634 
L 107.759039 88.687364 
L 108.231287 88.083871 
L 108.703534 87.09158 
L 109.175782 85.539695 
L 109.64803 83.408107 
L 110.356401 83.092349 
L 111.064773 82.503098 
L 111.773144 81.524843 
L 112.953764 79.62957 
L 113.426011 79.176412 
L 116.495621 79.104643 
L 117.912364 79.226409 
L 118.620736 79.429256 
L 119.092984 79.701685 
L 119.801355 80.235204 
L 120.981974 80.488894 
L 121.690346 80.868884 
L 122.162594 81.311764 
L 122.634841 82.014205 
L 122.870965 82.509253 
L 123.81546 82.73433 
L 124.523832 83.099762 
L 125.232203 83.776917 
L 126.176699 84.951723 
L 127.121194 85.186503 
L 127.829566 85.53047 
L 128.774061 86.27365 
L 129.482433 86.769238 
L 130.190804 86.819203 
L 131.843671 86.723621 
L 132.552043 86.453749 
L 133.02429 86.083733 
L 133.732662 85.202329 
L 134.913281 84.984165 
L 135.621653 84.655346 
L 136.0939 84.256126 
L 136.566148 83.562792 
L 136.802272 83.024305 
L 137.746767 82.769813 
L 138.455139 82.343276 
L 138.927387 81.845922 
L 139.399634 81.071367 
L 139.871882 79.906448 
L 140.34413 78.349501 
L 141.288625 78.027616 
L 141.996996 77.523121 
L 143.177616 76.507081 
L 143.41374 76.492554 
L 143.885987 76.630476 
L 145.30273 76.862387 
L 146.011102 77.231872 
L 146.48335 77.705645 
L 146.719473 78.023886 
L 147.900093 78.219021 
L 148.844588 78.623084 
L 149.316836 78.988882 
L 150.025207 79.632127 
L 150.969703 79.831336 
L 151.678074 80.181717 
L 152.386446 80.844397 
L 153.094817 81.888285 
L 154.275436 82.079682 
L 156.164427 82.608387 
L 157.108923 82.553102 
L 158.761789 82.405663 
L 159.470161 82.172923 
L 159.942409 81.829414 
L 160.414656 81.204301 
L 160.65078 80.73572 
L 161.595276 80.54629 
L 162.303647 80.171095 
L 163.012019 79.525096 
L 163.72039 78.832163 
L 163.956514 78.78266 
L 164.428762 78.919478 
L 165.609381 79.119772 
L 166.081629 79.355094 
L 166.553876 79.821737 
L 167.026124 80.682216 
L 167.498372 81.935835 
L 168.442867 82.185769 
L 169.151239 82.597645 
L 170.095734 83.222485 
L 170.567982 83.211173 
L 170.804106 83.005681 
L 171.984725 82.830806 
L 172.693096 82.50672 
L 173.165344 82.035458 
L 173.637592 81.216147 
L 173.873716 80.691211 
L 177.415573 80.574748 
L 178.596192 80.344586 
L 179.540688 79.96621 
L 181.193555 79.032513 
L 181.429679 79.133095 
L 181.665802 79.498833 
L 182.846422 79.528982 
L 185.916032 79.625812 
L 187.096651 79.868072 
L 187.805022 80.249988 
L 188.27727 80.84893 
L 188.749518 82.039586 
L 189.694013 85.488622 
L 190.166261 87.420017 
L 190.874632 87.65451 
L 191.34688 88.00953 
L 191.819128 88.574859 
L 192.291376 89.461927 
L 192.763623 91.015601 
L 193.471995 93.833737 
L 194.180366 93.969208 
L 194.652614 94.056851 
L 197.722224 94.15726 
L 199.375091 94.455071 
L 200.319586 94.763862 
L 201.027958 95.109618 
L 201.264082 94.993435 
L 201.500205 94.560553 
L 201.736329 93.742057 
L 202.444701 93.497746 
L 202.916949 93.160796 
L 203.389196 92.610823 
L 203.861444 91.745085 
L 204.333692 90.391655 
L 204.805939 88.681124 
L 205.514311 88.488642 
L 206.222682 88.082282 
L 206.931054 87.646158 
L 207.167178 87.671118 
L 207.403302 87.980357 
L 208.347797 88.164801 
L 208.820045 88.412379 
L 209.292292 88.897445 
L 209.76454 89.822058 
L 210.236788 91.51035 
L 210.709035 94.645146 
L 211.181283 94.923824 
L 211.653531 95.423116 
L 212.125778 96.274739 
L 212.598026 97.624066 
L 213.070274 99.637091 
L 213.542522 102.54599 
L 214.250893 108.46356 
L 214.723141 108.714621 
L 215.195388 109.172402 
L 215.667636 109.896256 
L 216.376008 111.442871 
L 216.848255 112.97843 
L 217.320503 115.57204 
L 218.028875 115.941232 
L 218.501122 116.441196 
L 218.97337 117.232603 
L 219.445618 118.366581 
L 219.917865 120.006952 
L 220.390113 120.074068 
L 235.265915 120.486422 
L 264.781396 121.674493 
L 322.15949 124.132859 
L 323.576233 124.433442 
L 324.520729 124.85231 
L 325.465224 125.504657 
L 325.937472 125.99537 
L 326.645843 127.030104 
L 329.243206 127.319412 
L 329.715453 127.063023 
L 330.423825 126.388551 
L 331.36832 126.158985 
L 331.840568 125.884577 
L 332.312816 125.381232 
L 332.785063 124.440691 
L 333.257311 122.725125 
L 333.729559 119.662724 
L 333.965683 117.79787 
L 334.43793 117.515183 
L 334.910178 117.008062 
L 335.382426 116.149856 
L 335.854673 114.806632 
L 336.326921 112.818299 
L 336.563045 111.517732 
L 337.271416 111.14521 
L 337.743664 110.711718 
L 338.215912 110.033675 
L 338.688159 109.005929 
L 339.160407 107.486247 
L 339.632655 105.226069 
L 339.868779 103.679691 
L 340.57715 103.405514 
L 350.730476 102.802317 
L 352.85559 102.61029 
L 356.869696 102.243857 
L 357.814191 101.95391 
L 358.522562 101.5424 
L 359.230934 100.832473 
L 359.703182 100.092499 
L 360.175429 99.033342 
L 360.647677 97.540652 
L 361.119925 95.506243 
L 361.828296 95.176627 
L 362.536668 94.5761 
L 363.245039 93.540392 
L 364.189535 91.779811 
L 364.425659 92.058491 
L 364.897906 92.111915 
L 364.897906 92.111915 
" clip-path="url(#p80a86b4ffa)" style="fill: none; stroke: #ff7f0e; stroke-width: 1.5; stroke-linecap: square"/>
   </g>
   <g id="patch_3">
    <path d="M 45.316088 228.96 
L 45.316088 7.2 
" style="fill: none; stroke: #000000; stroke-width: 0.8; stroke-linejoin: miter; stroke-linecap: square"/>
   </g>
   <g id="patch_4">
    <path d="M 380.116088 228.96 
L 380.116088 7.2 
" style="fill: none; stroke: #000000; stroke-width: 0.8; stroke-linejoin: miter; stroke-linecap: square"/>
   </g>
   <g id="patch_5">
    <path d="M 45.316088 228.96 
L 380.116088 228.96 
" style="fill: none; stroke: #000000; stroke-width: 0.8; stroke-linejoin: miter; stroke-linecap: square"/>
   </g>
   <g id="patch_6">
    <path d="M 45.316088 7.2 
L 380.116088 7.2 
" style="fill: none; stroke: #000000; stroke-width: 0.8; stroke-linejoin: miter; stroke-linecap: square"/>
   </g>
   <g id="legend_1">
    <g id="patch_7">
     <path d="M 326.730094 43.640613 
L 373.116088 43.640613 
Q 375.116088 43.640613 375.116088 41.640613 
L 375.116088 14.2 
Q 375.116088 12.2 373.116088 12.2 
L 326.730094 12.2 
Q 324.730094 12.2 324.730094 14.2 
L 324.730094 41.640613 
Q 324.730094 43.640613 326.730094 43.640613 
z
" style="fill: #ffffff; opacity: 0.8; stroke: #cccccc; stroke-linejoin: miter"/>
    </g>
    <g id="line2d_18">
     <path d="M 328.730094 19.79832 
L 338.730094 19.79832 
L 348.730094 19.79832 
" style="fill: none; stroke: #1f77b4; stroke-width: 1.5; stroke-linecap: square"/>
    </g>
    <g id="text_18">
     <!-- CD -->
     <g transform="translate(356.730094 23.29832) scale(0.1 -0.1)">
      <defs>
       <path id="NimbusSanL-Regu-44" d="M 570 0 
L 2368 0 
C 3546 0 4269 883 4269 2339 
C 4269 3788 3552 4672 2368 4672 
L 570 4672 
L 570 0 
z
M 1165 524 
L 1165 4147 
L 2266 4147 
C 3187 4147 3674 3525 3674 2332 
C 3674 1153 3187 524 2266 524 
L 1165 524 
z
" transform="scale(0.015625)"/>
      </defs>
      <use xlink:href="#NimbusSanL-Regu-43" transform="scale(0.996264)"/>
      <use xlink:href="#NimbusSanL-Regu-44" transform="translate(71.929985 0) scale(0.996264)"/>
     </g>
    </g>
    <g id="line2d_19">
     <path d="M 328.730094 34.018627 
L 338.730094 34.018627 
L 348.730094 34.018627 
" style="fill: none; stroke: #ff7f0e; stroke-width: 1.5; stroke-linecap: square"/>
    </g>
    <g id="text_19">
     <!-- CL -->
     <g transform="translate(356.730094 37.518627) scale(0.1 -0.1)">
      <defs>
       <path id="NimbusSanL-Regu-4c" d="M 1107 4672 
L 512 4672 
L 512 0 
L 3411 0 
L 3411 524 
L 1107 524 
L 1107 4672 
z
" transform="scale(0.015625)"/>
      </defs>
      <use xlink:href="#NimbusSanL-Regu-43" transform="scale(0.996264)"/>
      <use xlink:href="#NimbusSanL-Regu-4c" transform="translate(71.929985 0) scale(0.996264)"/>
     </g>
    </g>
   </g>
  </g>
 </g>
 <defs>
  <clipPath id="p80a86b4ffa">
   <rect x="45.316088" y="7.2" width="334.8" height="221.76"/>
  </clipPath>
 </defs>
</svg>
