<?xml version="1.0" encoding="utf-8" standalone="no"?>
<!DOCTYPE svg PUBLIC "-//W3C//DTD SVG 1.1//EN"
  "http://www.w3.org/Graphics/SVG/1.1/DTD/svg11.dtd">
<svg xmlns:xlink="http://www.w3.org/1999/xlink" width="379.567344pt" height="265.600613pt" viewBox="0 0 379.567344 265.600613" xmlns="http://www.w3.org/2000/svg" version="1.1">
 <metadata>
  <rdf:RDF xmlns:dc="http://purl.org/dc/elements/1.1/" xmlns:cc="http://creativecommons.org/ns#" xmlns:rdf="http://www.w3.org/1999/02/22-rdf-syntax-ns#">
   <cc:Work>
    <dc:type rdf:resource="http://purl.org/dc/dcmitype/StillImage"/>
    <dc:date>2025-07-17T20:28:39.688550</dc:date>
    <dc:format>image/svg+xml</dc:format>
    <dc:creator>
     <cc:Agent>
      <dc:title>Matplotlib v3.10.3, https://matplotlib.org/</dc:title>
     </cc:Agent>
    </dc:creator>
   </cc:Work>
  </rdf:RDF>
 </metadata>
 <defs>
  <style type="text/css">*{stroke-linejoin: round; stroke-linecap: butt}</style>
 </defs>
 <g id="figure_1">
  <g id="patch_1">
   <path d="M 0 265.600613 
L 379.567344 265.600613 
L 379.567344 0 
L 0 0 
z
" style="fill: #ffffff"/>
  </g>
  <g id="axes_1">
   <g id="patch_2">
    <path d="M 37.567344 228.96 
L 372.367344 228.96 
L 372.367344 7.2 
L 37.567344 7.2 
z
" style="fill: #ffffff"/>
   </g>
   <g id="matplotlib.axis_1">
    <g id="xtick_1">
     <g id="line2d_1">
      <defs>
       <path id="m9bc2bb7bc2" d="M 0 0 
L 0 3.5 
" style="stroke: #000000; stroke-width: 0.8"/>
      </defs>
      <g>
       <use xlink:href="#m9bc2bb7bc2" x="52.785526" y="228.96" style="stroke: #000000; stroke-width: 0.8"/>
      </g>
     </g>
     <g id="text_1">
      <!-- $\mathdefault{0}$ -->
      <g transform="translate(50.294859 243.05832) scale(0.1 -0.1)">
       <defs>
        <path id="CMR17-30" d="M 2688 2038 
C 2688 2430 2682 3099 2413 3613 
C 2176 4063 1798 4224 1466 4224 
C 1158 4224 768 4082 525 3620 
C 269 3137 243 2539 243 2038 
C 243 1671 250 1112 448 623 
C 723 -39 1216 -128 1466 -128 
C 1760 -128 2208 -7 2470 604 
C 2662 1048 2688 1568 2688 2038 
z
M 1466 -26 
C 1056 -26 813 328 723 816 
C 653 1196 653 1749 653 2109 
C 653 2604 653 3015 736 3407 
C 858 3954 1216 4121 1466 4121 
C 1728 4121 2067 3947 2189 3420 
C 2272 3054 2278 2623 2278 2109 
C 2278 1691 2278 1176 2202 797 
C 2067 96 1690 -26 1466 -26 
z
" transform="scale(0.015625)"/>
       </defs>
       <use xlink:href="#CMR17-30" transform="scale(0.996264)"/>
      </g>
     </g>
    </g>
    <g id="xtick_2">
     <g id="line2d_2">
      <g>
       <use xlink:href="#m9bc2bb7bc2" x="100.010295" y="228.96" style="stroke: #000000; stroke-width: 0.8"/>
      </g>
     </g>
     <g id="text_2">
      <!-- $\mathdefault{200}$ -->
      <g transform="translate(92.538292 243.05832) scale(0.1 -0.1)">
       <defs>
        <path id="CMR17-32" d="M 2669 990 
L 2554 990 
C 2490 537 2438 460 2413 422 
C 2381 371 1920 371 1830 371 
L 602 371 
C 832 620 1280 1073 1824 1596 
C 2214 1966 2669 2400 2669 3033 
C 2669 3788 2067 4224 1395 4224 
C 691 4224 262 3603 262 3027 
C 262 2777 448 2745 525 2745 
C 589 2745 781 2783 781 3007 
C 781 3206 614 3264 525 3264 
C 486 3264 448 3257 422 3244 
C 544 3788 915 4057 1306 4057 
C 1862 4057 2227 3616 2227 3033 
C 2227 2477 1901 1998 1536 1583 
L 262 147 
L 262 0 
L 2515 0 
L 2669 990 
z
" transform="scale(0.015625)"/>
       </defs>
       <use xlink:href="#CMR17-32" transform="scale(0.996264)"/>
       <use xlink:href="#CMR17-30" transform="translate(45.690477 0) scale(0.996264)"/>
       <use xlink:href="#CMR17-30" transform="translate(91.380954 0) scale(0.996264)"/>
      </g>
     </g>
    </g>
    <g id="xtick_3">
     <g id="line2d_3">
      <g>
       <use xlink:href="#m9bc2bb7bc2" x="147.235064" y="228.96" style="stroke: #000000; stroke-width: 0.8"/>
      </g>
     </g>
     <g id="text_3">
      <!-- $\mathdefault{400}$ -->
      <g transform="translate(139.763061 243.05832) scale(0.1 -0.1)">
       <defs>
        <path id="CMR17-34" d="M 2150 4147 
C 2150 4281 2144 4288 2029 4288 
L 128 1254 
L 128 1088 
L 1779 1088 
L 1779 460 
C 1779 230 1766 166 1318 166 
L 1197 166 
L 1197 0 
C 1402 12 1747 12 1965 12 
C 2182 12 2528 12 2733 0 
L 2733 166 
L 2611 166 
C 2163 166 2150 230 2150 460 
L 2150 1088 
L 2803 1088 
L 2803 1254 
L 2150 1254 
L 2150 4147 
z
M 1798 3723 
L 1798 1254 
L 256 1254 
L 1798 3723 
z
" transform="scale(0.015625)"/>
       </defs>
       <use xlink:href="#CMR17-34" transform="scale(0.996264)"/>
       <use xlink:href="#CMR17-30" transform="translate(45.690477 0) scale(0.996264)"/>
       <use xlink:href="#CMR17-30" transform="translate(91.380954 0) scale(0.996264)"/>
      </g>
     </g>
    </g>
    <g id="xtick_4">
     <g id="line2d_4">
      <g>
       <use xlink:href="#m9bc2bb7bc2" x="194.459833" y="228.96" style="stroke: #000000; stroke-width: 0.8"/>
      </g>
     </g>
     <g id="text_4">
      <!-- $\mathdefault{600}$ -->
      <g transform="translate(186.98783 243.05832) scale(0.1 -0.1)">
       <defs>
        <path id="CMR17-36" d="M 678 2198 
C 678 3712 1395 4076 1811 4076 
C 1946 4076 2272 4049 2400 3782 
C 2298 3782 2106 3782 2106 3558 
C 2106 3385 2246 3328 2336 3328 
C 2394 3328 2566 3353 2566 3571 
C 2566 3987 2246 4224 1805 4224 
C 1043 4224 243 3411 243 2011 
C 243 257 966 -128 1478 -128 
C 2099 -128 2688 431 2688 1295 
C 2688 2101 2170 2688 1517 2688 
C 1126 2688 838 2430 678 1979 
L 678 2198 
z
M 1478 25 
C 691 25 691 1212 691 1450 
C 691 1914 909 2585 1504 2585 
C 1613 2585 1926 2585 2138 2140 
C 2253 1889 2253 1624 2253 1302 
C 2253 954 2253 696 2118 438 
C 1978 173 1773 25 1478 25 
z
" transform="scale(0.015625)"/>
       </defs>
       <use xlink:href="#CMR17-36" transform="scale(0.996264)"/>
       <use xlink:href="#CMR17-30" transform="translate(45.690477 0) scale(0.996264)"/>
       <use xlink:href="#CMR17-30" transform="translate(91.380954 0) scale(0.996264)"/>
      </g>
     </g>
    </g>
    <g id="xtick_5">
     <g id="line2d_5">
      <g>
       <use xlink:href="#m9bc2bb7bc2" x="241.684602" y="228.96" style="stroke: #000000; stroke-width: 0.8"/>
      </g>
     </g>
     <g id="text_5">
      <!-- $\mathdefault{800}$ -->
      <g transform="translate(234.212599 243.05832) scale(0.1 -0.1)">
       <defs>
        <path id="CMR17-38" d="M 1741 2289 
C 2144 2494 2554 2803 2554 3298 
C 2554 3884 1990 4224 1472 4224 
C 890 4224 378 3800 378 3215 
C 378 3054 416 2777 666 2533 
C 730 2469 998 2276 1171 2154 
C 883 2006 211 1652 211 945 
C 211 282 838 -128 1459 -128 
C 2144 -128 2720 366 2720 1022 
C 2720 1607 2330 1877 2074 2051 
L 1741 2289 
z
M 902 2855 
C 851 2887 595 3086 595 3388 
C 595 3781 998 4076 1459 4076 
C 1965 4076 2336 3716 2336 3298 
C 2336 2700 1670 2359 1638 2359 
C 1632 2359 1626 2359 1574 2398 
L 902 2855 
z
M 2080 1536 
C 2176 1466 2483 1253 2483 861 
C 2483 385 2010 25 1472 25 
C 890 25 448 443 448 951 
C 448 1459 838 1884 1280 2083 
L 2080 1536 
z
" transform="scale(0.015625)"/>
       </defs>
       <use xlink:href="#CMR17-38" transform="scale(0.996264)"/>
       <use xlink:href="#CMR17-30" transform="translate(45.690477 0) scale(0.996264)"/>
       <use xlink:href="#CMR17-30" transform="translate(91.380954 0) scale(0.996264)"/>
      </g>
     </g>
    </g>
    <g id="xtick_6">
     <g id="line2d_6">
      <g>
       <use xlink:href="#m9bc2bb7bc2" x="288.909371" y="228.96" style="stroke: #000000; stroke-width: 0.8"/>
      </g>
     </g>
     <g id="text_6">
      <!-- $\mathdefault{1000}$ -->
      <g transform="translate(278.946701 243.05832) scale(0.1 -0.1)">
       <defs>
        <path id="CMR17-31" d="M 1702 4083 
C 1702 4217 1696 4224 1606 4224 
C 1357 3927 979 3833 621 3820 
C 602 3820 570 3820 563 3808 
C 557 3795 557 3782 557 3648 
C 755 3648 1088 3686 1344 3839 
L 1344 467 
C 1344 243 1331 166 781 166 
L 589 166 
L 589 0 
C 896 6 1216 12 1523 12 
C 1830 12 2150 6 2458 0 
L 2458 166 
L 2266 166 
C 1715 166 1702 236 1702 467 
L 1702 4083 
z
" transform="scale(0.015625)"/>
       </defs>
       <use xlink:href="#CMR17-31" transform="scale(0.996264)"/>
       <use xlink:href="#CMR17-30" transform="translate(45.690477 0) scale(0.996264)"/>
       <use xlink:href="#CMR17-30" transform="translate(91.380954 0) scale(0.996264)"/>
       <use xlink:href="#CMR17-30" transform="translate(137.071431 0) scale(0.996264)"/>
      </g>
     </g>
    </g>
    <g id="xtick_7">
     <g id="line2d_7">
      <g>
       <use xlink:href="#m9bc2bb7bc2" x="336.13414" y="228.96" style="stroke: #000000; stroke-width: 0.8"/>
      </g>
     </g>
     <g id="text_7">
      <!-- $\mathdefault{1200}$ -->
      <g transform="translate(326.17147 243.05832) scale(0.1 -0.1)">
       <use xlink:href="#CMR17-31" transform="scale(0.996264)"/>
       <use xlink:href="#CMR17-32" transform="translate(45.690477 0) scale(0.996264)"/>
       <use xlink:href="#CMR17-30" transform="translate(91.380954 0) scale(0.996264)"/>
       <use xlink:href="#CMR17-30" transform="translate(137.071431 0) scale(0.996264)"/>
      </g>
     </g>
    </g>
    <g id="text_8">
     <!-- Iteration -->
     <g transform="translate(187.019968 256.278627) scale(0.1 -0.1)">
      <defs>
       <path id="NimbusSanL-Regu-49" d="M 1242 4672 
L 640 4672 
L 640 0 
L 1242 0 
L 1242 4672 
z
" transform="scale(0.015625)"/>
       <path id="NimbusSanL-Regu-74" d="M 1626 3328 
L 1075 3328 
L 1075 4249 
L 544 4249 
L 544 3328 
L 90 3328 
L 90 2892 
L 544 2892 
L 544 402 
C 544 64 774 -128 1190 -128 
C 1318 -128 1446 -116 1626 -84 
L 1626 364 
C 1555 345 1472 339 1370 339 
C 1139 339 1075 402 1075 634 
L 1075 2892 
L 1626 2892 
L 1626 3328 
z
" transform="scale(0.015625)"/>
       <path id="NimbusSanL-Regu-65" d="M 3283 1484 
C 3283 1998 3245 2311 3149 2565 
C 2931 3123 2419 3456 1792 3456 
C 858 3456 256 2734 256 1619 
C 256 545 838 -128 1779 -128 
C 2547 -128 3078 307 3213 1018 
L 2675 1018 
C 2528 588 2227 364 1798 364 
C 1459 364 1171 514 992 787 
C 864 974 819 1161 813 1484 
L 3283 1484 
z
M 826 1920 
C 870 2552 1248 2963 1786 2963 
C 2310 2963 2714 2519 2714 1959 
C 2714 1946 2714 1933 2707 1920 
L 826 1920 
z
" transform="scale(0.015625)"/>
       <path id="NimbusSanL-Regu-72" d="M 442 3328 
L 442 0 
L 979 0 
L 979 1727 
C 979 2203 1101 2514 1357 2698 
C 1523 2819 1683 2857 2054 2863 
L 2054 3404 
C 1965 3449 1920 3456 1850 3456 
C 1504 3456 1242 3251 934 2750 
L 934 3328 
L 442 3328 
z
" transform="scale(0.015625)"/>
       <path id="NimbusSanL-Regu-61" d="M 3424 332 
C 3366 320 3341 320 3309 320 
C 3123 320 3021 415 3021 581 
L 3021 2542 
C 3021 3135 2586 3456 1760 3456 
C 1274 3456 870 3315 646 3065 
C 493 2893 429 2702 416 2370 
L 954 2370 
C 998 2778 1242 2963 1741 2963 
C 2221 2963 2490 2784 2490 2466 
L 2490 2326 
C 2490 2103 2355 2007 1933 1956 
C 1178 1861 1062 1835 858 1753 
C 467 1593 269 1294 269 861 
C 269 256 691 -128 1370 -128 
C 1792 -128 2131 19 2509 364 
C 2547 25 2714 -128 3059 -128 
C 3168 -128 3251 -116 3424 -71 
L 3424 332 
z
M 2490 1071 
C 2490 893 2438 785 2278 638 
C 2061 441 1798 339 1485 339 
C 1069 339 826 536 826 874 
C 826 1224 1062 1402 1632 1485 
C 2195 1562 2310 1587 2490 1670 
L 2490 1071 
z
" transform="scale(0.015625)"/>
       <path id="NimbusSanL-Regu-69" d="M 960 3358 
L 429 3358 
L 429 0 
L 960 0 
L 960 3358 
z
M 960 4672 
L 422 4672 
L 422 3999 
L 960 3999 
L 960 4672 
z
" transform="scale(0.015625)"/>
       <path id="NimbusSanL-Regu-6f" d="M 1741 3456 
C 800 3456 230 2784 230 1663 
C 230 543 794 -128 1747 -128 
C 2688 -128 3264 543 3264 1638 
C 3264 2791 2707 3456 1741 3456 
z
M 1747 2963 
C 2349 2963 2707 2472 2707 1644 
C 2707 861 2336 364 1747 364 
C 1152 364 787 855 787 1663 
C 787 2466 1152 2963 1747 2963 
z
" transform="scale(0.015625)"/>
       <path id="NimbusSanL-Regu-6e" d="M 448 3328 
L 448 0 
L 986 0 
L 986 1835 
C 986 2539 1344 2988 1894 2988 
C 2317 2988 2586 2732 2586 2328 
L 2586 0 
L 3117 0 
L 3117 2539 
C 3117 3097 2701 3456 2054 3456 
C 1555 3456 1235 3263 941 2796 
L 941 3328 
L 448 3328 
z
" transform="scale(0.015625)"/>
      </defs>
      <use xlink:href="#NimbusSanL-Regu-49" transform="scale(0.996264)"/>
      <use xlink:href="#NimbusSanL-Regu-74" transform="translate(27.69517 0) scale(0.996264)"/>
      <use xlink:href="#NimbusSanL-Regu-65" transform="translate(55.390339 0) scale(0.996264)"/>
      <use xlink:href="#NimbusSanL-Regu-72" transform="translate(110.782016 0) scale(0.996264)"/>
      <use xlink:href="#NimbusSanL-Regu-61" transform="translate(142.961149 0) scale(0.996264)"/>
      <use xlink:href="#NimbusSanL-Regu-74" transform="translate(198.352826 0) scale(0.996264)"/>
      <use xlink:href="#NimbusSanL-Regu-69" transform="translate(226.047996 0) scale(0.996264)"/>
      <use xlink:href="#NimbusSanL-Regu-6f" transform="translate(248.16478 0) scale(0.996264)"/>
      <use xlink:href="#NimbusSanL-Regu-6e" transform="translate(303.556457 0) scale(0.996264)"/>
     </g>
    </g>
   </g>
   <g id="matplotlib.axis_2">
    <g id="ytick_1">
     <g id="line2d_8">
      <defs>
       <path id="m90f61b59fd" d="M 0 0 
L -3.5 0 
" style="stroke: #000000; stroke-width: 0.8"/>
      </defs>
      <g>
       <use xlink:href="#m90f61b59fd" x="37.567344" y="219.471613" style="stroke: #000000; stroke-width: 0.8"/>
      </g>
     </g>
     <g id="text_9">
      <!-- $\mathdefault{0}$ -->
      <g transform="translate(25.586009 223.020773) scale(0.1 -0.1)">
       <use xlink:href="#CMR17-30" transform="scale(0.996264)"/>
      </g>
     </g>
    </g>
    <g id="ytick_2">
     <g id="line2d_9">
      <g>
       <use xlink:href="#m90f61b59fd" x="37.567344" y="189.89095" style="stroke: #000000; stroke-width: 0.8"/>
      </g>
     </g>
     <g id="text_10">
      <!-- $\mathdefault{5}$ -->
      <g transform="translate(25.586009 193.440111) scale(0.1 -0.1)">
       <defs>
        <path id="CMR17-35" d="M 730 3750 
C 794 3724 1056 3641 1325 3641 
C 1920 3641 2246 3961 2432 4140 
C 2432 4191 2432 4224 2394 4224 
C 2387 4224 2374 4224 2323 4198 
C 2099 4102 1837 4032 1517 4032 
C 1325 4032 1037 4055 723 4191 
C 653 4224 640 4224 634 4224 
C 602 4224 595 4217 595 4090 
L 595 2231 
C 595 2113 595 2080 659 2080 
C 691 2080 704 2093 736 2139 
C 941 2435 1222 2560 1542 2560 
C 1766 2560 2246 2415 2246 1293 
C 2246 1087 2246 716 2054 422 
C 1894 159 1645 25 1370 25 
C 947 25 518 319 403 812 
C 429 806 480 793 506 793 
C 589 793 749 838 749 1036 
C 749 1209 627 1280 506 1280 
C 358 1280 262 1190 262 1011 
C 262 454 704 -128 1382 -128 
C 2042 -128 2669 441 2669 1267 
C 2669 2054 2170 2662 1549 2662 
C 1222 2662 947 2540 730 2304 
L 730 3750 
z
" transform="scale(0.015625)"/>
       </defs>
       <use xlink:href="#CMR17-35" transform="scale(0.996264)"/>
      </g>
     </g>
    </g>
    <g id="ytick_3">
     <g id="line2d_10">
      <g>
       <use xlink:href="#m90f61b59fd" x="37.567344" y="160.310288" style="stroke: #000000; stroke-width: 0.8"/>
      </g>
     </g>
     <g id="text_11">
      <!-- $\mathdefault{10}$ -->
      <g transform="translate(20.604674 163.859448) scale(0.1 -0.1)">
       <use xlink:href="#CMR17-31" transform="scale(0.996264)"/>
       <use xlink:href="#CMR17-30" transform="translate(45.690477 0) scale(0.996264)"/>
      </g>
     </g>
    </g>
    <g id="ytick_4">
     <g id="line2d_11">
      <g>
       <use xlink:href="#m90f61b59fd" x="37.567344" y="130.729625" style="stroke: #000000; stroke-width: 0.8"/>
      </g>
     </g>
     <g id="text_12">
      <!-- $\mathdefault{15}$ -->
      <g transform="translate(20.604674 134.278785) scale(0.1 -0.1)">
       <use xlink:href="#CMR17-31" transform="scale(0.996264)"/>
       <use xlink:href="#CMR17-35" transform="translate(45.690477 0) scale(0.996264)"/>
      </g>
     </g>
    </g>
    <g id="ytick_5">
     <g id="line2d_12">
      <g>
       <use xlink:href="#m90f61b59fd" x="37.567344" y="101.148962" style="stroke: #000000; stroke-width: 0.8"/>
      </g>
     </g>
     <g id="text_13">
      <!-- $\mathdefault{20}$ -->
      <g transform="translate(20.604674 104.698122) scale(0.1 -0.1)">
       <use xlink:href="#CMR17-32" transform="scale(0.996264)"/>
       <use xlink:href="#CMR17-30" transform="translate(45.690477 0) scale(0.996264)"/>
      </g>
     </g>
    </g>
    <g id="ytick_6">
     <g id="line2d_13">
      <g>
       <use xlink:href="#m90f61b59fd" x="37.567344" y="71.568299" style="stroke: #000000; stroke-width: 0.8"/>
      </g>
     </g>
     <g id="text_14">
      <!-- $\mathdefault{25}$ -->
      <g transform="translate(20.604674 75.117459) scale(0.1 -0.1)">
       <use xlink:href="#CMR17-32" transform="scale(0.996264)"/>
       <use xlink:href="#CMR17-35" transform="translate(45.690477 0) scale(0.996264)"/>
      </g>
     </g>
    </g>
    <g id="ytick_7">
     <g id="line2d_14">
      <g>
       <use xlink:href="#m90f61b59fd" x="37.567344" y="41.987636" style="stroke: #000000; stroke-width: 0.8"/>
      </g>
     </g>
     <g id="text_15">
      <!-- $\mathdefault{30}$ -->
      <g transform="translate(20.604674 45.536796) scale(0.1 -0.1)">
       <defs>
        <path id="CMR17-33" d="M 1414 2176 
C 1984 2176 2234 1673 2234 1094 
C 2234 322 1824 25 1453 25 
C 1114 25 563 193 390 691 
C 422 678 454 678 486 678 
C 640 678 755 780 755 947 
C 755 1132 614 1216 486 1216 
C 378 1216 211 1164 211 927 
C 211 335 787 -128 1466 -128 
C 2176 -128 2720 432 2720 1087 
C 2720 1718 2208 2176 1600 2246 
C 2086 2347 2554 2776 2554 3353 
C 2554 3856 2048 4224 1472 4224 
C 890 4224 378 3862 378 3347 
C 378 3123 544 3084 627 3084 
C 762 3084 877 3167 877 3334 
C 877 3500 762 3584 627 3584 
C 602 3584 570 3584 544 3571 
C 730 3999 1235 4076 1459 4076 
C 1683 4076 2106 3966 2106 3347 
C 2106 3167 2080 2851 1862 2574 
C 1670 2329 1453 2316 1242 2297 
C 1210 2297 1062 2284 1037 2284 
C 992 2278 966 2272 966 2227 
C 966 2182 973 2176 1101 2176 
L 1414 2176 
z
" transform="scale(0.015625)"/>
       </defs>
       <use xlink:href="#CMR17-33" transform="scale(0.996264)"/>
       <use xlink:href="#CMR17-30" transform="translate(45.690477 0) scale(0.996264)"/>
      </g>
     </g>
    </g>
    <g id="ytick_8">
     <g id="line2d_15">
      <g>
       <use xlink:href="#m90f61b59fd" x="37.567344" y="12.406973" style="stroke: #000000; stroke-width: 0.8"/>
      </g>
     </g>
     <g id="text_16">
      <!-- $\mathdefault{35}$ -->
      <g transform="translate(20.604674 15.956133) scale(0.1 -0.1)">
       <use xlink:href="#CMR17-33" transform="scale(0.996264)"/>
       <use xlink:href="#CMR17-35" transform="translate(45.690477 0) scale(0.996264)"/>
      </g>
     </g>
    </g>
    <g id="text_17">
     <!-- Average CFL - Blade_18 -->
     <g transform="translate(14.482687 171.548902) rotate(-90) scale(0.1 -0.1)">
      <defs>
       <path id="NimbusSanL-Regu-41" d="M 3034 1408 
L 3514 0 
L 4179 0 
L 2541 4672 
L 1773 4672 
L 109 0 
L 742 0 
L 1235 1408 
L 3034 1408 
z
M 2867 1907 
L 1382 1907 
L 2150 4032 
L 2867 1907 
z
" transform="scale(0.015625)"/>
       <path id="NimbusSanL-Regu-76" d="M 1824 0 
L 3110 3328 
L 2509 3328 
L 1562 629 
L 666 3328 
L 64 3328 
L 1242 0 
L 1824 0 
z
" transform="scale(0.015625)"/>
       <path id="NimbusSanL-Regu-67" d="M 2637 3359 
L 2637 2873 
C 2368 3270 2042 3456 1613 3456 
C 762 3456 186 2714 186 1632 
C 186 1084 333 638 608 320 
C 858 38 1216 -128 1568 -128 
C 1990 -128 2285 51 2586 473 
L 2586 300 
C 2586 -155 2528 -441 2394 -634 
C 2253 -841 1978 -960 1651 -960 
C 1408 -960 1190 -894 1043 -774 
C 922 -674 870 -581 838 -375 
L 294 -375 
C 352 -1031 845 -1408 1632 -1408 
C 2131 -1408 2560 -1248 2778 -980 
C 3034 -661 3130 -222 3130 568 
L 3130 3359 
L 2637 3359 
z
M 1670 2963 
C 2246 2963 2586 2479 2586 1644 
C 2586 848 2240 364 1677 364 
C 1094 364 742 855 742 1663 
C 742 2466 1101 2963 1670 2963 
z
" transform="scale(0.015625)"/>
       <path id="NimbusSanL-Regu-43" d="M 4237 3219 
C 4051 4236 3462 4736 2438 4736 
C 1811 4736 1306 4537 960 4154 
C 538 3696 307 3035 307 2284 
C 307 1522 544 867 986 415 
C 1344 44 1805 -128 2413 -128 
C 3552 -128 4192 485 4333 1712 
L 3718 1712 
C 3667 1394 3603 1178 3507 994 
C 3315 612 2918 396 2419 396 
C 1491 396 902 1134 902 2291 
C 902 3480 1466 4211 2368 4211 
C 2746 4211 3098 4096 3290 3918 
C 3462 3759 3558 3562 3629 3219 
L 4237 3219 
z
" transform="scale(0.015625)"/>
       <path id="NimbusSanL-Regu-46" d="M 1171 2112 
L 3398 2112 
L 3398 2636 
L 1171 2636 
L 1171 4147 
L 3706 4147 
L 3706 4672 
L 576 4672 
L 576 0 
L 1171 0 
L 1171 2112 
z
" transform="scale(0.015625)"/>
       <path id="NimbusSanL-Regu-4c" d="M 1107 4672 
L 512 4672 
L 512 0 
L 3411 0 
L 3411 524 
L 1107 524 
L 1107 4672 
z
" transform="scale(0.015625)"/>
       <path id="NimbusSanL-Regu-2d" d="M 1818 1996 
L 294 1996 
L 294 1536 
L 1818 1536 
L 1818 1996 
z
" transform="scale(0.015625)"/>
       <path id="NimbusSanL-Regu-42" d="M 506 0 
L 2611 0 
C 3053 0 3379 121 3629 390 
C 3859 632 3987 961 3987 1321 
C 3987 1878 3731 2214 3136 2444 
C 3558 2643 3782 2994 3782 3476 
C 3782 3821 3654 4127 3411 4345 
C 3168 4569 2848 4672 2400 4672 
L 506 4672 
L 506 0 
z
M 1101 2636 
L 1101 4147 
L 2253 4147 
C 2586 4147 2771 4101 2931 3977 
C 3098 3847 3187 3652 3187 3391 
C 3187 3138 3098 2936 2931 2806 
C 2771 2682 2586 2636 2253 2636 
L 1101 2636 
z
M 1101 524 
L 1101 2112 
L 2554 2112 
C 2842 2112 3034 2042 3174 1890 
C 3315 1745 3392 1542 3392 1315 
C 3392 1093 3315 891 3174 746 
C 3034 594 2842 524 2554 524 
L 1101 524 
z
" transform="scale(0.015625)"/>
       <path id="NimbusSanL-Regu-6c" d="M 973 4672 
L 435 4672 
L 435 0 
L 973 0 
L 973 4672 
z
" transform="scale(0.015625)"/>
       <path id="NimbusSanL-Regu-64" d="M 3168 4672 
L 2637 4672 
L 2637 2937 
C 2413 3276 2054 3456 1606 3456 
C 736 3456 166 2759 166 1695 
C 166 568 723 -128 1626 -128 
C 2086 -128 2406 44 2694 460 
L 2694 19 
L 3168 19 
L 3168 4672 
z
M 1696 2956 
C 2272 2956 2637 2447 2637 1651 
C 2637 880 2266 371 1702 371 
C 1114 371 723 887 723 1663 
C 723 2440 1114 2956 1696 2956 
z
" transform="scale(0.015625)"/>
       <path id="NimbusSanL-Regu-31" d="M 1658 3232 
L 1658 0 
L 2221 0 
L 2221 4537 
L 1850 4537 
C 1651 3840 1523 3744 653 3635 
L 653 3232 
L 1658 3232 
z
" transform="scale(0.015625)"/>
       <path id="NimbusSanL-Regu-38" d="M 2502 2399 
C 2970 2681 3123 2910 3123 3337 
C 3123 4044 2566 4544 1760 4544 
C 960 4544 397 4044 397 3337 
C 397 2917 550 2687 1011 2399 
C 493 2150 237 1774 237 1276 
C 237 447 864 -128 1760 -128 
C 2656 -128 3283 447 3283 1270 
C 3283 1774 3027 2150 2502 2399 
z
M 1760 4044 
C 2240 4044 2547 3764 2547 3324 
C 2547 2904 2234 2624 1760 2624 
C 1286 2624 973 2904 973 3331 
C 973 3764 1286 4044 1760 4044 
z
M 1760 2150 
C 2323 2150 2707 1793 2707 1264 
C 2707 728 2323 371 1747 371 
C 1197 371 813 734 813 1264 
C 813 1793 1197 2150 1760 2150 
z
" transform="scale(0.015625)"/>
      </defs>
      <use xlink:href="#NimbusSanL-Regu-41" transform="scale(0.996264)"/>
      <use xlink:href="#NimbusSanL-Regu-76" transform="translate(62.465918 0) scale(0.996264)"/>
      <use xlink:href="#NimbusSanL-Regu-65" transform="translate(109.788488 0) scale(0.996264)"/>
      <use xlink:href="#NimbusSanL-Regu-72" transform="translate(165.180165 0) scale(0.996264)"/>
      <use xlink:href="#NimbusSanL-Regu-61" transform="translate(197.359298 0) scale(0.996264)"/>
      <use xlink:href="#NimbusSanL-Regu-67" transform="translate(252.750975 0) scale(0.996264)"/>
      <use xlink:href="#NimbusSanL-Regu-65" transform="translate(308.142652 0) scale(0.996264)"/>
      <use xlink:href="#NimbusSanL-Regu-43" transform="translate(391.229499 0) scale(0.996264)"/>
      <use xlink:href="#NimbusSanL-Regu-46" transform="translate(463.159484 0) scale(0.996264)"/>
      <use xlink:href="#NimbusSanL-Regu-4c" transform="translate(524.031114 0) scale(0.996264)"/>
      <use xlink:href="#NimbusSanL-Regu-2d" transform="translate(607.117961 0) scale(0.996264)"/>
      <use xlink:href="#NimbusSanL-Regu-42" transform="translate(667.98836 0) scale(0.996264)"/>
      <use xlink:href="#NimbusSanL-Regu-6c" transform="translate(734.438391 0) scale(0.996264)"/>
      <use xlink:href="#NimbusSanL-Regu-61" transform="translate(756.555176 0) scale(0.996264)"/>
      <use xlink:href="#NimbusSanL-Regu-64" transform="translate(811.946853 0) scale(0.996264)"/>
      <use xlink:href="#NimbusSanL-Regu-65" transform="translate(867.33853 0) scale(0.996264)"/>
      <use xlink:href="#NimbusSanL-Regu-31" transform="translate(958.595772 0) scale(0.996264)"/>
      <use xlink:href="#NimbusSanL-Regu-38" transform="translate(1013.987449 0) scale(0.996264)"/>
      <path d="M 928.707548 0 
L 958.595772 0 
L 958.595772 0.3985 
L 928.707548 0.3985 
L 928.707548 0 
z
"/>
     </g>
    </g>
   </g>
   <g id="line2d_16">
    <path d="M 52.785526 134.931763 
L 53.257774 98.954447 
L 53.730022 98.954447 
L 53.966145 75.017909 
L 54.202269 205.026243 
L 54.674517 198.67028 
L 55.146765 189.517693 
L 55.619012 176.337968 
L 56.09126 157.359164 
L 56.563508 130.029687 
L 57.035755 90.769051 
L 57.271879 206.601357 
L 57.744127 200.938444 
L 58.216375 192.78385 
L 58.688622 181.041234 
L 59.16087 164.131867 
L 59.633118 139.815679 
L 59.869242 123.928757 
L 60.105365 209.917328 
L 60.577613 205.713442 
L 61.049861 199.659847 
L 61.522108 190.942669 
L 61.994356 178.389934 
L 62.466604 160.329558 
L 62.938852 134.458649 
L 63.411099 97.42762 
L 63.647223 207.267214 
L 64.119471 201.897278 
L 64.591718 194.164571 
L 65.063966 183.029472 
L 65.536214 166.996276 
L 66.008462 143.922875 
L 66.244585 128.839353 
L 66.480709 210.408387 
L 66.952957 206.420568 
L 67.425205 200.678108 
L 67.897452 192.408965 
L 68.3697 180.5014 
L 68.841948 163.354506 
L 69.314195 138.662979 
L 69.550319 211.39075 
L 70.022567 207.83517 
L 70.494815 202.715135 
L 70.967062 195.342284 
L 71.43931 184.72538 
L 71.911558 169.437037 
L 72.383805 147.421824 
L 72.619929 212.266634 
L 73.092177 209.096444 
L 73.564425 204.531369 
L 74.036672 197.957661 
L 74.50892 188.491522 
L 74.981168 174.860283 
L 75.453415 155.231297 
L 75.689539 155.231297 
L 75.925663 142.383234 
L 76.161787 211.762775 
L 76.634035 208.370887 
L 77.106282 203.486567 
L 77.57853 196.453146 
L 78.050778 186.325021 
L 78.523025 171.740521 
L 78.995273 150.73884 
L 79.231397 136.992285 
L 79.467521 211.22368 
L 79.939768 207.59459 
L 80.412016 202.3687 
L 80.884264 194.843418 
L 81.356511 184.007012 
L 81.828759 168.402587 
L 82.301007 145.932216 
L 82.537131 131.224336 
L 82.773255 210.646886 
L 83.245502 206.764005 
L 83.71775 201.172658 
L 84.189998 193.121118 
L 84.662245 181.526899 
L 85.134493 164.831225 
L 85.606741 140.789455 
L 85.842865 211.603397 
L 86.315112 208.141382 
L 86.78736 203.156081 
L 87.259608 195.977247 
L 87.731855 185.639725 
L 88.204103 170.753694 
L 88.676351 149.31781 
L 88.912475 212.456233 
L 89.384722 209.369466 
L 89.85697 204.924521 
L 90.329218 198.5238 
L 90.801465 189.306762 
L 91.273713 176.034228 
L 91.745961 156.921778 
L 91.982084 144.411811 
L 92.218208 211.965633 
L 92.690456 208.663002 
L 93.162704 203.907213 
L 93.634951 197.058876 
L 94.107199 187.197272 
L 94.579447 172.996562 
L 95.051694 152.547539 
L 95.287818 212.779206 
L 95.760066 209.834547 
L 96.232314 205.594237 
L 96.704561 199.488192 
L 97.176809 190.695486 
L 97.649057 178.033991 
L 98.121304 159.801437 
L 98.357428 213.504596 
L 98.829676 210.879108 
L 99.301924 207.098405 
L 99.774171 201.654194 
L 100.246419 193.81453 
L 100.718667 182.525413 
L 101.190914 166.269084 
L 101.663162 142.860589 
L 101.899286 211.810511 
L 102.371534 208.439626 
L 102.843781 203.585551 
L 103.316029 196.595684 
L 103.788277 186.530275 
L 104.260524 172.036086 
L 104.496648 162.548981 
L 104.732772 162.548981 
L 104.968896 151.164454 
L 105.20502 151.164454 
L 105.441144 137.503022 
L 105.677268 211.274754 
L 106.149515 207.668136 
L 106.621763 202.474606 
L 107.094011 194.995923 
L 107.566258 184.22662 
L 108.038506 168.718822 
L 108.510754 146.387594 
L 108.746877 212.163211 
L 109.219125 208.947515 
L 109.691373 204.316911 
L 110.163621 197.648842 
L 110.635868 188.046823 
L 111.108116 174.219915 
L 111.580364 154.309168 
L 111.816487 212.955369 
L 112.288735 210.088221 
L 112.760983 205.959529 
L 113.233231 200.014211 
L 113.705478 191.452954 
L 114.177726 179.124745 
L 114.649974 161.372122 
L 114.886097 149.752224 
L 115.122221 212.499674 
L 115.594469 209.432021 
L 116.066717 205.014601 
L 116.538964 198.653515 
L 117.011212 189.493552 
L 117.48346 176.303205 
L 117.955707 157.309106 
L 118.191831 213.255362 
L 118.664079 210.520212 
L 119.136327 206.581596 
L 119.608574 200.909988 
L 120.080822 192.742873 
L 120.55307 180.982227 
L 121.025317 164.046897 
L 121.261441 152.961954 
L 121.497565 152.961954 
L 121.733689 139.660022 
L 121.969813 211.490454 
L 122.442061 207.978744 
L 122.914308 202.921882 
L 123.386556 195.64 
L 123.858804 185.15409 
L 124.331051 170.05438 
L 124.803299 148.310797 
L 125.275547 117.000038 
L 125.747794 117.000038 
L 125.983918 209.224456 
L 126.456166 204.715706 
L 126.928414 198.223107 
L 127.400661 188.873765 
L 127.872909 175.410711 
L 128.345157 156.023914 
L 128.817404 128.106927 
L 129.053528 210.335145 
L 129.525776 206.315098 
L 129.998024 200.526232 
L 130.470271 192.190264 
L 130.942519 180.186471 
L 131.414767 162.901008 
L 131.887014 138.009941 
L 132.359262 102.166806 
L 132.595386 207.741132 
L 133.067634 202.579721 
L 133.539881 195.147288 
L 134.012129 184.444585 
L 134.484377 169.032693 
L 134.956624 146.839568 
L 135.428872 114.881468 
L 135.664996 93.980903 
L 135.90112 206.922542 
L 136.373367 201.400951 
L 136.845615 193.44986 
L 137.317863 182.000288 
L 137.79011 165.512905 
L 138.262358 141.771073 
L 138.734606 107.582836 
L 138.97073 208.282736 
L 139.442977 203.359629 
L 139.915225 196.270356 
L 140.387473 186.061803 
L 140.85972 171.361487 
L 141.331968 150.193031 
L 141.804216 119.710455 
L 142.04034 209.495497 
L 142.512587 205.106007 
L 142.984835 198.78514 
L 143.457083 189.683091 
L 143.92933 176.576141 
L 144.401578 157.702134 
L 144.873826 130.523563 
L 145.10995 112.733953 
L 145.346073 208.797847 
L 145.818321 204.10139 
L 146.290569 197.338492 
L 146.762817 187.599919 
L 147.235064 173.576373 
L 147.707312 153.382467 
L 147.943436 140.164638 
L 148.17956 140.164638 
L 148.415683 124.303243 
L 148.651807 209.954776 
L 149.124055 205.767368 
L 149.596303 199.7375 
L 150.06855 191.05449 
L 150.540798 178.550956 
L 151.013046 160.545867 
L 151.485293 134.618538 
L 151.721417 117.647923 
L 151.957541 117.647923 
L 152.193665 97.283185 
L 152.429789 97.283185 
L 152.665913 72.8455 
L 152.902037 204.809002 
L 153.374284 198.357453 
L 153.846532 189.067222 
L 154.31878 175.68929 
L 154.791027 156.425068 
L 155.263275 128.684589 
L 155.735523 88.738298 
L 155.971647 88.738298 
L 156.20777 62.597589 
L 156.443894 203.784211 
L 156.916142 196.881754 
L 157.38839 186.942216 
L 157.860637 172.629281 
L 158.332885 152.018654 
L 158.805133 122.339352 
L 159.27738 79.611775 
L 159.513504 51.659096 
L 159.749628 202.690362 
L 160.221876 195.306611 
L 160.694123 184.67401 
L 161.166371 169.363064 
L 161.638619 147.315302 
L 162.110866 115.566526 
L 162.583114 69.848287 
L 162.819238 39.923622 
L 163.055362 201.516814 
L 163.52761 193.616703 
L 163.999857 182.240542 
L 164.472105 165.85887 
L 164.944353 142.269264 
L 165.4166 108.30023 
L 165.888848 59.384821 
L 166.124972 218.88 
L 166.833343 218.449306 
L 167.541715 217.705066 
L 168.013963 216.927785 
L 168.48621 215.8085 
L 168.958458 214.19673 
L 169.430706 211.875781 
L 169.902953 208.533615 
L 170.375201 203.720896 
L 170.847449 196.790581 
L 171.319696 186.811128 
L 171.791944 172.440514 
L 172.264192 151.746831 
L 172.73644 121.947926 
L 173.208687 79.040965 
L 173.680935 17.28 
L 173.917059 199.252452 
L 174.153183 218.88 
L 174.861554 218.449306 
L 175.569926 217.705066 
L 176.042173 216.927785 
L 176.514421 215.8085 
L 176.986669 214.19673 
L 177.458916 211.875781 
L 177.931164 208.533615 
L 178.403412 203.720896 
L 178.875659 196.790581 
L 179.347907 186.810927 
L 179.820155 172.440225 
L 180.292403 151.746413 
L 180.76465 121.949729 
L 181.236898 79.110957 
L 182.181393 79.110957 
L 182.417517 205.435548 
L 182.889765 199.259679 
L 183.362013 190.366428 
L 183.83426 177.560146 
L 184.306508 159.1191 
L 184.778756 132.56453 
L 185.251003 94.388033 
L 185.487127 69.48555 
L 185.723251 204.473007 
L 186.195499 197.87362 
L 186.431623 193.554181 
L 186.667746 218.88 
L 187.376118 218.449306 
L 188.084489 217.705066 
L 188.556737 216.927785 
L 189.028985 215.8085 
L 189.501233 214.19673 
L 189.97348 211.875781 
L 190.445728 208.533615 
L 190.917976 203.720896 
L 191.390223 196.790581 
L 191.862471 186.810927 
L 192.334719 172.440225 
L 192.806966 151.746413 
L 193.279214 121.954436 
L 193.751462 79.121408 
L 193.987586 205.436593 
L 194.459833 199.261184 
L 194.932081 190.368595 
L 195.404329 177.563267 
L 195.876576 159.131717 
L 196.348824 132.63568 
L 196.821072 94.716853 
L 197.057196 206.996137 
L 197.529443 201.506928 
L 198.001691 193.602466 
L 198.473939 182.222345 
L 198.946186 165.853658 
L 199.418434 142.298233 
L 199.654558 211.754275 
L 200.126806 208.358647 
L 200.599053 203.468941 
L 201.071301 196.427765 
L 201.543549 186.292072 
L 202.015796 171.702292 
L 202.488044 150.703206 
L 202.724168 136.977906 
L 202.960292 211.222243 
L 203.432539 207.592519 
L 203.904787 202.365718 
L 204.377035 194.839124 
L 204.849282 184.002917 
L 205.32153 168.40185 
L 205.793778 145.942808 
L 206.266026 113.704093 
L 206.502149 208.894861 
L 206.974397 204.24109 
L 207.446645 197.539796 
L 207.918892 187.88996 
L 208.39114 173.994392 
L 208.863388 153.986264 
L 209.335636 125.228483 
L 209.571759 210.0473 
L 210.044007 205.900706 
L 210.516255 199.929566 
L 210.988502 191.331135 
L 211.46075 178.949479 
L 211.932998 161.120811 
L 212.169122 213.636533 
L 212.405246 218.88 
L 213.349741 218.88 
L 213.585865 218.761677 
L 214.058112 218.88 
L 312.75788 218.88 
L 313.466251 218.449306 
L 314.174623 217.705066 
L 314.64687 216.927785 
L 315.119118 215.8085 
L 315.591366 214.19679 
L 316.063614 211.875927 
L 316.535861 208.534008 
L 317.008109 203.721823 
L 317.480357 196.792139 
L 317.952604 186.822346 
L 318.424852 172.481843 
L 318.660976 163.119154 
L 318.8971 213.836338 
L 319.369347 211.356858 
L 319.841595 207.786416 
L 320.313843 202.644929 
L 320.78609 195.241944 
L 321.258338 184.590459 
L 321.730586 169.275664 
L 321.96671 159.281764 
L 322.202833 159.281764 
L 322.438957 213.452622 
L 322.911205 210.804266 
L 323.383453 206.990633 
L 323.8557 201.499001 
L 324.327948 193.591293 
L 324.800196 182.213699 
L 325.272443 165.872259 
L 325.744691 142.593079 
L 325.980815 142.593079 
L 326.216939 211.78376 
L 326.689187 208.401104 
L 327.161434 203.530179 
L 327.633682 196.516239 
L 328.10593 186.424434 
L 328.578177 171.913961 
L 328.814301 214.715817 
L 329.286549 212.623272 
L 329.758797 209.610001 
L 330.231044 205.270892 
L 330.703292 199.022575 
L 331.17554 190.029057 
L 331.647787 177.087683 
L 331.883911 168.639081 
L 332.120035 214.388352 
L 332.356159 213.371731 
L 332.592283 218.856283 
L 333.772902 218.88 
L 342.037236 218.88 
L 342.745608 218.449306 
L 343.217856 217.99949 
L 343.45398 218.88 
L 344.398475 218.88 
L 344.634599 218.761677 
L 345.106846 218.88 
L 346.051342 218.88 
L 346.287466 218.761677 
L 346.759713 218.88 
L 347.704209 218.88 
L 348.41258 218.449306 
L 349.120952 217.705066 
L 349.5932 216.927785 
L 350.065447 215.8085 
L 350.537695 214.19673 
L 351.009943 211.875828 
L 351.48219 208.533786 
L 351.954438 203.721295 
L 352.426686 196.792486 
L 352.898933 186.824275 
L 353.135057 180.308537 
L 353.371181 215.555306 
L 353.843429 213.832142 
L 354.315676 211.350774 
L 354.787924 207.777605 
L 355.260172 202.632242 
L 355.732419 195.223791 
L 356.204667 184.563067 
L 356.440791 177.609912 
L 356.676915 215.285443 
L 357.149163 213.443546 
L 357.149163 213.443546 
" clip-path="url(#pac93a44b7f)" style="fill: none; stroke: #1f77b4; stroke-width: 1.5; stroke-linecap: square"/>
   </g>
   <g id="patch_3">
    <path d="M 37.567344 228.96 
L 37.567344 7.2 
" style="fill: none; stroke: #000000; stroke-width: 0.8; stroke-linejoin: miter; stroke-linecap: square"/>
   </g>
   <g id="patch_4">
    <path d="M 372.367344 228.96 
L 372.367344 7.2 
" style="fill: none; stroke: #000000; stroke-width: 0.8; stroke-linejoin: miter; stroke-linecap: square"/>
   </g>
   <g id="patch_5">
    <path d="M 37.567344 228.96 
L 372.367344 228.96 
" style="fill: none; stroke: #000000; stroke-width: 0.8; stroke-linejoin: miter; stroke-linecap: square"/>
   </g>
   <g id="patch_6">
    <path d="M 37.567344 7.2 
L 372.367344 7.2 
" style="fill: none; stroke: #000000; stroke-width: 0.8; stroke-linejoin: miter; stroke-linecap: square"/>
   </g>
   <g id="legend_1">
    <g id="patch_7">
     <path d="M 314.548024 29.420307 
L 365.367344 29.420307 
Q 367.367344 29.420307 367.367344 27.420307 
L 367.367344 14.2 
Q 367.367344 12.2 365.367344 12.2 
L 314.548024 12.2 
Q 312.548024 12.2 312.548024 14.2 
L 312.548024 27.420307 
Q 312.548024 29.420307 314.548024 29.420307 
z
" style="fill: #ffffff; opacity: 0.8; stroke: #cccccc; stroke-linejoin: miter"/>
    </g>
    <g id="line2d_17">
     <path d="M 316.548024 19.79832 
L 326.548024 19.79832 
L 336.548024 19.79832 
" style="fill: none; stroke: #1f77b4; stroke-width: 1.5; stroke-linecap: square"/>
    </g>
    <g id="text_18">
     <!-- CFL -->
     <g transform="translate(344.548024 23.29832) scale(0.1 -0.1)">
      <use xlink:href="#NimbusSanL-Regu-43" transform="scale(0.996264)"/>
      <use xlink:href="#NimbusSanL-Regu-46" transform="translate(71.929985 0) scale(0.996264)"/>
      <use xlink:href="#NimbusSanL-Regu-4c" transform="translate(132.801616 0) scale(0.996264)"/>
     </g>
    </g>
   </g>
  </g>
 </g>
 <defs>
  <clipPath id="pac93a44b7f">
   <rect x="37.567344" y="7.2" width="334.8" height="221.76"/>
  </clipPath>
 </defs>
</svg>
