<?xml version="1.0" encoding="utf-8" standalone="no"?>
<!DOCTYPE svg PUBLIC "-//W3C//DTD SVG 1.1//EN"
  "http://www.w3.org/Graphics/SVG/1.1/DTD/svg11.dtd">
<svg xmlns:xlink="http://www.w3.org/1999/xlink" width="390.083497pt" height="265.600613pt" viewBox="0 0 390.083497 265.600613" xmlns="http://www.w3.org/2000/svg" version="1.1">
 <metadata>
  <rdf:RDF xmlns:dc="http://purl.org/dc/elements/1.1/" xmlns:cc="http://creativecommons.org/ns#" xmlns:rdf="http://www.w3.org/1999/02/22-rdf-syntax-ns#">
   <cc:Work>
    <dc:type rdf:resource="http://purl.org/dc/dcmitype/StillImage"/>
    <dc:date>2025-07-17T22:14:10.255038</dc:date>
    <dc:format>image/svg+xml</dc:format>
    <dc:creator>
     <cc:Agent>
      <dc:title>Matplotlib v3.10.3, https://matplotlib.org/</dc:title>
     </cc:Agent>
    </dc:creator>
   </cc:Work>
  </rdf:RDF>
 </metadata>
 <defs>
  <style type="text/css">*{stroke-linejoin: round; stroke-linecap: butt}</style>
 </defs>
 <g id="figure_1">
  <g id="patch_1">
   <path d="M 0 265.600613 
L 390.083497 265.600613 
L 390.083497 0 
L 0 0 
z
" style="fill: #ffffff"/>
  </g>
  <g id="axes_1">
   <g id="patch_2">
    <path d="M 48.083497 228.96 
L 382.883497 228.96 
L 382.883497 7.2 
L 48.083497 7.2 
z
" style="fill: #ffffff"/>
   </g>
   <g id="matplotlib.axis_1">
    <g id="xtick_1">
     <g id="line2d_1">
      <defs>
       <path id="m1b4327663b" d="M 0 0 
L 0 3.5 
" style="stroke: #000000; stroke-width: 0.8"/>
      </defs>
      <g>
       <use xlink:href="#m1b4327663b" x="63.301678" y="228.96" style="stroke: #000000; stroke-width: 0.8"/>
      </g>
     </g>
     <g id="text_1">
      <!-- $\mathdefault{0}$ -->
      <g transform="translate(60.811011 243.05832) scale(0.1 -0.1)">
       <defs>
        <path id="CMR17-30" d="M 2688 2038 
C 2688 2430 2682 3099 2413 3613 
C 2176 4063 1798 4224 1466 4224 
C 1158 4224 768 4082 525 3620 
C 269 3137 243 2539 243 2038 
C 243 1671 250 1112 448 623 
C 723 -39 1216 -128 1466 -128 
C 1760 -128 2208 -7 2470 604 
C 2662 1048 2688 1568 2688 2038 
z
M 1466 -26 
C 1056 -26 813 328 723 816 
C 653 1196 653 1749 653 2109 
C 653 2604 653 3015 736 3407 
C 858 3954 1216 4121 1466 4121 
C 1728 4121 2067 3947 2189 3420 
C 2272 3054 2278 2623 2278 2109 
C 2278 1691 2278 1176 2202 797 
C 2067 96 1690 -26 1466 -26 
z
" transform="scale(0.015625)"/>
       </defs>
       <use xlink:href="#CMR17-30" transform="scale(0.996264)"/>
      </g>
     </g>
    </g>
    <g id="xtick_2">
     <g id="line2d_2">
      <g>
       <use xlink:href="#m1b4327663b" x="128.89729" y="228.96" style="stroke: #000000; stroke-width: 0.8"/>
      </g>
     </g>
     <g id="text_2">
      <!-- $\mathdefault{100}$ -->
      <g transform="translate(121.425287 243.05832) scale(0.1 -0.1)">
       <defs>
        <path id="CMR17-31" d="M 1702 4083 
C 1702 4217 1696 4224 1606 4224 
C 1357 3927 979 3833 621 3820 
C 602 3820 570 3820 563 3808 
C 557 3795 557 3782 557 3648 
C 755 3648 1088 3686 1344 3839 
L 1344 467 
C 1344 243 1331 166 781 166 
L 589 166 
L 589 0 
C 896 6 1216 12 1523 12 
C 1830 12 2150 6 2458 0 
L 2458 166 
L 2266 166 
C 1715 166 1702 236 1702 467 
L 1702 4083 
z
" transform="scale(0.015625)"/>
       </defs>
       <use xlink:href="#CMR17-31" transform="scale(0.996264)"/>
       <use xlink:href="#CMR17-30" transform="translate(45.690477 0) scale(0.996264)"/>
       <use xlink:href="#CMR17-30" transform="translate(91.380954 0) scale(0.996264)"/>
      </g>
     </g>
    </g>
    <g id="xtick_3">
     <g id="line2d_3">
      <g>
       <use xlink:href="#m1b4327663b" x="194.492901" y="228.96" style="stroke: #000000; stroke-width: 0.8"/>
      </g>
     </g>
     <g id="text_3">
      <!-- $\mathdefault{200}$ -->
      <g transform="translate(187.020898 243.05832) scale(0.1 -0.1)">
       <defs>
        <path id="CMR17-32" d="M 2669 990 
L 2554 990 
C 2490 537 2438 460 2413 422 
C 2381 371 1920 371 1830 371 
L 602 371 
C 832 620 1280 1073 1824 1596 
C 2214 1966 2669 2400 2669 3033 
C 2669 3788 2067 4224 1395 4224 
C 691 4224 262 3603 262 3027 
C 262 2777 448 2745 525 2745 
C 589 2745 781 2783 781 3007 
C 781 3206 614 3264 525 3264 
C 486 3264 448 3257 422 3244 
C 544 3788 915 4057 1306 4057 
C 1862 4057 2227 3616 2227 3033 
C 2227 2477 1901 1998 1536 1583 
L 262 147 
L 262 0 
L 2515 0 
L 2669 990 
z
" transform="scale(0.015625)"/>
       </defs>
       <use xlink:href="#CMR17-32" transform="scale(0.996264)"/>
       <use xlink:href="#CMR17-30" transform="translate(45.690477 0) scale(0.996264)"/>
       <use xlink:href="#CMR17-30" transform="translate(91.380954 0) scale(0.996264)"/>
      </g>
     </g>
    </g>
    <g id="xtick_4">
     <g id="line2d_4">
      <g>
       <use xlink:href="#m1b4327663b" x="260.088512" y="228.96" style="stroke: #000000; stroke-width: 0.8"/>
      </g>
     </g>
     <g id="text_4">
      <!-- $\mathdefault{300}$ -->
      <g transform="translate(252.616509 243.05832) scale(0.1 -0.1)">
       <defs>
        <path id="CMR17-33" d="M 1414 2176 
C 1984 2176 2234 1673 2234 1094 
C 2234 322 1824 25 1453 25 
C 1114 25 563 193 390 691 
C 422 678 454 678 486 678 
C 640 678 755 780 755 947 
C 755 1132 614 1216 486 1216 
C 378 1216 211 1164 211 927 
C 211 335 787 -128 1466 -128 
C 2176 -128 2720 432 2720 1087 
C 2720 1718 2208 2176 1600 2246 
C 2086 2347 2554 2776 2554 3353 
C 2554 3856 2048 4224 1472 4224 
C 890 4224 378 3862 378 3347 
C 378 3123 544 3084 627 3084 
C 762 3084 877 3167 877 3334 
C 877 3500 762 3584 627 3584 
C 602 3584 570 3584 544 3571 
C 730 3999 1235 4076 1459 4076 
C 1683 4076 2106 3966 2106 3347 
C 2106 3167 2080 2851 1862 2574 
C 1670 2329 1453 2316 1242 2297 
C 1210 2297 1062 2284 1037 2284 
C 992 2278 966 2272 966 2227 
C 966 2182 973 2176 1101 2176 
L 1414 2176 
z
" transform="scale(0.015625)"/>
       </defs>
       <use xlink:href="#CMR17-33" transform="scale(0.996264)"/>
       <use xlink:href="#CMR17-30" transform="translate(45.690477 0) scale(0.996264)"/>
       <use xlink:href="#CMR17-30" transform="translate(91.380954 0) scale(0.996264)"/>
      </g>
     </g>
    </g>
    <g id="xtick_5">
     <g id="line2d_5">
      <g>
       <use xlink:href="#m1b4327663b" x="325.684124" y="228.96" style="stroke: #000000; stroke-width: 0.8"/>
      </g>
     </g>
     <g id="text_5">
      <!-- $\mathdefault{400}$ -->
      <g transform="translate(318.212121 243.05832) scale(0.1 -0.1)">
       <defs>
        <path id="CMR17-34" d="M 2150 4147 
C 2150 4281 2144 4288 2029 4288 
L 128 1254 
L 128 1088 
L 1779 1088 
L 1779 460 
C 1779 230 1766 166 1318 166 
L 1197 166 
L 1197 0 
C 1402 12 1747 12 1965 12 
C 2182 12 2528 12 2733 0 
L 2733 166 
L 2611 166 
C 2163 166 2150 230 2150 460 
L 2150 1088 
L 2803 1088 
L 2803 1254 
L 2150 1254 
L 2150 4147 
z
M 1798 3723 
L 1798 1254 
L 256 1254 
L 1798 3723 
z
" transform="scale(0.015625)"/>
       </defs>
       <use xlink:href="#CMR17-34" transform="scale(0.996264)"/>
       <use xlink:href="#CMR17-30" transform="translate(45.690477 0) scale(0.996264)"/>
       <use xlink:href="#CMR17-30" transform="translate(91.380954 0) scale(0.996264)"/>
      </g>
     </g>
    </g>
    <g id="text_6">
     <!-- Iteration -->
     <g transform="translate(197.53612 256.278627) scale(0.1 -0.1)">
      <defs>
       <path id="NimbusSanL-Regu-49" d="M 1242 4672 
L 640 4672 
L 640 0 
L 1242 0 
L 1242 4672 
z
" transform="scale(0.015625)"/>
       <path id="NimbusSanL-Regu-74" d="M 1626 3328 
L 1075 3328 
L 1075 4249 
L 544 4249 
L 544 3328 
L 90 3328 
L 90 2892 
L 544 2892 
L 544 402 
C 544 64 774 -128 1190 -128 
C 1318 -128 1446 -116 1626 -84 
L 1626 364 
C 1555 345 1472 339 1370 339 
C 1139 339 1075 402 1075 634 
L 1075 2892 
L 1626 2892 
L 1626 3328 
z
" transform="scale(0.015625)"/>
       <path id="NimbusSanL-Regu-65" d="M 3283 1484 
C 3283 1998 3245 2311 3149 2565 
C 2931 3123 2419 3456 1792 3456 
C 858 3456 256 2734 256 1619 
C 256 545 838 -128 1779 -128 
C 2547 -128 3078 307 3213 1018 
L 2675 1018 
C 2528 588 2227 364 1798 364 
C 1459 364 1171 514 992 787 
C 864 974 819 1161 813 1484 
L 3283 1484 
z
M 826 1920 
C 870 2552 1248 2963 1786 2963 
C 2310 2963 2714 2519 2714 1959 
C 2714 1946 2714 1933 2707 1920 
L 826 1920 
z
" transform="scale(0.015625)"/>
       <path id="NimbusSanL-Regu-72" d="M 442 3328 
L 442 0 
L 979 0 
L 979 1727 
C 979 2203 1101 2514 1357 2698 
C 1523 2819 1683 2857 2054 2863 
L 2054 3404 
C 1965 3449 1920 3456 1850 3456 
C 1504 3456 1242 3251 934 2750 
L 934 3328 
L 442 3328 
z
" transform="scale(0.015625)"/>
       <path id="NimbusSanL-Regu-61" d="M 3424 332 
C 3366 320 3341 320 3309 320 
C 3123 320 3021 415 3021 581 
L 3021 2542 
C 3021 3135 2586 3456 1760 3456 
C 1274 3456 870 3315 646 3065 
C 493 2893 429 2702 416 2370 
L 954 2370 
C 998 2778 1242 2963 1741 2963 
C 2221 2963 2490 2784 2490 2466 
L 2490 2326 
C 2490 2103 2355 2007 1933 1956 
C 1178 1861 1062 1835 858 1753 
C 467 1593 269 1294 269 861 
C 269 256 691 -128 1370 -128 
C 1792 -128 2131 19 2509 364 
C 2547 25 2714 -128 3059 -128 
C 3168 -128 3251 -116 3424 -71 
L 3424 332 
z
M 2490 1071 
C 2490 893 2438 785 2278 638 
C 2061 441 1798 339 1485 339 
C 1069 339 826 536 826 874 
C 826 1224 1062 1402 1632 1485 
C 2195 1562 2310 1587 2490 1670 
L 2490 1071 
z
" transform="scale(0.015625)"/>
       <path id="NimbusSanL-Regu-69" d="M 960 3358 
L 429 3358 
L 429 0 
L 960 0 
L 960 3358 
z
M 960 4672 
L 422 4672 
L 422 3999 
L 960 3999 
L 960 4672 
z
" transform="scale(0.015625)"/>
       <path id="NimbusSanL-Regu-6f" d="M 1741 3456 
C 800 3456 230 2784 230 1663 
C 230 543 794 -128 1747 -128 
C 2688 -128 3264 543 3264 1638 
C 3264 2791 2707 3456 1741 3456 
z
M 1747 2963 
C 2349 2963 2707 2472 2707 1644 
C 2707 861 2336 364 1747 364 
C 1152 364 787 855 787 1663 
C 787 2466 1152 2963 1747 2963 
z
" transform="scale(0.015625)"/>
       <path id="NimbusSanL-Regu-6e" d="M 448 3328 
L 448 0 
L 986 0 
L 986 1835 
C 986 2539 1344 2988 1894 2988 
C 2317 2988 2586 2732 2586 2328 
L 2586 0 
L 3117 0 
L 3117 2539 
C 3117 3097 2701 3456 2054 3456 
C 1555 3456 1235 3263 941 2796 
L 941 3328 
L 448 3328 
z
" transform="scale(0.015625)"/>
      </defs>
      <use xlink:href="#NimbusSanL-Regu-49" transform="scale(0.996264)"/>
      <use xlink:href="#NimbusSanL-Regu-74" transform="translate(27.69517 0) scale(0.996264)"/>
      <use xlink:href="#NimbusSanL-Regu-65" transform="translate(55.390339 0) scale(0.996264)"/>
      <use xlink:href="#NimbusSanL-Regu-72" transform="translate(110.782016 0) scale(0.996264)"/>
      <use xlink:href="#NimbusSanL-Regu-61" transform="translate(142.961149 0) scale(0.996264)"/>
      <use xlink:href="#NimbusSanL-Regu-74" transform="translate(198.352826 0) scale(0.996264)"/>
      <use xlink:href="#NimbusSanL-Regu-69" transform="translate(226.047996 0) scale(0.996264)"/>
      <use xlink:href="#NimbusSanL-Regu-6f" transform="translate(248.16478 0) scale(0.996264)"/>
      <use xlink:href="#NimbusSanL-Regu-6e" transform="translate(303.556457 0) scale(0.996264)"/>
     </g>
    </g>
   </g>
   <g id="matplotlib.axis_2">
    <g id="ytick_1">
     <g id="line2d_6">
      <defs>
       <path id="mca97567492" d="M 0 0 
L -3.5 0 
" style="stroke: #000000; stroke-width: 0.8"/>
      </defs>
      <g>
       <use xlink:href="#mca97567492" x="48.083497" y="226.937173" style="stroke: #000000; stroke-width: 0.8"/>
      </g>
     </g>
     <g id="text_7">
      <!-- $\mathdefault{−7.5}$ -->
      <g transform="translate(20.604674 230.486333) scale(0.1 -0.1)">
       <defs>
        <path id="CMSY10-0" d="M 4218 1472 
C 4326 1472 4442 1472 4442 1600 
C 4442 1728 4326 1728 4218 1728 
L 755 1728 
C 646 1728 531 1728 531 1600 
C 531 1472 646 1472 755 1472 
L 4218 1472 
z
" transform="scale(0.015625)"/>
        <path id="CMR17-37" d="M 2886 3955 
L 2886 4096 
L 1382 4096 
C 634 4096 621 4166 595 4288 
L 480 4288 
L 294 3104 
L 410 3104 
C 429 3226 474 3552 550 3673 
C 589 3724 1062 3724 1171 3724 
L 2579 3724 
L 1869 2670 
C 1395 1961 1069 1003 1069 166 
C 1069 89 1069 -128 1299 -128 
C 1530 -128 1530 89 1530 172 
L 1530 466 
C 1530 1514 1709 2204 2003 2644 
L 2886 3955 
z
" transform="scale(0.015625)"/>
        <path id="CMMI12-3a" d="M 1178 307 
C 1178 492 1024 620 870 620 
C 685 620 557 467 557 313 
C 557 128 710 0 864 0 
C 1050 0 1178 153 1178 307 
z
" transform="scale(0.015625)"/>
        <path id="CMR17-35" d="M 730 3750 
C 794 3724 1056 3641 1325 3641 
C 1920 3641 2246 3961 2432 4140 
C 2432 4191 2432 4224 2394 4224 
C 2387 4224 2374 4224 2323 4198 
C 2099 4102 1837 4032 1517 4032 
C 1325 4032 1037 4055 723 4191 
C 653 4224 640 4224 634 4224 
C 602 4224 595 4217 595 4090 
L 595 2231 
C 595 2113 595 2080 659 2080 
C 691 2080 704 2093 736 2139 
C 941 2435 1222 2560 1542 2560 
C 1766 2560 2246 2415 2246 1293 
C 2246 1087 2246 716 2054 422 
C 1894 159 1645 25 1370 25 
C 947 25 518 319 403 812 
C 429 806 480 793 506 793 
C 589 793 749 838 749 1036 
C 749 1209 627 1280 506 1280 
C 358 1280 262 1190 262 1011 
C 262 454 704 -128 1382 -128 
C 2042 -128 2669 441 2669 1267 
C 2669 2054 2170 2662 1549 2662 
C 1222 2662 947 2540 730 2304 
L 730 3750 
z
" transform="scale(0.015625)"/>
       </defs>
       <use xlink:href="#CMSY10-0" transform="scale(0.996264)"/>
       <use xlink:href="#CMR17-37" transform="translate(77.487468 0) scale(0.996264)"/>
       <use xlink:href="#CMMI12-3a" transform="translate(123.177945 0) scale(0.996264)"/>
       <use xlink:href="#CMR17-35" transform="translate(150.275122 0) scale(0.996264)"/>
      </g>
     </g>
    </g>
    <g id="ytick_2">
     <g id="line2d_7">
      <g>
       <use xlink:href="#mca97567492" x="48.083497" y="197.675188" style="stroke: #000000; stroke-width: 0.8"/>
      </g>
     </g>
     <g id="text_8">
      <!-- $\mathdefault{−5.0}$ -->
      <g transform="translate(20.604674 201.224348) scale(0.1 -0.1)">
       <use xlink:href="#CMSY10-0" transform="scale(0.996264)"/>
       <use xlink:href="#CMR17-35" transform="translate(77.487468 0) scale(0.996264)"/>
       <use xlink:href="#CMMI12-3a" transform="translate(123.177945 0) scale(0.996264)"/>
       <use xlink:href="#CMR17-30" transform="translate(150.275122 0) scale(0.996264)"/>
      </g>
     </g>
    </g>
    <g id="ytick_3">
     <g id="line2d_8">
      <g>
       <use xlink:href="#mca97567492" x="48.083497" y="168.413202" style="stroke: #000000; stroke-width: 0.8"/>
      </g>
     </g>
     <g id="text_9">
      <!-- $\mathdefault{−2.5}$ -->
      <g transform="translate(20.604674 171.962362) scale(0.1 -0.1)">
       <use xlink:href="#CMSY10-0" transform="scale(0.996264)"/>
       <use xlink:href="#CMR17-32" transform="translate(77.487468 0) scale(0.996264)"/>
       <use xlink:href="#CMMI12-3a" transform="translate(123.177945 0) scale(0.996264)"/>
       <use xlink:href="#CMR17-35" transform="translate(150.275122 0) scale(0.996264)"/>
      </g>
     </g>
    </g>
    <g id="ytick_4">
     <g id="line2d_9">
      <g>
       <use xlink:href="#mca97567492" x="48.083497" y="139.151217" style="stroke: #000000; stroke-width: 0.8"/>
      </g>
     </g>
     <g id="text_10">
      <!-- $\mathdefault{0.0}$ -->
      <g transform="translate(28.353418 142.700377) scale(0.1 -0.1)">
       <use xlink:href="#CMR17-30" transform="scale(0.996264)"/>
       <use xlink:href="#CMMI12-3a" transform="translate(45.690477 0) scale(0.996264)"/>
       <use xlink:href="#CMR17-30" transform="translate(72.787654 0) scale(0.996264)"/>
      </g>
     </g>
    </g>
    <g id="ytick_5">
     <g id="line2d_10">
      <g>
       <use xlink:href="#mca97567492" x="48.083497" y="109.889232" style="stroke: #000000; stroke-width: 0.8"/>
      </g>
     </g>
     <g id="text_11">
      <!-- $\mathdefault{2.5}$ -->
      <g transform="translate(28.353418 113.438392) scale(0.1 -0.1)">
       <use xlink:href="#CMR17-32" transform="scale(0.996264)"/>
       <use xlink:href="#CMMI12-3a" transform="translate(45.690477 0) scale(0.996264)"/>
       <use xlink:href="#CMR17-35" transform="translate(72.787654 0) scale(0.996264)"/>
      </g>
     </g>
    </g>
    <g id="ytick_6">
     <g id="line2d_11">
      <g>
       <use xlink:href="#mca97567492" x="48.083497" y="80.627247" style="stroke: #000000; stroke-width: 0.8"/>
      </g>
     </g>
     <g id="text_12">
      <!-- $\mathdefault{5.0}$ -->
      <g transform="translate(28.353418 84.176407) scale(0.1 -0.1)">
       <use xlink:href="#CMR17-35" transform="scale(0.996264)"/>
       <use xlink:href="#CMMI12-3a" transform="translate(45.690477 0) scale(0.996264)"/>
       <use xlink:href="#CMR17-30" transform="translate(72.787654 0) scale(0.996264)"/>
      </g>
     </g>
    </g>
    <g id="ytick_7">
     <g id="line2d_12">
      <g>
       <use xlink:href="#mca97567492" x="48.083497" y="51.365261" style="stroke: #000000; stroke-width: 0.8"/>
      </g>
     </g>
     <g id="text_13">
      <!-- $\mathdefault{7.5}$ -->
      <g transform="translate(28.353418 54.914421) scale(0.1 -0.1)">
       <use xlink:href="#CMR17-37" transform="scale(0.996264)"/>
       <use xlink:href="#CMMI12-3a" transform="translate(45.690477 0) scale(0.996264)"/>
       <use xlink:href="#CMR17-35" transform="translate(72.787654 0) scale(0.996264)"/>
      </g>
     </g>
    </g>
    <g id="ytick_8">
     <g id="line2d_13">
      <g>
       <use xlink:href="#mca97567492" x="48.083497" y="22.103276" style="stroke: #000000; stroke-width: 0.8"/>
      </g>
     </g>
     <g id="text_14">
      <!-- $\mathdefault{10.0}$ -->
      <g transform="translate(23.372082 25.652436) scale(0.1 -0.1)">
       <use xlink:href="#CMR17-31" transform="scale(0.996264)"/>
       <use xlink:href="#CMR17-30" transform="translate(45.690477 0) scale(0.996264)"/>
       <use xlink:href="#CMMI12-3a" transform="translate(91.380954 0) scale(0.996264)"/>
       <use xlink:href="#CMR17-30" transform="translate(118.478131 0) scale(0.996264)"/>
      </g>
     </g>
    </g>
    <g id="text_15">
     <!-- Aerodynamic Coefficients - Blade_17 -->
     <g transform="translate(14.482687 199.050447) rotate(-90) scale(0.1 -0.1)">
      <defs>
       <path id="NimbusSanL-Regu-41" d="M 3034 1408 
L 3514 0 
L 4179 0 
L 2541 4672 
L 1773 4672 
L 109 0 
L 742 0 
L 1235 1408 
L 3034 1408 
z
M 2867 1907 
L 1382 1907 
L 2150 4032 
L 2867 1907 
z
" transform="scale(0.015625)"/>
       <path id="NimbusSanL-Regu-64" d="M 3168 4672 
L 2637 4672 
L 2637 2937 
C 2413 3276 2054 3456 1606 3456 
C 736 3456 166 2759 166 1695 
C 166 568 723 -128 1626 -128 
C 2086 -128 2406 44 2694 460 
L 2694 19 
L 3168 19 
L 3168 4672 
z
M 1696 2956 
C 2272 2956 2637 2447 2637 1651 
C 2637 880 2266 371 1702 371 
C 1114 371 723 887 723 1663 
C 723 2440 1114 2956 1696 2956 
z
" transform="scale(0.015625)"/>
       <path id="NimbusSanL-Regu-79" d="M 2483 3328 
L 1555 724 
L 698 3328 
L 128 3328 
L 1261 -29 
L 1056 -558 
C 973 -794 851 -884 627 -884 
C 550 -884 461 -871 346 -845 
L 346 -1325 
C 454 -1383 563 -1408 704 -1408 
C 877 -1408 1062 -1351 1203 -1248 
C 1370 -1127 1466 -986 1568 -718 
L 3059 3328 
L 2483 3328 
z
" transform="scale(0.015625)"/>
       <path id="NimbusSanL-Regu-6d" d="M 448 3328 
L 448 0 
L 986 0 
L 986 2089 
C 986 2597 1338 2988 1773 2988 
C 2170 2988 2394 2744 2394 2315 
L 2394 0 
L 2931 0 
L 2931 2109 
C 2931 2597 3283 2988 3718 2988 
C 4109 2988 4339 2738 4339 2315 
L 4339 0 
L 4877 0 
L 4877 2520 
C 4877 3123 4531 3456 3904 3456 
C 3456 3456 3187 3321 2874 2943 
C 2675 3302 2406 3456 1971 3456 
C 1523 3456 1229 3289 941 2886 
L 941 3328 
L 448 3328 
z
" transform="scale(0.015625)"/>
       <path id="NimbusSanL-Regu-63" d="M 3014 2237 
C 2989 2561 2918 2771 2790 2956 
C 2560 3270 2157 3456 1690 3456 
C 787 3456 198 2740 198 1632 
C 198 555 774 -128 1683 -128 
C 2483 -128 2989 352 3053 1167 
L 2515 1167 
C 2426 632 2150 364 1696 364 
C 1107 364 755 842 755 1632 
C 755 2466 1101 2963 1683 2963 
C 2131 2963 2413 2701 2477 2237 
L 3014 2237 
z
" transform="scale(0.015625)"/>
       <path id="NimbusSanL-Regu-43" d="M 4237 3219 
C 4051 4236 3462 4736 2438 4736 
C 1811 4736 1306 4537 960 4154 
C 538 3696 307 3035 307 2284 
C 307 1522 544 867 986 415 
C 1344 44 1805 -128 2413 -128 
C 3552 -128 4192 485 4333 1712 
L 3718 1712 
C 3667 1394 3603 1178 3507 994 
C 3315 612 2918 396 2419 396 
C 1491 396 902 1134 902 2291 
C 902 3480 1466 4211 2368 4211 
C 2746 4211 3098 4096 3290 3918 
C 3462 3759 3558 3562 3629 3219 
L 4237 3219 
z
" transform="scale(0.015625)"/>
       <path id="NimbusSanL-Regu-66" d="M 1651 3328 
L 1094 3328 
L 1094 3860 
C 1094 4087 1222 4204 1466 4204 
C 1510 4204 1530 4204 1651 4198 
L 1651 4639 
C 1530 4665 1459 4672 1350 4672 
C 858 4672 563 4390 563 3905 
L 563 3328 
L 115 3328 
L 115 2892 
L 563 2892 
L 563 0 
L 1094 0 
L 1094 2892 
L 1651 2892 
L 1651 3328 
z
" transform="scale(0.015625)"/>
       <path id="NimbusSanL-Regu-2" d="M 1613 3328 
L 1056 3328 
L 1056 3860 
C 1056 4087 1184 4204 1427 4204 
C 1472 4204 1491 4204 1613 4198 
L 1613 4639 
C 1491 4665 1421 4672 1312 4672 
C 819 4672 525 4390 525 3905 
L 525 3328 
L 77 3328 
L 77 2892 
L 525 2892 
L 525 0 
L 1056 0 
L 1056 2892 
L 1613 2892 
L 1613 3328 
z
M 2790 3328 
L 2259 3328 
L 2259 0 
L 2790 0 
L 2790 3328 
z
M 2790 4672 
L 2259 4672 
L 2259 3999 
L 2790 3999 
L 2790 4672 
z
" transform="scale(0.015625)"/>
       <path id="NimbusSanL-Regu-73" d="M 2803 2428 
C 2797 3084 2362 3456 1587 3456 
C 806 3456 301 3052 301 2434 
C 301 1912 570 1663 1363 1472 
L 1862 1351 
C 2234 1262 2381 1129 2381 887 
C 2381 574 2067 364 1600 364 
C 1312 364 1069 447 934 587 
C 851 683 813 778 781 1014 
L 218 1014 
C 243 243 678 -128 1555 -128 
C 2400 -128 2938 288 2938 931 
C 2938 1428 2656 1702 1990 1861 
L 1478 1982 
C 1043 2084 858 2224 858 2459 
C 858 2765 1133 2963 1568 2963 
C 1997 2963 2227 2778 2240 2428 
L 2803 2428 
z
" transform="scale(0.015625)"/>
       <path id="NimbusSanL-Regu-2d" d="M 1818 1996 
L 294 1996 
L 294 1536 
L 1818 1536 
L 1818 1996 
z
" transform="scale(0.015625)"/>
       <path id="NimbusSanL-Regu-42" d="M 506 0 
L 2611 0 
C 3053 0 3379 121 3629 390 
C 3859 632 3987 961 3987 1321 
C 3987 1878 3731 2214 3136 2444 
C 3558 2643 3782 2994 3782 3476 
C 3782 3821 3654 4127 3411 4345 
C 3168 4569 2848 4672 2400 4672 
L 506 4672 
L 506 0 
z
M 1101 2636 
L 1101 4147 
L 2253 4147 
C 2586 4147 2771 4101 2931 3977 
C 3098 3847 3187 3652 3187 3391 
C 3187 3138 3098 2936 2931 2806 
C 2771 2682 2586 2636 2253 2636 
L 1101 2636 
z
M 1101 524 
L 1101 2112 
L 2554 2112 
C 2842 2112 3034 2042 3174 1890 
C 3315 1745 3392 1542 3392 1315 
C 3392 1093 3315 891 3174 746 
C 3034 594 2842 524 2554 524 
L 1101 524 
z
" transform="scale(0.015625)"/>
       <path id="NimbusSanL-Regu-6c" d="M 973 4672 
L 435 4672 
L 435 0 
L 973 0 
L 973 4672 
z
" transform="scale(0.015625)"/>
       <path id="NimbusSanL-Regu-31" d="M 1658 3232 
L 1658 0 
L 2221 0 
L 2221 4537 
L 1850 4537 
C 1651 3840 1523 3744 653 3635 
L 653 3232 
L 1658 3232 
z
" transform="scale(0.015625)"/>
       <path id="NimbusSanL-Regu-37" d="M 3328 4544 
L 294 4544 
L 294 3987 
L 2746 3987 
C 1664 2442 1222 1493 883 0 
L 1485 0 
C 1734 1454 2304 2704 3328 4070 
L 3328 4544 
z
" transform="scale(0.015625)"/>
      </defs>
      <use xlink:href="#NimbusSanL-Regu-41" transform="scale(0.996264)"/>
      <use xlink:href="#NimbusSanL-Regu-65" transform="translate(66.450031 0) scale(0.996264)"/>
      <use xlink:href="#NimbusSanL-Regu-72" transform="translate(121.841708 0) scale(0.996264)"/>
      <use xlink:href="#NimbusSanL-Regu-6f" transform="translate(155.016938 0) scale(0.996264)"/>
      <use xlink:href="#NimbusSanL-Regu-64" transform="translate(210.408615 0) scale(0.996264)"/>
      <use xlink:href="#NimbusSanL-Regu-79" transform="translate(265.800292 0) scale(0.996264)"/>
      <use xlink:href="#NimbusSanL-Regu-6e" transform="translate(315.613492 0) scale(0.996264)"/>
      <use xlink:href="#NimbusSanL-Regu-61" transform="translate(371.005169 0) scale(0.996264)"/>
      <use xlink:href="#NimbusSanL-Regu-6d" transform="translate(426.396846 0) scale(0.996264)"/>
      <use xlink:href="#NimbusSanL-Regu-69" transform="translate(509.385276 0) scale(0.996264)"/>
      <use xlink:href="#NimbusSanL-Regu-63" transform="translate(531.502061 0) scale(0.996264)"/>
      <use xlink:href="#NimbusSanL-Regu-43" transform="translate(609.010431 0) scale(0.996264)"/>
      <use xlink:href="#NimbusSanL-Regu-6f" transform="translate(680.940416 0) scale(0.996264)"/>
      <use xlink:href="#NimbusSanL-Regu-65" transform="translate(736.332093 0) scale(0.996264)"/>
      <use xlink:href="#NimbusSanL-Regu-66" transform="translate(791.72377 0) scale(0.996264)"/>
      <use xlink:href="#NimbusSanL-Regu-2" transform="translate(819.418939 0) scale(0.996264)"/>
      <use xlink:href="#NimbusSanL-Regu-63" transform="translate(869.23214 0) scale(0.996264)"/>
      <use xlink:href="#NimbusSanL-Regu-69" transform="translate(919.04534 0) scale(0.996264)"/>
      <use xlink:href="#NimbusSanL-Regu-65" transform="translate(941.162125 0) scale(0.996264)"/>
      <use xlink:href="#NimbusSanL-Regu-6e" transform="translate(996.553802 0) scale(0.996264)"/>
      <use xlink:href="#NimbusSanL-Regu-74" transform="translate(1051.945479 0) scale(0.996264)"/>
      <use xlink:href="#NimbusSanL-Regu-73" transform="translate(1079.640648 0) scale(0.996264)"/>
      <use xlink:href="#NimbusSanL-Regu-2d" transform="translate(1157.149018 0) scale(0.996264)"/>
      <use xlink:href="#NimbusSanL-Regu-42" transform="translate(1218.019418 0) scale(0.996264)"/>
      <use xlink:href="#NimbusSanL-Regu-6c" transform="translate(1284.469449 0) scale(0.996264)"/>
      <use xlink:href="#NimbusSanL-Regu-61" transform="translate(1306.586233 0) scale(0.996264)"/>
      <use xlink:href="#NimbusSanL-Regu-64" transform="translate(1361.97791 0) scale(0.996264)"/>
      <use xlink:href="#NimbusSanL-Regu-65" transform="translate(1417.369587 0) scale(0.996264)"/>
      <use xlink:href="#NimbusSanL-Regu-31" transform="translate(1508.626829 0) scale(0.996264)"/>
      <use xlink:href="#NimbusSanL-Regu-37" transform="translate(1564.018506 0) scale(0.996264)"/>
      <path d="M 1478.738605 0 
L 1508.626829 0 
L 1508.626829 0.3985 
L 1478.738605 0.3985 
L 1478.738605 0 
z
"/>
     </g>
    </g>
   </g>
   <g id="line2d_14">
    <path d="M 63.301678 91.173678 
L 64.613591 27.765136 
L 65.269547 17.28 
L 65.925503 17.467863 
L 66.581459 18.483345 
L 67.237415 20.199792 
L 68.549327 24.414833 
L 69.205283 26.128788 
L 69.86124 27.207956 
L 70.517196 27.684129 
L 71.829108 28.053654 
L 72.485064 28.559251 
L 73.14102 29.457936 
L 73.796976 30.822959 
L 74.452932 32.843669 
L 75.764845 33.218838 
L 77.076757 33.849797 
L 78.388669 34.892487 
L 79.044625 35.637209 
L 79.700581 36.581692 
L 80.356537 37.773884 
L 81.012493 39.264997 
L 81.66845 41.113164 
L 82.324406 43.457263 
L 82.980362 46.725106 
L 83.636318 51.784468 
L 84.292274 58.864491 
L 84.94823 59.449368 
L 85.604186 60.235302 
L 86.260142 61.280149 
L 86.916098 62.64928 
L 87.572055 64.41425 
L 88.228011 66.646533 
L 88.883967 69.40375 
L 90.195879 76.534468 
L 91.507791 84.885042 
L 92.163747 88.292094 
L 92.819703 90.297006 
L 93.47566 90.868113 
L 94.131616 90.201499 
L 100.035221 90.064637 
L 100.691177 89.688104 
L 101.347133 89.033498 
L 102.659045 87.311879 
L 103.315001 86.654333 
L 103.970957 86.227753 
L 104.626914 86.05346 
L 108.56265 86.12296 
L 109.874562 86.287687 
L 113.154343 86.918097 
L 117.746036 86.790548 
L 119.057948 86.4165 
L 119.713904 86.059838 
L 121.025816 84.94368 
L 121.681772 84.200845 
L 124.305597 83.857648 
L 126.273465 83.362683 
L 128.89729 82.419387 
L 129.553246 82.637738 
L 130.209202 83.522091 
L 132.17707 83.851305 
L 133.488982 84.31353 
L 134.800895 85.125415 
L 135.456851 85.728195 
L 136.112807 86.519934 
L 136.768763 87.592296 
L 137.424719 89.13953 
L 138.080675 91.522603 
L 138.736631 95.247565 
L 139.392587 100.825281 
L 140.7045 101.815617 
L 141.360456 102.538268 
L 142.016412 103.469463 
L 142.672368 104.66171 
L 143.328324 106.176574 
L 143.98428 108.084827 
L 144.640236 110.467145 
L 145.296193 113.419139 
L 145.952149 117.065148 
L 146.608105 121.560107 
L 147.264061 127.042864 
L 147.920017 133.527146 
L 149.231929 134.602864 
L 149.887885 135.353937 
L 150.543841 136.294532 
L 151.199798 137.464189 
L 151.855754 138.90215 
L 152.51171 140.641483 
L 153.823622 145.082432 
L 155.135534 150.665308 
L 155.79149 153.687287 
L 157.103403 154.204288 
L 158.415315 154.940986 
L 159.727227 155.983119 
L 161.039139 157.409046 
L 162.351051 159.238099 
L 163.662964 161.470728 
L 165.630832 165.355369 
L 166.942744 167.093261 
L 167.5987 167.470636 
L 170.878481 167.480078 
L 172.190393 167.338788 
L 172.846349 167.174356 
L 173.502305 166.894211 
L 174.158261 166.435472 
L 174.814218 165.714024 
L 175.470174 164.620091 
L 176.12613 163.012076 
L 176.782086 160.729471 
L 178.093998 160.367267 
L 179.40591 159.732697 
L 180.717823 158.669467 
L 181.373779 157.918729 
L 182.029735 156.986066 
L 182.685691 155.840634 
L 183.341647 154.4458 
L 183.997603 152.750547 
L 184.653559 150.679987 
L 185.309515 148.134391 
L 185.965472 145.043918 
L 187.277384 144.583233 
L 188.589296 143.797432 
L 189.901208 142.523487 
L 191.21312 140.610336 
L 192.525033 137.963898 
L 193.836945 134.499203 
L 195.148857 130.125493 
L 196.460769 129.770304 
L 197.772682 129.20412 
L 199.084594 128.337119 
L 200.396506 127.119158 
L 202.364374 124.775367 
L 203.02033 123.998252 
L 205.644155 123.71512 
L 210.235848 122.984177 
L 210.891804 123.084375 
L 211.54776 123.314676 
L 212.203716 123.698519 
L 215.483497 124.007136 
L 217.451365 124.40113 
L 218.763277 124.848234 
L 220.075189 125.504794 
L 221.387102 126.454684 
L 222.043058 127.112758 
L 224.666882 127.395413 
L 226.63475 127.893142 
L 227.946663 128.442455 
L 229.914531 129.493292 
L 230.570487 129.426428 
L 231.226443 128.603849 
L 233.194312 128.317646 
L 234.506224 127.870201 
L 235.818136 127.041569 
L 236.474092 126.398856 
L 237.130048 125.520664 
L 237.786004 124.299634 
L 238.441961 122.59248 
L 239.097917 120.273107 
L 239.753873 117.35251 
L 241.065785 116.895989 
L 242.377697 116.117187 
L 243.689609 114.879786 
L 245.001522 113.109165 
L 246.96939 109.754929 
L 248.937258 106.442463 
L 250.905127 106.212979 
L 252.872995 105.773407 
L 255.496819 105.079747 
L 258.120644 104.78456 
L 258.7766 104.866479 
L 259.432556 105.278467 
L 261.400424 105.417393 
L 262.712337 105.649025 
L 264.024249 106.106948 
L 264.680205 106.502051 
L 265.336161 107.107761 
L 265.992117 108.042412 
L 266.648073 109.399028 
L 267.959986 113.235084 
L 268.615942 115.491963 
L 269.927854 115.806659 
L 271.239766 116.351851 
L 272.551678 117.219232 
L 273.863591 118.470894 
L 275.175503 120.222129 
L 276.487415 122.638053 
L 277.143371 124.089385 
L 279.11124 124.443506 
L 280.423152 124.904403 
L 281.735064 125.608102 
L 283.046976 126.628289 
L 283.702932 127.333965 
L 284.358888 128.238756 
L 285.670801 130.665932 
L 286.982713 132.924453 
L 288.950581 135.722832 
L 290.262493 137.5015 
L 292.230362 137.729766 
L 294.19823 138.237056 
L 295.510142 138.799539 
L 296.166098 139.209153 
L 296.822055 139.780541 
L 298.133967 141.478424 
L 299.445879 143.476039 
L 300.757791 143.536728 
L 308.629265 143.646027 
L 311.909045 143.909696 
L 314.53287 144.383861 
L 316.500738 144.995198 
L 317.156694 145.344376 
L 317.81265 145.922816 
L 318.468606 146.930871 
L 319.124562 148.555353 
L 319.780519 150.800021 
L 321.092431 156.454872 
L 321.748387 159.910134 
L 322.404343 164.017641 
L 323.060299 164.192818 
L 330.931772 164.19582 
L 332.899641 164.427307 
L 334.211553 164.746325 
L 335.523465 165.244863 
L 336.835377 165.966812 
L 338.14729 166.970389 
L 339.459202 168.396878 
L 340.115158 169.416511 
L 340.771114 170.846352 
L 341.42707 172.915232 
L 342.738982 179.023704 
L 343.394939 182.273142 
L 344.050895 184.690355 
L 345.362807 184.910039 
L 346.674719 185.412541 
L 347.986631 186.223667 
L 349.298544 187.299681 
L 349.9545 187.990006 
L 350.610456 188.919352 
L 351.266412 190.26609 
L 351.922368 192.134037 
L 353.23428 196.7535 
L 354.546193 197.018201 
L 355.858105 197.568679 
L 357.170017 198.439556 
L 358.481929 199.633279 
L 359.137885 200.494482 
L 359.793841 201.822561 
L 360.449798 203.968967 
L 361.105754 207.144669 
L 361.76171 211.239576 
L 363.073622 211.790668 
L 363.729578 212.251614 
L 364.385534 212.872864 
L 365.04149 213.670249 
L 366.353403 215.814543 
L 367.009359 217.186464 
L 367.665315 218.88 
L 367.665315 218.88 
" clip-path="url(#pe5be565958)" style="fill: none; stroke: #1f77b4; stroke-width: 1.5; stroke-linecap: square"/>
   </g>
   <g id="line2d_15">
    <path d="M 63.301678 153.294939 
L 63.957635 167.185896 
L 64.613591 176.881888 
L 65.269547 179.189574 
L 65.925503 179.001545 
L 66.581459 178.544582 
L 68.549327 176.529101 
L 69.205283 176.092563 
L 69.86124 175.919435 
L 71.173152 176.130236 
L 72.485064 176.387491 
L 73.796976 176.573656 
L 74.452932 176.777995 
L 77.732713 176.946092 
L 79.700581 177.228012 
L 81.012493 177.559359 
L 82.980362 178.168526 
L 83.636318 177.775309 
L 84.292274 176.715872 
L 85.604186 176.399994 
L 86.916098 175.833857 
L 87.572055 175.403168 
L 88.228011 174.832038 
L 88.883967 174.084066 
L 89.539923 173.126794 
L 90.195879 171.938534 
L 92.163747 167.719993 
L 93.47566 165.555486 
L 94.131616 164.085836 
L 95.443528 163.510283 
L 96.099484 163.042416 
L 96.75544 162.389737 
L 97.411396 161.481286 
L 98.067352 160.229654 
L 98.723308 158.535845 
L 99.379265 156.292735 
L 100.691177 150.087805 
L 102.003089 142.92363 
L 102.659045 140.255086 
L 103.315001 138.570533 
L 103.970957 137.76529 
L 105.28287 137.780271 
L 107.906694 138.107535 
L 109.218606 138.513879 
L 110.530519 139.288097 
L 112.498387 141.015938 
L 115.122211 141.273067 
L 117.746036 141.763404 
L 120.36986 142.504251 
L 121.025816 142.8077 
L 121.681772 143.339771 
L 124.305597 143.619763 
L 125.617509 143.936461 
L 126.929421 144.52573 
L 127.585377 145.002434 
L 128.241334 145.670299 
L 128.89729 146.606033 
L 129.553246 147.906868 
L 130.209202 149.676172 
L 131.521114 149.964221 
L 132.833026 150.464935 
L 134.144939 151.298206 
L 135.456851 152.616027 
L 136.768763 154.581445 
L 139.392587 159.350302 
L 144.640236 159.632052 
L 145.296193 159.411769 
L 145.952149 158.959523 
L 146.608105 158.170169 
L 147.264061 156.933915 
L 147.920017 155.16655 
L 149.231929 154.869068 
L 150.543841 154.37056 
L 151.855754 153.559652 
L 153.167666 152.297252 
L 154.479578 150.41703 
L 155.79149 147.713222 
L 157.759359 147.289225 
L 159.071271 146.808817 
L 160.383183 146.075823 
L 161.695095 144.983797 
L 163.007008 143.398834 
L 163.662964 142.359925 
L 164.31892 141.105279 
L 166.942744 134.897111 
L 167.5987 132.998395 
L 169.566569 132.489866 
L 170.878481 131.908165 
L 172.190393 131.051569 
L 173.502305 129.917227 
L 175.470174 128.124575 
L 176.12613 127.757043 
L 177.438042 127.683981 
L 180.717823 127.820115 
L 182.029735 128.065261 
L 183.341647 128.625201 
L 183.997603 129.110148 
L 184.653559 129.8107 
L 185.309515 130.817364 
L 185.965472 132.236596 
L 187.93334 132.644234 
L 189.245252 133.172528 
L 190.557164 134.032495 
L 191.869077 135.37522 
L 192.525033 136.298426 
L 193.180989 137.442282 
L 193.836945 138.844541 
L 195.148857 142.533476 
L 196.460769 142.854748 
L 197.772682 143.3889 
L 199.084594 144.228943 
L 200.396506 145.441682 
L 201.708418 147.017288 
L 203.02033 148.742831 
L 205.644155 149.065723 
L 207.612023 149.509585 
L 210.235848 150.155767 
L 211.54776 150.165224 
L 212.203716 149.984118 
L 215.483497 149.816001 
L 217.451365 149.544473 
L 218.763277 149.169426 
L 220.075189 148.484454 
L 220.731145 147.962467 
L 221.387102 147.285483 
L 222.043058 146.433916 
L 224.010926 146.196321 
L 225.978794 145.701906 
L 227.290707 145.145042 
L 228.602619 144.332967 
L 229.914531 143.206632 
L 231.226443 141.856998 
L 233.850268 141.612381 
L 235.818136 141.201375 
L 238.441961 140.523457 
L 239.097917 140.516438 
L 239.753873 140.685851 
L 243.033653 140.850521 
L 245.001522 141.155218 
L 246.313434 141.55871 
L 247.625346 142.261898 
L 248.281302 142.789262 
L 248.937258 143.469647 
L 250.905127 143.645907 
L 252.872995 144.051747 
L 254.184907 144.521192 
L 255.496819 145.228052 
L 256.808732 146.308179 
L 259.432556 149.116055 
L 262.056381 149.300839 
L 265.336161 149.594723 
L 265.992117 149.511825 
L 266.648073 149.305428 
L 267.304029 148.950824 
L 267.959986 148.437936 
L 268.615942 147.767255 
L 270.58381 147.601989 
L 272.551678 147.197658 
L 273.863591 146.751538 
L 275.175503 146.120548 
L 276.487415 145.284048 
L 277.143371 144.771182 
L 279.767196 144.576372 
L 281.735064 144.208801 
L 283.046976 143.796873 
L 284.358888 143.138482 
L 286.982713 141.427279 
L 288.294625 140.910878 
L 289.606537 140.572788 
L 290.91845 140.454395 
L 298.133967 140.488601 
L 300.101835 140.727435 
L 314.53287 140.8456 
L 317.81265 140.859229 
L 319.124562 140.586829 
L 320.436475 139.928107 
L 321.092431 139.450025 
L 321.748387 138.800607 
L 322.404343 137.910382 
L 324.372211 137.866109 
L 333.555597 137.769315 
L 336.179421 137.549276 
L 338.14729 137.224599 
L 339.459202 136.876299 
L 340.771114 136.292392 
L 341.42707 135.826333 
L 342.738982 134.427427 
L 344.050895 132.811941 
L 346.018763 132.648378 
L 347.986631 132.248348 
L 349.9545 131.557722 
L 351.266412 130.812963 
L 353.23428 129.218168 
L 355.858105 129.042691 
L 358.481929 128.644242 
L 359.793841 128.34567 
L 361.105754 127.793448 
L 361.76171 127.4319 
L 365.04149 127.236247 
L 367.665315 126.871522 
L 367.665315 126.871522 
" clip-path="url(#pe5be565958)" style="fill: none; stroke: #ff7f0e; stroke-width: 1.5; stroke-linecap: square"/>
   </g>
   <g id="patch_3">
    <path d="M 48.083497 228.96 
L 48.083497 7.2 
" style="fill: none; stroke: #000000; stroke-width: 0.8; stroke-linejoin: miter; stroke-linecap: square"/>
   </g>
   <g id="patch_4">
    <path d="M 382.883497 228.96 
L 382.883497 7.2 
" style="fill: none; stroke: #000000; stroke-width: 0.8; stroke-linejoin: miter; stroke-linecap: square"/>
   </g>
   <g id="patch_5">
    <path d="M 48.083497 228.96 
L 382.883497 228.96 
" style="fill: none; stroke: #000000; stroke-width: 0.8; stroke-linejoin: miter; stroke-linecap: square"/>
   </g>
   <g id="patch_6">
    <path d="M 48.083497 7.2 
L 382.883497 7.2 
" style="fill: none; stroke: #000000; stroke-width: 0.8; stroke-linejoin: miter; stroke-linecap: square"/>
   </g>
   <g id="legend_1">
    <g id="patch_7">
     <path d="M 329.497503 43.640613 
L 375.883497 43.640613 
Q 377.883497 43.640613 377.883497 41.640613 
L 377.883497 14.2 
Q 377.883497 12.2 375.883497 12.2 
L 329.497503 12.2 
Q 327.497503 12.2 327.497503 14.2 
L 327.497503 41.640613 
Q 327.497503 43.640613 329.497503 43.640613 
z
" style="fill: #ffffff; opacity: 0.8; stroke: #cccccc; stroke-linejoin: miter"/>
    </g>
    <g id="line2d_16">
     <path d="M 331.497503 19.79832 
L 341.497503 19.79832 
L 351.497503 19.79832 
" style="fill: none; stroke: #1f77b4; stroke-width: 1.5; stroke-linecap: square"/>
    </g>
    <g id="text_16">
     <!-- CD -->
     <g transform="translate(359.497503 23.29832) scale(0.1 -0.1)">
      <defs>
       <path id="NimbusSanL-Regu-44" d="M 570 0 
L 2368 0 
C 3546 0 4269 883 4269 2339 
C 4269 3788 3552 4672 2368 4672 
L 570 4672 
L 570 0 
z
M 1165 524 
L 1165 4147 
L 2266 4147 
C 3187 4147 3674 3525 3674 2332 
C 3674 1153 3187 524 2266 524 
L 1165 524 
z
" transform="scale(0.015625)"/>
      </defs>
      <use xlink:href="#NimbusSanL-Regu-43" transform="scale(0.996264)"/>
      <use xlink:href="#NimbusSanL-Regu-44" transform="translate(71.929985 0) scale(0.996264)"/>
     </g>
    </g>
    <g id="line2d_17">
     <path d="M 331.497503 34.018627 
L 341.497503 34.018627 
L 351.497503 34.018627 
" style="fill: none; stroke: #ff7f0e; stroke-width: 1.5; stroke-linecap: square"/>
    </g>
    <g id="text_17">
     <!-- CL -->
     <g transform="translate(359.497503 37.518627) scale(0.1 -0.1)">
      <defs>
       <path id="NimbusSanL-Regu-4c" d="M 1107 4672 
L 512 4672 
L 512 0 
L 3411 0 
L 3411 524 
L 1107 524 
L 1107 4672 
z
" transform="scale(0.015625)"/>
      </defs>
      <use xlink:href="#NimbusSanL-Regu-43" transform="scale(0.996264)"/>
      <use xlink:href="#NimbusSanL-Regu-4c" transform="translate(71.929985 0) scale(0.996264)"/>
     </g>
    </g>
   </g>
  </g>
 </g>
 <defs>
  <clipPath id="pe5be565958">
   <rect x="48.083497" y="7.2" width="334.8" height="221.76"/>
  </clipPath>
 </defs>
</svg>
