<?xml version="1.0" encoding="utf-8" standalone="no"?>
<!DOCTYPE svg PUBLIC "-//W3C//DTD SVG 1.1//EN"
  "http://www.w3.org/Graphics/SVG/1.1/DTD/svg11.dtd">
<svg xmlns:xlink="http://www.w3.org/1999/xlink" width="379.567344pt" height="265.600613pt" viewBox="0 0 379.567344 265.600613" xmlns="http://www.w3.org/2000/svg" version="1.1">
 <metadata>
  <rdf:RDF xmlns:dc="http://purl.org/dc/elements/1.1/" xmlns:cc="http://creativecommons.org/ns#" xmlns:rdf="http://www.w3.org/1999/02/22-rdf-syntax-ns#">
   <cc:Work>
    <dc:type rdf:resource="http://purl.org/dc/dcmitype/StillImage"/>
    <dc:date>2025-07-17T21:04:59.863304</dc:date>
    <dc:format>image/svg+xml</dc:format>
    <dc:creator>
     <cc:Agent>
      <dc:title>Matplotlib v3.10.3, https://matplotlib.org/</dc:title>
     </cc:Agent>
    </dc:creator>
   </cc:Work>
  </rdf:RDF>
 </metadata>
 <defs>
  <style type="text/css">*{stroke-linejoin: round; stroke-linecap: butt}</style>
 </defs>
 <g id="figure_1">
  <g id="patch_1">
   <path d="M 0 265.600613 
L 379.567344 265.600613 
L 379.567344 0 
L 0 0 
z
" style="fill: #ffffff"/>
  </g>
  <g id="axes_1">
   <g id="patch_2">
    <path d="M 37.567344 228.96 
L 372.367344 228.96 
L 372.367344 7.2 
L 37.567344 7.2 
z
" style="fill: #ffffff"/>
   </g>
   <g id="matplotlib.axis_1">
    <g id="xtick_1">
     <g id="line2d_1">
      <defs>
       <path id="m5cbb3154f2" d="M 0 0 
L 0 3.5 
" style="stroke: #000000; stroke-width: 0.8"/>
      </defs>
      <g>
       <use xlink:href="#m5cbb3154f2" x="52.785526" y="228.96" style="stroke: #000000; stroke-width: 0.8"/>
      </g>
     </g>
     <g id="text_1">
      <!-- $\mathdefault{0}$ -->
      <g transform="translate(50.294859 243.05832) scale(0.1 -0.1)">
       <defs>
        <path id="CMR17-30" d="M 2688 2038 
C 2688 2430 2682 3099 2413 3613 
C 2176 4063 1798 4224 1466 4224 
C 1158 4224 768 4082 525 3620 
C 269 3137 243 2539 243 2038 
C 243 1671 250 1112 448 623 
C 723 -39 1216 -128 1466 -128 
C 1760 -128 2208 -7 2470 604 
C 2662 1048 2688 1568 2688 2038 
z
M 1466 -26 
C 1056 -26 813 328 723 816 
C 653 1196 653 1749 653 2109 
C 653 2604 653 3015 736 3407 
C 858 3954 1216 4121 1466 4121 
C 1728 4121 2067 3947 2189 3420 
C 2272 3054 2278 2623 2278 2109 
C 2278 1691 2278 1176 2202 797 
C 2067 96 1690 -26 1466 -26 
z
" transform="scale(0.015625)"/>
       </defs>
       <use xlink:href="#CMR17-30" transform="scale(0.996264)"/>
      </g>
     </g>
    </g>
    <g id="xtick_2">
     <g id="line2d_2">
      <g>
       <use xlink:href="#m5cbb3154f2" x="96.272258" y="228.96" style="stroke: #000000; stroke-width: 0.8"/>
      </g>
     </g>
     <g id="text_2">
      <!-- $\mathdefault{1000}$ -->
      <g transform="translate(86.309588 243.05832) scale(0.1 -0.1)">
       <defs>
        <path id="CMR17-31" d="M 1702 4083 
C 1702 4217 1696 4224 1606 4224 
C 1357 3927 979 3833 621 3820 
C 602 3820 570 3820 563 3808 
C 557 3795 557 3782 557 3648 
C 755 3648 1088 3686 1344 3839 
L 1344 467 
C 1344 243 1331 166 781 166 
L 589 166 
L 589 0 
C 896 6 1216 12 1523 12 
C 1830 12 2150 6 2458 0 
L 2458 166 
L 2266 166 
C 1715 166 1702 236 1702 467 
L 1702 4083 
z
" transform="scale(0.015625)"/>
       </defs>
       <use xlink:href="#CMR17-31" transform="scale(0.996264)"/>
       <use xlink:href="#CMR17-30" transform="translate(45.690477 0) scale(0.996264)"/>
       <use xlink:href="#CMR17-30" transform="translate(91.380954 0) scale(0.996264)"/>
       <use xlink:href="#CMR17-30" transform="translate(137.071431 0) scale(0.996264)"/>
      </g>
     </g>
    </g>
    <g id="xtick_3">
     <g id="line2d_3">
      <g>
       <use xlink:href="#m5cbb3154f2" x="139.75899" y="228.96" style="stroke: #000000; stroke-width: 0.8"/>
      </g>
     </g>
     <g id="text_3">
      <!-- $\mathdefault{2000}$ -->
      <g transform="translate(129.796319 243.05832) scale(0.1 -0.1)">
       <defs>
        <path id="CMR17-32" d="M 2669 990 
L 2554 990 
C 2490 537 2438 460 2413 422 
C 2381 371 1920 371 1830 371 
L 602 371 
C 832 620 1280 1073 1824 1596 
C 2214 1966 2669 2400 2669 3033 
C 2669 3788 2067 4224 1395 4224 
C 691 4224 262 3603 262 3027 
C 262 2777 448 2745 525 2745 
C 589 2745 781 2783 781 3007 
C 781 3206 614 3264 525 3264 
C 486 3264 448 3257 422 3244 
C 544 3788 915 4057 1306 4057 
C 1862 4057 2227 3616 2227 3033 
C 2227 2477 1901 1998 1536 1583 
L 262 147 
L 262 0 
L 2515 0 
L 2669 990 
z
" transform="scale(0.015625)"/>
       </defs>
       <use xlink:href="#CMR17-32" transform="scale(0.996264)"/>
       <use xlink:href="#CMR17-30" transform="translate(45.690477 0) scale(0.996264)"/>
       <use xlink:href="#CMR17-30" transform="translate(91.380954 0) scale(0.996264)"/>
       <use xlink:href="#CMR17-30" transform="translate(137.071431 0) scale(0.996264)"/>
      </g>
     </g>
    </g>
    <g id="xtick_4">
     <g id="line2d_4">
      <g>
       <use xlink:href="#m5cbb3154f2" x="183.245722" y="228.96" style="stroke: #000000; stroke-width: 0.8"/>
      </g>
     </g>
     <g id="text_4">
      <!-- $\mathdefault{3000}$ -->
      <g transform="translate(173.283051 243.05832) scale(0.1 -0.1)">
       <defs>
        <path id="CMR17-33" d="M 1414 2176 
C 1984 2176 2234 1673 2234 1094 
C 2234 322 1824 25 1453 25 
C 1114 25 563 193 390 691 
C 422 678 454 678 486 678 
C 640 678 755 780 755 947 
C 755 1132 614 1216 486 1216 
C 378 1216 211 1164 211 927 
C 211 335 787 -128 1466 -128 
C 2176 -128 2720 432 2720 1087 
C 2720 1718 2208 2176 1600 2246 
C 2086 2347 2554 2776 2554 3353 
C 2554 3856 2048 4224 1472 4224 
C 890 4224 378 3862 378 3347 
C 378 3123 544 3084 627 3084 
C 762 3084 877 3167 877 3334 
C 877 3500 762 3584 627 3584 
C 602 3584 570 3584 544 3571 
C 730 3999 1235 4076 1459 4076 
C 1683 4076 2106 3966 2106 3347 
C 2106 3167 2080 2851 1862 2574 
C 1670 2329 1453 2316 1242 2297 
C 1210 2297 1062 2284 1037 2284 
C 992 2278 966 2272 966 2227 
C 966 2182 973 2176 1101 2176 
L 1414 2176 
z
" transform="scale(0.015625)"/>
       </defs>
       <use xlink:href="#CMR17-33" transform="scale(0.996264)"/>
       <use xlink:href="#CMR17-30" transform="translate(45.690477 0) scale(0.996264)"/>
       <use xlink:href="#CMR17-30" transform="translate(91.380954 0) scale(0.996264)"/>
       <use xlink:href="#CMR17-30" transform="translate(137.071431 0) scale(0.996264)"/>
      </g>
     </g>
    </g>
    <g id="xtick_5">
     <g id="line2d_5">
      <g>
       <use xlink:href="#m5cbb3154f2" x="226.732454" y="228.96" style="stroke: #000000; stroke-width: 0.8"/>
      </g>
     </g>
     <g id="text_5">
      <!-- $\mathdefault{4000}$ -->
      <g transform="translate(216.769783 243.05832) scale(0.1 -0.1)">
       <defs>
        <path id="CMR17-34" d="M 2150 4147 
C 2150 4281 2144 4288 2029 4288 
L 128 1254 
L 128 1088 
L 1779 1088 
L 1779 460 
C 1779 230 1766 166 1318 166 
L 1197 166 
L 1197 0 
C 1402 12 1747 12 1965 12 
C 2182 12 2528 12 2733 0 
L 2733 166 
L 2611 166 
C 2163 166 2150 230 2150 460 
L 2150 1088 
L 2803 1088 
L 2803 1254 
L 2150 1254 
L 2150 4147 
z
M 1798 3723 
L 1798 1254 
L 256 1254 
L 1798 3723 
z
" transform="scale(0.015625)"/>
       </defs>
       <use xlink:href="#CMR17-34" transform="scale(0.996264)"/>
       <use xlink:href="#CMR17-30" transform="translate(45.690477 0) scale(0.996264)"/>
       <use xlink:href="#CMR17-30" transform="translate(91.380954 0) scale(0.996264)"/>
       <use xlink:href="#CMR17-30" transform="translate(137.071431 0) scale(0.996264)"/>
      </g>
     </g>
    </g>
    <g id="xtick_6">
     <g id="line2d_6">
      <g>
       <use xlink:href="#m5cbb3154f2" x="270.219186" y="228.96" style="stroke: #000000; stroke-width: 0.8"/>
      </g>
     </g>
     <g id="text_6">
      <!-- $\mathdefault{5000}$ -->
      <g transform="translate(260.256515 243.05832) scale(0.1 -0.1)">
       <defs>
        <path id="CMR17-35" d="M 730 3750 
C 794 3724 1056 3641 1325 3641 
C 1920 3641 2246 3961 2432 4140 
C 2432 4191 2432 4224 2394 4224 
C 2387 4224 2374 4224 2323 4198 
C 2099 4102 1837 4032 1517 4032 
C 1325 4032 1037 4055 723 4191 
C 653 4224 640 4224 634 4224 
C 602 4224 595 4217 595 4090 
L 595 2231 
C 595 2113 595 2080 659 2080 
C 691 2080 704 2093 736 2139 
C 941 2435 1222 2560 1542 2560 
C 1766 2560 2246 2415 2246 1293 
C 2246 1087 2246 716 2054 422 
C 1894 159 1645 25 1370 25 
C 947 25 518 319 403 812 
C 429 806 480 793 506 793 
C 589 793 749 838 749 1036 
C 749 1209 627 1280 506 1280 
C 358 1280 262 1190 262 1011 
C 262 454 704 -128 1382 -128 
C 2042 -128 2669 441 2669 1267 
C 2669 2054 2170 2662 1549 2662 
C 1222 2662 947 2540 730 2304 
L 730 3750 
z
" transform="scale(0.015625)"/>
       </defs>
       <use xlink:href="#CMR17-35" transform="scale(0.996264)"/>
       <use xlink:href="#CMR17-30" transform="translate(45.690477 0) scale(0.996264)"/>
       <use xlink:href="#CMR17-30" transform="translate(91.380954 0) scale(0.996264)"/>
       <use xlink:href="#CMR17-30" transform="translate(137.071431 0) scale(0.996264)"/>
      </g>
     </g>
    </g>
    <g id="xtick_7">
     <g id="line2d_7">
      <g>
       <use xlink:href="#m5cbb3154f2" x="313.705917" y="228.96" style="stroke: #000000; stroke-width: 0.8"/>
      </g>
     </g>
     <g id="text_7">
      <!-- $\mathdefault{6000}$ -->
      <g transform="translate(303.743247 243.05832) scale(0.1 -0.1)">
       <defs>
        <path id="CMR17-36" d="M 678 2198 
C 678 3712 1395 4076 1811 4076 
C 1946 4076 2272 4049 2400 3782 
C 2298 3782 2106 3782 2106 3558 
C 2106 3385 2246 3328 2336 3328 
C 2394 3328 2566 3353 2566 3571 
C 2566 3987 2246 4224 1805 4224 
C 1043 4224 243 3411 243 2011 
C 243 257 966 -128 1478 -128 
C 2099 -128 2688 431 2688 1295 
C 2688 2101 2170 2688 1517 2688 
C 1126 2688 838 2430 678 1979 
L 678 2198 
z
M 1478 25 
C 691 25 691 1212 691 1450 
C 691 1914 909 2585 1504 2585 
C 1613 2585 1926 2585 2138 2140 
C 2253 1889 2253 1624 2253 1302 
C 2253 954 2253 696 2118 438 
C 1978 173 1773 25 1478 25 
z
" transform="scale(0.015625)"/>
       </defs>
       <use xlink:href="#CMR17-36" transform="scale(0.996264)"/>
       <use xlink:href="#CMR17-30" transform="translate(45.690477 0) scale(0.996264)"/>
       <use xlink:href="#CMR17-30" transform="translate(91.380954 0) scale(0.996264)"/>
       <use xlink:href="#CMR17-30" transform="translate(137.071431 0) scale(0.996264)"/>
      </g>
     </g>
    </g>
    <g id="xtick_8">
     <g id="line2d_8">
      <g>
       <use xlink:href="#m5cbb3154f2" x="357.192649" y="228.96" style="stroke: #000000; stroke-width: 0.8"/>
      </g>
     </g>
     <g id="text_8">
      <!-- $\mathdefault{7000}$ -->
      <g transform="translate(347.229979 243.05832) scale(0.1 -0.1)">
       <defs>
        <path id="CMR17-37" d="M 2886 3955 
L 2886 4096 
L 1382 4096 
C 634 4096 621 4166 595 4288 
L 480 4288 
L 294 3104 
L 410 3104 
C 429 3226 474 3552 550 3673 
C 589 3724 1062 3724 1171 3724 
L 2579 3724 
L 1869 2670 
C 1395 1961 1069 1003 1069 166 
C 1069 89 1069 -128 1299 -128 
C 1530 -128 1530 89 1530 172 
L 1530 466 
C 1530 1514 1709 2204 2003 2644 
L 2886 3955 
z
" transform="scale(0.015625)"/>
       </defs>
       <use xlink:href="#CMR17-37" transform="scale(0.996264)"/>
       <use xlink:href="#CMR17-30" transform="translate(45.690477 0) scale(0.996264)"/>
       <use xlink:href="#CMR17-30" transform="translate(91.380954 0) scale(0.996264)"/>
       <use xlink:href="#CMR17-30" transform="translate(137.071431 0) scale(0.996264)"/>
      </g>
     </g>
    </g>
    <g id="text_9">
     <!-- Iteration -->
     <g transform="translate(187.019968 256.278627) scale(0.1 -0.1)">
      <defs>
       <path id="NimbusSanL-Regu-49" d="M 1242 4672 
L 640 4672 
L 640 0 
L 1242 0 
L 1242 4672 
z
" transform="scale(0.015625)"/>
       <path id="NimbusSanL-Regu-74" d="M 1626 3328 
L 1075 3328 
L 1075 4249 
L 544 4249 
L 544 3328 
L 90 3328 
L 90 2892 
L 544 2892 
L 544 402 
C 544 64 774 -128 1190 -128 
C 1318 -128 1446 -116 1626 -84 
L 1626 364 
C 1555 345 1472 339 1370 339 
C 1139 339 1075 402 1075 634 
L 1075 2892 
L 1626 2892 
L 1626 3328 
z
" transform="scale(0.015625)"/>
       <path id="NimbusSanL-Regu-65" d="M 3283 1484 
C 3283 1998 3245 2311 3149 2565 
C 2931 3123 2419 3456 1792 3456 
C 858 3456 256 2734 256 1619 
C 256 545 838 -128 1779 -128 
C 2547 -128 3078 307 3213 1018 
L 2675 1018 
C 2528 588 2227 364 1798 364 
C 1459 364 1171 514 992 787 
C 864 974 819 1161 813 1484 
L 3283 1484 
z
M 826 1920 
C 870 2552 1248 2963 1786 2963 
C 2310 2963 2714 2519 2714 1959 
C 2714 1946 2714 1933 2707 1920 
L 826 1920 
z
" transform="scale(0.015625)"/>
       <path id="NimbusSanL-Regu-72" d="M 442 3328 
L 442 0 
L 979 0 
L 979 1727 
C 979 2203 1101 2514 1357 2698 
C 1523 2819 1683 2857 2054 2863 
L 2054 3404 
C 1965 3449 1920 3456 1850 3456 
C 1504 3456 1242 3251 934 2750 
L 934 3328 
L 442 3328 
z
" transform="scale(0.015625)"/>
       <path id="NimbusSanL-Regu-61" d="M 3424 332 
C 3366 320 3341 320 3309 320 
C 3123 320 3021 415 3021 581 
L 3021 2542 
C 3021 3135 2586 3456 1760 3456 
C 1274 3456 870 3315 646 3065 
C 493 2893 429 2702 416 2370 
L 954 2370 
C 998 2778 1242 2963 1741 2963 
C 2221 2963 2490 2784 2490 2466 
L 2490 2326 
C 2490 2103 2355 2007 1933 1956 
C 1178 1861 1062 1835 858 1753 
C 467 1593 269 1294 269 861 
C 269 256 691 -128 1370 -128 
C 1792 -128 2131 19 2509 364 
C 2547 25 2714 -128 3059 -128 
C 3168 -128 3251 -116 3424 -71 
L 3424 332 
z
M 2490 1071 
C 2490 893 2438 785 2278 638 
C 2061 441 1798 339 1485 339 
C 1069 339 826 536 826 874 
C 826 1224 1062 1402 1632 1485 
C 2195 1562 2310 1587 2490 1670 
L 2490 1071 
z
" transform="scale(0.015625)"/>
       <path id="NimbusSanL-Regu-69" d="M 960 3358 
L 429 3358 
L 429 0 
L 960 0 
L 960 3358 
z
M 960 4672 
L 422 4672 
L 422 3999 
L 960 3999 
L 960 4672 
z
" transform="scale(0.015625)"/>
       <path id="NimbusSanL-Regu-6f" d="M 1741 3456 
C 800 3456 230 2784 230 1663 
C 230 543 794 -128 1747 -128 
C 2688 -128 3264 543 3264 1638 
C 3264 2791 2707 3456 1741 3456 
z
M 1747 2963 
C 2349 2963 2707 2472 2707 1644 
C 2707 861 2336 364 1747 364 
C 1152 364 787 855 787 1663 
C 787 2466 1152 2963 1747 2963 
z
" transform="scale(0.015625)"/>
       <path id="NimbusSanL-Regu-6e" d="M 448 3328 
L 448 0 
L 986 0 
L 986 1835 
C 986 2539 1344 2988 1894 2988 
C 2317 2988 2586 2732 2586 2328 
L 2586 0 
L 3117 0 
L 3117 2539 
C 3117 3097 2701 3456 2054 3456 
C 1555 3456 1235 3263 941 2796 
L 941 3328 
L 448 3328 
z
" transform="scale(0.015625)"/>
      </defs>
      <use xlink:href="#NimbusSanL-Regu-49" transform="scale(0.996264)"/>
      <use xlink:href="#NimbusSanL-Regu-74" transform="translate(27.69517 0) scale(0.996264)"/>
      <use xlink:href="#NimbusSanL-Regu-65" transform="translate(55.390339 0) scale(0.996264)"/>
      <use xlink:href="#NimbusSanL-Regu-72" transform="translate(110.782016 0) scale(0.996264)"/>
      <use xlink:href="#NimbusSanL-Regu-61" transform="translate(142.961149 0) scale(0.996264)"/>
      <use xlink:href="#NimbusSanL-Regu-74" transform="translate(198.352826 0) scale(0.996264)"/>
      <use xlink:href="#NimbusSanL-Regu-69" transform="translate(226.047996 0) scale(0.996264)"/>
      <use xlink:href="#NimbusSanL-Regu-6f" transform="translate(248.16478 0) scale(0.996264)"/>
      <use xlink:href="#NimbusSanL-Regu-6e" transform="translate(303.556457 0) scale(0.996264)"/>
     </g>
    </g>
   </g>
   <g id="matplotlib.axis_2">
    <g id="ytick_1">
     <g id="line2d_9">
      <defs>
       <path id="me9d7c1da37" d="M 0 0 
L -3.5 0 
" style="stroke: #000000; stroke-width: 0.8"/>
      </defs>
      <g>
       <use xlink:href="#me9d7c1da37" x="37.567344" y="219.223048" style="stroke: #000000; stroke-width: 0.8"/>
      </g>
     </g>
     <g id="text_10">
      <!-- $\mathdefault{0}$ -->
      <g transform="translate(25.586009 222.772208) scale(0.1 -0.1)">
       <use xlink:href="#CMR17-30" transform="scale(0.996264)"/>
      </g>
     </g>
    </g>
    <g id="ytick_2">
     <g id="line2d_10">
      <g>
       <use xlink:href="#me9d7c1da37" x="37.567344" y="184.918223" style="stroke: #000000; stroke-width: 0.8"/>
      </g>
     </g>
     <g id="text_11">
      <!-- $\mathdefault{10}$ -->
      <g transform="translate(20.604674 188.467383) scale(0.1 -0.1)">
       <use xlink:href="#CMR17-31" transform="scale(0.996264)"/>
       <use xlink:href="#CMR17-30" transform="translate(45.690477 0) scale(0.996264)"/>
      </g>
     </g>
    </g>
    <g id="ytick_3">
     <g id="line2d_11">
      <g>
       <use xlink:href="#me9d7c1da37" x="37.567344" y="150.613397" style="stroke: #000000; stroke-width: 0.8"/>
      </g>
     </g>
     <g id="text_12">
      <!-- $\mathdefault{20}$ -->
      <g transform="translate(20.604674 154.162557) scale(0.1 -0.1)">
       <use xlink:href="#CMR17-32" transform="scale(0.996264)"/>
       <use xlink:href="#CMR17-30" transform="translate(45.690477 0) scale(0.996264)"/>
      </g>
     </g>
    </g>
    <g id="ytick_4">
     <g id="line2d_12">
      <g>
       <use xlink:href="#me9d7c1da37" x="37.567344" y="116.308571" style="stroke: #000000; stroke-width: 0.8"/>
      </g>
     </g>
     <g id="text_13">
      <!-- $\mathdefault{30}$ -->
      <g transform="translate(20.604674 119.857731) scale(0.1 -0.1)">
       <use xlink:href="#CMR17-33" transform="scale(0.996264)"/>
       <use xlink:href="#CMR17-30" transform="translate(45.690477 0) scale(0.996264)"/>
      </g>
     </g>
    </g>
    <g id="ytick_5">
     <g id="line2d_13">
      <g>
       <use xlink:href="#me9d7c1da37" x="37.567344" y="82.003746" style="stroke: #000000; stroke-width: 0.8"/>
      </g>
     </g>
     <g id="text_14">
      <!-- $\mathdefault{40}$ -->
      <g transform="translate(20.604674 85.552906) scale(0.1 -0.1)">
       <use xlink:href="#CMR17-34" transform="scale(0.996264)"/>
       <use xlink:href="#CMR17-30" transform="translate(45.690477 0) scale(0.996264)"/>
      </g>
     </g>
    </g>
    <g id="ytick_6">
     <g id="line2d_14">
      <g>
       <use xlink:href="#me9d7c1da37" x="37.567344" y="47.69892" style="stroke: #000000; stroke-width: 0.8"/>
      </g>
     </g>
     <g id="text_15">
      <!-- $\mathdefault{50}$ -->
      <g transform="translate(20.604674 51.24808) scale(0.1 -0.1)">
       <use xlink:href="#CMR17-35" transform="scale(0.996264)"/>
       <use xlink:href="#CMR17-30" transform="translate(45.690477 0) scale(0.996264)"/>
      </g>
     </g>
    </g>
    <g id="ytick_7">
     <g id="line2d_15">
      <g>
       <use xlink:href="#me9d7c1da37" x="37.567344" y="13.394094" style="stroke: #000000; stroke-width: 0.8"/>
      </g>
     </g>
     <g id="text_16">
      <!-- $\mathdefault{60}$ -->
      <g transform="translate(20.604674 16.943254) scale(0.1 -0.1)">
       <use xlink:href="#CMR17-36" transform="scale(0.996264)"/>
       <use xlink:href="#CMR17-30" transform="translate(45.690477 0) scale(0.996264)"/>
      </g>
     </g>
    </g>
    <g id="text_17">
     <!-- Average CFL - Blade_18 -->
     <g transform="translate(14.482687 171.548902) rotate(-90) scale(0.1 -0.1)">
      <defs>
       <path id="NimbusSanL-Regu-41" d="M 3034 1408 
L 3514 0 
L 4179 0 
L 2541 4672 
L 1773 4672 
L 109 0 
L 742 0 
L 1235 1408 
L 3034 1408 
z
M 2867 1907 
L 1382 1907 
L 2150 4032 
L 2867 1907 
z
" transform="scale(0.015625)"/>
       <path id="NimbusSanL-Regu-76" d="M 1824 0 
L 3110 3328 
L 2509 3328 
L 1562 629 
L 666 3328 
L 64 3328 
L 1242 0 
L 1824 0 
z
" transform="scale(0.015625)"/>
       <path id="NimbusSanL-Regu-67" d="M 2637 3359 
L 2637 2873 
C 2368 3270 2042 3456 1613 3456 
C 762 3456 186 2714 186 1632 
C 186 1084 333 638 608 320 
C 858 38 1216 -128 1568 -128 
C 1990 -128 2285 51 2586 473 
L 2586 300 
C 2586 -155 2528 -441 2394 -634 
C 2253 -841 1978 -960 1651 -960 
C 1408 -960 1190 -894 1043 -774 
C 922 -674 870 -581 838 -375 
L 294 -375 
C 352 -1031 845 -1408 1632 -1408 
C 2131 -1408 2560 -1248 2778 -980 
C 3034 -661 3130 -222 3130 568 
L 3130 3359 
L 2637 3359 
z
M 1670 2963 
C 2246 2963 2586 2479 2586 1644 
C 2586 848 2240 364 1677 364 
C 1094 364 742 855 742 1663 
C 742 2466 1101 2963 1670 2963 
z
" transform="scale(0.015625)"/>
       <path id="NimbusSanL-Regu-43" d="M 4237 3219 
C 4051 4236 3462 4736 2438 4736 
C 1811 4736 1306 4537 960 4154 
C 538 3696 307 3035 307 2284 
C 307 1522 544 867 986 415 
C 1344 44 1805 -128 2413 -128 
C 3552 -128 4192 485 4333 1712 
L 3718 1712 
C 3667 1394 3603 1178 3507 994 
C 3315 612 2918 396 2419 396 
C 1491 396 902 1134 902 2291 
C 902 3480 1466 4211 2368 4211 
C 2746 4211 3098 4096 3290 3918 
C 3462 3759 3558 3562 3629 3219 
L 4237 3219 
z
" transform="scale(0.015625)"/>
       <path id="NimbusSanL-Regu-46" d="M 1171 2112 
L 3398 2112 
L 3398 2636 
L 1171 2636 
L 1171 4147 
L 3706 4147 
L 3706 4672 
L 576 4672 
L 576 0 
L 1171 0 
L 1171 2112 
z
" transform="scale(0.015625)"/>
       <path id="NimbusSanL-Regu-4c" d="M 1107 4672 
L 512 4672 
L 512 0 
L 3411 0 
L 3411 524 
L 1107 524 
L 1107 4672 
z
" transform="scale(0.015625)"/>
       <path id="NimbusSanL-Regu-2d" d="M 1818 1996 
L 294 1996 
L 294 1536 
L 1818 1536 
L 1818 1996 
z
" transform="scale(0.015625)"/>
       <path id="NimbusSanL-Regu-42" d="M 506 0 
L 2611 0 
C 3053 0 3379 121 3629 390 
C 3859 632 3987 961 3987 1321 
C 3987 1878 3731 2214 3136 2444 
C 3558 2643 3782 2994 3782 3476 
C 3782 3821 3654 4127 3411 4345 
C 3168 4569 2848 4672 2400 4672 
L 506 4672 
L 506 0 
z
M 1101 2636 
L 1101 4147 
L 2253 4147 
C 2586 4147 2771 4101 2931 3977 
C 3098 3847 3187 3652 3187 3391 
C 3187 3138 3098 2936 2931 2806 
C 2771 2682 2586 2636 2253 2636 
L 1101 2636 
z
M 1101 524 
L 1101 2112 
L 2554 2112 
C 2842 2112 3034 2042 3174 1890 
C 3315 1745 3392 1542 3392 1315 
C 3392 1093 3315 891 3174 746 
C 3034 594 2842 524 2554 524 
L 1101 524 
z
" transform="scale(0.015625)"/>
       <path id="NimbusSanL-Regu-6c" d="M 973 4672 
L 435 4672 
L 435 0 
L 973 0 
L 973 4672 
z
" transform="scale(0.015625)"/>
       <path id="NimbusSanL-Regu-64" d="M 3168 4672 
L 2637 4672 
L 2637 2937 
C 2413 3276 2054 3456 1606 3456 
C 736 3456 166 2759 166 1695 
C 166 568 723 -128 1626 -128 
C 2086 -128 2406 44 2694 460 
L 2694 19 
L 3168 19 
L 3168 4672 
z
M 1696 2956 
C 2272 2956 2637 2447 2637 1651 
C 2637 880 2266 371 1702 371 
C 1114 371 723 887 723 1663 
C 723 2440 1114 2956 1696 2956 
z
" transform="scale(0.015625)"/>
       <path id="NimbusSanL-Regu-31" d="M 1658 3232 
L 1658 0 
L 2221 0 
L 2221 4537 
L 1850 4537 
C 1651 3840 1523 3744 653 3635 
L 653 3232 
L 1658 3232 
z
" transform="scale(0.015625)"/>
       <path id="NimbusSanL-Regu-38" d="M 2502 2399 
C 2970 2681 3123 2910 3123 3337 
C 3123 4044 2566 4544 1760 4544 
C 960 4544 397 4044 397 3337 
C 397 2917 550 2687 1011 2399 
C 493 2150 237 1774 237 1276 
C 237 447 864 -128 1760 -128 
C 2656 -128 3283 447 3283 1270 
C 3283 1774 3027 2150 2502 2399 
z
M 1760 4044 
C 2240 4044 2547 3764 2547 3324 
C 2547 2904 2234 2624 1760 2624 
C 1286 2624 973 2904 973 3331 
C 973 3764 1286 4044 1760 4044 
z
M 1760 2150 
C 2323 2150 2707 1793 2707 1264 
C 2707 728 2323 371 1747 371 
C 1197 371 813 734 813 1264 
C 813 1793 1197 2150 1760 2150 
z
" transform="scale(0.015625)"/>
      </defs>
      <use xlink:href="#NimbusSanL-Regu-41" transform="scale(0.996264)"/>
      <use xlink:href="#NimbusSanL-Regu-76" transform="translate(62.465918 0) scale(0.996264)"/>
      <use xlink:href="#NimbusSanL-Regu-65" transform="translate(109.788488 0) scale(0.996264)"/>
      <use xlink:href="#NimbusSanL-Regu-72" transform="translate(165.180165 0) scale(0.996264)"/>
      <use xlink:href="#NimbusSanL-Regu-61" transform="translate(197.359298 0) scale(0.996264)"/>
      <use xlink:href="#NimbusSanL-Regu-67" transform="translate(252.750975 0) scale(0.996264)"/>
      <use xlink:href="#NimbusSanL-Regu-65" transform="translate(308.142652 0) scale(0.996264)"/>
      <use xlink:href="#NimbusSanL-Regu-43" transform="translate(391.229499 0) scale(0.996264)"/>
      <use xlink:href="#NimbusSanL-Regu-46" transform="translate(463.159484 0) scale(0.996264)"/>
      <use xlink:href="#NimbusSanL-Regu-4c" transform="translate(524.031114 0) scale(0.996264)"/>
      <use xlink:href="#NimbusSanL-Regu-2d" transform="translate(607.117961 0) scale(0.996264)"/>
      <use xlink:href="#NimbusSanL-Regu-42" transform="translate(667.98836 0) scale(0.996264)"/>
      <use xlink:href="#NimbusSanL-Regu-6c" transform="translate(734.438391 0) scale(0.996264)"/>
      <use xlink:href="#NimbusSanL-Regu-61" transform="translate(756.555176 0) scale(0.996264)"/>
      <use xlink:href="#NimbusSanL-Regu-64" transform="translate(811.946853 0) scale(0.996264)"/>
      <use xlink:href="#NimbusSanL-Regu-65" transform="translate(867.33853 0) scale(0.996264)"/>
      <use xlink:href="#NimbusSanL-Regu-31" transform="translate(958.595772 0) scale(0.996264)"/>
      <use xlink:href="#NimbusSanL-Regu-38" transform="translate(1013.987449 0) scale(0.996264)"/>
      <path d="M 928.707548 0 
L 958.595772 0 
L 958.595772 0.3985 
L 928.707548 0.3985 
L 928.707548 0 
z
"/>
     </g>
    </g>
   </g>
   <g id="line2d_16">
    <path d="M 52.785526 170.291759 
L 52.8725 149.631733 
L 52.915986 212.263917 
L 53.00296 209.201899 
L 53.220394 194.287222 
L 53.437827 157.179049 
L 53.481314 144.859163 
L 53.524801 211.78666 
L 53.611774 208.514649 
L 53.829208 192.577124 
L 54.046641 152.965471 
L 54.133615 124.063209 
L 54.177102 209.707064 
L 54.264075 205.520031 
L 54.481509 185.125557 
L 54.698942 134.735682 
L 54.742429 118.093648 
L 54.785916 209.110108 
L 54.872889 204.660415 
L 55.090323 183.004581 
L 55.307757 129.594435 
L 55.351243 210.260187 
L 55.438217 206.316528 
L 55.655651 187.107496 
L 55.873084 139.330138 
L 55.916571 211.233757 
L 56.003544 207.718469 
L 56.220978 190.595974 
L 56.438412 148.000908 
L 56.481898 212.100834 
L 56.568872 208.96706 
L 56.786306 193.702868 
L 57.134199 143.033502 
L 57.177686 211.604094 
L 57.26466 208.251754 
L 57.482093 191.922956 
L 57.699527 151.311993 
L 57.743014 212.431943 
L 57.829987 209.443856 
L 58.047421 194.889289 
L 58.264854 158.68517 
L 58.308341 213.16926 
L 58.395315 210.505594 
L 58.612748 197.531232 
L 58.830182 165.252252 
L 58.873669 154.461982 
L 58.917155 212.746942 
L 59.004129 209.897455 
L 59.221563 196.017987 
L 59.352023 179.125181 
L 59.395509 215.213262 
L 59.482483 213.448955 
L 59.699917 204.855258 
L 59.91735 183.471387 
L 60.004324 167.740657 
L 60.04781 214.074809 
L 60.134784 211.809584 
L 60.352218 200.775977 
L 60.569651 173.320831 
L 60.656625 153.123855 
L 60.700111 212.613129 
L 60.787085 209.704764 
L 61.004519 195.538512 
L 61.221952 160.288344 
L 61.308926 134.358169 
L 61.352412 210.73656 
L 61.439386 207.002506 
L 61.65682 188.814428 
L 61.743793 175.439693 
L 61.78728 214.844713 
L 61.874253 212.918245 
L 62.091687 203.534681 
L 62.30912 180.195228 
L 62.396094 163.035884 
L 62.439581 213.604332 
L 62.526554 211.132097 
L 62.743988 199.090172 
L 62.961421 169.126008 
L 63.091882 132.655363 
L 63.135368 210.56628 
L 63.222342 206.757302 
L 63.439776 188.204282 
L 63.657209 142.038431 
L 63.700696 211.504587 
L 63.787669 208.108463 
L 64.005103 191.566404 
L 64.222537 150.404468 
L 64.266023 136.640752 
L 64.30951 210.964819 
L 64.396484 207.331198 
L 64.613917 189.632318 
L 64.831351 145.591843 
L 64.874838 130.865603 
L 64.918324 210.387304 
L 65.005298 206.499576 
L 65.222732 187.562978 
L 65.440165 140.442662 
L 65.483652 124.68733 
L 65.527139 209.769476 
L 65.614112 205.609905 
L 65.831546 185.349191 
L 66.048979 134.949297 
L 66.092466 210.795673 
L 66.17944 207.087628 
L 66.396873 189.026239 
L 66.614307 144.085603 
L 66.657794 211.709304 
L 66.744767 208.403256 
L 66.962201 192.299943 
L 67.179634 163.395298 
L 67.223121 213.640273 
L 67.310095 211.183852 
L 67.527528 199.218956 
L 67.744962 169.446465 
L 67.788449 159.491148 
L 67.831935 213.249858 
L 67.918909 210.621655 
L 68.136343 197.820029 
L 68.353776 165.965486 
L 68.397263 155.313974 
L 68.44075 218.88 
L 68.527723 218.729059 
L 68.745157 217.993844 
L 68.96259 216.164396 
L 69.180024 211.612142 
L 69.397458 200.284677 
L 69.614891 172.09832 
L 69.832325 121.505212 
L 69.875812 209.451265 
L 69.962785 205.15168 
L 70.180219 184.208981 
L 70.397653 132.097447 
L 70.441139 114.684186 
L 70.528113 218.88 
L 70.5716 218.81139 
L 70.789033 218.198712 
L 71.006467 216.674171 
L 71.223901 212.880626 
L 71.441334 203.441181 
L 71.658768 179.953529 
L 71.876201 121.532584 
L 71.963175 102.042659 
L 72.006662 207.505009 
L 72.093635 202.349079 
L 72.311069 177.235213 
L 72.485016 132.173886 
L 72.528502 210.518131 
L 72.615476 206.687967 
L 72.83291 188.031755 
L 73.006857 154.544793 
L 73.050343 212.75522 
L 73.137317 209.909375 
L 73.267777 218.88 
L 82.573938 218.81139 
L 82.791371 218.198712 
L 83.008805 216.674171 
L 83.226239 212.88065 
L 83.443672 203.441181 
L 83.661106 179.958603 
L 83.704593 218.88 
L 83.791566 218.729059 
L 84.009 217.993844 
L 84.226433 216.164396 
L 84.443867 211.612142 
L 84.661301 200.28482 
L 84.922221 172.103413 
L 84.965708 214.511085 
L 85.052681 212.43784 
L 85.270115 202.339676 
L 85.487549 177.217006 
L 85.661495 158.760578 
L 85.704982 213.176801 
L 85.791956 210.51646 
L 86.009389 197.558353 
L 86.27031 165.328896 
L 86.313796 218.88 
L 86.40077 218.729059 
L 86.618204 217.993844 
L 86.835637 216.164396 
L 87.053071 211.612231 
L 87.270505 200.285007 
L 87.487938 172.23416 
L 87.531425 214.524159 
L 87.618398 212.456648 
L 87.835832 202.386197 
L 88.053266 177.363911 
L 88.096752 169.05547 
L 88.140239 214.20629 
L 88.227213 211.998917 
L 88.444646 201.247098 
L 88.66208 174.522536 
L 88.705567 165.641111 
L 88.749053 213.864854 
L 88.836027 211.507249 
L 89.053461 200.023671 
L 89.270894 171.529364 
L 89.314381 162.130706 
L 89.357868 213.513814 
L 89.444841 211.001751 
L 89.662275 198.76583 
L 89.879708 168.446285 
L 90.053655 116.300524 
L 90.097142 208.930796 
L 90.184116 204.402205 
L 90.401549 182.344191 
L 90.618983 128.893842 
L 90.66247 111.987988 
L 90.705956 208.499542 
L 90.79293 203.7812 
L 91.010364 180.802551 
L 91.271284 139.701862 
L 91.314771 211.27093 
L 91.401744 207.771997 
L 91.619178 190.72917 
L 91.836611 148.394797 
L 91.923585 117.986617 
L 91.967072 209.099405 
L 92.054045 204.645126 
L 92.271479 182.953536 
L 92.401939 156.5947 
L 92.445426 212.960213 
L 92.532399 210.204566 
L 92.749833 196.782179 
L 92.967266 163.503283 
L 93.010753 152.507654 
L 93.05424 212.551509 
L 93.141213 209.616031 
L 93.358647 195.317716 
L 93.576081 160.037357 
L 93.619567 148.432668 
L 93.663054 148.433763 
L 93.706541 212.144119 
L 93.793514 209.02939 
L 94.010948 193.857965 
L 94.228382 156.568684 
L 94.271868 144.521143 
L 94.315355 211.752858 
L 94.402329 208.465974 
L 94.619762 192.456005 
L 94.837196 152.915592 
L 94.880683 212.592302 
L 94.967656 209.674774 
L 95.18509 195.463886 
L 95.359037 170.013131 
L 95.402523 214.302047 
L 95.489497 212.136807 
L 95.706931 201.590212 
L 95.924364 175.355549 
L 95.967851 214.836292 
L 96.054824 212.906119 
L 96.272258 203.504508 
L 96.489692 180.13076 
L 96.533178 172.344604 
L 96.576665 214.535203 
L 96.663639 212.472575 
L 96.881072 202.426668 
L 97.098506 177.478687 
L 97.185479 159.22482 
L 97.228966 213.223223 
L 97.31594 210.5833 
L 97.533373 197.724984 
L 97.794294 165.81161 
L 97.83778 213.881903 
L 97.924754 211.531799 
L 98.142188 200.084758 
L 98.359621 171.609285 
L 98.403108 162.114822 
L 98.446595 213.512226 
L 98.533568 210.999464 
L 98.751002 198.760138 
L 98.968435 168.310599 
L 99.011922 158.144705 
L 99.055409 213.115214 
L 99.142382 210.427767 
L 99.359816 197.337574 
L 99.57725 164.765445 
L 99.620736 153.877022 
L 99.664223 212.688446 
L 99.751197 209.81322 
L 99.96863 195.808386 
L 100.186064 160.971517 
L 100.273037 135.408461 
L 100.316524 210.84159 
L 100.403498 207.153748 
L 100.620931 189.190978 
L 100.838365 144.549977 
L 100.881852 129.665288 
L 100.925338 210.267272 
L 101.012312 206.326731 
L 101.229746 187.132884 
L 101.316719 173.020387 
L 101.360206 214.602776 
L 101.447179 212.569856 
L 101.664613 202.667778 
L 101.882046 178.029287 
L 101.925533 215.103659 
L 102.012507 213.291128 
L 102.22994 204.462533 
L 102.447374 182.494162 
L 102.534347 166.335922 
L 102.577834 213.934336 
L 102.664808 211.607302 
L 102.882241 200.272635 
L 103.143162 172.068355 
L 103.186648 162.638137 
L 103.230135 213.564557 
L 103.317109 211.074821 
L 103.534542 198.947651 
L 103.751976 168.773515 
L 103.795463 214.178095 
L 103.882436 211.958315 
L 104.09987 201.146068 
L 104.317303 174.244316 
L 104.404277 165.251937 
L 104.447764 213.825937 
L 104.534737 211.451208 
L 104.752171 199.884223 
L 105.013091 171.101863 
L 105.056578 214.41093 
L 105.143551 212.293598 
L 105.360985 201.980358 
L 105.621905 176.317716 
L 105.665392 167.73665 
L 105.708879 214.074408 
L 105.795852 211.809007 
L 106.013286 200.774541 
L 106.23072 173.317258 
L 106.274206 164.1361 
L 106.317693 213.714353 
L 106.404667 211.290528 
L 106.6221 199.484399 
L 106.883021 170.106972 
L 106.926507 214.311441 
L 107.013481 212.150333 
L 107.230915 201.62387 
L 107.448348 175.430661 
L 107.535322 166.672184 
L 107.578808 213.967962 
L 107.665782 211.655724 
L 107.883215 200.393124 
L 108.100649 172.36817 
L 108.144136 162.997194 
L 108.187623 213.600463 
L 108.274596 211.126525 
L 108.49203 199.076308 
L 108.709463 169.091512 
L 108.796437 147.033636 
L 108.839924 212.004107 
L 108.926897 208.827773 
L 109.144331 193.356277 
L 109.361764 154.858243 
L 109.448738 141.985282 
L 109.492225 211.499272 
L 109.579198 208.10081 
L 109.796632 191.54736 
L 110.014065 150.35708 
L 110.057552 136.583887 
L 110.101039 210.959132 
L 110.188012 207.323009 
L 110.405446 189.611943 
L 110.62288 145.541142 
L 110.666366 211.854858 
L 110.75334 208.612854 
L 110.970773 192.821489 
L 111.188207 153.52752 
L 111.231694 212.653495 
L 111.318667 209.762892 
L 111.536101 195.683153 
L 111.753535 160.648256 
L 111.797021 148.933297 
L 111.840508 212.194073 
L 111.927482 209.101324 
L 112.144915 194.03696 
L 112.362349 156.552 
L 112.405836 144.01779 
L 112.449322 211.702522 
L 112.536296 208.393491 
L 112.753729 192.275645 
L 112.927676 163.344912 
L 112.971163 213.635235 
L 113.058137 211.176597 
L 113.27557 199.200902 
L 113.493004 169.401541 
L 113.536491 214.240898 
L 113.623464 212.048751 
L 113.840898 201.371101 
L 114.058331 174.801692 
L 114.101818 165.91742 
L 114.145305 213.892485 
L 114.232278 211.547038 
L 114.449712 200.122678 
L 114.667146 171.695215 
L 114.710632 162.189648 
L 114.754119 213.519708 
L 114.841093 211.010239 
L 115.058526 198.78695 
L 115.27596 168.371496 
L 115.362933 145.996813 
L 115.40642 211.900425 
L 115.493394 208.67847 
L 115.710827 192.984764 
L 115.971748 153.933801 
L 116.015234 212.694124 
L 116.102208 209.821397 
L 116.319641 195.828731 
L 116.580562 161.0105 
L 116.624049 213.401793 
L 116.711022 210.840441 
L 116.928456 198.36444 
L 117.145889 167.320155 
L 117.189376 156.939577 
L 117.232863 212.994701 
L 117.319836 210.254228 
L 117.53727 196.905754 
L 117.754704 163.69048 
L 117.79819 213.669791 
L 117.885164 211.226358 
L 118.102597 199.324725 
L 118.320031 169.709652 
L 118.363518 159.806973 
L 118.407005 213.281441 
L 118.493978 210.667133 
L 118.711412 197.933194 
L 118.928845 166.247079 
L 118.972332 213.925451 
L 119.059306 211.594509 
L 119.276739 200.240801 
L 119.494173 171.989142 
L 119.53766 162.54236 
L 119.581146 213.554979 
L 119.66812 211.061029 
L 119.885553 198.913333 
L 120.102987 168.685978 
L 120.146474 158.578563 
L 120.189961 213.1586 
L 120.276934 210.490242 
L 120.494368 197.493033 
L 120.711801 165.151816 
L 120.755288 213.815925 
L 120.842262 211.436791 
L 121.059695 199.848348 
L 121.277129 171.012595 
L 121.320616 161.370504 
L 121.364102 213.437794 
L 121.451076 210.892282 
L 121.668509 198.493436 
L 121.885943 167.641139 
L 121.92943 214.064857 
L 122.016403 211.795253 
L 122.233837 200.740318 
L 122.451271 173.2321 
L 122.494757 164.03391 
L 122.538244 213.704134 
L 122.625218 211.275812 
L 122.842651 199.447782 
L 123.060085 170.015858 
L 123.103572 214.302329 
L 123.190545 212.137213 
L 123.407979 201.591222 
L 123.625412 175.349423 
L 123.668899 214.835686 
L 123.755873 212.905246 
L 123.973306 203.502335 
L 124.19074 180.104884 
L 124.234227 172.281251 
L 124.277713 214.528868 
L 124.364687 212.463429 
L 124.582121 202.402953 
L 124.843041 177.36927 
L 124.886528 215.03767 
L 124.973501 213.196104 
L 125.190935 204.226083 
L 125.408368 181.905799 
L 125.451855 174.442349 
L 125.495342 214.744978 
L 125.582315 212.774628 
L 125.799749 203.177314 
L 126.017183 179.296127 
L 126.060669 215.230351 
L 126.147643 213.473564 
L 126.365077 204.916491 
L 126.58251 183.623756 
L 126.669484 167.960067 
L 126.71297 214.09675 
L 126.799944 211.841179 
L 127.017378 200.854595 
L 127.234811 173.516459 
L 127.278298 214.652389 
L 127.365271 212.641299 
L 127.582705 202.845551 
L 127.800139 178.470594 
L 127.843625 215.147803 
L 127.930599 213.354695 
L 128.148033 204.620707 
L 128.365466 182.887751 
L 128.45244 166.90022 
L 128.495926 213.990765 
L 128.5829 211.688561 
L 128.800334 200.474833 
L 129.017767 172.571489 
L 129.061254 214.557892 
L 129.148227 212.505224 
L 129.365661 202.506951 
L 129.583095 177.62805 
L 129.626581 169.30905 
L 129.670068 214.231648 
L 129.757042 212.035432 
L 129.974475 201.33796 
L 130.191909 174.719226 
L 130.278882 165.818461 
L 130.322369 213.88259 
L 130.409343 211.532788 
L 130.626776 200.087219 
L 130.84421 171.606982 
L 130.887697 214.461442 
L 130.97467 212.366335 
L 131.192104 202.161351 
L 131.409537 176.768085 
L 131.496511 158.087902 
L 131.539998 213.109534 
L 131.626971 210.419587 
L 131.844405 197.31722 
L 131.974865 181.369777 
L 132.018352 215.437712 
L 132.105325 213.772164 
L 132.322759 205.659503 
L 132.540192 185.472608 
L 132.670653 160.902288 
L 132.714139 213.390972 
L 132.801113 210.824859 
L 133.018547 198.325666 
L 133.192493 175.890235 
L 133.23598 214.889767 
L 133.322954 212.983123 
L 133.540387 203.696118 
L 133.757821 180.587077 
L 133.801308 172.859883 
L 133.844794 214.586732 
L 133.931768 212.546752 
L 134.149202 202.610288 
L 134.366635 177.885184 
L 134.410122 169.617611 
L 134.453609 214.262505 
L 134.540582 212.079865 
L 134.758016 201.448523 
L 134.931963 182.365793 
L 134.975449 215.537318 
L 135.062423 213.915597 
L 135.279857 206.016411 
L 135.49729 186.360708 
L 135.584264 171.901278 
L 135.62775 214.490871 
L 135.714724 212.408713 
L 135.932158 202.266802 
L 136.149591 177.030482 
L 136.193078 215.003792 
L 136.280051 213.147319 
L 136.497485 204.104689 
L 136.758405 181.603733 
L 136.801892 215.461117 
L 136.888866 213.805867 
L 137.106299 205.743367 
L 137.323733 185.681289 
L 137.410706 170.922914 
L 137.454193 214.393035 
L 137.541167 212.267829 
L 137.7586 201.916237 
L 137.932547 183.335645 
L 137.976034 215.634303 
L 138.063007 214.055255 
L 138.280441 206.363925 
L 138.497875 187.225435 
L 138.541361 180.825913 
L 138.584848 215.383335 
L 138.671822 213.693861 
L 138.889255 205.46466 
L 139.106689 184.987776 
L 139.150176 178.140722 
L 139.193662 215.114816 
L 139.280636 213.307193 
L 139.49807 204.502508 
L 139.672016 188.698536 
L 139.715503 216.170569 
L 139.802477 214.827478 
L 140.01991 208.285464 
L 140.237344 192.006838 
L 140.324317 180.031705 
L 140.367804 215.303914 
L 140.454778 213.579495 
L 140.672211 205.180081 
L 140.889645 184.279653 
L 140.933132 215.728709 
L 141.020105 214.191199 
L 141.237539 206.702198 
L 141.454972 188.067166 
L 141.498459 181.835989 
L 141.541946 215.484342 
L 141.628919 213.839312 
L 141.846353 205.826589 
L 142.063787 185.888371 
L 142.107273 179.221436 
L 142.15076 215.222887 
L 142.237734 213.462816 
L 142.455167 204.889747 
L 142.672601 183.557209 
L 142.716088 215.656464 
L 142.803061 214.087167 
L 143.020495 206.443333 
L 143.237928 187.423027 
L 143.281415 216.043046 
L 143.368389 214.643845 
L 143.585822 207.828526 
L 143.803256 190.86983 
L 143.890229 178.394414 
L 143.933716 215.140185 
L 144.02069 213.343725 
L 144.238123 204.593411 
L 144.41207 188.887031 
L 144.455557 216.189445 
L 144.54253 214.85466 
L 144.759964 208.353101 
L 144.977398 192.175141 
L 145.020884 186.765559 
L 145.064371 215.977299 
L 145.151345 214.54917 
L 145.368778 207.592943 
L 145.586212 190.283625 
L 145.629699 184.49574 
L 145.673185 215.750317 
L 145.760159 214.222316 
L 145.977593 206.779626 
L 146.195026 188.259832 
L 146.238513 182.067188 
L 146.282 215.507462 
L 146.368973 213.872604 
L 146.586407 205.909432 
L 146.803841 186.09451 
L 146.847327 215.910194 
L 146.934301 214.452539 
L 147.151734 207.352494 
L 147.369168 189.685311 
L 147.412655 216.26927 
L 147.499628 214.969607 
L 147.717062 208.639125 
L 147.934496 192.886861 
L 148.021469 181.298939 
L 148.064956 215.430637 
L 148.151929 213.761977 
L 148.369363 205.634154 
L 148.586797 185.409531 
L 148.630283 215.841697 
L 148.717257 214.353902 
L 148.93469 207.107054 
L 149.152124 189.074577 
L 149.195611 183.044883 
L 149.239097 215.605232 
L 149.326071 214.013392 
L 149.543505 206.259757 
L 149.760938 186.966233 
L 149.804425 180.514869 
L 149.847912 215.35223 
L 149.934885 213.649071 
L 150.152319 205.353208 
L 150.413239 184.710447 
L 150.456726 215.771788 
L 150.543699 214.253234 
L 150.761133 206.856559 
L 150.978567 188.451266 
L 151.022053 182.29691 
L 151.06554 215.530434 
L 151.152514 213.905684 
L 151.369947 205.991745 
L 151.587381 186.299333 
L 151.630868 179.714589 
L 151.674354 215.272202 
L 151.761328 213.53383 
L 151.978762 205.066453 
L 152.196195 183.996909 
L 152.239682 215.700434 
L 152.326655 214.150484 
L 152.544089 206.600886 
L 152.761523 187.815069 
L 152.80501 181.533473 
L 152.848496 215.454091 
L 152.93547 213.795749 
L 153.152903 205.718192 
L 153.370337 185.618645 
L 153.413824 215.862608 
L 153.500797 214.384014 
L 153.718231 207.181983 
L 153.935665 189.261024 
L 153.979151 183.26862 
L 154.022638 215.627605 
L 154.109611 214.045611 
L 154.327045 206.339926 
L 154.544479 187.165719 
L 154.587966 180.754253 
L 154.631452 215.376169 
L 154.718426 213.683542 
L 154.935859 205.438983 
L 155.19678 184.923884 
L 155.240266 215.793132 
L 155.32724 214.283969 
L 155.544674 206.933037 
L 155.762107 188.641569 
L 155.849081 182.525273 
L 155.892567 215.553271 
L 155.979541 213.938569 
L 156.196975 206.073572 
L 156.414408 186.502943 
L 156.457895 179.958922 
L 156.501382 215.296636 
L 156.588355 213.569014 
L 156.805789 205.154002 
L 157.023222 184.214759 
L 157.066709 177.213101 
L 157.110196 215.022054 
L 157.197169 213.173616 
L 157.414603 204.170125 
L 157.632037 181.766557 
L 157.71901 174.275259 
L 157.762497 214.728269 
L 157.84947 212.750567 
L 158.066904 203.117443 
L 158.284338 179.147148 
L 158.327824 171.131968 
L 158.371311 214.41394 
L 158.458285 212.297933 
L 158.675718 201.991145 
L 158.893152 176.344558 
L 158.936639 214.935199 
L 159.023612 213.048546 
L 159.241046 203.85891 
L 159.545453 180.992155 
L 159.58894 215.399959 
L 159.675913 213.7178 
L 159.893347 205.524228 
L 160.11078 185.136 
L 160.154267 178.318591 
L 160.197754 215.132602 
L 160.284727 213.332806 
L 160.502161 204.566242 
L 160.719595 182.752223 
L 160.806568 175.458058 
L 160.850055 214.846549 
L 160.937028 212.92089 
L 161.154462 203.541261 
L 161.371896 180.201743 
L 161.415382 172.397482 
L 161.458869 214.540492 
L 161.545843 212.480167 
L 161.763276 202.444601 
L 161.98071 177.472903 
L 162.024197 169.122874 
L 162.067683 214.213031 
L 162.154657 212.008623 
L 162.372091 201.27125 
L 162.589524 174.55323 
L 162.633011 214.756066 
L 162.719984 212.790594 
L 162.937418 203.217045 
L 163.154852 179.394989 
L 163.198338 171.429378 
L 163.241825 214.443681 
L 163.328799 212.34076 
L 163.546232 202.097712 
L 163.763666 176.609731 
L 163.807153 214.961717 
L 163.894126 213.086731 
L 164.11156 203.953926 
L 164.328993 181.228587 
L 164.37248 173.629695 
L 164.415967 214.663713 
L 164.50294 212.657605 
L 164.720374 202.886125 
L 164.937808 178.571556 
L 164.981294 215.157899 
L 165.068268 213.369233 
L 165.285702 204.656884 
L 165.503135 182.97777 
L 165.546622 215.59852 
L 165.633595 214.003728 
L 165.851029 206.23571 
L 166.068463 186.906394 
L 166.111949 180.443063 
L 166.155436 215.34505 
L 166.24241 213.63873 
L 166.459843 205.327478 
L 166.677277 184.646424 
L 166.720764 177.731099 
L 166.76425 215.073853 
L 166.851224 213.248208 
L 167.068658 204.355733 
L 167.286091 182.228409 
L 167.329578 174.829482 
L 167.373065 214.783692 
L 167.460038 212.830375 
L 167.677472 203.316031 
L 167.894905 179.641298 
L 167.938392 171.724948 
L 167.981879 214.473238 
L 168.068852 212.383322 
L 168.286286 202.20362 
L 168.50372 176.873265 
L 168.547206 214.98807 
L 168.63418 213.124679 
L 168.851614 204.048355 
L 169.069047 181.463556 
L 169.112534 173.911658 
L 169.156021 214.691909 
L 169.242994 212.698208 
L 169.460428 202.987158 
L 169.677861 178.822957 
L 169.721348 215.183039 
L 169.808322 213.405435 
L 170.025755 204.746965 
L 170.243189 183.201921 
L 170.286676 175.997696 
L 170.330162 214.900513 
L 170.417136 212.998598 
L 170.63457 203.734623 
L 170.852003 180.68289 
L 170.89549 215.369032 
L 170.982463 213.673265 
L 171.199897 205.413413 
L 171.417331 184.860256 
L 171.460817 177.987698 
L 171.504304 215.099513 
L 171.591278 213.285158 
L 171.808711 204.447677 
L 172.026145 182.457195 
L 172.069632 175.104025 
L 172.113118 214.811146 
L 172.200092 212.869909 
L 172.417526 203.414405 
L 172.634959 179.886084 
L 172.721933 162.57782 
L 172.765419 213.558525 
L 172.852393 211.066135 
L 173.069827 198.926039 
L 173.28726 168.717593 
L 173.330747 158.616502 
L 173.374234 213.162394 
L 173.461207 210.495706 
L 173.678641 197.506627 
L 173.896074 165.185643 
L 173.939561 213.819308 
L 174.026535 211.441662 
L 174.243968 199.860469 
L 174.461402 171.042755 
L 174.504889 161.406697 
L 174.548375 213.441413 
L 174.635349 210.897494 
L 174.852783 198.506404 
L 175.070216 167.673408 
L 175.113703 214.068084 
L 175.200676 211.7999 
L 175.41811 200.75188 
L 175.635544 173.260871 
L 175.67903 214.626831 
L 175.766004 212.604495 
L 175.983438 202.753969 
L 176.200871 178.24271 
L 176.331331 160.211361 
L 176.374818 213.32188 
L 176.461792 210.725365 
L 176.679225 198.078094 
L 176.896659 166.607635 
L 176.983632 143.456853 
L 177.027119 211.646429 
L 177.114093 208.312716 
L 177.331526 192.074651 
L 177.54896 151.669148 
L 177.67942 102.489908 
L 177.722907 207.549734 
L 177.80988 202.413476 
L 178.027314 177.395454 
L 178.244748 115.142608 
L 178.288234 94.32652 
L 178.331721 206.733395 
L 178.418695 201.237948 
L 178.636128 174.470364 
L 178.853562 107.864049 
L 178.940535 58.866089 
L 178.984022 203.187352 
L 179.070996 196.131646 
L 179.288429 161.76425 
L 179.505863 76.247173 
L 179.54935 47.651997 
L 179.592836 202.065943 
L 179.67981 194.516817 
L 179.897243 157.746039 
L 180.158164 66.248576 
L 180.201651 203.925601 
L 180.288624 197.194724 
L 180.506058 164.409529 
L 180.723491 82.829472 
L 180.766978 205.583691 
L 180.853952 199.582373 
L 181.071385 170.350764 
L 181.332306 117.88148 
L 181.375792 209.088891 
L 181.462766 204.629862 
L 181.680199 182.910532 
L 181.897633 128.865888 
L 181.94112 110.794455 
L 181.984607 208.380189 
L 182.07158 203.609331 
L 182.289014 180.371123 
L 182.506447 122.547026 
L 182.549934 209.555446 
L 182.636908 205.301701 
L 182.854341 184.582282 
L 183.071775 133.025736 
L 183.115262 210.603317 
L 183.202235 206.810635 
L 183.419669 188.336993 
L 183.637102 142.368658 
L 183.680589 126.99778 
L 183.724076 210.000521 
L 183.811049 205.94261 
L 184.028483 186.177067 
L 184.245917 136.994073 
L 184.289403 211.000151 
L 184.376377 207.382076 
L 184.593811 189.75892 
L 184.811244 145.906868 
L 184.854731 131.243632 
L 184.898218 210.425107 
L 184.985191 206.554012 
L 185.202625 187.698433 
L 185.420058 140.779717 
L 185.463545 211.378715 
L 185.550519 207.927209 
L 185.767952 191.115384 
L 185.985386 149.282186 
L 186.028873 212.228962 
L 186.115846 209.151564 
L 186.33328 194.161973 
L 186.550713 156.863073 
L 186.5942 212.987051 
L 186.681174 210.243212 
L 186.898607 196.878342 
L 187.116041 163.622268 
L 187.159528 152.502112 
L 187.203014 212.550955 
L 187.289988 209.615233 
L 187.507422 195.31573 
L 187.768342 169.648834 
L 187.811829 214.265627 
L 187.898802 212.084361 
L 188.116236 201.459711 
L 188.333669 175.022181 
L 188.377156 214.802962 
L 188.46413 212.858123 
L 188.681563 203.385078 
L 188.898997 179.813111 
L 188.98597 171.931123 
L 189.029457 214.493856 
L 189.116431 212.413011 
L 189.333864 202.277497 
L 189.551298 177.057093 
L 189.594785 215.006453 
L 189.681758 213.151151 
L 189.899192 204.114224 
L 190.116625 181.627459 
L 190.160112 174.108341 
L 190.203599 214.711578 
L 190.290572 212.72653 
L 190.508006 203.057633 
L 190.72544 178.998322 
L 190.768926 170.953377 
L 190.812413 214.396081 
L 190.899387 212.272216 
L 191.11682 201.927152 
L 191.334254 176.185325 
L 191.377741 214.919276 
L 191.464714 213.025616 
L 191.682148 203.801854 
L 191.899581 180.850182 
L 191.943068 173.175608 
L 191.986555 214.618304 
L 192.073528 212.592217 
L 192.290962 202.723418 
L 192.551882 178.166688 
L 192.595369 215.117412 
L 192.682343 213.310932 
L 192.899776 204.511812 
L 193.11721 182.616785 
L 193.160697 175.295533 
L 193.204183 214.830297 
L 193.291157 212.897486 
L 193.508591 203.483025 
L 193.726024 180.056834 
L 193.769511 172.223591 
L 193.812998 214.523103 
L 193.899971 212.455126 
L 194.117405 202.382293 
L 194.334838 177.31786 
L 194.378325 168.936823 
L 194.421812 214.194426 
L 194.508785 211.981832 
L 194.726219 201.204584 
L 194.943653 174.387344 
L 194.987139 214.739478 
L 195.074113 212.766707 
L 195.291547 203.157605 
L 195.50898 179.247084 
L 195.552467 215.225452 
L 195.63944 213.466509 
L 195.856874 204.898938 
L 196.117794 183.580077 
L 196.161281 176.451483 
L 196.204768 214.945892 
L 196.291741 213.063943 
L 196.509175 203.897223 
L 196.726609 181.087491 
L 196.770095 173.46038 
L 196.813582 214.646781 
L 196.900556 212.633224 
L 197.117989 202.825457 
L 197.335423 178.420593 
L 197.37891 215.142803 
L 197.465883 213.347495 
L 197.683317 204.602791 
L 197.90075 182.843169 
L 197.944237 175.567194 
L 197.987724 214.857463 
L 198.074697 212.936605 
L 198.292131 203.580366 
L 198.509565 180.29905 
L 198.596538 163.172491 
L 198.640025 213.617992 
L 198.726998 211.151768 
L 198.944432 199.13912 
L 199.161866 169.247808 
L 199.248839 147.258702 
L 199.292326 212.026614 
L 199.379299 208.860182 
L 199.596733 193.436922 
L 199.77068 165.752937 
L 199.814167 213.876037 
L 199.90114 211.523352 
L 200.118574 200.063741 
L 200.336007 171.54856 
L 200.422981 150.571785 
L 200.466468 212.357922 
L 200.553441 209.337266 
L 200.770875 194.624059 
L 200.944822 168.214585 
L 200.988308 214.122202 
L 201.075282 211.87783 
L 201.292716 200.945794 
L 201.510149 173.74339 
L 201.553636 164.647458 
L 201.597123 213.765489 
L 201.684096 211.364163 
L 201.90153 199.667628 
L 202.118963 170.562904 
L 202.16245 160.830875 
L 202.205937 213.383831 
L 202.29291 210.814575 
L 202.510344 198.300077 
L 202.727778 167.16 
L 202.988698 111.265112 
L 203.032185 208.427255 
L 203.119158 203.677105 
L 203.336592 180.539768 
L 203.554026 122.966668 
L 203.684486 103.715392 
L 203.727973 103.715392 
L 203.771459 80.61386 
L 203.814946 205.362129 
L 203.901919 199.263325 
L 204.119353 169.55687 
L 204.336787 95.637704 
L 204.380274 206.864514 
L 204.467247 201.426759 
L 204.684681 174.940185 
L 205.076061 109.033114 
L 205.250008 109.033114 
L 205.293495 208.204055 
L 205.380468 203.355698 
L 205.597902 179.740003 
L 205.989283 120.976596 
L 206.119743 120.976596 
L 206.16323 209.398403 
L 206.250203 205.075559 
L 206.467637 184.019568 
L 206.772044 131.625525 
L 206.81553 210.463296 
L 206.902504 206.609005 
L 207.119938 187.835272 
L 207.337371 141.120216 
L 207.380858 211.412765 
L 207.467831 207.97624 
L 207.685265 191.237391 
L 207.902699 149.585779 
L 207.946186 135.658325 
L 207.989672 210.866576 
L 208.076646 207.189728 
L 208.294079 189.280297 
L 208.511513 144.715901 
L 208.555 129.814472 
L 208.598486 210.282191 
L 208.68546 206.348213 
L 208.902894 187.186339 
L 209.120327 139.505464 
L 209.163814 123.561947 
L 209.207301 209.656938 
L 209.294274 205.44785 
L 209.511708 184.945946 
L 209.729142 148.146049 
L 209.772628 212.115348 
L 209.859602 208.98796 
L 210.077035 193.754874 
L 210.337956 155.850082 
L 210.381443 212.885752 
L 210.468416 210.097341 
L 210.68585 196.515369 
L 211.033743 151.41828 
L 211.07723 212.442571 
L 211.164204 209.459162 
L 211.381637 194.927374 
L 211.599071 158.767636 
L 211.642558 146.676553 
L 211.686044 211.968399 
L 211.773018 208.776353 
L 211.990452 193.228328 
L 212.207885 154.539865 
L 212.251372 141.603228 
L 212.294859 211.461066 
L 212.381832 208.045794 
L 212.599266 191.410463 
L 212.816699 150.016437 
L 212.860186 136.175115 
L 212.903673 210.918255 
L 212.990646 207.264146 
L 213.20808 189.465472 
L 213.425514 145.176676 
L 213.469 130.367402 
L 213.512487 210.337484 
L 213.599461 206.427835 
L 213.816894 187.384464 
L 214.034328 139.998461 
L 214.077815 124.153544 
L 214.121301 209.716098 
L 214.208275 205.53304 
L 214.425709 185.157926 
L 214.643142 134.458123 
L 214.686629 210.746556 
L 214.773602 207.016899 
L 214.991036 188.850243 
L 215.20847 143.64579 
L 215.251956 128.530338 
L 215.295443 210.153777 
L 215.382417 206.163298 
L 215.59985 186.726211 
L 215.817284 138.360517 
L 215.860771 211.136795 
L 215.947744 207.578844 
L 216.165178 190.248541 
L 216.426098 147.125203 
L 216.469585 212.013264 
L 216.556558 208.840959 
L 216.773992 193.389087 
L 216.991426 154.939885 
L 217.034912 212.794732 
L 217.121886 209.966273 
L 217.33932 196.189229 
L 217.556753 161.907534 
L 217.60024 213.491497 
L 217.687213 210.969614 
L 217.904647 198.685863 
L 218.122081 168.11996 
L 218.165568 157.899343 
L 218.209054 213.090678 
L 218.296028 210.392435 
L 218.513461 197.249656 
L 218.730895 164.546217 
L 218.904842 140.488411 
L 218.948329 140.488411 
L 218.991815 124.741483 
L 219.035302 209.774892 
L 219.122276 205.617703 
L 219.339709 185.368595 
L 219.557143 134.982336 
L 219.60063 118.134193 
L 219.644116 209.114163 
L 219.73109 204.666253 
L 219.948524 183.001084 
L 220.165957 129.09121 
L 220.209444 210.209864 
L 220.296417 206.244063 
L 220.513851 186.927181 
L 220.731285 138.860596 
L 220.774771 122.788105 
L 220.818258 209.579554 
L 220.905232 205.336416 
L 221.122665 184.668665 
L 221.340099 133.240684 
L 221.383586 116.044211 
L 221.427072 208.905165 
L 221.514046 204.365296 
L 221.73148 182.252206 
L 221.948913 127.227761 
L 221.9924 108.828703 
L 222.035887 208.183614 
L 222.12286 203.326263 
L 222.340294 179.666759 
L 222.557727 120.794341 
L 222.601214 101.1086 
L 222.644701 207.411603 
L 222.731674 202.214568 
L 222.949108 176.900506 
L 223.166542 113.91102 
L 223.210028 92.848614 
L 223.253515 206.585605 
L 223.340489 201.02513 
L 223.557922 173.940804 
L 223.775356 106.546333 
L 223.818843 207.955377 
L 223.905816 202.997601 
L 224.12325 178.848944 
L 224.340683 118.759358 
L 224.38417 209.176679 
L 224.471144 204.756277 
L 224.688577 183.225091 
L 224.906011 129.648612 
L 224.949498 210.265605 
L 225.036471 206.32433 
L 225.253905 187.126908 
L 225.514825 139.357582 
L 225.558312 123.384488 
L 225.601799 209.639192 
L 225.688772 205.422296 
L 225.906206 184.882359 
L 226.123639 133.772425 
L 226.167126 116.682301 
L 226.210613 208.968974 
L 226.297586 204.457181 
L 226.51502 182.480845 
L 226.732454 127.796688 
L 226.77594 210.080412 
L 226.862914 206.057652 
L 227.080348 186.46333 
L 227.297781 137.706387 
L 227.341268 121.403055 
L 227.384755 209.441049 
L 227.471728 205.136969 
L 227.689162 184.172376 
L 227.950082 132.005759 
L 227.993569 114.562302 
L 228.037056 208.756974 
L 228.124029 204.151901 
L 228.341463 181.72121 
L 228.602383 125.906475 
L 228.64587 107.243161 
L 228.689357 208.025059 
L 228.77633 203.097944 
L 228.993764 179.09863 
L 229.385144 119.380656 
L 229.820012 119.380656 
L 229.863498 209.238809 
L 229.950472 204.845744 
L 230.167906 183.447714 
L 230.385339 130.202568 
L 230.428826 210.321 
L 230.515799 206.404099 
L 230.733233 187.325401 
L 230.994153 139.851494 
L 231.03764 123.977183 
L 231.081127 209.698462 
L 231.1681 205.507644 
L 231.385534 185.094733 
L 231.602968 134.300878 
L 231.646454 210.730831 
L 231.733428 206.994256 
L 231.950862 188.793899 
L 232.168295 143.505588 
L 232.255269 110.189906 
L 232.298755 208.319734 
L 232.385729 203.522276 
L 232.603162 180.154502 
L 232.820596 122.008003 
L 232.864083 209.501544 
L 232.951056 205.224082 
L 233.16849 184.38914 
L 233.385924 132.545138 
L 233.42941 210.555257 
L 233.516384 206.741429 
L 233.733818 188.164786 
L 233.951251 141.940153 
L 233.994738 126.483574 
L 234.038225 209.949101 
L 234.125198 205.868564 
L 234.342632 185.992818 
L 234.560065 136.535601 
L 234.603552 210.954304 
L 234.690526 207.316056 
L 234.907959 189.594641 
L 235.125393 145.49809 
L 235.16888 130.753098 
L 235.212366 210.376053 
L 235.29934 206.483375 
L 235.516774 187.522666 
L 235.734207 140.342352 
L 235.777694 211.334979 
L 235.864667 207.864228 
L 236.082101 190.958669 
L 236.299535 148.892227 
L 236.343021 134.826063 
L 236.386508 210.78335 
L 236.473482 207.069882 
L 236.690915 188.982082 
L 236.908349 143.97552 
L 236.951836 128.930124 
L 236.995322 210.193756 
L 237.082296 206.220867 
L 237.29973 186.869461 
L 237.517163 138.717905 
L 237.56065 211.172534 
L 237.647623 207.630308 
L 237.865057 190.3766 
L 238.082491 147.443854 
L 238.125977 133.088015 
L 238.169464 210.609545 
L 238.256438 206.819604 
L 238.473871 188.359309 
L 238.691305 142.424188 
L 238.734792 211.543162 
L 238.821765 208.164012 
L 239.039199 191.704628 
L 239.213146 162.160852 
L 239.256632 213.516829 
L 239.343606 211.006092 
L 239.56104 198.776632 
L 239.778473 168.345821 
L 239.865447 145.959841 
L 239.908933 211.896728 
L 239.995907 208.673146 
L 240.213341 192.971516 
L 240.430774 153.900837 
L 240.561234 106.346266 
L 240.604721 207.93537 
L 240.691695 202.968792 
L 240.909128 178.777257 
L 241.126562 118.580976 
L 241.170049 98.452561 
L 241.213535 207.146 
L 241.300509 201.832098 
L 241.517943 175.948799 
L 241.735376 111.542869 
L 241.778863 90.006833 
L 241.82235 206.301427 
L 241.909323 200.615913 
L 242.126757 172.922542 
L 242.34419 104.012573 
L 242.387677 80.970478 
L 242.431164 205.397791 
L 242.518137 199.314678 
L 242.735571 169.684653 
L 243.126952 95.955668 
L 243.518332 95.955668 
L 243.561819 71.302192 
L 243.605306 204.430963 
L 243.692279 197.922445 
L 243.909713 166.220331 
L 244.301093 60.957782 
L 244.34458 203.396522 
L 244.431554 196.43285 
L 244.648987 162.513742 
L 244.866421 78.112147 
L 244.909908 205.111958 
L 244.996881 198.903079 
L 245.214315 168.660461 
L 245.431748 93.407152 
L 245.475235 68.243972 
L 245.518722 204.125141 
L 245.605695 197.482061 
L 245.823129 165.124516 
L 246.040563 84.608588 
L 246.084049 205.761602 
L 246.171023 199.838566 
L 246.388456 170.988253 
L 246.60589 99.199443 
L 246.649377 75.194722 
L 246.692864 204.820216 
L 246.779837 198.482969 
L 246.997271 167.615095 
L 247.432138 65.122525 
L 247.475625 203.812996 
L 247.562598 197.032573 
L 247.780032 164.006045 
L 248.040952 81.825474 
L 248.084439 54.345959 
L 248.127926 202.735339 
L 248.214899 195.480747 
L 248.432333 160.144606 
L 248.649767 72.216979 
L 248.693253 42.815766 
L 248.73674 201.58232 
L 248.823713 193.8204 
L 249.041147 156.013129 
L 249.258581 61.936543 
L 249.302068 30.479242 
L 249.345554 200.348668 
L 249.432528 192.04394 
L 249.649961 151.59273 
L 249.910882 50.937175 
L 249.954369 17.28 
L 249.997855 199.028743 
L 250.084829 190.143249 
L 250.302262 146.863203 
L 250.693643 39.168598 
L 251.12851 39.168598 
L 251.171997 201.217603 
L 251.25897 193.295207 
L 251.476404 154.706283 
L 251.867785 58.684692 
L 252.128705 58.684692 
L 252.172192 203.169213 
L 252.259165 196.105525 
L 252.476599 161.699253 
L 252.86798 76.085437 
L 253.1289 76.085437 
L 253.172387 204.909287 
L 253.25936 198.611232 
L 253.476794 167.934254 
L 253.868174 91.600116 
L 254.129095 91.600116 
L 254.172581 206.460755 
L 254.259555 200.845346 
L 254.476989 173.493444 
L 254.694422 105.43316 
L 254.737909 207.844059 
L 254.824882 202.837304 
L 255.042316 178.450074 
L 255.433697 117.766841 
L 255.65113 117.766841 
L 255.694617 209.077428 
L 255.781591 204.613354 
L 255.999024 182.869455 
L 256.390405 128.763675 
L 256.433892 210.177111 
L 256.520865 206.196898 
L 256.738299 186.809819 
L 257.129679 138.568562 
L 257.434086 138.568562 
L 257.477573 211.1576 
L 257.564547 207.608802 
L 257.78198 190.323088 
L 257.999414 147.310698 
L 258.042901 132.928228 
L 258.086387 210.593566 
L 258.173361 206.796594 
L 258.390794 188.302054 
L 258.825662 126.893454 
L 258.869149 209.990089 
L 258.956122 205.927587 
L 259.173556 186.139685 
L 259.564936 136.901055 
L 259.608423 136.901055 
L 259.65191 210.990849 
L 259.738883 207.368681 
L 259.956317 189.72559 
L 260.17375 145.830188 
L 260.217237 211.883762 
L 260.304211 208.654476 
L 260.521644 192.925059 
L 260.739078 153.786819 
L 260.782565 212.679425 
L 260.869538 209.800231 
L 261.086972 195.776064 
L 261.347892 160.879449 
L 261.391379 213.388688 
L 261.478352 210.82157 
L 261.695786 198.317482 
L 261.91322 167.203309 
L 261.956706 214.021074 
L 262.04368 211.732206 
L 262.261114 200.583435 
L 262.478547 172.841726 
L 262.522034 163.565462 
L 262.565521 213.65729 
L 262.652494 211.208356 
L 262.869928 199.279929 
L 263.087362 169.598185 
L 263.130848 159.673213 
L 263.174335 213.268065 
L 263.261308 210.647872 
L 263.478742 197.885265 
L 263.696176 166.127817 
L 263.783149 142.765915 
L 263.826636 211.577335 
L 263.913609 208.213221 
L 264.131043 191.827075 
L 264.348477 151.0531 
L 264.43545 121.058323 
L 264.478937 209.406576 
L 264.56591 205.087328 
L 264.783344 184.048852 
L 265.000778 131.698393 
L 265.044264 210.470583 
L 265.131238 206.619498 
L 265.348672 187.861382 
L 265.609592 141.185186 
L 265.653079 125.577614 
L 265.696565 209.858505 
L 265.783539 205.738106 
L 266.000973 185.668196 
L 266.218406 135.727838 
L 266.30538 98.989946 
L 266.348866 207.199738 
L 266.43584 201.909482 
L 266.653274 176.141354 
L 266.870707 112.022007 
L 266.914194 90.581798 
L 266.957681 206.358923 
L 267.044654 200.698708 
L 267.262088 173.128563 
L 267.479521 104.525218 
L 267.523008 207.753265 
L 267.609982 202.706561 
L 267.827415 178.124742 
L 268.044849 116.95731 
L 268.088336 96.504163 
L 268.131822 206.95116 
L 268.218796 201.551529 
L 268.43623 175.250653 
L 268.653663 109.805657 
L 268.69715 87.922179 
L 268.740637 206.092961 
L 268.82761 200.315723 
L 269.045044 172.175573 
L 269.262477 102.153874 
L 269.305964 207.516131 
L 269.392938 202.365087 
L 269.610371 177.275047 
L 269.827805 114.842997 
L 269.871292 93.966987 
L 269.914778 206.697442 
L 270.001752 201.186175 
L 270.219186 174.341537 
L 270.654053 85.207573 
L 270.69754 205.821501 
L 270.784513 199.92482 
L 271.001947 171.20288 
L 271.21938 99.733504 
L 271.262867 207.274094 
L 271.349841 202.016554 
L 271.567274 176.407784 
L 271.784708 112.684971 
L 271.828195 91.377355 
L 271.871681 206.438479 
L 271.958655 200.813268 
L 272.176088 173.413625 
L 272.393522 105.234544 
L 272.437009 82.436843 
L 272.480496 205.544428 
L 272.567469 199.525835 
L 272.784903 170.210078 
L 273.002336 97.263094 
L 273.045823 72.871103 
L 273.08931 204.587854 
L 273.176283 198.148368 
L 273.393717 166.7825 
L 273.611151 88.734184 
L 273.654637 62.636411 
L 273.698124 203.564385 
L 273.785098 196.674572 
L 274.002531 163.115225 
L 274.219965 79.608829 
L 274.263452 51.685986 
L 274.306938 202.469342 
L 274.393912 195.097711 
L 274.611345 159.19149 
L 275.002726 69.84532 
L 275.176673 69.84532 
L 275.22016 39.969775 
L 275.263646 201.297721 
L 275.35062 193.410577 
L 275.568054 154.993359 
L 275.915947 59.399029 
L 275.959434 203.240646 
L 276.046408 196.208389 
L 276.263841 161.955213 
L 276.481275 76.722347 
L 276.524762 48.222207 
L 276.568248 202.122964 
L 276.655222 194.598927 
L 276.872656 157.950355 
L 277.264036 66.756981 
L 278.264231 66.756981 
L 278.307718 203.976441 
L 278.394691 197.267935 
L 278.612125 164.5917 
L 279.003505 83.282771 
L 279.699293 83.282771 
L 279.74278 205.629021 
L 279.829753 199.647648 
L 280.047187 170.513189 
L 280.438568 98.017331 
L 281.134355 98.017331 
L 281.177842 207.102477 
L 281.264815 201.769425 
L 281.482249 175.792849 
L 281.699683 111.154814 
L 281.74317 89.541167 
L 281.786656 206.25486 
L 281.87363 200.548857 
L 282.091063 172.755685 
L 282.308497 103.59738 
L 282.351984 207.660481 
L 282.438957 202.572952 
L 282.656391 177.792281 
L 282.873825 116.130041 
L 282.917311 95.51144 
L 282.960798 206.851887 
L 283.047771 201.408577 
L 283.265205 174.894942 
L 283.613099 86.860033 
L 283.656586 205.986747 
L 283.743559 200.162774 
L 283.960993 171.794987 
L 284.178426 101.206854 
L 284.221913 207.421429 
L 284.308887 202.228716 
L 284.52632 176.935712 
L 284.743754 113.998624 
L 284.787241 92.953739 
L 284.830727 206.596117 
L 284.917701 201.040268 
L 285.135135 173.978472 
L 285.352568 106.640064 
L 285.396055 84.123467 
L 285.439542 205.71309 
L 285.526515 199.768709 
L 285.743949 170.814426 
L 285.961382 98.766905 
L 286.004869 74.675676 
L 286.048356 204.768311 
L 286.135329 198.408227 
L 286.352763 167.429111 
L 286.744144 90.343159 
L 287.092038 90.343159 
L 287.135524 64.567181 
L 287.179011 203.757462 
L 287.265984 196.952603 
L 287.483418 163.807055 
L 287.700852 81.330324 
L 287.744338 205.433776 
L 287.831312 199.366496 
L 288.048746 169.813592 
L 288.266179 96.27651 
L 288.309666 71.687202 
L 288.353153 204.469464 
L 288.440126 197.977886 
L 288.65756 166.358287 
L 289.04894 87.678606 
L 290.092622 87.678606 
L 290.136109 61.369718 
L 290.179595 203.437715 
L 290.266569 196.492169 
L 290.484003 162.661346 
L 290.701436 78.479433 
L 290.744923 205.148687 
L 290.831896 198.955968 
L 291.04933 168.792066 
L 291.266764 93.734627 
L 291.310251 68.636943 
L 291.353737 204.164438 
L 291.440711 197.538649 
L 291.658144 165.265324 
L 291.875578 84.958964 
L 291.919065 58.106147 
L 291.962551 203.111358 
L 292.049525 196.022215 
L 292.266959 161.49195 
L 292.484392 75.569601 
L 292.527879 46.838912 
L 292.571366 201.984635 
L 292.658339 194.399733 
L 292.875773 157.454695 
L 293.136693 65.52362 
L 293.18018 34.783735 
L 293.223667 200.779117 
L 293.31064 192.663787 
L 293.528074 153.135108 
L 293.919454 54.775104 
L 294.049915 54.775104 
L 294.093401 21.885515 
L 294.136888 199.489295 
L 294.223862 190.806443 
L 294.441295 148.513442 
L 294.658729 43.274921 
L 294.702216 201.628236 
L 294.789189 193.886518 
L 295.006623 156.177653 
L 295.224056 62.345931 
L 295.267543 30.970507 
L 295.31103 200.397794 
L 295.398003 192.114682 
L 295.615437 151.768759 
L 295.919844 51.375192 
L 295.963331 202.438263 
L 296.050304 195.052957 
L 296.267738 159.080127 
L 296.485172 69.568213 
L 296.528658 39.637247 
L 296.572145 201.264468 
L 296.659119 193.362693 
L 296.876552 154.874209 
L 297.267933 59.102544 
L 297.746287 59.102544 
L 297.789774 203.210998 
L 297.876747 196.165696 
L 298.094181 161.848976 
L 298.311614 76.457998 
L 298.355101 47.904988 
L 298.398588 202.091242 
L 298.485561 194.553248 
L 298.702995 157.83669 
L 299.094376 66.474145 
L 299.268322 66.474145 
L 299.311809 35.924364 
L 299.355296 200.89318 
L 299.442269 192.828038 
L 299.659703 153.543816 
L 299.877137 55.7921 
L 299.920623 202.879953 
L 300.007597 195.688992 
L 300.225031 160.662785 
L 300.442464 73.506373 
L 300.485951 44.363038 
L 300.529438 201.737047 
L 300.616411 194.043207 
L 300.833845 156.567545 
L 301.225225 63.316107 
L 303.790943 63.316107 
L 303.834429 203.632354 
L 303.921403 196.772449 
L 304.138836 163.358772 
L 304.35627 80.214853 
L 304.399757 52.413214 
L 304.443244 202.542065 
L 304.530217 195.202432 
L 304.747651 159.452069 
L 305.139031 70.493725 
L 305.443438 70.493725 
L 305.486925 204.350116 
L 305.573899 197.806026 
L 305.791332 165.930643 
L 306.008766 86.614489 
L 306.052253 60.092778 
L 306.095739 203.310021 
L 306.182713 196.308289 
L 306.400146 162.203795 
L 306.61758 77.340901 
L 306.661067 205.034833 
L 306.74804 198.792019 
L 306.965474 168.38411 
L 307.182908 92.7195 
L 307.226394 67.418791 
L 307.269881 204.042622 
L 307.356855 197.363235 
L 307.574288 164.828838 
L 307.791722 83.872847 
L 307.835209 205.688028 
L 307.922182 199.732619 
L 308.139616 170.724624 
L 308.270076 218.88 
L 309.052837 218.81139 
L 309.270271 218.198712 
L 309.487704 216.674171 
L 309.705138 212.880626 
L 309.922572 203.441072 
L 310.140005 179.952441 
L 310.357439 121.505212 
L 310.487899 50.366626 
L 310.531386 202.337406 
L 310.618359 194.907724 
L 310.835793 158.718739 
L 311.053227 68.668966 
L 311.096714 204.16764 
L 311.183687 197.54326 
L 311.401121 165.276799 
L 311.749014 58.14041 
L 311.792501 203.114784 
L 311.879475 196.027148 
L 312.096908 161.504227 
L 312.314342 75.60015 
L 312.357829 204.860758 
L 312.444802 198.541351 
L 312.662236 167.760367 
L 313.01013 65.556306 
L 313.053616 203.856374 
L 313.14059 197.095037 
L 313.358024 164.161476 
L 313.575457 82.212237 
L 313.618944 205.521967 
L 313.705917 199.493491 
L 313.923351 170.129597 
L 314.184271 97.062833 
L 314.227758 72.63079 
L 314.271245 204.563822 
L 314.358218 198.113763 
L 314.575652 166.696392 
L 314.793086 88.519918 
L 314.836572 206.152735 
L 314.923546 200.401798 
L 315.14098 172.389754 
L 315.358413 102.686825 
L 315.4019 79.37958 
L 315.445387 205.238701 
L 315.53236 199.085589 
L 315.749794 169.114605 
L 315.967227 94.537207 
L 316.010714 206.754464 
L 316.097688 201.268287 
L 316.315121 174.545857 
L 316.532555 108.0519 
L 316.576042 85.81767 
L 316.619528 205.88251 
L 316.706502 200.012674 
L 316.923936 171.421489 
L 317.184856 100.277473 
L 317.228343 76.488358 
L 317.271829 204.949579 
L 317.358803 198.669253 
L 317.576237 168.078628 
L 317.79367 91.959365 
L 317.837157 206.49668 
L 317.92413 200.897078 
L 318.141564 173.62217 
L 318.358998 105.75347 
L 318.402484 83.059554 
L 318.445971 205.606699 
L 318.532945 199.615505 
L 318.750378 170.433206 
L 318.967812 97.818309 
L 319.011299 73.537361 
L 319.054785 204.65448 
L 319.141759 198.244309 
L 319.359193 167.021233 
L 319.750573 63.349262 
L 319.79406 203.63567 
L 319.881033 196.777223 
L 320.098467 163.370652 
L 320.315901 80.244415 
L 320.359387 205.325185 
L 320.446361 199.210125 
L 320.663795 169.424491 
L 320.881228 95.308302 
L 320.924715 70.525353 
L 320.968202 204.353279 
L 321.055175 197.81058 
L 321.272609 165.941976 
L 321.490042 86.64269 
L 321.533529 60.126618 
L 321.577016 203.313405 
L 321.663989 196.313162 
L 321.881423 162.215921 
L 322.142343 77.371073 
L 322.18583 49.000678 
L 322.229317 202.200811 
L 322.31629 194.711027 
L 322.533724 158.229295 
L 322.925105 67.451073 
L 323.055565 67.451073 
L 323.099052 37.096678 
L 323.142538 201.010411 
L 323.229512 192.996851 
L 323.446945 153.963877 
L 323.664379 56.837347 
L 323.707866 202.984478 
L 323.794839 195.839507 
L 324.012273 161.037316 
L 324.229707 74.438326 
L 324.273193 45.481382 
L 324.31668 201.848882 
L 324.403653 194.204248 
L 324.621087 156.968268 
L 324.838521 64.313233 
L 324.882008 203.732067 
L 324.968981 196.916035 
L 325.186415 163.716061 
L 325.403848 81.103901 
L 325.447335 53.480071 
L 325.490822 202.648751 
L 325.577795 195.35606 
L 325.795229 159.834343 
L 326.186609 71.444945 
L 326.230096 71.444945 
L 326.273583 41.889325 
L 326.404043 218.88 
L 326.621477 218.81139 
L 326.83891 218.198712 
L 326.969371 217.452995 
L 327.012857 218.88 
L 327.099831 218.729059 
L 327.317265 217.993844 
L 327.534698 216.164396 
L 327.752132 211.612142 
L 327.969565 200.284677 
L 328.186999 172.09832 
L 328.404433 101.961644 
L 328.491406 50.366626 
L 328.534893 202.337406 
L 328.621866 194.907724 
L 328.8393 158.718739 
L 329.230681 68.668966 
L 331.535477 68.668966 
L 331.578964 204.16764 
L 331.665938 197.54326 
L 331.883371 165.276799 
L 332.100805 84.987517 
L 332.144292 58.14041 
L 332.187778 203.114784 
L 332.274752 196.027148 
L 332.492186 161.504227 
L 332.883566 75.60015 
L 333.448894 75.60015 
L 333.49238 46.875571 
L 333.535867 201.9883 
L 333.622841 194.405011 
L 333.840274 157.467831 
L 334.057708 65.556306 
L 334.101195 203.856374 
L 334.188168 197.095037 
L 334.405602 164.161476 
L 334.623035 82.212237 
L 334.666522 54.810075 
L 334.710009 202.781751 
L 334.796982 195.54758 
L 335.014416 160.310907 
L 335.23185 72.63079 
L 335.275336 43.312338 
L 335.318823 201.631977 
L 335.405797 193.891906 
L 335.62323 156.19106 
L 335.797177 88.519918 
L 335.927637 218.88 
L 336.275531 218.81139 
L 336.492965 218.198712 
L 336.710399 216.674171 
L 336.927832 212.880626 
L 337.145266 203.441072 
L 337.3627 179.952441 
L 337.580133 121.505212 
L 337.710593 50.366626 
L 337.75408 202.337406 
L 337.841054 194.907724 
L 338.058487 158.718739 
L 338.319408 68.668966 
L 338.362894 38.55815 
L 338.406381 201.156558 
L 338.493355 193.207303 
L 338.710788 154.487549 
L 338.928222 58.14041 
L 338.971709 203.114784 
L 339.058682 196.027148 
L 339.276116 161.504227 
L 339.493549 75.60015 
L 339.537036 46.875571 
L 339.580523 201.9883 
L 339.667496 194.405011 
L 339.88493 157.467831 
L 340.102364 65.556306 
L 340.14585 203.856374 
L 340.232824 197.095037 
L 340.450258 164.161476 
L 340.667691 82.212237 
L 340.711178 54.810075 
L 340.754665 202.781751 
L 340.841638 195.54758 
L 340.928612 185.130374 
L 341.059072 218.88 
L 341.363479 218.81139 
L 341.580913 218.198712 
L 341.798346 216.674171 
L 342.01578 212.880626 
L 342.233214 203.441072 
L 342.450647 179.952441 
L 342.668081 121.505212 
L 342.885515 50.366626 
L 342.929001 202.337406 
L 343.015975 194.907724 
L 343.233408 158.718739 
L 343.450842 68.668966 
L 343.494329 204.16764 
L 343.581302 197.54326 
L 343.798736 165.276799 
L 344.01617 84.987517 
L 344.059656 58.14041 
L 344.103143 203.114784 
L 344.190116 196.027148 
L 344.40755 161.504227 
L 344.798931 75.60015 
L 344.842417 204.860758 
L 344.929391 198.541351 
L 345.146825 167.760367 
L 345.364258 91.16743 
L 345.407745 65.556306 
L 345.451232 203.856374 
L 345.538205 197.095037 
L 345.755639 164.161476 
L 345.973072 82.212237 
L 346.103533 217.578919 
L 346.233993 218.88 
L 346.451427 218.81139 
L 346.66886 218.198712 
L 346.79932 217.452995 
L 346.929781 218.88 
L 347.016754 218.81139 
L 347.234188 218.198712 
L 347.451621 216.674171 
L 347.669055 212.880626 
L 347.886489 203.441072 
L 348.103922 179.952441 
L 348.321356 121.505212 
L 348.408329 78.509363 
L 348.451816 205.15168 
L 348.53879 198.960278 
L 348.756223 168.802791 
L 348.973657 93.761313 
L 349.017144 68.668966 
L 349.06063 204.16764 
L 349.147604 197.54326 
L 349.365038 165.276799 
L 349.582471 84.987517 
L 349.625958 205.799495 
L 349.712931 199.893132 
L 349.930365 171.12403 
L 350.147799 99.5373 
L 350.191285 75.60015 
L 350.234772 204.860758 
L 350.321746 198.541351 
L 350.539179 167.760367 
L 350.756613 91.16743 
L 350.8001 206.417486 
L 350.887073 200.783039 
L 351.104507 173.338405 
L 351.32194 105.047372 
L 351.365427 82.212237 
L 351.408914 205.521967 
L 351.495887 199.493491 
L 351.713321 170.129597 
L 351.930755 97.062833 
L 352.061215 217.757126 
L 352.191675 218.88 
L 352.322135 218.81139 
L 352.539569 218.198712 
L 352.757003 216.674171 
L 352.974436 212.880626 
L 353.19187 203.441072 
L 353.409304 179.952441 
L 353.626737 121.505212 
L 353.757197 101.961644 
L 353.887658 101.961644 
L 353.931144 207.496908 
L 354.018118 202.337406 
L 354.235552 177.206167 
L 354.452985 114.671603 
L 354.496472 93.761313 
L 354.539959 206.676875 
L 354.626932 201.156558 
L 354.844366 174.26784 
L 355.061799 107.360105 
L 355.105286 208.036754 
L 355.19226 203.114784 
L 355.409693 179.140533 
L 355.801074 119.484925 
L 356.148968 119.484925 
L 356.192454 99.5373 
L 356.235941 207.254473 
L 356.322915 201.9883 
L 356.540348 176.337481 
L 356.801269 112.510033 
L 356.844755 91.16743 
L 356.888242 206.417486 
L 356.975216 200.783039 
L 357.149163 180.985845 
L 357.149163 180.985845 
" clip-path="url(#pecaa9a4a38)" style="fill: none; stroke: #1f77b4; stroke-width: 1.5; stroke-linecap: square"/>
   </g>
   <g id="patch_3">
    <path d="M 37.567344 228.96 
L 37.567344 7.2 
" style="fill: none; stroke: #000000; stroke-width: 0.8; stroke-linejoin: miter; stroke-linecap: square"/>
   </g>
   <g id="patch_4">
    <path d="M 372.367344 228.96 
L 372.367344 7.2 
" style="fill: none; stroke: #000000; stroke-width: 0.8; stroke-linejoin: miter; stroke-linecap: square"/>
   </g>
   <g id="patch_5">
    <path d="M 37.567344 228.96 
L 372.367344 228.96 
" style="fill: none; stroke: #000000; stroke-width: 0.8; stroke-linejoin: miter; stroke-linecap: square"/>
   </g>
   <g id="patch_6">
    <path d="M 37.567344 7.2 
L 372.367344 7.2 
" style="fill: none; stroke: #000000; stroke-width: 0.8; stroke-linejoin: miter; stroke-linecap: square"/>
   </g>
   <g id="legend_1">
    <g id="patch_7">
     <path d="M 314.548024 29.420307 
L 365.367344 29.420307 
Q 367.367344 29.420307 367.367344 27.420307 
L 367.367344 14.2 
Q 367.367344 12.2 365.367344 12.2 
L 314.548024 12.2 
Q 312.548024 12.2 312.548024 14.2 
L 312.548024 27.420307 
Q 312.548024 29.420307 314.548024 29.420307 
z
" style="fill: #ffffff; opacity: 0.8; stroke: #cccccc; stroke-linejoin: miter"/>
    </g>
    <g id="line2d_17">
     <path d="M 316.548024 19.79832 
L 326.548024 19.79832 
L 336.548024 19.79832 
" style="fill: none; stroke: #1f77b4; stroke-width: 1.5; stroke-linecap: square"/>
    </g>
    <g id="text_18">
     <!-- CFL -->
     <g transform="translate(344.548024 23.29832) scale(0.1 -0.1)">
      <use xlink:href="#NimbusSanL-Regu-43" transform="scale(0.996264)"/>
      <use xlink:href="#NimbusSanL-Regu-46" transform="translate(71.929985 0) scale(0.996264)"/>
      <use xlink:href="#NimbusSanL-Regu-4c" transform="translate(132.801616 0) scale(0.996264)"/>
     </g>
    </g>
   </g>
  </g>
 </g>
 <defs>
  <clipPath id="pecaa9a4a38">
   <rect x="37.567344" y="7.2" width="334.8" height="221.76"/>
  </clipPath>
 </defs>
</svg>
