<?xml version="1.0" encoding="utf-8" standalone="no"?>
<!DOCTYPE svg PUBLIC "-//W3C//DTD SVG 1.1//EN"
  "http://www.w3.org/Graphics/SVG/1.1/DTD/svg11.dtd">
<svg xmlns:xlink="http://www.w3.org/1999/xlink" width="382.150386pt" height="265.600613pt" viewBox="0 0 382.150386 265.600613" xmlns="http://www.w3.org/2000/svg" version="1.1">
 <metadata>
  <rdf:RDF xmlns:dc="http://purl.org/dc/elements/1.1/" xmlns:cc="http://creativecommons.org/ns#" xmlns:rdf="http://www.w3.org/1999/02/22-rdf-syntax-ns#">
   <cc:Work>
    <dc:type rdf:resource="http://purl.org/dc/dcmitype/StillImage"/>
    <dc:date>2025-07-17T20:41:57.072503</dc:date>
    <dc:format>image/svg+xml</dc:format>
    <dc:creator>
     <cc:Agent>
      <dc:title>Matplotlib v3.10.3, https://matplotlib.org/</dc:title>
     </cc:Agent>
    </dc:creator>
   </cc:Work>
  </rdf:RDF>
 </metadata>
 <defs>
  <style type="text/css">*{stroke-linejoin: round; stroke-linecap: butt}</style>
 </defs>
 <g id="figure_1">
  <g id="patch_1">
   <path d="M 0 265.600613 
L 382.150386 265.600613 
L 382.150386 0 
L 0 0 
z
" style="fill: #ffffff"/>
  </g>
  <g id="axes_1">
   <g id="patch_2">
    <path d="M 40.150386 228.96 
L 374.950386 228.96 
L 374.950386 7.2 
L 40.150386 7.2 
z
" style="fill: #ffffff"/>
   </g>
   <g id="matplotlib.axis_1">
    <g id="xtick_1">
     <g id="line2d_1">
      <defs>
       <path id="m1e2e12696d" d="M 0 0 
L 0 3.5 
" style="stroke: #000000; stroke-width: 0.8"/>
      </defs>
      <g>
       <use xlink:href="#m1e2e12696d" x="55.368567" y="228.96" style="stroke: #000000; stroke-width: 0.8"/>
      </g>
     </g>
     <g id="text_1">
      <!-- $\mathdefault{0}$ -->
      <g transform="translate(52.8779 243.05832) scale(0.1 -0.1)">
       <defs>
        <path id="CMR17-30" d="M 2688 2038 
C 2688 2430 2682 3099 2413 3613 
C 2176 4063 1798 4224 1466 4224 
C 1158 4224 768 4082 525 3620 
C 269 3137 243 2539 243 2038 
C 243 1671 250 1112 448 623 
C 723 -39 1216 -128 1466 -128 
C 1760 -128 2208 -7 2470 604 
C 2662 1048 2688 1568 2688 2038 
z
M 1466 -26 
C 1056 -26 813 328 723 816 
C 653 1196 653 1749 653 2109 
C 653 2604 653 3015 736 3407 
C 858 3954 1216 4121 1466 4121 
C 1728 4121 2067 3947 2189 3420 
C 2272 3054 2278 2623 2278 2109 
C 2278 1691 2278 1176 2202 797 
C 2067 96 1690 -26 1466 -26 
z
" transform="scale(0.015625)"/>
       </defs>
       <use xlink:href="#CMR17-30" transform="scale(0.996264)"/>
      </g>
     </g>
    </g>
    <g id="xtick_2">
     <g id="line2d_2">
      <g>
       <use xlink:href="#m1e2e12696d" x="108.765697" y="228.96" style="stroke: #000000; stroke-width: 0.8"/>
      </g>
     </g>
     <g id="text_2">
      <!-- $\mathdefault{200}$ -->
      <g transform="translate(101.293694 243.05832) scale(0.1 -0.1)">
       <defs>
        <path id="CMR17-32" d="M 2669 990 
L 2554 990 
C 2490 537 2438 460 2413 422 
C 2381 371 1920 371 1830 371 
L 602 371 
C 832 620 1280 1073 1824 1596 
C 2214 1966 2669 2400 2669 3033 
C 2669 3788 2067 4224 1395 4224 
C 691 4224 262 3603 262 3027 
C 262 2777 448 2745 525 2745 
C 589 2745 781 2783 781 3007 
C 781 3206 614 3264 525 3264 
C 486 3264 448 3257 422 3244 
C 544 3788 915 4057 1306 4057 
C 1862 4057 2227 3616 2227 3033 
C 2227 2477 1901 1998 1536 1583 
L 262 147 
L 262 0 
L 2515 0 
L 2669 990 
z
" transform="scale(0.015625)"/>
       </defs>
       <use xlink:href="#CMR17-32" transform="scale(0.996264)"/>
       <use xlink:href="#CMR17-30" transform="translate(45.690477 0) scale(0.996264)"/>
       <use xlink:href="#CMR17-30" transform="translate(91.380954 0) scale(0.996264)"/>
      </g>
     </g>
    </g>
    <g id="xtick_3">
     <g id="line2d_3">
      <g>
       <use xlink:href="#m1e2e12696d" x="162.162826" y="228.96" style="stroke: #000000; stroke-width: 0.8"/>
      </g>
     </g>
     <g id="text_3">
      <!-- $\mathdefault{400}$ -->
      <g transform="translate(154.690823 243.05832) scale(0.1 -0.1)">
       <defs>
        <path id="CMR17-34" d="M 2150 4147 
C 2150 4281 2144 4288 2029 4288 
L 128 1254 
L 128 1088 
L 1779 1088 
L 1779 460 
C 1779 230 1766 166 1318 166 
L 1197 166 
L 1197 0 
C 1402 12 1747 12 1965 12 
C 2182 12 2528 12 2733 0 
L 2733 166 
L 2611 166 
C 2163 166 2150 230 2150 460 
L 2150 1088 
L 2803 1088 
L 2803 1254 
L 2150 1254 
L 2150 4147 
z
M 1798 3723 
L 1798 1254 
L 256 1254 
L 1798 3723 
z
" transform="scale(0.015625)"/>
       </defs>
       <use xlink:href="#CMR17-34" transform="scale(0.996264)"/>
       <use xlink:href="#CMR17-30" transform="translate(45.690477 0) scale(0.996264)"/>
       <use xlink:href="#CMR17-30" transform="translate(91.380954 0) scale(0.996264)"/>
      </g>
     </g>
    </g>
    <g id="xtick_4">
     <g id="line2d_4">
      <g>
       <use xlink:href="#m1e2e12696d" x="215.559955" y="228.96" style="stroke: #000000; stroke-width: 0.8"/>
      </g>
     </g>
     <g id="text_4">
      <!-- $\mathdefault{600}$ -->
      <g transform="translate(208.087952 243.05832) scale(0.1 -0.1)">
       <defs>
        <path id="CMR17-36" d="M 678 2198 
C 678 3712 1395 4076 1811 4076 
C 1946 4076 2272 4049 2400 3782 
C 2298 3782 2106 3782 2106 3558 
C 2106 3385 2246 3328 2336 3328 
C 2394 3328 2566 3353 2566 3571 
C 2566 3987 2246 4224 1805 4224 
C 1043 4224 243 3411 243 2011 
C 243 257 966 -128 1478 -128 
C 2099 -128 2688 431 2688 1295 
C 2688 2101 2170 2688 1517 2688 
C 1126 2688 838 2430 678 1979 
L 678 2198 
z
M 1478 25 
C 691 25 691 1212 691 1450 
C 691 1914 909 2585 1504 2585 
C 1613 2585 1926 2585 2138 2140 
C 2253 1889 2253 1624 2253 1302 
C 2253 954 2253 696 2118 438 
C 1978 173 1773 25 1478 25 
z
" transform="scale(0.015625)"/>
       </defs>
       <use xlink:href="#CMR17-36" transform="scale(0.996264)"/>
       <use xlink:href="#CMR17-30" transform="translate(45.690477 0) scale(0.996264)"/>
       <use xlink:href="#CMR17-30" transform="translate(91.380954 0) scale(0.996264)"/>
      </g>
     </g>
    </g>
    <g id="xtick_5">
     <g id="line2d_5">
      <g>
       <use xlink:href="#m1e2e12696d" x="268.957084" y="228.96" style="stroke: #000000; stroke-width: 0.8"/>
      </g>
     </g>
     <g id="text_5">
      <!-- $\mathdefault{800}$ -->
      <g transform="translate(261.485081 243.05832) scale(0.1 -0.1)">
       <defs>
        <path id="CMR17-38" d="M 1741 2289 
C 2144 2494 2554 2803 2554 3298 
C 2554 3884 1990 4224 1472 4224 
C 890 4224 378 3800 378 3215 
C 378 3054 416 2777 666 2533 
C 730 2469 998 2276 1171 2154 
C 883 2006 211 1652 211 945 
C 211 282 838 -128 1459 -128 
C 2144 -128 2720 366 2720 1022 
C 2720 1607 2330 1877 2074 2051 
L 1741 2289 
z
M 902 2855 
C 851 2887 595 3086 595 3388 
C 595 3781 998 4076 1459 4076 
C 1965 4076 2336 3716 2336 3298 
C 2336 2700 1670 2359 1638 2359 
C 1632 2359 1626 2359 1574 2398 
L 902 2855 
z
M 2080 1536 
C 2176 1466 2483 1253 2483 861 
C 2483 385 2010 25 1472 25 
C 890 25 448 443 448 951 
C 448 1459 838 1884 1280 2083 
L 2080 1536 
z
" transform="scale(0.015625)"/>
       </defs>
       <use xlink:href="#CMR17-38" transform="scale(0.996264)"/>
       <use xlink:href="#CMR17-30" transform="translate(45.690477 0) scale(0.996264)"/>
       <use xlink:href="#CMR17-30" transform="translate(91.380954 0) scale(0.996264)"/>
      </g>
     </g>
    </g>
    <g id="xtick_6">
     <g id="line2d_6">
      <g>
       <use xlink:href="#m1e2e12696d" x="322.354213" y="228.96" style="stroke: #000000; stroke-width: 0.8"/>
      </g>
     </g>
     <g id="text_6">
      <!-- $\mathdefault{1000}$ -->
      <g transform="translate(312.391543 243.05832) scale(0.1 -0.1)">
       <defs>
        <path id="CMR17-31" d="M 1702 4083 
C 1702 4217 1696 4224 1606 4224 
C 1357 3927 979 3833 621 3820 
C 602 3820 570 3820 563 3808 
C 557 3795 557 3782 557 3648 
C 755 3648 1088 3686 1344 3839 
L 1344 467 
C 1344 243 1331 166 781 166 
L 589 166 
L 589 0 
C 896 6 1216 12 1523 12 
C 1830 12 2150 6 2458 0 
L 2458 166 
L 2266 166 
C 1715 166 1702 236 1702 467 
L 1702 4083 
z
" transform="scale(0.015625)"/>
       </defs>
       <use xlink:href="#CMR17-31" transform="scale(0.996264)"/>
       <use xlink:href="#CMR17-30" transform="translate(45.690477 0) scale(0.996264)"/>
       <use xlink:href="#CMR17-30" transform="translate(91.380954 0) scale(0.996264)"/>
       <use xlink:href="#CMR17-30" transform="translate(137.071431 0) scale(0.996264)"/>
      </g>
     </g>
    </g>
    <g id="text_7">
     <!-- Iteration -->
     <g transform="translate(189.603009 256.278627) scale(0.1 -0.1)">
      <defs>
       <path id="NimbusSanL-Regu-49" d="M 1242 4672 
L 640 4672 
L 640 0 
L 1242 0 
L 1242 4672 
z
" transform="scale(0.015625)"/>
       <path id="NimbusSanL-Regu-74" d="M 1626 3328 
L 1075 3328 
L 1075 4249 
L 544 4249 
L 544 3328 
L 90 3328 
L 90 2892 
L 544 2892 
L 544 402 
C 544 64 774 -128 1190 -128 
C 1318 -128 1446 -116 1626 -84 
L 1626 364 
C 1555 345 1472 339 1370 339 
C 1139 339 1075 402 1075 634 
L 1075 2892 
L 1626 2892 
L 1626 3328 
z
" transform="scale(0.015625)"/>
       <path id="NimbusSanL-Regu-65" d="M 3283 1484 
C 3283 1998 3245 2311 3149 2565 
C 2931 3123 2419 3456 1792 3456 
C 858 3456 256 2734 256 1619 
C 256 545 838 -128 1779 -128 
C 2547 -128 3078 307 3213 1018 
L 2675 1018 
C 2528 588 2227 364 1798 364 
C 1459 364 1171 514 992 787 
C 864 974 819 1161 813 1484 
L 3283 1484 
z
M 826 1920 
C 870 2552 1248 2963 1786 2963 
C 2310 2963 2714 2519 2714 1959 
C 2714 1946 2714 1933 2707 1920 
L 826 1920 
z
" transform="scale(0.015625)"/>
       <path id="NimbusSanL-Regu-72" d="M 442 3328 
L 442 0 
L 979 0 
L 979 1727 
C 979 2203 1101 2514 1357 2698 
C 1523 2819 1683 2857 2054 2863 
L 2054 3404 
C 1965 3449 1920 3456 1850 3456 
C 1504 3456 1242 3251 934 2750 
L 934 3328 
L 442 3328 
z
" transform="scale(0.015625)"/>
       <path id="NimbusSanL-Regu-61" d="M 3424 332 
C 3366 320 3341 320 3309 320 
C 3123 320 3021 415 3021 581 
L 3021 2542 
C 3021 3135 2586 3456 1760 3456 
C 1274 3456 870 3315 646 3065 
C 493 2893 429 2702 416 2370 
L 954 2370 
C 998 2778 1242 2963 1741 2963 
C 2221 2963 2490 2784 2490 2466 
L 2490 2326 
C 2490 2103 2355 2007 1933 1956 
C 1178 1861 1062 1835 858 1753 
C 467 1593 269 1294 269 861 
C 269 256 691 -128 1370 -128 
C 1792 -128 2131 19 2509 364 
C 2547 25 2714 -128 3059 -128 
C 3168 -128 3251 -116 3424 -71 
L 3424 332 
z
M 2490 1071 
C 2490 893 2438 785 2278 638 
C 2061 441 1798 339 1485 339 
C 1069 339 826 536 826 874 
C 826 1224 1062 1402 1632 1485 
C 2195 1562 2310 1587 2490 1670 
L 2490 1071 
z
" transform="scale(0.015625)"/>
       <path id="NimbusSanL-Regu-69" d="M 960 3358 
L 429 3358 
L 429 0 
L 960 0 
L 960 3358 
z
M 960 4672 
L 422 4672 
L 422 3999 
L 960 3999 
L 960 4672 
z
" transform="scale(0.015625)"/>
       <path id="NimbusSanL-Regu-6f" d="M 1741 3456 
C 800 3456 230 2784 230 1663 
C 230 543 794 -128 1747 -128 
C 2688 -128 3264 543 3264 1638 
C 3264 2791 2707 3456 1741 3456 
z
M 1747 2963 
C 2349 2963 2707 2472 2707 1644 
C 2707 861 2336 364 1747 364 
C 1152 364 787 855 787 1663 
C 787 2466 1152 2963 1747 2963 
z
" transform="scale(0.015625)"/>
       <path id="NimbusSanL-Regu-6e" d="M 448 3328 
L 448 0 
L 986 0 
L 986 1835 
C 986 2539 1344 2988 1894 2988 
C 2317 2988 2586 2732 2586 2328 
L 2586 0 
L 3117 0 
L 3117 2539 
C 3117 3097 2701 3456 2054 3456 
C 1555 3456 1235 3263 941 2796 
L 941 3328 
L 448 3328 
z
" transform="scale(0.015625)"/>
      </defs>
      <use xlink:href="#NimbusSanL-Regu-49" transform="scale(0.996264)"/>
      <use xlink:href="#NimbusSanL-Regu-74" transform="translate(27.69517 0) scale(0.996264)"/>
      <use xlink:href="#NimbusSanL-Regu-65" transform="translate(55.390339 0) scale(0.996264)"/>
      <use xlink:href="#NimbusSanL-Regu-72" transform="translate(110.782016 0) scale(0.996264)"/>
      <use xlink:href="#NimbusSanL-Regu-61" transform="translate(142.961149 0) scale(0.996264)"/>
      <use xlink:href="#NimbusSanL-Regu-74" transform="translate(198.352826 0) scale(0.996264)"/>
      <use xlink:href="#NimbusSanL-Regu-69" transform="translate(226.047996 0) scale(0.996264)"/>
      <use xlink:href="#NimbusSanL-Regu-6f" transform="translate(248.16478 0) scale(0.996264)"/>
      <use xlink:href="#NimbusSanL-Regu-6e" transform="translate(303.556457 0) scale(0.996264)"/>
     </g>
    </g>
   </g>
   <g id="matplotlib.axis_2">
    <g id="ytick_1">
     <g id="line2d_7">
      <defs>
       <path id="m044984e6ae" d="M 0 0 
L -3.5 0 
" style="stroke: #000000; stroke-width: 0.8"/>
      </defs>
      <g>
       <use xlink:href="#m044984e6ae" x="40.150386" y="228.44425" style="stroke: #000000; stroke-width: 0.8"/>
      </g>
     </g>
     <g id="text_8">
      <!-- $\mathdefault{−8}$ -->
      <g transform="translate(20.420307 231.99341) scale(0.1 -0.1)">
       <defs>
        <path id="CMSY10-0" d="M 4218 1472 
C 4326 1472 4442 1472 4442 1600 
C 4442 1728 4326 1728 4218 1728 
L 755 1728 
C 646 1728 531 1728 531 1600 
C 531 1472 646 1472 755 1472 
L 4218 1472 
z
" transform="scale(0.015625)"/>
       </defs>
       <use xlink:href="#CMSY10-0" transform="scale(0.996264)"/>
       <use xlink:href="#CMR17-38" transform="translate(77.487468 0) scale(0.996264)"/>
      </g>
     </g>
    </g>
    <g id="ytick_2">
     <g id="line2d_8">
      <g>
       <use xlink:href="#m044984e6ae" x="40.150386" y="189.727931" style="stroke: #000000; stroke-width: 0.8"/>
      </g>
     </g>
     <g id="text_9">
      <!-- $\mathdefault{−7}$ -->
      <g transform="translate(20.420307 193.277091) scale(0.1 -0.1)">
       <defs>
        <path id="CMR17-37" d="M 2886 3955 
L 2886 4096 
L 1382 4096 
C 634 4096 621 4166 595 4288 
L 480 4288 
L 294 3104 
L 410 3104 
C 429 3226 474 3552 550 3673 
C 589 3724 1062 3724 1171 3724 
L 2579 3724 
L 1869 2670 
C 1395 1961 1069 1003 1069 166 
C 1069 89 1069 -128 1299 -128 
C 1530 -128 1530 89 1530 172 
L 1530 466 
C 1530 1514 1709 2204 2003 2644 
L 2886 3955 
z
" transform="scale(0.015625)"/>
       </defs>
       <use xlink:href="#CMSY10-0" transform="scale(0.996264)"/>
       <use xlink:href="#CMR17-37" transform="translate(77.487468 0) scale(0.996264)"/>
      </g>
     </g>
    </g>
    <g id="ytick_3">
     <g id="line2d_9">
      <g>
       <use xlink:href="#m044984e6ae" x="40.150386" y="151.011612" style="stroke: #000000; stroke-width: 0.8"/>
      </g>
     </g>
     <g id="text_10">
      <!-- $\mathdefault{−6}$ -->
      <g transform="translate(20.420307 154.560772) scale(0.1 -0.1)">
       <use xlink:href="#CMSY10-0" transform="scale(0.996264)"/>
       <use xlink:href="#CMR17-36" transform="translate(77.487468 0) scale(0.996264)"/>
      </g>
     </g>
    </g>
    <g id="ytick_4">
     <g id="line2d_10">
      <g>
       <use xlink:href="#m044984e6ae" x="40.150386" y="112.295293" style="stroke: #000000; stroke-width: 0.8"/>
      </g>
     </g>
     <g id="text_11">
      <!-- $\mathdefault{−5}$ -->
      <g transform="translate(20.420307 115.844453) scale(0.1 -0.1)">
       <defs>
        <path id="CMR17-35" d="M 730 3750 
C 794 3724 1056 3641 1325 3641 
C 1920 3641 2246 3961 2432 4140 
C 2432 4191 2432 4224 2394 4224 
C 2387 4224 2374 4224 2323 4198 
C 2099 4102 1837 4032 1517 4032 
C 1325 4032 1037 4055 723 4191 
C 653 4224 640 4224 634 4224 
C 602 4224 595 4217 595 4090 
L 595 2231 
C 595 2113 595 2080 659 2080 
C 691 2080 704 2093 736 2139 
C 941 2435 1222 2560 1542 2560 
C 1766 2560 2246 2415 2246 1293 
C 2246 1087 2246 716 2054 422 
C 1894 159 1645 25 1370 25 
C 947 25 518 319 403 812 
C 429 806 480 793 506 793 
C 589 793 749 838 749 1036 
C 749 1209 627 1280 506 1280 
C 358 1280 262 1190 262 1011 
C 262 454 704 -128 1382 -128 
C 2042 -128 2669 441 2669 1267 
C 2669 2054 2170 2662 1549 2662 
C 1222 2662 947 2540 730 2304 
L 730 3750 
z
" transform="scale(0.015625)"/>
       </defs>
       <use xlink:href="#CMSY10-0" transform="scale(0.996264)"/>
       <use xlink:href="#CMR17-35" transform="translate(77.487468 0) scale(0.996264)"/>
      </g>
     </g>
    </g>
    <g id="ytick_5">
     <g id="line2d_11">
      <g>
       <use xlink:href="#m044984e6ae" x="40.150386" y="73.578973" style="stroke: #000000; stroke-width: 0.8"/>
      </g>
     </g>
     <g id="text_12">
      <!-- $\mathdefault{−4}$ -->
      <g transform="translate(20.420307 77.128134) scale(0.1 -0.1)">
       <use xlink:href="#CMSY10-0" transform="scale(0.996264)"/>
       <use xlink:href="#CMR17-34" transform="translate(77.487468 0) scale(0.996264)"/>
      </g>
     </g>
    </g>
    <g id="ytick_6">
     <g id="line2d_12">
      <g>
       <use xlink:href="#m044984e6ae" x="40.150386" y="34.862654" style="stroke: #000000; stroke-width: 0.8"/>
      </g>
     </g>
     <g id="text_13">
      <!-- $\mathdefault{−3}$ -->
      <g transform="translate(20.420307 38.411815) scale(0.1 -0.1)">
       <defs>
        <path id="CMR17-33" d="M 1414 2176 
C 1984 2176 2234 1673 2234 1094 
C 2234 322 1824 25 1453 25 
C 1114 25 563 193 390 691 
C 422 678 454 678 486 678 
C 640 678 755 780 755 947 
C 755 1132 614 1216 486 1216 
C 378 1216 211 1164 211 927 
C 211 335 787 -128 1466 -128 
C 2176 -128 2720 432 2720 1087 
C 2720 1718 2208 2176 1600 2246 
C 2086 2347 2554 2776 2554 3353 
C 2554 3856 2048 4224 1472 4224 
C 890 4224 378 3862 378 3347 
C 378 3123 544 3084 627 3084 
C 762 3084 877 3167 877 3334 
C 877 3500 762 3584 627 3584 
C 602 3584 570 3584 544 3571 
C 730 3999 1235 4076 1459 4076 
C 1683 4076 2106 3966 2106 3347 
C 2106 3167 2080 2851 1862 2574 
C 1670 2329 1453 2316 1242 2297 
C 1210 2297 1062 2284 1037 2284 
C 992 2278 966 2272 966 2227 
C 966 2182 973 2176 1101 2176 
L 1414 2176 
z
" transform="scale(0.015625)"/>
       </defs>
       <use xlink:href="#CMSY10-0" transform="scale(0.996264)"/>
       <use xlink:href="#CMR17-33" transform="translate(77.487468 0) scale(0.996264)"/>
      </g>
     </g>
    </g>
    <g id="text_14">
     <!-- Linear Solver residual - Blade_18 -->
     <g transform="translate(14.29832 190.622039) rotate(-90) scale(0.1 -0.1)">
      <defs>
       <path id="NimbusSanL-Regu-4c" d="M 1107 4672 
L 512 4672 
L 512 0 
L 3411 0 
L 3411 524 
L 1107 524 
L 1107 4672 
z
" transform="scale(0.015625)"/>
       <path id="NimbusSanL-Regu-53" d="M 3814 3295 
C 3808 4204 3181 4736 2106 4736 
C 1082 4736 448 4211 448 3372 
C 448 2806 749 2450 1363 2291 
L 2522 1986 
C 3110 1833 3379 1598 3379 1236 
C 3379 988 3245 733 3046 593 
C 2861 466 2566 396 2189 396 
C 1683 396 1338 517 1114 784 
C 941 988 864 1210 870 1496 
L 307 1496 
C 314 1070 397 790 582 536 
C 902 102 1440 -128 2150 -128 
C 2707 -128 3162 0 3462 230 
C 3776 479 3974 892 3974 1293 
C 3974 1865 3616 2284 2982 2456 
L 1811 2768 
C 1248 2920 1043 3098 1043 3454 
C 1043 3925 1459 4236 2086 4236 
C 2829 4236 3245 3899 3251 3295 
L 3814 3295 
z
" transform="scale(0.015625)"/>
       <path id="NimbusSanL-Regu-6c" d="M 973 4672 
L 435 4672 
L 435 0 
L 973 0 
L 973 4672 
z
" transform="scale(0.015625)"/>
       <path id="NimbusSanL-Regu-76" d="M 1824 0 
L 3110 3328 
L 2509 3328 
L 1562 629 
L 666 3328 
L 64 3328 
L 1242 0 
L 1824 0 
z
" transform="scale(0.015625)"/>
       <path id="NimbusSanL-Regu-73" d="M 2803 2428 
C 2797 3084 2362 3456 1587 3456 
C 806 3456 301 3052 301 2434 
C 301 1912 570 1663 1363 1472 
L 1862 1351 
C 2234 1262 2381 1129 2381 887 
C 2381 574 2067 364 1600 364 
C 1312 364 1069 447 934 587 
C 851 683 813 778 781 1014 
L 218 1014 
C 243 243 678 -128 1555 -128 
C 2400 -128 2938 288 2938 931 
C 2938 1428 2656 1702 1990 1861 
L 1478 1982 
C 1043 2084 858 2224 858 2459 
C 858 2765 1133 2963 1568 2963 
C 1997 2963 2227 2778 2240 2428 
L 2803 2428 
z
" transform="scale(0.015625)"/>
       <path id="NimbusSanL-Regu-64" d="M 3168 4672 
L 2637 4672 
L 2637 2937 
C 2413 3276 2054 3456 1606 3456 
C 736 3456 166 2759 166 1695 
C 166 568 723 -128 1626 -128 
C 2086 -128 2406 44 2694 460 
L 2694 19 
L 3168 19 
L 3168 4672 
z
M 1696 2956 
C 2272 2956 2637 2447 2637 1651 
C 2637 880 2266 371 1702 371 
C 1114 371 723 887 723 1663 
C 723 2440 1114 2956 1696 2956 
z
" transform="scale(0.015625)"/>
       <path id="NimbusSanL-Regu-75" d="M 3085 19 
L 3085 3328 
L 2554 3328 
L 2554 1454 
C 2554 780 2195 339 1638 339 
C 1216 339 947 591 947 988 
L 947 3328 
L 416 3328 
L 416 780 
C 416 230 832 -128 1485 -128 
C 1978 -128 2291 44 2605 484 
L 2605 19 
L 3085 19 
z
" transform="scale(0.015625)"/>
       <path id="NimbusSanL-Regu-2d" d="M 1818 1996 
L 294 1996 
L 294 1536 
L 1818 1536 
L 1818 1996 
z
" transform="scale(0.015625)"/>
       <path id="NimbusSanL-Regu-42" d="M 506 0 
L 2611 0 
C 3053 0 3379 121 3629 390 
C 3859 632 3987 961 3987 1321 
C 3987 1878 3731 2214 3136 2444 
C 3558 2643 3782 2994 3782 3476 
C 3782 3821 3654 4127 3411 4345 
C 3168 4569 2848 4672 2400 4672 
L 506 4672 
L 506 0 
z
M 1101 2636 
L 1101 4147 
L 2253 4147 
C 2586 4147 2771 4101 2931 3977 
C 3098 3847 3187 3652 3187 3391 
C 3187 3138 3098 2936 2931 2806 
C 2771 2682 2586 2636 2253 2636 
L 1101 2636 
z
M 1101 524 
L 1101 2112 
L 2554 2112 
C 2842 2112 3034 2042 3174 1890 
C 3315 1745 3392 1542 3392 1315 
C 3392 1093 3315 891 3174 746 
C 3034 594 2842 524 2554 524 
L 1101 524 
z
" transform="scale(0.015625)"/>
       <path id="NimbusSanL-Regu-31" d="M 1658 3232 
L 1658 0 
L 2221 0 
L 2221 4537 
L 1850 4537 
C 1651 3840 1523 3744 653 3635 
L 653 3232 
L 1658 3232 
z
" transform="scale(0.015625)"/>
       <path id="NimbusSanL-Regu-38" d="M 2502 2399 
C 2970 2681 3123 2910 3123 3337 
C 3123 4044 2566 4544 1760 4544 
C 960 4544 397 4044 397 3337 
C 397 2917 550 2687 1011 2399 
C 493 2150 237 1774 237 1276 
C 237 447 864 -128 1760 -128 
C 2656 -128 3283 447 3283 1270 
C 3283 1774 3027 2150 2502 2399 
z
M 1760 4044 
C 2240 4044 2547 3764 2547 3324 
C 2547 2904 2234 2624 1760 2624 
C 1286 2624 973 2904 973 3331 
C 973 3764 1286 4044 1760 4044 
z
M 1760 2150 
C 2323 2150 2707 1793 2707 1264 
C 2707 728 2323 371 1747 371 
C 1197 371 813 734 813 1264 
C 813 1793 1197 2150 1760 2150 
z
" transform="scale(0.015625)"/>
      </defs>
      <use xlink:href="#NimbusSanL-Regu-4c" transform="scale(0.996264)"/>
      <use xlink:href="#NimbusSanL-Regu-69" transform="translate(55.391677 0) scale(0.996264)"/>
      <use xlink:href="#NimbusSanL-Regu-6e" transform="translate(77.508461 0) scale(0.996264)"/>
      <use xlink:href="#NimbusSanL-Regu-65" transform="translate(132.900138 0) scale(0.996264)"/>
      <use xlink:href="#NimbusSanL-Regu-61" transform="translate(188.291815 0) scale(0.996264)"/>
      <use xlink:href="#NimbusSanL-Regu-72" transform="translate(243.683492 0) scale(0.996264)"/>
      <use xlink:href="#NimbusSanL-Regu-53" transform="translate(304.553892 0) scale(0.996264)"/>
      <use xlink:href="#NimbusSanL-Regu-6f" transform="translate(371.003923 0) scale(0.996264)"/>
      <use xlink:href="#NimbusSanL-Regu-6c" transform="translate(426.3956 0) scale(0.996264)"/>
      <use xlink:href="#NimbusSanL-Regu-76" transform="translate(448.512384 0) scale(0.996264)"/>
      <use xlink:href="#NimbusSanL-Regu-65" transform="translate(495.834955 0) scale(0.996264)"/>
      <use xlink:href="#NimbusSanL-Regu-72" transform="translate(551.226632 0) scale(0.996264)"/>
      <use xlink:href="#NimbusSanL-Regu-72" transform="translate(612.097031 0) scale(0.996264)"/>
      <use xlink:href="#NimbusSanL-Regu-65" transform="translate(645.272261 0) scale(0.996264)"/>
      <use xlink:href="#NimbusSanL-Regu-73" transform="translate(700.663938 0) scale(0.996264)"/>
      <use xlink:href="#NimbusSanL-Regu-69" transform="translate(750.477138 0) scale(0.996264)"/>
      <use xlink:href="#NimbusSanL-Regu-64" transform="translate(772.593923 0) scale(0.996264)"/>
      <use xlink:href="#NimbusSanL-Regu-75" transform="translate(827.9856 0) scale(0.996264)"/>
      <use xlink:href="#NimbusSanL-Regu-61" transform="translate(883.377277 0) scale(0.996264)"/>
      <use xlink:href="#NimbusSanL-Regu-6c" transform="translate(938.768954 0) scale(0.996264)"/>
      <use xlink:href="#NimbusSanL-Regu-2d" transform="translate(988.580908 0) scale(0.996264)"/>
      <use xlink:href="#NimbusSanL-Regu-42" transform="translate(1049.451307 0) scale(0.996264)"/>
      <use xlink:href="#NimbusSanL-Regu-6c" transform="translate(1115.901338 0) scale(0.996264)"/>
      <use xlink:href="#NimbusSanL-Regu-61" transform="translate(1138.018122 0) scale(0.996264)"/>
      <use xlink:href="#NimbusSanL-Regu-64" transform="translate(1193.409799 0) scale(0.996264)"/>
      <use xlink:href="#NimbusSanL-Regu-65" transform="translate(1248.801476 0) scale(0.996264)"/>
      <use xlink:href="#NimbusSanL-Regu-31" transform="translate(1340.058718 0) scale(0.996264)"/>
      <use xlink:href="#NimbusSanL-Regu-38" transform="translate(1395.450395 0) scale(0.996264)"/>
      <path d="M 1310.170494 0 
L 1340.058718 0 
L 1340.058718 0.3985 
L 1310.170494 0.3985 
L 1310.170494 0 
z
"/>
     </g>
    </g>
   </g>
   <g id="line2d_13">
    <path d="M 55.368567 86.631203 
L 55.635553 71.860339 
L 56.169524 25.351138 
L 56.43651 99.536775 
L 56.703496 81.725465 
L 56.970481 101.65671 
L 57.237467 84.5043 
L 57.504453 99.559106 
L 57.771438 84.455044 
L 58.038424 95.928461 
L 58.30541 80.806297 
L 58.572395 85.639968 
L 58.839381 86.645126 
L 59.106367 84.274467 
L 59.907323 31.027022 
L 60.174309 105.382625 
L 60.441295 88.36791 
L 60.70828 107.448332 
L 61.242252 74.964352 
L 61.776223 95.388487 
L 62.043209 79.378334 
L 62.310194 80.365232 
L 62.844166 72.008066 
L 63.378137 39.264067 
L 63.645122 27.345873 
L 63.912108 102.242836 
L 64.179094 86.661464 
L 64.446079 105.644393 
L 64.980051 74.103959 
L 65.514022 91.891043 
L 65.781008 76.483461 
L 66.047993 80.074262 
L 66.314979 80.080341 
L 66.581965 77.646454 
L 67.115936 45.933458 
L 67.382922 33.974535 
L 67.649907 36.036456 
L 67.916893 26.295956 
L 68.183878 84.874818 
L 68.450864 103.275078 
L 68.71785 86.441094 
L 68.984835 99.248652 
L 69.251821 82.638689 
L 69.518807 92.312858 
L 69.785792 76.289258 
L 70.052778 77.555915 
L 70.586749 71.633532 
L 71.120721 39.261715 
L 71.387706 30.320002 
L 71.654692 95.103231 
L 71.921678 79.021914 
L 72.188663 96.165899 
L 72.455649 78.850431 
L 72.98962 95.928401 
L 73.256606 79.14468 
L 73.523591 82.702748 
L 73.790577 80.707417 
L 74.057563 73.998186 
L 74.591534 41.11438 
L 74.85852 28.820866 
L 75.125505 95.834587 
L 75.392491 80.191751 
L 75.659477 98.342115 
L 75.926462 81.827582 
L 76.193448 92.761451 
L 76.460433 76.932749 
L 76.994405 86.568389 
L 77.26139 88.223587 
L 77.528376 85.339051 
L 78.062347 49.001552 
L 78.329333 34.114853 
L 78.596319 33.765956 
L 78.863304 34.822893 
L 79.13029 36.451701 
L 79.397276 25.366023 
L 79.664261 94.212097 
L 79.931247 77.83418 
L 80.198233 93.766882 
L 80.465218 76.069907 
L 80.999189 95.832669 
L 81.266175 80.080156 
L 81.533161 82.664005 
L 81.800146 82.520702 
L 82.067132 79.029306 
L 82.868089 32.065347 
L 83.135075 28.689268 
L 83.40206 101.580305 
L 83.669046 86.360259 
L 83.936032 107.776454 
L 84.470003 74.934325 
L 85.27096 92.160997 
L 85.537945 75.51238 
L 85.804931 76.08882 
L 86.071917 70.299008 
L 86.872874 34.757661 
L 87.139859 39.286931 
L 87.406845 26.958841 
L 87.673831 87.190615 
L 87.940816 107.306736 
L 88.207802 89.436363 
L 88.474788 101.536542 
L 88.741773 83.726872 
L 89.008759 91.476998 
L 89.275744 74.37126 
L 89.54273 78.189263 
L 89.809716 79.939267 
L 90.076701 78.556057 
L 90.877658 36.371371 
L 91.144644 24.856239 
L 91.41163 80.719109 
L 91.678615 98.333428 
L 91.945601 81.228295 
L 92.212587 92.660524 
L 92.479572 76.037716 
L 92.746558 84.259802 
L 93.013544 88.211399 
L 93.280529 89.020871 
L 93.547515 86.345634 
L 94.615457 25.782127 
L 94.882443 87.492811 
L 95.149429 108.366374 
L 95.6834 74.119658 
L 96.217371 92.644569 
L 96.484357 76.741861 
L 96.751343 81.330714 
L 97.018328 81.6121 
L 97.285314 78.03471 
L 98.353256 24.007035 
L 98.620242 83.289591 
L 98.887228 102.529837 
L 99.154213 85.050919 
L 99.421199 96.556196 
L 99.688185 79.219556 
L 99.95517 85.866363 
L 100.222156 85.869537 
L 100.489142 82.999025 
L 100.756127 76.500745 
L 101.023113 58.869154 
L 101.82407 27.87289 
L 102.091055 88.267443 
L 102.358041 108.199681 
L 102.892012 74.181902 
L 103.158998 86.971116 
L 103.425984 94.099041 
L 103.692969 76.809152 
L 103.959955 80.661163 
L 104.226941 79.984604 
L 104.493926 77.145498 
L 105.027898 46.213387 
L 105.294883 34.563022 
L 105.561869 36.995574 
L 105.828855 25.082357 
L 106.09584 82.914202 
L 106.362826 101.610101 
L 106.629811 84.657613 
L 106.896797 95.914663 
L 107.163783 79.514321 
L 107.430768 87.894339 
L 107.697754 73.857813 
L 107.96474 77.839737 
L 108.231725 78.620383 
L 108.498711 77.412257 
L 109.299668 35.678386 
L 109.566654 24.022615 
L 109.833639 73.791646 
L 110.100625 92.5872 
L 110.367611 76.753902 
L 110.634596 89.685569 
L 110.901582 74.907502 
L 111.168567 86.373235 
L 111.435553 89.738935 
L 111.702539 90.031941 
L 111.969524 88.18396 
L 113.037467 24.546468 
L 113.304453 79.187815 
L 113.571438 99.720622 
L 113.838424 84.04761 
L 114.10541 97.753987 
L 114.372395 82.494826 
L 114.639381 93.267468 
L 114.906367 75.672138 
L 115.440338 82.017206 
L 115.707323 80.512243 
L 116.50828 29.403953 
L 116.775266 93.44406 
L 117.042252 77.099424 
L 117.309237 96.870033 
L 117.576223 81.556521 
L 117.843209 97.101939 
L 118.110194 81.563426 
L 118.37718 88.793992 
L 118.644166 91.10985 
L 118.911151 90.289273 
L 119.178137 84.651519 
L 119.979094 30.470886 
L 120.246079 106.198123 
L 120.780051 74.491911 
L 121.047036 93.058934 
L 121.314022 75.936128 
L 121.847993 95.814041 
L 122.114979 78.590665 
L 122.381965 77.420562 
L 122.64895 77.322484 
L 122.915936 76.443373 
L 123.449907 47.51257 
L 123.983878 31.064151 
L 124.250864 86.984506 
L 124.51785 106.382033 
L 124.784835 88.93288 
L 125.051821 101.981706 
L 125.318807 85.685181 
L 125.585792 95.671818 
L 125.852778 79.59768 
L 126.386749 83.239098 
L 126.653735 82.817513 
L 127.454692 37.922141 
L 127.721678 26.917558 
L 127.988663 81.704153 
L 128.255649 99.783816 
L 128.522634 82.838063 
L 128.78962 96.075319 
L 129.056606 79.894454 
L 129.323591 88.276256 
L 129.590577 91.549993 
L 129.857563 74.459708 
L 130.124548 77.020274 
L 130.391534 74.988682 
L 131.192491 22.289088 
L 131.459477 90.77103 
L 131.726462 74.85277 
L 131.993448 93.271835 
L 132.260433 77.249994 
L 132.527419 89.877666 
L 132.794405 74.457911 
L 133.06139 77.940162 
L 133.328376 79.483656 
L 133.595362 88.703806 
L 133.862347 87.724029 
L 134.663304 30.963964 
L 134.93029 102.764872 
L 135.197276 86.577929 
L 135.464261 107.033783 
L 135.998233 75.32192 
L 136.532204 97.141888 
L 136.799189 80.480615 
L 137.333161 87.947129 
L 137.600146 198.618368 
L 140.270003 84.023734 
L 140.536989 145.339868 
L 141.604931 82.214318 
L 141.871917 116.34098 
L 142.405888 78.554895 
L 142.672874 103.972626 
L 143.206845 73.81083 
L 143.473831 88.455582 
L 143.740816 94.366808 
L 144.007802 75.918286 
L 144.274788 81.463055 
L 144.541773 92.318735 
L 144.808759 70.849257 
L 145.075744 40.23384 
L 145.34273 37.399804 
L 145.609716 24.436111 
L 145.876701 106.449153 
L 146.944644 74.024748 
L 147.21163 151.666798 
L 148.279572 101.806216 
L 148.813544 81.3507 
L 149.080529 125.199941 
L 150.148472 74.403225 
L 150.415457 95.573085 
L 150.682443 79.06861 
L 150.949429 96.194024 
L 151.216414 78.996606 
L 151.4834 81.405584 
L 151.750386 75.41356 
L 152.017371 85.018443 
L 152.551343 33.847378 
L 152.818328 35.604846 
L 153.085314 28.200468 
L 153.3523 106.154204 
L 153.619285 114.807582 
L 153.886271 111.067624 
L 154.420242 94.095086 
L 154.687228 84.211463 
L 154.954213 100.805507 
L 155.221199 86.430858 
L 155.488185 93.766336 
L 155.75517 77.02475 
L 156.022156 76.576815 
L 156.289142 78.83242 
L 156.556127 76.234539 
L 157.090099 52.383385 
L 157.891055 32.786465 
L 158.158041 26.672825 
L 158.425027 88.049355 
L 158.692012 73.956197 
L 158.958998 89.273585 
L 159.225984 76.584045 
L 159.492969 83.996142 
L 159.759955 73.695576 
L 160.026941 75.525433 
L 160.293926 78.90186 
L 160.560912 65.95702 
L 160.827898 60.432428 
L 161.361869 21.547695 
L 161.628855 93.590599 
L 161.89584 98.90452 
L 162.162826 95.441137 
L 162.429811 77.137295 
L 162.696797 82.642378 
L 162.963783 95.041048 
L 163.230768 75.407438 
L 163.497754 89.959207 
L 164.031725 76.687423 
L 164.832682 17.28 
L 165.099668 87.862013 
L 165.366654 90.820567 
L 165.633639 78.466692 
L 165.900625 95.257483 
L 166.167611 79.275072 
L 166.434596 86.405727 
L 166.701582 86.05557 
L 166.968567 82.167267 
L 167.235553 71.321296 
L 167.502539 66.752654 
L 167.769524 97.446615 
L 168.303496 85.535639 
L 168.837467 73.754733 
L 169.104453 129.546199 
L 170.706367 76.102323 
L 170.973352 108.084188 
L 171.240338 100.546717 
L 171.507323 83.678074 
L 171.774309 93.836187 
L 172.041295 75.297175 
L 172.30828 75.656273 
L 172.575266 92.592653 
L 172.842252 75.520022 
L 173.109237 86.420028 
L 173.376223 75.461779 
L 173.643209 93.70466 
L 173.910194 74.163449 
L 174.17718 80.851576 
L 174.444166 67.091608 
L 174.711151 63.295334 
L 174.978137 45.16607 
L 175.245122 41.164911 
L 175.512108 24.004892 
L 175.779094 78.61092 
L 176.046079 77.138097 
L 176.313065 96.675792 
L 176.580051 74.479939 
L 176.847036 86.13455 
L 177.114022 91.244031 
L 177.381008 75.969646 
L 177.647993 83.302903 
L 177.914979 63.04957 
L 178.181965 68.099055 
L 178.715936 30.854311 
L 178.982922 104.958933 
L 179.249907 102.127391 
L 179.516893 96.050907 
L 179.783878 84.606288 
L 180.050864 100.992559 
L 180.31785 84.105058 
L 180.584835 94.446252 
L 180.851821 94.907278 
L 181.118807 94.425308 
L 181.385792 89.130044 
L 181.919764 47.581799 
L 182.453735 24.996418 
L 182.720721 102.222036 
L 183.254692 75.684946 
L 183.521678 90.251556 
L 183.788663 74.434229 
L 184.322634 90.566005 
L 184.58962 75.116209 
L 184.856606 75.058443 
L 185.123591 68.430824 
L 185.390577 54.865338 
L 185.657563 94.678425 
L 185.924548 109.042147 
L 186.725505 115.263643 
L 186.992491 118.122079 
L 189.929333 133.492336 
L 190.196319 136.599644 
L 190.463304 136.230101 
L 190.997276 138.861894 
L 191.531247 141.388883 
L 192.065218 143.765189 
L 192.599189 145.992837 
L 192.866175 145.709955 
L 193.133161 147.991111 
L 193.400146 149.020552 
L 193.667132 147.266057 
L 193.934118 150.583153 
L 194.468089 152.045244 
L 194.735075 148.989815 
L 195.00206 153.075078 
L 195.269046 153.507715 
L 195.536032 149.73146 
L 195.803017 153.956216 
L 196.070003 154.184245 
L 196.336989 154.263981 
L 196.603974 148.913333 
L 196.87096 154.079044 
L 197.404931 153.738445 
L 197.671917 150.907739 
L 197.938902 153.096663 
L 198.205888 152.707182 
L 198.472874 150.48125 
L 198.739859 151.752564 
L 199.273831 151.101252 
L 199.540816 149.750258 
L 199.807802 150.335734 
L 200.341773 149.635742 
L 200.608759 148.828736 
L 200.875744 147.263202 
L 201.14273 148.685155 
L 201.409716 148.384888 
L 201.676701 147.826269 
L 201.943687 147.838374 
L 203.278615 146.696082 
L 203.812587 146.314225 
L 204.079572 145.33808 
L 204.346558 145.962082 
L 206.215457 144.805754 
L 206.749429 144.978497 
L 207.016414 144.613752 
L 208.618328 144.037868 
L 208.885314 144.106599 
L 209.419285 143.804704 
L 209.686271 144.815258 
L 209.953256 143.650554 
L 210.754213 143.436668 
L 212.356127 80.007441 
L 212.623113 148.106394 
L 213.691055 93.743249 
L 213.958041 83.907551 
L 214.225027 110.114745 
L 215.025984 108.486941 
L 215.292969 108.047153 
L 215.559955 111.372431 
L 215.826941 107.242519 
L 216.894883 105.887417 
L 217.161869 105.596619 
L 217.428855 106.210668 
L 217.69584 105.069345 
L 217.962826 108.264591 
L 218.229811 104.612798 
L 219.297754 103.905345 
L 219.56474 103.767712 
L 219.831725 104.312521 
L 220.098711 103.538797 
L 221.433639 103.148195 
L 221.700625 105.688747 
L 221.967611 103.062869 
L 223.035553 103.002885 
L 223.302539 103.515367 
L 223.569524 103.014522 
L 224.370481 103.066103 
L 224.637467 104.080711 
L 224.904453 103.119734 
L 225.972395 103.255867 
L 226.239381 103.458333 
L 226.506367 103.332782 
L 227.040338 103.413202 
L 227.307323 103.986179 
L 227.574309 103.498448 
L 229.710194 103.80379 
L 229.97718 104.578444 
L 230.244166 103.870919 
L 232.380051 104.120741 
L 232.647036 104.63062 
L 232.914022 104.165106 
L 239.588663 104.67972 
L 239.855649 105.788514 
L 240.122634 104.72064 
L 244.928376 104.984693 
L 245.729333 75.005555 
L 245.996319 154.867827 
L 246.263304 140.430125 
L 246.53029 105.17065 
L 247.331247 105.311992 
L 247.598233 105.333091 
L 247.865218 95.015627 
L 248.132204 105.384882 
L 248.933161 75.385777 
L 249.200146 155.246727 
L 250.001103 116.944015 
L 250.80206 86.026855 
L 251.069046 106.731161 
L 251.870003 76.499093 
L 252.136989 143.589523 
L 252.403974 131.331133 
L 252.937945 115.710052 
L 253.738902 88.032017 
L 254.005888 108.022408 
L 254.539859 108.015812 
L 254.806845 108.838312 
L 255.073831 107.924576 
L 256.94273 107.383259 
L 259.612587 106.452561 
L 260.146558 86.176458 
L 260.413544 107.209187 
L 260.680529 106.197595 
L 263.350386 105.505835 
L 264.9523 105.243956 
L 265.486271 105.169013 
L 265.753256 105.135122 
L 266.020242 106.034172 
L 266.287228 105.077066 
L 269.491055 104.846548 
L 270.825984 104.877831 
L 271.092969 105.365413 
L 271.359955 104.854699 
L 274.296797 104.85482 
L 275.36474 104.882428 
L 275.631725 105.663577 
L 275.898711 104.893937 
L 276.699668 104.830393 
L 276.966654 104.672259 
L 277.233639 103.924135 
L 277.500625 104.721262 
L 277.767611 104.979523 
L 278.301582 105.016788 
L 279.903496 104.971065 
L 280.170481 104.988167 
L 280.437467 105.710763 
L 280.704453 105.039213 
L 281.772395 105.227311 
L 282.039381 105.149865 
L 283.641295 105.317426 
L 284.709237 105.410648 
L 284.976223 106.08205 
L 285.243209 105.496206 
L 289.247993 105.811267 
L 289.514979 106.414766 
L 289.781965 105.85952 
L 290.849907 105.951576 
L 291.116893 106.132007 
L 291.383878 105.997515 
L 293.252778 106.15347 
L 293.519764 106.693724 
L 293.786749 106.203535 
L 296.18962 106.411879 
L 296.456606 106.60643 
L 296.723591 106.461228 
L 296.990577 106.4854 
L 297.257563 106.96457 
L 297.524548 106.540548 
L 300.194405 106.807594 
L 300.46139 107.239119 
L 300.728376 106.868509 
L 301.796319 106.966243 
L 302.063304 107.159366 
L 302.33029 107.017588 
L 303.398233 107.120628 
L 303.665218 107.506824 
L 303.932204 107.170394 
L 306.60206 107.405573 
L 306.869046 107.686378 
L 307.670003 107.496891 
L 309.271917 107.625025 
L 309.538902 107.945862 
L 309.805888 107.668053 
L 311.674788 107.803479 
L 311.941773 108.128635 
L 312.208759 107.841629 
L 314.077658 107.966558 
L 314.344644 108.230696 
L 314.61163 107.997983 
L 316.213544 108.088426 
L 316.480529 108.330296 
L 316.747515 108.113436 
L 317.0145 108.23326 
L 317.548472 108.144842 
L 318.349429 108.161602 
L 318.616414 108.376182 
L 318.8834 108.172342 
L 320.485314 108.187582 
L 320.7523 108.384964 
L 321.019285 108.193452 
L 322.354213 108.300846 
L 322.621199 108.401212 
L 322.888185 108.228672 
L 324.223113 108.263158 
L 324.490099 108.412874 
L 324.757084 108.281293 
L 326.092012 108.30257 
L 326.358998 108.449533 
L 326.625984 108.282792 
L 327.960912 108.249587 
L 328.494883 107.976236 
L 329.028855 107.808878 
L 329.562826 107.623076 
L 329.829811 107.683715 
L 330.096797 107.56261 
L 331.431725 108.176612 
L 331.698711 108.007168 
L 332.499668 108.040752 
L 333.033639 108.026285 
L 333.300625 108.117596 
L 333.834596 107.995114 
L 334.635553 107.966728 
L 334.902539 108.070404 
L 335.43651 107.941334 
L 339.975266 107.876794 
L 340.242252 106.055558 
L 340.776223 93.315107 
L 341.043209 91.519466 
L 341.310194 91.986019 
L 341.57718 92.726959 
L 341.844166 94.319791 
L 342.378137 102.082417 
L 342.645122 102.109674 
L 342.912108 101.419677 
L 343.179094 97.61837 
L 343.446079 97.151422 
L 343.713065 95.80982 
L 343.980051 96.153652 
L 344.514022 100.11895 
L 345.047993 103.91689 
L 345.581965 105.494013 
L 346.382922 106.084652 
L 346.916893 106.401541 
L 347.183878 106.317125 
L 347.71785 106.563173 
L 348.251821 106.738256 
L 349.052778 106.69266 
L 349.319764 106.755148 
L 349.586749 106.558619 
L 350.120721 106.644029 
L 350.921678 106.677841 
L 351.455649 106.492763 
L 351.722634 106.348763 
L 352.256606 105.580661 
L 352.523591 105.293718 
L 352.790577 105.429648 
L 353.324548 105.474874 
L 354.926462 105.832856 
L 355.994405 105.95849 
L 356.528376 106.046265 
L 357.596319 106.24614 
L 358.931247 106.591211 
L 359.465218 106.738288 
L 359.732204 106.808784 
L 359.732204 106.808784 
" clip-path="url(#p70e0f21034)" style="fill: none; stroke: #1f77b4; stroke-width: 1.5; stroke-linecap: square"/>
   </g>
   <g id="line2d_14">
    <path d="M 55.368567 80.498025 
L 55.635553 94.336284 
L 55.902539 90.774955 
L 56.169524 95.042194 
L 56.43651 94.892234 
L 56.703496 83.790053 
L 56.970481 143.216488 
L 58.038424 92.134666 
L 58.30541 78.219576 
L 58.572395 105.732032 
L 58.839381 86.675623 
L 59.106367 105.752607 
L 59.373352 88.617522 
L 59.640338 98.536008 
L 59.907323 76.688828 
L 60.174309 85.71959 
L 60.441295 75.634308 
L 60.70828 132.707636 
L 61.776223 80.858817 
L 62.043209 112.154345 
L 62.57718 78.852994 
L 62.844166 97.292653 
L 63.111151 81.982361 
L 63.378137 94.817178 
L 63.645122 81.704484 
L 63.912108 86.683063 
L 64.179094 77.68736 
L 64.446079 137.737728 
L 65.514022 81.80389 
L 65.781008 112.399991 
L 66.314979 80.000748 
L 66.581965 95.43349 
L 66.84895 80.726001 
L 67.115936 90.990326 
L 67.382922 79.38868 
L 67.649907 81.774813 
L 67.916893 92.194235 
L 68.183878 81.848381 
L 68.450864 134.560053 
L 69.518807 82.281356 
L 69.785792 107.777474 
L 70.052778 89.833269 
L 70.319764 105.531676 
L 70.586749 86.568479 
L 70.853735 98.689288 
L 71.120721 84.85635 
L 71.387706 93.305847 
L 71.654692 75.52002 
L 71.921678 127.505474 
L 72.722634 83.86359 
L 72.98962 111.020955 
L 73.523591 78.480078 
L 73.790577 94.43708 
L 74.057563 77.616487 
L 74.324548 90.718752 
L 74.591534 74.051652 
L 74.85852 82.856438 
L 75.125505 140.198308 
L 76.193448 79.071868 
L 76.460433 109.320024 
L 76.994405 80.828823 
L 77.26139 101.16773 
L 77.528376 85.063933 
L 77.795362 93.242965 
L 78.062347 75.889782 
L 78.329333 83.71052 
L 78.596319 85.443901 
L 78.863304 88.757638 
L 79.13029 93.694589 
L 79.397276 85.510261 
L 79.664261 132.670841 
L 80.732204 77.423474 
L 80.999189 106.230454 
L 81.266175 88.203381 
L 81.533161 106.600444 
L 81.800146 85.563827 
L 82.067132 98.902685 
L 82.334118 78.610127 
L 82.601103 90.674115 
L 82.868089 74.366565 
L 83.135075 76.496625 
L 83.40206 126.687713 
L 84.203017 84.672962 
L 84.470003 127.23834 
L 85.27096 83.911536 
L 85.537945 108.623493 
L 86.071917 78.684186 
L 86.338902 98.236199 
L 86.872874 73.630685 
L 87.139859 101.78494 
L 87.406845 83.961491 
L 87.673831 130.257276 
L 88.741773 74.948634 
L 89.008759 107.204875 
L 89.54273 79.728902 
L 89.809716 101.856059 
L 90.076701 87.600547 
L 90.343687 102.774337 
L 90.610673 87.448086 
L 90.877658 100.210807 
L 91.144644 86.241582 
L 91.41163 110.257014 
L 91.945601 82.389264 
L 92.212587 117.951364 
L 93.013544 80.050265 
L 93.280529 107.817813 
L 93.547515 91.737568 
L 93.8145 101.949598 
L 94.081486 82.751994 
L 94.348472 98.462985 
L 94.615457 83.663858 
L 94.882443 113.845229 
L 95.416414 85.912708 
L 95.6834 119.606669 
L 96.217371 93.429046 
L 96.751343 74.723009 
L 97.018328 105.467851 
L 97.285314 90.369757 
L 97.5523 104.842746 
L 98.086271 74.83047 
L 98.353256 92.650628 
L 98.620242 120.796184 
L 99.421199 83.714036 
L 99.688185 120.336718 
L 100.489142 78.642431 
L 100.756127 102.626167 
L 101.023113 86.250346 
L 101.290099 95.198962 
L 101.557084 74.031523 
L 101.82407 74.168472 
L 102.091055 115.878894 
L 102.892012 79.763738 
L 103.158998 114.541694 
L 103.692969 86.392183 
L 103.959955 108.305674 
L 104.493926 74.291477 
L 105.027898 95.331292 
L 105.294883 80.375874 
L 105.561869 83.923828 
L 106.09584 131.672039 
L 107.163783 76.787118 
L 107.430768 107.111627 
L 107.96474 74.068883 
L 108.231725 90.41479 
L 108.498711 75.042927 
L 108.765697 96.784282 
L 109.032682 83.562187 
L 109.299668 97.877386 
L 109.566654 79.723083 
L 109.833639 103.592761 
L 110.367611 79.031472 
L 110.634596 114.086896 
L 111.435553 74.494363 
L 111.702539 94.54553 
L 111.969524 79.067905 
L 112.23651 92.869303 
L 112.503496 75.997261 
L 112.770481 96.275488 
L 113.037467 84.790454 
L 113.304453 102.120686 
L 113.838424 78.710757 
L 114.10541 120.371429 
L 114.906367 80.680605 
L 115.173352 107.797727 
L 115.707323 78.840286 
L 115.974309 105.228005 
L 116.50828 82.109089 
L 116.775266 138.836232 
L 117.843209 83.393445 
L 118.110194 118.221074 
L 118.644166 80.97586 
L 118.911151 101.279652 
L 119.178137 82.697218 
L 119.445122 94.912989 
L 119.712108 76.569936 
L 119.979094 83.240633 
L 120.246079 144.967892 
L 121.314022 83.160514 
L 121.581008 114.459269 
L 122.114979 79.92577 
L 122.381965 101.588464 
L 122.64895 84.675853 
L 122.915936 101.388853 
L 123.182922 86.755215 
L 123.449907 96.646751 
L 123.716893 80.716982 
L 123.983878 91.599882 
L 124.250864 131.90104 
L 125.318807 74.976133 
L 125.585792 106.983111 
L 126.119764 79.247455 
L 126.386749 98.60219 
L 126.653735 84.456908 
L 126.920721 98.382629 
L 127.187706 82.063948 
L 127.454692 90.294748 
L 127.721678 73.876673 
L 127.988663 139.122257 
L 129.056606 81.049511 
L 129.323591 111.234247 
L 129.857563 81.439527 
L 130.124548 99.305868 
L 130.391534 82.752776 
L 130.65852 92.574007 
L 130.925505 76.406344 
L 131.192491 82.402723 
L 131.459477 141.418 
L 132.527419 85.747234 
L 132.794405 119.149468 
L 133.595362 76.540186 
L 133.862347 96.811194 
L 134.129333 81.17262 
L 134.396319 97.599217 
L 134.93029 78.321636 
L 135.197276 140.172137 
L 136.265218 85.206968 
L 136.532204 124.114072 
L 137.333161 79.813764 
L 137.600146 99.396644 
L 138.668089 75.169508 
L 138.935075 218.88 
L 141.871917 91.482783 
L 142.138902 80.7026 
L 142.405888 143.295832 
L 143.473831 86.084419 
L 143.740816 128.665802 
L 144.541773 80.624221 
L 144.808759 104.233571 
L 145.075744 86.857151 
L 145.34273 101.586953 
L 145.609716 84.425938 
L 145.876701 100.025361 
L 146.944644 76.08485 
L 147.21163 214.597123 
L 149.881486 101.468685 
L 150.415457 80.199242 
L 150.682443 138.002143 
L 151.750386 84.173735 
L 152.017371 112.480904 
L 152.551343 84.520014 
L 152.818328 84.971129 
L 153.085314 107.653854 
L 153.3523 119.593257 
L 154.420242 76.773493 
L 154.687228 128.781406 
L 155.75517 75.556766 
L 156.022156 107.501517 
L 156.556127 81.340537 
L 156.823113 101.910646 
L 157.090099 85.466932 
L 157.357084 100.730641 
L 157.62407 77.035136 
L 157.891055 80.239594 
L 158.158041 90.304124 
L 158.425027 115.45009 
L 159.225984 76.170078 
L 159.492969 103.879408 
L 160.026941 73.930081 
L 160.560912 99.075859 
L 160.827898 79.977628 
L 161.094883 83.043485 
L 161.361869 87.560404 
L 161.628855 130.64507 
L 162.429811 84.327514 
L 162.696797 113.538656 
L 163.230768 81.648497 
L 163.497754 97.314873 
L 163.76474 80.7421 
L 164.298711 96.962954 
L 164.565697 77.336232 
L 164.832682 85.018747 
L 165.099668 133.049788 
L 166.167611 77.496065 
L 166.434596 108.052823 
L 166.968567 77.333973 
L 167.235553 94.885822 
L 167.502539 78.261277 
L 167.769524 87.338733 
L 168.303496 75.252967 
L 168.570481 212.357883 
L 171.240338 97.238648 
L 171.774309 76.024501 
L 172.041295 132.706072 
L 173.109237 76.545126 
L 173.376223 107.628179 
L 173.910194 77.146989 
L 174.17718 99.479098 
L 174.444166 83.894799 
L 174.711151 98.342747 
L 174.978137 79.545726 
L 175.245122 84.301138 
L 175.512108 85.504987 
L 175.779094 132.265248 
L 176.847036 80.016167 
L 177.114022 112.866683 
L 177.647993 84.389761 
L 177.914979 105.617737 
L 178.44895 75.304123 
L 178.715936 87.933873 
L 178.982922 88.263 
L 179.249907 77.766863 
L 179.516893 136.719501 
L 180.584835 83.328974 
L 180.851821 117.747454 
L 181.652778 76.295572 
L 181.919764 97.884515 
L 182.186749 82.915909 
L 182.453735 96.874027 
L 182.987706 78.509699 
L 183.254692 133.030326 
L 184.322634 79.936687 
L 184.58962 111.116978 
L 185.123591 82.666128 
L 185.657563 117.282547 
L 185.924548 99.002083 
L 187.259477 98.839082 
L 188.327419 98.753194 
L 189.395362 98.640923 
L 195.803017 98.091145 
L 205.681486 97.5826 
L 210.754213 97.337864 
L 211.55517 79.165424 
L 211.822156 201.470522 
L 214.225027 96.804919 
L 223.569524 96.445939 
L 235.049907 96.254236 
L 244.928376 96.26227 
L 245.729333 78.170173 
L 245.996319 201.544293 
L 246.263304 189.809031 
L 246.53029 96.281719 
L 247.598233 96.288118 
L 247.865218 90.23963 
L 248.132204 96.291695 
L 248.933161 78.196354 
L 249.200146 201.546701 
L 250.80206 133.178188 
L 251.069046 96.389558 
L 251.870003 78.285075 
L 252.136989 201.995588 
L 253.738902 133.869635 
L 254.005888 96.456541 
L 259.612587 96.430657 
L 260.146558 84.32805 
L 260.413544 96.421037 
L 267.622156 96.369585 
L 276.699668 96.179633 
L 298.325505 95.596818 
L 311.407802 95.033083 
L 326.092012 94.243601 
L 327.960912 94.11597 
L 329.562826 94.03356 
L 331.698711 93.870032 
L 332.766654 93.830213 
L 346.916893 92.83249 
L 350.654692 92.556302 
L 351.722634 92.486949 
L 359.465218 91.949329 
L 359.732204 91.931007 
L 359.732204 91.931007 
" clip-path="url(#p70e0f21034)" style="fill: none; stroke: #ff7f0e; stroke-width: 1.5; stroke-linecap: square"/>
   </g>
   <g id="patch_3">
    <path d="M 40.150386 228.96 
L 40.150386 7.2 
" style="fill: none; stroke: #000000; stroke-width: 0.8; stroke-linejoin: miter; stroke-linecap: square"/>
   </g>
   <g id="patch_4">
    <path d="M 374.950386 228.96 
L 374.950386 7.2 
" style="fill: none; stroke: #000000; stroke-width: 0.8; stroke-linejoin: miter; stroke-linecap: square"/>
   </g>
   <g id="patch_5">
    <path d="M 40.150386 228.96 
L 374.950386 228.96 
" style="fill: none; stroke: #000000; stroke-width: 0.8; stroke-linejoin: miter; stroke-linecap: square"/>
   </g>
   <g id="patch_6">
    <path d="M 40.150386 7.2 
L 374.950386 7.2 
" style="fill: none; stroke: #000000; stroke-width: 0.8; stroke-linejoin: miter; stroke-linecap: square"/>
   </g>
   <g id="legend_1">
    <g id="patch_7">
     <path d="M 286.765201 43.640613 
L 367.950386 43.640613 
Q 369.950386 43.640613 369.950386 41.640613 
L 369.950386 14.2 
Q 369.950386 12.2 367.950386 12.2 
L 286.765201 12.2 
Q 284.765201 12.2 284.765201 14.2 
L 284.765201 41.640613 
Q 284.765201 43.640613 286.765201 43.640613 
z
" style="fill: #ffffff; opacity: 0.8; stroke: #cccccc; stroke-linejoin: miter"/>
    </g>
    <g id="line2d_15">
     <path d="M 288.765201 19.79832 
L 298.765201 19.79832 
L 308.765201 19.79832 
" style="fill: none; stroke: #1f77b4; stroke-width: 1.5; stroke-linecap: square"/>
    </g>
    <g id="text_15">
     <!-- LSRes -->
     <g transform="translate(316.765201 23.29832) scale(0.1 -0.1)">
      <defs>
       <path id="NimbusSanL-Regu-52" d="M 1190 2035 
L 2726 2035 
C 3258 2035 3494 1775 3494 1191 
L 3488 770 
C 3488 478 3539 192 3622 0 
L 4346 0 
L 4346 147 
C 4122 303 4077 471 4064 1101 
C 4058 1879 3936 2111 3430 2329 
C 3955 2585 4166 2907 4166 3432 
C 4166 4230 3661 4672 2746 4672 
L 595 4672 
L 595 0 
L 1190 0 
L 1190 2035 
z
M 1190 2560 
L 1190 4147 
L 2630 4147 
C 2963 4147 3155 4096 3302 3970 
C 3462 3837 3546 3628 3546 3350 
C 3546 2806 3264 2560 2630 2560 
L 1190 2560 
z
" transform="scale(0.015625)"/>
      </defs>
      <use xlink:href="#NimbusSanL-Regu-4c" transform="scale(0.996264)"/>
      <use xlink:href="#NimbusSanL-Regu-53" transform="translate(55.391677 0) scale(0.996264)"/>
      <use xlink:href="#NimbusSanL-Regu-52" transform="translate(121.841708 0) scale(0.996264)"/>
      <use xlink:href="#NimbusSanL-Regu-65" transform="translate(193.771693 0) scale(0.996264)"/>
      <use xlink:href="#NimbusSanL-Regu-73" transform="translate(249.16337 0) scale(0.996264)"/>
     </g>
    </g>
    <g id="line2d_16">
     <path d="M 288.765201 34.018627 
L 298.765201 34.018627 
L 308.765201 34.018627 
" style="fill: none; stroke: #ff7f0e; stroke-width: 1.5; stroke-linecap: square"/>
    </g>
    <g id="text_16">
     <!-- LSResTurb -->
     <g transform="translate(316.765201 37.518627) scale(0.1 -0.1)">
      <defs>
       <path id="NimbusSanL-Regu-54" d="M 2266 4147 
L 3795 4147 
L 3795 4672 
L 134 4672 
L 134 4147 
L 1670 4147 
L 1670 0 
L 2266 0 
L 2266 4147 
z
" transform="scale(0.015625)"/>
       <path id="NimbusSanL-Regu-62" d="M 346 4672 
L 346 19 
L 826 19 
L 826 447 
C 1082 57 1421 -128 1888 -128 
C 2771 -128 3347 594 3347 1702 
C 3347 2784 2797 3456 1914 3456 
C 1453 3456 1126 3283 877 2905 
L 877 4672 
L 346 4672 
z
M 1811 2956 
C 2406 2956 2790 2440 2790 1644 
C 2790 887 2394 371 1811 371 
C 1248 371 877 880 877 1663 
C 877 2447 1248 2956 1811 2956 
z
" transform="scale(0.015625)"/>
      </defs>
      <use xlink:href="#NimbusSanL-Regu-4c" transform="scale(0.996264)"/>
      <use xlink:href="#NimbusSanL-Regu-53" transform="translate(55.391677 0) scale(0.996264)"/>
      <use xlink:href="#NimbusSanL-Regu-52" transform="translate(121.841708 0) scale(0.996264)"/>
      <use xlink:href="#NimbusSanL-Regu-65" transform="translate(193.771693 0) scale(0.996264)"/>
      <use xlink:href="#NimbusSanL-Regu-73" transform="translate(249.16337 0) scale(0.996264)"/>
      <use xlink:href="#NimbusSanL-Regu-54" transform="translate(298.97657 0) scale(0.996264)"/>
      <use xlink:href="#NimbusSanL-Regu-75" transform="translate(347.893519 0) scale(0.996264)"/>
      <use xlink:href="#NimbusSanL-Regu-72" transform="translate(403.285196 0) scale(0.996264)"/>
      <use xlink:href="#NimbusSanL-Regu-62" transform="translate(436.460426 0) scale(0.996264)"/>
     </g>
    </g>
   </g>
  </g>
 </g>
 <defs>
  <clipPath id="p70e0f21034">
   <rect x="40.150386" y="7.2" width="334.8" height="221.76"/>
  </clipPath>
 </defs>
</svg>
