<?xml version="1.0" encoding="utf-8" standalone="no"?>
<!DOCTYPE svg PUBLIC "-//W3C//DTD SVG 1.1//EN"
  "http://www.w3.org/Graphics/SVG/1.1/DTD/svg11.dtd">
<svg xmlns:xlink="http://www.w3.org/1999/xlink" width="382.150386pt" height="265.600613pt" viewBox="0 0 382.150386 265.600613" xmlns="http://www.w3.org/2000/svg" version="1.1">
 <metadata>
  <rdf:RDF xmlns:dc="http://purl.org/dc/elements/1.1/" xmlns:cc="http://creativecommons.org/ns#" xmlns:rdf="http://www.w3.org/1999/02/22-rdf-syntax-ns#">
   <cc:Work>
    <dc:type rdf:resource="http://purl.org/dc/dcmitype/StillImage"/>
    <dc:date>2025-07-17T20:41:56.794686</dc:date>
    <dc:format>image/svg+xml</dc:format>
    <dc:creator>
     <cc:Agent>
      <dc:title>Matplotlib v3.10.3, https://matplotlib.org/</dc:title>
     </cc:Agent>
    </dc:creator>
   </cc:Work>
  </rdf:RDF>
 </metadata>
 <defs>
  <style type="text/css">*{stroke-linejoin: round; stroke-linecap: butt}</style>
 </defs>
 <g id="figure_1">
  <g id="patch_1">
   <path d="M 0 265.600613 
L 382.150386 265.600613 
L 382.150386 0 
L 0 0 
z
" style="fill: #ffffff"/>
  </g>
  <g id="axes_1">
   <g id="patch_2">
    <path d="M 40.150386 228.96 
L 374.950386 228.96 
L 374.950386 7.2 
L 40.150386 7.2 
z
" style="fill: #ffffff"/>
   </g>
   <g id="matplotlib.axis_1">
    <g id="xtick_1">
     <g id="line2d_1">
      <defs>
       <path id="m571bdff4df" d="M 0 0 
L 0 3.5 
" style="stroke: #000000; stroke-width: 0.8"/>
      </defs>
      <g>
       <use xlink:href="#m571bdff4df" x="55.368567" y="228.96" style="stroke: #000000; stroke-width: 0.8"/>
      </g>
     </g>
     <g id="text_1">
      <!-- $\mathdefault{0}$ -->
      <g transform="translate(52.8779 243.05832) scale(0.1 -0.1)">
       <defs>
        <path id="CMR17-30" d="M 2688 2038 
C 2688 2430 2682 3099 2413 3613 
C 2176 4063 1798 4224 1466 4224 
C 1158 4224 768 4082 525 3620 
C 269 3137 243 2539 243 2038 
C 243 1671 250 1112 448 623 
C 723 -39 1216 -128 1466 -128 
C 1760 -128 2208 -7 2470 604 
C 2662 1048 2688 1568 2688 2038 
z
M 1466 -26 
C 1056 -26 813 328 723 816 
C 653 1196 653 1749 653 2109 
C 653 2604 653 3015 736 3407 
C 858 3954 1216 4121 1466 4121 
C 1728 4121 2067 3947 2189 3420 
C 2272 3054 2278 2623 2278 2109 
C 2278 1691 2278 1176 2202 797 
C 2067 96 1690 -26 1466 -26 
z
" transform="scale(0.015625)"/>
       </defs>
       <use xlink:href="#CMR17-30" transform="scale(0.996264)"/>
      </g>
     </g>
    </g>
    <g id="xtick_2">
     <g id="line2d_2">
      <g>
       <use xlink:href="#m571bdff4df" x="108.765697" y="228.96" style="stroke: #000000; stroke-width: 0.8"/>
      </g>
     </g>
     <g id="text_2">
      <!-- $\mathdefault{200}$ -->
      <g transform="translate(101.293694 243.05832) scale(0.1 -0.1)">
       <defs>
        <path id="CMR17-32" d="M 2669 990 
L 2554 990 
C 2490 537 2438 460 2413 422 
C 2381 371 1920 371 1830 371 
L 602 371 
C 832 620 1280 1073 1824 1596 
C 2214 1966 2669 2400 2669 3033 
C 2669 3788 2067 4224 1395 4224 
C 691 4224 262 3603 262 3027 
C 262 2777 448 2745 525 2745 
C 589 2745 781 2783 781 3007 
C 781 3206 614 3264 525 3264 
C 486 3264 448 3257 422 3244 
C 544 3788 915 4057 1306 4057 
C 1862 4057 2227 3616 2227 3033 
C 2227 2477 1901 1998 1536 1583 
L 262 147 
L 262 0 
L 2515 0 
L 2669 990 
z
" transform="scale(0.015625)"/>
       </defs>
       <use xlink:href="#CMR17-32" transform="scale(0.996264)"/>
       <use xlink:href="#CMR17-30" transform="translate(45.690477 0) scale(0.996264)"/>
       <use xlink:href="#CMR17-30" transform="translate(91.380954 0) scale(0.996264)"/>
      </g>
     </g>
    </g>
    <g id="xtick_3">
     <g id="line2d_3">
      <g>
       <use xlink:href="#m571bdff4df" x="162.162826" y="228.96" style="stroke: #000000; stroke-width: 0.8"/>
      </g>
     </g>
     <g id="text_3">
      <!-- $\mathdefault{400}$ -->
      <g transform="translate(154.690823 243.05832) scale(0.1 -0.1)">
       <defs>
        <path id="CMR17-34" d="M 2150 4147 
C 2150 4281 2144 4288 2029 4288 
L 128 1254 
L 128 1088 
L 1779 1088 
L 1779 460 
C 1779 230 1766 166 1318 166 
L 1197 166 
L 1197 0 
C 1402 12 1747 12 1965 12 
C 2182 12 2528 12 2733 0 
L 2733 166 
L 2611 166 
C 2163 166 2150 230 2150 460 
L 2150 1088 
L 2803 1088 
L 2803 1254 
L 2150 1254 
L 2150 4147 
z
M 1798 3723 
L 1798 1254 
L 256 1254 
L 1798 3723 
z
" transform="scale(0.015625)"/>
       </defs>
       <use xlink:href="#CMR17-34" transform="scale(0.996264)"/>
       <use xlink:href="#CMR17-30" transform="translate(45.690477 0) scale(0.996264)"/>
       <use xlink:href="#CMR17-30" transform="translate(91.380954 0) scale(0.996264)"/>
      </g>
     </g>
    </g>
    <g id="xtick_4">
     <g id="line2d_4">
      <g>
       <use xlink:href="#m571bdff4df" x="215.559955" y="228.96" style="stroke: #000000; stroke-width: 0.8"/>
      </g>
     </g>
     <g id="text_4">
      <!-- $\mathdefault{600}$ -->
      <g transform="translate(208.087952 243.05832) scale(0.1 -0.1)">
       <defs>
        <path id="CMR17-36" d="M 678 2198 
C 678 3712 1395 4076 1811 4076 
C 1946 4076 2272 4049 2400 3782 
C 2298 3782 2106 3782 2106 3558 
C 2106 3385 2246 3328 2336 3328 
C 2394 3328 2566 3353 2566 3571 
C 2566 3987 2246 4224 1805 4224 
C 1043 4224 243 3411 243 2011 
C 243 257 966 -128 1478 -128 
C 2099 -128 2688 431 2688 1295 
C 2688 2101 2170 2688 1517 2688 
C 1126 2688 838 2430 678 1979 
L 678 2198 
z
M 1478 25 
C 691 25 691 1212 691 1450 
C 691 1914 909 2585 1504 2585 
C 1613 2585 1926 2585 2138 2140 
C 2253 1889 2253 1624 2253 1302 
C 2253 954 2253 696 2118 438 
C 1978 173 1773 25 1478 25 
z
" transform="scale(0.015625)"/>
       </defs>
       <use xlink:href="#CMR17-36" transform="scale(0.996264)"/>
       <use xlink:href="#CMR17-30" transform="translate(45.690477 0) scale(0.996264)"/>
       <use xlink:href="#CMR17-30" transform="translate(91.380954 0) scale(0.996264)"/>
      </g>
     </g>
    </g>
    <g id="xtick_5">
     <g id="line2d_5">
      <g>
       <use xlink:href="#m571bdff4df" x="268.957084" y="228.96" style="stroke: #000000; stroke-width: 0.8"/>
      </g>
     </g>
     <g id="text_5">
      <!-- $\mathdefault{800}$ -->
      <g transform="translate(261.485081 243.05832) scale(0.1 -0.1)">
       <defs>
        <path id="CMR17-38" d="M 1741 2289 
C 2144 2494 2554 2803 2554 3298 
C 2554 3884 1990 4224 1472 4224 
C 890 4224 378 3800 378 3215 
C 378 3054 416 2777 666 2533 
C 730 2469 998 2276 1171 2154 
C 883 2006 211 1652 211 945 
C 211 282 838 -128 1459 -128 
C 2144 -128 2720 366 2720 1022 
C 2720 1607 2330 1877 2074 2051 
L 1741 2289 
z
M 902 2855 
C 851 2887 595 3086 595 3388 
C 595 3781 998 4076 1459 4076 
C 1965 4076 2336 3716 2336 3298 
C 2336 2700 1670 2359 1638 2359 
C 1632 2359 1626 2359 1574 2398 
L 902 2855 
z
M 2080 1536 
C 2176 1466 2483 1253 2483 861 
C 2483 385 2010 25 1472 25 
C 890 25 448 443 448 951 
C 448 1459 838 1884 1280 2083 
L 2080 1536 
z
" transform="scale(0.015625)"/>
       </defs>
       <use xlink:href="#CMR17-38" transform="scale(0.996264)"/>
       <use xlink:href="#CMR17-30" transform="translate(45.690477 0) scale(0.996264)"/>
       <use xlink:href="#CMR17-30" transform="translate(91.380954 0) scale(0.996264)"/>
      </g>
     </g>
    </g>
    <g id="xtick_6">
     <g id="line2d_6">
      <g>
       <use xlink:href="#m571bdff4df" x="322.354213" y="228.96" style="stroke: #000000; stroke-width: 0.8"/>
      </g>
     </g>
     <g id="text_6">
      <!-- $\mathdefault{1000}$ -->
      <g transform="translate(312.391543 243.05832) scale(0.1 -0.1)">
       <defs>
        <path id="CMR17-31" d="M 1702 4083 
C 1702 4217 1696 4224 1606 4224 
C 1357 3927 979 3833 621 3820 
C 602 3820 570 3820 563 3808 
C 557 3795 557 3782 557 3648 
C 755 3648 1088 3686 1344 3839 
L 1344 467 
C 1344 243 1331 166 781 166 
L 589 166 
L 589 0 
C 896 6 1216 12 1523 12 
C 1830 12 2150 6 2458 0 
L 2458 166 
L 2266 166 
C 1715 166 1702 236 1702 467 
L 1702 4083 
z
" transform="scale(0.015625)"/>
       </defs>
       <use xlink:href="#CMR17-31" transform="scale(0.996264)"/>
       <use xlink:href="#CMR17-30" transform="translate(45.690477 0) scale(0.996264)"/>
       <use xlink:href="#CMR17-30" transform="translate(91.380954 0) scale(0.996264)"/>
       <use xlink:href="#CMR17-30" transform="translate(137.071431 0) scale(0.996264)"/>
      </g>
     </g>
    </g>
    <g id="text_7">
     <!-- Iteration -->
     <g transform="translate(189.603009 256.278627) scale(0.1 -0.1)">
      <defs>
       <path id="NimbusSanL-Regu-49" d="M 1242 4672 
L 640 4672 
L 640 0 
L 1242 0 
L 1242 4672 
z
" transform="scale(0.015625)"/>
       <path id="NimbusSanL-Regu-74" d="M 1626 3328 
L 1075 3328 
L 1075 4249 
L 544 4249 
L 544 3328 
L 90 3328 
L 90 2892 
L 544 2892 
L 544 402 
C 544 64 774 -128 1190 -128 
C 1318 -128 1446 -116 1626 -84 
L 1626 364 
C 1555 345 1472 339 1370 339 
C 1139 339 1075 402 1075 634 
L 1075 2892 
L 1626 2892 
L 1626 3328 
z
" transform="scale(0.015625)"/>
       <path id="NimbusSanL-Regu-65" d="M 3283 1484 
C 3283 1998 3245 2311 3149 2565 
C 2931 3123 2419 3456 1792 3456 
C 858 3456 256 2734 256 1619 
C 256 545 838 -128 1779 -128 
C 2547 -128 3078 307 3213 1018 
L 2675 1018 
C 2528 588 2227 364 1798 364 
C 1459 364 1171 514 992 787 
C 864 974 819 1161 813 1484 
L 3283 1484 
z
M 826 1920 
C 870 2552 1248 2963 1786 2963 
C 2310 2963 2714 2519 2714 1959 
C 2714 1946 2714 1933 2707 1920 
L 826 1920 
z
" transform="scale(0.015625)"/>
       <path id="NimbusSanL-Regu-72" d="M 442 3328 
L 442 0 
L 979 0 
L 979 1727 
C 979 2203 1101 2514 1357 2698 
C 1523 2819 1683 2857 2054 2863 
L 2054 3404 
C 1965 3449 1920 3456 1850 3456 
C 1504 3456 1242 3251 934 2750 
L 934 3328 
L 442 3328 
z
" transform="scale(0.015625)"/>
       <path id="NimbusSanL-Regu-61" d="M 3424 332 
C 3366 320 3341 320 3309 320 
C 3123 320 3021 415 3021 581 
L 3021 2542 
C 3021 3135 2586 3456 1760 3456 
C 1274 3456 870 3315 646 3065 
C 493 2893 429 2702 416 2370 
L 954 2370 
C 998 2778 1242 2963 1741 2963 
C 2221 2963 2490 2784 2490 2466 
L 2490 2326 
C 2490 2103 2355 2007 1933 1956 
C 1178 1861 1062 1835 858 1753 
C 467 1593 269 1294 269 861 
C 269 256 691 -128 1370 -128 
C 1792 -128 2131 19 2509 364 
C 2547 25 2714 -128 3059 -128 
C 3168 -128 3251 -116 3424 -71 
L 3424 332 
z
M 2490 1071 
C 2490 893 2438 785 2278 638 
C 2061 441 1798 339 1485 339 
C 1069 339 826 536 826 874 
C 826 1224 1062 1402 1632 1485 
C 2195 1562 2310 1587 2490 1670 
L 2490 1071 
z
" transform="scale(0.015625)"/>
       <path id="NimbusSanL-Regu-69" d="M 960 3358 
L 429 3358 
L 429 0 
L 960 0 
L 960 3358 
z
M 960 4672 
L 422 4672 
L 422 3999 
L 960 3999 
L 960 4672 
z
" transform="scale(0.015625)"/>
       <path id="NimbusSanL-Regu-6f" d="M 1741 3456 
C 800 3456 230 2784 230 1663 
C 230 543 794 -128 1747 -128 
C 2688 -128 3264 543 3264 1638 
C 3264 2791 2707 3456 1741 3456 
z
M 1747 2963 
C 2349 2963 2707 2472 2707 1644 
C 2707 861 2336 364 1747 364 
C 1152 364 787 855 787 1663 
C 787 2466 1152 2963 1747 2963 
z
" transform="scale(0.015625)"/>
       <path id="NimbusSanL-Regu-6e" d="M 448 3328 
L 448 0 
L 986 0 
L 986 1835 
C 986 2539 1344 2988 1894 2988 
C 2317 2988 2586 2732 2586 2328 
L 2586 0 
L 3117 0 
L 3117 2539 
C 3117 3097 2701 3456 2054 3456 
C 1555 3456 1235 3263 941 2796 
L 941 3328 
L 448 3328 
z
" transform="scale(0.015625)"/>
      </defs>
      <use xlink:href="#NimbusSanL-Regu-49" transform="scale(0.996264)"/>
      <use xlink:href="#NimbusSanL-Regu-74" transform="translate(27.69517 0) scale(0.996264)"/>
      <use xlink:href="#NimbusSanL-Regu-65" transform="translate(55.390339 0) scale(0.996264)"/>
      <use xlink:href="#NimbusSanL-Regu-72" transform="translate(110.782016 0) scale(0.996264)"/>
      <use xlink:href="#NimbusSanL-Regu-61" transform="translate(142.961149 0) scale(0.996264)"/>
      <use xlink:href="#NimbusSanL-Regu-74" transform="translate(198.352826 0) scale(0.996264)"/>
      <use xlink:href="#NimbusSanL-Regu-69" transform="translate(226.047996 0) scale(0.996264)"/>
      <use xlink:href="#NimbusSanL-Regu-6f" transform="translate(248.16478 0) scale(0.996264)"/>
      <use xlink:href="#NimbusSanL-Regu-6e" transform="translate(303.556457 0) scale(0.996264)"/>
     </g>
    </g>
   </g>
   <g id="matplotlib.axis_2">
    <g id="ytick_1">
     <g id="line2d_7">
      <defs>
       <path id="m6de568c320" d="M 0 0 
L -3.5 0 
" style="stroke: #000000; stroke-width: 0.8"/>
      </defs>
      <g>
       <use xlink:href="#m6de568c320" x="40.150386" y="208.972763" style="stroke: #000000; stroke-width: 0.8"/>
      </g>
     </g>
     <g id="text_8">
      <!-- $\mathdefault{−3}$ -->
      <g transform="translate(20.420307 212.521923) scale(0.1 -0.1)">
       <defs>
        <path id="CMSY10-0" d="M 4218 1472 
C 4326 1472 4442 1472 4442 1600 
C 4442 1728 4326 1728 4218 1728 
L 755 1728 
C 646 1728 531 1728 531 1600 
C 531 1472 646 1472 755 1472 
L 4218 1472 
z
" transform="scale(0.015625)"/>
        <path id="CMR17-33" d="M 1414 2176 
C 1984 2176 2234 1673 2234 1094 
C 2234 322 1824 25 1453 25 
C 1114 25 563 193 390 691 
C 422 678 454 678 486 678 
C 640 678 755 780 755 947 
C 755 1132 614 1216 486 1216 
C 378 1216 211 1164 211 927 
C 211 335 787 -128 1466 -128 
C 2176 -128 2720 432 2720 1087 
C 2720 1718 2208 2176 1600 2246 
C 2086 2347 2554 2776 2554 3353 
C 2554 3856 2048 4224 1472 4224 
C 890 4224 378 3862 378 3347 
C 378 3123 544 3084 627 3084 
C 762 3084 877 3167 877 3334 
C 877 3500 762 3584 627 3584 
C 602 3584 570 3584 544 3571 
C 730 3999 1235 4076 1459 4076 
C 1683 4076 2106 3966 2106 3347 
C 2106 3167 2080 2851 1862 2574 
C 1670 2329 1453 2316 1242 2297 
C 1210 2297 1062 2284 1037 2284 
C 992 2278 966 2272 966 2227 
C 966 2182 973 2176 1101 2176 
L 1414 2176 
z
" transform="scale(0.015625)"/>
       </defs>
       <use xlink:href="#CMSY10-0" transform="scale(0.996264)"/>
       <use xlink:href="#CMR17-33" transform="translate(77.487468 0) scale(0.996264)"/>
      </g>
     </g>
    </g>
    <g id="ytick_2">
     <g id="line2d_8">
      <g>
       <use xlink:href="#m6de568c320" x="40.150386" y="180.959907" style="stroke: #000000; stroke-width: 0.8"/>
      </g>
     </g>
     <g id="text_9">
      <!-- $\mathdefault{−2}$ -->
      <g transform="translate(20.420307 184.509067) scale(0.1 -0.1)">
       <use xlink:href="#CMSY10-0" transform="scale(0.996264)"/>
       <use xlink:href="#CMR17-32" transform="translate(77.487468 0) scale(0.996264)"/>
      </g>
     </g>
    </g>
    <g id="ytick_3">
     <g id="line2d_9">
      <g>
       <use xlink:href="#m6de568c320" x="40.150386" y="152.947051" style="stroke: #000000; stroke-width: 0.8"/>
      </g>
     </g>
     <g id="text_10">
      <!-- $\mathdefault{−1}$ -->
      <g transform="translate(20.420307 156.496211) scale(0.1 -0.1)">
       <use xlink:href="#CMSY10-0" transform="scale(0.996264)"/>
       <use xlink:href="#CMR17-31" transform="translate(77.487468 0) scale(0.996264)"/>
      </g>
     </g>
    </g>
    <g id="ytick_4">
     <g id="line2d_10">
      <g>
       <use xlink:href="#m6de568c320" x="40.150386" y="124.934195" style="stroke: #000000; stroke-width: 0.8"/>
      </g>
     </g>
     <g id="text_11">
      <!-- $\mathdefault{0}$ -->
      <g transform="translate(28.16905 128.483355) scale(0.1 -0.1)">
       <use xlink:href="#CMR17-30" transform="scale(0.996264)"/>
      </g>
     </g>
    </g>
    <g id="ytick_5">
     <g id="line2d_11">
      <g>
       <use xlink:href="#m6de568c320" x="40.150386" y="96.921339" style="stroke: #000000; stroke-width: 0.8"/>
      </g>
     </g>
     <g id="text_12">
      <!-- $\mathdefault{1}$ -->
      <g transform="translate(28.16905 100.470499) scale(0.1 -0.1)">
       <use xlink:href="#CMR17-31" transform="scale(0.996264)"/>
      </g>
     </g>
    </g>
    <g id="ytick_6">
     <g id="line2d_12">
      <g>
       <use xlink:href="#m6de568c320" x="40.150386" y="68.908483" style="stroke: #000000; stroke-width: 0.8"/>
      </g>
     </g>
     <g id="text_13">
      <!-- $\mathdefault{2}$ -->
      <g transform="translate(28.16905 72.457644) scale(0.1 -0.1)">
       <use xlink:href="#CMR17-32" transform="scale(0.996264)"/>
      </g>
     </g>
    </g>
    <g id="ytick_7">
     <g id="line2d_13">
      <g>
       <use xlink:href="#m6de568c320" x="40.150386" y="40.895628" style="stroke: #000000; stroke-width: 0.8"/>
      </g>
     </g>
     <g id="text_14">
      <!-- $\mathdefault{3}$ -->
      <g transform="translate(28.16905 44.444788) scale(0.1 -0.1)">
       <use xlink:href="#CMR17-33" transform="scale(0.996264)"/>
      </g>
     </g>
    </g>
    <g id="ytick_8">
     <g id="line2d_14">
      <g>
       <use xlink:href="#m6de568c320" x="40.150386" y="12.882772" style="stroke: #000000; stroke-width: 0.8"/>
      </g>
     </g>
     <g id="text_15">
      <!-- $\mathdefault{4}$ -->
      <g transform="translate(28.16905 16.431932) scale(0.1 -0.1)">
       <use xlink:href="#CMR17-34" transform="scale(0.996264)"/>
      </g>
     </g>
    </g>
    <g id="text_16">
     <!-- RMS residual - Blade_18 -->
     <g transform="translate(14.29832 172.470389) rotate(-90) scale(0.1 -0.1)">
      <defs>
       <path id="NimbusSanL-Regu-52" d="M 1190 2035 
L 2726 2035 
C 3258 2035 3494 1775 3494 1191 
L 3488 770 
C 3488 478 3539 192 3622 0 
L 4346 0 
L 4346 147 
C 4122 303 4077 471 4064 1101 
C 4058 1879 3936 2111 3430 2329 
C 3955 2585 4166 2907 4166 3432 
C 4166 4230 3661 4672 2746 4672 
L 595 4672 
L 595 0 
L 1190 0 
L 1190 2035 
z
M 1190 2560 
L 1190 4147 
L 2630 4147 
C 2963 4147 3155 4096 3302 3970 
C 3462 3837 3546 3628 3546 3350 
C 3546 2806 3264 2560 2630 2560 
L 1190 2560 
z
" transform="scale(0.015625)"/>
       <path id="NimbusSanL-Regu-4d" d="M 2995 0 
L 4307 3915 
L 4307 0 
L 4870 0 
L 4870 4672 
L 4045 4672 
L 2688 602 
L 1306 4672 
L 480 4672 
L 480 0 
L 1043 0 
L 1043 3915 
L 2368 0 
L 2995 0 
z
" transform="scale(0.015625)"/>
       <path id="NimbusSanL-Regu-53" d="M 3814 3295 
C 3808 4204 3181 4736 2106 4736 
C 1082 4736 448 4211 448 3372 
C 448 2806 749 2450 1363 2291 
L 2522 1986 
C 3110 1833 3379 1598 3379 1236 
C 3379 988 3245 733 3046 593 
C 2861 466 2566 396 2189 396 
C 1683 396 1338 517 1114 784 
C 941 988 864 1210 870 1496 
L 307 1496 
C 314 1070 397 790 582 536 
C 902 102 1440 -128 2150 -128 
C 2707 -128 3162 0 3462 230 
C 3776 479 3974 892 3974 1293 
C 3974 1865 3616 2284 2982 2456 
L 1811 2768 
C 1248 2920 1043 3098 1043 3454 
C 1043 3925 1459 4236 2086 4236 
C 2829 4236 3245 3899 3251 3295 
L 3814 3295 
z
" transform="scale(0.015625)"/>
       <path id="NimbusSanL-Regu-73" d="M 2803 2428 
C 2797 3084 2362 3456 1587 3456 
C 806 3456 301 3052 301 2434 
C 301 1912 570 1663 1363 1472 
L 1862 1351 
C 2234 1262 2381 1129 2381 887 
C 2381 574 2067 364 1600 364 
C 1312 364 1069 447 934 587 
C 851 683 813 778 781 1014 
L 218 1014 
C 243 243 678 -128 1555 -128 
C 2400 -128 2938 288 2938 931 
C 2938 1428 2656 1702 1990 1861 
L 1478 1982 
C 1043 2084 858 2224 858 2459 
C 858 2765 1133 2963 1568 2963 
C 1997 2963 2227 2778 2240 2428 
L 2803 2428 
z
" transform="scale(0.015625)"/>
       <path id="NimbusSanL-Regu-64" d="M 3168 4672 
L 2637 4672 
L 2637 2937 
C 2413 3276 2054 3456 1606 3456 
C 736 3456 166 2759 166 1695 
C 166 568 723 -128 1626 -128 
C 2086 -128 2406 44 2694 460 
L 2694 19 
L 3168 19 
L 3168 4672 
z
M 1696 2956 
C 2272 2956 2637 2447 2637 1651 
C 2637 880 2266 371 1702 371 
C 1114 371 723 887 723 1663 
C 723 2440 1114 2956 1696 2956 
z
" transform="scale(0.015625)"/>
       <path id="NimbusSanL-Regu-75" d="M 3085 19 
L 3085 3328 
L 2554 3328 
L 2554 1454 
C 2554 780 2195 339 1638 339 
C 1216 339 947 591 947 988 
L 947 3328 
L 416 3328 
L 416 780 
C 416 230 832 -128 1485 -128 
C 1978 -128 2291 44 2605 484 
L 2605 19 
L 3085 19 
z
" transform="scale(0.015625)"/>
       <path id="NimbusSanL-Regu-6c" d="M 973 4672 
L 435 4672 
L 435 0 
L 973 0 
L 973 4672 
z
" transform="scale(0.015625)"/>
       <path id="NimbusSanL-Regu-2d" d="M 1818 1996 
L 294 1996 
L 294 1536 
L 1818 1536 
L 1818 1996 
z
" transform="scale(0.015625)"/>
       <path id="NimbusSanL-Regu-42" d="M 506 0 
L 2611 0 
C 3053 0 3379 121 3629 390 
C 3859 632 3987 961 3987 1321 
C 3987 1878 3731 2214 3136 2444 
C 3558 2643 3782 2994 3782 3476 
C 3782 3821 3654 4127 3411 4345 
C 3168 4569 2848 4672 2400 4672 
L 506 4672 
L 506 0 
z
M 1101 2636 
L 1101 4147 
L 2253 4147 
C 2586 4147 2771 4101 2931 3977 
C 3098 3847 3187 3652 3187 3391 
C 3187 3138 3098 2936 2931 2806 
C 2771 2682 2586 2636 2253 2636 
L 1101 2636 
z
M 1101 524 
L 1101 2112 
L 2554 2112 
C 2842 2112 3034 2042 3174 1890 
C 3315 1745 3392 1542 3392 1315 
C 3392 1093 3315 891 3174 746 
C 3034 594 2842 524 2554 524 
L 1101 524 
z
" transform="scale(0.015625)"/>
       <path id="NimbusSanL-Regu-31" d="M 1658 3232 
L 1658 0 
L 2221 0 
L 2221 4537 
L 1850 4537 
C 1651 3840 1523 3744 653 3635 
L 653 3232 
L 1658 3232 
z
" transform="scale(0.015625)"/>
       <path id="NimbusSanL-Regu-38" d="M 2502 2399 
C 2970 2681 3123 2910 3123 3337 
C 3123 4044 2566 4544 1760 4544 
C 960 4544 397 4044 397 3337 
C 397 2917 550 2687 1011 2399 
C 493 2150 237 1774 237 1276 
C 237 447 864 -128 1760 -128 
C 2656 -128 3283 447 3283 1270 
C 3283 1774 3027 2150 2502 2399 
z
M 1760 4044 
C 2240 4044 2547 3764 2547 3324 
C 2547 2904 2234 2624 1760 2624 
C 1286 2624 973 2904 973 3331 
C 973 3764 1286 4044 1760 4044 
z
M 1760 2150 
C 2323 2150 2707 1793 2707 1264 
C 2707 728 2323 371 1747 371 
C 1197 371 813 734 813 1264 
C 813 1793 1197 2150 1760 2150 
z
" transform="scale(0.015625)"/>
      </defs>
      <use xlink:href="#NimbusSanL-Regu-52" transform="scale(0.996264)"/>
      <use xlink:href="#NimbusSanL-Regu-4d" transform="translate(71.929985 0) scale(0.996264)"/>
      <use xlink:href="#NimbusSanL-Regu-53" transform="translate(154.918415 0) scale(0.996264)"/>
      <use xlink:href="#NimbusSanL-Regu-72" transform="translate(249.063616 0) scale(0.996264)"/>
      <use xlink:href="#NimbusSanL-Regu-65" transform="translate(282.238846 0) scale(0.996264)"/>
      <use xlink:href="#NimbusSanL-Regu-73" transform="translate(337.630523 0) scale(0.996264)"/>
      <use xlink:href="#NimbusSanL-Regu-69" transform="translate(387.443723 0) scale(0.996264)"/>
      <use xlink:href="#NimbusSanL-Regu-64" transform="translate(409.560507 0) scale(0.996264)"/>
      <use xlink:href="#NimbusSanL-Regu-75" transform="translate(464.952184 0) scale(0.996264)"/>
      <use xlink:href="#NimbusSanL-Regu-61" transform="translate(520.343861 0) scale(0.996264)"/>
      <use xlink:href="#NimbusSanL-Regu-6c" transform="translate(575.735538 0) scale(0.996264)"/>
      <use xlink:href="#NimbusSanL-Regu-2d" transform="translate(625.547492 0) scale(0.996264)"/>
      <use xlink:href="#NimbusSanL-Regu-42" transform="translate(686.417892 0) scale(0.996264)"/>
      <use xlink:href="#NimbusSanL-Regu-6c" transform="translate(752.867923 0) scale(0.996264)"/>
      <use xlink:href="#NimbusSanL-Regu-61" transform="translate(774.984707 0) scale(0.996264)"/>
      <use xlink:href="#NimbusSanL-Regu-64" transform="translate(830.376384 0) scale(0.996264)"/>
      <use xlink:href="#NimbusSanL-Regu-65" transform="translate(885.768061 0) scale(0.996264)"/>
      <use xlink:href="#NimbusSanL-Regu-31" transform="translate(977.025303 0) scale(0.996264)"/>
      <use xlink:href="#NimbusSanL-Regu-38" transform="translate(1032.41698 0) scale(0.996264)"/>
      <path d="M 947.137079 0 
L 977.025303 0 
L 977.025303 0.3985 
L 947.137079 0.3985 
L 947.137079 0 
z
"/>
     </g>
    </g>
   </g>
   <g id="line2d_15">
    <path d="M 55.368567 196.530699 
L 55.902539 207.450136 
L 56.169524 212.75136 
L 56.43651 215.141841 
L 56.703496 215.160523 
L 58.038424 214.082897 
L 58.572395 212.829071 
L 59.106367 210.781712 
L 59.907323 207.289539 
L 60.174309 206.885711 
L 61.242252 209.545713 
L 62.043209 210.81808 
L 62.310194 210.759053 
L 62.57718 210.22435 
L 62.844166 209.405102 
L 63.912108 204.251832 
L 64.179094 204.492923 
L 65.514022 206.490096 
L 65.781008 206.637163 
L 66.047993 206.566594 
L 66.314979 206.167737 
L 67.115936 203.755611 
L 67.916893 201.468036 
L 68.183878 201.050942 
L 68.450864 201.80765 
L 69.518807 206.324001 
L 70.052778 206.983465 
L 70.319764 206.941031 
L 71.120721 206.168654 
L 71.654692 204.606045 
L 72.188663 206.082974 
L 72.98962 208.952411 
L 73.256606 209.285064 
L 73.523591 209.425971 
L 73.790577 209.430547 
L 74.057563 209.197262 
L 75.125505 207.12948 
L 75.659477 208.536862 
L 76.193448 210.157724 
L 76.460433 210.548885 
L 76.994405 210.862292 
L 77.26139 210.847382 
L 77.528376 210.529185 
L 78.062347 209.033208 
L 78.596319 207.206672 
L 78.863304 207.208001 
L 79.931247 209.70111 
L 80.465218 210.699576 
L 81.800146 212.154533 
L 82.067132 211.995264 
L 82.334118 211.393584 
L 83.40206 207.301715 
L 83.936032 208.228449 
L 85.003974 211.037785 
L 85.537945 211.679175 
L 85.804931 211.708596 
L 86.071917 211.358575 
L 86.605888 209.617858 
L 87.406845 206.253546 
L 87.673831 205.572951 
L 87.940816 206.268311 
L 88.741773 209.31529 
L 89.008759 209.78933 
L 89.54273 210.233994 
L 89.809716 210.348358 
L 90.076701 210.233692 
L 91.144644 209.072342 
L 91.41163 208.517432 
L 91.678615 208.862521 
L 92.212587 210.398532 
L 92.746558 211.776719 
L 93.547515 213.169667 
L 93.8145 213.207001 
L 94.081486 212.773087 
L 94.615457 211.023882 
L 94.882443 209.878127 
L 95.149429 209.92118 
L 95.416414 210.304937 
L 96.484357 212.933902 
L 97.018328 213.255104 
L 97.285314 212.999302 
L 97.819285 211.199187 
L 98.620242 207.747149 
L 98.887228 208.407736 
L 99.688185 211.171221 
L 99.95517 211.534656 
L 100.222156 211.696805 
L 100.489142 211.718928 
L 100.756127 211.428891 
L 101.290099 209.950348 
L 101.82407 208.579204 
L 102.091055 208.212345 
L 102.625027 209.754684 
L 103.425984 212.141934 
L 103.959955 213.105777 
L 104.226941 213.304313 
L 104.493926 213.169415 
L 104.760912 212.667002 
L 105.828855 209.658055 
L 106.09584 209.172432 
L 106.629811 210.635877 
L 107.163783 212.131766 
L 107.697754 212.720471 
L 107.96474 212.795101 
L 108.231725 212.665336 
L 109.032682 211.60942 
L 109.833639 211.24496 
L 110.634596 213.919769 
L 111.168567 215.457589 
L 111.702539 216.484748 
L 111.969524 216.666244 
L 112.23651 216.531724 
L 112.503496 216.109126 
L 113.304453 213.902267 
L 113.571438 214.093908 
L 113.838424 214.584241 
L 114.372395 216.701674 
L 114.639381 217.802981 
L 114.906367 218.35932 
L 115.173352 218.288543 
L 115.440338 217.743031 
L 116.241295 214.873738 
L 116.775266 212.995672 
L 117.843209 214.962314 
L 118.37718 215.678591 
L 118.911151 216.777614 
L 119.178137 216.922755 
L 119.445122 216.6181 
L 120.246079 214.593788 
L 120.780051 214.960856 
L 121.047036 215.379493 
L 121.581008 217.203757 
L 122.114979 218.88 
L 122.381965 218.813793 
L 122.915936 217.435867 
L 123.716893 214.316474 
L 124.250864 211.594943 
L 124.784835 212.90568 
L 125.852778 217.026224 
L 126.119764 217.408009 
L 126.386749 217.475647 
L 126.653735 217.095109 
L 127.454692 214.07647 
L 127.988663 211.491658 
L 128.522634 212.703752 
L 129.056606 214.822942 
L 129.590577 217.087531 
L 129.857563 217.460199 
L 130.124548 217.077004 
L 130.925505 214.32707 
L 131.459477 212.994001 
L 131.993448 213.916484 
L 133.328376 217.507987 
L 133.595362 217.524472 
L 133.862347 217.134749 
L 134.396319 215.571701 
L 134.93029 212.498557 
L 135.464261 213.139835 
L 135.998233 213.239399 
L 136.265218 213.027496 
L 136.532204 212.535582 
L 136.799189 211.6967 
L 137.066175 210.461231 
L 137.600146 206.747364 
L 138.401103 206.369026 
L 139.20206 205.751158 
L 140.270003 204.506051 
L 141.07096 203.484116 
L 141.604931 203.126328 
L 142.405888 202.980543 
L 142.672874 203.10076 
L 142.939859 202.932421 
L 143.206845 202.562195 
L 143.473831 201.92064 
L 144.541773 198.230815 
L 145.075744 197.326987 
L 145.34273 196.217715 
L 145.609716 193.78328 
L 145.876701 192.76583 
L 147.745601 194.195034 
L 149.881486 195.688232 
L 151.4834 196.169104 
L 151.750386 196.083949 
L 152.017371 195.812224 
L 152.551343 194.775232 
L 153.085314 193.243778 
L 153.3523 192.671814 
L 153.619285 192.828316 
L 154.420242 192.929896 
L 154.954213 193.197434 
L 155.75517 193.761484 
L 156.289142 193.888965 
L 156.556127 193.715205 
L 156.823113 193.227892 
L 157.090099 192.480148 
L 157.62407 189.941688 
L 158.158041 187.287958 
L 158.425027 186.294181 
L 158.692012 186.475213 
L 159.225984 186.459332 
L 159.759955 186.683112 
L 160.827898 186.504163 
L 161.094883 186.759197 
L 161.628855 186.229802 
L 161.89584 186.40275 
L 162.162826 186.082206 
L 162.429811 186.530755 
L 162.696797 186.629105 
L 162.963783 187.077309 
L 163.230768 187.032006 
L 163.497754 186.7093 
L 163.76474 186.996971 
L 164.031725 186.188493 
L 164.298711 186.354618 
L 164.565697 185.932372 
L 164.832682 185.124981 
L 165.099668 183.954813 
L 165.366654 184.534937 
L 165.633639 184.683861 
L 166.167611 184.625622 
L 166.434596 184.481787 
L 166.968567 183.831173 
L 167.235553 183.198236 
L 167.502539 183.062362 
L 167.769524 182.433869 
L 168.570481 182.944299 
L 169.371438 183.239029 
L 170.706367 183.399291 
L 171.240338 183.299844 
L 171.507323 182.855013 
L 172.30828 182.174609 
L 172.575266 182.349989 
L 172.842252 182.314791 
L 173.109237 182.550742 
L 173.376223 182.252828 
L 173.910194 182.76663 
L 174.17718 182.366086 
L 174.444166 182.622303 
L 174.978137 181.240805 
L 175.245122 181.294543 
L 175.512108 180.998018 
L 175.779094 181.035085 
L 176.046079 181.536152 
L 176.580051 181.796002 
L 177.114022 181.676901 
L 177.381008 180.363353 
L 177.647993 181.553827 
L 177.914979 181.427603 
L 178.181965 181.040521 
L 178.44895 180.916298 
L 178.715936 180.597661 
L 178.982922 179.906637 
L 179.516893 180.257751 
L 180.050864 180.385937 
L 180.31785 180.420311 
L 180.584835 180.334984 
L 180.851821 180.404477 
L 181.385792 180.15828 
L 181.919764 179.510354 
L 182.453735 178.14766 
L 182.720721 176.315902 
L 182.987706 176.32016 
L 183.254692 175.639608 
L 183.788663 175.691633 
L 184.055649 175.248123 
L 184.322634 175.29933 
L 184.58962 174.576045 
L 184.856606 174.863408 
L 185.123591 175.386141 
L 185.390577 174.194894 
L 185.657563 174.245761 
L 185.924548 173.984077 
L 186.45852 175.59995 
L 186.725505 175.930661 
L 186.992491 175.613463 
L 187.526462 176.635334 
L 187.793448 176.800307 
L 188.060433 176.605106 
L 188.327419 177.059388 
L 188.594405 176.815853 
L 188.86139 177.253163 
L 189.128376 177.331789 
L 189.395362 177.146999 
L 189.662347 177.457951 
L 189.929333 177.511541 
L 190.196319 177.195887 
L 190.463304 177.601737 
L 190.73029 177.446887 
L 190.997276 177.67202 
L 191.798233 177.606144 
L 192.065218 177.781936 
L 192.599189 177.826009 
L 192.866175 177.718113 
L 193.133161 177.858631 
L 193.934118 177.89754 
L 196.336989 178.032632 
L 196.603974 177.621358 
L 196.87096 178.070962 
L 200.341773 178.307672 
L 200.608759 178.281793 
L 200.875744 177.984759 
L 201.14273 178.347342 
L 203.812587 178.513042 
L 204.079572 178.184283 
L 204.346558 178.543184 
L 206.482443 178.641018 
L 206.749429 178.345823 
L 207.016414 178.657336 
L 209.419285 178.743026 
L 209.686271 178.505719 
L 209.953256 178.761089 
L 211.288185 178.803653 
L 211.822156 178.808498 
L 212.089142 178.629809 
L 212.623113 178.907312 
L 213.691055 179.063508 
L 214.225027 178.282913 
L 215.292969 178.332814 
L 215.559955 178.184291 
L 215.826941 178.338086 
L 217.161869 178.347647 
L 217.428855 178.225106 
L 217.69584 178.348832 
L 217.962826 178.2107 
L 218.229811 178.350618 
L 219.56474 178.348879 
L 219.831725 178.177205 
L 220.098711 178.34395 
L 223.83651 178.396212 
L 224.370481 178.397684 
L 224.637467 178.241283 
L 224.904453 178.395637 
L 227.040338 178.382777 
L 227.307323 178.252223 
L 227.574309 178.373072 
L 229.710194 178.334202 
L 229.97718 178.20062 
L 230.244166 178.321805 
L 232.380051 178.265836 
L 232.647036 178.040621 
L 232.914022 178.249757 
L 239.588663 178.02727 
L 239.855649 177.834584 
L 240.122634 178.005968 
L 245.729333 177.770009 
L 245.996319 177.587707 
L 246.263304 177.730062 
L 246.797276 177.687603 
L 250.001103 177.483144 
L 250.268089 177.336664 
L 250.535075 177.492767 
L 251.603017 177.365293 
L 251.870003 177.264728 
L 252.136989 176.787927 
L 252.403974 176.819232 
L 252.67096 176.715512 
L 253.204931 176.823562 
L 254.005888 176.807764 
L 259.612587 176.860086 
L 270.825984 176.828504 
L 271.092969 176.759575 
L 271.626941 176.845255 
L 276.966654 176.785902 
L 277.767611 176.751744 
L 284.442252 176.645972 
L 287.646079 176.552202 
L 287.913065 176.088172 
L 288.180051 176.543828 
L 290.849907 176.454521 
L 291.116893 176.083667 
L 291.383878 176.436274 
L 296.18962 176.267054 
L 296.456606 175.982742 
L 296.723591 176.24844 
L 301.796319 176.076708 
L 302.063304 175.861263 
L 302.33029 176.059426 
L 306.869046 175.898842 
L 307.136032 175.748429 
L 307.403017 175.891317 
L 311.674788 175.730962 
L 311.941773 175.601856 
L 312.475744 175.698524 
L 328.494883 174.949565 
L 328.761869 174.759596 
L 329.028855 174.906965 
L 335.169524 174.536712 
L 339.975266 174.311344 
L 340.509237 173.887546 
L 342.645122 173.808158 
L 346.916893 173.841484 
L 347.984835 173.749393 
L 348.785792 173.758337 
L 351.722634 173.481267 
L 352.790577 173.229621 
L 353.591534 173.253996 
L 355.994405 173.063237 
L 358.397276 172.753441 
L 358.664261 172.649964 
L 359.198233 172.618313 
L 359.732204 172.512036 
L 359.732204 172.512036 
" clip-path="url(#pb8342c2745)" style="fill: none; stroke: #1f77b4; stroke-width: 1.5; stroke-linecap: square"/>
   </g>
   <g id="line2d_16">
    <path d="M 55.368567 146.946454 
L 55.635553 140.376042 
L 56.169524 144.470649 
L 56.43651 143.853108 
L 56.703496 144.015293 
L 57.237467 144.586041 
L 57.504453 144.669946 
L 57.771438 144.526915 
L 58.038424 144.180065 
L 58.30541 143.588729 
L 58.572395 142.629067 
L 59.907323 136.132276 
L 60.174309 135.792828 
L 61.776223 138.973284 
L 62.043209 139.025204 
L 62.310194 138.657604 
L 62.844166 137.471577 
L 63.645122 135.443366 
L 63.912108 135.20195 
L 64.980051 136.36953 
L 65.781008 138.073461 
L 66.047993 138.219724 
L 66.314979 138.015218 
L 66.84895 137.085407 
L 67.916893 134.940976 
L 68.183878 134.108716 
L 69.251821 136.850786 
L 69.518807 137.234536 
L 69.785792 137.418139 
L 70.052778 137.180679 
L 70.586749 136.034783 
L 70.853735 135.836392 
L 71.120721 135.782099 
L 71.387706 135.461658 
L 71.654692 134.705468 
L 72.188663 135.79371 
L 72.98962 136.874714 
L 73.523591 137.763568 
L 73.790577 137.796501 
L 74.591534 136.900514 
L 74.85852 136.929997 
L 75.392491 137.590674 
L 75.926462 138.388449 
L 76.460433 139.576244 
L 76.994405 140.956666 
L 77.26139 141.367673 
L 78.062347 141.97844 
L 78.329333 142.456609 
L 78.596319 142.473532 
L 79.397276 140.230325 
L 79.664261 139.905889 
L 80.198233 140.386903 
L 80.732204 141.339866 
L 81.266175 142.278886 
L 81.533161 142.361054 
L 81.800146 142.024068 
L 82.334118 140.291801 
L 83.40206 135.719542 
L 84.203017 136.808771 
L 85.27096 137.622425 
L 85.537945 137.439622 
L 86.338902 135.599263 
L 86.605888 135.505304 
L 87.139859 136.404057 
L 87.406845 136.869286 
L 87.673831 136.904751 
L 88.741773 138.719757 
L 89.54273 140.7074 
L 89.809716 140.671179 
L 90.343687 139.986131 
L 90.877658 138.802538 
L 91.41163 136.961446 
L 92.212587 138.711388 
L 93.013544 140.018652 
L 93.280529 139.958191 
L 93.8145 138.785467 
L 94.615457 136.695989 
L 94.882443 136.279101 
L 95.6834 138.34338 
L 96.217371 139.466077 
L 96.751343 140.737028 
L 97.018328 140.759582 
L 97.5523 140.25923 
L 97.819285 140.213556 
L 98.086271 140.286017 
L 98.353256 140.157036 
L 98.620242 139.2383 
L 99.421199 140.370921 
L 100.222156 142.330748 
L 100.489142 142.310339 
L 100.756127 141.415682 
L 101.557084 137.490202 
L 102.091055 135.723642 
L 102.892012 137.685488 
L 103.959955 140.591056 
L 104.226941 140.506976 
L 104.760912 139.86427 
L 105.561869 139.166636 
L 105.828855 139.308054 
L 106.09584 139.289669 
L 107.163783 141.616652 
L 107.697754 143.461553 
L 107.96474 143.818299 
L 108.231725 143.284675 
L 108.765697 141.411568 
L 109.032682 140.943686 
L 109.566654 140.362413 
L 109.833639 139.790932 
L 110.901582 142.691877 
L 111.435553 144.231253 
L 111.702539 144.302742 
L 112.770481 141.597496 
L 113.037467 141.266771 
L 113.304453 140.692909 
L 114.10541 143.004015 
L 114.906367 144.245361 
L 115.173352 144.322368 
L 115.440338 143.775186 
L 116.241295 141.252218 
L 116.775266 139.812651 
L 118.37718 142.890908 
L 118.644166 143.099686 
L 118.911151 142.65843 
L 119.712108 140.065216 
L 120.246079 138.751201 
L 121.314022 140.893483 
L 121.847993 141.568374 
L 122.114979 141.672892 
L 122.381965 141.3403 
L 123.182922 139.249841 
L 123.716893 138.399261 
L 124.250864 136.836714 
L 125.051821 139.114039 
L 125.852778 140.64307 
L 126.119764 140.510288 
L 126.920721 138.51607 
L 127.454692 137.658432 
L 127.988663 136.09204 
L 128.78962 139.052418 
L 129.323591 140.36657 
L 129.590577 140.548364 
L 130.124548 139.574521 
L 130.65852 138.544477 
L 130.925505 138.373863 
L 131.459477 138.563597 
L 132.260433 140.412624 
L 133.06139 141.770171 
L 133.328376 141.687323 
L 133.862347 140.347175 
L 134.663304 137.645055 
L 134.93029 136.181082 
L 135.197276 136.441408 
L 135.464261 136.331775 
L 135.731247 135.93849 
L 136.265218 134.535837 
L 136.799189 132.156864 
L 137.333161 128.530022 
L 137.600146 126.529619 
L 138.401103 126.036851 
L 139.20206 125.261332 
L 140.270003 123.785985 
L 141.07096 122.661725 
L 141.604931 122.313853 
L 142.405888 122.16899 
L 142.672874 122.346652 
L 142.939859 122.287909 
L 143.206845 122.115201 
L 143.473831 121.761356 
L 144.007802 120.579316 
L 144.541773 119.310518 
L 145.075744 118.521761 
L 145.34273 117.559432 
L 145.609716 115.50871 
L 145.876701 114.447559 
L 147.478615 115.992004 
L 149.080529 117.670553 
L 149.881486 118.552936 
L 151.216414 119.252007 
L 151.750386 119.398963 
L 152.284357 118.996602 
L 152.551343 118.54847 
L 153.3523 115.873659 
L 154.153256 115.677372 
L 154.687228 115.860503 
L 156.289142 116.639328 
L 156.556127 116.56084 
L 156.823113 116.221254 
L 157.090099 115.644348 
L 157.62407 113.632519 
L 158.425027 109.858739 
L 158.692012 110.406759 
L 158.958998 110.345394 
L 159.225984 110.043356 
L 159.492969 110.331406 
L 159.759955 110.435908 
L 160.293926 110.251764 
L 160.827898 109.98086 
L 161.094883 110.265349 
L 161.628855 109.508483 
L 161.89584 109.679205 
L 162.162826 109.230866 
L 162.963783 110.461581 
L 163.230768 110.27428 
L 163.497754 109.671984 
L 163.76474 110.232321 
L 164.031725 109.228259 
L 164.298711 109.640357 
L 164.565697 109.231565 
L 165.099668 107.23595 
L 165.366654 107.966204 
L 165.633639 108.356019 
L 166.167611 108.450439 
L 166.434596 108.381112 
L 166.968567 107.674364 
L 167.235553 106.833341 
L 167.769524 107.342743 
L 168.570481 107.69544 
L 169.371438 107.815429 
L 170.706367 107.612043 
L 170.973352 107.516706 
L 171.240338 107.278646 
L 171.774309 105.873846 
L 172.041295 105.587659 
L 172.30828 104.855624 
L 172.575266 105.378447 
L 172.842252 105.294156 
L 173.109237 105.749533 
L 173.376223 105.131777 
L 173.910194 106.353167 
L 174.17718 105.505342 
L 174.444166 106.342219 
L 174.978137 104.306428 
L 175.245122 104.24607 
L 175.779094 103.684645 
L 176.046079 104.401457 
L 176.580051 104.56261 
L 176.847036 104.069962 
L 177.114022 103.974881 
L 177.381008 102.70423 
L 177.647993 103.697167 
L 177.914979 103.627811 
L 178.181965 103.015609 
L 178.44895 103.187879 
L 178.715936 103.05425 
L 178.982922 102.33639 
L 179.249907 102.721 
L 180.31785 103.287888 
L 180.584835 103.108683 
L 180.851821 103.324425 
L 181.118807 103.183744 
L 181.385792 102.883982 
L 181.919764 101.937983 
L 182.453735 99.980432 
L 182.720721 97.830563 
L 182.987706 97.820123 
L 183.254692 96.886905 
L 183.788663 96.948282 
L 184.055649 96.06922 
L 184.322634 96.169491 
L 184.58962 95.752205 
L 185.123591 96.90082 
L 185.390577 95.481952 
L 185.657563 95.571883 
L 185.924548 95.076279 
L 186.45852 97.6139 
L 186.725505 98.11556 
L 186.992491 97.640933 
L 187.259477 98.11568 
L 187.526462 99.196207 
L 187.793448 99.448962 
L 188.060433 99.3416 
L 188.327419 99.837128 
L 188.594405 99.167261 
L 188.86139 100.103386 
L 189.128376 100.203629 
L 189.395362 100.036346 
L 189.662347 100.357288 
L 189.929333 100.415706 
L 190.196319 99.17343 
L 190.463304 100.506097 
L 190.73029 100.348082 
L 190.997276 100.569812 
L 191.264261 100.488341 
L 191.531247 100.617325 
L 191.798233 100.480343 
L 192.065218 100.648475 
L 192.599189 100.672275 
L 192.866175 100.554429 
L 193.133161 100.684521 
L 193.667132 100.582992 
L 194.201103 100.678675 
L 195.803017 100.637282 
L 196.336989 100.829647 
L 196.603974 99.44617 
L 196.87096 100.89335 
L 198.205888 101.084847 
L 198.739859 101.001052 
L 199.006845 101.16461 
L 200.608759 101.227561 
L 200.875744 99.89705 
L 201.14273 101.299864 
L 201.409716 101.319047 
L 201.676701 101.143108 
L 201.943687 101.3584 
L 203.812587 101.513197 
L 204.079572 100.150365 
L 204.346558 101.558826 
L 204.880529 101.602716 
L 205.147515 101.437241 
L 205.681486 101.660626 
L 206.482443 101.713173 
L 206.749429 100.386819 
L 207.016414 101.74044 
L 208.618328 101.832787 
L 208.885314 101.626204 
L 209.1523 101.859766 
L 209.419285 101.87229 
L 209.686271 100.625236 
L 209.953256 101.897098 
L 210.754213 101.930199 
L 211.822156 101.954815 
L 212.089142 100.826594 
L 212.356127 101.789789 
L 212.623113 102.108382 
L 213.691055 102.349636 
L 213.958041 100.83387 
L 214.225027 101.214682 
L 214.758998 101.306399 
L 215.292969 101.311115 
L 215.559955 100.449477 
L 215.826941 101.309612 
L 217.161869 101.298128 
L 217.428855 100.956708 
L 217.69584 101.291835 
L 217.962826 100.521454 
L 218.229811 101.284782 
L 219.56474 101.25546 
L 219.831725 100.892211 
L 220.098711 101.236182 
L 221.433639 101.248099 
L 221.700625 100.605165 
L 221.967611 101.266579 
L 223.035553 101.292288 
L 223.302539 101.027434 
L 223.569524 101.300337 
L 224.370481 101.306449 
L 224.637467 100.899594 
L 224.904453 101.306966 
L 227.040338 101.288075 
L 227.307323 100.980026 
L 227.574309 101.275244 
L 229.710194 101.219957 
L 229.97718 100.684337 
L 230.244166 101.202866 
L 232.380051 101.125058 
L 232.647036 100.568051 
L 232.914022 101.103384 
L 238.253735 100.866499 
L 238.520721 100.752564 
L 239.054692 100.825947 
L 239.588663 100.798741 
L 239.855649 100.326206 
L 240.122634 100.771894 
L 245.729333 100.474839 
L 245.996319 100.015783 
L 246.263304 100.426847 
L 246.53029 100.295721 
L 247.064261 100.351555 
L 249.467132 100.121104 
L 249.734118 100.021449 
L 250.001103 100.114317 
L 250.268089 99.733832 
L 250.535075 100.173758 
L 251.336032 100.078536 
L 251.870003 99.895383 
L 252.136989 99.251291 
L 252.403974 99.292475 
L 252.67096 98.983886 
L 252.937945 99.304801 
L 254.539859 99.323879 
L 254.806845 99.040327 
L 255.073831 99.340324 
L 260.146558 99.389916 
L 260.413544 99.127895 
L 260.680529 99.395434 
L 265.753256 99.396834 
L 266.020242 99.147822 
L 266.287228 99.396228 
L 270.825984 99.293025 
L 271.092969 99.054688 
L 271.359955 99.313761 
L 274.563783 99.31806 
L 275.631725 99.118564 
L 275.898711 99.302225 
L 280.170481 99.217763 
L 280.437467 99.055055 
L 280.704453 99.211139 
L 284.709237 99.104267 
L 284.976223 98.986398 
L 285.243209 99.119872 
L 287.646079 99.04997 
L 287.913065 98.639182 
L 288.180051 99.056098 
L 289.247993 99.026119 
L 289.514979 98.90317 
L 290.04895 99.001978 
L 290.849907 98.975815 
L 291.116893 98.62905 
L 291.383878 98.958045 
L 296.18962 98.773395 
L 296.456606 98.508012 
L 296.723591 98.752097 
L 299.126462 98.658751 
L 301.796319 98.575895 
L 302.063304 98.372663 
L 302.33029 98.56291 
L 306.869046 98.396623 
L 307.136032 98.302146 
L 307.403017 98.437956 
L 311.674788 98.333739 
L 311.941773 98.180199 
L 312.208759 98.320257 
L 328.494883 97.823897 
L 328.761869 97.58483 
L 329.028855 97.771313 
L 331.431725 97.49278 
L 331.698711 97.373027 
L 332.232682 97.470189 
L 339.441295 97.068352 
L 339.70828 96.98224 
L 339.975266 97.028564 
L 340.509237 96.325237 
L 341.57718 96.299324 
L 342.111151 96.269107 
L 342.645122 96.249753 
L 346.916893 96.363763 
L 347.450864 96.350301 
L 350.120721 96.116013 
L 351.455649 95.838819 
L 352.256606 95.468654 
L 352.523591 95.256616 
L 353.591534 95.308646 
L 355.193448 95.192016 
L 357.863304 94.612828 
L 359.732204 93.954989 
L 359.732204 93.954989 
" clip-path="url(#pb8342c2745)" style="fill: none; stroke: #ff7f0e; stroke-width: 1.5; stroke-linecap: square"/>
   </g>
   <g id="line2d_17">
    <path d="M 55.368567 42.290906 
L 55.635553 49.414816 
L 56.43651 61.139467 
L 56.703496 61.197912 
L 57.771438 60.385659 
L 58.038424 60.008806 
L 58.572395 58.47475 
L 59.907323 52.814782 
L 60.174309 52.492457 
L 61.242252 55.649276 
L 61.776223 56.561578 
L 62.043209 56.771338 
L 62.310194 56.570634 
L 62.844166 55.084429 
L 63.378137 52.300815 
L 63.912108 50.053388 
L 64.446079 50.896348 
L 64.980051 51.997575 
L 65.514022 52.536682 
L 65.781008 52.587332 
L 66.047993 52.414338 
L 66.314979 51.922805 
L 67.115936 49.252534 
L 67.916893 46.647254 
L 68.183878 46.188526 
L 68.450864 47.029454 
L 69.518807 52.005101 
L 70.052778 52.451859 
L 70.586749 52.181313 
L 70.853735 52.059475 
L 71.120721 51.797311 
L 71.654692 50.24476 
L 72.188663 51.971091 
L 72.722634 54.266152 
L 72.98962 54.94411 
L 73.256606 55.215835 
L 73.523591 55.285454 
L 73.790577 55.21089 
L 74.057563 54.930975 
L 75.125505 52.953654 
L 75.659477 54.514888 
L 76.193448 56.23074 
L 76.460433 56.635725 
L 76.994405 56.84244 
L 77.26139 56.736785 
L 77.528376 56.359134 
L 78.062347 54.857601 
L 78.596319 52.965208 
L 78.863304 52.846025 
L 79.931247 55.215989 
L 80.465218 56.622736 
L 80.999189 57.456923 
L 81.533161 57.992454 
L 81.800146 57.998435 
L 82.067132 57.623544 
L 82.601103 55.788964 
L 83.40206 52.398123 
L 83.936032 53.629008 
L 85.003974 56.900107 
L 85.27096 57.210015 
L 85.537945 57.320735 
L 85.804931 57.140125 
L 86.071917 56.582195 
L 86.872874 53.663152 
L 87.406845 51.463468 
L 87.673831 50.676788 
L 88.207802 52.703048 
L 88.741773 55.114663 
L 89.008759 55.679624 
L 89.54273 56.008226 
L 89.809716 55.969208 
L 90.343687 55.280979 
L 91.41163 53.630287 
L 91.678615 54.16536 
L 92.212587 56.294977 
L 92.746558 58.30079 
L 93.280529 59.173682 
L 93.547515 59.237087 
L 93.8145 58.877839 
L 94.348472 57.213825 
L 94.882443 54.909259 
L 95.149429 55.16881 
L 95.416414 55.824991 
L 96.217371 58.963403 
L 96.484357 59.364125 
L 96.751343 59.456554 
L 97.018328 59.318304 
L 97.285314 58.787631 
L 97.819285 56.654002 
L 98.620242 52.939354 
L 98.887228 53.71176 
L 99.688185 57.12513 
L 99.95517 57.664268 
L 100.222156 57.87911 
L 100.489142 57.822863 
L 100.756127 57.342517 
L 101.82407 53.887295 
L 102.091055 53.401398 
L 102.625027 55.372319 
L 103.158998 57.608812 
L 103.692969 58.996203 
L 103.959955 59.323685 
L 104.226941 59.309338 
L 104.493926 58.951613 
L 105.027898 57.350996 
L 105.561869 55.37341 
L 106.09584 54.443381 
L 106.629811 56.384442 
L 107.163783 58.487897 
L 107.430768 59.107967 
L 107.697754 59.416125 
L 107.96474 59.379691 
L 108.231725 58.933358 
L 108.765697 57.513428 
L 109.032682 57.097127 
L 109.833639 56.705514 
L 110.634596 60.119289 
L 111.168567 62.011548 
L 111.702539 63.051533 
L 111.969524 63.060646 
L 112.23651 62.72542 
L 112.770481 61.423812 
L 113.304453 59.795872 
L 113.571438 60.199655 
L 113.838424 60.905038 
L 114.906367 65.348399 
L 115.173352 65.204243 
L 115.440338 64.37884 
L 116.775266 58.691893 
L 117.843209 61.50359 
L 118.911151 63.285489 
L 119.178137 63.139688 
L 119.712108 61.90957 
L 120.246079 60.467576 
L 120.780051 61.295749 
L 121.047036 61.926438 
L 121.581008 64.143648 
L 121.847993 65.303195 
L 122.114979 65.76124 
L 122.381965 65.264673 
L 123.716893 59.943656 
L 124.250864 57.107649 
L 125.051821 60.069953 
L 125.585792 62.727702 
L 125.852778 63.503146 
L 126.119764 63.70267 
L 126.386749 63.471451 
L 126.653735 62.830715 
L 127.454692 59.528634 
L 127.988663 56.588261 
L 128.78962 59.252109 
L 129.590577 62.395595 
L 129.857563 62.322639 
L 130.124548 61.670104 
L 130.65852 59.600958 
L 131.459477 57.477946 
L 131.993448 58.963018 
L 133.06139 62.581344 
L 133.328376 62.691567 
L 133.595362 62.207549 
L 134.396319 59.526149 
L 134.93029 56.415471 
L 135.464261 57.622824 
L 135.998233 58.200756 
L 136.265218 58.206148 
L 136.532204 57.849808 
L 136.799189 57.089304 
L 137.066175 55.947928 
L 137.600146 52.615564 
L 138.668089 52.237096 
L 139.469046 51.74461 
L 140.536989 50.78553 
L 141.337945 50.139004 
L 142.138902 49.765039 
L 142.405888 49.524042 
L 142.672874 49.754684 
L 142.939859 49.677136 
L 143.206845 49.34493 
L 143.740816 47.853876 
L 144.274788 46.164363 
L 144.808759 45.137311 
L 145.075744 44.31443 
L 145.34273 42.699433 
L 145.609716 40.049023 
L 145.876701 38.782351 
L 147.21163 39.961558 
L 149.080529 41.885572 
L 150.949429 44.061816 
L 151.216414 44.1324 
L 151.4834 44.043372 
L 151.750386 43.786361 
L 152.284357 42.699169 
L 152.818328 41.138902 
L 153.3523 39.582145 
L 153.886271 40.183542 
L 154.420242 40.629713 
L 155.488185 41.804479 
L 156.022156 41.858128 
L 156.289142 41.73163 
L 156.556127 41.427423 
L 157.090099 40.036952 
L 158.158041 35.324534 
L 158.425027 33.537054 
L 158.692012 34.689669 
L 158.958998 34.912952 
L 159.225984 34.306785 
L 159.492969 35.408918 
L 159.759955 35.911145 
L 160.026941 35.968604 
L 160.293926 35.867456 
L 160.560912 35.643503 
L 161.094883 34.812926 
L 161.361869 33.246181 
L 161.628855 33.079853 
L 161.89584 33.482702 
L 162.162826 33.037471 
L 162.429811 33.116154 
L 162.963783 35.141496 
L 163.230768 35.071511 
L 163.497754 34.214653 
L 163.76474 35.293491 
L 164.031725 33.338488 
L 164.298711 34.29635 
L 164.565697 33.498208 
L 164.832682 31.48996 
L 165.099668 30.436609 
L 165.900625 31.80681 
L 166.434596 31.93358 
L 166.701582 31.461458 
L 166.968567 31.419876 
L 167.235553 30.63969 
L 167.502539 30.324116 
L 167.769524 29.260643 
L 168.570481 30.070128 
L 169.371438 30.607244 
L 170.439381 30.966075 
L 171.240338 31.064112 
L 171.774309 29.838506 
L 172.041295 30.392621 
L 172.30828 28.562851 
L 172.575266 30.325518 
L 172.842252 30.006089 
L 173.109237 30.516085 
L 173.376223 28.446668 
L 173.643209 29.072125 
L 173.910194 30.335163 
L 174.17718 27.972884 
L 174.444166 29.7483 
L 174.711151 28.211897 
L 174.978137 28.350751 
L 175.245122 28.162206 
L 175.779094 27.189433 
L 176.046079 27.784009 
L 176.580051 28.349946 
L 176.847036 27.559529 
L 177.114022 28.47837 
L 177.381008 27.612151 
L 177.647993 28.391761 
L 177.914979 28.206203 
L 178.181965 26.541156 
L 178.44895 27.228042 
L 178.715936 26.842107 
L 178.982922 25.051601 
L 179.249907 25.840193 
L 179.516893 26.194431 
L 179.783878 26.812334 
L 180.31785 27.053322 
L 180.584835 26.5074 
L 180.851821 27.177864 
L 181.118807 27.121167 
L 181.385792 26.900055 
L 181.652778 26.263291 
L 181.919764 26.164503 
L 182.453735 24.211629 
L 182.720721 21.962668 
L 182.987706 22.101294 
L 183.254692 21.48631 
L 183.521678 21.305254 
L 183.788663 21.341033 
L 184.055649 19.691865 
L 184.322634 19.55326 
L 184.58962 19.088628 
L 184.856606 20.124937 
L 185.123591 20.313794 
L 185.390577 18.34842 
L 185.657563 18.356947 
L 185.924548 17.28 
L 186.45852 20.543807 
L 186.725505 20.97523 
L 186.992491 19.97944 
L 187.259477 20.314937 
L 187.526462 21.910426 
L 187.793448 22.13703 
L 188.060433 22.040223 
L 188.327419 22.499948 
L 188.594405 21.270027 
L 188.86139 22.769301 
L 189.128376 22.879407 
L 189.395362 22.722447 
L 189.662347 23.061539 
L 189.929333 23.13785 
L 190.196319 20.748229 
L 190.463304 23.267951 
L 190.73029 23.112101 
L 190.997276 23.375685 
L 191.264261 23.149395 
L 191.531247 23.469572 
L 191.798233 23.329712 
L 192.065218 23.547698 
L 192.599189 23.617837 
L 192.866175 23.494295 
L 193.133161 23.676412 
L 193.400146 23.412349 
L 193.934118 23.7481 
L 195.536032 23.804432 
L 195.803017 23.631466 
L 196.070003 23.993025 
L 196.336989 24.036804 
L 196.603974 21.115363 
L 196.87096 24.096756 
L 197.404931 24.207993 
L 197.671917 24.166177 
L 198.205888 24.323464 
L 198.472874 24.28394 
L 198.739859 24.017815 
L 199.006845 24.423988 
L 200.608759 24.52869 
L 200.875744 21.460351 
L 201.14273 24.639443 
L 201.409716 24.669035 
L 201.676701 24.223275 
L 201.943687 24.730091 
L 203.812587 24.943072 
L 204.079572 21.621877 
L 204.346558 25.002914 
L 204.880529 25.062176 
L 205.147515 24.589132 
L 205.4145 25.075792 
L 205.948472 25.174578 
L 206.215457 25.114481 
L 206.482443 25.228143 
L 206.749429 21.745311 
L 207.016414 25.275033 
L 208.618328 25.422012 
L 208.885314 24.853773 
L 209.1523 25.47095 
L 209.419285 25.493197 
L 209.686271 21.883444 
L 209.953256 25.53763 
L 210.487228 25.580599 
L 211.822156 25.66896 
L 212.089142 22.043936 
L 212.356127 25.109868 
L 212.623113 25.905709 
L 213.691055 26.316535 
L 213.958041 22.141801 
L 214.225027 25.407445 
L 214.492012 25.64297 
L 215.292969 25.682936 
L 215.559955 22.275502 
L 215.826941 25.700492 
L 217.161869 25.729558 
L 217.428855 24.849964 
L 217.69584 25.739556 
L 217.962826 22.538691 
L 218.229811 25.744262 
L 219.56474 25.740136 
L 219.831725 24.98905 
L 220.098711 25.727808 
L 221.433639 25.760296 
L 221.700625 22.997703 
L 221.967611 25.785226 
L 223.035553 25.822114 
L 223.302539 25.288612 
L 223.569524 25.833838 
L 224.370481 25.847734 
L 224.637467 24.833533 
L 224.904453 25.856168 
L 225.972395 25.861332 
L 226.239381 25.582426 
L 226.506367 25.860422 
L 227.040338 25.857043 
L 227.307323 25.228468 
L 227.574309 25.847126 
L 229.710194 25.805259 
L 229.97718 23.768556 
L 230.244166 25.790431 
L 232.380051 25.721171 
L 232.647036 24.380991 
L 232.914022 25.704752 
L 238.253735 25.468537 
L 238.520721 25.170014 
L 238.787706 25.439801 
L 239.588663 25.39544 
L 239.855649 24.277336 
L 240.122634 25.366896 
L 243.059477 25.200264 
L 243.326462 24.907256 
L 243.593448 25.168139 
L 245.729333 25.039846 
L 245.996319 23.923523 
L 246.263304 24.989494 
L 246.53029 24.687566 
L 246.797276 24.936457 
L 249.467132 24.715056 
L 249.734118 24.451343 
L 250.001103 24.684649 
L 250.268089 23.598486 
L 250.535075 24.684245 
L 251.603017 24.517403 
L 251.870003 24.408128 
L 252.136989 23.908837 
L 252.403974 23.929196 
L 252.67096 22.993574 
L 252.937945 23.910796 
L 253.204931 23.892287 
L 253.471917 23.684004 
L 253.738902 23.854226 
L 254.539859 23.857819 
L 254.806845 22.9559 
L 255.073831 23.870173 
L 260.146558 23.911183 
L 260.413544 23.009203 
L 260.680529 23.91564 
L 260.947515 23.915366 
L 261.2145 23.747897 
L 261.481486 23.916362 
L 263.0834 23.923308 
L 263.350386 23.770992 
L 263.617371 23.926089 
L 264.9523 23.931935 
L 265.219285 23.789863 
L 265.486271 23.933154 
L 265.753256 23.933751 
L 266.020242 23.021171 
L 266.287228 23.934344 
L 267.088185 23.935853 
L 267.35517 23.794505 
L 267.622156 23.936752 
L 268.957084 23.932151 
L 269.22407 23.7972 
L 269.491055 23.923244 
L 270.825984 23.87717 
L 271.092969 22.923594 
L 271.359955 23.888378 
L 272.694883 23.894841 
L 272.961869 23.772659 
L 273.49584 23.890434 
L 274.563783 23.881539 
L 274.830768 23.766052 
L 275.36474 23.871928 
L 275.631725 23.072546 
L 275.898711 23.864198 
L 276.165697 23.859417 
L 276.432682 23.742383 
L 276.966654 23.82916 
L 278.301582 23.69612 
L 278.835553 23.794308 
L 280.170481 23.780284 
L 280.437467 23.045724 
L 280.704453 23.76994 
L 284.709237 23.601545 
L 284.976223 23.008039 
L 285.243209 23.670694 
L 287.646079 23.547872 
L 287.913065 23.218733 
L 288.180051 23.60437 
L 289.247993 23.575814 
L 289.514979 22.960855 
L 289.781965 23.560281 
L 290.849907 23.529018 
L 291.116893 23.18526 
L 291.383878 23.51185 
L 293.252778 23.396795 
L 293.519764 22.903637 
L 293.786749 23.430259 
L 296.18962 23.346298 
L 296.456606 23.06743 
L 296.723591 23.326187 
L 296.990577 23.272476 
L 297.257563 22.833956 
L 297.524548 23.294736 
L 300.194405 23.208024 
L 300.46139 22.786299 
L 300.728376 23.154494 
L 301.529333 23.173113 
L 301.796319 23.166528 
L 302.063304 22.914396 
L 302.33029 23.153772 
L 303.398233 23.097142 
L 303.665218 22.753928 
L 303.932204 23.115549 
L 306.60206 23.055777 
L 306.869046 22.695977 
L 307.403017 23.036465 
L 309.271917 22.996514 
L 309.538902 22.696572 
L 309.805888 22.984925 
L 311.140816 22.935973 
L 311.674788 22.945019 
L 311.941773 22.523541 
L 312.208759 22.931292 
L 314.077658 22.871339 
L 314.344644 22.642809 
L 314.61163 22.875758 
L 316.213544 22.841859 
L 316.480529 22.619903 
L 316.747515 22.831394 
L 317.0145 22.703793 
L 317.281486 22.820778 
L 318.349429 22.813298 
L 318.616414 22.61488 
L 318.8834 22.799471 
L 320.485314 22.798494 
L 320.7523 22.625829 
L 321.019285 22.805503 
L 322.354213 22.698425 
L 322.621199 22.623006 
L 322.888185 22.777692 
L 324.223113 22.762887 
L 324.490099 22.594336 
L 324.757084 22.747209 
L 326.092012 22.691392 
L 326.358998 22.544887 
L 326.625984 22.674679 
L 328.494883 22.568072 
L 328.761869 22.153325 
L 329.028855 22.520955 
L 329.562826 22.487957 
L 329.829811 22.339946 
L 330.096797 22.438521 
L 331.431725 22.227155 
L 331.698711 22.062751 
L 331.965697 22.31605 
L 333.834596 22.24628 
L 334.101582 22.013481 
L 334.368567 22.219855 
L 335.703496 22.158287 
L 335.970481 21.962117 
L 336.237467 22.131919 
L 336.504453 22.023949 
L 337.038424 22.090819 
L 337.572395 22.060987 
L 337.839381 21.884147 
L 338.640338 21.997238 
L 339.441295 21.942115 
L 339.70828 21.689439 
L 339.975266 21.905449 
L 340.509237 21.437164 
L 342.912108 21.261567 
L 343.179094 21.313214 
L 343.446079 21.192095 
L 343.713065 21.30771 
L 344.247036 21.238839 
L 344.781008 21.346588 
L 345.047993 21.349126 
L 345.314979 21.23023 
L 346.382922 21.316398 
L 346.916893 21.216677 
L 347.183878 21.161869 
L 347.71785 21.236516 
L 348.251821 21.124641 
L 348.785792 21.141187 
L 350.387706 20.91526 
L 350.654692 20.751164 
L 350.921678 20.797117 
L 351.722634 20.46205 
L 352.790577 19.868457 
L 353.324548 19.993195 
L 354.659477 19.930291 
L 354.926462 19.820544 
L 355.193448 19.887721 
L 357.596319 19.338479 
L 358.931247 18.889943 
L 359.732204 18.529573 
L 359.732204 18.529573 
" clip-path="url(#pb8342c2745)" style="fill: none; stroke: #2ca02c; stroke-width: 1.5; stroke-linecap: square"/>
   </g>
   <g id="patch_3">
    <path d="M 40.150386 228.96 
L 40.150386 7.2 
" style="fill: none; stroke: #000000; stroke-width: 0.8; stroke-linejoin: miter; stroke-linecap: square"/>
   </g>
   <g id="patch_4">
    <path d="M 374.950386 228.96 
L 374.950386 7.2 
" style="fill: none; stroke: #000000; stroke-width: 0.8; stroke-linejoin: miter; stroke-linecap: square"/>
   </g>
   <g id="patch_5">
    <path d="M 40.150386 228.96 
L 374.950386 228.96 
" style="fill: none; stroke: #000000; stroke-width: 0.8; stroke-linejoin: miter; stroke-linecap: square"/>
   </g>
   <g id="patch_6">
    <path d="M 40.150386 7.2 
L 374.950386 7.2 
" style="fill: none; stroke: #000000; stroke-width: 0.8; stroke-linejoin: miter; stroke-linecap: square"/>
   </g>
   <g id="legend_1">
    <g id="patch_7">
     <path d="M 323.445187 223.96 
L 367.950386 223.96 
Q 369.950386 223.96 369.950386 221.96 
L 369.950386 180.29908 
Q 369.950386 178.29908 367.950386 178.29908 
L 323.445187 178.29908 
Q 321.445187 178.29908 321.445187 180.29908 
L 321.445187 221.96 
Q 321.445187 223.96 323.445187 223.96 
z
" style="fill: #ffffff; opacity: 0.8; stroke: #cccccc; stroke-linejoin: miter"/>
    </g>
    <g id="line2d_18">
     <path d="M 325.445187 185.8974 
L 335.445187 185.8974 
L 345.445187 185.8974 
" style="fill: none; stroke: #1f77b4; stroke-width: 1.5; stroke-linecap: square"/>
    </g>
    <g id="text_17">
     <!-- $\rho$ -->
     <g transform="translate(353.445187 189.3974) scale(0.1 -0.1)">
      <defs>
       <path id="CMMI12-1a" d="M 198 -1085 
C 192 -1116 179 -1154 179 -1191 
C 179 -1287 256 -1351 352 -1351 
C 448 -1351 538 -1287 576 -1198 
C 602 -1141 781 -390 986 389 
C 1114 70 1350 -64 1600 -64 
C 2323 -64 3142 830 3142 1794 
C 3142 2477 2726 2816 2285 2816 
C 1722 2816 1037 2234 826 1385 
L 198 -1085 
z
M 1594 64 
C 1158 64 1050 568 1050 645 
C 1050 683 1210 1289 1229 1385 
C 1555 2656 2182 2687 2278 2687 
C 2566 2687 2726 2426 2726 2049 
C 2726 1724 2554 1091 2445 823 
C 2253 383 1920 64 1594 64 
z
" transform="scale(0.015625)"/>
      </defs>
      <use xlink:href="#CMMI12-1a" transform="scale(0.996264)"/>
     </g>
    </g>
    <g id="line2d_19">
     <path d="M 325.445187 200.117707 
L 335.445187 200.117707 
L 345.445187 200.117707 
" style="fill: none; stroke: #ff7f0e; stroke-width: 1.5; stroke-linecap: square"/>
    </g>
    <g id="text_18">
     <!-- $\rho u$ -->
     <g transform="translate(353.445187 203.617707) scale(0.1 -0.1)">
      <defs>
       <path id="CMMI12-75" d="M 2182 370 
C 2266 12 2573 -64 2726 -64 
C 2931 -64 3085 70 3187 287 
C 3296 517 3379 893 3379 913 
C 3379 944 3354 970 3315 970 
C 3258 970 3251 938 3226 842 
C 3110 402 2995 64 2739 64 
C 2547 64 2547 274 2547 357 
C 2547 504 2566 568 2630 836 
C 2675 1008 2720 1181 2758 1359 
L 3021 2400 
C 3066 2560 3066 2572 3066 2591 
C 3066 2687 2989 2752 2893 2752 
C 2707 2752 2662 2591 2624 2432 
C 2560 2183 2214 810 2170 587 
C 2163 587 1914 64 1446 64 
C 1114 64 1050 351 1050 587 
C 1050 951 1229 1462 1395 1890 
C 1472 2094 1504 2177 1504 2305 
C 1504 2579 1306 2816 998 2816 
C 410 2816 173 1890 173 1838 
C 173 1813 198 1781 243 1781 
C 301 1781 307 1807 333 1896 
C 486 2445 736 2687 979 2687 
C 1043 2687 1146 2681 1146 2477 
C 1146 2311 1075 2126 979 1883 
C 698 1123 666 881 666 689 
C 666 38 1158 -64 1421 -64 
C 1830 -64 2054 217 2182 370 
z
" transform="scale(0.015625)"/>
      </defs>
      <use xlink:href="#CMMI12-1a" transform="scale(0.996264)"/>
      <use xlink:href="#CMMI12-75" transform="translate(50.314373 0) scale(0.996264)"/>
     </g>
    </g>
    <g id="line2d_20">
     <path d="M 325.445187 214.338014 
L 335.445187 214.338014 
L 345.445187 214.338014 
" style="fill: none; stroke: #2ca02c; stroke-width: 1.5; stroke-linecap: square"/>
    </g>
    <g id="text_19">
     <!-- $\rho E$ -->
     <g transform="translate(353.445187 217.838014) scale(0.1 -0.1)">
      <defs>
       <path id="CMMI12-45" d="M 4448 1489 
C 4454 1508 4474 1553 4474 1578 
C 4474 1611 4448 1643 4410 1643 
C 4384 1643 4371 1636 4352 1617 
C 4339 1611 4339 1598 4282 1469 
C 3904 570 3629 185 2605 185 
L 1670 185 
C 1581 185 1568 185 1530 192 
C 1459 198 1453 211 1453 262 
C 1453 307 1466 346 1478 403 
L 1920 2176 
L 2554 2176 
C 3053 2176 3091 2066 3091 1874 
C 3091 1810 3091 1752 3046 1559 
C 3034 1534 3027 1508 3027 1489 
C 3027 1444 3059 1424 3098 1424 
C 3155 1424 3162 1469 3187 1559 
L 3552 3036 
C 3552 3068 3526 3099 3488 3099 
C 3430 3099 3424 3074 3398 2986 
C 3270 2500 3142 2361 2573 2361 
L 1965 2361 
L 2362 3913 
C 2419 4134 2432 4153 2694 4153 
L 3610 4153 
C 4397 4153 4557 3945 4557 3465 
C 4557 3459 4557 3282 4531 3074 
C 4525 3049 4518 3011 4518 2998 
C 4518 2948 4550 2929 4589 2929 
C 4634 2929 4659 2954 4672 3068 
L 4806 4172 
C 4806 4191 4819 4255 4819 4268 
C 4819 4339 4762 4339 4646 4339 
L 1523 4339 
C 1402 4339 1338 4339 1338 4223 
C 1338 4153 1382 4153 1491 4153 
C 1888 4153 1888 4109 1888 4039 
C 1888 4008 1882 3983 1862 3913 
L 998 474 
C 941 249 928 185 480 185 
C 358 185 294 185 294 70 
C 294 0 333 0 461 0 
L 3674 0 
C 3814 0 3821 6 3866 108 
L 4448 1489 
z
" transform="scale(0.015625)"/>
      </defs>
      <use xlink:href="#CMMI12-1a" transform="scale(0.996264)"/>
      <use xlink:href="#CMMI12-45" transform="translate(50.314373 0) scale(0.996264)"/>
     </g>
    </g>
   </g>
  </g>
 </g>
 <defs>
  <clipPath id="pb8342c2745">
   <rect x="40.150386" y="7.2" width="334.8" height="221.76"/>
  </clipPath>
 </defs>
</svg>
