<?xml version="1.0" encoding="utf-8" standalone="no"?>
<!DOCTYPE svg PUBLIC "-//W3C//DTD SVG 1.1//EN"
  "http://www.w3.org/Graphics/SVG/1.1/DTD/svg11.dtd">
<svg xmlns:xlink="http://www.w3.org/1999/xlink" width="379.567344pt" height="265.600613pt" viewBox="0 0 379.567344 265.600613" xmlns="http://www.w3.org/2000/svg" version="1.1">
 <metadata>
  <rdf:RDF xmlns:dc="http://purl.org/dc/elements/1.1/" xmlns:cc="http://creativecommons.org/ns#" xmlns:rdf="http://www.w3.org/1999/02/22-rdf-syntax-ns#">
   <cc:Work>
    <dc:type rdf:resource="http://purl.org/dc/dcmitype/StillImage"/>
    <dc:date>2025-07-16T22:24:38.389792</dc:date>
    <dc:format>image/svg+xml</dc:format>
    <dc:creator>
     <cc:Agent>
      <dc:title>Matplotlib v3.10.3, https://matplotlib.org/</dc:title>
     </cc:Agent>
    </dc:creator>
   </cc:Work>
  </rdf:RDF>
 </metadata>
 <defs>
  <style type="text/css">*{stroke-linejoin: round; stroke-linecap: butt}</style>
 </defs>
 <g id="figure_1">
  <g id="patch_1">
   <path d="M 0 265.600613 
L 379.567344 265.600613 
L 379.567344 0 
L 0 0 
z
" style="fill: #ffffff"/>
  </g>
  <g id="axes_1">
   <g id="patch_2">
    <path d="M 37.567344 228.96 
L 372.367344 228.96 
L 372.367344 7.2 
L 37.567344 7.2 
z
" style="fill: #ffffff"/>
   </g>
   <g id="matplotlib.axis_1">
    <g id="xtick_1">
     <g id="line2d_1">
      <defs>
       <path id="m198293a11a" d="M 0 0 
L 0 3.5 
" style="stroke: #000000; stroke-width: 0.8"/>
      </defs>
      <g>
       <use xlink:href="#m198293a11a" x="52.785526" y="228.96" style="stroke: #000000; stroke-width: 0.8"/>
      </g>
     </g>
     <g id="text_1">
      <!-- $\mathdefault{0}$ -->
      <g transform="translate(50.294859 243.05832) scale(0.1 -0.1)">
       <defs>
        <path id="CMR17-30" d="M 2688 2038 
C 2688 2430 2682 3099 2413 3613 
C 2176 4063 1798 4224 1466 4224 
C 1158 4224 768 4082 525 3620 
C 269 3137 243 2539 243 2038 
C 243 1671 250 1112 448 623 
C 723 -39 1216 -128 1466 -128 
C 1760 -128 2208 -7 2470 604 
C 2662 1048 2688 1568 2688 2038 
z
M 1466 -26 
C 1056 -26 813 328 723 816 
C 653 1196 653 1749 653 2109 
C 653 2604 653 3015 736 3407 
C 858 3954 1216 4121 1466 4121 
C 1728 4121 2067 3947 2189 3420 
C 2272 3054 2278 2623 2278 2109 
C 2278 1691 2278 1176 2202 797 
C 2067 96 1690 -26 1466 -26 
z
" transform="scale(0.015625)"/>
       </defs>
       <use xlink:href="#CMR17-30" transform="scale(0.996264)"/>
      </g>
     </g>
    </g>
    <g id="xtick_2">
     <g id="line2d_2">
      <g>
       <use xlink:href="#m198293a11a" x="93.034619" y="228.96" style="stroke: #000000; stroke-width: 0.8"/>
      </g>
     </g>
     <g id="text_2">
      <!-- $\mathdefault{500}$ -->
      <g transform="translate(85.562616 243.05832) scale(0.1 -0.1)">
       <defs>
        <path id="CMR17-35" d="M 730 3750 
C 794 3724 1056 3641 1325 3641 
C 1920 3641 2246 3961 2432 4140 
C 2432 4191 2432 4224 2394 4224 
C 2387 4224 2374 4224 2323 4198 
C 2099 4102 1837 4032 1517 4032 
C 1325 4032 1037 4055 723 4191 
C 653 4224 640 4224 634 4224 
C 602 4224 595 4217 595 4090 
L 595 2231 
C 595 2113 595 2080 659 2080 
C 691 2080 704 2093 736 2139 
C 941 2435 1222 2560 1542 2560 
C 1766 2560 2246 2415 2246 1293 
C 2246 1087 2246 716 2054 422 
C 1894 159 1645 25 1370 25 
C 947 25 518 319 403 812 
C 429 806 480 793 506 793 
C 589 793 749 838 749 1036 
C 749 1209 627 1280 506 1280 
C 358 1280 262 1190 262 1011 
C 262 454 704 -128 1382 -128 
C 2042 -128 2669 441 2669 1267 
C 2669 2054 2170 2662 1549 2662 
C 1222 2662 947 2540 730 2304 
L 730 3750 
z
" transform="scale(0.015625)"/>
       </defs>
       <use xlink:href="#CMR17-35" transform="scale(0.996264)"/>
       <use xlink:href="#CMR17-30" transform="translate(45.690477 0) scale(0.996264)"/>
       <use xlink:href="#CMR17-30" transform="translate(91.380954 0) scale(0.996264)"/>
      </g>
     </g>
    </g>
    <g id="xtick_3">
     <g id="line2d_3">
      <g>
       <use xlink:href="#m198293a11a" x="133.283711" y="228.96" style="stroke: #000000; stroke-width: 0.8"/>
      </g>
     </g>
     <g id="text_3">
      <!-- $\mathdefault{1000}$ -->
      <g transform="translate(123.32104 243.05832) scale(0.1 -0.1)">
       <defs>
        <path id="CMR17-31" d="M 1702 4083 
C 1702 4217 1696 4224 1606 4224 
C 1357 3927 979 3833 621 3820 
C 602 3820 570 3820 563 3808 
C 557 3795 557 3782 557 3648 
C 755 3648 1088 3686 1344 3839 
L 1344 467 
C 1344 243 1331 166 781 166 
L 589 166 
L 589 0 
C 896 6 1216 12 1523 12 
C 1830 12 2150 6 2458 0 
L 2458 166 
L 2266 166 
C 1715 166 1702 236 1702 467 
L 1702 4083 
z
" transform="scale(0.015625)"/>
       </defs>
       <use xlink:href="#CMR17-31" transform="scale(0.996264)"/>
       <use xlink:href="#CMR17-30" transform="translate(45.690477 0) scale(0.996264)"/>
       <use xlink:href="#CMR17-30" transform="translate(91.380954 0) scale(0.996264)"/>
       <use xlink:href="#CMR17-30" transform="translate(137.071431 0) scale(0.996264)"/>
      </g>
     </g>
    </g>
    <g id="xtick_4">
     <g id="line2d_4">
      <g>
       <use xlink:href="#m198293a11a" x="173.532803" y="228.96" style="stroke: #000000; stroke-width: 0.8"/>
      </g>
     </g>
     <g id="text_4">
      <!-- $\mathdefault{1500}$ -->
      <g transform="translate(163.570133 243.05832) scale(0.1 -0.1)">
       <use xlink:href="#CMR17-31" transform="scale(0.996264)"/>
       <use xlink:href="#CMR17-35" transform="translate(45.690477 0) scale(0.996264)"/>
       <use xlink:href="#CMR17-30" transform="translate(91.380954 0) scale(0.996264)"/>
       <use xlink:href="#CMR17-30" transform="translate(137.071431 0) scale(0.996264)"/>
      </g>
     </g>
    </g>
    <g id="xtick_5">
     <g id="line2d_5">
      <g>
       <use xlink:href="#m198293a11a" x="213.781896" y="228.96" style="stroke: #000000; stroke-width: 0.8"/>
      </g>
     </g>
     <g id="text_5">
      <!-- $\mathdefault{2000}$ -->
      <g transform="translate(203.819225 243.05832) scale(0.1 -0.1)">
       <defs>
        <path id="CMR17-32" d="M 2669 990 
L 2554 990 
C 2490 537 2438 460 2413 422 
C 2381 371 1920 371 1830 371 
L 602 371 
C 832 620 1280 1073 1824 1596 
C 2214 1966 2669 2400 2669 3033 
C 2669 3788 2067 4224 1395 4224 
C 691 4224 262 3603 262 3027 
C 262 2777 448 2745 525 2745 
C 589 2745 781 2783 781 3007 
C 781 3206 614 3264 525 3264 
C 486 3264 448 3257 422 3244 
C 544 3788 915 4057 1306 4057 
C 1862 4057 2227 3616 2227 3033 
C 2227 2477 1901 1998 1536 1583 
L 262 147 
L 262 0 
L 2515 0 
L 2669 990 
z
" transform="scale(0.015625)"/>
       </defs>
       <use xlink:href="#CMR17-32" transform="scale(0.996264)"/>
       <use xlink:href="#CMR17-30" transform="translate(45.690477 0) scale(0.996264)"/>
       <use xlink:href="#CMR17-30" transform="translate(91.380954 0) scale(0.996264)"/>
       <use xlink:href="#CMR17-30" transform="translate(137.071431 0) scale(0.996264)"/>
      </g>
     </g>
    </g>
    <g id="xtick_6">
     <g id="line2d_6">
      <g>
       <use xlink:href="#m198293a11a" x="254.030988" y="228.96" style="stroke: #000000; stroke-width: 0.8"/>
      </g>
     </g>
     <g id="text_6">
      <!-- $\mathdefault{2500}$ -->
      <g transform="translate(244.068317 243.05832) scale(0.1 -0.1)">
       <use xlink:href="#CMR17-32" transform="scale(0.996264)"/>
       <use xlink:href="#CMR17-35" transform="translate(45.690477 0) scale(0.996264)"/>
       <use xlink:href="#CMR17-30" transform="translate(91.380954 0) scale(0.996264)"/>
       <use xlink:href="#CMR17-30" transform="translate(137.071431 0) scale(0.996264)"/>
      </g>
     </g>
    </g>
    <g id="xtick_7">
     <g id="line2d_7">
      <g>
       <use xlink:href="#m198293a11a" x="294.28008" y="228.96" style="stroke: #000000; stroke-width: 0.8"/>
      </g>
     </g>
     <g id="text_7">
      <!-- $\mathdefault{3000}$ -->
      <g transform="translate(284.31741 243.05832) scale(0.1 -0.1)">
       <defs>
        <path id="CMR17-33" d="M 1414 2176 
C 1984 2176 2234 1673 2234 1094 
C 2234 322 1824 25 1453 25 
C 1114 25 563 193 390 691 
C 422 678 454 678 486 678 
C 640 678 755 780 755 947 
C 755 1132 614 1216 486 1216 
C 378 1216 211 1164 211 927 
C 211 335 787 -128 1466 -128 
C 2176 -128 2720 432 2720 1087 
C 2720 1718 2208 2176 1600 2246 
C 2086 2347 2554 2776 2554 3353 
C 2554 3856 2048 4224 1472 4224 
C 890 4224 378 3862 378 3347 
C 378 3123 544 3084 627 3084 
C 762 3084 877 3167 877 3334 
C 877 3500 762 3584 627 3584 
C 602 3584 570 3584 544 3571 
C 730 3999 1235 4076 1459 4076 
C 1683 4076 2106 3966 2106 3347 
C 2106 3167 2080 2851 1862 2574 
C 1670 2329 1453 2316 1242 2297 
C 1210 2297 1062 2284 1037 2284 
C 992 2278 966 2272 966 2227 
C 966 2182 973 2176 1101 2176 
L 1414 2176 
z
" transform="scale(0.015625)"/>
       </defs>
       <use xlink:href="#CMR17-33" transform="scale(0.996264)"/>
       <use xlink:href="#CMR17-30" transform="translate(45.690477 0) scale(0.996264)"/>
       <use xlink:href="#CMR17-30" transform="translate(91.380954 0) scale(0.996264)"/>
       <use xlink:href="#CMR17-30" transform="translate(137.071431 0) scale(0.996264)"/>
      </g>
     </g>
    </g>
    <g id="xtick_8">
     <g id="line2d_8">
      <g>
       <use xlink:href="#m198293a11a" x="334.529173" y="228.96" style="stroke: #000000; stroke-width: 0.8"/>
      </g>
     </g>
     <g id="text_8">
      <!-- $\mathdefault{3500}$ -->
      <g transform="translate(324.566502 243.05832) scale(0.1 -0.1)">
       <use xlink:href="#CMR17-33" transform="scale(0.996264)"/>
       <use xlink:href="#CMR17-35" transform="translate(45.690477 0) scale(0.996264)"/>
       <use xlink:href="#CMR17-30" transform="translate(91.380954 0) scale(0.996264)"/>
       <use xlink:href="#CMR17-30" transform="translate(137.071431 0) scale(0.996264)"/>
      </g>
     </g>
    </g>
    <g id="text_9">
     <!-- Iteration -->
     <g transform="translate(187.019968 256.278627) scale(0.1 -0.1)">
      <defs>
       <path id="NimbusSanL-Regu-49" d="M 1242 4672 
L 640 4672 
L 640 0 
L 1242 0 
L 1242 4672 
z
" transform="scale(0.015625)"/>
       <path id="NimbusSanL-Regu-74" d="M 1626 3328 
L 1075 3328 
L 1075 4249 
L 544 4249 
L 544 3328 
L 90 3328 
L 90 2892 
L 544 2892 
L 544 402 
C 544 64 774 -128 1190 -128 
C 1318 -128 1446 -116 1626 -84 
L 1626 364 
C 1555 345 1472 339 1370 339 
C 1139 339 1075 402 1075 634 
L 1075 2892 
L 1626 2892 
L 1626 3328 
z
" transform="scale(0.015625)"/>
       <path id="NimbusSanL-Regu-65" d="M 3283 1484 
C 3283 1998 3245 2311 3149 2565 
C 2931 3123 2419 3456 1792 3456 
C 858 3456 256 2734 256 1619 
C 256 545 838 -128 1779 -128 
C 2547 -128 3078 307 3213 1018 
L 2675 1018 
C 2528 588 2227 364 1798 364 
C 1459 364 1171 514 992 787 
C 864 974 819 1161 813 1484 
L 3283 1484 
z
M 826 1920 
C 870 2552 1248 2963 1786 2963 
C 2310 2963 2714 2519 2714 1959 
C 2714 1946 2714 1933 2707 1920 
L 826 1920 
z
" transform="scale(0.015625)"/>
       <path id="NimbusSanL-Regu-72" d="M 442 3328 
L 442 0 
L 979 0 
L 979 1727 
C 979 2203 1101 2514 1357 2698 
C 1523 2819 1683 2857 2054 2863 
L 2054 3404 
C 1965 3449 1920 3456 1850 3456 
C 1504 3456 1242 3251 934 2750 
L 934 3328 
L 442 3328 
z
" transform="scale(0.015625)"/>
       <path id="NimbusSanL-Regu-61" d="M 3424 332 
C 3366 320 3341 320 3309 320 
C 3123 320 3021 415 3021 581 
L 3021 2542 
C 3021 3135 2586 3456 1760 3456 
C 1274 3456 870 3315 646 3065 
C 493 2893 429 2702 416 2370 
L 954 2370 
C 998 2778 1242 2963 1741 2963 
C 2221 2963 2490 2784 2490 2466 
L 2490 2326 
C 2490 2103 2355 2007 1933 1956 
C 1178 1861 1062 1835 858 1753 
C 467 1593 269 1294 269 861 
C 269 256 691 -128 1370 -128 
C 1792 -128 2131 19 2509 364 
C 2547 25 2714 -128 3059 -128 
C 3168 -128 3251 -116 3424 -71 
L 3424 332 
z
M 2490 1071 
C 2490 893 2438 785 2278 638 
C 2061 441 1798 339 1485 339 
C 1069 339 826 536 826 874 
C 826 1224 1062 1402 1632 1485 
C 2195 1562 2310 1587 2490 1670 
L 2490 1071 
z
" transform="scale(0.015625)"/>
       <path id="NimbusSanL-Regu-69" d="M 960 3358 
L 429 3358 
L 429 0 
L 960 0 
L 960 3358 
z
M 960 4672 
L 422 4672 
L 422 3999 
L 960 3999 
L 960 4672 
z
" transform="scale(0.015625)"/>
       <path id="NimbusSanL-Regu-6f" d="M 1741 3456 
C 800 3456 230 2784 230 1663 
C 230 543 794 -128 1747 -128 
C 2688 -128 3264 543 3264 1638 
C 3264 2791 2707 3456 1741 3456 
z
M 1747 2963 
C 2349 2963 2707 2472 2707 1644 
C 2707 861 2336 364 1747 364 
C 1152 364 787 855 787 1663 
C 787 2466 1152 2963 1747 2963 
z
" transform="scale(0.015625)"/>
       <path id="NimbusSanL-Regu-6e" d="M 448 3328 
L 448 0 
L 986 0 
L 986 1835 
C 986 2539 1344 2988 1894 2988 
C 2317 2988 2586 2732 2586 2328 
L 2586 0 
L 3117 0 
L 3117 2539 
C 3117 3097 2701 3456 2054 3456 
C 1555 3456 1235 3263 941 2796 
L 941 3328 
L 448 3328 
z
" transform="scale(0.015625)"/>
      </defs>
      <use xlink:href="#NimbusSanL-Regu-49" transform="scale(0.996264)"/>
      <use xlink:href="#NimbusSanL-Regu-74" transform="translate(27.69517 0) scale(0.996264)"/>
      <use xlink:href="#NimbusSanL-Regu-65" transform="translate(55.390339 0) scale(0.996264)"/>
      <use xlink:href="#NimbusSanL-Regu-72" transform="translate(110.782016 0) scale(0.996264)"/>
      <use xlink:href="#NimbusSanL-Regu-61" transform="translate(142.961149 0) scale(0.996264)"/>
      <use xlink:href="#NimbusSanL-Regu-74" transform="translate(198.352826 0) scale(0.996264)"/>
      <use xlink:href="#NimbusSanL-Regu-69" transform="translate(226.047996 0) scale(0.996264)"/>
      <use xlink:href="#NimbusSanL-Regu-6f" transform="translate(248.16478 0) scale(0.996264)"/>
      <use xlink:href="#NimbusSanL-Regu-6e" transform="translate(303.556457 0) scale(0.996264)"/>
     </g>
    </g>
   </g>
   <g id="matplotlib.axis_2">
    <g id="ytick_1">
     <g id="line2d_9">
      <defs>
       <path id="m29c0079c4a" d="M 0 0 
L -3.5 0 
" style="stroke: #000000; stroke-width: 0.8"/>
      </defs>
      <g>
       <use xlink:href="#m29c0079c4a" x="37.567344" y="194.179558" style="stroke: #000000; stroke-width: 0.8"/>
      </g>
     </g>
     <g id="text_10">
      <!-- $\mathdefault{5}$ -->
      <g transform="translate(25.586009 197.728719) scale(0.1 -0.1)">
       <use xlink:href="#CMR17-35" transform="scale(0.996264)"/>
      </g>
     </g>
    </g>
    <g id="ytick_2">
     <g id="line2d_10">
      <g>
       <use xlink:href="#m29c0079c4a" x="37.567344" y="158.467312" style="stroke: #000000; stroke-width: 0.8"/>
      </g>
     </g>
     <g id="text_11">
      <!-- $\mathdefault{10}$ -->
      <g transform="translate(20.604674 162.016472) scale(0.1 -0.1)">
       <use xlink:href="#CMR17-31" transform="scale(0.996264)"/>
       <use xlink:href="#CMR17-30" transform="translate(45.690477 0) scale(0.996264)"/>
      </g>
     </g>
    </g>
    <g id="ytick_3">
     <g id="line2d_11">
      <g>
       <use xlink:href="#m29c0079c4a" x="37.567344" y="122.755065" style="stroke: #000000; stroke-width: 0.8"/>
      </g>
     </g>
     <g id="text_12">
      <!-- $\mathdefault{15}$ -->
      <g transform="translate(20.604674 126.304225) scale(0.1 -0.1)">
       <use xlink:href="#CMR17-31" transform="scale(0.996264)"/>
       <use xlink:href="#CMR17-35" transform="translate(45.690477 0) scale(0.996264)"/>
      </g>
     </g>
    </g>
    <g id="ytick_4">
     <g id="line2d_12">
      <g>
       <use xlink:href="#m29c0079c4a" x="37.567344" y="87.042818" style="stroke: #000000; stroke-width: 0.8"/>
      </g>
     </g>
     <g id="text_13">
      <!-- $\mathdefault{20}$ -->
      <g transform="translate(20.604674 90.591978) scale(0.1 -0.1)">
       <use xlink:href="#CMR17-32" transform="scale(0.996264)"/>
       <use xlink:href="#CMR17-30" transform="translate(45.690477 0) scale(0.996264)"/>
      </g>
     </g>
    </g>
    <g id="ytick_5">
     <g id="line2d_13">
      <g>
       <use xlink:href="#m29c0079c4a" x="37.567344" y="51.330571" style="stroke: #000000; stroke-width: 0.8"/>
      </g>
     </g>
     <g id="text_14">
      <!-- $\mathdefault{25}$ -->
      <g transform="translate(20.604674 54.879731) scale(0.1 -0.1)">
       <use xlink:href="#CMR17-32" transform="scale(0.996264)"/>
       <use xlink:href="#CMR17-35" transform="translate(45.690477 0) scale(0.996264)"/>
      </g>
     </g>
    </g>
    <g id="ytick_6">
     <g id="line2d_14">
      <g>
       <use xlink:href="#m29c0079c4a" x="37.567344" y="15.618324" style="stroke: #000000; stroke-width: 0.8"/>
      </g>
     </g>
     <g id="text_15">
      <!-- $\mathdefault{30}$ -->
      <g transform="translate(20.604674 19.167484) scale(0.1 -0.1)">
       <use xlink:href="#CMR17-33" transform="scale(0.996264)"/>
       <use xlink:href="#CMR17-30" transform="translate(45.690477 0) scale(0.996264)"/>
      </g>
     </g>
    </g>
    <g id="text_16">
     <!-- Average CFL - Blade_1 -->
     <g transform="translate(14.482687 168.77932) rotate(-90) scale(0.1 -0.1)">
      <defs>
       <path id="NimbusSanL-Regu-41" d="M 3034 1408 
L 3514 0 
L 4179 0 
L 2541 4672 
L 1773 4672 
L 109 0 
L 742 0 
L 1235 1408 
L 3034 1408 
z
M 2867 1907 
L 1382 1907 
L 2150 4032 
L 2867 1907 
z
" transform="scale(0.015625)"/>
       <path id="NimbusSanL-Regu-76" d="M 1824 0 
L 3110 3328 
L 2509 3328 
L 1562 629 
L 666 3328 
L 64 3328 
L 1242 0 
L 1824 0 
z
" transform="scale(0.015625)"/>
       <path id="NimbusSanL-Regu-67" d="M 2637 3359 
L 2637 2873 
C 2368 3270 2042 3456 1613 3456 
C 762 3456 186 2714 186 1632 
C 186 1084 333 638 608 320 
C 858 38 1216 -128 1568 -128 
C 1990 -128 2285 51 2586 473 
L 2586 300 
C 2586 -155 2528 -441 2394 -634 
C 2253 -841 1978 -960 1651 -960 
C 1408 -960 1190 -894 1043 -774 
C 922 -674 870 -581 838 -375 
L 294 -375 
C 352 -1031 845 -1408 1632 -1408 
C 2131 -1408 2560 -1248 2778 -980 
C 3034 -661 3130 -222 3130 568 
L 3130 3359 
L 2637 3359 
z
M 1670 2963 
C 2246 2963 2586 2479 2586 1644 
C 2586 848 2240 364 1677 364 
C 1094 364 742 855 742 1663 
C 742 2466 1101 2963 1670 2963 
z
" transform="scale(0.015625)"/>
       <path id="NimbusSanL-Regu-43" d="M 4237 3219 
C 4051 4236 3462 4736 2438 4736 
C 1811 4736 1306 4537 960 4154 
C 538 3696 307 3035 307 2284 
C 307 1522 544 867 986 415 
C 1344 44 1805 -128 2413 -128 
C 3552 -128 4192 485 4333 1712 
L 3718 1712 
C 3667 1394 3603 1178 3507 994 
C 3315 612 2918 396 2419 396 
C 1491 396 902 1134 902 2291 
C 902 3480 1466 4211 2368 4211 
C 2746 4211 3098 4096 3290 3918 
C 3462 3759 3558 3562 3629 3219 
L 4237 3219 
z
" transform="scale(0.015625)"/>
       <path id="NimbusSanL-Regu-46" d="M 1171 2112 
L 3398 2112 
L 3398 2636 
L 1171 2636 
L 1171 4147 
L 3706 4147 
L 3706 4672 
L 576 4672 
L 576 0 
L 1171 0 
L 1171 2112 
z
" transform="scale(0.015625)"/>
       <path id="NimbusSanL-Regu-4c" d="M 1107 4672 
L 512 4672 
L 512 0 
L 3411 0 
L 3411 524 
L 1107 524 
L 1107 4672 
z
" transform="scale(0.015625)"/>
       <path id="NimbusSanL-Regu-2d" d="M 1818 1996 
L 294 1996 
L 294 1536 
L 1818 1536 
L 1818 1996 
z
" transform="scale(0.015625)"/>
       <path id="NimbusSanL-Regu-42" d="M 506 0 
L 2611 0 
C 3053 0 3379 121 3629 390 
C 3859 632 3987 961 3987 1321 
C 3987 1878 3731 2214 3136 2444 
C 3558 2643 3782 2994 3782 3476 
C 3782 3821 3654 4127 3411 4345 
C 3168 4569 2848 4672 2400 4672 
L 506 4672 
L 506 0 
z
M 1101 2636 
L 1101 4147 
L 2253 4147 
C 2586 4147 2771 4101 2931 3977 
C 3098 3847 3187 3652 3187 3391 
C 3187 3138 3098 2936 2931 2806 
C 2771 2682 2586 2636 2253 2636 
L 1101 2636 
z
M 1101 524 
L 1101 2112 
L 2554 2112 
C 2842 2112 3034 2042 3174 1890 
C 3315 1745 3392 1542 3392 1315 
C 3392 1093 3315 891 3174 746 
C 3034 594 2842 524 2554 524 
L 1101 524 
z
" transform="scale(0.015625)"/>
       <path id="NimbusSanL-Regu-6c" d="M 973 4672 
L 435 4672 
L 435 0 
L 973 0 
L 973 4672 
z
" transform="scale(0.015625)"/>
       <path id="NimbusSanL-Regu-64" d="M 3168 4672 
L 2637 4672 
L 2637 2937 
C 2413 3276 2054 3456 1606 3456 
C 736 3456 166 2759 166 1695 
C 166 568 723 -128 1626 -128 
C 2086 -128 2406 44 2694 460 
L 2694 19 
L 3168 19 
L 3168 4672 
z
M 1696 2956 
C 2272 2956 2637 2447 2637 1651 
C 2637 880 2266 371 1702 371 
C 1114 371 723 887 723 1663 
C 723 2440 1114 2956 1696 2956 
z
" transform="scale(0.015625)"/>
       <path id="NimbusSanL-Regu-31" d="M 1658 3232 
L 1658 0 
L 2221 0 
L 2221 4537 
L 1850 4537 
C 1651 3840 1523 3744 653 3635 
L 653 3232 
L 1658 3232 
z
" transform="scale(0.015625)"/>
      </defs>
      <use xlink:href="#NimbusSanL-Regu-41" transform="scale(0.996264)"/>
      <use xlink:href="#NimbusSanL-Regu-76" transform="translate(62.465918 0) scale(0.996264)"/>
      <use xlink:href="#NimbusSanL-Regu-65" transform="translate(109.788488 0) scale(0.996264)"/>
      <use xlink:href="#NimbusSanL-Regu-72" transform="translate(165.180165 0) scale(0.996264)"/>
      <use xlink:href="#NimbusSanL-Regu-61" transform="translate(197.359298 0) scale(0.996264)"/>
      <use xlink:href="#NimbusSanL-Regu-67" transform="translate(252.750975 0) scale(0.996264)"/>
      <use xlink:href="#NimbusSanL-Regu-65" transform="translate(308.142652 0) scale(0.996264)"/>
      <use xlink:href="#NimbusSanL-Regu-43" transform="translate(391.229499 0) scale(0.996264)"/>
      <use xlink:href="#NimbusSanL-Regu-46" transform="translate(463.159484 0) scale(0.996264)"/>
      <use xlink:href="#NimbusSanL-Regu-4c" transform="translate(524.031114 0) scale(0.996264)"/>
      <use xlink:href="#NimbusSanL-Regu-2d" transform="translate(607.117961 0) scale(0.996264)"/>
      <use xlink:href="#NimbusSanL-Regu-42" transform="translate(667.98836 0) scale(0.996264)"/>
      <use xlink:href="#NimbusSanL-Regu-6c" transform="translate(734.438391 0) scale(0.996264)"/>
      <use xlink:href="#NimbusSanL-Regu-61" transform="translate(756.555176 0) scale(0.996264)"/>
      <use xlink:href="#NimbusSanL-Regu-64" transform="translate(811.946853 0) scale(0.996264)"/>
      <use xlink:href="#NimbusSanL-Regu-65" transform="translate(867.33853 0) scale(0.996264)"/>
      <use xlink:href="#NimbusSanL-Regu-31" transform="translate(958.595772 0) scale(0.996264)"/>
      <path d="M 928.707548 0 
L 958.595772 0 
L 958.595772 0.3985 
L 928.707548 0.3985 
L 928.707548 0 
z
"/>
     </g>
    </g>
   </g>
   <g id="line2d_15">
    <path d="M 52.785526 128.05339 
L 52.946523 85.011755 
L 53.027021 215.4038 
L 53.107519 212.506199 
L 53.429512 193.841013 
L 53.751504 155.136882 
L 54.073497 75.060472 
L 54.153995 214.408672 
L 54.234494 211.312045 
L 54.556486 191.364815 
L 54.878479 150.002238 
L 55.28097 64.359593 
L 55.361468 31.358091 
L 55.441966 210.038434 
L 55.522464 206.06776 
L 55.844457 180.490264 
L 56.16645 127.454647 
L 56.407945 53.01813 
L 56.488443 212.204438 
L 56.568941 208.666964 
L 56.890934 185.879975 
L 57.212926 138.635851 
L 57.454421 72.426399 
L 57.534919 214.145265 
L 57.615417 210.995957 
L 57.93741 190.709373 
L 58.259403 148.695045 
L 58.581395 61.904411 
L 58.661894 213.093066 
L 58.742392 209.733318 
L 59.064385 188.091166 
L 59.386377 143.236161 
L 59.70837 50.36595 
L 59.788868 211.93922 
L 59.869366 208.348703 
L 60.191359 185.220028 
L 60.513352 137.286234 
L 60.915843 69.979764 
L 60.996341 213.900601 
L 61.076839 210.70236 
L 61.398832 190.100572 
L 61.720825 147.412398 
L 62.123316 87.455173 
L 62.203814 215.648142 
L 62.284312 212.799409 
L 62.606305 194.449013 
L 62.928297 156.402247 
L 63.25029 77.562808 
L 63.330788 214.658906 
L 63.411287 211.612326 
L 63.733279 191.987476 
L 64.055272 151.306434 
L 64.377265 67.034493 
L 64.457763 213.606074 
L 64.538261 210.348928 
L 64.860254 189.367695 
L 65.182247 145.861836 
L 65.423741 84.688177 
L 65.504239 215.371442 
L 65.584738 212.46737 
L 65.90673 193.760496 
L 66.228723 154.969922 
L 66.470218 100.426792 
L 66.550716 216.945304 
L 66.631214 214.356004 
L 66.953207 197.676767 
L 67.275199 163.090702 
L 67.67769 91.373037 
L 67.758189 63.669284 
L 67.838687 213.269553 
L 67.919185 209.945103 
L 68.241178 188.530323 
L 68.56317 144.124635 
L 68.804665 81.686135 
L 68.885163 215.071238 
L 68.965661 212.107125 
L 69.287654 193.013492 
L 69.609647 153.420935 
L 69.770643 119.773752 
L 69.851141 218.88 
L 69.93164 216.677639 
L 70.253632 202.49091 
L 70.575625 173.073308 
L 70.897618 112.07297 
L 70.978116 88.510512 
L 71.058614 215.753676 
L 71.139112 212.92605 
L 71.461105 194.711615 
L 71.783098 156.942163 
L 72.105091 78.635068 
L 72.185589 48.403517 
L 72.266087 211.742976 
L 72.346585 208.113211 
L 72.668578 184.731712 
L 72.990571 136.247835 
L 73.47356 35.711668 
L 73.554058 210.473792 
L 73.634556 206.590189 
L 73.956549 181.573573 
L 74.278542 129.69912 
L 74.520036 56.758844 
L 74.600534 212.578509 
L 74.681032 209.11585 
L 75.003025 186.810784 
L 75.325018 140.559 
L 75.647011 44.659954 
L 75.727509 211.36862 
L 75.808007 207.663983 
L 76.13 183.800193 
L 76.451993 134.316238 
L 76.773985 31.707018 
L 76.854483 210.073327 
L 76.934982 206.109631 
L 77.256974 180.577088 
L 77.578967 127.632808 
L 77.820462 53.188258 
L 77.90096 212.221451 
L 77.981458 208.68738 
L 78.303451 185.922308 
L 78.625443 138.716656 
L 78.947436 40.831016 
L 79.027934 210.985726 
L 79.108433 207.204511 
L 79.430425 182.847431 
L 79.752418 132.340591 
L 79.993913 61.323306 
L 80.074411 213.034955 
L 80.154909 209.663585 
L 80.476902 187.946569 
L 80.798894 142.914162 
L 81.120887 49.534965 
L 81.201385 211.856121 
L 81.281884 208.248984 
L 81.603876 185.013252 
L 81.925869 136.831637 
L 82.167364 69.083835 
L 82.247862 213.811008 
L 82.32836 210.594849 
L 82.650353 189.877636 
L 82.972345 146.918425 
L 83.294338 57.838203 
L 83.374836 212.686445 
L 83.455335 209.245373 
L 83.777327 187.079363 
L 84.09932 141.115926 
L 84.421313 45.806141 
L 84.501811 211.483239 
L 84.582309 207.801526 
L 84.904302 184.085401 
L 85.226295 134.907646 
L 85.628786 65.759178 
L 85.950778 65.759178 
L 86.031276 32.932653 
L 86.111775 210.19589 
L 86.192273 206.256707 
L 86.514266 180.882065 
L 86.836258 128.265209 
L 87.077753 54.281047 
L 87.158251 212.330729 
L 87.238749 208.818514 
L 87.560742 186.194229 
L 87.882735 139.280511 
L 88.204727 42.000226 
L 88.285226 211.102647 
L 88.365724 207.344816 
L 88.687717 183.138368 
L 89.009709 132.943877 
L 89.4122 62.365785 
L 89.895189 62.365785 
L 89.975688 28.860581 
L 90.056186 209.788683 
L 90.136684 205.768058 
L 90.458677 179.868804 
L 90.780669 126.164109 
L 91.022164 50.650347 
L 91.102662 211.967659 
L 91.18316 208.38283 
L 91.505153 185.290795 
L 91.827146 137.40715 
L 92.149139 38.115623 
L 92.229637 210.714187 
L 92.310135 206.878664 
L 92.632128 182.171754 
L 92.95412 130.939508 
L 93.356611 24.704321 
L 93.437109 209.373057 
L 93.517608 205.269307 
L 93.8396 178.834593 
L 94.161593 124.01957 
L 94.403088 46.944583 
L 94.483586 211.597083 
L 94.564084 207.938139 
L 94.886077 184.368682 
L 95.20807 135.495057 
L 95.449564 66.774225 
L 95.530062 213.580047 
L 95.61056 210.317696 
L 95.932553 189.302931 
L 96.254546 145.726717 
L 96.576539 55.367077 
L 96.657037 212.439333 
L 96.737535 208.948838 
L 97.059528 186.464468 
L 97.381521 139.840879 
L 97.623015 74.283805 
L 97.703513 214.331005 
L 97.784011 211.218845 
L 98.106004 191.171555 
L 98.427997 149.601495 
L 98.74999 63.401818 
L 98.830488 213.242807 
L 98.910986 209.913007 
L 99.232979 188.463769 
L 99.554972 143.986629 
L 99.957462 51.758831 
L 100.037961 212.078508 
L 100.118459 208.515848 
L 100.440452 185.566621 
L 100.762444 137.979103 
L 101.003939 71.066656 
L 101.084437 214.00929 
L 101.164935 210.832787 
L 101.486928 190.371026 
L 101.808921 147.941517 
L 102.130913 59.959687 
L 102.211412 212.898594 
L 102.29191 209.499951 
L 102.613903 187.607256 
L 102.935895 142.210565 
L 103.418884 48.075985 
L 103.499383 211.710223 
L 103.579881 208.073907 
L 103.901873 184.650211 
L 104.223866 136.078836 
L 104.465361 67.782994 
L 104.545859 213.680924 
L 104.626357 210.438748 
L 104.94835 189.553945 
L 105.270343 146.247219 
L 105.592335 56.446391 
L 105.672834 212.547264 
L 105.753332 209.078356 
L 106.075324 186.733036 
L 106.397317 140.397781 
L 106.71931 44.316997 
L 106.799808 211.334325 
L 106.880306 207.622828 
L 107.202299 183.714855 
L 107.524292 134.139281 
L 107.765786 64.433995 
L 107.846285 213.346024 
L 107.926783 210.036868 
L 108.248775 188.720608 
L 108.570768 144.51921 
L 108.892761 52.863191 
L 108.973259 212.188944 
L 109.053757 208.648372 
L 109.37575 185.841421 
L 109.697743 138.548929 
L 110.019736 40.483216 
L 110.100234 210.950946 
L 110.180732 207.162775 
L 110.502725 182.760887 
L 110.824717 132.161134 
L 111.227208 27.249365 
L 111.307706 209.627561 
L 111.388205 205.574713 
L 111.710197 179.467882 
L 112.03219 125.332757 
L 112.273685 49.241089 
L 112.354183 211.826734 
L 112.434681 208.213719 
L 112.756674 184.940126 
L 113.078667 136.680003 
L 113.561656 36.623919 
L 113.642154 210.565017 
L 113.722652 206.699659 
L 114.044645 181.800571 
L 114.366637 130.169821 
L 114.608132 57.572216 
L 114.68863 212.659846 
L 114.769128 209.213455 
L 115.091121 187.013177 
L 115.413114 140.978682 
L 115.654608 76.249929 
L 115.735107 214.527618 
L 115.815605 211.45478 
L 116.137598 191.66079 
L 116.45959 150.615972 
L 116.862081 65.505437 
L 116.942579 32.628163 
L 117.023078 210.165441 
L 117.103576 206.220168 
L 117.425569 180.806299 
L 117.747561 128.108099 
L 117.989056 54.00956 
L 118.069554 212.303581 
L 118.150052 208.785936 
L 118.472045 186.126675 
L 118.794038 139.14043 
L 119.11603 41.709754 
L 119.196529 211.0736 
L 119.277027 207.309959 
L 119.59902 183.066089 
L 119.921012 132.794 
L 120.162507 62.106798 
L 120.243005 213.113305 
L 120.323503 209.757604 
L 120.645496 188.141526 
L 120.967489 143.318427 
L 121.289481 50.373248 
L 121.36998 211.93995 
L 121.450478 208.349578 
L 121.77247 185.221844 
L 122.094463 137.264173 
L 122.335958 69.831256 
L 122.416456 213.88575 
L 122.496954 210.684539 
L 122.818947 190.063619 
L 123.14094 147.304078 
L 123.462932 58.643619 
L 123.543431 212.766987 
L 123.623929 209.342023 
L 123.945921 187.279777 
L 124.267914 141.531503 
L 124.509409 77.205203 
L 124.589907 214.623145 
L 124.670405 211.569413 
L 124.992398 191.898493 
L 125.314391 151.108872 
L 125.636383 66.546676 
L 125.716882 213.557292 
L 125.79738 210.29039 
L 126.119372 189.24631 
L 126.441365 145.609306 
L 126.843856 55.178754 
L 126.924354 212.4205 
L 127.004852 208.926239 
L 127.326845 186.417607 
L 127.648838 139.743708 
L 128.131827 43.006632 
L 128.212325 211.203288 
L 128.292823 207.465585 
L 128.614816 183.388794 
L 128.936809 133.463161 
L 129.178303 63.263108 
L 129.258802 213.228936 
L 129.3393 209.896362 
L 129.661293 188.429253 
L 129.983285 143.915057 
L 130.305278 51.610421 
L 130.385776 212.063667 
L 130.466274 208.498039 
L 130.788267 185.529692 
L 131.11026 137.902527 
L 131.351754 70.934332 
L 131.432253 213.996058 
L 131.512751 210.816909 
L 131.834744 190.338099 
L 132.156736 147.873241 
L 132.478729 59.820349 
L 132.559227 212.88466 
L 132.639725 209.483231 
L 132.961718 187.572585 
L 133.283711 142.13867 
L 133.605704 47.926903 
L 133.686202 211.695315 
L 133.7667 208.056017 
L 134.088693 184.613115 
L 134.410685 136.001913 
L 134.813176 35.201724 
L 134.893675 210.422797 
L 134.974173 206.528996 
L 135.296166 181.446683 
L 135.618158 129.436 
L 135.859653 56.304173 
L 135.940151 212.533042 
L 136.020649 209.061289 
L 136.342642 186.697648 
L 136.664635 140.3244 
L 136.986627 44.164833 
L 137.067126 211.319108 
L 137.147624 207.604569 
L 137.469617 183.676991 
L 137.791609 134.060767 
L 138.113602 31.176565 
L 138.1941 210.020281 
L 138.274598 206.045976 
L 138.596591 180.445095 
L 138.918584 127.359106 
L 139.321075 17.28 
L 139.401573 208.630625 
L 139.482071 204.378389 
L 139.804064 176.987185 
L 140.126057 120.188784 
L 140.367551 40.324984 
L 140.448049 210.935123 
L 140.528548 207.143787 
L 140.85054 182.721514 
L 141.172533 132.079489 
L 141.494526 27.068187 
L 141.575024 209.609443 
L 141.655522 205.552971 
L 141.977515 179.422799 
L 142.299508 125.239273 
L 142.541002 49.05223 
L 142.6215 211.807848 
L 142.701999 208.191056 
L 143.023991 184.893132 
L 143.345984 136.582556 
L 143.667977 36.405747 
L 143.748475 210.543199 
L 143.828973 206.673478 
L 144.150966 181.746282 
L 144.472959 130.057249 
L 144.714453 57.377692 
L 144.794951 212.640394 
L 144.87545 209.190112 
L 145.197442 186.964774 
L 145.519435 140.878312 
L 145.841428 45.313426 
L 145.921926 211.433967 
L 146.002424 207.7424 
L 146.324417 183.962798 
L 146.64641 134.653416 
L 147.0489 65.319868 
L 147.451391 65.319868 
L 147.53189 213.434612 
L 147.612388 210.143173 
L 147.934381 188.941041 
L 148.256373 144.9763 
L 148.578366 53.811015 
L 148.658864 212.283726 
L 148.739362 208.76211 
L 149.061355 186.07727 
L 149.383348 139.037985 
L 149.785839 72.896404 
L 151.395802 72.896404 
L 151.476301 214.192265 
L 151.556799 211.052357 
L 151.878792 190.826326 
L 152.200784 148.885626 
L 152.522777 61.917393 
L 152.603275 213.094364 
L 152.683773 209.734876 
L 153.005766 188.094396 
L 153.327759 143.220698 
L 153.73025 80.124132 
L 153.810748 80.124132 
L 153.891246 50.170597 
L 153.971744 211.919685 
L 154.052243 208.32526 
L 154.374235 185.171418 
L 154.696228 137.159609 
L 154.937723 69.650571 
L 155.018221 213.867682 
L 155.098719 210.662857 
L 155.420712 190.018658 
L 155.742704 147.210848 
L 156.064697 58.444572 
L 156.145195 212.747082 
L 156.225694 209.318137 
L 156.547686 187.230247 
L 156.869679 141.428799 
L 157.352668 46.454915 
L 157.433166 211.548116 
L 157.513664 207.879378 
L 157.835657 184.246837 
L 158.15765 135.242399 
L 158.399145 66.337631 
L 158.479643 213.536388 
L 158.560141 210.265304 
L 158.882134 189.194293 
L 159.204126 145.501444 
L 159.606617 54.899952 
L 159.687115 212.39262 
L 159.767614 208.892783 
L 160.089606 186.348232 
L 160.411599 139.599853 
L 160.81409 42.662412 
L 160.894588 211.168866 
L 160.975086 207.424278 
L 161.297079 183.303141 
L 161.619072 133.285551 
L 161.860566 62.956198 
L 161.941065 213.198245 
L 162.021563 209.859532 
L 162.343556 188.352884 
L 162.665548 143.756699 
L 163.068039 81.050341 
L 164.114516 81.050341 
L 164.195014 51.282048 
L 164.275512 212.03083 
L 164.35601 208.458634 
L 164.678003 185.447982 
L 164.999996 137.733094 
L 165.24149 70.641552 
L 165.321988 213.96678 
L 165.402487 210.781775 
L 165.724479 190.265246 
L 166.046472 147.722172 
L 166.368465 59.504854 
L 166.448963 212.85311 
L 166.529461 209.445371 
L 166.851454 187.49408 
L 167.173447 141.975881 
L 167.575938 77.973088 
L 171.43985 77.973088 
L 171.520349 47.589345 
L 171.600847 211.661559 
L 171.681345 208.01551 
L 172.003338 184.529119 
L 172.32533 135.82774 
L 172.566825 67.3491 
L 172.647323 213.637535 
L 172.727821 210.386681 
L 173.049814 189.445979 
L 173.371807 146.02334 
L 173.6938 55.982155 
L 173.774298 212.50084 
L 173.854796 209.022647 
L 174.176789 186.617519 
L 174.498781 140.158246 
L 174.740276 74.832214 
L 174.820774 214.385846 
L 174.901272 211.284654 
L 175.223265 191.308017 
L 175.545258 149.884462 
L 175.867251 63.988579 
L 175.947749 213.301483 
L 176.028247 209.983418 
L 176.35024 188.609774 
L 176.672232 144.289384 
L 177.074723 52.386625 
L 177.155222 212.141287 
L 177.23572 208.591184 
L 177.557712 185.722836 
L 177.879705 138.303031 
L 178.1212 71.626404 
L 178.201698 214.065265 
L 178.282196 210.899957 
L 178.604189 190.510309 
L 178.926182 148.230334 
L 179.248174 60.558579 
L 179.328673 212.958483 
L 179.409171 209.571818 
L 179.731163 187.75628 
L 180.053156 142.51958 
L 180.294651 78.9126 
L 180.375149 214.793885 
L 180.455647 211.774301 
L 180.77764 192.323348 
L 181.099633 151.989852 
L 181.421625 68.354314 
L 181.502124 213.738056 
L 181.582622 210.507306 
L 181.904614 189.696108 
L 182.226607 146.542008 
L 182.629098 57.057666 
L 182.709596 212.608391 
L 182.790094 209.151709 
L 183.112087 186.885141 
L 183.43408 140.713186 
L 183.675575 75.79115 
L 183.756073 214.48174 
L 183.836571 211.399727 
L 184.158564 191.546631 
L 184.480556 150.379252 
L 184.802549 65.014575 
L 184.883047 213.404082 
L 184.963545 210.106538 
L 185.285538 188.865074 
L 185.607531 144.818776 
L 186.010022 82.885611 
L 186.654007 82.885611 
L 186.734506 53.484372 
L 186.815004 212.251062 
L 186.895502 208.722913 
L 187.217495 185.995991 
L 187.539487 138.869444 
L 187.780982 72.605165 
L 187.86148 214.163141 
L 187.941978 211.017409 
L 188.263971 190.753856 
L 188.585964 148.735354 
L 188.907957 61.605788 
L 188.988455 213.063204 
L 189.068953 209.697483 
L 189.390946 188.016859 
L 189.712938 143.059917 
L 189.954433 79.846302 
L 190.034931 214.887255 
L 190.115429 211.886345 
L 190.437422 192.555683 
L 190.759415 152.471621 
L 191.081408 69.353311 
L 191.161906 213.837956 
L 191.242404 210.627186 
L 191.564397 189.944691 
L 191.886389 147.057469 
L 192.28888 58.126525 
L 192.369378 212.715277 
L 192.449877 209.279972 
L 192.771869 187.151107 
L 193.093862 141.264693 
L 193.335357 76.744156 
L 193.415855 214.57704 
L 193.496353 211.514087 
L 193.818346 191.783769 
L 194.140339 150.870982 
L 194.462331 66.034226 
L 194.542829 213.506047 
L 194.623328 210.228896 
L 194.94532 189.118796 
L 195.267313 145.344894 
L 195.589306 54.575329 
L 195.669804 212.360158 
L 195.750302 208.853828 
L 196.072295 186.267456 
L 196.394288 139.432354 
L 196.635782 73.577874 
L 196.71628 214.260412 
L 196.796779 211.134134 
L 197.118771 190.995897 
L 197.440764 149.23725 
L 197.762757 62.64652 
L 197.843255 213.167277 
L 197.923753 209.822371 
L 198.245746 188.275826 
L 198.567739 143.596912 
L 199.050728 50.950714 
L 199.131226 211.997696 
L 199.211724 208.418874 
L 199.533717 185.365536 
L 199.85571 137.562132 
L 200.097204 70.34613 
L 200.177702 213.937238 
L 200.258201 210.746324 
L 200.580193 190.191736 
L 200.902186 147.569742 
L 201.224179 59.188774 
L 201.304677 212.821502 
L 201.385175 209.407442 
L 201.707168 187.415429 
L 202.029161 141.812791 
L 202.270655 77.691268 
L 202.351153 214.671752 
L 202.431652 211.627741 
L 202.753644 192.019441 
L 203.075637 151.359671 
L 203.39763 67.047571 
L 203.478128 213.607382 
L 203.558626 210.350497 
L 203.880619 189.370949 
L 204.202612 145.867758 
L 204.605103 55.65954 
L 204.685601 212.468579 
L 204.766099 208.983933 
L 205.088092 186.537242 
L 205.410084 139.991783 
L 205.651579 74.544567 
L 205.732077 214.357082 
L 205.812575 211.250137 
L 206.134568 191.236441 
L 206.456561 149.736043 
L 206.778554 63.680816 
L 206.859052 213.270706 
L 206.93955 209.946487 
L 207.261543 188.533192 
L 207.583535 144.130586 
L 207.986026 52.05734 
L 208.066524 212.108359 
L 208.147023 208.551669 
L 208.469015 185.6409 
L 208.791008 138.133127 
L 209.032503 71.33281 
L 209.113001 214.035906 
L 209.193499 210.864726 
L 209.515492 190.437253 
L 209.837485 148.078846 
L 210.159477 60.244453 
L 210.239975 212.92707 
L 210.320474 209.534123 
L 210.642466 187.678115 
L 210.964459 142.357498 
L 211.205954 78.632522 
L 211.286452 214.765877 
L 211.36695 211.740691 
L 211.688943 192.253655 
L 212.010936 151.845338 
L 212.332928 68.05465 
L 212.413426 213.70809 
L 212.493925 210.471347 
L 212.815917 189.621542 
L 213.13791 146.387388 
L 213.540401 56.737045 
L 213.620899 212.576329 
L 213.701397 209.113234 
L 214.02339 186.80536 
L 214.345383 140.547753 
L 214.586877 75.505282 
L 214.667376 214.453153 
L 214.747874 211.365423 
L 215.069867 191.475498 
L 215.391859 150.23175 
L 215.713852 64.708715 
L 215.79435 213.373496 
L 215.874848 210.069835 
L 216.196841 188.788967 
L 216.518834 144.660959 
L 216.921325 53.157123 
L 217.001823 212.218337 
L 217.082321 208.683643 
L 217.404314 185.914561 
L 217.726307 138.700591 
L 217.967801 72.313387 
L 218.048299 214.133964 
L 218.128798 210.982395 
L 218.45079 190.681252 
L 218.772783 148.584803 
L 219.094776 61.293605 
L 219.175274 213.031985 
L 219.255772 209.660021 
L 219.577765 187.939178 
L 219.899758 142.898837 
L 220.141252 79.567956 
L 220.22175 214.85942 
L 220.302249 211.852943 
L 220.624241 192.486421 
L 220.946234 152.328001 
L 221.268227 69.055501 
L 221.348725 213.808175 
L 221.429223 210.591449 
L 221.751216 189.870586 
L 222.073209 146.903805 
L 222.4757 57.807887 
L 222.556198 212.683414 
L 222.636696 209.241735 
L 222.958689 187.07182 
L 223.280681 141.100283 
L 223.522176 76.460055 
L 223.602674 214.54863 
L 223.683172 211.479995 
L 224.005165 191.713076 
L 224.327158 150.724393 
L 224.649151 65.730258 
L 224.729649 213.475651 
L 224.810147 210.19242 
L 225.13214 189.043159 
L 225.454132 145.188053 
L 225.695627 83.523721 
L 225.776125 215.254997 
L 225.856623 212.327635 
L 226.178616 193.470742 
L 226.500609 154.369089 
L 226.822602 73.2879 
L 226.9031 214.231415 
L 226.983598 211.099337 
L 227.305591 190.923742 
L 227.627583 149.08763 
L 227.949576 62.336267 
L 228.030074 213.136252 
L 228.110572 209.785141 
L 228.432565 188.198626 
L 228.754558 143.436828 
L 229.157049 80.497605 
L 232.457474 80.497605 
L 232.537973 214.952385 
L 232.618471 211.964501 
L 232.940464 192.717748 
L 233.262456 152.807679 
L 233.584449 70.050161 
L 233.664947 213.907641 
L 233.745445 210.710808 
L 234.067438 190.118089 
L 234.389431 147.417028 
L 234.791922 58.872107 
L 234.87242 212.789836 
L 234.952918 209.369442 
L 235.274911 187.336632 
L 235.596904 141.649397 
L 235.838398 77.408924 
L 235.918896 214.643517 
L 235.999395 211.59386 
L 236.321387 191.949185 
L 236.64338 151.213988 
L 236.965373 66.745483 
L 237.045871 213.577173 
L 237.126369 210.314247 
L 237.448362 189.29578 
L 237.770355 145.711887 
L 238.172846 84.428906 
L 239.29982 84.428906 
L 239.380318 55.336326 
L 239.460817 212.436257 
L 239.541315 208.945148 
L 239.863307 186.456816 
L 240.1853 139.825012 
L 240.426795 74.256387 
L 240.507293 214.328263 
L 240.587791 211.215555 
L 240.909784 191.164733 
L 241.231777 149.587348 
L 241.553769 63.372482 
L 241.634268 213.239873 
L 241.714766 209.909487 
L 242.036758 188.456469 
L 242.358751 143.971492 
L 242.600246 81.421504 
L 242.680744 215.044775 
L 242.761242 212.075369 
L 243.083235 192.947643 
L 243.405228 153.284391 
L 243.72722 71.038671 
L 243.807719 214.006492 
L 243.888217 210.829429 
L 244.210209 190.364062 
L 244.532202 147.927077 
L 244.854195 59.929745 
L 244.934693 212.895599 
L 245.015191 209.496358 
L 245.337184 187.599806 
L 245.659177 142.195115 
L 246.061668 78.351925 
L 246.86665 78.351925 
L 246.947148 214.737817 
L 247.027646 211.70702 
L 247.349639 192.183834 
L 247.671631 151.700556 
L 247.993624 67.75443 
L 248.074122 213.678068 
L 248.15462 210.43532 
L 248.476613 189.546838 
L 248.798606 146.232481 
L 249.281595 56.41583 
L 249.362093 212.544208 
L 249.442591 209.074688 
L 249.764584 186.725432 
L 250.086577 140.382013 
L 250.328071 75.218884 
L 250.40857 214.424513 
L 250.489068 211.331055 
L 250.811061 191.404233 
L 251.133053 150.083975 
L 251.455046 64.402288 
L 251.535544 213.342854 
L 251.616042 210.033063 
L 251.938035 188.712718 
L 252.260028 144.50285 
L 252.501522 82.33969 
L 252.582021 215.136594 
L 252.662519 212.185551 
L 252.984512 193.176117 
L 253.306504 153.758155 
L 253.628497 72.021067 
L 253.708995 214.104732 
L 253.789493 210.947317 
L 254.111486 190.608514 
L 254.433479 148.433972 
L 254.755472 60.980842 
L 254.83597 213.000709 
L 254.916468 209.62249 
L 255.238461 187.861353 
L 255.560453 142.737459 
L 255.962944 49.168552 
L 256.043443 211.81948 
L 256.123941 208.205015 
L 256.445934 184.922077 
L 256.767926 136.642576 
L 257.009421 68.757137 
L 257.089919 213.778339 
L 257.170417 210.555645 
L 257.49241 189.796344 
L 257.814403 146.749856 
L 258.216894 86.222517 
L 258.699883 86.222517 
L 258.780381 57.488659 
L 258.860879 212.651491 
L 258.941377 209.203428 
L 259.26337 186.992386 
L 259.585363 140.935569 
L 259.826857 76.175428 
L 259.907355 214.520168 
L 259.987854 211.44584 
L 260.309846 191.642252 
L 260.631839 150.577531 
L 260.953832 65.425726 
L 261.03433 213.445197 
L 261.114828 210.155876 
L 261.436821 188.967382 
L 261.758814 145.030921 
L 262.000308 83.252197 
L 262.080806 215.227845 
L 262.161305 212.295052 
L 262.483297 193.403178 
L 262.80529 154.228988 
L 263.127283 72.997388 
L 263.207781 214.202364 
L 263.288279 211.064475 
L 263.610272 190.851454 
L 263.932265 148.937732 
L 264.334756 62.025439 
L 264.415254 213.105169 
L 264.495752 209.747841 
L 264.817745 188.121282 
L 265.139737 143.276448 
L 265.542228 50.2862 
L 265.622727 211.931245 
L 265.703225 208.339133 
L 266.025217 185.200183 
L 266.34721 137.219258 
L 266.588705 69.753643 
L 266.669203 213.877989 
L 266.749701 210.675226 
L 267.071694 190.044306 
L 267.393687 147.264031 
L 267.715679 58.554853 
L 267.796178 212.75811 
L 267.876676 209.331371 
L 268.198668 187.257689 
L 268.520661 141.485701 
L 268.762156 77.126057 
L 268.842654 214.615231 
L 268.923152 211.559916 
L 269.245145 191.878799 
L 269.567138 151.068035 
L 269.88913 66.442835 
L 269.969629 213.546908 
L 270.050127 210.277929 
L 270.372119 189.220471 
L 270.694112 145.555727 
L 271.096603 84.159061 
L 271.177101 84.159061 
L 271.257599 55.012513 
L 271.338098 212.403876 
L 271.418596 208.90629 
L 271.740589 186.376241 
L 272.062581 139.657931 
L 272.304076 73.967671 
L 272.384574 214.299392 
L 272.465072 211.180909 
L 272.787065 191.092891 
L 273.109058 149.438377 
L 273.43105 63.063576 
L 273.511549 213.208982 
L 273.592047 209.872418 
L 273.91404 188.379603 
L 274.236032 143.812104 
L 274.477527 81.146081 
L 274.558025 215.017233 
L 274.638523 212.042318 
L 274.960516 192.879109 
L 275.282509 153.142279 
L 275.604501 70.743987 
L 275.685 213.977023 
L 275.765498 210.794067 
L 276.087491 190.290735 
L 276.409483 147.775027 
L 276.731476 59.614453 
L 276.811974 212.86407 
L 276.892472 209.458523 
L 277.214465 187.521351 
L 277.536458 142.032431 
L 277.858451 47.706608 
L 277.938949 211.673286 
L 278.019447 208.029582 
L 278.34144 184.558298 
L 278.663432 135.888245 
L 278.904927 67.453653 
L 278.985425 213.64799 
L 279.065923 210.399227 
L 279.387916 189.471995 
L 279.709909 146.077287 
L 280.031902 56.09402 
L 280.1124 212.512027 
L 280.192898 209.036071 
L 280.514891 186.645355 
L 280.836883 140.215965 
L 281.078378 74.931954 
L 281.158876 214.39582 
L 281.239374 211.296623 
L 281.561367 191.332836 
L 281.88336 149.935926 
L 282.205353 64.095293 
L 282.285851 213.312154 
L 282.366349 209.996224 
L 282.688342 188.636328 
L 283.010334 144.344447 
L 283.412825 82.06597 
L 285.183785 82.06597 
L 285.264284 52.500802 
L 285.344782 212.152705 
L 285.42528 208.604885 
L 285.747273 185.751247 
L 286.069265 138.361944 
L 286.552255 40.095485 
L 286.632753 210.912173 
L 286.713251 207.116247 
L 287.035244 182.664407 
L 287.357236 131.961073 
L 287.598731 60.6675 
L 287.679229 212.969375 
L 287.759727 209.584889 
L 288.08172 187.783383 
L 288.403713 142.575781 
L 288.725706 48.833297 
L 288.806204 211.785954 
L 288.886702 208.164784 
L 289.208695 184.838655 
L 289.530687 136.469592 
L 289.772182 68.45822 
L 289.85268 213.748447 
L 289.933178 210.519775 
L 290.255171 189.721964 
L 290.577164 146.595621 
L 291.060153 57.168838 
L 291.140651 212.619509 
L 291.221149 209.165049 
L 291.543142 186.912804 
L 291.865135 140.770548 
L 292.106629 75.890273 
L 292.187128 214.491652 
L 292.267626 211.411621 
L 292.589618 191.571296 
L 292.911611 150.430397 
L 293.233604 65.120629 
L 293.314102 213.414688 
L 293.3946 210.119264 
L 293.716593 188.891464 
L 294.038586 144.873498 
L 294.28008 82.98017 
L 294.360578 215.200642 
L 294.441077 212.262409 
L 294.763069 193.335489 
L 295.085062 154.088628 
L 295.407055 72.706337 
L 295.487553 214.173259 
L 295.568051 211.029549 
L 295.890044 190.779031 
L 296.212037 148.787556 
L 296.534029 61.714035 
L 296.614528 213.074028 
L 296.695026 209.710473 
L 297.017019 188.043794 
L 297.339011 143.11577 
L 297.661004 49.953018 
L 297.741502 211.897927 
L 297.822 208.299151 
L 298.143993 185.117277 
L 298.465986 137.047343 
L 298.868477 37.369529 
L 298.948975 210.639578 
L 299.029473 206.789132 
L 299.351466 181.986102 
L 299.673459 130.554539 
L 299.914953 58.23701 
L 299.995451 212.726326 
L 300.07595 209.29323 
L 300.397942 187.178599 
L 300.719935 141.321701 
L 300.96143 76.842665 
L 301.041928 214.586891 
L 301.122426 211.525909 
L 301.444419 191.808282 
L 301.766411 150.921811 
L 302.088404 66.139625 
L 302.168902 213.516587 
L 302.249401 210.241544 
L 302.571393 189.145023 
L 302.893386 145.399277 
L 303.376375 54.688098 
L 303.456873 212.371435 
L 303.537372 208.867361 
L 303.859364 186.295517 
L 304.181357 139.490541 
L 304.422852 73.67842 
L 304.50335 214.270467 
L 304.583848 211.146199 
L 304.905841 191.020916 
L 305.227833 149.28913 
L 305.710823 62.754098 
L 305.791321 213.178035 
L 305.871819 209.83528 
L 306.193812 188.302595 
L 306.515804 143.652419 
L 306.757299 80.870146 
L 306.837797 214.989639 
L 306.918295 212.009206 
L 307.240288 192.810448 
L 307.562281 152.999902 
L 307.884274 70.448756 
L 307.964772 213.9475 
L 308.04527 210.758639 
L 308.367263 190.217272 
L 308.689255 147.622694 
L 309.011248 59.298576 
L 309.091746 212.832482 
L 309.172244 209.420618 
L 309.494237 187.442751 
L 309.81623 141.869446 
L 310.138223 47.368641 
L 310.218721 211.639489 
L 310.299219 207.989026 
L 310.621212 184.474201 
L 310.943205 135.713861 
L 311.345695 67.152318 
L 311.426194 213.617857 
L 311.506692 210.363067 
L 311.828685 189.397013 
L 312.150677 145.921805 
L 312.47267 55.771612 
L 312.553168 212.479786 
L 312.633666 208.997382 
L 312.955659 186.565129 
L 313.277652 140.04961 
L 313.519146 74.644492 
L 313.599645 214.367074 
L 313.680143 211.262128 
L 314.002136 191.261306 
L 314.324128 149.787601 
L 314.646121 63.787728 
L 314.726619 213.281398 
L 314.807117 209.959316 
L 315.12911 188.559796 
L 315.451103 144.18575 
L 315.692597 81.791742 
L 315.773096 215.081799 
L 315.853594 212.119798 
L 316.175587 193.03977 
L 316.497579 153.475425 
L 316.819572 71.4348 
L 316.90007 214.046105 
L 316.980568 210.876965 
L 317.302561 190.462632 
L 317.624554 148.131471 
L 318.027045 60.353576 
L 318.107543 212.937982 
L 318.188041 209.547218 
L 318.510034 187.705269 
L 318.832027 142.413803 
L 319.154019 48.49742 
L 319.234518 211.752367 
L 319.315016 208.124479 
L 319.637008 184.755078 
L 319.959001 136.296287 
L 320.280994 35.812138 
L 320.361492 210.483839 
L 320.44199 206.602245 
L 320.763983 181.598574 
L 321.085976 129.75096 
L 321.32747 56.848424 
L 321.407969 212.587467 
L 321.488467 209.1266 
L 321.810459 186.833075 
L 322.132452 140.605222 
L 322.454445 44.747145 
L 322.534943 211.377339 
L 322.615441 207.674446 
L 322.937434 183.821889 
L 323.259427 134.361227 
L 323.500921 64.814967 
L 323.58142 213.384121 
L 323.661918 210.082585 
L 323.98391 188.815405 
L 324.305903 144.715782 
L 324.708394 82.707638 
L 324.788892 82.707638 
L 324.86939 53.270804 
L 324.949889 212.229705 
L 325.030387 208.697285 
L 325.35238 185.942848 
L 325.674372 138.759248 
L 325.915867 72.414747 
L 325.996365 214.144099 
L 326.076863 210.994558 
L 326.398856 190.706474 
L 326.720849 148.637102 
L 327.203838 61.402053 
L 327.284336 213.04283 
L 327.364834 209.673035 
L 327.686827 187.966163 
L 328.00882 142.954794 
L 328.250314 79.664649 
L 328.330812 214.86909 
L 328.411311 211.864547 
L 328.733303 192.510482 
L 329.055296 152.377893 
L 329.377289 69.158956 
L 329.457787 213.81852 
L 329.538285 210.603863 
L 329.860278 189.896329 
L 330.182271 146.957185 
L 330.504263 57.918577 
L 330.584762 212.694483 
L 330.66526 209.255018 
L 330.987253 187.099363 
L 331.309245 141.157397 
L 331.631238 45.892136 
L 331.711736 211.491838 
L 331.792234 207.811845 
L 332.114227 184.1068 
L 332.43622 134.952018 
L 332.758213 33.024662 
L 332.838711 210.205091 
L 332.919209 206.267748 
L 333.241202 180.90496 
L 333.563194 128.312683 
L 333.804689 54.363083 
L 333.885187 212.338933 
L 333.965685 208.828359 
L 334.287678 186.214642 
L 334.609671 139.32284 
L 334.851165 73.388633 
L 334.931664 214.241488 
L 335.012162 211.111425 
L 335.334155 190.948808 
L 335.656147 149.139606 
L 335.97814 62.444045 
L 336.058638 213.147029 
L 336.139136 209.798074 
L 336.461129 188.225444 
L 336.783122 143.492439 
L 337.024616 80.5937 
L 337.105115 214.961995 
L 337.185613 211.976033 
L 337.507605 192.741659 
L 337.829598 152.857262 
L 338.151591 70.152977 
L 338.232089 213.917922 
L 338.312587 210.723146 
L 338.63458 190.143673 
L 338.956573 147.470078 
L 339.198067 87.467061 
L 339.278566 215.649331 
L 339.359064 212.800836 
L 339.681056 194.451971 
L 340.003049 156.403766 
L 340.325042 77.507006 
L 340.40554 214.653325 
L 340.486038 211.605629 
L 340.808031 191.973591 
L 341.130024 151.264596 
L 341.452017 66.850424 
L 341.532515 213.587667 
L 341.613013 210.32684 
L 341.935006 189.321892 
L 342.256998 145.766034 
L 342.578991 55.448606 
L 342.659489 212.447485 
L 342.739988 208.958621 
L 343.06198 186.484755 
L 343.383973 139.882946 
L 343.705966 43.249435 
L 343.786464 211.227568 
L 343.866962 207.494721 
L 344.188955 183.449211 
L 344.510948 133.588442 
L 344.83294 30.19715 
L 344.913438 209.92234 
L 344.993937 205.928447 
L 345.315929 180.201385 
L 345.637922 126.85375 
L 345.879417 51.842045 
L 345.959915 212.086829 
L 346.040413 208.525834 
L 346.362406 185.587327 
L 346.684399 138.02204 
L 346.925893 71.140851 
L 347.006391 214.01671 
L 347.086889 210.841691 
L 347.408882 190.389488 
L 347.730875 147.9798 
L 348.052868 60.03907 
L 348.133366 212.906532 
L 348.213864 209.509477 
L 348.535857 187.62701 
L 348.85785 142.251525 
L 349.099344 78.449401 
L 349.179842 214.747565 
L 349.26034 211.718717 
L 349.582333 192.208089 
L 349.904326 151.750851 
L 350.226319 67.858722 
L 350.306817 213.688497 
L 350.387315 210.447835 
L 350.709308 189.572789 
L 351.031301 146.286293 
L 351.272795 85.421481 
L 351.353293 215.444773 
L 351.433791 212.555366 
L 351.755784 193.942966 
L 352.077777 155.348291 
L 352.39977 75.318374 
L 352.480268 214.434462 
L 352.560766 211.342994 
L 352.882759 191.428989 
L 353.204752 150.13531 
L 353.607242 64.508737 
L 353.687741 31.432123 
L 353.768239 210.045837 
L 353.848737 206.076643 
L 354.17073 180.508686 
L 354.492722 127.490968 
L 354.895213 52.943159 
L 355.458701 52.943159 
L 355.539199 212.196941 
L 355.619697 208.657968 
L 355.94169 185.86132 
L 356.263683 138.590191 
L 356.666173 72.122615 
L 356.746672 72.122615 
L 356.82717 214.114886 
L 356.907668 210.959503 
L 357.149163 197.176786 
L 357.149163 197.176786 
" clip-path="url(#p47cd6a66a2)" style="fill: none; stroke: #1f77b4; stroke-width: 1.5; stroke-linecap: square"/>
   </g>
   <g id="patch_3">
    <path d="M 37.567344 228.96 
L 37.567344 7.2 
" style="fill: none; stroke: #000000; stroke-width: 0.8; stroke-linejoin: miter; stroke-linecap: square"/>
   </g>
   <g id="patch_4">
    <path d="M 372.367344 228.96 
L 372.367344 7.2 
" style="fill: none; stroke: #000000; stroke-width: 0.8; stroke-linejoin: miter; stroke-linecap: square"/>
   </g>
   <g id="patch_5">
    <path d="M 37.567344 228.96 
L 372.367344 228.96 
" style="fill: none; stroke: #000000; stroke-width: 0.8; stroke-linejoin: miter; stroke-linecap: square"/>
   </g>
   <g id="patch_6">
    <path d="M 37.567344 7.2 
L 372.367344 7.2 
" style="fill: none; stroke: #000000; stroke-width: 0.8; stroke-linejoin: miter; stroke-linecap: square"/>
   </g>
   <g id="legend_1">
    <g id="patch_7">
     <path d="M 314.548024 29.420307 
L 365.367344 29.420307 
Q 367.367344 29.420307 367.367344 27.420307 
L 367.367344 14.2 
Q 367.367344 12.2 365.367344 12.2 
L 314.548024 12.2 
Q 312.548024 12.2 312.548024 14.2 
L 312.548024 27.420307 
Q 312.548024 29.420307 314.548024 29.420307 
z
" style="fill: #ffffff; opacity: 0.8; stroke: #cccccc; stroke-linejoin: miter"/>
    </g>
    <g id="line2d_16">
     <path d="M 316.548024 19.79832 
L 326.548024 19.79832 
L 336.548024 19.79832 
" style="fill: none; stroke: #1f77b4; stroke-width: 1.5; stroke-linecap: square"/>
    </g>
    <g id="text_17">
     <!-- CFL -->
     <g transform="translate(344.548024 23.29832) scale(0.1 -0.1)">
      <use xlink:href="#NimbusSanL-Regu-43" transform="scale(0.996264)"/>
      <use xlink:href="#NimbusSanL-Regu-46" transform="translate(71.929985 0) scale(0.996264)"/>
      <use xlink:href="#NimbusSanL-Regu-4c" transform="translate(132.801616 0) scale(0.996264)"/>
     </g>
    </g>
   </g>
  </g>
 </g>
 <defs>
  <clipPath id="p47cd6a66a2">
   <rect x="37.567344" y="7.2" width="334.8" height="221.76"/>
  </clipPath>
 </defs>
</svg>
