<?xml version="1.0" encoding="utf-8" standalone="no"?>
<!DOCTYPE svg PUBLIC "-//W3C//DTD SVG 1.1//EN"
  "http://www.w3.org/Graphics/SVG/1.1/DTD/svg11.dtd">
<svg xmlns:xlink="http://www.w3.org/1999/xlink" width="388.987648pt" height="265.600613pt" viewBox="0 0 388.987648 265.600613" xmlns="http://www.w3.org/2000/svg" version="1.1">
 <metadata>
  <rdf:RDF xmlns:dc="http://purl.org/dc/elements/1.1/" xmlns:cc="http://creativecommons.org/ns#" xmlns:rdf="http://www.w3.org/1999/02/22-rdf-syntax-ns#">
   <cc:Work>
    <dc:type rdf:resource="http://purl.org/dc/dcmitype/StillImage"/>
    <dc:date>2025-07-17T12:52:59.622975</dc:date>
    <dc:format>image/svg+xml</dc:format>
    <dc:creator>
     <cc:Agent>
      <dc:title>Matplotlib v3.10.3, https://matplotlib.org/</dc:title>
     </cc:Agent>
    </dc:creator>
   </cc:Work>
  </rdf:RDF>
 </metadata>
 <defs>
  <style type="text/css">*{stroke-linejoin: round; stroke-linecap: butt}</style>
 </defs>
 <g id="figure_1">
  <g id="patch_1">
   <path d="M 0 265.600613 
L 388.987648 265.600613 
L 388.987648 0 
L 0 0 
z
" style="fill: #ffffff"/>
  </g>
  <g id="axes_1">
   <g id="patch_2">
    <path d="M 37.567344 228.96 
L 372.367344 228.96 
L 372.367344 7.2 
L 37.567344 7.2 
z
" style="fill: #ffffff"/>
   </g>
   <g id="matplotlib.axis_1">
    <g id="xtick_1">
     <g id="line2d_1">
      <defs>
       <path id="m6dca3f3836" d="M 0 0 
L 0 3.5 
" style="stroke: #000000; stroke-width: 0.8"/>
      </defs>
      <g>
       <use xlink:href="#m6dca3f3836" x="52.785526" y="228.96" style="stroke: #000000; stroke-width: 0.8"/>
      </g>
     </g>
     <g id="text_1">
      <!-- $\mathdefault{0}$ -->
      <g transform="translate(50.294859 243.05832) scale(0.1 -0.1)">
       <defs>
        <path id="CMR17-30" d="M 2688 2038 
C 2688 2430 2682 3099 2413 3613 
C 2176 4063 1798 4224 1466 4224 
C 1158 4224 768 4082 525 3620 
C 269 3137 243 2539 243 2038 
C 243 1671 250 1112 448 623 
C 723 -39 1216 -128 1466 -128 
C 1760 -128 2208 -7 2470 604 
C 2662 1048 2688 1568 2688 2038 
z
M 1466 -26 
C 1056 -26 813 328 723 816 
C 653 1196 653 1749 653 2109 
C 653 2604 653 3015 736 3407 
C 858 3954 1216 4121 1466 4121 
C 1728 4121 2067 3947 2189 3420 
C 2272 3054 2278 2623 2278 2109 
C 2278 1691 2278 1176 2202 797 
C 2067 96 1690 -26 1466 -26 
z
" transform="scale(0.015625)"/>
       </defs>
       <use xlink:href="#CMR17-30" transform="scale(0.996264)"/>
      </g>
     </g>
    </g>
    <g id="xtick_2">
     <g id="line2d_2">
      <g>
       <use xlink:href="#m6dca3f3836" x="98.362591" y="228.96" style="stroke: #000000; stroke-width: 0.8"/>
      </g>
     </g>
     <g id="text_2">
      <!-- $\mathdefault{500}$ -->
      <g transform="translate(90.890588 243.05832) scale(0.1 -0.1)">
       <defs>
        <path id="CMR17-35" d="M 730 3750 
C 794 3724 1056 3641 1325 3641 
C 1920 3641 2246 3961 2432 4140 
C 2432 4191 2432 4224 2394 4224 
C 2387 4224 2374 4224 2323 4198 
C 2099 4102 1837 4032 1517 4032 
C 1325 4032 1037 4055 723 4191 
C 653 4224 640 4224 634 4224 
C 602 4224 595 4217 595 4090 
L 595 2231 
C 595 2113 595 2080 659 2080 
C 691 2080 704 2093 736 2139 
C 941 2435 1222 2560 1542 2560 
C 1766 2560 2246 2415 2246 1293 
C 2246 1087 2246 716 2054 422 
C 1894 159 1645 25 1370 25 
C 947 25 518 319 403 812 
C 429 806 480 793 506 793 
C 589 793 749 838 749 1036 
C 749 1209 627 1280 506 1280 
C 358 1280 262 1190 262 1011 
C 262 454 704 -128 1382 -128 
C 2042 -128 2669 441 2669 1267 
C 2669 2054 2170 2662 1549 2662 
C 1222 2662 947 2540 730 2304 
L 730 3750 
z
" transform="scale(0.015625)"/>
       </defs>
       <use xlink:href="#CMR17-35" transform="scale(0.996264)"/>
       <use xlink:href="#CMR17-30" transform="translate(45.690477 0) scale(0.996264)"/>
       <use xlink:href="#CMR17-30" transform="translate(91.380954 0) scale(0.996264)"/>
      </g>
     </g>
    </g>
    <g id="xtick_3">
     <g id="line2d_3">
      <g>
       <use xlink:href="#m6dca3f3836" x="143.939655" y="228.96" style="stroke: #000000; stroke-width: 0.8"/>
      </g>
     </g>
     <g id="text_3">
      <!-- $\mathdefault{1000}$ -->
      <g transform="translate(133.976985 243.05832) scale(0.1 -0.1)">
       <defs>
        <path id="CMR17-31" d="M 1702 4083 
C 1702 4217 1696 4224 1606 4224 
C 1357 3927 979 3833 621 3820 
C 602 3820 570 3820 563 3808 
C 557 3795 557 3782 557 3648 
C 755 3648 1088 3686 1344 3839 
L 1344 467 
C 1344 243 1331 166 781 166 
L 589 166 
L 589 0 
C 896 6 1216 12 1523 12 
C 1830 12 2150 6 2458 0 
L 2458 166 
L 2266 166 
C 1715 166 1702 236 1702 467 
L 1702 4083 
z
" transform="scale(0.015625)"/>
       </defs>
       <use xlink:href="#CMR17-31" transform="scale(0.996264)"/>
       <use xlink:href="#CMR17-30" transform="translate(45.690477 0) scale(0.996264)"/>
       <use xlink:href="#CMR17-30" transform="translate(91.380954 0) scale(0.996264)"/>
       <use xlink:href="#CMR17-30" transform="translate(137.071431 0) scale(0.996264)"/>
      </g>
     </g>
    </g>
    <g id="xtick_4">
     <g id="line2d_4">
      <g>
       <use xlink:href="#m6dca3f3836" x="189.51672" y="228.96" style="stroke: #000000; stroke-width: 0.8"/>
      </g>
     </g>
     <g id="text_4">
      <!-- $\mathdefault{1500}$ -->
      <g transform="translate(179.554049 243.05832) scale(0.1 -0.1)">
       <use xlink:href="#CMR17-31" transform="scale(0.996264)"/>
       <use xlink:href="#CMR17-35" transform="translate(45.690477 0) scale(0.996264)"/>
       <use xlink:href="#CMR17-30" transform="translate(91.380954 0) scale(0.996264)"/>
       <use xlink:href="#CMR17-30" transform="translate(137.071431 0) scale(0.996264)"/>
      </g>
     </g>
    </g>
    <g id="xtick_5">
     <g id="line2d_5">
      <g>
       <use xlink:href="#m6dca3f3836" x="235.093784" y="228.96" style="stroke: #000000; stroke-width: 0.8"/>
      </g>
     </g>
     <g id="text_5">
      <!-- $\mathdefault{2000}$ -->
      <g transform="translate(225.131113 243.05832) scale(0.1 -0.1)">
       <defs>
        <path id="CMR17-32" d="M 2669 990 
L 2554 990 
C 2490 537 2438 460 2413 422 
C 2381 371 1920 371 1830 371 
L 602 371 
C 832 620 1280 1073 1824 1596 
C 2214 1966 2669 2400 2669 3033 
C 2669 3788 2067 4224 1395 4224 
C 691 4224 262 3603 262 3027 
C 262 2777 448 2745 525 2745 
C 589 2745 781 2783 781 3007 
C 781 3206 614 3264 525 3264 
C 486 3264 448 3257 422 3244 
C 544 3788 915 4057 1306 4057 
C 1862 4057 2227 3616 2227 3033 
C 2227 2477 1901 1998 1536 1583 
L 262 147 
L 262 0 
L 2515 0 
L 2669 990 
z
" transform="scale(0.015625)"/>
       </defs>
       <use xlink:href="#CMR17-32" transform="scale(0.996264)"/>
       <use xlink:href="#CMR17-30" transform="translate(45.690477 0) scale(0.996264)"/>
       <use xlink:href="#CMR17-30" transform="translate(91.380954 0) scale(0.996264)"/>
       <use xlink:href="#CMR17-30" transform="translate(137.071431 0) scale(0.996264)"/>
      </g>
     </g>
    </g>
    <g id="xtick_6">
     <g id="line2d_6">
      <g>
       <use xlink:href="#m6dca3f3836" x="280.670848" y="228.96" style="stroke: #000000; stroke-width: 0.8"/>
      </g>
     </g>
     <g id="text_6">
      <!-- $\mathdefault{2500}$ -->
      <g transform="translate(270.708178 243.05832) scale(0.1 -0.1)">
       <use xlink:href="#CMR17-32" transform="scale(0.996264)"/>
       <use xlink:href="#CMR17-35" transform="translate(45.690477 0) scale(0.996264)"/>
       <use xlink:href="#CMR17-30" transform="translate(91.380954 0) scale(0.996264)"/>
       <use xlink:href="#CMR17-30" transform="translate(137.071431 0) scale(0.996264)"/>
      </g>
     </g>
    </g>
    <g id="xtick_7">
     <g id="line2d_7">
      <g>
       <use xlink:href="#m6dca3f3836" x="326.247913" y="228.96" style="stroke: #000000; stroke-width: 0.8"/>
      </g>
     </g>
     <g id="text_7">
      <!-- $\mathdefault{3000}$ -->
      <g transform="translate(316.285242 243.05832) scale(0.1 -0.1)">
       <defs>
        <path id="CMR17-33" d="M 1414 2176 
C 1984 2176 2234 1673 2234 1094 
C 2234 322 1824 25 1453 25 
C 1114 25 563 193 390 691 
C 422 678 454 678 486 678 
C 640 678 755 780 755 947 
C 755 1132 614 1216 486 1216 
C 378 1216 211 1164 211 927 
C 211 335 787 -128 1466 -128 
C 2176 -128 2720 432 2720 1087 
C 2720 1718 2208 2176 1600 2246 
C 2086 2347 2554 2776 2554 3353 
C 2554 3856 2048 4224 1472 4224 
C 890 4224 378 3862 378 3347 
C 378 3123 544 3084 627 3084 
C 762 3084 877 3167 877 3334 
C 877 3500 762 3584 627 3584 
C 602 3584 570 3584 544 3571 
C 730 3999 1235 4076 1459 4076 
C 1683 4076 2106 3966 2106 3347 
C 2106 3167 2080 2851 1862 2574 
C 1670 2329 1453 2316 1242 2297 
C 1210 2297 1062 2284 1037 2284 
C 992 2278 966 2272 966 2227 
C 966 2182 973 2176 1101 2176 
L 1414 2176 
z
" transform="scale(0.015625)"/>
       </defs>
       <use xlink:href="#CMR17-33" transform="scale(0.996264)"/>
       <use xlink:href="#CMR17-30" transform="translate(45.690477 0) scale(0.996264)"/>
       <use xlink:href="#CMR17-30" transform="translate(91.380954 0) scale(0.996264)"/>
       <use xlink:href="#CMR17-30" transform="translate(137.071431 0) scale(0.996264)"/>
      </g>
     </g>
    </g>
    <g id="xtick_8">
     <g id="line2d_8">
      <g>
       <use xlink:href="#m6dca3f3836" x="371.824977" y="228.96" style="stroke: #000000; stroke-width: 0.8"/>
      </g>
     </g>
     <g id="text_8">
      <!-- $\mathdefault{3500}$ -->
      <g transform="translate(361.862307 243.05832) scale(0.1 -0.1)">
       <use xlink:href="#CMR17-33" transform="scale(0.996264)"/>
       <use xlink:href="#CMR17-35" transform="translate(45.690477 0) scale(0.996264)"/>
       <use xlink:href="#CMR17-30" transform="translate(91.380954 0) scale(0.996264)"/>
       <use xlink:href="#CMR17-30" transform="translate(137.071431 0) scale(0.996264)"/>
      </g>
     </g>
    </g>
    <g id="text_9">
     <!-- Iteration -->
     <g transform="translate(187.019968 256.278627) scale(0.1 -0.1)">
      <defs>
       <path id="NimbusSanL-Regu-49" d="M 1242 4672 
L 640 4672 
L 640 0 
L 1242 0 
L 1242 4672 
z
" transform="scale(0.015625)"/>
       <path id="NimbusSanL-Regu-74" d="M 1626 3328 
L 1075 3328 
L 1075 4249 
L 544 4249 
L 544 3328 
L 90 3328 
L 90 2892 
L 544 2892 
L 544 402 
C 544 64 774 -128 1190 -128 
C 1318 -128 1446 -116 1626 -84 
L 1626 364 
C 1555 345 1472 339 1370 339 
C 1139 339 1075 402 1075 634 
L 1075 2892 
L 1626 2892 
L 1626 3328 
z
" transform="scale(0.015625)"/>
       <path id="NimbusSanL-Regu-65" d="M 3283 1484 
C 3283 1998 3245 2311 3149 2565 
C 2931 3123 2419 3456 1792 3456 
C 858 3456 256 2734 256 1619 
C 256 545 838 -128 1779 -128 
C 2547 -128 3078 307 3213 1018 
L 2675 1018 
C 2528 588 2227 364 1798 364 
C 1459 364 1171 514 992 787 
C 864 974 819 1161 813 1484 
L 3283 1484 
z
M 826 1920 
C 870 2552 1248 2963 1786 2963 
C 2310 2963 2714 2519 2714 1959 
C 2714 1946 2714 1933 2707 1920 
L 826 1920 
z
" transform="scale(0.015625)"/>
       <path id="NimbusSanL-Regu-72" d="M 442 3328 
L 442 0 
L 979 0 
L 979 1727 
C 979 2203 1101 2514 1357 2698 
C 1523 2819 1683 2857 2054 2863 
L 2054 3404 
C 1965 3449 1920 3456 1850 3456 
C 1504 3456 1242 3251 934 2750 
L 934 3328 
L 442 3328 
z
" transform="scale(0.015625)"/>
       <path id="NimbusSanL-Regu-61" d="M 3424 332 
C 3366 320 3341 320 3309 320 
C 3123 320 3021 415 3021 581 
L 3021 2542 
C 3021 3135 2586 3456 1760 3456 
C 1274 3456 870 3315 646 3065 
C 493 2893 429 2702 416 2370 
L 954 2370 
C 998 2778 1242 2963 1741 2963 
C 2221 2963 2490 2784 2490 2466 
L 2490 2326 
C 2490 2103 2355 2007 1933 1956 
C 1178 1861 1062 1835 858 1753 
C 467 1593 269 1294 269 861 
C 269 256 691 -128 1370 -128 
C 1792 -128 2131 19 2509 364 
C 2547 25 2714 -128 3059 -128 
C 3168 -128 3251 -116 3424 -71 
L 3424 332 
z
M 2490 1071 
C 2490 893 2438 785 2278 638 
C 2061 441 1798 339 1485 339 
C 1069 339 826 536 826 874 
C 826 1224 1062 1402 1632 1485 
C 2195 1562 2310 1587 2490 1670 
L 2490 1071 
z
" transform="scale(0.015625)"/>
       <path id="NimbusSanL-Regu-69" d="M 960 3358 
L 429 3358 
L 429 0 
L 960 0 
L 960 3358 
z
M 960 4672 
L 422 4672 
L 422 3999 
L 960 3999 
L 960 4672 
z
" transform="scale(0.015625)"/>
       <path id="NimbusSanL-Regu-6f" d="M 1741 3456 
C 800 3456 230 2784 230 1663 
C 230 543 794 -128 1747 -128 
C 2688 -128 3264 543 3264 1638 
C 3264 2791 2707 3456 1741 3456 
z
M 1747 2963 
C 2349 2963 2707 2472 2707 1644 
C 2707 861 2336 364 1747 364 
C 1152 364 787 855 787 1663 
C 787 2466 1152 2963 1747 2963 
z
" transform="scale(0.015625)"/>
       <path id="NimbusSanL-Regu-6e" d="M 448 3328 
L 448 0 
L 986 0 
L 986 1835 
C 986 2539 1344 2988 1894 2988 
C 2317 2988 2586 2732 2586 2328 
L 2586 0 
L 3117 0 
L 3117 2539 
C 3117 3097 2701 3456 2054 3456 
C 1555 3456 1235 3263 941 2796 
L 941 3328 
L 448 3328 
z
" transform="scale(0.015625)"/>
      </defs>
      <use xlink:href="#NimbusSanL-Regu-49" transform="scale(0.996264)"/>
      <use xlink:href="#NimbusSanL-Regu-74" transform="translate(27.69517 0) scale(0.996264)"/>
      <use xlink:href="#NimbusSanL-Regu-65" transform="translate(55.390339 0) scale(0.996264)"/>
      <use xlink:href="#NimbusSanL-Regu-72" transform="translate(110.782016 0) scale(0.996264)"/>
      <use xlink:href="#NimbusSanL-Regu-61" transform="translate(142.961149 0) scale(0.996264)"/>
      <use xlink:href="#NimbusSanL-Regu-74" transform="translate(198.352826 0) scale(0.996264)"/>
      <use xlink:href="#NimbusSanL-Regu-69" transform="translate(226.047996 0) scale(0.996264)"/>
      <use xlink:href="#NimbusSanL-Regu-6f" transform="translate(248.16478 0) scale(0.996264)"/>
      <use xlink:href="#NimbusSanL-Regu-6e" transform="translate(303.556457 0) scale(0.996264)"/>
     </g>
    </g>
   </g>
   <g id="matplotlib.axis_2">
    <g id="ytick_1">
     <g id="line2d_9">
      <defs>
       <path id="mfe23f0783e" d="M 0 0 
L -3.5 0 
" style="stroke: #000000; stroke-width: 0.8"/>
      </defs>
      <g>
       <use xlink:href="#mfe23f0783e" x="37.567344" y="227.598833" style="stroke: #000000; stroke-width: 0.8"/>
      </g>
     </g>
     <g id="text_10">
      <!-- $\mathdefault{0}$ -->
      <g transform="translate(25.586009 231.147993) scale(0.1 -0.1)">
       <use xlink:href="#CMR17-30" transform="scale(0.996264)"/>
      </g>
     </g>
    </g>
    <g id="ytick_2">
     <g id="line2d_10">
      <g>
       <use xlink:href="#mfe23f0783e" x="37.567344" y="190.647414" style="stroke: #000000; stroke-width: 0.8"/>
      </g>
     </g>
     <g id="text_11">
      <!-- $\mathdefault{5}$ -->
      <g transform="translate(25.586009 194.196574) scale(0.1 -0.1)">
       <use xlink:href="#CMR17-35" transform="scale(0.996264)"/>
      </g>
     </g>
    </g>
    <g id="ytick_3">
     <g id="line2d_11">
      <g>
       <use xlink:href="#mfe23f0783e" x="37.567344" y="153.695995" style="stroke: #000000; stroke-width: 0.8"/>
      </g>
     </g>
     <g id="text_12">
      <!-- $\mathdefault{10}$ -->
      <g transform="translate(20.604674 157.245155) scale(0.1 -0.1)">
       <use xlink:href="#CMR17-31" transform="scale(0.996264)"/>
       <use xlink:href="#CMR17-30" transform="translate(45.690477 0) scale(0.996264)"/>
      </g>
     </g>
    </g>
    <g id="ytick_4">
     <g id="line2d_12">
      <g>
       <use xlink:href="#mfe23f0783e" x="37.567344" y="116.744575" style="stroke: #000000; stroke-width: 0.8"/>
      </g>
     </g>
     <g id="text_13">
      <!-- $\mathdefault{15}$ -->
      <g transform="translate(20.604674 120.293735) scale(0.1 -0.1)">
       <use xlink:href="#CMR17-31" transform="scale(0.996264)"/>
       <use xlink:href="#CMR17-35" transform="translate(45.690477 0) scale(0.996264)"/>
      </g>
     </g>
    </g>
    <g id="ytick_5">
     <g id="line2d_13">
      <g>
       <use xlink:href="#mfe23f0783e" x="37.567344" y="79.793156" style="stroke: #000000; stroke-width: 0.8"/>
      </g>
     </g>
     <g id="text_14">
      <!-- $\mathdefault{20}$ -->
      <g transform="translate(20.604674 83.342316) scale(0.1 -0.1)">
       <use xlink:href="#CMR17-32" transform="scale(0.996264)"/>
       <use xlink:href="#CMR17-30" transform="translate(45.690477 0) scale(0.996264)"/>
      </g>
     </g>
    </g>
    <g id="ytick_6">
     <g id="line2d_14">
      <g>
       <use xlink:href="#mfe23f0783e" x="37.567344" y="42.841737" style="stroke: #000000; stroke-width: 0.8"/>
      </g>
     </g>
     <g id="text_15">
      <!-- $\mathdefault{25}$ -->
      <g transform="translate(20.604674 46.390897) scale(0.1 -0.1)">
       <use xlink:href="#CMR17-32" transform="scale(0.996264)"/>
       <use xlink:href="#CMR17-35" transform="translate(45.690477 0) scale(0.996264)"/>
      </g>
     </g>
    </g>
    <g id="text_16">
     <!-- Average CFL - Blade_1 -->
     <g transform="translate(14.482687 168.77932) rotate(-90) scale(0.1 -0.1)">
      <defs>
       <path id="NimbusSanL-Regu-41" d="M 3034 1408 
L 3514 0 
L 4179 0 
L 2541 4672 
L 1773 4672 
L 109 0 
L 742 0 
L 1235 1408 
L 3034 1408 
z
M 2867 1907 
L 1382 1907 
L 2150 4032 
L 2867 1907 
z
" transform="scale(0.015625)"/>
       <path id="NimbusSanL-Regu-76" d="M 1824 0 
L 3110 3328 
L 2509 3328 
L 1562 629 
L 666 3328 
L 64 3328 
L 1242 0 
L 1824 0 
z
" transform="scale(0.015625)"/>
       <path id="NimbusSanL-Regu-67" d="M 2637 3359 
L 2637 2873 
C 2368 3270 2042 3456 1613 3456 
C 762 3456 186 2714 186 1632 
C 186 1084 333 638 608 320 
C 858 38 1216 -128 1568 -128 
C 1990 -128 2285 51 2586 473 
L 2586 300 
C 2586 -155 2528 -441 2394 -634 
C 2253 -841 1978 -960 1651 -960 
C 1408 -960 1190 -894 1043 -774 
C 922 -674 870 -581 838 -375 
L 294 -375 
C 352 -1031 845 -1408 1632 -1408 
C 2131 -1408 2560 -1248 2778 -980 
C 3034 -661 3130 -222 3130 568 
L 3130 3359 
L 2637 3359 
z
M 1670 2963 
C 2246 2963 2586 2479 2586 1644 
C 2586 848 2240 364 1677 364 
C 1094 364 742 855 742 1663 
C 742 2466 1101 2963 1670 2963 
z
" transform="scale(0.015625)"/>
       <path id="NimbusSanL-Regu-43" d="M 4237 3219 
C 4051 4236 3462 4736 2438 4736 
C 1811 4736 1306 4537 960 4154 
C 538 3696 307 3035 307 2284 
C 307 1522 544 867 986 415 
C 1344 44 1805 -128 2413 -128 
C 3552 -128 4192 485 4333 1712 
L 3718 1712 
C 3667 1394 3603 1178 3507 994 
C 3315 612 2918 396 2419 396 
C 1491 396 902 1134 902 2291 
C 902 3480 1466 4211 2368 4211 
C 2746 4211 3098 4096 3290 3918 
C 3462 3759 3558 3562 3629 3219 
L 4237 3219 
z
" transform="scale(0.015625)"/>
       <path id="NimbusSanL-Regu-46" d="M 1171 2112 
L 3398 2112 
L 3398 2636 
L 1171 2636 
L 1171 4147 
L 3706 4147 
L 3706 4672 
L 576 4672 
L 576 0 
L 1171 0 
L 1171 2112 
z
" transform="scale(0.015625)"/>
       <path id="NimbusSanL-Regu-4c" d="M 1107 4672 
L 512 4672 
L 512 0 
L 3411 0 
L 3411 524 
L 1107 524 
L 1107 4672 
z
" transform="scale(0.015625)"/>
       <path id="NimbusSanL-Regu-2d" d="M 1818 1996 
L 294 1996 
L 294 1536 
L 1818 1536 
L 1818 1996 
z
" transform="scale(0.015625)"/>
       <path id="NimbusSanL-Regu-42" d="M 506 0 
L 2611 0 
C 3053 0 3379 121 3629 390 
C 3859 632 3987 961 3987 1321 
C 3987 1878 3731 2214 3136 2444 
C 3558 2643 3782 2994 3782 3476 
C 3782 3821 3654 4127 3411 4345 
C 3168 4569 2848 4672 2400 4672 
L 506 4672 
L 506 0 
z
M 1101 2636 
L 1101 4147 
L 2253 4147 
C 2586 4147 2771 4101 2931 3977 
C 3098 3847 3187 3652 3187 3391 
C 3187 3138 3098 2936 2931 2806 
C 2771 2682 2586 2636 2253 2636 
L 1101 2636 
z
M 1101 524 
L 1101 2112 
L 2554 2112 
C 2842 2112 3034 2042 3174 1890 
C 3315 1745 3392 1542 3392 1315 
C 3392 1093 3315 891 3174 746 
C 3034 594 2842 524 2554 524 
L 1101 524 
z
" transform="scale(0.015625)"/>
       <path id="NimbusSanL-Regu-6c" d="M 973 4672 
L 435 4672 
L 435 0 
L 973 0 
L 973 4672 
z
" transform="scale(0.015625)"/>
       <path id="NimbusSanL-Regu-64" d="M 3168 4672 
L 2637 4672 
L 2637 2937 
C 2413 3276 2054 3456 1606 3456 
C 736 3456 166 2759 166 1695 
C 166 568 723 -128 1626 -128 
C 2086 -128 2406 44 2694 460 
L 2694 19 
L 3168 19 
L 3168 4672 
z
M 1696 2956 
C 2272 2956 2637 2447 2637 1651 
C 2637 880 2266 371 1702 371 
C 1114 371 723 887 723 1663 
C 723 2440 1114 2956 1696 2956 
z
" transform="scale(0.015625)"/>
       <path id="NimbusSanL-Regu-31" d="M 1658 3232 
L 1658 0 
L 2221 0 
L 2221 4537 
L 1850 4537 
C 1651 3840 1523 3744 653 3635 
L 653 3232 
L 1658 3232 
z
" transform="scale(0.015625)"/>
      </defs>
      <use xlink:href="#NimbusSanL-Regu-41" transform="scale(0.996264)"/>
      <use xlink:href="#NimbusSanL-Regu-76" transform="translate(62.465918 0) scale(0.996264)"/>
      <use xlink:href="#NimbusSanL-Regu-65" transform="translate(109.788488 0) scale(0.996264)"/>
      <use xlink:href="#NimbusSanL-Regu-72" transform="translate(165.180165 0) scale(0.996264)"/>
      <use xlink:href="#NimbusSanL-Regu-61" transform="translate(197.359298 0) scale(0.996264)"/>
      <use xlink:href="#NimbusSanL-Regu-67" transform="translate(252.750975 0) scale(0.996264)"/>
      <use xlink:href="#NimbusSanL-Regu-65" transform="translate(308.142652 0) scale(0.996264)"/>
      <use xlink:href="#NimbusSanL-Regu-43" transform="translate(391.229499 0) scale(0.996264)"/>
      <use xlink:href="#NimbusSanL-Regu-46" transform="translate(463.159484 0) scale(0.996264)"/>
      <use xlink:href="#NimbusSanL-Regu-4c" transform="translate(524.031114 0) scale(0.996264)"/>
      <use xlink:href="#NimbusSanL-Regu-2d" transform="translate(607.117961 0) scale(0.996264)"/>
      <use xlink:href="#NimbusSanL-Regu-42" transform="translate(667.98836 0) scale(0.996264)"/>
      <use xlink:href="#NimbusSanL-Regu-6c" transform="translate(734.438391 0) scale(0.996264)"/>
      <use xlink:href="#NimbusSanL-Regu-61" transform="translate(756.555176 0) scale(0.996264)"/>
      <use xlink:href="#NimbusSanL-Regu-64" transform="translate(811.946853 0) scale(0.996264)"/>
      <use xlink:href="#NimbusSanL-Regu-65" transform="translate(867.33853 0) scale(0.996264)"/>
      <use xlink:href="#NimbusSanL-Regu-31" transform="translate(958.595772 0) scale(0.996264)"/>
      <path d="M 928.707548 0 
L 958.595772 0 
L 958.595772 0.3985 
L 928.707548 0.3985 
L 928.707548 0 
z
"/>
     </g>
    </g>
   </g>
   <g id="line2d_15">
    <path d="M 52.785526 122.147822 
L 52.967834 77.487062 
L 53.058989 212.587656 
L 53.150143 209.58542 
L 53.423605 196.471656 
L 53.697067 173.811071 
L 53.97053 134.653581 
L 54.243992 67.205052 
L 54.335146 211.559455 
L 54.426301 208.351579 
L 54.699763 194.339578 
L 54.973225 170.126841 
L 55.246688 128.287231 
L 55.52015 56.15943 
L 55.702458 22.080753 
L 55.793612 207.047025 
L 55.884767 202.936663 
L 56.158229 184.982604 
L 56.431691 153.957989 
L 56.887462 74.958424 
L 56.978616 212.334792 
L 57.06977 209.281984 
L 57.343233 195.947318 
L 57.616695 172.915405 
L 57.890157 133.190819 
L 58.16362 64.823188 
L 58.254774 211.321268 
L 58.345928 208.065756 
L 58.61939 193.845675 
L 58.892853 169.278506 
L 59.166315 126.895924 
L 59.439778 53.708007 
L 59.530932 210.20975 
L 59.622086 206.731934 
L 59.895548 191.540831 
L 60.169011 165.290606 
L 60.442473 119.937776 
L 60.624781 72.60232 
L 60.715935 212.099182 
L 60.80709 208.999251 
L 61.080552 195.458756 
L 61.354014 172.06078 
L 61.627477 131.643493 
L 61.900939 61.843437 
L 61.992093 211.023293 
L 62.083247 207.708185 
L 62.35671 193.227794 
L 62.630172 168.205678 
L 62.903635 124.980583 
L 63.085943 79.873081 
L 63.177097 212.826258 
L 63.268251 209.871743 
L 63.541713 196.966421 
L 63.815176 174.666025 
L 64.088638 136.16149 
L 64.362101 69.666539 
L 64.453255 211.805604 
L 64.544409 208.646958 
L 64.817871 194.849992 
L 65.091334 171.008837 
L 65.364796 129.811319 
L 65.547104 86.784813 
L 65.638258 213.517431 
L 65.729413 210.701151 
L 66.002875 198.399638 
L 66.276337 177.142624 
L 66.5498 140.410503 
L 66.640954 218.88 
L 66.732108 217.136233 
L 67.00557 209.519461 
L 67.279033 196.357678 
L 67.552495 173.614117 
L 67.825957 134.313244 
L 67.917112 218.270274 
L 68.008266 216.404562 
L 68.281728 208.255133 
L 68.55519 194.17292 
L 68.828653 169.838855 
L 69.284424 107.828665 
L 69.375578 215.621816 
L 69.466732 213.226413 
L 69.740194 202.763291 
L 70.013657 184.683016 
L 70.287119 153.440302 
L 70.651735 99.452892 
L 70.74289 99.452892 
L 70.834044 73.823703 
L 70.925198 212.22132 
L 71.016352 209.145817 
L 71.289814 195.712022 
L 71.563277 172.498424 
L 71.836739 132.385326 
L 72.019047 90.491383 
L 72.110202 213.888088 
L 72.201356 211.145939 
L 72.474818 199.168232 
L 72.74828 178.470755 
L 73.021743 142.705514 
L 73.295205 80.903177 
L 73.386359 212.929267 
L 73.477513 209.995354 
L 73.750976 197.180022 
L 74.024438 175.035127 
L 74.297901 136.768749 
L 74.480209 96.803513 
L 74.571363 214.519301 
L 74.662517 211.903395 
L 74.93598 200.477115 
L 75.209442 180.732505 
L 75.482904 146.613818 
L 75.756367 87.656727 
L 76.029829 26.082201 
L 76.120983 207.44717 
L 76.212137 203.416837 
L 76.4856 185.812344 
L 76.759062 155.39178 
L 77.032524 102.825046 
L 77.214833 47.92458 
L 77.305987 209.631408 
L 77.397141 206.037923 
L 77.670603 190.34158 
L 77.944066 163.218299 
L 78.217528 116.349271 
L 78.582145 35.359839 
L 78.673299 208.374934 
L 78.764453 204.530154 
L 79.037915 187.736155 
L 79.311378 158.716126 
L 79.58484 108.569515 
L 79.767148 56.196615 
L 79.858302 210.458611 
L 79.949457 207.030567 
L 80.222919 192.056869 
L 80.496381 166.182319 
L 80.769844 121.471097 
L 81.043306 44.210106 
L 81.13446 209.25996 
L 81.225614 205.592186 
L 81.499077 189.571347 
L 81.772539 161.887336 
L 82.046002 114.049367 
L 82.319464 31.385356 
L 82.410618 207.977485 
L 82.501772 204.053216 
L 82.775235 186.912006 
L 83.048697 157.291997 
L 83.322159 106.10862 
L 83.504468 52.652926 
L 83.595622 210.104242 
L 83.686776 206.605324 
L 83.960238 191.32205 
L 84.233701 164.912551 
L 84.507163 119.276938 
L 84.780625 40.418599 
L 84.87178 208.88081 
L 84.962934 205.137205 
L 85.236396 188.78514 
L 85.509858 160.528771 
L 85.783321 111.701766 
L 86.056783 27.328701 
L 86.147937 207.57182 
L 86.239092 203.566417 
L 86.512554 186.070818 
L 86.786016 155.838424 
L 87.059479 103.596846 
L 87.241787 49.035972 
L 87.332941 209.742547 
L 87.424095 206.17129 
L 87.697558 190.572038 
L 87.97102 163.616531 
L 88.244482 117.037416 
L 88.517945 36.548704 
L 88.609099 208.49382 
L 88.700253 204.672817 
L 88.973715 187.982678 
L 89.247178 159.142118 
L 89.52064 109.305629 
L 89.702948 57.256619 
L 89.794103 210.564612 
L 89.885257 207.157767 
L 90.158719 192.276671 
L 90.432181 166.562138 
L 90.705644 122.127424 
L 90.979106 45.344238 
L 91.07026 209.373373 
L 91.161414 205.728282 
L 91.434877 189.80652 
L 91.708339 162.293716 
L 91.981802 114.751592 
L 92.255264 32.5988 
L 92.346418 208.09883 
L 92.437572 204.198829 
L 92.711035 187.163626 
L 92.984497 157.726796 
L 93.257959 106.859952 
L 93.440268 53.734845 
L 93.531422 210.212434 
L 93.622576 206.735154 
L 93.896038 191.546396 
L 94.169501 165.300223 
L 94.442963 119.946834 
L 94.716425 41.576179 
L 94.80758 208.996568 
L 94.898734 205.276114 
L 95.172196 189.025175 
L 95.445659 160.943553 
L 95.719121 112.418509 
L 95.901429 61.739166 
L 95.992583 211.012866 
L 96.083737 207.695673 
L 96.3572 193.206172 
L 96.630662 168.168316 
L 96.904125 124.902899 
L 97.177587 50.140259 
L 97.268741 209.852976 
L 97.359895 206.303804 
L 97.633358 190.801023 
L 97.90682 164.012217 
L 98.180282 117.721161 
L 98.453745 37.730216 
L 98.544899 208.611971 
L 98.636053 204.814599 
L 98.909515 188.227677 
L 99.182978 159.565475 
L 99.45644 110.03719 
L 99.638748 58.310067 
L 99.729903 210.669956 
L 99.821057 207.284181 
L 100.094519 192.495114 
L 100.367981 166.939607 
L 100.641444 122.779691 
L 100.914906 76.659269 
L 101.00606 76.659269 
L 101.097215 46.471356 
L 101.188369 209.486085 
L 101.279523 205.863536 
L 101.552985 190.040239 
L 101.826448 162.697583 
L 102.09991 115.449473 
L 102.282218 66.103755 
L 102.373372 211.449325 
L 102.464526 208.219424 
L 102.737989 194.111214 
L 103.011451 169.732227 
L 103.284914 127.605338 
L 103.558376 54.810073 
L 103.64953 210.319957 
L 103.740684 206.864182 
L 104.014147 191.769356 
L 104.287609 165.685496 
L 104.561071 120.612587 
L 104.74338 73.538639 
L 104.834534 212.192814 
L 104.925688 209.11161 
L 105.19915 195.652911 
L 105.472613 172.39628 
L 105.746075 132.208821 
L 106.019537 62.764893 
L 106.110692 211.115439 
L 106.201846 207.81876 
L 106.475308 193.418867 
L 106.748771 168.535852 
L 107.022233 125.538002 
L 107.295695 51.237717 
L 107.386849 209.962721 
L 107.478004 206.435499 
L 107.751466 191.028592 
L 108.024928 164.405457 
L 108.298391 118.400678 
L 108.480699 70.353491 
L 108.571853 211.874299 
L 108.663007 208.729392 
L 108.93647 194.992439 
L 109.209932 171.254984 
L 109.483394 130.236662 
L 109.756857 59.357001 
L 109.848011 210.77465 
L 109.939165 207.409813 
L 110.212627 192.712207 
L 110.48609 167.314743 
L 110.759552 123.427925 
L 111.033015 47.591504 
L 111.124169 209.5981 
L 111.215323 205.997953 
L 111.488785 190.272513 
L 111.762248 163.098952 
L 112.03571 116.143039 
L 112.309172 67.10249 
L 112.400326 67.10249 
L 112.491481 35.003222 
L 112.582635 208.339272 
L 112.673789 204.48736 
L 112.947251 187.662207 
L 113.220714 158.588343 
L 113.494176 108.348707 
L 113.676484 55.878651 
L 113.767638 210.426815 
L 113.858793 206.992411 
L 114.132255 191.990936 
L 114.405717 166.068387 
L 114.67918 121.274223 
L 114.952642 43.869906 
L 115.043796 209.22594 
L 115.13495 205.551362 
L 115.408413 189.500803 
L 115.681875 161.765437 
L 115.955338 113.838724 
L 116.2288 31.026693 
L 116.319954 207.941619 
L 116.411108 204.010176 
L 116.684571 186.837634 
L 116.958033 157.163481 
L 117.231495 105.886545 
L 117.504958 52.333139 
L 117.77842 52.333139 
L 117.869574 17.28 
L 117.960728 206.56695 
L 118.051882 202.360573 
L 118.325345 183.98712 
L 118.598807 152.237793 
L 118.87227 97.374955 
L 119.054578 40.106075 
L 119.145732 208.849557 
L 119.236886 205.099702 
L 119.510349 188.720335 
L 119.783811 160.416788 
L 120.057273 111.508259 
L 120.330736 60.428407 
L 121.606894 60.428407 
L 121.698048 210.88179 
L 121.789202 207.538382 
L 122.062664 192.934373 
L 122.336127 167.698647 
L 122.609589 124.091311 
L 122.883051 48.834468 
L 122.974205 209.722396 
L 123.06536 206.147109 
L 123.338822 190.530254 
L 123.612284 163.544329 
L 123.885747 116.91265 
L 124.068055 68.239511 
L 124.159209 211.662901 
L 124.250363 208.475714 
L 124.523826 194.554084 
L 124.797288 170.497507 
L 125.07075 128.927741 
L 125.344213 57.136421 
L 125.435367 210.552592 
L 125.526521 207.143344 
L 125.799983 192.251747 
L 126.073446 166.519069 
L 126.346908 122.053001 
L 126.620371 45.215635 
L 126.711525 209.360513 
L 126.802679 205.712849 
L 127.076141 189.779853 
L 127.349604 162.247635 
L 127.623066 114.671964 
L 127.805374 64.984141 
L 127.896528 211.337364 
L 127.987683 208.08507 
L 128.261145 193.87905 
L 128.534607 169.331049 
L 128.80807 126.912102 
L 129.081532 53.616846 
L 129.172686 210.200634 
L 129.26384 206.720994 
L 129.537303 191.521928 
L 129.810765 165.257941 
L 130.084227 119.873772 
L 130.266536 72.474745 
L 130.35769 212.086424 
L 130.448844 208.983942 
L 130.722306 195.432302 
L 130.995769 172.015068 
L 131.269231 131.550087 
L 131.542694 61.626599 
L 131.633848 211.00161 
L 131.725002 207.682165 
L 131.998464 193.182831 
L 132.271927 168.127981 
L 132.545389 124.833201 
L 132.818851 50.01982 
L 132.910005 209.840932 
L 133.00116 206.289351 
L 133.274622 190.776049 
L 133.548084 163.969062 
L 133.821547 117.646589 
L 134.095009 37.612846 
L 134.186163 208.600234 
L 134.277317 204.800514 
L 134.55078 188.203339 
L 134.824242 159.523419 
L 135.097705 109.964517 
L 135.462321 24.377891 
L 135.553475 207.276739 
L 135.644629 203.21232 
L 135.918092 185.458938 
L 136.191554 154.781095 
L 136.465017 101.769782 
L 136.647325 46.415329 
L 136.738479 209.480483 
L 136.829633 205.856812 
L 137.103095 190.028622 
L 137.376558 162.677508 
L 137.65002 115.414783 
L 137.923483 66.053801 
L 138.014637 66.053801 
L 138.105791 33.744794 
L 138.196945 208.213429 
L 138.288099 204.336348 
L 138.561561 187.401259 
L 138.835024 158.137426 
L 139.108486 107.569522 
L 139.290795 54.756625 
L 139.381949 210.314612 
L 139.473103 206.857768 
L 139.746565 191.758273 
L 140.020028 165.666345 
L 140.29349 120.579493 
L 140.566952 73.490984 
L 140.658106 73.490984 
L 140.749261 42.669414 
L 140.840415 209.105891 
L 140.931569 205.407303 
L 141.205031 189.251869 
L 141.478494 161.335279 
L 141.751956 113.095411 
L 141.934264 62.713906 
L 142.025418 211.11034 
L 142.116573 207.812642 
L 142.390035 193.408294 
L 142.663497 168.517582 
L 142.93696 125.506432 
L 143.301576 51.183164 
L 143.39273 209.957266 
L 143.483884 206.428953 
L 143.757347 191.01728 
L 144.030809 164.385909 
L 144.304272 118.366901 
L 144.48658 70.30485 
L 144.577734 211.869435 
L 144.668888 208.723555 
L 144.942351 194.982353 
L 145.215813 171.237555 
L 145.489275 130.206545 
L 145.762738 59.304959 
L 145.853892 210.769446 
L 145.945046 207.403568 
L 146.218508 192.701415 
L 146.491971 167.296095 
L 146.765433 123.395702 
L 147.038895 47.535823 
L 147.13005 209.592532 
L 147.221204 205.991272 
L 147.494666 190.260967 
L 147.768129 163.079001 
L 148.041591 116.108563 
L 148.315053 67.052845 
L 148.406207 67.052845 
L 148.497362 34.943647 
L 148.588516 208.333314 
L 148.67967 204.480211 
L 148.953132 187.649854 
L 149.226595 158.566997 
L 149.500057 108.31182 
L 149.682365 55.825534 
L 149.773519 210.421503 
L 149.864673 206.986037 
L 150.138136 191.979922 
L 150.411598 166.049354 
L 150.685061 121.241334 
L 150.958523 43.813074 
L 151.049677 209.220257 
L 151.140831 205.544542 
L 151.414294 189.489018 
L 151.687756 161.745073 
L 151.961218 113.803535 
L 152.325835 30.960559 
L 152.416989 207.935006 
L 152.508143 204.00224 
L 152.781606 186.82392 
L 153.055068 157.139784 
L 153.32853 105.845596 
L 153.510839 52.274172 
L 153.601993 210.066367 
L 153.693147 206.559874 
L 153.966609 191.243511 
L 154.240072 164.776837 
L 154.513534 119.042424 
L 154.878151 40.013359 
L 154.969305 208.840286 
L 155.060459 205.088576 
L 155.333921 188.701109 
L 155.607384 160.383566 
L 155.880846 111.450852 
L 156.063154 60.34574 
L 156.154308 210.873524 
L 156.245462 207.528462 
L 156.518925 192.917232 
L 156.792387 167.669026 
L 157.06585 124.040126 
L 157.339312 48.649388 
L 157.430466 209.703888 
L 157.52162 206.1249 
L 157.795083 190.491876 
L 158.068545 163.478011 
L 158.342007 116.798053 
L 158.706624 36.135085 
L 158.797778 208.452458 
L 158.888932 204.623183 
L 159.162395 187.89691 
L 159.435857 158.993911 
L 159.709319 109.049527 
L 159.891628 56.887832 
L 159.982782 210.527733 
L 160.073936 207.113513 
L 160.347398 192.2002 
L 160.620861 166.429995 
L 160.894323 121.899081 
L 161.167785 44.949662 
L 161.25894 209.333916 
L 161.350094 205.680932 
L 161.623556 189.724701 
L 161.897018 162.152333 
L 162.170481 114.50728 
L 162.352789 64.746997 
L 162.443943 211.313649 
L 162.535097 208.056613 
L 162.80856 193.829876 
L 163.082022 169.246076 
L 163.355485 126.765269 
L 163.628947 53.358434 
L 163.720101 210.174793 
L 163.811255 206.689985 
L 164.084718 191.468344 
L 164.35818 165.165348 
L 164.631642 119.71377 
L 164.905105 41.173445 
L 164.996259 208.956294 
L 165.087413 205.227786 
L 165.360875 188.941664 
L 165.634338 160.799246 
L 165.9078 112.169146 
L 166.090108 61.380084 
L 166.181263 210.976958 
L 166.272417 207.652583 
L 166.545879 193.131713 
L 166.819341 168.03965 
L 167.092804 124.680565 
L 167.366266 49.756066 
L 167.45742 209.814556 
L 167.548574 206.257701 
L 167.822037 190.721357 
L 168.095499 163.874554 
L 168.368962 117.483279 
L 168.642424 69.032435 
L 168.733578 69.032435 
L 168.824732 37.319156 
L 168.915886 208.570865 
L 169.007041 204.765272 
L 169.280503 188.142439 
L 169.553965 159.418184 
L 169.827428 109.782672 
L 170.009736 57.943561 
L 170.10089 210.633306 
L 170.192044 207.2402 
L 170.465507 192.419116 
L 170.738969 166.808282 
L 171.012431 122.552761 
L 171.285894 46.07922 
L 171.377048 209.446872 
L 171.468202 205.816479 
L 171.741664 189.958926 
L 172.015127 162.557074 
L 172.288589 115.206673 
L 172.562052 65.754123 
L 172.653206 65.754123 
L 172.74436 33.385181 
L 172.835514 208.177468 
L 172.926668 204.293195 
L 173.20013 187.32669 
L 173.473593 158.00857 
L 173.747055 107.346858 
L 173.929363 54.43599 
L 174.020518 210.282549 
L 174.111672 206.819292 
L 174.385134 191.691786 
L 174.658597 165.551455 
L 174.932059 120.380965 
L 175.296675 42.326356 
L 175.38783 209.071585 
L 175.478984 205.366136 
L 175.752446 189.180732 
L 176.025908 161.212355 
L 176.299371 112.882999 
L 176.481679 62.408032 
L 176.572833 211.079753 
L 176.663987 207.775937 
L 176.93745 193.344868 
L 177.210912 168.407982 
L 177.484375 125.317043 
L 177.757837 50.8559 
L 177.848991 209.92454 
L 177.940145 206.389681 
L 178.213608 190.949418 
L 178.48707 164.268644 
L 178.760532 118.164267 
L 179.033995 70.013058 
L 179.489765 70.013058 
L 179.580919 38.495903 
L 179.672074 208.68854 
L 179.763228 204.906481 
L 180.03669 188.386449 
L 180.310153 159.839834 
L 180.583615 110.511283 
L 180.857077 25.271547 
L 180.948231 207.366104 
L 181.039386 203.319559 
L 181.312848 185.644247 
L 181.58631 155.101308 
L 181.859773 102.323111 
L 182.042081 47.201793 
L 182.133235 209.559129 
L 182.224389 205.951188 
L 182.497852 190.191703 
L 182.771314 162.959312 
L 183.044776 115.90174 
L 183.318239 66.75502 
L 183.956318 66.75502 
L 184.047472 34.586257 
L 184.138626 208.297575 
L 184.22978 204.437324 
L 184.503242 187.575745 
L 184.776705 158.438937 
L 185.050167 108.090533 
L 185.232475 55.506882 
L 185.32363 210.389638 
L 185.414784 206.947799 
L 185.688246 191.913846 
L 185.961709 165.935175 
L 186.235171 121.044033 
L 186.508633 43.472138 
L 186.599787 209.186163 
L 186.690942 205.50363 
L 186.964404 189.418321 
L 187.237866 161.622909 
L 187.511329 113.592437 
L 187.693637 63.429622 
L 187.784791 211.181912 
L 187.875945 207.898528 
L 188.149408 193.556705 
L 188.42287 168.774037 
L 188.696332 125.949585 
L 188.969795 51.948932 
L 189.060949 210.033843 
L 189.152103 206.520845 
L 189.425565 191.17607 
L 189.699028 164.660298 
L 189.97249 118.841044 
L 190.245953 39.665374 
L 190.337107 208.805487 
L 190.428261 205.046818 
L 190.701723 188.628951 
L 190.975186 160.258877 
L 191.248648 111.235389 
L 191.613265 26.522801 
L 191.704419 207.49123 
L 191.795573 203.469709 
L 192.069035 185.903707 
L 192.342498 155.549655 
L 192.61596 103.097854 
L 192.798268 48.317423 
L 192.889422 209.670692 
L 192.980576 206.085064 
L 193.254039 190.42304 
L 193.527501 163.359062 
L 193.800964 116.592509 
L 193.983272 67.749727 
L 194.074426 211.613922 
L 194.16558 208.41694 
L 194.439042 194.452522 
L 194.712505 170.322008 
L 194.985967 128.62448 
L 195.25943 56.571151 
L 195.350584 210.496065 
L 195.441738 207.075511 
L 195.7152 192.134533 
L 195.988663 166.316522 
L 196.262125 121.703 
L 196.535587 44.610834 
L 196.626742 209.300033 
L 196.717896 205.640273 
L 196.991358 189.654441 
L 197.26482 162.030924 
L 197.538283 114.297487 
L 197.720591 64.444895 
L 197.811745 211.283439 
L 197.902899 208.02036 
L 198.176362 193.767232 
L 198.449824 169.137827 
L 198.723287 126.578215 
L 199.087903 53.035205 
L 199.179057 210.14247 
L 199.270211 206.651198 
L 199.543674 191.401319 
L 199.817136 165.049529 
L 200.090598 119.513636 
L 200.455215 40.827612 
L 200.546369 208.921711 
L 200.637523 205.186286 
L 200.910986 188.869953 
L 201.184448 160.675328 
L 201.45791 111.955016 
L 201.731373 61.071736 
L 201.913681 61.071736 
L 202.004835 210.946123 
L 202.095989 207.615581 
L 202.369452 193.067774 
L 202.642914 167.929163 
L 202.916376 124.489644 
L 203.189839 49.426154 
L 203.280993 209.781565 
L 203.372147 206.218111 
L 203.64561 190.652946 
L 203.919072 163.756341 
L 204.192534 117.279006 
L 204.374843 68.738283 
L 204.465997 211.712778 
L 204.557151 208.535567 
L 204.830613 194.657509 
L 205.104076 170.676226 
L 205.377538 129.236568 
L 205.651 57.628838 
L 205.742154 210.601833 
L 205.833309 207.202434 
L 206.106771 192.353855 
L 206.380233 166.695511 
L 206.653696 122.357892 
L 206.927158 45.742487 
L 207.018312 209.413198 
L 207.109466 205.776071 
L 207.382929 189.889101 
L 207.656391 162.436416 
L 207.929854 114.998177 
L 208.112162 65.453889 
L 208.203316 211.384339 
L 208.29447 208.14144 
L 208.567932 193.976457 
L 208.841395 169.499368 
L 209.114857 127.202957 
L 209.38832 83.028772 
L 209.479474 83.028772 
L 209.570628 54.11476 
L 209.661782 210.250426 
L 209.752936 206.780744 
L 210.026399 191.625176 
L 210.299861 165.436353 
L 210.573323 120.182067 
L 210.846786 72.918691 
L 210.93794 72.918691 
L 211.029094 41.982662 
L 211.120248 209.037216 
L 211.211402 205.324892 
L 211.484865 189.109464 
L 211.758327 161.089203 
L 212.031789 112.670192 
L 212.214098 62.101591 
L 212.305252 211.049109 
L 212.396406 207.739164 
L 212.669868 193.281325 
L 212.943331 168.298179 
L 213.216793 125.127303 
L 213.490255 50.528028 
L 213.58141 209.891753 
L 213.672564 206.350336 
L 213.946026 190.881431 
L 214.219488 164.151162 
L 214.492951 117.961258 
L 214.675259 69.720725 
L 214.766413 211.811022 
L 214.857567 208.65346 
L 215.13103 194.861228 
L 215.404492 171.028252 
L 215.677955 129.84487 
L 215.951417 58.679985 
L 216.042571 210.706948 
L 216.133725 207.328571 
L 216.407188 192.571821 
L 216.68065 167.072156 
L 216.954112 123.008734 
L 217.318729 46.867143 
L 217.409883 209.525664 
L 217.501037 205.91103 
L 217.774499 190.12231 
L 218.047962 162.839401 
L 218.321424 115.694534 
L 218.503733 66.456643 
L 218.594887 211.484614 
L 218.686041 208.26177 
L 218.959503 194.184388 
L 219.232966 169.858673 
L 219.506428 127.823836 
L 219.77989 55.187638 
L 219.871044 210.357713 
L 219.962199 206.90949 
L 220.235661 191.847648 
L 220.509123 165.820785 
L 220.782586 120.846366 
L 220.964894 73.87528 
L 221.056048 212.226478 
L 221.147202 209.152007 
L 221.420665 195.722717 
L 221.694127 172.516905 
L 221.967589 132.417261 
L 222.241052 63.125076 
L 222.332206 211.151457 
L 222.42336 207.861982 
L 222.696822 193.493555 
L 222.970285 168.664912 
L 223.243747 125.761018 
L 223.51721 51.623088 
L 223.608364 210.001259 
L 223.699518 206.481744 
L 223.97298 191.108503 
L 224.246443 164.543542 
L 224.519905 118.63929 
L 224.793367 70.697092 
L 224.884522 70.697092 
L 224.975676 211.908659 
L 225.06683 208.770624 
L 225.340292 195.063688 
L 225.613755 171.378102 
L 225.887217 130.44941 
L 226.160679 59.72463 
L 226.251833 210.811413 
L 226.342988 207.453929 
L 226.61645 192.788438 
L 226.889912 167.446471 
L 227.163375 123.655552 
L 227.436837 77.920508 
L 227.527991 77.920508 
L 227.619145 47.984843 
L 227.7103 209.637434 
L 227.801454 206.045154 
L 228.074916 190.354076 
L 228.348378 163.239893 
L 228.621841 116.386584 
L 228.804149 67.453195 
L 228.895303 211.584269 
L 228.986457 208.381356 
L 229.25992 194.391033 
L 229.533382 170.215755 
L 229.806845 128.440875 
L 230.080307 56.253882 
L 230.171461 210.464338 
L 230.262615 207.037439 
L 230.536078 192.068744 
L 230.80954 166.202839 
L 231.083002 121.506555 
L 231.265311 74.825953 
L 231.356465 212.321545 
L 231.447619 209.266087 
L 231.721081 195.919849 
L 231.994544 172.857548 
L 232.268006 133.005893 
L 232.541468 64.142232 
L 232.632623 211.253173 
L 232.723777 207.984041 
L 232.997239 193.704472 
L 233.270701 169.029378 
L 233.544164 126.390814 
L 233.817626 52.711376 
L 233.90878 210.110087 
L 233.999934 206.612338 
L 234.273397 191.33417 
L 234.546859 164.933495 
L 234.820322 119.313129 
L 235.093784 71.66742 
L 235.549555 71.66742 
L 235.640709 212.005692 
L 235.731863 208.887063 
L 236.005325 195.264895 
L 236.278788 171.725788 
L 236.55225 131.050212 
L 236.825712 60.762816 
L 236.916867 210.915231 
L 237.008021 207.578511 
L 237.281483 193.003716 
L 237.554945 167.818472 
L 237.828408 124.298369 
L 238.193024 49.095631 
L 238.284178 209.748513 
L 238.375333 206.178449 
L 238.648795 190.584409 
L 238.922257 163.637908 
L 239.19572 117.074355 
L 239.469182 68.443585 
L 239.833799 68.443585 
L 239.924953 211.683308 
L 240.016107 208.500203 
L 240.289569 194.596401 
L 240.563032 170.57063 
L 240.836494 129.054098 
L 241.109956 57.313531 
L 241.201111 210.570303 
L 241.292265 207.164597 
L 241.565727 192.288473 
L 241.83919 166.582531 
L 242.112652 122.162663 
L 242.29496 75.770747 
L 242.386114 212.416024 
L 242.477268 209.379463 
L 242.750731 196.115761 
L 243.024193 173.196085 
L 243.297656 133.590884 
L 243.571118 65.153098 
L 243.662272 211.354259 
L 243.753426 208.105345 
L 244.026889 193.914085 
L 244.300351 169.391589 
L 244.573813 127.016715 
L 244.847276 53.792934 
L 244.93843 210.218243 
L 245.029584 206.742125 
L 245.303046 191.558442 
L 245.576509 165.321037 
L 245.849971 119.982801 
L 246.032279 72.631747 
L 246.123434 212.102124 
L 246.214588 209.002783 
L 246.48805 195.464858 
L 246.761512 172.071324 
L 247.034975 131.647298 
L 247.308437 61.794581 
L 247.399591 211.018408 
L 247.490746 207.702323 
L 247.764208 193.217663 
L 248.03767 168.188172 
L 248.311133 124.93721 
L 248.675749 50.199549 
L 248.766903 209.858905 
L 248.858057 206.310919 
L 249.13152 190.813317 
L 249.404982 164.033462 
L 249.678445 117.757872 
L 249.951907 69.427849 
L 250.316524 69.427849 
L 250.407678 211.781735 
L 250.498832 208.618315 
L 250.772294 194.800498 
L 251.045757 170.92331 
L 251.319219 129.663529 
L 251.592681 58.366628 
L 251.683835 210.675612 
L 251.77499 207.290968 
L 252.048452 192.506843 
L 252.321914 166.959874 
L 252.595377 122.814712 
L 252.777685 76.709699 
L 252.868839 212.50992 
L 252.959993 209.492137 
L 253.233456 196.310462 
L 253.506918 173.532528 
L 253.78038 134.172258 
L 254.053843 66.157712 
L 254.144997 211.454721 
L 254.236151 208.225898 
L 254.509613 194.122402 
L 254.783076 169.75156 
L 255.056538 127.638746 
L 255.330001 54.867803 
L 255.421155 210.32573 
L 255.512309 206.871109 
L 255.785771 191.781326 
L 256.059234 165.706182 
L 256.332696 120.648332 
L 256.515004 73.590111 
L 256.606158 212.197961 
L 256.697313 209.117786 
L 256.970775 195.663584 
L 257.244237 172.414723 
L 257.5177 132.240692 
L 257.791162 62.819965 
L 257.882316 211.120946 
L 257.97347 207.825369 
L 258.246933 193.430287 
L 258.520395 168.555585 
L 258.793857 125.572101 
L 259.158474 51.29664 
L 259.249628 209.968614 
L 259.340782 206.44257 
L 259.614245 191.04081 
L 259.887707 164.42657 
L 260.161169 118.437162 
L 260.434632 70.406027 
L 261.072711 70.406027 
L 261.163865 211.879552 
L 261.255019 208.735696 
L 261.528481 195.003333 
L 261.801944 171.273809 
L 262.075406 130.269191 
L 262.348869 59.413211 
L 262.440023 210.780271 
L 262.531177 207.416558 
L 262.804639 192.723862 
L 263.078102 167.334884 
L 263.351564 123.462729 
L 263.533872 77.642843 
L 263.625026 212.603234 
L 263.71618 209.604114 
L 263.989643 196.503959 
L 264.263105 173.866891 
L 264.536568 134.750037 
L 264.81003 67.156113 
L 264.901184 211.554561 
L 264.992338 208.345707 
L 265.265801 194.329431 
L 265.539263 170.109306 
L 265.812725 128.25693 
L 266.177342 55.936024 
L 266.268496 210.432552 
L 266.35965 206.999296 
L 266.633113 192.002833 
L 266.906575 166.088945 
L 267.180037 121.309746 
L 267.362346 74.542548 
L 267.4535 212.293204 
L 267.544654 209.232079 
L 267.818116 195.861082 
L 268.091579 172.755999 
L 268.365041 132.830416 
L 268.638503 63.839008 
L 268.729658 211.22285 
L 268.820812 207.947654 
L 269.094274 193.641596 
L 269.367736 168.920727 
L 269.641199 126.203066 
L 269.914661 52.386947 
L 270.005815 210.077644 
L 270.096969 206.573407 
L 270.370432 191.266896 
L 270.643894 164.817246 
L 270.917357 119.112251 
L 271.190819 71.378156 
L 272.011206 71.378156 
L 272.10236 211.976765 
L 272.193514 208.852352 
L 272.466977 195.204913 
L 272.740439 171.62214 
L 273.013902 130.871107 
L 273.287364 60.453323 
L 273.378518 210.884282 
L 273.469672 207.541372 
L 273.743135 192.93954 
L 274.016597 167.707575 
L 274.290059 124.106739 
L 274.472368 78.570217 
L 274.563522 212.695971 
L 274.654676 209.715399 
L 274.928138 196.696259 
L 275.201601 174.199185 
L 275.475063 135.324242 
L 275.748525 68.14834 
L 275.83968 211.653784 
L 275.930834 208.464774 
L 276.204296 194.535179 
L 276.477758 170.464838 
L 276.751221 128.87129 
L 277.024683 56.997639 
L 277.115837 210.538714 
L 277.206992 207.12669 
L 277.480454 192.222969 
L 277.753916 166.469341 
L 278.027379 121.967071 
L 278.209687 75.489095 
L 278.300841 212.387859 
L 278.391995 209.345664 
L 278.665458 196.057358 
L 278.93892 173.095164 
L 279.212382 133.416493 
L 279.485845 64.851749 
L 279.576999 211.324125 
L 279.668153 208.069183 
L 279.941615 193.851598 
L 280.215078 169.28361 
L 280.48854 126.830128 
L 280.762003 53.470511 
L 280.853157 210.186001 
L 280.944311 206.703434 
L 281.217773 191.491584 
L 281.491236 165.205507 
L 281.764698 119.783166 
L 282.03816 72.344272 
L 283.040856 72.344272 
L 283.13201 212.073377 
L 283.223164 208.968286 
L 283.496626 195.405247 
L 283.770089 171.968317 
L 284.043551 131.469301 
L 284.317014 61.487002 
L 284.408168 210.98765 
L 284.499322 207.665413 
L 284.772784 193.153884 
L 285.046247 168.07796 
L 285.319709 124.746765 
L 285.593171 79.491856 
L 285.684326 79.491856 
L 285.77548 49.87046 
L 285.866634 209.825996 
L 285.957788 206.271428 
L 286.23125 190.745078 
L 286.504713 163.915544 
L 286.778175 117.554109 
L 286.960483 69.13443 
L 287.051637 211.752393 
L 287.142792 208.583105 
L 287.416254 194.739654 
L 287.689716 170.818173 
L 287.963179 129.481852 
L 288.236641 58.052689 
L 288.327795 210.644219 
L 288.418949 207.253296 
L 288.692412 192.441745 
L 288.965874 166.847384 
L 289.239337 122.62033 
L 289.603953 46.195979 
L 289.695107 209.458548 
L 289.786261 205.830491 
L 290.059724 189.983137 
L 290.333186 162.598911 
L 290.606648 115.278967 
L 290.788957 65.858227 
L 290.880111 211.424772 
L 290.971265 208.18996 
L 291.244727 194.060301 
L 291.51819 169.644249 
L 291.791652 127.453313 
L 292.065115 54.547374 
L 292.156269 210.293687 
L 292.247423 206.832658 
L 292.520885 191.714882 
L 292.794348 165.591366 
L 293.06781 120.449931 
L 293.341272 73.304414 
L 296.531667 73.304414 
L 296.622821 42.44553 
L 296.713975 209.083503 
L 296.805129 205.380437 
L 297.078592 189.205444 
L 297.352054 161.255057 
L 297.625516 112.956788 
L 297.807825 62.514288 
L 297.898979 211.090378 
L 297.990133 207.788688 
L 298.263595 193.366902 
L 298.537058 168.446056 
L 298.81052 125.382834 
L 299.083982 50.969587 
L 299.175137 209.935908 
L 299.266291 206.403323 
L 299.539753 190.972992 
L 299.813215 164.309381 
L 300.086678 118.234659 
L 300.268986 70.114423 
L 300.36014 211.850392 
L 300.451294 208.700704 
L 300.724757 194.942866 
L 300.998219 171.169321 
L 301.271682 130.088637 
L 301.545144 59.101215 
L 301.636298 210.749071 
L 301.727452 207.379119 
L 302.000915 192.659167 
L 302.274377 167.22309 
L 302.547839 123.269549 
L 302.821302 77.364664 
L 302.912456 77.364664 
L 303.00361 47.31783 
L 303.094764 209.570733 
L 303.185918 205.965113 
L 303.459381 190.215764 
L 303.732843 163.00089 
L 304.006305 115.973588 
L 304.188614 66.85848 
L 304.279768 211.524798 
L 304.370922 208.309991 
L 304.644384 194.267713 
L 304.917847 170.002658 
L 305.191309 128.072643 
L 305.464771 55.617577 
L 305.555926 210.400707 
L 305.64708 206.961082 
L 305.920542 191.9368 
L 306.194005 165.974839 
L 306.467467 121.112572 
L 306.832083 43.590574 
L 306.923238 209.198007 
L 307.014392 205.517842 
L 307.287854 189.44288 
L 307.561316 161.665347 
L 307.834779 113.665769 
L 308.017087 63.535221 
L 308.108241 211.192472 
L 308.199395 207.9112 
L 308.472858 193.578602 
L 308.74632 168.811875 
L 309.019783 126.014969 
L 309.293245 52.061916 
L 309.384399 210.045141 
L 309.475553 206.534403 
L 309.749016 191.199498 
L 310.022478 164.700782 
L 310.29594 118.911001 
L 310.569403 71.088354 
L 324.42483 71.088354 
L 324.515984 39.786259 
L 324.607139 208.817576 
L 324.698293 205.061324 
L 324.971755 188.654018 
L 325.245217 160.302192 
L 325.51868 111.310237 
L 325.700988 60.143255 
L 325.792142 210.853275 
L 325.883296 207.504164 
L 326.156759 192.875244 
L 326.430221 167.596472 
L 326.703684 123.914753 
L 326.977146 48.432743 
L 327.0683 209.682224 
L 327.159454 206.098902 
L 327.432917 190.446953 
L 327.706379 163.400384 
L 327.979841 116.663912 
L 328.253304 67.852547 
L 335.181018 67.852547 
L 335.272172 35.90329 
L 335.363326 208.429279 
L 335.45448 204.595368 
L 335.727942 187.848845 
L 336.001405 158.910854 
L 336.274867 108.906006 
L 336.457175 56.681162 
L 336.548329 210.507066 
L 336.639484 207.088712 
L 336.912946 192.157345 
L 337.186408 166.355941 
L 337.459871 121.771116 
L 337.733333 44.728538 
L 337.824487 209.311803 
L 337.915641 205.654398 
L 338.189104 189.678849 
L 338.462566 162.0731 
L 338.736029 114.370366 
L 339.009491 31.940042 
L 339.100645 208.032954 
L 339.191799 204.119778 
L 339.465262 187.027026 
L 339.738724 157.490751 
L 340.012186 106.452067 
L 340.194495 53.14749 
L 340.285649 210.153699 
L 340.376803 206.664672 
L 340.650265 191.424602 
L 340.923728 165.089763 
L 341.19719 119.583159 
L 341.470652 40.947749 
L 341.561807 208.933725 
L 341.652961 205.200703 
L 341.926423 188.894864 
L 342.199885 160.718375 
L 342.473348 112.029402 
L 342.74681 61.178852 
L 344.114122 61.178852 
L 344.205276 27.894856 
L 344.29643 207.628435 
L 344.387585 203.634356 
L 344.661047 186.188216 
L 344.934509 156.041287 
L 345.207972 103.947394 
L 345.39028 49.540761 
L 345.481434 209.793026 
L 345.572588 206.231864 
L 345.846051 190.676711 
L 346.119513 163.797406 
L 346.392975 117.349968 
L 346.666438 37.088794 
L 346.757592 208.547829 
L 346.848746 204.737628 
L 347.122208 188.094671 
L 347.395671 159.335642 
L 347.669133 109.640038 
L 347.942596 57.738169 
L 350.950682 57.738169 
L 351.041836 23.766036 
L 351.13299 207.215553 
L 351.224144 203.138897 
L 351.497607 185.332064 
L 351.771069 154.561856 
L 352.044531 101.390938 
L 352.22684 45.859463 
L 352.317994 209.424896 
L 352.409148 205.790109 
L 352.68261 189.913357 
L 352.956073 162.478331 
L 353.229535 115.070606 
L 353.502997 33.150056 
L 353.594152 208.153955 
L 353.685306 204.26498 
L 353.958768 187.277935 
L 354.23223 157.924321 
L 354.505693 107.201276 
L 354.779155 54.22635 
L 354.961463 54.22635 
L 355.052618 210.261585 
L 355.143772 206.794135 
L 355.417234 191.648315 
L 355.690697 165.476338 
L 355.964159 120.251161 
L 356.237621 42.102057 
L 356.328775 209.049155 
L 356.41993 205.33922 
L 356.693392 189.134221 
L 356.966854 161.131984 
L 357.149163 131.886571 
L 357.149163 131.886571 
" clip-path="url(#pad285725fe)" style="fill: none; stroke: #1f77b4; stroke-width: 1.5; stroke-linecap: square"/>
   </g>
   <g id="patch_3">
    <path d="M 37.567344 228.96 
L 37.567344 7.2 
" style="fill: none; stroke: #000000; stroke-width: 0.8; stroke-linejoin: miter; stroke-linecap: square"/>
   </g>
   <g id="patch_4">
    <path d="M 372.367344 228.96 
L 372.367344 7.2 
" style="fill: none; stroke: #000000; stroke-width: 0.8; stroke-linejoin: miter; stroke-linecap: square"/>
   </g>
   <g id="patch_5">
    <path d="M 37.567344 228.96 
L 372.367344 228.96 
" style="fill: none; stroke: #000000; stroke-width: 0.8; stroke-linejoin: miter; stroke-linecap: square"/>
   </g>
   <g id="patch_6">
    <path d="M 37.567344 7.2 
L 372.367344 7.2 
" style="fill: none; stroke: #000000; stroke-width: 0.8; stroke-linejoin: miter; stroke-linecap: square"/>
   </g>
   <g id="legend_1">
    <g id="patch_7">
     <path d="M 314.548024 29.420307 
L 365.367344 29.420307 
Q 367.367344 29.420307 367.367344 27.420307 
L 367.367344 14.2 
Q 367.367344 12.2 365.367344 12.2 
L 314.548024 12.2 
Q 312.548024 12.2 312.548024 14.2 
L 312.548024 27.420307 
Q 312.548024 29.420307 314.548024 29.420307 
z
" style="fill: #ffffff; opacity: 0.8; stroke: #cccccc; stroke-linejoin: miter"/>
    </g>
    <g id="line2d_16">
     <path d="M 316.548024 19.79832 
L 326.548024 19.79832 
L 336.548024 19.79832 
" style="fill: none; stroke: #1f77b4; stroke-width: 1.5; stroke-linecap: square"/>
    </g>
    <g id="text_17">
     <!-- CFL -->
     <g transform="translate(344.548024 23.29832) scale(0.1 -0.1)">
      <use xlink:href="#NimbusSanL-Regu-43" transform="scale(0.996264)"/>
      <use xlink:href="#NimbusSanL-Regu-46" transform="translate(71.929985 0) scale(0.996264)"/>
      <use xlink:href="#NimbusSanL-Regu-4c" transform="translate(132.801616 0) scale(0.996264)"/>
     </g>
    </g>
   </g>
  </g>
 </g>
 <defs>
  <clipPath id="pad285725fe">
   <rect x="37.567344" y="7.2" width="334.8" height="221.76"/>
  </clipPath>
 </defs>
</svg>
