<?xml version="1.0" encoding="utf-8" standalone="no"?>
<!DOCTYPE svg PUBLIC "-//W3C//DTD SVG 1.1//EN"
  "http://www.w3.org/Graphics/SVG/1.1/DTD/svg11.dtd">
<svg xmlns:xlink="http://www.w3.org/1999/xlink" width="382.334753pt" height="265.600613pt" viewBox="0 0 382.334753 265.600613" xmlns="http://www.w3.org/2000/svg" version="1.1">
 <metadata>
  <rdf:RDF xmlns:dc="http://purl.org/dc/elements/1.1/" xmlns:cc="http://creativecommons.org/ns#" xmlns:rdf="http://www.w3.org/1999/02/22-rdf-syntax-ns#">
   <cc:Work>
    <dc:type rdf:resource="http://purl.org/dc/dcmitype/StillImage"/>
    <dc:date>2025-07-16T22:04:19.214053</dc:date>
    <dc:format>image/svg+xml</dc:format>
    <dc:creator>
     <cc:Agent>
      <dc:title>Matplotlib v3.10.3, https://matplotlib.org/</dc:title>
     </cc:Agent>
    </dc:creator>
   </cc:Work>
  </rdf:RDF>
 </metadata>
 <defs>
  <style type="text/css">*{stroke-linejoin: round; stroke-linecap: butt}</style>
 </defs>
 <g id="figure_1">
  <g id="patch_1">
   <path d="M 0 265.600613 
L 382.334753 265.600613 
L 382.334753 0 
L 0 0 
z
" style="fill: #ffffff"/>
  </g>
  <g id="axes_1">
   <g id="patch_2">
    <path d="M 40.334753 228.96 
L 375.134753 228.96 
L 375.134753 7.2 
L 40.334753 7.2 
z
" style="fill: #ffffff"/>
   </g>
   <g id="matplotlib.axis_1">
    <g id="xtick_1">
     <g id="line2d_1">
      <defs>
       <path id="m8e5619f08d" d="M 0 0 
L 0 3.5 
" style="stroke: #000000; stroke-width: 0.8"/>
      </defs>
      <g>
       <use xlink:href="#m8e5619f08d" x="55.552935" y="228.96" style="stroke: #000000; stroke-width: 0.8"/>
      </g>
     </g>
     <g id="text_1">
      <!-- $\mathdefault{0}$ -->
      <g transform="translate(53.062267 243.05832) scale(0.1 -0.1)">
       <defs>
        <path id="CMR17-30" d="M 2688 2038 
C 2688 2430 2682 3099 2413 3613 
C 2176 4063 1798 4224 1466 4224 
C 1158 4224 768 4082 525 3620 
C 269 3137 243 2539 243 2038 
C 243 1671 250 1112 448 623 
C 723 -39 1216 -128 1466 -128 
C 1760 -128 2208 -7 2470 604 
C 2662 1048 2688 1568 2688 2038 
z
M 1466 -26 
C 1056 -26 813 328 723 816 
C 653 1196 653 1749 653 2109 
C 653 2604 653 3015 736 3407 
C 858 3954 1216 4121 1466 4121 
C 1728 4121 2067 3947 2189 3420 
C 2272 3054 2278 2623 2278 2109 
C 2278 1691 2278 1176 2202 797 
C 2067 96 1690 -26 1466 -26 
z
" transform="scale(0.015625)"/>
       </defs>
       <use xlink:href="#CMR17-30" transform="scale(0.996264)"/>
      </g>
     </g>
    </g>
    <g id="xtick_2">
     <g id="line2d_2">
      <g>
       <use xlink:href="#m8e5619f08d" x="101.308142" y="228.96" style="stroke: #000000; stroke-width: 0.8"/>
      </g>
     </g>
     <g id="text_2">
      <!-- $\mathdefault{500}$ -->
      <g transform="translate(93.836139 243.05832) scale(0.1 -0.1)">
       <defs>
        <path id="CMR17-35" d="M 730 3750 
C 794 3724 1056 3641 1325 3641 
C 1920 3641 2246 3961 2432 4140 
C 2432 4191 2432 4224 2394 4224 
C 2387 4224 2374 4224 2323 4198 
C 2099 4102 1837 4032 1517 4032 
C 1325 4032 1037 4055 723 4191 
C 653 4224 640 4224 634 4224 
C 602 4224 595 4217 595 4090 
L 595 2231 
C 595 2113 595 2080 659 2080 
C 691 2080 704 2093 736 2139 
C 941 2435 1222 2560 1542 2560 
C 1766 2560 2246 2415 2246 1293 
C 2246 1087 2246 716 2054 422 
C 1894 159 1645 25 1370 25 
C 947 25 518 319 403 812 
C 429 806 480 793 506 793 
C 589 793 749 838 749 1036 
C 749 1209 627 1280 506 1280 
C 358 1280 262 1190 262 1011 
C 262 454 704 -128 1382 -128 
C 2042 -128 2669 441 2669 1267 
C 2669 2054 2170 2662 1549 2662 
C 1222 2662 947 2540 730 2304 
L 730 3750 
z
" transform="scale(0.015625)"/>
       </defs>
       <use xlink:href="#CMR17-35" transform="scale(0.996264)"/>
       <use xlink:href="#CMR17-30" transform="translate(45.690477 0) scale(0.996264)"/>
       <use xlink:href="#CMR17-30" transform="translate(91.380954 0) scale(0.996264)"/>
      </g>
     </g>
    </g>
    <g id="xtick_3">
     <g id="line2d_3">
      <g>
       <use xlink:href="#m8e5619f08d" x="147.063348" y="228.96" style="stroke: #000000; stroke-width: 0.8"/>
      </g>
     </g>
     <g id="text_3">
      <!-- $\mathdefault{1000}$ -->
      <g transform="translate(137.100678 243.05832) scale(0.1 -0.1)">
       <defs>
        <path id="CMR17-31" d="M 1702 4083 
C 1702 4217 1696 4224 1606 4224 
C 1357 3927 979 3833 621 3820 
C 602 3820 570 3820 563 3808 
C 557 3795 557 3782 557 3648 
C 755 3648 1088 3686 1344 3839 
L 1344 467 
C 1344 243 1331 166 781 166 
L 589 166 
L 589 0 
C 896 6 1216 12 1523 12 
C 1830 12 2150 6 2458 0 
L 2458 166 
L 2266 166 
C 1715 166 1702 236 1702 467 
L 1702 4083 
z
" transform="scale(0.015625)"/>
       </defs>
       <use xlink:href="#CMR17-31" transform="scale(0.996264)"/>
       <use xlink:href="#CMR17-30" transform="translate(45.690477 0) scale(0.996264)"/>
       <use xlink:href="#CMR17-30" transform="translate(91.380954 0) scale(0.996264)"/>
       <use xlink:href="#CMR17-30" transform="translate(137.071431 0) scale(0.996264)"/>
      </g>
     </g>
    </g>
    <g id="xtick_4">
     <g id="line2d_4">
      <g>
       <use xlink:href="#m8e5619f08d" x="192.818555" y="228.96" style="stroke: #000000; stroke-width: 0.8"/>
      </g>
     </g>
     <g id="text_4">
      <!-- $\mathdefault{1500}$ -->
      <g transform="translate(182.855885 243.05832) scale(0.1 -0.1)">
       <use xlink:href="#CMR17-31" transform="scale(0.996264)"/>
       <use xlink:href="#CMR17-35" transform="translate(45.690477 0) scale(0.996264)"/>
       <use xlink:href="#CMR17-30" transform="translate(91.380954 0) scale(0.996264)"/>
       <use xlink:href="#CMR17-30" transform="translate(137.071431 0) scale(0.996264)"/>
      </g>
     </g>
    </g>
    <g id="xtick_5">
     <g id="line2d_5">
      <g>
       <use xlink:href="#m8e5619f08d" x="238.573762" y="228.96" style="stroke: #000000; stroke-width: 0.8"/>
      </g>
     </g>
     <g id="text_5">
      <!-- $\mathdefault{2000}$ -->
      <g transform="translate(228.611092 243.05832) scale(0.1 -0.1)">
       <defs>
        <path id="CMR17-32" d="M 2669 990 
L 2554 990 
C 2490 537 2438 460 2413 422 
C 2381 371 1920 371 1830 371 
L 602 371 
C 832 620 1280 1073 1824 1596 
C 2214 1966 2669 2400 2669 3033 
C 2669 3788 2067 4224 1395 4224 
C 691 4224 262 3603 262 3027 
C 262 2777 448 2745 525 2745 
C 589 2745 781 2783 781 3007 
C 781 3206 614 3264 525 3264 
C 486 3264 448 3257 422 3244 
C 544 3788 915 4057 1306 4057 
C 1862 4057 2227 3616 2227 3033 
C 2227 2477 1901 1998 1536 1583 
L 262 147 
L 262 0 
L 2515 0 
L 2669 990 
z
" transform="scale(0.015625)"/>
       </defs>
       <use xlink:href="#CMR17-32" transform="scale(0.996264)"/>
       <use xlink:href="#CMR17-30" transform="translate(45.690477 0) scale(0.996264)"/>
       <use xlink:href="#CMR17-30" transform="translate(91.380954 0) scale(0.996264)"/>
       <use xlink:href="#CMR17-30" transform="translate(137.071431 0) scale(0.996264)"/>
      </g>
     </g>
    </g>
    <g id="xtick_6">
     <g id="line2d_6">
      <g>
       <use xlink:href="#m8e5619f08d" x="284.328969" y="228.96" style="stroke: #000000; stroke-width: 0.8"/>
      </g>
     </g>
     <g id="text_6">
      <!-- $\mathdefault{2500}$ -->
      <g transform="translate(274.366299 243.05832) scale(0.1 -0.1)">
       <use xlink:href="#CMR17-32" transform="scale(0.996264)"/>
       <use xlink:href="#CMR17-35" transform="translate(45.690477 0) scale(0.996264)"/>
       <use xlink:href="#CMR17-30" transform="translate(91.380954 0) scale(0.996264)"/>
       <use xlink:href="#CMR17-30" transform="translate(137.071431 0) scale(0.996264)"/>
      </g>
     </g>
    </g>
    <g id="xtick_7">
     <g id="line2d_7">
      <g>
       <use xlink:href="#m8e5619f08d" x="330.084176" y="228.96" style="stroke: #000000; stroke-width: 0.8"/>
      </g>
     </g>
     <g id="text_7">
      <!-- $\mathdefault{3000}$ -->
      <g transform="translate(320.121506 243.05832) scale(0.1 -0.1)">
       <defs>
        <path id="CMR17-33" d="M 1414 2176 
C 1984 2176 2234 1673 2234 1094 
C 2234 322 1824 25 1453 25 
C 1114 25 563 193 390 691 
C 422 678 454 678 486 678 
C 640 678 755 780 755 947 
C 755 1132 614 1216 486 1216 
C 378 1216 211 1164 211 927 
C 211 335 787 -128 1466 -128 
C 2176 -128 2720 432 2720 1087 
C 2720 1718 2208 2176 1600 2246 
C 2086 2347 2554 2776 2554 3353 
C 2554 3856 2048 4224 1472 4224 
C 890 4224 378 3862 378 3347 
C 378 3123 544 3084 627 3084 
C 762 3084 877 3167 877 3334 
C 877 3500 762 3584 627 3584 
C 602 3584 570 3584 544 3571 
C 730 3999 1235 4076 1459 4076 
C 1683 4076 2106 3966 2106 3347 
C 2106 3167 2080 2851 1862 2574 
C 1670 2329 1453 2316 1242 2297 
C 1210 2297 1062 2284 1037 2284 
C 992 2278 966 2272 966 2227 
C 966 2182 973 2176 1101 2176 
L 1414 2176 
z
" transform="scale(0.015625)"/>
       </defs>
       <use xlink:href="#CMR17-33" transform="scale(0.996264)"/>
       <use xlink:href="#CMR17-30" transform="translate(45.690477 0) scale(0.996264)"/>
       <use xlink:href="#CMR17-30" transform="translate(91.380954 0) scale(0.996264)"/>
       <use xlink:href="#CMR17-30" transform="translate(137.071431 0) scale(0.996264)"/>
      </g>
     </g>
    </g>
    <g id="text_8">
     <!-- Iteration -->
     <g transform="translate(189.787377 256.278627) scale(0.1 -0.1)">
      <defs>
       <path id="NimbusSanL-Regu-49" d="M 1242 4672 
L 640 4672 
L 640 0 
L 1242 0 
L 1242 4672 
z
" transform="scale(0.015625)"/>
       <path id="NimbusSanL-Regu-74" d="M 1626 3328 
L 1075 3328 
L 1075 4249 
L 544 4249 
L 544 3328 
L 90 3328 
L 90 2892 
L 544 2892 
L 544 402 
C 544 64 774 -128 1190 -128 
C 1318 -128 1446 -116 1626 -84 
L 1626 364 
C 1555 345 1472 339 1370 339 
C 1139 339 1075 402 1075 634 
L 1075 2892 
L 1626 2892 
L 1626 3328 
z
" transform="scale(0.015625)"/>
       <path id="NimbusSanL-Regu-65" d="M 3283 1484 
C 3283 1998 3245 2311 3149 2565 
C 2931 3123 2419 3456 1792 3456 
C 858 3456 256 2734 256 1619 
C 256 545 838 -128 1779 -128 
C 2547 -128 3078 307 3213 1018 
L 2675 1018 
C 2528 588 2227 364 1798 364 
C 1459 364 1171 514 992 787 
C 864 974 819 1161 813 1484 
L 3283 1484 
z
M 826 1920 
C 870 2552 1248 2963 1786 2963 
C 2310 2963 2714 2519 2714 1959 
C 2714 1946 2714 1933 2707 1920 
L 826 1920 
z
" transform="scale(0.015625)"/>
       <path id="NimbusSanL-Regu-72" d="M 442 3328 
L 442 0 
L 979 0 
L 979 1727 
C 979 2203 1101 2514 1357 2698 
C 1523 2819 1683 2857 2054 2863 
L 2054 3404 
C 1965 3449 1920 3456 1850 3456 
C 1504 3456 1242 3251 934 2750 
L 934 3328 
L 442 3328 
z
" transform="scale(0.015625)"/>
       <path id="NimbusSanL-Regu-61" d="M 3424 332 
C 3366 320 3341 320 3309 320 
C 3123 320 3021 415 3021 581 
L 3021 2542 
C 3021 3135 2586 3456 1760 3456 
C 1274 3456 870 3315 646 3065 
C 493 2893 429 2702 416 2370 
L 954 2370 
C 998 2778 1242 2963 1741 2963 
C 2221 2963 2490 2784 2490 2466 
L 2490 2326 
C 2490 2103 2355 2007 1933 1956 
C 1178 1861 1062 1835 858 1753 
C 467 1593 269 1294 269 861 
C 269 256 691 -128 1370 -128 
C 1792 -128 2131 19 2509 364 
C 2547 25 2714 -128 3059 -128 
C 3168 -128 3251 -116 3424 -71 
L 3424 332 
z
M 2490 1071 
C 2490 893 2438 785 2278 638 
C 2061 441 1798 339 1485 339 
C 1069 339 826 536 826 874 
C 826 1224 1062 1402 1632 1485 
C 2195 1562 2310 1587 2490 1670 
L 2490 1071 
z
" transform="scale(0.015625)"/>
       <path id="NimbusSanL-Regu-69" d="M 960 3358 
L 429 3358 
L 429 0 
L 960 0 
L 960 3358 
z
M 960 4672 
L 422 4672 
L 422 3999 
L 960 3999 
L 960 4672 
z
" transform="scale(0.015625)"/>
       <path id="NimbusSanL-Regu-6f" d="M 1741 3456 
C 800 3456 230 2784 230 1663 
C 230 543 794 -128 1747 -128 
C 2688 -128 3264 543 3264 1638 
C 3264 2791 2707 3456 1741 3456 
z
M 1747 2963 
C 2349 2963 2707 2472 2707 1644 
C 2707 861 2336 364 1747 364 
C 1152 364 787 855 787 1663 
C 787 2466 1152 2963 1747 2963 
z
" transform="scale(0.015625)"/>
       <path id="NimbusSanL-Regu-6e" d="M 448 3328 
L 448 0 
L 986 0 
L 986 1835 
C 986 2539 1344 2988 1894 2988 
C 2317 2988 2586 2732 2586 2328 
L 2586 0 
L 3117 0 
L 3117 2539 
C 3117 3097 2701 3456 2054 3456 
C 1555 3456 1235 3263 941 2796 
L 941 3328 
L 448 3328 
z
" transform="scale(0.015625)"/>
      </defs>
      <use xlink:href="#NimbusSanL-Regu-49" transform="scale(0.996264)"/>
      <use xlink:href="#NimbusSanL-Regu-74" transform="translate(27.69517 0) scale(0.996264)"/>
      <use xlink:href="#NimbusSanL-Regu-65" transform="translate(55.390339 0) scale(0.996264)"/>
      <use xlink:href="#NimbusSanL-Regu-72" transform="translate(110.782016 0) scale(0.996264)"/>
      <use xlink:href="#NimbusSanL-Regu-61" transform="translate(142.961149 0) scale(0.996264)"/>
      <use xlink:href="#NimbusSanL-Regu-74" transform="translate(198.352826 0) scale(0.996264)"/>
      <use xlink:href="#NimbusSanL-Regu-69" transform="translate(226.047996 0) scale(0.996264)"/>
      <use xlink:href="#NimbusSanL-Regu-6f" transform="translate(248.16478 0) scale(0.996264)"/>
      <use xlink:href="#NimbusSanL-Regu-6e" transform="translate(303.556457 0) scale(0.996264)"/>
     </g>
    </g>
   </g>
   <g id="matplotlib.axis_2">
    <g id="ytick_1">
     <g id="line2d_8">
      <defs>
       <path id="m19ffeb4175" d="M 0 0 
L -3.5 0 
" style="stroke: #000000; stroke-width: 0.8"/>
      </defs>
      <g>
       <use xlink:href="#m19ffeb4175" x="40.334753" y="217.157195" style="stroke: #000000; stroke-width: 0.8"/>
      </g>
     </g>
     <g id="text_9">
      <!-- $\mathdefault{−2}$ -->
      <g transform="translate(20.604674 220.706355) scale(0.1 -0.1)">
       <defs>
        <path id="CMSY10-0" d="M 4218 1472 
C 4326 1472 4442 1472 4442 1600 
C 4442 1728 4326 1728 4218 1728 
L 755 1728 
C 646 1728 531 1728 531 1600 
C 531 1472 646 1472 755 1472 
L 4218 1472 
z
" transform="scale(0.015625)"/>
       </defs>
       <use xlink:href="#CMSY10-0" transform="scale(0.996264)"/>
       <use xlink:href="#CMR17-32" transform="translate(77.487468 0) scale(0.996264)"/>
      </g>
     </g>
    </g>
    <g id="ytick_2">
     <g id="line2d_9">
      <g>
       <use xlink:href="#m19ffeb4175" x="40.334753" y="177.047422" style="stroke: #000000; stroke-width: 0.8"/>
      </g>
     </g>
     <g id="text_10">
      <!-- $\mathdefault{0}$ -->
      <g transform="translate(28.353418 180.596583) scale(0.1 -0.1)">
       <use xlink:href="#CMR17-30" transform="scale(0.996264)"/>
      </g>
     </g>
    </g>
    <g id="ytick_3">
     <g id="line2d_10">
      <g>
       <use xlink:href="#m19ffeb4175" x="40.334753" y="136.93765" style="stroke: #000000; stroke-width: 0.8"/>
      </g>
     </g>
     <g id="text_11">
      <!-- $\mathdefault{2}$ -->
      <g transform="translate(28.353418 140.48681) scale(0.1 -0.1)">
       <use xlink:href="#CMR17-32" transform="scale(0.996264)"/>
      </g>
     </g>
    </g>
    <g id="ytick_4">
     <g id="line2d_11">
      <g>
       <use xlink:href="#m19ffeb4175" x="40.334753" y="96.827878" style="stroke: #000000; stroke-width: 0.8"/>
      </g>
     </g>
     <g id="text_12">
      <!-- $\mathdefault{4}$ -->
      <g transform="translate(28.353418 100.377038) scale(0.1 -0.1)">
       <defs>
        <path id="CMR17-34" d="M 2150 4147 
C 2150 4281 2144 4288 2029 4288 
L 128 1254 
L 128 1088 
L 1779 1088 
L 1779 460 
C 1779 230 1766 166 1318 166 
L 1197 166 
L 1197 0 
C 1402 12 1747 12 1965 12 
C 2182 12 2528 12 2733 0 
L 2733 166 
L 2611 166 
C 2163 166 2150 230 2150 460 
L 2150 1088 
L 2803 1088 
L 2803 1254 
L 2150 1254 
L 2150 4147 
z
M 1798 3723 
L 1798 1254 
L 256 1254 
L 1798 3723 
z
" transform="scale(0.015625)"/>
       </defs>
       <use xlink:href="#CMR17-34" transform="scale(0.996264)"/>
      </g>
     </g>
    </g>
    <g id="ytick_5">
     <g id="line2d_12">
      <g>
       <use xlink:href="#m19ffeb4175" x="40.334753" y="56.718106" style="stroke: #000000; stroke-width: 0.8"/>
      </g>
     </g>
     <g id="text_13">
      <!-- $\mathdefault{6}$ -->
      <g transform="translate(28.353418 60.267266) scale(0.1 -0.1)">
       <defs>
        <path id="CMR17-36" d="M 678 2198 
C 678 3712 1395 4076 1811 4076 
C 1946 4076 2272 4049 2400 3782 
C 2298 3782 2106 3782 2106 3558 
C 2106 3385 2246 3328 2336 3328 
C 2394 3328 2566 3353 2566 3571 
C 2566 3987 2246 4224 1805 4224 
C 1043 4224 243 3411 243 2011 
C 243 257 966 -128 1478 -128 
C 2099 -128 2688 431 2688 1295 
C 2688 2101 2170 2688 1517 2688 
C 1126 2688 838 2430 678 1979 
L 678 2198 
z
M 1478 25 
C 691 25 691 1212 691 1450 
C 691 1914 909 2585 1504 2585 
C 1613 2585 1926 2585 2138 2140 
C 2253 1889 2253 1624 2253 1302 
C 2253 954 2253 696 2118 438 
C 1978 173 1773 25 1478 25 
z
" transform="scale(0.015625)"/>
       </defs>
       <use xlink:href="#CMR17-36" transform="scale(0.996264)"/>
      </g>
     </g>
    </g>
    <g id="ytick_6">
     <g id="line2d_13">
      <g>
       <use xlink:href="#m19ffeb4175" x="40.334753" y="16.608333" style="stroke: #000000; stroke-width: 0.8"/>
      </g>
     </g>
     <g id="text_14">
      <!-- $\mathdefault{8}$ -->
      <g transform="translate(28.353418 20.157493) scale(0.1 -0.1)">
       <defs>
        <path id="CMR17-38" d="M 1741 2289 
C 2144 2494 2554 2803 2554 3298 
C 2554 3884 1990 4224 1472 4224 
C 890 4224 378 3800 378 3215 
C 378 3054 416 2777 666 2533 
C 730 2469 998 2276 1171 2154 
C 883 2006 211 1652 211 945 
C 211 282 838 -128 1459 -128 
C 2144 -128 2720 366 2720 1022 
C 2720 1607 2330 1877 2074 2051 
L 1741 2289 
z
M 902 2855 
C 851 2887 595 3086 595 3388 
C 595 3781 998 4076 1459 4076 
C 1965 4076 2336 3716 2336 3298 
C 2336 2700 1670 2359 1638 2359 
C 1632 2359 1626 2359 1574 2398 
L 902 2855 
z
M 2080 1536 
C 2176 1466 2483 1253 2483 861 
C 2483 385 2010 25 1472 25 
C 890 25 448 443 448 951 
C 448 1459 838 1884 1280 2083 
L 2080 1536 
z
" transform="scale(0.015625)"/>
       </defs>
       <use xlink:href="#CMR17-38" transform="scale(0.996264)"/>
      </g>
     </g>
    </g>
    <g id="text_15">
     <!-- Aerodynamic Coefficients - Blade_1 -->
     <g transform="translate(14.482687 196.280864) rotate(-90) scale(0.1 -0.1)">
      <defs>
       <path id="NimbusSanL-Regu-41" d="M 3034 1408 
L 3514 0 
L 4179 0 
L 2541 4672 
L 1773 4672 
L 109 0 
L 742 0 
L 1235 1408 
L 3034 1408 
z
M 2867 1907 
L 1382 1907 
L 2150 4032 
L 2867 1907 
z
" transform="scale(0.015625)"/>
       <path id="NimbusSanL-Regu-64" d="M 3168 4672 
L 2637 4672 
L 2637 2937 
C 2413 3276 2054 3456 1606 3456 
C 736 3456 166 2759 166 1695 
C 166 568 723 -128 1626 -128 
C 2086 -128 2406 44 2694 460 
L 2694 19 
L 3168 19 
L 3168 4672 
z
M 1696 2956 
C 2272 2956 2637 2447 2637 1651 
C 2637 880 2266 371 1702 371 
C 1114 371 723 887 723 1663 
C 723 2440 1114 2956 1696 2956 
z
" transform="scale(0.015625)"/>
       <path id="NimbusSanL-Regu-79" d="M 2483 3328 
L 1555 724 
L 698 3328 
L 128 3328 
L 1261 -29 
L 1056 -558 
C 973 -794 851 -884 627 -884 
C 550 -884 461 -871 346 -845 
L 346 -1325 
C 454 -1383 563 -1408 704 -1408 
C 877 -1408 1062 -1351 1203 -1248 
C 1370 -1127 1466 -986 1568 -718 
L 3059 3328 
L 2483 3328 
z
" transform="scale(0.015625)"/>
       <path id="NimbusSanL-Regu-6d" d="M 448 3328 
L 448 0 
L 986 0 
L 986 2089 
C 986 2597 1338 2988 1773 2988 
C 2170 2988 2394 2744 2394 2315 
L 2394 0 
L 2931 0 
L 2931 2109 
C 2931 2597 3283 2988 3718 2988 
C 4109 2988 4339 2738 4339 2315 
L 4339 0 
L 4877 0 
L 4877 2520 
C 4877 3123 4531 3456 3904 3456 
C 3456 3456 3187 3321 2874 2943 
C 2675 3302 2406 3456 1971 3456 
C 1523 3456 1229 3289 941 2886 
L 941 3328 
L 448 3328 
z
" transform="scale(0.015625)"/>
       <path id="NimbusSanL-Regu-63" d="M 3014 2237 
C 2989 2561 2918 2771 2790 2956 
C 2560 3270 2157 3456 1690 3456 
C 787 3456 198 2740 198 1632 
C 198 555 774 -128 1683 -128 
C 2483 -128 2989 352 3053 1167 
L 2515 1167 
C 2426 632 2150 364 1696 364 
C 1107 364 755 842 755 1632 
C 755 2466 1101 2963 1683 2963 
C 2131 2963 2413 2701 2477 2237 
L 3014 2237 
z
" transform="scale(0.015625)"/>
       <path id="NimbusSanL-Regu-43" d="M 4237 3219 
C 4051 4236 3462 4736 2438 4736 
C 1811 4736 1306 4537 960 4154 
C 538 3696 307 3035 307 2284 
C 307 1522 544 867 986 415 
C 1344 44 1805 -128 2413 -128 
C 3552 -128 4192 485 4333 1712 
L 3718 1712 
C 3667 1394 3603 1178 3507 994 
C 3315 612 2918 396 2419 396 
C 1491 396 902 1134 902 2291 
C 902 3480 1466 4211 2368 4211 
C 2746 4211 3098 4096 3290 3918 
C 3462 3759 3558 3562 3629 3219 
L 4237 3219 
z
" transform="scale(0.015625)"/>
       <path id="NimbusSanL-Regu-66" d="M 1651 3328 
L 1094 3328 
L 1094 3860 
C 1094 4087 1222 4204 1466 4204 
C 1510 4204 1530 4204 1651 4198 
L 1651 4639 
C 1530 4665 1459 4672 1350 4672 
C 858 4672 563 4390 563 3905 
L 563 3328 
L 115 3328 
L 115 2892 
L 563 2892 
L 563 0 
L 1094 0 
L 1094 2892 
L 1651 2892 
L 1651 3328 
z
" transform="scale(0.015625)"/>
       <path id="NimbusSanL-Regu-2" d="M 1613 3328 
L 1056 3328 
L 1056 3860 
C 1056 4087 1184 4204 1427 4204 
C 1472 4204 1491 4204 1613 4198 
L 1613 4639 
C 1491 4665 1421 4672 1312 4672 
C 819 4672 525 4390 525 3905 
L 525 3328 
L 77 3328 
L 77 2892 
L 525 2892 
L 525 0 
L 1056 0 
L 1056 2892 
L 1613 2892 
L 1613 3328 
z
M 2790 3328 
L 2259 3328 
L 2259 0 
L 2790 0 
L 2790 3328 
z
M 2790 4672 
L 2259 4672 
L 2259 3999 
L 2790 3999 
L 2790 4672 
z
" transform="scale(0.015625)"/>
       <path id="NimbusSanL-Regu-73" d="M 2803 2428 
C 2797 3084 2362 3456 1587 3456 
C 806 3456 301 3052 301 2434 
C 301 1912 570 1663 1363 1472 
L 1862 1351 
C 2234 1262 2381 1129 2381 887 
C 2381 574 2067 364 1600 364 
C 1312 364 1069 447 934 587 
C 851 683 813 778 781 1014 
L 218 1014 
C 243 243 678 -128 1555 -128 
C 2400 -128 2938 288 2938 931 
C 2938 1428 2656 1702 1990 1861 
L 1478 1982 
C 1043 2084 858 2224 858 2459 
C 858 2765 1133 2963 1568 2963 
C 1997 2963 2227 2778 2240 2428 
L 2803 2428 
z
" transform="scale(0.015625)"/>
       <path id="NimbusSanL-Regu-2d" d="M 1818 1996 
L 294 1996 
L 294 1536 
L 1818 1536 
L 1818 1996 
z
" transform="scale(0.015625)"/>
       <path id="NimbusSanL-Regu-42" d="M 506 0 
L 2611 0 
C 3053 0 3379 121 3629 390 
C 3859 632 3987 961 3987 1321 
C 3987 1878 3731 2214 3136 2444 
C 3558 2643 3782 2994 3782 3476 
C 3782 3821 3654 4127 3411 4345 
C 3168 4569 2848 4672 2400 4672 
L 506 4672 
L 506 0 
z
M 1101 2636 
L 1101 4147 
L 2253 4147 
C 2586 4147 2771 4101 2931 3977 
C 3098 3847 3187 3652 3187 3391 
C 3187 3138 3098 2936 2931 2806 
C 2771 2682 2586 2636 2253 2636 
L 1101 2636 
z
M 1101 524 
L 1101 2112 
L 2554 2112 
C 2842 2112 3034 2042 3174 1890 
C 3315 1745 3392 1542 3392 1315 
C 3392 1093 3315 891 3174 746 
C 3034 594 2842 524 2554 524 
L 1101 524 
z
" transform="scale(0.015625)"/>
       <path id="NimbusSanL-Regu-6c" d="M 973 4672 
L 435 4672 
L 435 0 
L 973 0 
L 973 4672 
z
" transform="scale(0.015625)"/>
       <path id="NimbusSanL-Regu-31" d="M 1658 3232 
L 1658 0 
L 2221 0 
L 2221 4537 
L 1850 4537 
C 1651 3840 1523 3744 653 3635 
L 653 3232 
L 1658 3232 
z
" transform="scale(0.015625)"/>
      </defs>
      <use xlink:href="#NimbusSanL-Regu-41" transform="scale(0.996264)"/>
      <use xlink:href="#NimbusSanL-Regu-65" transform="translate(66.450031 0) scale(0.996264)"/>
      <use xlink:href="#NimbusSanL-Regu-72" transform="translate(121.841708 0) scale(0.996264)"/>
      <use xlink:href="#NimbusSanL-Regu-6f" transform="translate(155.016938 0) scale(0.996264)"/>
      <use xlink:href="#NimbusSanL-Regu-64" transform="translate(210.408615 0) scale(0.996264)"/>
      <use xlink:href="#NimbusSanL-Regu-79" transform="translate(265.800292 0) scale(0.996264)"/>
      <use xlink:href="#NimbusSanL-Regu-6e" transform="translate(315.613492 0) scale(0.996264)"/>
      <use xlink:href="#NimbusSanL-Regu-61" transform="translate(371.005169 0) scale(0.996264)"/>
      <use xlink:href="#NimbusSanL-Regu-6d" transform="translate(426.396846 0) scale(0.996264)"/>
      <use xlink:href="#NimbusSanL-Regu-69" transform="translate(509.385276 0) scale(0.996264)"/>
      <use xlink:href="#NimbusSanL-Regu-63" transform="translate(531.502061 0) scale(0.996264)"/>
      <use xlink:href="#NimbusSanL-Regu-43" transform="translate(609.010431 0) scale(0.996264)"/>
      <use xlink:href="#NimbusSanL-Regu-6f" transform="translate(680.940416 0) scale(0.996264)"/>
      <use xlink:href="#NimbusSanL-Regu-65" transform="translate(736.332093 0) scale(0.996264)"/>
      <use xlink:href="#NimbusSanL-Regu-66" transform="translate(791.72377 0) scale(0.996264)"/>
      <use xlink:href="#NimbusSanL-Regu-2" transform="translate(819.418939 0) scale(0.996264)"/>
      <use xlink:href="#NimbusSanL-Regu-63" transform="translate(869.23214 0) scale(0.996264)"/>
      <use xlink:href="#NimbusSanL-Regu-69" transform="translate(919.04534 0) scale(0.996264)"/>
      <use xlink:href="#NimbusSanL-Regu-65" transform="translate(941.162125 0) scale(0.996264)"/>
      <use xlink:href="#NimbusSanL-Regu-6e" transform="translate(996.553802 0) scale(0.996264)"/>
      <use xlink:href="#NimbusSanL-Regu-74" transform="translate(1051.945479 0) scale(0.996264)"/>
      <use xlink:href="#NimbusSanL-Regu-73" transform="translate(1079.640648 0) scale(0.996264)"/>
      <use xlink:href="#NimbusSanL-Regu-2d" transform="translate(1157.149018 0) scale(0.996264)"/>
      <use xlink:href="#NimbusSanL-Regu-42" transform="translate(1218.019418 0) scale(0.996264)"/>
      <use xlink:href="#NimbusSanL-Regu-6c" transform="translate(1284.469449 0) scale(0.996264)"/>
      <use xlink:href="#NimbusSanL-Regu-61" transform="translate(1306.586233 0) scale(0.996264)"/>
      <use xlink:href="#NimbusSanL-Regu-64" transform="translate(1361.97791 0) scale(0.996264)"/>
      <use xlink:href="#NimbusSanL-Regu-65" transform="translate(1417.369587 0) scale(0.996264)"/>
      <use xlink:href="#NimbusSanL-Regu-31" transform="translate(1508.626829 0) scale(0.996264)"/>
      <path d="M 1478.738605 0 
L 1508.626829 0 
L 1508.626829 0.3985 
L 1478.738605 0.3985 
L 1478.738605 0 
z
"/>
     </g>
    </g>
   </g>
   <g id="line2d_14">
    <path d="M 55.552935 120.363923 
L 55.827466 17.670513 
L 55.918976 17.28 
L 56.010487 18.186686 
L 56.285018 26.440163 
L 56.559549 32.080942 
L 56.83408 32.983896 
L 57.017101 35.040507 
L 57.200122 36.862828 
L 57.474653 37.5622 
L 57.749185 39.001515 
L 58.023716 42.210042 
L 58.206737 46.934298 
L 58.389758 57.595381 
L 58.572778 68.766837 
L 58.84731 72.964665 
L 59.121841 82.759846 
L 59.396372 105.635857 
L 59.579393 120.18718 
L 59.853924 125.200493 
L 60.128455 135.764479 
L 60.402987 156.26539 
L 60.952049 209.237097 
L 61.22658 211.661175 
L 61.867153 218.88 
L 61.958664 218.757385 
L 62.141684 218.238825 
L 62.416216 217.998188 
L 62.690747 217.46428 
L 62.965278 216.30196 
L 63.148299 214.283235 
L 63.33132 212.112354 
L 63.605851 211.285515 
L 63.880382 209.437675 
L 64.154914 205.341137 
L 64.337934 199.773089 
L 64.520955 194.822083 
L 64.795486 193.030761 
L 65.070018 189.121213 
L 65.344549 180.650281 
L 65.802101 160.52159 
L 66.076632 156.762253 
L 66.351164 149.314955 
L 66.717205 130.208248 
L 66.991736 117.769149 
L 67.266268 116.011338 
L 67.72382 110.852569 
L 67.906841 109.25033 
L 67.998351 109.174577 
L 68.181372 111.462991 
L 68.364393 114.407636 
L 68.638924 115.625637 
L 68.913455 118.286464 
L 69.187986 123.683051 
L 69.737049 138.144832 
L 70.01158 139.887115 
L 70.286111 143.194739 
L 70.560643 148.761878 
L 70.743663 151.575732 
L 71.018195 152.506318 
L 71.292726 154.362573 
L 71.567257 157.937976 
L 71.841788 164.65644 
L 72.024809 168.354661 
L 72.29934 169.60533 
L 72.573872 172.126412 
L 72.848403 176.950917 
L 73.122934 182.451917 
L 73.397465 183.518913 
L 73.671997 185.538998 
L 73.946528 189.247664 
L 74.587101 199.963204 
L 74.953142 201.092766 
L 75.593715 203.502528 
L 75.685226 203.231441 
L 75.868247 202.537819 
L 76.142778 202.256912 
L 76.417309 201.608947 
L 76.69184 200.223354 
L 76.966372 197.295873 
L 77.149392 195.501747 
L 77.423924 194.892779 
L 77.698455 193.544961 
L 77.972986 190.735898 
L 78.247517 184.585768 
L 78.522049 176.120469 
L 78.79658 174.433285 
L 79.071111 170.764144 
L 79.345642 163.616839 
L 79.620174 155.597339 
L 79.894705 154.15345 
L 80.169236 151.297727 
L 80.535278 144.260154 
L 81.08434 130.716164 
L 81.358871 130.037902 
L 81.999444 127.741017 
L 82.090955 128.228892 
L 82.456996 132.292717 
L 82.731528 133.629412 
L 83.006059 136.515743 
L 83.28059 142.085573 
L 83.555121 148.113136 
L 83.829653 149.174433 
L 84.104184 151.396982 
L 84.470225 156.965462 
L 84.744757 160.960415 
L 85.019288 161.572345 
L 85.293819 162.757896 
L 85.751371 166.080073 
L 86.025902 167.607771 
L 86.391944 167.894297 
L 86.849496 168.38267 
L 87.032517 168.271398 
L 87.215538 167.398946 
L 87.490069 164.135313 
L 87.67309 162.209171 
L 87.947621 161.551628 
L 88.222152 160.105821 
L 88.496684 157.375557 
L 88.862725 152.89554 
L 89.137257 152.412793 
L 89.503298 151.108645 
L 89.86934 149.819026 
L 89.96085 149.880139 
L 90.143871 150.305658 
L 90.418402 150.5035 
L 90.692934 150.977221 
L 90.967465 151.946535 
L 91.150486 153.135452 
L 91.333506 154.183663 
L 91.608038 154.552147 
L 91.882569 155.39406 
L 92.1571 157.117653 
L 92.431631 160.297463 
L 92.614652 161.816098 
L 92.889184 162.293237 
L 93.163715 163.249556 
L 93.895798 166.508608 
L 94.719392 166.924536 
L 94.902413 166.529093 
L 95.268454 165.33043 
L 95.542986 164.974214 
L 95.817517 164.210376 
L 96.092048 162.692134 
L 96.5496 159.288427 
L 96.824131 158.650442 
L 97.098663 157.365578 
L 97.464704 154.33445 
L 97.647725 153.287444 
L 97.922256 152.97307 
L 98.196788 152.326849 
L 98.928871 150.166956 
L 99.660954 150.06461 
L 99.843975 150.338497 
L 100.210017 151.142952 
L 100.576058 151.488125 
L 100.85059 152.094387 
L 101.125121 153.321518 
L 101.399652 154.78958 
L 101.674183 155.063684 
L 101.948714 155.639166 
L 102.223246 156.710976 
L 102.589287 158.481487 
L 102.955329 158.801035 
L 103.321371 159.548007 
L 103.870433 161.043239 
L 104.419496 161.24664 
L 104.785537 161.364988 
L 104.968558 161.242949 
L 105.151579 160.906663 
L 105.3346 160.584081 
L 105.700641 160.405803 
L 105.975173 160.076339 
L 106.249704 159.431785 
L 106.524235 158.675975 
L 106.890277 158.453815 
L 107.164808 158.052123 
L 107.439339 157.249231 
L 107.896891 155.389291 
L 108.262933 155.141132 
L 108.628975 154.561281 
L 109.086527 153.616451 
L 109.635589 153.408706 
L 110.093141 153.221831 
L 111.191266 153.82125 
L 111.465798 154.55901 
L 111.648818 154.995433 
L 112.01486 155.21996 
L 112.289391 155.602327 
L 112.563922 156.306306 
L 112.838454 157.004323 
L 113.296006 157.248551 
L 113.936579 157.826049 
L 114.1196 157.70478 
L 114.577152 157.548062 
L 114.851683 157.218338 
L 115.126214 156.377028 
L 115.400745 155.301466 
L 115.766787 154.990006 
L 116.041318 154.45949 
L 116.40736 153.106656 
L 116.681891 151.945382 
L 117.139443 151.781838 
L 117.780016 151.474455 
L 117.963037 151.609201 
L 118.420589 151.754387 
L 118.69512 152.036245 
L 118.969651 152.739295 
L 119.244183 153.636976 
L 119.610224 153.895596 
L 119.884756 154.334467 
L 120.159287 155.128595 
L 120.616839 156.842747 
L 120.982881 157.077069 
L 121.348922 157.621853 
L 121.806474 158.42185 
L 122.447047 158.620454 
L 122.813089 158.689914 
L 124.094235 157.888498 
L 124.368766 157.610208 
L 125.009339 157.420076 
L 125.37538 157.103449 
L 125.649912 156.859644 
L 126.290485 156.709538 
L 127.57163 156.247917 
L 129.035797 156.203778 
L 129.310328 156.355281 
L 129.76788 156.772999 
L 130.225432 156.945154 
L 130.591474 157.32287 
L 130.866005 157.665851 
L 131.415068 157.84979 
L 132.055641 158.127109 
L 132.238661 157.997445 
L 132.696214 157.86189 
L 132.970745 157.597878 
L 133.245276 156.929522 
L 133.428297 156.525546 
L 133.794338 156.315031 
L 134.06887 155.954653 
L 134.343401 155.28806 
L 134.709443 154.231541 
L 135.166995 153.986897 
L 135.899078 153.464496 
L 136.539651 153.584958 
L 136.814182 153.833593 
L 137.271734 154.523396 
L 137.729286 154.799669 
L 138.095328 155.359603 
L 138.46137 156.108448 
L 139.010432 156.347475 
L 139.742515 156.781372 
L 140.474599 156.703709 
L 140.74913 156.485124 
L 141.298192 155.886593 
L 141.755744 155.708226 
L 142.213297 155.248424 
L 142.396317 155.113902 
L 143.03689 154.953932 
L 144.135015 154.496615 
L 145.23314 154.359243 
L 145.782203 154.476289 
L 146.514286 154.906801 
L 146.880328 155.154345 
L 147.154859 155.566559 
L 147.42939 156.013628 
L 147.886942 156.187129 
L 148.344494 156.64231 
L 148.619026 156.878233 
L 149.71715 156.92135 
L 150.174703 156.668055 
L 150.632255 156.457796 
L 150.906786 156.122648 
L 151.181317 155.728736 
L 151.73038 155.508451 
L 152.096421 155.105075 
L 152.462463 154.580095 
L 153.011525 154.41003 
L 153.743609 154.113401 
L 154.01814 154.179713 
L 154.658713 154.35025 
L 154.933244 154.624396 
L 155.116265 154.794625 
L 155.665327 154.978915 
L 156.031369 155.362644 
L 156.397411 155.905666 
L 156.946473 156.090299 
L 157.770067 156.485606 
L 158.50215 156.35416 
L 158.776681 156.086901 
L 158.959702 155.907107 
L 159.508765 155.70695 
L 159.874806 155.281094 
L 160.240848 154.663825 
L 160.789911 154.451264 
L 161.613504 153.964326 
L 162.437098 153.958204 
L 162.89465 154.125896 
L 163.443713 154.316413 
L 163.809754 154.722576 
L 163.992775 154.89221 
L 164.541838 155.056499 
L 164.99939 155.422768 
L 165.18241 155.521309 
L 166.097515 155.704107 
L 166.646577 155.734112 
L 167.37866 155.630085 
L 169.208869 154.794624 
L 169.849442 154.589351 
L 170.490014 154.323633 
L 172.320223 154.277358 
L 173.8759 154.812431 
L 174.150431 154.901601 
L 174.882514 155.056684 
L 175.431577 155.170994 
L 177.078764 155.131145 
L 177.627827 154.941674 
L 178.085379 154.740133 
L 178.817462 154.569496 
L 179.366525 154.411074 
L 181.928816 154.308959 
L 182.660899 154.445964 
L 183.118452 154.558263 
L 183.850535 154.704516 
L 184.399597 154.835787 
L 186.504337 154.861877 
L 186.870379 154.81401 
L 187.602462 154.67996 
L 188.334545 154.45768 
L 189.066628 154.279783 
L 189.43267 154.237569 
L 190.896837 154.260303 
L 192.086472 154.492137 
L 193.91668 154.66512 
L 195.655378 154.54814 
L 197.302566 154.291771 
L 198.30918 154.159267 
L 199.956368 154.125997 
L 202.976211 154.445167 
L 205.172461 154.367908 
L 205.813034 154.326541 
L 210.114024 154.109389 
L 211.852721 154.217566 
L 215.97069 154.222164 
L 220.088659 154.059094 
L 225.030221 154.168145 
L 231.618971 154.047259 
L 235.187877 154.080649 
L 244.70496 154.01203 
L 267.948605 153.873511 
L 310.866989 153.864026 
L 359.916571 153.977339 
L 359.916571 153.977339 
" clip-path="url(#pc1f9d44e49)" style="fill: none; stroke: #1f77b4; stroke-width: 1.5; stroke-linecap: square"/>
   </g>
   <g id="line2d_15">
    <path d="M 55.552935 190.302063 
L 55.735956 209.841932 
L 55.827466 209.693162 
L 56.101997 207.950514 
L 56.376528 206.394512 
L 56.468039 206.343575 
L 56.925591 207.199982 
L 57.291633 208.458139 
L 57.566164 208.882834 
L 57.840695 209.84076 
L 58.115226 211.731392 
L 58.481268 214.495569 
L 58.84731 214.412007 
L 59.03033 214.196377 
L 59.213351 213.572747 
L 59.396372 211.961461 
L 59.579393 210.285703 
L 59.853924 209.669327 
L 60.128455 208.246513 
L 60.402987 204.956615 
L 60.677518 197.408646 
L 60.952049 191.41418 
L 61.22658 190.345119 
L 61.592622 187.593792 
L 61.958664 183.967116 
L 62.141684 182.257218 
L 62.416216 181.710729 
L 62.690747 180.380477 
L 62.965278 177.835806 
L 63.33132 173.752318 
L 63.605851 173.297297 
L 63.880382 172.298435 
L 64.246424 169.970699 
L 64.520955 168.431461 
L 64.795486 168.221423 
L 65.161528 167.597946 
L 65.436059 167.206972 
L 65.52757 167.389948 
L 65.710591 168.134956 
L 65.985122 168.484477 
L 66.259653 169.374582 
L 66.442674 170.693441 
L 66.717205 175.102915 
L 66.991736 180.230943 
L 67.266268 181.118728 
L 67.540799 182.754579 
L 67.998351 187.114961 
L 68.364393 190.641789 
L 68.638924 191.141201 
L 68.913455 192.254847 
L 69.187986 194.37185 
L 69.737049 199.65218 
L 70.01158 200.281601 
L 70.286111 201.475594 
L 70.835174 204.137838 
L 71.201215 204.589341 
L 71.567257 205.544988 
L 72.024809 207.011747 
L 72.573872 207.298539 
L 72.848403 207.413183 
L 73.763507 206.650969 
L 74.038038 205.810089 
L 74.31257 203.739107 
L 74.49559 202.512655 
L 74.770122 202.093278 
L 75.044653 201.261994 
L 75.319184 199.723386 
L 75.685226 196.066474 
L 75.868247 194.684457 
L 76.142778 194.240429 
L 76.417309 193.369392 
L 76.783351 191.142214 
L 77.240903 187.905045 
L 77.515434 187.344303 
L 77.789965 186.20735 
L 78.064496 184.105596 
L 78.339028 180.153871 
L 78.522049 178.249105 
L 78.79658 177.66089 
L 79.162621 176.019373 
L 79.528663 174.473304 
L 80.077726 174.525883 
L 80.260746 174.698994 
L 80.443767 175.171739 
L 80.626788 176.334741 
L 80.809809 178.894995 
L 81.08434 183.489712 
L 81.358871 184.314959 
L 81.633403 186.057765 
L 81.999444 190.055803 
L 82.365486 194.254128 
L 82.640017 194.673044 
L 83.006059 195.789641 
L 83.463611 197.194096 
L 84.012673 197.144923 
L 84.195694 196.960724 
L 84.378715 196.443082 
L 84.561736 195.238602 
L 84.744757 194.213707 
L 85.019288 193.86705 
L 85.293819 193.128745 
L 85.56835 191.770878 
L 85.842882 189.312924 
L 86.025902 188.116539 
L 86.300434 187.743923 
L 86.574965 186.987115 
L 87.032517 184.880879 
L 87.398559 183.163849 
L 87.58158 182.958384 
L 88.222152 183.088444 
L 88.405173 183.32336 
L 88.588194 183.964649 
L 88.862725 185.478224 
L 89.137257 185.796231 
L 89.411788 186.470852 
L 89.686319 187.720834 
L 90.235382 190.97373 
L 90.509913 191.357121 
L 90.875954 192.342342 
L 91.333506 193.84758 
L 91.791059 194.089668 
L 92.248611 194.364061 
L 92.431631 194.1651 
L 92.614652 193.936883 
L 93.072204 193.749844 
L 93.346736 193.437113 
L 93.529756 192.905172 
L 93.804288 191.811687 
L 94.170329 191.477926 
L 94.444861 190.943121 
L 94.719392 189.965039 
L 95.268454 187.541546 
L 95.542986 187.267152 
L 95.909027 186.553562 
L 96.366579 185.640604 
L 97.281683 185.648034 
L 97.464704 186.016588 
L 97.647725 186.40592 
L 98.013767 186.624144 
L 98.288298 187.014808 
L 98.562829 187.867424 
L 98.83736 189.045799 
L 99.111892 189.274335 
L 99.386423 189.770755 
L 99.660954 190.700749 
L 99.935485 192.331149 
L 100.118506 193.105659 
L 100.393037 193.343018 
L 100.667569 193.848088 
L 101.03361 195.022292 
L 101.399652 196.09084 
L 101.857204 196.272152 
L 102.223246 196.435225 
L 102.406267 196.30713 
L 102.589287 196.074487 
L 103.046839 195.856908 
L 103.321371 195.462669 
L 103.595902 194.502331 
L 103.870433 193.152056 
L 104.144964 192.892232 
L 104.419496 192.32453 
L 104.694027 191.291438 
L 105.42611 187.809373 
L 105.792152 187.508458 
L 106.341214 186.913325 
L 106.615746 186.997142 
L 107.073298 187.153651 
L 107.347829 187.527166 
L 107.53085 188.111803 
L 107.896891 189.749761 
L 108.171423 189.972947 
L 108.445954 190.448042 
L 108.720485 191.301898 
L 109.086527 192.757582 
L 109.452568 193.035036 
L 109.81861 193.659966 
L 110.367673 194.726026 
L 111.282777 194.725693 
L 111.465798 194.379187 
L 111.648818 194.026996 
L 112.01486 193.829505 
L 112.289391 193.471354 
L 112.563922 192.727524 
L 112.838454 191.836738 
L 113.204495 191.583169 
L 113.570537 190.960534 
L 113.936579 189.707691 
L 114.1196 189.257406 
L 114.485641 189.049384 
L 114.943193 188.437559 
L 115.400745 187.862919 
L 116.224339 187.925298 
L 116.40736 188.157423 
L 116.864912 189.051479 
L 117.230954 189.335332 
L 117.505485 189.828357 
L 117.780016 190.788891 
L 117.963037 191.279967 
L 118.329079 191.521453 
L 118.69512 192.107472 
L 119.061162 193.240992 
L 119.244183 193.616791 
L 119.701735 193.857583 
L 120.433818 194.371441 
L 120.616839 194.235961 
L 121.074391 194.09027 
L 121.348922 193.798443 
L 121.623453 193.062196 
L 121.806474 192.616825 
L 122.172516 192.385012 
L 122.447047 191.982378 
L 122.721578 191.241127 
L 123.17913 189.684533 
L 123.545172 189.510432 
L 124.368766 188.907097 
L 125.009339 189.019895 
L 125.28387 189.374038 
L 125.832932 190.523521 
L 126.107464 190.799936 
L 126.381995 191.343485 
L 126.656526 192.36654 
L 127.022568 194.104193 
L 127.38861 194.246524 
L 127.846162 194.716614 
L 128.212203 195.068664 
L 128.944287 194.959671 
L 129.218818 194.607124 
L 129.493349 193.729733 
L 129.67637 193.281959 
L 130.042412 193.053648 
L 130.408453 192.482716 
L 130.957516 191.343972 
L 131.415068 191.069756 
L 132.147151 190.453683 
L 132.879234 190.565246 
L 133.153766 190.80852 
L 133.428297 191.16918 
L 133.885849 191.333045 
L 134.251891 191.701249 
L 134.892463 192.608155 
L 135.350016 192.904129 
L 135.807568 193.532788 
L 135.990588 193.691094 
L 136.631161 193.852699 
L 137.271734 194.000788 
L 138.095328 193.927058 
L 138.827411 193.657042 
L 139.284963 193.449243 
L 140.017047 192.945011 
L 140.474599 192.735295 
L 141.481213 192.080241 
L 142.579338 192.037646 
L 143.128401 192.146845 
L 143.402932 192.367288 
L 143.677463 192.669236 
L 144.226526 192.852322 
L 144.592567 193.208289 
L 144.867099 193.528628 
L 145.416161 193.699665 
L 145.965224 194.144114 
L 146.148244 194.227289 
L 147.246369 194.206806 
L 147.42939 194.098489 
L 147.978453 193.965727 
L 148.344494 193.650481 
L 148.619026 193.333058 
L 149.168088 193.154269 
L 149.62564 192.724471 
L 149.991682 192.401877 
L 151.455848 192.41273 
L 151.9134 192.554496 
L 152.187932 192.817945 
L 152.462463 193.173272 
L 152.920015 193.325177 
L 153.286057 193.643942 
L 154.01814 194.490924 
L 155.665327 194.614696 
L 156.031369 194.457075 
L 156.580432 194.083841 
L 157.129494 193.843284 
L 157.953088 193.330795 
L 159.051213 193.33886 
L 159.783296 193.496854 
L 160.6984 193.904447 
L 161.247463 194.177889 
L 161.521994 194.246522 
L 164.816369 194.35853 
L 169.666421 193.969074 
L 170.947567 194.16709 
L 173.052306 194.581901 
L 174.791004 194.571954 
L 177.810848 194.18025 
L 181.471264 194.703978 
L 182.020327 194.741846 
L 183.942045 194.754868 
L 185.406212 194.586835 
L 188.792097 194.622587 
L 191.262878 194.943614 
L 197.211055 194.810259 
L 200.871472 195.027127 
L 203.708295 194.920173 
L 205.904545 194.907014 
L 214.964076 194.994065 
L 218.899023 195.083021 
L 221.461315 195.109447 
L 226.95194 195.078284 
L 244.61345 195.107958 
L 248.639908 195.130032 
L 265.660845 195.076692 
L 307.298083 194.784016 
L 341.98053 194.548392 
L 359.916571 194.498309 
L 359.916571 194.498309 
" clip-path="url(#pc1f9d44e49)" style="fill: none; stroke: #ff7f0e; stroke-width: 1.5; stroke-linecap: square"/>
   </g>
   <g id="patch_3">
    <path d="M 40.334753 228.96 
L 40.334753 7.2 
" style="fill: none; stroke: #000000; stroke-width: 0.8; stroke-linejoin: miter; stroke-linecap: square"/>
   </g>
   <g id="patch_4">
    <path d="M 375.134753 228.96 
L 375.134753 7.2 
" style="fill: none; stroke: #000000; stroke-width: 0.8; stroke-linejoin: miter; stroke-linecap: square"/>
   </g>
   <g id="patch_5">
    <path d="M 40.334753 228.96 
L 375.134753 228.96 
" style="fill: none; stroke: #000000; stroke-width: 0.8; stroke-linejoin: miter; stroke-linecap: square"/>
   </g>
   <g id="patch_6">
    <path d="M 40.334753 7.2 
L 375.134753 7.2 
" style="fill: none; stroke: #000000; stroke-width: 0.8; stroke-linejoin: miter; stroke-linecap: square"/>
   </g>
   <g id="legend_1">
    <g id="patch_7">
     <path d="M 321.748759 43.640613 
L 368.134753 43.640613 
Q 370.134753 43.640613 370.134753 41.640613 
L 370.134753 14.2 
Q 370.134753 12.2 368.134753 12.2 
L 321.748759 12.2 
Q 319.748759 12.2 319.748759 14.2 
L 319.748759 41.640613 
Q 319.748759 43.640613 321.748759 43.640613 
z
" style="fill: #ffffff; opacity: 0.8; stroke: #cccccc; stroke-linejoin: miter"/>
    </g>
    <g id="line2d_16">
     <path d="M 323.748759 19.79832 
L 333.748759 19.79832 
L 343.748759 19.79832 
" style="fill: none; stroke: #1f77b4; stroke-width: 1.5; stroke-linecap: square"/>
    </g>
    <g id="text_16">
     <!-- CD -->
     <g transform="translate(351.748759 23.29832) scale(0.1 -0.1)">
      <defs>
       <path id="NimbusSanL-Regu-44" d="M 570 0 
L 2368 0 
C 3546 0 4269 883 4269 2339 
C 4269 3788 3552 4672 2368 4672 
L 570 4672 
L 570 0 
z
M 1165 524 
L 1165 4147 
L 2266 4147 
C 3187 4147 3674 3525 3674 2332 
C 3674 1153 3187 524 2266 524 
L 1165 524 
z
" transform="scale(0.015625)"/>
      </defs>
      <use xlink:href="#NimbusSanL-Regu-43" transform="scale(0.996264)"/>
      <use xlink:href="#NimbusSanL-Regu-44" transform="translate(71.929985 0) scale(0.996264)"/>
     </g>
    </g>
    <g id="line2d_17">
     <path d="M 323.748759 34.018627 
L 333.748759 34.018627 
L 343.748759 34.018627 
" style="fill: none; stroke: #ff7f0e; stroke-width: 1.5; stroke-linecap: square"/>
    </g>
    <g id="text_17">
     <!-- CL -->
     <g transform="translate(351.748759 37.518627) scale(0.1 -0.1)">
      <defs>
       <path id="NimbusSanL-Regu-4c" d="M 1107 4672 
L 512 4672 
L 512 0 
L 3411 0 
L 3411 524 
L 1107 524 
L 1107 4672 
z
" transform="scale(0.015625)"/>
      </defs>
      <use xlink:href="#NimbusSanL-Regu-43" transform="scale(0.996264)"/>
      <use xlink:href="#NimbusSanL-Regu-4c" transform="translate(71.929985 0) scale(0.996264)"/>
     </g>
    </g>
   </g>
  </g>
 </g>
 <defs>
  <clipPath id="pc1f9d44e49">
   <rect x="40.334753" y="7.2" width="334.8" height="221.76"/>
  </clipPath>
 </defs>
</svg>
