<?xml version="1.0" encoding="utf-8" standalone="no"?>
<!DOCTYPE svg PUBLIC "-//W3C//DTD SVG 1.1//EN"
  "http://www.w3.org/Graphics/SVG/1.1/DTD/svg11.dtd">
<svg xmlns:xlink="http://www.w3.org/1999/xlink" width="379.567344pt" height="265.600613pt" viewBox="0 0 379.567344 265.600613" xmlns="http://www.w3.org/2000/svg" version="1.1">
 <metadata>
  <rdf:RDF xmlns:dc="http://purl.org/dc/elements/1.1/" xmlns:cc="http://creativecommons.org/ns#" xmlns:rdf="http://www.w3.org/1999/02/22-rdf-syntax-ns#">
   <cc:Work>
    <dc:type rdf:resource="http://purl.org/dc/dcmitype/StillImage"/>
    <dc:date>2025-07-16T22:04:18.911291</dc:date>
    <dc:format>image/svg+xml</dc:format>
    <dc:creator>
     <cc:Agent>
      <dc:title>Matplotlib v3.10.3, https://matplotlib.org/</dc:title>
     </cc:Agent>
    </dc:creator>
   </cc:Work>
  </rdf:RDF>
 </metadata>
 <defs>
  <style type="text/css">*{stroke-linejoin: round; stroke-linecap: butt}</style>
 </defs>
 <g id="figure_1">
  <g id="patch_1">
   <path d="M 0 265.600613 
L 379.567344 265.600613 
L 379.567344 0 
L 0 0 
z
" style="fill: #ffffff"/>
  </g>
  <g id="axes_1">
   <g id="patch_2">
    <path d="M 37.567344 228.96 
L 372.367344 228.96 
L 372.367344 7.2 
L 37.567344 7.2 
z
" style="fill: #ffffff"/>
   </g>
   <g id="matplotlib.axis_1">
    <g id="xtick_1">
     <g id="line2d_1">
      <defs>
       <path id="m08241a2360" d="M 0 0 
L 0 3.5 
" style="stroke: #000000; stroke-width: 0.8"/>
      </defs>
      <g>
       <use xlink:href="#m08241a2360" x="52.785526" y="228.96" style="stroke: #000000; stroke-width: 0.8"/>
      </g>
     </g>
     <g id="text_1">
      <!-- $\mathdefault{0}$ -->
      <g transform="translate(50.294859 243.05832) scale(0.1 -0.1)">
       <defs>
        <path id="CMR17-30" d="M 2688 2038 
C 2688 2430 2682 3099 2413 3613 
C 2176 4063 1798 4224 1466 4224 
C 1158 4224 768 4082 525 3620 
C 269 3137 243 2539 243 2038 
C 243 1671 250 1112 448 623 
C 723 -39 1216 -128 1466 -128 
C 1760 -128 2208 -7 2470 604 
C 2662 1048 2688 1568 2688 2038 
z
M 1466 -26 
C 1056 -26 813 328 723 816 
C 653 1196 653 1749 653 2109 
C 653 2604 653 3015 736 3407 
C 858 3954 1216 4121 1466 4121 
C 1728 4121 2067 3947 2189 3420 
C 2272 3054 2278 2623 2278 2109 
C 2278 1691 2278 1176 2202 797 
C 2067 96 1690 -26 1466 -26 
z
" transform="scale(0.015625)"/>
       </defs>
       <use xlink:href="#CMR17-30" transform="scale(0.996264)"/>
      </g>
     </g>
    </g>
    <g id="xtick_2">
     <g id="line2d_2">
      <g>
       <use xlink:href="#m08241a2360" x="98.540733" y="228.96" style="stroke: #000000; stroke-width: 0.8"/>
      </g>
     </g>
     <g id="text_2">
      <!-- $\mathdefault{500}$ -->
      <g transform="translate(91.06873 243.05832) scale(0.1 -0.1)">
       <defs>
        <path id="CMR17-35" d="M 730 3750 
C 794 3724 1056 3641 1325 3641 
C 1920 3641 2246 3961 2432 4140 
C 2432 4191 2432 4224 2394 4224 
C 2387 4224 2374 4224 2323 4198 
C 2099 4102 1837 4032 1517 4032 
C 1325 4032 1037 4055 723 4191 
C 653 4224 640 4224 634 4224 
C 602 4224 595 4217 595 4090 
L 595 2231 
C 595 2113 595 2080 659 2080 
C 691 2080 704 2093 736 2139 
C 941 2435 1222 2560 1542 2560 
C 1766 2560 2246 2415 2246 1293 
C 2246 1087 2246 716 2054 422 
C 1894 159 1645 25 1370 25 
C 947 25 518 319 403 812 
C 429 806 480 793 506 793 
C 589 793 749 838 749 1036 
C 749 1209 627 1280 506 1280 
C 358 1280 262 1190 262 1011 
C 262 454 704 -128 1382 -128 
C 2042 -128 2669 441 2669 1267 
C 2669 2054 2170 2662 1549 2662 
C 1222 2662 947 2540 730 2304 
L 730 3750 
z
" transform="scale(0.015625)"/>
       </defs>
       <use xlink:href="#CMR17-35" transform="scale(0.996264)"/>
       <use xlink:href="#CMR17-30" transform="translate(45.690477 0) scale(0.996264)"/>
       <use xlink:href="#CMR17-30" transform="translate(91.380954 0) scale(0.996264)"/>
      </g>
     </g>
    </g>
    <g id="xtick_3">
     <g id="line2d_3">
      <g>
       <use xlink:href="#m08241a2360" x="144.29594" y="228.96" style="stroke: #000000; stroke-width: 0.8"/>
      </g>
     </g>
     <g id="text_3">
      <!-- $\mathdefault{1000}$ -->
      <g transform="translate(134.33327 243.05832) scale(0.1 -0.1)">
       <defs>
        <path id="CMR17-31" d="M 1702 4083 
C 1702 4217 1696 4224 1606 4224 
C 1357 3927 979 3833 621 3820 
C 602 3820 570 3820 563 3808 
C 557 3795 557 3782 557 3648 
C 755 3648 1088 3686 1344 3839 
L 1344 467 
C 1344 243 1331 166 781 166 
L 589 166 
L 589 0 
C 896 6 1216 12 1523 12 
C 1830 12 2150 6 2458 0 
L 2458 166 
L 2266 166 
C 1715 166 1702 236 1702 467 
L 1702 4083 
z
" transform="scale(0.015625)"/>
       </defs>
       <use xlink:href="#CMR17-31" transform="scale(0.996264)"/>
       <use xlink:href="#CMR17-30" transform="translate(45.690477 0) scale(0.996264)"/>
       <use xlink:href="#CMR17-30" transform="translate(91.380954 0) scale(0.996264)"/>
       <use xlink:href="#CMR17-30" transform="translate(137.071431 0) scale(0.996264)"/>
      </g>
     </g>
    </g>
    <g id="xtick_4">
     <g id="line2d_4">
      <g>
       <use xlink:href="#m08241a2360" x="190.051147" y="228.96" style="stroke: #000000; stroke-width: 0.8"/>
      </g>
     </g>
     <g id="text_4">
      <!-- $\mathdefault{1500}$ -->
      <g transform="translate(180.088476 243.05832) scale(0.1 -0.1)">
       <use xlink:href="#CMR17-31" transform="scale(0.996264)"/>
       <use xlink:href="#CMR17-35" transform="translate(45.690477 0) scale(0.996264)"/>
       <use xlink:href="#CMR17-30" transform="translate(91.380954 0) scale(0.996264)"/>
       <use xlink:href="#CMR17-30" transform="translate(137.071431 0) scale(0.996264)"/>
      </g>
     </g>
    </g>
    <g id="xtick_5">
     <g id="line2d_5">
      <g>
       <use xlink:href="#m08241a2360" x="235.806354" y="228.96" style="stroke: #000000; stroke-width: 0.8"/>
      </g>
     </g>
     <g id="text_5">
      <!-- $\mathdefault{2000}$ -->
      <g transform="translate(225.843683 243.05832) scale(0.1 -0.1)">
       <defs>
        <path id="CMR17-32" d="M 2669 990 
L 2554 990 
C 2490 537 2438 460 2413 422 
C 2381 371 1920 371 1830 371 
L 602 371 
C 832 620 1280 1073 1824 1596 
C 2214 1966 2669 2400 2669 3033 
C 2669 3788 2067 4224 1395 4224 
C 691 4224 262 3603 262 3027 
C 262 2777 448 2745 525 2745 
C 589 2745 781 2783 781 3007 
C 781 3206 614 3264 525 3264 
C 486 3264 448 3257 422 3244 
C 544 3788 915 4057 1306 4057 
C 1862 4057 2227 3616 2227 3033 
C 2227 2477 1901 1998 1536 1583 
L 262 147 
L 262 0 
L 2515 0 
L 2669 990 
z
" transform="scale(0.015625)"/>
       </defs>
       <use xlink:href="#CMR17-32" transform="scale(0.996264)"/>
       <use xlink:href="#CMR17-30" transform="translate(45.690477 0) scale(0.996264)"/>
       <use xlink:href="#CMR17-30" transform="translate(91.380954 0) scale(0.996264)"/>
       <use xlink:href="#CMR17-30" transform="translate(137.071431 0) scale(0.996264)"/>
      </g>
     </g>
    </g>
    <g id="xtick_6">
     <g id="line2d_6">
      <g>
       <use xlink:href="#m08241a2360" x="281.561561" y="228.96" style="stroke: #000000; stroke-width: 0.8"/>
      </g>
     </g>
     <g id="text_6">
      <!-- $\mathdefault{2500}$ -->
      <g transform="translate(271.59889 243.05832) scale(0.1 -0.1)">
       <use xlink:href="#CMR17-32" transform="scale(0.996264)"/>
       <use xlink:href="#CMR17-35" transform="translate(45.690477 0) scale(0.996264)"/>
       <use xlink:href="#CMR17-30" transform="translate(91.380954 0) scale(0.996264)"/>
       <use xlink:href="#CMR17-30" transform="translate(137.071431 0) scale(0.996264)"/>
      </g>
     </g>
    </g>
    <g id="xtick_7">
     <g id="line2d_7">
      <g>
       <use xlink:href="#m08241a2360" x="327.316768" y="228.96" style="stroke: #000000; stroke-width: 0.8"/>
      </g>
     </g>
     <g id="text_7">
      <!-- $\mathdefault{3000}$ -->
      <g transform="translate(317.354097 243.05832) scale(0.1 -0.1)">
       <defs>
        <path id="CMR17-33" d="M 1414 2176 
C 1984 2176 2234 1673 2234 1094 
C 2234 322 1824 25 1453 25 
C 1114 25 563 193 390 691 
C 422 678 454 678 486 678 
C 640 678 755 780 755 947 
C 755 1132 614 1216 486 1216 
C 378 1216 211 1164 211 927 
C 211 335 787 -128 1466 -128 
C 2176 -128 2720 432 2720 1087 
C 2720 1718 2208 2176 1600 2246 
C 2086 2347 2554 2776 2554 3353 
C 2554 3856 2048 4224 1472 4224 
C 890 4224 378 3862 378 3347 
C 378 3123 544 3084 627 3084 
C 762 3084 877 3167 877 3334 
C 877 3500 762 3584 627 3584 
C 602 3584 570 3584 544 3571 
C 730 3999 1235 4076 1459 4076 
C 1683 4076 2106 3966 2106 3347 
C 2106 3167 2080 2851 1862 2574 
C 1670 2329 1453 2316 1242 2297 
C 1210 2297 1062 2284 1037 2284 
C 992 2278 966 2272 966 2227 
C 966 2182 973 2176 1101 2176 
L 1414 2176 
z
" transform="scale(0.015625)"/>
       </defs>
       <use xlink:href="#CMR17-33" transform="scale(0.996264)"/>
       <use xlink:href="#CMR17-30" transform="translate(45.690477 0) scale(0.996264)"/>
       <use xlink:href="#CMR17-30" transform="translate(91.380954 0) scale(0.996264)"/>
       <use xlink:href="#CMR17-30" transform="translate(137.071431 0) scale(0.996264)"/>
      </g>
     </g>
    </g>
    <g id="text_8">
     <!-- Iteration -->
     <g transform="translate(187.019968 256.278627) scale(0.1 -0.1)">
      <defs>
       <path id="NimbusSanL-Regu-49" d="M 1242 4672 
L 640 4672 
L 640 0 
L 1242 0 
L 1242 4672 
z
" transform="scale(0.015625)"/>
       <path id="NimbusSanL-Regu-74" d="M 1626 3328 
L 1075 3328 
L 1075 4249 
L 544 4249 
L 544 3328 
L 90 3328 
L 90 2892 
L 544 2892 
L 544 402 
C 544 64 774 -128 1190 -128 
C 1318 -128 1446 -116 1626 -84 
L 1626 364 
C 1555 345 1472 339 1370 339 
C 1139 339 1075 402 1075 634 
L 1075 2892 
L 1626 2892 
L 1626 3328 
z
" transform="scale(0.015625)"/>
       <path id="NimbusSanL-Regu-65" d="M 3283 1484 
C 3283 1998 3245 2311 3149 2565 
C 2931 3123 2419 3456 1792 3456 
C 858 3456 256 2734 256 1619 
C 256 545 838 -128 1779 -128 
C 2547 -128 3078 307 3213 1018 
L 2675 1018 
C 2528 588 2227 364 1798 364 
C 1459 364 1171 514 992 787 
C 864 974 819 1161 813 1484 
L 3283 1484 
z
M 826 1920 
C 870 2552 1248 2963 1786 2963 
C 2310 2963 2714 2519 2714 1959 
C 2714 1946 2714 1933 2707 1920 
L 826 1920 
z
" transform="scale(0.015625)"/>
       <path id="NimbusSanL-Regu-72" d="M 442 3328 
L 442 0 
L 979 0 
L 979 1727 
C 979 2203 1101 2514 1357 2698 
C 1523 2819 1683 2857 2054 2863 
L 2054 3404 
C 1965 3449 1920 3456 1850 3456 
C 1504 3456 1242 3251 934 2750 
L 934 3328 
L 442 3328 
z
" transform="scale(0.015625)"/>
       <path id="NimbusSanL-Regu-61" d="M 3424 332 
C 3366 320 3341 320 3309 320 
C 3123 320 3021 415 3021 581 
L 3021 2542 
C 3021 3135 2586 3456 1760 3456 
C 1274 3456 870 3315 646 3065 
C 493 2893 429 2702 416 2370 
L 954 2370 
C 998 2778 1242 2963 1741 2963 
C 2221 2963 2490 2784 2490 2466 
L 2490 2326 
C 2490 2103 2355 2007 1933 1956 
C 1178 1861 1062 1835 858 1753 
C 467 1593 269 1294 269 861 
C 269 256 691 -128 1370 -128 
C 1792 -128 2131 19 2509 364 
C 2547 25 2714 -128 3059 -128 
C 3168 -128 3251 -116 3424 -71 
L 3424 332 
z
M 2490 1071 
C 2490 893 2438 785 2278 638 
C 2061 441 1798 339 1485 339 
C 1069 339 826 536 826 874 
C 826 1224 1062 1402 1632 1485 
C 2195 1562 2310 1587 2490 1670 
L 2490 1071 
z
" transform="scale(0.015625)"/>
       <path id="NimbusSanL-Regu-69" d="M 960 3358 
L 429 3358 
L 429 0 
L 960 0 
L 960 3358 
z
M 960 4672 
L 422 4672 
L 422 3999 
L 960 3999 
L 960 4672 
z
" transform="scale(0.015625)"/>
       <path id="NimbusSanL-Regu-6f" d="M 1741 3456 
C 800 3456 230 2784 230 1663 
C 230 543 794 -128 1747 -128 
C 2688 -128 3264 543 3264 1638 
C 3264 2791 2707 3456 1741 3456 
z
M 1747 2963 
C 2349 2963 2707 2472 2707 1644 
C 2707 861 2336 364 1747 364 
C 1152 364 787 855 787 1663 
C 787 2466 1152 2963 1747 2963 
z
" transform="scale(0.015625)"/>
       <path id="NimbusSanL-Regu-6e" d="M 448 3328 
L 448 0 
L 986 0 
L 986 1835 
C 986 2539 1344 2988 1894 2988 
C 2317 2988 2586 2732 2586 2328 
L 2586 0 
L 3117 0 
L 3117 2539 
C 3117 3097 2701 3456 2054 3456 
C 1555 3456 1235 3263 941 2796 
L 941 3328 
L 448 3328 
z
" transform="scale(0.015625)"/>
      </defs>
      <use xlink:href="#NimbusSanL-Regu-49" transform="scale(0.996264)"/>
      <use xlink:href="#NimbusSanL-Regu-74" transform="translate(27.69517 0) scale(0.996264)"/>
      <use xlink:href="#NimbusSanL-Regu-65" transform="translate(55.390339 0) scale(0.996264)"/>
      <use xlink:href="#NimbusSanL-Regu-72" transform="translate(110.782016 0) scale(0.996264)"/>
      <use xlink:href="#NimbusSanL-Regu-61" transform="translate(142.961149 0) scale(0.996264)"/>
      <use xlink:href="#NimbusSanL-Regu-74" transform="translate(198.352826 0) scale(0.996264)"/>
      <use xlink:href="#NimbusSanL-Regu-69" transform="translate(226.047996 0) scale(0.996264)"/>
      <use xlink:href="#NimbusSanL-Regu-6f" transform="translate(248.16478 0) scale(0.996264)"/>
      <use xlink:href="#NimbusSanL-Regu-6e" transform="translate(303.556457 0) scale(0.996264)"/>
     </g>
    </g>
   </g>
   <g id="matplotlib.axis_2">
    <g id="ytick_1">
     <g id="line2d_8">
      <defs>
       <path id="m6ff140b52c" d="M 0 0 
L -3.5 0 
" style="stroke: #000000; stroke-width: 0.8"/>
      </defs>
      <g>
       <use xlink:href="#m6ff140b52c" x="37.567344" y="225.763286" style="stroke: #000000; stroke-width: 0.8"/>
      </g>
     </g>
     <g id="text_9">
      <!-- $\mathdefault{0}$ -->
      <g transform="translate(25.586009 229.312446) scale(0.1 -0.1)">
       <use xlink:href="#CMR17-30" transform="scale(0.996264)"/>
      </g>
     </g>
    </g>
    <g id="ytick_2">
     <g id="line2d_9">
      <g>
       <use xlink:href="#m6ff140b52c" x="37.567344" y="191.501705" style="stroke: #000000; stroke-width: 0.8"/>
      </g>
     </g>
     <g id="text_10">
      <!-- $\mathdefault{5}$ -->
      <g transform="translate(25.586009 195.050865) scale(0.1 -0.1)">
       <use xlink:href="#CMR17-35" transform="scale(0.996264)"/>
      </g>
     </g>
    </g>
    <g id="ytick_3">
     <g id="line2d_10">
      <g>
       <use xlink:href="#m6ff140b52c" x="37.567344" y="157.240123" style="stroke: #000000; stroke-width: 0.8"/>
      </g>
     </g>
     <g id="text_11">
      <!-- $\mathdefault{10}$ -->
      <g transform="translate(20.604674 160.789283) scale(0.1 -0.1)">
       <use xlink:href="#CMR17-31" transform="scale(0.996264)"/>
       <use xlink:href="#CMR17-30" transform="translate(45.690477 0) scale(0.996264)"/>
      </g>
     </g>
    </g>
    <g id="ytick_4">
     <g id="line2d_11">
      <g>
       <use xlink:href="#m6ff140b52c" x="37.567344" y="122.978541" style="stroke: #000000; stroke-width: 0.8"/>
      </g>
     </g>
     <g id="text_12">
      <!-- $\mathdefault{15}$ -->
      <g transform="translate(20.604674 126.527701) scale(0.1 -0.1)">
       <use xlink:href="#CMR17-31" transform="scale(0.996264)"/>
       <use xlink:href="#CMR17-35" transform="translate(45.690477 0) scale(0.996264)"/>
      </g>
     </g>
    </g>
    <g id="ytick_5">
     <g id="line2d_12">
      <g>
       <use xlink:href="#m6ff140b52c" x="37.567344" y="88.716959" style="stroke: #000000; stroke-width: 0.8"/>
      </g>
     </g>
     <g id="text_13">
      <!-- $\mathdefault{20}$ -->
      <g transform="translate(20.604674 92.266119) scale(0.1 -0.1)">
       <use xlink:href="#CMR17-32" transform="scale(0.996264)"/>
       <use xlink:href="#CMR17-30" transform="translate(45.690477 0) scale(0.996264)"/>
      </g>
     </g>
    </g>
    <g id="ytick_6">
     <g id="line2d_13">
      <g>
       <use xlink:href="#m6ff140b52c" x="37.567344" y="54.455378" style="stroke: #000000; stroke-width: 0.8"/>
      </g>
     </g>
     <g id="text_14">
      <!-- $\mathdefault{25}$ -->
      <g transform="translate(20.604674 58.004538) scale(0.1 -0.1)">
       <use xlink:href="#CMR17-32" transform="scale(0.996264)"/>
       <use xlink:href="#CMR17-35" transform="translate(45.690477 0) scale(0.996264)"/>
      </g>
     </g>
    </g>
    <g id="ytick_7">
     <g id="line2d_14">
      <g>
       <use xlink:href="#m6ff140b52c" x="37.567344" y="20.193796" style="stroke: #000000; stroke-width: 0.8"/>
      </g>
     </g>
     <g id="text_15">
      <!-- $\mathdefault{30}$ -->
      <g transform="translate(20.604674 23.742956) scale(0.1 -0.1)">
       <use xlink:href="#CMR17-33" transform="scale(0.996264)"/>
       <use xlink:href="#CMR17-30" transform="translate(45.690477 0) scale(0.996264)"/>
      </g>
     </g>
    </g>
    <g id="text_16">
     <!-- Average CFL - Blade_1 -->
     <g transform="translate(14.482687 168.77932) rotate(-90) scale(0.1 -0.1)">
      <defs>
       <path id="NimbusSanL-Regu-41" d="M 3034 1408 
L 3514 0 
L 4179 0 
L 2541 4672 
L 1773 4672 
L 109 0 
L 742 0 
L 1235 1408 
L 3034 1408 
z
M 2867 1907 
L 1382 1907 
L 2150 4032 
L 2867 1907 
z
" transform="scale(0.015625)"/>
       <path id="NimbusSanL-Regu-76" d="M 1824 0 
L 3110 3328 
L 2509 3328 
L 1562 629 
L 666 3328 
L 64 3328 
L 1242 0 
L 1824 0 
z
" transform="scale(0.015625)"/>
       <path id="NimbusSanL-Regu-67" d="M 2637 3359 
L 2637 2873 
C 2368 3270 2042 3456 1613 3456 
C 762 3456 186 2714 186 1632 
C 186 1084 333 638 608 320 
C 858 38 1216 -128 1568 -128 
C 1990 -128 2285 51 2586 473 
L 2586 300 
C 2586 -155 2528 -441 2394 -634 
C 2253 -841 1978 -960 1651 -960 
C 1408 -960 1190 -894 1043 -774 
C 922 -674 870 -581 838 -375 
L 294 -375 
C 352 -1031 845 -1408 1632 -1408 
C 2131 -1408 2560 -1248 2778 -980 
C 3034 -661 3130 -222 3130 568 
L 3130 3359 
L 2637 3359 
z
M 1670 2963 
C 2246 2963 2586 2479 2586 1644 
C 2586 848 2240 364 1677 364 
C 1094 364 742 855 742 1663 
C 742 2466 1101 2963 1670 2963 
z
" transform="scale(0.015625)"/>
       <path id="NimbusSanL-Regu-43" d="M 4237 3219 
C 4051 4236 3462 4736 2438 4736 
C 1811 4736 1306 4537 960 4154 
C 538 3696 307 3035 307 2284 
C 307 1522 544 867 986 415 
C 1344 44 1805 -128 2413 -128 
C 3552 -128 4192 485 4333 1712 
L 3718 1712 
C 3667 1394 3603 1178 3507 994 
C 3315 612 2918 396 2419 396 
C 1491 396 902 1134 902 2291 
C 902 3480 1466 4211 2368 4211 
C 2746 4211 3098 4096 3290 3918 
C 3462 3759 3558 3562 3629 3219 
L 4237 3219 
z
" transform="scale(0.015625)"/>
       <path id="NimbusSanL-Regu-46" d="M 1171 2112 
L 3398 2112 
L 3398 2636 
L 1171 2636 
L 1171 4147 
L 3706 4147 
L 3706 4672 
L 576 4672 
L 576 0 
L 1171 0 
L 1171 2112 
z
" transform="scale(0.015625)"/>
       <path id="NimbusSanL-Regu-4c" d="M 1107 4672 
L 512 4672 
L 512 0 
L 3411 0 
L 3411 524 
L 1107 524 
L 1107 4672 
z
" transform="scale(0.015625)"/>
       <path id="NimbusSanL-Regu-2d" d="M 1818 1996 
L 294 1996 
L 294 1536 
L 1818 1536 
L 1818 1996 
z
" transform="scale(0.015625)"/>
       <path id="NimbusSanL-Regu-42" d="M 506 0 
L 2611 0 
C 3053 0 3379 121 3629 390 
C 3859 632 3987 961 3987 1321 
C 3987 1878 3731 2214 3136 2444 
C 3558 2643 3782 2994 3782 3476 
C 3782 3821 3654 4127 3411 4345 
C 3168 4569 2848 4672 2400 4672 
L 506 4672 
L 506 0 
z
M 1101 2636 
L 1101 4147 
L 2253 4147 
C 2586 4147 2771 4101 2931 3977 
C 3098 3847 3187 3652 3187 3391 
C 3187 3138 3098 2936 2931 2806 
C 2771 2682 2586 2636 2253 2636 
L 1101 2636 
z
M 1101 524 
L 1101 2112 
L 2554 2112 
C 2842 2112 3034 2042 3174 1890 
C 3315 1745 3392 1542 3392 1315 
C 3392 1093 3315 891 3174 746 
C 3034 594 2842 524 2554 524 
L 1101 524 
z
" transform="scale(0.015625)"/>
       <path id="NimbusSanL-Regu-6c" d="M 973 4672 
L 435 4672 
L 435 0 
L 973 0 
L 973 4672 
z
" transform="scale(0.015625)"/>
       <path id="NimbusSanL-Regu-64" d="M 3168 4672 
L 2637 4672 
L 2637 2937 
C 2413 3276 2054 3456 1606 3456 
C 736 3456 166 2759 166 1695 
C 166 568 723 -128 1626 -128 
C 2086 -128 2406 44 2694 460 
L 2694 19 
L 3168 19 
L 3168 4672 
z
M 1696 2956 
C 2272 2956 2637 2447 2637 1651 
C 2637 880 2266 371 1702 371 
C 1114 371 723 887 723 1663 
C 723 2440 1114 2956 1696 2956 
z
" transform="scale(0.015625)"/>
       <path id="NimbusSanL-Regu-31" d="M 1658 3232 
L 1658 0 
L 2221 0 
L 2221 4537 
L 1850 4537 
C 1651 3840 1523 3744 653 3635 
L 653 3232 
L 1658 3232 
z
" transform="scale(0.015625)"/>
      </defs>
      <use xlink:href="#NimbusSanL-Regu-41" transform="scale(0.996264)"/>
      <use xlink:href="#NimbusSanL-Regu-76" transform="translate(62.465918 0) scale(0.996264)"/>
      <use xlink:href="#NimbusSanL-Regu-65" transform="translate(109.788488 0) scale(0.996264)"/>
      <use xlink:href="#NimbusSanL-Regu-72" transform="translate(165.180165 0) scale(0.996264)"/>
      <use xlink:href="#NimbusSanL-Regu-61" transform="translate(197.359298 0) scale(0.996264)"/>
      <use xlink:href="#NimbusSanL-Regu-67" transform="translate(252.750975 0) scale(0.996264)"/>
      <use xlink:href="#NimbusSanL-Regu-65" transform="translate(308.142652 0) scale(0.996264)"/>
      <use xlink:href="#NimbusSanL-Regu-43" transform="translate(391.229499 0) scale(0.996264)"/>
      <use xlink:href="#NimbusSanL-Regu-46" transform="translate(463.159484 0) scale(0.996264)"/>
      <use xlink:href="#NimbusSanL-Regu-4c" transform="translate(524.031114 0) scale(0.996264)"/>
      <use xlink:href="#NimbusSanL-Regu-2d" transform="translate(607.117961 0) scale(0.996264)"/>
      <use xlink:href="#NimbusSanL-Regu-42" transform="translate(667.98836 0) scale(0.996264)"/>
      <use xlink:href="#NimbusSanL-Regu-6c" transform="translate(734.438391 0) scale(0.996264)"/>
      <use xlink:href="#NimbusSanL-Regu-61" transform="translate(756.555176 0) scale(0.996264)"/>
      <use xlink:href="#NimbusSanL-Regu-64" transform="translate(811.946853 0) scale(0.996264)"/>
      <use xlink:href="#NimbusSanL-Regu-65" transform="translate(867.33853 0) scale(0.996264)"/>
      <use xlink:href="#NimbusSanL-Regu-31" transform="translate(958.595772 0) scale(0.996264)"/>
      <path d="M 928.707548 0 
L 958.595772 0 
L 958.595772 0.3985 
L 928.707548 0.3985 
L 928.707548 0 
z
"/>
     </g>
    </g>
   </g>
   <g id="line2d_15">
    <path d="M 52.785526 127.947769 
L 52.968547 86.460298 
L 53.060057 211.832987 
L 53.151568 209.046928 
L 53.426099 196.877419 
L 53.70063 175.848507 
L 53.975162 139.510547 
L 54.249693 76.909784 
L 54.341203 210.877936 
L 54.432714 207.900866 
L 54.707245 194.897024 
L 54.981776 172.426385 
L 55.256307 133.597121 
L 55.530839 66.708211 
L 55.622349 35.218347 
L 55.713859 206.708792 
L 55.80537 202.897894 
L 56.079901 186.251888 
L 56.354432 157.487589 
L 56.628964 107.795212 
L 56.720474 213.966479 
L 56.811984 211.607117 
L 57.086516 201.301426 
L 57.361047 183.493192 
L 57.635578 152.746391 
L 57.910109 99.807983 
L 58.00162 74.804041 
L 58.09313 210.667362 
L 58.184641 207.648177 
L 58.459172 194.460377 
L 58.733703 171.686376 
L 59.008234 132.408833 
L 59.191255 91.421532 
L 59.282766 212.329111 
L 59.374276 209.642276 
L 59.648807 197.90618 
L 59.923338 177.626207 
L 60.19787 142.586686 
L 60.380891 106.002245 
L 60.472401 213.787182 
L 60.563911 211.391961 
L 60.838443 200.929637 
L 61.112974 182.85074 
L 61.387505 151.610407 
L 61.570526 118.988566 
L 61.662036 215.085814 
L 61.753547 212.95032 
L 62.028078 203.62248 
L 62.302609 187.503974 
L 62.57714 159.651194 
L 62.760161 130.561873 
L 62.851672 216.243145 
L 62.943182 214.339117 
L 63.217713 206.022321 
L 63.492245 191.650899 
L 63.766776 166.817081 
L 64.041307 123.922161 
L 64.132818 215.579174 
L 64.224328 213.542351 
L 64.498859 204.645511 
L 64.77339 189.27177 
L 65.047922 162.710083 
L 65.413963 116.846197 
L 65.505474 214.871577 
L 65.596984 212.693236 
L 65.871515 203.178239 
L 66.146047 186.736324 
L 66.420578 158.324695 
L 66.695109 109.229401 
L 66.78662 214.109898 
L 66.87813 211.77922 
L 67.152661 201.59882 
L 67.427192 184.007088 
L 67.701724 153.608576 
L 67.793234 139.177634 
L 67.884744 217.104721 
L 67.976255 215.373008 
L 68.250786 207.808886 
L 68.525317 194.738082 
L 68.799849 172.151733 
L 69.07438 133.122522 
L 69.16589 216.49921 
L 69.257401 214.646395 
L 69.531932 206.553297 
L 69.806463 192.568425 
L 70.080994 168.402567 
L 70.172505 156.930423 
L 70.264015 218.88 
L 70.355526 217.503343 
L 70.630057 211.490104 
L 70.904588 201.099227 
L 71.179119 183.143791 
L 71.453651 152.117265 
L 71.545161 137.388574 
L 71.636671 216.925815 
L 71.728182 215.158321 
L 72.002713 207.437906 
L 72.277244 194.097029 
L 72.551776 171.043994 
L 72.826307 131.208349 
L 72.917817 112.297362 
L 73.009328 214.416694 
L 73.100838 212.147375 
L 73.375369 202.234992 
L 73.649901 185.106394 
L 73.924432 155.508177 
L 74.198963 104.362457 
L 74.290473 213.623203 
L 74.381984 211.195187 
L 74.656515 200.58961 
L 74.931046 182.263174 
L 75.205578 150.595092 
L 75.480109 95.872647 
L 75.571619 69.894519 
L 75.66313 210.17641 
L 75.75464 207.059034 
L 76.029171 193.442339 
L 76.303703 169.912689 
L 76.578234 129.253454 
L 76.669744 109.951488 
L 76.761255 214.182107 
L 76.852765 211.865871 
L 77.127296 201.748552 
L 77.401828 184.265825 
L 77.676359 154.055673 
L 77.95089 101.852531 
L 78.133911 47.331798 
L 78.225421 207.920138 
L 78.316932 204.351508 
L 78.591463 188.763733 
L 78.865994 161.828058 
L 79.140525 115.283212 
L 79.415057 34.853718 
L 79.506567 206.67233 
L 79.598077 202.854138 
L 79.872609 186.176278 
L 80.14714 157.356936 
L 80.421671 107.557114 
L 80.604692 55.546397 
L 80.696202 208.741597 
L 80.787713 205.33726 
L 81.062244 190.467112 
L 81.336775 164.771498 
L 81.611307 120.369475 
L 81.794327 73.996198 
L 81.885838 210.586578 
L 81.977348 207.551236 
L 82.251879 194.292863 
L 82.526411 171.382395 
L 82.800942 131.793106 
L 83.075473 63.382814 
L 83.166984 209.525239 
L 83.258494 206.27763 
L 83.533025 192.092072 
L 83.807556 167.579427 
L 84.082088 125.221578 
L 84.448129 52.027214 
L 84.63115 52.027214 
L 84.722661 17.28 
L 84.814171 204.914958 
L 84.905681 200.745292 
L 85.180213 182.532192 
L 85.454744 151.059955 
L 85.729275 96.675931 
L 85.912296 39.877494 
L 86.003806 207.174707 
L 86.095317 203.456991 
L 86.369848 187.218008 
L 86.644379 159.157046 
L 86.918911 110.667703 
L 87.193442 26.878119 
L 87.284952 205.87477 
L 87.376463 201.897066 
L 87.650994 184.522458 
L 87.925525 154.499135 
L 88.200056 102.618833 
L 88.383077 48.435273 
L 88.474588 208.030485 
L 88.566098 204.483925 
L 88.840629 188.99255 
L 89.11516 162.223453 
L 89.389692 115.966455 
L 89.664223 36.057195 
L 89.755733 206.792677 
L 89.847244 202.998555 
L 90.121775 186.425831 
L 90.396306 157.788164 
L 90.670838 108.302275 
L 90.853858 56.623028 
L 90.945369 208.849261 
L 91.036879 205.466455 
L 91.31141 190.690362 
L 91.585942 165.157274 
L 91.860473 121.036097 
L 92.226515 44.794703 
L 92.318025 207.666428 
L 92.409535 204.047056 
L 92.684067 188.237641 
L 92.958598 160.918971 
L 93.233129 113.712309 
L 93.50766 32.139198 
L 93.599171 206.400878 
L 93.690681 202.528396 
L 93.965212 185.613395 
L 94.239744 156.384275 
L 94.514275 105.876354 
L 94.697296 53.126104 
L 94.788806 208.499568 
L 94.880317 205.046824 
L 95.154848 189.96524 
L 95.429379 163.904263 
L 95.70391 118.870893 
L 95.886931 71.838241 
L 95.978442 210.370782 
L 96.069952 207.292281 
L 96.344483 193.845389 
L 96.619014 170.60916 
L 96.893546 130.456955 
L 97.168077 61.073946 
L 97.259587 209.294352 
L 97.351098 206.000566 
L 97.625629 191.613305 
L 97.90016 166.752118 
L 98.174691 123.791988 
L 98.449223 49.556882 
L 98.540733 208.142646 
L 98.632244 204.618518 
L 98.906775 189.225126 
L 99.181306 162.625346 
L 99.455837 116.660925 
L 99.638858 68.655886 
L 99.730368 210.052546 
L 99.821879 206.910398 
L 100.09641 193.185496 
L 100.370941 169.468864 
L 100.645473 128.486525 
L 100.920004 57.669043 
L 101.011514 208.953862 
L 101.103025 205.591977 
L 101.377556 190.907264 
L 101.652087 165.53208 
L 101.926618 121.683762 
L 102.20115 75.888771 
L 102.29266 75.888771 
L 102.38417 45.913868 
L 102.475681 207.778344 
L 102.567191 204.181356 
L 102.841723 188.469711 
L 103.116254 161.319988 
L 103.390785 114.405267 
L 103.573806 65.407738 
L 103.665316 209.727732 
L 103.756827 206.520621 
L 104.031358 192.51196 
L 104.305889 168.304994 
L 104.58042 126.475357 
L 104.946462 54.193745 
L 105.037972 208.606332 
L 105.129483 205.174941 
L 105.404014 190.186626 
L 105.678545 164.286818 
L 105.953077 119.531949 
L 106.136097 72.79016 
L 106.227608 210.465974 
L 106.319118 207.406511 
L 106.59365 194.042779 
L 106.868181 170.950249 
L 107.142712 131.046359 
L 107.417243 62.092435 
L 107.508754 209.396201 
L 107.600264 206.122784 
L 107.874795 191.824499 
L 108.149327 167.117061 
L 108.423858 124.422609 
L 108.698389 50.667675 
L 108.789899 208.253725 
L 108.88141 204.751813 
L 109.155941 189.45546 
L 109.430472 163.023363 
L 109.705004 117.348699 
L 109.888024 69.64628 
L 109.979535 210.151586 
L 110.071045 207.029246 
L 110.345576 193.390864 
L 110.620108 169.82374 
L 110.894639 129.099751 
L 111.16917 58.728697 
L 111.260681 209.059827 
L 111.352191 205.719136 
L 111.626722 191.126994 
L 111.901254 165.911773 
L 112.175785 122.339871 
L 112.450316 47.047625 
L 112.541826 207.89172 
L 112.633337 204.317407 
L 112.907868 188.704807 
L 113.182399 161.726234 
L 113.456931 115.10726 
L 113.822972 34.549672 
L 113.914483 206.641925 
L 114.005993 202.817653 
L 114.280524 186.113231 
L 114.555056 157.247991 
L 114.829587 107.368856 
L 115.012608 55.275307 
L 115.104118 208.714488 
L 115.195628 205.304729 
L 115.47016 190.410899 
L 115.744691 164.674361 
L 116.019222 120.201623 
L 116.293753 43.352733 
L 116.385264 207.522231 
L 116.476774 203.87402 
L 116.751305 187.938634 
L 117.025837 160.402287 
L 117.300368 112.819479 
L 117.66641 30.596388 
L 117.75792 206.246597 
L 117.84943 202.343259 
L 118.123962 185.293478 
L 118.398493 155.831458 
L 118.673024 104.921087 
L 118.856045 51.750519 
L 118.947555 208.36201 
L 119.039066 204.881754 
L 119.313597 189.679999 
L 119.588128 163.411366 
L 119.86266 118.019168 
L 120.228701 39.581449 
L 120.320212 207.145103 
L 120.411722 203.421466 
L 120.686253 187.156621 
L 120.960784 159.050968 
L 121.235316 110.4844 
L 121.418337 59.76169 
L 121.509847 209.163127 
L 121.601357 205.843095 
L 121.875889 191.341195 
L 122.15042 166.281913 
L 122.424951 122.979473 
L 122.699482 48.152858 
L 122.790993 208.002243 
L 122.882503 204.450035 
L 123.157034 188.933988 
L 123.431566 162.122259 
L 123.706097 115.79159 
L 123.980628 67.40751 
L 124.072139 67.40751 
L 124.163649 35.763217 
L 124.255159 206.763279 
L 124.34667 202.963278 
L 124.621201 186.364872 
L 124.895732 157.682826 
L 125.170264 108.120251 
L 125.353284 56.392546 
L 125.444795 208.826212 
L 125.536305 205.438798 
L 125.810836 190.64257 
L 126.085368 165.074688 
L 126.359899 120.893388 
L 126.725941 44.625557 
L 126.817451 207.649513 
L 126.908961 204.026759 
L 127.183493 188.202567 
L 127.458024 160.858363 
L 127.732555 113.607579 
L 127.915576 64.29356 
L 128.007086 209.616314 
L 128.098597 206.386919 
L 128.373128 192.280924 
L 128.647659 167.905764 
L 128.92219 125.785488 
L 129.288232 53.043287 
L 129.379743 208.491286 
L 129.471253 205.036886 
L 129.745784 189.948067 
L 130.020315 163.874588 
L 130.294847 118.819615 
L 130.477868 71.7644 
L 130.569378 210.363398 
L 130.660888 207.28342 
L 130.93542 193.830077 
L 131.209951 170.582701 
L 131.484482 130.411235 
L 131.759013 60.997198 
L 131.850524 209.286678 
L 131.942034 205.991356 
L 132.216565 191.59739 
L 132.491097 166.724618 
L 132.765628 123.744467 
L 133.040159 49.477048 
L 133.13167 208.134662 
L 133.22318 204.608938 
L 133.497711 189.208572 
L 133.772242 162.59674 
L 134.046774 116.611494 
L 134.229794 68.584705 
L 134.321305 210.045428 
L 134.412815 206.901857 
L 134.687347 193.170736 
L 134.961878 169.443359 
L 135.236409 128.442452 
L 135.51094 57.592884 
L 135.602451 208.946246 
L 135.693961 205.582838 
L 135.968492 190.891472 
L 136.243024 165.504791 
L 136.517555 121.636606 
L 136.792086 45.832383 
L 136.883597 207.770196 
L 136.975107 204.171578 
L 137.249638 188.452814 
L 137.524169 161.29079 
L 137.798701 114.354813 
L 138.073232 65.335085 
L 138.164742 65.335085 
L 138.256253 33.249445 
L 138.347763 206.511902 
L 138.439274 202.661625 
L 138.713805 185.843616 
L 138.988336 156.782096 
L 139.262867 106.56379 
L 139.445888 54.116012 
L 139.537399 208.598559 
L 139.628909 205.165613 
L 139.90344 190.170507 
L 140.177971 164.258964 
L 140.452503 119.483818 
L 140.727034 42.112365 
L 140.818544 207.398194 
L 140.910055 203.725176 
L 141.184586 187.681431 
L 141.459117 159.957841 
L 141.733648 112.051477 
L 141.916669 62.01828 
L 142.00818 209.388786 
L 142.09969 206.113886 
L 142.374221 191.809122 
L 142.648753 167.09049 
L 142.923284 124.376695 
L 143.197815 50.567256 
L 143.289325 208.243683 
L 143.380836 204.739763 
L 143.655367 189.434637 
L 143.929898 162.987381 
L 144.20443 117.286522 
L 144.478961 38.315437 
L 144.570471 207.018501 
L 144.661982 203.269544 
L 144.936513 186.8941 
L 145.211044 158.597333 
L 145.485575 109.700519 
L 145.668596 58.632901 
L 145.760107 209.050248 
L 145.851617 205.70764 
L 146.126148 191.10713 
L 146.40068 165.877448 
L 146.675211 122.280557 
L 147.041252 46.94513 
L 147.132763 207.881471 
L 147.224273 204.305108 
L 147.498805 188.683554 
L 147.773336 161.689508 
L 148.047867 115.043797 
L 148.230888 66.327222 
L 148.322398 209.81968 
L 148.413909 206.630959 
L 148.68844 192.702624 
L 148.962971 168.634462 
L 149.237502 127.044678 
L 149.512034 55.177531 
L 149.603544 208.704711 
L 149.695054 205.292996 
L 149.969586 190.390624 
L 150.244117 164.639326 
L 150.518648 120.141083 
L 150.793179 73.667313 
L 150.88469 73.667313 
L 150.9762 43.248119 
L 151.067711 207.51177 
L 151.159221 203.861466 
L 151.433752 187.916941 
L 151.708284 160.364802 
L 151.982815 112.754705 
L 152.165836 63.030929 
L 152.257346 209.490051 
L 152.348856 206.235404 
L 152.623388 192.019105 
L 152.897919 167.453341 
L 153.17245 125.0037 
L 153.446981 51.650721 
L 153.538492 208.35203 
L 153.630002 204.869779 
L 153.904533 189.659305 
L 154.179065 163.375606 
L 154.453596 117.957375 
L 154.819638 39.474672 
L 154.911148 207.134425 
L 155.002658 203.408653 
L 155.27719 187.134479 
L 155.551721 159.012708 
L 155.826252 110.418287 
L 156.009273 59.666487 
L 156.100783 209.153606 
L 156.192294 205.83167 
L 156.466825 191.321454 
L 156.741356 166.2478 
L 157.015888 122.920526 
L 157.290419 48.050996 
L 157.381929 207.992057 
L 157.47344 204.437812 
L 157.747971 188.912866 
L 158.022502 162.08576 
L 158.297033 115.728521 
L 158.480054 67.313224 
L 158.571565 209.91828 
L 158.663075 206.749279 
L 158.937606 192.907081 
L 159.212137 168.987764 
L 159.486669 127.655184 
L 159.7612 56.232485 
L 159.85271 208.810206 
L 159.944221 205.41959 
L 160.218752 190.609379 
L 160.493283 165.017335 
L 160.767815 120.794283 
L 161.042346 44.376848 
L 161.133856 207.624643 
L 161.225367 203.996914 
L 161.499898 188.150995 
L 161.774429 160.769246 
L 162.04896 113.453585 
L 162.231981 64.037316 
L 162.323492 209.590689 
L 162.415002 206.35617 
L 162.689533 192.227789 
L 162.964064 167.813947 
L 163.238596 125.626828 
L 163.513127 52.727487 
L 163.604637 208.459706 
L 163.696148 204.99899 
L 163.970679 189.882583 
L 164.24521 163.761431 
L 164.519741 118.62408 
L 164.885783 40.626738 
L 164.977294 207.249632 
L 165.068804 203.546901 
L 165.343335 187.373372 
L 165.617866 159.425514 
L 165.892398 111.131615 
L 166.075419 60.69368 
L 166.166929 209.256326 
L 166.258439 205.954934 
L 166.532971 191.534453 
L 166.807502 166.615862 
L 167.082033 123.556537 
L 167.356564 49.150024 
L 167.448075 208.10196 
L 167.539585 204.569695 
L 167.814116 189.14076 
L 168.088648 162.479561 
L 168.363179 116.409009 
L 168.5462 68.293127 
L 168.63771 210.01627 
L 168.729221 206.866867 
L 169.003752 193.110274 
L 169.278283 169.338881 
L 169.552814 128.261914 
L 169.827345 57.280916 
L 169.918856 208.915049 
L 170.010366 205.545402 
L 170.284898 190.826782 
L 170.559429 165.393007 
L 170.83396 121.443443 
L 171.108491 45.498597 
L 171.200002 207.736817 
L 171.291512 204.131524 
L 171.566043 188.3836 
L 171.840575 161.171189 
L 172.115106 114.148142 
L 172.298127 65.037479 
L 172.389637 209.690706 
L 172.481147 206.476189 
L 172.755679 192.435183 
L 173.03021 168.172324 
L 173.304741 126.246103 
L 173.579272 53.797593 
L 173.670783 208.566717 
L 173.762293 205.127403 
L 174.036825 190.10448 
L 174.311356 164.144869 
L 174.585887 119.286662 
L 174.860418 72.436947 
L 174.951929 72.436947 
L 175.043439 41.771679 
L 175.134949 207.364126 
L 175.22646 203.684293 
L 175.500991 187.610787 
L 175.775522 159.835767 
L 176.050054 111.840533 
L 176.233074 61.714521 
L 176.324585 209.35841 
L 176.416095 206.077435 
L 176.690627 191.746134 
L 176.965158 166.981648 
L 177.239689 124.188615 
L 177.51422 50.242254 
L 177.605731 208.211183 
L 177.697241 204.700762 
L 177.971772 189.367245 
L 178.246304 162.870927 
L 178.520835 117.085289 
L 178.703856 69.266971 
L 178.795366 210.113655 
L 178.886876 206.983728 
L 179.161408 193.31221 
L 179.435939 169.687827 
L 179.71047 128.864893 
L 179.985001 58.322862 
L 180.076512 209.019244 
L 180.168022 205.670435 
L 180.442553 191.04284 
L 180.717085 165.766355 
L 180.991616 122.088589 
L 181.266147 46.613409 
L 181.357658 207.848299 
L 181.449168 204.265301 
L 181.723699 188.614768 
L 181.998231 161.570646 
L 182.272762 114.838404 
L 182.455783 66.031456 
L 182.547293 209.790103 
L 182.638803 206.595467 
L 182.913335 192.641294 
L 183.187866 168.528484 
L 183.462397 126.861547 
L 183.736928 54.861082 
L 183.828439 208.673066 
L 183.919949 205.255022 
L 184.19448 190.325005 
L 184.469012 164.525936 
L 184.743543 119.945146 
L 185.109585 42.909539 
L 185.201095 207.477912 
L 185.292605 203.820837 
L 185.567137 187.846733 
L 185.841668 160.243483 
L 186.116199 112.545066 
L 186.29922 62.729049 
L 186.39073 209.459863 
L 186.482241 206.199178 
L 186.756772 191.956507 
L 187.031303 167.345171 
L 187.305835 124.816784 
L 187.580366 80.400322 
L 188.49547 80.400322 
L 188.58698 51.32773 
L 188.678491 208.319731 
L 188.770001 204.83102 
L 189.044532 189.592329 
L 189.319064 163.259873 
L 189.593595 117.757387 
L 189.776616 70.234792 
L 189.868126 210.210437 
L 189.959637 207.099867 
L 190.234168 193.512898 
L 190.508699 170.034615 
L 190.78323 129.464142 
L 191.057761 59.358365 
L 191.149272 209.122794 
L 191.240782 205.794696 
L 191.515314 191.257562 
L 191.789845 166.137394 
L 192.064376 122.729745 
L 192.247397 77.394987 
L 192.338907 210.926456 
L 192.430418 207.95909 
L 192.704949 194.997636 
L 192.97948 172.600242 
L 193.254011 133.897546 
L 193.528543 67.019287 
L 193.620053 209.888886 
L 193.711563 206.714006 
L 193.986095 192.846131 
L 194.260626 168.882441 
L 194.535157 127.473186 
L 194.809688 55.917993 
L 194.901199 208.778757 
L 194.992709 205.381851 
L 195.267241 190.544166 
L 195.541772 164.904647 
L 195.816303 120.599557 
L 195.999324 74.327517 
L 196.090834 210.619709 
L 196.182345 207.590994 
L 196.456876 194.361565 
L 196.731407 171.501112 
L 197.005938 131.998249 
L 197.28047 63.737302 
L 197.37198 209.560688 
L 197.46349 206.320168 
L 197.738022 192.165578 
L 198.012553 167.706447 
L 198.287084 125.441068 
L 198.561615 81.299291 
L 198.653126 81.299291 
L 198.744636 52.406493 
L 198.836147 208.427607 
L 198.927657 204.960471 
L 199.202188 189.816022 
L 199.47672 163.646413 
L 199.751251 118.425329 
L 199.934272 71.196628 
L 200.025782 210.30662 
L 200.117292 207.215287 
L 200.391824 193.712344 
L 200.666355 170.379258 
L 200.940886 130.059685 
L 201.215417 60.387464 
L 201.306928 209.225704 
L 201.398438 205.918188 
L 201.672969 191.470956 
L 201.947501 166.506139 
L 202.222032 123.366936 
L 202.405053 78.312542 
L 202.496563 211.018212 
L 202.588074 208.069197 
L 202.862605 195.1879 
L 203.137136 172.929019 
L 203.411667 134.465672 
L 203.686199 68.001008 
L 203.777709 209.987059 
L 203.869219 206.831813 
L 204.143751 193.0497 
L 204.418282 169.23421 
L 204.692813 128.081042 
L 204.967344 56.968368 
L 205.058855 208.883795 
L 205.150365 205.507896 
L 205.424896 190.761972 
L 205.699428 165.281015 
L 205.973959 121.249922 
L 206.15698 75.264042 
L 206.24849 210.713362 
L 206.340001 207.703377 
L 206.614532 194.555763 
L 206.889063 171.836686 
L 207.163594 132.578121 
L 207.438126 64.739321 
L 207.529636 209.66089 
L 207.621146 206.44041 
L 207.895678 192.373357 
L 208.170209 168.065488 
L 208.44474 126.061491 
L 208.627761 82.192701 
L 208.719271 211.406228 
L 208.810782 208.534816 
L 209.085313 195.99249 
L 209.359844 174.31935 
L 209.634375 136.868164 
L 209.908907 72.152515 
L 210.000417 210.402209 
L 210.091928 207.329994 
L 210.366459 193.910557 
L 210.64099 170.72177 
L 210.915521 130.651546 
L 211.190053 61.410198 
L 211.281563 209.327978 
L 211.373073 206.040916 
L 211.647605 191.68303 
L 211.922136 166.872603 
L 212.196667 124.000186 
L 212.379688 79.224422 
L 212.471198 211.1094 
L 212.562709 208.178623 
L 212.83724 195.376987 
L 213.111771 173.255762 
L 213.386302 135.030284 
L 213.660834 68.976658 
L 213.752344 210.084624 
L 213.843855 206.948891 
L 214.118386 193.252011 
L 214.392917 169.583803 
L 214.667448 128.685139 
L 215.03349 58.012248 
L 215.125 208.988182 
L 215.216511 205.633162 
L 215.491042 190.978431 
L 215.765573 165.655056 
L 216.040104 121.896265 
L 216.223125 76.194775 
L 216.314636 210.806435 
L 216.406146 207.815065 
L 216.680677 194.74876 
L 216.955209 172.170185 
L 217.22974 133.154406 
L 217.504271 65.735142 
L 217.595781 209.760472 
L 217.687292 206.559909 
L 217.961823 192.57985 
L 218.236354 168.422309 
L 218.510886 126.678077 
L 218.693906 83.080585 
L 218.785417 211.495016 
L 218.876927 208.641362 
L 219.151459 196.176601 
L 219.42599 174.637495 
L 219.700521 137.417919 
L 219.975052 73.102491 
L 220.066563 210.497207 
L 220.158073 207.443991 
L 220.432604 194.107544 
L 220.707136 171.062163 
L 220.981667 131.239746 
L 221.256198 62.426608 
L 221.347708 209.429619 
L 221.439219 206.162885 
L 221.71375 191.893793 
L 221.988281 167.236801 
L 222.262813 124.62952 
L 222.445833 80.130663 
L 222.537344 211.200024 
L 222.628854 208.287372 
L 222.903385 195.564906 
L 223.177917 173.580484 
L 223.452448 135.591405 
L 223.81849 69.946275 
L 223.91 210.181585 
L 224.00151 207.065245 
L 224.276042 193.453071 
L 224.550573 169.931234 
L 224.825104 129.2855 
L 225.099635 86.835274 
L 225.191146 86.835274 
L 225.282656 59.049671 
L 225.374167 209.091925 
L 225.465677 205.757653 
L 225.740208 191.193551 
L 226.01474 166.026784 
L 226.289271 122.53861 
L 226.472292 77.119753 
L 226.563802 210.898933 
L 226.655312 207.926062 
L 226.929844 194.940563 
L 227.204375 172.501621 
L 227.478906 133.727128 
L 227.844948 66.724805 
L 227.936458 209.859438 
L 228.027969 206.678669 
L 228.3025 192.785067 
L 228.577031 168.776923 
L 228.851562 127.290851 
L 229.034583 83.962979 
L 229.126094 211.583256 
L 229.217604 208.747249 
L 229.492135 196.359575 
L 229.766667 174.953672 
L 230.041198 137.964273 
L 230.315729 74.046592 
L 230.407239 210.591617 
L 230.49875 207.557283 
L 230.773281 194.303313 
L 231.047812 171.400452 
L 231.322344 131.824308 
L 231.596875 63.436732 
L 231.688385 209.530631 
L 231.779896 206.2841 
L 232.054427 192.103252 
L 232.328958 167.598747 
L 232.603489 125.254963 
L 232.78651 81.0313 
L 232.878021 211.290088 
L 232.969531 208.395448 
L 233.244062 195.751662 
L 233.518593 173.903199 
L 233.793125 136.149055 
L 234.067656 96.718794 
L 234.159166 96.718794 
L 234.250677 70.909895 
L 234.342187 210.277947 
L 234.433698 207.180879 
L 234.708229 193.652887 
L 234.98276 170.276516 
L 235.257291 129.882148 
L 235.440312 87.694447 
L 235.531823 211.956402 
L 235.623333 209.195026 
L 235.897864 197.133332 
L 236.172395 176.290725 
L 236.446927 140.2747 
L 236.721458 78.03901 
L 236.812968 210.990859 
L 236.904479 208.036373 
L 237.17901 195.13118 
L 237.453541 172.831007 
L 237.728073 134.296308 
L 238.002604 67.708348 
L 238.094114 209.957792 
L 238.185625 206.796694 
L 238.460156 192.989014 
L 238.734687 169.129344 
L 239.009218 127.899834 
L 239.192239 84.839915 
L 239.28375 211.670949 
L 239.37526 208.852482 
L 239.649791 196.541416 
L 239.924322 175.267895 
L 240.198854 138.507249 
L 240.473385 74.984855 
L 240.564895 210.685443 
L 240.656406 207.669875 
L 240.930937 194.497871 
L 241.205468 171.736648 
L 241.479999 132.405256 
L 241.846041 64.440609 
L 241.937552 209.631019 
L 242.029062 206.404565 
L 242.303593 192.311416 
L 242.578124 167.958454 
L 242.852656 125.876537 
L 243.035677 81.926367 
L 243.127187 211.379594 
L 243.218697 208.502856 
L 243.493229 195.937263 
L 243.76776 174.223918 
L 244.042291 136.703257 
L 244.408333 71.867556 
L 244.499843 210.373713 
L 244.591354 207.295799 
L 244.865885 193.851468 
L 245.140416 170.619664 
L 245.414947 130.475106 
L 245.597968 88.548307 
L 245.689479 212.041788 
L 245.780989 209.297489 
L 246.05552 197.310388 
L 246.330051 176.596678 
L 246.604583 140.803388 
L 246.879114 78.952582 
L 246.970624 211.082216 
L 247.062135 208.146002 
L 247.336666 195.320619 
L 247.611197 173.158357 
L 247.885728 134.861968 
L 248.25177 68.685808 
L 248.343281 210.055538 
L 248.434791 206.913989 
L 248.709322 193.1917 
L 248.983853 169.479586 
L 249.258385 128.505052 
L 249.441405 85.711428 
L 249.532916 211.758101 
L 249.624426 208.957063 
L 249.898958 196.722133 
L 250.173489 175.580174 
L 250.44802 139.046867 
L 250.722551 75.917314 
L 250.814062 210.778689 
L 250.905572 207.78177 
L 251.180103 194.691226 
L 251.454635 172.070765 
L 251.729166 132.98261 
L 252.095207 65.438278 
L 252.186718 209.730786 
L 252.278228 206.524285 
L 252.55276 192.518293 
L 252.827291 168.315937 
L 253.101822 126.494267 
L 253.284843 82.815898 
L 253.376353 211.468548 
L 253.467864 208.6096 
L 253.742395 196.121716 
L 254.016926 174.542653 
L 254.291457 137.254031 
L 254.565989 72.819294 
L 254.657499 210.468887 
L 254.74901 207.410007 
L 255.023541 194.04882 
L 255.298072 170.960689 
L 255.572603 131.064398 
L 255.755624 89.396886 
L 255.847134 212.126646 
L 255.938645 209.399318 
L 256.213176 197.48635 
L 256.487707 176.90074 
L 256.762239 141.328806 
L 257.03677 79.860504 
L 257.12828 211.173008 
L 257.219791 208.254952 
L 257.494322 195.508885 
L 257.768853 173.483682 
L 258.043384 135.424129 
L 258.317916 95.6749 
L 258.409426 95.6749 
L 258.500936 69.657223 
L 258.592447 210.15268 
L 258.683957 207.030559 
L 258.958489 193.393133 
L 259.23302 169.827661 
L 259.507551 129.106526 
L 259.690572 86.577552 
L 259.782082 211.844713 
L 259.873593 209.060998 
L 260.148124 196.901732 
L 260.422655 175.890521 
L 260.697186 139.583148 
L 260.971718 76.844008 
L 261.063228 210.871358 
L 261.154738 207.892973 
L 261.42927 194.883385 
L 261.703801 172.402816 
L 261.978332 133.556394 
L 262.252863 92.985362 
L 262.344374 92.985362 
L 262.435884 66.429777 
L 262.527395 209.829935 
L 262.618905 206.643265 
L 262.893436 192.72389 
L 263.167968 168.671209 
L 263.442499 127.108177 
L 263.62552 83.699929 
L 263.71703 211.556951 
L 263.80854 208.715683 
L 264.083072 196.305029 
L 264.357603 174.859417 
L 264.632134 137.8014 
L 264.906665 73.765146 
L 264.998176 210.563472 
L 265.089686 207.52351 
L 265.364218 194.244952 
L 265.638749 171.299605 
L 265.91328 131.650044 
L 266.096301 90.240218 
L 266.187811 212.21098 
L 266.279322 209.500518 
L 266.553853 197.661223 
L 266.828384 177.202921 
L 267.102915 141.850974 
L 267.377447 80.762811 
L 267.468957 211.263239 
L 267.560467 208.363229 
L 267.834999 195.695988 
L 268.10953 173.806995 
L 268.384061 135.982814 
L 268.658592 96.479406 
L 268.750103 96.479406 
L 268.841613 70.62263 
L 268.933124 210.249221 
L 269.024634 207.146408 
L 269.299165 193.59332 
L 269.573697 170.173584 
L 269.848228 129.704281 
L 270.031249 87.438319 
L 270.122759 211.93079 
L 270.214269 209.16429 
L 270.488801 197.080221 
L 270.763332 176.19895 
L 271.037863 140.116113 
L 271.312394 77.76497 
L 271.403905 210.963455 
L 271.495415 208.003488 
L 271.769946 195.074355 
L 272.044478 172.732814 
L 272.319009 134.12663 
L 272.685051 67.415144 
L 272.776561 209.928472 
L 272.868071 206.761509 
L 273.142603 192.928216 
L 273.417134 169.024284 
L 273.691665 127.71829 
L 273.874686 84.578492 
L 273.966196 211.644807 
L 274.057707 208.821111 
L 274.332238 196.487207 
L 274.606769 175.174222 
L 274.881301 138.345383 
L 275.155832 74.705149 
L 275.247342 210.657473 
L 275.338853 207.63631 
L 275.613384 194.439871 
L 275.887915 171.636425 
L 276.162446 132.232069 
L 276.436978 91.078334 
L 279.639842 91.078334 
L 279.731352 64.141344 
L 279.822863 209.601092 
L 279.914373 206.368653 
L 280.188905 192.24936 
L 280.463436 167.851222 
L 280.737967 125.691239 
L 280.920988 81.659539 
L 281.012498 211.352912 
L 281.104009 208.470837 
L 281.37854 195.881933 
L 281.653071 174.128308 
L 281.927602 136.538044 
L 282.202134 71.582068 
L 282.293644 210.345164 
L 282.385154 207.26154 
L 282.659686 193.792269 
L 282.934217 170.517368 
L 283.208748 130.29834 
L 283.483279 88.293763 
L 284.215363 88.293763 
L 284.306873 212.016334 
L 284.398384 209.266944 
L 284.672915 197.257606 
L 284.947446 176.505471 
L 285.221977 140.645781 
L 285.496509 78.680237 
L 285.588019 211.054981 
L 285.679529 208.11332 
L 285.954061 195.264145 
L 286.228592 173.06077 
L 286.503123 134.693339 
L 286.777654 94.622562 
L 286.960675 94.622562 
L 287.052186 68.394417 
L 287.143696 210.026399 
L 287.235206 206.879022 
L 287.509738 193.131278 
L 287.784269 169.375175 
L 288.0588 128.32463 
L 288.241821 85.451622 
L 288.333331 211.73212 
L 288.424842 208.925887 
L 288.699373 196.66826 
L 288.973904 175.48708 
L 289.248436 138.886002 
L 289.522967 75.639339 
L 289.614477 210.750892 
L 289.705988 207.748413 
L 289.980519 194.633585 
L 290.25505 171.971162 
L 290.529581 132.810495 
L 290.804113 65.140863 
L 290.895623 209.701044 
L 290.987133 206.488596 
L 291.261665 192.456621 
L 291.536196 168.209368 
L 291.810727 126.310116 
L 291.993748 82.55072 
L 292.085258 211.44203 
L 292.176769 208.577778 
L 292.4513 196.066729 
L 292.725831 174.447635 
L 293.000362 137.08984 
L 293.274894 72.535571 
L 293.366404 210.440515 
L 293.457915 207.375961 
L 293.732446 193.989987 
L 294.006977 170.859026 
L 294.281508 130.888724 
L 294.55604 89.143917 
L 296.93531 89.143917 
L 297.026821 61.820043 
L 297.118331 209.368962 
L 297.209842 206.090097 
L 297.484373 191.768015 
L 297.758904 167.019458 
L 298.033435 124.253951 
L 298.216456 79.589843 
L 298.307966 211.145942 
L 298.399477 208.222473 
L 298.674008 195.452761 
L 298.948539 173.386699 
L 299.223071 135.256543 
L 299.497602 69.367634 
L 299.589112 210.123721 
L 299.680623 206.995808 
L 299.955154 193.333084 
L 300.229685 169.723897 
L 300.504216 128.927221 
L 300.778748 86.319352 
L 309.380727 86.319352 
L 309.472237 58.430565 
L 309.563747 209.030014 
L 309.655258 205.68336 
L 309.929789 191.065173 
L 310.20432 165.804947 
L 310.478852 122.155276 
L 310.661872 76.567751 
L 310.753383 210.843733 
L 310.844893 207.859822 
L 311.119424 194.8261 
L 311.393956 172.303829 
L 311.668487 133.385344 
L 311.943018 66.134201 
L 312.034529 209.800378 
L 312.126039 206.607796 
L 312.40057 192.662599 
L 312.675101 168.565299 
L 312.949633 126.925164 
L 313.224164 83.436391 
L 321.18557 83.436391 
L 321.27708 54.971011 
L 321.368591 208.684059 
L 321.460101 205.268213 
L 321.734632 190.3478 
L 322.009164 164.565326 
L 322.283695 120.013211 
L 322.466716 73.483178 
L 322.558226 210.535276 
L 322.649737 207.489673 
L 322.924268 194.186483 
L 323.198799 171.19857 
L 323.47333 131.475457 
L 323.747862 62.833918 
L 323.839372 209.47035 
L 323.930882 206.211762 
L 324.205414 191.978252 
L 324.479945 167.382748 
L 324.754476 124.881716 
L 325.029007 80.493825 
L 327.225257 80.493825 
L 327.316768 51.439932 
L 327.408278 208.330951 
L 327.499788 204.844484 
L 327.77432 189.615596 
L 328.048851 163.300077 
L 328.323382 117.82686 
L 328.506403 70.334833 
L 328.597913 210.220441 
L 328.689424 207.111872 
L 328.963955 193.533642 
L 329.238486 170.070461 
L 329.513018 129.526085 
L 329.787549 59.465402 
L 329.879059 209.133498 
L 329.97057 205.80754 
L 330.245101 191.279757 
L 330.519632 166.175748 
L 330.794163 122.79602 
L 331.160205 47.835849 
L 331.251715 207.970543 
L 331.343226 204.411994 
L 331.617757 188.868253 
L 331.892288 162.008669 
L 332.16682 115.595307 
L 332.34984 67.121396 
L 332.441351 209.899097 
L 332.532861 206.72626 
L 332.807392 192.867304 
L 333.081924 168.919029 
L 333.356455 127.536409 
L 333.630986 56.027243 
L 333.722497 208.789682 
L 333.814007 205.394961 
L 334.088538 190.56682 
L 334.36307 164.943793 
L 334.637601 120.667202 
L 334.912132 74.424925 
L 341.13484 74.424925 
L 341.226351 44.157253 
L 341.317861 207.602683 
L 341.409371 203.970562 
L 341.683903 188.105459 
L 341.958434 160.690561 
L 342.232965 113.317617 
L 342.415986 63.841523 
L 342.507496 209.57111 
L 342.599007 206.332675 
L 342.873538 192.187189 
L 343.148069 167.743791 
L 343.4226 125.505598 
L 343.697132 52.518001 
L 343.788642 208.438758 
L 343.880153 204.973852 
L 344.154684 189.839144 
L 344.429215 163.686368 
L 344.703746 118.494372 
L 344.978278 71.29605 
L 346.899996 71.29605 
L 346.991507 40.402603 
L 347.083017 207.227218 
L 347.174527 203.520004 
L 347.449059 187.326895 
L 347.72359 159.345202 
L 347.998121 110.992837 
L 348.181142 60.493839 
L 348.272652 209.236342 
L 348.364163 205.930953 
L 348.638694 191.493014 
L 348.913225 166.544255 
L 349.187757 123.432801 
L 349.462288 48.936207 
L 349.553798 208.080578 
L 349.645309 204.544037 
L 349.91984 189.096423 
L 350.194371 162.402947 
L 350.468902 116.27662 
L 350.743434 68.102486 
L 356.142548 68.102486 
L 356.234058 209.997206 
L 356.325569 206.84399 
L 356.6001 193.070743 
L 356.874631 169.270571 
L 357.149163 128.143875 
L 357.149163 128.143875 
" clip-path="url(#pbccafb53f7)" style="fill: none; stroke: #1f77b4; stroke-width: 1.5; stroke-linecap: square"/>
   </g>
   <g id="patch_3">
    <path d="M 37.567344 228.96 
L 37.567344 7.2 
" style="fill: none; stroke: #000000; stroke-width: 0.8; stroke-linejoin: miter; stroke-linecap: square"/>
   </g>
   <g id="patch_4">
    <path d="M 372.367344 228.96 
L 372.367344 7.2 
" style="fill: none; stroke: #000000; stroke-width: 0.8; stroke-linejoin: miter; stroke-linecap: square"/>
   </g>
   <g id="patch_5">
    <path d="M 37.567344 228.96 
L 372.367344 228.96 
" style="fill: none; stroke: #000000; stroke-width: 0.8; stroke-linejoin: miter; stroke-linecap: square"/>
   </g>
   <g id="patch_6">
    <path d="M 37.567344 7.2 
L 372.367344 7.2 
" style="fill: none; stroke: #000000; stroke-width: 0.8; stroke-linejoin: miter; stroke-linecap: square"/>
   </g>
   <g id="legend_1">
    <g id="patch_7">
     <path d="M 314.548024 29.420307 
L 365.367344 29.420307 
Q 367.367344 29.420307 367.367344 27.420307 
L 367.367344 14.2 
Q 367.367344 12.2 365.367344 12.2 
L 314.548024 12.2 
Q 312.548024 12.2 312.548024 14.2 
L 312.548024 27.420307 
Q 312.548024 29.420307 314.548024 29.420307 
z
" style="fill: #ffffff; opacity: 0.8; stroke: #cccccc; stroke-linejoin: miter"/>
    </g>
    <g id="line2d_16">
     <path d="M 316.548024 19.79832 
L 326.548024 19.79832 
L 336.548024 19.79832 
" style="fill: none; stroke: #1f77b4; stroke-width: 1.5; stroke-linecap: square"/>
    </g>
    <g id="text_17">
     <!-- CFL -->
     <g transform="translate(344.548024 23.29832) scale(0.1 -0.1)">
      <use xlink:href="#NimbusSanL-Regu-43" transform="scale(0.996264)"/>
      <use xlink:href="#NimbusSanL-Regu-46" transform="translate(71.929985 0) scale(0.996264)"/>
      <use xlink:href="#NimbusSanL-Regu-4c" transform="translate(132.801616 0) scale(0.996264)"/>
     </g>
    </g>
   </g>
  </g>
 </g>
 <defs>
  <clipPath id="pbccafb53f7">
   <rect x="37.567344" y="7.2" width="334.8" height="221.76"/>
  </clipPath>
 </defs>
</svg>
