<?xml version="1.0" encoding="utf-8" standalone="no"?>
<!DOCTYPE svg PUBLIC "-//W3C//DTD SVG 1.1//EN"
  "http://www.w3.org/Graphics/SVG/1.1/DTD/svg11.dtd">
<svg xmlns:xlink="http://www.w3.org/1999/xlink" width="382.334753pt" height="266.770429pt" viewBox="0 0 382.334753 266.770429" xmlns="http://www.w3.org/2000/svg" version="1.1">
 <metadata>
  <rdf:RDF xmlns:dc="http://purl.org/dc/elements/1.1/" xmlns:cc="http://creativecommons.org/ns#" xmlns:rdf="http://www.w3.org/1999/02/22-rdf-syntax-ns#">
   <cc:Work>
    <dc:type rdf:resource="http://purl.org/dc/dcmitype/StillImage"/>
    <dc:date>2025-07-17T21:33:17.909144</dc:date>
    <dc:format>image/svg+xml</dc:format>
    <dc:creator>
     <cc:Agent>
      <dc:title>Matplotlib v3.10.3, https://matplotlib.org/</dc:title>
     </cc:Agent>
    </dc:creator>
   </cc:Work>
  </rdf:RDF>
 </metadata>
 <defs>
  <style type="text/css">*{stroke-linejoin: round; stroke-linecap: butt}</style>
 </defs>
 <g id="figure_1">
  <g id="patch_1">
   <path d="M 0 266.770429 
L 382.334753 266.770429 
L 382.334753 0 
L 0 0 
z
" style="fill: #ffffff"/>
  </g>
  <g id="axes_1">
   <g id="patch_2">
    <path d="M 40.334753 230.129816 
L 375.134753 230.129816 
L 375.134753 8.369816 
L 40.334753 8.369816 
z
" style="fill: #ffffff"/>
   </g>
   <g id="matplotlib.axis_1">
    <g id="xtick_1">
     <g id="line2d_1">
      <defs>
       <path id="m69912f7cdf" d="M 0 0 
L 0 3.5 
" style="stroke: #000000; stroke-width: 0.8"/>
      </defs>
      <g>
       <use xlink:href="#m69912f7cdf" x="55.552935" y="230.129816" style="stroke: #000000; stroke-width: 0.8"/>
      </g>
     </g>
     <g id="text_1">
      <!-- $\mathdefault{0}$ -->
      <g transform="translate(53.062267 244.228136) scale(0.1 -0.1)">
       <defs>
        <path id="CMR17-30" d="M 2688 2038 
C 2688 2430 2682 3099 2413 3613 
C 2176 4063 1798 4224 1466 4224 
C 1158 4224 768 4082 525 3620 
C 269 3137 243 2539 243 2038 
C 243 1671 250 1112 448 623 
C 723 -39 1216 -128 1466 -128 
C 1760 -128 2208 -7 2470 604 
C 2662 1048 2688 1568 2688 2038 
z
M 1466 -26 
C 1056 -26 813 328 723 816 
C 653 1196 653 1749 653 2109 
C 653 2604 653 3015 736 3407 
C 858 3954 1216 4121 1466 4121 
C 1728 4121 2067 3947 2189 3420 
C 2272 3054 2278 2623 2278 2109 
C 2278 1691 2278 1176 2202 797 
C 2067 96 1690 -26 1466 -26 
z
" transform="scale(0.015625)"/>
       </defs>
       <use xlink:href="#CMR17-30" transform="scale(0.996264)"/>
      </g>
     </g>
    </g>
    <g id="xtick_2">
     <g id="line2d_2">
      <g>
       <use xlink:href="#m69912f7cdf" x="116.292036" y="230.129816" style="stroke: #000000; stroke-width: 0.8"/>
      </g>
     </g>
     <g id="text_2">
      <!-- $\mathdefault{1000}$ -->
      <g transform="translate(106.329365 244.228136) scale(0.1 -0.1)">
       <defs>
        <path id="CMR17-31" d="M 1702 4083 
C 1702 4217 1696 4224 1606 4224 
C 1357 3927 979 3833 621 3820 
C 602 3820 570 3820 563 3808 
C 557 3795 557 3782 557 3648 
C 755 3648 1088 3686 1344 3839 
L 1344 467 
C 1344 243 1331 166 781 166 
L 589 166 
L 589 0 
C 896 6 1216 12 1523 12 
C 1830 12 2150 6 2458 0 
L 2458 166 
L 2266 166 
C 1715 166 1702 236 1702 467 
L 1702 4083 
z
" transform="scale(0.015625)"/>
       </defs>
       <use xlink:href="#CMR17-31" transform="scale(0.996264)"/>
       <use xlink:href="#CMR17-30" transform="translate(45.690477 0) scale(0.996264)"/>
       <use xlink:href="#CMR17-30" transform="translate(91.380954 0) scale(0.996264)"/>
       <use xlink:href="#CMR17-30" transform="translate(137.071431 0) scale(0.996264)"/>
      </g>
     </g>
    </g>
    <g id="xtick_3">
     <g id="line2d_3">
      <g>
       <use xlink:href="#m69912f7cdf" x="177.031137" y="230.129816" style="stroke: #000000; stroke-width: 0.8"/>
      </g>
     </g>
     <g id="text_3">
      <!-- $\mathdefault{2000}$ -->
      <g transform="translate(167.068467 244.228136) scale(0.1 -0.1)">
       <defs>
        <path id="CMR17-32" d="M 2669 990 
L 2554 990 
C 2490 537 2438 460 2413 422 
C 2381 371 1920 371 1830 371 
L 602 371 
C 832 620 1280 1073 1824 1596 
C 2214 1966 2669 2400 2669 3033 
C 2669 3788 2067 4224 1395 4224 
C 691 4224 262 3603 262 3027 
C 262 2777 448 2745 525 2745 
C 589 2745 781 2783 781 3007 
C 781 3206 614 3264 525 3264 
C 486 3264 448 3257 422 3244 
C 544 3788 915 4057 1306 4057 
C 1862 4057 2227 3616 2227 3033 
C 2227 2477 1901 1998 1536 1583 
L 262 147 
L 262 0 
L 2515 0 
L 2669 990 
z
" transform="scale(0.015625)"/>
       </defs>
       <use xlink:href="#CMR17-32" transform="scale(0.996264)"/>
       <use xlink:href="#CMR17-30" transform="translate(45.690477 0) scale(0.996264)"/>
       <use xlink:href="#CMR17-30" transform="translate(91.380954 0) scale(0.996264)"/>
       <use xlink:href="#CMR17-30" transform="translate(137.071431 0) scale(0.996264)"/>
      </g>
     </g>
    </g>
    <g id="xtick_4">
     <g id="line2d_4">
      <g>
       <use xlink:href="#m69912f7cdf" x="237.770238" y="230.129816" style="stroke: #000000; stroke-width: 0.8"/>
      </g>
     </g>
     <g id="text_4">
      <!-- $\mathdefault{3000}$ -->
      <g transform="translate(227.807568 244.228136) scale(0.1 -0.1)">
       <defs>
        <path id="CMR17-33" d="M 1414 2176 
C 1984 2176 2234 1673 2234 1094 
C 2234 322 1824 25 1453 25 
C 1114 25 563 193 390 691 
C 422 678 454 678 486 678 
C 640 678 755 780 755 947 
C 755 1132 614 1216 486 1216 
C 378 1216 211 1164 211 927 
C 211 335 787 -128 1466 -128 
C 2176 -128 2720 432 2720 1087 
C 2720 1718 2208 2176 1600 2246 
C 2086 2347 2554 2776 2554 3353 
C 2554 3856 2048 4224 1472 4224 
C 890 4224 378 3862 378 3347 
C 378 3123 544 3084 627 3084 
C 762 3084 877 3167 877 3334 
C 877 3500 762 3584 627 3584 
C 602 3584 570 3584 544 3571 
C 730 3999 1235 4076 1459 4076 
C 1683 4076 2106 3966 2106 3347 
C 2106 3167 2080 2851 1862 2574 
C 1670 2329 1453 2316 1242 2297 
C 1210 2297 1062 2284 1037 2284 
C 992 2278 966 2272 966 2227 
C 966 2182 973 2176 1101 2176 
L 1414 2176 
z
" transform="scale(0.015625)"/>
       </defs>
       <use xlink:href="#CMR17-33" transform="scale(0.996264)"/>
       <use xlink:href="#CMR17-30" transform="translate(45.690477 0) scale(0.996264)"/>
       <use xlink:href="#CMR17-30" transform="translate(91.380954 0) scale(0.996264)"/>
       <use xlink:href="#CMR17-30" transform="translate(137.071431 0) scale(0.996264)"/>
      </g>
     </g>
    </g>
    <g id="xtick_5">
     <g id="line2d_5">
      <g>
       <use xlink:href="#m69912f7cdf" x="298.50934" y="230.129816" style="stroke: #000000; stroke-width: 0.8"/>
      </g>
     </g>
     <g id="text_5">
      <!-- $\mathdefault{4000}$ -->
      <g transform="translate(288.546669 244.228136) scale(0.1 -0.1)">
       <defs>
        <path id="CMR17-34" d="M 2150 4147 
C 2150 4281 2144 4288 2029 4288 
L 128 1254 
L 128 1088 
L 1779 1088 
L 1779 460 
C 1779 230 1766 166 1318 166 
L 1197 166 
L 1197 0 
C 1402 12 1747 12 1965 12 
C 2182 12 2528 12 2733 0 
L 2733 166 
L 2611 166 
C 2163 166 2150 230 2150 460 
L 2150 1088 
L 2803 1088 
L 2803 1254 
L 2150 1254 
L 2150 4147 
z
M 1798 3723 
L 1798 1254 
L 256 1254 
L 1798 3723 
z
" transform="scale(0.015625)"/>
       </defs>
       <use xlink:href="#CMR17-34" transform="scale(0.996264)"/>
       <use xlink:href="#CMR17-30" transform="translate(45.690477 0) scale(0.996264)"/>
       <use xlink:href="#CMR17-30" transform="translate(91.380954 0) scale(0.996264)"/>
       <use xlink:href="#CMR17-30" transform="translate(137.071431 0) scale(0.996264)"/>
      </g>
     </g>
    </g>
    <g id="xtick_6">
     <g id="line2d_6">
      <g>
       <use xlink:href="#m69912f7cdf" x="359.248441" y="230.129816" style="stroke: #000000; stroke-width: 0.8"/>
      </g>
     </g>
     <g id="text_6">
      <!-- $\mathdefault{5000}$ -->
      <g transform="translate(349.28577 244.228136) scale(0.1 -0.1)">
       <defs>
        <path id="CMR17-35" d="M 730 3750 
C 794 3724 1056 3641 1325 3641 
C 1920 3641 2246 3961 2432 4140 
C 2432 4191 2432 4224 2394 4224 
C 2387 4224 2374 4224 2323 4198 
C 2099 4102 1837 4032 1517 4032 
C 1325 4032 1037 4055 723 4191 
C 653 4224 640 4224 634 4224 
C 602 4224 595 4217 595 4090 
L 595 2231 
C 595 2113 595 2080 659 2080 
C 691 2080 704 2093 736 2139 
C 941 2435 1222 2560 1542 2560 
C 1766 2560 2246 2415 2246 1293 
C 2246 1087 2246 716 2054 422 
C 1894 159 1645 25 1370 25 
C 947 25 518 319 403 812 
C 429 806 480 793 506 793 
C 589 793 749 838 749 1036 
C 749 1209 627 1280 506 1280 
C 358 1280 262 1190 262 1011 
C 262 454 704 -128 1382 -128 
C 2042 -128 2669 441 2669 1267 
C 2669 2054 2170 2662 1549 2662 
C 1222 2662 947 2540 730 2304 
L 730 3750 
z
" transform="scale(0.015625)"/>
       </defs>
       <use xlink:href="#CMR17-35" transform="scale(0.996264)"/>
       <use xlink:href="#CMR17-30" transform="translate(45.690477 0) scale(0.996264)"/>
       <use xlink:href="#CMR17-30" transform="translate(91.380954 0) scale(0.996264)"/>
       <use xlink:href="#CMR17-30" transform="translate(137.071431 0) scale(0.996264)"/>
      </g>
     </g>
    </g>
    <g id="text_7">
     <!-- Iteration -->
     <g transform="translate(189.787377 257.448443) scale(0.1 -0.1)">
      <defs>
       <path id="NimbusSanL-Regu-49" d="M 1242 4672 
L 640 4672 
L 640 0 
L 1242 0 
L 1242 4672 
z
" transform="scale(0.015625)"/>
       <path id="NimbusSanL-Regu-74" d="M 1626 3328 
L 1075 3328 
L 1075 4249 
L 544 4249 
L 544 3328 
L 90 3328 
L 90 2892 
L 544 2892 
L 544 402 
C 544 64 774 -128 1190 -128 
C 1318 -128 1446 -116 1626 -84 
L 1626 364 
C 1555 345 1472 339 1370 339 
C 1139 339 1075 402 1075 634 
L 1075 2892 
L 1626 2892 
L 1626 3328 
z
" transform="scale(0.015625)"/>
       <path id="NimbusSanL-Regu-65" d="M 3283 1484 
C 3283 1998 3245 2311 3149 2565 
C 2931 3123 2419 3456 1792 3456 
C 858 3456 256 2734 256 1619 
C 256 545 838 -128 1779 -128 
C 2547 -128 3078 307 3213 1018 
L 2675 1018 
C 2528 588 2227 364 1798 364 
C 1459 364 1171 514 992 787 
C 864 974 819 1161 813 1484 
L 3283 1484 
z
M 826 1920 
C 870 2552 1248 2963 1786 2963 
C 2310 2963 2714 2519 2714 1959 
C 2714 1946 2714 1933 2707 1920 
L 826 1920 
z
" transform="scale(0.015625)"/>
       <path id="NimbusSanL-Regu-72" d="M 442 3328 
L 442 0 
L 979 0 
L 979 1727 
C 979 2203 1101 2514 1357 2698 
C 1523 2819 1683 2857 2054 2863 
L 2054 3404 
C 1965 3449 1920 3456 1850 3456 
C 1504 3456 1242 3251 934 2750 
L 934 3328 
L 442 3328 
z
" transform="scale(0.015625)"/>
       <path id="NimbusSanL-Regu-61" d="M 3424 332 
C 3366 320 3341 320 3309 320 
C 3123 320 3021 415 3021 581 
L 3021 2542 
C 3021 3135 2586 3456 1760 3456 
C 1274 3456 870 3315 646 3065 
C 493 2893 429 2702 416 2370 
L 954 2370 
C 998 2778 1242 2963 1741 2963 
C 2221 2963 2490 2784 2490 2466 
L 2490 2326 
C 2490 2103 2355 2007 1933 1956 
C 1178 1861 1062 1835 858 1753 
C 467 1593 269 1294 269 861 
C 269 256 691 -128 1370 -128 
C 1792 -128 2131 19 2509 364 
C 2547 25 2714 -128 3059 -128 
C 3168 -128 3251 -116 3424 -71 
L 3424 332 
z
M 2490 1071 
C 2490 893 2438 785 2278 638 
C 2061 441 1798 339 1485 339 
C 1069 339 826 536 826 874 
C 826 1224 1062 1402 1632 1485 
C 2195 1562 2310 1587 2490 1670 
L 2490 1071 
z
" transform="scale(0.015625)"/>
       <path id="NimbusSanL-Regu-69" d="M 960 3358 
L 429 3358 
L 429 0 
L 960 0 
L 960 3358 
z
M 960 4672 
L 422 4672 
L 422 3999 
L 960 3999 
L 960 4672 
z
" transform="scale(0.015625)"/>
       <path id="NimbusSanL-Regu-6f" d="M 1741 3456 
C 800 3456 230 2784 230 1663 
C 230 543 794 -128 1747 -128 
C 2688 -128 3264 543 3264 1638 
C 3264 2791 2707 3456 1741 3456 
z
M 1747 2963 
C 2349 2963 2707 2472 2707 1644 
C 2707 861 2336 364 1747 364 
C 1152 364 787 855 787 1663 
C 787 2466 1152 2963 1747 2963 
z
" transform="scale(0.015625)"/>
       <path id="NimbusSanL-Regu-6e" d="M 448 3328 
L 448 0 
L 986 0 
L 986 1835 
C 986 2539 1344 2988 1894 2988 
C 2317 2988 2586 2732 2586 2328 
L 2586 0 
L 3117 0 
L 3117 2539 
C 3117 3097 2701 3456 2054 3456 
C 1555 3456 1235 3263 941 2796 
L 941 3328 
L 448 3328 
z
" transform="scale(0.015625)"/>
      </defs>
      <use xlink:href="#NimbusSanL-Regu-49" transform="scale(0.996264)"/>
      <use xlink:href="#NimbusSanL-Regu-74" transform="translate(27.69517 0) scale(0.996264)"/>
      <use xlink:href="#NimbusSanL-Regu-65" transform="translate(55.390339 0) scale(0.996264)"/>
      <use xlink:href="#NimbusSanL-Regu-72" transform="translate(110.782016 0) scale(0.996264)"/>
      <use xlink:href="#NimbusSanL-Regu-61" transform="translate(142.961149 0) scale(0.996264)"/>
      <use xlink:href="#NimbusSanL-Regu-74" transform="translate(198.352826 0) scale(0.996264)"/>
      <use xlink:href="#NimbusSanL-Regu-69" transform="translate(226.047996 0) scale(0.996264)"/>
      <use xlink:href="#NimbusSanL-Regu-6f" transform="translate(248.16478 0) scale(0.996264)"/>
      <use xlink:href="#NimbusSanL-Regu-6e" transform="translate(303.556457 0) scale(0.996264)"/>
     </g>
    </g>
   </g>
   <g id="matplotlib.axis_2">
    <g id="ytick_1">
     <g id="line2d_7">
      <defs>
       <path id="m31ce0b6ad3" d="M 0 0 
L -3.5 0 
" style="stroke: #000000; stroke-width: 0.8"/>
      </defs>
      <g>
       <use xlink:href="#m31ce0b6ad3" x="40.334753" y="221.277676" style="stroke: #000000; stroke-width: 0.8"/>
      </g>
     </g>
     <g id="text_8">
      <!-- $\mathdefault{−3}$ -->
      <g transform="translate(20.604674 224.826837) scale(0.1 -0.1)">
       <defs>
        <path id="CMSY10-0" d="M 4218 1472 
C 4326 1472 4442 1472 4442 1600 
C 4442 1728 4326 1728 4218 1728 
L 755 1728 
C 646 1728 531 1728 531 1600 
C 531 1472 646 1472 755 1472 
L 4218 1472 
z
" transform="scale(0.015625)"/>
       </defs>
       <use xlink:href="#CMSY10-0" transform="scale(0.996264)"/>
       <use xlink:href="#CMR17-33" transform="translate(77.487468 0) scale(0.996264)"/>
      </g>
     </g>
    </g>
    <g id="ytick_2">
     <g id="line2d_8">
      <g>
       <use xlink:href="#m31ce0b6ad3" x="40.334753" y="194.961612" style="stroke: #000000; stroke-width: 0.8"/>
      </g>
     </g>
     <g id="text_9">
      <!-- $\mathdefault{−2}$ -->
      <g transform="translate(20.604674 198.510772) scale(0.1 -0.1)">
       <use xlink:href="#CMSY10-0" transform="scale(0.996264)"/>
       <use xlink:href="#CMR17-32" transform="translate(77.487468 0) scale(0.996264)"/>
      </g>
     </g>
    </g>
    <g id="ytick_3">
     <g id="line2d_9">
      <g>
       <use xlink:href="#m31ce0b6ad3" x="40.334753" y="168.645547" style="stroke: #000000; stroke-width: 0.8"/>
      </g>
     </g>
     <g id="text_10">
      <!-- $\mathdefault{−1}$ -->
      <g transform="translate(20.604674 172.194707) scale(0.1 -0.1)">
       <use xlink:href="#CMSY10-0" transform="scale(0.996264)"/>
       <use xlink:href="#CMR17-31" transform="translate(77.487468 0) scale(0.996264)"/>
      </g>
     </g>
    </g>
    <g id="ytick_4">
     <g id="line2d_10">
      <g>
       <use xlink:href="#m31ce0b6ad3" x="40.334753" y="142.329483" style="stroke: #000000; stroke-width: 0.8"/>
      </g>
     </g>
     <g id="text_11">
      <!-- $\mathdefault{0}$ -->
      <g transform="translate(28.353418 145.878643) scale(0.1 -0.1)">
       <use xlink:href="#CMR17-30" transform="scale(0.996264)"/>
      </g>
     </g>
    </g>
    <g id="ytick_5">
     <g id="line2d_11">
      <g>
       <use xlink:href="#m31ce0b6ad3" x="40.334753" y="116.013418" style="stroke: #000000; stroke-width: 0.8"/>
      </g>
     </g>
     <g id="text_12">
      <!-- $\mathdefault{1}$ -->
      <g transform="translate(28.353418 119.562578) scale(0.1 -0.1)">
       <use xlink:href="#CMR17-31" transform="scale(0.996264)"/>
      </g>
     </g>
    </g>
    <g id="ytick_6">
     <g id="line2d_12">
      <g>
       <use xlink:href="#m31ce0b6ad3" x="40.334753" y="89.697354" style="stroke: #000000; stroke-width: 0.8"/>
      </g>
     </g>
     <g id="text_13">
      <!-- $\mathdefault{2}$ -->
      <g transform="translate(28.353418 93.246514) scale(0.1 -0.1)">
       <use xlink:href="#CMR17-32" transform="scale(0.996264)"/>
      </g>
     </g>
    </g>
    <g id="ytick_7">
     <g id="line2d_13">
      <g>
       <use xlink:href="#m31ce0b6ad3" x="40.334753" y="63.381289" style="stroke: #000000; stroke-width: 0.8"/>
      </g>
     </g>
     <g id="text_14">
      <!-- $\mathdefault{3}$ -->
      <g transform="translate(28.353418 66.930449) scale(0.1 -0.1)">
       <use xlink:href="#CMR17-33" transform="scale(0.996264)"/>
      </g>
     </g>
    </g>
    <g id="ytick_8">
     <g id="line2d_14">
      <g>
       <use xlink:href="#m31ce0b6ad3" x="40.334753" y="37.065225" style="stroke: #000000; stroke-width: 0.8"/>
      </g>
     </g>
     <g id="text_15">
      <!-- $\mathdefault{4}$ -->
      <g transform="translate(28.353418 40.614385) scale(0.1 -0.1)">
       <use xlink:href="#CMR17-34" transform="scale(0.996264)"/>
      </g>
     </g>
    </g>
    <g id="ytick_9">
     <g id="line2d_15">
      <g>
       <use xlink:href="#m31ce0b6ad3" x="40.334753" y="10.74916" style="stroke: #000000; stroke-width: 0.8"/>
      </g>
     </g>
     <g id="text_16">
      <!-- $\mathdefault{5}$ -->
      <g transform="translate(28.353418 14.29832) scale(0.1 -0.1)">
       <use xlink:href="#CMR17-35" transform="scale(0.996264)"/>
      </g>
     </g>
    </g>
    <g id="text_17">
     <!-- Aerodynamic Coefficients - Blade_20 -->
     <g transform="translate(14.482687 200.220263) rotate(-90) scale(0.1 -0.1)">
      <defs>
       <path id="NimbusSanL-Regu-41" d="M 3034 1408 
L 3514 0 
L 4179 0 
L 2541 4672 
L 1773 4672 
L 109 0 
L 742 0 
L 1235 1408 
L 3034 1408 
z
M 2867 1907 
L 1382 1907 
L 2150 4032 
L 2867 1907 
z
" transform="scale(0.015625)"/>
       <path id="NimbusSanL-Regu-64" d="M 3168 4672 
L 2637 4672 
L 2637 2937 
C 2413 3276 2054 3456 1606 3456 
C 736 3456 166 2759 166 1695 
C 166 568 723 -128 1626 -128 
C 2086 -128 2406 44 2694 460 
L 2694 19 
L 3168 19 
L 3168 4672 
z
M 1696 2956 
C 2272 2956 2637 2447 2637 1651 
C 2637 880 2266 371 1702 371 
C 1114 371 723 887 723 1663 
C 723 2440 1114 2956 1696 2956 
z
" transform="scale(0.015625)"/>
       <path id="NimbusSanL-Regu-79" d="M 2483 3328 
L 1555 724 
L 698 3328 
L 128 3328 
L 1261 -29 
L 1056 -558 
C 973 -794 851 -884 627 -884 
C 550 -884 461 -871 346 -845 
L 346 -1325 
C 454 -1383 563 -1408 704 -1408 
C 877 -1408 1062 -1351 1203 -1248 
C 1370 -1127 1466 -986 1568 -718 
L 3059 3328 
L 2483 3328 
z
" transform="scale(0.015625)"/>
       <path id="NimbusSanL-Regu-6d" d="M 448 3328 
L 448 0 
L 986 0 
L 986 2089 
C 986 2597 1338 2988 1773 2988 
C 2170 2988 2394 2744 2394 2315 
L 2394 0 
L 2931 0 
L 2931 2109 
C 2931 2597 3283 2988 3718 2988 
C 4109 2988 4339 2738 4339 2315 
L 4339 0 
L 4877 0 
L 4877 2520 
C 4877 3123 4531 3456 3904 3456 
C 3456 3456 3187 3321 2874 2943 
C 2675 3302 2406 3456 1971 3456 
C 1523 3456 1229 3289 941 2886 
L 941 3328 
L 448 3328 
z
" transform="scale(0.015625)"/>
       <path id="NimbusSanL-Regu-63" d="M 3014 2237 
C 2989 2561 2918 2771 2790 2956 
C 2560 3270 2157 3456 1690 3456 
C 787 3456 198 2740 198 1632 
C 198 555 774 -128 1683 -128 
C 2483 -128 2989 352 3053 1167 
L 2515 1167 
C 2426 632 2150 364 1696 364 
C 1107 364 755 842 755 1632 
C 755 2466 1101 2963 1683 2963 
C 2131 2963 2413 2701 2477 2237 
L 3014 2237 
z
" transform="scale(0.015625)"/>
       <path id="NimbusSanL-Regu-43" d="M 4237 3219 
C 4051 4236 3462 4736 2438 4736 
C 1811 4736 1306 4537 960 4154 
C 538 3696 307 3035 307 2284 
C 307 1522 544 867 986 415 
C 1344 44 1805 -128 2413 -128 
C 3552 -128 4192 485 4333 1712 
L 3718 1712 
C 3667 1394 3603 1178 3507 994 
C 3315 612 2918 396 2419 396 
C 1491 396 902 1134 902 2291 
C 902 3480 1466 4211 2368 4211 
C 2746 4211 3098 4096 3290 3918 
C 3462 3759 3558 3562 3629 3219 
L 4237 3219 
z
" transform="scale(0.015625)"/>
       <path id="NimbusSanL-Regu-66" d="M 1651 3328 
L 1094 3328 
L 1094 3860 
C 1094 4087 1222 4204 1466 4204 
C 1510 4204 1530 4204 1651 4198 
L 1651 4639 
C 1530 4665 1459 4672 1350 4672 
C 858 4672 563 4390 563 3905 
L 563 3328 
L 115 3328 
L 115 2892 
L 563 2892 
L 563 0 
L 1094 0 
L 1094 2892 
L 1651 2892 
L 1651 3328 
z
" transform="scale(0.015625)"/>
       <path id="NimbusSanL-Regu-2" d="M 1613 3328 
L 1056 3328 
L 1056 3860 
C 1056 4087 1184 4204 1427 4204 
C 1472 4204 1491 4204 1613 4198 
L 1613 4639 
C 1491 4665 1421 4672 1312 4672 
C 819 4672 525 4390 525 3905 
L 525 3328 
L 77 3328 
L 77 2892 
L 525 2892 
L 525 0 
L 1056 0 
L 1056 2892 
L 1613 2892 
L 1613 3328 
z
M 2790 3328 
L 2259 3328 
L 2259 0 
L 2790 0 
L 2790 3328 
z
M 2790 4672 
L 2259 4672 
L 2259 3999 
L 2790 3999 
L 2790 4672 
z
" transform="scale(0.015625)"/>
       <path id="NimbusSanL-Regu-73" d="M 2803 2428 
C 2797 3084 2362 3456 1587 3456 
C 806 3456 301 3052 301 2434 
C 301 1912 570 1663 1363 1472 
L 1862 1351 
C 2234 1262 2381 1129 2381 887 
C 2381 574 2067 364 1600 364 
C 1312 364 1069 447 934 587 
C 851 683 813 778 781 1014 
L 218 1014 
C 243 243 678 -128 1555 -128 
C 2400 -128 2938 288 2938 931 
C 2938 1428 2656 1702 1990 1861 
L 1478 1982 
C 1043 2084 858 2224 858 2459 
C 858 2765 1133 2963 1568 2963 
C 1997 2963 2227 2778 2240 2428 
L 2803 2428 
z
" transform="scale(0.015625)"/>
       <path id="NimbusSanL-Regu-2d" d="M 1818 1996 
L 294 1996 
L 294 1536 
L 1818 1536 
L 1818 1996 
z
" transform="scale(0.015625)"/>
       <path id="NimbusSanL-Regu-42" d="M 506 0 
L 2611 0 
C 3053 0 3379 121 3629 390 
C 3859 632 3987 961 3987 1321 
C 3987 1878 3731 2214 3136 2444 
C 3558 2643 3782 2994 3782 3476 
C 3782 3821 3654 4127 3411 4345 
C 3168 4569 2848 4672 2400 4672 
L 506 4672 
L 506 0 
z
M 1101 2636 
L 1101 4147 
L 2253 4147 
C 2586 4147 2771 4101 2931 3977 
C 3098 3847 3187 3652 3187 3391 
C 3187 3138 3098 2936 2931 2806 
C 2771 2682 2586 2636 2253 2636 
L 1101 2636 
z
M 1101 524 
L 1101 2112 
L 2554 2112 
C 2842 2112 3034 2042 3174 1890 
C 3315 1745 3392 1542 3392 1315 
C 3392 1093 3315 891 3174 746 
C 3034 594 2842 524 2554 524 
L 1101 524 
z
" transform="scale(0.015625)"/>
       <path id="NimbusSanL-Regu-6c" d="M 973 4672 
L 435 4672 
L 435 0 
L 973 0 
L 973 4672 
z
" transform="scale(0.015625)"/>
       <path id="NimbusSanL-Regu-32" d="M 3238 556 
L 851 556 
C 909 928 1114 1165 1670 1493 
L 2310 1839 
C 2944 2185 3270 2653 3270 3211 
C 3270 3589 3117 3942 2848 4185 
C 2579 4428 2246 4544 1818 4544 
C 1242 4544 813 4339 563 3955 
C 403 3711 333 3429 320 2967 
L 883 2967 
C 902 3275 941 3461 1018 3608 
C 1165 3884 1459 4051 1798 4051 
C 2310 4051 2694 3685 2694 3198 
C 2694 2839 2483 2531 2080 2300 
L 1491 1967 
C 544 1428 269 999 218 0 
L 3238 0 
L 3238 556 
z
" transform="scale(0.015625)"/>
       <path id="NimbusSanL-Regu-30" d="M 1760 4544 
C 1338 4544 954 4358 717 4044 
C 422 3649 275 3043 275 2207 
C 275 683 787 -128 1760 -128 
C 2720 -128 3245 683 3245 2169 
C 3245 3049 3104 3636 2803 4044 
C 2566 4364 2189 4544 1760 4544 
z
M 1760 4044 
C 2368 4044 2669 3432 2669 2220 
C 2669 938 2374 339 1747 339 
C 1152 339 851 964 851 2201 
C 851 3438 1152 4044 1760 4044 
z
" transform="scale(0.015625)"/>
      </defs>
      <use xlink:href="#NimbusSanL-Regu-41" transform="scale(0.996264)"/>
      <use xlink:href="#NimbusSanL-Regu-65" transform="translate(66.450031 0) scale(0.996264)"/>
      <use xlink:href="#NimbusSanL-Regu-72" transform="translate(121.841708 0) scale(0.996264)"/>
      <use xlink:href="#NimbusSanL-Regu-6f" transform="translate(155.016938 0) scale(0.996264)"/>
      <use xlink:href="#NimbusSanL-Regu-64" transform="translate(210.408615 0) scale(0.996264)"/>
      <use xlink:href="#NimbusSanL-Regu-79" transform="translate(265.800292 0) scale(0.996264)"/>
      <use xlink:href="#NimbusSanL-Regu-6e" transform="translate(315.613492 0) scale(0.996264)"/>
      <use xlink:href="#NimbusSanL-Regu-61" transform="translate(371.005169 0) scale(0.996264)"/>
      <use xlink:href="#NimbusSanL-Regu-6d" transform="translate(426.396846 0) scale(0.996264)"/>
      <use xlink:href="#NimbusSanL-Regu-69" transform="translate(509.385276 0) scale(0.996264)"/>
      <use xlink:href="#NimbusSanL-Regu-63" transform="translate(531.502061 0) scale(0.996264)"/>
      <use xlink:href="#NimbusSanL-Regu-43" transform="translate(609.010431 0) scale(0.996264)"/>
      <use xlink:href="#NimbusSanL-Regu-6f" transform="translate(680.940416 0) scale(0.996264)"/>
      <use xlink:href="#NimbusSanL-Regu-65" transform="translate(736.332093 0) scale(0.996264)"/>
      <use xlink:href="#NimbusSanL-Regu-66" transform="translate(791.72377 0) scale(0.996264)"/>
      <use xlink:href="#NimbusSanL-Regu-2" transform="translate(819.418939 0) scale(0.996264)"/>
      <use xlink:href="#NimbusSanL-Regu-63" transform="translate(869.23214 0) scale(0.996264)"/>
      <use xlink:href="#NimbusSanL-Regu-69" transform="translate(919.04534 0) scale(0.996264)"/>
      <use xlink:href="#NimbusSanL-Regu-65" transform="translate(941.162125 0) scale(0.996264)"/>
      <use xlink:href="#NimbusSanL-Regu-6e" transform="translate(996.553802 0) scale(0.996264)"/>
      <use xlink:href="#NimbusSanL-Regu-74" transform="translate(1051.945479 0) scale(0.996264)"/>
      <use xlink:href="#NimbusSanL-Regu-73" transform="translate(1079.640648 0) scale(0.996264)"/>
      <use xlink:href="#NimbusSanL-Regu-2d" transform="translate(1157.149018 0) scale(0.996264)"/>
      <use xlink:href="#NimbusSanL-Regu-42" transform="translate(1218.019418 0) scale(0.996264)"/>
      <use xlink:href="#NimbusSanL-Regu-6c" transform="translate(1284.469449 0) scale(0.996264)"/>
      <use xlink:href="#NimbusSanL-Regu-61" transform="translate(1306.586233 0) scale(0.996264)"/>
      <use xlink:href="#NimbusSanL-Regu-64" transform="translate(1361.97791 0) scale(0.996264)"/>
      <use xlink:href="#NimbusSanL-Regu-65" transform="translate(1417.369587 0) scale(0.996264)"/>
      <use xlink:href="#NimbusSanL-Regu-32" transform="translate(1508.626829 0) scale(0.996264)"/>
      <use xlink:href="#NimbusSanL-Regu-30" transform="translate(1564.018506 0) scale(0.996264)"/>
      <path d="M 1478.738605 0 
L 1508.626829 0 
L 1508.626829 0.3985 
L 1478.738605 0.3985 
L 1478.738605 0 
z
"/>
     </g>
    </g>
   </g>
   <g id="line2d_16">
    <path d="M 55.552935 92.292577 
L 55.795891 18.449816 
L 55.85663 18.563 
L 56.038847 23.588406 
L 56.221065 27.479437 
L 56.403282 28.318978 
L 56.828456 32.955508 
L 57.071412 35.081378 
L 57.314369 40.142791 
L 57.557325 45.922105 
L 57.739542 47.434176 
L 57.982499 51.944259 
L 58.164716 59.721327 
L 58.346933 66.233244 
L 58.529151 69.30399 
L 58.711368 76.096839 
L 58.954324 96.231363 
L 59.136542 106.779851 
L 59.379498 109.656883 
L 59.683194 117.427443 
L 59.865411 119.814831 
L 60.108367 119.69856 
L 60.290585 119.351778 
L 60.472802 118.47185 
L 60.655019 116.263447 
L 60.897976 114.125509 
L 61.140932 113.469275 
L 61.383888 112.031985 
L 61.687584 109.889325 
L 61.93054 109.337552 
L 62.173497 108.058677 
L 62.537931 105.653827 
L 62.780888 104.888354 
L 63.023844 103.229766 
L 63.266801 101.634456 
L 63.509757 101.062826 
L 63.691974 100.115445 
L 63.874192 97.863334 
L 64.117148 94.363619 
L 64.360104 93.06247 
L 64.603061 90.177854 
L 65.028234 83.904166 
L 65.271191 83.16246 
L 65.696365 80.892601 
L 65.817843 81.099938 
L 66.00006 81.23035 
L 66.182277 81.679322 
L 66.364495 82.993155 
L 66.789668 87.323601 
L 66.971886 88.611673 
L 67.154103 91.262068 
L 67.33632 97.009996 
L 67.518538 100.781816 
L 67.761494 103.259602 
L 68.00445 109.384862 
L 68.247407 115.684431 
L 68.490363 117.942376 
L 68.73332 122.816135 
L 69.158493 132.49513 
L 69.40145 134.415654 
L 69.705145 138.814699 
L 69.948102 141.357251 
L 70.191058 142.114734 
L 70.494754 143.926527 
L 70.73771 145.185524 
L 71.223623 145.423284 
L 71.345101 145.268396 
L 71.466579 144.684534 
L 71.648797 143.980312 
L 71.891753 143.496667 
L 72.07397 142.611938 
L 72.256188 140.765644 
L 72.499144 138.330392 
L 72.7421 137.449005 
L 72.985057 135.364784 
L 73.228013 130.530038 
L 73.531709 122.730764 
L 73.713926 121.339672 
L 73.956882 117.226865 
L 74.442795 106.194421 
L 74.746491 104.247758 
L 74.989447 102.854385 
L 75.171664 103.136804 
L 75.353882 103.353668 
L 75.536099 103.963667 
L 75.718316 105.599904 
L 75.961273 108.146354 
L 76.204229 109.126106 
L 76.447186 111.52039 
L 76.690142 114.021421 
L 76.933098 114.923475 
L 77.176055 116.970074 
L 77.419011 118.927599 
L 77.661968 119.606486 
L 77.904924 121.064674 
L 78.451576 125.350517 
L 78.694532 126.253336 
L 79.241184 128.671934 
L 79.54488 129.30273 
L 79.970053 130.246382 
L 80.395227 130.180152 
L 80.577444 129.862875 
L 81.124096 128.085033 
L 81.306314 127.283276 
L 81.488531 125.605304 
L 81.731487 123.356947 
L 81.974444 122.54162 
L 82.2174 120.683716 
L 82.824791 114.167252 
L 83.007008 114.264836 
L 83.310704 114.465529 
L 83.492921 114.898311 
L 83.857356 116.248398 
L 84.100312 116.744182 
L 84.28253 117.602271 
L 84.646964 119.484535 
L 84.889921 120.061931 
L 85.132877 121.345699 
L 85.436572 123.2328 
L 85.679529 123.667738 
L 85.983224 124.760716 
L 86.226181 125.340744 
L 86.590615 125.244262 
L 86.772833 124.998143 
L 86.95505 124.34202 
L 87.319485 122.638472 
L 87.562441 122.306293 
L 87.805397 121.550053 
L 88.169832 120.325861 
L 88.412788 119.925367 
L 88.655745 119.005979 
L 88.898701 118.213771 
L 89.202397 117.862813 
L 89.445353 117.226819 
L 89.809788 116.275707 
L 90.234961 116.010194 
L 90.477918 115.947526 
L 90.720874 116.470951 
L 90.963831 116.92225 
L 91.389004 117.095979 
L 92.178613 117.565677 
L 93.575612 118.163823 
L 94.061525 118.069134 
L 95.154829 117.386552 
L 96.187393 117.356446 
L 96.491089 117.535003 
L 96.673306 117.858197 
L 96.916263 118.279533 
L 97.219958 118.508034 
L 97.462915 118.949255 
L 97.705871 119.388491 
L 98.009566 119.621304 
L 98.252523 120.096675 
L 98.556218 120.683956 
L 98.920653 120.917123 
L 99.345827 121.275103 
L 99.528044 121.094388 
L 99.831739 120.355387 
L 100.49987 118.474016 
L 100.682087 118.443273 
L 100.864304 118.697063 
L 101.228739 119.794674 
L 101.714652 121.219659 
L 101.957608 121.417732 
L 102.261304 121.360558 
L 102.564999 121.221283 
L 102.747216 120.906884 
L 102.929434 120.668991 
L 103.233129 120.445784 
L 103.476086 119.95757 
L 103.84052 119.07254 
L 104.144216 118.861266 
L 104.751607 118.299278 
L 105.298259 118.265555 
L 105.480476 118.349638 
L 105.90565 118.530922 
L 106.148606 118.894193 
L 106.391562 119.163918 
L 106.816736 119.374994 
L 107.181171 119.574464 
L 107.788562 119.521793 
L 108.152996 119.344671 
L 108.517431 119.124668 
L 108.881866 118.80741 
L 109.2463 118.620953 
L 109.792952 118.218783 
L 110.6433 118.157039 
L 111.007734 118.304307 
L 111.432908 118.608386 
L 111.736603 118.793444 
L 111.97956 119.172347 
L 112.161777 119.335924 
L 112.526212 119.5111 
L 113.255081 120.047442 
L 114.105428 120.04834 
L 114.530602 119.911729 
L 114.834297 119.770394 
L 115.259471 119.614462 
L 115.684645 119.420223 
L 116.170558 119.233951 
L 116.474253 119.137736 
L 118.174948 119.083919 
L 118.7216 119.214758 
L 118.964556 119.269628 
L 119.511208 119.435128 
L 119.875643 119.592052 
L 120.422295 119.766273 
L 120.72599 119.816702 
L 122.548163 119.896128 
L 123.580728 119.648509 
L 124.248858 119.46206 
L 125.524379 119.287525 
L 127.771726 119.313689 
L 128.986508 119.114911 
L 129.53316 119.041048 
L 130.747942 119.062456 
L 131.719768 119.251426 
L 132.448637 119.390359 
L 132.813071 119.434609 
L 134.93894 119.52756 
L 136.396678 119.47297 
L 138.34033 119.562696 
L 139.798068 119.535954 
L 142.713545 119.375933 
L 144.110544 119.5069 
L 145.203848 119.571122 
L 146.722326 119.457561 
L 147.511934 119.36139 
L 148.848194 119.309429 
L 153.221409 119.445902 
L 154.982843 119.52069 
L 163.3041 119.44632 
L 170.653532 119.456606 
L 185.291655 119.445994 
L 359.916571 119.459888 
L 359.916571 119.459888 
" clip-path="url(#p2b1b3f243e)" style="fill: none; stroke: #1f77b4; stroke-width: 1.5; stroke-linecap: square"/>
   </g>
   <g id="line2d_17">
    <path d="M 55.552935 168.007911 
L 55.795891 220.049816 
L 55.85663 219.894608 
L 56.221065 215.505483 
L 56.281804 215.761903 
L 56.464021 216.280756 
L 56.828456 216.3258 
L 57.314369 216.377315 
L 57.982499 214.847889 
L 58.103977 213.824075 
L 58.407672 209.867662 
L 58.58989 208.07416 
L 58.772107 203.607552 
L 59.015063 189.121521 
L 59.197281 183.80779 
L 59.379498 181.014964 
L 59.622454 172.271221 
L 59.92615 161.588975 
L 60.229845 160.872708 
L 60.655019 159.056893 
L 60.837236 158.43491 
L 61.080193 158.308256 
L 61.323149 157.91843 
L 61.809062 157.037293 
L 62.052019 156.673238 
L 62.234236 155.978129 
L 62.477192 154.943359 
L 62.720149 154.557924 
L 62.963105 153.602202 
L 63.206061 152.830433 
L 63.570496 152.884932 
L 63.691974 153.103 
L 63.813452 153.840178 
L 64.299365 158.808984 
L 64.542322 161.369757 
L 64.785278 166.737043 
L 65.028234 171.648909 
L 65.210452 172.755884 
L 65.453408 175.962675 
L 65.939321 183.651736 
L 66.243016 184.919538 
L 66.485973 185.911761 
L 66.66819 185.835263 
L 66.911147 185.676731 
L 67.093364 185.189165 
L 67.214842 184.31348 
L 67.579277 180.480818 
L 67.761494 179.463804 
L 67.943711 177.341569 
L 68.308146 172.342702 
L 68.551102 170.675742 
L 68.794059 166.832829 
L 69.097754 160.860153 
L 69.340711 159.3445 
L 69.583667 156.080896 
L 70.008841 148.986059 
L 70.251797 147.357869 
L 70.555493 143.125627 
L 70.73771 140.911593 
L 71.041405 140.228493 
L 71.40584 139.211486 
L 71.466579 139.318296 
L 71.648797 139.720509 
L 71.891753 140.053638 
L 72.07397 140.736599 
L 72.256188 142.315184 
L 72.499144 144.521662 
L 72.7421 145.332947 
L 72.985057 147.280294 
L 73.228013 151.699404 
L 73.531709 158.145547 
L 73.713926 159.231128 
L 73.956882 162.394531 
L 74.442795 170.62602 
L 74.746491 172.029184 
L 74.989447 172.943746 
L 75.171664 172.772374 
L 75.414621 172.566816 
L 75.596838 172.097623 
L 75.779055 170.85389 
L 75.961273 169.956619 
L 76.204229 169.383555 
L 76.447186 167.932606 
L 76.690142 166.366008 
L 76.933098 165.791603 
L 77.176055 164.438029 
L 77.419011 163.087772 
L 77.661968 162.61217 
L 77.904924 161.562171 
L 78.14788 159.428612 
L 78.330098 158.563615 
L 78.573054 158.087812 
L 78.87675 156.859317 
L 79.119706 156.144191 
L 79.484141 155.804314 
L 79.848575 155.471814 
L 80.030792 155.572394 
L 80.334488 155.71396 
L 80.516705 155.9874 
L 80.698923 156.691784 
L 80.88114 157.196628 
L 81.124096 157.519174 
L 81.367053 158.32871 
L 81.852966 160.624626 
L 82.095922 161.350153 
L 82.338878 162.887512 
L 82.764052 165.843159 
L 82.88553 165.796633 
L 83.249965 165.66486 
L 83.432182 165.414918 
L 83.614399 164.711851 
L 83.796617 164.280455 
L 84.039573 164.000554 
L 84.28253 163.273686 
L 84.586225 162.067254 
L 84.829181 161.766055 
L 85.072138 161.115059 
L 85.497312 159.806237 
L 85.801007 159.423677 
L 86.408398 158.448127 
L 86.894311 158.49459 
L 87.076528 158.821112 
L 87.319485 159.241749 
L 87.62318 159.474967 
L 87.866137 159.948884 
L 88.109093 160.383331 
L 88.412788 160.59234 
L 88.716484 161.112738 
L 88.898701 161.273205 
L 89.384614 161.511571 
L 89.809788 161.752188 
L 90.477918 161.696883 
L 91.085309 161.261374 
L 92.117874 161.272563 
L 93.454134 161.359281 
L 94.183003 161.242654 
L 94.425959 161.199045 
L 96.369611 161.137375 
L 96.734045 161.347854 
L 96.977002 161.405916 
L 98.009566 161.402318 
L 98.252523 161.238975 
L 98.616957 160.837251 
L 98.920653 160.648188 
L 99.224348 160.152043 
L 99.528044 159.777177 
L 99.710261 159.806456 
L 99.953218 160.156449 
L 100.925043 162.167477 
L 101.107261 161.954799 
L 101.410956 161.136801 
L 102.018347 159.461482 
L 102.747216 159.442953 
L 102.929434 159.55633 
L 103.293868 159.733307 
L 103.536825 160.155481 
L 103.84052 160.749189 
L 104.144216 160.945168 
L 104.812346 161.562585 
L 105.419737 161.637045 
L 105.90565 161.485229 
L 106.148606 161.125897 
L 106.391562 160.818985 
L 106.755997 160.616946 
L 107.302649 160.207903 
L 108.031518 160.175875 
L 108.456692 160.300683 
L 109.792952 161.241907 
L 110.886256 161.444133 
L 111.129212 161.318503 
L 111.31143 161.236177 
L 111.736603 161.093022 
L 113.012124 160.247875 
L 114.226906 160.320888 
L 114.591341 160.482614 
L 114.834297 160.551452 
L 115.380949 160.732338 
L 115.623906 160.783469 
L 119.450469 161.040052 
L 122.487424 160.418322 
L 123.519989 160.494786 
L 125.706597 160.87021 
L 127.285813 160.748452 
L 128.136161 160.715937 
L 130.504986 160.847867 
L 132.084202 160.829617 
L 135.728548 160.731596 
L 137.247026 160.757622 
L 140.587676 160.760496 
L 143.01724 160.854819 
L 144.292762 160.688438 
L 144.778674 160.650958 
L 146.297152 160.618708 
L 148.301542 160.795496 
L 150.002237 160.801319 
L 153.282149 160.740926 
L 157.351668 160.762413 
L 193.73439 160.749036 
L 216.147118 160.750675 
L 359.916571 160.752965 
L 359.916571 160.752965 
" clip-path="url(#p2b1b3f243e)" style="fill: none; stroke: #ff7f0e; stroke-width: 1.5; stroke-linecap: square"/>
   </g>
   <g id="patch_3">
    <path d="M 40.334753 230.129816 
L 40.334753 8.369816 
" style="fill: none; stroke: #000000; stroke-width: 0.8; stroke-linejoin: miter; stroke-linecap: square"/>
   </g>
   <g id="patch_4">
    <path d="M 375.134753 230.129816 
L 375.134753 8.369816 
" style="fill: none; stroke: #000000; stroke-width: 0.8; stroke-linejoin: miter; stroke-linecap: square"/>
   </g>
   <g id="patch_5">
    <path d="M 40.334753 230.129816 
L 375.134753 230.129816 
" style="fill: none; stroke: #000000; stroke-width: 0.8; stroke-linejoin: miter; stroke-linecap: square"/>
   </g>
   <g id="patch_6">
    <path d="M 40.334753 8.369816 
L 375.134753 8.369816 
" style="fill: none; stroke: #000000; stroke-width: 0.8; stroke-linejoin: miter; stroke-linecap: square"/>
   </g>
   <g id="legend_1">
    <g id="patch_7">
     <path d="M 321.748759 44.810429 
L 368.134753 44.810429 
Q 370.134753 44.810429 370.134753 42.810429 
L 370.134753 15.369816 
Q 370.134753 13.369816 368.134753 13.369816 
L 321.748759 13.369816 
Q 319.748759 13.369816 319.748759 15.369816 
L 319.748759 42.810429 
Q 319.748759 44.810429 321.748759 44.810429 
z
" style="fill: #ffffff; opacity: 0.8; stroke: #cccccc; stroke-linejoin: miter"/>
    </g>
    <g id="line2d_18">
     <path d="M 323.748759 20.968136 
L 333.748759 20.968136 
L 343.748759 20.968136 
" style="fill: none; stroke: #1f77b4; stroke-width: 1.5; stroke-linecap: square"/>
    </g>
    <g id="text_18">
     <!-- CD -->
     <g transform="translate(351.748759 24.468136) scale(0.1 -0.1)">
      <defs>
       <path id="NimbusSanL-Regu-44" d="M 570 0 
L 2368 0 
C 3546 0 4269 883 4269 2339 
C 4269 3788 3552 4672 2368 4672 
L 570 4672 
L 570 0 
z
M 1165 524 
L 1165 4147 
L 2266 4147 
C 3187 4147 3674 3525 3674 2332 
C 3674 1153 3187 524 2266 524 
L 1165 524 
z
" transform="scale(0.015625)"/>
      </defs>
      <use xlink:href="#NimbusSanL-Regu-43" transform="scale(0.996264)"/>
      <use xlink:href="#NimbusSanL-Regu-44" transform="translate(71.929985 0) scale(0.996264)"/>
     </g>
    </g>
    <g id="line2d_19">
     <path d="M 323.748759 35.188443 
L 333.748759 35.188443 
L 343.748759 35.188443 
" style="fill: none; stroke: #ff7f0e; stroke-width: 1.5; stroke-linecap: square"/>
    </g>
    <g id="text_19">
     <!-- CL -->
     <g transform="translate(351.748759 38.688443) scale(0.1 -0.1)">
      <defs>
       <path id="NimbusSanL-Regu-4c" d="M 1107 4672 
L 512 4672 
L 512 0 
L 3411 0 
L 3411 524 
L 1107 524 
L 1107 4672 
z
" transform="scale(0.015625)"/>
      </defs>
      <use xlink:href="#NimbusSanL-Regu-43" transform="scale(0.996264)"/>
      <use xlink:href="#NimbusSanL-Regu-4c" transform="translate(71.929985 0) scale(0.996264)"/>
     </g>
    </g>
   </g>
  </g>
 </g>
 <defs>
  <clipPath id="p2b1b3f243e">
   <rect x="40.334753" y="8.369816" width="334.8" height="221.76"/>
  </clipPath>
 </defs>
</svg>
