<?xml version="1.0" encoding="utf-8" standalone="no"?>
<!DOCTYPE svg PUBLIC "-//W3C//DTD SVG 1.1//EN"
  "http://www.w3.org/Graphics/SVG/1.1/DTD/svg11.dtd">
<svg xmlns:xlink="http://www.w3.org/1999/xlink" width="379.567344pt" height="265.600613pt" viewBox="0 0 379.567344 265.600613" xmlns="http://www.w3.org/2000/svg" version="1.1">
 <metadata>
  <rdf:RDF xmlns:dc="http://purl.org/dc/elements/1.1/" xmlns:cc="http://creativecommons.org/ns#" xmlns:rdf="http://www.w3.org/1999/02/22-rdf-syntax-ns#">
   <cc:Work>
    <dc:type rdf:resource="http://purl.org/dc/dcmitype/StillImage"/>
    <dc:date>2025-07-17T21:33:17.664004</dc:date>
    <dc:format>image/svg+xml</dc:format>
    <dc:creator>
     <cc:Agent>
      <dc:title>Matplotlib v3.10.3, https://matplotlib.org/</dc:title>
     </cc:Agent>
    </dc:creator>
   </cc:Work>
  </rdf:RDF>
 </metadata>
 <defs>
  <style type="text/css">*{stroke-linejoin: round; stroke-linecap: butt}</style>
 </defs>
 <g id="figure_1">
  <g id="patch_1">
   <path d="M 0 265.600613 
L 379.567344 265.600613 
L 379.567344 0 
L 0 0 
z
" style="fill: #ffffff"/>
  </g>
  <g id="axes_1">
   <g id="patch_2">
    <path d="M 37.567344 228.96 
L 372.367344 228.96 
L 372.367344 7.2 
L 37.567344 7.2 
z
" style="fill: #ffffff"/>
   </g>
   <g id="matplotlib.axis_1">
    <g id="xtick_1">
     <g id="line2d_1">
      <defs>
       <path id="mbe76521f4e" d="M 0 0 
L 0 3.5 
" style="stroke: #000000; stroke-width: 0.8"/>
      </defs>
      <g>
       <use xlink:href="#mbe76521f4e" x="52.785526" y="228.96" style="stroke: #000000; stroke-width: 0.8"/>
      </g>
     </g>
     <g id="text_1">
      <!-- $\mathdefault{0}$ -->
      <g transform="translate(50.294859 243.05832) scale(0.1 -0.1)">
       <defs>
        <path id="CMR17-30" d="M 2688 2038 
C 2688 2430 2682 3099 2413 3613 
C 2176 4063 1798 4224 1466 4224 
C 1158 4224 768 4082 525 3620 
C 269 3137 243 2539 243 2038 
C 243 1671 250 1112 448 623 
C 723 -39 1216 -128 1466 -128 
C 1760 -128 2208 -7 2470 604 
C 2662 1048 2688 1568 2688 2038 
z
M 1466 -26 
C 1056 -26 813 328 723 816 
C 653 1196 653 1749 653 2109 
C 653 2604 653 3015 736 3407 
C 858 3954 1216 4121 1466 4121 
C 1728 4121 2067 3947 2189 3420 
C 2272 3054 2278 2623 2278 2109 
C 2278 1691 2278 1176 2202 797 
C 2067 96 1690 -26 1466 -26 
z
" transform="scale(0.015625)"/>
       </defs>
       <use xlink:href="#CMR17-30" transform="scale(0.996264)"/>
      </g>
     </g>
    </g>
    <g id="xtick_2">
     <g id="line2d_2">
      <g>
       <use xlink:href="#mbe76521f4e" x="113.524627" y="228.96" style="stroke: #000000; stroke-width: 0.8"/>
      </g>
     </g>
     <g id="text_2">
      <!-- $\mathdefault{1000}$ -->
      <g transform="translate(103.561957 243.05832) scale(0.1 -0.1)">
       <defs>
        <path id="CMR17-31" d="M 1702 4083 
C 1702 4217 1696 4224 1606 4224 
C 1357 3927 979 3833 621 3820 
C 602 3820 570 3820 563 3808 
C 557 3795 557 3782 557 3648 
C 755 3648 1088 3686 1344 3839 
L 1344 467 
C 1344 243 1331 166 781 166 
L 589 166 
L 589 0 
C 896 6 1216 12 1523 12 
C 1830 12 2150 6 2458 0 
L 2458 166 
L 2266 166 
C 1715 166 1702 236 1702 467 
L 1702 4083 
z
" transform="scale(0.015625)"/>
       </defs>
       <use xlink:href="#CMR17-31" transform="scale(0.996264)"/>
       <use xlink:href="#CMR17-30" transform="translate(45.690477 0) scale(0.996264)"/>
       <use xlink:href="#CMR17-30" transform="translate(91.380954 0) scale(0.996264)"/>
       <use xlink:href="#CMR17-30" transform="translate(137.071431 0) scale(0.996264)"/>
      </g>
     </g>
    </g>
    <g id="xtick_3">
     <g id="line2d_3">
      <g>
       <use xlink:href="#mbe76521f4e" x="174.263729" y="228.96" style="stroke: #000000; stroke-width: 0.8"/>
      </g>
     </g>
     <g id="text_3">
      <!-- $\mathdefault{2000}$ -->
      <g transform="translate(164.301058 243.05832) scale(0.1 -0.1)">
       <defs>
        <path id="CMR17-32" d="M 2669 990 
L 2554 990 
C 2490 537 2438 460 2413 422 
C 2381 371 1920 371 1830 371 
L 602 371 
C 832 620 1280 1073 1824 1596 
C 2214 1966 2669 2400 2669 3033 
C 2669 3788 2067 4224 1395 4224 
C 691 4224 262 3603 262 3027 
C 262 2777 448 2745 525 2745 
C 589 2745 781 2783 781 3007 
C 781 3206 614 3264 525 3264 
C 486 3264 448 3257 422 3244 
C 544 3788 915 4057 1306 4057 
C 1862 4057 2227 3616 2227 3033 
C 2227 2477 1901 1998 1536 1583 
L 262 147 
L 262 0 
L 2515 0 
L 2669 990 
z
" transform="scale(0.015625)"/>
       </defs>
       <use xlink:href="#CMR17-32" transform="scale(0.996264)"/>
       <use xlink:href="#CMR17-30" transform="translate(45.690477 0) scale(0.996264)"/>
       <use xlink:href="#CMR17-30" transform="translate(91.380954 0) scale(0.996264)"/>
       <use xlink:href="#CMR17-30" transform="translate(137.071431 0) scale(0.996264)"/>
      </g>
     </g>
    </g>
    <g id="xtick_4">
     <g id="line2d_4">
      <g>
       <use xlink:href="#mbe76521f4e" x="235.00283" y="228.96" style="stroke: #000000; stroke-width: 0.8"/>
      </g>
     </g>
     <g id="text_4">
      <!-- $\mathdefault{3000}$ -->
      <g transform="translate(225.040159 243.05832) scale(0.1 -0.1)">
       <defs>
        <path id="CMR17-33" d="M 1414 2176 
C 1984 2176 2234 1673 2234 1094 
C 2234 322 1824 25 1453 25 
C 1114 25 563 193 390 691 
C 422 678 454 678 486 678 
C 640 678 755 780 755 947 
C 755 1132 614 1216 486 1216 
C 378 1216 211 1164 211 927 
C 211 335 787 -128 1466 -128 
C 2176 -128 2720 432 2720 1087 
C 2720 1718 2208 2176 1600 2246 
C 2086 2347 2554 2776 2554 3353 
C 2554 3856 2048 4224 1472 4224 
C 890 4224 378 3862 378 3347 
C 378 3123 544 3084 627 3084 
C 762 3084 877 3167 877 3334 
C 877 3500 762 3584 627 3584 
C 602 3584 570 3584 544 3571 
C 730 3999 1235 4076 1459 4076 
C 1683 4076 2106 3966 2106 3347 
C 2106 3167 2080 2851 1862 2574 
C 1670 2329 1453 2316 1242 2297 
C 1210 2297 1062 2284 1037 2284 
C 992 2278 966 2272 966 2227 
C 966 2182 973 2176 1101 2176 
L 1414 2176 
z
" transform="scale(0.015625)"/>
       </defs>
       <use xlink:href="#CMR17-33" transform="scale(0.996264)"/>
       <use xlink:href="#CMR17-30" transform="translate(45.690477 0) scale(0.996264)"/>
       <use xlink:href="#CMR17-30" transform="translate(91.380954 0) scale(0.996264)"/>
       <use xlink:href="#CMR17-30" transform="translate(137.071431 0) scale(0.996264)"/>
      </g>
     </g>
    </g>
    <g id="xtick_5">
     <g id="line2d_5">
      <g>
       <use xlink:href="#mbe76521f4e" x="295.741931" y="228.96" style="stroke: #000000; stroke-width: 0.8"/>
      </g>
     </g>
     <g id="text_5">
      <!-- $\mathdefault{4000}$ -->
      <g transform="translate(285.779261 243.05832) scale(0.1 -0.1)">
       <defs>
        <path id="CMR17-34" d="M 2150 4147 
C 2150 4281 2144 4288 2029 4288 
L 128 1254 
L 128 1088 
L 1779 1088 
L 1779 460 
C 1779 230 1766 166 1318 166 
L 1197 166 
L 1197 0 
C 1402 12 1747 12 1965 12 
C 2182 12 2528 12 2733 0 
L 2733 166 
L 2611 166 
C 2163 166 2150 230 2150 460 
L 2150 1088 
L 2803 1088 
L 2803 1254 
L 2150 1254 
L 2150 4147 
z
M 1798 3723 
L 1798 1254 
L 256 1254 
L 1798 3723 
z
" transform="scale(0.015625)"/>
       </defs>
       <use xlink:href="#CMR17-34" transform="scale(0.996264)"/>
       <use xlink:href="#CMR17-30" transform="translate(45.690477 0) scale(0.996264)"/>
       <use xlink:href="#CMR17-30" transform="translate(91.380954 0) scale(0.996264)"/>
       <use xlink:href="#CMR17-30" transform="translate(137.071431 0) scale(0.996264)"/>
      </g>
     </g>
    </g>
    <g id="xtick_6">
     <g id="line2d_6">
      <g>
       <use xlink:href="#mbe76521f4e" x="356.481032" y="228.96" style="stroke: #000000; stroke-width: 0.8"/>
      </g>
     </g>
     <g id="text_6">
      <!-- $\mathdefault{5000}$ -->
      <g transform="translate(346.518362 243.05832) scale(0.1 -0.1)">
       <defs>
        <path id="CMR17-35" d="M 730 3750 
C 794 3724 1056 3641 1325 3641 
C 1920 3641 2246 3961 2432 4140 
C 2432 4191 2432 4224 2394 4224 
C 2387 4224 2374 4224 2323 4198 
C 2099 4102 1837 4032 1517 4032 
C 1325 4032 1037 4055 723 4191 
C 653 4224 640 4224 634 4224 
C 602 4224 595 4217 595 4090 
L 595 2231 
C 595 2113 595 2080 659 2080 
C 691 2080 704 2093 736 2139 
C 941 2435 1222 2560 1542 2560 
C 1766 2560 2246 2415 2246 1293 
C 2246 1087 2246 716 2054 422 
C 1894 159 1645 25 1370 25 
C 947 25 518 319 403 812 
C 429 806 480 793 506 793 
C 589 793 749 838 749 1036 
C 749 1209 627 1280 506 1280 
C 358 1280 262 1190 262 1011 
C 262 454 704 -128 1382 -128 
C 2042 -128 2669 441 2669 1267 
C 2669 2054 2170 2662 1549 2662 
C 1222 2662 947 2540 730 2304 
L 730 3750 
z
" transform="scale(0.015625)"/>
       </defs>
       <use xlink:href="#CMR17-35" transform="scale(0.996264)"/>
       <use xlink:href="#CMR17-30" transform="translate(45.690477 0) scale(0.996264)"/>
       <use xlink:href="#CMR17-30" transform="translate(91.380954 0) scale(0.996264)"/>
       <use xlink:href="#CMR17-30" transform="translate(137.071431 0) scale(0.996264)"/>
      </g>
     </g>
    </g>
    <g id="text_7">
     <!-- Iteration -->
     <g transform="translate(187.019968 256.278627) scale(0.1 -0.1)">
      <defs>
       <path id="NimbusSanL-Regu-49" d="M 1242 4672 
L 640 4672 
L 640 0 
L 1242 0 
L 1242 4672 
z
" transform="scale(0.015625)"/>
       <path id="NimbusSanL-Regu-74" d="M 1626 3328 
L 1075 3328 
L 1075 4249 
L 544 4249 
L 544 3328 
L 90 3328 
L 90 2892 
L 544 2892 
L 544 402 
C 544 64 774 -128 1190 -128 
C 1318 -128 1446 -116 1626 -84 
L 1626 364 
C 1555 345 1472 339 1370 339 
C 1139 339 1075 402 1075 634 
L 1075 2892 
L 1626 2892 
L 1626 3328 
z
" transform="scale(0.015625)"/>
       <path id="NimbusSanL-Regu-65" d="M 3283 1484 
C 3283 1998 3245 2311 3149 2565 
C 2931 3123 2419 3456 1792 3456 
C 858 3456 256 2734 256 1619 
C 256 545 838 -128 1779 -128 
C 2547 -128 3078 307 3213 1018 
L 2675 1018 
C 2528 588 2227 364 1798 364 
C 1459 364 1171 514 992 787 
C 864 974 819 1161 813 1484 
L 3283 1484 
z
M 826 1920 
C 870 2552 1248 2963 1786 2963 
C 2310 2963 2714 2519 2714 1959 
C 2714 1946 2714 1933 2707 1920 
L 826 1920 
z
" transform="scale(0.015625)"/>
       <path id="NimbusSanL-Regu-72" d="M 442 3328 
L 442 0 
L 979 0 
L 979 1727 
C 979 2203 1101 2514 1357 2698 
C 1523 2819 1683 2857 2054 2863 
L 2054 3404 
C 1965 3449 1920 3456 1850 3456 
C 1504 3456 1242 3251 934 2750 
L 934 3328 
L 442 3328 
z
" transform="scale(0.015625)"/>
       <path id="NimbusSanL-Regu-61" d="M 3424 332 
C 3366 320 3341 320 3309 320 
C 3123 320 3021 415 3021 581 
L 3021 2542 
C 3021 3135 2586 3456 1760 3456 
C 1274 3456 870 3315 646 3065 
C 493 2893 429 2702 416 2370 
L 954 2370 
C 998 2778 1242 2963 1741 2963 
C 2221 2963 2490 2784 2490 2466 
L 2490 2326 
C 2490 2103 2355 2007 1933 1956 
C 1178 1861 1062 1835 858 1753 
C 467 1593 269 1294 269 861 
C 269 256 691 -128 1370 -128 
C 1792 -128 2131 19 2509 364 
C 2547 25 2714 -128 3059 -128 
C 3168 -128 3251 -116 3424 -71 
L 3424 332 
z
M 2490 1071 
C 2490 893 2438 785 2278 638 
C 2061 441 1798 339 1485 339 
C 1069 339 826 536 826 874 
C 826 1224 1062 1402 1632 1485 
C 2195 1562 2310 1587 2490 1670 
L 2490 1071 
z
" transform="scale(0.015625)"/>
       <path id="NimbusSanL-Regu-69" d="M 960 3358 
L 429 3358 
L 429 0 
L 960 0 
L 960 3358 
z
M 960 4672 
L 422 4672 
L 422 3999 
L 960 3999 
L 960 4672 
z
" transform="scale(0.015625)"/>
       <path id="NimbusSanL-Regu-6f" d="M 1741 3456 
C 800 3456 230 2784 230 1663 
C 230 543 794 -128 1747 -128 
C 2688 -128 3264 543 3264 1638 
C 3264 2791 2707 3456 1741 3456 
z
M 1747 2963 
C 2349 2963 2707 2472 2707 1644 
C 2707 861 2336 364 1747 364 
C 1152 364 787 855 787 1663 
C 787 2466 1152 2963 1747 2963 
z
" transform="scale(0.015625)"/>
       <path id="NimbusSanL-Regu-6e" d="M 448 3328 
L 448 0 
L 986 0 
L 986 1835 
C 986 2539 1344 2988 1894 2988 
C 2317 2988 2586 2732 2586 2328 
L 2586 0 
L 3117 0 
L 3117 2539 
C 3117 3097 2701 3456 2054 3456 
C 1555 3456 1235 3263 941 2796 
L 941 3328 
L 448 3328 
z
" transform="scale(0.015625)"/>
      </defs>
      <use xlink:href="#NimbusSanL-Regu-49" transform="scale(0.996264)"/>
      <use xlink:href="#NimbusSanL-Regu-74" transform="translate(27.69517 0) scale(0.996264)"/>
      <use xlink:href="#NimbusSanL-Regu-65" transform="translate(55.390339 0) scale(0.996264)"/>
      <use xlink:href="#NimbusSanL-Regu-72" transform="translate(110.782016 0) scale(0.996264)"/>
      <use xlink:href="#NimbusSanL-Regu-61" transform="translate(142.961149 0) scale(0.996264)"/>
      <use xlink:href="#NimbusSanL-Regu-74" transform="translate(198.352826 0) scale(0.996264)"/>
      <use xlink:href="#NimbusSanL-Regu-69" transform="translate(226.047996 0) scale(0.996264)"/>
      <use xlink:href="#NimbusSanL-Regu-6f" transform="translate(248.16478 0) scale(0.996264)"/>
      <use xlink:href="#NimbusSanL-Regu-6e" transform="translate(303.556457 0) scale(0.996264)"/>
     </g>
    </g>
   </g>
   <g id="matplotlib.axis_2">
    <g id="ytick_1">
     <g id="line2d_7">
      <defs>
       <path id="m4874dfc7ce" d="M 0 0 
L -3.5 0 
" style="stroke: #000000; stroke-width: 0.8"/>
      </defs>
      <g>
       <use xlink:href="#m4874dfc7ce" x="37.567344" y="219.59198" style="stroke: #000000; stroke-width: 0.8"/>
      </g>
     </g>
     <g id="text_8">
      <!-- $\mathdefault{0}$ -->
      <g transform="translate(25.586009 223.14114) scale(0.1 -0.1)">
       <use xlink:href="#CMR17-30" transform="scale(0.996264)"/>
      </g>
     </g>
    </g>
    <g id="ytick_2">
     <g id="line2d_8">
      <g>
       <use xlink:href="#m4874dfc7ce" x="37.567344" y="183.992999" style="stroke: #000000; stroke-width: 0.8"/>
      </g>
     </g>
     <g id="text_9">
      <!-- $\mathdefault{5}$ -->
      <g transform="translate(25.586009 187.542159) scale(0.1 -0.1)">
       <use xlink:href="#CMR17-35" transform="scale(0.996264)"/>
      </g>
     </g>
    </g>
    <g id="ytick_3">
     <g id="line2d_9">
      <g>
       <use xlink:href="#m4874dfc7ce" x="37.567344" y="148.394019" style="stroke: #000000; stroke-width: 0.8"/>
      </g>
     </g>
     <g id="text_10">
      <!-- $\mathdefault{10}$ -->
      <g transform="translate(20.604674 151.943179) scale(0.1 -0.1)">
       <use xlink:href="#CMR17-31" transform="scale(0.996264)"/>
       <use xlink:href="#CMR17-30" transform="translate(45.690477 0) scale(0.996264)"/>
      </g>
     </g>
    </g>
    <g id="ytick_4">
     <g id="line2d_10">
      <g>
       <use xlink:href="#m4874dfc7ce" x="37.567344" y="112.795038" style="stroke: #000000; stroke-width: 0.8"/>
      </g>
     </g>
     <g id="text_11">
      <!-- $\mathdefault{15}$ -->
      <g transform="translate(20.604674 116.344199) scale(0.1 -0.1)">
       <use xlink:href="#CMR17-31" transform="scale(0.996264)"/>
       <use xlink:href="#CMR17-35" transform="translate(45.690477 0) scale(0.996264)"/>
      </g>
     </g>
    </g>
    <g id="ytick_5">
     <g id="line2d_11">
      <g>
       <use xlink:href="#m4874dfc7ce" x="37.567344" y="77.196058" style="stroke: #000000; stroke-width: 0.8"/>
      </g>
     </g>
     <g id="text_12">
      <!-- $\mathdefault{20}$ -->
      <g transform="translate(20.604674 80.745218) scale(0.1 -0.1)">
       <use xlink:href="#CMR17-32" transform="scale(0.996264)"/>
       <use xlink:href="#CMR17-30" transform="translate(45.690477 0) scale(0.996264)"/>
      </g>
     </g>
    </g>
    <g id="ytick_6">
     <g id="line2d_12">
      <g>
       <use xlink:href="#m4874dfc7ce" x="37.567344" y="41.597078" style="stroke: #000000; stroke-width: 0.8"/>
      </g>
     </g>
     <g id="text_13">
      <!-- $\mathdefault{25}$ -->
      <g transform="translate(20.604674 45.146238) scale(0.1 -0.1)">
       <use xlink:href="#CMR17-32" transform="scale(0.996264)"/>
       <use xlink:href="#CMR17-35" transform="translate(45.690477 0) scale(0.996264)"/>
      </g>
     </g>
    </g>
    <g id="text_14">
     <!-- Average CFL - Blade_20 -->
     <g transform="translate(14.482687 171.548902) rotate(-90) scale(0.1 -0.1)">
      <defs>
       <path id="NimbusSanL-Regu-41" d="M 3034 1408 
L 3514 0 
L 4179 0 
L 2541 4672 
L 1773 4672 
L 109 0 
L 742 0 
L 1235 1408 
L 3034 1408 
z
M 2867 1907 
L 1382 1907 
L 2150 4032 
L 2867 1907 
z
" transform="scale(0.015625)"/>
       <path id="NimbusSanL-Regu-76" d="M 1824 0 
L 3110 3328 
L 2509 3328 
L 1562 629 
L 666 3328 
L 64 3328 
L 1242 0 
L 1824 0 
z
" transform="scale(0.015625)"/>
       <path id="NimbusSanL-Regu-67" d="M 2637 3359 
L 2637 2873 
C 2368 3270 2042 3456 1613 3456 
C 762 3456 186 2714 186 1632 
C 186 1084 333 638 608 320 
C 858 38 1216 -128 1568 -128 
C 1990 -128 2285 51 2586 473 
L 2586 300 
C 2586 -155 2528 -441 2394 -634 
C 2253 -841 1978 -960 1651 -960 
C 1408 -960 1190 -894 1043 -774 
C 922 -674 870 -581 838 -375 
L 294 -375 
C 352 -1031 845 -1408 1632 -1408 
C 2131 -1408 2560 -1248 2778 -980 
C 3034 -661 3130 -222 3130 568 
L 3130 3359 
L 2637 3359 
z
M 1670 2963 
C 2246 2963 2586 2479 2586 1644 
C 2586 848 2240 364 1677 364 
C 1094 364 742 855 742 1663 
C 742 2466 1101 2963 1670 2963 
z
" transform="scale(0.015625)"/>
       <path id="NimbusSanL-Regu-43" d="M 4237 3219 
C 4051 4236 3462 4736 2438 4736 
C 1811 4736 1306 4537 960 4154 
C 538 3696 307 3035 307 2284 
C 307 1522 544 867 986 415 
C 1344 44 1805 -128 2413 -128 
C 3552 -128 4192 485 4333 1712 
L 3718 1712 
C 3667 1394 3603 1178 3507 994 
C 3315 612 2918 396 2419 396 
C 1491 396 902 1134 902 2291 
C 902 3480 1466 4211 2368 4211 
C 2746 4211 3098 4096 3290 3918 
C 3462 3759 3558 3562 3629 3219 
L 4237 3219 
z
" transform="scale(0.015625)"/>
       <path id="NimbusSanL-Regu-46" d="M 1171 2112 
L 3398 2112 
L 3398 2636 
L 1171 2636 
L 1171 4147 
L 3706 4147 
L 3706 4672 
L 576 4672 
L 576 0 
L 1171 0 
L 1171 2112 
z
" transform="scale(0.015625)"/>
       <path id="NimbusSanL-Regu-4c" d="M 1107 4672 
L 512 4672 
L 512 0 
L 3411 0 
L 3411 524 
L 1107 524 
L 1107 4672 
z
" transform="scale(0.015625)"/>
       <path id="NimbusSanL-Regu-2d" d="M 1818 1996 
L 294 1996 
L 294 1536 
L 1818 1536 
L 1818 1996 
z
" transform="scale(0.015625)"/>
       <path id="NimbusSanL-Regu-42" d="M 506 0 
L 2611 0 
C 3053 0 3379 121 3629 390 
C 3859 632 3987 961 3987 1321 
C 3987 1878 3731 2214 3136 2444 
C 3558 2643 3782 2994 3782 3476 
C 3782 3821 3654 4127 3411 4345 
C 3168 4569 2848 4672 2400 4672 
L 506 4672 
L 506 0 
z
M 1101 2636 
L 1101 4147 
L 2253 4147 
C 2586 4147 2771 4101 2931 3977 
C 3098 3847 3187 3652 3187 3391 
C 3187 3138 3098 2936 2931 2806 
C 2771 2682 2586 2636 2253 2636 
L 1101 2636 
z
M 1101 524 
L 1101 2112 
L 2554 2112 
C 2842 2112 3034 2042 3174 1890 
C 3315 1745 3392 1542 3392 1315 
C 3392 1093 3315 891 3174 746 
C 3034 594 2842 524 2554 524 
L 1101 524 
z
" transform="scale(0.015625)"/>
       <path id="NimbusSanL-Regu-6c" d="M 973 4672 
L 435 4672 
L 435 0 
L 973 0 
L 973 4672 
z
" transform="scale(0.015625)"/>
       <path id="NimbusSanL-Regu-64" d="M 3168 4672 
L 2637 4672 
L 2637 2937 
C 2413 3276 2054 3456 1606 3456 
C 736 3456 166 2759 166 1695 
C 166 568 723 -128 1626 -128 
C 2086 -128 2406 44 2694 460 
L 2694 19 
L 3168 19 
L 3168 4672 
z
M 1696 2956 
C 2272 2956 2637 2447 2637 1651 
C 2637 880 2266 371 1702 371 
C 1114 371 723 887 723 1663 
C 723 2440 1114 2956 1696 2956 
z
" transform="scale(0.015625)"/>
       <path id="NimbusSanL-Regu-32" d="M 3238 556 
L 851 556 
C 909 928 1114 1165 1670 1493 
L 2310 1839 
C 2944 2185 3270 2653 3270 3211 
C 3270 3589 3117 3942 2848 4185 
C 2579 4428 2246 4544 1818 4544 
C 1242 4544 813 4339 563 3955 
C 403 3711 333 3429 320 2967 
L 883 2967 
C 902 3275 941 3461 1018 3608 
C 1165 3884 1459 4051 1798 4051 
C 2310 4051 2694 3685 2694 3198 
C 2694 2839 2483 2531 2080 2300 
L 1491 1967 
C 544 1428 269 999 218 0 
L 3238 0 
L 3238 556 
z
" transform="scale(0.015625)"/>
       <path id="NimbusSanL-Regu-30" d="M 1760 4544 
C 1338 4544 954 4358 717 4044 
C 422 3649 275 3043 275 2207 
C 275 683 787 -128 1760 -128 
C 2720 -128 3245 683 3245 2169 
C 3245 3049 3104 3636 2803 4044 
C 2566 4364 2189 4544 1760 4544 
z
M 1760 4044 
C 2368 4044 2669 3432 2669 2220 
C 2669 938 2374 339 1747 339 
C 1152 339 851 964 851 2201 
C 851 3438 1152 4044 1760 4044 
z
" transform="scale(0.015625)"/>
      </defs>
      <use xlink:href="#NimbusSanL-Regu-41" transform="scale(0.996264)"/>
      <use xlink:href="#NimbusSanL-Regu-76" transform="translate(62.465918 0) scale(0.996264)"/>
      <use xlink:href="#NimbusSanL-Regu-65" transform="translate(109.788488 0) scale(0.996264)"/>
      <use xlink:href="#NimbusSanL-Regu-72" transform="translate(165.180165 0) scale(0.996264)"/>
      <use xlink:href="#NimbusSanL-Regu-61" transform="translate(197.359298 0) scale(0.996264)"/>
      <use xlink:href="#NimbusSanL-Regu-67" transform="translate(252.750975 0) scale(0.996264)"/>
      <use xlink:href="#NimbusSanL-Regu-65" transform="translate(308.142652 0) scale(0.996264)"/>
      <use xlink:href="#NimbusSanL-Regu-43" transform="translate(391.229499 0) scale(0.996264)"/>
      <use xlink:href="#NimbusSanL-Regu-46" transform="translate(463.159484 0) scale(0.996264)"/>
      <use xlink:href="#NimbusSanL-Regu-4c" transform="translate(524.031114 0) scale(0.996264)"/>
      <use xlink:href="#NimbusSanL-Regu-2d" transform="translate(607.117961 0) scale(0.996264)"/>
      <use xlink:href="#NimbusSanL-Regu-42" transform="translate(667.98836 0) scale(0.996264)"/>
      <use xlink:href="#NimbusSanL-Regu-6c" transform="translate(734.438391 0) scale(0.996264)"/>
      <use xlink:href="#NimbusSanL-Regu-61" transform="translate(756.555176 0) scale(0.996264)"/>
      <use xlink:href="#NimbusSanL-Regu-64" transform="translate(811.946853 0) scale(0.996264)"/>
      <use xlink:href="#NimbusSanL-Regu-65" transform="translate(867.33853 0) scale(0.996264)"/>
      <use xlink:href="#NimbusSanL-Regu-32" transform="translate(958.595772 0) scale(0.996264)"/>
      <use xlink:href="#NimbusSanL-Regu-30" transform="translate(1013.987449 0) scale(0.996264)"/>
      <path d="M 928.707548 0 
L 958.595772 0 
L 958.595772 0.3985 
L 928.707548 0.3985 
L 928.707548 0 
z
"/>
     </g>
    </g>
   </g>
   <g id="line2d_13">
    <path d="M 52.785526 117.946489 
L 52.907004 75.033248 
L 52.967744 205.136106 
L 53.028483 202.244932 
L 53.271439 183.621141 
L 53.514395 145.002849 
L 53.757352 65.427678 
L 53.818091 204.175549 
L 53.87883 201.092263 
L 54.121786 181.230968 
L 54.364743 140.046586 
L 54.607699 54.76217 
L 54.668438 203.108999 
L 54.729177 199.812402 
L 54.972134 178.577048 
L 55.21509 134.560949 
L 55.397308 72.98193 
L 55.458047 204.930975 
L 55.518786 201.998774 
L 55.761742 183.110708 
L 56.004699 143.951448 
L 56.247655 63.770134 
L 56.308394 204.009795 
L 56.369133 200.893358 
L 56.61209 180.818518 
L 56.855046 139.194558 
L 57.037263 80.691599 
L 57.098002 205.701942 
L 57.158741 202.923934 
L 57.401698 185.02912 
L 57.644654 147.922434 
L 57.94835 95.755934 
L 58.009089 207.208375 
L 58.069828 204.731654 
L 58.312784 188.777609 
L 58.555741 155.6953 
L 58.737958 109.179249 
L 58.798697 208.550707 
L 58.859436 206.342452 
L 59.102393 192.117759 
L 59.345349 162.621436 
L 59.527566 121.14861 
L 59.588306 209.747643 
L 59.649045 207.778775 
L 59.892001 195.096119 
L 60.134957 168.797363 
L 60.317175 131.81994 
L 60.377914 210.814776 
L 60.438653 209.059335 
L 60.681609 197.751487 
L 60.924566 174.303535 
L 61.167522 125.681861 
L 61.228261 210.200968 
L 61.289 208.322765 
L 61.531957 196.224137 
L 61.774913 171.136421 
L 62.01787 119.114533 
L 62.078609 99.019044 
L 62.139348 207.534686 
L 62.200087 205.123227 
L 62.443043 189.589575 
L 62.686 157.378993 
L 62.928956 90.587131 
L 62.989695 206.691495 
L 63.050434 204.111398 
L 63.293391 187.491445 
L 63.536347 153.028311 
L 63.718564 104.56996 
L 63.779304 208.089778 
L 63.840043 205.789337 
L 64.082999 190.970821 
L 64.325955 160.243144 
L 64.568912 117.037192 
L 64.629651 209.336501 
L 64.69039 207.285405 
L 64.933346 194.073067 
L 65.176303 166.675962 
L 65.297781 143.392914 
L 65.35852 211.972073 
L 65.419259 210.448092 
L 65.662216 200.631214 
L 65.905172 180.274935 
L 66.148128 138.064157 
L 66.208868 211.439197 
L 66.269607 209.808641 
L 66.512563 199.305248 
L 66.755519 177.525414 
L 66.998476 132.362749 
L 67.059215 210.869057 
L 67.119954 209.124472 
L 67.362911 197.886556 
L 67.605867 174.583612 
L 67.848823 126.262629 
L 67.909562 210.259045 
L 67.970302 208.392458 
L 68.213258 196.368651 
L 68.456214 171.436085 
L 68.699171 119.735916 
L 68.75991 209.606373 
L 68.820649 207.609252 
L 69.063605 194.744596 
L 69.306562 168.068444 
L 69.549518 112.752777 
L 69.610257 208.908059 
L 69.670996 206.771275 
L 69.913953 193.006967 
L 70.156909 164.465298 
L 70.399866 105.281292 
L 70.582083 54.984589 
L 70.642822 203.131241 
L 70.703561 199.839093 
L 70.946517 178.632393 
L 71.189474 134.658182 
L 71.43243 43.473256 
L 71.493169 201.980107 
L 71.553908 198.457733 
L 71.796865 175.768005 
L 72.039821 128.718587 
L 72.222039 62.562757 
L 72.282778 203.889057 
L 72.343517 200.748473 
L 72.586473 180.518084 
L 72.82943 138.56835 
L 73.011647 79.583147 
L 73.072386 205.591096 
L 73.133125 202.79092 
L 73.376082 184.753302 
L 73.619038 147.350497 
L 73.740516 115.564245 
L 73.801255 209.189206 
L 73.861994 207.108651 
L 74.104951 193.70655 
L 74.347907 165.915954 
L 74.469385 142.298502 
L 74.530124 211.862632 
L 74.590864 210.316762 
L 74.83382 200.358889 
L 75.076776 179.710243 
L 75.319733 136.89321 
L 75.380472 120.353457 
L 75.441211 209.668127 
L 75.50195 207.683357 
L 75.744906 194.898259 
L 75.987863 168.387082 
L 76.17008 131.109916 
L 76.230819 210.743773 
L 76.291558 208.974132 
L 76.534515 197.574811 
L 76.777471 173.937178 
L 77.020428 124.922183 
L 77.081167 105.988224 
L 77.141906 208.231604 
L 77.202645 205.959529 
L 77.445601 191.32373 
L 77.688558 160.974937 
L 77.931514 98.04368 
L 77.992253 207.43715 
L 78.052992 205.006184 
L 78.295949 189.346873 
L 78.538905 156.875727 
L 78.781862 89.543558 
L 78.842601 206.587137 
L 78.90334 203.986169 
L 79.146296 187.231771 
L 79.389253 152.48985 
L 79.632209 80.45196 
L 79.753687 52.636309 
L 79.996644 52.636309 
L 80.057383 19.245175 
L 80.118122 199.557299 
L 80.178861 195.550363 
L 80.421817 169.739284 
L 80.664774 116.217429 
L 80.846991 70.732627 
L 80.90773 204.706044 
L 80.968469 201.728857 
L 81.211426 182.551009 
L 81.454382 142.783823 
L 81.636599 86.867486 
L 81.697338 206.31953 
L 81.758077 203.66504 
L 82.001034 186.565878 
L 82.24399 151.109056 
L 82.486947 77.606967 
L 82.547686 205.393478 
L 82.608425 202.553778 
L 82.851381 184.261565 
L 83.094338 146.330832 
L 83.337294 67.677664 
L 83.398033 37.2948 
L 83.458772 201.362262 
L 83.519511 197.716318 
L 83.762468 174.230608 
L 84.005424 125.530639 
L 84.369859 24.546384 
L 84.430598 200.08742 
L 84.491337 196.186508 
L 84.734293 171.058394 
L 84.97725 118.952737 
L 85.159467 45.687368 
L 85.220206 202.201518 
L 85.280945 198.723426 
L 85.523902 176.318947 
L 85.766858 129.86102 
L 85.949075 64.536881 
L 86.009815 204.08647 
L 86.070554 200.985368 
L 86.31351 181.009309 
L 86.556466 139.586954 
L 86.860162 53.693559 
L 86.920901 203.002138 
L 86.98164 199.684169 
L 87.224597 178.311144 
L 87.467553 133.992039 
L 87.892727 42.091942 
L 88.074944 42.091942 
L 88.135683 201.841976 
L 88.196422 198.291975 
L 88.439379 175.42429 
L 88.682335 128.005859 
L 88.925291 29.679 
L 88.986031 200.600682 
L 89.04677 196.802422 
L 89.289726 172.335553 
L 89.532682 121.601053 
L 89.7149 50.263659 
L 89.775639 202.659148 
L 89.836378 199.272581 
L 90.079334 177.457675 
L 90.322291 132.222286 
L 90.565247 38.422182 
L 90.625986 201.475 
L 90.686725 197.851604 
L 90.929682 174.511137 
L 91.172638 126.112343 
L 91.415595 25.752606 
L 91.476334 200.208042 
L 91.537073 196.331255 
L 91.780029 171.358541 
L 92.022986 119.57512 
L 92.205203 46.762847 
L 92.265942 202.309066 
L 92.326681 198.852484 
L 92.569638 176.586561 
L 92.812594 130.415943 
L 93.05555 34.676551 
L 93.116289 201.100437 
L 93.177029 197.402128 
L 93.419985 173.579104 
L 93.662941 124.17968 
L 93.966637 21.745035 
L 94.027376 199.807285 
L 94.088115 195.850346 
L 94.331071 170.361329 
L 94.574028 117.507302 
L 94.756245 43.189657 
L 94.816984 201.951747 
L 94.877723 198.423701 
L 95.12068 175.697437 
L 95.363636 128.572256 
L 95.606593 30.85348 
L 95.667332 200.71813 
L 95.728071 196.94336 
L 95.971027 172.627801 
L 96.213984 122.207059 
L 96.517679 51.310837 
L 99.12946 51.310837 
L 99.1902 17.654609 
L 99.250939 199.398243 
L 99.311678 195.359495 
L 99.554634 169.3435 
L 99.797591 115.396732 
L 99.979808 39.542591 
L 100.040547 201.587041 
L 100.101286 197.986053 
L 100.344242 174.78993 
L 100.587199 126.69045 
L 100.890894 26.951368 
L 100.951633 200.327918 
L 101.012373 196.475106 
L 101.255329 171.656831 
L 101.498285 120.193655 
L 101.680503 47.831675 
L 101.741242 202.415949 
L 101.801981 198.980743 
L 102.044937 176.85252 
L 102.287894 130.967435 
L 102.53085 35.820124 
L 102.591589 201.214794 
L 102.652328 197.539357 
L 102.895285 173.863661 
L 103.138241 124.769739 
L 103.441937 22.968581 
L 103.502676 199.92964 
L 103.563415 195.997172 
L 103.806371 170.665786 
L 104.049328 118.138625 
L 104.231545 44.280582 
L 104.292284 202.06084 
L 104.353023 198.554612 
L 104.59598 175.968894 
L 104.838936 129.135149 
L 105.081892 32.020696 
L 105.142631 200.834851 
L 105.203371 197.083426 
L 105.446327 172.918242 
L 105.689283 122.809317 
L 105.871501 52.351539 
L 105.93224 202.867936 
L 105.992979 199.523127 
L 106.235935 177.977206 
L 106.478892 133.299586 
L 106.721848 40.656072 
L 106.782587 201.698389 
L 106.843326 198.119671 
L 107.086283 175.067 
L 107.329239 127.264982 
L 107.572196 28.142716 
L 107.632935 200.447053 
L 107.693674 196.618068 
L 107.93663 171.953277 
L 108.179587 120.808365 
L 108.361804 48.893893 
L 108.422543 202.522171 
L 108.483282 199.108209 
L 108.726238 177.116833 
L 108.969195 131.515517 
L 109.212151 36.956626 
L 109.27289 201.328444 
L 109.333629 197.675737 
L 109.576586 174.146459 
L 109.819542 125.356149 
L 110.183977 24.18456 
L 110.244716 200.051238 
L 110.305455 196.143089 
L 110.548411 170.968361 
L 110.791368 118.766043 
L 110.973585 45.364762 
L 111.034324 202.169258 
L 111.095063 198.684713 
L 111.33802 176.238673 
L 111.580976 129.694562 
L 111.823933 33.180695 
L 111.884672 200.950851 
L 111.945411 197.222625 
L 112.188367 173.206887 
L 112.431324 123.407851 
L 112.613541 53.385805 
L 112.67428 202.971362 
L 112.735019 199.647239 
L 112.977976 178.234565 
L 113.220932 133.833244 
L 113.463888 41.762666 
L 113.524627 201.809048 
L 113.585367 198.252462 
L 113.828323 175.342356 
L 114.071279 127.83596 
L 114.314236 29.326697 
L 114.374975 200.565451 
L 114.435714 196.760146 
L 114.67867 172.247889 
L 114.921627 121.419273 
L 115.103844 49.949543 
L 115.164583 202.627736 
L 115.225322 199.234887 
L 115.468279 177.379513 
L 115.711235 132.060208 
L 115.954192 38.086099 
L 116.014931 201.441392 
L 116.07567 197.811274 
L 116.318626 174.427508 
L 116.561583 125.938932 
L 116.865278 25.39302 
L 116.926017 200.172084 
L 116.986756 196.288104 
L 117.229713 171.269064 
L 117.472669 119.389582 
L 117.654886 46.442236 
L 117.715625 202.277005 
L 117.776365 198.81401 
L 118.019321 176.506783 
L 118.262277 130.250515 
L 118.505234 34.333519 
L 118.565973 201.066134 
L 118.626712 197.360964 
L 118.869668 173.493746 
L 119.112625 124.002683 
L 119.294842 54.413675 
L 119.355581 203.074149 
L 119.41632 199.770583 
L 119.659277 178.490332 
L 119.902233 134.363603 
L 120.145189 42.862417 
L 120.205929 201.919023 
L 120.266668 198.384432 
L 120.509624 175.616009 
L 120.75258 128.403407 
L 120.995537 30.503356 
L 121.056276 200.683117 
L 121.117015 196.901345 
L 121.359972 172.540679 
L 121.602928 122.026403 
L 121.906623 50.998663 
L 121.967363 50.998663 
L 122.028102 17.28 
L 122.088841 199.360782 
L 122.14958 195.314542 
L 122.392536 169.250285 
L 122.635493 115.203442 
L 122.81771 39.208586 
L 122.878449 201.55364 
L 122.939188 197.945972 
L 123.182145 174.706819 
L 123.425101 126.518111 
L 123.728796 26.594005 
L 123.789536 200.292182 
L 123.850275 196.432223 
L 124.093231 171.567908 
L 124.336187 120.009264 
L 124.518405 47.513047 
L 124.579144 202.384086 
L 124.639883 198.942508 
L 124.882839 176.773235 
L 125.125796 130.80303 
L 125.368752 35.479214 
L 125.429491 201.180703 
L 125.49023 197.498448 
L 125.733187 173.778832 
L 125.976143 124.593836 
L 126.340578 22.60383 
L 126.401317 199.893165 
L 126.462056 195.953402 
L 126.705012 170.575024 
L 126.947969 117.950421 
L 127.130186 43.955367 
L 127.190925 202.028318 
L 127.251664 198.515586 
L 127.494621 175.88797 
L 127.737577 128.967345 
L 128.041273 31.672738 
L 128.102012 200.800055 
L 128.162751 197.041671 
L 128.405707 172.831659 
L 128.648664 122.629778 
L 128.830881 52.041296 
L 128.89162 202.836911 
L 128.952359 199.485898 
L 129.195316 177.900008 
L 129.438272 133.139507 
L 129.681228 40.324132 
L 129.741967 201.665195 
L 129.802707 198.079838 
L 130.045663 174.984403 
L 130.288619 127.093708 
L 130.470837 59.754966 
L 130.531576 203.608278 
L 130.592315 200.411538 
L 130.835271 179.819416 
L 131.078228 137.119592 
L 131.321184 48.577236 
L 131.381923 202.490505 
L 131.442662 199.07021 
L 131.685619 177.038039 
L 131.928575 131.352128 
L 132.232271 36.617824 
L 132.29301 201.294564 
L 132.353749 197.635081 
L 132.596705 174.062154 
L 132.839662 125.181334 
L 133.021879 56.450384 
L 133.082618 203.27782 
L 133.143357 200.014988 
L 133.386314 178.99713 
L 133.62927 135.4145 
L 133.872226 45.041557 
L 133.932965 202.136937 
L 133.993705 198.645929 
L 134.236661 176.158249 
L 134.479617 129.527796 
L 134.844052 32.834888 
L 134.904791 200.91627 
L 134.96553 197.181129 
L 135.208487 173.120839 
L 135.451443 123.229422 
L 135.63366 53.077481 
L 135.694399 202.94053 
L 135.755139 199.61024 
L 135.998095 178.157844 
L 136.241051 133.674156 
L 136.484008 41.43278 
L 136.544747 201.77606 
L 136.605486 198.212876 
L 136.848442 175.26027 
L 137.091399 127.665746 
L 137.395094 28.973741 
L 137.455833 200.530156 
L 137.516572 196.717791 
L 137.759529 172.160062 
L 138.002485 121.237155 
L 138.184703 49.634843 
L 138.245442 202.596266 
L 138.306181 199.197123 
L 138.549137 177.301205 
L 138.792094 131.89783 
L 139.03505 37.749392 
L 139.095789 201.407721 
L 139.156528 197.770869 
L 139.399485 174.343725 
L 139.642441 125.765198 
L 139.824658 57.459302 
L 139.885397 203.378712 
L 139.946136 200.136058 
L 140.189093 179.248181 
L 140.432049 135.935079 
L 140.675006 46.12103 
L 140.735745 202.244885 
L 140.796484 198.775466 
L 141.03944 176.426856 
L 141.282397 130.08478 
L 141.525353 33.989851 
L 141.586092 201.031767 
L 141.646831 197.319724 
L 141.889788 173.408231 
L 142.132744 123.825358 
L 142.314961 54.107257 
L 142.375701 203.043507 
L 142.43644 199.733813 
L 142.679396 178.414085 
L 142.922352 134.205498 
L 143.165309 42.534571 
L 143.226048 201.886239 
L 143.286787 198.345091 
L 143.529743 175.53443 
L 143.7727 128.234246 
L 144.137134 30.152582 
L 144.197874 200.64804 
L 144.258613 196.859252 
L 144.501569 172.453396 
L 144.744525 121.845412 
L 144.926743 50.68591 
L 144.987482 202.701373 
L 145.048221 199.323251 
L 145.291177 177.562745 
L 145.534134 132.440158 
L 145.77709 38.873962 
L 145.837829 201.520178 
L 145.898568 197.905817 
L 146.141525 174.623554 
L 146.384481 126.345452 
L 146.566699 58.46198 
L 146.627438 203.47898 
L 146.688177 200.25638 
L 146.931133 179.497679 
L 147.17409 136.452439 
L 147.417046 47.193828 
L 147.477785 202.352164 
L 147.538524 198.904201 
L 147.781481 176.693803 
L 148.024437 130.63832 
L 148.267393 35.137671 
L 148.328132 201.146549 
L 148.388872 197.457463 
L 148.631828 173.693845 
L 148.874784 124.417608 
L 149.17848 55.130665 
L 150.939914 55.130665 
L 151.000653 203.145848 
L 151.061392 199.856622 
L 151.304348 178.668742 
L 151.547305 134.733554 
L 151.790261 43.629548 
L 151.851 201.995736 
L 151.911739 198.476488 
L 152.154696 175.806896 
L 152.397652 128.79923 
L 152.701348 62.702108 
L 154.219825 62.702108 
L 154.280564 203.902992 
L 154.341303 200.765195 
L 154.58426 180.552759 
L 154.827216 138.640252 
L 155.070173 51.730477 
L 155.130912 202.805829 
L 155.191651 199.448599 
L 155.434607 177.822666 
L 155.677564 132.979131 
L 155.981259 69.924978 
L 156.041998 69.924978 
L 156.102737 39.991577 
L 156.163477 201.631939 
L 156.224216 198.039931 
L 156.467172 174.901652 
L 156.710128 126.922117 
L 156.892346 59.458457 
L 156.953085 203.578627 
L 157.013824 200.375957 
L 157.25678 179.745635 
L 157.499737 136.966599 
L 157.742693 48.259991 
L 157.803432 202.458781 
L 157.864171 199.032141 
L 158.107128 176.959098 
L 158.350084 131.188437 
L 158.65378 66.830657 
L 159.139692 66.830657 
L 159.200432 36.278393 
L 159.261171 201.260621 
L 159.32191 197.594349 
L 159.564866 173.977693 
L 159.807823 125.006195 
L 159.99004 56.147744 
L 160.050779 203.247556 
L 160.111518 199.978671 
L 160.354475 178.921824 
L 160.597431 135.258344 
L 160.840387 44.717753 
L 160.901126 202.104557 
L 160.961866 198.607072 
L 161.204822 176.077676 
L 161.447778 129.36072 
L 161.812213 32.488439 
L 161.872952 200.881626 
L 161.933691 197.139555 
L 162.176648 173.034631 
L 162.419604 123.050663 
L 162.601821 52.768584 
L 162.66256 202.90964 
L 162.723299 199.573172 
L 162.966256 178.08098 
L 163.209212 133.514772 
L 163.452169 41.102281 
L 163.512908 201.74301 
L 163.573647 198.173216 
L 163.816603 175.178031 
L 164.05956 127.495216 
L 164.241777 60.448771 
L 164.302516 203.677659 
L 164.363255 200.494795 
L 164.606212 179.992057 
L 164.849168 137.47758 
L 165.092124 49.31956 
L 165.152864 202.564738 
L 165.213603 199.159289 
L 165.456559 177.222753 
L 165.699515 131.735151 
L 165.942472 37.41206 
L 166.003211 201.373988 
L 166.06395 197.730389 
L 166.306906 174.259786 
L 166.549863 125.591143 
L 166.73208 57.158533 
L 166.792819 203.348635 
L 166.853558 200.099966 
L 167.096515 179.17334 
L 167.339471 135.779889 
L 167.582428 45.799229 
L 167.643167 202.212705 
L 167.703906 198.73685 
L 167.946862 176.346782 
L 168.189819 129.918738 
L 168.493514 64.636617 
L 170.862339 64.636617 
L 170.923078 33.645545 
L 170.983817 200.997336 
L 171.044556 197.278407 
L 171.287513 173.322556 
L 171.530469 123.647704 
L 171.712686 53.800271 
L 171.773426 203.012809 
L 171.834165 199.696975 
L 172.077121 178.337697 
L 172.320077 134.047099 
L 172.563034 42.206116 
L 172.623773 201.853393 
L 172.684512 198.305676 
L 172.927468 175.4527 
L 173.170425 128.06477 
L 173.534859 29.801158 
L 173.595599 200.612897 
L 173.656338 196.817081 
L 173.899294 172.36595 
L 174.14225 121.664084 
L 174.324468 50.372577 
L 174.385207 202.670039 
L 174.445946 199.285651 
L 174.688902 177.484777 
L 174.931859 132.278485 
L 175.174815 38.538716 
L 175.235554 201.486653 
L 175.296293 197.865588 
L 175.53925 174.540134 
L 175.782206 126.172473 
L 176.085902 25.87729 
L 176.146641 200.220511 
L 176.20738 196.346217 
L 176.450336 171.389566 
L 176.693293 119.639455 
L 176.87551 46.874016 
L 176.936249 202.320183 
L 176.996988 198.865824 
L 177.239945 176.614223 
L 177.482901 130.473304 
L 177.725857 34.795495 
L 177.786597 201.112331 
L 177.847336 197.416401 
L 178.090292 173.608701 
L 178.333248 124.241052 
L 178.636944 21.872297 
L 178.697683 199.820011 
L 178.758422 195.865618 
L 179.001379 170.392995 
L 179.244335 117.572966 
L 179.426552 43.303124 
L 179.487291 201.963094 
L 179.548031 198.437317 
L 179.790987 175.725671 
L 180.033943 128.630802 
L 180.2769 30.974883 
L 180.337639 200.73027 
L 180.398378 196.957928 
L 180.641334 172.65801 
L 180.884291 122.2697 
L 181.187986 51.419081 
L 181.795377 51.419081 
L 181.856116 202.77469 
L 181.916855 199.411232 
L 182.159812 177.745181 
L 182.402768 132.818458 
L 182.645725 39.658405 
L 182.706464 201.598622 
L 182.767203 197.999951 
L 183.010159 174.818748 
L 183.253116 126.750207 
L 183.61755 27.075281 
L 183.678289 200.34031 
L 183.739028 196.489976 
L 183.981985 171.687664 
L 184.224941 120.257592 
L 184.407159 47.942157 
L 184.467898 202.426997 
L 184.528637 198.994001 
L 184.771593 176.880011 
L 185.01455 131.024441 
L 185.257506 35.938332 
L 185.318245 201.226615 
L 185.378984 197.553542 
L 185.621941 173.893075 
L 185.864897 124.830732 
L 186.047114 55.844543 
L 186.107853 203.217236 
L 186.168593 199.942287 
L 186.411549 178.846377 
L 186.654505 135.101899 
L 186.897462 44.393349 
L 186.958201 202.072117 
L 187.01894 198.568144 
L 187.261896 175.996954 
L 187.504853 129.193334 
L 187.808548 32.141348 
L 187.869287 200.846916 
L 187.930026 197.097904 
L 188.172983 172.948264 
L 188.415939 122.871571 
L 188.598157 52.459114 
L 188.658896 202.878693 
L 188.719635 199.536036 
L 188.962591 178.003974 
L 189.205548 133.355092 
L 189.448504 40.771169 
L 189.509243 201.709899 
L 189.569982 198.133482 
L 189.812939 175.09564 
L 190.055895 127.324369 
L 190.238112 60.153549 
L 190.298851 203.648137 
L 190.359591 200.459368 
L 190.602547 179.918596 
L 190.845503 137.325251 
L 191.08846 49.003692 
L 191.149199 202.533151 
L 191.209938 199.121385 
L 191.452894 177.144155 
L 191.695851 131.57217 
L 191.938807 37.074103 
L 191.999546 201.340192 
L 192.060285 197.689834 
L 192.303242 174.175691 
L 192.546198 125.416764 
L 192.728415 56.857207 
L 192.789155 203.318502 
L 192.849894 200.063807 
L 193.09285 179.098361 
L 193.335806 135.624411 
L 193.578763 45.47683 
L 193.639502 202.180465 
L 193.700241 198.698162 
L 193.943198 176.266559 
L 194.186154 129.752387 
L 194.489849 33.3006 
L 194.550589 200.962842 
L 194.611328 197.237014 
L 194.854284 173.236723 
L 195.09724 123.46972 
L 195.279458 53.492715 
L 195.340197 202.982053 
L 195.400936 199.660068 
L 195.643892 178.261167 
L 195.886849 133.888407 
L 196.129805 41.877052 
L 196.190544 201.820487 
L 196.251283 198.266188 
L 196.49424 175.370819 
L 196.737196 127.89498 
L 196.980153 29.449082 
L 197.040892 200.57769 
L 197.101631 196.774832 
L 197.344587 172.278342 
L 197.587544 121.482421 
L 197.769761 50.058662 
L 197.8305 202.638648 
L 197.891239 199.247982 
L 198.134195 177.406665 
L 198.377152 132.116512 
L 198.620108 38.202849 
L 198.680847 201.453067 
L 198.741587 197.825284 
L 198.984543 174.456559 
L 199.227499 125.999172 
L 199.591934 25.517935 
L 199.652673 200.184575 
L 199.713412 196.303094 
L 199.956369 171.300147 
L 200.199325 119.454035 
L 200.381542 46.553612 
L 200.442281 202.288143 
L 200.50302 198.827375 
L 200.745977 176.534496 
L 200.988933 130.307983 
L 201.353368 34.452683 
L 201.414107 201.07805 
L 201.474846 197.375264 
L 201.717802 173.523398 
L 201.960759 124.064169 
L 202.142976 54.519923 
L 202.203715 203.084774 
L 202.264454 199.783333 
L 202.507411 178.51677 
L 202.750367 134.418424 
L 202.993324 42.976095 
L 203.054063 201.930391 
L 203.114802 198.398074 
L 203.357758 175.644296 
L 203.600715 128.462063 
L 203.965149 30.624984 
L 204.025888 200.69528 
L 204.086627 196.91594 
L 204.329584 172.570944 
L 204.57254 122.08916 
L 204.754758 51.107108 
L 204.815497 202.743492 
L 204.876236 199.373795 
L 205.119192 177.667552 
L 205.362149 132.657487 
L 205.605105 39.324615 
L 205.665844 201.565243 
L 205.726583 197.959896 
L 205.96954 174.735691 
L 206.212496 126.577979 
L 206.394713 58.863787 
L 206.455452 203.51916 
L 206.516191 200.304596 
L 206.759148 179.597662 
L 207.002104 136.659762 
L 207.245061 47.623734 
L 207.3058 202.395155 
L 207.366539 198.95579 
L 207.609495 176.800777 
L 207.852452 130.860142 
L 208.156147 66.263364 
L 208.945756 66.263364 
L 209.006495 204.259118 
L 209.067234 201.192546 
L 209.31019 181.438914 
L 209.553147 140.477782 
L 209.796103 55.540779 
L 209.856842 203.18686 
L 209.917581 199.905836 
L 210.160538 178.770791 
L 210.403494 134.945164 
L 210.707189 44.068342 
L 210.767929 202.039616 
L 210.828668 198.529143 
L 211.071624 175.916082 
L 211.31458 129.025638 
L 211.496798 63.093341 
L 211.557537 203.942116 
L 211.618276 200.812143 
L 211.861232 180.65011 
L 212.104189 138.84212 
L 212.347145 52.14907 
L 212.407884 202.847689 
L 212.468623 199.49883 
L 212.71158 177.926826 
L 212.954536 133.195116 
L 213.136754 70.298199 
L 213.197493 204.662602 
L 213.258232 201.676726 
L 213.501188 182.44291 
L 213.744145 142.559668 
L 213.987101 59.857779 
L 214.04784 203.61856 
L 214.108579 200.423876 
L 214.351536 179.844999 
L 214.594492 137.172641 
L 214.837448 48.687238 
L 214.898187 202.501505 
L 214.958927 199.083411 
L 215.201883 177.065411 
L 215.444839 131.408887 
L 215.748535 36.735519 
L 215.809274 201.306333 
L 215.870013 197.649204 
L 216.112969 174.091441 
L 216.355926 125.242062 
L 216.538143 56.555322 
L 216.598882 203.288314 
L 216.659621 200.027581 
L 216.902578 179.023242 
L 217.145534 135.468645 
L 217.388491 45.153834 
L 217.44923 202.148165 
L 217.509969 198.659402 
L 217.752925 176.186187 
L 217.995882 129.585728 
L 218.238838 32.955016 
L 218.299577 200.928283 
L 218.360316 197.195544 
L 218.603273 173.150731 
L 218.846229 123.291406 
L 219.028446 53.184588 
L 219.089185 202.95124 
L 219.149925 199.623093 
L 219.392881 178.184496 
L 219.635837 133.729421 
L 219.878794 41.547378 
L 219.939533 201.787519 
L 220.000272 198.226627 
L 220.243228 175.288785 
L 220.486185 127.724876 
L 220.668402 60.845624 
L 220.729141 203.717344 
L 220.78988 200.542417 
L 221.032837 180.090806 
L 221.275793 137.682347 
L 221.518749 49.744165 
L 221.579489 202.607198 
L 221.640228 199.210242 
L 221.883184 177.328408 
L 222.12614 131.954238 
L 222.308358 68.153962 
L 222.369097 204.448178 
L 222.429836 201.419418 
L 222.672792 181.909355 
L 222.915749 141.453289 
L 223.158705 57.563591 
L 223.219444 203.389141 
L 223.280183 200.148573 
L 223.52314 179.274132 
L 223.766096 135.98889 
L 224.130531 46.232613 
L 224.19127 202.256043 
L 224.252009 198.788856 
L 224.494965 176.454622 
L 224.737922 130.142354 
L 224.920139 65.023027 
L 224.980878 204.135084 
L 225.041617 201.043705 
L 225.284574 181.130278 
L 225.52753 139.837795 
L 225.770487 54.213702 
L 225.831226 203.054152 
L 225.891965 199.746586 
L 226.134921 178.440572 
L 226.377878 134.260421 
L 226.681573 42.64846 
L 226.742312 201.897628 
L 226.803051 198.358757 
L 227.046008 175.56277 
L 227.288964 128.29301 
L 227.471181 61.82736 
L 227.53192 203.815518 
L 227.59266 200.660225 
L 227.835616 180.335094 
L 228.078572 138.188901 
L 228.382268 50.794556 
L 228.443007 202.712237 
L 228.503746 199.336289 
L 228.746703 177.589779 
L 228.989659 132.496217 
L 229.171876 69.090501 
L 229.232615 204.541832 
L 229.293354 201.531802 
L 229.536311 182.142396 
L 229.779267 141.936523 
L 230.082963 58.565624 
L 230.143702 203.489344 
L 230.204441 200.268817 
L 230.447397 179.523469 
L 230.690354 136.505917 
L 230.872571 76.019263 
L 230.93331 205.234708 
L 230.994049 202.363254 
L 231.237006 183.866493 
L 231.479962 145.511612 
L 231.722918 65.978928 
L 231.783658 204.230674 
L 231.844397 201.158413 
L 232.087353 181.368137 
L 232.330309 140.331019 
L 232.634005 82.62904 
L 233.119918 82.62904 
L 233.180657 55.236452 
L 233.241396 203.156427 
L 233.302135 199.869316 
L 233.545092 178.695065 
L 233.788048 134.788137 
L 233.970265 73.05094 
L 234.031004 204.937876 
L 234.091743 202.007055 
L 234.3347 183.12788 
L 234.577656 143.980022 
L 234.820613 62.803025 
L 234.881352 203.913084 
L 234.942091 200.777305 
L 235.185047 180.57787 
L 235.428004 138.692323 
L 235.610221 79.797372 
L 235.67096 205.612519 
L 235.731699 202.816627 
L 235.974656 184.806608 
L 236.217612 147.461033 
L 236.460568 70.021248 
L 236.521307 204.634906 
L 236.582047 201.643492 
L 236.825003 182.373995 
L 237.067959 142.416768 
L 237.250177 86.233213 
L 237.310916 206.256103 
L 237.371655 203.588928 
L 237.614611 186.408051 
L 237.857568 150.781785 
L 238.100524 76.907161 
L 238.161263 205.323498 
L 238.222002 202.469801 
L 238.464959 184.087431 
L 238.707915 145.969747 
L 238.950872 66.928918 
L 239.011611 204.325673 
L 239.07235 201.272412 
L 239.315306 181.604525 
L 239.558263 140.821193 
L 239.861958 83.476061 
L 242.170044 83.476061 
L 242.230783 205.980388 
L 242.291522 203.258069 
L 242.534479 185.721983 
L 242.777435 149.359155 
L 243.020391 73.957195 
L 243.08113 205.028501 
L 243.14187 202.115805 
L 243.384826 183.353385 
L 243.627782 144.44763 
L 243.931478 89.742543 
L 245.389216 89.742543 
L 245.449955 63.772655 
L 245.510694 204.010047 
L 245.571434 200.893661 
L 245.81439 180.819146 
L 246.057346 139.192631 
L 246.239564 80.661905 
L 246.300303 205.698972 
L 246.361042 202.920371 
L 246.603998 185.021731 
L 246.846955 147.907113 
L 247.089911 70.94624 
L 247.15065 204.727406 
L 247.211389 201.754491 
L 247.454346 182.604163 
L 247.697302 142.894043 
L 247.879519 87.057945 
L 247.940259 206.338576 
L 248.000998 203.687895 
L 248.243954 186.613271 
L 248.48691 151.207329 
L 248.729867 77.789567 
L 248.790606 205.411738 
L 248.851345 202.57569 
L 249.094301 184.307002 
L 249.337258 146.42505 
L 249.701692 67.873033 
L 249.762432 204.420085 
L 249.823171 201.385706 
L 250.066127 181.839451 
L 250.309083 141.308336 
L 250.491301 84.317843 
L 250.55204 206.064566 
L 250.612779 203.359083 
L 250.855735 185.931446 
L 251.098692 149.793497 
L 251.341648 74.857845 
L 251.402387 205.118566 
L 251.463126 202.223883 
L 251.706083 183.577495 
L 251.949039 144.912345 
L 252.131257 90.545571 
L 252.191996 206.687339 
L 252.252735 204.106411 
L 252.495691 187.481104 
L 252.738648 153.006867 
L 252.981604 81.521091 
L 253.042343 205.784891 
L 253.103082 203.023473 
L 253.346039 185.235524 
L 253.588995 148.350434 
L 253.831951 71.86551 
L 253.89269 204.819333 
L 253.95343 201.864803 
L 254.196386 182.832907 
L 254.439342 143.368366 
L 254.62156 87.877576 
L 254.682299 206.420539 
L 254.743038 203.786251 
L 254.985994 186.817221 
L 255.228951 151.63024 
L 255.471907 78.666517 
L 255.532646 205.499433 
L 255.593385 202.680924 
L 255.836342 184.525215 
L 256.079298 146.877536 
L 256.382994 68.81131 
L 256.443733 204.513913 
L 256.504472 201.498299 
L 256.747428 182.072924 
L 256.990385 141.792466 
L 257.172602 85.15442 
L 257.233341 206.148224 
L 257.29408 203.459472 
L 257.537037 186.139613 
L 257.779993 150.225152 
L 258.022949 75.752925 
L 258.083688 205.208074 
L 258.144428 202.331293 
L 258.387384 183.80022 
L 258.63034 145.374187 
L 258.934036 91.343634 
L 260.877687 91.343634 
L 260.938426 206.767145 
L 260.999165 204.202178 
L 261.242122 187.679687 
L 261.485078 153.41865 
L 261.728035 82.374964 
L 261.788774 205.870278 
L 261.849513 203.125938 
L 262.092469 185.447995 
L 262.335426 148.791013 
L 262.578382 72.779096 
L 262.639121 204.910691 
L 262.69986 201.974434 
L 262.942817 183.060236 
L 263.185773 143.839756 
L 263.36799 88.692138 
L 263.428729 206.501995 
L 263.489468 203.883999 
L 263.732425 187.01991 
L 263.975381 152.050536 
L 264.218338 79.538043 
L 264.279077 205.586586 
L 264.339816 202.785507 
L 264.582772 184.742078 
L 264.825729 147.327225 
L 265.190163 69.743784 
L 265.250902 204.60716 
L 265.311641 201.610196 
L 265.554598 182.304953 
L 265.797554 142.273602 
L 265.979772 85.985823 
L 266.040511 206.231364 
L 266.10125 203.559241 
L 266.344206 186.346492 
L 266.587163 150.654137 
L 266.830119 76.64247 
L 266.890858 205.297029 
L 266.951597 202.438038 
L 267.194554 184.021567 
L 267.43751 145.833172 
L 267.619727 92.136761 
L 267.680466 206.846458 
L 267.741206 204.297353 
L 267.984162 187.877043 
L 268.227118 153.827886 
L 268.470075 83.223556 
L 268.530814 205.955137 
L 268.591553 203.227769 
L 268.834509 185.659152 
L 269.077466 149.228868 
L 269.381161 73.687032 
L 269.4419 205.001485 
L 269.502639 202.083386 
L 269.745596 183.28616 
L 269.988552 144.308231 
L 270.17077 89.501662 
L 270.231509 206.582948 
L 270.292248 203.981142 
L 270.535204 187.221346 
L 270.778161 152.468233 
L 271.021117 80.404179 
L 271.081856 205.6732 
L 271.142595 202.889444 
L 271.385552 184.957601 
L 271.628508 147.774132 
L 271.810725 95.490739 
L 271.871464 207.181856 
L 271.932204 204.699831 
L 272.17516 188.71162 
L 272.418116 155.558465 
L 272.661073 86.812084 
L 272.721812 206.31399 
L 272.782551 203.658392 
L 273.025507 186.552093 
L 273.268464 151.08047 
L 273.389942 120.935406 
L 273.51142 218.601713 
L 273.632898 218.88 
L 273.754377 218.88 
L 273.936594 218.361679 
L 274.058072 218.88 
L 274.361768 218.88 
L 274.604724 218.115619 
L 274.84768 216.530598 
L 275.090637 213.243898 
L 275.333593 206.428597 
L 275.57655 192.29639 
L 275.819506 162.991846 
L 276.062462 102.225942 
L 276.123201 78.752734 
L 276.183941 205.508055 
L 276.24468 202.69127 
L 276.487636 184.546668 
L 276.730593 146.922022 
L 276.91281 94.018293 
L 276.973549 207.034611 
L 277.034288 204.523137 
L 277.277244 188.345228 
L 277.520201 154.798716 
L 277.763157 85.236668 
L 277.823896 206.156448 
L 277.884635 203.469342 
L 278.127592 186.160079 
L 278.370548 150.26759 
L 278.734983 75.840925 
L 278.795722 205.216874 
L 278.856461 202.341853 
L 279.099417 183.822117 
L 279.342374 145.419593 
L 279.524591 91.422095 
L 279.58533 206.774991 
L 279.646069 204.211593 
L 279.889026 187.699211 
L 280.131982 153.459135 
L 280.374939 82.458912 
L 280.435678 205.878673 
L 280.496417 203.136011 
L 280.739373 185.468884 
L 280.98233 148.834329 
L 281.164547 97.322759 
L 281.225286 207.365058 
L 281.286025 204.919673 
L 281.407503 198.463858 
L 281.528982 218.88 
L 281.711199 218.88 
L 281.954155 218.115619 
L 282.197112 216.530598 
L 282.440068 213.243898 
L 282.683024 206.428597 
L 282.925981 192.29639 
L 283.168937 162.991846 
L 283.411894 102.225942 
L 283.472633 78.752734 
L 283.533372 205.508055 
L 283.594111 202.69127 
L 283.837067 184.546668 
L 284.080024 146.922022 
L 284.262241 94.018293 
L 284.32298 207.034611 
L 284.383719 204.523137 
L 284.626676 188.345228 
L 284.869632 154.798716 
L 285.112588 85.236668 
L 285.173328 206.156448 
L 285.234067 203.469342 
L 285.477023 186.160079 
L 285.719979 150.26759 
L 286.023675 75.840925 
L 286.084414 205.216874 
L 286.145153 202.341853 
L 286.38811 183.822117 
L 286.631066 145.419593 
L 286.813283 91.422095 
L 286.874022 206.774991 
L 286.934762 204.211593 
L 287.177718 187.699211 
L 287.420674 153.459135 
L 287.663631 82.458912 
L 287.72437 205.878673 
L 287.785109 203.136011 
L 288.028065 185.468884 
L 288.088804 178.644265 
L 288.210283 218.88 
L 289.242847 218.88 
L 289.485804 218.115619 
L 289.72876 216.530598 
L 289.971717 213.243898 
L 290.214673 206.428597 
L 290.457629 192.29639 
L 290.700586 162.991846 
L 290.943542 102.225942 
L 291.004281 78.752734 
L 291.06502 205.508055 
L 291.12576 202.69127 
L 291.368716 184.546668 
L 291.611672 146.922022 
L 291.79389 94.018293 
L 291.854629 207.034611 
L 291.915368 204.523137 
L 292.158324 188.345228 
L 292.401281 154.798716 
L 292.644237 85.236668 
L 292.704976 206.156448 
L 292.765715 203.469342 
L 293.008672 186.160079 
L 293.251628 150.26759 
L 293.616063 75.840925 
L 293.676802 205.216874 
L 293.737541 202.341853 
L 293.980497 183.822117 
L 294.223454 145.419593 
L 294.405671 91.422095 
L 294.46641 206.774991 
L 294.527149 204.211593 
L 294.770106 187.699211 
L 295.013062 153.459135 
L 295.256018 82.458912 
L 295.316757 205.878673 
L 295.377497 203.136011 
L 295.620453 185.468884 
L 295.863409 148.834329 
L 296.227844 72.868915 
L 296.288583 204.919673 
L 296.349322 201.985212 
L 296.4708 194.238234 
L 296.592279 218.88 
L 296.713757 218.88 
L 296.956713 218.115619 
L 297.19967 216.530598 
L 297.442626 213.243898 
L 297.685582 206.428597 
L 297.928539 192.29639 
L 298.171495 162.991846 
L 298.414452 102.225942 
L 298.475191 78.752734 
L 298.53593 205.508055 
L 298.596669 202.69127 
L 298.839625 184.546668 
L 299.082582 146.922022 
L 299.264799 94.018293 
L 299.325538 207.034611 
L 299.386277 204.523137 
L 299.629234 188.345228 
L 299.87219 154.798716 
L 300.115146 85.236668 
L 300.175886 206.156448 
L 300.236625 203.469342 
L 300.479581 186.160079 
L 300.722538 150.26759 
L 301.026233 75.840925 
L 301.086972 205.216874 
L 301.147711 202.341853 
L 301.390668 183.822117 
L 301.633624 145.419593 
L 301.815841 91.422095 
L 301.87658 206.774991 
L 301.93732 204.211593 
L 302.180276 187.699211 
L 302.423232 153.459135 
L 302.666189 82.458912 
L 302.726928 205.878673 
L 302.787667 203.136011 
L 303.030623 185.468884 
L 303.27358 148.834329 
L 303.455797 97.322759 
L 303.516536 207.365058 
L 303.577275 204.919673 
L 303.698753 198.463858 
L 303.820232 218.88 
L 304.306144 218.88 
L 304.549101 218.115619 
L 304.792057 216.530598 
L 305.035014 213.243898 
L 305.27797 206.428597 
L 305.520927 192.29639 
L 305.763883 162.991846 
L 306.006839 102.225942 
L 306.067578 78.752734 
L 306.128318 205.508055 
L 306.189057 202.69127 
L 306.432013 184.546668 
L 306.674969 146.922022 
L 306.857187 94.018293 
L 306.917926 207.034611 
L 306.978665 204.523137 
L 307.221621 188.345228 
L 307.464578 154.798716 
L 307.707534 85.236668 
L 307.768273 206.156448 
L 307.829012 203.469342 
L 308.071969 186.160079 
L 308.314925 150.26759 
L 308.67936 75.840925 
L 308.740099 205.216874 
L 308.800838 202.341853 
L 309.043794 183.822117 
L 309.286751 145.419593 
L 309.468968 91.422095 
L 309.529707 206.774991 
L 309.590446 204.211593 
L 309.833403 187.699211 
L 310.076359 153.459135 
L 310.319316 82.458912 
L 310.380055 205.878673 
L 310.440794 203.136011 
L 310.68375 185.468884 
L 310.926707 148.834329 
L 311.108924 97.322759 
L 311.169663 207.365058 
L 311.230402 204.919673 
L 311.35188 198.463858 
L 311.473358 218.88 
L 311.837793 218.88 
L 312.080749 218.115619 
L 312.323706 216.530598 
L 312.566662 213.243898 
L 312.809619 206.428597 
L 313.052575 192.29639 
L 313.295531 162.991846 
L 313.538488 102.225942 
L 313.599227 78.752734 
L 313.659966 205.508055 
L 313.720705 202.69127 
L 313.963662 184.546668 
L 314.206618 146.922022 
L 314.388835 94.018293 
L 314.449574 207.034611 
L 314.510313 204.523137 
L 314.75327 188.345228 
L 314.996226 154.798716 
L 315.239183 85.236668 
L 315.299922 206.156448 
L 315.360661 203.469342 
L 315.603617 186.160079 
L 315.846574 150.26759 
L 316.211008 75.840925 
L 316.271747 205.216874 
L 316.332487 202.341853 
L 316.575443 183.822117 
L 316.818399 145.419593 
L 317.000617 91.422095 
L 317.061356 206.774991 
L 317.122095 204.211593 
L 317.365051 187.699211 
L 317.608008 153.459135 
L 317.850964 82.458912 
L 317.911703 205.878673 
L 317.972442 203.136011 
L 318.215399 185.468884 
L 318.458355 148.834329 
L 318.762051 97.322759 
L 322.16344 97.322759 
L 322.224179 72.868915 
L 322.284918 204.919673 
L 322.345658 201.985212 
L 322.588614 183.082586 
L 322.83157 143.886101 
L 323.013788 88.772221 
L 323.074527 206.510004 
L 323.135266 203.893609 
L 323.378222 187.039838 
L 323.621179 152.091858 
L 323.864135 79.623727 
L 323.924874 205.595154 
L 323.985613 202.795789 
L 324.22857 184.763399 
L 324.471526 147.371436 
L 324.775222 69.83546 
L 324.835961 204.616328 
L 324.8967 201.621197 
L 325.139656 182.327765 
L 325.382613 142.320905 
L 325.56483 86.067562 
L 325.625569 206.239538 
L 325.686308 203.56905 
L 325.929265 186.366832 
L 326.172221 150.696313 
L 326.415177 76.729925 
L 326.475916 205.305774 
L 326.536656 202.448533 
L 326.779612 184.043329 
L 327.022568 145.878298 
L 327.387003 66.739288 
L 327.447742 204.30671 
L 327.508481 201.249657 
L 327.751438 181.557339 
L 327.812177 173.950411 
L 327.933655 218.88 
L 329.148437 218.88 
L 329.391393 218.115619 
L 329.63435 216.530598 
L 329.877306 213.243898 
L 330.120263 206.428597 
L 330.363219 192.29639 
L 330.606175 162.991846 
L 330.849132 102.225942 
L 330.909871 78.752734 
L 330.97061 205.508055 
L 331.031349 202.69127 
L 331.274305 184.546668 
L 331.517262 146.922022 
L 331.820957 68.903556 
L 331.881696 204.523137 
L 331.942436 201.509369 
L 332.185392 182.095878 
L 332.428348 141.840063 
L 332.610566 85.236668 
L 332.671305 206.156448 
L 332.732044 203.469342 
L 332.975 186.160079 
L 333.217957 150.26759 
L 333.460913 75.840925 
L 333.521652 205.216874 
L 333.582391 202.341853 
L 333.825348 183.822117 
L 334.068304 145.419593 
L 334.372 91.422095 
L 346.155385 91.422095 
L 346.216124 65.788118 
L 346.276863 204.211593 
L 346.337603 201.135516 
L 346.580559 181.320657 
L 346.823515 140.232566 
L 347.005733 82.458912 
L 347.066472 205.878673 
L 347.127211 203.136011 
L 347.370167 185.468884 
L 347.613124 148.834329 
L 347.85608 72.868915 
L 347.916819 204.919673 
L 347.977558 201.985212 
L 348.220515 183.082586 
L 348.463471 143.886101 
L 348.767167 88.772221 
L 357.149163 88.772221 
L 357.149163 88.772221 
" clip-path="url(#p236a1c3a0e)" style="fill: none; stroke: #1f77b4; stroke-width: 1.5; stroke-linecap: square"/>
   </g>
   <g id="patch_3">
    <path d="M 37.567344 228.96 
L 37.567344 7.2 
" style="fill: none; stroke: #000000; stroke-width: 0.8; stroke-linejoin: miter; stroke-linecap: square"/>
   </g>
   <g id="patch_4">
    <path d="M 372.367344 228.96 
L 372.367344 7.2 
" style="fill: none; stroke: #000000; stroke-width: 0.8; stroke-linejoin: miter; stroke-linecap: square"/>
   </g>
   <g id="patch_5">
    <path d="M 37.567344 228.96 
L 372.367344 228.96 
" style="fill: none; stroke: #000000; stroke-width: 0.8; stroke-linejoin: miter; stroke-linecap: square"/>
   </g>
   <g id="patch_6">
    <path d="M 37.567344 7.2 
L 372.367344 7.2 
" style="fill: none; stroke: #000000; stroke-width: 0.8; stroke-linejoin: miter; stroke-linecap: square"/>
   </g>
   <g id="legend_1">
    <g id="patch_7">
     <path d="M 314.548024 29.420307 
L 365.367344 29.420307 
Q 367.367344 29.420307 367.367344 27.420307 
L 367.367344 14.2 
Q 367.367344 12.2 365.367344 12.2 
L 314.548024 12.2 
Q 312.548024 12.2 312.548024 14.2 
L 312.548024 27.420307 
Q 312.548024 29.420307 314.548024 29.420307 
z
" style="fill: #ffffff; opacity: 0.8; stroke: #cccccc; stroke-linejoin: miter"/>
    </g>
    <g id="line2d_14">
     <path d="M 316.548024 19.79832 
L 326.548024 19.79832 
L 336.548024 19.79832 
" style="fill: none; stroke: #1f77b4; stroke-width: 1.5; stroke-linecap: square"/>
    </g>
    <g id="text_15">
     <!-- CFL -->
     <g transform="translate(344.548024 23.29832) scale(0.1 -0.1)">
      <use xlink:href="#NimbusSanL-Regu-43" transform="scale(0.996264)"/>
      <use xlink:href="#NimbusSanL-Regu-46" transform="translate(71.929985 0) scale(0.996264)"/>
      <use xlink:href="#NimbusSanL-Regu-4c" transform="translate(132.801616 0) scale(0.996264)"/>
     </g>
    </g>
   </g>
  </g>
 </g>
 <defs>
  <clipPath id="p236a1c3a0e">
   <rect x="37.567344" y="7.2" width="334.8" height="221.76"/>
  </clipPath>
 </defs>
</svg>
