<?xml version="1.0" encoding="utf-8" standalone="no"?>
<!DOCTYPE svg PUBLIC "-//W3C//DTD SVG 1.1//EN"
  "http://www.w3.org/Graphics/SVG/1.1/DTD/svg11.dtd">
<svg xmlns:xlink="http://www.w3.org/1999/xlink" width="379.567344pt" height="265.600613pt" viewBox="0 0 379.567344 265.600613" xmlns="http://www.w3.org/2000/svg" version="1.1">
 <metadata>
  <rdf:RDF xmlns:dc="http://purl.org/dc/elements/1.1/" xmlns:cc="http://creativecommons.org/ns#" xmlns:rdf="http://www.w3.org/1999/02/22-rdf-syntax-ns#">
   <cc:Work>
    <dc:type rdf:resource="http://purl.org/dc/dcmitype/StillImage"/>
    <dc:date>2025-07-17T19:58:05.390919</dc:date>
    <dc:format>image/svg+xml</dc:format>
    <dc:creator>
     <cc:Agent>
      <dc:title>Matplotlib v3.10.3, https://matplotlib.org/</dc:title>
     </cc:Agent>
    </dc:creator>
   </cc:Work>
  </rdf:RDF>
 </metadata>
 <defs>
  <style type="text/css">*{stroke-linejoin: round; stroke-linecap: butt}</style>
 </defs>
 <g id="figure_1">
  <g id="patch_1">
   <path d="M 0 265.600613 
L 379.567344 265.600613 
L 379.567344 0 
L 0 0 
z
" style="fill: #ffffff"/>
  </g>
  <g id="axes_1">
   <g id="patch_2">
    <path d="M 37.567344 228.96 
L 372.367344 228.96 
L 372.367344 7.2 
L 37.567344 7.2 
z
" style="fill: #ffffff"/>
   </g>
   <g id="matplotlib.axis_1">
    <g id="xtick_1">
     <g id="line2d_1">
      <defs>
       <path id="mc6468885f3" d="M 0 0 
L 0 3.5 
" style="stroke: #000000; stroke-width: 0.8"/>
      </defs>
      <g>
       <use xlink:href="#mc6468885f3" x="52.785526" y="228.96" style="stroke: #000000; stroke-width: 0.8"/>
      </g>
     </g>
     <g id="text_1">
      <!-- $\mathdefault{0}$ -->
      <g transform="translate(50.294859 243.05832) scale(0.1 -0.1)">
       <defs>
        <path id="CMR17-30" d="M 2688 2038 
C 2688 2430 2682 3099 2413 3613 
C 2176 4063 1798 4224 1466 4224 
C 1158 4224 768 4082 525 3620 
C 269 3137 243 2539 243 2038 
C 243 1671 250 1112 448 623 
C 723 -39 1216 -128 1466 -128 
C 1760 -128 2208 -7 2470 604 
C 2662 1048 2688 1568 2688 2038 
z
M 1466 -26 
C 1056 -26 813 328 723 816 
C 653 1196 653 1749 653 2109 
C 653 2604 653 3015 736 3407 
C 858 3954 1216 4121 1466 4121 
C 1728 4121 2067 3947 2189 3420 
C 2272 3054 2278 2623 2278 2109 
C 2278 1691 2278 1176 2202 797 
C 2067 96 1690 -26 1466 -26 
z
" transform="scale(0.015625)"/>
       </defs>
       <use xlink:href="#CMR17-30" transform="scale(0.996264)"/>
      </g>
     </g>
    </g>
    <g id="xtick_2">
     <g id="line2d_2">
      <g>
       <use xlink:href="#mc6468885f3" x="112.231549" y="228.96" style="stroke: #000000; stroke-width: 0.8"/>
      </g>
     </g>
     <g id="text_2">
      <!-- $\mathdefault{50}$ -->
      <g transform="translate(107.250214 243.05832) scale(0.1 -0.1)">
       <defs>
        <path id="CMR17-35" d="M 730 3750 
C 794 3724 1056 3641 1325 3641 
C 1920 3641 2246 3961 2432 4140 
C 2432 4191 2432 4224 2394 4224 
C 2387 4224 2374 4224 2323 4198 
C 2099 4102 1837 4032 1517 4032 
C 1325 4032 1037 4055 723 4191 
C 653 4224 640 4224 634 4224 
C 602 4224 595 4217 595 4090 
L 595 2231 
C 595 2113 595 2080 659 2080 
C 691 2080 704 2093 736 2139 
C 941 2435 1222 2560 1542 2560 
C 1766 2560 2246 2415 2246 1293 
C 2246 1087 2246 716 2054 422 
C 1894 159 1645 25 1370 25 
C 947 25 518 319 403 812 
C 429 806 480 793 506 793 
C 589 793 749 838 749 1036 
C 749 1209 627 1280 506 1280 
C 358 1280 262 1190 262 1011 
C 262 454 704 -128 1382 -128 
C 2042 -128 2669 441 2669 1267 
C 2669 2054 2170 2662 1549 2662 
C 1222 2662 947 2540 730 2304 
L 730 3750 
z
" transform="scale(0.015625)"/>
       </defs>
       <use xlink:href="#CMR17-35" transform="scale(0.996264)"/>
       <use xlink:href="#CMR17-30" transform="translate(45.690477 0) scale(0.996264)"/>
      </g>
     </g>
    </g>
    <g id="xtick_3">
     <g id="line2d_3">
      <g>
       <use xlink:href="#mc6468885f3" x="171.677572" y="228.96" style="stroke: #000000; stroke-width: 0.8"/>
      </g>
     </g>
     <g id="text_3">
      <!-- $\mathdefault{100}$ -->
      <g transform="translate(164.205569 243.05832) scale(0.1 -0.1)">
       <defs>
        <path id="CMR17-31" d="M 1702 4083 
C 1702 4217 1696 4224 1606 4224 
C 1357 3927 979 3833 621 3820 
C 602 3820 570 3820 563 3808 
C 557 3795 557 3782 557 3648 
C 755 3648 1088 3686 1344 3839 
L 1344 467 
C 1344 243 1331 166 781 166 
L 589 166 
L 589 0 
C 896 6 1216 12 1523 12 
C 1830 12 2150 6 2458 0 
L 2458 166 
L 2266 166 
C 1715 166 1702 236 1702 467 
L 1702 4083 
z
" transform="scale(0.015625)"/>
       </defs>
       <use xlink:href="#CMR17-31" transform="scale(0.996264)"/>
       <use xlink:href="#CMR17-30" transform="translate(45.690477 0) scale(0.996264)"/>
       <use xlink:href="#CMR17-30" transform="translate(91.380954 0) scale(0.996264)"/>
      </g>
     </g>
    </g>
    <g id="xtick_4">
     <g id="line2d_4">
      <g>
       <use xlink:href="#mc6468885f3" x="231.123594" y="228.96" style="stroke: #000000; stroke-width: 0.8"/>
      </g>
     </g>
     <g id="text_4">
      <!-- $\mathdefault{150}$ -->
      <g transform="translate(223.651592 243.05832) scale(0.1 -0.1)">
       <use xlink:href="#CMR17-31" transform="scale(0.996264)"/>
       <use xlink:href="#CMR17-35" transform="translate(45.690477 0) scale(0.996264)"/>
       <use xlink:href="#CMR17-30" transform="translate(91.380954 0) scale(0.996264)"/>
      </g>
     </g>
    </g>
    <g id="xtick_5">
     <g id="line2d_5">
      <g>
       <use xlink:href="#mc6468885f3" x="290.569617" y="228.96" style="stroke: #000000; stroke-width: 0.8"/>
      </g>
     </g>
     <g id="text_5">
      <!-- $\mathdefault{200}$ -->
      <g transform="translate(283.097614 243.05832) scale(0.1 -0.1)">
       <defs>
        <path id="CMR17-32" d="M 2669 990 
L 2554 990 
C 2490 537 2438 460 2413 422 
C 2381 371 1920 371 1830 371 
L 602 371 
C 832 620 1280 1073 1824 1596 
C 2214 1966 2669 2400 2669 3033 
C 2669 3788 2067 4224 1395 4224 
C 691 4224 262 3603 262 3027 
C 262 2777 448 2745 525 2745 
C 589 2745 781 2783 781 3007 
C 781 3206 614 3264 525 3264 
C 486 3264 448 3257 422 3244 
C 544 3788 915 4057 1306 4057 
C 1862 4057 2227 3616 2227 3033 
C 2227 2477 1901 1998 1536 1583 
L 262 147 
L 262 0 
L 2515 0 
L 2669 990 
z
" transform="scale(0.015625)"/>
       </defs>
       <use xlink:href="#CMR17-32" transform="scale(0.996264)"/>
       <use xlink:href="#CMR17-30" transform="translate(45.690477 0) scale(0.996264)"/>
       <use xlink:href="#CMR17-30" transform="translate(91.380954 0) scale(0.996264)"/>
      </g>
     </g>
    </g>
    <g id="xtick_6">
     <g id="line2d_6">
      <g>
       <use xlink:href="#mc6468885f3" x="350.01564" y="228.96" style="stroke: #000000; stroke-width: 0.8"/>
      </g>
     </g>
     <g id="text_6">
      <!-- $\mathdefault{250}$ -->
      <g transform="translate(342.543637 243.05832) scale(0.1 -0.1)">
       <use xlink:href="#CMR17-32" transform="scale(0.996264)"/>
       <use xlink:href="#CMR17-35" transform="translate(45.690477 0) scale(0.996264)"/>
       <use xlink:href="#CMR17-30" transform="translate(91.380954 0) scale(0.996264)"/>
      </g>
     </g>
    </g>
    <g id="text_7">
     <!-- Iteration -->
     <g transform="translate(187.019968 256.278627) scale(0.1 -0.1)">
      <defs>
       <path id="NimbusSanL-Regu-49" d="M 1242 4672 
L 640 4672 
L 640 0 
L 1242 0 
L 1242 4672 
z
" transform="scale(0.015625)"/>
       <path id="NimbusSanL-Regu-74" d="M 1626 3328 
L 1075 3328 
L 1075 4249 
L 544 4249 
L 544 3328 
L 90 3328 
L 90 2892 
L 544 2892 
L 544 402 
C 544 64 774 -128 1190 -128 
C 1318 -128 1446 -116 1626 -84 
L 1626 364 
C 1555 345 1472 339 1370 339 
C 1139 339 1075 402 1075 634 
L 1075 2892 
L 1626 2892 
L 1626 3328 
z
" transform="scale(0.015625)"/>
       <path id="NimbusSanL-Regu-65" d="M 3283 1484 
C 3283 1998 3245 2311 3149 2565 
C 2931 3123 2419 3456 1792 3456 
C 858 3456 256 2734 256 1619 
C 256 545 838 -128 1779 -128 
C 2547 -128 3078 307 3213 1018 
L 2675 1018 
C 2528 588 2227 364 1798 364 
C 1459 364 1171 514 992 787 
C 864 974 819 1161 813 1484 
L 3283 1484 
z
M 826 1920 
C 870 2552 1248 2963 1786 2963 
C 2310 2963 2714 2519 2714 1959 
C 2714 1946 2714 1933 2707 1920 
L 826 1920 
z
" transform="scale(0.015625)"/>
       <path id="NimbusSanL-Regu-72" d="M 442 3328 
L 442 0 
L 979 0 
L 979 1727 
C 979 2203 1101 2514 1357 2698 
C 1523 2819 1683 2857 2054 2863 
L 2054 3404 
C 1965 3449 1920 3456 1850 3456 
C 1504 3456 1242 3251 934 2750 
L 934 3328 
L 442 3328 
z
" transform="scale(0.015625)"/>
       <path id="NimbusSanL-Regu-61" d="M 3424 332 
C 3366 320 3341 320 3309 320 
C 3123 320 3021 415 3021 581 
L 3021 2542 
C 3021 3135 2586 3456 1760 3456 
C 1274 3456 870 3315 646 3065 
C 493 2893 429 2702 416 2370 
L 954 2370 
C 998 2778 1242 2963 1741 2963 
C 2221 2963 2490 2784 2490 2466 
L 2490 2326 
C 2490 2103 2355 2007 1933 1956 
C 1178 1861 1062 1835 858 1753 
C 467 1593 269 1294 269 861 
C 269 256 691 -128 1370 -128 
C 1792 -128 2131 19 2509 364 
C 2547 25 2714 -128 3059 -128 
C 3168 -128 3251 -116 3424 -71 
L 3424 332 
z
M 2490 1071 
C 2490 893 2438 785 2278 638 
C 2061 441 1798 339 1485 339 
C 1069 339 826 536 826 874 
C 826 1224 1062 1402 1632 1485 
C 2195 1562 2310 1587 2490 1670 
L 2490 1071 
z
" transform="scale(0.015625)"/>
       <path id="NimbusSanL-Regu-69" d="M 960 3358 
L 429 3358 
L 429 0 
L 960 0 
L 960 3358 
z
M 960 4672 
L 422 4672 
L 422 3999 
L 960 3999 
L 960 4672 
z
" transform="scale(0.015625)"/>
       <path id="NimbusSanL-Regu-6f" d="M 1741 3456 
C 800 3456 230 2784 230 1663 
C 230 543 794 -128 1747 -128 
C 2688 -128 3264 543 3264 1638 
C 3264 2791 2707 3456 1741 3456 
z
M 1747 2963 
C 2349 2963 2707 2472 2707 1644 
C 2707 861 2336 364 1747 364 
C 1152 364 787 855 787 1663 
C 787 2466 1152 2963 1747 2963 
z
" transform="scale(0.015625)"/>
       <path id="NimbusSanL-Regu-6e" d="M 448 3328 
L 448 0 
L 986 0 
L 986 1835 
C 986 2539 1344 2988 1894 2988 
C 2317 2988 2586 2732 2586 2328 
L 2586 0 
L 3117 0 
L 3117 2539 
C 3117 3097 2701 3456 2054 3456 
C 1555 3456 1235 3263 941 2796 
L 941 3328 
L 448 3328 
z
" transform="scale(0.015625)"/>
      </defs>
      <use xlink:href="#NimbusSanL-Regu-49" transform="scale(0.996264)"/>
      <use xlink:href="#NimbusSanL-Regu-74" transform="translate(27.69517 0) scale(0.996264)"/>
      <use xlink:href="#NimbusSanL-Regu-65" transform="translate(55.390339 0) scale(0.996264)"/>
      <use xlink:href="#NimbusSanL-Regu-72" transform="translate(110.782016 0) scale(0.996264)"/>
      <use xlink:href="#NimbusSanL-Regu-61" transform="translate(142.961149 0) scale(0.996264)"/>
      <use xlink:href="#NimbusSanL-Regu-74" transform="translate(198.352826 0) scale(0.996264)"/>
      <use xlink:href="#NimbusSanL-Regu-69" transform="translate(226.047996 0) scale(0.996264)"/>
      <use xlink:href="#NimbusSanL-Regu-6f" transform="translate(248.16478 0) scale(0.996264)"/>
      <use xlink:href="#NimbusSanL-Regu-6e" transform="translate(303.556457 0) scale(0.996264)"/>
     </g>
    </g>
   </g>
   <g id="matplotlib.axis_2">
    <g id="ytick_1">
     <g id="line2d_7">
      <defs>
       <path id="m46bc225f77" d="M 0 0 
L -3.5 0 
" style="stroke: #000000; stroke-width: 0.8"/>
      </defs>
      <g>
       <use xlink:href="#m46bc225f77" x="37.567344" y="219.606897" style="stroke: #000000; stroke-width: 0.8"/>
      </g>
     </g>
     <g id="text_8">
      <!-- $\mathdefault{0}$ -->
      <g transform="translate(25.586009 223.156057) scale(0.1 -0.1)">
       <use xlink:href="#CMR17-30" transform="scale(0.996264)"/>
      </g>
     </g>
    </g>
    <g id="ytick_2">
     <g id="line2d_8">
      <g>
       <use xlink:href="#m46bc225f77" x="37.567344" y="183.26206" style="stroke: #000000; stroke-width: 0.8"/>
      </g>
     </g>
     <g id="text_9">
      <!-- $\mathdefault{5}$ -->
      <g transform="translate(25.586009 186.811221) scale(0.1 -0.1)">
       <use xlink:href="#CMR17-35" transform="scale(0.996264)"/>
      </g>
     </g>
    </g>
    <g id="ytick_3">
     <g id="line2d_9">
      <g>
       <use xlink:href="#m46bc225f77" x="37.567344" y="146.917224" style="stroke: #000000; stroke-width: 0.8"/>
      </g>
     </g>
     <g id="text_10">
      <!-- $\mathdefault{10}$ -->
      <g transform="translate(20.604674 150.466384) scale(0.1 -0.1)">
       <use xlink:href="#CMR17-31" transform="scale(0.996264)"/>
       <use xlink:href="#CMR17-30" transform="translate(45.690477 0) scale(0.996264)"/>
      </g>
     </g>
    </g>
    <g id="ytick_4">
     <g id="line2d_10">
      <g>
       <use xlink:href="#m46bc225f77" x="37.567344" y="110.572388" style="stroke: #000000; stroke-width: 0.8"/>
      </g>
     </g>
     <g id="text_11">
      <!-- $\mathdefault{15}$ -->
      <g transform="translate(20.604674 114.121548) scale(0.1 -0.1)">
       <use xlink:href="#CMR17-31" transform="scale(0.996264)"/>
       <use xlink:href="#CMR17-35" transform="translate(45.690477 0) scale(0.996264)"/>
      </g>
     </g>
    </g>
    <g id="ytick_5">
     <g id="line2d_11">
      <g>
       <use xlink:href="#m46bc225f77" x="37.567344" y="74.227552" style="stroke: #000000; stroke-width: 0.8"/>
      </g>
     </g>
     <g id="text_12">
      <!-- $\mathdefault{20}$ -->
      <g transform="translate(20.604674 77.776712) scale(0.1 -0.1)">
       <use xlink:href="#CMR17-32" transform="scale(0.996264)"/>
       <use xlink:href="#CMR17-30" transform="translate(45.690477 0) scale(0.996264)"/>
      </g>
     </g>
    </g>
    <g id="ytick_6">
     <g id="line2d_12">
      <g>
       <use xlink:href="#m46bc225f77" x="37.567344" y="37.882715" style="stroke: #000000; stroke-width: 0.8"/>
      </g>
     </g>
     <g id="text_13">
      <!-- $\mathdefault{25}$ -->
      <g transform="translate(20.604674 41.431876) scale(0.1 -0.1)">
       <use xlink:href="#CMR17-32" transform="scale(0.996264)"/>
       <use xlink:href="#CMR17-35" transform="translate(45.690477 0) scale(0.996264)"/>
      </g>
     </g>
    </g>
    <g id="text_14">
     <!-- Average CFL - Blade_17 -->
     <g transform="translate(14.482687 171.548902) rotate(-90) scale(0.1 -0.1)">
      <defs>
       <path id="NimbusSanL-Regu-41" d="M 3034 1408 
L 3514 0 
L 4179 0 
L 2541 4672 
L 1773 4672 
L 109 0 
L 742 0 
L 1235 1408 
L 3034 1408 
z
M 2867 1907 
L 1382 1907 
L 2150 4032 
L 2867 1907 
z
" transform="scale(0.015625)"/>
       <path id="NimbusSanL-Regu-76" d="M 1824 0 
L 3110 3328 
L 2509 3328 
L 1562 629 
L 666 3328 
L 64 3328 
L 1242 0 
L 1824 0 
z
" transform="scale(0.015625)"/>
       <path id="NimbusSanL-Regu-67" d="M 2637 3359 
L 2637 2873 
C 2368 3270 2042 3456 1613 3456 
C 762 3456 186 2714 186 1632 
C 186 1084 333 638 608 320 
C 858 38 1216 -128 1568 -128 
C 1990 -128 2285 51 2586 473 
L 2586 300 
C 2586 -155 2528 -441 2394 -634 
C 2253 -841 1978 -960 1651 -960 
C 1408 -960 1190 -894 1043 -774 
C 922 -674 870 -581 838 -375 
L 294 -375 
C 352 -1031 845 -1408 1632 -1408 
C 2131 -1408 2560 -1248 2778 -980 
C 3034 -661 3130 -222 3130 568 
L 3130 3359 
L 2637 3359 
z
M 1670 2963 
C 2246 2963 2586 2479 2586 1644 
C 2586 848 2240 364 1677 364 
C 1094 364 742 855 742 1663 
C 742 2466 1101 2963 1670 2963 
z
" transform="scale(0.015625)"/>
       <path id="NimbusSanL-Regu-43" d="M 4237 3219 
C 4051 4236 3462 4736 2438 4736 
C 1811 4736 1306 4537 960 4154 
C 538 3696 307 3035 307 2284 
C 307 1522 544 867 986 415 
C 1344 44 1805 -128 2413 -128 
C 3552 -128 4192 485 4333 1712 
L 3718 1712 
C 3667 1394 3603 1178 3507 994 
C 3315 612 2918 396 2419 396 
C 1491 396 902 1134 902 2291 
C 902 3480 1466 4211 2368 4211 
C 2746 4211 3098 4096 3290 3918 
C 3462 3759 3558 3562 3629 3219 
L 4237 3219 
z
" transform="scale(0.015625)"/>
       <path id="NimbusSanL-Regu-46" d="M 1171 2112 
L 3398 2112 
L 3398 2636 
L 1171 2636 
L 1171 4147 
L 3706 4147 
L 3706 4672 
L 576 4672 
L 576 0 
L 1171 0 
L 1171 2112 
z
" transform="scale(0.015625)"/>
       <path id="NimbusSanL-Regu-4c" d="M 1107 4672 
L 512 4672 
L 512 0 
L 3411 0 
L 3411 524 
L 1107 524 
L 1107 4672 
z
" transform="scale(0.015625)"/>
       <path id="NimbusSanL-Regu-2d" d="M 1818 1996 
L 294 1996 
L 294 1536 
L 1818 1536 
L 1818 1996 
z
" transform="scale(0.015625)"/>
       <path id="NimbusSanL-Regu-42" d="M 506 0 
L 2611 0 
C 3053 0 3379 121 3629 390 
C 3859 632 3987 961 3987 1321 
C 3987 1878 3731 2214 3136 2444 
C 3558 2643 3782 2994 3782 3476 
C 3782 3821 3654 4127 3411 4345 
C 3168 4569 2848 4672 2400 4672 
L 506 4672 
L 506 0 
z
M 1101 2636 
L 1101 4147 
L 2253 4147 
C 2586 4147 2771 4101 2931 3977 
C 3098 3847 3187 3652 3187 3391 
C 3187 3138 3098 2936 2931 2806 
C 2771 2682 2586 2636 2253 2636 
L 1101 2636 
z
M 1101 524 
L 1101 2112 
L 2554 2112 
C 2842 2112 3034 2042 3174 1890 
C 3315 1745 3392 1542 3392 1315 
C 3392 1093 3315 891 3174 746 
C 3034 594 2842 524 2554 524 
L 1101 524 
z
" transform="scale(0.015625)"/>
       <path id="NimbusSanL-Regu-6c" d="M 973 4672 
L 435 4672 
L 435 0 
L 973 0 
L 973 4672 
z
" transform="scale(0.015625)"/>
       <path id="NimbusSanL-Regu-64" d="M 3168 4672 
L 2637 4672 
L 2637 2937 
C 2413 3276 2054 3456 1606 3456 
C 736 3456 166 2759 166 1695 
C 166 568 723 -128 1626 -128 
C 2086 -128 2406 44 2694 460 
L 2694 19 
L 3168 19 
L 3168 4672 
z
M 1696 2956 
C 2272 2956 2637 2447 2637 1651 
C 2637 880 2266 371 1702 371 
C 1114 371 723 887 723 1663 
C 723 2440 1114 2956 1696 2956 
z
" transform="scale(0.015625)"/>
       <path id="NimbusSanL-Regu-31" d="M 1658 3232 
L 1658 0 
L 2221 0 
L 2221 4537 
L 1850 4537 
C 1651 3840 1523 3744 653 3635 
L 653 3232 
L 1658 3232 
z
" transform="scale(0.015625)"/>
       <path id="NimbusSanL-Regu-37" d="M 3328 4544 
L 294 4544 
L 294 3987 
L 2746 3987 
C 1664 2442 1222 1493 883 0 
L 1485 0 
C 1734 1454 2304 2704 3328 4070 
L 3328 4544 
z
" transform="scale(0.015625)"/>
      </defs>
      <use xlink:href="#NimbusSanL-Regu-41" transform="scale(0.996264)"/>
      <use xlink:href="#NimbusSanL-Regu-76" transform="translate(62.465918 0) scale(0.996264)"/>
      <use xlink:href="#NimbusSanL-Regu-65" transform="translate(109.788488 0) scale(0.996264)"/>
      <use xlink:href="#NimbusSanL-Regu-72" transform="translate(165.180165 0) scale(0.996264)"/>
      <use xlink:href="#NimbusSanL-Regu-61" transform="translate(197.359298 0) scale(0.996264)"/>
      <use xlink:href="#NimbusSanL-Regu-67" transform="translate(252.750975 0) scale(0.996264)"/>
      <use xlink:href="#NimbusSanL-Regu-65" transform="translate(308.142652 0) scale(0.996264)"/>
      <use xlink:href="#NimbusSanL-Regu-43" transform="translate(391.229499 0) scale(0.996264)"/>
      <use xlink:href="#NimbusSanL-Regu-46" transform="translate(463.159484 0) scale(0.996264)"/>
      <use xlink:href="#NimbusSanL-Regu-4c" transform="translate(524.031114 0) scale(0.996264)"/>
      <use xlink:href="#NimbusSanL-Regu-2d" transform="translate(607.117961 0) scale(0.996264)"/>
      <use xlink:href="#NimbusSanL-Regu-42" transform="translate(667.98836 0) scale(0.996264)"/>
      <use xlink:href="#NimbusSanL-Regu-6c" transform="translate(734.438391 0) scale(0.996264)"/>
      <use xlink:href="#NimbusSanL-Regu-61" transform="translate(756.555176 0) scale(0.996264)"/>
      <use xlink:href="#NimbusSanL-Regu-64" transform="translate(811.946853 0) scale(0.996264)"/>
      <use xlink:href="#NimbusSanL-Regu-65" transform="translate(867.33853 0) scale(0.996264)"/>
      <use xlink:href="#NimbusSanL-Regu-31" transform="translate(958.595772 0) scale(0.996264)"/>
      <use xlink:href="#NimbusSanL-Regu-37" transform="translate(1013.987449 0) scale(0.996264)"/>
      <path d="M 928.707548 0 
L 958.595772 0 
L 958.595772 0.3985 
L 928.707548 0.3985 
L 928.707548 0 
z
"/>
     </g>
    </g>
   </g>
   <g id="line2d_13">
    <path d="M 52.785526 115.91432 
L 53.974447 95.963913 
L 55.163367 71.806152 
L 56.352288 204.826822 
L 57.541208 201.870807 
L 58.730128 198.32359 
L 59.919049 194.066928 
L 61.107969 188.958934 
L 62.29689 182.829342 
L 63.48581 175.473831 
L 64.674731 166.647218 
L 65.863651 156.055282 
L 67.052572 143.344959 
L 68.241492 128.092572 
L 69.430413 109.789707 
L 70.619333 87.826268 
L 71.808253 61.521087 
L 77.752856 61.521087 
L 78.941776 29.943384 
L 80.130697 29.943384 
L 81.319617 200.640545 
L 82.508538 196.847275 
L 83.697458 192.295351 
L 84.886378 186.833042 
L 86.075299 180.278271 
L 87.264219 172.412546 
L 88.45314 162.973675 
L 89.64206 151.647031 
L 90.830981 138.055058 
L 92.019901 121.74469 
L 93.208822 102.172249 
L 94.397742 78.705553 
L 95.586663 50.694947 
L 96.775583 17.28 
L 97.964503 199.374207 
L 99.153424 195.327669 
L 100.342344 190.471824 
L 101.531265 184.644809 
L 102.720185 177.652391 
L 103.909106 169.261638 
L 105.098026 159.193977 
L 106.286947 147.118602 
L 107.475867 132.639118 
L 108.664788 115.275893 
L 109.853708 94.526869 
L 111.042628 69.725668 
L 112.231549 40.077807 
L 113.420469 40.077807 
L 114.60939 201.653988 
L 115.79831 198.063406 
L 116.987231 193.754708 
L 118.176151 188.58427 
L 119.365072 182.379745 
L 120.553992 174.934314 
L 121.742913 165.999798 
L 122.931833 155.281037 
L 124.120753 142.445729 
L 125.309674 127.053982 
L 126.498594 108.589837 
L 127.687515 86.442912 
L 128.876435 59.878152 
L 130.065356 59.878152 
L 131.254276 28.023497 
L 132.443197 200.448557 
L 133.632117 196.616889 
L 134.821038 192.018887 
L 136.009958 186.501285 
L 137.198878 179.880163 
L 138.387799 171.934816 
L 139.576719 162.4004 
L 140.76564 150.959919 
L 141.95456 137.239037 
L 143.143481 120.782602 
L 144.332401 101.038406 
L 145.521322 77.345954 
L 146.710242 48.922501 
L 147.899163 202.538457 
L 149.088083 199.124769 
L 150.277003 195.028344 
L 151.465924 190.112633 
L 152.654844 184.21378 
L 153.843765 177.135157 
L 155.032685 168.640809 
L 156.221606 158.447592 
L 157.410526 146.215731 
L 158.599447 131.537498 
L 159.788367 113.926802 
L 160.977288 92.798121 
L 162.166208 67.452648 
L 163.355128 67.452648 
L 164.544049 204.391472 
L 165.732969 201.348387 
L 166.92189 197.696685 
L 168.11081 193.314642 
L 169.299731 188.056192 
L 170.488651 181.746051 
L 171.677572 174.173994 
L 172.866492 165.08818 
L 174.055413 154.189341 
L 175.244333 141.112597 
L 176.433253 125.424963 
L 177.622174 106.603231 
L 178.811094 84.021005 
L 180.000015 56.932444 
L 181.188935 203.339451 
L 182.377856 200.085962 
L 183.566776 196.181776 
L 184.755697 191.496751 
L 185.944617 185.874722 
L 187.133538 179.128287 
L 188.322458 171.032723 
L 189.511378 161.320388 
L 190.700299 149.670675 
L 191.889219 135.693799 
L 193.07814 118.923966 
L 194.26706 98.805042 
L 195.455981 74.670999 
L 197.833822 74.670999 
L 199.022742 45.732432 
L 200.211663 202.21945 
L 201.400583 198.741961 
L 202.589503 194.568974 
L 203.778424 189.561389 
L 204.967344 183.552288 
L 206.156265 176.341866 
L 207.345185 167.690068 
L 208.534106 157.312041 
L 209.723026 144.861027 
L 210.911947 129.922161 
L 212.100867 111.996254 
L 213.289788 90.486238 
L 214.478708 64.675424 
L 215.667628 33.703686 
L 216.856549 201.016576 
L 218.045469 197.298511 
L 219.23439 192.836834 
L 220.42331 187.482822 
L 221.612231 181.058007 
L 222.801151 218.88 
L 226.367913 218.350819 
L 228.745753 217.798145 
L 231.123594 217.002294 
L 233.501435 215.856269 
L 234.690356 215.106144 
L 235.879276 214.205993 
L 237.068197 213.125813 
L 238.257117 211.829596 
L 239.446038 210.274135 
L 240.634958 208.407583 
L 241.823878 206.16772 
L 243.012799 203.479885 
L 244.201719 200.254483 
L 245.39064 196.384 
L 246.57956 191.739421 
L 247.768481 186.165926 
L 248.957401 179.477732 
L 250.146322 171.451898 
L 251.335242 161.820899 
L 252.524163 150.263699 
L 253.713083 136.39506 
L 254.902003 119.752692 
L 256.090924 99.781851 
L 257.279844 75.816842 
L 258.468765 47.060814 
L 259.657685 202.352288 
L 260.846606 198.901367 
L 262.035526 194.760261 
L 263.224447 189.790934 
L 264.413367 183.827741 
L 265.602288 176.67191 
L 266.791208 168.084912 
L 267.980128 157.780693 
L 269.169049 145.415452 
L 270.357969 130.577163 
L 271.54689 112.771217 
L 272.73581 91.409972 
L 273.924731 65.870951 
L 275.113651 218.88 
L 278.680413 218.350819 
L 281.058253 217.798145 
L 283.436094 217.002294 
L 285.813935 215.856269 
L 287.002856 215.106144 
L 288.191776 214.205993 
L 289.380697 213.125813 
L 290.569617 211.829596 
L 291.758538 210.274135 
L 292.947458 208.407615 
L 294.136378 206.167759 
L 295.325299 203.479932 
L 296.514219 200.254539 
L 297.70314 196.384067 
L 298.89206 191.739581 
L 300.080981 186.166118 
L 301.269901 179.478077 
L 302.458822 171.452429 
L 303.647742 161.821535 
L 304.836663 150.264463 
L 306.025583 136.395976 
L 307.214503 119.754078 
L 308.403424 99.784547 
L 309.592344 75.831846 
L 310.781265 47.115087 
L 311.970185 202.357716 
L 313.159106 198.90788 
L 314.348026 194.768076 
L 315.536947 189.800312 
L 316.725867 183.838995 
L 317.914788 176.685415 
L 319.103708 168.101266 
L 320.292628 157.801028 
L 321.481549 145.441594 
L 322.670469 130.611453 
L 323.85939 112.816206 
L 325.04831 91.467833 
L 326.237231 218.88 
L 329.803992 218.350819 
L 332.181833 217.798145 
L 334.559674 217.002294 
L 336.937515 215.856269 
L 338.126435 215.106144 
L 339.315356 214.205993 
L 340.504276 213.125813 
L 341.693197 211.829596 
L 342.882117 210.274135 
L 344.071038 208.407583 
L 345.259958 206.16772 
L 346.448878 203.479885 
L 347.637799 200.254483 
L 348.826719 196.384 
L 350.01564 191.739421 
L 351.20456 186.166022 
L 352.393481 179.477943 
L 353.582401 171.452248 
L 354.771322 161.82158 
L 355.960242 150.265775 
L 357.149163 136.401038 
L 357.149163 136.401038 
" clip-path="url(#p31377caf13)" style="fill: none; stroke: #1f77b4; stroke-width: 1.5; stroke-linecap: square"/>
   </g>
   <g id="patch_3">
    <path d="M 37.567344 228.96 
L 37.567344 7.2 
" style="fill: none; stroke: #000000; stroke-width: 0.8; stroke-linejoin: miter; stroke-linecap: square"/>
   </g>
   <g id="patch_4">
    <path d="M 372.367344 228.96 
L 372.367344 7.2 
" style="fill: none; stroke: #000000; stroke-width: 0.8; stroke-linejoin: miter; stroke-linecap: square"/>
   </g>
   <g id="patch_5">
    <path d="M 37.567344 228.96 
L 372.367344 228.96 
" style="fill: none; stroke: #000000; stroke-width: 0.8; stroke-linejoin: miter; stroke-linecap: square"/>
   </g>
   <g id="patch_6">
    <path d="M 37.567344 7.2 
L 372.367344 7.2 
" style="fill: none; stroke: #000000; stroke-width: 0.8; stroke-linejoin: miter; stroke-linecap: square"/>
   </g>
   <g id="legend_1">
    <g id="patch_7">
     <path d="M 314.548024 29.420307 
L 365.367344 29.420307 
Q 367.367344 29.420307 367.367344 27.420307 
L 367.367344 14.2 
Q 367.367344 12.2 365.367344 12.2 
L 314.548024 12.2 
Q 312.548024 12.2 312.548024 14.2 
L 312.548024 27.420307 
Q 312.548024 29.420307 314.548024 29.420307 
z
" style="fill: #ffffff; opacity: 0.8; stroke: #cccccc; stroke-linejoin: miter"/>
    </g>
    <g id="line2d_14">
     <path d="M 316.548024 19.79832 
L 326.548024 19.79832 
L 336.548024 19.79832 
" style="fill: none; stroke: #1f77b4; stroke-width: 1.5; stroke-linecap: square"/>
    </g>
    <g id="text_15">
     <!-- CFL -->
     <g transform="translate(344.548024 23.29832) scale(0.1 -0.1)">
      <use xlink:href="#NimbusSanL-Regu-43" transform="scale(0.996264)"/>
      <use xlink:href="#NimbusSanL-Regu-46" transform="translate(71.929985 0) scale(0.996264)"/>
      <use xlink:href="#NimbusSanL-Regu-4c" transform="translate(132.801616 0) scale(0.996264)"/>
     </g>
    </g>
   </g>
  </g>
 </g>
 <defs>
  <clipPath id="p31377caf13">
   <rect x="37.567344" y="7.2" width="334.8" height="221.76"/>
  </clipPath>
 </defs>
</svg>
