<?xml version="1.0" encoding="utf-8" standalone="no"?>
<!DOCTYPE svg PUBLIC "-//W3C//DTD SVG 1.1//EN"
  "http://www.w3.org/Graphics/SVG/1.1/DTD/svg11.dtd">
<svg xmlns:xlink="http://www.w3.org/1999/xlink" width="382.150386pt" height="265.600613pt" viewBox="0 0 382.150386 265.600613" xmlns="http://www.w3.org/2000/svg" version="1.1">
 <metadata>
  <rdf:RDF xmlns:dc="http://purl.org/dc/elements/1.1/" xmlns:cc="http://creativecommons.org/ns#" xmlns:rdf="http://www.w3.org/1999/02/22-rdf-syntax-ns#">
   <cc:Work>
    <dc:type rdf:resource="http://purl.org/dc/dcmitype/StillImage"/>
    <dc:date>2025-07-17T19:58:05.172946</dc:date>
    <dc:format>image/svg+xml</dc:format>
    <dc:creator>
     <cc:Agent>
      <dc:title>Matplotlib v3.10.3, https://matplotlib.org/</dc:title>
     </cc:Agent>
    </dc:creator>
   </cc:Work>
  </rdf:RDF>
 </metadata>
 <defs>
  <style type="text/css">*{stroke-linejoin: round; stroke-linecap: butt}</style>
 </defs>
 <g id="figure_1">
  <g id="patch_1">
   <path d="M 0 265.600613 
L 382.150386 265.600613 
L 382.150386 0 
L 0 0 
z
" style="fill: #ffffff"/>
  </g>
  <g id="axes_1">
   <g id="patch_2">
    <path d="M 40.150386 228.96 
L 374.950386 228.96 
L 374.950386 7.2 
L 40.150386 7.2 
z
" style="fill: #ffffff"/>
   </g>
   <g id="matplotlib.axis_1">
    <g id="xtick_1">
     <g id="line2d_1">
      <defs>
       <path id="m322c5048ce" d="M 0 0 
L 0 3.5 
" style="stroke: #000000; stroke-width: 0.8"/>
      </defs>
      <g>
       <use xlink:href="#m322c5048ce" x="55.368567" y="228.96" style="stroke: #000000; stroke-width: 0.8"/>
      </g>
     </g>
     <g id="text_1">
      <!-- $\mathdefault{0}$ -->
      <g transform="translate(52.8779 243.05832) scale(0.1 -0.1)">
       <defs>
        <path id="CMR17-30" d="M 2688 2038 
C 2688 2430 2682 3099 2413 3613 
C 2176 4063 1798 4224 1466 4224 
C 1158 4224 768 4082 525 3620 
C 269 3137 243 2539 243 2038 
C 243 1671 250 1112 448 623 
C 723 -39 1216 -128 1466 -128 
C 1760 -128 2208 -7 2470 604 
C 2662 1048 2688 1568 2688 2038 
z
M 1466 -26 
C 1056 -26 813 328 723 816 
C 653 1196 653 1749 653 2109 
C 653 2604 653 3015 736 3407 
C 858 3954 1216 4121 1466 4121 
C 1728 4121 2067 3947 2189 3420 
C 2272 3054 2278 2623 2278 2109 
C 2278 1691 2278 1176 2202 797 
C 2067 96 1690 -26 1466 -26 
z
" transform="scale(0.015625)"/>
       </defs>
       <use xlink:href="#CMR17-30" transform="scale(0.996264)"/>
      </g>
     </g>
    </g>
    <g id="xtick_2">
     <g id="line2d_2">
      <g>
       <use xlink:href="#m322c5048ce" x="114.81459" y="228.96" style="stroke: #000000; stroke-width: 0.8"/>
      </g>
     </g>
     <g id="text_2">
      <!-- $\mathdefault{50}$ -->
      <g transform="translate(109.833255 243.05832) scale(0.1 -0.1)">
       <defs>
        <path id="CMR17-35" d="M 730 3750 
C 794 3724 1056 3641 1325 3641 
C 1920 3641 2246 3961 2432 4140 
C 2432 4191 2432 4224 2394 4224 
C 2387 4224 2374 4224 2323 4198 
C 2099 4102 1837 4032 1517 4032 
C 1325 4032 1037 4055 723 4191 
C 653 4224 640 4224 634 4224 
C 602 4224 595 4217 595 4090 
L 595 2231 
C 595 2113 595 2080 659 2080 
C 691 2080 704 2093 736 2139 
C 941 2435 1222 2560 1542 2560 
C 1766 2560 2246 2415 2246 1293 
C 2246 1087 2246 716 2054 422 
C 1894 159 1645 25 1370 25 
C 947 25 518 319 403 812 
C 429 806 480 793 506 793 
C 589 793 749 838 749 1036 
C 749 1209 627 1280 506 1280 
C 358 1280 262 1190 262 1011 
C 262 454 704 -128 1382 -128 
C 2042 -128 2669 441 2669 1267 
C 2669 2054 2170 2662 1549 2662 
C 1222 2662 947 2540 730 2304 
L 730 3750 
z
" transform="scale(0.015625)"/>
       </defs>
       <use xlink:href="#CMR17-35" transform="scale(0.996264)"/>
       <use xlink:href="#CMR17-30" transform="translate(45.690477 0) scale(0.996264)"/>
      </g>
     </g>
    </g>
    <g id="xtick_3">
     <g id="line2d_3">
      <g>
       <use xlink:href="#m322c5048ce" x="174.260613" y="228.96" style="stroke: #000000; stroke-width: 0.8"/>
      </g>
     </g>
     <g id="text_3">
      <!-- $\mathdefault{100}$ -->
      <g transform="translate(166.78861 243.05832) scale(0.1 -0.1)">
       <defs>
        <path id="CMR17-31" d="M 1702 4083 
C 1702 4217 1696 4224 1606 4224 
C 1357 3927 979 3833 621 3820 
C 602 3820 570 3820 563 3808 
C 557 3795 557 3782 557 3648 
C 755 3648 1088 3686 1344 3839 
L 1344 467 
C 1344 243 1331 166 781 166 
L 589 166 
L 589 0 
C 896 6 1216 12 1523 12 
C 1830 12 2150 6 2458 0 
L 2458 166 
L 2266 166 
C 1715 166 1702 236 1702 467 
L 1702 4083 
z
" transform="scale(0.015625)"/>
       </defs>
       <use xlink:href="#CMR17-31" transform="scale(0.996264)"/>
       <use xlink:href="#CMR17-30" transform="translate(45.690477 0) scale(0.996264)"/>
       <use xlink:href="#CMR17-30" transform="translate(91.380954 0) scale(0.996264)"/>
      </g>
     </g>
    </g>
    <g id="xtick_4">
     <g id="line2d_4">
      <g>
       <use xlink:href="#m322c5048ce" x="233.706636" y="228.96" style="stroke: #000000; stroke-width: 0.8"/>
      </g>
     </g>
     <g id="text_4">
      <!-- $\mathdefault{150}$ -->
      <g transform="translate(226.234633 243.05832) scale(0.1 -0.1)">
       <use xlink:href="#CMR17-31" transform="scale(0.996264)"/>
       <use xlink:href="#CMR17-35" transform="translate(45.690477 0) scale(0.996264)"/>
       <use xlink:href="#CMR17-30" transform="translate(91.380954 0) scale(0.996264)"/>
      </g>
     </g>
    </g>
    <g id="xtick_5">
     <g id="line2d_5">
      <g>
       <use xlink:href="#m322c5048ce" x="293.152658" y="228.96" style="stroke: #000000; stroke-width: 0.8"/>
      </g>
     </g>
     <g id="text_5">
      <!-- $\mathdefault{200}$ -->
      <g transform="translate(285.680655 243.05832) scale(0.1 -0.1)">
       <defs>
        <path id="CMR17-32" d="M 2669 990 
L 2554 990 
C 2490 537 2438 460 2413 422 
C 2381 371 1920 371 1830 371 
L 602 371 
C 832 620 1280 1073 1824 1596 
C 2214 1966 2669 2400 2669 3033 
C 2669 3788 2067 4224 1395 4224 
C 691 4224 262 3603 262 3027 
C 262 2777 448 2745 525 2745 
C 589 2745 781 2783 781 3007 
C 781 3206 614 3264 525 3264 
C 486 3264 448 3257 422 3244 
C 544 3788 915 4057 1306 4057 
C 1862 4057 2227 3616 2227 3033 
C 2227 2477 1901 1998 1536 1583 
L 262 147 
L 262 0 
L 2515 0 
L 2669 990 
z
" transform="scale(0.015625)"/>
       </defs>
       <use xlink:href="#CMR17-32" transform="scale(0.996264)"/>
       <use xlink:href="#CMR17-30" transform="translate(45.690477 0) scale(0.996264)"/>
       <use xlink:href="#CMR17-30" transform="translate(91.380954 0) scale(0.996264)"/>
      </g>
     </g>
    </g>
    <g id="xtick_6">
     <g id="line2d_6">
      <g>
       <use xlink:href="#m322c5048ce" x="352.598681" y="228.96" style="stroke: #000000; stroke-width: 0.8"/>
      </g>
     </g>
     <g id="text_6">
      <!-- $\mathdefault{250}$ -->
      <g transform="translate(345.126678 243.05832) scale(0.1 -0.1)">
       <use xlink:href="#CMR17-32" transform="scale(0.996264)"/>
       <use xlink:href="#CMR17-35" transform="translate(45.690477 0) scale(0.996264)"/>
       <use xlink:href="#CMR17-30" transform="translate(91.380954 0) scale(0.996264)"/>
      </g>
     </g>
    </g>
    <g id="text_7">
     <!-- Iteration -->
     <g transform="translate(189.603009 256.278627) scale(0.1 -0.1)">
      <defs>
       <path id="NimbusSanL-Regu-49" d="M 1242 4672 
L 640 4672 
L 640 0 
L 1242 0 
L 1242 4672 
z
" transform="scale(0.015625)"/>
       <path id="NimbusSanL-Regu-74" d="M 1626 3328 
L 1075 3328 
L 1075 4249 
L 544 4249 
L 544 3328 
L 90 3328 
L 90 2892 
L 544 2892 
L 544 402 
C 544 64 774 -128 1190 -128 
C 1318 -128 1446 -116 1626 -84 
L 1626 364 
C 1555 345 1472 339 1370 339 
C 1139 339 1075 402 1075 634 
L 1075 2892 
L 1626 2892 
L 1626 3328 
z
" transform="scale(0.015625)"/>
       <path id="NimbusSanL-Regu-65" d="M 3283 1484 
C 3283 1998 3245 2311 3149 2565 
C 2931 3123 2419 3456 1792 3456 
C 858 3456 256 2734 256 1619 
C 256 545 838 -128 1779 -128 
C 2547 -128 3078 307 3213 1018 
L 2675 1018 
C 2528 588 2227 364 1798 364 
C 1459 364 1171 514 992 787 
C 864 974 819 1161 813 1484 
L 3283 1484 
z
M 826 1920 
C 870 2552 1248 2963 1786 2963 
C 2310 2963 2714 2519 2714 1959 
C 2714 1946 2714 1933 2707 1920 
L 826 1920 
z
" transform="scale(0.015625)"/>
       <path id="NimbusSanL-Regu-72" d="M 442 3328 
L 442 0 
L 979 0 
L 979 1727 
C 979 2203 1101 2514 1357 2698 
C 1523 2819 1683 2857 2054 2863 
L 2054 3404 
C 1965 3449 1920 3456 1850 3456 
C 1504 3456 1242 3251 934 2750 
L 934 3328 
L 442 3328 
z
" transform="scale(0.015625)"/>
       <path id="NimbusSanL-Regu-61" d="M 3424 332 
C 3366 320 3341 320 3309 320 
C 3123 320 3021 415 3021 581 
L 3021 2542 
C 3021 3135 2586 3456 1760 3456 
C 1274 3456 870 3315 646 3065 
C 493 2893 429 2702 416 2370 
L 954 2370 
C 998 2778 1242 2963 1741 2963 
C 2221 2963 2490 2784 2490 2466 
L 2490 2326 
C 2490 2103 2355 2007 1933 1956 
C 1178 1861 1062 1835 858 1753 
C 467 1593 269 1294 269 861 
C 269 256 691 -128 1370 -128 
C 1792 -128 2131 19 2509 364 
C 2547 25 2714 -128 3059 -128 
C 3168 -128 3251 -116 3424 -71 
L 3424 332 
z
M 2490 1071 
C 2490 893 2438 785 2278 638 
C 2061 441 1798 339 1485 339 
C 1069 339 826 536 826 874 
C 826 1224 1062 1402 1632 1485 
C 2195 1562 2310 1587 2490 1670 
L 2490 1071 
z
" transform="scale(0.015625)"/>
       <path id="NimbusSanL-Regu-69" d="M 960 3358 
L 429 3358 
L 429 0 
L 960 0 
L 960 3358 
z
M 960 4672 
L 422 4672 
L 422 3999 
L 960 3999 
L 960 4672 
z
" transform="scale(0.015625)"/>
       <path id="NimbusSanL-Regu-6f" d="M 1741 3456 
C 800 3456 230 2784 230 1663 
C 230 543 794 -128 1747 -128 
C 2688 -128 3264 543 3264 1638 
C 3264 2791 2707 3456 1741 3456 
z
M 1747 2963 
C 2349 2963 2707 2472 2707 1644 
C 2707 861 2336 364 1747 364 
C 1152 364 787 855 787 1663 
C 787 2466 1152 2963 1747 2963 
z
" transform="scale(0.015625)"/>
       <path id="NimbusSanL-Regu-6e" d="M 448 3328 
L 448 0 
L 986 0 
L 986 1835 
C 986 2539 1344 2988 1894 2988 
C 2317 2988 2586 2732 2586 2328 
L 2586 0 
L 3117 0 
L 3117 2539 
C 3117 3097 2701 3456 2054 3456 
C 1555 3456 1235 3263 941 2796 
L 941 3328 
L 448 3328 
z
" transform="scale(0.015625)"/>
      </defs>
      <use xlink:href="#NimbusSanL-Regu-49" transform="scale(0.996264)"/>
      <use xlink:href="#NimbusSanL-Regu-74" transform="translate(27.69517 0) scale(0.996264)"/>
      <use xlink:href="#NimbusSanL-Regu-65" transform="translate(55.390339 0) scale(0.996264)"/>
      <use xlink:href="#NimbusSanL-Regu-72" transform="translate(110.782016 0) scale(0.996264)"/>
      <use xlink:href="#NimbusSanL-Regu-61" transform="translate(142.961149 0) scale(0.996264)"/>
      <use xlink:href="#NimbusSanL-Regu-74" transform="translate(198.352826 0) scale(0.996264)"/>
      <use xlink:href="#NimbusSanL-Regu-69" transform="translate(226.047996 0) scale(0.996264)"/>
      <use xlink:href="#NimbusSanL-Regu-6f" transform="translate(248.16478 0) scale(0.996264)"/>
      <use xlink:href="#NimbusSanL-Regu-6e" transform="translate(303.556457 0) scale(0.996264)"/>
     </g>
    </g>
   </g>
   <g id="matplotlib.axis_2">
    <g id="ytick_1">
     <g id="line2d_7">
      <defs>
       <path id="m2071650cd2" d="M 0 0 
L -3.5 0 
" style="stroke: #000000; stroke-width: 0.8"/>
      </defs>
      <g>
       <use xlink:href="#m2071650cd2" x="40.150386" y="190.867426" style="stroke: #000000; stroke-width: 0.8"/>
      </g>
     </g>
     <g id="text_8">
      <!-- $\mathdefault{−7}$ -->
      <g transform="translate(20.420307 194.416586) scale(0.1 -0.1)">
       <defs>
        <path id="CMSY10-0" d="M 4218 1472 
C 4326 1472 4442 1472 4442 1600 
C 4442 1728 4326 1728 4218 1728 
L 755 1728 
C 646 1728 531 1728 531 1600 
C 531 1472 646 1472 755 1472 
L 4218 1472 
z
" transform="scale(0.015625)"/>
        <path id="CMR17-37" d="M 2886 3955 
L 2886 4096 
L 1382 4096 
C 634 4096 621 4166 595 4288 
L 480 4288 
L 294 3104 
L 410 3104 
C 429 3226 474 3552 550 3673 
C 589 3724 1062 3724 1171 3724 
L 2579 3724 
L 1869 2670 
C 1395 1961 1069 1003 1069 166 
C 1069 89 1069 -128 1299 -128 
C 1530 -128 1530 89 1530 172 
L 1530 466 
C 1530 1514 1709 2204 2003 2644 
L 2886 3955 
z
" transform="scale(0.015625)"/>
       </defs>
       <use xlink:href="#CMSY10-0" transform="scale(0.996264)"/>
       <use xlink:href="#CMR17-37" transform="translate(77.487468 0) scale(0.996264)"/>
      </g>
     </g>
    </g>
    <g id="ytick_2">
     <g id="line2d_8">
      <g>
       <use xlink:href="#m2071650cd2" x="40.150386" y="149.930467" style="stroke: #000000; stroke-width: 0.8"/>
      </g>
     </g>
     <g id="text_9">
      <!-- $\mathdefault{−6}$ -->
      <g transform="translate(20.420307 153.479627) scale(0.1 -0.1)">
       <defs>
        <path id="CMR17-36" d="M 678 2198 
C 678 3712 1395 4076 1811 4076 
C 1946 4076 2272 4049 2400 3782 
C 2298 3782 2106 3782 2106 3558 
C 2106 3385 2246 3328 2336 3328 
C 2394 3328 2566 3353 2566 3571 
C 2566 3987 2246 4224 1805 4224 
C 1043 4224 243 3411 243 2011 
C 243 257 966 -128 1478 -128 
C 2099 -128 2688 431 2688 1295 
C 2688 2101 2170 2688 1517 2688 
C 1126 2688 838 2430 678 1979 
L 678 2198 
z
M 1478 25 
C 691 25 691 1212 691 1450 
C 691 1914 909 2585 1504 2585 
C 1613 2585 1926 2585 2138 2140 
C 2253 1889 2253 1624 2253 1302 
C 2253 954 2253 696 2118 438 
C 1978 173 1773 25 1478 25 
z
" transform="scale(0.015625)"/>
       </defs>
       <use xlink:href="#CMSY10-0" transform="scale(0.996264)"/>
       <use xlink:href="#CMR17-36" transform="translate(77.487468 0) scale(0.996264)"/>
      </g>
     </g>
    </g>
    <g id="ytick_3">
     <g id="line2d_9">
      <g>
       <use xlink:href="#m2071650cd2" x="40.150386" y="108.993507" style="stroke: #000000; stroke-width: 0.8"/>
      </g>
     </g>
     <g id="text_10">
      <!-- $\mathdefault{−5}$ -->
      <g transform="translate(20.420307 112.542667) scale(0.1 -0.1)">
       <use xlink:href="#CMSY10-0" transform="scale(0.996264)"/>
       <use xlink:href="#CMR17-35" transform="translate(77.487468 0) scale(0.996264)"/>
      </g>
     </g>
    </g>
    <g id="ytick_4">
     <g id="line2d_10">
      <g>
       <use xlink:href="#m2071650cd2" x="40.150386" y="68.056547" style="stroke: #000000; stroke-width: 0.8"/>
      </g>
     </g>
     <g id="text_11">
      <!-- $\mathdefault{−4}$ -->
      <g transform="translate(20.420307 71.605707) scale(0.1 -0.1)">
       <defs>
        <path id="CMR17-34" d="M 2150 4147 
C 2150 4281 2144 4288 2029 4288 
L 128 1254 
L 128 1088 
L 1779 1088 
L 1779 460 
C 1779 230 1766 166 1318 166 
L 1197 166 
L 1197 0 
C 1402 12 1747 12 1965 12 
C 2182 12 2528 12 2733 0 
L 2733 166 
L 2611 166 
C 2163 166 2150 230 2150 460 
L 2150 1088 
L 2803 1088 
L 2803 1254 
L 2150 1254 
L 2150 4147 
z
M 1798 3723 
L 1798 1254 
L 256 1254 
L 1798 3723 
z
" transform="scale(0.015625)"/>
       </defs>
       <use xlink:href="#CMSY10-0" transform="scale(0.996264)"/>
       <use xlink:href="#CMR17-34" transform="translate(77.487468 0) scale(0.996264)"/>
      </g>
     </g>
    </g>
    <g id="ytick_5">
     <g id="line2d_11">
      <g>
       <use xlink:href="#m2071650cd2" x="40.150386" y="27.119588" style="stroke: #000000; stroke-width: 0.8"/>
      </g>
     </g>
     <g id="text_12">
      <!-- $\mathdefault{−3}$ -->
      <g transform="translate(20.420307 30.668748) scale(0.1 -0.1)">
       <defs>
        <path id="CMR17-33" d="M 1414 2176 
C 1984 2176 2234 1673 2234 1094 
C 2234 322 1824 25 1453 25 
C 1114 25 563 193 390 691 
C 422 678 454 678 486 678 
C 640 678 755 780 755 947 
C 755 1132 614 1216 486 1216 
C 378 1216 211 1164 211 927 
C 211 335 787 -128 1466 -128 
C 2176 -128 2720 432 2720 1087 
C 2720 1718 2208 2176 1600 2246 
C 2086 2347 2554 2776 2554 3353 
C 2554 3856 2048 4224 1472 4224 
C 890 4224 378 3862 378 3347 
C 378 3123 544 3084 627 3084 
C 762 3084 877 3167 877 3334 
C 877 3500 762 3584 627 3584 
C 602 3584 570 3584 544 3571 
C 730 3999 1235 4076 1459 4076 
C 1683 4076 2106 3966 2106 3347 
C 2106 3167 2080 2851 1862 2574 
C 1670 2329 1453 2316 1242 2297 
C 1210 2297 1062 2284 1037 2284 
C 992 2278 966 2272 966 2227 
C 966 2182 973 2176 1101 2176 
L 1414 2176 
z
" transform="scale(0.015625)"/>
       </defs>
       <use xlink:href="#CMSY10-0" transform="scale(0.996264)"/>
       <use xlink:href="#CMR17-33" transform="translate(77.487468 0) scale(0.996264)"/>
      </g>
     </g>
    </g>
    <g id="text_13">
     <!-- Linear Solver residual - Blade_17 -->
     <g transform="translate(14.29832 190.622039) rotate(-90) scale(0.1 -0.1)">
      <defs>
       <path id="NimbusSanL-Regu-4c" d="M 1107 4672 
L 512 4672 
L 512 0 
L 3411 0 
L 3411 524 
L 1107 524 
L 1107 4672 
z
" transform="scale(0.015625)"/>
       <path id="NimbusSanL-Regu-53" d="M 3814 3295 
C 3808 4204 3181 4736 2106 4736 
C 1082 4736 448 4211 448 3372 
C 448 2806 749 2450 1363 2291 
L 2522 1986 
C 3110 1833 3379 1598 3379 1236 
C 3379 988 3245 733 3046 593 
C 2861 466 2566 396 2189 396 
C 1683 396 1338 517 1114 784 
C 941 988 864 1210 870 1496 
L 307 1496 
C 314 1070 397 790 582 536 
C 902 102 1440 -128 2150 -128 
C 2707 -128 3162 0 3462 230 
C 3776 479 3974 892 3974 1293 
C 3974 1865 3616 2284 2982 2456 
L 1811 2768 
C 1248 2920 1043 3098 1043 3454 
C 1043 3925 1459 4236 2086 4236 
C 2829 4236 3245 3899 3251 3295 
L 3814 3295 
z
" transform="scale(0.015625)"/>
       <path id="NimbusSanL-Regu-6c" d="M 973 4672 
L 435 4672 
L 435 0 
L 973 0 
L 973 4672 
z
" transform="scale(0.015625)"/>
       <path id="NimbusSanL-Regu-76" d="M 1824 0 
L 3110 3328 
L 2509 3328 
L 1562 629 
L 666 3328 
L 64 3328 
L 1242 0 
L 1824 0 
z
" transform="scale(0.015625)"/>
       <path id="NimbusSanL-Regu-73" d="M 2803 2428 
C 2797 3084 2362 3456 1587 3456 
C 806 3456 301 3052 301 2434 
C 301 1912 570 1663 1363 1472 
L 1862 1351 
C 2234 1262 2381 1129 2381 887 
C 2381 574 2067 364 1600 364 
C 1312 364 1069 447 934 587 
C 851 683 813 778 781 1014 
L 218 1014 
C 243 243 678 -128 1555 -128 
C 2400 -128 2938 288 2938 931 
C 2938 1428 2656 1702 1990 1861 
L 1478 1982 
C 1043 2084 858 2224 858 2459 
C 858 2765 1133 2963 1568 2963 
C 1997 2963 2227 2778 2240 2428 
L 2803 2428 
z
" transform="scale(0.015625)"/>
       <path id="NimbusSanL-Regu-64" d="M 3168 4672 
L 2637 4672 
L 2637 2937 
C 2413 3276 2054 3456 1606 3456 
C 736 3456 166 2759 166 1695 
C 166 568 723 -128 1626 -128 
C 2086 -128 2406 44 2694 460 
L 2694 19 
L 3168 19 
L 3168 4672 
z
M 1696 2956 
C 2272 2956 2637 2447 2637 1651 
C 2637 880 2266 371 1702 371 
C 1114 371 723 887 723 1663 
C 723 2440 1114 2956 1696 2956 
z
" transform="scale(0.015625)"/>
       <path id="NimbusSanL-Regu-75" d="M 3085 19 
L 3085 3328 
L 2554 3328 
L 2554 1454 
C 2554 780 2195 339 1638 339 
C 1216 339 947 591 947 988 
L 947 3328 
L 416 3328 
L 416 780 
C 416 230 832 -128 1485 -128 
C 1978 -128 2291 44 2605 484 
L 2605 19 
L 3085 19 
z
" transform="scale(0.015625)"/>
       <path id="NimbusSanL-Regu-2d" d="M 1818 1996 
L 294 1996 
L 294 1536 
L 1818 1536 
L 1818 1996 
z
" transform="scale(0.015625)"/>
       <path id="NimbusSanL-Regu-42" d="M 506 0 
L 2611 0 
C 3053 0 3379 121 3629 390 
C 3859 632 3987 961 3987 1321 
C 3987 1878 3731 2214 3136 2444 
C 3558 2643 3782 2994 3782 3476 
C 3782 3821 3654 4127 3411 4345 
C 3168 4569 2848 4672 2400 4672 
L 506 4672 
L 506 0 
z
M 1101 2636 
L 1101 4147 
L 2253 4147 
C 2586 4147 2771 4101 2931 3977 
C 3098 3847 3187 3652 3187 3391 
C 3187 3138 3098 2936 2931 2806 
C 2771 2682 2586 2636 2253 2636 
L 1101 2636 
z
M 1101 524 
L 1101 2112 
L 2554 2112 
C 2842 2112 3034 2042 3174 1890 
C 3315 1745 3392 1542 3392 1315 
C 3392 1093 3315 891 3174 746 
C 3034 594 2842 524 2554 524 
L 1101 524 
z
" transform="scale(0.015625)"/>
       <path id="NimbusSanL-Regu-31" d="M 1658 3232 
L 1658 0 
L 2221 0 
L 2221 4537 
L 1850 4537 
C 1651 3840 1523 3744 653 3635 
L 653 3232 
L 1658 3232 
z
" transform="scale(0.015625)"/>
       <path id="NimbusSanL-Regu-37" d="M 3328 4544 
L 294 4544 
L 294 3987 
L 2746 3987 
C 1664 2442 1222 1493 883 0 
L 1485 0 
C 1734 1454 2304 2704 3328 4070 
L 3328 4544 
z
" transform="scale(0.015625)"/>
      </defs>
      <use xlink:href="#NimbusSanL-Regu-4c" transform="scale(0.996264)"/>
      <use xlink:href="#NimbusSanL-Regu-69" transform="translate(55.391677 0) scale(0.996264)"/>
      <use xlink:href="#NimbusSanL-Regu-6e" transform="translate(77.508461 0) scale(0.996264)"/>
      <use xlink:href="#NimbusSanL-Regu-65" transform="translate(132.900138 0) scale(0.996264)"/>
      <use xlink:href="#NimbusSanL-Regu-61" transform="translate(188.291815 0) scale(0.996264)"/>
      <use xlink:href="#NimbusSanL-Regu-72" transform="translate(243.683492 0) scale(0.996264)"/>
      <use xlink:href="#NimbusSanL-Regu-53" transform="translate(304.553892 0) scale(0.996264)"/>
      <use xlink:href="#NimbusSanL-Regu-6f" transform="translate(371.003923 0) scale(0.996264)"/>
      <use xlink:href="#NimbusSanL-Regu-6c" transform="translate(426.3956 0) scale(0.996264)"/>
      <use xlink:href="#NimbusSanL-Regu-76" transform="translate(448.512384 0) scale(0.996264)"/>
      <use xlink:href="#NimbusSanL-Regu-65" transform="translate(495.834955 0) scale(0.996264)"/>
      <use xlink:href="#NimbusSanL-Regu-72" transform="translate(551.226632 0) scale(0.996264)"/>
      <use xlink:href="#NimbusSanL-Regu-72" transform="translate(612.097031 0) scale(0.996264)"/>
      <use xlink:href="#NimbusSanL-Regu-65" transform="translate(645.272261 0) scale(0.996264)"/>
      <use xlink:href="#NimbusSanL-Regu-73" transform="translate(700.663938 0) scale(0.996264)"/>
      <use xlink:href="#NimbusSanL-Regu-69" transform="translate(750.477138 0) scale(0.996264)"/>
      <use xlink:href="#NimbusSanL-Regu-64" transform="translate(772.593923 0) scale(0.996264)"/>
      <use xlink:href="#NimbusSanL-Regu-75" transform="translate(827.9856 0) scale(0.996264)"/>
      <use xlink:href="#NimbusSanL-Regu-61" transform="translate(883.377277 0) scale(0.996264)"/>
      <use xlink:href="#NimbusSanL-Regu-6c" transform="translate(938.768954 0) scale(0.996264)"/>
      <use xlink:href="#NimbusSanL-Regu-2d" transform="translate(988.580908 0) scale(0.996264)"/>
      <use xlink:href="#NimbusSanL-Regu-42" transform="translate(1049.451307 0) scale(0.996264)"/>
      <use xlink:href="#NimbusSanL-Regu-6c" transform="translate(1115.901338 0) scale(0.996264)"/>
      <use xlink:href="#NimbusSanL-Regu-61" transform="translate(1138.018122 0) scale(0.996264)"/>
      <use xlink:href="#NimbusSanL-Regu-64" transform="translate(1193.409799 0) scale(0.996264)"/>
      <use xlink:href="#NimbusSanL-Regu-65" transform="translate(1248.801476 0) scale(0.996264)"/>
      <use xlink:href="#NimbusSanL-Regu-31" transform="translate(1340.058718 0) scale(0.996264)"/>
      <use xlink:href="#NimbusSanL-Regu-37" transform="translate(1395.450395 0) scale(0.996264)"/>
      <path d="M 1310.170494 0 
L 1340.058718 0 
L 1340.058718 0.3985 
L 1310.170494 0.3985 
L 1310.170494 0 
z
"/>
     </g>
    </g>
   </g>
   <g id="line2d_12">
    <path d="M 55.368567 71.000184 
L 56.557488 68.486355 
L 58.935329 18.850308 
L 60.124249 95.569559 
L 61.31317 77.122323 
L 62.50209 99.627526 
L 63.691011 81.626361 
L 64.879931 98.53618 
L 66.068852 81.879645 
L 67.257772 93.310689 
L 68.446692 76.518758 
L 69.635613 82.719364 
L 70.824533 86.028085 
L 72.013454 85.104434 
L 74.391295 43.974399 
L 75.580215 25.61773 
L 76.769136 24.276051 
L 77.958056 23.905787 
L 79.146977 24.329647 
L 80.335897 26.791235 
L 81.524817 34.780676 
L 82.713738 23.988196 
L 83.902658 23.213157 
L 85.091579 91.521988 
L 86.280499 74.009113 
L 87.46942 93.217684 
L 88.65834 75.546736 
L 89.847261 88.815517 
L 91.036181 71.111331 
L 92.225102 77.799578 
L 93.414022 80.77509 
L 94.602942 81.861812 
L 95.791863 80.366388 
L 96.980783 61.421315 
L 98.169704 44.494648 
L 99.358624 30.316617 
L 100.547545 18.764532 
L 101.736465 81.250826 
L 102.925386 105.695079 
L 105.303227 70.038485 
L 106.492147 83.87154 
L 107.681067 88.886178 
L 110.058908 88.304276 
L 111.247829 69.419914 
L 112.436749 71.258601 
L 114.81459 38.424344 
L 116.003511 24.001235 
L 117.192431 19.493936 
L 118.381352 90.689548 
L 119.570272 73.400195 
L 120.759192 93.465786 
L 121.948113 74.767782 
L 123.137033 85.655565 
L 124.325954 91.885505 
L 125.514874 71.467597 
L 126.703795 74.483929 
L 127.892715 74.274239 
L 129.081636 72.570125 
L 130.270556 53.76867 
L 131.459477 37.447272 
L 132.648397 26.212958 
L 133.837317 31.473644 
L 135.026238 18.665558 
L 136.215158 89.920817 
L 137.404079 72.707433 
L 138.592999 92.326902 
L 139.78192 75.073837 
L 140.97084 88.310064 
L 142.159761 71.202292 
L 143.348681 76.448315 
L 144.537602 76.64533 
L 145.726522 74.11747 
L 146.915442 67.201478 
L 148.104363 44.897171 
L 149.293283 35.005487 
L 150.482204 23.625833 
L 151.671124 96.530052 
L 152.860045 79.172352 
L 154.048965 100.243275 
L 155.237886 81.730382 
L 156.426806 95.488263 
L 157.615727 76.085894 
L 158.804647 82.882049 
L 159.993567 84.357547 
L 161.182488 83.377062 
L 162.371408 75.71352 
L 163.560329 55.706924 
L 164.749249 38.864058 
L 165.93817 24.677727 
L 167.12709 21.355942 
L 168.316011 106.473957 
L 170.693852 72.28194 
L 171.882772 92.87125 
L 173.071692 75.056655 
L 174.260613 88.255292 
L 175.449533 70.439771 
L 176.638454 74.444294 
L 177.827374 80.215466 
L 179.016295 83.430241 
L 180.205215 81.295678 
L 182.583056 41.095471 
L 183.771977 22.386384 
L 184.960897 99.876356 
L 186.149817 81.206108 
L 187.338738 103.567224 
L 188.527658 85.655371 
L 189.716579 70.11801 
L 190.905499 85.129449 
L 192.09442 69.059225 
L 193.28334 73.65321 
L 194.472261 74.76078 
L 195.661181 76.503404 
L 196.850102 68.583129 
L 198.039022 52.035267 
L 199.227942 24.761745 
L 200.416863 26.465062 
L 201.605783 34.574562 
L 202.794704 17.28 
L 203.983624 97.007288 
L 205.172545 79.908506 
L 206.361465 101.663324 
L 207.550386 83.963632 
L 208.739306 98.086322 
L 209.928227 76.539181 
L 211.117147 80.351715 
L 212.306067 86.336777 
L 213.494988 68.677832 
L 214.683908 70.337484 
L 215.872829 69.392879 
L 217.061749 46.021843 
L 218.25067 29.089462 
L 219.43959 19.364004 
L 220.628511 88.412935 
L 221.817431 71.054332 
L 223.006352 91.190106 
L 224.195272 74.560591 
L 225.384192 88.974724 
L 226.573113 202.156877 
L 233.706636 127.931181 
L 239.651238 68.306326 
L 240.840158 126.425045 
L 243.217999 94.709836 
L 244.40692 79.876499 
L 245.59584 115.50327 
L 247.973681 82.302498 
L 249.162602 105.381527 
L 251.540442 70.486864 
L 252.729363 77.605478 
L 253.918283 71.588887 
L 255.107204 73.184328 
L 256.296124 69.135538 
L 257.485045 60.911554 
L 258.673965 54.27294 
L 259.862886 48.857052 
L 261.051806 37.570788 
L 262.240727 21.899291 
L 263.429647 92.674547 
L 264.618567 75.146065 
L 265.807488 99.315827 
L 266.996408 82.424631 
L 268.185329 98.381443 
L 269.374249 79.49911 
L 270.56317 87.160938 
L 271.75209 84.609354 
L 272.941011 69.877756 
L 274.129931 84.243404 
L 275.318852 66.428696 
L 276.507772 53.010102 
L 277.696692 47.580463 
L 278.885613 203.735436 
L 284.830215 142.357803 
L 287.208056 118.260329 
L 289.585897 93.741009 
L 290.774817 80.341376 
L 291.963738 143.285504 
L 295.530499 88.89274 
L 296.71942 70.814922 
L 297.90834 110.9482 
L 299.097261 74.892473 
L 300.286181 110.087878 
L 303.852942 69.294793 
L 305.041863 86.714178 
L 306.230783 75.873925 
L 307.419704 86.386433 
L 308.608624 68.372629 
L 309.797545 84.574151 
L 310.986465 79.383839 
L 313.364306 37.162127 
L 314.553227 19.918828 
L 315.742147 71.2994 
L 316.931067 98.008316 
L 318.119988 81.254127 
L 319.308908 98.98906 
L 320.497829 81.979954 
L 321.686749 87.039195 
L 322.87567 90.391216 
L 324.06459 70.65274 
L 325.253511 73.835475 
L 326.442431 74.057057 
L 327.631352 51.720885 
L 328.820272 32.679443 
L 330.009192 104.858738 
L 331.198113 99.276847 
L 332.387033 92.49009 
L 334.764874 76.360822 
L 335.953795 68.154045 
L 337.142715 132.080629 
L 339.520556 111.87411 
L 344.276238 76.389013 
L 345.465158 126.21932 
L 347.842999 101.430701 
L 350.22084 75.160019 
L 351.409761 101.542132 
L 352.598681 85.11067 
L 353.787602 73.930296 
L 354.976522 86.913237 
L 356.165442 80.457221 
L 357.354363 77.682734 
L 358.543283 78.070372 
L 359.732204 84.549591 
L 359.732204 84.549591 
" clip-path="url(#p2bbe28f470)" style="fill: none; stroke: #1f77b4; stroke-width: 1.5; stroke-linecap: square"/>
   </g>
   <g id="line2d_13">
    <path d="M 55.368567 71.741566 
L 56.557488 85.261942 
L 57.746408 86.326375 
L 58.935329 95.613071 
L 60.124249 89.969293 
L 61.31317 78.255771 
L 62.50209 144.566519 
L 64.879931 115.064608 
L 67.257772 87.416902 
L 68.446692 74.558279 
L 69.635613 111.454768 
L 72.013454 77.394312 
L 73.202374 97.017288 
L 74.391295 76.808934 
L 75.580215 85.156563 
L 76.769136 83.749224 
L 77.958056 86.171513 
L 79.146977 86.285933 
L 80.335897 83.257471 
L 81.524817 81.605699 
L 82.713738 88.369325 
L 83.902658 87.519267 
L 85.091579 72.406861 
L 86.280499 130.250852 
L 91.036181 72.962172 
L 92.225102 101.60561 
L 93.414022 83.322219 
L 94.602942 102.735225 
L 95.791863 84.699142 
L 96.980783 97.193856 
L 98.169704 78.475548 
L 100.547545 92.444827 
L 101.736465 126.534875 
L 104.114306 96.454104 
L 106.492147 69.083034 
L 107.681067 94.298613 
L 108.869988 76.78076 
L 110.058908 94.334741 
L 111.247829 77.364056 
L 112.436749 91.587766 
L 113.62567 76.26536 
L 114.81459 85.213327 
L 116.003511 90.533956 
L 117.192431 84.808847 
L 118.381352 120.100957 
L 120.759192 91.711147 
L 121.948113 78.144793 
L 123.137033 109.438752 
L 125.514874 74.100959 
L 126.703795 88.018216 
L 127.892715 70.199808 
L 130.270556 94.812949 
L 131.459477 79.531706 
L 132.648397 88.230929 
L 133.837317 69.438214 
L 135.026238 73.639494 
L 136.215158 114.458831 
L 139.78192 70.455841 
L 140.97084 98.274709 
L 142.159761 79.563493 
L 143.348681 97.190327 
L 144.537602 77.354906 
L 145.726522 88.578216 
L 146.915442 96.345757 
L 148.104363 74.482198 
L 150.482204 87.405304 
L 151.671124 109.502955 
L 154.048965 78.77042 
L 155.237886 112.539392 
L 157.615727 77.184583 
L 158.804647 97.979312 
L 159.993567 80.4505 
L 161.182488 96.034386 
L 162.371408 79.437191 
L 163.560329 89.496774 
L 164.749249 73.418818 
L 165.93817 81.078327 
L 167.12709 83.759149 
L 168.316011 127.921334 
L 171.882772 81.334559 
L 173.071692 115.830394 
L 175.449533 80.786546 
L 176.638454 102.777002 
L 177.827374 85.600114 
L 179.016295 70.802051 
L 180.205215 87.183049 
L 181.394136 73.402711 
L 182.583056 84.069857 
L 183.771977 69.498652 
L 184.960897 136.885889 
L 188.527658 89.080385 
L 189.716579 73.613371 
L 190.905499 104.473465 
L 192.09442 88.027666 
L 193.28334 73.673788 
L 194.472261 96.485497 
L 196.850102 69.616287 
L 198.039022 86.235296 
L 199.227942 74.645486 
L 200.416863 76.857916 
L 201.605783 75.78224 
L 202.794704 83.679793 
L 203.983624 118.301169 
L 205.172545 98.904826 
L 206.361465 82.430378 
L 207.550386 68.375404 
L 208.739306 112.673249 
L 212.306067 68.291929 
L 213.494988 89.343046 
L 214.683908 74.407004 
L 215.872829 90.52114 
L 217.061749 76.820842 
L 218.25067 88.075668 
L 219.43959 72.013603 
L 220.628511 122.865774 
L 221.817431 104.461329 
L 223.006352 89.694346 
L 224.195272 77.747332 
L 225.384192 115.512302 
L 226.573113 100.061376 
L 231.328795 74.173802 
L 232.517715 210.733137 
L 238.462317 146.665781 
L 242.029079 110.886227 
L 244.40692 89.262102 
L 246.784761 69.675904 
L 247.973681 126.574516 
L 249.162602 114.605833 
L 252.729363 72.604374 
L 253.918283 102.164734 
L 256.296124 71.917351 
L 257.485045 93.373995 
L 258.673965 77.727044 
L 259.862886 95.955869 
L 261.051806 80.439127 
L 262.240727 93.995053 
L 263.429647 132.072459 
L 264.618567 114.281252 
L 265.807488 98.245942 
L 268.185329 71.186776 
L 269.374249 108.754969 
L 271.75209 75.745812 
L 272.941011 102.942692 
L 274.129931 84.369014 
L 275.318852 103.666148 
L 276.507772 84.179907 
L 277.696692 100.680768 
L 278.885613 85.882856 
L 281.263454 73.19921 
L 282.452374 218.88 
L 293.152658 101.376386 
L 295.530499 74.62489 
L 296.71942 126.626395 
L 297.90834 108.775024 
L 300.286181 77.477368 
L 301.475102 123.521285 
L 303.852942 87.770016 
L 305.041863 73.742411 
L 306.230783 128.722569 
L 308.608624 94.011259 
L 309.797545 78.268429 
L 310.986465 91.848782 
L 312.175386 88.771319 
L 313.364306 86.459452 
L 314.553227 98.368915 
L 315.742147 81.111848 
L 316.931067 119.753549 
L 318.119988 102.118381 
L 320.497829 72.967628 
L 321.686749 97.635132 
L 322.87567 81.22203 
L 324.06459 97.825504 
L 325.253511 81.478118 
L 326.442431 98.161526 
L 327.631352 81.797742 
L 328.820272 77.177275 
L 330.009192 218.60158 
L 334.764874 166.459502 
L 343.087317 73.83655 
L 344.276238 139.476967 
L 346.654079 105.985851 
L 349.03192 75.924411 
L 350.22084 128.137817 
L 352.598681 97.926768 
L 354.976522 71.143221 
L 356.165442 96.282869 
L 357.354363 81.113079 
L 358.543283 97.09163 
L 359.732204 78.54057 
L 359.732204 78.54057 
" clip-path="url(#p2bbe28f470)" style="fill: none; stroke: #ff7f0e; stroke-width: 1.5; stroke-linecap: square"/>
   </g>
   <g id="patch_3">
    <path d="M 40.150386 228.96 
L 40.150386 7.2 
" style="fill: none; stroke: #000000; stroke-width: 0.8; stroke-linejoin: miter; stroke-linecap: square"/>
   </g>
   <g id="patch_4">
    <path d="M 374.950386 228.96 
L 374.950386 7.2 
" style="fill: none; stroke: #000000; stroke-width: 0.8; stroke-linejoin: miter; stroke-linecap: square"/>
   </g>
   <g id="patch_5">
    <path d="M 40.150386 228.96 
L 374.950386 228.96 
" style="fill: none; stroke: #000000; stroke-width: 0.8; stroke-linejoin: miter; stroke-linecap: square"/>
   </g>
   <g id="patch_6">
    <path d="M 40.150386 7.2 
L 374.950386 7.2 
" style="fill: none; stroke: #000000; stroke-width: 0.8; stroke-linejoin: miter; stroke-linecap: square"/>
   </g>
   <g id="legend_1">
    <g id="patch_7">
     <path d="M 47.150386 223.96 
L 128.33557 223.96 
Q 130.33557 223.96 130.33557 221.96 
L 130.33557 194.519387 
Q 130.33557 192.519387 128.33557 192.519387 
L 47.150386 192.519387 
Q 45.150386 192.519387 45.150386 194.519387 
L 45.150386 221.96 
Q 45.150386 223.96 47.150386 223.96 
z
" style="fill: #ffffff; opacity: 0.8; stroke: #cccccc; stroke-linejoin: miter"/>
    </g>
    <g id="line2d_14">
     <path d="M 49.150386 200.117707 
L 59.150386 200.117707 
L 69.150386 200.117707 
" style="fill: none; stroke: #1f77b4; stroke-width: 1.5; stroke-linecap: square"/>
    </g>
    <g id="text_14">
     <!-- LSRes -->
     <g transform="translate(77.150386 203.617707) scale(0.1 -0.1)">
      <defs>
       <path id="NimbusSanL-Regu-52" d="M 1190 2035 
L 2726 2035 
C 3258 2035 3494 1775 3494 1191 
L 3488 770 
C 3488 478 3539 192 3622 0 
L 4346 0 
L 4346 147 
C 4122 303 4077 471 4064 1101 
C 4058 1879 3936 2111 3430 2329 
C 3955 2585 4166 2907 4166 3432 
C 4166 4230 3661 4672 2746 4672 
L 595 4672 
L 595 0 
L 1190 0 
L 1190 2035 
z
M 1190 2560 
L 1190 4147 
L 2630 4147 
C 2963 4147 3155 4096 3302 3970 
C 3462 3837 3546 3628 3546 3350 
C 3546 2806 3264 2560 2630 2560 
L 1190 2560 
z
" transform="scale(0.015625)"/>
      </defs>
      <use xlink:href="#NimbusSanL-Regu-4c" transform="scale(0.996264)"/>
      <use xlink:href="#NimbusSanL-Regu-53" transform="translate(55.391677 0) scale(0.996264)"/>
      <use xlink:href="#NimbusSanL-Regu-52" transform="translate(121.841708 0) scale(0.996264)"/>
      <use xlink:href="#NimbusSanL-Regu-65" transform="translate(193.771693 0) scale(0.996264)"/>
      <use xlink:href="#NimbusSanL-Regu-73" transform="translate(249.16337 0) scale(0.996264)"/>
     </g>
    </g>
    <g id="line2d_15">
     <path d="M 49.150386 214.338014 
L 59.150386 214.338014 
L 69.150386 214.338014 
" style="fill: none; stroke: #ff7f0e; stroke-width: 1.5; stroke-linecap: square"/>
    </g>
    <g id="text_15">
     <!-- LSResTurb -->
     <g transform="translate(77.150386 217.838014) scale(0.1 -0.1)">
      <defs>
       <path id="NimbusSanL-Regu-54" d="M 2266 4147 
L 3795 4147 
L 3795 4672 
L 134 4672 
L 134 4147 
L 1670 4147 
L 1670 0 
L 2266 0 
L 2266 4147 
z
" transform="scale(0.015625)"/>
       <path id="NimbusSanL-Regu-62" d="M 346 4672 
L 346 19 
L 826 19 
L 826 447 
C 1082 57 1421 -128 1888 -128 
C 2771 -128 3347 594 3347 1702 
C 3347 2784 2797 3456 1914 3456 
C 1453 3456 1126 3283 877 2905 
L 877 4672 
L 346 4672 
z
M 1811 2956 
C 2406 2956 2790 2440 2790 1644 
C 2790 887 2394 371 1811 371 
C 1248 371 877 880 877 1663 
C 877 2447 1248 2956 1811 2956 
z
" transform="scale(0.015625)"/>
      </defs>
      <use xlink:href="#NimbusSanL-Regu-4c" transform="scale(0.996264)"/>
      <use xlink:href="#NimbusSanL-Regu-53" transform="translate(55.391677 0) scale(0.996264)"/>
      <use xlink:href="#NimbusSanL-Regu-52" transform="translate(121.841708 0) scale(0.996264)"/>
      <use xlink:href="#NimbusSanL-Regu-65" transform="translate(193.771693 0) scale(0.996264)"/>
      <use xlink:href="#NimbusSanL-Regu-73" transform="translate(249.16337 0) scale(0.996264)"/>
      <use xlink:href="#NimbusSanL-Regu-54" transform="translate(298.97657 0) scale(0.996264)"/>
      <use xlink:href="#NimbusSanL-Regu-75" transform="translate(347.893519 0) scale(0.996264)"/>
      <use xlink:href="#NimbusSanL-Regu-72" transform="translate(403.285196 0) scale(0.996264)"/>
      <use xlink:href="#NimbusSanL-Regu-62" transform="translate(436.460426 0) scale(0.996264)"/>
     </g>
    </g>
   </g>
  </g>
 </g>
 <defs>
  <clipPath id="p2bbe28f470">
   <rect x="40.150386" y="7.2" width="334.8" height="221.76"/>
  </clipPath>
 </defs>
</svg>
