<?xml version="1.0" encoding="utf-8" standalone="no"?>
<!DOCTYPE svg PUBLIC "-//W3C//DTD SVG 1.1//EN"
  "http://www.w3.org/Graphics/SVG/1.1/DTD/svg11.dtd">
<svg xmlns:xlink="http://www.w3.org/1999/xlink" width="382.150386pt" height="266.295042pt" viewBox="0 0 382.150386 266.295042" xmlns="http://www.w3.org/2000/svg" version="1.1">
 <metadata>
  <rdf:RDF xmlns:dc="http://purl.org/dc/elements/1.1/" xmlns:cc="http://creativecommons.org/ns#" xmlns:rdf="http://www.w3.org/1999/02/22-rdf-syntax-ns#">
   <cc:Work>
    <dc:type rdf:resource="http://purl.org/dc/dcmitype/StillImage"/>
    <dc:date>2025-07-17T19:58:04.332142</dc:date>
    <dc:format>image/svg+xml</dc:format>
    <dc:creator>
     <cc:Agent>
      <dc:title>Matplotlib v3.10.3, https://matplotlib.org/</dc:title>
     </cc:Agent>
    </dc:creator>
   </cc:Work>
  </rdf:RDF>
 </metadata>
 <defs>
  <style type="text/css">*{stroke-linejoin: round; stroke-linecap: butt}</style>
 </defs>
 <g id="figure_1">
  <g id="patch_1">
   <path d="M 0 266.295042 
L 382.150386 266.295042 
L 382.150386 0 
L 0 0 
z
" style="fill: #ffffff"/>
  </g>
  <g id="axes_1">
   <g id="patch_2">
    <path d="M 40.150386 229.654428 
L 374.950386 229.654428 
L 374.950386 7.894428 
L 40.150386 7.894428 
z
" style="fill: #ffffff"/>
   </g>
   <g id="matplotlib.axis_1">
    <g id="xtick_1">
     <g id="line2d_1">
      <defs>
       <path id="m0be7e9f45c" d="M 0 0 
L 0 3.5 
" style="stroke: #000000; stroke-width: 0.8"/>
      </defs>
      <g>
       <use xlink:href="#m0be7e9f45c" x="55.368567" y="229.654428" style="stroke: #000000; stroke-width: 0.8"/>
      </g>
     </g>
     <g id="text_1">
      <!-- $\mathdefault{0}$ -->
      <g transform="translate(52.8779 243.752748) scale(0.1 -0.1)">
       <defs>
        <path id="CMR17-30" d="M 2688 2038 
C 2688 2430 2682 3099 2413 3613 
C 2176 4063 1798 4224 1466 4224 
C 1158 4224 768 4082 525 3620 
C 269 3137 243 2539 243 2038 
C 243 1671 250 1112 448 623 
C 723 -39 1216 -128 1466 -128 
C 1760 -128 2208 -7 2470 604 
C 2662 1048 2688 1568 2688 2038 
z
M 1466 -26 
C 1056 -26 813 328 723 816 
C 653 1196 653 1749 653 2109 
C 653 2604 653 3015 736 3407 
C 858 3954 1216 4121 1466 4121 
C 1728 4121 2067 3947 2189 3420 
C 2272 3054 2278 2623 2278 2109 
C 2278 1691 2278 1176 2202 797 
C 2067 96 1690 -26 1466 -26 
z
" transform="scale(0.015625)"/>
       </defs>
       <use xlink:href="#CMR17-30" transform="scale(0.996264)"/>
      </g>
     </g>
    </g>
    <g id="xtick_2">
     <g id="line2d_2">
      <g>
       <use xlink:href="#m0be7e9f45c" x="114.81459" y="229.654428" style="stroke: #000000; stroke-width: 0.8"/>
      </g>
     </g>
     <g id="text_2">
      <!-- $\mathdefault{50}$ -->
      <g transform="translate(109.833255 243.752748) scale(0.1 -0.1)">
       <defs>
        <path id="CMR17-35" d="M 730 3750 
C 794 3724 1056 3641 1325 3641 
C 1920 3641 2246 3961 2432 4140 
C 2432 4191 2432 4224 2394 4224 
C 2387 4224 2374 4224 2323 4198 
C 2099 4102 1837 4032 1517 4032 
C 1325 4032 1037 4055 723 4191 
C 653 4224 640 4224 634 4224 
C 602 4224 595 4217 595 4090 
L 595 2231 
C 595 2113 595 2080 659 2080 
C 691 2080 704 2093 736 2139 
C 941 2435 1222 2560 1542 2560 
C 1766 2560 2246 2415 2246 1293 
C 2246 1087 2246 716 2054 422 
C 1894 159 1645 25 1370 25 
C 947 25 518 319 403 812 
C 429 806 480 793 506 793 
C 589 793 749 838 749 1036 
C 749 1209 627 1280 506 1280 
C 358 1280 262 1190 262 1011 
C 262 454 704 -128 1382 -128 
C 2042 -128 2669 441 2669 1267 
C 2669 2054 2170 2662 1549 2662 
C 1222 2662 947 2540 730 2304 
L 730 3750 
z
" transform="scale(0.015625)"/>
       </defs>
       <use xlink:href="#CMR17-35" transform="scale(0.996264)"/>
       <use xlink:href="#CMR17-30" transform="translate(45.690477 0) scale(0.996264)"/>
      </g>
     </g>
    </g>
    <g id="xtick_3">
     <g id="line2d_3">
      <g>
       <use xlink:href="#m0be7e9f45c" x="174.260613" y="229.654428" style="stroke: #000000; stroke-width: 0.8"/>
      </g>
     </g>
     <g id="text_3">
      <!-- $\mathdefault{100}$ -->
      <g transform="translate(166.78861 243.752748) scale(0.1 -0.1)">
       <defs>
        <path id="CMR17-31" d="M 1702 4083 
C 1702 4217 1696 4224 1606 4224 
C 1357 3927 979 3833 621 3820 
C 602 3820 570 3820 563 3808 
C 557 3795 557 3782 557 3648 
C 755 3648 1088 3686 1344 3839 
L 1344 467 
C 1344 243 1331 166 781 166 
L 589 166 
L 589 0 
C 896 6 1216 12 1523 12 
C 1830 12 2150 6 2458 0 
L 2458 166 
L 2266 166 
C 1715 166 1702 236 1702 467 
L 1702 4083 
z
" transform="scale(0.015625)"/>
       </defs>
       <use xlink:href="#CMR17-31" transform="scale(0.996264)"/>
       <use xlink:href="#CMR17-30" transform="translate(45.690477 0) scale(0.996264)"/>
       <use xlink:href="#CMR17-30" transform="translate(91.380954 0) scale(0.996264)"/>
      </g>
     </g>
    </g>
    <g id="xtick_4">
     <g id="line2d_4">
      <g>
       <use xlink:href="#m0be7e9f45c" x="233.706636" y="229.654428" style="stroke: #000000; stroke-width: 0.8"/>
      </g>
     </g>
     <g id="text_4">
      <!-- $\mathdefault{150}$ -->
      <g transform="translate(226.234633 243.752748) scale(0.1 -0.1)">
       <use xlink:href="#CMR17-31" transform="scale(0.996264)"/>
       <use xlink:href="#CMR17-35" transform="translate(45.690477 0) scale(0.996264)"/>
       <use xlink:href="#CMR17-30" transform="translate(91.380954 0) scale(0.996264)"/>
      </g>
     </g>
    </g>
    <g id="xtick_5">
     <g id="line2d_5">
      <g>
       <use xlink:href="#m0be7e9f45c" x="293.152658" y="229.654428" style="stroke: #000000; stroke-width: 0.8"/>
      </g>
     </g>
     <g id="text_5">
      <!-- $\mathdefault{200}$ -->
      <g transform="translate(285.680655 243.752748) scale(0.1 -0.1)">
       <defs>
        <path id="CMR17-32" d="M 2669 990 
L 2554 990 
C 2490 537 2438 460 2413 422 
C 2381 371 1920 371 1830 371 
L 602 371 
C 832 620 1280 1073 1824 1596 
C 2214 1966 2669 2400 2669 3033 
C 2669 3788 2067 4224 1395 4224 
C 691 4224 262 3603 262 3027 
C 262 2777 448 2745 525 2745 
C 589 2745 781 2783 781 3007 
C 781 3206 614 3264 525 3264 
C 486 3264 448 3257 422 3244 
C 544 3788 915 4057 1306 4057 
C 1862 4057 2227 3616 2227 3033 
C 2227 2477 1901 1998 1536 1583 
L 262 147 
L 262 0 
L 2515 0 
L 2669 990 
z
" transform="scale(0.015625)"/>
       </defs>
       <use xlink:href="#CMR17-32" transform="scale(0.996264)"/>
       <use xlink:href="#CMR17-30" transform="translate(45.690477 0) scale(0.996264)"/>
       <use xlink:href="#CMR17-30" transform="translate(91.380954 0) scale(0.996264)"/>
      </g>
     </g>
    </g>
    <g id="xtick_6">
     <g id="line2d_6">
      <g>
       <use xlink:href="#m0be7e9f45c" x="352.598681" y="229.654428" style="stroke: #000000; stroke-width: 0.8"/>
      </g>
     </g>
     <g id="text_6">
      <!-- $\mathdefault{250}$ -->
      <g transform="translate(345.126678 243.752748) scale(0.1 -0.1)">
       <use xlink:href="#CMR17-32" transform="scale(0.996264)"/>
       <use xlink:href="#CMR17-35" transform="translate(45.690477 0) scale(0.996264)"/>
       <use xlink:href="#CMR17-30" transform="translate(91.380954 0) scale(0.996264)"/>
      </g>
     </g>
    </g>
    <g id="text_7">
     <!-- Iteration -->
     <g transform="translate(189.603009 256.973055) scale(0.1 -0.1)">
      <defs>
       <path id="NimbusSanL-Regu-49" d="M 1242 4672 
L 640 4672 
L 640 0 
L 1242 0 
L 1242 4672 
z
" transform="scale(0.015625)"/>
       <path id="NimbusSanL-Regu-74" d="M 1626 3328 
L 1075 3328 
L 1075 4249 
L 544 4249 
L 544 3328 
L 90 3328 
L 90 2892 
L 544 2892 
L 544 402 
C 544 64 774 -128 1190 -128 
C 1318 -128 1446 -116 1626 -84 
L 1626 364 
C 1555 345 1472 339 1370 339 
C 1139 339 1075 402 1075 634 
L 1075 2892 
L 1626 2892 
L 1626 3328 
z
" transform="scale(0.015625)"/>
       <path id="NimbusSanL-Regu-65" d="M 3283 1484 
C 3283 1998 3245 2311 3149 2565 
C 2931 3123 2419 3456 1792 3456 
C 858 3456 256 2734 256 1619 
C 256 545 838 -128 1779 -128 
C 2547 -128 3078 307 3213 1018 
L 2675 1018 
C 2528 588 2227 364 1798 364 
C 1459 364 1171 514 992 787 
C 864 974 819 1161 813 1484 
L 3283 1484 
z
M 826 1920 
C 870 2552 1248 2963 1786 2963 
C 2310 2963 2714 2519 2714 1959 
C 2714 1946 2714 1933 2707 1920 
L 826 1920 
z
" transform="scale(0.015625)"/>
       <path id="NimbusSanL-Regu-72" d="M 442 3328 
L 442 0 
L 979 0 
L 979 1727 
C 979 2203 1101 2514 1357 2698 
C 1523 2819 1683 2857 2054 2863 
L 2054 3404 
C 1965 3449 1920 3456 1850 3456 
C 1504 3456 1242 3251 934 2750 
L 934 3328 
L 442 3328 
z
" transform="scale(0.015625)"/>
       <path id="NimbusSanL-Regu-61" d="M 3424 332 
C 3366 320 3341 320 3309 320 
C 3123 320 3021 415 3021 581 
L 3021 2542 
C 3021 3135 2586 3456 1760 3456 
C 1274 3456 870 3315 646 3065 
C 493 2893 429 2702 416 2370 
L 954 2370 
C 998 2778 1242 2963 1741 2963 
C 2221 2963 2490 2784 2490 2466 
L 2490 2326 
C 2490 2103 2355 2007 1933 1956 
C 1178 1861 1062 1835 858 1753 
C 467 1593 269 1294 269 861 
C 269 256 691 -128 1370 -128 
C 1792 -128 2131 19 2509 364 
C 2547 25 2714 -128 3059 -128 
C 3168 -128 3251 -116 3424 -71 
L 3424 332 
z
M 2490 1071 
C 2490 893 2438 785 2278 638 
C 2061 441 1798 339 1485 339 
C 1069 339 826 536 826 874 
C 826 1224 1062 1402 1632 1485 
C 2195 1562 2310 1587 2490 1670 
L 2490 1071 
z
" transform="scale(0.015625)"/>
       <path id="NimbusSanL-Regu-69" d="M 960 3358 
L 429 3358 
L 429 0 
L 960 0 
L 960 3358 
z
M 960 4672 
L 422 4672 
L 422 3999 
L 960 3999 
L 960 4672 
z
" transform="scale(0.015625)"/>
       <path id="NimbusSanL-Regu-6f" d="M 1741 3456 
C 800 3456 230 2784 230 1663 
C 230 543 794 -128 1747 -128 
C 2688 -128 3264 543 3264 1638 
C 3264 2791 2707 3456 1741 3456 
z
M 1747 2963 
C 2349 2963 2707 2472 2707 1644 
C 2707 861 2336 364 1747 364 
C 1152 364 787 855 787 1663 
C 787 2466 1152 2963 1747 2963 
z
" transform="scale(0.015625)"/>
       <path id="NimbusSanL-Regu-6e" d="M 448 3328 
L 448 0 
L 986 0 
L 986 1835 
C 986 2539 1344 2988 1894 2988 
C 2317 2988 2586 2732 2586 2328 
L 2586 0 
L 3117 0 
L 3117 2539 
C 3117 3097 2701 3456 2054 3456 
C 1555 3456 1235 3263 941 2796 
L 941 3328 
L 448 3328 
z
" transform="scale(0.015625)"/>
      </defs>
      <use xlink:href="#NimbusSanL-Regu-49" transform="scale(0.996264)"/>
      <use xlink:href="#NimbusSanL-Regu-74" transform="translate(27.69517 0) scale(0.996264)"/>
      <use xlink:href="#NimbusSanL-Regu-65" transform="translate(55.390339 0) scale(0.996264)"/>
      <use xlink:href="#NimbusSanL-Regu-72" transform="translate(110.782016 0) scale(0.996264)"/>
      <use xlink:href="#NimbusSanL-Regu-61" transform="translate(142.961149 0) scale(0.996264)"/>
      <use xlink:href="#NimbusSanL-Regu-74" transform="translate(198.352826 0) scale(0.996264)"/>
      <use xlink:href="#NimbusSanL-Regu-69" transform="translate(226.047996 0) scale(0.996264)"/>
      <use xlink:href="#NimbusSanL-Regu-6f" transform="translate(248.16478 0) scale(0.996264)"/>
      <use xlink:href="#NimbusSanL-Regu-6e" transform="translate(303.556457 0) scale(0.996264)"/>
     </g>
    </g>
   </g>
   <g id="matplotlib.axis_2">
    <g id="ytick_1">
     <g id="line2d_7">
      <defs>
       <path id="m1c923e8350" d="M 0 0 
L -3.5 0 
" style="stroke: #000000; stroke-width: 0.8"/>
      </defs>
      <g>
       <use xlink:href="#m1c923e8350" x="40.150386" y="218.443736" style="stroke: #000000; stroke-width: 0.8"/>
      </g>
     </g>
     <g id="text_8">
      <!-- $\mathdefault{−3}$ -->
      <g transform="translate(20.420307 221.992896) scale(0.1 -0.1)">
       <defs>
        <path id="CMSY10-0" d="M 4218 1472 
C 4326 1472 4442 1472 4442 1600 
C 4442 1728 4326 1728 4218 1728 
L 755 1728 
C 646 1728 531 1728 531 1600 
C 531 1472 646 1472 755 1472 
L 4218 1472 
z
" transform="scale(0.015625)"/>
        <path id="CMR17-33" d="M 1414 2176 
C 1984 2176 2234 1673 2234 1094 
C 2234 322 1824 25 1453 25 
C 1114 25 563 193 390 691 
C 422 678 454 678 486 678 
C 640 678 755 780 755 947 
C 755 1132 614 1216 486 1216 
C 378 1216 211 1164 211 927 
C 211 335 787 -128 1466 -128 
C 2176 -128 2720 432 2720 1087 
C 2720 1718 2208 2176 1600 2246 
C 2086 2347 2554 2776 2554 3353 
C 2554 3856 2048 4224 1472 4224 
C 890 4224 378 3862 378 3347 
C 378 3123 544 3084 627 3084 
C 762 3084 877 3167 877 3334 
C 877 3500 762 3584 627 3584 
C 602 3584 570 3584 544 3571 
C 730 3999 1235 4076 1459 4076 
C 1683 4076 2106 3966 2106 3347 
C 2106 3167 2080 2851 1862 2574 
C 1670 2329 1453 2316 1242 2297 
C 1210 2297 1062 2284 1037 2284 
C 992 2278 966 2272 966 2227 
C 966 2182 973 2176 1101 2176 
L 1414 2176 
z
" transform="scale(0.015625)"/>
       </defs>
       <use xlink:href="#CMSY10-0" transform="scale(0.996264)"/>
       <use xlink:href="#CMR17-33" transform="translate(77.487468 0) scale(0.996264)"/>
      </g>
     </g>
    </g>
    <g id="ytick_2">
     <g id="line2d_8">
      <g>
       <use xlink:href="#m1c923e8350" x="40.150386" y="188.773082" style="stroke: #000000; stroke-width: 0.8"/>
      </g>
     </g>
     <g id="text_9">
      <!-- $\mathdefault{−2}$ -->
      <g transform="translate(20.420307 192.322242) scale(0.1 -0.1)">
       <use xlink:href="#CMSY10-0" transform="scale(0.996264)"/>
       <use xlink:href="#CMR17-32" transform="translate(77.487468 0) scale(0.996264)"/>
      </g>
     </g>
    </g>
    <g id="ytick_3">
     <g id="line2d_9">
      <g>
       <use xlink:href="#m1c923e8350" x="40.150386" y="159.102428" style="stroke: #000000; stroke-width: 0.8"/>
      </g>
     </g>
     <g id="text_10">
      <!-- $\mathdefault{−1}$ -->
      <g transform="translate(20.420307 162.651589) scale(0.1 -0.1)">
       <use xlink:href="#CMSY10-0" transform="scale(0.996264)"/>
       <use xlink:href="#CMR17-31" transform="translate(77.487468 0) scale(0.996264)"/>
      </g>
     </g>
    </g>
    <g id="ytick_4">
     <g id="line2d_10">
      <g>
       <use xlink:href="#m1c923e8350" x="40.150386" y="129.431775" style="stroke: #000000; stroke-width: 0.8"/>
      </g>
     </g>
     <g id="text_11">
      <!-- $\mathdefault{0}$ -->
      <g transform="translate(28.16905 132.980935) scale(0.1 -0.1)">
       <use xlink:href="#CMR17-30" transform="scale(0.996264)"/>
      </g>
     </g>
    </g>
    <g id="ytick_5">
     <g id="line2d_11">
      <g>
       <use xlink:href="#m1c923e8350" x="40.150386" y="99.761121" style="stroke: #000000; stroke-width: 0.8"/>
      </g>
     </g>
     <g id="text_12">
      <!-- $\mathdefault{1}$ -->
      <g transform="translate(28.16905 103.310281) scale(0.1 -0.1)">
       <use xlink:href="#CMR17-31" transform="scale(0.996264)"/>
      </g>
     </g>
    </g>
    <g id="ytick_6">
     <g id="line2d_12">
      <g>
       <use xlink:href="#m1c923e8350" x="40.150386" y="70.090467" style="stroke: #000000; stroke-width: 0.8"/>
      </g>
     </g>
     <g id="text_13">
      <!-- $\mathdefault{2}$ -->
      <g transform="translate(28.16905 73.639628) scale(0.1 -0.1)">
       <use xlink:href="#CMR17-32" transform="scale(0.996264)"/>
      </g>
     </g>
    </g>
    <g id="ytick_7">
     <g id="line2d_13">
      <g>
       <use xlink:href="#m1c923e8350" x="40.150386" y="40.419814" style="stroke: #000000; stroke-width: 0.8"/>
      </g>
     </g>
     <g id="text_14">
      <!-- $\mathdefault{3}$ -->
      <g transform="translate(28.16905 43.968974) scale(0.1 -0.1)">
       <use xlink:href="#CMR17-33" transform="scale(0.996264)"/>
      </g>
     </g>
    </g>
    <g id="ytick_8">
     <g id="line2d_14">
      <g>
       <use xlink:href="#m1c923e8350" x="40.150386" y="10.74916" style="stroke: #000000; stroke-width: 0.8"/>
      </g>
     </g>
     <g id="text_15">
      <!-- $\mathdefault{4}$ -->
      <g transform="translate(28.16905 14.29832) scale(0.1 -0.1)">
       <defs>
        <path id="CMR17-34" d="M 2150 4147 
C 2150 4281 2144 4288 2029 4288 
L 128 1254 
L 128 1088 
L 1779 1088 
L 1779 460 
C 1779 230 1766 166 1318 166 
L 1197 166 
L 1197 0 
C 1402 12 1747 12 1965 12 
C 2182 12 2528 12 2733 0 
L 2733 166 
L 2611 166 
C 2163 166 2150 230 2150 460 
L 2150 1088 
L 2803 1088 
L 2803 1254 
L 2150 1254 
L 2150 4147 
z
M 1798 3723 
L 1798 1254 
L 256 1254 
L 1798 3723 
z
" transform="scale(0.015625)"/>
       </defs>
       <use xlink:href="#CMR17-34" transform="scale(0.996264)"/>
      </g>
     </g>
    </g>
    <g id="text_16">
     <!-- RMS residual - Blade_17 -->
     <g transform="translate(14.29832 173.164817) rotate(-90) scale(0.1 -0.1)">
      <defs>
       <path id="NimbusSanL-Regu-52" d="M 1190 2035 
L 2726 2035 
C 3258 2035 3494 1775 3494 1191 
L 3488 770 
C 3488 478 3539 192 3622 0 
L 4346 0 
L 4346 147 
C 4122 303 4077 471 4064 1101 
C 4058 1879 3936 2111 3430 2329 
C 3955 2585 4166 2907 4166 3432 
C 4166 4230 3661 4672 2746 4672 
L 595 4672 
L 595 0 
L 1190 0 
L 1190 2035 
z
M 1190 2560 
L 1190 4147 
L 2630 4147 
C 2963 4147 3155 4096 3302 3970 
C 3462 3837 3546 3628 3546 3350 
C 3546 2806 3264 2560 2630 2560 
L 1190 2560 
z
" transform="scale(0.015625)"/>
       <path id="NimbusSanL-Regu-4d" d="M 2995 0 
L 4307 3915 
L 4307 0 
L 4870 0 
L 4870 4672 
L 4045 4672 
L 2688 602 
L 1306 4672 
L 480 4672 
L 480 0 
L 1043 0 
L 1043 3915 
L 2368 0 
L 2995 0 
z
" transform="scale(0.015625)"/>
       <path id="NimbusSanL-Regu-53" d="M 3814 3295 
C 3808 4204 3181 4736 2106 4736 
C 1082 4736 448 4211 448 3372 
C 448 2806 749 2450 1363 2291 
L 2522 1986 
C 3110 1833 3379 1598 3379 1236 
C 3379 988 3245 733 3046 593 
C 2861 466 2566 396 2189 396 
C 1683 396 1338 517 1114 784 
C 941 988 864 1210 870 1496 
L 307 1496 
C 314 1070 397 790 582 536 
C 902 102 1440 -128 2150 -128 
C 2707 -128 3162 0 3462 230 
C 3776 479 3974 892 3974 1293 
C 3974 1865 3616 2284 2982 2456 
L 1811 2768 
C 1248 2920 1043 3098 1043 3454 
C 1043 3925 1459 4236 2086 4236 
C 2829 4236 3245 3899 3251 3295 
L 3814 3295 
z
" transform="scale(0.015625)"/>
       <path id="NimbusSanL-Regu-73" d="M 2803 2428 
C 2797 3084 2362 3456 1587 3456 
C 806 3456 301 3052 301 2434 
C 301 1912 570 1663 1363 1472 
L 1862 1351 
C 2234 1262 2381 1129 2381 887 
C 2381 574 2067 364 1600 364 
C 1312 364 1069 447 934 587 
C 851 683 813 778 781 1014 
L 218 1014 
C 243 243 678 -128 1555 -128 
C 2400 -128 2938 288 2938 931 
C 2938 1428 2656 1702 1990 1861 
L 1478 1982 
C 1043 2084 858 2224 858 2459 
C 858 2765 1133 2963 1568 2963 
C 1997 2963 2227 2778 2240 2428 
L 2803 2428 
z
" transform="scale(0.015625)"/>
       <path id="NimbusSanL-Regu-64" d="M 3168 4672 
L 2637 4672 
L 2637 2937 
C 2413 3276 2054 3456 1606 3456 
C 736 3456 166 2759 166 1695 
C 166 568 723 -128 1626 -128 
C 2086 -128 2406 44 2694 460 
L 2694 19 
L 3168 19 
L 3168 4672 
z
M 1696 2956 
C 2272 2956 2637 2447 2637 1651 
C 2637 880 2266 371 1702 371 
C 1114 371 723 887 723 1663 
C 723 2440 1114 2956 1696 2956 
z
" transform="scale(0.015625)"/>
       <path id="NimbusSanL-Regu-75" d="M 3085 19 
L 3085 3328 
L 2554 3328 
L 2554 1454 
C 2554 780 2195 339 1638 339 
C 1216 339 947 591 947 988 
L 947 3328 
L 416 3328 
L 416 780 
C 416 230 832 -128 1485 -128 
C 1978 -128 2291 44 2605 484 
L 2605 19 
L 3085 19 
z
" transform="scale(0.015625)"/>
       <path id="NimbusSanL-Regu-6c" d="M 973 4672 
L 435 4672 
L 435 0 
L 973 0 
L 973 4672 
z
" transform="scale(0.015625)"/>
       <path id="NimbusSanL-Regu-2d" d="M 1818 1996 
L 294 1996 
L 294 1536 
L 1818 1536 
L 1818 1996 
z
" transform="scale(0.015625)"/>
       <path id="NimbusSanL-Regu-42" d="M 506 0 
L 2611 0 
C 3053 0 3379 121 3629 390 
C 3859 632 3987 961 3987 1321 
C 3987 1878 3731 2214 3136 2444 
C 3558 2643 3782 2994 3782 3476 
C 3782 3821 3654 4127 3411 4345 
C 3168 4569 2848 4672 2400 4672 
L 506 4672 
L 506 0 
z
M 1101 2636 
L 1101 4147 
L 2253 4147 
C 2586 4147 2771 4101 2931 3977 
C 3098 3847 3187 3652 3187 3391 
C 3187 3138 3098 2936 2931 2806 
C 2771 2682 2586 2636 2253 2636 
L 1101 2636 
z
M 1101 524 
L 1101 2112 
L 2554 2112 
C 2842 2112 3034 2042 3174 1890 
C 3315 1745 3392 1542 3392 1315 
C 3392 1093 3315 891 3174 746 
C 3034 594 2842 524 2554 524 
L 1101 524 
z
" transform="scale(0.015625)"/>
       <path id="NimbusSanL-Regu-31" d="M 1658 3232 
L 1658 0 
L 2221 0 
L 2221 4537 
L 1850 4537 
C 1651 3840 1523 3744 653 3635 
L 653 3232 
L 1658 3232 
z
" transform="scale(0.015625)"/>
       <path id="NimbusSanL-Regu-37" d="M 3328 4544 
L 294 4544 
L 294 3987 
L 2746 3987 
C 1664 2442 1222 1493 883 0 
L 1485 0 
C 1734 1454 2304 2704 3328 4070 
L 3328 4544 
z
" transform="scale(0.015625)"/>
      </defs>
      <use xlink:href="#NimbusSanL-Regu-52" transform="scale(0.996264)"/>
      <use xlink:href="#NimbusSanL-Regu-4d" transform="translate(71.929985 0) scale(0.996264)"/>
      <use xlink:href="#NimbusSanL-Regu-53" transform="translate(154.918415 0) scale(0.996264)"/>
      <use xlink:href="#NimbusSanL-Regu-72" transform="translate(249.063616 0) scale(0.996264)"/>
      <use xlink:href="#NimbusSanL-Regu-65" transform="translate(282.238846 0) scale(0.996264)"/>
      <use xlink:href="#NimbusSanL-Regu-73" transform="translate(337.630523 0) scale(0.996264)"/>
      <use xlink:href="#NimbusSanL-Regu-69" transform="translate(387.443723 0) scale(0.996264)"/>
      <use xlink:href="#NimbusSanL-Regu-64" transform="translate(409.560507 0) scale(0.996264)"/>
      <use xlink:href="#NimbusSanL-Regu-75" transform="translate(464.952184 0) scale(0.996264)"/>
      <use xlink:href="#NimbusSanL-Regu-61" transform="translate(520.343861 0) scale(0.996264)"/>
      <use xlink:href="#NimbusSanL-Regu-6c" transform="translate(575.735538 0) scale(0.996264)"/>
      <use xlink:href="#NimbusSanL-Regu-2d" transform="translate(625.547492 0) scale(0.996264)"/>
      <use xlink:href="#NimbusSanL-Regu-42" transform="translate(686.417892 0) scale(0.996264)"/>
      <use xlink:href="#NimbusSanL-Regu-6c" transform="translate(752.867923 0) scale(0.996264)"/>
      <use xlink:href="#NimbusSanL-Regu-61" transform="translate(774.984707 0) scale(0.996264)"/>
      <use xlink:href="#NimbusSanL-Regu-64" transform="translate(830.376384 0) scale(0.996264)"/>
      <use xlink:href="#NimbusSanL-Regu-65" transform="translate(885.768061 0) scale(0.996264)"/>
      <use xlink:href="#NimbusSanL-Regu-31" transform="translate(977.025303 0) scale(0.996264)"/>
      <use xlink:href="#NimbusSanL-Regu-37" transform="translate(1032.41698 0) scale(0.996264)"/>
      <path d="M 947.137079 0 
L 977.025303 0 
L 977.025303 0.3985 
L 947.137079 0.3985 
L 947.137079 0 
z
"/>
     </g>
    </g>
   </g>
   <g id="line2d_15">
    <path d="M 55.368567 200.118916 
L 56.557488 207.272366 
L 57.746408 211.698985 
L 58.935329 217.261162 
L 60.124249 219.54462 
L 61.31317 219.574428 
L 63.691011 219.274758 
L 66.068852 219.175413 
L 67.257772 218.972053 
L 68.446692 218.533987 
L 69.635613 217.815514 
L 70.824533 216.824407 
L 73.202374 214.467982 
L 74.391295 213.532204 
L 75.580215 213.174162 
L 77.958056 213.458253 
L 79.146977 212.504098 
L 80.335897 210.907044 
L 81.524817 209.768624 
L 83.902658 208.154802 
L 85.091579 207.772053 
L 86.280499 208.454742 
L 89.847261 211.135574 
L 93.414022 213.109393 
L 94.602942 213.406229 
L 95.791863 213.108942 
L 96.980783 212.53012 
L 98.169704 212.083791 
L 100.547545 211.495286 
L 101.736465 210.907933 
L 104.114306 213.507464 
L 107.681067 217.618827 
L 108.869988 218.859755 
L 110.058908 219.480532 
L 111.247829 219.207704 
L 112.436749 218.17881 
L 114.81459 215.008328 
L 116.003511 213.843608 
L 117.192431 213.209906 
L 118.381352 213.102178 
L 119.570272 213.897433 
L 123.137033 217.115213 
L 124.325954 217.792917 
L 125.514874 218.275081 
L 126.703795 218.545086 
L 127.892715 218.294841 
L 130.270556 216.657326 
L 132.648397 214.911601 
L 133.837317 213.830675 
L 135.026238 213.436217 
L 136.215158 213.279289 
L 138.592999 215.470339 
L 139.78192 216.258083 
L 143.348681 217.346237 
L 144.537602 218.074434 
L 145.726522 218.560829 
L 146.915442 218.43886 
L 148.104363 217.702247 
L 149.293283 216.540718 
L 151.671124 213.888676 
L 154.048965 214.662117 
L 155.237886 215.31899 
L 157.615727 216.869837 
L 159.993567 217.982254 
L 161.182488 218.414845 
L 162.371408 218.34967 
L 163.560329 217.6387 
L 167.12709 214.830864 
L 168.316011 214.351745 
L 169.504931 214.74417 
L 173.071692 216.352778 
L 174.260613 216.589764 
L 175.449533 216.358933 
L 177.827374 216.103899 
L 179.016295 215.771359 
L 180.205215 215.117703 
L 182.583056 212.949592 
L 183.771977 212.514891 
L 184.960897 211.856871 
L 188.527658 213.497795 
L 189.716579 213.867887 
L 190.905499 214.007744 
L 192.09442 213.826241 
L 193.28334 213.233769 
L 194.472261 212.178932 
L 196.850102 209.721528 
L 198.039022 209.083321 
L 199.227942 209.032307 
L 200.416863 208.830309 
L 201.605783 207.350038 
L 202.794704 205.388287 
L 203.983624 204.455279 
L 205.172545 204.873828 
L 206.361465 205.573318 
L 207.550386 206.547439 
L 209.928227 208.757681 
L 211.117147 209.536954 
L 212.306067 209.859884 
L 213.494988 209.73706 
L 214.683908 209.322838 
L 215.872829 209.100771 
L 218.25067 208.400115 
L 220.628511 208.029942 
L 221.817431 208.507275 
L 225.384192 210.410795 
L 226.573113 210.778113 
L 243.217999 210.939542 
L 255.107204 211.297225 
L 257.485045 211.228318 
L 258.673965 211.010605 
L 259.862886 210.57503 
L 262.240727 209.455362 
L 263.429647 209.098253 
L 265.807488 209.364649 
L 269.374249 210.221316 
L 270.56317 209.252039 
L 271.75209 210.350995 
L 272.941011 209.973775 
L 274.129931 209.178431 
L 275.318852 207.957862 
L 276.507772 205.881945 
L 277.696692 202.92436 
L 278.885613 200.284313 
L 281.263454 199.90268 
L 283.641295 199.330187 
L 286.019136 198.551545 
L 290.774817 195.984834 
L 291.963738 195.55333 
L 293.152658 195.37173 
L 294.341579 195.458903 
L 295.530499 195.866611 
L 296.71942 196.591168 
L 297.90834 196.630986 
L 299.097261 196.44437 
L 301.475102 196.784973 
L 302.664022 198.020447 
L 303.852942 198.263635 
L 306.230783 196.659695 
L 307.419704 196.511689 
L 308.608624 197.260924 
L 309.797545 197.523144 
L 310.986465 197.165332 
L 313.364306 194.685393 
L 314.553227 193.182591 
L 315.742147 192.480751 
L 319.308908 193.167051 
L 324.06459 193.482082 
L 325.253511 193.434717 
L 326.442431 193.109874 
L 327.631352 192.121614 
L 328.820272 190.151492 
L 330.009192 185.97826 
L 332.387033 187.164498 
L 334.764874 188.127261 
L 337.142715 188.872666 
L 338.331636 189.156526 
L 339.520556 189.283391 
L 340.709477 189.564995 
L 343.087317 189.567405 
L 345.465158 189.250116 
L 352.598681 187.835451 
L 353.787602 187.38698 
L 356.165442 187.24472 
L 357.354363 186.960111 
L 358.543283 186.847684 
L 359.732204 186.353138 
L 359.732204 186.353138 
" clip-path="url(#p88d09f51ff)" style="fill: none; stroke: #1f77b4; stroke-width: 1.5; stroke-linecap: square"/>
   </g>
   <g id="line2d_16">
    <path d="M 55.368567 144.108368 
L 56.557488 138.306518 
L 57.746408 141.001555 
L 58.935329 143.392813 
L 60.124249 142.961132 
L 61.31317 143.233906 
L 63.691011 144.094151 
L 64.879931 144.34165 
L 66.068852 144.351627 
L 67.257772 144.129891 
L 68.446692 143.599558 
L 69.635613 142.614815 
L 73.202374 138.51684 
L 74.391295 137.787355 
L 75.580215 137.486857 
L 77.958056 136.740451 
L 79.146977 136.799906 
L 81.524817 137.363347 
L 82.713738 137.437558 
L 85.091579 136.462187 
L 87.46942 137.595744 
L 89.847261 139.125892 
L 91.036181 140.047023 
L 92.225102 140.756192 
L 93.414022 140.760122 
L 94.602942 139.913047 
L 96.980783 137.522237 
L 99.358624 135.836504 
L 101.736465 133.499766 
L 106.492147 136.952547 
L 107.681067 137.581699 
L 108.869988 137.775188 
L 110.058908 137.257011 
L 111.247829 136.468119 
L 112.436749 136.033427 
L 113.62567 136.03123 
L 116.003511 136.256147 
L 117.192431 136.321742 
L 120.759192 138.03014 
L 121.948113 138.625404 
L 123.137033 139.384956 
L 125.514874 141.102006 
L 126.703795 141.461315 
L 127.892715 141.448281 
L 129.081636 141.558244 
L 131.459477 142.562018 
L 132.648397 142.714019 
L 133.837317 142.308875 
L 135.026238 141.732427 
L 136.215158 140.864286 
L 137.404079 140.799046 
L 138.592999 140.862455 
L 139.78192 141.324753 
L 143.348681 143.818866 
L 144.537602 143.91569 
L 145.726522 143.491512 
L 146.915442 142.657806 
L 148.104363 141.533972 
L 151.671124 137.755345 
L 154.048965 138.587049 
L 156.426806 139.006656 
L 158.804647 139.368701 
L 159.993567 139.36349 
L 161.182488 138.977288 
L 162.371408 138.39865 
L 163.560329 137.988445 
L 164.749249 137.849038 
L 168.316011 137.855386 
L 170.693852 138.638975 
L 174.260613 139.489883 
L 176.638454 138.961954 
L 177.827374 138.393587 
L 179.016295 137.505437 
L 180.205215 136.415462 
L 182.583056 133.784908 
L 183.771977 133.257327 
L 184.960897 132.207803 
L 186.149817 132.691734 
L 189.716579 133.486722 
L 192.09442 133.611833 
L 193.28334 133.441966 
L 194.472261 132.962161 
L 195.661181 132.184477 
L 198.039022 130.348349 
L 199.227942 129.648238 
L 200.416863 129.427093 
L 201.605783 129.967213 
L 202.794704 130.320012 
L 203.983624 129.605155 
L 207.550386 129.780699 
L 212.306067 130.405619 
L 213.494988 130.271537 
L 214.683908 129.906278 
L 215.872829 129.930636 
L 217.061749 129.760814 
L 220.628511 129.719116 
L 224.195272 131.282174 
L 226.573113 132.138735 
L 243.217999 132.408623 
L 247.973681 132.498251 
L 249.162602 132.458115 
L 252.729363 131.877793 
L 256.296124 131.165717 
L 258.673965 130.690023 
L 259.862886 130.216968 
L 261.051806 129.574636 
L 263.429647 127.985519 
L 265.807488 127.465395 
L 269.374249 126.379187 
L 270.56317 124.147313 
L 271.75209 124.77604 
L 272.941011 123.576539 
L 274.129931 122.114382 
L 275.318852 120.316278 
L 276.507772 117.578705 
L 277.696692 113.866828 
L 278.885613 110.962157 
L 281.263454 110.475475 
L 283.641295 109.757658 
L 284.830215 109.279563 
L 287.208056 108.009421 
L 290.774817 105.764238 
L 291.963738 105.293743 
L 293.152658 105.056797 
L 294.341579 105.297393 
L 295.530499 105.84713 
L 296.71942 106.753222 
L 299.097261 106.793749 
L 300.286181 107.275368 
L 301.475102 107.950815 
L 302.664022 109.593225 
L 303.852942 109.750975 
L 305.041863 108.862074 
L 306.230783 108.308099 
L 307.419704 108.262424 
L 309.797545 109.891444 
L 310.986465 110.158628 
L 312.175386 109.374255 
L 314.553227 107.116213 
L 315.742147 106.568381 
L 318.119988 107.277156 
L 319.308908 107.471085 
L 321.686749 107.350917 
L 326.442431 106.825254 
L 327.631352 106.38486 
L 328.820272 105.108771 
L 330.009192 100.911095 
L 332.387033 102.033509 
L 334.764874 102.935792 
L 337.142715 103.61334 
L 338.331636 103.871235 
L 339.520556 103.903173 
L 340.709477 104.340852 
L 343.087317 104.473003 
L 345.465158 104.288433 
L 349.03192 103.670551 
L 352.598681 102.908356 
L 353.787602 102.294123 
L 357.354363 101.518716 
L 358.543283 101.625624 
L 359.732204 101.523995 
L 359.732204 101.523995 
" clip-path="url(#p88d09f51ff)" style="fill: none; stroke: #ff7f0e; stroke-width: 1.5; stroke-linecap: square"/>
   </g>
   <g id="line2d_17">
    <path d="M 55.368567 36.669935 
L 56.557488 44.36676 
L 57.746408 48.553418 
L 58.935329 54.231895 
L 60.124249 56.464811 
L 61.31317 56.531531 
L 64.879931 56.200198 
L 66.068852 56.102645 
L 67.257772 55.811342 
L 68.446692 55.228036 
L 69.635613 54.326795 
L 73.202374 50.794979 
L 74.391295 49.997562 
L 75.580215 49.716135 
L 77.958056 49.793002 
L 79.146977 49.060452 
L 80.335897 47.603787 
L 81.524817 46.426794 
L 83.902658 44.649616 
L 85.091579 44.187568 
L 86.280499 44.973517 
L 88.65834 47.061298 
L 89.847261 47.869836 
L 93.414022 49.603457 
L 94.602942 49.814235 
L 95.791863 49.455972 
L 96.980783 48.870813 
L 98.169704 48.456341 
L 99.358624 48.202238 
L 100.547545 47.81704 
L 101.736465 47.205979 
L 102.925386 48.649175 
L 106.492147 53.509571 
L 107.681067 54.951854 
L 108.869988 56.049452 
L 110.058908 56.325817 
L 111.247829 55.753599 
L 112.436749 54.67945 
L 114.81459 51.78696 
L 116.003511 50.681166 
L 117.192431 50.059441 
L 118.381352 49.981142 
L 119.570272 50.886579 
L 123.137033 54.11219 
L 124.325954 54.697359 
L 125.514874 55.034259 
L 126.703795 55.148124 
L 127.892715 54.84042 
L 131.459477 52.738774 
L 132.648397 51.870377 
L 133.837317 50.756683 
L 135.026238 50.244688 
L 136.215158 49.869346 
L 139.78192 53.189392 
L 140.97084 53.713067 
L 142.159761 54.030859 
L 144.537602 55.020775 
L 145.726522 55.20426 
L 146.915442 54.828376 
L 148.104363 53.999922 
L 149.293283 52.872433 
L 151.671124 50.269699 
L 152.860045 50.775415 
L 154.048965 51.405595 
L 157.615727 54.017105 
L 158.804647 54.525611 
L 159.993567 54.859999 
L 161.182488 54.984016 
L 162.371408 54.56856 
L 164.749249 52.535516 
L 165.93817 51.565361 
L 167.12709 50.767363 
L 168.316011 50.441066 
L 169.504931 51.015805 
L 173.071692 53.258545 
L 174.260613 53.735764 
L 177.827374 54.000169 
L 179.016295 53.787424 
L 180.205215 53.208635 
L 181.394136 52.284723 
L 183.771977 49.877152 
L 184.960897 47.958717 
L 188.527658 51.002712 
L 189.716579 51.786376 
L 190.905499 52.429435 
L 192.09442 52.825567 
L 193.28334 52.865221 
L 194.472261 52.411244 
L 198.039022 49.81341 
L 199.227942 49.15196 
L 200.416863 47.987217 
L 202.794704 44.770045 
L 203.983624 43.892459 
L 205.172545 44.352584 
L 206.361465 45.149311 
L 209.928227 48.581378 
L 211.117147 49.202424 
L 212.306067 49.189427 
L 213.494988 48.683652 
L 214.683908 47.994954 
L 215.872829 47.619883 
L 217.061749 46.940633 
L 218.25067 46.079882 
L 220.628511 44.184336 
L 223.006352 46.182396 
L 224.195272 47.270783 
L 225.384192 48.185539 
L 226.573113 48.753803 
L 237.273397 49.126572 
L 243.217999 49.482279 
L 249.162602 50.008577 
L 251.540442 49.528893 
L 253.918283 48.693006 
L 255.107204 48.227421 
L 257.485045 47.694119 
L 258.673965 47.283533 
L 259.862886 46.528326 
L 261.051806 45.539416 
L 262.240727 44.360036 
L 263.429647 43.838337 
L 265.807488 43.749213 
L 268.185329 43.44381 
L 269.374249 43.227497 
L 270.56317 40.34701 
L 271.75209 42.250032 
L 272.941011 41.359227 
L 274.129931 40.116734 
L 275.318852 38.48676 
L 276.507772 35.231554 
L 277.696692 28.497104 
L 278.885613 29.809234 
L 281.263454 29.401813 
L 283.641295 28.795059 
L 284.830215 28.387837 
L 286.019136 27.711035 
L 287.208056 27.305494 
L 288.396977 26.650989 
L 289.585897 25.797796 
L 291.963738 25.068555 
L 293.152658 24.835331 
L 294.341579 25.238493 
L 295.530499 24.419774 
L 296.71942 26.439109 
L 297.90834 25.997967 
L 299.097261 25.926501 
L 301.475102 26.343951 
L 302.664022 27.967934 
L 303.852942 28.583572 
L 306.230783 26.112281 
L 307.419704 25.901399 
L 308.608624 26.995022 
L 309.797545 27.607482 
L 310.986465 27.937422 
L 312.175386 27.217614 
L 314.553227 24.997801 
L 315.742147 24.500197 
L 319.308908 25.508946 
L 320.497829 25.628449 
L 322.87567 25.547 
L 326.442431 25.023925 
L 327.631352 24.494957 
L 328.820272 22.765247 
L 330.009192 18.079495 
L 332.387033 19.183065 
L 334.764874 20.06383 
L 337.142715 20.742065 
L 338.331636 21.019269 
L 339.520556 20.933271 
L 340.709477 21.508292 
L 343.087317 21.783047 
L 345.465158 21.854026 
L 347.842999 21.653462 
L 350.22084 21.217514 
L 352.598681 20.580306 
L 353.787602 19.943138 
L 357.354363 18.570225 
L 358.543283 18.377475 
L 359.732204 17.974428 
L 359.732204 17.974428 
" clip-path="url(#p88d09f51ff)" style="fill: none; stroke: #2ca02c; stroke-width: 1.5; stroke-linecap: square"/>
   </g>
   <g id="patch_3">
    <path d="M 40.150386 229.654428 
L 40.150386 7.894428 
" style="fill: none; stroke: #000000; stroke-width: 0.8; stroke-linejoin: miter; stroke-linecap: square"/>
   </g>
   <g id="patch_4">
    <path d="M 374.950386 229.654428 
L 374.950386 7.894428 
" style="fill: none; stroke: #000000; stroke-width: 0.8; stroke-linejoin: miter; stroke-linecap: square"/>
   </g>
   <g id="patch_5">
    <path d="M 40.150386 229.654428 
L 374.950386 229.654428 
" style="fill: none; stroke: #000000; stroke-width: 0.8; stroke-linejoin: miter; stroke-linecap: square"/>
   </g>
   <g id="patch_6">
    <path d="M 40.150386 7.894428 
L 374.950386 7.894428 
" style="fill: none; stroke: #000000; stroke-width: 0.8; stroke-linejoin: miter; stroke-linecap: square"/>
   </g>
   <g id="legend_1">
    <g id="patch_7">
     <path d="M 47.150386 141.604888 
L 91.655585 141.604888 
Q 93.655585 141.604888 93.655585 139.604888 
L 93.655585 97.943968 
Q 93.655585 95.943968 91.655585 95.943968 
L 47.150386 95.943968 
Q 45.150386 95.943968 45.150386 97.943968 
L 45.150386 139.604888 
Q 45.150386 141.604888 47.150386 141.604888 
z
" style="fill: #ffffff; opacity: 0.8; stroke: #cccccc; stroke-linejoin: miter"/>
    </g>
    <g id="line2d_18">
     <path d="M 49.150386 103.542288 
L 59.150386 103.542288 
L 69.150386 103.542288 
" style="fill: none; stroke: #1f77b4; stroke-width: 1.5; stroke-linecap: square"/>
    </g>
    <g id="text_17">
     <!-- $\rho$ -->
     <g transform="translate(77.150386 107.042288) scale(0.1 -0.1)">
      <defs>
       <path id="CMMI12-1a" d="M 198 -1085 
C 192 -1116 179 -1154 179 -1191 
C 179 -1287 256 -1351 352 -1351 
C 448 -1351 538 -1287 576 -1198 
C 602 -1141 781 -390 986 389 
C 1114 70 1350 -64 1600 -64 
C 2323 -64 3142 830 3142 1794 
C 3142 2477 2726 2816 2285 2816 
C 1722 2816 1037 2234 826 1385 
L 198 -1085 
z
M 1594 64 
C 1158 64 1050 568 1050 645 
C 1050 683 1210 1289 1229 1385 
C 1555 2656 2182 2687 2278 2687 
C 2566 2687 2726 2426 2726 2049 
C 2726 1724 2554 1091 2445 823 
C 2253 383 1920 64 1594 64 
z
" transform="scale(0.015625)"/>
      </defs>
      <use xlink:href="#CMMI12-1a" transform="scale(0.996264)"/>
     </g>
    </g>
    <g id="line2d_19">
     <path d="M 49.150386 117.762595 
L 59.150386 117.762595 
L 69.150386 117.762595 
" style="fill: none; stroke: #ff7f0e; stroke-width: 1.5; stroke-linecap: square"/>
    </g>
    <g id="text_18">
     <!-- $\rho u$ -->
     <g transform="translate(77.150386 121.262595) scale(0.1 -0.1)">
      <defs>
       <path id="CMMI12-75" d="M 2182 370 
C 2266 12 2573 -64 2726 -64 
C 2931 -64 3085 70 3187 287 
C 3296 517 3379 893 3379 913 
C 3379 944 3354 970 3315 970 
C 3258 970 3251 938 3226 842 
C 3110 402 2995 64 2739 64 
C 2547 64 2547 274 2547 357 
C 2547 504 2566 568 2630 836 
C 2675 1008 2720 1181 2758 1359 
L 3021 2400 
C 3066 2560 3066 2572 3066 2591 
C 3066 2687 2989 2752 2893 2752 
C 2707 2752 2662 2591 2624 2432 
C 2560 2183 2214 810 2170 587 
C 2163 587 1914 64 1446 64 
C 1114 64 1050 351 1050 587 
C 1050 951 1229 1462 1395 1890 
C 1472 2094 1504 2177 1504 2305 
C 1504 2579 1306 2816 998 2816 
C 410 2816 173 1890 173 1838 
C 173 1813 198 1781 243 1781 
C 301 1781 307 1807 333 1896 
C 486 2445 736 2687 979 2687 
C 1043 2687 1146 2681 1146 2477 
C 1146 2311 1075 2126 979 1883 
C 698 1123 666 881 666 689 
C 666 38 1158 -64 1421 -64 
C 1830 -64 2054 217 2182 370 
z
" transform="scale(0.015625)"/>
      </defs>
      <use xlink:href="#CMMI12-1a" transform="scale(0.996264)"/>
      <use xlink:href="#CMMI12-75" transform="translate(50.314373 0) scale(0.996264)"/>
     </g>
    </g>
    <g id="line2d_20">
     <path d="M 49.150386 131.982902 
L 59.150386 131.982902 
L 69.150386 131.982902 
" style="fill: none; stroke: #2ca02c; stroke-width: 1.5; stroke-linecap: square"/>
    </g>
    <g id="text_19">
     <!-- $\rho E$ -->
     <g transform="translate(77.150386 135.482902) scale(0.1 -0.1)">
      <defs>
       <path id="CMMI12-45" d="M 4448 1489 
C 4454 1508 4474 1553 4474 1578 
C 4474 1611 4448 1643 4410 1643 
C 4384 1643 4371 1636 4352 1617 
C 4339 1611 4339 1598 4282 1469 
C 3904 570 3629 185 2605 185 
L 1670 185 
C 1581 185 1568 185 1530 192 
C 1459 198 1453 211 1453 262 
C 1453 307 1466 346 1478 403 
L 1920 2176 
L 2554 2176 
C 3053 2176 3091 2066 3091 1874 
C 3091 1810 3091 1752 3046 1559 
C 3034 1534 3027 1508 3027 1489 
C 3027 1444 3059 1424 3098 1424 
C 3155 1424 3162 1469 3187 1559 
L 3552 3036 
C 3552 3068 3526 3099 3488 3099 
C 3430 3099 3424 3074 3398 2986 
C 3270 2500 3142 2361 2573 2361 
L 1965 2361 
L 2362 3913 
C 2419 4134 2432 4153 2694 4153 
L 3610 4153 
C 4397 4153 4557 3945 4557 3465 
C 4557 3459 4557 3282 4531 3074 
C 4525 3049 4518 3011 4518 2998 
C 4518 2948 4550 2929 4589 2929 
C 4634 2929 4659 2954 4672 3068 
L 4806 4172 
C 4806 4191 4819 4255 4819 4268 
C 4819 4339 4762 4339 4646 4339 
L 1523 4339 
C 1402 4339 1338 4339 1338 4223 
C 1338 4153 1382 4153 1491 4153 
C 1888 4153 1888 4109 1888 4039 
C 1888 4008 1882 3983 1862 3913 
L 998 474 
C 941 249 928 185 480 185 
C 358 185 294 185 294 70 
C 294 0 333 0 461 0 
L 3674 0 
C 3814 0 3821 6 3866 108 
L 4448 1489 
z
" transform="scale(0.015625)"/>
      </defs>
      <use xlink:href="#CMMI12-1a" transform="scale(0.996264)"/>
      <use xlink:href="#CMMI12-45" transform="translate(50.314373 0) scale(0.996264)"/>
     </g>
    </g>
   </g>
  </g>
 </g>
 <defs>
  <clipPath id="p88d09f51ff">
   <rect x="40.150386" y="7.894428" width="334.8" height="221.76"/>
  </clipPath>
 </defs>
</svg>
