<?xml version="1.0" encoding="utf-8" standalone="no"?>
<!DOCTYPE svg PUBLIC "-//W3C//DTD SVG 1.1//EN"
  "http://www.w3.org/Graphics/SVG/1.1/DTD/svg11.dtd">
<svg xmlns:xlink="http://www.w3.org/1999/xlink" width="382.150386pt" height="265.600613pt" viewBox="0 0 382.150386 265.600613" xmlns="http://www.w3.org/2000/svg" version="1.1">
 <metadata>
  <rdf:RDF xmlns:dc="http://purl.org/dc/elements/1.1/" xmlns:cc="http://creativecommons.org/ns#" xmlns:rdf="http://www.w3.org/1999/02/22-rdf-syntax-ns#">
   <cc:Work>
    <dc:type rdf:resource="http://purl.org/dc/dcmitype/StillImage"/>
    <dc:date>2025-07-16T21:59:03.547324</dc:date>
    <dc:format>image/svg+xml</dc:format>
    <dc:creator>
     <cc:Agent>
      <dc:title>Matplotlib v3.10.3, https://matplotlib.org/</dc:title>
     </cc:Agent>
    </dc:creator>
   </cc:Work>
  </rdf:RDF>
 </metadata>
 <defs>
  <style type="text/css">*{stroke-linejoin: round; stroke-linecap: butt}</style>
 </defs>
 <g id="figure_1">
  <g id="patch_1">
   <path d="M 0 265.600613 
L 382.150386 265.600613 
L 382.150386 0 
L 0 0 
z
" style="fill: #ffffff"/>
  </g>
  <g id="axes_1">
   <g id="patch_2">
    <path d="M 40.150386 228.96 
L 374.950386 228.96 
L 374.950386 7.2 
L 40.150386 7.2 
z
" style="fill: #ffffff"/>
   </g>
   <g id="matplotlib.axis_1">
    <g id="xtick_1">
     <g id="line2d_1">
      <defs>
       <path id="m6fcf3f88ff" d="M 0 0 
L 0 3.5 
" style="stroke: #000000; stroke-width: 0.8"/>
      </defs>
      <g>
       <use xlink:href="#m6fcf3f88ff" x="55.368567" y="228.96" style="stroke: #000000; stroke-width: 0.8"/>
      </g>
     </g>
     <g id="text_1">
      <!-- $\mathdefault{0}$ -->
      <g transform="translate(52.8779 243.05832) scale(0.1 -0.1)">
       <defs>
        <path id="CMR17-30" d="M 2688 2038 
C 2688 2430 2682 3099 2413 3613 
C 2176 4063 1798 4224 1466 4224 
C 1158 4224 768 4082 525 3620 
C 269 3137 243 2539 243 2038 
C 243 1671 250 1112 448 623 
C 723 -39 1216 -128 1466 -128 
C 1760 -128 2208 -7 2470 604 
C 2662 1048 2688 1568 2688 2038 
z
M 1466 -26 
C 1056 -26 813 328 723 816 
C 653 1196 653 1749 653 2109 
C 653 2604 653 3015 736 3407 
C 858 3954 1216 4121 1466 4121 
C 1728 4121 2067 3947 2189 3420 
C 2272 3054 2278 2623 2278 2109 
C 2278 1691 2278 1176 2202 797 
C 2067 96 1690 -26 1466 -26 
z
" transform="scale(0.015625)"/>
       </defs>
       <use xlink:href="#CMR17-30" transform="scale(0.996264)"/>
      </g>
     </g>
    </g>
    <g id="xtick_2">
     <g id="line2d_2">
      <g>
       <use xlink:href="#m6fcf3f88ff" x="102.280349" y="228.96" style="stroke: #000000; stroke-width: 0.8"/>
      </g>
     </g>
     <g id="text_2">
      <!-- $\mathdefault{500}$ -->
      <g transform="translate(94.808346 243.05832) scale(0.1 -0.1)">
       <defs>
        <path id="CMR17-35" d="M 730 3750 
C 794 3724 1056 3641 1325 3641 
C 1920 3641 2246 3961 2432 4140 
C 2432 4191 2432 4224 2394 4224 
C 2387 4224 2374 4224 2323 4198 
C 2099 4102 1837 4032 1517 4032 
C 1325 4032 1037 4055 723 4191 
C 653 4224 640 4224 634 4224 
C 602 4224 595 4217 595 4090 
L 595 2231 
C 595 2113 595 2080 659 2080 
C 691 2080 704 2093 736 2139 
C 941 2435 1222 2560 1542 2560 
C 1766 2560 2246 2415 2246 1293 
C 2246 1087 2246 716 2054 422 
C 1894 159 1645 25 1370 25 
C 947 25 518 319 403 812 
C 429 806 480 793 506 793 
C 589 793 749 838 749 1036 
C 749 1209 627 1280 506 1280 
C 358 1280 262 1190 262 1011 
C 262 454 704 -128 1382 -128 
C 2042 -128 2669 441 2669 1267 
C 2669 2054 2170 2662 1549 2662 
C 1222 2662 947 2540 730 2304 
L 730 3750 
z
" transform="scale(0.015625)"/>
       </defs>
       <use xlink:href="#CMR17-35" transform="scale(0.996264)"/>
       <use xlink:href="#CMR17-30" transform="translate(45.690477 0) scale(0.996264)"/>
       <use xlink:href="#CMR17-30" transform="translate(91.380954 0) scale(0.996264)"/>
      </g>
     </g>
    </g>
    <g id="xtick_3">
     <g id="line2d_3">
      <g>
       <use xlink:href="#m6fcf3f88ff" x="149.19213" y="228.96" style="stroke: #000000; stroke-width: 0.8"/>
      </g>
     </g>
     <g id="text_3">
      <!-- $\mathdefault{1000}$ -->
      <g transform="translate(139.229459 243.05832) scale(0.1 -0.1)">
       <defs>
        <path id="CMR17-31" d="M 1702 4083 
C 1702 4217 1696 4224 1606 4224 
C 1357 3927 979 3833 621 3820 
C 602 3820 570 3820 563 3808 
C 557 3795 557 3782 557 3648 
C 755 3648 1088 3686 1344 3839 
L 1344 467 
C 1344 243 1331 166 781 166 
L 589 166 
L 589 0 
C 896 6 1216 12 1523 12 
C 1830 12 2150 6 2458 0 
L 2458 166 
L 2266 166 
C 1715 166 1702 236 1702 467 
L 1702 4083 
z
" transform="scale(0.015625)"/>
       </defs>
       <use xlink:href="#CMR17-31" transform="scale(0.996264)"/>
       <use xlink:href="#CMR17-30" transform="translate(45.690477 0) scale(0.996264)"/>
       <use xlink:href="#CMR17-30" transform="translate(91.380954 0) scale(0.996264)"/>
       <use xlink:href="#CMR17-30" transform="translate(137.071431 0) scale(0.996264)"/>
      </g>
     </g>
    </g>
    <g id="xtick_4">
     <g id="line2d_4">
      <g>
       <use xlink:href="#m6fcf3f88ff" x="196.103911" y="228.96" style="stroke: #000000; stroke-width: 0.8"/>
      </g>
     </g>
     <g id="text_4">
      <!-- $\mathdefault{1500}$ -->
      <g transform="translate(186.141241 243.05832) scale(0.1 -0.1)">
       <use xlink:href="#CMR17-31" transform="scale(0.996264)"/>
       <use xlink:href="#CMR17-35" transform="translate(45.690477 0) scale(0.996264)"/>
       <use xlink:href="#CMR17-30" transform="translate(91.380954 0) scale(0.996264)"/>
       <use xlink:href="#CMR17-30" transform="translate(137.071431 0) scale(0.996264)"/>
      </g>
     </g>
    </g>
    <g id="xtick_5">
     <g id="line2d_5">
      <g>
       <use xlink:href="#m6fcf3f88ff" x="243.015692" y="228.96" style="stroke: #000000; stroke-width: 0.8"/>
      </g>
     </g>
     <g id="text_5">
      <!-- $\mathdefault{2000}$ -->
      <g transform="translate(233.053022 243.05832) scale(0.1 -0.1)">
       <defs>
        <path id="CMR17-32" d="M 2669 990 
L 2554 990 
C 2490 537 2438 460 2413 422 
C 2381 371 1920 371 1830 371 
L 602 371 
C 832 620 1280 1073 1824 1596 
C 2214 1966 2669 2400 2669 3033 
C 2669 3788 2067 4224 1395 4224 
C 691 4224 262 3603 262 3027 
C 262 2777 448 2745 525 2745 
C 589 2745 781 2783 781 3007 
C 781 3206 614 3264 525 3264 
C 486 3264 448 3257 422 3244 
C 544 3788 915 4057 1306 4057 
C 1862 4057 2227 3616 2227 3033 
C 2227 2477 1901 1998 1536 1583 
L 262 147 
L 262 0 
L 2515 0 
L 2669 990 
z
" transform="scale(0.015625)"/>
       </defs>
       <use xlink:href="#CMR17-32" transform="scale(0.996264)"/>
       <use xlink:href="#CMR17-30" transform="translate(45.690477 0) scale(0.996264)"/>
       <use xlink:href="#CMR17-30" transform="translate(91.380954 0) scale(0.996264)"/>
       <use xlink:href="#CMR17-30" transform="translate(137.071431 0) scale(0.996264)"/>
      </g>
     </g>
    </g>
    <g id="xtick_6">
     <g id="line2d_6">
      <g>
       <use xlink:href="#m6fcf3f88ff" x="289.927473" y="228.96" style="stroke: #000000; stroke-width: 0.8"/>
      </g>
     </g>
     <g id="text_6">
      <!-- $\mathdefault{2500}$ -->
      <g transform="translate(279.964803 243.05832) scale(0.1 -0.1)">
       <use xlink:href="#CMR17-32" transform="scale(0.996264)"/>
       <use xlink:href="#CMR17-35" transform="translate(45.690477 0) scale(0.996264)"/>
       <use xlink:href="#CMR17-30" transform="translate(91.380954 0) scale(0.996264)"/>
       <use xlink:href="#CMR17-30" transform="translate(137.071431 0) scale(0.996264)"/>
      </g>
     </g>
    </g>
    <g id="xtick_7">
     <g id="line2d_7">
      <g>
       <use xlink:href="#m6fcf3f88ff" x="336.839255" y="228.96" style="stroke: #000000; stroke-width: 0.8"/>
      </g>
     </g>
     <g id="text_7">
      <!-- $\mathdefault{3000}$ -->
      <g transform="translate(326.876584 243.05832) scale(0.1 -0.1)">
       <defs>
        <path id="CMR17-33" d="M 1414 2176 
C 1984 2176 2234 1673 2234 1094 
C 2234 322 1824 25 1453 25 
C 1114 25 563 193 390 691 
C 422 678 454 678 486 678 
C 640 678 755 780 755 947 
C 755 1132 614 1216 486 1216 
C 378 1216 211 1164 211 927 
C 211 335 787 -128 1466 -128 
C 2176 -128 2720 432 2720 1087 
C 2720 1718 2208 2176 1600 2246 
C 2086 2347 2554 2776 2554 3353 
C 2554 3856 2048 4224 1472 4224 
C 890 4224 378 3862 378 3347 
C 378 3123 544 3084 627 3084 
C 762 3084 877 3167 877 3334 
C 877 3500 762 3584 627 3584 
C 602 3584 570 3584 544 3571 
C 730 3999 1235 4076 1459 4076 
C 1683 4076 2106 3966 2106 3347 
C 2106 3167 2080 2851 1862 2574 
C 1670 2329 1453 2316 1242 2297 
C 1210 2297 1062 2284 1037 2284 
C 992 2278 966 2272 966 2227 
C 966 2182 973 2176 1101 2176 
L 1414 2176 
z
" transform="scale(0.015625)"/>
       </defs>
       <use xlink:href="#CMR17-33" transform="scale(0.996264)"/>
       <use xlink:href="#CMR17-30" transform="translate(45.690477 0) scale(0.996264)"/>
       <use xlink:href="#CMR17-30" transform="translate(91.380954 0) scale(0.996264)"/>
       <use xlink:href="#CMR17-30" transform="translate(137.071431 0) scale(0.996264)"/>
      </g>
     </g>
    </g>
    <g id="text_8">
     <!-- Iteration -->
     <g transform="translate(189.603009 256.278627) scale(0.1 -0.1)">
      <defs>
       <path id="NimbusSanL-Regu-49" d="M 1242 4672 
L 640 4672 
L 640 0 
L 1242 0 
L 1242 4672 
z
" transform="scale(0.015625)"/>
       <path id="NimbusSanL-Regu-74" d="M 1626 3328 
L 1075 3328 
L 1075 4249 
L 544 4249 
L 544 3328 
L 90 3328 
L 90 2892 
L 544 2892 
L 544 402 
C 544 64 774 -128 1190 -128 
C 1318 -128 1446 -116 1626 -84 
L 1626 364 
C 1555 345 1472 339 1370 339 
C 1139 339 1075 402 1075 634 
L 1075 2892 
L 1626 2892 
L 1626 3328 
z
" transform="scale(0.015625)"/>
       <path id="NimbusSanL-Regu-65" d="M 3283 1484 
C 3283 1998 3245 2311 3149 2565 
C 2931 3123 2419 3456 1792 3456 
C 858 3456 256 2734 256 1619 
C 256 545 838 -128 1779 -128 
C 2547 -128 3078 307 3213 1018 
L 2675 1018 
C 2528 588 2227 364 1798 364 
C 1459 364 1171 514 992 787 
C 864 974 819 1161 813 1484 
L 3283 1484 
z
M 826 1920 
C 870 2552 1248 2963 1786 2963 
C 2310 2963 2714 2519 2714 1959 
C 2714 1946 2714 1933 2707 1920 
L 826 1920 
z
" transform="scale(0.015625)"/>
       <path id="NimbusSanL-Regu-72" d="M 442 3328 
L 442 0 
L 979 0 
L 979 1727 
C 979 2203 1101 2514 1357 2698 
C 1523 2819 1683 2857 2054 2863 
L 2054 3404 
C 1965 3449 1920 3456 1850 3456 
C 1504 3456 1242 3251 934 2750 
L 934 3328 
L 442 3328 
z
" transform="scale(0.015625)"/>
       <path id="NimbusSanL-Regu-61" d="M 3424 332 
C 3366 320 3341 320 3309 320 
C 3123 320 3021 415 3021 581 
L 3021 2542 
C 3021 3135 2586 3456 1760 3456 
C 1274 3456 870 3315 646 3065 
C 493 2893 429 2702 416 2370 
L 954 2370 
C 998 2778 1242 2963 1741 2963 
C 2221 2963 2490 2784 2490 2466 
L 2490 2326 
C 2490 2103 2355 2007 1933 1956 
C 1178 1861 1062 1835 858 1753 
C 467 1593 269 1294 269 861 
C 269 256 691 -128 1370 -128 
C 1792 -128 2131 19 2509 364 
C 2547 25 2714 -128 3059 -128 
C 3168 -128 3251 -116 3424 -71 
L 3424 332 
z
M 2490 1071 
C 2490 893 2438 785 2278 638 
C 2061 441 1798 339 1485 339 
C 1069 339 826 536 826 874 
C 826 1224 1062 1402 1632 1485 
C 2195 1562 2310 1587 2490 1670 
L 2490 1071 
z
" transform="scale(0.015625)"/>
       <path id="NimbusSanL-Regu-69" d="M 960 3358 
L 429 3358 
L 429 0 
L 960 0 
L 960 3358 
z
M 960 4672 
L 422 4672 
L 422 3999 
L 960 3999 
L 960 4672 
z
" transform="scale(0.015625)"/>
       <path id="NimbusSanL-Regu-6f" d="M 1741 3456 
C 800 3456 230 2784 230 1663 
C 230 543 794 -128 1747 -128 
C 2688 -128 3264 543 3264 1638 
C 3264 2791 2707 3456 1741 3456 
z
M 1747 2963 
C 2349 2963 2707 2472 2707 1644 
C 2707 861 2336 364 1747 364 
C 1152 364 787 855 787 1663 
C 787 2466 1152 2963 1747 2963 
z
" transform="scale(0.015625)"/>
       <path id="NimbusSanL-Regu-6e" d="M 448 3328 
L 448 0 
L 986 0 
L 986 1835 
C 986 2539 1344 2988 1894 2988 
C 2317 2988 2586 2732 2586 2328 
L 2586 0 
L 3117 0 
L 3117 2539 
C 3117 3097 2701 3456 2054 3456 
C 1555 3456 1235 3263 941 2796 
L 941 3328 
L 448 3328 
z
" transform="scale(0.015625)"/>
      </defs>
      <use xlink:href="#NimbusSanL-Regu-49" transform="scale(0.996264)"/>
      <use xlink:href="#NimbusSanL-Regu-74" transform="translate(27.69517 0) scale(0.996264)"/>
      <use xlink:href="#NimbusSanL-Regu-65" transform="translate(55.390339 0) scale(0.996264)"/>
      <use xlink:href="#NimbusSanL-Regu-72" transform="translate(110.782016 0) scale(0.996264)"/>
      <use xlink:href="#NimbusSanL-Regu-61" transform="translate(142.961149 0) scale(0.996264)"/>
      <use xlink:href="#NimbusSanL-Regu-74" transform="translate(198.352826 0) scale(0.996264)"/>
      <use xlink:href="#NimbusSanL-Regu-69" transform="translate(226.047996 0) scale(0.996264)"/>
      <use xlink:href="#NimbusSanL-Regu-6f" transform="translate(248.16478 0) scale(0.996264)"/>
      <use xlink:href="#NimbusSanL-Regu-6e" transform="translate(303.556457 0) scale(0.996264)"/>
     </g>
    </g>
   </g>
   <g id="matplotlib.axis_2">
    <g id="ytick_1">
     <g id="line2d_8">
      <defs>
       <path id="me2f2e4ac93" d="M 0 0 
L -3.5 0 
" style="stroke: #000000; stroke-width: 0.8"/>
      </defs>
      <g>
       <use xlink:href="#me2f2e4ac93" x="40.150386" y="199.484308" style="stroke: #000000; stroke-width: 0.8"/>
      </g>
     </g>
     <g id="text_9">
      <!-- $\mathdefault{−6}$ -->
      <g transform="translate(20.420307 203.033468) scale(0.1 -0.1)">
       <defs>
        <path id="CMSY10-0" d="M 4218 1472 
C 4326 1472 4442 1472 4442 1600 
C 4442 1728 4326 1728 4218 1728 
L 755 1728 
C 646 1728 531 1728 531 1600 
C 531 1472 646 1472 755 1472 
L 4218 1472 
z
" transform="scale(0.015625)"/>
        <path id="CMR17-36" d="M 678 2198 
C 678 3712 1395 4076 1811 4076 
C 1946 4076 2272 4049 2400 3782 
C 2298 3782 2106 3782 2106 3558 
C 2106 3385 2246 3328 2336 3328 
C 2394 3328 2566 3353 2566 3571 
C 2566 3987 2246 4224 1805 4224 
C 1043 4224 243 3411 243 2011 
C 243 257 966 -128 1478 -128 
C 2099 -128 2688 431 2688 1295 
C 2688 2101 2170 2688 1517 2688 
C 1126 2688 838 2430 678 1979 
L 678 2198 
z
M 1478 25 
C 691 25 691 1212 691 1450 
C 691 1914 909 2585 1504 2585 
C 1613 2585 1926 2585 2138 2140 
C 2253 1889 2253 1624 2253 1302 
C 2253 954 2253 696 2118 438 
C 1978 173 1773 25 1478 25 
z
" transform="scale(0.015625)"/>
       </defs>
       <use xlink:href="#CMSY10-0" transform="scale(0.996264)"/>
       <use xlink:href="#CMR17-36" transform="translate(77.487468 0) scale(0.996264)"/>
      </g>
     </g>
    </g>
    <g id="ytick_2">
     <g id="line2d_9">
      <g>
       <use xlink:href="#me2f2e4ac93" x="40.150386" y="160.693035" style="stroke: #000000; stroke-width: 0.8"/>
      </g>
     </g>
     <g id="text_10">
      <!-- $\mathdefault{−4}$ -->
      <g transform="translate(20.420307 164.242195) scale(0.1 -0.1)">
       <defs>
        <path id="CMR17-34" d="M 2150 4147 
C 2150 4281 2144 4288 2029 4288 
L 128 1254 
L 128 1088 
L 1779 1088 
L 1779 460 
C 1779 230 1766 166 1318 166 
L 1197 166 
L 1197 0 
C 1402 12 1747 12 1965 12 
C 2182 12 2528 12 2733 0 
L 2733 166 
L 2611 166 
C 2163 166 2150 230 2150 460 
L 2150 1088 
L 2803 1088 
L 2803 1254 
L 2150 1254 
L 2150 4147 
z
M 1798 3723 
L 1798 1254 
L 256 1254 
L 1798 3723 
z
" transform="scale(0.015625)"/>
       </defs>
       <use xlink:href="#CMSY10-0" transform="scale(0.996264)"/>
       <use xlink:href="#CMR17-34" transform="translate(77.487468 0) scale(0.996264)"/>
      </g>
     </g>
    </g>
    <g id="ytick_3">
     <g id="line2d_10">
      <g>
       <use xlink:href="#me2f2e4ac93" x="40.150386" y="121.901762" style="stroke: #000000; stroke-width: 0.8"/>
      </g>
     </g>
     <g id="text_11">
      <!-- $\mathdefault{−2}$ -->
      <g transform="translate(20.420307 125.450922) scale(0.1 -0.1)">
       <use xlink:href="#CMSY10-0" transform="scale(0.996264)"/>
       <use xlink:href="#CMR17-32" transform="translate(77.487468 0) scale(0.996264)"/>
      </g>
     </g>
    </g>
    <g id="ytick_4">
     <g id="line2d_11">
      <g>
       <use xlink:href="#me2f2e4ac93" x="40.150386" y="83.11049" style="stroke: #000000; stroke-width: 0.8"/>
      </g>
     </g>
     <g id="text_12">
      <!-- $\mathdefault{0}$ -->
      <g transform="translate(28.16905 86.65965) scale(0.1 -0.1)">
       <use xlink:href="#CMR17-30" transform="scale(0.996264)"/>
      </g>
     </g>
    </g>
    <g id="ytick_5">
     <g id="line2d_12">
      <g>
       <use xlink:href="#me2f2e4ac93" x="40.150386" y="44.319217" style="stroke: #000000; stroke-width: 0.8"/>
      </g>
     </g>
     <g id="text_13">
      <!-- $\mathdefault{2}$ -->
      <g transform="translate(28.16905 47.868377) scale(0.1 -0.1)">
       <use xlink:href="#CMR17-32" transform="scale(0.996264)"/>
      </g>
     </g>
    </g>
    <g id="text_14">
     <!-- RMS residual - Blade_1 -->
     <g transform="translate(14.29832 169.700806) rotate(-90) scale(0.1 -0.1)">
      <defs>
       <path id="NimbusSanL-Regu-52" d="M 1190 2035 
L 2726 2035 
C 3258 2035 3494 1775 3494 1191 
L 3488 770 
C 3488 478 3539 192 3622 0 
L 4346 0 
L 4346 147 
C 4122 303 4077 471 4064 1101 
C 4058 1879 3936 2111 3430 2329 
C 3955 2585 4166 2907 4166 3432 
C 4166 4230 3661 4672 2746 4672 
L 595 4672 
L 595 0 
L 1190 0 
L 1190 2035 
z
M 1190 2560 
L 1190 4147 
L 2630 4147 
C 2963 4147 3155 4096 3302 3970 
C 3462 3837 3546 3628 3546 3350 
C 3546 2806 3264 2560 2630 2560 
L 1190 2560 
z
" transform="scale(0.015625)"/>
       <path id="NimbusSanL-Regu-4d" d="M 2995 0 
L 4307 3915 
L 4307 0 
L 4870 0 
L 4870 4672 
L 4045 4672 
L 2688 602 
L 1306 4672 
L 480 4672 
L 480 0 
L 1043 0 
L 1043 3915 
L 2368 0 
L 2995 0 
z
" transform="scale(0.015625)"/>
       <path id="NimbusSanL-Regu-53" d="M 3814 3295 
C 3808 4204 3181 4736 2106 4736 
C 1082 4736 448 4211 448 3372 
C 448 2806 749 2450 1363 2291 
L 2522 1986 
C 3110 1833 3379 1598 3379 1236 
C 3379 988 3245 733 3046 593 
C 2861 466 2566 396 2189 396 
C 1683 396 1338 517 1114 784 
C 941 988 864 1210 870 1496 
L 307 1496 
C 314 1070 397 790 582 536 
C 902 102 1440 -128 2150 -128 
C 2707 -128 3162 0 3462 230 
C 3776 479 3974 892 3974 1293 
C 3974 1865 3616 2284 2982 2456 
L 1811 2768 
C 1248 2920 1043 3098 1043 3454 
C 1043 3925 1459 4236 2086 4236 
C 2829 4236 3245 3899 3251 3295 
L 3814 3295 
z
" transform="scale(0.015625)"/>
       <path id="NimbusSanL-Regu-73" d="M 2803 2428 
C 2797 3084 2362 3456 1587 3456 
C 806 3456 301 3052 301 2434 
C 301 1912 570 1663 1363 1472 
L 1862 1351 
C 2234 1262 2381 1129 2381 887 
C 2381 574 2067 364 1600 364 
C 1312 364 1069 447 934 587 
C 851 683 813 778 781 1014 
L 218 1014 
C 243 243 678 -128 1555 -128 
C 2400 -128 2938 288 2938 931 
C 2938 1428 2656 1702 1990 1861 
L 1478 1982 
C 1043 2084 858 2224 858 2459 
C 858 2765 1133 2963 1568 2963 
C 1997 2963 2227 2778 2240 2428 
L 2803 2428 
z
" transform="scale(0.015625)"/>
       <path id="NimbusSanL-Regu-64" d="M 3168 4672 
L 2637 4672 
L 2637 2937 
C 2413 3276 2054 3456 1606 3456 
C 736 3456 166 2759 166 1695 
C 166 568 723 -128 1626 -128 
C 2086 -128 2406 44 2694 460 
L 2694 19 
L 3168 19 
L 3168 4672 
z
M 1696 2956 
C 2272 2956 2637 2447 2637 1651 
C 2637 880 2266 371 1702 371 
C 1114 371 723 887 723 1663 
C 723 2440 1114 2956 1696 2956 
z
" transform="scale(0.015625)"/>
       <path id="NimbusSanL-Regu-75" d="M 3085 19 
L 3085 3328 
L 2554 3328 
L 2554 1454 
C 2554 780 2195 339 1638 339 
C 1216 339 947 591 947 988 
L 947 3328 
L 416 3328 
L 416 780 
C 416 230 832 -128 1485 -128 
C 1978 -128 2291 44 2605 484 
L 2605 19 
L 3085 19 
z
" transform="scale(0.015625)"/>
       <path id="NimbusSanL-Regu-6c" d="M 973 4672 
L 435 4672 
L 435 0 
L 973 0 
L 973 4672 
z
" transform="scale(0.015625)"/>
       <path id="NimbusSanL-Regu-2d" d="M 1818 1996 
L 294 1996 
L 294 1536 
L 1818 1536 
L 1818 1996 
z
" transform="scale(0.015625)"/>
       <path id="NimbusSanL-Regu-42" d="M 506 0 
L 2611 0 
C 3053 0 3379 121 3629 390 
C 3859 632 3987 961 3987 1321 
C 3987 1878 3731 2214 3136 2444 
C 3558 2643 3782 2994 3782 3476 
C 3782 3821 3654 4127 3411 4345 
C 3168 4569 2848 4672 2400 4672 
L 506 4672 
L 506 0 
z
M 1101 2636 
L 1101 4147 
L 2253 4147 
C 2586 4147 2771 4101 2931 3977 
C 3098 3847 3187 3652 3187 3391 
C 3187 3138 3098 2936 2931 2806 
C 2771 2682 2586 2636 2253 2636 
L 1101 2636 
z
M 1101 524 
L 1101 2112 
L 2554 2112 
C 2842 2112 3034 2042 3174 1890 
C 3315 1745 3392 1542 3392 1315 
C 3392 1093 3315 891 3174 746 
C 3034 594 2842 524 2554 524 
L 1101 524 
z
" transform="scale(0.015625)"/>
       <path id="NimbusSanL-Regu-31" d="M 1658 3232 
L 1658 0 
L 2221 0 
L 2221 4537 
L 1850 4537 
C 1651 3840 1523 3744 653 3635 
L 653 3232 
L 1658 3232 
z
" transform="scale(0.015625)"/>
      </defs>
      <use xlink:href="#NimbusSanL-Regu-52" transform="scale(0.996264)"/>
      <use xlink:href="#NimbusSanL-Regu-4d" transform="translate(71.929985 0) scale(0.996264)"/>
      <use xlink:href="#NimbusSanL-Regu-53" transform="translate(154.918415 0) scale(0.996264)"/>
      <use xlink:href="#NimbusSanL-Regu-72" transform="translate(249.063616 0) scale(0.996264)"/>
      <use xlink:href="#NimbusSanL-Regu-65" transform="translate(282.238846 0) scale(0.996264)"/>
      <use xlink:href="#NimbusSanL-Regu-73" transform="translate(337.630523 0) scale(0.996264)"/>
      <use xlink:href="#NimbusSanL-Regu-69" transform="translate(387.443723 0) scale(0.996264)"/>
      <use xlink:href="#NimbusSanL-Regu-64" transform="translate(409.560507 0) scale(0.996264)"/>
      <use xlink:href="#NimbusSanL-Regu-75" transform="translate(464.952184 0) scale(0.996264)"/>
      <use xlink:href="#NimbusSanL-Regu-61" transform="translate(520.343861 0) scale(0.996264)"/>
      <use xlink:href="#NimbusSanL-Regu-6c" transform="translate(575.735538 0) scale(0.996264)"/>
      <use xlink:href="#NimbusSanL-Regu-2d" transform="translate(625.547492 0) scale(0.996264)"/>
      <use xlink:href="#NimbusSanL-Regu-42" transform="translate(686.417892 0) scale(0.996264)"/>
      <use xlink:href="#NimbusSanL-Regu-6c" transform="translate(752.867923 0) scale(0.996264)"/>
      <use xlink:href="#NimbusSanL-Regu-61" transform="translate(774.984707 0) scale(0.996264)"/>
      <use xlink:href="#NimbusSanL-Regu-64" transform="translate(830.376384 0) scale(0.996264)"/>
      <use xlink:href="#NimbusSanL-Regu-65" transform="translate(885.768061 0) scale(0.996264)"/>
      <use xlink:href="#NimbusSanL-Regu-31" transform="translate(977.025303 0) scale(0.996264)"/>
      <path d="M 947.137079 0 
L 977.025303 0 
L 977.025303 0.3985 
L 947.137079 0.3985 
L 947.137079 0 
z
"/>
     </g>
    </g>
   </g>
   <g id="line2d_13">
    <path d="M 55.368567 123.985099 
L 55.743862 137.78091 
L 55.837685 137.879146 
L 56.49445 136.734135 
L 56.963568 134.87874 
L 57.057392 135.467731 
L 57.151215 136.969478 
L 57.245039 135.88338 
L 57.432686 131.395411 
L 57.620333 132.139753 
L 58.370921 137.031806 
L 58.558569 137.637274 
L 59.309157 138.856755 
L 59.496804 138.719795 
L 59.778275 138.163962 
L 59.872098 138.29644 
L 60.43504 139.301905 
L 60.622687 139.216667 
L 60.904158 138.4479 
L 61.091805 137.32738 
L 61.185628 137.491559 
L 61.842393 138.846432 
L 62.03004 138.257682 
L 62.499158 135.916253 
L 62.686805 136.351075 
L 63.155923 137.752198 
L 63.437394 137.878407 
L 63.625041 137.381513 
L 63.718865 137.01302 
L 63.906512 137.320317 
L 64.375629 138.298698 
L 64.563277 138.293782 
L 64.750924 138.0328 
L 65.032394 136.955327 
L 65.126218 137.170281 
L 65.97063 139.479187 
L 66.064454 139.460195 
L 66.158277 139.308982 
L 66.533571 140.067213 
L 67.096513 142.10984 
L 67.190336 142.03066 
L 67.377983 141.357174 
L 67.471807 140.766302 
L 67.565631 140.829248 
L 67.847101 141.009701 
L 68.222396 141.528199 
L 68.316219 141.420904 
L 68.503866 140.662997 
L 68.785337 139.423024 
L 69.160631 139.431372 
L 69.442102 139.460741 
L 69.629749 139.263637 
L 70.005043 138.506773 
L 70.380337 138.796386 
L 70.755632 139.036222 
L 71.037102 138.962706 
L 71.318573 138.704777 
L 71.600044 139.251915 
L 72.162985 140.446769 
L 72.350632 140.545864 
L 72.632103 140.392331 
L 73.007397 141.008628 
L 73.476515 141.761748 
L 73.570339 141.784978 
L 73.945633 141.405535 
L 74.414751 142.070871 
L 74.790045 142.655489 
L 74.977692 142.640303 
L 75.165339 142.177263 
L 75.44681 140.425779 
L 75.540633 140.461173 
L 75.72828 140.732227 
L 76.103575 141.356389 
L 76.385045 140.861836 
L 76.666516 139.983003 
L 76.76034 139.603541 
L 76.947987 139.982724 
L 77.510928 141.792911 
L 77.886222 142.079669 
L 78.07387 141.596045 
L 78.167693 141.709724 
L 78.449164 142.469793 
L 78.824458 143.434681 
L 79.012105 143.500016 
L 79.199752 143.263658 
L 79.481223 142.791646 
L 79.66887 142.983775 
L 79.950341 144.08686 
L 80.231811 145.090584 
L 80.325635 145.238099 
L 80.419459 145.158255 
L 80.607106 143.981132 
L 80.888576 141.201264 
L 80.9824 141.386511 
L 81.263871 142.974665 
L 81.545341 144.251078 
L 81.639165 144.459631 
L 81.732988 144.399121 
L 81.920636 143.013168 
L 82.29593 140.449826 
L 82.389753 140.146987 
L 82.577401 140.712551 
L 82.765048 142.256161 
L 83.046518 144.893671 
L 83.234165 144.109118 
L 83.703283 141.441509 
L 83.797107 141.495425 
L 83.984754 143.349852 
L 84.172401 145.655713 
L 84.266225 145.818569 
L 84.453872 145.617207 
L 84.641519 144.11321 
L 84.92299 142.012383 
L 85.110637 142.631806 
L 85.579755 146.775652 
L 85.673578 146.854796 
L 85.767402 146.472091 
L 86.048872 144.42418 
L 86.236519 143.547343 
L 86.330343 143.892663 
L 86.51799 145.205691 
L 86.799461 147.872633 
L 86.987108 147.910085 
L 87.080932 147.602772 
L 87.456226 144.151108 
L 87.550049 144.545733 
L 87.83152 147.217976 
L 88.112991 149.209328 
L 88.206814 149.428491 
L 88.300638 148.988848 
L 88.582109 146.238083 
L 88.675932 146.073043 
L 88.957403 147.112713 
L 89.614168 151.763045 
L 90.083286 149.168382 
L 90.364756 150.627105 
L 90.74005 152.658745 
L 90.927698 153.010424 
L 91.209168 151.646802 
L 91.302992 151.54754 
L 91.678286 152.796307 
L 92.05358 154.264491 
L 92.147404 154.385889 
L 92.335051 153.526661 
L 92.710345 150.243106 
L 92.804169 150.276014 
L 92.897992 150.468663 
L 93.08564 151.613213 
L 93.36711 153.352314 
L 93.460934 153.372911 
L 93.554757 153.036493 
L 94.023875 149.079969 
L 94.117699 149.293147 
L 94.305346 150.364014 
L 94.68064 153.161127 
L 94.774464 153.337991 
L 94.868287 153.11154 
L 95.149758 151.426181 
L 95.243581 151.526739 
L 95.431229 152.200196 
L 95.99417 155.236019 
L 96.087994 155.389073 
L 96.369464 154.723225 
L 96.557111 154.183315 
L 96.744758 153.370452 
L 97.026229 154.511529 
L 97.3077 155.717477 
L 97.495347 155.770542 
L 97.682994 155.205306 
L 97.964465 153.463087 
L 98.152112 153.824564 
L 98.715053 155.530401 
L 98.808877 155.451907 
L 98.996524 154.781976 
L 99.277995 153.463118 
L 99.465642 153.591328 
L 99.653289 154.371264 
L 99.840936 155.274389 
L 99.93476 155.320199 
L 100.122407 154.976814 
L 100.497701 153.408879 
L 100.591525 153.461114 
L 100.779172 153.748628 
L 101.154466 154.688539 
L 101.435937 154.452312 
L 101.717407 153.723774 
L 101.811231 153.407729 
L 102.092702 154.15722 
L 102.467996 155.147441 
L 102.655643 155.082942 
L 102.84329 154.633235 
L 103.218584 153.374592 
L 103.875349 154.306838 
L 104.438291 156.701514 
L 104.532114 156.647043 
L 104.907408 155.034809 
L 105.001232 155.11663 
L 105.188879 155.536565 
L 105.657997 157.3854 
L 105.75182 157.437577 
L 105.845644 157.272755 
L 106.314762 154.741193 
L 106.408585 154.82572 
L 106.596233 155.342273 
L 107.06535 157.519023 
L 107.159174 157.415971 
L 107.346821 156.291792 
L 107.628292 154.545364 
L 107.722115 154.572253 
L 108.285057 155.846992 
L 108.754174 158.658491 
L 108.847998 158.575688 
L 109.317116 156.240231 
L 109.410939 156.238813 
L 109.504763 156.474236 
L 110.067704 159.239099 
L 110.161528 159.030604 
L 110.630646 156.778259 
L 110.724469 156.872002 
L 110.912116 157.843016 
L 111.193587 159.150503 
L 111.287411 159.129482 
L 111.475058 158.315354 
L 111.850352 155.721885 
L 111.944176 155.738343 
L 112.037999 155.963907 
L 112.507117 158.823176 
L 112.600941 158.792718 
L 112.788588 157.355325 
L 113.070058 155.21734 
L 113.257705 155.384254 
L 113.445353 156.337137 
L 113.820647 158.660974 
L 113.91447 158.652027 
L 114.102118 157.229936 
L 114.383588 154.952006 
L 114.571235 154.997021 
L 114.758882 156.015137 
L 115.040353 157.997735 
L 115.134177 158.130964 
L 115.228 158.043886 
L 115.509471 155.835471 
L 115.790942 154.206965 
L 115.884765 154.119196 
L 116.072412 154.455966 
L 116.260059 154.907583 
L 116.353883 154.852413 
L 116.447707 154.936194 
L 116.635354 156.119396 
L 116.916824 158.860755 
L 117.010648 159.019116 
L 117.104472 158.932984 
L 117.292119 157.714752 
L 117.573589 156.146475 
L 117.761236 156.039852 
L 117.85506 156.300292 
L 118.324178 159.635447 
L 118.418001 159.587555 
L 118.605649 158.41831 
L 118.887119 156.185641 
L 119.074766 156.164966 
L 119.356237 157.405129 
L 119.731531 159.586544 
L 119.919178 159.673421 
L 120.106825 158.83754 
L 120.388296 157.71 
L 120.48212 157.677206 
L 120.575943 157.83764 
L 121.045061 160.122098 
L 121.138885 160.081127 
L 121.326532 159.57286 
L 121.608002 158.235694 
L 121.701826 158.151673 
L 121.79565 158.24441 
L 121.983297 159.191566 
L 122.170944 160.236945 
L 122.358591 160.28603 
L 122.546238 159.95187 
L 123.015356 157.610408 
L 123.109179 157.697998 
L 123.296827 158.877202 
L 123.578297 160.670207 
L 123.672121 160.828408 
L 123.765944 160.760368 
L 123.953592 159.370519 
L 124.235062 157.073143 
L 124.328886 156.76818 
L 124.422709 156.841694 
L 124.610356 158.468193 
L 124.891827 161.011593 
L 124.985651 161.029004 
L 125.079474 160.568935 
L 125.454769 156.80522 
L 125.642416 156.640802 
L 125.736239 156.697226 
L 125.923886 157.837791 
L 126.205357 160.522001 
L 126.393004 160.883449 
L 126.486828 160.516749 
L 126.862122 158.021974 
L 126.955946 157.864692 
L 127.049769 157.977661 
L 127.237416 159.3878 
L 127.518887 161.549059 
L 127.61271 161.582275 
L 127.706534 161.26608 
L 128.269475 157.45062 
L 128.363299 157.514228 
L 128.550946 158.644361 
L 128.92624 161.837444 
L 129.020064 161.913713 
L 129.113887 161.623787 
L 129.583005 158.335416 
L 129.770652 158.205017 
L 129.864476 158.471433 
L 130.427417 162.369473 
L 130.615064 160.878575 
L 130.896535 159.003829 
L 130.990359 158.798684 
L 131.084182 158.845902 
L 131.271829 160.233524 
L 131.5533 162.710788 
L 131.647124 162.84959 
L 131.740947 162.484899 
L 132.210065 158.83414 
L 132.303889 158.679302 
L 132.397712 158.851651 
L 132.585359 160.673061 
L 132.86683 163.235666 
L 132.960654 163.366159 
L 133.054477 163.029659 
L 133.429771 160.047702 
L 133.523595 159.891886 
L 133.617418 160.008856 
L 133.805066 161.48288 
L 134.086536 164.041945 
L 134.18036 164.290583 
L 134.274183 164.011237 
L 134.743301 160.131966 
L 134.837125 160.099769 
L 134.930948 160.309998 
L 135.118595 161.871859 
L 135.400066 163.887249 
L 135.49389 163.971591 
L 135.587713 163.738822 
L 135.963008 161.270317 
L 136.244478 160.899865 
L 136.338302 161.130696 
L 136.901243 164.896646 
L 137.08889 163.467797 
L 137.370361 161.561719 
L 137.464185 161.426174 
L 137.558008 161.523995 
L 137.745655 162.882535 
L 138.027126 165.101743 
L 138.120949 165.214313 
L 138.214773 165.067261 
L 138.777714 162.035442 
L 138.871538 161.966267 
L 138.965362 162.161321 
L 139.246832 164.500502 
L 139.528303 165.805101 
L 139.622126 165.416905 
L 139.997421 162.314556 
L 140.091244 162.151891 
L 140.372715 162.734161 
L 140.935656 165.791861 
L 141.02948 165.517778 
L 141.310951 163.541967 
L 141.498598 163.495395 
L 141.592421 163.648268 
L 142.155363 166.236635 
L 142.249186 166.091053 
L 142.62448 163.193614 
L 142.718304 163.518599 
L 142.905951 163.937166 
L 143.468893 166.560957 
L 143.562716 166.323112 
L 143.93801 164.099107 
L 144.031834 164.047025 
L 144.125657 164.183501 
L 144.313305 165.290549 
L 144.594775 166.919478 
L 144.782422 167.151878 
L 145.157717 164.658782 
L 145.25154 164.854063 
L 145.439187 165.19686 
L 146.002129 167.61176 
L 146.095952 167.602661 
L 146.658894 165.4379 
L 146.752717 165.365476 
L 146.846541 165.569789 
L 147.409482 168.324877 
L 147.597129 167.368007 
L 147.784776 166.27712 
L 148.160071 166.955002 
L 148.535365 168.578387 
L 148.723012 168.76253 
L 148.910659 167.806369 
L 149.098306 166.826203 
L 149.285953 166.740284 
L 149.379777 166.911641 
L 149.942718 169.221596 
L 150.036542 169.116032 
L 150.50566 167.161972 
L 150.78713 167.293041 
L 151.350072 169.610822 
L 151.443895 169.491743 
L 151.725366 168.167057 
L 152.006837 168.567655 
L 152.475955 170.225049 
L 152.663602 170.342351 
L 152.945072 169.179068 
L 153.038896 168.827663 
L 153.132719 168.855647 
L 153.320367 168.797284 
L 153.508014 169.541206 
L 153.789484 170.739241 
L 153.883308 170.926785 
L 153.977132 170.864694 
L 154.258602 169.304185 
L 154.352426 169.41274 
L 154.540073 169.747698 
L 154.915367 171.231599 
L 155.196838 171.338758 
L 155.572132 169.97524 
L 155.665956 170.104639 
L 155.853603 170.091286 
L 156.04125 170.565021 
L 156.416544 171.912044 
L 156.510368 171.965239 
L 156.979486 170.86144 
L 157.730074 173.068621 
L 157.823898 173.135105 
L 157.917721 173.01651 
L 158.293015 171.917355 
L 158.480663 171.847842 
L 158.66831 172.403427 
L 158.94978 173.351347 
L 159.137427 173.506038 
L 159.512722 172.324734 
L 160.26331 174.125362 
L 160.450957 174.262049 
L 160.920075 173.11016 
L 161.107722 173.118672 
L 161.295369 173.700805 
L 161.670664 175.292009 
L 161.764487 175.429813 
L 161.858311 175.328638 
L 162.139781 174.512522 
L 162.421252 175.16014 
L 162.984194 176.314081 
L 163.078017 176.283024 
L 163.453311 174.923271 
L 163.547135 174.960998 
L 163.640958 175.000949 
L 163.828606 175.624015 
L 164.110076 176.901966 
L 164.297723 177.139898 
L 164.391547 177.093407 
L 164.766841 176.135579 
L 164.954488 176.085208 
L 165.142135 176.254957 
L 165.423606 176.885971 
L 165.892724 178.192143 
L 166.174195 178.49155 
L 166.924783 180.040179 
L 167.206254 180.497316 
L 169.458019 185.515736 
L 169.73949 186.666237 
L 169.927137 186.88322 
L 170.020961 186.851372 
L 170.490078 185.674025 
L 170.771549 186.163455 
L 171.240667 188.149027 
L 171.334491 188.180502 
L 171.522138 187.639574 
L 171.709785 186.661086 
L 172.085079 187.726093 
L 172.36655 188.652383 
L 172.554197 188.614661 
L 172.741844 188.052773 
L 173.023315 186.394869 
L 173.773903 188.600624 
L 173.867727 188.533161 
L 174.055374 187.715509 
L 174.336845 185.935425 
L 174.712139 187.633677 
L 174.993609 188.542391 
L 175.181257 188.80558 
L 175.368904 187.634041 
L 175.556551 186.677195 
L 175.931845 188.347037 
L 176.213316 189.285633 
L 176.494786 189.785356 
L 176.870081 188.343497 
L 177.433022 190.331969 
L 177.808316 190.755334 
L 178.089787 189.864413 
L 178.934199 191.062527 
L 179.028023 191.047957 
L 179.21567 190.637154 
L 179.49714 189.685081 
L 179.684788 189.624269 
L 179.872435 190.32232 
L 180.153905 191.474555 
L 180.247729 191.483008 
L 180.435376 190.889197 
L 180.716847 189.764529 
L 180.904494 189.947762 
L 181.092141 190.132793 
L 181.748906 190.047831 
L 182.1242 189.809825 
L 182.218024 189.546197 
L 182.968612 191.745823 
L 183.062436 191.675246 
L 183.250083 190.717461 
L 183.43773 189.755601 
L 183.719201 190.54501 
L 184.282142 192.641895 
L 184.375966 192.642851 
L 184.75126 191.123182 
L 185.595672 193.535473 
L 185.689496 193.526099 
L 185.970966 192.471507 
L 186.721555 193.898238 
L 187.003025 193.797143 
L 187.472143 192.662684 
L 187.565967 192.673188 
L 187.753614 193.240249 
L 188.035085 194.009033 
L 188.222732 193.933548 
L 188.410379 193.325391 
L 188.69185 192.343542 
L 188.785673 192.250387 
L 189.067144 192.702862 
L 189.442438 194.170512 
L 189.630085 194.103094 
L 189.817732 193.681558 
L 190.005379 192.92202 
L 190.380674 193.489562 
L 190.662144 194.414928 
L 190.849792 194.421353 
L 191.037439 194.14115 
L 191.318909 192.775666 
L 191.412733 192.981065 
L 191.694204 193.609668 
L 191.975674 194.525612 
L 192.163321 194.496585 
L 192.350969 193.909785 
L 192.538616 192.69584 
L 192.632439 192.834035 
L 192.820086 193.116355 
L 193.383028 194.625256 
L 193.476851 194.512808 
L 193.664498 193.532028 
L 193.852146 192.357362 
L 194.133616 192.923212 
L 194.696558 194.751216 
L 194.790381 194.706181 
L 195.165675 192.877085 
L 195.259499 193.113999 
L 195.54097 193.974103 
L 195.82244 194.974973 
L 196.103911 195.236499 
L 196.385382 194.205409 
L 196.479205 194.354566 
L 196.666852 194.528577 
L 197.229794 195.558426 
L 197.417441 195.677387 
L 197.605088 195.078701 
L 197.698912 194.61427 
L 197.792735 194.677768 
L 197.980382 194.673221 
L 198.168029 195.198869 
L 198.355677 195.735451 
L 198.637147 195.7968 
L 198.730971 195.669574 
L 199.200089 194.360434 
L 199.293912 194.323612 
L 199.669206 195.273732 
L 199.950677 196.136855 
L 200.232148 195.973173 
L 200.513618 195.094473 
L 200.607442 195.23062 
L 200.795089 195.381869 
L 201.358031 196.52235 
L 201.545678 196.275113 
L 201.827148 194.955015 
L 201.920972 195.107451 
L 202.108619 195.319136 
L 202.577737 196.526503 
L 202.765384 196.313164 
L 202.953031 195.497428 
L 203.046855 194.904188 
L 203.422149 195.4689 
L 203.797443 196.515765 
L 203.98509 196.433359 
L 204.172737 195.704668 
L 204.360385 194.645932 
L 204.735679 195.404771 
L 205.017149 196.444933 
L 205.29862 196.547734 
L 205.486267 195.841358 
L 205.673914 195.032785 
L 206.049209 195.855665 
L 206.330679 196.740452 
L 206.705974 196.752384 
L 206.893621 196.02528 
L 207.362739 196.708314 
L 207.550386 197.139221 
L 207.831856 197.244929 
L 207.92568 197.263293 
L 208.113327 196.721251 
L 208.207151 196.288435 
L 208.394798 196.394619 
L 208.488621 196.438195 
L 208.676268 196.963531 
L 208.863916 197.447497 
L 209.23921 197.42039 
L 209.708328 196.269839 
L 210.271269 196.523517 
L 210.928034 196.440436 
L 211.772446 196.308926 
L 212.241564 196.47859 
L 213.555094 197.103649 
L 215.337741 197.387453 
L 216.369801 197.268764 
L 217.308036 197.264118 
L 220.31039 197.526523 
L 220.779508 197.476296 
L 220.873331 197.341713 
L 221.248626 197.984949 
L 221.530096 198.771633 
L 221.905391 198.572431 
L 222.093038 197.738116 
L 222.186861 197.770584 
L 222.374508 197.707765 
L 222.562156 198.226638 
L 222.749803 198.829877 
L 223.031273 198.843809 
L 223.125097 198.778593 
L 223.312744 198.085222 
L 223.500391 197.585611 
L 223.688038 197.549432 
L 223.875685 198.223613 
L 224.063333 198.867331 
L 224.344803 198.908063 
L 224.438627 198.798487 
L 224.720098 197.985932 
L 224.907745 197.874776 
L 225.095392 198.357579 
L 225.283039 199.008372 
L 225.56451 199.071934 
L 225.658333 199.037633 
L 225.84598 198.340851 
L 226.033627 197.80947 
L 226.221275 197.741737 
L 226.408922 198.359008 
L 226.596569 199.033126 
L 226.878039 199.103814 
L 226.971863 199.012697 
L 227.440981 197.614959 
L 227.534804 197.667037 
L 227.722452 198.408218 
L 227.910099 199.076062 
L 228.191569 199.11384 
L 228.285393 198.947686 
L 228.566864 198.009501 
L 228.754511 197.909289 
L 228.942158 198.460519 
L 229.129805 199.167854 
L 229.411276 199.261495 
L 229.505099 199.184818 
L 229.974217 197.725381 
L 230.068041 197.750198 
L 230.255688 198.428666 
L 230.443335 199.142075 
L 230.724806 199.208476 
L 230.818629 199.064247 
L 231.193923 197.320506 
L 231.287747 197.352971 
L 231.38157 197.362248 
L 231.475394 197.509995 
L 231.944512 199.034477 
L 232.132159 199.02312 
L 232.319806 198.394937 
L 232.507453 197.827764 
L 232.6951 197.771476 
L 232.882747 198.394883 
L 233.070395 199.105234 
L 233.351865 199.16564 
L 233.445689 199.055451 
L 233.914807 197.490036 
L 234.00863 197.543243 
L 234.196277 198.298215 
L 234.383924 199.029851 
L 234.665395 199.108594 
L 234.759219 198.92823 
L 235.134513 197.049523 
L 235.228337 197.108601 
L 235.32216 197.15345 
L 235.509807 197.754154 
L 235.791278 198.934545 
L 236.072749 198.954402 
L 236.260396 198.175639 
L 236.448043 197.583261 
L 236.63569 197.610182 
L 236.823337 198.33272 
L 237.010984 199.0657 
L 237.292455 199.186469 
L 237.386278 199.036266 
L 237.761573 197.397852 
L 237.855396 197.368028 
L 237.94922 197.463361 
L 238.512161 199.176996 
L 238.605985 199.194148 
L 238.793632 198.422639 
L 239.075103 197.162536 
L 239.168926 196.950421 
L 239.450397 197.428776 
L 239.825691 199.016294 
L 240.107162 199.019182 
L 240.294809 198.192706 
L 240.388632 197.57281 
L 240.482456 197.591795 
L 240.670103 197.634856 
L 240.85775 198.386996 
L 241.045397 199.111769 
L 241.326868 199.23161 
L 241.420692 199.056118 
L 241.795986 197.347707 
L 241.889809 197.318016 
L 241.983633 197.426064 
L 242.546574 199.193693 
L 242.640398 199.195315 
L 242.828045 198.361153 
L 243.109516 196.995961 
L 243.203339 196.763513 
L 243.48481 197.320532 
L 243.860104 198.945274 
L 244.141575 198.93567 
L 244.329222 197.969081 
L 244.423046 197.311617 
L 244.516869 197.359641 
L 244.704516 197.498619 
L 245.267458 199.15271 
L 245.361281 199.192682 
L 245.455105 198.95786 
L 245.736576 197.109542 
L 245.830399 197.167066 
L 245.924223 197.203158 
L 246.11187 197.777616 
L 246.39334 199.084279 
L 246.674811 199.222474 
L 246.862458 198.204337 
L 247.143929 196.97723 
L 247.237753 196.793397 
L 247.519223 197.434388 
L 247.894517 199.091557 
L 248.082165 199.196623 
L 248.175988 199.083051 
L 248.457459 197.428737 
L 248.551282 197.500402 
L 248.73893 197.690055 
L 249.301871 199.399153 
L 249.395694 199.447472 
L 249.583342 198.585859 
L 249.770989 197.343749 
L 250.052459 197.632041 
L 250.521577 199.420352 
L 250.709224 199.490172 
L 250.896871 198.457827 
L 250.990695 197.793566 
L 251.084519 197.838211 
L 251.272166 197.963344 
L 251.835107 199.631604 
L 251.928931 199.700472 
L 252.022754 199.493832 
L 252.304225 197.589696 
L 252.398048 197.648842 
L 252.491872 197.686731 
L 252.679519 198.233883 
L 252.96099 199.503208 
L 253.242461 199.684445 
L 253.430108 198.705625 
L 253.617755 197.40728 
L 253.899225 197.818567 
L 254.368343 199.594273 
L 254.462167 199.691608 
L 254.55599 199.622424 
L 254.837461 197.77487 
L 254.931285 197.855068 
L 255.118932 198.091832 
L 255.681873 199.857934 
L 255.775697 199.915209 
L 255.86952 199.632395 
L 256.150991 197.663356 
L 256.244815 197.778901 
L 256.432462 198.10444 
L 256.901579 199.856681 
L 257.089227 199.951008 
L 257.276874 198.812478 
L 257.558344 197.475959 
L 257.839815 198.141578 
L 258.215109 199.811711 
L 258.402756 199.991419 
L 258.49658 199.85143 
L 258.778051 198.047871 
L 258.871874 198.17185 
L 259.059521 198.489897 
L 259.528639 200.119065 
L 259.716286 200.288352 
L 259.903933 199.285733 
L 260.091581 198.008222 
L 260.373051 198.502332 
L 260.842169 200.259076 
L 261.029816 200.339281 
L 261.498934 197.797807 
L 261.592758 197.992177 
L 261.780405 198.510728 
L 262.155699 200.175969 
L 262.343346 200.359884 
L 262.43717 200.186129 
L 262.71864 198.319567 
L 262.812464 198.465048 
L 263.000111 198.845105 
L 263.469229 200.482228 
L 263.656876 200.636044 
L 263.844523 199.526006 
L 264.03217 198.249927 
L 264.313641 198.888325 
L 264.782759 200.655125 
L 264.876582 200.782974 
L 264.970406 200.67749 
L 265.439524 198.309975 
L 265.533347 198.153957 
L 265.814818 199.070981 
L 266.190112 200.643719 
L 266.377759 200.78594 
L 266.471583 200.527254 
L 266.753054 198.664574 
L 267.034524 199.33054 
L 267.503642 200.923892 
L 267.691289 201.060713 
L 268.066583 198.637401 
L 268.160407 198.854064 
L 268.348054 199.396828 
L 268.723348 200.991332 
L 268.910995 201.279028 
L 269.004819 201.127493 
L 269.473937 198.752967 
L 270.505996 199.125762 
L 271.538055 199.321328 
L 273.133056 199.799082 
L 274.352762 200.169315 
L 274.446586 199.977859 
L 275.197174 202.361385 
L 275.290998 202.457702 
L 275.384821 202.219669 
L 275.666292 200.379607 
L 276.041586 201.527851 
L 276.323057 202.341766 
L 276.604528 202.713557 
L 276.979822 200.358551 
L 277.073645 200.662578 
L 277.824234 203.039078 
L 277.918057 202.856361 
L 278.293352 200.567761 
L 278.480999 200.672225 
L 278.762469 200.871065 
L 279.325411 200.996364 
L 280.35747 201.282715 
L 283.359824 202.459113 
L 283.641295 202.544931 
L 283.735118 202.329707 
L 284.29806 204.31316 
L 284.57953 204.814399 
L 284.767177 203.814217 
L 284.954825 202.675386 
L 285.61159 204.663549 
L 285.799237 205.131266 
L 285.89306 205.076977 
L 286.268354 202.715472 
L 286.831296 204.867189 
L 287.112767 205.49437 
L 287.20659 205.214078 
L 287.488061 203.087749 
L 287.581884 202.998552 
L 288.051002 203.361153 
L 288.332473 203.400787 
L 288.801591 203.593952 
L 289.364532 203.764399 
L 291.897768 204.962752 
L 293.586592 205.55031 
L 293.680416 205.314639 
L 294.05571 206.902079 
L 294.524828 207.747473 
L 294.712475 206.623386 
L 294.900122 205.60206 
L 295.36924 207.411744 
L 295.556887 207.549961 
L 295.744534 208.102788 
L 295.838358 207.982313 
L 296.213652 205.681789 
L 296.68277 207.7064 
L 296.870417 207.9389 
L 297.058064 208.46786 
L 297.151888 208.109941 
L 297.433358 206.051318 
L 297.527182 206.046867 
L 297.902476 206.511407 
L 298.183947 206.515431 
L 298.840712 206.873612 
L 299.403653 207.074712 
L 302.687478 208.64401 
L 304.563949 209.312377 
L 307.566303 210.662176 
L 309.536598 211.272686 
L 314.790717 213.168198 
L 316.948659 213.696181 
L 317.042483 213.534758 
L 317.417777 214.502177 
L 317.605424 214.543973 
L 317.886895 214.933107 
L 318.074542 214.311768 
L 318.262189 213.794053 
L 318.637483 214.864167 
L 318.918954 214.834109 
L 319.106601 215.164686 
L 319.200425 215.081813 
L 319.575719 213.889709 
L 319.951013 215.038333 
L 320.232484 215.082474 
L 320.420131 215.361585 
L 320.607778 214.684407 
L 320.795425 214.058835 
L 320.983073 214.213731 
L 321.17072 214.330954 
L 321.733661 214.289 
L 322.108955 214.351906 
L 322.671897 214.235955 
L 323.047191 215.240001 
L 323.328662 215.44528 
L 323.516309 215.621387 
L 323.891603 214.588017 
L 324.266897 215.604756 
L 324.548368 215.625877 
L 324.736015 215.880228 
L 324.829839 215.753132 
L 325.111309 214.856313 
L 325.205133 214.786636 
L 325.580427 215.804332 
L 325.861898 215.893085 
L 326.049545 216.098099 
L 326.237192 215.503411 
L 326.424839 215.049834 
L 326.987781 215.203516 
L 327.269251 215.210576 
L 327.644545 215.280152 
L 328.01984 215.953274 
L 328.30131 216.101111 
L 328.488958 216.286974 
L 328.582781 216.203965 
L 328.958075 215.412787 
L 329.33337 216.224534 
L 329.61484 216.279315 
L 329.802487 216.444727 
L 329.990135 215.984611 
L 330.271605 215.447313 
L 330.646899 216.335188 
L 330.92837 216.419435 
L 331.116017 216.547046 
L 331.491312 215.586516 
L 331.585135 215.63392 
L 332.054253 216.187664 
L 332.335724 216.461518 
L 332.804841 216.623172 
L 333.180136 215.92599 
L 333.55543 216.650936 
L 333.836901 216.725359 
L 334.024548 216.844828 
L 334.212195 216.414988 
L 334.399842 216.05464 
L 334.86896 216.21199 
L 335.244254 216.125492 
L 338.246608 216.671247 
L 338.621902 217.107359 
L 339.278667 217.289808 
L 339.560138 216.989943 
L 339.935432 217.409696 
L 340.310726 217.524125 
L 340.498374 217.529572 
L 340.873668 217.140141 
L 341.155138 217.215271 
L 341.905727 217.111508 
L 343.782198 217.319643 
L 344.34514 217.494734 
L 344.814257 217.794575 
L 345.189552 217.983562 
L 345.658669 217.813496 
L 346.033964 218.016221 
L 346.596905 218.047411 
L 346.878376 217.871845 
L 347.25367 217.894063 
L 347.910435 217.80692 
L 349.786906 217.887682 
L 350.912789 218.082531 
L 351.663377 218.473577 
L 351.944848 218.410638 
L 352.226319 218.367515 
L 352.695437 218.528556 
L 353.164554 218.568473 
L 353.539849 218.406234 
L 354.10279 218.612931 
L 354.478084 218.674298 
L 354.853379 218.537887 
L 355.41632 218.711757 
L 355.791614 218.724736 
L 356.166908 218.580406 
L 356.72985 218.765234 
L 357.105144 218.756082 
L 357.480438 218.604886 
L 358.04338 218.67993 
L 358.793968 218.822775 
L 359.169262 218.721215 
L 359.732204 218.88 
L 359.732204 218.88 
" clip-path="url(#p461a11ecb9)" style="fill: none; stroke: #1f77b4; stroke-width: 1.5; stroke-linecap: square"/>
   </g>
   <g id="line2d_14">
    <path d="M 55.368567 97.97456 
L 55.462391 87.925369 
L 55.650038 91.375443 
L 55.743862 90.990464 
L 55.931509 91.374039 
L 56.119156 91.812895 
L 56.21298 91.799456 
L 56.400627 91.456542 
L 56.588274 90.713176 
L 56.963568 88.576311 
L 57.057392 88.886445 
L 57.245039 90.126351 
L 57.338862 90.015717 
L 57.620333 89.480739 
L 57.714157 89.384197 
L 57.80798 89.569072 
L 58.183274 91.877989 
L 58.277098 91.775512 
L 58.464745 91.024882 
L 58.558569 91.055234 
L 58.840039 91.238017 
L 59.215334 91.614456 
L 59.402981 91.406116 
L 59.590628 90.753389 
L 59.778275 89.612685 
L 59.872098 89.696697 
L 60.247393 89.963422 
L 60.43504 89.918819 
L 60.622687 89.53853 
L 61.091805 87.675341 
L 61.185628 87.854297 
L 61.74857 89.034617 
L 61.842393 88.965049 
L 62.123864 88.275434 
L 62.311511 88.498265 
L 62.968276 89.349098 
L 63.249747 89.930801 
L 63.34357 89.902201 
L 63.718865 89.264277 
L 64.187982 90.012494 
L 64.469453 90.567355 
L 64.563277 90.527602 
L 64.750924 89.959699 
L 65.032394 88.135902 
L 65.126218 88.216413 
L 65.595336 88.553033 
L 65.689159 88.52911 
L 65.876806 88.034675 
L 66.158277 86.510208 
L 66.252101 86.569149 
L 67.096513 87.206799 
L 67.377983 87.002148 
L 67.753278 87.624081 
L 68.410043 89.458012 
L 69.629749 93.417693 
L 69.91122 94.092121 
L 70.474161 94.600098 
L 70.755632 94.959975 
L 70.849455 94.877414 
L 71.037102 94.177592 
L 71.318573 92.574204 
L 71.412397 92.622551 
L 71.787691 92.894119 
L 72.069162 93.188108 
L 72.162985 93.090234 
L 72.538279 91.758046 
L 72.632103 91.811884 
L 73.476515 92.237293 
L 73.851809 91.753897 
L 74.320927 92.063593 
L 74.977692 92.608842 
L 75.165339 92.489528 
L 75.44681 92.037039 
L 75.540633 92.150574 
L 75.915928 92.733485 
L 76.385045 93.673259 
L 76.572693 93.332867 
L 76.76034 92.828903 
L 77.323281 93.707352 
L 77.698575 94.480707 
L 78.07387 93.671156 
L 78.167693 93.829477 
L 78.824458 94.788916 
L 78.918282 94.745448 
L 79.481223 93.819073 
L 79.950341 94.738577 
L 80.231811 95.079065 
L 80.419459 94.834871 
L 80.794753 94.213776 
L 80.888576 94.147764 
L 81.076224 94.416326 
L 81.357694 94.463215 
L 81.732988 95.414317 
L 81.920636 94.917366 
L 82.108283 93.661752 
L 82.389753 91.345942 
L 82.671224 91.855254 
L 82.858871 92.349704 
L 83.046518 92.720532 
L 83.60946 89.266844 
L 83.703283 89.63149 
L 83.984754 90.504169 
L 84.172401 90.72704 
L 84.266225 90.664966 
L 84.735342 89.499966 
L 84.92299 89.584289 
L 85.392107 91.116639 
L 85.579755 91.432005 
L 85.767402 91.417727 
L 85.955049 91.836423 
L 86.142696 92.103304 
L 86.236519 92.085737 
L 86.893284 94.58701 
L 87.174755 95.061971 
L 87.456226 95.019602 
L 87.83152 96.520964 
L 88.206814 98.241819 
L 88.488285 98.077138 
L 88.863579 98.208956 
L 89.332697 99.598158 
L 89.520344 99.84967 
L 89.707991 99.58674 
L 89.895638 99.375079 
L 90.083286 99.431342 
L 90.833874 101.535547 
L 91.021521 101.308559 
L 91.302992 100.672674 
L 91.77211 101.535235 
L 92.147404 102.180078 
L 92.428875 101.561861 
L 92.710345 101.076179 
L 93.179463 102.284526 
L 93.460934 102.529167 
L 93.742404 101.423059 
L 94.023875 100.68557 
L 94.399169 101.60025 
L 94.774464 102.082806 
L 95.243581 101.097397 
L 95.900346 102.259517 
L 95.99417 102.301496 
L 96.275641 101.896446 
L 96.557111 101.530474 
L 96.744758 101.491618 
L 97.3077 102.311031 
L 97.495347 102.338309 
L 97.964465 101.846785 
L 98.058288 102.006125 
L 98.433583 102.561858 
L 98.62123 102.630303 
L 98.808877 102.409652 
L 99.277995 100.853803 
L 99.371818 101.061131 
L 99.747112 101.782676 
L 99.93476 101.748874 
L 100.122407 101.263412 
L 100.497701 100.246515 
L 100.966819 100.820354 
L 101.154466 100.789266 
L 101.435937 100.294955 
L 101.717407 99.977115 
L 101.905054 99.995838 
L 102.374172 100.198134 
L 102.655643 100.003957 
L 103.030937 99.756625 
L 103.312408 99.884344 
L 104.250643 100.520217 
L 104.438291 100.396327 
L 104.907408 99.749549 
L 105.564173 100.139037 
L 105.75182 100.046791 
L 106.127115 99.830655 
L 106.408585 100.015273 
L 106.971527 100.554825 
L 107.159174 100.46794 
L 107.440645 100.215384 
L 107.628292 100.337004 
L 108.566527 101.843672 
L 108.754174 101.881724 
L 109.223292 101.363817 
L 109.880057 102.154228 
L 110.067704 102.18465 
L 110.442999 101.881352 
L 111.099764 102.503956 
L 111.287411 102.542708 
L 111.568881 102.093366 
L 111.756528 101.76581 
L 112.31947 102.53605 
L 112.507117 102.62638 
L 112.694764 102.368163 
L 113.070058 101.655275 
L 113.633 102.717487 
L 113.820647 102.806366 
L 114.008294 102.486025 
L 114.383588 101.150988 
L 114.477412 101.366869 
L 114.94653 102.313516 
L 115.134177 102.417682 
L 115.321824 101.871191 
L 115.790942 100.277552 
L 116.072412 100.144101 
L 116.260059 100.150161 
L 116.729177 101.085622 
L 116.916824 101.114735 
L 117.104472 100.731369 
L 117.479766 99.852323 
L 117.573589 99.72517 
L 118.136531 100.514515 
L 118.324178 100.517142 
L 118.699472 100.166082 
L 118.887119 100.334385 
L 119.543884 101.419751 
L 119.825355 101.654765 
L 120.013002 101.57225 
L 120.294473 101.373865 
L 120.857414 101.976367 
L 121.045061 102.024421 
L 121.232708 101.841121 
L 121.514179 101.455771 
L 122.07712 101.894963 
L 122.358591 101.897305 
L 122.640062 101.401983 
L 122.827709 100.998153 
L 123.578297 101.747129 
L 123.765944 101.42931 
L 124.047415 100.891144 
L 124.141239 100.841039 
L 124.70418 101.858837 
L 124.891827 101.923365 
L 125.079474 101.618235 
L 125.360945 101.170569 
L 125.548592 101.077121 
L 126.111533 102.085557 
L 126.299181 102.135633 
L 126.580651 101.522957 
L 126.768298 101.042197 
L 127.425063 101.880399 
L 127.61271 101.758236 
L 127.988005 100.98305 
L 128.175652 100.950075 
L 128.738593 101.911132 
L 128.92624 101.995529 
L 129.301535 101.664793 
L 129.489182 101.612989 
L 129.583005 101.653125 
L 130.333594 102.851057 
L 130.521241 102.62649 
L 130.802712 102.274248 
L 131.5533 103.409971 
L 131.647124 103.326576 
L 132.116241 102.524232 
L 132.773006 103.696719 
L 132.960654 103.670978 
L 133.335948 103.103122 
L 134.086536 103.965698 
L 134.274183 103.745602 
L 134.555654 103.354522 
L 134.649478 103.379146 
L 135.400066 104.559805 
L 135.587713 104.490492 
L 135.869184 104.313794 
L 136.056831 104.408696 
L 136.713596 105.348166 
L 136.901243 105.325689 
L 137.276537 104.8013 
L 138.027126 105.633567 
L 138.214773 105.483242 
L 138.496244 105.161219 
L 138.683891 105.086313 
L 139.246832 105.763552 
L 139.434479 105.8446 
L 139.622126 105.625927 
L 139.903597 105.34034 
L 140.091244 105.549387 
L 140.841833 106.765126 
L 141.02948 106.729063 
L 141.310951 106.547277 
L 142.061539 107.283829 
L 142.249186 107.20357 
L 142.530657 107.056613 
L 142.718304 107.223975 
L 143.375069 108.150025 
L 143.562716 108.024339 
L 143.844187 107.805577 
L 144.500952 108.428124 
L 144.688599 108.4474 
L 145.063893 108.185769 
L 145.345364 108.448686 
L 145.908305 109.023103 
L 146.095952 109.017081 
L 146.471247 108.891673 
L 146.658894 109.078928 
L 147.221835 109.781226 
L 147.409482 109.795882 
L 147.690953 109.673834 
L 147.8786 109.8166 
L 148.535365 110.506589 
L 148.723012 110.421589 
L 149.004483 110.171142 
L 149.098306 110.160459 
L 149.755071 110.900381 
L 149.942718 110.8823 
L 150.224189 110.749623 
L 150.50566 110.974795 
L 151.256248 111.867516 
L 151.443895 111.769343 
L 151.631542 111.673047 
L 151.81919 111.807012 
L 152.569778 112.557483 
L 152.851249 112.452904 
L 153.132719 112.647581 
L 153.695661 113.332094 
L 153.883308 113.347432 
L 154.164779 113.151767 
L 154.446249 113.396724 
L 155.009191 113.918119 
L 155.665956 114.047787 
L 156.416544 114.750982 
L 156.698015 114.647347 
L 156.979486 114.987567 
L 157.823898 115.923475 
L 158.293015 115.964165 
L 158.855957 116.590001 
L 159.043604 116.594836 
L 159.325075 116.424083 
L 159.606545 116.724488 
L 160.169487 117.304913 
L 160.544781 117.338525 
L 160.826252 117.424273 
L 161.764487 118.522601 
L 161.952134 118.533051 
L 162.515076 119.206256 
L 162.89037 119.618544 
L 163.078017 119.587535 
L 163.359488 119.436327 
L 163.453311 119.468052 
L 164.110076 120.443862 
L 164.297723 120.367148 
L 164.485371 120.286938 
L 164.860665 120.679611 
L 165.235959 121.539475 
L 166.080371 123.705762 
L 167.393901 126.332458 
L 167.863019 127.486685 
L 168.238313 128.252251 
L 168.988902 129.280634 
L 169.73949 130.310063 
L 170.302431 130.232851 
L 170.677726 130.70283 
L 171.146843 131.299722 
L 172.64802 132.491475 
L 173.117138 132.505717 
L 173.586256 132.88754 
L 173.96155 132.925052 
L 174.430668 132.770813 
L 174.899786 133.113601 
L 175.181257 133.050471 
L 175.556551 132.903048 
L 176.307139 133.483761 
L 176.682434 133.359755 
L 176.870081 133.122972 
L 176.963904 133.242383 
L 177.433022 133.732354 
L 177.620669 133.691853 
L 178.183611 133.358511 
L 178.652728 133.804143 
L 178.934199 133.698337 
L 179.403317 133.423705 
L 179.872435 133.929884 
L 180.247729 133.919216 
L 180.716847 133.902628 
L 181.84273 134.443628 
L 182.311847 134.458349 
L 182.687142 134.918166 
L 182.968612 134.921841 
L 183.531554 134.674579 
L 184.000671 135.116386 
L 184.282142 135.075054 
L 184.75126 134.8068 
L 185.314201 135.4347 
L 185.595672 135.429954 
L 186.06479 135.304486 
L 186.533908 135.75402 
L 186.815378 135.721359 
L 187.190673 135.42331 
L 187.284496 135.302178 
L 187.847438 135.87667 
L 188.128908 135.79028 
L 188.785673 135.384419 
L 189.254791 135.949552 
L 189.536262 135.979544 
L 190.099203 135.860617 
L 190.568321 136.307364 
L 190.849792 136.290372 
L 191.225086 136.053397 
L 191.318909 135.932823 
L 191.881851 136.527502 
L 192.163321 136.478034 
L 192.632439 136.243859 
L 193.101557 136.693222 
L 193.383028 136.642078 
L 193.758322 136.275418 
L 193.852146 136.138744 
L 194.415087 136.751232 
L 194.696558 136.690706 
L 195.165675 136.235083 
L 195.259499 136.372735 
L 195.728617 136.913798 
L 196.010087 136.850632 
L 196.385382 136.567801 
L 196.948323 137.17601 
L 197.229794 137.149084 
L 197.792735 136.946574 
L 198.261853 137.420195 
L 198.543324 137.380864 
L 199.293912 137.030303 
L 199.76303 137.595253 
L 200.044501 137.637135 
L 200.419795 137.46286 
L 200.513618 137.363527 
L 201.07656 137.884944 
L 201.358031 137.848392 
L 201.733325 137.568717 
L 201.827148 137.442094 
L 202.39009 137.999491 
L 202.67156 137.943222 
L 203.140678 137.708813 
L 203.609796 138.125581 
L 203.891267 138.073875 
L 204.266561 137.733753 
L 204.360385 137.601365 
L 204.923326 138.168022 
L 205.204797 138.110996 
L 205.767738 137.82347 
L 206.143032 138.270082 
L 206.424503 138.289182 
L 206.987444 138.09173 
L 207.456562 138.52405 
L 207.738033 138.50506 
L 208.300974 138.298305 
L 208.770092 138.731211 
L 209.145386 138.671041 
L 209.802151 138.416663 
L 212.335387 138.449648 
L 213.555094 138.637718 
L 215.619212 138.974241 
L 220.873331 139.279158 
L 221.436273 139.886704 
L 221.717744 139.909561 
L 221.999214 139.724221 
L 222.093038 139.603558 
L 222.655979 140.13435 
L 222.93745 140.143521 
L 223.312744 139.848592 
L 223.406568 139.724385 
L 223.969509 140.302567 
L 224.25098 140.307742 
L 224.720098 140.075466 
L 225.189215 140.491872 
L 225.470686 140.508784 
L 225.752157 140.292918 
L 225.939804 140.054496 
L 226.502745 140.594222 
L 226.784216 140.60307 
L 227.15951 140.270926 
L 227.253334 140.121512 
L 227.816275 140.689871 
L 228.097746 140.67549 
L 228.566864 140.389469 
L 229.035981 140.808802 
L 229.317452 140.819478 
L 229.598923 140.572688 
L 229.78657 140.299852 
L 230.349511 140.860936 
L 230.630982 140.861244 
L 230.912453 140.601161 
L 231.193923 140.264308 
L 231.663041 140.829147 
L 231.944512 140.885336 
L 232.225983 140.696169 
L 232.41363 140.451116 
L 232.976571 141.007489 
L 233.258042 141.005668 
L 233.633336 140.599048 
L 233.72716 140.44515 
L 234.290101 141.042684 
L 234.571572 141.046836 
L 234.853042 140.777483 
L 235.134513 140.430844 
L 235.603631 141.012846 
L 235.978925 141.047158 
L 236.260396 140.77943 
L 236.354219 140.634756 
L 236.917161 141.200239 
L 237.198631 141.203278 
L 237.480102 140.919241 
L 237.667749 140.63026 
L 238.230691 141.237447 
L 238.512161 141.246749 
L 238.793632 140.964793 
L 239.168926 140.564224 
L 239.638044 141.152338 
L 240.013338 141.214247 
L 240.294809 140.942019 
L 240.388632 140.777854 
L 240.951574 141.354708 
L 241.233045 141.358395 
L 241.608339 140.934508 
L 241.702162 140.770137 
L 242.265104 141.403516 
L 242.546574 141.424014 
L 242.828045 141.135113 
L 243.203339 140.728804 
L 243.672457 141.333057 
L 244.047751 141.421759 
L 244.329222 141.148677 
L 244.423046 140.980199 
L 244.985987 141.561674 
L 245.267458 141.58183 
L 245.548928 141.305717 
L 245.736576 141.017766 
L 246.205693 141.604621 
L 246.580988 141.681663 
L 246.862458 141.406464 
L 247.237753 140.99669 
L 247.70687 141.603768 
L 248.082165 141.712756 
L 248.363635 141.444003 
L 248.457459 141.270326 
L 249.0204 141.850703 
L 249.301871 141.883412 
L 249.583342 141.618181 
L 249.770989 141.325986 
L 250.240107 141.919177 
L 250.615401 142.008957 
L 250.896871 141.738041 
L 250.990695 141.591035 
L 251.553636 142.15295 
L 251.835107 142.207799 
L 252.116578 141.952392 
L 252.304225 141.662778 
L 252.773343 142.220963 
L 253.148637 142.321194 
L 253.430108 142.067421 
L 253.617755 141.746566 
L 254.086873 142.329848 
L 254.462167 142.420224 
L 254.743638 142.148979 
L 254.837461 142.000609 
L 255.400402 142.560074 
L 255.681873 142.623263 
L 255.963344 142.378767 
L 256.150991 142.08763 
L 256.620109 142.640823 
L 256.995403 142.74991 
L 257.276874 142.503293 
L 257.558344 142.129083 
L 258.027462 142.720917 
L 258.402756 142.855971 
L 258.684227 142.610584 
L 258.778051 142.451587 
L 259.340992 143.011695 
L 259.622463 143.082042 
L 259.903933 142.844719 
L 260.091581 142.55924 
L 260.560698 143.125058 
L 260.935993 143.257903 
L 261.217463 143.019103 
L 261.498934 142.639093 
L 261.968052 143.238979 
L 262.343346 143.405202 
L 262.624817 143.164255 
L 262.71864 143.000816 
L 263.187758 143.51938 
L 263.563052 143.646284 
L 263.844523 143.421861 
L 264.03217 143.138439 
L 264.501288 143.699513 
L 264.876582 143.845994 
L 265.158053 143.61509 
L 265.533347 143.208389 
L 266.002465 143.821788 
L 266.377759 144.016737 
L 266.565406 143.892561 
L 266.753054 143.587367 
L 267.315995 144.148081 
L 267.597466 144.242652 
L 267.878936 144.031731 
L 268.066583 143.743566 
L 268.535701 144.311893 
L 268.910995 144.474128 
L 269.192466 144.241799 
L 269.473937 143.932766 
L 269.849231 143.938829 
L 272.288644 144.19395 
L 274.446586 144.765748 
L 274.915703 145.384976 
L 275.384821 145.651455 
L 275.572468 145.52168 
L 275.666292 145.390996 
L 276.229233 145.932822 
L 276.604528 146.123358 
L 276.885998 145.956003 
L 276.979822 145.810168 
L 277.542763 146.373089 
L 277.918057 146.539816 
L 278.199528 146.276973 
L 278.480999 146.117081 
L 280.920411 146.607535 
L 283.735118 147.708491 
L 284.204236 148.284441 
L 284.673354 148.632046 
L 284.861001 148.552103 
L 284.954825 148.43605 
L 285.517766 148.900604 
L 285.986884 149.171817 
L 286.174531 149.064786 
L 286.268354 148.920759 
L 286.831296 149.39566 
L 287.20659 149.647534 
L 287.394237 149.564874 
L 287.675708 149.259117 
L 287.957179 149.293817 
L 288.426296 149.351065 
L 288.989238 149.439996 
L 291.334827 150.241782 
L 293.680416 151.245936 
L 294.337181 152.003532 
L 294.618652 152.208506 
L 294.806299 152.139609 
L 294.900122 152.01544 
L 295.932181 152.791751 
L 296.119829 152.672382 
L 296.213652 152.511419 
L 297.151888 153.29719 
L 297.339535 153.213148 
L 297.621006 152.878402 
L 297.902476 152.954036 
L 298.27777 153.042004 
L 298.840712 153.135562 
L 301.186301 154.026728 
L 304.282478 155.676715 
L 310.38101 158.724504 
L 314.040129 160.648141 
L 316.573365 161.85614 
L 317.23013 162.247697 
L 318.074542 163.037625 
L 318.449836 162.972635 
L 318.825131 163.223807 
L 319.388072 163.66567 
L 319.669543 163.455873 
L 320.044837 163.666791 
L 320.701602 164.120824 
L 321.076896 163.734757 
L 322.859544 164.206505 
L 323.703956 164.948352 
L 324.07925 164.85746 
L 324.454544 165.165276 
L 324.923662 165.541573 
L 325.111309 165.436333 
L 325.298956 165.32709 
L 325.674251 165.575635 
L 326.237192 166.055107 
L 326.424839 165.874172 
L 326.70631 165.662754 
L 327.926016 166.036066 
L 328.770428 166.698099 
L 329.145722 166.547239 
L 329.427193 166.669026 
L 330.083958 167.134921 
L 330.365429 166.885375 
L 330.646899 166.950239 
L 331.397488 167.447901 
L 331.772782 167.067313 
L 331.960429 167.137145 
L 332.523371 167.581255 
L 332.898665 167.862399 
L 333.086312 167.735436 
L 333.273959 167.610784 
L 333.55543 167.676273 
L 334.306018 168.196509 
L 334.681313 167.863376 
L 335.338078 167.872475 
L 336.18249 167.905843 
L 337.120725 168.077724 
L 337.965137 168.505709 
L 338.528079 168.750111 
L 338.809549 168.864688 
L 339.09102 169.218727 
L 339.372491 169.601247 
L 339.653961 169.567129 
L 340.029256 169.433619 
L 340.216903 169.5356 
L 340.779844 170.101062 
L 341.155138 169.833693 
L 342.468668 169.924211 
L 343.500728 170.314575 
L 344.532787 170.633756 
L 344.814257 170.692759 
L 345.095728 171.004093 
L 345.377199 171.355077 
L 345.658669 171.321625 
L 346.127787 171.211141 
L 346.409258 171.494787 
L 346.690729 171.808005 
L 347.535141 171.715795 
L 348.848671 172.016045 
L 351.100436 172.556538 
L 351.47573 172.615952 
L 352.132495 173.155766 
L 352.883084 173.084518 
L 353.352202 173.529666 
L 354.10279 173.291276 
L 354.384261 173.563821 
L 354.665731 173.807077 
L 355.510144 173.642129 
L 355.979261 174.006641 
L 356.636026 173.772058 
L 356.917497 173.959023 
L 357.198968 174.179921 
L 357.480438 174.060447 
L 357.855733 174.004903 
L 358.512498 174.109609 
L 358.981615 174.36722 
L 359.63838 174.22108 
L 359.732204 174.247638 
L 359.732204 174.247638 
" clip-path="url(#p461a11ecb9)" style="fill: none; stroke: #ff7f0e; stroke-width: 1.5; stroke-linecap: square"/>
   </g>
   <g id="line2d_15">
    <path d="M 55.368567 17.28 
L 55.650038 28.65399 
L 55.837685 31.173575 
L 56.400627 30.36624 
L 56.963568 27.906446 
L 57.057392 28.558 
L 57.151215 30.137175 
L 57.245039 29.384522 
L 57.432686 24.496972 
L 57.620333 25.272698 
L 57.995627 27.510658 
L 58.746216 31.051462 
L 59.215334 31.897187 
L 59.402981 31.883092 
L 59.778275 31.146126 
L 60.153569 32.140022 
L 60.43504 32.617403 
L 60.622687 32.50478 
L 60.904158 31.647428 
L 61.091805 30.464428 
L 61.185628 30.680504 
L 61.74857 32.247478 
L 61.842393 32.184192 
L 62.03004 31.445822 
L 62.499158 28.832115 
L 62.686805 29.360578 
L 63.155923 30.930894 
L 63.34357 30.988221 
L 63.531217 30.588632 
L 63.718865 29.797597 
L 64.000335 30.5056 
L 64.375629 31.445952 
L 64.563277 31.398047 
L 64.750924 30.986437 
L 65.032394 29.681539 
L 65.126218 29.944823 
L 65.876806 32.445581 
L 65.97063 32.460554 
L 66.158277 32.148915 
L 66.533571 33.159885 
L 67.096513 35.504369 
L 67.28416 35.011609 
L 67.471807 33.957513 
L 67.565631 34.092811 
L 67.940925 34.732064 
L 68.222396 35.323934 
L 68.316219 35.215026 
L 68.503866 34.316463 
L 68.785337 32.911645 
L 69.160631 33.058718 
L 69.442102 33.145828 
L 69.629749 32.877353 
L 69.91122 31.800013 
L 70.005043 31.860125 
L 70.380337 32.305303 
L 70.661808 32.592116 
L 70.849455 32.586654 
L 71.130926 32.228139 
L 71.318573 31.910959 
L 71.600044 32.64077 
L 72.069162 33.927722 
L 72.256809 34.078741 
L 72.444456 33.916983 
L 72.538279 33.73423 
L 72.913574 34.463209 
L 73.476515 35.644029 
L 73.570339 35.660991 
L 73.945633 35.269575 
L 74.320927 35.982919 
L 74.790045 37.106743 
L 74.977692 37.110052 
L 75.165339 36.473397 
L 75.44681 34.242986 
L 75.540633 34.300467 
L 75.72828 34.649158 
L 76.009751 35.39688 
L 76.103575 35.411239 
L 76.291222 35.020159 
L 76.572693 33.99338 
L 76.76034 32.966926 
L 76.947987 33.437216 
L 77.510928 35.545908 
L 77.792399 35.636997 
L 77.980046 35.236808 
L 78.07387 34.868296 
L 78.35534 35.555789 
L 78.824458 36.98324 
L 79.012105 37.030767 
L 79.199752 36.742828 
L 79.481223 36.247207 
L 79.66887 36.577327 
L 79.950341 37.885978 
L 80.231811 38.922343 
L 80.325635 39.003819 
L 80.419459 38.829083 
L 80.607106 37.50741 
L 80.888576 34.663876 
L 81.076224 35.444437 
L 81.545341 38.222188 
L 81.639165 38.347122 
L 81.732988 38.128549 
L 82.389753 33.313633 
L 82.671224 34.800479 
L 83.046518 38.915221 
L 83.234165 37.871699 
L 83.703283 34.930812 
L 83.797107 35.023717 
L 83.984754 37.083691 
L 84.172401 39.805368 
L 84.266225 40.011556 
L 84.453872 39.629221 
L 84.92299 35.506352 
L 85.016813 35.742817 
L 85.20446 37.244472 
L 85.485931 40.735947 
L 85.673578 40.929621 
L 85.861225 39.288268 
L 86.142696 37.667294 
L 86.236519 37.074473 
L 86.424167 38.015775 
L 86.893284 42.071147 
L 86.987108 42.067223 
L 87.080932 41.686996 
L 87.456226 37.701683 
L 87.550049 38.158525 
L 87.83152 41.152178 
L 88.112991 43.276417 
L 88.206814 43.395106 
L 88.394461 41.629536 
L 88.582109 39.909231 
L 88.675932 39.713603 
L 88.863579 40.044233 
L 89.238873 43.607528 
L 89.520344 45.911522 
L 89.614168 45.938864 
L 90.083286 42.738908 
L 90.364756 44.528412 
L 90.74005 47.115941 
L 90.833874 47.486896 
L 90.927698 47.366576 
L 91.209168 45.728133 
L 91.302992 45.716324 
L 91.678286 47.491198 
L 92.05358 49.426474 
L 92.147404 49.575803 
L 92.335051 48.411531 
L 92.710345 44.409393 
L 92.804169 44.465114 
L 92.991816 45.177305 
L 93.36711 47.882847 
L 93.460934 47.898732 
L 93.648581 46.540777 
L 94.023875 42.967955 
L 94.211522 43.766765 
L 94.774464 47.886856 
L 94.868287 47.589193 
L 95.149758 45.612937 
L 95.243581 45.757122 
L 95.431229 46.741986 
L 95.99417 50.645601 
L 96.087994 50.730147 
L 96.744758 47.716238 
L 96.838582 48.064582 
L 97.495347 50.767393 
L 97.589171 50.56547 
L 97.870641 48.475491 
L 97.964465 47.808245 
L 98.245935 48.759034 
L 98.62123 50.69381 
L 98.715053 50.806625 
L 98.808877 50.726228 
L 98.996524 49.72951 
L 99.277995 48.067073 
L 99.465642 48.34233 
L 99.653289 49.524324 
L 99.93476 51.342436 
L 100.028583 51.259334 
L 100.21623 50.408653 
L 100.497701 48.662318 
L 100.685348 48.92319 
L 100.872995 49.789689 
L 101.154466 51.16558 
L 101.342113 51.080134 
L 101.52976 50.429567 
L 101.811231 48.866065 
L 102.092702 49.941147 
L 102.467996 51.660112 
L 102.561819 51.709768 
L 102.655643 51.567936 
L 102.84329 50.552052 
L 103.218584 48.233763 
L 103.406231 48.405274 
L 103.593879 48.590838 
L 103.687702 48.417876 
L 103.875349 49.062079 
L 104.15682 51.239604 
L 104.438291 52.606372 
L 104.532114 52.448123 
L 104.907408 49.951034 
L 105.095056 50.395611 
L 105.282703 51.493484 
L 105.657997 53.814621 
L 105.75182 53.941463 
L 105.845644 53.660049 
L 106.314762 49.556187 
L 106.408585 49.692219 
L 106.596233 50.384026 
L 107.06535 53.586272 
L 107.159174 53.400114 
L 107.440645 50.304252 
L 107.628292 48.961477 
L 107.722115 48.92766 
L 108.191233 49.926698 
L 108.37888 51.348594 
L 108.754174 54.371231 
L 108.847998 54.212891 
L 109.317116 50.792743 
L 109.410939 50.84709 
L 109.598587 51.869421 
L 109.973881 54.772817 
L 110.067704 54.893574 
L 110.161528 54.530253 
L 110.536822 51.469107 
L 110.630646 51.398817 
L 110.724469 51.536285 
L 110.912116 52.713741 
L 111.193587 54.321138 
L 111.287411 54.317915 
L 111.381234 53.984178 
L 111.850352 49.921957 
L 111.944176 49.988806 
L 112.131823 50.88785 
L 112.507117 53.736121 
L 112.600941 53.712972 
L 112.788588 51.836518 
L 113.070058 49.336777 
L 113.257705 49.702822 
L 113.445353 50.966185 
L 113.726823 53.485493 
L 113.820647 53.690982 
L 113.91447 53.547895 
L 114.195941 50.62948 
L 114.383588 49.078484 
L 114.477412 49.141025 
L 114.571235 49.268658 
L 114.758882 50.506884 
L 115.040353 52.828619 
L 115.134177 53.002948 
L 115.228 52.899784 
L 115.884765 48.128954 
L 116.072412 48.472018 
L 116.353883 48.975682 
L 116.447707 49.131605 
L 116.635354 50.469748 
L 116.916824 53.434573 
L 117.010648 53.634012 
L 117.104472 53.583118 
L 117.292119 52.151829 
L 117.573589 50.304375 
L 117.761236 50.294453 
L 117.85506 50.600937 
L 118.324178 54.199935 
L 118.418001 54.130276 
L 118.605649 52.915761 
L 118.887119 50.53165 
L 119.074766 50.467084 
L 119.450061 52.609675 
L 119.731531 54.382839 
L 119.919178 54.840424 
L 120.013002 54.576538 
L 120.388296 52.359105 
L 120.48212 52.328104 
L 120.575943 52.529827 
L 121.138885 55.644944 
L 121.232708 55.402 
L 121.701826 52.729022 
L 121.79565 52.85238 
L 121.983297 54.040286 
L 122.264767 55.711396 
L 122.358591 55.68773 
L 122.452415 55.495685 
L 122.640062 54.091287 
L 122.921532 51.907248 
L 123.015356 51.820838 
L 123.109179 51.985056 
L 123.296827 53.469303 
L 123.578297 55.650601 
L 123.672121 55.701354 
L 123.765944 55.425082 
L 124.328886 50.880145 
L 124.422709 51.002855 
L 124.610356 52.769188 
L 124.891827 55.392588 
L 124.985651 55.399639 
L 125.173298 53.646631 
L 125.454769 50.676643 
L 125.642416 50.617796 
L 125.736239 50.758108 
L 125.923886 52.050192 
L 126.299181 55.339468 
L 126.393004 55.560246 
L 126.486828 55.176804 
L 126.862122 52.251174 
L 126.955946 52.118608 
L 127.049769 52.273427 
L 127.237416 53.887629 
L 127.518887 56.515055 
L 127.61271 56.52241 
L 127.800358 55.008275 
L 128.175652 51.304615 
L 128.363299 51.512072 
L 128.550946 52.797875 
L 128.92624 56.208481 
L 129.020064 56.331196 
L 129.113887 56.040134 
L 129.583005 52.195495 
L 129.770652 52.149751 
L 129.864476 52.449242 
L 130.427417 57.066951 
L 130.615064 55.218548 
L 130.896535 53.128134 
L 130.990359 52.93177 
L 131.084182 53.010557 
L 131.271829 54.585161 
L 131.5533 57.552383 
L 131.647124 57.673408 
L 131.834771 55.982174 
L 132.116241 52.988166 
L 132.303889 52.716336 
L 132.397712 52.918705 
L 132.585359 54.819073 
L 132.86683 57.590435 
L 132.960654 57.901115 
L 133.054477 57.6217 
L 133.429771 54.173965 
L 133.523595 53.998497 
L 133.617418 54.114502 
L 133.805066 55.683206 
L 134.086536 58.802682 
L 134.18036 59.17199 
L 134.274183 58.761866 
L 134.649478 54.147949 
L 134.837125 54.185576 
L 134.930948 54.444179 
L 135.212419 57.263688 
L 135.49389 58.759946 
L 135.587713 58.610492 
L 136.056831 55.367651 
L 136.244478 55.071975 
L 136.338302 55.303645 
L 136.525949 57.121662 
L 136.80742 59.886812 
L 136.901243 60.174545 
L 137.08889 58.199843 
L 137.370361 55.711752 
L 137.464185 55.556446 
L 137.558008 55.66156 
L 137.745655 57.181246 
L 138.027126 60.101883 
L 138.120949 60.340874 
L 138.214773 60.130807 
L 138.777714 56.168528 
L 138.871538 56.087165 
L 138.965362 56.27711 
L 139.153009 57.757283 
L 139.528303 60.636597 
L 139.622126 60.144744 
L 139.997421 56.282533 
L 140.091244 56.123188 
L 140.372715 56.905591 
L 140.935656 60.783846 
L 141.02948 60.380306 
L 141.310951 57.890185 
L 141.498598 57.804597 
L 141.592421 57.966318 
L 141.780068 59.339257 
L 142.061539 61.411586 
L 142.155363 61.611658 
L 142.249186 61.239412 
L 142.62448 57.339319 
L 142.999775 58.802726 
L 143.375069 61.729691 
L 143.468893 61.893973 
L 143.562716 61.540929 
L 143.93801 58.579173 
L 144.031834 58.514374 
L 144.125657 58.667089 
L 144.313305 59.974296 
L 144.688599 62.670473 
L 144.782422 62.608797 
L 145.157717 59.006493 
L 145.439187 59.680688 
L 146.002129 63.430166 
L 146.095952 63.339142 
L 146.56507 60.180369 
L 146.752717 59.853537 
L 146.846541 60.06302 
L 147.128011 62.753188 
L 147.315659 63.919703 
L 147.409482 63.969632 
L 147.597129 62.238693 
L 147.784776 60.663228 
L 148.066247 61.103743 
L 148.253894 62.322779 
L 148.629188 64.774352 
L 148.723012 64.805245 
L 149.285953 61.598414 
L 149.379777 61.769748 
L 149.567424 63.236867 
L 149.848895 65.320693 
L 149.942718 65.59207 
L 150.036542 65.264724 
L 150.411836 62.065465 
L 150.50566 61.783012 
L 150.599483 61.847364 
L 150.693307 61.850616 
L 150.78713 62.050643 
L 150.974778 63.39395 
L 151.256248 65.631756 
L 151.350072 65.877916 
L 151.443895 65.459569 
L 151.725366 63.01645 
L 151.913013 63.091547 
L 152.006837 63.357993 
L 152.569778 66.750635 
L 152.663602 66.452619 
L 153.038896 63.60517 
L 153.320367 63.7018 
L 153.508014 64.939251 
L 153.883308 67.602325 
L 153.977132 67.400537 
L 154.258602 64.642198 
L 154.352426 64.678018 
L 154.446249 64.727255 
L 154.633896 65.557436 
L 155.009191 68.012469 
L 155.103014 68.183092 
L 155.196838 67.956633 
L 155.572132 65.064444 
L 155.759779 65.239546 
L 155.853603 65.30711 
L 156.04125 66.185519 
L 156.416544 68.60852 
L 156.510368 68.498288 
L 156.885662 66.111872 
L 156.979486 65.913525 
L 157.260956 66.758979 
L 157.730074 69.818393 
L 157.823898 69.81204 
L 158.105368 67.823992 
L 158.293015 67.271621 
L 158.480663 67.192899 
L 158.66831 68.173153 
L 158.94978 70.15877 
L 159.043604 70.406892 
L 159.137427 70.285129 
L 159.512722 67.500521 
L 159.794192 68.222088 
L 160.357134 71.171907 
L 160.450957 70.885574 
L 160.826252 68.489892 
L 161.107722 68.292232 
L 161.201546 68.519958 
L 161.764487 72.113314 
L 162.139781 69.520032 
L 162.233605 69.858947 
L 162.421252 70.335913 
L 162.984194 73.20456 
L 163.078017 72.992336 
L 163.547135 70.355788 
L 163.640958 70.303575 
L 163.734782 70.50877 
L 164.297723 74.05821 
L 164.391547 73.70967 
L 164.673018 71.441562 
L 164.860665 71.194776 
L 165.048312 71.484991 
L 165.892724 73.377262 
L 166.174195 73.82937 
L 166.737136 75.038317 
L 167.018607 75.146788 
L 167.393901 75.726465 
L 167.863019 76.724306 
L 168.613607 78.739311 
L 169.364196 79.732087 
L 169.927137 82.396238 
L 170.114784 81.549336 
L 170.396255 80.380304 
L 170.490078 80.368068 
L 170.677726 80.690873 
L 170.865373 81.634758 
L 171.146843 83.604388 
L 171.240667 83.734221 
L 171.334491 83.607589 
L 171.615961 81.966376 
L 171.709785 81.396546 
L 171.991255 82.341288 
L 172.460373 84.405146 
L 172.554197 84.318127 
L 172.741844 83.529293 
L 173.023315 81.269788 
L 173.773903 83.967034 
L 173.867727 83.851317 
L 174.055374 82.624886 
L 174.336845 80.247687 
L 174.712139 82.418861 
L 174.993609 83.572485 
L 175.181257 83.831229 
L 175.368904 82.235075 
L 175.556551 81.045038 
L 175.931845 83.275451 
L 176.213316 84.431438 
L 176.494786 84.931194 
L 176.776257 83.025479 
L 176.870081 83.068352 
L 177.433022 85.684332 
L 177.620669 85.961139 
L 177.714493 86.187789 
L 177.808316 86.148336 
L 178.089787 84.839781 
L 178.934199 86.193542 
L 179.028023 86.081438 
L 179.21567 85.319241 
L 179.49714 84.013017 
L 179.590964 83.938044 
L 179.684788 84.006416 
L 179.872435 84.86465 
L 180.153905 86.168121 
L 180.247729 86.124512 
L 180.435376 85.33962 
L 180.716847 84.073637 
L 180.904494 84.350418 
L 181.185965 84.689551 
L 181.655082 84.832326 
L 182.1242 84.307133 
L 182.218024 83.956684 
L 182.968612 86.556309 
L 183.062436 86.4564 
L 183.250083 85.208707 
L 183.43773 84.000922 
L 183.719201 85.017894 
L 184.188319 87.226573 
L 184.282142 87.427329 
L 184.375966 87.380383 
L 184.75126 85.47228 
L 185.501848 88.159333 
L 185.689496 88.293444 
L 185.970966 87.045867 
L 186.721555 88.651215 
L 186.909202 88.640048 
L 187.003025 88.491581 
L 187.472143 87.013883 
L 187.565967 87.034629 
L 187.753614 87.703568 
L 188.035085 88.575679 
L 188.128908 88.551987 
L 188.316555 88.093697 
L 188.69185 86.524874 
L 188.785673 86.453353 
L 189.067144 87.078856 
L 189.442438 88.803687 
L 189.630085 88.691909 
L 189.817732 88.211059 
L 190.005379 87.425344 
L 190.380674 88.184054 
L 190.662144 89.324407 
L 190.849792 89.308558 
L 191.037439 88.970462 
L 191.318909 87.351484 
L 191.412733 87.59894 
L 191.694204 88.350392 
L 191.975674 89.406648 
L 192.163321 89.337129 
L 192.350969 88.59861 
L 192.538616 87.114913 
L 192.632439 87.295495 
L 192.820086 87.653478 
L 193.383028 89.363251 
L 193.476851 89.211155 
L 193.664498 87.987844 
L 193.852146 86.603093 
L 194.133616 87.352588 
L 194.602734 89.350034 
L 194.696558 89.424629 
L 194.790381 89.344479 
L 195.165675 87.187982 
L 195.54097 88.589558 
L 195.82244 89.765964 
L 196.103911 89.997096 
L 196.385382 88.69986 
L 196.479205 88.885534 
L 196.666852 89.116975 
L 197.13597 90.296543 
L 197.417441 90.378946 
L 197.605088 89.568305 
L 197.698912 89.000842 
L 197.792735 89.073114 
L 197.980382 89.081391 
L 198.168029 89.717086 
L 198.355677 90.337672 
L 198.543324 90.355433 
L 198.637147 90.308693 
L 198.824794 89.712351 
L 199.106265 88.597487 
L 199.293912 88.603575 
L 199.669206 89.762754 
L 199.950677 90.781973 
L 200.232148 90.591598 
L 200.513618 89.643744 
L 200.607442 89.813837 
L 200.795089 90.019572 
L 201.264207 91.483305 
L 201.358031 91.437156 
L 201.545678 91.133738 
L 201.827148 89.550236 
L 201.920972 89.735774 
L 202.108619 89.993219 
L 202.577737 91.394938 
L 202.765384 91.11905 
L 202.953031 90.114087 
L 203.046855 89.404119 
L 203.422149 90.106566 
L 203.797443 91.296806 
L 203.98509 91.175374 
L 204.172737 90.270309 
L 204.360385 89.01642 
L 204.735679 89.968971 
L 205.017149 91.177631 
L 205.29862 91.26398 
L 205.486267 90.377852 
L 205.673914 89.438087 
L 206.049209 90.470893 
L 206.330679 91.529599 
L 206.61215 91.674573 
L 206.799797 91.000169 
L 206.893621 90.546361 
L 207.362739 91.40454 
L 207.550386 91.935865 
L 207.92568 91.993462 
L 208.113327 91.285772 
L 208.207151 90.771977 
L 208.394798 90.883132 
L 208.488621 90.938756 
L 208.676268 91.581813 
L 208.863916 92.158882 
L 209.23921 92.049007 
L 209.708328 90.7348 
L 210.271269 91.116009 
L 210.740387 91.129887 
L 211.960093 90.887315 
L 212.523034 91.21608 
L 213.273623 91.628418 
L 214.399506 91.860582 
L 215.525388 92.092791 
L 216.463624 91.923531 
L 217.214213 91.902501 
L 220.685684 92.204225 
L 220.779508 92.190926 
L 220.873331 92.037109 
L 221.248626 92.839996 
L 221.530096 93.842406 
L 221.811567 93.728915 
L 221.999214 93.067242 
L 222.093038 92.461697 
L 222.186861 92.500863 
L 222.374508 92.43645 
L 222.562156 93.117615 
L 222.749803 93.899491 
L 223.031273 93.875841 
L 223.125097 93.774182 
L 223.312744 92.860919 
L 223.500391 92.248419 
L 223.688038 92.224306 
L 223.875685 93.086396 
L 224.063333 93.896538 
L 224.344803 93.90458 
L 224.438627 93.747231 
L 224.720098 92.702346 
L 224.907745 92.579387 
L 225.095392 93.207959 
L 225.283039 94.042818 
L 225.56451 94.085035 
L 225.658333 94.026811 
L 225.84598 93.114909 
L 226.033627 92.46569 
L 226.221275 92.404283 
L 226.408922 93.197668 
L 226.596569 94.054471 
L 226.878039 94.093815 
L 226.971863 93.956629 
L 227.440981 92.229012 
L 227.534804 92.308617 
L 227.722452 93.259474 
L 227.910099 94.110153 
L 228.191569 94.104943 
L 228.379216 93.349523 
L 228.566864 92.694026 
L 228.754511 92.597089 
L 228.942158 93.323571 
L 229.129805 94.242415 
L 229.411276 94.313622 
L 229.505099 94.200753 
L 229.974217 92.399034 
L 230.068041 92.447992 
L 230.255688 93.332204 
L 230.443335 94.245906 
L 230.724806 94.266931 
L 230.818629 94.063649 
L 231.193923 91.926141 
L 231.287747 91.981349 
L 231.38157 92.010822 
L 231.475394 92.210948 
L 231.850688 94.145555 
L 231.944512 94.114265 
L 232.132159 94.055748 
L 232.319806 93.216984 
L 232.507453 92.531849 
L 232.6951 92.496175 
L 232.882747 93.31779 
L 233.070395 94.238826 
L 233.351865 94.265024 
L 233.445689 94.105709 
L 233.914807 92.149455 
L 234.00863 92.232615 
L 234.196277 93.204907 
L 234.383924 94.136425 
L 234.665395 94.178498 
L 234.759219 93.919953 
L 235.134513 91.605729 
L 235.415984 92.012007 
L 235.885101 94.014143 
L 236.072749 93.965056 
L 236.260396 92.918894 
L 236.354219 92.186737 
L 236.448043 92.215179 
L 236.541866 92.186473 
L 236.63569 92.28374 
L 236.823337 93.226663 
L 237.010984 94.181431 
L 237.292455 94.280668 
L 237.386278 94.056222 
L 237.667749 91.984707 
L 237.761573 92.015299 
L 237.855396 91.99682 
L 237.94922 92.133549 
L 238.512161 94.272613 
L 238.605985 94.269545 
L 238.793632 93.238928 
L 239.075103 91.754014 
L 239.168926 91.526186 
L 239.450397 92.165362 
L 239.825691 94.145478 
L 240.107162 94.043283 
L 240.294809 92.964754 
L 240.388632 92.228804 
L 240.482456 92.270338 
L 240.57628 92.253546 
L 240.670103 92.368859 
L 240.85775 93.360415 
L 241.045397 94.294737 
L 241.326868 94.371439 
L 241.420692 94.115572 
L 241.702162 91.962772 
L 241.795986 91.990096 
L 241.889809 91.974546 
L 241.983633 92.127743 
L 242.546574 94.308912 
L 242.640398 94.293935 
L 242.828045 93.190924 
L 243.109516 91.568635 
L 243.203339 91.312117 
L 243.48481 92.045015 
L 243.860104 94.051531 
L 244.047751 94.074472 
L 244.141575 93.938602 
L 244.423046 91.904842 
L 244.610693 92.019454 
L 244.704516 92.195546 
L 245.267458 94.273358 
L 245.361281 94.303231 
L 245.548928 93.213986 
L 245.736576 91.662921 
L 246.018046 92.048533 
L 246.487164 94.260624 
L 246.674811 94.294772 
L 247.237753 91.33117 
L 247.519223 92.164898 
L 247.894517 94.201492 
L 248.082165 94.265954 
L 248.175988 94.08017 
L 248.457459 92.030534 
L 248.551282 92.138714 
L 248.645106 92.207845 
L 248.832753 92.878661 
L 249.114224 94.42413 
L 249.395694 94.597003 
L 249.583342 93.425537 
L 249.770989 91.930577 
L 250.052459 92.343261 
L 250.521577 94.556088 
L 250.709224 94.606549 
L 250.990695 92.455322 
L 251.178342 92.554437 
L 251.272166 92.714439 
L 251.835107 94.816781 
L 251.928931 94.89608 
L 252.022754 94.598881 
L 252.304225 92.206037 
L 252.398048 92.297387 
L 252.491872 92.361988 
L 252.679519 93.068954 
L 252.96099 94.663622 
L 253.242461 94.835085 
L 253.430108 93.534925 
L 253.617755 91.984769 
L 253.899225 92.538455 
L 254.368343 94.735956 
L 254.462167 94.846736 
L 254.55599 94.733314 
L 254.837461 92.391055 
L 254.931285 92.507634 
L 255.118932 92.834097 
L 255.58805 94.937186 
L 255.775697 95.111261 
L 255.963344 93.852701 
L 256.150991 92.256749 
L 256.432462 92.85314 
L 256.901579 95.03435 
L 257.089227 95.123365 
L 257.558344 92.047099 
L 257.839815 92.920912 
L 258.215109 94.99122 
L 258.402756 95.171847 
L 258.49658 94.955556 
L 258.778051 92.680488 
L 258.871874 92.854304 
L 259.059521 93.289507 
L 259.528639 95.356753 
L 259.716286 95.550449 
L 259.903933 94.183533 
L 260.091581 92.630092 
L 260.373051 93.297832 
L 260.842169 95.49527 
L 260.935993 95.648782 
L 261.029816 95.572482 
L 261.498934 92.391549 
L 261.780405 93.325159 
L 262.155699 95.4031 
L 262.343346 95.59804 
L 262.43717 95.334791 
L 262.71864 92.963653 
L 262.812464 93.16497 
L 263.000111 93.679114 
L 263.469229 95.764518 
L 263.656876 95.943972 
L 263.844523 94.42721 
L 264.03217 92.871119 
L 264.313641 93.72246 
L 264.688935 95.807192 
L 264.876582 96.111166 
L 264.970406 95.949187 
L 265.439524 92.945402 
L 265.533347 92.769684 
L 265.908641 94.625422 
L 266.190112 95.949277 
L 266.377759 96.08285 
L 266.565406 94.876377 
L 266.753054 93.322177 
L 267.034524 94.229508 
L 267.409818 96.161411 
L 267.691289 96.437077 
L 268.066583 93.278015 
L 268.160407 93.572737 
L 268.348054 94.297115 
L 268.723348 96.347816 
L 268.910995 96.704568 
L 269.004819 96.472659 
L 269.380113 93.492677 
L 269.56776 93.485979 
L 269.943055 93.768986 
L 272.007173 94.21986 
L 274.352762 95.016756 
L 274.446586 94.773974 
L 275.197174 97.962501 
L 275.290998 98.068582 
L 275.384821 97.672075 
L 275.666292 95.180642 
L 276.041586 96.777015 
L 276.323057 97.870226 
L 276.604528 98.34715 
L 276.979822 95.122278 
L 277.824234 98.772619 
L 277.918057 98.471383 
L 278.293352 95.362735 
L 278.480999 95.514238 
L 278.762469 95.756101 
L 279.137764 95.833984 
L 279.606882 95.944452 
L 280.169823 96.125138 
L 283.641295 97.640794 
L 283.735118 97.349612 
L 284.29806 100.213697 
L 284.57953 100.907415 
L 284.767177 99.258429 
L 284.954825 97.683956 
L 285.61159 100.576276 
L 285.799237 101.310841 
L 285.89306 101.193763 
L 286.268354 97.683403 
L 286.831296 100.789978 
L 287.018943 101.427093 
L 287.112767 101.781379 
L 287.20659 101.278739 
L 287.488061 98.119233 
L 287.581884 98.01186 
L 287.957179 98.500972 
L 288.332473 98.531006 
L 288.801591 98.767739 
L 289.270708 98.89584 
L 292.554533 100.617513 
L 293.586592 101.019823 
L 293.680416 100.668229 
L 294.149534 103.430157 
L 294.337181 103.879395 
L 294.524828 104.517197 
L 294.900122 100.901056 
L 295.36924 103.78911 
L 295.556887 103.953521 
L 295.744534 104.995136 
L 295.838358 104.734474 
L 296.213652 100.923081 
L 296.68277 104.123393 
L 296.776593 104.203244 
L 296.870417 104.460351 
L 297.058064 105.496969 
L 297.245711 103.201017 
L 297.433358 101.370923 
L 297.527182 101.370554 
L 297.902476 102.04641 
L 298.183947 102.041167 
L 298.746888 102.518911 
L 299.30983 102.69344 
L 303.156596 104.947219 
L 304.376302 105.444374 
L 305.314538 106.078818 
L 306.815715 107.146804 
L 307.75395 107.469044 
L 308.973657 107.903273 
L 312.351305 109.746982 
L 315.259835 111.495715 
L 316.948659 112.137425 
L 317.042483 111.666877 
L 317.417777 114.627868 
L 317.605424 114.395711 
L 317.886895 115.884668 
L 318.262189 111.736445 
L 318.637483 115.320674 
L 318.825131 114.710104 
L 318.918954 114.792024 
L 319.106601 116.334832 
L 319.200425 115.891879 
L 319.481896 112.021707 
L 319.575719 111.715796 
L 319.951013 115.54328 
L 320.13866 115.075107 
L 320.232484 115.340878 
L 320.420131 116.754195 
L 320.795425 111.971414 
L 320.889249 112.108992 
L 321.17072 112.860572 
L 321.358367 112.693912 
L 321.546014 112.605785 
L 322.108955 113.050454 
L 322.48425 113.012388 
L 322.578073 113.057724 
L 322.671897 112.609057 
L 323.047191 116.004515 
L 323.234838 115.923405 
L 323.516309 117.141973 
L 323.891603 112.948817 
L 324.266897 116.828094 
L 324.454544 116.332895 
L 324.548368 116.482492 
L 324.736015 117.923513 
L 324.829839 117.103208 
L 325.111309 113.390703 
L 325.205133 113.205717 
L 325.580427 117.219848 
L 325.768074 116.883315 
L 325.861898 117.243462 
L 326.049545 118.534301 
L 326.424839 113.756424 
L 326.893957 114.674146 
L 327.081604 114.514437 
L 327.269251 114.714254 
L 327.550722 115.092901 
L 327.644545 115.111011 
L 328.01984 117.943849 
L 328.207487 117.749193 
L 328.30131 118.023506 
L 328.488958 119.151887 
L 328.582781 118.471352 
L 328.864252 115.085764 
L 328.958075 114.721507 
L 329.33337 118.527644 
L 329.521017 118.070893 
L 329.61484 118.296125 
L 329.802487 119.49485 
L 330.271605 114.499361 
L 330.646899 118.538135 
L 330.834547 118.182252 
L 330.92837 118.547155 
L 331.116017 119.49064 
L 331.491312 114.66948 
L 331.866606 115.619025 
L 332.2419 118.711327 
L 332.429547 118.761026 
L 332.711018 119.909205 
L 333.180136 115.58042 
L 333.55543 119.409131 
L 333.743077 119.142473 
L 333.836901 119.434992 
L 334.024548 120.373881 
L 334.399842 115.801439 
L 334.775136 117.035447 
L 334.86896 116.981475 
L 335.15043 116.706283 
L 336.088666 117.348592 
L 336.839255 117.749129 
L 337.308372 118.021465 
L 338.246608 118.987183 
L 338.528079 121.356469 
L 338.621902 121.483721 
L 338.809549 121.12597 
L 338.903373 121.367265 
L 339.09102 122.729865 
L 339.184844 122.447578 
L 339.466314 119.327823 
L 339.560138 119.002341 
L 339.935432 122.378815 
L 340.123079 121.722704 
L 340.216903 121.883968 
L 340.40455 123.267212 
L 340.498374 122.581582 
L 340.779844 119.011185 
L 340.967491 119.679223 
L 341.155138 120.144188 
L 341.342786 119.815363 
L 341.530433 119.502752 
L 341.71808 119.617809 
L 342.093374 119.905417 
L 342.562492 120.05078 
L 344.251316 121.467164 
L 344.532787 123.474255 
L 344.62661 123.606944 
L 344.814257 123.342601 
L 344.908081 123.532135 
L 345.095728 124.749278 
L 345.189552 124.692418 
L 345.564846 121.498081 
L 345.94014 124.634469 
L 346.127787 124.096625 
L 346.221611 124.167791 
L 346.409258 125.425051 
L 346.503082 125.131571 
L 346.784552 121.731364 
L 346.878376 121.928156 
L 347.159846 123.107686 
L 347.25367 123.093821 
L 347.628964 122.62336 
L 348.098082 122.998487 
L 348.754847 122.996747 
L 350.1622 123.483953 
L 350.818965 124.059409 
L 351.100436 125.802513 
L 351.19426 125.964035 
L 351.381907 125.825865 
L 351.47573 125.977303 
L 351.757201 127.054848 
L 352.132495 124.010958 
L 352.50779 126.893708 
L 352.78926 126.565288 
L 352.976907 127.632778 
L 353.070731 127.598174 
L 353.352202 124.285077 
L 353.539849 124.438167 
L 353.915143 127.134872 
L 354.10279 126.918984 
L 354.196614 127.144008 
L 354.384261 128.092725 
L 354.478084 127.472721 
L 354.759555 124.349306 
L 355.228673 127.524749 
L 355.41632 127.257054 
L 355.697791 128.213065 
L 356.073085 124.213174 
L 356.542203 127.558092 
L 356.72985 127.42278 
L 356.917497 128.332153 
L 357.011321 128.082058 
L 357.292791 124.625729 
L 357.386615 124.657986 
L 357.668085 125.662643 
L 357.761909 125.658799 
L 358.137203 127.539973 
L 358.418674 127.831081 
L 358.606321 128.414878 
L 358.700145 128.205533 
L 359.075439 125.074758 
L 359.544557 127.969022 
L 359.732204 127.92853 
L 359.732204 127.92853 
" clip-path="url(#p461a11ecb9)" style="fill: none; stroke: #2ca02c; stroke-width: 1.5; stroke-linecap: square"/>
   </g>
   <g id="patch_3">
    <path d="M 40.150386 228.96 
L 40.150386 7.2 
" style="fill: none; stroke: #000000; stroke-width: 0.8; stroke-linejoin: miter; stroke-linecap: square"/>
   </g>
   <g id="patch_4">
    <path d="M 374.950386 228.96 
L 374.950386 7.2 
" style="fill: none; stroke: #000000; stroke-width: 0.8; stroke-linejoin: miter; stroke-linecap: square"/>
   </g>
   <g id="patch_5">
    <path d="M 40.150386 228.96 
L 374.950386 228.96 
" style="fill: none; stroke: #000000; stroke-width: 0.8; stroke-linejoin: miter; stroke-linecap: square"/>
   </g>
   <g id="patch_6">
    <path d="M 40.150386 7.2 
L 374.950386 7.2 
" style="fill: none; stroke: #000000; stroke-width: 0.8; stroke-linejoin: miter; stroke-linecap: square"/>
   </g>
   <g id="legend_1">
    <g id="patch_7">
     <path d="M 323.445187 57.86092 
L 367.950386 57.86092 
Q 369.950386 57.86092 369.950386 55.86092 
L 369.950386 14.2 
Q 369.950386 12.2 367.950386 12.2 
L 323.445187 12.2 
Q 321.445187 12.2 321.445187 14.2 
L 321.445187 55.86092 
Q 321.445187 57.86092 323.445187 57.86092 
z
" style="fill: #ffffff; opacity: 0.8; stroke: #cccccc; stroke-linejoin: miter"/>
    </g>
    <g id="line2d_16">
     <path d="M 325.445187 19.79832 
L 335.445187 19.79832 
L 345.445187 19.79832 
" style="fill: none; stroke: #1f77b4; stroke-width: 1.5; stroke-linecap: square"/>
    </g>
    <g id="text_15">
     <!-- $\rho$ -->
     <g transform="translate(353.445187 23.29832) scale(0.1 -0.1)">
      <defs>
       <path id="CMMI12-1a" d="M 198 -1085 
C 192 -1116 179 -1154 179 -1191 
C 179 -1287 256 -1351 352 -1351 
C 448 -1351 538 -1287 576 -1198 
C 602 -1141 781 -390 986 389 
C 1114 70 1350 -64 1600 -64 
C 2323 -64 3142 830 3142 1794 
C 3142 2477 2726 2816 2285 2816 
C 1722 2816 1037 2234 826 1385 
L 198 -1085 
z
M 1594 64 
C 1158 64 1050 568 1050 645 
C 1050 683 1210 1289 1229 1385 
C 1555 2656 2182 2687 2278 2687 
C 2566 2687 2726 2426 2726 2049 
C 2726 1724 2554 1091 2445 823 
C 2253 383 1920 64 1594 64 
z
" transform="scale(0.015625)"/>
      </defs>
      <use xlink:href="#CMMI12-1a" transform="scale(0.996264)"/>
     </g>
    </g>
    <g id="line2d_17">
     <path d="M 325.445187 34.018627 
L 335.445187 34.018627 
L 345.445187 34.018627 
" style="fill: none; stroke: #ff7f0e; stroke-width: 1.5; stroke-linecap: square"/>
    </g>
    <g id="text_16">
     <!-- $\rho u$ -->
     <g transform="translate(353.445187 37.518627) scale(0.1 -0.1)">
      <defs>
       <path id="CMMI12-75" d="M 2182 370 
C 2266 12 2573 -64 2726 -64 
C 2931 -64 3085 70 3187 287 
C 3296 517 3379 893 3379 913 
C 3379 944 3354 970 3315 970 
C 3258 970 3251 938 3226 842 
C 3110 402 2995 64 2739 64 
C 2547 64 2547 274 2547 357 
C 2547 504 2566 568 2630 836 
C 2675 1008 2720 1181 2758 1359 
L 3021 2400 
C 3066 2560 3066 2572 3066 2591 
C 3066 2687 2989 2752 2893 2752 
C 2707 2752 2662 2591 2624 2432 
C 2560 2183 2214 810 2170 587 
C 2163 587 1914 64 1446 64 
C 1114 64 1050 351 1050 587 
C 1050 951 1229 1462 1395 1890 
C 1472 2094 1504 2177 1504 2305 
C 1504 2579 1306 2816 998 2816 
C 410 2816 173 1890 173 1838 
C 173 1813 198 1781 243 1781 
C 301 1781 307 1807 333 1896 
C 486 2445 736 2687 979 2687 
C 1043 2687 1146 2681 1146 2477 
C 1146 2311 1075 2126 979 1883 
C 698 1123 666 881 666 689 
C 666 38 1158 -64 1421 -64 
C 1830 -64 2054 217 2182 370 
z
" transform="scale(0.015625)"/>
      </defs>
      <use xlink:href="#CMMI12-1a" transform="scale(0.996264)"/>
      <use xlink:href="#CMMI12-75" transform="translate(50.314373 0) scale(0.996264)"/>
     </g>
    </g>
    <g id="line2d_18">
     <path d="M 325.445187 48.238934 
L 335.445187 48.238934 
L 345.445187 48.238934 
" style="fill: none; stroke: #2ca02c; stroke-width: 1.5; stroke-linecap: square"/>
    </g>
    <g id="text_17">
     <!-- $\rho E$ -->
     <g transform="translate(353.445187 51.738934) scale(0.1 -0.1)">
      <defs>
       <path id="CMMI12-45" d="M 4448 1489 
C 4454 1508 4474 1553 4474 1578 
C 4474 1611 4448 1643 4410 1643 
C 4384 1643 4371 1636 4352 1617 
C 4339 1611 4339 1598 4282 1469 
C 3904 570 3629 185 2605 185 
L 1670 185 
C 1581 185 1568 185 1530 192 
C 1459 198 1453 211 1453 262 
C 1453 307 1466 346 1478 403 
L 1920 2176 
L 2554 2176 
C 3053 2176 3091 2066 3091 1874 
C 3091 1810 3091 1752 3046 1559 
C 3034 1534 3027 1508 3027 1489 
C 3027 1444 3059 1424 3098 1424 
C 3155 1424 3162 1469 3187 1559 
L 3552 3036 
C 3552 3068 3526 3099 3488 3099 
C 3430 3099 3424 3074 3398 2986 
C 3270 2500 3142 2361 2573 2361 
L 1965 2361 
L 2362 3913 
C 2419 4134 2432 4153 2694 4153 
L 3610 4153 
C 4397 4153 4557 3945 4557 3465 
C 4557 3459 4557 3282 4531 3074 
C 4525 3049 4518 3011 4518 2998 
C 4518 2948 4550 2929 4589 2929 
C 4634 2929 4659 2954 4672 3068 
L 4806 4172 
C 4806 4191 4819 4255 4819 4268 
C 4819 4339 4762 4339 4646 4339 
L 1523 4339 
C 1402 4339 1338 4339 1338 4223 
C 1338 4153 1382 4153 1491 4153 
C 1888 4153 1888 4109 1888 4039 
C 1888 4008 1882 3983 1862 3913 
L 998 474 
C 941 249 928 185 480 185 
C 358 185 294 185 294 70 
C 294 0 333 0 461 0 
L 3674 0 
C 3814 0 3821 6 3866 108 
L 4448 1489 
z
" transform="scale(0.015625)"/>
      </defs>
      <use xlink:href="#CMMI12-1a" transform="scale(0.996264)"/>
      <use xlink:href="#CMMI12-45" transform="translate(50.314373 0) scale(0.996264)"/>
     </g>
    </g>
   </g>
  </g>
 </g>
 <defs>
  <clipPath id="p461a11ecb9">
   <rect x="40.150386" y="7.2" width="334.8" height="221.76"/>
  </clipPath>
 </defs>
</svg>
