<?xml version="1.0" encoding="utf-8" standalone="no"?>
<!DOCTYPE svg PUBLIC "-//W3C//DTD SVG 1.1//EN"
  "http://www.w3.org/Graphics/SVG/1.1/DTD/svg11.dtd">
<svg xmlns:xlink="http://www.w3.org/1999/xlink" width="382.334753pt" height="265.600613pt" viewBox="0 0 382.334753 265.600613" xmlns="http://www.w3.org/2000/svg" version="1.1">
 <metadata>
  <rdf:RDF xmlns:dc="http://purl.org/dc/elements/1.1/" xmlns:cc="http://creativecommons.org/ns#" xmlns:rdf="http://www.w3.org/1999/02/22-rdf-syntax-ns#">
   <cc:Work>
    <dc:type rdf:resource="http://purl.org/dc/dcmitype/StillImage"/>
    <dc:date>2025-07-16T22:11:42.416373</dc:date>
    <dc:format>image/svg+xml</dc:format>
    <dc:creator>
     <cc:Agent>
      <dc:title>Matplotlib v3.10.3, https://matplotlib.org/</dc:title>
     </cc:Agent>
    </dc:creator>
   </cc:Work>
  </rdf:RDF>
 </metadata>
 <defs>
  <style type="text/css">*{stroke-linejoin: round; stroke-linecap: butt}</style>
 </defs>
 <g id="figure_1">
  <g id="patch_1">
   <path d="M 0 265.600613 
L 382.334753 265.600613 
L 382.334753 0 
L 0 0 
z
" style="fill: #ffffff"/>
  </g>
  <g id="axes_1">
   <g id="patch_2">
    <path d="M 40.334753 228.96 
L 375.134753 228.96 
L 375.134753 7.2 
L 40.334753 7.2 
z
" style="fill: #ffffff"/>
   </g>
   <g id="matplotlib.axis_1">
    <g id="xtick_1">
     <g id="line2d_1">
      <defs>
       <path id="m3a06558433" d="M 0 0 
L 0 3.5 
" style="stroke: #000000; stroke-width: 0.8"/>
      </defs>
      <g>
       <use xlink:href="#m3a06558433" x="55.552935" y="228.96" style="stroke: #000000; stroke-width: 0.8"/>
      </g>
     </g>
     <g id="text_1">
      <!-- $\mathdefault{0}$ -->
      <g transform="translate(53.062267 243.05832) scale(0.1 -0.1)">
       <defs>
        <path id="CMR17-30" d="M 2688 2038 
C 2688 2430 2682 3099 2413 3613 
C 2176 4063 1798 4224 1466 4224 
C 1158 4224 768 4082 525 3620 
C 269 3137 243 2539 243 2038 
C 243 1671 250 1112 448 623 
C 723 -39 1216 -128 1466 -128 
C 1760 -128 2208 -7 2470 604 
C 2662 1048 2688 1568 2688 2038 
z
M 1466 -26 
C 1056 -26 813 328 723 816 
C 653 1196 653 1749 653 2109 
C 653 2604 653 3015 736 3407 
C 858 3954 1216 4121 1466 4121 
C 1728 4121 2067 3947 2189 3420 
C 2272 3054 2278 2623 2278 2109 
C 2278 1691 2278 1176 2202 797 
C 2067 96 1690 -26 1466 -26 
z
" transform="scale(0.015625)"/>
       </defs>
       <use xlink:href="#CMR17-30" transform="scale(0.996264)"/>
      </g>
     </g>
    </g>
    <g id="xtick_2">
     <g id="line2d_2">
      <g>
       <use xlink:href="#m3a06558433" x="97.990698" y="228.96" style="stroke: #000000; stroke-width: 0.8"/>
      </g>
     </g>
     <g id="text_2">
      <!-- $\mathdefault{500}$ -->
      <g transform="translate(90.518695 243.05832) scale(0.1 -0.1)">
       <defs>
        <path id="CMR17-35" d="M 730 3750 
C 794 3724 1056 3641 1325 3641 
C 1920 3641 2246 3961 2432 4140 
C 2432 4191 2432 4224 2394 4224 
C 2387 4224 2374 4224 2323 4198 
C 2099 4102 1837 4032 1517 4032 
C 1325 4032 1037 4055 723 4191 
C 653 4224 640 4224 634 4224 
C 602 4224 595 4217 595 4090 
L 595 2231 
C 595 2113 595 2080 659 2080 
C 691 2080 704 2093 736 2139 
C 941 2435 1222 2560 1542 2560 
C 1766 2560 2246 2415 2246 1293 
C 2246 1087 2246 716 2054 422 
C 1894 159 1645 25 1370 25 
C 947 25 518 319 403 812 
C 429 806 480 793 506 793 
C 589 793 749 838 749 1036 
C 749 1209 627 1280 506 1280 
C 358 1280 262 1190 262 1011 
C 262 454 704 -128 1382 -128 
C 2042 -128 2669 441 2669 1267 
C 2669 2054 2170 2662 1549 2662 
C 1222 2662 947 2540 730 2304 
L 730 3750 
z
" transform="scale(0.015625)"/>
       </defs>
       <use xlink:href="#CMR17-35" transform="scale(0.996264)"/>
       <use xlink:href="#CMR17-30" transform="translate(45.690477 0) scale(0.996264)"/>
       <use xlink:href="#CMR17-30" transform="translate(91.380954 0) scale(0.996264)"/>
      </g>
     </g>
    </g>
    <g id="xtick_3">
     <g id="line2d_3">
      <g>
       <use xlink:href="#m3a06558433" x="140.428461" y="228.96" style="stroke: #000000; stroke-width: 0.8"/>
      </g>
     </g>
     <g id="text_3">
      <!-- $\mathdefault{1000}$ -->
      <g transform="translate(130.46579 243.05832) scale(0.1 -0.1)">
       <defs>
        <path id="CMR17-31" d="M 1702 4083 
C 1702 4217 1696 4224 1606 4224 
C 1357 3927 979 3833 621 3820 
C 602 3820 570 3820 563 3808 
C 557 3795 557 3782 557 3648 
C 755 3648 1088 3686 1344 3839 
L 1344 467 
C 1344 243 1331 166 781 166 
L 589 166 
L 589 0 
C 896 6 1216 12 1523 12 
C 1830 12 2150 6 2458 0 
L 2458 166 
L 2266 166 
C 1715 166 1702 236 1702 467 
L 1702 4083 
z
" transform="scale(0.015625)"/>
       </defs>
       <use xlink:href="#CMR17-31" transform="scale(0.996264)"/>
       <use xlink:href="#CMR17-30" transform="translate(45.690477 0) scale(0.996264)"/>
       <use xlink:href="#CMR17-30" transform="translate(91.380954 0) scale(0.996264)"/>
       <use xlink:href="#CMR17-30" transform="translate(137.071431 0) scale(0.996264)"/>
      </g>
     </g>
    </g>
    <g id="xtick_4">
     <g id="line2d_4">
      <g>
       <use xlink:href="#m3a06558433" x="182.866224" y="228.96" style="stroke: #000000; stroke-width: 0.8"/>
      </g>
     </g>
     <g id="text_4">
      <!-- $\mathdefault{1500}$ -->
      <g transform="translate(172.903553 243.05832) scale(0.1 -0.1)">
       <use xlink:href="#CMR17-31" transform="scale(0.996264)"/>
       <use xlink:href="#CMR17-35" transform="translate(45.690477 0) scale(0.996264)"/>
       <use xlink:href="#CMR17-30" transform="translate(91.380954 0) scale(0.996264)"/>
       <use xlink:href="#CMR17-30" transform="translate(137.071431 0) scale(0.996264)"/>
      </g>
     </g>
    </g>
    <g id="xtick_5">
     <g id="line2d_5">
      <g>
       <use xlink:href="#m3a06558433" x="225.303987" y="228.96" style="stroke: #000000; stroke-width: 0.8"/>
      </g>
     </g>
     <g id="text_5">
      <!-- $\mathdefault{2000}$ -->
      <g transform="translate(215.341316 243.05832) scale(0.1 -0.1)">
       <defs>
        <path id="CMR17-32" d="M 2669 990 
L 2554 990 
C 2490 537 2438 460 2413 422 
C 2381 371 1920 371 1830 371 
L 602 371 
C 832 620 1280 1073 1824 1596 
C 2214 1966 2669 2400 2669 3033 
C 2669 3788 2067 4224 1395 4224 
C 691 4224 262 3603 262 3027 
C 262 2777 448 2745 525 2745 
C 589 2745 781 2783 781 3007 
C 781 3206 614 3264 525 3264 
C 486 3264 448 3257 422 3244 
C 544 3788 915 4057 1306 4057 
C 1862 4057 2227 3616 2227 3033 
C 2227 2477 1901 1998 1536 1583 
L 262 147 
L 262 0 
L 2515 0 
L 2669 990 
z
" transform="scale(0.015625)"/>
       </defs>
       <use xlink:href="#CMR17-32" transform="scale(0.996264)"/>
       <use xlink:href="#CMR17-30" transform="translate(45.690477 0) scale(0.996264)"/>
       <use xlink:href="#CMR17-30" transform="translate(91.380954 0) scale(0.996264)"/>
       <use xlink:href="#CMR17-30" transform="translate(137.071431 0) scale(0.996264)"/>
      </g>
     </g>
    </g>
    <g id="xtick_6">
     <g id="line2d_6">
      <g>
       <use xlink:href="#m3a06558433" x="267.74175" y="228.96" style="stroke: #000000; stroke-width: 0.8"/>
      </g>
     </g>
     <g id="text_6">
      <!-- $\mathdefault{2500}$ -->
      <g transform="translate(257.779079 243.05832) scale(0.1 -0.1)">
       <use xlink:href="#CMR17-32" transform="scale(0.996264)"/>
       <use xlink:href="#CMR17-35" transform="translate(45.690477 0) scale(0.996264)"/>
       <use xlink:href="#CMR17-30" transform="translate(91.380954 0) scale(0.996264)"/>
       <use xlink:href="#CMR17-30" transform="translate(137.071431 0) scale(0.996264)"/>
      </g>
     </g>
    </g>
    <g id="xtick_7">
     <g id="line2d_7">
      <g>
       <use xlink:href="#m3a06558433" x="310.179513" y="228.96" style="stroke: #000000; stroke-width: 0.8"/>
      </g>
     </g>
     <g id="text_7">
      <!-- $\mathdefault{3000}$ -->
      <g transform="translate(300.216842 243.05832) scale(0.1 -0.1)">
       <defs>
        <path id="CMR17-33" d="M 1414 2176 
C 1984 2176 2234 1673 2234 1094 
C 2234 322 1824 25 1453 25 
C 1114 25 563 193 390 691 
C 422 678 454 678 486 678 
C 640 678 755 780 755 947 
C 755 1132 614 1216 486 1216 
C 378 1216 211 1164 211 927 
C 211 335 787 -128 1466 -128 
C 2176 -128 2720 432 2720 1087 
C 2720 1718 2208 2176 1600 2246 
C 2086 2347 2554 2776 2554 3353 
C 2554 3856 2048 4224 1472 4224 
C 890 4224 378 3862 378 3347 
C 378 3123 544 3084 627 3084 
C 762 3084 877 3167 877 3334 
C 877 3500 762 3584 627 3584 
C 602 3584 570 3584 544 3571 
C 730 3999 1235 4076 1459 4076 
C 1683 4076 2106 3966 2106 3347 
C 2106 3167 2080 2851 1862 2574 
C 1670 2329 1453 2316 1242 2297 
C 1210 2297 1062 2284 1037 2284 
C 992 2278 966 2272 966 2227 
C 966 2182 973 2176 1101 2176 
L 1414 2176 
z
" transform="scale(0.015625)"/>
       </defs>
       <use xlink:href="#CMR17-33" transform="scale(0.996264)"/>
       <use xlink:href="#CMR17-30" transform="translate(45.690477 0) scale(0.996264)"/>
       <use xlink:href="#CMR17-30" transform="translate(91.380954 0) scale(0.996264)"/>
       <use xlink:href="#CMR17-30" transform="translate(137.071431 0) scale(0.996264)"/>
      </g>
     </g>
    </g>
    <g id="xtick_8">
     <g id="line2d_8">
      <g>
       <use xlink:href="#m3a06558433" x="352.617276" y="228.96" style="stroke: #000000; stroke-width: 0.8"/>
      </g>
     </g>
     <g id="text_8">
      <!-- $\mathdefault{3500}$ -->
      <g transform="translate(342.654605 243.05832) scale(0.1 -0.1)">
       <use xlink:href="#CMR17-33" transform="scale(0.996264)"/>
       <use xlink:href="#CMR17-35" transform="translate(45.690477 0) scale(0.996264)"/>
       <use xlink:href="#CMR17-30" transform="translate(91.380954 0) scale(0.996264)"/>
       <use xlink:href="#CMR17-30" transform="translate(137.071431 0) scale(0.996264)"/>
      </g>
     </g>
    </g>
    <g id="text_9">
     <!-- Iteration -->
     <g transform="translate(189.787377 256.278627) scale(0.1 -0.1)">
      <defs>
       <path id="NimbusSanL-Regu-49" d="M 1242 4672 
L 640 4672 
L 640 0 
L 1242 0 
L 1242 4672 
z
" transform="scale(0.015625)"/>
       <path id="NimbusSanL-Regu-74" d="M 1626 3328 
L 1075 3328 
L 1075 4249 
L 544 4249 
L 544 3328 
L 90 3328 
L 90 2892 
L 544 2892 
L 544 402 
C 544 64 774 -128 1190 -128 
C 1318 -128 1446 -116 1626 -84 
L 1626 364 
C 1555 345 1472 339 1370 339 
C 1139 339 1075 402 1075 634 
L 1075 2892 
L 1626 2892 
L 1626 3328 
z
" transform="scale(0.015625)"/>
       <path id="NimbusSanL-Regu-65" d="M 3283 1484 
C 3283 1998 3245 2311 3149 2565 
C 2931 3123 2419 3456 1792 3456 
C 858 3456 256 2734 256 1619 
C 256 545 838 -128 1779 -128 
C 2547 -128 3078 307 3213 1018 
L 2675 1018 
C 2528 588 2227 364 1798 364 
C 1459 364 1171 514 992 787 
C 864 974 819 1161 813 1484 
L 3283 1484 
z
M 826 1920 
C 870 2552 1248 2963 1786 2963 
C 2310 2963 2714 2519 2714 1959 
C 2714 1946 2714 1933 2707 1920 
L 826 1920 
z
" transform="scale(0.015625)"/>
       <path id="NimbusSanL-Regu-72" d="M 442 3328 
L 442 0 
L 979 0 
L 979 1727 
C 979 2203 1101 2514 1357 2698 
C 1523 2819 1683 2857 2054 2863 
L 2054 3404 
C 1965 3449 1920 3456 1850 3456 
C 1504 3456 1242 3251 934 2750 
L 934 3328 
L 442 3328 
z
" transform="scale(0.015625)"/>
       <path id="NimbusSanL-Regu-61" d="M 3424 332 
C 3366 320 3341 320 3309 320 
C 3123 320 3021 415 3021 581 
L 3021 2542 
C 3021 3135 2586 3456 1760 3456 
C 1274 3456 870 3315 646 3065 
C 493 2893 429 2702 416 2370 
L 954 2370 
C 998 2778 1242 2963 1741 2963 
C 2221 2963 2490 2784 2490 2466 
L 2490 2326 
C 2490 2103 2355 2007 1933 1956 
C 1178 1861 1062 1835 858 1753 
C 467 1593 269 1294 269 861 
C 269 256 691 -128 1370 -128 
C 1792 -128 2131 19 2509 364 
C 2547 25 2714 -128 3059 -128 
C 3168 -128 3251 -116 3424 -71 
L 3424 332 
z
M 2490 1071 
C 2490 893 2438 785 2278 638 
C 2061 441 1798 339 1485 339 
C 1069 339 826 536 826 874 
C 826 1224 1062 1402 1632 1485 
C 2195 1562 2310 1587 2490 1670 
L 2490 1071 
z
" transform="scale(0.015625)"/>
       <path id="NimbusSanL-Regu-69" d="M 960 3358 
L 429 3358 
L 429 0 
L 960 0 
L 960 3358 
z
M 960 4672 
L 422 4672 
L 422 3999 
L 960 3999 
L 960 4672 
z
" transform="scale(0.015625)"/>
       <path id="NimbusSanL-Regu-6f" d="M 1741 3456 
C 800 3456 230 2784 230 1663 
C 230 543 794 -128 1747 -128 
C 2688 -128 3264 543 3264 1638 
C 3264 2791 2707 3456 1741 3456 
z
M 1747 2963 
C 2349 2963 2707 2472 2707 1644 
C 2707 861 2336 364 1747 364 
C 1152 364 787 855 787 1663 
C 787 2466 1152 2963 1747 2963 
z
" transform="scale(0.015625)"/>
       <path id="NimbusSanL-Regu-6e" d="M 448 3328 
L 448 0 
L 986 0 
L 986 1835 
C 986 2539 1344 2988 1894 2988 
C 2317 2988 2586 2732 2586 2328 
L 2586 0 
L 3117 0 
L 3117 2539 
C 3117 3097 2701 3456 2054 3456 
C 1555 3456 1235 3263 941 2796 
L 941 3328 
L 448 3328 
z
" transform="scale(0.015625)"/>
      </defs>
      <use xlink:href="#NimbusSanL-Regu-49" transform="scale(0.996264)"/>
      <use xlink:href="#NimbusSanL-Regu-74" transform="translate(27.69517 0) scale(0.996264)"/>
      <use xlink:href="#NimbusSanL-Regu-65" transform="translate(55.390339 0) scale(0.996264)"/>
      <use xlink:href="#NimbusSanL-Regu-72" transform="translate(110.782016 0) scale(0.996264)"/>
      <use xlink:href="#NimbusSanL-Regu-61" transform="translate(142.961149 0) scale(0.996264)"/>
      <use xlink:href="#NimbusSanL-Regu-74" transform="translate(198.352826 0) scale(0.996264)"/>
      <use xlink:href="#NimbusSanL-Regu-69" transform="translate(226.047996 0) scale(0.996264)"/>
      <use xlink:href="#NimbusSanL-Regu-6f" transform="translate(248.16478 0) scale(0.996264)"/>
      <use xlink:href="#NimbusSanL-Regu-6e" transform="translate(303.556457 0) scale(0.996264)"/>
     </g>
    </g>
   </g>
   <g id="matplotlib.axis_2">
    <g id="ytick_1">
     <g id="line2d_9">
      <defs>
       <path id="m23f92250e8" d="M 0 0 
L -3.5 0 
" style="stroke: #000000; stroke-width: 0.8"/>
      </defs>
      <g>
       <use xlink:href="#m23f92250e8" x="40.334753" y="217.184482" style="stroke: #000000; stroke-width: 0.8"/>
      </g>
     </g>
     <g id="text_10">
      <!-- $\mathdefault{−2}$ -->
      <g transform="translate(20.604674 220.733642) scale(0.1 -0.1)">
       <defs>
        <path id="CMSY10-0" d="M 4218 1472 
C 4326 1472 4442 1472 4442 1600 
C 4442 1728 4326 1728 4218 1728 
L 755 1728 
C 646 1728 531 1728 531 1600 
C 531 1472 646 1472 755 1472 
L 4218 1472 
z
" transform="scale(0.015625)"/>
       </defs>
       <use xlink:href="#CMSY10-0" transform="scale(0.996264)"/>
       <use xlink:href="#CMR17-32" transform="translate(77.487468 0) scale(0.996264)"/>
      </g>
     </g>
    </g>
    <g id="ytick_2">
     <g id="line2d_10">
      <g>
       <use xlink:href="#m23f92250e8" x="40.334753" y="177.074576" style="stroke: #000000; stroke-width: 0.8"/>
      </g>
     </g>
     <g id="text_11">
      <!-- $\mathdefault{0}$ -->
      <g transform="translate(28.353418 180.623736) scale(0.1 -0.1)">
       <use xlink:href="#CMR17-30" transform="scale(0.996264)"/>
      </g>
     </g>
    </g>
    <g id="ytick_3">
     <g id="line2d_11">
      <g>
       <use xlink:href="#m23f92250e8" x="40.334753" y="136.964669" style="stroke: #000000; stroke-width: 0.8"/>
      </g>
     </g>
     <g id="text_12">
      <!-- $\mathdefault{2}$ -->
      <g transform="translate(28.353418 140.513829) scale(0.1 -0.1)">
       <use xlink:href="#CMR17-32" transform="scale(0.996264)"/>
      </g>
     </g>
    </g>
    <g id="ytick_4">
     <g id="line2d_12">
      <g>
       <use xlink:href="#m23f92250e8" x="40.334753" y="96.854763" style="stroke: #000000; stroke-width: 0.8"/>
      </g>
     </g>
     <g id="text_13">
      <!-- $\mathdefault{4}$ -->
      <g transform="translate(28.353418 100.403923) scale(0.1 -0.1)">
       <defs>
        <path id="CMR17-34" d="M 2150 4147 
C 2150 4281 2144 4288 2029 4288 
L 128 1254 
L 128 1088 
L 1779 1088 
L 1779 460 
C 1779 230 1766 166 1318 166 
L 1197 166 
L 1197 0 
C 1402 12 1747 12 1965 12 
C 2182 12 2528 12 2733 0 
L 2733 166 
L 2611 166 
C 2163 166 2150 230 2150 460 
L 2150 1088 
L 2803 1088 
L 2803 1254 
L 2150 1254 
L 2150 4147 
z
M 1798 3723 
L 1798 1254 
L 256 1254 
L 1798 3723 
z
" transform="scale(0.015625)"/>
       </defs>
       <use xlink:href="#CMR17-34" transform="scale(0.996264)"/>
      </g>
     </g>
    </g>
    <g id="ytick_5">
     <g id="line2d_13">
      <g>
       <use xlink:href="#m23f92250e8" x="40.334753" y="56.744856" style="stroke: #000000; stroke-width: 0.8"/>
      </g>
     </g>
     <g id="text_14">
      <!-- $\mathdefault{6}$ -->
      <g transform="translate(28.353418 60.294016) scale(0.1 -0.1)">
       <defs>
        <path id="CMR17-36" d="M 678 2198 
C 678 3712 1395 4076 1811 4076 
C 1946 4076 2272 4049 2400 3782 
C 2298 3782 2106 3782 2106 3558 
C 2106 3385 2246 3328 2336 3328 
C 2394 3328 2566 3353 2566 3571 
C 2566 3987 2246 4224 1805 4224 
C 1043 4224 243 3411 243 2011 
C 243 257 966 -128 1478 -128 
C 2099 -128 2688 431 2688 1295 
C 2688 2101 2170 2688 1517 2688 
C 1126 2688 838 2430 678 1979 
L 678 2198 
z
M 1478 25 
C 691 25 691 1212 691 1450 
C 691 1914 909 2585 1504 2585 
C 1613 2585 1926 2585 2138 2140 
C 2253 1889 2253 1624 2253 1302 
C 2253 954 2253 696 2118 438 
C 1978 173 1773 25 1478 25 
z
" transform="scale(0.015625)"/>
       </defs>
       <use xlink:href="#CMR17-36" transform="scale(0.996264)"/>
      </g>
     </g>
    </g>
    <g id="ytick_6">
     <g id="line2d_14">
      <g>
       <use xlink:href="#m23f92250e8" x="40.334753" y="16.634949" style="stroke: #000000; stroke-width: 0.8"/>
      </g>
     </g>
     <g id="text_15">
      <!-- $\mathdefault{8}$ -->
      <g transform="translate(28.353418 20.18411) scale(0.1 -0.1)">
       <defs>
        <path id="CMR17-38" d="M 1741 2289 
C 2144 2494 2554 2803 2554 3298 
C 2554 3884 1990 4224 1472 4224 
C 890 4224 378 3800 378 3215 
C 378 3054 416 2777 666 2533 
C 730 2469 998 2276 1171 2154 
C 883 2006 211 1652 211 945 
C 211 282 838 -128 1459 -128 
C 2144 -128 2720 366 2720 1022 
C 2720 1607 2330 1877 2074 2051 
L 1741 2289 
z
M 902 2855 
C 851 2887 595 3086 595 3388 
C 595 3781 998 4076 1459 4076 
C 1965 4076 2336 3716 2336 3298 
C 2336 2700 1670 2359 1638 2359 
C 1632 2359 1626 2359 1574 2398 
L 902 2855 
z
M 2080 1536 
C 2176 1466 2483 1253 2483 861 
C 2483 385 2010 25 1472 25 
C 890 25 448 443 448 951 
C 448 1459 838 1884 1280 2083 
L 2080 1536 
z
" transform="scale(0.015625)"/>
       </defs>
       <use xlink:href="#CMR17-38" transform="scale(0.996264)"/>
      </g>
     </g>
    </g>
    <g id="text_16">
     <!-- Aerodynamic Coefficients - Blade_1 -->
     <g transform="translate(14.482687 196.280864) rotate(-90) scale(0.1 -0.1)">
      <defs>
       <path id="NimbusSanL-Regu-41" d="M 3034 1408 
L 3514 0 
L 4179 0 
L 2541 4672 
L 1773 4672 
L 109 0 
L 742 0 
L 1235 1408 
L 3034 1408 
z
M 2867 1907 
L 1382 1907 
L 2150 4032 
L 2867 1907 
z
" transform="scale(0.015625)"/>
       <path id="NimbusSanL-Regu-64" d="M 3168 4672 
L 2637 4672 
L 2637 2937 
C 2413 3276 2054 3456 1606 3456 
C 736 3456 166 2759 166 1695 
C 166 568 723 -128 1626 -128 
C 2086 -128 2406 44 2694 460 
L 2694 19 
L 3168 19 
L 3168 4672 
z
M 1696 2956 
C 2272 2956 2637 2447 2637 1651 
C 2637 880 2266 371 1702 371 
C 1114 371 723 887 723 1663 
C 723 2440 1114 2956 1696 2956 
z
" transform="scale(0.015625)"/>
       <path id="NimbusSanL-Regu-79" d="M 2483 3328 
L 1555 724 
L 698 3328 
L 128 3328 
L 1261 -29 
L 1056 -558 
C 973 -794 851 -884 627 -884 
C 550 -884 461 -871 346 -845 
L 346 -1325 
C 454 -1383 563 -1408 704 -1408 
C 877 -1408 1062 -1351 1203 -1248 
C 1370 -1127 1466 -986 1568 -718 
L 3059 3328 
L 2483 3328 
z
" transform="scale(0.015625)"/>
       <path id="NimbusSanL-Regu-6d" d="M 448 3328 
L 448 0 
L 986 0 
L 986 2089 
C 986 2597 1338 2988 1773 2988 
C 2170 2988 2394 2744 2394 2315 
L 2394 0 
L 2931 0 
L 2931 2109 
C 2931 2597 3283 2988 3718 2988 
C 4109 2988 4339 2738 4339 2315 
L 4339 0 
L 4877 0 
L 4877 2520 
C 4877 3123 4531 3456 3904 3456 
C 3456 3456 3187 3321 2874 2943 
C 2675 3302 2406 3456 1971 3456 
C 1523 3456 1229 3289 941 2886 
L 941 3328 
L 448 3328 
z
" transform="scale(0.015625)"/>
       <path id="NimbusSanL-Regu-63" d="M 3014 2237 
C 2989 2561 2918 2771 2790 2956 
C 2560 3270 2157 3456 1690 3456 
C 787 3456 198 2740 198 1632 
C 198 555 774 -128 1683 -128 
C 2483 -128 2989 352 3053 1167 
L 2515 1167 
C 2426 632 2150 364 1696 364 
C 1107 364 755 842 755 1632 
C 755 2466 1101 2963 1683 2963 
C 2131 2963 2413 2701 2477 2237 
L 3014 2237 
z
" transform="scale(0.015625)"/>
       <path id="NimbusSanL-Regu-43" d="M 4237 3219 
C 4051 4236 3462 4736 2438 4736 
C 1811 4736 1306 4537 960 4154 
C 538 3696 307 3035 307 2284 
C 307 1522 544 867 986 415 
C 1344 44 1805 -128 2413 -128 
C 3552 -128 4192 485 4333 1712 
L 3718 1712 
C 3667 1394 3603 1178 3507 994 
C 3315 612 2918 396 2419 396 
C 1491 396 902 1134 902 2291 
C 902 3480 1466 4211 2368 4211 
C 2746 4211 3098 4096 3290 3918 
C 3462 3759 3558 3562 3629 3219 
L 4237 3219 
z
" transform="scale(0.015625)"/>
       <path id="NimbusSanL-Regu-66" d="M 1651 3328 
L 1094 3328 
L 1094 3860 
C 1094 4087 1222 4204 1466 4204 
C 1510 4204 1530 4204 1651 4198 
L 1651 4639 
C 1530 4665 1459 4672 1350 4672 
C 858 4672 563 4390 563 3905 
L 563 3328 
L 115 3328 
L 115 2892 
L 563 2892 
L 563 0 
L 1094 0 
L 1094 2892 
L 1651 2892 
L 1651 3328 
z
" transform="scale(0.015625)"/>
       <path id="NimbusSanL-Regu-2" d="M 1613 3328 
L 1056 3328 
L 1056 3860 
C 1056 4087 1184 4204 1427 4204 
C 1472 4204 1491 4204 1613 4198 
L 1613 4639 
C 1491 4665 1421 4672 1312 4672 
C 819 4672 525 4390 525 3905 
L 525 3328 
L 77 3328 
L 77 2892 
L 525 2892 
L 525 0 
L 1056 0 
L 1056 2892 
L 1613 2892 
L 1613 3328 
z
M 2790 3328 
L 2259 3328 
L 2259 0 
L 2790 0 
L 2790 3328 
z
M 2790 4672 
L 2259 4672 
L 2259 3999 
L 2790 3999 
L 2790 4672 
z
" transform="scale(0.015625)"/>
       <path id="NimbusSanL-Regu-73" d="M 2803 2428 
C 2797 3084 2362 3456 1587 3456 
C 806 3456 301 3052 301 2434 
C 301 1912 570 1663 1363 1472 
L 1862 1351 
C 2234 1262 2381 1129 2381 887 
C 2381 574 2067 364 1600 364 
C 1312 364 1069 447 934 587 
C 851 683 813 778 781 1014 
L 218 1014 
C 243 243 678 -128 1555 -128 
C 2400 -128 2938 288 2938 931 
C 2938 1428 2656 1702 1990 1861 
L 1478 1982 
C 1043 2084 858 2224 858 2459 
C 858 2765 1133 2963 1568 2963 
C 1997 2963 2227 2778 2240 2428 
L 2803 2428 
z
" transform="scale(0.015625)"/>
       <path id="NimbusSanL-Regu-2d" d="M 1818 1996 
L 294 1996 
L 294 1536 
L 1818 1536 
L 1818 1996 
z
" transform="scale(0.015625)"/>
       <path id="NimbusSanL-Regu-42" d="M 506 0 
L 2611 0 
C 3053 0 3379 121 3629 390 
C 3859 632 3987 961 3987 1321 
C 3987 1878 3731 2214 3136 2444 
C 3558 2643 3782 2994 3782 3476 
C 3782 3821 3654 4127 3411 4345 
C 3168 4569 2848 4672 2400 4672 
L 506 4672 
L 506 0 
z
M 1101 2636 
L 1101 4147 
L 2253 4147 
C 2586 4147 2771 4101 2931 3977 
C 3098 3847 3187 3652 3187 3391 
C 3187 3138 3098 2936 2931 2806 
C 2771 2682 2586 2636 2253 2636 
L 1101 2636 
z
M 1101 524 
L 1101 2112 
L 2554 2112 
C 2842 2112 3034 2042 3174 1890 
C 3315 1745 3392 1542 3392 1315 
C 3392 1093 3315 891 3174 746 
C 3034 594 2842 524 2554 524 
L 1101 524 
z
" transform="scale(0.015625)"/>
       <path id="NimbusSanL-Regu-6c" d="M 973 4672 
L 435 4672 
L 435 0 
L 973 0 
L 973 4672 
z
" transform="scale(0.015625)"/>
       <path id="NimbusSanL-Regu-31" d="M 1658 3232 
L 1658 0 
L 2221 0 
L 2221 4537 
L 1850 4537 
C 1651 3840 1523 3744 653 3635 
L 653 3232 
L 1658 3232 
z
" transform="scale(0.015625)"/>
      </defs>
      <use xlink:href="#NimbusSanL-Regu-41" transform="scale(0.996264)"/>
      <use xlink:href="#NimbusSanL-Regu-65" transform="translate(66.450031 0) scale(0.996264)"/>
      <use xlink:href="#NimbusSanL-Regu-72" transform="translate(121.841708 0) scale(0.996264)"/>
      <use xlink:href="#NimbusSanL-Regu-6f" transform="translate(155.016938 0) scale(0.996264)"/>
      <use xlink:href="#NimbusSanL-Regu-64" transform="translate(210.408615 0) scale(0.996264)"/>
      <use xlink:href="#NimbusSanL-Regu-79" transform="translate(265.800292 0) scale(0.996264)"/>
      <use xlink:href="#NimbusSanL-Regu-6e" transform="translate(315.613492 0) scale(0.996264)"/>
      <use xlink:href="#NimbusSanL-Regu-61" transform="translate(371.005169 0) scale(0.996264)"/>
      <use xlink:href="#NimbusSanL-Regu-6d" transform="translate(426.396846 0) scale(0.996264)"/>
      <use xlink:href="#NimbusSanL-Regu-69" transform="translate(509.385276 0) scale(0.996264)"/>
      <use xlink:href="#NimbusSanL-Regu-63" transform="translate(531.502061 0) scale(0.996264)"/>
      <use xlink:href="#NimbusSanL-Regu-43" transform="translate(609.010431 0) scale(0.996264)"/>
      <use xlink:href="#NimbusSanL-Regu-6f" transform="translate(680.940416 0) scale(0.996264)"/>
      <use xlink:href="#NimbusSanL-Regu-65" transform="translate(736.332093 0) scale(0.996264)"/>
      <use xlink:href="#NimbusSanL-Regu-66" transform="translate(791.72377 0) scale(0.996264)"/>
      <use xlink:href="#NimbusSanL-Regu-2" transform="translate(819.418939 0) scale(0.996264)"/>
      <use xlink:href="#NimbusSanL-Regu-63" transform="translate(869.23214 0) scale(0.996264)"/>
      <use xlink:href="#NimbusSanL-Regu-69" transform="translate(919.04534 0) scale(0.996264)"/>
      <use xlink:href="#NimbusSanL-Regu-65" transform="translate(941.162125 0) scale(0.996264)"/>
      <use xlink:href="#NimbusSanL-Regu-6e" transform="translate(996.553802 0) scale(0.996264)"/>
      <use xlink:href="#NimbusSanL-Regu-74" transform="translate(1051.945479 0) scale(0.996264)"/>
      <use xlink:href="#NimbusSanL-Regu-73" transform="translate(1079.640648 0) scale(0.996264)"/>
      <use xlink:href="#NimbusSanL-Regu-2d" transform="translate(1157.149018 0) scale(0.996264)"/>
      <use xlink:href="#NimbusSanL-Regu-42" transform="translate(1218.019418 0) scale(0.996264)"/>
      <use xlink:href="#NimbusSanL-Regu-6c" transform="translate(1284.469449 0) scale(0.996264)"/>
      <use xlink:href="#NimbusSanL-Regu-61" transform="translate(1306.586233 0) scale(0.996264)"/>
      <use xlink:href="#NimbusSanL-Regu-64" transform="translate(1361.97791 0) scale(0.996264)"/>
      <use xlink:href="#NimbusSanL-Regu-65" transform="translate(1417.369587 0) scale(0.996264)"/>
      <use xlink:href="#NimbusSanL-Regu-31" transform="translate(1508.626829 0) scale(0.996264)"/>
      <path d="M 1478.738605 0 
L 1508.626829 0 
L 1508.626829 0.3985 
L 1478.738605 0.3985 
L 1478.738605 0 
z
"/>
     </g>
    </g>
   </g>
   <g id="line2d_15">
    <path d="M 55.552935 120.390966 
L 55.807561 17.672734 
L 55.892437 17.28 
L 55.977312 18.18489 
L 56.656317 32.437773 
L 56.826068 33.554455 
L 57.080694 36.172147 
L 57.335321 36.763693 
L 57.589947 37.944636 
L 57.844574 40.457893 
L 58.014325 44.056607 
L 58.184076 52.55212 
L 58.353827 61.633843 
L 58.608454 65.03822 
L 58.86308 72.880409 
L 59.117707 90.736728 
L 59.542084 133.350369 
L 59.796711 141.419188 
L 60.051338 157.860404 
L 60.730342 211.724673 
L 61.069844 214.815971 
L 61.494221 218.723309 
L 61.579097 218.88 
L 61.663973 218.797459 
L 61.748848 218.497435 
L 61.918599 217.674041 
L 62.173226 217.306161 
L 62.427852 216.377989 
L 62.597603 214.958237 
L 62.767354 211.914648 
L 63.106856 204.435654 
L 63.361483 202.327146 
L 63.61611 197.565512 
L 63.870736 186.315651 
L 64.040487 178.79491 
L 64.295114 176.080209 
L 64.54974 170.282274 
L 64.804367 158.608088 
L 65.398496 121.474598 
L 65.653122 118.87232 
L 66.162375 112.332348 
L 66.332126 112.822106 
L 66.586753 113.188381 
L 66.84138 114.217692 
L 67.011131 115.793631 
L 67.180882 118.908846 
L 67.435508 129.148262 
L 67.605259 134.623333 
L 67.859886 136.381187 
L 68.114513 139.789251 
L 68.454015 147.674139 
L 68.708641 153.556176 
L 68.963268 154.592018 
L 69.217894 156.762211 
L 69.472521 161.077846 
L 69.727148 166.538381 
L 69.981774 167.637094 
L 70.236401 169.875602 
L 70.491027 174.225839 
L 70.915405 182.420785 
L 71.170031 183.741466 
L 71.424658 186.169052 
L 71.76416 191.950181 
L 72.188538 199.391815 
L 72.52804 200.040942 
L 73.037293 201.363475 
L 73.122169 201.292086 
L 73.546546 200.199947 
L 73.801173 199.748098 
L 74.055799 198.726172 
L 74.310426 196.3848 
L 74.480177 194.903411 
L 74.734804 194.398651 
L 74.98943 193.289199 
L 75.244057 190.996591 
L 75.498683 185.804823 
L 75.75331 178.053168 
L 76.007936 176.467335 
L 76.262563 173.061533 
L 76.51719 166.565987 
L 76.941567 154.474597 
L 77.196194 152.556578 
L 77.45082 148.890123 
L 77.790322 140.459801 
L 78.129825 131.897427 
L 78.384451 131.121837 
L 78.97858 128.034314 
L 79.063455 128.244643 
L 79.233206 130.92362 
L 79.572709 139.284092 
L 79.827335 140.325152 
L 80.081962 142.523386 
L 80.421464 148.063548 
L 80.845841 156.994694 
L 81.100468 157.773884 
L 81.355095 159.426955 
L 81.694597 163.215486 
L 81.949223 165.55555 
L 82.20385 165.883013 
L 82.543352 166.794979 
L 83.052605 168.289289 
L 83.731609 168.335513 
L 83.90136 167.991932 
L 84.071111 167.015248 
L 84.240862 166.039255 
L 84.495489 165.688844 
L 84.750116 164.891922 
L 85.004742 163.145518 
L 85.259369 159.257718 
L 85.42912 157.227241 
L 85.683746 156.586538 
L 85.938373 155.293927 
L 86.362751 151.539823 
L 86.532502 150.78013 
L 86.956879 150.410585 
L 87.296381 150.14417 
L 87.466132 150.314661 
L 87.805635 150.973427 
L 88.060261 151.177744 
L 88.314888 151.658339 
L 88.569514 152.736844 
L 88.993892 155.217044 
L 89.248519 155.691867 
L 89.503145 156.702006 
L 89.757772 158.628826 
L 90.012398 160.571631 
L 90.267025 160.892895 
L 90.606527 161.80526 
L 91.285531 164.19033 
L 92.134286 164.436542 
L 92.558664 163.956783 
L 92.898166 163.61961 
L 93.152793 162.969731 
L 93.57717 161.389004 
L 93.831797 161.08424 
L 94.086423 160.438378 
L 94.34105 159.154021 
L 94.680552 156.967733 
L 95.020054 156.574901 
L 95.359556 155.6485 
L 96.038561 153.224365 
L 96.378063 153.017874 
L 97.057067 152.449579 
L 97.651196 152.556874 
L 97.905822 152.800253 
L 98.3302 153.283632 
L 98.754577 153.449002 
L 99.09408 153.83799 
L 99.433582 154.726898 
L 99.773084 155.723492 
L 100.112586 155.920108 
L 100.367212 156.277184 
L 100.621839 156.954784 
L 101.215968 158.929469 
L 101.470594 159.274465 
L 101.810096 160.221503 
L 102.31935 162.094169 
L 102.489101 162.067613 
L 102.828603 161.600337 
L 103.168105 161.377031 
L 103.422731 160.937826 
L 103.677358 159.901377 
L 103.931985 158.428201 
L 104.186611 158.135488 
L 104.441238 157.498501 
L 104.695864 156.271592 
L 105.205117 153.044529 
L 105.459744 152.661308 
L 105.799246 151.655356 
L 106.223624 150.248989 
L 106.732877 149.988626 
L 107.072379 149.832165 
L 107.24213 150.097492 
L 107.411881 150.479749 
L 107.751383 150.711878 
L 108.00601 151.1503 
L 108.260636 152.129506 
L 108.685014 154.322617 
L 108.939641 154.695038 
L 109.194267 155.418404 
L 109.533769 157.107693 
L 109.70352 157.656455 
L 110.043022 157.898885 
L 110.4674 158.551157 
L 110.806902 158.916153 
L 111.061529 158.835075 
L 111.485906 158.706438 
L 111.740533 158.415642 
L 111.995159 157.641355 
L 112.334662 156.407087 
L 112.674164 156.152253 
L 113.013666 155.502959 
L 113.438043 153.928579 
L 113.607794 153.547194 
L 113.947297 153.372974 
L 114.796052 152.708457 
L 115.305305 152.815818 
L 115.559932 153.127953 
L 115.729683 153.66173 
L 115.899434 154.129518 
L 116.238936 154.379656 
L 116.493562 154.824735 
L 116.748189 155.671741 
L 117.427193 158.490758 
L 117.68182 158.814525 
L 118.275948 158.964763 
L 118.870077 159.163411 
L 119.124704 159.102253 
L 119.633957 158.960043 
L 119.888583 158.62417 
L 120.228086 158.057092 
L 120.567588 157.8319 
L 120.822214 157.432267 
L 121.076841 156.566289 
L 121.331467 155.45265 
L 121.670969 155.129059 
L 122.010472 154.339121 
L 122.519725 152.812274 
L 122.859227 152.553204 
L 123.538231 151.858916 
L 124.047484 151.976797 
L 124.302111 152.22791 
L 124.556737 152.972532 
L 124.726488 153.4684 
L 125.06599 153.733976 
L 125.320617 154.18908 
L 125.575244 155.048258 
L 126.508874 159.34692 
L 126.678625 159.321584 
L 126.848377 159.020658 
L 127.187879 157.764417 
L 127.782007 155.311017 
L 128.121509 155.119566 
L 128.461012 154.656543 
L 129.05514 153.660192 
L 129.564393 153.448097 
L 130.073647 153.226016 
L 130.922402 153.330097 
L 131.686282 153.676152 
L 132.025784 153.915933 
L 132.28041 154.366671 
L 132.450161 154.634068 
L 132.874539 154.834817 
L 133.214041 155.275621 
L 133.638419 155.970416 
L 134.062796 156.215249 
L 134.402298 156.674062 
L 134.7418 157.255937 
L 135.251054 157.445175 
L 135.760307 157.718064 
L 136.099809 157.660967 
L 136.524187 157.539523 
L 136.778813 157.256881 
L 137.118315 156.308578 
L 137.882195 154.095321 
L 138.221697 153.700705 
L 138.476324 153.716222 
L 139.155328 154.074905 
L 139.49483 154.289918 
L 139.749457 154.648658 
L 139.919208 154.843384 
L 140.428461 155.039254 
L 140.767963 155.406911 
L 141.19234 155.923274 
L 141.701594 156.142956 
L 142.465473 156.600289 
L 143.653731 156.734025 
L 144.162984 156.578699 
L 144.41761 156.24313 
L 144.587361 156.02234 
L 145.011739 155.849991 
L 145.351241 155.450491 
L 146.369748 153.577051 
L 146.624374 153.68422 
L 146.963876 153.932592 
L 147.388254 154.083169 
L 147.727756 154.445688 
L 148.152134 155.08482 
L 148.576511 155.321548 
L 148.916013 155.762834 
L 149.255515 156.218351 
L 150.953026 156.329913 
L 151.292528 156.110358 
L 151.63203 155.839898 
L 152.141283 155.643901 
L 152.480785 155.298366 
L 152.990039 154.654341 
L 153.669043 154.523702 
L 154.432923 154.327492 
L 155.875806 154.335308 
L 156.300184 154.475292 
L 156.894313 155.023709 
L 157.064064 155.132397 
L 157.743068 155.309137 
L 158.337197 155.534563 
L 159.270827 155.561885 
L 159.525454 155.496537 
L 160.119583 155.359632 
L 160.459085 155.078834 
L 161.30784 154.286551 
L 161.647342 154.23875 
L 163.259977 154.24928 
L 164.787737 154.687611 
L 165.042363 154.760717 
L 165.806243 154.927952 
L 166.315496 155.061816 
L 168.182758 155.104585 
L 168.776886 155.006445 
L 169.371015 154.825836 
L 169.710517 154.688903 
L 170.389521 154.53364 
L 171.068526 154.294493 
L 172.850912 154.261622 
L 173.529916 154.348817 
L 174.124045 154.509656 
L 174.378671 154.565366 
L 175.227426 154.72334 
L 175.73668 154.799524 
L 177.603941 154.803453 
L 178.028319 154.762799 
L 178.792198 154.598778 
L 179.131701 154.541071 
L 179.89558 154.384065 
L 180.574585 154.203446 
L 181.762842 154.219153 
L 182.441846 154.265093 
L 186.261245 154.584341 
L 190.505021 154.146491 
L 192.202532 154.229315 
L 192.966411 154.270438 
L 195.682428 154.393819 
L 200.605209 154.110427 
L 205.103612 154.260369 
L 215.203799 154.144924 
L 267.911501 153.894958 
L 359.916571 154.00192 
L 359.916571 154.00192 
" clip-path="url(#p94f0e37c82)" style="fill: none; stroke: #1f77b4; stroke-width: 1.5; stroke-linecap: square"/>
   </g>
   <g id="line2d_16">
    <path d="M 55.552935 190.329042 
L 55.722686 209.868616 
L 55.807561 209.716233 
L 56.062188 207.970489 
L 56.316814 206.409897 
L 56.40169 206.35815 
L 56.826068 207.12436 
L 57.16557 208.096911 
L 57.420196 208.44043 
L 57.674823 209.233268 
L 57.929449 210.899804 
L 58.353827 214.113185 
L 58.778205 214.131978 
L 58.947956 213.817685 
L 59.117707 212.772471 
L 59.287458 210.328008 
L 59.457209 207.996607 
L 59.711835 207.071987 
L 59.966462 204.890538 
L 60.221089 200.05784 
L 60.645466 189.880503 
L 60.900093 189.149923 
L 61.239595 187.227154 
L 61.494221 185.001734 
L 61.748848 180.399356 
L 61.918599 178.120398 
L 62.173226 177.428813 
L 62.427852 175.946885 
L 62.767354 172.694432 
L 63.021981 170.403351 
L 63.276608 170.066509 
L 63.61611 169.047079 
L 63.870736 168.206412 
L 64.379989 168.407114 
L 64.54974 168.661279 
L 64.719491 169.288072 
L 64.889243 170.798461 
L 65.143869 176.669137 
L 65.31362 179.817354 
L 65.568247 180.824416 
L 65.822873 182.769216 
L 66.417002 188.279252 
L 66.671629 188.843687 
L 66.926255 190.011381 
L 67.180882 192.31319 
L 67.435508 196.679605 
L 67.605259 198.70915 
L 67.859886 199.333731 
L 68.199388 201.095048 
L 68.708641 204.455679 
L 69.048143 204.775298 
L 69.387645 205.518437 
L 69.727148 206.274219 
L 70.575903 206.403277 
L 71.00028 205.819878 
L 71.339783 205.455268 
L 71.594409 204.751403 
L 71.849036 203.119812 
L 72.273413 199.437182 
L 72.52804 198.829161 
L 72.782666 197.66221 
L 73.122169 194.815844 
L 73.376795 192.494787 
L 73.631422 192.081567 
L 73.886048 191.250143 
L 74.22555 189.100559 
L 74.480177 187.13241 
L 74.734804 186.754649 
L 74.98943 185.94812 
L 75.244057 184.364752 
L 75.498683 181.418638 
L 75.75331 178.381744 
L 76.007936 177.88376 
L 76.347439 176.458045 
L 76.686941 174.88158 
L 77.026443 174.995189 
L 77.281069 175.190254 
L 77.45082 175.523543 
L 77.620571 176.231858 
L 77.790322 177.734091 
L 78.2147 183.196503 
L 78.469327 184.187534 
L 78.808829 186.973976 
L 79.657584 195.589851 
L 79.997086 195.979449 
L 80.506339 196.954385 
L 80.591215 196.901851 
L 81.015592 195.808141 
L 81.270219 195.308771 
L 81.524846 194.193311 
L 81.779472 191.901803 
L 81.949223 190.759657 
L 82.20385 190.404163 
L 82.543352 189.357191 
L 83.137481 187.118779 
L 83.476983 186.807366 
L 83.90136 186.03112 
L 84.325738 185.34383 
L 84.750116 185.101922 
L 85.259369 184.619073 
L 85.42912 184.758415 
L 85.853497 184.930521 
L 86.108124 185.260557 
L 86.362751 186.072576 
L 86.532502 186.55778 
L 86.872004 186.813151 
L 87.211506 187.429612 
L 87.551008 188.684524 
L 87.720759 189.210283 
L 88.060261 189.477537 
L 88.399763 190.148412 
L 88.739265 191.441099 
L 88.909016 191.877024 
L 89.248519 192.076511 
L 90.097274 192.836557 
L 90.861154 192.73185 
L 92.134286 191.578299 
L 92.473788 190.922014 
L 92.813291 190.664544 
L 93.067917 190.211415 
L 93.57717 189.010673 
L 93.916672 188.768158 
L 94.171299 188.355455 
L 94.510801 187.28528 
L 94.680552 186.908886 
L 95.020054 186.734921 
L 95.699058 186.060674 
L 95.783934 186.177237 
L 95.953685 186.489574 
L 96.293187 186.690675 
L 96.547814 187.106548 
L 96.80244 188.099106 
L 97.057067 189.45317 
L 97.311693 189.714753 
L 97.56632 190.28739 
L 97.820947 191.372 
L 98.3302 194.220941 
L 98.584826 194.574269 
L 98.924328 195.52563 
L 99.518457 197.408604 
L 100.367212 196.839621 
L 100.621839 196.207748 
L 100.876466 194.664744 
L 101.046217 193.820663 
L 101.300843 193.537071 
L 101.55547 192.92655 
L 101.810096 191.798708 
L 102.658852 186.72803 
L 103.168105 186.615755 
L 103.507607 186.533284 
L 103.677358 186.666633 
L 104.01686 187.247469 
L 104.356362 187.526911 
L 104.610989 188.038845 
L 104.865615 189.146139 
L 105.120242 190.509501 
L 105.374868 190.762013 
L 105.629495 191.285617 
L 105.968997 192.609237 
L 106.223624 193.64077 
L 106.563126 193.902805 
L 106.902628 194.491873 
L 107.411881 195.549572 
L 108.345512 195.59521 
L 108.685014 195.066221 
L 109.024516 194.816825 
L 109.279143 194.350255 
L 109.533769 193.313573 
L 109.70352 192.721366 
L 110.043022 192.42085 
L 110.297649 191.908771 
L 110.552276 190.992537 
L 111.061529 188.943184 
L 111.401031 188.597683 
L 111.825408 187.689073 
L 112.164911 187.108857 
L 112.419537 187.188191 
L 112.843915 187.339203 
L 113.098541 187.694117 
L 113.353168 188.646781 
L 113.607794 189.729121 
L 113.862421 189.93506 
L 114.117048 190.39151 
L 114.371674 191.241834 
L 114.796052 192.82965 
L 115.135554 193.223009 
L 115.475056 194.064603 
L 115.899434 195.386851 
L 116.323811 195.6067 
L 116.833064 195.891594 
L 117.002816 195.630318 
L 117.257442 194.700714 
L 117.766695 192.671542 
L 118.021322 192.425002 
L 118.275948 191.91814 
L 118.615451 190.601367 
L 118.954953 188.976277 
L 119.37933 188.804304 
L 119.973459 188.415282 
L 120.228086 188.503031 
L 120.652463 188.629825 
L 120.90709 188.902995 
L 121.161716 189.643054 
L 121.331467 190.110052 
L 121.670969 190.35966 
L 121.925596 190.784194 
L 122.180223 191.569785 
L 122.434849 192.442252 
L 122.774351 192.685165 
L 123.113853 193.257288 
L 123.792858 194.655575 
L 124.217235 194.973461 
L 124.726488 195.380624 
L 125.575244 195.311591 
L 125.744995 195.099172 
L 126.169372 193.859823 
L 126.933252 191.532349 
L 127.272754 191.022274 
L 127.527381 190.931694 
L 128.630763 191.292789 
L 129.140016 191.755723 
L 129.564393 191.988214 
L 129.903895 192.475098 
L 130.158522 192.926092 
L 130.5829 193.104393 
L 130.922402 193.463682 
L 131.346779 193.960814 
L 131.856033 194.185507 
L 132.619912 194.655584 
L 133.383792 194.679472 
L 133.638419 194.61264 
L 134.232547 194.470245 
L 134.487174 194.244837 
L 134.826676 193.90347 
L 135.251054 193.716901 
L 135.590556 193.319539 
L 136.014933 192.697482 
L 136.439311 192.481662 
L 136.863689 191.987317 
L 137.203191 191.651419 
L 137.457817 191.674579 
L 137.797319 192.005001 
L 138.306573 192.985449 
L 138.815826 193.946057 
L 139.240203 194.092464 
L 140.25871 194.629919 
L 140.852838 194.606616 
L 141.277216 194.387227 
L 141.701594 194.211919 
L 142.041096 193.801286 
L 142.210847 193.618918 
L 142.7201 193.437114 
L 143.144478 193.009648 
L 143.399104 192.760663 
L 144.078108 192.591582 
L 144.41761 192.534794 
L 144.757113 192.595937 
L 145.266366 192.734515 
L 145.520992 192.969148 
L 146.369748 194.146447 
L 146.794125 194.333477 
L 148.067258 194.228637 
L 149.000889 194.091171 
L 149.595018 194.031513 
L 152.650536 193.770737 
L 153.414416 193.7486 
L 154.432923 193.878011 
L 155.027051 194.025774 
L 155.536304 194.234177 
L 156.130433 194.395173 
L 156.809437 194.640788 
L 157.912819 194.504446 
L 158.337197 194.39696 
L 159.016201 194.235729 
L 159.61033 194.065526 
L 160.883462 194.082272 
L 161.986844 194.32296 
L 164.53311 194.61992 
L 165.975994 194.576839 
L 166.654998 194.534606 
L 169.625642 194.353753 
L 170.729024 194.466022 
L 171.153401 194.508895 
L 175.906431 194.727953 
L 179.89558 194.688762 
L 181.932593 194.880647 
L 221.654339 195.082194 
L 226.237618 195.076592 
L 241.515212 195.042493 
L 244.655607 195.02791 
L 266.383741 194.93292 
L 359.916571 194.519255 
L 359.916571 194.519255 
" clip-path="url(#p94f0e37c82)" style="fill: none; stroke: #ff7f0e; stroke-width: 1.5; stroke-linecap: square"/>
   </g>
   <g id="patch_3">
    <path d="M 40.334753 228.96 
L 40.334753 7.2 
" style="fill: none; stroke: #000000; stroke-width: 0.8; stroke-linejoin: miter; stroke-linecap: square"/>
   </g>
   <g id="patch_4">
    <path d="M 375.134753 228.96 
L 375.134753 7.2 
" style="fill: none; stroke: #000000; stroke-width: 0.8; stroke-linejoin: miter; stroke-linecap: square"/>
   </g>
   <g id="patch_5">
    <path d="M 40.334753 228.96 
L 375.134753 228.96 
" style="fill: none; stroke: #000000; stroke-width: 0.8; stroke-linejoin: miter; stroke-linecap: square"/>
   </g>
   <g id="patch_6">
    <path d="M 40.334753 7.2 
L 375.134753 7.2 
" style="fill: none; stroke: #000000; stroke-width: 0.8; stroke-linejoin: miter; stroke-linecap: square"/>
   </g>
   <g id="legend_1">
    <g id="patch_7">
     <path d="M 321.748759 43.640613 
L 368.134753 43.640613 
Q 370.134753 43.640613 370.134753 41.640613 
L 370.134753 14.2 
Q 370.134753 12.2 368.134753 12.2 
L 321.748759 12.2 
Q 319.748759 12.2 319.748759 14.2 
L 319.748759 41.640613 
Q 319.748759 43.640613 321.748759 43.640613 
z
" style="fill: #ffffff; opacity: 0.8; stroke: #cccccc; stroke-linejoin: miter"/>
    </g>
    <g id="line2d_17">
     <path d="M 323.748759 19.79832 
L 333.748759 19.79832 
L 343.748759 19.79832 
" style="fill: none; stroke: #1f77b4; stroke-width: 1.5; stroke-linecap: square"/>
    </g>
    <g id="text_17">
     <!-- CD -->
     <g transform="translate(351.748759 23.29832) scale(0.1 -0.1)">
      <defs>
       <path id="NimbusSanL-Regu-44" d="M 570 0 
L 2368 0 
C 3546 0 4269 883 4269 2339 
C 4269 3788 3552 4672 2368 4672 
L 570 4672 
L 570 0 
z
M 1165 524 
L 1165 4147 
L 2266 4147 
C 3187 4147 3674 3525 3674 2332 
C 3674 1153 3187 524 2266 524 
L 1165 524 
z
" transform="scale(0.015625)"/>
      </defs>
      <use xlink:href="#NimbusSanL-Regu-43" transform="scale(0.996264)"/>
      <use xlink:href="#NimbusSanL-Regu-44" transform="translate(71.929985 0) scale(0.996264)"/>
     </g>
    </g>
    <g id="line2d_18">
     <path d="M 323.748759 34.018627 
L 333.748759 34.018627 
L 343.748759 34.018627 
" style="fill: none; stroke: #ff7f0e; stroke-width: 1.5; stroke-linecap: square"/>
    </g>
    <g id="text_18">
     <!-- CL -->
     <g transform="translate(351.748759 37.518627) scale(0.1 -0.1)">
      <defs>
       <path id="NimbusSanL-Regu-4c" d="M 1107 4672 
L 512 4672 
L 512 0 
L 3411 0 
L 3411 524 
L 1107 524 
L 1107 4672 
z
" transform="scale(0.015625)"/>
      </defs>
      <use xlink:href="#NimbusSanL-Regu-43" transform="scale(0.996264)"/>
      <use xlink:href="#NimbusSanL-Regu-4c" transform="translate(71.929985 0) scale(0.996264)"/>
     </g>
    </g>
   </g>
  </g>
 </g>
 <defs>
  <clipPath id="p94f0e37c82">
   <rect x="40.334753" y="7.2" width="334.8" height="221.76"/>
  </clipPath>
 </defs>
</svg>
