<?xml version="1.0" encoding="utf-8" standalone="no"?>
<!DOCTYPE svg PUBLIC "-//W3C//DTD SVG 1.1//EN"
  "http://www.w3.org/Graphics/SVG/1.1/DTD/svg11.dtd">
<svg xmlns:xlink="http://www.w3.org/1999/xlink" width="382.334753pt" height="265.600613pt" viewBox="0 0 382.334753 265.600613" xmlns="http://www.w3.org/2000/svg" version="1.1">
 <metadata>
  <rdf:RDF xmlns:dc="http://purl.org/dc/elements/1.1/" xmlns:cc="http://creativecommons.org/ns#" xmlns:rdf="http://www.w3.org/1999/02/22-rdf-syntax-ns#">
   <cc:Work>
    <dc:type rdf:resource="http://purl.org/dc/dcmitype/StillImage"/>
    <dc:date>2025-07-16T22:17:08.444124</dc:date>
    <dc:format>image/svg+xml</dc:format>
    <dc:creator>
     <cc:Agent>
      <dc:title>Matplotlib v3.10.3, https://matplotlib.org/</dc:title>
     </cc:Agent>
    </dc:creator>
   </cc:Work>
  </rdf:RDF>
 </metadata>
 <defs>
  <style type="text/css">*{stroke-linejoin: round; stroke-linecap: butt}</style>
 </defs>
 <g id="figure_1">
  <g id="patch_1">
   <path d="M 0 265.600613 
L 382.334753 265.600613 
L 382.334753 0 
L 0 0 
z
" style="fill: #ffffff"/>
  </g>
  <g id="axes_1">
   <g id="patch_2">
    <path d="M 40.334753 228.96 
L 375.134753 228.96 
L 375.134753 7.2 
L 40.334753 7.2 
z
" style="fill: #ffffff"/>
   </g>
   <g id="matplotlib.axis_1">
    <g id="xtick_1">
     <g id="line2d_1">
      <defs>
       <path id="m85df73d43b" d="M 0 0 
L 0 3.5 
" style="stroke: #000000; stroke-width: 0.8"/>
      </defs>
      <g>
       <use xlink:href="#m85df73d43b" x="55.552935" y="228.96" style="stroke: #000000; stroke-width: 0.8"/>
      </g>
     </g>
     <g id="text_1">
      <!-- $\mathdefault{0}$ -->
      <g transform="translate(53.062267 243.05832) scale(0.1 -0.1)">
       <defs>
        <path id="CMR17-30" d="M 2688 2038 
C 2688 2430 2682 3099 2413 3613 
C 2176 4063 1798 4224 1466 4224 
C 1158 4224 768 4082 525 3620 
C 269 3137 243 2539 243 2038 
C 243 1671 250 1112 448 623 
C 723 -39 1216 -128 1466 -128 
C 1760 -128 2208 -7 2470 604 
C 2662 1048 2688 1568 2688 2038 
z
M 1466 -26 
C 1056 -26 813 328 723 816 
C 653 1196 653 1749 653 2109 
C 653 2604 653 3015 736 3407 
C 858 3954 1216 4121 1466 4121 
C 1728 4121 2067 3947 2189 3420 
C 2272 3054 2278 2623 2278 2109 
C 2278 1691 2278 1176 2202 797 
C 2067 96 1690 -26 1466 -26 
z
" transform="scale(0.015625)"/>
       </defs>
       <use xlink:href="#CMR17-30" transform="scale(0.996264)"/>
      </g>
     </g>
    </g>
    <g id="xtick_2">
     <g id="line2d_2">
      <g>
       <use xlink:href="#m85df73d43b" x="97.030672" y="228.96" style="stroke: #000000; stroke-width: 0.8"/>
      </g>
     </g>
     <g id="text_2">
      <!-- $\mathdefault{500}$ -->
      <g transform="translate(89.558669 243.05832) scale(0.1 -0.1)">
       <defs>
        <path id="CMR17-35" d="M 730 3750 
C 794 3724 1056 3641 1325 3641 
C 1920 3641 2246 3961 2432 4140 
C 2432 4191 2432 4224 2394 4224 
C 2387 4224 2374 4224 2323 4198 
C 2099 4102 1837 4032 1517 4032 
C 1325 4032 1037 4055 723 4191 
C 653 4224 640 4224 634 4224 
C 602 4224 595 4217 595 4090 
L 595 2231 
C 595 2113 595 2080 659 2080 
C 691 2080 704 2093 736 2139 
C 941 2435 1222 2560 1542 2560 
C 1766 2560 2246 2415 2246 1293 
C 2246 1087 2246 716 2054 422 
C 1894 159 1645 25 1370 25 
C 947 25 518 319 403 812 
C 429 806 480 793 506 793 
C 589 793 749 838 749 1036 
C 749 1209 627 1280 506 1280 
C 358 1280 262 1190 262 1011 
C 262 454 704 -128 1382 -128 
C 2042 -128 2669 441 2669 1267 
C 2669 2054 2170 2662 1549 2662 
C 1222 2662 947 2540 730 2304 
L 730 3750 
z
" transform="scale(0.015625)"/>
       </defs>
       <use xlink:href="#CMR17-35" transform="scale(0.996264)"/>
       <use xlink:href="#CMR17-30" transform="translate(45.690477 0) scale(0.996264)"/>
       <use xlink:href="#CMR17-30" transform="translate(91.380954 0) scale(0.996264)"/>
      </g>
     </g>
    </g>
    <g id="xtick_3">
     <g id="line2d_3">
      <g>
       <use xlink:href="#m85df73d43b" x="138.508409" y="228.96" style="stroke: #000000; stroke-width: 0.8"/>
      </g>
     </g>
     <g id="text_3">
      <!-- $\mathdefault{1000}$ -->
      <g transform="translate(128.545739 243.05832) scale(0.1 -0.1)">
       <defs>
        <path id="CMR17-31" d="M 1702 4083 
C 1702 4217 1696 4224 1606 4224 
C 1357 3927 979 3833 621 3820 
C 602 3820 570 3820 563 3808 
C 557 3795 557 3782 557 3648 
C 755 3648 1088 3686 1344 3839 
L 1344 467 
C 1344 243 1331 166 781 166 
L 589 166 
L 589 0 
C 896 6 1216 12 1523 12 
C 1830 12 2150 6 2458 0 
L 2458 166 
L 2266 166 
C 1715 166 1702 236 1702 467 
L 1702 4083 
z
" transform="scale(0.015625)"/>
       </defs>
       <use xlink:href="#CMR17-31" transform="scale(0.996264)"/>
       <use xlink:href="#CMR17-30" transform="translate(45.690477 0) scale(0.996264)"/>
       <use xlink:href="#CMR17-30" transform="translate(91.380954 0) scale(0.996264)"/>
       <use xlink:href="#CMR17-30" transform="translate(137.071431 0) scale(0.996264)"/>
      </g>
     </g>
    </g>
    <g id="xtick_4">
     <g id="line2d_4">
      <g>
       <use xlink:href="#m85df73d43b" x="179.986147" y="228.96" style="stroke: #000000; stroke-width: 0.8"/>
      </g>
     </g>
     <g id="text_4">
      <!-- $\mathdefault{1500}$ -->
      <g transform="translate(170.023476 243.05832) scale(0.1 -0.1)">
       <use xlink:href="#CMR17-31" transform="scale(0.996264)"/>
       <use xlink:href="#CMR17-35" transform="translate(45.690477 0) scale(0.996264)"/>
       <use xlink:href="#CMR17-30" transform="translate(91.380954 0) scale(0.996264)"/>
       <use xlink:href="#CMR17-30" transform="translate(137.071431 0) scale(0.996264)"/>
      </g>
     </g>
    </g>
    <g id="xtick_5">
     <g id="line2d_5">
      <g>
       <use xlink:href="#m85df73d43b" x="221.463884" y="228.96" style="stroke: #000000; stroke-width: 0.8"/>
      </g>
     </g>
     <g id="text_5">
      <!-- $\mathdefault{2000}$ -->
      <g transform="translate(211.501213 243.05832) scale(0.1 -0.1)">
       <defs>
        <path id="CMR17-32" d="M 2669 990 
L 2554 990 
C 2490 537 2438 460 2413 422 
C 2381 371 1920 371 1830 371 
L 602 371 
C 832 620 1280 1073 1824 1596 
C 2214 1966 2669 2400 2669 3033 
C 2669 3788 2067 4224 1395 4224 
C 691 4224 262 3603 262 3027 
C 262 2777 448 2745 525 2745 
C 589 2745 781 2783 781 3007 
C 781 3206 614 3264 525 3264 
C 486 3264 448 3257 422 3244 
C 544 3788 915 4057 1306 4057 
C 1862 4057 2227 3616 2227 3033 
C 2227 2477 1901 1998 1536 1583 
L 262 147 
L 262 0 
L 2515 0 
L 2669 990 
z
" transform="scale(0.015625)"/>
       </defs>
       <use xlink:href="#CMR17-32" transform="scale(0.996264)"/>
       <use xlink:href="#CMR17-30" transform="translate(45.690477 0) scale(0.996264)"/>
       <use xlink:href="#CMR17-30" transform="translate(91.380954 0) scale(0.996264)"/>
       <use xlink:href="#CMR17-30" transform="translate(137.071431 0) scale(0.996264)"/>
      </g>
     </g>
    </g>
    <g id="xtick_6">
     <g id="line2d_6">
      <g>
       <use xlink:href="#m85df73d43b" x="262.941621" y="228.96" style="stroke: #000000; stroke-width: 0.8"/>
      </g>
     </g>
     <g id="text_6">
      <!-- $\mathdefault{2500}$ -->
      <g transform="translate(252.978951 243.05832) scale(0.1 -0.1)">
       <use xlink:href="#CMR17-32" transform="scale(0.996264)"/>
       <use xlink:href="#CMR17-35" transform="translate(45.690477 0) scale(0.996264)"/>
       <use xlink:href="#CMR17-30" transform="translate(91.380954 0) scale(0.996264)"/>
       <use xlink:href="#CMR17-30" transform="translate(137.071431 0) scale(0.996264)"/>
      </g>
     </g>
    </g>
    <g id="xtick_7">
     <g id="line2d_7">
      <g>
       <use xlink:href="#m85df73d43b" x="304.419359" y="228.96" style="stroke: #000000; stroke-width: 0.8"/>
      </g>
     </g>
     <g id="text_7">
      <!-- $\mathdefault{3000}$ -->
      <g transform="translate(294.456688 243.05832) scale(0.1 -0.1)">
       <defs>
        <path id="CMR17-33" d="M 1414 2176 
C 1984 2176 2234 1673 2234 1094 
C 2234 322 1824 25 1453 25 
C 1114 25 563 193 390 691 
C 422 678 454 678 486 678 
C 640 678 755 780 755 947 
C 755 1132 614 1216 486 1216 
C 378 1216 211 1164 211 927 
C 211 335 787 -128 1466 -128 
C 2176 -128 2720 432 2720 1087 
C 2720 1718 2208 2176 1600 2246 
C 2086 2347 2554 2776 2554 3353 
C 2554 3856 2048 4224 1472 4224 
C 890 4224 378 3862 378 3347 
C 378 3123 544 3084 627 3084 
C 762 3084 877 3167 877 3334 
C 877 3500 762 3584 627 3584 
C 602 3584 570 3584 544 3571 
C 730 3999 1235 4076 1459 4076 
C 1683 4076 2106 3966 2106 3347 
C 2106 3167 2080 2851 1862 2574 
C 1670 2329 1453 2316 1242 2297 
C 1210 2297 1062 2284 1037 2284 
C 992 2278 966 2272 966 2227 
C 966 2182 973 2176 1101 2176 
L 1414 2176 
z
" transform="scale(0.015625)"/>
       </defs>
       <use xlink:href="#CMR17-33" transform="scale(0.996264)"/>
       <use xlink:href="#CMR17-30" transform="translate(45.690477 0) scale(0.996264)"/>
       <use xlink:href="#CMR17-30" transform="translate(91.380954 0) scale(0.996264)"/>
       <use xlink:href="#CMR17-30" transform="translate(137.071431 0) scale(0.996264)"/>
      </g>
     </g>
    </g>
    <g id="xtick_8">
     <g id="line2d_8">
      <g>
       <use xlink:href="#m85df73d43b" x="345.897096" y="228.96" style="stroke: #000000; stroke-width: 0.8"/>
      </g>
     </g>
     <g id="text_8">
      <!-- $\mathdefault{3500}$ -->
      <g transform="translate(335.934425 243.05832) scale(0.1 -0.1)">
       <use xlink:href="#CMR17-33" transform="scale(0.996264)"/>
       <use xlink:href="#CMR17-35" transform="translate(45.690477 0) scale(0.996264)"/>
       <use xlink:href="#CMR17-30" transform="translate(91.380954 0) scale(0.996264)"/>
       <use xlink:href="#CMR17-30" transform="translate(137.071431 0) scale(0.996264)"/>
      </g>
     </g>
    </g>
    <g id="text_9">
     <!-- Iteration -->
     <g transform="translate(189.787377 256.278627) scale(0.1 -0.1)">
      <defs>
       <path id="NimbusSanL-Regu-49" d="M 1242 4672 
L 640 4672 
L 640 0 
L 1242 0 
L 1242 4672 
z
" transform="scale(0.015625)"/>
       <path id="NimbusSanL-Regu-74" d="M 1626 3328 
L 1075 3328 
L 1075 4249 
L 544 4249 
L 544 3328 
L 90 3328 
L 90 2892 
L 544 2892 
L 544 402 
C 544 64 774 -128 1190 -128 
C 1318 -128 1446 -116 1626 -84 
L 1626 364 
C 1555 345 1472 339 1370 339 
C 1139 339 1075 402 1075 634 
L 1075 2892 
L 1626 2892 
L 1626 3328 
z
" transform="scale(0.015625)"/>
       <path id="NimbusSanL-Regu-65" d="M 3283 1484 
C 3283 1998 3245 2311 3149 2565 
C 2931 3123 2419 3456 1792 3456 
C 858 3456 256 2734 256 1619 
C 256 545 838 -128 1779 -128 
C 2547 -128 3078 307 3213 1018 
L 2675 1018 
C 2528 588 2227 364 1798 364 
C 1459 364 1171 514 992 787 
C 864 974 819 1161 813 1484 
L 3283 1484 
z
M 826 1920 
C 870 2552 1248 2963 1786 2963 
C 2310 2963 2714 2519 2714 1959 
C 2714 1946 2714 1933 2707 1920 
L 826 1920 
z
" transform="scale(0.015625)"/>
       <path id="NimbusSanL-Regu-72" d="M 442 3328 
L 442 0 
L 979 0 
L 979 1727 
C 979 2203 1101 2514 1357 2698 
C 1523 2819 1683 2857 2054 2863 
L 2054 3404 
C 1965 3449 1920 3456 1850 3456 
C 1504 3456 1242 3251 934 2750 
L 934 3328 
L 442 3328 
z
" transform="scale(0.015625)"/>
       <path id="NimbusSanL-Regu-61" d="M 3424 332 
C 3366 320 3341 320 3309 320 
C 3123 320 3021 415 3021 581 
L 3021 2542 
C 3021 3135 2586 3456 1760 3456 
C 1274 3456 870 3315 646 3065 
C 493 2893 429 2702 416 2370 
L 954 2370 
C 998 2778 1242 2963 1741 2963 
C 2221 2963 2490 2784 2490 2466 
L 2490 2326 
C 2490 2103 2355 2007 1933 1956 
C 1178 1861 1062 1835 858 1753 
C 467 1593 269 1294 269 861 
C 269 256 691 -128 1370 -128 
C 1792 -128 2131 19 2509 364 
C 2547 25 2714 -128 3059 -128 
C 3168 -128 3251 -116 3424 -71 
L 3424 332 
z
M 2490 1071 
C 2490 893 2438 785 2278 638 
C 2061 441 1798 339 1485 339 
C 1069 339 826 536 826 874 
C 826 1224 1062 1402 1632 1485 
C 2195 1562 2310 1587 2490 1670 
L 2490 1071 
z
" transform="scale(0.015625)"/>
       <path id="NimbusSanL-Regu-69" d="M 960 3358 
L 429 3358 
L 429 0 
L 960 0 
L 960 3358 
z
M 960 4672 
L 422 4672 
L 422 3999 
L 960 3999 
L 960 4672 
z
" transform="scale(0.015625)"/>
       <path id="NimbusSanL-Regu-6f" d="M 1741 3456 
C 800 3456 230 2784 230 1663 
C 230 543 794 -128 1747 -128 
C 2688 -128 3264 543 3264 1638 
C 3264 2791 2707 3456 1741 3456 
z
M 1747 2963 
C 2349 2963 2707 2472 2707 1644 
C 2707 861 2336 364 1747 364 
C 1152 364 787 855 787 1663 
C 787 2466 1152 2963 1747 2963 
z
" transform="scale(0.015625)"/>
       <path id="NimbusSanL-Regu-6e" d="M 448 3328 
L 448 0 
L 986 0 
L 986 1835 
C 986 2539 1344 2988 1894 2988 
C 2317 2988 2586 2732 2586 2328 
L 2586 0 
L 3117 0 
L 3117 2539 
C 3117 3097 2701 3456 2054 3456 
C 1555 3456 1235 3263 941 2796 
L 941 3328 
L 448 3328 
z
" transform="scale(0.015625)"/>
      </defs>
      <use xlink:href="#NimbusSanL-Regu-49" transform="scale(0.996264)"/>
      <use xlink:href="#NimbusSanL-Regu-74" transform="translate(27.69517 0) scale(0.996264)"/>
      <use xlink:href="#NimbusSanL-Regu-65" transform="translate(55.390339 0) scale(0.996264)"/>
      <use xlink:href="#NimbusSanL-Regu-72" transform="translate(110.782016 0) scale(0.996264)"/>
      <use xlink:href="#NimbusSanL-Regu-61" transform="translate(142.961149 0) scale(0.996264)"/>
      <use xlink:href="#NimbusSanL-Regu-74" transform="translate(198.352826 0) scale(0.996264)"/>
      <use xlink:href="#NimbusSanL-Regu-69" transform="translate(226.047996 0) scale(0.996264)"/>
      <use xlink:href="#NimbusSanL-Regu-6f" transform="translate(248.16478 0) scale(0.996264)"/>
      <use xlink:href="#NimbusSanL-Regu-6e" transform="translate(303.556457 0) scale(0.996264)"/>
     </g>
    </g>
   </g>
   <g id="matplotlib.axis_2">
    <g id="ytick_1">
     <g id="line2d_9">
      <defs>
       <path id="mcbb218ad11" d="M 0 0 
L -3.5 0 
" style="stroke: #000000; stroke-width: 0.8"/>
      </defs>
      <g>
       <use xlink:href="#mcbb218ad11" x="40.334753" y="217.855637" style="stroke: #000000; stroke-width: 0.8"/>
      </g>
     </g>
     <g id="text_10">
      <!-- $\mathdefault{−2}$ -->
      <g transform="translate(20.604674 221.404797) scale(0.1 -0.1)">
       <defs>
        <path id="CMSY10-0" d="M 4218 1472 
C 4326 1472 4442 1472 4442 1600 
C 4442 1728 4326 1728 4218 1728 
L 755 1728 
C 646 1728 531 1728 531 1600 
C 531 1472 646 1472 755 1472 
L 4218 1472 
z
" transform="scale(0.015625)"/>
       </defs>
       <use xlink:href="#CMSY10-0" transform="scale(0.996264)"/>
       <use xlink:href="#CMR17-32" transform="translate(77.487468 0) scale(0.996264)"/>
      </g>
     </g>
    </g>
    <g id="ytick_2">
     <g id="line2d_10">
      <g>
       <use xlink:href="#mcbb218ad11" x="40.334753" y="177.614792" style="stroke: #000000; stroke-width: 0.8"/>
      </g>
     </g>
     <g id="text_11">
      <!-- $\mathdefault{0}$ -->
      <g transform="translate(28.353418 181.163952) scale(0.1 -0.1)">
       <use xlink:href="#CMR17-30" transform="scale(0.996264)"/>
      </g>
     </g>
    </g>
    <g id="ytick_3">
     <g id="line2d_11">
      <g>
       <use xlink:href="#mcbb218ad11" x="40.334753" y="137.373947" style="stroke: #000000; stroke-width: 0.8"/>
      </g>
     </g>
     <g id="text_12">
      <!-- $\mathdefault{2}$ -->
      <g transform="translate(28.353418 140.923107) scale(0.1 -0.1)">
       <use xlink:href="#CMR17-32" transform="scale(0.996264)"/>
      </g>
     </g>
    </g>
    <g id="ytick_4">
     <g id="line2d_12">
      <g>
       <use xlink:href="#mcbb218ad11" x="40.334753" y="97.133102" style="stroke: #000000; stroke-width: 0.8"/>
      </g>
     </g>
     <g id="text_13">
      <!-- $\mathdefault{4}$ -->
      <g transform="translate(28.353418 100.682262) scale(0.1 -0.1)">
       <defs>
        <path id="CMR17-34" d="M 2150 4147 
C 2150 4281 2144 4288 2029 4288 
L 128 1254 
L 128 1088 
L 1779 1088 
L 1779 460 
C 1779 230 1766 166 1318 166 
L 1197 166 
L 1197 0 
C 1402 12 1747 12 1965 12 
C 2182 12 2528 12 2733 0 
L 2733 166 
L 2611 166 
C 2163 166 2150 230 2150 460 
L 2150 1088 
L 2803 1088 
L 2803 1254 
L 2150 1254 
L 2150 4147 
z
M 1798 3723 
L 1798 1254 
L 256 1254 
L 1798 3723 
z
" transform="scale(0.015625)"/>
       </defs>
       <use xlink:href="#CMR17-34" transform="scale(0.996264)"/>
      </g>
     </g>
    </g>
    <g id="ytick_5">
     <g id="line2d_13">
      <g>
       <use xlink:href="#mcbb218ad11" x="40.334753" y="56.892257" style="stroke: #000000; stroke-width: 0.8"/>
      </g>
     </g>
     <g id="text_14">
      <!-- $\mathdefault{6}$ -->
      <g transform="translate(28.353418 60.441417) scale(0.1 -0.1)">
       <defs>
        <path id="CMR17-36" d="M 678 2198 
C 678 3712 1395 4076 1811 4076 
C 1946 4076 2272 4049 2400 3782 
C 2298 3782 2106 3782 2106 3558 
C 2106 3385 2246 3328 2336 3328 
C 2394 3328 2566 3353 2566 3571 
C 2566 3987 2246 4224 1805 4224 
C 1043 4224 243 3411 243 2011 
C 243 257 966 -128 1478 -128 
C 2099 -128 2688 431 2688 1295 
C 2688 2101 2170 2688 1517 2688 
C 1126 2688 838 2430 678 1979 
L 678 2198 
z
M 1478 25 
C 691 25 691 1212 691 1450 
C 691 1914 909 2585 1504 2585 
C 1613 2585 1926 2585 2138 2140 
C 2253 1889 2253 1624 2253 1302 
C 2253 954 2253 696 2118 438 
C 1978 173 1773 25 1478 25 
z
" transform="scale(0.015625)"/>
       </defs>
       <use xlink:href="#CMR17-36" transform="scale(0.996264)"/>
      </g>
     </g>
    </g>
    <g id="ytick_6">
     <g id="line2d_14">
      <g>
       <use xlink:href="#mcbb218ad11" x="40.334753" y="16.651412" style="stroke: #000000; stroke-width: 0.8"/>
      </g>
     </g>
     <g id="text_15">
      <!-- $\mathdefault{8}$ -->
      <g transform="translate(28.353418 20.200572) scale(0.1 -0.1)">
       <defs>
        <path id="CMR17-38" d="M 1741 2289 
C 2144 2494 2554 2803 2554 3298 
C 2554 3884 1990 4224 1472 4224 
C 890 4224 378 3800 378 3215 
C 378 3054 416 2777 666 2533 
C 730 2469 998 2276 1171 2154 
C 883 2006 211 1652 211 945 
C 211 282 838 -128 1459 -128 
C 2144 -128 2720 366 2720 1022 
C 2720 1607 2330 1877 2074 2051 
L 1741 2289 
z
M 902 2855 
C 851 2887 595 3086 595 3388 
C 595 3781 998 4076 1459 4076 
C 1965 4076 2336 3716 2336 3298 
C 2336 2700 1670 2359 1638 2359 
C 1632 2359 1626 2359 1574 2398 
L 902 2855 
z
M 2080 1536 
C 2176 1466 2483 1253 2483 861 
C 2483 385 2010 25 1472 25 
C 890 25 448 443 448 951 
C 448 1459 838 1884 1280 2083 
L 2080 1536 
z
" transform="scale(0.015625)"/>
       </defs>
       <use xlink:href="#CMR17-38" transform="scale(0.996264)"/>
      </g>
     </g>
    </g>
    <g id="text_16">
     <!-- Aerodynamic Coefficients - Blade_1 -->
     <g transform="translate(14.482687 196.280864) rotate(-90) scale(0.1 -0.1)">
      <defs>
       <path id="NimbusSanL-Regu-41" d="M 3034 1408 
L 3514 0 
L 4179 0 
L 2541 4672 
L 1773 4672 
L 109 0 
L 742 0 
L 1235 1408 
L 3034 1408 
z
M 2867 1907 
L 1382 1907 
L 2150 4032 
L 2867 1907 
z
" transform="scale(0.015625)"/>
       <path id="NimbusSanL-Regu-64" d="M 3168 4672 
L 2637 4672 
L 2637 2937 
C 2413 3276 2054 3456 1606 3456 
C 736 3456 166 2759 166 1695 
C 166 568 723 -128 1626 -128 
C 2086 -128 2406 44 2694 460 
L 2694 19 
L 3168 19 
L 3168 4672 
z
M 1696 2956 
C 2272 2956 2637 2447 2637 1651 
C 2637 880 2266 371 1702 371 
C 1114 371 723 887 723 1663 
C 723 2440 1114 2956 1696 2956 
z
" transform="scale(0.015625)"/>
       <path id="NimbusSanL-Regu-79" d="M 2483 3328 
L 1555 724 
L 698 3328 
L 128 3328 
L 1261 -29 
L 1056 -558 
C 973 -794 851 -884 627 -884 
C 550 -884 461 -871 346 -845 
L 346 -1325 
C 454 -1383 563 -1408 704 -1408 
C 877 -1408 1062 -1351 1203 -1248 
C 1370 -1127 1466 -986 1568 -718 
L 3059 3328 
L 2483 3328 
z
" transform="scale(0.015625)"/>
       <path id="NimbusSanL-Regu-6d" d="M 448 3328 
L 448 0 
L 986 0 
L 986 2089 
C 986 2597 1338 2988 1773 2988 
C 2170 2988 2394 2744 2394 2315 
L 2394 0 
L 2931 0 
L 2931 2109 
C 2931 2597 3283 2988 3718 2988 
C 4109 2988 4339 2738 4339 2315 
L 4339 0 
L 4877 0 
L 4877 2520 
C 4877 3123 4531 3456 3904 3456 
C 3456 3456 3187 3321 2874 2943 
C 2675 3302 2406 3456 1971 3456 
C 1523 3456 1229 3289 941 2886 
L 941 3328 
L 448 3328 
z
" transform="scale(0.015625)"/>
       <path id="NimbusSanL-Regu-63" d="M 3014 2237 
C 2989 2561 2918 2771 2790 2956 
C 2560 3270 2157 3456 1690 3456 
C 787 3456 198 2740 198 1632 
C 198 555 774 -128 1683 -128 
C 2483 -128 2989 352 3053 1167 
L 2515 1167 
C 2426 632 2150 364 1696 364 
C 1107 364 755 842 755 1632 
C 755 2466 1101 2963 1683 2963 
C 2131 2963 2413 2701 2477 2237 
L 3014 2237 
z
" transform="scale(0.015625)"/>
       <path id="NimbusSanL-Regu-43" d="M 4237 3219 
C 4051 4236 3462 4736 2438 4736 
C 1811 4736 1306 4537 960 4154 
C 538 3696 307 3035 307 2284 
C 307 1522 544 867 986 415 
C 1344 44 1805 -128 2413 -128 
C 3552 -128 4192 485 4333 1712 
L 3718 1712 
C 3667 1394 3603 1178 3507 994 
C 3315 612 2918 396 2419 396 
C 1491 396 902 1134 902 2291 
C 902 3480 1466 4211 2368 4211 
C 2746 4211 3098 4096 3290 3918 
C 3462 3759 3558 3562 3629 3219 
L 4237 3219 
z
" transform="scale(0.015625)"/>
       <path id="NimbusSanL-Regu-66" d="M 1651 3328 
L 1094 3328 
L 1094 3860 
C 1094 4087 1222 4204 1466 4204 
C 1510 4204 1530 4204 1651 4198 
L 1651 4639 
C 1530 4665 1459 4672 1350 4672 
C 858 4672 563 4390 563 3905 
L 563 3328 
L 115 3328 
L 115 2892 
L 563 2892 
L 563 0 
L 1094 0 
L 1094 2892 
L 1651 2892 
L 1651 3328 
z
" transform="scale(0.015625)"/>
       <path id="NimbusSanL-Regu-2" d="M 1613 3328 
L 1056 3328 
L 1056 3860 
C 1056 4087 1184 4204 1427 4204 
C 1472 4204 1491 4204 1613 4198 
L 1613 4639 
C 1491 4665 1421 4672 1312 4672 
C 819 4672 525 4390 525 3905 
L 525 3328 
L 77 3328 
L 77 2892 
L 525 2892 
L 525 0 
L 1056 0 
L 1056 2892 
L 1613 2892 
L 1613 3328 
z
M 2790 3328 
L 2259 3328 
L 2259 0 
L 2790 0 
L 2790 3328 
z
M 2790 4672 
L 2259 4672 
L 2259 3999 
L 2790 3999 
L 2790 4672 
z
" transform="scale(0.015625)"/>
       <path id="NimbusSanL-Regu-73" d="M 2803 2428 
C 2797 3084 2362 3456 1587 3456 
C 806 3456 301 3052 301 2434 
C 301 1912 570 1663 1363 1472 
L 1862 1351 
C 2234 1262 2381 1129 2381 887 
C 2381 574 2067 364 1600 364 
C 1312 364 1069 447 934 587 
C 851 683 813 778 781 1014 
L 218 1014 
C 243 243 678 -128 1555 -128 
C 2400 -128 2938 288 2938 931 
C 2938 1428 2656 1702 1990 1861 
L 1478 1982 
C 1043 2084 858 2224 858 2459 
C 858 2765 1133 2963 1568 2963 
C 1997 2963 2227 2778 2240 2428 
L 2803 2428 
z
" transform="scale(0.015625)"/>
       <path id="NimbusSanL-Regu-2d" d="M 1818 1996 
L 294 1996 
L 294 1536 
L 1818 1536 
L 1818 1996 
z
" transform="scale(0.015625)"/>
       <path id="NimbusSanL-Regu-42" d="M 506 0 
L 2611 0 
C 3053 0 3379 121 3629 390 
C 3859 632 3987 961 3987 1321 
C 3987 1878 3731 2214 3136 2444 
C 3558 2643 3782 2994 3782 3476 
C 3782 3821 3654 4127 3411 4345 
C 3168 4569 2848 4672 2400 4672 
L 506 4672 
L 506 0 
z
M 1101 2636 
L 1101 4147 
L 2253 4147 
C 2586 4147 2771 4101 2931 3977 
C 3098 3847 3187 3652 3187 3391 
C 3187 3138 3098 2936 2931 2806 
C 2771 2682 2586 2636 2253 2636 
L 1101 2636 
z
M 1101 524 
L 1101 2112 
L 2554 2112 
C 2842 2112 3034 2042 3174 1890 
C 3315 1745 3392 1542 3392 1315 
C 3392 1093 3315 891 3174 746 
C 3034 594 2842 524 2554 524 
L 1101 524 
z
" transform="scale(0.015625)"/>
       <path id="NimbusSanL-Regu-6c" d="M 973 4672 
L 435 4672 
L 435 0 
L 973 0 
L 973 4672 
z
" transform="scale(0.015625)"/>
       <path id="NimbusSanL-Regu-31" d="M 1658 3232 
L 1658 0 
L 2221 0 
L 2221 4537 
L 1850 4537 
C 1651 3840 1523 3744 653 3635 
L 653 3232 
L 1658 3232 
z
" transform="scale(0.015625)"/>
      </defs>
      <use xlink:href="#NimbusSanL-Regu-41" transform="scale(0.996264)"/>
      <use xlink:href="#NimbusSanL-Regu-65" transform="translate(66.450031 0) scale(0.996264)"/>
      <use xlink:href="#NimbusSanL-Regu-72" transform="translate(121.841708 0) scale(0.996264)"/>
      <use xlink:href="#NimbusSanL-Regu-6f" transform="translate(155.016938 0) scale(0.996264)"/>
      <use xlink:href="#NimbusSanL-Regu-64" transform="translate(210.408615 0) scale(0.996264)"/>
      <use xlink:href="#NimbusSanL-Regu-79" transform="translate(265.800292 0) scale(0.996264)"/>
      <use xlink:href="#NimbusSanL-Regu-6e" transform="translate(315.613492 0) scale(0.996264)"/>
      <use xlink:href="#NimbusSanL-Regu-61" transform="translate(371.005169 0) scale(0.996264)"/>
      <use xlink:href="#NimbusSanL-Regu-6d" transform="translate(426.396846 0) scale(0.996264)"/>
      <use xlink:href="#NimbusSanL-Regu-69" transform="translate(509.385276 0) scale(0.996264)"/>
      <use xlink:href="#NimbusSanL-Regu-63" transform="translate(531.502061 0) scale(0.996264)"/>
      <use xlink:href="#NimbusSanL-Regu-43" transform="translate(609.010431 0) scale(0.996264)"/>
      <use xlink:href="#NimbusSanL-Regu-6f" transform="translate(680.940416 0) scale(0.996264)"/>
      <use xlink:href="#NimbusSanL-Regu-65" transform="translate(736.332093 0) scale(0.996264)"/>
      <use xlink:href="#NimbusSanL-Regu-66" transform="translate(791.72377 0) scale(0.996264)"/>
      <use xlink:href="#NimbusSanL-Regu-2" transform="translate(819.418939 0) scale(0.996264)"/>
      <use xlink:href="#NimbusSanL-Regu-63" transform="translate(869.23214 0) scale(0.996264)"/>
      <use xlink:href="#NimbusSanL-Regu-69" transform="translate(919.04534 0) scale(0.996264)"/>
      <use xlink:href="#NimbusSanL-Regu-65" transform="translate(941.162125 0) scale(0.996264)"/>
      <use xlink:href="#NimbusSanL-Regu-6e" transform="translate(996.553802 0) scale(0.996264)"/>
      <use xlink:href="#NimbusSanL-Regu-74" transform="translate(1051.945479 0) scale(0.996264)"/>
      <use xlink:href="#NimbusSanL-Regu-73" transform="translate(1079.640648 0) scale(0.996264)"/>
      <use xlink:href="#NimbusSanL-Regu-2d" transform="translate(1157.149018 0) scale(0.996264)"/>
      <use xlink:href="#NimbusSanL-Regu-42" transform="translate(1218.019418 0) scale(0.996264)"/>
      <use xlink:href="#NimbusSanL-Regu-6c" transform="translate(1284.469449 0) scale(0.996264)"/>
      <use xlink:href="#NimbusSanL-Regu-61" transform="translate(1306.586233 0) scale(0.996264)"/>
      <use xlink:href="#NimbusSanL-Regu-64" transform="translate(1361.97791 0) scale(0.996264)"/>
      <use xlink:href="#NimbusSanL-Regu-65" transform="translate(1417.369587 0) scale(0.996264)"/>
      <use xlink:href="#NimbusSanL-Regu-31" transform="translate(1508.626829 0) scale(0.996264)"/>
      <path d="M 1478.738605 0 
L 1508.626829 0 
L 1508.626829 0.3985 
L 1478.738605 0.3985 
L 1478.738605 0 
z
"/>
     </g>
    </g>
   </g>
   <g id="line2d_15">
    <path d="M 55.552935 120.746657 
L 55.801801 17.676124 
L 55.884757 17.28 
L 56.050668 20.307102 
L 56.465445 32.101486 
L 56.714311 32.7556 
L 56.963178 35.690157 
L 57.212044 40.851733 
L 57.377955 44.546738 
L 57.626822 45.979119 
L 57.875688 49.309279 
L 58.124554 56.994494 
L 58.290465 68.037523 
L 58.622287 95.642921 
L 58.871154 104.599427 
L 59.12002 124.30482 
L 59.617753 177.899208 
L 59.866619 184.116343 
L 60.198441 199.902704 
L 60.613219 217.475129 
L 60.77913 218.349981 
L 61.525729 218.821202 
L 61.608684 218.549358 
L 62.023462 215.86704 
L 62.272328 214.642706 
L 62.521195 211.56704 
L 62.687105 206.847784 
L 62.935972 189.105457 
L 63.101883 179.90809 
L 63.350749 176.637898 
L 63.599616 169.344619 
L 63.848482 154.872285 
L 64.180304 130.511525 
L 64.42917 127.783009 
L 64.760992 120.701336 
L 65.092814 113.445593 
L 65.17577 113.391219 
L 65.341681 114.998982 
L 65.590547 115.843463 
L 65.839414 117.924802 
L 66.08828 122.9837 
L 66.420102 137.882262 
L 66.586013 142.828923 
L 66.834879 144.412112 
L 67.083746 147.657282 
L 67.415568 155.893912 
L 67.830345 169.403425 
L 68.079211 170.810107 
L 68.328078 173.806168 
L 68.576944 179.468741 
L 68.825811 185.448396 
L 69.074677 186.502211 
L 69.323543 188.48431 
L 69.738321 194.470007 
L 70.070143 198.998342 
L 70.816742 199.273443 
L 70.982653 198.853599 
L 71.148564 198.349767 
L 71.480386 198.052215 
L 71.729252 197.500877 
L 71.978119 196.289205 
L 72.226985 193.437198 
L 72.558807 189.89051 
L 72.807673 188.944609 
L 73.05654 186.880738 
L 73.305406 182.577649 
L 73.554273 173.470889 
L 73.720184 168.453454 
L 73.96905 166.812249 
L 74.217916 163.347239 
L 74.466783 157.014535 
L 74.964516 141.604158 
L 75.213382 139.895384 
L 75.545204 135.576877 
L 75.959981 130.643048 
L 76.042937 131.300167 
L 76.208848 133.094398 
L 76.457714 133.850453 
L 76.706581 135.530881 
L 76.955447 138.995085 
L 77.370224 146.137297 
L 77.619091 147.376437 
L 77.867957 149.821837 
L 78.199779 155.766494 
L 78.36569 157.846927 
L 78.614557 158.459954 
L 78.863423 159.699718 
L 79.195245 162.580798 
L 79.527067 165.896255 
L 79.775933 166.244063 
L 80.107755 167.22295 
L 80.605488 168.786714 
L 80.771399 168.593431 
L 81.103221 168.418957 
L 81.352087 167.988516 
L 81.517998 167.31146 
L 81.683909 165.953421 
L 81.84982 164.734275 
L 82.098687 164.30736 
L 82.347553 163.340671 
L 82.596419 161.30763 
L 83.094152 155.501075 
L 83.343019 154.861247 
L 83.674841 153.29776 
L 84.089618 151.47785 
L 84.836217 151.320582 
L 85.002128 151.620208 
L 85.33395 152.454678 
L 85.582816 152.703999 
L 85.831683 153.282573 
L 86.080549 154.578134 
L 86.329416 156.144478 
L 86.578282 156.429321 
L 86.827149 157.016637 
L 87.076015 158.087923 
L 87.573748 160.728214 
L 87.90557 161.148896 
L 88.735125 162.64549 
L 89.315813 162.625668 
L 89.564679 162.339185 
L 90.062412 161.278124 
L 90.311279 160.970542 
L 90.560145 160.331447 
L 90.809011 159.117651 
L 90.974922 158.472157 
L 91.306744 158.145701 
L 91.555611 157.575848 
L 91.887433 156.09432 
L 92.219254 154.787567 
L 92.468121 154.474649 
L 92.799943 154.522593 
L 93.297676 154.674727 
L 93.546542 154.938039 
L 93.795408 155.269071 
L 94.293141 155.45388 
L 94.87383 155.7842 
L 95.952251 155.412316 
L 96.367028 155.417644 
L 96.615895 155.518563 
L 97.030672 155.648872 
L 97.279538 155.929882 
L 97.445449 156.392505 
L 97.860227 157.885445 
L 98.109093 158.157252 
L 98.35796 158.708419 
L 98.606826 159.705532 
L 98.855692 160.762731 
L 99.187514 161.046912 
L 99.519336 161.695989 
L 100.017069 162.72858 
L 100.680713 162.689407 
L 100.846624 162.422908 
L 101.012535 161.690401 
L 101.510268 158.863211 
L 101.759134 158.444592 
L 102.008 157.579855 
L 102.256867 156.00635 
L 102.505733 154.373558 
L 102.7546 154.091867 
L 103.003466 153.525994 
L 103.335288 152.173179 
L 103.66711 150.911705 
L 104.164843 150.658157 
L 104.413709 150.575391 
L 104.57962 150.77874 
L 104.911442 151.563615 
L 105.243264 151.915416 
L 105.49213 152.536674 
L 105.740997 153.794224 
L 105.906908 154.452982 
L 106.23873 154.778641 
L 106.570552 155.547138 
L 106.902373 156.979665 
L 107.068284 157.495142 
L 107.400106 157.737974 
L 107.731928 158.298345 
L 108.312617 159.377912 
L 109.142171 159.327277 
L 109.473993 159.004162 
L 109.888771 158.790657 
L 110.137637 158.432556 
L 110.386503 157.620551 
L 110.552414 157.150159 
L 110.884236 156.910503 
L 111.216058 156.302096 
L 111.54788 155.075329 
L 111.713791 154.646062 
L 112.045613 154.449111 
L 112.377435 153.999883 
L 112.792212 153.392371 
L 113.621767 153.403775 
L 113.787678 153.689278 
L 113.953589 153.981295 
L 114.368366 154.220511 
L 114.617233 154.604469 
L 114.866099 155.384252 
L 115.280876 156.963028 
L 115.612698 157.181561 
L 115.94452 157.73407 
L 116.525209 158.907801 
L 116.85703 159.188289 
L 117.188852 159.781535 
L 117.60363 160.529701 
L 118.350229 160.554189 
L 118.51614 160.294375 
L 118.682051 159.991122 
L 119.013873 159.814867 
L 119.262739 159.478404 
L 119.511606 158.724363 
L 119.926383 156.916937 
L 120.175249 156.593107 
L 120.424116 155.948314 
L 120.755938 154.312264 
L 120.921849 153.695615 
L 121.253671 153.402765 
L 121.585492 152.749137 
L 122.083225 151.617436 
L 122.829825 151.694709 
L 122.995736 151.906457 
L 123.327557 152.456785 
L 123.659379 152.684896 
L 123.908246 153.077525 
L 124.157112 153.875995 
L 124.986667 157.816479 
L 125.318489 158.089811 
L 125.650311 158.68146 
L 126.065088 159.517436 
L 126.977598 159.63253 
L 127.143509 159.489663 
L 127.641242 159.302676 
L 127.890109 159.012719 
L 128.138975 158.347329 
L 128.304886 157.952008 
L 128.636708 157.748073 
L 128.96853 157.225993 
L 129.300352 156.10344 
L 129.549218 155.338329 
L 129.88104 155.137536 
L 130.212862 154.655284 
L 130.876506 153.427897 
L 132.120838 153.291736 
L 132.535615 153.435406 
L 132.784482 153.745186 
L 133.199259 154.45063 
L 133.531081 154.643402 
L 133.862903 155.136552 
L 134.27768 155.973285 
L 134.609502 156.191574 
L 134.941324 156.705475 
L 135.522012 157.860462 
L 135.853834 158.118602 
L 136.600433 158.853777 
L 137.181122 158.76458 
L 137.429988 158.517423 
L 137.76181 158.090733 
L 138.176587 157.848517 
L 138.425454 157.484429 
L 138.67432 156.735854 
L 138.923187 156.038557 
L 139.255009 155.849548 
L 139.58683 155.398709 
L 140.084563 154.559517 
L 140.499341 154.360727 
L 141.328895 153.836438 
L 142.075495 153.872178 
L 142.490272 154.077958 
L 142.905049 154.236702 
L 143.236871 154.629796 
L 143.734604 155.461247 
L 144.149382 155.702209 
L 144.481203 156.185171 
L 144.73007 156.579336 
L 145.227803 156.778948 
L 145.64258 157.221938 
L 145.891447 157.466854 
L 147.135779 157.487816 
L 147.633511 157.317102 
L 147.882378 157.012085 
L 148.131244 156.570348 
L 148.546022 156.374557 
L 148.877844 155.946403 
L 149.458532 154.957671 
L 149.873309 154.6408 
L 150.619909 153.845036 
L 150.868775 154.040882 
L 151.200597 154.60503 
L 152.279018 156.773126 
L 152.61084 156.950955 
L 152.942662 156.841174 
L 153.357439 156.392566 
L 154.518816 154.887595 
L 155.099504 154.693943 
L 155.597237 154.495273 
L 156.509747 154.521051 
L 156.758614 154.591308 
L 157.339302 154.734579 
L 158.251812 155.18254 
L 158.66659 155.503625 
L 158.915456 155.746619 
L 159.496144 155.908431 
L 160.242744 156.234993 
L 160.574566 156.079332 
L 161.072298 155.808677 
L 161.570031 155.613525 
L 162.233675 155.206494 
L 162.731408 154.984876 
L 163.312096 154.67095 
L 165.137117 154.527412 
L 165.717805 154.633671 
L 166.298493 154.832431 
L 166.879182 155.184522 
L 167.542825 155.359186 
L 168.040558 155.514491 
L 170.280356 155.590209 
L 171.026955 155.433768 
L 171.441733 155.299495 
L 172.105377 155.110533 
L 172.603109 154.911437 
L 173.266753 154.743023 
L 173.847441 154.578257 
L 174.345174 154.673536 
L 175.755417 155.13279 
L 176.584972 155.28097 
L 177.580438 155.288608 
L 178.492948 155.144536 
L 179.073636 154.910647 
L 179.903191 154.607459 
L 180.898657 154.586433 
L 182.225944 154.74771 
L 182.806633 154.856001 
L 186.207807 155.025192 
L 187.61805 154.844799 
L 189.857848 154.565779 
L 191.351047 154.587852 
L 192.595379 154.70928 
L 194.669266 154.855865 
L 196.162464 154.838288 
L 197.987485 154.707838 
L 199.480683 154.557344 
L 202.964813 154.617891 
L 209.103518 154.570478 
L 212.753559 154.507857 
L 217.647932 154.576653 
L 220.468418 154.455277 
L 264.683686 154.36085 
L 341.749322 154.444544 
L 359.916571 154.465459 
L 359.916571 154.465459 
" clip-path="url(#pf4853a1d78)" style="fill: none; stroke: #1f77b4; stroke-width: 1.5; stroke-linecap: square"/>
   </g>
   <g id="line2d_16">
    <path d="M 55.552935 190.913549 
L 55.718846 210.516936 
L 55.801801 210.36244 
L 56.050668 208.610631 
L 56.299534 207.041684 
L 56.382489 206.988739 
L 56.880222 207.934524 
L 57.129089 209.914138 
L 57.377955 212.045341 
L 57.626822 212.441645 
L 57.958643 213.627849 
L 58.290465 214.680921 
L 58.373421 214.266981 
L 58.539332 212.929217 
L 58.788198 212.323312 
L 59.037065 210.705617 
L 59.202976 208.2625 
L 59.617753 199.790976 
L 59.866619 198.147132 
L 60.198441 193.658895 
L 60.77913 184.827852 
L 60.945041 184.497287 
L 61.193907 183.333523 
L 61.442773 180.891805 
L 61.940506 174.139192 
L 62.189373 173.316668 
L 62.521195 171.227635 
L 62.935972 167.95634 
L 63.018927 168.046647 
L 63.350749 168.263481 
L 63.51666 168.575884 
L 63.682571 169.325906 
L 63.848482 171.07569 
L 64.26326 177.923677 
L 64.512126 179.166599 
L 64.843948 182.530518 
L 65.424636 189.452256 
L 65.673503 190.211322 
L 65.922369 191.833319 
L 66.171235 195.03283 
L 66.586013 202.033248 
L 66.834879 202.647067 
L 67.166701 204.413698 
L 67.664434 207.326947 
L 67.830345 207.388646 
L 68.328078 207.25867 
L 68.493989 207.011793 
L 68.6599 206.315936 
L 68.825811 205.570181 
L 69.074677 205.284328 
L 69.323543 204.675189 
L 69.57241 203.402943 
L 69.821276 200.910169 
L 70.236054 196.394823 
L 70.48492 195.71036 
L 70.816742 193.802586 
L 71.231519 191.160042 
L 71.480386 190.73249 
L 71.729252 189.894725 
L 72.061074 187.70217 
L 72.475851 183.820556 
L 72.724718 183.415987 
L 72.973584 182.546849 
L 73.305406 180.220873 
L 73.720184 176.618166 
L 74.052006 176.290508 
L 74.383827 175.870222 
L 74.466783 175.905778 
L 74.632694 176.585259 
L 74.964516 178.994526 
L 75.213382 179.683903 
L 75.462249 181.159012 
L 75.711115 184.003606 
L 76.291803 192.338275 
L 76.54067 192.975777 
L 76.872492 194.539788 
L 77.370224 196.937924 
L 77.785002 197.344217 
L 78.033868 197.483708 
L 78.199779 197.05487 
L 78.36569 196.436812 
L 78.614557 196.205971 
L 78.863423 195.64817 
L 79.112289 194.444564 
L 79.361156 192.0264 
L 79.527067 190.897352 
L 79.775933 190.556987 
L 80.107755 189.571938 
L 80.771399 187.319071 
L 81.269132 187.111532 
L 81.600954 186.782789 
L 81.84982 186.474925 
L 82.430508 186.267948 
L 82.76233 186.201463 
L 83.177108 186.616017 
L 83.50893 186.863094 
L 83.840752 187.447459 
L 84.089618 187.993301 
L 84.504395 188.228248 
L 84.836217 188.720857 
L 85.085084 189.421129 
L 85.250995 189.799668 
L 85.582816 189.995984 
L 85.914638 190.510739 
L 86.412371 191.559743 
L 86.827149 191.815822 
L 87.573748 192.497398 
L 88.735125 192.397513 
L 89.481724 192.267323 
L 89.73059 192.054629 
L 89.896501 191.853453 
L 90.311279 191.677543 
L 90.560145 191.362887 
L 90.809011 190.71252 
L 90.974922 190.35118 
L 91.306744 190.168309 
L 91.638566 189.668805 
L 91.970388 188.578087 
L 92.30221 187.70768 
L 92.468121 187.632209 
L 93.380631 188.444137 
L 93.629498 189.368304 
L 93.795408 189.956881 
L 94.12723 190.268157 
L 94.376097 190.817911 
L 94.624963 191.881381 
L 95.454518 196.553737 
L 95.78634 196.74625 
L 96.449984 197.309374 
L 97.030672 197.191167 
L 97.279538 196.91549 
L 97.445449 196.444835 
L 97.860227 194.866893 
L 98.109093 194.571634 
L 98.35796 193.964557 
L 98.606826 192.836491 
L 98.855692 191.595878 
L 99.187514 191.252801 
L 99.519336 190.43465 
L 99.851158 188.932897 
L 100.017069 188.433829 
L 100.348891 188.20555 
L 100.846624 187.444697 
L 101.012535 187.276551 
L 101.178446 187.395822 
L 101.510268 187.908744 
L 101.84209 188.157417 
L 102.090956 188.608497 
L 102.339822 189.569835 
L 102.505733 190.114276 
L 102.837555 190.397417 
L 103.169377 191.100899 
L 103.501199 192.603838 
L 103.66711 193.193272 
L 103.998932 193.478658 
L 104.330754 194.150558 
L 104.911442 195.577849 
L 105.326219 195.79172 
L 105.658041 195.958553 
L 106.487596 195.527482 
L 106.736463 195.06119 
L 107.15124 193.820852 
L 107.483062 193.462167 
L 107.731928 192.876931 
L 107.980795 191.825601 
L 108.312617 190.269892 
L 108.644438 189.99661 
L 108.97626 189.329003 
L 109.473993 188.232162 
L 109.888771 188.00975 
L 110.303548 187.787857 
L 111.299014 188.700945 
L 111.54788 189.697208 
L 111.713791 190.282031 
L 112.045613 190.581464 
L 112.294479 191.100009 
L 112.543346 192.030598 
L 112.792212 193.031253 
L 113.124034 193.303133 
L 113.455856 193.957058 
L 114.1195 195.590478 
L 114.534277 195.96758 
L 114.949054 196.417913 
L 115.114965 196.32596 
L 115.280876 196.13966 
L 115.695654 195.964238 
L 115.94452 195.636235 
L 116.193387 194.855403 
L 116.359298 194.380666 
L 116.691119 194.132301 
L 116.939986 193.69981 
L 117.188852 192.892473 
L 117.686585 191.013321 
L 118.018407 190.688646 
L 118.433184 189.827321 
L 118.682051 189.394311 
L 119.262739 189.184241 
L 119.594561 189.140337 
L 120.009338 189.480982 
L 120.34116 189.703673 
L 120.590027 190.13103 
L 121.004804 191.159534 
L 121.336626 191.453196 
L 121.668448 192.142782 
L 122.00027 193.502329 
L 122.166181 193.961178 
L 122.498003 194.181968 
L 122.829825 194.703743 
L 123.327557 195.625535 
L 123.742335 195.845625 
L 124.405979 196.331477 
L 124.654845 196.003667 
L 124.903711 195.595169 
L 125.318489 195.416685 
L 125.650311 195.00497 
L 125.899177 194.343889 
L 126.065088 193.994067 
L 126.39691 193.821783 
L 126.728732 193.385879 
L 127.226465 192.487577 
L 127.641242 192.250236 
L 128.138975 191.597428 
L 128.304886 191.483425 
L 129.300352 191.448991 
L 129.632174 191.689249 
L 130.046951 191.844377 
L 130.378773 192.218873 
L 130.959461 193.148548 
L 131.291283 193.384382 
L 131.623105 193.904345 
L 131.871971 194.341973 
L 132.286749 194.512213 
L 132.701526 194.96033 
L 133.116303 195.447098 
L 134.609502 195.494753 
L 135.024279 195.308706 
L 135.522012 194.896091 
L 135.93679 194.678154 
L 136.268611 194.207693 
L 136.600433 193.553539 
L 137.015211 193.367539 
L 137.347033 192.993501 
L 137.76181 192.514982 
L 138.259543 192.324931 
L 138.840231 192.045256 
L 139.669786 192.179165 
L 140.33343 192.551571 
L 140.665252 192.759559 
L 140.914118 193.104464 
L 141.162984 193.524571 
L 141.577762 193.699712 
L 141.909584 194.06494 
L 142.407317 194.780141 
L 142.822094 194.961787 
L 143.568693 195.438035 
L 144.315293 195.333473 
L 144.564159 195.110265 
L 144.73007 194.960088 
L 145.227803 194.796611 
L 145.559625 194.464532 
L 145.974402 193.951026 
L 146.389179 193.77396 
L 147.218734 193.246407 
L 148.380111 193.14032 
L 148.877844 193.266838 
L 149.12671 193.484537 
L 149.292621 193.617521 
L 149.790354 193.758441 
L 150.205131 194.122826 
L 150.78582 194.778669 
L 151.283552 195.027553 
L 151.864241 195.053847 
L 152.444929 194.852297 
L 153.938128 194.097767 
L 155.016549 194.404338 
L 155.348371 194.62586 
L 155.514282 194.724694 
L 156.09497 194.859414 
L 157.256347 195.31772 
L 158.002946 195.431934 
L 158.749545 195.370885 
L 159.081367 195.318005 
L 159.745011 195.163714 
L 160.906387 194.634199 
L 162.731408 194.711911 
L 164.722339 195.042561 
L 167.625781 195.349175 
L 172.76902 194.975157 
L 173.51562 195.123953 
L 174.676996 195.444209 
L 175.921328 195.431761 
L 178.82477 195.252426 
L 180.64979 195.429553 
L 183.387321 195.557716 
L 187.783961 195.459272 
L 194.420399 195.604604 
L 200.476149 195.614518 
L 233.990161 195.6318 
L 247.345992 195.597997 
L 259.789313 195.543225 
L 281.772514 195.404107 
L 296.787455 195.314167 
L 357.510862 195.116269 
L 359.916571 195.110156 
L 359.916571 195.110156 
" clip-path="url(#pf4853a1d78)" style="fill: none; stroke: #ff7f0e; stroke-width: 1.5; stroke-linecap: square"/>
   </g>
   <g id="patch_3">
    <path d="M 40.334753 228.96 
L 40.334753 7.2 
" style="fill: none; stroke: #000000; stroke-width: 0.8; stroke-linejoin: miter; stroke-linecap: square"/>
   </g>
   <g id="patch_4">
    <path d="M 375.134753 228.96 
L 375.134753 7.2 
" style="fill: none; stroke: #000000; stroke-width: 0.8; stroke-linejoin: miter; stroke-linecap: square"/>
   </g>
   <g id="patch_5">
    <path d="M 40.334753 228.96 
L 375.134753 228.96 
" style="fill: none; stroke: #000000; stroke-width: 0.8; stroke-linejoin: miter; stroke-linecap: square"/>
   </g>
   <g id="patch_6">
    <path d="M 40.334753 7.2 
L 375.134753 7.2 
" style="fill: none; stroke: #000000; stroke-width: 0.8; stroke-linejoin: miter; stroke-linecap: square"/>
   </g>
   <g id="legend_1">
    <g id="patch_7">
     <path d="M 321.748759 43.640613 
L 368.134753 43.640613 
Q 370.134753 43.640613 370.134753 41.640613 
L 370.134753 14.2 
Q 370.134753 12.2 368.134753 12.2 
L 321.748759 12.2 
Q 319.748759 12.2 319.748759 14.2 
L 319.748759 41.640613 
Q 319.748759 43.640613 321.748759 43.640613 
z
" style="fill: #ffffff; opacity: 0.8; stroke: #cccccc; stroke-linejoin: miter"/>
    </g>
    <g id="line2d_17">
     <path d="M 323.748759 19.79832 
L 333.748759 19.79832 
L 343.748759 19.79832 
" style="fill: none; stroke: #1f77b4; stroke-width: 1.5; stroke-linecap: square"/>
    </g>
    <g id="text_17">
     <!-- CD -->
     <g transform="translate(351.748759 23.29832) scale(0.1 -0.1)">
      <defs>
       <path id="NimbusSanL-Regu-44" d="M 570 0 
L 2368 0 
C 3546 0 4269 883 4269 2339 
C 4269 3788 3552 4672 2368 4672 
L 570 4672 
L 570 0 
z
M 1165 524 
L 1165 4147 
L 2266 4147 
C 3187 4147 3674 3525 3674 2332 
C 3674 1153 3187 524 2266 524 
L 1165 524 
z
" transform="scale(0.015625)"/>
      </defs>
      <use xlink:href="#NimbusSanL-Regu-43" transform="scale(0.996264)"/>
      <use xlink:href="#NimbusSanL-Regu-44" transform="translate(71.929985 0) scale(0.996264)"/>
     </g>
    </g>
    <g id="line2d_18">
     <path d="M 323.748759 34.018627 
L 333.748759 34.018627 
L 343.748759 34.018627 
" style="fill: none; stroke: #ff7f0e; stroke-width: 1.5; stroke-linecap: square"/>
    </g>
    <g id="text_18">
     <!-- CL -->
     <g transform="translate(351.748759 37.518627) scale(0.1 -0.1)">
      <defs>
       <path id="NimbusSanL-Regu-4c" d="M 1107 4672 
L 512 4672 
L 512 0 
L 3411 0 
L 3411 524 
L 1107 524 
L 1107 4672 
z
" transform="scale(0.015625)"/>
      </defs>
      <use xlink:href="#NimbusSanL-Regu-43" transform="scale(0.996264)"/>
      <use xlink:href="#NimbusSanL-Regu-4c" transform="translate(71.929985 0) scale(0.996264)"/>
     </g>
    </g>
   </g>
  </g>
 </g>
 <defs>
  <clipPath id="pf4853a1d78">
   <rect x="40.334753" y="7.2" width="334.8" height="221.76"/>
  </clipPath>
 </defs>
</svg>
