<?xml version="1.0" encoding="utf-8" standalone="no"?>
<!DOCTYPE svg PUBLIC "-//W3C//DTD SVG 1.1//EN"
  "http://www.w3.org/Graphics/SVG/1.1/DTD/svg11.dtd">
<svg xmlns:xlink="http://www.w3.org/1999/xlink" width="379.567344pt" height="265.600613pt" viewBox="0 0 379.567344 265.600613" xmlns="http://www.w3.org/2000/svg" version="1.1">
 <metadata>
  <rdf:RDF xmlns:dc="http://purl.org/dc/elements/1.1/" xmlns:cc="http://creativecommons.org/ns#" xmlns:rdf="http://www.w3.org/1999/02/22-rdf-syntax-ns#">
   <cc:Work>
    <dc:type rdf:resource="http://purl.org/dc/dcmitype/StillImage"/>
    <dc:date>2025-07-16T22:17:08.165974</dc:date>
    <dc:format>image/svg+xml</dc:format>
    <dc:creator>
     <cc:Agent>
      <dc:title>Matplotlib v3.10.3, https://matplotlib.org/</dc:title>
     </cc:Agent>
    </dc:creator>
   </cc:Work>
  </rdf:RDF>
 </metadata>
 <defs>
  <style type="text/css">*{stroke-linejoin: round; stroke-linecap: butt}</style>
 </defs>
 <g id="figure_1">
  <g id="patch_1">
   <path d="M 0 265.600613 
L 379.567344 265.600613 
L 379.567344 0 
L 0 0 
z
" style="fill: #ffffff"/>
  </g>
  <g id="axes_1">
   <g id="patch_2">
    <path d="M 37.567344 228.96 
L 372.367344 228.96 
L 372.367344 7.2 
L 37.567344 7.2 
z
" style="fill: #ffffff"/>
   </g>
   <g id="matplotlib.axis_1">
    <g id="xtick_1">
     <g id="line2d_1">
      <defs>
       <path id="mac6548c082" d="M 0 0 
L 0 3.5 
" style="stroke: #000000; stroke-width: 0.8"/>
      </defs>
      <g>
       <use xlink:href="#mac6548c082" x="52.785526" y="228.96" style="stroke: #000000; stroke-width: 0.8"/>
      </g>
     </g>
     <g id="text_1">
      <!-- $\mathdefault{0}$ -->
      <g transform="translate(50.294859 243.05832) scale(0.1 -0.1)">
       <defs>
        <path id="CMR17-30" d="M 2688 2038 
C 2688 2430 2682 3099 2413 3613 
C 2176 4063 1798 4224 1466 4224 
C 1158 4224 768 4082 525 3620 
C 269 3137 243 2539 243 2038 
C 243 1671 250 1112 448 623 
C 723 -39 1216 -128 1466 -128 
C 1760 -128 2208 -7 2470 604 
C 2662 1048 2688 1568 2688 2038 
z
M 1466 -26 
C 1056 -26 813 328 723 816 
C 653 1196 653 1749 653 2109 
C 653 2604 653 3015 736 3407 
C 858 3954 1216 4121 1466 4121 
C 1728 4121 2067 3947 2189 3420 
C 2272 3054 2278 2623 2278 2109 
C 2278 1691 2278 1176 2202 797 
C 2067 96 1690 -26 1466 -26 
z
" transform="scale(0.015625)"/>
       </defs>
       <use xlink:href="#CMR17-30" transform="scale(0.996264)"/>
      </g>
     </g>
    </g>
    <g id="xtick_2">
     <g id="line2d_2">
      <g>
       <use xlink:href="#mac6548c082" x="94.263264" y="228.96" style="stroke: #000000; stroke-width: 0.8"/>
      </g>
     </g>
     <g id="text_2">
      <!-- $\mathdefault{500}$ -->
      <g transform="translate(86.791261 243.05832) scale(0.1 -0.1)">
       <defs>
        <path id="CMR17-35" d="M 730 3750 
C 794 3724 1056 3641 1325 3641 
C 1920 3641 2246 3961 2432 4140 
C 2432 4191 2432 4224 2394 4224 
C 2387 4224 2374 4224 2323 4198 
C 2099 4102 1837 4032 1517 4032 
C 1325 4032 1037 4055 723 4191 
C 653 4224 640 4224 634 4224 
C 602 4224 595 4217 595 4090 
L 595 2231 
C 595 2113 595 2080 659 2080 
C 691 2080 704 2093 736 2139 
C 941 2435 1222 2560 1542 2560 
C 1766 2560 2246 2415 2246 1293 
C 2246 1087 2246 716 2054 422 
C 1894 159 1645 25 1370 25 
C 947 25 518 319 403 812 
C 429 806 480 793 506 793 
C 589 793 749 838 749 1036 
C 749 1209 627 1280 506 1280 
C 358 1280 262 1190 262 1011 
C 262 454 704 -128 1382 -128 
C 2042 -128 2669 441 2669 1267 
C 2669 2054 2170 2662 1549 2662 
C 1222 2662 947 2540 730 2304 
L 730 3750 
z
" transform="scale(0.015625)"/>
       </defs>
       <use xlink:href="#CMR17-35" transform="scale(0.996264)"/>
       <use xlink:href="#CMR17-30" transform="translate(45.690477 0) scale(0.996264)"/>
       <use xlink:href="#CMR17-30" transform="translate(91.380954 0) scale(0.996264)"/>
      </g>
     </g>
    </g>
    <g id="xtick_3">
     <g id="line2d_3">
      <g>
       <use xlink:href="#mac6548c082" x="135.741001" y="228.96" style="stroke: #000000; stroke-width: 0.8"/>
      </g>
     </g>
     <g id="text_3">
      <!-- $\mathdefault{1000}$ -->
      <g transform="translate(125.77833 243.05832) scale(0.1 -0.1)">
       <defs>
        <path id="CMR17-31" d="M 1702 4083 
C 1702 4217 1696 4224 1606 4224 
C 1357 3927 979 3833 621 3820 
C 602 3820 570 3820 563 3808 
C 557 3795 557 3782 557 3648 
C 755 3648 1088 3686 1344 3839 
L 1344 467 
C 1344 243 1331 166 781 166 
L 589 166 
L 589 0 
C 896 6 1216 12 1523 12 
C 1830 12 2150 6 2458 0 
L 2458 166 
L 2266 166 
C 1715 166 1702 236 1702 467 
L 1702 4083 
z
" transform="scale(0.015625)"/>
       </defs>
       <use xlink:href="#CMR17-31" transform="scale(0.996264)"/>
       <use xlink:href="#CMR17-30" transform="translate(45.690477 0) scale(0.996264)"/>
       <use xlink:href="#CMR17-30" transform="translate(91.380954 0) scale(0.996264)"/>
       <use xlink:href="#CMR17-30" transform="translate(137.071431 0) scale(0.996264)"/>
      </g>
     </g>
    </g>
    <g id="xtick_4">
     <g id="line2d_4">
      <g>
       <use xlink:href="#mac6548c082" x="177.218738" y="228.96" style="stroke: #000000; stroke-width: 0.8"/>
      </g>
     </g>
     <g id="text_4">
      <!-- $\mathdefault{1500}$ -->
      <g transform="translate(167.256068 243.05832) scale(0.1 -0.1)">
       <use xlink:href="#CMR17-31" transform="scale(0.996264)"/>
       <use xlink:href="#CMR17-35" transform="translate(45.690477 0) scale(0.996264)"/>
       <use xlink:href="#CMR17-30" transform="translate(91.380954 0) scale(0.996264)"/>
       <use xlink:href="#CMR17-30" transform="translate(137.071431 0) scale(0.996264)"/>
      </g>
     </g>
    </g>
    <g id="xtick_5">
     <g id="line2d_5">
      <g>
       <use xlink:href="#mac6548c082" x="218.696475" y="228.96" style="stroke: #000000; stroke-width: 0.8"/>
      </g>
     </g>
     <g id="text_5">
      <!-- $\mathdefault{2000}$ -->
      <g transform="translate(208.733805 243.05832) scale(0.1 -0.1)">
       <defs>
        <path id="CMR17-32" d="M 2669 990 
L 2554 990 
C 2490 537 2438 460 2413 422 
C 2381 371 1920 371 1830 371 
L 602 371 
C 832 620 1280 1073 1824 1596 
C 2214 1966 2669 2400 2669 3033 
C 2669 3788 2067 4224 1395 4224 
C 691 4224 262 3603 262 3027 
C 262 2777 448 2745 525 2745 
C 589 2745 781 2783 781 3007 
C 781 3206 614 3264 525 3264 
C 486 3264 448 3257 422 3244 
C 544 3788 915 4057 1306 4057 
C 1862 4057 2227 3616 2227 3033 
C 2227 2477 1901 1998 1536 1583 
L 262 147 
L 262 0 
L 2515 0 
L 2669 990 
z
" transform="scale(0.015625)"/>
       </defs>
       <use xlink:href="#CMR17-32" transform="scale(0.996264)"/>
       <use xlink:href="#CMR17-30" transform="translate(45.690477 0) scale(0.996264)"/>
       <use xlink:href="#CMR17-30" transform="translate(91.380954 0) scale(0.996264)"/>
       <use xlink:href="#CMR17-30" transform="translate(137.071431 0) scale(0.996264)"/>
      </g>
     </g>
    </g>
    <g id="xtick_6">
     <g id="line2d_6">
      <g>
       <use xlink:href="#mac6548c082" x="260.174213" y="228.96" style="stroke: #000000; stroke-width: 0.8"/>
      </g>
     </g>
     <g id="text_6">
      <!-- $\mathdefault{2500}$ -->
      <g transform="translate(250.211542 243.05832) scale(0.1 -0.1)">
       <use xlink:href="#CMR17-32" transform="scale(0.996264)"/>
       <use xlink:href="#CMR17-35" transform="translate(45.690477 0) scale(0.996264)"/>
       <use xlink:href="#CMR17-30" transform="translate(91.380954 0) scale(0.996264)"/>
       <use xlink:href="#CMR17-30" transform="translate(137.071431 0) scale(0.996264)"/>
      </g>
     </g>
    </g>
    <g id="xtick_7">
     <g id="line2d_7">
      <g>
       <use xlink:href="#mac6548c082" x="301.65195" y="228.96" style="stroke: #000000; stroke-width: 0.8"/>
      </g>
     </g>
     <g id="text_7">
      <!-- $\mathdefault{3000}$ -->
      <g transform="translate(291.68928 243.05832) scale(0.1 -0.1)">
       <defs>
        <path id="CMR17-33" d="M 1414 2176 
C 1984 2176 2234 1673 2234 1094 
C 2234 322 1824 25 1453 25 
C 1114 25 563 193 390 691 
C 422 678 454 678 486 678 
C 640 678 755 780 755 947 
C 755 1132 614 1216 486 1216 
C 378 1216 211 1164 211 927 
C 211 335 787 -128 1466 -128 
C 2176 -128 2720 432 2720 1087 
C 2720 1718 2208 2176 1600 2246 
C 2086 2347 2554 2776 2554 3353 
C 2554 3856 2048 4224 1472 4224 
C 890 4224 378 3862 378 3347 
C 378 3123 544 3084 627 3084 
C 762 3084 877 3167 877 3334 
C 877 3500 762 3584 627 3584 
C 602 3584 570 3584 544 3571 
C 730 3999 1235 4076 1459 4076 
C 1683 4076 2106 3966 2106 3347 
C 2106 3167 2080 2851 1862 2574 
C 1670 2329 1453 2316 1242 2297 
C 1210 2297 1062 2284 1037 2284 
C 992 2278 966 2272 966 2227 
C 966 2182 973 2176 1101 2176 
L 1414 2176 
z
" transform="scale(0.015625)"/>
       </defs>
       <use xlink:href="#CMR17-33" transform="scale(0.996264)"/>
       <use xlink:href="#CMR17-30" transform="translate(45.690477 0) scale(0.996264)"/>
       <use xlink:href="#CMR17-30" transform="translate(91.380954 0) scale(0.996264)"/>
       <use xlink:href="#CMR17-30" transform="translate(137.071431 0) scale(0.996264)"/>
      </g>
     </g>
    </g>
    <g id="xtick_8">
     <g id="line2d_8">
      <g>
       <use xlink:href="#mac6548c082" x="343.129687" y="228.96" style="stroke: #000000; stroke-width: 0.8"/>
      </g>
     </g>
     <g id="text_8">
      <!-- $\mathdefault{3500}$ -->
      <g transform="translate(333.167017 243.05832) scale(0.1 -0.1)">
       <use xlink:href="#CMR17-33" transform="scale(0.996264)"/>
       <use xlink:href="#CMR17-35" transform="translate(45.690477 0) scale(0.996264)"/>
       <use xlink:href="#CMR17-30" transform="translate(91.380954 0) scale(0.996264)"/>
       <use xlink:href="#CMR17-30" transform="translate(137.071431 0) scale(0.996264)"/>
      </g>
     </g>
    </g>
    <g id="text_9">
     <!-- Iteration -->
     <g transform="translate(187.019968 256.278627) scale(0.1 -0.1)">
      <defs>
       <path id="NimbusSanL-Regu-49" d="M 1242 4672 
L 640 4672 
L 640 0 
L 1242 0 
L 1242 4672 
z
" transform="scale(0.015625)"/>
       <path id="NimbusSanL-Regu-74" d="M 1626 3328 
L 1075 3328 
L 1075 4249 
L 544 4249 
L 544 3328 
L 90 3328 
L 90 2892 
L 544 2892 
L 544 402 
C 544 64 774 -128 1190 -128 
C 1318 -128 1446 -116 1626 -84 
L 1626 364 
C 1555 345 1472 339 1370 339 
C 1139 339 1075 402 1075 634 
L 1075 2892 
L 1626 2892 
L 1626 3328 
z
" transform="scale(0.015625)"/>
       <path id="NimbusSanL-Regu-65" d="M 3283 1484 
C 3283 1998 3245 2311 3149 2565 
C 2931 3123 2419 3456 1792 3456 
C 858 3456 256 2734 256 1619 
C 256 545 838 -128 1779 -128 
C 2547 -128 3078 307 3213 1018 
L 2675 1018 
C 2528 588 2227 364 1798 364 
C 1459 364 1171 514 992 787 
C 864 974 819 1161 813 1484 
L 3283 1484 
z
M 826 1920 
C 870 2552 1248 2963 1786 2963 
C 2310 2963 2714 2519 2714 1959 
C 2714 1946 2714 1933 2707 1920 
L 826 1920 
z
" transform="scale(0.015625)"/>
       <path id="NimbusSanL-Regu-72" d="M 442 3328 
L 442 0 
L 979 0 
L 979 1727 
C 979 2203 1101 2514 1357 2698 
C 1523 2819 1683 2857 2054 2863 
L 2054 3404 
C 1965 3449 1920 3456 1850 3456 
C 1504 3456 1242 3251 934 2750 
L 934 3328 
L 442 3328 
z
" transform="scale(0.015625)"/>
       <path id="NimbusSanL-Regu-61" d="M 3424 332 
C 3366 320 3341 320 3309 320 
C 3123 320 3021 415 3021 581 
L 3021 2542 
C 3021 3135 2586 3456 1760 3456 
C 1274 3456 870 3315 646 3065 
C 493 2893 429 2702 416 2370 
L 954 2370 
C 998 2778 1242 2963 1741 2963 
C 2221 2963 2490 2784 2490 2466 
L 2490 2326 
C 2490 2103 2355 2007 1933 1956 
C 1178 1861 1062 1835 858 1753 
C 467 1593 269 1294 269 861 
C 269 256 691 -128 1370 -128 
C 1792 -128 2131 19 2509 364 
C 2547 25 2714 -128 3059 -128 
C 3168 -128 3251 -116 3424 -71 
L 3424 332 
z
M 2490 1071 
C 2490 893 2438 785 2278 638 
C 2061 441 1798 339 1485 339 
C 1069 339 826 536 826 874 
C 826 1224 1062 1402 1632 1485 
C 2195 1562 2310 1587 2490 1670 
L 2490 1071 
z
" transform="scale(0.015625)"/>
       <path id="NimbusSanL-Regu-69" d="M 960 3358 
L 429 3358 
L 429 0 
L 960 0 
L 960 3358 
z
M 960 4672 
L 422 4672 
L 422 3999 
L 960 3999 
L 960 4672 
z
" transform="scale(0.015625)"/>
       <path id="NimbusSanL-Regu-6f" d="M 1741 3456 
C 800 3456 230 2784 230 1663 
C 230 543 794 -128 1747 -128 
C 2688 -128 3264 543 3264 1638 
C 3264 2791 2707 3456 1741 3456 
z
M 1747 2963 
C 2349 2963 2707 2472 2707 1644 
C 2707 861 2336 364 1747 364 
C 1152 364 787 855 787 1663 
C 787 2466 1152 2963 1747 2963 
z
" transform="scale(0.015625)"/>
       <path id="NimbusSanL-Regu-6e" d="M 448 3328 
L 448 0 
L 986 0 
L 986 1835 
C 986 2539 1344 2988 1894 2988 
C 2317 2988 2586 2732 2586 2328 
L 2586 0 
L 3117 0 
L 3117 2539 
C 3117 3097 2701 3456 2054 3456 
C 1555 3456 1235 3263 941 2796 
L 941 3328 
L 448 3328 
z
" transform="scale(0.015625)"/>
      </defs>
      <use xlink:href="#NimbusSanL-Regu-49" transform="scale(0.996264)"/>
      <use xlink:href="#NimbusSanL-Regu-74" transform="translate(27.69517 0) scale(0.996264)"/>
      <use xlink:href="#NimbusSanL-Regu-65" transform="translate(55.390339 0) scale(0.996264)"/>
      <use xlink:href="#NimbusSanL-Regu-72" transform="translate(110.782016 0) scale(0.996264)"/>
      <use xlink:href="#NimbusSanL-Regu-61" transform="translate(142.961149 0) scale(0.996264)"/>
      <use xlink:href="#NimbusSanL-Regu-74" transform="translate(198.352826 0) scale(0.996264)"/>
      <use xlink:href="#NimbusSanL-Regu-69" transform="translate(226.047996 0) scale(0.996264)"/>
      <use xlink:href="#NimbusSanL-Regu-6f" transform="translate(248.16478 0) scale(0.996264)"/>
      <use xlink:href="#NimbusSanL-Regu-6e" transform="translate(303.556457 0) scale(0.996264)"/>
     </g>
    </g>
   </g>
   <g id="matplotlib.axis_2">
    <g id="ytick_1">
     <g id="line2d_9">
      <defs>
       <path id="mc8220f5335" d="M 0 0 
L -3.5 0 
" style="stroke: #000000; stroke-width: 0.8"/>
      </defs>
      <g>
       <use xlink:href="#mc8220f5335" x="37.567344" y="228.667465" style="stroke: #000000; stroke-width: 0.8"/>
      </g>
     </g>
     <g id="text_10">
      <!-- $\mathdefault{0}$ -->
      <g transform="translate(25.586009 232.216625) scale(0.1 -0.1)">
       <use xlink:href="#CMR17-30" transform="scale(0.996264)"/>
      </g>
     </g>
    </g>
    <g id="ytick_2">
     <g id="line2d_10">
      <g>
       <use xlink:href="#mc8220f5335" x="37.567344" y="194.057214" style="stroke: #000000; stroke-width: 0.8"/>
      </g>
     </g>
     <g id="text_11">
      <!-- $\mathdefault{5}$ -->
      <g transform="translate(25.586009 197.606374) scale(0.1 -0.1)">
       <use xlink:href="#CMR17-35" transform="scale(0.996264)"/>
      </g>
     </g>
    </g>
    <g id="ytick_3">
     <g id="line2d_11">
      <g>
       <use xlink:href="#mc8220f5335" x="37.567344" y="159.446964" style="stroke: #000000; stroke-width: 0.8"/>
      </g>
     </g>
     <g id="text_12">
      <!-- $\mathdefault{10}$ -->
      <g transform="translate(20.604674 162.996124) scale(0.1 -0.1)">
       <use xlink:href="#CMR17-31" transform="scale(0.996264)"/>
       <use xlink:href="#CMR17-30" transform="translate(45.690477 0) scale(0.996264)"/>
      </g>
     </g>
    </g>
    <g id="ytick_4">
     <g id="line2d_12">
      <g>
       <use xlink:href="#mc8220f5335" x="37.567344" y="124.836713" style="stroke: #000000; stroke-width: 0.8"/>
      </g>
     </g>
     <g id="text_13">
      <!-- $\mathdefault{15}$ -->
      <g transform="translate(20.604674 128.385874) scale(0.1 -0.1)">
       <use xlink:href="#CMR17-31" transform="scale(0.996264)"/>
       <use xlink:href="#CMR17-35" transform="translate(45.690477 0) scale(0.996264)"/>
      </g>
     </g>
    </g>
    <g id="ytick_5">
     <g id="line2d_13">
      <g>
       <use xlink:href="#mc8220f5335" x="37.567344" y="90.226463" style="stroke: #000000; stroke-width: 0.8"/>
      </g>
     </g>
     <g id="text_14">
      <!-- $\mathdefault{20}$ -->
      <g transform="translate(20.604674 93.775623) scale(0.1 -0.1)">
       <use xlink:href="#CMR17-32" transform="scale(0.996264)"/>
       <use xlink:href="#CMR17-30" transform="translate(45.690477 0) scale(0.996264)"/>
      </g>
     </g>
    </g>
    <g id="ytick_6">
     <g id="line2d_14">
      <g>
       <use xlink:href="#mc8220f5335" x="37.567344" y="55.616213" style="stroke: #000000; stroke-width: 0.8"/>
      </g>
     </g>
     <g id="text_15">
      <!-- $\mathdefault{25}$ -->
      <g transform="translate(20.604674 59.165373) scale(0.1 -0.1)">
       <use xlink:href="#CMR17-32" transform="scale(0.996264)"/>
       <use xlink:href="#CMR17-35" transform="translate(45.690477 0) scale(0.996264)"/>
      </g>
     </g>
    </g>
    <g id="ytick_7">
     <g id="line2d_15">
      <g>
       <use xlink:href="#mc8220f5335" x="37.567344" y="21.005962" style="stroke: #000000; stroke-width: 0.8"/>
      </g>
     </g>
     <g id="text_16">
      <!-- $\mathdefault{30}$ -->
      <g transform="translate(20.604674 24.555122) scale(0.1 -0.1)">
       <use xlink:href="#CMR17-33" transform="scale(0.996264)"/>
       <use xlink:href="#CMR17-30" transform="translate(45.690477 0) scale(0.996264)"/>
      </g>
     </g>
    </g>
    <g id="text_17">
     <!-- Average CFL - Blade_1 -->
     <g transform="translate(14.482687 168.77932) rotate(-90) scale(0.1 -0.1)">
      <defs>
       <path id="NimbusSanL-Regu-41" d="M 3034 1408 
L 3514 0 
L 4179 0 
L 2541 4672 
L 1773 4672 
L 109 0 
L 742 0 
L 1235 1408 
L 3034 1408 
z
M 2867 1907 
L 1382 1907 
L 2150 4032 
L 2867 1907 
z
" transform="scale(0.015625)"/>
       <path id="NimbusSanL-Regu-76" d="M 1824 0 
L 3110 3328 
L 2509 3328 
L 1562 629 
L 666 3328 
L 64 3328 
L 1242 0 
L 1824 0 
z
" transform="scale(0.015625)"/>
       <path id="NimbusSanL-Regu-67" d="M 2637 3359 
L 2637 2873 
C 2368 3270 2042 3456 1613 3456 
C 762 3456 186 2714 186 1632 
C 186 1084 333 638 608 320 
C 858 38 1216 -128 1568 -128 
C 1990 -128 2285 51 2586 473 
L 2586 300 
C 2586 -155 2528 -441 2394 -634 
C 2253 -841 1978 -960 1651 -960 
C 1408 -960 1190 -894 1043 -774 
C 922 -674 870 -581 838 -375 
L 294 -375 
C 352 -1031 845 -1408 1632 -1408 
C 2131 -1408 2560 -1248 2778 -980 
C 3034 -661 3130 -222 3130 568 
L 3130 3359 
L 2637 3359 
z
M 1670 2963 
C 2246 2963 2586 2479 2586 1644 
C 2586 848 2240 364 1677 364 
C 1094 364 742 855 742 1663 
C 742 2466 1101 2963 1670 2963 
z
" transform="scale(0.015625)"/>
       <path id="NimbusSanL-Regu-43" d="M 4237 3219 
C 4051 4236 3462 4736 2438 4736 
C 1811 4736 1306 4537 960 4154 
C 538 3696 307 3035 307 2284 
C 307 1522 544 867 986 415 
C 1344 44 1805 -128 2413 -128 
C 3552 -128 4192 485 4333 1712 
L 3718 1712 
C 3667 1394 3603 1178 3507 994 
C 3315 612 2918 396 2419 396 
C 1491 396 902 1134 902 2291 
C 902 3480 1466 4211 2368 4211 
C 2746 4211 3098 4096 3290 3918 
C 3462 3759 3558 3562 3629 3219 
L 4237 3219 
z
" transform="scale(0.015625)"/>
       <path id="NimbusSanL-Regu-46" d="M 1171 2112 
L 3398 2112 
L 3398 2636 
L 1171 2636 
L 1171 4147 
L 3706 4147 
L 3706 4672 
L 576 4672 
L 576 0 
L 1171 0 
L 1171 2112 
z
" transform="scale(0.015625)"/>
       <path id="NimbusSanL-Regu-4c" d="M 1107 4672 
L 512 4672 
L 512 0 
L 3411 0 
L 3411 524 
L 1107 524 
L 1107 4672 
z
" transform="scale(0.015625)"/>
       <path id="NimbusSanL-Regu-2d" d="M 1818 1996 
L 294 1996 
L 294 1536 
L 1818 1536 
L 1818 1996 
z
" transform="scale(0.015625)"/>
       <path id="NimbusSanL-Regu-42" d="M 506 0 
L 2611 0 
C 3053 0 3379 121 3629 390 
C 3859 632 3987 961 3987 1321 
C 3987 1878 3731 2214 3136 2444 
C 3558 2643 3782 2994 3782 3476 
C 3782 3821 3654 4127 3411 4345 
C 3168 4569 2848 4672 2400 4672 
L 506 4672 
L 506 0 
z
M 1101 2636 
L 1101 4147 
L 2253 4147 
C 2586 4147 2771 4101 2931 3977 
C 3098 3847 3187 3652 3187 3391 
C 3187 3138 3098 2936 2931 2806 
C 2771 2682 2586 2636 2253 2636 
L 1101 2636 
z
M 1101 524 
L 1101 2112 
L 2554 2112 
C 2842 2112 3034 2042 3174 1890 
C 3315 1745 3392 1542 3392 1315 
C 3392 1093 3315 891 3174 746 
C 3034 594 2842 524 2554 524 
L 1101 524 
z
" transform="scale(0.015625)"/>
       <path id="NimbusSanL-Regu-6c" d="M 973 4672 
L 435 4672 
L 435 0 
L 973 0 
L 973 4672 
z
" transform="scale(0.015625)"/>
       <path id="NimbusSanL-Regu-64" d="M 3168 4672 
L 2637 4672 
L 2637 2937 
C 2413 3276 2054 3456 1606 3456 
C 736 3456 166 2759 166 1695 
C 166 568 723 -128 1626 -128 
C 2086 -128 2406 44 2694 460 
L 2694 19 
L 3168 19 
L 3168 4672 
z
M 1696 2956 
C 2272 2956 2637 2447 2637 1651 
C 2637 880 2266 371 1702 371 
C 1114 371 723 887 723 1663 
C 723 2440 1114 2956 1696 2956 
z
" transform="scale(0.015625)"/>
       <path id="NimbusSanL-Regu-31" d="M 1658 3232 
L 1658 0 
L 2221 0 
L 2221 4537 
L 1850 4537 
C 1651 3840 1523 3744 653 3635 
L 653 3232 
L 1658 3232 
z
" transform="scale(0.015625)"/>
      </defs>
      <use xlink:href="#NimbusSanL-Regu-41" transform="scale(0.996264)"/>
      <use xlink:href="#NimbusSanL-Regu-76" transform="translate(62.465918 0) scale(0.996264)"/>
      <use xlink:href="#NimbusSanL-Regu-65" transform="translate(109.788488 0) scale(0.996264)"/>
      <use xlink:href="#NimbusSanL-Regu-72" transform="translate(165.180165 0) scale(0.996264)"/>
      <use xlink:href="#NimbusSanL-Regu-61" transform="translate(197.359298 0) scale(0.996264)"/>
      <use xlink:href="#NimbusSanL-Regu-67" transform="translate(252.750975 0) scale(0.996264)"/>
      <use xlink:href="#NimbusSanL-Regu-65" transform="translate(308.142652 0) scale(0.996264)"/>
      <use xlink:href="#NimbusSanL-Regu-43" transform="translate(391.229499 0) scale(0.996264)"/>
      <use xlink:href="#NimbusSanL-Regu-46" transform="translate(463.159484 0) scale(0.996264)"/>
      <use xlink:href="#NimbusSanL-Regu-4c" transform="translate(524.031114 0) scale(0.996264)"/>
      <use xlink:href="#NimbusSanL-Regu-2d" transform="translate(607.117961 0) scale(0.996264)"/>
      <use xlink:href="#NimbusSanL-Regu-42" transform="translate(667.98836 0) scale(0.996264)"/>
      <use xlink:href="#NimbusSanL-Regu-6c" transform="translate(734.438391 0) scale(0.996264)"/>
      <use xlink:href="#NimbusSanL-Regu-61" transform="translate(756.555176 0) scale(0.996264)"/>
      <use xlink:href="#NimbusSanL-Regu-64" transform="translate(811.946853 0) scale(0.996264)"/>
      <use xlink:href="#NimbusSanL-Regu-65" transform="translate(867.33853 0) scale(0.996264)"/>
      <use xlink:href="#NimbusSanL-Regu-31" transform="translate(958.595772 0) scale(0.996264)"/>
      <path d="M 928.707548 0 
L 958.595772 0 
L 958.595772 0.3985 
L 928.707548 0.3985 
L 928.707548 0 
z
"/>
     </g>
    </g>
   </g>
   <g id="line2d_16">
    <path d="M 52.785526 129.925702 
L 52.951437 88.153258 
L 53.034393 214.616044 
L 53.117348 211.80576 
L 53.366215 199.530439 
L 53.615081 178.318684 
L 53.863947 141.664772 
L 54.195769 78.534538 
L 54.36168 78.534538 
L 54.444636 48.509437 
L 54.527591 210.651662 
L 54.610547 207.048501 
L 54.859413 191.309896 
L 55.108279 164.113586 
L 55.357146 117.118362 
L 55.606012 36.221374 
L 55.688968 209.422856 
L 55.771923 205.573934 
L 56.02079 188.761843 
L 56.269656 159.710551 
L 56.518523 109.549209 
L 56.601478 85.805144 
L 56.684434 214.381233 
L 56.767389 211.523986 
L 57.016255 199.043534 
L 57.265122 177.485941 
L 57.513988 140.2972 
L 57.762855 76.224504 
L 57.84581 45.963876 
L 57.928766 210.397106 
L 58.011721 206.743034 
L 58.260588 190.782048 
L 58.509454 163.205192 
L 58.75832 115.611393 
L 58.924231 65.943653 
L 59.007187 212.395083 
L 59.090142 209.140607 
L 59.339009 194.925055 
L 59.587875 170.361307 
L 59.836742 127.963665 
L 60.085608 83.735523 
L 60.168563 83.735523 
L 60.251519 214.17427 
L 60.334474 211.275632 
L 60.583341 198.614377 
L 60.832207 176.738623 
L 61.081074 138.939889 
L 61.246985 99.476931 
L 61.32994 215.748411 
L 61.412896 213.1646 
L 61.661762 201.878515 
L 61.910628 182.376161 
L 62.159495 148.679561 
L 62.408361 90.505002 
L 62.491317 214.851218 
L 62.574272 212.087969 
L 62.823139 200.018096 
L 63.072005 179.161356 
L 63.320871 143.142166 
L 63.652693 80.926292 
L 63.735649 213.893347 
L 63.818604 210.938524 
L 64.067471 198.031855 
L 64.316337 175.729131 
L 64.565204 137.190024 
L 64.731115 118.894536 
L 64.81407 118.894536 
L 64.897025 96.939951 
L 64.979981 215.494713 
L 65.062936 212.860163 
L 65.311803 201.352447 
L 65.560669 181.467115 
L 65.809536 147.10526 
L 65.892491 130.792819 
L 65.975447 218.88 
L 66.058402 216.922507 
L 66.307269 208.372178 
L 66.556135 193.59721 
L 66.805001 168.066064 
L 67.053868 123.948244 
L 67.219779 77.87431 
L 67.302734 213.588149 
L 67.38569 210.572286 
L 67.634556 197.398996 
L 67.883423 174.635551 
L 68.132289 135.300318 
L 68.215244 116.626888 
L 68.2982 217.463407 
L 68.381155 215.222595 
L 68.630022 205.434731 
L 68.878888 188.5213 
L 69.127755 159.294893 
L 69.376621 128.770961 
L 69.459577 128.770961 
L 69.542532 108.791661 
L 69.625488 216.679884 
L 69.708443 214.282368 
L 69.957309 203.810018 
L 70.206176 185.713797 
L 70.455042 154.443526 
L 70.703909 100.4149 
L 70.786864 74.779856 
L 70.86982 213.278704 
L 70.952775 210.200952 
L 71.201642 196.75733 
L 71.450508 173.526752 
L 71.699374 133.384313 
L 71.948241 64.021604 
L 72.031196 212.202878 
L 72.114152 208.909961 
L 72.363018 194.526499 
L 72.611885 169.671876 
L 72.860751 126.723087 
L 73.275528 17.28 
L 73.358484 207.528718 
L 73.441439 203.300969 
L 73.690306 184.83416 
L 73.939172 152.923514 
L 74.188039 97.781918 
L 74.35395 40.192278 
L 74.436905 209.819946 
L 74.519861 206.050442 
L 74.768727 189.58525 
L 75.017593 161.133398 
L 75.26646 111.968597 
L 75.432371 60.62336 
L 75.515326 211.863054 
L 75.598282 208.502172 
L 75.847148 193.821839 
L 76.096015 168.454224 
L 76.344881 124.618984 
L 76.593747 48.871691 
L 76.676703 210.687887 
L 76.759658 207.091972 
L 77.008525 191.385013 
L 77.257391 164.243388 
L 77.506258 117.34266 
L 77.83808 36.298203 
L 77.921035 209.430538 
L 78.00399 205.583153 
L 78.252857 188.777774 
L 78.501723 159.73808 
L 78.75059 109.557488 
L 78.916501 57.149099 
L 78.999456 211.515628 
L 79.082412 208.085261 
L 79.331278 193.101416 
L 79.580145 167.209333 
L 79.829011 122.467813 
L 80.077877 45.154467 
L 80.160833 210.316165 
L 80.243788 206.645905 
L 80.492655 190.614209 
L 80.741521 162.91144 
L 80.990388 115.041054 
L 81.156299 65.045433 
L 81.239254 212.305261 
L 81.322209 209.032821 
L 81.571076 194.7388 
L 81.819942 170.038732 
L 82.068809 127.357015 
L 82.317675 53.603008 
L 82.400631 211.161019 
L 82.483586 207.65973 
L 82.732453 192.366099 
L 82.981319 165.938705 
L 83.230185 120.272167 
L 83.396096 72.578237 
L 83.479052 213.058542 
L 83.562007 209.936757 
L 83.810874 196.300802 
L 84.05974 172.737872 
L 84.308607 132.021129 
L 84.557473 61.662596 
L 84.640428 211.966978 
L 84.723384 208.62688 
L 84.97225 194.037335 
L 85.221117 168.826601 
L 85.469983 125.262452 
L 85.71885 49.991035 
L 85.801805 210.799822 
L 85.884761 207.226293 
L 86.133627 191.61712 
L 86.382493 164.64447 
L 86.63136 118.035729 
L 86.963182 37.518888 
L 87.046137 209.552607 
L 87.129093 205.729635 
L 87.377959 189.030896 
L 87.626826 160.175473 
L 87.875692 110.313304 
L 88.041603 58.237473 
L 88.124558 211.624465 
L 88.207514 208.215866 
L 88.45638 193.327102 
L 88.705247 167.599317 
L 88.954113 123.141706 
L 89.20298 76.710372 
L 89.700712 76.710372 
L 89.783668 46.318954 
L 89.866623 210.432613 
L 89.949579 206.785643 
L 90.198445 190.855677 
L 90.447312 163.328696 
L 90.696178 115.762073 
L 90.862089 66.083701 
L 90.945045 212.409088 
L 91.028 209.157413 
L 91.276866 194.954095 
L 91.525733 170.410763 
L 91.774599 127.999883 
L 92.023466 83.706148 
L 92.438243 83.706148 
L 92.521199 54.713884 
L 92.604154 211.272107 
L 92.687109 207.793035 
L 92.935976 192.59645 
L 93.184842 166.336752 
L 93.433709 120.959993 
L 93.59962 73.568705 
L 93.682575 213.157589 
L 93.765531 210.055613 
L 94.014397 196.506186 
L 94.263264 173.092775 
L 94.51213 132.634401 
L 94.843952 62.72233 
L 94.926907 212.072951 
L 95.009863 208.754048 
L 95.258729 194.257082 
L 95.507596 169.206323 
L 95.756462 125.918611 
L 95.922373 80.709116 
L 96.005328 213.87163 
L 96.088284 210.912463 
L 96.33715 197.986821 
L 96.586017 175.651313 
L 96.834883 137.055555 
L 97.08375 70.362085 
L 97.166705 212.836927 
L 97.249661 209.670819 
L 97.498527 195.841261 
L 97.747393 171.943785 
L 97.99626 130.648946 
L 98.245126 87.520798 
L 98.411037 87.520798 
L 98.493993 59.291464 
L 98.576948 211.729865 
L 98.659904 208.342345 
L 98.90877 193.545657 
L 99.157637 167.976981 
L 99.406503 123.79431 
L 99.572414 77.650122 
L 99.655369 213.56573 
L 99.738325 210.545383 
L 99.987191 197.352508 
L 100.236058 174.55522 
L 100.484924 135.161506 
L 100.733791 67.089169 
L 100.816746 212.509635 
L 100.899701 209.278069 
L 101.148568 195.162589 
L 101.397434 170.77104 
L 101.646301 128.622443 
L 101.895167 55.790386 
L 101.978123 211.379757 
L 102.061078 207.922215 
L 102.309945 192.819673 
L 102.558811 166.722482 
L 102.807677 121.626534 
L 102.973588 74.528525 
L 103.056544 213.253571 
L 103.139499 210.170792 
L 103.388366 196.705214 
L 103.637232 173.436696 
L 103.886099 133.228696 
L 104.134965 63.749272 
L 104.21792 212.175645 
L 104.300876 208.877281 
L 104.549742 194.470028 
L 104.798609 169.574294 
L 105.047475 126.554467 
L 105.379297 52.216204 
L 105.462253 211.022338 
L 105.545208 207.493313 
L 105.794074 192.078531 
L 106.042941 165.441788 
L 106.291807 119.413495 
L 106.457718 71.341748 
L 106.540674 212.934893 
L 106.623629 209.788379 
L 106.872496 196.044404 
L 107.121362 172.294816 
L 107.370228 131.255528 
L 107.619095 60.339638 
L 107.70205 211.834682 
L 107.785006 208.468125 
L 108.033872 193.763006 
L 108.282739 168.352561 
L 108.531605 124.443311 
L 108.780472 48.568127 
L 108.863427 210.657531 
L 108.946383 207.055544 
L 109.195249 191.322066 
L 109.444115 164.134616 
L 109.692982 117.154702 
L 109.858893 68.089086 
L 109.941848 212.609627 
L 110.024804 209.398059 
L 110.27367 195.369932 
L 110.522537 171.129328 
L 110.771403 129.241565 
L 111.020269 56.86785 
L 111.103225 211.487503 
L 111.18618 208.051511 
L 111.435047 193.043096 
L 111.683913 167.108556 
L 111.93278 122.294114 
L 112.181646 75.507365 
L 112.264601 75.507365 
L 112.347557 44.942644 
L 112.430512 210.294983 
L 112.513468 206.620486 
L 112.762334 190.570286 
L 113.011201 162.83554 
L 113.260067 114.909898 
L 113.425978 64.898163 
L 113.508934 212.290534 
L 113.591889 209.015148 
L 113.840756 194.708262 
L 114.089622 169.985963 
L 114.338488 127.26583 
L 114.67031 53.467327 
L 114.753266 211.147451 
L 114.836221 207.643448 
L 115.085088 192.337964 
L 115.333954 165.890087 
L 115.58282 120.188157 
L 115.748731 72.457262 
L 115.831687 213.046444 
L 115.914642 209.92224 
L 116.163509 196.275717 
L 116.412375 172.694525 
L 116.661242 131.946224 
L 116.910108 61.588375 
L 116.993064 211.959556 
L 117.076019 208.617974 
L 117.324885 194.021944 
L 117.573752 168.800006 
L 117.822618 125.216496 
L 117.988529 79.712566 
L 118.071485 213.771975 
L 118.15444 210.792877 
L 118.403307 197.780177 
L 118.652173 175.294231 
L 118.901039 136.438517 
L 119.232861 69.295844 
L 119.315817 212.730302 
L 119.398772 209.54287 
L 119.647639 195.620165 
L 119.896505 171.561731 
L 120.145372 129.988758 
L 120.311283 86.570127 
L 120.394238 214.457731 
L 120.477193 211.615784 
L 120.72606 199.202161 
L 120.974926 177.751419 
L 121.223793 140.684538 
L 121.555615 76.632968 
L 121.970392 76.632968 
L 122.053348 213.464015 
L 122.136303 210.423325 
L 122.385169 197.141591 
L 122.634036 174.190756 
L 122.882902 134.531712 
L 123.131769 66.001825 
L 123.214724 212.400901 
L 123.29768 209.147588 
L 123.546546 194.937117 
L 123.795412 170.381425 
L 124.044279 127.949188 
L 124.21019 83.633146 
L 124.293145 214.164033 
L 124.376101 211.263346 
L 124.624967 198.593148 
L 124.873834 176.699046 
L 125.1227 138.866037 
L 125.371566 73.490598 
L 125.454522 213.149778 
L 125.537477 210.046241 
L 125.786344 196.48999 
L 126.03521 173.064788 
L 126.284077 132.586039 
L 126.615899 62.638761 
L 126.698854 212.064594 
L 126.78181 208.74402 
L 127.030676 194.239753 
L 127.279542 169.176378 
L 127.528409 125.866868 
L 127.860231 51.028033 
L 127.943186 210.903521 
L 128.026142 207.350733 
L 128.275008 191.832152 
L 128.523875 165.016045 
L 128.772741 118.677811 
L 128.938652 70.282363 
L 129.021607 212.828954 
L 129.104563 209.661252 
L 129.353429 195.82473 
L 129.602296 171.915219 
L 129.851162 130.599585 
L 130.182984 59.206658 
L 130.265939 211.721384 
L 130.348895 208.332168 
L 130.597761 193.528072 
L 130.846628 167.946594 
L 131.095494 123.7418 
L 131.261405 77.574507 
L 131.344361 213.558169 
L 131.427316 210.53631 
L 131.676183 197.336829 
L 131.925049 174.528126 
L 132.173915 135.114688 
L 132.422782 67.008267 
L 132.505737 212.501545 
L 132.588693 209.268361 
L 132.837559 195.145813 
L 133.086426 170.742051 
L 133.335292 128.57235 
L 133.667114 55.703107 
L 133.750069 211.371029 
L 133.833025 207.911742 
L 134.081891 192.801575 
L 134.330758 166.691208 
L 134.579624 121.572493 
L 134.745535 74.450706 
L 134.828491 213.245789 
L 134.911446 210.161453 
L 135.160312 196.689077 
L 135.409179 173.408812 
L 135.658045 133.180512 
L 135.989867 63.666011 
L 136.072823 212.167319 
L 136.155778 208.86729 
L 136.404645 194.452763 
L 136.653511 169.544461 
L 136.902377 126.502914 
L 137.068288 81.550511 
L 137.151244 213.955769 
L 137.234199 211.01343 
L 137.483066 198.161293 
L 137.731932 175.9528 
L 137.980799 137.576525 
L 138.229665 71.262321 
L 138.312621 212.92695 
L 138.395576 209.778847 
L 138.644442 196.027934 
L 138.893309 172.266356 
L 139.142175 131.206348 
L 139.391042 60.254656 
L 139.473997 211.826184 
L 139.556953 208.457927 
L 139.805819 193.745384 
L 140.054685 168.32211 
L 140.303552 124.390692 
L 140.552418 78.508912 
L 140.635374 78.508912 
L 140.718329 48.477202 
L 140.801285 210.648438 
L 140.88424 207.044633 
L 141.133107 191.303212 
L 141.381973 164.102036 
L 141.63084 117.098403 
L 141.79675 68.008016 
L 141.879706 212.60152 
L 141.962661 209.388331 
L 142.211528 195.353121 
L 142.460394 171.10028 
L 142.709261 129.191369 
L 142.958127 56.772771 
L 143.041083 211.477995 
L 143.124038 208.040101 
L 143.372904 193.023381 
L 143.621771 167.074488 
L 143.870637 122.234801 
L 144.036548 75.404429 
L 144.119504 213.341161 
L 144.202459 210.2759 
L 144.451326 196.886842 
L 144.700192 173.750548 
L 144.949058 133.771033 
L 145.197925 64.686431 
L 145.28088 212.269361 
L 145.363836 208.98974 
L 145.612702 194.664357 
L 145.861569 169.910095 
L 146.110435 127.13473 
L 146.359302 53.2189 
L 146.442257 211.122608 
L 146.525213 207.613637 
L 146.774079 192.28645 
L 147.022945 165.801072 
L 147.271812 120.034338 
L 147.520678 72.235762 
L 151.419586 72.235762 
L 151.502541 40.949422 
L 151.585496 209.89566 
L 151.668452 206.141299 
L 151.917318 189.742251 
L 152.166185 161.404696 
L 152.415051 112.4374 
L 152.580962 61.296172 
L 152.663918 211.930335 
L 152.746873 208.582909 
L 152.99574 193.961353 
L 153.244606 168.695304 
L 153.493472 125.035572 
L 153.742339 49.591554 
L 153.825294 210.759873 
L 153.90825 207.178355 
L 154.157116 191.534284 
L 154.405983 164.501328 
L 154.654849 117.788381 
L 154.82076 69.001584 
L 154.903715 212.700876 
L 154.986671 209.507559 
L 155.235537 195.559147 
L 155.484404 171.456293 
L 155.73327 129.806559 
L 155.982137 57.835821 
L 156.065092 211.5843 
L 156.148048 208.167667 
L 156.396914 193.243815 
L 156.64578 167.455398 
L 156.894647 122.893013 
L 157.143513 76.352255 
L 157.890113 76.352255 
L 157.973068 45.889213 
L 158.056023 210.389639 
L 158.138979 206.734074 
L 158.387845 190.766566 
L 158.636712 163.174712 
L 158.885578 115.495989 
L 159.051489 65.700539 
L 159.134445 212.370772 
L 159.2174 209.111434 
L 159.466267 194.874643 
L 159.715133 170.273469 
L 159.963999 127.76264 
L 160.212866 54.303928 
L 160.295821 211.231111 
L 160.378777 207.74384 
L 160.627643 192.511442 
L 160.87651 166.189857 
L 161.125376 120.706158 
L 161.291287 73.203184 
L 161.374242 213.121036 
L 161.457198 210.011751 
L 161.706064 196.430391 
L 161.954931 172.961802 
L 162.203797 132.408079 
L 162.452664 62.331247 
L 162.535619 212.033843 
L 162.618575 208.707118 
L 162.867441 194.175986 
L 163.116307 169.06619 
L 163.365174 125.676463 
L 163.61404 80.360422 
L 163.779951 80.360422 
L 163.862907 50.699014 
L 163.945862 210.870619 
L 164.028818 207.31125 
L 164.277684 191.763927 
L 164.526551 164.898151 
L 164.775417 118.474091 
L 164.941328 69.989006 
L 165.024283 212.799619 
L 165.107239 209.62605 
L 165.356105 195.763899 
L 165.604972 171.810104 
L 165.853838 130.417946 
L 166.102705 58.892296 
L 166.18566 211.689948 
L 166.268615 208.294444 
L 166.517482 193.462886 
L 166.766348 167.833952 
L 167.015215 123.547155 
L 167.181126 77.294219 
L 167.264081 213.53014 
L 167.347037 210.502675 
L 167.595903 197.278708 
L 167.844769 174.427694 
L 168.093636 134.941141 
L 168.342502 66.708377 
L 168.425458 212.471556 
L 168.508413 209.232374 
L 168.75728 195.083628 
L 169.006146 170.634595 
L 169.255013 128.386666 
L 169.503879 55.382245 
L 169.586834 211.338943 
L 169.66979 207.873238 
L 169.918656 192.735041 
L 170.167523 166.576237 
L 170.416389 121.373824 
L 170.665256 74.164622 
L 172.075499 74.164622 
L 172.158454 43.264054 
L 172.24141 210.127123 
L 172.324365 206.419055 
L 172.573232 190.222213 
L 172.822098 162.23407 
L 173.070964 113.870559 
L 173.236875 63.359921 
L 173.319831 212.13671 
L 173.402786 208.830559 
L 173.651653 194.389292 
L 173.900519 169.434783 
L 174.149386 126.313391 
L 174.398252 81.277598 
L 174.895985 81.277598 
L 174.97894 51.799625 
L 175.061896 210.980681 
L 175.144851 207.443324 
L 175.393718 191.992149 
L 175.642584 165.29252 
L 175.891451 119.15556 
L 176.140317 70.970322 
L 177.135783 70.970322 
L 177.218738 212.89775 
L 177.301694 209.743807 
L 177.55056 195.967385 
L 177.799426 172.161727 
L 178.048293 131.025551 
L 178.297159 59.942237 
L 178.380115 211.794942 
L 178.46307 208.420437 
L 178.711937 193.680601 
L 178.960803 168.210165 
L 179.20967 124.197251 
L 179.458536 78.230357 
L 179.541491 78.230357 
L 179.624447 48.142936 
L 179.707402 210.615012 
L 179.790358 207.004521 
L 180.039224 191.233898 
L 180.288091 163.982262 
L 180.536957 116.891434 
L 180.702868 67.709981 
L 180.785824 212.571716 
L 180.868779 209.352567 
L 181.117645 195.291321 
L 181.366512 170.993488 
L 181.615378 129.006833 
L 181.864245 56.453894 
L 181.9472 211.446107 
L 182.030156 208.001836 
L 182.279022 192.957259 
L 182.527888 166.960229 
L 182.776755 122.037361 
L 182.942666 75.120115 
L 183.025621 213.31273 
L 183.108577 210.241783 
L 183.357443 196.827886 
L 183.60631 173.648673 
L 183.855176 133.594993 
L 184.104043 64.382234 
L 184.186998 212.238941 
L 184.269953 208.953237 
L 184.51882 194.601279 
L 184.767686 169.801096 
L 185.016553 126.94638 
L 185.265419 52.89343 
L 185.348375 211.090061 
L 185.43133 207.57458 
L 185.680197 192.218961 
L 185.929063 165.68445 
L 186.177929 119.832815 
L 186.34384 71.94557 
L 186.426796 212.995275 
L 186.509751 209.860837 
L 186.758618 196.169612 
L 187.007484 172.511176 
L 187.256351 131.629398 
L 187.505217 60.985686 
L 187.588172 211.899287 
L 187.671128 208.545651 
L 187.919994 193.896971 
L 188.168861 168.584051 
L 188.417727 124.843327 
L 188.583638 79.160706 
L 188.666594 213.716789 
L 188.749549 210.726654 
L 188.998416 197.665743 
L 189.247282 175.09649 
L 189.496148 136.09682 
L 189.745015 68.705392 
L 189.82797 212.671257 
L 189.910926 209.472016 
L 190.159792 195.497729 
L 190.408659 171.350162 
L 190.657525 129.623165 
L 190.906391 57.518915 
L 190.989347 211.55261 
L 191.072302 208.129639 
L 191.321169 193.178101 
L 191.570035 167.341845 
L 191.818902 122.696794 
L 191.984813 76.069699 
L 192.067768 213.407688 
L 192.150724 210.355733 
L 192.39959 197.024792 
L 192.648456 173.988926 
L 192.897323 134.18295 
L 193.146189 65.398224 
L 193.229145 212.34054 
L 193.3121 209.075156 
L 193.560967 194.811955 
L 193.809833 170.165144 
L 194.058699 127.575454 
L 194.22461 83.094969 
L 194.307566 214.110215 
L 194.390521 211.198765 
L 194.639388 198.481552 
L 194.888254 176.506208 
L 195.137121 138.532812 
L 195.385987 72.914786 
L 195.468943 213.092197 
L 195.551898 209.977143 
L 195.800764 196.370589 
L 196.049631 172.858464 
L 196.298497 132.229511 
L 196.547364 62.022681 
L 196.630319 212.002986 
L 196.713275 208.670091 
L 196.962141 194.112002 
L 197.211008 168.955626 
L 197.459874 125.485407 
L 197.625785 80.085302 
L 197.70874 213.809248 
L 197.791696 210.837605 
L 198.040562 197.857467 
L 198.289429 175.427789 
L 198.538295 136.669306 
L 198.787162 69.694646 
L 198.870117 212.770183 
L 198.953072 209.590726 
L 199.201939 195.702861 
L 199.450805 171.704629 
L 199.699672 130.235685 
L 199.948538 86.925703 
L 200.031494 86.925703 
L 200.114449 58.57735 
L 200.197405 211.658453 
L 200.28036 208.256651 
L 200.529226 193.397578 
L 200.778093 167.721101 
L 201.026959 123.352149 
L 201.19287 77.01341 
L 201.275826 213.502059 
L 201.358781 210.468978 
L 201.607648 197.22048 
L 201.856514 174.327075 
L 202.105381 134.767271 
L 202.354247 66.40793 
L 202.437202 212.441511 
L 202.520158 209.19632 
L 202.769024 195.021328 
L 203.017891 170.52694 
L 203.266757 128.200638 
L 203.432668 83.995234 
L 203.515624 214.200241 
L 203.598579 211.306797 
L 203.847445 198.668231 
L 204.096312 176.828789 
L 204.345178 139.090233 
L 204.594045 73.878008 
L 204.677 213.188519 
L 204.759956 210.09273 
L 205.008822 196.570323 
L 205.257689 173.203604 
L 205.506555 132.825913 
L 205.755421 63.053263 
L 205.838377 212.106044 
L 205.921332 208.79376 
L 206.170199 194.325704 
L 206.419065 169.324902 
L 206.667932 126.123516 
L 206.999754 51.471522 
L 207.082709 210.94787 
L 207.165664 207.403951 
L 207.414531 191.924114 
L 207.663397 165.174955 
L 207.912264 118.952407 
L 208.078175 70.677782 
L 208.16113 212.868496 
L 208.244086 209.708703 
L 208.492952 195.906724 
L 208.741818 172.056905 
L 208.990685 130.844418 
L 209.156596 87.802277 
L 209.239551 214.580946 
L 209.322507 211.763642 
L 209.571373 199.457659 
L 209.82024 178.192921 
L 210.069106 141.447453 
L 210.317972 77.951285 
L 210.400928 213.595847 
L 210.483883 210.581523 
L 210.73275 197.414958 
L 210.981616 174.663132 
L 211.230483 135.347979 
L 211.479349 67.411393 
L 211.562305 212.541857 
L 211.64526 209.316736 
L 211.894127 195.229406 
L 212.142993 170.886499 
L 212.391859 128.821955 
L 212.640726 56.134425 
L 212.723681 211.414161 
L 212.806637 207.9635 
L 213.055503 192.891013 
L 213.30437 166.845757 
L 213.553236 121.839554 
L 213.719147 74.835273 
L 213.802102 213.284245 
L 213.885058 210.207602 
L 214.133924 196.768821 
L 214.382791 173.546609 
L 214.631657 133.418626 
L 214.880524 91.509138 
L 215.046435 91.509138 
L 215.12939 64.077472 
L 215.212345 212.208465 
L 215.295301 208.916665 
L 215.544167 194.538084 
L 215.793034 169.691894 
L 216.0419 126.75768 
L 216.373722 52.567356 
L 216.456678 211.057454 
L 216.539633 207.535452 
L 216.7885 192.151346 
L 217.037366 165.567612 
L 217.286232 119.630919 
L 217.452143 71.654839 
L 217.535099 212.966202 
L 217.618054 209.825949 
L 217.866921 196.109326 
L 218.115787 172.407002 
L 218.364654 131.449385 
L 218.61352 60.674623 
L 218.696475 211.86818 
L 218.779431 208.508324 
L 219.028297 193.832469 
L 219.277164 168.472592 
L 219.52603 124.650725 
L 219.691941 78.88336 
L 219.774897 213.689054 
L 219.857852 210.693372 
L 220.106718 197.608233 
L 220.355585 174.997112 
L 220.604451 135.925095 
L 220.853318 68.40865 
L 220.936273 212.641583 
L 221.019229 209.436407 
L 221.268095 195.436197 
L 221.516962 171.243834 
L 221.765828 129.439431 
L 222.014694 57.201422 
L 222.09765 211.52086 
L 222.180605 208.091539 
L 222.429472 193.112266 
L 222.678338 167.228081 
L 222.927205 122.50021 
L 223.176071 75.786619 
L 223.341982 75.786619 
L 223.424937 213.37938 
L 223.507893 210.321763 
L 223.756759 196.966092 
L 224.005626 173.887493 
L 224.254492 134.007674 
L 224.503359 92.357367 
L 224.66927 92.357367 
L 224.752225 65.095347 
L 224.835181 212.310253 
L 224.918136 209.03881 
L 225.167002 194.74915 
L 225.415869 170.056617 
L 225.664735 127.387921 
L 225.913602 82.824921 
L 225.996557 82.824921 
L 226.079513 53.656413 
L 226.162468 211.166359 
L 226.245424 207.666138 
L 226.49429 192.377173 
L 226.743156 165.957841 
L 226.992023 120.305234 
L 227.157934 72.625853 
L 227.240889 213.063303 
L 227.323845 209.942471 
L 227.572711 196.310676 
L 227.821578 172.754934 
L 228.070444 132.050612 
L 228.31931 61.713543 
L 228.402266 211.972072 
L 228.485221 208.632994 
L 228.734088 194.047899 
L 228.982954 168.844856 
L 229.231821 125.293997 
L 229.397732 79.809671 
L 229.480687 213.781685 
L 229.563643 210.804529 
L 229.812509 197.800312 
L 230.061375 175.329026 
L 230.310242 136.498642 
L 230.559108 69.399739 
L 230.642064 212.740692 
L 230.725019 209.555338 
L 230.973886 195.641709 
L 231.222752 171.598959 
L 231.471619 130.053087 
L 231.720485 58.26182 
L 231.80344 211.6269 
L 231.886396 208.218787 
L 232.135262 193.33215 
L 232.384129 167.608041 
L 232.632995 123.156781 
L 232.881862 76.73208 
L 233.047773 76.73208 
L 233.130728 213.473926 
L 233.213683 210.435218 
L 233.46255 197.162143 
L 233.711416 174.226269 
L 233.960283 134.593079 
L 234.209149 93.20035 
L 234.458016 93.20035 
L 234.540971 66.106927 
L 234.623927 212.411411 
L 234.706882 209.1602 
L 234.955748 194.958911 
L 235.204615 170.419085 
L 235.453481 128.014264 
L 235.619392 83.726856 
L 235.702348 214.173404 
L 235.785303 211.274592 
L 236.03417 198.61258 
L 236.283036 176.732624 
L 236.531902 138.92406 
L 236.780769 73.590862 
L 236.863724 213.159804 
L 236.94668 210.058272 
L 237.195546 196.51078 
L 237.444413 173.100714 
L 237.693279 132.64812 
L 237.942146 62.746037 
L 238.025101 212.075322 
L 238.108056 208.756893 
L 238.356923 194.261997 
L 238.605789 169.214817 
L 238.854656 125.93329 
L 239.020567 80.730253 
L 239.103522 213.873743 
L 239.186478 210.914999 
L 239.435344 197.991204 
L 239.684211 175.658887 
L 239.933077 137.068642 
L 240.181943 70.3847 
L 240.264899 212.839188 
L 240.347854 209.673533 
L 240.596721 195.84595 
L 240.845587 171.951888 
L 241.094454 130.662949 
L 241.34332 59.315661 
L 241.426275 211.732284 
L 241.509231 208.345248 
L 241.758097 193.550675 
L 242.006964 167.985651 
L 242.25583 123.809291 
L 242.504697 77.671695 
L 242.836519 77.671695 
L 242.919474 213.567888 
L 243.002429 210.547972 
L 243.251296 197.356982 
L 243.500162 174.56295 
L 243.749029 135.174864 
L 243.997895 67.112251 
L 244.080851 212.511943 
L 244.163806 209.280839 
L 244.412673 195.167375 
L 244.661539 170.779311 
L 244.910405 128.636735 
L 245.076316 84.623213 
L 245.159272 214.263039 
L 245.242227 211.382154 
L 245.491094 198.798449 
L 245.73996 177.053805 
L 245.988827 139.479061 
L 246.237693 74.549903 
L 246.320648 213.255708 
L 246.403604 210.173357 
L 246.65247 196.709647 
L 246.901337 173.444356 
L 247.150203 133.241933 
L 247.39907 63.772145 
L 247.482025 212.177933 
L 247.564981 208.880026 
L 247.813847 194.474771 
L 248.062713 169.58249 
L 248.31158 126.568629 
L 248.477491 81.645142 
L 248.560446 213.965232 
L 248.643402 211.024786 
L 248.892268 198.180916 
L 249.141135 175.986708 
L 249.390001 137.635117 
L 249.638867 71.363569 
L 249.721823 212.937075 
L 249.804778 209.790997 
L 250.053645 196.048929 
L 250.302511 172.302635 
L 250.551378 131.269038 
L 250.8832 60.362984 
L 250.966155 211.837017 
L 251.049111 208.470927 
L 251.297977 193.767848 
L 251.546843 168.360926 
L 251.79571 124.457767 
L 252.044576 78.605499 
L 252.127532 78.605499 
L 252.210487 48.593106 
L 252.293443 210.660029 
L 252.376398 207.058542 
L 252.625265 191.327246 
L 252.874131 164.143566 
L 253.122997 117.170168 
L 253.288908 68.111358 
L 253.371864 212.611854 
L 253.454819 209.400732 
L 253.703686 195.37455 
L 253.952552 171.137309 
L 254.201419 129.255355 
L 254.450285 85.514027 
L 254.53324 85.514027 
L 254.616196 214.352121 
L 254.699151 211.489052 
L 254.948018 198.983168 
L 255.196884 177.373 
L 255.445751 140.030629 
L 255.694617 75.503013 
L 255.777573 213.351019 
L 255.860528 210.28773 
L 256.109394 196.907284 
L 256.358261 173.785872 
L 256.607127 133.832073 
L 256.938949 64.791909 
L 257.021905 212.279909 
L 257.10486 209.002398 
L 257.353727 194.686229 
L 257.602593 169.94789 
L 257.851459 127.20004 
L 258.01737 82.554373 
L 258.100326 214.056155 
L 258.183281 211.133894 
L 258.432148 198.369454 
L 258.681014 176.312502 
L 258.929881 138.198089 
L 259.178747 72.336384 
L 259.261703 213.034356 
L 259.344658 209.907735 
L 259.593524 196.250652 
L 259.842391 172.651212 
L 260.091257 131.87138 
L 260.340124 89.281103 
L 260.423079 89.281103 
L 260.506035 61.403831 
L 260.58899 211.941101 
L 260.671946 208.595828 
L 260.920812 193.983677 
L 261.169678 168.73388 
L 261.418545 125.102231 
L 261.750367 49.706741 
L 261.833322 210.771392 
L 261.916278 207.192178 
L 262.165144 191.558169 
L 262.414011 164.542602 
L 262.662877 117.859702 
L 262.828788 69.104286 
L 262.911743 212.711147 
L 262.994699 209.519883 
L 263.243565 195.580444 
L 263.492432 171.493093 
L 263.741298 129.87015 
L 263.990165 57.945705 
L 264.07312 211.595289 
L 264.156076 208.180853 
L 264.404942 193.266601 
L 264.653808 167.494772 
L 264.902675 122.961051 
L 265.068586 76.450229 
L 265.151541 213.445741 
L 265.234497 210.401396 
L 265.483363 197.103699 
L 265.73223 174.125277 
L 265.981096 134.418564 
L 266.229962 92.949048 
L 266.395873 92.949048 
L 266.478829 65.805365 
L 266.561784 212.381255 
L 266.64474 209.124013 
L 266.893606 194.89638 
L 267.142473 170.31103 
L 267.391339 127.827545 
L 267.55725 83.457981 
L 267.640205 214.146516 
L 267.723161 211.242326 
L 267.972027 198.556826 
L 268.220894 176.636281 
L 268.46976 138.75758 
L 268.718627 73.303183 
L 268.801582 213.131036 
L 268.884538 210.023751 
L 269.133404 196.451127 
L 269.38227 172.997634 
L 269.631137 132.469997 
L 269.797048 90.143111 
L 269.880003 214.815029 
L 269.962959 212.044542 
L 270.211825 199.943055 
L 270.460692 179.031684 
L 270.709558 142.896836 
L 270.958424 80.455818 
L 271.04138 213.8463 
L 271.124335 210.882067 
L 271.373202 197.934298 
L 271.622068 175.560552 
L 271.870935 136.89872 
L 272.119801 70.091073 
L 272.202757 212.809825 
L 272.285712 209.638298 
L 272.534578 195.785064 
L 272.783445 171.846677 
L 273.032311 130.481143 
L 273.281178 59.001501 
L 273.364133 211.700868 
L 273.447089 208.307549 
L 273.695955 193.48553 
L 273.944822 167.873082 
L 274.193688 123.614772 
L 274.442554 77.391587 
L 274.608465 77.391587 
L 274.691421 213.539877 
L 274.774376 210.514359 
L 275.023243 197.298899 
L 275.272109 174.462583 
L 275.520976 135.001428 
L 275.852797 66.812554 
L 275.935753 212.481973 
L 276.018708 209.244875 
L 276.267575 195.10523 
L 276.516441 170.671924 
L 276.765308 128.45117 
L 276.931219 84.356001 
L 277.014174 214.236318 
L 277.09713 211.350089 
L 277.345996 198.743039 
L 277.594862 176.958058 
L 277.843729 139.31361 
L 278.092595 74.264004 
L 278.175551 213.227118 
L 278.258506 210.139049 
L 278.507373 196.650363 
L 278.756239 173.341913 
L 279.005105 133.064911 
L 279.171016 90.999788 
L 279.253972 214.900697 
L 279.336927 212.147343 
L 279.585794 200.120695 
L 279.83466 179.338647 
L 280.083527 143.427268 
L 280.332393 81.372404 
L 280.415349 213.937959 
L 280.498304 210.992057 
L 280.74717 198.124361 
L 280.996037 175.888981 
L 281.244903 137.466246 
L 281.49377 71.071758 
L 281.576725 212.907894 
L 281.659681 209.75598 
L 281.908547 195.988419 
L 282.157414 172.198074 
L 282.40628 131.088357 
L 282.655146 60.050767 
L 282.738102 211.805795 
L 282.821057 208.433461 
L 283.069924 193.703106 
L 283.31879 168.249053 
L 283.567657 124.26445 
L 283.899478 48.259055 
L 283.982434 210.626624 
L 284.065389 207.018455 
L 284.314256 191.257977 
L 284.563122 164.02387 
L 284.811989 116.963332 
L 284.9779 67.813514 
L 285.060855 212.58207 
L 285.143811 209.364991 
L 285.392677 195.312789 
L 285.641543 171.030586 
L 285.89041 129.070938 
L 286.139276 85.248467 
L 286.471098 85.248467 
L 286.554054 214.325565 
L 286.637009 211.457185 
L 286.885876 198.928101 
L 287.134742 177.277845 
L 287.383608 139.866201 
L 287.632475 75.218882 
L 287.71543 213.322606 
L 287.798386 210.253635 
L 288.047252 196.848366 
L 288.296119 173.684063 
L 288.544985 133.656147 
L 288.793851 91.851167 
L 288.959762 91.851167 
L 289.042718 64.487907 
L 289.125673 212.249509 
L 289.208629 208.965918 
L 289.457495 194.623192 
L 289.706362 169.838961 
L 289.955228 127.01181 
L 290.121139 82.283322 
L 290.204095 214.02905 
L 290.28705 211.101367 
L 290.535916 198.313249 
L 290.784783 176.21538 
L 291.033649 138.030262 
L 291.282516 72.046378 
L 291.365471 213.005356 
L 291.448427 209.872934 
L 291.697293 196.190516 
L 291.94616 172.547298 
L 292.195026 131.691816 
L 292.443892 61.093544 
L 292.526848 211.910072 
L 292.609803 208.558594 
L 292.85867 193.919336 
L 293.107536 168.622699 
L 293.356403 124.91011 
L 293.688224 49.374756 
L 293.77118 210.738194 
L 293.854135 207.152339 
L 294.103002 191.489328 
L 294.351868 164.423645 
L 294.600735 117.654145 
L 294.766646 68.808284 
L 294.849601 212.681547 
L 294.932557 209.484363 
L 295.181423 195.519065 
L 295.430289 171.38703 
L 295.679156 129.686874 
L 295.928022 86.135414 
L 296.3428 86.135414 
L 296.425755 214.414259 
L 296.508711 211.563618 
L 296.757577 199.112018 
L 297.006443 177.595654 
L 297.25531 140.415376 
L 297.504176 76.167855 
L 297.587132 213.417504 
L 297.670087 210.367511 
L 297.918954 197.045145 
L 298.16782 174.024097 
L 298.416687 134.243726 
L 298.665553 92.697281 
L 298.831464 92.697281 
L 298.914419 65.503244 
L 298.997375 212.351042 
L 299.08033 209.087758 
L 299.329197 194.833732 
L 299.578063 170.202774 
L 299.82693 127.64048 
L 299.992841 83.188606 
L 300.075796 214.119579 
L 300.158752 211.210002 
L 300.407618 198.500969 
L 300.656484 176.539759 
L 300.905351 138.59079 
L 301.154217 73.014971 
L 301.237173 213.102215 
L 301.320128 209.989165 
L 301.568995 196.391363 
L 301.817861 172.894362 
L 302.066727 132.291543 
L 302.315594 62.129872 
L 302.398549 212.013705 
L 302.481505 208.682953 
L 302.730371 194.134229 
L 302.979238 168.994034 
L 303.228104 125.551777 
L 303.559926 50.483557 
L 303.642881 210.849074 
L 303.725837 207.285396 
L 303.974703 191.719249 
L 304.22357 164.820949 
L 304.472436 118.340685 
L 304.638347 69.796902 
L 304.721303 212.780408 
L 304.804258 209.602997 
L 305.053125 195.724065 
L 305.301991 171.74127 
L 305.550857 130.299 
L 305.799724 87.016876 
L 306.214501 87.016876 
L 306.297457 214.502406 
L 306.380412 211.669394 
L 306.629279 199.294798 
L 306.878145 177.911497 
L 307.127011 140.961153 
L 307.375878 77.110959 
L 307.458833 213.511814 
L 307.541789 210.480684 
L 307.790655 197.240708 
L 308.039522 174.362028 
L 308.288388 134.827671 
L 308.537254 93.538162 
L 308.62021 93.538162 
L 308.703165 66.512301 
L 308.786121 212.451948 
L 308.869076 209.208845 
L 309.117943 195.04297 
L 309.366809 170.564338 
L 309.615676 128.265261 
L 309.781587 84.088292 
L 309.864542 214.209547 
L 309.947498 211.317964 
L 310.196364 198.687527 
L 310.44523 176.862133 
L 310.694097 139.147852 
L 310.942963 73.977574 
L 311.025919 213.198475 
L 311.108874 210.104678 
L 311.357741 196.590969 
L 311.606607 173.23928 
L 311.855473 132.887561 
L 312.10434 63.159792 
L 312.187295 212.116697 
L 312.270251 208.806544 
L 312.519117 194.347794 
L 312.767984 169.363073 
L 313.01685 126.189476 
L 313.348672 51.5855 
L 313.431627 210.959268 
L 313.514583 207.417629 
L 313.763449 191.947748 
L 314.012316 165.215795 
L 314.261182 119.02298 
L 314.427093 70.779407 
L 314.510049 212.878659 
L 314.593004 209.720898 
L 314.841871 195.927797 
L 315.090737 172.093319 
L 315.339603 130.907341 
L 315.58847 87.892886 
L 316.418025 87.892886 
L 316.50098 214.590007 
L 316.583935 211.774515 
L 316.832802 199.476448 
L 317.081668 178.225388 
L 317.330535 141.503556 
L 317.579401 78.048231 
L 317.662357 213.605541 
L 317.745312 210.593156 
L 317.994179 197.43506 
L 318.243045 174.69787 
L 318.491911 135.408005 
L 318.823733 67.515118 
L 318.906689 212.55223 
L 318.989644 209.329183 
L 319.238511 195.250914 
L 319.487377 170.923665 
L 319.736244 128.886179 
L 319.902154 84.982414 
L 319.98511 214.298959 
L 320.068065 211.425258 
L 320.316932 198.872932 
L 320.565798 177.182513 
L 320.814665 139.701468 
L 321.063531 74.934223 
L 321.146487 213.29414 
L 321.229442 210.219476 
L 321.478308 196.78934 
L 321.727175 173.582065 
L 321.976041 133.479894 
L 322.224908 64.183342 
L 322.307863 212.219052 
L 322.390819 208.92937 
L 322.639685 194.560037 
L 322.888552 169.72983 
L 323.137418 126.823231 
L 323.46924 52.680629 
L 323.552195 211.068781 
L 323.635151 207.549044 
L 323.884017 192.174834 
L 324.132884 165.6082 
L 324.38175 119.701055 
L 324.547661 71.755835 
L 324.630617 212.976302 
L 324.713572 209.838069 
L 324.962438 196.130269 
L 325.211305 172.443191 
L 325.460171 131.511919 
L 325.791993 60.782682 
L 325.874949 211.878986 
L 325.957904 208.521291 
L 326.206771 193.854876 
L 326.455637 168.511312 
L 326.704503 124.717632 
L 326.870414 78.979706 
L 326.95337 213.698689 
L 327.036325 210.704934 
L 327.285192 197.628211 
L 327.534058 175.031634 
L 327.782925 135.98475 
L 328.114746 68.511734 
L 328.197702 212.651891 
L 328.280657 209.448777 
L 328.529524 195.457572 
L 328.77839 171.280771 
L 329.027257 129.503257 
L 329.193168 85.871006 
L 329.276123 214.387819 
L 329.359079 211.53189 
L 329.607945 199.057191 
L 329.856811 177.500912 
L 330.105678 140.251661 
L 330.354544 75.884957 
L 330.4375 213.389214 
L 330.520455 210.333564 
L 330.769322 196.986484 
L 331.018188 173.92273 
L 331.267054 134.068563 
L 331.515921 65.200562 
L 331.598876 212.320774 
L 331.681832 209.051436 
L 331.930698 194.770968 
L 332.179565 170.094318 
L 332.428431 127.453067 
L 332.760253 53.768986 
L 332.843209 211.177617 
L 332.926164 207.679647 
L 333.17503 192.400516 
L 333.423897 165.998177 
L 333.672763 120.374936 
L 333.838674 72.726224 
L 333.92163 213.07334 
L 334.004585 209.954516 
L 334.253452 196.331489 
L 334.502318 172.790899 
L 334.751184 132.112759 
L 335.000051 61.820933 
L 335.083006 211.982811 
L 335.165962 208.645881 
L 335.414828 194.070168 
L 335.663695 168.883336 
L 335.912561 125.36049 
L 336.078472 79.905421 
L 336.161427 213.79126 
L 336.244383 210.816019 
L 336.493249 197.820167 
L 336.742116 175.363335 
L 336.990982 136.557928 
L 337.239849 69.502186 
L 337.322804 212.750937 
L 337.40576 209.567631 
L 337.654626 195.662952 
L 337.903492 171.635667 
L 338.152359 130.116519 
L 338.401225 86.754103 
L 339.064869 86.754103 
L 339.147825 58.371431 
L 339.23078 211.637861 
L 339.313736 208.23194 
L 339.562602 193.354879 
L 339.811468 167.647317 
L 340.060335 123.224649 
L 340.226246 76.82981 
L 340.309201 213.483699 
L 340.392157 210.446946 
L 340.641023 197.182409 
L 340.88989 174.261288 
L 341.138756 134.653591 
L 341.387622 66.211491 
L 341.470578 212.421867 
L 341.553533 209.172748 
L 341.8024 194.980594 
L 342.051266 170.456552 
L 342.300133 128.079008 
L 342.548999 54.850611 
L 342.631955 211.285779 
L 342.71491 207.809442 
L 342.963776 192.624802 
L 343.212643 166.385743 
L 343.461509 121.044651 
L 343.710376 73.690612 
L 344.042198 73.690612 
L 344.125153 213.169779 
L 344.208109 210.070242 
L 344.456975 196.531464 
L 344.705841 173.136456 
L 344.954708 132.709883 
L 345.203574 62.852763 
L 345.28653 212.085994 
L 345.369485 208.7697 
L 345.618352 194.284128 
L 345.867218 169.253059 
L 346.116084 125.999372 
L 346.364951 80.825411 
L 347.526328 80.825411 
L 347.609283 51.257 
L 347.692238 210.926418 
L 347.775194 207.378209 
L 348.02406 191.879631 
L 348.272927 165.098088 
L 348.521793 118.819581 
L 348.687704 70.486512 
L 348.77066 212.849369 
L 348.853615 209.68575 
L 349.102482 195.867062 
L 349.351348 171.988369 
L 349.600214 130.725988 
L 349.849081 59.424594 
L 349.932036 211.743177 
L 350.014992 208.35832 
L 350.263858 193.573263 
L 350.512725 168.024684 
L 350.761591 123.87674 
L 351.010457 47.589092 
L 351.093413 210.559627 
L 351.176368 206.93806 
L 351.425235 191.119053 
L 351.674101 163.78381 
L 351.922968 116.548509 
L 352.088879 67.216169 
L 352.171834 212.522335 
L 352.25479 209.293309 
L 352.503656 195.188924 
L 352.752522 170.816546 
L 353.001389 128.701078 
L 353.250255 55.925548 
L 353.333211 211.393273 
L 353.416166 207.938435 
L 353.665033 192.847701 
L 353.913899 166.770913 
L 354.162765 121.710223 
L 354.411632 74.649037 
L 356.568474 74.649037 
L 356.65143 43.845351 
L 356.734385 210.185253 
L 356.817341 206.488811 
L 357.066207 190.342751 
L 357.149163 182.677808 
L 357.149163 182.677808 
" clip-path="url(#pe3f3cd9089)" style="fill: none; stroke: #1f77b4; stroke-width: 1.5; stroke-linecap: square"/>
   </g>
   <g id="patch_3">
    <path d="M 37.567344 228.96 
L 37.567344 7.2 
" style="fill: none; stroke: #000000; stroke-width: 0.8; stroke-linejoin: miter; stroke-linecap: square"/>
   </g>
   <g id="patch_4">
    <path d="M 372.367344 228.96 
L 372.367344 7.2 
" style="fill: none; stroke: #000000; stroke-width: 0.8; stroke-linejoin: miter; stroke-linecap: square"/>
   </g>
   <g id="patch_5">
    <path d="M 37.567344 228.96 
L 372.367344 228.96 
" style="fill: none; stroke: #000000; stroke-width: 0.8; stroke-linejoin: miter; stroke-linecap: square"/>
   </g>
   <g id="patch_6">
    <path d="M 37.567344 7.2 
L 372.367344 7.2 
" style="fill: none; stroke: #000000; stroke-width: 0.8; stroke-linejoin: miter; stroke-linecap: square"/>
   </g>
   <g id="legend_1">
    <g id="patch_7">
     <path d="M 314.548024 29.420307 
L 365.367344 29.420307 
Q 367.367344 29.420307 367.367344 27.420307 
L 367.367344 14.2 
Q 367.367344 12.2 365.367344 12.2 
L 314.548024 12.2 
Q 312.548024 12.2 312.548024 14.2 
L 312.548024 27.420307 
Q 312.548024 29.420307 314.548024 29.420307 
z
" style="fill: #ffffff; opacity: 0.8; stroke: #cccccc; stroke-linejoin: miter"/>
    </g>
    <g id="line2d_17">
     <path d="M 316.548024 19.79832 
L 326.548024 19.79832 
L 336.548024 19.79832 
" style="fill: none; stroke: #1f77b4; stroke-width: 1.5; stroke-linecap: square"/>
    </g>
    <g id="text_18">
     <!-- CFL -->
     <g transform="translate(344.548024 23.29832) scale(0.1 -0.1)">
      <use xlink:href="#NimbusSanL-Regu-43" transform="scale(0.996264)"/>
      <use xlink:href="#NimbusSanL-Regu-46" transform="translate(71.929985 0) scale(0.996264)"/>
      <use xlink:href="#NimbusSanL-Regu-4c" transform="translate(132.801616 0) scale(0.996264)"/>
     </g>
    </g>
   </g>
  </g>
 </g>
 <defs>
  <clipPath id="pe3f3cd9089">
   <rect x="37.567344" y="7.2" width="334.8" height="221.76"/>
  </clipPath>
 </defs>
</svg>
