<?xml version="1.0" encoding="utf-8" standalone="no"?>
<!DOCTYPE svg PUBLIC "-//W3C//DTD SVG 1.1//EN"
  "http://www.w3.org/Graphics/SVG/1.1/DTD/svg11.dtd">
<svg xmlns:xlink="http://www.w3.org/1999/xlink" width="379.567344pt" height="265.600613pt" viewBox="0 0 379.567344 265.600613" xmlns="http://www.w3.org/2000/svg" version="1.1">
 <metadata>
  <rdf:RDF xmlns:dc="http://purl.org/dc/elements/1.1/" xmlns:cc="http://creativecommons.org/ns#" xmlns:rdf="http://www.w3.org/1999/02/22-rdf-syntax-ns#">
   <cc:Work>
    <dc:type rdf:resource="http://purl.org/dc/dcmitype/StillImage"/>
    <dc:date>2025-07-17T20:53:29.550052</dc:date>
    <dc:format>image/svg+xml</dc:format>
    <dc:creator>
     <cc:Agent>
      <dc:title>Matplotlib v3.10.3, https://matplotlib.org/</dc:title>
     </cc:Agent>
    </dc:creator>
   </cc:Work>
  </rdf:RDF>
 </metadata>
 <defs>
  <style type="text/css">*{stroke-linejoin: round; stroke-linecap: butt}</style>
 </defs>
 <g id="figure_1">
  <g id="patch_1">
   <path d="M 0 265.600613 
L 379.567344 265.600613 
L 379.567344 0 
L 0 0 
z
" style="fill: #ffffff"/>
  </g>
  <g id="axes_1">
   <g id="patch_2">
    <path d="M 37.567344 228.96 
L 372.367344 228.96 
L 372.367344 7.2 
L 37.567344 7.2 
z
" style="fill: #ffffff"/>
   </g>
   <g id="matplotlib.axis_1">
    <g id="xtick_1">
     <g id="line2d_1">
      <defs>
       <path id="m9c8e3834fc" d="M 0 0 
L 0 3.5 
" style="stroke: #000000; stroke-width: 0.8"/>
      </defs>
      <g>
       <use xlink:href="#m9c8e3834fc" x="52.785526" y="228.96" style="stroke: #000000; stroke-width: 0.8"/>
      </g>
     </g>
     <g id="text_1">
      <!-- $\mathdefault{0}$ -->
      <g transform="translate(50.294859 243.05832) scale(0.1 -0.1)">
       <defs>
        <path id="CMR17-30" d="M 2688 2038 
C 2688 2430 2682 3099 2413 3613 
C 2176 4063 1798 4224 1466 4224 
C 1158 4224 768 4082 525 3620 
C 269 3137 243 2539 243 2038 
C 243 1671 250 1112 448 623 
C 723 -39 1216 -128 1466 -128 
C 1760 -128 2208 -7 2470 604 
C 2662 1048 2688 1568 2688 2038 
z
M 1466 -26 
C 1056 -26 813 328 723 816 
C 653 1196 653 1749 653 2109 
C 653 2604 653 3015 736 3407 
C 858 3954 1216 4121 1466 4121 
C 1728 4121 2067 3947 2189 3420 
C 2272 3054 2278 2623 2278 2109 
C 2278 1691 2278 1176 2202 797 
C 2067 96 1690 -26 1466 -26 
z
" transform="scale(0.015625)"/>
       </defs>
       <use xlink:href="#CMR17-30" transform="scale(0.996264)"/>
      </g>
     </g>
    </g>
    <g id="xtick_2">
     <g id="line2d_2">
      <g>
       <use xlink:href="#m9c8e3834fc" x="96.272258" y="228.96" style="stroke: #000000; stroke-width: 0.8"/>
      </g>
     </g>
     <g id="text_2">
      <!-- $\mathdefault{1000}$ -->
      <g transform="translate(86.309588 243.05832) scale(0.1 -0.1)">
       <defs>
        <path id="CMR17-31" d="M 1702 4083 
C 1702 4217 1696 4224 1606 4224 
C 1357 3927 979 3833 621 3820 
C 602 3820 570 3820 563 3808 
C 557 3795 557 3782 557 3648 
C 755 3648 1088 3686 1344 3839 
L 1344 467 
C 1344 243 1331 166 781 166 
L 589 166 
L 589 0 
C 896 6 1216 12 1523 12 
C 1830 12 2150 6 2458 0 
L 2458 166 
L 2266 166 
C 1715 166 1702 236 1702 467 
L 1702 4083 
z
" transform="scale(0.015625)"/>
       </defs>
       <use xlink:href="#CMR17-31" transform="scale(0.996264)"/>
       <use xlink:href="#CMR17-30" transform="translate(45.690477 0) scale(0.996264)"/>
       <use xlink:href="#CMR17-30" transform="translate(91.380954 0) scale(0.996264)"/>
       <use xlink:href="#CMR17-30" transform="translate(137.071431 0) scale(0.996264)"/>
      </g>
     </g>
    </g>
    <g id="xtick_3">
     <g id="line2d_3">
      <g>
       <use xlink:href="#m9c8e3834fc" x="139.75899" y="228.96" style="stroke: #000000; stroke-width: 0.8"/>
      </g>
     </g>
     <g id="text_3">
      <!-- $\mathdefault{2000}$ -->
      <g transform="translate(129.796319 243.05832) scale(0.1 -0.1)">
       <defs>
        <path id="CMR17-32" d="M 2669 990 
L 2554 990 
C 2490 537 2438 460 2413 422 
C 2381 371 1920 371 1830 371 
L 602 371 
C 832 620 1280 1073 1824 1596 
C 2214 1966 2669 2400 2669 3033 
C 2669 3788 2067 4224 1395 4224 
C 691 4224 262 3603 262 3027 
C 262 2777 448 2745 525 2745 
C 589 2745 781 2783 781 3007 
C 781 3206 614 3264 525 3264 
C 486 3264 448 3257 422 3244 
C 544 3788 915 4057 1306 4057 
C 1862 4057 2227 3616 2227 3033 
C 2227 2477 1901 1998 1536 1583 
L 262 147 
L 262 0 
L 2515 0 
L 2669 990 
z
" transform="scale(0.015625)"/>
       </defs>
       <use xlink:href="#CMR17-32" transform="scale(0.996264)"/>
       <use xlink:href="#CMR17-30" transform="translate(45.690477 0) scale(0.996264)"/>
       <use xlink:href="#CMR17-30" transform="translate(91.380954 0) scale(0.996264)"/>
       <use xlink:href="#CMR17-30" transform="translate(137.071431 0) scale(0.996264)"/>
      </g>
     </g>
    </g>
    <g id="xtick_4">
     <g id="line2d_4">
      <g>
       <use xlink:href="#m9c8e3834fc" x="183.245722" y="228.96" style="stroke: #000000; stroke-width: 0.8"/>
      </g>
     </g>
     <g id="text_4">
      <!-- $\mathdefault{3000}$ -->
      <g transform="translate(173.283051 243.05832) scale(0.1 -0.1)">
       <defs>
        <path id="CMR17-33" d="M 1414 2176 
C 1984 2176 2234 1673 2234 1094 
C 2234 322 1824 25 1453 25 
C 1114 25 563 193 390 691 
C 422 678 454 678 486 678 
C 640 678 755 780 755 947 
C 755 1132 614 1216 486 1216 
C 378 1216 211 1164 211 927 
C 211 335 787 -128 1466 -128 
C 2176 -128 2720 432 2720 1087 
C 2720 1718 2208 2176 1600 2246 
C 2086 2347 2554 2776 2554 3353 
C 2554 3856 2048 4224 1472 4224 
C 890 4224 378 3862 378 3347 
C 378 3123 544 3084 627 3084 
C 762 3084 877 3167 877 3334 
C 877 3500 762 3584 627 3584 
C 602 3584 570 3584 544 3571 
C 730 3999 1235 4076 1459 4076 
C 1683 4076 2106 3966 2106 3347 
C 2106 3167 2080 2851 1862 2574 
C 1670 2329 1453 2316 1242 2297 
C 1210 2297 1062 2284 1037 2284 
C 992 2278 966 2272 966 2227 
C 966 2182 973 2176 1101 2176 
L 1414 2176 
z
" transform="scale(0.015625)"/>
       </defs>
       <use xlink:href="#CMR17-33" transform="scale(0.996264)"/>
       <use xlink:href="#CMR17-30" transform="translate(45.690477 0) scale(0.996264)"/>
       <use xlink:href="#CMR17-30" transform="translate(91.380954 0) scale(0.996264)"/>
       <use xlink:href="#CMR17-30" transform="translate(137.071431 0) scale(0.996264)"/>
      </g>
     </g>
    </g>
    <g id="xtick_5">
     <g id="line2d_5">
      <g>
       <use xlink:href="#m9c8e3834fc" x="226.732454" y="228.96" style="stroke: #000000; stroke-width: 0.8"/>
      </g>
     </g>
     <g id="text_5">
      <!-- $\mathdefault{4000}$ -->
      <g transform="translate(216.769783 243.05832) scale(0.1 -0.1)">
       <defs>
        <path id="CMR17-34" d="M 2150 4147 
C 2150 4281 2144 4288 2029 4288 
L 128 1254 
L 128 1088 
L 1779 1088 
L 1779 460 
C 1779 230 1766 166 1318 166 
L 1197 166 
L 1197 0 
C 1402 12 1747 12 1965 12 
C 2182 12 2528 12 2733 0 
L 2733 166 
L 2611 166 
C 2163 166 2150 230 2150 460 
L 2150 1088 
L 2803 1088 
L 2803 1254 
L 2150 1254 
L 2150 4147 
z
M 1798 3723 
L 1798 1254 
L 256 1254 
L 1798 3723 
z
" transform="scale(0.015625)"/>
       </defs>
       <use xlink:href="#CMR17-34" transform="scale(0.996264)"/>
       <use xlink:href="#CMR17-30" transform="translate(45.690477 0) scale(0.996264)"/>
       <use xlink:href="#CMR17-30" transform="translate(91.380954 0) scale(0.996264)"/>
       <use xlink:href="#CMR17-30" transform="translate(137.071431 0) scale(0.996264)"/>
      </g>
     </g>
    </g>
    <g id="xtick_6">
     <g id="line2d_6">
      <g>
       <use xlink:href="#m9c8e3834fc" x="270.219186" y="228.96" style="stroke: #000000; stroke-width: 0.8"/>
      </g>
     </g>
     <g id="text_6">
      <!-- $\mathdefault{5000}$ -->
      <g transform="translate(260.256515 243.05832) scale(0.1 -0.1)">
       <defs>
        <path id="CMR17-35" d="M 730 3750 
C 794 3724 1056 3641 1325 3641 
C 1920 3641 2246 3961 2432 4140 
C 2432 4191 2432 4224 2394 4224 
C 2387 4224 2374 4224 2323 4198 
C 2099 4102 1837 4032 1517 4032 
C 1325 4032 1037 4055 723 4191 
C 653 4224 640 4224 634 4224 
C 602 4224 595 4217 595 4090 
L 595 2231 
C 595 2113 595 2080 659 2080 
C 691 2080 704 2093 736 2139 
C 941 2435 1222 2560 1542 2560 
C 1766 2560 2246 2415 2246 1293 
C 2246 1087 2246 716 2054 422 
C 1894 159 1645 25 1370 25 
C 947 25 518 319 403 812 
C 429 806 480 793 506 793 
C 589 793 749 838 749 1036 
C 749 1209 627 1280 506 1280 
C 358 1280 262 1190 262 1011 
C 262 454 704 -128 1382 -128 
C 2042 -128 2669 441 2669 1267 
C 2669 2054 2170 2662 1549 2662 
C 1222 2662 947 2540 730 2304 
L 730 3750 
z
" transform="scale(0.015625)"/>
       </defs>
       <use xlink:href="#CMR17-35" transform="scale(0.996264)"/>
       <use xlink:href="#CMR17-30" transform="translate(45.690477 0) scale(0.996264)"/>
       <use xlink:href="#CMR17-30" transform="translate(91.380954 0) scale(0.996264)"/>
       <use xlink:href="#CMR17-30" transform="translate(137.071431 0) scale(0.996264)"/>
      </g>
     </g>
    </g>
    <g id="xtick_7">
     <g id="line2d_7">
      <g>
       <use xlink:href="#m9c8e3834fc" x="313.705917" y="228.96" style="stroke: #000000; stroke-width: 0.8"/>
      </g>
     </g>
     <g id="text_7">
      <!-- $\mathdefault{6000}$ -->
      <g transform="translate(303.743247 243.05832) scale(0.1 -0.1)">
       <defs>
        <path id="CMR17-36" d="M 678 2198 
C 678 3712 1395 4076 1811 4076 
C 1946 4076 2272 4049 2400 3782 
C 2298 3782 2106 3782 2106 3558 
C 2106 3385 2246 3328 2336 3328 
C 2394 3328 2566 3353 2566 3571 
C 2566 3987 2246 4224 1805 4224 
C 1043 4224 243 3411 243 2011 
C 243 257 966 -128 1478 -128 
C 2099 -128 2688 431 2688 1295 
C 2688 2101 2170 2688 1517 2688 
C 1126 2688 838 2430 678 1979 
L 678 2198 
z
M 1478 25 
C 691 25 691 1212 691 1450 
C 691 1914 909 2585 1504 2585 
C 1613 2585 1926 2585 2138 2140 
C 2253 1889 2253 1624 2253 1302 
C 2253 954 2253 696 2118 438 
C 1978 173 1773 25 1478 25 
z
" transform="scale(0.015625)"/>
       </defs>
       <use xlink:href="#CMR17-36" transform="scale(0.996264)"/>
       <use xlink:href="#CMR17-30" transform="translate(45.690477 0) scale(0.996264)"/>
       <use xlink:href="#CMR17-30" transform="translate(91.380954 0) scale(0.996264)"/>
       <use xlink:href="#CMR17-30" transform="translate(137.071431 0) scale(0.996264)"/>
      </g>
     </g>
    </g>
    <g id="xtick_8">
     <g id="line2d_8">
      <g>
       <use xlink:href="#m9c8e3834fc" x="357.192649" y="228.96" style="stroke: #000000; stroke-width: 0.8"/>
      </g>
     </g>
     <g id="text_8">
      <!-- $\mathdefault{7000}$ -->
      <g transform="translate(347.229979 243.05832) scale(0.1 -0.1)">
       <defs>
        <path id="CMR17-37" d="M 2886 3955 
L 2886 4096 
L 1382 4096 
C 634 4096 621 4166 595 4288 
L 480 4288 
L 294 3104 
L 410 3104 
C 429 3226 474 3552 550 3673 
C 589 3724 1062 3724 1171 3724 
L 2579 3724 
L 1869 2670 
C 1395 1961 1069 1003 1069 166 
C 1069 89 1069 -128 1299 -128 
C 1530 -128 1530 89 1530 172 
L 1530 466 
C 1530 1514 1709 2204 2003 2644 
L 2886 3955 
z
" transform="scale(0.015625)"/>
       </defs>
       <use xlink:href="#CMR17-37" transform="scale(0.996264)"/>
       <use xlink:href="#CMR17-30" transform="translate(45.690477 0) scale(0.996264)"/>
       <use xlink:href="#CMR17-30" transform="translate(91.380954 0) scale(0.996264)"/>
       <use xlink:href="#CMR17-30" transform="translate(137.071431 0) scale(0.996264)"/>
      </g>
     </g>
    </g>
    <g id="text_9">
     <!-- Iteration -->
     <g transform="translate(187.019968 256.278627) scale(0.1 -0.1)">
      <defs>
       <path id="NimbusSanL-Regu-49" d="M 1242 4672 
L 640 4672 
L 640 0 
L 1242 0 
L 1242 4672 
z
" transform="scale(0.015625)"/>
       <path id="NimbusSanL-Regu-74" d="M 1626 3328 
L 1075 3328 
L 1075 4249 
L 544 4249 
L 544 3328 
L 90 3328 
L 90 2892 
L 544 2892 
L 544 402 
C 544 64 774 -128 1190 -128 
C 1318 -128 1446 -116 1626 -84 
L 1626 364 
C 1555 345 1472 339 1370 339 
C 1139 339 1075 402 1075 634 
L 1075 2892 
L 1626 2892 
L 1626 3328 
z
" transform="scale(0.015625)"/>
       <path id="NimbusSanL-Regu-65" d="M 3283 1484 
C 3283 1998 3245 2311 3149 2565 
C 2931 3123 2419 3456 1792 3456 
C 858 3456 256 2734 256 1619 
C 256 545 838 -128 1779 -128 
C 2547 -128 3078 307 3213 1018 
L 2675 1018 
C 2528 588 2227 364 1798 364 
C 1459 364 1171 514 992 787 
C 864 974 819 1161 813 1484 
L 3283 1484 
z
M 826 1920 
C 870 2552 1248 2963 1786 2963 
C 2310 2963 2714 2519 2714 1959 
C 2714 1946 2714 1933 2707 1920 
L 826 1920 
z
" transform="scale(0.015625)"/>
       <path id="NimbusSanL-Regu-72" d="M 442 3328 
L 442 0 
L 979 0 
L 979 1727 
C 979 2203 1101 2514 1357 2698 
C 1523 2819 1683 2857 2054 2863 
L 2054 3404 
C 1965 3449 1920 3456 1850 3456 
C 1504 3456 1242 3251 934 2750 
L 934 3328 
L 442 3328 
z
" transform="scale(0.015625)"/>
       <path id="NimbusSanL-Regu-61" d="M 3424 332 
C 3366 320 3341 320 3309 320 
C 3123 320 3021 415 3021 581 
L 3021 2542 
C 3021 3135 2586 3456 1760 3456 
C 1274 3456 870 3315 646 3065 
C 493 2893 429 2702 416 2370 
L 954 2370 
C 998 2778 1242 2963 1741 2963 
C 2221 2963 2490 2784 2490 2466 
L 2490 2326 
C 2490 2103 2355 2007 1933 1956 
C 1178 1861 1062 1835 858 1753 
C 467 1593 269 1294 269 861 
C 269 256 691 -128 1370 -128 
C 1792 -128 2131 19 2509 364 
C 2547 25 2714 -128 3059 -128 
C 3168 -128 3251 -116 3424 -71 
L 3424 332 
z
M 2490 1071 
C 2490 893 2438 785 2278 638 
C 2061 441 1798 339 1485 339 
C 1069 339 826 536 826 874 
C 826 1224 1062 1402 1632 1485 
C 2195 1562 2310 1587 2490 1670 
L 2490 1071 
z
" transform="scale(0.015625)"/>
       <path id="NimbusSanL-Regu-69" d="M 960 3358 
L 429 3358 
L 429 0 
L 960 0 
L 960 3358 
z
M 960 4672 
L 422 4672 
L 422 3999 
L 960 3999 
L 960 4672 
z
" transform="scale(0.015625)"/>
       <path id="NimbusSanL-Regu-6f" d="M 1741 3456 
C 800 3456 230 2784 230 1663 
C 230 543 794 -128 1747 -128 
C 2688 -128 3264 543 3264 1638 
C 3264 2791 2707 3456 1741 3456 
z
M 1747 2963 
C 2349 2963 2707 2472 2707 1644 
C 2707 861 2336 364 1747 364 
C 1152 364 787 855 787 1663 
C 787 2466 1152 2963 1747 2963 
z
" transform="scale(0.015625)"/>
       <path id="NimbusSanL-Regu-6e" d="M 448 3328 
L 448 0 
L 986 0 
L 986 1835 
C 986 2539 1344 2988 1894 2988 
C 2317 2988 2586 2732 2586 2328 
L 2586 0 
L 3117 0 
L 3117 2539 
C 3117 3097 2701 3456 2054 3456 
C 1555 3456 1235 3263 941 2796 
L 941 3328 
L 448 3328 
z
" transform="scale(0.015625)"/>
      </defs>
      <use xlink:href="#NimbusSanL-Regu-49" transform="scale(0.996264)"/>
      <use xlink:href="#NimbusSanL-Regu-74" transform="translate(27.69517 0) scale(0.996264)"/>
      <use xlink:href="#NimbusSanL-Regu-65" transform="translate(55.390339 0) scale(0.996264)"/>
      <use xlink:href="#NimbusSanL-Regu-72" transform="translate(110.782016 0) scale(0.996264)"/>
      <use xlink:href="#NimbusSanL-Regu-61" transform="translate(142.961149 0) scale(0.996264)"/>
      <use xlink:href="#NimbusSanL-Regu-74" transform="translate(198.352826 0) scale(0.996264)"/>
      <use xlink:href="#NimbusSanL-Regu-69" transform="translate(226.047996 0) scale(0.996264)"/>
      <use xlink:href="#NimbusSanL-Regu-6f" transform="translate(248.16478 0) scale(0.996264)"/>
      <use xlink:href="#NimbusSanL-Regu-6e" transform="translate(303.556457 0) scale(0.996264)"/>
     </g>
    </g>
   </g>
   <g id="matplotlib.axis_2">
    <g id="ytick_1">
     <g id="line2d_9">
      <defs>
       <path id="mbdfc392c5f" d="M 0 0 
L -3.5 0 
" style="stroke: #000000; stroke-width: 0.8"/>
      </defs>
      <g>
       <use xlink:href="#mbdfc392c5f" x="37.567344" y="219.47288" style="stroke: #000000; stroke-width: 0.8"/>
      </g>
     </g>
     <g id="text_10">
      <!-- $\mathdefault{0}$ -->
      <g transform="translate(25.586009 223.02204) scale(0.1 -0.1)">
       <use xlink:href="#CMR17-30" transform="scale(0.996264)"/>
      </g>
     </g>
    </g>
    <g id="ytick_2">
     <g id="line2d_10">
      <g>
       <use xlink:href="#mbdfc392c5f" x="37.567344" y="189.828902" style="stroke: #000000; stroke-width: 0.8"/>
      </g>
     </g>
     <g id="text_11">
      <!-- $\mathdefault{5}$ -->
      <g transform="translate(25.586009 193.378062) scale(0.1 -0.1)">
       <use xlink:href="#CMR17-35" transform="scale(0.996264)"/>
      </g>
     </g>
    </g>
    <g id="ytick_3">
     <g id="line2d_11">
      <g>
       <use xlink:href="#mbdfc392c5f" x="37.567344" y="160.184924" style="stroke: #000000; stroke-width: 0.8"/>
      </g>
     </g>
     <g id="text_12">
      <!-- $\mathdefault{10}$ -->
      <g transform="translate(20.604674 163.734084) scale(0.1 -0.1)">
       <use xlink:href="#CMR17-31" transform="scale(0.996264)"/>
       <use xlink:href="#CMR17-30" transform="translate(45.690477 0) scale(0.996264)"/>
      </g>
     </g>
    </g>
    <g id="ytick_4">
     <g id="line2d_12">
      <g>
       <use xlink:href="#mbdfc392c5f" x="37.567344" y="130.540946" style="stroke: #000000; stroke-width: 0.8"/>
      </g>
     </g>
     <g id="text_13">
      <!-- $\mathdefault{15}$ -->
      <g transform="translate(20.604674 134.090106) scale(0.1 -0.1)">
       <use xlink:href="#CMR17-31" transform="scale(0.996264)"/>
       <use xlink:href="#CMR17-35" transform="translate(45.690477 0) scale(0.996264)"/>
      </g>
     </g>
    </g>
    <g id="ytick_5">
     <g id="line2d_13">
      <g>
       <use xlink:href="#mbdfc392c5f" x="37.567344" y="100.896968" style="stroke: #000000; stroke-width: 0.8"/>
      </g>
     </g>
     <g id="text_14">
      <!-- $\mathdefault{20}$ -->
      <g transform="translate(20.604674 104.446128) scale(0.1 -0.1)">
       <use xlink:href="#CMR17-32" transform="scale(0.996264)"/>
       <use xlink:href="#CMR17-30" transform="translate(45.690477 0) scale(0.996264)"/>
      </g>
     </g>
    </g>
    <g id="ytick_6">
     <g id="line2d_14">
      <g>
       <use xlink:href="#mbdfc392c5f" x="37.567344" y="71.25299" style="stroke: #000000; stroke-width: 0.8"/>
      </g>
     </g>
     <g id="text_15">
      <!-- $\mathdefault{25}$ -->
      <g transform="translate(20.604674 74.802151) scale(0.1 -0.1)">
       <use xlink:href="#CMR17-32" transform="scale(0.996264)"/>
       <use xlink:href="#CMR17-35" transform="translate(45.690477 0) scale(0.996264)"/>
      </g>
     </g>
    </g>
    <g id="ytick_7">
     <g id="line2d_15">
      <g>
       <use xlink:href="#mbdfc392c5f" x="37.567344" y="41.609013" style="stroke: #000000; stroke-width: 0.8"/>
      </g>
     </g>
     <g id="text_16">
      <!-- $\mathdefault{30}$ -->
      <g transform="translate(20.604674 45.158173) scale(0.1 -0.1)">
       <use xlink:href="#CMR17-33" transform="scale(0.996264)"/>
       <use xlink:href="#CMR17-30" transform="translate(45.690477 0) scale(0.996264)"/>
      </g>
     </g>
    </g>
    <g id="ytick_8">
     <g id="line2d_16">
      <g>
       <use xlink:href="#mbdfc392c5f" x="37.567344" y="11.965035" style="stroke: #000000; stroke-width: 0.8"/>
      </g>
     </g>
     <g id="text_17">
      <!-- $\mathdefault{35}$ -->
      <g transform="translate(20.604674 15.514195) scale(0.1 -0.1)">
       <use xlink:href="#CMR17-33" transform="scale(0.996264)"/>
       <use xlink:href="#CMR17-35" transform="translate(45.690477 0) scale(0.996264)"/>
      </g>
     </g>
    </g>
    <g id="text_18">
     <!-- Average CFL - Blade_18 -->
     <g transform="translate(14.482687 171.548902) rotate(-90) scale(0.1 -0.1)">
      <defs>
       <path id="NimbusSanL-Regu-41" d="M 3034 1408 
L 3514 0 
L 4179 0 
L 2541 4672 
L 1773 4672 
L 109 0 
L 742 0 
L 1235 1408 
L 3034 1408 
z
M 2867 1907 
L 1382 1907 
L 2150 4032 
L 2867 1907 
z
" transform="scale(0.015625)"/>
       <path id="NimbusSanL-Regu-76" d="M 1824 0 
L 3110 3328 
L 2509 3328 
L 1562 629 
L 666 3328 
L 64 3328 
L 1242 0 
L 1824 0 
z
" transform="scale(0.015625)"/>
       <path id="NimbusSanL-Regu-67" d="M 2637 3359 
L 2637 2873 
C 2368 3270 2042 3456 1613 3456 
C 762 3456 186 2714 186 1632 
C 186 1084 333 638 608 320 
C 858 38 1216 -128 1568 -128 
C 1990 -128 2285 51 2586 473 
L 2586 300 
C 2586 -155 2528 -441 2394 -634 
C 2253 -841 1978 -960 1651 -960 
C 1408 -960 1190 -894 1043 -774 
C 922 -674 870 -581 838 -375 
L 294 -375 
C 352 -1031 845 -1408 1632 -1408 
C 2131 -1408 2560 -1248 2778 -980 
C 3034 -661 3130 -222 3130 568 
L 3130 3359 
L 2637 3359 
z
M 1670 2963 
C 2246 2963 2586 2479 2586 1644 
C 2586 848 2240 364 1677 364 
C 1094 364 742 855 742 1663 
C 742 2466 1101 2963 1670 2963 
z
" transform="scale(0.015625)"/>
       <path id="NimbusSanL-Regu-43" d="M 4237 3219 
C 4051 4236 3462 4736 2438 4736 
C 1811 4736 1306 4537 960 4154 
C 538 3696 307 3035 307 2284 
C 307 1522 544 867 986 415 
C 1344 44 1805 -128 2413 -128 
C 3552 -128 4192 485 4333 1712 
L 3718 1712 
C 3667 1394 3603 1178 3507 994 
C 3315 612 2918 396 2419 396 
C 1491 396 902 1134 902 2291 
C 902 3480 1466 4211 2368 4211 
C 2746 4211 3098 4096 3290 3918 
C 3462 3759 3558 3562 3629 3219 
L 4237 3219 
z
" transform="scale(0.015625)"/>
       <path id="NimbusSanL-Regu-46" d="M 1171 2112 
L 3398 2112 
L 3398 2636 
L 1171 2636 
L 1171 4147 
L 3706 4147 
L 3706 4672 
L 576 4672 
L 576 0 
L 1171 0 
L 1171 2112 
z
" transform="scale(0.015625)"/>
       <path id="NimbusSanL-Regu-4c" d="M 1107 4672 
L 512 4672 
L 512 0 
L 3411 0 
L 3411 524 
L 1107 524 
L 1107 4672 
z
" transform="scale(0.015625)"/>
       <path id="NimbusSanL-Regu-2d" d="M 1818 1996 
L 294 1996 
L 294 1536 
L 1818 1536 
L 1818 1996 
z
" transform="scale(0.015625)"/>
       <path id="NimbusSanL-Regu-42" d="M 506 0 
L 2611 0 
C 3053 0 3379 121 3629 390 
C 3859 632 3987 961 3987 1321 
C 3987 1878 3731 2214 3136 2444 
C 3558 2643 3782 2994 3782 3476 
C 3782 3821 3654 4127 3411 4345 
C 3168 4569 2848 4672 2400 4672 
L 506 4672 
L 506 0 
z
M 1101 2636 
L 1101 4147 
L 2253 4147 
C 2586 4147 2771 4101 2931 3977 
C 3098 3847 3187 3652 3187 3391 
C 3187 3138 3098 2936 2931 2806 
C 2771 2682 2586 2636 2253 2636 
L 1101 2636 
z
M 1101 524 
L 1101 2112 
L 2554 2112 
C 2842 2112 3034 2042 3174 1890 
C 3315 1745 3392 1542 3392 1315 
C 3392 1093 3315 891 3174 746 
C 3034 594 2842 524 2554 524 
L 1101 524 
z
" transform="scale(0.015625)"/>
       <path id="NimbusSanL-Regu-6c" d="M 973 4672 
L 435 4672 
L 435 0 
L 973 0 
L 973 4672 
z
" transform="scale(0.015625)"/>
       <path id="NimbusSanL-Regu-64" d="M 3168 4672 
L 2637 4672 
L 2637 2937 
C 2413 3276 2054 3456 1606 3456 
C 736 3456 166 2759 166 1695 
C 166 568 723 -128 1626 -128 
C 2086 -128 2406 44 2694 460 
L 2694 19 
L 3168 19 
L 3168 4672 
z
M 1696 2956 
C 2272 2956 2637 2447 2637 1651 
C 2637 880 2266 371 1702 371 
C 1114 371 723 887 723 1663 
C 723 2440 1114 2956 1696 2956 
z
" transform="scale(0.015625)"/>
       <path id="NimbusSanL-Regu-31" d="M 1658 3232 
L 1658 0 
L 2221 0 
L 2221 4537 
L 1850 4537 
C 1651 3840 1523 3744 653 3635 
L 653 3232 
L 1658 3232 
z
" transform="scale(0.015625)"/>
       <path id="NimbusSanL-Regu-38" d="M 2502 2399 
C 2970 2681 3123 2910 3123 3337 
C 3123 4044 2566 4544 1760 4544 
C 960 4544 397 4044 397 3337 
C 397 2917 550 2687 1011 2399 
C 493 2150 237 1774 237 1276 
C 237 447 864 -128 1760 -128 
C 2656 -128 3283 447 3283 1270 
C 3283 1774 3027 2150 2502 2399 
z
M 1760 4044 
C 2240 4044 2547 3764 2547 3324 
C 2547 2904 2234 2624 1760 2624 
C 1286 2624 973 2904 973 3331 
C 973 3764 1286 4044 1760 4044 
z
M 1760 2150 
C 2323 2150 2707 1793 2707 1264 
C 2707 728 2323 371 1747 371 
C 1197 371 813 734 813 1264 
C 813 1793 1197 2150 1760 2150 
z
" transform="scale(0.015625)"/>
      </defs>
      <use xlink:href="#NimbusSanL-Regu-41" transform="scale(0.996264)"/>
      <use xlink:href="#NimbusSanL-Regu-76" transform="translate(62.465918 0) scale(0.996264)"/>
      <use xlink:href="#NimbusSanL-Regu-65" transform="translate(109.788488 0) scale(0.996264)"/>
      <use xlink:href="#NimbusSanL-Regu-72" transform="translate(165.180165 0) scale(0.996264)"/>
      <use xlink:href="#NimbusSanL-Regu-61" transform="translate(197.359298 0) scale(0.996264)"/>
      <use xlink:href="#NimbusSanL-Regu-67" transform="translate(252.750975 0) scale(0.996264)"/>
      <use xlink:href="#NimbusSanL-Regu-65" transform="translate(308.142652 0) scale(0.996264)"/>
      <use xlink:href="#NimbusSanL-Regu-43" transform="translate(391.229499 0) scale(0.996264)"/>
      <use xlink:href="#NimbusSanL-Regu-46" transform="translate(463.159484 0) scale(0.996264)"/>
      <use xlink:href="#NimbusSanL-Regu-4c" transform="translate(524.031114 0) scale(0.996264)"/>
      <use xlink:href="#NimbusSanL-Regu-2d" transform="translate(607.117961 0) scale(0.996264)"/>
      <use xlink:href="#NimbusSanL-Regu-42" transform="translate(667.98836 0) scale(0.996264)"/>
      <use xlink:href="#NimbusSanL-Regu-6c" transform="translate(734.438391 0) scale(0.996264)"/>
      <use xlink:href="#NimbusSanL-Regu-61" transform="translate(756.555176 0) scale(0.996264)"/>
      <use xlink:href="#NimbusSanL-Regu-64" transform="translate(811.946853 0) scale(0.996264)"/>
      <use xlink:href="#NimbusSanL-Regu-65" transform="translate(867.33853 0) scale(0.996264)"/>
      <use xlink:href="#NimbusSanL-Regu-31" transform="translate(958.595772 0) scale(0.996264)"/>
      <use xlink:href="#NimbusSanL-Regu-38" transform="translate(1013.987449 0) scale(0.996264)"/>
      <path d="M 928.707548 0 
L 958.595772 0 
L 958.595772 0.3985 
L 928.707548 0.3985 
L 928.707548 0 
z
"/>
     </g>
    </g>
   </g>
   <g id="line2d_17">
    <path d="M 52.785526 134.752079 
L 52.915986 75.256281 
L 52.959473 205.05122 
L 53.046447 198.705689 
L 53.26388 167.797465 
L 53.481314 90.957611 
L 53.524801 206.621353 
L 53.611774 200.966681 
L 53.829208 173.423535 
L 54.046641 105.057068 
L 54.090128 208.031298 
L 54.177102 202.997003 
L 54.394535 178.475626 
L 54.611969 117.746002 
L 54.655456 97.610931 
L 54.698942 207.286685 
L 54.785916 201.924759 
L 55.00335 175.80754 
L 55.220783 129.007826 
L 55.26427 210.426374 
L 55.351243 206.445912 
L 55.568677 187.057615 
L 55.786111 138.817256 
L 55.829597 211.407317 
L 55.916571 207.85847 
L 56.134005 190.572511 
L 56.351438 147.559515 
L 56.394925 212.281543 
L 56.481898 209.117355 
L 56.699332 193.705021 
L 56.916766 155.354201 
L 56.960252 142.530466 
L 57.003739 211.778638 
L 57.090713 208.393172 
L 57.308146 191.903022 
L 57.52558 150.870251 
L 57.569067 137.149725 
L 57.612553 211.240564 
L 57.699527 207.618345 
L 57.916961 189.975005 
L 58.134394 146.072728 
L 58.177881 212.132864 
L 58.264854 208.903258 
L 58.482288 193.172278 
L 58.699722 154.028567 
L 58.743208 140.939704 
L 58.786695 211.619562 
L 58.873669 208.164102 
L 59.091102 191.333023 
L 59.308536 149.451912 
L 59.352023 212.470783 
L 59.438996 209.38986 
L 59.65643 194.383101 
L 59.873863 157.041481 
L 59.960837 129.571666 
L 60.004324 210.482758 
L 60.091297 206.527105 
L 60.308731 187.259649 
L 60.526164 139.316055 
L 60.569651 211.457197 
L 60.656625 207.930297 
L 60.874058 190.75124 
L 61.048005 159.915688 
L 61.091492 213.51716 
L 61.178465 210.896644 
L 61.395899 198.132461 
L 61.613333 166.371089 
L 61.700306 143.006301 
L 61.743793 211.826222 
L 61.830766 208.461692 
L 62.0482 192.073522 
L 62.265634 151.29451 
L 62.30912 212.655043 
L 62.396094 209.655194 
L 62.613528 195.043337 
L 62.830961 158.684361 
L 62.961421 131.937412 
L 63.004908 210.719333 
L 63.091882 206.867772 
L 63.309315 188.107339 
L 63.483262 154.433295 
L 63.526749 212.968921 
L 63.613722 210.107179 
L 63.831156 196.16802 
L 64.04859 161.482932 
L 64.092076 149.884943 
L 64.135563 212.514086 
L 64.222537 209.452217 
L 64.43997 194.538264 
L 64.657404 157.427576 
L 64.744377 145.018516 
L 64.787864 212.027443 
L 64.874838 208.751451 
L 65.092271 192.794535 
L 65.309705 153.088621 
L 65.440165 104.76088 
L 65.483652 208.00168 
L 65.570625 202.954352 
L 65.788059 178.369496 
L 66.005493 117.194509 
L 66.048979 209.245042 
L 66.135953 204.744794 
L 66.353387 182.82469 
L 66.57082 128.280457 
L 66.614307 210.353637 
L 66.70128 206.341171 
L 66.918714 186.796986 
L 67.136148 138.164799 
L 67.223121 102.389244 
L 67.266608 207.764516 
L 67.353581 202.612836 
L 67.571015 177.519696 
L 67.788449 115.079934 
L 67.831935 94.210891 
L 67.875422 206.946681 
L 67.962396 201.435153 
L 68.179829 174.589244 
L 68.527723 107.788032 
L 68.57121 208.304395 
L 68.658183 203.390262 
L 68.875617 179.45418 
L 69.093051 119.893548 
L 69.136537 209.514946 
L 69.223511 205.133456 
L 69.440945 183.791805 
L 69.658378 130.686947 
L 69.701865 112.929761 
L 69.745352 208.818568 
L 69.832325 204.13067 
L 70.049759 181.296554 
L 70.267192 124.477965 
L 70.354166 82.681071 
L 70.397653 205.793699 
L 70.484626 199.774859 
L 70.70206 170.457901 
L 70.919493 97.507929 
L 71.006467 43.856735 
L 71.049954 201.911265 
L 71.136927 194.184155 
L 71.354361 156.54644 
L 71.789228 31.591052 
L 71.876201 218.88 
L 71.919688 218.761424 
L 72.137122 217.702551 
L 72.354556 215.067735 
L 72.571989 208.51147 
L 72.789423 192.197384 
L 73.006857 151.60272 
L 73.22429 50.590203 
L 73.267777 202.584612 
L 73.35475 195.153774 
L 73.572184 158.959163 
L 73.789618 68.895389 
L 73.833104 38.779891 
L 73.876591 201.403581 
L 73.963565 193.453089 
L 74.180998 154.727714 
L 74.398432 58.383891 
L 74.485405 218.88 
L 74.528892 218.761424 
L 74.746326 217.702551 
L 74.963759 215.067735 
L 75.181193 208.511537 
L 75.398627 192.197553 
L 75.61606 151.603138 
L 75.833494 50.794008 
L 75.876981 17.28 
L 75.920468 199.253592 
L 76.007441 190.357105 
L 76.224875 147.023515 
L 76.529282 39.207924 
L 76.572769 218.88 
L 76.659742 218.619133 
L 76.877176 217.348485 
L 77.094609 214.186706 
L 77.312043 206.319188 
L 77.529477 186.742487 
L 77.74691 138.035948 
L 77.920857 50.726381 
L 77.964344 218.88 
L 78.051317 218.619133 
L 78.268751 217.348485 
L 78.486185 214.186706 
L 78.703618 206.319188 
L 78.921052 186.74289 
L 79.138486 138.158088 
L 79.312433 79.885835 
L 79.355919 205.514175 
L 79.442893 199.372345 
L 79.660326 169.47881 
L 79.921247 95.773066 
L 79.964734 207.102898 
L 80.051707 201.660106 
L 80.269141 175.164888 
L 80.443088 128.013502 
L 80.486574 210.326942 
L 80.573548 206.302729 
L 80.790982 186.705036 
L 81.008415 138.276209 
L 81.095389 122.265602 
L 81.138875 209.752152 
L 81.225849 205.47511 
L 81.443283 184.645399 
L 81.573743 159.379334 
L 81.617229 218.88 
L 81.704203 218.619133 
L 81.921637 217.348485 
L 82.13907 214.186706 
L 82.356504 206.319188 
L 82.573938 186.746588 
L 82.791371 138.554209 
L 82.834858 211.381012 
L 82.921831 207.820591 
L 83.139265 190.478257 
L 83.400185 147.45815 
L 83.443672 212.271407 
L 83.530646 209.102803 
L 83.748079 193.671263 
L 83.965513 155.484719 
L 84.009 213.074063 
L 84.095973 210.258584 
L 84.313407 196.545209 
L 84.53084 162.587517 
L 84.617814 138.015381 
L 84.661301 211.32713 
L 84.748274 207.743065 
L 84.965708 190.285568 
L 85.139655 159.000593 
L 85.183141 213.425647 
L 85.270115 210.764864 
L 85.487549 197.804896 
L 85.704982 165.58633 
L 85.748469 214.084222 
L 85.835442 211.713213 
L 86.052876 200.164346 
L 86.27031 171.445128 
L 86.313796 161.86713 
L 86.357283 213.712305 
L 86.444257 211.177652 
L 86.53123 207.527751 
L 86.66169 218.88 
L 87.966292 218.88 
L 88.183726 217.997605 
L 88.40116 215.801926 
L 88.618593 210.338371 
L 88.836027 196.743794 
L 89.053461 162.988756 
L 89.096947 213.824467 
L 89.183921 211.339166 
L 89.401354 199.233597 
L 89.618788 169.154925 
L 89.662275 214.441084 
L 89.749248 212.227094 
L 89.966682 201.443047 
L 90.184116 174.701725 
L 90.227602 165.841519 
L 90.271089 214.109735 
L 90.358063 211.749952 
L 90.575496 200.260897 
L 90.79293 171.930416 
L 90.836417 162.608398 
L 90.879903 213.786431 
L 90.966877 211.284394 
L 91.18431 199.097308 
L 91.314771 184.269572 
L 91.358257 218.88 
L 91.445231 218.619133 
L 91.662664 217.348485 
L 91.880098 214.186706 
L 92.097532 206.319188 
L 92.314965 186.752021 
L 92.532399 139.061267 
L 92.575886 211.431713 
L 92.662859 207.893599 
L 92.880293 190.660559 
L 93.097727 148.061382 
L 93.141213 134.036751 
L 93.1847 210.929263 
L 93.271674 207.170072 
L 93.489107 188.861461 
L 93.706541 143.438314 
L 93.750028 211.869419 
L 93.837001 208.523896 
L 94.054435 192.230465 
L 94.271868 151.898544 
L 94.315355 138.599206 
L 94.358842 211.385512 
L 94.445815 207.827071 
L 94.663249 190.495114 
L 94.880683 147.811237 
L 94.924169 212.306712 
L 95.011143 209.153599 
L 95.228577 193.795206 
L 95.44601 155.77024 
L 95.489497 213.102604 
L 95.57647 210.299682 
L 95.793904 196.64703 
L 96.011338 162.708289 
L 96.054824 151.414727 
L 96.098311 212.667064 
L 96.185285 209.672506 
L 96.402718 195.086413 
L 96.620152 158.824898 
L 96.663639 146.765074 
L 96.707125 212.202099 
L 96.794099 209.002956 
L 97.011533 193.420358 
L 97.228966 154.66568 
L 97.272453 141.734744 
L 97.31594 211.699066 
L 97.402913 208.278588 
L 97.620347 191.6179 
L 97.881267 150.197054 
L 97.924754 212.545297 
L 98.011727 209.497161 
L 98.229161 194.650099 
L 98.490081 157.724601 
L 98.533568 145.402534 
L 98.577055 212.065845 
L 98.664028 208.80675 
L 98.881462 192.932136 
L 99.098896 153.470569 
L 99.142382 212.872648 
L 99.229356 209.968547 
L 99.446789 195.823058 
L 99.664223 160.642686 
L 99.751197 134.879733 
L 99.794683 211.013565 
L 99.881657 207.291466 
L 100.09909 189.161626 
L 100.316524 144.115112 
L 100.360011 129.108962 
L 100.403498 210.436488 
L 100.490471 206.460475 
L 100.707905 187.093854 
L 100.925338 138.931746 
L 100.968825 211.418766 
L 101.055799 207.874956 
L 101.273232 190.613535 
L 101.490666 147.801974 
L 101.534153 133.691419 
L 101.577639 210.894733 
L 101.664613 207.120349 
L 101.882046 188.735831 
L 102.142967 143.293958 
L 102.186454 211.854987 
L 102.273427 208.503115 
L 102.490861 192.176595 
L 102.708294 151.905475 
L 102.751781 212.716139 
L 102.838755 209.743173 
L 103.056188 195.262257 
L 103.273622 159.238377 
L 103.317109 213.449425 
L 103.404082 210.799105 
L 103.621516 197.889753 
L 103.838949 165.769086 
L 103.882436 155.030494 
L 103.925923 213.028641 
L 104.012896 210.193176 
L 104.23033 196.382008 
L 104.447764 162.025725 
L 104.49125 150.554697 
L 104.534737 212.581061 
L 104.621711 209.548661 
L 104.839144 194.778249 
L 105.056578 158.03837 
L 105.100065 213.329429 
L 105.187038 210.62631 
L 105.404472 197.459784 
L 105.621905 164.709049 
L 105.665392 213.996485 
L 105.752366 211.586871 
L 105.969799 199.849967 
L 106.187233 170.64986 
L 106.23072 160.890766 
L 106.274206 213.614668 
L 106.36118 211.037055 
L 106.578614 198.481849 
L 106.796047 167.251844 
L 106.883021 144.294276 
L 106.926507 211.955019 
L 107.013481 208.647161 
L 107.230915 192.535027 
L 107.448348 152.451486 
L 107.491835 212.77074 
L 107.578808 209.821799 
L 107.796242 195.457902 
L 108.013676 159.715931 
L 108.057162 147.764542 
L 108.100649 212.302046 
L 108.187623 209.146879 
L 108.405056 193.778486 
L 108.62249 155.537005 
L 108.665977 213.079292 
L 108.75295 210.266114 
L 108.970384 196.5635 
L 109.187817 162.470567 
L 109.231304 213.772648 
L 109.318278 211.264547 
L 109.535711 199.047921 
L 109.753145 168.653141 
L 109.840118 146.297948 
L 109.883605 212.155386 
L 109.970579 208.935689 
L 110.188012 193.252979 
L 110.405446 154.229376 
L 110.448933 212.948529 
L 110.535906 210.077815 
L 110.75334 196.094953 
L 110.970773 161.301116 
L 111.01426 149.666764 
L 111.057747 212.492268 
L 111.14472 209.420799 
L 111.362154 194.460086 
L 111.579588 157.233045 
L 111.623074 144.787363 
L 111.666561 212.004328 
L 111.753535 208.718165 
L 111.970968 192.711709 
L 112.188402 152.887746 
L 112.231889 212.814366 
L 112.318862 209.88462 
L 112.536296 195.614222 
L 112.753729 160.104906 
L 112.797216 148.231311 
L 112.840703 212.348723 
L 112.927676 209.214094 
L 113.14511 193.945737 
L 113.362544 155.953181 
L 113.40603 213.12091 
L 113.493004 210.326043 
L 113.710438 196.712623 
L 113.927871 162.838079 
L 113.971358 151.511118 
L 114.014845 212.676703 
L 114.101818 209.686386 
L 114.319252 195.120952 
L 114.536685 158.877491 
L 114.623659 132.217712 
L 114.667146 210.747363 
L 114.754119 206.908135 
L 114.971553 188.207775 
L 115.188986 141.675296 
L 115.232473 126.115779 
L 115.27596 210.137169 
L 115.362933 206.029457 
L 115.580367 186.021343 
L 115.928261 119.587125 
L 115.971748 209.484304 
L 116.058721 205.089331 
L 116.276155 183.682008 
L 116.493588 130.413738 
L 116.537075 210.566965 
L 116.624049 206.648363 
L 116.841482 187.561379 
L 117.058916 140.066854 
L 117.102403 211.532277 
L 117.189376 208.038412 
L 117.40681 191.020265 
L 117.624243 148.67367 
L 117.66773 212.392959 
L 117.754704 209.277793 
L 117.972137 194.104243 
L 118.189571 156.347593 
L 118.233058 143.722535 
L 118.276544 211.897845 
L 118.363518 208.56483 
L 118.580952 192.330162 
L 118.841872 151.933112 
L 118.885359 212.718903 
L 118.972332 209.747153 
L 119.189766 195.27216 
L 119.407199 159.253744 
L 119.450686 147.209917 
L 119.494173 212.246583 
L 119.581146 209.067013 
L 119.79858 193.579754 
L 120.016014 155.042496 
L 120.0595 142.15642 
L 120.102987 211.741234 
L 120.189961 208.339309 
L 120.407394 191.768994 
L 120.624828 150.536747 
L 120.668315 212.579266 
L 120.755288 209.546077 
L 120.972722 194.771817 
L 121.233642 158.008732 
L 121.277129 213.326465 
L 121.364102 210.622042 
L 121.581536 197.449164 
L 121.79897 164.670828 
L 121.842456 153.710418 
L 121.885943 212.896633 
L 121.972917 210.003085 
L 122.19035 195.909 
L 122.407784 160.838408 
L 122.451271 149.111514 
L 122.494757 212.436743 
L 122.581731 209.340843 
L 122.799165 194.26113 
L 123.147058 144.190999 
L 123.190545 211.944691 
L 123.277519 208.632289 
L 123.494952 192.498021 
L 123.712386 152.350798 
L 123.755873 212.760671 
L 123.842846 209.8073 
L 124.06028 195.421824 
L 124.277713 159.626158 
L 124.3212 147.656813 
L 124.364687 212.291273 
L 124.45166 209.131366 
L 124.669094 193.739885 
L 124.886528 155.440954 
L 124.930014 213.069687 
L 125.016988 210.252282 
L 125.234421 196.529083 
L 125.495342 162.381371 
L 125.538829 213.763729 
L 125.625802 211.251702 
L 125.843236 199.01596 
L 126.060669 168.569517 
L 126.104156 158.388845 
L 126.147643 213.364476 
L 126.234616 210.676779 
L 126.45205 197.585365 
L 126.669484 165.009741 
L 126.71297 154.117113 
L 126.756457 212.937303 
L 126.843431 210.061649 
L 127.060864 196.054727 
L 127.278298 161.201021 
L 127.321785 213.645694 
L 127.408758 211.081732 
L 127.626192 198.593019 
L 127.843625 167.517105 
L 127.887112 157.125951 
L 127.930599 213.238187 
L 128.017572 210.494922 
L 128.235006 197.132848 
L 128.45244 163.883731 
L 128.495926 152.765902 
L 128.539413 212.802182 
L 128.626387 209.867075 
L 128.84382 195.570563 
L 129.061254 159.996268 
L 129.104741 148.100946 
L 129.148227 212.335686 
L 129.235201 209.195321 
L 129.452634 193.899025 
L 129.670068 155.836947 
L 129.800528 143.10976 
L 129.844015 143.10976 
L 129.887502 211.836568 
L 129.974475 208.47659 
L 130.191909 192.110593 
L 130.409343 151.386755 
L 130.496316 121.42886 
L 130.539803 209.668478 
L 130.626776 205.354541 
L 130.84421 184.341935 
L 131.061644 132.055847 
L 131.10513 210.731176 
L 131.192104 206.884827 
L 131.409537 188.149776 
L 131.626971 141.59518 
L 131.670458 126.122109 
L 131.713945 210.137802 
L 131.800918 206.030369 
L 132.018352 186.023611 
L 132.235785 136.288572 
L 132.279272 119.666616 
L 132.322759 209.492253 
L 132.409732 205.100778 
L 132.627166 183.710491 
L 132.8446 130.485782 
L 132.888086 112.690234 
L 132.931573 208.794615 
L 133.018547 204.096179 
L 133.23598 181.210727 
L 133.496901 124.2644 
L 133.540387 209.952032 
L 133.627361 205.762859 
L 133.844794 185.35796 
L 134.062228 134.584043 
L 134.105715 210.983996 
L 134.192688 207.248887 
L 134.410122 189.055675 
L 134.627556 143.78514 
L 134.671042 128.647592 
L 134.714529 210.390351 
L 134.801503 206.394038 
L 135.018936 186.928537 
L 135.23637 138.492141 
L 135.279857 211.374806 
L 135.36683 207.811653 
L 135.584264 190.456017 
L 135.801697 147.26964 
L 135.845184 132.828992 
L 135.888671 210.808491 
L 135.975644 206.99616 
L 136.193078 188.426808 
L 136.410512 142.220319 
L 136.453998 126.769807 
L 136.497485 210.202572 
L 136.584459 206.123637 
L 136.801892 186.255692 
L 137.019326 136.817889 
L 137.062813 211.20738 
L 137.149786 207.570561 
L 137.36722 189.856102 
L 137.584653 145.776859 
L 137.62814 131.037655 
L 137.671627 210.629357 
L 137.7586 206.738207 
L 137.976034 187.78494 
L 138.193468 140.623145 
L 138.280441 105.929262 
L 138.323928 208.118518 
L 138.410901 203.122599 
L 138.628335 178.788149 
L 138.845769 118.23625 
L 138.889255 97.988924 
L 138.932742 207.324484 
L 139.019716 201.97919 
L 139.237149 175.942982 
L 139.454583 111.156564 
L 139.49807 208.641248 
L 139.585043 203.87533 
L 139.802477 180.661185 
L 140.01991 122.896965 
L 140.063397 209.815288 
L 140.150371 205.565948 
L 140.367804 184.867983 
L 140.585238 133.364824 
L 140.628725 210.862074 
L 140.715698 207.07332 
L 140.933132 188.618806 
L 141.150565 142.698072 
L 141.194052 127.343111 
L 141.237539 210.259903 
L 141.324512 206.206193 
L 141.541946 186.461118 
L 141.75938 137.329052 
L 141.802866 211.258497 
L 141.88984 207.644168 
L 142.107273 190.039261 
L 142.324707 146.232618 
L 142.368194 131.584566 
L 142.411681 210.684048 
L 142.498654 206.816962 
L 142.716088 187.980908 
L 142.933521 141.110776 
L 142.977008 211.636669 
L 143.063982 208.188737 
L 143.281415 191.394321 
L 143.498849 149.604441 
L 143.585822 118.862328 
L 143.629309 209.411824 
L 143.716283 204.98496 
L 143.933716 183.4223 
L 144.15115 129.767501 
L 144.194637 210.502342 
L 144.28161 206.555305 
L 144.499044 187.329821 
L 144.716477 139.490663 
L 144.759964 211.474658 
L 144.846938 207.95544 
L 145.064371 190.813805 
L 145.281805 148.159932 
L 145.412265 116.782235 
L 145.455752 209.203815 
L 145.542725 204.685427 
L 145.760159 182.676965 
L 145.977593 127.912869 
L 146.064566 87.626465 
L 146.108053 206.288238 
L 146.195026 200.486996 
L 146.41246 172.229925 
L 146.54292 137.837055 
L 146.586407 211.309297 
L 146.67338 207.717321 
L 146.890814 190.221288 
L 147.108248 146.685558 
L 147.195221 114.659137 
L 147.238708 208.991505 
L 147.325681 204.379701 
L 147.543115 181.91622 
L 147.760549 126.019894 
L 147.847522 107.329296 
L 147.891009 208.258521 
L 147.977982 203.324204 
L 148.195416 179.289806 
L 148.41285 119.484534 
L 148.456336 209.474045 
L 148.54331 205.074558 
L 148.760743 183.645248 
L 148.978177 130.322267 
L 149.021664 210.557818 
L 149.108637 206.635191 
L 149.326071 187.528603 
L 149.543505 139.985298 
L 149.586991 124.087781 
L 149.630478 209.93437 
L 149.717452 205.737425 
L 149.934885 185.294674 
L 150.152319 134.426568 
L 150.195806 117.417305 
L 150.239292 209.267322 
L 150.326266 204.776877 
L 150.543699 182.904522 
L 150.761133 128.479105 
L 150.848107 88.441844 
L 150.891593 206.369776 
L 150.978567 200.60441 
L 151.196 172.52209 
L 151.369947 122.115723 
L 151.413434 209.737164 
L 151.500408 205.453449 
L 151.717841 184.58805 
L 151.935275 132.668261 
L 151.978762 210.792418 
L 152.065735 206.973014 
L 152.283169 188.369215 
L 152.500602 142.07701 
L 152.544089 126.597835 
L 152.587576 210.185375 
L 152.674549 206.098873 
L 152.891983 186.194072 
L 153.109417 136.664557 
L 153.152903 120.102893 
L 153.19639 209.535881 
L 153.283364 205.163601 
L 153.500797 183.866817 
L 153.718231 130.873601 
L 153.761718 113.153746 
L 153.805204 208.840966 
L 153.892178 204.162924 
L 154.109611 181.376812 
L 154.327045 124.677672 
L 154.370532 105.71863 
L 154.414019 208.097455 
L 154.500992 203.092268 
L 154.718426 178.712675 
L 154.935859 118.048448 
L 154.979346 209.330436 
L 155.06632 204.867761 
L 155.283753 183.130672 
L 155.4577 144.113678 
L 155.501187 211.936959 
L 155.58816 208.621155 
L 155.805594 192.470315 
L 156.023028 152.281859 
L 156.066514 212.753777 
L 156.153488 209.797373 
L 156.370922 195.397122 
L 156.588355 159.56469 
L 156.718815 115.951529 
L 156.762302 209.120744 
L 156.849276 204.565805 
L 157.066709 182.379308 
L 157.284143 127.172203 
L 157.32763 210.242812 
L 157.414603 206.181582 
L 157.632037 186.399878 
L 157.84947 137.176669 
L 157.936444 100.966337 
L 157.979931 207.622225 
L 158.066904 202.407937 
L 158.284338 177.009843 
L 158.458285 131.421526 
L 158.501771 210.667744 
L 158.588745 206.793485 
L 158.806179 187.922488 
L 159.023612 140.965409 
L 159.110586 106.422121 
L 159.154072 208.167804 
L 159.241046 203.19357 
L 159.458479 178.964749 
L 159.675913 118.675688 
L 159.7194 98.51625 
L 159.762887 207.377217 
L 159.84986 202.055125 
L 160.067294 176.131932 
L 160.284727 111.626733 
L 160.328214 208.688265 
L 160.415188 203.943035 
L 160.632621 180.829656 
L 160.806568 139.34229 
L 160.850055 211.459821 
L 160.937028 207.934075 
L 161.154462 190.760641 
L 161.371896 148.027641 
L 161.415382 133.738593 
L 161.458869 210.899451 
L 161.545843 207.127142 
L 161.763276 188.752735 
L 161.98071 143.031329 
L 162.024197 211.828724 
L 162.11117 208.465296 
L 162.328604 192.08249 
L 162.546037 151.316825 
L 162.589524 137.685614 
L 162.633011 211.294153 
L 162.719984 207.695513 
L 162.937418 190.167024 
L 163.154852 146.550532 
L 163.198338 131.966063 
L 163.241825 210.722198 
L 163.328799 206.871898 
L 163.546232 188.117605 
L 163.763666 141.450923 
L 163.807153 125.846531 
L 163.850639 210.110245 
L 163.937613 205.990685 
L 164.155047 185.924866 
L 164.37248 135.994687 
L 164.415967 211.12506 
L 164.50294 207.45202 
L 164.720374 189.561134 
L 164.937808 145.042885 
L 164.981294 130.156886 
L 165.024781 210.54128 
L 165.111755 206.611376 
L 165.329188 187.469344 
L 165.590109 139.837842 
L 165.633595 123.910835 
L 165.677082 209.916675 
L 165.764056 205.711945 
L 165.981489 185.231271 
L 166.198923 134.268801 
L 166.24241 210.952472 
L 166.329383 207.203492 
L 166.546817 188.942718 
L 166.76425 143.504067 
L 166.807737 128.310304 
L 166.851224 210.356622 
L 166.938197 206.345469 
L 167.155631 186.807681 
L 167.373065 138.191412 
L 167.416551 211.344733 
L 167.503525 207.768348 
L 167.720959 190.34826 
L 167.938392 147.001506 
L 167.981879 132.507232 
L 168.025366 210.776315 
L 168.112339 206.949826 
L 168.329773 188.311516 
L 168.547206 141.933434 
L 168.63418 107.816079 
L 168.677667 208.307199 
L 168.76464 203.3943 
L 168.982074 179.464229 
L 169.199507 119.918554 
L 169.242994 100.007689 
L 169.286481 207.526361 
L 169.373454 202.269892 
L 169.590888 176.666342 
L 169.721348 145.503183 
L 169.764835 212.07591 
L 169.851808 208.821243 
L 170.069242 192.9682 
L 170.286676 153.520755 
L 170.417136 105.507608 
L 170.460623 208.076352 
L 170.547596 203.06188 
L 170.76503 178.637062 
L 170.982463 117.860298 
L 171.02595 97.537782 
L 171.069437 207.27937 
L 171.15641 201.914226 
L 171.373844 175.78133 
L 171.591278 110.754322 
L 171.634764 208.601024 
L 171.721738 203.817407 
L 171.939172 180.517055 
L 172.200092 122.538322 
L 172.243579 103.15141 
L 172.287065 207.840733 
L 172.374039 202.722588 
L 172.591473 177.792794 
L 172.765419 133.045054 
L 172.808906 210.830097 
L 172.89588 207.027273 
L 173.113313 188.504227 
L 173.330747 142.412962 
L 173.374234 127.000979 
L 173.41772 210.225689 
L 173.504694 206.156926 
L 173.722128 186.338526 
L 173.939561 137.024004 
L 173.983048 120.534229 
L 174.026535 209.579014 
L 174.113508 205.225714 
L 174.330942 184.021372 
L 174.591862 131.258185 
L 174.635349 210.65141 
L 174.722322 206.769963 
L 174.939756 187.863959 
L 175.15719 140.819771 
L 175.200676 125.08915 
L 175.244163 210.034507 
L 175.331137 205.881622 
L 175.54857 185.653483 
L 175.766004 135.319398 
L 175.809491 211.057531 
L 175.896464 207.354778 
L 176.113898 189.319166 
L 176.331331 144.44079 
L 176.374818 129.434372 
L 176.418305 210.469029 
L 176.505278 206.507334 
L 176.722712 187.210454 
L 176.940146 139.193642 
L 176.983632 123.137794 
L 177.027119 209.839371 
L 177.114093 205.600627 
L 177.331526 184.954277 
L 177.54896 133.57955 
L 177.592447 210.883547 
L 177.67942 207.10424 
L 177.896854 188.695747 
L 178.114287 142.889524 
L 178.201261 127.572853 
L 178.244748 210.282877 
L 178.331721 206.239276 
L 178.549155 186.543439 
L 178.766588 137.533893 
L 178.810075 121.146095 
L 178.853562 209.640201 
L 178.940535 205.313823 
L 179.157969 184.240615 
L 179.375403 131.803731 
L 179.418889 210.705965 
L 179.505863 206.848522 
L 179.723297 188.059439 
L 179.94073 141.306186 
L 179.984217 125.672848 
L 180.027704 210.092876 
L 180.114677 205.965675 
L 180.332111 185.862632 
L 180.549544 135.839829 
L 180.593031 211.109574 
L 180.680005 207.42972 
L 180.897438 189.505645 
L 181.114872 144.904811 
L 181.158359 129.991198 
L 181.201845 210.524711 
L 181.288819 206.587517 
L 181.506253 187.409975 
L 181.723686 139.690113 
L 181.767173 211.494603 
L 181.854146 207.984161 
L 182.07158 190.885272 
L 182.3325 148.337764 
L 182.375987 134.110741 
L 182.419474 210.936666 
L 182.506447 207.180732 
L 182.723881 188.886082 
L 182.941315 143.363139 
L 182.984801 211.861906 
L 183.071775 208.513077 
L 183.289209 192.201383 
L 183.506642 151.61267 
L 183.637102 218.88 
L 215.59985 218.88 
L 215.730311 218.448384 
L 215.860771 218.88 
L 216.078204 217.997605 
L 216.295638 215.801926 
L 216.513072 210.338371 
L 216.730505 196.7433 
L 216.947939 162.914413 
L 217.078399 121.739849 
L 217.121886 209.699577 
L 217.208859 205.399323 
L 217.426293 184.453368 
L 217.643727 132.333128 
L 217.687213 210.758904 
L 217.774187 206.924755 
L 217.991621 188.249131 
L 218.209054 141.778202 
L 218.252541 126.239266 
L 218.296028 210.149518 
L 218.383001 206.047239 
L 218.600435 186.06559 
L 218.817868 136.344853 
L 218.861355 119.719248 
L 218.904842 209.497516 
L 218.991815 205.108357 
L 219.209249 183.72935 
L 219.426683 130.53154 
L 219.470169 210.578746 
L 219.557143 206.665327 
L 219.774577 187.603589 
L 219.99201 140.171888 
L 220.035497 124.311689 
L 220.078984 209.956761 
L 220.165957 205.769668 
L 220.383391 185.374905 
L 220.600824 134.626206 
L 220.644311 117.656872 
L 220.687798 209.291279 
L 220.774771 204.811374 
L 220.992205 182.990363 
L 221.209639 128.692704 
L 221.253125 210.394862 
L 221.340099 206.400534 
L 221.557533 186.944701 
L 221.774966 138.532363 
L 221.818453 122.34426 
L 221.86194 209.760018 
L 221.948913 205.486358 
L 222.166347 184.669939 
L 222.38378 132.872027 
L 222.427267 210.812794 
L 222.514241 207.002357 
L 222.731674 188.442228 
L 222.949108 142.258689 
L 222.992595 126.815851 
L 223.036081 210.207177 
L 223.123055 206.130267 
L 223.340489 186.272191 
L 223.557922 136.858942 
L 223.601409 211.211486 
L 223.688382 207.576473 
L 223.905816 189.870812 
L 224.12325 145.813463 
L 224.166737 131.08158 
L 224.210223 210.63375 
L 224.297197 206.744532 
L 224.51463 187.800679 
L 224.775551 140.662309 
L 224.819037 211.591823 
L 224.906011 208.124157 
L 225.123445 191.233627 
L 225.340878 149.204583 
L 225.384365 135.150924 
L 225.427852 211.040684 
L 225.514825 207.330518 
L 225.732259 189.258798 
L 225.949693 144.290577 
L 225.993179 129.254117 
L 226.036666 210.451003 
L 226.123639 206.481378 
L 226.341073 187.145866 
L 226.558507 139.032924 
L 226.601993 211.428884 
L 226.688967 207.889526 
L 226.906401 190.649789 
L 227.123834 147.751807 
L 227.167321 133.407593 
L 227.210808 210.866351 
L 227.297781 207.079478 
L 227.515215 188.634131 
L 227.732649 142.736206 
L 227.776135 127.388871 
L 227.819622 210.264479 
L 227.906595 206.212782 
L 228.124029 186.477514 
L 228.341463 137.369852 
L 228.384949 211.262577 
L 228.471923 207.650044 
L 228.689357 190.05388 
L 228.90679 146.268996 
L 228.950277 131.628219 
L 228.993764 210.688414 
L 229.080737 206.823248 
L 229.298171 187.996549 
L 229.515605 141.149698 
L 229.559091 211.640561 
L 229.646065 208.194341 
L 229.863498 191.408267 
L 230.080932 149.639144 
L 230.124419 135.672397 
L 230.167906 211.092831 
L 230.254879 207.40561 
L 230.472313 189.445652 
L 230.689746 144.755527 
L 230.733233 129.812057 
L 230.77672 210.506797 
L 230.863693 206.561721 
L 231.081127 187.345786 
L 231.298561 139.53039 
L 231.342047 123.541892 
L 231.385534 209.879781 
L 231.472507 205.658817 
L 231.689941 185.099072 
L 231.907375 133.939847 
L 231.950862 210.919576 
L 232.037835 207.156123 
L 232.255269 188.824848 
L 232.472702 143.210769 
L 232.516189 127.958346 
L 232.559676 210.321426 
L 232.646649 206.294787 
L 232.864083 186.681568 
L 233.081517 137.877603 
L 233.125003 121.558547 
L 233.16849 209.681446 
L 233.255463 205.373216 
L 233.472897 184.388404 
L 233.690331 132.171477 
L 233.733818 210.742739 
L 233.820791 206.901478 
L 234.038225 188.191209 
L 234.255658 141.634072 
L 234.299145 126.066311 
L 234.342632 210.132223 
L 234.429605 206.022334 
L 234.647039 186.003617 
L 234.864473 136.190645 
L 234.907959 119.534198 
L 234.951446 209.479011 
L 235.038419 205.081709 
L 235.255853 183.663043 
L 235.473287 130.366547 
L 235.516774 210.562246 
L 235.603747 206.641568 
L 235.821181 187.54447 
L 236.038614 140.024778 
L 236.082101 124.135158 
L 236.125588 209.939107 
L 236.212561 205.744248 
L 236.429995 185.31165 
L 236.647429 134.468809 
L 236.690915 210.972473 
L 236.777889 207.232293 
L 236.995322 189.014384 
L 237.212756 143.682397 
L 237.256243 128.5243 
L 237.29973 210.378022 
L 237.386703 206.376284 
L 237.604137 186.884359 
L 237.82157 138.382213 
L 237.865057 122.164079 
L 237.908544 209.742 
L 237.995517 205.460412 
L 238.212951 184.605377 
L 238.430385 132.711376 
L 238.473871 115.359075 
L 238.517358 209.061499 
L 238.604331 204.480492 
L 238.821765 182.167021 
L 239.213146 126.643966 
L 239.300119 126.643966 
L 239.343606 210.189988 
L 239.430579 206.105516 
L 239.648013 186.210601 
L 239.865447 136.705688 
L 239.908933 120.152249 
L 239.95242 209.540817 
L 240.039394 205.170709 
L 240.256827 183.884502 
L 240.517748 130.917608 
L 240.561234 113.206553 
L 240.604721 208.846247 
L 240.691695 204.170529 
L 240.909128 181.395734 
L 241.126562 124.724756 
L 241.170049 209.998067 
L 241.257022 205.82915 
L 241.474456 185.522914 
L 241.691889 134.994501 
L 241.735376 118.098825 
L 241.778863 209.335474 
L 241.865836 204.875016 
L 242.08327 183.148723 
L 242.300704 129.086754 
L 242.34419 210.434267 
L 242.431164 206.457277 
L 242.648598 187.085897 
L 242.866031 138.883702 
L 242.909518 122.765867 
L 242.953005 209.802178 
L 243.039978 205.54707 
L 243.257412 184.821008 
L 243.518332 133.247936 
L 243.561819 116.002947 
L 243.605306 209.125886 
L 243.692279 204.573209 
L 243.909713 182.397732 
L 244.127146 127.218048 
L 244.170633 210.247396 
L 244.257607 206.188184 
L 244.47504 186.416305 
L 244.692474 137.217545 
L 244.735961 120.766478 
L 244.779447 209.602239 
L 244.866421 205.259158 
L 245.083855 184.104591 
L 245.301288 131.465261 
L 245.344775 210.672118 
L 245.431748 206.799782 
L 245.649182 187.938159 
L 245.866616 141.004402 
L 245.910102 125.310707 
L 245.953589 210.056662 
L 246.040563 205.913527 
L 246.257996 185.732871 
L 246.47543 135.516941 
L 246.518917 118.725753 
L 246.562403 209.398167 
L 246.649377 204.965293 
L 246.866811 183.373363 
L 247.084244 129.64573 
L 247.127731 111.6803 
L 247.171218 208.693622 
L 247.258191 203.950748 
L 247.475625 180.848849 
L 247.693058 123.363932 
L 247.736545 209.861985 
L 247.823519 205.633191 
L 248.040952 185.035306 
L 248.301873 133.781177 
L 248.345359 116.642836 
L 248.388846 209.189875 
L 248.47582 204.665353 
L 248.693253 182.627016 
L 248.910687 127.78858 
L 248.954174 210.30445 
L 249.041147 206.27034 
L 249.258581 186.620737 
L 249.476014 137.726237 
L 249.519501 121.376909 
L 249.562988 209.663282 
L 249.649961 205.34706 
L 249.867395 184.32332 
L 250.084829 132.009527 
L 250.128315 114.516856 
L 250.171802 208.977277 
L 250.258776 204.359212 
L 250.476209 181.865239 
L 250.693643 125.893035 
L 250.73713 210.114895 
L 250.824103 205.997382 
L 251.041537 185.941529 
L 251.25897 136.03615 
L 251.302457 119.348804 
L 251.345944 209.460472 
L 251.432917 205.055013 
L 251.650351 183.596613 
L 251.867785 130.201248 
L 251.911271 210.545716 
L 251.998245 206.617765 
L 252.215679 187.48524 
L 252.433112 139.877396 
L 252.476599 123.9583 
L 252.520086 209.921422 
L 252.607059 205.71878 
L 252.824493 185.248279 
L 253.041926 134.311121 
L 253.085413 117.278769 
L 253.1289 209.253468 
L 253.215873 204.756928 
L 253.433307 182.854882 
L 253.650741 128.355584 
L 253.694227 210.36115 
L 253.781201 206.351989 
L 253.998635 186.823905 
L 254.216068 138.231783 
L 254.259555 121.983564 
L 254.303042 209.723948 
L 254.390015 205.434418 
L 254.607449 184.540695 
L 254.868369 132.550427 
L 254.911856 210.780634 
L 254.998829 206.956046 
L 255.216263 188.326993 
L 255.433697 141.971948 
L 255.477183 126.471761 
L 255.52067 210.172768 
L 255.607644 206.080719 
L 255.825077 186.148897 
L 256.042511 136.552148 
L 256.085998 119.968002 
L 256.129484 209.522392 
L 256.216458 205.144177 
L 256.433892 183.818483 
L 256.651325 130.753331 
L 256.694812 210.600925 
L 256.781785 206.697265 
L 256.999219 187.683061 
L 257.216653 140.369639 
L 257.260139 124.548991 
L 257.303626 209.980491 
L 257.3906 205.80384 
L 257.608033 185.459934 
L 257.825467 134.837787 
L 257.868954 117.910768 
L 257.91244 209.316668 
L 257.999414 204.847936 
L 258.216848 183.081339 
L 258.434281 128.919081 
L 258.477768 210.4175 
L 258.564741 206.433133 
L 258.782175 187.025816 
L 259.130069 122.586468 
L 259.173556 209.784238 
L 259.260529 205.521236 
L 259.477963 184.756727 
L 259.695396 133.087982 
L 259.738883 210.83439 
L 259.825857 207.033454 
L 260.04329 188.519609 
L 260.304211 142.451237 
L 260.347697 127.046908 
L 260.391184 210.230282 
L 260.478158 206.16354 
L 260.695591 186.354983 
L 260.913025 137.064955 
L 260.956512 211.232087 
L 261.043485 207.606138 
L 261.260919 189.94463 
L 261.478352 145.997147 
L 261.521839 131.302 
L 261.565326 210.655792 
L 261.652299 206.776273 
L 261.869733 187.879659 
L 262.087167 140.858838 
L 262.130653 125.136029 
L 262.17414 210.039195 
L 262.261114 205.888373 
L 262.478547 185.67028 
L 262.739468 135.361196 
L 262.782954 118.53886 
L 262.826441 209.379478 
L 262.913415 204.938381 
L 263.130848 183.306395 
L 263.348282 129.479093 
L 263.391769 210.473501 
L 263.478742 206.513774 
L 263.696176 187.226479 
L 263.913609 139.233516 
L 263.957096 123.185643 
L 264.000583 209.844156 
L 264.087556 205.607518 
L 264.30499 184.971422 
L 264.56591 133.622212 
L 264.609397 116.452079 
L 264.652884 209.170799 
L 264.739857 204.637884 
L 264.957291 182.558664 
L 265.174725 127.618499 
L 265.218211 210.287441 
L 265.305185 206.245849 
L 265.522619 186.559794 
L 265.740052 137.574591 
L 265.783539 121.194933 
L 265.827026 209.645085 
L 265.913999 205.320855 
L 266.131433 184.258115 
L 266.348866 131.847276 
L 266.392353 210.710319 
L 266.479327 206.854793 
L 266.69676 188.075041 
L 266.914194 141.345011 
L 266.957681 125.719437 
L 267.001167 210.097535 
L 267.088141 205.972384 
L 267.305575 185.879326 
L 267.609982 135.881369 
L 267.653468 211.113728 
L 267.740442 207.435702 
L 267.957875 189.52053 
L 268.175309 144.941849 
L 268.218796 130.035643 
L 268.262283 210.529156 
L 268.349256 206.593917 
L 268.56669 187.425901 
L 268.784123 139.729741 
L 268.82761 123.781113 
L 268.871097 209.903703 
L 268.95807 205.693265 
L 269.175504 185.184789 
L 269.392938 134.153139 
L 269.436424 117.089191 
L 269.479911 209.234511 
L 269.566885 204.729628 
L 269.784318 182.786953 
L 270.088725 128.186555 
L 270.132212 210.344247 
L 270.219186 206.327649 
L 270.436619 186.763339 
L 270.654053 138.081075 
L 270.69754 121.802714 
L 270.741026 209.705863 
L 270.828 205.408376 
L 271.045433 184.475893 
L 271.262867 132.389179 
L 271.306354 114.972439 
L 271.349841 209.022836 
L 271.436814 204.424816 
L 271.654248 182.028482 
L 271.871681 126.299237 
L 271.915168 210.155515 
L 272.002142 206.055875 
L 272.219575 186.087079 
L 272.437009 136.398324 
L 272.480496 119.783413 
L 272.523982 209.503933 
L 272.610956 205.117596 
L 272.828389 183.752341 
L 273.045823 130.58875 
L 273.08931 210.584467 
L 273.176283 206.673565 
L 273.393717 187.624089 
L 273.611151 140.222897 
L 273.654637 124.3729 
L 273.698124 209.962882 
L 273.785098 205.778483 
L 274.002531 185.396837 
L 274.219965 134.680783 
L 274.263452 210.99367 
L 274.350425 207.262818 
L 274.567859 189.090338 
L 274.785292 143.871394 
L 274.828779 128.751097 
L 274.872266 210.400701 
L 274.959239 206.408943 
L 275.176673 186.965625 
L 275.394107 138.584427 
L 275.437593 211.384034 
L 275.524567 207.824942 
L 275.742001 190.489085 
L 275.959434 147.351923 
L 276.002921 132.927731 
L 276.046408 210.818365 
L 276.133381 207.010378 
L 276.350815 188.462188 
L 276.568248 142.308356 
L 276.611735 211.756427 
L 276.698709 208.361188 
L 276.916142 191.823436 
L 277.133576 150.672215 
L 277.177063 136.912083 
L 277.220549 211.2168 
L 277.307523 207.584125 
L 277.524957 189.889853 
L 277.74239 145.860844 
L 277.785877 131.138436 
L 277.829364 210.639435 
L 277.916337 206.75272 
L 278.133771 187.821051 
L 278.394691 140.713003 
L 278.438178 124.961027 
L 278.481665 210.021694 
L 278.568638 205.863173 
L 278.786072 185.607574 
L 279.003505 135.205163 
L 279.046992 211.046108 
L 279.133966 207.338328 
L 279.351399 189.278233 
L 279.568833 144.338937 
L 279.61232 129.312148 
L 279.655806 210.456806 
L 279.74278 206.489734 
L 279.960213 187.166659 
L 280.177647 139.084666 
L 280.221134 123.007023 
L 280.264621 209.826294 
L 280.351594 205.581796 
L 280.569028 184.907419 
L 280.786461 133.462953 
L 280.829948 210.871887 
L 280.916922 207.08745 
L 281.134355 188.653968 
L 281.351789 142.785565 
L 281.395276 127.448102 
L 281.438762 210.270402 
L 281.525736 206.221312 
L 281.74317 186.498738 
L 281.960603 137.422664 
L 282.00409 121.012621 
L 282.047577 209.626854 
L 282.13455 205.294602 
L 282.351984 184.192789 
L 282.569417 131.684724 
L 282.612904 210.694064 
L 282.699878 206.831385 
L 282.917311 188.016796 
L 283.134745 141.200078 
L 283.178232 125.545518 
L 283.221718 210.080143 
L 283.308692 205.947339 
L 283.526126 185.817008 
L 283.743559 135.7263 
L 283.787046 211.098222 
L 283.874019 207.413372 
L 284.091453 189.464966 
L 284.308887 144.803588 
L 284.352373 129.86973 
L 284.39586 210.512565 
L 284.482834 206.570026 
L 284.700267 187.366451 
L 284.917701 139.581811 
L 284.961188 123.603598 
L 285.004674 209.885951 
L 285.091648 205.667703 
L 285.309082 185.121182 
L 285.526515 133.994865 
L 285.570002 116.899262 
L 285.613489 209.215518 
L 285.700462 204.702279 
L 285.917896 182.718898 
L 286.26579 128.017212 
L 286.309276 210.327313 
L 286.39625 206.303263 
L 286.613683 186.70266 
L 286.831117 137.930087 
L 286.874604 121.621529 
L 286.918091 209.687744 
L 287.005064 205.382285 
L 287.222498 184.410971 
L 287.439931 132.227632 
L 287.483418 210.748355 
L 287.570392 206.909564 
L 287.787825 188.21133 
L 288.005259 141.684141 
L 288.048746 126.126393 
L 288.092232 210.138231 
L 288.179206 206.030986 
L 288.396639 186.025146 
L 288.614073 136.244215 
L 288.65756 211.150013 
L 288.744533 207.487952 
L 288.961967 189.650544 
L 289.266374 145.265366 
L 289.309861 212.052128 
L 289.396834 208.786998 
L 289.614268 192.882986 
L 289.831702 153.308715 
L 289.875188 140.075882 
L 289.918675 211.53318 
L 290.005649 208.039712 
L 290.223082 191.0235 
L 290.614463 134.523487 
L 290.65795 210.97794 
L 290.744923 207.240167 
L 290.962357 189.033976 
L 291.17979 143.731148 
L 291.223277 128.582801 
L 291.266764 210.383872 
L 291.353737 206.384708 
L 291.571171 186.905321 
L 291.788605 138.434373 
L 291.832091 211.369029 
L 291.919065 207.803335 
L 292.136498 190.435317 
L 292.353932 147.218133 
L 292.397419 132.767184 
L 292.440906 210.80231 
L 292.527879 206.987259 
L 292.745313 188.404661 
L 292.962746 142.16521 
L 293.006233 126.703676 
L 293.04972 210.195959 
L 293.136693 206.114114 
L 293.354127 186.231997 
L 293.571561 136.758926 
L 293.615047 120.216135 
L 293.658534 209.547205 
L 293.745507 205.179908 
L 293.962941 183.907394 
L 294.180375 130.974569 
L 294.223862 113.274907 
L 294.267348 208.853082 
L 294.354322 204.180372 
L 294.571755 181.420226 
L 294.789189 124.785701 
L 294.832676 210.004162 
L 294.919649 205.837926 
L 295.137083 185.544751 
L 295.354517 135.04884 
L 295.398003 118.164032 
L 295.44149 209.341995 
L 295.528464 204.884406 
L 295.745897 183.172088 
L 295.963331 129.144893 
L 296.006818 210.440081 
L 296.093791 206.46565 
L 296.311225 187.106729 
L 296.528658 138.93554 
L 296.572145 122.828072 
L 296.615632 209.808399 
L 296.702605 205.556027 
L 296.920039 184.843298 
L 297.137473 133.303398 
L 297.180959 210.855931 
L 297.267933 207.064474 
L 297.485366 188.596796 
L 297.7028 142.643304 
L 297.789774 127.277389 
L 297.83326 210.253331 
L 297.920234 206.196729 
L 298.137667 186.437569 
L 298.355101 137.270454 
L 298.398588 120.829969 
L 298.442075 209.608589 
L 298.529048 205.268301 
L 298.746482 184.127341 
L 298.963915 131.52187 
L 299.007402 113.931668 
L 299.050889 208.918758 
L 299.137862 204.274945 
L 299.355296 181.655555 
L 299.57273 125.371275 
L 299.616216 210.062719 
L 299.70319 205.922249 
L 299.920623 185.754573 
L 300.138057 135.570944 
L 300.181544 118.790557 
L 300.225031 209.404647 
L 300.312004 204.974625 
L 300.529438 183.396583 
L 300.746871 129.703509 
L 300.790358 111.749635 
L 300.833845 208.700555 
L 300.920818 203.960732 
L 301.138252 180.873693 
L 301.355686 123.425753 
L 301.399172 209.868167 
L 301.486146 205.642093 
L 301.703579 185.057458 
L 301.921013 133.836297 
L 301.9645 116.70898 
L 302.007987 209.19649 
L 302.09496 204.674878 
L 302.312394 182.650716 
L 302.529827 127.847555 
L 302.573314 210.310347 
L 302.660288 206.278833 
L 302.877721 186.641869 
L 303.095155 137.778819 
L 303.138642 121.440007 
L 303.182128 209.669592 
L 303.269102 205.356146 
L 303.486535 184.345929 
L 303.703969 132.065786 
L 303.747456 210.73217 
L 303.834429 206.886258 
L 304.051863 188.153338 
L 304.269297 141.539837 
L 304.312783 125.953228 
L 304.35627 210.120914 
L 304.443244 206.00605 
L 304.660677 185.963098 
L 304.878111 136.089819 
L 304.921598 211.134574 
L 305.008571 207.465719 
L 305.226005 189.595221 
L 305.443438 145.127705 
L 305.486925 130.258671 
L 305.530412 210.551459 
L 305.617385 206.626033 
L 305.834819 187.505815 
L 306.052253 139.928595 
L 306.095739 124.019738 
L 306.139226 209.927565 
L 306.2262 205.727627 
L 306.443633 185.270293 
L 306.661067 134.365899 
L 306.704554 117.344503 
L 306.74804 209.260042 
L 306.835014 204.766393 
L 307.052447 182.878436 
L 307.313368 128.414194 
L 307.356855 110.202456 
L 307.400341 208.545837 
L 307.487315 203.737939 
L 307.704748 180.319311 
L 307.922182 122.046273 
L 307.965669 209.730219 
L 308.052642 205.443448 
L 308.270076 184.563165 
L 308.48751 132.606338 
L 308.530996 115.23303 
L 308.574483 209.048895 
L 308.661457 204.462341 
L 308.87889 182.121857 
L 309.096324 126.531583 
L 309.139811 210.17875 
L 309.226784 206.089333 
L 309.444218 186.170332 
L 309.661651 136.605486 
L 309.705138 120.032007 
L 309.748625 209.528792 
L 309.835598 205.153394 
L 310.053032 183.841417 
L 310.270466 130.810398 
L 310.313952 113.077902 
L 310.357439 208.833382 
L 310.444413 204.152003 
L 310.661846 181.349636 
L 310.87928 124.610049 
L 310.922767 105.637483 
L 310.966253 208.08934 
L 311.053227 203.080582 
L 311.27066 178.683599 
L 311.488094 117.976097 
L 311.531581 209.323201 
L 311.618554 204.857343 
L 311.835988 183.104747 
L 312.053422 128.977328 
L 312.096908 110.878218 
L 312.140395 208.613413 
L 312.227369 203.835248 
L 312.444802 180.561449 
L 312.662236 122.648789 
L 312.705723 209.79047 
L 312.792696 205.53021 
L 313.01013 184.779057 
L 313.227563 133.143547 
L 313.27105 210.839946 
L 313.358024 207.041456 
L 313.575457 188.539519 
L 313.792891 142.50078 
L 313.836378 127.10636 
L 313.879864 210.236228 
L 313.966838 206.172101 
L 314.184271 186.376286 
L 314.401705 137.117963 
L 314.445192 211.237388 
L 314.532165 207.613772 
L 314.749599 189.963624 
L 314.967033 146.044409 
L 315.010519 131.358714 
L 315.054006 210.661463 
L 315.14098 206.78444 
L 315.358413 187.899981 
L 315.575847 140.909405 
L 315.619334 125.19671 
L 315.66282 210.045263 
L 315.749794 205.897111 
L 315.967227 185.692023 
L 316.228148 135.4153 
L 316.271635 211.067122 
L 316.358608 207.368588 
L 316.576042 189.353529 
L 316.793475 144.526297 
L 316.836962 129.53698 
L 316.880449 210.47929 
L 316.967422 206.52211 
L 317.184856 187.247221 
L 317.40229 139.285129 
L 317.445776 123.247578 
L 317.489263 209.850349 
L 317.576237 205.616436 
L 317.79367 184.993614 
L 318.054591 133.677434 
L 318.098077 116.518345 
L 318.141564 209.177426 
L 318.228538 204.647427 
L 318.445971 182.582409 
L 318.663405 127.677583 
L 318.706892 210.29335 
L 318.793865 206.254357 
L 319.011299 186.580965 
L 319.228732 137.627271 
L 319.272219 121.258149 
L 319.315706 209.651407 
L 319.402679 205.329958 
L 319.620113 184.280766 
L 319.837547 131.903639 
L 319.881033 210.715956 
L 319.968007 206.862909 
L 320.18544 188.095238 
L 320.402874 141.395265 
L 320.446361 125.779743 
L 320.489848 210.103566 
L 320.576821 205.981068 
L 320.794255 185.900935 
L 321.011688 135.935137 
L 321.055175 119.227589 
L 321.098662 209.448351 
L 321.185635 205.037558 
L 321.403069 183.55318 
L 321.620503 130.093172 
L 321.663989 112.21723 
L 321.707476 208.747315 
L 321.79445 204.028066 
L 322.011883 181.041241 
L 322.229317 123.842665 
L 322.272804 104.716622 
L 322.31629 207.997254 
L 322.403264 202.947978 
L 322.620697 178.353638 
L 322.838131 117.155048 
L 322.881618 209.241096 
L 322.968591 204.739112 
L 323.186025 182.81055 
L 323.403459 128.245273 
L 323.446945 109.999752 
L 323.490432 208.525567 
L 323.577406 203.708749 
L 323.794839 180.246679 
L 324.012273 121.865539 
L 324.05576 102.344071 
L 324.099246 207.759999 
L 324.18622 202.606331 
L 324.403653 177.50351 
L 324.5776 132.445194 
L 324.621087 210.770111 
L 324.708061 206.940893 
L 324.925494 188.289286 
L 325.142928 141.878121 
L 325.186415 126.35917 
L 325.229901 210.161509 
L 325.316875 206.064505 
L 325.534308 186.108554 
L 325.751742 136.45176 
L 325.795229 211.170768 
L 325.882202 207.517838 
L 326.099636 189.724912 
L 326.31707 145.450416 
L 326.360556 130.645923 
L 326.404043 210.590184 
L 326.491017 206.681798 
L 326.70845 187.644575 
L 326.925884 140.273873 
L 326.969371 124.434072 
L 327.012857 209.968999 
L 327.099831 205.787291 
L 327.317265 185.418756 
L 327.534698 134.735324 
L 327.578185 210.999124 
L 327.665158 207.270672 
L 327.882592 189.109881 
L 328.100026 143.920024 
L 328.143512 128.809452 
L 328.186999 210.406537 
L 328.273973 206.417346 
L 328.491406 186.986534 
L 328.70884 138.636457 
L 328.752327 122.469173 
L 328.795813 209.772509 
L 328.882787 205.504346 
L 329.100221 184.714698 
L 329.317654 132.9834 
L 329.361141 115.685504 
L 329.404628 209.094142 
L 329.491601 204.527498 
L 329.709035 182.283986 
L 329.926468 126.935013 
L 329.969955 210.219093 
L 330.056929 206.147427 
L 330.274362 186.314889 
L 330.491796 136.965188 
L 330.535283 120.46365 
L 330.578769 209.571957 
L 330.665743 205.215551 
L 330.883177 183.996083 
L 331.10061 131.195256 
L 331.144097 210.645117 
L 331.23107 206.760902 
L 331.448504 187.841411 
L 331.665938 140.763664 
L 331.709424 125.021821 
L 331.752911 210.027774 
L 331.839885 205.871927 
L 332.057318 185.629357 
L 332.274752 135.259367 
L 332.318239 118.416664 
L 332.361725 209.367258 
L 332.448699 204.920785 
L 332.666133 183.26261 
L 332.883566 129.370143 
L 332.927053 210.462606 
L 333.014026 206.498085 
L 333.23146 187.18744 
L 333.448894 139.136374 
L 333.579354 103.788312 
L 333.622841 207.904423 
L 333.709814 202.814302 
L 333.927248 178.021007 
L 334.144681 116.327357 
L 334.188168 209.158327 
L 334.275142 204.619924 
L 334.492575 182.513974 
L 334.710009 127.507296 
L 334.753496 210.276321 
L 334.840469 206.229835 
L 335.057903 186.519948 
L 335.275336 137.475441 
L 335.318823 121.075953 
L 335.36231 209.633187 
L 335.449283 205.303722 
L 335.666717 184.215482 
L 335.884151 131.741192 
L 335.927637 210.699711 
L 336.014611 206.839517 
L 336.232045 188.03703 
L 336.449478 141.250426 
L 336.492965 125.605935 
L 336.536452 210.086185 
L 336.623425 205.95604 
L 336.840859 185.838656 
L 337.058292 135.780169 
L 337.101779 211.103608 
L 337.188753 207.421129 
L 337.406186 189.484268 
L 337.62362 144.851618 
L 337.667107 129.927366 
L 337.710593 210.518328 
L 337.797567 206.578326 
L 338.015001 187.387103 
L 338.232434 139.6332 
L 338.275921 123.665264 
L 338.319408 209.892118 
L 338.406381 205.676583 
L 338.623815 185.143279 
L 338.841248 134.049847 
L 338.884735 210.930576 
L 338.971709 207.171963 
L 339.189142 188.864263 
L 339.406576 143.308846 
L 339.450063 211.856476 
L 339.537036 208.505259 
L 339.75447 192.181929 
L 339.971903 151.564262 
L 340.01539 137.982538 
L 340.058877 211.323845 
L 340.14585 207.73827 
L 340.363284 190.273417 
L 340.580718 146.815273 
L 340.624204 132.283751 
L 340.667691 210.753967 
L 340.754665 206.917645 
L 340.972098 188.231439 
L 341.189532 141.734177 
L 341.233019 126.186437 
L 341.276505 210.144235 
L 341.363479 206.039632 
L 341.580913 186.04666 
L 341.798346 136.29775 
L 341.841833 119.662724 
L 341.88532 209.491864 
L 341.972293 205.100217 
L 342.189727 183.709096 
L 342.40716 130.481142 
L 342.450647 210.573706 
L 342.537621 206.658069 
L 342.755054 187.585531 
L 342.972488 140.126953 
L 343.015975 124.257767 
L 343.059461 209.951368 
L 343.146435 205.761903 
L 343.363869 185.355583 
L 343.581302 134.578129 
L 343.624789 117.599179 
L 343.668276 209.28551 
L 343.755249 204.803067 
L 343.972683 182.969691 
L 344.190116 128.641265 
L 344.233603 110.474942 
L 344.27709 208.573086 
L 344.364063 203.777177 
L 344.581497 180.416948 
L 344.798931 122.289224 
L 344.842417 209.754514 
L 344.929391 205.478433 
L 345.146825 184.650219 
L 345.364258 132.822956 
L 345.407745 115.492971 
L 345.451232 209.074889 
L 345.538205 204.499773 
L 345.755639 182.214998 
L 345.973072 126.763349 
L 346.016559 108.221442 
L 346.060046 208.347736 
L 346.147019 203.452673 
L 346.364453 179.609478 
L 346.625373 120.279981 
L 346.66886 100.441401 
L 346.712347 207.569732 
L 346.79932 202.332347 
L 347.016754 176.821749 
L 347.190701 131.031494 
L 347.234188 210.628741 
L 347.321161 206.73732 
L 347.538595 187.782732 
L 347.756028 140.617652 
L 347.799515 124.846607 
L 347.843002 210.010252 
L 347.929975 205.846696 
L 348.147409 185.566575 
L 348.364843 135.103144 
L 348.408329 118.229197 
L 348.451816 209.348511 
L 348.53879 204.893789 
L 348.756223 183.195438 
L 348.93017 144.247976 
L 348.973657 211.950389 
L 349.06063 208.640493 
L 349.278064 192.518437 
L 349.495498 152.4016 
L 349.582471 122.890237 
L 349.625958 209.814615 
L 349.712931 205.564979 
L 349.930365 184.865573 
L 350.147799 133.358825 
L 350.191285 210.861474 
L 350.278259 207.072456 
L 350.495693 188.616657 
L 350.713126 142.692724 
L 350.756613 127.336693 
L 350.8001 210.259261 
L 350.887073 206.205269 
L 351.104507 186.458818 
L 351.32194 137.32333 
L 351.365427 211.257925 
L 351.452401 207.643344 
L 351.669834 190.037211 
L 352.017728 131.578443 
L 352.061215 210.683436 
L 352.148188 206.816081 
L 352.365622 187.978714 
L 352.583056 141.105317 
L 352.626542 211.636123 
L 352.713516 208.187951 
L 352.93095 191.392365 
L 353.148383 149.599574 
L 353.19187 135.624912 
L 353.235357 211.088083 
L 353.32233 207.398772 
L 353.539764 189.428637 
L 353.757197 144.71319 
L 353.800684 129.761252 
L 353.844171 210.501717 
L 353.931144 206.554405 
L 354.148578 187.327581 
L 354.366012 139.485091 
L 354.409498 123.487534 
L 354.452985 209.874345 
L 354.539959 205.65099 
L 354.757392 185.079595 
L 354.974826 133.891381 
L 355.018313 210.91473 
L 355.105286 207.149144 
L 355.32272 188.807481 
L 355.540153 143.167556 
L 355.58364 127.906491 
L 355.627127 210.316241 
L 355.7141 206.28732 
L 355.931534 186.662987 
L 356.148968 137.831368 
L 356.192454 121.503065 
L 356.235941 209.675898 
L 356.322915 205.365226 
L 356.540348 184.368524 
L 356.801269 132.122009 
L 356.844755 114.651835 
L 356.888242 208.990775 
L 356.975216 204.378649 
L 357.149163 188.173483 
L 357.149163 188.173483 
" clip-path="url(#p2bb20ecfe4)" style="fill: none; stroke: #1f77b4; stroke-width: 1.5; stroke-linecap: square"/>
   </g>
   <g id="patch_3">
    <path d="M 37.567344 228.96 
L 37.567344 7.2 
" style="fill: none; stroke: #000000; stroke-width: 0.8; stroke-linejoin: miter; stroke-linecap: square"/>
   </g>
   <g id="patch_4">
    <path d="M 372.367344 228.96 
L 372.367344 7.2 
" style="fill: none; stroke: #000000; stroke-width: 0.8; stroke-linejoin: miter; stroke-linecap: square"/>
   </g>
   <g id="patch_5">
    <path d="M 37.567344 228.96 
L 372.367344 228.96 
" style="fill: none; stroke: #000000; stroke-width: 0.8; stroke-linejoin: miter; stroke-linecap: square"/>
   </g>
   <g id="patch_6">
    <path d="M 37.567344 7.2 
L 372.367344 7.2 
" style="fill: none; stroke: #000000; stroke-width: 0.8; stroke-linejoin: miter; stroke-linecap: square"/>
   </g>
   <g id="legend_1">
    <g id="patch_7">
     <path d="M 314.548024 29.420307 
L 365.367344 29.420307 
Q 367.367344 29.420307 367.367344 27.420307 
L 367.367344 14.2 
Q 367.367344 12.2 365.367344 12.2 
L 314.548024 12.2 
Q 312.548024 12.2 312.548024 14.2 
L 312.548024 27.420307 
Q 312.548024 29.420307 314.548024 29.420307 
z
" style="fill: #ffffff; opacity: 0.8; stroke: #cccccc; stroke-linejoin: miter"/>
    </g>
    <g id="line2d_18">
     <path d="M 316.548024 19.79832 
L 326.548024 19.79832 
L 336.548024 19.79832 
" style="fill: none; stroke: #1f77b4; stroke-width: 1.5; stroke-linecap: square"/>
    </g>
    <g id="text_19">
     <!-- CFL -->
     <g transform="translate(344.548024 23.29832) scale(0.1 -0.1)">
      <use xlink:href="#NimbusSanL-Regu-43" transform="scale(0.996264)"/>
      <use xlink:href="#NimbusSanL-Regu-46" transform="translate(71.929985 0) scale(0.996264)"/>
      <use xlink:href="#NimbusSanL-Regu-4c" transform="translate(132.801616 0) scale(0.996264)"/>
     </g>
    </g>
   </g>
  </g>
 </g>
 <defs>
  <clipPath id="p2bb20ecfe4">
   <rect x="37.567344" y="7.2" width="334.8" height="221.76"/>
  </clipPath>
 </defs>
</svg>
