<?xml version="1.0" encoding="utf-8" standalone="no"?>
<!DOCTYPE svg PUBLIC "-//W3C//DTD SVG 1.1//EN"
  "http://www.w3.org/Graphics/SVG/1.1/DTD/svg11.dtd">
<svg xmlns:xlink="http://www.w3.org/1999/xlink" width="388.515425pt" height="265.600613pt" viewBox="0 0 388.515425 265.600613" xmlns="http://www.w3.org/2000/svg" version="1.1">
 <metadata>
  <rdf:RDF xmlns:dc="http://purl.org/dc/elements/1.1/" xmlns:cc="http://creativecommons.org/ns#" xmlns:rdf="http://www.w3.org/1999/02/22-rdf-syntax-ns#">
   <cc:Work>
    <dc:type rdf:resource="http://purl.org/dc/dcmitype/StillImage"/>
    <dc:date>2025-07-17T20:53:32.342103</dc:date>
    <dc:format>image/svg+xml</dc:format>
    <dc:creator>
     <cc:Agent>
      <dc:title>Matplotlib v3.10.3, https://matplotlib.org/</dc:title>
     </cc:Agent>
    </dc:creator>
   </cc:Work>
  </rdf:RDF>
 </metadata>
 <defs>
  <style type="text/css">*{stroke-linejoin: round; stroke-linecap: butt}</style>
 </defs>
 <g id="figure_1">
  <g id="patch_1">
   <path d="M 0 265.600613 
L 388.515425 265.600613 
L 388.515425 0 
L 0 0 
z
" style="fill: #ffffff"/>
  </g>
  <g id="axes_1">
   <g id="patch_2">
    <path d="M 40.150386 228.96 
L 374.950386 228.96 
L 374.950386 7.2 
L 40.150386 7.2 
z
" style="fill: #ffffff"/>
   </g>
   <g id="PathCollection_1">
    <defs>
     <path id="m71524621d6" d="M 0 0.353553 
C 0.093763 0.353553 0.183699 0.316301 0.25 0.25 
C 0.316301 0.183699 0.353553 0.093763 0.353553 0 
C 0.353553 -0.093763 0.316301 -0.183699 0.25 -0.25 
C 0.183699 -0.316301 0.093763 -0.353553 0 -0.353553 
C -0.093763 -0.353553 -0.183699 -0.316301 -0.25 -0.25 
C -0.316301 -0.183699 -0.353553 -0.093763 -0.353553 0 
C -0.353553 0.093763 -0.316301 0.183699 -0.25 0.25 
C -0.183699 0.316301 -0.093763 0.353553 0 0.353553 
z
" style="stroke: #ff0000"/>
    </defs>
    <g clip-path="url(#p2f764f3a0e)">
     <use xlink:href="#m71524621d6" x="40.150386" y="215.231531" style="fill: #ff0000; stroke: #ff0000"/>
     <use xlink:href="#m71524621d6" x="41.33223" y="216.416512" style="fill: #ff0000; stroke: #ff0000"/>
     <use xlink:href="#m71524621d6" x="42.657033" y="214.92183" style="fill: #ff0000; stroke: #ff0000"/>
     <use xlink:href="#m71524621d6" x="44.189748" y="213.230252" style="fill: #ff0000; stroke: #ff0000"/>
     <use xlink:href="#m71524621d6" x="45.919994" y="211.542458" style="fill: #ff0000; stroke: #ff0000"/>
     <use xlink:href="#m71524621d6" x="47.830028" y="210.287489" style="fill: #ff0000; stroke: #ff0000"/>
     <use xlink:href="#m71524621d6" x="49.92688" y="209.180234" style="fill: #ff0000; stroke: #ff0000"/>
     <use xlink:href="#m71524621d6" x="52.243027" y="208.4537" style="fill: #ff0000; stroke: #ff0000"/>
     <use xlink:href="#m71524621d6" x="54.830696" y="207.790276" style="fill: #ff0000; stroke: #ff0000"/>
     <use xlink:href="#m71524621d6" x="57.771914" y="207.36794" style="fill: #ff0000; stroke: #ff0000"/>
     <use xlink:href="#m71524621d6" x="61.199931" y="206.998397" style="fill: #ff0000; stroke: #ff0000"/>
     <use xlink:href="#m71524621d6" x="65.307927" y="206.750257" style="fill: #ff0000; stroke: #ff0000"/>
     <use xlink:href="#m71524621d6" x="70.104607" y="206.584315" style="fill: #ff0000; stroke: #ff0000"/>
     <use xlink:href="#m71524621d6" x="74.899612" y="206.489393" style="fill: #ff0000; stroke: #ff0000"/>
     <use xlink:href="#m71524621d6" x="79.363836" y="206.434365" style="fill: #ff0000; stroke: #ff0000"/>
     <use xlink:href="#m71524621d6" x="83.555532" y="206.394471" style="fill: #ff0000; stroke: #ff0000"/>
     <use xlink:href="#m71524621d6" x="87.565096" y="206.359219" style="fill: #ff0000; stroke: #ff0000"/>
     <use xlink:href="#m71524621d6" x="91.452459" y="206.321903" style="fill: #ff0000; stroke: #ff0000"/>
     <use xlink:href="#m71524621d6" x="95.254783" y="206.280633" style="fill: #ff0000; stroke: #ff0000"/>
     <use xlink:href="#m71524621d6" x="98.994834" y="206.232999" style="fill: #ff0000; stroke: #ff0000"/>
     <use xlink:href="#m71524621d6" x="102.687343" y="206.178316" style="fill: #ff0000; stroke: #ff0000"/>
     <use xlink:href="#m71524621d6" x="106.342689" y="206.114519" style="fill: #ff0000; stroke: #ff0000"/>
     <use xlink:href="#m71524621d6" x="109.971586" y="206.040747" style="fill: #ff0000; stroke: #ff0000"/>
     <use xlink:href="#m71524621d6" x="113.580061" y="205.956831" style="fill: #ff0000; stroke: #ff0000"/>
     <use xlink:href="#m71524621d6" x="117.175143" y="205.86122" style="fill: #ff0000; stroke: #ff0000"/>
     <use xlink:href="#m71524621d6" x="120.761856" y="205.753229" style="fill: #ff0000; stroke: #ff0000"/>
     <use xlink:href="#m71524621d6" x="124.346559" y="205.633029" style="fill: #ff0000; stroke: #ff0000"/>
     <use xlink:href="#m71524621d6" x="127.932602" y="205.500103" style="fill: #ff0000; stroke: #ff0000"/>
     <use xlink:href="#m71524621d6" x="131.524336" y="205.353936" style="fill: #ff0000; stroke: #ff0000"/>
     <use xlink:href="#m71524621d6" x="135.124441" y="205.193669" style="fill: #ff0000; stroke: #ff0000"/>
     <use xlink:href="#m71524621d6" x="138.735928" y="205.020333" style="fill: #ff0000; stroke: #ff0000"/>
     <use xlink:href="#m71524621d6" x="142.360473" y="204.833583" style="fill: #ff0000; stroke: #ff0000"/>
     <use xlink:href="#m71524621d6" x="145.999414" y="204.633937" style="fill: #ff0000; stroke: #ff0000"/>
     <use xlink:href="#m71524621d6" x="149.654761" y="204.421221" style="fill: #ff0000; stroke: #ff0000"/>
     <use xlink:href="#m71524621d6" x="153.325843" y="204.195781" style="fill: #ff0000; stroke: #ff0000"/>
     <use xlink:href="#m71524621d6" x="157.014334" y="203.957272" style="fill: #ff0000; stroke: #ff0000"/>
     <use xlink:href="#m71524621d6" x="160.720236" y="203.705177" style="fill: #ff0000; stroke: #ff0000"/>
     <use xlink:href="#m71524621d6" x="164.444216" y="203.440014" style="fill: #ff0000; stroke: #ff0000"/>
     <use xlink:href="#m71524621d6" x="168.184936" y="203.161437" style="fill: #ff0000; stroke: #ff0000"/>
     <use xlink:href="#m71524621d6" x="171.942732" y="202.868932" style="fill: #ff0000; stroke: #ff0000"/>
     <use xlink:href="#m71524621d6" x="175.717602" y="202.561638" style="fill: #ff0000; stroke: #ff0000"/>
     <use xlink:href="#m71524621d6" x="179.509212" y="202.239728" style="fill: #ff0000; stroke: #ff0000"/>
     <use xlink:href="#m71524621d6" x="183.318231" y="201.902341" style="fill: #ff0000; stroke: #ff0000"/>
     <use xlink:href="#m71524621d6" x="187.142652" y="201.54965" style="fill: #ff0000; stroke: #ff0000"/>
     <use xlink:href="#m71524621d6" x="190.983477" y="201.179246" style="fill: #ff0000; stroke: #ff0000"/>
     <use xlink:href="#m71524621d6" x="194.841378" y="200.791647" style="fill: #ff0000; stroke: #ff0000"/>
     <use xlink:href="#m71524621d6" x="198.715683" y="200.385648" style="fill: #ff0000; stroke: #ff0000"/>
     <use xlink:href="#m71524621d6" x="202.607398" y="199.959357" style="fill: #ff0000; stroke: #ff0000"/>
     <use xlink:href="#m71524621d6" x="206.515519" y="199.513979" style="fill: #ff0000; stroke: #ff0000"/>
     <use xlink:href="#m71524621d6" x="210.441049" y="199.046074" style="fill: #ff0000; stroke: #ff0000"/>
     <use xlink:href="#m71524621d6" x="214.385997" y="198.554266" style="fill: #ff0000; stroke: #ff0000"/>
     <use xlink:href="#m71524621d6" x="218.350029" y="198.039932" style="fill: #ff0000; stroke: #ff0000"/>
     <use xlink:href="#m71524621d6" x="222.33348" y="197.498943" style="fill: #ff0000; stroke: #ff0000"/>
     <use xlink:href="#m71524621d6" x="226.337688" y="196.931129" style="fill: #ff0000; stroke: #ff0000"/>
     <use xlink:href="#m71524621d6" x="230.364662" y="196.33391" style="fill: #ff0000; stroke: #ff0000"/>
     <use xlink:href="#m71524621d6" x="234.414403" y="195.707457" style="fill: #ff0000; stroke: #ff0000"/>
     <use xlink:href="#m71524621d6" x="238.48758" y="195.047987" style="fill: #ff0000; stroke: #ff0000"/>
     <use xlink:href="#m71524621d6" x="242.587206" y="194.354298" style="fill: #ff0000; stroke: #ff0000"/>
     <use xlink:href="#m71524621d6" x="246.713616" y="193.625185" style="fill: #ff0000; stroke: #ff0000"/>
     <use xlink:href="#m71524621d6" x="250.867479" y="192.857724" style="fill: #ff0000; stroke: #ff0000"/>
     <use xlink:href="#m71524621d6" x="255.052144" y="192.049165" style="fill: #ff0000; stroke: #ff0000"/>
     <use xlink:href="#m71524621d6" x="259.266607" y="191.199507" style="fill: #ff0000; stroke: #ff0000"/>
     <use xlink:href="#m71524621d6" x="263.514214" y="190.30342" style="fill: #ff0000; stroke: #ff0000"/>
     <use xlink:href="#m71524621d6" x="267.795302" y="189.360215" style="fill: #ff0000; stroke: #ff0000"/>
     <use xlink:href="#m71524621d6" x="272.112548" y="188.36611" style="fill: #ff0000; stroke: #ff0000"/>
     <use xlink:href="#m71524621d6" x="276.466287" y="187.319558" style="fill: #ff0000; stroke: #ff0000"/>
     <use xlink:href="#m71524621d6" x="280.858528" y="186.216258" style="fill: #ff0000; stroke: #ff0000"/>
     <use xlink:href="#m71524621d6" x="285.290611" y="185.054663" style="fill: #ff0000; stroke: #ff0000"/>
     <use xlink:href="#m71524621d6" x="289.762869" y="183.830647" style="fill: #ff0000; stroke: #ff0000"/>
     <use xlink:href="#m71524621d6" x="294.276978" y="182.540426" style="fill: #ff0000; stroke: #ff0000"/>
     <use xlink:href="#m71524621d6" x="298.835614" y="181.179701" style="fill: #ff0000; stroke: #ff0000"/>
     <use xlink:href="#m71524621d6" x="303.440454" y="179.745376" style="fill: #ff0000; stroke: #ff0000"/>
     <use xlink:href="#m71524621d6" x="308.09116" y="178.23367" style="fill: #ff0000; stroke: #ff0000"/>
     <use xlink:href="#m71524621d6" x="312.789409" y="176.640282" style="fill: #ff0000; stroke: #ff0000"/>
     <use xlink:href="#m71524621d6" x="317.535868" y="174.955755" style="fill: #ff0000; stroke: #ff0000"/>
     <use xlink:href="#m71524621d6" x="322.333552" y="173.179745" style="fill: #ff0000; stroke: #ff0000"/>
     <use xlink:href="#m71524621d6" x="327.181122" y="171.298151" style="fill: #ff0000; stroke: #ff0000"/>
     <use xlink:href="#m71524621d6" x="332.079915" y="169.30547" style="fill: #ff0000; stroke: #ff0000"/>
     <use xlink:href="#m71524621d6" x="337.026585" y="167.185711" style="fill: #ff0000; stroke: #ff0000"/>
     <use xlink:href="#m71524621d6" x="342.014436" y="164.927867" style="fill: #ff0000; stroke: #ff0000"/>
     <use xlink:href="#m71524621d6" x="347.006638" y="162.516634" style="fill: #ff0000; stroke: #ff0000"/>
     <use xlink:href="#m71524621d6" x="351.915811" y="159.971443" style="fill: #ff0000; stroke: #ff0000"/>
     <use xlink:href="#m71524621d6" x="356.551452" y="157.328579" style="fill: #ff0000; stroke: #ff0000"/>
     <use xlink:href="#m71524621d6" x="360.673509" y="154.717872" style="fill: #ff0000; stroke: #ff0000"/>
     <use xlink:href="#m71524621d6" x="364.158442" y="152.1278" style="fill: #ff0000; stroke: #ff0000"/>
     <use xlink:href="#m71524621d6" x="367.055132" y="149.664119" style="fill: #ff0000; stroke: #ff0000"/>
     <use xlink:href="#m71524621d6" x="369.481093" y="146.949719" style="fill: #ff0000; stroke: #ff0000"/>
     <use xlink:href="#m71524621d6" x="371.547813" y="144.229817" style="fill: #ff0000; stroke: #ff0000"/>
     <use xlink:href="#m71524621d6" x="373.343346" y="139.487656" style="fill: #ff0000; stroke: #ff0000"/>
     <use xlink:href="#m71524621d6" x="374.950386" y="132.089563" style="fill: #ff0000; stroke: #ff0000"/>
     <use xlink:href="#m71524621d6" x="40.150386" y="215.231531" style="fill: #ff0000; stroke: #ff0000"/>
     <use xlink:href="#m71524621d6" x="40.98069" y="215.216571" style="fill: #ff0000; stroke: #ff0000"/>
     <use xlink:href="#m71524621d6" x="41.991116" y="212.641459" style="fill: #ff0000; stroke: #ff0000"/>
     <use xlink:href="#m71524621d6" x="43.304871" y="208.937597" style="fill: #ff0000; stroke: #ff0000"/>
     <use xlink:href="#m71524621d6" x="44.868387" y="204.712867" style="fill: #ff0000; stroke: #ff0000"/>
     <use xlink:href="#m71524621d6" x="46.578211" y="201.037895" style="fill: #ff0000; stroke: #ff0000"/>
     <use xlink:href="#m71524621d6" x="48.40488" y="198.156177" style="fill: #ff0000; stroke: #ff0000"/>
     <use xlink:href="#m71524621d6" x="50.357433" y="195.878902" style="fill: #ff0000; stroke: #ff0000"/>
     <use xlink:href="#m71524621d6" x="52.45462" y="194.016395" style="fill: #ff0000; stroke: #ff0000"/>
     <use xlink:href="#m71524621d6" x="54.713516" y="192.448286" style="fill: #ff0000; stroke: #ff0000"/>
     <use xlink:href="#m71524621d6" x="57.145503" y="191.061766" style="fill: #ff0000; stroke: #ff0000"/>
     <use xlink:href="#m71524621d6" x="59.751252" y="189.790805" style="fill: #ff0000; stroke: #ff0000"/>
     <use xlink:href="#m71524621d6" x="62.520048" y="188.567992" style="fill: #ff0000; stroke: #ff0000"/>
     <use xlink:href="#m71524621d6" x="65.432138" y="187.38112" style="fill: #ff0000; stroke: #ff0000"/>
     <use xlink:href="#m71524621d6" x="68.462413" y="186.328548" style="fill: #ff0000; stroke: #ff0000"/>
     <use xlink:href="#m71524621d6" x="71.583753" y="185.19034" style="fill: #ff0000; stroke: #ff0000"/>
     <use xlink:href="#m71524621d6" x="74.773058" y="184.003639" style="fill: #ff0000; stroke: #ff0000"/>
     <use xlink:href="#m71524621d6" x="78.008565" y="182.854082" style="fill: #ff0000; stroke: #ff0000"/>
     <use xlink:href="#m71524621d6" x="81.274539" y="181.721033" style="fill: #ff0000; stroke: #ff0000"/>
     <use xlink:href="#m71524621d6" x="84.557253" y="180.583857" style="fill: #ff0000; stroke: #ff0000"/>
     <use xlink:href="#m71524621d6" x="87.846328" y="179.431204" style="fill: #ff0000; stroke: #ff0000"/>
     <use xlink:href="#m71524621d6" x="91.134064" y="178.259292" style="fill: #ff0000; stroke: #ff0000"/>
     <use xlink:href="#m71524621d6" x="94.412761" y="177.065369" style="fill: #ff0000; stroke: #ff0000"/>
     <use xlink:href="#m71524621d6" x="97.676391" y="175.842556" style="fill: #ff0000; stroke: #ff0000"/>
     <use xlink:href="#m71524621d6" x="100.921273" y="174.5826" style="fill: #ff0000; stroke: #ff0000"/>
     <use xlink:href="#m71524621d6" x="104.142384" y="173.279138" style="fill: #ff0000; stroke: #ff0000"/>
     <use xlink:href="#m71524621d6" x="107.336376" y="171.923572" style="fill: #ff0000; stroke: #ff0000"/>
     <use xlink:href="#m71524621d6" x="110.499901" y="170.509023" style="fill: #ff0000; stroke: #ff0000"/>
     <use xlink:href="#m71524621d6" x="113.630281" y="169.025518" style="fill: #ff0000; stroke: #ff0000"/>
     <use xlink:href="#m71524621d6" x="116.724837" y="167.468414" style="fill: #ff0000; stroke: #ff0000"/>
     <use xlink:href="#m71524621d6" x="119.781561" y="165.83152" style="fill: #ff0000; stroke: #ff0000"/>
     <use xlink:href="#m71524621d6" x="122.798444" y="164.112429" style="fill: #ff0000; stroke: #ff0000"/>
     <use xlink:href="#m71524621d6" x="125.775151" y="162.307357" style="fill: #ff0000; stroke: #ff0000"/>
     <use xlink:href="#m71524621d6" x="128.711012" y="160.419229" style="fill: #ff0000; stroke: #ff0000"/>
     <use xlink:href="#m71524621d6" x="131.606697" y="158.453718" style="fill: #ff0000; stroke: #ff0000"/>
     <use xlink:href="#m71524621d6" x="134.46388" y="156.416844" style="fill: #ff0000; stroke: #ff0000"/>
     <use xlink:href="#m71524621d6" x="137.28457" y="154.328725" style="fill: #ff0000; stroke: #ff0000"/>
     <use xlink:href="#m71524621d6" x="140.072115" y="152.20329" style="fill: #ff0000; stroke: #ff0000"/>
     <use xlink:href="#m71524621d6" x="142.831202" y="150.07115" style="fill: #ff0000; stroke: #ff0000"/>
     <use xlink:href="#m71524621d6" x="145.567188" y="147.954485" style="fill: #ff0000; stroke: #ff0000"/>
     <use xlink:href="#m71524621d6" x="148.286098" y="145.892161" style="fill: #ff0000; stroke: #ff0000"/>
     <use xlink:href="#m71524621d6" x="150.996304" y="143.912549" style="fill: #ff0000; stroke: #ff0000"/>
     <use xlink:href="#m71524621d6" x="153.705506" y="142.049527" style="fill: #ff0000; stroke: #ff0000"/>
     <use xlink:href="#m71524621d6" x="156.422743" y="140.32906" style="fill: #ff0000; stroke: #ff0000"/>
     <use xlink:href="#m71524621d6" x="159.158059" y="138.767141" style="fill: #ff0000; stroke: #ff0000"/>
     <use xlink:href="#m71524621d6" x="161.921498" y="137.375635" style="fill: #ff0000; stroke: #ff0000"/>
     <use xlink:href="#m71524621d6" x="164.724109" y="136.150587" style="fill: #ff0000; stroke: #ff0000"/>
     <use xlink:href="#m71524621d6" x="167.57627" y="135.089245" style="fill: #ff0000; stroke: #ff0000"/>
     <use xlink:href="#m71524621d6" x="170.490369" y="134.164785" style="fill: #ff0000; stroke: #ff0000"/>
     <use xlink:href="#m71524621d6" x="173.47645" y="133.362244" style="fill: #ff0000; stroke: #ff0000"/>
     <use xlink:href="#m71524621d6" x="176.546566" y="132.641557" style="fill: #ff0000; stroke: #ff0000"/>
     <use xlink:href="#m71524621d6" x="179.711096" y="131.991717" style="fill: #ff0000; stroke: #ff0000"/>
     <use xlink:href="#m71524621d6" x="182.980753" y="131.382116" style="fill: #ff0000; stroke: #ff0000"/>
     <use xlink:href="#m71524621d6" x="186.365916" y="130.789884" style="fill: #ff0000; stroke: #ff0000"/>
     <use xlink:href="#m71524621d6" x="189.875624" y="130.212096" style="fill: #ff0000; stroke: #ff0000"/>
     <use xlink:href="#m71524621d6" x="193.518918" y="129.631385" style="fill: #ff0000; stroke: #ff0000"/>
     <use xlink:href="#m71524621d6" x="197.302827" y="129.055144" style="fill: #ff0000; stroke: #ff0000"/>
     <use xlink:href="#m71524621d6" x="201.234718" y="128.488362" style="fill: #ff0000; stroke: #ff0000"/>
     <use xlink:href="#m71524621d6" x="205.319613" y="127.938088" style="fill: #ff0000; stroke: #ff0000"/>
     <use xlink:href="#m71524621d6" x="209.562868" y="127.417391" style="fill: #ff0000; stroke: #ff0000"/>
     <use xlink:href="#m71524621d6" x="213.967497" y="126.936932" style="fill: #ff0000; stroke: #ff0000"/>
     <use xlink:href="#m71524621d6" x="218.534504" y="126.494305" style="fill: #ff0000; stroke: #ff0000"/>
     <use xlink:href="#m71524621d6" x="223.264558" y="126.107738" style="fill: #ff0000; stroke: #ff0000"/>
     <use xlink:href="#m71524621d6" x="228.161008" y="125.75711" style="fill: #ff0000; stroke: #ff0000"/>
     <use xlink:href="#m71524621d6" x="233.216823" y="125.436059" style="fill: #ff0000; stroke: #ff0000"/>
     <use xlink:href="#m71524621d6" x="238.433342" y="125.141147" style="fill: #ff0000; stroke: #ff0000"/>
     <use xlink:href="#m71524621d6" x="243.805878" y="124.859647" style="fill: #ff0000; stroke: #ff0000"/>
     <use xlink:href="#m71524621d6" x="249.331752" y="124.597579" style="fill: #ff0000; stroke: #ff0000"/>
     <use xlink:href="#m71524621d6" x="255.004268" y="124.355458" style="fill: #ff0000; stroke: #ff0000"/>
     <use xlink:href="#m71524621d6" x="260.819744" y="124.162518" style="fill: #ff0000; stroke: #ff0000"/>
     <use xlink:href="#m71524621d6" x="266.773827" y="124.029249" style="fill: #ff0000; stroke: #ff0000"/>
     <use xlink:href="#m71524621d6" x="272.856139" y="123.974049" style="fill: #ff0000; stroke: #ff0000"/>
     <use xlink:href="#m71524621d6" x="279.062661" y="124.009645" style="fill: #ff0000; stroke: #ff0000"/>
     <use xlink:href="#m71524621d6" x="285.390381" y="124.124343" style="fill: #ff0000; stroke: #ff0000"/>
     <use xlink:href="#m71524621d6" x="291.830594" y="124.31264" style="fill: #ff0000; stroke: #ff0000"/>
     <use xlink:href="#m71524621d6" x="298.37426" y="124.577975" style="fill: #ff0000; stroke: #ff0000"/>
     <use xlink:href="#m71524621d6" x="305.019705" y="124.912955" style="fill: #ff0000; stroke: #ff0000"/>
     <use xlink:href="#m71524621d6" x="311.761238" y="125.334602" style="fill: #ff0000; stroke: #ff0000"/>
     <use xlink:href="#m71524621d6" x="318.591828" y="125.839307" style="fill: #ff0000; stroke: #ff0000"/>
     <use xlink:href="#m71524621d6" x="325.503439" y="126.438934" style="fill: #ff0000; stroke: #ff0000"/>
     <use xlink:href="#m71524621d6" x="332.500089" y="127.129012" style="fill: #ff0000; stroke: #ff0000"/>
     <use xlink:href="#m71524621d6" x="339.569391" y="127.940323" style="fill: #ff0000; stroke: #ff0000"/>
     <use xlink:href="#m71524621d6" x="346.681213" y="128.849135" style="fill: #ff0000; stroke: #ff0000"/>
     <use xlink:href="#m71524621d6" x="353.711343" y="129.877976" style="fill: #ff0000; stroke: #ff0000"/>
     <use xlink:href="#m71524621d6" x="360.131803" y="130.871393" style="fill: #ff0000; stroke: #ff0000"/>
     <use xlink:href="#m71524621d6" x="365.098896" y="131.70609" style="fill: #ff0000; stroke: #ff0000"/>
     <use xlink:href="#m71524621d6" x="368.633714" y="132.187924" style="fill: #ff0000; stroke: #ff0000"/>
     <use xlink:href="#m71524621d6" x="371.232766" y="132.498485" style="fill: #ff0000; stroke: #ff0000"/>
     <use xlink:href="#m71524621d6" x="373.259646" y="132.35507" style="fill: #ff0000; stroke: #ff0000"/>
     <use xlink:href="#m71524621d6" x="374.950386" y="132.089563" style="fill: #ff0000; stroke: #ff0000"/>
    </g>
   </g>
   <g id="matplotlib.axis_1">
    <g id="xtick_1">
     <g id="line2d_1">
      <defs>
       <path id="mfcff989591" d="M 0 0 
L 0 3.5 
" style="stroke: #000000; stroke-width: 0.8"/>
      </defs>
      <g>
       <use xlink:href="#mfcff989591" x="40.150386" y="228.96" style="stroke: #000000; stroke-width: 0.8"/>
      </g>
     </g>
     <g id="text_1">
      <!-- $\mathdefault{0.0}$ -->
      <g transform="translate(33.785346 243.05832) scale(0.1 -0.1)">
       <defs>
        <path id="CMR17-30" d="M 2688 2038 
C 2688 2430 2682 3099 2413 3613 
C 2176 4063 1798 4224 1466 4224 
C 1158 4224 768 4082 525 3620 
C 269 3137 243 2539 243 2038 
C 243 1671 250 1112 448 623 
C 723 -39 1216 -128 1466 -128 
C 1760 -128 2208 -7 2470 604 
C 2662 1048 2688 1568 2688 2038 
z
M 1466 -26 
C 1056 -26 813 328 723 816 
C 653 1196 653 1749 653 2109 
C 653 2604 653 3015 736 3407 
C 858 3954 1216 4121 1466 4121 
C 1728 4121 2067 3947 2189 3420 
C 2272 3054 2278 2623 2278 2109 
C 2278 1691 2278 1176 2202 797 
C 2067 96 1690 -26 1466 -26 
z
" transform="scale(0.015625)"/>
        <path id="CMMI12-3a" d="M 1178 307 
C 1178 492 1024 620 870 620 
C 685 620 557 467 557 313 
C 557 128 710 0 864 0 
C 1050 0 1178 153 1178 307 
z
" transform="scale(0.015625)"/>
       </defs>
       <use xlink:href="#CMR17-30" transform="scale(0.996264)"/>
       <use xlink:href="#CMMI12-3a" transform="translate(45.690477 0) scale(0.996264)"/>
       <use xlink:href="#CMR17-30" transform="translate(72.787654 0) scale(0.996264)"/>
      </g>
     </g>
    </g>
    <g id="xtick_2">
     <g id="line2d_2">
      <g>
       <use xlink:href="#mfcff989591" x="107.110386" y="228.96" style="stroke: #000000; stroke-width: 0.8"/>
      </g>
     </g>
     <g id="text_2">
      <!-- $\mathdefault{0.2}$ -->
      <g transform="translate(100.745346 243.05832) scale(0.1 -0.1)">
       <defs>
        <path id="CMR17-32" d="M 2669 990 
L 2554 990 
C 2490 537 2438 460 2413 422 
C 2381 371 1920 371 1830 371 
L 602 371 
C 832 620 1280 1073 1824 1596 
C 2214 1966 2669 2400 2669 3033 
C 2669 3788 2067 4224 1395 4224 
C 691 4224 262 3603 262 3027 
C 262 2777 448 2745 525 2745 
C 589 2745 781 2783 781 3007 
C 781 3206 614 3264 525 3264 
C 486 3264 448 3257 422 3244 
C 544 3788 915 4057 1306 4057 
C 1862 4057 2227 3616 2227 3033 
C 2227 2477 1901 1998 1536 1583 
L 262 147 
L 262 0 
L 2515 0 
L 2669 990 
z
" transform="scale(0.015625)"/>
       </defs>
       <use xlink:href="#CMR17-30" transform="scale(0.996264)"/>
       <use xlink:href="#CMMI12-3a" transform="translate(45.690477 0) scale(0.996264)"/>
       <use xlink:href="#CMR17-32" transform="translate(72.787654 0) scale(0.996264)"/>
      </g>
     </g>
    </g>
    <g id="xtick_3">
     <g id="line2d_3">
      <g>
       <use xlink:href="#mfcff989591" x="174.070386" y="228.96" style="stroke: #000000; stroke-width: 0.8"/>
      </g>
     </g>
     <g id="text_3">
      <!-- $\mathdefault{0.4}$ -->
      <g transform="translate(167.705346 243.05832) scale(0.1 -0.1)">
       <defs>
        <path id="CMR17-34" d="M 2150 4147 
C 2150 4281 2144 4288 2029 4288 
L 128 1254 
L 128 1088 
L 1779 1088 
L 1779 460 
C 1779 230 1766 166 1318 166 
L 1197 166 
L 1197 0 
C 1402 12 1747 12 1965 12 
C 2182 12 2528 12 2733 0 
L 2733 166 
L 2611 166 
C 2163 166 2150 230 2150 460 
L 2150 1088 
L 2803 1088 
L 2803 1254 
L 2150 1254 
L 2150 4147 
z
M 1798 3723 
L 1798 1254 
L 256 1254 
L 1798 3723 
z
" transform="scale(0.015625)"/>
       </defs>
       <use xlink:href="#CMR17-30" transform="scale(0.996264)"/>
       <use xlink:href="#CMMI12-3a" transform="translate(45.690477 0) scale(0.996264)"/>
       <use xlink:href="#CMR17-34" transform="translate(72.787654 0) scale(0.996264)"/>
      </g>
     </g>
    </g>
    <g id="xtick_4">
     <g id="line2d_4">
      <g>
       <use xlink:href="#mfcff989591" x="241.030386" y="228.96" style="stroke: #000000; stroke-width: 0.8"/>
      </g>
     </g>
     <g id="text_4">
      <!-- $\mathdefault{0.6}$ -->
      <g transform="translate(234.665346 243.05832) scale(0.1 -0.1)">
       <defs>
        <path id="CMR17-36" d="M 678 2198 
C 678 3712 1395 4076 1811 4076 
C 1946 4076 2272 4049 2400 3782 
C 2298 3782 2106 3782 2106 3558 
C 2106 3385 2246 3328 2336 3328 
C 2394 3328 2566 3353 2566 3571 
C 2566 3987 2246 4224 1805 4224 
C 1043 4224 243 3411 243 2011 
C 243 257 966 -128 1478 -128 
C 2099 -128 2688 431 2688 1295 
C 2688 2101 2170 2688 1517 2688 
C 1126 2688 838 2430 678 1979 
L 678 2198 
z
M 1478 25 
C 691 25 691 1212 691 1450 
C 691 1914 909 2585 1504 2585 
C 1613 2585 1926 2585 2138 2140 
C 2253 1889 2253 1624 2253 1302 
C 2253 954 2253 696 2118 438 
C 1978 173 1773 25 1478 25 
z
" transform="scale(0.015625)"/>
       </defs>
       <use xlink:href="#CMR17-30" transform="scale(0.996264)"/>
       <use xlink:href="#CMMI12-3a" transform="translate(45.690477 0) scale(0.996264)"/>
       <use xlink:href="#CMR17-36" transform="translate(72.787654 0) scale(0.996264)"/>
      </g>
     </g>
    </g>
    <g id="xtick_5">
     <g id="line2d_5">
      <g>
       <use xlink:href="#mfcff989591" x="307.990386" y="228.96" style="stroke: #000000; stroke-width: 0.8"/>
      </g>
     </g>
     <g id="text_5">
      <!-- $\mathdefault{0.8}$ -->
      <g transform="translate(301.625346 243.05832) scale(0.1 -0.1)">
       <defs>
        <path id="CMR17-38" d="M 1741 2289 
C 2144 2494 2554 2803 2554 3298 
C 2554 3884 1990 4224 1472 4224 
C 890 4224 378 3800 378 3215 
C 378 3054 416 2777 666 2533 
C 730 2469 998 2276 1171 2154 
C 883 2006 211 1652 211 945 
C 211 282 838 -128 1459 -128 
C 2144 -128 2720 366 2720 1022 
C 2720 1607 2330 1877 2074 2051 
L 1741 2289 
z
M 902 2855 
C 851 2887 595 3086 595 3388 
C 595 3781 998 4076 1459 4076 
C 1965 4076 2336 3716 2336 3298 
C 2336 2700 1670 2359 1638 2359 
C 1632 2359 1626 2359 1574 2398 
L 902 2855 
z
M 2080 1536 
C 2176 1466 2483 1253 2483 861 
C 2483 385 2010 25 1472 25 
C 890 25 448 443 448 951 
C 448 1459 838 1884 1280 2083 
L 2080 1536 
z
" transform="scale(0.015625)"/>
       </defs>
       <use xlink:href="#CMR17-30" transform="scale(0.996264)"/>
       <use xlink:href="#CMMI12-3a" transform="translate(45.690477 0) scale(0.996264)"/>
       <use xlink:href="#CMR17-38" transform="translate(72.787654 0) scale(0.996264)"/>
      </g>
     </g>
    </g>
    <g id="xtick_6">
     <g id="line2d_6">
      <g>
       <use xlink:href="#mfcff989591" x="374.950386" y="228.96" style="stroke: #000000; stroke-width: 0.8"/>
      </g>
     </g>
     <g id="text_6">
      <!-- $\mathdefault{1.0}$ -->
      <g transform="translate(368.585346 243.05832) scale(0.1 -0.1)">
       <defs>
        <path id="CMR17-31" d="M 1702 4083 
C 1702 4217 1696 4224 1606 4224 
C 1357 3927 979 3833 621 3820 
C 602 3820 570 3820 563 3808 
C 557 3795 557 3782 557 3648 
C 755 3648 1088 3686 1344 3839 
L 1344 467 
C 1344 243 1331 166 781 166 
L 589 166 
L 589 0 
C 896 6 1216 12 1523 12 
C 1830 12 2150 6 2458 0 
L 2458 166 
L 2266 166 
C 1715 166 1702 236 1702 467 
L 1702 4083 
z
" transform="scale(0.015625)"/>
       </defs>
       <use xlink:href="#CMR17-31" transform="scale(0.996264)"/>
       <use xlink:href="#CMMI12-3a" transform="translate(45.690477 0) scale(0.996264)"/>
       <use xlink:href="#CMR17-30" transform="translate(72.787654 0) scale(0.996264)"/>
      </g>
     </g>
    </g>
    <g id="text_7">
     <!-- S/S_{total} -->
     <g transform="translate(188.312842 256.278627) scale(0.1 -0.1)">
      <defs>
       <path id="NimbusSanL-Regu-53" d="M 3814 3295 
C 3808 4204 3181 4736 2106 4736 
C 1082 4736 448 4211 448 3372 
C 448 2806 749 2450 1363 2291 
L 2522 1986 
C 3110 1833 3379 1598 3379 1236 
C 3379 988 3245 733 3046 593 
C 2861 466 2566 396 2189 396 
C 1683 396 1338 517 1114 784 
C 941 988 864 1210 870 1496 
L 307 1496 
C 314 1070 397 790 582 536 
C 902 102 1440 -128 2150 -128 
C 2707 -128 3162 0 3462 230 
C 3776 479 3974 892 3974 1293 
C 3974 1865 3616 2284 2982 2456 
L 1811 2768 
C 1248 2920 1043 3098 1043 3454 
C 1043 3925 1459 4236 2086 4236 
C 2829 4236 3245 3899 3251 3295 
L 3814 3295 
z
" transform="scale(0.015625)"/>
       <path id="NimbusSanL-Regu-2f" d="M 1466 4672 
L -51 -128 
L 301 -128 
L 1818 4672 
L 1466 4672 
z
" transform="scale(0.015625)"/>
       <path id="NimbusSanL-Regu-74" d="M 1626 3328 
L 1075 3328 
L 1075 4249 
L 544 4249 
L 544 3328 
L 90 3328 
L 90 2892 
L 544 2892 
L 544 402 
C 544 64 774 -128 1190 -128 
C 1318 -128 1446 -116 1626 -84 
L 1626 364 
C 1555 345 1472 339 1370 339 
C 1139 339 1075 402 1075 634 
L 1075 2892 
L 1626 2892 
L 1626 3328 
z
" transform="scale(0.015625)"/>
       <path id="NimbusSanL-Regu-6f" d="M 1741 3456 
C 800 3456 230 2784 230 1663 
C 230 543 794 -128 1747 -128 
C 2688 -128 3264 543 3264 1638 
C 3264 2791 2707 3456 1741 3456 
z
M 1747 2963 
C 2349 2963 2707 2472 2707 1644 
C 2707 861 2336 364 1747 364 
C 1152 364 787 855 787 1663 
C 787 2466 1152 2963 1747 2963 
z
" transform="scale(0.015625)"/>
       <path id="NimbusSanL-Regu-61" d="M 3424 332 
C 3366 320 3341 320 3309 320 
C 3123 320 3021 415 3021 581 
L 3021 2542 
C 3021 3135 2586 3456 1760 3456 
C 1274 3456 870 3315 646 3065 
C 493 2893 429 2702 416 2370 
L 954 2370 
C 998 2778 1242 2963 1741 2963 
C 2221 2963 2490 2784 2490 2466 
L 2490 2326 
C 2490 2103 2355 2007 1933 1956 
C 1178 1861 1062 1835 858 1753 
C 467 1593 269 1294 269 861 
C 269 256 691 -128 1370 -128 
C 1792 -128 2131 19 2509 364 
C 2547 25 2714 -128 3059 -128 
C 3168 -128 3251 -116 3424 -71 
L 3424 332 
z
M 2490 1071 
C 2490 893 2438 785 2278 638 
C 2061 441 1798 339 1485 339 
C 1069 339 826 536 826 874 
C 826 1224 1062 1402 1632 1485 
C 2195 1562 2310 1587 2490 1670 
L 2490 1071 
z
" transform="scale(0.015625)"/>
       <path id="NimbusSanL-Regu-6c" d="M 973 4672 
L 435 4672 
L 435 0 
L 973 0 
L 973 4672 
z
" transform="scale(0.015625)"/>
      </defs>
      <use xlink:href="#NimbusSanL-Regu-53" transform="scale(0.996264)"/>
      <use xlink:href="#NimbusSanL-Regu-2f" transform="translate(66.450031 0) scale(0.996264)"/>
      <use xlink:href="#NimbusSanL-Regu-53" transform="translate(94.145201 0) scale(0.996264)"/>
      <use xlink:href="#NimbusSanL-Regu-74" transform="translate(196.460797 0) scale(0.996264)"/>
      <use xlink:href="#NimbusSanL-Regu-6f" transform="translate(224.155967 0) scale(0.996264)"/>
      <use xlink:href="#NimbusSanL-Regu-74" transform="translate(279.547644 0) scale(0.996264)"/>
      <use xlink:href="#NimbusSanL-Regu-61" transform="translate(307.242813 0) scale(0.996264)"/>
      <use xlink:href="#NimbusSanL-Regu-6c" transform="translate(362.63449 0) scale(0.996264)"/>
      <path d="M 166.572573 0 
L 196.460797 0 
L 196.460797 0.3985 
L 166.572573 0.3985 
L 166.572573 0 
z
"/>
     </g>
    </g>
   </g>
   <g id="matplotlib.axis_2">
    <g id="ytick_1">
     <g id="line2d_7">
      <defs>
       <path id="mf9e005d59d" d="M 0 0 
L -3.5 0 
" style="stroke: #000000; stroke-width: 0.8"/>
      </defs>
      <g>
       <use xlink:href="#mf9e005d59d" x="40.150386" y="219.634241" style="stroke: #000000; stroke-width: 0.8"/>
      </g>
     </g>
     <g id="text_8">
      <!-- $\mathdefault{0.0}$ -->
      <g transform="translate(20.420307 223.183401) scale(0.1 -0.1)">
       <use xlink:href="#CMR17-30" transform="scale(0.996264)"/>
       <use xlink:href="#CMMI12-3a" transform="translate(45.690477 0) scale(0.996264)"/>
       <use xlink:href="#CMR17-30" transform="translate(72.787654 0) scale(0.996264)"/>
      </g>
     </g>
    </g>
    <g id="ytick_2">
     <g id="line2d_8">
      <g>
       <use xlink:href="#mf9e005d59d" x="40.150386" y="185.2421" style="stroke: #000000; stroke-width: 0.8"/>
      </g>
     </g>
     <g id="text_9">
      <!-- $\mathdefault{0.2}$ -->
      <g transform="translate(20.420307 188.79126) scale(0.1 -0.1)">
       <use xlink:href="#CMR17-30" transform="scale(0.996264)"/>
       <use xlink:href="#CMMI12-3a" transform="translate(45.690477 0) scale(0.996264)"/>
       <use xlink:href="#CMR17-32" transform="translate(72.787654 0) scale(0.996264)"/>
      </g>
     </g>
    </g>
    <g id="ytick_3">
     <g id="line2d_9">
      <g>
       <use xlink:href="#mf9e005d59d" x="40.150386" y="150.84996" style="stroke: #000000; stroke-width: 0.8"/>
      </g>
     </g>
     <g id="text_10">
      <!-- $\mathdefault{0.4}$ -->
      <g transform="translate(20.420307 154.39912) scale(0.1 -0.1)">
       <use xlink:href="#CMR17-30" transform="scale(0.996264)"/>
       <use xlink:href="#CMMI12-3a" transform="translate(45.690477 0) scale(0.996264)"/>
       <use xlink:href="#CMR17-34" transform="translate(72.787654 0) scale(0.996264)"/>
      </g>
     </g>
    </g>
    <g id="ytick_4">
     <g id="line2d_10">
      <g>
       <use xlink:href="#mf9e005d59d" x="40.150386" y="116.457819" style="stroke: #000000; stroke-width: 0.8"/>
      </g>
     </g>
     <g id="text_11">
      <!-- $\mathdefault{0.6}$ -->
      <g transform="translate(20.420307 120.006979) scale(0.1 -0.1)">
       <use xlink:href="#CMR17-30" transform="scale(0.996264)"/>
       <use xlink:href="#CMMI12-3a" transform="translate(45.690477 0) scale(0.996264)"/>
       <use xlink:href="#CMR17-36" transform="translate(72.787654 0) scale(0.996264)"/>
      </g>
     </g>
    </g>
    <g id="ytick_5">
     <g id="line2d_11">
      <g>
       <use xlink:href="#mf9e005d59d" x="40.150386" y="82.065678" style="stroke: #000000; stroke-width: 0.8"/>
      </g>
     </g>
     <g id="text_12">
      <!-- $\mathdefault{0.8}$ -->
      <g transform="translate(20.420307 85.614838) scale(0.1 -0.1)">
       <use xlink:href="#CMR17-30" transform="scale(0.996264)"/>
       <use xlink:href="#CMMI12-3a" transform="translate(45.690477 0) scale(0.996264)"/>
       <use xlink:href="#CMR17-38" transform="translate(72.787654 0) scale(0.996264)"/>
      </g>
     </g>
    </g>
    <g id="ytick_6">
     <g id="line2d_12">
      <g>
       <use xlink:href="#mf9e005d59d" x="40.150386" y="47.673538" style="stroke: #000000; stroke-width: 0.8"/>
      </g>
     </g>
     <g id="text_13">
      <!-- $\mathdefault{1.0}$ -->
      <g transform="translate(20.420307 51.222698) scale(0.1 -0.1)">
       <use xlink:href="#CMR17-31" transform="scale(0.996264)"/>
       <use xlink:href="#CMMI12-3a" transform="translate(45.690477 0) scale(0.996264)"/>
       <use xlink:href="#CMR17-30" transform="translate(72.787654 0) scale(0.996264)"/>
      </g>
     </g>
    </g>
    <g id="ytick_7">
     <g id="line2d_13">
      <g>
       <use xlink:href="#mf9e005d59d" x="40.150386" y="13.281397" style="stroke: #000000; stroke-width: 0.8"/>
      </g>
     </g>
     <g id="text_14">
      <!-- $\mathdefault{1.2}$ -->
      <g transform="translate(20.420307 16.830557) scale(0.1 -0.1)">
       <use xlink:href="#CMR17-31" transform="scale(0.996264)"/>
       <use xlink:href="#CMMI12-3a" transform="translate(45.690477 0) scale(0.996264)"/>
       <use xlink:href="#CMR17-32" transform="translate(72.787654 0) scale(0.996264)"/>
      </g>
     </g>
    </g>
    <g id="text_15">
     <!-- Mach Number - Blade_18 -->
     <g transform="translate(14.29832 173.85521) rotate(-90) scale(0.1 -0.1)">
      <defs>
       <path id="NimbusSanL-Regu-4d" d="M 2995 0 
L 4307 3915 
L 4307 0 
L 4870 0 
L 4870 4672 
L 4045 4672 
L 2688 602 
L 1306 4672 
L 480 4672 
L 480 0 
L 1043 0 
L 1043 3915 
L 2368 0 
L 2995 0 
z
" transform="scale(0.015625)"/>
       <path id="NimbusSanL-Regu-63" d="M 3014 2237 
C 2989 2561 2918 2771 2790 2956 
C 2560 3270 2157 3456 1690 3456 
C 787 3456 198 2740 198 1632 
C 198 555 774 -128 1683 -128 
C 2483 -128 2989 352 3053 1167 
L 2515 1167 
C 2426 632 2150 364 1696 364 
C 1107 364 755 842 755 1632 
C 755 2466 1101 2963 1683 2963 
C 2131 2963 2413 2701 2477 2237 
L 3014 2237 
z
" transform="scale(0.015625)"/>
       <path id="NimbusSanL-Regu-68" d="M 448 4672 
L 448 0 
L 979 0 
L 979 1853 
C 979 2539 1338 2988 1888 2988 
C 2061 2988 2234 2930 2362 2834 
C 2515 2725 2579 2565 2579 2328 
L 2579 0 
L 3110 0 
L 3110 2539 
C 3110 3103 2707 3456 2054 3456 
C 1581 3456 1293 3308 979 2898 
L 979 4672 
L 448 4672 
z
" transform="scale(0.015625)"/>
       <path id="NimbusSanL-Regu-4e" d="M 4134 4672 
L 3571 4672 
L 3571 852 
L 1133 4672 
L 486 4672 
L 486 0 
L 1050 0 
L 1050 3787 
L 3462 0 
L 4134 0 
L 4134 4672 
z
" transform="scale(0.015625)"/>
       <path id="NimbusSanL-Regu-75" d="M 3085 19 
L 3085 3328 
L 2554 3328 
L 2554 1454 
C 2554 780 2195 339 1638 339 
C 1216 339 947 591 947 988 
L 947 3328 
L 416 3328 
L 416 780 
C 416 230 832 -128 1485 -128 
C 1978 -128 2291 44 2605 484 
L 2605 19 
L 3085 19 
z
" transform="scale(0.015625)"/>
       <path id="NimbusSanL-Regu-6d" d="M 448 3328 
L 448 0 
L 986 0 
L 986 2089 
C 986 2597 1338 2988 1773 2988 
C 2170 2988 2394 2744 2394 2315 
L 2394 0 
L 2931 0 
L 2931 2109 
C 2931 2597 3283 2988 3718 2988 
C 4109 2988 4339 2738 4339 2315 
L 4339 0 
L 4877 0 
L 4877 2520 
C 4877 3123 4531 3456 3904 3456 
C 3456 3456 3187 3321 2874 2943 
C 2675 3302 2406 3456 1971 3456 
C 1523 3456 1229 3289 941 2886 
L 941 3328 
L 448 3328 
z
" transform="scale(0.015625)"/>
       <path id="NimbusSanL-Regu-62" d="M 346 4672 
L 346 19 
L 826 19 
L 826 447 
C 1082 57 1421 -128 1888 -128 
C 2771 -128 3347 594 3347 1702 
C 3347 2784 2797 3456 1914 3456 
C 1453 3456 1126 3283 877 2905 
L 877 4672 
L 346 4672 
z
M 1811 2956 
C 2406 2956 2790 2440 2790 1644 
C 2790 887 2394 371 1811 371 
C 1248 371 877 880 877 1663 
C 877 2447 1248 2956 1811 2956 
z
" transform="scale(0.015625)"/>
       <path id="NimbusSanL-Regu-65" d="M 3283 1484 
C 3283 1998 3245 2311 3149 2565 
C 2931 3123 2419 3456 1792 3456 
C 858 3456 256 2734 256 1619 
C 256 545 838 -128 1779 -128 
C 2547 -128 3078 307 3213 1018 
L 2675 1018 
C 2528 588 2227 364 1798 364 
C 1459 364 1171 514 992 787 
C 864 974 819 1161 813 1484 
L 3283 1484 
z
M 826 1920 
C 870 2552 1248 2963 1786 2963 
C 2310 2963 2714 2519 2714 1959 
C 2714 1946 2714 1933 2707 1920 
L 826 1920 
z
" transform="scale(0.015625)"/>
       <path id="NimbusSanL-Regu-72" d="M 442 3328 
L 442 0 
L 979 0 
L 979 1727 
C 979 2203 1101 2514 1357 2698 
C 1523 2819 1683 2857 2054 2863 
L 2054 3404 
C 1965 3449 1920 3456 1850 3456 
C 1504 3456 1242 3251 934 2750 
L 934 3328 
L 442 3328 
z
" transform="scale(0.015625)"/>
       <path id="NimbusSanL-Regu-2d" d="M 1818 1996 
L 294 1996 
L 294 1536 
L 1818 1536 
L 1818 1996 
z
" transform="scale(0.015625)"/>
       <path id="NimbusSanL-Regu-42" d="M 506 0 
L 2611 0 
C 3053 0 3379 121 3629 390 
C 3859 632 3987 961 3987 1321 
C 3987 1878 3731 2214 3136 2444 
C 3558 2643 3782 2994 3782 3476 
C 3782 3821 3654 4127 3411 4345 
C 3168 4569 2848 4672 2400 4672 
L 506 4672 
L 506 0 
z
M 1101 2636 
L 1101 4147 
L 2253 4147 
C 2586 4147 2771 4101 2931 3977 
C 3098 3847 3187 3652 3187 3391 
C 3187 3138 3098 2936 2931 2806 
C 2771 2682 2586 2636 2253 2636 
L 1101 2636 
z
M 1101 524 
L 1101 2112 
L 2554 2112 
C 2842 2112 3034 2042 3174 1890 
C 3315 1745 3392 1542 3392 1315 
C 3392 1093 3315 891 3174 746 
C 3034 594 2842 524 2554 524 
L 1101 524 
z
" transform="scale(0.015625)"/>
       <path id="NimbusSanL-Regu-64" d="M 3168 4672 
L 2637 4672 
L 2637 2937 
C 2413 3276 2054 3456 1606 3456 
C 736 3456 166 2759 166 1695 
C 166 568 723 -128 1626 -128 
C 2086 -128 2406 44 2694 460 
L 2694 19 
L 3168 19 
L 3168 4672 
z
M 1696 2956 
C 2272 2956 2637 2447 2637 1651 
C 2637 880 2266 371 1702 371 
C 1114 371 723 887 723 1663 
C 723 2440 1114 2956 1696 2956 
z
" transform="scale(0.015625)"/>
       <path id="NimbusSanL-Regu-31" d="M 1658 3232 
L 1658 0 
L 2221 0 
L 2221 4537 
L 1850 4537 
C 1651 3840 1523 3744 653 3635 
L 653 3232 
L 1658 3232 
z
" transform="scale(0.015625)"/>
       <path id="NimbusSanL-Regu-38" d="M 2502 2399 
C 2970 2681 3123 2910 3123 3337 
C 3123 4044 2566 4544 1760 4544 
C 960 4544 397 4044 397 3337 
C 397 2917 550 2687 1011 2399 
C 493 2150 237 1774 237 1276 
C 237 447 864 -128 1760 -128 
C 2656 -128 3283 447 3283 1270 
C 3283 1774 3027 2150 2502 2399 
z
M 1760 4044 
C 2240 4044 2547 3764 2547 3324 
C 2547 2904 2234 2624 1760 2624 
C 1286 2624 973 2904 973 3331 
C 973 3764 1286 4044 1760 4044 
z
M 1760 2150 
C 2323 2150 2707 1793 2707 1264 
C 2707 728 2323 371 1747 371 
C 1197 371 813 734 813 1264 
C 813 1793 1197 2150 1760 2150 
z
" transform="scale(0.015625)"/>
      </defs>
      <use xlink:href="#NimbusSanL-Regu-4d" transform="scale(0.996264)"/>
      <use xlink:href="#NimbusSanL-Regu-61" transform="translate(82.98843 0) scale(0.996264)"/>
      <use xlink:href="#NimbusSanL-Regu-63" transform="translate(138.380107 0) scale(0.996264)"/>
      <use xlink:href="#NimbusSanL-Regu-68" transform="translate(188.193308 0) scale(0.996264)"/>
      <use xlink:href="#NimbusSanL-Regu-4e" transform="translate(271.280154 0) scale(0.996264)"/>
      <use xlink:href="#NimbusSanL-Regu-75" transform="translate(343.210139 0) scale(0.996264)"/>
      <use xlink:href="#NimbusSanL-Regu-6d" transform="translate(398.601816 0) scale(0.996264)"/>
      <use xlink:href="#NimbusSanL-Regu-62" transform="translate(481.590246 0) scale(0.996264)"/>
      <use xlink:href="#NimbusSanL-Regu-65" transform="translate(536.981923 0) scale(0.996264)"/>
      <use xlink:href="#NimbusSanL-Regu-72" transform="translate(592.3736 0) scale(0.996264)"/>
      <use xlink:href="#NimbusSanL-Regu-2d" transform="translate(653.244 0) scale(0.996264)"/>
      <use xlink:href="#NimbusSanL-Regu-42" transform="translate(714.114399 0) scale(0.996264)"/>
      <use xlink:href="#NimbusSanL-Regu-6c" transform="translate(780.56443 0) scale(0.996264)"/>
      <use xlink:href="#NimbusSanL-Regu-61" transform="translate(802.681214 0) scale(0.996264)"/>
      <use xlink:href="#NimbusSanL-Regu-64" transform="translate(858.072891 0) scale(0.996264)"/>
      <use xlink:href="#NimbusSanL-Regu-65" transform="translate(913.464568 0) scale(0.996264)"/>
      <use xlink:href="#NimbusSanL-Regu-31" transform="translate(1004.72181 0) scale(0.996264)"/>
      <use xlink:href="#NimbusSanL-Regu-38" transform="translate(1060.113487 0) scale(0.996264)"/>
      <path d="M 974.833586 0 
L 1004.72181 0 
L 1004.72181 0.3985 
L 974.833586 0.3985 
L 974.833586 0 
z
"/>
     </g>
    </g>
   </g>
   <g id="line2d_14">
    <path d="M 40.150386 188.332524 
L 40.654506 189.074188 
L 41.66275 189.938015 
L 43.679271 189.922761 
L 44.183411 188.745222 
L 48.306956 184.769136 
L 50.117879 182.00928 
L 51.928957 180.526042 
L 53.740134 179.67277 
L 55.551369 179.764818 
L 57.36264 180.631583 
L 59.173936 182.260521 
L 60.985251 184.596969 
L 62.796575 187.619266 
L 64.607909 191.366446 
L 66.419249 195.913934 
L 68.230592 201.56502 
L 70.04194 209.724297 
M 95.400898 216.252067 
L 97.212251 205.079106 
L 99.023602 199.227459 
L 100.834952 194.649129 
L 102.646301 190.896896 
L 104.457649 187.736598 
L 106.268995 185.086393 
L 108.080339 182.908599 
L 109.891682 181.218941 
L 111.703021 179.947197 
L 113.51436 179.100559 
L 115.325695 178.645302 
L 117.137028 178.588783 
L 118.948357 178.896318 
L 120.759683 179.51872 
L 122.571006 180.42197 
L 124.382324 181.541907 
L 128.004949 184.224435 
L 131.627555 186.935524 
L 133.438849 188.06902 
L 135.250138 189.056944 
L 137.061423 189.683745 
L 138.872702 189.739556 
L 140.683978 189.21286 
L 142.495248 188.317233 
L 144.306516 186.220505 
L 146.11778 182.659832 
L 147.929043 175.791456 
L 149.740303 178.661376 
L 151.551569 193.740609 
L 153.362833 176.573357 
L 155.174103 164.527772 
L 156.985376 72.859723 
L 158.796654 18.922373 
L 160.60794 17.28 
L 162.419232 35.348704 
L 166.04184 75.85431 
L 167.853155 97.552165 
L 169.664477 121.250997 
L 171.475808 149.922434 
L 173.287142 199.043188 
M 373.073816 134.523911 
L 373.54273 63.572295 
L 374.011825 46.555186 
L 374.950386 161.785597 
L 374.950386 161.785597 
" clip-path="url(#p2f764f3a0e)" style="fill: none; stroke: #00008b; stroke-width: 1.5; stroke-linecap: square"/>
    <defs>
     <path id="m2606eab47e" d="M 0 0.25 
C 0.066301 0.25 0.129895 0.223658 0.176777 0.176777 
C 0.223658 0.129895 0.25 0.066301 0.25 0 
C 0.25 -0.066301 0.223658 -0.129895 0.176777 -0.176777 
C 0.129895 -0.223658 0.066301 -0.25 0 -0.25 
C -0.066301 -0.25 -0.129895 -0.223658 -0.176777 -0.176777 
C -0.223658 -0.129895 -0.25 -0.066301 -0.25 0 
C -0.25 0.066301 -0.223658 0.129895 -0.176777 0.176777 
C -0.129895 0.223658 -0.066301 0.25 0 0.25 
z
" style="stroke: #00008b"/>
    </defs>
    <g clip-path="url(#p2f764f3a0e)">
     <use xlink:href="#m2606eab47e" x="40.150386" y="188.332524" style="fill: #00008b; stroke: #00008b"/>
     <use xlink:href="#m2606eab47e" x="40.654506" y="189.074188" style="fill: #00008b; stroke: #00008b"/>
     <use xlink:href="#m2606eab47e" x="41.158627" y="189.477019" style="fill: #00008b; stroke: #00008b"/>
     <use xlink:href="#m2606eab47e" x="41.66275" y="189.938015" style="fill: #00008b; stroke: #00008b"/>
     <use xlink:href="#m2606eab47e" x="42.166875" y="189.958301" style="fill: #00008b; stroke: #00008b"/>
     <use xlink:href="#m2606eab47e" x="42.671003" y="190.049344" style="fill: #00008b; stroke: #00008b"/>
     <use xlink:href="#m2606eab47e" x="43.175135" y="189.98645" style="fill: #00008b; stroke: #00008b"/>
     <use xlink:href="#m2606eab47e" x="43.679271" y="189.922761" style="fill: #00008b; stroke: #00008b"/>
     <use xlink:href="#m2606eab47e" x="44.183411" y="188.745222" style="fill: #00008b; stroke: #00008b"/>
     <use xlink:href="#m2606eab47e" x="46.49631" y="186.506955" style="fill: #00008b; stroke: #00008b"/>
     <use xlink:href="#m2606eab47e" x="48.306956" y="184.769136" style="fill: #00008b; stroke: #00008b"/>
     <use xlink:href="#m2606eab47e" x="50.117879" y="182.00928" style="fill: #00008b; stroke: #00008b"/>
     <use xlink:href="#m2606eab47e" x="51.928957" y="180.526042" style="fill: #00008b; stroke: #00008b"/>
     <use xlink:href="#m2606eab47e" x="53.740134" y="179.67277" style="fill: #00008b; stroke: #00008b"/>
     <use xlink:href="#m2606eab47e" x="55.551369" y="179.764818" style="fill: #00008b; stroke: #00008b"/>
     <use xlink:href="#m2606eab47e" x="57.36264" y="180.631583" style="fill: #00008b; stroke: #00008b"/>
     <use xlink:href="#m2606eab47e" x="59.173936" y="182.260521" style="fill: #00008b; stroke: #00008b"/>
     <use xlink:href="#m2606eab47e" x="60.985251" y="184.596969" style="fill: #00008b; stroke: #00008b"/>
     <use xlink:href="#m2606eab47e" x="62.796575" y="187.619266" style="fill: #00008b; stroke: #00008b"/>
     <use xlink:href="#m2606eab47e" x="64.607909" y="191.366446" style="fill: #00008b; stroke: #00008b"/>
     <use xlink:href="#m2606eab47e" x="66.419249" y="195.913934" style="fill: #00008b; stroke: #00008b"/>
     <use xlink:href="#m2606eab47e" x="68.230592" y="201.56502" style="fill: #00008b; stroke: #00008b"/>
     <use xlink:href="#m2606eab47e" x="70.04194" y="209.724297" style="fill: #00008b; stroke: #00008b"/>
     <use xlink:href="#m2606eab47e" x="95.400898" y="216.252067" style="fill: #00008b; stroke: #00008b"/>
     <use xlink:href="#m2606eab47e" x="97.212251" y="205.079106" style="fill: #00008b; stroke: #00008b"/>
     <use xlink:href="#m2606eab47e" x="99.023602" y="199.227459" style="fill: #00008b; stroke: #00008b"/>
     <use xlink:href="#m2606eab47e" x="100.834952" y="194.649129" style="fill: #00008b; stroke: #00008b"/>
     <use xlink:href="#m2606eab47e" x="102.646301" y="190.896896" style="fill: #00008b; stroke: #00008b"/>
     <use xlink:href="#m2606eab47e" x="104.457649" y="187.736598" style="fill: #00008b; stroke: #00008b"/>
     <use xlink:href="#m2606eab47e" x="106.268995" y="185.086393" style="fill: #00008b; stroke: #00008b"/>
     <use xlink:href="#m2606eab47e" x="108.080339" y="182.908599" style="fill: #00008b; stroke: #00008b"/>
     <use xlink:href="#m2606eab47e" x="109.891682" y="181.218941" style="fill: #00008b; stroke: #00008b"/>
     <use xlink:href="#m2606eab47e" x="111.703021" y="179.947197" style="fill: #00008b; stroke: #00008b"/>
     <use xlink:href="#m2606eab47e" x="113.51436" y="179.100559" style="fill: #00008b; stroke: #00008b"/>
     <use xlink:href="#m2606eab47e" x="115.325695" y="178.645302" style="fill: #00008b; stroke: #00008b"/>
     <use xlink:href="#m2606eab47e" x="117.137028" y="178.588783" style="fill: #00008b; stroke: #00008b"/>
     <use xlink:href="#m2606eab47e" x="118.948357" y="178.896318" style="fill: #00008b; stroke: #00008b"/>
     <use xlink:href="#m2606eab47e" x="120.759683" y="179.51872" style="fill: #00008b; stroke: #00008b"/>
     <use xlink:href="#m2606eab47e" x="122.571006" y="180.42197" style="fill: #00008b; stroke: #00008b"/>
     <use xlink:href="#m2606eab47e" x="124.382324" y="181.541907" style="fill: #00008b; stroke: #00008b"/>
     <use xlink:href="#m2606eab47e" x="126.193639" y="182.847027" style="fill: #00008b; stroke: #00008b"/>
     <use xlink:href="#m2606eab47e" x="128.004949" y="184.224435" style="fill: #00008b; stroke: #00008b"/>
     <use xlink:href="#m2606eab47e" x="129.816255" y="185.610098" style="fill: #00008b; stroke: #00008b"/>
     <use xlink:href="#m2606eab47e" x="131.627555" y="186.935524" style="fill: #00008b; stroke: #00008b"/>
     <use xlink:href="#m2606eab47e" x="133.438849" y="188.06902" style="fill: #00008b; stroke: #00008b"/>
     <use xlink:href="#m2606eab47e" x="135.250138" y="189.056944" style="fill: #00008b; stroke: #00008b"/>
     <use xlink:href="#m2606eab47e" x="137.061423" y="189.683745" style="fill: #00008b; stroke: #00008b"/>
     <use xlink:href="#m2606eab47e" x="138.872702" y="189.739556" style="fill: #00008b; stroke: #00008b"/>
     <use xlink:href="#m2606eab47e" x="140.683978" y="189.21286" style="fill: #00008b; stroke: #00008b"/>
     <use xlink:href="#m2606eab47e" x="142.495248" y="188.317233" style="fill: #00008b; stroke: #00008b"/>
     <use xlink:href="#m2606eab47e" x="144.306516" y="186.220505" style="fill: #00008b; stroke: #00008b"/>
     <use xlink:href="#m2606eab47e" x="146.11778" y="182.659832" style="fill: #00008b; stroke: #00008b"/>
     <use xlink:href="#m2606eab47e" x="147.929043" y="175.791456" style="fill: #00008b; stroke: #00008b"/>
     <use xlink:href="#m2606eab47e" x="149.740303" y="178.661376" style="fill: #00008b; stroke: #00008b"/>
     <use xlink:href="#m2606eab47e" x="151.551569" y="193.740609" style="fill: #00008b; stroke: #00008b"/>
     <use xlink:href="#m2606eab47e" x="153.362833" y="176.573357" style="fill: #00008b; stroke: #00008b"/>
     <use xlink:href="#m2606eab47e" x="155.174103" y="164.527772" style="fill: #00008b; stroke: #00008b"/>
     <use xlink:href="#m2606eab47e" x="156.985376" y="72.859723" style="fill: #00008b; stroke: #00008b"/>
     <use xlink:href="#m2606eab47e" x="158.796654" y="18.922373" style="fill: #00008b; stroke: #00008b"/>
     <use xlink:href="#m2606eab47e" x="160.60794" y="17.28" style="fill: #00008b; stroke: #00008b"/>
     <use xlink:href="#m2606eab47e" x="162.419232" y="35.348704" style="fill: #00008b; stroke: #00008b"/>
     <use xlink:href="#m2606eab47e" x="164.230532" y="55.232502" style="fill: #00008b; stroke: #00008b"/>
     <use xlink:href="#m2606eab47e" x="166.04184" y="75.85431" style="fill: #00008b; stroke: #00008b"/>
     <use xlink:href="#m2606eab47e" x="167.853155" y="97.552165" style="fill: #00008b; stroke: #00008b"/>
     <use xlink:href="#m2606eab47e" x="169.664477" y="121.250997" style="fill: #00008b; stroke: #00008b"/>
     <use xlink:href="#m2606eab47e" x="171.475808" y="149.922434" style="fill: #00008b; stroke: #00008b"/>
     <use xlink:href="#m2606eab47e" x="173.287142" y="199.043188" style="fill: #00008b; stroke: #00008b"/>
     <use xlink:href="#m2606eab47e" x="373.073816" y="134.523911" style="fill: #00008b; stroke: #00008b"/>
     <use xlink:href="#m2606eab47e" x="373.54273" y="63.572295" style="fill: #00008b; stroke: #00008b"/>
     <use xlink:href="#m2606eab47e" x="374.011825" y="46.555186" style="fill: #00008b; stroke: #00008b"/>
     <use xlink:href="#m2606eab47e" x="374.481058" y="100.342529" style="fill: #00008b; stroke: #00008b"/>
     <use xlink:href="#m2606eab47e" x="374.950386" y="161.785597" style="fill: #00008b; stroke: #00008b"/>
    </g>
   </g>
   <g id="line2d_15">
    <path d="M 40.150386 186.864634 
L 40.654475 183.766994 
L 41.158571 181.822294 
L 41.662678 177.666657 
L 42.166798 170.894425 
L 42.670927 158.831471 
L 43.175065 132.278697 
L 43.679211 99.640034 
L 44.183364 86.068 
L 46.496856 130.999249 
L 48.307815 175.68584 
M 345.382278 218.88 
L 347.193715 196.974748 
L 349.005153 187.812675 
L 350.81659 180.772098 
L 352.628027 174.719835 
L 354.439464 169.718099 
L 356.250902 165.484304 
L 358.062339 161.890861 
L 359.873776 159.005348 
L 361.685214 156.720349 
L 363.496651 155.514312 
L 365.308088 154.682399 
L 367.119525 154.300811 
L 368.930963 152.116515 
L 371.194214 133.987434 
L 371.663605 148.549541 
L 372.602268 164.22936 
L 373.07172 170.257246 
L 373.541282 173.514525 
L 374.01093 173.869248 
L 374.480636 169.855544 
L 374.950386 168.39236 
L 374.950386 168.39236 
" clip-path="url(#p2f764f3a0e)" style="fill: none; stroke: #add8e6; stroke-width: 1.5; stroke-linecap: square"/>
    <defs>
     <path id="m5a9015b05a" d="M 0 0.25 
C 0.066301 0.25 0.129895 0.223658 0.176777 0.176777 
C 0.223658 0.129895 0.25 0.066301 0.25 0 
C 0.25 -0.066301 0.223658 -0.129895 0.176777 -0.176777 
C 0.129895 -0.223658 0.066301 -0.25 0 -0.25 
C -0.066301 -0.25 -0.129895 -0.223658 -0.176777 -0.176777 
C -0.223658 -0.129895 -0.25 -0.066301 -0.25 0 
C -0.25 0.066301 -0.223658 0.129895 -0.176777 0.176777 
C -0.129895 0.223658 -0.066301 0.25 0 0.25 
z
" style="stroke: #add8e6"/>
    </defs>
    <g clip-path="url(#p2f764f3a0e)">
     <use xlink:href="#m5a9015b05a" x="40.150386" y="186.864634" style="fill: #add8e6; stroke: #add8e6"/>
     <use xlink:href="#m5a9015b05a" x="40.654475" y="183.766994" style="fill: #add8e6; stroke: #add8e6"/>
     <use xlink:href="#m5a9015b05a" x="41.158571" y="181.822294" style="fill: #add8e6; stroke: #add8e6"/>
     <use xlink:href="#m5a9015b05a" x="41.662678" y="177.666657" style="fill: #add8e6; stroke: #add8e6"/>
     <use xlink:href="#m5a9015b05a" x="42.166798" y="170.894425" style="fill: #add8e6; stroke: #add8e6"/>
     <use xlink:href="#m5a9015b05a" x="42.670927" y="158.831471" style="fill: #add8e6; stroke: #add8e6"/>
     <use xlink:href="#m5a9015b05a" x="43.175065" y="132.278697" style="fill: #add8e6; stroke: #add8e6"/>
     <use xlink:href="#m5a9015b05a" x="43.679211" y="99.640034" style="fill: #add8e6; stroke: #add8e6"/>
     <use xlink:href="#m5a9015b05a" x="44.183364" y="86.068" style="fill: #add8e6; stroke: #add8e6"/>
     <use xlink:href="#m5a9015b05a" x="46.496856" y="130.999249" style="fill: #add8e6; stroke: #add8e6"/>
     <use xlink:href="#m5a9015b05a" x="48.307815" y="175.68584" style="fill: #add8e6; stroke: #add8e6"/>
     <use xlink:href="#m5a9015b05a" x="345.382278" y="218.88" style="fill: #add8e6; stroke: #add8e6"/>
     <use xlink:href="#m5a9015b05a" x="347.193715" y="196.974748" style="fill: #add8e6; stroke: #add8e6"/>
     <use xlink:href="#m5a9015b05a" x="349.005153" y="187.812675" style="fill: #add8e6; stroke: #add8e6"/>
     <use xlink:href="#m5a9015b05a" x="350.81659" y="180.772098" style="fill: #add8e6; stroke: #add8e6"/>
     <use xlink:href="#m5a9015b05a" x="352.628027" y="174.719835" style="fill: #add8e6; stroke: #add8e6"/>
     <use xlink:href="#m5a9015b05a" x="354.439464" y="169.718099" style="fill: #add8e6; stroke: #add8e6"/>
     <use xlink:href="#m5a9015b05a" x="356.250902" y="165.484304" style="fill: #add8e6; stroke: #add8e6"/>
     <use xlink:href="#m5a9015b05a" x="358.062339" y="161.890861" style="fill: #add8e6; stroke: #add8e6"/>
     <use xlink:href="#m5a9015b05a" x="359.873776" y="159.005348" style="fill: #add8e6; stroke: #add8e6"/>
     <use xlink:href="#m5a9015b05a" x="361.685214" y="156.720349" style="fill: #add8e6; stroke: #add8e6"/>
     <use xlink:href="#m5a9015b05a" x="363.496651" y="155.514312" style="fill: #add8e6; stroke: #add8e6"/>
     <use xlink:href="#m5a9015b05a" x="365.308088" y="154.682399" style="fill: #add8e6; stroke: #add8e6"/>
     <use xlink:href="#m5a9015b05a" x="367.119525" y="154.300811" style="fill: #add8e6; stroke: #add8e6"/>
     <use xlink:href="#m5a9015b05a" x="368.930963" y="152.116515" style="fill: #add8e6; stroke: #add8e6"/>
     <use xlink:href="#m5a9015b05a" x="371.194214" y="133.987434" style="fill: #add8e6; stroke: #add8e6"/>
     <use xlink:href="#m5a9015b05a" x="371.663605" y="148.549541" style="fill: #add8e6; stroke: #add8e6"/>
     <use xlink:href="#m5a9015b05a" x="372.132916" y="157.142344" style="fill: #add8e6; stroke: #add8e6"/>
     <use xlink:href="#m5a9015b05a" x="372.602268" y="164.22936" style="fill: #add8e6; stroke: #add8e6"/>
     <use xlink:href="#m5a9015b05a" x="373.07172" y="170.257246" style="fill: #add8e6; stroke: #add8e6"/>
     <use xlink:href="#m5a9015b05a" x="373.541282" y="173.514525" style="fill: #add8e6; stroke: #add8e6"/>
     <use xlink:href="#m5a9015b05a" x="374.01093" y="173.869248" style="fill: #add8e6; stroke: #add8e6"/>
     <use xlink:href="#m5a9015b05a" x="374.480636" y="169.855544" style="fill: #add8e6; stroke: #add8e6"/>
     <use xlink:href="#m5a9015b05a" x="374.950386" y="168.39236" style="fill: #add8e6; stroke: #add8e6"/>
    </g>
   </g>
   <g id="patch_3">
    <path d="M 40.150386 228.96 
L 40.150386 7.2 
" style="fill: none; stroke: #000000; stroke-width: 0.8; stroke-linejoin: miter; stroke-linecap: square"/>
   </g>
   <g id="patch_4">
    <path d="M 374.950386 228.96 
L 374.950386 7.2 
" style="fill: none; stroke: #000000; stroke-width: 0.8; stroke-linejoin: miter; stroke-linecap: square"/>
   </g>
   <g id="patch_5">
    <path d="M 40.150386 228.96 
L 374.950386 228.96 
" style="fill: none; stroke: #000000; stroke-width: 0.8; stroke-linejoin: miter; stroke-linecap: square"/>
   </g>
   <g id="patch_6">
    <path d="M 40.150386 7.2 
L 374.950386 7.2 
" style="fill: none; stroke: #000000; stroke-width: 0.8; stroke-linejoin: miter; stroke-linecap: square"/>
   </g>
   <g id="legend_1">
    <g id="patch_7">
     <path d="M 45.150386 58.229654 
L 130.973042 58.229654 
L 130.973042 12.2 
L 45.150386 12.2 
z
" style="fill: #ffffff; opacity: 0.8; stroke: #000000; stroke-linejoin: miter"/>
    </g>
    <g id="line2d_16">
     <path d="M 49.150386 19.982687 
L 59.150386 19.982687 
L 69.150386 19.982687 
" style="fill: none; stroke: #00008b; stroke-width: 1.5; stroke-linecap: square"/>
     <g>
      <use xlink:href="#m2606eab47e" x="59.150386" y="19.982687" style="fill: #00008b; stroke: #00008b"/>
     </g>
    </g>
    <g id="text_16">
     <!-- SU2 (SS) -->
     <g transform="translate(77.150386 23.482687) scale(0.1 -0.1)">
      <defs>
       <path id="NimbusSanL-Regu-55" d="M 3533 4672 
L 3533 1404 
C 3533 779 3078 396 2330 396 
C 1984 396 1702 479 1478 639 
C 1248 817 1139 1053 1139 1404 
L 1139 4672 
L 544 4672 
L 544 1404 
C 544 460 1222 -128 2330 -128 
C 3424 -128 4128 473 4128 1404 
L 4128 4672 
L 3533 4672 
z
" transform="scale(0.015625)"/>
       <path id="NimbusSanL-Regu-32" d="M 3238 556 
L 851 556 
C 909 928 1114 1165 1670 1493 
L 2310 1839 
C 2944 2185 3270 2653 3270 3211 
C 3270 3589 3117 3942 2848 4185 
C 2579 4428 2246 4544 1818 4544 
C 1242 4544 813 4339 563 3955 
C 403 3711 333 3429 320 2967 
L 883 2967 
C 902 3275 941 3461 1018 3608 
C 1165 3884 1459 4051 1798 4051 
C 2310 4051 2694 3685 2694 3198 
C 2694 2839 2483 2531 2080 2300 
L 1491 1967 
C 544 1428 269 999 218 0 
L 3238 0 
L 3238 556 
z
" transform="scale(0.015625)"/>
       <path id="NimbusSanL-Regu-28" d="M 1510 4672 
C 870 3833 467 2668 467 1663 
C 467 652 870 -513 1510 -1351 
L 1862 -1351 
C 1299 -436 986 639 986 1663 
C 986 2681 1299 3763 1862 4672 
L 1510 4672 
z
" transform="scale(0.015625)"/>
       <path id="NimbusSanL-Regu-29" d="M 595 -1351 
C 1235 -513 1638 652 1638 1657 
C 1638 2668 1235 3833 595 4672 
L 243 4672 
C 806 3756 1120 2681 1120 1657 
C 1120 639 806 -442 243 -1351 
L 595 -1351 
z
" transform="scale(0.015625)"/>
      </defs>
      <use xlink:href="#NimbusSanL-Regu-53" transform="scale(0.996264)"/>
      <use xlink:href="#NimbusSanL-Regu-55" transform="translate(66.450031 0) scale(0.996264)"/>
      <use xlink:href="#NimbusSanL-Regu-32" transform="translate(138.380016 0) scale(0.996264)"/>
      <use xlink:href="#NimbusSanL-Regu-28" transform="translate(221.466863 0) scale(0.996264)"/>
      <use xlink:href="#NimbusSanL-Regu-53" transform="translate(254.642092 0) scale(0.996264)"/>
      <use xlink:href="#NimbusSanL-Regu-53" transform="translate(321.092123 0) scale(0.996264)"/>
      <use xlink:href="#NimbusSanL-Regu-29" transform="translate(387.542155 0) scale(0.996264)"/>
     </g>
    </g>
    <g id="line2d_17">
     <path d="M 49.150386 34.387361 
L 59.150386 34.387361 
L 69.150386 34.387361 
" style="fill: none; stroke: #add8e6; stroke-width: 1.5; stroke-linecap: square"/>
     <g>
      <use xlink:href="#m5a9015b05a" x="59.150386" y="34.387361" style="fill: #add8e6; stroke: #add8e6"/>
     </g>
    </g>
    <g id="text_17">
     <!-- SU2 (PS) -->
     <g transform="translate(77.150386 37.887361) scale(0.1 -0.1)">
      <defs>
       <path id="NimbusSanL-Regu-50" d="M 1178 1984 
L 2643 1984 
C 3008 1984 3296 2092 3546 2316 
C 3827 2572 3949 2873 3949 3302 
C 3949 4179 3430 4672 2509 4672 
L 582 4672 
L 582 0 
L 1178 0 
L 1178 1984 
z
M 1178 2508 
L 1178 4147 
L 2419 4147 
C 2989 4147 3328 3839 3328 3327 
C 3328 2816 2989 2508 2419 2508 
L 1178 2508 
z
" transform="scale(0.015625)"/>
      </defs>
      <use xlink:href="#NimbusSanL-Regu-53" transform="scale(0.996264)"/>
      <use xlink:href="#NimbusSanL-Regu-55" transform="translate(66.450031 0) scale(0.996264)"/>
      <use xlink:href="#NimbusSanL-Regu-32" transform="translate(138.380016 0) scale(0.996264)"/>
      <use xlink:href="#NimbusSanL-Regu-28" transform="translate(221.466863 0) scale(0.996264)"/>
      <use xlink:href="#NimbusSanL-Regu-50" transform="translate(254.642092 0) scale(0.996264)"/>
      <use xlink:href="#NimbusSanL-Regu-53" transform="translate(321.092123 0) scale(0.996264)"/>
      <use xlink:href="#NimbusSanL-Regu-29" transform="translate(387.542155 0) scale(0.996264)"/>
     </g>
    </g>
    <g id="PathCollection_2">
     <g>
      <use xlink:href="#m71524621d6" x="59.150386" y="49.482668" style="fill: #ff0000; stroke: #ff0000"/>
     </g>
    </g>
    <g id="text_18">
     <!-- Mises Data -->
     <g transform="translate(77.150386 52.107668) scale(0.1 -0.1)">
      <defs>
       <path id="NimbusSanL-Regu-69" d="M 960 3358 
L 429 3358 
L 429 0 
L 960 0 
L 960 3358 
z
M 960 4672 
L 422 4672 
L 422 3999 
L 960 3999 
L 960 4672 
z
" transform="scale(0.015625)"/>
       <path id="NimbusSanL-Regu-73" d="M 2803 2428 
C 2797 3084 2362 3456 1587 3456 
C 806 3456 301 3052 301 2434 
C 301 1912 570 1663 1363 1472 
L 1862 1351 
C 2234 1262 2381 1129 2381 887 
C 2381 574 2067 364 1600 364 
C 1312 364 1069 447 934 587 
C 851 683 813 778 781 1014 
L 218 1014 
C 243 243 678 -128 1555 -128 
C 2400 -128 2938 288 2938 931 
C 2938 1428 2656 1702 1990 1861 
L 1478 1982 
C 1043 2084 858 2224 858 2459 
C 858 2765 1133 2963 1568 2963 
C 1997 2963 2227 2778 2240 2428 
L 2803 2428 
z
" transform="scale(0.015625)"/>
       <path id="NimbusSanL-Regu-44" d="M 570 0 
L 2368 0 
C 3546 0 4269 883 4269 2339 
C 4269 3788 3552 4672 2368 4672 
L 570 4672 
L 570 0 
z
M 1165 524 
L 1165 4147 
L 2266 4147 
C 3187 4147 3674 3525 3674 2332 
C 3674 1153 3187 524 2266 524 
L 1165 524 
z
" transform="scale(0.015625)"/>
      </defs>
      <use xlink:href="#NimbusSanL-Regu-4d" transform="scale(0.996264)"/>
      <use xlink:href="#NimbusSanL-Regu-69" transform="translate(82.98843 0) scale(0.996264)"/>
      <use xlink:href="#NimbusSanL-Regu-73" transform="translate(105.105215 0) scale(0.996264)"/>
      <use xlink:href="#NimbusSanL-Regu-65" transform="translate(154.918415 0) scale(0.996264)"/>
      <use xlink:href="#NimbusSanL-Regu-73" transform="translate(210.310092 0) scale(0.996264)"/>
      <use xlink:href="#NimbusSanL-Regu-44" transform="translate(287.818462 0) scale(0.996264)"/>
      <use xlink:href="#NimbusSanL-Regu-61" transform="translate(359.748447 0) scale(0.996264)"/>
      <use xlink:href="#NimbusSanL-Regu-74" transform="translate(415.140124 0) scale(0.996264)"/>
      <use xlink:href="#NimbusSanL-Regu-61" transform="translate(442.835294 0) scale(0.996264)"/>
     </g>
    </g>
   </g>
  </g>
 </g>
 <defs>
  <clipPath id="p2f764f3a0e">
   <rect x="40.150386" y="7.2" width="334.8" height="221.76"/>
  </clipPath>
 </defs>
</svg>
