<?xml version="1.0" encoding="utf-8" standalone="no"?>
<!DOCTYPE svg PUBLIC "-//W3C//DTD SVG 1.1//EN"
  "http://www.w3.org/Graphics/SVG/1.1/DTD/svg11.dtd">
<svg xmlns:xlink="http://www.w3.org/1999/xlink" width="383.441716pt" height="265.600613pt" viewBox="0 0 383.441716 265.600613" xmlns="http://www.w3.org/2000/svg" version="1.1">
 <metadata>
  <rdf:RDF xmlns:dc="http://purl.org/dc/elements/1.1/" xmlns:cc="http://creativecommons.org/ns#" xmlns:rdf="http://www.w3.org/1999/02/22-rdf-syntax-ns#">
   <cc:Work>
    <dc:type rdf:resource="http://purl.org/dc/dcmitype/StillImage"/>
    <dc:date>2025-07-17T20:53:33.852962</dc:date>
    <dc:format>image/svg+xml</dc:format>
    <dc:creator>
     <cc:Agent>
      <dc:title>Matplotlib v3.10.3, https://matplotlib.org/</dc:title>
     </cc:Agent>
    </dc:creator>
   </cc:Work>
  </rdf:RDF>
 </metadata>
 <defs>
  <style type="text/css">*{stroke-linejoin: round; stroke-linecap: butt}</style>
 </defs>
 <g id="figure_1">
  <g id="patch_1">
   <path d="M 0 265.600613 
L 383.441716 265.600613 
L 383.441716 0 
L 0 0 
z
" style="fill: #ffffff"/>
  </g>
  <g id="axes_1">
   <g id="patch_2">
    <path d="M 32.586009 228.96 
L 367.386009 228.96 
L 367.386009 7.2 
L 32.586009 7.2 
z
" style="fill: #ffffff"/>
   </g>
   <g id="PathCollection_1">
    <defs>
     <path id="mf8fc2354b7" d="M 0 0.353553 
C 0.093763 0.353553 0.183699 0.316301 0.25 0.25 
C 0.316301 0.183699 0.353553 0.093763 0.353553 0 
C 0.353553 -0.093763 0.316301 -0.183699 0.25 -0.25 
C 0.183699 -0.316301 0.093763 -0.353553 0 -0.353553 
C -0.093763 -0.353553 -0.183699 -0.316301 -0.25 -0.25 
C -0.316301 -0.183699 -0.353553 -0.093763 -0.353553 0 
C -0.353553 0.093763 -0.316301 0.183699 -0.25 0.25 
C -0.183699 0.316301 -0.093763 0.353553 0 0.353553 
z
" style="stroke: #ff0000"/>
    </defs>
    <g clip-path="url(#p7d833468bf)">
     <use xlink:href="#mf8fc2354b7" x="199.986009" y="193.623199" style="fill: #ff0000; stroke: #ff0000"/>
     <use xlink:href="#mf8fc2354b7" x="199.395023" y="193.623199" style="fill: #ff0000; stroke: #ff0000"/>
     <use xlink:href="#mf8fc2354b7" x="198.732686" y="193.802252" style="fill: #ff0000; stroke: #ff0000"/>
     <use xlink:href="#mf8fc2354b7" x="197.966371" y="195.59541" style="fill: #ff0000; stroke: #ff0000"/>
     <use xlink:href="#mf8fc2354b7" x="197.101189" y="168.437364" style="fill: #ff0000; stroke: #ff0000"/>
     <use xlink:href="#mf8fc2354b7" x="196.146303" y="187.696036" style="fill: #ff0000; stroke: #ff0000"/>
     <use xlink:href="#mf8fc2354b7" x="195.097819" y="178.011405" style="fill: #ff0000; stroke: #ff0000"/>
     <use xlink:href="#mf8fc2354b7" x="193.939813" y="189.794636" style="fill: #ff0000; stroke: #ff0000"/>
     <use xlink:href="#mf8fc2354b7" x="192.645934" y="182.774727" style="fill: #ff0000; stroke: #ff0000"/>
     <use xlink:href="#mf8fc2354b7" x="191.175169" y="192.01436" style="fill: #ff0000; stroke: #ff0000"/>
     <use xlink:href="#mf8fc2354b7" x="189.461187" y="193.710092" style="fill: #ff0000; stroke: #ff0000"/>
     <use xlink:href="#mf8fc2354b7" x="187.406951" y="198.52871" style="fill: #ff0000; stroke: #ff0000"/>
     <use xlink:href="#mf8fc2354b7" x="185.009139" y="201.530472" style="fill: #ff0000; stroke: #ff0000"/>
     <use xlink:href="#mf8fc2354b7" x="182.611328" y="203.95558" style="fill: #ff0000; stroke: #ff0000"/>
     <use xlink:href="#mf8fc2354b7" x="180.379634" y="205.677643" style="fill: #ff0000; stroke: #ff0000"/>
     <use xlink:href="#mf8fc2354b7" x="178.283124" y="206.978406" style="fill: #ff0000; stroke: #ff0000"/>
     <use xlink:href="#mf8fc2354b7" x="176.278265" y="208.094851" style="fill: #ff0000; stroke: #ff0000"/>
     <use xlink:href="#mf8fc2354b7" x="174.33527" y="208.99538" style="fill: #ff0000; stroke: #ff0000"/>
     <use xlink:href="#mf8fc2354b7" x="172.433518" y="209.732655" style="fill: #ff0000; stroke: #ff0000"/>
     <use xlink:href="#mf8fc2354b7" x="170.563844" y="210.364604" style="fill: #ff0000; stroke: #ff0000"/>
     <use xlink:href="#mf8fc2354b7" x="168.717082" y="210.914927" style="fill: #ff0000; stroke: #ff0000"/>
     <use xlink:href="#mf8fc2354b7" x="166.889796" y="211.407322" style="fill: #ff0000; stroke: #ff0000"/>
     <use xlink:href="#mf8fc2354b7" x="165.075113" y="211.849687" style="fill: #ff0000; stroke: #ff0000"/>
     <use xlink:href="#mf8fc2354b7" x="163.270739" y="212.249921" style="fill: #ff0000; stroke: #ff0000"/>
     <use xlink:href="#mf8fc2354b7" x="161.47324" y="212.615926" style="fill: #ff0000; stroke: #ff0000"/>
     <use xlink:href="#mf8fc2354b7" x="159.680323" y="212.952966" style="fill: #ff0000; stroke: #ff0000"/>
     <use xlink:href="#mf8fc2354b7" x="157.888552" y="213.255775" style="fill: #ff0000; stroke: #ff0000"/>
     <use xlink:href="#mf8fc2354b7" x="156.09449" y="213.532253" style="fill: #ff0000; stroke: #ff0000"/>
     <use xlink:href="#mf8fc2354b7" x="154.299282" y="213.763968" style="fill: #ff0000; stroke: #ff0000"/>
     <use xlink:href="#mf8fc2354b7" x="152.499491" y="213.94302" style="fill: #ff0000; stroke: #ff0000"/>
     <use xlink:href="#mf8fc2354b7" x="150.692827" y="214.079943" style="fill: #ff0000; stroke: #ff0000"/>
     <use xlink:href="#mf8fc2354b7" x="148.88158" y="214.185268" style="fill: #ff0000; stroke: #ff0000"/>
     <use xlink:href="#mf8fc2354b7" x="147.061168" y="214.269528" style="fill: #ff0000; stroke: #ff0000"/>
     <use xlink:href="#mf8fc2354b7" x="145.233882" y="214.335356" style="fill: #ff0000; stroke: #ff0000"/>
     <use xlink:href="#mf8fc2354b7" x="143.398577" y="214.385385" style="fill: #ff0000; stroke: #ff0000"/>
     <use xlink:href="#mf8fc2354b7" x="141.554107" y="214.427515" style="fill: #ff0000; stroke: #ff0000"/>
     <use xlink:href="#mf8fc2354b7" x="139.701617" y="214.459113" style="fill: #ff0000; stroke: #ff0000"/>
     <use xlink:href="#mf8fc2354b7" x="137.838816" y="214.482811" style="fill: #ff0000; stroke: #ff0000"/>
     <use xlink:href="#mf8fc2354b7" x="135.969142" y="214.501243" style="fill: #ff0000; stroke: #ff0000"/>
     <use xlink:href="#mf8fc2354b7" x="134.090303" y="214.514408" style="fill: #ff0000; stroke: #ff0000"/>
     <use xlink:href="#mf8fc2354b7" x="132.202298" y="214.527574" style="fill: #ff0000; stroke: #ff0000"/>
     <use xlink:href="#mf8fc2354b7" x="130.306275" y="214.535473" style="fill: #ff0000; stroke: #ff0000"/>
     <use xlink:href="#mf8fc2354b7" x="128.402231" y="214.54074" style="fill: #ff0000; stroke: #ff0000"/>
     <use xlink:href="#mf8fc2354b7" x="126.490169" y="214.543373" style="fill: #ff0000; stroke: #ff0000"/>
     <use xlink:href="#mf8fc2354b7" x="124.570087" y="214.551272" style="fill: #ff0000; stroke: #ff0000"/>
     <use xlink:href="#mf8fc2354b7" x="122.640839" y="214.556538" style="fill: #ff0000; stroke: #ff0000"/>
     <use xlink:href="#mf8fc2354b7" x="120.703573" y="214.561805" style="fill: #ff0000; stroke: #ff0000"/>
     <use xlink:href="#mf8fc2354b7" x="118.757141" y="214.564438" style="fill: #ff0000; stroke: #ff0000"/>
     <use xlink:href="#mf8fc2354b7" x="116.803836" y="214.564438" style="fill: #ff0000; stroke: #ff0000"/>
     <use xlink:href="#mf8fc2354b7" x="114.841365" y="214.561805" style="fill: #ff0000; stroke: #ff0000"/>
     <use xlink:href="#mf8fc2354b7" x="112.868584" y="214.561805" style="fill: #ff0000; stroke: #ff0000"/>
     <use xlink:href="#mf8fc2354b7" x="110.886637" y="214.556538" style="fill: #ff0000; stroke: #ff0000"/>
     <use xlink:href="#mf8fc2354b7" x="108.89438" y="214.553905" style="fill: #ff0000; stroke: #ff0000"/>
     <use xlink:href="#mf8fc2354b7" x="106.892958" y="214.551272" style="fill: #ff0000; stroke: #ff0000"/>
     <use xlink:href="#mf8fc2354b7" x="104.878934" y="214.546006" style="fill: #ff0000; stroke: #ff0000"/>
     <use xlink:href="#mf8fc2354b7" x="102.854599" y="214.54074" style="fill: #ff0000; stroke: #ff0000"/>
     <use xlink:href="#mf8fc2354b7" x="100.817663" y="214.538107" style="fill: #ff0000; stroke: #ff0000"/>
     <use xlink:href="#mf8fc2354b7" x="98.768124" y="214.535473" style="fill: #ff0000; stroke: #ff0000"/>
     <use xlink:href="#mf8fc2354b7" x="96.704837" y="214.530207" style="fill: #ff0000; stroke: #ff0000"/>
     <use xlink:href="#mf8fc2354b7" x="94.627804" y="214.527574" style="fill: #ff0000; stroke: #ff0000"/>
     <use xlink:href="#mf8fc2354b7" x="92.535876" y="214.527574" style="fill: #ff0000; stroke: #ff0000"/>
     <use xlink:href="#mf8fc2354b7" x="90.42791" y="214.524941" style="fill: #ff0000; stroke: #ff0000"/>
     <use xlink:href="#mf8fc2354b7" x="88.303905" y="214.524941" style="fill: #ff0000; stroke: #ff0000"/>
     <use xlink:href="#mf8fc2354b7" x="86.163862" y="214.524941" style="fill: #ff0000; stroke: #ff0000"/>
     <use xlink:href="#mf8fc2354b7" x="84.002051" y="214.527574" style="fill: #ff0000; stroke: #ff0000"/>
     <use xlink:href="#mf8fc2354b7" x="81.825347" y="214.530207" style="fill: #ff0000; stroke: #ff0000"/>
     <use xlink:href="#mf8fc2354b7" x="79.637186" y="214.535473" style="fill: #ff0000; stroke: #ff0000"/>
     <use xlink:href="#mf8fc2354b7" x="77.414657" y="214.538107" style="fill: #ff0000; stroke: #ff0000"/>
     <use xlink:href="#mf8fc2354b7" x="75.180671" y="214.546006" style="fill: #ff0000; stroke: #ff0000"/>
     <use xlink:href="#mf8fc2354b7" x="72.923773" y="214.551272" style="fill: #ff0000; stroke: #ff0000"/>
     <use xlink:href="#mf8fc2354b7" x="70.643961" y="214.559172" style="fill: #ff0000; stroke: #ff0000"/>
     <use xlink:href="#mf8fc2354b7" x="68.341238" y="214.567071" style="fill: #ff0000; stroke: #ff0000"/>
     <use xlink:href="#mf8fc2354b7" x="66.015601" y="214.572337" style="fill: #ff0000; stroke: #ff0000"/>
     <use xlink:href="#mf8fc2354b7" x="63.667052" y="214.577603" style="fill: #ff0000; stroke: #ff0000"/>
     <use xlink:href="#mf8fc2354b7" x="61.29559" y="214.58287" style="fill: #ff0000; stroke: #ff0000"/>
     <use xlink:href="#mf8fc2354b7" x="58.889759" y="214.58287" style="fill: #ff0000; stroke: #ff0000"/>
     <use xlink:href="#mf8fc2354b7" x="56.472472" y="214.58287" style="fill: #ff0000; stroke: #ff0000"/>
     <use xlink:href="#mf8fc2354b7" x="54.020816" y="214.577603" style="fill: #ff0000; stroke: #ff0000"/>
     <use xlink:href="#mf8fc2354b7" x="51.546247" y="214.569704" style="fill: #ff0000; stroke: #ff0000"/>
     <use xlink:href="#mf8fc2354b7" x="49.048766" y="214.553905" style="fill: #ff0000; stroke: #ff0000"/>
     <use xlink:href="#mf8fc2354b7" x="46.562741" y="214.535473" style="fill: #ff0000; stroke: #ff0000"/>
     <use xlink:href="#mf8fc2354b7" x="44.099628" y="214.506509" style="fill: #ff0000; stroke: #ff0000"/>
     <use xlink:href="#mf8fc2354b7" x="41.785448" y="214.480178" style="fill: #ff0000; stroke: #ff0000"/>
     <use xlink:href="#mf8fc2354b7" x="39.723307" y="214.445947" style="fill: #ff0000; stroke: #ff0000"/>
     <use xlink:href="#mf8fc2354b7" x="37.981944" y="214.44858" style="fill: #ff0000; stroke: #ff0000"/>
     <use xlink:href="#mf8fc2354b7" x="36.538445" y="214.416983" style="fill: #ff0000; stroke: #ff0000"/>
     <use xlink:href="#mf8fc2354b7" x="35.324074" y="214.488077" style="fill: #ff0000; stroke: #ff0000"/>
     <use xlink:href="#mf8fc2354b7" x="34.293003" y="214.438048" style="fill: #ff0000; stroke: #ff0000"/>
     <use xlink:href="#mf8fc2354b7" x="33.387953" y="214.843549" style="fill: #ff0000; stroke: #ff0000"/>
     <use xlink:href="#mf8fc2354b7" x="32.586009" y="214.883046" style="fill: #ff0000; stroke: #ff0000"/>
     <use xlink:href="#mf8fc2354b7" x="199.986009" y="193.6153" style="fill: #ff0000; stroke: #ff0000"/>
     <use xlink:href="#mf8fc2354b7" x="200.401084" y="193.6153" style="fill: #ff0000; stroke: #ff0000"/>
     <use xlink:href="#mf8fc2354b7" x="200.906278" y="194.810738" style="fill: #ff0000; stroke: #ff0000"/>
     <use xlink:href="#mf8fc2354b7" x="201.56316" y="195.706001" style="fill: #ff0000; stroke: #ff0000"/>
     <use xlink:href="#mf8fc2354b7" x="202.344845" y="194.368374" style="fill: #ff0000; stroke: #ff0000"/>
     <use xlink:href="#mf8fc2354b7" x="203.199861" y="193.983937" style="fill: #ff0000; stroke: #ff0000"/>
     <use xlink:href="#mf8fc2354b7" x="204.11324" y="193.070243" style="fill: #ff0000; stroke: #ff0000"/>
     <use xlink:href="#mf8fc2354b7" x="205.089417" y="192.833262" style="fill: #ff0000; stroke: #ff0000"/>
     <use xlink:href="#mf8fc2354b7" x="206.137973" y="192.354033" style="fill: #ff0000; stroke: #ff0000"/>
     <use xlink:href="#mf8fc2354b7" x="207.267462" y="192.119685" style="fill: #ff0000; stroke: #ff0000"/>
     <use xlink:href="#mf8fc2354b7" x="208.483109" y="192.003828" style="fill: #ff0000; stroke: #ff0000"/>
     <use xlink:href="#mf8fc2354b7" x="209.786579" y="191.964331" style="fill: #ff0000; stroke: #ff0000"/>
     <use xlink:href="#mf8fc2354b7" x="211.170822" y="192.14865" style="fill: #ff0000; stroke: #ff0000"/>
     <use xlink:href="#mf8fc2354b7" x="212.626336" y="192.698973" style="fill: #ff0000; stroke: #ff0000"/>
     <use xlink:href="#mf8fc2354b7" x="214.142035" y="203.960846" style="fill: #ff0000; stroke: #ff0000"/>
     <use xlink:href="#mf8fc2354b7" x="215.702081" y="209.371916" style="fill: #ff0000; stroke: #ff0000"/>
     <use xlink:href="#mf8fc2354b7" x="217.29697" y="210.446231" style="fill: #ff0000; stroke: #ff0000"/>
     <use xlink:href="#mf8fc2354b7" x="218.914824" y="211.307263" style="fill: #ff0000; stroke: #ff0000"/>
     <use xlink:href="#mf8fc2354b7" x="220.547724" y="212.160395" style="fill: #ff0000; stroke: #ff0000"/>
     <use xlink:href="#mf8fc2354b7" x="222.189336" y="212.85554" style="fill: #ff0000; stroke: #ff0000"/>
     <use xlink:href="#mf8fc2354b7" x="223.833323" y="213.258408" style="fill: #ff0000; stroke: #ff0000"/>
     <use xlink:href="#mf8fc2354b7" x="225.47731" y="213.503289" style="fill: #ff0000; stroke: #ff0000"/>
     <use xlink:href="#mf8fc2354b7" x="227.116545" y="213.753436" style="fill: #ff0000; stroke: #ff0000"/>
     <use xlink:href="#mf8fc2354b7" x="228.748654" y="213.940387" style="fill: #ff0000; stroke: #ff0000"/>
     <use xlink:href="#mf8fc2354b7" x="230.370467" y="214.095742" style="fill: #ff0000; stroke: #ff0000"/>
     <use xlink:href="#mf8fc2354b7" x="231.981194" y="214.232664" style="fill: #ff0000; stroke: #ff0000"/>
     <use xlink:href="#mf8fc2354b7" x="233.578459" y="214.351155" style="fill: #ff0000; stroke: #ff0000"/>
     <use xlink:href="#mf8fc2354b7" x="235.159886" y="214.45648" style="fill: #ff0000; stroke: #ff0000"/>
     <use xlink:href="#mf8fc2354b7" x="236.725475" y="214.548639" style="fill: #ff0000; stroke: #ff0000"/>
     <use xlink:href="#mf8fc2354b7" x="238.27285" y="214.622367" style="fill: #ff0000; stroke: #ff0000"/>
     <use xlink:href="#mf8fc2354b7" x="239.800427" y="214.680295" style="fill: #ff0000; stroke: #ff0000"/>
     <use xlink:href="#mf8fc2354b7" x="241.308999" y="214.719792" style="fill: #ff0000; stroke: #ff0000"/>
     <use xlink:href="#mf8fc2354b7" x="242.797773" y="214.740857" style="fill: #ff0000; stroke: #ff0000"/>
     <use xlink:href="#mf8fc2354b7" x="244.265166" y="214.74349" style="fill: #ff0000; stroke: #ff0000"/>
     <use xlink:href="#mf8fc2354b7" x="245.713553" y="214.725058" style="fill: #ff0000; stroke: #ff0000"/>
     <use xlink:href="#mf8fc2354b7" x="247.142143" y="214.688195" style="fill: #ff0000; stroke: #ff0000"/>
     <use xlink:href="#mf8fc2354b7" x="248.551727" y="214.630266" style="fill: #ff0000; stroke: #ff0000"/>
     <use xlink:href="#mf8fc2354b7" x="249.945474" y="214.556538" style="fill: #ff0000; stroke: #ff0000"/>
     <use xlink:href="#mf8fc2354b7" x="251.324966" y="214.464379" style="fill: #ff0000; stroke: #ff0000"/>
     <use xlink:href="#mf8fc2354b7" x="252.693371" y="214.359054" style="fill: #ff0000; stroke: #ff0000"/>
     <use xlink:href="#mf8fc2354b7" x="254.053065" y="214.243197" style="fill: #ff0000; stroke: #ff0000"/>
     <use xlink:href="#mf8fc2354b7" x="255.408008" y="214.11944" style="fill: #ff0000; stroke: #ff0000"/>
     <use xlink:href="#mf8fc2354b7" x="256.762159" y="213.995683" style="fill: #ff0000; stroke: #ff0000"/>
     <use xlink:href="#mf8fc2354b7" x="258.121062" y="213.871926" style="fill: #ff0000; stroke: #ff0000"/>
     <use xlink:href="#mf8fc2354b7" x="259.488675" y="213.758702" style="fill: #ff0000; stroke: #ff0000"/>
     <use xlink:href="#mf8fc2354b7" x="260.870543" y="213.65601" style="fill: #ff0000; stroke: #ff0000"/>
     <use xlink:href="#mf8fc2354b7" x="262.271416" y="213.569117" style="fill: #ff0000; stroke: #ff0000"/>
     <use xlink:href="#mf8fc2354b7" x="263.69763" y="213.498022" style="fill: #ff0000; stroke: #ff0000"/>
     <use xlink:href="#mf8fc2354b7" x="265.154729" y="213.450626" style="fill: #ff0000; stroke: #ff0000"/>
     <use xlink:href="#mf8fc2354b7" x="266.647462" y="213.421662" style="fill: #ff0000; stroke: #ff0000"/>
     <use xlink:href="#mf8fc2354b7" x="268.182959" y="213.419029" style="fill: #ff0000; stroke: #ff0000"/>
     <use xlink:href="#mf8fc2354b7" x="269.765177" y="213.432194" style="fill: #ff0000; stroke: #ff0000"/>
     <use xlink:href="#mf8fc2354b7" x="271.399662" y="213.463792" style="fill: #ff0000; stroke: #ff0000"/>
     <use xlink:href="#mf8fc2354b7" x="273.091955" y="213.511188" style="fill: #ff0000; stroke: #ff0000"/>
     <use xlink:href="#mf8fc2354b7" x="274.846808" y="213.566484" style="fill: #ff0000; stroke: #ff0000"/>
     <use xlink:href="#mf8fc2354b7" x="276.668972" y="213.627046" style="fill: #ff0000; stroke: #ff0000"/>
     <use xlink:href="#mf8fc2354b7" x="278.560824" y="213.684974" style="fill: #ff0000; stroke: #ff0000"/>
     <use xlink:href="#mf8fc2354b7" x="280.530283" y="213.737637" style="fill: #ff0000; stroke: #ff0000"/>
     <use xlink:href="#mf8fc2354b7" x="282.565469" y="213.785033" style="fill: #ff0000; stroke: #ff0000"/>
     <use xlink:href="#mf8fc2354b7" x="284.687764" y="213.821897" style="fill: #ff0000; stroke: #ff0000"/>
     <use xlink:href="#mf8fc2354b7" x="286.88925" y="213.848228" style="fill: #ff0000; stroke: #ff0000"/>
     <use xlink:href="#mf8fc2354b7" x="289.177844" y="213.869293" style="fill: #ff0000; stroke: #ff0000"/>
     <use xlink:href="#mf8fc2354b7" x="291.53771" y="213.882459" style="fill: #ff0000; stroke: #ff0000"/>
     <use xlink:href="#mf8fc2354b7" x="293.992604" y="213.898257" style="fill: #ff0000; stroke: #ff0000"/>
     <use xlink:href="#mf8fc2354b7" x="296.518768" y="213.916689" style="fill: #ff0000; stroke: #ff0000"/>
     <use xlink:href="#mf8fc2354b7" x="299.124124" y="213.940387" style="fill: #ff0000; stroke: #ff0000"/>
     <use xlink:href="#mf8fc2354b7" x="301.808669" y="213.969352" style="fill: #ff0000; stroke: #ff0000"/>
     <use xlink:href="#mf8fc2354b7" x="304.572404" y="214.000949" style="fill: #ff0000; stroke: #ff0000"/>
     <use xlink:href="#mf8fc2354b7" x="307.40741" y="214.03518" style="fill: #ff0000; stroke: #ff0000"/>
     <use xlink:href="#mf8fc2354b7" x="310.321607" y="214.061511" style="fill: #ff0000; stroke: #ff0000"/>
     <use xlink:href="#mf8fc2354b7" x="313.299155" y="214.07731" style="fill: #ff0000; stroke: #ff0000"/>
     <use xlink:href="#mf8fc2354b7" x="316.340056" y="214.085209" style="fill: #ff0000; stroke: #ff0000"/>
     <use xlink:href="#mf8fc2354b7" x="319.43639" y="214.079943" style="fill: #ff0000; stroke: #ff0000"/>
     <use xlink:href="#mf8fc2354b7" x="322.603995" y="214.06941" style="fill: #ff0000; stroke: #ff0000"/>
     <use xlink:href="#mf8fc2354b7" x="325.827033" y="214.056245" style="fill: #ff0000; stroke: #ff0000"/>
     <use xlink:href="#mf8fc2354b7" x="329.097585" y="214.037813" style="fill: #ff0000; stroke: #ff0000"/>
     <use xlink:href="#mf8fc2354b7" x="332.415651" y="214.019381" style="fill: #ff0000; stroke: #ff0000"/>
     <use xlink:href="#mf8fc2354b7" x="335.78915" y="213.99305" style="fill: #ff0000; stroke: #ff0000"/>
     <use xlink:href="#mf8fc2354b7" x="339.202245" y="213.961452" style="fill: #ff0000; stroke: #ff0000"/>
     <use xlink:href="#mf8fc2354b7" x="342.662853" y="213.919322" style="fill: #ff0000; stroke: #ff0000"/>
     <use xlink:href="#mf8fc2354b7" x="346.155137" y="213.86666" style="fill: #ff0000; stroke: #ff0000"/>
     <use xlink:href="#mf8fc2354b7" x="349.694936" y="213.792932" style="fill: #ff0000; stroke: #ff0000"/>
     <use xlink:href="#mf8fc2354b7" x="353.250572" y="213.69814" style="fill: #ff0000; stroke: #ff0000"/>
     <use xlink:href="#mf8fc2354b7" x="356.766614" y="213.574383" style="fill: #ff0000; stroke: #ff0000"/>
     <use xlink:href="#mf8fc2354b7" x="359.973814" y="213.44536" style="fill: #ff0000; stroke: #ff0000"/>
     <use xlink:href="#mf8fc2354b7" x="362.460384" y="213.329503" style="fill: #ff0000; stroke: #ff0000"/>
     <use xlink:href="#mf8fc2354b7" x="364.226323" y="213.287373" style="fill: #ff0000; stroke: #ff0000"/>
     <use xlink:href="#mf8fc2354b7" x="365.525041" y="213.295272" style="fill: #ff0000; stroke: #ff0000"/>
     <use xlink:href="#mf8fc2354b7" x="366.538675" y="213.447993" style="fill: #ff0000; stroke: #ff0000"/>
     <use xlink:href="#mf8fc2354b7" x="367.386009" y="213.677075" style="fill: #ff0000; stroke: #ff0000"/>
    </g>
   </g>
   <g id="matplotlib.axis_1">
    <g id="xtick_1">
     <g id="line2d_1">
      <defs>
       <path id="m7c83cb92e8" d="M 0 0 
L 0 3.5 
" style="stroke: #000000; stroke-width: 0.8"/>
      </defs>
      <g>
       <use xlink:href="#m7c83cb92e8" x="32.586009" y="228.96" style="stroke: #000000; stroke-width: 0.8"/>
      </g>
     </g>
     <g id="text_1">
      <!-- $\mathdefault{−1.00}$ -->
      <g transform="translate(19.85593 243.05832) scale(0.1 -0.1)">
       <defs>
        <path id="CMSY10-0" d="M 4218 1472 
C 4326 1472 4442 1472 4442 1600 
C 4442 1728 4326 1728 4218 1728 
L 755 1728 
C 646 1728 531 1728 531 1600 
C 531 1472 646 1472 755 1472 
L 4218 1472 
z
" transform="scale(0.015625)"/>
        <path id="CMR17-31" d="M 1702 4083 
C 1702 4217 1696 4224 1606 4224 
C 1357 3927 979 3833 621 3820 
C 602 3820 570 3820 563 3808 
C 557 3795 557 3782 557 3648 
C 755 3648 1088 3686 1344 3839 
L 1344 467 
C 1344 243 1331 166 781 166 
L 589 166 
L 589 0 
C 896 6 1216 12 1523 12 
C 1830 12 2150 6 2458 0 
L 2458 166 
L 2266 166 
C 1715 166 1702 236 1702 467 
L 1702 4083 
z
" transform="scale(0.015625)"/>
        <path id="CMMI12-3a" d="M 1178 307 
C 1178 492 1024 620 870 620 
C 685 620 557 467 557 313 
C 557 128 710 0 864 0 
C 1050 0 1178 153 1178 307 
z
" transform="scale(0.015625)"/>
        <path id="CMR17-30" d="M 2688 2038 
C 2688 2430 2682 3099 2413 3613 
C 2176 4063 1798 4224 1466 4224 
C 1158 4224 768 4082 525 3620 
C 269 3137 243 2539 243 2038 
C 243 1671 250 1112 448 623 
C 723 -39 1216 -128 1466 -128 
C 1760 -128 2208 -7 2470 604 
C 2662 1048 2688 1568 2688 2038 
z
M 1466 -26 
C 1056 -26 813 328 723 816 
C 653 1196 653 1749 653 2109 
C 653 2604 653 3015 736 3407 
C 858 3954 1216 4121 1466 4121 
C 1728 4121 2067 3947 2189 3420 
C 2272 3054 2278 2623 2278 2109 
C 2278 1691 2278 1176 2202 797 
C 2067 96 1690 -26 1466 -26 
z
" transform="scale(0.015625)"/>
       </defs>
       <use xlink:href="#CMSY10-0" transform="scale(0.996264)"/>
       <use xlink:href="#CMR17-31" transform="translate(77.487468 0) scale(0.996264)"/>
       <use xlink:href="#CMMI12-3a" transform="translate(123.177945 0) scale(0.996264)"/>
       <use xlink:href="#CMR17-30" transform="translate(150.275122 0) scale(0.996264)"/>
       <use xlink:href="#CMR17-30" transform="translate(195.965599 0) scale(0.996264)"/>
      </g>
     </g>
    </g>
    <g id="xtick_2">
     <g id="line2d_2">
      <g>
       <use xlink:href="#m7c83cb92e8" x="74.436009" y="228.96" style="stroke: #000000; stroke-width: 0.8"/>
      </g>
     </g>
     <g id="text_2">
      <!-- $\mathdefault{−0.75}$ -->
      <g transform="translate(61.70593 243.05832) scale(0.1 -0.1)">
       <defs>
        <path id="CMR17-37" d="M 2886 3955 
L 2886 4096 
L 1382 4096 
C 634 4096 621 4166 595 4288 
L 480 4288 
L 294 3104 
L 410 3104 
C 429 3226 474 3552 550 3673 
C 589 3724 1062 3724 1171 3724 
L 2579 3724 
L 1869 2670 
C 1395 1961 1069 1003 1069 166 
C 1069 89 1069 -128 1299 -128 
C 1530 -128 1530 89 1530 172 
L 1530 466 
C 1530 1514 1709 2204 2003 2644 
L 2886 3955 
z
" transform="scale(0.015625)"/>
        <path id="CMR17-35" d="M 730 3750 
C 794 3724 1056 3641 1325 3641 
C 1920 3641 2246 3961 2432 4140 
C 2432 4191 2432 4224 2394 4224 
C 2387 4224 2374 4224 2323 4198 
C 2099 4102 1837 4032 1517 4032 
C 1325 4032 1037 4055 723 4191 
C 653 4224 640 4224 634 4224 
C 602 4224 595 4217 595 4090 
L 595 2231 
C 595 2113 595 2080 659 2080 
C 691 2080 704 2093 736 2139 
C 941 2435 1222 2560 1542 2560 
C 1766 2560 2246 2415 2246 1293 
C 2246 1087 2246 716 2054 422 
C 1894 159 1645 25 1370 25 
C 947 25 518 319 403 812 
C 429 806 480 793 506 793 
C 589 793 749 838 749 1036 
C 749 1209 627 1280 506 1280 
C 358 1280 262 1190 262 1011 
C 262 454 704 -128 1382 -128 
C 2042 -128 2669 441 2669 1267 
C 2669 2054 2170 2662 1549 2662 
C 1222 2662 947 2540 730 2304 
L 730 3750 
z
" transform="scale(0.015625)"/>
       </defs>
       <use xlink:href="#CMSY10-0" transform="scale(0.996264)"/>
       <use xlink:href="#CMR17-30" transform="translate(77.487468 0) scale(0.996264)"/>
       <use xlink:href="#CMMI12-3a" transform="translate(123.177945 0) scale(0.996264)"/>
       <use xlink:href="#CMR17-37" transform="translate(150.275122 0) scale(0.996264)"/>
       <use xlink:href="#CMR17-35" transform="translate(195.965599 0) scale(0.996264)"/>
      </g>
     </g>
    </g>
    <g id="xtick_3">
     <g id="line2d_3">
      <g>
       <use xlink:href="#m7c83cb92e8" x="116.286009" y="228.96" style="stroke: #000000; stroke-width: 0.8"/>
      </g>
     </g>
     <g id="text_3">
      <!-- $\mathdefault{−0.50}$ -->
      <g transform="translate(103.55593 243.05832) scale(0.1 -0.1)">
       <use xlink:href="#CMSY10-0" transform="scale(0.996264)"/>
       <use xlink:href="#CMR17-30" transform="translate(77.487468 0) scale(0.996264)"/>
       <use xlink:href="#CMMI12-3a" transform="translate(123.177945 0) scale(0.996264)"/>
       <use xlink:href="#CMR17-35" transform="translate(150.275122 0) scale(0.996264)"/>
       <use xlink:href="#CMR17-30" transform="translate(195.965599 0) scale(0.996264)"/>
      </g>
     </g>
    </g>
    <g id="xtick_4">
     <g id="line2d_4">
      <g>
       <use xlink:href="#m7c83cb92e8" x="158.136009" y="228.96" style="stroke: #000000; stroke-width: 0.8"/>
      </g>
     </g>
     <g id="text_4">
      <!-- $\mathdefault{−0.25}$ -->
      <g transform="translate(145.40593 243.05832) scale(0.1 -0.1)">
       <defs>
        <path id="CMR17-32" d="M 2669 990 
L 2554 990 
C 2490 537 2438 460 2413 422 
C 2381 371 1920 371 1830 371 
L 602 371 
C 832 620 1280 1073 1824 1596 
C 2214 1966 2669 2400 2669 3033 
C 2669 3788 2067 4224 1395 4224 
C 691 4224 262 3603 262 3027 
C 262 2777 448 2745 525 2745 
C 589 2745 781 2783 781 3007 
C 781 3206 614 3264 525 3264 
C 486 3264 448 3257 422 3244 
C 544 3788 915 4057 1306 4057 
C 1862 4057 2227 3616 2227 3033 
C 2227 2477 1901 1998 1536 1583 
L 262 147 
L 262 0 
L 2515 0 
L 2669 990 
z
" transform="scale(0.015625)"/>
       </defs>
       <use xlink:href="#CMSY10-0" transform="scale(0.996264)"/>
       <use xlink:href="#CMR17-30" transform="translate(77.487468 0) scale(0.996264)"/>
       <use xlink:href="#CMMI12-3a" transform="translate(123.177945 0) scale(0.996264)"/>
       <use xlink:href="#CMR17-32" transform="translate(150.275122 0) scale(0.996264)"/>
       <use xlink:href="#CMR17-35" transform="translate(195.965599 0) scale(0.996264)"/>
      </g>
     </g>
    </g>
    <g id="xtick_5">
     <g id="line2d_5">
      <g>
       <use xlink:href="#m7c83cb92e8" x="199.986009" y="228.96" style="stroke: #000000; stroke-width: 0.8"/>
      </g>
     </g>
     <g id="text_5">
      <!-- $\mathdefault{0.00}$ -->
      <g transform="translate(191.130302 243.05832) scale(0.1 -0.1)">
       <use xlink:href="#CMR17-30" transform="scale(0.996264)"/>
       <use xlink:href="#CMMI12-3a" transform="translate(45.690477 0) scale(0.996264)"/>
       <use xlink:href="#CMR17-30" transform="translate(72.787654 0) scale(0.996264)"/>
       <use xlink:href="#CMR17-30" transform="translate(118.478131 0) scale(0.996264)"/>
      </g>
     </g>
    </g>
    <g id="xtick_6">
     <g id="line2d_6">
      <g>
       <use xlink:href="#m7c83cb92e8" x="241.836009" y="228.96" style="stroke: #000000; stroke-width: 0.8"/>
      </g>
     </g>
     <g id="text_6">
      <!-- $\mathdefault{0.25}$ -->
      <g transform="translate(232.980302 243.05832) scale(0.1 -0.1)">
       <use xlink:href="#CMR17-30" transform="scale(0.996264)"/>
       <use xlink:href="#CMMI12-3a" transform="translate(45.690477 0) scale(0.996264)"/>
       <use xlink:href="#CMR17-32" transform="translate(72.787654 0) scale(0.996264)"/>
       <use xlink:href="#CMR17-35" transform="translate(118.478131 0) scale(0.996264)"/>
      </g>
     </g>
    </g>
    <g id="xtick_7">
     <g id="line2d_7">
      <g>
       <use xlink:href="#m7c83cb92e8" x="283.686009" y="228.96" style="stroke: #000000; stroke-width: 0.8"/>
      </g>
     </g>
     <g id="text_7">
      <!-- $\mathdefault{0.50}$ -->
      <g transform="translate(274.830302 243.05832) scale(0.1 -0.1)">
       <use xlink:href="#CMR17-30" transform="scale(0.996264)"/>
       <use xlink:href="#CMMI12-3a" transform="translate(45.690477 0) scale(0.996264)"/>
       <use xlink:href="#CMR17-35" transform="translate(72.787654 0) scale(0.996264)"/>
       <use xlink:href="#CMR17-30" transform="translate(118.478131 0) scale(0.996264)"/>
      </g>
     </g>
    </g>
    <g id="xtick_8">
     <g id="line2d_8">
      <g>
       <use xlink:href="#m7c83cb92e8" x="325.536009" y="228.96" style="stroke: #000000; stroke-width: 0.8"/>
      </g>
     </g>
     <g id="text_8">
      <!-- $\mathdefault{0.75}$ -->
      <g transform="translate(316.680302 243.05832) scale(0.1 -0.1)">
       <use xlink:href="#CMR17-30" transform="scale(0.996264)"/>
       <use xlink:href="#CMMI12-3a" transform="translate(45.690477 0) scale(0.996264)"/>
       <use xlink:href="#CMR17-37" transform="translate(72.787654 0) scale(0.996264)"/>
       <use xlink:href="#CMR17-35" transform="translate(118.478131 0) scale(0.996264)"/>
      </g>
     </g>
    </g>
    <g id="xtick_9">
     <g id="line2d_9">
      <g>
       <use xlink:href="#m7c83cb92e8" x="367.386009" y="228.96" style="stroke: #000000; stroke-width: 0.8"/>
      </g>
     </g>
     <g id="text_9">
      <!-- $\mathdefault{1.00}$ -->
      <g transform="translate(358.530302 243.05832) scale(0.1 -0.1)">
       <use xlink:href="#CMR17-31" transform="scale(0.996264)"/>
       <use xlink:href="#CMMI12-3a" transform="translate(45.690477 0) scale(0.996264)"/>
       <use xlink:href="#CMR17-30" transform="translate(72.787654 0) scale(0.996264)"/>
       <use xlink:href="#CMR17-30" transform="translate(118.478131 0) scale(0.996264)"/>
      </g>
     </g>
    </g>
    <g id="text_10">
     <!-- S/S_{total} -->
     <g transform="translate(180.748465 256.278627) scale(0.1 -0.1)">
      <defs>
       <path id="NimbusSanL-Regu-53" d="M 3814 3295 
C 3808 4204 3181 4736 2106 4736 
C 1082 4736 448 4211 448 3372 
C 448 2806 749 2450 1363 2291 
L 2522 1986 
C 3110 1833 3379 1598 3379 1236 
C 3379 988 3245 733 3046 593 
C 2861 466 2566 396 2189 396 
C 1683 396 1338 517 1114 784 
C 941 988 864 1210 870 1496 
L 307 1496 
C 314 1070 397 790 582 536 
C 902 102 1440 -128 2150 -128 
C 2707 -128 3162 0 3462 230 
C 3776 479 3974 892 3974 1293 
C 3974 1865 3616 2284 2982 2456 
L 1811 2768 
C 1248 2920 1043 3098 1043 3454 
C 1043 3925 1459 4236 2086 4236 
C 2829 4236 3245 3899 3251 3295 
L 3814 3295 
z
" transform="scale(0.015625)"/>
       <path id="NimbusSanL-Regu-2f" d="M 1466 4672 
L -51 -128 
L 301 -128 
L 1818 4672 
L 1466 4672 
z
" transform="scale(0.015625)"/>
       <path id="NimbusSanL-Regu-74" d="M 1626 3328 
L 1075 3328 
L 1075 4249 
L 544 4249 
L 544 3328 
L 90 3328 
L 90 2892 
L 544 2892 
L 544 402 
C 544 64 774 -128 1190 -128 
C 1318 -128 1446 -116 1626 -84 
L 1626 364 
C 1555 345 1472 339 1370 339 
C 1139 339 1075 402 1075 634 
L 1075 2892 
L 1626 2892 
L 1626 3328 
z
" transform="scale(0.015625)"/>
       <path id="NimbusSanL-Regu-6f" d="M 1741 3456 
C 800 3456 230 2784 230 1663 
C 230 543 794 -128 1747 -128 
C 2688 -128 3264 543 3264 1638 
C 3264 2791 2707 3456 1741 3456 
z
M 1747 2963 
C 2349 2963 2707 2472 2707 1644 
C 2707 861 2336 364 1747 364 
C 1152 364 787 855 787 1663 
C 787 2466 1152 2963 1747 2963 
z
" transform="scale(0.015625)"/>
       <path id="NimbusSanL-Regu-61" d="M 3424 332 
C 3366 320 3341 320 3309 320 
C 3123 320 3021 415 3021 581 
L 3021 2542 
C 3021 3135 2586 3456 1760 3456 
C 1274 3456 870 3315 646 3065 
C 493 2893 429 2702 416 2370 
L 954 2370 
C 998 2778 1242 2963 1741 2963 
C 2221 2963 2490 2784 2490 2466 
L 2490 2326 
C 2490 2103 2355 2007 1933 1956 
C 1178 1861 1062 1835 858 1753 
C 467 1593 269 1294 269 861 
C 269 256 691 -128 1370 -128 
C 1792 -128 2131 19 2509 364 
C 2547 25 2714 -128 3059 -128 
C 3168 -128 3251 -116 3424 -71 
L 3424 332 
z
M 2490 1071 
C 2490 893 2438 785 2278 638 
C 2061 441 1798 339 1485 339 
C 1069 339 826 536 826 874 
C 826 1224 1062 1402 1632 1485 
C 2195 1562 2310 1587 2490 1670 
L 2490 1071 
z
" transform="scale(0.015625)"/>
       <path id="NimbusSanL-Regu-6c" d="M 973 4672 
L 435 4672 
L 435 0 
L 973 0 
L 973 4672 
z
" transform="scale(0.015625)"/>
      </defs>
      <use xlink:href="#NimbusSanL-Regu-53" transform="scale(0.996264)"/>
      <use xlink:href="#NimbusSanL-Regu-2f" transform="translate(66.450031 0) scale(0.996264)"/>
      <use xlink:href="#NimbusSanL-Regu-53" transform="translate(94.145201 0) scale(0.996264)"/>
      <use xlink:href="#NimbusSanL-Regu-74" transform="translate(196.460797 0) scale(0.996264)"/>
      <use xlink:href="#NimbusSanL-Regu-6f" transform="translate(224.155967 0) scale(0.996264)"/>
      <use xlink:href="#NimbusSanL-Regu-74" transform="translate(279.547644 0) scale(0.996264)"/>
      <use xlink:href="#NimbusSanL-Regu-61" transform="translate(307.242813 0) scale(0.996264)"/>
      <use xlink:href="#NimbusSanL-Regu-6c" transform="translate(362.63449 0) scale(0.996264)"/>
      <path d="M 166.572573 0 
L 196.460797 0 
L 196.460797 0.3985 
L 166.572573 0.3985 
L 166.572573 0 
z
"/>
     </g>
    </g>
   </g>
   <g id="matplotlib.axis_2">
    <g id="ytick_1">
     <g id="line2d_10">
      <defs>
       <path id="m557d41e7e5" d="M 0 0 
L -3.5 0 
" style="stroke: #000000; stroke-width: 0.8"/>
      </defs>
      <g>
       <use xlink:href="#m557d41e7e5" x="32.586009" y="227.564173" style="stroke: #000000; stroke-width: 0.8"/>
      </g>
     </g>
     <g id="text_11">
      <!-- $\mathdefault{1}$ -->
      <g transform="translate(20.604674 231.113333) scale(0.1 -0.1)">
       <use xlink:href="#CMR17-31" transform="scale(0.996264)"/>
      </g>
     </g>
    </g>
    <g id="ytick_2">
     <g id="line2d_11">
      <g>
       <use xlink:href="#m557d41e7e5" x="32.586009" y="201.232929" style="stroke: #000000; stroke-width: 0.8"/>
      </g>
     </g>
     <g id="text_12">
      <!-- $\mathdefault{2}$ -->
      <g transform="translate(20.604674 204.782089) scale(0.1 -0.1)">
       <use xlink:href="#CMR17-32" transform="scale(0.996264)"/>
      </g>
     </g>
    </g>
    <g id="ytick_3">
     <g id="line2d_12">
      <g>
       <use xlink:href="#m557d41e7e5" x="32.586009" y="174.901685" style="stroke: #000000; stroke-width: 0.8"/>
      </g>
     </g>
     <g id="text_13">
      <!-- $\mathdefault{3}$ -->
      <g transform="translate(20.604674 178.450845) scale(0.1 -0.1)">
       <defs>
        <path id="CMR17-33" d="M 1414 2176 
C 1984 2176 2234 1673 2234 1094 
C 2234 322 1824 25 1453 25 
C 1114 25 563 193 390 691 
C 422 678 454 678 486 678 
C 640 678 755 780 755 947 
C 755 1132 614 1216 486 1216 
C 378 1216 211 1164 211 927 
C 211 335 787 -128 1466 -128 
C 2176 -128 2720 432 2720 1087 
C 2720 1718 2208 2176 1600 2246 
C 2086 2347 2554 2776 2554 3353 
C 2554 3856 2048 4224 1472 4224 
C 890 4224 378 3862 378 3347 
C 378 3123 544 3084 627 3084 
C 762 3084 877 3167 877 3334 
C 877 3500 762 3584 627 3584 
C 602 3584 570 3584 544 3571 
C 730 3999 1235 4076 1459 4076 
C 1683 4076 2106 3966 2106 3347 
C 2106 3167 2080 2851 1862 2574 
C 1670 2329 1453 2316 1242 2297 
C 1210 2297 1062 2284 1037 2284 
C 992 2278 966 2272 966 2227 
C 966 2182 973 2176 1101 2176 
L 1414 2176 
z
" transform="scale(0.015625)"/>
       </defs>
       <use xlink:href="#CMR17-33" transform="scale(0.996264)"/>
      </g>
     </g>
    </g>
    <g id="ytick_4">
     <g id="line2d_13">
      <g>
       <use xlink:href="#m557d41e7e5" x="32.586009" y="148.57044" style="stroke: #000000; stroke-width: 0.8"/>
      </g>
     </g>
     <g id="text_14">
      <!-- $\mathdefault{4}$ -->
      <g transform="translate(20.604674 152.119601) scale(0.1 -0.1)">
       <defs>
        <path id="CMR17-34" d="M 2150 4147 
C 2150 4281 2144 4288 2029 4288 
L 128 1254 
L 128 1088 
L 1779 1088 
L 1779 460 
C 1779 230 1766 166 1318 166 
L 1197 166 
L 1197 0 
C 1402 12 1747 12 1965 12 
C 2182 12 2528 12 2733 0 
L 2733 166 
L 2611 166 
C 2163 166 2150 230 2150 460 
L 2150 1088 
L 2803 1088 
L 2803 1254 
L 2150 1254 
L 2150 4147 
z
M 1798 3723 
L 1798 1254 
L 256 1254 
L 1798 3723 
z
" transform="scale(0.015625)"/>
       </defs>
       <use xlink:href="#CMR17-34" transform="scale(0.996264)"/>
      </g>
     </g>
    </g>
    <g id="ytick_5">
     <g id="line2d_14">
      <g>
       <use xlink:href="#m557d41e7e5" x="32.586009" y="122.239196" style="stroke: #000000; stroke-width: 0.8"/>
      </g>
     </g>
     <g id="text_15">
      <!-- $\mathdefault{5}$ -->
      <g transform="translate(20.604674 125.788356) scale(0.1 -0.1)">
       <use xlink:href="#CMR17-35" transform="scale(0.996264)"/>
      </g>
     </g>
    </g>
    <g id="ytick_6">
     <g id="line2d_15">
      <g>
       <use xlink:href="#m557d41e7e5" x="32.586009" y="95.907952" style="stroke: #000000; stroke-width: 0.8"/>
      </g>
     </g>
     <g id="text_16">
      <!-- $\mathdefault{6}$ -->
      <g transform="translate(20.604674 99.457112) scale(0.1 -0.1)">
       <defs>
        <path id="CMR17-36" d="M 678 2198 
C 678 3712 1395 4076 1811 4076 
C 1946 4076 2272 4049 2400 3782 
C 2298 3782 2106 3782 2106 3558 
C 2106 3385 2246 3328 2336 3328 
C 2394 3328 2566 3353 2566 3571 
C 2566 3987 2246 4224 1805 4224 
C 1043 4224 243 3411 243 2011 
C 243 257 966 -128 1478 -128 
C 2099 -128 2688 431 2688 1295 
C 2688 2101 2170 2688 1517 2688 
C 1126 2688 838 2430 678 1979 
L 678 2198 
z
M 1478 25 
C 691 25 691 1212 691 1450 
C 691 1914 909 2585 1504 2585 
C 1613 2585 1926 2585 2138 2140 
C 2253 1889 2253 1624 2253 1302 
C 2253 954 2253 696 2118 438 
C 1978 173 1773 25 1478 25 
z
" transform="scale(0.015625)"/>
       </defs>
       <use xlink:href="#CMR17-36" transform="scale(0.996264)"/>
      </g>
     </g>
    </g>
    <g id="ytick_7">
     <g id="line2d_16">
      <g>
       <use xlink:href="#m557d41e7e5" x="32.586009" y="69.576708" style="stroke: #000000; stroke-width: 0.8"/>
      </g>
     </g>
     <g id="text_17">
      <!-- $\mathdefault{7}$ -->
      <g transform="translate(20.604674 73.125868) scale(0.1 -0.1)">
       <use xlink:href="#CMR17-37" transform="scale(0.996264)"/>
      </g>
     </g>
    </g>
    <g id="ytick_8">
     <g id="line2d_17">
      <g>
       <use xlink:href="#m557d41e7e5" x="32.586009" y="43.245463" style="stroke: #000000; stroke-width: 0.8"/>
      </g>
     </g>
     <g id="text_18">
      <!-- $\mathdefault{8}$ -->
      <g transform="translate(20.604674 46.794624) scale(0.1 -0.1)">
       <defs>
        <path id="CMR17-38" d="M 1741 2289 
C 2144 2494 2554 2803 2554 3298 
C 2554 3884 1990 4224 1472 4224 
C 890 4224 378 3800 378 3215 
C 378 3054 416 2777 666 2533 
C 730 2469 998 2276 1171 2154 
C 883 2006 211 1652 211 945 
C 211 282 838 -128 1459 -128 
C 2144 -128 2720 366 2720 1022 
C 2720 1607 2330 1877 2074 2051 
L 1741 2289 
z
M 902 2855 
C 851 2887 595 3086 595 3388 
C 595 3781 998 4076 1459 4076 
C 1965 4076 2336 3716 2336 3298 
C 2336 2700 1670 2359 1638 2359 
C 1632 2359 1626 2359 1574 2398 
L 902 2855 
z
M 2080 1536 
C 2176 1466 2483 1253 2483 861 
C 2483 385 2010 25 1472 25 
C 890 25 448 443 448 951 
C 448 1459 838 1884 1280 2083 
L 2080 1536 
z
" transform="scale(0.015625)"/>
       </defs>
       <use xlink:href="#CMR17-38" transform="scale(0.996264)"/>
      </g>
     </g>
    </g>
    <g id="ytick_9">
     <g id="line2d_18">
      <g>
       <use xlink:href="#m557d41e7e5" x="32.586009" y="16.914219" style="stroke: #000000; stroke-width: 0.8"/>
      </g>
     </g>
     <g id="text_19">
      <!-- $\mathdefault{9}$ -->
      <g transform="translate(20.604674 20.463379) scale(0.1 -0.1)">
       <defs>
        <path id="CMR17-39" d="M 2253 1871 
C 2253 448 1670 25 1190 25 
C 1043 25 685 43 538 281 
C 704 256 826 345 826 505 
C 826 678 685 736 595 736 
C 538 736 365 710 365 492 
C 365 68 742 -128 1203 -128 
C 1939 -128 2688 665 2688 2090 
C 2688 3857 1971 4224 1485 4224 
C 851 4224 243 3664 243 2800 
C 243 2000 762 1408 1414 1408 
C 1952 1408 2189 1910 2253 2122 
L 2253 1871 
z
M 1427 1510 
C 1254 1510 1011 1542 813 1929 
C 678 2181 678 2477 678 2793 
C 678 3174 678 3438 858 3722 
C 947 3857 1114 4076 1485 4076 
C 2240 4076 2240 2909 2240 2651 
C 2240 2193 2035 1510 1427 1510 
z
" transform="scale(0.015625)"/>
       </defs>
       <use xlink:href="#CMR17-39" transform="scale(0.996264)"/>
      </g>
     </g>
    </g>
    <g id="text_20">
     <!-- Shape Factor - Blade_18 -->
     <g transform="translate(14.482687 172.231219) rotate(-90) scale(0.1 -0.1)">
      <defs>
       <path id="NimbusSanL-Regu-68" d="M 448 4672 
L 448 0 
L 979 0 
L 979 1853 
C 979 2539 1338 2988 1888 2988 
C 2061 2988 2234 2930 2362 2834 
C 2515 2725 2579 2565 2579 2328 
L 2579 0 
L 3110 0 
L 3110 2539 
C 3110 3103 2707 3456 2054 3456 
C 1581 3456 1293 3308 979 2898 
L 979 4672 
L 448 4672 
z
" transform="scale(0.015625)"/>
       <path id="NimbusSanL-Regu-70" d="M 346 -1408 
L 883 -1408 
L 883 371 
C 1165 25 1478 -128 1914 -128 
C 2778 -128 3347 568 3347 1632 
C 3347 2752 2797 3456 1907 3456 
C 1453 3456 1088 3251 838 2854 
L 838 3359 
L 346 3359 
L 346 -1408 
z
M 1818 2956 
C 2406 2956 2790 2440 2790 1644 
C 2790 887 2400 371 1818 371 
C 1254 371 883 880 883 1663 
C 883 2447 1254 2956 1818 2956 
z
" transform="scale(0.015625)"/>
       <path id="NimbusSanL-Regu-65" d="M 3283 1484 
C 3283 1998 3245 2311 3149 2565 
C 2931 3123 2419 3456 1792 3456 
C 858 3456 256 2734 256 1619 
C 256 545 838 -128 1779 -128 
C 2547 -128 3078 307 3213 1018 
L 2675 1018 
C 2528 588 2227 364 1798 364 
C 1459 364 1171 514 992 787 
C 864 974 819 1161 813 1484 
L 3283 1484 
z
M 826 1920 
C 870 2552 1248 2963 1786 2963 
C 2310 2963 2714 2519 2714 1959 
C 2714 1946 2714 1933 2707 1920 
L 826 1920 
z
" transform="scale(0.015625)"/>
       <path id="NimbusSanL-Regu-46" d="M 1171 2112 
L 3398 2112 
L 3398 2636 
L 1171 2636 
L 1171 4147 
L 3706 4147 
L 3706 4672 
L 576 4672 
L 576 0 
L 1171 0 
L 1171 2112 
z
" transform="scale(0.015625)"/>
       <path id="NimbusSanL-Regu-63" d="M 3014 2237 
C 2989 2561 2918 2771 2790 2956 
C 2560 3270 2157 3456 1690 3456 
C 787 3456 198 2740 198 1632 
C 198 555 774 -128 1683 -128 
C 2483 -128 2989 352 3053 1167 
L 2515 1167 
C 2426 632 2150 364 1696 364 
C 1107 364 755 842 755 1632 
C 755 2466 1101 2963 1683 2963 
C 2131 2963 2413 2701 2477 2237 
L 3014 2237 
z
" transform="scale(0.015625)"/>
       <path id="NimbusSanL-Regu-72" d="M 442 3328 
L 442 0 
L 979 0 
L 979 1727 
C 979 2203 1101 2514 1357 2698 
C 1523 2819 1683 2857 2054 2863 
L 2054 3404 
C 1965 3449 1920 3456 1850 3456 
C 1504 3456 1242 3251 934 2750 
L 934 3328 
L 442 3328 
z
" transform="scale(0.015625)"/>
       <path id="NimbusSanL-Regu-2d" d="M 1818 1996 
L 294 1996 
L 294 1536 
L 1818 1536 
L 1818 1996 
z
" transform="scale(0.015625)"/>
       <path id="NimbusSanL-Regu-42" d="M 506 0 
L 2611 0 
C 3053 0 3379 121 3629 390 
C 3859 632 3987 961 3987 1321 
C 3987 1878 3731 2214 3136 2444 
C 3558 2643 3782 2994 3782 3476 
C 3782 3821 3654 4127 3411 4345 
C 3168 4569 2848 4672 2400 4672 
L 506 4672 
L 506 0 
z
M 1101 2636 
L 1101 4147 
L 2253 4147 
C 2586 4147 2771 4101 2931 3977 
C 3098 3847 3187 3652 3187 3391 
C 3187 3138 3098 2936 2931 2806 
C 2771 2682 2586 2636 2253 2636 
L 1101 2636 
z
M 1101 524 
L 1101 2112 
L 2554 2112 
C 2842 2112 3034 2042 3174 1890 
C 3315 1745 3392 1542 3392 1315 
C 3392 1093 3315 891 3174 746 
C 3034 594 2842 524 2554 524 
L 1101 524 
z
" transform="scale(0.015625)"/>
       <path id="NimbusSanL-Regu-64" d="M 3168 4672 
L 2637 4672 
L 2637 2937 
C 2413 3276 2054 3456 1606 3456 
C 736 3456 166 2759 166 1695 
C 166 568 723 -128 1626 -128 
C 2086 -128 2406 44 2694 460 
L 2694 19 
L 3168 19 
L 3168 4672 
z
M 1696 2956 
C 2272 2956 2637 2447 2637 1651 
C 2637 880 2266 371 1702 371 
C 1114 371 723 887 723 1663 
C 723 2440 1114 2956 1696 2956 
z
" transform="scale(0.015625)"/>
       <path id="NimbusSanL-Regu-31" d="M 1658 3232 
L 1658 0 
L 2221 0 
L 2221 4537 
L 1850 4537 
C 1651 3840 1523 3744 653 3635 
L 653 3232 
L 1658 3232 
z
" transform="scale(0.015625)"/>
       <path id="NimbusSanL-Regu-38" d="M 2502 2399 
C 2970 2681 3123 2910 3123 3337 
C 3123 4044 2566 4544 1760 4544 
C 960 4544 397 4044 397 3337 
C 397 2917 550 2687 1011 2399 
C 493 2150 237 1774 237 1276 
C 237 447 864 -128 1760 -128 
C 2656 -128 3283 447 3283 1270 
C 3283 1774 3027 2150 2502 2399 
z
M 1760 4044 
C 2240 4044 2547 3764 2547 3324 
C 2547 2904 2234 2624 1760 2624 
C 1286 2624 973 2904 973 3331 
C 973 3764 1286 4044 1760 4044 
z
M 1760 2150 
C 2323 2150 2707 1793 2707 1264 
C 2707 728 2323 371 1747 371 
C 1197 371 813 734 813 1264 
C 813 1793 1197 2150 1760 2150 
z
" transform="scale(0.015625)"/>
      </defs>
      <use xlink:href="#NimbusSanL-Regu-53" transform="scale(0.996264)"/>
      <use xlink:href="#NimbusSanL-Regu-68" transform="translate(66.450031 0) scale(0.996264)"/>
      <use xlink:href="#NimbusSanL-Regu-61" transform="translate(121.841708 0) scale(0.996264)"/>
      <use xlink:href="#NimbusSanL-Regu-70" transform="translate(177.233385 0) scale(0.996264)"/>
      <use xlink:href="#NimbusSanL-Regu-65" transform="translate(232.625062 0) scale(0.996264)"/>
      <use xlink:href="#NimbusSanL-Regu-46" transform="translate(315.711909 0) scale(0.996264)"/>
      <use xlink:href="#NimbusSanL-Regu-61" transform="translate(371.602189 0) scale(0.996264)"/>
      <use xlink:href="#NimbusSanL-Regu-63" transform="translate(426.993866 0) scale(0.996264)"/>
      <use xlink:href="#NimbusSanL-Regu-74" transform="translate(476.807066 0) scale(0.996264)"/>
      <use xlink:href="#NimbusSanL-Regu-6f" transform="translate(504.502236 0) scale(0.996264)"/>
      <use xlink:href="#NimbusSanL-Regu-72" transform="translate(559.893913 0) scale(0.996264)"/>
      <use xlink:href="#NimbusSanL-Regu-2d" transform="translate(620.764312 0) scale(0.996264)"/>
      <use xlink:href="#NimbusSanL-Regu-42" transform="translate(681.634712 0) scale(0.996264)"/>
      <use xlink:href="#NimbusSanL-Regu-6c" transform="translate(748.084743 0) scale(0.996264)"/>
      <use xlink:href="#NimbusSanL-Regu-61" transform="translate(770.201527 0) scale(0.996264)"/>
      <use xlink:href="#NimbusSanL-Regu-64" transform="translate(825.593204 0) scale(0.996264)"/>
      <use xlink:href="#NimbusSanL-Regu-65" transform="translate(880.984881 0) scale(0.996264)"/>
      <use xlink:href="#NimbusSanL-Regu-31" transform="translate(972.242123 0) scale(0.996264)"/>
      <use xlink:href="#NimbusSanL-Regu-38" transform="translate(1027.6338 0) scale(0.996264)"/>
      <path d="M 942.353899 0 
L 972.242123 0 
L 972.242123 0.3985 
L 942.353899 0.3985 
L 942.353899 0 
z
"/>
     </g>
    </g>
   </g>
   <g id="line2d_19">
    <path d="M 200.49013 165.257536 
L 200.742191 178.033316 
L 200.994254 174.940553 
M 201.498384 152.10702 
L 201.750452 193.614535 
L 202.002522 155.456284 
L 203.158971 171.28973 
L 204.064294 179.971744 
L 204.969756 186.024486 
L 205.875295 185.645566 
L 206.780883 178.536049 
L 207.686501 179.645135 
L 208.592136 181.303891 
L 209.497785 183.58886 
L 210.403442 185.382043 
L 211.309104 186.568392 
L 212.214771 187.20765 
L 213.120441 187.557894 
L 214.931786 187.863903 
L 215.837461 187.948067 
L 216.743137 191.975531 
L 217.648814 192.186213 
L 222.177202 207.589877 
L 223.082879 211.274296 
L 223.988557 212.408909 
L 224.894235 202.357853 
L 225.799912 200.155876 
L 226.705589 149.217298 
L 227.611265 152.381755 
L 228.516942 153.61793 
L 229.422617 178.548323 
L 230.328292 178.98712 
L 232.139641 179.412427 
L 233.950986 179.52091 
L 234.856657 179.472817 
L 235.762327 183.927868 
L 237.573664 183.74035 
L 238.47933 187.267897 
L 240.290658 187.013172 
L 241.196319 191.285196 
L 242.101979 191.300314 
L 243.913291 196.731656 
L 244.818944 196.660595 
L 246.630241 201.689669 
L 247.535885 203.656619 
L 248.441528 205.201132 
L 249.347167 206.459916 
L 250.252805 206.6226 
L 251.15844 208.07524 
L 252.064074 208.842317 
L 253.875338 211.124719 
L 254.780968 212.575076 
L 256.592233 217.280884 
L 257.497868 217.78232 
L 258.403504 215.581145 
L 259.309143 210.768939 
L 260.214786 201.198152 
M 262.026082 185.740708 
L 262.931736 165.517119 
L 263.837394 197.760164 
L 265.64872 218.573517 
L 266.554388 213.245243 
L 267.46006 214.310219 
L 268.365734 213.094116 
L 271.08277 212.637471 
L 273.799822 211.854192 
L 274.705508 209.847259 
L 277.422574 208.838836 
L 280.139646 207.651204 
L 281.045338 204.985503 
L 283.762416 203.579261 
L 284.668109 203.035468 
L 285.573803 199.477951 
L 288.290885 197.524779 
L 289.196579 192.498184 
L 291.007968 190.88681 
L 291.913663 189.996351 
L 292.819357 181.53988 
L 294.630747 179.43218 
L 295.536442 168.728085 
L 297.347833 166.04885 
L 298.253528 149.950178 
L 300.064918 146.146902 
L 301.876309 141.458882 
L 302.782005 60.359404 
L 303.6877 57.280664 
L 305.499092 49.606296 
L 306.404787 45.370657 
L 307.310483 40.521571 
M 324.518703 177.025567 
L 325.424399 191.198977 
L 326.330095 203.355188 
L 327.235791 209.142128 
L 328.141487 212.310541 
L 329.047183 214.300594 
L 329.952879 215.636759 
L 330.858575 216.588809 
L 331.764271 217.272726 
L 333.575663 218.12366 
L 335.387055 218.590322 
L 337.198446 218.813673 
L 339.915534 218.871631 
L 343.538318 218.644769 
L 347.161103 218.194103 
L 351.689583 217.45518 
L 352.595279 215.296589 
L 358.935151 214.049861 
L 365.509791 213.01204 
L 365.74443 212.825227 
L 365.978928 210.449612 
L 366.447724 209.562464 
L 366.682181 202.990776 
L 366.916729 17.28 
L 366.916729 17.28 
" clip-path="url(#p7d833468bf)" style="fill: none; stroke: #00008b; stroke-width: 1.5; stroke-linecap: square"/>
    <defs>
     <path id="m3a86d380eb" d="M 0 0.25 
C 0.066301 0.25 0.129895 0.223658 0.176777 0.176777 
C 0.223658 0.129895 0.25 0.066301 0.25 0 
C 0.25 -0.066301 0.223658 -0.129895 0.176777 -0.176777 
C 0.129895 -0.223658 0.066301 -0.25 0 -0.25 
C -0.066301 -0.25 -0.129895 -0.223658 -0.176777 -0.176777 
C -0.223658 -0.129895 -0.25 -0.066301 -0.25 0 
C -0.25 0.066301 -0.223658 0.129895 -0.176777 0.176777 
C -0.129895 0.223658 -0.066301 0.25 0 0.25 
z
" style="stroke: #00008b"/>
    </defs>
    <g clip-path="url(#p7d833468bf)">
     <use xlink:href="#m3a86d380eb" x="199.986009" y="146.894549" style="fill: #00008b; stroke: #00008b"/>
     <use xlink:href="#m3a86d380eb" x="200.49013" y="165.257536" style="fill: #00008b; stroke: #00008b"/>
     <use xlink:href="#m3a86d380eb" x="200.742191" y="178.033316" style="fill: #00008b; stroke: #00008b"/>
     <use xlink:href="#m3a86d380eb" x="200.994254" y="174.940553" style="fill: #00008b; stroke: #00008b"/>
     <use xlink:href="#m3a86d380eb" x="201.498384" y="152.10702" style="fill: #00008b; stroke: #00008b"/>
     <use xlink:href="#m3a86d380eb" x="201.750452" y="193.614535" style="fill: #00008b; stroke: #00008b"/>
     <use xlink:href="#m3a86d380eb" x="202.002522" y="155.456284" style="fill: #00008b; stroke: #00008b"/>
     <use xlink:href="#m3a86d380eb" x="203.158971" y="171.28973" style="fill: #00008b; stroke: #00008b"/>
     <use xlink:href="#m3a86d380eb" x="204.064294" y="179.971744" style="fill: #00008b; stroke: #00008b"/>
     <use xlink:href="#m3a86d380eb" x="204.969756" y="186.024486" style="fill: #00008b; stroke: #00008b"/>
     <use xlink:href="#m3a86d380eb" x="205.875295" y="185.645566" style="fill: #00008b; stroke: #00008b"/>
     <use xlink:href="#m3a86d380eb" x="206.780883" y="178.536049" style="fill: #00008b; stroke: #00008b"/>
     <use xlink:href="#m3a86d380eb" x="207.686501" y="179.645135" style="fill: #00008b; stroke: #00008b"/>
     <use xlink:href="#m3a86d380eb" x="208.592136" y="181.303891" style="fill: #00008b; stroke: #00008b"/>
     <use xlink:href="#m3a86d380eb" x="209.497785" y="183.58886" style="fill: #00008b; stroke: #00008b"/>
     <use xlink:href="#m3a86d380eb" x="210.403442" y="185.382043" style="fill: #00008b; stroke: #00008b"/>
     <use xlink:href="#m3a86d380eb" x="211.309104" y="186.568392" style="fill: #00008b; stroke: #00008b"/>
     <use xlink:href="#m3a86d380eb" x="212.214771" y="187.20765" style="fill: #00008b; stroke: #00008b"/>
     <use xlink:href="#m3a86d380eb" x="213.120441" y="187.557894" style="fill: #00008b; stroke: #00008b"/>
     <use xlink:href="#m3a86d380eb" x="214.026112" y="187.750926" style="fill: #00008b; stroke: #00008b"/>
     <use xlink:href="#m3a86d380eb" x="214.931786" y="187.863903" style="fill: #00008b; stroke: #00008b"/>
     <use xlink:href="#m3a86d380eb" x="215.837461" y="187.948067" style="fill: #00008b; stroke: #00008b"/>
     <use xlink:href="#m3a86d380eb" x="216.743137" y="191.975531" style="fill: #00008b; stroke: #00008b"/>
     <use xlink:href="#m3a86d380eb" x="217.648814" y="192.186213" style="fill: #00008b; stroke: #00008b"/>
     <use xlink:href="#m3a86d380eb" x="218.55449" y="195.280863" style="fill: #00008b; stroke: #00008b"/>
     <use xlink:href="#m3a86d380eb" x="219.460168" y="198.359506" style="fill: #00008b; stroke: #00008b"/>
     <use xlink:href="#m3a86d380eb" x="220.365846" y="201.559024" style="fill: #00008b; stroke: #00008b"/>
     <use xlink:href="#m3a86d380eb" x="221.271524" y="204.753092" style="fill: #00008b; stroke: #00008b"/>
     <use xlink:href="#m3a86d380eb" x="222.177202" y="207.589877" style="fill: #00008b; stroke: #00008b"/>
     <use xlink:href="#m3a86d380eb" x="223.082879" y="211.274296" style="fill: #00008b; stroke: #00008b"/>
     <use xlink:href="#m3a86d380eb" x="223.988557" y="212.408909" style="fill: #00008b; stroke: #00008b"/>
     <use xlink:href="#m3a86d380eb" x="224.894235" y="202.357853" style="fill: #00008b; stroke: #00008b"/>
     <use xlink:href="#m3a86d380eb" x="225.799912" y="200.155876" style="fill: #00008b; stroke: #00008b"/>
     <use xlink:href="#m3a86d380eb" x="226.705589" y="149.217298" style="fill: #00008b; stroke: #00008b"/>
     <use xlink:href="#m3a86d380eb" x="227.611265" y="152.381755" style="fill: #00008b; stroke: #00008b"/>
     <use xlink:href="#m3a86d380eb" x="228.516942" y="153.61793" style="fill: #00008b; stroke: #00008b"/>
     <use xlink:href="#m3a86d380eb" x="229.422617" y="178.548323" style="fill: #00008b; stroke: #00008b"/>
     <use xlink:href="#m3a86d380eb" x="230.328292" y="178.98712" style="fill: #00008b; stroke: #00008b"/>
     <use xlink:href="#m3a86d380eb" x="231.233967" y="179.251359" style="fill: #00008b; stroke: #00008b"/>
     <use xlink:href="#m3a86d380eb" x="232.139641" y="179.412427" style="fill: #00008b; stroke: #00008b"/>
     <use xlink:href="#m3a86d380eb" x="233.045314" y="179.50112" style="fill: #00008b; stroke: #00008b"/>
     <use xlink:href="#m3a86d380eb" x="233.950986" y="179.52091" style="fill: #00008b; stroke: #00008b"/>
     <use xlink:href="#m3a86d380eb" x="234.856657" y="179.472817" style="fill: #00008b; stroke: #00008b"/>
     <use xlink:href="#m3a86d380eb" x="235.762327" y="183.927868" style="fill: #00008b; stroke: #00008b"/>
     <use xlink:href="#m3a86d380eb" x="236.667996" y="183.870503" style="fill: #00008b; stroke: #00008b"/>
     <use xlink:href="#m3a86d380eb" x="237.573664" y="183.74035" style="fill: #00008b; stroke: #00008b"/>
     <use xlink:href="#m3a86d380eb" x="238.47933" y="187.267897" style="fill: #00008b; stroke: #00008b"/>
     <use xlink:href="#m3a86d380eb" x="239.384995" y="187.173974" style="fill: #00008b; stroke: #00008b"/>
     <use xlink:href="#m3a86d380eb" x="240.290658" y="187.013172" style="fill: #00008b; stroke: #00008b"/>
     <use xlink:href="#m3a86d380eb" x="241.196319" y="191.285196" style="fill: #00008b; stroke: #00008b"/>
     <use xlink:href="#m3a86d380eb" x="242.101979" y="191.300314" style="fill: #00008b; stroke: #00008b"/>
     <use xlink:href="#m3a86d380eb" x="243.007636" y="194.168249" style="fill: #00008b; stroke: #00008b"/>
     <use xlink:href="#m3a86d380eb" x="243.913291" y="196.731656" style="fill: #00008b; stroke: #00008b"/>
     <use xlink:href="#m3a86d380eb" x="244.818944" y="196.660595" style="fill: #00008b; stroke: #00008b"/>
     <use xlink:href="#m3a86d380eb" x="245.724594" y="199.235472" style="fill: #00008b; stroke: #00008b"/>
     <use xlink:href="#m3a86d380eb" x="246.630241" y="201.689669" style="fill: #00008b; stroke: #00008b"/>
     <use xlink:href="#m3a86d380eb" x="247.535885" y="203.656619" style="fill: #00008b; stroke: #00008b"/>
     <use xlink:href="#m3a86d380eb" x="248.441528" y="205.201132" style="fill: #00008b; stroke: #00008b"/>
     <use xlink:href="#m3a86d380eb" x="249.347167" y="206.459916" style="fill: #00008b; stroke: #00008b"/>
     <use xlink:href="#m3a86d380eb" x="250.252805" y="206.6226" style="fill: #00008b; stroke: #00008b"/>
     <use xlink:href="#m3a86d380eb" x="251.15844" y="208.07524" style="fill: #00008b; stroke: #00008b"/>
     <use xlink:href="#m3a86d380eb" x="252.064074" y="208.842317" style="fill: #00008b; stroke: #00008b"/>
     <use xlink:href="#m3a86d380eb" x="252.969706" y="209.900252" style="fill: #00008b; stroke: #00008b"/>
     <use xlink:href="#m3a86d380eb" x="253.875338" y="211.124719" style="fill: #00008b; stroke: #00008b"/>
     <use xlink:href="#m3a86d380eb" x="254.780968" y="212.575076" style="fill: #00008b; stroke: #00008b"/>
     <use xlink:href="#m3a86d380eb" x="255.686601" y="214.967509" style="fill: #00008b; stroke: #00008b"/>
     <use xlink:href="#m3a86d380eb" x="256.592233" y="217.280884" style="fill: #00008b; stroke: #00008b"/>
     <use xlink:href="#m3a86d380eb" x="257.497868" y="217.78232" style="fill: #00008b; stroke: #00008b"/>
     <use xlink:href="#m3a86d380eb" x="258.403504" y="215.581145" style="fill: #00008b; stroke: #00008b"/>
     <use xlink:href="#m3a86d380eb" x="259.309143" y="210.768939" style="fill: #00008b; stroke: #00008b"/>
     <use xlink:href="#m3a86d380eb" x="260.214786" y="201.198152" style="fill: #00008b; stroke: #00008b"/>
     <use xlink:href="#m3a86d380eb" x="262.026082" y="185.740708" style="fill: #00008b; stroke: #00008b"/>
     <use xlink:href="#m3a86d380eb" x="262.931736" y="165.517119" style="fill: #00008b; stroke: #00008b"/>
     <use xlink:href="#m3a86d380eb" x="263.837394" y="197.760164" style="fill: #00008b; stroke: #00008b"/>
     <use xlink:href="#m3a86d380eb" x="264.743055" y="207.639842" style="fill: #00008b; stroke: #00008b"/>
     <use xlink:href="#m3a86d380eb" x="265.64872" y="218.573517" style="fill: #00008b; stroke: #00008b"/>
     <use xlink:href="#m3a86d380eb" x="266.554388" y="213.245243" style="fill: #00008b; stroke: #00008b"/>
     <use xlink:href="#m3a86d380eb" x="267.46006" y="214.310219" style="fill: #00008b; stroke: #00008b"/>
     <use xlink:href="#m3a86d380eb" x="268.365734" y="213.094116" style="fill: #00008b; stroke: #00008b"/>
     <use xlink:href="#m3a86d380eb" x="269.27141" y="212.977582" style="fill: #00008b; stroke: #00008b"/>
     <use xlink:href="#m3a86d380eb" x="270.177089" y="212.834744" style="fill: #00008b; stroke: #00008b"/>
     <use xlink:href="#m3a86d380eb" x="271.08277" y="212.637471" style="fill: #00008b; stroke: #00008b"/>
     <use xlink:href="#m3a86d380eb" x="271.988452" y="212.405299" style="fill: #00008b; stroke: #00008b"/>
     <use xlink:href="#m3a86d380eb" x="272.894136" y="212.145021" style="fill: #00008b; stroke: #00008b"/>
     <use xlink:href="#m3a86d380eb" x="273.799822" y="211.854192" style="fill: #00008b; stroke: #00008b"/>
     <use xlink:href="#m3a86d380eb" x="274.705508" y="209.847259" style="fill: #00008b; stroke: #00008b"/>
     <use xlink:href="#m3a86d380eb" x="275.611196" y="209.531892" style="fill: #00008b; stroke: #00008b"/>
     <use xlink:href="#m3a86d380eb" x="276.516885" y="209.196972" style="fill: #00008b; stroke: #00008b"/>
     <use xlink:href="#m3a86d380eb" x="277.422574" y="208.838836" style="fill: #00008b; stroke: #00008b"/>
     <use xlink:href="#m3a86d380eb" x="278.328264" y="208.464757" style="fill: #00008b; stroke: #00008b"/>
     <use xlink:href="#m3a86d380eb" x="279.233955" y="208.070656" style="fill: #00008b; stroke: #00008b"/>
     <use xlink:href="#m3a86d380eb" x="280.139646" y="207.651204" style="fill: #00008b; stroke: #00008b"/>
     <use xlink:href="#m3a86d380eb" x="281.045338" y="204.985503" style="fill: #00008b; stroke: #00008b"/>
     <use xlink:href="#m3a86d380eb" x="281.951031" y="204.55352" style="fill: #00008b; stroke: #00008b"/>
     <use xlink:href="#m3a86d380eb" x="282.856723" y="204.085087" style="fill: #00008b; stroke: #00008b"/>
     <use xlink:href="#m3a86d380eb" x="283.762416" y="203.579261" style="fill: #00008b; stroke: #00008b"/>
     <use xlink:href="#m3a86d380eb" x="284.668109" y="203.035468" style="fill: #00008b; stroke: #00008b"/>
     <use xlink:href="#m3a86d380eb" x="285.573803" y="199.477951" style="fill: #00008b; stroke: #00008b"/>
     <use xlink:href="#m3a86d380eb" x="286.479496" y="198.871296" style="fill: #00008b; stroke: #00008b"/>
     <use xlink:href="#m3a86d380eb" x="287.38519" y="198.221111" style="fill: #00008b; stroke: #00008b"/>
     <use xlink:href="#m3a86d380eb" x="288.290885" y="197.524779" style="fill: #00008b; stroke: #00008b"/>
     <use xlink:href="#m3a86d380eb" x="289.196579" y="192.498184" style="fill: #00008b; stroke: #00008b"/>
     <use xlink:href="#m3a86d380eb" x="290.102273" y="191.71863" style="fill: #00008b; stroke: #00008b"/>
     <use xlink:href="#m3a86d380eb" x="291.007968" y="190.88681" style="fill: #00008b; stroke: #00008b"/>
     <use xlink:href="#m3a86d380eb" x="291.913663" y="189.996351" style="fill: #00008b; stroke: #00008b"/>
     <use xlink:href="#m3a86d380eb" x="292.819357" y="181.53988" style="fill: #00008b; stroke: #00008b"/>
     <use xlink:href="#m3a86d380eb" x="293.725052" y="180.513988" style="fill: #00008b; stroke: #00008b"/>
     <use xlink:href="#m3a86d380eb" x="294.630747" y="179.43218" style="fill: #00008b; stroke: #00008b"/>
     <use xlink:href="#m3a86d380eb" x="295.536442" y="168.728085" style="fill: #00008b; stroke: #00008b"/>
     <use xlink:href="#m3a86d380eb" x="296.442137" y="167.464251" style="fill: #00008b; stroke: #00008b"/>
     <use xlink:href="#m3a86d380eb" x="297.347833" y="166.04885" style="fill: #00008b; stroke: #00008b"/>
     <use xlink:href="#m3a86d380eb" x="298.253528" y="149.950178" style="fill: #00008b; stroke: #00008b"/>
     <use xlink:href="#m3a86d380eb" x="299.159223" y="148.153807" style="fill: #00008b; stroke: #00008b"/>
     <use xlink:href="#m3a86d380eb" x="300.064918" y="146.146902" style="fill: #00008b; stroke: #00008b"/>
     <use xlink:href="#m3a86d380eb" x="300.970614" y="143.920773" style="fill: #00008b; stroke: #00008b"/>
     <use xlink:href="#m3a86d380eb" x="301.876309" y="141.458882" style="fill: #00008b; stroke: #00008b"/>
     <use xlink:href="#m3a86d380eb" x="302.782005" y="60.359404" style="fill: #00008b; stroke: #00008b"/>
     <use xlink:href="#m3a86d380eb" x="303.6877" y="57.280664" style="fill: #00008b; stroke: #00008b"/>
     <use xlink:href="#m3a86d380eb" x="304.593396" y="53.593854" style="fill: #00008b; stroke: #00008b"/>
     <use xlink:href="#m3a86d380eb" x="305.499092" y="49.606296" style="fill: #00008b; stroke: #00008b"/>
     <use xlink:href="#m3a86d380eb" x="306.404787" y="45.370657" style="fill: #00008b; stroke: #00008b"/>
     <use xlink:href="#m3a86d380eb" x="307.310483" y="40.521571" style="fill: #00008b; stroke: #00008b"/>
     <use xlink:href="#m3a86d380eb" x="324.518703" y="177.025567" style="fill: #00008b; stroke: #00008b"/>
     <use xlink:href="#m3a86d380eb" x="325.424399" y="191.198977" style="fill: #00008b; stroke: #00008b"/>
     <use xlink:href="#m3a86d380eb" x="326.330095" y="203.355188" style="fill: #00008b; stroke: #00008b"/>
     <use xlink:href="#m3a86d380eb" x="327.235791" y="209.142128" style="fill: #00008b; stroke: #00008b"/>
     <use xlink:href="#m3a86d380eb" x="328.141487" y="212.310541" style="fill: #00008b; stroke: #00008b"/>
     <use xlink:href="#m3a86d380eb" x="329.047183" y="214.300594" style="fill: #00008b; stroke: #00008b"/>
     <use xlink:href="#m3a86d380eb" x="329.952879" y="215.636759" style="fill: #00008b; stroke: #00008b"/>
     <use xlink:href="#m3a86d380eb" x="330.858575" y="216.588809" style="fill: #00008b; stroke: #00008b"/>
     <use xlink:href="#m3a86d380eb" x="331.764271" y="217.272726" style="fill: #00008b; stroke: #00008b"/>
     <use xlink:href="#m3a86d380eb" x="332.669967" y="217.759845" style="fill: #00008b; stroke: #00008b"/>
     <use xlink:href="#m3a86d380eb" x="333.575663" y="218.12366" style="fill: #00008b; stroke: #00008b"/>
     <use xlink:href="#m3a86d380eb" x="334.481359" y="218.394559" style="fill: #00008b; stroke: #00008b"/>
     <use xlink:href="#m3a86d380eb" x="335.387055" y="218.590322" style="fill: #00008b; stroke: #00008b"/>
     <use xlink:href="#m3a86d380eb" x="336.292751" y="218.725665" style="fill: #00008b; stroke: #00008b"/>
     <use xlink:href="#m3a86d380eb" x="337.198446" y="218.813673" style="fill: #00008b; stroke: #00008b"/>
     <use xlink:href="#m3a86d380eb" x="338.104142" y="218.864278" style="fill: #00008b; stroke: #00008b"/>
     <use xlink:href="#m3a86d380eb" x="339.009838" y="218.88" style="fill: #00008b; stroke: #00008b"/>
     <use xlink:href="#m3a86d380eb" x="339.915534" y="218.871631" style="fill: #00008b; stroke: #00008b"/>
     <use xlink:href="#m3a86d380eb" x="340.82123" y="218.842373" style="fill: #00008b; stroke: #00008b"/>
     <use xlink:href="#m3a86d380eb" x="341.726926" y="218.787637" style="fill: #00008b; stroke: #00008b"/>
     <use xlink:href="#m3a86d380eb" x="342.632622" y="218.720399" style="fill: #00008b; stroke: #00008b"/>
     <use xlink:href="#m3a86d380eb" x="343.538318" y="218.644769" style="fill: #00008b; stroke: #00008b"/>
     <use xlink:href="#m3a86d380eb" x="344.444014" y="218.550711" style="fill: #00008b; stroke: #00008b"/>
     <use xlink:href="#m3a86d380eb" x="345.34971" y="218.434585" style="fill: #00008b; stroke: #00008b"/>
     <use xlink:href="#m3a86d380eb" x="346.255406" y="218.314257" style="fill: #00008b; stroke: #00008b"/>
     <use xlink:href="#m3a86d380eb" x="347.161103" y="218.194103" style="fill: #00008b; stroke: #00008b"/>
     <use xlink:href="#m3a86d380eb" x="348.066798" y="218.061525" style="fill: #00008b; stroke: #00008b"/>
     <use xlink:href="#m3a86d380eb" x="348.972495" y="217.929356" style="fill: #00008b; stroke: #00008b"/>
     <use xlink:href="#m3a86d380eb" x="349.878191" y="217.778181" style="fill: #00008b; stroke: #00008b"/>
     <use xlink:href="#m3a86d380eb" x="350.783887" y="217.613161" style="fill: #00008b; stroke: #00008b"/>
     <use xlink:href="#m3a86d380eb" x="351.689583" y="217.45518" style="fill: #00008b; stroke: #00008b"/>
     <use xlink:href="#m3a86d380eb" x="352.595279" y="215.296589" style="fill: #00008b; stroke: #00008b"/>
     <use xlink:href="#m3a86d380eb" x="353.500975" y="215.102951" style="fill: #00008b; stroke: #00008b"/>
     <use xlink:href="#m3a86d380eb" x="354.406671" y="214.896559" style="fill: #00008b; stroke: #00008b"/>
     <use xlink:href="#m3a86d380eb" x="355.312367" y="214.697378" style="fill: #00008b; stroke: #00008b"/>
     <use xlink:href="#m3a86d380eb" x="356.218063" y="214.52578" style="fill: #00008b; stroke: #00008b"/>
     <use xlink:href="#m3a86d380eb" x="357.123759" y="214.376116" style="fill: #00008b; stroke: #00008b"/>
     <use xlink:href="#m3a86d380eb" x="358.029455" y="214.224835" style="fill: #00008b; stroke: #00008b"/>
     <use xlink:href="#m3a86d380eb" x="358.935151" y="214.049861" style="fill: #00008b; stroke: #00008b"/>
     <use xlink:href="#m3a86d380eb" x="359.840847" y="213.906284" style="fill: #00008b; stroke: #00008b"/>
     <use xlink:href="#m3a86d380eb" x="360.746543" y="213.79863" style="fill: #00008b; stroke: #00008b"/>
     <use xlink:href="#m3a86d380eb" x="361.652239" y="213.668958" style="fill: #00008b; stroke: #00008b"/>
     <use xlink:href="#m3a86d380eb" x="362.557935" y="213.500786" style="fill: #00008b; stroke: #00008b"/>
     <use xlink:href="#m3a86d380eb" x="363.463631" y="213.340509" style="fill: #00008b; stroke: #00008b"/>
     <use xlink:href="#m3a86d380eb" x="364.369327" y="213.190011" style="fill: #00008b; stroke: #00008b"/>
     <use xlink:href="#m3a86d380eb" x="365.509791" y="213.01204" style="fill: #00008b; stroke: #00008b"/>
     <use xlink:href="#m3a86d380eb" x="365.74443" y="212.825227" style="fill: #00008b; stroke: #00008b"/>
     <use xlink:href="#m3a86d380eb" x="365.978928" y="210.449612" style="fill: #00008b; stroke: #00008b"/>
     <use xlink:href="#m3a86d380eb" x="366.213334" y="210.047122" style="fill: #00008b; stroke: #00008b"/>
     <use xlink:href="#m3a86d380eb" x="366.447724" y="209.562464" style="fill: #00008b; stroke: #00008b"/>
     <use xlink:href="#m3a86d380eb" x="366.682181" y="202.990776" style="fill: #00008b; stroke: #00008b"/>
     <use xlink:href="#m3a86d380eb" x="366.916729" y="17.28" style="fill: #00008b; stroke: #00008b"/>
    </g>
   </g>
   <g id="line2d_20">
    <path d="M 199.229863 186.44565 
L 198.977803 168.59962 
L 198.725739 168.276288 
L 198.47367 138.422771 
L 198.47367 138.422771 
" clip-path="url(#p7d833468bf)" style="fill: none; stroke: #add8e6; stroke-width: 1.5; stroke-linecap: square"/>
    <defs>
     <path id="m00050fd12e" d="M 0 0.25 
C 0.066301 0.25 0.129895 0.223658 0.176777 0.176777 
C 0.223658 0.129895 0.25 0.066301 0.25 0 
C 0.25 -0.066301 0.223658 -0.129895 0.176777 -0.176777 
C 0.129895 -0.223658 0.066301 -0.25 0 -0.25 
C -0.066301 -0.25 -0.129895 -0.223658 -0.176777 -0.176777 
C -0.223658 -0.129895 -0.25 -0.066301 -0.25 0 
C -0.25 0.066301 -0.223658 0.129895 -0.176777 0.176777 
C -0.129895 0.223658 -0.066301 0.25 0 0.25 
z
" style="stroke: #add8e6"/>
    </defs>
    <g clip-path="url(#p7d833468bf)">
     <use xlink:href="#m00050fd12e" x="199.229863" y="186.44565" style="fill: #add8e6; stroke: #add8e6"/>
     <use xlink:href="#m00050fd12e" x="198.977803" y="168.59962" style="fill: #add8e6; stroke: #add8e6"/>
     <use xlink:href="#m00050fd12e" x="198.725739" y="168.276288" style="fill: #add8e6; stroke: #add8e6"/>
     <use xlink:href="#m00050fd12e" x="198.47367" y="138.422771" style="fill: #add8e6; stroke: #add8e6"/>
    </g>
   </g>
   <g id="patch_3">
    <path d="M 32.586009 228.96 
L 32.586009 7.2 
" style="fill: none; stroke: #000000; stroke-width: 0.8; stroke-linejoin: miter; stroke-linecap: square"/>
   </g>
   <g id="patch_4">
    <path d="M 367.386009 228.96 
L 367.386009 7.2 
" style="fill: none; stroke: #000000; stroke-width: 0.8; stroke-linejoin: miter; stroke-linecap: square"/>
   </g>
   <g id="patch_5">
    <path d="M 32.586009 228.96 
L 367.386009 228.96 
" style="fill: none; stroke: #000000; stroke-width: 0.8; stroke-linejoin: miter; stroke-linecap: square"/>
   </g>
   <g id="patch_6">
    <path d="M 32.586009 7.2 
L 367.386009 7.2 
" style="fill: none; stroke: #000000; stroke-width: 0.8; stroke-linejoin: miter; stroke-linecap: square"/>
   </g>
   <g id="legend_1">
    <g id="patch_7">
     <path d="M 37.586009 58.229654 
L 123.408665 58.229654 
L 123.408665 12.2 
L 37.586009 12.2 
z
" style="fill: #ffffff; opacity: 0.8; stroke: #000000; stroke-linejoin: miter"/>
    </g>
    <g id="line2d_21">
     <path d="M 41.586009 19.982687 
L 51.586009 19.982687 
L 61.586009 19.982687 
" style="fill: none; stroke: #00008b; stroke-width: 1.5; stroke-linecap: square"/>
     <g>
      <use xlink:href="#m3a86d380eb" x="51.586009" y="19.982687" style="fill: #00008b; stroke: #00008b"/>
     </g>
    </g>
    <g id="text_21">
     <!-- SU2 (SS) -->
     <g transform="translate(69.586009 23.482687) scale(0.1 -0.1)">
      <defs>
       <path id="NimbusSanL-Regu-55" d="M 3533 4672 
L 3533 1404 
C 3533 779 3078 396 2330 396 
C 1984 396 1702 479 1478 639 
C 1248 817 1139 1053 1139 1404 
L 1139 4672 
L 544 4672 
L 544 1404 
C 544 460 1222 -128 2330 -128 
C 3424 -128 4128 473 4128 1404 
L 4128 4672 
L 3533 4672 
z
" transform="scale(0.015625)"/>
       <path id="NimbusSanL-Regu-32" d="M 3238 556 
L 851 556 
C 909 928 1114 1165 1670 1493 
L 2310 1839 
C 2944 2185 3270 2653 3270 3211 
C 3270 3589 3117 3942 2848 4185 
C 2579 4428 2246 4544 1818 4544 
C 1242 4544 813 4339 563 3955 
C 403 3711 333 3429 320 2967 
L 883 2967 
C 902 3275 941 3461 1018 3608 
C 1165 3884 1459 4051 1798 4051 
C 2310 4051 2694 3685 2694 3198 
C 2694 2839 2483 2531 2080 2300 
L 1491 1967 
C 544 1428 269 999 218 0 
L 3238 0 
L 3238 556 
z
" transform="scale(0.015625)"/>
       <path id="NimbusSanL-Regu-28" d="M 1510 4672 
C 870 3833 467 2668 467 1663 
C 467 652 870 -513 1510 -1351 
L 1862 -1351 
C 1299 -436 986 639 986 1663 
C 986 2681 1299 3763 1862 4672 
L 1510 4672 
z
" transform="scale(0.015625)"/>
       <path id="NimbusSanL-Regu-29" d="M 595 -1351 
C 1235 -513 1638 652 1638 1657 
C 1638 2668 1235 3833 595 4672 
L 243 4672 
C 806 3756 1120 2681 1120 1657 
C 1120 639 806 -442 243 -1351 
L 595 -1351 
z
" transform="scale(0.015625)"/>
      </defs>
      <use xlink:href="#NimbusSanL-Regu-53" transform="scale(0.996264)"/>
      <use xlink:href="#NimbusSanL-Regu-55" transform="translate(66.450031 0) scale(0.996264)"/>
      <use xlink:href="#NimbusSanL-Regu-32" transform="translate(138.380016 0) scale(0.996264)"/>
      <use xlink:href="#NimbusSanL-Regu-28" transform="translate(221.466863 0) scale(0.996264)"/>
      <use xlink:href="#NimbusSanL-Regu-53" transform="translate(254.642092 0) scale(0.996264)"/>
      <use xlink:href="#NimbusSanL-Regu-53" transform="translate(321.092123 0) scale(0.996264)"/>
      <use xlink:href="#NimbusSanL-Regu-29" transform="translate(387.542155 0) scale(0.996264)"/>
     </g>
    </g>
    <g id="line2d_22">
     <path d="M 41.586009 34.387361 
L 51.586009 34.387361 
L 61.586009 34.387361 
" style="fill: none; stroke: #add8e6; stroke-width: 1.5; stroke-linecap: square"/>
     <g>
      <use xlink:href="#m00050fd12e" x="51.586009" y="34.387361" style="fill: #add8e6; stroke: #add8e6"/>
     </g>
    </g>
    <g id="text_22">
     <!-- SU2 (PS) -->
     <g transform="translate(69.586009 37.887361) scale(0.1 -0.1)">
      <defs>
       <path id="NimbusSanL-Regu-50" d="M 1178 1984 
L 2643 1984 
C 3008 1984 3296 2092 3546 2316 
C 3827 2572 3949 2873 3949 3302 
C 3949 4179 3430 4672 2509 4672 
L 582 4672 
L 582 0 
L 1178 0 
L 1178 1984 
z
M 1178 2508 
L 1178 4147 
L 2419 4147 
C 2989 4147 3328 3839 3328 3327 
C 3328 2816 2989 2508 2419 2508 
L 1178 2508 
z
" transform="scale(0.015625)"/>
      </defs>
      <use xlink:href="#NimbusSanL-Regu-53" transform="scale(0.996264)"/>
      <use xlink:href="#NimbusSanL-Regu-55" transform="translate(66.450031 0) scale(0.996264)"/>
      <use xlink:href="#NimbusSanL-Regu-32" transform="translate(138.380016 0) scale(0.996264)"/>
      <use xlink:href="#NimbusSanL-Regu-28" transform="translate(221.466863 0) scale(0.996264)"/>
      <use xlink:href="#NimbusSanL-Regu-50" transform="translate(254.642092 0) scale(0.996264)"/>
      <use xlink:href="#NimbusSanL-Regu-53" transform="translate(321.092123 0) scale(0.996264)"/>
      <use xlink:href="#NimbusSanL-Regu-29" transform="translate(387.542155 0) scale(0.996264)"/>
     </g>
    </g>
    <g id="PathCollection_2">
     <g>
      <use xlink:href="#mf8fc2354b7" x="51.586009" y="49.482668" style="fill: #ff0000; stroke: #ff0000"/>
     </g>
    </g>
    <g id="text_23">
     <!-- Mises Data -->
     <g transform="translate(69.586009 52.107668) scale(0.1 -0.1)">
      <defs>
       <path id="NimbusSanL-Regu-4d" d="M 2995 0 
L 4307 3915 
L 4307 0 
L 4870 0 
L 4870 4672 
L 4045 4672 
L 2688 602 
L 1306 4672 
L 480 4672 
L 480 0 
L 1043 0 
L 1043 3915 
L 2368 0 
L 2995 0 
z
" transform="scale(0.015625)"/>
       <path id="NimbusSanL-Regu-69" d="M 960 3358 
L 429 3358 
L 429 0 
L 960 0 
L 960 3358 
z
M 960 4672 
L 422 4672 
L 422 3999 
L 960 3999 
L 960 4672 
z
" transform="scale(0.015625)"/>
       <path id="NimbusSanL-Regu-73" d="M 2803 2428 
C 2797 3084 2362 3456 1587 3456 
C 806 3456 301 3052 301 2434 
C 301 1912 570 1663 1363 1472 
L 1862 1351 
C 2234 1262 2381 1129 2381 887 
C 2381 574 2067 364 1600 364 
C 1312 364 1069 447 934 587 
C 851 683 813 778 781 1014 
L 218 1014 
C 243 243 678 -128 1555 -128 
C 2400 -128 2938 288 2938 931 
C 2938 1428 2656 1702 1990 1861 
L 1478 1982 
C 1043 2084 858 2224 858 2459 
C 858 2765 1133 2963 1568 2963 
C 1997 2963 2227 2778 2240 2428 
L 2803 2428 
z
" transform="scale(0.015625)"/>
       <path id="NimbusSanL-Regu-44" d="M 570 0 
L 2368 0 
C 3546 0 4269 883 4269 2339 
C 4269 3788 3552 4672 2368 4672 
L 570 4672 
L 570 0 
z
M 1165 524 
L 1165 4147 
L 2266 4147 
C 3187 4147 3674 3525 3674 2332 
C 3674 1153 3187 524 2266 524 
L 1165 524 
z
" transform="scale(0.015625)"/>
      </defs>
      <use xlink:href="#NimbusSanL-Regu-4d" transform="scale(0.996264)"/>
      <use xlink:href="#NimbusSanL-Regu-69" transform="translate(82.98843 0) scale(0.996264)"/>
      <use xlink:href="#NimbusSanL-Regu-73" transform="translate(105.105215 0) scale(0.996264)"/>
      <use xlink:href="#NimbusSanL-Regu-65" transform="translate(154.918415 0) scale(0.996264)"/>
      <use xlink:href="#NimbusSanL-Regu-73" transform="translate(210.310092 0) scale(0.996264)"/>
      <use xlink:href="#NimbusSanL-Regu-44" transform="translate(287.818462 0) scale(0.996264)"/>
      <use xlink:href="#NimbusSanL-Regu-61" transform="translate(359.748447 0) scale(0.996264)"/>
      <use xlink:href="#NimbusSanL-Regu-74" transform="translate(415.140124 0) scale(0.996264)"/>
      <use xlink:href="#NimbusSanL-Regu-61" transform="translate(442.835294 0) scale(0.996264)"/>
     </g>
    </g>
   </g>
  </g>
 </g>
 <defs>
  <clipPath id="p7d833468bf">
   <rect x="32.586009" y="7.2" width="334.8" height="221.76"/>
  </clipPath>
 </defs>
</svg>
