<?xml version="1.0" encoding="utf-8" standalone="no"?>
<!DOCTYPE svg PUBLIC "-//W3C//DTD SVG 1.1//EN"
  "http://www.w3.org/Graphics/SVG/1.1/DTD/svg11.dtd">
<svg xmlns:xlink="http://www.w3.org/1999/xlink" width="382.150386pt" height="268.626237pt" viewBox="0 0 382.150386 268.626237" xmlns="http://www.w3.org/2000/svg" version="1.1">
 <metadata>
  <rdf:RDF xmlns:dc="http://purl.org/dc/elements/1.1/" xmlns:cc="http://creativecommons.org/ns#" xmlns:rdf="http://www.w3.org/1999/02/22-rdf-syntax-ns#">
   <cc:Work>
    <dc:type rdf:resource="http://purl.org/dc/dcmitype/StillImage"/>
    <dc:date>2025-07-17T20:53:28.841416</dc:date>
    <dc:format>image/svg+xml</dc:format>
    <dc:creator>
     <cc:Agent>
      <dc:title>Matplotlib v3.10.3, https://matplotlib.org/</dc:title>
     </cc:Agent>
    </dc:creator>
   </cc:Work>
  </rdf:RDF>
 </metadata>
 <defs>
  <style type="text/css">*{stroke-linejoin: round; stroke-linecap: butt}</style>
 </defs>
 <g id="figure_1">
  <g id="patch_1">
   <path d="M 0 268.626237 
L 382.150386 268.626237 
L 382.150386 0 
L 0 0 
z
" style="fill: #ffffff"/>
  </g>
  <g id="axes_1">
   <g id="patch_2">
    <path d="M 40.150386 231.985624 
L 374.950386 231.985624 
L 374.950386 10.225624 
L 40.150386 10.225624 
z
" style="fill: #ffffff"/>
   </g>
   <g id="matplotlib.axis_1">
    <g id="xtick_1">
     <g id="line2d_1">
      <defs>
       <path id="mecc04ad392" d="M 0 0 
L 0 3.5 
" style="stroke: #000000; stroke-width: 0.8"/>
      </defs>
      <g>
       <use xlink:href="#mecc04ad392" x="55.368567" y="231.985624" style="stroke: #000000; stroke-width: 0.8"/>
      </g>
     </g>
     <g id="text_1">
      <!-- $\mathdefault{0}$ -->
      <g transform="translate(52.8779 246.083944) scale(0.1 -0.1)">
       <defs>
        <path id="CMR17-30" d="M 2688 2038 
C 2688 2430 2682 3099 2413 3613 
C 2176 4063 1798 4224 1466 4224 
C 1158 4224 768 4082 525 3620 
C 269 3137 243 2539 243 2038 
C 243 1671 250 1112 448 623 
C 723 -39 1216 -128 1466 -128 
C 1760 -128 2208 -7 2470 604 
C 2662 1048 2688 1568 2688 2038 
z
M 1466 -26 
C 1056 -26 813 328 723 816 
C 653 1196 653 1749 653 2109 
C 653 2604 653 3015 736 3407 
C 858 3954 1216 4121 1466 4121 
C 1728 4121 2067 3947 2189 3420 
C 2272 3054 2278 2623 2278 2109 
C 2278 1691 2278 1176 2202 797 
C 2067 96 1690 -26 1466 -26 
z
" transform="scale(0.015625)"/>
       </defs>
       <use xlink:href="#CMR17-30" transform="scale(0.996264)"/>
      </g>
     </g>
    </g>
    <g id="xtick_2">
     <g id="line2d_2">
      <g>
       <use xlink:href="#mecc04ad392" x="98.855299" y="231.985624" style="stroke: #000000; stroke-width: 0.8"/>
      </g>
     </g>
     <g id="text_2">
      <!-- $\mathdefault{1000}$ -->
      <g transform="translate(88.892629 246.083944) scale(0.1 -0.1)">
       <defs>
        <path id="CMR17-31" d="M 1702 4083 
C 1702 4217 1696 4224 1606 4224 
C 1357 3927 979 3833 621 3820 
C 602 3820 570 3820 563 3808 
C 557 3795 557 3782 557 3648 
C 755 3648 1088 3686 1344 3839 
L 1344 467 
C 1344 243 1331 166 781 166 
L 589 166 
L 589 0 
C 896 6 1216 12 1523 12 
C 1830 12 2150 6 2458 0 
L 2458 166 
L 2266 166 
C 1715 166 1702 236 1702 467 
L 1702 4083 
z
" transform="scale(0.015625)"/>
       </defs>
       <use xlink:href="#CMR17-31" transform="scale(0.996264)"/>
       <use xlink:href="#CMR17-30" transform="translate(45.690477 0) scale(0.996264)"/>
       <use xlink:href="#CMR17-30" transform="translate(91.380954 0) scale(0.996264)"/>
       <use xlink:href="#CMR17-30" transform="translate(137.071431 0) scale(0.996264)"/>
      </g>
     </g>
    </g>
    <g id="xtick_3">
     <g id="line2d_3">
      <g>
       <use xlink:href="#mecc04ad392" x="142.342031" y="231.985624" style="stroke: #000000; stroke-width: 0.8"/>
      </g>
     </g>
     <g id="text_3">
      <!-- $\mathdefault{2000}$ -->
      <g transform="translate(132.379361 246.083944) scale(0.1 -0.1)">
       <defs>
        <path id="CMR17-32" d="M 2669 990 
L 2554 990 
C 2490 537 2438 460 2413 422 
C 2381 371 1920 371 1830 371 
L 602 371 
C 832 620 1280 1073 1824 1596 
C 2214 1966 2669 2400 2669 3033 
C 2669 3788 2067 4224 1395 4224 
C 691 4224 262 3603 262 3027 
C 262 2777 448 2745 525 2745 
C 589 2745 781 2783 781 3007 
C 781 3206 614 3264 525 3264 
C 486 3264 448 3257 422 3244 
C 544 3788 915 4057 1306 4057 
C 1862 4057 2227 3616 2227 3033 
C 2227 2477 1901 1998 1536 1583 
L 262 147 
L 262 0 
L 2515 0 
L 2669 990 
z
" transform="scale(0.015625)"/>
       </defs>
       <use xlink:href="#CMR17-32" transform="scale(0.996264)"/>
       <use xlink:href="#CMR17-30" transform="translate(45.690477 0) scale(0.996264)"/>
       <use xlink:href="#CMR17-30" transform="translate(91.380954 0) scale(0.996264)"/>
       <use xlink:href="#CMR17-30" transform="translate(137.071431 0) scale(0.996264)"/>
      </g>
     </g>
    </g>
    <g id="xtick_4">
     <g id="line2d_4">
      <g>
       <use xlink:href="#mecc04ad392" x="185.828763" y="231.985624" style="stroke: #000000; stroke-width: 0.8"/>
      </g>
     </g>
     <g id="text_4">
      <!-- $\mathdefault{3000}$ -->
      <g transform="translate(175.866093 246.083944) scale(0.1 -0.1)">
       <defs>
        <path id="CMR17-33" d="M 1414 2176 
C 1984 2176 2234 1673 2234 1094 
C 2234 322 1824 25 1453 25 
C 1114 25 563 193 390 691 
C 422 678 454 678 486 678 
C 640 678 755 780 755 947 
C 755 1132 614 1216 486 1216 
C 378 1216 211 1164 211 927 
C 211 335 787 -128 1466 -128 
C 2176 -128 2720 432 2720 1087 
C 2720 1718 2208 2176 1600 2246 
C 2086 2347 2554 2776 2554 3353 
C 2554 3856 2048 4224 1472 4224 
C 890 4224 378 3862 378 3347 
C 378 3123 544 3084 627 3084 
C 762 3084 877 3167 877 3334 
C 877 3500 762 3584 627 3584 
C 602 3584 570 3584 544 3571 
C 730 3999 1235 4076 1459 4076 
C 1683 4076 2106 3966 2106 3347 
C 2106 3167 2080 2851 1862 2574 
C 1670 2329 1453 2316 1242 2297 
C 1210 2297 1062 2284 1037 2284 
C 992 2278 966 2272 966 2227 
C 966 2182 973 2176 1101 2176 
L 1414 2176 
z
" transform="scale(0.015625)"/>
       </defs>
       <use xlink:href="#CMR17-33" transform="scale(0.996264)"/>
       <use xlink:href="#CMR17-30" transform="translate(45.690477 0) scale(0.996264)"/>
       <use xlink:href="#CMR17-30" transform="translate(91.380954 0) scale(0.996264)"/>
       <use xlink:href="#CMR17-30" transform="translate(137.071431 0) scale(0.996264)"/>
      </g>
     </g>
    </g>
    <g id="xtick_5">
     <g id="line2d_5">
      <g>
       <use xlink:href="#mecc04ad392" x="229.315495" y="231.985624" style="stroke: #000000; stroke-width: 0.8"/>
      </g>
     </g>
     <g id="text_5">
      <!-- $\mathdefault{4000}$ -->
      <g transform="translate(219.352824 246.083944) scale(0.1 -0.1)">
       <defs>
        <path id="CMR17-34" d="M 2150 4147 
C 2150 4281 2144 4288 2029 4288 
L 128 1254 
L 128 1088 
L 1779 1088 
L 1779 460 
C 1779 230 1766 166 1318 166 
L 1197 166 
L 1197 0 
C 1402 12 1747 12 1965 12 
C 2182 12 2528 12 2733 0 
L 2733 166 
L 2611 166 
C 2163 166 2150 230 2150 460 
L 2150 1088 
L 2803 1088 
L 2803 1254 
L 2150 1254 
L 2150 4147 
z
M 1798 3723 
L 1798 1254 
L 256 1254 
L 1798 3723 
z
" transform="scale(0.015625)"/>
       </defs>
       <use xlink:href="#CMR17-34" transform="scale(0.996264)"/>
       <use xlink:href="#CMR17-30" transform="translate(45.690477 0) scale(0.996264)"/>
       <use xlink:href="#CMR17-30" transform="translate(91.380954 0) scale(0.996264)"/>
       <use xlink:href="#CMR17-30" transform="translate(137.071431 0) scale(0.996264)"/>
      </g>
     </g>
    </g>
    <g id="xtick_6">
     <g id="line2d_6">
      <g>
       <use xlink:href="#mecc04ad392" x="272.802227" y="231.985624" style="stroke: #000000; stroke-width: 0.8"/>
      </g>
     </g>
     <g id="text_6">
      <!-- $\mathdefault{5000}$ -->
      <g transform="translate(262.839556 246.083944) scale(0.1 -0.1)">
       <defs>
        <path id="CMR17-35" d="M 730 3750 
C 794 3724 1056 3641 1325 3641 
C 1920 3641 2246 3961 2432 4140 
C 2432 4191 2432 4224 2394 4224 
C 2387 4224 2374 4224 2323 4198 
C 2099 4102 1837 4032 1517 4032 
C 1325 4032 1037 4055 723 4191 
C 653 4224 640 4224 634 4224 
C 602 4224 595 4217 595 4090 
L 595 2231 
C 595 2113 595 2080 659 2080 
C 691 2080 704 2093 736 2139 
C 941 2435 1222 2560 1542 2560 
C 1766 2560 2246 2415 2246 1293 
C 2246 1087 2246 716 2054 422 
C 1894 159 1645 25 1370 25 
C 947 25 518 319 403 812 
C 429 806 480 793 506 793 
C 589 793 749 838 749 1036 
C 749 1209 627 1280 506 1280 
C 358 1280 262 1190 262 1011 
C 262 454 704 -128 1382 -128 
C 2042 -128 2669 441 2669 1267 
C 2669 2054 2170 2662 1549 2662 
C 1222 2662 947 2540 730 2304 
L 730 3750 
z
" transform="scale(0.015625)"/>
       </defs>
       <use xlink:href="#CMR17-35" transform="scale(0.996264)"/>
       <use xlink:href="#CMR17-30" transform="translate(45.690477 0) scale(0.996264)"/>
       <use xlink:href="#CMR17-30" transform="translate(91.380954 0) scale(0.996264)"/>
       <use xlink:href="#CMR17-30" transform="translate(137.071431 0) scale(0.996264)"/>
      </g>
     </g>
    </g>
    <g id="xtick_7">
     <g id="line2d_7">
      <g>
       <use xlink:href="#mecc04ad392" x="316.288959" y="231.985624" style="stroke: #000000; stroke-width: 0.8"/>
      </g>
     </g>
     <g id="text_7">
      <!-- $\mathdefault{6000}$ -->
      <g transform="translate(306.326288 246.083944) scale(0.1 -0.1)">
       <defs>
        <path id="CMR17-36" d="M 678 2198 
C 678 3712 1395 4076 1811 4076 
C 1946 4076 2272 4049 2400 3782 
C 2298 3782 2106 3782 2106 3558 
C 2106 3385 2246 3328 2336 3328 
C 2394 3328 2566 3353 2566 3571 
C 2566 3987 2246 4224 1805 4224 
C 1043 4224 243 3411 243 2011 
C 243 257 966 -128 1478 -128 
C 2099 -128 2688 431 2688 1295 
C 2688 2101 2170 2688 1517 2688 
C 1126 2688 838 2430 678 1979 
L 678 2198 
z
M 1478 25 
C 691 25 691 1212 691 1450 
C 691 1914 909 2585 1504 2585 
C 1613 2585 1926 2585 2138 2140 
C 2253 1889 2253 1624 2253 1302 
C 2253 954 2253 696 2118 438 
C 1978 173 1773 25 1478 25 
z
" transform="scale(0.015625)"/>
       </defs>
       <use xlink:href="#CMR17-36" transform="scale(0.996264)"/>
       <use xlink:href="#CMR17-30" transform="translate(45.690477 0) scale(0.996264)"/>
       <use xlink:href="#CMR17-30" transform="translate(91.380954 0) scale(0.996264)"/>
       <use xlink:href="#CMR17-30" transform="translate(137.071431 0) scale(0.996264)"/>
      </g>
     </g>
    </g>
    <g id="xtick_8">
     <g id="line2d_8">
      <g>
       <use xlink:href="#mecc04ad392" x="359.775691" y="231.985624" style="stroke: #000000; stroke-width: 0.8"/>
      </g>
     </g>
     <g id="text_8">
      <!-- $\mathdefault{7000}$ -->
      <g transform="translate(349.81302 246.083944) scale(0.1 -0.1)">
       <defs>
        <path id="CMR17-37" d="M 2886 3955 
L 2886 4096 
L 1382 4096 
C 634 4096 621 4166 595 4288 
L 480 4288 
L 294 3104 
L 410 3104 
C 429 3226 474 3552 550 3673 
C 589 3724 1062 3724 1171 3724 
L 2579 3724 
L 1869 2670 
C 1395 1961 1069 1003 1069 166 
C 1069 89 1069 -128 1299 -128 
C 1530 -128 1530 89 1530 172 
L 1530 466 
C 1530 1514 1709 2204 2003 2644 
L 2886 3955 
z
" transform="scale(0.015625)"/>
       </defs>
       <use xlink:href="#CMR17-37" transform="scale(0.996264)"/>
       <use xlink:href="#CMR17-30" transform="translate(45.690477 0) scale(0.996264)"/>
       <use xlink:href="#CMR17-30" transform="translate(91.380954 0) scale(0.996264)"/>
       <use xlink:href="#CMR17-30" transform="translate(137.071431 0) scale(0.996264)"/>
      </g>
     </g>
    </g>
    <g id="text_9">
     <!-- Iteration -->
     <g transform="translate(189.603009 259.304251) scale(0.1 -0.1)">
      <defs>
       <path id="NimbusSanL-Regu-49" d="M 1242 4672 
L 640 4672 
L 640 0 
L 1242 0 
L 1242 4672 
z
" transform="scale(0.015625)"/>
       <path id="NimbusSanL-Regu-74" d="M 1626 3328 
L 1075 3328 
L 1075 4249 
L 544 4249 
L 544 3328 
L 90 3328 
L 90 2892 
L 544 2892 
L 544 402 
C 544 64 774 -128 1190 -128 
C 1318 -128 1446 -116 1626 -84 
L 1626 364 
C 1555 345 1472 339 1370 339 
C 1139 339 1075 402 1075 634 
L 1075 2892 
L 1626 2892 
L 1626 3328 
z
" transform="scale(0.015625)"/>
       <path id="NimbusSanL-Regu-65" d="M 3283 1484 
C 3283 1998 3245 2311 3149 2565 
C 2931 3123 2419 3456 1792 3456 
C 858 3456 256 2734 256 1619 
C 256 545 838 -128 1779 -128 
C 2547 -128 3078 307 3213 1018 
L 2675 1018 
C 2528 588 2227 364 1798 364 
C 1459 364 1171 514 992 787 
C 864 974 819 1161 813 1484 
L 3283 1484 
z
M 826 1920 
C 870 2552 1248 2963 1786 2963 
C 2310 2963 2714 2519 2714 1959 
C 2714 1946 2714 1933 2707 1920 
L 826 1920 
z
" transform="scale(0.015625)"/>
       <path id="NimbusSanL-Regu-72" d="M 442 3328 
L 442 0 
L 979 0 
L 979 1727 
C 979 2203 1101 2514 1357 2698 
C 1523 2819 1683 2857 2054 2863 
L 2054 3404 
C 1965 3449 1920 3456 1850 3456 
C 1504 3456 1242 3251 934 2750 
L 934 3328 
L 442 3328 
z
" transform="scale(0.015625)"/>
       <path id="NimbusSanL-Regu-61" d="M 3424 332 
C 3366 320 3341 320 3309 320 
C 3123 320 3021 415 3021 581 
L 3021 2542 
C 3021 3135 2586 3456 1760 3456 
C 1274 3456 870 3315 646 3065 
C 493 2893 429 2702 416 2370 
L 954 2370 
C 998 2778 1242 2963 1741 2963 
C 2221 2963 2490 2784 2490 2466 
L 2490 2326 
C 2490 2103 2355 2007 1933 1956 
C 1178 1861 1062 1835 858 1753 
C 467 1593 269 1294 269 861 
C 269 256 691 -128 1370 -128 
C 1792 -128 2131 19 2509 364 
C 2547 25 2714 -128 3059 -128 
C 3168 -128 3251 -116 3424 -71 
L 3424 332 
z
M 2490 1071 
C 2490 893 2438 785 2278 638 
C 2061 441 1798 339 1485 339 
C 1069 339 826 536 826 874 
C 826 1224 1062 1402 1632 1485 
C 2195 1562 2310 1587 2490 1670 
L 2490 1071 
z
" transform="scale(0.015625)"/>
       <path id="NimbusSanL-Regu-69" d="M 960 3358 
L 429 3358 
L 429 0 
L 960 0 
L 960 3358 
z
M 960 4672 
L 422 4672 
L 422 3999 
L 960 3999 
L 960 4672 
z
" transform="scale(0.015625)"/>
       <path id="NimbusSanL-Regu-6f" d="M 1741 3456 
C 800 3456 230 2784 230 1663 
C 230 543 794 -128 1747 -128 
C 2688 -128 3264 543 3264 1638 
C 3264 2791 2707 3456 1741 3456 
z
M 1747 2963 
C 2349 2963 2707 2472 2707 1644 
C 2707 861 2336 364 1747 364 
C 1152 364 787 855 787 1663 
C 787 2466 1152 2963 1747 2963 
z
" transform="scale(0.015625)"/>
       <path id="NimbusSanL-Regu-6e" d="M 448 3328 
L 448 0 
L 986 0 
L 986 1835 
C 986 2539 1344 2988 1894 2988 
C 2317 2988 2586 2732 2586 2328 
L 2586 0 
L 3117 0 
L 3117 2539 
C 3117 3097 2701 3456 2054 3456 
C 1555 3456 1235 3263 941 2796 
L 941 3328 
L 448 3328 
z
" transform="scale(0.015625)"/>
      </defs>
      <use xlink:href="#NimbusSanL-Regu-49" transform="scale(0.996264)"/>
      <use xlink:href="#NimbusSanL-Regu-74" transform="translate(27.69517 0) scale(0.996264)"/>
      <use xlink:href="#NimbusSanL-Regu-65" transform="translate(55.390339 0) scale(0.996264)"/>
      <use xlink:href="#NimbusSanL-Regu-72" transform="translate(110.782016 0) scale(0.996264)"/>
      <use xlink:href="#NimbusSanL-Regu-61" transform="translate(142.961149 0) scale(0.996264)"/>
      <use xlink:href="#NimbusSanL-Regu-74" transform="translate(198.352826 0) scale(0.996264)"/>
      <use xlink:href="#NimbusSanL-Regu-69" transform="translate(226.047996 0) scale(0.996264)"/>
      <use xlink:href="#NimbusSanL-Regu-6f" transform="translate(248.16478 0) scale(0.996264)"/>
      <use xlink:href="#NimbusSanL-Regu-6e" transform="translate(303.556457 0) scale(0.996264)"/>
     </g>
    </g>
   </g>
   <g id="matplotlib.axis_2">
    <g id="ytick_1">
     <g id="line2d_9">
      <defs>
       <path id="m215f3f8768" d="M 0 0 
L -3.5 0 
" style="stroke: #000000; stroke-width: 0.8"/>
      </defs>
      <g>
       <use xlink:href="#m215f3f8768" x="40.150386" y="219.439587" style="stroke: #000000; stroke-width: 0.8"/>
      </g>
     </g>
     <g id="text_10">
      <!-- $\mathdefault{−3}$ -->
      <g transform="translate(20.420307 222.988747) scale(0.1 -0.1)">
       <defs>
        <path id="CMSY10-0" d="M 4218 1472 
C 4326 1472 4442 1472 4442 1600 
C 4442 1728 4326 1728 4218 1728 
L 755 1728 
C 646 1728 531 1728 531 1600 
C 531 1472 646 1472 755 1472 
L 4218 1472 
z
" transform="scale(0.015625)"/>
       </defs>
       <use xlink:href="#CMSY10-0" transform="scale(0.996264)"/>
       <use xlink:href="#CMR17-33" transform="translate(77.487468 0) scale(0.996264)"/>
      </g>
     </g>
    </g>
    <g id="ytick_2">
     <g id="line2d_10">
      <g>
       <use xlink:href="#m215f3f8768" x="40.150386" y="193.353283" style="stroke: #000000; stroke-width: 0.8"/>
      </g>
     </g>
     <g id="text_11">
      <!-- $\mathdefault{−2}$ -->
      <g transform="translate(20.420307 196.902443) scale(0.1 -0.1)">
       <use xlink:href="#CMSY10-0" transform="scale(0.996264)"/>
       <use xlink:href="#CMR17-32" transform="translate(77.487468 0) scale(0.996264)"/>
      </g>
     </g>
    </g>
    <g id="ytick_3">
     <g id="line2d_11">
      <g>
       <use xlink:href="#m215f3f8768" x="40.150386" y="167.26698" style="stroke: #000000; stroke-width: 0.8"/>
      </g>
     </g>
     <g id="text_12">
      <!-- $\mathdefault{−1}$ -->
      <g transform="translate(20.420307 170.81614) scale(0.1 -0.1)">
       <use xlink:href="#CMSY10-0" transform="scale(0.996264)"/>
       <use xlink:href="#CMR17-31" transform="translate(77.487468 0) scale(0.996264)"/>
      </g>
     </g>
    </g>
    <g id="ytick_4">
     <g id="line2d_12">
      <g>
       <use xlink:href="#m215f3f8768" x="40.150386" y="141.180677" style="stroke: #000000; stroke-width: 0.8"/>
      </g>
     </g>
     <g id="text_13">
      <!-- $\mathdefault{0}$ -->
      <g transform="translate(28.16905 144.729837) scale(0.1 -0.1)">
       <use xlink:href="#CMR17-30" transform="scale(0.996264)"/>
      </g>
     </g>
    </g>
    <g id="ytick_5">
     <g id="line2d_13">
      <g>
       <use xlink:href="#m215f3f8768" x="40.150386" y="115.094373" style="stroke: #000000; stroke-width: 0.8"/>
      </g>
     </g>
     <g id="text_14">
      <!-- $\mathdefault{1}$ -->
      <g transform="translate(28.16905 118.643534) scale(0.1 -0.1)">
       <use xlink:href="#CMR17-31" transform="scale(0.996264)"/>
      </g>
     </g>
    </g>
    <g id="ytick_6">
     <g id="line2d_14">
      <g>
       <use xlink:href="#m215f3f8768" x="40.150386" y="89.00807" style="stroke: #000000; stroke-width: 0.8"/>
      </g>
     </g>
     <g id="text_15">
      <!-- $\mathdefault{2}$ -->
      <g transform="translate(28.16905 92.55723) scale(0.1 -0.1)">
       <use xlink:href="#CMR17-32" transform="scale(0.996264)"/>
      </g>
     </g>
    </g>
    <g id="ytick_7">
     <g id="line2d_15">
      <g>
       <use xlink:href="#m215f3f8768" x="40.150386" y="62.921767" style="stroke: #000000; stroke-width: 0.8"/>
      </g>
     </g>
     <g id="text_16">
      <!-- $\mathdefault{3}$ -->
      <g transform="translate(28.16905 66.470927) scale(0.1 -0.1)">
       <use xlink:href="#CMR17-33" transform="scale(0.996264)"/>
      </g>
     </g>
    </g>
    <g id="ytick_8">
     <g id="line2d_16">
      <g>
       <use xlink:href="#m215f3f8768" x="40.150386" y="36.835463" style="stroke: #000000; stroke-width: 0.8"/>
      </g>
     </g>
     <g id="text_17">
      <!-- $\mathdefault{4}$ -->
      <g transform="translate(28.16905 40.384624) scale(0.1 -0.1)">
       <use xlink:href="#CMR17-34" transform="scale(0.996264)"/>
      </g>
     </g>
    </g>
    <g id="ytick_9">
     <g id="line2d_17">
      <g>
       <use xlink:href="#m215f3f8768" x="40.150386" y="10.74916" style="stroke: #000000; stroke-width: 0.8"/>
      </g>
     </g>
     <g id="text_18">
      <!-- $\mathdefault{5}$ -->
      <g transform="translate(28.16905 14.29832) scale(0.1 -0.1)">
       <use xlink:href="#CMR17-35" transform="scale(0.996264)"/>
      </g>
     </g>
    </g>
    <g id="text_19">
     <!-- RMS residual - Blade_18 -->
     <g transform="translate(14.29832 175.496013) rotate(-90) scale(0.1 -0.1)">
      <defs>
       <path id="NimbusSanL-Regu-52" d="M 1190 2035 
L 2726 2035 
C 3258 2035 3494 1775 3494 1191 
L 3488 770 
C 3488 478 3539 192 3622 0 
L 4346 0 
L 4346 147 
C 4122 303 4077 471 4064 1101 
C 4058 1879 3936 2111 3430 2329 
C 3955 2585 4166 2907 4166 3432 
C 4166 4230 3661 4672 2746 4672 
L 595 4672 
L 595 0 
L 1190 0 
L 1190 2035 
z
M 1190 2560 
L 1190 4147 
L 2630 4147 
C 2963 4147 3155 4096 3302 3970 
C 3462 3837 3546 3628 3546 3350 
C 3546 2806 3264 2560 2630 2560 
L 1190 2560 
z
" transform="scale(0.015625)"/>
       <path id="NimbusSanL-Regu-4d" d="M 2995 0 
L 4307 3915 
L 4307 0 
L 4870 0 
L 4870 4672 
L 4045 4672 
L 2688 602 
L 1306 4672 
L 480 4672 
L 480 0 
L 1043 0 
L 1043 3915 
L 2368 0 
L 2995 0 
z
" transform="scale(0.015625)"/>
       <path id="NimbusSanL-Regu-53" d="M 3814 3295 
C 3808 4204 3181 4736 2106 4736 
C 1082 4736 448 4211 448 3372 
C 448 2806 749 2450 1363 2291 
L 2522 1986 
C 3110 1833 3379 1598 3379 1236 
C 3379 988 3245 733 3046 593 
C 2861 466 2566 396 2189 396 
C 1683 396 1338 517 1114 784 
C 941 988 864 1210 870 1496 
L 307 1496 
C 314 1070 397 790 582 536 
C 902 102 1440 -128 2150 -128 
C 2707 -128 3162 0 3462 230 
C 3776 479 3974 892 3974 1293 
C 3974 1865 3616 2284 2982 2456 
L 1811 2768 
C 1248 2920 1043 3098 1043 3454 
C 1043 3925 1459 4236 2086 4236 
C 2829 4236 3245 3899 3251 3295 
L 3814 3295 
z
" transform="scale(0.015625)"/>
       <path id="NimbusSanL-Regu-73" d="M 2803 2428 
C 2797 3084 2362 3456 1587 3456 
C 806 3456 301 3052 301 2434 
C 301 1912 570 1663 1363 1472 
L 1862 1351 
C 2234 1262 2381 1129 2381 887 
C 2381 574 2067 364 1600 364 
C 1312 364 1069 447 934 587 
C 851 683 813 778 781 1014 
L 218 1014 
C 243 243 678 -128 1555 -128 
C 2400 -128 2938 288 2938 931 
C 2938 1428 2656 1702 1990 1861 
L 1478 1982 
C 1043 2084 858 2224 858 2459 
C 858 2765 1133 2963 1568 2963 
C 1997 2963 2227 2778 2240 2428 
L 2803 2428 
z
" transform="scale(0.015625)"/>
       <path id="NimbusSanL-Regu-64" d="M 3168 4672 
L 2637 4672 
L 2637 2937 
C 2413 3276 2054 3456 1606 3456 
C 736 3456 166 2759 166 1695 
C 166 568 723 -128 1626 -128 
C 2086 -128 2406 44 2694 460 
L 2694 19 
L 3168 19 
L 3168 4672 
z
M 1696 2956 
C 2272 2956 2637 2447 2637 1651 
C 2637 880 2266 371 1702 371 
C 1114 371 723 887 723 1663 
C 723 2440 1114 2956 1696 2956 
z
" transform="scale(0.015625)"/>
       <path id="NimbusSanL-Regu-75" d="M 3085 19 
L 3085 3328 
L 2554 3328 
L 2554 1454 
C 2554 780 2195 339 1638 339 
C 1216 339 947 591 947 988 
L 947 3328 
L 416 3328 
L 416 780 
C 416 230 832 -128 1485 -128 
C 1978 -128 2291 44 2605 484 
L 2605 19 
L 3085 19 
z
" transform="scale(0.015625)"/>
       <path id="NimbusSanL-Regu-6c" d="M 973 4672 
L 435 4672 
L 435 0 
L 973 0 
L 973 4672 
z
" transform="scale(0.015625)"/>
       <path id="NimbusSanL-Regu-2d" d="M 1818 1996 
L 294 1996 
L 294 1536 
L 1818 1536 
L 1818 1996 
z
" transform="scale(0.015625)"/>
       <path id="NimbusSanL-Regu-42" d="M 506 0 
L 2611 0 
C 3053 0 3379 121 3629 390 
C 3859 632 3987 961 3987 1321 
C 3987 1878 3731 2214 3136 2444 
C 3558 2643 3782 2994 3782 3476 
C 3782 3821 3654 4127 3411 4345 
C 3168 4569 2848 4672 2400 4672 
L 506 4672 
L 506 0 
z
M 1101 2636 
L 1101 4147 
L 2253 4147 
C 2586 4147 2771 4101 2931 3977 
C 3098 3847 3187 3652 3187 3391 
C 3187 3138 3098 2936 2931 2806 
C 2771 2682 2586 2636 2253 2636 
L 1101 2636 
z
M 1101 524 
L 1101 2112 
L 2554 2112 
C 2842 2112 3034 2042 3174 1890 
C 3315 1745 3392 1542 3392 1315 
C 3392 1093 3315 891 3174 746 
C 3034 594 2842 524 2554 524 
L 1101 524 
z
" transform="scale(0.015625)"/>
       <path id="NimbusSanL-Regu-31" d="M 1658 3232 
L 1658 0 
L 2221 0 
L 2221 4537 
L 1850 4537 
C 1651 3840 1523 3744 653 3635 
L 653 3232 
L 1658 3232 
z
" transform="scale(0.015625)"/>
       <path id="NimbusSanL-Regu-38" d="M 2502 2399 
C 2970 2681 3123 2910 3123 3337 
C 3123 4044 2566 4544 1760 4544 
C 960 4544 397 4044 397 3337 
C 397 2917 550 2687 1011 2399 
C 493 2150 237 1774 237 1276 
C 237 447 864 -128 1760 -128 
C 2656 -128 3283 447 3283 1270 
C 3283 1774 3027 2150 2502 2399 
z
M 1760 4044 
C 2240 4044 2547 3764 2547 3324 
C 2547 2904 2234 2624 1760 2624 
C 1286 2624 973 2904 973 3331 
C 973 3764 1286 4044 1760 4044 
z
M 1760 2150 
C 2323 2150 2707 1793 2707 1264 
C 2707 728 2323 371 1747 371 
C 1197 371 813 734 813 1264 
C 813 1793 1197 2150 1760 2150 
z
" transform="scale(0.015625)"/>
      </defs>
      <use xlink:href="#NimbusSanL-Regu-52" transform="scale(0.996264)"/>
      <use xlink:href="#NimbusSanL-Regu-4d" transform="translate(71.929985 0) scale(0.996264)"/>
      <use xlink:href="#NimbusSanL-Regu-53" transform="translate(154.918415 0) scale(0.996264)"/>
      <use xlink:href="#NimbusSanL-Regu-72" transform="translate(249.063616 0) scale(0.996264)"/>
      <use xlink:href="#NimbusSanL-Regu-65" transform="translate(282.238846 0) scale(0.996264)"/>
      <use xlink:href="#NimbusSanL-Regu-73" transform="translate(337.630523 0) scale(0.996264)"/>
      <use xlink:href="#NimbusSanL-Regu-69" transform="translate(387.443723 0) scale(0.996264)"/>
      <use xlink:href="#NimbusSanL-Regu-64" transform="translate(409.560507 0) scale(0.996264)"/>
      <use xlink:href="#NimbusSanL-Regu-75" transform="translate(464.952184 0) scale(0.996264)"/>
      <use xlink:href="#NimbusSanL-Regu-61" transform="translate(520.343861 0) scale(0.996264)"/>
      <use xlink:href="#NimbusSanL-Regu-6c" transform="translate(575.735538 0) scale(0.996264)"/>
      <use xlink:href="#NimbusSanL-Regu-2d" transform="translate(625.547492 0) scale(0.996264)"/>
      <use xlink:href="#NimbusSanL-Regu-42" transform="translate(686.417892 0) scale(0.996264)"/>
      <use xlink:href="#NimbusSanL-Regu-6c" transform="translate(752.867923 0) scale(0.996264)"/>
      <use xlink:href="#NimbusSanL-Regu-61" transform="translate(774.984707 0) scale(0.996264)"/>
      <use xlink:href="#NimbusSanL-Regu-64" transform="translate(830.376384 0) scale(0.996264)"/>
      <use xlink:href="#NimbusSanL-Regu-65" transform="translate(885.768061 0) scale(0.996264)"/>
      <use xlink:href="#NimbusSanL-Regu-31" transform="translate(977.025303 0) scale(0.996264)"/>
      <use xlink:href="#NimbusSanL-Regu-38" transform="translate(1032.41698 0) scale(0.996264)"/>
      <path d="M 947.137079 0 
L 977.025303 0 
L 977.025303 0.3985 
L 947.137079 0.3985 
L 947.137079 0 
z
"/>
     </g>
    </g>
   </g>
   <g id="line2d_18">
    <path d="M 55.368567 192.460813 
L 55.542514 210.254365 
L 55.586001 207.995942 
L 55.672975 208.640702 
L 55.890408 210.372456 
L 56.064355 209.288484 
L 56.151329 206.067181 
L 56.238302 206.339514 
L 56.499222 207.685525 
L 56.716656 206.52912 
L 56.760143 206.866605 
L 57.06455 209.366738 
L 57.108037 209.350399 
L 57.281984 207.977141 
L 57.32547 207.484735 
L 57.368957 207.906116 
L 57.629878 210.605723 
L 57.673364 210.568545 
L 57.890798 209.579111 
L 58.021258 210.301603 
L 58.195205 211.848506 
L 58.238692 211.823978 
L 58.369152 211.219233 
L 58.456125 210.091051 
L 58.543099 210.396259 
L 58.804019 211.738445 
L 58.847506 211.669177 
L 58.934479 211.159385 
L 59.021453 210.026789 
L 59.108426 210.295159 
L 59.32586 210.887126 
L 59.369347 210.856141 
L 59.45632 210.619964 
L 59.58678 209.581103 
L 59.673754 209.793981 
L 60.065134 211.824604 
L 60.152108 211.233097 
L 60.239081 209.802817 
L 60.326055 210.275231 
L 60.673949 212.602476 
L 60.717435 212.556192 
L 60.804409 211.835613 
L 60.891382 212.008827 
L 60.978356 212.33538 
L 61.239276 213.998532 
L 61.32625 213.240281 
L 61.413223 211.443995 
L 61.500197 211.676965 
L 61.71763 212.893594 
L 61.804604 212.876829 
L 61.848091 212.885401 
L 61.935064 211.97938 
L 61.978551 211.075381 
L 62.065524 211.195489 
L 62.369931 212.053897 
L 62.456905 211.881751 
L 62.630852 210.669143 
L 62.674338 210.861903 
L 63.065719 212.664668 
L 63.152692 212.575406 
L 63.196179 212.426293 
L 63.239666 212.509956 
L 63.4571 213.286051 
L 63.674533 213.814848 
L 63.761507 213.755237 
L 63.804993 213.789145 
L 63.935454 214.090715 
L 64.196374 214.971421 
L 64.239861 214.943895 
L 64.326834 214.514587 
L 64.413808 213.927578 
L 64.457294 213.970971 
L 64.587755 214.515942 
L 64.718215 214.867548 
L 64.848675 214.038565 
L 64.935648 212.971848 
L 65.022622 213.153744 
L 65.327029 214.154471 
L 65.370516 214.111722 
L 65.500976 213.452889 
L 65.631436 211.725607 
L 65.71841 212.115147 
L 65.97933 213.64565 
L 66.022817 213.638766 
L 66.10979 212.969374 
L 66.153277 212.304459 
L 66.24025 212.465069 
L 66.588144 213.97122 
L 66.675118 213.818912 
L 66.762091 213.418931 
L 66.805578 213.498857 
L 66.979525 214.035375 
L 67.153472 214.514423 
L 67.240445 214.142221 
L 67.414392 212.261169 
L 67.457879 212.391365 
L 67.675313 213.927826 
L 67.84926 214.526975 
L 67.936233 214.497606 
L 68.023206 214.237508 
L 68.11018 213.369051 
L 68.153667 213.789045 
L 68.50156 216.894963 
L 68.632021 215.696833 
L 68.675507 215.265837 
L 68.718994 215.43583 
L 68.892941 216.983643 
L 69.066888 218.147154 
L 69.153861 217.845451 
L 69.240835 216.697407 
L 69.327808 216.827585 
L 69.588729 217.958295 
L 69.675702 217.746864 
L 69.893136 215.861687 
L 69.936623 216.070076 
L 70.24103 218.213253 
L 70.284516 218.176232 
L 70.37149 217.392012 
L 70.50195 215.32598 
L 70.545437 215.650859 
L 70.849844 218.675099 
L 70.893331 218.597948 
L 71.197738 215.997642 
L 71.241225 216.285319 
L 71.589118 219.286274 
L 71.632605 219.217655 
L 71.763065 218.606042 
L 71.806552 218.806798 
L 71.980499 220.352955 
L 72.197933 221.902349 
L 72.284906 220.888204 
L 72.415366 218.668783 
L 72.458853 218.788646 
L 72.589313 220.453437 
L 72.719773 221.649825 
L 72.76326 221.546867 
L 72.89372 219.887604 
L 73.024181 216.667629 
L 73.111154 216.912323 
L 73.328588 219.760482 
L 73.415561 219.281108 
L 73.632995 215.069195 
L 73.676482 213.864357 
L 73.719968 214.125697 
L 73.850429 217.335277 
L 73.980889 220.107326 
L 74.024375 219.830766 
L 74.241809 215.319141 
L 74.459243 212.635606 
L 74.589703 213.503751 
L 74.807137 213.810943 
L 74.981084 214.460814 
L 75.15503 216.076628 
L 75.415951 218.485176 
L 75.546411 218.575212 
L 75.676871 217.891806 
L 75.894305 212.46999 
L 75.981278 213.423235 
L 76.155225 215.713862 
L 76.198712 215.379426 
L 76.590093 209.749209 
L 76.633579 209.852035 
L 76.677066 210.005615 
L 76.720553 209.721033 
L 76.807526 211.44209 
L 76.851013 210.825055 
L 77.068447 203.451289 
L 77.111933 205.873421 
L 77.329367 205.305102 
L 77.503314 204.081538 
L 77.546801 204.125009 
L 77.590287 201.661292 
L 77.633774 205.302975 
L 77.720748 204.227899 
L 77.764234 204.761399 
L 77.807721 204.891628 
L 77.851208 204.695095 
L 78.025155 202.0236 
L 78.242588 200.125589 
L 78.373049 199.457311 
L 78.503509 201.406559 
L 78.546996 200.511697 
L 78.633969 200.671637 
L 78.764429 200.850186 
L 78.851403 200.533476 
L 79.02535 197.888189 
L 79.460217 190.101236 
L 79.634164 188.805092 
L 79.677651 188.809149 
L 79.721137 188.885519 
L 79.764624 188.856569 
L 79.808111 188.645109 
L 79.938571 185.258766 
L 79.982058 186.484098 
L 80.025544 186.926497 
L 80.112518 185.712957 
L 80.156005 185.971845 
L 80.242978 187.025713 
L 80.286465 186.625742 
L 80.329952 185.465147 
L 80.373438 187.426057 
L 80.416925 184.787414 
L 80.547385 178.825711 
L 80.590872 179.530333 
L 81.199686 182.258744 
L 81.28666 182.21722 
L 81.54758 181.418945 
L 81.851987 178.735204 
L 81.938961 178.068899 
L 81.982447 178.107425 
L 82.286854 180.615158 
L 82.330341 180.583218 
L 82.417315 180.237297 
L 82.547775 179.590626 
L 82.678235 178.881194 
L 82.765209 178.623413 
L 82.895669 177.317607 
L 83.113102 175.284189 
L 83.243563 174.875396 
L 83.41751 174.044072 
L 83.460996 173.805702 
L 83.504483 174.319955 
L 83.54797 174.184345 
L 83.765403 172.787801 
L 83.80889 172.95229 
L 83.895864 173.137815 
L 83.93935 173.113304 
L 84.06981 172.530415 
L 84.113297 172.054618 
L 84.156784 172.139553 
L 84.200271 166.996958 
L 84.287244 168.556624 
L 84.548165 170.749448 
L 84.852572 171.917652 
L 85.200466 173.759482 
L 85.287439 173.60877 
L 85.591846 172.345783 
L 85.93974 171.93532 
L 86.0702 171.416905 
L 86.20066 171.745411 
L 86.287634 171.609259 
L 86.505067 170.648159 
L 86.635528 170.39187 
L 86.722501 170.498841 
L 86.765988 170.441045 
L 86.896448 170.100859 
L 86.983422 169.602606 
L 87.026908 169.666656 
L 87.070395 169.667479 
L 87.331315 170.400011 
L 87.679209 170.002817 
L 88.114077 172.21017 
L 88.418484 172.4484 
L 88.635917 172.197054 
L 88.853351 171.501569 
L 88.983811 171.083921 
L 89.070785 171.115442 
L 90.810254 171.199095 
L 91.158148 171.111053 
L 91.375581 170.886092 
L 91.549528 169.830874 
L 91.593015 169.876544 
L 91.940909 171.30917 
L 91.984396 171.237157 
L 92.027882 171.0732 
L 92.071369 171.217918 
L 92.114856 171.202107 
L 92.375776 172.600991 
L 92.810644 173.981959 
L 92.897617 173.850636 
L 93.202024 172.010759 
L 93.462945 172.179302 
L 93.506431 172.371091 
L 93.593405 171.616688 
L 93.767352 173.612902 
L 93.810838 173.186093 
L 93.984785 164.236878 
L 94.071759 165.045613 
L 94.550113 169.076108 
L 94.637086 169.048398 
L 94.72406 168.677448 
L 94.85452 166.385165 
L 95.11544 162.881513 
L 95.158927 164.120022 
L 95.202414 164.747704 
L 95.332874 162.229371 
L 95.376361 162.63847 
L 95.593794 164.604131 
L 95.811228 160.927238 
L 95.854715 161.45401 
L 96.202609 164.302522 
L 97.028857 168.884969 
L 97.855104 170.555135 
L 99.333653 172.738255 
L 99.725034 172.951889 
L 100.246875 173.328333 
L 101.029636 173.894511 
L 101.37753 174.248574 
L 102.203778 174.512261 
L 102.595158 174.455959 
L 102.943052 174.313222 
L 103.290946 174.272143 
L 103.682327 174.29389 
L 104.073707 174.165291 
L 104.465088 174.128866 
L 104.639035 174.317396 
L 104.943442 174.678708 
L 105.247849 174.886812 
L 105.508769 175.100148 
L 106.508964 175.481919 
L 106.769885 175.529033 
L 107.465672 175.512864 
L 108.596327 175.295509 
L 109.770469 175.146885 
L 110.944611 175.172595 
L 111.509938 175.311602 
L 112.118753 175.192308 
L 112.901514 174.961835 
L 113.031974 175.241971 
L 113.205921 175.474693 
L 114.119142 176.069345 
L 114.380063 175.923403 
L 114.727956 175.736065 
L 114.901903 175.644657 
L 115.423744 175.862993 
L 115.641178 175.997206 
L 116.423939 176.728727 
L 116.728346 176.874558 
L 117.07624 176.831306 
L 117.250187 176.506619 
L 117.293674 176.394188 
L 117.380647 176.437214 
L 117.641567 176.574001 
L 117.815514 176.668373 
L 117.902488 176.572652 
L 117.945975 176.698698 
L 118.424329 177.356857 
L 119.07663 177.60413 
L 119.294063 177.466565 
L 119.641957 177.74048 
L 119.685444 177.664951 
L 119.728931 177.554689 
L 119.815904 177.590289 
L 120.033338 177.812557 
L 120.207285 177.880786 
L 120.424718 177.762788 
L 120.816099 177.97171 
L 120.990046 177.836315 
L 121.424913 178.142114 
L 121.4684 178.08263 
L 121.59886 178.109611 
L 122.033727 178.407408 
L 122.207674 178.329469 
L 122.642542 178.575993 
L 122.816489 178.477649 
L 123.251356 178.693293 
L 123.381816 178.631676 
L 123.59925 178.844152 
L 123.773197 178.917439 
L 124.034117 178.868824 
L 124.512471 179.13677 
L 124.729905 179.257716 
L 125.034312 179.470158 
L 125.251746 179.56673 
L 125.86056 180.15111 
L 126.295427 180.500772 
L 126.512861 180.557644 
L 126.904241 180.79707 
L 127.121675 180.849208 
L 127.469569 181.050596 
L 127.730489 181.10688 
L 128.078383 181.235477 
L 128.339304 181.265581 
L 128.730684 181.385517 
L 128.948118 181.419898 
L 129.296012 181.514162 
L 129.556932 181.513606 
L 129.861339 181.602129 
L 130.078773 181.549423 
L 130.470153 181.622205 
L 130.687587 181.579656 
L 131.035481 181.698412 
L 131.252915 181.677228 
L 131.644295 181.819759 
L 131.861729 181.805253 
L 132.296596 181.969408 
L 132.687977 182.057364 
L 132.948897 182.103204 
L 133.340278 182.045503 
L 133.514225 182.126246 
L 133.862118 181.945972 
L 134.166526 182.196197 
L 134.427446 182.204037 
L 134.818827 182.393249 
L 135.123234 182.449409 
L 135.471128 182.501619 
L 136.123429 182.540864 
L 138.471712 182.443345 
L 138.776119 182.433688 
L 139.080526 182.335711 
L 139.254473 182.289216 
L 139.602367 182.266786 
L 139.819801 182.185252 
L 140.906969 182.153745 
L 141.29835 182.20535 
L 142.646438 182.178139 
L 143.255253 182.154613 
L 151.430758 182.250354 
L 155.735945 182.736881 
L 156.562193 182.860034 
L 157.562387 183.029002 
L 157.997255 183.082869 
L 159.606264 183.300631 
L 161.084813 183.573304 
L 161.51968 183.626629 
L 167.216442 184.67568 
L 168.216637 184.874666 
L 168.781964 184.985352 
L 169.477752 185.13864 
L 170.477947 185.295623 
L 171.173734 185.443821 
L 171.260708 175.774713 
L 171.304195 176.05944 
L 171.521628 176.687274 
L 171.739062 178.125431 
L 171.782549 178.558023 
L 171.826035 170.554468 
L 171.913009 172.130277 
L 172.130443 172.828638 
L 172.347876 174.362356 
L 172.478336 174.995507 
L 172.56531 175.163141 
L 172.608797 168.646829 
L 172.69577 169.024394 
L 172.913204 170.685779 
L 173.261098 173.388771 
L 173.304584 173.520784 
L 173.348071 170.608173 
L 173.435044 171.062159 
L 173.652478 173.24773 
L 173.782938 174.05377 
L 174.000372 174.72738 
L 174.522213 176.777398 
L 174.739646 177.394172 
L 174.783133 171.619025 
L 174.870107 172.871028 
L 175.000567 173.668726 
L 175.218 174.335018 
L 175.652868 175.846381 
L 175.870301 176.36534 
L 176.218195 177.356517 
L 176.479116 177.806601 
L 176.82701 178.410944 
L 176.913983 178.475741 
L 176.95747 173.329179 
L 177.044443 173.478538 
L 177.566284 174.370721 
L 177.783718 174.747536 
L 178.001151 175.081831 
L 178.262072 175.352968 
L 178.305558 175.433212 
L 178.349045 174.766751 
L 178.436019 175.029203 
L 178.740426 175.222803 
L 179.001346 175.685928 
L 179.175293 175.900491 
L 179.436213 176.1713 
L 180.305948 177.450743 
L 180.610355 177.706229 
L 181.175683 178.397333 
L 181.393116 178.794506 
L 181.61055 179.126042 
L 181.87147 179.384229 
L 182.175878 179.730141 
L 182.480285 180.021944 
L 182.871665 180.515339 
L 183.132586 180.791863 
L 183.350019 181.023287 
L 183.654426 181.25638 
L 184.089294 181.686649 
L 185.002515 182.443193 
L 185.132975 182.554036 
L 185.176462 182.422504 
L 185.219949 182.583735 
L 185.263436 182.603042 
L 185.306922 182.48107 
L 185.350409 182.652919 
L 185.393896 182.541461 
L 185.480869 182.515638 
L 185.524356 182.82197 
L 185.567843 182.744959 
L 185.611329 182.850114 
L 185.654816 182.967573 
L 185.698303 182.868694 
L 185.74179 182.851553 
L 185.785276 183.001991 
L 185.828763 182.776547 
L 185.915737 183.059751 
L 186.00271 182.985386 
L 186.176657 183.316618 
L 186.26363 183.198128 
L 187.263825 183.232328 
L 187.307312 183.360643 
L 187.350799 183.235248 
L 187.524746 183.241127 
L 187.568232 183.369453 
L 187.611719 183.244034 
L 187.785666 183.249886 
L 187.829153 183.378222 
L 187.872639 183.252779 
L 188.046586 183.258604 
L 188.090073 183.38695 
L 188.13356 183.261484 
L 188.307507 183.267282 
L 188.350994 183.395635 
L 188.39448 183.270147 
L 188.568427 183.275918 
L 188.611914 183.404279 
L 188.655401 183.27877 
L 188.785861 183.190352 
L 188.872834 183.318078 
L 188.916321 183.287342 
L 189.046781 183.198941 
L 189.177241 183.314012 
L 189.351188 183.195174 
L 189.394675 183.288968 
L 189.481649 183.291785 
L 189.612109 183.203724 
L 189.699082 183.331153 
L 189.742569 183.300262 
L 189.873029 183.212234 
L 190.003489 183.435381 
L 190.13395 183.220704 
L 190.26441 183.224964 
L 190.307896 183.445182 
L 190.39487 183.321289 
L 190.52533 183.233372 
L 190.612304 183.360774 
L 190.65579 183.329623 
L 190.786251 183.24174 
L 190.916711 183.370557 
L 191.177631 183.254257 
L 191.221118 183.474244 
L 191.308091 183.350295 
L 191.438551 183.262525 
L 191.482038 183.263933 
L 191.525525 183.48382 
L 191.612498 183.359854 
L 191.742959 183.272154 
L 191.829932 183.399507 
L 191.873419 183.368001 
L 191.960392 183.279003 
L 192.090852 183.374782 
L 192.134339 183.284452 
L 192.177826 183.504153 
L 192.264799 183.38016 
L 192.351773 183.291252 
L 192.482233 183.513556 
L 192.612693 183.299342 
L 192.65618 183.392231 
L 192.699667 183.302036 
L 192.78664 183.396244 
L 192.873614 183.398888 
L 193.004074 183.311445 
L 193.047561 183.404215 
L 193.091047 183.31412 
L 193.134534 183.315486 
L 193.178021 183.534844 
L 193.264994 183.410823 
L 193.395454 183.32346 
L 193.482428 183.417429 
L 193.569401 183.420038 
L 193.699862 183.332747 
L 193.873808 183.429228 
L 193.960782 183.431818 
L 194.047755 183.343328 
L 194.178216 183.43834 
L 194.221702 183.348572 
L 194.265189 183.567542 
L 194.308676 183.351169 
L 194.613083 183.451281 
L 194.700056 183.453836 
L 194.830517 183.36682 
L 195.004463 183.462758 
L 195.04795 183.497718 
L 195.17841 183.376977 
L 195.308871 183.471452 
L 195.395844 183.383266 
L 195.439331 183.601697 
L 195.526304 183.477628 
L 195.613278 183.389514 
L 195.743738 183.483807 
L 195.830711 183.395759 
L 195.874198 183.613984 
L 195.961172 183.489938 
L 196.048145 183.401963 
L 196.178605 183.496073 
L 196.265579 183.408163 
L 196.309065 183.626182 
L 196.396039 183.50216 
L 196.483012 183.414323 
L 196.613473 183.508251 
L 196.700446 183.42048 
L 196.743933 183.63829 
L 196.78742 183.422906 
L 197.1788 183.523961 
L 197.222287 183.559465 
L 197.352747 183.438783 
L 197.396234 183.529949 
L 197.43972 183.441202 
L 197.657154 183.537136 
L 197.744128 183.5395 
L 197.831101 183.452116 
L 197.874588 183.543077 
L 197.918075 183.454516 
L 198.178995 183.461757 
L 198.222482 183.678802 
L 198.265968 183.464125 
L 198.700836 183.565534 
L 198.744322 183.60144 
L 198.874783 183.480841 
L 198.918269 183.571375 
L 198.961756 183.483202 
L 199.266163 183.491526 
L 199.30965 183.70796 
L 199.353137 183.493854 
L 199.874977 183.50798 
L 199.918464 183.724063 
L 199.961951 183.510285 
L 200.527278 183.61411 
L 200.570765 183.65049 
L 200.701225 183.530036 
L 201.266553 183.545035 
L 201.31004 183.760274 
L 201.353526 183.547291 
L 202.049314 183.565544 
L 202.092801 183.690369 
L 202.136288 183.655749 
L 202.223261 183.570073 
L 202.266748 183.659085 
L 202.310234 183.572314 
L 202.919049 183.588086 
L 202.962535 183.802239 
L 203.006022 183.590286 
L 204.006217 183.615828 
L 204.049704 183.740274 
L 204.09319 183.705056 
L 204.223651 183.621342 
L 204.267137 183.709372 
L 204.310624 183.623516 
L 205.441279 183.611673 
L 205.484766 183.822542 
L 205.528253 183.613829 
L 219.357033 184.05486 
L 219.617954 184.339769 
L 219.922361 184.669056 
L 220.226768 184.923745 
L 220.444202 185.091125 
L 220.792095 185.296421 
L 221.096503 185.510445 
L 221.444396 185.735347 
L 221.705317 185.890807 
L 222.053211 186.107479 
L 222.227158 186.181591 
L 222.618538 186.374149 
L 222.879459 186.503651 
L 223.227352 186.688186 
L 223.488273 186.819045 
L 223.836167 187.006266 
L 224.0536 187.080092 
L 224.444981 187.283101 
L 224.662415 187.359261 
L 225.445176 187.661862 
L 226.532344 188.092029 
L 228.010893 188.681215 
L 228.228327 188.73998 
L 228.619707 188.903028 
L 228.837141 188.964716 
L 229.706876 189.252463 
L 230.18523 189.409011 
L 233.620681 190.571239 
L 234.446929 190.864582 
L 234.96877 191.026248 
L 236.708239 191.627319 
L 243.187762 193.998748 
L 243.405196 194.058204 
L 244.274931 194.334568 
L 244.796771 194.498887 
L 245.796966 194.802893 
L 246.666701 195.084428 
L 247.449462 195.331196 
L 248.319197 195.52184 
L 252.493923 196.509858 
L 256.364242 197.08058 
L 263.452579 197.240145 
L 272.62828 196.360075 
L 273.150121 196.294503 
L 276.672546 195.810275 
L 281.890954 195.139498 
L 282.804175 195.014497 
L 283.239042 194.970603 
L 286.631008 194.536477 
L 287.544229 194.421943 
L 287.979096 194.38233 
L 291.501522 193.943246 
L 292.501716 193.834819 
L 293.023557 193.798566 
L 294.067239 193.673966 
L 295.371841 193.562037 
L 297.981045 193.284921 
L 298.763806 193.209558 
L 300.372815 193.067079 
L 301.199063 192.990671 
L 303.199452 192.821989 
L 308.2874 192.436545 
L 310.896604 192.260702 
L 321.33342 191.791903 
L 334.944767 191.766885 
L 338.075811 191.869825 
L 342.033104 192.026915 
L 344.120467 192.11933 
L 347.860326 192.350177 
L 359.732204 193.427268 
L 359.732204 193.427268 
" clip-path="url(#p0189e06b5d)" style="fill: none; stroke: #1f77b4; stroke-width: 1.5; stroke-linecap: square"/>
   </g>
   <g id="line2d_19">
    <path d="M 55.368567 152.49396 
L 55.412054 140.540019 
L 55.499028 144.538124 
L 55.586001 141.161108 
L 55.672975 142.456222 
L 55.890408 144.795687 
L 56.151329 142.207727 
L 56.194815 142.620283 
L 56.412249 144.58166 
L 56.542709 145.955763 
L 56.586196 145.785606 
L 56.716656 143.891675 
L 56.80363 144.488459 
L 57.021063 145.641685 
L 57.108037 145.120935 
L 57.32547 141.024678 
L 57.412444 141.854908 
L 57.629878 143.711539 
L 57.847311 141.555336 
L 57.890798 141.758901 
L 58.238692 143.951598 
L 58.282178 144.002363 
L 58.412639 143.534427 
L 58.456125 143.637129 
L 58.847506 145.587357 
L 58.977966 145.411045 
L 59.45632 147.655958 
L 59.499807 147.516688 
L 59.717241 146.451956 
L 59.760727 146.459241 
L 59.847701 146.749672 
L 60.021648 147.633714 
L 60.108621 147.232863 
L 60.239081 144.627647 
L 60.413028 144.880973 
L 60.543489 145.015931 
L 60.630462 144.546698 
L 60.804409 141.656533 
L 60.891382 142.078178 
L 61.19579 143.225414 
L 61.239276 143.215434 
L 61.369736 142.751371 
L 61.413223 142.835124 
L 62.109011 145.940379 
L 62.239471 146.52353 
L 62.587365 149.134853 
L 62.630852 149.090719 
L 62.978746 149.645993 
L 63.109206 148.241885 
L 63.196179 146.542196 
L 63.283153 146.693834 
L 63.544073 147.055709 
L 63.631047 146.787016 
L 63.71802 146.067599 
L 63.804993 146.195482 
L 64.196374 146.705463 
L 64.370321 146.222107 
L 64.413808 146.362401 
L 64.761702 147.734195 
L 64.805188 147.702111 
L 64.935648 146.872932 
L 65.022622 147.00074 
L 65.196569 147.464497 
L 65.327029 147.911804 
L 65.370516 147.820874 
L 65.631436 146.100188 
L 65.71841 146.359779 
L 65.892357 147.218248 
L 65.97933 147.762955 
L 66.022817 147.710156 
L 66.153277 145.933071 
L 66.283737 146.038945 
L 66.501171 146.29718 
L 66.544658 146.248458 
L 66.675118 144.975596 
L 66.762091 144.36636 
L 66.805578 144.508646 
L 67.196959 146.204795 
L 67.283932 146.038668 
L 67.370905 146.148789 
L 67.84926 149.035253 
L 67.892746 149.061551 
L 68.066693 148.371619 
L 68.11018 147.914895 
L 68.153667 148.084297 
L 68.327614 149.176812 
L 68.414587 149.902316 
L 68.458074 149.858933 
L 68.675507 148.282162 
L 69.153861 151.044999 
L 69.632216 152.347113 
L 69.762676 151.80442 
L 69.893136 150.712459 
L 69.936623 150.946127 
L 70.24103 152.768334 
L 70.328003 152.541426 
L 70.414977 151.922988 
L 70.50195 150.223006 
L 70.588924 150.586855 
L 70.762871 151.470736 
L 70.806357 151.689689 
L 70.849844 151.611226 
L 71.110764 149.372979 
L 71.154251 149.513329 
L 71.545632 151.835756 
L 71.589118 151.597435 
L 71.763065 149.358479 
L 71.850039 149.688429 
L 72.110959 150.361407 
L 72.241419 149.395265 
L 72.37188 148.370157 
L 72.415366 148.693844 
L 72.676287 150.166483 
L 72.719773 150.180107 
L 72.980694 147.917468 
L 73.024181 147.329861 
L 73.067667 147.835162 
L 73.328588 149.783161 
L 73.415561 149.111639 
L 73.676482 144.82779 
L 73.719968 145.621481 
L 73.937402 148.175718 
L 73.980889 148.072033 
L 74.285296 143.985951 
L 74.372269 144.113659 
L 74.415756 144.096356 
L 74.459243 143.537435 
L 74.589703 144.726831 
L 74.89411 145.287871 
L 75.242004 146.427987 
L 75.372464 147.137914 
L 75.415951 147.125573 
L 75.763845 145.039551 
L 75.894305 142.88092 
L 75.937792 143.186863 
L 76.068252 143.544109 
L 76.155225 143.013191 
L 76.503119 138.612853 
L 76.677066 139.770141 
L 76.720553 136.063797 
L 76.76404 140.880493 
L 76.851013 139.549207 
L 77.068447 129.602577 
L 77.111933 135.018195 
L 77.198907 134.782112 
L 77.416341 133.683289 
L 77.546801 132.802304 
L 77.590287 127.207223 
L 77.633774 134.494857 
L 77.720748 133.160046 
L 77.764234 133.881859 
L 77.851208 134.822153 
L 77.894695 134.698742 
L 78.373049 129.039322 
L 78.416535 129.777409 
L 78.503509 131.950025 
L 78.546996 131.195629 
L 78.720942 131.685057 
L 78.764429 131.669067 
L 78.851403 131.158647 
L 79.068836 127.896868 
L 79.242783 123.389791 
L 79.460217 121.668757 
L 79.590677 120.366949 
L 79.634164 120.488083 
L 79.721137 120.725502 
L 79.764624 120.661255 
L 79.851598 119.217563 
L 79.938571 116.442327 
L 79.982058 117.903777 
L 80.025544 118.030003 
L 80.112518 116.479061 
L 80.156005 116.813496 
L 80.242978 118.14143 
L 80.286465 118.118578 
L 80.460412 112.345834 
L 80.547385 109.694358 
L 80.590872 110.05223 
L 80.982253 111.33242 
L 81.025739 111.311228 
L 81.28666 110.724115 
L 81.591067 109.563353 
L 81.982447 105.607923 
L 82.025934 106.042191 
L 82.330341 108.720925 
L 82.373828 108.580709 
L 82.634748 107.477145 
L 82.765209 107.362081 
L 82.852182 106.899659 
L 83.156589 104.2812 
L 83.374023 103.110512 
L 83.460996 102.17536 
L 83.54797 103.714747 
L 83.591456 103.317118 
L 83.67843 102.963274 
L 83.765403 102.362985 
L 83.80889 102.530497 
L 83.93935 102.746611 
L 84.026324 102.382305 
L 84.113297 101.044759 
L 84.156784 101.433439 
L 84.200271 93.494721 
L 84.287244 95.808681 
L 84.548165 98.832342 
L 84.809085 100.034593 
L 85.243952 103.530644 
L 85.330926 103.144745 
L 85.591846 101.58555 
L 85.722306 101.580815 
L 85.93974 101.725995 
L 86.026713 101.677128 
L 86.287634 102.295375 
L 86.418094 101.311897 
L 86.461581 101.388162 
L 86.592041 101.268646 
L 86.635528 101.160258 
L 86.679014 101.307436 
L 86.896448 101.260916 
L 86.983422 100.950591 
L 87.157368 101.637932 
L 87.244342 100.426789 
L 87.331315 100.583242 
L 87.374802 100.49399 
L 87.418289 100.57704 
L 87.635723 101.09405 
L 87.722696 101.542429 
L 88.027103 103.060528 
L 88.114077 103.326153 
L 88.157563 103.290203 
L 88.505457 103.152352 
L 88.679404 102.873135 
L 88.983811 101.533834 
L 89.114271 101.674078 
L 89.331705 101.759944 
L 91.114661 101.685742 
L 91.375581 101.387539 
L 91.549528 99.827549 
L 91.593015 99.910295 
L 91.940909 102.371019 
L 92.071369 102.118334 
L 92.114856 101.976906 
L 92.245316 103.153748 
L 92.33229 103.13393 
L 92.680183 104.807278 
L 92.767157 104.798559 
L 92.85413 104.513014 
L 93.202024 100.934838 
L 93.332484 101.121462 
L 93.419458 100.767524 
L 93.593405 99.264035 
L 93.636892 99.911315 
L 93.767352 101.83508 
L 93.810838 101.165066 
L 93.984785 90.70858 
L 94.028272 91.109385 
L 94.5936 95.901347 
L 94.680573 95.694282 
L 94.811033 94.250502 
L 95.028467 91.162859 
L 95.11544 89.243165 
L 95.158927 90.539676 
L 95.202414 91.267408 
L 95.332874 88.596776 
L 95.376361 89.002545 
L 95.593794 91.139469 
L 95.637281 90.563934 
L 95.811228 87.542308 
L 95.854715 88.088256 
L 96.246095 91.401724 
L 96.941883 95.756945 
L 97.159317 96.412771 
L 97.681158 97.448863 
L 98.029051 97.99952 
L 98.246485 98.343232 
L 98.507405 98.685731 
L 99.11622 99.727096 
L 99.638061 100.474407 
L 100.768716 101.670727 
L 102.377725 102.624361 
L 102.595158 102.69649 
L 103.551866 103.078674 
L 103.812787 103.146828 
L 105.813176 103.414702 
L 106.595938 103.411499 
L 107.683106 103.405434 
L 107.90054 103.403037 
L 108.639814 103.381928 
L 110.68369 103.187596 
L 110.901124 103.189042 
L 112.118753 103.359616 
L 112.466646 103.253836 
L 112.640593 103.182559 
L 113.031974 103.173167 
L 113.249408 103.281267 
L 114.032169 103.514197 
L 114.510523 103.454731 
L 115.554204 103.588663 
L 116.380452 103.844293 
L 116.902293 103.917421 
L 117.685054 104.008536 
L 117.945975 104.121154 
L 118.641762 104.42654 
L 119.163603 104.495626 
L 119.381037 104.566939 
L 119.641957 104.719457 
L 119.859391 104.656349 
L 120.250771 104.799146 
L 120.424718 104.765829 
L 120.859586 104.864829 
L 120.990046 104.83125 
L 122.164188 105.262563 
L 122.468595 105.440953 
L 122.686028 105.426181 
L 122.859975 105.419905 
L 123.251356 105.55929 
L 123.425303 105.537018 
L 123.903657 105.629662 
L 124.208064 105.762906 
L 124.512471 105.855123 
L 124.816878 105.978625 
L 126.164967 106.742536 
L 127.426082 107.041853 
L 129.730879 107.358596 
L 130.991994 107.456941 
L 132.687977 107.546365 
L 133.079357 107.547617 
L 133.296791 107.533811 
L 133.644685 107.542814 
L 133.862118 107.514011 
L 134.253499 107.573073 
L 134.514419 107.592942 
L 134.862313 107.630619 
L 135.123234 107.644862 
L 135.471128 107.658432 
L 135.688561 107.649892 
L 136.079942 107.657409 
L 136.253889 107.641002 
L 136.688756 107.674423 
L 136.862703 107.682576 
L 137.29757 107.676832 
L 137.471517 107.68161 
L 137.862898 107.688215 
L 138.036845 107.692026 
L 138.471712 107.679522 
L 138.645659 107.68157 
L 139.03704 107.671517 
L 139.254473 107.637407 
L 139.602367 107.652156 
L 139.819801 107.624922 
L 140.211181 107.636542 
L 140.428615 107.614251 
L 140.819996 107.6465 
L 141.080916 107.621821 
L 141.42881 107.673519 
L 141.68973 107.659616 
L 142.037624 107.695834 
L 142.255058 107.694489 
L 142.602952 107.733294 
L 142.820385 107.730143 
L 143.211766 107.760708 
L 143.385713 107.775692 
L 143.82058 107.793219 
L 143.994527 107.807439 
L 144.559855 107.84598 
L 144.994722 107.855879 
L 145.168669 107.86843 
L 145.95143 107.938611 
L 148.691094 108.017831 
L 148.821554 108.034217 
L 149.169448 108.130193 
L 149.386882 108.169426 
L 149.821749 108.186083 
L 149.952209 108.19951 
L 150.387077 108.265436 
L 150.60451 108.254305 
L 150.995891 108.354649 
L 151.256811 108.394477 
L 151.952599 108.514378 
L 152.822334 108.584952 
L 152.996281 108.617677 
L 153.387661 108.673517 
L 153.648581 108.68326 
L 153.996475 108.756676 
L 154.170422 108.79494 
L 154.779237 108.905884 
L 155.605484 109.040522 
L 157.171007 109.234752 
L 157.562387 109.300108 
L 157.736334 109.339867 
L 158.345149 109.466132 
L 159.25837 109.581572 
L 159.562777 109.609126 
L 160.258565 109.737832 
L 160.562972 109.716321 
L 160.693432 109.737504 
L 161.084813 109.841108 
L 161.25876 109.875912 
L 161.693627 109.933855 
L 161.911061 109.960737 
L 162.302441 110.02591 
L 162.476388 110.033094 
L 162.867769 110.141743 
L 163.085202 110.174267 
L 163.563556 110.274697 
L 164.433291 110.439069 
L 168.260123 110.913923 
L 168.43407 110.957162 
L 168.825451 111.024699 
L 168.999398 111.055961 
L 169.434265 111.105224 
L 169.608212 111.137321 
L 170.043079 111.18123 
L 170.608407 111.273814 
L 170.782354 111.303139 
L 171.173734 111.361545 
L 171.260708 105.617828 
L 171.304195 106.238348 
L 171.608602 107.496946 
L 171.782549 108.542971 
L 171.826035 101.18489 
L 171.913009 103.68099 
L 172.173929 104.854401 
L 172.56531 106.667464 
L 172.608797 99.65267 
L 172.69577 100.440599 
L 173.304584 105.439854 
L 173.348071 101.872478 
L 173.435044 102.778787 
L 173.826425 105.742409 
L 174.130832 106.558879 
L 174.391753 107.098559 
L 174.739646 107.483558 
L 174.783133 102.400949 
L 174.870107 104.195126 
L 175.044054 105.076022 
L 175.696355 106.476754 
L 176.479116 107.181611 
L 176.913983 107.447217 
L 176.95747 102.698672 
L 177.044443 103.005382 
L 177.435824 104.210709 
L 177.696744 104.684439 
L 178.088125 105.471755 
L 178.305558 105.842684 
L 178.349045 104.915693 
L 178.436019 105.31514 
L 178.783913 105.683185 
L 179.827594 107.251033 
L 182.001931 109.341308 
L 182.045417 109.254673 
L 183.61094 110.259056 
L 184.132781 110.50544 
L 184.176267 110.395132 
L 184.263241 110.471935 
L 185.002515 110.846229 
L 185.132975 110.900349 
L 185.176462 110.728638 
L 185.219949 110.944424 
L 185.263436 110.96572 
L 185.306922 110.806773 
L 185.350409 111.004457 
L 185.393896 110.864752 
L 185.437382 111.035883 
L 185.480869 110.745148 
L 185.524356 111.051002 
L 185.611329 110.916478 
L 185.654816 111.075968 
L 185.74179 111.020602 
L 185.785276 111.128788 
L 185.828763 110.930662 
L 185.87225 111.080544 
L 185.915737 111.174838 
L 185.959223 110.991883 
L 186.046197 111.104396 
L 186.26363 111.197671 
L 189.090268 111.292866 
L 189.133755 111.193547 
L 189.220728 111.26799 
L 189.351188 111.19982 
L 189.481649 111.274724 
L 189.612109 111.206862 
L 189.742569 111.281229 
L 189.873029 111.213679 
L 190.003489 111.312911 
L 190.13395 111.220286 
L 198.222482 111.435107 
L 198.396429 111.372393 
L 198.570376 111.427505 
L 198.744322 111.388098 
L 199.005243 111.38088 
L 199.17919 111.434549 
L 199.353137 111.385415 
L 209.398572 111.450466 
L 220.139795 111.705714 
L 221.705317 111.95829 
L 222.053211 112.005509 
L 222.183671 112.022479 
L 222.618538 112.109034 
L 222.835972 112.127618 
L 223.227352 112.19112 
L 223.401299 112.186221 
L 223.79268 112.288129 
L 224.010114 112.307377 
L 224.401494 112.371033 
L 224.575441 112.3645 
L 224.966822 112.462231 
L 225.184255 112.478783 
L 225.575636 112.53987 
L 225.79307 112.552547 
L 226.18445 112.609901 
L 226.31491 112.62127 
L 226.749778 112.697317 
L 226.967211 112.707305 
L 227.358592 112.762588 
L 227.532539 112.763291 
L 227.967406 112.849358 
L 228.18484 112.859203 
L 228.57622 112.913802 
L 228.793654 112.921944 
L 229.185035 112.974395 
L 229.358982 113.000489 
L 229.750362 113.055053 
L 229.967796 113.061966 
L 230.359177 113.113219 
L 230.57661 113.119954 
L 230.924504 113.187047 
L 231.141938 113.196861 
L 231.533318 113.250436 
L 231.750752 113.256096 
L 232.142133 113.306543 
L 232.316079 113.330546 
L 232.70746 113.382842 
L 232.924894 113.387539 
L 233.316274 113.436464 
L 233.533708 113.440931 
L 233.925089 113.48889 
L 234.099035 113.470689 
L 234.490416 113.561138 
L 234.70785 113.568885 
L 235.09923 113.622289 
L 235.273177 113.604288 
L 235.664558 113.693674 
L 235.925478 113.680366 
L 236.273372 113.749328 
L 236.490806 113.75778 
L 236.882186 113.810542 
L 237.056133 113.792487 
L 237.447514 113.882711 
L 237.708434 113.868667 
L 238.056328 113.937964 
L 238.273762 113.946401 
L 238.621656 114.016371 
L 238.882576 114.00362 
L 239.23047 114.072606 
L 239.447903 114.080436 
L 239.839284 114.132859 
L 240.013231 114.11537 
L 240.404612 114.203073 
L 240.665532 114.188515 
L 241.013426 114.256579 
L 241.274346 114.240331 
L 241.62224 114.310705 
L 241.970134 114.195229 
L 242.405001 114.421836 
L 242.796382 114.461518 
L 243.100789 114.473278 
L 243.274736 114.411059 
L 243.62263 114.580303 
L 244.057497 114.635971 
L 244.318417 114.632286 
L 244.492364 114.611847 
L 244.840258 114.725824 
L 245.144665 114.74309 
L 245.492559 114.77687 
L 245.666506 114.756779 
L 246.057887 114.852543 
L 246.318807 114.800866 
L 246.666701 114.925314 
L 246.971108 114.944606 
L 247.319002 114.978459 
L 247.492949 114.95776 
L 247.840843 115.067761 
L 248.14525 115.083804 
L 248.493144 115.117596 
L 248.667091 115.098317 
L 249.058471 115.190654 
L 249.319392 115.173284 
L 249.667285 115.245012 
L 249.928206 115.226113 
L 250.232613 115.315653 
L 250.493533 115.309823 
L 250.841427 115.384521 
L 251.102348 115.333696 
L 251.450241 115.459013 
L 251.754649 115.478467 
L 252.102542 115.512803 
L 252.276489 115.492525 
L 252.624383 115.601681 
L 252.972277 115.596847 
L 253.276684 115.646033 
L 253.450631 115.631464 
L 253.842012 115.729123 
L 254.102932 115.713579 
L 254.450826 115.786737 
L 254.66826 115.795463 
L 255.016153 115.866859 
L 255.277074 115.85269 
L 255.624968 115.92335 
L 255.885888 115.906007 
L 256.233782 115.978837 
L 256.407729 115.964919 
L 256.799109 116.059574 
L 257.06003 116.044871 
L 257.407924 116.116501 
L 257.625357 116.088797 
L 258.016738 116.196567 
L 258.277658 116.187215 
L 258.625552 116.258032 
L 258.886473 116.242208 
L 259.234366 116.314438 
L 259.4518 116.322778 
L 259.799694 116.393851 
L 260.060614 116.380697 
L 260.408508 116.450793 
L 260.669429 116.433744 
L 261.017322 116.506878 
L 261.234756 116.514341 
L 261.58265 116.587721 
L 261.930544 116.564604 
L 262.278438 116.654753 
L 262.495871 116.665744 
L 262.887252 116.723612 
L 263.104686 116.699198 
L 263.496066 116.802852 
L 263.7135 116.811993 
L 264.10488 116.867785 
L 264.322314 116.870727 
L 264.713695 116.922166 
L 264.887642 116.902335 
L 265.279022 116.995072 
L 265.583429 116.972608 
L 265.931323 117.056254 
L 266.148757 117.066892 
L 266.496651 117.141177 
L 266.757571 117.129192 
L 267.105465 117.201896 
L 267.409872 117.182168 
L 267.757766 117.266477 
L 267.931713 117.255106 
L 268.323093 117.354294 
L 268.584014 117.33953 
L 268.931908 117.416931 
L 269.149341 117.426478 
L 269.540722 117.483522 
L 269.714669 117.463977 
L 270.106049 117.560183 
L 270.36697 117.529268 
L 270.801837 117.633444 
L 271.019271 117.640359 
L 271.410651 117.697909 
L 271.584598 117.679144 
L 271.975979 117.776299 
L 272.236899 117.76246 
L 272.584793 117.838465 
L 272.845714 117.802957 
L 273.237094 117.931594 
L 273.498015 117.926536 
L 273.845908 118.005761 
L 274.106829 117.992315 
L 274.454723 118.072779 
L 274.62867 118.060953 
L 275.02005 118.162273 
L 275.280971 118.150491 
L 275.628864 118.229087 
L 275.846298 118.239007 
L 276.237679 118.299393 
L 276.411626 118.281052 
L 276.803006 118.380383 
L 277.02044 118.39013 
L 277.41182 118.449098 
L 277.629254 118.452906 
L 278.020635 118.51034 
L 278.151095 118.518543 
L 278.585962 118.593286 
L 278.803396 118.596883 
L 279.194776 118.653045 
L 279.368723 118.675829 
L 279.803591 118.713443 
L 279.934051 118.718513 
L 280.368918 118.790218 
L 280.586352 118.794166 
L 280.977732 118.848863 
L 281.195166 118.822075 
L 281.586547 118.932208 
L 281.80398 118.943755 
L 282.195361 119.004251 
L 282.412795 119.010079 
L 282.804175 119.067868 
L 282.978122 119.050413 
L 283.369503 119.149877 
L 283.586936 119.160865 
L 283.978317 119.221272 
L 284.195751 119.228686 
L 284.587131 119.286616 
L 284.761078 119.270352 
L 285.152459 119.371357 
L 285.369892 119.38324 
L 285.761273 119.445073 
L 285.978707 119.452885 
L 286.370087 119.512944 
L 286.500547 119.52285 
L 286.935415 119.602117 
L 287.152848 119.609818 
L 287.544229 119.668909 
L 287.718176 119.654986 
L 288.109556 119.753563 
L 288.370477 119.746128 
L 288.718371 119.827061 
L 289.022778 119.801573 
L 289.414158 119.940553 
L 289.718566 119.96664 
L 290.066459 120.01344 
L 290.19692 120.025972 
L 290.631787 120.112553 
L 290.849221 120.12212 
L 291.240601 120.187439 
L 291.371061 120.197809 
L 291.805929 120.280322 
L 292.023362 120.280499 
L 292.501716 120.365851 
L 292.675663 120.389408 
L 293.110531 120.435875 
L 293.414938 120.467176 
L 293.806318 120.547036 
L 294.023752 120.558419 
L 294.415133 120.625129 
L 294.589079 120.652325 
L 295.023947 120.700459 
L 295.154407 120.708914 
L 295.589274 120.790911 
L 295.806708 120.800509 
L 296.198089 120.865879 
L 296.415522 120.876296 
L 296.763416 120.959529 
L 297.024336 120.957381 
L 297.37223 121.044715 
L 297.589664 121.063395 
L 297.981045 121.134629 
L 298.154991 121.125132 
L 298.546372 121.235201 
L 298.763806 121.254292 
L 299.155186 121.324551 
L 299.37262 121.33726 
L 299.764001 121.408187 
L 299.894461 121.421581 
L 300.329328 121.508702 
L 300.590248 121.515935 
L 300.981629 121.598978 
L 301.199063 121.616843 
L 301.590443 121.688007 
L 301.76439 121.682669 
L 302.155771 121.794154 
L 302.373204 121.815614 
L 302.764585 121.888816 
L 302.982019 121.907637 
L 303.373399 121.979158 
L 303.547346 121.966703 
L 303.938727 122.087956 
L 304.15616 122.109312 
L 304.547541 122.186561 
L 304.764975 122.202678 
L 305.112869 122.29428 
L 305.330302 122.315263 
L 305.721683 122.39172 
L 305.939116 122.40558 
L 306.330497 122.484415 
L 306.504444 122.517259 
L 306.939311 122.574643 
L 307.069772 122.587386 
L 307.504639 122.681925 
L 307.678586 122.711135 
L 308.113453 122.770378 
L 308.2874 122.802001 
L 308.722267 122.857216 
L 308.852728 122.871908 
L 309.287595 122.96544 
L 309.505029 122.984867 
L 309.896409 123.06232 
L 310.113843 123.062163 
L 310.505223 123.191064 
L 310.722657 123.218362 
L 311.114038 123.301941 
L 311.331471 123.326187 
L 311.722852 123.40795 
L 311.853312 123.426823 
L 312.288179 123.526318 
L 312.505613 123.549934 
L 312.896994 123.62972 
L 313.114427 123.654598 
L 313.505808 123.736844 
L 313.679755 123.738112 
L 314.071135 123.862963 
L 314.288569 123.89399 
L 314.67995 123.979178 
L 314.897383 124.000805 
L 315.288764 124.091879 
L 315.419224 124.106958 
L 315.854091 124.217225 
L 316.028038 124.249409 
L 316.462906 124.320548 
L 316.593366 124.333626 
L 317.115207 124.43487 
L 318.028428 124.630529 
L 328.160836 126.652425 
L 329.595899 126.90525 
L 329.813332 126.952731 
L 330.77004 127.134335 
L 331.074448 127.202182 
L 333.074837 127.603761 
L 333.988059 127.779938 
L 335.988448 128.173665 
L 337.684431 128.528086 
L 340.815475 129.083013 
L 344.033494 129.565293 
L 346.251317 129.894871 
L 346.686184 129.968125 
L 355.731424 130.98989 
L 357.340434 131.10413 
L 359.38431 131.225767 
L 359.732204 131.253659 
L 359.732204 131.253659 
" clip-path="url(#p0189e06b5d)" style="fill: none; stroke: #ff7f0e; stroke-width: 1.5; stroke-linecap: square"/>
   </g>
   <g id="line2d_20">
    <path d="M 55.368567 48.92703 
L 55.542514 66.513868 
L 55.586001 64.013096 
L 55.672975 64.955687 
L 55.846922 66.820117 
L 55.890408 66.803726 
L 56.064355 65.647654 
L 56.151329 62.51373 
L 56.238302 62.950042 
L 56.455736 64.201519 
L 56.542709 63.900865 
L 56.716656 62.686371 
L 57.06455 65.695117 
L 57.108037 65.629899 
L 57.32547 63.350337 
L 57.368957 63.856463 
L 57.629878 66.647099 
L 57.847311 65.692482 
L 57.890798 65.732051 
L 58.195205 68.036834 
L 58.325665 67.719662 
L 58.412639 67.154892 
L 58.456125 66.591562 
L 58.499612 66.781376 
L 58.760533 68.318945 
L 58.847506 68.181505 
L 58.977966 67.16107 
L 59.021453 66.548537 
L 59.108426 66.876122 
L 59.32586 67.562434 
L 59.412834 67.381592 
L 59.630267 65.849674 
L 59.673754 66.079404 
L 60.065134 68.272209 
L 60.152108 67.48914 
L 60.239081 65.916398 
L 60.282568 66.193962 
L 60.673949 68.951059 
L 60.717435 68.792647 
L 60.804409 67.917008 
L 60.891382 68.253485 
L 61.021843 69.192359 
L 61.19579 70.423628 
L 61.239276 70.371797 
L 61.32625 69.417771 
L 61.413223 67.479361 
L 61.500197 67.878583 
L 61.71763 69.422925 
L 61.804604 69.407742 
L 61.848091 69.375013 
L 61.935064 68.26992 
L 61.978551 67.27804 
L 62.065524 67.498002 
L 62.326445 68.548754 
L 62.369931 68.497256 
L 62.500391 67.894129 
L 62.630852 66.815938 
L 62.674338 67.060207 
L 63.022232 69.04307 
L 63.109206 68.962096 
L 63.196179 68.746835 
L 63.239666 68.876238 
L 63.500586 70.234843 
L 63.631047 70.633283 
L 63.674533 70.566679 
L 63.71802 70.395283 
L 63.804993 70.500417 
L 63.935454 70.936247 
L 64.152887 71.969295 
L 64.196374 71.903017 
L 64.326834 70.862933 
L 64.370321 70.057922 
L 64.457294 70.175241 
L 64.674728 71.326657 
L 64.761702 71.049438 
L 64.935648 68.748471 
L 65.022622 69.037215 
L 65.327029 70.391825 
L 65.370516 70.312275 
L 65.500976 69.527387 
L 65.631436 67.900386 
L 65.674923 68.144732 
L 65.97933 70.622365 
L 66.022817 70.51965 
L 66.153277 68.616888 
L 66.283737 69.125702 
L 66.588144 70.875859 
L 66.762091 69.925654 
L 66.849065 70.277698 
L 67.153472 71.873063 
L 67.196959 71.682003 
L 67.414392 68.760992 
L 67.501366 69.179907 
L 67.84926 71.453798 
L 67.97972 70.944518 
L 68.11018 69.579838 
L 68.153667 70.088676 
L 68.458074 73.759394 
L 68.50156 73.697045 
L 68.675507 72.035701 
L 68.718994 72.319424 
L 68.936428 75.082951 
L 69.066888 75.967158 
L 69.110375 75.872308 
L 69.197348 75.113963 
L 69.240835 74.243657 
L 69.327808 74.478485 
L 69.588729 75.762312 
L 69.632216 75.606317 
L 69.849649 73.112611 
L 69.893136 72.583052 
L 69.936623 72.898825 
L 70.24103 75.980446 
L 70.284516 75.921453 
L 70.414977 73.928398 
L 70.50195 72.19565 
L 70.545437 72.605575 
L 70.806357 75.911899 
L 70.849844 75.898695 
L 70.936817 75.147345 
L 71.197738 72.536229 
L 71.589118 76.207113 
L 71.632605 76.041378 
L 71.763065 75.149108 
L 71.806552 75.43985 
L 71.980499 77.434381 
L 72.154446 79.290446 
L 72.197933 79.230794 
L 72.284906 77.956433 
L 72.37188 75.396553 
L 72.458853 75.665614 
L 72.719773 79.023566 
L 72.806747 78.377423 
L 73.024181 73.442329 
L 73.154641 74.565477 
L 73.328588 77.469588 
L 73.372074 77.266609 
L 73.502535 74.687174 
L 73.676482 70.189996 
L 73.719968 70.601782 
L 73.850429 74.267302 
L 73.980889 77.344213 
L 74.024375 76.903501 
L 74.459243 68.691696 
L 74.502729 69.727343 
L 74.76365 70.14562 
L 74.981084 71.06329 
L 75.198517 73.312804 
L 75.372464 74.859419 
L 75.415951 74.851852 
L 75.589898 74.385558 
L 75.633385 74.464289 
L 75.720358 72.867565 
L 75.894305 68.421538 
L 75.937792 68.99162 
L 76.155225 73.097645 
L 76.198712 72.821546 
L 76.285685 71.546597 
L 76.329172 67.778448 
L 76.416146 69.68305 
L 76.503119 67.045951 
L 76.590093 67.217831 
L 76.677066 67.922737 
L 76.720553 60.582744 
L 76.76404 68.478691 
L 76.807526 68.586409 
L 76.8945 66.567111 
L 76.937986 58.070548 
L 77.02496 61.996756 
L 77.068447 54.338338 
L 77.111933 61.62838 
L 77.329367 61.496598 
L 77.459827 61.181748 
L 77.503314 60.954864 
L 77.546801 61.08093 
L 77.590287 51.942192 
L 77.633774 62.572236 
L 77.720748 62.258213 
L 77.981668 66.492537 
L 78.068641 65.528893 
L 78.416535 60.625065 
L 78.460022 61.085697 
L 78.503509 61.072706 
L 78.546996 60.298845 
L 78.590482 60.788685 
L 78.764429 62.791453 
L 78.807916 62.619296 
L 78.981863 59.922495 
L 79.199297 53.004327 
L 79.373243 52.541446 
L 79.677651 51.144227 
L 79.721137 51.265378 
L 79.764624 51.361934 
L 79.808111 51.325351 
L 79.938571 48.919951 
L 79.982058 49.993597 
L 80.025544 50.656375 
L 80.069031 50.113362 
L 80.329952 47.269238 
L 80.373438 49.068095 
L 80.416925 47.991969 
L 80.547385 41.450026 
L 80.590872 41.593362 
L 81.112713 43.565582 
L 81.243173 43.499838 
L 81.460607 42.662471 
L 81.938961 38.507384 
L 82.025934 39.147872 
L 82.286854 42.380667 
L 82.330341 42.254389 
L 82.591262 40.860676 
L 82.634748 40.968728 
L 82.765209 41.214219 
L 82.808695 41.145653 
L 82.895669 40.330814 
L 83.113102 37.219657 
L 83.156589 37.283864 
L 83.200076 37.265163 
L 83.460996 35.60239 
L 83.504483 37.263571 
L 83.591456 36.768875 
L 83.765403 36.022905 
L 83.80889 36.219576 
L 83.93935 36.699352 
L 83.982837 36.662946 
L 84.06981 35.946774 
L 84.113297 34.699775 
L 84.156784 35.071141 
L 84.200271 27.201507 
L 84.287244 29.106452 
L 84.548165 32.310879 
L 84.852572 33.907004 
L 85.200466 37.43026 
L 85.243952 37.396799 
L 85.330926 36.849114 
L 85.548359 35.543919 
L 85.852766 35.44137 
L 86.0702 34.868187 
L 86.113687 35.150955 
L 86.244147 35.556766 
L 86.287634 35.488689 
L 86.418094 34.487963 
L 86.461581 34.561909 
L 86.592041 34.168278 
L 86.635528 33.98588 
L 86.679014 34.210767 
L 86.852961 34.49774 
L 86.896448 34.44951 
L 86.983422 33.991534 
L 87.026908 34.189347 
L 87.157368 34.186324 
L 87.244342 32.642988 
L 87.331315 32.81459 
L 87.374802 32.764424 
L 87.418289 32.860206 
L 87.766183 33.845641 
L 87.983616 35.067639 
L 88.027103 35.097362 
L 88.114077 35.661536 
L 88.157563 35.640354 
L 88.33151 35.407649 
L 88.374997 35.238177 
L 88.46197 35.263415 
L 88.635917 35.255515 
L 88.766378 34.884374 
L 88.983811 33.338184 
L 89.070785 33.432003 
L 89.418679 33.613285 
L 91.027688 33.750235 
L 91.201635 33.551164 
L 91.419068 32.559283 
L 91.549528 31.324262 
L 91.636502 31.579774 
L 91.723475 31.694694 
L 91.940909 33.401489 
L 92.201829 33.030988 
L 92.375776 33.761603 
L 92.680183 35.149982 
L 92.72367 35.098172 
L 92.897617 34.450785 
L 93.202024 32.045085 
L 93.419458 31.439379 
L 93.549918 30.295559 
L 93.593405 30.306437 
L 93.767352 33.218722 
L 93.810838 33.106603 
L 93.984785 22.383454 
L 94.071759 23.236741 
L 94.637086 28.289303 
L 94.72406 27.992726 
L 94.85452 25.69399 
L 95.11544 21.934905 
L 95.158927 22.885431 
L 95.202414 23.372711 
L 95.332874 21.260603 
L 95.376361 21.562862 
L 95.593794 23.463477 
L 95.637281 23.157764 
L 95.811228 20.305624 
L 95.854715 20.866143 
L 96.202609 23.773179 
L 96.507016 25.877858 
L 96.898396 27.904378 
L 97.333264 29.152448 
L 97.637671 29.539665 
L 98.072538 30.223193 
L 98.289972 30.46945 
L 98.637866 31.028785 
L 98.855299 31.348997 
L 99.24668 31.757397 
L 99.594574 32.025792 
L 100.507795 32.601444 
L 100.812202 32.767359 
L 101.551477 33.184505 
L 101.725424 33.18593 
L 101.899371 33.169225 
L 102.247264 33.166441 
L 102.638645 32.871184 
L 102.856079 32.745282 
L 103.160486 32.441835 
L 103.50838 32.434712 
L 103.725813 32.225073 
L 104.03022 32.100885 
L 104.291141 31.876529 
L 105.030415 32.272306 
L 105.726203 32.511836 
L 106.508964 32.455425 
L 106.769885 32.449687 
L 107.117778 32.361827 
L 107.291725 32.326077 
L 107.596132 32.257378 
L 107.944026 32.127942 
L 108.204947 32.050113 
L 108.378894 31.968363 
L 108.813761 31.853796 
L 109.074681 31.789725 
L 109.422575 31.699565 
L 109.726982 31.589956 
L 110.509743 31.506593 
L 110.857637 31.395048 
L 111.553425 31.50044 
L 111.814345 31.413014 
L 112.205726 31.400038 
L 112.466646 31.2445 
L 112.597107 31.199214 
L 113.031974 31.337596 
L 113.249408 31.513268 
L 113.814735 31.820544 
L 114.206116 31.851676 
L 114.423549 31.728493 
L 114.727956 31.631717 
L 114.94539 31.529916 
L 115.771638 32.005995 
L 116.293479 32.351336 
L 116.597886 32.491723 
L 116.771833 32.496421 
L 117.07624 32.468677 
L 117.2067 32.257814 
L 117.293674 31.998616 
L 117.33716 32.053161 
L 117.815514 32.352542 
L 117.902488 32.212081 
L 117.945975 32.329249 
L 118.337355 32.891012 
L 118.554789 32.876837 
L 118.685249 32.922933 
L 119.033143 33.122869 
L 119.250577 32.88415 
L 119.294063 32.921555 
L 119.59847 33.231061 
L 119.641957 33.172866 
L 119.728931 32.927441 
L 119.815904 32.994022 
L 120.163798 33.324694 
L 120.207285 33.273789 
L 120.294258 33.04968 
L 120.381232 33.105459 
L 120.772612 33.392497 
L 120.903072 33.091506 
L 120.990046 33.163504 
L 121.33794 33.580492 
L 121.381426 33.535979 
L 121.511887 33.326753 
L 121.555373 33.372969 
L 121.990241 33.79229 
L 122.120701 33.548452 
L 122.207674 33.627928 
L 122.555568 33.975594 
L 122.599055 33.932541 
L 122.729515 33.676071 
L 122.816489 33.750226 
L 123.164382 34.096454 
L 123.381816 33.909229 
L 123.425303 33.950062 
L 123.773197 34.204773 
L 123.99063 34.0938 
L 124.425498 34.419395 
L 124.599445 34.390596 
L 125.034312 34.684074 
L 125.208259 34.700332 
L 125.599639 35.064926 
L 125.817073 35.033642 
L 126.25194 35.411583 
L 126.469374 35.387033 
L 126.860755 35.602534 
L 127.078188 35.571075 
L 127.426082 35.763939 
L 127.687003 35.761945 
L 128.034896 35.871891 
L 128.295817 35.844391 
L 128.643711 35.957545 
L 128.904631 35.929605 
L 129.252525 36.008302 
L 129.513445 35.956305 
L 129.817852 36.044688 
L 130.12226 35.992915 
L 130.38318 36.054985 
L 130.687587 35.9509 
L 130.991994 36.040546 
L 131.252915 35.959468 
L 131.557322 36.095453 
L 131.905216 36.027836 
L 132.209623 36.115988 
L 132.64449 36.055662 
L 132.948897 36.105207 
L 133.296791 35.941529 
L 133.514225 36.047895 
L 133.862118 35.868838 
L 134.123039 36.067577 
L 134.470933 36.036028 
L 134.731853 36.155767 
L 135.210207 36.170813 
L 135.471128 36.135158 
L 135.688561 36.12493 
L 136.036455 36.130269 
L 136.340862 36.109278 
L 136.688756 36.090222 
L 136.90619 36.095018 
L 137.29757 36.052726 
L 137.471517 36.04539 
L 137.862898 36.024957 
L 138.080331 36.025033 
L 138.471712 35.982684 
L 138.645659 35.974956 
L 139.03704 35.936606 
L 139.254473 35.875881 
L 139.602367 35.870066 
L 139.819801 35.815791 
L 140.211181 35.818731 
L 140.428615 35.786475 
L 140.819996 35.815906 
L 141.080916 35.788088 
L 141.42881 35.831376 
L 141.733217 35.830953 
L 142.037624 35.835358 
L 142.255058 35.830608 
L 142.646438 35.839771 
L 142.820385 35.847602 
L 143.646633 35.907827 
L 146.386297 35.965118 
L 147.299519 36.026287 
L 148.125767 36.040036 
L 148.691094 36.083476 
L 148.865041 36.114011 
L 149.604315 36.230358 
L 152.039572 36.574947 
L 154.73575 37.042653 
L 160.910866 38.327923 
L 165.955327 39.599443 
L 167.477362 39.973984 
L 170.217026 40.715686 
L 171.173734 40.97486 
L 171.260708 34.22865 
L 171.304195 34.766333 
L 171.565115 35.806771 
L 171.782549 37.307418 
L 171.826035 29.616494 
L 171.913009 31.830359 
L 172.173929 33.013882 
L 172.56531 35.058045 
L 172.608797 27.996557 
L 172.69577 28.67031 
L 173.043664 32.594886 
L 173.174124 33.389029 
L 173.304584 33.727145 
L 173.348071 30.230173 
L 173.435044 31.002296 
L 173.869912 34.349628 
L 174.130832 35.316276 
L 174.391753 36.149079 
L 174.69616 36.641282 
L 174.739646 36.745109 
L 174.783133 30.85366 
L 174.870107 32.572478 
L 175.044054 33.610831 
L 175.348461 34.835233 
L 175.565894 35.432749 
L 175.826815 35.849486 
L 176.261682 36.687065 
L 176.566089 37.109407 
L 176.783523 37.343857 
L 176.913983 37.421505 
L 176.95747 31.986488 
L 177.044443 32.25862 
L 177.435824 33.406836 
L 177.696744 33.839382 
L 178.088125 34.59329 
L 178.305558 34.951826 
L 178.349045 33.968503 
L 178.436019 34.338622 
L 178.740426 34.588669 
L 179.001346 35.081298 
L 179.175293 35.344359 
L 179.436213 35.662637 
L 180.045028 36.616837 
L 180.132001 36.73104 
L 180.349435 37.057823 
L 180.653842 37.385084 
L 180.697329 37.467696 
L 180.740815 37.243637 
L 180.784302 37.410423 
L 180.958249 37.732827 
L 181.262656 38.036778 
L 181.87147 38.852671 
L 182.001931 39.092908 
L 182.088904 39.023805 
L 182.436798 39.341742 
L 182.958639 39.933103 
L 184.132781 40.923638 
L 184.176267 40.72704 
L 184.219754 40.79752 
L 184.567648 41.149546 
L 184.959028 41.425822 
L 185.132975 41.608824 
L 185.176462 41.076731 
L 185.219949 41.636704 
L 185.263436 41.656205 
L 185.306922 41.161373 
L 185.350409 41.697777 
L 185.393896 41.25625 
L 185.437382 41.75311 
L 185.480869 40.95653 
L 185.524356 41.816146 
L 185.567843 41.486797 
L 185.611329 41.558196 
L 185.654816 41.945614 
L 185.698303 41.601321 
L 185.74179 41.633838 
L 185.785276 41.980248 
L 185.828763 41.337984 
L 185.87225 41.696503 
L 185.915737 42.023253 
L 185.959223 41.426461 
L 186.00271 41.791395 
L 186.089683 41.843932 
L 186.13317 41.688681 
L 186.176657 42.197757 
L 186.26363 42.014347 
L 187.263825 42.045995 
L 187.307312 42.240249 
L 187.350799 42.047857 
L 187.524746 42.05317 
L 187.568232 42.246818 
L 187.611719 42.055004 
L 187.785666 42.060259 
L 187.829153 42.253276 
L 187.872639 42.062066 
L 188.046586 42.067267 
L 188.090073 42.25963 
L 188.13356 42.069047 
L 188.307507 42.074196 
L 188.350994 42.265883 
L 188.39448 42.075951 
L 188.568427 42.08105 
L 188.611914 42.272042 
L 188.655401 42.082782 
L 188.785861 41.868324 
L 188.916321 42.088515 
L 189.046781 41.875148 
L 189.090268 42.092862 
L 189.133755 41.837564 
L 189.177241 42.018983 
L 189.220728 42.053826 
L 189.351188 41.844486 
L 189.481649 42.060417 
L 189.612109 41.852083 
L 189.742569 42.066949 
L 189.873029 41.859604 
L 190.003489 42.258075 
L 190.13395 41.867045 
L 190.177436 41.86902 
L 190.307896 42.26445 
L 190.438357 41.876352 
L 190.568817 42.08799 
L 190.786251 41.886239 
L 190.829737 42.094285 
L 190.916711 42.065023 
L 190.960197 42.09684 
L 191.090658 41.895311 
L 191.221118 42.283628 
L 191.351578 41.902377 
L 191.395065 42.107701 
L 191.438551 41.90494 
L 191.482038 41.906834 
L 191.525525 42.28978 
L 191.612498 42.112506 
L 191.742959 41.913782 
L 191.873419 42.118604 
L 191.960392 41.920027 
L 192.090852 42.124113 
L 192.134339 41.925016 
L 192.177826 42.302957 
L 192.264799 42.12787 
L 192.351773 41.931165 
L 192.482233 42.308966 
L 192.612693 41.937871 
L 192.65618 42.137034 
L 192.699667 41.940313 
L 192.743153 41.942136 
L 192.873614 42.141655 
L 193.004074 41.948738 
L 193.047561 42.146097 
L 193.091047 41.951145 
L 193.134534 41.952947 
L 193.178021 42.322441 
L 193.264994 42.150666 
L 193.395454 41.959449 
L 193.438941 41.961234 
L 193.569401 42.157397 
L 193.699862 41.967657 
L 193.743348 41.969426 
L 193.873808 42.164834 
L 194.047755 41.977523 
L 194.178216 42.171457 
L 194.221702 41.982138 
L 194.265189 42.343078 
L 194.308676 41.983791 
L 194.352163 41.98553 
L 194.482623 42.17803 
L 194.569596 41.991823 
L 194.700056 42.182422 
L 194.830517 41.997965 
L 194.874003 41.999676 
L 195.004463 42.189611 
L 195.04795 42.165316 
L 195.134924 42.191773 
L 195.17841 42.007307 
L 195.308871 42.195905 
L 195.395844 42.013326 
L 195.439331 42.364142 
L 195.526304 42.200104 
L 195.613278 42.018665 
L 195.743738 42.20503 
L 195.830711 42.024595 
L 195.874198 42.371639 
L 195.961172 42.209188 
L 196.048145 42.029849 
L 196.178605 42.214069 
L 196.265579 42.035694 
L 196.309065 42.379097 
L 196.396039 42.218188 
L 196.483012 42.040868 
L 196.613473 42.223028 
L 196.700446 42.046632 
L 196.743933 42.386517 
L 196.78742 42.048068 
L 196.830906 42.049667 
L 196.961366 42.229913 
L 197.04834 42.055365 
L 197.1788 42.234696 
L 197.222287 42.213459 
L 197.352747 42.062422 
L 197.396234 42.238734 
L 197.43972 42.064447 
L 197.483207 42.066017 
L 197.526694 42.241502 
L 197.570181 42.06803 
L 197.613667 42.069591 
L 197.744128 42.245508 
L 197.831101 42.074525 
L 197.874588 42.248261 
L 197.918075 42.076515 
L 197.961561 42.078062 
L 198.092021 42.252967 
L 198.178995 42.083553 
L 198.222482 42.411022 
L 198.265968 42.084898 
L 198.309455 42.086431 
L 198.439915 42.259654 
L 198.526889 42.091866 
L 198.570376 42.262368 
L 198.613862 42.093809 
L 198.657349 42.095325 
L 198.700836 42.265073 
L 198.744322 42.246184 
L 198.874783 42.100078 
L 198.918269 42.268997 
L 198.961756 42.102001 
L 199.005243 42.103505 
L 199.04873 42.271689 
L 199.092216 42.105417 
L 199.135703 42.106913 
L 199.17919 42.274372 
L 199.222676 42.108815 
L 199.266163 42.110304 
L 199.30965 42.428481 
L 199.353137 42.111585 
L 199.396623 42.113071 
L 199.527084 42.280932 
L 199.614057 42.118319 
L 199.657544 42.283594 
L 199.701031 42.120192 
L 199.744517 42.121663 
L 199.788004 42.286249 
L 199.831491 42.123526 
L 199.874977 42.12499 
L 199.918464 42.438118 
L 199.961951 42.126238 
L 200.005438 42.127699 
L 200.048924 42.290837 
L 200.092411 42.129548 
L 200.135898 42.131003 
L 200.179385 42.293479 
L 200.222871 42.132842 
L 200.266358 42.134291 
L 200.396818 42.298006 
L 200.483792 42.139389 
L 200.527278 42.300626 
L 200.570765 42.283934 
L 200.701225 42.143855 
L 200.744712 42.145287 
L 200.788199 42.305156 
L 200.831686 42.147092 
L 200.875172 42.148518 
L 200.918659 42.307764 
L 200.962146 42.150314 
L 201.005632 42.151734 
L 201.049119 42.310364 
L 201.092606 42.153521 
L 201.136093 42.154936 
L 201.179579 42.312957 
L 201.223066 42.156714 
L 201.266553 42.158122 
L 201.31004 42.45967 
L 201.353526 42.159297 
L 201.397013 42.160703 
L 201.4405 42.317436 
L 201.483987 42.162469 
L 201.527473 42.16387 
L 201.57096 42.320018 
L 201.614447 42.165628 
L 201.657933 42.167023 
L 201.70142 42.322593 
L 201.744907 42.168772 
L 201.788394 42.170162 
L 201.83188 42.32516 
L 201.875367 42.171903 
L 201.962341 42.174667 
L 202.092801 42.315273 
L 202.136288 42.330297 
L 202.223261 42.180273 
L 202.266748 42.332855 
L 202.310234 42.18199 
L 202.353721 42.183357 
L 202.397208 42.335406 
L 202.440695 42.185066 
L 202.484181 42.186428 
L 202.527668 42.337949 
L 202.571155 42.188129 
L 202.614642 42.189486 
L 202.658128 42.340486 
L 202.701615 42.19118 
L 202.745102 42.192532 
L 202.788588 42.343017 
L 202.832075 42.194218 
L 202.919049 42.196909 
L 202.962535 42.484416 
L 203.006022 42.197999 
L 203.049509 42.19934 
L 203.092996 42.34808 
L 203.136482 42.201012 
L 203.179969 42.202348 
L 203.223456 42.350601 
L 203.266943 42.204013 
L 203.353916 42.206673 
L 203.397403 42.353806 
L 203.440889 42.208324 
L 203.484376 42.209647 
L 203.527863 42.356314 
L 203.57135 42.211292 
L 203.614836 42.212611 
L 203.658323 42.358816 
L 203.70181 42.214249 
L 203.745297 42.215563 
L 203.788783 42.361311 
L 203.83227 42.217195 
L 203.919244 42.219811 
L 204.049704 42.353576 
L 204.09319 42.366295 
L 204.223651 42.226371 
L 204.267137 42.369462 
L 204.310624 42.227977 
L 204.354111 42.22927 
L 204.397598 42.371943 
L 204.441084 42.23087 
L 204.571545 42.253649 
L 204.658518 42.118623 
L 204.702005 42.257359 
L 204.745491 42.121004 
L 204.832465 42.124318 
L 204.875952 42.262099 
L 204.919438 42.12666 
L 204.962925 42.1283 
L 205.006412 42.265722 
L 205.049899 42.130617 
L 205.136872 42.133862 
L 205.180359 42.270351 
L 205.223845 42.136144 
L 205.267332 42.13775 
L 205.310819 42.273895 
L 205.354306 42.140008 
L 205.441279 42.14319 
L 205.484766 42.404878 
L 205.528253 42.144862 
L 205.615226 42.148013 
L 205.658713 42.28226 
L 205.7022 42.150211 
L 205.745686 42.151773 
L 205.789173 42.285701 
L 205.83266 42.15395 
L 205.919633 42.157045 
L 205.96312 42.290097 
L 206.006607 42.159192 
L 206.09358 42.162254 
L 206.137067 42.294445 
L 206.180554 42.164373 
L 206.22404 42.165891 
L 206.267527 42.297787 
L 206.311014 42.167991 
L 206.397987 42.171002 
L 206.441474 42.302054 
L 206.484961 42.173076 
L 206.571934 42.176057 
L 206.615421 42.306279 
L 206.658908 42.178105 
L 206.745881 42.181057 
L 206.789368 42.310464 
L 206.832855 42.18308 
L 206.919828 42.186004 
L 206.963315 42.314609 
L 207.006801 42.188004 
L 207.093775 42.190901 
L 207.137262 42.318717 
L 207.180748 42.192877 
L 207.267722 42.195749 
L 207.311209 42.322789 
L 207.354695 42.197702 
L 207.441669 42.200548 
L 207.485156 42.326826 
L 207.528642 42.20248 
L 207.615616 42.205302 
L 207.659102 42.330829 
L 207.702589 42.207213 
L 207.789563 42.210011 
L 207.833049 42.3348 
L 207.876536 42.211902 
L 207.96351 42.214677 
L 208.006996 42.33874 
L 208.050483 42.216549 
L 208.137457 42.219301 
L 208.180943 42.342649 
L 208.22443 42.221154 
L 208.311403 42.223885 
L 208.35489 42.346529 
L 208.398377 42.225719 
L 208.528837 42.229778 
L 208.572324 42.351228 
L 208.615811 42.231589 
L 208.702784 42.234271 
L 208.746271 42.355049 
L 208.789757 42.236065 
L 208.876731 42.238727 
L 208.920218 42.358844 
L 208.963704 42.240504 
L 209.094165 42.244462 
L 209.137651 42.363438 
L 209.181138 42.246217 
L 209.268112 42.248833 
L 209.311598 42.367178 
L 209.355085 42.250573 
L 209.485545 42.254464 
L 209.529032 42.371707 
L 209.572519 42.256183 
L 209.659492 42.258757 
L 209.702979 42.375396 
L 209.746466 42.260461 
L 209.876926 42.264289 
L 209.920413 42.379861 
L 209.963899 42.265973 
L 210.094359 42.269764 
L 210.137846 42.384293 
L 210.181333 42.271429 
L 210.268306 42.273938 
L 210.311793 42.387908 
L 210.35528 42.27559 
L 210.48574 42.279324 
L 210.529227 42.392284 
L 210.572714 42.280958 
L 219.487494 42.638781 
L 219.878874 43.079204 
L 220.226768 43.311782 
L 220.487688 43.463583 
L 220.835582 43.671142 
L 221.096503 43.811076 
L 221.444396 44.007702 
L 221.705317 44.142508 
L 222.053211 44.335328 
L 222.270644 44.410436 
L 222.662025 44.61496 
L 222.879459 44.691639 
L 223.270839 44.900847 
L 223.488273 44.979885 
L 224.314521 45.321324 
L 225.097282 45.693283 
L 225.575636 45.859016 
L 225.880043 45.971032 
L 226.793264 46.340841 
L 227.010698 46.404353 
L 227.402079 46.581617 
L 227.662999 46.647739 
L 228.489247 46.943028 
L 229.315495 47.277183 
L 229.793849 47.450012 
L 230.011283 47.510265 
L 230.402663 47.679043 
L 230.620097 47.743095 
L 231.489832 48.048092 
L 231.968186 48.21353 
L 234.794823 49.235129 
L 235.621071 49.532988 
L 236.447319 49.868821 
L 236.925673 50.040361 
L 237.186593 50.108793 
L 238.012841 50.415296 
L 238.534682 50.581517 
L 240.013231 51.093539 
L 240.491585 51.25015 
L 240.752505 51.312719 
L 241.62224 51.607163 
L 242.361515 51.901613 
L 244.057497 52.381575 
L 248.710577 53.171522 
L 251.450241 53.306974 
L 253.624578 53.254272 
L 255.016153 53.158305 
L 255.798915 53.04668 
L 256.277269 53.012193 
L 256.494702 53.00343 
L 257.277464 52.926492 
L 265.409482 51.586951 
L 265.583429 51.570938 
L 265.97481 51.501692 
L 266.148757 51.48403 
L 266.540137 51.423254 
L 266.801058 51.379068 
L 267.148952 51.309325 
L 267.409872 51.238642 
L 267.801253 51.16848 
L 267.9752 51.150447 
L 268.36658 51.090366 
L 268.627501 51.046454 
L 268.975394 50.976846 
L 269.192828 50.96105 
L 269.584209 50.876254 
L 269.758156 50.857148 
L 270.149536 50.795132 
L 270.410457 50.735199 
L 270.845324 50.66581 
L 271.019271 50.647666 
L 271.454138 50.565733 
L 271.628085 50.546441 
L 272.019466 50.483503 
L 272.280386 50.439809 
L 272.62828 50.369764 
L 272.8892 50.307892 
L 273.280581 50.259928 
L 273.541501 50.220688 
L 273.932882 50.129461 
L 274.106829 50.111298 
L 274.498209 50.045752 
L 274.672156 50.029314 
L 275.063537 49.97424 
L 275.324457 49.934604 
L 275.672351 49.871552 
L 275.889785 49.858243 
L 276.281165 49.781415 
L 276.455112 49.764597 
L 276.846493 49.710123 
L 277.063927 49.697502 
L 277.455307 49.626397 
L 277.672741 49.613162 
L 278.412015 49.547326 
L 286.674494 48.572429 
L 287.500742 48.479725 
L 287.892123 48.444721 
L 288.718371 48.337514 
L 289.109751 48.27186 
L 289.501132 48.220106 
L 289.718566 48.220691 
L 290.370866 48.180577 
L 291.197114 48.097254 
L 291.545008 48.083292 
L 292.45823 48.001448 
L 292.84961 47.988309 
L 293.849805 47.866595 
L 294.067239 47.864964 
L 294.893487 47.823358 
L 295.850195 47.737888 
L 296.632956 47.690293 
L 299.546567 47.482392 
L 303.416886 47.218097 
L 303.677806 47.2213 
L 304.591028 47.157461 
L 304.851948 47.160876 
L 306.243524 47.101302 
L 307.200232 47.06137 
L 308.635294 47.010244 
L 309.505029 46.963704 
L 310.461737 46.932908 
L 311.374958 46.899222 
L 312.331666 46.865661 
L 312.67956 46.875466 
L 327.030181 46.853545 
L 339.4239 47.402933 
L 342.641918 47.602553 
L 343.468166 47.657228 
L 346.164343 47.860466 
L 347.251512 47.958747 
L 352.46992 48.466023 
L 354.600769 48.666975 
L 359.732204 49.231103 
L 359.732204 49.231103 
" clip-path="url(#p0189e06b5d)" style="fill: none; stroke: #2ca02c; stroke-width: 1.5; stroke-linecap: square"/>
   </g>
   <g id="patch_3">
    <path d="M 40.150386 231.985624 
L 40.150386 10.225624 
" style="fill: none; stroke: #000000; stroke-width: 0.8; stroke-linejoin: miter; stroke-linecap: square"/>
   </g>
   <g id="patch_4">
    <path d="M 374.950386 231.985624 
L 374.950386 10.225624 
" style="fill: none; stroke: #000000; stroke-width: 0.8; stroke-linejoin: miter; stroke-linecap: square"/>
   </g>
   <g id="patch_5">
    <path d="M 40.150386 231.985624 
L 374.950386 231.985624 
" style="fill: none; stroke: #000000; stroke-width: 0.8; stroke-linejoin: miter; stroke-linecap: square"/>
   </g>
   <g id="patch_6">
    <path d="M 40.150386 10.225624 
L 374.950386 10.225624 
" style="fill: none; stroke: #000000; stroke-width: 0.8; stroke-linejoin: miter; stroke-linecap: square"/>
   </g>
   <g id="legend_1">
    <g id="patch_7">
     <path d="M 47.150386 60.886544 
L 91.655585 60.886544 
Q 93.655585 60.886544 93.655585 58.886544 
L 93.655585 17.225624 
Q 93.655585 15.225624 91.655585 15.225624 
L 47.150386 15.225624 
Q 45.150386 15.225624 45.150386 17.225624 
L 45.150386 58.886544 
Q 45.150386 60.886544 47.150386 60.886544 
z
" style="fill: #ffffff; opacity: 0.8; stroke: #cccccc; stroke-linejoin: miter"/>
    </g>
    <g id="line2d_21">
     <path d="M 49.150386 22.823944 
L 59.150386 22.823944 
L 69.150386 22.823944 
" style="fill: none; stroke: #1f77b4; stroke-width: 1.5; stroke-linecap: square"/>
    </g>
    <g id="text_20">
     <!-- $\rho$ -->
     <g transform="translate(77.150386 26.323944) scale(0.1 -0.1)">
      <defs>
       <path id="CMMI12-1a" d="M 198 -1085 
C 192 -1116 179 -1154 179 -1191 
C 179 -1287 256 -1351 352 -1351 
C 448 -1351 538 -1287 576 -1198 
C 602 -1141 781 -390 986 389 
C 1114 70 1350 -64 1600 -64 
C 2323 -64 3142 830 3142 1794 
C 3142 2477 2726 2816 2285 2816 
C 1722 2816 1037 2234 826 1385 
L 198 -1085 
z
M 1594 64 
C 1158 64 1050 568 1050 645 
C 1050 683 1210 1289 1229 1385 
C 1555 2656 2182 2687 2278 2687 
C 2566 2687 2726 2426 2726 2049 
C 2726 1724 2554 1091 2445 823 
C 2253 383 1920 64 1594 64 
z
" transform="scale(0.015625)"/>
      </defs>
      <use xlink:href="#CMMI12-1a" transform="scale(0.996264)"/>
     </g>
    </g>
    <g id="line2d_22">
     <path d="M 49.150386 37.044251 
L 59.150386 37.044251 
L 69.150386 37.044251 
" style="fill: none; stroke: #ff7f0e; stroke-width: 1.5; stroke-linecap: square"/>
    </g>
    <g id="text_21">
     <!-- $\rho u$ -->
     <g transform="translate(77.150386 40.544251) scale(0.1 -0.1)">
      <defs>
       <path id="CMMI12-75" d="M 2182 370 
C 2266 12 2573 -64 2726 -64 
C 2931 -64 3085 70 3187 287 
C 3296 517 3379 893 3379 913 
C 3379 944 3354 970 3315 970 
C 3258 970 3251 938 3226 842 
C 3110 402 2995 64 2739 64 
C 2547 64 2547 274 2547 357 
C 2547 504 2566 568 2630 836 
C 2675 1008 2720 1181 2758 1359 
L 3021 2400 
C 3066 2560 3066 2572 3066 2591 
C 3066 2687 2989 2752 2893 2752 
C 2707 2752 2662 2591 2624 2432 
C 2560 2183 2214 810 2170 587 
C 2163 587 1914 64 1446 64 
C 1114 64 1050 351 1050 587 
C 1050 951 1229 1462 1395 1890 
C 1472 2094 1504 2177 1504 2305 
C 1504 2579 1306 2816 998 2816 
C 410 2816 173 1890 173 1838 
C 173 1813 198 1781 243 1781 
C 301 1781 307 1807 333 1896 
C 486 2445 736 2687 979 2687 
C 1043 2687 1146 2681 1146 2477 
C 1146 2311 1075 2126 979 1883 
C 698 1123 666 881 666 689 
C 666 38 1158 -64 1421 -64 
C 1830 -64 2054 217 2182 370 
z
" transform="scale(0.015625)"/>
      </defs>
      <use xlink:href="#CMMI12-1a" transform="scale(0.996264)"/>
      <use xlink:href="#CMMI12-75" transform="translate(50.314373 0) scale(0.996264)"/>
     </g>
    </g>
    <g id="line2d_23">
     <path d="M 49.150386 51.264557 
L 59.150386 51.264557 
L 69.150386 51.264557 
" style="fill: none; stroke: #2ca02c; stroke-width: 1.5; stroke-linecap: square"/>
    </g>
    <g id="text_22">
     <!-- $\rho E$ -->
     <g transform="translate(77.150386 54.764557) scale(0.1 -0.1)">
      <defs>
       <path id="CMMI12-45" d="M 4448 1489 
C 4454 1508 4474 1553 4474 1578 
C 4474 1611 4448 1643 4410 1643 
C 4384 1643 4371 1636 4352 1617 
C 4339 1611 4339 1598 4282 1469 
C 3904 570 3629 185 2605 185 
L 1670 185 
C 1581 185 1568 185 1530 192 
C 1459 198 1453 211 1453 262 
C 1453 307 1466 346 1478 403 
L 1920 2176 
L 2554 2176 
C 3053 2176 3091 2066 3091 1874 
C 3091 1810 3091 1752 3046 1559 
C 3034 1534 3027 1508 3027 1489 
C 3027 1444 3059 1424 3098 1424 
C 3155 1424 3162 1469 3187 1559 
L 3552 3036 
C 3552 3068 3526 3099 3488 3099 
C 3430 3099 3424 3074 3398 2986 
C 3270 2500 3142 2361 2573 2361 
L 1965 2361 
L 2362 3913 
C 2419 4134 2432 4153 2694 4153 
L 3610 4153 
C 4397 4153 4557 3945 4557 3465 
C 4557 3459 4557 3282 4531 3074 
C 4525 3049 4518 3011 4518 2998 
C 4518 2948 4550 2929 4589 2929 
C 4634 2929 4659 2954 4672 3068 
L 4806 4172 
C 4806 4191 4819 4255 4819 4268 
C 4819 4339 4762 4339 4646 4339 
L 1523 4339 
C 1402 4339 1338 4339 1338 4223 
C 1338 4153 1382 4153 1491 4153 
C 1888 4153 1888 4109 1888 4039 
C 1888 4008 1882 3983 1862 3913 
L 998 474 
C 941 249 928 185 480 185 
C 358 185 294 185 294 70 
C 294 0 333 0 461 0 
L 3674 0 
C 3814 0 3821 6 3866 108 
L 4448 1489 
z
" transform="scale(0.015625)"/>
      </defs>
      <use xlink:href="#CMMI12-1a" transform="scale(0.996264)"/>
      <use xlink:href="#CMMI12-45" transform="translate(50.314373 0) scale(0.996264)"/>
     </g>
    </g>
   </g>
  </g>
 </g>
 <defs>
  <clipPath id="p0189e06b5d">
   <rect x="40.150386" y="10.225624" width="334.8" height="221.76"/>
  </clipPath>
 </defs>
</svg>
